<?xml version="1.0" encoding="utf-8"?>
<!-- Generator: Adobe Illustrator 16.0.0, SVG Export Plug-In . SVG Version: 6.00 Build 0)  -->
<!DOCTYPE svg PUBLIC "-//W3C//DTD SVG 1.1//EN" "http://www.w3.org/Graphics/SVG/1.1/DTD/svg11.dtd">
<svg version="1.1" id="Layer_1" xmlns="http://www.w3.org/2000/svg" xmlns:xlink="http://www.w3.org/1999/xlink" x="0px" y="0px"
	 width="152.716px" height="43.689px" viewBox="229.02 370.353 152.716 43.689"
	 enable-background="new 229.02 370.353 152.716 43.689" xml:space="preserve">
<g>
	<path d="M240.165,404.807c0,2.547-1.02,5.925-4.14,5.986c-1.529-0.062-2.483-0.828-2.483-2.42
		C233.542,405.381,237.936,404.807,240.165,404.807L240.165,404.807z M244.559,413.596v-14.203c0.063-4.583-2.993-6.176-7.196-6.176
		c-4.14,0-7.578,1.783-7.578,6.306h4.521c0-1.976,1.083-3.059,3.057-3.059c2.293,0,2.802,1.655,2.802,3.63v1.976
		c-4.521,0.127-11.082,0.764-11.145,6.75c0.063,3.375,2.739,5.223,5.859,5.223c2.229,0,4.203-0.764,5.159-2.738h0.127v2.293
		L244.559,413.596L244.559,413.596z"/>
	<path d="M258.315,400.477c0-2.036-0.574-4.013-2.994-4.013c-2.93,0-3.758,3.059-3.821,5.479c0.063,4.967,2.929,8.789,8.215,8.852
		c1.146-0.062,2.229-0.191,3.312-0.51v2.803c-1.847,0.572-3.821,0.955-5.795,0.955c-7.069,0-10.635-4.396-10.635-11.271
		c0-5.796,3.121-9.553,9.107-9.553c4.84,0,7.578,2.356,7.578,7.26L258.315,400.477L258.315,400.477z"/>
	<path d="M276.146,400.477c0-2.036-0.573-4.013-2.993-4.013c-2.93,0-3.821,3.059-3.821,5.479c0,4.967,2.93,8.789,8.152,8.852
		c1.146-0.062,2.292-0.191,3.375-0.51v2.803c-1.847,0.572-3.821,0.955-5.795,0.955c-7.07,0-10.636-4.396-10.636-11.271
		c0-5.796,3.12-9.553,9.107-9.553c4.84,0,7.515,2.356,7.515,7.26L276.146,400.477L276.146,400.477z"/>
	<path d="M294.297,399.648h-7.26c0.255-2.037,1.783-3.439,3.757-3.439C292.958,396.209,294.297,397.482,294.297,399.648
		L294.297,399.648z M298.691,402.451v-1.146c0-4.904-2.483-8.088-7.578-8.088c-5.923,0-8.471,3.693-8.534,9.361
		c0.063,6.559,2.993,11.463,10.062,11.463c1.91,0,3.757-0.254,5.541-0.828v-3.184c-1.147,0.383-2.548,0.701-3.821,0.764
		c-4.458-0.062-7.452-4.139-7.452-8.342H298.691L298.691,402.451z"/>
	<path d="M312.447,413.596v-11.399c0-0.955,0.062-3.502-0.7-4.267c-0.318-0.317-0.894-0.383-1.338-0.383
		c-3.375,0-4.712,4.713-4.712,7.451v8.598h-4.649v-19.934h4.649v3.758h0.063c1.083-2.548,3.121-4.203,5.923-4.203
		c3.821,0,5.413,3.121,5.413,6.56v13.819H312.447L312.447,413.596z"/>
	<path d="M326.713,396.91v9.426c0,2.291,0.254,4.396,3.12,4.457c0.765-0.062,1.465-0.191,2.165-0.381v3.311
		c-1.273,0.191-2.547,0.318-3.82,0.318c-4.013,0-6.051-1.338-6.113-5.477V396.91h-3.886v-3.249h3.886v-4.712l4.648-1.847v6.559
		h5.922v3.249H326.713L326.713,396.91z"/>
	<path d="M346.009,413.596v-3.758h-0.062c-1.021,2.484-3.058,4.203-5.923,4.203c-3.758,0-5.351-3.184-5.351-6.559v-13.821h4.649
		v11.398c0,0.957-0.063,3.505,0.7,4.269c0.318,0.318,0.892,0.318,1.338,0.383c3.312-0.063,4.647-4.777,4.647-7.387v-8.663h4.649
		v19.934L346.009,413.596L346.009,413.596z"/>
	<path d="M358.236,404.871v8.725h-4.649v-19.934h4.649v3.694h0.063c1.592-2.738,3.12-4.14,6.433-4.14v4.84
		C360.02,398.057,358.236,400.158,358.236,404.871L358.236,404.871z"/>
	<path d="M377.342,399.648h-7.26c0.255-2.037,1.783-3.439,3.759-3.439C376.004,396.209,377.405,397.482,377.342,399.648
		L377.342,399.648z M381.736,402.451v-1.146c0-4.904-2.483-8.088-7.516-8.088c-5.923,0-8.534,3.693-8.534,9.361
		c0,6.559,2.994,11.463,9.999,11.463c1.91,0,3.759-0.254,5.54-0.828v-3.184c-1.146,0.383-2.482,0.701-3.757,0.764
		c-4.521-0.062-7.451-4.139-7.515-8.342H381.736L381.736,402.451z"/>
	<path d="M318.179,370.353v3.248c0,0,9.298,3.566,10.637,4.14c-1.339,0.51-10.637,4.076-10.637,4.076v3.248l14.456-5.858v-2.994
		L318.179,370.353L318.179,370.353z"/>
</g>
</svg>
