<?xml version="1.0" encoding="utf-8"?>
<!-- Generator: Adobe Illustrator 16.0.0, SVG Export Plug-In . SVG Version: 6.00 Build 0)  -->
<!DOCTYPE svg PUBLIC "-//W3C//DTD SVG 1.1//EN" "http://www.w3.org/Graphics/SVG/1.1/DTD/svg11.dtd">
<svg version="1.1" id="Layer_1" xmlns="http://www.w3.org/2000/svg" xmlns:xlink="http://www.w3.org/1999/xlink" x="0px" y="0px"
	 width="110.01px" height="128.628px" viewBox="344.944 232.28 110.01 128.628"
	 enable-background="new 344.944 232.28 110.01 128.628" xml:space="preserve">
<g>
	<g>
		<g>
			<g>
				<path fill="#281D67" d="M347.204,303.256c0.077-0.617,0.598-1.023,1.061-0.965c0.618,0.076,1.023,0.598,0.946,1.215
					c-0.058,0.463-0.578,0.868-1.196,0.791C347.551,304.239,347.146,303.719,347.204,303.256L347.204,303.256L347.204,303.256z"/>
				<path fill="#281D67" d="M352.282,304.018c0.096-0.771,0.79-1.312,1.407-1.235c0.771,0.097,1.312,0.791,1.217,1.562
					c-0.077,0.617-0.771,1.158-1.543,1.062C352.746,305.329,352.205,304.635,352.282,304.018L352.282,304.018L352.282,304.018z"/>
				<path fill="#281D67" d="M359.014,304.188c0.115-0.927,0.964-1.447,1.736-1.353c0.926,0.115,1.467,0.812,1.352,1.735
					c-0.096,0.771-0.809,1.468-1.734,1.353C359.594,305.828,358.918,304.96,359.014,304.188L359.014,304.188L359.014,304.188z"/>
				<path fill="#281D67" d="M365.38,302.367c0.153-1.234,1.368-2.181,2.604-2.028c1.234,0.154,2.182,1.369,2.027,2.604
					c-0.152,1.233-1.368,2.181-2.604,2.027C366.173,304.816,365.227,303.602,365.38,302.367L365.38,302.367L365.38,302.367z"/>
				<path fill="#281D67" d="M373.841,300.401c0.211-1.698,1.773-2.915,3.625-2.685c1.698,0.211,2.915,1.773,2.704,3.472
					c-0.229,1.854-1.792,3.069-3.491,2.857C374.827,303.816,373.611,302.254,373.841,300.401L373.841,300.401L373.841,300.401z"/>
				<path fill="#281D67" d="M382.242,294.927c0.269-2.161,2.333-3.629,4.339-3.379c2.162,0.269,3.647,2.178,3.38,4.339
					c-0.25,2.007-2.178,3.648-4.339,3.379C383.614,299.017,381.992,296.934,382.242,294.927L382.242,294.927L382.242,294.927z"/>
				<path fill="#281D67" d="M390.013,286.214c0.308-2.47,2.719-4.208,5.188-3.901c2.314,0.288,4.073,2.544,3.766,5.014
					c-0.326,2.624-2.583,4.381-4.897,4.094C391.599,291.113,389.688,288.838,390.013,286.214L390.013,286.214L390.013,286.214z"/>
				<path fill="#281D67" d="M408.104,242.098c0.537-4.323,4.529-7.432,9.007-6.875c4.321,0.537,7.586,4.548,7.049,8.871
					c-0.558,4.477-4.703,7.567-9.025,7.029C410.656,250.566,407.547,246.574,408.104,242.098L408.104,242.098L408.104,242.098z"/>
				<path fill="#281D67" d="M402.462,259.641c0.492-3.96,4.12-6.785,7.933-6.311c3.96,0.492,6.785,4.12,6.294,8.079
					c-0.492,3.959-4.12,6.785-8.08,6.292C404.795,267.228,401.97,263.6,402.462,259.641L402.462,259.641L402.462,259.641z"/>
				<path fill="#281D67" d="M396.524,275.031c0.402-3.242,3.218-5.713,6.614-5.292c3.242,0.403,5.521,3.508,5.117,6.75
					c-0.402,3.242-3.354,5.54-6.596,5.137C398.265,281.204,396.121,278.273,396.524,275.031L396.524,275.031L396.524,275.031z"/>
			</g>
			<g>
				<path fill="#312782" d="M351.337,291.229c0.115-0.926,0.829-1.621,1.755-1.506c0.926,0.115,1.603,0.983,1.487,1.909
					c-0.115,0.926-0.964,1.448-1.89,1.333C351.763,292.85,351.222,292.155,351.337,291.229L351.337,291.229L351.337,291.229z"/>
				<path fill="#312782" d="M344.951,290.696c0.077-0.617,0.771-1.158,1.233-1.101c0.771,0.096,1.158,0.771,1.082,1.389
					c-0.076,0.617-0.597,1.023-1.369,0.927C345.434,291.854,344.874,291.314,344.951,290.696L344.951,290.696L344.951,290.696z"/>
				<path fill="#312782" d="M374.495,281.163c0.288-2.316,2.371-3.938,4.687-3.65c2.315,0.288,3.938,2.371,3.649,4.686
					c-0.288,2.315-2.37,3.938-4.687,3.65C375.83,285.561,374.208,283.478,374.495,281.163L374.495,281.163L374.495,281.163z"/>
				<path fill="#312782" d="M365.695,287.645c0.191-1.543,1.581-2.625,3.125-2.433c1.543,0.192,2.625,1.58,2.433,3.124
					c-0.192,1.543-1.581,2.625-3.124,2.433C366.584,290.577,365.503,289.189,365.695,287.645L365.695,287.645L365.695,287.645z"/>
				<path fill="#312782" d="M358.868,290.441c0.115-0.926,0.964-1.448,1.89-1.333c0.926,0.115,1.621,0.829,1.506,1.755
					c-0.114,0.926-0.982,1.602-1.908,1.487C359.429,292.235,358.753,291.367,358.868,290.441L358.868,290.441L358.868,290.441z"/>
				<path fill="#312782" d="M363.147,315.283c0.096-0.771,0.79-1.312,1.562-1.217c0.772,0.095,1.312,0.791,1.217,1.562
					s-0.79,1.312-1.562,1.218C363.592,316.75,363.052,316.055,363.147,315.283L363.147,315.283L363.147,315.283z"/>
				<path fill="#312782" d="M357.418,314.818c0.058-0.463,0.559-0.713,1.022-0.656c0.463,0.059,0.732,0.404,0.676,0.867
					c-0.077,0.617-0.424,0.889-0.888,0.83C357.766,315.803,357.342,315.438,357.418,314.818L357.418,314.818L357.418,314.818z"/>
				<path fill="#312782" d="M352.832,313.988c0.039-0.309,0.405-0.734,0.868-0.676c0.463,0.057,0.714,0.559,0.676,0.867
					c-0.058,0.463-0.424,0.887-0.887,0.829C353.026,314.953,352.774,314.451,352.832,313.988L352.832,313.988L352.832,313.988z"/>
				<path fill="#312782" d="M370.378,315.542c0.134-1.081,1.002-1.757,1.928-1.642c0.927,0.115,1.603,0.981,1.469,2.062
					c-0.097,0.771-0.983,1.604-1.909,1.487S370.283,316.312,370.378,315.542L370.378,315.542L370.378,315.542z"/>
				<path fill="#312782" d="M378.861,314.768c0.153-1.233,1.369-2.182,2.604-2.026c1.235,0.153,2.182,1.368,2.028,2.604
					c-0.154,1.233-1.35,2.025-2.584,1.872C379.673,317.062,378.708,316.002,378.861,314.768L378.861,314.768L378.861,314.768z"/>
				<path fill="#312782" d="M387.525,311.271c0.229-1.853,1.792-3.068,3.49-2.857s2.915,1.773,2.685,3.626
					c-0.211,1.698-1.773,2.915-3.472,2.704C388.531,314.533,387.314,312.971,387.525,311.271L387.525,311.271L387.525,311.271z"/>
				<path fill="#312782" d="M395.424,305.841c0.308-2.47,2.544-4.073,5.015-3.767c2.315,0.289,4.092,2.391,3.784,4.859
					c-0.307,2.471-2.543,4.073-4.858,3.785C396.894,310.412,395.117,308.311,395.424,305.841L395.424,305.841L395.424,305.841z"/>
				<path fill="#312782" d="M380.604,269.643c0.346-2.779,2.949-4.806,5.728-4.461c2.779,0.346,4.807,2.949,4.461,5.728
					c-0.346,2.779-2.949,4.807-5.728,4.461C382.286,275.025,380.258,272.421,380.604,269.643L380.604,269.643L380.604,269.643z"/>
				<path fill="#312782" d="M386.771,255.661c0.422-3.396,3.526-5.675,6.769-5.272c3.242,0.403,5.54,3.354,5.118,6.75
					c-0.403,3.242-3.354,5.54-6.595,5.137C388.82,261.873,386.367,258.903,386.771,255.661L386.771,255.661L386.771,255.661z"/>
				<path fill="#312782" d="M391.271,238.69c0.498-4.013,4.144-6.852,8.156-6.353c4.015,0.499,6.854,4.144,6.354,8.157
					c-0.499,4.013-4.163,7.007-8.177,6.508C393.591,246.503,390.771,242.704,391.271,238.69L391.271,238.69L391.271,238.69z"/>
				<path fill="#312782" d="M404.449,296.395c0.346-2.779,2.949-4.806,5.728-4.461c2.778,0.346,4.807,2.949,4.461,5.728
					c-0.345,2.779-2.93,4.65-5.708,4.307C406.15,301.622,404.104,299.173,404.449,296.395L404.449,296.395L404.449,296.395z"/>
				<path fill="#312782" d="M412.402,284.542c0.363-2.933,3.122-4.942,6.055-4.577c2.934,0.365,5.115,2.987,4.75,5.92
					c-0.383,3.087-3.16,5.25-6.093,4.885C414.181,290.407,412.018,287.63,412.402,284.542L412.402,284.542L412.402,284.542z"/>
				<path fill="#312782" d="M418.546,269.582c0.479-3.859,3.932-6.409,7.636-5.948c3.705,0.46,6.429,3.777,5.949,7.636
					c-0.461,3.705-3.932,6.409-7.637,5.948C420.789,276.757,418.085,273.287,418.546,269.582L418.546,269.582L418.546,269.582z"/>
				<path fill="#312782" d="M424.008,252.1c0.538-4.322,4.356-7.296,8.679-6.759c4.169,0.518,7.143,4.336,6.604,8.659
					c-0.518,4.168-4.336,7.142-8.504,6.624C426.465,260.086,423.49,256.268,424.008,252.1L424.008,252.1L424.008,252.1z"/>
			</g>
			<g>
				<path fill="#0069B3" d="M374.895,241.906c0.423-3.396,3.373-5.694,6.77-5.272c3.242,0.403,5.54,3.354,5.118,6.75
					c-0.403,3.242-3.354,5.54-6.595,5.137C376.79,248.098,374.492,245.147,374.895,241.906L374.895,241.906L374.895,241.906z"/>
				<path fill="#0069B3" d="M370.126,257.354c0.326-2.625,2.93-4.652,5.554-4.326c2.778,0.346,4.807,2.949,4.48,5.573
					c-0.345,2.779-2.949,4.807-5.729,4.461C371.809,262.736,369.781,260.133,370.126,257.354L370.126,257.354L370.126,257.354z"/>
				<path fill="#0069B3" d="M364.245,269.014c0.269-2.161,2.159-3.494,4.166-3.244c2.006,0.25,3.513,2.004,3.244,4.166
					c-0.25,2.007-2.159,3.494-4.166,3.244S363.996,271.021,364.245,269.014L364.245,269.014L364.245,269.014z"/>
				<path fill="#0069B3" d="M358.995,275.447c0.191-1.543,1.562-2.471,2.951-2.298c1.544,0.192,2.645,1.426,2.452,2.97
					c-0.192,1.543-1.562,2.471-3.104,2.279C359.903,278.225,358.803,276.991,358.995,275.447L358.995,275.447L358.995,275.447z"/>
				<path fill="#0069B3" d="M351.935,278.75c0.135-1.081,1.003-1.757,2.083-1.622c1.081,0.134,1.758,1.002,1.623,2.083
					s-1.002,1.756-2.083,1.622S351.801,279.831,351.935,278.75L351.935,278.75L351.935,278.75z"/>
				<path fill="#0069B3" d="M346.097,278.534c0.059-0.463,0.578-0.869,1.196-0.792c0.463,0.058,0.869,0.578,0.811,1.042
					c-0.076,0.618-0.598,1.023-1.061,0.965C346.426,279.672,346.02,279.151,346.097,278.534L346.097,278.534L346.097,278.534z"/>
				<path fill="#0069B3" d="M361.725,325.57c0.059-0.465,0.405-0.734,0.714-0.695c0.463,0.057,0.732,0.404,0.676,0.867
					c-0.038,0.309-0.386,0.58-0.849,0.521C361.957,326.227,361.688,325.879,361.725,325.57L361.725,325.57L361.725,325.57z"/>
				<path fill="#0069B3" d="M367.009,326.88c0.077-0.618,0.599-1.022,1.062-0.966c0.463,0.059,0.869,0.578,0.792,1.195
					c-0.059,0.464-0.578,0.869-1.041,0.812C367.357,327.863,366.952,327.343,367.009,326.88L367.009,326.88L367.009,326.88z"/>
				<path fill="#0069B3" d="M372.922,327.34c0.077-0.617,0.598-1.021,1.215-0.945c0.618,0.076,1.179,0.616,1.102,1.234
					c-0.077,0.617-0.752,1.004-1.37,0.928C373.251,328.479,372.845,327.958,372.922,327.34L372.922,327.34L372.922,327.34z"/>
				<path fill="#0069B3" d="M379.035,327.447c0.077-0.617,0.617-1.178,1.233-1.102c0.771,0.096,1.312,0.79,1.236,1.407
					c-0.077,0.617-0.771,1.158-1.543,1.062C379.345,328.74,378.958,328.064,379.035,327.447L379.035,327.447L379.035,327.447z"/>
				<path fill="#0069B3" d="M385.467,327.201c0.077-0.617,0.771-1.158,1.389-1.081c0.771,0.097,1.157,0.771,1.082,1.389
					c-0.097,0.772-0.617,1.177-1.39,1.081C385.931,328.514,385.371,327.975,385.467,327.201L385.467,327.201L385.467,327.201z"/>
				<path fill="#0069B3" d="M392.465,325.969c0.115-0.926,0.983-1.603,1.909-1.486c0.926,0.115,1.602,0.982,1.487,1.908
					c-0.136,1.08-1.002,1.756-1.93,1.643C393.006,327.917,392.331,327.049,392.465,325.969L392.465,325.969L392.465,325.969z"/>
				<path fill="#0069B3" d="M400.115,323.275c0.173-1.391,1.387-2.336,2.777-2.164c1.39,0.174,2.335,1.389,2.162,2.777
					s-1.388,2.336-2.776,2.162C400.889,325.879,399.942,324.664,400.115,323.275L400.115,323.275L400.115,323.275z"/>
				<path fill="#0069B3" d="M407.84,317.561c0.23-1.854,2.121-3.186,3.973-2.955c1.854,0.23,3.205,1.967,2.976,3.818
					c-0.25,2.008-1.985,3.358-3.838,3.128C409.097,321.322,407.591,319.566,407.84,317.561L407.84,317.561L407.84,317.561z"/>
				<path fill="#0069B3" d="M415.283,310.646c0.326-2.623,2.735-4.361,5.36-4.035c2.471,0.307,4.382,2.582,4.056,5.207
					c-0.326,2.623-2.756,4.517-5.226,4.209C416.85,315.701,414.957,313.271,415.283,310.646L415.283,310.646L415.283,310.646z"/>
				<path fill="#0069B3" d="M423.885,300.613c0.347-2.778,2.949-4.806,5.883-4.442c2.777,0.346,4.96,2.968,4.615,5.747
					c-0.365,2.934-3.123,4.941-5.9,4.598C425.549,306.15,423.521,303.547,423.885,300.613L423.885,300.613L423.885,300.613z"/>
				<path fill="#0069B3" d="M435.979,267.644c0.461-3.705,3.759-6.273,7.464-5.812c3.705,0.46,6.272,3.758,5.812,7.463
					s-3.758,6.273-7.463,5.812S435.518,271.349,435.979,267.644L435.979,267.644L435.979,267.644z"/>
				<path fill="#0069B3" d="M430.364,285.9c0.384-3.087,3.181-5.404,6.268-5.021c3.087,0.383,5.231,3.315,4.847,6.402
					c-0.383,3.087-3.159,5.25-6.247,4.867C432.144,291.764,429.98,288.987,430.364,285.9L430.364,285.9L430.364,285.9z"/>
			</g>
			<g>
				<path fill="#009EE2" d="M362.89,248.323c0.25-2.007,1.985-3.359,3.992-3.109c1.853,0.23,3.204,1.966,2.954,3.973
					c-0.229,1.853-1.966,3.205-3.818,2.974C364.011,251.911,362.659,250.175,362.89,248.323L362.89,248.323L362.89,248.323z"/>
				<path fill="#009EE2" d="M358.42,258.525c0.153-1.235,1.214-2.201,2.604-2.028c1.39,0.173,2.181,1.369,2.026,2.604
					c-0.172,1.389-1.214,2.2-2.603,2.028C359.059,260.956,358.248,259.914,358.42,258.525L358.42,258.525L358.42,258.525z"/>
				<path fill="#009EE2" d="M354.092,265.289c0.097-0.772,0.617-1.178,1.39-1.082c0.771,0.096,1.332,0.636,1.235,1.408
					c-0.096,0.771-0.791,1.312-1.562,1.216C354.382,266.736,353.996,266.061,354.092,265.289L354.092,265.289L354.092,265.289z"/>
				<path fill="#009EE2" d="M348.508,268.801c0.059-0.463,0.424-0.888,0.887-0.831c0.464,0.058,0.869,0.578,0.812,1.042
					c-0.058,0.463-0.559,0.714-1.022,0.657C348.721,269.611,348.451,269.264,348.508,268.801L348.508,268.801L348.508,268.801z"/>
				<path fill="#009EE2" d="M374.998,336.494c0.058-0.463,0.405-0.733,0.868-0.676c0.309,0.039,0.579,0.386,0.521,0.849
					c-0.038,0.31-0.385,0.579-0.693,0.54C375.229,337.15,374.959,336.803,374.998,336.494L374.998,336.494L374.998,336.494z"/>
				<path fill="#009EE2" d="M380.28,337.922c0.058-0.463,0.424-0.889,0.887-0.83c0.617,0.076,0.869,0.578,0.811,1.041
					c-0.058,0.463-0.424,0.889-1.042,0.811C380.474,338.887,380.223,338.385,380.28,337.922L380.28,337.922L380.28,337.922z"/>
				<path fill="#009EE2" d="M386.526,338.959c0.058-0.463,0.598-1.021,1.061-0.965c0.617,0.076,1.004,0.752,0.946,1.215
					c-0.077,0.617-0.598,1.023-1.215,0.946C386.855,340.098,386.449,339.577,386.526,338.959L386.526,338.959L386.526,338.959z"/>
				<path fill="#009EE2" d="M392.996,338.719c0.077-0.617,0.752-1.004,1.37-0.928c0.617,0.077,1.177,0.617,1.1,1.234
					c-0.096,0.771-0.771,1.158-1.388,1.082C393.46,340.029,392.9,339.49,392.996,338.719L392.996,338.719L392.996,338.719z"/>
				<path fill="#009EE2" d="M399.858,337.743c0.134-1.081,1.002-1.757,1.928-1.642c0.927,0.114,1.603,0.981,1.468,2.062
					c-0.115,0.927-0.981,1.604-1.908,1.486C400.419,339.537,399.743,338.669,399.858,337.743L399.858,337.743L399.858,337.743z"/>
				<path fill="#009EE2" d="M408.812,335.59c0.152-1.234,1.367-2.181,2.604-2.027c1.234,0.153,2.026,1.351,1.873,2.584
					c-0.153,1.235-1.214,2.201-2.449,2.047C409.605,338.04,408.658,336.825,408.812,335.59L408.812,335.59L408.812,335.59z"/>
				<path fill="#009EE2" d="M418.18,331.27c0.23-1.854,1.947-3.051,3.646-2.84c1.854,0.23,3.225,1.812,2.994,3.664
					s-1.947,3.051-3.8,2.819C419.32,334.702,417.949,333.121,418.18,331.27L418.18,331.27L418.18,331.27z"/>
				<path fill="#009EE2" d="M428.14,324.29c0.249-2.007,2.158-3.494,4.165-3.245c2.009,0.25,3.34,2.141,3.09,4.146
					c-0.248,2.008-1.983,3.358-3.991,3.108C429.396,328.051,427.891,326.297,428.14,324.29L428.14,324.29L428.14,324.29z"/>
				<path fill="#009EE2" d="M437.272,313.133c0.287-2.314,2.369-3.938,4.687-3.65c2.315,0.289,3.938,2.371,3.65,4.688
					c-0.289,2.314-2.371,3.938-4.688,3.648C438.607,317.531,436.984,315.448,437.272,313.133L437.272,313.133L437.272,313.133z"/>
				<path fill="#009EE2" d="M443.823,299.316c0.288-2.315,2.371-3.938,4.687-3.649c2.315,0.288,3.938,2.37,3.65,4.686
					c-0.289,2.315-2.371,3.938-4.688,3.65C445.157,303.715,443.535,301.633,443.823,299.316L443.823,299.316L443.823,299.316z"/>
				<path fill="#009EE2" d="M445.191,283.158c0.325-2.625,2.757-4.517,5.381-4.19c2.778,0.345,4.672,2.775,4.346,5.399
					s-2.757,4.517-5.535,4.171C446.758,288.212,444.865,285.782,445.191,283.158L445.191,283.158L445.191,283.158z"/>
			</g>
		</g>
		<path fill="#281D67" d="M353.378,356.527c-0.724,0.392-2.129,1.146-3.701,1.146c-0.556,0-1.836-0.153-1.836-1.298
			c0-1.41,2.227-1.717,5.538-2.037L353.378,356.527L353.378,356.527z M354.493,353.207c0-1.866-1.88-2.352-3.536-2.352
			c-2.532,0-3.323,1.039-3.735,1.557l0.843,0.586c0.361-0.419,1.043-1.229,2.978-1.229c1.154,0,2.337,0.377,2.337,1.367v0.278
			c-2.838,0.336-6.598,0.435-6.598,2.959c0,1.879,1.756,2.211,2.952,2.211c1.392,0,2.573-0.415,3.631-1.095
			c0,0.292,0.083,0.652,0.138,0.874h1.116c-0.069-0.39-0.125-0.692-0.125-1.125V353.207L354.493,353.207z"/>
		<path fill="#281D67" d="M363.752,356.084c-0.694,0.756-1.943,1.553-3.15,1.553c-1.971,0-3.136-1.313-3.136-2.824
			c0-2.223,1.609-3.006,3.108-3.006c1.567,0,2.512,0.74,3.178,1.439V356.084L363.752,356.084z M363.752,348.262v3.812
			c-0.999-0.734-1.749-1.218-3.248-1.218c-3.107,0-4.154,2.237-4.154,3.93c0,1.662,1.157,3.802,3.96,3.802
			c1.665,0,2.401-0.468,3.497-1.354l0.139,1.136h1.005c-0.015-0.222-0.083-1.163-0.083-1.359v-8.745h-1.115V348.262z"/>
		<path fill="#281D67" d="M367.251,351.077h1.115v1.511c0.651-0.736,1.566-1.732,3.021-1.732c0.25,0,0.458,0.016,0.666,0.058v1.119
			c-0.139-0.015-0.416-0.097-0.9-0.097c-1.595,0-2.745,1.851-2.787,2.06v4.354h-1.115V351.077z"/>
		<path fill="#281D67" d="M373.675,351.094h1.115v7.256h-1.115V351.094z M374.859,348.264v1.293h-1.281v-1.293H374.859z"/>
		<path fill="#281D67" d="M383.103,356.527c-0.724,0.392-2.129,1.146-3.7,1.146c-0.557,0-1.836-0.153-1.836-1.298
			c0-1.41,2.226-1.717,5.536-2.037V356.527z M384.217,353.207c0-1.866-1.88-2.352-3.536-2.352c-2.531,0-3.322,1.039-3.735,1.557
			l0.842,0.586c0.362-0.419,1.043-1.229,2.978-1.229c1.155,0,2.337,0.377,2.337,1.367v0.278c-2.838,0.336-6.597,0.435-6.597,2.959
			c0,1.879,1.755,2.211,2.952,2.211c1.392,0,2.574-0.415,3.631-1.095c0,0.292,0.083,0.652,0.138,0.874h1.116
			c-0.068-0.39-0.125-0.692-0.125-1.125V353.207z"/>
		<path fill="#009EE2" d="M386.606,351.076h1.072v1.009c0.832-0.706,1.692-1.229,2.886-1.229c1.579,0,2.006,0.758,2.295,1.285
			c1.136-0.953,1.885-1.285,2.953-1.285c0.665,0,2.653,0.14,2.653,2.232v5.262h-1.115v-4.845c0-0.446,0-1.698-1.595-1.698
			c-1.262,0-2.19,0.836-2.663,1.281v5.262h-1.114v-4.845c0-0.446,0-1.698-1.567-1.698c-1.29,0-2.219,0.836-2.691,1.281v5.262h-1.114
			L386.606,351.076L386.606,351.076z"/>
		<path fill="#009EE2" d="M406.811,356.527c-0.724,0.392-2.129,1.146-3.7,1.146c-0.558,0-1.836-0.153-1.836-1.298
			c0-1.41,2.226-1.717,5.536-2.037V356.527z M407.926,353.207c0-1.866-1.881-2.352-3.536-2.352c-2.531,0-3.322,1.039-3.735,1.557
			l0.842,0.586c0.361-0.419,1.043-1.229,2.977-1.229c1.155,0,2.338,0.377,2.338,1.367v0.278c-2.838,0.336-6.598,0.435-6.598,2.959
			c0,1.879,1.756,2.211,2.952,2.211c1.392,0,2.573-0.415,3.632-1.095c0,0.292,0.082,0.652,0.137,0.874h1.116
			c-0.068-0.39-0.124-0.692-0.124-1.125V353.207z"/>
		<path fill="#009EE2" d="M413.467,359.994c-1.304,0-2.787-0.266-2.787-1.113c0-0.486,0.43-0.766,1.191-1.044
			c0.889,0.042,1.764,0.069,2.65,0.099c2.041,0.068,2.555,0.207,2.555,0.849C417.076,359.701,415.355,359.994,413.467,359.994z
			 M418.112,350.801c-0.969,0-1.272,0.249-1.87,0.734c-0.805-0.514-1.484-0.68-2.719-0.68c-1.806,0-3.466,0.707-3.466,2.559
			c0,0.836,0.388,1.296,0.98,1.838c-0.373,0.223-0.995,0.596-0.995,1.27c0,0.586,0.388,0.793,0.788,1.014
			c-0.954,0.331-1.231,0.804-1.231,1.333c0,1.764,2.383,2.04,3.882,2.04c1.941,0,4.673-0.29,4.673-2.235
			c0-1.551-1.426-1.758-4.16-1.784c-2.553-0.027-2.83-0.113-2.83-0.605c0-0.281,0.166-0.475,0.514-0.6
			c0.666,0.25,1.026,0.346,2.097,0.346c2.565,0,3.385-1.568,3.385-2.488c0-0.779-0.221-1.128-0.402-1.406
			c0.224-0.126,0.527-0.307,1.356-0.307L418.112,350.801L418.112,350.801z M413.592,351.77c1.041,0,2.484,0.252,2.484,1.658
			c0,1.324-1.359,1.688-2.456,1.688c-0.791,0-2.483-0.252-2.483-1.688C411.137,352.076,412.565,351.77,413.592,351.77z"/>
		<path fill="#009EE2" d="M419.885,351.094H421v7.256h-1.115V351.094z M421.068,348.264v1.293h-1.281v-1.293H421.068z"/>
		<path fill="#009EE2" d="M423.475,356.092c0.703,0.898,1.759,1.545,3.285,1.545c1.195,0,2.278-0.38,2.278-1.25
			c0-2.066-6.03-0.309-6.03-3.322c0-1.656,1.685-2.209,3.211-2.209c2.444,0,3.328,1.035,3.7,1.566l-0.757,0.699
			c-0.596-0.77-1.527-1.314-2.957-1.314c-1.334,0-2.083,0.42-2.083,1.188c0,1.88,6.03,0.183,6.03,3.31
			c0,1.678-1.628,2.282-3.489,2.282c-1.61,0-2.94-0.454-4.017-1.723L423.475,356.092z"/>
		<path fill="#009EE2" d="M436.769,352.044h-2.884v4.407c0,0.795,0.348,1.186,1.483,1.186c0.541,0,0.983-0.098,1.595-0.224v0.967
			c-0.805,0.124-1.373,0.206-1.83,0.206c-2.363,0-2.363-1.438-2.363-2.023v-4.519h-1.537v-0.95h1.537v-2.412h1.115v2.412h2.884
			V352.044z"/>
		<path fill="#009EE2" d="M438.555,351.077h1.115v1.511c0.65-0.736,1.566-1.732,3.021-1.732c0.25,0,0.458,0.016,0.666,0.058v1.119
			c-0.14-0.015-0.416-0.097-0.901-0.097c-1.595,0-2.745,1.851-2.786,2.06v4.354h-1.115V351.077L438.555,351.077z"/>
		<path fill="#009EE2" d="M451.01,356.527c-0.724,0.392-2.129,1.146-3.701,1.146c-0.557,0-1.836-0.153-1.836-1.298
			c0-1.41,2.227-1.717,5.537-2.037V356.527z M452.124,353.207c0-1.866-1.88-2.352-3.536-2.352c-2.531,0-3.322,1.039-3.735,1.557
			l0.844,0.586c0.36-0.419,1.043-1.229,2.977-1.229c1.154,0,2.338,0.377,2.338,1.367v0.278c-2.838,0.336-6.598,0.435-6.598,2.959
			c0,1.879,1.756,2.211,2.952,2.211c1.392,0,2.572-0.415,3.632-1.095c0,0.292,0.082,0.652,0.137,0.874h1.116
			c-0.069-0.39-0.125-0.692-0.125-1.125L452.124,353.207L452.124,353.207z"/>
	</g>
</g>
</svg>
