<?xml version="1.0" encoding="utf-8"?>
<!-- Generator: Adobe Illustrator 16.0.0, SVG Export Plug-In . SVG Version: 6.00 Build 0)  -->
<!DOCTYPE svg PUBLIC "-//W3C//DTD SVG 1.1//EN" "http://www.w3.org/Graphics/SVG/1.1/DTD/svg11.dtd">
<svg version="1.1" id="Layer_1" xmlns="http://www.w3.org/2000/svg" xmlns:xlink="http://www.w3.org/1999/xlink" x="0px" y="0px"
	 width="175.748px" height="63.351px" viewBox="271.505 328.702 175.748 63.351"
	 enable-background="new 271.505 328.702 175.748 63.351" xml:space="preserve">
<g>
	<path d="M380.66,361.682c-0.354-0.07-0.775-0.281-1.128-0.563c-3.241-3.17,0.916-6.835,5.638-8.949v-5.99
		c1.127,0.634,1.69,0.704,1.762,0.846l3.664-3.665l-1.197-3.101c10.641-3.735,14.938-5.145,23.605-6.624l-1.55-1.48l2.606-1.479
		c5.778,1.972,11.275,2.466,10.288,7.398c0.282-3.312-3.805-4.58-10.146-6.412l-1.199,0.775l2.326,1.902
		c-10.359,1.832-16.771,3.876-24.383,6.554l1.058,2.678l-3.806,3.805c0.635,0.141,7.259,2.466,14.164-2.466
		c0.07,0,0.142-0.071,0.142-0.141c-0.212-0.352-0.635-0.705-1.198-1.198c1.975,0.141,3.312,1.973,3.03,3.805h-0.916
		c0.142-0.564,0-1.269-0.282-1.691c-5.283,3.946-11.557,4.51-16.842,2.678v4.651c-2.537,0.916-7.188,3.734-7.117,6.483
		C379.32,360.836,380.025,361.33,380.66,361.682L380.66,361.682z"/>
	<path fill="#F47937" d="M402.363,360.484c-5.777,2.959-11.274,5.286-19.731,5.637c-10.992-0.211-12.754-7.611-7.539-15.362
		c4.934-7.822,12.754-14.799,25.229-19.238c3.594-1.269,8.95-2.748,14.022-2.818c7.398-0.07,14.517,2.255,14.095,9.372
		c-0.282,5.427-8.104,13.107-12.191,18.674c-1.762,2.396-2.043,3.946,0.916,3.806c10.923-0.706,20.788-4.511,29.949-8.457
		c-6.202,4.229-38.266,20.294-38.405,9.302c0.07-1.339,0.705-2.818,1.69-4.369c1.058-1.55,2.468-3.242,3.946-4.862
		c2.186-2.537,7.61-8.527,9.372-12.191c3.102-6.835-3.806-7.188-9.653-9.301l-2.607,1.479l1.55,1.48
		c-8.667,1.479-12.966,2.889-23.605,6.624l1.197,3.101l-3.664,3.665c-0.07-0.142-0.635-0.212-1.762-0.846v5.99
		c-4.722,2.113-8.879,5.778-5.638,8.949c0.353,0.283,0.773,0.494,1.128,0.564l0,0C386.508,364.994,402.363,360.484,402.363,360.484
		L402.363,360.484z"/>
	<path fill="#F47937" d="M305.329,376.832v-3.594h5.285v3.594H305.329L305.329,376.832z M305.47,391.701v-12.896h4.933v12.896
		H305.47L305.47,391.701z M363.747,384.936c0-1.196-0.282-2.112-0.916-2.817c-0.635-0.705-1.55-1.058-2.607-1.058c0,0,0,0-0.069,0
		c-1.127,0.07-1.974,0.353-2.607,1.058s-0.916,1.69-0.916,2.959c0,1.271,0.282,2.256,0.916,2.961
		c0.634,0.703,1.48,0.985,2.607,0.985c1.128,0,2.043-0.354,2.678-1.059C363.465,387.262,363.747,386.205,363.747,384.936
		L363.747,384.936z M360.153,378.734c0.635-0.142,1.339-0.211,2.043-0.211c2.044,0,3.665,0.563,4.861,1.762
		c1.128,1.199,1.764,2.818,1.764,4.863c0,2.184-0.564,3.875-1.764,5.072c-1.127,1.198-2.748,1.831-4.791,1.831
		c-0.704,0-1.409-0.141-2.113-0.28c-0.354-0.142-0.705-0.281-1.059-0.424c-0.916-0.492-1.761-1.128-2.466-2.043v0.424
		c0,0.352,0,0.633,0,0.985s-0.07,0.705-0.141,0.986h-4.934c0.071-0.494,0.071-0.986,0.143-1.48c0-0.491,0.07-0.985,0.07-1.407
		v-15.574h4.862v7.397c0.775-0.704,1.62-1.268,2.537-1.62C359.52,378.875,359.801,378.805,360.153,378.734L360.153,378.734z
		 M416.246,380.355c2.606,0,4.721,2.186,4.721,4.793c0,2.604-2.113,4.721-4.721,4.721c-2.608,0-4.792-2.115-4.792-4.721
		C411.454,382.541,413.639,380.355,416.246,380.355L416.246,380.355z M416.246,392.053c3.806,0,6.906-3.1,6.906-6.904
		c0-3.877-3.102-6.977-6.906-6.977s-6.977,3.1-6.977,6.977C409.271,388.953,412.44,392.053,416.246,392.053L416.246,392.053z
		 M390.878,389.729h2.185v1.974h-2.185V389.729L390.878,389.729z M407.508,390.08c-0.704,0.564-2.113,1.973-4.861,1.973
		c-3.522,0-6.905-2.748-6.905-6.904c0-4.157,3.383-6.977,6.905-6.977c2.606,0,4.157,1.408,4.861,1.973
		c-0.423,0.635-0.774,1.763-0.916,2.254c-1.339-1.762-2.96-2.043-3.945-2.043c-2.607,0-4.723,2.187-4.723,4.793
		c0,2.535,2.114,4.722,4.723,4.722c1.479,0,2.89-0.636,3.945-2.045C406.874,388.953,407.296,389.656,407.508,390.08L407.508,390.08z
		 M426.252,391.701v-12.896h1.974v1.832c0.424-0.633,0.986-1.127,1.621-1.549c0.704-0.354,1.479-0.564,2.325-0.564
		c0.916,0,1.691,0.211,2.325,0.564c0.635,0.422,1.058,0.986,1.339,1.691c0.986-1.48,2.326-2.256,3.947-2.256
		c1.268,0,2.254,0.352,2.959,1.057s1.057,1.832,1.057,3.312v8.809h-2.184v-8.104c0-0.916-0.071-1.48-0.212-1.902
		c-0.143-0.354-0.423-0.705-0.775-0.916c-0.353-0.213-0.845-0.354-1.339-0.354c-0.916,0-1.621,0.281-2.255,0.916
		c-0.563,0.563-0.916,1.552-0.916,2.89v7.471h-2.186v-8.387c0-0.986-0.141-1.691-0.493-2.185s-0.985-0.705-1.762-0.705
		c-0.634,0-1.197,0.142-1.69,0.494c-0.563,0.281-0.916,0.774-1.128,1.408c-0.281,0.635-0.354,1.551-0.354,2.678v6.695
		L426.252,391.701L426.252,391.701z M442.954,375.986v-2.467h-0.917v-0.281h2.255v0.281h-0.916v2.467H442.954L442.954,375.986z
		 M444.645,375.986v-2.748h0.564l0.634,1.973c0.07,0.141,0.07,0.283,0.142,0.354c0-0.069,0.07-0.213,0.141-0.424l0.635-1.902h0.493
		v2.748H446.9v-2.325l-0.775,2.325h-0.352l-0.775-2.325v2.325H444.645L444.645,375.986z M381.646,389.799
		c-0.492,0.775-1.269,1.268-2.325,1.691c-0.211,0.07-0.493,0.141-0.704,0.211c-0.847,0.211-1.832,0.352-2.96,0.352
		c-1.62,0-2.891-0.352-3.807-1.057c-0.846-0.635-1.339-1.621-1.339-2.889c0-0.775,0.212-1.48,0.564-2.113
		c0.353-0.564,0.846-1.059,1.479-1.48c0.493-0.354,1.27-0.563,2.186-0.705c0.846-0.141,2.113-0.211,3.876-0.211
		c0.141,0,0.353,0,0.562,0h2.396c0-0.07,0-0.07,0-0.211c0-0.072,0-0.143,0-0.143c0-0.703-0.211-1.268-0.634-1.621
		c-0.424-0.352-0.986-0.562-1.763-0.562c-0.211,0-0.423,0.07-0.562,0.07c-0.635,0-1.128,0.141-1.479,0.354
		c-0.424,0.211-0.705,0.634-0.774,1.197h-5.004c0.141-1.41,0.916-2.467,2.185-3.172c1.128-0.635,2.819-0.916,5.074-0.986
		c0.211,0,0.423,0,0.634,0c2.396,0,4.229,0.422,5.356,1.197s1.689,2.045,1.689,3.736v6.553c0,0.352,0.07,0.705,0.07,0.986
		c0.071,0.211,0.141,0.494,0.212,0.705h-4.58c-0.142-0.211-0.212-0.494-0.282-0.775c0-0.211-0.07-0.564-0.07-0.846V389.799
		L381.646,389.799z M378.616,389.234c0.846-0.07,1.55-0.353,2.044-0.775c0.562-0.494,0.915-1.268,0.915-2.184v-0.281h-0.422
		c-0.987,0-1.833,0-2.537,0.068c-0.775,0.071-1.339,0.143-1.762,0.354c-0.775,0.211-1.198,0.705-1.198,1.408
		c0,0.424,0.211,0.775,0.635,1.059c0.422,0.211,1.057,0.352,1.832,0.352C378.334,389.234,378.475,389.234,378.616,389.234
		L378.616,389.234z M343.735,389.799c-0.564,0.775-1.339,1.268-2.396,1.691c-0.212,0.07-0.424,0.141-0.706,0.211
		c-0.844,0.211-1.831,0.352-2.959,0.352c-1.621,0-2.889-0.352-3.734-1.057c-0.916-0.635-1.339-1.621-1.339-2.889
		c0-0.775,0.142-1.48,0.493-2.113c0.353-0.564,0.846-1.059,1.479-1.48c0.563-0.354,1.269-0.563,2.185-0.705
		c0.845-0.141,2.114-0.211,3.875-0.211c0.212,0,0.354,0,0.564,0h2.396c0-0.07,0-0.07,0-0.211c0-0.072,0-0.143,0-0.143
		c0-0.703-0.211-1.268-0.633-1.621c-0.424-0.352-0.988-0.562-1.763-0.562c-0.211,0-0.353,0.07-0.564,0.07
		c-0.633,0-1.127,0.141-1.479,0.354c-0.422,0.211-0.633,0.634-0.775,1.197h-5.003c0.212-1.41,0.917-2.467,2.185-3.172
		c1.198-0.635,2.89-0.916,5.073-0.986c0.212,0,0.423,0,0.635,0c2.396,0,4.229,0.422,5.355,1.197
		c1.128,0.775,1.762,2.045,1.762,3.736v6.553c0,0.352,0,0.705,0,0.986c0.07,0.211,0.142,0.494,0.211,0.705h-4.581
		c-0.141-0.211-0.211-0.494-0.211-0.775c-0.069-0.211-0.069-0.564-0.069-0.846V389.799L343.735,389.799z M340.633,389.234
		c0.917-0.07,1.551-0.353,2.044-0.775c0.634-0.494,0.916-1.268,0.916-2.184v-0.281h-0.422c-0.987,0-1.832,0-2.538,0.068
		c-0.704,0.071-1.268,0.143-1.689,0.354c-0.847,0.211-1.198,0.705-1.198,1.408c0,0.424,0.211,0.775,0.562,1.059
		c0.425,0.211,1.058,0.352,1.903,0.352C340.352,389.234,340.493,389.234,340.633,389.234L340.633,389.234z M325.765,384.936
		c0-1.196-0.281-2.112-0.917-2.817c-0.634-0.705-1.479-1.058-2.605-1.058c-1.198,0.07-2.044,0.353-2.678,1.058
		c-0.636,0.705-0.917,1.69-0.917,2.959c0,1.271,0.281,2.256,0.917,2.961c0.634,0.703,1.55,0.985,2.606,0.985h0.07
		c1.127,0,1.973-0.354,2.605-1.059C325.483,387.262,325.765,386.205,325.765,384.936L325.765,384.936z M322.242,378.734
		c0.634-0.142,1.269-0.211,1.973-0.211c2.043,0,3.665,0.563,4.862,1.762c1.197,1.199,1.762,2.818,1.762,4.863
		c0,2.184-0.563,3.875-1.69,5.072c-1.198,1.198-2.749,1.831-4.792,1.831c-0.775,0-1.479-0.141-2.113-0.28
		c-0.423-0.142-0.776-0.281-1.058-0.424c-0.986-0.492-1.832-1.128-2.467-2.043v0.424c0,0.352,0,0.633-0.069,0.985
		c0,0.353-0.07,0.705-0.07,0.986h-5.003c0.07-0.494,0.141-0.986,0.141-1.48c0.071-0.491,0.071-0.985,0.071-1.407v-15.574h4.933
		v7.397c0.705-0.704,1.551-1.268,2.467-1.62C321.536,378.875,321.889,378.805,322.242,378.734L322.242,378.734z M283.836,373.238
		h3.594l9.02,18.463h-5.919l-1.621-3.736h-5.073h-5.003l-1.762,3.736h-5.567l9.655-18.463H283.836L283.836,373.238z
		 M283.836,384.373h3.382l-3.171-7.117l-0.211,0.352l-3.313,6.767L283.836,384.373L283.836,384.373z M297.296,391.701v-18.463h4.933
		v18.463H297.296L297.296,391.701z"/>
	<path fill="#F47937" d="M284.541,346.319h-1.269v4.933h1.269h1.339v-4.933H284.541L284.541,346.319z M355.009,357.101h2.396
		c0.774,0,1.339-0.211,1.55-0.634c0.282-0.352,0.493-1.269,0.705-2.678c0.493,0.634,1.269,1.057,2.114,1.198
		c-0.493,1.833-0.986,2.89-1.41,3.171c-0.423,0.352-1.197,0.493-2.396,0.493h-2.96h-6.694h-1.269c-2.043,0-3.03-0.846-3.03-2.537
		v-12.262c0-0.916-0.069-1.973-0.141-3.171h4.439h6.694h4.298c-0.069,1.269-0.069,2.96-0.069,5.074c0,2.114,0,3.806,0.069,5.145
		h-1.832v-1.41h-2.467h-6.695h-2.536v5.708c0,1.269,0.705,1.903,2.044,1.903h0.493H355.009L355.009,357.101z M355.009,347.87h2.467
		v-5.567h-2.467h-2.537v5.567H355.009L355.009,347.87z M348.314,347.87h2.466v-5.567h-2.466h-2.537v5.567H348.314L348.314,347.87z
		 M332.107,357.101h2.396c0.775,0,1.339-0.211,1.55-0.634c0.282-0.352,0.493-1.269,0.705-2.678c0.563,0.634,1.27,1.057,2.114,1.198
		c-0.493,1.833-0.986,2.89-1.409,3.171c-0.423,0.352-1.199,0.493-2.396,0.493h-2.959h-6.695h-1.269
		c-2.043,0-3.029-0.846-3.029-2.537v-12.262c0-0.916-0.071-1.973-0.071-3.171h4.369h6.695h4.299
		c-0.071,1.269-0.071,2.96-0.071,5.074c0,2.114,0,3.806,0.071,5.145h-1.833v-1.41h-2.466h-6.695h-2.536v5.708
		c0,1.269,0.704,1.903,2.043,1.903h0.493H332.107L332.107,357.101z M332.107,347.87h2.466v-5.567h-2.466h-2.537v5.567H332.107
		L332.107,347.87z M325.412,347.87h2.467v-5.567h-2.467h-2.536v5.567H325.412L325.412,347.87z M309.205,357.171h3.665
		c0.986-0.07,2.043-0.07,3.241-0.07v1.691c-1.197-0.141-2.255-0.211-3.241-0.211h-3.665h-6.694h-3.031
		c-1.057,0-2.326,0.07-3.664,0.211v-1.691c1.409,0,2.606,0,3.664,0.07h3.031h2.396v-2.959h-2.396h-1.621
		c-0.846,0-1.903,0-3.101,0.07v-1.62c1.198,0.07,2.254,0.141,3.101,0.211h1.621h2.396v-2.537h-2.396h-4.299
		c0.071-1.198,0.142-2.678,0.142-4.369c0-1.621,0-3.523-0.142-5.497h4.299h6.694h4.369c-0.071,1.198-0.071,2.889-0.071,4.933
		c0,2.044,0,3.735,0.071,4.933h-4.369h-2.607v2.537h2.607h1.689c0.847-0.07,1.903-0.141,3.172-0.211v1.62
		c-1.27-0.07-2.325-0.07-3.172-0.07h-1.689h-2.607v2.959H309.205L309.205,357.171z M309.205,348.998h2.606v-2.819h-2.606h-2.607
		v2.819H309.205L309.205,348.998z M309.205,344.91h2.606v-3.101h-2.606h-2.607v3.101H309.205L309.205,344.91z M302.511,348.998
		h2.396v-2.819h-2.396h-2.396v2.819H302.511L302.511,348.998z M302.511,344.91h2.396v-3.101h-2.396h-2.396v3.101H302.511
		L302.511,344.91z M284.541,352.803h-1.269v2.184h-1.691c0.07-0.916,0.07-2.607,0.07-5.074c0-2.466,0-4.158-0.07-5.074h2.96h3.03
		c-0.07,1.128-0.07,2.678-0.07,4.651c0,1.974,0,3.524,0.07,4.651h-1.69v-1.338L284.541,352.803L284.541,352.803z M284.541,341.88
		h4.791v13.953c0,0.705-0.14,1.127-0.493,1.268c-0.281,0.07-0.987,0.141-2.044,0.141c0.423,0.634,0.635,1.339,0.775,2.043
		c1.269-0.141,2.114-0.352,2.678-0.634c0.563-0.282,0.775-0.987,0.775-2.185V341.88c0.564,0,1.41,0,2.466,0.071v-1.691
		c-1.126,0.07-1.902,0.07-2.254,0.07h-6.694h-1.057c-0.705,0-1.55,0-2.678-0.07v1.691c1.339-0.071,2.256-0.071,2.678-0.071H284.541
		L284.541,341.88z M276.648,347.306c1.199,1.762,1.903,3.03,2.114,3.875c0.211,0.917,0.142,1.48-0.211,1.692
		c-0.352,0.211-1.057,0.423-2.044,0.563c0.353,0.635,0.635,1.269,0.775,1.903c0.917-0.211,1.69-0.563,2.396-1.058
		c0.705-0.563,1.057-1.338,0.986-2.466c-0.142-1.057-0.846-2.607-2.325-4.651c0.704-2.325,1.339-4.58,1.973-6.835h-6.341
		c0.07,1.198,0.07,4.228,0.07,8.95c0,4.792,0,8.104-0.07,10.006h1.832V341.88h2.396
		C277.635,343.994,277.142,345.826,276.648,347.306L276.648,347.306L276.648,347.306z"/>
</g>
</svg>
