<?xml version="1.0" encoding="utf-8"?>
<!-- Generator: Adobe Illustrator 16.0.0, SVG Export Plug-In . SVG Version: 6.00 Build 0)  -->
<!DOCTYPE svg PUBLIC "-//W3C//DTD SVG 1.1//EN" "http://www.w3.org/Graphics/SVG/1.1/DTD/svg11.dtd">
<svg version="1.1" id="Layer_1" xmlns="http://www.w3.org/2000/svg" xmlns:xlink="http://www.w3.org/1999/xlink" x="0px" y="0px"
	 width="187.086px" height="48.259px" viewBox="306.835 275.249 187.086 48.259"
	 enable-background="new 306.835 275.249 187.086 48.259" xml:space="preserve">
<g>
	<path fill="#1D1D1B" d="M313.632,313.311l2.209-7.305h8.836l2.039,7.305h7.478l-7.817-27.526c-0.51-1.869-1.36-2.379-3.229-2.379
		h-10.875v2.549h0.85c1.529,0,2.039,0.34,2.039,1.359c0,0.51,0,1.02-0.51,2.548l-7.816,23.45H313.632L313.632,313.311z
		 M323.658,301.246h-6.797l3.567-11.894L323.658,301.246L323.658,301.246z"/>
	<path fill="#1D1D1B" d="M343.199,313.311v-27.696c0-1.359-0.681-2.209-2.209-2.209h-6.627v2.549h0.339c1.359,0,1.87,0.51,1.87,1.7
		v25.657H343.199L343.199,313.311z"/>
	<path fill="#1D1D1B" d="M355.263,313.311v-27.696c0-1.359-0.849-2.209-2.208-2.209h-6.627v2.549h0.34c1.189,0,1.869,0.51,1.869,1.7
		v25.657H355.263L355.263,313.311z"/>
	<path fill="#1D1D1B" d="M367.328,313.311v-20.22c0-1.36-0.85-2.209-2.039-2.209h-6.796v2.379h0.339c1.36,0,1.87,0.68,1.87,1.869
		v18.181H367.328L367.328,313.311z M367.498,286.124c0-2.039-1.359-3.229-3.907-3.229c-2.379,0-3.909,1.189-3.909,3.229
		s1.53,3.058,3.909,3.058C366.139,289.182,367.498,288.163,367.498,286.124L367.498,286.124z"/>
	<path fill="#1D1D1B" d="M373.785,296.999l0.68-0.169c1.699-0.68,2.718-1.02,3.908-1.189c0.68-0.17,1.529-0.17,2.039-0.17
		c2.039,0,2.89,0.68,2.89,2.719v0.509c-3.229,0.51-4.079,0.68-5.607,1.022c-1.02,0.168-1.869,0.508-2.72,0.847
		c-2.719,1.191-3.907,3.23-3.907,6.627c0,4.248,1.698,6.287,5.438,6.287c1.53,0,3.06-0.34,4.249-1.018
		c0.85-0.512,1.359-0.852,2.719-2.039v0.678c0,1.531,0.681,2.209,1.869,2.209h6.288v-2.379h-0.17c-1.19,0-1.869-0.508-1.869-1.699
		v-11.043c0-5.607-1.87-7.646-7.477-7.646c-1.87,0-3.568,0.34-5.269,0.68c-1.7,0.34-2.549,0.68-4.588,1.7L373.785,296.999
		L373.785,296.999z M383.301,302.436v4.418c-1.359,1.361-2.719,2.039-4.079,2.039c-1.529,0-2.039-0.678-2.039-2.379
		c0-1.699,0.51-2.547,1.869-3.059C380.242,302.945,381.262,302.775,383.301,302.436L383.301,302.436z"/>
	<path fill="#1D1D1B" d="M401.823,313.311v-15.292c1.528-1.359,2.548-1.869,4.077-1.869c1.528,0,2.039,0.68,2.039,2.889v14.271
		h6.457v-15.292c0-3.229-0.34-4.417-1.188-5.608c-1.02-1.189-2.379-1.699-4.249-1.699c-2.549,0-4.588,0.85-7.476,3.398v-1.189
		c0-1.36-0.512-2.04-1.869-2.04h-6.628v2.379h0.34c1.358,0,1.869,0.68,1.869,1.869v18.182H401.823L401.823,313.311z"/>
	<path fill="#1D1D1B" d="M435.128,308.893h-10.025l9.687-13.422v-4.588h-14.274c-1.697,0-2.378,0.68-2.378,2.379v4.078h2.378v-0.509
		c0-1.189,0.512-1.7,1.87-1.7h5.269l-9.688,13.423v4.758h17.163L435.128,308.893L435.128,308.893z"/>
	<path fill="#1D1D1B" d="M493.921,299.377c0-13.933-10.364-24.128-24.299-24.128c-13.764,0-23.959,10.196-23.959,24.128
		c0,13.764,10.195,24.131,24.13,24.131C483.557,323.508,493.921,313.141,493.921,299.377L493.921,299.377z M489.844,299.377
		c0,11.725-8.497,20.391-20.222,20.391c-11.555,0-19.881-8.666-19.881-20.391c0-11.895,8.326-20.391,19.881-20.391
		C481.347,278.986,489.844,287.482,489.844,299.377L489.844,299.377z M463.165,311.951v-21.749h-3.568
		c-1.868,0-2.719,0.849-2.719,2.719v19.03H463.165L463.165,311.951z M476.249,311.951h6.287v-19.03c0-1.87-0.679-2.719-2.719-2.719
		h-3.568V311.951L476.249,311.951z M472.851,311.951v-25.148c0-2.04-0.679-2.719-2.719-2.719h-5.776v2.719h0.51
		c1.358,0,1.7,0.339,1.7,1.699v23.449H472.851L472.851,311.951z"/>
</g>
</svg>
