<?xml version="1.0" encoding="utf-8"?>
<!-- Generator: Adobe Illustrator 16.0.0, SVG Export Plug-In . SVG Version: 6.00 Build 0)  -->
<!DOCTYPE svg PUBLIC "-//W3C//DTD SVG 1.1//EN" "http://www.w3.org/Graphics/SVG/1.1/DTD/svg11.dtd">
<svg version="1.1" id="Layer_1" xmlns="http://www.w3.org/2000/svg" xmlns:xlink="http://www.w3.org/1999/xlink" x="0px" y="0px"
	 width="525.495px" height="409.77px" viewBox="40.544 80.926 525.495 409.77"
	 enable-background="new 40.544 80.926 525.495 409.77" xml:space="preserve">
<g id="Layer_1_1_">
</g>
<g id="Laag_1">
	<g>
		<path fill="#C5A154" d="M304.985,100.224c-103.685,0-188.035,84.355-188.035,188.045c0,103.677,84.352,188.03,188.035,188.03
			c103.688,0,188.038-84.353,188.038-188.03C493.023,184.579,408.673,100.224,304.985,100.224z M304.985,473.969
			c-102.399,0-185.703-83.307-185.703-185.7c0-102.4,83.304-185.708,185.703-185.708c102.397,0,185.706,83.308,185.706,185.708
			C490.691,390.662,407.383,473.969,304.985,473.969z"/>
		<g>
			<path fill="#C5A154" d="M315.827,101.225l-5.031-15.824c-2.039-5.934-9.235-6.005-10.964,0.015l-4.763,15.787
				c3.381-0.178,6.777-0.278,10.198-0.278C308.809,100.925,312.328,101.031,315.827,101.225z"/>
			<path fill="#C5A154" d="M275.52,87.52c-3.037-5.491-10.137-4.309-10.794,1.915l-1.939,16.334
				c6.68-1.551,13.497-2.729,20.432-3.544L275.52,87.52z"/>
			<path fill="#C5A154" d="M241.15,95.73c-3.944-4.881-10.733-2.483-10.298,3.766l0.926,16.417
				c6.32-2.705,12.827-5.063,19.482-7.063L241.15,95.73z"/>
			<path fill="#C5A154" d="M208.724,109.784c-4.73-4.122-10.997-0.582-9.481,5.496l3.773,16.042
				c5.769-3.773,11.761-7.239,17.956-10.372L208.724,109.784z"/>
			<path fill="#C5A154" d="M179.242,129.255c-5.38-3.236-10.935,1.336-8.395,7.06l6.509,15.164
				c5.052-4.727,10.353-9.19,15.898-13.342L179.242,129.255z"/>
			<path fill="#C5A154" d="M153.583,153.554c-5.862-2.255-10.539,3.212-7.037,8.407l9.031,13.786
				c4.163-5.538,8.631-10.835,13.37-15.873L153.583,153.554z"/>
			<path fill="#C5A154" d="M132.529,181.935c-6.163-1.204-9.817,4.999-5.47,9.502l11.268,11.987
				c3.145-6.185,6.628-12.168,10.413-17.935L132.529,181.935z"/>
			<path fill="#C5A154" d="M116.729,213.542c-6.282-0.118-8.805,6.623-3.739,10.307l13.177,9.846
				c2.019-6.651,4.395-13.151,7.114-19.471L116.729,213.542z"/>
			<path fill="#C5A154" d="M106.653,247.411c-6.203,0.979-7.518,8.053-1.891,10.805l14.719,7.424
				c0.826-6.935,2.029-13.748,3.591-20.429L106.653,247.411z"/>
			<path fill="#C5A154" d="M118.444,277.486l-15.828,5.031c-5.946,2.037-6.006,9.239,0.013,10.967l15.792,4.76
				c-0.183-3.38-0.279-6.773-0.279-10.196C118.143,284.503,118.25,280.98,118.444,277.486z"/>
			<path fill="#C5A154" d="M104.734,317.793c-5.498,3.037-4.309,10.132,1.919,10.797l16.334,1.937
				c-1.551-6.683-2.733-13.506-3.548-20.436L104.734,317.793z"/>
			<path fill="#C5A154" d="M112.947,352.162c-4.887,3.944-2.485,10.731,3.76,10.296l16.424-0.928
				c-2.702-6.324-5.062-12.825-7.064-19.485L112.947,352.162z"/>
			<path fill="#C5A154" d="M127.003,384.582c-4.13,4.735-0.586,11.004,5.492,9.487l16.043-3.772
				c-3.776-5.772-7.241-11.769-10.371-17.956L127.003,384.582z"/>
			<path fill="#C5A154" d="M146.474,414.07c-3.244,5.381,1.332,10.938,7.052,8.395l15.17-6.516
				c-4.73-5.044-9.188-10.348-13.34-15.892L146.474,414.07z"/>
			<path fill="#C5A154" d="M170.768,439.729c-2.261,5.859,3.215,10.539,8.402,7.039l13.791-9.03
				c-5.538-4.166-10.832-8.634-15.869-13.371L170.768,439.729z"/>
			<path fill="#C5A154" d="M199.149,460.779c-1.207,6.16,4.994,9.817,9.503,5.475l11.989-11.277
				c-6.187-3.137-12.174-6.623-17.94-10.409L199.149,460.779z"/>
			<path fill="#C5A154" d="M230.753,476.584c-0.117,6.275,6.631,8.797,10.311,3.738l9.847-13.185
				c-6.657-2.014-13.155-4.387-19.472-7.104L230.753,476.584z"/>
			<path fill="#C5A154" d="M264.626,486.654c0.975,6.207,8.052,7.514,10.8,1.891l7.425-14.719c-6.932-0.822-13.75-2.021-20.43-3.586
				L264.626,486.654z"/>
			<path fill="#C5A154" d="M294.698,474.869l5.033,15.826c2.037,5.938,9.237,6.004,10.965-0.013l4.758-15.793
				c-3.371,0.179-6.771,0.279-10.188,0.279C301.717,475.17,298.199,475.062,294.698,474.869z"/>
			<path fill="#C5A154" d="M335.002,488.574c3.038,5.494,10.141,4.315,10.799-1.914l1.937-16.336
				c-6.677,1.553-13.496,2.735-20.43,3.553L335.002,488.574z"/>
			<path fill="#C5A154" d="M369.374,480.363c3.944,4.889,10.732,2.485,10.301-3.758l-0.93-16.418
				c-6.318,2.698-12.826,5.057-19.486,7.063L369.374,480.363z"/>
			<path fill="#C5A154" d="M401.793,466.309c4.732,4.134,11.003,0.589,9.49-5.487l-3.77-16.047
				c-5.775,3.771-11.769,7.243-17.964,10.375L401.793,466.309z"/>
			<path fill="#C5A154" d="M431.281,446.838c5.381,3.244,10.938-1.336,8.396-7.051l-6.51-15.17
				c-5.049,4.729-10.35,9.197-15.899,13.348L431.281,446.838z"/>
			<path fill="#C5A154" d="M456.939,422.545c5.859,2.258,10.539-3.217,7.046-8.404l-9.035-13.789
				c-4.162,5.538-8.632,10.839-13.369,15.877L456.939,422.545z"/>
			<path fill="#C5A154" d="M477.99,394.164c6.163,1.206,9.82-4.996,5.473-9.506l-11.264-11.99
				c-3.147,6.188-6.627,12.179-10.415,17.942L477.99,394.164z"/>
			<path fill="#C5A154" d="M493.792,362.551c6.28,0.123,8.803-6.614,3.745-10.303l-13.178-9.847
				c-2.02,6.651-4.396,13.146-7.11,19.472L493.792,362.551z"/>
			<path fill="#C5A154" d="M503.863,328.683c6.21-0.972,7.524-8.045,1.897-10.795l-14.714-7.426
				c-0.828,6.932-2.027,13.748-3.594,20.421L503.863,328.683z"/>
			<path fill="#C5A154" d="M492.083,298.608l15.82-5.031c5.944-2.035,6.01-9.231-0.007-10.959l-15.788-4.759
				c0.182,3.372,0.278,6.766,0.278,10.189C492.388,291.591,492.277,295.114,492.083,298.608z"/>
			<path fill="#C5A154" d="M505.786,258.308c5.501-3.036,4.312-10.139-1.911-10.797l-16.332-1.936
				c1.553,6.677,2.734,13.498,3.545,20.429L505.786,258.308z"/>
			<path fill="#C5A154" d="M497.576,223.939c4.891-3.944,2.486-10.732-3.761-10.304l-16.415,0.93
				c2.705,6.323,5.062,12.826,7.064,19.484L497.576,223.939z"/>
			<path fill="#C5A154" d="M483.52,191.521c4.131-4.738,0.586-11.004-5.486-9.497l-16.041,3.773
				c3.777,5.773,7.241,11.768,10.368,17.956L483.52,191.521z"/>
			<path fill="#C5A154" d="M464.05,162.031c3.243-5.383-1.337-10.939-7.053-8.396l-15.163,6.506
				c4.729,5.047,9.189,10.349,13.34,15.894L464.05,162.031z"/>
			<path fill="#C5A154" d="M439.754,136.373c2.262-5.866-3.215-10.54-8.402-7.041l-13.785,9.028
				c5.537,4.161,10.832,8.632,15.867,13.368L439.754,136.373z"/>
			<path fill="#C5A154" d="M411.374,115.322c1.208-6.166-4.995-9.825-9.499-5.473l-11.989,11.265
				c6.188,3.139,12.172,6.623,17.938,10.408L411.374,115.322z"/>
			<path fill="#C5A154" d="M379.766,99.52c0.121-6.28-6.623-8.806-10.308-3.741l-9.843,13.17c6.651,2.021,13.151,4.394,19.469,7.109
				L379.766,99.52z"/>
			<path fill="#C5A154" d="M345.897,89.445c-0.976-6.205-8.054-7.517-10.8-1.894l-7.426,14.712
				c6.932,0.826,13.745,2.025,20.422,3.59L345.897,89.445z"/>
		</g>
		<path fill="#C5A154" d="M450.884,288.269c0-80.45-65.448-145.901-145.898-145.901c-80.447,0-145.894,65.451-145.894,145.901
			c0,80.45,65.445,145.901,145.894,145.901C385.436,434.17,450.884,368.719,450.884,288.269z M304.985,431.834
			c-79.159,0-143.562-64.401-143.562-143.565c0-79.164,64.404-143.565,143.562-143.565c79.166,0,143.565,64.402,143.565,143.565
			C448.551,367.433,384.151,431.834,304.985,431.834z"/>
		<path fill="#004B1C" stroke="#004B1C" stroke-width="30.8617" d="M139.643,288.048c0-91.403,74.098-165.509,165.5-165.509
			c91.41,0,165.505,74.106,165.505,165.509c0,91.403-74.095,165.501-165.505,165.501
			C213.741,453.549,139.643,379.451,139.643,288.048z"/>
		<path fill="#C5A154" d="M139.643,288.048c0-91.403,74.098-165.509,165.5-165.509c91.41,0,165.505,74.106,165.505,165.509
			c0,91.403-74.095,165.501-165.505,165.501C213.741,453.549,139.643,379.451,139.643,288.048z"/>
		<polygon fill="#A38744" points="446.025,289.105 446.025,287.939 354.468,284.41 444.068,264.625 443.863,263.482 
			353.086,275.901 437.89,240.859 437.49,239.766 350.247,267.762 427.679,218.523 427.093,217.516 346.036,260.237 
			413.743,198.301 412.993,197.412 340.584,253.56 396.507,180.809 395.614,180.061 334.061,247.927 376.5,166.569 375.487,165.991 
			326.651,243.517 354.319,156.022 353.226,155.628 318.591,240.459 330.645,149.492 329.502,149.292 310.125,238.848 
			306.198,147.165 305.036,147.17 301.507,238.726 281.717,149.123 280.571,149.33 292.996,240.108 257.953,155.304 
			256.855,155.705 284.857,242.949 235.617,165.515 234.608,166.1 277.333,247.154 215.395,179.452 214.505,180.202 
			270.653,252.606 197.898,196.687 197.157,197.58 265.022,259.133 183.666,216.693 183.087,217.705 260.61,266.54 173.119,238.873 
			172.726,239.969 257.552,274.599 166.584,262.545 166.387,263.695 255.94,283.067 164.262,286.996 164.262,288.162 
			255.82,291.691 166.219,311.476 166.424,312.619 257.202,300.201 172.397,335.242 172.797,336.335 260.042,308.333 
			182.608,357.569 183.194,358.586 264.251,315.865 196.545,377.801 197.292,378.687 269.703,322.537 213.779,395.293 
			214.67,396.042 276.228,328.169 233.79,409.533 234.799,410.111 283.636,332.584 255.969,420.07 257.063,420.473 291.696,335.642 
			279.642,426.609 280.785,426.809 300.164,337.25 304.09,428.926 305.251,428.926 308.78,337.371 328.566,426.973 329.716,426.773 
			317.292,335.993 352.334,420.793 353.432,420.394 325.434,333.156 374.668,410.582 375.674,409.996 332.958,328.946 
			394.892,396.648 395.779,395.899 339.633,323.495 412.384,379.415 413.131,378.522 345.268,316.964 426.622,359.408 
			427.201,358.394 349.682,309.562 437.167,337.229 437.565,336.135 352.736,301.502 443.704,313.556 443.903,312.406 
			354.35,293.034 		"/>
		<g>
			<path stroke="#000000" stroke-width="3.1249" d="M168.899,278.556l-0.562-0.016c0.017-0.562,0.026-0.89-0.583-0.909
				c-0.562-0.016-8.979,5.502-10.17,6.171l3.988,4.713l5.623,0.167c0.421,0.012,0.754-0.119,0.882-1.288l0.562,0.017l-0.284,9.651
				l-0.562-0.017c-0.06-1.174-0.383-1.325-0.806-1.337l-21.833-0.645c-0.421-0.012-0.753,0.119-0.882,1.287l-0.562-0.016
				l0.285-9.652l0.562,0.017c0.06,1.174,0.384,1.324,0.806,1.336l8.433,0.25l0.01-0.328c-3.544-3.857-7.881-9.424-8.396-9.439
				c-0.562-0.016-0.572,0.312-0.634,0.826l-0.562-0.016l0.35-11.901l0.563,0.017c0.058,1.221,0.425,1.466,1.422,2.667l6.742,8.312
				l14.571-9.137c0.765-0.493,0.776-0.868,0.794-1.477l0.562,0.017L168.899,278.556z"/>
			<path stroke="#000000" stroke-width="3.1249" d="M154.579,248.327c1.038-3.943,4.359-6.801,8.62-5.68
				c4.261,1.122,5.746,5.244,4.708,9.188c-1.037,3.943-4.358,6.802-8.62,5.68C155.025,256.393,153.542,252.271,154.579,248.327z
				 M149.049,246.872c-2.029,7.706,0.538,15.264,8.471,17.352c7.933,2.086,13.888-3.228,15.916-10.934
				c2.027-7.707-0.54-15.265-8.473-17.352C157.032,233.85,151.078,239.166,149.049,246.872z"/>
			<path stroke="#000000" stroke-width="3.1249" d="M174.287,205.175l-0.258,0.5c-0.856-0.284-1.15-0.227-1.387,0.233l-7.108,13.737
				l3.705,1.917l4.782-9.242c0.237-0.458,0.115-0.732-0.569-1.245l0.258-0.5l6.994,3.619l-0.259,0.5
				c-0.98-0.348-1.275-0.29-1.512,0.169l-4.781,9.241l6.952,3.598c0.375,0.194,0.73,0.22,1.352-0.777l0.5,0.259l-4.524,8.742
				l-0.499-0.258c0.455-1.084,0.228-1.36-0.146-1.554l-19.399-10.039c-0.375-0.194-0.731-0.219-1.353,0.779l-0.5-0.259
				l11.029-21.314c0.237-0.458,0.115-0.732-0.777-1.353l0.257-0.499L174.287,205.175z"/>
			<path stroke="#000000" stroke-width="3.1249" d="M194.461,179.721l-0.357,0.435c-0.777-0.457-1.077-0.46-1.404-0.062
				l-9.814,11.956l3.224,2.647l6.602-8.043c0.328-0.398,0.266-0.692-0.298-1.336l0.357-0.435l6.087,4.997l-0.357,0.435
				c-0.886-0.546-1.187-0.55-1.513-0.15l-6.603,8.042l6.05,4.967c0.327,0.267,0.669,0.368,1.486-0.479l0.434,0.357l-6.245,7.608
				l-0.435-0.357c0.67-0.965,0.506-1.281,0.18-1.549l-16.883-13.86c-0.326-0.268-0.669-0.367-1.485,0.479l-0.435-0.357
				l15.228-18.549c0.327-0.399,0.265-0.692-0.479-1.484l0.356-0.435L194.461,179.721z"/>
			<path stroke="#000000" stroke-width="3.1249" d="M211.67,188.503l-0.371-0.423c0.82-0.842,0.709-1.182,0.431-1.499l-14.39-16.434
				c-0.278-0.317-0.6-0.472-1.543,0.23l-0.371-0.423l7.265-6.361l0.371,0.423c-0.82,0.842-0.709,1.182-0.432,1.5l14.39,16.433
				c0.278,0.317,0.6,0.472,1.542-0.23l0.371,0.423L211.67,188.503z"/>
			<path stroke="#000000" stroke-width="3.1249" d="M234.854,160.456l-0.478,0.296c-0.44-0.444-0.965-0.67-1.764-0.177l-7.415,4.586
				l2.294,3.707l12.796-7.914c0.439-0.272,0.475-0.569-0.022-1.64l0.479-0.296l4.291,6.936l-0.479,0.296
				c-0.539-0.604-0.821-0.704-1.26-0.434l-19.894,12.303l-0.296-0.479c0.948-0.697,0.895-1.05,0.673-1.409l-11.489-18.577
				c-0.222-0.359-0.514-0.564-1.56-0.027l-0.296-0.478l19.894-12.303c0.438-0.271,0.475-0.569,0.027-1.561l0.478-0.296l4.29,6.937
				l-0.479,0.295c-0.686-0.842-0.969-0.944-1.407-0.672l-12.797,7.914l2.046,3.309l7.416-4.586c0.797-0.492,0.83-1.064,0.629-1.657
				l0.478-0.295L234.854,160.456z"/>
			<path stroke="#000000" stroke-width="3.1249" d="M408.314,195.309c-0.281,0.315-0.377,0.669,0.585,1.651l-0.375,0.42
				l-8.434-7.517l0.373-0.419c1.087,0.842,1.428,0.706,1.709,0.391l5.771-6.473l-10.645-9.488l-5.77,6.474
				c-0.281,0.314-0.377,0.669,0.584,1.651l-0.373,0.42l-8.435-7.518l0.374-0.419c1.087,0.842,1.428,0.706,1.707,0.391l14.535-16.305
				c0.281-0.314,0.376-0.669-0.586-1.651l0.376-0.419l8.433,7.517l-0.375,0.419c-1.086-0.843-1.428-0.707-1.709-0.392l-4.958,5.563
				l10.646,9.487l4.957-5.563c0.28-0.315,0.377-0.669-0.585-1.652l0.374-0.419l8.434,7.517l-0.373,0.419
				c-1.087-0.842-1.427-0.707-1.707-0.392L408.314,195.309z"/>
			<path stroke="#000000" stroke-width="3.1249" d="M446.662,213.624c0.365-0.212,0.565-0.519-0.044-1.751l0.483-0.284l5.694,9.758
				l-0.485,0.284c-0.771-1.138-1.139-1.114-1.504-0.901l-10.85,6.33c-7.127,4.158-12.872-0.298-17.102-7.546
				c-4.229-7.247-5.279-14.444,1.847-18.601l10.85-6.33c0.365-0.213,0.564-0.521-0.044-1.752l0.484-0.282l5.692,9.757l-0.483,0.284
				c-0.772-1.138-1.14-1.114-1.505-0.901l-10.85,6.33c-3.116,1.819-3.101,4.73-0.89,8.52c2.211,3.789,4.735,5.236,7.854,3.417
				L446.662,213.624z"/>
			<path stroke="#000000" stroke-width="3.1249" d="M434.569,244.286l0.539-0.157c0.476,1.289,0.836,1.354,1.24,1.237l20.964-6.129
				c0.406-0.119,0.676-0.369,0.382-1.711l0.539-0.158l3.17,10.844l-0.54,0.158c-0.477-1.291-0.835-1.356-1.241-1.237l-20.965,6.129
				c-0.403,0.119-0.675,0.368-0.378,1.711l-0.539,0.158L434.569,244.286z"/>
			<path stroke="#000000" stroke-width="3.1249" d="M450.363,267.098l-0.199,0.562c-0.241-0.095-0.567-0.074-0.989-0.05
				c-1.263,0.078-3.013,6.062-2.668,11.755c0.332,5.474,1.604,7.87,3.664,7.745c3.461-0.21-1.743-22.53,7.287-23.079
				c4.678-0.284,8.225,4.776,8.714,12.823c0.454,7.499-1.182,13.039-1.094,14.516c0.045,0.711,0.396,1.075,0.793,1.435l-0.149,0.614
				l-6.733-3.382l0.239-0.674l0.516-0.032c1.171-0.071,2.102-6.391,1.791-11.536c-0.29-4.762-1.513-6.336-2.589-6.271
				c-4.164,0.252,2.31,22.605-8.449,23.258c-4.023,0.245-8.686-3.044-9.405-14.923c-0.556-9.142,1.353-13.323,1.276-14.582
				c-0.028-0.438-0.374-0.747-0.676-1.058l0.1-0.665L450.363,267.098z"/>
		</g>
		<circle fill="none" stroke="#000000" stroke-width="4.6873" cx="305.146" cy="288.043" r="150.351"/>
		<g>
			<path fill="#F2EDC9" d="M168.899,278.556l-0.562-0.016c0.017-0.562,0.026-0.89-0.583-0.909c-0.562-0.016-8.979,5.502-10.17,6.171
				l3.988,4.713l5.623,0.167c0.421,0.012,0.754-0.119,0.882-1.288l0.562,0.017l-0.284,9.651l-0.562-0.017
				c-0.06-1.174-0.383-1.325-0.806-1.337l-21.833-0.645c-0.421-0.012-0.753,0.119-0.882,1.287l-0.562-0.016l0.285-9.652l0.562,0.017
				c0.06,1.174,0.384,1.324,0.806,1.336l8.433,0.25l0.01-0.328c-3.544-3.857-7.881-9.424-8.396-9.439
				c-0.562-0.016-0.572,0.312-0.634,0.826l-0.562-0.016l0.35-11.901l0.563,0.017c0.058,1.221,0.425,1.466,1.422,2.667l6.742,8.312
				l14.571-9.137c0.765-0.493,0.776-0.868,0.794-1.477l0.562,0.017L168.899,278.556z"/>
			<path fill="#F2EDC9" d="M154.579,248.327c1.038-3.943,4.359-6.801,8.62-5.68c4.261,1.122,5.746,5.244,4.708,9.188
				c-1.037,3.943-4.358,6.802-8.62,5.68C155.025,256.393,153.542,252.271,154.579,248.327z M149.049,246.872
				c-2.029,7.706,0.538,15.264,8.471,17.352c7.933,2.086,13.888-3.228,15.916-10.934c2.027-7.707-0.54-15.265-8.473-17.352
				C157.032,233.85,151.078,239.166,149.049,246.872z"/>
			<path fill="#F2EDC9" d="M174.287,205.175l-0.258,0.5c-0.856-0.284-1.15-0.227-1.387,0.233l-7.108,13.737l3.705,1.917l4.782-9.242
				c0.237-0.458,0.115-0.732-0.569-1.245l0.258-0.5l6.994,3.619l-0.259,0.5c-0.98-0.348-1.275-0.29-1.512,0.169l-4.781,9.241
				l6.952,3.598c0.375,0.194,0.73,0.22,1.352-0.777l0.5,0.259l-4.524,8.742l-0.499-0.258c0.455-1.084,0.228-1.36-0.146-1.554
				l-19.399-10.039c-0.375-0.194-0.731-0.219-1.353,0.779l-0.5-0.259l11.029-21.314c0.237-0.458,0.115-0.732-0.777-1.353
				l0.257-0.499L174.287,205.175z"/>
			<path fill="#F2EDC9" d="M194.461,179.721l-0.357,0.435c-0.777-0.457-1.077-0.46-1.404-0.062l-9.814,11.956l3.224,2.647
				l6.602-8.043c0.328-0.398,0.266-0.692-0.298-1.336l0.357-0.435l6.087,4.997l-0.357,0.435c-0.886-0.546-1.187-0.55-1.513-0.15
				l-6.603,8.042l6.05,4.967c0.327,0.267,0.669,0.368,1.486-0.479l0.434,0.357l-6.245,7.608l-0.435-0.357
				c0.67-0.965,0.506-1.281,0.18-1.549l-16.883-13.86c-0.326-0.268-0.669-0.367-1.485,0.479l-0.435-0.357l15.228-18.549
				c0.327-0.399,0.265-0.692-0.479-1.484l0.356-0.435L194.461,179.721z"/>
			<path fill="#F2EDC9" d="M211.67,188.503l-0.371-0.423c0.82-0.842,0.709-1.182,0.431-1.499l-14.39-16.434
				c-0.278-0.317-0.6-0.472-1.543,0.23l-0.371-0.423l7.265-6.361l0.371,0.423c-0.82,0.842-0.709,1.182-0.432,1.5l14.39,16.433
				c0.278,0.317,0.6,0.472,1.542-0.23l0.371,0.423L211.67,188.503z"/>
			<path fill="#F2EDC9" d="M234.854,160.456l-0.478,0.296c-0.44-0.444-0.965-0.67-1.764-0.177l-7.415,4.586l2.294,3.707
				l12.796-7.914c0.439-0.272,0.475-0.569-0.022-1.64l0.479-0.296l4.291,6.936l-0.479,0.296c-0.539-0.604-0.821-0.704-1.26-0.434
				l-19.894,12.303l-0.296-0.479c0.948-0.697,0.895-1.05,0.673-1.409l-11.489-18.577c-0.222-0.359-0.514-0.564-1.56-0.027
				l-0.296-0.478l19.894-12.303c0.438-0.271,0.475-0.569,0.027-1.561l0.478-0.296l4.29,6.937l-0.479,0.295
				c-0.686-0.842-0.969-0.944-1.407-0.672l-12.797,7.914l2.046,3.309l7.416-4.586c0.797-0.492,0.83-1.064,0.629-1.657l0.478-0.295
				L234.854,160.456z"/>
			<path fill="#F2EDC9" d="M408.314,195.309c-0.281,0.315-0.377,0.669,0.585,1.651l-0.375,0.42l-8.434-7.517l0.373-0.419
				c1.087,0.842,1.428,0.706,1.709,0.391l5.771-6.473l-10.645-9.488l-5.77,6.474c-0.281,0.314-0.377,0.669,0.584,1.651l-0.373,0.42
				l-8.435-7.518l0.374-0.419c1.087,0.842,1.428,0.706,1.707,0.391l14.535-16.305c0.281-0.314,0.376-0.669-0.586-1.651l0.376-0.419
				l8.433,7.517l-0.375,0.419c-1.086-0.843-1.428-0.707-1.709-0.392l-4.958,5.563l10.646,9.487l4.957-5.563
				c0.28-0.315,0.377-0.669-0.585-1.652l0.374-0.419l8.434,7.517l-0.373,0.419c-1.087-0.842-1.427-0.707-1.707-0.392
				L408.314,195.309z"/>
			<path fill="#F2EDC9" d="M446.662,213.624c0.365-0.212,0.565-0.519-0.044-1.751l0.483-0.284l5.694,9.758l-0.485,0.284
				c-0.771-1.138-1.139-1.114-1.504-0.901l-10.85,6.33c-7.127,4.158-12.872-0.298-17.102-7.546
				c-4.229-7.247-5.279-14.444,1.847-18.601l10.85-6.33c0.365-0.213,0.564-0.521-0.044-1.752l0.484-0.282l5.692,9.757l-0.483,0.284
				c-0.772-1.138-1.14-1.114-1.505-0.901l-10.85,6.33c-3.116,1.819-3.101,4.73-0.89,8.52c2.211,3.789,4.735,5.236,7.854,3.417
				L446.662,213.624z"/>
			<path fill="#F2EDC9" d="M434.569,244.286l0.539-0.157c0.476,1.289,0.836,1.354,1.24,1.237l20.964-6.129
				c0.406-0.119,0.676-0.369,0.382-1.711l0.539-0.158l3.17,10.844l-0.54,0.158c-0.477-1.291-0.835-1.356-1.241-1.237l-20.965,6.129
				c-0.403,0.119-0.675,0.368-0.378,1.711l-0.539,0.158L434.569,244.286z"/>
			<path fill="#F2EDC9" d="M450.363,267.098l-0.199,0.562c-0.241-0.095-0.567-0.074-0.989-0.05
				c-1.263,0.078-3.013,6.062-2.668,11.755c0.332,5.474,1.604,7.87,3.664,7.745c3.461-0.21-1.743-22.53,7.287-23.079
				c4.678-0.284,8.225,4.776,8.714,12.823c0.454,7.499-1.182,13.039-1.094,14.516c0.045,0.711,0.396,1.075,0.793,1.435l-0.149,0.614
				l-6.733-3.382l0.239-0.674l0.516-0.032c1.171-0.071,2.102-6.391,1.791-11.536c-0.29-4.762-1.513-6.336-2.589-6.271
				c-4.164,0.252,2.31,22.605-8.449,23.258c-4.023,0.245-8.686-3.044-9.405-14.923c-0.556-9.142,1.353-13.323,1.276-14.582
				c-0.028-0.438-0.374-0.747-0.676-1.058l0.1-0.665L450.363,267.098z"/>
		</g>
		<g>
			<path fill="#006330" d="M53.419,422.459l-0.246,0.006c-0.004,0-0.425,0.187-0.535,0.238c0-0.045,0-0.188,0-0.188
				c0-0.008-0.013-0.021-0.021-0.021h-1.733c-0.011,0-0.021,0.014-0.021,0.021v5.517c0,0.008,0.01,0.016,0.021,0.016h1.843
				c0.014,0,0.021-0.008,0.021-0.016c0,0,0-1.322,0-1.357c0.293-0.021,3.409-0.313,3.409-2.328
				C56.157,423.158,55.134,422.459,53.419,422.459z M52.748,425.938c0-0.04,0-2.551,0-2.569c0.071-0.088,0.343-0.209,0.58-0.209
				c0.536,0,0.928,0.436,0.928,1.045C54.255,425.553,53.22,425.867,52.748,425.938z"/>
			<path fill="#006330" d="M59.057,422.459l-0.242,0.006c-0.003,0-0.425,0.187-0.536,0.238c0-0.045,0-0.188,0-0.188
				c0-0.008-0.011-0.021-0.021-0.021h-1.73c-0.014,0-0.024,0.014-0.024,0.021v5.517c0,0.008,0.011,0.016,0.024,0.016h1.844
				c0.006,0,0.018-0.008,0.018-0.016c0,0,0-1.322,0-1.357c0.297-0.021,3.413-0.313,3.413-2.328
				C61.802,423.158,60.772,422.459,59.057,422.459z M58.389,425.938c0-0.04,0-2.551,0-2.569c0.072-0.088,0.34-0.209,0.575-0.209
				c0.541,0,0.929,0.436,0.929,1.045C59.893,425.553,58.857,425.867,58.389,425.938z"/>
			<path fill="#006330" d="M63.941,422.459c-0.815,0-1.358,0.092-1.362,0.092c-0.015,0-0.021,0.017-0.021,0.021v0.852
				c0,0.006,0.006,0.015,0.006,0.015c0.007,0.008,0.015,0.008,0.018,0.008c0.391-0.06,0.711-0.095,1.191-0.095
				c0.356,0,0.778,0.072,0.778,0.437c0,0,0,0.066,0,0.092c-0.656,0.06-2.997,0.617-2.997,2.404c0,1.006,1.01,1.82,2.254,1.82
				c0.079,0,0.171,0,0.282-0.021c0.007,0,0.473-0.279,0.594-0.35c0,0.057,0,0.299,0,0.299c0,0.008,0.011,0.016,0.021,0.016h1.712
				c0.014,0,0.021-0.008,0.021-0.016v-3.959C66.439,422.986,65.624,422.459,63.941,422.459z M64.552,426.889
				c-0.057,0.107-0.25,0.302-0.536,0.302c-0.325,0-0.65-0.279-0.65-0.906c0-0.986,0.829-1.467,1.186-1.504
				C64.552,424.824,64.552,426.881,64.552,426.889z"/>
			<path fill="#006330" d="M67.11,422.572L67.11,422.572c-0.072-0.07-0.157-0.107-0.258-0.107c-0.091,0-0.179,0.037-0.25,0.107
				c-0.067,0.065-0.099,0.155-0.099,0.25c0,0.092,0.032,0.186,0.099,0.252c0.072,0.062,0.162,0.104,0.25,0.104
				c0.093,0,0.186-0.043,0.258-0.104c0.064-0.066,0.1-0.16,0.1-0.252C67.21,422.729,67.174,422.639,67.11,422.572z M67.054,423.016
				c-0.055,0.06-0.123,0.086-0.202,0.086c-0.07,0-0.142-0.026-0.195-0.079c-0.055-0.056-0.083-0.128-0.083-0.199
				c0-0.07,0.027-0.142,0.083-0.201c0.054-0.049,0.12-0.084,0.195-0.084c0.079,0,0.151,0.035,0.202,0.084
				c0.056,0.053,0.085,0.131,0.085,0.201C67.139,422.902,67.11,422.967,67.054,423.016z"/>
			<path fill="#006330" d="M67.046,422.729c0-0.127-0.136-0.127-0.179-0.127h-0.144c-0.007,0-0.021,0.009-0.021,0.021v0.387
				c0,0.015,0.014,0.023,0.021,0.023h0.053c0.011,0,0.021-0.011,0.021-0.023c0,0,0-0.113,0-0.147c0.019,0,0.047,0,0.064,0
				c0.01,0.021,0.075,0.162,0.075,0.162c0.007,0.01,0.015,0.01,0.023,0.01h0.056c0.011,0,0.014,0,0.021-0.01
				c0-0.007,0-0.007,0-0.015c0,0,0,0,0-0.006c0,0-0.067-0.137-0.082-0.164C67.01,422.822,67.046,422.787,67.046,422.729z
				 M66.853,422.787c0,0-0.035,0-0.054,0c0-0.029,0-0.084,0-0.105c0.019,0,0.054,0,0.054,0c0.101,0,0.101,0.033,0.101,0.047
				C66.953,422.758,66.945,422.787,66.853,422.787z"/>
		</g>
		<rect x="40.544" y="306.24" fill="#004B1C" width="526.756" height="125.965"/>
		<g>
			<path fill="#C5A154" d="M111.347,345.987c0.386,0,0.865,0,1.387,0c0-4.086,0-12.168,0-12.168h-1.387
				C111.347,336.75,111.347,343.517,111.347,345.987z"/>
			<path fill="#C5A154" d="M120.651,347.382c0,0-0.554,0-1.387,0v8.154c0,0-5.595,0-7.917,0c0,4.093,0,34.232,0,34.232
				c0,4.564,1.241,6.279,2.466,6.931c-0.629-1.071-1.079-2.794-1.079-5.546c0,0,0-30.146,0-34.231c2.322,0,7.917,0,7.917,0V347.382z
				"/>
			<path fill="#C5A154" d="M95.513,355.536c-0.05,0-0.682,0-1.329,0v1.386c0,0,0.658,0,1.329,0
				C95.513,356.336,95.513,355.862,95.513,355.536z"/>
			<path fill="#C5A154" d="M121.193,405.475v-7.238l-1.386,0.079v5.772l0.072,2.223l-7.067,0.327c-2.751,0-7.423-0.578-11.226-3.894
				c3.98,4.551,9.518,5.271,12.612,5.271l7.066-0.318L121.193,405.475z"/>
		</g>
		<g>
			<path fill="#C5A154" d="M233.497,367.203c0,0,0,25.873,0,29.89c0.05,0,0.668,0,1.308,0c0.024,0,0.053,0,0.083,0
				c0-6.652,0-28.503,0-28.503c0-8.209-2.256-14.325-6.395-17.948C231.744,354.356,233.497,359.957,233.497,367.203z"/>
			<path fill="#C5A154" d="M178.15,356.922c0,0,0.657,0,1.329,0c0-0.603,0-1.086,0-1.386c-0.047,0-0.684,0-1.329,0V356.922z"/>
			<path fill="#C5A154" d="M174.919,340.838c0,0,0,51.953,0,56.255c0.111,0,0.732,0,1.386,0c0-9.353,0-54.869,0-54.869
				c0-9.117-2.915-15.127-6.981-18.763C172.647,327.175,174.919,332.792,174.919,340.838z"/>
			<path fill="#C5A154" d="M254.233,396.521c0.042-0.007,0.09-0.029,0.135-0.043c-0.034-0.114-0.064-0.229-0.064-0.336
				c0,0,0-23.651,0-33.782c-0.45-1.193-0.922-2.236-1.385-3.129c0,8.815,0,35.525,0,35.525
				C252.919,395.435,253.776,396.335,254.233,396.521z"/>
			<path fill="#C5A154" d="M252.919,346.39c0.418,0.15,0.884,0.328,1.385,0.536c0-5.317,0-27.317,0-27.317h-1.385
				C252.919,324.903,252.919,343.81,252.919,346.39z"/>
			<path fill="#C5A154" d="M237.512,327.761c-0.042,0-0.678,0-1.321,0v1.395c0,0,0.657,0,1.321,0
				C237.512,328.497,237.512,328.026,237.512,327.761z"/>
			<path fill="#C5A154" d="M216.09,354.776c-0.653,0-1.9,1.924-1.9,4.938v46.923h-14.019v1.379h15.404v-46.914
				c0-2.931,1.172-4.81,1.837-4.916C217.009,355.293,216.495,354.776,216.09,354.776z"/>
			<path fill="#C5A154" d="M196.777,354.776c-0.65,0-1.9,1.924-1.9,4.938v46.923h-16.921h-1.193h-16.619c0,0.873,0,1.379,0,1.379
				h18.006h1.193h16.92v-46.914c0-2.931,1.172-4.81,1.837-4.916C197.698,355.293,197.184,354.776,196.777,354.776z"/>
			<path fill="#C5A154" d="M264.39,353.937c4.712,5.07,8.815,13.133,8.815,25.852c0,20.192-9.611,27.389-18.604,27.389l-1.868-0.15
				l-0.607-0.036c0,0-0.172-0.179-0.343-0.352c-0.5,0-11.593,0-15.57,0h-1.408h-15.32v1.379h16.707h1.407c3.98,0,15.07,0,15.571,0
				c0.167,0.18,0.341,0.358,0.341,0.358l0.608,0.036l1.869,0.157c8.991,0,18.603-7.203,18.603-27.396
				C274.59,367.218,269.652,358.879,264.39,353.937z"/>
			<path fill="#C5A154" d="M136.298,375.713c-0.128,0-0.906,0-1.65,0v1.394c0,0,0.85,0,1.65,0
				C136.298,376.543,136.298,376.069,136.298,375.713z"/>
			<path fill="#C5A154" d="M158.757,375.713c-2.129,0-4.272,0-6.403,0c0,3.987,0,30.925,0,30.925h-17.706v1.379h19.092
				c0,0,0-26.931,0-30.91c1.666,0,3.343,0,5.016,0C158.757,376.515,158.757,376.035,158.757,375.713z"/>
			<path fill="#C5A154" d="M153.741,335.612c0-5.002,1.908-7.329,3.202-7.329c0.171,0,0.35,0.042,0.536,0.128
				c-0.607-1.016-1.329-1.516-1.922-1.516c-1.292,0-3.202,2.33-3.202,7.324c0,0,0,27.902,0,31.947c0.461,0,0.922,0,1.387,0
				C153.741,359.278,153.741,335.612,153.741,335.612z"/>
		</g>
		<g>
			<path fill="#C5A154" d="M290.346,347.382c0,0.114,0,0.223,0,0.329c0.187-0.112,0.375-0.221,0.564-0.329H290.346z"/>
			<path fill="#C5A154" d="M300.782,362.896c0.096-0.479,0.2-0.941,0.307-1.394h-6.399c0.114,0.586,0.269,1.394,0.269,1.394H300.782
				z"/>
			<path fill="#C5A154" d="M293.568,361.502l-0.375-1.979c-1.146,1.929-2.197,4.809-2.197,8.651c0,0,0,24.923,0,28.918
				c0.042,0,0.721,0,1.387,0c0-6.53,0-27.532,0-27.532c0-3.473,0.858-6.145,1.865-8.059L293.568,361.502L293.568,361.502z"/>
			<path fill="#C5A154" d="M318.212,397.106c-0.679-2.565-1.411-7.981-1.411-19.407c0-14.125,1.122-19.07,1.867-20.794
				c-0.362-1.394-0.713-1.955-0.921-2.172c-0.578,0.615-2.328,3.933-2.328,21.58c0,17.648,1.75,20.966,2.328,21.578
				C317.862,397.771,318.027,397.535,318.212,397.106z"/>
			<path fill="#C5A154" d="M293.707,406.638h-16.73c0,0.888,0,1.379,0,1.379h18.117v-9.538c0,0-0.697,0-1.387,0V406.638z"/>
			<path fill="#C5A154" d="M302.711,356.429c0.432-1.035,0.897-1.966,1.39-2.83v-6.123l-1.39-0.277V356.429z"/>
			<path fill="#C5A154" d="M328.991,350.383c3.809,4.287,6.928,12.033,6.928,25.933c0,28.051-12.709,31.082-18.171,31.082
				c-2.89,0-6.616-0.743-9.94-3.673c3.64,4.094,8.025,5.058,11.328,5.058c5.465,0,18.17-3.027,18.17-31.082
				C337.305,362.151,333.396,354.299,328.991,350.383z"/>
			<path fill="#C5A154" d="M275.594,355.536c-0.046,0-0.683,0-1.326,0v1.386c0,0,0.658,0,1.326,0
				C275.594,356.293,275.594,355.821,275.594,355.536z"/>
		</g>
		<path fill="#C5A154" d="M381.549,323.304c1.438,1.801,2.317,4.258,2.317,7.016c0,5.625-3.646,10.033-8.298,10.033
			c-1.674,0-3.209-0.595-4.494-1.607c1.479,1.85,3.551,2.994,5.881,2.994c4.65,0,8.299-4.41,8.299-10.04
			C385.254,328.147,383.793,325.083,381.549,323.304z"/>
		<g>
			<path fill="#C5A154" d="M365.208,354.414v-6.608c-2.267,8.545-11.862,44.698-13.08,49.287c0.747,0,1.274,0,1.753,0
				C355.69,390.283,362.02,366.433,365.208,354.414z"/>
			<path fill="#C5A154" d="M346.686,356.922c0.005,0,0.009,0,0.009,0c0.156-0.603,0.278-1.063,0.364-1.386c-0.873,0-1.051,0-1.758,0
				c-0.314,1.32-1.087,4.559-1.087,4.559h-7.667v1.387h8.961c0.433-1.658,0.799-3.065,1.078-4.139
				C346.622,357.192,346.659,357.043,346.686,356.922z"/>
			<path fill="#C5A154" d="M383.327,397.093c0.062,0,0.72,0,1.381,0c0-8.874,0-49.711,0-49.711h-1.381
				C383.327,355.156,383.327,393.276,383.327,397.093z"/>
			<path fill="#C5A154" d="M386.147,398.479v8.159h-16.843c0,0.888,0,1.379,0,1.379h18.225v-9.538
				C387.529,398.479,386.841,398.479,386.147,398.479z"/>
			<path fill="#C5A154" d="M365.643,406.638h-30.182c-0.228,0.888-0.363,1.379-0.363,1.379h31.933v-14.096h-1.388V406.638z"/>
			<path fill="#C5A154" d="M367.922,355.536c-0.045,0-0.682,0-1.328,0v1.386c0,0,0.66,0,1.328,0
				C367.922,356.293,367.922,355.821,367.922,355.536z"/>
		</g>
		<path fill="#C5A154" d="M402.484,323.304c1.44,1.801,2.319,4.258,2.319,7.016c0,5.625-3.645,10.033-8.3,10.033
			c-1.672,0-3.213-0.595-4.493-1.607c1.48,1.857,3.55,2.994,5.883,2.994c4.648,0,8.296-4.41,8.296-10.04
			C406.189,328.147,404.733,325.083,402.484,323.304z"/>
		<g>
			<path fill="#C5A154" d="M404.15,347.382v54.97c0,17.234-9.496,23.38-18.386,23.38c-2.107,0-3.65-0.234-3.716-0.242l-0.593-0.095
				v1.173l1.976,0.301c0.068,0.014,1.611,0.242,3.72,0.242c8.889,0,18.39-6.139,18.39-23.372v-56.355L404.15,347.382L404.15,347.382
				z"/>
			<path fill="#C5A154" d="M387.529,356.922c0,0,0.656,0,1.331,0c0-0.629,0-1.101,0-1.386c-0.048,0-0.686,0-1.331,0V356.922z"/>
		</g>
		<g>
			<path fill="#C5A154" d="M408.059,355.536c-0.048,0-0.679,0-1.326,0v1.386c0,0,0.657,0,1.326,0
				C408.059,356.319,408.059,355.836,408.059,355.536z"/>
			<path fill="#C5A154" d="M442.774,367.203c0,0,0,25.873,0,29.89c0.042,0,0.718,0,1.382,0c0-6.652,0-28.503,0-28.503
				c0-8.217-2.253-14.325-6.393-17.948C441.013,354.356,442.774,359.957,442.774,367.203z"/>
			<path fill="#C5A154" d="M425.361,355.862c-0.652,0-1.897,1.925-1.897,4.939v45.835h-16.73v1.379h18.114v-45.829
				c0-2.922,1.176-4.809,1.839-4.916C426.279,356.378,425.77,355.862,425.361,355.862z"/>
			<path fill="#C5A154" d="M445.482,398.479v8.159h-16.728v1.379h18.117v-9.538C446.873,398.479,446.172,398.479,445.482,398.479z"
				/>
		</g>
		<path fill="#C5A154" d="M485.145,323.304c1.44,1.801,2.319,4.258,2.319,7.016c0,5.625-3.643,10.033-8.298,10.033
			c-1.67,0-3.209-0.595-4.492-1.607c1.48,1.85,3.552,2.994,5.881,2.994c4.651,0,8.295-4.41,8.295-10.04
			C488.85,328.147,487.393,325.083,485.145,323.304z"/>
		<g>
			<path fill="#C5A154" d="M486.814,347.382v54.97c0,17.234-9.499,23.38-18.39,23.38c-2.104,0-3.65-0.234-3.714-0.242l-0.59-0.095
				v1.173l1.975,0.301c0.068,0.014,1.611,0.242,3.721,0.242c8.885,0,18.385-6.139,18.385-23.372v-56.355L486.814,347.382
				L486.814,347.382z"/>
			<path fill="#C5A154" d="M462.189,345.987c0.386,0,0.863,0,1.389,0c0-4.086,0-12.168,0-12.168h-1.389
				C462.189,336.75,462.189,343.517,462.189,345.987z"/>
			<path fill="#C5A154" d="M471.524,356.922c0-0.629,0-1.101,0-1.386c-0.052,0-0.74,0-1.415,0c0,0-0.521,0-1.302,0
				c-1.796,0-5,0-6.618,0c0,4.093,0,34.232,0,34.232c0,4.564,1.242,6.279,2.468,6.931c-0.633-1.071-1.079-2.794-1.079-5.546
				c0,0,0-30.146,0-34.231c1.615,0,4.82,0,6.616,0c0.782,0,1.301,0,1.301,0C471.505,356.922,471.512,356.922,471.524,356.922z"/>
			<path fill="#C5A154" d="M446.354,355.536c-0.047,0-0.682,0-1.328,0v1.386c0,0,0.659,0,1.328,0
				C446.354,356.336,446.354,355.862,446.354,355.536z"/>
			<path fill="#C5A154" d="M471.524,407.724c0-0.463,0-4.185,0-9.459l-0.872,0.051v5.772l0.071,2.223l-7.067,0.327
				c-2.751,0-7.423-0.578-11.223-3.894c3.979,4.551,9.516,5.271,12.604,5.271L471.524,407.724z"/>
		</g>
		<g>
			<path fill="#C5A154" d="M506.768,373.733c0.122-8.416,0.821-12.897,1.466-15.248c-0.212-1.68-0.497-2.672-0.723-3.242
				c-0.746,1.499-2.146,6.105-2.146,19.663c0,0.335,0.011,0.813,0.021,1.35C505.86,375.606,506.336,374.749,506.768,373.733z"/>
			<path fill="#C5A154" d="M523.917,364.272c0,15.399-11.196,21.408-17.659,23.037c0.473,3.338,1.555,7.924,4.05,9.582
				c-1.533-2.136-2.292-5.561-2.663-8.195c6.458-1.622,17.66-7.639,17.66-23.037c0-7.146-2.498-12.146-6.021-15.233
				C522.053,353.558,523.917,358.114,523.917,364.272z"/>
			<path fill="#C5A154" d="M518.383,404.195l-0.006,1.906l-2.107,0.422c-1.194,0.244-3.198,0.651-5.75,0.651
				c-3.613,0-8.351-0.879-12.407-4.51c4.328,4.803,9.765,5.902,13.794,5.902c2.551,0,4.551-0.408,5.748-0.649l2.109-0.423v-1.915
				v-7.417l-1.381,0.229V404.195L518.383,404.195z"/>
		</g>
		<g>
			<path fill="#C5A154" d="M60.862,374.271c2.676-2.931,2.583-7.402-0.135-10.226l-10.058,10.983
				C53.712,377.492,58.178,377.192,60.862,374.271z"/>
			<path fill="#C5A154" d="M49.843,364.183c-2.68,2.92-2.582,7.401,0.137,10.217l10.056-10.976
				C56.993,360.959,52.523,361.252,49.843,364.183z"/>
		</g>
		<g>
			<path fill="#C5A154" d="M558.168,374.271c2.678-2.931,2.582-7.402-0.139-10.226l-10.053,10.983
				C551.02,377.492,555.486,377.192,558.168,374.271z"/>
			<path fill="#C5A154" d="M547.15,364.183c-2.68,2.92-2.579,7.401,0.137,10.217l10.057-10.976
				C554.295,360.959,549.83,361.252,547.15,364.183z"/>
		</g>
		<g>
			<polygon fill="#93793D" points="404.286,423.193 401.76,425.059 460.99,425.059 460.99,423.193 			"/>
			<path fill="#93793D" d="M554.67,355.899c0-1.473,0-38.785,0-38.785c0-2.059-1.672-3.729-3.729-3.729H56.908
				c-2.059,0-3.734,1.671-3.734,3.729c0,0,0,37.326,0,38.793c-6.506,1.078-11.337,6.638-11.337,13.333
				c0,6.694,4.831,12.245,11.337,13.333c0,1.465,0,38.763,0,38.763c0,2.051,1.675,3.723,3.734,3.723H378.46v-1.864H56.908
				c-1.03,0-1.867-0.836-1.867-1.857v-40.363l-0.838-0.086c-5.985-0.621-10.5-5.623-10.5-11.646c0-6.023,4.515-11.025,10.5-11.648
				l0.838-0.084v-40.394c0-1.028,0.836-1.865,1.867-1.865h494.033c1.028,0,1.86,0.836,1.86,1.865v40.394l0.843,0.084
				c6,0.603,10.525,5.609,10.525,11.648c0,6.036-4.525,11.046-10.525,11.646l-0.843,0.086v40.363c0,1.021-0.832,1.857-1.86,1.857
				h-64.513l-2.134,1.864h66.646c2.058,0,3.729-1.672,3.729-3.723c0,0,0-37.29,0-38.756c6.523-1.078,11.369-6.631,11.369-13.34
				C566.04,362.528,561.194,356.972,554.67,355.899z"/>
		</g>
		<g>
			<path fill="#C5A154" d="M84.24,337.638c0.047-0.287,0.08-0.58,0.098-0.88c-1.155-0.25-2.309-0.823-3.345-1.672
				C81.923,336.228,83.052,337.101,84.24,337.638z"/>
			<path fill="#C5A154" d="M91.776,319.716c2.129,2.578,3.473,6.523,3.473,11.018c0,9.746-4.788,16.464-9.268,19.507l-1.401,0.948
				l-3.723-2.879l-0.562-0.436l-0.174,0.172l2.122,1.651l3.722,2.88l1.401-0.952c4.48-3.036,9.267-9.76,9.267-19.499
				C96.635,326.71,94.695,322.103,91.776,319.716z"/>
		</g>
		<g>
			<path fill="#F2EDC9" d="M112.812,404.311c-6.402,0-14.97-3.152-14.97-18.558v-32.547h-2.714v-4.882h2.714l6.402-13.562h4.77
				v13.562h7.922v4.882h-7.922v36.562c0,6.396,2.391,9.653,6.728,9.653c0.758,0,1.086,0,1.736-0.107v4.772
				C117.478,404.088,114.656,404.311,112.812,404.311z"/>
			<path fill="#F2EDC9" d="M161.086,368.504h-11.065v-34.282c0-6.617,2.93-9.654,5.534-9.654c2.601,0,5.531,3.037,5.531,9.654
				V368.504z M175.628,404.311v-4.888h-3.042v-58.585c0-14.862-8.463-21.044-17.031-21.044c-8.682,0-16.927,6.182-16.927,21.044
				v27.666h-3.037v4.882h3.037v26.037h-3.037v4.888h14.43v-30.925h11.065v30.925H175.628L175.628,404.311z"/>
			<path fill="#F2EDC9" d="M220.428,404.311v-44.596c0-3.901-1.736-7.266-4.338-7.266c-2.496,0-4.232,3.364-4.232,7.266v44.596
				h-10.741v-44.596c0-3.901-1.736-7.266-4.34-7.266c-2.493,0-4.229,3.364-4.229,7.266v44.596h-13.451v-4.888h2.711v-46.217h-2.711
				v-4.882h12.583v2.931l3.254-3.251c0.543-0.112,0.65-0.221,1.843-0.221c4.34,0,7.052,1.301,9.656,3.694
				c2.713-2.609,5.968-3.694,9.657-3.694c9.218,0,15.077,6.188,15.077,19.42v32.22h2.716v4.888H220.428z"/>
			<path fill="#F2EDC9" d="M259.7,381.63c0,9.762-1.63,17.249-5.531,17.249c-1.415,0-3.583-2.058-3.583-4.122v-41.551
				C254.383,354.506,259.7,364.924,259.7,381.63z M270.875,379.787c0-22.563-13.561-29.947-20.289-31.685v-27.551h-13.452v4.879
				h2.711v73.991h-2.711v4.888h12.8v-2.938l3.256,3.366c0.542,0.105,0.757,0.105,1.41,0.105
				C263.061,404.846,270.875,397.793,270.875,379.787z"/>
			<path fill="#F2EDC9" d="M295.499,359.172l-0.866-4.551c-1.958,0.971-5.971,5.53-5.971,13.554v31.248h2.713v4.888h-13.449v-51.104
				h-2.715v-4.882h12.801v4.338c2.386-2.822,5.965-4.879,9.55-4.879c1.731,0,2.815,0.221,2.815,0.221v11.168L295.499,359.172
				L295.499,359.172z"/>
			<path fill="#F2EDC9" d="M322.413,376.313c0,20.178-2.17,23.979-4.665,23.979c-2.493,0-4.661-3.803-4.661-23.979
				c0-20.18,2.168-23.974,4.661-23.974C320.243,352.341,322.413,356.135,322.413,376.313z M333.585,376.313
				c0-25.494-10.411-28.754-15.838-28.754c-5.529,0-15.838,3.26-15.838,28.754s10.309,28.753,15.838,28.753
				C323.174,405.066,333.585,401.809,333.585,376.313z"/>
			<path fill="#F2EDC9" d="M336.733,404.311l13.34-51.104h-6.615l-1.087,4.558h-4.88v-9.438h25.166l-13.556,51.099h8.242l1.083-4.56
				h4.884v9.447h-26.577V404.311z"/>
			<path fill="#F2EDC9" d="M375.569,338.015c-3.257,0-5.859-3.357-5.859-7.697c0-4.344,2.604-7.701,5.859-7.701
				c3.254,0,5.967,3.357,5.967,7.701C381.536,334.657,378.823,338.015,375.569,338.015z M370.252,404.311v-51.104h-2.711v-4.882
				h13.451v51.099h2.82v4.889h-13.561V404.311z"/>
			<path fill="#F2EDC9" d="M396.504,338.015c-3.255,0-5.854-3.357-5.854-7.697c0-4.344,2.6-7.701,5.854-7.701s5.97,3.357,5.97,7.701
				C402.474,334.657,399.759,338.015,396.504,338.015z M385.765,423.402c-1.954,0-3.364-0.224-3.364-0.224V418.3
				c0.652,0.105,1.306,0.213,2.064,0.213c3.794,0,6.727-3.58,6.727-10.737v-54.569h-2.716v-4.882h13.344v54.026
				C401.819,419.93,391.837,423.402,385.765,423.402z"/>
			<path fill="#F2EDC9" d="M429.698,404.311v-43.507c0-3.91-1.736-7.269-4.337-7.269c-2.493,0-4.23,3.356-4.23,7.269v43.507h-13.449
				v-4.888h2.707v-46.217h-2.707v-4.882h12.58v2.931l3.256-3.251c0.539-0.112,0.76-0.221,1.845-0.221
				c9.221,0,15.081,6.188,15.081,19.42v32.22h2.71v4.888H429.698z"/>
			<path fill="#F2EDC9" d="M463.656,404.311c-6.401,0-14.971-3.152-14.971-18.558v-32.547h-2.714v-4.882h2.714l6.399-13.562h4.773
				v13.562h7.92v4.882h-7.92v36.562c0,6.396,2.386,9.653,6.726,9.653c0.76,0,1.085,0,1.737-0.107v4.772
				C468.322,404.088,465.5,404.311,463.656,404.311z"/>
			<path fill="#F2EDC9" d="M479.167,338.015c-3.256,0-5.854-3.357-5.854-7.697c0-4.344,2.6-7.701,5.854-7.701
				c3.258,0,5.968,3.357,5.968,7.701C485.134,334.657,482.424,338.015,479.167,338.015z M468.425,423.402
				c-1.95,0-3.359-0.224-3.359-0.224V418.3c0.648,0.105,1.3,0.213,2.062,0.213c3.796,0,6.729-3.58,6.729-10.737v-54.569h-2.713
				v-4.882h13.345v54.026C484.486,419.93,474.502,423.402,468.425,423.402z"/>
			<path fill="#F2EDC9" d="M510.845,363.944c0,10.74-4.448,16.271-7.597,16.492c-0.108-0.758-0.215-4.453-0.215-5.53
				c0-17.144,2.169-22.565,4.556-22.565C509.652,352.341,510.845,356.356,510.845,363.944z M521.583,364.272
				c0-12.477-8.025-16.713-13.775-16.713c-6.185,0-15.947,4.236-15.947,27.994c0,23.976,10.307,29.291,18.661,29.291
				c2.492,0,4.446-0.438,5.533-0.649v-4.666c-0.651,0.106-1.953,0.328-3.69,0.328c-4.556,0-7.812-4.667-8.679-14.435
				C508.675,384.888,521.583,380,521.583,364.272z"/>
			<path fill="#F2EDC9" d="M84.674,348.312l-2.391-1.843c0,0,4.448-4.229,4.448-10.411c0-1.094-0.543-1.416-1.736-1.522
				c-2.494-0.435-5.423-3.358-5.423-7.597c0-4.987,3.254-8.029,6.184-8.029c4.016,0,7.161,5.322,7.161,11.824
				C92.917,340.608,87.71,346.247,84.674,348.312z"/>
		</g>
		<g>
			<path fill="#F2EDC9" stroke="#F2EDC9" stroke-width="2.7182" stroke-linecap="round" stroke-linejoin="round" d="
				M227.478,255.392c1.354-0.282,2.725,0.408,3.061,1.544c0.336,1.136-0.493,2.286-1.846,2.573
				c-22.411,4.666-35.788,11.118-35.788,17.271c0,11.511,47.774,24.336,116.327,24.336c68.558,0,116.332-12.825,116.332-24.336
				c0-5.518-11.855-13.417-45.141-19.025c-1.367-0.232-2.252-1.348-1.98-2.498c0.277-1.142,1.611-1.894,2.979-1.657
				c18.37,3.095,49.198,10.225,49.198,23.181c0,18.562-62.542,28.573-121.389,28.573c-58.841,0-121.384-10.01-121.384-28.573
				C187.846,265.917,209.4,259.152,227.478,255.392z"/>
			<path fill="#F2EDC9" stroke="#F2EDC9" stroke-width="2.7182" stroke-linecap="round" stroke-linejoin="round" d="
				M237.835,304.325c0.067,0.035,7.151,4.086,15.926,5.516c17.386,2.629,32.912,3.129,55.47,3.129c22.562,0,38.086-0.5,55.51-3.129
				c8.734-1.43,15.818-5.48,15.892-5.516c1.15-0.665,2.722-0.428,3.516,0.535c0.791,0.965,0.509,2.287-0.641,2.951
				c-0.324,0.187-7.99,4.596-17.838,6.195c-17.738,2.68-34.123,3.201-56.438,3.201c-22.315,0-38.694-0.521-56.401-3.193
				c-9.878-1.607-17.545-6.017-17.867-6.203c-1.15-0.666-1.436-1.986-0.642-2.951C235.112,303.896,236.685,303.66,237.835,304.325z"
				/>
			<path fill="#F2EDC9" stroke="#F2EDC9" stroke-width="2.7182" stroke-linecap="round" stroke-linejoin="round" d="
				M240.871,204.967c-0.475,1.102-1.922,1.677-3.233,1.281c-7.178-2.159-15.079-0.976-19.66,2.946
				c-3.531,3.022-4.356,7.142-2.327,11.6c5.485,12.037,23.233,18.272,23.412,18.328c1.084,0.375,1.715,1.323,1.54,2.29
				c-0.01,0.054-0.982,5.591,1.888,8.815c1.108,1.25,2.661,1.971,4.744,2.214c1.382,0.157,2.348,1.229,2.158,2.386
				c-0.189,1.158-1.468,1.973-2.847,1.809c-3.458-0.4-6.188-1.708-8.124-3.892c-2.527-2.86-3.034-6.597-3.034-9.138
				c0-0.45,0.018-0.847,0.04-1.211c-4.953-1.979-19.226-8.532-24.495-20.094c-0.949-2.085-1.422-4.157-1.422-6.152
				c0-3.729,1.651-7.173,4.855-9.924c5.936-5.081,15.974-6.681,24.978-3.97C240.657,202.653,241.339,203.867,240.871,204.967z"/>
			<path fill="#F2EDC9" stroke="#F2EDC9" stroke-width="2.7182" stroke-linecap="round" stroke-linejoin="round" d="
				M282.856,279.909c18.707,8.752,59.136-0.729,59.543-0.831c1.343-0.314,2.742,0.337,3.122,1.459
				c0.383,1.135-0.396,2.3-1.736,2.622c-1.74,0.415-42.857,10.061-63.387,0.458c-1.221-0.571-1.657-1.864-0.978-2.887
				C280.1,279.709,281.64,279.345,282.856,279.909z"/>
			<path fill="#F2EDC9" stroke="#F2EDC9" stroke-width="2.7182" stroke-linecap="round" stroke-linejoin="round" d="M251.095,228.94
				l-0.607-5.526c-1.829-12.277-6.595-20.719-6.642-20.805c-0.603-1.058-0.074-2.322,1.184-2.829
				c1.257-0.508,2.765-0.065,3.373,0.994c0.21,0.363,5.166,9.109,7.103,22.114l0.628,5.709c1.55,16.163,4.429,46.244,35.418,46.244
				c36.266,0,45.188-2.707,45.271-2.736c1.289-0.415,2.754,0.114,3.262,1.193c0.504,1.086-0.1,2.301-1.378,2.743
				c-0.364,0.123-9.297,3.036-47.154,3.036C255.897,279.079,252.658,245.211,251.095,228.94z"/>
			<path fill="#F2EDC9" stroke="#F2EDC9" stroke-width="2.7182" stroke-linecap="round" stroke-linejoin="round" d="
				M330.342,171.834c-3.508,0.212-8.317,0.497-9.308,1.025l0.058-0.039c-1.067,0.707-2.677,0.61-3.559-0.271
				c-0.876-0.879-0.812-2.148,0.219-2.908c1.829-1.358,5.455-1.632,12.235-2.034c8.538-0.509,21.443-1.273,21.265-6.083
				c-0.025-0.786-1.285-3.574-16.273-6.331c-10.706-1.965-25.211-3.379-39.243-4.745c-36.116-3.523-58.245-6.116-58.245-14.712
				c0-9.071,20.593-11.561,44.441-14.448c16.688-2.015,39.542-4.781,39.542-9.989c0-3.723-13.055-7.431-20.854-9.649
				c-9.61-2.733-15.413-4.384-15.413-7.838c0-5.27,6.717-8.014,10.733-9.654l1.678-0.704c1.244-0.521,2.823-0.121,3.446,0.921
				c0.192,0.318,0.285,0.654,0.285,0.987c0,0.75-0.479,1.464-1.35,1.833l-1.848,0.775c-3.019,1.235-7.47,3.079-7.82,5.541
				c1.321,1.1,7.388,2.833,11.91,4.119c11.383,3.24,24.288,6.91,24.288,13.669c0,8.882-20.332,11.339-43.873,14.192
				c-16.93,2.042-40.113,4.847-40.113,10.246c0,0.719,1.114,3.262,15.46,5.88c10.363,1.894,24.576,3.279,38.316,4.62
				c36.978,3.601,59.656,6.262,59.989,15.154c0,0.096,0.003,0.189,0.003,0.283C356.311,170.295,341.322,171.184,330.342,171.834z"/>
			<path fill="#F2EDC9" stroke="#F2EDC9" stroke-width="2.7182" stroke-linecap="round" stroke-linejoin="round" d="
				M383.413,189.491c0-11.444-46.852-14.462-71.623-14.462c-24.778,0-71.626,3.018-71.626,14.462
				c0,11.441,46.849,14.466,71.626,14.466C336.562,203.957,383.413,200.932,383.413,189.491z M378.358,189.491
				c0,1.072-2.256,2.461-6.627,3.867c-8.894-6.61-36.005-9.587-59.941-9.587c-23.942,0-51.054,2.977-59.946,9.587
				c-4.377-1.406-6.628-2.794-6.628-3.867c0-3.473,23.498-10.225,66.575-10.225C354.865,179.267,378.358,186.019,378.358,189.491z"
				/>
			<path fill="#F2EDC9" stroke="#F2EDC9" stroke-width="2.7182" stroke-linecap="round" stroke-linejoin="round" d="
				M273.472,288.111c-15.73-1.73-34.483-5.302-34.483-12.439c0-3.637,4.591-6.581,14.035-8.996c1.335-0.336,2.746,0.293,3.153,1.414
				c0.408,1.121-0.346,2.301-1.683,2.644c-8.263,2.115-10.45,4.151-10.45,4.938c0,1.601,7.354,5.737,30.089,8.238
				c1.384,0.151,2.359,1.222,2.177,2.38C276.127,287.447,274.859,288.269,273.472,288.111z"/>
			<path fill="#F2EDC9" stroke="#F2EDC9" stroke-width="2.7182" stroke-linecap="round" stroke-linejoin="round" d="
				M363.639,270.649c-1.336-0.33-2.093-1.509-1.696-2.637c0.399-1.115,1.809-1.759,3.144-1.422
				c9.684,2.429,14.393,5.394,14.393,9.082c0,5.044-9.243,8.931-27.468,11.554c-1.373,0.2-2.681-0.572-2.914-1.729
				c-0.236-1.15,0.685-2.25,2.063-2.45c18.989-2.729,23.265-6.332,23.265-7.374C374.424,274.871,372.17,272.791,363.639,270.649z"/>
		</g>
		<g>
			<path fill="#F2EDC9" stroke="#F2EDC9" stroke-width="2.7182" stroke-linecap="round" stroke-linejoin="round" d="
				M230.807,258.537c1.355-0.283,2.727,0.407,3.062,1.542c0.335,1.137-0.493,2.288-1.844,2.573
				c-22.411,4.666-35.792,11.119-35.792,17.271c0,11.511,47.775,24.336,116.333,24.336c68.557,0,116.327-12.826,116.327-24.336
				c0-5.516-11.855-13.412-45.14-19.021c-1.368-0.236-2.251-1.351-1.979-2.501c0.274-1.142,1.609-1.893,2.977-1.659
				c18.373,3.095,49.2,10.227,49.2,23.181c0,18.557-62.545,28.574-121.386,28.574c-58.848,0-121.387-10.017-121.387-28.574
				C191.178,269.062,212.732,262.298,230.807,258.537z"/>
			<path fill="#F2EDC9" stroke="#F2EDC9" stroke-width="2.7182" stroke-linecap="round" stroke-linejoin="round" d="
				M241.164,307.468c0.071,0.042,7.153,4.088,15.926,5.516c17.385,2.631,32.913,3.129,55.476,3.129
				c22.56,0,38.088-0.498,55.504-3.135c8.739-1.422,15.823-5.467,15.892-5.51c1.154-0.664,2.727-0.429,3.516,0.535
				c0.793,0.965,0.508,2.288-0.64,2.952c-0.32,0.187-7.988,4.594-17.838,6.196c-17.735,2.679-34.119,3.199-56.434,3.199
				c-22.315,0-38.697-0.521-56.402-3.192c-9.883-1.609-17.55-6.017-17.871-6.203c-1.15-0.664-1.437-1.987-0.643-2.952
				C238.442,307.04,240.014,306.806,241.164,307.468z"/>
			<path fill="#F2EDC9" stroke="#F2EDC9" stroke-width="2.7182" stroke-linecap="round" stroke-linejoin="round" d="
				M244.201,208.112c-0.471,1.104-1.921,1.681-3.229,1.279c-7.182-2.158-15.084-0.975-19.665,2.948
				c-3.529,3.025-4.351,7.142-2.322,11.6c5.483,12.041,23.229,18.271,23.412,18.329c1.079,0.375,1.715,1.324,1.54,2.29
				c-0.014,0.054-0.986,5.591,1.886,8.813c1.104,1.251,2.658,1.973,4.741,2.215c1.384,0.157,2.348,1.229,2.159,2.387
				c-0.189,1.161-1.465,1.971-2.848,1.808c-3.458-0.399-6.188-1.708-8.125-3.89c-2.522-2.863-3.033-6.6-3.033-9.135
				c0-0.456,0.018-0.851,0.04-1.216c-4.954-1.979-19.226-8.53-24.491-20.088c-0.954-2.091-1.425-4.163-1.425-6.155
				c0-3.731,1.649-7.175,4.857-9.926c5.935-5.08,15.974-6.68,24.974-3.966C243.987,205.797,244.668,207.012,244.201,208.112z"/>
			<path fill="#F2EDC9" stroke="#F2EDC9" stroke-width="2.7182" stroke-linecap="round" stroke-linejoin="round" d="
				M286.188,283.052c18.706,8.754,59.141-0.728,59.545-0.829c1.34-0.314,2.738,0.335,3.118,1.465
				c0.386,1.129-0.396,2.293-1.735,2.615c-1.74,0.415-42.857,10.061-63.386,0.458c-1.222-0.572-1.659-1.866-0.979-2.887
				C283.433,282.852,284.969,282.488,286.188,283.052z"/>
			<path fill="#F2EDC9" stroke="#F2EDC9" stroke-width="2.7182" stroke-linecap="round" stroke-linejoin="round" d="
				M254.427,232.084l-0.608-5.526c-1.826-12.275-6.596-20.718-6.641-20.803c-0.604-1.059-0.072-2.319,1.182-2.831
				c1.261-0.507,2.766-0.064,3.373,0.993c0.21,0.365,5.166,9.111,7.103,22.115l0.628,5.709c1.55,16.163,4.438,46.245,35.424,46.245
				c36.26,0,45.183-2.709,45.266-2.738c1.289-0.414,2.754,0.115,3.262,1.193c0.507,1.086-0.1,2.301-1.379,2.745
				c-0.365,0.12-9.297,3.036-47.149,3.036C259.231,282.224,255.99,248.355,254.427,232.084z"/>
			<path fill="#F2EDC9" stroke="#F2EDC9" stroke-width="2.7182" stroke-linecap="round" stroke-linejoin="round" d="
				M333.671,174.979c-3.509,0.214-8.318,0.496-9.306,1.022l0.061-0.037c-1.072,0.711-2.682,0.607-3.555-0.271
				c-0.885-0.879-0.815-2.146,0.213-2.908c1.83-1.358,5.452-1.629,12.234-2.033c8.537-0.508,21.441-1.275,21.264-6.084
				c-0.024-0.787-1.287-3.572-16.273-6.323c-10.708-1.973-25.212-3.387-39.239-4.751c-36.116-3.523-58.25-6.117-58.25-14.713
				c0-9.071,20.594-11.561,44.441-14.448c16.688-2.014,39.544-4.779,39.544-9.984c0-3.723-13.055-7.436-20.854-9.657
				c-9.612-2.73-15.41-4.381-15.41-7.835c0-5.271,6.72-8.014,10.728-9.651l1.68-0.707c1.243-0.522,2.821-0.125,3.444,0.921
				c0.19,0.322,0.285,0.654,0.285,0.987c0,0.75-0.479,1.467-1.349,1.833l-1.85,0.775c-3.019,1.237-7.47,3.08-7.821,5.541
				c1.326,1.104,7.388,2.833,11.91,4.12c11.388,3.244,24.289,6.91,24.289,13.673c0,8.878-20.332,11.337-43.874,14.187
				c-16.931,2.048-40.114,4.848-40.114,10.246c0,0.719,1.115,3.262,15.462,5.882c10.36,1.894,24.573,3.279,38.313,4.621
				c36.979,3.604,59.658,6.261,59.989,15.153c0.004,0.096,0.004,0.189,0.004,0.282C359.641,173.44,344.651,174.329,333.671,174.979z
				"/>
			<path fill="#F2EDC9" stroke="#F2EDC9" stroke-width="2.7182" stroke-linecap="round" stroke-linejoin="round" d="
				M386.743,192.635c0-11.44-46.852-14.462-71.624-14.462c-24.773,0-71.625,3.022-71.625,14.462
				c0,11.442,46.852,14.465,71.625,14.465C339.892,207.1,386.743,204.078,386.743,192.635z M381.688,192.635
				c0,1.072-2.25,2.462-6.623,3.866c-8.896-6.61-36.006-9.582-59.945-9.582c-23.937,0-51.051,2.972-59.946,9.582
				c-4.375-1.404-6.626-2.794-6.626-3.866c0-3.466,23.5-10.226,66.573-10.226C358.194,182.41,381.688,189.169,381.688,192.635z"/>
			<path fill="#F2EDC9" stroke="#F2EDC9" stroke-width="2.7182" stroke-linecap="round" stroke-linejoin="round" d="
				M276.806,291.255c-15.734-1.729-34.483-5.301-34.483-12.44c0-3.636,4.586-6.581,14.033-8.988
				c1.333-0.343,2.743,0.285,3.151,1.408c0.407,1.121-0.343,2.299-1.679,2.643c-8.269,2.114-10.454,4.151-10.454,4.937
				c0,1.601,7.352,5.738,30.089,8.239c1.386,0.15,2.357,1.215,2.179,2.379C279.459,290.591,278.188,291.412,276.806,291.255z"/>
			<path fill="#F2EDC9" stroke="#F2EDC9" stroke-width="2.7182" stroke-linecap="round" stroke-linejoin="round" d="M366.969,273.8
				c-1.336-0.336-2.094-1.516-1.693-2.644c0.4-1.122,1.806-1.758,3.146-1.422c9.68,2.429,14.387,5.395,14.387,9.081
				c0,5.044-9.237,8.932-27.463,11.555c-1.377,0.2-2.684-0.572-2.92-1.73c-0.231-1.15,0.693-2.25,2.065-2.45
				c18.988-2.73,23.265-6.331,23.265-7.375C377.754,278.015,375.5,275.936,366.969,273.8z"/>
		</g>
		<g>
			<path d="M227.478,255.392c1.354-0.282,2.725,0.408,3.061,1.544c0.336,1.136-0.493,2.286-1.846,2.573
				c-22.411,4.666-35.788,11.118-35.788,17.271c0,11.511,47.774,24.336,116.327,24.336c68.558,0,116.332-12.825,116.332-24.336
				c0-5.518-11.855-13.417-45.141-19.025c-1.367-0.232-2.252-1.348-1.98-2.498c0.277-1.142,1.611-1.894,2.979-1.657
				c18.37,3.095,49.198,10.225,49.198,23.181c0,18.562-62.542,28.573-121.389,28.573c-58.841,0-121.384-10.01-121.384-28.573
				C187.846,265.917,209.4,259.152,227.478,255.392z"/>
			<path d="M237.835,304.325c0.067,0.035,7.151,4.086,15.926,5.516c17.386,2.629,32.912,3.129,55.47,3.129
				c22.562,0,38.086-0.5,55.51-3.129c8.734-1.43,15.818-5.48,15.892-5.516c1.15-0.665,2.722-0.428,3.516,0.535
				c0.791,0.965,0.509,2.287-0.641,2.951c-0.324,0.187-7.99,4.596-17.838,6.195c-17.738,2.68-34.123,3.201-56.438,3.201
				c-22.315,0-38.694-0.521-56.401-3.193c-9.878-1.607-17.545-6.017-17.867-6.203c-1.15-0.666-1.436-1.986-0.642-2.951
				C235.112,303.896,236.685,303.66,237.835,304.325z"/>
			<path d="M240.871,204.967c-0.475,1.102-1.922,1.677-3.233,1.281c-7.178-2.159-15.079-0.976-19.66,2.946
				c-3.531,3.022-4.356,7.142-2.327,11.6c5.485,12.037,23.233,18.272,23.412,18.328c1.084,0.375,1.715,1.323,1.54,2.29
				c-0.01,0.054-0.982,5.591,1.888,8.815c1.108,1.25,2.661,1.971,4.744,2.214c1.382,0.157,2.348,1.229,2.158,2.386
				c-0.189,1.158-1.468,1.973-2.847,1.809c-3.458-0.4-6.188-1.708-8.124-3.892c-2.527-2.86-3.034-6.597-3.034-9.138
				c0-0.45,0.018-0.847,0.04-1.211c-4.953-1.979-19.226-8.532-24.495-20.094c-0.949-2.085-1.422-4.157-1.422-6.152
				c0-3.729,1.651-7.173,4.855-9.924c5.936-5.081,15.974-6.681,24.978-3.97C240.657,202.653,241.339,203.867,240.871,204.967z"/>
			<path d="M282.856,279.909c18.707,8.752,59.136-0.729,59.543-0.831c1.343-0.314,2.742,0.337,3.122,1.459
				c0.383,1.135-0.396,2.3-1.736,2.622c-1.74,0.415-42.857,10.061-63.387,0.458c-1.221-0.571-1.657-1.864-0.978-2.887
				C280.1,279.709,281.64,279.345,282.856,279.909z"/>
			<path d="M251.095,228.94l-0.607-5.526c-1.829-12.277-6.595-20.719-6.642-20.805c-0.603-1.058-0.074-2.322,1.184-2.829
				c1.257-0.508,2.765-0.065,3.373,0.994c0.21,0.363,5.166,9.109,7.103,22.114l0.628,5.709c1.55,16.163,4.429,46.244,35.418,46.244
				c36.266,0,45.188-2.707,45.271-2.736c1.289-0.415,2.754,0.114,3.262,1.193c0.504,1.086-0.1,2.301-1.378,2.743
				c-0.364,0.123-9.297,3.036-47.154,3.036C255.897,279.079,252.658,245.211,251.095,228.94z"/>
			<path d="M330.342,171.834c-3.508,0.212-8.317,0.497-9.308,1.025l0.058-0.039c-1.067,0.707-2.677,0.61-3.559-0.271
				c-0.876-0.879-0.812-2.148,0.219-2.908c1.829-1.358,5.455-1.632,12.235-2.034c8.538-0.509,21.443-1.273,21.265-6.083
				c-0.025-0.786-1.285-3.574-16.273-6.331c-10.706-1.965-25.211-3.379-39.243-4.745c-36.116-3.523-58.245-6.116-58.245-14.712
				c0-9.071,20.593-11.561,44.441-14.448c16.688-2.015,39.542-4.781,39.542-9.989c0-3.723-13.055-7.431-20.854-9.649
				c-9.61-2.733-15.413-4.384-15.413-7.838c0-5.27,6.717-8.014,10.733-9.654l1.678-0.704c1.244-0.521,2.823-0.121,3.446,0.921
				c0.192,0.318,0.285,0.654,0.285,0.987c0,0.75-0.479,1.464-1.35,1.833l-1.848,0.775c-3.019,1.235-7.47,3.079-7.82,5.541
				c1.321,1.1,7.388,2.833,11.91,4.119c11.383,3.24,24.288,6.91,24.288,13.669c0,8.882-20.332,11.339-43.873,14.192
				c-16.93,2.042-40.113,4.847-40.113,10.246c0,0.719,1.114,3.262,15.46,5.88c10.363,1.894,24.576,3.279,38.316,4.62
				c36.978,3.601,59.656,6.262,59.989,15.154c0,0.096,0.003,0.189,0.003,0.283C356.311,170.295,341.322,171.184,330.342,171.834z"/>
			<path d="M383.413,189.491c0-11.444-46.852-14.462-71.623-14.462c-24.778,0-71.626,3.018-71.626,14.462
				c0,11.441,46.849,14.466,71.626,14.466C336.562,203.957,383.413,200.932,383.413,189.491z M378.358,189.491
				c0,1.072-2.256,2.461-6.627,3.867c-8.894-6.61-36.005-9.587-59.941-9.587c-23.942,0-51.054,2.977-59.946,9.587
				c-4.377-1.406-6.628-2.794-6.628-3.867c0-3.473,23.498-10.225,66.575-10.225C354.865,179.267,378.358,186.019,378.358,189.491z"
				/>
			<path d="M273.472,288.111c-15.73-1.73-34.483-5.302-34.483-12.439c0-3.637,4.591-6.581,14.035-8.996
				c1.335-0.336,2.746,0.293,3.153,1.414c0.408,1.121-0.346,2.301-1.683,2.644c-8.263,2.115-10.45,4.151-10.45,4.938
				c0,1.601,7.354,5.737,30.089,8.238c1.384,0.151,2.359,1.222,2.177,2.38C276.127,287.447,274.859,288.269,273.472,288.111z"/>
			<path d="M363.639,270.649c-1.336-0.33-2.093-1.509-1.696-2.637c0.399-1.115,1.809-1.759,3.144-1.422
				c9.684,2.429,14.393,5.394,14.393,9.082c0,5.044-9.243,8.931-27.468,11.554c-1.373,0.2-2.681-0.572-2.914-1.729
				c-0.236-1.15,0.685-2.25,2.063-2.45c18.989-2.729,23.265-6.332,23.265-7.374C374.424,274.871,372.17,272.791,363.639,270.649z"/>
		</g>
	</g>
</g>
</svg>
