<?xml version="1.0" encoding="utf-8"?>
<!-- Generator: Adobe Illustrator 16.0.0, SVG Export Plug-In . SVG Version: 6.00 Build 0)  -->
<!DOCTYPE svg PUBLIC "-//W3C//DTD SVG 1.1//EN" "http://www.w3.org/Graphics/SVG/1.1/DTD/svg11.dtd">
<svg version="1.1" id="Layer_1" xmlns="http://www.w3.org/2000/svg" xmlns:xlink="http://www.w3.org/1999/xlink" x="0px" y="0px"
	 width="175.75px" height="65.042px" viewBox="271.504 327.857 175.75 65.042"
	 enable-background="new 271.504 327.857 175.75 65.042" xml:space="preserve">
<g>
	<path d="M409.979,368.234c-0.065,0.85,0.067,1.92,0.671,2.567c0.714,0.691,1.964,1.025,3.169,1.025
		c1.272,0.045,2.3-0.289,3.103-0.869c0.737-0.67,1.05-1.651,1.05-2.635l0.156-25.825c0-0.959-0.625-1.875-1.206-2.522
		c-0.736-0.625-1.785-0.915-2.968-0.871c-1.116,0-2.434,0.402-3.17,1.049c-0.736,0.669-0.736,1.674-0.736,2.522L409.979,368.234
		L409.979,368.234L409.979,368.234z M309.828,337.857c2.745-4.174,4.062-8.794,2.521-9.776c-1.429-1.004-5.804,1.451-8.571,5.603
		c-2.723,4.174-3.839,9.106-2.388,10.134C302.931,344.799,307.083,342.008,309.828,337.857L309.828,337.857L309.828,337.857z
		 M314.359,341.629c-5.044,0-10.379,3.973-12.901,3.973c-2.5,0-6.964-3.661-12.946-3.661c-5.959,0-17.008,7.054-17.008,19.15
		c0,12.166,8.214,31.808,16.852,31.808c6.138,0,3.772-2.521,11.183-2.521c7.41,0,5.223,2.076,12.298,2.076
		c7.076,0,12.879-9.018,14.017-13.258c1.14-4.197,1.14-5.336,1.14-5.336s-8.214-4.107-8.214-13.012
		c0-9.309,5.691-12.144,5.691-12.144s0-2.053-1.786-3.571C320.966,343.526,317.863,341.629,314.359,341.629L314.359,341.629
		L314.359,341.629z M349,370.4c0-4.084,0-18.861,0-20.603c0-1.719-0.938-2.031-2.299-2.031c-1.474,0-8.438,0-12.522,0
		s-13.348,2.656-13.348,12.299c0,10.803,8.638,13.191,15.602,13.191c3.438,0,3.305-7.276,0-7.276c-3.638,0-6.808-0.469-6.808-5.915
		c0-4.107,3.303-5.224,7.254-5.224c3.906,0,4.129,0.647,4.129,2.701c0,2.075,0,8.905,0,12.564C341.01,374.195,349,374.307,349,370.4
		L349,370.4L349,370.4z M351.367,377.363c0-4.105,0-25.623,0-27.409c0-1.719,0.915-2.053,2.388-2.053c1.384,0,8.303,0,12.41,0
		c4.084,0,13.414,2.701,13.414,12.298c0,10.826-8.66,13.191-15.603,13.191c-3.505,0-3.304-7.188,0-7.188
		c3.571,0,6.764-0.535,6.764-6.004c0-4.084-3.325-5.155-7.231-5.155c-3.973,0-4.085,0.603-4.085,2.634c0,2.053,0,15.713,0,19.33
		C359.424,381.137,351.367,381.248,351.367,377.363L351.367,377.363L351.367,377.363z M380.852,377.363c0-4.105,0-25.623,0-27.409
		c0-1.719,0.915-2.053,2.3-2.053c1.45,0,8.393,0,12.478,0c4.129,0,13.37,2.701,13.37,12.298c0,10.826-8.661,13.191-15.625,13.191
		c-3.438,0-3.281-7.188,0-7.188c3.661,0,6.83-0.535,6.83-6.004c0-4.084-3.303-5.155-7.276-5.155c-3.904,0-4.084,0.603-4.084,2.634
		c0,2.053,0,15.713,0,19.33C388.843,381.137,380.852,381.248,380.852,377.363L380.852,377.363L380.852,377.363z M434.979,361.428
		c-0.469,0.803-1.384,2.521,1.005,2.521c3.28,0,4.22,0,5.021,0c0.781,0,1.719-1.25,2.857-3.102c1.025-1.921,3.103-5.202,3.103-5.202
		s0-5.379,0-6.495c0-1.072-0.469-1.384-2.856-1.384c-2.321,0-8.684,0-11.965,0c-3.324,0-12.453,3.638-12.453,12.299
		c0,8.616,5.379,13.325,11.828,13.325c6.496,0,11.071,0,13.729,0c2.701,0,2.701-7.074-0.156-7.074c-2.835,0-10.11,0-12.143,0
		c-2.075,0-4.934-2.166-4.934-6.006c0-3.749,2.857-5.133,5.245-5.133c2.39,0,5.491-0.491,4.107,2.031
		C435.982,359.731,435.112,361.316,434.979,361.428L434.979,361.428z"/>
</g>
</svg>
