<?xml version="1.0" encoding="utf-8"?>
<!-- Generator: Adobe Illustrator 16.0.0, SVG Export Plug-In . SVG Version: 6.00 Build 0)  -->
<!DOCTYPE svg PUBLIC "-//W3C//DTD SVG 1.1//EN" "http://www.w3.org/Graphics/SVG/1.1/DTD/svg11.dtd">
<svg version="1.1" id="Layer_1" xmlns="http://www.w3.org/2000/svg" xmlns:xlink="http://www.w3.org/1999/xlink" x="0px" y="0px"
	 width="150.408px" height="160.241px" viewBox="21.174 16.257 150.408 160.241"
	 enable-background="new 21.174 16.257 150.408 160.241" xml:space="preserve">
<g>
	<path d="M21.174,23.831c0-4.183,3.39-7.573,7.573-7.573H164.01c4.183,0,7.572,3.39,7.572,7.573v145.094
		c0,4.184-3.392,7.573-7.572,7.573H28.747c-4.183,0-7.573-3.392-7.573-7.573V23.831L21.174,23.831z"/>
	<path fill="#C6161D" d="M124.429,176.498V16.257h39.581c4.183,0,7.572,3.39,7.572,7.573v145.094c0,4.183-3.392,7.573-7.572,7.573
		L124.429,176.498L124.429,176.498z"/>
	<path fill="#FFFFFF" d="M118.799,32.46c-10.548,1.655-20.627,5.013-27.833,10.985C79.503,52.95,77.619,68.201,78.394,81.079
		c0.865,14.391,7.965,28.234,14.222,41.965c6.718,14.741,10.6,29.299,7.393,44.312c0.113-0.525,3.336-0.502,3.455-1.062
		c2.662-12.478,0.609-24.743-4.324-37.2c-4.615-11.637-10.949-22.898-14.574-34.715C77.575,71.607,81,38.916,115.347,33.521
		C116.562,33.33,117.592,32.647,118.799,32.46L118.799,32.46z"/>
	<path fill="#FFFFFF" d="M81.021,39.752c-5.652,1.3-11.361,2.951-16.056,5.602c-11.33,6.395-10.958,19.045-8.778,29.178
		c2.056,9.542,6.99,18.775,10.461,28.124c4.636,12.483,6.011,25.069,4.94,37.657c0.041-0.457,3.413-0.565,3.454-1.062
		c0.883-10.381,0.146-20.719-2.789-31.122c-2.31-8.201-6.17-16.167-9.324-24.235c-6.12-15.638-9.241-37.584,14.636-43.082
		C78.759,40.54,79.832,40.024,81.021,39.752L81.021,39.752z"/>
	<path fill="#FFFFFF" d="M30.264,28.277c1.718,6.446,6.027,10.66,14.073,13.382c0.856,0.291,2.636-1.339,3.454-1.061
		c-8.049-2.723-12.357-6.938-14.073-13.382C33.775,27.431,30.195,28.019,30.264,28.277L30.264,28.277z"/>
	<path fill="#FFFFFF" d="M55.587,32.452c-5.442,3.879-9.959,5.298-10.991,11.61c-1.39,8.514,3.371,17.205,4.141,25.756
		c-0.03-0.342,3.489-0.678,3.454-1.061c-0.724-8.043-4.373-15.838-4.286-23.896c0.08-7.426,5.032-9.121,11.137-13.471
		C58.203,31.986,56.437,31.846,55.587,32.452L55.587,32.452z"/>
	<path fill="#FFFFFF" d="M146.806,159.136v-2.279h-10.763c-4.19,0-6.667,2.451-6.667,5.957s2.477,5.957,6.667,5.957h10.763v-2.28
		h-10.713c-3.039,0-4.609-1.349-4.609-3.677c0-2.33,1.57-3.678,4.609-3.678h0.686v6.667h2.158v-6.667H146.806L146.806,159.136z
		 M146.806,148.728v-2.256h-11.498c-2.427,0-3.824-1.349-3.824-3.31c0-1.888,1.227-3.113,2.869-3.113
		c1.765,0,2.867,1.226,2.867,3.507v2.01h2.084v-2.599c0-2.624,1.055-3.235,3.701-3.235h3.801v-2.256h-4.658
		c-2.377,0-3.701,0.735-4.191,2.549c-0.833-1.52-2.132-2.304-3.75-2.304c-2.646,0-4.829,2.255-4.829,5.417
		c0,3.383,2.328,5.59,6.447,5.59H146.806L146.806,148.728z M146.806,126.797v-2.278h-15.027v-4.39h-2.107v11.058h2.107v-4.39
		H146.806L146.806,126.797z M146.806,112.735v-2.279H129.67v2.279H146.806L146.806,112.735z M137.022,93.552h2.158v-5.785
		c3.529,0.466,5.76,2.966,5.76,6.226c0,1.692-0.711,3.31-1.961,4.486c-1.299,1.226-2.965,1.888-4.779,1.888
		c-2.428,0-4.535-1.152-5.785-3.113c-0.639-0.98-0.956-2.158-0.956-3.432c0-1.985,0.834-3.677,2.55-5.369l-1.544-1.52
		c-2.084,2.059-3.089,4.216-3.089,6.814c0,2.525,0.906,4.73,2.573,6.374c1.69,1.667,3.897,2.573,6.274,2.573
		c2.379,0,4.586-0.906,6.275-2.573c1.667-1.644,2.604-3.8,2.604-6.129c0-3.333-1.77-6.153-4.687-7.648
		c-1.373-0.686-2.94-1.005-4.806-1.005h-0.588V93.552L137.022,93.552z M146.806,77.555v-2.28H129.67v2.28H146.806L146.806,77.555z
		 M146.806,57.268v-2.28h-10.763c-4.19,0-6.667,2.452-6.667,5.957c0,3.505,2.477,5.957,6.667,5.957h10.763v-2.28h-10.713
		c-3.039,0-4.609-1.348-4.609-3.677c0-2.329,1.57-3.677,4.609-3.677h0.686v6.667h2.158v-6.667H146.806L146.806,57.268z
		 M146.806,44.53h-14.391l12.919-6.202c1.151-0.539,1.72-1.25,1.72-2.133c0-1.103-0.887-1.814-2.504-1.814h-14.88v2.182h14.34
		L131.19,42.74c-1.151,0.564-1.717,1.226-1.717,2.083c0,1.177,0.858,1.863,2.502,1.863h14.83V44.53L146.806,44.53z M146.806,25.836
		v-2.28H129.67v2.28H146.806L146.806,25.836z"/>
	<path fill="#FFFFFF" d="M162.013,167.862h1.043v-0.098c0-1.166-0.209-2.084-0.576-2.709c-0.821-1.397-2.158-2.171-3.715-2.171
		c-1.568,0-2.844,0.735-3.677,2.108c-0.429,0.711-0.601,1.667-0.601,2.917v1.471h8.566v-1.128h-7.551
		c-0.012-0.184-0.023-0.367-0.023-0.539c0-2.292,1.299-3.664,3.271-3.664c1.913,0,3.273,1.348,3.273,3.529
		C162.024,167.666,162.013,167.765,162.013,167.862L162.013,167.862z M155.504,153.212h-1.017v0.331
		c0,1.263,0.195,2.229,0.601,2.894c0.833,1.371,2.108,2.107,3.677,2.107c1.569,0,2.855-0.736,3.689-2.107
		c0.404-0.662,0.602-1.631,0.602-2.894v-0.331h-1.043c0.014,0.146,0.014,0.294,0.014,0.43c0,2.182-0.98,3.443-2.881,3.727v-4.155
		h-1.018v4.095c-1.753-0.355-2.636-1.595-2.636-3.715C155.492,153.47,155.492,153.347,155.504,153.212L155.504,153.212z
		 M154.487,148.478h5.576c2.011,0,2.99-1.006,2.99-3.039v-1.36H162v1.557c0,1.091-0.625,1.704-1.753,1.704h-5.762v1.139H154.487z
		 M154.487,139.856h5.576c2.011,0,2.99-1.006,2.99-3.039v-1.36H162v1.558c0,1.09-0.625,1.702-1.753,1.702h-5.762v1.14H154.487z
		 M163.056,126.42v-1.14h-5.382c-2.096,0-3.334,1.226-3.334,2.979c0,1.754,1.238,2.979,3.334,2.979h5.382v-1.141h-5.356
		c-1.521,0-2.304-0.674-2.304-1.838c0-1.165,0.783-1.839,2.304-1.839h0.344v3.334h1.078v-3.334H163.056L163.056,126.42z"/>
	<path fill="#FFFFFF" d="M163.054,114.997v-1.955h-9.965c-2.124,0-3.335-1.104-3.335-2.891c0-1.528,0.998-2.592,2.399-2.592
		c1.318,0,2.252,1.084,2.252,2.996v1.742h1.785v-2.465c0-1.807,0.978-2.891,2.465-2.891c1.529,0,2.527,1.062,2.527,2.891v2.465
		h1.869v-2.443c0-3.103-1.869-4.992-4.354-4.992c-1.615,0-2.953,0.871-3.612,2.38c-0.765-1.126-1.784-1.679-3.038-1.679
		c-2.23,0-4.1,1.955-4.1,4.652c0,2.91,2.039,4.78,5.672,4.78L163.054,114.997L163.054,114.997z M148.203,95.954v1.975h9.325
		c3.634,0,5.783-2.124,5.783-5.162s-2.149-5.163-5.783-5.163h-9.325v1.976h9.241c2.635,0,3.994,1.168,3.994,3.187
		s-1.359,3.187-3.994,3.187H148.203L148.203,95.954z M163.054,80.097v-1.954h-6.502v-5.418h-1.826v5.418h-1.658
		c-1.953,0-3.037-1.062-3.037-2.954v-2.464h-1.826v2.125c0,3.527,1.678,5.248,5.162,5.248L163.054,80.097L163.054,80.097z
		 M163.054,57.527v-1.976h-9.326c-3.634,0-5.778,2.125-5.778,5.163s2.146,5.162,5.778,5.162h9.326v-1.975h-9.283
		c-2.636,0-3.996-1.168-3.996-3.187c0-2.018,1.36-3.187,3.996-3.187h0.594v5.778h1.869v-5.778H163.054L163.054,57.527z
		 M148.203,48.044h9.666c3.483,0,5.185-1.742,5.185-5.269v-2.358h-1.828v2.698c0,1.891-1.082,2.953-3.037,2.953h-9.984
		L148.203,48.044L148.203,48.044z M163.054,25.814v-1.976h-9.326c-3.634,0-5.778,2.125-5.778,5.163s2.146,5.163,5.778,5.163h9.326
		v-1.976h-9.283c-2.636,0-3.996-1.168-3.996-3.187s1.36-3.187,3.996-3.187h0.594v5.778h1.869v-5.778H163.054L163.054,25.814z"/>
</g>
</svg>
