<?xml version="1.0" encoding="utf-8"?>
<!-- Generator: Adobe Illustrator 16.0.0, SVG Export Plug-In . SVG Version: 6.00 Build 0)  -->
<!DOCTYPE svg PUBLIC "-//W3C//DTD SVG 1.1//EN" "http://www.w3.org/Graphics/SVG/1.1/DTD/svg11.dtd">
<svg version="1.1" id="Layer_1" xmlns="http://www.w3.org/2000/svg" xmlns:xlink="http://www.w3.org/1999/xlink" x="0px" y="0px"
	 width="192.756px" height="192.756px" viewBox="0 0 192.756 192.756" enable-background="new 0 0 192.756 192.756"
	 xml:space="preserve">
<g>
	<polygon fill-rule="evenodd" clip-rule="evenodd" fill="#A6CE39" points="0,0 192.756,0 192.756,192.756 0,192.756 0,0 	"/>
	<path fill-rule="evenodd" clip-rule="evenodd" fill="#692B2B" d="M159.7,112.426c1.562,8.705,14.329,3.438,14.508-4.375
		c0.089-2.99-4.241-5.981-8.259-0.714c0.446-5.981,12.99-7.276,12.455,0.268c-0.536,7.946-14.955,19.91-23.659,8.259
		c-2.366,2.901-7.634,5.268-12.901,4.464c-6.026-0.893-10.803-8.169-4.955-17.187C148.004,89.392,163.494,95.284,159.7,112.426
		L159.7,112.426z M54.305,81.58c4.598,12.723,10.088,23.213,12.544,25.936c0.982,2.276,4.732,1.205,5.937-1.026
		c-4.821-9.018-13.035-26.517-17.053-37.186c-0.625-1.696-2.232-2.009-3.125,0.179c-3.929,15.043-9.731,35.979-22.677,46.068
		c-12.767,9.955-27.052-7.053-6.16-13.437c5.401-0.893,4.821-7.143-1.696-6.071c-8.482,3.17-13.258,13.437-9.151,19.508
		c8.705,12.812,26.65-0.938,36.56-17.678c3.884,0.536,5.759,6.651,8.393,3.393c2.053-2.544,1.964-4.151,1.429-5.133
		c-0.938-1.697-5.357-1.607-9.151,0.268C52.43,91.445,53.903,86.312,54.305,81.58L54.305,81.58z M81.49,106.667
		c-0.759-0.938-10.445-31.203-16.249-20.266c2.991,5.625,6.473,12.856,9.643,20.132c1.919,4.33,3.705,8.705,5.178,12.723
		c0.625,1.651,2.232,1.964,3.125-0.224c0.759-2.812,1.473-5.803,2.276-8.838c3.393-13.169,7.901-27.632,18.392-35.847
		c12.767-9.955,26.605,5.134,5.714,11.518c-5.401,0.893-4.821,7.142,1.696,6.071c7.768-2.902,17.9-12.857,8.66-20.088
		c-3.215-2.544-6.964-3.214-10.401-2.857c-6.428,0.759-12.901,5.803-17.99,12.678C86.133,88.99,82.205,98.364,81.49,106.667
		L81.49,106.667z M115.997,98.588c-1.785-3.393-12.098-5.67-16.428-2.589c-7.901,5.58-5.714,15.625-0.58,21.16
		c9.643,10.445,32.052-11.294,17.767-8.438c-1.83,5.491-5.981,5.982-9.731,5.804c-5.848-0.224-7.901-5.089-6.919-9.42
		c0.491-2.276,1.026-3.839,2.276-4.776c5.491-3.973,14.776,2.455,1.071,2.545C99.257,112.024,119.568,105.373,115.997,98.588
		L115.997,98.588z M125.327,116.176l0.134-43.033c0.804-6.116,11.249-6.696,5.401,1.116c-1.294,4.821-0.804,27.052,0.625,42.587
		c0.312,3.438-1.25,3.839-2.589,3.705c-1.027-0.09-1.696-0.224-2.545-1.429C125.729,118.273,125.327,117.202,125.327,116.176
		L125.327,116.176z M147.2,73.143c-0.58-2.143-4.821-3.572-7.633-2.098c-5.045,2.678-5.134,8.883-3.17,12.543
		c2.545,4.821,10.759,1.116,12.901-1.473c0.58,0.402,1.25,0.625,1.92,0.67c2.276,0.178,4.33-0.938,5.178-2.232
		c1.651,3.304,4.106,4.286,5.893,3.839c0.09,2.589-0.134,6.339-1.205,8.125c-1.429,2.366,1.562,3.393,2.812,0.089
		c0.58-1.607-0.402-11.651,0.089-13.392c0.625-2.277,2.991-3.884,4.285-5.268c3.349-3.616,2.232-6.384-0.312-6.651
		c-9.151-0.982-6.16,7.678-6.205,10.356c0,0.938-0.446,1.116-2.188,1.562c-1.428,0.357-0.445,2.723,2.321,0.669
		c0.09,1.116,0.224,2.411,0.313,3.75c-1.474,0.179-3.394-1.964-3.929-4.375c0.625-7.232-6.429-9.598-10.134-3.482
		c-0.981,1.607-0.848,3.214-0.401,4.419c-2.054,0.089-2.679,4.375-6.875,3.571c-4.687-0.893-5.133-18.08,4.152-8.481
		C145.995,76.312,147.781,74.973,147.2,73.143L147.2,73.143z M170.548,72.518c1.026-2.009,3.481-3.348,4.33-2.678
		c0.356,0.312,0.714,0.938,0.401,2.321C174.744,74.125,172.333,71,170.548,72.518L170.548,72.518z M166.307,69.706
		c-0.67-0.045-1.25,0.089-1.741,0.402c-0.625,0.401-1.071,1.026-1.384,1.919c-0.312,0.804-0.044,2.411-0.044,3.795
		c0,1.339,1.026-0.134,1.473-0.536C166.485,73.589,169.833,69.794,166.307,69.706L166.307,69.706z M154.566,74.839
		c-6.429-1.206-6.651,8.793-0.134,4.553C156.396,78.321,156.888,75.241,154.566,74.839L154.566,74.839z M175.234,74.437
		c-0.893-1.205-5.044-1.562-6.562-0.134c-2.812,2.634-1.384,6.428,0.893,8.303c4.285,3.571,11.919-6.116,6.473-4.241
		c-0.446,2.232-2.009,2.634-3.481,2.812c-2.277,0.223-3.349-1.607-3.215-3.348c0.09-0.893,0.224-1.562,0.67-1.964
		c1.92-1.83,5.893,0.134,0.536,0.938C169.387,80.598,176.976,76.893,175.234,74.437L175.234,74.437z M149.7,100.775
		c-11.115-0.269-14.106,16.873-3.035,13.928c2.768-0.759,6.115-2.321,7.678-4.821C156.799,106.042,155.191,100.909,149.7,100.775
		L149.7,100.775z"/>
	<path fill-rule="evenodd" clip-rule="evenodd" fill="#955440" d="M151.62,94.347L151.62,94.347c4.643,1.295,9.196-3.526,5.49-5.982
		c-0.446-0.357-0.981-0.58-1.562-0.714c-2.277-0.491-4.375,0.938-4.911,2.991c-0.089,0.491,0.581,1.696,1.696,0.179
		c3.795-5.044,3.036,7.009-1.74,1.25c-6.785-10.178-17.945,0.759-9.776,2.5c2.276,0.491,4.375-0.938,4.91-2.991
		c-5.893,4.509-6.026-4.151-2.276-3.08C146.129,89.213,148.228,93.142,151.62,94.347L151.62,94.347z M86.044,87.606
		c-1.786-0.401-3.839-1.205-5.848-1.919c1.964-1.875,2.902-4.955,2.946-7.589c0.223-4.33,2.321-9.017,4.375-8.973
		c1.25,0,2.634,1.294,3.125,6.562c0.848,6.741-7.098-0.714-2.188-2.009c-2.723-0.223-4.375,1.831-2.901,4.777
		c1.919,3.75,7.5,1.339,6.964-2.991l0,0c-0.179-1.428-0.491-2.857-1.339-4.464c-5.491-8.437-8.661,3.437-12.276,2.991
		c-1.786-0.313-3.839-0.134-5.223,0.134h-0.044c-4.285,1.205-4.91,7.321-0.669,7.544c2.723,0.446,4.598-2.411,3.571-4.955
		c-1.875,6.696-7.455,0.179-2.544-0.759l0,0c8.928-2.098,8.035,5.446,5.491,9.464c-2.813-0.982-5.58-1.741-7.634-0.938
		c0.268,0.178,0.491,0.446,0.67,0.759c2.008,2.276,4.732,7.187,8.571,17.767C81.446,98.097,83.321,92.606,86.044,87.606
		L86.044,87.606z"/>
</g>
</svg>
