<?xml version="1.0" encoding="utf-8"?>
<!-- Generator: Adobe Illustrator 16.0.0, SVG Export Plug-In . SVG Version: 6.00 Build 0)  -->
<!DOCTYPE svg PUBLIC "-//W3C//DTD SVG 1.1//EN" "http://www.w3.org/Graphics/SVG/1.1/DTD/svg11.dtd">
<svg version="1.1" id="Layer_1" xmlns="http://www.w3.org/2000/svg" xmlns:xlink="http://www.w3.org/1999/xlink" x="0px" y="0px"
	 width="192.756px" height="192.756px" viewBox="0 0 192.756 192.756" enable-background="new 0 0 192.756 192.756"
	 xml:space="preserve">
<g>
	<polygon fill-rule="evenodd" clip-rule="evenodd" fill="#808285" points="0,0 192.756,0 192.756,192.756 0,192.756 0,0 	"/>
	<path fill-rule="evenodd" clip-rule="evenodd" fill="#FFFFFF" d="M119.564,153.463c-4.56-2.171-8.199-6.079-8.457-11.193h-1.626
		h-0.998h-0.989h-1.649c-0.26,5.114-3.874,9.022-8.436,11.193c-0.964,0.474-1.486,1.467-1.149,2.304
		c0.315,0.786,1.266,1.158,2.23,0.933c4.418-0.915,8.06-3.335,9.997-6.524c1.938,3.189,5.578,5.609,9.998,6.524
		c0.964,0.226,1.913-0.146,2.229-0.933C121.051,154.93,120.531,153.937,119.564,153.463L119.564,153.463z M132.721,173.199
		c0,1.065-0.865,1.922-1.932,1.922l-25.329-0.008c-4.688,0-4.175-3.688-4.175-3.688v-5.712h0.005v-1.106h25.317l0.001-2.62h-25.74
		v-3.853h25.741l0.002-7.45h-6.864v-3.853h6.866v-4.558h5.273v22.538c0,0,0.342,3.647-4.565,3.647h-20.757l0.007,2.802l24.218,0.005
		C131.855,171.266,132.721,172.134,132.721,173.199L132.721,173.199z"/>
	<path fill-rule="evenodd" clip-rule="evenodd" fill="#FFFFFF" d="M92.146,142.273l0.012,31.561c0,1.467-1.174,2.664-2.641,2.664
		c-1.467,0-2.651-1.197-2.651-2.664l0.001-8.252H60.87v-3.854h25.997l0.002-11.174h-3.051l0.005,6.694
		c0,1.467-1.175,2.666-2.643,2.666c-1.466,0-2.65-1.199-2.65-2.666l0.004-14.976h5.276l0.001,4.429h3.057v-4.429H92.146
		L92.146,142.273z M69.233,155.826v-0.006l-1.878,0.004l-1.878-0.004v0.006H64.61v-5.271h5.49v5.271H69.233L69.233,155.826z
		 M75.374,156.849v-14.575H70.1v4.429h-5.49v-4.429h-5.273v14.575c0,0-0.304,2.826,3.111,2.826h3.029h3.756h3.03
		C75.679,159.675,75.374,156.849,75.374,156.849L75.374,156.849z"/>
	<path fill-rule="evenodd" clip-rule="evenodd" fill="#FFFFFF" d="M137.516,77.651c1.105-0.856,2.2-1.803,3.252-2.809
		c5.196-4.983,8.698-11.068,9.859-17.134c0.269-1.403,0.404-2.748,0.404-3.997c0-3.251-0.918-6.071-2.731-8.37
		c-2.673-3.393-6.764-5.175-12.509-5.447c-5.151-0.244-11.18,0.963-16.541,3.313c-1.036,0.456-2.042,0.958-3.018,1.495
		c-0.099-2.804-0.504-5.719-1.224-8.525c-1.418-5.53-3.896-10.258-7.365-14.053c-3.772-4.13-7.88-6.098-12.21-5.847
		c-4.549,0.26-8.538,2.854-12.196,7.922c-3.534,4.898-6.002,13.014-6.018,19.765c-1.655-0.855-3.475-1.601-5.61-2.307
		c-6.192-2.041-12.787-2.55-17.642-1.355c-6.472,1.591-9.566,4.941-11.019,8.118c-0.382,0.839-0.767,2.015-0.96,3.004
		c-0.371,1.895-0.359,3.922,0.077,6.067c0.511,2.518,1.577,5.267,2.924,7.543c0.926,1.564,2.027,3.09,3.273,4.541
		c1.234,1.435,2.632,2.855,4.15,4.217c2.964,2.66,6.534,4.912,9.978,6.387c-2.313,1.315-4.369,2.698-6.285,4.224
		c-3.819,3.044-6.396,6.064-8.106,9.507c-0.31,0.623-0.884,1.865-1.244,3.179c-0.342,1.247-0.515,2.501-0.515,3.73
		c0,3.864,1.722,7.292,4.721,9.401c1.222,0.857,2.649,1.467,4.241,1.813c1.27,0.278,2.675,0.377,4.176,0.3
		c1.353-0.071,2.746-0.254,4.027-0.528c2.15-0.457,4.303-1.192,6.401-2.184c2.865-1.357,5.25-3.102,7.949-5.306
		c1.234-1.008,2.654-2.334,4.042-3.637c-0.034,0.298-0.073,0.601-0.103,0.896c-0.253,2.522-0.357,4.409-0.357,6.592
		c0,0.333,0.002,0.674,0.006,1.024c0.027,1.987,0.168,3.854,0.444,5.87c0.226,1.656,0.549,3.269,0.986,4.93
		c0.534,2.027,1.208,3.925,2.005,5.642c2.1,4.523,5.174,7.562,8.89,8.781c2.976,0.979,6.147,0.709,8.928-0.754
		c3.531-1.854,6.145-5.26,7.557-9.841c0.584-1.892,0.953-3.748,1.129-5.681c0.084-0.915,0.125-1.729,0.125-2.602
		c0-0.546-0.016-1.114-0.047-1.743c-0.12-2.478-0.502-5.156-1.163-8.188c-0.229-1.057-0.486-2.138-0.753-3.222
		c1.926,1.545,4.104,3.21,6.938,4.978c1.718,1.072,3.411,1.993,5.03,2.736c3.38,1.547,6.644,2.433,9.702,2.626
		c1.797,0.114,3.528,0.025,5.145-0.263c5.398-0.953,9.495-4.434,10.69-9.083c0.226-0.882,0.342-1.792,0.342-2.706
		c0-3.451-1.578-6.823-4.69-10.025c-1.3-1.336-2.873-2.663-4.43-3.731c-2.055-1.408-4.141-2.566-6.762-3.75
		c-0.008-0.005-1.783-0.774-1.783-0.774c-0.015-0.007-0.109-0.046-0.112-0.047c0.529-0.215,1.062-0.442,1.594-0.697
		C133.274,80.612,135.431,79.268,137.516,77.651L137.516,77.651z"/>
	<path fill-rule="evenodd" clip-rule="evenodd" fill="#EF4123" d="M79.615,62.716c-0.239-1.796-1.162-3.542-2.283-4.912
		c-2.05-2.509-4.881-4.269-8.09-5.58c-4.453-1.816-10.05-2.607-14.056-1.287c-0.263,0.086-0.502,0.175-0.718,0.263
		c-0.34,0.141-0.734,0.34-1.047,0.539c-0.788,0.503-0.922,1.316,0.161,1.767c0.173,0.075,0.367,0.137,0.578,0.194
		c0.294,0.081,0.639,0.17,1.012,0.259c1.867,0.451,3.583,0.962,5.179,1.527c2.036,0.724,4.495,1.817,6.584,2.991
		c0.973,0.545,1.939,1.161,2.885,1.804c1.104,0.751,2.218,1.572,3.177,2.348c1.198,0.968,2.304,1.98,3.304,3.03
		c0.795,0.834,1.469,1.657,2.069,2.509c0.242-0.251,0.631-0.897,0.783-1.275C79.648,65.655,79.81,64.18,79.615,62.716L79.615,62.716
		z M76.125,51.774c1.921,1.31,3.667,2.854,5.082,4.988c1.175,1.771,1.93,3.685,2.587,5.8c0.346,1.114,0.734,2.261,1.11,3.368
		c0.635,1.862,1.699,3.181,3.654,4.664c0.894,0.677,1.877,1.339,2.802,1.95c2.41,1.595,5.068,3.144,7.586,4.517
		c4.97,2.712,11.072,5.652,16.437,7.609c3.106,1.135,6.576,2.44,9.749,3.747c1.081,0.445,2.166,0.887,3.277,1.389
		c2.008,0.909,3.79,1.851,5.64,3.12c1.062,0.729,2.29,1.735,3.326,2.803c1.943,1.997,2.97,4.08,2.516,5.836
		c-0.497,1.935-2.513,3.303-4.903,3.724c-1.036,0.185-2.185,0.241-3.414,0.164c-2.227-0.142-4.612-0.827-7.124-1.977
		c-1.444-0.662-2.861-1.455-4.209-2.295c-2.446-1.526-4.412-3.006-6.553-4.734c-0.571-0.461-1.117-0.915-1.624-1.348
		c-2.944-2.523-5.393-4.94-7.283-6.707c-2.076-1.965-4.854-4.539-6.648-6.071c-1.479-1.263-4.179-3.405-6.368-4.992
		c-0.918-0.664-1.95-1.324-2.934-1.891c-1.388-0.796-2.616-1.418-3.976-1.75c-1.64-0.401-3.067-0.267-5.196,0.277
		c-1.326,0.338-3.112,0.731-4.77,0.917c-2.45,0.276-4.562,0.101-6.636-0.375c-3.349-0.765-7.629-3.138-10.976-6.138
		c-1.322-1.187-2.489-2.381-3.491-3.544c-0.95-1.105-1.814-2.298-2.527-3.502c-1.145-1.933-2.039-4.435-2.218-6.363
		c-0.295-3.164,0.932-6.171,6.667-7.581c3.489-0.859,8.72-0.417,13.617,1.2C72.005,49.462,74.158,50.435,76.125,51.774
		L76.125,51.774z"/>
	<path fill-rule="evenodd" clip-rule="evenodd" fill="#E9841D" d="M116.011,66.128c-0.927,0.819-1.497,1.824-1.761,2.806
		c0.363,0.506,0.757,0.944,1.175,1.323c0.452,0.408,0.929,0.751,1.438,1.037c1.532,0.86,3.251,1.159,4.985,1.041
		c1.585-0.11,3.49-0.656,4.821-1.226c0.78-0.334,1.572-0.741,2.399-1.226c1.398-0.821,2.64-1.749,3.707-2.648
		c0.917-0.769,1.809-1.629,2.628-2.534c0.602-0.67,1.16-1.357,1.675-2.066c1.098-1.508,2.03-3.187,2.623-4.794
		c0.443-1.199,0.718-2.386,0.799-3.528c0.081-1.173-0.201-1.806-0.677-1.89c-0.476-0.085-0.929,0.274-1.431,1.183
		c-0.103,0.188-0.202,0.37-0.297,0.535c-0.196,0.336-0.407,0.691-0.637,1.041c-0.56,0.856-1.254,1.751-2.075,2.634
		c-1.101,1.173-2.692,2.502-4.235,3.464c-1.391,0.866-2.921,1.563-4.566,1.998c-0.74,0.196-1.576,0.347-2.408,0.467
		c-0.732,0.104-1.468,0.173-2.212,0.265c-0.878,0.108-1.825,0.266-2.733,0.511C118.022,64.848,116.957,65.292,116.011,66.128
		L116.011,66.128z M135.724,69.583c-1.665,1.594-3.475,3.023-5.382,4.176c-3.005,1.817-5.74,2.934-9.17,2.998
		c-1.953,0.037-3.843-0.341-5.912-0.985c-3.542-1.106-4.969-1.201-7.522-0.63c-0.895,0.201-1.791,0.524-2.869,0.953
		c-1.988,0.789-3.947,1.737-6.167,2.927c-1.528,0.821-3.041,1.697-4.519,2.576c-2.265,1.349-4.712,3.089-7.224,4.809
		c-1.459,0.997-3.521,2.56-5.503,4.186c-2.021,1.663-3.854,3.415-5.726,5.175c-1.766,1.659-3.724,3.423-5.507,4.766
		c-2.008,1.512-4.248,2.729-6.478,3.511c-2.243,0.791-5.05,1.297-6.996,0.871c-0.625-0.136-1.169-0.354-1.596-0.654
		c-1.661-1.17-2.147-3.441-1.058-6.168c1.21-2.875,3.233-5.343,6.552-7.988c2.937-2.338,6.371-4.348,10.808-6.323
		c3.609-1.605,7.498-2.995,11.89-4.246c2.836-0.813,9.248-2.856,12.784-4.12c1.015-0.363,2.09-0.769,3.15-1.198
		c0.496-0.201,0.987-0.402,1.467-0.604c1.608-0.676,3.075-1.358,4.404-2.318c1.023-0.738,1.692-1.493,2.169-2.376
		c0.253-0.468,0.468-1.002,0.666-1.634c0.329-1.049,0.637-2.354,1.027-3.558c0.568-1.746,1.21-3.173,1.935-4.443
		c4.878-8.563,16.904-12.47,24.501-12.109c7.939,0.375,8.931,4.428,8.025,9.163C142.542,61.193,139.551,65.914,135.724,69.583
		L135.724,69.583z"/>
	<path fill-rule="evenodd" clip-rule="evenodd" fill="#005BAA" d="M97.305,57.375c2.246-0.266,3.923-1.491,5.328-3.168
		c0.804-0.96,1.401-2.028,1.836-3.171c0.448-1.182,0.742-2.488,0.887-3.896c0.22-2.134,0.103-4.065-0.165-5.938
		c-0.529-3.71-1.801-7.271-3.613-10.043c-1.177-1.801-2.361-2.92-3.466-3.604c-0.778-0.48-1.452-0.565-1.836-0.239
		c-0.292,0.248-0.32,0.629-0.243,1.051c0.083,0.445,0.345,0.979,0.525,1.42c0.16,0.393,0.331,0.838,0.494,1.351
		c0.519,1.633,0.972,3.729,1.281,5.973c0.416,3.023,0.634,6.083,0.329,9.318c-0.143,1.512-0.405,3.036-0.82,4.481
		c-0.177,0.62-0.41,1.296-0.687,1.957c-0.483,1.148-0.968,1.999-1.774,2.993c-0.278,0.342-0.591,0.672-0.901,0.973
		C95.234,57.346,96.252,57.498,97.305,57.375L97.305,57.375z M99.31,64.552c-0.486,1.437-0.748,3.06-0.943,4.695
		c-0.162,1.36-0.26,2.769-0.324,4.105c-0.044,0.937-0.067,1.893-0.069,2.844c-0.004,2.011,0.063,3.889,0.154,5.26
		c0.322,4.887,1.154,9.654,2.225,14.443c0.828,3.711,1.949,7.689,2.728,11.259c0.553,2.534,1.123,5.85,1.025,9.038
		c-0.054,1.759-0.318,3.548-0.913,5.478c-0.812,2.633-2.179,4.589-3.989,5.54c-1.036,0.547-2.162,0.64-3.257,0.279
		c-3.077-1.01-5.576-5.571-6.522-11.901c-0.785-5.253-0.312-11.264,0.092-14.363c0.741-5.673,2.039-12.745,3.192-19.514
		c0.229-1.481,0.454-2.729,0.649-3.9c0.362-2.16,0.783-4.583,0.983-6.758c0.213-2.326,0.217-4.54-0.119-6.185
		c-0.367-1.8-1.189-3.041-2.81-4.57c-1.417-1.342-2.941-2.997-3.76-4.301c-2.122-3.383-3.144-6.881-3.144-11.974
		c0-5.667,2.191-12.167,4.64-15.561c4.19-5.806,8.282-6.719,13.118-1.428c2.886,3.16,4.678,7.018,5.687,10.951
		c0.933,3.634,1.249,7.435,0.911,10.463c-0.273,2.445-0.991,4.879-2.424,7.134c-0.328,0.518-0.647,0.968-1.005,1.408
		c-1.042,1.287-2.413,2.427-3.526,3.523c-0.415,0.408-0.812,0.852-1.156,1.308C100.113,62.676,99.646,63.558,99.31,64.552
		L99.31,64.552z"/>
</g>
</svg>
