<?xml version="1.0" encoding="utf-8"?>
<!-- Generator: Adobe Illustrator 16.0.0, SVG Export Plug-In . SVG Version: 6.00 Build 0)  -->
<!DOCTYPE svg PUBLIC "-//W3C//DTD SVG 1.1//EN" "http://www.w3.org/Graphics/SVG/1.1/DTD/svg11.dtd">
<svg version="1.1" id="Layer_1" xmlns="http://www.w3.org/2000/svg" xmlns:xlink="http://www.w3.org/1999/xlink" x="0px" y="0px"
	 width="175.748px" height="68.311px" viewBox="8.504 62.223 175.748 68.311" enable-background="new 8.504 62.223 175.748 68.311"
	 xml:space="preserve">
<g>
	<path fill="#FFFFFF" d="M96.544,62.505c48.744,0,87.425,11.905,87.425,34.026c0,18.997-32.567,33.72-87.425,33.72
		c-54.963,0-87.758-14.725-87.758-33.72C8.786,74.257,47.799,62.505,96.544,62.505L96.544,62.505z"/>
	<path fill="#D03F50" d="M13.86,109.265c-3.521-3.9-5.356-8.188-5.356-12.732c0-22.608,39.417-34.309,88.04-34.309
		c48.624,0,87.708,11.857,87.708,34.309c0,4.544-1.821,8.832-5.323,12.732c-11.381,12.682-40.503,21.27-82.385,21.27
		C54.583,130.533,25.311,121.944,13.86,109.265L13.86,109.265z M173.446,109.265c4.691-4.009,7.037-8.379,7.037-12.732
		c0-18.036-33.729-30.54-83.939-30.54c-50.233,0-84.271,12.36-84.271,30.54c0,4.354,2.361,8.719,7.083,12.729
		c11.571,9.829,37.314,17.504,77.188,17.504C136.334,126.765,161.944,119.094,173.446,109.265L173.446,109.265z"/>
	<path fill="#892927" d="M35.843,95.983c0,14.295,25.422,25.884,70.499,25.884c45.075,0,70.164-11.589,70.164-25.884
		c0-14.296-25.089-25.552-70.164-25.552C61.265,70.432,35.843,81.688,35.843,95.983L35.843,95.983L35.843,95.983z"/>
	<path fill="#8A2A29" d="M35.843,95.983c0,14.295,25.422,25.884,70.499,25.884c45.075,0,70.164-11.589,70.164-25.884
		c0-14.296-25.089-25.552-70.164-25.552C61.265,70.432,35.843,81.688,35.843,95.983L35.843,95.983L35.843,95.983z"/>
	<path fill="#8D2C2B" d="M174.117,103.351c1.573-2.343,2.382-4.822,2.389-7.395c-0.032-14.283-25.116-25.524-70.164-25.524
		c-45.077,0-70.499,11.256-70.499,25.552l0,0c0,14.294,25.422,25.884,70.499,25.884
		C143.347,121.867,166.875,114.056,174.117,103.351L174.117,103.351z"/>
	<path fill="#8D2C2C" d="M122.155,121.351c34.996-2.463,54.188-12.885,54.188-25.507c0-2.662-0.852-5.218-2.521-7.62
		c-7.569-10.405-30.967-17.792-67.48-17.792c-45.077,0-70.499,11.256-70.499,25.552l0,0c0,14.294,25.422,25.884,70.499,25.884
		C111.923,121.867,117.196,121.688,122.155,121.351L122.155,121.351z"/>
	<path fill="#8E2D2E" d="M88.797,121.226c5.393,0.394,11.162,0.594,17.3,0.58c45.047-0.105,70.084-11.615,70.084-26.047
		c0-3.342-1.334-6.518-3.943-9.428c-8.928-9.396-31.637-15.899-65.896-15.899c-45.077,0-70.499,11.256-70.499,25.552l0,0
		C35.843,108.303,54.727,118.61,88.797,121.226L88.797,121.226z"/>
	<path fill="#912D2F" d="M74.443,119.539c9.067,1.433,19.624,2.207,31.562,2.171c45.008-0.133,70.014-11.598,70.014-26.036
		c0-3.726-1.653-7.246-4.879-10.419c-9.604-8.813-31.865-14.823-64.799-14.823c-45.077,0-70.499,11.256-70.499,25.552l0,0
		C35.843,106.446,49.466,115.458,74.443,119.539L74.443,119.539z"/>
	<path fill="#933030" d="M65.179,117.679c10.845,2.559,24.512,3.993,40.734,3.938c44.967-0.159,69.945-11.582,69.945-26.026
		c0-3.931-1.832-7.633-5.406-10.942c-9.955-8.48-31.939-14.215-64.11-14.215c-45.077,0-70.499,11.256-70.499,25.552l0,0
		C35.843,105.069,46.118,113.062,65.179,117.679L65.179,117.679z"/>
	<path fill="#943030" d="M58.663,115.864c11.663,3.638,27.542,5.736,47.158,5.654c44.93-0.186,69.873-11.565,69.873-26.015
		c0-4.084-1.967-7.923-5.812-11.329c-10.208-8.22-31.972-13.744-63.542-13.744c-45.077,0-70.499,11.256-70.499,25.552l0,0
		C35.843,103.974,43.788,111.116,58.663,115.864L58.663,115.864z"/>
	<path fill="#963032" d="M53.885,114.164c11.928,4.637,29.449,7.367,51.847,7.262c44.889-0.214,69.805-11.552,69.805-26.007
		c0-4.196-2.071-8.132-6.112-11.607c-10.396-8.019-31.979-13.38-63.082-13.38c-45.077,0-70.499,11.256-70.499,25.552l0,0
		C35.843,103.069,42.094,109.49,53.885,114.164L53.885,114.164z"/>
	<path fill="#973134" d="M49.679,112.31c11.824,5.719,30.815,9.153,55.96,9.021c44.852-0.24,69.731-11.535,69.731-25.995
		c0-4.267-2.13-8.265-6.293-11.783c-10.521-7.875-31.972-13.12-62.737-13.12c-45.077,0-70.499,11.256-70.499,25.552l0,0
		C35.843,102.174,40.614,107.854,49.679,112.31L49.679,112.31z"/>
	<path fill="#9A3236" d="M45.296,109.849c0.187,0.119,0.374,0.238,0.567,0.356l0.053,0.032c11.331,6.92,31.675,11.16,59.635,10.996
		c44.808-0.267,69.662-11.518,69.662-25.983c0-4.327-2.183-8.377-6.448-11.932c-10.633-7.745-31.961-12.887-62.423-12.887
		c-45.077,0-70.499,11.256-70.499,25.552l0,0C35.843,101.085,39.083,105.84,45.296,109.849L45.296,109.849z"/>
	<path fill="#9D3437" d="M41.631,107.099c0.102,0.09,0.203,0.18,0.308,0.268l0.201,0.169c10.208,8.479,31.971,13.808,63.32,13.604
		c44.768-0.293,69.592-11.5,69.592-25.975c0-4.38-2.229-8.476-6.588-12.062c-10.729-7.624-31.945-12.67-62.121-12.67
		c-45.077,0-70.499,11.256-70.499,25.552l0,0C35.843,99.962,37.815,103.729,41.631,107.099L41.631,107.099z"/>
	<path fill="#9D3437" d="M39.418,104.865l0.029,0.034c0.1,0.117,0.206,0.232,0.311,0.349c8.913,9.784,31.622,16.036,65.61,15.796
		c44.729-0.32,69.52-11.488,69.52-25.964c0-4.412-2.252-8.536-6.658-12.141c-10.803-7.533-31.928-12.507-61.888-12.507
		c-45.077,0-70.499,11.256-70.499,25.552l0,0C35.843,99.104,37.055,102.095,39.418,104.865L39.418,104.865z"/>
	<path fill="#9F3539" d="M38.778,104.067c8.152,10.453,31.255,17.148,66.499,16.877c44.689-0.344,69.451-11.467,69.451-25.949
		c0-4.44-2.271-8.589-6.721-12.21c-10.867-7.447-31.91-12.354-61.666-12.354c-45.077,0-70.499,11.256-70.499,25.552l0,0
		C35.843,98.808,36.839,101.522,38.778,104.067L38.778,104.067z"/>
	<path fill="#A2333A" d="M38.268,103.36c7.682,10.853,30.984,17.789,66.917,17.49c44.65-0.373,69.379-11.453,69.379-25.941
		c0-4.468-2.289-8.642-6.781-12.28c-10.934-7.359-31.893-12.198-61.44-12.198c-45.077,0-70.499,11.256-70.499,25.552l0,0
		C35.843,98.547,36.666,101.022,38.268,103.36L38.268,103.36z"/>
	<path fill="#A1333B" d="M37.865,102.744c7.259,11.202,30.716,18.336,67.229,18.012c44.61-0.399,69.31-11.435,69.31-25.932
		c0-4.477-2.288-8.658-6.784-12.302c-10.978-7.299-31.872-12.091-61.277-12.091c-45.077,0-70.499,11.256-70.499,25.552l0,0
		C35.843,98.323,36.529,100.589,37.865,102.744L37.865,102.744z"/>
	<path fill="#A5343B" d="M37.652,102.396c7.03,11.4,30.556,18.613,67.35,18.265c44.572-0.427,69.239-11.419,69.239-25.921
		c0-4.488-2.291-8.68-6.797-12.331c-11.022-7.235-31.853-11.977-61.104-11.977c-45.077,0-70.499,11.256-70.499,25.552l0,0
		C35.843,98.197,36.455,100.345,37.652,102.396L37.652,102.396z"/>
	<path fill="#A4343C" d="M37.459,102.05c6.799,11.6,30.384,18.889,67.452,18.512c44.531-0.448,69.171-11.398,69.171-25.904
		c0-4.497-2.29-8.697-6.798-12.353c-11.064-7.175-31.833-11.872-60.942-11.872c-45.077,0-70.499,11.256-70.499,25.552l0,0
		C35.843,98.073,36.391,100.104,37.459,102.05L37.459,102.05z"/>
	<path fill="#A6323D" d="M37.303,101.763c6.615,11.77,30.243,19.106,67.518,18.707c44.488-0.479,69.098-11.389,69.098-25.9
		c0-4.507-2.29-8.716-6.805-12.378c-11.107-7.113-31.813-11.76-60.772-11.76c-45.077,0-70.499,11.256-70.499,25.552l0,0
		C35.843,97.972,36.336,99.903,37.303,101.763L37.303,101.763z"/>
	<path fill="#A9323F" d="M37.241,101.638c6.554,11.842,30.179,19.159,67.486,18.736c44.453-0.507,69.028-11.369,69.028-25.887
		c0-4.516-2.289-8.732-6.808-12.4c-11.146-7.053-31.791-11.655-60.607-11.655c-45.077,0-70.499,11.256-70.499,25.552l0,0
		C35.843,97.926,36.316,99.817,37.241,101.638L37.241,101.638z"/>
	<path fill="#AA323F" d="M37.172,101.499c6.484,11.923,30.109,19.225,67.466,18.779c44.414-0.531,68.957-11.354,68.957-25.878
		c0-4.515-2.277-8.729-6.779-12.396c-11.176-7.007-31.771-11.572-60.474-11.572c-45.077,0-70.499,11.256-70.499,25.552l0,0
		C35.843,97.877,36.293,99.722,37.172,101.499L37.172,101.499z"/>
	<path fill="#AC3341" d="M37.015,101.179c6.272,12.113,29.942,19.478,67.532,19.006c44.372-0.562,68.888-11.336,68.888-25.868
		c0-4.515-2.27-8.729-6.754-12.397c-11.209-6.958-31.752-11.487-60.339-11.487c-45.077,0-70.499,11.256-70.499,25.552l0,0
		C35.843,97.763,36.238,99.5,37.015,101.179L37.015,101.179z"/>
	<path fill="#AF3141" d="M36.973,101.081c6.234,12.173,29.891,19.501,67.481,19.005c44.336-0.583,68.818-11.319,68.818-25.855
		c0-4.514-2.26-8.729-6.73-12.396c-11.238-6.911-31.729-11.403-60.2-11.403c-45.077,0-70.499,11.256-70.499,25.552l0,0
		C35.843,97.729,36.225,99.433,36.973,101.081L36.973,101.081z"/>
	<path fill="#AF3141" d="M36.936,100.997c6.207,12.227,29.847,19.513,67.431,18.996c44.295-0.612,68.741-11.305,68.741-25.846
		c0-4.517-2.25-8.733-6.713-12.403c-11.269-6.86-31.707-11.312-60.054-11.312c-45.077,0-70.499,11.256-70.499,25.552l0,0
		C35.843,97.699,36.213,99.374,36.936,100.997L36.936,100.997z"/>
	<path fill="#B02F43" d="M36.887,100.883c6.156,12.294,29.786,19.556,67.389,19.013c44.252-0.638,68.674-11.287,68.674-25.833
		c0-4.516-2.242-8.732-6.689-12.402c-11.297-6.812-31.687-11.229-59.918-11.229c-45.077,0-70.499,11.256-70.499,25.552l0,0
		C35.843,97.659,36.197,99.296,36.887,100.883L36.887,100.883z"/>
	<path fill="#B42F44" d="M36.839,100.774c6.111,12.36,29.73,19.592,67.344,19.025c44.215-0.665,68.604-11.271,68.604-25.825
		c0-4.512-2.229-8.727-6.658-12.395c-11.323-6.768-31.665-11.149-59.787-11.149c-45.077,0-70.499,11.256-70.499,25.552l0,0
		C35.843,97.621,36.181,99.222,36.839,100.774L36.839,100.774z"/>
	<path fill="#B42F44" d="M36.792,100.667c6.066,12.43,29.675,19.625,67.3,19.038c44.177-0.692,68.533-11.255,68.533-25.814
		c0-4.505-2.213-8.712-6.612-12.377c-11.346-6.729-31.644-11.082-59.672-11.082c-45.077,0-70.499,11.256-70.499,25.552l0,0
		C35.843,97.583,36.164,99.147,36.792,100.667L36.792,100.667z"/>
	<path fill="#B72F45" d="M36.748,100.562c6.024,12.494,29.622,19.66,67.252,19.049c44.136-0.719,68.464-11.238,68.464-25.804
		c0-4.5-2.199-8.704-6.574-12.366c-11.371-6.687-31.621-11.009-59.548-11.009c-45.077,0-70.499,11.256-70.499,25.552l0,0
		C35.843,97.546,36.147,99.076,36.748,100.562L36.748,100.562z"/>
	<path fill="#B82F46" d="M36.725,100.502c6.016,12.532,29.588,19.646,67.184,19.013c44.097-0.744,68.395-11.224,68.395-25.792
		c0-4.494-2.185-8.691-6.533-12.35c-11.393-6.648-31.599-10.94-59.429-10.94c-45.077,0-70.499,11.256-70.499,25.552l0,0
		C35.843,97.524,36.141,99.034,36.725,100.502L36.725,100.502z"/>
	<path fill="#BC2F47" d="M36.703,100.444c6.01,12.568,29.559,19.633,67.114,18.976c44.056-0.772,68.32-11.207,68.32-25.784
		c0-4.488-2.17-8.682-6.496-12.338c-11.414-6.605-31.574-10.866-59.301-10.866c-45.077,0-70.499,11.256-70.499,25.552l0,0
		C35.843,97.505,36.134,98.994,36.703,100.444L36.703,100.444z"/>
	<path fill="#BC2F47" d="M36.684,100.394c6.009,12.601,29.532,19.609,67.043,18.931c44.017-0.8,68.25-11.189,68.25-25.771
		c0-4.484-2.156-8.673-6.461-12.327c-11.437-6.564-31.551-10.793-59.176-10.793c-45.077,0-70.499,11.256-70.499,25.552l0,0
		C35.843,97.485,36.128,98.96,36.684,100.394L36.684,100.394z"/>
	<path fill="#BF3348" d="M36.661,100.331c6,12.641,29.501,19.6,66.977,18.896c43.975-0.826,68.18-11.172,68.18-25.761
		c0-4.478-2.142-8.661-6.418-12.312c-11.457-6.524-31.529-10.724-59.058-10.724c-45.077,0-70.499,11.256-70.499,25.552l0,0
		C35.843,97.465,36.121,98.917,36.661,100.331L36.661,100.331z"/>
	<path fill="#BF3348" d="M36.64,100.274c5.995,12.677,29.472,19.582,66.905,18.856c43.938-0.85,68.111-11.155,68.111-25.75
		c0-4.469-2.124-8.646-6.372-12.292c-11.477-6.487-31.508-10.658-58.942-10.658c-45.077,0-70.499,11.256-70.499,25.552l0,0
		C35.843,97.444,36.114,98.879,36.64,100.274L36.64,100.274z"/>
	<path fill="#C2364A" d="M36.616,100.211c5.986,12.718,29.439,19.571,66.839,18.826c43.896-0.878,68.039-11.14,68.039-25.741
		c0-4.459-2.106-8.627-6.323-12.268c-11.494-6.452-31.48-10.596-58.829-10.596c-45.077,0-70.499,11.256-70.499,25.552l0,0
		C35.843,97.424,36.105,98.835,36.616,100.211L36.616,100.211z"/>
	<path fill="#C4364A" d="M36.593,100.147c5.976,12.756,29.405,19.562,66.771,18.791c43.859-0.903,67.97-11.119,67.97-25.727
		c0-4.45-2.088-8.61-6.272-12.246c-11.512-6.417-31.457-10.535-58.719-10.535c-45.077,0-70.499,11.256-70.499,25.552l0,0
		C35.843,97.401,36.098,98.792,36.593,100.147L36.593,100.147z"/>
	<path fill="#C4384A" d="M36.573,100.097c5.974,12.789,29.377,19.541,66.699,18.747c43.816-0.929,67.898-11.106,67.898-25.716
		c0-4.439-2.068-8.591-6.22-12.221c-11.528-6.382-31.435-10.476-58.61-10.476c-45.077,0-70.499,11.256-70.499,25.552l0,0
		C35.843,97.384,36.091,98.757,36.573,100.097L36.573,100.097z"/>
	<path fill="#C73B4C" d="M36.554,100.045c5.974,12.822,29.353,19.521,66.628,18.704c43.775-0.958,67.827-11.089,67.827-25.707
		c0-4.43-2.052-8.574-6.173-12.199c-11.546-6.346-31.408-10.412-58.495-10.412c-45.077,0-70.499,11.256-70.499,25.552l0,0
		C35.843,97.366,36.083,98.722,36.554,100.045L36.554,100.045z"/>
	<path fill="#C93B4C" d="M36.527,99.974c5.957,12.866,29.314,19.521,66.564,18.683c43.738-0.986,67.756-11.074,67.756-25.697
		c0-4.421-2.033-8.558-6.125-12.178c-11.562-6.31-31.384-10.349-58.38-10.349c-45.077,0-70.499,11.256-70.499,25.552l0,0
		C35.843,97.341,36.074,98.673,36.527,99.974L36.527,99.974z"/>
	<path fill="#CB3E4D" d="M36.509,99.924c5.957,12.899,29.288,19.497,66.489,18.636c43.7-1.012,67.688-11.059,67.688-25.686
		c0-4.412-2.019-8.54-6.078-12.156c-11.578-6.273-31.359-10.286-58.268-10.286c-45.077,0-70.499,11.256-70.499,25.552l0,0
		C35.843,97.323,36.066,98.64,36.509,99.924L36.509,99.924z"/>
	<path fill="#CC3E4E" d="M36.498,99.892c5.97,12.918,29.271,19.455,66.409,18.571c43.66-1.037,67.617-11.039,67.617-25.676
		c0-4.401-1.996-8.52-6.024-12.129c-11.594-6.24-31.336-10.227-58.158-10.227c-45.077,0-70.499,11.256-70.499,25.552l0,0
		C35.843,97.312,36.064,98.616,36.498,99.892L36.498,99.892z"/>
	<path fill="#CE3E4E" d="M36.486,99.853c5.978,12.942,29.25,19.422,66.33,18.518c43.621-1.064,67.545-11.025,67.545-25.666
		c0-4.393-1.979-8.504-5.979-12.109c-11.608-6.203-31.31-10.162-58.039-10.162c-45.077,0-70.499,11.256-70.499,25.552l0,0
		C35.843,97.298,36.061,98.59,36.486,99.853L36.486,99.853z"/>
	<path fill="#D03F50" d="M36.476,99.817c5.989,12.964,29.232,19.381,66.25,18.453c43.582-1.088,67.476-11.006,67.476-25.653
		c0-4.38-1.96-8.48-5.923-12.078c-11.623-6.172-31.283-10.108-57.937-10.108c-45.077,0-70.499,11.256-70.499,25.552l0,0
		C35.843,97.287,36.057,98.565,36.476,99.817L36.476,99.817z"/>
	<path fill="#D03F50" d="M96.875,70.626c6.731-0.332,20.015-0.174,24.069,1.586c1.229,0.533,3.094,1.266,1.941,3.125
		s-6.419,2.658-13.218,2.061c-6.798-0.596-7.854-0.232-13.34-0.1c-29.582,0.708-42.565,5.376-48.858,10.016
		c-2.671,1.969-11.981,5.312-8.162,0.518c4.361-5.476,10.956-8.137,10.956-8.137c2.671-1.126,4.918-2.104,7.049-2.961
		c7.926-2.633,17.945-4.562,29.895-5.551C90.091,70.988,93.289,70.804,96.875,70.626L96.875,70.626z"/>
	<path fill="#D04650" d="M39.635,87.675c1.109-1.41,2.432-2.652,3.7-3.681c3.569-2.887,7.088-4.309,7.123-4.319
		c2.997-1.261,5.459-2.333,7.831-3.257c6.953-2.212,15.444-3.898,25.373-4.908c3.652-0.286,7.874-0.545,12.845-0.793
		c6.684-0.335,19.77-0.189,23.869,1.524c1.197,0.52,3.062,1.232,1.957,3.057c-0.505,0.862-2.014,1.488-4.048,1.851
		c-2.345,0.411-5.483,0.486-9.048,0.18c-6.709-0.578-7.807-0.218-13.228-0.083c-29.114,0.712-41.983,5.301-48.287,9.882
		c-1.809,1.323-6.643,3.273-8.342,2.883C38.607,89.824,38.467,89.155,39.635,87.675L39.635,87.675z"/>
	<path fill="#D34E52" d="M39.96,87.519c1.07-1.378,2.41-2.61,3.646-3.614c3.511-2.832,6.978-4.229,7.045-4.25
		c3.328-1.397,5.999-2.562,8.627-3.546c6.126-1.867,13.395-3.336,21.741-4.312c4.136-0.366,9.07-0.688,15.122-0.992
		c6.633-0.336,19.523-0.202,23.665,1.464c1.168,0.507,3.036,1.198,1.976,2.986c-0.468,0.854-2.044,1.466-4.026,1.818
		c-2.332,0.404-5.438,0.479-8.951,0.183c-6.613-0.562-7.761-0.204-13.111-0.067c-28.644,0.716-41.399,5.226-47.716,9.75
		c-1.791,1.298-6.531,3.208-8.213,2.838C39.008,89.598,38.833,88.963,39.96,87.519L39.96,87.519z"/>
	<path fill="#D35453" d="M40.287,87.36c1.029-1.342,2.385-2.568,3.589-3.546c3.455-2.771,6.865-4.146,6.965-4.182
		c3.676-1.54,6.554-2.793,9.471-3.833c5.323-1.55,11.474-2.809,18.407-3.717c4.499-0.451,10.011-0.833,17.055-1.188
		c6.583-0.339,19.274-0.215,23.458,1.402c1.139,0.494,3.012,1.164,1.998,2.917c-0.438,0.845-2.076,1.445-4.006,1.789
		c-2.316,0.393-5.387,0.469-8.853,0.183c-6.524-0.543-7.712-0.191-13-0.051c-28.176,0.72-40.815,5.152-47.145,9.615
		c-1.774,1.275-6.418,3.146-8.084,2.798C39.408,89.371,39.199,88.77,40.287,87.36L40.287,87.36z"/>
	<path fill="#D35954" d="M40.613,87.204c0.988-1.308,2.361-2.527,3.535-3.479c3.396-2.714,6.754-4.064,6.888-4.11
		c4.063-1.699,7.154-3.045,10.42-4.141c4.46-1.237,9.473-2.276,15.017-3.083c4.807-0.549,10.854-0.997,18.936-1.407
		c6.533-0.343,19.025-0.23,23.252,1.339c1.109,0.479,2.984,1.13,2.016,2.849c-0.4,0.835-2.105,1.423-3.984,1.757
		c-2.299,0.385-5.336,0.461-8.754,0.184c-6.432-0.524-7.666-0.177-12.882-0.036c-27.707,0.726-40.233,5.078-46.574,9.484
		c-1.755,1.25-6.306,3.082-7.955,2.753C39.809,89.145,39.564,88.576,40.613,87.204L40.613,87.204z"/>
	<path fill="#D35D53" d="M40.938,87.046c0.946-1.274,2.338-2.484,3.479-3.412c3.342-2.654,6.642-3.984,6.81-4.041
		c4.513-1.882,7.831-3.328,11.548-4.476c3.518-0.923,7.365-1.725,11.527-2.393c5.063-0.666,11.58-1.183,20.737-1.651
		c6.487-0.346,18.78-0.244,23.052,1.277c1.077,0.468,2.955,1.098,2.033,2.78c-0.368,0.828-2.137,1.401-3.965,1.727
		c-2.286,0.376-5.285,0.452-8.654,0.184c-6.342-0.505-7.621-0.162-12.771-0.017c-27.238,0.729-39.65,5.002-46.003,9.35
		c-1.737,1.227-6.195,3.019-7.825,2.71C40.209,88.919,39.932,88.384,40.938,87.046L40.938,87.046z"/>
	<path fill="#D46156" d="M41.265,86.889c0.906-1.238,2.314-2.442,3.423-3.344c3.284-2.596,6.53-3.902,6.73-3.973
		c5.121-2.13,8.712-3.696,13.129-4.901c2.237-0.545,4.595-1.043,7.077-1.491c5.349-0.849,12.391-1.467,23.051-2.018
		c6.436-0.348,18.531-0.258,22.842,1.216c1.051,0.455,2.935,1.064,2.057,2.711c-0.331,0.819-2.165,1.378-3.944,1.695
		c-2.271,0.369-5.231,0.444-8.56,0.185c-6.246-0.486-7.565-0.146-12.653,0c-26.768,0.733-39.063,4.928-45.43,9.217
		c-1.722,1.203-6.084,2.956-7.698,2.667C40.61,88.691,40.299,88.19,41.265,86.889L41.265,86.889z"/>
	<path fill="#D66556" d="M41.59,86.733c0.866-1.207,2.292-2.403,3.368-3.277c3.227-2.539,6.417-3.823,6.651-3.904
		c12.161-5.044,15.731-6.898,42.697-8.301c6.386-0.351,18.288-0.271,22.642,1.155c1.02,0.442,2.902,1.03,2.072,2.643
		c-0.297,0.81-2.194,1.355-3.922,1.664c-2.258,0.359-5.186,0.436-8.461,0.187c-6.154-0.468-7.525-0.133-12.542,0.014
		c-26.299,0.738-38.482,4.854-44.86,9.084c-1.702,1.18-5.971,2.894-7.569,2.625C41.01,88.466,40.663,87.998,41.59,86.733
		L41.59,86.733z"/>
	<path fill="#D66957" d="M41.916,86.575c0.826-1.171,2.267-2.359,3.312-3.209c3.17-2.479,6.306-3.741,6.573-3.833
		c11.993-4.961,15.682-6.804,42.138-8.192c6.333-0.352,18.041-0.283,22.439,1.094c0.986,0.429,2.873,0.995,2.09,2.573
		c-0.261,0.801-2.226,1.334-3.9,1.633c-2.239,0.35-5.135,0.426-8.36,0.188c-6.067-0.45-7.479-0.12-12.429,0.032
		c-25.83,0.741-37.899,4.779-44.29,8.951c-1.685,1.154-5.859,2.829-7.439,2.58C41.409,88.239,41.03,87.805,41.916,86.575
		L41.916,86.575z"/>
	<path fill="#D66C59" d="M42.243,86.418c0.784-1.139,2.243-2.318,3.256-3.142c3.113-2.422,6.193-3.659,6.495-3.765
		c11.827-4.879,15.632-6.708,41.579-8.083c6.285-0.354,17.792-0.298,22.232,1.033c0.957,0.416,2.851,0.961,2.109,2.505
		c-0.227,0.791-2.252,1.311-3.88,1.601c-2.228,0.342-5.085,0.417-8.263,0.189c-5.975-0.433-7.431-0.104-12.313,0.049
		c-25.363,0.744-37.316,4.704-43.719,8.816c-1.667,1.13-5.747,2.767-7.312,2.537C41.811,88.012,41.396,87.612,42.243,86.418
		L42.243,86.418z"/>
	<path fill="#D6705A" d="M42.568,86.261c0.745-1.103,2.221-2.276,3.202-3.075c3.056-2.362,6.082-3.578,6.416-3.694
		c11.659-4.798,15.582-6.615,41.019-7.973c6.235-0.357,17.548-0.311,22.028,0.97c0.929,0.404,2.822,0.929,2.129,2.435
		c-0.189,0.784-2.28,1.29-3.856,1.571c-2.212,0.334-5.032,0.409-8.165,0.19c-5.882-0.413-7.384-0.091-12.2,0.066
		c-24.894,0.747-36.732,4.629-43.148,8.684c-1.649,1.106-5.635,2.703-7.181,2.494C42.211,87.787,41.762,87.419,42.568,86.261
		L42.568,86.261z"/>
	<path fill="#D7735D" d="M42.895,86.104c0.702-1.07,2.197-2.236,3.146-3.009c2.997-2.304,5.969-3.498,6.338-3.624
		c11.491-4.717,15.532-6.522,40.46-7.864c6.188-0.359,17.299-0.324,21.824,0.909c0.896,0.39,2.795,0.895,2.148,2.367
		c-0.156,0.774-2.313,1.268-3.838,1.54c-2.199,0.325-4.982,0.4-8.07,0.191c-5.788-0.396-7.334-0.077-12.083,0.083
		c-24.424,0.752-36.148,4.553-42.576,8.55c-1.632,1.083-5.522,2.641-7.053,2.451C42.611,87.559,42.129,87.225,42.895,86.104
		L42.895,86.104z"/>
	<path fill="#D7755E" d="M43.22,85.948c0.662-1.036,2.173-2.194,3.092-2.941c2.94-2.247,5.857-3.417,6.258-3.556
		c11.324-4.634,15.483-6.426,39.902-7.753c6.136-0.363,17.054-0.339,21.621,0.848c0.869,0.376,2.771,0.86,2.166,2.297
		c-0.121,0.766-2.343,1.246-3.816,1.509c-2.182,0.315-4.928,0.391-7.969,0.192c-5.697-0.377-7.289-0.063-11.97,0.097
		c-23.955,0.758-35.566,4.479-42.006,8.419c-1.614,1.058-5.41,2.578-6.923,2.407C43.011,87.333,42.495,87.033,43.22,85.948
		L43.22,85.948z"/>
	<path fill="#D77760" d="M43.546,85.79c0.623-1.001,2.149-2.152,3.037-2.873c2.883-2.188,5.743-3.335,6.179-3.486
		c11.157-4.551,15.434-6.333,39.344-7.644c6.086-0.366,16.806-0.353,21.417,0.786c0.838,0.365,2.742,0.827,2.187,2.229
		c-0.085,0.756-2.373,1.222-3.797,1.476c-2.17,0.308-4.879,0.384-7.871,0.194c-5.604-0.357-7.24-0.048-11.856,0.114
		c-23.485,0.761-34.981,4.405-41.433,8.286c-1.597,1.035-5.299,2.515-6.797,2.365C43.412,87.106,42.86,86.84,43.546,85.79
		L43.546,85.79z"/>
	<path fill="#D97B62" d="M43.872,85.633c0.582-0.968,2.126-2.11,2.982-2.806c2.826-2.128,5.633-3.253,6.102-3.418
		c10.989-4.467,15.384-6.236,38.784-7.535c6.036-0.367,16.559-0.364,21.212,0.726c0.811,0.351,2.716,0.794,2.207,2.159
		c-0.055,0.747-2.406,1.203-3.779,1.447c-2.15,0.3-4.828,0.375-7.771,0.195c-5.517-0.339-7.193-0.034-11.742,0.131
		c-23.017,0.765-34.397,4.33-40.862,8.15c-1.579,1.012-5.188,2.452-6.666,2.322C43.812,86.879,43.227,86.647,43.872,85.633
		L43.872,85.633z"/>
	<path fill="#D97C64" d="M44.198,85.477c0.541-0.935,2.103-2.07,2.926-2.738c2.769-2.072,5.52-3.173,6.023-3.348
		c10.823-4.387,15.333-6.144,38.225-7.426c5.986-0.37,16.312-0.379,21.007,0.664c0.779,0.339,2.688,0.76,2.226,2.091
		c-0.019,0.738-2.436,1.179-3.754,1.415c-2.14,0.289-4.779,0.366-7.677,0.195c-5.423-0.322-7.146-0.021-11.628,0.147
		c-22.547,0.77-33.814,4.255-40.291,8.018c-1.561,0.987-5.077,2.389-6.539,2.278C44.212,86.653,43.592,86.454,44.198,85.477
		L44.198,85.477z"/>
	<path fill="#D98066" d="M44.524,85.318c0.498-0.899,2.079-2.028,2.871-2.671c2.712-2.012,5.408-3.092,5.943-3.278
		c10.656-4.305,15.286-6.05,37.667-7.316c5.939-0.372,16.062-0.394,20.805,0.603c0.748,0.325,2.658,0.727,2.244,2.021
		c0.016,0.73-2.465,1.158-3.736,1.385c-2.123,0.28-4.727,0.356-7.575,0.197c-5.328-0.303-7.1-0.006-11.514,0.163
		c-22.079,0.774-33.231,4.182-39.72,7.886c-1.544,0.962-4.964,2.324-6.41,2.235C44.614,86.427,43.959,86.261,44.524,85.318
		L44.524,85.318z"/>
	<path fill="#DC8469" d="M44.85,85.162c0.459-0.866,2.055-1.985,2.816-2.604c2.654-1.953,5.296-3.01,5.865-3.208
		c10.489-4.222,15.236-5.956,37.11-7.207c5.886-0.375,15.817-0.407,20.596,0.54c0.721,0.312,2.636,0.692,2.263,1.953
		c0.054,0.72-2.491,1.136-3.71,1.354c-2.109,0.273-4.68,0.349-7.482,0.199c-5.238-0.286-7.052,0.007-11.396,0.18
		c-21.61,0.777-32.65,4.106-39.151,7.751c-1.526,0.939-4.851,2.262-6.281,2.192C45.014,86.201,44.325,86.067,44.85,85.162
		L44.85,85.162z"/>
	<path fill="#DC856B" d="M45.175,85.005c0.419-0.833,2.032-1.945,2.761-2.537c2.599-1.896,5.184-2.93,5.787-3.138
		c10.321-4.143,15.186-5.862,36.549-7.099c5.84-0.377,15.572-0.42,20.395,0.479c0.688,0.299,2.605,0.658,2.279,1.884
		c0.088,0.71-2.521,1.113-3.689,1.321c-2.096,0.265-4.628,0.339-7.383,0.2c-5.147-0.268-7.004,0.021-11.284,0.197
		c-21.141,0.779-32.065,4.031-38.577,7.618c-1.509,0.916-4.74,2.199-6.154,2.149C45.414,85.974,44.691,85.876,45.175,85.005
		L45.175,85.005z"/>
	<path fill="#DC876E" d="M45.503,84.848c0.377-0.798,2.007-1.903,2.704-2.47c2.54-1.836,5.071-2.849,5.708-3.07
		c10.154-4.057,15.137-5.766,35.99-6.988c5.792-0.379,15.327-0.435,20.19,0.418c0.661,0.286,2.581,0.625,2.301,1.814
		c0.121,0.703-2.554,1.092-3.672,1.291c-2.078,0.254-4.572,0.331-7.283,0.2c-5.052-0.249-6.956,0.035-11.169,0.214
		C69.6,77.04,58.79,80.214,52.265,83.74c-1.491,0.893-4.627,2.138-6.024,2.106C45.814,85.747,45.056,85.682,45.503,84.848
		L45.503,84.848z"/>
	<path fill="#DF8C71" d="M45.827,84.691c0.337-0.764,1.984-1.861,2.65-2.403c2.483-1.778,4.959-2.767,5.628-3
		c9.988-3.975,15.087-5.672,35.433-6.879c5.74-0.381,15.078-0.448,19.984,0.355c0.631,0.275,2.555,0.591,2.318,1.747
		c0.157,0.694-2.578,1.069-3.648,1.259c-2.063,0.247-4.521,0.323-7.186,0.201c-4.962-0.229-6.909,0.05-11.056,0.229
		c-20.203,0.791-30.899,3.882-37.436,7.353c-1.472,0.868-4.517,2.073-5.896,2.062C46.214,85.52,45.423,85.488,45.827,84.691
		L45.827,84.691z"/>
	<path fill="#DF8E73" d="M46.154,84.534c0.295-0.73,1.96-1.82,2.594-2.335c2.426-1.72,4.848-2.687,5.55-2.931
		c9.82-3.894,15.037-5.578,34.873-6.77c5.691-0.383,14.831-0.462,19.784,0.296c0.597,0.259,2.522,0.555,2.335,1.676
		c0.195,0.687-2.609,1.047-3.627,1.229c-2.051,0.236-4.475,0.312-7.088,0.201c-4.872-0.212-6.863,0.065-10.942,0.246
		c-19.735,0.792-30.314,3.807-36.865,7.22c-1.456,0.842-4.404,2.009-5.766,2.019C46.615,85.293,45.79,85.296,46.154,84.534
		L46.154,84.534z"/>
	<path fill="#E19277" d="M46.479,84.376c0.255-0.696,1.938-1.777,2.54-2.267c2.369-1.661,4.736-2.605,5.472-2.86
		c9.652-3.813,14.987-5.484,34.315-6.661c5.642-0.386,14.583-0.475,19.577,0.234c0.568,0.247,2.498,0.522,2.354,1.607
		c0.229,0.677-2.637,1.027-3.604,1.198c-2.034,0.23-4.426,0.305-6.989,0.204c-4.778-0.193-6.815,0.078-10.829,0.263
		c-19.264,0.796-29.731,3.733-36.292,7.086c-1.439,0.82-4.292,1.947-5.638,1.976C47.015,85.068,46.156,85.103,46.479,84.376
		L46.479,84.376z"/>
	<path fill="#E1947B" d="M46.806,84.22c0.213-0.662,1.913-1.737,2.483-2.201c2.312-1.603,4.624-2.524,5.395-2.792
		c9.485-3.729,14.938-5.389,33.754-6.551c5.592-0.388,14.338-0.488,19.374,0.174c0.539,0.232,2.473,0.489,2.375,1.538
		c0.26,0.667-2.67,1.003-3.586,1.166c-2.021,0.221-4.375,0.297-6.892,0.206c-4.688-0.176-6.768,0.091-10.713,0.279
		c-18.795,0.8-29.149,3.657-35.722,6.952c-1.42,0.795-4.18,1.884-5.509,1.933C47.416,84.841,46.521,84.91,46.806,84.22L46.806,84.22
		z"/>
	<path fill="#E1977D" d="M47.132,84.062c0.174-0.628,1.889-1.695,2.427-2.133c2.254-1.544,4.512-2.443,5.314-2.722
		c9.319-3.647,14.889-5.295,33.197-6.442c5.543-0.39,14.094-0.502,19.17,0.112c0.511,0.22,2.444,0.455,2.394,1.469
		c0.295,0.66-2.701,0.982-3.562,1.136c-2.006,0.212-4.324,0.287-6.795,0.207c-4.599-0.157-6.722,0.105-10.6,0.295
		c-18.328,0.805-28.566,3.583-35.152,6.819c-1.403,0.771-4.069,1.821-5.381,1.891C47.816,84.614,46.888,84.717,47.132,84.062
		L47.132,84.062z"/>
	<path fill="#E49B81" d="M47.458,83.906c0.133-0.595,1.865-1.655,2.371-2.066c2.199-1.487,4.402-2.361,5.237-2.653
		c9.152-3.565,14.839-5.201,32.639-6.333c5.493-0.393,13.842-0.517,18.966,0.05c0.479,0.208,2.416,0.422,2.413,1.401
		c0.332,0.65-2.733,0.96-3.544,1.105c-1.989,0.204-4.273,0.278-6.695,0.206c-4.505-0.137-6.677,0.121-10.487,0.313
		c-17.858,0.809-27.981,3.508-34.58,6.686c-1.386,0.747-3.957,1.758-5.25,1.847C48.216,84.388,47.253,84.524,47.458,83.906
		L47.458,83.906z"/>
	<path fill="#E49D85" d="M47.783,83.748c0.092-0.559,1.843-1.611,2.318-1.997c2.141-1.429,4.288-2.281,5.158-2.583
		c8.984-3.485,14.789-5.107,32.078-6.224c5.444-0.396,13.6-0.528,18.762-0.012c0.45,0.196,2.391,0.388,2.434,1.332
		c0.365,0.641-2.76,0.938-3.523,1.074c-1.976,0.194-4.223,0.271-6.597,0.208c-4.414-0.122-6.628,0.133-10.372,0.329
		c-17.389,0.812-27.398,3.433-34.009,6.553c-1.368,0.723-3.844,1.695-5.124,1.803C48.616,84.161,47.62,84.33,47.783,83.748
		L47.783,83.748z"/>
	<path fill="#E4A189" d="M48.109,83.591c0.052-0.526,1.818-1.57,2.262-1.93c2.083-1.37,4.175-2.2,5.078-2.514
		c8.818-3.401,14.741-5.013,31.52-6.114c5.395-0.398,13.353-0.543,18.558-0.073c0.422,0.182,2.365,0.354,2.451,1.262
		c0.4,0.632-2.787,0.916-3.5,1.043c-1.961,0.185-4.174,0.261-6.5,0.208c-4.321-0.102-6.582,0.149-10.259,0.345
		c-16.921,0.816-26.816,3.36-33.438,6.421c-1.35,0.699-3.731,1.632-4.993,1.759C49.016,83.935,47.986,84.137,48.109,83.591
		L48.109,83.591z"/>
	<path fill="#E4A58C" d="M48.435,83.435c0.011-0.492,1.795-1.53,2.208-1.863c2.026-1.312,4.063-2.119,5-2.446
		c8.651-3.318,14.691-4.918,30.961-6.003c5.346-0.401,13.104-0.557,18.354-0.135c0.391,0.168,2.336,0.32,2.471,1.194
		c0.434,0.624-2.818,0.893-3.48,1.011c-1.948,0.177-4.122,0.252-6.402,0.209c-4.23-0.083-6.533,0.164-10.142,0.363
		c-16.452,0.821-26.233,3.285-32.867,6.286c-1.332,0.677-3.623,1.569-4.866,1.718C49.417,83.708,48.352,83.945,48.435,83.435
		L48.435,83.435z"/>
	<path fill="#E4A68F" d="M48.761,83.278c-0.03-0.458,1.771-1.488,2.151-1.797c1.969-1.252,3.952-2.039,4.922-2.374
		c8.483-3.237,14.641-4.824,30.404-5.895c5.294-0.404,12.857-0.571,18.148-0.196c0.358,0.156,2.309,0.286,2.488,1.125
		c0.471,0.614-2.85,0.871-3.459,0.979c-1.936,0.169-4.07,0.244-6.305,0.211c-4.138-0.064-6.487,0.177-10.029,0.378
		c-15.982,0.825-25.649,3.209-32.294,6.153c-1.315,0.652-3.51,1.505-4.737,1.673C49.817,83.482,48.716,83.751,48.761,83.278
		L48.761,83.278z"/>
	<path fill="#E4AA93" d="M49.087,83.12c-0.071-0.424,1.747-1.445,2.095-1.729c1.914-1.194,3.84-1.956,4.844-2.304
		c8.315-3.155,14.592-4.73,29.844-5.786c5.246-0.406,12.609-0.585,17.943-0.257c0.33,0.143,2.285,0.252,2.508,1.055
		c0.508,0.605-2.879,0.851-3.438,0.95c-1.919,0.158-4.021,0.234-6.207,0.21c-4.045-0.046-6.438,0.191-9.914,0.396
		c-15.513,0.829-25.066,3.135-31.726,6.021c-1.296,0.628-3.396,1.441-4.607,1.631C50.218,83.255,49.084,83.558,49.087,83.12
		L49.087,83.12z"/>
	<path fill="#E7AD97" d="M49.413,82.964c-0.111-0.391,1.725-1.406,2.041-1.662c1.854-1.136,3.728-1.875,4.765-2.237
		c8.149-3.072,14.542-4.635,29.284-5.675c5.196-0.408,12.363-0.597,17.74-0.319c0.3,0.13,2.258,0.219,2.527,0.986
		c0.541,0.598-2.91,0.828-3.418,0.919c-1.903,0.151-3.971,0.225-6.106,0.212c-3.956-0.028-6.393,0.206-9.802,0.413
		c-15.044,0.832-24.48,3.06-31.154,5.887c-1.279,0.603-3.284,1.378-4.479,1.587C50.619,83.029,49.45,83.365,49.413,82.964
		L49.413,82.964z"/>
	<path fill="#E7B19C" d="M49.739,82.806c-0.152-0.355,1.701-1.363,1.984-1.595c1.799-1.078,3.616-1.793,4.687-2.167
		c7.981-2.988,14.492-4.54,28.726-5.566c5.146-0.41,12.117-0.611,17.537-0.379c0.27,0.116,2.229,0.184,2.545,0.917
		c0.577,0.587-2.938,0.805-3.396,0.887c-1.889,0.143-3.92,0.218-6.01,0.214c-3.862-0.009-6.344,0.219-9.686,0.429
		c-14.576,0.835-23.898,2.985-30.583,5.754c-1.261,0.579-3.173,1.316-4.349,1.543C51.019,82.802,49.816,83.172,49.739,82.806
		L49.739,82.806z"/>
	<path fill="#EBB7A3" d="M50.064,82.65c-0.191-0.322,1.677-1.322,1.931-1.529c1.741-1.019,3.504-1.713,4.607-2.096
		c7.815-2.907,14.442-4.447,28.167-5.457c5.098-0.414,11.872-0.625,17.333-0.442c0.238,0.104,2.201,0.151,2.562,0.85
		c0.609,0.578-2.969,0.783-3.374,0.855c-1.876,0.134-3.871,0.208-5.913,0.215c-3.771,0.01-6.298,0.234-9.572,0.445
		c-14.107,0.841-23.316,2.911-30.012,5.62c-1.245,0.556-3.061,1.254-4.222,1.501C51.42,82.575,50.182,82.979,50.064,82.65
		L50.064,82.65z"/>
	<path fill="#EDBAA6" d="M50.39,82.492c-0.233-0.287,1.654-1.281,1.876-1.46c1.684-0.961,3.39-1.632,4.528-2.027
		c7.647-2.825,14.394-4.352,27.608-5.348c5.049-0.415,11.623-0.638,17.128-0.503c0.21,0.091,2.175,0.118,2.582,0.78
		c0.646,0.57-3,0.762-3.354,0.825c-1.857,0.125-3.818,0.199-5.816,0.216c-3.677,0.027-6.25,0.249-9.456,0.46
		c-13.639,0.846-22.734,2.838-29.442,5.488c-1.226,0.532-2.949,1.19-4.092,1.458C51.82,82.35,50.549,82.787,50.39,82.492
		L50.39,82.492z"/>
	<path fill="#EDBEAB" d="M50.715,82.335c-0.272-0.254,1.632-1.24,1.822-1.393c1.626-0.903,3.278-1.552,4.451-1.958
		c7.479-2.743,14.343-4.257,27.048-5.237c4.999-0.419,11.377-0.653,16.924-0.566c0.182,0.078,2.148,0.084,2.602,0.711
		c0.681,0.561-3.025,0.74-3.33,0.794c-1.847,0.116-3.771,0.191-5.718,0.217c-3.587,0.046-6.202,0.262-9.344,0.477
		C72,76.23,63.02,78.142,56.3,80.735c-1.208,0.508-2.837,1.127-3.963,1.416C52.22,82.123,50.914,82.593,50.715,82.335L50.715,82.335
		z"/>
	<path fill="#EEC2B0" d="M51.042,82.179c-0.314-0.221,1.605-1.198,1.765-1.326c1.569-0.843,3.167-1.47,4.372-1.889
		c7.312-2.659,14.293-4.164,26.49-5.127c4.948-0.421,11.128-0.667,16.719-0.627c0.149,0.066,2.121,0.05,2.621,0.642
		c0.717,0.552-3.059,0.719-3.312,0.763c-1.828,0.109-3.717,0.182-5.616,0.219c-3.497,0.064-6.157,0.276-9.229,0.494
		c-12.701,0.852-21.567,2.688-28.3,5.221c-1.19,0.484-2.724,1.064-3.834,1.371C52.62,81.897,51.281,82.399,51.042,82.179
		L51.042,82.179z"/>
	<path fill="#EEC4B2" d="M51.37,82.022c-0.356-0.187,1.582-1.156,1.709-1.259c1.511-0.786,3.054-1.388,4.292-1.819
		c7.146-2.579,14.245-4.07,25.932-5.018c4.899-0.425,10.883-0.681,16.514-0.689c0.123,0.052,2.098,0.015,2.642,0.573
		c0.751,0.542-3.088,0.694-3.29,0.731c-1.814,0.098-3.667,0.175-5.52,0.219c-3.405,0.082-6.11,0.29-9.117,0.511
		c-12.231,0.855-20.982,2.612-27.728,5.088c-1.172,0.46-2.614,1.002-3.706,1.329C53.021,81.67,51.646,82.207,51.37,82.022
		L51.37,82.022z"/>
	<path fill="#EAC3B4" d="M51.694,81.864c-0.396-0.152,1.559-1.113,1.654-1.19c1.456-0.728,2.943-1.308,4.214-1.75
		c6.978-2.497,14.194-3.975,25.372-4.91c4.85-0.426,10.636-0.693,16.314-0.75c0.088,0.039,2.065-0.018,2.655,0.505
		c0.787,0.534-3.113,0.673-3.27,0.701c-1.801,0.09-3.616,0.165-5.42,0.22c-3.314,0.1-6.063,0.304-9.003,0.527
		c-11.762,0.86-20.399,2.537-27.157,4.954c-1.154,0.436-2.499,0.938-3.576,1.286C53.421,81.443,52.014,82.015,51.694,81.864
		L51.694,81.864z"/>
	<path fill="#EAC7B7" d="M52.021,81.708c-0.437-0.12,1.535-1.074,1.6-1.125c1.396-0.668,2.83-1.226,4.135-1.679
		c6.811-2.415,14.145-3.882,24.814-4.801c4.8-0.429,10.389-0.708,16.109-0.811c0.059,0.025,2.039-0.053,2.678,0.435
		c0.818,0.526-3.148,0.651-3.25,0.669c-1.786,0.083-3.565,0.157-5.324,0.223c-3.221,0.119-6.015,0.318-8.887,0.544
		c-11.292,0.863-19.816,2.461-26.584,4.821c-1.138,0.411-2.389,0.875-3.449,1.242C53.821,81.216,52.379,81.822,52.021,81.708
		L52.021,81.708z"/>
	<path fill="#F0CCBE" d="M52.346,81.55c-0.478-0.084,1.513-1.031,1.545-1.057c1.34-0.61,2.718-1.145,4.056-1.609
		c6.644-2.332,14.095-3.788,24.256-4.691c4.75-0.431,10.142-0.721,15.901-0.873c0.03,0.014,2.016-0.085,2.697,0.366
		c0.855,0.518-3.177,0.63-3.229,0.639c-1.77,0.073-3.516,0.147-5.225,0.224c-3.129,0.136-5.968,0.332-8.773,0.56
		c-10.824,0.867-19.233,2.387-26.015,4.689c-1.119,0.386-2.276,0.811-3.318,1.197C54.221,80.991,52.744,81.629,52.346,81.55
		L52.346,81.55z"/>
	<path fill="#F1D0C2" d="M54.16,80.405c10.294-4.424,23.131-6.362,43.374-7.057c0,0,1.986-0.12,2.715,0.297
		c0.891,0.507-3.205,0.607-3.205,0.607c-19.071,0.7-32.487,2.569-42.422,6.512c0,0-1.51,0.672-1.95,0.629
		C52.154,81.343,54.16,80.405,54.16,80.405L54.16,80.405z"/>
	<path fill="#792221" d="M146.735,103.8c0,0.03,0.005,0.055,0.007,0.065c0,0-0.284,1.968,3.178,1.487c0,0,0.347-0.03,0.86-0.153
		c1.051-0.237,1.875-0.652,2.436-1.401h0.001c0.216-0.293,0.396-0.637,0.529-1.041l1.171-3.83c0.007-0.023,0.014-0.05,0.014-0.076
		c0-0.121-0.086-0.224-0.199-0.252c-0.004,0-4.698-0.388-6.201,0.854C147.026,100.701,146.726,103.306,146.735,103.8L146.735,103.8z
		 M122.896,87.447c0.496-0.001,0.934-0.041,1.31-0.108c0.644-0.118,1.174-0.536,1.444-1.104c0.141-0.295,0.268-0.624,0.381-1
		l0.432-1.412c0.09-0.304,0.146-0.57,0.178-0.803c0.06-0.467-0.171-0.805-0.629-0.898c-0.277-0.057-0.611-0.088-1.014-0.089h-1.29
		c-0.498,0.001-0.931,0.041-1.31,0.108c-0.646,0.117-1.176,0.535-1.448,1.103c-0.138,0.296-0.265,0.625-0.378,1l-0.432,1.411
		c-0.093,0.304-0.148,0.571-0.179,0.804c-0.055,0.467,0.171,0.806,0.627,0.898c0.281,0.058,0.615,0.089,1.017,0.09H122.896
		L122.896,87.447z M74.982,91.52c-0.607,1.131-1.792,1.897-3.154,1.897h-6.39L65.31,93.42c-0.147,0-0.266-0.121-0.266-0.27
		c0-0.03,0.006-0.058,0.014-0.084l0.045-0.151l1.389-4.545c0.323-1.221,1.425-2.119,2.733-2.119h5.716
		c0.566,0,1.038,0.406,1.146,0.945C76.086,87.196,76.476,88.785,74.982,91.52L74.982,91.52z M143.071,98.483
		c0.279-0.358,0.586-0.688,0.922-0.971c0.895-0.76,2.076-1.142,3.466-1.423c3.685-0.752,8.22-0.281,8.22-0.281
		c0.116,0,0.215-0.077,0.247-0.184l0.38-1.241c0.659-2.153-1.679-2.338-1.679-2.338c-0.431-0.044-0.846-0.071-1.242-0.087
		c-3.231-0.085-5.739,0.239-6.608,0.4l-0.784,0.145l-0.155,0.029c-0.35,0.092-0.428-0.15-0.365-0.477
		c0-0.005,0.16-0.855,0.793-1.728c0.284-0.397,0.568-0.744,1.526-0.93c1.092-0.213,5.147-0.811,10.005-0.307
		c0,0,5.594,0.48,4.027,5.576l-1.166,3.814l-1.626,5.315l-1.169,3.834c-0.135,0.438-0.54,0.759-1.016,0.759h-3.771
		c-0.339,0-0.611-0.279-0.611-0.623c0,0,0.002-0.064,0.009-0.112l0.088-0.429c0.002-0.082-0.047-0.129-0.104-0.129
		c-0.023,0-0.043,0.01-0.062,0.02c-2.381,1.162-4.961,1.383-4.961,1.383c-5.99,0.617-6.535-1.975-6.601-2.984
		c-0.03-0.479,0.002-1.07,0.099-1.719l0,0C141.187,102.101,141.886,100.008,143.071,98.483L143.071,98.483z M140.087,98.483
		l4.385-14.36c0.521-1.707-0.852-1.976-1.568-2.011h-0.379h-2.256c-0.478,0-0.879,0.319-1.017,0.757l-4.771,15.614l-1.623,5.315
		l-1.198,3.92c-0.015,0.05-0.022,0.103-0.022,0.152c0,0.286,0.229,0.521,0.512,0.521h4.129c0.475,0,0.88-0.318,1.016-0.759
		l1.168-3.834L140.087,98.483L140.087,98.483z M130.634,98.483l4.389-14.36c0.519-1.707-0.854-1.976-1.569-2.011h-0.377h-2.259
		c-0.479,0-0.881,0.319-1.016,0.757l-4.769,15.614l-1.626,5.315l-1.199,3.92c-0.012,0.05-0.02,0.103-0.02,0.152
		c0,0.286,0.229,0.521,0.511,0.521h4.127c0.476,0,0.882-0.318,1.015-0.759l1.172-3.834L130.634,98.483L130.634,98.483z
		 M116.3,98.483l2.581-8.449c0.136-0.438,0.537-0.758,1.015-0.758l4.125,0.002c0.285,0,0.516,0.232,0.516,0.517
		c0,0.053-0.008,0.104-0.023,0.153l-2.606,8.535l-1.624,5.316l-1.17,3.834c-0.133,0.439-0.541,0.758-1.019,0.758h-4.124
		c-0.281,0-0.512-0.232-0.512-0.52c0-0.051,0.007-0.104,0.02-0.152l1.199-3.92L116.3,98.483L116.3,98.483z M103.459,98.483
		l1.362-4.458c0.753-2.405,2.076-3.788,3.761-4.386l0.042-0.016c1.232-0.42,3.314-0.787,6.624-0.479c0,0,0.677,0.056,1.202,0.263
		c0,0,0.531,0.193,0.348,0.926c0,0-0.247,0.901-0.436,1.294c-0.135,0.331-0.364,0.583-0.662,0.49
		c-0.557-0.135-1.174-0.205-1.824-0.194c-0.622,0.012-1.212,0.095-1.748,0.239c-0.754,0.197-1.371,0.79-1.604,1.537l-1.461,4.783
		l-1.623,5.315l-1.172,3.834c-0.134,0.439-0.539,0.759-1.016,0.759h-4.128c-0.28,0-0.511-0.233-0.511-0.521
		c0-0.052,0.008-0.103,0.021-0.152l1.198-3.92L103.459,98.483L103.459,98.483z M83.219,98.483c0.28-0.358,0.585-0.688,0.92-0.971
		c0.894-0.76,2.08-1.142,3.467-1.423c3.683-0.752,8.221-0.281,8.221-0.281c0.116,0,0.212-0.077,0.245-0.184l0.378-1.241
		c0.662-2.153-1.674-2.338-1.674-2.338c-0.432-0.044-0.849-0.071-1.243-0.087c-3.232-0.085-5.74,0.239-6.607,0.4l-0.787,0.145
		l-0.156,0.029c-0.347,0.092-0.426-0.15-0.365-0.477c0-0.005,0.161-0.855,0.79-1.728c0.289-0.397,0.571-0.744,1.528-0.93
		c1.094-0.213,5.152-0.811,10.008-0.307c0,0,5.593,0.48,4.023,5.576l-1.166,3.814l-1.621,5.318l-1.174,3.834
		c-0.134,0.439-0.537,0.758-1.016,0.758h-3.768c-0.338,0-0.614-0.278-0.614-0.621c0,0,0.001-0.065,0.012-0.113l0.085-0.43
		c0.003-0.08-0.045-0.129-0.103-0.129c-0.022,0-0.042,0.01-0.061,0.021c-2.382,1.162-4.961,1.383-4.961,1.383
		c-5.992,0.617-6.536-1.976-6.601-2.985c-0.032-0.478,0-1.068,0.098-1.718l0,0C81.333,102.101,82.032,100.008,83.219,98.483
		L83.219,98.483z M73.231,98.683c-0.033,0.827-0.282,2.258-1.33,4.178c-0.186,0.349-0.417,0.662-0.687,0.939H71.21
		c-0.752,0.771-1.802,1.245-2.96,1.245h-6.491c-0.147,0-0.267-0.12-0.267-0.269c0-0.028,0.004-0.053,0.012-0.077l0.274-0.899
		l1.625-5.316l0.468-1.529c0.034-0.111,0.136-0.19,0.253-0.19h7.731c0.654,0,1.201,0.469,1.327,1.094
		C73.246,98.119,73.24,98.409,73.231,98.683L73.231,98.683z M79.784,98.479c-0.113-1.556-1.126-2.854-2.514-3.368
		c-0.06-0.026-0.092-0.071-0.092-0.123c0-0.057,0.039-0.105,0.089-0.121c1.09-0.343,2.03-0.781,2.793-1.601
		c2.206-2.455,2.283-6.354,2.283-6.354c0-2.212-1.771-4.005-3.958-4.005h-9.058c-2.366-0.003-3.995,0.329-5.071,0.696
		c-2.025,0.721-3.582,2.344-4.463,5.165l-2.966,9.714l-1.625,5.316l-1.058,3.463c-0.024,0.081-0.038,0.166-0.038,0.256
		c0,0.48,0.388,0.873,0.864,0.873h16.322c3.958-0.156,6.073-2.345,7.205-4.592c1.248-2.478,1.297-5.035,1.297-5.035
		C79.793,98.669,79.791,98.573,79.784,98.479L79.784,98.479L79.784,98.479z M93.364,103.798c0.218-0.293,0.394-0.637,0.529-1.041
		l1.17-3.83c0.008-0.023,0.012-0.05,0.012-0.076c0-0.121-0.084-0.224-0.198-0.252c-0.005,0-4.699-0.388-6.2,0.854
		c-1.505,1.248-1.808,3.853-1.793,4.347c0.001,0.03,0.002,0.055,0.006,0.065c0,0-0.286,1.968,3.179,1.487
		c0,0,0.347-0.03,0.858-0.153C91.979,104.962,92.802,104.547,93.364,103.798L93.364,103.798L93.364,103.798z"/>
	<path fill="#FFFFFF" d="M145.612,103.146c0,0.03,0.004,0.053,0.006,0.067c0,0-0.286,1.965,3.177,1.488c0,0,0.349-0.032,0.858-0.156
		c1.054-0.235,1.879-0.651,2.438-1.399c0.219-0.293,0.395-0.638,0.53-1.041l1.17-3.83c0.007-0.023,0.013-0.051,0.013-0.073
		c0-0.125-0.086-0.228-0.195-0.254c-0.006-0.003-4.7-0.39-6.205,0.854C145.899,100.045,145.599,102.653,145.612,103.146
		L145.612,103.146z M121.771,86.793c0.496,0,0.929-0.041,1.309-0.109c0.643-0.117,1.171-0.535,1.449-1.103
		c0.137-0.295,0.263-0.625,0.375-1.001l0.434-1.412c0.09-0.304,0.145-0.57,0.178-0.802c0.055-0.467-0.174-0.806-0.627-0.899
		c-0.279-0.058-0.613-0.09-1.014-0.09h-1.295c-0.497,0-0.93,0.04-1.307,0.109c-0.646,0.117-1.174,0.535-1.451,1.102
		c-0.137,0.296-0.264,0.626-0.375,1.002l-0.432,1.411c-0.094,0.304-0.148,0.57-0.181,0.804c-0.053,0.465,0.171,0.804,0.629,0.896
		c0.279,0.058,0.611,0.09,1.013,0.091L121.771,86.793L121.771,86.793z M73.856,90.865c-0.606,1.132-1.792,1.899-3.153,1.899h-6.391
		l-0.127,0.002c-0.147,0-0.266-0.121-0.266-0.269c0-0.03,0.004-0.058,0.013-0.084l0.046-0.15l1.389-4.544
		c0.323-1.222,1.423-2.121,2.731-2.121h5.717c0.566,0,1.037,0.406,1.147,0.945C74.962,86.542,75.35,88.132,73.856,90.865
		L73.856,90.865z M141.949,97.829c0.276-0.36,0.583-0.688,0.92-0.97c0.894-0.758,2.075-1.14,3.465-1.424
		c3.685-0.751,8.222-0.279,8.222-0.279c0.116,0,0.213-0.077,0.245-0.183l0.378-1.243c0.661-2.152-1.677-2.336-1.677-2.336
		c-0.431-0.045-0.849-0.073-1.242-0.088c-3.231-0.085-5.739,0.239-6.606,0.4l-0.788,0.145l-0.156,0.03
		c-0.344,0.092-0.424-0.151-0.362-0.477c0.002-0.005,0.161-0.855,0.791-1.728c0.285-0.4,0.571-0.745,1.527-0.931
		c1.092-0.212,5.15-0.809,10.008-0.308c0,0,5.592,0.481,4.023,5.579l-1.166,3.813l-1.621,5.316l-1.174,3.834
		c-0.133,0.438-0.536,0.758-1.014,0.758h-3.77c-0.34,0-0.614-0.278-0.614-0.619c0,0,0.002-0.067,0.015-0.115l0.082-0.43
		c0.006-0.081-0.043-0.129-0.103-0.129c-0.021,0-0.042,0.011-0.06,0.021c-2.385,1.159-4.961,1.382-4.961,1.382
		c-5.994,0.618-6.539-1.978-6.603-2.983c-0.03-0.48,0-1.072,0.099-1.718C140.06,101.446,140.76,99.354,141.949,97.829
		L141.949,97.829z M138.961,97.829l4.388-14.36c0.517-1.706-0.854-1.976-1.57-2.009h-0.379h-2.256c-0.479,0-0.881,0.318-1.017,0.757
		l-4.769,15.613l-1.625,5.315l-1.198,3.922c-0.013,0.048-0.021,0.101-0.021,0.154c0,0.283,0.229,0.516,0.512,0.516h4.125
		c0.479,0,0.885-0.318,1.018-0.758l1.171-3.834L138.961,97.829L138.961,97.829z M129.513,97.829l4.383-14.36
		c0.521-1.706-0.854-1.976-1.568-2.009h-0.379h-2.256c-0.478,0-0.879,0.318-1.017,0.757l-4.769,15.613l-1.623,5.315l-1.198,3.922
		c-0.015,0.048-0.022,0.101-0.022,0.154c0,0.283,0.229,0.516,0.513,0.516h4.126c0.477,0,0.881-0.318,1.016-0.758l1.172-3.834
		L129.513,97.829L129.513,97.829z M115.179,97.829l2.578-8.449c0.133-0.438,0.536-0.755,1.016-0.755h4.125
		c0.285,0,0.513,0.231,0.513,0.517c0,0.052-0.009,0.103-0.022,0.152l-2.604,8.535l-1.626,5.316l-1.171,3.834
		c-0.133,0.438-0.537,0.758-1.018,0.758h-4.127c-0.281,0-0.511-0.232-0.511-0.518c0-0.054,0.008-0.105,0.021-0.154l1.199-3.92
		L115.179,97.829L115.179,97.829z M102.334,97.829l1.36-4.456c0.754-2.406,2.078-3.787,3.765-4.387l0.04-0.016
		c1.232-0.42,3.316-0.786,6.626-0.477c0,0,0.675,0.055,1.199,0.262c0,0,0.532,0.193,0.347,0.927c0,0-0.246,0.901-0.432,1.292
		c-0.137,0.332-0.365,0.583-0.664,0.491c-0.557-0.136-1.174-0.205-1.823-0.194c-0.624,0.01-1.214,0.095-1.747,0.236
		c-0.757,0.198-1.372,0.792-1.605,1.539l-1.459,4.782l-1.625,5.315h-0.002l-1.168,3.834c-0.133,0.438-0.541,0.758-1.017,0.758
		h-4.128c-0.281,0-0.509-0.231-0.509-0.517c0-0.054,0.007-0.105,0.021-0.153l1.197-3.922L102.334,97.829L102.334,97.829z
		 M82.094,97.829c0.278-0.36,0.586-0.688,0.92-0.97c0.895-0.758,2.078-1.14,3.469-1.424c3.68-0.751,8.219-0.279,8.219-0.279
		c0.116,0,0.214-0.077,0.243-0.183l0.38-1.243c0.663-2.152-1.675-2.336-1.675-2.336c-0.431-0.045-0.847-0.073-1.241-0.088
		c-3.235-0.085-5.741,0.239-6.607,0.4l-0.788,0.145l-0.154,0.03c-0.349,0.092-0.427-0.151-0.366-0.477
		c0-0.005,0.161-0.855,0.792-1.728c0.287-0.4,0.569-0.745,1.526-0.931c1.094-0.212,5.152-0.809,10.006-0.308
		c0,0,5.593,0.481,4.025,5.579l-1.164,3.813l-1.625,5.316l-1.17,3.834c-0.135,0.438-0.539,0.758-1.016,0.758H92.1
		c-0.34,0-0.614-0.278-0.614-0.619c0,0,0.002-0.067,0.011-0.115l0.087-0.43c0.001-0.081-0.045-0.129-0.103-0.129
		c-0.022,0-0.042,0.011-0.062,0.021c-2.383,1.159-4.96,1.382-4.96,1.382c-5.992,0.618-6.537-1.978-6.601-2.983
		c-0.032-0.48,0.001-1.072,0.097-1.718C80.208,101.446,80.907,99.354,82.094,97.829L82.094,97.829z M62.278,97.829l0.469-1.531
		c0.033-0.109,0.134-0.189,0.252-0.189h7.731c0.653,0,1.201,0.47,1.327,1.094c0,0,0.052,0.216,0.052,0.627
		c0,0.788-0.195,2.296-1.331,4.379c-0.186,0.347-0.418,0.661-0.688,0.938h-0.003c-0.754,0.771-1.802,1.246-2.961,1.246h-6.492
		c-0.146,0-0.265-0.121-0.265-0.27c0-0.023,0.003-0.053,0.011-0.079l0.275-0.897L62.278,97.829L62.278,97.829z M78.659,97.826
		c-0.113-1.555-1.126-2.855-2.514-3.368c-0.059-0.025-0.091-0.071-0.091-0.123c0-0.058,0.037-0.106,0.088-0.123
		c1.089-0.341,2.031-0.779,2.793-1.6c2.207-2.454,2.284-6.354,2.284-6.354c0-2.211-1.772-4.005-3.96-4.005l-9.058,0.001
		c-2.364-0.005-3.995,0.328-5.072,0.695c-2.023,0.72-3.581,2.341-4.461,5.164L55.7,97.829l-1.625,5.316l-1.057,3.463
		c-0.025,0.08-0.038,0.166-0.038,0.254c0,0.484,0.389,0.875,0.866,0.875h16.322c3.957-0.156,6.072-2.342,7.204-4.592
		c1.248-2.478,1.297-5.033,1.297-5.033C78.669,98.017,78.666,97.921,78.659,97.826L78.659,97.826L78.659,97.826z M92.236,103.146
		c0.219-0.293,0.397-0.638,0.532-1.041l1.171-3.83c0.007-0.023,0.009-0.051,0.009-0.073c0-0.125-0.084-0.228-0.197-0.254
		c-0.004-0.003-4.698-0.39-6.2,0.854c-1.504,1.245-1.807,3.854-1.794,4.347c0.001,0.029,0.002,0.052,0.006,0.066
		c0,0-0.286,1.965,3.179,1.488c0,0,0.348-0.032,0.858-0.156C90.853,104.31,91.678,103.894,92.236,103.146L92.236,103.146z"/>
	<path fill="#D03F50" d="M156.454,121.64c-7.598,2.768-16.67,4.883-26.67,6.381c-15.729,2.35-17.946,1.205-17.999,0.846
		c-0.054-0.361,3.405-2.12,17.757-3.86c7.85-0.955,14.74-2.624,20.979-4.623c5.16-1.504,9.654-3.224,13.48-5.1
		c3.096-1.46,6.029-3.231,9.607-6.019h4.195c-0.559,0.559-1.172,1.159-1.851,1.809C169.29,117.437,164.06,118.87,156.454,121.64
		L156.454,121.64z"/>
	<path fill="#D24B50" d="M177.743,109.265c-0.553,0.555-1.164,1.153-1.842,1.801c-6.584,6.264-11.854,7.771-19.461,10.539
		c-7.597,2.764-16.662,4.888-26.664,6.379c-15.131,2.264-17.27,1.154-17.317,0.804c-0.05-0.354,3.274-2.05,17.087-3.728
		c8.78-1.074,16.379-3.029,23.194-5.351c3.178-1.002,6.084-2.089,8.716-3.245c4.166-1.729,7.707-3.652,12.247-7.199H177.743
		L177.743,109.265z"/>
	<path fill="#D35453" d="M177.677,109.265c-0.548,0.549-1.154,1.146-1.83,1.791c-6.505,6.168-11.813,7.746-19.414,10.516
		c-7.599,2.764-16.658,4.887-26.656,6.375c-14.534,2.173-16.594,1.104-16.645,0.758c-0.046-0.346,3.151-1.979,16.414-3.592
		c9.938-1.223,18.383-3.56,25.868-6.283l0.2-0.073c0.98-0.344,1.934-0.694,2.857-1.056c5.635-2.128,9.76-4.071,15.323-8.436H177.677
		L177.677,109.265z"/>
	<path fill="#D35B53" d="M177.608,109.265c-0.541,0.545-1.145,1.137-1.817,1.779c-6.423,6.071-11.771,7.727-19.372,10.493
		c-7.598,2.76-16.648,4.887-26.648,6.369c-13.938,2.083-15.914,1.057-15.961,0.718c-0.049-0.338,3.018-1.912,15.736-3.456
		c9.941-1.231,18.403-3.56,25.891-6.283c7.351-2.676,11.967-4.516,18.447-9.62H177.608L177.608,109.265z"/>
	<path fill="#D46355" d="M177.544,109.265c-0.536,0.541-1.135,1.129-1.809,1.771c-6.346,5.969-11.729,7.699-19.332,10.464
		c-7.592,2.763-16.641,4.89-26.637,6.371c-13.345,1.993-15.24,1.004-15.285,0.673c-0.049-0.33,2.893-1.843,15.066-3.32
		c9.939-1.236,18.419-3.56,25.907-6.285c7.388-2.686,12.078-4.58,18.524-9.674H177.544L177.544,109.265z"/>
	<path fill="#D66957" d="M177.479,109.265c-0.528,0.535-1.125,1.121-1.797,1.764c-6.268,5.871-11.689,7.674-19.289,10.438
		c-7.594,2.766-16.635,4.893-26.629,6.369c-12.746,1.904-14.565,0.954-14.606,0.631c-0.05-0.322,2.76-1.775,14.393-3.188
		c9.94-1.245,18.437-3.56,25.927-6.283c7.422-2.701,12.19-4.645,18.594-9.729h3.408V109.265z"/>
	<path fill="#D66C59" d="M177.412,109.265c-0.521,0.529-1.112,1.111-1.784,1.754c-6.186,5.772-11.648,7.647-19.246,10.412
		c-7.592,2.764-16.628,4.894-26.622,6.368c-12.147,1.812-13.886,0.9-13.931,0.584c-0.044-0.312,2.635-1.704,13.725-3.055
		c9.939-1.251,18.457-3.556,25.946-6.28c7.459-2.713,12.306-4.711,18.663-9.783H177.412L177.412,109.265z"/>
	<path fill="#D7735D" d="M177.345,109.265c-0.515,0.523-1.101,1.104-1.773,1.744c-6.105,5.676-11.604,7.625-19.197,10.389
		c-7.592,2.763-16.621,4.894-26.617,6.362c-11.552,1.729-13.209,0.851-13.25,0.544c-0.046-0.306,2.504-1.638,13.051-2.92
		c9.938-1.261,18.475-3.556,25.963-6.283c7.49-2.723,12.412-4.773,18.709-9.817l0.021-0.019H177.345L177.345,109.265z"/>
	<path fill="#D77760" d="M177.278,109.265c-0.506,0.519-1.088,1.094-1.76,1.735c-6.024,5.574-11.562,7.601-19.158,10.362
		c-7.592,2.761-16.613,4.894-26.608,6.359c-10.954,1.639-12.53,0.801-12.571,0.5c-0.047-0.299,2.375-1.566,12.377-2.785
		c9.94-1.269,18.49-3.555,25.983-6.279c7.491-2.727,12.479-4.822,18.685-9.801c0.023-0.021,0.058-0.051,0.101-0.092H177.278
		L177.278,109.265z"/>
	<path fill="#D97B62" d="M177.212,109.265c-0.498,0.512-1.077,1.086-1.75,1.729c-5.943,5.476-11.518,7.572-19.113,10.338
		c-7.589,2.758-16.605,4.893-26.604,6.355c-10.355,1.545-11.85,0.75-11.893,0.457c-0.043-0.289,2.248-1.502,11.707-2.649
		c9.941-1.276,18.51-3.556,26.004-6.281c7.492-2.726,12.549-4.871,18.66-9.782c0.035-0.029,0.094-0.087,0.174-0.164h2.814V109.265z"
		/>
	<path fill="#D98065" d="M177.146,109.265c-0.488,0.506-1.062,1.075-1.737,1.719c-5.863,5.377-11.479,7.549-19.07,10.311
		c-7.589,2.762-16.603,4.896-26.593,6.355c-9.766,1.457-11.182,0.699-11.221,0.414c-0.039-0.283,2.123-1.431,11.035-2.516
		c9.942-1.283,18.528-3.557,26.024-6.279c7.491-2.729,12.618-4.925,18.635-9.762c0.048-0.038,0.134-0.123,0.251-0.242H177.146
		L177.146,109.265z"/>
	<path fill="#DC8469" d="M177.078,109.265c-0.479,0.498-1.05,1.064-1.724,1.709c-5.787,5.278-11.438,7.524-19.031,10.286
		c-7.586,2.761-16.592,4.896-26.581,6.353c-9.165,1.369-10.501,0.646-10.541,0.373c-0.039-0.276,1.989-1.364,10.362-2.385
		c9.942-1.289,18.545-3.555,26.043-6.281c7.492-2.727,12.688-4.969,18.609-9.739c0.057-0.045,0.168-0.156,0.324-0.313h2.538V109.265
		z"/>
	<path fill="#DC876E" d="M177.011,109.265c-0.468,0.49-1.031,1.053-1.71,1.699c-5.708,5.182-11.397,7.499-18.985,10.262
		c-7.586,2.762-16.588,4.897-26.578,6.35c-8.567,1.283-9.824,0.599-9.862,0.33c-0.039-0.27,1.864-1.295,9.69-2.252
		c9.941-1.293,18.562-3.551,26.062-6.278c7.493-2.728,12.757-5.019,18.588-9.722c0.062-0.051,0.203-0.19,0.396-0.389H177.011
		L177.011,109.265z"/>
	<path fill="#DF8E72" d="M176.938,109.265c-0.457,0.481-1.015,1.041-1.695,1.69c-5.626,5.082-11.352,7.474-18.939,10.237
		c-7.59,2.758-16.58,4.898-26.568,6.345c-7.975,1.19-9.148,0.548-9.187,0.288c-0.036-0.262,1.735-1.229,9.021-2.115
		c9.941-1.304,18.58-3.551,26.078-6.279c7.496-2.729,12.828-5.068,18.565-9.701c0.07-0.058,0.238-0.229,0.472-0.465H176.938
		L176.938,109.265z"/>
	<path fill="#E19277" d="M176.87,109.265c-0.441,0.473-0.991,1.027-1.68,1.683c-5.547,4.981-11.313,7.448-18.9,10.211
		c-7.583,2.758-16.572,4.899-26.561,6.345c-7.375,1.1-8.472,0.494-8.508,0.242c-0.033-0.253,1.605-1.159,8.346-1.979
		c9.945-1.312,18.604-3.554,26.101-6.281c7.498-2.729,12.897-5.118,18.543-9.683c0.077-0.062,0.274-0.263,0.546-0.536h2.113V109.265
		z"/>
	<path fill="#E1957B" d="M176.797,109.265c-0.425,0.461-0.967,1.014-1.659,1.674c-5.469,4.884-11.272,7.424-18.859,10.186
		c-7.584,2.758-16.567,4.898-26.553,6.342c-6.779,1.012-7.793,0.443-7.83,0.199c-0.031-0.245,1.479-1.09,7.674-1.846
		c9.947-1.316,18.621-3.555,26.123-6.279c7.496-2.73,12.965-5.167,18.515-9.665c0.084-0.067,0.313-0.3,0.622-0.608h1.968V109.265z"
		/>
	<path fill="#E49B81" d="M176.724,109.265c-0.404,0.447-0.938,0.994-1.64,1.662c-5.39,4.787-11.231,7.401-18.815,10.161
		c-7.582,2.761-16.561,4.899-26.547,6.338c-6.182,0.925-7.117,0.397-7.148,0.157c-0.034-0.236,1.348-1.021,7-1.712
		c9.945-1.323,18.637-3.55,26.141-6.277c7.498-2.729,13.037-5.214,18.491-9.642c0.091-0.074,0.354-0.342,0.704-0.688H176.724
		L176.724,109.265z"/>
	<path fill="#E49F87" d="M176.646,109.265c-0.381,0.434-0.902,0.975-1.619,1.653c-5.308,4.688-11.19,7.377-18.771,10.133
		c-7.582,2.761-16.55,4.905-26.536,6.341c-5.587,0.832-6.442,0.34-6.474,0.11c-0.034-0.229,1.219-0.949,6.329-1.574
		c9.946-1.331,18.657-3.552,26.159-6.28c7.498-2.729,13.103-5.263,18.467-9.623c0.098-0.078,0.4-0.383,0.787-0.76H176.646
		L176.646,109.265z"/>
	<path fill="#E4A58E" d="M176.563,109.265c-0.349,0.413-0.856,0.948-1.59,1.646c-5.229,4.589-11.149,7.352-18.731,10.11
		c-7.578,2.758-16.544,4.901-26.529,6.334c-4.989,0.742-5.762,0.291-5.793,0.069c-0.03-0.223,1.093-0.887,5.654-1.44
		c9.948-1.342,18.675-3.553,26.183-6.281c7.498-2.729,13.172-5.312,18.44-9.604c0.104-0.084,0.45-0.431,0.872-0.834H176.563
		L176.563,109.265z"/>
	<path fill="#E4AA93" d="M176.474,109.265c-0.308,0.389-0.793,0.916-1.554,1.639c-5.149,4.488-11.106,7.322-18.688,10.082
		c-7.578,2.758-16.539,4.904-26.521,6.332c-4.394,0.652-5.087,0.24-5.117,0.025c-0.028-0.214,0.968-0.816,4.986-1.31
		c9.946-1.347,18.69-3.546,26.194-6.277c7.504-2.729,13.244-5.36,18.422-9.583c0.111-0.092,0.509-0.482,0.965-0.908H176.474
		L176.474,109.265z"/>
	<path fill="#E7B19A" d="M176.37,109.265c-0.25,0.354-0.703,0.866-1.508,1.627c-5.068,4.39-11.063,7.303-18.644,10.06
		c-7.575,2.756-16.53,4.903-26.514,6.331c-3.795,0.562-4.409,0.187-4.438-0.02c-0.029-0.207,0.834-0.746,4.312-1.171
		c9.947-1.356,18.709-3.552,26.216-6.28c7.506-2.729,13.315-5.408,18.399-9.562c0.121-0.1,0.582-0.549,1.068-0.984H176.37
		L176.37,109.265z"/>
	<path fill="#EBB7A3" d="M176.237,109.265c-0.162,0.299-0.549,0.786-1.43,1.618c-4.99,4.294-11.02,7.276-18.602,10.034
		c-7.576,2.756-16.523,4.904-26.506,6.323c-3.2,0.478-3.73,0.142-3.758-0.06c-0.027-0.199,0.705-0.677,3.641-1.039
		c9.943-1.359,18.729-3.545,26.232-6.276c7.508-2.731,13.381-5.462,18.373-9.542c0.136-0.11,0.686-0.635,1.191-1.059H176.237
		L176.237,109.265z"/>
	<path fill="#EDBCA8" d="M176.033,109.265c-0.024,0.207-0.222,0.611-1.28,1.609c-4.908,4.191-10.982,7.251-18.557,10.007
		c-7.576,2.759-16.516,4.909-26.499,6.324c-2.601,0.389-3.056,0.088-3.081-0.103c-0.028-0.191,0.578-0.609,2.968-0.903
		c9.947-1.369,18.748-3.55,26.256-6.28c7.507-2.73,13.45-5.508,18.349-9.523c0.153-0.125,0.853-0.771,1.343-1.131H176.033
		L176.033,109.265z"/>
	<path fill="#EEC2B0" d="M175.735,109.396c-0.041,0.153,0.17,0.338-1.035,1.471c-4.832,4.096-10.942,7.225-18.518,9.979
		c-7.572,2.758-16.509,4.91-26.488,6.323c-2.004,0.297-2.379,0.037-2.403-0.146c-0.028-0.185,0.449-0.541,2.295-0.771
		c9.949-1.377,18.765-3.548,26.274-6.278c7.508-2.733,13.521-5.557,18.326-9.504C174.407,110.291,175.733,109.125,175.735,109.396
		L175.735,109.396z"/>
	<path fill="#EAC3B4" d="M175.448,109.729c-0.061,0.143,0.056,0.324-0.805,1.127c-4.75,3.992-10.897,7.201-18.471,9.955
		c-7.574,2.756-16.506,4.91-26.482,6.318c-1.41,0.21-1.701-0.013-1.729-0.189c-0.023-0.174,0.319-0.472,1.625-0.633
		c9.949-1.385,18.785-3.547,26.294-6.279c7.507-2.735,13.589-5.604,18.302-9.482C174.385,110.379,175.497,109.485,175.448,109.729
		L175.448,109.729z"/>
	<path fill="#EECCBC" d="M175.158,110.062c-0.08,0.137-0.054,0.316-0.567,0.785c-4.671,3.896-10.857,7.176-18.43,9.934
		c-7.572,2.756-16.497,4.908-26.473,6.313c-0.814,0.12-1.026-0.063-1.051-0.231c-0.025-0.168,0.191-0.404,0.951-0.5
		c9.949-1.393,18.803-3.547,26.312-6.278c7.511-2.733,13.658-5.653,18.277-9.464C174.364,110.466,175.256,109.847,175.158,110.062
		L175.158,110.062z"/>
	<path fill="#F1D0C2" d="M174.536,110.837c-4.592,3.797-10.816,7.152-18.389,9.907c-7.567,2.756-16.488,4.909-26.465,6.312
		c-0.216,0.03-0.349-0.115-0.371-0.274c-0.022-0.161,0.063-0.337,0.28-0.366c9.95-1.396,18.818-3.546,26.33-6.277
		c7.515-2.732,13.731-5.701,18.253-9.443c0.168-0.139,0.844-0.483,0.696-0.299C174.771,110.522,174.706,110.697,174.536,110.837
		L174.536,110.837z"/>
	<path fill="#D03F50" d="M173.608,109.265c0.211-0.164,0.426-0.332,0.642-0.504c0.629-0.498,6.983-7.937,8.125-7.02
		c0.399,0.322,2.401,0.552-4.569,7.523H173.608L173.608,109.265z"/>
	<path fill="#D24B50" d="M182.086,102.075c0.38,0.312,2.292,0.539-4.343,7.189h-4.04c0.18-0.142,0.36-0.283,0.543-0.429
		C174.856,108.351,180.994,101.185,182.086,102.075L182.086,102.075z"/>
	<path fill="#D35453" d="M181.8,102.407c0.359,0.306,2.182,0.527-4.123,6.857h-3.881c0.148-0.117,0.299-0.234,0.448-0.354
		C174.836,108.438,180.756,101.545,181.8,102.407L181.8,102.407z"/>
	<path fill="#D35B53" d="M181.51,102.741c0.339,0.297,2.071,0.516-3.901,6.523h-3.725l0.355-0.281
		C174.817,108.524,180.517,101.905,181.51,102.741L181.51,102.741z"/>
	<path fill="#D46355" d="M181.22,103.073c0.321,0.287,1.963,0.503-3.676,6.191h-3.562l0.259-0.205
		C174.796,108.616,180.276,102.267,181.22,103.073L181.22,103.073z"/>
	<path fill="#D66957" d="M180.933,103.406c0.301,0.276,1.854,0.489-3.451,5.858h-3.41l0.164-0.132
		C174.776,108.703,180.04,102.627,180.933,103.406L180.933,103.406z"/>
	<path fill="#D66C59" d="M180.644,103.737c0.28,0.271,1.744,0.479-3.23,5.527h-3.249l0.069-0.056
		C174.755,108.791,179.8,102.989,180.644,103.737L180.644,103.737z"/>
	<path fill="#D7735D" d="M180.354,104.071c0.261,0.26,1.633,0.467-3.01,5.193h-3.097
		C174.851,108.745,179.567,103.356,180.354,104.071L180.354,104.071z"/>
	<path fill="#D77760" d="M180.063,104.401c0.242,0.254,1.526,0.453-2.785,4.863h-2.953
		C175.153,108.465,179.356,103.745,180.063,104.401L180.063,104.401z"/>
	<path fill="#D97B62" d="M179.774,104.737c0.223,0.24,1.416,0.438-2.562,4.527h-2.814
		C175.349,108.319,179.136,104.123,179.774,104.737L179.774,104.737z"/>
	<path fill="#D98065" d="M179.487,105.069c0.201,0.231,1.307,0.427-2.342,4.195h-2.676
		C175.495,108.228,178.91,104.5,179.487,105.069L179.487,105.069z"/>
	<path fill="#DC8469" d="M179.199,105.401c0.18,0.225,1.196,0.414-2.121,3.863h-2.537
		C175.606,108.181,178.681,104.872,179.199,105.401L179.199,105.401z"/>
	<path fill="#DC876E" d="M178.911,105.735c0.162,0.213,1.087,0.398-1.9,3.529h-2.398
		C175.692,108.162,178.446,105.243,178.911,105.735L178.911,105.735z"/>
	<path fill="#DF8E72" d="M178.621,106.067c0.144,0.203,0.978,0.385-1.683,3.197h-2.254
		C175.763,108.165,178.214,105.612,178.621,106.067L178.621,106.067z"/>
	<path fill="#E19277" d="M178.333,106.401c0.124,0.192,0.868,0.367-1.463,2.863h-2.113
		C175.813,108.192,177.978,105.983,178.333,106.401L178.333,106.401z"/>
	<path fill="#E1957B" d="M178.043,106.731c0.104,0.187,0.759,0.354-1.246,2.533h-1.969
		C175.851,108.237,177.737,106.353,178.043,106.731L178.043,106.731z"/>
	<path fill="#E49B81" d="M177.757,107.065c0.084,0.174,0.648,0.336-1.033,2.199h-1.814
		C175.882,108.298,177.5,106.722,177.757,107.065L177.757,107.065z"/>
	<path fill="#E49F87" d="M177.467,107.397c0.068,0.16,0.542,0.316-0.819,1.867h-1.66
		C175.896,108.378,177.259,107.09,177.467,107.397L177.467,107.397z"/>
	<path fill="#E4A58E" d="M177.179,107.731c0.047,0.146,0.434,0.293-0.613,1.533h-1.494
		C175.896,108.476,177.015,107.46,177.179,107.731L177.179,107.731z"/>
	<path fill="#E4AA93" d="M176.892,108.063c0.028,0.131,0.322,0.268-0.418,1.201h-1.312
		C175.888,108.587,176.769,107.827,176.892,108.063L176.892,108.063z"/>
	<path fill="#E7B19A" d="M176.603,108.396c0.014,0.117,0.217,0.235-0.231,0.869h-1.106
		C175.871,108.722,176.519,108.2,176.603,108.396L176.603,108.396z"/>
	<path fill="#EBB7A3" d="M176.313,108.729c0,0.093,0.111,0.188-0.076,0.535h-0.855C175.842,108.879,176.267,108.573,176.313,108.729
		L176.313,108.729z"/>
	<path fill="#EDBCA8" d="M176.022,109.062c-0.004,0.053,0.021,0.106,0.011,0.203h-0.503
		C175.799,109.067,176.006,108.955,176.022,109.062L176.022,109.062z"/>
	<path fill="#D03F50" d="M38.457,69.659c7.729-2.54,16.918-4.368,27.017-5.527c15.885-1.823,18.075-0.578,18.115-0.209
		c0.039,0.37-3.496,2.031-17.974,3.287c-10.028,0.869-18.557,2.957-26.172,5.456c-7.606,2.5-13.189,4.776-20.364,10.148
		c-0.649,0.486-6.305,7.767-7.419,6.793c-0.423-0.373-3.715-0.639,5.783-9.207C24.356,74.166,30.719,72.2,38.457,69.659
		L38.457,69.659z"/>
	<path fill="#D24B50" d="M11.923,89.28c-0.405-0.361-3.566-0.625,5.574-8.868c6.831-6.138,13.235-8.178,20.97-10.718
		c7.73-2.537,16.911-4.369,27.01-5.524c15.281-1.754,17.392-0.551,17.432-0.19c0.037,0.361-3.365,1.966-17.295,3.173
		c-10.029,0.876-18.575,2.956-26.19,5.457c-7.61,2.499-13.263,4.823-20.341,10.129C18.452,83.211,12.988,90.226,11.923,89.28
		L11.923,89.28z"/>
	<path fill="#D35453" d="M12.186,88.953c-0.383-0.351-3.416-0.611,5.366-8.529c6.748-6.042,13.191-8.155,20.926-10.693
		c7.728-2.54,16.905-4.371,27.001-5.523c14.679-1.684,16.711-0.523,16.748-0.169c0.038,0.353-3.231,1.901-16.613,3.06
		c-10.029,0.884-18.593,2.956-26.209,5.457c-7.612,2.498-13.335,4.87-20.316,10.107C18.475,83.123,13.203,89.869,12.186,88.953
		L12.186,88.953z"/>
	<path fill="#D35B53" d="M12.449,88.628c-0.362-0.343-3.266-0.599,5.156-8.193c6.665-5.943,13.15-8.13,20.883-10.67
		c7.726-2.536,16.897-4.371,26.993-5.52c14.078-1.614,16.029-0.496,16.066-0.151c0.037,0.346-3.101,1.836-15.933,2.949
		c-10.029,0.891-18.611,2.953-26.229,5.454c-7.612,2.5-13.406,4.917-20.291,10.091C18.499,83.034,13.417,89.512,12.449,88.628
		L12.449,88.628z"/>
	<path fill="#D46355" d="M12.713,88.302c-0.342-0.333-3.116-0.587,4.948-7.856c6.581-5.845,13.107-8.108,20.838-10.645
		c7.726-2.537,16.891-4.374,26.987-5.518c13.472-1.546,15.345-0.471,15.381-0.133c0.035,0.338-2.969,1.771-15.253,2.836
		c-10.031,0.898-18.63,2.952-26.249,5.455c-7.613,2.5-13.477,4.964-20.266,10.07C18.524,82.944,13.633,89.156,12.713,88.302
		L12.713,88.302z"/>
	<path fill="#D66957" d="M12.976,87.976c-0.322-0.324-2.966-0.574,4.739-7.519c6.496-5.749,13.064-8.083,20.795-10.621
		c7.724-2.536,16.882-4.375,26.978-5.515c12.871-1.477,14.665-0.443,14.7-0.113c0.034,0.33-2.838,1.707-14.574,2.725
		c-10.033,0.904-18.648,2.95-26.269,5.452c-7.613,2.5-13.547,5.011-20.239,10.052C18.546,82.855,13.846,88.8,12.976,87.976
		L12.976,87.976z"/>
	<path fill="#D66C59" d="M13.24,87.65c-0.301-0.313-2.816-0.561,4.53-7.183c6.414-5.65,13.022-8.057,20.751-10.595
		c7.723-2.537,16.876-4.375,26.969-5.513c12.269-1.408,13.982-0.416,14.019-0.094c0.033,0.323-2.708,1.641-13.895,2.611
		c-10.033,0.914-18.667,2.95-26.287,5.453c-7.616,2.501-13.62,5.06-20.217,10.031C18.57,82.767,14.062,88.442,13.24,87.65
		L13.24,87.65z"/>
	<path fill="#D7735D" d="M13.504,87.323c-0.281-0.304-2.667-0.548,4.321-6.844c6.33-5.553,12.978-8.034,20.706-10.573
		c7.723-2.536,16.87-4.376,26.961-5.511c11.667-1.337,13.301-0.387,13.334-0.073c0.033,0.315-2.574,1.576-13.214,2.5
		c-10.032,0.919-18.683,2.949-26.305,5.451c-7.618,2.501-13.692,5.106-20.192,10.013C18.594,82.678,14.276,88.087,13.504,87.323
		L13.504,87.323z"/>
	<path fill="#D77760" d="M13.767,86.999c-0.261-0.296-2.519-0.536,4.111-6.508c6.247-5.455,12.938-8.012,20.664-10.549
		c7.72-2.534,16.862-4.377,26.953-5.507c11.064-1.268,12.62-0.36,12.651-0.055c0.034,0.306-2.442,1.51-12.534,2.387
		c-10.033,0.928-18.702,2.947-26.325,5.451c-7.617,2.501-13.761,5.153-20.167,9.994C18.617,82.588,14.491,87.731,13.767,86.999
		L13.767,86.999z"/>
	<path fill="#D97B62" d="M14.031,86.672c-0.241-0.287-2.368-0.522,3.903-6.17c6.163-5.357,12.894-7.988,20.617-10.524
		c7.721-2.535,16.856-4.377,26.946-5.505c10.461-1.199,11.938-0.333,11.97-0.034c0.031,0.297-2.311,1.445-11.854,2.273
		c-10.033,0.935-18.72,2.946-26.344,5.449c-7.62,2.502-13.833,5.2-20.141,9.975C18.641,82.499,14.705,87.374,14.031,86.672
		L14.031,86.672z"/>
	<path fill="#D98065" d="M14.294,86.347c-0.221-0.278-2.219-0.51,3.694-5.834c6.079-5.259,12.851-7.964,20.573-10.5
		c7.721-2.534,16.849-4.38,26.938-5.502c9.859-1.13,11.256-0.307,11.285-0.016c0.032,0.291-2.179,1.381-11.172,2.162
		c-10.035,0.943-18.738,2.944-26.363,5.448c-7.622,2.502-13.906,5.248-20.119,9.954C18.665,82.41,14.92,87.018,14.294,86.347
		L14.294,86.347z"/>
	<path fill="#DC8469" d="M14.557,86.02c-0.199-0.266-2.068-0.497,3.485-5.496c5.998-5.162,12.81-7.939,20.531-10.476
		c7.72-2.534,16.842-4.38,26.931-5.5c9.257-1.062,10.573-0.278,10.604,0.003c0.029,0.283-2.049,1.315-10.495,2.049
		c-10.035,0.952-18.757,2.944-26.383,5.449c-7.622,2.503-13.977,5.294-20.092,9.934C18.688,82.323,15.135,86.661,14.557,86.02
		L14.557,86.02z"/>
	<path fill="#DC876E" d="M14.821,85.693c-0.18-0.257-1.92-0.483,3.275-5.158c5.913-5.064,12.766-7.916,20.486-10.451
		c7.718-2.533,16.834-4.382,26.922-5.498c8.653-0.992,9.892-0.252,9.92,0.022c0.03,0.274-1.916,1.251-9.813,1.937
		c-10.035,0.958-18.776,2.943-26.403,5.447c-7.624,2.503-14.047,5.342-20.067,9.916C18.712,82.233,15.35,86.305,14.821,85.693
		L14.821,85.693z"/>
	<path fill="#DF8E72" d="M15.083,85.368c-0.158-0.249-1.768-0.471,3.069-4.823c5.828-4.966,12.722-7.891,20.441-10.426
		c7.716-2.534,16.828-4.385,26.915-5.497c8.051-0.922,9.209-0.224,9.238,0.043c0.027,0.267-1.785,1.185-9.134,1.824
		c-10.036,0.965-18.793,2.942-26.422,5.447c-7.624,2.504-14.119,5.389-20.043,9.896C18.736,82.144,15.564,85.95,15.083,85.368
		L15.083,85.368z"/>
	<path fill="#E19277" d="M15.348,85.042c-0.139-0.24-1.619-0.459,2.859-4.485c5.745-4.869,12.679-7.869,20.398-10.403
		c7.716-2.534,16.82-4.385,26.907-5.493c7.448-0.854,8.527-0.198,8.554,0.061c0.028,0.26-1.653,1.122-8.454,1.713
		C55.575,67.407,46.8,69.376,39.17,71.88c-7.626,2.504-14.19,5.435-20.018,9.878C18.76,82.055,15.779,85.591,15.348,85.042
		L15.348,85.042z"/>
	<path fill="#E1957B" d="M15.612,84.716c-0.12-0.229-1.47-0.445,2.649-4.147c5.662-4.772,12.638-7.844,20.354-10.378
		c7.714-2.533,16.813-4.386,26.897-5.492c6.847-0.784,7.847-0.169,7.872,0.082c0.028,0.251-1.521,1.055-7.772,1.599
		c-10.038,0.982-18.83,2.939-26.46,5.446c-7.628,2.505-14.262,5.482-19.993,9.857C18.783,81.967,15.994,85.236,15.612,84.716
		L15.612,84.716z"/>
	<path fill="#E49B81" d="M15.875,84.391c-0.098-0.222-1.32-0.434,2.441-3.812c5.578-4.674,12.594-7.821,20.311-10.354
		c7.713-2.532,16.806-4.388,26.89-5.489c6.244-0.715,7.164-0.143,7.19,0.1c0.024,0.243-1.392,0.991-7.094,1.487
		c-10.039,0.988-18.849,2.938-26.481,5.444c-7.629,2.506-14.333,5.531-19.969,9.838C18.807,81.876,16.208,84.879,15.875,84.391
		L15.875,84.391z"/>
	<path fill="#E49F87" d="M16.138,84.064c-0.077-0.211-1.169-0.419,2.233-3.473c5.495-4.576,12.553-7.796,20.267-10.33
		c7.712-2.531,16.798-4.388,26.881-5.487c5.641-0.645,6.482-0.115,6.507,0.121c0.024,0.234-1.26,0.924-6.414,1.373
		c-10.04,0.997-18.867,2.937-26.5,5.444c-7.629,2.506-14.404,5.578-19.943,9.819C18.83,81.788,16.422,84.523,16.138,84.064
		L16.138,84.064z"/>
	<path fill="#E4A58E" d="M16.401,83.738c-0.058-0.202-1.02-0.406,2.024-3.136c5.41-4.48,12.508-7.774,20.222-10.306
		c7.711-2.532,16.792-4.391,26.874-5.484c5.04-0.576,5.799-0.089,5.825,0.139c0.024,0.227-1.127,0.859-5.733,1.262
		c-10.04,1.003-18.885,2.935-26.519,5.441c-7.632,2.508-14.476,5.625-19.92,9.801C18.853,81.698,16.637,84.167,16.401,83.738
		L16.401,83.738z"/>
	<path fill="#E4AA93" d="M16.665,83.412c-0.037-0.192-0.87-0.394,1.814-2.799c5.327-4.381,12.467-7.75,20.18-10.283
		c7.709-2.53,16.784-4.391,26.865-5.48c4.436-0.508,5.118-0.062,5.142,0.159c0.022,0.218-0.996,0.795-5.053,1.148
		c-10.041,1.011-18.904,2.936-26.539,5.442c-7.633,2.507-14.548,5.672-19.894,9.781C18.877,81.61,16.852,83.811,16.665,83.412
		L16.665,83.412z"/>
	<path fill="#E7B19A" d="M16.929,83.086c-0.018-0.183-0.722-0.381,1.605-2.462c5.243-4.284,12.424-7.725,20.135-10.257
		c7.708-2.531,16.779-4.393,26.857-5.479c3.833-0.439,4.437-0.034,4.458,0.177c0.022,0.212-0.864,0.73-4.374,1.037
		c-10.04,1.017-18.92,2.933-26.556,5.441c-7.636,2.506-14.62,5.718-19.87,9.761C18.902,81.522,17.067,83.454,16.929,83.086
		L16.929,83.086z"/>
	<path fill="#EBB7A3" d="M17.191,82.761c0.003-0.173-0.57-0.369,1.396-2.125c5.162-4.187,12.383-7.703,20.092-10.234
		c7.707-2.53,16.77-4.393,26.849-5.477c3.231-0.37,3.755-0.006,3.776,0.197s-0.733,0.664-3.694,0.925
		c-10.041,1.025-18.939,2.932-26.576,5.44c-7.636,2.507-14.689,5.766-19.844,9.742C18.925,81.433,17.282,83.098,17.191,82.761
		L17.191,82.761z"/>
	<path fill="#EDBCA8" d="M17.455,82.434c0.023-0.164-0.42-0.354,1.187-1.788c5.077-4.088,12.341-7.678,20.047-10.209
		c7.708-2.53,16.766-4.394,26.842-5.474c2.63-0.3,3.073,0.021,3.093,0.216c0.02,0.195-0.601,0.599-3.014,0.813
		c-10.042,1.031-18.957,2.929-26.596,5.437c-7.637,2.508-14.761,5.814-19.82,9.723C18.949,81.343,17.497,82.742,17.455,82.434
		L17.455,82.434z"/>
	<path fill="#EEC2B0" d="M17.719,82.109c0.045-0.155-0.271-0.344,0.979-1.451c4.995-3.992,12.296-7.654,20.004-10.185
		c7.705-2.53,16.757-4.397,26.833-5.473c2.026-0.23,2.39,0.048,2.411,0.235c0.02,0.188-0.47,0.536-2.334,0.701
		c-10.044,1.04-18.975,2.93-26.615,5.438c-7.638,2.508-14.833,5.86-19.795,9.704C18.973,81.254,17.711,82.384,17.719,82.109
		L17.719,82.109z"/>
	<path fill="#EAC3B4" d="M17.982,81.783c0.066-0.146-0.121-0.331,0.77-1.114c4.911-3.893,12.254-7.63,19.959-10.16
		c7.704-2.529,16.751-4.396,26.826-5.47c1.424-0.161,1.709,0.075,1.727,0.254c0.02,0.181-0.336,0.47-1.653,0.588
		c-10.045,1.046-18.994,2.928-26.634,5.438c-7.64,2.508-14.904,5.906-19.77,9.684C18.998,81.166,17.925,82.029,17.982,81.783
		L17.982,81.783z"/>
	<path fill="#EECCBC" d="M18.245,81.456c0.086-0.136,0.029-0.316,0.561-0.777c4.828-3.796,12.213-7.606,19.915-10.134
		c7.704-2.53,16.744-4.399,26.819-5.467c0.822-0.093,1.026,0.102,1.044,0.272c0.02,0.172-0.206,0.405-0.973,0.476
		c-10.045,1.054-19.013,2.927-26.654,5.437c-7.641,2.508-14.976,5.954-19.745,9.665C19.02,81.076,18.14,81.672,18.245,81.456
		L18.245,81.456z"/>
	<path fill="#F1D0C2" d="M18.86,80.692c4.744-3.699,12.17-7.583,19.872-10.113c7.701-2.528,16.737-4.399,26.81-5.464
		c0.219-0.024,0.346,0.13,0.363,0.294c0.017,0.164-0.074,0.339-0.294,0.362c-10.046,1.062-19.031,2.926-26.673,5.436
		c-7.643,2.509-15.046,6.002-19.721,9.646c-0.173,0.135-0.862,0.463-0.708,0.278C18.615,81.004,18.687,80.827,18.86,80.692
		L18.86,80.692z"/>
</g>
</svg>
