<?xml version="1.0" encoding="utf-8"?>
<!-- Generator: Adobe Illustrator 16.0.0, SVG Export Plug-In . SVG Version: 6.00 Build 0)  -->
<!DOCTYPE svg PUBLIC "-//W3C//DTD SVG 1.1//EN" "http://www.w3.org/Graphics/SVG/1.1/DTD/svg11.dtd">
<svg version="1.1" id="Layer_3" xmlns="http://www.w3.org/2000/svg" xmlns:xlink="http://www.w3.org/1999/xlink" x="0px" y="0px"
	 width="452.762px" height="242.281px" viewBox="0 0 452.762 242.281" enable-background="new 0 0 452.762 242.281"
	 xml:space="preserve">
<g>
	<path fill="#1C75BC" d="M296.704,193.125c25,0,46.668,21.667,46.668,21.667s11.666-11,40.666-11
		c36.018,0,63.668,26.667,63.668,26.667s-0.317-67.334-31.317-129.667c-30.606-61.542-56.687-84.333-56.687-84.333
		s-41.855,32.697-108.646,40.161l-8.002-36.493l-3.332,11.333c0,0-3.304-3.068-8.323-4.041c0,0-5.176-1.355-10.035,0
		c-4.925,1.374-8.323,4.041-8.323,4.041l-3.333-11.333l-8.001,36.493C134.915,49.156,93.06,16.458,93.06,16.458
		S66.98,39.25,36.374,100.792c-31,62.333-31.318,129.667-31.318,129.667s27.651-26.667,63.668-26.667c29,0,40.667,11,40.667,11
		s21.667-21.667,46.667-21.667c41.667,0,70.337,32,70.337,32S255.038,193.125,296.704,193.125z"/>
	<path fill="#231F20" d="M359.702,16.458c0,0,26.08,22.791,56.687,84.333c31,62.333,31.317,129.667,31.317,129.667
		s-27.65-26.667-63.668-26.667c-29,0-40.666,11-40.666,11s-21.668-21.667-46.668-21.667c-41.666,0-70.31,32-70.31,32
		s-28.67-32-70.337-32c-25,0-46.667,21.667-46.667,21.667s-11.667-11-40.667-11c-36.017,0-63.668,26.667-63.668,26.667
		s0.318-67.334,31.318-129.667C66.98,39.25,93.06,16.458,93.06,16.458s41.855,32.697,108.647,40.161l8.001-36.493l3.333,11.333
		c0,0,3.398-2.667,8.323-4.041c1.62-0.452,3.274-0.603,4.761-0.603c2.973,0,5.273,0.603,5.273,0.603
		c5.02,0.973,8.323,4.041,8.323,4.041l3.332-11.333l8.002,36.493C317.847,49.156,359.702,16.458,359.702,16.458 M243.76,0
		l-5.503,18.715l-1.509,5.131c-1.268-0.529-2.695-0.997-4.263-1.311c-0.716-0.174-3.224-0.721-6.36-0.721
		c-2.18,0-4.234,0.265-6.104,0.786c-1.443,0.403-2.771,0.895-3.958,1.41l-1.557-5.296l-5.503-18.714l-4.177,19.054l-7.028,32.053
		c-62.055-8.132-101.261-38.279-101.659-38.59l-3.256-2.544l-3.112,2.719c-1.096,0.958-27.178,24.152-57.873,85.872
		c-16.294,32.763-24.081,66.832-27.744,89.643c-3.97,24.723-4.094,41.524-4.097,42.228L0,242.281l8.526-8.224
		c0.259-0.248,26.709-25.266,60.198-25.266c25.749,0,36.728,9.199,37.255,9.656l3.517,3.456l3.431-3.577
		c0.199-0.197,20.557-20.202,43.131-20.202c38.843,0,66.344,30.038,66.617,30.341l3.727,4.139l3.719-4.145
		c0.269-0.299,27.744-30.335,66.584-30.335c22.667,0,42.931,20.001,43.133,20.202l3.505,3.506l3.442-3.385
		c0.528-0.458,11.507-9.656,37.254-9.656c33.61,0,59.935,25.014,60.197,25.266l8.526,8.224l-0.056-11.846
		c-0.003-0.703-0.127-17.505-4.097-42.228c-3.663-22.812-11.45-56.88-27.744-89.643c-30.694-61.719-56.777-84.914-57.873-85.872
		l-3.111-2.719l-3.253,2.542l0,0c-0.103,0.08-10.462,8.081-28.671,16.864c-16.011,7.723-41.407,17.583-72.991,21.728l-7.028-32.052
		L243.76,0L243.76,0z"/>
</g>
<g>
	<path fill="#FFF200" d="M344.707,39.625c-4.951,2.979-5.944,3.779-11.571,6.373l51.238,149.459c0,0,10.334-0.667,20.667,3
		l-25.334-73.332c0,0,10.465,8.751,25,36.5c11,21,17.428,40.053,17.428,40.053l18.28,10.691c0,0-7.708-54.744-31.708-106.244
		c-22.82-48.97-46.123-78.919-46.123-78.919c-4.918,4.276-6.092,5.369-11.377,9.419c0,0,17.51,28.495,23,38.5
		c5.76,10.495,22,43.5,22,43.5L344.707,39.625z"/>
	<path fill="#231F20" d="M362.584,27.206c0,0,23.303,29.949,46.123,78.919c24,51.5,31.708,106.244,31.708,106.244l-18.28-10.691
		c0,0-6.428-19.053-17.428-40.053c-14.535-27.749-25-36.5-25-36.5l25.334,73.332c-7.577-2.688-15.154-3.048-18.657-3.048
		c-1.274,0-2.01,0.048-2.01,0.048L333.136,45.998c5.627-2.594,6.62-3.394,11.571-6.373l51.5,79c0,0-16.24-33.005-22-43.5
		c-5.49-10.005-23-38.5-23-38.5C356.492,32.575,357.666,31.482,362.584,27.206 M363.006,22.863l-2.391,2.079l-1.517,1.321
		c-3.708,3.23-5.095,4.439-9.717,7.98l-2.147,1.646l1.417,2.306c0.128,0.209,9.554,15.554,16.676,27.566l-18.106-27.775
		l-1.581-2.424l-2.479,1.492c-0.93,0.56-1.721,1.042-2.43,1.476c-3.043,1.858-4.432,2.707-8.851,4.743l-2.461,1.134l0.879,2.563
		l51.238,149.459l0.743,2.169l2.288-0.147c0.003-0.001,0.674-0.042,1.816-0.042c3.568,0,10.605,0.374,17.654,2.875l5.874,2.085
		l-2.035-5.892L387.83,139.45c3.919,5.511,8.782,13.188,14.22,23.566c10.753,20.529,17.179,39.432,17.242,39.62l0.359,1.063
		l0.969,0.567l18.28,10.691l5.35,3.128l-0.864-6.136c-0.078-0.552-8.047-55.781-31.96-107.093
		c-22.7-48.714-46.239-79.192-46.474-79.494L363.006,22.863L363.006,22.863z"/>
</g>
<g>
	<path fill="#FFF200" d="M244.683,64.969c-5.661,0.324-11.408,0.49-17.226,0.49c-1.142,0-2.282-0.006-3.418-0.019l4,147.353
		c0,0,2.865-3.355,9.671-8.335c5.626-4.116,9.996-5.665,9.996-5.665v-44.334l14,35l10.333-40.333l0.667,36c0,0,12.332-2,21.666-2
		l-3.077-124.73c-7.29,1.689-14.847,3.098-22.625,4.202l-11.631,58.528L244.683,64.969z"/>
	<path fill="#231F20" d="M291.295,58.395l3.077,124.73c-9.334,0-21.666,2-21.666,2l-0.667-36l-10.333,40.333l-14-35v44.334
		c0,0-4.37,1.549-9.996,5.665c-6.806,4.979-9.671,8.335-9.671,8.335l-4-147.353c1.137,0.013,2.276,0.019,3.418,0.019
		c5.817,0,11.564-0.166,17.226-0.49l12.356,56.156l11.631-58.528C276.448,61.493,284.005,60.084,291.295,58.395 M294.203,54.642
		l-3.586,0.831c-7.236,1.677-14.763,3.075-22.369,4.154l-2.105,0.299l-0.415,2.086l-8.838,44.473l-9.277-42.161l-0.549-2.497
		l-2.552,0.146c-5.627,0.322-11.364,0.485-17.055,0.485c-1.131,0-2.259-0.006-3.385-0.019l-3.117-0.035l0.084,3.116l4,147.352
		l0.212,7.804l5.069-5.937c0.021-0.025,2.791-3.202,9.16-7.862c5.149-3.768,9.193-5.246,9.234-5.261l1.982-0.715l0.008-2.11v-28.756
		l8.215,20.536l3.411,8.529l2.28-8.899l4.838-18.882l0.257,13.86l0.063,3.459l3.416-0.554c0.121-0.02,12.208-1.961,21.186-1.961
		h3.075l-0.076-3.074l-3.077-124.73L294.203,54.642L294.203,54.642z"/>
</g>
<g>
	<path fill="#FFF200" d="M216.697,87.434l-1.028-23.038c-17.229-0.671-33.728-2.801-49.089-6.168l0.468,23.103
		c3.979,0.864,8.036,1.643,12.159,2.337v105.958c0,0,4.147,0.503,10.439,2.832c7.063,2.614,11.061,5.168,11.061,5.168V86.417
		C205.961,86.89,211.288,87.242,216.697,87.434z"/>
	<path fill="#231F20" d="M166.58,58.228c15.361,3.367,31.859,5.498,49.089,6.168l1.028,23.038
		c-5.409-0.192-10.736-0.544-15.99-1.017v111.208c0,0-3.998-2.554-11.061-5.168c-6.292-2.329-10.439-2.832-10.439-2.832V83.667
		c-4.124-0.695-8.18-1.473-12.159-2.337L166.58,58.228 M163.503,54.482l0.077,3.806l0.468,23.103l0.048,2.368l2.315,0.503
		c3.182,0.691,6.467,1.338,9.796,1.931v103.433v2.658l2.639,0.32c0.033,0.004,3.932,0.51,9.759,2.667
		c6.624,2.452,10.453,4.861,10.491,4.885l4.607,2.924l0.004-5.454V89.683c4.415,0.353,8.657,0.6,12.883,0.75l3.249,0.115
		l-0.145-3.247l-1.028-23.038l-0.123-2.756l-2.757-0.107c-16.726-0.651-33.065-2.704-48.563-6.102L163.503,54.482L163.503,54.482z"
		/>
</g>
<g>
	<path fill="#FFF200" d="M139.206,189.125c0,0,11.168-3.001,24.001-1.834l-3.494-130.668c-8.134-2.024-15.917-4.4-23.283-7.095
		L80.208,197.291c0,0,10.5,0.333,20.5,5.834l14.82-38.334h23.386L139.206,189.125z M122.228,147.458l15.979-41.333l0.498,41.333
		H122.228z"/>
	<path fill="#231F20" d="M136.431,49.528c7.366,2.694,15.148,5.071,23.283,7.095l3.494,130.668c-2.09-0.19-4.133-0.27-6.094-0.27
		c-10.078,0-17.907,2.104-17.907,2.104l-0.293-24.334h-23.386l-14.82,38.334c-10-5.501-20.5-5.834-20.5-5.834L136.431,49.528
		 M122.228,147.458h16.477l-0.498-41.333L122.228,147.458 M134.68,45.693l-1.053,2.768L77.404,196.225l-1.496,3.932l4.205,0.133
		c0.094,0.004,9.943,0.4,19.149,5.465l3.006,1.653l1.238-3.2l14.078-36.416h18.366l0.257,21.37l0.047,3.863l3.731-1.002
		c0.073-0.02,7.605-2.001,17.129-2.001c1.987,0,3.945,0.087,5.822,0.257l3.361,0.306l-0.09-3.373l-3.494-130.668l-0.061-2.28
		l-2.214-0.551c-7.961-1.981-15.691-4.336-22.976-7.001L134.68,45.693L134.68,45.693z M126.604,144.458l8.791-22.738l0.274,22.738
		H126.604L126.604,144.458z"/>
</g>
<g>
	<path fill="#FFF200" d="M352.374,201.793c0,0,8.834-4.167,22.334-5.5L325.863,48.498c-7.349,3.02-15.171,5.709-23.393,8.03
		l-0.763,127.1c0,0,14.666,2,20.833,6.5v-27.639l18.946,1.718L352.374,201.793z M322.541,142.656V98.793l13.047,45.046
		L322.541,142.656z"/>
	<path fill="#231F20" d="M325.863,48.498l48.845,147.795c-13.5,1.333-22.334,5.5-22.334,5.5l-10.887-37.587l-18.946-1.718v27.639
		c-6.167-4.5-20.833-6.5-20.833-6.5l0.763-127.1C310.692,54.207,318.515,51.517,325.863,48.498 M335.588,143.839l-13.047-45.046
		v43.863L335.588,143.839 M327.701,44.499l-2.979,1.224c-7.258,2.982-15.019,5.646-23.066,7.917l-2.172,0.613l-0.014,2.256
		l-0.763,127.1l-0.016,2.633l2.609,0.357c3.874,0.53,14.924,2.633,19.471,5.951l4.769,3.479v-5.903v-24.354l13.635,1.236
		l10.316,35.619l0.979,3.38l3.183-1.502c0.08-0.037,8.59-3.968,21.349-5.228l3.729-0.368l-1.176-3.559L328.712,47.556
		L327.701,44.499L327.701,44.499z M325.541,139.916v-19.981l5.943,20.521L325.541,139.916L325.541,139.916z"/>
</g>
<g>
	<g>
		<path fill="#FFF200" d="M120.955,42.949c-10.861-5.074-20.513-10.909-28.684-17.356c0,0-17.52,12.704-46.731,72.369
			c-35.167,71.831-34,118.333-34,118.333c9-7.166,36.322-18.003,48.167-18.003c10.167,0,14.333-10.168,14.333-10.168
			s18-40.5,23.333-56.666S93.54,108.96,93.54,108.96c8,3.5,11.333-5.499,11.333-5.499s15.167-32.167,20.167-44.5
			S120.955,42.949,120.955,42.949z M64.545,152.623c-6.833,18.167-7.834,20.334-12.667,21.667s-16.166,5.833-16.166,5.833
			s3.195-18.928,10-37.5c8-21.834,14.5-31.5,14.5-31.5s12.333,5,12.333,13.667S71.378,134.456,64.545,152.623z M95.045,76.957
			c-5.667,9.333-9.167,17-13.667,17S70.545,89.29,70.545,89.29s6.334-13.167,12.167-23.167s12-18.167,12-18.167s9,4.5,9,8.5
			S100.711,67.623,95.045,76.957z"/>
		<path fill="#231F20" d="M92.271,25.593c8.17,6.447,17.822,12.282,28.684,17.356c0,0,9.085,3.679,4.085,16.012
			s-20.167,44.5-20.167,44.5s-2.336,6.307-7.792,6.307c-1.061,0-2.24-0.238-3.542-0.808c0,0,9.167,6.332,3.833,22.498
			s-23.333,56.666-23.333,56.666s-4.167,10.168-14.333,10.168c-11.844,0-39.166,10.837-48.167,18.003c0,0-1.167-46.503,34-118.333
			C74.751,38.296,92.271,25.593,92.271,25.593 M81.378,93.957c4.5,0,8-7.667,13.667-17s8.667-16.5,8.667-20.5s-9-8.5-9-8.5
			s-6.167,8.167-12,18.167S70.545,89.29,70.545,89.29S76.878,93.957,81.378,93.957 M35.712,180.123c0,0,11.333-4.5,16.166-5.833
			s5.833-3.5,12.667-21.667s8-19.166,8-27.833s-12.333-13.667-12.333-13.667s-6.5,9.666-14.5,31.5
			C38.907,161.195,35.712,180.123,35.712,180.123 M92.348,21.832l-1.838,1.333c-0.74,0.537-18.46,13.828-47.664,73.478
			c-18.308,37.395-26.656,67.863-30.436,86.836c-4.122,20.694-3.881,32.403-3.869,32.892l0.151,6.027l4.716-3.756
			c8.407-6.693,35.172-17.35,46.298-17.35c11.768,0,16.684-11.022,17.088-11.98c0.915-2.058,18.137-40.88,23.427-56.914
			c3.088-9.361,1.768-15.889-0.289-20.051c4.167-1.277,6.724-5.166,7.704-7.713c1.126-2.389,15.304-32.51,20.183-44.545
			c3.077-7.588,1.451-12.577-0.454-15.426c-1.958-2.928-4.585-4.192-5.188-4.453c-10.65-4.979-20.087-10.689-28.049-16.972
			L92.348,21.832L92.348,21.832z M74.398,88.238c2.083-4.221,6.656-13.319,10.905-20.604c3.946-6.766,8.089-12.734,10.263-15.763
			c2.709,1.677,5.015,3.683,5.147,4.61c-0.001,1.593-0.804,6.68-8.233,18.917c-1.026,1.69-1.966,3.299-2.875,4.854
			c-2.931,5.017-6.253,10.703-8.228,10.703C79.468,90.957,76.555,89.533,74.398,88.238L74.398,88.238z M39.686,175.366
			c1.42-6.855,4.341-19.427,8.843-31.711c5.646-15.408,10.558-24.701,12.831-28.643c3.417,1.889,8.185,5.475,8.185,9.778
			c0,6.469-0.599,8.021-4.499,18.118c-0.896,2.321-2.012,5.21-3.309,8.658c-6.827,18.149-7.493,18.959-10.657,19.832
			C48.249,172.179,43.396,173.957,39.686,175.366L39.686,175.366z"/>
	</g>
</g>
<path fill="#231F20" d="M242.864,46.893c-0.093-0.421-0.655-3.039-0.6-4.689c0.01-0.306,0.004-1.138-0.267-2.267l-0.494-2.061
	l-0.475,2.043l-0.968-4.177l-0.727,3.134l-0.968-4.174l-0.728,3.134l-0.968-4.174l-0.727,3.132l-0.969-4.176l-0.727,3.132
	l-1.011-4.361l-0.88,3.793l-1.021-4.404l-0.913,3.942l-1.022-4.403l-0.961,4.146l-1.12-3.97l-0.767,3.305l-0.767-3.305l-1.121,3.97
	l-0.961-4.146l-1.021,4.403l-0.914-3.942l-1.021,4.404l-0.88-3.792l-1.011,4.361l-0.727-3.133l-0.968,4.176l-0.727-3.133
	l-0.968,4.176l-0.727-3.133l-0.968,4.175l-0.535-2.305l-0.621,1.242c-0.011,0.022-1.04,4.224-1.036,4.391
	c0.055,1.648-0.507,4.268-0.6,4.689c-0.8,1.641-0.501,4.971-0.324,5.262l0.347,0.571l0.45-0.493l0.145-0.246l-0.02-0.22
	c-0.034-0.37,0.411-1.261,1.998-1.658c0.984-0.238,2.266,1.086,3.385,2.255c0.492,0.514,0.957,1,1.422,1.393
	c0.211,0.179,0.43,0.358,0.646,0.534c-0.836-0.479-1.652-1.048-2.253-1.55c-0.714-0.595-1.652-0.72-2.314-0.72
	c-0.875,0-1.771,0.221-2.284,0.563c-0.199,0.133-0.326,0.338-0.358,0.579c-0.08,0.597,0.422,1.34,1.272,2.331
	c-0.285,0.31-0.621,0.823-1.105,1.593c-0.158,0.25-0.31,0.493-0.447,0.699c-0.744,1.116,0.421,3.728,0.662,4.24l0.141,0.272
	l0.3,0.015c0.325,0.016,3.66,0.471,4.73,1.487c0.809,0.769,2.481,1.289,3.958,1.748c0.936,0.291,1.904,0.591,2.286,0.861
	c0.69,0.487,2.967,2.109,2.967,2.109l0.13,0.093h0.418l0.13-0.093c0,0,2.276-1.622,2.967-2.109c0.383-0.27,1.351-0.571,2.286-0.861
	c1.476-0.459,3.148-0.979,3.958-1.748c1.07-1.017,4.405-1.471,4.718-1.487h0.317l0.135-0.287c0.241-0.512,1.406-3.125,0.662-4.24
	c-0.138-0.206-0.29-0.449-0.447-0.699c-0.484-0.77-0.82-1.283-1.105-1.593c0.851-0.991,1.353-1.734,1.272-2.331
	c-0.032-0.241-0.159-0.446-0.358-0.579c-0.513-0.342-1.409-0.563-2.283-0.563c-0.662,0-1.601,0.125-2.314,0.72
	c-0.602,0.501-1.417,1.07-2.254,1.55c0.217-0.175,0.435-0.354,0.646-0.534c0.465-0.394,0.93-0.879,1.422-1.393
	c1.12-1.17,2.397-2.5,3.385-2.255c1.588,0.397,2.032,1.289,1.998,1.658l-0.023,0.301l0.594,0.658l0.35-0.568
	C243.365,51.869,243.669,48.542,242.864,46.893z"/>
<g>
	<g>
		<g>
			<path fill="#E6B9AC" d="M235.968,63.438c-1.25,1.188-5.125,1.812-6.188,2.562c-0.691,0.487-2.156,1.478-2.906,2.11h-0.078
				c-0.751-0.633-2.2-1.623-2.891-2.11c-1.062-0.75-4.938-1.375-6.188-2.562s-4.875-1.625-5.062-1.625c0,0,0.562,4.062,1.938,5.75
				s1.625,3,1.75,4.125s0.751,2.5,1.751,3.438c0,0,2.749,2.125,3.499,2.875s2.125,2.188,5.25,1.375
				c3.125,0.812,4.5-0.625,5.25-1.375s3.499-2.875,3.499-2.875c1-0.938,1.626-2.312,1.751-3.438s0.375-2.438,1.75-4.125
				s1.938-5.75,1.938-5.75C240.843,61.812,237.218,62.25,235.968,63.438z"/>
			<path fill="#231F20" d="M241.03,61.812c0,0-0.562,4.062-1.938,5.75s-1.625,3-1.75,4.125s-0.751,2.5-1.751,3.438
				c0,0-2.749,2.125-3.499,2.875c-0.593,0.593-1.577,1.616-3.509,1.616c-0.511,0-1.088-0.071-1.741-0.241
				c-0.653,0.17-1.23,0.241-1.741,0.241c-1.932,0-2.916-1.023-3.509-1.616c-0.75-0.75-3.499-2.875-3.499-2.875
				c-1-0.938-1.626-2.312-1.751-3.438s-0.375-2.438-1.75-4.125s-1.938-5.75-1.938-5.75c0.188,0,3.812,0.438,5.062,1.625
				s5.125,1.812,6.188,2.562c0.69,0.487,2.14,1.478,2.891,2.11h0.078c0.75-0.633,2.215-1.623,2.906-2.11
				c1.062-0.75,4.938-1.375,6.188-2.562S240.843,61.812,241.03,61.812 M242.179,60.812h-1.148c-0.037,0-4.152,0.381-5.751,1.9
				c-0.556,0.528-2.116,1.013-3.37,1.402c-1.143,0.355-2.13,0.662-2.705,1.068l-0.486,0.339c-0.567,0.394-1.287,0.894-1.882,1.344
				c-0.613-0.465-1.354-0.984-1.938-1.392l-0.416-0.292c-0.576-0.406-1.563-0.713-2.706-1.068c-1.253-0.39-2.814-0.875-3.369-1.402
				c-1.599-1.519-5.714-1.9-5.751-1.9h-1.148l0.157,1.137c0.062,0.444,0.645,4.393,2.153,6.245c1.208,1.483,1.419,2.593,1.532,3.604
				c0.162,1.463,0.952,3.017,2.061,4.057l0.035,0.033l0.038,0.029c0.751,0.581,2.826,2.213,3.404,2.791
				c0.688,0.689,1.907,1.909,4.216,1.909c0.549,0,1.133-0.071,1.741-0.211c0.608,0.141,1.192,0.211,1.741,0.211
				c2.309,0,3.527-1.219,4.182-1.875c0.612-0.613,2.688-2.245,3.438-2.826l0.038-0.029l0.034-0.033
				c1.109-1.04,1.898-2.594,2.062-4.057c0.112-1.01,0.322-2.121,1.531-3.604c1.508-1.852,2.091-5.8,2.152-6.245L242.179,60.812
				L242.179,60.812z"/>
		</g>
		<g>
			<path fill="#231F20" d="M227.04,71.222c1.838-0.056,4.282-0.959,5.933,0.506c-0.237-0.21-0.599-0.636-0.839-0.85
				c-0.733-0.651-1.584-0.857-2.375-0.862c-0.723-0.004-1.719,0.398-2.937,0.398c-1.256,0-2.706-0.394-3.876-0.384
				c-0.912,0.008-2.234,1.781-2.234,1.781C222.989,70.062,224.489,71.3,227.04,71.222z"/>
			<path fill="#231F20" d="M228.863,73.25c-0.704,0-1.255-0.214-1.926-0.203c-0.598,0.01-0.979,0.312-2.131,0.219
				c-1.01-0.082-2.01-0.471-2.66-1.303c-0.2-0.256-0.95,0.162-0.95,0.162c0.963,0.969,1.736,1.594,3.902,1.594
				c0.563,0,1.31-0.088,1.926-0.064c0.931,0.035,1.891,0.056,2.788-0.077c0.649-0.096,1.909-0.871,1.649-0.929
				C231.273,72.606,230.96,73.25,228.863,73.25z"/>
		</g>
		<path fill="#FFFFFF" d="M214.582,55.125c0,0,2.375-0.125,3.625,1s4.5,1.375,3,2S217.332,59.75,214.582,55.125z"/>
		<path fill="#FFFFFF" d="M238.607,55.125c0,0-2.375-0.125-3.625,1s-4.5,1.375-3,2S235.857,59.75,238.607,55.125z"/>
	</g>
	<polygon fill="#1C75BC" points="227.109,68.076 229.78,66 227.019,58.17 	"/>
</g>
</svg>
