<?xml version="1.0" encoding="utf-8"?>
<!-- Generator: Adobe Illustrator 16.0.0, SVG Export Plug-In . SVG Version: 6.00 Build 0)  -->
<!DOCTYPE svg PUBLIC "-//W3C//DTD SVG 1.1//EN" "http://www.w3.org/Graphics/SVG/1.1/DTD/svg11.dtd">
<svg version="1.1" id="Layer_1" xmlns="http://www.w3.org/2000/svg" xmlns:xlink="http://www.w3.org/1999/xlink" x="0px" y="0px"
	 width="149.105px" height="54.236px" viewBox="21.825 69.26 149.105 54.236" enable-background="new 21.825 69.26 149.105 54.236"
	 xml:space="preserve">
<g>
	<path fill="#1B5C9C" d="M23.891,122.979c0-3.902-2.066-53.72-2.066-53.72s26.401,0.115,30.303,1.549
		c21.35,5.682,9.987,21.178,8.093,22.039c3.96,2.239,3.615,2.354,5.682,4.477c11.708-22.555,36.5-10.961,38.569-5.854
		c0-6.485,0-19.972,0-19.972h17.045c0,0,0,10.272,0,13.085c6.142-3.271,12.568,0.172,12.568,0.172s-0.46-8.952,7.402-8.952
		c10.043,0,8.553,9.412,8.438,10.502c4.477-2.009,18.711-3.386,18.596-2.927c0.229,1.147,1.033,11.708,1.033,13.086
		c-1.378,0-8.093,0.172-8.093,0.172s9.47,5.798,9.47,11.191c0,15.725-28.754,15.668-28.754,15.668l-0.688-13.603l9.814-0.174
		c0,0-5.281-5.336-8.094-6.369c-8.896,18.709-28.295,19.627-30.475,19.627c-8.609,0-8.438-9.125-8.438-9.125
		s-4.305,9.297-18.422,9.297c-14.118,0-20.49-11.707-20.49-11.707S59.36,122.979,23.891,122.979L23.891,122.979z"/>
	<path fill="#E0622C" d="M27.66,119.992c0-2.826-1.06-46.164-1.177-48.284c33.68,0,36.86,4.593,36.86,10.717
		c0,6.831-7.89,10.599-7.89,10.599s10.716,2.944,10.716,9.893C66.169,104.33,67.583,119.992,27.66,119.992L27.66,119.992z"/>
	<path fill="#E0622C" d="M68.408,103.978c0,0,0.354-17.785,18.96-17.785c18.607,0,18.018,16.016,18.018,16.016
		s0.235,17.899-18.725,17.899S68.408,103.978,68.408,103.978L68.408,103.978z"/>
	<path fill="#E0622C" d="M119.987,89.727c0-5.771,0-16.487,0-16.487h-11.539c0,0,0,35.682,0,40.276c0,5.534,3.769,6.123,5.652,6.123
		c18.254,0,28.146-14.25,28.146-22.966C142.246,89.373,129.174,79.716,119.987,89.727L119.987,89.727z"/>
	<path fill="#E0622C" d="M145.19,111.983c0,1.767,0.47,6.125,0.588,8.361c9.656,0,23.555-3.18,23.555-12.602
		c0-6.006-11.896-10.01-11.896-12.247c0-2.238,10.481-2.002,10.481-2.002s-0.117-2.591-0.823-8.125
		c-14.25,0-22.14,6.124-22.14,11.188s10.951,11.068,10.951,12.6C155.907,110.688,156.144,111.983,145.19,111.983L145.19,111.983z"/>
	<path fill="#1B5C9C" d="M41.91,111.16l-0.353-12.603c0,0,9.421-0.471,9.421,5.418C50.978,109.862,41.91,111.16,41.91,111.16
		L41.91,111.16z"/>
	<path fill="#1B5C9C" d="M41.674,91.375L41.203,79.01c0,0,7.538-0.471,7.538,4.122C48.74,88.785,41.674,91.375,41.674,91.375
		L41.674,91.375z"/>
	<path fill="#1B5C9C" d="M79.478,103.623c0-9.303,7.772-10.364,7.772-10.364s7.537-1.295,7.537,9.303
		c0,10.601-7.891,10.601-7.891,10.601S79.478,112.926,79.478,103.623L79.478,103.623z"/>
	<path fill="#1B5C9C" d="M119.989,94.32v19.43c0,0,9.537,0.942,9.537-12.013C129.526,89.491,119.989,94.32,119.989,94.32
		L119.989,94.32z"/>
	<path fill="#FFFFFF" d="M43.089,101.629c0,0.259,0.602,7.06,0.602,7.06s3.617-1.808,3.617-3.959
		C47.308,102.577,43.089,101.629,43.089,101.629L43.089,101.629z"/>
	<path fill="#FFFFFF" d="M42.659,82.517l0.344,5.166c0,0,2.325-1.637,2.325-2.928S42.659,82.517,42.659,82.517L42.659,82.517z"/>
	<path fill="#FFFFFF" d="M80.882,104.558c0,0,0.345-8.181,5.682-8.181s4.391,6.715,4.391,6.715s-0.258,7.834-5.423,7.834
		C80.365,110.926,80.882,104.558,80.882,104.558L80.882,104.558z"/>
	<path fill="#FFFFFF" d="M121.774,96.979v14.121c0,0,4.132-1.896,4.132-7.232C125.906,97.065,121.774,96.979,121.774,96.979
		L121.774,96.979z"/>
	<path fill="#F5B824" d="M142.901,91.486c0-1.157-0.104-3.732-0.104-3.732s-5.888-1.998-5.888-5.73c0-3.733,3.26-5.046,4.994-4.994
		C153.153,77.029,146.95,90.592,142.901,91.486L142.901,91.486z"/>
	<path fill="#FFFFFF" d="M39.56,106.104c0,0,0.476,7.826,0.517,9.125c7.446,0,10.331-6.543,10.331-6.543s-5.753,4.133-9.298,4.133
		C40.263,111.461,39.56,106.104,39.56,106.104L39.56,106.104z"/>
	<path fill="#FFFFFF" d="M39.389,85.638c0,0-0.729,10.067,0.036,10.067c4.377,0,7.951-5.544,7.951-5.544s-5.689,4.122-6.82,3.246
		C39.863,91.985,39.389,85.638,39.389,85.638L39.389,85.638z"/>
	<path fill="#FFFFFF" d="M29.788,73.663c0,0,14.864,0.229,21.522,0.401c9.068,0.747,11.479,9.413,9.986,11.938
		c-2.64-10.388-11.02-10.158-11.02-10.158l-20.489-0.861L29.788,73.663L29.788,73.663z"/>
	<path fill="#FFFFFF" d="M53.621,96.004l1.665-1.606c0,0,9.01,0.001,9.01,11.996C60.91,94.857,53.621,96.004,53.621,96.004
		L53.621,96.004z"/>
	<path fill="#FFFFFF" d="M83.293,92.618c0,0-6.945-0.058-6.945,10.904c0,10.961,8.724,10.158,8.724,10.158s-7.06-2.354-7.06-10.043
		C78.013,95.947,83.293,92.618,83.293,92.618L83.293,92.618z"/>
	<path fill="#FFFFFF" d="M84.555,87.74c0,0,17.906-1.779,17.906,14.116c0,12.57-11.879,15.67-11.879,15.67s13.89-1.664,13.89-15.727
		C104.472,84.067,84.555,87.74,84.555,87.74L84.555,87.74z"/>
	<polygon fill="#FFFFFF" points="110.707,74.508 118.485,74.508 118.832,74.508 118.832,74.853 118.832,92.139 118.144,92.139 
		118.144,75.197 110.707,75.197 	"/>
	<path fill="#FFFFFF" d="M124.015,88.459c1.684-1.603,3.631-2.251,5.578-2.251c1.571,0,3.139,0.427,4.559,1.114
		c1.406,0.681,2.673,1.622,3.658,2.656c1.34,1.407,2.174,3.014,2.174,4.431c0,0.153,0.006,0.357,0.012,0.595
		c0.061,2.687,0.211,9.478-4.77,13.948l-0.92-1.021c4.51-4.049,4.366-10.393,4.312-12.899c-0.005-0.237-0.011-0.443-0.011-0.622
		c0-1.056-0.688-2.324-1.793-3.483c-0.877-0.92-2.006-1.758-3.26-2.366c-1.242-0.601-2.604-0.974-3.961-0.974
		c-1.615,0-3.232,0.538-4.631,1.869L124.015,88.459L124.015,88.459z"/>
	<path fill="#FFFFFF" d="M146.628,112.576c0.02,0,6.729,0.082,8.712-1.347l0.802,1.113c-2.358,1.699-9.504,1.609-9.524,1.609
		L146.628,112.576L146.628,112.576z"/>
	<path fill="#FFFFFF" d="M148.216,91.729c0.018-0.015,5.829-5.297,18.469-5.297h0.344v0.344c0,2.161,0.088,5.109,0.088,5.118
		l-0.689,0.013c0-0.008-0.078-2.65-0.087-4.784c-12.131,0.094-17.647,5.107-17.663,5.121L148.216,91.729L148.216,91.729z"/>
	<path fill="#FFFFFF" d="M156.604,96.537c-0.018,0.305,1.84,1.729,4.033,3.414c3.668,2.813,8.178,6.278,7.674,8.676l-1.346-0.278
		c0.327-1.556-3.804-4.728-7.162-7.306c-2.509-1.926-4.632-3.555-4.578-4.574L156.604,96.537L156.604,96.537z"/>
	<path fill="#FFFFFF" d="M141.237,77.921c10.123,0,4.925,9.938,4.91,9.966l-0.613-0.312c0.013-0.025,4.688-8.966-4.297-8.966V77.921
		L141.237,77.921z"/>
	<path fill="#FFFFFF" d="M118.739,107.015v8.338c0.646,0.041,2.428-0.031,5.32-1.547l0.316,0.61c-3.932,2.06-6.043,1.58-6.05,1.578
		l-0.272-0.063l-0.004-0.273v-8.643H118.739L118.739,107.015z"/>
</g>
</svg>
