<?xml version="1.0" encoding="utf-8"?>
<!-- Generator: Adobe Illustrator 16.0.0, SVG Export Plug-In . SVG Version: 6.00 Build 0)  -->
<!DOCTYPE svg PUBLIC "-//W3C//DTD SVG 1.1//EN" "http://www.w3.org/Graphics/SVG/1.1/DTD/svg11.dtd">
<svg version="1.1" id="Layer_1" xmlns="http://www.w3.org/2000/svg" xmlns:xlink="http://www.w3.org/1999/xlink" x="0px" y="0px"
	 width="180.254px" height="183.303px" viewBox="0 0 180.254 183.303" enable-background="new 0 0 180.254 183.303"
	 xml:space="preserve">
<g>
	<path fill-rule="evenodd" clip-rule="evenodd" d="M156.786,152.248l1.245-94.94c0,0-14.87,0.042-25.786,0.311
		c-3.139,0.078-40.178,3.204-47.948,4.047C74.5,62.729,61.63,64.017,61.63,64.017s2.684,1.476,4.262,2.084
		c0.854,0.33,1.384,0.405,2.023,0.467c1.902,0.185,4.766,0.251,7.377,0.544c8.384,0.943,21.085,5.149,28.108,8.016
		c6.823,2.784,9.903,4.484,12.919,9.417c1.905,3.117,1.455,4.197-0.856,7.159c-0.961,1.231-2.079,2.463-2.879,3.035
		c-0.436,0.312-7.411,2.197-8.349,2.257c-4.568,0.292-11.578,0.186-14.375,0.622c-1.21,0.189-8.824,1.644-9.58,2.384
		c-0.468,0.458-0.635,1.124-1.081,1.663c-0.447,0.54-1.174,0.951-1.479,1.504c-0.684,1.242,0.584,4.985,2.023,6.2
		c0.354,0.299,0.669,0.438,1.037,0.545c0.875,0.256,13.064-1.066,20.364-1.4c1.313-0.061,11.87,0.965,13.619,1.322
		c2.798,0.572,5.647,1.228,8.871,1.946c1.661,0.369,9.022,2.885,9.339,3.19c0.746,0.721,1.077,2.064,1.089,3.657
		c0.006,0.716-2.099,8.737-2.49,9.494c-0.958,1.852-2.052,3.115-3.034,4.98c-0.402,0.764-1.562,5.015-1.479,5.416
		c0.178,0.854,1.325,2.144,2.362,2.731c0.516,0.292,6.567,1.305,10.011,1.969c3.351,0.647,9.338,2.92,11.595,4.592
		c1.015,0.752,1.833,1.626,2.646,2.646c0.508,0.636,1.771,1.628,2.179,1.712C156.279,152.258,156.786,152.248,156.786,152.248
		L156.786,152.248L156.786,152.248z M24.047,51.972l2.758,100.285c0,0,2.337-2.07,4.223-3.511c0.868-0.662,6.263-3.472,7.471-3.891
		c2.167-0.751,8.28-2.325,9.37-2.412c1.9-0.153,3.809,0.035,4.56,1.712c0.48,1.072,0.847,3.157,0.847,3.157s3.966-1.998,5.457-2.924
		c0.31-0.192,1.057-1.638,1.167-2.257c0.174-0.98,0.472-2.526,0.472-2.526s-5.22,0.656-7.712,0.503
		c-0.594-0.036-9.709-3.684-10.502-4.202c-1.754-1.146-4.435-3.449-5.292-5.604c-0.896-2.252-0.792-4.631,0.156-6.381
		c1.893-3.493,4.739-4.686,8.887-4.98c2.746-0.195,4.608,0.501,5.587,2.49c0.234,0.476,0.351,1.667,0.233,2.391
		c-0.165,1.021-0.578,2.435-0.578,2.435s1.142,0.071,1.773,0c0.952-0.109,1.393-1.425,1.606-2.799c0.171-1.102-0.086-1.993,0-2.857
		c0.037-0.367,2.893-4.282,3.424-4.694c0.521-0.404,8.837-3.652,9.961-3.891c2.106-0.447,4.688-0.921,4.688-0.921
		s-1.535-1.301-2.586-2.426c-0.463-0.495-2.31-4.108-2.412-4.719c-0.489-2.911-0.082-4.982,2.334-7.888
		c0.7-0.842,3.414-3.153,4.202-3.58c1.669-0.902,5.195-1.957,7.315-2.334c3.524-0.629,17.412-1.226,19.331-1.712
		c2.165-0.548,4.517-1.341,4.517-1.341s-1.239-1.168-2.369-2.005c-0.568-0.421-5.396-2.295-6.614-2.568
		c-3.56-0.796-7.94-2.192-12.062-3.268c-3.449-0.901-6.717-1.578-10.117-2.101c-14.816-2.28-18.387-1.529-29.26-5.603
		c-2.334-0.875-3.142-1.206-3.813-2.879c-0.454-1.133-0.764-2.467-0.797-3.437c-0.015-0.418,1.478-3.681,1.809-3.956
		c0.516-0.428,7.84-3.618,9.65-4.202c5.647-1.824,9.135-2.836,15.019-3.813c4.516-0.75,56.108-5.385,56.108-5.385
		s-81.015-0.233-91.731,0.093c-2.189,0.066-6.076,0.227-6.961,2.763C24.039,51.092,24.027,51.216,24.047,51.972L24.047,51.972
		L24.047,51.972z M11.987,18.397c0,0-0.902,1.679-0.962,2.312c-0.023,0.246,0.121,0.36,0.393,0.412
		c1.677,0.32,2.426,0.107,2.179,1.696c-0.437,2.811-1.078,1.632-5.136,2.351c-2.734,0.483-6.512,2.696-7.944,4.944
		c-0.997,1.565-0.434,3.589,0.707,4.627c0.86,0.782,5.349,2.6,6.537,3.269c0.158,0.089,0.268,0.167,0.234,0.404
		c-0.083,0.576-1.012,2.086-1.012,2.086h2.776c0,0,0.584-0.587,1.037-1.245c0.358-0.521,0.633-1.085,0.633-1.085
		s2.039-0.052,3.469-0.16c3.309-0.25,8.024-2.127,9.983-4.514c0.945-1.151,2.178-3.049,2.178-3.049s1.067,0.426,1.636,0.636
		c0.408,0.151,0.625,0.374,0.623,0.638c-0.006,0.512-0.156,1.619-0.156,1.619s0.889,0.016,1.56,0
		c0.616-0.015,2.079-0.52,2.253-0.778c0.47-0.692,1.015-2.465,1.634-4.202c1.181-3.312,2.849-6.55,5.915-7.938
		c0.838-0.379,1.51-0.329,2.116-0.843c0.296-0.251,1.598-3.656,1.463-3.826c-0.111-0.14-0.321-0.122-0.623,0
		c-0.873,0.352-2.51,1.568-3.385,1.815c-0.205,0.058-0.67-0.415-0.662-0.673c0.021-0.68,0.311-1.921,0.311-1.921l-2.171-0.112
		c-0.755-0.039-0.863-0.025-1.079,0.139c-0.167,0.127-0.783,0.879-0.862,1.037c-0.151,0.303-0.198,0.416-0.466,1.123l-4.267,11.277
		l-3.144-0.953c0,0-0.4-1.625-1.085-3.173c-0.963-2.176-2.49-4.202-2.49-4.202s2.908-0.58,4.358-1.167
		c2.936-1.189,4.687-6.389,3.346-9.26c-1.478-3.166-2.613-3.178-5.992-5.059c-0.22-0.122-0.353-0.241-0.311-0.545
		c0.069-0.502,0.564-1.551,0.564-1.551l-1.998-0.113c-0.755-0.043-0.863-0.042-1.076,0.004c-0.93,0.203-1.229,1.211-1.693,1.738
		c-0.369,0.418-10.442,2.322-11.05,2.802C9.989,7.225,9.534,7.743,9.55,8.437c0.01,0.45,0.176,1.053,0.176,1.053
		s2.819-1.284,5.427-1.831c1.834-0.385,3.654-0.447,3.654-0.447l-4.238,11.362L11.987,18.397L11.987,18.397L11.987,18.397z
		 M28.694,12.324c0.363,2.978-3.065,5.058-4.98,5.762c-0.938,0.345-4.915,1.157-5.448-0.103c-0.087-0.206-0.05-0.478,0-0.769
		c0.123-0.714,4.064-9.283,4.356-9.47c0.216-0.139,2.676,0.469,3.115,0.77C26.506,9.042,28.485,10.61,28.694,12.324L28.694,12.324
		L28.694,12.324z M23.246,25.868h-0.872l-6.48-1.157l1.206-3.86c0,0,2.226,0.749,3.5,1.516c0.508,0.306,2.348,1.875,2.542,2.712
		C23.22,25.413,23.246,25.868,23.246,25.868L23.246,25.868L23.246,25.868z M11.431,29.922L9.267,35.62c0,0-1.64-0.405-2.674-0.802
		c-1.597-0.612-3.79-2.236-3.424-3.607c0.256-0.959,1.532-2.07,2.335-2.462c1.404-0.687,5.854-1.657,6.226-0.131
		c0.026,0.11,0.033,0.231,0.02,0.347C11.731,29.119,11.699,29.215,11.431,29.922L11.431,29.922L11.431,29.922z M22.624,29.395
		c0.213,0.46-0.346,1.213-0.544,1.454c-2.166,2.623-3.954,3.921-7.113,4.358c-2.461,0.34-1.988-1.223-1.292-3.58
		c0.467-1.583,1.301-3.552,1.581-3.736c0.139-0.091,5.316-0.143,6.901,1.012C22.369,29.058,22.553,29.241,22.624,29.395
		L22.624,29.395L22.624,29.395z M82.721,27.792l5.38-12.524l-3.285,0.218c0,0-2.792,6.418-3.828,7.814
		c-1.417,1.913-3.189,3.409-3.189,3.409s-1.42-2.062-2.725-3.253c-0.797-0.727-7.46-3.132-5.837-5.525
		c0.795-1.171,3.637-0.994,4.903-0.389c0.83,0.396,1.304,1.218,1.954,1.263c0.291,0.02,1.689-0.99,1.782-1.288
		c0.385-1.232-2.321-2.834-3.785-3.166c-4.032-0.915-8.154,0.284-8.977,4.408c-0.292,1.458,0.477,3.484,1.556,4.386
		c3.631,3.032,6.236,2.473,6.848,5.276c0.17,0.777-0.097,1.435-1.192,1.805c-1.328,0.449-5.201-0.346-6.59-1.323
		c-1.023-0.72-2.42-2.072-2.42-2.072s-1.37,1.281-2.249,2.15c-0.584,0.577-2.13,1.524-2.54,1.556c-0.576,0.045-1.351,0-1.351,0
		v-1.37l5.47-14.194h-3.811c0,0-4.435,11.703-5.239,12.84c-1.123,1.588-2.754,3.555-4.931,2.879
		c-3.45-1.071-1.438-8.324,0.184-10.272c0.721-0.866,2.14-2.062,3.113-2.334c1.751-0.49,3.692,0.13,4.125-1.525
		c0.239-0.915-1.332-1.525-2.172-1.553c-2.042-0.065-6.168,2.23-7.867,4.012c-2.368,2.485-3.764,7.204-3.19,10.275
		c0.667,3.569,2.986,4.797,6.537,3.965c0.662-0.155,1.346-0.381,1.868-0.778c0.63-0.48,0.958-1.022,1.609-0.7
		c0.405,0.2,0.754,0.757,1.192,1.089c1.755,1.331,5.214,0.036,6.537-1.167c0.872-0.792,1.97-2.167,1.97-2.167
		s1.753,1.434,2.855,2.089c2.187,1.3,5.593,1.41,7.315,1.012c0.605-0.14,2.588-1.31,3.035-1.79c0.873-0.938,1.918-2.406,1.918-2.406
		s0.532,0.32,0.884,0.849c0.418,0.631,0.625,3.957,0.625,3.957s1.928-0.645,3.5-1.466c2.466-1.29,4.121-3.03,5.074-3.269
		c0.304-0.077,0.556,0.059,0.763,0.623c0.253,0.688-0.039,1.409,0.311,2.49c0.289,0.89,1.012,2.023,1.012,2.023
		s1.072-0.189,1.868-0.39c2.708-0.681,5.966-3.306,7.782-5.213c2.175-2.285,5.591-6.311,5.591-6.311l2.703,0.109l-3.051,8.144
		c0,0,0.804,1.977,1.371,2.882c1.007,1.604,3.696,0.811,5.915-0.623c1.189-0.769,2.746-1.94,2.746-1.94s1.453,1.958,2.312,2.641
		c1.218,0.968,4.96,0.349,6.382-0.389c1.439-0.748,3.744-2.212,3.744-2.212s1.983,2.031,2.948,2.602
		c1.539,0.91,6.646-0.802,8.404-2.023c0.76-0.528,1.862-1.446,1.862-1.446s1.323,1.891,2.185,2.847
		c1.406,1.561,4.533,1.46,6.849,0.312c1.768-0.878,4.824-2.88,4.824-2.88s1.499,1.698,2.646,2.568
		c1.205,0.914,3.709,1.348,5.139,1.012c1.559-0.366,3.636-1.657,4.218-1.533c0.533,0.114,0.895,0.667,1.538,1.066
		c2.13,1.319,6.246-0.125,8.249-1.79c1.648-1.371,4.169-4.506,4.169-4.506l-1.046-1.257c0,0-0.937,1.087-1.723,1.872
		c-1.376,1.375-5.002,3.632-5.925,3.757c-0.479,0.065-1.099-0.354-1.305-1.331c-0.077-0.363-0.057-0.482,0.196-1.195l4.343-12.205
		h-3.899c0,0-3.156,8.549-4.616,11.284c-1.285,2.409-3.387,4.254-5.914,2.646c-2.772-1.766-0.725-6.774,1.012-9.417
		c0.953-1.452,1.416-1.797,2.721-2.023c0.392-0.068,0.807-0.126,1.198,0c0.438,0.142,0.847,0.516,1.242,0.623
		c0.445,0.121,1.511-0.143,1.765-0.414c0.483-0.514-1.209-2.086-2.023-2.465c-3.018-1.404-6.587,0.995-8.793,3.502
		c-0.677,0.769-1.204,1.574-1.557,2.49c-0.478,1.241-0.66,2.725-1.328,3.818c-1.205,1.972-4.355,3.582-7.216,4.223
		c-1.294,0.29-2.404-0.305-2.74-1.865c-0.486-2.259,1.513-7.979,3.113-9.367c0.894-0.775,3.162-1.511,4.046-0.778
		c0.42,0.348,0.748,1.132,1.122,1.274c0.211,0.081,0.634-0.215,0.746-0.521c0.428-1.17-1.212-2.43-2.696-2.699
		c-2.906-0.528-5.658,1.456-7.888,4.202c-0.376,0.463-0.687,0.901-0.934,1.401c-0.688,1.39-0.882,3.252-1.634,4.514
		c-0.916,1.535-6.28,5.041-8.069,4.202c-1.925-0.903-1.512-4.633-0.491-6.848c0.753-1.636,3.884-6.6,6.098-5.915
		c0.645,0.2,1.372,0.961,1.949,1.089c0.282,0.063,0.764-0.187,0.902-0.47c0.427-0.87-0.646-2.119-1.623-2.487
		c-0.428-0.161-3.002-0.004-3.824,0.233c-3.431,0.991-5.21,2.86-7.082,6.459c-0.42,0.807-0.801,1.604-0.934,2.49
		c-0.33,2.199,0.108,2.384-1.012,3.191c-0.503,0.362-1.138,0.783-1.868,1.167c-0.793,0.418-3.442,1.166-3.859,1.09
		c-0.835-0.153-1.406-0.728-1.588-1.709c-0.116-0.632-0.187-1.191,0-1.49c0.333-0.533,2.373-1.136,3.658-1.938
		c1.975-1.232,6.12-7.476,4.357-9.65c-1.164-1.436-4.733-0.038-6.304,1.012c-2.252,1.506-4.874,4.722-5.447,7.549
		c-0.21,1.038-0.09,2.015-0.467,2.801c-0.501,1.045-2.802,2.8-4.14,2.958c-1.274,0.15-2.165-0.353-2.241-1.059
		c-0.148-1.367,1.831-5.666,2.724-7.035c1.704-2.613,5.603-7.159,5.603-7.159h-3.283c0,0-2.635,3.343-3.431,3.746
		c-0.272,0.138-1.646-0.126-2.079-0.4c-0.221-0.139-0.417-0.238-0.468-0.492c-0.131-0.658,1.33-3.511,1.498-4.981
		c0.165-1.45-1.131-3.048-2.665-2.854c-1.571,0.199-3.454,2.51-3.813,3.941c-0.187,0.744-0.187,2.479,0,3.168
		c0.418,1.542,1.487,2.624,1.401,3.216c-0.036,0.25-5.617,6.583-8.872,8.585c-1.559,0.959-3.735,2.017-3.735,2.017
		s-0.059-1.782,0-2.878c0.24-4.456,3.43-6.418,7.082-10.889c2.591-3.171,5.871-9.176,6.304-13.323
		c0.072-0.699,0.029-1.057-0.467-1.852C103.827,1.317,102.84,0,102.84,0s-3.387,2.812-5.12,4.545
		c-3.128,3.127-6.961,11.588-7.626,16.187c-0.217,1.5-0.357,3.281-0.655,3.93c-0.031,0.068-4.434,4.618-6.364,5.097
		c-0.449,0.112-0.794-0.243-0.715-0.935C82.387,28.59,82.423,28.487,82.721,27.792L82.721,27.792L82.721,27.792z M94.374,18.708
		c-0.146,0.052-0.462,0.087-0.622,0c-0.486-0.265,0.869-3.603,1.167-4.358c0.545-1.381,4.657-8.879,5.292-9.649
		c0.748-0.906,1.552-1.822,2.257-1.167c0.538,0.499,0.363,1.458,0.078,2.413c-0.301,1.004-4.175,8.631-4.98,9.805
		C97.289,16.153,95.645,18.264,94.374,18.708L94.374,18.708L94.374,18.708z M107.448,13.759c0.012,1.363-0.297,2.409-1.245,3.16
		c-0.661,0.523-1.401,0.012-1.712-0.803c-0.297-0.78,0.221-3.318,1.348-3.789C106.484,12.058,107.44,12.856,107.448,13.759
		L107.448,13.759L107.448,13.759z M125.036,19.07c0.335,2.054-1.509,3.751-2.802,4.775c-1.018,0.805-2.534,1.653-2.802,0.364
		c-0.166-0.798,0.927-2.699,1.635-3.633c0.59-0.778,2.46-2.799,3.243-2.49C124.532,18.173,124.968,18.661,125.036,19.07
		L125.036,19.07L125.036,19.07z M88.615,3.248v2.076c0,0,0.576,0.084,0.987,0c0.49-0.1,1.89-2.011,1.659-2.854
		c-0.171-0.624-0.555-0.714-0.946-0.47C89.777,2.334,88.615,3.248,88.615,3.248L88.615,3.248L88.615,3.248z"/>
	<path fill-rule="evenodd" clip-rule="evenodd" d="M26.359,172.638c0,0,0.1,2.229,0.545,4.357c0.386,1.847,1.033,3.617,1.033,3.617
		s6.5,0.651,13.14,0.896c7.03,0.26,19.834-0.155,19.834-0.155v-0.249c0-0.112-0.055-0.135-0.551-0.228
		c-3.151-0.587-6.496-1.118-9.426-1.898c-2.286-0.609-6.267-2.154-10.023-3.54c-2.063-0.761-9.731-4.354-9.961-4.669
		c-0.309-0.422-0.977-2.273-2.568-3.19c-0.375-0.216-0.713-0.267-1.012-0.7c-0.27-0.392-0.521-1.099-0.521-1.099l-0.334,6.857
		H26.359L26.359,172.638L26.359,172.638z M117.097,181.26v0.249c0,0,9.752,0.146,16.514,0c5.556-0.119,18.05-1.171,21.229-2.179
		c0.262-0.083,0.966-1.328,1.012-1.79c0.307-3.05,0.492-11.882,0.492-11.882s-2.043,2.421-3.449,3.788
		c-4.396,4.274-19.297,8.851-24.902,9.962C123.515,180.295,117.097,181.26,117.097,181.26L117.097,181.26L117.097,181.26z"/>
	<path fill-rule="evenodd" clip-rule="evenodd" fill="#FF0000" d="M93.605,108.748l-12.31,1.162c0,0,1.271,1.732,2.269,2.832
		c0.896,0.986,1.573,1.463,2.406,2.142c0.391,0.318,0.49,0.351,0.994,0.317c4.599-0.296,10.151-0.736,13.805-0.747
		c6.188-0.019,14.854,0.996,21.161,2.412c3.725,0.836,6.743,1.943,10.335,3.627c0.803,0.377,1.033,0.31,1.416-0.903
		c0.567-1.799,0.127-3.874-0.545-4.514c-0.324-0.309-8.581-3.143-10.428-3.579c-11.492-2.717-16.085-3.228-27.984-2.821
		C94.218,108.693,94.107,108.7,93.605,108.748L93.605,108.748L93.605,108.748z M73.68,111.237v-0.208c0,0-0.887-0.029-1.712,0
		c-1.896,0.068-12.292,3.563-13.852,4.903c-0.673,0.578-3.2,4.05-3.346,4.747c-0.199,0.949,0.265,2.198-0.078,3.424
		c-0.167,0.595-0.467,1.298-0.467,1.298s2.563,2.642,4.203,4.071c0.715,0.624,2.577,1.688,3.268,1.868
		c1.432,0.372,8.808,1.321,12.707,1.634c2.908,0.234,17.35,0.466,19.356,0.312c6.029-0.465,12.398-1.59,17.587-1.945
		c0.969-0.066,10.319-2.573,10.739-2.88c2.26-1.645,4.971-4.559,4.971-4.559s-36.152,3.762-42.94,4.092
		c-5.542,0.271-16.147,0.294-21.329-1.945c-1.592-0.688-3.776-1.798-3.776-1.798s1.125-1.257,2.219-2.249
		c0.475-0.43,7.422-3.703,8.093-3.812c1.792-0.294,3.603-0.439,6.693-1.168c2.096-0.494,4.872-1.263,4.872-1.263
		s-0.508-0.457-0.981-0.76c-1.076-0.69-1.97-0.584-2.334-0.935c-0.231-0.223-0.25-0.629-0.544-1.012
		c-0.237-0.307-2.033-1.599-2.974-1.68C73.718,111.344,73.68,111.331,73.68,111.237L73.68,111.237L73.68,111.237z M21.558,50.006
		l1.383,45.148l2.179,0.155c0,0,0.283-10.045,0-16.381c-0.2-4.462-0.68-7.084-0.934-10.428c-0.241-3.171-0.25-11.879-0.306-17.819
		c-0.004-0.504,0.031-0.604,0.355-0.991c1.823-2.178,4.366-2.182,6.796-2.318c5.967-0.333,89.859,0.041,101.998-0.311
		c6.684-0.194,15.531-0.66,21.896,0.078c2.818,0.327,2.888,0.58,3.657,3.813c0.701,2.947,0.365,4.237-0.233,8.034
		c-0.349,2.208-1.406,93.674-1.406,93.674s-1.668-1.141-2.796-2.098c-1.408-1.195-1.975-2.103-2.88-2.802
		c-2.689-2.077-11.389-4.746-13.618-5.136c-5.382-0.941-7.452-0.413-9.884-3.113c-0.332-0.369-0.535-0.687-0.544-1.14
		c-0.025-1.193,1.471-5.854,1.471-5.854s-4.173,3.157-7.229,5.671c-0.971,0.797-6.143,6.537-6.382,7.081
		c-0.334,0.761-0.636,1.632-1.089,2.102c-0.414,0.428-1.009,0.692-1.557,1.089c-1.271,0.921-2.293,2.556-3.58,3.658
		c-3.178,2.722-14.61,4.554-18.988,4.824c-5.31,0.329-10.931-0.384-16.654-2.334c-4.813-1.641-4.342-3.89-8.638-10.739
		c-0.415-0.662-1.005-1.27-1.79-1.79c-0.861-0.571-2.2-1.31-2.2-1.31l-0.913,2.686c0,0,1.455,1.628,2.412,2.904
		c0.935,1.246,1.675,2.801,2.335,4.047c0.375,0.708,6.398,7.543,6.926,7.859c1.048,0.628,4.359,1.849,6.07,2.335
		c1.012,0.287,12.35,1.401,15.041,1.479c8.427,0.24,17.395-1.282,23.324-7.315c0.809-0.822,1.671-1.956,1.946-2.646
		c0.192-0.483,0.266-0.962,0.544-1.401c0.584-0.921,2.07-1.675,2.646-2.49c0.357-0.506,0.364-1.035,0.778-1.712
		c0.605-0.99,4.79-4.435,4.79-4.435s7.359,2.555,12.875,4.668c1.88,0.721,12.091,5.765,12.918,6.382c1.741,1.298,3.907,3.4,3.58,5.4
		c-0.552,3.374-1.606,4.33-4.185,6.46c-0.389,0.321-0.484,0.375-0.961,0.542c-5.533,1.928-12.132,4.316-16.645,5.651
		c-2.515,0.744-15.2,3.533-18.055,3.969c-12.441,1.901-25.583,2.605-38.091,2.023c-2.412-0.112-9.274-0.967-10.624-1.322
		c-1.688-0.445-3.474-1.062-4.667-1.168c-1.068-0.095-2.298,0.196-3.586,0.312c-0.557,0.05-23.118-5.737-23.965-6.147
		c-2.346-1.136-4.056-2.277-5.37-4.592c-0.651-1.146-1.593-3.546-1.59-4.051c0.005-1.014,2.422-4.339,3.536-5.21
		c0.56-0.438,7.341-3.283,8.716-3.657c4.464-1.216,9.647-2.074,11.683-2.905c0.895-0.365,0.935-0.684,0.769-2.138
		c-0.409-3.581-2.126-4.405-5.451-3.984c-4.468,0.566-13.344,3.896-16.962,6.771c-1.646,1.308-3.871,3.404-3.871,3.404
		l-1.265-56.711l-2.334-0.156c0,0,0.334,28.625,0.856,47.938c0.385,14.219,0.871,23.39,1.377,35.082
		c0.021,0.504,0.046,0.611,0.246,1.075c0.628,1.46,0.904,2.067,2.204,2.562c0.453,0.172,0.56,0.192,1.063,0.202
		c54.587,1.063,75.091,1.261,126.789-0.4c0.504-0.017,0.604-0.054,0.998-0.369c0.479-0.384,0.978-0.755,1.346-1.255
		c0.273-0.372,1.063-3.947,1.151-5.208c0.273-3.93,0.633-7.97,0.935-12.218c0.234-3.308,1.334-79.545,1.4-97.085
		c0.008-2.154-0.905-13.134-1.245-14.96c-0.441-2.376-1.038-5.132-1.038-5.132s-3.312-0.885-6.599-1.325
		c-2.727-0.365-5.438-0.423-5.438-0.423s0.005-0.158,0-0.311c-0.006-0.187-43.282,0.708-45.133,0.934
		c-2.636,0.321-70.703-0.166-73.68,0.156c-3.296,0.356-3.476,0.354-5.709,3.16c-0.23,0.29-0.476,0.581-0.655,0.91
		C21.567,49.396,21.542,49.502,21.558,50.006L21.558,50.006L21.558,50.006z M62.007,181.379c0,0-6.384,0.205-12.14,0.312
		c-3.403,0.063-20.64-0.562-21.428-0.778c-1.006-0.274-1.295-1.188-1.996-4.357c-0.218-0.986-0.348-1.653-0.389-2.796
		c-0.107-2.958,0.378-9.107,0.378-9.107s0.866,1.339,1.564,2.092c0.669,0.722,1.183,0.906,1.716,1.406
		c0.411,0.387,0.833,0.96,1.089,1.401c0.252,0.433,0.345,0.736,0.545,1.027c0.831,1.209,19.578,8.407,20.906,8.467
		c0.468,0.021,0.904-0.016,1.413,0c2.186,0.066,6.013,1.181,8.187,1.79c0.075,0.021,0.137,0.047,0.156,0.171
		C62.027,181.137,62.007,181.379,62.007,181.379L62.007,181.379L62.007,181.379z M116.637,181.535v-0.156h-0.312v-0.166
		c0-0.074,0.056-0.092,0.553-0.177c13.816-2.353,23.656-4.133,34.077-10.396c0.768-0.461,1.52-0.944,2.102-1.634
		c1.003-1.188,2.791-3.348,3.113-3.424c0.363-0.087,0.777-0.078,0.777-0.078l-0.147,10.338c-0.007,0.504-0.017,0.607-0.093,1.038
		c-0.134,0.758-0.679,1.675-0.927,2.009c-0.322,0.436-0.624,0.66-1.012,0.856c-0.475,0.24-11.134,1.425-13.308,1.479
		C131.073,181.479,116.637,181.535,116.637,181.535L116.637,181.535L116.637,181.535z M56.404,139.668v-0.156l3.424-0.414
		c0,0,0.039-0.538,0-0.937c-0.089-0.904-0.893-1.517-1.401-1.84c-0.587-0.374-6.122-1.985-8.95-2.724
		c-1.311-0.342-3.784-1.37-5.058-2.102c-1.802-1.034-4.243-2.627-4.243-2.627s0.947-0.854,1.752-1.419
		c1.226-0.859,3.384-1.521,4.769-1.635c1.478-0.12,3.965,0,3.965,0s0.749-1.572,0.916-2.385c0.238-1.157-0.722-3.458-1.868-3.763
		c-0.351-0.094-0.852-0.07-1.245-0.156c-0.542-0.117-0.879-0.44-1.324-0.592c-0.869-0.295-4.964,0.599-6.147,1.137
		c-2.358,1.073-4.746,4.479-4.513,7.066c0.345,3.829,3.046,6.275,5.758,8.342c0.588,0.448,9.473,4.158,10.064,4.203
		C54.219,139.811,56.404,139.668,56.404,139.668L56.404,139.668L56.404,139.668z"/>
</g>
</svg>
