<?xml version="1.0" encoding="utf-8"?>
<!-- Generator: Adobe Illustrator 16.0.0, SVG Export Plug-In . SVG Version: 6.00 Build 0)  -->
<!DOCTYPE svg PUBLIC "-//W3C//DTD SVG 1.1//EN" "http://www.w3.org/Graphics/SVG/1.1/DTD/svg11.dtd">
<svg version="1.1" id="Layer_1" xmlns="http://www.w3.org/2000/svg" xmlns:xlink="http://www.w3.org/1999/xlink" x="0px" y="0px"
	 width="83.444px" height="181.392px" viewBox="317.654 269.681 83.444 181.392"
	 enable-background="new 317.654 269.681 83.444 181.392" xml:space="preserve">
<g>
	<path d="M386.879,361.125c0.119-0.115,0.243-0.232,0.361-0.359c6.336-8.419,1.314-19.666-2.143-27.812
		c-2.412-2.167-5.867-2.854-8.337-4.855c7.625-7.763,18.322-14.264,22.025-24.468c3.264-6.749,3.129-16.24-0.769-22.631
		c-2.11-4.115-6.419-8.093-10.644-9.739c-4.964-2.552-12.37-1.919-16.844,1.235c-0.054,0.302,0.029,0.576,0.302,0.741
		c2.745,0.687,5.406,1.59,7.901,2.908c6.007,3.455,10.15,9.792,8.941,17.005c-0.767,4.829-4.197,10.04-9.105,11.687
		c-4.526,1.702-8.859-0.686-12.154-3.786c-6.664-7.13-14.152-13.936-18.073-22.193c-0.717-1.672-1.1-3.455-2.142-4.991
		c-0.438-0.111-0.796,0.082-1.041,0.44c-2.525,6.939-0.248,14.537,2.715,20.516c3.539,8.092,12.89,13.772,16.401,21.864
		c0.577,2.99,1.57,5.426-1.262,9.29c-2.798,3.338-4.453,4.191-8.12,4.191c-3.893-0.821-5.43-3.964-6.252-6.623
		c-1.043-8.203-3.209-16.322-9.272-22.027c-5.678-5.129-14.184-7.516-21.56-4.417c-0.358,0.302-0.03,0.824,0.302,0.905
		c1.726,0.139,3.399,0.439,5.018,0.906c7.217,2.03,12.346,9.626,13.661,16.568c0.987,4.744,0.686,10.231-3.646,13.221
		c-1.839,1.315-4.884,1.426-6.833,0.302c-3.21-1.343-4.251-4.664-4.553-7.736c0.136-1.052-0.604-0.685-1.071-0.63
		c-2.192,2.442-3.112,5.34-1.838,9.271c2.472,6.556,9.298,10.206,15.964,10.478c5.624,0.604,13.277-2.933,17.174,2.442
		c0.331,1.345,0.191,2.854-0.904,3.786c-1.401,1.343-3.951,1.318-5.624,0.631c-1.07-0.22-1.782-1.729-2.908-1.371
		c-0.331,1.343,0.493,2.633,1.069,3.786c1.812,3.015,5.048,3.292,7.9,4.115c0.438,1.754,1.042,3.428,2.275,4.853l0.445,0.479
		c-2.083-0.384-5.188-0.7-7.272-0.643c-1.285,0.829-2.571,1.719-3.851,2.661c-3.277,2.408-6.443,5.183-9.07,8.283v4.856
		c-3.594,3.674-7.05,7.406-9.875,11.412c-1.397,3.291-2.77,6.582-3.484,10.176c-0.355,1.861-0.878,4.552,1.207,5.761
		c3.76,2.77,8.04,6.088,12.92,4.252l3.483,1.535c3.209,0.852,5.269-1.921,7.901-2.882c2.058,0.687,4.471,0.494,6.692,0.742
		c3.623-0.274,8.177,0.41,9.877-3.184c0.492-3.4-0.056-7.268-1.372-10.176c-4.528,1.781-10.204,1.781-15.031,0.604
		c-2.661,2.084-5.516,3.701-8.368,5.322c-2.029-0.658-4.086-1.289-5.924-2.441c3.374-5.926,8.258-11.521,13.522-16.404l0.604-4.854
		l2.606-2.58c3.813-2.303,6.445-7.435,11.852-5.924c1.44-1.299,2.307-2.82,2.805-4.498c0.08-0.269,0.151-0.545,0.21-0.824
		c-1.424-1.699-1.068-4.361-0.902-6.526c1.48-6.147,8.174-9.301,13.058-12.017c1.151,1.207,1.314,2.798,1.838,4.252
		c1.262,6.143-2.688,10.891-7.135,14.429c-0.117,0.217-0.229,0.441-0.331,0.686c-1.029,2.437-1.028,5.709,0.004,7.543
		c6.666,4.69,11.878,11.604,14.456,18.815c4.992,15.472-0.934,31.218-13.689,41.341l-0.438,1.209l-0.049,19.826
		c0.465,0.877,1.831,1.438,2.767,1.129c6.006-1.129,9.135-11.357,12.015-17.773c6.804-5.928,10.396-13.44,12.59-21.426
		c4.144-18.052-1.591-35.66-15.47-47.701C383.946,363.281,385.508,362.451,386.879,361.125L386.879,361.125z"/>
	<path d="M388.236,442.703c0-2.25,1.771-4.109,4.008-4.109s4.083,1.785,4.083,4.06c0,2.301-1.809,4.121-4.083,4.121
		C390.058,446.773,388.236,444.914,388.236,442.703L388.236,442.703z M395.9,442.689c0-2.035-1.597-3.668-3.619-3.668
		s-3.617,1.633-3.617,3.668c0,1.985,1.605,3.655,3.58,3.655C394.254,446.346,395.9,444.75,395.9,442.689L395.9,442.689z
		 M390.347,440.102h1.91c0.427,0,0.979,0,1.356,0.24c0.313,0.199,0.503,0.578,0.503,0.941c0,0.703-0.629,1.219-1.282,1.27
		c0.528,0.113,0.805,0.74,1.005,1.191c0.103,0.215,0.265,0.58,0.415,0.756c0.102,0.125,0.214,0.15,0.415,0.15v0.225h-0.312
		c-0.265,0-0.566,0.039-0.792-0.125c-0.227-0.176-0.402-0.666-0.504-0.916c-0.302-0.703-0.339-1.145-1.181-1.145h-0.201v1.334
		c0,0.147-0.051,0.602,0.201,0.612l0.364,0.025v0.213h-1.897v-0.213l0.227-0.012c0.266,0,0.327-0.089,0.327-0.341v-3.668
		c-0.024-0.239-0.139-0.276-0.353-0.291l-0.201-0.01V440.102L390.347,440.102z M391.854,442.426c0.768,0,1.483-0.088,1.483-1.055
		c0-0.314-0.102-0.627-0.365-0.83c-0.227-0.176-0.465-0.176-0.729-0.176c-0.479,0-0.565,0-0.565,0.502v1.559H391.854
		L391.854,442.426z"/>
</g>
</svg>
