<?xml version="1.0" encoding="utf-8"?>
<!-- Generator: Adobe Illustrator 16.0.0, SVG Export Plug-In . SVG Version: 6.00 Build 0)  -->
<!DOCTYPE svg PUBLIC "-//W3C//DTD SVG 1.1//EN" "http://www.w3.org/Graphics/SVG/1.1/DTD/svg11.dtd">
<svg version="1.1" id="Layer_1" xmlns="http://www.w3.org/2000/svg" xmlns:xlink="http://www.w3.org/1999/xlink" x="0px" y="0px"
	 width="153.186px" height="175.748px" viewBox="323.785 211.504 153.186 175.748"
	 enable-background="new 323.785 211.504 153.186 175.748" xml:space="preserve">
<g>
	<path fill="#F4E8B1" d="M474.234,338.232c0,0,0.025,0.033,0.055,0.065c-0.011-0.016-0.021-0.032-0.036-0.045L474.234,338.232
		L474.234,338.232z"/>
	<path fill="#F4E8B1" d="M474.289,338.299c0.019,0.021,0.033,0.051,0.052,0.075c0.003,0,0.021,0.019,0.021,0.019
		S474.322,338.343,474.289,338.299L474.289,338.299z"/>
	<path fill="#F4E8B1" d="M476.321,343.585v0.005c0,0,0,0.037,0,0.041c0,0.018,0.007,0.034,0.007,0.053L476.321,343.585
		L476.321,343.585z"/>
	<rect x="448.189" y="306.157" fill="#F4E8B1" width="0.001" height="0.003"/>
	<path fill="#1D1D1B" d="M446.691,306.253c-0.092-1.505-1.107-3.47-1.107-4.222c0-1.27-1.066-2.756-1.282-3.041
		c-1.144-1.377-4.125-4.967-4.553-5.537c-0.405-0.544-2.225-4.783-2.418-5.462c-0.234-0.817-1.013-1.525-1.342-1.8
		c-0.077-0.082-2.936-3.473-3.388-3.979c-0.008-0.696,0.522-7.476,0.522-7.476s-0.688-2.598-1.017-3.847
		c0.633-0.17,1.291-0.351,1.291-0.351c0.92-0.228,1.794-0.978,1.962-1.125l0.159-0.143c0,0,0.402-0.855,0.61-1.295
		c1.298-0.524,1.854-1.871,1.98-2.666c0.004-0.042,0.156-1.516,0.232-2.246c0.104-0.087,0.205-0.162,0.271-0.193
		c0.633-0.318,0.994-1.036,1.118-1.33c0.841-2.134,0.982-2.943,0.982-3.314c0-0.119-0.012-0.193-0.024-0.252
		c-0.106-0.535-0.45-1.319-0.517-1.472l-0.037-0.081c0,0-1.146-1.721-1.457-2.183c0.052-0.614,0.336-4.273,0.336-4.273
		s-0.324-4.297-0.348-4.631c0.377-1.391,1.046-3.633,1.378-4.243c0.522-0.958,0.969-3.171,0.969-4.501
		c0-0.291-0.021-0.54-0.069-0.722c-0.224-0.899-1.457-3.155-1.947-3.841c-0.205-0.319-0.84-2.058-1.418-3.777
		c0.903-0.454,1.995-1.254,2.508-2.425c0.737-1.688,1.504-3.625,1.604-5.179l0.479-5.746l-1.447,0.382
		c-1.169,0.322-3.376,1.935-3.687,3.17c-0.14,0.514-1.513,2.627-2.083,3.126c-0.201,0.177-0.486,0.358-0.769,0.524
		c-0.58-1.025-1.417-1.946-1.432-1.964c-1.275-1.382-2.364-2.068-3.764-2.367c-3.16-0.678-5.55-1.255-6.08-1.467
		c-0.57-0.227-0.957-0.65-1.093-0.848c-0.003-0.035-0.008-0.06-0.008-0.11c0-0.356,0.056-1.048,0.144-1.677l0.292-2.165
		l-1.871,1.122c-1.129,0.678-2.532,2.748-2.652,4.399c-0.021,0.321-0.024,0.63-0.028,0.939c-2.379-0.979-4.129-0.661-4.218-0.643
		l-2.137,0.426l1.662,1.405c0.866,0.726,1.666,1.957,2.199,2.885c-1.001,0.165-2.062,0.307-2.503,0.269
		c-0.604-0.05-0.753-0.203-1.249-0.708l-0.15-0.148c-0.336-0.336-1.501-2.118-2.437-3.645l-1.767-2.888l-0.179,3.379
		c0,0.041-0.003,0.081-0.003,0.126c0,0.846,0.427,2.688,3.394,8.312l0.113,0.212c0.124,0.25,0.278,0.519,1.938,1.297
		c-0.665,0.265-1.43,0.584-2.335,0.972c-1.062,0.455-2.515,1.078-2.872,1.129c-0.481,0.04-2.219-0.487-3.532-1.004
		c0,0,1.333,3.959,2.908,4.547c0.521,0.2,1.304,0.326,2.122,0.415c-0.73,0.502-1.345,0.963-1.614,1.187
		c-0.713,0.585-5.375,2.084-6.479,2.084c-0.533,0-1.905-0.765-2.848-1.483l-2.07-1.572l0.4,2.569
		c0.022,0.142,0.586,3.509,4.195,4.677c1.258,0.407,2.624,0.447,3.853,0.341c-1.188,1.352-2.496,3.025-3.798,4.737l-0.722,0.939
		c-0.556,0.678-3.975,2.231-5.14,2.5c-0.781,0.181-2.039,0.051-2.456-0.015l-3.179-0.495l2.272,2.274
		c0.51,0.512,2.377,1.917,3.865,1.917c0.455,0,1.311-0.137,2.222-0.311c-0.129,0.17-0.245,0.32-0.346,0.455
		c-1.889,0.073-6.866,0.637-7.619,1.014c-0.294,0.144-1.276,1.006-2.424,2.061c0.009-0.008,0.016-0.015,0.024-0.022
		c-0.022-0.483-0.025-0.944,0.017-1.204c0.121-0.718,2.156-3.472,2.156-3.472s-2.874,1.557-3.471,2.154
		c-0.601,0.599-1.678,3.473-1.678,3.473l0.375,1.491c0.03-0.032-0.121,0.116-0.228,0.219c-0.375,0.356-0.718,0.691-1.01,0.974
		c-0.254,0.252-0.383,0.362-0.369,0.359c-0.062-0.161-0.115-0.334-0.161-0.521c-0.407-1.682-0.047-4.22,1.393-5.756
		c1.796-1.915,3.997-3.521,3.997-3.521s0.575-3.561,0.547-3.506c0.024-0.389-0.199-0.8-0.952-1.112
		c-1.437-0.599-4.907-2.397-6.703-2.276c-1.793,0.12-8.376,0.719-8.376,0.719s7.062,1.197,8.258,1.794
		c1.199,0.6,3.23,3.234,3.23,3.234c1.586-0.265,2.778-0.658,3.491-1.04c-1.349,1.323-3.368,2.715-3.368,2.715
		s-2.756,1.078-4.429,2.753c-1.678,1.677-2.156,7.185-2.156,7.185s-1.674-2.157-0.718-5.032c0.957-2.872,4.907-5.625,4.907-5.625
		c-2.272,0.358-5.625,3.231-6.102,3.831c-0.482,0.599-2.276,2.396-1.437,5.865c0.588,2.438,2.41,4.694,3.445,5.824
		c-1.251,1.577-2.387,3.278-2.895,4.75c-0.981,2.883-2,7.096-2,11.265c0,0.966,0.432,2.635,0.5,3.504
		c0.36,4.476,6.033,14.784,6.759,16.024c-0.031,0.098-0.667,0.787-0.756,0.994c-0.229,0.539-0.416,1.115-0.416,1.719
		c0,0.881,0.4,1.813,1.646,2.748c1.1,0.826,3.99,2.438,5.476,3.254c-0.231,0.512-0.449,1.113-0.449,1.623
		c0,0.842,0.135,1.211,0.601,1.66l0.066,0.062c0,0,0.333,0.334,0.655,0.658c-0.455,1.056-2.726,6.334-2.726,6.334l2.167,2.89
		l7.697,2.601c0,0,1.654,0.271,2.311,0.164c0.316,0.763,0.704,1.691,0.877,2.102c-0.097,0.333-0.159,0.667-0.159,1.002
		c0,1.068,0.444,2.095,1.015,2.755c0.298,0.347,0.433,0.745,0.433,0.894c-0.594,0.709-1.767,4.172-2.669,6.51l-0.229,0.594
		l0.418,0.477c0.055,0.06,0.682,0.469,2.416,1.929c1.932,1.628,5.354,1.93,5.5,1.942l0.253,0.021l4.309-1.769l0.054-0.642
		c0.125-1.481,0.461-5.46,0.53-6.03c0.025-0.201,0.04-0.476,0.04-0.787c0-0.93-0.128-2.197-0.5-2.936l-0.746-1.312
		c-0.369-0.623-1.052-1.785-1.146-2.082c-0.024-0.084-0.036-0.209-0.036-0.348c0-0.415,0.091-0.98,0.183-1.204
		c0.227-0.571,0.252-1.588,0.252-1.997v-0.195c0,0-0.566-1.476-0.961-2.506c1.355-0.279,3.982-0.814,3.982-0.814l0.237-0.303
		c1.104-1.416,3.321-4.229,3.8-4.78c0.729-0.827,1.382-3.052,1.562-3.713l0.029-0.093l0.007-0.092
		c0.241-2.598,0.643-6.863,0.705-7.246c0,0,0.605-5.261,0.905-7.017c1.13,0.225,1.883-0.342,2.368-0.562
		c1.129,0.562,2.407-0.517,3.096-0.81c1.261,0.798,3.584,2.068,5.359,2.51c1.971,0.494,7.465,3.722,8.163,4.128
		c1.012,0.59,1.069,1.756,1.069,2.36c0,0.09-0.365,1.831-0.365,1.831c0,0.755-1.172,4.247-2.342,7.761
		c-0.477,0.3-1.604,0.946-1.978,1.317c-0.354,0.354-1.062,2.779-1.786,3.727c-2.636-1.1-4.385-0.582-4.671-0.502
		c-0.727,0.208-3.924,2.008-4.673,3.004c-0.724,0.965-1.274,3.928-1.274,5.293c0,0.619,0.556,1.859,0.998,2.668
		c0,0,1.91,1.604,2.839,2.172c0,0,2.674,1.168,3.444,1.268l0.429,0.066c0.5,0.09,1.129,0.203,1.758-0.271
		c0.368-0.274,4.354-2.897,5.147-3.588l0.204-0.177c0,0,1.37-3.713,1.523-4.129c0.698-0.652,2.646-2.5,3.157-3.18
		c0.484-0.652,0.672-2.005,0.921-4.154l0.248-1.795c0.149-0.698,0.821-1.82,1.418-2.81l0.8-1.383
		c0.673-1.259,1.101-3.386,1.23-4.111c0.358-0.534,0.761-1.065,0.91-1.188c0.56-0.446,1.225-1.571,1.418-1.905l0.153-0.273
		L446.691,306.253L446.691,306.253z"/>
	<path fill="#F4E8B1" d="M448.189,306.156v0.004V306.156z"/>
	<path fill="#F4E8B1" d="M428.211,247.299c-0.004-0.007-0.008-0.015-0.012-0.022c-0.044-0.097-0.113-0.172-0.187-0.241
		C428.086,247.142,428.151,247.231,428.211,247.299L428.211,247.299z"/>
	<path fill="#F4E8B1" d="M407.431,295.62c0,0-0.011,0.013-0.018,0.016C407.423,295.629,407.431,295.62,407.431,295.62
		L407.431,295.62z"/>
	<path fill="#FFFFFF" d="M424.213,238.688c0,0-0.384,3.077-1.845,0.693C422.368,239.381,423.292,240.073,424.213,238.688
		L424.213,238.688z"/>
	<path fill="#F4E8B1" d="M436.673,257.075c-0.307-0.231-2.079,2.076-2.079,2.076s-0.457-1.999-0.841-2.46
		c-0.387-0.462-1.925-0.847-2.386-1.078c0,0-0.573-1.365-1.185-2.662c-0.493-1.741-1.181-3.906-1.973-5.649
		c-0.052-0.045-5.613-5.086-6.381-7.843c-0.769-2.769,0.69-2.693,1.155-2.769c0,0-0.849-3.923-0.465-5.461
		c0,0,1.231,5.154,1.85,6.23c0.484,0.851,0.581,1.794,0.373,2.418c0.35-0.269,0.821-0.994,0.661-2.939
		c-0.249-2.941,0.475-5.644-4.067-8.223c-1.979,0.497-2.554-0.454-2.554-0.454c-0.26,0.271-0.644,0.766-1.104,1.407
		c-4.253,7.372-8.396,20.542-8.396,20.542s-8.558,5.828-9.673,6.697c-0.983,0.766-5.334,6.919-6.356,8.375
		c-0.141,0.195-0.217,0.309-0.217,0.309l-0.282,0.483c0.276-3.19,0.696-5.348,1.113-6.8c0,0.001,0,0.004-0.001,0.005
		c-2.876,0.398-7.032,2.815-9.137,4.08c-2.062,1.237-6.521,6.672-7.967,8.47c-0.082,0.1-0.154,0.191-0.217,0.268
		c-0.031,0.077-0.06,0.153-0.089,0.232c-1.153,3.025-1.93,6.449-1.93,8.926c0,3.76,3.352,10.865,3.775,11.788
		c0.426,0.923,1.739,2.052,2.233,2.406c0.497,0.354,5.047,2.024,5.047,2.024s-4.816-7.775-5.03-13.594
		c-0.213-5.817,1.561-12.2,1.561-12.2c-0.854,6.029,0.209,11.672,0.571,13.2c0.429,1.803,2.246,4.695,3.523,5.759
		c1.277,1.063,6.787,3.954,6.787,3.954l-0.029-1.772l2.058-6.667c0,0-0.924-2.059-0.778-4.116c0.141-2.059,2.265-6.954,2.265-6.954
		c-1.416,4.257,0.853,12.559,0.853,12.559c-1.984,3.831-1.63,7.731-1.416,8.583c0.21,0.851,1.223,3.682,1.861,4.04
		c0.64,0.353,1.718,0.256,1.718,0.256c4.013-1.107,7.711-4.708,7.887-4.882c-0.07,0.057-0.333,0.137-0.333-1.896
		c0-1.736,1.012-3.274,1.538-3.956c-0.19-0.124-0.53-0.387-1.129-0.895c-1.732-1.467-7.254-0.528-7.809-0.432
		c-0.21,0.23-0.333,0.386-0.333,0.386c0.429-3.758,3.976-4.681,3.976-4.681l3.828-0.214c1.201,0.854,4.751,1.491,4.751,1.491
		s0.212-2.554-0.782-5.037c-0.99-2.483-2.979-3.76-2.979-3.76s2.27,0.497,3.264,1.134c0.994,0.638,3.051,3.83,3.051,3.83
		s0.354-3.972-0.143-5.956c-0.497-1.988-3.052-7.45-3.052-7.45l-2.195-2.128c1.274-0.426,4.822-1.349,5.883-1.137
		c1.066,0.214,6.742,4.116,6.742,4.116s-1.138-6.031-1.35-7.733c-0.213-1.702-2.979-11.279-3.264-12.271
		c-0.284-0.994,0.354-2.768,0.354-2.768l3.761-14.826c0,0-1.137,7.023-1.631,8.939c-0.5,1.915-0.283,3.475-0.283,3.475l1.486,6.526
		c0,0,0.073,1.206,0.64,1.419c0.565,0.214,2.555,0.994,2.979,1.845c0.292,0.581,0.449,1.829,0.636,3.264
		c0.084,0.662,0.084,0.675,0.084,0.659c0.019-0.077,0.04-0.156,0.06-0.234c0.271-0.989,0.8-2.078,1.849-2.797
		c1.914-1.308,2.848,0.077,3.526,0.979l0.211,0.853l2.003,1.845l-1.538,2.232c0,0,0.997,2.155,1.231,2.615
		c0.229,0.462,2.07-0.307,2.07-0.307s0.312-0.846,0.389-1.078c0.075-0.23,1.538-0.848,1.538-0.848s1.077-1.845,1.23-2.537
		C437.827,257.612,436.979,257.306,436.673,257.075L436.673,257.075L436.673,257.075z M413.832,242.765
		c-0.694,1.464-4.385,9.003-4.385,9.003s5.383-15.464,9.383-19.618C418.83,232.15,414.526,241.303,413.832,242.765L413.832,242.765z
		"/>
	<path fill="#F4E8B1" d="M412.663,314.846c0.793-3.008,0.157-7.853,0.157-7.853v-9.499c0.004,0.001,0.004,0.003,0.007,0.005
		c-0.588-0.464-1.041-0.978-1.242-1.213c-0.069-0.084-0.106-0.135-0.106-0.135c0.005,0-0.024-0.024-0.024-0.024l-0.128-0.033
		l-1.194-0.298l-1.206,11.705c0,0-1.49,1.988-2.126,2.91c-0.64,0.921-0.994,3.405-0.994,3.405c-0.993-1.422,0-4.045,0-4.045
		s-2.272-1.488-2.479-1.488c-0.216,0-3.761,1.418-3.761,1.418s-1.633,5.746-1.204,6.811c0.424,1.063,2.906,4.752,2.906,4.752
		l7.518-1.062c0,0,1.63-2.482,2.412-3.122c0.493-0.403,0.957-1.118,1.337-1.84c0.015-0.027,0.029-0.054,0.04-0.078
		C412.604,315.057,412.638,314.951,412.663,314.846L412.663,314.846z"/>
	<path fill="#1D1D1B" d="M376.274,253.202c0,0,3.113-2.514,4.07-2.635c0,0-3.592-1.914-5.505-2.395
		c-1.917-0.479-2.991-0.956-6.703-0.479c-3.71,0.479-4.547,1.557-6.343,2.994c0,0,5.983-2.035,6.943-1.917
		c0,0-1.078,0.599-2.277,1.557c-1.195,0.958-4.306,2.993-9.571,2.514c0,0,1.46,1.048,1.556,1.078
		c2.321,0.766,4.549,0.718,6.343-0.119C366.583,252.963,372.087,250.328,376.274,253.202L376.274,253.202z"/>
	<path fill="#1D1D1B" d="M475.071,343.738c-0.084-1.86-0.673-3.43-1.759-4.647c0-0.003-0.627-0.616-0.627-0.616
		c0.002,0.006-0.1-0.088-0.1-0.088c0.011,0.014-0.669-0.492-0.669-0.492c0.004,0.002-0.124-0.082-0.124-0.082
		c-0.004,0-0.753-0.42-0.753-0.42l-0.104-0.051c-0.013-0.006-0.866-0.363-0.866-0.363c-1.366-0.504-3.237-0.336-4.598-0.213
		l-0.774,0.063l-0.116,0.013l-129.325,19.08l-4.192,0.535c0,0,3.823,7.005,4.372,8.008c-0.143,0.67-2.378,11.168-2.612,12.28
		c-0.694,0.806-9.038,10.507-9.038,10.507l132.534-10.086l0.044-0.004c1.358-0.159,4.73-0.76,7.486-2.85
		c2.77-2.103,4.466-4.287,5.391-5.724c0.014-0.021,0.024-0.039,0.039-0.062l0.296-0.465l0.07-0.094
		c1.176-1.697,1.725-3.714,2.423-6.594c0,0.002,2.992-14.803,3.062-16.014C475.159,344.843,475.137,344.307,475.071,343.738
		L475.071,343.738z"/>
	<path fill="#00533D" d="M385.281,360.855l-0.413,1.768l-0.854,0.119c0,0-1.144,0.162-1.147,0.183c0,0-1.005,0.14-2.002,0.281
		c1.385,1.047,2.234,1.983,2.57,2.89c0.262,0.7,0.462,1.385,0.383,2.512c-0.035,0.545-0.14,1.199-0.327,2.008l-0.163,0.701
		c-0.449,1.966-0.784,3.315-1.282,4.113l-0.158,0.254c-0.146,0.248-0.305,0.51-0.497,0.772c0.988-0.94,1.997-1.899,2.223-2.117
		c0.177-0.787,2.707-12.303,3.229-14.666c-0.377,0.042-0.86,0.097-1.329,0.149C385.446,360.137,385.371,360.475,385.281,360.855
		L385.281,360.855z"/>
	<path fill="#00533D" d="M347.572,363.896c0.441-0.91,0.779-1.604,0.961-1.978c-0.199-0.373-0.862-1.612-1.285-2.407
		C347.32,360.484,347.449,362.234,347.572,363.896L347.572,363.896z"/>
	<path fill="#00533D" d="M395.677,358.794c-1.188,5.322-2.746,12.259-3.595,15.772c0.619-0.674,1.131-1.228,1.251-1.36
		c0.153-0.454,3.227-9.755,4.836-14.636C398.178,358.54,396.274,358.744,395.677,358.794L395.677,358.794z"/>
	<path fill="#00533D" d="M371.098,367.66c-0.103-0.137-0.191-0.292-0.273-0.461c-0.167,0.799-0.327,1.574-0.479,2.306
		c0.316-0.047,1.561-0.228,2.332-0.328C371.894,368.52,371.373,368.025,371.098,367.66L371.098,367.66z"/>
	<path fill="#00533D" d="M447.755,357.479c-0.029-0.213-0.04-0.445-0.04-0.686l-6.764,0.843c-0.179,0.78-0.38,1.649-0.581,2.521
		c2.423-0.246,7.951-0.812,7.987-0.814C448.062,358.843,447.861,358.225,447.755,357.479L447.755,357.479z"/>
	<path fill="#00533D" d="M469.85,347.216c-0.128-2.665-1.362-4.224-3.764-5.112c-1.184-0.445-3.306-0.143-4.45-0.078
		l-127.776,15.929c0,0,2.736,5.028,3.22,5.874c-0.349,1.642-2.715,12.754-2.925,13.732c-0.702,0.817-6.504,7.539-6.504,7.539
		l128.769-10.211c1.394-0.164,3.033-0.492,4.571-1.326c2.188-1.205,3.128-2.629,3.745-3.569l0.187-0.279
		c0.917-1.334,4.925-20.142,4.984-21.153C469.935,348.102,469.872,347.704,469.85,347.216L469.85,347.216L469.85,347.216z
		 M467.116,348.895c-0.047,0.771-0.251,1.725-0.588,3.088l-0.493,1.994l-1.085,0.149c0,0-1.45,0.197-1.455,0.218
		c0,0-1.274,0.178-2.535,0.352c1.776,1.156,2.876,2.197,3.318,3.209c0.347,0.787,0.612,1.552,0.536,2.822
		c-0.036,0.616-0.157,1.352-0.381,2.262l-0.192,0.794c-0.537,2.218-0.937,3.735-1.554,4.645l-0.193,0.29
		c-0.511,0.782-1.092,1.666-2.542,2.473c-1.093,0.594-2.397,0.817-3.522,0.957l-6.504,0.604l-0.056-0.002
		c-1.191,0-2.086-0.174-2.776-0.541c-0.646-0.35-1.158-0.781-1.498-1.43c-0.898,1.289-2.195,2.279-4.14,2.562l-0.041,0.007
		l-9.664,0.85c-0.629-0.057-1.926-0.176-2.664-1.412c-0.055-0.092-0.099-0.188-0.142-0.283l-0.458,1.896l-8.491,0.678
		c0,0-0.501-1.76-1.074-3.751c-0.316,1.337-1.008,3.899-1.008,3.899l-38.709,3.291c0,0,0.333-0.318,0.812-0.777
		c-0.07,0.051-0.137,0.1-0.215,0.146c-0.865,0.52-1.895,0.709-2.785,0.82l-0.021,0.002l-1.632,0.191l-3.483,0.289h-0.044
		c-0.938-0.013-1.643-0.172-2.187-0.508c-0.646-0.402-1.124-0.921-1.355-1.813c-0.21,0.401-0.451,0.798-0.734,1.17l-0.042,0.053
		l-0.044,0.048c-1.211,1.33-2.625,1.573-3.722,1.639c-0.375,0.078-7.019,0.599-7.019,0.599l-0.092-0.019
		c-1.056-0.166-1.723-0.713-1.983-1.631c-0.055-0.188-0.093-0.383-0.126-0.58c-0.164,0.713-0.644,2.545-0.644,2.545l-21.573,1.815
		c0,0,3.03-3.517,3.393-3.937c0.148-0.693,3.115-14.607,3.309-15.508c-0.146-0.254-1.76-3.059-1.76-3.059l36.021-4.498l-0.299,1.225
		c0.883-0.926,2.143-1.613,3.575-1.918l0.041-0.006l58.227-6.674l-0.256,1.053c0.492-0.506,1.049-0.896,1.654-1.147l0.051-0.021
		l0.946-0.31l10.706-1.354l0.136,0.015c1.133,0.126,1.903,0.592,2.351,1.423l0.039,0.075l0.028,0.083c0,0.001,0,0.003,0.004,0.005
		c1.094-1.267,2.854-2.231,4.915-2.644l0.048-0.014l5.722-0.755l0.048-0.005l0.044-0.003c1.177-0.062,2.788-0.042,3.464,0.214
		c1.066,0.4,2.295,1.128,2.342,3.145C467.116,348.203,467.139,348.525,467.116,348.895L467.116,348.895z"/>
	<path fill="#00533D" d="M448.76,359.877c-0.108,0.499-0.273,1.239-0.432,1.946c0.205-0.028,0.362-0.052,0.362-0.06
		c0,0,1.065-0.139,2.038-0.266C449.775,360.809,449.129,360.279,448.76,359.877L448.76,359.877z"/>
	<path fill="#00533D" d="M410.35,369.426c1.042-4.665,3.197-14.305,3.365-15.042c-0.188-0.31-1.494-2.27-1.494-2.27L410.35,369.426
		L410.35,369.426z"/>
	<polygon fill="#FFFFFF" points="344.214,360.225 344.22,360.299 345.006,371.252 345.9,369.42 345.22,360.104 344.304,360.213 	"/>
	<path fill="#FFFFFF" d="M341.889,369.143c-1.074,5.002-2.166,10.075-2.56,11.558l0.994-0.089c0.283-1.062,0.928-4.006,1.666-7.432
		L341.889,369.143L341.889,369.143z"/>
	<polygon fill="#FFFFFF" points="351.023,365.082 344.289,380.273 345.299,380.189 350.117,369.305 	"/>
	<path fill="#FFFFFF" d="M355.643,358.868c-1.238,5.489-3.854,18.298-4.533,20.827l1.033-0.088
		c0.681-2.533,3.302-15.363,4.546-20.864L355.643,358.868L355.643,358.868z"/>
	<path fill="#FFFFFF" d="M360.23,370.908l-0.333,1.447c-0.103,0.687-0.419,1.584-0.188,2.262c0.47,0.292,1.06,0.137,1.649,0.009
		c-0.208-0.008-0.405-0.051-0.586-0.162c-0.228-0.679,0.089-1.579,0.192-2.266l0.329-1.449c0.537-2.499,2.094-10.342,2.66-12.867
		l-1.069,0.124C362.319,360.531,360.764,368.414,360.23,370.908L360.23,370.908z"/>
	<path fill="#FFFFFF" d="M369.689,357.201c-0.138,0.55-2.704,12.929-2.704,12.929c-0.663,2.427-0.747,5.296-2.349,7.418
		c-0.723,0.798-1.585,1.101-2.504,1.209l0.476-0.04c1.142-0.049,2.231-0.346,3.114-1.318c1.604-2.125,1.69-4.998,2.352-7.431
		c0,0,2.574-12.356,2.709-12.897L369.689,357.201L369.689,357.201z"/>
	<path fill="#FFFFFF" d="M383.442,357.65c-0.096-1.023-0.502-1.608-1.258-1.946c-0.255-0.116-1.184-0.216-2.332-0.168l-2.061,0.265
		l-0.258,0.047c-0.062,0.012-0.124,0.028-0.187,0.043l1.377-0.164c1.141-0.045,2.064,0.056,2.322,0.17
		c0.751,0.338,1.189,0.971,1.254,1.94c0.062,0.972-0.029,1.483-0.435,3.222l-0.188,0.828l1.137-0.121l0.191-0.893
		C383.416,359.136,383.539,358.671,383.442,357.65L383.442,357.65z"/>
	<path fill="#FFFFFF" d="M373.929,374.615c0.222-0.029,0.418-0.127,0.593-0.281c-0.054-0.051-0.1-0.109-0.129-0.195
		c-0.075-0.246-0.002-0.791,0.187-1.592l0.578-2.406l-1.113,0.108l-0.581,2.457c-0.187,0.799-0.258,1.343-0.185,1.591
		C373.367,374.562,373.604,374.652,373.929,374.615L373.929,374.615z"/>
	<path fill="#FFFFFF" d="M378.102,363.756c-0.609-0.41-0.975-0.802-1.054-1.182c-0.085-0.368-0.033-0.922,0.135-1.648
		c0.136-0.566,0.308-1.016,0.527-1.332c0.056-0.082,0.118-0.154,0.184-0.219c-0.102-0.139-0.273-0.186-0.496-0.15
		c-0.31,0.047-0.583,0.234-0.811,0.553c-0.221,0.315-0.392,0.764-0.523,1.33c-0.172,0.728-0.222,1.278-0.136,1.643
		c0.079,0.38,0.442,0.771,1.049,1.186c1.754,1.199,2.778,2.229,3.096,3.088c0.313,0.854,0.517,1.607,0.016,3.74
		c-0.361,1.547-0.775,3.578-1.246,4.334c-0.461,0.75-0.733,1.354-1.712,1.955c-0.465,0.279-1.03,0.442-1.616,0.555l0.383-0.033
		c0.842-0.109,1.701-0.275,2.363-0.676c0.979-0.602,1.254-1.205,1.715-1.957c0.472-0.758,0.887-2.793,1.251-4.344
		c0.499-2.135,0.299-2.891-0.018-3.748S379.861,364.958,378.102,363.756L378.102,363.756z"/>
	<polygon fill="#FFFFFF" points="397.246,357.275 398.158,353.598 396.916,353.746 396.006,357.414 	"/>
	<path fill="#FFFFFF" d="M392.367,357.829c-1.468,6.569-3.671,16.446-4.272,18.616l1.215-0.103
		c0.602-2.176,2.812-12.071,4.281-18.653L392.367,357.829L392.367,357.829z"/>
	<path fill="#FFFFFF" d="M400.113,366.578l1.09-0.105l0.089-0.009c0,0,0.011-0.037,0.036-0.104c0.264-0.803,1.979-6.047,2.851-8.812
		c0.012-0.04,0.025-0.078,0.04-0.119l-0.092,0.014l-1.129,0.184C402.074,360.573,401.07,363.602,400.113,366.578L400.113,366.578z"
		/>
	<path fill="#FFFFFF" d="M408.596,352.492l-0.104,0.014c-0.004,0.031-0.011,0.062-0.016,0.098
		c-0.804,7.252-1.582,14.977-2.386,22.084c-0.011,0.076-0.019,0.15-0.029,0.227l0.132-0.012l1.101-0.094
		c0.822-7.218,1.611-15.078,2.43-22.451L408.596,352.492L408.596,352.492z"/>
	<path fill="#FFFFFF" d="M398.991,370.939c-0.52,1.521-0.933,3.02-1.394,4.541c-0.016,0.052-0.032,0.104-0.049,0.158l0.156-0.013
		l1.045-0.091c0.473-1.553,0.897-3.137,1.421-4.69L398.991,370.939L398.991,370.939z"/>
	<polygon fill="#FFFFFF" points="422.956,363.52 423.585,360.544 420.925,351.046 419.536,351.21 	"/>
	<path fill="#FFFFFF" d="M417.405,361.242c-1.269,5.636-2.562,11.352-3.036,13.025l1.374-0.117
		c0.395-1.395,1.358-5.646,2.408-10.293L417.405,361.242L417.405,361.242z"/>
	<polygon fill="#FFFFFF" points="430.469,349.911 430.421,349.916 430.406,349.977 424.786,373.382 426.197,373.259 431.85,349.745 
			"/>
	<path fill="#FFFFFF" d="M437.714,354.868c0,0-2.598,11.315-2.667,11.647c-0.07,0.33-0.117,1.125,0.164,1.318
		c0.091,0.066,0.121,0.104,0.352,0.182c0.072,0.014,0.953,0.096,1.778-0.145c-0.296,0.004-0.508-0.02-0.547-0.029
		c0,0,0.01,0.004,0.019,0.008c-0.005-0.002-0.009-0.004-0.019-0.008c-0.22-0.076-0.354-0.183-0.354-0.183
		c-0.344-0.265-0.228-1.011-0.168-1.321l2.675-11.667c0.161-0.567,0.488-1.215,1.025-1.53c-0.46,0.049-0.936,0.104-1.136,0.144
		C438.391,353.367,437.882,354.268,437.714,354.868L437.714,354.868z"/>
	<path fill="#FFFFFF" d="M447.795,348.753c-0.325-0.61-0.994-0.938-1.538-0.892c-0.273,0.024-1.418,0.162-2.284,0.274
		c-0.656,0.085-0.664,0.101-0.656,0.101c0.119-0.008,0.408-0.045,0.541-0.062c0.599-0.063,1.025-0.104,1.144-0.103
		c0.522,0.021,1.206,0.279,1.534,0.888c0.68,1.949-0.314,4.392-0.712,6.548c-0.004,0.021-0.008,0.04-0.011,0.059
		c-0.009,0.045-0.026,0.151-0.026,0.151c0.008,0.009,0.015,0.007,0.153-0.011c0.377-0.044,0.749-0.091,1.11-0.15
		C447.422,353.348,448.5,350.759,447.795,348.753L447.795,348.753z"/>
	<path fill="#FFFFFF" d="M443.867,364.081c-0.629,3.229-1.098,7.244-4.598,8.097l0.769-0.064c3.957-0.59,4.429-4.838,5.086-8.215
		l0.65-2.933l-1.253,0.128L443.867,364.081L443.867,364.081z"/>
	<path fill="#FFFFFF" d="M452.486,362.686l-0.69,2.767c-0.223,0.901-0.303,1.513-0.201,1.79c0.113,0.298,0.413,0.396,0.826,0.348
		c0.281-0.035,0.526-0.146,0.749-0.322c-0.073-0.054-0.135-0.123-0.168-0.219c-0.103-0.273-0.019-0.89,0.201-1.79l0.689-2.708
		l-1.224,0.117L452.486,362.686L452.486,362.686z"/>
	<path fill="#FFFFFF" d="M457.511,355.332c-0.782-0.455-1.253-0.889-1.358-1.312c-0.113-0.41-0.062-1.035,0.139-1.852
		c0.161-0.645,0.373-1.146,0.644-1.508c0.073-0.094,0.149-0.176,0.229-0.248c-0.135-0.153-0.352-0.205-0.632-0.163
		c-0.392,0.058-0.734,0.272-1.017,0.634c-0.273,0.36-0.484,0.864-0.64,1.504c-0.204,0.818-0.255,1.441-0.142,1.85
		c0.104,0.426,0.572,0.859,1.352,1.312c2.251,1.323,3.57,2.468,3.986,3.427c0.417,0.955,0.687,1.801,0.095,4.207
		c-0.435,1.741-0.921,4.032-1.506,4.89c-0.569,0.848-0.901,1.53-2.133,2.22c-0.585,0.321-1.302,0.512-2.039,0.643l0.481-0.041
		c1.062-0.135,2.155-0.332,2.985-0.789c1.233-0.688,1.57-1.371,2.145-2.225c0.585-0.855,1.07-3.15,1.505-4.9
		c0.597-2.408,0.321-3.254-0.091-4.215C461.091,357.805,459.77,356.656,457.511,355.332L457.511,355.332z"/>
	<path fill="#FFFFFF" d="M464.183,348.38c-0.143-0.886-0.668-1.798-1.633-2.163c-0.333-0.126-1.513-0.225-2.967-0.15l-2.697,0.32
		c-0.204,0.043-0.404,0.088-0.603,0.137l1.871-0.226c1.445-0.071,2.619,0.025,2.952,0.153c0.961,0.365,1.477,1.301,1.626,2.16
		c0.148,0.861-0.004,1.666-0.49,3.625l-0.164,0.699l-0.059,0.237l0.128-0.013l1.318-0.143l0.224-1.004
		C464.176,350.052,464.321,349.268,464.183,348.38L464.183,348.38z"/>
	<path fill="#FFFFFF" d="M461.636,342.023c1.146-0.062,3.268-0.366,4.45,0.08c0.229,0.082,0.45,0.182,0.669,0.287
		c0.618,0.293,1.147,0.641,1.579,1.059c0.182-0.151,3.142-2.641,3.142-2.641c-0.616-0.701-1.458-1.244-2.514-1.629
		c-1.19-0.445-3.328-0.133-4.479-0.062l-129.319,18.674L461.636,342.023L461.636,342.023z"/>
	<path fill="#F4E8B1" d="M340.068,362.641c-0.187-0.299-0.736-1.339-1.006-1.807l5.15-0.609l0.792,11.027l4.646-9.537l-1.043-2.013
		l7.033-0.834c-1.238,5.489-3.854,18.298-4.533,20.827l-4.753,0.404l1.867-2.002l2.799-13.017l-6.733,15.194l-2.115,0.178
		l-0.285-11.312c-1.075,5.002-2.166,10.075-2.56,11.558l-4.569,0.389l1.809-2.05L340.068,362.641L340.068,362.641z"/>
	<path fill="#F4E8B1" d="M369.689,357.199c-0.136,0.544-2.704,12.931-2.704,12.931c-0.663,2.427-0.747,5.296-2.349,7.418
		c-0.878,0.972-1.96,1.211-3.1,1.259l-4.567,0.389c-0.545-0.086-1.131-0.34-1.325-1.018c-0.193-0.695-0.233-1.546-0.018-2.969
		l3.135-14.47l-1.029-2.121l5.154-0.612c-0.567,2.523-2.123,10.408-2.655,12.902l-0.333,1.447c-0.103,0.687-0.418,1.584-0.188,2.262
		c0.616,0.383,1.434,0,2.189-0.09c0.301-0.188,0.509-0.551,0.613-0.893l3.403-15.986L369.689,357.199L369.689,357.199z"/>
	<path fill="#F4E8B1" d="M377.129,377.051c-0.657,0.398-1.516,0.566-2.353,0.672l-2.721,0.231c-0.691-0.007-1.319-0.104-1.743-0.365
		c-0.722-0.448-1.637-0.959-0.714-5.513l0.316-1.426l4.129-0.401l-0.581,2.457c-0.187,0.799-0.258,1.343-0.185,1.591
		c0.088,0.268,0.325,0.355,0.649,0.318c0.338-0.045,0.623-0.233,0.855-0.57c0.239-0.331,0.423-0.795,0.559-1.377
		c0.296-1.27,0.358-2.127,0.142-2.518c-0.216-0.365-0.804-0.932-1.748-1.688c-0.945-0.768-1.548-1.326-1.821-1.684
		c-0.265-0.348-0.438-0.861-0.515-1.553c-0.07-0.684,0.024-1.586,0.286-2.723c0.385-1.641,0.892-3.049,1.254-3.928
		c0.549-1.328,2.071-2.266,3.666-2.6l2.121-0.252c1.141-0.047,2.064,0.055,2.322,0.17c0.751,0.338,1.189,0.969,1.254,1.939
		c0.062,0.972-0.029,1.482-0.435,3.221l-0.188,0.829l-4.222,0.461l0.338-1.386c0.172-0.736,0.239-1.244,0.165-1.465
		c-0.081-0.235-0.287-0.314-0.565-0.273c-0.309,0.047-0.583,0.235-0.81,0.553c-0.221,0.316-0.392,0.765-0.524,1.33
		c-0.171,0.729-0.221,1.279-0.135,1.644c0.079,0.38,0.442,0.771,1.049,1.187c1.753,1.198,2.778,2.229,3.096,3.088
		c0.313,0.854,0.517,1.606,0.016,3.738c-0.361,1.549-0.776,3.579-1.246,4.334C378.38,375.848,378.107,376.451,377.129,377.051
		L377.129,377.051z"/>
	<path fill="#F4E8B1" d="M392.367,357.829c-1.468,6.569-3.671,16.446-4.272,18.616l-5.708,0.486l2.163-2.013l3.661-16.619
		l-3.555,0.403l-1.202-3.355l13.461-1.603l-0.91,3.668L392.367,357.829L392.367,357.829z"/>
	<path fill="#F4E8B1" d="M402.998,357.623c-0.924,2.95-1.928,5.979-2.885,8.955l3.195-0.312l1.312-8.906L402.998,357.623
		L402.998,357.623L402.998,357.623z M400.336,355.419c0,0-0.736-1.278-1.031-1.823l9.186-1.09
		c-0.822,7.354-1.607,15.205-2.431,22.407l-4.225,0.36l0.706-4.617l-3.551,0.283c-0.536,1.576-0.961,3.123-1.442,4.699l-5.47,0.469
		l2.182-2.31L400.336,355.419L400.336,355.419z"/>
	<path fill="#F4E8B1" d="M414.969,353.958c-0.208-0.433-1.082-1.817-1.194-2.062l5.763-0.687l3.42,12.31l2.255-10.636l-1.535-2.167
		l6.745-0.801l-5.635,23.466l-3.818,0.325l-3.562-12.465c-1.271,5.638-2.562,11.355-3.036,13.027l-5.791,0.49l2.254-2.318
		L414.969,353.958L414.969,353.958z"/>
	<path fill="#F4E8B1" d="M433.761,353.044c0.436-1.425,1.266-3.185,2.772-3.806c0,0,0.432-0.187,0.777-0.252
		c0.349-0.063,7.155-0.922,7.688-0.913c0.522,0.021,1.206,0.278,1.534,0.888c0.688,1.969-0.332,4.434-0.724,6.605
		c-0.008,0.045-0.025,0.151-0.025,0.151c-1.479,0.245-3.124,0.302-4.604,0.472c0.157-0.955,0.485-2.697,0.301-2.905
		c-0.177-0.278-0.389-0.255-0.389-0.255s-1.812,0.17-2.258,0.255c-0.445,0.083-0.954,0.981-1.122,1.584
		c0,0-2.598,11.315-2.667,11.647c-0.07,0.33-0.117,1.125,0.164,1.318c0.091,0.066,0.121,0.104,0.352,0.182
		c0.112,0.021,2.363,0.229,3.028-1.057c0.352-0.775,0.522-1.604,0.69-2.439l-1.554,0.152l0.646-2.964l6.146-0.617l-0.653,2.989
		c-0.658,3.372-1.129,7.609-5.072,8.201l-6.712,0.57c-0.73-0.066-1.45-0.205-1.871-0.908c-0.427-0.729-0.299-1.814-0.179-2.779
		L433.761,353.044L433.761,353.044z"/>
	<path fill="#F4E8B1" d="M456.528,370.289c-0.83,0.454-1.915,0.65-2.976,0.784l-3.441,0.294c-0.88-0.002-1.673-0.108-2.214-0.393
		c-0.926-0.492-2.091-1.052-1.01-6.177l0.377-1.606l5.222-0.506l-0.69,2.766c-0.223,0.902-0.303,1.513-0.201,1.79
		c0.113,0.298,0.413,0.396,0.826,0.348c0.428-0.052,0.785-0.271,1.074-0.647c0.296-0.377,0.521-0.897,0.684-1.56
		c0.352-1.425,0.413-2.392,0.132-2.827c-0.277-0.406-1.038-1.031-2.25-1.871c-1.211-0.847-1.984-1.468-2.336-1.863
		c-0.344-0.389-0.573-0.961-0.684-1.732c-0.099-0.766,0.004-1.781,0.314-3.061c0.452-1.846,1.069-3.438,1.513-4.43
		c0.669-1.498,2.579-2.576,4.6-2.979l2.688-0.321c1.446-0.071,2.619,0.024,2.952,0.153c0.961,0.365,1.477,1.301,1.626,2.16
		c0.148,0.861-0.004,1.666-0.49,3.625l-0.223,0.938l-5.354,0.588l0.406-1.562c0.205-0.837,0.277-1.405,0.179-1.653
		c-0.104-0.265-0.365-0.349-0.72-0.298c-0.392,0.058-0.734,0.272-1.017,0.634c-0.273,0.36-0.484,0.864-0.64,1.504
		c-0.204,0.818-0.255,1.441-0.142,1.85c0.104,0.426,0.572,0.859,1.352,1.312c2.251,1.323,3.57,2.468,3.986,3.427
		c0.417,0.955,0.687,1.801,0.095,4.207c-0.435,1.741-0.921,4.032-1.506,4.889C458.092,368.917,457.76,369.602,456.528,370.289
		L456.528,370.289z"/>
	<path fill="#F4E8B1" d="M472.759,344.293c-0.048-1.255-0.391-2.311-1.025-3.162c-0.214-0.285-0.242-0.303-0.258-0.322
		c0,0-0.099,0.084-0.263,0.221c-0.724,0.609-2.729,2.297-2.879,2.421v-0.002c0.936,0.905,1.439,2.125,1.516,3.769
		c0.022,0.488,0.085,0.885,0.057,1.344c-0.061,1.013-4.067,19.819-4.984,21.153l-0.187,0.279c-0.617,0.94-1.558,2.364-3.745,3.569
		c-0.092,0.051-0.184,0.092-0.277,0.141c0.128-0.051,0.273-0.119,0.456-0.217c2.187-1.205,5.644-4.776,6.267-5.726l0.453-0.735
		c0.99-1.623,4.253-17.736,4.253-17.736c0.373-1.5,0.618-2.633,0.677-3.65C472.842,345.18,472.816,344.734,472.759,344.293
		L472.759,344.293z"/>
	<path fill="#F4E8B1" d="M391.424,323.508l3.336,1.168c0,0,1.407-4.138,1.522-5.56c0.112-1.425-0.497-2.618-0.782-3.132
		c-0.285-0.51-0.541-1.688-0.312-2.658c0.229-0.967,0.243-2.971-0.781-3.598s-8.654-4.914-8.654-4.914s5.691,5.314,6.316,5.887
		c0.626,0.568,1.401,1.086,1.288,1.712c-0.112,0.625-0.803,3.764-0.006,4.502C394.148,317.656,392.619,321.4,391.424,323.508
		L391.424,323.508z"/>
	<path fill="#F4E8B1" d="M406.843,305.482l-0.818,1.619c0,0-1.269-0.748-1.731-0.8c-0.6-0.065-2.4,0.399-2.371,0.351
		c0.021-0.037,4.304-1.016,5.839-5.176L406.843,305.482L406.843,305.482z"/>
	<path fill="#F4E8B1" d="M389.573,303.812l-0.999-0.498c0,0,2.223-1.752,2.223-3.754c0,0,1.78,1.249,2.761,1.069
		C393.558,300.63,391.576,303.646,389.573,303.812L389.573,303.812z"/>
	<path fill="#F4E8B1" d="M426.497,290.952c0,0,0.552-4.501,1.293-4.957c0.745-0.457,1.465-0.976,1.806-1.375
		c0.348-0.4,0.748-0.373,1.205,0.085c0.457,0.457,3.544,3.66,3.774,4.061c0.227,0.4,0.913,1.144,1.198,2.003
		c0.284,0.857,2.575,5.031,3.66,6.233c1.086,1.202,3.318,3.433,3.774,4.689c0.457,1.259,1.261,3.496,0.979,4.297
		c-0.287,0.801-0.744,0.824-1.717,0.938c-0.973,0.115-2.514-2.457-2.514-2.457l-1.316-0.23c0,0-1.83-1.144-2.855-2.002
		c-1.031-0.856-4.77-4.364-7.061-6.021c0,0,4.634,1.829,6.69,2.229c0,0-0.858-1.028-1.772-1.888
		C432.73,295.701,427.753,292.783,426.497,290.952L426.497,290.952z"/>
	<path fill="#00533D" d="M425.733,275.507c-0.354-1.132-2.271-4.256-2.271-4.256s0.424,2.839,0.354,4.043
		c-0.073,1.208-0.073,4.187-0.641,6.741c-0.566,2.554-3.687,9.506-3.687,9.506s5.39-7.164,5.671-7.944
		C425.448,282.815,426.087,276.644,425.733,275.507L425.733,275.507z"/>
	<path fill="#00533D" d="M420.417,214.144c0,0.002-0.461,2.057,0.452,2.743c0.918,0.688,6.512,1.256,8.339,2.514
		c1.831,1.257,3.428,2.288,3.771,3.544c0.345,1.255-1.714,3.997-1.714,3.997s0.802-2.855,0.457-3.769
		c-0.344-0.916-2.856-2.857-4.228-3.2C426.124,219.628,415.959,218.943,420.417,214.144L420.417,214.144z"/>
	<path fill="#00533D" d="M408.077,218.258c0,0,2.171,3.771,2.74,4.341c0.573,0.574,0.914,0.685,1.369,0.685
		c0.462,0,3.429-0.227,3.429-0.227l0.569,1.37c0,0-3.653,0.572-5.142-0.685C409.561,222.487,408.417,219.858,408.077,218.258
		L408.077,218.258z"/>
	<path fill="#00533D" d="M406.02,231.284l1.488,0.115l5.824-2.513l-4.915,3.54C408.417,232.426,407.047,232.426,406.02,231.284
		L406.02,231.284z"/>
	<path fill="#00533D" d="M397.225,237.112c0,0,1.601,1.37,2.972,1.598c1.371,0.229,6.168-1.598,6.854-1.942
		c0.684-0.343,2.623-2.514,2.623-2.514s-1.71,3.541-2.51,3.999c-0.801,0.457-6.969,1.942-6.969,1.942
		S398.253,239.281,397.225,237.112L397.225,237.112z"/>
	<path fill="#00533D" d="M391.97,251.165c0,0,1.831,0.23,2.627-0.115c0.801-0.342,4.342-1.027,4.913-1.599
		c0.572-0.57,5.142-5.826,5.711-7.426c0,0-3.999,7.426-5.367,8.568c-1.371,1.144-4.343,1.372-5.369,1.487
		C393.456,252.193,392.655,251.737,391.97,251.165L391.97,251.165z"/>
	<path fill="#00533D" d="M380.817,262.901c-0.52-1.588-1.211-4.189-0.677-5.415c0.799-1.829,5.026-5.256,5.026-5.256
		s-0.57-0.685-4.228,2.398c-2.926,2.473-2.045,7.794-1.577,9.817C379.885,263.87,380.382,263.347,380.817,262.901L380.817,262.901z"
		/>
	<path fill="#00533D" d="M379.09,264.746c-1.394-0.517-4.582-4.726-4.582-4.726c0.558,2.23,3.504,5.652,3.64,5.812
		C378.463,265.458,378.779,265.092,379.09,264.746L379.09,264.746z"/>
	<path fill="#00533D" d="M385.841,258.038l-0.217-0.438v-2.284l-0.799,2.4l0.324,0.972
		C385.378,258.473,385.611,258.255,385.841,258.038L385.841,258.038z"/>
	<path fill="#00533D" d="M428.444,334.178l4.697-3.311l1.598-4.376l4.166-3.522c0,0,0-4.16,0.317-5.443
		c0.321-1.28,2.455-3.521,2.882-5.23c0,0-2.882,2.885-3.736,3.846c-0.853,0.961-1.063,6.19-1.063,6.19l-4.056,2.667l-2.028,4.484
		l-6.083,3.31C425.138,332.791,426.099,333.75,428.444,334.178L428.444,334.178z"/>
	<path fill="#00533D" d="M406.568,342.291c0,0,1.069-6.833,0.64-7.686c-0.424-0.855-2.773-3.844-2.562-5.018
		c0.215-1.175,0.748-2.135,0.431-3.521c-0.321-1.39-1.604-2.672-1.604-2.672h-1.601c0,0,1.389,2.135,1.494,2.885
		c0.105,0.746-0.748,2.67-0.641,3.521c0.106,0.854,2.351,3.415,2.562,5.23c0.212,1.813-1.494,8.004-1.494,8.004
		S406.035,342.826,406.568,342.291L406.568,342.291z"/>
	<path fill="#00533D" d="M417.088,297.623c0,0,1.531-0.128,2.423-0.896c0,0,1.79,0.64,3.321-0.638c0,0,2.934,2.17,4.977,2.426
		c0,0-2.551-1.405-4.086-4.214c0,0,0.258-1.659,0.258-2.937c0,0-1.021,4.854-4.215,3.832c0,0-0.891,0.893-2.554,0.126
		L417.088,297.623L417.088,297.623z"/>
	<path fill="#FFFFFF" d="M378.043,268.885c-0.105,0.19-0.214,0.382-0.316,0.579c-0.039,0.067-0.073,0.14-0.107,0.21
		c-0.075,0.146-0.148,0.294-0.221,0.445c-0.052,0.103-0.103,0.208-0.151,0.314c-0.055,0.119-0.11,0.242-0.163,0.362
		c-0.093,0.206-0.185,0.417-0.273,0.63c-0.029,0.075-0.062,0.148-0.092,0.223c-0.065,0.156-0.126,0.312-0.188,0.47
		c1.12-1.401,6.011-7.448,8.2-8.76c2.104-1.264,6.261-3.682,9.137-4.08c0.707-2.46,1.407-2.903,1.407-2.903s0.001-0.061-0.106-0.115
		c-0.722-0.058-1.811-0.007-3.406,0.378c-3.546,0.851-11.062,8.085-13.262,11.489c-0.123,0.188-0.239,0.386-0.358,0.586
		C378.109,268.771,378.076,268.828,378.043,268.885L378.043,268.885z"/>
	<path fill="#FFFFFF" d="M399.61,256.907c1.115-0.869,9.673-6.697,9.673-6.697s4.144-13.17,8.396-20.544
		c-2.195,3.051-6.164,9.493-6.981,11.72c-0.994,2.697-2.481,6.597-2.481,6.597s-5.604,3.477-6.95,4.683
		c-1.348,1.208-4.754,5.462-4.754,5.462l-3.278,6.935l-0.196,0.528c0,0,0.077-0.113,0.217-0.309
		C394.276,263.826,398.627,257.673,399.61,256.907L399.61,256.907z"/>
	<path fill="#FFFFFF" d="M436.654,222.727c-0.354,0.497-1.561,1.206-1.772,1.42c-0.215,0.212-1.982,2.412-2.342,3.122
		c-0.354,0.708-1.345,2.766-1.345,2.766s-0.709-1.846-1.21-2.342c-0.493-0.497-2.551-1.701-3.757-1.843
		c-1.205-0.143-4.187,0.285-4.187,0.285c-0.351-1.063-3.048-4.967-3.402-5.25c-0.354-0.283-3.188-1.771-3.188-1.771
		c0.281,0.282,1.202,1.416,1.982,2.907c0.782,1.491,2.696,5.959,3.053,6.242c0.354,0.286,1.206,0.356,1.206,0.356
		c-0.125,0.039-0.241,0.068-0.355,0.097c4.542,2.579,3.818,5.282,4.067,8.223c0.159,1.946-0.312,2.671-0.661,2.939
		c-0.057,0.167-0.124,0.314-0.225,0.426c-0.031,0.044-0.064,0.081-0.092,0.111c-0.003-0.001,0.021,0.044,0.021,0.044
		s1.268,2.536,2.374,4.553c0.18,0.307,0.361,0.632,0.545,0.972c0.248,0.429,0.468,0.794,0.646,1.054
		c0.072,0.069,0.143,0.145,0.187,0.241c0.004,0.007,0.008,0.015,0.012,0.022c0,0.001,0.003,0.003,0.003,0.005l-0.003-0.004
		c0.792,1.743,1.479,3.908,1.973,5.649c0.61,1.297,1.185,2.662,1.185,2.662c0.461,0.231,1.999,0.616,2.386,1.078
		c0.384,0.462,0.841,2.46,0.841,2.46s1.772-2.307,2.079-2.076c0.307,0.231,1.154,0.537,1.001,1.23
		c-0.153,0.692-1.23,2.537-1.23,2.537s-1.463,0.618-1.538,0.848c-0.076,0.232-0.389,1.078-0.389,1.078s-1.842,0.77-2.07,0.307
		c-0.234-0.46-1.231-2.615-1.231-2.615l1.538-2.232l-2.003-1.845l-0.211-0.853c-0.68-0.903-1.612-2.288-3.526-0.979
		c-1.133,0.776-1.662,1.988-1.907,3.031c0.062,0.46,0.129,0.929,0.201,1.397c0.358,2.198,1.49,2.837,2.062,3.192
		c0.565,0.356,1.062,0.214,1.274,1.348c0.212,1.136,0.778,2.91,1.846,2.979c1.06,0.072,2.054-1.134,3.545-0.78
		c1.485,0.355,1.771,0,2.195-0.64c0.428-0.637,0.072-1.843-0.065-2.271c-0.144-0.423,0.354-0.92,0.354-0.92
		c0.849-0.425,1.843-2.342,2.054-2.837c0.213-0.497,0-1.135-0.211-1.703c-0.213-0.569-1.915-2.695-1.915-2.695
		s0.354-2.696,0.497-4.613c0.143-1.915-0.213-5.391-0.213-5.391c0.493-1.206,0.922-3.62,0.922-3.62
		c0.496-0.566,0.989-2.908,1.133-3.261c0.143-0.356,0.215-0.994,0-1.562c-0.213-0.566-1.772-3.334-1.772-3.334
		c-0.281-1.418-1.561-6.1-1.561-6.1c3.548-1.418,3.617-4.754,3.617-4.754l0.354-2.127l0.708-1.845
		C438.781,218.826,437.009,222.232,436.654,222.727L436.654,222.727L436.654,222.727z M427.907,239.997l-1.923,0.231l1.691-2.386
		l0.461-4.308l0.613,4.539L427.907,239.997L427.907,239.997L427.907,239.997z M426.676,259.459c-0.307-0.539-0.46-1.078-0.153-1.463
		c0.308-0.384,1.078-1.46,1.078-1.46s1.305,0.077,1.688,0.23c0.388,0.155,0.848,1.152,1.001,1.615
		c0.154,0.46-1.001,1.847-1.001,1.847l1.155,3.079C430.443,263.307,426.982,259.997,426.676,259.459L426.676,259.459
		L426.676,259.459z M436.366,238.073l-1.001,1.461l-1.535-6.076L436.366,238.073L436.366,238.073z"/>
	<path fill="#FFFFFF" d="M425.521,262.152c0,0,1.001,0.923,1.309,1.385c0.307,0.458,0.618,2.614,1.078,3.076
		c0.46,0.46,2.459,0.846,2.459,0.846l3.771-0.769c0,0-0.229,1.153-0.54,1.461c-0.308,0.307-3.308,0.769-3.308,0.769
		s-3.153-0.539-3.69-0.846c-0.537-0.306-1.078-2.153-0.997-2.769C425.679,264.69,425.521,262.152,425.521,262.152L425.521,262.152z"
		/>
	<path fill="#FFFFFF" d="M414.526,287.497c-0.425-0.427-1.206-0.211-1.206-0.211c-0.92,0.424-4.11,0.354-5.035-0.285
		c-0.92-0.64-3.544-0.78-5.391-0.568c-1.357,0.155-2.633,1.389-3.216,2.026c0.544-0.095,6.074-1.036,7.811,0.432
		c0.599,0.508,0.938,0.771,1.129,0.895c0.183-0.237,0.307-0.372,0.307-0.372s-0.179,0.534-0.36,1.229l-0.354,1.71
		c-0.055,0.438-0.065,0.835,0.007,1.105c0.281,1.065,1.915,2.34,1.915,2.34l2.4,0.598c0.837,0.11,1.75,0.071,2.138-0.171
		c0.566-0.354,1.984-2.909,1.984-2.909S414.95,287.923,414.526,287.497L414.526,287.497z"/>
	<path fill="#FFFFFF" d="M412.82,306.993c0,0,0.684,5.2-0.249,8.168c0.208-0.396,0.392-0.788,0.537-1.132
		c0.424-0.991,0.64-5.816,0.993-8.299c0.354-2.484,0.709-7.309,0.709-7.309c-0.716-0.061-1.413-0.47-1.99-0.928V306.993
		L412.82,306.993z"/>
	<polygon fill="#1D1D1B" points="470.427,372.396 473.236,372.396 473.236,372.811 472.064,372.811 472.064,375.857 
		471.597,375.857 471.597,372.811 470.427,372.811 	"/>
	<path fill="#1D1D1B" d="M476.52,375.857v-2.045c0-0.101,0.011-0.541,0.011-0.861h-0.011l-0.974,2.906h-0.464l-0.976-2.903H474.1
		c0,0.317,0.008,0.759,0.008,0.858v2.045h-0.449v-3.463h0.669l0.99,2.929h0.007l0.982-2.929h0.664v3.463H476.52L476.52,375.857z"/>
</g>
</svg>
