<?xml version="1.0" encoding="utf-8"?>
<!-- Generator: Adobe Illustrator 16.0.0, SVG Export Plug-In . SVG Version: 6.00 Build 0)  -->
<!DOCTYPE svg PUBLIC "-//W3C//DTD SVG 1.1//EN" "http://www.w3.org/Graphics/SVG/1.1/DTD/svg11.dtd">
<svg version="1.1" id="Layer_1" xmlns="http://www.w3.org/2000/svg" xmlns:xlink="http://www.w3.org/1999/xlink" x="0px" y="0px"
	 width="176.278px" height="130.056px" viewBox="10.052 29.361 176.278 130.056"
	 enable-background="new 10.052 29.361 176.278 130.056" xml:space="preserve">
<g>
	<path fill="#00A651" d="M86.045,46.878L86.045,46.878c20.802,0,39.66,8.515,53.343,22.229
		c13.682,13.75,22.155,32.733,22.155,53.602l0,0v0.035c0,1.71-0.069,3.42-0.174,5.096c0,0.278-0.034,0.558-0.034,0.804
		c-0.104,1.359-0.277,2.756-0.451,4.188l0,0l0,0l0,0c-0.104,0.593-0.174,1.188-0.277,1.779c-0.069,0.593-0.174,1.187-0.278,1.779
		c-0.556,3.002-1.285,5.967-2.188,8.829c-0.068,0.243-0.416,0.488-0.66,0.488H14.645c-0.243,0-0.59-0.245-0.695-0.488l0,0l0,0
		c-0.277-1.013-0.59-1.989-0.833-3.036c-0.278-0.978-0.521-1.988-0.764-3.035c-1.181-5.306-1.771-10.818-1.771-16.438l0,0
		c0-20.868,8.474-39.852,22.157-53.602C46.386,55.393,65.278,46.878,86.045,46.878L86.045,46.878L86.045,46.878z M86.045,48.274
		L86.045,48.274L86.045,48.274c-20.385,0-38.895,8.375-52.335,21.846c-13.405,13.505-21.74,32.105-21.74,52.589l0,0
		c0,5.549,0.625,10.923,1.771,16.123c0.208,0.978,0.451,1.989,0.729,3.001c0.208,0.838,0.452,1.641,0.695,2.479H156.96
		c0.799-2.688,1.458-5.41,1.979-8.201c0.104-0.559,0.174-1.15,0.277-1.709c0.104-0.594,0.174-1.152,0.243-1.745l0,0v-0.035l0,0
		c0.174-1.291,0.349-2.652,0.452-4.083c0-0.279,0.033-0.559,0.033-0.803c0.141-1.676,0.175-3.314,0.175-4.99v-0.035l0,0
		c0-20.484-8.3-39.084-21.739-52.589C124.976,56.649,106.466,48.274,86.045,48.274L86.045,48.274z"/>
	<path fill="#85D2F5" d="M91.326,50.599l-19.13,1.155c4.484-0.883,9.114-1.351,13.849-1.351
		C87.821,50.403,89.582,50.471,91.326,50.599L91.326,50.599z"/>
	<path fill="#85D2F5" d="M72.196,51.754l19.13-1.155c1.646,0.121,3.276,0.3,4.891,0.531l-28.772,1.73
		C69.009,52.439,70.593,52.069,72.196,51.754L72.196,51.754z"/>
	<path fill="#82D1F5" d="M67.445,52.86l28.772-1.73c1.183,0.169,2.354,0.367,3.519,0.593L64.038,53.87
		C65.162,53.506,66.297,53.169,67.445,52.86L67.445,52.86z"/>
	<path fill="#83CFF4" d="M64.038,53.87l35.697-2.147c0.98,0.191,1.955,0.4,2.921,0.63l-41.441,2.493
		C62.146,54.5,63.088,54.177,64.038,53.87L64.038,53.87z"/>
	<path fill="#80CEF3" d="M61.214,54.846l41.441-2.493c0.861,0.206,1.718,0.428,2.566,0.665L58.73,55.824
		C59.552,55.484,60.378,55.155,61.214,54.846L61.214,54.846z"/>
	<path fill="#80CEF3" d="M58.731,55.823l46.493-2.806c0.779,0.217,1.558,0.444,2.327,0.687l-51.017,3.068
		C57.26,56.443,57.993,56.129,58.731,55.823L58.731,55.823z"/>
	<path fill="#80CEF3" d="M56.534,56.772l51.017-3.068c0.688,0.217,1.369,0.447,2.048,0.684L54.58,57.697
		C55.226,57.379,55.877,57.07,56.534,56.772L56.534,56.772z"/>
	<path fill="#7DCEF3" d="M54.58,57.697l55.019-3.309c0.635,0.222,1.266,0.452,1.892,0.691l-58.702,3.53
		C53.38,58.297,53.977,57.992,54.58,57.697L54.58,57.697z"/>
	<path fill="#7ACDF3" d="M52.787,58.609l58.702-3.53c0.6,0.229,1.195,0.465,1.787,0.708l-62.208,3.756
		C51.637,59.225,52.209,58.913,52.787,58.609L52.787,58.609z"/>
	<path fill="#7ACDF3" d="M51.068,59.543l62.208-3.756c0.57,0.236,1.14,0.479,1.703,0.728l-65.486,3.938
		C50.014,60.144,50.539,59.84,51.068,59.543L51.068,59.543z"/>
	<path fill="#7ACDF3" d="M49.494,60.454l65.485-3.938c0.522,0.231,1.041,0.468,1.557,0.711l-68.503,4.119
		C48.516,61.043,49.003,60.746,49.494,60.454L49.494,60.454z"/>
	<path fill="#77CAF2" d="M48.032,61.346l68.503-4.119c0.496,0.233,0.987,0.473,1.478,0.718l-71.364,4.292
		C47.106,61.935,47.567,61.638,48.032,61.346L48.032,61.346z"/>
	<path fill="#74CAF1" d="M46.648,62.236l71.365-4.292c0.475,0.238,0.948,0.48,1.418,0.729l-74.134,4.476
		C45.744,62.839,46.194,62.535,46.648,62.236L46.648,62.236z"/>
	<path fill="#74CAF1" d="M45.298,63.148l74.135-4.476c0.463,0.245,0.924,0.494,1.381,0.748l-76.774,4.618
		C44.455,63.737,44.875,63.441,45.298,63.148L45.298,63.148z"/>
	<path fill="#74CAF1" d="M44.039,64.039l76.774-4.618c0.43,0.239,0.857,0.481,1.283,0.729L42.85,64.916
		C43.243,64.619,43.64,64.328,44.039,64.039L44.039,64.039z"/>
	<path fill="#71C9F1" d="M42.85,64.916l79.247-4.766c0.416,0.243,0.829,0.488,1.24,0.738l-81.657,4.93
		C42.066,65.513,42.457,65.213,42.85,64.916L42.85,64.916z"/>
	<path fill="#6EC6F0" d="M41.68,65.818l81.657-4.93c0.395,0.241,0.784,0.488,1.174,0.736L40.599,66.69
		C40.957,66.397,41.316,66.104,41.68,65.818L41.68,65.818z"/>
	<path fill="#6EC6F0" d="M40.599,66.69l83.912-5.065c0.393,0.25,0.781,0.504,1.168,0.761l-86.125,5.179
		C39.899,67.271,40.248,66.979,40.599,66.69L40.599,66.69z"/>
	<path fill="#6EC6F0" d="M39.554,67.565l86.125-5.179c0.366,0.244,0.73,0.489,1.092,0.739l-88.217,5.307
		C38.884,68.14,39.218,67.851,39.554,67.565L39.554,67.565z"/>
	<path fill="#6BC6F0" d="M38.553,68.432l88.217-5.307c0.358,0.248,0.717,0.496,1.069,0.75l-90.285,5.451
		C37.884,69.023,38.218,68.727,38.553,68.432L38.553,68.432z"/>
	<path fill="#6BC6F0" d="M37.555,69.325l90.285-5.451c0.341,0.245,0.679,0.493,1.015,0.744l-92.218,5.567
		C36.94,69.896,37.246,69.608,37.555,69.325L37.555,69.325z"/>
	<path fill="#67C5F0" d="M36.636,70.186l92.218-5.567c0.342,0.254,0.68,0.513,1.017,0.773l-94.13,5.661
		C36.037,70.761,36.334,70.472,36.636,70.186L36.636,70.186z"/>
	<path fill="#67C5F0" d="M35.74,71.052l94.13-5.661c0.32,0.247,0.639,0.495,0.954,0.747l-95.945,5.771
		C35.164,71.621,35.451,71.336,35.74,71.052L35.74,71.052z"/>
	<path fill="#65C3EE" d="M34.879,71.909l95.945-5.771c0.312,0.25,0.625,0.5,0.934,0.755l-97.741,5.902
		C34.301,72.498,34.59,72.203,34.879,71.909L34.879,71.909z"/>
	<path fill="#65C3EE" d="M34.017,72.796l97.741-5.902c0.3,0.248,0.595,0.5,0.89,0.753l-99.425,6.002
		C33.485,73.364,33.749,73.078,34.017,72.796L34.017,72.796z"/>
	<path fill="#61C2EE" d="M33.222,73.649l99.425-6.002c0.303,0.257,0.603,0.517,0.899,0.779L32.442,74.507
		C32.7,74.219,32.96,73.933,33.222,73.649L33.222,73.649z"/>
	<path fill="#61C2EE" d="M32.442,74.507l101.104-6.081c0.284,0.25,0.568,0.501,0.848,0.756L31.689,75.359
		C31.938,75.072,32.189,74.789,32.442,74.507L32.442,74.507z"/>
	<path fill="#5DC1EE" d="M31.689,75.359l102.705-6.177c0.275,0.25,0.547,0.506,0.817,0.761L30.944,76.238
		C31.191,75.943,31.438,75.649,31.689,75.359L31.689,75.359z"/>
	<path fill="#5DC1EE" d="M30.944,76.238l104.268-6.294c0.268,0.25,0.533,0.502,0.797,0.757L30.241,77.087
		C30.473,76.802,30.708,76.52,30.944,76.238L30.944,76.238z"/>
	<path fill="#5DC1EE" d="M30.241,77.087L136.009,70.7c0.27,0.261,0.538,0.523,0.805,0.788l-107.254,6.45
		C29.784,77.652,30.012,77.369,30.241,77.087L30.241,77.087z"/>
	<path fill="#5AC0EE" d="M29.559,77.938l107.254-6.45c0.25,0.251,0.498,0.505,0.746,0.76L28.906,78.782
		C29.122,78.5,29.338,78.217,29.559,77.938L29.559,77.938z"/>
	<path fill="#57BEED" d="M28.906,78.782l108.652-6.534c0.248,0.254,0.496,0.508,0.739,0.766L28.241,79.659
		C28.459,79.364,28.683,79.073,28.906,78.782L28.906,78.782z"/>
	<path fill="#57BEED" d="M28.241,79.659l110.057-6.646c0.238,0.252,0.473,0.508,0.708,0.764L27.629,80.501
		C27.832,80.22,28.034,79.938,28.241,79.659L28.241,79.659z"/>
	<path fill="#57BEED" d="M27.629,80.501l111.377-6.724c0.24,0.262,0.479,0.526,0.718,0.792L27.029,81.346
		C27.228,81.063,27.427,80.781,27.629,80.501L27.629,80.501z"/>
	<path fill="#53BEED" d="M27.029,81.346l112.693-6.777c0.228,0.254,0.454,0.508,0.678,0.766L26.448,82.188
		C26.64,81.905,26.834,81.625,27.029,81.346L27.029,81.346z"/>
	<path fill="#53BEED" d="M26.448,82.188l113.951-6.853c0.221,0.254,0.438,0.512,0.654,0.77L25.871,83.059
		C26.062,82.768,26.252,82.476,26.448,82.188L26.448,82.188z"/>
	<path fill="#50BCEB" d="M25.871,83.059l115.183-6.954c0.223,0.265,0.447,0.528,0.666,0.796l-116.4,7.001
		C25.5,83.619,25.686,83.339,25.871,83.059L25.871,83.059z"/>
	<path fill="#50BCEB" d="M25.319,83.902l116.4-7.001c0.21,0.254,0.413,0.512,0.618,0.769L24.799,84.738
		C24.972,84.459,25.143,84.178,25.319,83.902L25.319,83.902z"/>
	<path fill="#4BBBEB" d="M24.799,84.738l117.539-7.068c0.203,0.255,0.405,0.511,0.604,0.768L24.288,85.574
		C24.456,85.293,24.627,85.016,24.799,84.738L24.799,84.738z"/>
	<path fill="#4BBBEB" d="M24.288,85.574l118.656-7.136c0.199,0.257,0.396,0.516,0.592,0.775l-119.76,7.23
		C23.944,86.152,24.115,85.862,24.288,85.574L24.288,85.574z"/>
	<path fill="#47BAEB" d="M23.775,86.443l119.76-7.23c0.2,0.265,0.397,0.532,0.594,0.8L23.297,87.279
		C23.455,87,23.614,86.721,23.775,86.443L23.775,86.443z"/>
	<path fill="#47BAEB" d="M23.297,87.279l120.832-7.267c0.188,0.256,0.377,0.513,0.562,0.771l-121.857,7.33
		C22.985,87.834,23.141,87.557,23.297,87.279L23.297,87.279z"/>
	<path fill="#42BAEB" d="M22.832,88.114l121.856-7.33c0.184,0.256,0.362,0.516,0.541,0.774L22.387,88.946
		C22.534,88.668,22.681,88.39,22.832,88.114L22.832,88.114z"/>
	<path fill="#43B8EA" d="M22.387,88.946l122.844-7.388c0.18,0.258,0.36,0.515,0.537,0.776L21.932,89.81
		C22.081,89.521,22.235,89.233,22.387,88.946L22.387,88.946z"/>
	<path fill="#3EB7EA" d="M21.932,89.81l123.834-7.476c0.18,0.267,0.354,0.537,0.53,0.807L21.516,90.645
		C21.654,90.366,21.791,90.086,21.932,89.81L21.932,89.81z"/>
	<path fill="#3EB7EA" d="M21.516,90.645l124.782-7.504c0.169,0.257,0.34,0.514,0.506,0.774L21.105,91.474
		C21.239,91.196,21.378,90.921,21.516,90.645L21.516,90.645z"/>
	<path fill="#39B7EA" d="M21.105,91.474l125.699-7.559c0.163,0.256,0.322,0.517,0.483,0.775L20.718,92.304
		C20.847,92.027,20.973,91.749,21.105,91.474L21.105,91.474z"/>
	<path fill="#39B7EA" d="M20.718,92.304l126.569-7.613c0.159,0.26,0.321,0.519,0.479,0.781L20.32,93.166
		C20.45,92.876,20.585,92.591,20.718,92.304L20.718,92.304z"/>
	<path fill="#3AB5E8" d="M20.32,93.166l127.447-7.694c0.162,0.268,0.318,0.538,0.478,0.808L19.958,93.994
		C20.079,93.718,20.197,93.44,20.32,93.166L20.32,93.166z"/>
	<path fill="#35B5E8" d="M19.958,93.994l128.286-7.715c0.151,0.259,0.304,0.519,0.452,0.78L19.601,94.822
		C19.717,94.545,19.839,94.27,19.958,93.994L19.958,93.994z"/>
	<path fill="#35B5E8" d="M19.601,94.822l129.095-7.763c0.146,0.258,0.291,0.519,0.435,0.778l-129.866,7.81
		C19.376,95.372,19.486,95.096,19.601,94.822L19.601,94.822z"/>
	<path fill="#2EB4E8" d="M19.265,95.647l129.866-7.81c0.144,0.26,0.287,0.52,0.429,0.782L18.919,96.508
		C19.032,96.22,19.149,95.934,19.265,95.647L19.265,95.647z"/>
	<path fill="#2EB4E8" d="M18.919,96.508l130.639-7.889c0.146,0.27,0.287,0.542,0.428,0.813l-131.379,7.9
		C18.71,97.058,18.812,96.782,18.919,96.508L18.919,96.508z"/>
	<path fill="#26B3E8" d="M18.606,97.333l131.379-7.9c0.137,0.259,0.271,0.519,0.402,0.78L18.299,98.156
		C18.399,97.881,18.503,97.606,18.606,97.333L18.606,97.333z"/>
	<path fill="#26B3E8" d="M18.299,98.156l132.089-7.943c0.131,0.261,0.26,0.523,0.391,0.786l-132.78,8.016
		C18.097,98.729,18.196,98.44,18.299,98.156L18.299,98.156z"/>
	<path fill="#1CB3E8" d="M17.998,99.015l132.78-8.016c0.128,0.26,0.255,0.521,0.379,0.782L17.714,99.837
		C17.806,99.562,17.902,99.288,17.998,99.015L17.998,99.015z"/>
	<path fill="#20B1E7" d="M17.714,99.837l133.442-8.056c0.129,0.27,0.255,0.542,0.38,0.813l-134.089,8.066
		C17.535,100.386,17.623,100.11,17.714,99.837L17.714,99.837z"/>
	<path fill="#14B1E7" d="M17.447,100.661l134.089-8.066c0.12,0.261,0.238,0.522,0.355,0.785l-134.707,8.102
		C17.27,101.207,17.359,100.935,17.447,100.661L17.447,100.661z"/>
	<path fill="#14B1E7" d="M17.186,101.481l134.708-8.102c0.115,0.261,0.229,0.523,0.344,0.786l-135.305,8.168
		C17.016,102.051,17.098,101.765,17.186,101.481L17.186,101.481z"/>
	<path fill="#00B0E7" d="M16.932,102.335l135.305-8.168c0.113,0.262,0.226,0.523,0.336,0.787l-135.881,8.203
		C16.769,102.882,16.852,102.608,16.932,102.335L16.932,102.335z"/>
	<path fill="#08AFE6" d="M16.691,103.156l135.88-8.203c0.113,0.271,0.224,0.544,0.334,0.817L16.47,103.976
		C16.543,103.702,16.615,103.428,16.691,103.156L16.691,103.156z"/>
	<path fill="#00AEE5" d="M16.47,103.976l136.436-8.205c0.104,0.262,0.212,0.523,0.313,0.786l-136.97,8.239
		C16.32,104.521,16.396,104.249,16.47,103.976L16.47,103.976z"/>
	<path fill="#00AEE5" d="M16.25,104.796l136.969-8.239c0.103,0.263,0.201,0.526,0.302,0.79l-137.479,8.301
		C16.111,105.362,16.177,105.078,16.25,104.796L16.25,104.796z"/>
	<path fill="#00ADE5" d="M16.042,105.646l137.479-8.299c0.099,0.262,0.197,0.523,0.293,0.786l-137.971,8.33
		C15.906,106.19,15.976,105.919,16.042,105.646L16.042,105.646z"/>
	<path fill="#00ADE5" d="M15.843,106.464l137.971-8.33c0.1,0.272,0.193,0.547,0.289,0.82l-138.438,8.328
		C15.724,107.009,15.78,106.735,15.843,106.464L15.843,106.464z"/>
	<path fill="#00ADE5" d="M15.664,107.282l138.438-8.328c0.092,0.264,0.186,0.525,0.273,0.791l-138.891,8.354
		C15.543,107.825,15.604,107.554,15.664,107.282L15.664,107.282z"/>
	<path fill="#00ADE5" d="M15.486,108.099l138.891-8.354c0.089,0.263,0.171,0.527,0.257,0.791l-139.313,8.41
		C15.375,108.663,15.428,108.38,15.486,108.099L15.486,108.099z"/>
	<path fill="#00ACE5" d="M15.32,108.946l139.313-8.41c0.085,0.264,0.175,0.525,0.257,0.791l-139.727,8.436
		C15.213,109.49,15.268,109.218,15.32,108.946L15.32,108.946z"/>
	<path fill="#00ABE4" d="M15.164,109.763l139.728-8.436c0.084,0.273,0.162,0.549,0.244,0.822l-140.114,8.427
		C15.068,110.306,15.114,110.033,15.164,109.763L15.164,109.763z"/>
	<path fill="#00ABE4" d="M15.022,110.576l140.114-8.427c0.078,0.265,0.159,0.526,0.234,0.791l-140.483,8.451
		C14.93,111.119,14.976,110.849,15.022,110.576L15.022,110.576z"/>
	<path fill="#00AAE4" d="M14.887,111.392l140.483-8.449c0.074,0.264,0.146,0.529,0.218,0.795l-140.83,8.502
		C14.799,111.955,14.842,111.674,14.887,111.392L14.887,111.392z"/>
	<path fill="#00AAE4" d="M14.758,112.237l140.83-8.502c0.072,0.265,0.146,0.527,0.214,0.791L14.645,113.05
		C14.681,112.778,14.718,112.508,14.758,112.237L14.758,112.237z"/>
	<path fill="#00AAE4" d="M14.645,113.05l141.157-8.521c0.072,0.274,0.141,0.552,0.208,0.828l-141.473,8.508
		C14.57,113.592,14.607,113.321,14.645,113.05L14.645,113.05z"/>
	<path fill="#00A9E3" d="M14.537,113.862l141.473-8.508c0.065,0.266,0.132,0.528,0.194,0.793l-141.76,8.525
		C14.475,114.403,14.503,114.133,14.537,113.862L14.537,113.862z"/>
	<path fill="#00A8E3" d="M14.444,114.674l141.76-8.524c0.062,0.265,0.122,0.529,0.182,0.795L14.35,115.521
		C14.378,115.237,14.413,114.956,14.444,114.674L14.444,114.674z"/>
	<path fill="#00A8E3" d="M14.35,115.521l142.036-8.576c0.062,0.275,0.122,0.553,0.182,0.83l-142.29,8.556
		C14.302,116.062,14.323,115.79,14.35,115.521L14.35,115.521z"/>
	<path fill="#00A7E3" d="M14.278,116.33l142.29-8.558c0.057,0.266,0.111,0.529,0.164,0.795L14.206,117.14
		C14.227,116.869,14.254,116.601,14.278,116.33L14.278,116.33z"/>
	<path fill="#00A7E3" d="M14.206,117.14l142.525-8.57c0.053,0.265,0.103,0.531,0.152,0.798L14.151,117.95
		C14.169,117.681,14.185,117.408,14.206,117.14L14.206,117.14z"/>
	<path fill="#00A7E2" d="M14.152,117.949l142.733-8.583c0.05,0.266,0.103,0.529,0.148,0.797l-142.935,8.629
		C14.114,118.511,14.133,118.229,14.152,117.949L14.152,117.949z"/>
	<path fill="#00A7E2" d="M14.099,118.792l142.935-8.629c0.049,0.275,0.093,0.553,0.138,0.83L14.06,119.603
		C14.072,119.331,14.083,119.062,14.099,118.792L14.099,118.792z"/>
	<path fill="#00A5E1" d="M14.06,119.603l143.111-8.608c0.044,0.267,0.092,0.53,0.133,0.799L14.03,120.409
		C14.039,120.14,14.048,119.87,14.06,119.603L14.06,119.603z"/>
	<path fill="#00A5E1" d="M14.029,120.408l143.275-8.616c0.041,0.266,0.073,0.532,0.111,0.798l-143.411,8.624
		C14.012,120.944,14.021,120.677,14.029,120.408L14.029,120.408z"/>
	<path fill="#00A4E1" d="M14.005,121.214l143.411-8.624c0.037,0.267,0.077,0.533,0.112,0.802l-143.534,8.666
		C13.999,121.774,13.999,121.494,14.005,121.214L14.005,121.214z"/>
	<path fill="#00A4E1" d="M13.995,122.058l143.533-8.666c0.037,0.276,0.068,0.555,0.102,0.832l-143.644,8.639v-0.047
		C13.985,122.562,13.992,122.31,13.995,122.058L13.995,122.058z"/>
	<path fill="#00A4E1" d="M13.985,122.862l143.644-8.639c0.032,0.266,0.062,0.531,0.093,0.799l-143.73,8.646
		C13.987,123.399,13.985,123.131,13.985,122.862L13.985,122.862z"/>
	<path fill="#00A3E0" d="M13.99,123.668l143.729-8.646c0.028,0.267,0.057,0.533,0.081,0.802l-143.798,8.647
		C13.998,124.205,13.993,123.937,13.99,123.668L13.99,123.668z"/>
	<path fill="#00A2E0" d="M14.004,124.474l143.798-8.648c0.026,0.267,0.049,0.533,0.071,0.802l-143.846,8.685
		C14.018,125.031,14.01,124.752,14.004,124.474L14.004,124.474z"/>
	<path fill="#00A2E0" d="M14.027,125.312l143.846-8.686c0.024,0.277,0.049,0.557,0.069,0.837L14.06,126.115
		C14.047,125.849,14.037,125.579,14.027,125.312L14.027,125.312z"/>
	<path fill="#00A2E0" d="M14.06,126.115l143.882-8.652c0.021,0.267,0.035,0.534,0.052,0.802l-143.893,8.653
		C14.085,126.649,14.072,126.383,14.06,126.115L14.06,126.115z"/>
	<path fill="#00A2E0" d="M14.101,126.918l143.893-8.653c0.017,0.268,0.037,0.533,0.051,0.801L14.15,127.722
		C14.132,127.454,14.115,127.187,14.101,126.918L14.101,126.918z"/>
	<path fill="#00A2E0" d="M14.15,127.722l143.894-8.656c0.014,0.27,0.021,0.539,0.032,0.808l-143.865,8.685
		C14.189,128.278,14.169,128,14.15,127.722L14.15,127.722z"/>
	<path fill="#00A1E0" d="M14.211,128.558l143.865-8.686c0.011,0.277,0.022,0.557,0.03,0.837l-143.829,8.649
		C14.255,129.092,14.232,128.824,14.211,128.558L14.211,128.558z"/>
	<path fill="#00A1E0" d="M14.279,129.358l143.83-8.649c0.008,0.269,0.012,0.537,0.017,0.806L14.356,130.16
		C14.329,129.894,14.303,129.626,14.279,129.358L14.279,129.358z"/>
	<path fill="#009FDF" d="M14.356,130.16l143.768-8.646c0.005,0.268,0.007,0.535,0.011,0.803L14.441,130.96
		C14.411,130.692,14.383,130.428,14.356,130.16L14.356,130.16z"/>
	<path fill="#009FDF" d="M14.441,130.96l143.694-8.643c0.001,0.166,0.007,0.33,0.007,0.496l-0.002,0.311l-143.6,8.671
		C14.505,131.519,14.473,131.238,14.441,130.96L14.441,130.96z"/>
	<path fill="#009FDF" d="M14.54,131.795l143.6-8.671c0,0.279-0.004,0.561-0.009,0.841l-143.487,8.629
		C14.607,132.328,14.573,132.062,14.54,131.795L14.54,131.795z"/>
	<path fill="#009FDF" d="M14.644,132.594l143.487-8.629c-0.004,0.271-0.01,0.537-0.017,0.806l-143.358,8.623
		C14.717,133.127,14.68,132.86,14.644,132.594L14.644,132.594z"/>
	<path fill="#009EDE" d="M14.756,133.394l143.358-8.623c-0.008,0.271-0.016,0.539-0.026,0.809l-143.205,8.646
		C14.839,133.948,14.796,133.671,14.756,133.394L14.756,133.394z"/>
	<path fill="#009EDE" d="M14.883,134.226l143.205-8.646c-0.01,0.271-0.022,0.54-0.034,0.809l-143.041,8.637
		C14.968,134.757,14.925,134.492,14.883,134.226L14.883,134.226z"/>
	<path fill="#009EDE" d="M15.013,135.022l143.041-8.637c-0.015,0.281-0.029,0.562-0.048,0.842l-142.854,8.592
		C15.104,135.556,15.059,135.288,15.013,135.022L15.013,135.022z"/>
	<path fill="#009DDD" d="M15.152,135.819l142.854-8.592c-0.016,0.271-0.032,0.541-0.053,0.811l-142.651,8.579
		C15.251,136.353,15.201,136.086,15.152,135.819L15.152,135.819z"/>
	<path fill="#009CDD" d="M15.302,136.617l142.651-8.579c-0.021,0.271-0.041,0.54-0.063,0.811l-142.424,8.599
		C15.409,137.171,15.355,136.896,15.302,136.617L15.302,136.617z"/>
	<path fill="#009CDD" d="M15.466,137.446l142.424-8.598c-0.021,0.27-0.046,0.538-0.072,0.809l-142.184,8.586
		C15.576,137.978,15.52,137.713,15.466,137.446L15.466,137.446z"/>
	<path fill="#009CDD" d="M15.633,138.243l142.185-8.586c-0.026,0.281-0.055,0.564-0.086,0.846L15.81,139.038
		C15.75,138.772,15.69,138.509,15.633,138.243L15.633,138.243z"/>
	<path fill="#009CDD" d="M15.81,139.038l141.923-8.535c-0.028,0.271-0.061,0.541-0.092,0.811l-141.646,8.519
		C15.932,139.567,15.87,139.303,15.81,139.038L15.81,139.038z"/>
	<path fill="#009ADC" d="M15.995,139.831l141.646-8.518c-0.031,0.271-0.064,0.543-0.101,0.812L16.198,140.66
		C16.128,140.385,16.061,140.108,15.995,139.831L15.995,139.831z"/>
	<path fill="#009ADC" d="M16.198,140.66l141.343-8.533c-0.035,0.271-0.072,0.541-0.11,0.812l-141.029,8.516
		C16.332,141.188,16.264,140.925,16.198,140.66L16.198,140.66z"/>
	<path fill="#009ADC" d="M16.401,141.453l141.03-8.515c-0.041,0.281-0.082,0.563-0.125,0.846l-140.69,8.463
		C16.542,141.983,16.471,141.718,16.401,141.453L16.401,141.453z"/>
	<path fill="#009ADC" d="M16.615,142.247l140.69-8.463c-0.041,0.271-0.084,0.544-0.13,0.814l-140.339,8.439
		C16.762,142.774,16.688,142.512,16.615,142.247L16.615,142.247z"/>
	<path fill="#0099DC" d="M16.837,143.039l140.339-8.44c-0.045,0.272-0.091,0.545-0.139,0.814l-139.959,8.449
		C16.997,143.589,16.917,143.313,16.837,143.039L16.837,143.039z"/>
	<path fill="#0099DC" d="M17.079,143.863l139.959-8.45c-0.048,0.271-0.098,0.545-0.148,0.816l-133.864,8.08h-5.811
		C17.169,144.162,17.124,144.013,17.079,143.863L17.079,143.863z"/>
	<path fill="#0099DC" d="M23.025,144.312l133.863-8.082c-0.053,0.283-0.107,0.565-0.164,0.849l-120.282,7.233H23.025L23.025,144.312
		z"/>
	<path fill="#0099DC" d="M36.442,144.312l120.282-7.233c-0.056,0.272-0.111,0.544-0.17,0.815L49.85,144.312H36.442L36.442,144.312z"
		/>
	<path fill="#0098DB" d="M49.85,144.312l106.706-6.418c-0.059,0.272-0.119,0.547-0.181,0.818l-92.748,5.6H49.85L49.85,144.312z"/>
	<path fill="#0097DB" d="M63.627,144.312l92.748-5.6c-0.062,0.271-0.124,0.544-0.188,0.814l-79.229,4.783h-13.33V144.312z"/>
	<path fill="#0097DB" d="M76.957,144.312l79.229-4.783c-0.066,0.285-0.137,0.568-0.207,0.853l-65.362,3.931H76.957L76.957,144.312z"
		/>
	<path fill="#0097DB" d="M90.617,144.312l65.362-3.932c-0.068,0.273-0.14,0.546-0.209,0.817l-51.771,3.112H90.617V144.312z"/>
	<path fill="#0097DB" d="M103.998,144.312l51.771-3.113c-0.072,0.273-0.146,0.548-0.221,0.82l-37.979,2.293H103.998L103.998,144.312
		z"/>
	<path fill="#0096DA" d="M117.569,144.312l37.979-2.293c-0.078,0.284-0.158,0.569-0.24,0.854l-23.934,1.439H117.569L117.569,144.312
		z"/>
	<path fill="#0095DA" d="M131.375,144.312l23.933-1.439c-0.078,0.273-0.158,0.548-0.24,0.818l-10.312,0.621H131.375L131.375,144.312
		z"/>
	<path fill="#0095DA" d="M144.756,144.312l10.312-0.621c-0.062,0.207-0.127,0.414-0.19,0.621H144.756L144.756,144.312z"/>
	<path fill="#FFFFFF" d="M27.321,106.657c2.535,0.941,5.209,0.104,6.216-2.688c0.417-1.116,0.625-2.932-0.486-3.35
		c-0.243-0.07-0.973-0.245-1.25,0.558c-0.208,0.523,0.139,0.873-0.312,2.164c-0.486,1.361-1.979,1.641-3.369,1.151
		c-1.354-0.523-2.466-1.64-1.875-3.28c0.312-0.803,0.903-1.117,1.077-1.605c0.173-0.522-0.174-1.047-0.625-1.221
		c-1.076-0.385-1.945,0.941-2.396,2.163C23.327,103.237,24.646,105.681,27.321,106.657L27.321,106.657z M33.606,99.853
		c0.625,0.35,1.181,0.069,1.458-0.42l1.562-3c0.313-0.593,0.174-1.116-0.347-1.396c-0.556-0.314-1.077-0.14-1.389,0.454
		l-1.077,2.059l-1.563-0.838l0.972-1.814c0.313-0.593,0.139-1.117-0.382-1.396c-0.556-0.314-1.076-0.14-1.389,0.453l-0.938,1.815
		l-1.528-0.803l1.042-1.954c0.312-0.593,0.174-1.152-0.382-1.431c-0.521-0.279-1.042-0.105-1.354,0.488l-1.563,2.896
		c-0.243,0.489-0.139,1.152,0.452,1.465L33.606,99.853L33.606,99.853z M36.663,93.815c0.625,0.418,1.181,0.279,1.562-0.245
		c0.347-0.488,0.278-1.082-0.347-1.535l-3.646-2.548v-0.035l5.695-0.349c1.146-0.07,1.493-0.104,1.806-0.558
		c0.347-0.523,0.312-1.117-0.313-1.536l-5.973-4.223c-0.625-0.418-1.215-0.279-1.562,0.245c-0.347,0.488-0.313,1.082,0.312,1.535
		l3.681,2.548l-0.035,0.035l-5.696,0.349c-1.146,0.07-1.458,0.104-1.771,0.558c-0.382,0.523-0.312,1.117,0.313,1.536L36.663,93.815
		L36.663,93.815z M39.302,76.61c-1.945,2.024-1.84,4.676,0.312,6.77c2.153,2.094,4.827,2.094,6.772,0.104
		c1.945-2.024,1.806-4.71-0.347-6.805C43.886,74.622,41.247,74.586,39.302,76.61L39.302,76.61z M40.726,77.971
		c1.146-1.187,2.639-0.663,3.716,0.384c1.077,1.047,1.667,2.547,0.521,3.734c-1.181,1.187-2.674,0.663-3.75-0.384
		C40.135,80.693,39.58,79.193,40.726,77.971L40.726,77.971z M47.15,71.376c-0.452-0.628-1.042-0.663-1.563-0.314
		c-0.486,0.384-0.625,0.942-0.173,1.57l2.674,3.734c1.458,2.024,3.716,2.233,5.661,0.837c1.91-1.431,2.396-3.664,0.938-5.653
		l-2.674-3.734c-0.452-0.628-1.042-0.663-1.528-0.279c-0.521,0.349-0.66,0.942-0.208,1.536l2.674,3.734
		c0.764,1.012,0.417,2.094-0.417,2.722c-0.868,0.628-1.979,0.593-2.709-0.454L47.15,71.376L47.15,71.376z M57.638,73.051
		c0.348,0.698,0.938,0.837,1.459,0.559c0.556-0.314,0.799-0.837,0.451-1.536l-1.215-2.408v-0.035l3.854,1.78
		c0.382,0.174,0.66,0.279,1.146,0c0.729-0.349,0.66-1.117,0.521-1.361c-0.139-0.349-0.417-0.488-0.799-0.628l-2.57-0.942
		c1.077-0.873,1.389-2.129,0.729-3.385c-0.799-1.571-2.431-2.06-4.132-1.187l-2.292,1.187c-0.486,0.244-0.764,0.837-0.451,1.43
		L57.638,73.051L57.638,73.051z M56.666,66.386l1.25-0.663c0.556-0.279,1.146-0.14,1.424,0.418c0.278,0.524,0.139,1.117-0.486,1.466
		l-1.25,0.628L56.666,66.386L56.666,66.386z M64.514,68.41c-0.069,0.803-0.035,1.047,0.069,1.361c0.139,0.488,0.66,0.698,1.25,0.523
		c0.66-0.209,0.729-0.698,0.764-1.326v-0.907l3.369-1.012l0.486,0.732c0.382,0.524,0.729,0.873,1.389,0.663
		c0.59-0.174,0.903-0.628,0.729-1.151c-0.104-0.279-0.208-0.523-0.695-1.152L68.3,61.395c-0.695-0.907-1.25-1.675-2.327-1.361
		c-1.007,0.314-1.077,1.292-1.111,2.408L64.514,68.41L64.514,68.41z M68.786,65.339l-2.153,0.628l0.069-3.629l0.035-0.035
		L68.786,65.339L68.786,65.339z"/>
	<path fill="#C4161C" d="M79.933,77.343c-6.007,0-9.168,3.21-10.73,7.014c-1.667,4.118-1.979,8.829-2.5,13.505
		c-0.104,0.941-0.139,1.885-0.278,2.652c-0.382,2.023-0.799,4.014-1.215,5.862c-0.486,2.304-3.681,20.31-3.82,22.229
		c5.348-0.455,8.578-4.852,13.961-5.271c1.076-2.304,7.188-16.785,8.438-19.021c0.312-0.522,0.799-0.94,1.007-1.953
		c0.104-0.559,0.452-0.838,0.764-1.047c0.729-0.488,1.042-1.676,1.494-2.688c1.076-2.548,2.049-5.13,2.639-7.887
		c0.66-3.21,0.208-5.409-1.111-8.166C86.879,79.123,83.232,77.343,79.933,77.343L79.933,77.343z"/>
	<path fill="#F37321" d="M79.794,77.902c-5.799,0-8.89,3.106-10.384,6.805c-1.632,3.979-1.91,8.584-2.431,13.086
		c-0.104,0.907-0.139,1.813-0.278,2.548c-0.347,1.988-0.764,3.908-1.181,5.723c-0.452,2.198-3.438,20.102-3.612,21.951
		c5.209-0.418,10.731-5.759,15.94-6.178c1.042-2.232,4.48-15.634,5.696-17.797c0.312-0.489,0.764-0.908,0.972-1.885
		c0.104-0.559,0.452-0.803,0.764-1.012c0.66-0.49,1.007-1.605,1.424-2.584c1.042-2.478,1.979-4.99,2.536-7.642
		c0.66-3.141,0.243-5.27-1.077-7.922C86.532,79.611,82.989,77.902,79.794,77.902L79.794,77.902z"/>
	<path fill="#F05123" d="M86.393,84.986c-1.216,1.396-2.605,2.652-4.445,3.385c-0.903,0.384-1.841,0.349-2.778,0.384
		c-1.32,0.035-1.702,0.628-0.833,1.187c1.493,1.012,2.709,1.5,0.799,1.326c-0.868-0.104-0.66,0.07-0.66,0.768
		c0,0.523-0.695-0.245-0.938-0.209c-1.354,0.07-0.729,0.209-0.764,0.872c-0.035,0.454-0.903-0.069-1.285-0.244
		c-1.667-0.733-1.91-0.559-0.556,0.523c1.181,0.977,2.674,1.57,4.098,2.233c0.869,0.454,0.66,0.768-0.59,0.733
		c-0.312,0-0.66-0.07-0.972-0.104c-1.077-0.14-1.32,0.244-0.59,0.977c0.278,0.28,0.625,0.454,0.938,0.663
		c0.417,0.314,0.208,0.42-0.66,0.56c-0.625,0.069-1.736-0.069-2.223-0.244c-2.049-0.872-1.841,0.104-0.833,0.978
		c0.59,0.523,1.493,0.804,2.049,1.396c0.486,0.523,0.278,0.768-0.521,0.803c-1.146,0.069-1.91-0.279-2.639-0.453
		c-0.799-0.209-1.111,0.174-0.694,0.732c0.139,0.209,0.556,0.35,0.625,0.628c0.104,0.488-0.278,0.56-0.938,0.453
		c-0.902-0.14-1.042,0.351-0.347,1.117c0.417,0.419,0.59,0.803,0.833,1.116c0.59,0.732,0.521,0.941-0.347,0.629
		c-1.042-0.385-1.181-0.351-0.556,0.453c0.799,0.941,0.833,1.36,0.104,1.326c-1.319-0.07-1.424,0.768-1.181,1.604
		c0.174,0.769,0.417,1.534,0.764,2.233c0.174,0.244,0.452,0.418,0.694,0.627c0.278-0.033-1.597,1.886-1.806,2.024
		c-1.077,0.769-1.493,2.129-0.208,1.745c0.729-0.245-2.153,3.77-0.903,3.176s-2.327,4.852-0.208,3.28
		c2.084-1.536,5.904,2.128,8.439-0.245c0.66-0.628,2.987-10.645,3.091-10.678c1.077-2.233,1.979-4.537,3.195-6.7
		c0.312-0.489,0.764-0.908,0.972-1.885c0.104-0.56,0.452-0.804,0.764-1.013c0.66-0.488,1.007-1.604,1.424-2.582
		c1.042-2.479,1.979-4.991,2.536-7.643c0.66-3.141,0.243-5.27-1.077-7.922c-0.139-0.349-0.347-0.663-0.521-0.977
		c-0.417,0.244-0.799,0.488-1.215,0.733C86.428,83.485,86.428,84.253,86.393,84.986L86.393,84.986z"/>
	<path fill="#F68B1F" d="M74.759,79.437c1.077,0.035-0.208,1.396-0.347,3.28c-0.139,2.408,1.424,4.432,2.778,4.92
		c0.903,0.314,0.347,2.479-0.625,2.688c-0.973,0.174-2.084-0.104-3.195-0.314c-1.736-0.313-1.979-0.174-0.798,1.326
		c0.938,1.222,2.188,2.024,3.264,3.246c0.938,1.012,0.104,0.907-1.32,1.291c-0.66,0.209-2.188-0.454-2.848-1.221
		c-1.007-1.151-1.007,1.117-0.208,2.338c0.451,0.662,1.528,1.431,2.083,1.988c1.146,1.117-0.694,0.907-2.465,0
		c-1.007-0.559-0.625,1.258,0.069,2.095c0.451,0.559,0.312,0.872-0.486,0.978c-0.833,0.174-1.077,0.629-0.556,1.396
		c0.799,1.187,0.729,1.675,0.278,1.813c-1.528,0.419-1.458,0.839-1.25,1.535c0.208,0.804,0.66,2.164,0.278,2.513
		c-0.278,0.279-0.312,2.34-0.833,2.443c-0.278,0.069-1.216-1.431-1.424-1.361c-0.313,0.104,0.486,3.002,0.173,2.896
		c-0.069-0.034,0.59,1.431,0.208,2.164c-0.104,0.244-1.354-0.942-1.389-0.419c-0.069,0.628,1.077,2.966,0.764,3.036
		c-0.139,0.035,0.66,1.047,0.591,1.5c-0.104,0.488-1.112,0.418-1.459,0.488c-0.278,0.069-1.111,1.711-1.562,1.256
		c-0.278-0.244-0.312-2.687-0.347-2.722c-0.07-0.175,0.382-3.176,0.451-4.258c0.139-1.884,0.938-4.536,0.903-4.606
		c-0.347-2.094,0.139-4.535,1.459-5.896c0.556-0.594,1.528-0.279,1.285-0.768c-0.798-1.535-0.938-2.06-0.66-2.582
		c0.903-1.78,0.486-4.015,0.729-6.248c0.173-1.536-0.035-2.757,0.312-4.153c0.208-0.837,0.556-1.465,1.007-2.024
		c0.417-0.419-0.069-1.187,0-1.745C69.793,85.09,72.953,79.368,74.759,79.437L74.759,79.437z"/>
	<path fill="#FFCB05" d="M70.209,93.675c0.521,1.885,2.049,2.757,4.167,3.002C72.779,95.979,71.321,95.071,70.209,93.675
		L70.209,93.675z"/>
	<path fill="#FFCB05" d="M71.737,88.126c0.139,0.942,0.765,1.396,1.598,1.64C72.745,89.313,72.224,88.755,71.737,88.126
		L71.737,88.126z"/>
	<path fill="#FFCB05" d="M72.467,85.23c0.035,0.942,0.556,1.501,1.354,1.885C73.3,86.556,72.849,85.928,72.467,85.23L72.467,85.23z"
		/>
	<path fill="#FFCB05" d="M80.489,94.966c0.59,0.733,2.744,0.873,3.612,0.663C83.336,95.524,81.218,95.246,80.489,94.966
		L80.489,94.966z"/>
	<path fill="#FFCB05" d="M68.265,100.935c0.243,0.838,0.903,1.187,1.841,1.325C69.411,101.944,68.751,101.562,68.265,100.935
		L68.265,100.935z"/>
	<path fill="#FFCB05" d="M68.3,98.665c0.173,0.768,0.66,1.082,1.354,0.941C69.133,99.362,68.682,99.084,68.3,98.665L68.3,98.665z"/>
	<path fill="#FFCB05" d="M74.134,102.435c1.007,1.256,2.327,1.223,3.646,0.978C76.496,103.342,75.28,102.993,74.134,102.435
		L74.134,102.435z"/>
	<path fill="#FFCB05" d="M67.744,104.842c0.035,0.733,0.59,1.117,1.424,1.292C68.612,105.75,68.126,105.331,67.744,104.842
		L67.744,104.842z"/>
	<path fill="#FFCB05" d="M72.258,113.253c1.146,1.15,2.431,1.012,3.75,0.663C74.724,113.95,73.474,113.741,72.258,113.253
		L72.258,113.253z"/>
	<path fill="#FFCB05" d="M66.146,114.928c0.972,1.71,2.674,2.163,4.792,1.886C69.203,116.533,67.57,116.009,66.146,114.928
		L66.146,114.928z"/>
	<path fill="#EE3524" d="M77.294,85.649c-1.285,1.256,1.598,2.792,3.682,5.27c1.806,2.198,1.215,5.688,0,8.166
		c-2.5,5.234-4.272,9.598-5.974,14.343c-0.694,1.989-0.521,3.664-0.173,5.341c1.458,0.068,2.917,0.139,4.375,0.244
		c3.612-6.875,7.258-13.716,10.904-20.591c0.729-4.676,1.459-9.387,2.188-14.063c-2.431-0.174-4.897-0.384-7.328-0.558
		C82.399,84.427,79.204,83.834,77.294,85.649L77.294,85.649z"/>
	<path fill="#00A651" d="M77.398,78.564c-0.973,1.117-1.632,2.164-1.424,3.42c0.312,1.57,0.312,4.048,2.848,5.618
		c2.118,1.326,4.723,0.523,6.667-0.488c1.077-0.524,2.084-1.152,2.362-2.792c-0.452-1.57,1.458-3.246,4.479-4.99
		c0.938,1.745,0.833,3.385-0.382,4.92c0.451-0.209,0.868-0.418,1.32-0.663c0.035,0.349,0.069,0.698,0.104,1.012
		c0.278-0.14,0.556-0.279,0.833-0.419c0.243,0.942,0.243,1.955-0.069,3.036c0.59-0.628,1.215-1.082,1.285-2.547
		c0.139,0.174,0.278,0.349,0.452,0.558c0.243-0.349,0.486-0.698,0.729-1.047c0.312,0.489,0.625,0.977,0.903,1.466
		c0.625-1.292,0.659-2.862-0.209-4.781c3.543,0.977,4.168,3.106,3.438,5.723c0.625-0.488,0.974-1.256,0.938-2.408
		c1.459,0.279,1.979,1.292,2.153,2.617c0.068-1.5-0.208-2.861-1.807-3.943c0.729-0.384,1.459,0.209,2.224,0.663
		c-1.111-1.465-2.327-2.512-3.959-2.198c-1.181-1.326-2.292-2.129-3.438-2.932c1.319-0.488,2.673-0.663,4.167-0.314
		c-0.834-0.419-1.666-0.803-2.535-0.698c0.556-0.244,1.076-0.523,1.633-0.802c-0.868,0.035-1.702,0.07-2.535,0.104
		c1.527-0.384,2.883-1.012,5.73,0.175c1.109,1.186,1.943,2.582,2.568,4.118c-0.068-1.082-0.312-2.094-1.042-2.932
		c1.354,0.523,2.883,1.292,4.411,2.164c-1.285-1.326-2.57-2.478-3.926-3.28c-3.229-1.71-5.486-1.117-7.812-0.803
		c-0.382-1.082-1.146-1.954-2.292-2.512c0.764-0.384,1.562-0.279,2.361,0.349c-0.312-1.082-0.729-2.024-1.702-1.745
		c0.833-0.174,1.667-0.384,2.5-0.559c0.868,0.593,1.318,1.361,1.318,2.338c0.418-0.489,0.766-0.977-0.068-2.164
		c1.527-0.175,2.848-0.07,3.682,0.698c0.521,0.803,1.041,1.605,1.562,2.408c0.208-0.628,0.451-1.256,0.693-1.885
		c2.918,0.279,4.479,2.129,5.904,4.223c-0.451-1.431-0.867-2.896-2.152-4.223c-1.111-0.768-2.188-1.046-3.266-1.221
		c0.451-0.209,0.903-0.454,1.389-0.663c-2.188-0.349-4.375-0.768-6.633-0.035c0.104-0.314,0.208-0.593,0.312-0.908
		c-1.493-0.279-2.918,0.454-4.306,1.326c-0.452-0.174-0.903-0.384-1.355-0.593c0.973-0.837,1.979-1.71,2.952-2.583
		c0.556,0.245,1.111,0.454,1.701,0.698c-0.277-0.454-0.556-0.942-0.799-1.431c1.354-0.593,2.223,0.349,2.952,1.745
		c-0.243-1.605-1.216-2.513-2.569-3.105c0.765-1.082,1.633-2.024,3.229-2.059c1.562,0.279,2.812,1.151,3.646,2.652
		c0.242-1.57-0.694-2.547-2.153-3.28c4.967-0.384,8.022,0.977,6.877,6.247c2.535-4.537,0.347-7.119-6.563-7.747
		c-0.104-1.78,1.041-2.059,2.326-2.128c-1.841-0.559-3.229,0-4.133,1.745c-1.389,0.314-2.743,0.907-3.959,1.884
		c-0.693-0.244-1.389-0.488-2.083-0.733c0.416-0.907,1.11-1.012,1.806-0.977c-0.764-0.873-1.841-0.873-3.091-0.314
		c0.208-0.698,0.625-1.187,1.111-1.605c-1.32,0.209-2.604,0.802-3.82,2.164c-0.451-0.698-0.625-1.57-0.486-2.547
		c1.216-1.676,2.778-1.78,4.515-1.152c-1.076-1.012-2.257-1.71-4.098-0.419c0.764-0.663,1.562-1.326,2.361-2.024
		c-0.729,0.174-1.458,0.349-2.153,0.488c0.382-1.396,1.389-2.512,2.57-3.559c-0.764,0.279-1.528,0.558-2.292,0.837
		c1.389-2.233-0.07-3.071-1.354-3.979c1.007,1.047,1.389,2.059,0.486,3.141c-0.938-1.117-2.014-1.501-3.23-1.117
		c1.389,0.314,1.702,1.256,0.938,2.932c-0.347-0.803-0.903-1.047-1.598-0.768c0.833,0.454,0.625,1.431,0.382,2.408
		c-0.833-0.593-1.702-1.012-2.813-0.279c1.111,0.628,1.007,1.431,0.729,2.269c-1.285,0.698-1.91,0.418-2.396,0
		c0.034-1.152,0.382-2.303,1.007-3.455c-1.111,0.908-1.875,2.024-2.327,3.35c0-1.256-0.139-2.442-0.625-3.455
		c0.139-0.873,0.486-1.78,1.146-2.792c-0.591,0.174-1.111,0.454-1.354,1.361c0.312-2.129-0.833-2.896-2.153-3.455
		c0.868,0.768,1.389,1.64,1.25,2.757c-1.563-0.873-2.327-0.069-3.125,0.663c1.042-0.593,2.049-0.873,2.674,0.977
		c1.389,0.977,0.903,2.094,0.799,3.176c-1.354-1.361-2.257-1.57-3.091-1.57c0.973,0.768,1.424,1.745,1.667,2.861
		c-1.077-0.907-2.118-1.64-3.091-1.082c0.938,0.349,1.042,1.082,1.007,1.885c-0.66-0.733-1.354-1.396-2.083-1.361
		c0.243-1.047-0.347-1.78-1.111-2.443c0.035,0.454,0.07,0.908,0.104,1.396c-1.806-2.199-3.369-2.059-4.897-1.85
		c1.111,0.105,2.223,0.419,2.987,2.198c-1.528-0.768-2.119,0.245-2.813,1.187c0.833-0.942,1.736-1.64,3.056-0.628
		c0.729,1.012,1.424,1.989,2.118,3.001c-0.625-0.837-1.424-1.605-2.674-2.163c0.972,0.837,1.702,1.814,2.188,2.896
		c-1.389-0.838-1.979-0.279-2.57,0.209c0.868-0.419,1.841-0.07,2.883,1.047c-0.868-0.035-1.389,0.384-1.806,1.012
		c0.868-0.698,1.806-0.628,2.778-0.209c1.007,2.303,2.049,4.571,3.056,6.875c-0.174,0.104-0.347,0.209-0.521,0.349
		c-1.007-1.361-2.083-2.582-3.646-3.21c0.347-0.454,0.729-0.873,1.077-1.326c-0.556,0.07-1.146,0.14-1.736,0.209
		c-0.347-1.396-1.389-2.338-2.744-3.106c0.66,0.837,1.25,1.71,1.285,2.861c-1.424-0.593-2.778-0.837-4.028-0.453
		c1.007,0.069,2.015,0,2.674,2.164c-1.806-0.279-3.195,0.244-4.063,1.884c0.868-0.942,1.945-1.466,3.473-1.117
		c-0.903,0.523-1.32,1.291-1.25,2.338c0.313-0.907,0.938-1.5,2.119-1.5c-0.486,1.292,0.139,2.024,0.729,2.827
		c-0.66-1.151-0.625-2.373,0.104-3.734c0.104,1.187,0.625,2.094,1.528,2.722c-0.66-0.942-0.868-1.709-0.104-2.163
		c2.361-0.209,3.299,1.012,4.167,2.303c-1.146-0.14-2.361-0.349-3.056,0.802c0.451,0.419,0.938,0.837,1.389,1.256
		c-1.424,0.07-1.91,1.012-2.258,2.059c0.625-0.523,1.285-0.977,2.223-0.523c-0.486,0.628-0.139,1.012,0.035,1.431
		c0.243-1.466,0.382-3.001,2.014-3.175c0.208,0.488,0.452,0.977,0.695,1.465c-0.035,1.221-0.104,2.338-0.313,2.861
		C78.614,78.181,78.023,78.39,77.398,78.564L77.398,78.564z"/>
	<path fill="#A6CE39" d="M82.92,85.509c3.125-4.432,6.807-7.747,10.974-10.155c-0.104-0.454-0.208-0.907-0.312-1.361
		c-4.029,2.443-7.571,6.037-10.627,10.748C82.955,84.986,82.955,85.265,82.92,85.509L82.92,85.509z"/>
	<path fill="#A6CE39" d="M82.955,83.66c1.216-3.594,2.535-6.875,4.341-9.317c0.208,0,0.382,0,0.59,0
		c-2.014,3.036-3.508,6.351-4.792,9.876C83.059,84.009,82.989,83.799,82.955,83.66L82.955,83.66z"/>
	<path fill="#A6CE39" d="M81.496,83.625c1.042-3.211,0.625-7.049-0.035-10.993c0.278,3.734,0.382,7.434-0.59,11.028
		C81.079,83.66,81.288,83.625,81.496,83.625L81.496,83.625z"/>
	<path fill="#A6CE39" d="M79.621,81.67c1.319-2.861,0.798-5.444-0.556-7.921c0.625,2.303,1.007,4.606,0,6.77
		C79.239,80.903,79.447,81.287,79.621,81.67L79.621,81.67z"/>
	<path fill="#007F3E" d="M82.92,69.038c-1.319-0.732-2.014-0.174-2.639,0.559c0.104,0.104,0.208,0.209,0.312,0.314
		c-0.59,0.977-0.938,2.094-1.146,3.28c0.694-0.349,1.424-0.698,2.118-1.047c-0.486,0.523-0.694,1.222-0.59,2.164
		c0.555-0.698,1.319-1.151,2.292-1.361c-0.243,1.326-0.312,2.583-0.104,3.699c0.452-0.14,0.938-0.279,1.424-0.454
		c0.452,1.535,0.764,0.837,1.077-0.209c0.521-0.838,1.146-1.396,1.944-1.675c-0.069,1.012-0.104,1.989-0.173,3.001
		c1.493,0.454,2.396-0.245,3.056-1.466c0.035,0.104,0.069,0.209,0.104,0.314c0.695-0.488,1.424-1.012,2.119-1.5
		c0.139,0.454,0.243,0.873,0.382,1.326c-0.625,0.559-1.215,1.151-1.841,1.71c0.591-0.035,1.146-0.105,1.737-0.174
		c-1.598,1.012-2.396,2.268-3.299,3.49c1.181-0.733,2.327-1.466,3.507-2.164c1.25,1.012,1.91,2.408,2.015,4.118
		c0.312-0.838,0.556-1.745,0.104-3.036c0.312-0.279,0.694-0.489,1.494-0.174c0.034-0.663-0.417-1.71-0.973-2.792
		c0.486-0.035,0.973-0.035,1.493-0.035c-0.729-1.117-1.389-2.233-2.465-2.618c0.034,0.698-0.139,1.292-0.487,1.745
		c0.035-1.396-0.417-2.478-1.354-3.28c-0.938-0.245-1.945-0.663-2.57-0.175c0.694,0.837,0.556,1.57,0.347,2.268
		c-0.139-0.942-0.452-1.814-1.042-2.547c-0.173,0.908-0.66,1.501-1.424,1.745c0.521-1.221,0.486-2.408-0.764-3.594
		c-0.556,0.314-1.111,0.628-1.667,0.942c0.938,0.384,1.494,1.012,1.702,1.919c-1.007-0.663-1.875-0.803-2.708-0.698
		c0.139,0.908-0.208,1.466-0.729,1.85c0.104-0.768,0-1.605-0.382-2.547c-0.729-0.279-1.354-0.279-1.84,0
		c0.278-0.663,0.764-1.117,1.424-1.291c-0.903-0.733-1.667-0.942-2.431-1.047c0.903-0.244,1.979-0.244,3.23,0
		C83.753,69.421,83.336,69.212,82.92,69.038L82.92,69.038z"/>
	<path fill="#007F3E" d="M87.608,66.072c-0.069-1.501-0.243-3.037-0.729-4.467c0.556,0.628,0.973,1.292,1.111,2.024
		c0.694-1.012,1.493-1.85,2.466-2.303c-0.903,0.837-1.111,2.198-0.868,3.943c1.424-0.453,2.535-1.046,3.507-1.745
		c-0.312,0.838-0.66,1.64-1.667,2.094c1.667-0.523,3.195-0.419,4.654-0.105c-1.528,0.349-2.952,0.873-3.855,1.989
		c0.59,0.279,0.903,0.628,0.868,1.082c-0.521,0.07-1.042,0.14-1.563,0.174c-1.042-1.291-2.083-1.465-3.09-1.116
		c-1.216-0.175-1.806,0.349-2.258,0.977c-0.139-0.559-0.278-1.152-0.417-1.71c-1.111-1.012-1.979-1.012-2.848-1.012
		C84.17,65.025,85.733,65.095,87.608,66.072L87.608,66.072z"/>
	<path fill="#007F3E" d="M84.24,84.881c2.848-2.583,5.834-4.676,8.89-6.386c-0.208-0.245-0.417-0.489-0.625-0.733
		c-2.917,1.814-5.73,3.943-8.265,6.84C84.24,84.707,84.24,84.812,84.24,84.881L84.24,84.881z"/>
	<path fill="#007F3E" d="M86.948,82.717c-1.562,1.117-3.125,2.303-4.132,1.885c0.035,0.174,0.035,0.314,0.069,0.488
		c-0.417,0.209-0.833,0.419-1.25,0.628c-1.667-0.942-1.84-0.628-1.771-0.139c-0.347,0.07-0.694,0.139-1.042,0.209
		c-1.494-1.222-1.945-1.117-2.015-0.419c0.382,0.803,1.007,1.605,2.015,2.233c2.118,1.326,4.723,0.523,6.667-0.488
		c1.077-0.524,2.084-1.152,2.362-2.792c-0.348-1.188,0.694-2.443,2.535-3.77c0.035-0.035,0.07-0.07,0.104-0.104
		C89.31,81.217,88.129,81.95,86.948,82.717L86.948,82.717z"/>
	<path fill="#C4161C" d="M116.676,84.148c1.319-14.657-16.184-18.077-24.796-8.899c-4.133,4.362-5.904,11.76-8.126,18.984
		c-0.66,2.094-1.354,4.048-1.458,6.282c-0.104,1.465,0,3.142-0.833,4.326c-1.042,1.536-1.598,2.164-1.806,3.246
		c-0.347,1.814-0.764,3.594-1.111,5.409c-0.452,2.128-0.903,4.292-1.354,6.421c4.827,1.641,9.62,3.28,14.412,4.92
		c2.361-2.129,4.653-5.27,6.98-8.688c5.036-7.469,9.967-13.401,14.481-21.603C114.696,91.582,116.362,87.708,116.676,84.148
		L116.676,84.148z"/>
	<path fill="#F37321" d="M116.294,84.393c1.318-14.343-15.871-17.728-24.31-8.724c-4.063,4.292-5.8,11.516-7.987,18.635
		c-0.625,2.024-1.32,3.978-1.424,6.177c-0.104,1.431,0,3.035-0.799,4.223c-1.042,1.5-1.597,2.128-1.806,3.175
		c-0.347,1.78-0.729,3.56-1.112,5.34c-0.417,2.095-0.868,4.188-1.285,6.281c4.723,1.604,9.411,3.21,14.134,4.815
		c2.292-2.094,4.549-5.164,6.842-8.516c4.966-7.328,9.793-13.121,14.203-21.217C114.349,91.686,115.979,87.882,116.294,84.393
		L116.294,84.393z"/>
	<path fill="#F05123" d="M110.183,78.809c-3.404,0.663-6.461,2.024-10.731,1.256c-2.326-0.419-2.778,1.326-2.05,3.245
		c0.486,1.222,0.279,1.012,0.279,1.431c-0.07,0.733,0.104,0.768-0.625,0.454c-0.349-0.14-1.182-0.733-1.042-0.384
		c1.007,2.617-1.111-2.967-1.111,3.943c0,2.408-2.327,2.233-3.646,3.105c-2.153,1.431-3.264,3.28,1.007,7.363
		c0.66,0.594-0.417,2.094-1.597,1.432c-1.841-1.047-2.119-1.396-1.667,0.279c0.521,1.885-0.035,2.547-1.146,3.07
		c-0.625,0.35,0.139,0.732,0.938,1.85c0.729,1.082-0.035,1.676-0.903,1.604c-1.667-0.069-1.98,0.769-1.806,1.466
		c0.799,3.105,1.216,4.816,0.313,5.934c-0.799,1.047-1.98,1.326-1.98,2.513c0,0.907,0.417,2.129,1.077,3.524
		c0.764,0.697,1.493,1.396,2.257,2.06c1.32,0.453,2.639,0.907,3.959,1.36c2.292-2.095,4.549-5.164,6.842-8.516
		c4.967-7.328,9.793-13.121,14.203-21.217c1.598-2.896,3.229-6.7,3.543-10.19c0.348-3.594-0.521-6.526-2.084-8.724
		c-0.973,0.593-1.979,1.221-2.952,1.85C110.91,77.937,110.528,78.39,110.183,78.809L110.183,78.809z"/>
	<path fill="#F68B1F" d="M97.089,73.295c-1.285-1.536-3.334,1.186-4.445,2.442c-1.146,1.361-1.494,2.792-2.223,3.909
		c-1.424,2.198-2.257,5.27-3.403,9.667c-0.556,2.128-2.292,3.699-2.917,5.653c-0.555,1.745-0.764,3.629-0.972,5.444
		c-0.104,0.978,0.312,2.024,0,2.932c-0.417,1.257-1.632,2.13-2.119,3.351c-0.868,2.129-1.25,4.396-1.146,6.562
		c0.035,1.325-0.729,2.756-0.278,4.013c0.313,0.907,1.91,2.617,2.327,1.745c0.834-1.676-0.59-3.909,0.243-4.677
		c0.521-0.488,1.459-0.034,2.153-0.175c0.868-0.175,1.32-0.662,0.208-2.931c-0.521-1.082-0.799-2.27-1.111-3.455
		c-0.625-2.408-1.285-2.233,3.403-1.641c2.153,0.278-0.868-4.293-1.007-6.456c-0.104-1.885,0.347-3.455,1.25-3.979
		c0.382-0.209,1.181,0.732,1.32,0.279c0.381-1.466-0.382-3.036-0.174-4.537c0.139-1.186,0.104-3.454,1.25-3.315
		c2.64,0.349,2.292,1.222,2.57-0.733c0.208-1.431,0.348-2.547,0.104-5.758c-0.07-0.977,1.598-0.349,4.098-0.175
		c1.217,0.105,1.459-1.884,1.182-3.385C97.089,76.541,98.339,74.761,97.089,73.295L97.089,73.295z"/>
	<path fill="#EE3524" d="M112.96,74.97c-1.91,1.536-3.82,3.106-5.766,4.641c-0.59,0.524-1.182,1.047-1.771,1.536
		c2.188,8.34-11.391,29.209-16.947,42.086c1.076,0.349,2.153,0.731,3.229,1.08c2.292-2.094,4.549-5.164,6.842-8.515
		c4.966-7.327,9.793-13.121,14.203-21.217c1.599-2.896,3.229-6.7,3.543-10.19c0.382-4.048-0.729-7.224-2.709-9.492
		C113.377,74.936,113.168,74.936,112.96,74.97L112.96,74.97z"/>
	<path fill="#00A651" d="M99.381,71.69c-2.325,2.896-1.216,5.863,3.438,8.584c3.056,1.815,5.591,1.71,8.334,0.384
		c1.807-0.873,2.466-1.291,2.777-2.618c0.486-0.279,0.486-0.732-0.068-1.396c-0.312-0.349-0.659-0.698-1.008-1.047
		c1.771-2.303,4.549-4.118,7.813-5.688c1.008,0.768,0.799,1.745,0.382,2.792c1.008-0.454,1.598-1.222,1.32-2.652
		c1.042,0.977,1.562,2.094,1.389,3.35c0.348-1.012,0.694-2.024,0.209-3.001c1.424,0.279,2.778,1.117,4.028,2.233
		c0.59-1.116,0.556-1.954-0.069-2.617c1.736,0.384,3.508,0.733,5.278,1.117c-0.765-0.977-1.528-1.954-2.292-2.932
		c0.312-0.488,0.625-1.012,0.938-1.5c-0.451-0.698-0.973-1.291-1.841-1.152c-0.833-0.837-1.389-1.64-0.173-2.163
		c1.007,0,1.875,0.349,2.708,0.768c-0.276-0.768-0.59-1.57-1.284-2.338c-0.973-1.361-1.91-2.024-2.848-2.374
		c0.242-0.104,0.521-0.209,0.764-0.314c-0.729-1.919-1.91-2.757-3.576-2.583c0.485-0.174,0.973-0.349,1.459-0.558
		c-1.043-1.187-2.119-2.199-3.543-1.745c0.242-0.454,0.451-0.872,0.659-1.326c-1.319-0.838-2.709-1.536-4.409-1.326
		c-0.695,0.035-1.391,0.07-2.084,0.104c1.527-3.629,3.299-6.63,5.973-7.433c2.432,0.209,3.335,1.605,3.785,3.35
		c-0.035-1.326,0.069-2.687-2.015-3.524c0.694-0.174,1.354-0.384,2.05-0.559c1.493,0.105,2.465,0.907,3.159,2.059
		c-0.382-1.326-1.11-2.338-2.465-2.582c2.326-1.745,3.681-0.698,5.243-0.21c-1.667-1.78-4.271-1.78-7.848,0
		c0.59-1.082,0.693-2.233,0.276-3.489c0,1.291-0.348,2.408-1.181,3.315c-4.967,3.489-5.766,4.99-8.612,10.608
		c-0.209-1.361-0.452-2.688-0.659-4.048c0.59-1.361,1.631-2.128,3.09-2.303c-0.556-0.418-1.146-0.663-2.084-0.035
		c2.016-2.652,0.521-4.642-2.535-6.282c1.599,1.501,2.259,3.106,1.009,4.956c-0.974-0.977-2.015-0.942-3.091-0.489
		c1.389,0.105,1.84,1.117,1.875,2.513c0.416,2.129-0.104,3.211-0.729,4.118c-1.667-0.349-2.985-0.838-4.028-1.431
		c0.174-1.012,0.974-1.745,1.979-2.373c-1.424-0.559-2.778-0.314-4.133,0.768c0.034-0.523,0.104-1.082,0.139-1.605
		c1.459-1.57,2.675-1.85,3.646-0.942c-0.59-1.291-1.805-1.361-3.68-0.139c-0.625-2.443-1.771-3.246-2.953-3.979
		c1.217,1.536,1.842,3.21,1.182,5.025c-1.215-2.024-2.569-2.059-3.924-1.85c2.674,1.082,3.785,2.932,3.89,5.339
		c0.034,1.188-0.14,2.059-0.521,2.617c-1.39-0.07-2.432-0.663-3.403-1.361c0.243-1.152-0.243-2.269-1.425-3.35
		c0.279-1.885-0.832-2.966-1.943-4.013c0.625,1.082,1.111,2.164,0.521,3.28c-1.979-1.885-3.924-1.955-5.799-1.152
		c2.674-0.279,4.271,1.221,5.383,3.455c-1.876-0.837-3.716-0.279-5.522,0.942c1.702-0.488,3.334-0.768,4.307,0.419
		c-2.119,0.314-3.334,1.57-4.167,3.246c1.84-2.024,3.924-2.757,6.286-2.129c-0.833,0.559-1.11,1.396-0.901,2.513
		c0.312-1.152,0.972-1.501,1.943-1.082c0.799,1.082,1.042,2.059,0.799,2.966c-1.216-0.873-2.396-0.803-3.541,0.14
		c-1.425-1.431-2.78-0.942-4.1-0.14c1.806-0.523,2.605-0.174,2.431,1.012c-1.806-0.349-3.716,0.418-5.695,1.71
		c1.25-0.349,2.5-1.117,3.577,0.07c-2.257,1.5-2.535,3.838-2.535,6.281c0.59-2.966,1.354-5.06,3.229-5.2
		c-0.278,1.326,0.174,2.652,0.312,3.979c0.035-1.85-0.035-3.665,0.452-5.514c0.729-0.453,1.354-0.558,1.875-0.384
		c-0.833,1.361-0.347,2.688,0.069,3.979c-0.208-1.431-0.208-2.827,1.042-3.909c2.118-1.57,3.751-1.047,5.175,0.489
		c1.217,2.617,0.694,9.178,0.034,11.656C101.742,70.887,100.526,71.341,99.381,71.69L99.381,71.69z"/>
	<path fill="#A6CE39" d="M103.931,75.599c0.521-4.991,0.557-10.155,0.625-15.285c0.383,5.514,0.659,10.993-0.174,16.262
		C104.208,76.227,104.069,75.913,103.931,75.599L103.931,75.599z"/>
	<path fill="#A6CE39" d="M105.599,76.959c1.771-4.711,3.159-9.667,4.166-14.831c0.625,0.488,1.217,0.977,1.842,1.465
		c-1.424,5.165-3.16,9.946-5.244,14.343C106.118,77.623,105.84,77.309,105.599,76.959L105.599,76.959z"/>
	<path fill="#A6CE39" d="M107.751,77.797c3.021-4.746,6.285-8.724,9.861-11.202c-3.229,3.001-6.111,6.7-8.473,11.516
		C108.653,78.006,108.202,77.902,107.751,77.797L107.751,77.797z"/>
	<path fill="#007F3E" d="M110.459,77.239c2.64-3.943,6.146-6.491,10.071-8.34c0.068,0.244,0.174,0.488,0.242,0.732
		c-3.438,1.745-6.771,3.769-9.516,7.468C111.015,77.134,110.737,77.204,110.459,77.239L110.459,77.239z"/>
	<path fill="#007F3E" d="M104.347,58.254c2.258-0.977,4.133-0.279,5.938,0.664c-1.284,0.139-2.569,0.244-3.819,1.361
		c0.729-0.245,1.493-0.245,2.223-0.07c-3.021,1.291-3.265,3.315-3.125,5.479c0.451-0.907,0.867-1.884,2.049-2.128
		c-0.174,0.768,0.14,1.536,0.486,2.268c-0.035-3.28,1.18-4.955,3.993-4.676c-0.485,1.57,0.486,2.652,1.875,3.594
		c-0.382-0.907-0.625-1.78-0.312-2.688c1.598,0.209,2.64,1.396,3.611,2.722c0.521,1.431,0.693,2.722,0.659,3.943
		c0.451-0.768,0.729-1.71,0.625-3.141c1.181,0.803,1.875,1.954,2.396,3.315c0.174-0.663,0.348-1.361,0.417-2.164
		c1.492,0.803,2.083,1.989,2.257,3.35c-0.591-0.209-1.181-0.384-1.771-0.593c-0.174,0.384-0.348,0.802-0.556,1.186
		c-0.209-0.279-0.452-0.558-0.694-0.837c-0.938,0.349-1.875,0.698-2.812,1.047c-0.243-1.012-0.591-1.989-1.528-2.827
		c-1.077,0.14-2.223,0.314-2.64-0.14c-0.173-0.14-0.348-0.279-0.521-0.454c-2.848,2.024-3.854,4.781-5.312,7.329
		c1.076-2.966,2.188-5.933,3.265-8.934c-0.799,0.488-1.633,0.977-2.432,1.431c-0.729-0.279-1.319-0.384-1.736-0.279
		c-0.694,0.209-1.424,0.384-2.118,0.593c0.035-1.954,0.069-3.908,0.069-5.897c-0.312-0.558-0.659-1.117-0.972-1.675
		C102.75,58.325,102.923,57.731,104.347,58.254L104.347,58.254z"/>
	<path fill="#007F3E" d="M114.384,57.905c-0.417-1.221-1.181-1.989-2.361-2.373c1.182-0.035,2.361,0.314,3.474,1.64
		c0.694-0.07,1.354-0.209,1.909-0.698c0.244,0.908,0.209,1.745-0.104,2.548c1.979,0.035,3.959,0.07,5.8,0.802
		c-0.66,0.279-1.354,0.559-2.015,0.803c1.841,0.349,3.646,0.733,5.001,2.862c-0.451,0.418-0.902,0.802-1.354,1.221
		c1.632,0.628,2.777,1.919,3.611,3.699c-0.348,0.035-0.695,0.105-1.008,0.174c-0.104,0.314-0.208,0.628-0.277,0.942
		c-0.591-2.094-1.39-2.861-2.291-3.001c-0.521,0.559-1.112,0.628-1.808,0.105c-0.729-2.094-1.458-3.28-2.224-2.443
		c-0.416,0.245-0.797,1.012-1.457-0.768c0.139-0.907-0.209-1.71-1.008-2.408c-0.765-0.768-1.459-1.57-2.883-2.024
		c-1.146-0.174-2.258,0-3.367,1.082C112.612,58.848,113.342,58.01,114.384,57.905L114.384,57.905z"/>
	<path fill="#FFCB05" d="M91.81,80.554c0.521,1.85,1.737,3.071,3.612,3.629C94.207,82.962,91.359,78.914,91.81,80.554L91.81,80.554z
		"/>
	<path fill="#FFCB05" d="M96.776,89.348c0.764,0.977,1.841,1.5,3.056,1.709C98.825,90.569,97.783,90.011,96.776,89.348
		L96.776,89.348z"/>
	<path fill="#FFCB05" d="M87.921,97.479c0.625,1.117,1.562,1.814,2.708,2.269C89.727,99.049,88.824,98.315,87.921,97.479
		L87.921,97.479z"/>
	<path fill="#FFCB05" d="M84.24,107.983c0.208,1.431,1.528,1.988,3.229,2.232C86.219,109.763,85.039,109.135,84.24,107.983
		L84.24,107.983z"/>
	<path fill="#FFCB05" d="M91.116,104.493c0.312,1.012,1.285,1.257,2.5,1.257C92.678,105.54,91.81,105.228,91.116,104.493
		L91.116,104.493z"/>
	<path fill="#007F3E" d="M112.751,75.599c-0.973,1.047-2.083,1.85-3.402,2.128c-1.182,0.244-2.432-0.174-3.75-0.174
		c-6.147-0.035-3.613,1.326-3.717,2.164c3.264,2.233,6.217,2.408,8.926,1.151c1.84-0.802,3.194-1.85,3.508-3.35
		C114.071,76.82,113.55,76.157,112.751,75.599L112.751,75.599z"/>
	<path fill="#C4161C" d="M135.255,69.352c-8.751-2.059-14.447,1.57-18.023,6.595c-3.819,5.409-5.869,12.249-8.195,18.845
		c-0.486,1.36-0.833,2.723-1.319,3.77c-1.216,2.861-2.501,5.584-3.751,8.2c-1.492,3.142-2.361,5.968-3.229,8.689
		c7.986,1.187,15.975,2.373,23.928,3.595c2.396-3.002,4.584-6.143,7.154-8.969c0.625-0.698,1.457-1.117,2.082-2.549
		c0.383-0.768,0.974-1.012,1.529-1.256c1.18-0.488,2.084-2.06,3.055-3.385c2.433-3.351,4.759-6.806,6.494-10.609
		c2.084-4.502,2.188-7.887,1.146-12.354C144.806,74.307,140.082,70.469,135.255,69.352L135.255,69.352z"/>
	<path fill="#F37321" d="M134.873,70.12c-8.474-1.989-13.995,1.535-17.47,6.421c-3.715,5.234-5.694,11.83-7.951,18.251
		c-0.451,1.326-0.834,2.617-1.25,3.664c-1.217,2.792-2.467,5.409-3.646,7.922c-1.459,3.07-2.291,5.793-3.125,8.445
		c7.709,1.15,15.453,2.303,23.197,3.453c2.292-2.896,4.411-5.933,6.911-8.688c0.59-0.663,1.424-1.081,2.049-2.442
		c0.312-0.768,0.938-1.012,1.459-1.222c1.146-0.452,2.015-2.022,2.951-3.28c2.362-3.279,4.585-6.595,6.286-10.293
		c2.015-4.362,2.117-7.643,1.111-11.97C144.146,74.936,139.526,71.236,134.873,70.12L134.873,70.12z"/>
	<path fill="#F05123" d="M142.166,82.717c-2.292,1.605-4.724,3.001-7.642,3.455c-1.457,0.209-2.848-0.14-4.201-0.419
		c-1.944-0.384-2.708,0.314-1.633,1.466c1.807,1.954,3.438,3.106,0.729,2.198c-1.25-0.418-1.007-0.104-1.25,0.873
		c-0.174,0.768-0.903-0.558-1.285-0.628c-2.015-0.349-1.146,0.07-1.424,1.047c-0.209,0.628-1.285-0.419-1.808-0.838
		c-2.151-1.605-2.568-1.396-0.971,0.628c1.389,1.814,3.367,3.175,5.243,4.676c1.146,0.907,0.729,1.291-1.11,0.838
		c-0.486-0.105-0.938-0.314-1.391-0.489c-1.527-0.558-2.014-0.069-1.181,1.257c0.312,0.487,0.764,0.837,1.146,1.256
		c0.521,0.594,0.139,0.698-1.181,0.56c-0.903-0.07-2.535-0.664-3.126-1.082c-2.709-1.99-2.709-0.488-1.562,1.116
		c0.694,0.978,1.944,1.744,2.535,2.757c0.521,0.941,0.139,1.256-1.076,1.012c-1.668-0.278-2.674-1.047-3.682-1.569
		c-1.076-0.56-1.701-0.14-1.25,0.837c0.139,0.35,0.694,0.698,0.694,1.117c0,0.768-0.591,0.732-1.528,0.349
		c-1.25-0.522-1.632,0.14-0.867,1.501c0.451,0.732,0.59,1.396,0.832,1.954c0.592,1.222,0.452,1.536-0.729,0.769
		c-1.391-0.907-1.633-0.907-0.973,0.453c0.834,1.676,0.764,2.27-0.277,1.989c-1.91-0.522-2.327,0.628-2.293,1.954
		c0.035,1.188,0.104,2.373,0.417,3.489c0.14,0.454,0.485,0.803,0.799,1.187c4.168,0.629,8.335,1.223,12.502,1.85
		c2.292-2.896,4.411-5.932,6.911-8.688c0.59-0.663,1.424-1.081,2.049-2.442c0.312-0.768,0.938-1.012,1.459-1.222
		c1.146-0.452,2.014-2.022,2.951-3.28c2.361-3.279,4.585-6.595,6.286-10.293c2.015-4.362,2.118-7.643,1.11-11.97
		c-0.104-0.523-0.276-1.047-0.451-1.536c-0.694,0.209-1.354,0.419-2.015,0.628C142.687,80.554,142.409,81.636,142.166,82.717
		L142.166,82.717z"/>
	<path fill="#F68B1F" d="M127.024,70.643c1.562,0.419-0.799,1.989-1.599,4.676c-1.075,3.455,0.521,6.944,2.361,8.131
		c1.216,0.803-0.347,3.734-1.841,3.699c-1.493-0.07-2.986-0.837-4.549-1.5c-2.396-1.047-2.812-0.977-1.599,1.64
		c0.938,2.059,2.501,3.699,3.683,5.828c1.006,1.78-0.174,1.361-2.361,1.466c-1.077,0.07-3.057-1.431-3.786-2.757
		c-1.041-2.024-1.84,1.256-1.041,3.35c0.416,1.117,1.701,2.617,2.36,3.63c1.25,1.988-1.354,1.082-3.611-0.873
		c-1.318-1.15-1.354,1.605-0.59,3.105c0.451,0.941,0.174,1.326-1.076,1.257c-1.251-0.069-1.771,0.522-1.251,1.813
		c0.765,2.024,0.485,2.723-0.243,2.758c-2.361,0.104-2.396,0.732-2.361,1.814c0.104,1.256,0.278,3.385-0.381,3.77
		c-0.834,0.488-2.361,0.277-3.301,0.312c-0.972,0.035-2.639-0.068-2.604-1.012c0.209-3.211,1.736-6.596,4.133-8.131
		c1.008-0.698,2.326,0.14,2.117-0.663c-0.625-2.548-0.693-3.351-0.068-4.048c1.91-2.269,2.05-5.688,3.161-8.83
		c0.764-2.198,0.868-4.048,1.875-5.967c0.59-1.151,1.284-1.989,2.151-2.617c0.729-0.488,0.278-1.745,0.592-2.583
		C117.821,77.239,124.385,69.945,127.024,70.643L127.024,70.643z"/>
	<path fill="#00A651" d="M131.157,70.294c-1.771,1.256-3.127,2.583-3.195,4.467c-0.139,2.408-0.938,6.038,2.223,9.213
		c2.641,2.652,6.703,2.338,9.897,1.57c1.771-0.418,3.438-0.977,4.41-3.28c-0.173-2.443,3.229-4.257,8.229-5.758
		c0.799,2.862,0.035,5.2-2.223,7.014c0.695-0.14,1.424-0.314,2.119-0.488c-0.069,0.523-0.104,1.012-0.174,1.5
		c0.451-0.105,0.902-0.209,1.39-0.314c0.034,1.431-0.349,2.896-1.112,4.397c1.008-0.698,2.119-1.152,2.676-3.281
		c0.172,0.314,0.312,0.628,0.485,0.942c0.485-0.418,0.938-0.837,1.425-1.256c0.276,0.803,0.555,1.64,0.832,2.478
		c1.354-1.675,1.91-3.943,1.285-7.084c4.861,2.652,5.035,5.968,3.125,9.527c1.042-0.524,1.842-1.466,2.188-3.176
		c1.979,0.907,2.467,2.547,2.224,4.537c0.625-2.129,0.659-4.257-1.319-6.352c1.215-0.314,2.117,0.803,3.021,1.71
		c-1.111-2.512-2.5-4.467-5.001-4.571c-1.25-2.338-2.639-3.874-4.028-5.479c2.05-0.244,4.099,0,6.183,0.977
		c-1.076-0.907-2.153-1.709-3.474-1.85c0.868-0.209,1.771-0.418,2.64-0.628c-1.25-0.245-2.5-0.488-3.75-0.733
		c2.396,0,4.584-0.454,8.334,2.233c1.25,2.094,1.979,4.432,2.361,6.875c0.277-1.605,0.243-3.175-0.521-4.641
		c1.808,1.222,3.752,2.896,5.697,4.641c-1.425-2.338-2.918-4.501-4.586-6.107c-4.166-3.559-7.64-3.49-11.217-3.804
		c-0.139-1.745-0.973-3.245-2.466-4.467c1.251-0.314,2.36,0.14,3.369,1.326c-0.104-1.71-0.384-3.21-1.91-3.141
		c1.25,0,2.535,0.035,3.819,0.035c1.076,1.151,1.459,2.443,1.146,3.873c0.764-0.558,1.459-1.151,0.625-3.21
		c2.292,0.279,4.202,0.873,5.141,2.269c0.485,1.361,0.973,2.722,1.459,4.048c0.556-0.837,1.11-1.675,1.666-2.512
		c4.134,1.431,5.834,4.676,7.188,8.201c-0.174-2.269-0.278-4.537-1.735-6.91c-1.319-1.5-2.813-2.233-4.342-2.862
		c0.729-0.174,1.493-0.349,2.258-0.523c-3.092-1.256-6.113-2.617-9.654-2.303c0.242-0.418,0.521-0.802,0.765-1.221
		c-2.119-0.908-4.444-0.314-6.772,0.489c-0.59-0.454-1.181-0.873-1.771-1.326c1.735-0.942,3.474-1.85,5.209-2.792
		c0.729,0.523,1.458,1.082,2.224,1.605c-0.244-0.768-0.453-1.57-0.695-2.373c2.223-0.384,3.16,1.291,3.716,3.524
		c0.243-2.373-0.901-4.048-2.674-5.339c1.493-1.361,3.057-2.443,5.383-1.919c2.224,0.907,3.716,2.617,4.479,5.095
		c0.834-2.198-0.174-3.979-2.049-5.514c7.362,1.117,11.355,4.153,7.918,11.481c5.243-5.793,2.951-10.294-6.945-13.575
		c0.451-2.617,2.188-2.617,4.133-2.303c-2.535-1.466-4.758-1.117-6.633,1.151c-2.188-0.07-4.308,0.384-6.461,1.361
		c-0.938-0.593-1.84-1.187-2.777-1.745c0.938-1.187,1.945-1.082,2.986-0.837c-0.834-1.536-2.396-1.884-4.444-1.5
		c0.556-0.977,1.319-1.536,2.188-1.989c-2.015-0.105-4.099,0.314-6.32,1.884c-0.418-1.186-0.383-2.478,0.174-3.908
		c2.326-2.024,4.652-1.64,6.98-0.14c-1.25-1.85-2.709-3.28-5.869-1.989c1.354-0.698,2.742-1.431,4.133-2.128
		c-1.111-0.035-2.223-0.035-3.334-0.035c1.076-1.919,2.916-3.21,4.966-4.362c-1.181,0.14-2.396,0.314-3.611,0.454
		c2.778-2.792,0.938-4.467-0.625-6.247c1.11,1.85,1.319,3.49-0.383,4.746c-0.938-1.954-2.396-2.861-4.306-2.722
		c1.91,0.907,2.049,2.408,0.382,4.571c-0.243-1.291-0.974-1.814-2.118-1.64c1.076,0.942,0.451,2.269-0.209,3.629
		c-1.041-1.117-2.188-2.024-4.027-1.326c1.389,1.256,0.973,2.408,0.277,3.525c-2.118,0.593-2.883,0-3.473-0.803
		c0.451-1.675,1.318-3.245,2.604-4.71c-1.876,0.942-3.369,2.303-4.48,4.083c0.418-1.814,0.592-3.594,0.244-5.234
		c0.485-1.222,1.319-2.443,2.604-3.665c-0.902,0.035-1.771,0.245-2.432,1.501c1.146-3.001-0.242-4.502-1.979-5.793
		c0.973,1.396,1.493,2.861,0.868,4.432c-1.979-1.815-3.368-0.873-4.758-0.07c1.735-0.524,3.299-0.593,3.577,2.338
		c1.701,1.919,0.591,3.385,0.068,4.92c-1.527-2.478-2.742-3.071-3.959-3.35c1.146,1.431,1.493,3.036,1.493,4.711
		c-1.284-1.675-2.604-3.071-4.202-2.618c1.25,0.803,1.146,1.955,0.868,3.141c-0.729-1.326-1.526-2.513-2.604-2.722
		c0.729-1.431,0.069-2.722-0.799-3.979c-0.104,0.698-0.207,1.396-0.312,2.094c-1.91-3.839-4.235-4.153-6.563-4.362
		c1.633,0.558,3.127,1.396,3.646,4.222c-1.943-1.64-3.193-0.349-4.479,0.768c1.526-1.082,3.056-1.813,4.652,0.14
		c0.694,1.71,1.424,3.385,2.118,5.095c-0.659-1.465-1.599-2.827-3.194-4.048c1.111,1.57,1.84,3.21,2.188,4.955
		c-1.736-1.675-2.778-1.082-3.82-0.593c1.425-0.314,2.744,0.559,3.89,2.548c-1.25-0.349-2.188,0.07-2.985,0.837
		c1.493-0.733,2.848-0.314,4.098,0.663c0.729,3.664,1.459,7.363,2.153,11.062c-0.278,0.104-0.557,0.209-0.834,0.349
		c-1.042-2.304-2.223-4.502-4.271-5.933c0.66-0.524,1.354-1.047,2.016-1.536c-0.868-0.14-1.736-0.245-2.604-0.349
		c-0.034-2.129-1.216-3.874-2.952-5.444c0.66,1.466,1.217,2.931,0.903,4.606c-1.876-1.326-3.786-2.164-5.729-2.024
		c1.424,0.418,2.916,0.663,3.16,4.083c-2.5-1.012-4.759-0.733-6.563,1.361c1.598-1.082,3.368-1.5,5.452-0.454
		c-1.493,0.419-2.396,1.431-2.604,3.001c0.765-1.221,1.841-1.919,3.611-1.5c-1.181,1.745-0.486,3.036,0.069,4.362
		c-0.557-1.85-0.069-3.664,1.424-5.375c-0.209,1.745,0.209,3.246,1.285,4.502c-0.625-1.605-0.66-2.827,0.59-3.21
		c3.578,0.488,4.479,2.617,5.349,4.746c-1.667-0.559-3.334-1.292-4.724,0.174c0.521,0.768,1.043,1.536,1.562,2.303
		c-2.083-0.349-3.125,0.838-3.992,2.233c1.11-0.559,2.188-1.012,3.473,0c-0.973,0.733-0.592,1.431-0.452,2.129
		c0.834-2.094,1.563-4.292,3.993-4.013c0.175,0.803,0.349,1.605,0.521,2.408c-0.451,1.745-0.938,3.35-1.459,4.083
		C133.067,70.12,132.129,70.224,131.157,70.294L131.157,70.294z"/>
	<path fill="#FFCB05" d="M115.528,89.906c0.141,2.932,2.084,4.676,5.105,5.793C118.517,94.164,116.71,92.314,115.528,89.906
		L115.528,89.906z"/>
	<path fill="#FFCB05" d="M119.627,82.333c-0.069,1.431,0.694,2.303,1.841,2.932C120.737,84.393,120.147,83.38,119.627,82.333
		L119.627,82.333z"/>
	<path fill="#FFCB05" d="M121.746,78.32c-0.312,1.396,0.276,2.373,1.284,3.21C122.476,80.519,122.06,79.472,121.746,78.32
		L121.746,78.32z"/>
	<path fill="#FFCB05" d="M130.149,95.28c0.625,1.257,3.717,2.197,5,2.197C134.108,97.062,131.088,95.943,130.149,95.28
		L130.149,95.28z"/>
	<path fill="#FFCB05" d="M110.285,99.817c0.034,1.291,0.903,2.094,2.258,2.582C111.604,101.701,110.808,100.897,110.285,99.817
		L110.285,99.817z"/>
	<path fill="#FFCB05" d="M111.119,96.502c-0.035,1.187,0.59,1.813,1.632,1.851C112.058,97.862,111.501,97.271,111.119,96.502
		L111.119,96.502z"/>
	<path fill="#A6CE39" d="M136.888,82.299c6.008-5.374,12.536-8.969,19.447-11.062c0-0.733,0-1.431,0-2.164
		c-6.736,2.268-13.093,6.281-19.136,12.144C137.097,81.566,136.991,81.95,136.888,82.299L136.888,82.299z"/>
	<path fill="#A6CE39" d="M137.582,79.577c2.951-4.781,5.974-9.108,9.479-12.075c0.277,0.035,0.557,0.105,0.799,0.175
		c-3.924,3.769-7.223,8.096-10.278,12.807C137.582,80.135,137.547,79.821,137.582,79.577L137.582,79.577z"/>
	<path fill="#A6CE39" d="M135.464,79.088c2.604-4.362,3.264-10.121,3.646-16.088c-0.867,5.549-1.979,10.993-4.584,15.878
		C134.838,78.948,135.149,79.018,135.464,79.088L135.464,79.088z"/>
	<path fill="#A6CE39" d="M133.38,75.563c2.883-3.699,2.986-7.677,1.842-11.76c0.104,3.594-0.07,7.084-2.293,9.876
		C133.067,74.307,133.206,74.936,133.38,75.563L133.38,75.563z"/>
	<path fill="#FFCB05" d="M118.343,104.005c1.041,2.198,2.952,2.582,5.001,2.723C121.503,106.168,119.836,105.261,118.343,104.005
		L118.343,104.005z"/>
	<path fill="#FFCB05" d="M108.202,105.365c-0.209,1.116,0.486,1.815,1.632,2.372C109.175,106.972,108.618,106.203,108.202,105.365
		L108.202,105.365z"/>
	<path fill="#007F3E" d="M142.409,58.254c-1.667-1.535-2.883-0.942-3.994-0.104c0.104,0.209,0.208,0.384,0.348,0.593
		c-1.216,1.187-2.084,2.687-2.777,4.362c1.146-0.279,2.291-0.523,3.438-0.803c-0.902,0.593-1.458,1.57-1.598,2.966
		c1.076-0.837,2.326-1.221,3.785-1.186c-0.764,1.849-1.354,3.664-1.424,5.339c0.765-0.035,1.528-0.104,2.258-0.139
		c0.14,2.373,0.867,1.466,1.666,0.035c1.009-1.047,2.154-1.64,3.369-1.78c-0.416,1.431-0.834,2.861-1.215,4.292
		c1.979,1.187,3.576,0.488,4.965-1.047c0,0.14,0,0.314,0.035,0.488c1.182-0.488,2.396-1.012,3.577-1.5
		c0.034,0.698,0.069,1.396,0.104,2.059c-1.076,0.628-2.188,1.291-3.264,1.919c0.867,0.104,1.7,0.209,2.568,0.314
		c-2.639,0.907-4.202,2.478-5.938,3.978c1.944-0.663,3.89-1.326,5.834-1.989c1.494,1.919,1.979,4.153,1.527,6.735
		c0.766-1.117,1.424-2.373,1.217-4.432c0.555-0.314,1.18-0.489,2.188,0.279c0.312-0.977,0-2.652-0.451-4.432
		c0.729,0.14,1.459,0.314,2.188,0.454c-0.658-1.85-1.283-3.734-2.707-4.642c-0.174,1.047-0.627,1.85-1.32,2.408
		c0.521-2.024,0.243-3.804-0.833-5.27c-1.285-0.663-2.675-1.64-3.683-1.151c0.694,1.431,0.278,2.478-0.276,3.455
		c0.14-1.466-0.07-2.827-0.66-4.083c-0.556,1.256-1.459,1.955-2.674,2.024c1.181-1.57,1.528-3.315,0.104-5.479
		c-0.902,0.279-1.841,0.523-2.744,0.802c1.217,0.873,1.842,2.024,1.842,3.385c-1.285-1.291-2.5-1.815-3.717-1.954
		c-0.139,1.361-0.799,2.059-1.735,2.478c0.451-1.082,0.556-2.373,0.347-3.874c-1.007-0.663-1.91-0.837-2.709-0.593
		c0.627-0.907,1.494-1.396,2.502-1.431c-1.078-1.396-2.119-1.955-3.16-2.373c1.354-0.035,2.916,0.349,4.688,1.151
		C143.521,59.092,142.965,58.673,142.409,58.254L142.409,58.254z"/>
	<path fill="#007F3E" d="M150.292,55.533c0.417-2.269,0.66-4.502,0.417-6.805c0.59,1.117,1.007,2.233,0.938,3.315
		c1.39-1.222,2.812-2.199,4.41-2.478c-1.598,0.908-2.396,2.827-2.64,5.409c2.257-0.139,4.099-0.628,5.765-1.326
		c-0.765,1.117-1.562,2.199-3.16,2.478c2.604-0.175,4.793,0.523,6.808,1.465c-2.362-0.035-4.55,0.245-6.286,1.57
		c0.799,0.593,1.111,1.222,0.938,1.885c-0.797-0.07-1.562-0.174-2.36-0.245c-1.11-2.268-2.569-2.861-4.133-2.722
		c-1.736-0.698-2.743-0.104-3.646,0.663c0-0.873,0-1.78,0-2.652c-1.284-1.85-2.569-2.128-3.854-2.443
		C145.604,52.811,147.86,53.438,150.292,55.533L150.292,55.533z"/>
	<path fill="#007F3E" d="M139.04,81.845c5.036-2.827,10.07-4.851,15.105-6.316c-0.207-0.419-0.416-0.873-0.625-1.292
		c-4.896,1.675-9.758,3.839-14.412,7.189C139.075,81.566,139.04,81.706,139.04,81.845L139.04,81.845z"/>
	<path fill="#007F3E" d="M143.692,79.611c-2.639,1.082-5.312,2.269-6.666,1.326c-0.035,0.245-0.035,0.489-0.035,0.768
		c-0.694,0.139-1.354,0.314-2.049,0.454c-2.118-1.954-2.467-1.536-2.535-0.803c-0.557-0.035-1.076-0.035-1.633-0.07
		c-1.735-2.303-2.465-2.269-2.777-1.291c0.277,1.326,0.902,2.687,2.188,3.978c2.641,2.652,6.703,2.338,9.897,1.57
		c1.771-0.418,3.438-0.977,4.41-3.28c-0.104-1.884,1.841-3.385,4.967-4.641c0.069-0.07,0.104-0.104,0.174-0.14
		C147.651,78.181,145.673,78.879,143.692,79.611L143.692,79.611z"/>
	<path fill="#A6CE39" d="M139.317,41.993c1.39,0.244,2.258,1.919,3.16,3.629c0.383-1.187,0.694-2.374,0.209-3.874
		c1.11,0.698,1.562,1.954,2.049,3.175c0.799-0.593,1.146-1.57,1.32-2.792c0.693,1.396,0.832,2.861,0.45,4.432
		c0.729-0.732,1.493-1.117,2.327-1.151c-0.452,0.558-0.799,1.187-0.66,1.954c0.521,0,1.008,0,1.528,0
		c-1.354,0.209-2.604,0.628-3.612,1.605c-0.347-1.291-0.764-2.408-1.632-2.373c-1.771,0.07-2.396,0.698-3.058,2.024
		c0.209,0.593-0.104,1.361-0.172,1.71c-0.384-2.687-1.111-4.572-2.119-5.933c0.521,0.314,1.041,0.628,1.562,0.942
		C140.222,44.226,139.771,43.109,139.317,41.993L139.317,41.993z"/>
	
		<path fill="none" stroke="#00A651" stroke-width="2.0312" stroke-linecap="round" stroke-linejoin="round" stroke-miterlimit="2.6131" d="
		M11.068,147.591L11.068,147.591v-23.765v-0.035c0-0.662,0.035-1.291,0.139-1.919c0.07-0.385,0.139-0.732,0.244-1.082
		c0.069-0.35,0.208-0.698,0.312-1.012c0.487-1.291,1.25-2.443,2.188-3.387c0.973-0.977,2.083-1.675,3.265-2.162
		c0.278-0.104,0.556-0.209,0.833-0.279c0.243-0.104,0.521-0.176,0.833-0.209c0.729-0.176,1.459-0.245,2.223-0.245l0,0l0,0
		c0.591,0,1.181,0.036,1.771,0.141c0.347,0.069,0.695,0.14,1.007,0.21c0.313,0.104,0.625,0.209,0.938,0.312
		c0.972,0.385,1.875,0.873,2.674,1.535l0.035-0.034l0.729,0.698c0.903,0.941,1.632,2.023,2.118,3.279
		c0.139,0.279,0.208,0.56,0.313,0.838c0.069,0.278,0.139,0.559,0.208,0.873c0.174,0.803,0.243,1.604,0.243,2.478l0,0v14.202h0.938
		l0,0c0.313,0,0.591,0,0.833,0.035l0,0c0.069,0,0.069,0,0.312,0.035l0,0c0.174,0,0.313,0,0.313,0
		c0.035,0.034,0.104,0.034,0.139,0.034l5.313-14.377c0.382-1.048,0.729-2.06,1.215-3.106c0.452-1.047,1.007-2.022,1.736-3
		c1.042-1.396,2.223-2.549,3.716-3.351c1.458-0.804,3.195-1.222,5.278-1.222s3.854,0.418,5.313,1.222
		c1.493,0.802,2.709,1.919,3.75,3.28c0.729,0.977,1.285,1.988,1.736,3.036c0.174,0.384,0.347,0.768,0.521,1.151
		c0.035-0.279,0.104-0.523,0.174-0.804c0.104-0.349,0.243-0.698,0.347-1.047l0,0c0.59-1.36,1.424-2.548,2.466-3.49
		c0.729-0.696,1.597-1.256,2.5-1.71c0.452-0.209,0.938-0.384,1.389-0.523c0.208-0.068,0.452-0.14,0.729-0.174
		c0.729-0.175,1.493-0.278,2.223-0.278l0,0h8.543h0.035c1.667,0,3.334,0.243,4.966,0.696c0.451,0.141,0.938,0.279,1.424,0.455
		c0.486,0.209,0.938,0.383,1.354,0.594c1.32,0.627,2.57,1.465,3.716,2.441c-0.035-0.104-0.07-0.244-0.07-0.349
		c-0.139-0.663-0.208-1.326-0.208-2.024l0,0l0,0c0-0.697,0.069-1.396,0.208-2.06c0.07-0.349,0.139-0.697,0.243-1.046
		c0.104-0.35,0.208-0.663,0.348-1.014c0.521-1.291,1.25-2.478,2.153-3.453c0.973-1.117,2.152-2.024,3.508-2.688
		c0.277-0.14,0.59-0.278,0.902-0.384c0.312-0.141,0.625-0.209,0.938-0.314c0.834-0.209,1.703-0.349,2.605-0.349l0,0
		c1.354,0,2.568,0.209,3.716,0.487c1.076,0.279,2.05,0.629,2.951,0.979c0.485-0.35,1.042-0.663,1.667-0.906l0,0
		c0.868-0.351,1.876-0.56,3.126-0.56l0,0c0.451,0,0.868,0.035,1.319,0.104c0.348,0.034,0.695,0.104,1.041,0.209
		c0.349,0.069,0.695,0.174,1.008,0.313c1.39,0.56,2.57,1.431,3.508,2.548c0.557,0.698,1.042,1.466,1.389,2.268
		c0.174,0.42,0.313,0.838,0.452,1.258c0.034,0.209,0.104,0.419,0.14,0.662c0.139,0.664,0.207,1.326,0.207,2.024l0,0l0,0
		c0,0.697-0.068,1.396-0.207,2.06c-0.069,0.349-0.14,0.697-0.244,1.047c-0.104,0.349-0.242,0.662-0.381,1.012
		c-0.486,1.257-1.217,2.443-2.119,3.455l0,0c-0.034,0.035-0.104,0.141-0.242,0.279c-0.069,0.068-0.139,0.14-0.243,0.244
		c-0.243,0.244-0.485,0.487-0.765,0.697c0.035,0.104,0.07,0.209,0.104,0.313c0.175,0.419,0.278,0.733,0.382,1.013l0.486,1.326
		c0.938-2.096,2.188-3.944,3.716-5.549l0,0l0,0l0,0c0.556-0.594,1.111-1.151,1.736-1.641c0.591-0.488,1.216-0.978,1.876-1.396
		c3.402-2.233,7.466-3.42,12.085-3.42l0,0l0,0c2.535,0,4.933,0.349,7.153,1.08c0.66,0.211,1.285,0.42,1.91,0.699
		c0.59,0.278,1.182,0.559,1.807,0.907c1.771,0.978,3.402,2.232,4.792,3.733l0,0l0,0l0.034,0.035c0.521,0.558,1.041,1.15,1.494,1.779
		c0.451,0.627,0.867,1.256,1.285,1.953c2.014,3.49,3.125,7.713,3.125,12.459l0,0l0,0c0,2.651-0.348,5.096-0.973,7.397
		c-0.209,0.629-0.417,1.292-0.66,1.954c-0.277,0.629-0.521,1.257-0.834,1.85c-0.902,1.85-2.049,3.525-3.438,4.991l0,0l0,0v0.034
		c-0.557,0.559-1.146,1.117-1.736,1.604c-0.591,0.523-1.216,0.978-1.876,1.431c-3.403,2.199-7.501,3.42-12.085,3.42l0,0l0,0
		c-2.848,0-5.521-0.487-7.918-1.359c-0.521-0.175-1.042-0.384-1.562-0.629c-0.521-0.244-1.008-0.488-1.459-0.768
		c-0.901-0.488-1.736-1.047-2.535-1.676c-0.242,0.313-0.521,0.663-0.832,0.942l0.068,0.069l-0.799,0.662
		c-0.868,0.733-1.875,1.326-3.021,1.711c-0.242,0.104-0.521,0.174-0.729,0.244c-0.243,0.069-0.521,0.104-0.798,0.174
		c-0.66,0.104-1.39,0.176-2.084,0.176l0,0c-1.634,0-2.986-0.279-4.202-0.838c-1.216-0.56-2.223-1.326-3.126-2.338
		c-0.521-0.56-0.938-1.152-1.284-1.78c-0.242-0.384-0.417-0.804-0.626-1.222h-2.014c-0.175,0.418-0.382,0.838-0.591,1.222l0,0
		c-0.348,0.628-0.764,1.222-1.285,1.78c-0.902,1.012-1.909,1.778-3.125,2.338c-1.217,0.559-2.604,0.838-4.202,0.838l0,0
		c-0.556,0-1.111-0.035-1.667-0.105c-0.312-0.068-0.625-0.104-0.903-0.174c-0.312-0.07-0.59-0.175-0.903-0.279
		c-1.181-0.384-2.257-0.978-3.16-1.744c-0.695-0.594-1.285-1.256-1.771-1.989c-0.486-0.732-0.868-1.535-1.146-2.407
		c-0.035-0.175-0.104-0.385-0.139-0.594l0,0c-0.174-0.698-0.243-1.396-0.243-2.164l0,0c0-0.453,0.035-0.907,0.069-1.432
		c0.035-0.14,0.035-0.277,0.069-0.453c-0.104,0.035-0.208,0.069-0.312,0.104c-1.528,0.593-3.229,0.942-5.07,1.047
		c0,0.628-0.069,1.257-0.173,1.851c-0.07,0.349-0.139,0.697-0.208,1.047c-0.104,0.349-0.208,0.697-0.347,1.012
		c-0.486,1.292-1.25,2.443-2.188,3.386c-0.972,0.978-2.049,1.71-3.264,2.198c-0.243,0.104-0.521,0.175-0.799,0.279
		c-0.278,0.068-0.556,0.14-0.833,0.209c-0.729,0.14-1.493,0.21-2.257,0.21l0,0l0,0c-0.625,0-1.25-0.035-1.841-0.14l0,0
		c-0.278-0.035-0.521-0.105-0.798-0.176c-0.243-0.07-0.486-0.14-0.764-0.209c-0.695-0.244-1.354-0.559-1.979-0.941
		c-0.695,0.418-1.424,0.731-2.223,0.977c-0.243,0.104-0.486,0.141-0.695,0.21c-0.208,0.034-0.451,0.104-0.694,0.14
		c-0.625,0.104-1.25,0.141-1.875,0.141l0,0c-1.632,0-3.021-0.279-4.202-0.838c-1.215-0.56-2.223-1.326-3.125-2.338
		c-0.521-0.56-0.938-1.152-1.285-1.78c-0.243-0.384-0.417-0.804-0.625-1.222h-2.014c-0.174,0.418-0.382,0.838-0.591,1.222l0,0
		c-0.347,0.628-0.764,1.222-1.319,1.78c-0.868,1.012-1.875,1.779-3.091,2.338c-1.216,0.559-2.604,0.838-4.202,0.838l0,0
		c-0.521,0-1.042-0.035-1.563-0.105c-0.208-0.033-0.417-0.068-0.66-0.104l0,0c-0.208-0.035-0.417-0.104-0.625-0.141
		c-0.625-0.174-1.215-0.384-1.771-0.662c-0.035,0-0.104,0.035-0.139,0.035c-0.208,0.104-0.417,0.174-0.59,0.209
		c-1.042,0.35-2.153,0.522-3.334,0.522l0,0H21.104l0,0c-0.486,0-1.007-0.034-1.493-0.104c-0.312-0.068-0.625-0.14-0.972-0.209
		c-0.312-0.069-0.625-0.175-0.938-0.278c-1.25-0.419-2.431-1.117-3.438-2.06c-0.798-0.697-1.458-1.535-1.979-2.478
		c-0.243-0.489-0.486-0.978-0.66-1.501c-0.104-0.279-0.173-0.559-0.243-0.803C11.172,149.44,11.068,148.533,11.068,147.591
		L11.068,147.591z"/>
	<path fill="#FFFFFF" d="M11.068,147.591L11.068,147.591v-23.765v-0.035c0-0.662,0.035-1.291,0.139-1.919
		c0.07-0.385,0.139-0.732,0.244-1.082c0.069-0.35,0.208-0.698,0.312-1.012c0.487-1.291,1.25-2.443,2.188-3.387
		c0.973-0.977,2.083-1.675,3.265-2.162c0.278-0.104,0.556-0.209,0.833-0.279c0.243-0.104,0.521-0.176,0.833-0.209
		c0.729-0.176,1.459-0.244,2.223-0.244l0,0l0,0c0.591,0,1.181,0.035,1.771,0.14c0.347,0.069,0.695,0.14,1.007,0.21
		c0.313,0.104,0.625,0.209,0.938,0.312c0.972,0.385,1.875,0.873,2.674,1.535l0.035-0.034l0.729,0.698
		c0.903,0.941,1.632,2.023,2.118,3.279c0.139,0.279,0.208,0.56,0.313,0.838c0.069,0.278,0.139,0.559,0.208,0.873
		c0.174,0.803,0.243,1.604,0.243,2.478l0,0v14.202h0.938l0,0c0.313,0,0.591,0,0.833,0.035l0,0c0.069,0,0.069,0,0.312,0.035l0,0
		c0.174,0,0.313,0,0.313,0c0.034,0.034,0.104,0.034,0.139,0.034l5.313-14.377c0.382-1.048,0.729-2.06,1.215-3.106
		c0.452-1.047,1.007-2.022,1.736-3c1.042-1.396,2.223-2.549,3.716-3.351c1.458-0.803,3.195-1.222,5.278-1.222
		s3.854,0.419,5.313,1.222c1.493,0.802,2.709,1.919,3.75,3.28c0.729,0.977,1.285,1.988,1.736,3.036
		c0.174,0.384,0.347,0.768,0.521,1.151c0.035-0.279,0.104-0.523,0.174-0.804c0.104-0.349,0.243-0.698,0.347-1.047l0,0
		c0.59-1.36,1.424-2.548,2.466-3.49c0.729-0.696,1.597-1.256,2.5-1.71c0.452-0.209,0.938-0.384,1.389-0.523
		c0.208-0.068,0.452-0.14,0.729-0.174c0.729-0.175,1.493-0.278,2.223-0.278l0,0h8.543h0.035c1.667,0,3.334,0.243,4.966,0.696
		c0.451,0.141,0.938,0.279,1.424,0.455c0.486,0.209,0.938,0.383,1.354,0.594c1.32,0.627,2.57,1.465,3.716,2.441
		c-0.035-0.104-0.07-0.244-0.07-0.349c-0.139-0.663-0.208-1.326-0.208-2.024l0,0l0,0c0-0.697,0.069-1.396,0.208-2.059
		c0.07-0.35,0.139-0.698,0.244-1.047c0.104-0.35,0.208-0.663,0.347-1.014c0.521-1.291,1.25-2.478,2.153-3.453
		c0.973-1.117,2.152-2.024,3.508-2.688c0.277-0.14,0.59-0.278,0.902-0.384c0.312-0.141,0.625-0.209,0.938-0.314
		c0.834-0.209,1.703-0.349,2.605-0.349l0,0c1.354,0,2.568,0.209,3.716,0.487c1.076,0.279,2.05,0.629,2.951,0.979
		c0.485-0.35,1.042-0.663,1.667-0.906l0,0c0.868-0.351,1.876-0.56,3.126-0.56l0,0c0.451,0,0.868,0.035,1.319,0.104
		c0.348,0.034,0.695,0.104,1.041,0.209c0.349,0.069,0.695,0.174,1.008,0.313c1.39,0.56,2.57,1.431,3.508,2.548
		c0.557,0.698,1.042,1.466,1.389,2.268c0.174,0.42,0.313,0.838,0.452,1.258c0.034,0.209,0.104,0.419,0.14,0.662
		c0.139,0.664,0.207,1.326,0.207,2.024l0,0l0,0c0,0.697-0.068,1.396-0.207,2.06c-0.069,0.349-0.14,0.697-0.244,1.047
		c-0.104,0.349-0.242,0.662-0.381,1.012c-0.486,1.257-1.217,2.443-2.119,3.455l0,0c-0.034,0.035-0.104,0.141-0.242,0.279
		c-0.069,0.068-0.139,0.14-0.243,0.244c-0.243,0.244-0.485,0.487-0.765,0.697c0.035,0.104,0.07,0.209,0.104,0.313
		c0.175,0.419,0.278,0.733,0.382,1.013l0.486,1.326c0.938-2.096,2.188-3.944,3.716-5.549l0,0l0,0l0,0
		c0.556-0.594,1.111-1.151,1.736-1.641c0.591-0.488,1.216-0.978,1.876-1.396c3.402-2.233,7.466-3.42,12.085-3.42l0,0l0,0
		c2.535,0,4.933,0.349,7.153,1.08c0.66,0.211,1.285,0.42,1.91,0.699c0.59,0.278,1.182,0.559,1.807,0.907
		c1.771,0.978,3.402,2.232,4.792,3.733l0,0l0,0l0.034,0.035c0.521,0.558,1.041,1.15,1.494,1.779
		c0.451,0.627,0.867,1.256,1.285,1.953c2.014,3.49,3.125,7.713,3.125,12.459l0,0l0,0c0,2.651-0.348,5.096-0.973,7.397
		c-0.209,0.629-0.417,1.291-0.66,1.954c-0.277,0.629-0.521,1.257-0.834,1.85c-0.902,1.85-2.049,3.525-3.438,4.991l0,0l0,0v0.034
		c-0.557,0.559-1.146,1.117-1.736,1.604c-0.591,0.523-1.216,0.978-1.876,1.431c-3.403,2.199-7.501,3.42-12.085,3.42l0,0l0,0
		c-2.848,0-5.521-0.487-7.918-1.359c-0.521-0.175-1.042-0.385-1.562-0.629s-1.007-0.488-1.459-0.768
		c-0.901-0.488-1.736-1.047-2.535-1.676c-0.242,0.313-0.521,0.663-0.832,0.942l0.068,0.069l-0.799,0.662
		c-0.868,0.733-1.875,1.326-3.021,1.711c-0.242,0.104-0.521,0.174-0.729,0.244c-0.243,0.069-0.521,0.104-0.798,0.174
		c-0.66,0.104-1.39,0.176-2.084,0.176l0,0c-1.634,0-2.986-0.279-4.202-0.838c-1.216-0.56-2.223-1.326-3.126-2.338
		c-0.521-0.56-0.938-1.152-1.284-1.78c-0.242-0.384-0.417-0.804-0.626-1.222h-2.014c-0.175,0.418-0.382,0.838-0.591,1.222l0,0
		c-0.348,0.628-0.764,1.222-1.284,1.78c-0.903,1.012-1.91,1.778-3.126,2.338c-1.217,0.559-2.604,0.838-4.202,0.838l0,0
		c-0.556,0-1.111-0.035-1.667-0.105c-0.312-0.068-0.625-0.104-0.903-0.174c-0.312-0.07-0.59-0.175-0.903-0.279
		c-1.181-0.384-2.257-0.978-3.16-1.744c-0.695-0.594-1.285-1.256-1.771-1.989c-0.486-0.732-0.868-1.535-1.146-2.407
		c-0.035-0.175-0.104-0.385-0.139-0.594l0,0c-0.174-0.698-0.243-1.396-0.243-2.164l0,0c0-0.453,0.035-0.907,0.069-1.432
		c0.035-0.14,0.035-0.277,0.069-0.453c-0.104,0.035-0.208,0.069-0.312,0.104c-1.528,0.593-3.229,0.942-5.07,1.047
		c0,0.628-0.069,1.257-0.173,1.851c-0.07,0.349-0.139,0.697-0.208,1.047c-0.104,0.349-0.208,0.697-0.347,1.012
		c-0.486,1.292-1.25,2.443-2.188,3.386c-0.972,0.978-2.049,1.71-3.264,2.198c-0.243,0.104-0.521,0.175-0.799,0.279
		c-0.278,0.068-0.556,0.14-0.833,0.209c-0.729,0.14-1.493,0.21-2.257,0.21l0,0l0,0c-0.625,0-1.25-0.035-1.841-0.14l0,0
		c-0.278-0.035-0.521-0.105-0.798-0.176c-0.243-0.07-0.486-0.14-0.764-0.209c-0.695-0.244-1.354-0.559-1.979-0.941
		c-0.694,0.418-1.424,0.731-2.223,0.977c-0.243,0.104-0.486,0.141-0.694,0.21c-0.208,0.034-0.452,0.104-0.695,0.14
		c-0.625,0.104-1.25,0.141-1.875,0.141l0,0c-1.632,0-3.021-0.279-4.202-0.838c-1.215-0.56-2.223-1.326-3.125-2.338
		c-0.521-0.56-0.938-1.152-1.285-1.78c-0.243-0.384-0.417-0.804-0.625-1.222h-2.014c-0.174,0.418-0.382,0.838-0.591,1.222l0,0
		c-0.347,0.628-0.764,1.222-1.319,1.78c-0.868,1.012-1.875,1.779-3.091,2.338c-1.216,0.559-2.604,0.838-4.202,0.838l0,0
		c-0.521,0-1.042-0.035-1.563-0.105c-0.208-0.033-0.417-0.068-0.66-0.104l0,0c-0.208-0.035-0.417-0.104-0.625-0.141
		c-0.625-0.174-1.215-0.384-1.771-0.662c-0.035,0-0.104,0.035-0.139,0.035c-0.208,0.104-0.417,0.174-0.59,0.209
		c-1.042,0.35-2.153,0.522-3.334,0.522l0,0H21.104l0,0c-0.486,0-1.007-0.034-1.493-0.104c-0.312-0.068-0.625-0.14-0.972-0.209
		c-0.312-0.069-0.625-0.175-0.938-0.278c-1.25-0.419-2.431-1.117-3.438-2.06c-0.798-0.697-1.458-1.535-1.979-2.478
		c-0.243-0.489-0.486-0.978-0.66-1.501c-0.104-0.279-0.173-0.559-0.243-0.803C11.172,149.44,11.068,148.533,11.068,147.591
		L11.068,147.591z"/>
	<path fill="#D2E288" d="M151.994,146.928C152.202,147.173,151.994,146.928,151.994,146.928L151.994,146.928L151.994,146.928z"/>
	<polygon fill="#D2E288" points="150.883,118.383 150.883,118.383 150.883,118.383 150.883,118.383 	"/>
	<path fill="#D2E288" d="M150.883,118.383L150.883,118.383C150.883,118.383,150.849,118.383,150.883,118.383L150.883,118.383z"/>
	<path fill="#D2E288" d="M134.838,107.11c0.035,0,0.035,0,0.069,0C134.873,107.11,134.873,107.11,134.838,107.11L134.838,107.11z"/>
	<path fill="#D2E288" d="M134.907,107.11c0,0,0,0,0.035,0C134.907,107.11,134.907,107.11,134.907,107.11L134.907,107.11z"/>
	<path fill="#D2E288" d="M135.081,107.181c0,0,0,0,0.035,0C135.081,107.181,135.081,107.181,135.081,107.181L135.081,107.181z"/>
	<path fill="#D2E288" d="M135.429,107.319L135.429,107.319L135.429,107.319z"/>
	<polygon fill="#D2E288" points="122.753,117.301 122.753,117.301 122.753,117.301 122.753,117.301 	"/>
	<path fill="#A6CE39" d="M13.568,147.591L13.568,147.591v-23.765v-0.035c0-2.373,0.833-4.257,2.188-5.618
		c1.39-1.431,3.265-2.129,5.348-2.129l0,0l0,0c2.084,0,3.924,0.698,5.348,2.129l0,0c1.354,1.361,2.188,3.245,2.188,5.653l0,0v16.751
		h3.438l0,0c1.146,0,2.223,0.174,3.161,0.593l6.112-16.541c0.729-1.989,1.389-3.839,2.604-5.479c1.632-2.164,3.751-3.56,6.98-3.56
		c3.299,0,5.417,1.36,7.05,3.524c1.215,1.64,1.91,3.488,2.639,5.514l3.959,10.714V123.86l0,0c0-2.373,0.938-4.258,2.362-5.584
		c1.424-1.291,3.264-1.988,5.14-1.988l0,0h8.543h0.035c3.612,0,7.189,1.222,9.932,3.665c2.744,2.478,4.584,6.106,4.584,10.853l0,0
		l0,0c0,4.223,2.396-5.27,2.744-6.177c0.312-0.872,0.625-1.71,0.973-2.548c-1.182-0.35-2.188-1.047-2.953-1.954
		c-1.042-1.256-1.597-2.896-1.597-4.571l0,0l0,0c0-2.129,0.903-4.291,2.326-5.896c1.493-1.71,3.646-2.862,6.078-2.862l0,0
		c2.257,0,4.167,0.663,5.834,1.292c0.485,0.209,0.974,0.385,1.319,0.523c1.007-0.942,2.119-1.815,4.307-1.815l0,0
		c2.118,0,3.785,0.873,4.932,2.269c1.041,1.258,1.598,2.861,1.598,4.572l0,0l0,0c0,2.129-0.867,4.293-2.293,5.897
		c-0.693,0.803-1.562,1.466-2.5,1.954c0.451,1.012,0.834,2.059,1.25,3.141l3.266,8.864c0.417-4.956,2.223-9.144,5.141-12.214
		c3.402-3.631,8.16-5.688,13.855-5.688l0,0l0,0c5.695,0,10.453,2.06,13.855,5.688c3.334,3.523,5.209,8.515,5.209,14.447l0,0l0,0
		c0,5.967-1.875,10.922-5.209,14.48c-3.402,3.595-8.16,5.652-13.855,5.652l0,0l0,0c-5.695,0-10.453-2.059-13.855-5.652
		c-0.175-0.174-0.349-0.384-0.521-0.559c-0.243,1.605-1.042,3.002-2.292,4.049h0.034c-1.319,1.115-3.057,1.744-5.035,1.744l0,0
		c-2.467,0-4.133-0.873-5.453-2.338c-1.007-1.151-1.562-2.442-2.049-3.873H104.8c-0.451,1.431-1.008,2.722-2.015,3.873
		c-1.319,1.465-3.021,2.338-5.452,2.338l0,0c-1.945,0-3.716-0.629-5.001-1.744c-1.528-1.258-2.396-3.071-2.396-5.2l0,0
		c0-0.769,0.035-1.465,0.278-2.513c0.208-0.838,0.486-1.814,1.007-3.176c0.417-1.117,1.979-3.699,0.208-1.779
		c-2.5,2.652-6.077,4.258-10.557,4.258l0,0h-1.25v2.373l0,0c0,2.373-0.799,4.258-2.188,5.618c-1.389,1.431-3.264,2.163-5.348,2.163
		l0,0l0,0c-2.083,0-3.924-0.732-5.348-2.163l-0.035-0.035c-0.139,0.175-0.313,0.313-0.486,0.454
		c-1.32,1.115-3.056,1.744-5.001,1.744l0,0c-2.465,0-4.132-0.873-5.452-2.338c-1.007-1.151-1.562-2.442-2.049-3.873h-5.487
		c-0.451,1.431-1.007,2.722-2.049,3.873c-1.285,1.465-2.986,2.338-5.417,2.338l0,0c-1.736,0-3.299-0.488-4.549-1.36
		c-1.146,0.698-2.535,1.082-4.133,1.082l0,0H21.104l0,0c-1.91,0-3.75-0.698-5.14-1.954
		C14.506,151.884,13.568,149.964,13.568,147.591L13.568,147.591z"/>
	<path fill="#FFFFFF" d="M18.465,147.591c0,2.27,1.667,3.525,3.473,3.525h10.974c2.188,0,3.473-1.326,3.473-3.246
		c0-2.023-1.285-3.245-3.473-3.245h-7.501v-20.799c0-2.478-1.459-3.734-3.473-3.734c-2.015,0-3.473,1.257-3.473,3.734V147.591
		L18.465,147.591z M39.267,144.206c-0.903,2.441-1.042,3.279-1.042,4.292c0,1.745,1.389,2.862,3.369,2.862
		c2.292,0,3.021-1.467,3.646-3.42l0.868-2.758h11.426l0.868,2.758c0.625,1.953,1.354,3.42,3.646,3.42
		c1.98,0,3.334-1.117,3.334-2.862c0-1.013-0.104-1.851-1.007-4.292l-6.703-18.182c-1.25-3.42-2.327-6.352-5.904-6.352
		c-3.473,0-4.549,2.932-5.8,6.352L39.267,144.206L39.267,144.206z M55.485,138.692h-7.328l3.751-11.237h0.069L55.485,138.692
		L55.485,138.692z M76.426,126.583h3.716c2.744,0,4.619,1.466,4.619,4.223c0,2.163-1.632,4.188-4.619,4.188h-3.716V126.583
		L76.426,126.583z M69.446,147.661c0,2.441,1.458,3.699,3.473,3.699c2.049,0,3.507-1.258,3.507-3.699v-6.456h5.279
		c6.598,0,10.245-4.397,10.245-10.399c0-6.943-5.105-10.435-10.453-10.435h-8.578c-1.806,0-3.473,1.257-3.473,3.489V147.661
		L69.446,147.661z M99.242,115.556c0,1.467,0.901,2.758,2.5,2.758c1.667,0,2.049-2.024,3.786-2.024c1.806,0,4.443,2.024,7.675,2.024
		c2.36,0,4.341-2.408,4.341-4.676c0-1.467-0.902-2.793-2.501-2.793c-1.666,0-2.049,2.059-3.785,2.059
		c-1.806,0-4.444-2.059-7.675-2.059C101.222,110.845,99.242,113.287,99.242,115.556L99.242,115.556z M95.839,144.206
		c-0.903,2.441-1.042,3.279-1.042,4.292c0,1.745,1.389,2.862,3.368,2.862c2.293,0,3.021-1.467,3.646-3.42l0.869-2.758h11.424
		l0.869,2.758c0.625,1.953,1.354,3.42,3.646,3.42c1.979,0,3.334-1.117,3.334-2.862c0-1.013-0.104-1.851-1.007-4.292l-6.703-18.182
		c-1.25-3.42-2.326-6.352-5.903-6.352c-3.473,0-4.55,2.932-5.8,6.352L95.839,144.206L95.839,144.206z M112.058,138.692h-7.328
		l3.75-11.237h0.069L112.058,138.692L112.058,138.692z M140.291,119.674c-9.063,0-15.038,6.281-15.038,16.054
		c0,9.771,5.975,16.086,15.038,16.086s15.037-6.315,15.037-16.086C155.328,125.955,149.354,119.674,140.291,119.674L140.291,119.674
		z M140.291,126.13c5.382,0,7.569,4.711,7.569,9.598c0,4.885-2.188,9.597-7.569,9.597c-5.384,0-7.571-4.712-7.571-9.597
		C132.72,130.841,134.907,126.13,140.291,126.13L140.291,126.13z"/>
</g>
</svg>
