<?xml version="1.0" encoding="utf-8"?>
<!-- Generator: Adobe Illustrator 16.0.0, SVG Export Plug-In . SVG Version: 6.00 Build 0)  -->
<!DOCTYPE svg PUBLIC "-//W3C//DTD SVG 1.1//EN" "http://www.w3.org/Graphics/SVG/1.1/DTD/svg11.dtd">
<svg version="1.1" id="Layer_1" xmlns="http://www.w3.org/2000/svg" xmlns:xlink="http://www.w3.org/1999/xlink" x="0px" y="0px"
	 width="175.748px" height="123.543px" viewBox="8.504 34.606 175.748 123.543"
	 enable-background="new 8.504 34.606 175.748 123.543" xml:space="preserve">
<g>
	<path fill="#54A275" d="M96.378,34.606c48.523,0,87.874,27.662,87.874,61.772c0,34.11-39.351,61.771-87.874,61.771
		c-48.523,0-87.874-27.661-87.874-61.771C8.504,62.268,47.855,34.606,96.378,34.606L96.378,34.606z"/>
	<path fill="#FFF9AE" d="M96.378,43.054c44.438,0,80.473,23.879,80.473,53.324c0,29.445-36.035,53.324-80.473,53.324
		c-44.437,0-80.473-23.879-80.473-53.324C15.905,66.933,51.941,43.054,96.378,43.054L96.378,43.054z"/>
	<path fill="#54A275" d="M45.251,79.798c6.612,0,12.423,3.541,15.634,8.823c1.815,4.582-4.8,7.497-7.495,3.747
		c-1.803-2.56-4.781-4.238-8.139-4.238c-5.48,0-9.949,4.469-9.949,9.949c0,5.48,4.469,9.949,9.949,9.949
		c3.239,0,6.125-1.562,7.943-3.971c3.914-4.631,9.886-0.636,7.331,4.045c-9.645,14.635-33.556,8.233-33.556-10.023
		C26.97,88.01,35.182,79.798,45.251,79.798L45.251,79.798z M99.532,80.804h0.712c2.069,0,3.762,2.812,3.762,6.248v23.092
		c0,3.438-1.692,6.248-3.762,6.248h-0.712c-2.068,0-3.761-2.812-3.761-6.248V87.052C95.771,83.615,97.464,80.804,99.532,80.804
		L99.532,80.804z M126.526,80.804h0.713c2.068,0,3.761,2.812,3.761,6.248v23.092c0,3.438-1.692,6.248-3.761,6.248h-0.713
		c-2.067,0-3.76-2.812-3.76-6.248V87.052C122.767,83.615,124.459,80.804,126.526,80.804L126.526,80.804z M98.353,67.436
		c2.061-0.505,4.39,1.418,5.187,4.282c0.797,2.863-0.231,5.61-2.291,6.115s-4.388-1.418-5.185-4.281
		C95.265,70.688,96.294,67.941,98.353,67.436L98.353,67.436z M116.17,119.926c0.041-0.067,0.458-1.296,0.472-1.358
		c0.599-1.938,0.994-4.109,1.176-6.525c0.117-0.6,0.18-1.236,0.18-1.896V63.689c0-3.437-1.691-6.248-3.762-6.248h-0.711
		c-2.069,0-3.762,2.812-3.762,6.248v45.232h-0.113c-0.094,4.312-0.678,7.499-2.131,9.656c-0.006,0.007-1.17,1.35-1.175,1.355
		c-1.561,1.375-3.808,2.096-6.883,2.162c-2.91,0.018-5.045-0.812-6.472-2.169c-0.07-0.02-1.158-1.374-1.107-1.423
		c-1.232-2-1.65-4.672-1.589-7.589c0.02-0.253,0.029-0.511,0.029-0.771v-0.052c0.011-0.209,0.023-0.418,0.038-0.629
		c0,0-0.014,0-0.038-0.001V91.534c0-9.517-10.667-15.642-18.065-8.042V63.689c0-3.437-1.692-6.248-3.761-6.248h-0.712
		c-2.068,0-3.761,2.812-3.761,6.248v46.455c0,3.438,1.692,6.248,3.761,6.248h0.712c2.069,0,3.761-2.812,3.761-6.248V91.531
		c0.095-4.063,9.611-4.745,9.823,0.793c0.003,0.001,0.006,0.003,0.009,0.004v16.733c-0.005-0.002-0.014-0.009-0.014-0.004
		c-0.336,3.547-0.053,6.702,0.711,9.438c-0.001,0.056,0.396,1.283,0.469,1.466c2.588,7.118,8.692,11.005,15.663,11.101
		C107.454,130.743,113.399,127.149,116.17,119.926L116.17,119.926z M125.519,67.436c2.061-0.505,4.39,1.418,5.187,4.282
		c0.797,2.863-0.231,5.61-2.291,6.115s-4.388-1.418-5.185-4.281C122.433,70.689,123.46,67.941,125.519,67.436L125.519,67.436z
		 M159.498,83.52c5.125,2.316,1.401,9.651-2.31,7.607c-3.486-1.681-10.929-1.905-12.633-0.951c-1.964,0.854-2.504,4.612,0.271,4.619
		c12.594-0.028,18.656,2.718,18.744,10.729c-0.141,8.457-8.631,12.894-24.992,8.693c-4.411-1.613-1.987-8.631,3.396-6.927
		c3.455,1.378,7.812,1.88,11.545,0.95c3.641-1.287,2.721-4.994-0.543-4.754c-11.953,0.271-18.668-3.441-17.93-11.138
		C136.21,82.066,145.19,79.4,159.498,83.52L159.498,83.52z M165.617,110.312c1.651,0,3,1.349,3,3c0,1.652-1.349,3-3,3
		c-1.652,0-2.999-1.348-2.999-3C162.618,111.66,163.965,110.312,165.617,110.312L165.617,110.312z M164.289,115.034v-3.445h1.526
		c0.308,0,0.541,0.031,0.701,0.094c0.159,0.062,0.287,0.17,0.383,0.326c0.097,0.157,0.144,0.33,0.144,0.52
		c0,0.246-0.079,0.451-0.237,0.619c-0.158,0.166-0.402,0.273-0.732,0.319c0.121,0.058,0.213,0.114,0.275,0.173
		c0.133,0.12,0.26,0.272,0.377,0.457l0.601,0.938h-0.573l-0.456-0.718c-0.132-0.207-0.243-0.364-0.33-0.475
		c-0.086-0.109-0.163-0.187-0.229-0.23c-0.068-0.043-0.137-0.075-0.209-0.092c-0.051-0.012-0.137-0.017-0.254-0.017h-0.528v1.53
		H164.289L164.289,115.034z M164.744,113.108h0.979c0.209,0,0.371-0.021,0.489-0.063c0.117-0.044,0.206-0.112,0.269-0.207
		c0.061-0.095,0.09-0.196,0.09-0.31c0-0.162-0.059-0.297-0.176-0.401c-0.119-0.104-0.306-0.157-0.562-0.157h-1.091L164.744,113.108
		L164.744,113.108z M165.617,110.772c1.397,0,2.539,1.141,2.539,2.539c0,1.396-1.142,2.537-2.539,2.537s-2.538-1.141-2.538-2.537
		C163.079,111.913,164.22,110.772,165.617,110.772L165.617,110.772z"/>
	<path fill="#ED1C24" d="M137.005,70.771c0.387,2.126-1.195,7.241-3.57,8.279c-1.5,0.695-0.24,2.744,1.977,2.203
		c5.544-1.525,9.165-5.336,11.469-10.71c-0.686-0.34-1.393-0.953-1.443-1.595c-0.203-0.917-0.862-1.473-1.821-0.152
		c-0.892,0.942-2.104,0.889-2.734-0.076c-0.569-1.103-1.165-0.962-1.596,0.228C138.972,69.831,137.763,70.658,137.005,70.771
		L137.005,70.771z M134.36,79.81c1.619-1.837,4.002-5.321,4.18-8.938c0.253-0.662,1.541-1.324,1.672-0.708
		C139.674,77.998,134.36,79.81,134.36,79.81L134.36,79.81z"/>
	<path fill="#54A275" d="M136.854,68.797c-0.309-2.47,0.365-4.683,2.658-5.773c1.122-0.537,1.295-0.075,1.746,0.465
		c0.453,0.54,1.389,0.169,1.442-0.299c0.211-1.255-0.007-1.925-0.606-2.369c-2.102,0.285-1.736-1.652-0.548-1.549
		c1.247,0.14,1.55,2.319,1.731,3.616c3.222-0.212,4.467,1.985,4.359,5.833c-1.537-2.812-3.293-3.16-5.316-0.532
		C140.301,65.961,138.017,66.843,136.854,68.797L136.854,68.797z M140.374,63.467c-1.295,0.514-2.038,1.186-2.473,2.566
		c-0.152,0.831,0.539,0.734,0.82,0.398C138.743,65.389,139.897,64.113,140.374,63.467L140.374,63.467z"/>
</g>
</svg>
