<?xml version="1.0" encoding="utf-8"?>
<!-- Generator: Adobe Illustrator 16.0.0, SVG Export Plug-In . SVG Version: 6.00 Build 0)  -->
<!DOCTYPE svg PUBLIC "-//W3C//DTD SVG 1.1//EN" "http://www.w3.org/Graphics/SVG/1.1/DTD/svg11.dtd">
<svg version="1.1" id="Layer_1" xmlns="http://www.w3.org/2000/svg" xmlns:xlink="http://www.w3.org/1999/xlink" x="0px" y="0px"
	 width="175.751px" height="80.907px" viewBox="8.495 55.926 175.751 80.907" enable-background="new 8.495 55.926 175.751 80.907"
	 xml:space="preserve">
<g>
	<path fill="#2E3192" d="M105.242,73.526c1.899-0.909,3.801-1.901,5.743-2.687l2.024-0.372l2.19,0.124
		c1.693-1.281,3.471-2.231,5.453-3.017l1.281-0.455c2.355-0.62,4.545-0.827,6.942-0.455c0.289,0.041,0.619,0.124,0.95,0.166
		l2.562,0.95c1.816-1.488,4.09-2.025,6.238-2.646c2.066-0.62,4.091-1.199,6.157-1.777l2.147-0.083l2.314,0.414l1.156,0.578
		l10.91-2.355l2.313,0.083l2.272,0.661l2.23,1.364l1.734,1.983l1.117,2.314l0.33,2.562c-0.082,1.24-0.289,2.355-0.619,3.554
		c-0.58,1.818-1.157,3.678-1.735,5.496l0.907,0.207l2.812,2.314l1.57,2.521l0.702,2.769l-0.041,1.074l0.578,0.042l4.586,1.653
		l2.521,2.604l1.653,3.885l-0.537,4.545l-2.313,3.513l-1.735,1.157l-5,5.331c-1.57,2.562-2.687,5.248-2.687,8.266l0.041,0.742
		l-0.166,2.149l-1.115,2.934l-2.645,2.81l-3.306,1.324l-2.853,0.123l-3.059-0.785c-3.307-1.198-6.611-2.354-9.958-3.431
		l-9.216-2.396l-8.514-1.487l-8.017-0.703h-8.347c-3.678,0.248-7.314,0.496-10.992,0.992c-4.092,0.537-8.182,1.198-12.273,1.942
		c-2.025,0.578-4.05,1.115-6.033,1.775c-6.819,2.438-13.472,5.331-20.166,7.977c-2.025,0.949-4.05,1.734-6.24,2.313
		c-1.446,0.372-2.893,0.578-4.38,0.702l-1.116,0.041l-2.521-0.248l-2.149-0.619l-2.025-1.074l-1.818-1.445l-1.447-1.694
		l-1.198-2.108l-1.075-4.049l-0.165-2.687l-7.107,0.661l-1.405-0.289c-1.901-0.537-3.43-1.322-5-2.562
		c-1.281-1.156-2.355-2.354-3.265-3.802l-1.612-0.165l-3.058-1.529c-1.198-1.279-2.438-2.521-3.554-3.843
		c-0.537-0.661-1.033-1.28-1.529-1.942l-4.917-9.586l-1.281-7.935c0-2.19,0.207-4.256,0.661-6.405
		c0.124-0.537,0.248-1.033,0.413-1.57c1.942-6.24,6.116-11.818,11.24-15.785c4.215-3.182,8.843-5.662,14.009-6.818
		c1.942-0.414,3.801-0.62,5.785-0.703l2.934,0.289l2.934,0.909l1.653,0.868c1.157,0.786,2.232,1.529,3.1,2.604
		c0.372-0.827,0.785-1.611,1.322-2.355c0.62-0.744,1.239-1.363,1.983-1.983l1.777-1.074l9.38-3.595l2.893-0.372l2.521,0.455
		l2.355,1.157l1.942,1.819l1.199,2.024l0.578,1.777l0.29,2.273l-3.637,20.207c1.364-0.744,2.769-1.488,4.132-2.231l1.736-0.579
		l2.231-0.248l1.57,0.248c1.157-0.992,2.521-1.653,3.884-2.355l6.777-3.512l1.818-0.537l2.272-0.207l1.57,0.331
		c0.619-0.455,1.281-0.868,1.941-1.24C102.929,74.683,104.085,74.104,105.242,73.526L105.242,73.526z"/>
	<path fill="#8ED8F8" d="M13.876,75.592c1.57-2.314,3.306-4.339,5.372-6.199l1.24-1.033c3.471-2.686,7.314-4.876,11.529-6.116
		c2.231-0.661,4.421-0.991,6.736-1.074l2.438,0.248l2.396,0.744l1.281,0.661l1.116,0.785l1.033,0.951l0.868,1.033l0.744,1.199
		l0.95,2.273c0.166,0.702,0.29,1.405,0.414,2.107c0.661-2.149,1.322-4.339,1.942-6.488c0.248-0.744,0.537-1.363,0.951-2.024
		c0.496-0.661,0.95-1.157,1.57-1.694l1.405-0.827l8.802-3.388l2.107-0.248l1.653,0.289l1.612,0.785l1.322,1.281l0.826,1.364
		l0.372,1.198l0.248,1.57l-4.669,25.868c0.867-0.62,1.818-1.116,2.769-1.611c2.149-1.199,4.297-2.355,6.446-3.513l1.24-0.413
		l1.488-0.165l1.983,0.33l0.537,0.29c0.992-1.446,2.81-2.273,4.38-3.099c2.149-1.116,4.339-2.231,6.488-3.389l1.281-0.372
		l1.57-0.124l1.942,0.413l0.537,0.331c0.703-0.868,1.612-1.529,2.604-2.025c2.562-1.323,5.166-2.604,7.728-3.885l0.909-0.33
		l1.404-0.29l1.983,0.124l0.661,0.331c0.826-0.785,1.734-1.405,2.686-2.025c2.646-1.57,5.662-2.645,8.804-2.396
		c0.577,0.041,1.155,0.124,1.694,0.248l1.982,0.703l1.693,1.364c0.951-1.529,2.438-2.479,4.174-3.017
		c2.77-0.868,5.537-1.653,8.348-2.438l1.487-0.082l1.569,0.33l1.653,0.785l0.785,0.786l1.198-1.199l9.67-2.066l1.57,0.083
		l1.57,0.455l1.527,0.909l1.156,1.364l0.744,1.529l0.248,1.859c-0.041,1.57-0.66,3.058-1.115,4.504
		c-0.702,2.272-1.405,4.504-2.107,6.735l0.372-0.124l3.017,0.702l1.901,1.571l1.074,1.735l0.496,1.901l-0.125,2.19l-0.537,1.198
		l3.472,0.29l3.596,1.322l1.693,1.694l1.116,2.686l-0.372,3.141l-1.611,2.438l-1.488,0.992l-5.371,5.703
		c-0.206,0.289-0.371,0.578-0.578,0.867c-1.653,2.852-2.852,5.991-2.77,9.381l0.041,0.619l-0.123,1.487l-0.744,2.024l-1.817,1.942
		l-2.272,0.908l-1.9,0.082l-2.521-0.66c-3.307-1.198-6.611-2.396-10-3.431l-9.422-2.479l-8.72-1.528l-8.306-0.703l-8.018-0.041
		c-3.348,0.248-6.695,0.413-10.042,0.826c-4.793,0.579-9.546,1.322-14.298,2.23c-2.149,0.58-4.298,1.158-6.364,1.859
		c-6.901,2.438-13.554,5.372-20.331,8.059c-0.992,0.414-1.942,0.867-2.893,1.24c-2.231,0.826-4.38,1.363-6.777,1.528l-0.827,0.041
		l-2.066-0.206l-1.653-0.496l-1.529-0.785l-1.322-1.074l-1.116-1.28l-0.868-1.57l-0.951-3.43l-0.083-1.57
		c-0.042-1.858,0.165-3.637,0.455-5.455l-1.116,0.827c-6.777,3.348-12.976,2.438-16.695-3.72l-0.372-1.115l-0.248,0.083
		l-2.521-0.207l-2.107-1.074l-2.107-2.189c-2.686-3.059-4.958-6.364-6.405-10.207c-0.95-2.604-1.529-5.331-1.611-8.099
		c-0.083-2.438,0.207-4.752,0.785-7.107C11.19,80.262,12.388,77.906,13.876,75.592L13.876,75.592z M24.785,89.766l0.496,4.669
		l3.141-12.852C26.686,84.063,25.405,86.791,24.785,89.766L24.785,89.766z"/>
	<path fill="#2E3192" d="M43.381,65.303l0.785,0.579l0.744,0.661l0.62,0.744l0.538,0.827l0.744,1.818
		c0.166,0.786,0.331,1.571,0.413,2.356c0.166,1.983,0.042,3.843-0.413,5.785l-5.661,22.81c2.066-3.637,3.802-7.521,5.413-11.363
		c3.182-7.811,5.827-15.827,8.141-23.968c0.372-1.281,1.116-2.149,2.355-2.769l8.306-3.182l1.322-0.166l0.827,0.166l0.868,0.413
		l0.703,0.662l0.413,0.744l0.248,0.661l0.124,0.868L63.838,96.38c-0.62,4.298-1.488,8.596-2.231,12.893
		c-0.455,2.646-0.909,5.332-1.033,8.018c2.645-1.28,5.248-2.604,7.976-3.678l1.116-0.537c-0.29,0-0.538-0.041-0.827-0.082
		c-1.694-0.207-3.017-0.992-4.05-2.438l-0.496-1.281c-0.124-0.537-0.166-1.033-0.124-1.57c0.124-2.064,0.909-4.051,1.488-5.991
		c0.826-2.646,1.611-5.331,2.438-7.976c0.372-1.281,1.074-2.108,2.149-2.81c2.727-1.529,5.496-3.017,8.264-4.546l0.703-0.207
		l0.785-0.083l1.075,0.166l1.033,0.62l0.744,0.992l0.248,1.033l-0.042,0.909c-1.323,4.215-2.562,8.43-3.843,12.686
		c0.29-0.247,0.62-0.495,0.909-0.743c0-1.735,0.579-3.348,1.074-5c0.951-3.182,1.901-6.405,2.893-9.587
		c0.331-1.239,1.074-2.107,2.148-2.81c2.769-1.446,5.538-2.892,8.306-4.339l0.744-0.207l0.827-0.083l1.034,0.207l1.033,0.661
		l0.66,0.992l0.248,0.992l-0.042,0.868c-1.321,4.339-2.645,8.719-3.967,13.058c0.455-0.289,0.868-0.661,1.281-0.992
		c0.041-0.703,0.206-1.364,0.372-2.025c1.157-4.132,2.272-8.265,3.471-12.397c0.413-1.405,1.24-2.397,2.521-3.017
		c2.521-1.281,5.041-2.521,7.562-3.76l0.579-0.248l0.785-0.124l1.031,0.042l1.24,0.578l0.496,0.62
		c0.247-0.248,0.495-0.496,0.702-0.744c2.604-2.603,5.784-4.38,9.504-4.545c0.661,0,1.239,0.083,1.901,0.207l1.281,0.455
		l1.734,1.405l0.702,1.281l0.413,1.818c-0.041,1.818-0.785,3.512-1.322,5.248c-0.743,2.19-1.445,4.421-2.189,6.612
		c0.578-0.29,1.115-0.62,1.611-0.992c0.083-0.909,0.289-1.777,0.537-2.645c1.157-3.719,2.314-7.438,3.514-11.157
		c0.412-1.405,1.28-2.272,2.645-2.851c2.81-0.868,5.619-1.694,8.471-2.479l0.827-0.042l0.866,0.165l0.869,0.414l0.701,0.703
		l0.455,0.826l0.166,0.868l-0.041,0.827c-0.373,1.198-0.744,2.355-1.117,3.554c-1.197,3.595-2.354,7.231-3.471,10.827
		c0.496-0.165,0.991-0.372,1.487-0.661c0-1.034,0.248-2.025,0.537-3.017c1.157-3.76,2.354-7.479,3.554-11.198l2.852-2.893
		l8.473-1.777l0.867,0.042l0.826,0.248l0.826,0.496l0.62,0.703l0.371,0.785c0.166,0.785,0.207,1.281,0,2.025
		c-1.487,4.669-2.935,9.298-4.421,13.967l-0.331,1.074l2.604-0.909l0.123-0.331l2.355-0.744l1.57,0.414l1.033,0.826l0.578,0.95
		l0.248,1.033l-0.041,1.198l-0.578,1.199l-0.869,0.785c-0.412,0.207-0.784,0.454-1.197,0.62c-1.446,0.703-2.936,1.198-4.546,1.57
		c4.133,0.166,8.224,0.537,12.354,0.868l2.604,0.951l0.868,0.868l0.578,1.446l-0.207,1.694l-0.867,1.363l-1.322,0.868l-5.703,6.033
		c-1.156,1.734-2.064,3.471-2.851,5.412c-0.785,2.355-1.322,4.836-1.116,7.314l-0.083,0.908l-0.413,1.074l-0.949,1.033l-1.24,0.496
		l-1.032,0.041l-1.405-0.33c-3.514-1.281-6.982-2.521-10.537-3.637l-9.629-2.521l-8.967-1.568l-8.555-0.703l-8.224-0.041
		l-8.182,0.578c-5.62,0.619-11.199,1.529-16.736,2.521l-5.29,1.487c-7.438,2.521-14.587,5.744-21.901,8.595
		c-2.975,1.405-5.95,2.562-9.256,2.562l-1.611-0.124l-1.075-0.33l-1.033-0.538l-0.909-0.743l-0.744-0.868l-0.579-0.991l-0.744-2.811
		c-0.331-3.1,0.372-6.239,0.95-9.256l1.571-8.1l-3.347,5.164l-2.728,2.812c-2.604,2.521-5.868,3.141-9.628,2.479
		c-2.272-1.24-3.595-1.984-4.628-4.051l-1.116-3.761l-1.074,0.909l-1.281,0.412l-1.405-0.123l-1.157-0.62l-1.199-1.198
		c-2.603-2.811-4.711-5.785-6.157-9.339c-0.909-2.355-1.446-4.669-1.611-7.19c-0.124-2.479,0.124-4.793,0.826-7.19l0.414-1.198
		c1.157-3.058,2.934-5.703,5.083-8.141c0.537-0.62,1.116-1.198,1.694-1.776c3.017-2.728,6.323-4.794,10.042-6.323l1.405-0.496
		c2.231-0.702,4.297-1.116,6.653-1.198l1.942,0.206l1.9,0.579L43.381,65.303L43.381,65.303z M110.778,96.667l5.248-1.446
		l-1.363-0.826l-0.619-0.579l-1.156-2.025c-0.496,1.157-0.992,2.314-1.488,3.471L110.778,96.667L110.778,96.667z M131.233,92.287
		l1.611-0.207l-0.744-0.33L131.233,92.287L131.233,92.287z M145.532,91.171c1.529-0.083,3.099-0.083,4.669-0.083
		c-0.743-0.248-1.487-0.579-2.188-1.033C147.228,90.469,146.358,90.841,145.532,91.171L145.532,91.171z M26.397,103.031
		c0.166-1.653,0.496-3.265,0.95-4.876l6.364-26.034c-1.405,0.785-2.604,1.901-3.76,3.058c-3.843,4.008-7.149,8.967-8.099,14.546
		l0.909,8.264l3.471,4.835L26.397,103.031L26.397,103.031z"/>
	<path fill="#FFCB05" d="M60.158,123.444c-0.538,0.248-1.116,0.496-1.735,0.785c-2.562,1.115-4.794,1.611-6.695,1.528
		s-3.017-1.198-3.43-3.348c-0.455-2.603,0.372-6.239,1.281-11.074l1.736-9.009l1.281-7.272l2.066-10.91
		c0.248-2.107,1.322-7.273,3.265-15.455l-0.29-0.083c-1.859,6.901-3.678,13.224-5.496,18.926
		c-1.818,5.744-4.215,11.239-7.107,16.487c-2.892,5.248-5.992,8.142-9.297,8.762c-1.653,0.289-3.1-0.124-4.298-1.239
		c-1.24-1.157-1.942-2.646-2.149-4.546c-0.289-2.438,0-5.165,0.868-8.1l6.405-26.158c0.207-0.992,0.248-1.735,0.207-2.231
		c-0.166-1.446-0.909-2.024-2.231-1.776c-1.157,0.206-2.479,0.868-4.008,2.024c-1.488,1.157-3.141,2.769-4.835,4.835
		c-5.248,6.447-7.562,12.769-6.818,18.885c0.207,1.86,0.661,3.554,1.405,5c0.744,1.488,1.983,3.225,3.678,5.166
		c0.826,0.785-0.083,1.611-0.703,1.115c-4.545-4.504-7.108-9.297-7.686-14.421c-0.496-4.049,0.331-7.852,2.355-11.323
		c2.066-3.512,4.793-6.364,8.141-8.554c3.347-2.231,6.653-3.637,9.959-4.256c5.041-0.909,7.769,0.785,8.265,5.042
		c0.207,1.777,0.124,3.471-0.289,5.124l-7.769,31.116c-0.124,0.455-0.124,0.992-0.083,1.57c0.083,0.702,0.414,1.032,0.91,0.95
		c0.909-0.166,2.066-1.364,3.471-3.596c3.43-5.083,6.612-11.405,9.546-18.885c2.81-7.19,5.29-14.67,7.397-22.149
		c0.083-0.372,0.372-0.785,0.744-0.95l7.976-3.017c0.455-0.124,0.702,0.041,0.702,0.496L61.07,95.178
		c-1.116,8.72-3.967,19.464-3.264,24.05c0.124,0.869,0.579,1.487,1.281,1.859c0.042,0,0.083,0.042,0.124,0.042
		c3.347-1.528,6.488-3.265,10.455-4.876c38.224-17.066,56.901-25.456,102.563-21.158c0.537,0,1.859,0.538,1.117,1.364
		c-4.629,2.894-12.15,11.363-11.818,21.363c0.123,0.909-0.248,1.198-1.281,0.827c-29.546-11.322-48.928-9.836-72.357-5.496
		C80.117,114.892,68.464,120.181,60.158,123.444L60.158,123.444z M68.34,109.892c-0.744-0.289-1.199-0.785-1.281-1.57
		c-0.042-0.62,0.041-1.487,0.413-2.604c0.537-1.858,1.157-3.719,1.694-5.577c0.579-1.859,1.157-3.721,1.694-5.621
		c0.124-0.455,0.413-0.827,0.868-1.116c2.604-1.446,5.248-2.893,7.893-4.339c0.496-0.207,0.62,0.083,0.538,0.29
		c-0.744,2.397-1.447,4.752-2.19,7.149c-0.702,2.396-1.446,4.752-2.148,7.107c-0.414,1.281-0.62,2.147-0.537,2.562
		c0.124,0.991,0.868,1.239,2.231,0.702c1.57-0.62,3.513-1.982,5.786-4.05c-0.125-0.248-0.207-0.496-0.248-0.785
		c-0.083-0.661,0.042-1.57,0.372-2.687c0.579-1.9,1.157-3.802,1.694-5.662c0.579-1.901,1.157-3.802,1.736-5.703
		c0.124-0.496,0.413-0.868,0.868-1.116c2.604-1.405,5.248-2.81,7.934-4.174c0.455-0.165,0.579,0.124,0.496,0.331
		c-0.744,2.397-1.487,4.794-2.19,7.19c-0.702,2.397-1.446,4.793-2.19,7.149c-0.372,1.322-0.579,2.189-0.496,2.604
		c0.124,1.032,0.868,1.239,2.19,0.743c1.611-0.577,3.554-1.899,5.867-3.926c0-0.083-0.041-0.165-0.041-0.248
		c-0.124-0.785,0.041-1.694,0.331-2.686c0.619-1.983,1.115-3.967,1.652-5.992c0.578-1.983,1.156-3.967,1.736-5.992
		c0.123-0.578,0.453-0.991,1.031-1.239c2.479-1.24,4.918-2.479,7.438-3.678c0.58-0.29,0.785,0,0.662,0.413
		c-0.91,3.017-1.776,6.033-2.646,9.05c-0.867,3.017-1.776,6.033-2.646,9.05c0.041,0.124,0.041,0.289,0.084,0.455
		c0,0,0,0.042,0,0.083c0.246-0.083,0.494-0.289,0.619-0.62c0.66-1.735,1.404-3.802,2.271-6.199c0.908-2.438,1.941-4.752,3.141-6.901
		c1.157-2.19,2.562-4.132,4.217-5.827c1.693-1.694,3.553-2.81,5.578-3.389c1.363-0.372,2.521-0.372,3.43-0.041
		c0.867,0.289,1.404,0.951,1.529,1.942c0.041,0.414-0.084,1.075-0.332,1.901c-0.578,1.694-1.115,3.389-1.652,5.042
		c-0.536,1.694-1.115,3.389-1.652,5.083c-0.33,1.157-0.454,1.901-0.413,2.231c0.165,1.116,1.033,1.446,2.687,1.074
		c0.785-0.165,1.57-0.496,2.354-0.909c0.827-0.454,1.612-0.992,2.397-1.611c0.207-0.124,0.453-0.29,0.66-0.455
		c-0.041-0.166-0.082-0.331-0.123-0.496c-0.041-0.702,0.082-1.611,0.412-2.727c0.578-1.86,1.157-3.719,1.735-5.538
		c0.579-1.859,1.198-3.719,1.776-5.579c0.125-0.496,0.414-0.827,0.867-0.992c2.646-0.826,5.291-1.611,7.936-2.355
		c0.496-0.041,0.578,0.289,0.496,0.496c-0.785,2.314-1.529,4.669-2.273,7.025c-0.742,2.314-1.486,4.669-2.23,6.983
		c-0.372,1.24-0.578,2.108-0.495,2.604c0.082,1.075,0.825,1.529,2.188,1.405c1.57-0.124,3.514-0.909,5.785-2.356
		c-0.123-0.289-0.205-0.62-0.246-0.95c-0.084-0.744,0.041-1.653,0.412-2.769c0.537-1.86,1.156-3.719,1.735-5.579
		c0.578-1.86,1.198-3.719,1.776-5.579c0.123-0.496,0.414-0.827,0.867-0.951c2.646-0.579,5.289-1.157,7.936-1.694
		c0.453,0,0.578,0.372,0.494,0.538c-0.784,2.438-1.527,4.876-2.271,7.272c-0.744,2.356-1.529,4.752-2.271,7.108
		c-0.414,1.281-0.58,2.149-0.537,2.686c0.082,1.157,0.826,1.735,2.188,1.777c1.612,0.083,3.556-0.537,5.868-1.818
		c0,0,0.041,0,0.041-0.042c0.455-0.248,0.909,0.662,0.331,0.951c-1.364,0.785-2.812,1.322-4.339,1.694
		c-1.611,0.372-3.307,0.496-5.042,0.496c-1.983-0.042-3.679-0.414-5-1.199c-0.62-0.331-1.115-0.744-1.487-1.157
		c-1.322,0.827-2.811,1.529-4.381,2.066c-1.568,0.537-3.264,0.909-5,1.116c-2.023,0.248-3.678,0.124-5.041-0.413
		c-0.785-0.29-1.363-0.744-1.734-1.24c-2.853,2.231-5.869,3.678-9.01,4.422c-2.23,0.578-4.008,0.661-5.372,0.248
		c-1.321-0.413-2.106-1.24-2.272-2.479c-0.082-0.826,0.125-1.735,0.496-2.851c0.662-1.901,1.199-3.885,1.818-5.827
		c0.578-1.942,1.197-3.884,1.776-5.827c0.083-0.165,0.165-0.331,0.248-0.496c0-0.124-0.124-0.124-0.29-0.083
		c-0.082,0.042-0.33,0.207-0.66,0.537c-1.24,1.323-2.314,2.687-3.225,4.091c-0.867,1.446-1.775,2.975-2.604,4.628
		c-0.826,1.653-1.693,3.512-2.562,5.579c-0.867,2.107-1.569,3.678-2.024,4.669c-0.33,0.868-0.702,1.488-1.198,1.983
		c-0.496,0.455-1.281,0.868-2.354,1.239c-2.853,0.992-4.587,0.869-5.289-0.412c-1.322,1.156-2.728,2.189-4.257,3.099
		c-1.57,0.992-3.264,1.818-5.041,2.479c-2.025,0.744-3.719,0.992-5.083,0.785c-0.578-0.082-1.116-0.289-1.446-0.537
		c-1.364,1.24-2.852,2.354-4.38,3.348c-1.612,1.033-3.306,1.859-5.083,2.562c-1.901,0.743-3.513,1.032-4.876,0.908
		C68.753,110.056,69.084,110.14,68.34,109.892L68.34,109.892z"/>
	<path fill="#2E3192" d="M97.845,105.428c0.248-0.702,0.496-1.362,0.785-2.065l-0.413-1.28c-0.082-1.983,1.611-3.638,3.472-4.092
		c0.414-0.082,0.826-0.165,1.24-0.248c1.404-0.206,2.809-0.578,4.215-0.413c0.455,0.083,0.744,0.207,1.156,0.372l0.496,0.413
		l0.372,0.455l0.206,0.412c0.826-0.701,1.734-1.404,2.77-1.858c0.455-0.207,1.073-0.372,1.61-0.289l2.19-0.868
		c0.66,0.041,1.281,0.289,1.818,0.661c0.453-1.281,1.486-1.942,2.852-1.901c0.082,0,0.164,0,0.248,0.042
		c1.115,0.124,2.23,0.248,2.975,1.239c0.909,0.041,1.653,0.331,2.396,0.827c0.619-0.992,1.652-1.86,2.77-2.191
		c0.495-0.083,0.991-0.207,1.487-0.289c2.19-0.29,5.288-1.198,6.446,1.364c0.992-0.868,2.148-1.488,3.472-1.735
		c1.487-0.331,2.893,0.165,3.967,1.322c0.372-1.199,1.528-1.901,2.728-1.86c1.239,0.042,2.065,0.744,2.852,1.612l0.124,0.207
		l1.528-1.488c0.621-0.289,1.158-0.248,1.859-0.248l0.992,0.662l0.124,0.165l3.967-0.042c0.041,0,0.041,0,0.083,0.042
		c0.826,0.496,1.446,1.198,1.652,2.19l3.678-2.024c1.157-0.042,1.941,0.413,2.645,1.322c0.414,0.661,0.58,1.322,0.744,2.024
		c0.621,0.248,1.074,0.743,1.446,1.239l0.62,4.918c-0.579,2.811-2.025,5.412-4.091,7.396c-1.157,1.074-2.521,1.818-4.134,1.818
		c-1.403,0.041-2.479-0.538-3.389-1.612c-0.453-0.619-0.949-1.362-1.197-2.106c-0.166,0.867-0.537,1.61-1.239,2.189
		c-1.033,0.743-2.107,0.785-3.183,0.165c-0.082-0.041-0.166-0.124-0.248-0.165l-0.455,0.248c-0.66,0.082-1.28,0.372-1.941,0.495
		l-0.743,0.29l-1.116-0.538c-0.826-0.412-1.281-0.991-1.611-1.817c-0.826,1.239-2.23,1.611-3.553,1.033
		c-0.455-0.248-0.91-0.537-1.281-0.868c-1.157,0.744-2.396,1.115-3.803,1.157c-1.777,0.041-3.347-0.661-4.339-2.23
		c-0.372,0.412-0.825,0.785-1.28,1.156c-1.322,1.115-2.894,2.024-4.67,1.198c-1.156,0.041-2.272-0.661-2.852-1.653
		c-1.157,1.157-2.688,2.729-4.463,2.521c-0.372,0.951-0.744,1.9-1.074,2.852c-0.331,0.951-0.744,1.694-1.57,2.272
		c-1.074,0.538-2.107,0.455-3.017-0.289c-0.289-0.206-0.455-0.537-0.785-0.661c-1.075-0.619-1.694-1.652-1.528-2.934
		c0.041-0.332,0.123-0.661,0.248-0.95c-0.289-0.083-0.621-0.166-0.869-0.331c-1.858,0.949-4.008,0.701-5.453-0.867l-0.372,0.371
		c-1.446,1.322-3.101,2.77-5.207,2.107c-0.372,0.041-0.743,0-1.115-0.082c-1.405-0.332-2.479-1.653-2.687-3.06
		c-0.083-0.991,0.207-2.024,0.497-2.975C97.185,107.246,97.515,106.337,97.845,105.428L97.845,105.428z"/>
	<path fill="#FFFFFF" d="M103.63,102.122c-0.124,0.248-0.247,0.454-0.33,0.743c-0.083,0.247-0.207,0.495-0.289,0.784
		c-0.042,0.125-0.082,0.248-0.123,0.414c-0.043,0.123-0.084,0.289-0.125,0.414c0.082-0.043,0.206-0.043,0.33-0.084
		c0.083,0,0.207-0.041,0.331-0.041c0.165-0.041,0.33-0.082,0.537-0.123c0.165-0.043,0.33-0.084,0.496-0.084
		c0.248-0.041,0.454-0.082,0.661-0.082c0.206,0.041,0.371,0.082,0.494,0.123c0.207,0.125,0.414,0.291,0.621,0.537
		c0.166,0.248,0.248,0.579,0.289,0.951c0.041,0.165,0.041,0.413,0,0.62c0,0.248-0.082,0.495-0.123,0.743
		c-0.043,0.042-0.043,0.042-0.043,0.083s-0.041,0.041-0.041,0.082c0,0.042,0,0.125-0.041,0.166s-0.041,0.124-0.082,0.165
		c-0.289,0.66-0.703,1.24-1.157,1.818c-0.496,0.578-0.992,1.114-1.529,1.569c-0.165,0.124-0.33,0.248-0.454,0.413
		c-0.164,0.124-0.33,0.248-0.496,0.372c-0.205,0.124-0.412,0.248-0.619,0.372c-0.207,0.082-0.414,0.165-0.578,0.165
		c-0.207,0.041-0.373,0-0.537-0.083c-0.165-0.082-0.289-0.206-0.413-0.371c0,0,0,0-0.042,0.041c0,0-0.041,0.041-0.082,0.082
		c-0.042,0.042-0.083,0.083-0.124,0.124c-0.042,0.042-0.124,0.042-0.207,0.083c-0.082,0-0.165,0-0.248-0.041
		c-0.041,0-0.165,0-0.247-0.042c-0.083-0.041-0.166-0.082-0.248-0.165c-0.083-0.041-0.166-0.124-0.248-0.207
		c0-0.041,0-0.082-0.042-0.123c0-0.042-0.041-0.083-0.082-0.124c0-0.042-0.042-0.042-0.042-0.083c-0.041,0-0.041-0.041-0.041-0.041
		c-0.082-0.042-0.082-0.124-0.124-0.207c0-0.041-0.041-0.124-0.041-0.206c0-0.124,0-0.29,0-0.455
		c0.041-0.165,0.083-0.329,0.124-0.536c0-0.041,0-0.125,0.041-0.207c0-0.041,0.041-0.123,0.041-0.207
		c0.083-0.248,0.166-0.537,0.248-0.785c0.083-0.248,0.166-0.496,0.248-0.743c0.083-0.248,0.166-0.454,0.248-0.702
		c0.083-0.248,0.124-0.455,0.207-0.702c0.165-0.455,0.371-0.951,0.537-1.405c0.206-0.496,0.372-0.992,0.619-1.529
		c0-0.041,0-0.082,0.041-0.123c0,0,0-0.041,0-0.084c0-0.041,0-0.082,0.041-0.082c0-0.041,0.041-0.082,0.041-0.123
		c0.043-0.084,0.043-0.165,0.043-0.248s0-0.165,0-0.207c0-0.123-0.043-0.165-0.084-0.248c0-0.041-0.082-0.082-0.123-0.082
		c-0.166,0-0.248-0.041-0.33-0.124c-0.083-0.083-0.124-0.206-0.124-0.289s0-0.124,0-0.165c0-0.042,0.041-0.124,0.041-0.207
		c0,0,0.041-0.041,0.041-0.083c0-0.082,0-0.124,0.042-0.124c0.082-0.248,0.289-0.454,0.494-0.661
		c0.248-0.248,0.496-0.413,0.785-0.496c0.043,0,0.084-0.041,0.084-0.041c0.041-0.04,0.082-0.04,0.123-0.04
		c0.125-0.041,0.248-0.084,0.496-0.125c0.207-0.041,0.455-0.082,0.702-0.123c0.166-0.041,0.331-0.041,0.496-0.084
		c0.165-0.041,0.33-0.041,0.496-0.082c0.248-0.041,0.496-0.082,0.785-0.123c0.248-0.041,0.454-0.084,0.661-0.125
		c0.082,0,0.164,0,0.248,0c0.496-0.082,0.867-0.041,1.156,0.041c0.248,0.084,0.371,0.414,0.414,0.992c0,0.041,0,0.041,0,0.041
		c0,0.041,0,0.041,0,0.083c0,0.082,0,0.124,0,0.165c-0.043,0.083-0.043,0.124-0.043,0.165c-0.041,0.124-0.123,0.248-0.289,0.331
		c-0.123,0.082-0.371,0.124-0.701,0.165c-0.537,0.083-0.951,0.124-1.281,0.207c-0.331,0.041-0.62,0.124-0.826,0.165
		c-0.207,0.041-0.372,0.082-0.496,0.124C103.713,102.039,103.63,102.081,103.63,102.122L103.63,102.122z M103.672,108.196
		c0.041-0.084,0.082-0.124,0.123-0.207c0.042-0.041,0.125-0.123,0.166-0.165c0.082-0.165,0.206-0.372,0.289-0.537
		s0.165-0.33,0.207-0.454c0.041-0.083,0.041-0.166,0.041-0.207c0-0.082,0-0.124,0-0.207c0-0.041,0-0.123-0.041-0.165
		c-0.042-0.082-0.083-0.082-0.166-0.124c-0.082,0-0.165-0.041-0.248-0.041c-0.123,0-0.248,0-0.33,0c-0.124,0-0.207,0.041-0.33,0.083
		c-0.125,0-0.248,0.041-0.331,0.082c-0.164,0.042-0.289,0.083-0.453,0.165c-0.125,0.083-0.248,0.125-0.373,0.207
		c-0.041,0.041-0.082,0.041-0.123,0.083c-0.043,0-0.084,0.041-0.084,0.041c-0.082,0.165-0.123,0.331-0.164,0.496
		c-0.084,0.165-0.125,0.33-0.166,0.496c-0.041,0-0.041,0.041-0.041,0.082v0.042c-0.084,0.165-0.125,0.289-0.166,0.412
		c-0.041,0.125-0.082,0.289-0.164,0.414c-0.043,0.164-0.084,0.371-0.125,0.578s-0.082,0.412-0.166,0.66
		c0.043,0.041,0.084,0.084,0.166,0.084c0.041,0.041,0.125,0.041,0.207,0.041c0.207-0.041,0.455-0.166,0.785-0.373
		c0.289-0.205,0.619-0.494,0.908-0.826c0.083-0.082,0.207-0.207,0.29-0.33C103.465,108.403,103.589,108.319,103.672,108.196
		L103.672,108.196z"/>
	<path fill="#FFFFFF" d="M111.315,109.974c-0.33,0.33-0.701,0.537-1.073,0.743c-0.331,0.166-0.703,0.248-0.992,0.29
		c-0.661,0.082-1.239-0.124-1.694-0.538c-0.453-0.454-0.701-1.073-0.744-1.94c0-0.455,0-0.909,0.043-1.364
		c0.041-0.454,0.164-0.95,0.33-1.446c0.041-0.165,0.082-0.33,0.166-0.496c0.041-0.205,0.123-0.33,0.205-0.496
		c0.373-0.826,0.909-1.651,1.612-2.479c0.702-0.827,1.651-1.653,2.769-2.479c0.041,0,0.082-0.043,0.082-0.043
		c0.043,0,0.043-0.041,0.084-0.041c0.248-0.164,0.453-0.33,0.66-0.412c0.248-0.125,0.413-0.207,0.578-0.248h0.042
		c0.041,0,0.041,0,0.041,0c0.041,0,0.083,0.041,0.124,0.041h0.041c0.248,0.166,0.455,0.33,0.62,0.455
		c0.124,0.082,0.248,0.123,0.33,0.123c0.083,0,0.166-0.082,0.248-0.207c0.083-0.082,0.166-0.248,0.248-0.453l0,0
		c0-0.043,0-0.043,0-0.043c0-0.041,0.041-0.041,0-0.082c0-0.041,0-0.041,0-0.041c0.041-0.123,0.124-0.289,0.207-0.371
		c0.082-0.084,0.165-0.165,0.289-0.207c0,0,0.041,0,0.083-0.041c0.041,0,0.082,0,0.082,0c0.082-0.041,0.123-0.041,0.166,0
		c0.041,0,0.082,0,0.164,0c0.084,0,0.207,0.083,0.33,0.123c0.125,0.082,0.207,0.166,0.332,0.248
		c0.164,0.082,0.289,0.166,0.412,0.248c0.084,0.082,0.166,0.166,0.207,0.248c0.041,0.041,0.082,0.082,0.082,0.123
		c0,0.043,0,0.084,0.043,0.125c0,0.082,0,0.123,0,0.164c-0.043,0.084-0.043,0.125-0.084,0.166c0,0.125-0.041,0.248-0.123,0.414
		c-0.084,0.123-0.166,0.33-0.248,0.536c-0.082,0.124-0.207,0.289-0.289,0.496c-0.084,0.165-0.166,0.372-0.289,0.578
		c-0.125,0.331-0.289,0.661-0.414,0.992c-0.123,0.33-0.248,0.702-0.371,1.032c-0.042,0.248-0.124,0.496-0.207,0.785
		c-0.083,0.248-0.124,0.496-0.206,0.785c-0.166,0.743-0.29,1.446-0.372,2.148c-0.083,0.744-0.124,1.363-0.124,1.9
		c0,0.082,0,0.123,0,0.207c0,0.082,0,0.123,0,0.207c0,0.123,0,0.289,0,0.412c0,0.125-0.042,0.206-0.042,0.289
		c-0.041,0.124-0.124,0.248-0.206,0.331c-0.124,0.082-0.207,0.124-0.372,0.165c-0.041,0-0.124,0-0.331,0c-0.206,0-0.454,0-0.702,0
		c-0.248-0.041-0.496-0.083-0.701-0.165c-0.248-0.083-0.373-0.248-0.373-0.455c0-0.083,0-0.124,0-0.206c0-0.041,0-0.082,0-0.125
		c-0.041-0.123-0.041-0.205-0.082-0.246c-0.041-0.084-0.082-0.084-0.125-0.084c-0.041,0-0.123,0.041-0.205,0.084
		C111.481,109.808,111.399,109.892,111.315,109.974L111.315,109.974z M113.672,102.287c0-0.041,0.041-0.083,0.041-0.124
		s0.041-0.082,0.041-0.082s0-0.042,0-0.083c0,0,0-0.042,0-0.083v-0.041c-0.041-0.083-0.041-0.165-0.123-0.207
		c-0.042-0.041-0.124-0.082-0.248-0.082c-0.042,0.041-0.124,0.041-0.207,0.082c-0.082,0-0.207,0.042-0.288,0.124
		c-0.621,0.413-1.158,0.95-1.613,1.528c-0.453,0.578-0.825,1.199-1.114,1.818c-0.083,0.206-0.206,0.372-0.248,0.578
		c-0.083,0.165-0.124,0.331-0.206,0.537c-0.083,0.331-0.124,0.661-0.166,0.95c-0.082,0.29-0.082,0.538-0.124,0.744l0,0
		c0,0.041,0.042,0.041,0.042,0.041c0,0.042,0,0.042,0,0.042c0,0.041,0,0.041,0,0.041c0,0.082,0.041,0.207,0.165,0.248
		c0.083,0.041,0.206,0.041,0.331,0.041c0.041,0,0.082,0,0.123-0.041c0.042,0,0.083,0,0.124,0c0.042-0.041,0.124-0.041,0.124-0.084
		c0.042,0,0.083,0,0.124,0c0.042-0.041,0.042-0.041,0.083-0.041c0.041-0.041,0.041-0.041,0.041-0.041
		c0.123-0.041,0.289-0.123,0.412-0.247c0.125-0.083,0.289-0.207,0.414-0.331c0.166-0.165,0.371-0.33,0.496-0.537
		c0.166-0.206,0.33-0.413,0.412-0.702c0.125-0.289,0.207-0.62,0.291-0.909c0.082-0.33,0.164-0.66,0.289-0.992
		c0.041-0.205,0.123-0.412,0.164-0.578c0.083-0.207,0.124-0.371,0.207-0.537c0.082-0.207,0.124-0.371,0.206-0.536
		C113.548,102.618,113.589,102.452,113.672,102.287L113.672,102.287z"/>
	<path fill="#FFFFFF" d="M122.185,98.112v0.043c0,0,0,0,0,0.041v0.041c0,0,0,0,0,0.041c0,0.082,0,0.123,0.041,0.166
		c0.041,0,0.084,0.041,0.125,0.041c0.082-0.041,0.123-0.041,0.164-0.084c0.084,0,0.125-0.041,0.207-0.082c0,0,0,0.041,0,0
		c0.041,0,0.041,0,0.041,0c0.043,0,0.125-0.041,0.166-0.041c0.041-0.041,0.082-0.041,0.165-0.041
		c0.124-0.041,0.289-0.041,0.496-0.041c0.165,0,0.33,0,0.537,0.041c0.454,0.082,0.95,0.371,1.363,0.867
		c0.413,0.537,0.661,1.446,0.661,2.729c0,0.165,0.041,0.33,0,0.495c0,0.165,0,0.331-0.041,0.496
		c-0.043,0.165-0.084,0.331-0.125,0.495c-0.041,0.166-0.082,0.33-0.123,0.496c-0.248,0.785-0.62,1.487-1.033,2.189
		c-0.454,0.661-0.909,1.281-1.405,1.86c-0.37,0.413-0.743,0.825-1.114,1.155c-0.373,0.332-0.662,0.662-0.951,0.869
		c-0.248,0.207-0.496,0.371-0.661,0.453c-0.206,0.124-0.371,0.166-0.495,0.166c-0.083,0-0.166,0-0.207,0
		c-0.083-0.042-0.124-0.083-0.207-0.124c0-0.042-0.082-0.083-0.123-0.124c-0.042-0.042-0.083-0.083-0.125-0.164
		c-0.123-0.166-0.247-0.332-0.371-0.455c-0.124-0.166-0.248-0.207-0.331-0.207c-0.082,0-0.165,0.082-0.206,0.166
		c-0.083,0.123-0.166,0.33-0.248,0.577c-0.041,0.083-0.041,0.165-0.041,0.207c-0.083,0.248-0.207,0.537-0.371,0.95
		c-0.125,0.372-0.291,0.785-0.414,1.198c-0.166,0.454-0.33,0.825-0.496,1.239c-0.123,0.371-0.248,0.662-0.289,0.867
		c-0.166,0.496-0.33,0.826-0.455,1.033c-0.164,0.207-0.289,0.289-0.412,0.289c-0.041,0-0.041,0-0.084,0
		c-0.041,0-0.041,0-0.081-0.041c-0.042,0-0.124-0.041-0.166-0.083c-0.041-0.041-0.124-0.082-0.165-0.124
		c-0.041-0.041-0.041-0.082-0.083-0.124c-0.041-0.041-0.082-0.082-0.165-0.124c0-0.041-0.083-0.082-0.124-0.123
		c-0.041-0.042-0.082-0.083-0.124-0.166c-0.041,0-0.082,0-0.124-0.041c-0.041-0.041-0.082-0.083-0.124-0.124
		c-0.082,0-0.124-0.04-0.165-0.083c-0.082-0.041-0.124-0.041-0.165-0.082c-0.083-0.082-0.165-0.123-0.207-0.207
		c-0.082-0.082-0.124-0.164-0.124-0.289c0-0.041,0-0.123,0-0.207c0.042-0.041,0.042-0.123,0.083-0.248
		c0.041-0.082,0.083-0.205,0.124-0.33c0.082-0.164,0.165-0.33,0.248-0.496c0.289-0.619,0.578-1.238,0.867-1.899
		c0.29-0.661,0.62-1.321,0.909-2.065c0.414-0.869,0.785-1.776,1.156-2.729c0.373-0.95,0.744-1.859,1.116-2.852
		c0.041-0.082,0.041-0.166,0.082-0.248c0.042-0.082,0.042-0.166,0.083-0.207c0-0.041,0-0.082,0-0.082c0-0.041,0-0.041,0-0.082
		v-0.043c0,0,0,0,0-0.041c-0.041-0.04-0.041-0.04-0.041-0.123c-0.042-0.041-0.083-0.082-0.083-0.124
		c-0.206-0.33-0.331-0.62-0.413-0.909c-0.124-0.248-0.164-0.496-0.207-0.702c0-0.083,0-0.124,0-0.207
		c0.043-0.041,0.043-0.124,0.043-0.206c0.04-0.165,0.164-0.29,0.288-0.413c0.165-0.166,0.33-0.29,0.578-0.372
		c0.042,0,0.042-0.041,0.083-0.041c0.041-0.041,0.082-0.041,0.124-0.082c0.124-0.041,0.248-0.125,0.33-0.207
		c0.083-0.082,0.165-0.248,0.207-0.414c0.041-0.164,0.083-0.33,0.124-0.578c0.041-0.207,0.082-0.496,0.124-0.784
		c0-0.042,0-0.083,0-0.124c0-0.042,0-0.042,0-0.083s0-0.041,0-0.082c0-0.042,0-0.042,0-0.083c0.041-0.083,0.124-0.165,0.206-0.248
		c0.083-0.083,0.166-0.083,0.248-0.124c0.083,0,0.166,0,0.248,0c0.083,0,0.207,0.041,0.33,0.041
		c0.166,0.042,0.371,0.042,0.496,0.083c0.166,0.041,0.289,0.041,0.371,0.083c0.166,0.041,0.289,0.123,0.332,0.165
		c0.082,0.083,0.123,0.206,0.123,0.33c0,0.042,0,0.124,0,0.207C122.185,97.905,122.185,97.989,122.185,98.112L122.185,98.112z
		 M120.614,107.039c0.371-0.248,0.744-0.537,1.033-0.826c0.33-0.289,0.578-0.578,0.826-0.868c0.371-0.412,0.619-0.826,0.867-1.197
		c0.206-0.371,0.371-0.744,0.454-1.115c0-0.042,0.041-0.083,0.041-0.124c0-0.042,0.042-0.083,0.042-0.124
		c0.041-0.165,0.082-0.372,0.082-0.537c0.042-0.165,0.042-0.331,0.042-0.455c0.041-0.372-0.083-0.62-0.248-0.743
		c-0.207-0.124-0.455-0.166-0.702-0.166c-0.125,0.042-0.248,0.042-0.371,0.083c-0.125,0.041-0.248,0.083-0.373,0.124
		c-0.123,0.041-0.248,0.082-0.371,0.165c-0.125,0.042-0.248,0.124-0.373,0.165c-0.041,0.042-0.082,0.042-0.123,0.083
		c-0.041,0-0.082,0.041-0.082,0.083c-0.043,0.165-0.084,0.33-0.125,0.496c-0.082,0.165-0.123,0.33-0.166,0.495
		c-0.041,0.042-0.082,0.124-0.082,0.207c0,0.082-0.041,0.165-0.082,0.248c-0.041,0.124-0.084,0.248-0.125,0.371
		c-0.041,0.125-0.082,0.248-0.123,0.373c-0.125,0.494-0.289,0.949-0.454,1.363c-0.166,0.453-0.29,0.825-0.372,1.197
		c-0.042,0.041-0.042,0.124-0.083,0.165c-0.041,0.207-0.082,0.413-0.124,0.537c-0.041,0.165-0.041,0.29-0.041,0.372
		c0,0.041,0.041,0.041,0.041,0.083c0.042,0.041,0.042,0.041,0.083,0.041c0.082,0,0.165-0.041,0.33-0.124
		C120.201,107.329,120.366,107.204,120.614,107.039L120.614,107.039z"/>
	<path fill="#FFFFFF" d="M131.151,98.981c-0.125,0.248-0.248,0.494-0.33,0.785c-0.084,0.289-0.207,0.577-0.29,0.866
		c-0.082,0.124-0.124,0.29-0.165,0.455s-0.083,0.289-0.124,0.454c0.083-0.041,0.165-0.041,0.289-0.082
		c0.124,0,0.247-0.042,0.372-0.042c0.166-0.041,0.33-0.082,0.537-0.123c0.166-0.042,0.33-0.042,0.496-0.042
		c0.248-0.041,0.455-0.041,0.66,0c0.207,0,0.373,0.042,0.496,0.124c0.207,0.124,0.413,0.331,0.578,0.661
		c0.166,0.289,0.248,0.661,0.289,1.074c0,0.207,0,0.455-0.041,0.703c-0.041,0.289-0.082,0.537-0.206,0.826c0,0.041,0,0.041,0,0.082
		c-0.042,0.041-0.042,0.041-0.042,0.125c-0.041,0.041-0.041,0.082-0.041,0.164c-0.041,0.041-0.082,0.082-0.082,0.165
		c-0.372,0.702-0.785,1.364-1.24,1.942c-0.496,0.578-1.033,1.115-1.57,1.57c-0.164,0.123-0.33,0.289-0.495,0.412
		c-0.165,0.125-0.33,0.248-0.496,0.373c-0.206,0.123-0.413,0.248-0.619,0.33c-0.248,0.082-0.414,0.164-0.579,0.164
		c-0.247,0-0.413-0.041-0.537-0.164c-0.164-0.125-0.289-0.248-0.412-0.455c0,0,0,0-0.041,0.041c0,0.041-0.043,0.084-0.084,0.125
		c-0.041,0-0.082,0.041-0.123,0.082c-0.082,0.041-0.125,0.041-0.207,0.041s-0.166,0-0.248,0c-0.082-0.041-0.166-0.082-0.248-0.123
		c-0.123-0.041-0.207-0.084-0.289-0.166c-0.041-0.082-0.123-0.164-0.166-0.248c-0.041-0.041-0.041-0.082-0.082-0.164
		c0-0.043-0.041-0.084-0.082-0.125c0-0.041,0-0.041-0.041-0.082c0-0.041-0.043-0.041-0.043-0.084
		c-0.041-0.041-0.082-0.123-0.082-0.164c-0.041-0.082-0.041-0.207-0.041-0.289c-0.041-0.125,0-0.289,0-0.454
		c0.041-0.207,0.082-0.372,0.123-0.579c0.043-0.041,0.043-0.124,0.043-0.206c0.041-0.083,0.082-0.166,0.082-0.248
		c0.123-0.248,0.166-0.537,0.289-0.827c0.082-0.247,0.166-0.495,0.248-0.742c0.082-0.289,0.166-0.537,0.289-0.785
		c0.082-0.248,0.166-0.496,0.248-0.744c0.166-0.496,0.371-0.991,0.578-1.487s0.413-1.074,0.661-1.653c0-0.041,0-0.082,0.041-0.124
		c0,0,0-0.041,0.042-0.083c0-0.041,0-0.082,0-0.082c0.041-0.041,0.041-0.082,0.041-0.123c0.041-0.084,0.083-0.166,0.083-0.289
		c0-0.084,0-0.166,0-0.248c0-0.084-0.042-0.166-0.042-0.207c-0.041-0.082-0.124-0.125-0.165-0.125
		c-0.165-0.041-0.248-0.082-0.329-0.164c-0.084-0.084-0.084-0.207-0.125-0.33c0-0.043,0-0.125,0.041-0.166c0-0.041,0-0.125,0-0.207
		c0.041-0.041,0.041-0.082,0.041-0.123c0.043-0.041,0.043-0.084,0.083-0.125c0.082-0.247,0.289-0.454,0.537-0.701
		c0.207-0.248,0.496-0.414,0.785-0.496c0.041-0.041,0.041-0.041,0.082-0.083c0,0,0.042,0,0.083,0
		c0.124-0.041,0.289-0.083,0.496-0.124c0.206-0.041,0.453-0.082,0.744-0.124c0.164-0.041,0.289-0.041,0.496-0.082
		c0.164-0.042,0.33-0.042,0.494-0.083c0.248-0.041,0.496-0.083,0.744-0.124c0.289-0.041,0.496-0.041,0.702-0.082
		c0.083,0,0.165,0,0.248,0c0.496-0.042,0.868,0,1.116,0.123c0.289,0.083,0.413,0.496,0.413,1.157v0.041
		c0.041,0.042,0,0.042,0.041,0.083c-0.041,0.083-0.041,0.124-0.041,0.207c-0.042,0.082-0.042,0.124-0.042,0.165
		c-0.041,0.164-0.123,0.248-0.289,0.33c-0.165,0.082-0.372,0.166-0.744,0.166c-0.495,0.041-0.908,0.082-1.238,0.123
		s-0.621,0.125-0.867,0.166c-0.207,0.041-0.373,0.082-0.496,0.123C131.274,98.897,131.192,98.938,131.151,98.981L131.151,98.981z
		 M130.985,105.676c0.041-0.041,0.084-0.124,0.125-0.165c0.082-0.083,0.123-0.123,0.164-0.207c0.125-0.207,0.248-0.371,0.332-0.578
		c0.123-0.166,0.164-0.33,0.205-0.455c0.043-0.123,0.084-0.205,0.084-0.248c0-0.082,0-0.164,0-0.205c0-0.084,0-0.166-0.041-0.248
		c-0.043-0.041-0.084-0.084-0.166-0.084c-0.082-0.041-0.166-0.082-0.248-0.082c-0.123-0.041-0.207-0.041-0.33-0.041
		c-0.125,0-0.207,0.041-0.332,0.041c-0.123,0.041-0.248,0.041-0.33,0.082c-0.165,0.043-0.33,0.125-0.454,0.166
		c-0.124,0.082-0.248,0.125-0.413,0.207c0,0.041-0.041,0.041-0.083,0.082c-0.041,0-0.082,0.041-0.123,0.041
		c-0.042,0.207-0.124,0.373-0.166,0.537c-0.082,0.207-0.165,0.373-0.206,0.537l-0.042,0.041c0,0.043,0,0.084,0,0.084
		c-0.041,0.164-0.123,0.288-0.165,0.454c-0.041,0.123-0.124,0.289-0.165,0.454s-0.083,0.372-0.165,0.578
		c-0.042,0.248-0.083,0.455-0.165,0.703c0.041,0.041,0.082,0.124,0.123,0.124c0.083,0.041,0.166,0.082,0.248,0.041
		c0.207,0,0.455-0.083,0.785-0.331c0.289-0.206,0.62-0.454,0.95-0.826c0.083-0.082,0.166-0.206,0.289-0.33
		C130.778,105.924,130.903,105.8,130.985,105.676L130.985,105.676z"/>
	<path fill="#FFFFFF" d="M141.233,106.626c0,0.041,0,0.083-0.041,0.165c0,0.042,0,0.083,0,0.124
		c-0.041,0.083-0.041,0.166-0.041,0.248c-0.041,0.083-0.041,0.166-0.041,0.207c-0.166,0.454-0.414,0.826-0.785,1.115
		c-0.372,0.289-0.785,0.537-1.198,0.703c-0.33,0.123-0.702,0.205-1.033,0.246c-0.329,0.084-0.577,0.084-0.784,0.084
		c-0.992,0-1.695-0.33-2.19-0.992c-0.495-0.66-0.743-1.611-0.743-2.77c0-0.289,0-0.578,0.041-0.908
		c0.041-0.289,0.083-0.578,0.165-0.908c0.042-0.125,0.042-0.291,0.083-0.414c0.041-0.166,0.082-0.33,0.124-0.495
		c0,0,0,0,0.041-0.042c0,0,0,0,0-0.041c0.455-1.487,1.239-2.893,2.272-4.215c1.032-1.322,2.148-2.19,3.389-2.521
		c0.123-0.041,0.248-0.041,0.371-0.083c0.125-0.041,0.248-0.041,0.414-0.041c0.496-0.042,0.951,0.165,1.404,0.661
		c0.454,0.454,0.744,0.95,0.868,1.529c0.041,0.082,0.082,0.205,0.082,0.289c0,0.082,0,0.164,0,0.248c0,0.33-0.041,0.619-0.082,0.949
		c-0.042,0.289-0.083,0.62-0.166,0.867c-0.206,0.703-0.537,1.281-0.95,1.777c-0.412,0.496-0.826,0.867-1.281,1.156
		c-0.578,0.414-1.114,0.703-1.651,0.867c-0.496,0.166-0.827,0.248-0.992,0.248c0,0-0.041,0-0.082,0
		c-0.042,0-0.083-0.041-0.083-0.041c-0.124-0.041-0.248-0.164-0.372-0.289c-0.124-0.123-0.206-0.248-0.288-0.412
		c-0.041-0.125-0.084-0.248-0.125-0.332c-0.041-0.082-0.082-0.123-0.164-0.164c0-0.043,0-0.043-0.043-0.043
		c-0.041,0-0.041,0-0.082,0h-0.041c0,0-0.041,0.043,0,0.043c-0.041,0-0.041,0.041-0.082,0.082c0,0-0.041,0.041-0.041,0.082
		c0,0.084-0.043,0.125-0.043,0.207c-0.041,0.082-0.041,0.166-0.041,0.248c-0.041,0.082-0.041,0.166-0.041,0.289
		c-0.041,0.125-0.041,0.248-0.082,0.33c0,0.207-0.041,0.373-0.041,0.537c0,0.124,0,0.29,0,0.372c0,0.455,0.123,0.744,0.289,0.909
		c0.164,0.124,0.371,0.207,0.619,0.207c0.206,0,0.371-0.042,0.578-0.083c0.248-0.082,0.455-0.124,0.661-0.207
		c0.083,0,0.124-0.082,0.165-0.082c0.083-0.041,0.166-0.041,0.207-0.083c0.041,0,0.124,0,0.165-0.041
		c0.041,0,0.083-0.041,0.165-0.083c0.166-0.041,0.372-0.082,0.537-0.165c0.123-0.041,0.289-0.041,0.414-0.041
		c0.164,0,0.33,0.041,0.412,0.124C141.192,106.172,141.233,106.337,141.233,106.626L141.233,106.626z M139.912,101.585
		c0.082-0.083,0.207-0.166,0.289-0.248c0.124-0.083,0.165-0.207,0.289-0.289c0.083-0.083,0.124-0.166,0.206-0.29
		c0.041-0.082,0.084-0.165,0.125-0.248c0.041-0.082,0.123-0.165,0.164-0.288c0.041-0.082,0.084-0.166,0.166-0.289
		c0-0.084,0.041-0.166,0.082-0.248s0.084-0.166,0.084-0.289c0.041-0.041,0.041-0.125,0.041-0.166c0-0.082,0-0.123,0-0.164
		c0-0.207-0.084-0.373-0.166-0.455c-0.123-0.125-0.248-0.166-0.455-0.166c-0.082,0-0.164,0.041-0.288,0.082
		c-0.083,0-0.207,0.084-0.33,0.166c-0.042,0.041-0.125,0.082-0.166,0.125c-0.082,0.082-0.124,0.123-0.206,0.164
		c-0.496,0.662-0.909,1.24-1.24,1.776c-0.33,0.496-0.537,0.909-0.619,1.24c-0.041,0.041-0.041,0.124-0.041,0.165
		c-0.041,0.041-0.041,0.124-0.041,0.165c0,0.083,0.041,0.165,0.082,0.207c0.041,0.041,0.125,0.041,0.206,0.041
		c0.165,0,0.413-0.083,0.703-0.248C139.127,102.163,139.499,101.915,139.912,101.585L139.912,101.585z"/>
	<path fill="#FFFFFF" d="M148.383,97.287c-0.041,0.165-0.082,0.289-0.123,0.454c-0.042,0.166-0.083,0.29-0.166,0.455
		c0,0.123-0.04,0.205-0.081,0.33c-0.043,0.082-0.084,0.207-0.084,0.289c-0.082,0.248-0.123,0.455-0.205,0.744
		c-0.084,0.248-0.125,0.496-0.207,0.784c-0.041,0.083-0.041,0.124-0.041,0.165c-0.043,0.042-0.043,0.124-0.043,0.166
		c0,0.041,0,0.041,0.043,0.082c0,0.042,0.041,0.042,0.041,0.042c0.041,0,0.082,0,0.123,0c0-0.042,0.041-0.042,0.084-0.083
		l0.041-0.041c0.041,0,0.041,0,0.082,0c0.082-0.083,0.207-0.166,0.33-0.289c0.124-0.083,0.248-0.166,0.331-0.248
		c0.702-0.537,1.363-1.199,1.983-1.9c0.66-0.702,1.238-1.487,1.775-2.272c0.041-0.042,0.084-0.083,0.125-0.124
		s0.082-0.042,0.123-0.083c0.041,0,0.084-0.041,0.084-0.041c0.041,0,0.082,0,0.123,0c0,0,0,0,0.041,0c0,0,0,0,0.041,0
		c0,0,0,0.041,0.043,0.041l0,0c0.164,0.248,0.329,0.537,0.371,0.744c0.082,0.206,0.165,0.454,0.165,0.661c0,0.124,0,0.207,0,0.33
		c-0.042,0.124-0.042,0.207-0.083,0.331c0,0.083-0.041,0.165-0.082,0.248c0,0.041-0.042,0.124-0.083,0.206
		c-0.248,0.537-0.62,1.074-1.073,1.57c-0.414,0.495-0.869,0.95-1.365,1.363c-0.041,0.041-0.123,0.083-0.123,0.083
		c-0.041,0.041-0.082,0.082-0.165,0.123c-0.041,0.042-0.083,0.083-0.124,0.124c-0.083,0.042-0.124,0.083-0.165,0.124
		c-0.207,0.166-0.414,0.289-0.62,0.414c-0.206,0.123-0.372,0.247-0.537,0.289c0.083,0.33,0.206,0.661,0.289,1.032
		c0.083,0.33,0.165,0.703,0.289,1.074c0.165,0.662,0.372,1.322,0.579,1.941c0.206,0.62,0.413,1.157,0.618,1.652
		c0.043,0.084,0.084,0.125,0.084,0.166c0.041,0.082,0.041,0.123,0.082,0.207c0.125,0.205,0.207,0.371,0.248,0.496
		c0.041,0.123,0.082,0.248,0.082,0.371v0.041c0,0,0,0,0,0.041v0.041l0,0c-0.041,0.084-0.082,0.125-0.123,0.166
		s-0.082,0.082-0.125,0.125c-0.041,0-0.082,0.041-0.123,0.041s-0.125,0.041-0.166,0.082c-0.081,0-0.164,0.041-0.288,0.082
		c-0.083,0.041-0.207,0.041-0.331,0.084c-0.124,0.041-0.289,0.123-0.454,0.164s-0.33,0.083-0.496,0.124c-0.041,0-0.041,0-0.082,0
		c-0.042,0-0.042,0-0.083,0s-0.083,0.041-0.083,0.041c-0.041-0.041-0.041-0.041-0.082-0.041c-0.042,0-0.042,0-0.083-0.041
		c-0.083,0-0.165-0.083-0.289-0.165c-0.083-0.041-0.164-0.166-0.207-0.33c-0.248-0.496-0.453-1.158-0.66-1.9
		c-0.207-0.785-0.373-1.529-0.496-2.314c-0.041-0.289-0.082-0.619-0.125-0.949c-0.082-0.289-0.123-0.621-0.164-0.91
		c0-0.164,0-0.33-0.041-0.412c-0.043-0.124-0.084-0.166-0.125-0.207c0-0.041,0-0.041,0-0.083c-0.041,0-0.041,0-0.082,0
		c0,0,0,0-0.041,0.042l-0.041,0.041c-0.043,0.041-0.043,0.083-0.084,0.123c0,0.041-0.041,0.084-0.041,0.166c0,0,0,0.041-0.041,0.082
		c0,0,0,0.041-0.041,0.041v0.043c0,0,0,0,0,0.041s0,0.082,0,0.123c-0.041,0-0.041,0.041-0.041,0.041
		c-0.289,0.869-0.62,1.735-0.909,2.604c-0.289,0.826-0.579,1.652-0.827,2.396c0,0.084,0,0.125-0.041,0.166
		c0,0.041-0.041,0.082-0.082,0.166c-0.042,0.082-0.124,0.205-0.248,0.289c-0.083,0.082-0.207,0.123-0.372,0.123
		c-0.083,0-0.206-0.041-0.372-0.123c-0.123-0.084-0.289-0.166-0.496-0.332c-0.041-0.041-0.082-0.082-0.123-0.123
		s-0.041-0.082-0.082-0.166c-0.166-0.205-0.289-0.371-0.332-0.577c-0.082-0.207-0.082-0.372-0.123-0.496c0-0.041,0-0.083,0-0.124
		l0.041-0.041v-0.042l0,0c0.082-0.206,0.125-0.413,0.207-0.619c0.082-0.166,0.123-0.372,0.207-0.579
		c0.33-0.909,0.66-1.775,0.99-2.521c0.289-0.743,0.537-1.321,0.703-1.776c0.413-1.115,0.702-1.983,0.95-2.603
		c0.248-0.621,0.454-1.199,0.661-1.736c0-0.041,0.041-0.124,0.041-0.206c0.042-0.083,0.083-0.166,0.083-0.207
		c0.081-0.206,0.124-0.371,0.165-0.578c0.082-0.207,0.123-0.413,0.207-0.62c0.041-0.083,0.082-0.207,0.205-0.248
		c0.084-0.083,0.207-0.124,0.373-0.124c0.041,0,0.082,0,0.123,0c0.084,0.041,0.125,0.041,0.207,0.083
		c0.041,0,0.082,0.041,0.125,0.041c0.041,0.042,0.082,0.042,0.123,0.083c0.371,0.331,0.619,0.537,0.703,0.702
		c0.123,0.165,0.206,0.29,0.206,0.372c0,0.041,0,0.041,0,0.041c0,0.042-0.042,0.042-0.042,0.042v0.041c0,0,0,0,0,0.041
		C148.425,97.163,148.425,97.204,148.383,97.287L148.383,97.287z"/>
	<path fill="#FFFFFF" d="M156.358,103.196c-0.207,0.619-0.455,1.238-0.662,1.859c-0.205,0.578-0.371,1.115-0.536,1.569
		c-0.124,0.413-0.248,0.744-0.33,1.074c-0.083,0.288-0.166,0.536-0.207,0.743c-0.041,0.084-0.041,0.166-0.041,0.248
		c-0.041,0.084-0.083,0.166-0.083,0.207c0,0.082,0,0.166-0.041,0.207c-0.042,0.082-0.042,0.123-0.083,0.207
		c-0.082,0.289-0.165,0.537-0.33,0.619c-0.124,0.123-0.248,0.207-0.372,0.166c-0.124,0-0.248-0.043-0.412-0.166
		c-0.166-0.082-0.332-0.207-0.537-0.289c-0.125-0.166-0.248-0.33-0.332-0.414c-0.123-0.164-0.207-0.248-0.289-0.371
		c-0.041-0.082-0.082-0.166-0.082-0.248c-0.041-0.082-0.041-0.207-0.041-0.289c0-0.125,0-0.207,0-0.332
		c0.041-0.081,0.082-0.205,0.123-0.329c0-0.083,0.041-0.165,0.082-0.248c0.043-0.082,0.084-0.165,0.084-0.248
		c0.289-0.702,0.537-1.405,0.785-2.024c0.207-0.66,0.454-1.281,0.702-1.9c-0.166-0.206-0.29-0.372-0.331-0.537
		c-0.083-0.165-0.123-0.33-0.123-0.454c0-0.042,0-0.083,0-0.124s0-0.041,0-0.083c0.04-0.041,0.04-0.083,0.04-0.124
		c0.042-0.041,0.042-0.082,0.083-0.124c0.124-0.082,0.248-0.206,0.413-0.33c0.165-0.083,0.413-0.207,0.661-0.248
		c0.124-0.372,0.248-0.744,0.372-1.157c0.124-0.371,0.248-0.744,0.372-1.156c0.165-0.662,0.372-1.363,0.578-2.065v-0.042
		c0,0,0,0,0-0.041c0-0.042,0-0.083,0-0.124c0.041-0.083,0.041-0.124,0.041-0.165V96.42v-0.041c0-0.041,0.041-0.041,0.041-0.083
		c0-0.041,0-0.082,0.041-0.082c0.043-0.124,0.125-0.207,0.207-0.331c0.125-0.083,0.207-0.125,0.373-0.125
		c0.082,0,0.205,0.042,0.289,0.083c0.123,0.042,0.205,0.083,0.33,0.165c0.123,0.083,0.248,0.166,0.371,0.248
		c0.084,0.041,0.166,0.124,0.248,0.165c0.125,0.124,0.248,0.207,0.289,0.331c0.043,0.083,0.083,0.248,0.124,0.454
		c0,0.041,0,0.083,0,0.124c0,0.083,0,0.165,0,0.207c-0.041,0.165-0.124,0.372-0.165,0.661s-0.123,0.66-0.248,1.074
		c-0.082,0.248-0.164,0.537-0.289,0.826c-0.123,0.33-0.248,0.66-0.412,1.032c0.371-0.082,0.785-0.082,1.197-0.041
		c0.413,0,0.867,0.082,1.322,0.124c0.413-0.785,0.909-1.529,1.486-2.23c0.537-0.703,1.199-1.322,1.943-1.818
		c0.247-0.165,0.536-0.289,0.743-0.372c0.206-0.083,0.371-0.124,0.537-0.083c0.206,0.042,0.372,0.166,0.537,0.455
		s0.289,0.744,0.413,1.322c0.041,0.207,0.124,0.371,0.165,0.496c0.042,0.123,0.083,0.248,0.124,0.33
		c0.042,0.164,0.123,0.289,0.207,0.33c0.082,0.041,0.205,0.125,0.412,0.125c0.414,0.082,0.744,0.371,0.91,0.866
		c0.207,0.496,0.289,0.992,0.33,1.57c0,0.083,0,0.166-0.041,0.248c0,0.124,0,0.207,0,0.289c0,0.29-0.041,0.62-0.125,0.991
		c-0.082,0.373-0.164,0.744-0.289,1.117c-0.082,0.246-0.164,0.536-0.289,0.784c-0.123,0.247-0.207,0.537-0.371,0.784
		c-0.537,1.157-1.239,2.148-2.107,3.059c-0.868,0.95-1.777,1.446-2.729,1.57c-0.082,0-0.205,0-0.33,0c-0.166,0-0.248,0-0.371,0
		c-0.124-0.041-0.207-0.041-0.29-0.083c-0.123-0.041-0.206-0.082-0.289-0.124c-0.248-0.165-0.496-0.372-0.702-0.702
		c-0.248-0.288-0.413-0.62-0.62-0.991c-0.124-0.248-0.206-0.578-0.33-1.033c-0.083-0.413-0.166-0.867-0.207-1.322
		c0-0.082,0-0.165,0-0.247c0-0.083,0-0.125,0-0.207c0-0.041,0-0.124,0-0.165c0-0.042,0-0.124,0-0.166c0-0.041,0-0.082,0-0.124
		c0-0.041,0-0.124,0.041-0.165c0-0.413,0.042-0.785,0.125-1.238c0.082-0.455,0.165-0.869,0.289-1.365c-0.124,0-0.289,0-0.414,0
		c-0.123,0-0.247,0-0.37,0c-0.248-0.041-0.455,0-0.703,0C156.979,103.112,156.688,103.155,156.358,103.196L156.358,103.196z
		 M162.931,101.254c-0.084,0.124-0.166,0.248-0.248,0.413c-0.084,0.124-0.166,0.248-0.248,0.414
		c-0.166,0.289-0.291,0.578-0.455,0.908c-0.166,0.33-0.33,0.619-0.496,0.951c-0.082,0.205-0.166,0.412-0.289,0.619
		c-0.082,0.207-0.125,0.412-0.207,0.619c-0.123,0.331-0.206,0.661-0.247,0.95c-0.042,0.331-0.083,0.62-0.042,0.909
		c0,0.042,0,0.042,0,0.083h-0.041c0,0.041,0.041,0.041,0.041,0.082v0.042c0,0.041,0,0.124,0,0.165s0,0.083,0,0.124
		c0,0.289,0.042,0.453,0.123,0.619c0.043,0.125,0.166,0.207,0.332,0.207c0.082,0.041,0.164,0.041,0.289,0
		c0.082,0,0.207-0.041,0.33-0.082c0.166-0.084,0.371-0.248,0.619-0.537c0.291-0.29,0.58-0.661,0.868-1.116
		c0.207-0.33,0.372-0.702,0.578-1.115c0.166-0.413,0.372-0.827,0.496-1.323c0.124-0.33,0.207-0.701,0.289-1.073
		c0.124-0.413,0.166-0.826,0.207-1.239c0-0.083,0.041-0.207,0.041-0.289c0-0.083,0-0.207,0-0.289c0-0.083,0-0.166,0-0.207
		c0-0.083,0-0.165-0.041-0.248c0-0.165-0.041-0.331-0.124-0.496c-0.083-0.164-0.165-0.248-0.331-0.289
		c-0.123,0-0.33,0.084-0.537,0.207C163.59,100.428,163.301,100.758,162.931,101.254L162.931,101.254z"/>
</g>
</svg>
