<?xml version="1.0" encoding="utf-8"?>
<!-- Generator: Adobe Illustrator 16.0.0, SVG Export Plug-In . SVG Version: 6.00 Build 0)  -->
<!DOCTYPE svg PUBLIC "-//W3C//DTD SVG 1.1//EN" "http://www.w3.org/Graphics/SVG/1.1/DTD/svg11.dtd">
<svg version="1.1" id="Layer_1" xmlns="http://www.w3.org/2000/svg" xmlns:xlink="http://www.w3.org/1999/xlink" x="0px" y="0px"
	 width="175.748px" height="175.748px" viewBox="8.504 8.504 175.748 175.748" enable-background="new 8.504 8.504 175.748 175.748"
	 xml:space="preserve">
<g>
	<polygon fill="#387C2C" points="184.252,184.252 8.504,184.252 8.504,8.504 184.252,8.504 	"/>
	<path fill="#FAA85F" d="M166.624,80.547c3.816,22.488-22.02,45.626-57.706,51.685c-35.686,6.06-67.712-7.26-71.529-29.744
		c-3.817-22.486,22.02-45.627,57.706-51.685C130.782,44.746,162.808,58.062,166.624,80.547L166.624,80.547z"/>
	<path fill="#00652E" d="M104.772,140.035c28.021,2.08,52.024-9.749,55.719-26.832c0.486,2.583,0.533,5.196,0.092,7.798
		c-3.107,18.312-29.189,29.159-58.252,24.227c-22.476-3.815-40.149-15.951-45.572-29.726
		C63.913,128.343,82.426,138.376,104.772,140.035L104.772,140.035z"/>
	<path fill="#00652E" d="M100.367,57.941c28.237,0.277,52.315,10.626,61.333,24.835c-5.881-15.373-28.562-28.731-56.893-32.013
		C70.406,46.78,40.711,59.165,38.48,78.43c-0.178,1.523-0.175,3.045-0.007,4.557C46.573,68.208,71.191,57.655,100.367,57.941
		L100.367,57.941z"/>
	<path fill="#00652E" d="M170.875,98.74c-0.481-1.038-1.351-1.763-2.34-2.288c0.479-0.277,0.961-0.555,1.343-0.993l3.725-4.27
		c0.826-0.947,1.275-2.158,1.275-3.405c0-0.158-0.007-0.316-0.021-0.475c-0.129-1.41-0.83-2.705-1.938-3.586
		c-1.039-0.823-2.149-1.491-3.3-1.984c-3.557-1.53-7.584-1.568-11.371-0.127c-0.041-0.133-0.074-0.269-0.119-0.399
		c-0.986-3.548-4.225-6.026-7.91-6.026c-3.255,0-6.066,1.908-7.398,4.661c-2.869-0.822-5.9-0.716-8.762,0.255
		c-0.58-0.164-1.177-0.284-1.787-0.235l-9.187,0.713c-1.097,0.084-2.119,0.524-2.944,1.226c-2.589-1.951-5.648-3.232-8.983-3.609
		c-4.876-0.55-9.748,0.89-13.718,4.054c-0.59,0.47-1.146,0.979-1.679,1.511c-0.667-0.301-1.39-0.471-2.135-0.471h-2.833H75.701
		c-1.219-5.116-5.817-8.937-11.301-8.937c-3.534,0-6.699,1.591-8.834,4.087c-0.031-0.001-0.062-0.011-0.096-0.012l-14.48-0.159
		c-1.169-0.013-2.254,0.449-3.171,1.155c-0.153-0.264-0.256-0.552-0.456-0.788c-0.986-1.165-2.432-1.839-3.957-1.839H23.061
		c-1.384,0-2.708,0.552-3.68,1.533c-0.974,0.982-1.516,2.311-1.503,3.692c0.097,11.399,2.449,19.038,7.189,23.355
		c3.955,3.603,8.396,3.897,11.331,3.767c0.052,2.136,0.109,4.371,0.109,4.371c0.069,2.773,2.313,5,5.088,5.051l8.9,0.158
		c1.315,0.022,2.534-0.453,3.47-1.262c0.072-0.008,0.146-0.008,0.218-0.02l9.768-1.457c1.041-0.154,1.981-0.62,2.728-1.303
		c0.494,2.348,2.573,4.109,5.067,4.109h8.299c0.962,0,1.815-0.334,2.589-0.791c0.37,0.107,0.719,0.262,1.12,0.283l8.799,0.5
		c1.394,0.079,2.762-0.409,3.793-1.354c0.453-0.414,0.807-0.912,1.084-1.447c2.643,2.019,5.733,3.303,9.043,3.677
		c5.453,0.614,10.731-1.233,14.746-4.909l0.442,4.359c0.284,2.801,2.751,4.861,5.556,4.644l7.706-0.599
		c2.712-0.21,4.782-2.477,4.782-5.161c0-0.099-0.004-0.197-0.01-0.296c0,0-0.107-1.91-0.204-3.656
		c1.597-0.281,3.182-0.73,4.684-1.535c1.765-0.945,3.347-2.229,4.708-3.744c1.622,2.555,3.913,4.539,6.653,5.719
		c5.627,2.424,12.176,1.104,17.087-3.44c1.084-1.005,1.661-2.394,1.661-3.806c0-0.734-0.157-1.479-0.479-2.178L170.875,98.74
		L170.875,98.74z"/>
	<path fill="#00652E" d="M157.995,80.749c0.059,0.149,0.08,0.311,0.132,0.463c0.004,0.021,0.021,0.037,0.024,0.057
		C158.106,81.097,158.06,80.916,157.995,80.749L157.995,80.749z"/>
	
		<path fill="#FFCB05" stroke="#FFFFFF" stroke-width="1.1273" stroke-linecap="round" stroke-linejoin="round" stroke-miterlimit="2.6131" d="
		M64.4,79.537c-3.56,0-6.445,2.886-6.445,6.445c0,3.558,2.885,6.444,6.445,6.444c3.559,0,6.445-2.886,6.445-6.444
		C70.845,82.423,67.959,79.537,64.4,79.537L64.4,79.537z"/>
	
		<polygon fill="#FFCB05" stroke="#FFFFFF" stroke-width="1.1273" stroke-linecap="round" stroke-linejoin="round" stroke-miterlimit="2.6131" points="
		53.419,112.319 63.187,110.864 67.966,93.618 57.368,93.306 	"/>
	
		<path fill="#FFCB05" stroke="#FFFFFF" stroke-width="1.1273" stroke-linecap="round" stroke-linejoin="round" stroke-miterlimit="2.6131" d="
		M40.934,83.453l0.357,14.213c-0.684,0.13-1.439,0.255-2.289,0.379c-8.552,1.244-5.597-16.064-5.597-16.064H23.061
		c0.209,24.663,11.558,22.047,15.343,21.834c0.94-0.053,1.981-0.332,3.024-0.723l0.259,10.292l8.9,0.159l4.826-29.933L40.934,83.453
		L40.934,83.453z"/>
	
		<polygon fill="#FFCB05" stroke="#FFFFFF" stroke-width="1.1273" stroke-linecap="round" stroke-linejoin="round" stroke-miterlimit="2.6131" points="
		84.547,88.472 80.827,88.472 75.807,88.472 71.747,88.472 71.747,113.612 80.046,113.612 80.575,96.537 84.374,97.006 
		84.047,113.112 92.846,113.612 93.624,88.472 90.791,88.472 	"/>
	
		<path fill="#FFCB05" stroke="#FFFFFF" stroke-width="1.1273" stroke-linecap="round" stroke-linejoin="round" stroke-miterlimit="2.6131" d="
		M122.759,95.596c-1.14-6.441-5.933-11.544-12.188-12.25c-7.784-0.878-14.88,5.388-15.853,13.994
		c-0.972,8.608,4.552,16.296,12.337,17.175c5.934,0.67,11.467-2.812,14.193-8.316l-7.479-5.111
		c-0.826,1.744-2.314,3.018-4.166,3.324c-2.701,0.445-5.328-1.297-6.519-4.079l11.39-2.787c0,0.004,0,0.011,0,0.013L122.759,95.596
		L122.759,95.596z M102.431,97.108c-0.006-3.288,1.991-6.103,4.875-6.578c2.541-0.422,5.021,1.101,6.295,3.602L102.431,97.108
		L102.431,97.108z"/>
	
		<path fill="#FFCB05" stroke="#FFFFFF" stroke-width="1.1273" stroke-linecap="round" stroke-linejoin="round" stroke-miterlimit="2.6131" d="
		M141.521,84.858c-3.004-0.908-6.166-0.189-8.768,1.689l-0.085-1.516l-9.187,0.713l3.336,32.845l7.705-0.599L134,108.699
		c0.097,0.032,0.19,0.067,0.29,0.098c5.615,1.697,11.788-2.286,13.785-8.897C150.071,93.289,147.14,86.555,141.521,84.858
		L141.521,84.858z M140.293,95.858c-0.567,2.561-2.437,4.327-4.168,3.942c-1.733-0.385-2.676-2.773-2.106-5.336
		c0.568-2.563,2.437-4.327,4.168-3.941C139.92,90.906,140.864,93.294,140.293,95.858L140.293,95.858z"/>
	
		<path fill="#FFCB05" stroke="#FFFFFF" stroke-width="1.1273" stroke-linecap="round" stroke-linejoin="round" stroke-miterlimit="2.6131" d="
		M163.704,101.802c-2.456,0-4.448-2.348-4.448-5.243s1.992-5.241,4.448-5.241c0.83,0,1.604,0.272,2.268,0.737l3.725-4.271
		c-0.641-0.508-1.342-0.948-2.118-1.281c-5.487-2.363-12.175,0.923-14.933,7.335c-2.76,6.413-0.545,13.524,4.939,15.884
		c3.839,1.655,8.264,0.534,11.52-2.48l-2.931-6.32C165.468,101.476,164.617,101.802,163.704,101.802L163.704,101.802z"/>
	
		<path fill="#FFCB05" stroke="#FFFFFF" stroke-width="1.1273" stroke-linecap="round" stroke-linejoin="round" stroke-miterlimit="2.6131" d="
		M153.158,82.607l-0.009,0.01c-0.35-1.294-1.527-2.249-2.934-2.249c-1.679,0-3.037,1.36-3.037,3.037c0,1.557,1.17,2.835,2.676,3.015
		l-0.002,0.003c1.768,0.297,0.668,3.659,0.668,3.659C155.228,87.997,153.158,82.607,153.158,82.607L153.158,82.607z"/>
	<polygon fill="#00652E" points="34.838,80.743 36.418,73.475 39.894,68.313 44.212,66.628 41.368,73.264 39.367,81.059 	"/>
	<polygon fill="#00652E" points="54.54,116.86 59.048,122.31 64.309,127.006 68.442,129.824 63.369,124.376 59.612,120.431 
		57.733,117.612 56.042,114.794 	"/>
	<path fill="#00652E" d="M156.442,112.635l-3.31,11.421c0,0-2.358,6.413-2.192,6.413s6.578-4.262,6.578-4.262l2.276-5.711
		l1.034-6.455L156.442,112.635L156.442,112.635z"/>
	<path fill="#00652E" d="M152.463,71.821l4.563,5.911l0.904,1.429c0,0,0.793,1.497,1.086,3.193c0.293,1.697,2.573,0.761,2.573,0.761
		l-0.993-2.165l-2.225-3.511l-2.105-3.043L152.463,71.821L152.463,71.821z"/>
	<path fill="#FFCB05" d="M100.835,137.822c28.021,2.081,52.023-9.748,55.717-26.831c0.486,2.583,0.533,5.195,0.094,7.799
		c-3.108,18.312-29.191,29.158-58.256,24.227c-22.473-3.816-40.148-15.951-45.569-29.729
		C59.975,126.131,78.487,136.164,100.835,137.822L100.835,137.822z"/>
	<path fill="#FFCB05" d="M96.598,54.325c28.238,0.278,52.316,10.627,61.334,24.835c-5.881-15.371-28.562-28.731-56.894-32.013
		c-34.402-3.983-64.098,8.401-66.331,27.665c-0.175,1.526-0.173,3.047-0.005,4.56C42.803,64.592,67.421,54.04,96.598,54.325
		L96.598,54.325z"/>
</g>
</svg>
