<?xml version="1.0" encoding="utf-8"?>
<!-- Generator: Adobe Illustrator 16.0.0, SVG Export Plug-In . SVG Version: 6.00 Build 0)  -->
<!DOCTYPE svg PUBLIC "-//W3C//DTD SVG 1.1//EN" "http://www.w3.org/Graphics/SVG/1.1/DTD/svg11.dtd">
<svg version="1.1" id="Layer_1" xmlns="http://www.w3.org/2000/svg" xmlns:xlink="http://www.w3.org/1999/xlink" x="0px" y="0px"
	 width="175.748px" height="127.812px" viewBox="8.504 32.472 175.748 127.812"
	 enable-background="new 8.504 32.472 175.748 127.812" xml:space="preserve">
<g>
	<path fill="#2E3192" d="M8.504,32.472h175.748H8.504z"/>
	<polygon fill="#2E3192" points="8.504,32.472 184.252,32.472 184.252,33.472 8.504,33.472 	"/>
	<polygon fill="#2E3293" points="8.504,33.472 184.252,33.472 184.252,34.471 8.504,34.471 	"/>
	<polygon fill="#2F3394" points="8.504,34.471 184.252,34.471 184.252,35.471 8.504,35.471 	"/>
	<polygon fill="#323393" points="8.504,35.471 184.252,35.471 184.252,36.47 8.504,36.47 	"/>
	<polygon fill="#313594" points="8.504,36.47 184.252,36.47 184.252,37.47 8.504,37.47 	"/>
	<polygon fill="#303795" points="8.504,37.47 184.252,37.47 184.252,38.47 8.504,38.47 	"/>
	<polygon fill="#313896" points="8.504,38.47 184.252,38.47 184.252,39.469 8.504,39.469 	"/>
	<polygon fill="#313896" points="8.504,39.469 184.252,39.469 184.252,40.469 8.504,40.469 	"/>
	<polygon fill="#333A96" points="8.504,40.469 184.252,40.469 184.252,41.469 8.504,41.469 	"/>
	<polygon fill="#323B97" points="8.504,41.469 184.252,41.469 184.252,42.468 8.504,42.468 	"/>
	<polygon fill="#343D98" points="8.504,42.468 184.252,42.468 184.252,43.468 8.504,43.468 	"/>
	<polygon fill="#333E99" points="8.504,43.468 184.252,43.468 184.252,44.468 8.504,44.468 	"/>
	<polygon fill="#333E99" points="8.504,44.468 184.252,44.468 184.252,45.467 8.504,45.467 	"/>
	<polygon fill="#354099" points="8.504,45.467 184.252,45.467 184.252,46.467 8.504,46.467 	"/>
	<polygon fill="#37419A" points="8.504,46.467 184.252,46.467 184.252,47.466 8.504,47.466 	"/>
	<polygon fill="#36439B" points="8.504,47.466 184.252,47.466 184.252,48.466 8.504,48.466 	"/>
	<polygon fill="#35449C" points="8.504,48.466 184.252,48.466 184.252,49.466 8.504,49.466 	"/>
	<polygon fill="#38449C" points="8.504,49.466 184.252,49.466 184.252,50.465 8.504,50.465 	"/>
	<polygon fill="#3A469D" points="8.504,50.465 184.252,50.465 184.252,51.465 8.504,51.465 	"/>
	<polygon fill="#39479D" points="8.504,51.465 184.252,51.465 184.252,52.465 8.504,52.465 	"/>
	<polygon fill="#38499E" points="8.504,52.465 184.252,52.465 184.252,53.464 8.504,53.464 	"/>
	<polygon fill="#3B499E" points="8.504,53.464 184.252,53.464 184.252,54.464 8.504,54.464 	"/>
	<polygon fill="#3D4A9F" points="8.504,54.464 184.252,54.464 184.252,55.464 8.504,55.464 	"/>
	<polygon fill="#3C4CA0" points="8.504,55.464 184.252,55.464 184.252,56.463 8.504,56.463 	"/>
	<polygon fill="#3B4DA1" points="8.504,56.463 184.252,56.463 184.252,57.463 8.504,57.463 	"/>
	<polygon fill="#3D4FA2" points="8.504,57.463 184.252,57.463 184.252,58.462 8.504,58.462 	"/>
	<polygon fill="#3D4FA2" points="8.504,58.462 184.252,58.462 184.252,59.415 8.504,59.415 	"/>
	<polygon fill="#3F50A2" points="8.504,59.415 184.252,59.415 184.252,60.415 8.504,60.415 	"/>
	<polygon fill="#3E51A3" points="8.504,60.415 184.252,60.415 184.252,61.414 8.504,61.414 	"/>
	<polygon fill="#4053A4" points="8.504,61.414 184.252,61.414 184.252,62.414 8.504,62.414 	"/>
	<polygon fill="#3F54A5" points="8.504,62.414 184.252,62.414 184.252,63.413 8.504,63.413 	"/>
	<polygon fill="#4254A5" points="8.504,63.413 184.252,63.413 184.252,64.413 8.504,64.413 	"/>
	<polygon fill="#4156A6" points="8.504,64.413 184.252,64.413 184.252,65.413 8.504,65.413 	"/>
	<polygon fill="#4357A7" points="8.504,65.413 184.252,65.413 184.252,66.412 8.504,66.412 	"/>
	<polygon fill="#4259A8" points="8.504,66.412 184.252,66.412 184.252,67.412 8.504,67.412 	"/>
	<polygon fill="#4259A8" points="8.504,67.412 184.252,67.412 184.252,68.412 8.504,68.412 	"/>
	<polygon fill="#445AA8" points="8.504,68.412 184.252,68.412 184.252,69.411 8.504,69.411 	"/>
	<polygon fill="#465CA9" points="8.504,69.411 184.252,69.411 184.252,70.411 8.504,70.411 	"/>
	<polygon fill="#465DAA" points="8.504,70.411 184.252,70.411 184.252,71.41 8.504,71.41 	"/>
	<polygon fill="#455EAB" points="8.504,71.41 184.252,71.41 184.252,72.41 8.504,72.41 	"/>
	<polygon fill="#485FAB" points="8.504,72.41 184.252,72.41 184.252,73.41 8.504,73.41 	"/>
	<polygon fill="#4760AC" points="8.504,73.41 184.252,73.41 184.252,74.409 8.504,74.409 	"/>
	<polygon fill="#4962AD" points="8.504,74.409 184.252,74.409 184.252,75.409 8.504,75.409 	"/>
	<polygon fill="#4863AE" points="8.504,75.409 184.252,75.409 184.252,76.409 8.504,76.409 	"/>
	<polygon fill="#4A64AF" points="8.504,76.409 184.252,76.409 184.252,77.408 8.504,77.408 	"/>
	<polygon fill="#4A64AF" points="8.504,77.408 184.252,77.408 184.252,78.408 8.504,78.408 	"/>
	<polygon fill="#4C66AF" points="8.504,78.408 184.252,78.408 184.252,79.408 8.504,79.408 	"/>
	<polygon fill="#4B67B0" points="8.504,79.408 184.252,79.408 184.252,80.407 8.504,80.407 	"/>
	<polygon fill="#4D69B1" points="8.504,80.407 184.252,80.407 184.252,81.407 8.504,81.407 	"/>
	<polygon fill="#4D69B1" points="8.504,81.407 184.252,81.407 184.252,82.406 8.504,82.406 	"/>
	<polygon fill="#4F6AB2" points="8.504,82.406 184.252,82.406 184.252,83.406 8.504,83.406 	"/>
	<polygon fill="#4F6BB3" points="8.504,83.406 184.252,83.406 184.252,84.406 8.504,84.406 	"/>
	<polygon fill="#516DB4" points="8.504,84.406 184.252,84.406 184.252,85.405 8.504,85.405 	"/>
	<polygon fill="#506EB5" points="8.504,85.405 184.252,85.405 184.252,86.405 8.504,86.405 	"/>
	<polygon fill="#506EB5" points="8.504,86.405 184.252,86.405 184.252,87.405 8.504,87.405 	"/>
	<polygon fill="#5270B6" points="8.504,87.405 184.252,87.405 184.252,88.405 8.504,88.405 	"/>
	<polygon fill="#5171B7" points="8.504,88.405 184.252,88.405 184.252,89.404 8.504,89.404 	"/>
	<polygon fill="#5373B8" points="8.504,89.404 184.252,89.404 184.252,90.404 8.504,90.404 	"/>
	<polygon fill="#5373B8" points="8.504,90.404 184.252,90.404 184.252,91.403 8.504,91.403 	"/>
	<polygon fill="#5674B9" points="8.504,91.403 184.252,91.403 184.252,92.403 8.504,92.403 	"/>
	<polygon fill="#5575BA" points="8.504,92.403 184.252,92.403 184.252,93.403 8.504,93.403 	"/>
	<polygon fill="#5777BB" points="8.504,93.403 184.252,93.403 184.252,94.402 8.504,94.402 	"/>
	<polygon fill="#5678BB" points="8.504,94.402 184.252,94.402 184.252,95.402 8.504,95.402 	"/>
	<polygon fill="#5979BC" points="8.504,95.402 184.252,95.402 184.252,96.401 8.504,96.401 	"/>
	<polygon fill="#577BBD" points="8.504,96.401 184.252,96.401 184.252,97.401 8.504,97.401 	"/>
	<polygon fill="#5A7CBD" points="8.504,97.401 184.252,97.401 184.252,98.401 8.504,98.401 	"/>
	<polygon fill="#597DBE" points="8.504,98.401 184.252,98.401 184.252,99.399 8.504,99.399 	"/>
	<polygon fill="#5C7FC0" points="8.504,99.399 184.252,99.399 184.252,100.399 8.504,100.399 	"/>
	<polygon fill="#5B80C1" points="8.504,100.399 184.252,100.399 184.252,101.353 8.504,101.353 	"/>
	<polygon fill="#5D82C2" points="8.504,101.353 184.252,101.353 184.252,102.353 8.504,102.353 	"/>
	<polygon fill="#5D82C2" points="8.504,102.353 184.252,102.353 184.252,103.353 8.504,103.353 	"/>
	<polygon fill="#5F84C3" points="8.504,103.353 184.252,103.353 184.252,104.353 8.504,104.353 	"/>
	<polygon fill="#5E85C4" points="8.504,104.353 184.252,104.353 184.252,105.351 8.504,105.351 	"/>
	<polygon fill="#6087C5" points="8.504,105.351 184.252,105.351 184.252,106.351 8.504,106.351 	"/>
	<polygon fill="#6087C5" points="8.504,106.351 184.252,106.351 184.252,107.351 8.504,107.351 	"/>
	<polygon fill="#6088C6" points="8.504,107.351 184.252,107.351 184.252,108.351 8.504,108.351 	"/>
	<polygon fill="#628AC7" points="8.504,108.351 184.252,108.351 184.252,109.351 8.504,109.351 	"/>
	<polygon fill="#618BC8" points="8.504,109.351 184.252,109.351 184.252,110.351 8.504,110.351 	"/>
	<polygon fill="#638DC9" points="8.504,110.351 184.252,110.351 184.252,111.349 8.504,111.349 	"/>
	<polygon fill="#638DC9" points="8.504,111.349 184.252,111.349 184.252,112.349 8.504,112.349 	"/>
	<polygon fill="#658FCA" points="8.504,112.349 184.252,112.349 184.252,113.349 8.504,113.349 	"/>
	<polygon fill="#6491CB" points="8.504,113.349 184.252,113.349 184.252,114.349 8.504,114.349 	"/>
	<polygon fill="#6692CC" points="8.504,114.349 184.252,114.349 184.252,115.349 8.504,115.349 	"/>
	<polygon fill="#6692CC" points="8.504,115.349 184.252,115.349 184.252,116.347 8.504,116.347 	"/>
	<polygon fill="#6894CE" points="8.504,116.347 184.252,116.347 184.252,117.347 8.504,117.347 	"/>
	<polygon fill="#6896CF" points="8.504,117.347 184.252,117.347 184.252,118.347 8.504,118.347 	"/>
	<polygon fill="#6A98D0" points="8.504,118.347 184.252,118.347 184.252,119.347 8.504,119.347 	"/>
	<polygon fill="#6999D1" points="8.504,119.347 184.252,119.347 184.252,120.347 8.504,120.347 	"/>
	<polygon fill="#6C9AD1" points="8.504,120.347 184.252,120.347 184.252,121.347 8.504,121.347 	"/>
	<polygon fill="#6B9BD2" points="8.504,121.347 184.252,121.347 184.252,122.345 8.504,122.345 	"/>
	<polygon fill="#6A9DD3" points="8.504,122.345 184.252,122.345 184.252,123.345 8.504,123.345 	"/>
	<polygon fill="#6C9FD4" points="8.504,123.345 184.252,123.345 184.252,124.344 8.504,124.344 	"/>
	<polygon fill="#6FA1D6" points="8.504,124.344 184.252,124.344 184.252,125.344 8.504,125.344 	"/>
	<polygon fill="#6FA1D6" points="8.504,125.344 184.252,125.344 184.252,126.344 8.504,126.344 	"/>
	<polygon fill="#6EA2D7" points="8.504,126.344 184.252,126.344 184.252,127.344 8.504,127.344 	"/>
	<polygon fill="#70A4D8" points="8.504,127.344 184.252,127.344 184.252,128.343 8.504,128.343 	"/>
	<polygon fill="#6FA6D9" points="8.504,128.343 184.252,128.343 184.252,129.343 8.504,129.343 	"/>
	<polygon fill="#72A6D9" points="8.504,129.343 184.252,129.343 184.252,130.342 8.504,130.342 	"/>
	<polygon fill="#72A8DA" points="8.504,130.342 184.252,130.342 184.252,131.342 8.504,131.342 	"/>
	<polygon fill="#74AADC" points="8.504,131.342 184.252,131.342 184.252,132.342 8.504,132.342 	"/>
	<polygon fill="#73ACDD" points="8.504,132.342 184.252,132.342 184.252,133.341 8.504,133.341 	"/>
	<polygon fill="#75AEDE" points="8.504,133.341 184.252,133.341 184.252,134.341 8.504,134.341 	"/>
	<polygon fill="#75AEDE" points="8.504,134.341 184.252,134.341 184.252,135.341 8.504,135.341 	"/>
	<polygon fill="#78B0DF" points="8.504,135.341 184.252,135.341 184.252,136.34 8.504,136.34 	"/>
	<polygon fill="#77B1E0" points="8.504,136.34 184.252,136.34 184.252,137.34 8.504,137.34 	"/>
	<polygon fill="#76B3E1" points="8.504,137.34 184.252,137.34 184.252,138.34 8.504,138.34 	"/>
	<polygon fill="#79B5E3" points="8.504,138.34 184.252,138.34 184.252,139.339 8.504,139.339 	"/>
	<polygon fill="#7CB6E3" points="8.504,139.339 184.252,139.339 184.252,140.339 8.504,140.339 	"/>
	<polygon fill="#7BB7E4" points="8.504,140.339 184.252,140.339 184.252,141.338 8.504,141.338 	"/>
	<polygon fill="#7AB9E5" points="8.504,141.338 184.252,141.338 184.252,142.338 8.504,142.338 	"/>
	<polygon fill="#7DBBE6" points="8.504,142.338 184.252,142.338 184.252,143.338 8.504,143.338 	"/>
	<polygon fill="#80BCE6" points="8.504,143.338 184.252,143.338 184.252,144.29 8.504,144.29 	"/>
	<polygon fill="#7FBDE8" points="8.504,144.29 184.252,144.29 184.252,145.289 8.504,145.289 	"/>
	<polygon fill="#7FBFE9" points="8.504,145.289 184.252,145.289 184.252,146.289 8.504,146.289 	"/>
	<polygon fill="#81C1EA" points="8.504,146.289 184.252,146.289 184.252,147.289 8.504,147.289 	"/>
	<polygon fill="#83C3EB" points="8.504,147.289 184.252,147.289 184.252,148.288 8.504,148.288 	"/>
	<polygon fill="#83C3EB" points="8.504,148.288 184.252,148.288 184.252,149.288 8.504,149.288 	"/>
	<polygon fill="#83C5EC" points="8.504,149.288 184.252,149.288 184.252,150.287 8.504,150.287 	"/>
	<polygon fill="#85C7EE" points="8.504,150.287 184.252,150.287 184.252,151.287 8.504,151.287 	"/>
	<polygon fill="#85C9EF" points="8.504,151.287 184.252,151.287 184.252,152.287 8.504,152.287 	"/>
	<polygon fill="#87CBF0" points="8.504,152.287 184.252,152.287 184.252,153.286 8.504,153.286 	"/>
	<polygon fill="#87CBF0" points="8.504,153.286 184.252,153.286 184.252,154.286 8.504,154.286 	"/>
	<polygon fill="#8ACDF1" points="8.504,154.286 184.252,154.286 184.252,155.286 8.504,155.286 	"/>
	<polygon fill="#8ACFF3" points="8.504,155.286 184.252,155.286 184.252,156.285 8.504,156.285 	"/>
	<polygon fill="#89D1F4" points="8.504,156.285 184.252,156.285 184.252,157.285 8.504,157.285 	"/>
	<polygon fill="#8CD2F4" points="8.504,157.285 184.252,157.285 184.252,158.285 8.504,158.285 	"/>
	<polygon fill="#8ED5F6" points="8.504,158.285 184.252,158.285 184.252,159.284 8.504,159.284 	"/>
	<polygon fill="#8ED8F8" points="8.504,159.284 184.252,159.284 184.252,160.284 8.504,160.284 	"/>
	<path fill="#8ED8F8" d="M8.504,160.284h175.748H8.504z"/>
	<path fill="#2E3192" stroke="#FFFFFF" stroke-width="1.3224" stroke-miterlimit="2.6131" d="M14.74,138.72
		c53.981,18.375,107.962,15.328,161.991-0.38V53.797c-54.028-17.994-108.01-19.088-161.991,0V138.72L14.74,138.72z"/>
	<path fill="#FFCB05" stroke="#FFCB05" stroke-width="0.1428" stroke-miterlimit="2.6131" d="M15.264,87.69
		c19.564-6.426,39.605-10.282,60.122-11.663c0.524-13.281,7.045-20.041,19.564-20.279c13.281,0.714,20.041,7.474,20.279,20.279
		c20.422,0.476,40.842,5.141,61.264,11.663V54.226c-53.742-18.612-107.485-20.469-161.229,0V87.69L15.264,87.69z"/>
	<path fill="none" stroke="#FFFFFF" stroke-width="1.3224" stroke-miterlimit="2.6131" d="M14.74,138.673
		c53.981,18.374,107.962,15.328,161.991-0.381V53.75c-54.028-17.994-108.01-19.088-161.991,0V138.673L14.74,138.673z"/>
	<path fill="#ED1C24" stroke="#ED1C24" stroke-width="0.1428" stroke-miterlimit="2.6131" d="M33.543,82.645H19.738l33.274-6.712
		L21.5,72.744l31.846-2.476l-26.182-7.093l33.607,2.142L38.16,55.416l29.371,6.379l-14.9-12.044l23.373,8.854l-7.426-13.091
		l17.327,9.901V43.04l9.568,11.996l9.188-11.663v12.376l17.708-10.615l-8.142,13.805l24.039-9.568l-15.185,12.043l29.704-5.998
		l-23.706,9.901l35.368-2.142l-29.704,7.093l36.797,2.142l-34.319,3.19l35.748,7.045h-14.852
		c-14.28-3.903-28.562-6.236-42.842-6.379c0-13.09-7.569-18.85-19.803-19.421c-11.948,0.523-19.898,6.141-19.803,19.421
		C61.723,76.98,47.442,79.122,33.543,82.645L33.543,82.645z"/>
	<path fill="#FFFFFF" d="M89.904,89.309h7.57l0.047-0.619c-0.855,0.048-1.428-0.143-1.333-0.809
		c0.238-2.713,1.476-3.951,3.665-3.618c0.43-1.19,0.43-2.428,0-3.618c0.478,0.095,1.144,0.809,1.953,2.094
		c0.428-1.333,0.381-2.951-0.049-4.617c0.857,0.476,1.333,3.618,3.096,4.094c-0.524-2.142,0.285-4.237-0.381-6.379
		c1.094,0.19,0.762,4.427,2.428,5.284c-0.19-2.237,1.809-3.665,0.095-6.807c1.095,0.667,1.762,2.142,1.903,4.665
		c0.953-2.38,0.856-6.569-2.76-8.473c-4.381-1.618-7.808-0.428-9.854,4.998c-0.523,1.381-1.095,1.381-1.666,0.048l-0.095-4.188
		c0.095-0.666,0.381-1.19,0.81-1.666c-0.572-2.428-1.667-3.855-2.952-4.808l0.047-0.619c1.047,0.667,2.143,0.619,3.189-0.143
		c-0.952-0.191-1.619-1.238-2.666-1.143l0.762-1.143c-0.571-0.286-1.19-0.333-1.762-0.238l0.524-1.285
		c-0.762-0.19-1.571-0.048-2.38,0.476l-0.19-1.095c-1.333,0.429-1.809,1.286-1.19,2.761c-0.571-0.095-1.38,0-1.761,0.428
		c0.571,0.238,0.81,0.238,0.952,0.619c0.238,0.238,0.428,0.476,0.19,0.714l-0.905,0.286l0.477,0.333
		c0.285,0.333,0.476,0.667,0.428,1c-1.285,0.571-1.667,1.333-1.19,2.237c0.38,0.571,1,0.762,1.809,0.477
		c-2.951,1.761-4.379,3.808-3.951,6.141c0.571,2.57,2.57,5.617,8.949,9.473c1.666,0.904,2.047,2.047,1.095,3.475
		c-0.476,0.857-1.571,1.142-3.333,0.904C90.57,88.119,90.047,88.405,89.904,89.309L89.904,89.309z"/>
	<path fill="#ED1C24" d="M88.762,74.695c0-1.286-0.762-1.143-0.857-0.095c-0.095,3.332,2.094,6.188,7.616,8.521
		C91.618,80.741,89.285,77.979,88.762,74.695L88.762,74.695z"/>
	<path fill="#FFFFFF" d="M46.776,108.588c-0.81,0.619-1.856,1.047-3.046,1.333c-1.238,0.285-2.619,0.43-4.189,0.43
		c-3.618,0-6.426-0.953-8.378-2.904s-2.951-4.665-2.951-8.188c0-3.427,1.095-6.141,3.237-8.14c2.189-2.047,5.141-3.047,8.807-3.047
		c1.237,0,2.475,0.143,3.665,0.381c1.143,0.238,2.237,0.619,3.285,1.143c-0.19,0.523-0.286,1.047-0.381,1.571
		c-0.095,0.476-0.143,0.952-0.143,1.428c-0.762-1.143-1.666-2-2.761-2.571c-1.047-0.523-2.285-0.81-3.808-0.81
		c-2.713,0-4.808,0.905-6.331,2.666c-1.476,1.714-2.237,4.189-2.237,7.378c0,3.094,0.762,5.521,2.237,7.283
		c1.475,1.762,3.522,2.618,6.093,2.618c1.237,0,2.428-0.238,3.665-0.667c1.19-0.428,2.333-1.096,3.428-1.951L46.776,108.588
		L46.776,108.588z M50.204,109.969c0.047-1.571,0.095-3.143,0.143-4.665c0.047-1.522,0.047-3.047,0.047-4.521
		c0-1.666,0-3.285-0.047-4.76c-0.048-1.524-0.048-3-0.143-4.475c0.238,0.047,0.429,0.047,0.619,0.095c0.238,0,0.477,0,0.714,0
		c0.237,0,0.476,0,0.666,0c0.238-0.048,0.429-0.048,0.619-0.095c-0.095,1.761-0.143,3.427-0.19,5.045
		c-0.047,1.619-0.047,3.142-0.047,4.522c0,1.428,0,2.809,0.047,3.998c0,1.238,0.048,2.429,0.095,3.57
		c0.19,0,0.428,0.047,0.667,0.047c0.238,0,0.667,0,1.238,0c1.19,0,2.285-0.047,3.189-0.095c0.952-0.096,1.762-0.19,2.476-0.333
		c0,0.096,0,0.237-0.047,0.381c0,0.19,0,0.334,0,0.428c0,0.097,0,0.238,0,0.43c0.047,0.143,0.047,0.333,0,0.429
		c-1.619-0.048-2.952-0.048-4.046-0.096c-1.047,0-1.857,0-2.38,0c-0.667,0-1.285,0-1.856,0
		C51.346,109.921,50.775,109.921,50.204,109.969L50.204,109.969z M64.104,109.969c0.095-1.143,0.143-2.476,0.19-3.999
		c0.048-1.476,0.048-3.332,0.048-5.427c0-1.951,0-3.665-0.048-5.093c-0.047-1.476-0.095-2.761-0.19-3.903
		c0.381,0,0.809,0.047,1.285,0.047c0.429,0,1.143,0,2.142,0c1.285,0,2.38,0,3.38,0s2-0.047,2.999-0.047c0,0.095,0,0.19,0,0.381
		c-0.047,0.19-0.047,0.286-0.047,0.428c0,0.048,0,0.19,0.047,0.381c0,0.143,0,0.286,0,0.381c-1.047-0.095-2.142-0.143-3.237-0.19
		c-1.095-0.048-2.237-0.095-3.379-0.095h-0.667c0,1.047,0,2.047,0,2.999s0,1.856,0,2.713v1.047h0.476c0.856,0,1.761,0,2.809-0.048
		c1-0.047,2.094-0.095,3.237-0.143c0,0.189,0,0.332-0.047,0.477c0,0.143,0,0.238,0,0.333s0,0.238,0,0.333
		c0.047,0.096,0.047,0.286,0.047,0.43c-0.429-0.049-1-0.144-1.666-0.144c-0.667-0.048-1.856-0.048-3.57-0.048h-1.285v1.285
		c0,1.522,0,2.761,0,3.761c0,0.952,0,1.903,0,2.809h0.714c0.809,0,1.762,0,2.904-0.096c1.19-0.048,2.428-0.095,3.761-0.19
		c0,0.097,0,0.19,0,0.381c0,0.191,0,0.334,0,0.43c0,0.095,0,0.238,0,0.381c0,0.189,0,0.333,0,0.43
		c-0.524-0.049-1.095-0.049-1.761-0.049c-0.619,0-1.666,0-2.999,0c-1.38,0-2.428,0-3.142,0
		C65.389,109.921,64.722,109.921,64.104,109.969L64.104,109.969z M77.48,109.969c0.333-1.477,0.761-3.666,1.19-6.475
		c0.428-2.81,1-6.902,1.666-12.281h0.476c1.666,3.189,3.094,5.95,4.332,8.235c1.19,2.332,2.38,4.427,3.475,6.379
		c1.238-2.047,2.476-4.284,3.808-6.664c1.381-2.381,2.809-5.046,4.427-7.95h0.334c0.285,2.38,0.57,4.998,0.903,7.902
		c0.333,2.903,0.763,6.521,1.285,10.854c-0.19-0.048-0.429-0.096-0.619-0.096c-0.19-0.048-0.428-0.048-0.618-0.048
		c-0.189,0-0.381,0-0.57,0.048c-0.19,0-0.43,0.048-0.668,0.096c-0.236-3.188-0.476-5.95-0.713-8.331
		c-0.286-2.38-0.523-4.094-0.714-5.141c-1.714,2.809-3.237,5.379-4.475,7.759c-1.285,2.38-2.142,4.284-2.666,5.665h-0.381
		c-0.19-0.714-0.523-1.477-0.904-2.333c-0.429-0.856-1-1.95-1.714-3.284l-4.332-7.759c-0.429,2.903-0.762,5.474-1,7.808
		c-0.238,2.332-0.381,4.188-0.381,5.616c-0.19-0.048-0.38-0.096-0.523-0.096c-0.19-0.048-0.333-0.048-0.476-0.048
		c-0.19,0-0.381,0-0.523,0.048C77.908,109.873,77.718,109.921,77.48,109.969L77.48,109.969z M102.231,109.969
		c0.097-1.143,0.145-2.476,0.191-3.999c0.047-1.476,0.047-3.332,0.047-5.427c0-1.951,0-3.665-0.047-5.093
		c-0.048-1.476-0.096-2.761-0.191-3.903c0.383,0,0.811,0.047,1.287,0.047c0.428,0,1.143,0,2.142,0c1.284,0,2.381,0,3.38,0
		c1,0,1.999-0.047,2.999-0.047c0,0.095,0,0.19,0,0.381c-0.048,0.19-0.048,0.286-0.048,0.428c0,0.048,0,0.19,0.048,0.381
		c0,0.143,0,0.286,0,0.381c-1.047-0.095-2.144-0.143-3.237-0.19c-1.095-0.048-2.236-0.095-3.379-0.095h-0.667
		c0,1.047,0,2.047,0,2.999s0,1.856,0,2.713v1.047h0.478c0.855,0,1.761,0,2.809-0.048c0.999-0.047,2.094-0.095,3.236-0.143
		c0,0.189-0.049,0.332-0.049,0.477c0,0.143,0,0.238,0,0.333s0,0.238,0,0.333c0,0.096,0.049,0.286,0.049,0.43
		c-0.43-0.049-1-0.144-1.666-0.144c-0.666-0.048-1.856-0.048-3.57-0.048h-1.285v1.285c0,1.522,0,2.761,0,3.761
		c0,0.952,0,1.903,0,2.809h0.715c0.809,0,1.762,0,2.903-0.096c1.144-0.048,2.429-0.095,3.761-0.19c0,0.097,0,0.19,0,0.381
		c0,0.191,0,0.334,0,0.43c0,0.095,0,0.238,0,0.381c0,0.189,0,0.333,0,0.43c-0.523-0.049-1.096-0.049-1.762-0.049s-1.666,0-2.999,0
		c-1.381,0-2.429,0-3.142,0C103.519,109.923,102.853,109.921,102.231,109.969L102.231,109.969z M115.8,109.921
		c0.143-2.38,0.19-4.951,0.285-7.568c0.048-2.666,0.096-5.428,0.096-8.283v-2.856h0.523c1.952,2.237,4.046,4.474,6.236,6.711
		c2.142,2.285,4.617,4.762,7.377,7.475c0-0.096,0-0.238,0.049-0.43c0-0.904,0.047-1.57,0.047-1.951c0-2.188-0.047-4.236-0.096-6.188
		c-0.047-1.952-0.094-3.713-0.189-5.284c0.285,0.047,0.477,0.047,0.571,0.095c0.143,0,0.237,0,0.333,0c0.143,0,0.238,0,0.381,0
		c0.145-0.048,0.286-0.048,0.523-0.095c-0.096,2.047-0.144,4.141-0.19,6.236c-0.047,2.095-0.047,4.235-0.047,6.427
		c0,0.762,0,1.618,0,2.521c0,0.904,0.047,2.096,0.047,3.57h-0.333c-0.855-1-1.855-2.143-3.047-3.428
		c-1.143-1.236-2.522-2.665-4.094-4.284l-6.713-6.854c0,0.19-0.047,0.714-0.047,1.523c-0.048,0.856-0.048,1.477-0.048,1.999
		c0,1.095,0,2.476,0.048,4.189c0.047,1.713,0.144,3.854,0.19,6.474c-0.144,0-0.334-0.048-0.478-0.048
		c-0.143-0.048-0.332-0.048-0.476-0.048s-0.286,0-0.429,0.048C116.181,109.873,115.99,109.921,115.8,109.921L115.8,109.921z
		 M140.506,109.969c0.048-2.237,0.095-4.38,0.144-6.521c0-2.096,0.047-4.143,0.047-6.141v-4.523h-0.762
		c-1.096,0-2.095,0.048-2.951,0.095c-0.856,0.048-1.57,0.143-2.189,0.238c0.048-0.143,0.048-0.286,0.048-0.429
		c0.048-0.095,0.048-0.19,0.048-0.285c0-0.143,0-0.238-0.048-0.381c0-0.095,0-0.285-0.048-0.476
		c1.096,0.047,2.143,0.047,3.237,0.047c1.143,0,2.237,0.048,3.427,0.048s2.381-0.048,3.618-0.048s2.476-0.047,3.761-0.047
		c0,0.095,0,0.19-0.048,0.286c0,0.095,0,0.285,0,0.476c0,0.238,0,0.38,0,0.523c0.048,0.095,0.048,0.19,0.048,0.286
		c-0.619-0.095-1.333-0.19-2.143-0.238c-0.81-0.047-1.715-0.095-2.762-0.095l-0.81,0.048c-0.047,0.762-0.095,1.619-0.095,2.57
		c-0.049,0.953-0.049,2.094-0.049,3.427c0,1.714,0,3.521,0.049,5.38c0.048,1.856,0.048,3.76,0.095,5.76
		c-0.19-0.048-0.381-0.048-0.618-0.096c-0.189,0-0.429,0-0.619,0c-0.238,0-0.429,0-0.666,0
		C140.981,109.921,140.743,109.921,140.506,109.969L140.506,109.969z M152.978,109.969c0.096-1.143,0.144-2.476,0.19-3.999
		c0.047-1.476,0.047-3.332,0.047-5.427c0-1.951,0-3.665-0.047-5.093c-0.048-1.476-0.097-2.761-0.19-3.903
		c0.381,0,0.81,0.047,1.285,0.047c0.428,0,1.144,0,2.143,0c1.285,0,2.381,0,3.38,0c1,0,1.999-0.047,2.999-0.047
		c0,0.095,0,0.19,0,0.381c-0.049,0.19-0.049,0.286-0.049,0.428c0,0.048,0,0.19,0.049,0.381c0,0.143,0,0.286,0,0.381
		c-1.047-0.095-2.143-0.143-3.237-0.19c-1.095-0.048-2.237-0.095-3.379-0.095H155.5c0,1.047,0,2.047,0,2.999s0,1.856,0,2.713v1.047
		h0.478c0.855,0,1.76,0,2.809-0.048c0.999-0.047,2.094-0.095,3.236-0.143c0,0.189,0,0.332-0.049,0.477c0,0.143,0,0.238,0,0.333
		s0,0.238,0,0.333c0.049,0.096,0.049,0.286,0.049,0.43c-0.43-0.049-1-0.144-1.666-0.144c-0.666-0.048-1.856-0.048-3.57-0.048H155.5
		v1.285c0,1.522,0,2.761,0,3.761c0,0.952,0,1.903,0,2.809h0.714c0.811,0,1.762,0,2.904-0.096c1.189-0.048,2.428-0.095,3.761-0.19
		c0,0.097,0,0.19,0,0.381c0,0.191,0,0.334,0,0.43c0,0.095,0,0.238,0,0.381c0,0.189,0,0.333,0,0.43
		c-0.524-0.049-1.096-0.049-1.762-0.049c-0.619,0-1.666,0-2.999,0c-1.381,0-2.428,0-3.143,0
		C154.263,109.923,153.597,109.921,152.978,109.969L152.978,109.969z M40.207,136.959l-0.143-0.762
		c1.333-0.19,2.285-0.666,2.809-1.476c0.476-0.811,0.762-2.429,0.762-4.855c0-3.477-0.048-6.569-0.096-9.33
		c-0.047-2.762-0.095-4.665-0.143-5.712c0,0.047,0.047,0.047,0.047,0.047c0.476,0.048,0.81,0.096,1.047,0.096
		c0.238,0,0.429-0.048,0.667-0.048c0.238-0.048,0.476-0.048,0.714-0.095c-0.048,0.856-0.048,1.854-0.095,2.95
		c0,1.144,0,2.429,0,3.903c0,1.951,0,3.951,0.047,5.95c0.048,1.999,0.048,3.047,0.048,3.047c0,2.047-0.429,3.57-1.333,4.521
		C43.682,136.197,42.207,136.769,40.207,136.959L40.207,136.959z M54.536,124.868c0.095,0,0.38,0,0.857,0c0.476,0,0.904,0,1.237,0
		c0.286,0,0.857,0,1.666,0c0.857,0,1.523,0,2.095,0l-0.476-1.19c-0.095-0.19-0.286-0.666-0.571-1.381
		c-0.333-0.714-0.952-2.094-1.809-4.141L54.536,124.868L54.536,124.868z M49.394,133.246c1.714-3.713,3.285-7.046,4.666-10.093
		c1.38-3.047,2.713-5.949,3.903-8.663h0.523c1.285,3.143,2.618,6.284,3.951,9.378c1.333,3.142,2.713,6.283,4.094,9.378
		c-0.238-0.048-0.476-0.097-0.714-0.097c-0.19-0.047-0.429-0.047-0.619-0.047c-0.238,0-0.476,0-0.667,0.047
		c-0.238,0-0.476,0.049-0.762,0.097c-0.333-1-0.667-2-1.095-3.047c-0.38-1-0.809-2.048-1.285-3.095l-0.476-1.095
		c-0.381,0-0.809,0-1.285,0c-0.476-0.048-1.19-0.048-2.094-0.048c-0.952,0-1.714,0-2.142,0.048c-0.477,0-0.905,0-1.333,0
		c-0.429,0.999-0.857,2.095-1.333,3.236s-0.952,2.476-1.523,3.999c-0.143-0.048-0.286-0.096-0.476-0.096
		c-0.143-0.049-0.286-0.049-0.428-0.049c-0.143,0-0.286,0-0.428,0.049C49.68,133.149,49.537,133.198,49.394,133.246L49.394,133.246z
		 M83.763,132.056c-0.714,0.523-1.571,0.904-2.618,1.144c-1.047,0.237-2.237,0.381-3.618,0.381c-3.094,0-5.475-0.81-7.14-2.476
		c-1.714-1.666-2.571-4.047-2.571-7.045c0-2.951,0.952-5.236,2.809-6.998c1.856-1.713,4.379-2.57,7.521-2.57
		c1.095,0,2.142,0.096,3.142,0.285c1,0.238,1.952,0.572,2.809,1c-0.143,0.477-0.238,0.904-0.333,1.332
		c-0.047,0.43-0.095,0.857-0.095,1.238c-0.667-1-1.428-1.714-2.333-2.189c-0.904-0.477-1.999-0.715-3.284-0.715
		c-2.333,0-4.142,0.763-5.427,2.285c-1.286,1.477-1.952,3.619-1.952,6.332c0,2.666,0.667,4.713,1.952,6.235s2.999,2.237,5.236,2.237
		c1.047,0,2.095-0.19,3.094-0.571c1.047-0.381,2.047-0.952,2.952-1.666L83.763,132.056L83.763,132.056z M96.33,132.579
		c2.381,0,4.237-0.762,5.522-2.237c1.285-1.475,1.951-3.569,1.951-6.282c0-2.81-0.666-4.951-1.951-6.379
		c-1.238-1.477-3.096-2.189-5.522-2.189c-2.427,0-4.236,0.762-5.569,2.236c-1.285,1.523-1.904,3.666-1.904,6.426
		c0,2.715,0.619,4.81,1.904,6.236C92.046,131.865,93.903,132.579,96.33,132.579L96.33,132.579z M95.711,134.008
		c-1.428,0-6.284-0.144-10.139,2.142c1.428-1.998,3.046-3.047,4.427-3.142c0.333-0.618-0.809-1.666-1.19-1.999
		c-0.952-0.904-1.619-1.904-2.094-3.047c-0.429-1.095-0.667-2.428-0.667-3.902c0-2.903,0.952-5.236,2.809-6.951
		c1.856-1.76,4.332-2.617,7.473-2.617c3.142,0,5.616,0.857,7.426,2.57c1.856,1.762,2.763,4.047,2.763,6.998
		c0,2.284-0.572,4.235-1.811,5.808c-3.665,4.713-4.427,1.095-0.809,3.998c1.142,0.905,12.52,9.616,23.086,3.95
		c-2.332,1.382-1.047,3.096-9.521,4.048c-5.76-0.382-10.187-2.571-12.521-4.284C102.376,135.722,98.425,134.008,95.711,134.008
		L95.711,134.008z M108.851,114.824c0.143,0.047,0.381,0.047,0.57,0.047c0.189,0.048,0.381,0.048,0.619,0.048
		c0.285,0,0.523,0,0.714-0.048c0.238,0,0.429-0.047,0.619-0.047c-0.048,2.284-0.097,4.331-0.097,6.141s-0.047,2.999-0.047,3.665
		c0,1.618,0.144,2.904,0.334,3.762c0.236,0.809,0.57,1.522,1.095,2.094c0.476,0.619,1.143,1.096,1.903,1.381
		c0.762,0.334,1.666,0.477,2.619,0.477c0.998,0,1.855-0.189,2.664-0.477c0.811-0.333,1.43-0.811,1.952-1.428
		c0.476-0.571,0.856-1.381,1.048-2.285c0.189-0.952,0.285-2.57,0.285-4.903c0-1.522,0-2.999,0-4.379
		c-0.048-1.381-0.048-2.761-0.096-4.046c0.143,0.047,0.285,0.047,0.429,0.047c0.144,0.048,0.285,0.048,0.429,0.048
		c0.19,0,0.334,0,0.477-0.048c0.143,0,0.285-0.047,0.429-0.047c-0.048,1.047-0.048,2.047-0.096,2.951
		c0,0.904-0.048,1.522-0.048,1.951v0.713c0,3.429-0.047,5.761-0.237,6.998s-0.478,2.237-0.905,2.951
		c-0.617,1.049-1.521,1.856-2.664,2.381c-1.096,0.523-2.477,0.81-4.095,0.81c-2.762,0-4.761-0.666-6.046-1.951
		c-1.236-1.286-1.855-3.333-1.855-6.188c0-0.096,0-0.762,0.047-2c0.049-1.236,0.049-2.428,0.049-3.521
		c0-0.855-0.049-2.284-0.096-4.379C108.851,115.252,108.851,114.967,108.851,114.824L108.851,114.824z M128.748,133.246
		c0.095-1.144,0.144-2.476,0.19-3.999s0.047-3.332,0.047-5.428c0-1.95,0-3.664-0.047-5.092c-0.049-1.477-0.097-2.763-0.19-3.903
		c0.38,0,0.81,0,1.285,0.047c0.476,0,1.188,0,2.142,0c1.285,0,2.428,0,3.381,0c1-0.047,1.998-0.047,2.998-0.047
		c0,0.095,0,0.19,0,0.381c0,0.188,0,0.285,0,0.381c0,0.095,0,0.237,0,0.38c0,0.19,0,0.334,0,0.43
		c-1.047-0.096-2.095-0.144-3.236-0.19c-1.096-0.048-2.189-0.095-3.332-0.095h-0.666c0,1.047,0,2.047-0.049,2.998
		c0,0.951,0,1.856,0,2.714v1.047h0.523c0.811,0,1.762,0,2.762-0.047c1.047-0.048,2.094-0.097,3.284-0.144
		c-0.048,0.189-0.048,0.333-0.048,0.477c0,0.095,0,0.238,0,0.332c0,0.097,0,0.238,0,0.334s0,0.238,0.048,0.429
		c-0.478-0.097-1-0.144-1.666-0.144c-0.667-0.047-1.856-0.047-3.618-0.047h-1.285v1.284c0,1.523,0,2.761,0,3.714
		c0.049,1,0.049,1.903,0.049,2.855h0.714c0.762,0,1.761-0.048,2.903-0.096c1.143-0.047,2.381-0.096,3.76-0.189
		c0,0.096,0,0.189-0.047,0.38c0,0.191,0,0.334,0,0.429c0,0.097,0,0.19,0,0.381c0.047,0.19,0.047,0.334,0.047,0.43
		c-0.522-0.048-1.143-0.048-1.76-0.048c-0.668,0-1.668-0.048-3-0.048c-1.381,0-2.428,0.048-3.142,0.048
		C130.08,133.198,129.366,133.198,128.748,133.246L128.748,133.246z M143.457,132.151c0.144-0.478,0.285-0.952,0.381-1.43
		c0.144-0.476,0.19-0.951,0.238-1.428c0.38,1,0.999,1.809,1.809,2.38c0.81,0.524,1.761,0.81,2.761,0.81
		c1.189,0,2.189-0.332,2.903-1.047c0.716-0.715,1.095-1.713,1.095-2.903c0-0.81-0.236-1.476-0.617-1.999
		c-0.43-0.523-1.144-1-2.19-1.381l-2.284-0.904c-1.285-0.523-2.189-1.143-2.809-1.855c-0.571-0.763-0.857-1.619-0.857-2.713
		c0-1.523,0.524-2.763,1.619-3.715c1.096-0.999,2.521-1.476,4.236-1.476c0.762,0,1.476,0.096,2.142,0.237
		c0.716,0.19,1.382,0.43,2.095,0.763c-0.143,0.286-0.285,0.618-0.428,0.952c-0.144,0.332-0.238,0.714-0.381,1.143
		c-0.477-0.714-1.048-1.238-1.666-1.57c-0.667-0.334-1.381-0.523-2.143-0.523c-1.047,0-1.856,0.285-2.428,0.904
		c-0.619,0.57-0.904,1.429-0.904,2.428c0,0.762,0.189,1.381,0.619,1.904c0.428,0.476,1.142,0.951,2.188,1.379l2.237,0.953
		c1.333,0.57,2.285,1.189,2.809,1.903c0.571,0.763,0.856,1.666,0.856,2.81c0,1.713-0.618,3.142-1.81,4.188
		c-1.189,1.095-2.809,1.618-4.808,1.618c-0.905,0-1.763-0.096-2.571-0.381C144.789,132.96,144.076,132.627,143.457,132.151
		L143.457,132.151z"/>
	<path fill="none" stroke="#FFFFFF" stroke-width="0.1428" stroke-miterlimit="2.6131" d="M46.776,108.588
		c-0.81,0.619-1.856,1.047-3.046,1.333c-1.238,0.285-2.619,0.43-4.189,0.43c-3.618,0-6.426-0.953-8.378-2.904
		s-2.951-4.665-2.951-8.188c0-3.427,1.095-6.141,3.237-8.14c2.189-2.047,5.141-3.047,8.807-3.047c1.237,0,2.475,0.143,3.665,0.381
		c1.143,0.238,2.237,0.619,3.285,1.143c-0.19,0.523-0.286,1.047-0.381,1.571c-0.095,0.476-0.143,0.952-0.143,1.428
		c-0.762-1.143-1.666-2-2.761-2.571c-1.047-0.523-2.285-0.81-3.808-0.81c-2.713,0-4.808,0.905-6.331,2.666
		c-1.476,1.714-2.237,4.189-2.237,7.378c0,3.094,0.762,5.521,2.237,7.283c1.475,1.762,3.522,2.618,6.093,2.618
		c1.237,0,2.428-0.238,3.665-0.667c1.19-0.428,2.333-1.096,3.428-1.951L46.776,108.588L46.776,108.588z M50.204,109.969
		c0.047-1.571,0.095-3.143,0.143-4.665c0.047-1.522,0.047-3.047,0.047-4.521c0-1.666,0-3.285-0.047-4.76
		c-0.048-1.524-0.048-3-0.143-4.475c0.238,0.047,0.429,0.047,0.619,0.095c0.238,0,0.477,0,0.714,0c0.237,0,0.476,0,0.666,0
		c0.238-0.048,0.429-0.048,0.619-0.095c-0.095,1.761-0.143,3.427-0.19,5.045c-0.047,1.619-0.047,3.142-0.047,4.522
		c0,1.428,0,2.809,0.047,3.998c0,1.238,0.048,2.429,0.095,3.57c0.19,0,0.428,0.047,0.667,0.047c0.238,0,0.667,0,1.238,0
		c1.19,0,2.285-0.047,3.189-0.095c0.952-0.096,1.762-0.19,2.476-0.333c0,0.096-0.047,0.237-0.047,0.381c0,0.19,0,0.334,0,0.428
		c0,0.097,0,0.238,0,0.43c0,0.143,0,0.333,0,0.429c-1.619-0.048-2.952-0.048-4.046-0.096c-1.047,0-1.857,0-2.38,0
		c-0.667,0-1.285,0-1.856,0C51.346,109.921,50.775,109.921,50.204,109.969L50.204,109.969z M64.104,109.969
		c0.095-1.143,0.143-2.476,0.19-3.999c0.048-1.476,0.048-3.332,0.048-5.427c0-1.951,0-3.665-0.048-5.093
		c-0.047-1.476-0.095-2.761-0.19-3.903c0.381,0,0.809,0.047,1.285,0.047c0.429,0,1.143,0,2.142,0c1.285,0,2.38,0,3.38,0
		s2-0.047,2.999-0.047c0,0.095,0,0.19,0,0.381c0,0.19-0.047,0.286-0.047,0.428c0,0.048,0.047,0.19,0.047,0.381
		c0,0.143,0,0.286,0,0.381c-1.047-0.095-2.142-0.143-3.237-0.19c-1.095-0.048-2.237-0.095-3.379-0.095h-0.667
		c0,1.047,0,2.047,0,2.999s0,1.856,0,2.713v1.047h0.476c0.856,0,1.761,0,2.809-0.048c1-0.047,2.094-0.095,3.237-0.143
		c0,0.189-0.047,0.332-0.047,0.477c0,0.143,0,0.238,0,0.333s0,0.238,0,0.333c0,0.096,0.047,0.286,0.047,0.43
		c-0.429-0.049-1-0.144-1.666-0.144c-0.667-0.048-1.856-0.048-3.57-0.048h-1.285v1.285c0,1.522,0,2.761,0,3.761
		c0,0.952,0,1.903,0,2.809h0.714c0.809,0,1.762,0,2.904-0.096c1.19-0.048,2.428-0.095,3.761-0.19c0,0.097,0,0.19,0,0.381
		c0,0.191,0,0.334,0,0.43c0,0.095,0,0.238,0,0.381c0,0.189,0,0.333,0,0.43c-0.524-0.049-1.095-0.049-1.761-0.049
		c-0.619,0-1.666,0-2.999,0c-1.38,0-2.428,0-3.142,0C65.389,109.921,64.722,109.921,64.104,109.969L64.104,109.969z M77.48,109.969
		c0.333-1.477,0.761-3.666,1.19-6.475c0.428-2.81,1-6.902,1.666-12.281h0.476c1.666,3.189,3.094,5.95,4.332,8.235
		c1.19,2.332,2.38,4.427,3.475,6.379c1.238-2.047,2.476-4.284,3.808-6.664c1.381-2.381,2.809-5.046,4.427-7.95h0.334
		c0.285,2.38,0.57,4.998,0.903,7.902c0.333,2.903,0.763,6.521,1.285,10.854c-0.19-0.048-0.429-0.096-0.619-0.096
		c-0.19-0.048-0.428-0.048-0.618-0.048c-0.189,0-0.381,0-0.57,0.048c-0.19,0-0.43,0.048-0.668,0.096
		c-0.236-3.188-0.476-5.95-0.713-8.331c-0.286-2.38-0.523-4.094-0.714-5.141c-1.714,2.809-3.237,5.379-4.475,7.759
		c-1.285,2.38-2.142,4.284-2.666,5.665h-0.381c-0.19-0.714-0.523-1.477-0.904-2.333c-0.429-0.856-1-1.95-1.714-3.284l-4.332-7.759
		c-0.429,2.903-0.762,5.474-1,7.808c-0.238,2.332-0.381,4.188-0.381,5.616c-0.19-0.048-0.38-0.096-0.523-0.096
		c-0.19-0.048-0.333-0.048-0.476-0.048c-0.19,0-0.381,0-0.523,0.048C77.908,109.873,77.718,109.921,77.48,109.969L77.48,109.969z
		 M102.231,109.969c0.097-1.143,0.145-2.476,0.191-3.999c0.047-1.476,0.047-3.332,0.047-5.427c0-1.951,0-3.665-0.047-5.093
		c-0.048-1.476-0.096-2.761-0.191-3.903c0.383,0,0.811,0.047,1.287,0.047c0.428,0,1.143,0,2.142,0c1.284,0,2.381,0,3.38,0
		c1,0,1.999-0.047,2.999-0.047c0,0.095,0,0.19,0,0.381c0,0.19-0.048,0.286-0.048,0.428c0,0.048,0.048,0.19,0.048,0.381
		c0,0.143,0,0.286,0,0.381c-1.047-0.095-2.144-0.143-3.237-0.19c-1.095-0.048-2.236-0.095-3.379-0.095h-0.667
		c0,1.047,0,2.047,0,2.999s0,1.856,0,2.713v1.047h0.478c0.855,0,1.761,0,2.809-0.048c0.999-0.047,2.094-0.095,3.236-0.143
		c0,0.189-0.049,0.332-0.049,0.477c0,0.143,0,0.238,0,0.333s0,0.238,0,0.333c0,0.096,0.049,0.286,0.049,0.43
		c-0.43-0.049-1-0.144-1.666-0.144c-0.666-0.048-1.856-0.048-3.57-0.048h-1.285v1.285c0,1.522,0,2.761,0,3.761
		c0,0.952,0,1.903,0,2.809h0.715c0.809,0,1.762,0,2.903-0.096c1.144-0.048,2.429-0.095,3.761-0.19c0,0.097,0,0.19,0,0.381
		c0,0.191,0,0.334,0,0.43c0,0.095,0,0.238,0,0.381c0,0.189,0,0.333,0,0.43c-0.523-0.049-1.096-0.049-1.762-0.049s-1.666,0-2.999,0
		c-1.381,0-2.429,0-3.142,0C103.519,109.923,102.853,109.921,102.231,109.969L102.231,109.969z M115.8,109.921
		c0.143-2.38,0.19-4.951,0.285-7.568c0.048-2.666,0.096-5.428,0.096-8.283v-2.856h0.523c1.952,2.237,4.046,4.474,6.236,6.711
		c2.142,2.285,4.617,4.762,7.377,7.475c0-0.096,0.049-0.238,0.049-0.43c0-0.904,0.047-1.57,0.047-1.951
		c0-2.188-0.047-4.236-0.096-6.188c-0.047-1.952-0.094-3.713-0.189-5.284c0.285,0.047,0.477,0.047,0.571,0.095
		c0.143,0,0.237,0,0.333,0c0.143,0,0.238,0,0.381,0c0.145-0.048,0.286-0.048,0.523-0.095c-0.096,2.047-0.144,4.141-0.19,6.236
		c-0.047,2.095-0.047,4.235-0.047,6.427c0,0.762,0,1.618,0,2.521c0,0.904,0.047,2.096,0.047,3.57h-0.333
		c-0.855-1-1.855-2.143-3.047-3.428c-1.143-1.236-2.522-2.665-4.094-4.284l-6.713-6.854c0,0.19-0.047,0.714-0.047,1.523
		c-0.048,0.856-0.048,1.477-0.048,1.999c0,1.095,0,2.476,0.048,4.189c0.047,1.713,0.144,3.854,0.19,6.474
		c-0.144,0-0.334-0.048-0.478-0.048c-0.143-0.048-0.332-0.048-0.476-0.048s-0.286,0-0.429,0.048
		C116.181,109.873,115.99,109.921,115.8,109.921L115.8,109.921z M140.506,109.969c0.048-2.237,0.095-4.38,0.144-6.521
		c0-2.096,0.047-4.143,0.047-6.141v-4.523h-0.762c-1.096,0-2.095,0.048-2.951,0.095c-0.856,0.048-1.57,0.143-2.189,0.238
		c0.048-0.143,0.048-0.286,0.048-0.429c0-0.095,0.048-0.19,0.048-0.285c0-0.143-0.048-0.238-0.048-0.381
		c0-0.095,0-0.285-0.048-0.476c1.096,0.047,2.143,0.047,3.237,0.047c1.143,0,2.237,0.048,3.427,0.048s2.381-0.048,3.618-0.048
		s2.476-0.047,3.761-0.047c0,0.095-0.048,0.19-0.048,0.286c0,0.096,0,0.285,0,0.476c0,0.238,0,0.38,0,0.523
		c0,0.095,0.048,0.19,0.048,0.286c-0.619-0.095-1.333-0.19-2.143-0.238c-0.81-0.047-1.715-0.095-2.762-0.095l-0.81,0.048
		c-0.047,0.762-0.095,1.619-0.095,2.57c-0.049,0.953-0.049,2.094-0.049,3.427c0,1.714,0,3.521,0.049,5.38
		c0.048,1.856,0.048,3.76,0.095,5.76c-0.19-0.048-0.381-0.048-0.618-0.096c-0.189,0-0.429,0-0.619,0c-0.238,0-0.429,0-0.666,0
		C140.981,109.921,140.743,109.921,140.506,109.969L140.506,109.969z M152.978,109.969c0.096-1.143,0.144-2.476,0.19-3.999
		c0.047-1.476,0.047-3.332,0.047-5.427c0-1.951,0-3.665-0.047-5.093c-0.048-1.476-0.097-2.761-0.19-3.903
		c0.381,0,0.81,0.047,1.285,0.047c0.428,0,1.144,0,2.143,0c1.285,0,2.381,0,3.38,0c1,0,1.999-0.047,2.999-0.047
		c0,0.095,0,0.19,0,0.381c0,0.19-0.049,0.286-0.049,0.428c0,0.048,0.049,0.19,0.049,0.381c0,0.143,0,0.286,0,0.381
		c-1.047-0.095-2.143-0.143-3.237-0.19c-1.095-0.048-2.237-0.095-3.379-0.095H155.5c0,1.047,0,2.047,0,2.999s0,1.856,0,2.713v1.047
		h0.478c0.855,0,1.76,0,2.809-0.048c0.999-0.047,2.094-0.095,3.236-0.143c0,0.189-0.049,0.332-0.049,0.477c0,0.143,0,0.238,0,0.333
		s0,0.238,0,0.333c0,0.096,0.049,0.286,0.049,0.43c-0.43-0.049-1-0.144-1.666-0.144c-0.666-0.048-1.856-0.048-3.57-0.048H155.5
		v1.285c0,1.522,0,2.761,0,3.761c0,0.952,0,1.903,0,2.809h0.714c0.811,0,1.762,0,2.904-0.096c1.189-0.048,2.428-0.095,3.761-0.19
		c0,0.097,0,0.19,0,0.381c0,0.191,0,0.334,0,0.43c0,0.095,0,0.238,0,0.381c0,0.189,0,0.333,0,0.43
		c-0.524-0.049-1.096-0.049-1.762-0.049c-0.619,0-1.666,0-2.999,0c-1.381,0-2.428,0-3.143,0
		C154.263,109.923,153.597,109.921,152.978,109.969L152.978,109.969z M40.207,136.959l-0.143-0.762
		c1.333-0.19,2.285-0.666,2.809-1.476c0.476-0.811,0.762-2.429,0.762-4.855c0-3.477-0.048-6.569-0.096-9.33
		c-0.047-2.762-0.095-4.665-0.143-5.712l0.047,0.047c0.476,0.048,0.81,0.096,1.047,0.096c0.238,0,0.429-0.048,0.667-0.048
		c0.238-0.048,0.476-0.048,0.714-0.095c-0.048,0.856-0.048,1.854-0.095,2.95c0,1.144,0,2.429,0,3.903c0,1.951,0,3.951,0.047,5.95
		c0.048,1.999,0.048,3.047,0.048,3.047c0,2.047-0.429,3.57-1.333,4.521C43.682,136.197,42.207,136.769,40.207,136.959
		L40.207,136.959z M54.536,124.868c0.095,0,0.38,0,0.857,0c0.476,0,0.904,0,1.237,0c0.286,0,0.857,0,1.666,0
		c0.857,0,1.523,0,2.095,0l-0.476-1.19c-0.095-0.19-0.286-0.666-0.571-1.381c-0.333-0.714-0.952-2.094-1.809-4.141L54.536,124.868
		L54.536,124.868z M49.394,133.246c1.714-3.713,3.285-7.046,4.666-10.093c1.38-3.047,2.713-5.949,3.903-8.663h0.523
		c1.285,3.143,2.618,6.284,3.951,9.378c1.333,3.142,2.713,6.283,4.094,9.378c-0.238-0.048-0.476-0.097-0.714-0.097
		c-0.19-0.047-0.429-0.047-0.619-0.047c-0.238,0-0.476,0-0.667,0.047c-0.238,0-0.476,0.049-0.762,0.097
		c-0.333-1-0.667-2-1.095-3.047c-0.38-1-0.809-2.048-1.285-3.095l-0.476-1.095c-0.381,0-0.809,0-1.285,0
		c-0.476-0.048-1.19-0.048-2.094-0.048c-0.952,0-1.714,0-2.142,0.048c-0.477,0-0.905,0-1.333,0
		c-0.429,0.999-0.857,2.095-1.333,3.236s-0.952,2.476-1.523,3.999c-0.143-0.048-0.286-0.096-0.476-0.096
		c-0.143-0.049-0.286-0.049-0.428-0.049c-0.143,0-0.286,0-0.428,0.049C49.68,133.149,49.537,133.198,49.394,133.246L49.394,133.246z
		 M83.763,132.056c-0.714,0.523-1.571,0.904-2.618,1.144c-1.047,0.237-2.237,0.381-3.618,0.381c-3.094,0-5.475-0.81-7.14-2.476
		c-1.714-1.666-2.571-4.047-2.571-7.045c0-2.951,0.952-5.236,2.809-6.998c1.856-1.713,4.379-2.57,7.521-2.57
		c1.095,0,2.142,0.096,3.142,0.285c1,0.238,1.952,0.572,2.809,1c-0.143,0.477-0.238,0.904-0.333,1.332
		c-0.047,0.43-0.095,0.857-0.095,1.238c-0.667-1-1.428-1.714-2.333-2.189c-0.904-0.477-1.999-0.715-3.284-0.715
		c-2.333,0-4.142,0.763-5.427,2.285c-1.286,1.477-1.952,3.619-1.952,6.332c0,2.666,0.667,4.713,1.952,6.235s2.999,2.237,5.236,2.237
		c1.047,0,2.095-0.19,3.094-0.571c1.047-0.381,2.047-0.952,2.952-1.666L83.763,132.056L83.763,132.056z M96.33,132.579
		c2.381,0,4.237-0.762,5.522-2.237c1.285-1.475,1.951-3.569,1.951-6.282c0-2.81-0.666-4.951-1.951-6.379
		c-1.238-1.477-3.096-2.189-5.522-2.189c-2.427,0-4.236,0.762-5.569,2.236c-1.285,1.523-1.904,3.666-1.904,6.426
		c0,2.715,0.619,4.81,1.904,6.236C92.046,131.865,93.903,132.579,96.33,132.579L96.33,132.579z M95.711,134.008
		c-1.428,0-6.284-0.144-10.139,2.142c1.428-1.998,3.046-3.047,4.427-3.142c0.333-0.618-0.809-1.666-1.19-1.999
		c-0.952-0.904-1.619-1.904-2.094-3.047c-0.429-1.095-0.667-2.428-0.667-3.902c0-2.903,0.952-5.236,2.809-6.951
		c1.856-1.76,4.332-2.617,7.473-2.617c3.142,0,5.616,0.857,7.426,2.57c1.856,1.762,2.763,4.047,2.763,6.998
		c0,2.284-0.572,4.235-1.811,5.808c-3.665,4.713-4.427,1.095-0.809,3.998c1.142,0.905,12.52,9.616,23.086,3.95
		c-2.332,1.382-1.047,3.096-9.521,4.048c-5.76-0.382-10.187-2.571-12.521-4.284C102.376,135.722,98.425,134.008,95.711,134.008
		L95.711,134.008z M108.851,114.824c0.143,0.047,0.381,0.047,0.57,0.047c0.189,0.048,0.381,0.048,0.619,0.048
		c0.285,0,0.523,0,0.714-0.048c0.238,0,0.429-0.047,0.619-0.047c-0.048,2.284-0.097,4.331-0.097,6.141s-0.047,2.999-0.047,3.665
		c0,1.618,0.144,2.904,0.334,3.762c0.236,0.809,0.57,1.522,1.095,2.094c0.476,0.619,1.143,1.096,1.903,1.381
		c0.762,0.334,1.666,0.477,2.619,0.477c0.998,0,1.855-0.189,2.664-0.477c0.811-0.333,1.43-0.811,1.952-1.428
		c0.476-0.571,0.856-1.381,1.048-2.285c0.189-0.952,0.285-2.57,0.285-4.903c0-1.522,0-2.999,0-4.379
		c-0.048-1.381-0.048-2.761-0.096-4.046c0.143,0.047,0.285,0.047,0.429,0.047c0.144,0.048,0.285,0.048,0.429,0.048
		c0.19,0,0.334,0,0.477-0.048c0.143,0,0.285-0.047,0.429-0.047c-0.048,1.047-0.048,2.047-0.096,2.951
		c0,0.904-0.048,1.522-0.048,1.951v0.713c0,3.429-0.047,5.761-0.237,6.998s-0.478,2.237-0.905,2.951
		c-0.617,1.049-1.521,1.856-2.664,2.381c-1.096,0.523-2.477,0.81-4.095,0.81c-2.762,0-4.761-0.666-6.046-1.951
		c-1.236-1.286-1.855-3.333-1.855-6.188c0-0.096,0-0.762,0.047-2c0.049-1.236,0.049-2.428,0.049-3.521
		c0-0.855-0.049-2.284-0.096-4.379C108.851,115.252,108.851,114.967,108.851,114.824L108.851,114.824z M128.748,133.246
		c0.095-1.144,0.144-2.476,0.19-3.999s0.047-3.332,0.047-5.428c0-1.95,0-3.664-0.047-5.092c-0.049-1.477-0.097-2.763-0.19-3.903
		c0.38,0,0.81,0,1.285,0.047c0.476,0,1.188,0,2.142,0c1.285,0,2.428,0,3.381,0c1-0.047,1.998-0.047,2.998-0.047
		c0,0.095,0,0.19,0,0.381c0,0.188,0,0.285,0,0.381c0,0.095,0,0.237,0,0.38c0,0.19,0,0.334,0,0.43
		c-1.047-0.096-2.095-0.144-3.236-0.19c-1.096-0.048-2.189-0.095-3.332-0.095h-0.666c0,1.047-0.049,2.047-0.049,2.998
		s0,1.856,0,2.714v1.047h0.523c0.811,0,1.762,0,2.762-0.047c1.047-0.048,2.094-0.097,3.284-0.144
		c-0.048,0.189-0.048,0.333-0.048,0.477c0,0.095,0,0.238,0,0.332c0,0.097,0,0.238,0,0.334s0,0.238,0.048,0.429
		c-0.478-0.097-1-0.144-1.666-0.144c-0.667-0.047-1.856-0.047-3.618-0.047h-1.285v1.284c0,1.523,0,2.761,0,3.714
		c0,1,0.049,1.903,0.049,2.855h0.714c0.762,0,1.761-0.048,2.903-0.096c1.143-0.047,2.381-0.096,3.76-0.189
		c0,0.096-0.047,0.189-0.047,0.38c0,0.191,0,0.334,0,0.429c0,0.097,0,0.19,0,0.381c0,0.191,0.047,0.334,0.047,0.43
		c-0.522-0.048-1.143-0.048-1.76-0.048c-0.668,0-1.668-0.048-3-0.048c-1.381,0-2.428,0.048-3.142,0.048
		C130.08,133.198,129.366,133.198,128.748,133.246L128.748,133.246z M143.457,132.151c0.144-0.478,0.285-0.952,0.381-1.43
		c0.144-0.476,0.19-0.951,0.238-1.428c0.38,1,0.999,1.809,1.809,2.38c0.81,0.524,1.761,0.81,2.761,0.81
		c1.189,0,2.189-0.332,2.903-1.047c0.716-0.715,1.095-1.713,1.095-2.903c0-0.81-0.236-1.476-0.617-1.999
		c-0.43-0.523-1.144-1-2.19-1.381l-2.284-0.904c-1.285-0.523-2.189-1.143-2.809-1.855c-0.571-0.763-0.857-1.619-0.857-2.713
		c0-1.523,0.524-2.763,1.619-3.715c1.096-0.999,2.521-1.476,4.236-1.476c0.762,0,1.476,0.096,2.142,0.237
		c0.716,0.19,1.382,0.43,2.095,0.763c-0.143,0.286-0.285,0.618-0.428,0.952c-0.144,0.332-0.238,0.714-0.381,1.143
		c-0.477-0.714-1.048-1.238-1.666-1.57c-0.667-0.334-1.381-0.523-2.143-0.523c-1.047,0-1.856,0.285-2.428,0.904
		c-0.619,0.57-0.904,1.429-0.904,2.428c0,0.762,0.189,1.381,0.619,1.904c0.428,0.476,1.142,0.951,2.188,1.379l2.237,0.953
		c1.333,0.57,2.285,1.189,2.809,1.903c0.571,0.763,0.856,1.666,0.856,2.81c0,1.713-0.618,3.142-1.81,4.188
		c-1.189,1.095-2.809,1.618-4.808,1.618c-0.905,0-1.763-0.096-2.571-0.381C144.789,132.96,144.076,132.627,143.457,132.151
		L143.457,132.151z"/>
	<path fill="#ED1C24" stroke="#ED1C24" stroke-width="0.1428" stroke-miterlimit="2.6131" d="M85.191,140.862
		c14.852-12.805,21.517,8.807,40.128,0C109.851,153.524,100.043,132.627,85.191,140.862L85.191,140.862z"/>
</g>
</svg>
