<?xml version="1.0" encoding="utf-8"?>
<!-- Generator: Adobe Illustrator 16.0.0, SVG Export Plug-In . SVG Version: 6.00 Build 0)  -->
<!DOCTYPE svg PUBLIC "-//W3C//DTD SVG 1.1//EN" "http://www.w3.org/Graphics/SVG/1.1/DTD/svg11.dtd">
<svg version="1.1" id="Layer_1" xmlns="http://www.w3.org/2000/svg" xmlns:xlink="http://www.w3.org/1999/xlink" x="0px" y="0px"
	 width="164.805px" height="163.764px" viewBox="13.975 14.496 164.805 163.764"
	 enable-background="new 13.975 14.496 164.805 163.764" xml:space="preserve">
<g>
	<path fill="#939598" d="M96.367,46.619c27.651,0,50.29,22.639,50.29,50.271v67.457H46.099V96.89
		C46.099,69.258,68.737,46.619,96.367,46.619L96.367,46.619z"/>
	<path fill="#939598" d="M174.224,174.092c-0.652,0-1.15,0.498-1.15,1.15c0,0.543,0.412,0.955,0.977,0.955
		c0.629,0,1.172-0.544,1.172-1.193C175.222,174.438,174.83,174.092,174.224,174.092L174.224,174.092z"/>
	<path fill="#939598" d="M170.056,175.222l-0.218,0.866c-0.237,0.935-0.76,1.347-1.845,1.347c-0.717,0-1.193-0.367-1.193-0.804
		c0-0.151,0.021-0.303,0.107-0.434l-0.194-0.152l-1.172,1.455c0.521,0.521,1.39,0.76,2.626,0.76c1.105,0,1.997-0.262,2.691-0.868
		c0.716-0.586,0.847-1.281,0.998-2.019l0.91-4.32h-1.888l-0.456,2.148c-0.26,1.26-0.693,1.889-1.302,1.889
		c-0.218,0-0.304-0.106-0.304-0.369c0-0.106,0.021-0.237,0.043-0.391l0.521-2.451c0.021-0.108,0.043-0.262,0.043-0.457
		c0-0.174-0.065-0.369-0.218-0.521l-2.277,0.305v0.26h0.064c0.281,0,0.412,0.174,0.412,0.521c0,0.131,0,0.26-0.021,0.412
		l-0.435,1.975c-0.065,0.348-0.13,0.631-0.13,0.869c0,0.607,0.369,0.955,1.041,0.955
		C168.666,176.197,169.383,175.871,170.056,175.222L170.056,175.222z"/>
	<path fill="#939598" d="M164.716,176.153l1.498-0.911l-0.087-0.218c-0.108,0.021-0.239,0.021-0.306,0.021
		c-0.303,0-0.477-0.195-0.477-0.543c0-0.152,0.043-0.326,0.086-0.543l0.282-1.496c0.044-0.24,0.087-0.436,0.087-0.586
		c0-0.631-0.629-0.979-1.822-0.979c-1.086,0-1.758,0.305-2.041,0.305c-0.107,0-0.217-0.064-0.324-0.152l-0.543,1.824l0.195,0.021
		c0.412-0.674,1.149-1.215,2.104-1.215c0.392,0,0.586,0.129,0.586,0.434c0,0.086-0.021,0.217-0.065,0.369l-0.063,0.281
		c-2.322,0.217-3.562,1.063-3.562,2.192c0,0.781,0.521,1.235,1.478,1.235c0.606,0,1.172-0.26,1.802-0.76
		c0.195,0.5,0.521,0.717,1.02,0.717h0.152V176.153z"/>
	<path fill="#939598" d="M159.138,175.047l1.26-6.055l-2.713,0.303v0.238c0.412,0.088,0.586,0.194,0.586,0.436
		c0,0.044-0.021,0.107-0.021,0.15l-0.174,0.934h-0.848c-1.041,0-1.845,0.283-2.496,0.892c-0.693,0.629-1.084,1.541-1.084,2.344
		c0,0.674,0.324,1.238,0.847,1.477c0.563,0.26,1.149,0.281,1.845,0.281h3.189l0.066-0.281c-0.349-0.088-0.5-0.217-0.5-0.5
		C159.094,175.199,159.115,175.11,159.138,175.047L159.138,175.047z"/>
	<path fill="#939598" d="M150.542,175.222l-0.238,0.866c-0.238,0.935-0.76,1.347-1.822,1.347c-0.738,0-1.215-0.367-1.215-0.804
		c0-0.151,0.043-0.303,0.106-0.434l-0.173-0.152l-1.174,1.455c0.5,0.521,1.369,0.76,2.604,0.76c1.129,0,1.997-0.262,2.714-0.868
		c0.717-0.586,0.848-1.281,0.998-2.019l0.891-4.32h-1.889l-0.455,2.148c-0.262,1.26-0.695,1.889-1.281,1.889
		c-0.238,0-0.325-0.106-0.325-0.369c0-0.106,0.022-0.237,0.065-0.391l0.521-2.451c0.021-0.108,0.021-0.262,0.021-0.457
		c0-0.174-0.063-0.369-0.217-0.521l-2.257,0.305v0.26h0.065c0.26,0,0.412,0.174,0.412,0.521c0,0.131-0.022,0.26-0.045,0.412
		l-0.412,1.975c-0.086,0.348-0.129,0.631-0.129,0.869c0,0.607,0.367,0.955,1.041,0.955
		C149.131,176.197,149.869,175.871,150.542,175.222L150.542,175.222z"/>
	<path fill="#939598" d="M144.442,176.045l0.521-2.582c0.195-0.912,0.455-1.366,1.041-1.366c0.239,0,0.456,0.086,0.674,0.28
		l0.65-1.478c-0.064,0-0.13,0-0.219,0c-0.823,0-1.452,0.349-1.951,1.064c0.021-0.131,0.021-0.26,0.021-0.369
		c0-0.305-0.088-0.521-0.283-0.695l-2.041,0.306v0.26c0.349,0.021,0.5,0.175,0.5,0.5c0,0.086,0,0.218-0.021,0.369l-0.804,3.711
		H144.442L144.442,176.045z"/>
	<path fill="#939598" d="M141.383,175.914l0.804-1.779l-0.195-0.063c-0.477,0.824-1.063,1.236-1.692,1.236
		c-0.78,0-1.237-0.498-1.237-1.347c0-0.106,0-0.237,0.021-0.346c2.366-0.046,3.561-0.543,3.561-1.521
		c0-0.652-0.781-1.195-2.02-1.195c-0.934,0-1.803,0.326-2.432,0.869c-0.715,0.65-1.084,1.41-1.084,2.213
		c0,1.347,0.89,2.216,2.431,2.216C140.168,176.197,140.797,176.088,141.383,175.914L141.383,175.914z"/>
	<path fill="#939598" d="M132.181,172.397l-0.305,1.498c-0.043,0.281-0.15,0.543-0.15,0.847c0,0.891,0.629,1.434,1.735,1.434
		c0.998,0,1.91-0.477,2.496-1.323c0.478-0.65,0.716-1.478,0.716-2.388c0-0.737-0.195-1.26-0.607-1.563l-1.498,1.106l0.175,0.152
		h0.087c0.521,0,0.76,0.325,0.76,0.998c0,1.129-0.804,2.02-1.52,2.02c-0.282,0-0.479-0.174-0.479-0.456
		c0-0.064,0.021-0.107,0.021-0.175l0.586-2.668c0.021-0.108,0.044-0.262,0.044-0.457c0-0.174-0.087-0.369-0.239-0.521l-2.257,0.305
		v0.26h0.065c0.26,0,0.412,0.174,0.412,0.521C132.224,172.117,132.224,172.246,132.181,172.397L132.181,172.397z"/>
	<path fill="#939598" d="M125.321,174.938c-0.108,0.5-0.174,0.737-0.674,0.826l-0.043,0.28h4.731c0.282,0,0.563,0.021,0.824,0.131
		l1.129-2.538l-0.238-0.109c-0.868,1.215-1.737,1.758-2.864,1.758c-0.586,0-0.826-0.174-0.826-0.607c0-0.109,0.022-0.369,0.108-0.76
		l0.349-1.672c0.238-0.043,0.434-0.064,0.629-0.064c0.804,0,1.216,0.326,1.281,0.978h0.281v-2.433h-0.281
		c-0.088,0.631-0.392,0.761-1.107,0.761h-0.629l0.107-0.541c0.131-0.609,0.195-0.892,0.955-0.892c1.129,0,1.78,0.478,1.932,1.433
		h0.283l-0.088-2.191c-0.369,0.063-0.781,0.088-1.215,0.088h-4.06l-0.065,0.281c0.305,0,0.456,0.194,0.456,0.521
		c0,0.086-0.021,0.238-0.065,0.435L125.321,174.938L125.321,174.938z"/>
	<path fill="#939598" d="M115.944,176.065c0.174-0.086,0.326-0.129,0.455-0.129c0.392,0,1,0.261,1.824,0.261
		c1.779,0,2.887-1.021,2.887-2.128c0-0.586-0.368-0.997-1.086-1.26l-0.89-0.303c-0.391-0.131-0.587-0.24-0.587-0.479
		c0-0.239,0.239-0.412,0.695-0.412c0.716,0,1.259,0.391,1.41,1.021h0.195l0.131-1.737c-0.195,0.088-0.349,0.131-0.479,0.131
		c-0.369,0-0.868-0.131-1.411-0.131c-1.606,0-2.647,0.891-2.647,1.867c0,0.5,0.369,0.977,0.998,1.192l1.304,0.457
		c0.174,0.063,0.26,0.194,0.26,0.369c0,0.346-0.369,0.606-1.021,0.606c-0.889,0-1.52-0.586-1.605-1.498h-0.195L115.944,176.065
		L115.944,176.065z"/>
	<path fill="#939598" d="M110.497,176.065c0.174-0.086,0.324-0.129,0.456-0.129c0.412,0,0.998,0.261,1.821,0.261
		c1.803,0,2.889-1.021,2.889-2.128c0-0.586-0.348-0.997-1.064-1.26l-0.91-0.303c-0.392-0.131-0.586-0.24-0.586-0.479
		c0-0.239,0.237-0.412,0.717-0.412c0.716,0,1.236,0.391,1.41,1.021h0.194l0.108-1.737c-0.195,0.088-0.325,0.131-0.455,0.131
		c-0.393,0-0.868-0.131-1.434-0.131c-1.584,0-2.627,0.891-2.627,1.867c0,0.5,0.369,0.977,1,1.192l1.279,0.457
		c0.174,0.063,0.282,0.194,0.282,0.369c0,0.346-0.369,0.606-1.021,0.606c-0.912,0-1.541-0.586-1.605-1.498h-0.219L110.497,176.065
		L110.497,176.065z"/>
	<path fill="#939598" d="M109.39,175.914l0.805-1.779l-0.195-0.063c-0.479,0.824-1.062,1.236-1.715,1.236
		c-0.76,0-1.217-0.498-1.217-1.347c0-0.106,0-0.237,0.021-0.346c2.366-0.046,3.561-0.543,3.561-1.521
		c0-0.652-0.781-1.195-2.019-1.195c-0.935,0-1.803,0.326-2.432,0.869c-0.716,0.65-1.085,1.41-1.085,2.213
		c0,1.347,0.89,2.216,2.408,2.216C108.175,176.197,108.804,176.088,109.39,175.914L109.39,175.914z"/>
	<path fill="#939598" d="M100.426,176.045l0.456-2.147c0.262-1.258,0.674-1.89,1.28-1.89c0.239,0,0.325,0.109,0.325,0.392
		c0,0.088-0.021,0.217-0.043,0.369l-0.391,1.735c-0.044,0.218-0.066,0.412-0.066,0.586c0,0.586,0.369,0.998,1.063,1.086l1.802-0.868
		l-0.086-0.218c-0.131,0.021-0.262,0.043-0.326,0.043c-0.303,0-0.478-0.172-0.478-0.455c0-0.131,0.043-0.325,0.087-0.563
		l0.305-1.389c0.064-0.369,0.107-0.65,0.107-0.847c0-0.631-0.348-0.979-1.021-0.979c-0.803,0-1.519,0.326-2.213,0.979v-0.108
		c0-0.412-0.064-0.695-0.195-0.869l-2.17,0.305v0.26h0.064c0.26,0,0.412,0.174,0.412,0.457c0,0.107-0.021,0.281-0.064,0.477
		l-0.738,3.646L100.426,176.045L100.426,176.045z"/>
	<path fill="#939598" d="M94.718,171.771l0.586-2.777l-2.626,0.303v0.217c0.369,0.088,0.478,0.238,0.478,0.479
		c0,0.086,0,0.174-0.022,0.28l-1.194,5.773h1.867l0.456-2.148c0.261-1.258,0.673-1.889,1.281-1.889c0.239,0,0.325,0.109,0.325,0.391
		c0,0.089-0.021,0.218-0.043,0.369l-0.391,1.736c-0.043,0.217-0.065,0.412-0.065,0.586c0,0.586,0.391,0.998,1.063,1.086l1.8-0.869
		l-0.063-0.217c-0.151,0.021-0.261,0.043-0.349,0.043c-0.303,0-0.478-0.172-0.478-0.455c0-0.131,0.044-0.326,0.108-0.563l0.281-1.39
		c0.088-0.369,0.108-0.649,0.108-0.846c0-0.631-0.348-0.979-1.02-0.979C96.085,170.899,95.369,171.205,94.718,171.771
		L94.718,171.771z"/>
	<path fill="#939598" d="M86.296,176.065c0.195-0.086,0.325-0.129,0.456-0.129c0.412,0,1.02,0.261,1.823,0.261
		c1.802,0,2.887-1.021,2.887-2.128c0-0.586-0.348-0.997-1.064-1.26l-0.912-0.303c-0.391-0.131-0.586-0.24-0.586-0.479
		c0-0.239,0.239-0.412,0.716-0.412c0.716,0,1.237,0.391,1.411,1.021h0.195l0.109-1.737c-0.174,0.088-0.326,0.131-0.456,0.131
		c-0.391,0-0.868-0.131-1.433-0.131c-1.584,0-2.626,0.891-2.626,1.867c0,0.5,0.369,0.977,0.999,1.192l1.28,0.457
		c0.174,0.063,0.282,0.194,0.282,0.369c0,0.346-0.369,0.606-1.02,0.606c-0.912,0-1.541-0.586-1.606-1.498h-0.217L86.296,176.065
		L86.296,176.065z"/>
	<path fill="#939598" d="M85.189,175.914l0.803-1.779l-0.196-0.063c-0.478,0.824-1.063,1.236-1.693,1.236
		c-0.782,0-1.237-0.498-1.237-1.347c0-0.106,0-0.237,0.021-0.346c2.366-0.046,3.56-0.543,3.56-1.521
		c0-0.652-0.781-1.195-2.019-1.195c-0.933,0-1.802,0.326-2.431,0.869c-0.716,0.65-1.085,1.41-1.085,2.213
		c0,1.347,0.89,2.216,2.431,2.216C83.974,176.197,84.603,176.088,85.189,175.914L85.189,175.914z"/>
	<path fill="#939598" d="M78.504,176.045l0.542-2.582c0.195-0.912,0.456-1.366,1.042-1.366c0.239,0,0.434,0.086,0.672,0.28
		l0.651-1.478c-0.087,0-0.152,0-0.217,0c-0.847,0-1.455,0.349-1.975,1.064c0.021-0.131,0.043-0.26,0.043-0.369
		c0-0.305-0.087-0.521-0.283-0.695l-2.04,0.306v0.26c0.326,0.021,0.499,0.175,0.499,0.5c0,0.086-0.021,0.218-0.043,0.369
		l-0.782,3.711H78.504L78.504,176.045z"/>
	<path fill="#939598" d="M74.033,171.597l0.13-0.65c0.065-0.326,0.087-0.564,0.195-0.674c0.13-0.152,0.413-0.217,0.803-0.217
		c1.063,0,1.714,0.454,1.888,1.409h0.283l-0.087-2.17c-0.369,0.063-0.781,0.088-1.215,0.088h-4.059l-0.065,0.281
		c0.304,0,0.456,0.194,0.456,0.521c0,0.086-0.022,0.238-0.065,0.435l-0.912,4.317c-0.108,0.5-0.174,0.738-0.651,0.826l-0.065,0.281
		h3.018l0.065-0.281c-0.304,0-0.456-0.195-0.456-0.521c0-0.088,0.022-0.238,0.065-0.435l0.521-2.453
		c0.217-0.043,0.412-0.063,0.586-0.063c0.781,0,1.193,0.324,1.237,0.978h0.282v-2.476h-0.282c-0.022,0.629-0.304,0.804-1.064,0.804
		H74.033L74.033,171.597z"/>
	<path fill="#939598" d="M62.877,176.002c0.347,0.063,0.672,0.063,0.977,0.063c1.042,0,1.845-0.26,2.452-0.803
		c0.564-0.521,0.912-1.324,0.912-2.127c0-1.432-0.868-2.084-2.648-2.084h-3.104l-0.043,0.283c0.282,0,0.434,0.195,0.434,0.52
		c0,0.088-0.022,0.24-0.043,0.412L60.793,177c-0.108,0.5-0.173,0.717-0.651,0.824l-0.065,0.282h2.93l0.065-0.282
		c-0.283,0-0.456-0.195-0.456-0.498c0-0.109,0.043-0.261,0.065-0.457L62.877,176.002L62.877,176.002z"/>
	<path fill="#939598" d="M55.106,170.619l-0.673,3.168c-0.065,0.369-0.13,0.694-0.13,0.935c0,0.954,0.825,1.477,2.388,1.477
		c0.933,0,1.693-0.174,2.257-0.564c0.629-0.434,0.847-1.107,1.063-2.104l0.608-3.039c0.108-0.498,0.173-0.738,0.672-0.824
		l0.044-0.281h-2.019l-0.044,0.281c0.348,0,0.521,0.217,0.521,0.586c0,0.108-0.022,0.238-0.065,0.369l-0.542,2.67
		c-0.152,0.738-0.304,1.258-0.521,1.498c-0.261,0.346-0.695,0.541-1.172,0.541c-0.695,0-1.151-0.435-1.151-0.978
		c0-0.194,0.043-0.455,0.109-0.78l0.629-3.082c0.087-0.498,0.174-0.738,0.673-0.824l0.043-0.281h-3.017l-0.043,0.281
		c0.282,0,0.435,0.194,0.435,0.521C55.172,170.271,55.15,170.424,55.106,170.619L55.106,170.619z"/>
	<path fill="#939598" d="M44.688,176.283l-0.196-0.195l-1.237,1.261c0.651,0.629,1.649,0.911,3.017,0.911
		c2.431,0,3.776-0.848,3.776-2.062c0-0.412-0.195-0.607-0.347-0.803c-0.109-0.174-0.217-0.283-0.217-0.412
		c0-0.066,0.021-0.174,0.043-0.283l0.629-2.973c0.043-0.24,0.26-0.412,0.586-0.457l0.043-0.218h-3.234
		c-1.042,0-1.866,0.283-2.518,0.892c-0.673,0.629-1.063,1.541-1.063,2.322c0,1.084,0.76,1.821,2.062,1.821
		c0.478,0,0.89-0.063,1.302-0.063c0.391,0,0.586,0.151,0.586,0.412c0,0.563-0.607,1.043-1.693,1.043
		c-1.042,0-1.606-0.369-1.606-0.892C44.623,176.502,44.645,176.414,44.688,176.283L44.688,176.283z"/>
	<path fill="#939598" d="M39.088,176.045l0.457-2.147c0.26-1.258,0.672-1.89,1.28-1.89c0.239,0,0.304,0.109,0.304,0.392
		c0,0.088,0,0.217-0.022,0.369l-0.391,1.735c-0.043,0.218-0.065,0.412-0.065,0.586c0,0.586,0.369,0.998,1.063,1.086l1.801-0.868
		l-0.086-0.218c-0.152,0.021-0.26,0.043-0.326,0.043c-0.304,0-0.477-0.172-0.477-0.455c0-0.131,0.043-0.325,0.086-0.563l0.304-1.389
		c0.065-0.369,0.108-0.65,0.108-0.847c0-0.631-0.347-0.979-1.02-0.979c-0.803,0-1.52,0.326-2.236,0.979v-0.108
		c0-0.412-0.043-0.695-0.174-0.869l-2.17,0.305v0.26h0.065c0.26,0,0.412,0.174,0.412,0.457c0,0.107-0.021,0.281-0.065,0.477
		l-0.738,3.646L39.088,176.045L39.088,176.045z"/>
	<path fill="#939598" d="M36.049,174.113l0.369-1.759c0.065-0.326,0.087-0.563,0.087-0.737c0-0.304-0.065-0.521-0.261-0.718
		l-2.17,0.306v0.26h0.065c0.261,0,0.412,0.175,0.412,0.457c0,0.106-0.021,0.261-0.065,0.478l-0.434,2.104
		c-0.043,0.238-0.065,0.435-0.065,0.586c0,0.586,0.456,1.063,1.063,1.063h0.044l1.758-0.848l-0.087-0.217
		c-0.152,0.021-0.26,0.043-0.325,0.043c-0.304,0-0.478-0.172-0.478-0.455C35.963,174.547,36.006,174.373,36.049,174.113
		L36.049,174.113z"/>
	<path fill="#939598" d="M36.071,168.86c-0.608,0-1.063,0.412-1.063,0.955c0,0.455,0.347,0.804,0.89,0.804
		c0.607,0,1.085-0.455,1.085-0.998C36.983,169.144,36.636,168.86,36.071,168.86L36.071,168.86z"/>
	<path fill="#939598" d="M27.455,176.045h1.91l0.304-1.521c0.087-0.368,0.239-0.737,0.499-1.104
		c0.217,1.865,0.629,2.756,1.476,2.756c0.065,0,0.152,0,0.239-0.021l1.519-0.869l-0.108-0.217c-0.108,0.043-0.195,0.063-0.282,0.063
		c-0.608,0-1.02-0.977-1.389-2.95c0.369-0.175,0.629-0.304,0.825-0.304c0.282,0,0.413,0.195,0.413,0.629l0.217,0.021l0.347-1.52
		c-0.26-0.064-0.477-0.109-0.65-0.109c-0.716,0-1.867,0.718-2.778,2.127l0.868-4.034l-2.626,0.303v0.217
		c0.347,0.089,0.5,0.218,0.5,0.479c0,0.086-0.022,0.174-0.043,0.281L27.455,176.045L27.455,176.045z"/>
	<path fill="#939598" d="M26,176.153l1.498-0.911l-0.087-0.218c-0.13,0.021-0.239,0.021-0.304,0.021
		c-0.304,0-0.478-0.195-0.478-0.543c0-0.152,0.044-0.326,0.087-0.543l0.282-1.496c0.043-0.24,0.087-0.436,0.087-0.586
		c0-0.631-0.629-0.979-1.823-0.979c-1.085,0-1.758,0.305-2.04,0.305c-0.109,0-0.217-0.064-0.326-0.152l-0.542,1.824l0.195,0.021
		c0.412-0.674,1.15-1.215,2.083-1.215c0.413,0,0.608,0.129,0.608,0.434c0,0.086-0.022,0.217-0.065,0.369l-0.065,0.281
		c-2.322,0.217-3.56,1.063-3.56,2.192c0,0.781,0.521,1.235,1.476,1.235c0.607,0,1.172-0.26,1.801-0.76
		c0.195,0.5,0.521,0.717,1.02,0.717H26V176.153z"/>
	<path fill="#939598" d="M14.127,176.045h3.234c0.89,0,1.606-0.021,2.17-0.26c1.064-0.392,1.672-1.218,1.672-2.062
		c0-0.846-0.542-1.455-1.606-1.759c1.15-0.563,1.714-1.063,1.714-1.715s-0.477-0.867-1.476-0.867h-4.384l-0.043,0.281
		c0.282,0,0.456,0.194,0.456,0.521c0,0.107-0.043,0.26-0.065,0.435l-0.933,4.317c-0.108,0.5-0.195,0.738-0.695,0.826L14.127,176.045
		L14.127,176.045z"/>
	<path fill="#FFFFFF" d="M96.367,47.661c27.087,0,49.248,22.161,49.248,49.229v66.416H47.141V96.89
		C47.141,69.822,69.301,47.661,96.367,47.661L96.367,47.661z"/>
	<path d="M96.367,19.684c42.477,0,77.226,34.75,77.226,77.206v67.457h-23.832V96.89c0-29.347-24.027-53.374-53.394-53.374
		c-29.345,0-53.372,24.027-53.372,53.374v67.457H19.142V96.89C19.142,54.433,53.913,19.684,96.367,19.684L96.367,19.684z"/>
	<path fill="#939598" d="M96.367,14.496c45.319,0,82.413,37.094,82.413,82.394v67.457h-1.043V96.89
		c0-44.734-36.615-81.352-81.37-81.352c-44.733,0-81.371,36.616-81.371,81.352v67.457h-1.021V96.89
		C13.976,51.59,51.047,14.496,96.367,14.496L96.367,14.496z"/>
	<path fill="#939598" d="M132.05,153.256c-2.734-0.194-3.537,2.888-4.037,4.752c-0.064,0.263-0.13,0.5-0.195,0.718
		c-0.194,0.629-0.151,1.172,0.131,1.584c0.348,0.5,0.912,0.651,1.129,0.674c1.042,0.629,4.232,0.672,5.273,0.303
		c-0.021,0.023-0.043,0.023-0.064,0.023c1.173-0.132,1.498-1.65,1.433-2.627C135.696,158.465,135.306,153.494,132.05,153.256
		L132.05,153.256z"/>
	<path fill="#FFFFFF" d="M134.222,160.656c-0.022,0-0.066,0.021-0.088,0.021c-0.107,0.043-0.238,0.066-0.392,0.088
		c-2.388-2.541-1.779-5.969-1.562-6.838c2.539,0.391,2.887,4.754,2.887,4.797C135.11,159.312,134.958,160.592,134.222,160.656
		L134.222,160.656z"/>
	<path fill="#939598" d="M141.883,140.666c-0.392-0.606-0.978-0.935-1.606-0.935c-0.368,0-0.737,0.152-1.041,0.392
		c-2.541-4.166-6.403-6.729-12.155-7.922c1.454-1.693,4.168-6.101,4.231-7.685c0-0.063-0.021-0.106-0.043-0.151
		c0.108-1.367-0.693-2.519-1.302-2.994c4.275-3.494,9.224-7.531,9.724-7.968c0.847-0.649,1.541-1.366,0.629-2.756
		c-0.281-0.412-0.629-0.521-0.889-0.543c-0.718-0.043-1.391,0.652-1.521,0.804l-10.7,8.879c-4.992-1.998-17.538-1.91-24.331-1.347
		c-6.967,0.498-8.14,3.818-8.334,4.752c-0.934-0.043-1.672,0.066-2.279,0.263c0.043-2.713-1.693-5.166-5.079-7.099
		c-0.912-0.521-2.148-0.803-3.386-0.934c-0.043-0.021-0.087-0.043-0.152-0.043c-0.043,0-0.152,0-0.239,0
		c-2.214-0.174-4.319,0.15-4.688,0.477c-5.339,0.521-6.337,5.384-6.511,6.644c-3.69,0.129-6.425,1.192-8.118,3.146
		c-1.693,1.976-1.845,4.254-1.823,5.23c-1.064-0.195-2.562,0.066-3.625,0.262c-0.39,0.086-0.759,0.15-0.911,0.15
		c-0.564,0-4.515,1.107-4.862,2.236c-0.174,0.606-2.887,4.471-4.58,6.793c-0.108,0.045-0.174,0.151-0.195,0.262
		c-0.369,3.256,0.108,8.898,0.26,10.223c0,0.107,0.043,0.174,0.13,0.238c1.476,1.107,11.634,3.732,15.02,4.037
		c3.364,0.326,15.215,3.494,15.346,3.516c0.086,0.021,0.174,0.021,0.26-0.021l7.401-4.666c0.108-0.087,0.174-0.218,0.152-0.349
		c-0.195-0.934-0.065-3.863,0.043-5.838c8.031-1.736,11.286-7.988,12.567-12.264c0.716,0.934,2.301,2.951,3.343,3.842
		c-0.586,0.717-0.978,1.281-1.194,1.605l-0.021-0.021c-0.521-0.412-1.279-0.346-1.887,0.152c-0.718,0.607-1.15,1.779-0.479,3.061
		c0.607,1.086,1.91,1.193,3.125,1.021c0.107,0.78,0.479,3.018,0.804,4.254c-1.454-0.195-2.821-0.172-3.799-0.063
		c0-0.021-0.021-0.044-0.043-0.064v-0.021c-0.5-0.436-1.823-1.606-5.687-1.715c-1.845-0.021-3.581,0.672-4.862,1.975
		c-1.042,1.062-1.649,2.365-1.628,3.474c0,2.235,2.192,5.644,6.273,6.229c1.302,0.172,2.366,0.107,3.212-0.108
		c1.476-0.349,2.323-1.064,2.626-1.39c3.211,1.172,7.075,0.867,7.51,0.824c1.453,0.934,3.516,1.498,5.707,1.498
		c2.476,0,4.798-0.695,6.252-1.846c1.845,0.846,3.712,0.846,5.273,0.021c1.324-0.716,2.235-1.953,2.432-3.32
		c0.064-0.564-0.021-1.15-0.26-1.715l6.164-0.392c2.582-0.174,3.754-1.021,4.448-1.996v-0.022c0.217-0.281,0.392-0.607,0.543-0.91
		c0.586-1.217,1.149-4.471,1.324-5.535c0.521,0.088,1.192,0.131,2.083,0.064c0.955-0.064,1.39-0.564,1.585-0.955
		C142.576,142.533,142.315,141.383,141.883,140.666L141.883,140.666z"/>
	<path d="M95.998,132.613c0.022,0,0.022,0,0.022,0h0.022C96.042,132.613,96.02,132.613,95.998,132.613L95.998,132.613z"/>
	<path d="M78.873,68.411c4.124-0.108,7.228,3.256,7.228,7.228v33.708c0,2.495-1.259,4.688-3.19,6.014
		c-2.019-0.088-3.842,0.195-4.189,0.498c-0.716,0.088-1.346,0.238-1.91,0.434c-2.996-0.889-5.188-3.668-5.188-6.945V75.639
		C71.624,73.599,73.122,68.542,78.873,68.411L78.873,68.411z"/>
	<path fill="#FFFFFF" d="M78.743,79.567c1.823,0,3.299,1.476,3.299,3.277v19.839c0,1.801-1.498,3.277-3.299,3.277
		c-1.802,0-3.278-1.477-3.278-3.277V82.845C75.465,81.043,76.963,79.567,78.743,79.567L78.743,79.567z"/>
	<path d="M63.463,68.411c4.124-0.108,7.249,3.256,7.249,7.228v9.594h-4.081v-2.388c0-1.801-1.476-3.277-3.277-3.277
		s-3.299,1.476-3.299,3.277v19.84c0,1.801,1.476,3.276,3.299,3.276c1.802,0,3.277-1.478,3.277-3.276v-3.277h4.081v9.939
		c0,3.993-3.277,7.25-7.249,7.25c-3.994,0-7.25-3.257-7.25-7.25V75.639C56.213,73.599,57.711,68.542,63.463,68.411L63.463,68.411z"
		/>
	<path d="M94.457,68.411c4.146-0.108,7.25,3.256,7.25,7.228v9.594h-4.081v-2.388c0-1.801-1.476-3.277-3.277-3.277
		c-1.802,0-3.255,1.476-3.255,3.277v19.84c0,1.801,1.454,3.276,3.255,3.276c1.801,0,3.277-1.478,3.277-3.276v-3.277h4.081v9.939
		c0,3.993-3.278,7.25-7.25,7.25c-3.95,0-7.206-3.257-7.206-7.25V75.639C87.251,73.599,88.749,68.542,94.457,68.411L94.457,68.411z"
		/>
	<path d="M109.867,68.411c4.124-0.108,7.25,3.256,7.25,7.228v33.708c0,3.993-3.277,7.25-7.25,7.25c-3.972,0-7.249-3.257-7.249-7.25
		V75.639C102.618,73.599,104.138,68.542,109.867,68.411L109.867,68.411z"/>
	<path fill="#FFFFFF" d="M109.759,79.567c1.803,0,3.277,1.476,3.277,3.277v19.839c0,1.801-1.477,3.277-3.277,3.277
		s-3.277-1.477-3.277-3.277V82.845C106.481,81.043,107.957,79.567,109.759,79.567L109.759,79.567z"/>
	<path d="M130.617,68.411c4.124-0.108,7.229,3.256,7.229,7.228v10.092h-4.082v-2.886c0-1.801-1.476-3.277-3.277-3.277
		c-1.801,0-3.407,1.476-3.407,3.277v2.886c0,1.173,0.804,1.976,1.692,2.475l5.795,3.234c1.347,0.76,3.147,2.214,3.147,3.842v14.064
		c0,0.674-0.087,1.323-0.261,1.932l-6.381,5.297c-0.151,0.021-0.305,0.021-0.456,0.021c-3.993,0-7.249-3.257-7.249-7.25v-9.964
		h3.842v3.302c0,1.801,1.477,3.276,3.275,3.276c1.804,0,3.104-1.478,3.104-3.276v-5.861c0-1.454-0.954-2.669-2.562-3.603
		l-5.014-2.952c-2.975-1.758-2.647-3.667-2.647-6.729v-7.9C123.368,73.599,124.865,68.542,130.617,68.411L130.617,68.411z"/>
	<path d="M117.485,74.185l0.543-4.992c1.129-1.086,4.884-2.149,5.253,1.888c0.368,4.015-2.974,7.857-2.974,7.857l-2.062-1.454
		C118.245,77.484,120.851,74.51,117.485,74.185L117.485,74.185z"/>
	<path fill="#FFFFFF" d="M24.98,173.44c-0.195,1.148-0.607,1.736-1.042,1.736c-0.325,0-0.477-0.174-0.477-0.5
		C23.461,174.092,24.025,173.549,24.98,173.44L24.98,173.44z"/>
	<path fill="#FFFFFF" d="M17.47,172.008l0.26-1.235c0.108-0.479,0.108-0.652,0.738-0.652c0.607,0,0.89,0.152,0.89,0.479
		C19.358,171.097,18.729,171.597,17.47,172.008L17.47,172.008z"/>
	<path fill="#FFFFFF" d="M17.318,172.66c0.239-0.066,0.608-0.195,1.085-0.369c0.478,0.303,0.716,0.715,0.716,1.278
		c0,0.998-0.672,1.779-1.584,1.779c-0.412,0-0.629-0.172-0.629-0.477c0-0.131,0.021-0.305,0.065-0.564L17.318,172.66L17.318,172.66z
		"/>
	<path fill="#FFFFFF" d="M63.767,171.771h0.456c0.629,0,1.042,0.521,1.042,1.389c0,1.238-0.803,2.191-1.562,2.191
		c-0.326,0-0.521-0.218-0.521-0.521c0-0.131,0-0.306,0.065-0.563L63.767,171.771L63.767,171.771z"/>
	<path fill="#FFFFFF" d="M48.226,171.791l-0.651,2.996c-0.065,0.366-0.195,0.586-0.543,0.586c-0.629,0-1.106-0.479-1.106-1.195
		c0-0.672,0.325-1.389,0.868-1.887c0.369-0.349,0.825-0.5,1.346-0.5H48.226L48.226,171.791z"/>
	<path fill="#FFFFFF" d="M107.22,172.877c0.282-0.803,0.934-1.26,1.411-1.26c0.261,0,0.435,0.151,0.435,0.391
		C109.063,172.442,108.413,172.854,107.22,172.877L107.22,172.877z"/>
	<path fill="#FFFFFF" d="M83.019,172.877c0.282-0.803,0.934-1.26,1.411-1.26c0.261,0,0.434,0.151,0.434,0.391
		C84.863,172.442,84.212,172.854,83.019,172.877L83.019,172.877z"/>
	<path fill="#FFFFFF" d="M163.694,173.44c-0.194,1.148-0.606,1.736-1.041,1.736c-0.305,0-0.478-0.174-0.478-0.5
		C162.177,174.092,162.74,173.549,163.694,173.44L163.694,173.44z"/>
	<path fill="#FFFFFF" d="M157.899,171.791l-0.629,2.996c-0.088,0.391-0.195,0.586-0.629,0.586c-0.586,0-1.021-0.479-1.021-1.172
		c0-0.675,0.304-1.412,0.847-1.91c0.369-0.349,0.825-0.5,1.347-0.5H157.899L157.899,171.791z"/>
	<path fill="#FFFFFF" d="M139.212,172.877c0.283-0.803,0.934-1.26,1.411-1.26c0.261,0,0.435,0.151,0.435,0.391
		C141.058,172.442,140.406,172.854,139.212,172.877L139.212,172.877z"/>
	<path fill="#FFFFFF" d="M59.903,52.675c-0.173,0.196-0.412,0.413-0.89,0.348l-7.358-1.129c0.542-1.085,1.584-3.125-0.304-4.949
		c-2.562-2.496-5.839,0.651-6.881,1.715l-4.753,4.949l0.369,0.369c0.912-0.824,1.411-1.259,2.713,0l6.793,6.555
		c1.237,1.194,0.999,1.563,0.109,2.713l0.369,0.369l5.014-5.188l-0.369-0.369c-1.129,0.89-1.498,1.172-2.735,0l-2.996-2.909
		l0.391-0.412l7.879,1.454l3.039-3.147L59.903,52.675L59.903,52.675z"/>
	<path fill="#FFFFFF" d="M31.73,68.303c0.542-0.825,1.02-1.584,2.235-0.869l8.942,5.166c1.15,0.651,0.868,1.259,0.369,2.366
		l0.478,0.282l6.229-10.809l-3.408-2.952l-0.304,0.499c2.105,2.778,1.498,4.949,0.456,6.75c-0.695,1.193-1.107,1.432-1.932,0.955
		l-4.471-2.583c1.063-1.823,2.171-2.453,4.602-1.324l0.282-0.499l-6.251-3.604l-0.282,0.478c2.127,1.606,2.062,2.822,1.02,4.602
		l-4.276-2.475c-0.803-0.477-0.673-0.846-0.086-1.866c1.432-2.497,2.648-3.539,5.535-2.453l0.26-0.456l-3.711-2.148l-6.165,10.679
		L31.73,68.303L31.73,68.303z"/>
	<path fill="#FFFFFF" d="M39.392,91.527c-0.173,0.738-0.977,1.106-2.952,1.932l-11.2,4.731v0.586l11.677,4.754
		c1.606,0.629,2.322,0.934,2.496,2.084h0.542v-4.342h-0.542c-0.044,0.737-0.109,1.758-0.912,1.758c-0.347,0-1.215-0.346-2.756-0.932
		v-4.798c0.673-0.305,2.257-0.999,2.843-0.999c0.695,0,0.716,0.39,0.825,1.715h0.542v-6.879h-0.347l1.628-6.555l-0.5-0.13
		c-0.434,1.063-0.694,1.758-1.932,1.454l-4.059-1.021l-0.369-0.673L40,81.607c0.478-0.238,0.781-0.326,1.042-0.26
		c0.325,0.065,0.304,0.456,0.021,1.736l0.521,0.13l1.736-6.946l-0.521-0.13c-0.13,0.391-0.239,0.673-0.694,0.89l-9.398,4.363
		c-2.691-4.363-3.451-5.6-3.039-7.814l-0.521-0.13l-1.476,5.99l0.521,0.13c0.456-1.476,0.629-1.714,1.107-1.584
		c0.391,0.087,0.542,0.326,0.955,1.021l3.386,5.621l-4.428-1.106c-1.779-0.456-1.628-1.151-1.433-2.323l-0.521-0.13l-1.736,6.988
		l0.5,0.13c0.304-0.933,0.564-1.758,1.932-1.433l10.006,2.496c1.281,0.326,1.194,0.999,1.021,2.171L39.392,91.527L39.392,91.527z"/>
	<path fill="#FFFFFF" d="M39.805,118.051v-6.881c-0.087-4.494-2.171-5.989-3.972-5.989c-2.431,0-3.495,2.233-3.798,4.036h-0.043
		c-0.282-0.891-0.825-3.301-3.191-3.301c-3.342,0-3.429,4.342-3.429,5.535v6.6h0.543c0.065-0.977,0.108-1.889,1.52-1.889h10.31
		c1.302,0,1.389,0.692,1.519,1.889H39.805L39.805,118.051z"/>
	<path fill="#FFFFFF" d="M28.127,125.17c0.065-1.237,1.584-3.082,3.668-2.433C31.752,124.278,29.951,125.494,28.127,125.17
		L28.127,125.17z"/>
	<path fill="#FFFFFF" d="M36.549,125.17c-0.065-1.237-1.563-3.082-3.646-2.433C32.946,124.278,34.747,125.494,36.549,125.17
		L36.549,125.17z"/>
	<path fill="#FFFFFF" d="M32.338,121.502c0.282,0,0.5,0.217,0.5,0.498c0,0.26-0.217,0.478-0.5,0.478
		c-0.26,0-0.478-0.218-0.478-0.478C31.86,121.719,32.078,121.502,32.338,121.502L32.338,121.502z"/>
	<path fill="#FFFFFF" d="M30.038,126.906c0,0,2.019-1.087,2.192-1.998c0,0,1.107,1.735,2.388,1.998c0,0-1.021,1.495-2.323,0.194
		C31.86,127.752,30.254,127.815,30.038,126.906L30.038,126.906z"/>
	<path fill="#FFFFFF" d="M33.987,128.272c1.802-0.479,3.321-0.76,2.974,0.586C36.679,130.01,35.333,129.162,33.987,128.272
		L33.987,128.272z"/>
	<path fill="#FFFFFF" d="M30.602,128.272c-1.802-0.479-3.321-0.76-2.995,0.586C27.91,130.01,29.234,129.162,30.602,128.272
		L30.602,128.272z"/>
	<path fill="#FFFFFF" d="M32.338,129.705c0.694,1.715,1.194,3.19-0.174,3.039C30.971,132.592,31.622,131.16,32.338,129.705
		L32.338,129.705z"/>
	<path fill="#FFFFFF" d="M33.271,129.056c1.628,0.889,2.952,1.692,1.779,2.452C34.053,132.158,33.641,130.64,33.271,129.056
		L33.271,129.056z"/>
	<path fill="#FFFFFF" d="M31.318,129.056c-1.649,0.889-2.952,1.692-1.801,2.452C30.537,132.158,30.927,130.64,31.318,129.056
		L31.318,129.056z"/>
	<path fill="#FFFFFF" d="M134.763,54.303c-0.847-0.542-0.716-1.346-0.195-3.754l2.541-11.916l-0.479-0.348l-10.593,6.859
		c-1.433,0.933-2.104,1.367-3.146,0.847l-0.305,0.434l3.537,2.475l0.326-0.434c-0.586-0.434-1.391-1.085-0.912-1.758
		c0.195-0.261,0.979-0.782,2.345-1.715l3.929,2.757c-0.151,0.738-0.5,2.431-0.824,2.887c-0.412,0.586-0.738,0.369-1.867-0.282
		l-0.305,0.434l5.645,3.951L134.763,54.303L134.763,54.303z"/>
	<path fill="#FFFFFF" d="M121.588,45.469c-1.432-0.673-1.888-0.89-1.237-2.583l4.017-10.483c1.346,0.607,3.364,1.498,2.539,4.818
		l0.587,0.239l1.497-4.037l-11.96-4.58l-1.584,3.994l0.563,0.217c1.628-3.038,3.712-2.344,5.144-1.888l-4.035,10.483
		c-0.631,1.671-1.129,1.541-2.627,1.085l-0.195,0.499l7.119,2.735L121.588,45.469L121.588,45.469z"/>
	<path fill="#FFFFFF" d="M90.659,39.587c-0.26,0.065-0.564,0.109-0.955-0.195l-5.535-4.949c1.042-0.629,3.017-1.758,2.431-4.319
		c-0.803-3.494-5.252-2.626-6.707-2.3l-6.686,1.541l0.109,0.521c1.215-0.195,1.867-0.304,2.279,1.497l2.127,9.182
		c0.39,1.693-0.022,1.845-1.39,2.344l0.109,0.5l7.033-1.606l-0.131-0.521c-1.411,0.13-1.867,0.174-2.257-1.497l-0.933-4.081
		l0.542-0.109l5.817,5.492l3.646-0.825v0.086l12.458,0.217l0.934-4.428h-0.607c-1.389,3.191-3.582,3.711-5.666,3.668
		c-1.388-0.021-1.8-0.282-1.778-1.216l0.087-5.166c2.105,0.043,3.189,0.694,3.407,3.364l0.543,0.022l0.13-7.207l-0.542-0.021
		c-0.369,2.648-1.478,3.169-3.517,3.125l0.087-4.949c0.022-0.933,0.391-0.999,1.562-0.977c2.887,0.043,4.385,0.608,4.818,3.646
		h0.543l0.064-4.276L90.42,25.935l-0.021,0.521c0.977,0.087,1.845,0.152,1.823,1.563l-0.174,10.31
		c-0.021,1.128-0.478,1.324-1.367,1.433L90.659,39.587L90.659,39.587z"/>
	<path fill="#FFFFFF" d="M61.683,34.703l-3.842,2.692l0.304,0.434c0.847-0.521,1.519-0.933,1.997-0.26
		c0.325,0.478,0.456,1.823,0.456,2.106l0.326,4.579l-4.927-2.583c-0.348-0.173-0.934-0.412-1.107-0.672
		c-0.347-0.5-0.217-0.76,0.999-1.584l-0.304-0.456l-5.86,4.103l0.304,0.434c0.934-0.564,1.889-0.108,2.084,0l7.249,3.56l1.801,2.562
		c1.021,1.454,0.63,1.779-0.499,2.735l0.304,0.456l6.056-4.254l-0.304-0.434c-1.302,0.738-1.715,0.955-2.735-0.478l-2.236-3.212
		l-0.478-7.771c-0.043-0.803,0.412-1.237,0.716-1.519L61.683,34.703L61.683,34.703z"/>
	<path fill="#FFFFFF" d="M114.664,32.793l1.021-4.515l-0.606-0.13c-0.195,0.369-0.369,0.651-0.847,0.542
		c-0.608-0.152-1.434-1.063-3.084-1.433c-3.949-0.912-5.252,1.758-5.556,3.039c-0.217,0.955-0.63,2.735,2.539,5.252l1.237,0.999
		c1.193,0.955,2.062,1.672,1.736,3.061c-0.064,0.282-0.629,2.3-3.125,1.736c-2.648-0.608-3.301-3.234-3.234-5.426l-0.607-0.152
		l-1.193,5.145l0.607,0.13c0.151-0.304,0.348-0.651,0.781-0.564c0.65,0.151,1.434,1.085,3.407,1.541
		c3.819,0.868,5.729-1.324,6.143-3.169c0.521-2.257-0.78-3.82-1.389-4.341l-2.714-2.236c-1.541-1.259-1.823-1.823-1.584-2.93
		c0.324-1.367,1.605-1.714,2.691-1.476c2.451,0.564,3.146,3.256,3.189,4.796L114.664,32.793L114.664,32.793z"/>
	<path fill="#FFFFFF" d="M153.474,115.25c0.107-1.584,0.129-2.084,1.952-2.084h11.243c-0.087,1.478-0.195,3.668-3.604,4.08v0.631
		l4.275-0.045v-12.806l-4.275-0.065v0.631c3.408,0.435,3.517,2.625,3.604,4.123h-11.243c-1.801,0-1.845-0.521-1.952-2.084h-0.543
		v7.619H153.474L153.474,115.25z"/>
	<path fill="#FFFFFF" d="M150.021,75.682c-0.131-0.217-0.281-0.521-0.086-0.955l3.104-6.75c0.891,0.803,2.562,2.388,4.841,1.063
		c3.104-1.78,0.998-5.795,0.238-7.076l-3.429-5.947l-0.457,0.261c0.521,1.085,0.824,1.693-0.76,2.604l-8.16,4.71
		c-1.498,0.868-1.779,0.521-2.648-0.651l-0.455,0.282l3.604,6.229l0.455-0.26c-0.543-1.303-0.717-1.759,0.76-2.605l3.625-2.083
		l0.281,0.5l-3.56,7.162l1.89,3.277l-0.195,0.065l1.192,4.167l0.5-0.152c-0.151-0.716-0.368-1.714,0.412-1.932
		c0.325-0.108,1.259,0,2.888,0.13l1.323,4.623c-0.563,0.479-1.889,1.562-2.452,1.714c-0.674,0.196-0.804-0.152-1.26-1.411
		l-0.521,0.152l1.867,6.512h-0.326l0.175,4.84l0.521-0.021c0.108-1.584,0.499-2.041,2.04-2.105l8.53-0.282v0.043l-11.223,9.854
		l0.021,0.607l12.546-0.434c1.042-0.043,1.521,0.065,1.779,1.604l0.521-0.021l-0.151-4.578h-0.544
		c-0.063,1.736-0.76,2.018-2.039,2.061l-6.446,0.217v-0.021l8.834-7.705l-0.151-4.493L166.56,88.9
		c0.021,0.26-0.043,0.607-1.477,1.866l-10.092,0.347c-1.367,0.043-1.562-0.521-1.76-1.714l0.326-0.087
		c-0.304-0.977,0.282-1.52,2.215-3.061l9.483-7.662l-0.174-0.586l-12.545-1.324c-1.433-0.152-2.214-0.239-2.713-0.89L150.021,75.682
		L150.021,75.682z"/>
	<path fill="#FFFFFF" d="M153.038,53.674l-3.255-3.386l-0.392,0.369c1.215,1.39,0.867,2.062-0.064,2.974l-4.667,4.514
		c-0.998,0.955-3.364,3.191-5.97,0.5c-2.147-2.214-0.021-4.254,0.848-5.101l5.122-4.949c1.366-1.302,1.823-0.847,2.864,0.108
		l0.369-0.369l-4.992-5.187l-0.391,0.369c0.737,0.955,1.086,1.389-0.195,2.626l-5.123,4.949c-1.67,1.606-1.821,2.518-1.758,3.754
		c0.088,1.845,1.391,3.365,2.041,4.037c0.891,0.934,2.475,1.976,4.037,1.954c1.323-0.022,2.887-1.129,3.799-2.019l4.883-4.71
		c1.021-0.977,1.52-0.803,2.476-0.065L153.038,53.674L153.038,53.674z"/>
	<path fill="#FFFFFF" d="M157.097,125.17c0.065-1.237,1.563-3.082,3.646-2.433C160.7,124.278,158.897,125.494,157.097,125.17
		L157.097,125.17z"/>
	<path fill="#FFFFFF" d="M165.519,125.17c-0.064-1.237-1.584-3.082-3.668-2.433C161.896,124.278,163.694,125.494,165.519,125.17
		L165.519,125.17z"/>
	<path fill="#FFFFFF" d="M161.308,121.502c0.262,0,0.479,0.217,0.479,0.498c0,0.26-0.217,0.478-0.479,0.478
		c-0.281,0-0.498-0.218-0.498-0.478C160.81,121.719,161.024,121.502,161.308,121.502L161.308,121.502z"/>
	<path fill="#FFFFFF" d="M158.985,126.906c0,0,2.019-1.087,2.191-1.998c0,0,1.107,1.735,2.389,1.998c0,0-1.021,1.495-2.323,0.194
		C160.81,127.752,159.202,127.815,158.985,126.906L158.985,126.906z"/>
	<path fill="#FFFFFF" d="M162.937,128.272c1.801-0.479,3.32-0.76,2.974,0.586C165.627,130.01,164.304,129.162,162.937,128.272
		L162.937,128.272z"/>
	<path fill="#FFFFFF" d="M159.55,128.272c-1.802-0.479-3.32-0.76-2.974,0.586C156.858,130.01,158.183,129.162,159.55,128.272
		L159.55,128.272z"/>
	<path fill="#FFFFFF" d="M161.286,129.705c0.716,1.715,1.193,3.19-0.174,3.039C159.919,132.592,160.569,131.16,161.286,129.705
		L161.286,129.705z"/>
	<path fill="#FFFFFF" d="M162.22,129.056c1.627,0.889,2.952,1.692,1.779,2.452C163.001,132.158,162.61,130.64,162.22,129.056
		L162.22,129.056z"/>
	<path fill="#FFFFFF" d="M160.267,129.056c-1.629,0.889-2.951,1.692-1.779,2.452C159.483,132.158,159.876,130.64,160.267,129.056
		L160.267,129.056z"/>
	<path d="M78.765,29.755c-0.043-0.673-0.043-0.912,1.085-1.172c1.671-0.391,2.734,0.304,3.212,2.409
		c0.629,2.691-0.347,3.408-3.082,4.059L78.765,29.755L78.765,29.755z"/>
	<polygon points="128.62,44.514 133.243,41.41 132.028,46.88 	"/>
	<path d="M44.58,50.895c-0.413-0.542-0.542-0.738,0.282-1.584c1.172-1.216,2.453-1.216,3.993,0.282
		c1.998,1.932,1.563,3.061-0.369,5.079L44.58,50.895L44.58,50.895z"/>
	<path d="M155.946,61.444c0.63-0.239,0.847-0.326,1.433,0.695c0.869,1.476,0.5,2.691-1.366,3.776
		c-2.388,1.368-3.365,0.651-4.775-1.758L155.946,61.444L155.946,61.444z"/>
	<polygon points="154.948,77.81 160.483,78.309 156.099,81.803 	"/>
	<path d="M32.49,112.754v-0.629c0.065-1.392,0.369-3.276,3.43-3.276c1.302,0,3.19,0.28,3.19,2.625c0,0.891-0.326,1.28-1.302,1.28
		H32.49L32.49,112.754z"/>
	<path d="M27.064,112.754c-0.5-0.021-1.042-0.043-1.042-1.129c0-1.735,1.259-2.19,2.756-2.19c2.171,0,3.061,0.455,3.061,3.319
		H27.064L27.064,112.754z"/>
	<polygon points="34.921,101.771 29.733,99.774 34.921,97.604 	"/>
	<path fill="#FFFFFF" d="M138.062,139.494c-0.043,0.131-0.174,0.26-0.348,0.325c-0.107,0.064-0.436,0.152-0.76-0.043
		c-0.803-0.479-2.432-0.065-3.494,0.564c-0.107,0.064-0.195,0.129-0.281,0.172c-0.761,0.521-1.195,0.805-2.845-0.217
		c-1.541-0.934-2.409-0.195-3.062,0.348c-0.26,0.238-0.521,0.457-0.736,0.479c-0.868,0.194-1.411-0.088-2.865-0.892
		c-1.605-0.934-2.388-0.5-3.408,0.238c-0.933,0.652-1.975,0.803-2.82,0.369c-0.911-0.455-2.476,0.064-2.975,0.262
		c-0.043-0.022-0.087-0.045-0.107-0.045h0.086c0.195,0,0.326-0.151,0.326-0.324c0-0.194-0.131-0.325-0.326-0.325h-2.475
		c-0.043-0.021-0.064-0.064-0.107-0.089h1.865c0.174,0,0.326-0.149,0.326-0.323c0-0.175-0.152-0.326-0.326-0.326h-2.387
		c0,0,0,0-0.021-0.021h1.845c0.174,0,0.326-0.152,0.326-0.326s-0.152-0.326-0.326-0.326h-2.147
		c-0.021-0.043-0.021-0.086-0.043-0.129h2.127c0.194,0,0.324-0.131,0.324-0.326c0-0.174-0.13-0.303-0.324-0.303h-2.302
		c0-0.066-0.021-0.131-0.021-0.197h1.975c0.174,0,0.326-0.15,0.326-0.324s-0.152-0.326-0.326-0.326h-2.062c0-0.043,0-0.086,0-0.152
		v-0.021h2.148c0.195,0,0.325-0.151,0.325-0.323c0-0.175-0.13-0.326-0.325-0.326h-2.062c0.021-0.064,0.043-0.109,0.064-0.174h2.518
		c0.197,0,0.326-0.152,0.326-0.326s-0.129-0.326-0.326-0.326h-2.17c0.045-0.043,0.065-0.086,0.088-0.129h2.822
		c0.174,0,0.324-0.152,0.324-0.326s-0.15-0.326-0.324-0.326h-2.216c0.044-0.021,0.065-0.043,0.087-0.064h2.909
		c0.173,0,0.304-0.151,0.304-0.326c0-0.149-0.064-0.26-0.194-0.303h0.868c0.172,0,0.324-0.151,0.324-0.326
		c0-0.174-0.152-0.323-0.324-0.323h-2.041c0.043-0.023,0.086-0.046,0.131-0.089h2.777c0.195,0,0.325-0.131,0.325-0.305
		c0-0.149-0.065-0.26-0.194-0.303h0.867c0.174,0,0.325-0.152,0.325-0.326s-0.151-0.324-0.325-0.324h-0.934
		c0.261-0.088,0.436-0.151,0.5-0.174c0.586-0.045,1.193-0.065,1.822-0.065C130.922,132.244,135.588,135.937,138.062,139.494
		L138.062,139.494z"/>
	<path fill="#FFFFFF" d="M119.136,131.377c-0.65,0-1.259,0.021-1.845,0.063c-0.022,0-0.022,0-0.022,0
		c-2.496,0.175-4.688,0.804-6.598,1.629c-0.044-0.131-0.152-0.237-0.304-0.237h-1.021c0.107-0.045,0.194-0.151,0.194-0.283
		c0-0.194-0.13-0.325-0.325-0.325h-0.891c0.044-0.064,0.087-0.13,0.087-0.195c0-0.195-0.152-0.324-0.325-0.324h-0.891
		c0.064-0.066,0.131-0.152,0.131-0.262c0-0.174-0.151-0.326-0.326-0.326h-2.083c-0.021,0-0.044,0-0.044-0.021h1.193
		c0.175,0,0.326-0.129,0.326-0.324c0-0.174-0.151-0.326-0.326-0.326h-1.976c-0.021-0.021-0.043-0.043-0.087-0.063h1.391
		c0.174,0,0.324-0.151,0.324-0.326c0-0.174-0.15-0.325-0.324-0.325h-1.933c-0.044-0.043-0.065-0.086-0.087-0.129h1.389
		c0.174,0,0.326-0.152,0.326-0.326s-0.152-0.326-0.326-0.326h-1.822c-0.108-0.174-0.195-0.324-0.26-0.455
		c5.077,0.977,15.864,1.758,22.42,0.326c2.258-0.5,3.711-1.174,4.646-1.89c-1.021,1.933-2.604,4.298-3.407,5.121
		C124.192,131.658,121.806,131.44,119.136,131.377L119.136,131.377z"/>
	<path fill="#FFFFFF" d="M130.617,124.476c-0.175,1.172-1.28,2.756-5.665,3.711c-6.881,1.498-18.167,0.521-22.659-0.435
		c-0.065-0.021-0.131-0.043-0.194-0.043c-0.892-0.194-1.478-0.392-1.673-0.543c-0.021-0.021-0.021-0.021-0.043-0.021
		c-0.087-0.263-0.194-0.521-0.304-0.718c-0.044-0.063-0.088-0.131-0.109-0.194c2.627,0.717,7.641,1.346,13.826,1.303
		c2.279-0.021,13.719-0.262,15.062-3.191c0.261-0.563,0.152-1.172-0.325-1.822c0.305-0.237,0.608-0.479,0.911-0.717
		C129.856,122.043,130.812,123.149,130.617,124.476L130.617,124.476z"/>
	<path fill="#FFFFFF" d="M68.151,132.269h-1.346c-0.021-0.023-0.021-0.045-0.043-0.088h1.389c0.196,0,0.326-0.132,0.326-0.326
		c0-0.174-0.13-0.304-0.326-0.304h-1.563c0-0.043,0-0.065-0.021-0.088h1.172c0.173,0,0.325-0.149,0.325-0.323
		c0-0.175-0.152-0.326-0.325-0.326h-1.303c0-0.043,0-0.088,0-0.131h1.107c0.173,0,0.325-0.15,0.325-0.324s-0.151-0.326-0.325-0.326
		h-1.172c0-0.043-0.021-0.109-0.021-0.174h1.128c0.174,0,0.326-0.152,0.326-0.326c0-0.043,0-0.064-0.021-0.107
		c0.26,0.129,0.586-0.043,0.781-0.195h1.302c0.174,0,0.325-0.131,0.325-0.326c0-0.174-0.151-0.325-0.325-0.325h-0.564
		c0.065-0.021,0.108-0.063,0.152-0.106h1.237c0.195,0,0.325-0.152,0.325-0.326c0-0.195-0.13-0.326-0.325-0.326H70.17
		c0.065-0.043,0.108-0.086,0.174-0.129h1.128c0.174,0,0.326-0.152,0.326-0.326s-0.152-0.326-0.326-0.326H71.19
		c0.065-0.043,0.13-0.086,0.195-0.129h1.237c0.174,0,0.304-0.152,0.304-0.326s-0.13-0.326-0.304-0.326h-0.13
		c0.021,0,0.043-0.021,0.043-0.021h1.584c0.174,0,0.326-0.151,0.326-0.325c0-0.043-0.021-0.107-0.043-0.15h0.825
		c-1.541,1.691-2.387,3.906-2.409,5.273c0,1.477,0.5,2.475,0.912,3.061c-1.389-0.543-2.908-0.891-4.081-1.041
		c-0.391-0.045-0.825-0.131-1.28-0.217c0.065-0.065,0.108-0.151,0.108-0.239C68.477,132.418,68.347,132.269,68.151,132.269
		L68.151,132.269z"/>
	<path fill="#FFFFFF" d="M92.222,129.313c0.26,1.607-0.282,3.146-1.65,4.56c-4.08,0.606-8.334,0.649-11.503,0.543
		c-0.021,0-0.021,0-0.043-0.021c-0.087-0.023-0.152-0.045-0.239-0.088h0.348c0.195,0,0.325-0.132,0.325-0.326
		c0-0.172-0.13-0.324-0.325-0.324h-1.52c0,0-0.021,0-0.021-0.021h0.976c0.174,0,0.326-0.131,0.326-0.326
		c0-0.174-0.151-0.326-0.326-0.326h-1.52c0,0-0.021,0-0.021-0.021h1.02c0.174,0,0.326-0.129,0.326-0.323
		c0-0.177-0.152-0.326-0.326-0.326h-1.28c0-0.043,0-0.088-0.022-0.131h0.999c0.173,0,0.326-0.132,0.326-0.326
		c0-0.174-0.152-0.304-0.326-0.304h-1.085c0-0.043,0-0.065,0-0.088h0.977c0.174,0,0.326-0.149,0.326-0.323
		c0-0.175-0.152-0.326-0.326-0.326h-0.955c0.022-0.043,0.022-0.088,0.022-0.131h0.933c0.174,0,0.326-0.15,0.326-0.324
		c0-0.131-0.087-0.24-0.195-0.283h0.022c0.195,0,0.325-0.152,0.325-0.326c0-0.195-0.13-0.324-0.325-0.324h-0.803
		c0-0.021,0.022-0.021,0.022-0.043h1.19c0.195,0,0.326-0.131,0.326-0.305c0-0.195-0.13-0.326-0.326-0.326h-0.912
		c0.022-0.043,0.044-0.064,0.044-0.086H78.2c0.195,0,0.326-0.152,0.326-0.326c0-0.129-0.065-0.238-0.195-0.305h0.542
		c0.195,0,0.326-0.129,0.326-0.303c0-0.195-0.13-0.326-0.326-0.326h-0.607c0.021-0.021,0.021-0.021,0.021-0.043h1.324
		c0.173,0,0.325-0.131,0.325-0.326c0-0.129-0.086-0.238-0.195-0.281h0.543c0.173,0,0.326-0.152,0.326-0.326
		s-0.152-0.326-0.326-0.326h-0.022c0.043-0.021,0.108-0.043,0.174-0.043c1.628,1.021,3.842,4.168,3.885,4.689
		c0.022,0.564,0.521,1.084,1.042,1.084c0.087,0,0.326-0.021,0.5-0.217h0.846c0.174,0,0.326-0.152,0.326-0.326
		s-0.152-0.324-0.326-0.324h-0.542c0-0.021,0-0.043,0.021-0.066h0.478c0.174,0,0.304-0.149,0.304-0.323
		c0-0.175-0.13-0.326-0.304-0.326h-0.542c0-0.021,0-0.021,0-0.021h0.282c0.173,0,0.304-0.152,0.304-0.326s-0.13-0.326-0.304-0.326
		h-0.521c-0.021-0.021-0.021-0.064-0.043-0.086h0.456c0.173,0,0.325-0.131,0.325-0.326c0-0.172-0.152-0.324-0.325-0.324h-0.803
		c-0.022-0.021-0.022-0.045-0.043-0.066h0.217c0.173,0,0.326-0.149,0.326-0.323c0-0.175-0.152-0.326-0.326-0.326H85.43
		c0.13-0.045,0.195-0.174,0.195-0.306c0-0.174-0.13-0.323-0.326-0.323H84.95c0.065-0.045,0.109-0.131,0.109-0.24
		c0-0.174-0.152-0.323-0.326-0.323h-0.651c-0.021,0-0.021-0.021-0.021-0.021h0.152c0.195,0,0.326-0.152,0.326-0.326
		s-0.13-0.326-0.326-0.326h-0.304c0.065-0.064,0.108-0.152,0.108-0.238c0-0.194-0.13-0.326-0.326-0.326H83.17
		c0.086-0.063,0.13-0.149,0.13-0.26c0-0.174-0.152-0.305-0.325-0.305h-0.717c-0.086-0.064-0.151-0.129-0.239-0.195h0.738
		c0.195,0,0.326-0.129,0.326-0.324c0-0.131-0.065-0.239-0.195-0.282h0.238c0.174,0,0.326-0.152,0.326-0.326
		c0-0.149-0.086-0.26-0.195-0.303h0.869c0.173,0,0.304-0.152,0.304-0.326c0-0.063-0.022-0.131-0.065-0.194h0.217
		c0.173,0,0.326-0.152,0.326-0.324c0,0,0,0,0-0.023c0.912,0.174,1.889,0.479,2.843,0.977
		C90.16,125.082,91.918,127.229,92.222,129.313L92.222,129.313z"/>
	<path fill="#FFFFFF" d="M99.429,131.115c-0.781,0.457-1.629,0.848-2.52,1.194c0-0.021,0-0.021,0-0.021
		c0-0.195-0.151-0.326-0.325-0.326h-0.173c0-0.043,0.021-0.065,0.021-0.088h0.458c0.172,0,0.324-0.149,0.324-0.324
		c0-0.174-0.152-0.325-0.324-0.325h-0.284c0-0.021,0.022-0.043,0.022-0.064h0.368c0.174,0,0.326-0.152,0.326-0.326
		s-0.152-0.326-0.326-0.326h-0.412c-0.021-0.064-0.021-0.129-0.043-0.195h0.413c0.174,0,0.304-0.129,0.304-0.303
		c0-0.195-0.13-0.326-0.304-0.326h-0.629c-0.021-0.043-0.043-0.086-0.065-0.131h0.325c0.174,0,0.325-0.15,0.325-0.324
		s-0.151-0.326-0.325-0.326h-0.716c0-0.021-0.021-0.063-0.043-0.086h0.13c0.174,0,0.326-0.131,0.326-0.325
		c0-0.175-0.152-0.326-0.326-0.326h-0.651c-0.021,0-0.021,0-0.021-0.021h0.369c0.174,0,0.326-0.131,0.326-0.326
		c0-0.174-0.152-0.324-0.326-0.324h-0.846c0,0,0,0-0.021-0.021h0.65c0.195,0,0.326-0.151,0.326-0.326
		c0-0.174-0.131-0.325-0.326-0.325h-0.889c0,0,0,0,0-0.021h0.803c0.086,0,0.152-0.021,0.217-0.086
		c0.369,0.324,0.716,0.693,0.803,0.998c0.195,0.586,0.847,1.149,1.41,0.998c0.152-0.043,0.369-0.151,0.479-0.455h0.803
		c0.195,0,0.326-0.151,0.326-0.325c0-0.175-0.131-0.326-0.326-0.326h-0.064c0.107-0.043,0.195-0.152,0.195-0.304
		c0-0.174-0.151-0.325-0.325-0.325H98.26c-0.022-0.021-0.022-0.043-0.022-0.064h0.414c0.195,0,0.324-0.152,0.324-0.326
		s-0.129-0.326-0.324-0.326h-0.721c-0.021-0.021-0.021-0.043-0.043-0.086h0.194c0.174,0,0.325-0.131,0.325-0.305
		c0-0.195-0.151-0.324-0.325-0.324h-0.717c0-0.023,0-0.023-0.021-0.045h0.108c0.195,0,0.324-0.129,0.324-0.303
		c0-0.195-0.129-0.326-0.324-0.326h-0.781c-0.022-0.021-0.022-0.021-0.043-0.043h0.065c0.173,0,0.326-0.131,0.326-0.305
		c0-0.021-0.021-0.043-0.021-0.043c1.107,0.5,1.997,1.28,2.52,2.258C100.209,128.033,100.188,129.553,99.429,131.115L99.429,131.115
		z"/>
	<path fill="#FFFFFF" d="M138.344,111.388c0,0,0.022-0.021,0.044-0.021c0.131-0.174,0.629-0.631,1.021-0.607
		c0.088,0,0.239,0.043,0.368,0.26c0.586,0.847,0.414,1.193-0.498,1.89c-0.868,0.78-15.953,13.045-16.104,13.151
		c-0.044,0.043-0.065,0.066-0.087,0.109c-0.934,0.152-1.934,0.281-2.995,0.391L138.344,111.388L138.344,111.388z"/>
	<path fill="#FFFFFF" d="M91.636,123.735c-0.673,0.349-1.085,0.804-1.324,1.107c-0.716-0.674-1.52-1.215-2.257-1.607
		c-2.756-1.475-5.47-1.366-7.054-0.823c0-0.021,0.021-0.063,0.021-0.086c0-0.175-0.151-0.326-0.325-0.326h-1.063
		c0,0-0.021,0-0.043-0.021h0.282c0.174,0,0.326-0.152,0.326-0.326s-0.152-0.324-0.326-0.324h-1.455
		c-0.021,0-0.021-0.021-0.043-0.021h1.498c0.174,0,0.326-0.151,0.326-0.326c0-0.174-0.152-0.325-0.326-0.325h-2.539
		c-0.044-0.021-0.087-0.043-0.13-0.064h0.738c0.195,0,0.326-0.151,0.326-0.325c0-0.175-0.13-0.326-0.326-0.326h-1.324
		c0.022-0.043,0.043-0.086,0.087-0.129H78.2c0.195,0,0.326-0.152,0.326-0.326c0-0.131-0.065-0.26-0.195-0.305h0.803
		c0.195,0,0.325-0.13,0.325-0.324c0-0.174-0.13-0.326-0.325-0.326h-0.629c0.087-0.043,0.151-0.086,0.239-0.131h1.801
		c0.173,0,0.326-0.129,0.326-0.324c0-0.066-0.043-0.152-0.087-0.195c0.173-0.021,0.325,0,0.499,0
		c1.129,0.195,3.907,2.365,4.081,2.82c0,0,0-0.021-0.022-0.021c0.065,0.479,0.738,0.955,1.302,0.912
		c0.087,0,0.304-0.043,0.478-0.238h1.194c0.173,0,0.326-0.131,0.326-0.305c0-0.195-0.152-0.326-0.326-0.326h-0.934
		c0.021-0.043,0-0.086,0-0.129h0.89c0.174,0,0.304-0.152,0.304-0.326s-0.13-0.326-0.304-0.326h-0.998
		c-0.021-0.021-0.021-0.021-0.021-0.021h0.434c0.173,0,0.326-0.149,0.326-0.325c0-0.193-0.152-0.324-0.326-0.324h-0.695
		c0.109-0.043,0.195-0.174,0.195-0.306c0-0.174-0.152-0.323-0.326-0.323h-0.76c-0.021,0-0.021-0.023-0.043-0.023h0.282
		c0.173,0,0.325-0.15,0.325-0.324s-0.152-0.326-0.325-0.326h-0.673c0.065-0.063,0.13-0.152,0.13-0.238
		c0-0.174-0.152-0.325-0.326-0.325h-1.324c0-0.021-0.021-0.021-0.043-0.021h0.26c0.195,0,0.326-0.151,0.326-0.325
		c0-0.172-0.131-0.324-0.326-0.324h-1.15c-0.022-0.021-0.022-0.021-0.043-0.021h0.478c0.173,0,0.326-0.152,0.326-0.326
		c0-0.195-0.152-0.326-0.326-0.326h-0.391c0.087-0.021,0.174-0.021,0.261-0.021c1.194,0.088,2.41,0.349,3.342,0.892
		C90.203,118.832,91.787,121.133,91.636,123.735L91.636,123.735z"/>
	<path fill="#FFFFFF" d="M62.508,131.594l0.021,0.021c0.043,0,0.065,0,0.087,0.021c1.389,0.674,4.797,1.803,6.946,2.062
		c1.932,0.217,4.709,1.062,6.272,2.213c0.543,0.391,1.78,1.15,3.212,2.02c2.388,1.432,5.969,3.625,6.272,4.275
		c0.26,0.629,1.237,2.148,0.651,3.713c-0.391,1.062-1.476,1.975-3.191,2.756c-0.086-0.021-0.26-0.066-0.456-0.109h0.195
		c0.174,0,0.304-0.151,0.304-0.323c0-0.175-0.13-0.326-0.304-0.326h-2.974c-0.043,0-0.065-0.021-0.108-0.021h0.955
		c0.173,0,0.325-0.152,0.325-0.326s-0.152-0.326-0.325-0.326h-1.606c0-0.174-0.152-0.303-0.325-0.303h-1.975
		c0.087-0.066,0.13-0.152,0.13-0.263c0-0.172-0.151-0.323-0.325-0.323H73.1c0.108-0.045,0.195-0.152,0.195-0.283
		c0-0.195-0.13-0.324-0.325-0.324h-3.582c-0.043-0.021-0.086-0.021-0.13-0.045h1.172c0.195,0,0.325-0.129,0.325-0.303
		c0-0.195-0.13-0.326-0.325-0.326h-5.665c-0.022-0.021-0.043-0.021-0.065-0.043h3.255c0.173,0,0.326-0.131,0.326-0.326
		c0-0.174-0.152-0.303-0.326-0.303h-0.651c0.108-0.066,0.195-0.174,0.195-0.306c0-0.174-0.152-0.325-0.326-0.325h-4.558
		c-0.043-0.021-0.065-0.043-0.087-0.086h2.822c0.195,0,0.326-0.132,0.326-0.326c0-0.174-0.131-0.303-0.326-0.303h-3.473
		c-0.022-0.046-0.065-0.109-0.108-0.132h2.235c0.196,0,0.326-0.151,0.326-0.325c0-0.195-0.13-0.326-0.326-0.326h-2.778
		c-0.021-0.021-0.065-0.064-0.086-0.086h1.584c0.174,0,0.326-0.152,0.326-0.326c0-0.172-0.152-0.324-0.326-0.324h-2.148
		l-0.022-0.021h1.28c0.174,0,0.326-0.152,0.326-0.326s-0.152-0.326-0.326-0.326H59.99c-0.043-0.043-0.087-0.086-0.13-0.129h1.932
		c0.174,0,0.326-0.131,0.326-0.325c0-0.175-0.152-0.326-0.326-0.326h-2.518c-0.021-0.043-0.065-0.086-0.108-0.131h2.257
		c0.174,0,0.326-0.13,0.326-0.304c0-0.194-0.152-0.326-0.326-0.326H58.58c0-0.021-0.021-0.021-0.021-0.043h1.823
		c0.174,0,0.326-0.131,0.326-0.305c0-0.195-0.152-0.324-0.326-0.324h-2.409c-0.021-0.045-0.043-0.065-0.065-0.088h2.474
		c0.174,0,0.326-0.151,0.326-0.324c0-0.174-0.152-0.325-0.326-0.325H57.3c-0.043-0.063-0.108-0.109-0.173-0.175h2.995
		c0.195,0,0.326-0.151,0.326-0.325c0-0.175-0.13-0.324-0.326-0.324H56.54c-0.086-0.088-0.152-0.151-0.238-0.239h3.473
		c0.174,0,0.304-0.13,0.304-0.326c0-0.172-0.13-0.324-0.304-0.324h-4.081c-0.108-0.088-0.195-0.195-0.282-0.283h4.515
		c0.174,0,0.326-0.129,0.326-0.324c0-0.174-0.152-0.326-0.326-0.326h-2.105c0.109-0.043,0.217-0.106,0.326-0.174h2.301
		c0.174,0,0.326-0.152,0.326-0.326c0-0.172-0.152-0.324-0.326-0.324h-1.52c0.109-0.108,0.217-0.237,0.326-0.391h1.454
		c0.174,0,0.304-0.131,0.304-0.326c0-0.174-0.13-0.305-0.304-0.305h-1.085c0.021-0.086,0.043-0.172,0.064-0.238h1.064
		c0.174,0,0.326-0.152,0.326-0.326c0-0.172-0.152-0.324-0.326-0.324H59.84c0-0.065,0-0.131,0.022-0.174h0.89
		c0.174,0,0.326-0.151,0.326-0.326c0-0.194-0.152-0.323-0.326-0.323h-0.955c0-0.045,0-0.066,0-0.088
		C60.771,131.463,61.878,131.354,62.508,131.594L62.508,131.594z"/>
	<path fill="#FFFFFF" d="M73.122,156.381c-0.956-0.76-5.622-2.084-9.051-2.887c0.109-0.063,0.174-0.195,0.152-0.326
		c-0.021-0.194-0.196-0.303-0.369-0.281l-1.411,0.238c-0.086-0.021-0.173-0.043-0.26-0.063c0.174-0.021,0.304-0.174,0.282-0.349
		c-0.022-0.174-0.174-0.305-0.347-0.282l-2.149,0.262c-0.151-0.043-0.304-0.088-0.456-0.152l0.586-0.043
		c0.173-0.021,0.304-0.174,0.304-0.348c-0.022-0.174-0.174-0.306-0.347-0.306l-1.867,0.175c-0.022,0-0.022-0.021-0.043-0.021
		l0.239-0.021c0.174,0,0.326-0.151,0.304-0.348c-0.021-0.174-0.173-0.303-0.347-0.303l-1.302,0.086
		c-0.065-0.021-0.13-0.064-0.195-0.109h0.542c0.174,0,0.326-0.129,0.326-0.324c0-0.174-0.152-0.326-0.326-0.326H55.91
		c-0.043-0.021-0.065-0.043-0.087-0.063h0.673c0.174,0,0.325-0.151,0.325-0.326c0-0.174-0.151-0.325-0.325-0.325H55.28
		c-0.021-0.021-0.021-0.021-0.021-0.043l0.195,0.021c0.173,0,0.326-0.129,0.326-0.304c0.021-0.174-0.108-0.348-0.304-0.348
		l-0.803-0.043c-0.022-0.021-0.043-0.045-0.043-0.045l0.347-0.043c0.174-0.021,0.304-0.174,0.282-0.369
		c-0.022-0.174-0.174-0.303-0.348-0.281l-0.868,0.107c-0.044-0.043-0.109-0.107-0.152-0.15l0.499-0.022
		c0.195-0.021,0.326-0.172,0.304-0.347c0-0.194-0.152-0.325-0.347-0.305l-1.107,0.064c-0.022,0-0.043-0.021-0.065-0.043H53.5
		c0.174,0,0.326-0.152,0.326-0.324c0-0.174-0.152-0.326-0.326-0.326h-1.042c-0.043-0.021-0.065-0.043-0.087-0.066l0.434-0.063
		c0.195-0.021,0.304-0.194,0.282-0.369c-0.022-0.174-0.195-0.303-0.369-0.28l-0.63,0.106c0.086-0.063,0.13-0.174,0.13-0.28
		c-0.022-0.066-0.044-0.109-0.087-0.152c5.036-0.195,8.595,1.477,10.288,2.279l0.152,0.063c1.498,0.694,4.276,0.606,6.489,0.543
		l1.064-0.043c2.018-0.043,7.119,1.324,8.226,1.627l0.195,7.358c-0.912-0.239-2.973-0.782-5.339-1.366
		C73.187,156.444,73.165,156.401,73.122,156.381L73.122,156.381z"/>
	<path fill="#FFFFFF" d="M118.549,153.58c0.565,0.586,0.869,1.217,0.869,1.867c0,1.389-1.411,2.627-3.451,3.319
		c0.021-0.043,0.064-0.106,0.064-0.174c0-0.174-0.151-0.324-0.325-0.324h-1.648c-0.021,0-0.045,0-0.065-0.021h0.673
		c0.174,0,0.326-0.151,0.326-0.326c0-0.174-0.152-0.325-0.326-0.325h-1.085c0.065-0.044,0.108-0.13,0.108-0.238
		c0-0.174-0.131-0.326-0.326-0.326h-2.084c-0.021,0-0.043-0.021-0.064-0.021h0.805c0.174,0,0.324-0.152,0.324-0.326
		s-0.15-0.324-0.324-0.324h-1.824c-0.043-0.021-0.086-0.045-0.131-0.088h1.237c0.175,0,0.326-0.129,0.326-0.303
		c0-0.195-0.151-0.326-0.326-0.326h-0.521c0.064-0.063,0.107-0.151,0.107-0.26c0-0.174-0.13-0.326-0.324-0.326h-0.436
		c0.107-0.043,0.195-0.151,0.195-0.283c0-0.194-0.151-0.323-0.325-0.323h-1.802c-0.021-0.021-0.021-0.021-0.021-0.043h1.193
		c0.195,0,0.326-0.132,0.326-0.306c0-0.194-0.131-0.326-0.326-0.326h-1.584c0-0.043-0.021-0.063-0.021-0.086h0.368
		c0.175,0,0.326-0.151,0.326-0.325c0-0.175-0.151-0.324-0.326-0.324h-0.586c-0.065-0.219-0.065-0.369-0.065-0.457
		c1.304-0.672,2.996-1.062,4.797-1.062c1.281,0,2.52,0.194,3.582,0.541c0.064,0.045,0.131,0.088,0.218,0.065
		C117.073,152.496,117.94,152.974,118.549,153.58L118.549,153.58z"/>
	<path fill="#FFFFFF" d="M107.696,151.758c-1.909,0.847-3.146,2.17-3.146,3.689c0,0.694,0.282,1.389,0.805,1.997h-0.674
		c0.131-0.045,0.194-0.151,0.194-0.305c0-0.174-0.13-0.326-0.325-0.326h-0.738c0.108-0.043,0.195-0.151,0.195-0.28
		c0-0.175-0.15-0.326-0.324-0.326h-0.891c0.043-0.063,0.064-0.131,0.064-0.195c0-0.174-0.131-0.325-0.325-0.325h-1.237
		c-0.043-0.021-0.087-0.043-0.13-0.086h0.435c0.194,0,0.325-0.132,0.325-0.326c0-0.174-0.131-0.304-0.325-0.304h-1.281
		c-0.043-0.045-0.107-0.088-0.151-0.131h0.717c0.173,0,0.325-0.151,0.325-0.325c0-0.195-0.152-0.324-0.325-0.324h-1.454
		c-0.044-0.023-0.064-0.066-0.087-0.088h0.868c0.174,0,0.325-0.152,0.325-0.326s-0.151-0.324-0.325-0.324h-1.52
		c-0.043-0.043-0.108-0.109-0.152-0.174h0.999c0.174,0,0.325-0.152,0.325-0.326s-0.151-0.326-0.325-0.326h-1.476
		c-0.045-0.064-0.066-0.129-0.109-0.174h1.367c0.195,0,0.326-0.15,0.326-0.324c0-0.131-0.088-0.26-0.195-0.305
		c0.174,0,0.304-0.152,0.304-0.326c0-0.172-0.151-0.324-0.325-0.324h-1.562c0,0,0,0,0-0.021h2.126c0.195,0,0.326-0.151,0.326-0.325
		c0-0.175-0.131-0.326-0.326-0.326h-1.692c0.261-0.281,0.544-0.435,0.607-0.478c0.022,0,0.044-0.021,0.044-0.043
		C100.903,149.694,105.026,149.783,107.696,151.758L107.696,151.758z"/>
	<path fill="#FFFFFF" d="M96.367,158.42c-0.065-0.021-0.108-0.021-0.174-0.043c0.022-0.043,0.044-0.086,0.044-0.129
		c0-0.195-0.152-0.326-0.326-0.326h-1.15c-0.152-0.063-0.304-0.131-0.434-0.194h0.239c0.173,0,0.325-0.131,0.325-0.326
		c0-0.174-0.152-0.326-0.325-0.326h-1.433c0,0-0.022,0-0.022-0.021h0.456c0.195,0,0.326-0.129,0.326-0.324
		c0-0.174-0.13-0.326-0.326-0.326h-1.324c-0.065-0.043-0.108-0.088-0.152-0.131h0.608c0.173,0,0.326-0.129,0.326-0.303
		c0-0.195-0.152-0.326-0.326-0.326h-1.237c-0.044-0.043-0.087-0.086-0.13-0.131h0.694c0.174,0,0.325-0.15,0.325-0.324
		c0-0.194-0.151-0.326-0.325-0.326h-1.194c0-0.021-0.022-0.063-0.043-0.088h0.695c0.173,0,0.303-0.129,0.303-0.323
		c0-0.175-0.13-0.326-0.303-0.326h-1.085c0,0,0,0,0-0.021h0.868c0.174,0,0.326-0.152,0.326-0.326s-0.152-0.324-0.326-0.324h-1.15
		c-0.022-0.021-0.022-0.043-0.043-0.066h0.825c0.195,0,0.325-0.15,0.325-0.324s-0.13-0.326-0.325-0.326h-0.977
		c0-0.021,0-0.043,0-0.086h0.782c0.173,0,0.325-0.131,0.325-0.325c0-0.175-0.152-0.326-0.325-0.326h-0.825
		c0-0.043,0.022-0.106,0.022-0.174h0.803c0.173,0,0.325-0.152,0.325-0.326c0-0.172-0.152-0.324-0.325-0.324h-0.695
		c0.021-0.065,0.043-0.151,0.065-0.217h0.825c0.195,0,0.325-0.151,0.325-0.326c0-0.194-0.13-0.325-0.325-0.325h-0.564
		c0-0.044,0.021-0.064,0.021-0.087h0.76c0.173,0,0.326-0.151,0.326-0.325c0-0.086-0.065-0.175-0.13-0.238h0.108
		c0.174,0,0.326-0.152,0.326-0.326s-0.152-0.324-0.326-0.324h-0.26c0.043-0.045,0.086-0.088,0.13-0.131h0.89
		c0.173,0,0.326-0.152,0.326-0.326c0-0.131-0.087-0.26-0.217-0.303c0.347-0.066,0.716-0.109,1.129-0.088
		c2.973,0.063,4.319,0.803,4.949,1.281c-1.087,0.28-2.822,1.215-3.321,2.844c-0.26,0.824-0.26,2.127,1.194,3.646
		c0.607,0.63,1.345,1.105,2.17,1.476C98.062,157.705,97.408,158.16,96.367,158.42L96.367,158.42z"/>
	<path fill="#FFFFFF" d="M125.582,154.772c-0.065,0.543-0.282,1.043-0.608,1.498c-0.021-0.149-0.15-0.28-0.304-0.28h-1.389
		c0.13-0.043,0.194-0.152,0.194-0.283c0-0.195-0.129-0.324-0.326-0.324h-0.76c-0.043-0.088-0.106-0.131-0.15-0.217v-0.022h0.607
		c0.174,0,0.325-0.15,0.325-0.324s-0.151-0.326-0.325-0.326h-1.129c-0.021-0.021-0.044-0.043-0.064-0.086h0.107
		c0.174,0,0.325-0.131,0.325-0.305c0-0.195-0.151-0.326-0.325-0.326h-0.955c-0.998-0.629-2.062-0.91-2.127-0.933
		c-0.586-0.5-1.322-0.911-2.147-1.217c0.347-0.586,1.323-1.758,3.342-1.604c0.651,0.043,1.303,0.194,1.954,0.434
		c0.043,0.043,0.087,0.064,0.15,0.064c0,0,0.022,0,0.045,0.021c1.105,0.437,2.147,1.149,2.82,1.978
		C125.256,153.039,125.712,153.842,125.582,154.772L125.582,154.772z"/>
	<path fill="#FFFFFF" d="M136.543,149.543c-0.108,0.263-0.261,0.5-0.413,0.738c-3.537,0.629-10.854,0.065-13.956-0.392
		c-0.737-0.281-1.521-0.479-2.257-0.521c-1.303-0.106-2.234,0.305-2.887,0.78c-0.045,0-0.065,0-0.108,0
		c-7.142,0.306-8.834-1.604-9.833-2.756c-0.91-0.977-1.845-2.496-2.234-3.125c1.062-0.649,1.193-0.563,2.519,0.26l0.325,0.195
		c1.691,1.086,3.494,0.262,4.449-0.174c0.151-0.064,0.261-0.129,0.348-0.15c0.195-0.088,0.391-0.194,0.586-0.325
		c0.76-0.5,1.562-0.998,2.583,0.28c1.476,1.89,3.688,1.541,5.209,0.349c0.998-0.672,1.866-0.586,3.082,0.326
		c0.998,0.717,2.409,0.846,3.299,0.629c0.499-0.132,0.847-0.369,1.021-0.693c0.131-0.325,0.392-0.436,0.564-0.479
		c0.521-0.106,1.15,0.109,1.671,0.564c0.478,0.434,1.173,0.629,1.953,0.564c0.935-0.088,1.867-0.543,2.302-1.129
		c0.586-0.803,1.844-0.717,2.344-0.543c0.174,0.043,0.412,0.131,0.717,0.217C137.649,145.183,137.085,148.414,136.543,149.543
		L136.543,149.543z"/>
	<path fill="#FFFFFF" d="M71.429,123.26c0,0,2.214-0.194,3.516,0.541c0,0-6.121,2.041-7.597,4.843
		C68.824,125.842,69.388,124.17,71.429,123.26L71.429,123.26z"/>
	<path fill="#FFFFFF" d="M95.868,141.058c-0.021,0-0.021,0-0.021,0.021c-2.062,1.237-4.862,1.586-6.621,1.692
		c-0.412-0.369-0.716-0.737-0.933-1.041c2.084-0.174,5.86-0.586,8.009-1.303C96.15,140.646,96.02,140.86,95.868,141.058
		L95.868,141.058z"/>
	<path fill="#FFFFFF" d="M96.866,139.494c-1.692,0.934-6.555,1.409-8.855,1.606c0-0.022,0-0.022,0-0.022
		c-0.022-0.392-0.109-0.736-0.261-1.062c0.781,0,1.736-0.043,2.756-0.109c0.022,0.088,0.065,0.174,0.087,0.262
		c0.022,0.129,0.13,0.238,0.26,0.26c0.109,0.021,0.239-0.043,0.326-0.152c0.087-0.151,0.195-0.303,0.304-0.454
		c2.105-0.218,4.363-0.607,5.924-1.367C97.257,138.799,97.062,139.146,96.866,139.494L96.866,139.494z"/>
	<path fill="#FFFFFF" d="M95,133.613c-0.738,0.977-1.823,2.518-2.735,3.862c-0.043-0.045-0.087-0.065-0.13-0.065
		c0.152-0.043,0.26-0.15,0.26-0.304c0-0.194-0.152-0.325-0.325-0.325h-0.564c-0.021-0.043-0.021-0.064-0.043-0.087h0.477
		c0.152,0,0.304-0.151,0.304-0.325c0-0.175-0.152-0.326-0.304-0.326h-0.934c-0.043-0.043-0.086-0.086-0.108-0.131h0.477
		c0.174,0,0.326-0.129,0.326-0.324c0-0.174-0.152-0.325-0.326-0.325h-0.586c0.087-0.044,0.13-0.132,0.13-0.238
		c0-0.174-0.152-0.326-0.326-0.326h-1.215C91.288,134.459,93.198,134.11,95,133.613L95,133.613z"/>
	<path fill="#FFFFFF" d="M80.675,135.131c1.562,0.022,3.321,0,5.144-0.106c0.065,0.043,0.239,0.149,0.521,0.324
		c-1.411,0.325-3.234,0.305-4.515,0.219C81.499,135.414,81.087,135.262,80.675,135.131L80.675,135.131z"/>
	<path fill="#FFFFFF" d="M87.034,135.826c0.326,0.237,0.673,0.5,1.042,0.803c-1.107,0.174-3.234,0.131-4.754,0.065
		c-0.195-0.151-0.369-0.305-0.542-0.436C84.169,136.281,85.797,136.217,87.034,135.826L87.034,135.826z"/>
	<path fill="#FFFFFF" d="M88.662,137.172c0.26,0.261,0.499,0.521,0.738,0.804c-0.781,0.174-2.409,0.194-3.929,0.174
		c-0.369-0.217-0.781-0.498-1.193-0.781C85.84,137.433,87.794,137.433,88.662,137.172L88.662,137.172z"/>
	<path fill="#FFFFFF" d="M97.888,137.455c-1.304,0.91-3.646,1.389-5.926,1.647c0.151-0.26,0.347-0.543,0.542-0.824
		c0.781-0.088,3.842-0.479,5.578-1.346C98.017,137.106,97.951,137.281,97.888,137.455L97.888,137.455z"/>
	<path fill="#FFFFFF" d="M98.451,135.957c-0.978,0.846-3.799,1.39-5.47,1.604c0.304-0.434,0.586-0.846,0.868-1.26
		c0.629-0.086,3.364-0.52,4.882-1.258C98.646,135.326,98.56,135.651,98.451,135.957L98.451,135.957z"/>
	<path fill="#FFFFFF" d="M98.972,134.133c-0.76,0.652-3.146,1.193-4.602,1.435c0.261-0.369,0.5-0.695,0.716-1
		c0.456-0.064,2.713-0.392,4.015-1.021C99.08,133.742,99.037,133.938,98.972,134.133L98.972,134.133z"/>
	<path fill="#FFFFFF" d="M99.274,132.701c-0.672,0.543-2.475,0.934-3.625,1.129c0.196-0.263,0.347-0.457,0.434-0.563
		c1.192-0.369,2.301-0.849,3.319-1.392C99.384,132.094,99.341,132.375,99.274,132.701L99.274,132.701z"/>
	<path fill="#FFFFFF" d="M102.922,119.069c7.076-0.563,18.861-0.543,23.724,1.193l-0.955,0.803
		c-6.988-1.604-16.321-1.584-22.769-1.02c-5.122,0.455-6.143,2.756-6.359,3.559c-0.434-0.149-0.912-0.28-1.389-0.346
		C95.391,122.412,96.519,119.547,102.922,119.069L102.922,119.069z"/>
	<path fill="#FFFFFF" d="M93.351,143.791c-1.324,0.5-2.497,0.065-3.321-0.435c1.433-0.106,3.234-0.412,4.862-1.086
		C94.436,142.793,93.915,143.313,93.351,143.791L93.351,143.791z"/>
	<path fill="#FFFFFF" d="M141.558,143.099c-0.195,0.368-0.543,0.586-1.063,0.629c-0.935,0.043-1.606-0.021-2.127-0.107
		c-0.065-0.045-0.152-0.066-0.218-0.045c-0.369-0.086-0.65-0.174-0.846-0.26c-0.652-0.217-2.259-0.306-3.062,0.803
		c-0.326,0.412-1.085,0.781-1.823,0.848c-0.607,0.043-1.129-0.088-1.477-0.391c-0.672-0.609-1.541-0.869-2.235-0.717
		c-0.478,0.106-0.847,0.412-1.021,0.846c-0.064,0.131-0.281,0.262-0.586,0.326c-0.738,0.174-1.932,0.063-2.777-0.521
		c-1.411-1.084-2.604-1.172-3.842-0.324c-0.262,0.217-2.627,1.931-4.319-0.24c-1.39-1.715-2.67-0.911-3.431-0.411
		c-0.174,0.108-0.347,0.217-0.478,0.26c-0.803,0.326-2.604,1.435-4.211,0.394l-0.325-0.22c-1.498-0.934-1.865-1.084-3.363-0.129
		c-0.043,0-0.065,0-0.108,0.021c-0.021,0.021-0.021,0.021-0.044,0.043c-1.129,0.455-3.842,1.238-4.602-0.131
		c-0.521-0.998-0.151-1.821,0.325-2.233c0.282-0.218,0.738-0.412,1.063-0.152c0.717,0.564,1.303,1.648,2.214,1.648
		c0.412-0.021,0.803-0.238,1.192-0.693c0.588-0.674,1.217-1.041,1.78-1.041c0.369,0.021,0.673,0.193,0.935,0.498
		c0.736,1.021,2.668,1.498,4.146,0.65c1.15-0.673,2.04-1.105,3.038-0.716c0.044,0.021,0.064,0.021,0.109,0.021
		c0.173,0.086,0.347,0.195,0.541,0.324c2.02,1.391,3.82,1.607,5.471,0.631c1.953-1.107,2.734-1.41,3.646-0.369
		c0.737,0.867,1.453,1.324,2.17,1.346c0.607,0.043,1.193-0.237,1.759-0.803c1.259-1.26,2.301-0.826,2.8-0.436
		c0.934,0.738,2.409,0.934,3.234-0.064c0.759-0.867,1.302-1.236,2.127-0.76c1.041,0.521,2.214,0.848,3.082-0.564
		c0.261-0.434,0.65-0.672,1.062-0.672c0.391,0,0.781,0.217,1.042,0.629C141.665,141.558,141.86,142.49,141.558,143.099
		L141.558,143.099z"/>
</g>
</svg>
