<?xml version="1.0" encoding="utf-8"?>
<!-- Generator: Adobe Illustrator 16.0.0, SVG Export Plug-In . SVG Version: 6.00 Build 0)  -->
<!DOCTYPE svg PUBLIC "-//W3C//DTD SVG 1.1//EN" "http://www.w3.org/Graphics/SVG/1.1/DTD/svg11.dtd">
<svg version="1.1" id="Layer_1" xmlns="http://www.w3.org/2000/svg" xmlns:xlink="http://www.w3.org/1999/xlink" x="0px" y="0px"
	 width="175.751px" height="124.663px" viewBox="8.504 34.046 175.751 124.663"
	 enable-background="new 8.504 34.046 175.751 124.663" xml:space="preserve">
<g>
	<path fill="#FFFFFF" d="M93.131,34.575v0.028c-4.929,0.821-7.223,4.419-7.308,7.648c0,0.057,0,0.113,0,0.17
		c0,1.445,0.51,2.748,1.218,3.909c0,0.17-0.085,0.34-0.085,0.51c0,0.085,0,0.198,0,0.283c0.085,2.039,1.048,3.824,2.521,5.183
		c-1.983,0.793-4.844,1.501-9.121,1.728c-7.818,0.396-14.616-1.048-21.159-2.436c-6.317-1.332-12.832-2.72-20.026-2.437
		C22.743,49.842,10.818,60.351,8.807,75.93c-0.708,5.58-0.17,11.188,1.558,16.173l-0.227-0.906
		c1.02,5.948,3.569,11.245,7.336,15.437c-3.286,4.477-5.608,10.452-5.608,17.194c0,3.03,0.538,6.231,1.586,9.487
		c0.765,4.646,2.578,9.149,5.382,13.398c4.164,6.316,10.282,10.311,17.647,11.557c9.659,1.672,20.875-1.502,30.053-8.44
		c13.171-9.972,25.663-14.531,40.42-14.813c11.357-0.228,19.431,1.614,26.54,3.229c3.938,0.906,7.647,1.756,11.302,2.066
		c14.191,1.246,25.21-2.974,31.895-12.235c7.394-10.197,9.604-24.558,5.58-36.511l0.228,0.793
		c-1.304-7.081-4.532-13.426-9.291-18.326c-8.894-9.177-22.489-14.049-36.028-13.398c-0.228-1.388-0.566-2.747-1.104-4.05
		c-0.341-2.691-1.161-5.269-2.636-7.62C125.224,35.793,104.914,32.62,93.131,34.575L93.131,34.575z"/>
	<path fill="#386AB3" d="M29.881,108.759c-10.99-4.531-15.976-15.749-14.446-27.617c1.558-11.896,10.424-21.216,24.983-21.811
		c13.681-0.566,24.954,5.722,41.241,4.872c12.01-0.623,17.137-4.844,18.015-9.036c0.851-4.164-2.294-5.608-5.296-6.231
		c-2.464-0.539-2.748-3.683,0.68-4.249c10-1.671,27.787,0.935,34.557,11.783c3.965,6.345,1.501,13.511-1.615,16.117
		c13.03-4.164,30.847-1.728,42.147,9.885c11.104,11.443,10.453,30.393,1.812,42.347c-6.57,9.092-17.223,10.763-26.796,9.912
		c-9.403-0.82-19.94-5.664-38.465-5.324c-16.004,0.283-29.686,5.324-43.735,15.976c-11.953,9.036-30.393,12.095-39.513-1.728
		C13.565,128.671,20.165,113.063,29.881,108.759L29.881,108.759z"/>
	<path fill="#EF3E42" d="M28.748,104.34c-10.99-4.532-15.976-15.749-14.446-27.617c1.558-11.896,10.424-21.215,24.955-21.811
		c13.709-0.566,24.983,5.722,41.27,4.872c11.981-0.623,17.137-4.843,17.986-9.036c0.879-4.192-2.294-5.608-5.268-6.231
		c-2.493-0.539-2.748-3.682,0.68-4.249c9.999-1.671,27.787,0.935,34.557,11.783c3.965,6.345,1.502,13.511-1.614,16.117
		c13.001-4.164,30.847-1.728,42.147,9.886c11.104,11.415,10.452,30.393,1.784,42.375c-6.543,9.064-17.222,10.707-26.769,9.887
		c-9.402-0.852-19.939-5.693-38.465-5.354c-16.003,0.312-29.686,5.354-43.733,16.003C49.878,150,31.439,153.06,22.318,139.235
		C12.433,124.252,19.004,108.646,28.748,104.34L28.748,104.34z"/>
	<path fill="#FFFFFF" d="M51.294,96.551c-2.804,1.728-6.146,2.747-9.914,2.747c-11.302,0-18.609-7.535-18.609-19.062
		c0-10.99,7.761-19.006,18.609-19.091c3.909-0.029,7.11,0.396,9.914,2.152v8.469c0,1.983-0.935,2.437-1.784,2.437
		c-0.793,0-1.473-0.539-1.7-1.417c-0.198-0.821-0.51-1.615-1.104-2.323c-1.161-1.36-3.172-2.011-5.297-2.011
		c-6.146,0-10.112,4.815-10.112,11.784c0,7.279,4.051,11.783,10.197,11.783c1.501,0,4.051-0.312,5.184-1.841
		c0.566-0.737,0.935-1.501,1.133-2.323c0.227-0.878,1.048-1.417,1.87-1.417c0.822,0,1.614,0.454,1.614,2.408L51.294,96.551
		L51.294,96.551z"/>
	<path fill="#FFFFFF" d="M135.394,73.664c-9.291,0.198-15.154,3.427-22.604,7.732c-7.45,4.277-18.638,11.67-28.835,11.699
		c-8.922,0.057-10.877-5.863-11.896-8.384c-0.963-2.464-1.813-4.135-4.249-4.447c2.408-0.283,4.617-2.804,4.617-6.43
		c0.17-5.75-3.314-7.733-8.781-8.413v5.58c1.643,0.652,2.096,2.125,2.096,3.683c0,1.416-0.708,2.775-2.096,3.427v5.382
		c1.048,0.652,1.926,2.153,2.861,5.127c1.812,5.806,6.628,9.574,15.125,9.488c7.818-0.057,12.973-2.748,19.94-5.892
		c6.996-3.172,14.984-6.062,20.988-6.345c6.062-0.255,10.084,0.991,14.248,3.625c4.277,2.719,10.112,1.756,11.868-2.917
		c0.283-0.737,0.453-1.473,0.566-2.266v-2.04C148.733,77.828,144.796,73.465,135.394,73.664L135.394,73.664z M63.645,65.421
		c-0.085,0-0.17,0-0.255-0.028c-3.229-0.368-6.713-1.133-8.979-1.7c-1.162-0.283-1.785-0.028-1.926,0.708
		c-0.085,0.538,0.113,1.161,0.85,1.558c0.907,0.481,0.935,1.105,0.907,2.379c0,1.359,0.028,22.66,0.028,22.66
		c0,1.303-0.028,1.926-0.906,2.408c-0.765,0.396-0.963,1.02-0.85,1.586c0.113,0.708,0.793,0.963,1.898,0.539
		c2.323-0.821,5.665-2.606,7.11-3.229v-9.149c0.821-0.113,1.501-0.028,2.124,0.34V78.11c-0.595,0.255-1.303,0.397-2.124,0.34v-7.789
		c0.878,0,1.558,0.142,2.124,0.34L63.645,65.421L63.645,65.421z"/>
	<path fill="#FFFFFF" d="M81.263,83.719v-3.031c0.935-0.084,2.294-0.227,3.541-0.51c1.784-0.368,3.144-1.331,3.144-3.654
		c0-2.153-1.699-2.266-3.115-1.954c-0.85,0.198-2.351,0.425-3.569,0.538v-2.974c2.436-0.226,5.608-0.765,7.875-1.643v-6.203
		c-4.9,1.359-10.934,1.897-14.502,1.841c-1.048,0-1.671,0.199-1.756,0.963c-0.057,0.595,0.227,1.077,0.792,1.275
		c0.822,0.283,0.822,0.822,0.822,1.983v11.302c0,8.158,6.571,9.829,15.353,7.28v-6.855C87.069,83.323,83.642,83.775,81.263,83.719
		L81.263,83.719z"/>
	<path fill="#FFFFFF" d="M92.451,67.46c0-1.133,0-1.671-0.793-1.7c-0.538,0-0.793-0.396-0.793-0.991
		c0.028-0.793,0.566-1.162,1.614-1.473c2.351-0.708,5.807-2.096,7.308-2.861l3.626,11.727l2.748-15.041
		c2.832-1.614,5.495-3.541,8.384-5.892v25.606c-1.671,1.53-4.276,3.484-6.005,4.504V68.367l-2.946,14.729
		c-0.878,0.539-3.144,1.671-4.05,2.068l-2.918-11.67v12.832c-1.926,0.85-4.305,1.501-6.033,1.982
		c-1.02,0.283-1.643,0.142-1.728-0.595c-0.057-0.566,0.227-1.02,0.793-1.36c0.765-0.424,0.793-0.821,0.793-2.096V67.46L92.451,67.46
		z"/>
	<path fill="#FFFFFF" d="M93.16,114.765c-2.351,0.312-4.362,0.68-6.204,1.075v-14.813c-2.096,0.367-4.164,0.51-6.231,0.453
		c-1.048-0.057-1.614,0.228-1.728,0.906c-0.084,0.51,0.085,1.021,0.765,1.274c0.821,0.282,0.821,0.821,0.821,1.981
		c0,1.219,0,13.683,0,13.683c0,1.161,0,1.698-0.821,2.124c-0.651,0.367-0.85,0.906-0.765,1.416c0.114,0.65,0.737,0.906,1.728,0.51
		c2.04-0.821,7.648-2.662,12.435-3.512V114.765L93.16,114.765z"/>
	<path fill="#FFFFFF" d="M108.937,92.755c-0.905,0.34-2.633,1.076-4.446,1.869v6.968v-0.112l1.274,8.045
		c-0.426,0-0.851,0.027-1.274,0.057v4.164c0.622-0.028,1.274-0.057,1.927-0.085l0.793,5.014c1.926-0.058,4.561,0.028,6.458,0.226
		L108.937,92.755L108.937,92.755z M104.489,94.624c-2.067,0.907-4.277,1.897-5.608,2.493c-0.565,0.255-0.963,0.623-0.991,1.331
		c0,0.595,0.368,0.906,0.736,0.99c0.736,0.143,0.708,0.426,0.51,1.586l-3.116,14.447c-0.226,1.245-0.312,1.643-1.161,1.926
		c-0.623,0.227-1.02,0.623-0.991,1.218c0,0.737,0.368,1.049,1.416,0.907c1.841-0.256,4.305-0.567,6.458-0.709l0.793-4.957
		c0.623-0.057,1.274-0.084,1.954-0.112v-4.164c-0.426,0.028-0.879,0.058-1.303,0.085l1.303-8.073V94.624L104.489,94.624z"/>
	<path fill="#FFFFFF" d="M128.452,89.781c-0.766-0.255-1.586-0.397-2.436-0.481v6.882c0.935,0.312,1.812,1.105,2.066,2.946
		c0.539,3.824,0.17,7.903-0.198,9.999c-0.255,1.274-0.793,2.634-1.868,3.343v7.647c6.967-0.651,10.084-7.96,10.084-15.749
		C136.101,94.596,133.099,91.253,128.452,89.781L128.452,89.781z M126.017,89.299c-3.625-0.396-7.676,0.481-9.545,0.991
		c-1.134,0.34-1.897,0.821-1.897,1.671c0,0.623,0.34,1.048,0.935,1.161c0.879,0.17,0.906,0.651,0.906,1.982
		c0,1.389,0,19.488,0,19.488c0,1.304-0.057,1.927-0.936,2.067c-0.623,0.085-0.935,0.566-0.905,1.189
		c0.057,0.851,0.765,1.161,1.981,1.274c2.211,0.228,4.702,0.565,6.346,0.851c1.134,0.17,2.152,0.227,3.115,0.142v-7.647
		c-0.595,0.396-1.358,0.566-2.322,0.452V96.211c0.426-0.143,1.389-0.34,2.322-0.029V89.299L126.017,89.299z"/>
	<path fill="#FFFFFF" d="M152.614,82.671c-0.028,0-0.086,0-0.143,0v10.537l0,0c2.662,0,4.702,4.307,4.702,10.141
		c0,5.863-2.04,10.141-4.702,10.141l0,0v9.688c9.008,0,15.012-8.412,15.012-20.167C167.483,91.338,161.563,82.756,152.614,82.671
		L152.614,82.671z M152.474,82.671c-0.086,0-0.17,0-0.17,0c0.141,1.615-0.113,3.427-0.736,5.07
		c-1.105,2.917-3.201,4.985-6.176,5.977c-2.067,0.68-4.531,0.736-6.516,0.085c-0.99,2.748-1.443,5.948-1.443,9.206
		c0,12.378,6.004,20.167,15.041,20.167l0,0v-9.688c-2.691,0-4.73-4.275-4.73-10.139c0-5.836,2.039-10.142,4.73-10.142V82.671
		L152.474,82.671z"/>
	<path fill="#FFFFFF" d="M77.637,106.577v-5.354c-5.693-0.396-12.917-4.561-14.333-5.156c-0.992-0.424-1.813,0-1.926,0.737
		c-0.085,0.538,0.142,1.303,0.85,1.756c0.85,0.565,0.907,1.104,0.907,2.406c0,0.566,0,5.07,0,10.424
		c-1.388,0.228-2.833,0.453-4.277,0.736V97.485c-2.266,1.246-4.815,2.322-7.506,3.229v13.172c-2.067,0.566-4.164,1.189-6.203,1.897
		v-13.454c-2.833,0.396-5.552,0.425-7.79,0.113c-1.189-0.143-1.784,0.197-1.926,0.99c-0.085,0.566,0.142,1.189,0.935,1.529
		c0.935,0.368,0.935,1.02,0.935,2.379c0,0.566,0,5.666,0,11.5c-1.189,0.539-2.379,1.105-3.512,1.672
		c-4.249,2.152-4.815,4.872-4.73,6.996c0.113,2.521,2.464,5.155,7.11,2.266c0.368-0.227,0.736-0.48,1.132-0.707
		c0,4.391,0,7.677,0,7.677c0,1.331,0,1.981-0.935,2.011c-0.793,0.028-1.076,0.538-1.048,1.161c0.028,0.793,0.708,1.358,1.813,1.729
		c2.379,0.793,5.693,0.905,8.016,0.48v-17.42c1.983-1.021,4.051-2.012,6.203-2.946v18.667c1.955-0.709,5.184-2.465,7.506-4.306
		v-17.308c1.417-0.481,2.861-0.936,4.277-1.359c0,5.607,0,10.452,0,10.452c0,1.303,0,1.926-0.907,2.86
		c-0.736,0.793-0.935,1.332-0.821,1.842c0.114,0.65,0.821,0.99,1.7,0.367c3.087-2.181,9.347-6.203,14.333-8.242v-6.118
		c-2.549,0.851-5.637,2.38-7.308,3.173v-5.977c1.275-0.228,2.521-0.396,3.767-0.539c1.813-0.17,2.606-1.217,2.55-2.578
		c-0.057-1.416-1.19-2.066-2.634-2.066c-1.162-0.027-2.408,0-3.683,0.057v-5.438C72.708,106.267,75.428,106.577,77.637,106.577
		L77.637,106.577z"/>
</g>
</svg>
