<?xml version="1.0" encoding="utf-8"?>
<!-- Generator: Adobe Illustrator 16.0.0, SVG Export Plug-In . SVG Version: 6.00 Build 0)  -->
<!DOCTYPE svg PUBLIC "-//W3C//DTD SVG 1.1//EN" "http://www.w3.org/Graphics/SVG/1.1/DTD/svg11.dtd">
<svg version="1.1" id="Layer_1" xmlns="http://www.w3.org/2000/svg" xmlns:xlink="http://www.w3.org/1999/xlink" x="0px" y="0px"
	 width="174.11px" height="158.286px" viewBox="12.518 16.742 174.11 158.286"
	 enable-background="new 12.518 16.742 174.11 158.286" xml:space="preserve">
<g>
	<path d="M81.69,75.225c-1.045-0.889-1.219,0.711-2.091,0.889c-0.523-0.711-0.697-1.778-1.742-1.778l-1.22,0.889
		c-0.349-0.711-0.698-1.244-1.395-1.778c-0.696,0.178-1.393,0.889-1.742,1.601c-0.522-0.889,0-2.134-1.22-2.667
		c-0.522,0.178-1.22,0.533-1.394,1.066c-0.871-0.355-0.697-2.312-2.09-2.133c-0.349,0.355-0.523,0.711-1.045,0.889
		c-0.523-0.711-0.697-2.311-1.917-1.955c-0.697,0.355-0.697,1.066-1.22,1.066c-0.696-0.711-0.696-2.133-1.916-1.956
		c-0.523,0.355-0.523,0.889-1.22,1.245c-0.871-0.534-0.523-2.667-2.265-2.133c-0.349,0.178-0.174,0.889-0.697,0.711
		c-0.697-0.534-0.697-1.422-1.395-1.422l-1.567,1.422c-0.697-0.534-0.697-2.311-1.917-1.778c-1.045,2.489-1.394,6.221-4.529,7.11
		c-2.091,0.355-3.833-0.889-4.879-2.667c-1.394-2.489-1.568-5.511-2.091-8.355c-0.174-0.177-0.523-0.355-0.871-0.355
		c-0.174,0.355-0.522,0.889-1.046,0.711c-0.348-0.711-0.348-1.6-1.219-2.133c-0.349-0.178-0.872-0.355-1.221,0
		c-0.696,0.356-0.348,1.422-1.219,1.245c-0.697-0.889-0.872-2.489-2.265-2.489c-0.523,0.355-0.523,1.244-1.22,1.244
		c-0.348-0.889-1.045-2.311-2.265-2.311c-0.348,0.355-0.697,0.889-1.22,0.889c-0.522-0.533-0.522-2.133-1.917-1.956l-1.219,1.244
		c-0.697-0.889-0.872-2.666-2.265-2.488l-1.22,1.066c-0.697-0.533-0.871-2.666-2.266-1.6l-0.522,0.534
		c-1.742-1.245,0.872-1.956,1.046-3.022c0.348,0,0.522-0.533,0.871,0c0.871-0.533,0.697-1.245,0.697-1.956
		c-0.871-1.244-2.091-1.777-3.484-1.777c-1.742,0-3.311,1.066-4.704,2.311c-1.045-1.244,0.696-2.666-0.175-4.088
		c0.349-2.844,1.743-5.688,4.53-6.754c2.963-0.533,3.485-4.444,6.099-5.511c1.045-0.355,2.265-0.355,2.788-1.245
		c1.22-2.666,3.659-3.555,5.924-4.799c4.704-1.6,10.105-0.178,13.764,3.022c1.046,1.066,2.091,2.311,2.789,3.733
		c3.136-2.133,8.886-6.577,8.886-6.577l0.871-6.221l13.067-5.511c0,0,0.871,0.533,1.22,0.533c0.174,2.844,0,6.222,2.265,8.177
		l6.969,7.999c2.091-1.422,3.66-3.91,5.227-6.043c2.614,0.533,3.136-3.732,6.272-2.488c1.394-0.889,3.311-2.489,4.878-1.067
		c1.045,0.534,2.266-0.355,3.311-0.534c1.221-0.177,2.613,0,3.659,1.067c-0.175,0.71,0.174,1.422,0.871,1.422
		c0.87-0.711,1.567-0.356,2.612-0.533c0.35,0.711,0.697,1.422,0.871,2.311c0.35,1.422-1.394,2.489,0,3.733
		c1.395,0.178,2.614-3.555,3.312-0.533c0.349,0.889-0.871,2.666,1.045,3.021c0.349,0,0.696,0.356,1.046,0.356
		c-1.046,1.422-1.568,3.2-3.311,3.733c-0.349,0.355-0.349,0.889-0.349,1.422c0.349,0.178,0.522,0.71,1.046,0.533
		c0.521-0.355,0.87-0.889,1.566-0.711c0.697,0.711,0.35,2.312,0.35,3.2c-0.697,1.777-3.832,2.311-3.137,4.622
		c-1.742,1.6-3.658,2.488-5.575,4.266c-0.87,0.533-1.741,0.889-2.788,1.067l-0.174-0.178c-0.349,0.533-0.523-0.356-0.871,0.178
		c-0.349-0.178-1.046,0.178-1.395,0.533c-0.174,0.178-0.174,0.534-0.522,0.711c0,0.711,0.349,1.244,0.871,1.6
		c1.22,0,2.613-0.711,3.833,0l0.35-0.356c0,3.911,0.696,8.176,0,12.088l0.174,0.177l-1.219,12.799
		c0.348,0.889,0.174,2.311,1.394,2.489c5.228-4.266,9.931-10.31,15.854-14.398l5.75-5.333c0.174,0,0.521-0.178,0.521,0
		c1.046-0.178,2.613,0,3.137-1.422c0.174-0.533,0.697-1.422,0-1.955c-0.349-0.178-1.045-0.533-1.395-0.356
		c-0.696-0.355-1.045,0.711-1.916,0.711v-0.355c2.613-1.955,4.529-5.51,7.666-5.866c0.697,0.533,1.568,0.71,2.265,0.355
		c1.743-1.244,4.183-0.355,5.925,0.533c0.696,1.066-0.349,2.844,1.045,3.733c1.396-0.533,2.439-2.133,3.834-2.844
		c3.832-1.6,8.014-2.312,12.021-3.556h1.916c0.349,2.311-2.439,4.089-0.35,6.222c1.047-0.355,1.396-0.889,2.267-1.422
		c2.265-1.244,5.053-0.178,7.666-1.066c1.22,0.178,2.612,0.178,3.659,1.066c1.742-1.066,4.007-0.355,5.4,0.534
		c1.568,1.244,2.092,3.021,2.612,4.799c0.522,3.555-2.961,4.799-4.878,6.933c-1.395-0.355-2.266,0.711-3.484,1.066
		c-1.22,1.066,0.174,3.555-2.091,3.733c-4.879,6.577-12.196,11.199-16.552,17.954c-5.053,5.511-11.674,8.177-16.029,14.578
		c-6.271,8.176-14.984,12.441-21.605,20.441c-0.521,0.889-1.394,1.777-1.916,2.666l-1.219,2.311
		c-4.531,3.021-6.272,8.89-11.674,10.133c-1.917,2.134-1.742,5.154-4.183,6.933c-1.567,0.89-2.613,2.312-4.183,3.377
		c-10.802,7.822-15.505,18.488-16.899,20.088c0-4.62-0.174-10.487-0.871-13.332c0-3.555,3.485-7.998,0-10.666
		c0.174-2.844,1.743-5.688,0.174-8.53c-2.265-3.91,0.523-8.355-0.174-12.621c0.349-0.711,0.174-1.422,0-2.133
		c0.174-0.89,0-1.777,0.174-2.666c-0.349-6.045-1.394-12.979,0.348-18.845c3.311-4.266,0.523-9.954,0.698-14.932
		c0.348-3.022,1.394-5.866,1.568-9.243h-0.174c0-1.778,0.349-3.555,0.349-5.333L81.69,75.225L81.69,75.225z"/>
	<path fill="none" stroke="#FFFFFF" stroke-width="3.488" stroke-linecap="square" stroke-miterlimit="2.6131" d="M81.69,75.225
		c-1.045-0.889-1.219,0.711-2.091,0.889c-0.523-0.711-0.697-1.778-1.742-1.778l-1.22,0.889c-0.349-0.711-0.698-1.244-1.395-1.778
		c-0.696,0.178-1.393,0.889-1.742,1.601c-0.522-0.889,0-2.134-1.22-2.667c-0.522,0.178-1.22,0.533-1.394,1.066
		c-0.871-0.355-0.697-2.312-2.09-2.133c-0.349,0.355-0.523,0.711-1.045,0.889c-0.523-0.711-0.697-2.311-1.917-1.955
		c-0.697,0.355-0.697,1.066-1.22,1.066c-0.696-0.711-0.696-2.133-1.916-1.956c-0.523,0.355-0.523,0.889-1.22,1.245
		c-0.871-0.534-0.523-2.667-2.265-2.133c-0.349,0.178-0.174,0.889-0.697,0.711c-0.697-0.534-0.697-1.422-1.395-1.422l-1.567,1.422
		c-0.697-0.534-0.697-2.311-1.917-1.778c-1.045,2.489-1.394,6.221-4.53,7.11c-2.091,0.355-3.833-0.889-4.879-2.667
		c-1.394-2.489-1.568-5.511-2.091-8.355c-0.174-0.177-0.522-0.355-0.871-0.355c-0.174,0.355-0.523,0.889-1.046,0.711
		c-0.348-0.711-0.348-1.6-1.219-2.133c-0.349-0.178-0.872-0.355-1.221,0c-0.696,0.356-0.348,1.422-1.219,1.245
		c-0.697-0.889-0.872-2.489-2.265-2.489c-0.523,0.355-0.523,1.244-1.22,1.244c-0.348-0.889-1.045-2.311-2.265-2.311
		c-0.348,0.355-0.696,0.889-1.22,0.889c-0.522-0.533-0.522-2.133-1.917-1.956l-1.219,1.244c-0.697-0.889-0.872-2.666-2.265-2.488
		l-1.22,1.066c-0.697-0.533-0.871-2.666-2.266-1.6l-0.522,0.534c-1.742-1.245,0.872-1.956,1.046-3.022c0.348,0,0.522-0.533,0.871,0
		c0.871-0.533,0.697-1.245,0.697-1.956c-0.871-1.244-2.091-1.777-3.484-1.777c-1.742,0-3.311,1.066-4.704,2.311
		c-1.045-1.244,0.696-2.666-0.175-4.088c0.349-2.844,1.743-5.688,4.53-6.754c2.963-0.533,3.485-4.444,6.099-5.511
		c1.045-0.355,2.265-0.355,2.788-1.245c1.22-2.666,3.659-3.554,5.924-4.799c4.704-1.6,10.105-0.178,13.764,3.022
		c1.046,1.066,2.091,2.311,2.789,3.733c3.136-2.133,8.886-6.577,8.886-6.577l0.871-6.221l13.067-5.511c0,0,0.871,0.533,1.22,0.533
		c0.174,2.844,0,6.222,2.265,8.177l6.969,7.999c2.091-1.422,3.66-3.91,5.227-6.044c2.614,0.534,3.136-3.732,6.272-2.488
		c1.394-0.889,3.311-2.489,4.879-1.067c1.045,0.534,2.265-0.355,3.31-0.534c1.22-0.177,2.613,0,3.659,1.067
		c-0.176,0.71,0.174,1.422,0.871,1.422c0.871-0.711,1.568-0.355,2.613-0.533c0.349,0.711,0.696,1.422,0.871,2.311
		c0.349,1.422-1.395,2.489,0,3.733c1.394,0.178,2.613-3.555,3.311-0.533c0.349,0.889-0.871,2.666,1.046,3.021
		c0.349,0,0.696,0.356,1.045,0.356c-1.045,1.422-1.567,3.2-3.312,3.733c-0.348,0.355-0.348,0.889-0.348,1.422
		c0.348,0.178,0.521,0.71,1.045,0.533c0.522-0.355,0.871-0.889,1.568-0.711c0.695,0.711,0.35,2.311,0.35,3.2
		c-0.699,1.777-3.834,2.311-3.138,4.622c-1.742,1.6-3.658,2.489-5.575,4.267c-0.871,0.533-1.742,0.889-2.787,1.067l-0.175-0.178
		c-0.349,0.533-0.522-0.356-0.871,0.178c-0.349-0.178-1.046,0.178-1.396,0.533c-0.174,0.178-0.174,0.534-0.521,0.711
		c0,0.711,0.35,1.244,0.871,1.6c1.221,0,2.614-0.711,3.833,0l0.349-0.356c0,3.911,0.697,8.176,0,12.088l0.174,0.177l-1.219,12.799
		c0.349,0.889,0.174,2.311,1.395,2.489c5.229-4.266,9.931-10.31,15.855-14.398l5.748-5.333c0,0,0.522-0.178,0.522,0
		c1.046-0.178,2.614,0,3.137-1.422c0.175-0.533,0.697-1.422,0-1.955c-0.349-0.178-1.045-0.533-1.394-0.356
		c-0.697-0.355-1.047,0.711-1.918,0.711v-0.355c2.613-1.955,4.531-5.51,7.666-5.866c0.697,0.533,1.568,0.71,2.266,0.355
		c1.743-1.244,4.184-0.355,5.925,0.533c0.696,1.066-0.349,2.844,1.046,3.733c1.395-0.533,2.438-2.133,3.832-2.844
		c3.834-1.6,8.016-2.312,12.022-3.556h1.917c0.348,2.311-2.439,4.089-0.35,6.222c1.045-0.355,1.395-0.889,2.266-1.422
		c2.266-1.244,5.053-0.178,7.666-1.066c1.22,0.178,2.613,0.178,3.658,1.066c1.742-1.066,4.008-0.355,5.401,0.534
		c1.568,1.244,2.091,3.021,2.612,4.799c0.523,3.555-2.961,4.799-4.878,6.933c-1.394-0.355-2.265,0.711-3.484,1.066
		c-1.22,1.066,0.175,3.555-2.091,3.733c-4.878,6.577-12.195,11.199-16.552,17.954c-5.054,5.511-11.675,8.177-16.029,14.578
		c-6.272,8.176-14.983,12.441-21.604,20.441c-0.522,0.889-1.395,1.777-1.916,2.666l-1.221,2.311
		c-4.529,3.021-6.271,8.89-11.673,10.133c-1.917,2.134-1.743,5.154-4.183,6.933c-1.567,0.89-2.613,2.312-4.182,3.377
		c-10.803,7.822-15.507,18.488-16.9,20.088c0-4.621-0.174-10.487-0.871-13.332c0-3.555,3.485-7.998,0-10.666
		c0.174-2.844,1.743-5.688,0.174-8.53c-2.265-3.91,0.523-8.355-0.174-12.621c0.349-0.711,0.174-1.422,0-2.133
		c0-0.89,0-1.777,0.174-2.666c-0.349-6.045-1.394-12.979,0.348-18.845c3.311-4.266,0.523-9.954,0.698-14.932
		c0.348-3.022,1.568-5.866,1.568-9.243h-0.174c0-1.778,0.349-3.555,0.349-5.333L81.69,75.225L81.69,75.225z"/>
	<path d="M81.69,75.225c-1.045-0.711-1.219,0.889-2.091,1.066c-0.523-0.711-0.697-1.777-1.742-1.777l-1.22,0.889
		c-0.349-0.711-0.698-1.244-1.395-1.778c-0.696,0-1.393,0.889-1.742,1.423c-0.522-0.712,0-1.956-1.22-2.489
		c-0.522,0.178-1.22,0.355-1.394,1.066c-0.871-0.355-0.697-2.311-2.09-2.133c-0.349,0.355-0.523,0.711-1.045,0.889
		c-0.523-0.711-0.697-2.311-1.917-1.956c-0.697,0.178-0.697,1.067-1.22,1.067c-0.696-0.711-0.696-2.133-1.916-1.956
		c-0.523,0.356-0.523,0.889-1.22,1.244c-0.871-0.533-0.523-2.666-2.265-2.133c-0.349,0.178-0.174,0.711-0.697,0.534
		c-0.697-0.355-0.697-1.245-1.395-1.422l-1.393,1.422c-0.871-0.355-0.871-2.311-2.091-1.6c-1.045,2.488-1.394,6.222-4.529,7.11
		c-2.091,0.356-3.833-1.067-4.879-2.844c-1.394-2.311-1.568-5.333-2.091-8.177c-0.174-0.355-0.523-0.355-0.871-0.355
		c-0.174,0.355-0.522,0.889-1.046,0.711c-0.348-0.711-0.348-1.6-1.219-2.311c-0.349,0-0.872-0.355-1.221,0
		c-0.696,0.356-0.348,1.6-1.219,1.245c-0.522-0.711-0.872-2.311-2.265-2.311c-0.523,0.355-0.523,1.244-1.22,1.066
		c-0.348-0.889-1.045-2.133-2.265-2.133c-0.348,0.356-0.697,0.889-1.22,0.889c-0.522-0.711-0.522-2.133-1.917-1.955l-1.219,1.244
		c-0.697-0.889-0.872-2.666-2.265-2.666l-1.22,1.244c-0.697-0.533-0.871-2.666-2.266-1.6l-0.522,0.533
		c-1.742-1.245,0.872-1.955,1.046-3.2c0.348,0.178,0.522-0.356,0.871,0c0.871-0.356,0.697-1.066,0.697-1.778
		c-0.871-1.245-2.091-1.955-3.484-1.777c-1.742,0-3.311,0.889-4.704,2.133c-1.045-1.066,0.696-2.488,0-3.91
		c0.174-2.844,1.568-5.688,4.355-6.755c2.963-0.533,3.485-4.622,6.099-5.51c1.045-0.356,2.265-0.356,2.788-1.245
		c1.22-2.667,3.659-3.555,5.924-4.8c4.704-1.777,10.105-0.355,13.764,2.844c1.046,1.066,2.091,2.488,2.789,3.911
		c3.136-2.133,8.886-6.755,8.886-6.755l1.045-6.044l12.893-5.51c0,0,0.871,0.534,1.22,0.534c0.174,2.844,0,6.222,2.265,8.177
		l6.969,7.999c2.091-1.422,3.66-3.911,5.227-6.044c2.614,0.533,3.136-3.733,6.272-2.489c1.394-0.888,3.311-2.667,4.878-1.244
		c1.045,0.534,2.266-0.177,3.311-0.355c1.221-0.178,2.613,0,3.659,1.067c-0.175,0.711,0.174,1.422,0.871,1.422
		c0.87-0.711,1.567-0.355,2.612-0.711c0.35,0.888,0.697,1.599,0.871,2.488c0.35,1.422-1.394,2.489,0,3.733
		c1.395,0.177,2.614-3.556,3.312-0.534c0.349,0.889-0.871,2.667,1.045,3.022c0.349,0,0.696,0.178,1.046,0.355
		c-1.046,1.422-1.568,3.022-3.311,3.733c-0.349,0.355-0.349,0.889-0.349,1.422c0.349,0.177,0.522,0.533,1.046,0.533
		c0.521-0.355,0.87-0.889,1.566-0.71c0.697,0.71,0.35,2.311,0.35,3.199c-0.697,1.6-3.832,2.133-2.962,4.622
		c-1.917,1.6-3.833,2.489-5.75,4.266c-0.87,0.534-1.741,0.711-2.788,1.067l-0.174-0.178c-0.349,0.533-0.523-0.355-0.871,0.178
		c-0.349-0.178-1.046,0.177-1.395,0.533c-0.174,0.178-0.174,0.356-0.522,0.534c0,0.711,0.349,1.422,0.871,1.6
		c1.22,0,2.613-0.711,3.833,0l0.35-0.178c0,3.91,0.696,7.999,0,12.087h0.174L105.56,81.98c0.348,0.711,0.174,2.311,1.394,2.489
		c5.228-4.267,9.931-10.488,15.854-14.399l5.75-5.51c0.174,0.178,0.521,0,0.521,0.178c1.046-0.178,2.613,0,3.137-1.422
		c0.174-0.534,0.697-1.422,0-1.956c-0.349-0.178-1.045-0.534-1.395-0.355c-0.696-0.533-1.045,0.711-1.742,0.533V61.36
		c2.439-1.955,4.355-5.511,7.492-6.043c0.697,0.71,1.568,0.889,2.265,0.533c1.743-1.244,4.183-0.355,5.925,0.534
		c0.696,1.066-0.349,2.844,1.045,3.555c1.396-0.356,2.439-1.956,3.834-2.667c3.832-1.6,8.014-2.311,12.021-3.556h1.916
		c0.349,2.133-2.439,4.089-0.35,6.222c1.047-0.356,1.396-0.889,2.267-1.422c2.265-1.422,5.053-0.178,7.666-1.067
		c1.22,0.178,2.612,0.178,3.659,1.067c1.742-1.067,4.007-0.356,5.4,0.533c1.568,1.244,2.092,3.022,2.612,4.799
		c0.522,3.555-2.961,4.799-4.878,6.932c-1.395-0.355-2.266,0.711-3.484,1.067c-1.22,0.889,0.174,3.555-2.091,3.733
		c-4.879,6.577-12.196,11.199-16.552,17.954c-5.053,5.511-11.674,8-16.029,14.576c-6.271,8.178-14.984,12.442-21.605,20.442
		c-0.521,0.89-1.394,1.777-1.916,2.666l-1.219,2.312c-4.531,3.021-6.272,8.889-11.674,10.133c-1.917,1.955-1.742,5.154-4.183,6.932
		c-1.567,0.889-2.613,2.312-4.183,3.379c-10.802,7.644-15.505,18.486-16.899,20.086c0-4.621-0.174-10.666-0.871-13.51
		c0-3.377,3.485-7.82,0-10.488c0.174-3.021,1.743-5.688,0.174-8.53c-2.265-4.089,0.523-8.355-0.174-12.621
		c0.349-0.89,0.174-1.423,0-2.134c0.174-0.889,0-1.776,0.174-2.666c-0.349-6.045-1.394-12.977,0.348-18.844
		c3.311-4.266,0.523-9.955,0.698-14.932c0.348-3.021,1.394-5.866,1.568-9.243l-0.174-0.178c0-1.6,0.349-3.378,0.349-5.155
		L81.69,75.225L81.69,75.225z"/>
	<path fill="#F38A4C" d="M82.562,75.936c0.348,0,0.697,0,1.045-0.178c1.568-0.71,1.045-2.667,2.265-3.555
		c0.522,0.178,0.697,1.067,1.395,0.889c1.567-0.711,0.173-3.733,2.264-3.022c1.394,0,1.045-1.777,1.743-2.488
		c0-0.711,0.348-0.889,0.174-1.421c-0.523-1.067-2.091-0.534-2.266-1.956c-0.697-0.889,0-2.489-1.394-2.667
		c-1.742,0-1.742,1.955-2.439,3.022c-1.394,3.2-2.961,6.221-3.833,9.421l0.174,0.889L82.562,75.936L82.562,75.936z"/>
	<path fill="#006BAD" d="M62.002,25.452l-0.871,4.799c0,0,7.144,8,10.105,12.087c0,4.622,0,9.6,0,13.866
		c-1.045-0.178-1.917-1.422-2.439-2.311c-0.523-3.733-5.053-2.667-6.795-5.689c-1.568-1.066-3.31-1.955-5.4-1.778
		c0.347-1.244,0.521-3.021-0.175-4.088c-1.394,1.778-3.31,3.377-4.355,5.333c-0.872-0.889,0.349-3.022-1.046-3.2
		c0-2.489,0-6.933,0-6.933l18.817,4.267L60.26,30.607l0.696-5.333L62.002,25.452L62.002,25.452z"/>
	<path fill="#129B75" d="M102.599,26.341c0,0.533-0.871,1.422,0.174,1.422c0.871-0.178,1.568,0.178,2.092,0.71l1.22-0.888
		c0.522,0.533,1.045,1.066,1.917,1.066l0.521-0.178c-2.266,0.889,0.175,3.911-1.916,4.622v0.178
		c-0.697-0.178-2.092,1.777-2.439,0.178c0-1.245,1.742-2.667-0.174-3.378c-1.221,0.711-0.521,2.134-0.697,3.2
		c-1.568,1.066-2.091,2.844-1.916,4.444c1.219,0,1.916-1.6,2.962-1.422c0.349-0.178,0.696,0.178,1.046,0.355
		c0.87,1.601,0.174,3.555-0.697,4.977c-0.522,0.355-1.045,1.245-1.742,0.711c-0.696-0.711-0.522-1.777-1.221-2.488
		c-1.043,1.066-2.961,2.133-3.136,3.911c0.522,1.066,1.22,2.133,0.697,3.199c-0.522,0.889-1.046,1.778-1.22,2.667
		c-2.962,3.911-5.053,8-8.364,11.732c-0.522,0-0.871,0.355-1.568,0.178c-0.174-0.355-0.174-1.066,0-1.6
		c3.485-4.978,6.098-9.955,9.932-14.932c0-0.178-0.176-0.355-0.35-0.533h-0.349c-4.182,5.155-6.446,11.199-10.802,16.354
		c-0.174-0.177-0.522-0.177-0.697-0.533c0-0.711,0-1.244,0.174-1.777c3.136-4.622,5.227-10.488,10.105-14.043l0.348-0.355
		l-0.174-0.178c-5.227,3.2-7.667,8.71-11.151,13.155c-0.349,0.177-0.697-0.178-0.872-0.534c0-0.178-0.174-0.534,0.174-0.711
		c-0.522-0.355-1.394,0.711-1.917-0.177c-0.348-2.312,2.614-3.378,1.742-6.044c0.349-1.422-1.916-2.133-1.045-3.555
		c0.174-0.711,0.871-1.066,0.523-1.777c-0.872-0.355-0.872-1.6-0.523-2.311c2.266-2.133-0.697-6.754,3.136-7.465
		c0.872-1.6,1.917-3.022,3.136-4.445c0.522,0.178,1.045,0.356,1.394,0c0.523-0.533,1.394-1.066,1.394-1.777
		c0.349,0.177-0.348,0.889,0.349,1.244c0.522,0,0.871-0.533,1.045-0.889c0-0.178-0.174-0.534,0.174-0.711
		c0.174,0,0.348,0.177,0.697,0.177l0.174-0.177c0.522,0.177,1.394-0.355,1.917-0.889c0.174,0.889,1.22,0.178,1.743,0.178
		c1.045-1.245,2.787,0.711,3.658-0.889h0.525V26.341z"/>
	<path fill="#FFE822" d="M49.98,38.784c0.175,2.133,0.175,3.911,0,6.043c-0.697-0.355-1.567-0.889-2.439-0.533
		c-0.871-4.266-4.355-8.888-8.537-10.31c-2.788-1.244-6.099-0.533-8.364,1.422c-0.348-0.355-1.045-0.177-1.568-0.177
		c0.871-2.133,3.311-3.022,5.053-3.911C40.397,29.007,47.715,32.74,49.98,38.784L49.98,38.784z"/>
	<path d="M90.228,34.162c0.174,1.422-1.219,2.489-0.871,3.733c-0.174,0.178,0,0.711,0.174,0.889
		c0.174,0.178,0.349,0.533,0.871,0.355c2.091-1.6,0.349-4.799,2.613-6.043l0.523-0.533c0.697,0.533,0,1.422,0,2.133
		c-1.22,2.667-4.53,4.978-3.311,8.177c0.174,0.533,0.697,0.178,0.872,0.533l-5.053,6.577c0-1.066-1.22-2.133-0.349-3.2
		c0.697,0,1.045,0.71,1.742,0.889c1.742-2.312,1.742-5.866,1.22-8.71c-0.871-1.067-1.917-1.956-1.743-3.2
		C87.789,34.874,89.531,30.073,90.228,34.162L90.228,34.162z"/>
	<path d="M97.894,33.273c0.697,2.311-0.871,3.911-0.521,6.222c-1.394,1.245-2.961,2.844-4.53,4.088
		c1.045-2.844,1.742-5.866,3.659-8.354C96.849,34.518,96.674,32.562,97.894,33.273L97.894,33.273z"/>
	<path fill="#FFE822" d="M45.799,41.628c0.348,0.889,0.871,1.6,0.871,2.489c-0.697,0.178-1.394,0.533-1.917,0.889
		c-2.439-4.799-6.97-9.421-12.37-9.599c1.22-1.244,3.31-1.422,5.227-1.066C41.095,35.051,44.23,38.251,45.799,41.628L45.799,41.628z
		"/>
	<path fill="#FFE822" d="M44.056,51.938c0.523-2.312,0.523-4.799-0.697-6.755c-1.917-3.377-4.53-6.399-8.189-7.999
		c-0.871-0.355-1.917-0.71-2.788-0.533c0-0.177-0.349-0.177-0.523-0.177c-3.311-0.356-6.969,0.355-8.886,3.377
		c2.788-0.889,6.272-0.711,9.234,0.178c4.704,1.422,7.84,6.222,8.538,11.021c0,0.89,0.696,0.712,1.219,0.89h2.092V51.938z"/>
	<path fill="#FFE822" d="M43.882,52.293c0.523,1.601,1.22,1.422,1.917,1.601c0.696,0,1.916-0.179,2.614,0
		c1.219,0,1.567,1.244,2.09,1.955c0.522,1.067,0.174,2.311-0.871,2.667c-1.394,0.355-2.962,0.355-4.355,0.533
		c-1.395,0.889-2.614,2.844-4.705,2.311c-2.265-0.355-4.879-0.534-5.401-3.022c-0.174-1.955,1.22-3.555,2.788-4.622
		c1.568-1.066,2.788-1.066,4.879-1.422L43.882,52.293L43.882,52.293z"/>
	<path fill="#FFE822" d="M26.633,40.028c0.174-0.178,0.174-0.178,0.349-0.178c0.174,0.355,0.174-0.178,0.523,0
		c4.181,0.178,7.666,1.956,10.454,5.333c1.046,2.133,1.742,4.444,2.091,6.755l-2.091,1.066c-1.394-4.977-5.227-10.488-10.28-12.265
		l-4.53-0.178C24.02,40.384,25.414,39.851,26.633,40.028L26.633,40.028z"/>
	<path fill="#FFE822" d="M35.519,49.627c0.348,1.422,1.22,2.489,1.045,4.088c-1.045,0.534-2.439,1.245-3.311,2.133
		c-1.742-4.444-5.924-8.888-10.977-9.421c-2.614,0-5.227,0.712-6.621,3.378c-0.523-2.845,1.045-5.333,3.31-6.933
		c3.137-1.6,7.493-1.778,10.455,0C32.383,44.294,33.776,47.316,35.519,49.627L35.519,49.627z"/>
	<path fill="#129B75" d="M108.696,43.05c0,0.533-0.176,1.244-0.871,1.244c-0.521,0.178-1.047,0.178-1.395,0.711
		c0.348,1.6-1.395,1.422-2.266,2.134c-0.696,0.177-1.221-0.712-2.266-0.534c-1.394,1.422-2.612,3.021-2.961,4.799
		c1.567,1.778-0.697,3.911-1.047,5.689c-1.742,2.666-3.659,5.51-5.922,7.643c-0.871,0-1.394-0.355-1.917-0.889
		c-0.174-1.6,1.22-2.489,1.917-3.733c2.962-3.733,5.227-8.177,7.492-12.443c1.567-2.312,2.788-3.911,5.401-4.8
		c0.697,0.178,1.394-0.355,2.091-0.711C107.649,41.983,108.349,42.517,108.696,43.05L108.696,43.05z"/>
	<path fill="#EA4E4E" d="M50.329,46.783c0,1.422,0,3.022,1.394,3.555c1.568-1.6,2.788-3.378,5.4-2.845
		c1.743,0,3.659,0.89,4.531,2.312c0.871,2.488-0.174,4.799-0.872,6.933c-3.136,0.356-6.272,0.889-8.711,3.022
		c0.349-0.889-0.349-1.956,0.174-2.666c0.349-1.067,1.394-2.134,0.872-3.378c-0.174-0.355-0.523-0.71-0.872-0.355
		c-0.697,0.534,0,1.956-0.697,2.489c-0.174-1.421-1.568-2.489-2.787-3.2c-0.175,0-0.523,0.178-0.697-0.177
		c-0.872,0-1.569,0.177-2.439,0h-0.349c-0.349-1.956,1.045-3.733,0-5.688c0.174-0.533,0.349-1.245,1.045-1.422
		C47.89,45.361,49.632,45.361,50.329,46.783L50.329,46.783z"/>
	<path fill="#FFE822" d="M28.375,50.161h0.349c1.743,1.955,3.311,4.088,3.659,6.577l-2.265,2.133
		c-3.136-3.2-4.879-10.132-10.454-9.244c-0.697-0.355-1.568,0.534-2.265,0.356c-0.523,0.355-1.045,0.533-1.568,0.889
		c1.22-2.133,2.788-4.089,5.401-3.912C23.845,47.139,26.459,48.028,28.375,50.161L28.375,50.161z"/>
	<path fill="#129B75" d="M107.825,49.805c0.175,0.533,0.349,1.067,0.521,1.422c-2.265,0.355-4.182,1.421-5.924,2.667
		c-1.22-1.778,1.568-2.667,1.917-3.733C105.733,49.983,106.433,49.805,107.825,49.805L107.825,49.805z"/>
	<path fill="#FFE822" d="M84.478,58.516c0.523,0.889,0.349,2.133,0.174,3.021c-0.697,1.066-1.394,1.244-1.917,2.489l0.174,0.178
		c1.046-0.533,1.394-1.6,2.091-2.489c0.174,0.711,0,1.6-0.349,2.133l-2.613,3.199c-2.614,1.067-5.924,1.956-8.363,0
		c1.045-0.711,2.788-0.355,3.833-1.6l-0.174-0.177c-2.439,0.177-5.227,1.777-7.492,0.355c-0.697-0.889-0.523-2.134-0.174-3.022
		c2.439-3.555,6.098-6.221,10.105-6.932C81.69,55.849,83.781,56.56,84.478,58.516L84.478,58.516z"/>
	<path fill="#EA4E4E" d="M70.888,58.337c0.174,1.244-0.697,2.311-1.394,3.2c-1.568-0.533-2.962-2.311-3.31-4.088
		C67.404,56.205,70.54,55.849,70.888,58.337L70.888,58.337z"/>
	<path fill="#129B75" d="M65.835,58.516c0.697,1.422,1.045,3.377,2.613,4.088c-0.696,3.2-4.181,4.978-6.969,5.511
		c-1.917-1.067-4.182-0.534-6.272-0.889c-0.872-0.355-0.523-1.245-0.349-1.778c1.743-1.422,3.833-2.488,5.923-3.199
		c0.174-0.178-0.174-0.356-0.348-0.534c-1.045,0-1.742,0.711-2.614,1.066c-2.613,0.534-5.4,4.089-8.015,1.422
		c0-3.378,3.485-4.444,5.924-5.511c2.962-0.533,5.924-1.599,8.885-1.422L65.835,58.516L65.835,58.516z"/>
	<path fill="#F38A4C" d="M76.986,69.003c0.697-0.355,1.394,0.178,2.09,0.178c0.349,0.533,0.349,1.066,0,1.422
		c-0.697,1.422-2.265,1.777-3.484,2.844c-1.742-0.711-4.007-1.422-4.356-3.555c0.349-0.711,0.872-1.6,1.568-2.133
		C74.373,67.759,75.418,69.181,76.986,69.003L76.986,69.003z"/>
	<polygon fill="#FFE822" points="67.752,69.892 67.752,68.647 68.797,67.581 69.494,66.87 70.191,66.87 70.888,67.226 
		70.888,68.292 70.714,68.647 70.54,69.714 69.843,69.892 69.843,70.425 68.971,70.603 68.623,70.248 	"/>
	<polygon points="85.872,38.428 85.872,39.495 86.221,40.206 86.395,40.917 86.917,41.451 86.569,40.562 86.569,39.495 
		86.743,38.428 	"/>
	<polygon points="98.938,31.852 99.288,31.141 99.638,31.318 99.985,31.852 99.985,33.452 99.462,33.273 99.288,32.918 
		99.288,31.852 	"/>
	<polygon points="101.379,32.207 101.379,31.141 101.379,30.429 101.728,30.607 101.901,31.318 101.901,31.852 	"/>
	<path fill="#DFDACA" d="M80.122,170.326c-0.174-0.89-0.174-5.688-0.871-9.777c0-3.377,3.485-7.819,0-10.487
		c0.174-3.021,1.743-5.688,0.174-8.531c-2.265-4.088,0.523-8.355-0.174-12.621c0.349-0.889,0.174-1.422,0-2.133
		c0.174-0.89,0-1.777,0.174-2.666c-0.349-6.045-1.394-12.978,0.348-18.844c3.311-4.267,0.523-9.956,0.698-14.933
		c0.348-3.021,1.394-5.866,1.568-9.243l-0.174-0.178c0-1.6,0.349-3.378,0.349-5.155l-0.523-0.533
		c-1.045-0.711-1.219,0.889-2.091,1.066c-0.523-0.711-0.697-1.777-1.742-1.777l-1.22,0.889c-0.349-0.711-0.698-1.244-1.395-1.956
		c-0.696,0.178-1.393,1.067-1.742,1.601c-0.522-0.712,0-1.956-1.22-2.489c-0.522,0.178-1.22,0.355-1.394,0.889
		c-0.871-0.177-0.697-2.133-2.09-1.955c-0.349,0.355-0.523,0.711-1.045,0.889c-0.523-0.711-0.697-2.311-1.917-1.956
		c-0.697,0.178-0.697,1.067-1.22,1.067c-0.696-0.711-0.696-2.133-1.916-1.956c-0.523,0.356-0.523,0.889-1.22,1.244
		c-0.871-0.533-0.523-2.666-2.265-2.133c-0.349,0.178-0.174,0.711-0.697,0.534c-0.697-0.355-0.697-1.245-1.395-1.422l-1.567,1.422
		c-0.697-0.355-0.697-2.311-1.917-1.6c-1.045,2.488-1.394,6.222-4.529,7.11c-2.091,0.356-3.833-1.067-4.879-2.844
		c-1.394-2.311-1.568-5.333-2.091-8.177c-0.174-0.355-0.523-0.355-0.871-0.355c-0.174,0.355-0.522,0.889-1.046,0.711
		c-0.348-0.711-0.348-1.6-1.219-2.311c-0.349,0-0.872-0.355-1.221,0c-0.696,0.356-0.348,1.6-1.219,1.245
		c-0.697-0.711-0.872-2.311-2.265-2.311c-0.523,0.355-0.523,1.244-1.22,1.066c-0.348-0.889-1.045-2.133-2.265-2.133
		c-0.348,0.356-0.697,0.889-1.22,0.889c-0.522-0.711-0.522-2.133-1.917-1.955l-1.219,1.244c-0.697-0.889-0.872-2.666-2.265-2.666
		l-1.22,1.244c-0.697-0.533-0.871-2.666-2.266-1.6l-0.522,0.533c-0.871-0.533-1.568-2.844-2.613-1.422
		c-0.523,0.356-0.697,0.889-0.697,0.889v91.368L80.12,174.06v-3.733H80.122z"/>
	<path d="M87.614,174.06c1.568,0,2.788-1.244,2.788-2.666c0-1.601-1.22-2.845-2.788-2.845c-1.568,0-2.788,1.244-2.788,2.845
		C84.827,172.813,86.046,174.06,87.614,174.06L87.614,174.06z"/>
	<path fill="#FFFFFF" d="M87.614,173.703c1.394,0,2.439-1.065,2.439-2.312c0-1.422-1.045-2.488-2.439-2.488
		c-1.22,0-2.265,1.066-2.265,2.488C85.349,172.637,86.395,173.703,87.614,173.703L87.614,173.703z"/>
	<path d="M86.569,169.438v3.555h0.348v-1.422h1.045h0.174c0.174,0.178,0.174,0.178,0.174,0.711c0,0.178,0,0.178,0,0.178v0.178
		c0,0.178,0,0.355,0.174,0.355h0.349l0,0c0-0.178,0-0.178-0.174-0.355v-0.711c0-0.354,0-0.533-0.349-0.711
		c0.349-0.178,0.523-0.355,0.523-0.711s-0.174-0.533-0.174-0.711c-0.174-0.178-0.523-0.355-0.697-0.355H86.569L86.569,169.438z
		 M86.917,169.972h1.045l0,0h0.174c0.174,0,0.174,0.178,0.174,0.532s-0.174,0.533-0.349,0.533h-1.045L86.917,169.972L86.917,169.972
		z"/>
	<path d="M37.435,91.223c1.045,4.088,0.523,8.176,1.045,12.443c0.174,1.776-0.522,2.844-1.916,3.199
		c-1.22,0.354-2.091,0-2.788-1.601c-0.871-3.021,0.174-7.108-2.962-9.244c-0.871,0-1.568,0.179-1.917,1.246
		c-0.697,2.312-0.871,4.443-1.045,7.109c-0.697,5.154,0.522,11.199,3.484,14.043c0.349,0.355,0.697,0.355,1.395,0.178
		c1.219-0.354,1.045-2.844,1.045-4.621c0-1.246-0.174-2.844,0-3.377c0.871-3.557,4.704,0.889,4.704-1.779
		c0-2.133,2.788-1.065,4.879-0.354c2.788,1.246,3.311,4.979,3.484,8.533c0.523,2.844-0.697,7.11,2.788,8.178
		c0.871,0.179,2.091-1.065,1.916-2.312c0-3.377,0.697-8.354-2.265-9.598c-1.044-0.355-1.044-1.955-0.696-2.312
		c0.349-0.354,0.349-0.533,0.872-0.709c1.916-0.178,3.659,1.244,5.575,1.955c1.569,0.889,1.394,2.844,1.394,4.443
		c0,3.555-0.522,7.289,0.871,10.311c0.871,1.066,1.394,1.422,2.614,1.422c0,0,0.697,0,0.697-0.533c0-0.354,0-3.199,0-4.623
		c-0.174-2.488,0-10.488,0-11.197c-0.174-0.711-0.522-1.422-1.045-1.776c-1.743-1.246-2.788-1.068-3.136-3.912
		c0-2.312,2.614-1.244,4.704-0.354c1.394,0.533,4.53,1.422,4.705,3.198c-0.175,2.847-0.175,4.269,0,7.289
		c0.871-0.889,1.917-1.422,3.31-1.422c1.742,0,3.311,1.244,4.356,2.666c1.917,3.021,2.265,7.467,2.265,10.666
		c-0.174,3.556-1.045,6.397-3.833,8.354c-0.872,0.533-1.046,1.064-2.962,0.533c-1.567-0.533-2.613-2.49-3.136-3.733
		c-0.872,1.065-2.091,2.133-3.66,1.422c-0.871-0.533-1.394-1.422-1.567-2.134c-4.704,1.066-6.97-0.889-8.188-2.844
		c-0.349-0.533-0.523-0.889-0.697-1.6c-1.394,1.066-5.053,1.955-7.144,0c-5.053-3.555-0.349-11.377-4.53-15.287
		c-0.697-0.178-0.871,0.711-1.22,1.066c0.697,3.199,0.697,6.932-1.568,9.242c-1.219,1.602-3.484,0.713-4.181,2.668
		c0.174,1.955,0.349,3.91,0.349,6.043c-0.349,0.889-1.22,1.244-2.091,1.065c-2.439-1.6-1.394-6.754-4.355-6.397
		c-1.743,0.533-1.045,5.51-1.045,8.354c0.174,0.533,0.174,0.889,1.045,0.889c1.045-0.533,1.045-2.487,2.439-1.955
		c1.742,0.711,1.567,2.845,1.567,4.443c0,0.18,0,0.18,0,0.355l0.174,0.18l0.349-0.18c0.348-1.42,1.045-2.844,2.265-3.91
		c1.046-0.889,2.439-1.244,3.833-0.889c3.312,0.889,4.705,3.379,6.272,6.045c0.174-0.89,0.697-1.957,1.917-2.312
		c2.962-0.354,5.575,1.602,6.795,4.268c0.523,0.711,0.871,1.422,1.394,2.312c0.872-1.422,1.917-1.422,3.311-1.422
		c1.743,0,2.788,0.889,4.182,2.133c0-1.244,0-1.422,0-2.844c0-1.244-0.697-1.244-1.742-1.955c-1.22-0.533-1.917-1.065-2.091-1.779
		c0-0.887,0-0.711,0-1.6c0-0.89,1.22-1.066,4.705,0.356c3.136,1.422,3.659,2.133,3.659,3.021c0.175,3.021,0.175,4.621,0,7.643
		c0.175,1.066,0,2.133,0,3.199c0.523-3.199,1.568-4.266,3.659-4.088c1.394,0.178,2.788,1.066,3.833,2.311
		c0.522-0.533,0.872-1.065,1.568-1.244c1.046-0.178,0.871,0.179,1.22,0.355c1.394,0.711,1.22,2.844,1.22,6.934
		c-0.174,0.355-0.348,0.533-0.697,0.711c-2.265,0.711-3.833-3.377-5.053-3.377c-0.523-0.178-0.523,0.531,0,0.89
		c3.136,3.909,6.621,6.932,5.75,13.151c-0.348,1.244-0.697,2.49-2.091,2.668c-2.613,0.533-4.182-1.776-5.75-3.557
		c-0.697,0.711-1.568,1.424-2.962,0.711c-1.568-0.711-2.788-0.889-3.659-2.133c-0.349-0.889-0.697-1.422-1.046-2.844
		c-0.871,1.244-2.439,1.777-4.356,1.066c-2.265-1.066-3.484-4.089-4.181-5.865c-0.697,1.422-1.22,2.666-3.31,2.311
		c-3.137-0.178-6.273-3.732-6.97-6.756c-0.871,1.422-1.568,1.779-3.31,2.135c-2.266,0.178-2.963-0.889-4.356-1.955
		c-2.614-2.49-3.136-6.045-3.833-9.066c-0.523-1.6-0.871,0.89-2.265,0.533c-2.091-0.711-1.046-2.487-1.917-3.555
		c-0.697-0.178-0.872,0.533-0.872,0.889c0,0.179,0,1.601,0,2.488c0.349,2.666,4.53,3.91,3.311,6.932
		c-0.697,0.711-1.917-0.178-3.311-0.711c-2.439-1.244-6.969-2.487-7.317-4.266c-0.175-1.955,1.393-1.244,2.265-2.133l0.174-0.711
		c0-6.221,0-11.377,0-17.064c-0.174-1.955-3.136-2.668-2.265-4.801c0.349-0.533,0.872-0.711,1.394-0.889
		c2.091,0.711,2.962,1.244,5.401,1.777c-0.523-1.244-1.394-2.488-1.742-3.556c-1.917-3.377-2.439-8-2.788-11.198
		c0-1.066,0-1.601,0.175-3.021c0.348-4.266,0.871-10.488,4.704-14.22c2.265-1.245,4.53-0.356,5.924,1.6
		c0.348-1.422,0.522-2.133,1.917-2.489C35.693,88.912,36.912,89.445,37.435,91.223L37.435,91.223z"/>
	<path fill="#DFDACA" d="M71.062,128.553c-0.174,0.89-0.348,1.955-1.394,2.488c-2.091-0.178-2.265-2.488-2.788-4.088
		c-0.349-1.955-0.872-4.979,1.045-6.224c0.348-0.354,0.697-0.178,1.045,0.179C70.191,121.619,71.062,124.819,71.062,128.553
		L71.062,128.553z"/>
	<path fill="#DFDACA" d="M39.875,141.353c1.046,2.487,1.916,6.397-0.175,7.998c-0.871,0.178-1.917-0.355-2.439-1.423
		c-0.871-1.6-2.09-6.575-0.349-8.354C37.958,138.506,39.352,139.931,39.875,141.353L39.875,141.353z"/>
	<path fill="#DFDACA" d="M50.155,145.617c0.696,1.422,1.219,2.844,1.219,4.621c0,1.243-0.174,1.956-0.871,2.668
		c-0.348,0.532-1.22,0.532-1.917,0.178c-1.917-1.603-2.265-4.801-2.091-6.756c0.175-1.065,0.523-1.601,1.395-2.134
		C48.761,144.194,49.806,144.906,50.155,145.617L50.155,145.617z"/>
	<path fill="#DFDACA" d="M58.344,148.994c0.697,0,1.394,0.178,2.265,1.776c0.871,1.424,1.394,5.867,0.174,7.111
		c-0.696,0.533-1.219,0.533-1.742,0c-1.568-1.422-1.917-3.555-2.266-5.512c0-0.711,0-1.777,0.348-2.488
		C57.298,149.351,57.646,148.815,58.344,148.994L58.344,148.994z"/>
	<path fill="#DFDACA" d="M70.888,159.306c1.046,1.6,3.485,4.442,2.266,4.977c-0.872,0.178-1.22-0.178-1.568-1.244
		c-0.697-1.777-0.871-4.621-2.788-4.621c-1.394,0-1.394,1.777-1.917,2.666c-0.349-1.777-0.697-3.555-0.523-5.688
		c-0.174-1.066,0-2.136-0.174-3.199C66.881,154.86,69.32,156.994,70.888,159.306L70.888,159.306z"/>
	<polygon fill="#FFE822" points="79.773,71.492 79.948,70.069 80.122,69.003 81.167,68.292 81.865,68.47 82.213,69.003 
		82.213,69.892 81.865,70.78 81.342,71.492 80.645,72.025 79.948,72.025 	"/>
</g>
</svg>
