<?xml version="1.0" encoding="utf-8"?>
<!-- Generator: Adobe Illustrator 16.0.0, SVG Export Plug-In . SVG Version: 6.00 Build 0)  -->
<!DOCTYPE svg PUBLIC "-//W3C//DTD SVG 1.1//EN" "http://www.w3.org/Graphics/SVG/1.1/DTD/svg11.dtd">
<svg version="1.1" id="Layer_1" xmlns="http://www.w3.org/2000/svg" xmlns:xlink="http://www.w3.org/1999/xlink" x="0px" y="0px"
	 width="179.985px" height="87.198px" viewBox="6.385 52.78 179.985 87.198" enable-background="new 6.385 52.78 179.985 87.198"
	 xml:space="preserve">
<g>
	<path fill="#FFFFFF" stroke="#FFFFFF" stroke-width="4.2371" stroke-linejoin="round" stroke-miterlimit="2.6131" d="
		M89.946,60.236c-1.903-0.917-3.992-1.728-6.165-2.472c-0.265-0.094-0.532-0.162-0.797-0.248c-1.456-0.473-2.939-0.909-4.498-1.268
		c-0.652-0.153-1.303-0.248-1.955-0.373c-1.161-0.219-2.31-0.455-3.519-0.6c-1.94-0.239-3.872-0.376-5.781-0.376l0.001,0.008
		c-2.102,0.028-4.161,0.109-6.183,0.239c-0.393,0.031-0.767,0.079-1.156,0.111c-1.633,0.124-3.252,0.265-4.825,0.458
		c-0.183,0.02-0.354,0.055-0.536,0.079C30.217,58.915,13.121,70.112,9.538,85.718c-0.272,1.164-0.467,2.343-0.582,3.538
		c-0.004,0.043-0.452,3.087-0.452,6.155c0,2.926,0.412,5.922,0.458,6.42c0,0.003,0,0.003,0,0.003c0-0.011-0.004-0.022-0.006-0.031
		c1.822,14.425,18.18,24.188,38.968,29.884c0.07,0.016,0.141,0.035,0.209,0.056c0.839,0.227,1.685,0.448,2.537,0.665
		c0.553,0.141,1.11,0.281,1.671,0.414c0.379,0.091,0.759,0.182,1.141,0.271c12.199,2.857,25.783,4.451,39.291,4.726
		c1.217,0.026,2.43,0.039,3.632,0.043h0.017c1.206-0.004,2.42-0.02,3.644-0.047c12.347-0.25,24.759-1.605,36.119-4.02
		c0.137-0.031,0.273-0.059,0.412-0.086c0.83-0.182,1.658-0.369,2.482-0.557c0.568-0.135,1.133-0.268,1.693-0.4
		c0.377-0.093,0.752-0.188,1.121-0.281c22.201-5.555,40.068-15.556,41.978-30.666c-0.004,0.028-0.017,0.057-0.017,0.086
		c0-0.018,0.004-0.037,0.008-0.055c0.046-0.496,0.39-2.891,0.39-6.474c0-3.777-0.396-6.088-0.403-6.127
		c-0.009-0.066-0.022-0.129-0.031-0.199c0.009,0.079,0.031,0.149,0.039,0.223c-0.111-1.039-0.291-2.053-0.504-3.051
		c-0.051-0.22-0.11-0.435-0.164-0.658c-0.19-0.792-0.412-1.567-0.668-2.331c-0.072-0.216-0.148-0.436-0.229-0.647
		c-0.297-0.83-0.629-1.637-1.003-2.428c-0.055-0.117-0.107-0.234-0.164-0.352c-0.932-1.92-2.071-3.734-3.407-5.442
		c-0.063-0.082-0.133-0.164-0.2-0.247c-0.593-0.74-1.219-1.457-1.879-2.159c-0.162-0.168-0.322-0.341-0.49-0.51
		c-0.656-0.669-1.344-1.319-2.063-1.95c-0.13-0.114-0.253-0.231-0.382-0.341c-0.852-0.729-1.743-1.426-2.674-2.1
		c-0.055-0.035-0.096-0.078-0.148-0.114c-0.138-0.099-0.294-0.184-0.436-0.285c-0.782-0.55-1.596-1.074-2.43-1.587
		c-0.261-0.161-0.52-0.317-0.783-0.473c-0.998-0.588-2.021-1.152-3.086-1.689c-0.029-0.016-0.057-0.036-0.092-0.051
		c-1.179-0.587-2.402-1.144-3.658-1.673c-0.105-0.043-0.217-0.089-0.328-0.132c-1.174-0.49-2.383-0.945-3.615-1.375
		c-0.1-0.035-0.19-0.071-0.29-0.103c-10.879-3.744-23.845-5.28-37.138-4.426c-0.209,0.012-0.418,0.023-0.627,0.039
		c-1.582,0.11-3.164,0.248-4.752,0.423h-0.004c-1.586,0.18-3.172,0.4-4.759,0.642c-0.313,0.051-0.629,0.111-0.944,0.157
		c-1.231,0.204-2.459,0.43-3.687,0.674c-0.405,0.078-0.812,0.157-1.217,0.243c-1.515,0.321-3.027,0.662-4.528,1.046L89.946,60.236
		L89.946,60.236z"/>
	<path fill="#FFFFFF" stroke="#FFFFFF" stroke-width="4.2371" stroke-linejoin="round" stroke-miterlimit="2.6131" d="
		M147.967,91.52c0-2.601-1.968-5.986-4.753-5.986c-2.662,0-5.324,3.06-5.828,7.936l9.438-0.129
		C147.707,93.341,147.967,92.954,147.967,91.52L147.967,91.52z"/>
	<path fill="#ED1C24" d="M100.278,60.365c25.518-6.122,52.365-2.605,68.15,8.696c7.592,5.438,12.055,12.509,12.9,20.43
		c0.038,0.423,0.389,2.389,0.389,5.868c0,3.431-0.326,5.664-0.373,6.162c-2.816,21.763-45.859,33.627-84.936,33.736
		c-39.085-0.109-82.12-11.975-84.931-33.736c-0.168-1.914-0.441-3.851-0.441-6.109c0-2.938,0.435-5.857,0.439-5.896
		c1.791-18.757,24.209-31.618,55.755-32.013c6.828,0,13.979,1.622,20.679,4.692l1.781,0.815l0.238-2.741l-0.988-0.456
		c-7.023-3.212-14.53-4.913-21.711-4.913l0.001,0.008c-32.936,0.4-56.355,14.204-58.278,34.348
		c-0.004,0.043-0.452,3.087-0.452,6.155c0,2.926,0.412,5.922,0.458,6.42c2.998,23.501,46.248,35.911,87.443,36.028
		c41.187-0.117,84.458-12.527,87.458-36.025c0.046-0.496,0.39-2.891,0.39-6.474c0-3.777-0.396-6.088-0.403-6.127
		c-0.924-8.704-5.754-16.428-13.97-22.305c-16.671-11.936-45.753-15.38-72.372-8.571L100.278,60.365L100.278,60.365z"/>
	<path fill="#ED1C24" d="M51.972,79.227c0-1.692,0-2.864,0.381-3.188c0.379-0.321,2.027-0.584,4.116-0.584
		c10.135,0,16.975,4.814,16.975,18.732c0,10.796-5.445,18.408-15.96,18.408c-4.877,0-5.512-1.232-5.512-7.219V79.227L51.972,79.227z
		 M39.685,72.983v1.818c4.687,0.391,5.194,0.917,5.194,7.936v22.768c0,7.027-0.507,7.545-5.701,7.936v1.822h15.52
		c14.821,0,26.855-7.022,26.855-23.026c0-5.723-2.405-10.537-5.32-13.53c-4.181-4.165-10.641-5.723-17.736-5.723L39.685,72.983
		L39.685,72.983z"/>
	<path fill="#ED1C24" d="M98.709,106.351c-1.468,1.301-3.115,2.08-4.254,2.08c-1.648,0-3.801-1.559-3.801-4.943
		c0-2.338,0.95-3.705,3.041-4.877c1.139-0.649,3.676-1.949,5.015-2.601L98.709,106.351L98.709,106.351z M109.251,107.651
		c-0.824,0.393-1.777,0.779-2.537,0.779c-0.889,0-1.773-1.039-1.773-3.644V90.869c0-2.275-0.252-4.422-2.662-6.311
		c-1.273-0.976-3.25-1.56-5.479-1.56c-4.687,0.913-8.614,3.318-10.579,4.748c-1.329,1.039-1.962,2.081-1.962,2.993
		c0,1.562,1.836,2.864,3.229,2.864c1.014,0,1.838-0.521,2.027-1.435c0.507-2.468,1.14-3.967,2.153-4.81
		c0.57-0.587,1.457-1.108,2.47-1.108c2.914,0,4.572,1.759,4.572,5.597v1.756c-2.037,1.3-7.105,3.185-10.208,4.485
		c-3.294,1.433-4.751,3.644-4.751,6.83c0,3.774,2.978,7.87,7.727,7.87c1.267,0,4.688-2.471,7.358-4.096
		c0.32,1.625,1.598,3.967,4.521,4.096l6.527-3.514L109.251,107.651L109.251,107.651z"/>
	<path fill="#ED1C24" d="M121.013,89.44h0.191c1.518-2.473,4.051-6.57,7.154-6.57c2.283,0,3.931,1.951,3.931,3.769
		c0,1.629-1.146,3.519-2.603,4.102c-0.693,0.262-1.457,0.129-1.838-0.262c-0.886-0.909-1.9-1.43-2.906-1.43
		c-1.084,0-2.533,0.78-3.93,3.643v13.139c0,3.575,0.381,3.968,5.004,4.359v1.82h-15.646v-1.82c3.739-0.393,4.116-0.784,4.116-4.359
		V91.323c0-3.964-0.125-4.097-4.055-4.485v-1.5c3.104-0.517,7.286-1.426,10.58-2.468V89.44L121.013,89.44z"/>
	<path fill="#ED1C24" d="M137.386,93.47c0.504-4.876,3.166-7.936,5.828-7.936c2.785,0,4.753,3.385,4.753,5.986
		c0,1.434-0.26,1.821-1.146,1.821L137.386,93.47L137.386,93.47z M153.347,104.983c-2.465,1.951-4.494,2.733-6.646,2.733
		c-4.753,0-9.759-3.385-9.638-11.579c6.912-0.259,15.084-0.909,15.97-1.042c1.204-0.259,1.327-0.388,1.327-2.793
		c0-4.686-4.112-9.304-9.438-9.304c-8.36,0-14.251,8.003-14.13,16.132c0.13,7.611,5.006,13.659,13.307,13.659
		c1.777,0,6.529-1.299,10.139-6.701L153.347,104.983L153.347,104.983z"/>
	<path fill="#ED1C24" d="M89.946,60.236c8.43,4.05,14.052,9.343,15.208,11.814c-9.617-8.841-28.066-10.897-46.264-8.759V63.3
		C33.976,67.114,10.188,76.363,8.956,89.255c1.823-19.101,24.185-33.932,58.278-34.348l-0.001-0.008
		C75.901,54.899,83.696,57.227,89.946,60.236L89.946,60.236z"/>
	<path fill="#ED1C24" d="M100.938,61.92c2.918-0.274,5.992-0.478,9.166-0.514c29.219-0.34,71.903,10.514,73.75,27.849
		c-3.09-28.98-47.362-40.874-86.349-30.9c0,0,0.67,0.599,1.55,1.504C99.938,60.76,100.938,61.92,100.938,61.92L100.938,61.92z"/>
	<path fill="#ED1C24" d="M96.421,137.858c37.835-0.109,84.307-11.153,87.45-36.058c-2.474,19.601-53.405,28.484-87.45,28.587h-0.017
		c-34.046-0.103-84.975-8.986-87.449-28.587c3.146,24.903,49.609,35.947,87.449,36.058H96.421L96.421,137.858z"/>
</g>
</svg>
