<?xml version="1.0" encoding="utf-8"?>
<!-- Generator: Adobe Illustrator 16.0.0, SVG Export Plug-In . SVG Version: 6.00 Build 0)  -->
<!DOCTYPE svg PUBLIC "-//W3C//DTD SVG 1.1//EN" "http://www.w3.org/Graphics/SVG/1.1/DTD/svg11.dtd">
<svg version="1.1" id="Layer_1" xmlns="http://www.w3.org/2000/svg" xmlns:xlink="http://www.w3.org/1999/xlink" x="0px" y="0px"
	 width="175.742px" height="112.383px" viewBox="8.508 40.186 175.742 112.383"
	 enable-background="new 8.508 40.186 175.742 112.383" xml:space="preserve">
<g>
	<path fill="#17479E" d="M38.23,119.466l0.029,0.057l0.05,0.101l0.051,0.101l0.055,0.096l0.052,0.101l0.051,0.097l0.056,0.1
		l0.052,0.1l0.052,0.096l0.057,0.1l0.053,0.095l0.053,0.099l0.058,0.1l0.053,0.095l0.054,0.099l0.058,0.095l0.055,0.099l0.055,0.1
		l0.059,0.094l0.055,0.098l0.055,0.094l1.919-1.135l-0.055-0.093l-0.056-0.09l-0.05-0.095l-0.054-0.088l-0.055-0.091l-0.05-0.095
		l-0.054-0.09l-0.054-0.094l-0.048-0.092l-0.053-0.09l-0.053-0.095l-0.048-0.091l-0.052-0.096l-0.052-0.091l-0.047-0.091
		l-0.051-0.096l-0.051-0.092l-0.046-0.096l-0.051-0.092l-0.051-0.092l-0.029-0.057L38.23,119.466L38.23,119.466z M152.293,120.576
		l0.043-0.048l0.085-0.096l0.085-0.099l0.089-0.095l0.084-0.1l0.084-0.095l0.088-0.095l0.084-0.1l0.084-0.096l0.086-0.096l0.084-0.1
		l0.082-0.097l0.084-0.096l0.086-0.101l0.082-0.097l0.082-0.101l0.086-0.096l0.08-0.097l0.018-0.021l-1.71-1.431l-0.009,0.011
		l-0.08,0.097l-0.077,0.097l-0.082,0.092l-0.082,0.096l-0.078,0.092l-0.082,0.096l-0.083,0.096l-0.082,0.092l-0.079,0.096
		l-0.084,0.095l-0.083,0.091l-0.078,0.096l-0.084,0.095l-0.086,0.091l-0.078,0.096l-0.086,0.09l-0.084,0.094l-0.043,0.049
		L152.293,120.576L152.293,120.576z M155.219,117.104l0.005-0.006l0.076-0.103l0.081-0.099l0.076-0.104l0.076-0.099l0.081-0.104
		l0.076-0.099l0.074-0.1l0.075-0.104l0.08-0.101l0.075-0.104l0.074-0.1l0.078-0.101l0.074-0.104l0.074-0.101l0.078-0.104
		l0.072-0.101l0.074-0.104l0.067-0.087l-1.806-1.309l-0.061,0.088l-0.072,0.096l-0.074,0.1l-0.069,0.096l-0.073,0.101l-0.074,0.096
		l-0.069,0.101l-0.075,0.1l-0.074,0.096l-0.07,0.1l-0.075,0.096l-0.076,0.1l-0.076,0.1l-0.071,0.095l-0.076,0.099l-0.076,0.094
		l-0.072,0.1l-0.077,0.096l-0.004,0.004L155.219,117.104L155.219,117.104z M157.892,113.422l0.006-0.007l0.068-0.104l0.072-0.106
		l0.068-0.103l0.067-0.106l0.071-0.104l0.066-0.106l0.067-0.103l0.065-0.104l0.072-0.106l0.065-0.104l0.065-0.107l0.069-0.104
		l0.066-0.108l0.065-0.104l0.068-0.108l0.064-0.104l0.063-0.107l0.063-0.104l0.013-0.016l-1.902-1.16l-0.002,0.008l-0.063,0.104
		l-0.065,0.1l-0.063,0.104l-0.062,0.1l-0.065,0.104l-0.064,0.1l-0.062,0.104l-0.065,0.1l-0.065,0.104l-0.062,0.1l-0.066,0.104
		l-0.066,0.104l-0.067,0.1l-0.062,0.104l-0.068,0.098l-0.068,0.104l-0.062,0.099l-0.068,0.103l-0.006,0.008L157.892,113.422
		L157.892,113.422z M160.281,109.546l0.036-0.062l0.06-0.11l0.06-0.106l0.062-0.109l0.06-0.106l0.059-0.11l0.059-0.105l0.062-0.111
		l0.058-0.106l0.058-0.111l0.062-0.106l0.057-0.111l0.057-0.105l0.057-0.111l0.061-0.107l0.057-0.111l0.056-0.107l0.056-0.112
		l0.049-0.093l-1.988-1.003l-0.041,0.084l-0.055,0.104l-0.057,0.106l-0.056,0.103l-0.052,0.107l-0.057,0.104l-0.057,0.107
		l-0.057,0.104l-0.053,0.105l-0.059,0.104l-0.059,0.106l-0.053,0.103l-0.059,0.105l-0.059,0.104l-0.06,0.105l-0.054,0.104
		l-0.061,0.104l-0.06,0.103l-0.035,0.062L160.281,109.546L160.281,109.546z M162.349,105.479l0.032-0.071l0.05-0.109l0.051-0.114
		l0.049-0.108l0.053-0.114l0.049-0.109l0.049-0.113l0.049-0.114l0.051-0.11l0.048-0.115l0.047-0.109l0.047-0.114l0.052-0.11
		l0.047-0.114l0.045-0.11l0.047-0.115l0.045-0.115l0.05-0.109l0.044-0.111l-2.066-0.83l-0.045,0.104l-0.041,0.11l-0.045,0.105
		l-0.046,0.105l-0.046,0.111l-0.047,0.105l-0.042,0.109l-0.047,0.105l-0.048,0.109l-0.047,0.105l-0.043,0.11l-0.049,0.104
		l-0.048,0.105l-0.049,0.109l-0.045,0.105l-0.049,0.109l-0.05,0.104l-0.049,0.109l-0.033,0.071L162.349,105.479L162.349,105.479z
		 M164.054,101.245l0.014-0.035l0.039-0.111l0.043-0.117l0.039-0.117l0.037-0.112l0.039-0.117l0.037-0.112l0.042-0.116l0.037-0.113
		l0.037-0.117l0.037-0.118l0.036-0.113l0.039-0.116l0.037-0.118l0.035-0.113l0.035-0.117l0.035-0.112l0.034-0.118l0.039-0.118
		l0.017-0.054l-2.139-0.637l-0.016,0.053l-0.03,0.109l-0.034,0.108l-0.035,0.114l-0.035,0.107l-0.035,0.114l-0.035,0.108
		l-0.032,0.109l-0.036,0.112l-0.037,0.108l-0.035,0.107l-0.039,0.113l-0.033,0.107l-0.037,0.113l-0.038,0.108l-0.038,0.112
		l-0.038,0.107l-0.035,0.108l-0.039,0.112l-0.013,0.035L164.054,101.245L164.054,101.245z M165.365,96.867l0.02-0.081l0.028-0.12
		l0.027-0.119l0.033-0.115l0.025-0.12l0.027-0.119l0.027-0.116l0.024-0.119l0.026-0.115l0.024-0.121l0.03-0.12l0.025-0.12
		l0.023-0.116l0.023-0.12l0.024-0.116l0.024-0.121l0.022-0.121l0.027-0.116l0.022-0.121l0.004-0.021l-2.189-0.419l-0.004,0.013
		l-0.021,0.111l-0.021,0.116l-0.022,0.111l-0.023,0.112l-0.024,0.116l-0.024,0.111l-0.024,0.116l-0.024,0.111l-0.021,0.111
		l-0.024,0.111l-0.027,0.115l-0.025,0.111l-0.025,0.115l-0.027,0.111l-0.027,0.111l-0.023,0.115l-0.026,0.11l-0.028,0.111
		l-0.021,0.081L165.365,96.867L165.365,96.867z M166.246,92.377l0.009-0.058l0.046-0.343l0.046-0.343l0.045-0.342l0.039-0.342
		l0.034-0.341l0.033-0.341l0.021-0.169l-2.226-0.192l-0.011,0.151l-0.033,0.323l-0.036,0.324l-0.038,0.325l-0.037,0.325
		l-0.043,0.326l-0.047,0.326l-0.009,0.058L166.246,92.377L166.246,92.377z M166.663,87.809l0.009-0.248l0.009-0.335l0.008-0.335
		l0.004-0.334l0.002-0.333l-0.002-0.329l-0.004-0.337v-0.042l-2.226,0.052l0.001,0.024l0.003,0.311l0.003,0.32l-0.003,0.316
		l-0.004,0.317l-0.007,0.317l-0.01,0.318l-0.008,0.248L166.663,87.809L166.663,87.809z M166.589,83.223l-0.023-0.302l-0.025-0.327
		l-0.034-0.326l-0.03-0.325l-0.035-0.325l-0.037-0.323l-0.043-0.323l-0.004-0.033l-2.207,0.297l0.004,0.015l0.035,0.306l0.035,0.306
		l0.035,0.307l0.031,0.308l0.025,0.308l0.025,0.309l0.023,0.302L166.589,83.223L166.589,83.223z M165.996,78.669l-0.05-0.258
		l-0.065-0.316l-0.063-0.315l-0.069-0.314l-0.069-0.313l-0.07-0.313l-0.078-0.312l-0.022-0.101l-2.163,0.55l0.022,0.083l0.069,0.295
		l0.07,0.295l0.068,0.296l0.062,0.297l0.063,0.298l0.057,0.298l0.05,0.258L165.996,78.669L165.996,78.669z M164.888,74.215
		l-0.049-0.155l-0.1-0.304l-0.102-0.304l-0.1-0.298l-0.105-0.302l-0.108-0.301l-0.105-0.3l-0.077-0.206l-2.086,0.786l0.069,0.188
		l0.104,0.283l0.101,0.283l0.098,0.285l0.101,0.289l0.093,0.286l0.09,0.287l0.048,0.155L164.888,74.215L164.888,74.215z
		 M163.274,69.922l-0.016-0.032l-0.131-0.292l-0.133-0.291l-0.137-0.29l-0.137-0.284l-0.141-0.288l-0.143-0.287l-0.141-0.286
		l-0.018-0.034l-1.98,1.029l0.01,0.017l0.141,0.268l0.133,0.269l0.131,0.27l0.129,0.276l0.127,0.271l0.125,0.273l0.122,0.274
		l0.015,0.032L163.274,69.922L163.274,69.922z M161.183,65.829l-0.113-0.193l-0.163-0.271l-0.166-0.275l-0.169-0.274l-0.17-0.269
		l-0.172-0.272l-0.174-0.271l-0.08-0.12l-1.858,1.23l0.071,0.111l0.166,0.253l0.162,0.255l0.162,0.26l0.158,0.257l0.157,0.257
		l0.155,0.263l0.113,0.193L161.183,65.829L161.183,65.829z M158.662,62.003l-0.081-0.109l-0.191-0.26l-0.195-0.255l-0.196-0.258
		l-0.199-0.253l-0.205-0.256l-0.202-0.25l-0.135-0.163l-1.719,1.414l0.125,0.154l0.193,0.242l0.188,0.238l0.19,0.244l0.188,0.241
		l0.188,0.247l0.184,0.243l0.08,0.109L158.662,62.003L158.662,62.003z M155.761,58.464l-0.068-0.077l-0.227-0.239l-0.223-0.243
		l-0.225-0.237l-0.227-0.235l-0.232-0.239l-0.23-0.233l-0.15-0.15l-1.57,1.579l0.144,0.142l0.222,0.225l0.215,0.221l0.219,0.227
		l0.215,0.228l0.215,0.226l0.207,0.23l0.068,0.077L155.761,58.464L155.761,58.464z M152.521,55.233l-0.108-0.099l-0.251-0.221
		l-0.249-0.22l-0.251-0.219l-0.252-0.217l-0.26-0.216l-0.256-0.219l-0.102-0.084l-1.413,1.728l0.093,0.075l0.247,0.202l0.241,0.208
		l0.243,0.208l0.241,0.21l0.24,0.211l0.234,0.212l0.107,0.099L152.521,55.233L152.521,55.233z M148.994,52.325l-0.228-0.17
		l-0.272-0.202l-0.277-0.201l-0.274-0.199l-0.278-0.197l-0.283-0.197l-0.233-0.163l-1.258,1.841l0.228,0.154l0.266,0.188
		l0.269,0.188l0.268,0.191l0.262,0.191l0.264,0.193l0.228,0.17L148.994,52.325L148.994,52.325z M145.233,49.747l-0.159-0.1
		l-0.296-0.183l-0.295-0.181l-0.301-0.18l-0.301-0.174l-0.301-0.176l-0.301-0.172l-1.1,1.937l0.283,0.164l0.292,0.168l0.291,0.174
		l0.283,0.171l0.287,0.172l0.286,0.174l0.158,0.099L145.233,49.747L145.233,49.747z M141.274,47.493l-0.174-0.089l-0.313-0.163
		l-0.317-0.162l-0.322-0.155l-0.318-0.158l-0.326-0.156l-0.266-0.124l-0.941,2.015l0.256,0.124l0.309,0.147l0.312,0.149l0.306,0.155
		l0.309,0.152l0.307,0.154l0.174,0.089L141.274,47.493L141.274,47.493z M137.153,45.556l-0.289-0.122l-0.334-0.137l-0.342-0.14
		l-0.338-0.133l-0.34-0.136l-0.344-0.13l-0.121-0.048l-0.785,2.085l0.111,0.04l0.328,0.13l0.33,0.127l0.328,0.133l0.324,0.131
		l0.325,0.137l0.289,0.122L137.153,45.556L137.153,45.556z M132.907,43.938l-0.178-0.061l-0.353-0.12l-0.353-0.115l-0.359-0.112
		l-0.355-0.116l-0.361-0.109l-0.202-0.064l-0.638,2.137l0.193,0.055l0.344,0.109l0.349,0.106l0.342,0.113l0.345,0.114l0.344,0.112
		l0.177,0.06L132.907,43.938L132.907,43.938z M128.563,42.622l-0.164-0.044l-0.373-0.095l-0.369-0.097l-0.375-0.091l-0.371-0.089
		l-0.374-0.092l-0.181-0.04l-0.488,2.173l0.163,0.04l0.364,0.083l0.362,0.089l0.358,0.091l0.359,0.088l0.355,0.095l0.163,0.043
		L128.563,42.622L128.563,42.622z M124.138,41.599l-0.262-0.051l-0.383-0.072l-0.391-0.07l-0.385-0.073l-0.388-0.066l-0.394-0.064
		l-0.033-0.004l-0.35,2.198l0.025,0.004l0.375,0.064l0.378,0.066l0.378,0.063l0.371,0.07l0.374,0.072l0.262,0.051L124.138,41.599
		L124.138,41.599z M119.666,40.864l-0.09-0.012l-0.396-0.051l-0.402-0.053l-0.398-0.047l-0.398-0.045l-0.405-0.042l-0.162-0.016
		l-0.22,2.216l0.154,0.016l0.389,0.043l0.391,0.044l0.391,0.047l0.383,0.044l0.39,0.051l0.089,0.012L119.666,40.864L119.666,40.864z
		 M115.157,40.399l-0.02-0.002l-0.408-0.028l-0.414-0.026l-0.412-0.024l-0.41-0.022l-0.417-0.02l-0.183-0.008l-0.088,2.225
		l0.174,0.008l0.399,0.02l0.402,0.022l0.401,0.024l0.396,0.026l0.398,0.028l0.021,0.001L115.157,40.399L115.157,40.399z
		 M110.631,40.2l-0.062-0.001l-0.42-0.005l-0.422-0.003l-0.422-0.005v0.004l-0.422,0.001l-0.422,0.003l-0.092,0.001l0.025,2.224
		l0.082-0.001l0.414-0.003l0.414-0.001v0.005l0.412-0.004l0.412,0.003l0.411,0.005l0.062,0.001L110.631,40.2L110.631,40.2z
		 M109.308,42.419v-2.233V42.419L109.308,42.419z M106.106,40.251l-0.18,0.007l-0.421,0.018l-0.424,0.02l-0.419,0.022l-0.42,0.024
		l-0.393,0.025l0.14,2.225l0.384-0.025l0.41-0.024l0.41-0.022l0.408-0.02l0.41-0.018l0.182-0.007L106.106,40.251L106.106,40.251z
		 M101.59,40.548l-0.278,0.025l-0.416,0.041l-0.42,0.042l-0.414,0.045l-0.416,0.047l-0.302,0.035L99.604,43l0.293-0.035l0.406-0.047
		l0.406-0.044l0.402-0.043l0.408-0.041l0.277-0.026L101.59,40.548L101.59,40.548z M97.095,41.083l-0.35,0.052l-0.412,0.067
		l-0.411,0.064l-0.41,0.066L95.098,41.4l-0.236,0.041l0.384,2.198l0.227-0.04l0.396-0.068l0.402-0.066l0.401-0.064l0.402-0.058
		l0.35-0.052L97.095,41.083L97.095,41.083z M92.638,41.861l-0.395,0.08l-0.405,0.083l-0.409,0.085l-0.404,0.092l-0.403,0.089
		l-0.194,0.043l0.497,2.172l0.186-0.043l0.395-0.089l0.395-0.083l0.392-0.085l0.396-0.083l0.395-0.08L92.638,41.861L92.638,41.861z
		 M88.231,42.869l-0.018,0.005l-0.399,0.102l-0.397,0.104l-0.401,0.105l-0.396,0.112l-0.396,0.109l-0.179,0.05l0.611,2.146
		l0.17-0.049l0.387-0.109l0.388-0.103l0.384-0.105l0.389-0.104l0.39-0.102l0.019-0.004L88.231,42.869L88.231,42.869z M83.878,44.101
		l-0.017,0.005l-0.39,0.126l-0.39,0.123l-0.389,0.125l-0.387,0.131l-0.392,0.129l-0.189,0.062l0.724,2.111l0.181-0.063l0.374-0.128
		l0.379-0.122l0.38-0.125l0.381-0.124l0.381-0.117l0.017-0.005L83.878,44.101L83.878,44.101z M79.594,45.564L79.229,45.7
		l-0.384,0.142l-0.379,0.147l-0.378,0.146l-0.377,0.151l-0.227,0.089l0.829,2.067l0.218-0.088l0.369-0.143l0.37-0.145l0.37-0.14
		l0.367-0.142l0.365-0.136L79.594,45.564L79.594,45.564z M75.39,47.245l-0.297,0.128l-0.369,0.16l-0.369,0.166l-0.367,0.163
		l-0.367,0.169l-0.292,0.132l0.934,2.024l0.283-0.132l0.358-0.16l0.358-0.163l0.36-0.157l0.36-0.16l0.298-0.128L75.39,47.245
		L75.39,47.245z M71.284,49.14l-0.201,0.099l-0.357,0.182L70.368,49.6l-0.355,0.184l-0.354,0.186l-0.353,0.183l-0.037,0.021
		l1.047,1.963l0.028-0.013l0.344-0.183l0.346-0.177l0.347-0.176l0.348-0.178l0.349-0.173l0.201-0.1L71.284,49.14L71.284,49.14z
		 M67.287,51.256l-0.076,0.043l-0.345,0.193l-0.343,0.199l-0.347,0.196l-0.341,0.202l-0.34,0.203l-0.169,0.099l1.151,1.911
		l0.16-0.099l0.332-0.195l0.333-0.193l0.329-0.196l0.335-0.19l0.336-0.193l0.076-0.042L67.287,51.256L67.287,51.256z M63.4,53.584
		l-0.25,0.159l-0.33,0.214l-0.328,0.216l-0.327,0.213l-0.326,0.219l-0.324,0.22l-0.008,0.003l1.256,1.841v-0.003l0.315-0.211
		l0.317-0.21l0.318-0.213l0.32-0.207l0.321-0.206l0.249-0.159L63.4,53.584L63.4,53.584z M59.655,56.125l-0.056,0.04l-0.315,0.229
		l-0.313,0.226l-0.312,0.232l-0.31,0.233l-0.309,0.234l-0.206,0.153l1.352,1.771l0.197-0.153l0.3-0.226l0.302-0.225l0.303-0.223
		l0.304-0.226l0.306-0.221l0.056-0.04L59.655,56.125L59.655,56.125z M56.056,58.878l-0.135,0.109l-0.297,0.244l-0.295,0.246
		l-0.294,0.247l-0.292,0.248l-0.291,0.245l-0.135,0.118l1.457,1.684L55.9,61.91l0.282-0.245l0.284-0.239l0.285-0.238l0.287-0.237
		l0.288-0.235l0.134-0.109L56.056,58.878L56.056,58.878z M52.625,61.847l-0.161,0.148l-0.278,0.259l-0.276,0.255l-0.274,0.261
		l-0.273,0.262l-0.271,0.263l-0.113,0.111l1.562,1.588l0.104-0.102l0.262-0.255l0.264-0.253l0.266-0.252l0.268-0.255l0.269-0.25
		l0.161-0.148L52.625,61.847L52.625,61.847z M49.383,65.021l-0.14,0.147l-0.257,0.272l-0.255,0.273l-0.254,0.274l-0.251,0.275
		l-0.25,0.276l-0.134,0.149l1.667,1.483l0.125-0.14l0.242-0.267l0.243-0.267l0.245-0.265l0.247-0.264l0.249-0.263L51,66.557
		L49.383,65.021L49.383,65.021z M46.358,68.407l-0.08,0.096l-0.236,0.285l-0.233,0.285l-0.232,0.286l-0.229,0.287l-0.229,0.292
		l-0.187,0.239l1.762,1.361l0.179-0.23l0.219-0.275l0.222-0.278l0.223-0.278l0.225-0.276l0.227-0.275l0.081-0.096L46.358,68.407
		L46.358,68.407z M43.57,72.001l-0.2,0.28l-0.211,0.301l-0.208,0.297l-0.207,0.298l-0.204,0.299l-0.203,0.304l-0.062,0.092
		l1.867,1.221l0.054-0.083l0.193-0.287l0.196-0.291l0.198-0.29l0.199-0.289l0.202-0.283l0.2-0.28L43.57,72.001L43.57,72.001z
		 M41.055,75.794l-0.074,0.121L40.8,76.222l-0.184,0.312l-0.182,0.308l-0.18,0.314l-0.178,0.31l-0.161,0.293l1.946,1.082
		l0.161-0.285l0.168-0.301l0.171-0.296l0.173-0.3l0.175-0.294l0.182-0.298l0.074-0.121L41.055,75.794L41.055,75.794z M38.848,79.783
		l-0.105,0.21l-0.158,0.317l-0.151,0.322l-0.153,0.319l-0.151,0.324L37.981,81.6l-0.106,0.241l2.033,0.907l0.106-0.232l0.14-0.307
		l0.143-0.306l0.145-0.31l0.151-0.305l0.149-0.308l0.105-0.21L38.848,79.783L38.848,79.783z M36.983,83.95l-0.101,0.255
		l-0.128,0.326l-0.122,0.331l-0.124,0.332l-0.121,0.328l-0.115,0.333l-0.082,0.232l2.112,0.716l0.072-0.215l0.115-0.315l0.112-0.319
		l0.115-0.314l0.122-0.314l0.12-0.317l0.101-0.255L36.983,83.95L36.983,83.95z M35.498,88.269l-0.077,0.265l-0.093,0.339
		l-0.095,0.339l-0.088,0.34l-0.09,0.335l-0.083,0.341l-0.062,0.247l2.173,0.515l0.053-0.229l0.083-0.323L37.3,90.11l0.088-0.322
		l0.086-0.322l0.093-0.321l0.077-0.266L35.498,88.269L35.498,88.269z M34.434,92.715l-0.047,0.254l-0.064,0.346l-0.021,0.122
		l-0.02,0.122l-0.02,0.118l-0.02,0.122l-0.019,0.122l-0.019,0.122l-0.018,0.117l-0.022,0.122l-0.018,0.122l-0.018,0.117
		l-0.017,0.121l-0.017,0.121l-0.017,0.117l-0.013,0.094l2.208,0.297l0.013-0.085l0.016-0.117l0.017-0.113l0.017-0.112l0.018-0.117
		l0.018-0.113l0.014-0.113l0.019-0.117l0.019-0.113l0.019-0.113l0.02-0.113l0.02-0.118l0.02-0.113l0.021-0.113l0.056-0.328
		l0.047-0.254L34.434,92.715L34.434,92.715z M33.812,97.248l-0.001,0.015l-0.009,0.118l-0.009,0.12l-0.009,0.115l-0.009,0.119
		l-0.008,0.119L33.76,97.97l-0.008,0.119l-0.007,0.119l-0.007,0.115l-0.006,0.119l-0.007,0.119l-0.006,0.119l-0.006,0.113
		l-0.005,0.119l-0.005,0.119l-0.005,0.113l-0.004,0.119l-0.004,0.118l-0.004,0.118l-0.001,0.034l2.225,0.062l0.001-0.033l0.004-0.11
		l0.004-0.109l0.004-0.11l0.005-0.113l0.005-0.11l0.005-0.108l0.006-0.115l0.006-0.11l0.006-0.11l0.006-0.109l0.007-0.115
		l0.007-0.109l0.008-0.11l0.008-0.115L36,97.896l0.009-0.11l0.009-0.115l0.009-0.11l0.009-0.11l0.001-0.015L33.812,97.248
		L33.812,97.248z M33.678,101.828L33.678,101.828l0.003,0.116l0.003,0.113l0.004,0.116l0.004,0.117l0.004,0.112l0.005,0.115
		l0.004,0.116l0.005,0.112l0.005,0.115l0.005,0.117l0.006,0.115l0.007,0.111l0.006,0.115l0.007,0.117l0.007,0.114l0.008,0.111
		l0.008,0.116l0.008,0.115l0.008,0.114l0.009,0.104l2.224-0.176l-0.008-0.104l-0.008-0.107l-0.008-0.105l-0.008-0.105l-0.008-0.113
		l-0.007-0.105l-0.007-0.107l-0.006-0.106l-0.006-0.11l-0.006-0.107l-0.005-0.107l-0.005-0.107l-0.005-0.111l-0.004-0.107
		l-0.005-0.107l-0.004-0.112l-0.004-0.106l-0.004-0.108l-0.003-0.112l-0.003-0.107l0,0L33.678,101.828L33.678,101.828z
		 M34.047,106.403l0.013,0.1l0.016,0.113l0.016,0.113l0.016,0.108l0.017,0.113l0.021,0.112l0.017,0.112l0.017,0.109l0.018,0.112
		l0.018,0.111l0.019,0.109l0.018,0.111l0.019,0.112l0.019,0.108l0.024,0.111l0.02,0.111l0.02,0.112l0.021,0.106l0.021,0.112
		l0.021,0.111l0.009,0.051l2.19-0.437l-0.01-0.041l-0.021-0.104l-0.021-0.104l-0.02-0.106l-0.02-0.103l-0.02-0.104l-0.015-0.104
		l-0.02-0.106l-0.019-0.104l-0.019-0.104l-0.018-0.107l-0.018-0.104l-0.018-0.104l-0.017-0.107l-0.018-0.104l-0.012-0.104
		l-0.016-0.104l-0.017-0.109l-0.016-0.104l-0.016-0.104l-0.014-0.1L34.047,106.403L34.047,106.403z M34.938,110.906l0.002,0.01
		l0.027,0.108l0.028,0.109l0.028,0.11l0.028,0.104l0.033,0.108l0.029,0.108l0.029,0.108l0.029,0.104l0.029,0.109l0.035,0.104
		l0.03,0.109l0.031,0.107l0.03,0.104l0.031,0.108l0.036,0.108l0.032,0.107l0.032,0.104l0.032,0.106l0.033,0.108l0.037,0.103
		l0.016,0.055l2.12-0.68l-0.016-0.047l-0.028-0.103l-0.033-0.099l-0.032-0.101l-0.032-0.104l-0.031-0.1l-0.027-0.1l-0.031-0.1
		l-0.031-0.104l-0.03-0.101l-0.03-0.101l-0.026-0.104l-0.03-0.1l-0.029-0.104l-0.029-0.102l-0.028-0.101l-0.024-0.101l-0.028-0.104
		l-0.028-0.101l-0.028-0.103l-0.027-0.101l-0.003-0.01L34.938,110.906L34.938,110.906z M36.339,115.284l0.035,0.089l0.039,0.104
		l0.04,0.102l0.044,0.104l0.04,0.105l0.04,0.1l0.041,0.104l0.045,0.104l0.042,0.1l0.042,0.104l0.046,0.104l0.042,0.1l0.042,0.104
		l0.042,0.104l0.047,0.101l0.043,0.104l0.043,0.1l0.043,0.104l0.048,0.104l0.044,0.1l0.034,0.08l2.033-0.916l-0.034-0.071
		l-0.044-0.099l-0.04-0.096l-0.043-0.095l-0.043-0.099l-0.043-0.096l-0.039-0.1l-0.042-0.096l-0.042-0.094l-0.042-0.101
		l-0.038-0.097l-0.041-0.096l-0.042-0.1l-0.036-0.096l-0.041-0.098l-0.041-0.1l-0.04-0.098l-0.035-0.096l-0.04-0.101l-0.04-0.097
		l-0.034-0.09L36.339,115.284L36.339,115.284z"/>
	<path fill="#FFF200" d="M108.601,45.343c32.905,0,55.963,21.636,51.323,48.163c-2.077,11.884-9.373,22.785-19.751,31.2
		l-4.111-5.344l-84.983,0.729l-2.245,4.11c-7.131-8.344-10.435-19.049-8.398-30.696C45.072,66.979,75.693,45.343,108.601,45.343
		L108.601,45.343z"/>
	<path fill="#17479E" d="M12.238,148.947l0.858-0.185c-0.073,0.362-0.042,0.646,0.084,0.853c0.129,0.208,0.336,0.311,0.618,0.311
		c0.272,0,0.524-0.089,0.757-0.268c0.232-0.181,0.397-0.413,0.494-0.699c0.147-0.435-0.07-0.903-0.653-1.416
		c-0.006-0.004-0.01-0.008-0.014-0.012c-0.469-0.423-0.755-0.765-0.856-1.025c-0.099-0.26-0.095-0.555,0.016-0.883
		c0.155-0.451,0.431-0.826,0.828-1.124c0.398-0.296,0.822-0.445,1.271-0.445c0.469,0,0.806,0.123,1.011,0.367
		c0.208,0.243,0.29,0.618,0.246,1.128l-0.786,0.218c0.028-0.338-0.014-0.595-0.125-0.768c-0.111-0.173-0.292-0.26-0.544-0.26
		c-0.236,0-0.453,0.072-0.648,0.215c-0.197,0.145-0.334,0.331-0.413,0.559c-0.123,0.364,0.099,0.793,0.669,1.287
		c0.242,0.211,0.429,0.383,0.558,0.512c0.206,0.213,0.332,0.449,0.378,0.709c0.044,0.261,0.012,0.553-0.099,0.879
		c-0.177,0.522-0.483,0.939-0.915,1.252c-0.433,0.312-0.926,0.466-1.482,0.466c-0.479,0-0.832-0.147-1.057-0.448
		C12.211,149.869,12.145,149.463,12.238,148.947L12.238,148.947z M18.79,147.342c-0.314,0.92-0.456,1.573-0.425,1.959
		c0.03,0.386,0.229,0.579,0.6,0.579c0.35,0,0.672-0.202,0.969-0.604c0.294-0.4,0.594-1.047,0.896-1.936
		c0.302-0.895,0.445-1.543,0.423-1.947c-0.022-0.406-0.208-0.608-0.558-0.608c-0.369,0-0.701,0.194-0.995,0.584
		C19.408,145.76,19.104,146.417,18.79,147.342L18.79,147.342z M17.934,147.342c0.382-1.126,0.819-1.954,1.311-2.487
		c0.491-0.533,1.062-0.801,1.712-0.801c0.625,0,0.999,0.272,1.124,0.814c0.125,0.543-0.002,1.367-0.376,2.474
		c-0.375,1.103-0.81,1.925-1.304,2.47c-0.493,0.545-1.053,0.817-1.68,0.817c-0.648,0-1.037-0.269-1.166-0.802
		C17.426,149.291,17.553,148.463,17.934,147.342L17.934,147.342z M22.404,150.47l2.131-6.271h0.844l-0.246,0.723
		c0.314-0.298,0.608-0.516,0.882-0.65c0.274-0.133,0.554-0.203,0.836-0.203c0.02,0,0.05,0.002,0.091,0.007
		c0.041,0.004,0.07,0.006,0.088,0.006l-0.274,0.808c-0.02,0-0.05-0.002-0.088-0.006c-0.041-0.004-0.07-0.006-0.091-0.006
		c-0.31,0-0.608,0.079-0.895,0.234c-0.286,0.158-0.574,0.406-0.866,0.744l-1.569,4.617h-0.843V150.47z M27.205,150.47l0.596-6.271
		h0.844l-0.557,5.376l3.131-5.376h0.784l-3.678,6.271H27.205L27.205,150.47z M34.699,148.415h0.792
		c-0.273,0.701-0.632,1.245-1.076,1.632c-0.441,0.39-0.922,0.582-1.442,0.582c-0.648,0-1.037-0.269-1.166-0.802
		c-0.129-0.536-0.002-1.364,0.378-2.485c0.382-1.126,0.82-1.954,1.312-2.487c0.491-0.533,1.063-0.801,1.712-0.801
		c0.603,0,0.973,0.242,1.114,0.727c0.141,0.484,0.046,1.209-0.282,2.173c-0.044,0.134-0.081,0.233-0.105,0.301
		s-0.052,0.133-0.081,0.195h-2.856c-0.294,0.878-0.423,1.503-0.382,1.873c0.038,0.372,0.242,0.559,0.612,0.559
		c0.298,0,0.574-0.125,0.824-0.375S34.518,148.892,34.699,148.415L34.699,148.415z M33.243,146.745h2.006l0.083-0.241
		c0.209-0.614,0.284-1.056,0.224-1.326c-0.061-0.27-0.262-0.403-0.603-0.403c-0.331,0-0.634,0.158-0.913,0.478
		C33.763,145.569,33.497,146.067,33.243,146.745L33.243,146.745z M38.689,144.922h-0.838l0.246-0.725h0.838l0.711-2.089h0.82
		l-0.711,2.089h1.122l-0.245,0.725H39.51l-1.368,4.025c-0.127,0.37-0.169,0.618-0.129,0.741c0.04,0.127,0.165,0.19,0.378,0.19
		c0.075,0,0.252-0.026,0.534-0.077l0.05-0.006l-0.237,0.697c-0.179,0.042-0.345,0.076-0.494,0.099
		c-0.151,0.023-0.274,0.036-0.373,0.036c-0.375,0-0.621-0.104-0.737-0.307c-0.117-0.205-0.107-0.51,0.03-0.914L38.689,144.922
		L38.689,144.922z M43.439,148.415h0.792c-0.274,0.701-0.633,1.245-1.076,1.632c-0.441,0.39-0.922,0.582-1.442,0.582
		c-0.648,0-1.038-0.269-1.167-0.802c-0.129-0.536-0.002-1.364,0.379-2.485c0.383-1.126,0.82-1.954,1.312-2.487
		c0.491-0.533,1.063-0.801,1.712-0.801c0.602,0,0.973,0.242,1.114,0.727s0.046,1.209-0.282,2.173
		c-0.044,0.134-0.081,0.233-0.105,0.301c-0.024,0.067-0.052,0.133-0.081,0.195H41.74c-0.294,0.878-0.423,1.503-0.383,1.873
		c0.038,0.372,0.242,0.559,0.612,0.559c0.298,0,0.574-0.125,0.824-0.375C43.042,149.255,43.258,148.892,43.439,148.415
		L43.439,148.415z M41.983,146.745h2.006l0.083-0.241c0.21-0.614,0.285-1.056,0.224-1.326c-0.06-0.27-0.261-0.403-0.602-0.403
		c-0.331,0-0.635,0.158-0.913,0.478C42.503,145.569,42.237,146.067,41.983,146.745L41.983,146.745z M45.59,148.947l0.858-0.185
		c-0.072,0.362-0.042,0.646,0.085,0.853c0.129,0.208,0.336,0.311,0.618,0.311c0.272,0,0.524-0.089,0.757-0.268
		c0.232-0.181,0.397-0.413,0.494-0.699c0.147-0.435-0.07-0.903-0.653-1.416c-0.006-0.004-0.01-0.008-0.014-0.012
		c-0.47-0.423-0.756-0.765-0.856-1.025c-0.099-0.26-0.095-0.555,0.016-0.883c0.155-0.451,0.431-0.826,0.828-1.124
		c0.398-0.296,0.822-0.445,1.271-0.445c0.469,0,0.806,0.123,1.011,0.367c0.208,0.243,0.291,0.618,0.246,1.128l-0.786,0.218
		c0.028-0.338-0.014-0.595-0.125-0.768c-0.111-0.173-0.292-0.26-0.543-0.26c-0.236,0-0.454,0.072-0.649,0.215
		c-0.197,0.145-0.334,0.331-0.413,0.559c-0.123,0.364,0.099,0.793,0.668,1.287c0.242,0.211,0.429,0.383,0.558,0.512
		c0.206,0.213,0.332,0.449,0.378,0.709c0.044,0.261,0.012,0.553-0.099,0.879c-0.177,0.522-0.483,0.939-0.915,1.252
		c-0.433,0.312-0.926,0.466-1.482,0.466c-0.479,0-0.832-0.147-1.058-0.448C45.564,149.869,45.497,149.463,45.59,148.947
		L45.59,148.947z M57.216,146.699c-0.199,0.251-0.344,0.5-0.438,0.749c-0.096,0.246-0.142,0.503-0.142,0.767
		c0,0.529,0.167,0.959,0.501,1.288c0.333,0.33,0.771,0.494,1.312,0.494c0.475,0,0.873-0.128,1.19-0.382
		c0.32-0.257,0.479-0.563,0.479-0.925c0-0.229-0.057-0.414-0.173-0.551c-0.114-0.137-0.265-0.205-0.45-0.205
		c-0.193,0-0.371,0.072-0.537,0.219c-0.166,0.145-0.249,0.279-0.249,0.399c0,0.021-0.022,0.046-0.071,0.073
		c-0.046,0.029-0.091,0.043-0.136,0.043c-0.094,0-0.173-0.043-0.237-0.128c-0.066-0.087-0.097-0.195-0.097-0.327
		c0-0.285,0.116-0.541,0.349-0.771c0.234-0.229,0.721-0.529,1.464-0.899c0.152-0.074,0.363-0.178,0.633-0.31
		c1.192-0.58,1.789-1.045,1.789-1.394c0-0.125-0.035-0.222-0.105-0.291c-0.071-0.067-0.171-0.103-0.299-0.103
		c-0.071,0-0.163,0.017-0.273,0.053c-0.113,0.036-0.188,0.054-0.229,0.054c-0.067,0-0.121-0.021-0.159-0.063
		c-0.04-0.041-0.059-0.104-0.059-0.186c0-0.234,0.131-0.449,0.394-0.64c0.265-0.19,0.572-0.286,0.928-0.286
		c0.359,0,0.646,0.098,0.859,0.29c0.213,0.194,0.32,0.458,0.32,0.788c0,0.518-0.203,0.961-0.608,1.334
		c-0.404,0.372-1.099,0.748-2.086,1.125c0.219,0.137,0.382,0.301,0.486,0.494c0.105,0.193,0.157,0.428,0.157,0.695
		c0,0.361-0.092,0.717-0.273,1.063c-0.183,0.349-0.44,0.658-0.774,0.933c-0.393,0.313-0.845,0.553-1.359,0.717
		c-0.513,0.164-1.069,0.246-1.671,0.246c-0.904,0-1.63-0.223-2.176-0.666c-0.548-0.444-0.821-1.028-0.821-1.75
		c0-0.52,0.133-0.985,0.401-1.396c0.266-0.409,0.677-0.786,1.235-1.127c-0.115-0.135-0.2-0.277-0.257-0.43
		c-0.055-0.152-0.083-0.314-0.083-0.491c0-0.56,0.239-1.038,0.717-1.437c0.477-0.398,1.063-0.599,1.758-0.599
		c0.423,0,0.772,0.074,1.049,0.224c0.276,0.148,0.415,0.33,0.415,0.547c0,0.138-0.042,0.246-0.125,0.326
		c-0.083,0.079-0.197,0.118-0.342,0.118c-0.073,0-0.214-0.021-0.422-0.067c-0.208-0.045-0.373-0.067-0.499-0.067
		c-0.256,0-0.474,0.083-0.65,0.25c-0.178,0.168-0.266,0.366-0.266,0.601c0,0.158,0.028,0.291,0.083,0.402
		c0.057,0.107,0.151,0.218,0.282,0.324c0.061,0.049,0.152,0.101,0.273,0.156c0.121,0.059,0.184,0.109,0.184,0.152
		c0,0.121-0.082,0.274-0.24,0.463c-0.161,0.185-0.313,0.276-0.455,0.276c-0.057,0-0.125-0.015-0.202-0.039
		C57.432,146.812,57.335,146.767,57.216,146.699L57.216,146.699z M72.44,145.547l-1.191,3.507c0.083,0.266,0.188,0.467,0.318,0.602
		c0.129,0.135,0.288,0.201,0.478,0.201c0.351,0,0.673-0.203,0.971-0.61c0.298-0.407,0.603-1.072,0.917-1.992
		c0.294-0.87,0.429-1.503,0.405-1.903c-0.026-0.398-0.212-0.599-0.558-0.599c-0.189,0-0.393,0.065-0.612,0.197
		C72.946,145.081,72.704,145.281,72.44,145.547L72.44,145.547z M69.211,152.569l2.844-8.372h0.568l0.084,0.565
		c0.282-0.24,0.544-0.42,0.786-0.535c0.242-0.115,0.471-0.175,0.689-0.175c0.546,0,0.872,0.282,0.975,0.845
		c0.105,0.562-0.024,1.373-0.382,2.432c-0.361,1.062-0.786,1.876-1.273,2.441c-0.486,0.563-1.007,0.846-1.561,0.846
		c-0.213,0-0.401-0.061-0.564-0.184c-0.163-0.121-0.3-0.303-0.411-0.541l-0.91,2.678H69.211L69.211,152.569z M78.105,142.724
		l0.336-0.992h0.844l-0.336,0.992H78.105L78.105,142.724z M75.473,150.47l2.131-6.271h0.844l-2.131,6.271H75.473L75.473,150.47z
		 M82.472,145.994c0.119-0.409,0.133-0.716,0.044-0.917c-0.089-0.203-0.28-0.305-0.575-0.305c-0.37,0-0.705,0.199-1.005,0.597
		c-0.302,0.397-0.606,1.056-0.918,1.973c-0.314,0.925-0.455,1.579-0.423,1.962c0.034,0.385,0.242,0.576,0.623,0.576
		c0.3,0,0.574-0.125,0.824-0.375s0.467-0.613,0.648-1.09h0.768c-0.236,0.677-0.576,1.215-1.027,1.615
		c-0.451,0.397-0.941,0.599-1.466,0.599c-0.651,0-1.04-0.269-1.168-0.802c-0.129-0.536-0.002-1.364,0.379-2.485
		c0.382-1.126,0.82-1.954,1.311-2.487c0.492-0.533,1.062-0.801,1.712-0.801c0.5,0,0.844,0.174,1.031,0.522
		c0.189,0.348,0.193,0.819,0.014,1.418H82.472L82.472,145.994z M85.131,147.342c-0.314,0.92-0.455,1.573-0.425,1.959
		c0.03,0.386,0.229,0.579,0.601,0.579c0.35,0,0.672-0.202,0.969-0.604c0.294-0.4,0.594-1.047,0.896-1.936
		c0.302-0.895,0.445-1.543,0.423-1.947c-0.022-0.406-0.208-0.608-0.558-0.608c-0.369,0-0.701,0.194-0.995,0.584
		C85.75,145.76,85.446,146.417,85.131,147.342L85.131,147.342z M84.275,147.342c0.383-1.126,0.82-1.954,1.312-2.487
		c0.491-0.533,1.062-0.801,1.712-0.801c0.625,0,0.999,0.272,1.124,0.814c0.125,0.543-0.002,1.367-0.377,2.474
		c-0.374,1.103-0.81,1.925-1.303,2.47c-0.494,0.545-1.054,0.817-1.68,0.817c-0.649,0-1.037-0.269-1.166-0.802
		C83.768,149.291,83.895,148.463,84.275,147.342L84.275,147.342z M88.746,150.47l2.971-8.74h0.844l-2.972,8.74H88.746L88.746,150.47
		z M94.961,148.415h0.792c-0.274,0.701-0.632,1.245-1.076,1.632c-0.441,0.39-0.922,0.582-1.442,0.582
		c-0.649,0-1.038-0.269-1.167-0.802c-0.129-0.536-0.002-1.364,0.379-2.485c0.383-1.126,0.82-1.954,1.311-2.487
		c0.492-0.533,1.064-0.801,1.712-0.801c0.602,0,0.973,0.242,1.114,0.727s0.046,1.209-0.282,2.173
		c-0.044,0.134-0.081,0.233-0.105,0.301c-0.024,0.067-0.052,0.133-0.081,0.195H93.26c-0.294,0.878-0.423,1.503-0.383,1.873
		c0.039,0.372,0.242,0.559,0.612,0.559c0.298,0,0.575-0.125,0.824-0.375S94.78,148.892,94.961,148.415L94.961,148.415z
		 M93.505,146.745h2.006l0.083-0.241c0.209-0.614,0.284-1.056,0.224-1.326c-0.06-0.27-0.262-0.403-0.602-0.403
		c-0.331,0-0.635,0.158-0.913,0.478C94.025,145.569,93.759,146.067,93.505,146.745L93.505,146.745z M94.925,143.399l1.936-2.064
		h1.049l-2.36,2.064H94.925L94.925,143.399z M97.11,148.947l0.858-0.185c-0.071,0.362-0.042,0.646,0.085,0.853
		c0.129,0.208,0.336,0.311,0.618,0.311c0.272,0,0.522-0.089,0.759-0.268c0.23-0.181,0.396-0.413,0.492-0.699
		c0.146-0.435-0.07-0.903-0.652-1.416c-0.006-0.004-0.011-0.008-0.015-0.012c-0.469-0.423-0.755-0.765-0.854-1.025
		c-0.101-0.26-0.096-0.555,0.016-0.883c0.154-0.451,0.432-0.826,0.828-1.124c0.398-0.296,0.822-0.445,1.271-0.445
		c0.469,0,0.805,0.123,1.012,0.367c0.207,0.243,0.289,0.618,0.244,1.128l-0.785,0.218c0.029-0.338-0.014-0.595-0.125-0.768
		c-0.109-0.173-0.291-0.26-0.543-0.26c-0.235,0-0.453,0.072-0.648,0.215c-0.197,0.145-0.334,0.331-0.413,0.559
		c-0.122,0.364,0.101,0.793,0.669,1.287c0.242,0.211,0.43,0.383,0.559,0.512c0.205,0.213,0.332,0.449,0.379,0.709
		c0.045,0.261,0.013,0.553-0.1,0.879c-0.177,0.522-0.482,0.939-0.914,1.252c-0.434,0.312-0.927,0.466-1.481,0.466
		c-0.479,0-0.832-0.147-1.058-0.448C97.086,149.869,97.021,149.463,97.11,148.947L97.11,148.947z"/>
	<path fill="#ED1C24" d="M75.27,97.478c-4.601-9.905,0.223-16.082,9.814-19.727c-3.997-8.966,2.767-16.833,15.522-15.91
		c7.789,0.813,13.051,6.787,12.86,14.925c7.53,3.543,11.22,9.097,8.062,18.234c6.14,1.228,9.558,4,12.205,8.619
		c2.086,5.51,1.721,8.914-1.834,13.801c-2.646,3.522-6.539,5.118-12.375,5.373l-15.711,0.058l-2.86-3.799l-2.987,3.82l-19.685,0.072
		l-2.346-0.916l-1.926,0.932l-2.771,0.012c-10.249-1.201-13.858-10.173-9.213-17.173C64.518,102.558,69.637,99.751,75.27,97.478
		L75.27,97.478z"/>
	<path fill="#FFFFFF" d="M89.974,75.091l4.796-2.587c3.769-1.753,6.336,2.909,3.179,4.864l-14.952,7.745
		c-3.608,2.368-4.461,5.552-2.561,9.553l22.729-11.974c4.807-2.507,6.082-8.808,1.246-13.356
		c-4.697-3.383-11.381-2.998-14.701,1.649C89.173,72.33,89.445,73.744,89.974,75.091L89.974,75.091z"/>
	<path fill="#FFFFFF" d="M111.877,82.195c6.319,2.874,6.215,10.886,1.304,14.154L74.69,117.112c-4.306,1.43-6.703-1.035-7.667-2.625
		c-1.027-1.69-1.72-5.01,2.163-7.426l36.874-19.292C108.476,86.455,110.785,84.503,111.877,82.195L111.877,82.195z"/>
	<path fill="#FFFFFF" d="M95.64,111.791c-0.826,0.331-0.854,0.742,0.205,0.754c7.439,0.027,13.917,2.333,20.128,5.276
		c5.369,1.738,12.61-1.434,12.899-8.387c0.167-4.564-5.368-10.14-11.776-8.576C111.078,102.552,103.17,108.565,95.64,111.791
		L95.64,111.791z"/>
	<path fill="#ED1C24" d="M99.032,51.047c0.945-0.498,1.595-0.333,2.351,0.216c1.159,1.003,1.702,2.559,1.313,4.3
		c-0.672,3.012-3.883,5.469-7.149,5.469c-3.266,0-5.382-2.457-4.71-5.469c0.567-2.542,2.941-4.688,5.632-5.296
		C97.326,50.021,98.851,50.079,99.032,51.047L99.032,51.047z"/>
	<polygon fill="#FFFFFF" points="99.144,50.745 102.317,46.29 106.783,47.455 106.209,49.212 102.521,47.07 	"/>
	<path fill="#FFFFFF" d="M97.112,50.738c-0.556-0.755-4.659,1.613-4.201,2.216c0.031,0.013,1.134-0.694,2.183-1.17
		C96.143,51.309,97.117,50.833,97.112,50.738L97.112,50.738z"/>
	<path fill="#17479E" d="M43.519,121.841l0.111-0.18l0.222-0.337l0.231-0.333l0.24-0.325l0.247-0.317l0.256-0.312l0.265-0.306
		l0.273-0.299l0.281-0.289l0.289-0.283l0.294-0.274l0.257-0.228l0.263-0.225l0.271-0.218l0.277-0.213l0.282-0.204l0.288-0.199
		l0.295-0.191l0.3-0.188l0.307-0.18l0.31-0.174l0.316-0.164l0.322-0.161l0.328-0.153l0.332-0.146l0.338-0.141l0.34-0.133
		l0.342-0.127l0.345-0.12l0.346-0.11l0.348-0.104l0.349-0.097l0.348-0.088l0.349-0.08l0.352-0.07l0.351-0.062l0.352-0.055
		l0.352-0.047l0.353-0.038l0.353-0.028l0.353-0.021l0.354-0.014l0.356-0.004l0.417,0.006l0.412,0.02l0.403,0.032l0.398,0.044
		l0.391,0.059l0.384,0.071l0.376,0.086l0.37,0.101l0.363,0.116l0.353,0.132l0.343,0.146l0.337,0.162l0.327,0.179l0.315,0.193
		l0.303,0.209l0.292,0.224l0.278,0.238l0.265,0.253l0.248,0.266l0.235,0.281l0.215,0.295l0.197,0.305l0.179,0.318l0.161,0.329
		l0.14,0.338l0.121,0.345l0.1,0.354l0.082,0.358l0.062,0.364l0.044,0.368l0.025,0.373l0.009,0.386l-0.017,0.544l-0.051,0.543
		l-0.084,0.538l-0.121,0.529l-0.155,0.521l-0.188,0.506l-0.223,0.496l-0.255,0.479l-0.288,0.466l-0.317,0.45l-0.347,0.433
		l-0.375,0.418l-0.403,0.4l-0.429,0.385l-0.454,0.369l-0.473,0.35l-0.26,0.179l-0.254,0.165l-0.258,0.16l-0.168,0.1l0.051-0.007
		l0.409,0.026l0.341,0.062l0.323,0.102l0.305,0.131l0.279,0.158l0.256,0.178l0.233,0.191l0.22,0.209l0.208,0.229l0.191,0.248
		l0.173,0.269l0.151,0.291l0.122,0.31l0.091,0.323l0.055,0.334l0.018,0.325l-0.012,0.286l-0.033,0.267l-0.052,0.26l-0.072,0.256
		l-0.091,0.25l-0.105,0.236l-0.12,0.229l-0.134,0.22l-0.147,0.211l-0.152,0.194l-0.159,0.188l-0.169,0.18l-0.177,0.175l-0.183,0.166
		l-0.192,0.161l-0.192,0.149l-0.289,0.218l-0.287,0.207l-0.289,0.2l-0.29,0.194l-0.292,0.188l-0.294,0.183l-0.296,0.176
		l-0.297,0.169l-0.3,0.163l-0.302,0.156l-0.304,0.149l-0.305,0.144l-0.307,0.137l-0.31,0.131l-0.312,0.124l-0.312,0.116l-0.314,0.11
		l-0.316,0.104l-0.319,0.098l-0.319,0.088l-0.32,0.084l-0.321,0.074l-0.323,0.067l-0.322,0.062l-0.324,0.055l-0.325,0.046
		l-0.327,0.04l-0.327,0.031l-0.328,0.025l-0.329,0.018l-0.329,0.012l-0.335,0.004l-0.528-0.01l-0.525-0.029l-0.517-0.048
		l-0.507-0.069l-0.497-0.089l-0.488-0.11l-0.478-0.133l-0.466-0.152l-0.454-0.176l-0.444-0.199l-0.431-0.219l-0.417-0.244
		l-0.401-0.265l-0.386-0.284l-0.371-0.309l-0.354-0.327l-0.334-0.346l-0.315-0.362l-0.293-0.379l-0.272-0.395l-0.25-0.41
		l-0.228-0.422l-0.205-0.438l-0.183-0.449l-0.159-0.46l-0.137-0.471l-0.115-0.481l-0.093-0.49l-0.071-0.502l-0.051-0.51
		l-0.029-0.518l-0.002-0.078l-0.103,0.188l-0.239,0.408l-0.249,0.402l-0.259,0.395l-0.269,0.39l-0.28,0.383l-0.29,0.376l-0.3,0.368
		l-0.309,0.362l-0.321,0.354l-0.329,0.349l-0.337,0.34l-0.298,0.289l-0.309,0.281l-0.316,0.273l-0.323,0.266l-0.331,0.256
		l-0.339,0.247l-0.344,0.238l-0.35,0.228l-0.357,0.221l-0.364,0.21l-0.372,0.2l-0.377,0.191l-0.383,0.182l-0.391,0.174l-0.396,0.164
		l-0.398,0.151l-0.403,0.146l-0.411,0.137l-0.416,0.127l-0.42,0.116l-0.424,0.106l-0.429,0.099l-0.433,0.089l-0.438,0.078
		l-0.44,0.068l-0.445,0.061l-0.45,0.051l-0.454,0.041l-0.456,0.032l-0.462,0.022l-0.466,0.014l-0.461,0.004h-0.236l-0.238-0.002
		l-0.245-0.002l-0.252-0.006l-0.259-0.004l-0.269-0.006l-0.276-0.008l-0.282-0.01l-0.29-0.009l-0.298-0.011l-0.306-0.013
		l-0.313-0.014l-0.32-0.015l-0.329-0.015l-0.337-0.017l-0.339-0.018l-0.333-0.016l-0.323-0.016l-0.309-0.015l-0.294-0.013
		l-0.281-0.012l-0.269-0.012l-0.255-0.011l-0.239-0.009l-0.224-0.008l-0.212-0.008l-0.199-0.004l-0.183-0.007l-0.166-0.003
		l-0.154-0.003l-0.138-0.001l-0.124-0.001h-0.204l-0.216,0.001l-0.226,0.002l-0.235,0.002l-0.245,0.003l-0.255,0.005l-0.267,0.004
		l-0.276,0.004l-0.268,0.004l-0.246,0.006l-0.219,0.003l-0.193,0.003l-0.168,0.003l-0.146,0.001l-0.123,0.001h-0.099l-0.239-0.001
		l-0.241-0.005l-0.233-0.009l-0.226-0.012l-0.221-0.015l-0.217-0.021l-0.211-0.021l-0.204-0.027l-0.2-0.031l-0.199-0.036
		l-0.197-0.043l-0.191-0.05l-0.191-0.059l-0.195-0.068l-0.193-0.078l-0.218-0.105l-0.346-0.209l-0.344-0.281l-0.304-0.332
		l-0.251-0.38l-0.188-0.403l-0.126-0.416l-0.07-0.416l-0.021-0.396l0.01-0.28l0.026-0.261l0.043-0.258l0.061-0.258l0.078-0.25
		l0.092-0.24l0.108-0.235l0.12-0.223l0.132-0.215l0.147-0.211l0.162-0.202l0.177-0.194L9.85,133l0.199-0.167l0.209-0.152
		l0.183-0.117l0.128-0.078l0.156-0.086l0.156-0.078l0.159-0.074l0.164-0.072l0.168-0.07l0.175-0.071l0.149-0.062l0.019-0.064
		l0.046-0.18l0.049-0.203l0.051-0.227l0.054-0.254l0.027-0.132l0.027-0.142l0.029-0.146l0.029-0.152l0.029-0.156l0.029-0.159
		l0.029-0.163l0.058-0.334l0.033-0.191l0.03-0.183l0.061-0.38l0.03-0.197l0.031-0.202l0.032-0.215l0.063-0.411l0.061-0.398
		l0.061-0.394l0.058-0.387l0.058-0.382l0.056-0.375l0.055-0.365l0.054-0.363l0.053-0.355l0.051-0.348l0.05-0.343l0.048-0.337
		l0.048-0.331l0.046-0.323l0.045-0.316l0.043-0.312l0.043-0.306l0.041-0.298l0.04-0.29l0.039-0.287l0.038-0.28l0.037-0.271
		l0.035-0.267l0.034-0.263l0.034-0.255l0.031-0.246l0.03-0.24l0.029-0.235l0.031-0.248l0.049-0.416l0.023-0.209l0.046-0.41
		l0.043-0.395l0.04-0.383l0.037-0.371l0.034-0.357l0.03-0.347l0.028-0.335l0.025-0.322l0.021-0.311l0.019-0.297l0.016-0.284
		l0.013-0.272l0.009-0.259l0.007-0.245l0.004-0.233v-0.074l-0.057-0.028l-0.125-0.063l-0.078-0.04l-0.075-0.039l-0.076-0.039
		l-0.072-0.038l-0.126-0.067l-0.195-0.127l-0.179-0.135l-0.167-0.146l-0.159-0.156l-0.149-0.17l-0.137-0.182l-0.123-0.187
		l-0.106-0.187l-0.094-0.188l-0.086-0.2l-0.074-0.208l-0.062-0.214l-0.047-0.215l-0.033-0.215l-0.02-0.219l-0.008-0.266l0.048-0.585
		l0.166-0.623l0.286-0.585l0.389-0.516l0.466-0.424l0.512-0.336l0.542-0.259l0.542-0.187l0.189-0.053l0.162-0.039l0.161-0.035
		l0.168-0.034l0.176-0.031l0.178-0.028l0.184-0.027l0.192-0.027l0.199-0.023l0.205-0.023l0.213-0.021l0.219-0.021l0.226-0.021
		l0.233-0.019l0.242-0.019l0.251-0.017l0.258-0.016l0.265-0.015l0.274-0.013l0.282-0.013l0.291-0.012l0.299-0.01l0.306-0.011
		l0.314-0.008l0.324-0.007l0.331-0.008l0.339-0.004l0.348-0.004l0.357-0.004l0.365-0.004l0.374-0.001l0.38-0.001h4.205l0.5,0.004
		l0.496,0.01l0.486,0.017l0.476,0.022l0.466,0.029l0.455,0.036l0.446,0.042l0.438,0.05l0.428,0.058l0.418,0.062l0.409,0.071
		l0.398,0.076l0.391,0.086l0.381,0.093l0.373,0.101l0.364,0.106l0.356,0.118l0.349,0.123l0.345,0.136l0.339,0.144l0.335,0.152
		l0.33,0.161l0.324,0.171l0.319,0.18l0.314,0.188l0.308,0.196l0.303,0.207l0.297,0.215l0.292,0.225l0.285,0.23l0.28,0.242
		l0.271,0.246l0.242,0.23l0.242,0.248l0.234,0.258l0.226,0.268l0.219,0.277l0.211,0.285l0.204,0.295l0.196,0.305l0.19,0.312
		l0.182,0.319l0.175,0.33l0.167,0.336l0.162,0.347l0.154,0.354l0.148,0.361l0.142,0.371l0.135,0.379l0.126,0.38l0.117,0.383
		l0.108,0.385l0.1,0.388l0.091,0.389l0.083,0.394l0.073,0.394l0.064,0.396l0.056,0.396l0.048,0.402l0.038,0.4l0.03,0.402
		l0.021,0.404l0.013,0.408l0.004,0.409l-0.005,0.491L43.519,121.841L43.519,121.841z M76.354,117.312l0.136-0.092l0.301-0.183
		l0.318-0.175l0.334-0.168l0.353-0.162l0.374-0.159l0.376-0.147l0.235-0.092l0.239-0.091l0.239-0.088l0.238-0.086l0.238-0.083
		l0.235-0.08l0.236-0.078l0.236-0.075l0.11-0.034l-0.038-0.016l-0.222-0.104l-0.218-0.115l-0.213-0.127l-0.205-0.137l-0.216-0.162
		l-0.354-0.311l-0.334-0.367l-0.291-0.408l-0.238-0.439l-0.183-0.463l-0.127-0.479l-0.073-0.486l-0.022-0.473l0.008-0.314
		l0.024-0.296l0.041-0.294l0.058-0.291l0.075-0.287l0.092-0.283l0.11-0.277l0.127-0.271l0.142-0.261l0.159-0.252l0.172-0.241
		l0.186-0.231l0.199-0.221l0.21-0.209l0.221-0.199l0.229-0.188l0.237-0.176l0.249-0.168l0.257-0.158l0.264-0.144l0.271-0.131
		l0.277-0.12l0.282-0.105l0.288-0.096l0.292-0.082l0.296-0.07l0.299-0.06l0.304-0.048l0.309-0.036l0.31-0.026l0.314-0.016
		l0.32-0.005l0.25,0.005l0.247,0.014l0.245,0.021l0.245,0.031l0.243,0.041l0.241,0.051l0.236,0.062l0.235,0.072l0.232,0.084
		l0.227,0.094l0.222,0.106l0.218,0.117l0.211,0.128l0.204,0.139l0.196,0.149l0.208,0.174l0.335,0.331l0.311,0.379l0.269,0.414
		l0.222,0.443l0.169,0.463l0.119,0.476l0.069,0.486l0.021,0.478l-0.009,0.303l-0.025,0.287l-0.043,0.283l-0.061,0.282l-0.08,0.278
		l-0.095,0.271l-0.112,0.265l-0.128,0.258l-0.145,0.25l-0.157,0.238l-0.17,0.229l-0.184,0.221l-0.194,0.209l-0.203,0.199
		l-0.215,0.192l-0.227,0.185l-0.236,0.175l-0.239,0.162l-0.111,0.067l0.03,0.016l0.276,0.179l0.253,0.205l0.229,0.229l0.203,0.25
		l0.175,0.263l0.149,0.283l0.121,0.297l0.09,0.303l0.062,0.303l0.034,0.303l0.011,0.296l-0.004,0.146l-0.007,0.117l-0.011,0.118
		l-0.012,0.123l-0.016,0.13l-0.018,0.139l-0.021,0.146l-0.022,0.16l-0.026,0.174l-0.028,0.184l-0.031,0.196l-0.033,0.21
		l-0.037,0.225l-0.039,0.235l-0.042,0.249l-0.045,0.266l-0.046,0.268l-0.044,0.257l-0.044,0.254l-0.042,0.25l-0.041,0.246
		l-0.04,0.241l-0.039,0.238l-0.038,0.233l-0.037,0.23l-0.035,0.227l-0.034,0.224l-0.033,0.22l-0.033,0.215l-0.031,0.211l-0.03,0.207
		l-0.03,0.211l-0.055,0.369l-0.052,0.354l-0.05,0.348l-0.049,0.34l-0.048,0.333l-0.046,0.324l-0.044,0.317l-0.043,0.312
		l-0.042,0.305l-0.039,0.295l-0.039,0.288l-0.036,0.28l-0.035,0.274l-0.034,0.266l-0.032,0.259l-0.031,0.257l-0.031,0.246
		l-0.027,0.229l-0.026,0.22l-0.024,0.205l-0.021,0.194l-0.02,0.183l-0.018,0.169l-0.008,0.086l0.188,0.014l0.26,0.036l0,0
		l-0.022-0.405l-0.01-0.531l0.005-0.381l0.013-0.375l0.023-0.375l0.032-0.373l0.041-0.371l0.05-0.37l0.059-0.368l0.068-0.367
		l0.077-0.365l0.086-0.363l0.095-0.363l0.104-0.359l0.113-0.358l0.122-0.356l0.13-0.355l0.14-0.354l0.149-0.351l0.156-0.346
		l0.164-0.341l0.171-0.335l0.179-0.328l0.187-0.326l0.194-0.319l0.202-0.315l0.209-0.309l0.217-0.305l0.226-0.301l0.232-0.293
		l0.24-0.287l0.248-0.283l0.255-0.275l0.256-0.264l0.26-0.262l0.274-0.262l0.28-0.253l0.286-0.246l0.291-0.237l0.297-0.23
		l0.303-0.225l0.309-0.215l0.313-0.207l0.319-0.201l0.323-0.191l0.33-0.186l0.335-0.178l0.339-0.169l0.344-0.161l0.353-0.156
		l0.354-0.145l0.353-0.136l0.354-0.126l0.355-0.117l0.357-0.107l0.357-0.101l0.359-0.09l0.361-0.08l0.361-0.071l0.362-0.062
		l0.364-0.052l0.365-0.045l0.365-0.033l0.366-0.022l0.367-0.015l0.37-0.006l0.4,0.007l0.396,0.02l0.388,0.032l0.385,0.045
		l0.379,0.061l0.371,0.072l0.365,0.088l0.361,0.102l0.354,0.117l0.344,0.132l0.338,0.147l0.328,0.161l0.32,0.179l0.311,0.192
		l0.3,0.207l0.291,0.224l0.276,0.237l0.264,0.248l0.248,0.263l0.232,0.274l0.217,0.288l0.074,0.111l0.026-0.026l0.276-0.246
		l0.289-0.241l0.304-0.234l0.312-0.227l0.311-0.215l0.322-0.208l0.328-0.196l0.334-0.188l0.34-0.174l0.346-0.162l0.352-0.151
		l0.356-0.139l0.354-0.124l0.348-0.109l0.348-0.095l0.346-0.08l0.342-0.063l0.342-0.047l0.339-0.027l0.387-0.014l0.456,0.039
		l0.479,0.115l0.445,0.18l0.406,0.228l0.37,0.265l0.339,0.294l0.316,0.321l0.297,0.347l0.285,0.374l0.273,0.399l0.268,0.426
		l0.261,0.454l0.257,0.484l0.254,0.513l0.253,0.544l0.248,0.568l0.127,0.302l0.125,0.307l0.125,0.314l0.126,0.321l0.127,0.332
		l0.125,0.34l0.125,0.348l0.127,0.355l0.127,0.365l0.127,0.372l0.125,0.382l0.129,0.391l0.127,0.397l0.127,0.406l0.127,0.414
		l0.129,0.425l0.129,0.434l0.128,0.44l0.129,0.449l0.129,0.458l0.13,0.467l0.062,0.227l0.045-0.19l0.057-0.247l0.051-0.246
		l0.049-0.245l0.041-0.243l0.039-0.242l0.031-0.239l0.029-0.24l0.023-0.239l0.021-0.236l0.016-0.234l0.011-0.234l0.008-0.233
		l0.002-0.224l-0.004-0.164l-0.008-0.162l-0.017-0.17l-0.021-0.172l-0.028-0.178l-0.034-0.186l-0.042-0.189l-0.049-0.193
		l-0.058-0.198l-0.062-0.205l-0.07-0.212l-0.08-0.215l-0.086-0.221l-0.097-0.228l-0.104-0.232l-0.112-0.241l-0.127-0.262
		l-0.126-0.265l-0.118-0.253l-0.108-0.241l-0.104-0.229l-0.096-0.223l-0.088-0.211l-0.08-0.201l-0.074-0.191l-0.065-0.187
		l-0.062-0.184l-0.055-0.183l-0.048-0.184l-0.041-0.196l-0.032-0.223l-0.014-0.253l0.023-0.432l0.078-0.433l0.131-0.422l0.185-0.401
		l0.229-0.371l0.271-0.336l0.3-0.3l0.33-0.268l0.352-0.229l0.359-0.191l0.375-0.16l0.387-0.129l0.396-0.098l0.402-0.066l0.406-0.039
		l0.414-0.014l0.309,0.011l0.307,0.026l0.305,0.051l0.304,0.068l0.299,0.094l0.289,0.11l0.28,0.134l0.273,0.155l0.258,0.175
		l0.244,0.188l0.229,0.208l0.215,0.221l0.2,0.234l0.184,0.242l0.17,0.256l0.159,0.268l0.144,0.278l0.131,0.28l0.117,0.287
		l0.106,0.295l0.083,0.265l0.093-0.163l0.202-0.277l0.223-0.248l0.236-0.225l0.245-0.197l0.255-0.179l0.266-0.166l0.277-0.156
		l0.29-0.147l0.304-0.145l0.32-0.142l0.331-0.136l0.283-0.112l0.268-0.104l0.261-0.102l0.256-0.098l0.246-0.094l0.242-0.09
		l0.234-0.086l0.229-0.083l0.221-0.078l0.216-0.075l0.207-0.07l0.202-0.067l0.195-0.063l0.188-0.061l0.184-0.058l0.184-0.056
		l0.335-0.096l0.325-0.087l0.312-0.075l0.305-0.062l0.295-0.053l0.291-0.041l0.287-0.026l0.291-0.011l0.359,0.014l0.357,0.04
		l0.358,0.073l0.36,0.11l0.354,0.153l0.342,0.199l0.317,0.242l0.283,0.28l0.246,0.315l0.202,0.341l0.156,0.351l0.116,0.354
		l0.083,0.355l0.055,0.354l0.03,0.356l0.011,0.354l-0.006,0.268l-0.013,0.268l-0.021,0.279l-0.027,0.295l-0.035,0.308l-0.041,0.323
		l-0.049,0.341l-0.055,0.358l-0.062,0.377l-0.068,0.393l-0.076,0.413l-0.082,0.431l-0.088,0.45l-0.097,0.468l-0.103,0.488
		l-0.108,0.502l-0.106,0.494l-0.096,0.473l-0.092,0.459l-0.084,0.446l-0.076,0.431l-0.07,0.415l-0.062,0.402l-0.056,0.388
		l-0.049,0.373l-0.043,0.356l-0.035,0.341l-0.028,0.326l-0.021,0.312l-0.017,0.293l-0.01,0.277l-0.002,0.254l0.005,0.267
		l0.014,0.226l0.021,0.186l0.023,0.134l0.036-0.002l0.13-0.013l0.115-0.021l0.107-0.027l0.099-0.033l0.095-0.039l0.09-0.048
		l0.092-0.057l0.091-0.066l0.092-0.079l0.097-0.095l0.098-0.108l0.1-0.129l0.1-0.146l0.103-0.167l0.106-0.198l0.045-0.091l0.05-0.11
		l0.052-0.118l0.053-0.131l0.055-0.139l0.054-0.149l0.055-0.157l0.056-0.168l0.054-0.175l0.054-0.186l0.055-0.195l0.055-0.203
		l0.054-0.211l0.054-0.22l0.053-0.229l0.053-0.236l0.051-0.244l0.051-0.255l0.051-0.261l0.049-0.271l0.05-0.277l0.048-0.285
		l0.047-0.295l0.049-0.303l0.045-0.311l0.045-0.317l0.043-0.326l0.045-0.334l0.043-0.341l0.041-0.35l0.041-0.357l0.039-0.365
		l0.016-0.137l0.016-0.15l0.016-0.166l0.018-0.182l0.018-0.193l0.02-0.213l0.037-0.449l0.023-0.312l0.028-0.298l0.031-0.289
		l0.034-0.276l0.037-0.265l0.043-0.257l0.048-0.248l0.052-0.239l0.057-0.229l0.064-0.229l0.074-0.224l0.084-0.22l0.097-0.219
		l0.116-0.221l0.141-0.225l0.182-0.236l0.287-0.291l0.316-0.257l0.331-0.222l0.347-0.197l0.363-0.18l0.385-0.166l0.408-0.158
		l0.425-0.146l0.229-0.074l0.229-0.068l0.229-0.063l0.229-0.062l0.229-0.055l0.228-0.051l0.229-0.047l0.23-0.041l0.229-0.036
		l0.229-0.032l0.229-0.025l0.229-0.022l0.229-0.018l0.229-0.013l0.229-0.008l0.24-0.003l0.289,0.007l0.295,0.021l0.291,0.038
		l0.3,0.058l0.302,0.086l0.305,0.116l0.307,0.158l0.312,0.213l0.282,0.265l0.23,0.282l0.188,0.304l0.146,0.317l0.103,0.321
		l0.067,0.314l0.035,0.311l0.012,0.296l-0.004,0.149l-0.008,0.123l-0.012,0.122l-0.013,0.132l-0.017,0.143l-0.019,0.146l-0.021,0.16
		l-0.023,0.176l-0.027,0.188l-0.029,0.199l-0.031,0.213l-0.035,0.229l-0.039,0.242l-0.04,0.256l-0.045,0.271l-0.046,0.283
		l-0.049,0.287l-0.045,0.279l-0.045,0.275l-0.043,0.271l-0.043,0.266l-0.041,0.26l-0.041,0.255l-0.039,0.25l-0.037,0.246
		l-0.036,0.239l-0.036,0.234l-0.066,0.451l-0.031,0.221l-0.029,0.213l-0.029,0.22l-0.045,0.307l-0.042,0.294l-0.041,0.292
		l-0.039,0.288l-0.038,0.283l-0.037,0.279l-0.037,0.277l-0.033,0.272l-0.034,0.271l-0.033,0.266l-0.03,0.262l-0.029,0.26
		l-0.029,0.256l-0.027,0.252l-0.027,0.244l-0.024,0.249l-0.024,0.244l-0.023,0.228l-0.021,0.216l-0.021,0.206l-0.019,0.191
		l-0.017,0.182l-0.017,0.17l-0.012,0.158l-0.002,0.019l0.139,0.013l0.225,0.036l0.239,0.058l0.251,0.088l0.252,0.117l0.252,0.157
		l0.216,0.177l0.196,0.195l0.191,0.249l0.148,0.263l0.111,0.264l0.076,0.259l0.049,0.239l0.024,0.232l0.009,0.231l-0.015,0.313
		l-0.038,0.317l-0.064,0.313l-0.09,0.305l-0.111,0.296l-0.133,0.284l-0.152,0.271l-0.172,0.265l-0.189,0.25l-0.199,0.232
		l-0.213,0.225l-0.228,0.215l-0.238,0.205l-0.25,0.197l-0.264,0.189l-0.254,0.171l-0.201,0.132l-0.197,0.127l-0.196,0.124
		l-0.194,0.119l-0.194,0.117l-0.193,0.112l-0.191,0.109l-0.188,0.104l-0.19,0.103l-0.188,0.1l-0.187,0.094l-0.187,0.091L152.446,139
		l-0.184,0.084l-0.184,0.078l-0.182,0.075l-0.344,0.137l-0.354,0.125l-0.353,0.109l-0.348,0.091l-0.348,0.073l-0.348,0.057
		l-0.348,0.035l-0.355,0.012l-0.392-0.018l-0.403-0.062l-0.408-0.108l-0.396-0.164l-0.381-0.219l-0.348-0.273l-0.305-0.315
		l-0.234-0.319l-0.127-0.209l-0.104-0.197l-0.089-0.194l-0.05-0.121l-0.012,0.009l-0.287,0.178l-0.291,0.17l-0.295,0.162
		l-0.299,0.158l-0.303,0.148l-0.307,0.145l-0.305,0.135l-0.311,0.13l-0.312,0.122l-0.312,0.115l-0.312,0.104l-0.312,0.099
		l-0.312,0.09l-0.313,0.084l-0.312,0.071l-0.312,0.065l-0.312,0.057l-0.315,0.049l-0.312,0.039l-0.313,0.031l-0.313,0.021
		l-0.313,0.014l-0.315,0.004l-0.354-0.007l-0.354-0.021l-0.353-0.035l-0.345-0.052l-0.342-0.064l-0.336-0.083l-0.328-0.1
		l-0.322-0.115l-0.313-0.131l-0.307-0.15l-0.3-0.168l-0.285-0.186l-0.274-0.201l-0.262-0.217l-0.25-0.232l-0.235-0.249l-0.222-0.263
		l-0.206-0.274l-0.189-0.286l-0.174-0.297l-0.156-0.307l-0.144-0.315l-0.125-0.322l-0.11-0.329l-0.097-0.337l-0.081-0.344
		l-0.068-0.351l-0.055-0.356l-0.042-0.362l-0.028-0.369l-0.019-0.373l-0.006-0.377l0.003-0.285l0.009-0.289l0.015-0.297l0.02-0.308
		l0.023-0.315l0.031-0.325l0.034-0.334l0.04-0.345l0.044-0.354l0.052-0.365l0.053-0.375l0.062-0.386l0.063-0.396l0.07-0.406
		l0.073-0.418l0.079-0.426l0.077-0.412l0.071-0.39l0.064-0.372l0.062-0.354l0.055-0.339l0.051-0.321l0.045-0.304l0.04-0.286
		l0.035-0.269l0.029-0.252l0.024-0.23l0.021-0.215l0.015-0.191v-0.002l-0.003-0.001l-0.046-0.021l-0.32-0.133l-0.39-0.205
		l-0.381-0.264l-0.224-0.206l0.004,0.306l-0.004,0.438l-0.014,0.439l-0.021,0.441l-0.029,0.443l-0.038,0.447l-0.047,0.449
		l-0.056,0.45l-0.062,0.453l-0.071,0.457l-0.08,0.458l-0.088,0.458l-0.096,0.462l-0.104,0.465l-0.111,0.466l-0.12,0.47l-0.129,0.474
		l-0.138,0.473l-0.145,0.468l-0.148,0.463l-0.157,0.461l-0.163,0.459l-0.17,0.455l-0.178,0.453l-0.184,0.449l-0.189,0.447
		l-0.196,0.443l-0.202,0.44l-0.21,0.438l-0.217,0.435l-0.224,0.433l-0.229,0.429l-0.236,0.428l-0.182,0.313l-0.18,0.306
		l-0.184,0.301l-0.183,0.297l-0.187,0.292l-0.188,0.288l-0.189,0.285l-0.191,0.28l-0.192,0.275l-0.194,0.272l-0.197,0.269
		l-0.198,0.264l-0.201,0.261l-0.203,0.256l-0.204,0.252l-0.207,0.247l-0.209,0.244l-0.212,0.238l-0.214,0.236l-0.215,0.23
		l-0.217,0.227l-0.221,0.225l-0.222,0.219l-0.224,0.215l-0.225,0.209l-0.229,0.207l-0.229,0.201l-0.23,0.197l-0.234,0.191
		l-0.234,0.189l-0.238,0.185l-0.239,0.181l-0.243,0.178l-0.242,0.17l-0.246,0.166l-0.244,0.158l-0.246,0.154l-0.248,0.149
		l-0.25,0.146l-0.249,0.14l-0.251,0.133l-0.252,0.129l-0.256,0.124l-0.254,0.117l-0.256,0.111l-0.256,0.105l-0.259,0.102
		l-0.259,0.097l-0.26,0.09l-0.262,0.084l-0.264,0.079l-0.264,0.072l-0.264,0.066l-0.265,0.062l-0.267,0.056l-0.267,0.05
		l-0.267,0.044l-0.27,0.038l-0.269,0.032l-0.269,0.026l-0.271,0.021l-0.271,0.015l-0.271,0.01l-0.273,0.003l-0.394-0.007
		l-0.392-0.018l-0.385-0.029l-0.379-0.043l-0.371-0.055l-0.367-0.068l-0.358-0.082l-0.353-0.097l-0.345-0.108l-0.339-0.125
		l-0.33-0.141l-0.32-0.154l-0.312-0.17l-0.305-0.186l-0.291-0.201l-0.278-0.215l-0.267-0.227l-0.254-0.244l-0.24-0.254l-0.223-0.27
		l-0.209-0.279l-0.189-0.295l-0.172-0.305l-0.153-0.312l-0.135-0.321l-0.116-0.331l-0.098-0.337l-0.077-0.343l-0.062-0.347
		l-0.041-0.353l-0.024-0.355l-0.009-0.354l0.006-0.252l0.014-0.247l0.021-0.248l0.035-0.246l0.043-0.242l0.053-0.241l0.064-0.24
		l0.076-0.234l0.085-0.23l0.099-0.229l0.107-0.225l0.119-0.22l0.128-0.21l0.14-0.207l0.15-0.199l0.168-0.203l0.32-0.34l0.369-0.324
		l0.403-0.284l0.437-0.239l0.459-0.188l0.479-0.135l0.488-0.078l0.484-0.023l0.457,0.02l0.445,0.057l0.438,0.099l0.428,0.142
		l0.413,0.188l0.391,0.23l0.361,0.271l0.336,0.312l0.299,0.348l0.259,0.371l0.215,0.396l0.176,0.415l0.13,0.43l0.09,0.436
		l0.052,0.441l0.018,0.426l-0.002,0.141l-0.006,0.121l-0.008,0.119l-0.005,0.075l0.035-0.015l0.104-0.045l0.104-0.053l0.105-0.061
		l0.107-0.068l0.111-0.079l0.111-0.089l0.117-0.1l0.118-0.111l0.121-0.123l0.116-0.127l0.104-0.124l0.096-0.123l0.084-0.123
		l0.076-0.121l0.068-0.122l0.061-0.121l0.055-0.121l0.047-0.125l0.041-0.125l0.033-0.129l0.029-0.131l0.021-0.134l0.018-0.142
		l0.01-0.145l0.004-0.15l-0.002-0.104l-0.008-0.13l-0.015-0.153l-0.021-0.174l-0.027-0.194l-0.035-0.214l-0.043-0.231l-0.05-0.248
		l-0.058-0.264l-0.065-0.281l-0.073-0.299l-0.08-0.312l-0.088-0.328l-0.097-0.345l-0.104-0.359l-0.111-0.375l-0.116-0.383
		l-0.122-0.387l-0.128-0.393l-0.132-0.395l-0.137-0.399l-0.144-0.405l-0.147-0.41l-0.15-0.412l-0.157-0.418l-0.163-0.422
		l-0.168-0.429l-0.173-0.432l-0.177-0.437l-0.184-0.439l-0.188-0.444l-0.192-0.45l-0.145-0.33l-0.141-0.314l-0.134-0.299
		l-0.129-0.28l-0.124-0.263l-0.119-0.246l-0.113-0.23l-0.107-0.209l-0.104-0.189l-0.097-0.176l-0.089-0.154l-0.08-0.133
		l-0.072-0.111l-0.062-0.094l-0.05-0.065l-0.021-0.024l-0.075-0.08l-0.058-0.053l-0.039-0.029l-0.009-0.006h-0.004l-0.036,0.006
		l-0.054,0.009l-0.073,0.012l-0.089,0.013l-0.094,0.012l-0.088,0.009l-0.084,0.007l-0.091,0.006l-0.101,0.006h-0.106l-0.22-0.007
		l-0.244-0.022l-0.121-0.021l-0.062,0.13l-0.125,0.231l-0.139,0.226l-0.148,0.219l-0.162,0.211l-0.174,0.203l-0.186,0.193
		l-0.189,0.18l-0.201,0.17l-0.21,0.157l-0.218,0.146l-0.226,0.134l-0.233,0.122l-0.24,0.106l-0.244,0.096l-0.248,0.08l-0.254,0.068
		l-0.258,0.055l-0.258,0.041l-0.262,0.029l-0.262,0.018l-0.271,0.006l-0.447-0.014l-0.448-0.045l-0.442-0.078l-0.435-0.116
		l-0.427-0.159l-0.412-0.209l-0.391-0.258l-0.351-0.301l-0.315-0.342l-0.271-0.383l-0.222-0.406l-0.172-0.425l-0.127-0.434
		l-0.084-0.443l-0.05-0.448l-0.014-0.435l0.001-0.13l0.005-0.117l0.007-0.111l0.01-0.11l0.01-0.117l0.013-0.124l0.015-0.126
		l0.006-0.047l-0.033,0.017l-0.105,0.063l-0.113,0.079l-0.121,0.1l-0.127,0.119l-0.134,0.141l-0.139,0.165l-0.144,0.188
		l-0.146,0.212l-0.148,0.237l-0.148,0.264l-0.146,0.279l-0.136,0.287l-0.127,0.297l-0.119,0.31l-0.11,0.321l-0.102,0.33
		l-0.092,0.346l-0.084,0.355l-0.074,0.369l-0.064,0.381l-0.057,0.394l-0.045,0.405l-0.036,0.418l-0.024,0.432l-0.017,0.443
		l-0.005,0.455l0.003,0.287l0.011,0.271l0.014,0.257l0.021,0.243l0.026,0.231l0.03,0.213l0.037,0.199l0.041,0.188l0.043,0.171
		l0.047,0.155l0.05,0.14l0.052,0.127l0.053,0.111l0.051,0.098l0.051,0.083l0.051,0.073l0.052,0.064l0.05,0.056l0.051,0.05
		l0.055,0.046l0.057,0.042l0.061,0.038l0.066,0.037l0.074,0.036l0.083,0.033l0.093,0.029l0.102,0.028l0.115,0.024l0.129,0.021
		l0.141,0.015l0.152,0.012l0.168,0.003l0.117-0.002l0.115-0.009l0.113-0.011l0.109-0.017l0.109-0.021l0.106-0.023l0.104-0.029
		l0.115-0.038l0.125-0.045l0.129-0.053l0.146-0.065l0.162-0.08l0.176-0.091l0.188-0.104l0.2-0.118l0.213-0.132l0.112-0.074
		l0.126-0.085l0.139-0.097l0.15-0.108l0.159-0.118l0.174-0.129l0.182-0.141l0.199-0.153l0.221-0.171l0.229-0.166l0.225-0.152
		l0.229-0.141l0.242-0.131l0.277-0.121l0.35-0.107l0.41-0.052l0.407,0.026l0.341,0.062l0.323,0.102l0.306,0.131l0.279,0.158
		l0.255,0.178l0.234,0.191l0.22,0.209l0.207,0.229l0.191,0.247l0.174,0.269l0.15,0.291l0.123,0.31l0.09,0.324l0.056,0.334
		l0.019,0.324l-0.013,0.286l-0.033,0.267l-0.052,0.26l-0.072,0.256l-0.091,0.25l-0.104,0.236l-0.121,0.229l-0.133,0.22l-0.147,0.212
		l-0.151,0.193l-0.16,0.188l-0.168,0.181l-0.179,0.174l-0.185,0.166l-0.19,0.162l-0.19,0.147l-0.285,0.215l-0.286,0.209l-0.29,0.201
		l-0.29,0.194l-0.292,0.188l-0.295,0.183l-0.297,0.177l-0.297,0.169l-0.301,0.162l-0.303,0.157l-0.305,0.15l-0.305,0.143
		l-0.309,0.137l-0.311,0.131l-0.312,0.123l-0.312,0.116l-0.313,0.11l-0.315,0.103l-0.317,0.099l-0.317,0.089l-0.32,0.083
		l-0.32,0.074l-0.322,0.067l-0.322,0.062l-0.324,0.054l-0.324,0.047l-0.327,0.04l-0.327,0.032l-0.328,0.024l-0.328,0.019
		l-0.33,0.011l-0.336,0.004l-0.531-0.01l-0.527-0.029l-0.518-0.049l-0.508-0.068l-0.499-0.092l-0.489-0.111l-0.479-0.133
		l-0.467-0.154l-0.456-0.178l-0.444-0.199l-0.431-0.222l-0.416-0.245l-0.403-0.266l-0.386-0.288l-0.371-0.31l-0.352-0.329
		l-0.334-0.349l-0.315-0.367l-0.293-0.383l-0.127-0.188l-0.101,0.134l-0.204,0.236l-0.211,0.22l-0.223,0.209l-0.233,0.202
		l-0.246,0.195l-0.258,0.188l-0.271,0.185l-0.285,0.183l-0.225,0.132l-0.212,0.121l-0.215,0.117l-0.217,0.113l-0.218,0.111
		l-0.22,0.107l-0.222,0.104l-0.224,0.102l-0.226,0.099l-0.228,0.095l-0.229,0.092l-0.231,0.09l-0.234,0.084l-0.237,0.084
		l-0.236,0.078l-0.238,0.076l-0.241,0.071l-0.237,0.068l-0.236,0.062l-0.235,0.06l-0.233,0.056l-0.232,0.05l-0.23,0.047
		l-0.227,0.041l-0.225,0.035l-0.226,0.032l-0.224,0.026l-0.222,0.022l-0.22,0.017l-0.22,0.015l-0.217,0.007l-0.228,0.003
		l-0.35-0.009l-0.359-0.031l-0.358-0.055l-0.354-0.084l-0.352-0.115l-0.349-0.156l-0.34-0.201l-0.316-0.244l-0.284-0.282
		l-0.246-0.32l-0.2-0.343l-0.153-0.354l-0.111-0.358l-0.074-0.362l-0.015-0.132l-0.122,0.108l-0.25,0.203l-0.262,0.195l-0.274,0.188
		l-0.268,0.168l-0.196,0.121l-0.205,0.121l-0.208,0.119l-0.21,0.113l-0.214,0.111l-0.216,0.106l-0.22,0.104l-0.221,0.101
		l-0.224,0.099l-0.229,0.095l-0.231,0.092l-0.232,0.087l-0.236,0.084l-0.24,0.082l-0.242,0.077l-0.237,0.071l-0.238,0.07
		l-0.243,0.066l-0.241,0.062l-0.238,0.058l-0.24,0.055l-0.237,0.05l-0.236,0.045l-0.234,0.039l-0.233,0.036l-0.232,0.031
		l-0.233,0.026l-0.229,0.021l-0.229,0.019l-0.228,0.013l-0.227,0.007l-0.239,0.003l-0.333-0.009l-0.345-0.03l-0.346-0.056
		l-0.344-0.085l-0.346-0.119l-0.343-0.161l-0.332-0.207l-0.307-0.253l-0.274-0.292l-0.232-0.327l-0.184-0.344l-0.138-0.351
		l-0.099-0.352l-0.064-0.352l-0.036-0.35l-0.011-0.342l0.004-0.165l0.009-0.155l0.014-0.156l0.017-0.164l0.021-0.176l0.025-0.189
		l0.028-0.199l0.032-0.214l0.036-0.229l0.04-0.244l0.044-0.26l0.047-0.275l0.051-0.291l0.055-0.309l0.06-0.324l0.063-0.338
		l0.063-0.338l0.062-0.33l0.06-0.324l0.059-0.316l0.057-0.311l0.055-0.303l0.054-0.297l0.052-0.289l0.05-0.281l0.049-0.276
		l0.048-0.269l0.045-0.264l0.087-0.502l0.041-0.24l0.038-0.224l0.044-0.286l0.045-0.296l0.084-0.549l0.048-0.319l0.054-0.357
		l0.073-0.488l0.041-0.276l0.041-0.272l0.039-0.271l0.039-0.27l0.038-0.266l0.038-0.263l0.036-0.261l0.036-0.258l0.035-0.252
		l0.034-0.254l0.035-0.25l0.033-0.246l0.033-0.242l0.031-0.242l0.067-0.512l0.055-0.428l0.028-0.228l0.028-0.226l0.027-0.222
		l0.027-0.221l0.026-0.218l0.025-0.213l0.048-0.418l0.045-0.403l0.042-0.388l0.039-0.373l0.036-0.356l0.033-0.342l0.03-0.327
		l0.027-0.311l0.023-0.295l0.02-0.279l0.017-0.264l0.014-0.246l0.01-0.229l0.007-0.213l0.004-0.195l0.002-0.173l-0.003-0.254
		l-0.008-0.22l-0.006-0.094l-0.005-0.002l-0.013-0.005l-0.022-0.008l-0.021-0.007l-0.057-0.018l-0.438-0.151l-0.448-0.192
		l-0.433-0.234l-0.415-0.297l-0.394-0.384l-0.339-0.491l-0.231-0.592l-0.07-0.57l0.017-0.373l0.044-0.305l0.072-0.296l0.098-0.284
		l0.122-0.271l0.143-0.257l0.16-0.239l0.171-0.217l0.182-0.203l0.2-0.196l0.212-0.183l0.223-0.168l0.23-0.154l0.238-0.144
		l0.246-0.131l0.227-0.108l0.256-0.12l0.261-0.119l0.263-0.115l0.265-0.113l0.266-0.11l0.267-0.106l0.27-0.105l0.272-0.104
		l0.271-0.098l0.273-0.096l0.274-0.094l0.276-0.09l0.278-0.089l0.279-0.084l0.279-0.081l0.283-0.078l0.28-0.074l0.273-0.07
		l0.268-0.064l0.265-0.062l0.257-0.057l0.253-0.051l0.25-0.048l0.245-0.043l0.241-0.038l0.236-0.033l0.232-0.027l0.228-0.024
		l0.224-0.019l0.221-0.014l0.218-0.009l0.246-0.004l0.288,0.015l0.322,0.045l0.324,0.082l0.322,0.121l0.308,0.16l0.287,0.194
		l0.261,0.228l0.229,0.25l0.194,0.267l0.161,0.271l0.133,0.283l0.106,0.293l0.079,0.296l0.053,0.298l0.03,0.295l0.01,0.295
		l-0.007,0.205l-0.015,0.198l-0.021,0.211l-0.026,0.238l-0.032,0.271l-0.039,0.299l-0.044,0.332l-0.051,0.369l-0.035,0.244
		l-0.062,0.442l-0.028,0.204l-0.027,0.191l-0.024,0.18l-0.022,0.166l-0.021,0.164L76.354,117.312L76.354,117.312z M76.405,131.656
		l0.054-0.281l0.034-0.178l0.033-0.173l0.032-0.17l0.038-0.199l0.05-0.271l0.054-0.29l0.025-0.136l0.023-0.131l0.022-0.126
		l0.022-0.125l0.048-0.268l0.046-0.259l0.045-0.255l0.043-0.249l0.042-0.246l0.041-0.241l0.039-0.236l0.038-0.232l0.036-0.229
		l0.034-0.227l0.033-0.221l0.031-0.216l0.029-0.212l0.028-0.209l0.027-0.203l0.025-0.199l0.023-0.195l0.022-0.188l0.02-0.183
		l0.019-0.177l0.017-0.17l0.016-0.164l0.014-0.153l0.012-0.147l0.011-0.14l0.009-0.133l0.008-0.127l0.006-0.115l0.004-0.111
		l0.004-0.102l0.001-0.093v-0.079l-0.002-0.189l-0.005-0.106l-0.028-0.009l-0.062-0.018l-0.478-0.162l-0.471-0.199l-0.452-0.243
		l-0.42-0.297l-0.292,2.083l-0.049,0.339l-0.047,0.328l-0.046,0.325l-0.044,0.318l-0.044,0.317l-0.042,0.312l-0.042,0.309L75,127.01
		l-0.04,0.302l-0.038,0.293l-0.037,0.289l-0.035,0.289l-0.035,0.28l-0.032,0.275l-0.032,0.271l-0.031,0.272l-0.03,0.267
		l-0.028,0.249l-0.026,0.234l-0.023,0.222l-0.022,0.208l-0.02,0.195l-0.018,0.18l-0.007,0.079l0.134,0.011l0.257,0.038l0.261,0.058
		l0.265,0.082l0.263,0.105l0.264,0.139l0.274,0.184L76.405,131.656L76.405,131.656z M31.407,116.545l-0.062-0.159l-0.064-0.156
		l-0.067-0.151l-0.069-0.147l-0.071-0.145l-0.073-0.141l-0.076-0.136l-0.077-0.132l-0.08-0.126l-0.083-0.124l-0.079-0.113
		l-0.181-0.238l-0.175-0.207l-0.179-0.187l-0.185-0.172l-0.188-0.153l-0.194-0.141l-0.201-0.126l-0.208-0.112l-0.216-0.099
		l-0.228-0.087l-0.238-0.075l-0.25-0.062l-0.264-0.051l-0.279-0.035l-0.294-0.022l-0.314-0.008l-0.309,0.006l-0.276,0.017
		l-0.235,0.026l-0.19,0.03l-0.145,0.035l-0.096,0.03l-0.015,0.007l-0.01,0.014l-0.057,0.097l-0.074,0.154l-0.083,0.212l-0.086,0.265
		l-0.09,0.327l-0.063,0.264l-0.068,0.289l-0.068,0.297l-0.067,0.306l-0.067,0.312l-0.067,0.322l-0.066,0.33l-0.066,0.337
		l-0.065,0.346l-0.065,0.354l-0.064,0.361l-0.064,0.369l-0.064,0.377l-0.063,0.385l-0.063,0.395l-0.063,0.403l-0.031,0.204
		l-0.032,0.207l-0.031,0.209l-0.031,0.207l-0.031,0.214l-0.031,0.214l-0.031,0.217l-0.031,0.216l-0.03,0.22l-0.031,0.222
		l-0.031,0.225l-0.03,0.226l-0.03,0.228l-0.039,0.295l-0.052,0.397l-0.059,0.472l-0.03,0.24l-0.03,0.239l-0.029,0.244l-0.029,0.246
		l-0.029,0.246l-0.03,0.247l-0.028,0.249l-0.029,0.253l-0.029,0.257l-0.029,0.254l-0.028,0.258l-0.029,0.262l-0.028,0.262
		l-0.029,0.264l-0.041,0.394l-0.02,0.194l-0.02,0.192l-0.019,0.188l-0.018,0.188l-0.018,0.188l-0.017,0.182l-0.016,0.183
		l-0.016,0.181l-0.014,0.178l-0.014,0.175l-0.012,0.172l-0.012,0.172l-0.011,0.17l-0.011,0.173l-0.021,0.335l-0.019,0.305
		l-0.016,0.279l-0.013,0.251l-0.01,0.224l-0.007,0.194l-0.003,0.165l-0.001,0.09v0.007l0.009,0.007l0.012,0.006l0.042,0.021
		l0.055,0.022l0.066,0.023l0.078,0.024l0.088,0.024l0.099,0.022l0.111,0.022l0.123,0.021l0.131,0.019l0.14,0.018l0.15,0.014
		l0.163,0.012l0.17,0.008l0.181,0.004l0.173,0.003l0.438-0.013l0.404-0.033l0.386-0.053l0.369-0.076l0.354-0.096l0.338-0.113
		l0.326-0.135l0.316-0.156l0.306-0.178l0.296-0.197l0.289-0.222l0.282-0.245l0.276-0.271l0.269-0.299l0.262-0.324l0.263-0.366
		l0.119-0.178l0.121-0.191l0.117-0.194l0.114-0.202l0.111-0.207l0.106-0.212l0.103-0.217l0.1-0.225l0.096-0.229l0.092-0.233
		l0.089-0.239l0.085-0.246l0.082-0.25l0.077-0.257l0.074-0.262l0.069-0.271l0.067-0.273l0.062-0.278l0.058-0.284l0.053-0.291
		l0.05-0.298l0.046-0.303l0.041-0.308l0.038-0.315l0.033-0.319l0.028-0.324l0.024-0.332l0.02-0.338l0.016-0.343l0.011-0.348
		l0.007-0.354l0.002-0.36l-0.002-0.259l-0.004-0.252l-0.008-0.246l-0.012-0.246l-0.014-0.239l-0.017-0.233l-0.021-0.228
		l-0.024-0.226l-0.026-0.223l-0.03-0.215l-0.032-0.211l-0.036-0.207L31.809,118l-0.041-0.196l-0.044-0.19l-0.047-0.189l-0.05-0.184
		l-0.051-0.179l-0.054-0.174l-0.058-0.17L31.407,116.545L31.407,116.545z M57.601,130.576l-0.247,0.093l-0.294,0.104l-0.299,0.1
		l-0.302,0.093l-0.304,0.087l-0.308,0.082l-0.312,0.076l-0.315,0.07l-0.317,0.064l-0.321,0.061l-0.325,0.055l-0.328,0.05
		l-0.329,0.044l-0.334,0.038l-0.337,0.033l-0.339,0.028l-0.06,0.004l0.003,0.007l0.048,0.083l0.046,0.07l0.043,0.059l0.042,0.051
		l0.043,0.047l0.043,0.041l0.047,0.037l0.051,0.037l0.054,0.035l0.059,0.032l0.066,0.032l0.074,0.029l0.082,0.029l0.09,0.025
		l0.1,0.024l0.111,0.021l0.12,0.019l0.131,0.013l0.142,0.008l0.153,0.004l0.118-0.002l0.115-0.008l0.112-0.012l0.11-0.016
		l0.109-0.021l0.108-0.023l0.107-0.03l0.118-0.038l0.122-0.044l0.129-0.053l0.146-0.065l0.163-0.08l0.175-0.091l0.188-0.104
		l0.2-0.118l0.212-0.132l0.113-0.074l0.126-0.085l0.138-0.097l0.15-0.108l0.161-0.118l0.172-0.129l0.182-0.141l0.199-0.153
		L57.601,130.576L57.601,130.576z M52.548,124.577l-0.048,0.148l-0.022,0.072l0.044-0.021l0.127-0.063l0.13-0.075l0.133-0.086
		l0.135-0.098l0.138-0.107l0.14-0.121l0.144-0.134l0.145-0.147l0.138-0.149l0.127-0.151l0.116-0.147l0.104-0.147l0.094-0.146
		l0.084-0.146l0.075-0.146l0.065-0.145l0.057-0.146l0.049-0.146l0.042-0.148l0.035-0.149l0.026-0.151l0.02-0.155l0.012-0.159
		l0.004-0.159l-0.003-0.097l-0.04,0.011l-0.051,0.017l-0.054,0.023l-0.061,0.03l-0.06,0.034l-0.066,0.048l-0.082,0.063l-0.093,0.081
		l-0.103,0.101l-0.112,0.119l-0.119,0.14l-0.125,0.155l-0.133,0.179l-0.062,0.09l-0.064,0.097l-0.064,0.101l-0.063,0.104
		l-0.063,0.108l-0.062,0.111l-0.062,0.117l-0.06,0.12l-0.061,0.126l-0.06,0.131l-0.058,0.131l-0.057,0.138l-0.057,0.143
		l-0.056,0.146l-0.056,0.152l-0.055,0.156L52.548,124.577L52.548,124.577z M160.549,117.553l-0.169,0.033l-0.158,0.021l-0.179,0.016
		h-0.19l-0.203-0.016l-0.225-0.037l-0.242-0.068l-0.229-0.098l-0.233-0.127l-0.229-0.172l-0.201-0.195l-0.167-0.217l-0.131-0.215
		l-0.099-0.217l-0.072-0.203l-0.11-0.457l0.09-0.709l0.237-0.5l0.212-0.324l0.224-0.295l0.25-0.304l0.291-0.329l0.332-0.361
		l0.367-0.389l0.174-0.187l0.158-0.177l0.152-0.176l0.148-0.181l0.143-0.183l0.139-0.182l0.132-0.184l0.128-0.188l0.121-0.188
		l0.117-0.189l0.113-0.192l0.107-0.192l0.103-0.193l0.099-0.198l0.094-0.199l0.08-0.185l0.02-0.047l0.027-0.076l0.028-0.086
		l0.03-0.094l0.029-0.104l0.033-0.117l0.033-0.124l0.034-0.133l0.034-0.144l0.035-0.152l0.035-0.161l0.035-0.169l0.036-0.18
		l0.036-0.187l0.035-0.192l0.035-0.197l0.061-0.367l0.076-0.393l0.087-0.375l0.099-0.362l0.111-0.351l0.125-0.337l0.143-0.327
		l0.16-0.315l0.185-0.306l0.209-0.293l0.239-0.279l0.273-0.262l0.307-0.232l0.342-0.2l0.367-0.157l0.363-0.103l0.358-0.062
		l0.341-0.031l0.346-0.002l0.353,0.033l0.349,0.068l0.342,0.104l0.327,0.142l0.339,0.188l0.311,0.234l0.264,0.245l0.236,0.274
		l0.206,0.297l0.17,0.311l0.14,0.316l0.108,0.326l0.083,0.324l0.052,0.291l0.034,0.285l0.018,0.286l0.002,0.287l-0.014,0.287
		l-0.027,0.286l-0.043,0.285l-0.056,0.283l-0.069,0.282l-0.08,0.279l-0.095,0.28l-0.104,0.277l-0.115,0.277l-0.127,0.277
		l-0.139,0.275l-0.146,0.271l-0.153,0.271l-0.166,0.274l-0.175,0.272l-0.185,0.273l-0.194,0.274l-0.203,0.272l-0.212,0.274
		l-0.223,0.273l-0.229,0.275l-0.239,0.274l-0.25,0.277l-0.258,0.276l-0.267,0.277l-0.276,0.28l-0.285,0.28l-0.297,0.285
		l-0.218,0.201l-0.2,0.184l-0.191,0.176l-0.188,0.169l-0.18,0.162l-0.176,0.155l-0.168,0.148l-0.162,0.141l-0.155,0.137
		l-0.149,0.129l-0.146,0.123l-0.141,0.115l-0.136,0.109l-0.131,0.104l-0.128,0.099l-0.113,0.087l-0.22,0.164l-0.241,0.168
		l-0.242,0.154l-0.246,0.141l-0.252,0.128l-0.263,0.111l-0.276,0.098L160.549,117.553L160.549,117.553z M177.3,122.515l-0.002-0.002
		l-0.041-0.076l-0.037-0.067l-0.035-0.062l-0.033-0.061l-0.031-0.053l-0.018-0.028l-0.08-0.124l-0.07-0.102l-0.068-0.086
		l-0.064-0.071l-0.062-0.062l-0.059-0.052l-0.057-0.044l-0.061-0.04l-0.057-0.032l-0.049-0.023l-0.051-0.021l-0.047-0.016
		l-0.044-0.012l-0.048-0.008l-0.051-0.007l-0.051-0.002l-0.084,0.003l-0.004,0.001l0.028,0.041l0.073,0.091l0.094,0.105l0.116,0.115
		l0.139,0.127l0.163,0.137l0.186,0.146l0.209,0.15L177.3,122.515L177.3,122.515z M180.772,124.931l0.106,0.088l0.271,0.233
		l0.256,0.233l0.24,0.234l0.23,0.237l0.217,0.241l0.202,0.242l0.19,0.248l0.174,0.25l0.156,0.25l0.143,0.25l0.133,0.256l0.123,0.264
		l0.112,0.27l0.103,0.272l0.09,0.276l0.082,0.283l0.07,0.287l0.061,0.287l0.051,0.292l0.041,0.298l0.031,0.299l0.022,0.302
		l0.013,0.306l0.006,0.317l-0.013,0.456l-0.034,0.459l-0.059,0.453l-0.082,0.445l-0.107,0.439l-0.133,0.431l-0.156,0.42l-0.184,0.41
		l-0.207,0.397l-0.23,0.386l-0.254,0.37l-0.277,0.355l-0.299,0.34l-0.318,0.324l-0.34,0.309l-0.354,0.289l-0.369,0.275l-0.388,0.26
		l-0.401,0.239l-0.414,0.222l-0.428,0.201l-0.438,0.184l-0.45,0.164l-0.461,0.146l-0.471,0.127l-0.481,0.109l-0.492,0.093
		l-0.502,0.073l-0.513,0.058l-0.521,0.04l-0.531,0.022l-0.538,0.01l-0.437-0.006l-0.428-0.016l-0.424-0.024l-0.418-0.036
		l-0.413-0.047l-0.408-0.059l-0.401-0.066l-0.396-0.079l-0.393-0.09l-0.387-0.101l-0.379-0.113l-0.373-0.123l-0.369-0.135
		l-0.361-0.146l-0.355-0.157l-0.349-0.169l-0.334-0.175l-0.319-0.182l-0.305-0.189l-0.29-0.197l-0.276-0.207l-0.265-0.219
		l-0.251-0.232l-0.234-0.246l-0.218-0.263l-0.2-0.28l-0.18-0.302l-0.152-0.319l-0.123-0.332l-0.093-0.352l-0.057-0.361l-0.017-0.328
		l0.004-0.293l0.01-0.258l0.017-0.254l0.022-0.252l0.029-0.25l0.037-0.248l0.043-0.244l0.053-0.241l0.06-0.238l0.067-0.235
		l0.076-0.232l0.084-0.229l0.094-0.226l0.103-0.223l0.11-0.217l0.125-0.223l0.244-0.382l0.296-0.377l0.339-0.349l0.389-0.311
		l0.436-0.26l0.479-0.194l0.507-0.118l0.539-0.04l0.549,0.056h0.002l-0.055-0.051l-0.24-0.238l-0.229-0.239l-0.216-0.239
		l-0.203-0.24l-0.189-0.246l-0.17-0.24l-0.156-0.24l-0.146-0.245l-0.137-0.251l-0.125-0.254l-0.116-0.258l-0.104-0.266l-0.098-0.27
		l-0.084-0.27l-0.076-0.274l-0.062-0.278l-0.055-0.279l-0.045-0.285l-0.033-0.284l-0.024-0.288l-0.015-0.29l-0.004-0.3l0.01-0.428
		l0.031-0.433l0.056-0.426l0.077-0.421l0.1-0.414l0.124-0.406l0.146-0.398l0.172-0.389l0.191-0.377l0.217-0.365l0.235-0.354
		l0.259-0.34l0.275-0.325l0.296-0.312l0.313-0.299l0.332-0.283l0.349-0.27l0.36-0.252l0.373-0.232l0.387-0.216l0.396-0.196
		l0.407-0.181l0.418-0.159l0.429-0.144l0.437-0.124l0.444-0.107l0.453-0.089l0.463-0.073l0.47-0.056l0.479-0.04l0.485-0.023
		l0.485-0.008l0.199,0.002l0.189,0.004l0.188,0.007l0.188,0.009l0.19,0.011l0.188,0.015l0.188,0.018l0.188,0.02l0.19,0.021
		l0.188,0.022l0.189,0.027l0.188,0.028l0.188,0.03l0.188,0.035l0.188,0.035l0.195,0.04l0.194,0.044l0.187,0.045l0.186,0.045
		l0.188,0.051l0.185,0.051l0.185,0.052l0.185,0.056l0.188,0.058l0.186,0.061l0.184,0.062l0.184,0.063l0.188,0.066l0.186,0.068
		l0.184,0.07l0.184,0.074l0.217,0.088l0.297,0.141l0.273,0.144l0.269,0.157l0.259,0.173l0.25,0.194l0.242,0.224l0.232,0.26
		l0.207,0.3l0.161,0.312l0.12,0.305l0.088,0.301l0.065,0.299l0.046,0.302l0.029,0.305l0.019,0.312l0.006,0.323l-0.009,0.446
		l-0.027,0.434l-0.046,0.422l-0.067,0.412l-0.092,0.399l-0.119,0.392l-0.15,0.383l-0.186,0.373l-0.229,0.359l-0.274,0.342
		l-0.328,0.312l-0.373,0.267l-0.412,0.215l-0.437,0.146l-0.442,0.086L180.772,124.931L180.772,124.931z M170.89,130.466l0.002,0.004
		l0.209,0.409l0.08,0.173l0.061,0.124l0.059,0.117l0.057,0.108l0.051,0.098l0.049,0.088l0.041,0.073l0.033,0.056l0.119,0.191
		l0.11,0.156l0.114,0.143l0.118,0.131l0.123,0.121l0.128,0.109l0.135,0.103l0.141,0.093l0.144,0.081l0.144,0.07l0.137,0.058
		l0.137,0.045l0.132,0.032l0.131,0.024l0.13,0.014l0.139,0.005l0.154-0.005l0.129-0.013l0.102-0.019l0.074-0.02l0.05-0.018
		l0.028-0.015l0.015-0.009l0.001-0.008l-0.048-0.064l-0.075-0.089l-0.1-0.106l-0.123-0.119l-0.147-0.133l-0.17-0.146l-0.192-0.151
		l-0.215-0.161l-0.236-0.17l-0.279-0.19l-0.15-0.104l-0.135-0.096l-0.129-0.091l-0.117-0.084l-0.109-0.078l-0.104-0.074
		l-0.092-0.065l-0.072-0.053l-0.357-0.248l-0.369-0.263L170.89,130.466L170.89,130.466z"/>
	<path fill="#FFFFFF" d="M10.323,135.992c0-0.384,0.101-0.746,0.296-1.082c0.195-0.345,0.457-0.612,0.787-0.808
		c0.182-0.121,0.518-0.27,0.996-0.457c0.478-0.183,0.767-0.392,0.861-0.633c0.128-0.311,0.276-0.848,0.431-1.602
		c0.155-0.76,0.323-1.708,0.491-2.852c0.673-4.373,1.137-7.683,1.393-9.922c0.255-2.24,0.383-3.988,0.383-5.246
		c0-0.66-0.31-1.138-0.929-1.439c-0.235-0.121-0.423-0.215-0.571-0.296c-0.222-0.136-0.404-0.323-0.538-0.578
		c-0.142-0.263-0.209-0.531-0.209-0.821c0-0.895,0.559-1.5,1.668-1.822c1.11-0.322,3.699-0.483,7.769-0.483h4.197
		c2.603,0,4.728,0.262,6.39,0.78c1.655,0.518,3.101,1.357,4.352,2.528c1.09,1.003,1.964,2.4,2.63,4.197
		c0.666,1.802,0.995,3.692,0.995,5.677c0,2.414-0.437,4.688-1.312,6.813c-0.875,2.132-2.146,4.016-3.813,5.657
		c-1.406,1.392-3.074,2.447-5.004,3.16c-1.931,0.721-4.056,1.076-6.383,1.076c-1.157,0-2.657-0.047-4.493-0.142
		c-1.836-0.089-3.101-0.136-3.787-0.136c-0.551,0-1.204,0.008-1.957,0.021c-0.753,0.014-1.231,0.021-1.426,0.021
		c-1.21,0-2.051-0.121-2.515-0.363C10.558,137.002,10.323,136.585,10.323,135.992L10.323,135.992z M33.892,120.979
		c0-3.014-0.605-5.354-1.816-7.035c-1.204-1.682-2.892-2.522-5.058-2.522c-1.069,0-1.836,0.154-2.307,0.464
		c-0.478,0.311-0.847,1.016-1.123,2.119c-0.383,1.547-0.747,3.424-1.083,5.623c-0.343,2.199-0.666,4.729-0.969,7.573
		c-0.114,1.077-0.208,2.079-0.262,3.007c-0.061,0.929-0.094,1.595-0.094,1.998c0,0.686,0.303,1.197,0.908,1.54
		s1.514,0.511,2.717,0.511c2.812,0,5.032-1.184,6.652-3.558C33.078,128.332,33.892,125.09,33.892,120.979L33.892,120.979z
		 M50.27,129.897c0.107,1.461,0.464,2.537,1.083,3.235c0.619,0.693,1.527,1.043,2.725,1.043c0.511,0,1.002-0.081,1.486-0.249
		c0.478-0.16,1.056-0.449,1.722-0.874c0.37-0.235,0.828-0.571,1.379-1.003c0.551-0.437,0.928-0.652,1.123-0.652
		c0.343,0,0.679,0.17,1.009,0.506s0.491,0.691,0.491,1.068c0,0.33-0.108,0.666-0.323,0.995c-0.222,0.337-0.538,0.66-0.955,0.976
		c-1.386,1.057-2.812,1.851-4.298,2.389c-1.486,0.538-3.006,0.809-4.553,0.809c-2.536,0-4.534-0.714-6-2.146
		c-1.467-1.434-2.2-3.383-2.2-5.857c0-1.931,0.397-3.794,1.184-5.584c0.787-1.795,1.89-3.336,3.31-4.619
		c1.183-1.084,2.596-1.938,4.25-2.562c1.648-0.633,3.296-0.949,4.951-0.949c1.971,0,3.518,0.458,4.641,1.373
		c1.124,0.907,1.689,2.159,1.689,3.753c0,2.36-1.137,4.345-3.417,5.952c-2.28,1.602-5.193,2.4-8.724,2.4H50.27V129.897z
		 M54.824,119.614c-0.498,0-0.969,0.142-1.413,0.424c-0.437,0.281-0.881,0.732-1.325,1.352c-0.478,0.666-0.874,1.48-1.204,2.441
		c-0.33,0.956-0.491,1.756-0.491,2.402c0,0.175,0.107,0.314,0.323,0.423c0.215,0.114,0.491,0.169,0.82,0.169
		c1.231,0,2.368-0.545,3.397-1.628c1.029-1.083,1.547-2.302,1.547-3.652c0-0.646-0.142-1.124-0.417-1.446
		C55.786,119.774,55.375,119.614,54.824,119.614L54.824,119.614z M73.556,124.201c-0.262,1.803-0.477,3.431-0.639,4.877
		c-0.168,1.453-0.249,2.348-0.249,2.671c0,0.41,0.067,0.679,0.202,0.812c0.128,0.129,0.384,0.195,0.767,0.195
		c0.054,0,0.134-0.007,0.255-0.021c0.114-0.014,0.208-0.021,0.276-0.021c0.431,0,0.76,0.089,0.982,0.257
		c0.222,0.174,0.336,0.424,0.336,0.746c0,0.424-0.162,0.854-0.491,1.284c-0.33,0.431-0.808,0.841-1.44,1.226
		c-0.921,0.578-1.958,1.041-3.121,1.385c-1.164,0.351-2.24,0.525-3.222,0.525c-0.673,0-1.157-0.143-1.467-0.432
		c-0.309-0.289-0.464-0.753-0.464-1.387c0-0.402,0.168-1.521,0.511-3.35c0.343-1.822,0.619-3.363,0.827-4.606
		c0.498-3.21,0.881-5.96,1.15-8.261s0.41-3.976,0.41-5.023c0-0.827-0.074-1.372-0.208-1.635c-0.142-0.264-0.451-0.471-0.935-0.612
		c-0.067-0.026-0.148-0.054-0.235-0.081c-1.016-0.314-1.521-0.732-1.521-1.257c0-0.356,0.134-0.693,0.396-1.003
		c0.263-0.315,0.639-0.585,1.144-0.813c1.285-0.612,2.63-1.11,4.036-1.493c1.406-0.384,2.549-0.572,3.43-0.572
		c0.404,0,0.726,0.143,0.962,0.432c0.235,0.289,0.356,0.673,0.356,1.145c0,0.234-0.074,0.86-0.215,1.869
		c-0.094,0.659-0.168,1.19-0.222,1.602L73.556,124.201L73.556,124.201z M87.796,110.647c0,0.97-0.451,1.804-1.345,2.502
		c-0.895,0.693-1.978,1.043-3.255,1.043c-1.11,0-1.978-0.248-2.61-0.746s-0.948-1.178-0.948-2.031c0-1.076,0.45-1.964,1.352-2.664
		c0.901-0.706,2.052-1.057,3.451-1.057c1.009,0,1.823,0.271,2.435,0.814C87.486,109.054,87.796,109.767,87.796,110.647
		L87.796,110.647z M77.471,136.322c0-0.403,0.208-1.688,0.625-3.841c0.208-1.076,0.37-1.938,0.484-2.584
		c0.262-1.433,0.464-2.696,0.599-3.799c0.134-1.104,0.202-1.938,0.202-2.502c0-0.674-0.074-1.139-0.222-1.399
		c-0.147-0.263-0.484-0.472-1.009-0.612c-0.041-0.014-0.087-0.025-0.134-0.04c-1.083-0.33-1.628-0.772-1.628-1.339
		c0-0.41,0.229-0.801,0.693-1.178c0.458-0.369,1.164-0.746,2.125-1.109c1.21-0.479,2.375-0.841,3.498-1.104s2.038-0.396,2.751-0.396
		c0.39,0,0.713,0.143,0.962,0.418s0.377,0.632,0.377,1.082c0,0.249-0.121,1.083-0.364,2.502c-0.249,1.42-0.45,2.678-0.605,3.78
		c-0.29,1.958-0.518,3.612-0.68,4.958c-0.168,1.345-0.249,2.199-0.249,2.556c0,0.431,0.067,0.713,0.208,0.849
		c0.135,0.127,0.404,0.194,0.793,0.194c0.054,0,0.141-0.007,0.269-0.021s0.215-0.021,0.269-0.021c0.471,0,0.821,0.088,1.056,0.256
		c0.229,0.176,0.343,0.424,0.343,0.747c0,0.423-0.168,0.841-0.504,1.257c-0.336,0.41-0.821,0.814-1.467,1.211
		c-0.988,0.592-2.051,1.063-3.201,1.42s-2.187,0.531-3.101,0.531c-0.727,0-1.251-0.147-1.587-0.443
		C77.638,137.397,77.471,136.94,77.471,136.322L77.471,136.322z M89.007,130.021c0-1.775,0.343-3.498,1.022-5.166
		c0.687-1.668,1.648-3.135,2.899-4.393c1.244-1.277,2.704-2.268,4.372-2.979c1.668-0.707,3.356-1.063,5.065-1.063
		c1.856,0,3.35,0.458,4.485,1.379c1.137,0.923,1.703,2.134,1.703,3.626c0,1.131-0.304,2.031-0.908,2.704
		c-0.605,0.666-1.406,1.002-2.401,1.002c-0.937,0-1.636-0.222-2.099-0.673c-0.465-0.443-0.701-1.123-0.701-2.023
		c0-0.162,0.021-0.396,0.062-0.721c0.041-0.322,0.062-0.572,0.062-0.738c0-0.392-0.127-0.722-0.377-0.977
		c-0.248-0.256-0.564-0.384-0.941-0.384c-1.372,0-2.542,0.888-3.512,2.67c-0.975,1.782-1.459,4.009-1.459,6.692
		c0,1.77,0.31,3.08,0.936,3.929c0.625,0.848,1.594,1.271,2.905,1.271c0.512,0,1.009-0.08,1.487-0.249
		c0.478-0.161,1.056-0.45,1.722-0.874c0.369-0.234,0.827-0.572,1.379-1.003c0.552-0.437,0.928-0.651,1.123-0.651
		c0.343,0,0.68,0.168,1.009,0.504c0.33,0.337,0.491,0.693,0.491,1.07c0,0.329-0.106,0.666-0.323,0.994
		c-0.222,0.338-0.537,0.66-0.955,0.977c-1.379,1.056-2.812,1.85-4.298,2.388c-1.485,0.538-3,0.808-4.554,0.808
		c-2.543,0-4.547-0.72-6.006-2.158C89.733,134.54,89.007,132.556,89.007,130.021L89.007,130.021z M123.565,134.533
		c0.889-1.735,1.547-3.343,1.979-4.836c0.424-1.493,0.639-2.946,0.639-4.365c0-1.185-0.35-2.496-1.049-3.942
		c-0.705-1.445-1.057-2.347-1.057-2.697c0-0.604,0.27-1.103,0.801-1.492c0.531-0.383,1.204-0.578,2.018-0.578
		c1.062,0,1.877,0.505,2.437,1.507c0.558,1.009,0.834,2.47,0.834,4.386c0,2.139-0.337,4.398-1.003,6.78
		c-0.672,2.374-1.614,4.634-2.818,6.772c-1.789,3.142-3.847,5.568-6.168,7.285c-2.326,1.715-4.722,2.568-7.189,2.568
		c-1.856,0-3.315-0.431-4.379-1.292c-1.062-0.86-1.594-2.03-1.594-3.519c0-0.98,0.281-1.81,0.854-2.469
		c0.572-0.664,1.265-0.994,2.085-0.994c0.813,0,1.46,0.256,1.95,0.76c0.484,0.505,0.727,1.178,0.727,2.018
		c0,0.182-0.02,0.444-0.066,0.774c-0.047,0.336-0.073,0.592-0.073,0.76c0,0.235,0.12,0.438,0.356,0.599
		c0.234,0.168,0.523,0.25,0.866,0.25c1.144,0,2.166-0.479,3.074-1.439c0.907-0.955,1.358-2.059,1.358-3.311
		c0-0.914-0.315-2.435-0.955-4.539c-0.633-2.105-1.486-4.394-2.549-6.849c-0.802-1.862-1.427-3.062-1.877-3.592
		c-0.457-0.531-0.97-0.802-1.548-0.802c-0.079,0-0.209,0.015-0.377,0.041c-0.168,0.027-0.315,0.041-0.43,0.041
		c-0.357,0-0.64-0.082-0.861-0.25c-0.216-0.16-0.323-0.375-0.323-0.639c0-0.484,0.202-1.002,0.612-1.547
		c0.403-0.545,0.981-1.083,1.729-1.607c0.713-0.512,1.467-0.914,2.267-1.211c0.801-0.295,1.515-0.443,2.126-0.443
		c1.13,0,2.327,1.48,3.585,4.445C120.81,124.067,122.147,128.547,123.565,134.533L123.565,134.533z M147,134.493
		c-1.17,1.115-2.487,1.99-3.946,2.615c-1.468,0.633-2.894,0.949-4.285,0.949c-1.567,0-2.771-0.472-3.613-1.406
		c-0.84-0.941-1.258-2.293-1.258-4.057c0-1.271,0.217-3.033,0.641-5.285c0.431-2.254,0.639-3.828,0.639-4.724
		c0-0.329-0.047-0.563-0.154-0.699c-0.107-0.142-0.35-0.282-0.727-0.424c-0.066-0.026-0.168-0.067-0.297-0.121
		c-0.719-0.262-1.082-0.651-1.082-1.177c0-0.396,0.175-0.747,0.531-1.057c0.355-0.31,0.947-0.625,1.775-0.955
		c1.452-0.578,2.604-0.988,3.443-1.237s1.486-0.377,1.93-0.377c0.619,0,1.077,0.169,1.373,0.505
		c0.297,0.329,0.443,0.861,0.443,1.581c0,1.002-0.296,2.858-0.889,5.569c-0.592,2.709-0.887,4.854-0.887,6.43
		c0,0.922,0.141,1.588,0.416,2.005c0.275,0.41,0.727,0.618,1.358,0.618c1.426,0,2.522-0.739,3.271-2.219
		c0.746-1.475,1.338-4.226,1.769-8.247c0.041-0.363,0.088-0.888,0.142-1.554c0.114-1.567,0.344-2.537,0.674-2.92
		c0.321-0.377,1.016-0.746,2.063-1.09c1.049-0.35,2.085-0.523,3.094-0.523c0.593,0,1.017,0.101,1.271,0.303
		c0.257,0.208,0.385,0.538,0.385,0.995c0,0.274-0.128,1.19-0.385,2.729c-0.254,1.549-0.463,2.879-0.618,4.01
		c-0.235,1.621-0.425,3.095-0.558,4.42c-0.143,1.324-0.209,2.179-0.209,2.562c0,0.417,0.066,0.706,0.209,0.854
		c0.133,0.154,0.39,0.229,0.752,0.229c0.067,0,0.17-0.007,0.297-0.021c0.135-0.014,0.234-0.02,0.315-0.02
		c0.289,0,0.505,0.061,0.64,0.188c0.142,0.121,0.209,0.316,0.209,0.58c0,0.463-0.148,0.9-0.444,1.324
		c-0.296,0.418-0.746,0.827-1.353,1.217c-0.996,0.66-1.902,1.158-2.718,1.487c-0.813,0.336-1.521,0.505-2.104,0.505
		c-0.618,0-1.076-0.223-1.365-0.674C147.458,136.94,147.209,135.974,147,134.493L147,134.493z M160.146,115.78
		c-0.172,0.035-0.304,0.033-0.403-0.016c-0.101-0.049-0.159-0.137-0.188-0.271c-0.037-0.173,0.454-0.789,1.48-1.859
		c1.025-1.069,1.816-2.252,2.365-3.542c0.217-0.537,0.428-1.384,0.631-2.55c0.291-1.938,0.886-3.007,1.759-3.192
		c0.528-0.111,0.974-0.045,1.354,0.193c0.375,0.251,0.617,0.641,0.733,1.188c0.197,0.932-0.041,2.023-0.724,3.252
		c-0.672,1.227-1.764,2.552-3.266,3.975c-1.1,1.016-1.902,1.718-2.431,2.109C160.942,115.472,160.502,115.705,160.146,115.78
		L160.146,115.78z M173.604,134.91c0.752,0,1.338-0.183,1.754-0.545c0.425-0.356,0.634-0.868,0.634-1.527
		c0-0.72-0.794-1.614-2.388-2.677c-0.377-0.264-0.674-0.479-0.89-0.633c-1.989-1.365-3.315-2.528-3.955-3.479
		c-0.646-0.953-0.969-2.058-0.969-3.302c0-1.87,0.72-3.392,2.166-4.567s3.344-1.763,5.696-1.763c0.883,0,1.764,0.095,2.65,0.283
		c0.889,0.194,1.77,0.471,2.65,0.841c0.619,0.275,1.021,0.564,1.204,0.867c0.182,0.303,0.274,0.808,0.274,1.514
		c0,1.029-0.154,1.816-0.464,2.367c-0.31,0.552-0.761,0.827-1.353,0.827c-0.611,0-1.156-0.423-1.614-1.265
		c-0.142-0.275-0.262-0.49-0.356-0.646c-0.315-0.518-0.679-0.9-1.103-1.163c-0.417-0.263-0.875-0.396-1.358-0.396
		c-0.593,0-1.069,0.16-1.427,0.482c-0.362,0.323-0.545,0.754-0.545,1.292c0,0.867,0.802,1.81,2.408,2.818
		c0.289,0.175,0.505,0.309,0.646,0.417c1.957,1.23,3.248,2.326,3.875,3.281c0.625,0.949,0.935,2.119,0.935,3.498
		c0,2.024-0.78,3.646-2.349,4.862c-1.561,1.226-3.651,1.837-6.281,1.837c-2.1,0-3.922-0.391-5.469-1.171
		c-1.541-0.78-2.313-1.647-2.313-2.596c0-1.164,0.222-2.134,0.673-2.894c0.443-0.76,0.995-1.144,1.646-1.144
		c0.565,0,1.063,0.442,1.48,1.339c0.194,0.424,0.369,0.753,0.512,0.988c0.409,0.693,0.936,1.244,1.586,1.648
		C172.218,134.708,172.896,134.91,173.604,134.91L173.604,134.91z"/>
	<path fill="#2E3192" d="M179.528,112.168v-2.703h1.197c0.241,0,0.424,0.024,0.551,0.073c0.125,0.049,0.225,0.134,0.301,0.257
		c0.074,0.123,0.111,0.259,0.111,0.407c0,0.191-0.062,0.354-0.187,0.484s-0.315,0.215-0.576,0.252
		c0.097,0.045,0.167,0.09,0.218,0.135c0.104,0.096,0.203,0.216,0.297,0.357l0.47,0.736h-0.45l-0.357-0.562
		c-0.104-0.162-0.189-0.285-0.258-0.371s-0.128-0.146-0.182-0.182c-0.055-0.035-0.107-0.059-0.163-0.072
		c-0.041-0.008-0.106-0.013-0.199-0.013h-0.415v1.2L179.528,112.168L179.528,112.168z M179.886,110.658h0.77
		c0.162,0,0.291-0.019,0.384-0.052s0.162-0.088,0.21-0.162s0.072-0.154,0.072-0.242c0-0.128-0.047-0.232-0.141-0.314
		c-0.092-0.082-0.238-0.123-0.438-0.123h-0.854v0.894H179.886z"/>
	<path fill="#2E3192" d="M180.571,108.094L180.571,108.094L180.571,108.094c0.752,0.003,1.433,0.308,1.925,0.8
		c0.491,0.49,0.796,1.17,0.796,1.92h0.001v0.004l0,0h-0.001c0,0.752-0.305,1.434-0.798,1.926c-0.491,0.49-1.171,0.795-1.921,0.796
		v0.001h-0.002h-0.002v-0.001c-0.752-0.001-1.432-0.306-1.924-0.798s-0.797-1.172-0.797-1.922l0,0v-0.002v-0.002l0,0
		c0-0.75,0.305-1.432,0.797-1.924l0,0c0.492-0.492,1.172-0.795,1.922-0.797v-0.001H180.571L180.571,108.094z M180.571,108.644v0.002
		l0,0h-0.004v-0.002c-0.598,0.002-1.139,0.244-1.531,0.639h-0.001c-0.394,0.393-0.638,0.936-0.638,1.533h0.002v0.002v0.002h-0.002
		c0.002,0.599,0.244,1.141,0.638,1.533c0.394,0.394,0.937,0.637,1.534,0.638v-0.003h0.002h0.002v0.003
		c0.598-0.001,1.141-0.244,1.533-0.638c0.394-0.394,0.637-0.936,0.637-1.535h-0.001l0,0v-0.004h0.001
		c-0.001-0.598-0.244-1.14-0.637-1.532C181.714,108.888,181.171,108.646,180.571,108.644L180.571,108.644z"/>
</g>
</svg>
