<?xml version="1.0" encoding="utf-8"?>
<!-- Generator: Adobe Illustrator 16.0.0, SVG Export Plug-In . SVG Version: 6.00 Build 0)  -->
<!DOCTYPE svg PUBLIC "-//W3C//DTD SVG 1.1//EN" "http://www.w3.org/Graphics/SVG/1.1/DTD/svg11.dtd">
<svg version="1.1" id="Layer_1" xmlns="http://www.w3.org/2000/svg" xmlns:xlink="http://www.w3.org/1999/xlink" x="0px" y="0px"
	 width="305.035px" height="305.035px" viewBox="247.543 147.826 305.035 305.035"
	 enable-background="new 247.543 147.826 305.035 305.035" xml:space="preserve">
<g>
	<polygon points="454.773,155.14 345.344,155.14 254.154,246.33 254.154,355.759 345.344,446.95 454.773,446.95 545.964,355.759 
		545.964,246.33 	"/>
	<circle fill="#FFFFFF" cx="398.225" cy="297.756" r="58.223"/>
	<g>
		<path fill="#FFFFFF" d="M456.88,148.826H343.24l-94.697,94.698v113.639l94.697,94.698h113.64l94.698-94.698V243.524
			L456.88,148.826z M535.795,351.244l-84.834,84.834H349.158l-84.832-84.834V249.443l84.832-84.834h101.803l84.834,84.834V351.244z"
			/>
		<path d="M456.88,147.826H342.826l-95.283,95.284v114.467l95.283,95.284h114.468l95.284-95.284V243.11l-95.284-95.284H456.88z
			 M456.466,149.826c0.58,0.581,93.532,93.532,94.112,94.112c0,0.819,0,111.992,0,112.811c-0.58,0.58-93.532,93.532-94.112,94.112
			c-0.818,0-111.992,0-112.812,0c-0.58-0.58-93.531-93.532-94.111-94.112c0-0.819,0-111.991,0-112.811
			c0.581-0.58,93.531-93.532,94.111-94.112C344.474,149.826,455.646,149.826,456.466,149.826z"/>
		<path d="M450.961,163.609H348.744l-85.418,85.42v102.629l85.418,85.42h102.631l85.42-85.42V249.029l-85.42-85.42H450.961z
			 M450.547,165.609c0.58,0.58,83.668,83.668,84.248,84.248c0,0.818,0,100.154,0,100.973c-0.58,0.579-83.668,83.668-84.248,84.248
			c-0.818,0-100.156,0-100.975,0c-0.58-0.58-83.667-83.669-84.246-84.248c0-0.818,0-100.154,0-100.973
			c0.58-0.58,83.667-83.668,84.246-84.248C350.391,165.609,449.729,165.609,450.547,165.609z"/>
	</g>
	<g>
		<path fill="#FFFFFF" d="M443.395,178.874c-0.51,0.88-3.119,7.493-3.876,8.592c-0.757,1.102-1.993,1.65-3.42,1.65
			s-72.09-0.197-74.183-0.335c-2.092-0.138-3.21-0.553-3.843-1.72c-0.629-1.163-3.593-7.731-3.872-8.311
			c-0.279-0.576,0.103-1.745,1.816-1.813c1.709-0.07,84.109,0,85.634,0C443.172,176.938,443.904,177.992,443.395,178.874z"/>
		<path fill="#FFFFFF" d="M427.697,217.384c-0.511,0.882-2.681,7.125-3.437,8.225c-0.753,1.1-1.994,1.65-3.42,1.65
			c-1.427,0-41.051,0.063-43.143-0.072c-2.093-0.138-3.21-0.553-3.839-1.72c-0.634-1.164-3.107-7.625-3.388-8.204
			c-0.279-0.58,0.1-1.747,1.812-1.814c1.714-0.068,52.144,0,53.664,0C427.472,215.448,428.203,216.502,427.697,217.384z"/>
		<path fill="#FFFFFF" d="M393.745,195.923c-1.185,0.004-28.75-0.002-29.52,0.026c-1.71,0.066-2.092,1.182-1.812,1.737
			c0.279,0.553,2.659,6.751,3.292,7.865c0.629,1.116,1.747,1.515,3.839,1.644c0.904,0.056,23.239,0.183,24.377,0.24
			c1.139,0.058,2.143-0.797,2.102-1.656c-0.041-0.857,0.041-7.479,0-8.257C395.981,196.745,394.929,195.92,393.745,195.923z"/>
		<path fill="#FFFFFF" d="M402.18,197.521c-0.037,0.779,0.041,7.4,0,8.257c-0.037,0.859,0.961,1.714,2.101,1.656
			c1.139-0.057,23.131-0.119,24.034-0.174c2.093-0.13,3.211-0.528,3.839-1.644c0.629-1.114,3.357-7.378,3.638-7.931
			c0.28-0.555-0.104-1.671-1.812-1.737c-0.769-0.029-28.337-0.022-29.521-0.026C403.276,195.92,402.221,196.745,402.18,197.521z"/>
	</g>
	<g>
		<path fill="#FFFFFF" d="M310.104,218.843c-0.752,0.799-26.124,26.122-26.659,26.702c-1.167,1.258-0.645,2.314-0.057,2.511
			c0.587,0.191,6.864,2.963,8.097,3.305c1.237,0.343,2.306-0.165,3.88-1.552c0.711-0.629,22.654-22.559,23.251-23.196
			c0.6-0.641,0.776-2.252,0.196-2.774c-0.578-0.522-4.875-4.928-5.617-5.616C312.451,217.534,310.86,218.043,310.104,218.843z"/>
		<path fill="#FFFFFF" d="M317.552,213.868c0.688,0.744,5.098,5.039,5.619,5.619c0.522,0.578,2.133,0.401,2.771-0.197
			c0.641-0.6,22.194-22.431,22.822-23.143c1.386-1.574,1.896-2.645,1.555-3.88c-0.342-1.233-2.741-7.618-2.935-8.206
			c-0.192-0.588-1.253-1.109-2.511,0.054c-0.575,0.536-25.898,25.91-26.7,26.663C317.375,211.531,316.865,213.124,317.552,213.868z"
			/>
		<path fill="#FFFFFF" d="M353.499,201.287c0.263,0.982,2.848,7.061,3.091,8.372c0.247,1.313-0.238,2.577-1.25,3.586
			c-1.007,1.009-40.524,41.044-42.104,42.427c-1.574,1.385-2.66,1.878-3.931,1.502c-1.27-0.38-7.97-3.12-8.574-3.332
			c-0.608-0.214-1.163-1.307,0-2.565c1.163-1.262,49.087-49.051,50.165-50.127C351.974,200.076,353.235,200.304,353.499,201.287z"/>
		<path fill="#FFFFFF" d="M360.745,220.238c0.263,0.981,2.705,7.049,2.951,8.362c0.247,1.311-0.243,2.575-1.253,3.584
			c-1.008,1.009-28.936,29.394-30.514,30.777c-1.573,1.383-2.658,1.88-3.929,1.498c-1.27-0.378-7.982-3.038-8.59-3.249
			c-0.604-0.212-1.163-1.307,0-2.567c1.163-1.258,37.656-37.464,38.732-38.541C359.22,219.026,360.481,219.256,360.745,220.238z"/>
	</g>
	<g>
		<path fill="#FFFFFF" d="M296.204,304.7c0.004,1.182,0,28.751,0.029,29.516c0.065,1.714,1.18,2.093,1.734,1.813
			c0.554-0.277,6.917-2.221,8.031-2.85c1.114-0.63,1.513-1.75,1.644-3.842c0.055-0.902,0.018-23.679,0.074-24.816
			c0.058-1.139-0.797-2.14-1.657-2.099c-0.854,0.039-7.476-0.041-8.256,0C297.025,302.463,296.204,303.518,296.204,304.7z"/>
		<path fill="#FFFFFF" d="M315.353,304.348c0.017,1.534-0.004,21.409,0.024,22.161c0.066,1.714,1.184,2.093,1.739,1.815
			c0.551-0.28,6.88-2.059,7.994-2.688c1.117-0.629,1.513-1.748,1.644-3.841c0.059-0.86,0.156-16.485,0.111-17.45
			c-0.045-0.964-1.02-1.964-1.878-1.923c-0.855,0.039-7.515-0.041-8.103,0C316.302,302.463,315.333,302.812,315.353,304.348z"/>
		<path fill="#FFFFFF" d="M297.802,296.262c0.781,0.042,7.403-0.039,8.257,0c0.859,0.042,1.715-0.959,1.657-2.098
			c-0.057-1.139-0.021-23.724-0.074-24.626c-0.131-2.092-0.529-3.212-1.644-3.841c-1.114-0.629-7.477-2.762-8.031-3.042
			c-0.555-0.279-1.669,0.103-1.734,1.813c-0.029,0.769-0.025,28.335-0.029,29.517C296.204,295.169,297.025,296.223,297.802,296.262z
			"/>
		<path fill="#FFFFFF" d="M316.886,296.262c0.588,0.042,7.247-0.039,8.103,0c0.858,0.042,1.833-0.959,1.878-1.923
			s-0.054-16.223-0.111-17.084c-0.131-2.092-0.526-3.212-1.644-3.841c-1.114-0.629-7.443-2.772-7.994-3.052
			c-0.556-0.278-1.673,0.101-1.739,1.814c-0.029,0.752-0.008,20.627-0.024,22.162C315.333,295.872,316.302,296.223,316.886,296.262z
			"/>
		<path fill="#FFFFFF" d="M279.154,255.578c0.88,0.51,7.148,2.598,8.25,3.35c1.102,0.756,1.648,1.993,1.648,3.419
			c0,1.428,0.312,72.965,0.177,75.058c-0.136,2.094-0.555,3.212-1.718,3.843c-1.167,0.629-7.9,3.241-8.479,3.521
			c-0.575,0.276-1.743-0.102-1.812-1.814c-0.069-1.713,0-84.109,0-85.632C277.219,255.8,278.275,255.07,279.154,255.578z"/>
	</g>
	<g>
		<path fill="#FFFFFF" d="M318.735,389.175c0.798,0.755,26.12,26.124,26.699,26.661c1.258,1.163,2.318,0.643,2.508,0.056
			c0.196-0.59,2.56-6.82,2.904-8.055c0.337-1.234-0.168-2.308-1.558-3.88c-0.629-0.711-22.146-22.693-22.786-23.294
			c-0.641-0.599-2.252-0.777-2.774-0.197c-0.521,0.579-4.932,4.872-5.614,5.618C317.429,386.828,317.934,388.421,318.735,389.175z"
			/>
		<path fill="#FFFFFF" d="M332.308,375.109c0.839,0.834,20.328,20.334,20.888,20.854c1.258,1.165,2.317,0.645,2.516,0.056
			c0.189-0.587,2.947-6.941,3.288-8.176c0.341-1.231-0.165-2.304-1.554-3.877c-0.601-0.679-16.357-16.276-17.122-17.121
			c-0.766-0.845-2.076-0.952-2.655-0.313c-0.58,0.637-5.318,5.259-5.84,5.838C331.305,372.948,331.469,374.275,332.308,375.109z"/>
		<path fill="#FFFFFF" d="M313.758,381.729c0.744-0.688,5.039-5.096,5.619-5.617c0.575-0.521,0.402-2.131-0.197-2.771
			c-0.6-0.64-22.313-22.415-23.025-23.044c-1.57-1.388-2.643-1.896-3.876-1.554c-1.233,0.345-7.739,2.961-8.331,3.154
			c-0.584,0.192-1.106,1.254,0.062,2.512c0.53,0.576,25.906,25.902,26.659,26.699C311.419,381.908,313.014,382.416,313.758,381.729z
			"/>
		<path fill="#FFFFFF" d="M327.474,368.014c0.576-0.521,5.204-5.259,5.836-5.839c0.638-0.581,0.535-1.891-0.312-2.653
			c-0.843-0.766-16.438-16.519-17.115-17.117c-1.57-1.385-2.643-1.896-3.88-1.555c-1.229,0.344-7.591,3.092-8.179,3.284
			c-0.587,0.195-1.11,1.255,0.054,2.511c0.522,0.563,20.021,20.053,20.855,20.89C325.566,368.373,326.895,368.536,327.474,368.014z"
			/>
		<path fill="#FFFFFF" d="M322.237,336.922c0.981-0.265,7.164-3.154,8.476-3.4c1.312-0.242,2.577,0.244,3.584,1.254
			c1.011,1.01,29.392,29.201,30.776,30.776c1.385,1.574,1.878,2.661,1.5,3.931s-3.749,7.379-3.962,7.984
			c-0.214,0.605-1.304,1.166-2.565,0.002c-1.262-1.162-36.867-36.867-37.944-37.943
			C321.025,338.449,321.255,337.184,322.237,336.922z"/>
	</g>
	<g>
		<path fill="#FFFFFF" d="M404.279,423.361c1.098-0.033,36.948,0.004,37.732-0.026c1.715-0.066,2.094-1.184,1.817-1.737
			c-0.279-0.553-2.367-6.792-2.996-7.906s-1.747-1.514-3.844-1.646c-0.945-0.06-32.361-0.226-33.236-0.197
			c-0.876,0.031-2.138,1.044-2.101,1.821c0.041,0.78-0.037,6.934,0,7.944C401.694,422.628,403.183,423.395,404.279,423.361z"/>
		<path fill="#FFFFFF" d="M395.496,421.614c0.041-1.011-0.041-7.164,0-7.944c0.041-0.777-1.225-1.79-2.1-1.821
			c-0.875-0.027-32.109-0.06-33.059,0c-2.092,0.133-3.21,0.53-3.843,1.646c-0.629,1.115-2.889,7.552-3.169,8.104
			c-0.279,0.555,0.099,1.671,1.812,1.737c0.79,0.03,36.635-0.007,37.731,0.026C393.971,423.395,395.455,422.628,395.496,421.614z"/>
		<path fill="#FFFFFF" d="M362.232,402.461c0.51-0.88,2.347-7.328,3.104-8.426c0.756-1.102,1.993-1.652,3.419-1.652
			s57.2-0.013,59.295,0.123c2.092,0.137,3.21,0.557,3.839,1.719c0.629,1.168,3.271,7.778,3.553,8.355
			c0.274,0.58-0.104,1.747-1.817,1.816c-1.71,0.069-68.124,0-69.649,0C362.455,404.397,361.723,403.341,362.232,402.461z"/>
	</g>
	<g>
		<path fill="#FFFFFF" d="M453.263,415.104c-0.263-0.981-3.439-7.305-3.683-8.614c-0.247-1.313,0.242-2.575,1.249-3.584
			c1.012-1.011,51.838-51.832,53.416-53.214c1.574-1.385,2.664-1.877,3.93-1.502c1.271,0.381,7.633,3.721,8.241,3.933
			c0.604,0.211,1.163,1.308,0,2.565c-1.164,1.258-59.475,59.476-60.552,60.552C454.792,416.316,453.525,416.084,453.263,415.104z"/>
		<path fill="#FFFFFF" d="M444.377,395.723c-0.26-0.981-3.235-7.914-3.478-9.224c-0.242-1.312,0.241-2.577,1.249-3.586
			c1.012-1.009,39.74-39.729,41.314-41.114c1.574-1.383,2.664-1.876,3.93-1.5c1.274,0.381,8.229,3.532,8.833,3.744
			c0.608,0.212,1.163,1.309,0,2.566c-1.158,1.261-48.172,48.172-49.247,49.248C445.905,396.933,444.64,396.703,444.377,395.723z"/>
		<path fill="#FFFFFF" d="M437.13,376.771c-0.263-0.98-3.354-7.375-3.596-8.688c-0.243-1.312,0.242-2.575,1.249-3.585
			c1.012-1.009,28.952-28.942,30.529-30.328c1.574-1.384,2.664-1.879,3.931-1.501c1.27,0.381,7.83,3.514,8.434,3.723
			c0.608,0.213,1.163,1.308,0,2.568c-1.159,1.26-36.868,36.868-37.939,37.943C438.659,377.98,437.394,377.753,437.13,376.771z"/>
	</g>
	<g>
		<path fill="#FFFFFF" d="M482.062,293.729c-0.018-1.533,0-21.41-0.028-22.162c-0.066-1.712-1.181-2.092-1.734-1.812
			c-0.556,0.279-7.247,2.415-8.359,3.043c-1.114,0.631-1.514,1.751-1.646,3.843c-0.053,0.859,0.21,16.126,0.255,17.088
			c0.046,0.966,1.021,1.965,1.875,1.926c0.858-0.039,7.518,0.039,8.102,0C481.11,295.616,482.079,295.262,482.062,293.729z"/>
		<path fill="#FFFFFF" d="M480.525,301.812c-0.584-0.041-7.242,0.041-8.102,0c-0.854-0.041-1.829,0.961-1.875,1.924
			c-0.045,0.966-0.308,16.234-0.255,17.097c0.132,2.092,0.53,3.21,1.646,3.839c1.112,0.631,7.805,2.764,8.359,3.044
			c0.555,0.277,1.668-0.104,1.734-1.817c0.027-0.752,0.012-20.623,0.027-22.158C482.077,302.205,481.109,301.854,480.525,301.812z"
			/>
		<path fill="#FFFFFF" d="M520.892,343.2c-0.884-0.507-7.337-2.677-8.435-3.429c-1.102-0.756-1.652-1.992-1.652-3.42
			s-0.012-73.243,0.124-75.334c0.137-2.094,0.556-3.212,1.719-3.843c1.167-0.629,7.784-2.886,8.363-3.165
			c0.579-0.277,1.747,0.101,1.816,1.814c0.065,1.714,0,84.108,0,85.632C522.827,342.977,521.771,343.708,520.892,343.2z"/>
		<path fill="#FFFFFF" d="M500.903,335.779c-0.879-0.51-7.341-2.616-8.438-3.372c-1.102-0.755-1.652-1.993-1.652-3.421
			c0-1.426-0.136-57.356,0-59.448c0.137-2.092,0.556-3.21,1.719-3.841c1.167-0.631,7.912-2.845,8.492-3.124
			c0.578-0.279,1.746,0.103,1.815,1.812c0.069,1.714,0,68.126,0,69.647C502.84,335.557,501.783,336.287,500.903,335.779z"/>
	</g>
	<g>
		<path fill="#FFFFFF" d="M481.216,210.302c-0.797-0.754-26.12-26.126-26.694-26.663c-1.259-1.166-2.318-0.642-2.513-0.056
			c-0.191,0.59-3.177,6.663-3.521,7.894c-0.341,1.235,0.169,2.308,1.554,3.88c0.629,0.711,22.771,22.857,23.412,23.455
			c0.637,0.6,2.248,0.777,2.771,0.198c0.521-0.58,4.933-4.875,5.618-5.617C482.527,212.647,482.018,211.056,481.216,210.302z"/>
		<path fill="#FFFFFF" d="M467.645,224.365c-0.839-0.834-20.328-20.331-20.889-20.853c-1.257-1.164-2.316-0.644-2.511-0.054
			c-0.193,0.588-2.778,7.041-3.124,8.274c-0.341,1.233,0.169,2.306,1.554,3.88c0.604,0.674,16.19,16.174,16.959,17.019
			c0.766,0.847,2.075,0.949,2.65,0.316c0.58-0.637,5.318-5.261,5.841-5.841C468.646,226.527,468.482,225.202,467.645,224.365z"/>
		<path fill="#FFFFFF" d="M454.356,238.155c-1.099-1.075-15.14-15.14-15.688-15.654c-1.258-1.163-2.318-0.643-2.512-0.053
			c-0.193,0.587-3.111,6.729-3.453,7.963c-0.345,1.235,0.169,2.306,1.554,3.878c0.567,0.649,11.246,11.354,11.961,12.004
			c0.711,0.651,2.108,0.67,2.685,0.037c0.58-0.637,5.344-5.288,5.729-5.728C455.014,240.161,455.453,239.226,454.356,238.155z"/>
		<path fill="#FFFFFF" d="M486.193,217.748c-0.744,0.687-5.039,5.095-5.614,5.617c-0.58,0.522-0.403,2.133,0.192,2.772
			c0.601,0.639,22.221,22.254,22.932,22.883c1.574,1.387,2.646,1.895,3.88,1.554c1.231-0.343,7.83-2.801,8.417-2.995
			c0.588-0.193,1.11-1.253-0.053-2.511c-0.534-0.577-25.911-25.9-26.663-26.7C488.532,217.569,486.938,217.059,486.193,217.748z"/>
		<path fill="#FFFFFF" d="M472.48,231.461c-0.578,0.522-5.206,5.261-5.84,5.84c-0.638,0.578-0.529,1.889,0.316,2.653
			c0.843,0.765,16.604,16.617,17.279,17.22c1.573,1.385,2.646,1.895,3.88,1.551c1.231-0.341,7.423-3.189,8.011-3.385
			c0.592-0.195,1.109-1.253-0.054-2.509c-0.521-0.563-20.021-20.053-20.852-20.892C474.385,231.104,473.058,230.939,472.48,231.461z
			"/>
		<path fill="#FFFFFF" d="M458.984,244.957c-0.44,0.384-5.094,5.148-5.727,5.728c-0.633,0.575-0.616,1.973,0.032,2.686
			c0.649,0.713,11.094,11.128,11.743,11.695c1.574,1.385,2.643,1.899,3.88,1.554c1.233-0.343,7.637-2.994,8.225-3.188
			c0.593-0.195,1.109-1.253-0.054-2.511c-0.514-0.551-14.578-14.593-15.651-15.688C460.361,244.133,459.424,244.573,458.984,244.957
			z"/>
	</g>
	<g>
		<path fill="#FFFFFF" d="M374,378.725c0-0.24-0.01-2.723-0.058-3.043c1.55,0,2.829,0.034,3.888,0.172
			c3.393,0.438,3.923,2.037,3.923,2.904c0,3.582-4.488,5.057-7.824,5.057c0.047-0.526,0.07-3.362,0.07-3.672L374,378.725
			L374,378.725z M375.975,382.145c1.948-0.229,3.604-1.439,3.604-3.031c0-1.497-1.62-2.002-3.604-1.988V382.145z"/>
		<path fill="#FFFFFF" d="M382.672,383.758c0.018-0.504,0.027-3.18,0.027-3.479v-1.233c0-0.194-0.027-3.089-0.045-3.364h1.601
			c-0.017,0.207-0.045,2.473-0.045,2.678v0.629l2.988-0.217v-0.652c0-0.195-0.018-2.188-0.035-2.438h1.59
			c-0.017,0.275-0.043,3.432-0.043,3.707v1.144c0,0.149,0.019,3.009,0.035,3.227h-1.59c0.016-0.391,0.043-2.321,0.043-2.538v-0.996
			l-2.988,0.217v0.537c0,0.517,0.029,2.519,0.035,2.78L382.672,383.758L382.672,383.758z"/>
		<path fill="#FFFFFF" d="M390.26,383.105c0.469-0.801,3.781-6.623,4.568-7.836h0.083c1.257,1.888,4.262,6.853,4.875,7.733
			L398,384.057c-0.294-0.517-1.151-2.072-1.281-2.242l-3.759,0.17c-0.106,0.229-0.727,1.604-0.986,2.082L390.26,383.105z
			 M396.111,380.544c-0.249-0.481-1.106-2.037-1.283-2.392c-0.234,0.447-1.034,2.059-1.255,2.504L396.111,380.544z"/>
		<path fill="#FFFFFF" d="M401.337,383.758c0.047-0.275,0.022-3.9,0.022-4.141v-0.938c0-0.344-0.022-2.781-0.061-2.998
			c1.188,0,2.562,0.023,3.549,0.148c1.691,0.206,2.608,0.845,2.608,1.874c0,0.952-0.633,1.685-1.562,2.3
			c0.329,0.389,2.256,2.482,2.562,2.812l-1.657,1.238c-0.211-0.32-3.147-3.308-3.489-3.799c0.554-0.296,2.046-1.258,2.046-2.162
			c0-0.537-0.39-1.145-2.046-1.154v3.316c0,0.436,0.035,3.329,0.061,3.5h-2.033V383.758z"/>
		<path fill="#FFFFFF" d="M408.866,383.447c0.145-0.469,0.469-7.069,0.757-8.031h0.832c0.383,0.962,2.257,4.384,2.497,4.968
			c0.304-0.664,1.854-4.245,2.168-4.968l1.165,0.477c0.439,1.387,0.658,6.551,0.93,7.42l-1.429,0.207
			c-0.249-0.892-0.569-3.99-0.666-4.291c-0.177,0.369-1.792,3.121-2.279,4.129h-0.049c-0.56-1.291-1.455-3.604-1.613-4.072h-0.017
			c-0.13,0.538-0.968,4.303-1.096,4.805L408.866,383.447z"/>
		<path fill="#FFFFFF" d="M418.291,382.868c0.469-0.802,3.781-6.624,4.566-7.836h0.082c1.258,1.886,4.267,6.852,4.877,7.731
			l-1.786,1.053c-0.291-0.516-1.152-2.068-1.28-2.241l-3.761,0.173c-0.104,0.229-0.729,1.602-0.986,2.079L418.291,382.868z
			 M424.14,380.307c-0.246-0.481-1.104-2.035-1.281-2.394c-0.234,0.448-1.031,2.06-1.257,2.507L424.14,380.307z"/>
	</g>
</g>
</svg>
