<?xml version="1.0" encoding="utf-8"?>
<!-- Generator: Adobe Illustrator 16.0.0, SVG Export Plug-In . SVG Version: 6.00 Build 0)  -->
<!DOCTYPE svg PUBLIC "-//W3C//DTD SVG 1.1//EN" "http://www.w3.org/Graphics/SVG/1.1/DTD/svg11.dtd">
<svg version="1.1" id="Layer_1" xmlns="http://www.w3.org/2000/svg" xmlns:xlink="http://www.w3.org/1999/xlink" x="0px" y="0px"
	 width="175.748px" height="175.748px" viewBox="8.504 8.504 175.748 175.748" enable-background="new 8.504 8.504 175.748 175.748"
	 xml:space="preserve">
<g>
	<polygon points="8.504,8.504 184.252,8.504 184.252,184.252 8.504,184.252 	"/>
	<path fill="#FFFFFF" d="M85.107,52.211c1.655-6.682,0.253-12.588-5.328-18.111c-6.841-6.77-11.717-19.498-1.19-23.707
		c-1.639,6.351-4.474,11.554,4.35,21.347C89.106,38.585,91.886,46.91,85.107,52.211L85.107,52.211z"/>
	<path fill="#FFF200" d="M54.405,155.678c0.304,0,0.597,0.056,0.875,0.159c0.28,0.104,0.62,0.273,1.018,0.503
		c0.396,0.229,0.637,0.364,0.722,0.412c0.038,0,0.109-0.041,0.219-0.122c0.109-0.08,0.183-0.121,0.221-0.121
		c0.089,0,0.134,0.217,0.134,0.648c0,0.273,0.005,0.783,0.014,1.523c0.009,0.741,0.013,1.142,0.013,1.191
		c0,0.135-0.054,0.216-0.161,0.243c-0.094,0-0.166-0.155-0.214-0.468c-0.054-0.36-0.152-0.731-0.297-1.11
		c-0.145-0.382-0.333-0.736-0.568-1.065c-0.234-0.332-0.518-0.603-0.849-0.814c-0.333-0.21-0.695-0.321-1.086-0.331
		c-0.899,0-1.56,0.5-1.987,1.503c-0.121,0.295-0.224,0.585-0.309,0.872s-0.159,0.679-0.219,1.175c-0.06,0.5-0.097,1.132-0.105,1.902
		c0,0.881,0.097,1.759,0.292,2.623c0.192,0.867,0.485,1.58,0.873,2.135c0.392,0.558,0.863,0.835,1.415,0.835
		c0.449,0,0.88-0.155,1.29-0.47c0.41-0.315,0.615-0.78,0.615-1.396v-0.405c0-0.147-0.004-0.345-0.014-0.584
		c-0.009-0.24-0.013-0.379-0.013-0.412c-0.022-0.308-0.078-0.555-0.167-0.739c-0.087-0.187-0.183-0.317-0.293-0.399
		c-0.107-0.08-0.221-0.131-0.342-0.15c-0.121-0.023-0.201-0.037-0.242-0.045c-0.096-0.014-0.152-0.025-0.172-0.041
		c-0.021-0.017-0.038-0.054-0.058-0.109c-0.02-0.062-0.038-0.105-0.054-0.129c0.027-0.122,0.103-0.186,0.226-0.186H58.2h0.027
		c0.098,0,0.145,0.047,0.145,0.139c0,0.135-0.056,0.242-0.172,0.326c-0.226,0.088-0.374,0.236-0.445,0.438
		c-0.073,0.207-0.125,0.504-0.158,0.896c0.018,0.112,0.027,0.302,0.027,0.571v0.79c0,0.324-0.047,0.588-0.141,0.787
		c-0.094,0.202-0.212,0.361-0.357,0.477c-0.146,0.119-0.342,0.246-0.59,0.381c-0.25,0.14-0.418,0.238-0.505,0.302
		c-0.355,0.239-0.675,0.401-0.957,0.489c-0.282,0.089-0.612,0.162-0.99,0.224c-0.785-0.041-1.438-0.28-1.958-0.72
		c-0.523-0.438-0.961-1.139-1.314-2.098c-0.264-0.75-0.412-1.621-0.442-2.613c0.036-0.463,0.051-0.795,0.051-0.997
		c0.06-1.048,0.264-2.033,0.612-2.958c0.351-0.926,0.818-1.666,1.408-2.223C53.026,155.958,53.681,155.678,54.405,155.678
		L54.405,155.678z M61.73,165.267c0,0.582,0.058,1.047,0.176,1.398c0.119,0.352,0.34,0.574,0.668,0.668
		c0.21,0.07,0.34,0.184,0.389,0.342c0,0.162-0.089,0.243-0.268,0.243c-0.465,0-0.814-0.015-1.048-0.037
		c-0.199,0.015-0.494,0.037-0.885,0.07c-0.389,0.034-0.706,0.051-0.95,0.051c-0.15,0-0.226-0.04-0.226-0.124
		c0-0.188,0.093-0.355,0.281-0.504c0.177-0.125,0.309-0.275,0.394-0.452c0.085-0.176,0.127-0.463,0.127-0.864v-7.682
		c0-0.479-0.085-0.895-0.257-1.253c-0.172-0.356-0.409-0.577-0.711-0.651c-0.013-0.007-0.047-0.014-0.098-0.018
		c-0.051-0.008-0.084-0.02-0.101-0.043c-0.125-0.078-0.188-0.199-0.188-0.365c0-0.111,0.054-0.165,0.161-0.165
		c0.123,0,0.281,0.013,0.478,0.04c0.197,0.03,0.349,0.044,0.46,0.044c0.295,0,0.729-0.032,1.298-0.103
		c0.572-0.066,1.017-0.102,1.339-0.102c0.328,0,0.666,0.059,1.007,0.17c0.344,0.111,0.664,0.29,0.961,0.533
		c0.298,0.243,0.537,0.567,0.72,0.973c0.183,0.406,0.275,0.879,0.275,1.422c0,0.787-0.193,1.47-0.575,2.052
		c-0.094,0.153-0.241,0.323-0.447,0.506c-0.203,0.183-0.311,0.291-0.315,0.324c0,0.095,0.21,0.676,0.63,1.739
		c0.006,0.018,0.131,0.396,0.373,1.135c0.244,0.74,0.467,1.283,0.675,1.632c0.208,0.353,0.46,0.551,0.762,0.603
		c0.107-0.027,0.237-0.041,0.387-0.041c0.013,0.014,0.029,0.036,0.051,0.077c0.021,0.037,0.032,0.091,0.032,0.165
		c0,0.26-0.264,0.512-0.793,0.75c-0.002,0-0.062,0.008-0.184,0.021c-0.118,0.014-0.232,0.02-0.338,0.02
		c-0.326,0-0.621-0.16-0.882-0.482c-0.262-0.32-0.478-0.691-0.646-1.117c-0.17-0.422-0.349-0.942-0.536-1.561
		c-0.355-1.271-0.651-2.014-0.888-2.229c-0.17-0.177-0.479-0.263-0.923-0.263c-0.208,0-0.347,0.127-0.417,0.385
		c0.01,0.01,0.019,0.023,0.027,0.039v2.654H61.73z M62.146,161.478c0.313,0,0.512,0.006,0.602,0.021
		c0.076-0.033,0.273-0.078,0.594-0.128c0.322-0.055,0.564-0.165,0.722-0.338c0.141-0.17,0.239-0.389,0.297-0.662
		c0.061-0.273,0.09-0.527,0.09-0.758c0-0.579-0.09-1.11-0.266-1.594c-0.179-0.479-0.422-0.857-0.733-1.135
		c-0.313-0.273-0.657-0.412-1.037-0.412c-0.457,0-0.684,0.317-0.684,0.956v3.179c0,0.305,0.027,0.522,0.083,0.662
		C61.867,161.406,61.979,161.478,62.146,161.478L62.146,161.478z M69.516,165.063c0,0.68,0.089,1.242,0.268,1.691
		c0.179,0.449,0.474,0.676,0.883,0.676c0.163,0,0.244,0.067,0.244,0.203c0,0.188-0.107,0.283-0.324,0.283H67.59
		c-0.146,0-0.226-0.04-0.244-0.118c0-0.108,0.098-0.235,0.295-0.389c0.266-0.246,0.429-0.552,0.487-0.915
		c0.06-0.365,0.089-1.014,0.089-1.942v-6.093c0-0.604-0.062-1.066-0.19-1.393c-0.127-0.327-0.4-0.522-0.82-0.598
		c-0.143-0.027-0.235-0.063-0.274-0.111c-0.041-0.047-0.061-0.125-0.061-0.229c0-0.136,0.089-0.203,0.271-0.203
		c0.252,0,0.494,0.041,0.722,0.118c0.125-0.027,0.308-0.041,0.552-0.041c0.248-0.013,0.57-0.05,0.967-0.111
		c0.398-0.061,0.642-0.091,0.736-0.091c0.092,0.023,0.15,0.044,0.176,0.067c0.025,0.021,0.038,0.078,0.038,0.176
		c-0.018,0.146-0.069,0.243-0.154,0.29c-0.087,0.052-0.19,0.103-0.311,0.155c-0.12,0.055-0.203,0.143-0.248,0.261
		c-0.069,0.183-0.105,0.5-0.105,0.956V165.063L69.516,165.063z M78.036,165.588c-0.062,0.753-0.264,1.337-0.604,1.753
		c-0.34,0.415-0.76,0.621-1.263,0.621c-0.128,0-0.471-0.027-1.028-0.081c-0.56-0.054-1.104-0.081-1.641-0.081
		c-0.154,0-0.389,0.021-0.699,0.061c-0.313,0.039-0.548,0.059-0.709,0.059c-0.107,0-0.159-0.066-0.159-0.202
		c0.009-0.077,0.023-0.132,0.036-0.159c0.016-0.026,0.038-0.051,0.072-0.07c0.034-0.018,0.079-0.04,0.134-0.071
		c0.197-0.135,0.337-0.344,0.422-0.624c0.085-0.284,0.127-0.764,0.127-1.441v-7.234c0-0.652-0.107-1.104-0.324-1.361
		c-0.072-0.085-0.195-0.146-0.365-0.189c-0.172-0.043-0.317-0.079-0.436-0.117c-0.118-0.037-0.199-0.114-0.244-0.236
		c0.01-0.051,0.019-0.102,0.029-0.154c0.009-0.052,0.025-0.096,0.042-0.125c0.021-0.03,0.049-0.047,0.089-0.047
		c0.172,0,0.407,0.026,0.704,0.08c0.297,0.057,0.523,0.084,0.677,0.084c0.127,0,0.385-0.033,0.771-0.101
		c0.384-0.068,0.653-0.103,0.797-0.103c0.269,0,0.402,0.08,0.402,0.243c0,0.101-0.026,0.168-0.081,0.195
		c-0.053,0.03-0.096,0.048-0.132,0.048c-0.404,0.066-0.605,0.525-0.605,1.378v7.765c0,0.453,0.029,0.834,0.087,1.148
		c0.058,0.312,0.194,0.471,0.411,0.471c0.695-0.024,1.308-0.16,1.835-0.406c0.53-0.25,0.957-0.705,1.287-1.379
		c0.139-0.31,0.233-0.465,0.282-0.465c0.072,0,0.108,0.102,0.108,0.303C78.063,165.334,78.054,165.481,78.036,165.588
		L78.036,165.588z M84.371,165.588c-0.062,0.753-0.264,1.337-0.604,1.753c-0.34,0.415-0.76,0.621-1.263,0.621
		c-0.127,0-0.471-0.027-1.028-0.081c-0.559-0.054-1.104-0.081-1.641-0.081c-0.154,0-0.389,0.021-0.699,0.061
		c-0.313,0.039-0.548,0.059-0.708,0.059c-0.108,0-0.159-0.066-0.159-0.202c0.009-0.077,0.022-0.132,0.036-0.159
		c0.016-0.026,0.038-0.051,0.072-0.07c0.033-0.018,0.078-0.04,0.134-0.071c0.196-0.135,0.337-0.344,0.422-0.624
		c0.084-0.284,0.127-0.764,0.127-1.441v-7.234c0-0.652-0.107-1.104-0.324-1.361c-0.072-0.085-0.195-0.146-0.365-0.189
		c-0.172-0.043-0.317-0.079-0.436-0.117c-0.119-0.037-0.199-0.114-0.244-0.236c0.009-0.051,0.018-0.102,0.029-0.154
		c0.009-0.052,0.024-0.096,0.043-0.125c0.02-0.03,0.049-0.047,0.089-0.047c0.172,0,0.407,0.026,0.704,0.08
		c0.297,0.057,0.523,0.084,0.677,0.084c0.127,0,0.384-0.033,0.771-0.101c0.384-0.068,0.652-0.103,0.798-0.103
		c0.268,0,0.403,0.08,0.403,0.243c0,0.101-0.027,0.168-0.081,0.195c-0.054,0.03-0.096,0.048-0.132,0.048
		c-0.405,0.066-0.605,0.525-0.605,1.378v7.765c0,0.453,0.029,0.834,0.087,1.148c0.058,0.312,0.195,0.471,0.411,0.471
		c0.695-0.024,1.308-0.16,1.835-0.406c0.53-0.25,0.957-0.705,1.288-1.379c0.139-0.31,0.232-0.465,0.282-0.465
		c0.072,0,0.107,0.102,0.107,0.303C84.398,165.334,84.389,165.481,84.371,165.588L84.371,165.588z"/>
	<path fill="#FFF200" d="M88.544,160.369c0.391,0.831,0.985,1.804,1.781,2.915c0.69,1.016,1.131,1.521,1.322,1.521
		c0.135-0.094,0.239-0.332,0.312-0.712c0.072-0.378,0.108-0.764,0.108-1.151c0-0.246-0.032-0.479-0.096-0.702
		c-0.061-0.224-0.156-0.405-0.279-0.548c-0.125-0.143-0.267-0.213-0.426-0.213c-0.083-0.026-0.15-0.055-0.206-0.07
		c-0.053-0.018-0.102-0.04-0.142-0.071c-0.042-0.03-0.083-0.077-0.125-0.138c0.029-0.166,0.072-0.247,0.126-0.247
		c0.021,0,0.167,0.014,0.438,0.041c0.272,0.026,0.506,0.04,0.708,0.04c0.053,0,0.152-0.02,0.296-0.061s0.26-0.062,0.351-0.062
		c0.075,0,0.155,0.022,0.239,0.073c0.087,0.048,0.13,0.119,0.13,0.214c0,0.067-0.081,0.161-0.242,0.28
		c-0.102,0.025-0.152,0.209-0.152,0.547c0,0.529-0.068,1.043-0.205,1.543c-0.043,0.162-0.098,0.361-0.164,0.603
		c-0.066,0.243-0.116,0.452-0.153,0.631c-0.033,0.183-0.053,0.353-0.053,0.507c0.018,0.246,0.171,0.537,0.466,0.871
		c0.294,0.338,0.593,0.547,0.896,0.629c0.207,0.084,0.343,0.125,0.406,0.125c0.097,0,0.235-0.041,0.415-0.121
		c0.178-0.082,0.32-0.123,0.424-0.123c0.135,0,0.203,0.041,0.203,0.119c0,0.345-0.3,0.621-0.902,0.828
		c-0.214,0.102-0.451,0.168-0.714,0.201c-0.322-0.043-0.678-0.135-1.067-0.279c-0.056-0.026-0.176-0.099-0.365-0.209
		c-0.186-0.115-0.343-0.207-0.47-0.273c-0.125-0.067-0.221-0.102-0.282-0.102c-0.625,0.356-1.12,0.617-1.489,0.779
		c-0.366,0.166-0.756,0.246-1.165,0.246c-0.51,0-0.997-0.154-1.463-0.462c-0.465-0.308-0.849-0.769-1.15-1.371
		c-0.303-0.608-0.464-1.328-0.487-2.159c0-0.709,0.093-1.357,0.279-1.941c0.187-0.584,0.458-1.058,0.813-1.418
		c0.012-0.018,0.068-0.07,0.159-0.158c0.091-0.092,0.157-0.176,0.197-0.258c0.04-0.077,0.062-0.186,0.062-0.317
		c0-0.51-0.068-1.009-0.206-1.499c0.065-0.74,0.254-1.345,0.565-1.816c0.309-0.474,0.703-0.736,1.18-0.798
		c0.214,0,0.5,0.091,0.854,0.277c0.355,0.183,0.599,0.293,0.735,0.334c0.019-0.015,0.074-0.058,0.161-0.129
		c0.086-0.07,0.154-0.121,0.205-0.154c0.068,0,0.102,0.224,0.102,0.668c0,0.28,0.03,0.683,0.089,1.206
		c0.057,0.523,0.087,0.926,0.087,1.206c0,0.054-0.051,0.11-0.151,0.162c-0.104-0.166-0.215-0.466-0.336-0.905
		c-0.121-0.438-0.227-0.746-0.313-0.922c-0.195-0.398-0.386-0.699-0.569-0.904c-0.185-0.207-0.439-0.312-0.765-0.312
		c-0.207,0-0.398,0.117-0.567,0.356c-0.171,0.24-0.256,0.527-0.256,0.858c0.036,0.558,0.119,1.022,0.246,1.408
		C88.067,159.335,88.269,159.81,88.544,160.369L88.544,160.369z M87.275,160.994c-0.012-0.077-0.049-0.146-0.108-0.203
		c-0.061-0.058-0.121-0.084-0.185-0.084c-0.224,0-0.411,0.172-0.556,0.513c-0.146,0.346-0.218,0.711-0.218,1.092
		c0,0.599,0.099,1.187,0.296,1.761c0.197,0.577,0.461,1.091,0.792,1.547c0.328,0.456,0.693,0.817,1.091,1.08
		c0.398,0.264,0.782,0.396,1.15,0.396c0.35,0,0.618-0.061,0.809-0.186c0.188-0.125,0.283-0.284,0.283-0.483v-0.202
		c-0.025-0.095-0.09-0.203-0.195-0.316c-0.104-0.115-0.271-0.305-0.502-0.564c-0.23-0.26-0.5-0.604-0.804-1.033
		c-0.305-0.426-0.663-0.979-1.078-1.654c-0.121-0.184-0.267-0.449-0.432-0.809C87.451,161.49,87.336,161.207,87.275,160.994
		L87.275,160.994z"/>
	<path fill="#FFF200" d="M103.549,157.991c-0.017,0.229-0.024,0.595-0.024,1.098c0.009,0.771,0.029,1.633,0.062,2.577
		c0.034,0.949,0.051,1.554,0.051,1.813c0.023,1.104,0.055,1.834,0.098,2.191c0.053,0.379,0.119,0.672,0.205,0.882
		c0.084,0.21,0.162,0.351,0.232,0.419c0.071,0.07,0.197,0.176,0.379,0.317c0.066,0.036,0.184,0.077,0.346,0.11
		c0.158,0.037,0.24,0.115,0.24,0.233c0,0.104-0.043,0.169-0.135,0.199c-0.09,0.028-0.163,0.044-0.223,0.044
		c-0.934,0-1.643-0.016-2.129-0.038c-0.237,0.022-0.562,0.038-0.973,0.038c-0.15,0-0.227-0.055-0.227-0.162
		c0-0.033,0.023-0.074,0.068-0.125s0.098-0.102,0.16-0.152c0.062-0.054,0.117-0.104,0.172-0.147c0.107-0.095,0.211-0.25,0.304-0.478
		c0.093-0.223,0.141-0.488,0.141-0.799c-0.026-0.38-0.043-0.718-0.053-1.016c-0.011-0.293-0.017-0.59-0.019-0.891
		s-0.009-0.592-0.019-0.873c-0.035-0.76-0.06-1.488-0.073-2.182c-0.017-0.695-0.031-1.107-0.046-1.242
		c-0.014-0.133-0.05-0.199-0.11-0.199c-0.013,0-0.054,0.054-0.125,0.162c-0.086,0.365-0.188,0.727-0.307,1.088
		c-0.115,0.361-0.277,0.83-0.482,1.404c-0.203,0.574-0.369,1.063-0.498,1.463c-0.224,0.657-0.465,1.385-0.731,2.172
		c-0.265,0.787-0.46,1.354-0.581,1.694c-0.066,0.189-0.113,0.284-0.143,0.284c-0.172,0-0.414-0.5-0.731-1.5
		c-0.149-0.52-0.297-1.01-0.442-1.462c-0.143-0.453-0.33-1.037-0.562-1.75s-0.422-1.293-0.564-1.743
		c-0.146-0.449-0.295-0.938-0.455-1.465c-0.083-0.261-0.14-0.389-0.173-0.389c-0.055,0-0.086,0.039-0.095,0.117
		c-0.012,0.082-0.017,0.305-0.017,0.676c0,1.889-0.028,3.301-0.085,4.231c0.019,0.747,0.09,1.365,0.209,1.857
		c0.119,0.493,0.378,0.813,0.776,0.959c0.063,0.014,0.116,0.024,0.151,0.03c0.038,0.011,0.075,0.033,0.116,0.078
		c0.039,0.043,0.061,0.107,0.061,0.192c0,0.135-0.102,0.202-0.3,0.202c-0.134,0-0.336-0.026-0.61-0.078
		c-0.276-0.054-0.48-0.077-0.618-0.077c-0.112,0-0.298,0.017-0.55,0.052c-0.252,0.032-0.45,0.053-0.592,0.063
		c-0.171,0-0.257-0.067-0.257-0.203c0-0.081,0.028-0.146,0.087-0.187c0.058-0.041,0.105-0.067,0.143-0.078
		c0.295-0.157,0.502-0.438,0.624-0.84c0.121-0.398,0.197-0.875,0.233-1.43c0.095-2.422,0.143-4.568,0.143-6.438
		c0-0.564-0.104-1.084-0.316-1.562c-0.212-0.477-0.507-0.72-0.888-0.729c-0.114,0-0.198-0.015-0.245-0.037
		c-0.047-0.022-0.083-0.095-0.109-0.206c0-0.162,0.119-0.243,0.354-0.243c0.188,0,0.453-0.007,0.788-0.022
		c0.338-0.015,0.624-0.021,0.859-0.021c0.193,0,0.354,0.055,0.483,0.162c0.067,0.051,0.147,0.213,0.245,0.488
		c0.1,0.277,0.233,0.687,0.4,1.228c0.169,0.537,0.306,0.966,0.411,1.283c0.588,1.743,1.087,3.29,1.499,4.642
		c0.021,0.047,0.058,0.168,0.119,0.361c0.06,0.191,0.112,0.348,0.157,0.462c0.045,0.115,0.098,0.213,0.151,0.294
		c0.106-0.07,0.169-0.139,0.187-0.201c0.082-0.215,0.222-0.604,0.414-1.181c0.191-0.573,0.433-1.296,0.719-2.171
		c0.288-0.875,0.514-1.555,0.678-2.044c0.036-0.101,0.152-0.452,0.352-1.058c0.199-0.602,0.354-1.054,0.469-1.354
		c0.111-0.301,0.221-0.551,0.326-0.75c0.05-0.107,0.164-0.162,0.341-0.162h0.388c0.02-0.014,0.128-0.025,0.325-0.044
		c0.194-0.015,0.331-0.026,0.403-0.037h0.383c0.054,0,0.102,0.041,0.143,0.118c0.04,0.078,0.061,0.159,0.061,0.25
		c0,0.104-0.096,0.159-0.286,0.159c-0.134,0-0.302,0.114-0.513,0.348C103.688,156.911,103.573,157.347,103.549,157.991
		L103.549,157.991z M109.383,158.701h-0.028c-0.01,0-0.022,0.017-0.043,0.047c-0.021,0.026-0.035,0.054-0.045,0.074
		c-0.42,1.253-0.754,2.334-1,3.245c0,0.004-0.021,0.062-0.062,0.166c-0.04,0.102-0.065,0.188-0.081,0.257
		c0.036,0.054,0.068,0.104,0.102,0.147c0.032,0.049,0.067,0.081,0.11,0.103c0.04,0.022,0.093,0.034,0.162,0.034h1.94
		c0.133,0,0.199-0.056,0.199-0.164c0-0.12-0.074-0.422-0.226-0.895c-0.149-0.473-0.259-0.844-0.33-1.111
		c-0.065-0.223-0.142-0.459-0.222-0.709c-0.084-0.25-0.146-0.451-0.192-0.61C109.583,158.972,109.487,158.774,109.383,158.701
		L109.383,158.701z M109.909,155.678c0.083,0,0.447,1.062,1.088,3.183c0.361,1.182,0.605,1.992,0.742,2.429
		c0.133,0.437,0.338,1.099,0.611,1.989c0.275,0.892,0.492,1.584,0.649,2.076c0.155,0.494,0.235,0.739,0.237,0.744
		c0.143,0.756,0.522,1.226,1.146,1.414c0.063,0,0.099,0.067,0.099,0.203c0,0.191-0.043,0.286-0.129,0.286
		c-0.804-0.162-1.455-0.239-1.957-0.239c-0.324,0-0.762,0.051-1.315,0.155c-0.104,0-0.169-0.04-0.197-0.118
		c0.033-0.125,0.103-0.26,0.209-0.402c0.107-0.142,0.212-0.279,0.314-0.418c0.103-0.136,0.169-0.273,0.204-0.416
		c0.02-0.095,0.027-0.154,0.027-0.183c0-0.206-0.037-0.429-0.115-0.668c-0.139-0.662-0.297-1.18-0.477-1.551
		c-0.179-0.371-0.452-0.558-0.82-0.558h-1.871c-0.338,0-0.623,0.276-0.854,0.834c-0.233,0.555-0.367,1.095-0.401,1.619
		c0.039,0.229,0.065,0.377,0.082,0.444c0.092,0.386,0.236,0.628,0.432,0.729c0.197,0.101,0.414,0.168,0.654,0.199
		c0.137,0.029,0.203,0.11,0.203,0.242c0,0.059-0.025,0.111-0.07,0.165c-0.047,0.052-0.08,0.078-0.103,0.078
		c-0.083,0-0.262-0.026-0.536-0.078c-0.275-0.054-0.486-0.077-0.635-0.077c-0.189,0-0.462,0.023-0.811,0.071
		c-0.352,0.047-0.584,0.073-0.703,0.084c-0.073,0-0.127-0.067-0.156-0.202c0.033-0.111,0.066-0.183,0.102-0.21
		c0.035-0.03,0.112-0.062,0.228-0.092c0.254-0.246,0.448-0.55,0.585-0.911c0.162-0.436,0.343-0.977,0.54-1.621
		c0.196-0.646,0.462-1.523,0.793-2.642c0.333-1.114,0.573-1.925,0.729-2.425c0.151-0.5,0.34-1.067,0.562-1.703
		c0.102-0.293,0.227-0.678,0.376-1.151c0.151-0.474,0.267-0.804,0.343-0.996S109.856,155.678,109.909,155.678L109.909,155.678z
		 M115.914,158.076c0,0.53,0.157,0.959,0.469,1.287c0.313,0.323,0.81,0.675,1.485,1.043c0.73,0.401,1.307,0.892,1.732,1.473
		c0.424,0.581,0.637,1.378,0.637,2.396c-0.012,0.627-0.131,1.232-0.356,1.819c-0.226,0.589-0.54,1.067-0.942,1.437
		c-0.398,0.369-0.842,0.554-1.324,0.554c-0.157,0-0.303-0.021-0.434-0.058c-0.132-0.036-0.303-0.098-0.513-0.18
		c-0.209-0.084-0.358-0.138-0.454-0.168c-0.031-0.011-0.133-0.044-0.305-0.099c-0.172-0.058-0.307-0.11-0.409-0.166
		c-0.101-0.054-0.169-0.121-0.2-0.202c-0.027-0.07-0.055-0.236-0.076-0.496c-0.022-0.261-0.055-0.477-0.095-0.654
		c-0.167-0.758-0.269-1.379-0.3-1.864c0.016,0,0.007-0.027-0.028-0.085c0.032-0.063,0.066-0.125,0.101-0.188
		c0.033-0.063,0.065-0.129,0.1-0.192c0.043,0,0.076,0.018,0.094,0.045c0.02,0.029,0.03,0.057,0.035,0.072
		c0.148,0.758,0.369,1.412,0.661,1.967c0.291,0.554,0.61,0.97,0.96,1.246s0.686,0.416,1.008,0.416
		c0.286-0.021,0.547-0.136,0.781-0.346c0.236-0.209,0.424-0.486,0.562-0.834c0.142-0.345,0.221-0.716,0.238-1.111
		c0-0.584-0.158-1.039-0.48-1.375c-0.32-0.33-0.825-0.715-1.519-1.157c-0.393-0.232-0.671-0.408-0.84-0.523
		c-0.167-0.11-0.354-0.28-0.562-0.5c-0.205-0.223-0.4-0.5-0.586-0.838c-0.217-0.411-0.346-0.993-0.383-1.746
		c0.02-0.091,0.027-0.192,0.027-0.3c0.036-0.574,0.157-1.1,0.369-1.571c0.212-0.477,0.488-0.848,0.826-1.12
		c0.34-0.273,0.714-0.412,1.117-0.412c0.192,0,0.364,0.032,0.516,0.102c0.148,0.066,0.378,0.186,0.684,0.354
		c0.307,0.17,0.545,0.273,0.713,0.317c0.258-0.188,0.422-0.283,0.487-0.283c0.046,0,0.081,0.033,0.112,0.101
		c0.031,0.068,0.045,0.136,0.045,0.203c0,0.361,0.027,0.852,0.088,1.463c0.059,0.615,0.096,1.051,0.109,1.311
		c0,0.273-0.037,0.409-0.113,0.409c-0.061,0-0.107-0.027-0.141-0.074c-0.035-0.051-0.061-0.119-0.076-0.202
		c-0.019-0.088-0.035-0.17-0.051-0.251c-0.047-0.463-0.192-0.911-0.438-1.341c-0.245-0.429-0.543-0.771-0.891-1.029
		c-0.348-0.261-0.686-0.389-1.017-0.389c-0.366,0-0.696,0.165-0.989,0.496C116.06,157.157,115.914,157.576,115.914,158.076
		L115.914,158.076z M122.128,158.076c0,0.53,0.157,0.959,0.469,1.287c0.315,0.323,0.811,0.675,1.486,1.043
		c0.729,0.401,1.307,0.892,1.732,1.473c0.425,0.581,0.637,1.378,0.637,2.396c-0.012,0.627-0.131,1.232-0.355,1.819
		c-0.228,0.589-0.541,1.067-0.943,1.437c-0.399,0.369-0.842,0.554-1.324,0.554c-0.157,0-0.303-0.021-0.434-0.058
		c-0.133-0.036-0.304-0.098-0.513-0.18c-0.21-0.084-0.358-0.138-0.454-0.168c-0.031-0.011-0.134-0.044-0.306-0.099
		c-0.171-0.058-0.308-0.11-0.409-0.166c-0.1-0.054-0.169-0.121-0.199-0.202c-0.027-0.07-0.055-0.236-0.076-0.496
		c-0.022-0.261-0.055-0.477-0.096-0.654c-0.167-0.758-0.267-1.379-0.3-1.864c0.019,0,0.007-0.027-0.028-0.085
		c0.033-0.063,0.066-0.125,0.102-0.188c0.033-0.063,0.066-0.129,0.1-0.192c0.043,0,0.076,0.018,0.094,0.045
		c0.019,0.029,0.029,0.057,0.035,0.072c0.149,0.758,0.368,1.412,0.661,1.967c0.29,0.554,0.611,0.97,0.959,1.246
		c0.351,0.276,0.687,0.416,1.009,0.416c0.286-0.021,0.545-0.136,0.78-0.346c0.236-0.209,0.425-0.486,0.563-0.834
		c0.142-0.345,0.22-0.716,0.238-1.111c0-0.584-0.16-1.039-0.48-1.375c-0.321-0.33-0.826-0.715-1.518-1.157
		c-0.394-0.232-0.672-0.408-0.842-0.523c-0.166-0.11-0.354-0.28-0.562-0.5c-0.203-0.223-0.398-0.5-0.586-0.838
		c-0.215-0.411-0.344-0.993-0.383-1.746c0.021-0.091,0.029-0.192,0.029-0.3c0.035-0.574,0.157-1.1,0.368-1.571
		c0.212-0.477,0.487-0.848,0.826-1.12c0.341-0.273,0.714-0.412,1.118-0.412c0.193,0,0.363,0.032,0.515,0.102
		c0.149,0.066,0.378,0.186,0.683,0.354c0.309,0.17,0.545,0.273,0.715,0.317c0.258-0.188,0.422-0.283,0.487-0.283
		c0.046,0,0.081,0.033,0.111,0.101c0.03,0.068,0.046,0.136,0.046,0.203c0,0.361,0.027,0.852,0.088,1.463
		c0.059,0.615,0.096,1.051,0.109,1.311c0,0.273-0.038,0.409-0.114,0.409c-0.06,0-0.106-0.027-0.142-0.074
		c-0.032-0.051-0.06-0.119-0.075-0.202c-0.017-0.088-0.035-0.17-0.05-0.251c-0.049-0.463-0.193-0.911-0.438-1.341
		c-0.245-0.429-0.543-0.771-0.892-1.029c-0.346-0.261-0.686-0.389-1.016-0.389c-0.367,0-0.697,0.165-0.99,0.496
		S122.128,157.576,122.128,158.076L122.128,158.076z M130.685,158.701h-0.027c-0.01,0-0.023,0.017-0.043,0.047
		c-0.021,0.026-0.036,0.054-0.045,0.074c-0.422,1.253-0.756,2.334-1,3.245c0,0.004-0.021,0.062-0.062,0.166
		c-0.04,0.102-0.066,0.188-0.081,0.257c0.035,0.054,0.068,0.104,0.101,0.147c0.033,0.049,0.068,0.081,0.111,0.103
		c0.041,0.022,0.094,0.034,0.161,0.034h1.942c0.131,0,0.197-0.056,0.197-0.164c0-0.12-0.074-0.422-0.225-0.895
		s-0.26-0.844-0.331-1.111c-0.065-0.223-0.141-0.459-0.221-0.709c-0.084-0.25-0.146-0.451-0.192-0.61
		C130.885,158.972,130.789,158.774,130.685,158.701L130.685,158.701z M131.211,155.678c0.082,0,0.447,1.062,1.087,3.183
		c0.362,1.182,0.607,1.992,0.743,2.429c0.133,0.437,0.337,1.099,0.61,1.989c0.277,0.892,0.494,1.584,0.649,2.076
		c0.157,0.494,0.236,0.739,0.238,0.744c0.144,0.756,0.522,1.226,1.146,1.414c0.063,0,0.098,0.067,0.098,0.203
		c0,0.191-0.043,0.286-0.129,0.286c-0.803-0.162-1.454-0.239-1.956-0.239c-0.323,0-0.761,0.051-1.316,0.155
		c-0.104,0-0.168-0.04-0.196-0.118c0.033-0.125,0.103-0.26,0.209-0.402c0.106-0.142,0.213-0.279,0.314-0.418
		c0.104-0.136,0.169-0.273,0.204-0.416c0.019-0.095,0.028-0.154,0.028-0.183c0-0.206-0.039-0.429-0.116-0.668
		c-0.138-0.662-0.298-1.18-0.478-1.551c-0.179-0.371-0.451-0.558-0.82-0.558h-1.87c-0.339,0-0.623,0.276-0.854,0.834
		c-0.232,0.555-0.365,1.095-0.402,1.619c0.041,0.229,0.067,0.377,0.084,0.444c0.091,0.386,0.235,0.628,0.432,0.729
		c0.197,0.101,0.414,0.168,0.654,0.199c0.136,0.029,0.201,0.11,0.201,0.242c0,0.059-0.022,0.111-0.068,0.165
		c-0.047,0.052-0.08,0.078-0.102,0.078c-0.084,0-0.263-0.026-0.535-0.078c-0.277-0.054-0.488-0.077-0.637-0.077
		c-0.189,0-0.462,0.023-0.812,0.071c-0.351,0.047-0.583,0.073-0.702,0.084c-0.074,0-0.126-0.067-0.157-0.202
		c0.033-0.111,0.066-0.183,0.103-0.21c0.037-0.03,0.111-0.062,0.227-0.092c0.255-0.246,0.45-0.55,0.586-0.911
		c0.161-0.436,0.344-0.977,0.54-1.621c0.197-0.646,0.462-1.523,0.793-2.642c0.333-1.114,0.573-1.925,0.728-2.425
		c0.152-0.5,0.342-1.067,0.564-1.703c0.1-0.293,0.227-0.678,0.376-1.151c0.152-0.474,0.267-0.804,0.343-0.996
		S131.158,155.678,131.211,155.678L131.211,155.678z M137.216,158.076c0,0.53,0.157,0.959,0.469,1.287
		c0.313,0.323,0.81,0.675,1.485,1.043c0.729,0.401,1.306,0.892,1.731,1.473c0.427,0.581,0.638,1.378,0.638,2.396
		c-0.013,0.627-0.131,1.232-0.356,1.819c-0.227,0.589-0.539,1.067-0.941,1.437c-0.4,0.369-0.842,0.554-1.325,0.554
		c-0.157,0-0.304-0.021-0.435-0.058c-0.131-0.036-0.301-0.098-0.512-0.18c-0.209-0.084-0.359-0.138-0.455-0.168
		c-0.029-0.011-0.133-0.044-0.304-0.099c-0.172-0.058-0.308-0.11-0.409-0.166c-0.101-0.054-0.169-0.121-0.199-0.202
		c-0.028-0.07-0.056-0.236-0.076-0.496c-0.023-0.261-0.055-0.477-0.096-0.654c-0.166-0.758-0.268-1.379-0.301-1.864
		c0.018,0,0.008-0.027-0.027-0.085c0.032-0.063,0.065-0.125,0.101-0.188c0.032-0.063,0.065-0.129,0.101-0.192
		c0.043,0,0.075,0.018,0.092,0.045c0.02,0.029,0.03,0.057,0.037,0.072c0.148,0.758,0.367,1.412,0.66,1.967
		c0.29,0.554,0.611,0.97,0.959,1.246c0.35,0.276,0.686,0.416,1.01,0.416c0.285-0.021,0.545-0.136,0.779-0.346
		c0.236-0.209,0.426-0.486,0.564-0.834c0.141-0.345,0.219-0.716,0.238-1.111c0-0.584-0.16-1.039-0.481-1.375
		c-0.321-0.33-0.825-0.715-1.519-1.157c-0.394-0.232-0.672-0.408-0.841-0.523c-0.165-0.11-0.354-0.28-0.562-0.5
		c-0.204-0.223-0.399-0.5-0.586-0.838c-0.217-0.411-0.344-0.993-0.383-1.746c0.02-0.091,0.028-0.192,0.028-0.3
		c0.035-0.574,0.157-1.1,0.368-1.571c0.213-0.477,0.488-0.848,0.826-1.12c0.341-0.273,0.714-0.412,1.119-0.412
		c0.191,0,0.363,0.032,0.514,0.102c0.148,0.066,0.378,0.186,0.684,0.354c0.308,0.17,0.545,0.273,0.713,0.317
		c0.258-0.188,0.422-0.283,0.488-0.283c0.045,0,0.081,0.033,0.111,0.101c0.031,0.068,0.046,0.136,0.046,0.203
		c0,0.361,0.028,0.852,0.088,1.463c0.058,0.615,0.095,1.051,0.109,1.311c0,0.273-0.038,0.409-0.114,0.409
		c-0.061,0-0.107-0.027-0.141-0.074c-0.033-0.051-0.061-0.119-0.076-0.202c-0.018-0.088-0.035-0.17-0.051-0.251
		c-0.047-0.463-0.191-0.911-0.438-1.341c-0.246-0.429-0.543-0.771-0.891-1.029c-0.348-0.261-0.686-0.389-1.016-0.389
		c-0.367,0-0.697,0.165-0.99,0.496S137.216,157.576,137.216,158.076L137.216,158.076z"/>
	<path fill="#FAA74A" d="M53.175,67.571v0.261c0.38,0.466,0.655,1.134,0.816,1.987c0.161,0.843,0.239,2.074,0.239,3.683v23.2
		c0,1.89-0.066,3.333-0.196,4.312c-0.13,0.987-0.345,1.898-0.644,2.732v0.165c0.502-0.543,0.848-1.328,1.044-2.347
		c0.196-1.008,0.294-2.937,0.294-5.774V73.929c0-1.948-0.117-3.402-0.357-4.371C54.132,68.599,53.736,67.93,53.175,67.571
		L53.175,67.571z M61.259,66.951l-0.023,0.281c1.433,1.211,2.578,3.537,3.438,6.987c0.859,3.44,1.287,7.471,1.287,12.094
		c0,3.333-0.243,6.328-0.726,9.003c-0.482,2.666-1.177,4.826-2.08,6.473l0.055,0.224c1.146-1.687,1.994-3.867,2.551-6.542
		c0.553-2.684,0.832-5.912,0.832-9.701c0-4.71-0.49-8.789-1.471-12.25C64.139,70.071,62.852,67.881,61.259,66.951L61.259,66.951z
		 M53.783,98.233V74.268c0-1.851-0.074-3.179-0.22-3.973c-0.145-0.794-0.408-1.444-0.792-1.958c-0.2-0.281-0.514-0.514-0.946-0.679
		c-0.436-0.174-0.652-0.571-0.652-1.191c0-0.398,0.063-0.727,0.185-0.969c0.121-0.243,0.286-0.369,0.494-0.369
		c0.067,0,0.369,0.087,0.902,0.271c0.534,0.184,1.032,0.271,1.5,0.271c0.699,0,1.589-0.087,2.672-0.271
		c1.087-0.184,1.829-0.271,2.225-0.271c3.014,0,5.329,1.609,6.946,4.826c1.616,3.217,2.424,7.82,2.424,13.8
		c0,6.454-0.894,11.842-2.684,16.174c-1.79,4.322-4.05,6.483-6.777,6.483c-0.303,0-0.789-0.078-1.468-0.231
		c-0.679-0.146-1.208-0.225-1.593-0.225c-1.334,0-2.503,0.146-3.516,0.427c-0.103,0.021-0.161,0.029-0.185,0.029
		c-0.153,0-0.279-0.088-0.373-0.271c-0.098-0.175-0.145-0.408-0.145-0.699c0-0.58,0.231-1.143,0.69-1.666
		c0.169-0.193,0.298-0.35,0.393-0.483c0.322-0.437,0.553-1.058,0.698-1.86C53.708,100.627,53.783,99.562,53.783,98.233
		L53.783,98.233z M56.636,95.258c0,3.499,0.193,5.757,0.573,6.784c0.384,1.018,1.083,1.53,2.096,1.53
		c1.883,0,3.398-1.579,4.541-4.729c1.141-3.148,1.711-7.364,1.711-12.646c0-5.446-0.616-9.896-1.853-13.344
		c-1.232-3.44-2.833-5.166-4.803-5.166c-0.902,0-1.506,0.329-1.809,0.979c-0.303,0.649-0.456,2.132-0.456,4.438V95.258
		L56.636,95.258z M74.766,74.268v23.199c0,1.668,0.099,2.966,0.299,3.905c0.2,0.932,0.502,1.521,0.911,1.745
		c0.176,0.204,0.435,0.397,0.781,0.571c0.545,0.301,0.816,0.785,0.816,1.443c0,0.436-0.055,0.756-0.162,0.969
		c-0.105,0.203-0.271,0.312-0.494,0.312c-0.105,0-0.545-0.078-1.311-0.231c-0.769-0.146-1.476-0.225-2.126-0.225
		c-0.499,0-1.083,0.078-1.754,0.225c-0.671,0.153-1.083,0.231-1.236,0.231c-0.185,0-0.326-0.097-0.428-0.302
		c-0.098-0.192-0.149-0.483-0.149-0.861c0-0.591,0.243-1.124,0.726-1.618c0.208-0.213,0.365-0.378,0.471-0.514
		c0.274-0.397,0.486-1.066,0.627-2.007c0.142-0.93,0.212-2.092,0.212-3.469V74.84c0-2.239-0.048-3.703-0.138-4.4
		c-0.094-0.708-0.263-1.29-0.506-1.764c-0.255-0.494-0.659-0.823-1.212-1.008c-0.557-0.174-0.836-0.621-0.836-1.318
		c0-0.378,0.052-0.678,0.158-0.892c0.102-0.223,0.247-0.33,0.428-0.33c0.047,0,0.161,0.029,0.345,0.087
		c0.699,0.223,1.346,0.34,1.946,0.34c1.417,0,2.704-0.126,3.861-0.369c0.142-0.039,0.216-0.058,0.231-0.058
		c0.169,0,0.294,0.087,0.373,0.271c0.083,0.175,0.122,0.436,0.122,0.775c0,0.552-0.196,0.988-0.585,1.318
		c-0.393,0.338-0.667,0.727-0.828,1.182c-0.185,0.378-0.322,0.989-0.408,1.832C74.809,71.351,74.766,72.601,74.766,74.268
		L74.766,74.268z M71.352,67.232l-0.047,0.223c0.388,0.475,0.671,1.153,0.84,2.035c0.168,0.872,0.251,2.122,0.251,3.73v22.687
		c0,2.345-0.071,4.041-0.208,5.078c-0.138,1.046-0.365,1.957-0.687,2.752l0.043,0.231c0.499-0.552,0.848-1.347,1.048-2.403
		c0.201-1.047,0.299-2.993,0.299-5.833V73.618c0-1.909-0.118-3.353-0.357-4.332C72.298,68.308,71.901,67.629,71.352,67.232
		L71.352,67.232z M91.067,67.513l-0.082,0.174c0.353,0.301,0.616,0.717,0.788,1.231c0.173,0.523,0.26,1.163,0.26,1.918
		c0,0.223-0.008,0.485-0.027,0.785c-0.02,0.291-0.06,0.727-0.122,1.318l0.125,0.164c0.153-0.843,0.263-1.521,0.322-2.016
		c0.063-0.484,0.094-0.921,0.094-1.298c0-0.668-0.122-1.211-0.357-1.638c-0.24-0.426-0.55-0.64-0.934-0.64h-0.067V67.513z
		 M79.361,67.232l-0.066,0.223c0.235,0.232,0.463,0.746,0.679,1.541c0.212,0.794,0.475,2.083,0.781,3.886l5.105,30.294
		c0.008,0.038,0.016,0.077,0.02,0.116c0.086,0.523,0.165,0.794,0.244,0.794c0.047,0,0.094-0.136,0.149-0.387
		c0.055-0.253,0.083-0.533,0.083-0.834c0-0.155-0.012-0.339-0.036-0.543c-0.023-0.203-0.058-0.455-0.106-0.736L81.19,72
		c-0.216-1.27-0.467-2.277-0.766-3.033C80.131,68.21,79.777,67.629,79.361,67.232L79.361,67.232z M93.112,71.292l-6.31,35.177
		l-0.012,0.06c-0.094,0.514-0.215,0.766-0.368,0.766c-0.09,0-0.173-0.077-0.248-0.242c-0.07-0.165-0.137-0.417-0.2-0.756
		L79.95,71.603c-0.208-1.172-0.404-2.006-0.589-2.51c-0.185-0.504-0.408-0.872-0.679-1.095c-0.083-0.077-0.196-0.174-0.341-0.281
		c-0.483-0.377-0.726-0.891-0.726-1.541c0-0.378,0.039-0.639,0.114-0.804c0.078-0.165,0.204-0.243,0.38-0.243
		c0.098,0,0.526,0.087,1.275,0.271c0.754,0.184,1.44,0.271,2.072,0.271c0.848,0,1.711-0.145,2.586-0.426
		c0.2-0.078,0.318-0.117,0.357-0.117c0.113,0,0.211,0.107,0.298,0.311c0.083,0.213,0.125,0.455,0.125,0.736
		c0,0.494-0.18,0.959-0.542,1.396c-0.129,0.174-0.231,0.31-0.31,0.426c-0.306,0.301-0.526,0.688-0.656,1.153
		c-0.129,0.456-0.196,1.076-0.196,1.861c0,0.397,0.023,0.824,0.07,1.289c0.047,0.465,0.141,1.144,0.287,2.025l3.485,20.7
		c0.059,0.359,0.122,0.63,0.176,0.824c0.059,0.194,0.118,0.282,0.181,0.282c0.059,0,0.118-0.068,0.177-0.224
		c0.059-0.155,0.11-0.368,0.157-0.659l3.367-18.761c0.137-0.795,0.247-1.589,0.322-2.384c0.079-0.795,0.114-1.531,0.114-2.219
		c0-1.076-0.102-1.938-0.31-2.578c-0.204-0.649-0.526-1.085-0.954-1.308c-0.098-0.097-0.247-0.213-0.447-0.368
		c-0.475-0.339-0.714-0.804-0.714-1.396c0-0.378,0.039-0.659,0.122-0.833c0.078-0.184,0.215-0.271,0.408-0.271
		c0.161,0,0.557,0.087,1.197,0.271c0.636,0.184,1.174,0.271,1.621,0.271c0.381,0,0.789-0.087,1.225-0.271
		c0.431-0.184,0.674-0.271,0.729-0.271c0.168,0.02,0.283,0.097,0.349,0.243c0.066,0.145,0.098,0.368,0.098,0.697
		c0,0.582-0.172,1.115-0.518,1.589c-0.106,0.146-0.188,0.262-0.239,0.339c-0.11,0.058-0.24,0.359-0.392,0.892
		C93.477,69.432,93.304,70.227,93.112,71.292L93.112,71.292z M100.992,74.268v23.199c0,1.668,0.098,2.966,0.298,3.905
		c0.2,0.932,0.503,1.521,0.91,1.745c0.177,0.204,0.438,0.397,0.781,0.571c0.545,0.301,0.815,0.785,0.815,1.443
		c0,0.436-0.055,0.756-0.161,0.969c-0.105,0.203-0.271,0.312-0.494,0.312c-0.105,0-0.545-0.078-1.311-0.231
		c-0.77-0.146-1.477-0.225-2.127-0.225c-0.499,0-1.084,0.078-1.754,0.225c-0.672,0.153-1.084,0.231-1.236,0.231
		c-0.185,0-0.326-0.097-0.428-0.302c-0.098-0.192-0.149-0.483-0.149-0.861c0-0.591,0.243-1.124,0.727-1.618
		c0.208-0.213,0.364-0.378,0.47-0.514c0.274-0.397,0.487-1.066,0.629-2.007c0.142-0.93,0.212-2.092,0.212-3.469V74.84
		c0-2.239-0.048-3.703-0.138-4.4c-0.095-0.708-0.265-1.29-0.507-1.764c-0.256-0.494-0.659-0.823-1.212-1.008
		c-0.557-0.174-0.836-0.621-0.836-1.318c0-0.378,0.051-0.678,0.157-0.892c0.102-0.223,0.247-0.33,0.428-0.33
		c0.047,0,0.161,0.029,0.345,0.087c0.698,0.223,1.346,0.34,1.946,0.34c1.416,0,2.703-0.126,3.861-0.369
		c0.143-0.039,0.215-0.058,0.231-0.058c0.168,0,0.294,0.087,0.373,0.271c0.081,0.175,0.12,0.436,0.12,0.775
		c0,0.552-0.195,0.988-0.584,1.318c-0.393,0.338-0.668,0.727-0.828,1.182c-0.186,0.378-0.321,0.989-0.408,1.832
		C101.035,71.351,100.992,72.601,100.992,74.268L100.992,74.268z M97.578,67.232l-0.048,0.223c0.389,0.475,0.672,1.153,0.841,2.035
		c0.168,0.872,0.25,2.122,0.25,3.73v22.687c0,2.345-0.07,4.041-0.207,5.078c-0.138,1.046-0.365,1.957-0.688,2.752l0.045,0.231
		c0.498-0.552,0.847-1.347,1.047-2.403c0.201-1.047,0.299-2.993,0.299-5.833V73.618c0-1.909-0.117-3.353-0.357-4.332
		C98.522,68.308,98.127,67.629,97.578,67.232L97.578,67.232z M117.74,67.058l-0.06,0.232c0.307,0.262,0.562,0.766,0.766,1.502
		c0.205,0.736,0.389,1.841,0.558,3.314h0.114c0.008-0.184,0.016-0.436,0.023-0.736c0.016-0.475,0.022-0.785,0.022-0.93
		c0-1.144-0.104-1.958-0.321-2.471C118.627,67.455,118.263,67.154,117.74,67.058L117.74,67.058z M105.968,67.513v0.223
		c0.346,0.611,0.624,1.134,0.836,1.589c0.209,0.456,0.393,0.921,0.547,1.396l11.021,32.396c0.066,0.204,0.126,0.349,0.165,0.407
		c0.043,0.066,0.078,0.105,0.11,0.105c0.039,0,0.065-0.059,0.086-0.175c0.02-0.116,0.031-0.28,0.039-0.515
		c0-0.357-0.017-0.668-0.056-0.93c-0.038-0.271-0.118-0.582-0.231-0.939l-9.842-28.675c-0.55-1.609-1.017-2.743-1.4-3.411
		C106.862,68.327,106.435,67.833,105.968,67.513L105.968,67.513z M106.694,97.128h-0.071c-0.082,1.909-0.208,3.421-0.377,4.545
		c-0.168,1.115-0.404,2.026-0.702,2.725l0.048,0.223c0.45-0.339,0.776-0.872,0.979-1.589c0.205-0.718,0.307-1.706,0.307-2.956
		c0-0.223-0.016-0.562-0.043-1.008C106.812,98.63,106.761,97.981,106.694,97.128L106.694,97.128z M119.88,75.004l-0.138,29.508
		c0,0.794-0.031,1.396-0.086,1.812c-0.06,0.417-0.142,0.631-0.248,0.631c-0.255,0-0.608-0.679-1.06-2.046
		c-0.099-0.29-0.182-0.522-0.244-0.717l-9.664-28.219c-0.11-0.32-0.221-0.591-0.334-0.814c-0.117-0.213-0.196-0.319-0.244-0.319
		c-0.09,0-0.16,0.203-0.203,0.61c-0.047,0.407-0.07,1.018-0.07,1.831v13.568c0,4.244,0.059,7.103,0.172,8.576
		c0.114,1.473,0.314,2.568,0.598,3.266c0.225,0.554,0.627,0.94,1.221,1.184c0.589,0.232,0.883,0.688,0.883,1.376
		c0,0.476-0.035,0.785-0.102,0.94c-0.07,0.145-0.243,0.223-0.52,0.223c-0.039,0-0.333-0.078-0.879-0.232
		c-0.549-0.146-1.079-0.224-1.593-0.224c-0.534,0-1.101,0.078-1.69,0.224c-0.598,0.154-0.916,0.232-0.963,0.232
		c-0.152,0-0.267-0.116-0.337-0.357c-0.075-0.232-0.11-0.621-0.11-1.146c0-0.213,0.213-0.581,0.641-1.123
		c0.424-0.543,0.727-1.328,0.91-2.375c0.177-0.938,0.338-2.654,0.479-5.136c0.141-2.48,0.212-5.088,0.212-7.811V76.118
		c0-1.802-0.059-3.304-0.173-4.516c-0.113-1.212-0.295-2.209-0.542-2.985c-0.298-0.62-0.679-0.988-1.146-1.095
		c-0.471-0.097-0.707-0.475-0.715-1.114c0-0.456,0.035-0.785,0.109-0.979c0.07-0.204,0.191-0.301,0.361-0.301
		c0.145,0,0.361,0.078,0.644,0.243c0.283,0.165,0.494,0.242,0.632,0.242c0.329,0,0.733-0.077,1.217-0.242
		c0.482-0.165,0.797-0.243,0.941-0.243c0.416,0,0.863,0.717,1.346,2.152c0.057,0.155,0.09,0.271,0.114,0.349l8.107,24.014
		c0.196,0.611,0.38,1.085,0.55,1.425c0.168,0.339,0.298,0.504,0.393,0.504c0.105,0,0.188-0.232,0.238-0.708
		c0.057-0.475,0.083-1.173,0.083-2.104V75.944c0-2.258-0.071-3.896-0.208-4.923c-0.138-1.037-0.373-1.832-0.703-2.403
		c-0.349-0.533-0.783-0.911-1.303-1.153c-0.518-0.233-0.775-0.64-0.775-1.231c0-0.358,0.043-0.63,0.133-0.824
		c0.086-0.184,0.215-0.281,0.385-0.281c0.146,0,0.471,0.078,0.978,0.243s0.941,0.242,1.312,0.242c0.475,0,1.039-0.077,1.699-0.242
		c0.654-0.165,1.062-0.243,1.225-0.243c0.176,0,0.298,0.078,0.367,0.243c0.068,0.155,0.104,0.426,0.104,0.804
		c0,0.533-0.156,0.969-0.471,1.308c-0.314,0.339-0.559,0.717-0.727,1.134c-0.291,0.436-0.494,1.047-0.608,1.842
		C119.962,71.253,119.896,72.775,119.88,75.004L119.88,75.004z M129.411,105.782l0.066-0.223c-1.785-2.347-3.107-5.156-3.972-8.422
		c-0.858-3.266-1.292-7.114-1.292-11.543c0-3.159,0.221-6.104,0.66-8.838c0.443-2.733,1.066-5.02,1.88-6.861l-0.065-0.281
		c-0.971,1.967-1.731,4.438-2.285,7.423c-0.557,2.984-0.836,6.076-0.836,9.274c0,4.516,0.521,8.538,1.57,12.037
		C126.187,101.849,127.61,104.328,129.411,105.782L129.411,105.782z M133.297,66.835c1.463,1.25,2.638,3.799,3.522,7.646
		c0.884,3.857,1.328,8.412,1.328,13.674c0,3.45-0.221,6.396-0.664,8.857c-0.439,2.461-1.114,4.516-2.028,6.163l0.082,0.222
		c1.028-1.336,1.829-3.459,2.401-6.365c0.576-2.907,0.862-6.309,0.862-10.214c0-5.068-0.485-9.41-1.454-13.015
		c-0.971-3.604-2.297-5.999-3.984-7.2L133.297,66.835L133.297,66.835z M137.743,88.522c0-6.279-0.573-11.416-1.725-15.389
		c-1.148-3.973-2.621-5.96-4.414-5.96c-1.684,0-3.014,1.434-3.986,4.303c-0.975,2.868-1.46,6.822-1.46,11.852
		c0,6.318,0.558,11.416,1.668,15.272c1.11,3.866,2.582,5.795,4.409,5.795c1.697,0,3.035-1.414,4.023-4.244
		C137.248,97.322,137.743,93.446,137.743,88.522L137.743,88.522z M132.19,64.451c2.468,0,4.509,1.977,6.121,5.931
		s2.42,8.916,2.42,14.875c0,6.29-0.854,11.503-2.562,15.641c-1.711,4.148-3.89,6.223-6.542,6.223c-2.461,0-4.488-1.977-6.087-5.932
		c-1.599-3.953-2.397-8.954-2.397-14.99c0-6.212,0.855-11.387,2.57-15.525C127.426,66.525,129.584,64.451,132.19,64.451
		L132.19,64.451z"/>
	<path fill="#FAA74A" d="M66.866,113.021l-0.09-0.164c-0.203,0.883-0.357,1.947-0.455,3.179c-0.098,1.231-0.15,2.714-0.15,4.458
		v1.047l0.319,18.85c0.007,0.311,0.015,0.629,0.019,0.987c0.003,0.349,0.003,0.863,0.003,1.541c0,1.347-0.041,2.384-0.127,3.11
		c-0.083,0.727-0.226,1.338-0.421,1.832v0.252c0.372-0.523,0.643-1.211,0.804-2.045c0.161-0.824,0.24-1.938,0.24-3.314
		c0-0.378-0.007-0.92-0.022-1.618l-0.252-16.842c-0.007-0.397-0.015-0.901-0.019-1.512c-0.004-0.621-0.004-1.716-0.004-3.286
		c0-1.309,0.011-2.471,0.038-3.488C66.776,114.979,66.813,113.991,66.866,113.021L66.866,113.021z M52.683,111.006v0.341
		c0.646,1.045,1.255,3.196,1.827,6.473c0.067,0.396,0.124,0.718,0.165,0.939l4.736,26.863c0.067,0.339,0.116,0.553,0.154,0.648
		c0.037,0.098,0.083,0.146,0.131,0.146c0.06,0,0.113-0.058,0.162-0.174c0.044-0.116,0.071-0.243,0.071-0.397
		c0-0.175-0.022-0.396-0.06-0.697c-0.042-0.291-0.128-0.795-0.259-1.521l-4.107-23.559l-0.045-0.262
		C54.555,114.582,53.63,111.656,52.683,111.006L52.683,111.006z M53.521,141.192H53.39c-0.045,1.734-0.162,3.179-0.35,4.312
		c-0.188,1.135-0.44,1.938-0.763,2.413v0.339c0.47-0.175,0.812-0.57,1.029-1.191c0.215-0.621,0.324-1.502,0.324-2.637
		c0-0.328-0.008-0.736-0.022-1.221C53.593,142.714,53.562,142.036,53.521,141.192L53.521,141.192z M68.452,117.565l0.241,23.308
		c0.016,1.841,0.083,3.188,0.21,4.051c0.124,0.862,0.331,1.57,0.628,2.142c0.24,0.457,0.519,0.757,0.834,0.893
		c0.316,0.146,0.474,0.484,0.474,1.008c0,0.514-0.045,0.872-0.132,1.086c-0.09,0.203-0.241,0.311-0.452,0.311
		c-0.06,0-0.379-0.077-0.965-0.231c-0.582-0.146-1.135-0.224-1.654-0.224c-0.545,0-1.104,0.076-1.68,0.224
		c-0.575,0.154-0.891,0.231-0.939,0.231c-0.185,0-0.32-0.098-0.41-0.28c-0.086-0.194-0.131-0.504-0.131-0.94
		c0-0.494,0.162-0.959,0.485-1.396c0.184-0.263,0.323-0.484,0.417-0.679c0.274-0.455,0.458-0.949,0.556-1.492
		c0.102-0.532,0.151-1.366,0.151-2.481v-1.278l-0.297-18.082c-0.007-0.397-0.03-0.737-0.067-0.998
		c-0.038-0.262-0.071-0.398-0.109-0.398c-0.053,0-0.116,0.137-0.191,0.398c-0.079,0.261-0.166,0.639-0.26,1.104l-4.758,24.848
		c-0.097,0.514-0.18,0.844-0.255,0.998c-0.072,0.146-0.166,0.224-0.275,0.224c-0.191,0-0.342-0.349-0.451-1.048
		c-0.015-0.096-0.03-0.185-0.045-0.262l-4.393-24.981c-0.079-0.455-0.143-0.747-0.185-0.882c-0.045-0.137-0.098-0.204-0.154-0.225
		c-0.053,0-0.09,0.106-0.117,0.34c-0.026,0.224-0.045,0.62-0.061,1.191l-0.199,14.421v1.085v1.415c0,1.947,0.079,3.382,0.241,4.282
		c0.162,0.912,0.436,1.521,0.815,1.822c0.154,0.301,0.398,0.582,0.733,0.824c0.335,0.241,0.5,0.696,0.5,1.365
		c0,0.417-0.038,0.697-0.116,0.862c-0.075,0.165-0.218,0.241-0.425,0.241c-0.108,0-0.409-0.076-0.905-0.23
		c-0.496-0.146-0.936-0.224-1.315-0.224c-0.5,0-1.007,0.077-1.522,0.224c-0.511,0.154-0.774,0.23-0.782,0.23
		c-0.132,0-0.233-0.115-0.3-0.338c-0.071-0.232-0.105-0.543-0.105-0.939c0-0.281,0.169-0.698,0.507-1.251
		c0.338-0.542,0.597-1.151,0.782-1.812c0.222-0.795,0.395-1.938,0.522-3.422c0.128-1.492,0.214-3.363,0.26-5.611l0.251-13.197
		c0.007-0.33,0.015-0.68,0.019-1.057c0.004-0.379,0.004-0.94,0.004-1.678c0-2.479-0.071-4.361-0.218-5.66
		c-0.146-1.297-0.391-2.334-0.729-3.109c-0.21-0.416-0.485-0.727-0.816-0.92c-0.33-0.204-0.496-0.592-0.496-1.184
		c0-0.377,0.034-0.658,0.094-0.832c0.063-0.186,0.168-0.271,0.315-0.271c0.031,0,0.105,0.027,0.23,0.087
		c0.575,0.185,1.127,0.28,1.665,0.28c0.361,0,0.755-0.096,1.188-0.28c0.124-0.06,0.203-0.087,0.233-0.087
		c0.146,0.02,0.263,0.136,0.353,0.339c0.086,0.213,0.199,0.697,0.338,1.474l4.99,27.629c0.049,0.279,0.098,0.483,0.143,0.609
		c0.041,0.126,0.094,0.184,0.154,0.184c0.057,0,0.117-0.058,0.181-0.184s0.113-0.291,0.15-0.494l5.438-28.336
		c0.075-0.455,0.154-0.775,0.244-0.949c0.086-0.185,0.192-0.271,0.319-0.271c0.063,0,0.218,0.058,0.455,0.185
		c0.24,0.125,0.447,0.185,0.624,0.185c0.308,0,0.646-0.06,1.019-0.185c0.373-0.127,0.589-0.185,0.654-0.185
		c0.207,0,0.345,0.097,0.413,0.28c0.072,0.193,0.105,0.523,0.105,0.998c0,0.494-0.15,0.824-0.451,1.009
		c-0.3,0.174-0.59,0.483-0.86,0.92c-0.248,0.319-0.432,0.854-0.545,1.608c-0.113,0.746-0.169,1.803-0.169,3.16L68.452,117.565
		L68.452,117.565z M73.04,111.181c0.346,0.562,0.598,1.327,0.756,2.297c0.158,0.959,0.236,2.19,0.236,3.684v22.695
		c0,2.346-0.067,4.041-0.199,5.078c-0.131,1.047-0.35,1.957-0.658,2.752c0.488-0.28,0.834-0.988,1.034-2.123
		c0.199-1.133,0.296-3.09,0.296-5.871v-22.135c0-1.908-0.113-3.344-0.334-4.322C73.946,112.257,73.57,111.578,73.04,111.181
		L73.04,111.181z M79.406,147.802l0.023,0.233c0.053,0.019,0.12,0.039,0.21,0.048c0.293,0.059,0.493,0.087,0.594,0.087
		c0.74,0,1.349-0.416,1.823-1.259c0.473-0.844,0.815-2.113,1.029-3.819l-0.079-0.231c-0.41,1.348-0.902,2.412-1.474,3.197
		C80.959,146.843,80.252,147.424,79.406,147.802L79.406,147.802z M79.178,127.937l0.022,0.34c0.21,0.136,0.401,0.291,0.567,0.483
		c0.162,0.185,0.319,0.438,0.466,0.736h0.079l-0.079-3.431l-0.109,0.049c-0.146,0.494-0.293,0.882-0.44,1.152
		C79.535,127.539,79.369,127.763,79.178,127.937L79.178,127.937z M79.97,110.948l0.022,0.232c0.628,0.299,1.102,0.688,1.417,1.162
		c0.316,0.475,0.567,1.153,0.751,2.045l0.109,0.088c-0.03-1.387-0.15-2.336-0.365-2.859c-0.21-0.522-0.586-0.774-1.123-0.774
		c-0.125,0-0.252,0.011-0.391,0.029C80.256,110.88,80.117,110.909,79.97,110.948L79.97,110.948z M76.292,115.183v9.092
		c0,0.871,0.075,1.492,0.225,1.869c0.15,0.379,0.398,0.571,0.744,0.571h0.726c0.515,0,0.924-0.155,1.229-0.465
		c0.305-0.319,0.556-0.824,0.755-1.521c0.102-0.358,0.218-0.922,0.35-1.678c0.191-1.095,0.413-1.646,0.662-1.646
		c0.12,0,0.206,0.105,0.271,0.33c0.064,0.213,0.094,0.514,0.094,0.892c0,0.019-0.022,0.455-0.064,1.308
		c-0.045,0.844-0.067,1.717-0.067,2.606c0,2.346,0.038,4.739,0.109,7.183c0.015,0.493,0.022,0.784,0.022,0.881
		c0,0.397-0.026,0.679-0.083,0.854c-0.057,0.165-0.143,0.252-0.259,0.252c-0.241,0-0.391-0.523-0.451-1.561
		c-0.045-0.736-0.094-1.317-0.154-1.734c-0.169-1.134-0.414-1.919-0.737-2.364c-0.323-0.444-0.838-0.669-1.545-0.669H77.24
		c-0.368,0-0.616,0.203-0.748,0.61c-0.131,0.407-0.199,1.289-0.199,2.655v9.052c0,2.403,0.116,3.905,0.353,4.485
		c0.233,0.592,0.717,0.883,1.45,0.883c0.752,0,1.489-0.312,2.221-0.92c0.729-0.621,1.327-1.436,1.789-2.463
		c0.323-0.697,0.605-1.561,0.85-2.588c0.24-1.035,0.432-1.55,0.571-1.55c0.094,0,0.173,0.106,0.233,0.329
		c0.056,0.214,0.086,0.494,0.086,0.833c0,0.756-0.083,1.783-0.252,3.062c-0.169,1.289-0.38,2.386-0.628,3.295
		c-0.308,1.135-0.703,1.969-1.184,2.502c-0.481,0.533-1.078,0.793-1.789,0.793c-0.308,0-0.932-0.076-1.868-0.23
		c-0.936-0.146-1.721-0.224-2.353-0.224c-0.77,0-1.552,0.077-2.345,0.224c-0.793,0.154-1.203,0.23-1.221,0.23
		c-0.177,0-0.312-0.096-0.403-0.279c-0.093-0.194-0.139-0.484-0.139-0.883c0-0.532,0.181-1.036,0.542-1.512
		c0.217-0.28,0.383-0.522,0.496-0.736c0.316-0.455,0.545-1.104,0.688-1.957s0.214-1.987,0.214-3.401V118.78
		c0-1.93-0.045-3.266-0.131-4.021c-0.09-0.756-0.248-1.404-0.474-1.958c-0.259-0.591-0.65-0.979-1.172-1.183
		c-0.526-0.193-0.789-0.641-0.789-1.317c0-0.378,0.053-0.679,0.154-0.892c0.102-0.223,0.245-0.329,0.428-0.329
		c0.023,0,0.113,0.021,0.267,0.058c1.255,0.281,2.615,0.428,4.085,0.428c1.063,0,2.254-0.078,3.57-0.242
		c1.319-0.165,2.109-0.242,2.364-0.242c0.403,0,0.654,0.125,0.755,0.387c0.098,0.254,0.147,0.824,0.147,1.717v1.221
		c0,1.453,0.007,2.927,0.022,4.419c0,0.291,0,0.456,0,0.514c0,0.476-0.026,0.785-0.075,0.94c-0.052,0.146-0.146,0.223-0.29,0.223
		c-0.241,0-0.375-0.455-0.409-1.355c-0.034-0.912-0.091-1.58-0.173-2.017c-0.226-1.212-0.624-2.063-1.188-2.56
		c-0.563-0.493-1.424-0.735-2.578-0.735c-0.68,0-1.157,0.242-1.424,0.735C76.427,113.062,76.292,113.933,76.292,115.183
		L76.292,115.183z M86.772,113.342l-0.086-0.116c-0.251,1.145-0.432,2.199-0.548,3.18c-0.113,0.988-0.169,1.977-0.169,2.984
		c0,2.479,0.274,4.534,0.827,6.172c0.548,1.639,1.552,3.258,3.007,4.865l0.206,0.223c2.837,3.131,4.254,6.436,4.254,9.942
		c0,0.185-0.003,0.446-0.015,0.767c-0.012,0.32-0.03,0.679-0.053,1.076l0.132,0.146c0.067-0.592,0.117-1.115,0.143-1.58
		c0.03-0.465,0.045-0.901,0.045-1.317c0-1.929-0.236-3.596-0.71-4.98c-0.474-1.396-1.255-2.704-2.341-3.936
		c-0.192-0.223-0.47-0.533-0.834-0.93c-2.886-3.257-4.329-7.113-4.329-11.552c0-0.854,0.038-1.687,0.117-2.49
		C86.49,114.999,86.61,114.175,86.772,113.342L86.772,113.342z M91.695,110.735v0.164c0.515,0.629,0.955,1.414,1.323,2.354
		c0.364,0.949,0.721,2.199,1.067,3.75h0.109c-0.079-2.006-0.304-3.47-0.677-4.39C93.146,111.704,92.541,111.074,91.695,110.735
		L91.695,110.735z M85.584,137.637l0.714,8.237c0.045,0.494,0.105,0.833,0.188,1.018c0.08,0.193,0.199,0.291,0.354,0.291
		c0.034,0,0.067-0.039,0.097-0.117c0.03-0.076,0.045-0.164,0.045-0.262c0-0.105-0.003-0.193-0.007-0.231
		c-0.004-0.048-0.007-0.097-0.015-0.136l-1.157-9.004c-0.015-0.086-0.03-0.203-0.042-0.339c-0.022-0.223-0.06-0.339-0.113-0.339
		c-0.034,0-0.064,0.02-0.083,0.059c-0.015,0.039-0.026,0.097-0.026,0.164c0,0.078,0.007,0.225,0.022,0.426
		C85.57,137.501,85.577,137.578,85.584,137.637L85.584,137.637z M86.055,146.728l-0.726-8.412c-0.019-0.224-0.042-0.445-0.06-0.648
		c-0.019-0.214-0.026-0.33-0.026-0.368c0-0.514,0.038-0.873,0.109-1.065c0.075-0.203,0.195-0.301,0.365-0.301
		c0.161,0,0.327,0.64,0.496,1.918c0.169,1.279,0.368,2.442,0.605,3.508c0.492,2.162,1.071,3.839,1.74,5.05
		c0.665,1.212,1.356,1.821,2.07,1.821c0.902,0,1.642-0.707,2.225-2.131c0.578-1.416,0.868-3.275,0.868-5.562
		c0-2.938-1.199-5.708-3.6-8.324l-0.102-0.105c-1.958-2.123-3.19-4.022-3.698-5.709c-0.507-1.687-0.759-3.924-0.759-6.726
		c0-3.159,0.42-5.834,1.259-8.005c0.841-2.182,1.901-3.266,3.179-3.266c0.654,0,1.331,0.357,2.029,1.084
		c0.703,0.719,1.154,1.076,1.349,1.076c0.207,0,0.402-0.125,0.59-0.388c0.188-0.252,0.315-0.378,0.379-0.378
		c0.139,0,0.241,0.098,0.297,0.281c0.06,0.193,0.09,0.521,0.09,0.998c0,0.146-0.007,0.445-0.022,0.891
		c-0.015,0.447-0.022,0.825-0.022,1.154c0,0.882,0.053,2.199,0.158,3.924c0.108,1.735,0.161,2.977,0.161,3.741
		c0,0.339-0.03,0.601-0.086,0.774c-0.06,0.186-0.146,0.271-0.255,0.271c-0.225,0-0.41-0.62-0.545-1.871
		c-0.135-1.249-0.334-2.451-0.601-3.604c-0.387-1.629-0.91-2.928-1.567-3.896c-0.658-0.96-1.345-1.443-2.067-1.443
		c-0.726,0-1.323,0.543-1.793,1.627c-0.469,1.097-0.706,2.453-0.706,4.08c0,1.59,0.229,2.938,0.684,4.062
		c0.455,1.114,1.282,2.258,2.477,3.431c0.132,0.137,0.339,0.329,0.616,0.592c1.478,1.463,2.451,2.78,2.92,3.953
		c0.439,1.096,0.774,2.413,1.007,3.944c0.23,1.53,0.346,3.217,0.346,5.049c0,4.002-0.459,7.181-1.375,9.545
		c-0.917,2.365-2.154,3.548-3.702,3.548c-0.493,0-1.127-0.32-1.909-0.949c-0.781-0.641-1.327-0.998-1.635-1.096
		c-0.398-0.136-0.635-0.658-0.718-1.57C86.077,146.988,86.062,146.813,86.055,146.728L86.055,146.728z M108.869,111.403v0.34
		c0.542,0.038,0.991,0.31,1.35,0.812c0.354,0.494,0.681,1.338,0.974,2.51h0.063c-0.019-1.347-0.144-2.306-0.368-2.896
		c-0.222-0.581-0.587-0.882-1.094-0.882c-0.053,0-0.184,0.021-0.402,0.049C109.174,111.365,109.001,111.384,108.869,111.403
		L108.869,111.403z M103.188,111.627l-0.064,0.203c0.141,0.262,0.244,0.571,0.32,0.921c0.07,0.35,0.107,0.717,0.107,1.096v1.104
		v26.641c0,1.53-0.06,2.791-0.181,3.76c-0.123,0.979-0.289,1.59-0.503,1.832l0.045,0.231c0.417-0.251,0.714-0.853,0.883-1.802
		c0.17-0.961,0.252-2.529,0.252-4.711v-23.394c0-2.181-0.064-3.634-0.188-4.37C103.735,112.401,103.511,111.897,103.188,111.627
		L103.188,111.627z M97.595,115.948h0.088c0.153-1.124,0.391-2.016,0.707-2.703c0.314-0.68,0.772-1.251,1.375-1.727v-0.174
		c-0.031,0-0.076-0.01-0.132-0.029c-0.207-0.059-0.343-0.076-0.409-0.076c-0.55,0-0.959,0.349-1.226,1.056
		c-0.269,0.717-0.403,1.793-0.403,3.256V115.948L97.595,115.948z M101.59,109.562h5.341c0.764,0,1.586-0.078,2.465-0.242
		c0.885-0.164,1.379-0.241,1.5-0.241c0.364,0,0.595,0.116,0.688,0.339c0.091,0.232,0.146,0.688,0.169,1.396l0.188,5.949v0.514
		c0,0.631-0.019,0.998-0.056,1.104c-0.034,0.116-0.124,0.175-0.264,0.175c-0.256,0-0.437-0.455-0.537-1.365
		c-0.075-0.621-0.146-1.145-0.21-1.562c-0.186-1.134-0.48-1.919-0.891-2.354c-0.414-0.437-1.09-0.648-2.037-0.648h-0.389
		c-0.801,0-1.285,0.165-1.453,0.494c-0.17,0.329-0.252,1.104-0.252,2.314v25.981c0,1.647,0.094,2.927,0.285,3.838
		c0.191,0.91,0.5,1.589,0.926,2.044c0.146,0.155,0.375,0.291,0.684,0.428c0.521,0.223,0.781,0.678,0.781,1.356
		c0,0.437-0.045,0.755-0.139,0.969c-0.092,0.203-0.233,0.31-0.422,0.31c-0.105,0-0.519-0.086-1.24-0.252
		c-0.726-0.174-1.387-0.262-1.987-0.262c-0.587,0-1.289,0.088-2.108,0.262c-0.818,0.166-1.322,0.252-1.514,0.252
		c-0.207,0-0.365-0.096-0.475-0.299c-0.108-0.194-0.166-0.484-0.166-0.863c0-0.62,0.227-1.075,0.674-1.356
		c0.293-0.192,0.515-0.368,0.66-0.543c0.426-0.416,0.742-1.085,0.94-2.016c0.202-0.931,0.304-2.161,0.304-3.691v-26.358
		c0-1.174-0.078-1.909-0.236-2.211c-0.157-0.299-0.574-0.455-1.252-0.455c-1.111,0-1.9,0.232-2.363,0.697
		c-0.461,0.467-0.796,1.26-1.003,2.396c-0.14,0.774-0.267,1.733-0.384,2.868c-0.135,1.308-0.342,1.957-0.627,1.957
		c-0.129,0-0.219-0.106-0.278-0.311c-0.056-0.214-0.086-0.533-0.086-0.969c0-0.078,0.019-0.359,0.057-0.854
		c0.153-2.287,0.263-4.584,0.331-6.891c0.025-1.037,0.082-1.695,0.161-1.979c0.082-0.271,0.226-0.405,0.433-0.405
		c0.162,0,0.662,0.077,1.5,0.241C100.147,109.483,100.91,109.562,101.59,109.562L101.59,109.562z M120.388,130.483l-0.045,0.397
		c0.108,0.263,0.215,0.572,0.312,0.94c0.102,0.357,0.215,0.871,0.35,1.56l1.727,8.858c0.42,2.142,0.846,3.799,1.281,4.979
		c0.436,1.183,0.897,1.929,1.383,2.229l0.041-0.311c-0.293-0.32-0.627-1.123-1.011-2.402c-0.38-1.271-0.774-2.918-1.177-4.924
		l-1.958-9.942c-0.12-0.601-0.226-0.998-0.327-1.172c-0.098-0.185-0.229-0.271-0.391-0.271c-0.016,0-0.043,0.011-0.088,0.029
		C120.44,130.476,120.407,130.483,120.388,130.483L120.388,130.483z M120.981,111.403c0.658,1.25,1.152,2.646,1.483,4.187
		s0.496,3.237,0.496,5.068c0,1.405-0.063,2.606-0.188,3.614c-0.123,1.018-0.318,1.899-0.582,2.655l0.041,0.175
		c0.414-0.699,0.726-1.639,0.943-2.83c0.215-1.183,0.323-2.549,0.323-4.1c0-2.171-0.222-4.021-0.662-5.543
		C122.397,113.101,121.778,112.033,120.981,111.403L120.981,111.403z M114.206,111.181c0.346,0.562,0.598,1.327,0.755,2.297
		c0.158,0.97,0.237,2.199,0.237,3.692v22.687c0,2.346-0.067,4.041-0.199,5.078c-0.132,1.047-0.35,1.957-0.658,2.752
		c0.492-0.28,0.84-0.988,1.037-2.123c0.2-1.133,0.298-3.09,0.298-5.881v-22.115c0-1.908-0.112-3.354-0.339-4.332
		C115.115,112.267,114.735,111.578,114.206,111.181L114.206,111.181z M122.421,129.322c0.141,0.184,0.271,0.465,0.391,0.853
		c0.121,0.378,0.252,0.901,0.393,1.59l2.277,10.873c0.314,1.54,0.59,2.559,0.817,3.071c0.233,0.515,0.521,0.767,0.854,0.767
		c0.061,0,0.154-0.021,0.277-0.06c0.125-0.039,0.211-0.058,0.264-0.058c0.109,0,0.191,0.066,0.24,0.184
		c0.053,0.126,0.078,0.34,0.078,0.641c0,0.736-0.255,1.453-0.771,2.142c-0.515,0.688-1.063,1.036-1.649,1.036
		c-0.669,0-1.285-0.773-1.855-2.324c-0.567-1.551-1.217-4.305-1.954-8.237l-0.196-1.075c-0.77-4.108-1.266-6.416-1.486-6.899
		c-0.162-0.368-0.347-0.62-0.55-0.775c-0.206-0.146-0.575-0.224-1.101-0.224c-0.376,0-0.629,0.146-0.756,0.428
		c-0.129,0.28-0.191,0.823-0.191,1.617v8.548c0,1.551,0.079,2.791,0.24,3.702c0.162,0.921,0.418,1.568,0.763,1.947
		c0.117,0.193,0.315,0.388,0.595,0.602c0.409,0.301,0.615,0.773,0.615,1.415c0,0.476-0.041,0.804-0.119,0.998
		c-0.082,0.185-0.223,0.28-0.422,0.28c-0.049,0-0.375-0.077-0.977-0.231c-0.605-0.146-1.182-0.224-1.732-0.224
		c-0.587,0-1.227,0.076-1.917,0.224c-0.688,0.154-1.082,0.231-1.176,0.231c-0.177,0-0.312-0.098-0.401-0.28
		c-0.096-0.194-0.141-0.466-0.141-0.824c0-0.591,0.195-1.114,0.583-1.569c0.198-0.242,0.351-0.445,0.455-0.621
		c0.315-0.512,0.545-1.2,0.687-2.072c0.145-0.872,0.215-2.006,0.215-3.401v-22.803c0-1.948-0.041-3.306-0.127-4.062
		c-0.082-0.756-0.229-1.396-0.437-1.929c-0.226-0.591-0.579-0.987-1.06-1.19c-0.481-0.213-0.724-0.649-0.724-1.31
		c0-0.396,0.046-0.696,0.142-0.911c0.09-0.203,0.229-0.31,0.408-0.31c0.061,0,0.219,0.038,0.475,0.116
		c0.891,0.242,1.713,0.367,2.479,0.367c0.389,0,1.045-0.078,1.971-0.241c0.924-0.165,1.648-0.242,2.18-0.242
		c1.688,0,2.986,0.949,3.9,2.839c0.914,1.891,1.371,4.574,1.371,8.033c0,2.327-0.24,4.255-0.722,5.786
		C124.146,127.276,123.413,128.469,122.421,129.322L122.421,129.322z M117.547,125.483c0,1.289,0.109,2.074,0.323,2.354
		c0.218,0.281,0.727,0.427,1.525,0.427c1.127,0,1.946-0.543,2.446-1.627c0.503-1.097,0.755-2.859,0.755-5.302
		c0-3.062-0.326-5.476-0.979-7.239c-0.65-1.754-1.554-2.636-2.695-2.636c-0.522,0-0.879,0.3-1.078,0.911
		c-0.198,0.602-0.297,1.852-0.297,3.75V125.483L117.547,125.483z M130.017,111.181c0.346,0.562,0.598,1.327,0.756,2.297
		c0.158,0.959,0.235,2.19,0.235,3.684v22.695c0,2.346-0.067,4.041-0.198,5.078c-0.131,1.047-0.35,1.957-0.658,2.752
		c0.488-0.28,0.834-0.988,1.035-2.123c0.197-1.133,0.295-3.09,0.295-5.871v-22.135c0-1.908-0.111-3.344-0.334-4.322
		C130.922,112.257,130.546,111.578,130.017,111.181L130.017,111.181z M136.382,147.802l0.021,0.233
		c0.054,0.019,0.121,0.039,0.212,0.048c0.293,0.059,0.491,0.087,0.594,0.087c0.74,0,1.349-0.416,1.822-1.259
		c0.474-0.844,0.815-2.113,1.03-3.819l-0.08-0.231c-0.408,1.348-0.901,2.412-1.473,3.197
		C137.935,146.843,137.228,147.424,136.382,147.802L136.382,147.802z M136.151,127.937l0.023,0.34
		c0.211,0.136,0.401,0.291,0.567,0.483c0.161,0.185,0.319,0.438,0.466,0.736h0.079l-0.079-3.431l-0.109,0.049
		c-0.146,0.494-0.293,0.882-0.438,1.152C136.51,127.539,136.345,127.763,136.151,127.937L136.151,127.937z M136.946,110.948
		l0.021,0.232c0.627,0.299,1.102,0.688,1.416,1.162c0.316,0.475,0.568,1.153,0.752,2.045l0.109,0.088
		c-0.03-1.387-0.15-2.336-0.365-2.859c-0.21-0.522-0.586-0.774-1.123-0.774c-0.124,0-0.252,0.011-0.391,0.029
		C137.231,110.88,137.093,110.909,136.946,110.948L136.946,110.948z M133.269,115.183v9.092c0,0.871,0.073,1.492,0.225,1.869
		c0.15,0.379,0.398,0.571,0.744,0.571h0.725c0.516,0,0.926-0.155,1.229-0.465c0.306-0.319,0.558-0.824,0.757-1.521
		c0.102-0.358,0.218-0.922,0.349-1.678c0.191-1.095,0.414-1.646,0.662-1.646c0.12,0,0.206,0.105,0.271,0.33
		c0.062,0.213,0.094,0.514,0.094,0.892c0,0.019-0.022,0.455-0.063,1.308c-0.046,0.844-0.067,1.717-0.067,2.606
		c0,2.346,0.037,4.739,0.108,7.183c0.017,0.493,0.022,0.784,0.022,0.881c0,0.397-0.026,0.679-0.083,0.854
		c-0.056,0.165-0.144,0.252-0.259,0.252c-0.24,0-0.392-0.523-0.451-1.561c-0.045-0.736-0.094-1.317-0.153-1.734
		c-0.17-1.134-0.414-1.919-0.737-2.364c-0.322-0.444-0.838-0.669-1.543-0.669h-0.881c-0.367,0-0.615,0.203-0.748,0.61
		c-0.132,0.407-0.197,1.289-0.197,2.655v9.052c0,2.403,0.114,3.905,0.353,4.485c0.233,0.592,0.718,0.883,1.45,0.883
		c0.752,0,1.488-0.312,2.222-0.92c0.729-0.621,1.326-1.436,1.788-2.463c0.322-0.697,0.605-1.561,0.85-2.588
		c0.24-1.035,0.434-1.55,0.571-1.55c0.095,0,0.173,0.106,0.233,0.329c0.056,0.214,0.086,0.494,0.086,0.833
		c0,0.756-0.082,1.783-0.252,3.062c-0.17,1.289-0.379,2.386-0.627,3.295c-0.31,1.135-0.703,1.969-1.186,2.502
		c-0.48,0.533-1.078,0.793-1.787,0.793c-0.31,0-0.934-0.076-1.869-0.23c-0.936-0.146-1.721-0.224-2.353-0.224
		c-0.771,0-1.552,0.077-2.345,0.224c-0.793,0.154-1.203,0.23-1.223,0.23c-0.176,0-0.312-0.096-0.401-0.279
		c-0.095-0.194-0.14-0.484-0.14-0.883c0-0.532,0.182-1.036,0.541-1.512c0.219-0.28,0.385-0.522,0.496-0.736
		c0.315-0.455,0.545-1.104,0.688-1.957s0.215-1.987,0.215-3.401V118.78c0-1.93-0.046-3.266-0.132-4.021
		c-0.09-0.756-0.248-1.404-0.475-1.958c-0.259-0.591-0.649-0.979-1.172-1.183c-0.525-0.193-0.789-0.641-0.789-1.317
		c0-0.378,0.053-0.679,0.153-0.892c0.103-0.223,0.244-0.329,0.429-0.329c0.022,0,0.112,0.021,0.268,0.058
		c1.255,0.281,2.615,0.428,4.085,0.428c1.063,0,2.255-0.078,3.569-0.242c1.319-0.165,2.108-0.242,2.363-0.242
		c0.402,0,0.654,0.125,0.756,0.387c0.098,0.254,0.146,0.824,0.146,1.717v1.221c0,1.453,0.008,2.927,0.021,4.419
		c0,0.291,0,0.456,0,0.514c0,0.476-0.025,0.785-0.074,0.94c-0.053,0.146-0.146,0.223-0.289,0.223c-0.241,0-0.377-0.455-0.41-1.355
		c-0.033-0.912-0.09-1.58-0.174-2.017c-0.225-1.212-0.623-2.063-1.188-2.56c-0.564-0.494-1.424-0.735-2.576-0.735
		c-0.682,0-1.158,0.242-1.426,0.735C133.401,113.063,133.269,113.933,133.269,115.183L133.269,115.183z"/>
	<path fill="#FFFFFF" d="M102.586,52.211c1.655-6.682,0.253-12.588-5.327-18.111c-6.841-6.77-11.717-19.498-1.191-23.707
		c-1.639,6.351-4.474,11.554,4.35,21.347C106.585,38.585,109.365,46.91,102.586,52.211L102.586,52.211z"/>
	<path fill="#FFFFFF" d="M119.231,52.211c1.654-6.682,0.254-12.588-5.328-18.111c-6.84-6.77-11.717-19.498-1.189-23.707
		c-1.639,6.351-4.474,11.554,4.352,21.347C123.231,38.585,126.011,46.91,119.231,52.211L119.231,52.211z"/>
	<path fill="#FFFFFF" d="M90.836,180.715c-2.206,0-4.412,0-6.618,0c-1.234-4.294-10.009-7.534-18.938-7.774l-17.537-0.935
		l13.287,0.131c20.687-0.1,22.983,3.449,25.188,6.626c1.128,0,2.257,0,3.386,0c0.257-0.3,0.513-0.601,0.77-0.9
		c0.822,0,1.645,0,2.467,0C92.173,178.812,91.505,179.765,90.836,180.715L90.836,180.715z"/>
	<path fill="#FFFFFF" d="M101.919,180.715c2.206,0,4.412,0,6.618,0c1.233-4.294,10.008-7.534,18.937-7.774l17.537-0.935
		l-13.285,0.131c-20.688-0.1-22.984,3.449-25.188,6.626c-1.129,0-2.257,0-3.386,0c-0.258-0.3-0.514-0.601-0.771-0.9
		c-0.821,0-1.646,0-2.467,0C100.582,178.812,101.25,179.765,101.919,180.715L101.919,180.715z"/>
	<path fill="#FFFFFF" d="M99.153,177.282c-2.564,0-9.907,0-12.473,0c-2.308-2.452-4.463-4.004-11.542-5.105
		c5.438,0,10.876,0,16.314,0c0.41,0.801,0.82,1.602,1.23,2.402c-0.821,0-1.642,0-2.462,0c-0.256-0.2-0.513-0.4-0.77-0.602
		c-0.821,0-2.104,0-2.924,0c0.359,0.451,1.18,0.901,1.54,1.353c2.104,0,8.985,0,11.09,0
		C99.153,175.981,99.153,176.632,99.153,177.282L99.153,177.282z"/>
	<path fill="#FFFFFF" d="M98.38,177.282c2.564,0,5.13,0,7.694,0c2.309-2.452,4.463-4.004,11.543-5.105c-5.438,0-10.877,0-16.313,0
		c-0.41,0.801-0.82,1.602-1.23,2.402c0.82,0,1.642,0,2.463,0c0.256-0.2,0.513-0.4,0.77-0.602c0.82,0,2.104,0,2.924,0
		c-0.358,0.451-1.181,0.901-1.539,1.353c-2.104,0-4.207,0-6.312,0C98.378,175.981,98.379,176.632,98.38,177.282L98.38,177.282z"/>
	<polygon fill="#FFFFFF" points="95.422,172.067 97.334,172.067 97.334,179.713 95.422,179.713 	"/>
	<polygon fill="#FFFFFF" points="97.729,179.713 96.378,181.063 95.026,179.713 96.378,178.36 	"/>
</g>
</svg>
