<?xml version="1.0" encoding="utf-8"?>
<!-- Generator: Adobe Illustrator 16.0.0, SVG Export Plug-In . SVG Version: 6.00 Build 0)  -->
<!DOCTYPE svg PUBLIC "-//W3C//DTD SVG 1.1//EN" "http://www.w3.org/Graphics/SVG/1.1/DTD/svg11.dtd">
<svg version="1.1" id="Layer_1" xmlns="http://www.w3.org/2000/svg" xmlns:xlink="http://www.w3.org/1999/xlink" x="0px" y="0px"
	 width="246.818px" height="92.988px" viewBox="0 0 246.818 92.988" enable-background="new 0 0 246.818 92.988"
	 xml:space="preserve">
<g>
	<path fill-rule="evenodd" clip-rule="evenodd" fill="#00A651" d="M204.668,59.738c0.129-0.064,0.35,1.131-0.246,0.295
		c-2.441,1.025-10.461-4.52-9.354-10.796c1.535,1.105,5.91,0.295,8.457,3.321C205.783,55.282,204.982,58.803,204.668,59.738
		L204.668,59.738z"/>
	<path fill-rule="evenodd" clip-rule="evenodd" fill="#00A651" d="M205.623,62.195c-1.521,1.558,0.947-0.034,0.262,0.428
		c2.965,1.794,14.4-3.854,14.162-12.189c-2.195,1.14-7.705-0.744-11.576,2.687C205.025,56.216,205.395,60.926,205.623,62.195
		L205.623,62.195z"/>
	<path fill-rule="evenodd" clip-rule="evenodd" fill="#F58220" d="M36.054,50.442c-0.395,0.682-0.909,1.303-1.539,1.863
		c-1.69,1.497-3.591,2.246-5.706,2.246c-0.96,0-1.9-0.182-2.822-0.546c-0.922-0.365-1.787-0.913-2.594-1.643
		c-0.845,0.498-1.698,0.912-2.563,1.238c-0.865,0.327-1.738,0.566-2.622,0.721c-0.422,0.076-0.856,0.135-1.297,0.172
		c-0.442,0.039-0.874,0.058-1.295,0.058c-4.074,0-7.694-1.498-10.862-4.494C1.585,47.062,0,43.278,0,38.708
		c0-4.495,1.566-8.269,4.697-11.323c3.13-3.054,6.75-4.58,10.859-4.58c0.461,0,0.913,0.018,1.354,0.058
		c0.441,0.037,0.875,0.095,1.297,0.172c0.421,0.115,0.854,0.23,1.296,0.346c0.442,0.114,0.893,0.25,1.354,0.403
		c0-0.23,0-0.47,0-0.721c0-0.249,0-0.508,0-0.777c-0.037-1.614,0.031-14.277,0.202-15.773c0.172-1.498,0.893-2.883,2.162-4.149
		c1.19-1.191,2.411-1.882,3.657-2.075C28.128,0.096,29.444,0,30.828,0c0.153,0,0.296,0,0.43,0c0.134,0,0.278,0,0.433,0v1.613h-1.959
		v51.326c1.613-0.191,2.967-0.903,4.062-2.132c0.693-0.779,1.167-1.64,1.42-2.587c-0.115-0.556-0.173-1.133-0.173-1.734
		c0-3.688,0-7.376,0-11.063c0-3.688,0-7.356,0-11.006H32.91v-1.613c0.538,0,1.037,0,1.499,0s0.921,0,1.382,0
		c2.267,0,4.188,0.786,5.763,2.362c1.574,1.575,2.362,3.495,2.362,5.761c0,3.649,0,7.31,0,10.978c0,3.667,0,7.347,0,11.034
		c1.612-0.191,2.967-0.903,4.061-2.132c1.095-1.23,1.643-2.671,1.643-4.321c0-0.077,0-0.154,0-0.23c0-0.078,0-0.174,0-0.288
		c0-0.077,0-0.154,0-0.23c0-0.078,0-0.155,0-0.231h1.613c0,0.076,0,0.154,0,0.231c0,0.076,0,0.153,0,0.23c0,0.114,0,0.21,0,0.288
		c0,0.076,0,0.153,0,0.23c0,2.229-0.798,4.13-2.391,5.704c-1.594,1.575-3.505,2.361-5.733,2.361c-2.229,0-4.13-0.786-5.703-2.361
		C36.861,51.646,36.41,51.063,36.054,50.442L36.054,50.442z M22.357,51.153c-0.462-0.652-0.826-1.385-1.095-2.189
		c-0.271-0.808-0.405-1.633-0.405-2.478c0-1.767,0-3.525,0-5.272c0-1.75,0-3.506,0-5.272c0-1.729,0-3.468,0-5.215
		c0-1.748,0-3.506,0-5.272c-0.844-0.346-1.718-0.615-2.62-0.807c-0.903-0.193-1.815-0.27-2.738-0.23
		c-1.575,0-2.919,0.557-4.033,1.67s-1.671,2.458-1.671,4.032c0,2.845,0,5.696,0,8.56c0,2.86,0,5.711,0,8.556
		c0,1.575,0.567,2.928,1.699,4.061c1.134,1.135,2.489,1.7,4.062,1.7c1.191,0,2.364-0.153,3.515-0.461
		C20.226,52.229,21.32,51.769,22.357,51.153L22.357,51.153z M44.318,15.89c0,1.304-0.46,2.419-1.382,3.342
		c-0.922,0.92-2.037,1.381-3.342,1.381c-1.305,0-2.409-0.461-3.312-1.381c-0.903-0.923-1.354-2.038-1.354-3.342
		c0-1.344,0.452-2.479,1.354-3.4c0.903-0.921,2.007-1.384,3.312-1.384c1.306,0,2.42,0.463,3.342,1.384
		C43.858,13.411,44.318,14.546,44.318,15.89L44.318,15.89z M76.76,28.288c-0.091,0.103-0.184,0.207-0.28,0.308
		c-1.267,1.326-2.823,2.025-4.667,2.102c-1.268,3.958-2.535,7.924-3.803,11.899c-1.267,3.977-2.536,7.962-3.803,11.956h-9.105
		c-0.729-2.496-1.469-5.003-2.218-7.519c-0.75-2.517-1.489-5.042-2.217-7.577c-0.77-2.498-1.519-5.003-2.249-7.52
		c-0.729-2.516-1.458-5.024-2.188-7.52h-1.902v-1.613c0.77,0,1.538,0,2.304,0c0.77,0,1.539,0,2.306,0
		c1.807,0,3.428,0.546,4.869,1.642c1.44,1.095,2.41,2.507,2.909,4.235c0.577,1.921,1.142,3.851,1.7,5.792
		c0.556,1.939,1.105,3.888,1.644,5.848c0.536,1.92,1.084,3.85,1.641,5.791c0.558,1.94,1.123,3.89,1.7,5.848l6.798-21.376
		c-0.614-0.155-1.219-0.385-1.815-0.692c-0.595-0.308-1.122-0.709-1.584-1.209c-0.27-0.269-0.49-0.566-0.663-0.893
		c-0.173-0.327-0.297-0.663-0.375-1.009c0-0.077-0.01-0.173-0.03-0.288s-0.027-0.231-0.027-0.346
		c0.038-0.96,0.393-1.825,1.065-2.593c0.672-0.768,1.546-1.154,2.623-1.154c1.114,0,2.017,0.375,2.708,1.126
		c0.691,0.749,1.019,1.621,0.978,2.621c0,0.154-0.009,0.336-0.026,0.546c-0.02,0.212-0.068,0.415-0.145,0.605
		c-0.076,0.27-0.163,0.549-0.26,0.836c-0.096,0.288-0.201,0.585-0.317,0.894c1.268-0.193,2.324-0.769,3.17-1.73
		c0.731-0.83,1.146-1.79,1.243-2.88h-2.118v-1.613c0.538,0,1.037,0,1.498,0c0.461,0,0.923,0,1.384,0
		c2.265,0,4.186,0.786,5.762,2.362c1.576,1.575,2.362,3.495,2.362,5.761c0,3.649,0,7.31,0,10.978c0,3.667,0,7.347,0,11.034
		c1.614-0.191,2.967-0.903,4.062-2.132c0.6-0.673,1.036-1.41,1.305-2.21v-24.18h-2.478v-1.613h3.284c1.69,0,3.218,0.469,4.582,1.412
		c1.363,0.941,2.353,2.198,2.966,3.774c0.768-1.576,1.922-2.833,3.458-3.774c1.537-0.943,3.187-1.412,4.955-1.412
		c2.613,0,4.84,0.92,6.684,2.764c1.844,1.846,2.767,4.074,2.767,6.685c0,1.729,0,3.458,0,5.188c0,1.728,0,3.437,0,5.128
		c0,1.727,0,3.456,0,5.186c0,1.728,0,3.456,0,5.186c1.612-0.191,2.966-0.903,4.061-2.132c1.096-1.23,1.643-2.671,1.643-4.321
		c0-0.077,0-0.154,0-0.23c0-0.078,0-0.174,0-0.288c0-0.077,0-0.154,0-0.23c0-0.078,0-0.155,0-0.231h0.03
		c-0.992-2.069-1.487-4.334-1.487-6.799c0-4.341,1.536-8.077,4.61-11.208c3.072-3.13,6.797-4.695,11.176-4.695
		c4.344,0,8.059,1.565,11.15,4.695s4.641,6.866,4.641,11.208c0,4.303-1.549,8.019-4.641,11.149s-6.807,4.695-11.15,4.695
		c-4.379,0-8.104-1.556-11.176-4.667c-0.643-0.649-1.215-1.328-1.727-2.029c-0.068,0.423-0.162,0.831-0.273,1.224
		c-0.308,1.075-0.959,2.112-1.959,3.111c-0.729,0.729-1.498,1.277-2.305,1.643c-0.806,0.364-1.633,0.585-2.477,0.661
		c-0.153,0.039-0.298,0.058-0.432,0.058c-0.135,0-0.279,0-0.433,0c-2.074,0-3.947-0.738-5.618-2.218
		c-1.671-1.479-2.506-3.429-2.506-5.848c0-1.5,0-2.987,0-4.466c0-1.479,0-2.967,0-4.467c0-1.498,0-2.987,0-4.465s0-2.968,0-4.464
		c0-0.154-0.01-0.317-0.028-0.49c-0.021-0.173-0.048-0.355-0.087-0.547c-0.191-0.69-0.519-1.326-0.98-1.9
		c-0.461-0.578-1.037-0.847-1.728-0.808c-0.076,0-0.153,0-0.231,0c-0.076,0-0.153,0.02-0.229,0.059
		c-0.077,0-0.153,0.009-0.229,0.028c-0.078,0.019-0.154,0.047-0.232,0.086c-1.422,0.614-2.563,1.574-3.429,2.881
		c-0.864,1.304-1.295,2.747-1.295,4.32v22.299H91v-2.831c-0.14,0.159-0.286,0.316-0.439,0.47c-1.597,1.575-3.507,2.361-5.735,2.361
		s-4.129-0.786-5.703-2.361c-1.577-1.574-2.362-3.476-2.362-5.704c0-3.688,0-7.376,0-11.063C76.76,33.035,76.76,30.657,76.76,28.288
		L76.76,28.288z M86.036,15.89c0,1.304-0.461,2.419-1.383,3.342c-0.922,0.92-2.036,1.381-3.343,1.381
		c-1.306,0-2.409-0.461-3.313-1.381c-0.903-0.923-1.354-2.038-1.354-3.342c0-1.344,0.452-2.479,1.354-3.4
		c0.904-0.921,2.007-1.384,3.313-1.384c1.307,0,2.421,0.463,3.343,1.384C85.575,13.411,86.036,14.546,86.036,15.89L86.036,15.89z
		 M142.955,47.235c0-2.844,0-5.695,0-8.556c0-2.863,0-5.715,0-8.56c0-1.574-0.566-2.918-1.699-4.032s-2.486-1.67-4.061-1.67
		c-1.537,0-2.871,0.557-4.006,1.67s-1.699,2.458-1.699,4.032c0,2.845,0,5.696,0,8.56c0,2.86,0,5.711,0,8.556
		c0,1.575,0.564,2.928,1.699,4.061c1.135,1.135,2.469,1.7,4.006,1.7c1.574,0,2.928-0.565,4.061-1.7
		C142.389,50.163,142.955,48.811,142.955,47.235L142.955,47.235z"/>
	<path fill-rule="evenodd" clip-rule="evenodd" fill="#ED1C24" d="M205.201,64.238c-1.52-0.002-2.957-0.872-4.324-0.918
		c-0.025-0.001-0.049-0.001-0.076-0.001c-2.547-0.09-4.82,0.136-6.816,2.157c-3.074,3.111-4.609,7.839-4.609,12.18
		c0,4.34,1.535,8.077,4.609,11.208c2.74,2.792,7.619,5.323,10.307,3.516c1.33-0.499,0.494-0.497,1.824,0.003
		c2.688,1.802,7.562-0.729,10.303-3.519c3.072-3.131,4.609-6.868,4.609-11.208c0-0.232-0.004-0.468-0.014-0.704
		c-1.906,0.523-4.266-1.794-5.273-5.188c-0.783-2.638-0.529-5.174,0.508-6.457C212.541,61.729,209.229,64.232,205.201,64.238
		L205.201,64.238z"/>
	<path fill-rule="evenodd" clip-rule="evenodd" fill="#FFCB05" d="M187.662,77.14c0,4.189-1.412,7.875-4.234,11.063
		c-2.824,3.188-6.387,4.783-10.689,4.783c-3.879,0-7.289-1.114-10.227-3.342c-1.045-0.793-1.904-1.708-2.578-2.745
		c-0.047,0.209-0.1,0.413-0.156,0.612c-0.307,1.075-0.939,2.112-1.9,3.111c-0.73,0.73-1.586,1.306-2.564,1.729
		c-0.979,0.424-2.025,0.635-3.139,0.635c-1.115,0-2.162-0.211-3.141-0.635c-0.98-0.423-1.836-0.998-2.566-1.729
		c-1.229,0.808-2.533,1.403-3.918,1.786c-1.381,0.385-2.783,0.577-4.205,0.577c-0.117,0-0.221,0-0.318,0c-0.096,0-0.201,0-0.316,0
		c-1.881-0.077-3.727-0.509-5.531-1.298c-1.807-0.786-3.418-1.91-4.84-3.369c-1.537-1.574-2.68-3.333-3.429-5.272
		c-0.749-1.939-1.123-3.928-1.123-5.964c0-2.037,0.384-4.024,1.153-5.965c0.766-1.94,1.901-3.678,3.399-5.215
		c1.498-1.535,3.209-2.697,5.129-3.485c1.92-0.787,3.879-1.182,5.877-1.182c0.998,0,1.967,0.098,2.91,0.288
		c0.941,0.193,1.871,0.48,2.793,0.865v-1.153h8.875v30.136c0.768-0.076,1.469-0.278,2.102-0.604c0.635-0.328,1.201-0.74,1.699-1.24
		c0.809-0.846,1.336-1.718,1.586-2.621c0.229-0.828,0.354-1.729,0.371-2.703c-0.383-1.25-0.576-2.624-0.576-4.125
		c0-2.421,0-4.83,0-7.23c0-2.402,0-4.812,0-7.232c0-0.807,0-1.612,0-2.419c0-0.808,0-1.613,0-2.422c0-1.613,0-27.187,0-28.78
		c0-1.596,0-3.198,0-4.812h-2.189v-1.614c0.537,0,1.037,0,1.498,0s0.941,0,1.439,0c2.229,0,4.139,0.789,5.734,2.363
		c1.594,1.574,2.391,3.477,2.391,5.705c0,0.844,0,1.689,0,2.535c0,0.843,0,25.659,0,26.505c0.998-0.499,2.008-0.854,3.025-1.067
		c1.018-0.211,2.006-0.316,2.967-0.316c3.881,0,7.299,1.518,10.256,4.552C186.184,68.882,187.662,72.646,187.662,77.14
		L187.662,77.14z M246.818,65.327c0,1.114-0.387,2.018-1.152,2.709c-0.768,0.69-1.633,1.019-2.594,0.98
		c-0.461,0-0.91-0.087-1.354-0.26c-0.441-0.174-0.836-0.433-1.182-0.778c-0.383-0.383-0.662-0.808-0.836-1.267
		c-0.172-0.462-0.258-0.942-0.258-1.44c0-0.539,0.125-1.058,0.373-1.557c0.25-0.499,0.605-0.94,1.066-1.325
		c-0.268-0.039-0.527-0.049-0.777-0.029c-0.25,0.021-0.51,0.048-0.777,0.087c-1.73,0.192-3.322,0.931-4.783,2.217
		c-1.459,1.289-2.189,2.835-2.189,4.641v23.682h-8.988c0-2.498,0-5.004,0-7.521c0-2.514,0-5.04,0-7.575c0-2.496,0-5.005,0-7.521
		s0-5.021,0-7.519h-2.074v-1.614c0.23,0,0.469,0,0.721,0c0.25,0,0.488,0,0.719,0s0.473,0,0.721,0s0.49,0,0.721,0
		c1.611,0,3.082,0.451,4.408,1.354c1.324,0.904,2.332,2.084,3.025,3.544c0.844-1.69,2.043-3.005,3.6-3.948
		c1.555-0.94,3.217-1.392,4.984-1.352c0.27,0,0.537,0.008,0.807,0.026c0.27,0.021,0.518,0.05,0.748,0.088
		c0.537,0.115,1.078,0.26,1.613,0.432c0.539,0.174,1.037,0.413,1.498,0.721c0.615,0.307,1.098,0.749,1.443,1.325
		C246.645,64.004,246.818,64.636,246.818,65.327L246.818,65.327z M145.43,89.414c-0.422-0.653-0.758-1.355-1.006-2.104
		c-0.252-0.749-0.377-1.546-0.377-2.392V64.06c-0.883-0.421-1.816-0.729-2.793-0.921c-0.979-0.192-1.971-0.288-2.967-0.288
		c-1.576,0-2.92,0.558-4.033,1.671c-1.115,1.113-1.674,2.459-1.674,4.034c0,2.842,0,5.694,0,8.556s0,5.715,0,8.557
		c0,1.574,0.568,2.93,1.701,4.063c1.133,1.131,2.486,1.699,4.062,1.699c1.229,0,2.449-0.174,3.66-0.519
		C143.211,90.565,144.355,90.065,145.43,89.414L145.43,89.414z M121.419,83.882c0,2.535-1.297,4.686-3.89,6.453
		c-2.593,1.768-5.945,2.651-10.053,2.651c-1.922,0-3.718-0.271-5.389-0.807c-1.669-0.538-3.121-1.268-4.35-2.19
		c-1.267-0.998-2.257-2.151-2.966-3.456c-0.712-1.308-1.068-2.729-1.068-4.266h1.556c0,1.269,0.308,2.459,0.923,3.573
		c0.613,1.114,1.459,2.073,2.535,2.88c1.074,0.848,2.287,1.479,3.63,1.902c1.345,0.424,2.708,0.673,4.092,0.749
		c0.19,0.039,0.394,0.059,0.604,0.059c0.212,0,0.414,0,0.604,0c0.424,0,0.855-0.02,1.297-0.059c0.442-0.039,0.854-0.076,1.238-0.115
		c0.347-0.038,0.732-0.114,1.154-0.23c0.422-0.114,0.845-0.249,1.268-0.403c0.883-0.346,1.7-0.806,2.448-1.383
		c0.749-0.575,1.123-1.306,1.123-2.19c0-0.844-0.442-1.604-1.325-2.275c-0.884-0.673-1.863-1.258-2.938-1.757
		c-0.385-0.154-0.759-0.309-1.124-0.461c-0.365-0.153-0.702-0.309-1.008-0.462c-0.308-0.114-0.614-0.238-0.922-0.374
		c-0.308-0.135-0.614-0.259-0.922-0.374c-0.306-0.116-0.613-0.239-0.921-0.374c-0.307-0.136-0.615-0.26-0.923-0.375
		c-0.575-0.231-1.181-0.47-1.812-0.721c-0.636-0.249-1.258-0.528-1.874-0.835c-2.073-0.922-3.977-2.103-5.704-3.544
		c-1.729-1.44-2.593-3.294-2.593-5.562c0-1.345,0.365-2.554,1.095-3.629c0.728-1.076,1.729-1.978,2.996-2.709
		c1.268-0.768,2.766-1.353,4.494-1.758c1.729-0.402,3.572-0.604,5.532-0.604c0.422,0,0.854,0.021,1.295,0.058
		c0.441,0.04,0.894,0.097,1.355,0.173c1.151,0.231,2.295,0.615,3.429,1.154c1.133,0.536,2.103,1.209,2.91,2.015
		c0.383,0.385,0.663,0.799,0.834,1.24c0.174,0.441,0.261,0.912,0.261,1.412c0,0.92-0.336,1.767-1.009,2.535
		c-0.671,0.767-1.566,1.151-2.679,1.151c-1.151,0-2.056-0.394-2.708-1.182c-0.653-0.787-0.981-1.661-0.981-2.622
		c0-0.652,0.185-1.285,0.548-1.899c0.366-0.616,0.932-1.077,1.701-1.384c-0.883-0.384-1.776-0.653-2.68-0.807
		c-0.903-0.154-1.816-0.23-2.736-0.23c-0.5,0-0.99,0.019-1.47,0.059c-0.48,0.037-0.971,0.094-1.47,0.172
		c-0.307,0.039-0.633,0.116-0.979,0.229c-0.346,0.116-0.711,0.231-1.095,0.348c-0.807,0.346-1.556,0.786-2.246,1.325
		c-0.691,0.537-1.038,1.209-1.038,2.016c0,0.5,0.182,0.961,0.546,1.383c0.365,0.422,0.78,0.77,1.24,1.037
		c0.115,0.076,0.23,0.153,0.345,0.231c0.115,0.076,0.232,0.133,0.346,0.173c1.037,0.46,2.066,0.912,3.084,1.354
		c1.018,0.441,2.043,0.873,3.081,1.297c1.037,0.421,2.074,0.854,3.111,1.296c1.038,0.441,2.075,0.893,3.112,1.354
		c0.04,0,0.067,0.01,0.086,0.03c0.021,0.02,0.05,0.027,0.087,0.027c1.73,0.769,3.313,1.902,4.754,3.4
		C120.7,80.079,121.419,81.847,121.419,83.882L121.419,83.882z M178.615,85.668c0-2.842,0-5.695,0-8.557s0-5.714,0-8.556
		c0-1.691-0.596-3.074-1.787-4.148c-1.189-1.077-2.572-1.616-4.146-1.616c-0.039,0-0.088,0-0.145,0s-0.125,0-0.201,0
		c-0.039,0.04-0.086,0.06-0.145,0.06s-0.125,0-0.201,0c-1.422,0.192-2.613,0.825-3.574,1.902c-0.959,1.074-1.439,2.342-1.439,3.803
		c0,2.842,0,5.694,0,8.556s0,5.715,0,8.557c0,1.538,0.537,2.862,1.611,3.977c1.078,1.113,2.385,1.709,3.92,1.786
		c1.652,0.036,3.084-0.49,4.293-1.585S178.615,87.358,178.615,85.668L178.615,85.668z"/>
</g>
</svg>
