<?xml version="1.0" encoding="utf-8"?>
<!-- Generator: Adobe Illustrator 16.0.0, SVG Export Plug-In . SVG Version: 6.00 Build 0)  -->
<!DOCTYPE svg PUBLIC "-//W3C//DTD SVG 1.1//EN" "http://www.w3.org/Graphics/SVG/1.1/DTD/svg11.dtd">
<svg version="1.1" id="Layer_1" xmlns="http://www.w3.org/2000/svg" xmlns:xlink="http://www.w3.org/1999/xlink" x="0px" y="0px"
	 width="136.113px" height="175.781px" viewBox="28.323 8.492 136.113 175.781"
	 enable-background="new 28.323 8.492 136.113 175.781" xml:space="preserve">
<g>
	<path fill="#ED1C24" d="M40.618,117.229c1.363,2.586,1.795,3.121,0.39,5.025c-0.286,0.387-0.667,0.735-0.341,1.354
		c0.325,0.617,0.745,0.627,1.092,0.357c0.508-0.394,0.961-0.963,1.442-1.336c2.245-1.74,4.571-3.327,6.816-5.068
		c5.051-3.916,7.822-12.873,3.632-20.827c-2.116-4.015-5.329-6.254-8.772-6.574c-3.276-0.288-5.939,1.017-8.505,3.006
		c-1.176,0.912-8.214,6.915-7.279,8.691c0.468,0.888,0.934,0.199,1.314-0.149c1.442-1.336,2.074,0.078,3.111,2.046L40.618,117.229
		L40.618,117.229z M37.399,99.332c-1.383-2.625-1.682-3.264,0.242-4.756c3.955-3.067,8.794,0.901,11.5,6.036
		c1.302,2.471,2.427,5.677,2.516,8.49c0.136,2.83-0.68,5.64-2.444,7.006c-2.218,1.722-3.312-0.641-4.674-3.227L37.399,99.332
		L37.399,99.332z M69.834,90.491c1.005-0.491,1.64-0.849,1.051-2.38c-0.684-1.779-2.101-2.906-3.504-3.45
		c-1.751-0.718-3.676-0.516-5.214,0.235c-4.052,1.977-6.629,7.607-4.354,13.524c2.26,5.875,7.48,8.397,11.65,6.362
		c1.775-0.866,3.188-2.398,4.112-4.473c0.3-0.588,0.965-2.238,0.646-3.066c-0.143-0.372-0.445-0.52-0.682-0.403
		c-0.71,0.347-0.829,2.959-3.077,4.056c-3.194,1.56-6.645-1.475-8.188-5.487c-0.445-1.158-0.102-1.179,0.637-1.54L69.834,90.491
		L69.834,90.491z M62.561,92.222c-0.443,0.217-0.944,0.559-1.23-0.186c-0.334-0.869-0.368-2.327-0.238-3.176
		c0.242-1.199,0.965-2.24,1.853-2.673c1.124-0.548,2.336,0.138,2.925,1.668c0.398,1.034,0.404,1.965-0.299,2.603
		C64.927,91.067,63.359,91.832,62.561,92.222L62.561,92.222z M76.108,97.688c0.342,1.152,0.569,1.638,1.528,1.941
		c1.5,0.488,3.373,0.116,4.72-0.391c1.653-0.621,3.35-1.741,4.269-3.559c0.95-1.829,1.219-4.161,0.459-6.487
		c-1.16-3.551-3.817-4.213-6.325-4.315l-1.919-0.086c-0.967-0.016-2.539-0.09-3.022-1.57c-0.58-1.775,0.693-2.824,1.734-3.215
		c1.806-0.679,2.563,0.271,4.123,1.678c0.338,0.3,0.943,0.785,1.372,0.624c0.643-0.242,0.154-1.529,0.052-2.156l-0.332-1.015
		c-0.387-1.184-0.517-1.372-1.426-1.315c-1.363,0.038-3.249,0.367-4.474,0.827c-2.725,1.024-5.449,4.47-4.068,8.698
		c1.312,4.017,5.623,4.058,8.236,4.167c1.298,0.081,2.924,0.324,3.546,2.227c0.622,1.903-0.967,3.354-2.13,3.792
		c-3.98,1.496-5.325-3.884-6.672-3.378c-0.673,0.253-0.38,1.045-0.19,1.733L76.108,97.688L76.108,97.688z M93.864,76.954
		c-0.104-0.387-0.113-0.292,0.989-0.591l1.733-0.469c0.661-0.179,1.147-0.127,0.838-1.15c-0.253-0.808-0.263-1.221-0.925-1.041
		L94.2,74.326c-1.134,0.307-1,0.179-1.524-1.755c-0.337-1.247-1.774-6.301-0.262-6.71c1.071-0.291,2.837,3.983,4.129,3.633
		c0.882-0.239,1.082-3.246,0.813-4.234c-0.536-1.977-3.35-1.63-4.294-1.374c-3.718,1.007-6.073,4.92-5.137,10.249
		c0.185,1.057,0.372,1.745-0.444,2.104c-0.575,0.248-1.368,0.693-1.077,1.768c0.233,0.86,0.982,0.38,1.392,0.269
		c1.197-0.324,1.118-0.118,1.223,0.269l3.632,13.41c0.035,0.129,0.431,1.59-1.41,2.412c-0.354,0.188-0.792,0.445-0.583,1.219
		c0.174,0.645,0.515,0.651,0.956,0.532c1.512-0.409,3.001-0.905,4.513-1.314c1.449-0.393,2.921-0.699,4.435-1.108
		c0.408-0.111,0.698-0.29,0.523-0.934c-0.21-0.774-0.843-0.741-1.275-0.716c-1.813,0.169-2.209-1.293-2.244-1.421L93.864,76.954
		L93.864,76.954z M105.495,72.154c-0.096-0.435-0.275-1.576-0.791-1.488c-0.678,0.116-0.863,0.644-0.991,0.981
		c-0.688,1.605-2.235,2.952-3.519,3.667c-0.326,0.191-1.329,0.498-1.16,1.28c0.16,0.739,0.667,0.607,1.127,0.574
		c1.572,0.001,1.691,1.018,2.087,2.844l1.385,6.39c0.216,1,0.556,2.564,0.527,3.516c-0.029,0.636-1.021,0.851-1.452,1.014
		c-0.368,0.153-0.698,0.48-0.576,1.045c0.16,0.739,0.729,0.739,1.146,0.668c1.354-0.232,2.625-0.539,3.979-0.771
		s2.728-0.376,4.081-0.608c0.419-0.071,0.979-0.265,0.818-1.004c-0.122-0.564-0.598-0.754-0.973-0.781
		c-0.607-0.031-1.598,0.184-1.899-0.441c-0.425-0.874-0.666-2.456-0.882-3.456l-0.934-4.303c-0.291-1.348-1.529-5.825,0.084-6.1
		c0.967-0.166,1.738,2.317,3.803,1.964c1.449-0.248,2.336-2.022,1.912-3.979c-0.424-1.956-2.103-3.066-3.455-2.835
		c-2.645,0.452-3.282,3.987-3.83,4.081L105.495,72.154L105.495,72.154z M131.187,70.344c-0.1-0.612-0.078-1.5-0.668-1.455
		c-1.019,0.077-2.021,0.241-3.039,0.317c-1.018,0.077-2.049,0.066-3.065,0.142c-0.427,0.032-0.991,0.03-0.863,0.818
		c0.093,0.569,0.522,0.758,0.897,0.818c0.646,0.084,1.322,0.167,1.799,0.839c0.482,0.717,0.67,2.474,0.807,3.306l1.17,7.175
		c0.172,1.05,0.405,1.874-0.057,2.706s-1.365,1.608-2.218,1.672c-0.755,0.057-1.621-0.365-2.158-1.21
		c-0.536-0.845-0.886-2.369-1.05-3.375l-1.922-11.768c-0.1-0.613-0.213-0.693-0.639-0.661c-1.019,0.077-1.988,0.238-3.006,0.315
		c-1.018,0.077-2.017,0.063-3.033,0.139c-0.427,0.032-0.996,0.031-0.875,0.774c0.1,0.613,0.534,0.801,0.909,0.862
		c0.652,0.128,1.315,0.122,1.798,0.839c0.483,0.717,0.703,2.472,0.832,3.259l1.144,7c0.307,1.881,0.767,3.884,1.936,5.346
		c1.082,1.336,2.74,1.927,4.054,1.829c1.869-0.141,3.16-1.396,4.4-2.952c0.109-0.141,0.355-0.469,0.553-0.484
		c0.426-0.032,0.51,1.291,0.553,1.553c0.078,0.481,0.068,1.641,0.658,1.596c0.361-0.027,0.986-0.472,1.293-0.628l3.197-1.577
		c0.381-0.117,1.461-0.419,1.338-1.163c-0.084-0.525-0.402-0.634-0.736-0.653c-0.94-0.062-1.573-0.28-1.728-1.42L131.187,70.344
		L131.187,70.344z M142.509,72.816c-0.146-1.75-0.144-1.707,0.958-1.637l1.636,0.104c0.901,0.057,1.14,0.116,1.037-1.11
		c-0.093-1.094-0.574-0.907-1.275-0.952l-1.735-0.11c-0.868-0.055-1.065-0.024-1.168-1.25l-0.254-3.02
		c-0.051-0.613-0.002-1.611-0.703-1.655c-0.567-0.036-0.828,0.818-1.014,1.372c-0.78,2.171-2.318,3.641-4.04,4.489
		c-0.354,0.151-1.024,0.458-0.969,1.114c0.059,0.7,1.107,0.549,1.543,0.577c0.334,0.021,0.744,0.178,0.849,0.62
		c0.096,0.354,0.226,1.494,0.255,1.844l0.768,9.147c0.137,1.62,0.494,3.514,1.377,4.919c0.767,1.224,2.123,1.971,3.227,2.041
		c1.535,0.097,3.134-0.636,4.15-1.964c0.238-0.333,0.832-1.166,0.785-1.735c-0.029-0.35-0.219-0.624-0.453-0.638
		c-0.5-0.032-1.127,1.191-2.229,1.121c-1.771-0.112-1.995-4.393-2.132-6.013L142.509,72.816L142.509,72.816z M162.582,79.701
		c1.142,0.201,1.88,0.289,1.853-1.318c-0.033-1.867-1-3.639-2.16-4.926c-1.436-1.638-3.359-2.627-5.105-2.935
		c-4.602-0.812-9.066,2.252-8.959,8.461c0.105,6.165,4.246,11.361,8.98,12.196c2.015,0.355,3.916-0.052,5.537-1.194
		c0.496-0.302,1.719-1.255,1.703-2.123c-0.007-0.391-0.246-0.693-0.516-0.74c-0.807-0.143-1.841,1.926-4.393,1.476
		c-3.627-0.64-5.881-5.193-5.955-9.404c-0.021-1.216,0.316-1.026,1.156-0.878L162.582,79.701L162.582,79.701z M154.966,76.755
		c-0.504-0.089-1.105-0.108-1.119-0.89c-0.017-0.912,0.465-2.125,0.889-2.743c0.656-0.836,1.72-1.255,2.728-1.077
		c1.276,0.225,2.202,1.514,2.229,3.121c0.02,1.085-0.303,1.851-1.205,1.951C157.651,77.229,155.872,76.915,154.966,76.755
		L154.966,76.755z"/>
	<path fill="#ED1C24" d="M123.866,71.543c27.576-25.566,2.012-54.182-11.443-45.688C134.843,26.956,137.938,52.384,123.866,71.543
		L123.866,71.543z"/>
	<path fill="#ED1C24" d="M90.807,30.98c-0.537,0.171-1.111-0.126-1.282-0.663c-0.171-0.536,0.126-1.111,0.663-1.282
		c15.379-4.902,17.95,10.431,17.454,9.193C104.649,30.772,99.04,28.356,90.807,30.98L90.807,30.98z"/>
	<polygon fill="#00A651" points="93.827,18.62 98.565,16.936 103.854,27.558 102.104,27.768 	"/>
	<path fill="#00A651" d="M129.244,9.948c-0.212,4.886-5.132,9.455-12.021,10.954c-3.193,0.694-8.65,4.779-10.951,8.982l-0.002-0.005
		c-0.062,0.035-0.14,0.057-0.233,0.062c-3.64,0.187-0.856-26.9,22.104-20.458C128.365,9.545,128.888,9.671,129.244,9.948
		L129.244,9.948z M106.242,27.874c2.683-3.257,6.596-7.429,10.512-8.542c8.588-3.101,8.64-5.846,9.146-8.19
		C114.021,11.933,105.701,17.109,106.242,27.874L106.242,27.874z"/>
	<path fill="#00A651" d="M48.957,74.317c1.203,3.127,1.623,3.809-0.243,5.55c-0.38,0.352-0.863,0.643-0.576,1.389
		c0.288,0.747,0.765,0.855,1.199,0.644c0.634-0.309,1.229-0.822,1.83-1.115c2.803-1.367,5.677-2.548,8.479-3.916
		c6.306-3.077,10.699-12.158,7.001-21.772c-1.867-4.854-5.23-8.036-9.121-9.186c-3.703-1.076-6.923-0.28-10.126,1.283
		c-1.468,0.716-10.331,5.595-9.505,7.742c0.413,1.073,1.039,0.435,1.521,0.145c1.83-1.115,2.358,0.567,3.274,2.948L48.957,74.317
		L48.957,74.317z M47.731,54.129c-1.221-3.174-1.475-3.937,0.927-5.109c4.938-2.409,9.923,3.029,12.31,9.237
		c1.149,2.987,1.995,6.732,1.711,9.808c-0.231,3.106-1.549,5.966-3.751,7.041c-2.77,1.351-3.695-1.467-4.897-4.595L47.731,54.129
		L47.731,54.129z M83.676,66.886c5.153-1.396,8.914-7.367,6.931-14.688c-0.893-3.297-3.048-6.043-5.541-7.502
		c-2.409-1.429-4.991-1.667-7.372-1.021c-4.904,1.328-8.836,7.233-6.919,14.312C72.745,65.258,78.558,68.272,83.676,66.886
		L83.676,66.886z M83.866,65.056c-3.554,0.963-6.752-6.341-7.724-9.929c-0.88-3.249-1.414-8.88,1.643-9.708
		c1.563-0.423,3.32,1.13,4.432,2.703c1.285,1.786,2.415,4.55,3.019,6.78C86.103,58.102,86.994,64.209,83.866,65.056L83.866,65.056z
		 M104.354,43.62c0.694,1.012,1.582,2.602,2.752,2.43c1.205-0.177,0.865-3.518,0.627-4.697c-0.221-1.081-0.612-1.53-1.479-1.908
		c-1.433-0.751-3.303-0.882-4.728-0.672c-5.082,0.745-10.272,5.758-8.745,13.276c1.488,7.322,6.784,11.158,12.155,10.369
		c1.938-0.284,3.779-1.221,5.182-2.843c0.476-0.626,1.355-1.667,1.126-2.796c-0.05-0.246-0.304-0.563-0.56-0.525
		c-0.693,0.102-1.129,2.038-3.797,2.43c-4.094,0.601-7.707-4.031-8.726-9.042c-0.429-2.113-0.396-4.547,0.334-6.324
		c0.448-1.128,1.388-2.43,2.483-2.591C102.479,40.504,103.397,42.242,104.354,43.62L104.354,43.62z M127.679,46.894
		c1.268-0.036,2.08-0.108,1.83-1.938c-0.291-2.125-1.585-3.923-3.021-5.123c-1.781-1.537-4.008-2.218-5.946-2.162
		c-5.106,0.145-9.538,4.687-8.571,11.753c0.961,7.017,6.17,11.987,11.426,11.838c2.236-0.064,4.246-0.973,5.85-2.655
		c0.498-0.461,1.693-1.834,1.561-2.823c-0.062-0.444-0.363-0.734-0.662-0.725c-0.895,0.025-1.734,2.629-4.567,2.709
		c-4.026,0.115-7.099-4.561-7.755-9.354c-0.188-1.384,0.203-1.247,1.136-1.273L127.679,46.894L127.679,46.894z M119.003,45.305
		c-0.561,0.016-1.217,0.134-1.339-0.756c-0.142-1.038,0.215-2.537,0.591-3.341c0.598-1.108,1.695-1.834,2.812-1.866
		c1.418-0.041,2.6,1.216,2.851,3.044c0.169,1.235-0.076,2.185-1.042,2.51C121.985,45.22,120.009,45.276,119.003,45.305
		L119.003,45.305z"/>
	<path fill="#F6ADCD" d="M47.369,72.994c1.203,3.127,1.623,3.809-0.243,5.55c-0.38,0.352-0.862,0.643-0.575,1.389
		c0.287,0.747,0.765,0.856,1.198,0.645c0.634-0.31,1.23-0.822,1.83-1.115c2.803-1.368,5.677-2.548,8.48-3.916
		c6.306-3.077,10.698-12.158,7.001-21.772c-1.867-4.854-5.23-8.036-9.12-9.186c-3.703-1.076-6.923-0.28-10.126,1.283
		c-1.468,0.716-10.331,5.595-9.505,7.742c0.413,1.073,1.04,0.436,1.522,0.145c1.83-1.115,2.358,0.567,3.273,2.948L47.369,72.994
		L47.369,72.994z M46.143,52.806c-1.221-3.174-1.475-3.937,0.928-5.109c4.938-2.409,9.922,3.029,12.31,9.237
		c1.148,2.987,1.994,6.732,1.711,9.808c-0.231,3.106-1.549,5.966-3.751,7.041c-2.769,1.352-3.694-1.467-4.897-4.595L46.143,52.806
		L46.143,52.806z M82.088,65.562c5.153-1.396,8.914-7.367,6.931-14.688c-0.893-3.297-3.048-6.044-5.542-7.502
		c-2.409-1.429-4.991-1.667-7.372-1.021c-4.904,1.328-8.835,7.233-6.918,14.312C71.157,63.935,76.97,66.949,82.088,65.562
		L82.088,65.562z M82.279,63.733c-3.554,0.962-6.753-6.341-7.725-9.929c-0.88-3.249-1.414-8.88,1.643-9.708
		c1.564-0.423,3.32,1.13,4.432,2.703c1.285,1.786,2.415,4.55,3.019,6.78C84.515,56.778,85.406,62.886,82.279,63.733L82.279,63.733z
		 M102.769,42.296c0.693,1.012,1.582,2.602,2.752,2.43c1.205-0.177,0.864-3.518,0.625-4.697c-0.22-1.081-0.611-1.529-1.479-1.908
		c-1.432-0.751-3.303-0.881-4.729-0.672c-5.081,0.745-10.271,5.758-8.745,13.276c1.488,7.321,6.784,11.157,12.157,10.369
		c1.938-0.285,3.778-1.221,5.182-2.844c0.475-0.626,1.354-1.667,1.125-2.796c-0.051-0.246-0.303-0.563-0.559-0.525
		c-0.695,0.102-1.13,2.038-3.798,2.43c-4.093,0.601-7.706-4.031-8.725-9.042c-0.43-2.113-0.397-4.547,0.333-6.324
		c0.447-1.128,1.388-2.43,2.484-2.591C100.894,39.182,101.81,40.919,102.769,42.296L102.769,42.296z M126.09,45.57
		c1.269-0.036,2.081-0.108,1.831-1.938c-0.291-2.125-1.585-3.923-3.021-5.123c-1.781-1.537-4.008-2.218-5.946-2.162
		c-5.106,0.145-9.538,4.687-8.57,11.753c0.96,7.018,6.168,11.987,11.425,11.838c2.236-0.064,4.246-0.973,5.85-2.655
		c0.498-0.461,1.693-1.834,1.56-2.823c-0.062-0.445-0.362-0.734-0.659-0.725c-0.896,0.025-1.736,2.629-4.57,2.709
		c-4.025,0.115-7.098-4.561-7.754-9.354c-0.188-1.383,0.203-1.246,1.137-1.272L126.09,45.57L126.09,45.57z M117.415,43.982
		c-0.561,0.016-1.217,0.134-1.339-0.756c-0.142-1.038,0.215-2.537,0.591-3.341c0.598-1.108,1.695-1.834,2.812-1.866
		c1.418-0.041,2.6,1.216,2.851,3.044c0.169,1.235-0.075,2.185-1.042,2.51C120.397,43.896,118.421,43.953,117.415,43.982
		L117.415,43.982z"/>
	<path fill="#FFCB05" d="M39.933,115.937c1.363,2.586,1.795,3.121,0.39,5.026c-0.286,0.386-0.667,0.735-0.341,1.353
		c0.326,0.619,0.745,0.629,1.092,0.358c0.508-0.394,0.961-0.963,1.442-1.336c2.245-1.741,4.571-3.327,6.816-5.067
		c5.051-3.918,7.822-12.875,3.631-20.828c-2.115-4.015-5.328-6.254-8.772-6.575c-3.276-0.287-5.939,1.017-8.504,3.006
		c-1.176,0.912-8.215,6.915-7.279,8.689c0.468,0.89,0.934,0.201,1.314-0.147c1.441-1.336,2.074,0.077,3.111,2.047L39.933,115.937
		L39.933,115.937z M36.713,98.039c-1.383-2.625-1.682-3.264,0.242-4.756c3.956-3.067,8.795,0.902,11.5,6.036
		c1.302,2.472,2.427,5.678,2.517,8.49c0.136,2.832-0.68,5.64-2.444,7.008c-2.218,1.721-3.312-0.642-4.674-3.228L36.713,98.039
		L36.713,98.039z M69.148,89.198c1.005-0.49,1.64-0.849,1.051-2.38c-0.684-1.779-2.101-2.906-3.504-3.449
		c-1.751-0.718-3.676-0.516-5.214,0.234c-4.052,1.978-6.629,7.608-4.354,13.524c2.26,5.875,7.48,8.396,11.65,6.362
		c1.774-0.866,3.188-2.399,4.111-4.473c0.301-0.589,0.965-2.239,0.647-3.066c-0.143-0.372-0.446-0.52-0.682-0.404
		c-0.71,0.346-0.829,2.959-3.077,4.057c-3.195,1.559-6.645-1.477-8.188-5.488c-0.446-1.158-0.102-1.179,0.637-1.539L69.148,89.198
		L69.148,89.198z M61.875,90.929c-0.444,0.216-0.944,0.559-1.23-0.186c-0.334-0.869-0.368-2.327-0.238-3.176
		c0.242-1.199,0.965-2.24,1.853-2.673c1.124-0.549,2.336,0.137,2.925,1.668c0.398,1.034,0.405,1.964-0.299,2.603
		C64.241,89.774,62.673,90.539,61.875,90.929L61.875,90.929z M75.423,96.396c0.342,1.153,0.569,1.638,1.528,1.941
		c1.5,0.488,3.372,0.117,4.719-0.39c1.653-0.621,3.35-1.742,4.269-3.559c0.949-1.828,1.219-4.161,0.459-6.486
		c-1.16-3.551-3.817-4.214-6.325-4.315l-1.919-0.085c-0.967-0.016-2.539-0.09-3.022-1.57c-0.58-1.776,0.693-2.824,1.734-3.215
		c1.807-0.679,2.563,0.271,4.123,1.678c0.339,0.3,0.944,0.785,1.373,0.624c0.643-0.242,0.154-1.529,0.052-2.156l-0.332-1.015
		c-0.387-1.184-0.517-1.372-1.427-1.315c-1.362,0.038-3.249,0.367-4.473,0.828c-2.725,1.024-5.449,4.47-4.068,8.698
		c1.312,4.017,5.622,4.058,8.236,4.167c1.299,0.082,2.925,0.325,3.546,2.227c0.622,1.903-0.967,3.354-2.13,3.792
		c-3.98,1.496-5.325-3.885-6.672-3.378c-0.673,0.253-0.381,1.045-0.19,1.733L75.423,96.396L75.423,96.396z M93.179,75.66
		c-0.105-0.387-0.113-0.292,0.99-0.591l1.732-0.469c0.662-0.179,1.149-0.126,0.838-1.15c-0.253-0.808-0.263-1.22-0.925-1.041
		l-2.299,0.623c-1.134,0.307-1,0.178-1.524-1.756c-0.338-1.246-1.774-6.301-0.262-6.71c1.071-0.29,2.837,3.983,4.129,3.634
		c0.882-0.239,1.083-3.246,0.815-4.234c-0.536-1.977-3.35-1.63-4.295-1.374c-3.718,1.007-6.073,4.92-5.137,10.249
		c0.185,1.057,0.371,1.745-0.445,2.104c-0.575,0.248-1.368,0.693-1.077,1.768c0.232,0.859,0.982,0.38,1.392,0.269
		c1.197-0.324,1.118-0.118,1.223,0.269l3.632,13.41c0.035,0.129,0.431,1.59-1.409,2.411c-0.355,0.188-0.793,0.446-0.583,1.219
		c0.174,0.645,0.515,0.653,0.956,0.533c1.512-0.41,3.001-0.905,4.513-1.315c1.449-0.393,2.921-0.699,4.434-1.108
		c0.409-0.111,0.699-0.29,0.524-0.934c-0.211-0.774-0.844-0.741-1.275-0.716c-1.814,0.168-2.211-1.292-2.245-1.422L93.179,75.66
		L93.179,75.66z M104.81,70.861c-0.095-0.435-0.274-1.576-0.791-1.488c-0.677,0.116-0.862,0.644-0.99,0.981
		c-0.688,1.605-2.236,2.952-3.52,3.667c-0.326,0.19-1.33,0.498-1.16,1.28c0.16,0.739,0.666,0.607,1.127,0.574
		c1.572,0.002,1.691,1.018,2.088,2.844l1.383,6.39c0.218,1,0.557,2.565,0.529,3.516c-0.029,0.636-1.021,0.851-1.453,1.015
		c-0.367,0.153-0.697,0.48-0.576,1.045c0.16,0.739,0.729,0.74,1.147,0.668c1.354-0.232,2.625-0.539,3.979-0.771
		c1.354-0.231,2.727-0.376,4.08-0.607c0.42-0.072,0.979-0.266,0.818-1.004c-0.121-0.565-0.598-0.754-0.972-0.78
		c-0.608-0.031-1.599,0.183-1.899-0.441c-0.425-0.875-0.666-2.456-0.884-3.456l-0.932-4.304c-0.292-1.348-1.529-5.824,0.083-6.1
		c0.967-0.165,1.738,2.317,3.803,1.964c1.45-0.248,2.336-2.022,1.912-3.979c-0.423-1.956-2.102-3.066-3.455-2.835
		c-2.645,0.452-3.281,3.987-3.83,4.081L104.81,70.861L104.81,70.861z M130.501,69.051c-0.1-0.613-0.079-1.5-0.669-1.455
		c-1.019,0.076-2.021,0.24-3.038,0.316c-1.018,0.077-2.049,0.066-3.066,0.143c-0.427,0.032-0.99,0.03-0.862,0.818
		c0.093,0.568,0.522,0.758,0.897,0.818c0.646,0.084,1.322,0.166,1.799,0.839c0.481,0.716,0.668,2.474,0.805,3.305l1.172,7.175
		c0.172,1.05,0.406,1.874-0.057,2.706s-1.365,1.608-2.219,1.673c-0.755,0.057-1.621-0.366-2.158-1.211
		c-0.537-0.846-0.885-2.369-1.049-3.375l-1.922-11.768c-0.101-0.613-0.213-0.693-0.64-0.661c-1.019,0.077-1.987,0.238-3.005,0.314
		c-1.018,0.077-2.016,0.063-3.033,0.14c-0.428,0.032-0.997,0.031-0.876,0.774c0.101,0.612,0.535,0.801,0.91,0.861
		c0.651,0.128,1.315,0.123,1.798,0.839c0.482,0.716,0.703,2.471,0.831,3.259l1.144,7c0.307,1.881,0.768,3.884,1.937,5.346
		c1.082,1.336,2.739,1.927,4.053,1.829c1.87-0.141,3.16-1.397,4.401-2.952c0.109-0.141,0.354-0.47,0.552-0.484
		c0.427-0.032,0.51,1.291,0.553,1.553c0.079,0.481,0.068,1.641,0.659,1.596c0.361-0.027,0.986-0.473,1.293-0.628l3.197-1.577
		c0.38-0.117,1.46-0.42,1.338-1.163c-0.085-0.525-0.402-0.634-0.737-0.653c-0.94-0.062-1.573-0.28-1.728-1.42L130.501,69.051
		L130.501,69.051z M141.823,71.523c-0.147-1.751-0.145-1.707,0.957-1.637l1.637,0.104c0.9,0.057,1.139,0.116,1.036-1.11
		c-0.093-1.094-0.574-0.907-1.274-0.952l-1.736-0.11c-0.867-0.055-1.064-0.024-1.168-1.25l-0.254-3.02
		c-0.051-0.613-0.002-1.611-0.703-1.656c-0.566-0.036-0.827,0.818-1.014,1.373c-0.781,2.171-2.316,3.641-4.039,4.489
		c-0.354,0.152-1.023,0.458-0.97,1.114c0.06,0.7,1.108,0.549,1.543,0.577c0.333,0.021,0.745,0.178,0.849,0.62
		c0.098,0.354,0.227,1.495,0.254,1.845l0.77,9.147c0.137,1.619,0.494,3.514,1.376,4.919c0.767,1.224,2.124,1.971,3.228,2.04
		c1.535,0.098,3.133-0.635,4.15-1.964c0.237-0.333,0.832-1.166,0.784-1.735c-0.029-0.35-0.218-0.623-0.452-0.638
		c-0.501-0.032-1.129,1.19-2.23,1.121c-1.769-0.112-1.996-4.394-2.131-6.013L141.823,71.523L141.823,71.523z M161.896,78.408
		c1.143,0.201,1.879,0.288,1.853-1.318c-0.032-1.867-1-3.639-2.16-4.926c-1.435-1.638-3.36-2.627-5.104-2.936
		c-4.602-0.812-9.066,2.253-8.961,8.461c0.107,6.165,4.248,11.361,8.981,12.196c2.015,0.355,3.916-0.052,5.537-1.194
		c0.496-0.302,1.719-1.255,1.703-2.124c-0.007-0.391-0.246-0.693-0.515-0.74c-0.807-0.142-1.842,1.926-4.395,1.475
		c-3.626-0.64-5.881-5.193-5.953-9.404c-0.021-1.216,0.316-1.026,1.156-0.878L161.896,78.408L161.896,78.408z M154.28,75.462
		c-0.504-0.088-1.106-0.108-1.12-0.89c-0.017-0.912,0.465-2.125,0.89-2.743c0.655-0.836,1.719-1.255,2.727-1.077
		c1.275,0.225,2.203,1.514,2.229,3.12c0.019,1.085-0.303,1.851-1.205,1.952C156.966,75.936,155.187,75.623,154.28,75.462
		L154.28,75.462z"/>
	<path fill="#8ED8F8" d="M161.069,108.741C167.297,191.854,60.228,215.3,33.8,133.538
		C84.001,211.229,153.993,184.61,161.069,108.741L161.069,108.741z"/>
	<path fill="#FFCB05" d="M81.75,159.715c4.482-1.554,9.272,0.521,10.696,4.628c1.424,4.108-1.057,8.7-5.539,10.254
		c-4.482,1.553-9.272-0.52-10.696-4.629S77.268,161.269,81.75,159.715L81.75,159.715z"/>
	<path fill="#F58220" d="M96.036,161.584c4.482-1.554,9.271,0.519,10.695,4.628c1.425,4.107-1.057,8.7-5.539,10.254
		c-4.481,1.553-9.271-0.52-10.695-4.629C89.073,167.729,91.553,163.137,96.036,161.584L96.036,161.584z"/>
	<path fill="#C657A0" d="M95.668,149.588c4.481-1.553,9.272,0.521,10.694,4.628c1.425,4.109-1.057,8.701-5.538,10.256
		c-4.482,1.553-9.271-0.521-10.695-4.63C88.705,155.733,91.186,151.142,95.668,149.588L95.668,149.588z"/>
	<path fill="#ED1C24" d="M111.854,159.133c4.482-1.554,9.272,0.521,10.696,4.628c1.425,4.108-1.058,8.701-5.54,10.254
		s-9.271-0.52-10.695-4.629C104.894,165.276,107.373,160.687,111.854,159.133L111.854,159.133z"/>
	<path fill="#D2E288" d="M79.065,143.219c4.482-1.554,9.272,0.519,10.696,4.628c1.423,4.108-1.057,8.7-5.539,10.254
		c-4.483,1.553-9.272-0.52-10.696-4.627C72.102,149.363,74.583,144.771,79.065,143.219L79.065,143.219z"/>
	<path fill="#FFF200" d="M125.8,151.271c4.482-1.554,9.271,0.52,10.696,4.629c1.424,4.107-1.058,8.699-5.539,10.254
		c-4.481,1.553-9.272-0.521-10.696-4.629C118.837,157.415,121.317,152.823,125.8,151.271L125.8,151.271z"/>
	<path fill="#F8ABAD" d="M112.371,145.315c4.481-1.553,9.272,0.52,10.696,4.629c1.424,4.107-1.058,8.699-5.539,10.253
		c-4.482,1.554-9.272-0.52-10.696-4.628C105.409,151.46,107.89,146.868,112.371,145.315L112.371,145.315z"/>
	<path fill="#ED1C24" d="M93.217,133.769c4.482-1.553,9.272,0.521,10.696,4.629s-1.057,8.701-5.54,10.254
		c-4.482,1.553-9.271-0.521-10.695-4.629C86.254,139.913,88.734,135.321,93.217,133.769L93.217,133.769z"/>
</g>
</svg>
