<?xml version="1.0" encoding="utf-8"?>
<!-- Generator: Adobe Illustrator 16.0.0, SVG Export Plug-In . SVG Version: 6.00 Build 0)  -->
<!DOCTYPE svg PUBLIC "-//W3C//DTD SVG 1.1//EN" "http://www.w3.org/Graphics/SVG/1.1/DTD/svg11.dtd">
<svg version="1.1" id="Layer_1" xmlns="http://www.w3.org/2000/svg" xmlns:xlink="http://www.w3.org/1999/xlink" x="0px" y="0px"
	 width="170.68px" height="43.281px" viewBox="10.864 71.43 170.68 43.281" enable-background="new 10.864 71.43 170.68 43.281"
	 xml:space="preserve">
<g>
	<polygon fill="#E4494B" points="18.053,114.711 174.785,114.711 174.785,107.09 18.053,107.09 	"/>
	<path fill="#0081B4" d="M10.864,108.24c18.909-18.621,50.111-30.771,85.34-30.771c35.229,0,66.359,12.15,85.34,30.771H10.864
		L10.864,108.24z"/>
	<path fill="#FFFFFF" stroke="#FFFFFF" stroke-width="0.8276" stroke-miterlimit="2.6131" d="M65.936,92.711
		c0.503-0.575,0.503-1.366,0-1.869L47.315,72.221c-0.503-0.503-1.366-0.503-1.87,0L26.896,90.842c-0.503,0.503-0.503,1.294,0,1.797
		l18.621,18.621c0.503,0.505,1.294,0.505,1.797,0L65.936,92.711L65.936,92.711z"/>
	<path fill="#E4494B" d="M55.223,82.43c0.288-0.288,0.288-0.647,0-0.935l-8.34-8.34c-0.288-0.288-0.719-0.288-0.935,0L27.759,91.273
		c-0.216,0.287-0.216,0.719,0,0.935l8.412,8.411c0.216,0.217,0.647,0.217,0.935,0L55.223,82.43L55.223,82.43z"/>
	<path fill="#0081B4" d="M65.145,92.28c0.216-0.216,0.216-0.647,0-0.936l-8.412-8.339c-0.288-0.288-0.647-0.288-0.935,0
		l-18.189,18.19c-0.215,0.215-0.215,0.646,0,0.861l8.412,8.411c0.288,0.289,0.647,0.289,0.935,0L65.145,92.28L65.145,92.28z"/>
	<path fill="#FFFFFF" d="M34.877,93.502c0.935-0.863,0.935-2.373,0-3.235c-0.935-0.935-2.373-0.935-3.307,0
		c-0.935,0.863-0.935,2.373,0,3.235C32.504,94.437,33.942,94.437,34.877,93.502L34.877,93.502z"/>
	<path fill="#FFFFFF" d="M41.563,93.646c0.935-0.935,0.935-2.373,0-3.307c-0.862-0.863-2.373-0.863-3.235,0
		c-0.935,0.935-0.935,2.372,0,3.307C39.19,94.581,40.701,94.581,41.563,93.646L41.563,93.646z"/>
	<path fill="#FFFFFF" d="M48.25,83.58c0.935-0.862,0.935-2.373,0-3.307c-0.863-0.862-2.373-0.862-3.307,0
		c-0.863,0.935-0.863,2.445,0,3.307C45.877,84.515,47.387,84.515,48.25,83.58L48.25,83.58z"/>
	<path fill="#FFFFFF" d="M40.557,101.627c0.431-0.433,1.006,0.07,1.366,0.431c0.36,0.289,0.791,0.862,0.36,1.295L40.557,101.627
		L40.557,101.627z M42.21,105.076l0.791-0.789c0.575-0.504,1.366-1.654-0.144-3.236c-1.079-1.006-2.229-1.077-3.307-0.071
		l-0.719,0.719L42.21,105.076L42.21,105.076z"/>
	<path fill="#FFFFFF" d="M44.008,99.828c0.216-0.215,0.575,0.071,0.791,0.287c0.216,0.288,0.575,0.647,0.36,0.862
		c-0.216,0.217-0.575-0.143-0.863-0.358C44.08,100.403,43.792,100.045,44.008,99.828L44.008,99.828z M43.289,99.108
		c-0.719,0.791-0.503,1.728,0.144,2.373c0.719,0.646,1.582,0.863,2.373,0.146c0.719-0.791,0.503-1.653-0.144-2.373
		C45.014,98.604,44.08,98.392,43.289,99.108L43.289,99.108z"/>
	<path fill="#FFFFFF" d="M45.877,97.457h0.072c-0.216-0.358-0.144-0.791,0.144-1.08c0.288-0.287,0.719-0.287,1.078-0.071v-0.071
		c-0.215-0.288-0.215-0.719,0.072-1.007c0.503-0.503,1.007-0.359,1.51,0.216l1.582,1.583l-0.863,0.861l-1.294-1.293
		c-0.144-0.072-0.287-0.288-0.431-0.145c-0.144,0.145-0.072,0.217,0,0.359c0,0.072,0.144,0.145,0.216,0.29l1.15,1.077L48.25,99.11
		l-1.366-1.365c-0.072-0.072-0.216-0.217-0.359-0.072c-0.072,0.072-0.072,0.215,0,0.359c0.072,0.072,0.144,0.215,0.216,0.287
		l1.15,1.078l-0.863,0.936l-2.373-2.373l0.863-0.934L45.877,97.457L45.877,97.457z"/>
	<path fill="#FFFFFF" d="M50.55,96.736l-2.373-2.372l0.935-0.863l2.372,2.373L50.55,96.736L50.55,96.736z M47.387,93.646
		c-0.288-0.216-0.288-0.719,0-1.007c0.288-0.288,0.719-0.288,1.006,0c0.287,0.288,0.288,0.719,0,1.007
		C48.177,93.933,47.674,93.933,47.387,93.646L47.387,93.646z"/>
	<path fill="#FFFFFF" d="M50.622,92.783h0.072c-0.215-0.359-0.215-0.791,0.072-1.078c0.503-0.503,1.079-0.216,1.51,0.215
		l1.582,1.582l-0.863,0.863l-1.222-1.222c-0.216-0.216-0.359-0.288-0.503-0.144c-0.216,0.144-0.072,0.288,0.215,0.575l1.15,1.15
		L51.7,95.587l-2.373-2.373l0.935-0.863L50.622,92.783L50.622,92.783z"/>
	<path fill="#FFFFFF" d="M53.354,90.482c0.216-0.216,0.575,0.072,0.791,0.288c0.287,0.215,0.575,0.647,0.359,0.863
		c-0.216,0.144-0.575-0.144-0.863-0.359C53.426,91.058,53.138,90.626,53.354,90.482L53.354,90.482z M52.707,89.763
		c-0.791,0.791-0.575,1.726,0.072,2.373c0.719,0.647,1.582,0.863,2.373,0.145c0.791-0.791,0.503-1.726-0.144-2.373
		C54.361,89.26,53.426,89.044,52.707,89.763L52.707,89.763z"/>
	<polygon fill="#FFFFFF" points="54.576,88.973 53.282,87.031 54.432,86.456 55.367,88.541 	"/>
	<path fill="#FFFFFF" d="M56.877,88.757c0.216,0,0.503-0.072,0.647-0.216c0.072-0.072,0.144-0.215,0.072-0.288
		c-0.072-0.072-0.216-0.072-0.431,0.072c-0.432,0.215-0.935,0.287-1.294-0.144c-0.503-0.431-0.431-1.15,0.144-1.726
		c0.216-0.215,0.575-0.431,0.935-0.503l0.288,0.935c-0.144,0-0.431,0-0.575,0.144c-0.072,0.072-0.072,0.144,0,0.216
		c0.144,0.144,0.359,0.072,0.503,0c0.431-0.216,0.863-0.288,1.222,0.072c0.575,0.575,0.432,1.294-0.072,1.797
		c-0.359,0.359-0.719,0.503-1.15,0.575L56.877,88.757L56.877,88.757z"/>
	<path fill="#FFFFFF" d="M45.445,105.726c0.288,0.287,0.288,0.573,0,0.791l-0.791-0.791l0.072-0.072
		C44.942,105.438,45.229,105.508,45.445,105.726L45.445,105.726z M47.315,108.385l-1.079-1.077c0.791-0.791,1.079-1.582,0.216-2.445
		c-0.935-0.935-1.798-0.574-2.588,0.215l-0.863,0.863l3.379,3.379L47.315,108.385L47.315,108.385z"/>
	<path fill="#FFFFFF" d="M48.825,106.944l-2.373-2.37l0.863-0.863l2.373,2.373L48.825,106.944L48.825,106.944z M45.589,103.854
		c-0.288-0.289-0.288-0.719,0-1.008c0.288-0.287,0.719-0.287,1.006,0c0.288,0.289,0.288,0.719,0,1.008
		C46.38,104.144,45.877,104.144,45.589,103.854L45.589,103.854z"/>
	<path fill="#FFFFFF" d="M49.831,105.938l-0.935-2.516c-0.072,0.143-0.216,0.287-0.288,0.359l-0.359,0.359l-0.719-0.72l1.941-1.94
		l0.863,2.516c0.072-0.143,0.144-0.215,0.288-0.359l0.359-0.359l0.719,0.72L49.831,105.938L49.831,105.938z"/>
	<path fill="#FFFFFF" d="M51.844,103.854l-0.863-2.444c-0.144,0.146-0.216,0.217-0.359,0.358l-0.359,0.359l-0.647-0.719l1.869-1.941
		l0.863,2.445c0.072-0.072,0.215-0.145,0.287-0.287l0.36-0.361l0.719,0.721L51.844,103.854L51.844,103.854z"/>
	<path fill="#FFFFFF" d="M54.289,100.045c-0.072,0.07-0.216,0.07-0.288,0c-0.144-0.071-0.215-0.146-0.288-0.217
		c-0.072-0.072-0.216-0.216-0.359-0.359c-0.072-0.215-0.144-0.358-0.072-0.432c0.144-0.144,0.288-0.07,0.359,0
		c0.144,0.071,0.288,0.217,0.359,0.289c0.072,0.069,0.216,0.215,0.288,0.358C54.361,99.828,54.432,99.974,54.289,100.045
		L54.289,100.045z M53.713,97.24l-0.935,0.936l0.432,0.287v0.072c-0.36-0.146-0.719-0.146-1.007,0.143
		c-0.575,0.576,0,1.438,0.503,1.941c0.431,0.432,1.366,1.149,1.941,0.504c0.288-0.287,0.288-0.646,0.216-1.008l0,0l0.359,0.432
		l0.863-0.935L53.713,97.24L53.713,97.24z"/>
	<polygon fill="#FFFFFF" points="46.667,91.489 36.818,81.639 36.243,82.143 46.093,92.064 	"/>
	<path fill="none" stroke="#FFFFFF" stroke-width="0.1557" stroke-miterlimit="2.6131" d="M50.766,111.765
		c0.432,0,0.791-0.359,0.791-0.791c0-0.433-0.359-0.791-0.791-0.791c-0.431,0-0.791,0.358-0.791,0.791
		C49.975,111.405,50.334,111.765,50.766,111.765L50.766,111.765z"/>
	<path fill="#FFFFFF" d="M50.694,110.612L50.694,110.612c0.072,0,0.144,0.072,0.144,0.146c0,0.144-0.072,0.144-0.144,0.144l0,0
		V110.612L50.694,110.612z M50.91,111.045c0.144-0.071,0.215-0.146,0.215-0.287c0-0.217-0.144-0.289-0.359-0.289h-0.359v0.937h0.288
		v-0.359l0,0l0.216,0.359h0.288L50.91,111.045L50.91,111.045z"/>
	<path fill="#FFFFFF" d="M74.707,92.136c2.013,0,2.3,2.445,2.3,4.241c0,1.582-0.287,4.101-2.3,4.101V92.136L74.707,92.136z
		 M70.25,104.431h3.882c2.66,0,7.405-0.72,7.405-8.269c0-4.961-2.732-8.052-7.693-8.052H70.25V104.431L70.25,104.431z"/>
	<path fill="#FFFFFF" d="M87.36,95.946c1.007,0,1.15,1.581,1.15,2.731c0,1.223-0.144,2.805-1.15,2.805
		c-1.078,0-1.222-1.582-1.222-2.805C86.139,97.526,86.282,95.946,87.36,95.946L87.36,95.946z M87.36,92.711
		c-3.667,0-5.392,2.804-5.392,5.967c0.072,3.236,1.726,5.97,5.392,5.97s5.32-2.732,5.32-5.97
		C92.681,95.515,91.027,92.711,87.36,92.711L87.36,92.711z"/>
	<path fill="#FFFFFF" d="M97.642,94.868h0.072c0.432-1.15,1.438-2.157,2.805-2.157c1.582,0,2.517,1.006,3.02,2.373l0,0
		c0.359-1.294,1.365-2.373,2.804-2.373c2.229,0,3.021,1.582,3.021,4.098v7.622h-4.17v-6.185c0-0.502-0.072-1.365-0.719-1.365
		c-0.576,0-0.72,0.287-0.863,0.72c-0.071,0.432-0.071,0.936-0.071,1.295v5.535h-4.242v-6.326c0-0.504-0.071-1.15-0.646-1.15
		c-0.504,0-0.791,0.287-0.863,0.719c-0.145,0.432-0.071,0.934-0.071,1.295v5.463h-4.242V92.999h4.242L97.642,94.868L97.642,94.868z"
		/>
	<path fill="#FFFFFF" d="M110.653,104.431V92.999h4.242v11.432H110.653L110.653,104.431z M110.295,89.404
		c0-1.366,1.149-2.517,2.444-2.517c1.365,0,2.517,1.079,2.517,2.445s-1.077,2.516-2.444,2.516
		C111.446,91.848,110.295,90.77,110.295,89.404L110.295,89.404z"/>
	<path fill="#FFFFFF" d="M120.36,95.083v0.072c0.432-1.223,1.51-2.445,2.947-2.445c2.444,0,3.021,2.085,3.021,4.17v7.549h-4.242
		v-5.824c0-0.934,0-1.651-0.791-1.651s-0.862,0.791-0.862,1.94v5.535h-4.242v-11.43h4.242L120.36,95.083L120.36,95.083z"/>
	<path fill="#FFFFFF" d="M132.438,95.946c1.078,0,1.223,1.581,1.223,2.731c0,1.223-0.145,2.805-1.223,2.805
		c-1.006,0-1.149-1.582-1.149-2.805C131.289,97.526,131.433,95.946,132.438,95.946L132.438,95.946z M132.438,92.711
		c-3.666,0-5.32,2.804-5.32,5.967c0,3.236,1.654,5.97,5.32,5.97s5.32-2.732,5.32-5.97C137.76,95.515,136.104,92.711,132.438,92.711
		L132.438,92.711z"/>
	<polygon fill="#FFFFFF" points="138.981,95.371 140.563,87.678 144.733,88.829 141.856,96.234 	"/>
	<path fill="#FFFFFF" d="M145.021,100.332c0.504,0.504,1.367,1.149,2.158,1.149c0.358,0,0.79-0.145,0.79-0.575
		s-0.36-0.646-1.079-0.935c-1.652-0.576-2.947-1.438-2.947-3.379c0-2.373,1.869-3.883,4.529-3.883c1.15,0,2.518,0.359,3.522,0.935
		l-1.438,3.09c-0.502-0.431-1.078-1.005-1.798-1.005c-0.286,0-0.646,0.215-0.646,0.575c0,0.575,0.861,0.862,1.294,1.079
		c1.51,0.574,2.804,1.365,2.804,3.234c0,2.588-2.229,4.027-4.602,4.027c-1.582,0-2.805-0.433-4.099-1.15L145.021,100.332
		L145.021,100.332z"/>
	<path fill="#FFFFFF" d="M71.184,109.463c0-0.071,0-0.071,0-0.146c0,0,0,0-0.216,0c-0.359,0-0.503,0-0.791,0.505
		c0,0.071-0.072,0.071-0.072,0.071c-0.072,0-0.072,0-0.072-0.071c0,0,0.216-0.72,0.288-0.863c0-0.071,0-0.144,0.072-0.144
		c0.072,0,0.072,0,0.072,0.07v0.146c0,0.071,0.072,0.071,0.215,0.071h1.438c0.503,0,0.575,0,0.647-0.145
		c0.072-0.072,0.072-0.072,0.072-0.072c0.071,0,0.071,0,0.071,0c0,0.072-0.215,0.721-0.215,0.863
		c-0.072,0.145-0.072,0.145-0.144,0.145c-0.072,0-0.072-0.071-0.072-0.071c0-0.072,0.072-0.287,0.072-0.359
		c0-0.146-0.072-0.146-0.646-0.146c-0.144,0-0.144,0-0.216,0.218l-0.647,2.516c0,0.146-0.072,0.218-0.072,0.287
		c0,0.072,0.072,0.146,0.288,0.146c0.072,0,0.144,0,0.144,0.072c0,0.071-0.072,0.071-0.072,0.071c-0.072,0-0.36-0.071-0.719-0.071
		s-0.575,0.071-0.647,0.071c0,0-0.072,0-0.072-0.071c0-0.072,0.072-0.072,0.287-0.146c0.144,0,0.216,0,0.288-0.287L71.184,109.463
		L71.184,109.463z"/>
	<path fill="#FFFFFF" d="M73.197,111.332L73.197,111.332c0.503-0.72,0.935-1.295,1.366-1.295c0.216,0,0.503,0.071,0.503,0.721
		c0,0.935-0.719,1.939-1.51,1.939c-0.144,0-0.288-0.144-0.288-0.287c0-0.072,0.144-0.216,0.215-0.216
		c0.288,0,0.216,0.287,0.36,0.287c0.288,0,0.719-1.364,0.719-1.868c0-0.287-0.144-0.287-0.215-0.287c-0.36,0-1.223,1.221-1.51,2.084
		c0,0.217-0.072,0.217-0.288,0.217c-0.144,0-0.215,0-0.215-0.146c0-0.071,0.863-2.805,0.863-3.092c0-0.145-0.072-0.145-0.216-0.145
		c-0.072,0-0.072,0-0.072-0.07c0-0.072,0.072-0.072,0.144-0.072h0.144c0.144,0,0.431-0.071,0.503-0.145c0.072,0,0.072,0,0.144,0l0,0
		c0,0.072-0.216,0.863-0.288,1.15L73.197,111.332L73.197,111.332z"/>
	<path fill="#FFFFFF" d="M75.786,111.403c0.144-0.646,0.503-1.223,0.862-1.223c0.216,0,0.216,0.215,0.216,0.287
		C76.864,111.188,76.145,111.403,75.786,111.403L75.786,111.403z M76.361,111.478c0.215-0.072,1.006-0.289,1.006-0.863
		c0-0.432-0.36-0.576-0.647-0.576c-0.503,0-1.51,0.576-1.51,1.727c0,0.574,0.431,0.935,0.791,0.935c0.575,0,1.079-0.72,1.079-0.791
		l-0.072-0.07c0,0-0.072,0-0.144,0.144c-0.359,0.358-0.575,0.358-0.647,0.358c-0.144,0-0.431-0.069-0.431-0.573
		c0-0.072,0-0.072,0-0.218L76.361,111.478L76.361,111.478z"/>
	<path fill="#FFFFFF" d="M80.243,109.463c0.071-0.217,0.071-0.217,0.287-0.217c0.216,0,0.647,0,0.647,0.576
		c0,0.286-0.216,0.646-0.503,0.862c-0.288,0.144-0.575,0.215-0.791,0.215L80.243,109.463L80.243,109.463z M79.021,112.051
		c-0.144,0.359-0.144,0.359-0.431,0.433c-0.072,0-0.144,0-0.144,0.072c0,0.071,0,0.071,0.072,0.071c0.072,0,0.359-0.071,0.647-0.071
		c0.359,0,0.719,0.071,0.719,0.071c0.072,0,0.072,0,0.072-0.071c0-0.072,0-0.072-0.144-0.072c-0.216-0.072-0.288-0.072-0.288-0.215
		c0-0.146,0.072-0.289,0.072-0.361l0.216-0.861c0.863,0,1.078-0.072,1.222-0.145c0.359-0.215,0.719-0.646,0.719-1.078
		c0-0.072,0-0.791-0.863-0.791c-0.287,0-0.503,0.072-0.935,0.072c-0.359,0-0.431-0.072-0.503-0.072
		c-0.072,0-0.144,0.072-0.144,0.072c0,0.071,0.071,0.143,0.144,0.143c0.072,0,0.216,0,0.216,0.145c0,0.072,0,0.146,0,0.217
		L79.021,112.051L79.021,112.051z"/>
	<path fill="#FFFFFF" d="M82.184,112.194c0,0.072,0,0.072,0.072,0.072c0.072,0,0.432-0.36,0.432-0.432l0.072-0.072
		c0,0,0.072,0,0.072,0.072c0,0.143-0.575,0.861-0.935,0.861c-0.216,0-0.216-0.144-0.216-0.287c0-0.359,0.36-1.293,0.503-1.725
		c0.072-0.146,0.072-0.218,0.072-0.289l0,0c-0.144,0-0.575,0.432-0.575,0.432s-0.072,0-0.072-0.07c0-0.072,0.575-0.721,1.007-0.721
		c0.144,0,0.144,0.145,0.144,0.217C82.759,110.541,82.184,111.906,82.184,112.194L82.184,112.194z M82.759,109.75
		c-0.144,0-0.216-0.144-0.216-0.287s0.144-0.358,0.288-0.358c0.216,0,0.216,0.215,0.216,0.287
		C83.047,109.535,82.903,109.75,82.759,109.75L82.759,109.75z"/>
	<path fill="#FFFFFF" d="M84.988,110.396c-0.144,0.146-0.431,0.218-0.719,0.218c-0.144,0-0.288,0-0.359-0.072
		c-0.216-0.072-0.216-0.072-0.288-0.072c-0.144,0-0.288,0.072-0.288,0.289v0.144v0.072c-0.072,0-0.072-0.216-0.072-0.216
		c0-0.504,0.36-0.791,0.575-0.791c0.216,0,0.36,0.144,0.503,0.216c0.288,0.071,0.359,0.145,0.503,0.145
		c0.144,0,0.215-0.072,0.215-0.072c0.144-0.287,0.288-0.287,0.36-0.287c0,0,0.144,0,0.144,0.143c0,0.146-0.215,0.218-0.288,0.287
		c-0.216,0.072-0.575,0.504-0.719,0.648c-0.216,0.215-0.432,0.502-0.863,0.934l-0.216,0.146c0,0-0.072,0.072-0.144,0.072l0,0
		c0.144,0,0.144,0,0.359-0.072c0.072-0.072,0.216-0.072,0.359-0.072c0.072,0,0.144,0,0.216,0.072c0.072,0,0.216,0.146,0.359,0.146
		c0.144,0,0.288-0.072,0.288-0.289c0-0.144-0.072-0.144-0.072-0.215c0-0.072,0.072-0.072,0.072-0.072
		c0.072,0,0.144,0.145,0.144,0.287c0,0.358-0.359,0.719-0.791,0.719c-0.288,0-0.432-0.143-0.575-0.215
		c-0.216-0.146-0.288-0.146-0.288-0.146c-0.072,0-0.072,0-0.144,0.072c-0.215,0.217-0.359,0.217-0.359,0.217
		c-0.144,0-0.144-0.071-0.144-0.146c0-0.145,0.144-0.215,0.431-0.286c0.144-0.072,0.216-0.218,0.36-0.359l0.144-0.146
		c0.431-0.504,0.575-0.646,1.366-1.223L84.988,110.396L84.988,110.396z"/>
	<path fill="#FFFFFF" d="M87.36,110.396c-0.216,0.146-0.431,0.218-0.719,0.218c-0.144,0-0.288,0-0.432-0.072
		s-0.215-0.072-0.287-0.072c-0.072,0-0.216,0.072-0.216,0.289v0.144c0,0,0,0.072-0.072,0.072c-0.072,0-0.072-0.216-0.072-0.216
		c0-0.504,0.36-0.791,0.647-0.791c0.144,0,0.359,0.144,0.503,0.216c0.288,0.071,0.36,0.145,0.503,0.145s0.144-0.072,0.216-0.072
		c0.144-0.287,0.287-0.287,0.287-0.287c0.072,0,0.144,0,0.144,0.143c0,0.146-0.144,0.218-0.216,0.287
		c-0.215,0.072-0.575,0.504-0.719,0.648c-0.216,0.215-0.503,0.502-0.935,0.934l-0.144,0.146c-0.072,0-0.072,0.072-0.144,0.072l0,0
		c0.144,0,0.144,0,0.359-0.072c0.072-0.072,0.216-0.072,0.288-0.072c0.144,0,0.215,0,0.288,0.072c0,0,0.216,0.146,0.359,0.146
		c0.072,0,0.288-0.072,0.288-0.289c0-0.144-0.072-0.144-0.072-0.215c0-0.072,0.072-0.072,0.072-0.072s0.072,0.145,0.072,0.287
		c0,0.358-0.287,0.719-0.719,0.719c-0.288,0-0.432-0.143-0.575-0.215c-0.216-0.146-0.288-0.146-0.359-0.146c0,0,0,0-0.072,0.072
		c-0.215,0.217-0.359,0.217-0.431,0.217c-0.072,0-0.144-0.071-0.144-0.146c0-0.145,0.144-0.215,0.503-0.286
		c0.072-0.072,0.216-0.218,0.36-0.359l0.144-0.146c0.359-0.504,0.575-0.646,1.294-1.223L87.36,110.396L87.36,110.396z"/>
	<path fill="#FFFFFF" d="M88.223,111.979c0-0.502,0.575-1.797,1.294-1.797c0,0,0.288,0.071,0.288,0.286c0,0.433-1.007,1.8-1.366,1.8
		C88.223,112.269,88.223,112.051,88.223,111.979L88.223,111.979z M90.092,110.037c-0.144,0-0.144,0-0.215,0.071v0.072
		c-0.072,0-0.144,0-0.144,0c0-0.072-0.144-0.072-0.287-0.072c-0.647,0-1.726,0.937-1.726,2.015c0,0.287,0.072,0.574,0.36,0.574
		c0.503,0,0.935-0.646,1.294-1.222c0.072,0,0.144-0.072,0.144-0.145l0,0c0,0,0,0.145-0.071,0.145l-0.072,0.359
		c-0.072,0.143-0.144,0.432-0.144,0.574c0,0.287,0.144,0.287,0.216,0.287c0.431,0,0.935-0.791,0.935-0.934c0,0,0,0-0.072,0
		c0,0,0,0-0.072,0c0,0.143-0.288,0.573-0.431,0.573c0,0-0.072-0.069-0.072-0.144c0-0.217,0.647-2.086,0.647-2.086
		c0-0.071-0.072-0.071-0.144-0.071h-0.146V110.037z"/>
	<path fill="#FFFFFF" d="M93.328,109.535c0.071-0.289,0.144-0.289,0.431-0.289c0.287,0,1.079,0,1.079,0.937
		c0,0.504-0.288,2.301-1.726,2.301c-0.432,0-0.503-0.072-0.503-0.215c0-0.072,0.144-0.504,0.144-0.576L93.328,109.535
		L93.328,109.535z M92.105,112.051c-0.072,0.287-0.144,0.359-0.431,0.433c-0.072,0-0.144,0-0.144,0.072
		c0,0.071,0.072,0.071,0.072,0.071c0.072,0,0.215-0.071,0.431-0.071c0.288,0,1.006,0.071,1.366,0.071
		c1.294,0,2.014-1.295,2.014-2.229c0-0.72-0.432-1.365-1.294-1.365c-0.431,0-0.575,0.072-1.006,0.072
		c-0.216,0-0.503-0.072-0.575-0.072c0,0-0.144,0-0.144,0.145c0,0,0.072,0.07,0.144,0.07c0.144,0,0.216,0,0.216,0.145
		c0,0.072,0,0.146,0,0.287L92.105,112.051L92.105,112.051z"/>
	<path fill="#FFFFFF" d="M95.916,111.403c0.144-0.646,0.503-1.223,0.863-1.223c0.287,0,0.287,0.215,0.287,0.287
		C97.065,111.188,96.276,111.403,95.916,111.403L95.916,111.403z M96.563,111.478c0.144-0.072,0.935-0.289,0.935-0.863
		c0-0.432-0.358-0.576-0.647-0.576c-0.503,0-1.51,0.576-1.51,1.727c0,0.574,0.432,0.935,0.791,0.935c0.575,0,1.078-0.72,1.078-0.791
		c0,0,0-0.07-0.07-0.07c0,0,0,0-0.146,0.144c-0.287,0.358-0.575,0.358-0.646,0.358c-0.071,0-0.432-0.069-0.432-0.573
		c0-0.072,0-0.072,0-0.218L96.563,111.478L96.563,111.478z"/>
	<path fill="#FFFFFF" d="M98.289,111.403c-0.072,0.144-0.288,0.72-0.288,0.863l0.072,0.07c0.144,0,0.431-0.432,0.503-0.574
		c0,0,0,0,0.071,0c0,0,0,0,0,0.072c0,0.143-0.504,0.861-0.862,0.861c-0.144,0-0.287-0.144-0.287-0.359
		c0-0.143,0.144-0.646,0.216-0.861l0.575-1.869c0.071-0.071,0.071-0.145,0.071-0.217c0-0.145-0.145-0.145-0.145-0.145
		c-0.216,0-0.216,0-0.216-0.07c0-0.072,0.071-0.072,0.216-0.072c0.072,0,0.287,0,0.575-0.145c0.071,0,0.071,0,0.144,0
		c0,0,0.072,0,0.072,0.072c0,0,0,0-0.072,0.072L98.289,111.403L98.289,111.403z"/>
	<path fill="#FFFFFF" d="M99.438,112.194c0,0.072,0.071,0.072,0.071,0.072c0.144,0,0.433-0.36,0.503-0.432v-0.072
		c0.072,0,0.072,0,0.072,0.072c0,0.143-0.575,0.861-0.936,0.861c-0.144,0-0.215-0.144-0.215-0.287c0-0.359,0.358-1.293,0.502-1.725
		c0.072-0.146,0.072-0.218,0.072-0.289l0,0c-0.144,0-0.503,0.432-0.574,0.432c0,0,0,0,0-0.07c0-0.072,0.502-0.721,0.935-0.721
		c0.144,0,0.216,0.145,0.216,0.217C100.086,110.541,99.438,111.906,99.438,112.194L99.438,112.194z M100.015,109.75
		c-0.145,0-0.217-0.144-0.217-0.287s0.145-0.358,0.36-0.358c0.215,0,0.215,0.215,0.215,0.287
		C100.373,109.535,100.229,109.75,100.015,109.75L100.015,109.75z"/>
	<path fill="#FFFFFF" d="M100.519,112.194c0-0.288,0.07-0.575,0.287-1.223c0.071-0.145,0.215-0.504,0.215-0.576
		c0-0.069,0-0.069-0.07-0.069c-0.072,0-0.288,0.215-0.432,0.432l-0.072,0.07c-0.072,0-0.072,0-0.072-0.07
		c0-0.071,0.504-0.721,0.936-0.721c0.217,0,0.287,0.146,0.287,0.217c0,0.215-0.646,1.652-0.646,1.94
		c0,0.144,0.144,0.216,0.286,0.216c0.576,0,1.224-1.15,1.224-1.582c0-0.07,0-0.07-0.146-0.215c0-0.072-0.07-0.146-0.07-0.287
		c0-0.218,0.145-0.289,0.287-0.289c0.145,0,0.216,0.146,0.216,0.358c0,0.791-0.862,2.302-1.797,2.302
		C100.733,112.697,100.519,112.481,100.519,112.194L100.519,112.194z"/>
	<path fill="#FFFFFF" d="M103.321,111.403c0.072-0.646,0.432-1.223,0.791-1.223c0.287,0,0.287,0.215,0.287,0.287
		C104.399,111.188,103.608,111.403,103.321,111.403L103.321,111.403z M103.896,111.478c0.217-0.072,0.936-0.289,0.936-0.863
		c0-0.432-0.359-0.576-0.575-0.576c-0.575,0-1.51,0.576-1.51,1.727c0,0.574,0.358,0.935,0.719,0.935c0.575,0,1.079-0.72,1.079-0.791
		c0,0,0-0.07-0.072-0.07c0,0,0,0-0.144,0.144c-0.288,0.358-0.575,0.358-0.647,0.358c-0.07,0-0.432-0.069-0.432-0.573
		c0-0.072,0-0.072,0-0.218L103.896,111.478L103.896,111.478z"/>
	<path fill="#FFFFFF" d="M105.692,111.619c0-0.072,0.072-0.144,0.072-0.216l0.145-0.358c0.072-0.071,0.504-1.008,0.863-1.008
		c0.144,0,0.287,0.071,0.287,0.289c0,0.143-0.072,0.432-0.287,0.432c-0.072,0-0.217,0-0.217-0.145v-0.146c0-0.072,0-0.072,0-0.072
		c-0.359,0-1.078,2.086-1.15,2.158c0,0.072-0.071,0.072-0.215,0.072c-0.145,0-0.217,0-0.217-0.072c0-0.145,0.575-1.797,0.575-2.086
		c0,0,0-0.072-0.071-0.072c-0.072,0-0.215,0.218-0.359,0.361c-0.071,0.07-0.071,0.215-0.145,0.215c0,0-0.07,0-0.07-0.072
		c0-0.143,0.502-0.862,0.861-0.862c0.145,0,0.217,0.071,0.217,0.289C105.981,110.612,105.692,111.478,105.692,111.619
		L105.692,111.619L105.692,111.619z"/>
	<path fill="#FFFFFF" d="M108.14,112.481c0.286-0.432,0.861-1.149,0.861-1.653c0-0.07,0-0.144-0.07-0.215
		c0-0.146-0.072-0.218-0.072-0.287c0-0.072,0.072-0.289,0.287-0.289s0.215,0.146,0.215,0.358c0,0.433-0.286,1.008-1.006,2.015
		c-1.078,1.438-1.365,1.51-1.653,1.51c-0.287,0-0.359-0.215-0.359-0.358c0-0.145,0.072-0.215,0.216-0.215
		c0.145,0,0.217,0.069,0.287,0.215c0.072,0.071,0.072,0.071,0.146,0.071c0.144,0,0.358-0.145,0.503-0.432
		c0.072-0.287,0.216-0.72,0.216-1.726c0-0.145,0-1.149-0.216-1.149c-0.145,0-0.288,0.215-0.432,0.573c0,0,0,0.072-0.071,0.072
		c0-0.072-0.072-0.072-0.072-0.145c0-0.07,0.358-0.791,0.862-0.791c0.145,0,0.432,0.072,0.432,1.295
		C108.21,111.836,108.14,112.194,108.14,112.481L108.14,112.481L108.14,112.481z"/>
	<path fill="#FFFFFF" d="M111.589,109.678c0.072-0.143,0.072-0.215,0.072-0.286c0-0.146-0.145-0.146-0.217-0.146
		c-0.144,0-0.144,0-0.144-0.07c0-0.071,0.072-0.071,0.144-0.071c0,0,0.072,0,0.145,0c0.145,0,0.288,0,0.575,0h0.146
		c0.287,0,0.574,0,0.789,0c0.289,0,0.432,0,0.504,0c0.071,0,0.071,0,0.071,0c0,0.071-0.144,0.358-0.216,0.719
		c-0.07,0.072-0.07,0.072-0.145,0.072c-0.07,0-0.07-0.072-0.07-0.218c0-0.286-0.072-0.432-0.432-0.432h-0.433
		c-0.071,0-0.071,0-0.144,0.289l-0.287,1.149c0.07,0,0.144,0,0.287,0c0.574,0,0.646-0.145,0.719-0.432
		c0.072-0.072,0.072-0.145,0.145-0.145c0.071,0,0.071,0.072,0.071,0.072c0,0.071,0,0.071-0.071,0.145
		c-0.072,0.215-0.216,0.791-0.216,1.006c-0.071,0.072-0.071,0.145-0.146,0.145c-0.07,0-0.07-0.072-0.07-0.145c0,0,0-0.145,0-0.215
		c0-0.289,0-0.289-0.504-0.289c-0.145,0-0.145,0-0.287,0l-0.288,0.936c0,0.072-0.071,0.432-0.071,0.504
		c0,0.144,0.071,0.144,0.287,0.144c0.791,0,0.936-0.144,1.079-0.433c0.071-0.071,0.144-0.215,0.216-0.215c0,0,0.071,0,0.071,0.072
		l-0.216,0.646c0,0.071,0,0.145-0.071,0.145c0,0-0.146,0-0.36,0c-0.287,0-0.646-0.072-1.078-0.072h-0.07
		c-0.288,0-0.504,0.072-0.646,0.072c-0.144,0-0.217,0-0.217,0c-0.07,0-0.07,0-0.07-0.072s0.07-0.072,0.07-0.072
		c0.359,0,0.359-0.071,0.432-0.358L111.589,109.678L111.589,109.678z"/>
	<path fill="#FFFFFF" d="M115.04,110.758c0.359-0.432,0.504-0.721,0.791-0.721c0.145,0,0.288,0.071,0.288,0.217
		c0,0.144-0.072,0.504-0.359,0.504c-0.071,0-0.145-0.071-0.145-0.145s0-0.146,0-0.218c0,0,0,0-0.071,0
		c-0.072,0-0.432,0.576-0.574,0.722c0,0.215,0.215,1.221,0.43,1.221c0.072,0,0.146-0.144,0.217-0.358c0-0.144,0-0.215,0.072-0.215
		c0.071,0,0.071,0.071,0.071,0.143c0,0.289-0.216,0.791-0.575,0.791c-0.287,0-0.359-0.359-0.576-1.078
		c-0.358,0.576-0.719,1.078-1.149,1.078c-0.071,0-0.287-0.07-0.287-0.359c0-0.287,0.216-0.432,0.359-0.432
		c0.071,0,0.216,0.072,0.216,0.217c0,0.072-0.072,0.145-0.072,0.145v0.07c0,0.072,0,0.072,0.072,0.072
		c0.145,0,0.575-0.504,0.791-0.934c-0.145-0.937-0.288-1.15-0.432-1.15c-0.145,0-0.217,0.07-0.287,0.432c0,0.07,0,0.143-0.072,0.143
		c0,0-0.072,0-0.072-0.071c0-0.358,0.217-0.791,0.647-0.791c0.358,0,0.432,0.289,0.575,0.937L115.04,110.758L115.04,110.758z"/>
	<path fill="#FFFFFF" d="M117.125,110.183c0.146,0,0.216,0,0.358,0c0.217,0,0.504,0,0.504,0.504c0,0.502-0.358,1.869-1.077,1.869
		c-0.216,0-0.36-0.146-0.36-0.287c0-0.072,0-0.146,0.072-0.289L117.125,110.183L117.125,110.183z M116.479,112.481
		c0.07,0.072,0.215,0.216,0.502,0.216c1.078,0,1.511-1.294,1.511-1.939c0-0.791-0.647-0.791-0.862-0.791
		c-0.216,0-0.288,0.07-0.432,0.07c0,0,0.144-0.431,0.144-0.502c0,0,0-0.072-0.071-0.072c-0.358,0-0.358,0.072-0.358,0.072
		c-0.072,0-0.072,0.143-0.146,0.432l-0.07,0.144c-0.432,0.072-0.504,0.072-0.504,0.217c0,0,0,0,0.072,0l0,0
		c0.071,0,0.286-0.072,0.358-0.072l-0.862,2.947c-0.072,0.287-0.145,0.432-0.359,0.432c-0.145,0-0.217,0-0.217,0.072
		c0,0.07,0,0.07,0.072,0.07c0,0,0.217,0,0.575,0s0.719,0,0.719,0s0.072,0,0.072-0.07c0-0.072-0.072-0.072-0.216-0.072
		c-0.071,0-0.217-0.072-0.217-0.145c0-0.073,0.072-0.143,0.072-0.215L116.479,112.481L116.479,112.481z"/>
	<path fill="#FFFFFF" d="M119.21,111.403c0.145-0.646,0.432-1.223,0.863-1.223c0.215,0,0.215,0.215,0.215,0.287
		C120.288,111.188,119.569,111.403,119.21,111.403L119.21,111.403z M119.785,111.478c0.216-0.072,1.007-0.289,1.007-0.863
		c0-0.432-0.359-0.576-0.646-0.576c-0.576,0-1.511,0.576-1.511,1.727c0,0.574,0.359,0.935,0.791,0.935
		c0.503,0,1.007-0.72,1.007-0.791v-0.07c-0.072,0-0.072,0-0.145,0.144c-0.359,0.358-0.574,0.358-0.719,0.358
		c-0.071,0-0.432-0.069-0.432-0.573c0.071-0.072,0-0.072,0.071-0.218L119.785,111.478L119.785,111.478z"/>
	<path fill="#FFFFFF" d="M121.583,111.619c0-0.072,0.07-0.144,0.07-0.216l0.146-0.358c0.071-0.071,0.503-1.008,0.862-1.008
		c0.145,0,0.288,0.071,0.288,0.289c0,0.143-0.072,0.432-0.288,0.432c-0.072,0-0.217,0-0.217-0.145l0.072-0.146
		c0-0.072-0.072-0.072-0.072-0.072c-0.358,0-1.077,2.086-1.077,2.158c-0.072,0.072-0.144,0.072-0.216,0.072
		c-0.217,0-0.217,0-0.217-0.072c0-0.145,0.504-1.797,0.504-2.086c0,0,0-0.072-0.071-0.072c-0.072,0-0.216,0.218-0.359,0.361
		c0,0.07-0.071,0.215-0.146,0.215c0,0,0,0,0-0.072c0-0.143,0.433-0.862,0.863-0.862c0.072,0,0.145,0.071,0.145,0.289
		C121.87,110.612,121.653,111.478,121.583,111.619L121.583,111.619L121.583,111.619z"/>
	<path fill="#FFFFFF" d="M123.955,110.254c-0.144,0.646-0.144,0.646-0.431,1.511c0,0.071-0.072,0.358-0.072,0.432
		c0,0.072,0,0.072,0.072,0.072c0.07,0,0.287-0.218,0.502-0.504l0,0c0.072,0,0.072,0,0.072,0c0,0.215-0.504,0.934-0.935,0.934
		c-0.146,0-0.216-0.143-0.216-0.359c0-0.143,0-0.359,0.07-0.432c0.072-0.43,0.289-1.078,0.433-1.652h-0.287
		c-0.072,0-0.146,0-0.146,0c0-0.145,0.146-0.145,0.289-0.145h0.215c0-0.144,0.145-0.646,0.215-0.646
		c0.072-0.072,0.289-0.072,0.361-0.072c0.07,0,0.07,0,0.07,0.072s-0.07,0.287-0.07,0.359l-0.072,0.215c0,0,0,0,0,0.072h0.502
		c0.072,0,0.072,0,0.072,0.072c0,0.071-0.144,0.071-0.144,0.071H123.955L123.955,110.254z"/>
	<path fill="#FFFFFF" d="M124.171,112.194c0-0.145,0-0.358,0.145-0.358s0.216,0.144,0.358,0.358c0.146,0.287,0.288,0.287,0.36,0.287
		c0.215,0,0.287-0.215,0.287-0.358s-0.072-0.287-0.359-0.576c-0.288-0.358-0.359-0.502-0.359-0.719c0-0.287,0.287-0.791,0.936-0.791
		c0.287,0,0.574,0.071,0.574,0.289c0,0.143,0,0.358-0.144,0.358c-0.145,0-0.216-0.071-0.288-0.217
		c-0.072-0.072-0.216-0.215-0.432-0.215c-0.07,0-0.287,0-0.287,0.215c0,0.145,0.145,0.359,0.575,0.863
		c0.216,0.145,0.287,0.359,0.287,0.574c0,0.361-0.431,0.791-0.935,0.791C124.817,112.697,124.171,112.627,124.171,112.194
		L124.171,112.194z"/>
</g>
</svg>
