<?xml version="1.0" encoding="utf-8"?>
<!-- Generator: Adobe Illustrator 16.0.0, SVG Export Plug-In . SVG Version: 6.00 Build 0)  -->
<!DOCTYPE svg PUBLIC "-//W3C//DTD SVG 1.1//EN" "http://www.w3.org/Graphics/SVG/1.1/DTD/svg11.dtd">
<svg version="1.1" id="Layer_1" xmlns="http://www.w3.org/2000/svg" xmlns:xlink="http://www.w3.org/1999/xlink" x="0px" y="0px"
	 width="187.056px" height="187.056px" viewBox="205.048 327.56 187.056 187.056"
	 enable-background="new 205.048 327.56 187.056 187.056" xml:space="preserve">
<path fill="#FFFFFF" d="M298.576,514.616c51.479,0,93.527-42.048,93.527-93.528c0-51.48-42.048-93.528-93.527-93.528
	c-51.48,0-93.528,42.048-93.528,93.528C205.048,472.568,247.096,514.616,298.576,514.616z"/>
<path fill="#FFFFFF" d="M298.576,349.88c39.168,0,71.208,32.04,71.208,71.208s-32.04,71.208-71.208,71.208
	s-71.208-32.04-71.208-71.208S259.408,349.88,298.576,349.88L298.576,349.88z M298.576,339.152
	c-45.144,0-81.936,36.792-81.936,81.936c0,45.145,36.792,81.937,81.936,81.937c45.144,0,81.936-36.792,81.936-81.937
	C380.512,375.944,343.72,339.152,298.576,339.152z"/>
<path fill="#FFFFFF" d="M298.576,353.408c37.296,0,67.68,30.384,67.68,67.68s-30.384,67.68-67.68,67.68
	c-37.296,0-67.68-30.384-67.68-67.68S261.28,353.408,298.576,353.408L298.576,353.408z M298.576,349.88
	c-39.168,0-71.208,32.04-71.208,71.208s32.04,71.208,71.208,71.208s71.208-32.04,71.208-71.208S337.744,349.88,298.576,349.88z"/>
<path fill="#FFFFFF" d="M298.576,336.416c46.584,0,84.672,38.088,84.672,84.672s-38.088,84.672-84.672,84.672
	s-84.672-38.088-84.672-84.672S251.992,336.416,298.576,336.416L298.576,336.416z M298.576,339.152
	c-45.144,0-81.936,36.792-81.936,81.936c0,45.145,36.792,81.937,81.936,81.937c45.144,0,81.936-36.792,81.936-81.937
	C380.512,375.944,343.72,339.152,298.576,339.152z"/>
<linearGradient id="SVGID_1_" gradientUnits="userSpaceOnUse" x1="195.3325" y1="336.668" x2="293.7259" y2="435.0614" gradientTransform="matrix(1 0 0 -1 54 807)">
	<stop  offset="0" style="stop-color:#939598"/>
	<stop  offset="0.53" style="stop-color:#FFFFFF"/>
	<stop  offset="0.63" style="stop-color:#FFFFFF"/>
	<stop  offset="1" style="stop-color:#939598"/>
</linearGradient>
<path fill="url(#SVGID_1_)" d="M298.576,349.88c39.168,0,71.208,32.04,71.208,71.208s-32.04,71.208-71.208,71.208
	s-71.208-32.04-71.208-71.208S259.408,349.88,298.576,349.88L298.576,349.88z M298.576,339.152
	c-45.144,0-81.936,36.792-81.936,81.936c0,45.145,36.792,81.937,81.936,81.937c45.144,0,81.936-36.792,81.936-81.937
	C380.512,375.944,343.72,339.152,298.576,339.152z"/>
<linearGradient id="SVGID_2_" gradientUnits="userSpaceOnUse" x1="201.8325" y1="343.1675" x2="287.2914" y2="428.6263" gradientTransform="matrix(1 0 0 -1 54 807)">
	<stop  offset="0" style="stop-color:#FFFFFF"/>
	<stop  offset="1" style="stop-color:#808285"/>
</linearGradient>
<path fill="url(#SVGID_2_)" d="M298.576,353.408c37.296,0,67.68,30.384,67.68,67.68s-30.384,67.68-67.68,67.68
	c-37.296,0-67.68-30.384-67.68-67.68S261.28,353.408,298.576,353.408L298.576,353.408z M298.576,349.88
	c-39.168,0-71.208,32.04-71.208,71.208s32.04,71.208,71.208,71.208s71.208-32.04,71.208-71.208S337.744,349.88,298.576,349.88z"/>
<path fill="#E03A3E" d="M309.952,373.424L269.2,373.28l-6.12,10.512h40.68L309.952,373.424L309.952,373.424z M265.312,415.112
	h26.928l-5.832,10.512l-39.384-0.216l12.528-20.88h-9l6.192-10.368h38.52l-6.336,10.368h-17.28L265.312,415.112z"/>
<polygon fill="#E03A3E" points="325.432,404.528 318.16,392.792 298.648,425.408 286.264,425.408 292.24,415.112 292.96,415.112 
	318.16,373.064 349.84,425.624 337.888,425.624 331.552,415.112 312.904,415.112 319.24,404.528 "/>
<path fill="#345798" d="M247.024,435.272v1.584c0,1.943,0.36,3.312,1.08,4.031c0.72,0.721,1.944,1.08,3.672,1.08h7.056v5.256h-8.28
	v-3.168h-3.528v1.584c0,1.801,0.36,3.168,1.08,3.889c0.72,0.72,1.944,1.008,3.672,1.008h5.616c1.944,0,3.024-0.145,3.888-1.008
	c0.504-0.721,0.864-1.944,0.864-3.889v-2.304c0-1.944-0.36-3.168-1.008-3.815c-0.72-0.721-1.8-1.08-3.744-1.08h-6.84v-4.896h8.064
	v2.809H262v-1.585c0-1.584-0.36-2.808-1.08-3.527c-0.72-0.864-1.728-1.225-3.528-1.225h-5.616c-1.728,0-2.952,0.36-3.672,1.225
	C247.6,431.96,247.24,433.184,247.024,435.272z"/>
<polygon fill="#345798" points="317.152,430.16 316.936,433.544 323.272,433.544 323.272,450.752 327.16,450.752 327.16,433.544 
	333.496,433.544 333.496,430.16 "/>
<path fill="#345798" d="M339.472,430.16c-1.943,0-2.952,0.359-3.672,1.08c-0.576,0.72-0.864,2.088-0.864,4.032V437
	c0,1.8,0.288,3.168,0.864,4.104c0.72,0.505,1.729,0.864,3.672,0.864h7.057v5.256h-9v-3.168H334v1.584
	c0,1.944,0.36,3.168,1.224,4.032c0.576,0.72,1.801,1.08,3.528,1.08h6.552c1.729,0,2.952-0.216,3.672-0.864
	c0.505-0.936,0.864-2.159,0.864-4.248v-2.304c0-1.728-0.359-2.952-0.864-3.815c-0.72-0.721-1.943-0.937-3.672-0.937l-7.056-0.144
	v-4.896h8.064v2.952h3.384v-1.584c0-1.729-0.36-2.952-1.08-3.672c-0.72-0.721-1.944-1.08-3.672-1.08H339.472L339.472,430.16z"/>
<path fill="#345798" d="M275.68,435.272v2.663c0,1.225-0.504,1.584-1.728,1.584h-5.832v-6.191h5.832
	C275.176,433.328,275.68,433.832,275.68,435.272L275.68,435.272z M275.176,442.832c2.808,0,4.248-1.44,4.248-4.032v-4.392
	c0-3.024-1.44-4.393-4.248-4.393h-10.872v20.521h3.816v-7.704H275.176L275.176,442.832z"/>
<path fill="#345798" d="M293.68,430.016h-7.776c-1.728,0-2.952,0.36-3.672,1.225c-0.72,0.72-0.864,2.088-0.864,4.032v10.367
	c0,1.944,0.144,3.168,0.864,3.889c0.72,0.863,1.944,1.224,3.672,1.224h7.56c1.944,0,3.168-0.36,3.672-1.224
	c0.937-0.721,1.08-1.944,1.08-3.889v-10.367c0-1.944-0.144-3.312-0.864-4.032C296.632,430.52,295.408,430.16,293.68,430.016
	L293.68,430.016z M285.04,433.544h9.504v13.68h-9.504V433.544z"/>
<path fill="#345798" d="M311.896,435.272v2.663l-0.36,1.584l-1.224,0.288h-5.977v-6.479h5.977
	C311.32,433.328,311.896,434.048,311.896,435.272L311.896,435.272z M312.4,450.752h5.76l-8.568-7.776h1.944
	c2.952,0,4.392-1.367,4.392-4.176v-4.392c0-2.809-1.439-4.248-4.392-4.248h-10.944v20.592h3.744v-7.776h0.504L312.4,450.752z"/>
<polygon fill="#345798" points="353.368,430.664 354.232,430.664 354.232,430.376 352.144,430.376 352.144,430.664 353.008,430.664 
	353.008,432.464 353.368,432.464 "/>
<polygon fill="#345798" points="355.096,430.88 355.096,432.464 354.808,432.464 354.808,430.376 355.096,430.376 356.032,431.744 
	356.68,430.376 357.04,430.376 357.04,432.464 356.68,432.464 356.68,430.88 356.536,431.24 356.032,432.104 355.816,432.104 
	355.096,431.24 "/>
<linearGradient id="SVGID_3_" gradientUnits="userSpaceOnUse" x1="193.8325" y1="335.168" x2="295.4597" y2="436.7951" gradientTransform="matrix(1 0 0 -1 54 807)">
	<stop  offset="0" style="stop-color:#939598"/>
	<stop  offset="0.73" style="stop-color:#FFFFFF"/>
	<stop  offset="1" style="stop-color:#939598"/>
</linearGradient>
<path fill="url(#SVGID_3_)" d="M298.576,336.416c46.584,0,84.672,38.088,84.672,84.672s-38.088,84.672-84.672,84.672
	s-84.672-38.088-84.672-84.672S251.992,336.416,298.576,336.416L298.576,336.416z M298.576,339.152
	c-45.144,0-81.936,36.792-81.936,81.936c0,45.145,36.792,81.937,81.936,81.937c45.144,0,81.936-36.792,81.936-81.937
	C380.512,375.944,343.72,339.152,298.576,339.152z"/>
</svg>
