<?xml version="1.0" encoding="utf-8"?>
<!-- Generator: Adobe Illustrator 16.0.0, SVG Export Plug-In . SVG Version: 6.00 Build 0)  -->
<!DOCTYPE svg PUBLIC "-//W3C//DTD SVG 1.1//EN" "http://www.w3.org/Graphics/SVG/1.1/DTD/svg11.dtd">
<svg version="1.1" id="Layer_1" xmlns="http://www.w3.org/2000/svg" xmlns:xlink="http://www.w3.org/1999/xlink" x="0px" y="0px"
	 width="187.085px" height="111.22px" viewBox="265.837 304.768 187.085 111.22"
	 enable-background="new 265.837 304.768 187.085 111.22" xml:space="preserve">
<g>
	<path fill="#E03A3E" d="M308.148,359.021l-16.708-0.053l-2.553,4.288h16.683L308.148,359.021L308.148,359.021z M289.808,376.123
		h11.051l-2.394,4.289l-16.104-0.053l5.131-8.551h-3.736l2.552-4.289l15.735,0.053l-2.579,4.236h-7.052L289.808,376.123
		L289.808,376.123z"/>
	<polygon fill="#E03A3E" points="314.463,371.809 311.516,366.939 303.49,380.359 298.412,380.359 300.833,376.07 301.123,376.07 
		311.516,358.889 324.462,380.412 319.542,380.412 317.015,376.123 309.332,376.123 311.911,371.809 	"/>
	<path fill="#345798" d="M282.361,384.359v0.658c0,0.842,0.131,1.366,0.395,1.657c0.316,0.313,0.79,0.447,1.526,0.447h2.868v2.155
		h-3.341v-1.313l-1.447,0.024v0.634c0,0.735,0.131,1.313,0.447,1.604c0.263,0.264,0.737,0.396,1.474,0.396l2.342,0.051
		c0.737,0,1.21-0.131,1.526-0.446c0.263-0.289,0.395-0.814,0.395-1.604V387.7c0-0.765-0.132-1.289-0.447-1.578
		c-0.263-0.315-0.737-0.447-1.474-0.447h-2.815v-2.026h3.289v1.186h1.369v-0.658c0-0.684-0.132-1.186-0.447-1.475
		c-0.263-0.314-0.737-0.447-1.447-0.447h-2.289c-0.737,0-1.21,0.133-1.474,0.447C282.545,382.99,282.414,383.518,282.361,384.359
		L282.361,384.359z"/>
	<polygon fill="#345798" points="311.042,382.307 310.989,383.701 313.621,383.701 313.621,390.754 315.173,390.754 
		315.173,383.701 317.752,383.701 317.752,382.334 	"/>
	<path fill="#345798" d="M320.199,382.334c-0.737,0-1.21,0.131-1.475,0.395c-0.263,0.314-0.395,0.896-0.395,1.631v0.736
		c0,0.764,0.131,1.316,0.395,1.633c0.264,0.263,0.737,0.396,1.475,0.396h2.868v2.185h-3.605v-1.316h-1.447v0.658
		c0,0.789,0.132,1.315,0.447,1.631c0.263,0.316,0.737,0.475,1.474,0.475h2.632c0.763,0,1.236-0.131,1.552-0.422
		c0.21-0.314,0.342-0.842,0.342-1.684v-0.92c0-0.738-0.132-1.265-0.342-1.58c-0.315-0.289-0.789-0.42-1.552-0.42l-2.843-0.054
		v-1.975h3.289v1.187h1.396v-0.658c0-0.711-0.131-1.187-0.421-1.5c-0.315-0.265-0.789-0.396-1.553-0.396L320.199,382.334
		L320.199,382.334z"/>
	<path fill="#345798" d="M294.07,384.359v1.104c0,0.474-0.21,0.685-0.71,0.685h-2.395v-2.578h2.395
		C293.86,383.57,294.07,383.834,294.07,384.359L294.07,384.359z M293.86,387.518c1.184,0,1.737-0.58,1.737-1.711v-1.789
		c0-1.184-0.553-1.764-1.737-1.764h-4.473v8.42h1.579v-3.156H293.86L293.86,387.518z"/>
	<path fill="#345798" d="M301.438,382.254h-3.158c-0.737,0-1.236,0.133-1.5,0.447c-0.289,0.289-0.421,0.869-0.421,1.658v4.264
		c0,0.789,0.132,1.314,0.395,1.604c0.29,0.316,0.789,0.5,1.526,0.5h3.105c0.763,0,1.29-0.184,1.5-0.5
		c0.316-0.262,0.447-0.789,0.447-1.604v-4.264c0-0.789-0.131-1.369-0.395-1.658C302.675,382.439,302.175,382.307,301.438,382.254
		L301.438,382.254z M297.886,383.648l3.894,0.053v5.578h-3.894V383.648L297.886,383.648z"/>
	<path fill="#345798" d="M308.938,384.359v1.131l-0.132,0.633l-0.525,0.131h-2.447v-2.631h2.447
		C308.727,383.623,308.938,383.887,308.938,384.359L308.938,384.359z M309.148,390.727l2.367,0.027l-3.552-3.184h0.842
		c1.185,0,1.764-0.58,1.764-1.711v-1.816c0-1.184-0.579-1.736-1.764-1.736h-4.525v8.42h1.553v-3.156h0.21L309.148,390.727
		L309.148,390.727z"/>
	<polygon fill="#345798" points="325.909,382.518 326.251,382.518 326.251,382.387 325.436,382.387 325.436,382.518 
		325.777,382.518 325.777,383.254 325.909,383.254 	"/>
	<polygon fill="#345798" points="326.62,382.596 326.62,383.254 326.488,383.254 326.488,382.387 326.62,382.387 326.961,382.912 
		327.304,382.387 327.435,382.387 327.435,383.254 327.277,383.254 327.277,382.596 327.225,382.701 326.961,383.123 
		326.909,383.123 326.646,382.701 	"/>
	<path fill="#FEBF3B" d="M402.27,327.208c-2.289,0.921-4.211,1.974-5.763,3.21v-1.974l-24.812,6.71v2.973
		c-1.896-0.658-3.947-0.947-6.104-0.816c-1.604,0.079-3.5,0.421-5.657,1.053l-38.049,10.341c-5.657-3.763-11.893-5.604-18.682-5.525
		c-4.526,0.052-8.868,0.973-12.946,2.763c-4,1.763-7.552,4.21-10.578,7.42c-3.052,3.105-5.42,6.709-7.052,10.788
		c-1.71,4.158-2.552,8.578-2.5,13.185c0.052,4.578,0.973,8.947,2.763,13.131c1.763,3.974,4.21,7.525,7.315,10.656
		c3.131,3.053,6.684,5.42,10.657,7.104c4.184,1.712,8.525,2.58,13.077,2.527c5.658-0.08,10.999-1.527,15.972-4.342l41.206-10.813
		c4.184-1.158,7.631-2.816,10.394-4.974v2.156l24.734-6.71v-3.422l1.814,0.447c2.579,0.396,5.343,0.396,8.368-0.104l8.288-1.921
		l12.684-3.42c5.421-1.5,9.735-3.868,12.92-7.157c1.553-1.604,2.735-3.185,3.474-4.632c1.131-2.104,1.71-4.342,1.71-6.708
		l0.132-44.048l-36.917,10.052C405.953,325.893,403.795,326.55,402.27,327.208L402.27,327.208z M452.479,304.768l0.074,0.074v0.105
		h0.054l0.053,0.026v0.105h0.025l0.054,0.026v0.105h0.053l0.001,0.001l0.13,53.309c-0.053,6.157-2.735,11.813-8.024,17.024
		c-4.525,4.342-10.395,7.551-17.734,9.525l-13.762,3.709c-4.789,1.289-8.499,2.104-11.13,2.475l-2.237,0.289v0.842l-83.543,22.051
		h-0.236l-1.79,0.367c-3.025,0.738-6.104,1.133-9.289,1.187c-5.184,0.024-10.13-0.896-14.919-2.765
		c-4.789-1.946-9.025-4.711-12.762-8.342c-3.737-3.631-6.578-7.84-8.604-12.551c-1.974-4.684-3.026-9.631-3.052-14.814
		c-0.053-5.262,0.921-10.313,2.894-15.182c1.921-4.684,4.684-8.815,8.236-12.394c3.553-3.658,7.631-6.5,12.288-8.525
		c4.763-2.105,9.815-3.158,15.078-3.184c4.868-0.052,9.683,0.79,14.394,2.579l35.785-9.394l2.053-0.395v-0.395L452.479,304.768
		L452.479,304.768z"/>
	<path fill="#F37021" d="M402.27,327.208c-2.289,0.921-4.211,1.974-5.763,3.21v-1.974l-24.812,6.71v2.973
		c-1.896-0.658-3.947-0.947-6.104-0.816c-1.604,0.079-3.5,0.421-5.657,1.053l-38.049,10.341c-5.657-3.763-11.893-5.604-18.682-5.525
		c-4.526,0.052-8.868,0.973-12.946,2.763c-4,1.763-7.552,4.21-10.578,7.42c-3.052,3.105-5.42,6.709-7.052,10.788
		c-1.71,4.158-2.552,8.578-2.5,13.185c0.052,4.578,0.973,8.947,2.763,13.131c1.763,3.974,4.21,7.525,7.315,10.656
		c3.131,3.053,6.684,5.42,10.657,7.104c4.184,1.712,8.525,2.58,13.077,2.527c5.658-0.08,10.999-1.527,15.972-4.342l41.206-10.813
		c4.184-1.158,7.631-2.816,10.394-4.974v2.156l24.734-6.71v-3.422l1.814,0.447c2.579,0.396,5.343,0.396,8.368-0.104l8.288-1.921
		l12.684-3.42c5.421-1.5,9.735-3.868,12.92-7.157c1.553-1.604,2.735-3.185,3.474-4.632c1.131-2.104,1.71-4.342,1.71-6.708
		l0.132-44.048l-36.917,10.052C405.953,325.893,403.795,326.55,402.27,327.208L402.27,327.208z M450.422,307.842l-58.021,15.656
		l-33.417,8.973v0.631l-4.079,0.658l-4.053,0.921l-32.26,8.63c-4.524-1.842-9.262-2.71-14.208-2.684
		c-4.973,0.052-9.709,1.052-14.209,3.026c-4.342,1.895-8.157,4.526-11.499,7.946c-3.368,3.42-5.973,7.315-7.762,11.656
		c-1.842,4.527-2.71,9.265-2.684,14.209c0.053,4.976,1.053,9.658,3.026,14.185c1.895,4.342,4.526,8.155,7.947,11.524
		c3.421,3.342,7.315,5.867,11.709,7.685c4.552,1.866,9.288,2.762,14.208,2.709c3.025-0.054,5.973-0.396,8.814-1.132l1.922-0.368
		h0.104l37.259-9.604l44.442-11.92v-1.104l4.236-0.605c2.735-0.342,6.367-1.131,10.973-2.42l13.683-3.684
		c6.921-1.869,12.446-4.816,16.63-8.896c4.868-4.789,7.264-9.867,7.315-15.313L450.422,307.842L450.422,307.842z"/>
	<path d="M359.853,359.678c0,0.683-0.342,1.341-1.104,2c-0.658,0.578-1.658,1.053-3.052,1.447l-13.419,3.658v-7.815l13.709-3.736
		l2.763-0.132c0.763,0.237,1.104,0.658,1.104,1.421L359.853,359.678L359.853,359.678z M365.773,341.996
		c-1.369,0-3.079,0.263-5.054,0.842l-33.97,8.973l0.079,10.104c2.842,4.5,4.289,9.685,4.289,15.474
		c0,5.524-1.315,10.473-3.947,14.92l0.105,7.708l33.102-8.944c2.447-0.658,4.525-1.5,6.131-2.422
		c1.421-0.789,2.815-1.842,4.185-3.158c1.079-1,2.053-2.262,2.842-3.814c0.842-1.525,1.237-2.789,1.264-3.842v-7.5
		c0.052-1.051-0.025-1.893-0.264-2.473c-0.289-0.869-0.815-1.658-1.578-2.314c-0.658-0.605-1.448-1.053-2.369-1.369
		c1.105-0.922,2.026-1.973,2.737-3.053c0.553-0.92,1-1.815,1.21-2.631c0.237-0.763,0.314-1.631,0.314-2.631l0.054-6.236
		c-0.054-1.789-0.396-3.21-1.053-4.263c-0.657-1.079-1.764-1.921-3.288-2.526C369.062,342.207,367.483,341.943,365.773,341.996
		L365.773,341.996z M359.773,378.307c0,0.527-0.264,1.053-0.789,1.633c-0.526,0.474-1.289,0.867-2.237,1.131l-14.13,3.867
		l0.053-8.129l13.446-3.633l2.735-0.131c0.605,0.211,0.922,0.658,0.922,1.264V378.307L359.773,378.307z"/>
	<polygon points="376.166,338.654 375.982,386.807 391.823,382.57 392.007,334.418 	"/>
	<path d="M441.106,321.077l-31.603,8.604c-2.868,0.737-5.052,1.447-6.578,2.105c-2.157,0.921-3.921,2.105-5.235,3.447
		c-1.526,1.579-2.632,3.158-3.315,4.71c-0.658,1.579-1.026,3.368-1.026,5.394l-0.079,24.629c-0.052,2.343,0.316,4.132,0.975,5.396
		c0.922,1.684,2.5,2.684,4.814,3.078c2.186,0.395,4.605,0.342,7.289-0.08l7.525-1.814l12.735-3.369
		c4.604-1.262,8.184-3.236,10.734-5.867c1.316-1.42,2.237-2.735,2.815-3.92c0.553-1.184,0.869-2.5,0.869-3.895l0.077-18.735
		l-28.97,7.868l13.235,7.052l-0.053,3.736c0,0.657-0.158,1.132-0.554,1.526c-0.895,0.736-2.079,1.313-3.525,1.711l-7.656,2.104
		c-1.632,0.395-2.686,0.527-3.263,0.344c-0.554-0.133-0.816-0.396-0.816-0.791l0.132-20.787c0-0.421,0.211-0.947,0.658-1.526
		c0.657-0.658,1.342-1.132,2.184-1.368l28.551-7.763L441.106,321.077L441.106,321.077z"/>
	<path fill="#FFFFFF" d="M402.27,327.208c-2.289,0.921-4.211,1.974-5.763,3.21v-1.974l-24.812,6.71v2.973
		c-1.896-0.658-3.947-0.947-6.104-0.816c-1.604,0.079-3.5,0.421-5.657,1.053l-38.049,10.341c-5.657-3.763-11.893-5.604-18.682-5.525
		c-4.526,0.052-8.868,0.973-12.946,2.763c-4,1.763-7.552,4.21-10.578,7.42c-3.052,3.105-5.42,6.709-7.052,10.788
		c-1.71,4.158-2.552,8.578-2.5,13.185c0.052,4.578,0.973,8.947,2.763,13.131c1.763,3.974,4.21,7.525,7.315,10.656
		c3.131,3.053,6.684,5.42,10.657,7.104c4.184,1.712,8.525,2.58,13.077,2.527c5.658-0.08,10.999-1.527,15.972-4.342l41.206-10.813
		c4.184-1.158,7.631-2.816,10.394-4.974v2.156l24.734-6.71v-3.422l1.814,0.447c2.579,0.396,5.343,0.396,8.368-0.104l8.288-1.921
		l12.684-3.42c5.421-1.5,9.735-3.868,12.92-7.157c1.553-1.604,2.735-3.185,3.474-4.632c1.131-2.104,1.71-4.342,1.71-6.708
		l0.132-44.048l-36.917,10.052C405.953,325.893,403.795,326.55,402.27,327.208L402.27,327.208z M370.193,343.575
		c1.421,0.605,2.421,1.395,3,2.368c0.553,0.921,0.814,2.158,0.867,3.684l-0.053,6.131c0,0.921-0.079,1.763-0.263,2.421
		c-0.211,0.737-0.605,1.579-1.186,2.447c-1,1.5-2.314,2.869-3.973,4.054c1.657,0.157,2.92,0.684,3.841,1.524
		c0.658,0.58,1.054,1.187,1.29,1.842c0.158,0.527,0.264,1.315,0.264,2.315l-0.054,7.474c0,0.869-0.342,2-1.052,3.367
		c-0.79,1.446-1.711,2.687-2.764,3.633c-1.396,1.367-2.764,2.42-4.131,3.156c-1.526,0.842-3.446,1.579-5.867,2.235l-30.972,8.396
		c2.553-3.024,4.474-6.367,5.842-10.104c1.368-3.842,2.025-7.842,1.974-11.92c-0.053-4.658-1-9.078-2.815-13.236
		c-1.79-4.077-4.235-7.629-7.394-10.76l34.154-8.894c1.974-0.579,3.684-0.842,5.077-0.868
		C367.483,342.785,368.878,343.048,370.193,343.575L370.193,343.575z M398.322,335.812c1.21-1.315,2.895-2.42,4.999-3.289
		c1.446-0.605,3.579-1.263,6.395-2.026l30.522-8.289l-0.079,10.052l-27.893,7.552c-0.974,0.263-1.842,0.816-2.604,1.658
		c-0.605,0.737-0.921,1.395-0.921,2.052l-0.079,20.839c0,0.842,0.474,1.369,1.395,1.633c0.764,0.156,2.026,0.025,3.736-0.447
		l7.684-2.053c1.578-0.395,2.896-1.053,3.896-1.947c0.578-0.553,0.868-1.264,0.868-2.132v-4.263l-11.788-6.262l25.786-6.973
		l-0.079,17.577c0,1.314-0.264,2.553-0.789,3.631c-0.526,1.105-1.421,2.289-2.631,3.605c-2.421,2.5-5.896,4.395-10.367,5.578
		l-12.657,3.446l-7.684,1.813c-2.499,0.343-4.736,0.343-6.788,0.027c-2.079-0.342-3.475-1.211-4.264-2.658
		c-0.578-1.104-0.867-2.762-0.867-4.973l0.131-24.629c0-1.815,0.29-3.42,0.869-4.841
		C395.717,338.917,396.77,337.338,398.322,335.812L398.322,335.812z M391.112,335.497l-0.132,46.416l-14.156,3.815l0.211-46.417
		L391.112,335.497L391.112,335.497z M303.727,348.706c7.578,0,14.025,2.815,19.366,8.368c5.368,5.578,8.025,12.365,8.025,20.312
		c0,7.896-2.657,14.656-8.025,20.263c-5.341,5.604-11.788,8.42-19.366,8.42c-7.604,0-14.051-2.816-19.392-8.42
		c-5.342-5.605-8.026-12.367-8.026-20.263c0-7.947,2.684-14.734,8.026-20.312C289.676,351.521,296.123,348.706,303.727,348.706
		L303.727,348.706z"/>
	<path d="M275.388,364.967c-1.579,4-2.315,8.209-2.289,12.551c0.053,4.342,0.895,8.5,2.552,12.5
		c1.579,3.814,3.815,7.183,6.657,10.13c2.868,2.946,6.104,5.186,9.788,6.788c3.763,1.632,7.71,2.476,11.894,2.423
		c4.104-0.054,8.052-0.976,11.841-2.685c3.631-1.658,6.868-3.975,9.631-6.975c2.763-3.025,4.92-6.445,6.446-10.287
		c1.553-4,2.342-8.211,2.29-12.551c-0.053-4.342-0.921-8.5-2.552-12.5c-1.605-3.814-3.843-7.183-6.71-10.13
		c-2.843-2.947-6.079-5.21-9.763-6.841c-3.789-1.631-7.735-2.447-11.894-2.421c-4.131,0.053-8.078,0.974-11.788,2.684
		c-3.657,1.658-6.894,4-9.709,7.025C279.02,357.705,276.888,361.125,275.388,364.967L275.388,364.967z M276.967,377.439
		c-0.052-3.816,0.605-7.474,1.974-10.92c1.316-3.396,3.21-6.42,5.604-9c2.421-2.631,5.236-4.684,8.42-6.131
		c3.289-1.552,6.762-2.289,10.394-2.342c3.605-0.026,7.079,0.658,10.367,2.105c3.237,1.368,6.078,3.342,8.578,5.92
		c2.5,2.605,4.447,5.579,5.789,8.921c1.447,3.444,2.21,7.104,2.237,10.92c0.053,3.813-0.605,7.444-1.973,10.944
		c-1.343,3.396-3.237,6.42-5.658,8.999c-2.396,2.633-5.21,4.684-8.42,6.131c-3.29,1.553-6.71,2.291-10.341,2.344
		c-3.604,0.025-7.052-0.658-10.393-2.105c-3.21-1.422-6.052-3.395-8.552-5.975c-2.5-2.578-4.42-5.524-5.841-8.894
		C277.704,384.887,277.02,381.254,276.967,377.439L276.967,377.439z"/>
	<path d="M443.317,321.288v3.395h-0.844v-3.395h-1.184v-0.658h3.21v0.658H443.317L443.317,321.288z M448.922,320.63v4.052h-0.737
		v-3.21l-0.788,3.21h-0.789l-0.844-3.21v3.21h-0.735v-4.052h1.211l0.763,2.763l0.686-2.763H448.922L448.922,320.63z"/>
</g>
</svg>
