<?xml version="1.0" encoding="utf-8"?>
<!-- Generator: Adobe Illustrator 16.0.0, SVG Export Plug-In . SVG Version: 6.00 Build 0)  -->
<!DOCTYPE svg PUBLIC "-//W3C//DTD SVG 1.1//EN" "http://www.w3.org/Graphics/SVG/1.1/DTD/svg11.dtd">
<svg version="1.1" id="Layer_1" xmlns="http://www.w3.org/2000/svg" xmlns:xlink="http://www.w3.org/1999/xlink" x="0px" y="0px"
	 width="175.748px" height="125.562px" viewBox="271.504 297.596 175.748 125.562"
	 enable-background="new 271.504 297.596 175.748 125.562" xml:space="preserve">
<g>
	<polygon fill="#F6C123" points="271.504,423.158 271.667,297.619 447.252,297.619 447.09,423.158 271.504,423.158 	"/>
	<path fill="#303A96" d="M289.788,415.131v-4c2.35,1.422,5.371,2.16,8.652,2.113c1.132-0.014,2.152-0.336,2.84-0.894
		c0.339-0.274,0.454-0.616,0.32-0.952c-0.134-0.336-0.492-0.604-0.999-0.75c-0.715-0.203-1.391-0.354-2.152-0.479
		c-1.749-0.287-3.301-0.637-4.937-1.115c-2.937-0.86-4.767-2.703-4.683-4.717s2.064-3.795,5.069-4.561
		c4.396-1.123,9.289-0.785,13.176,0.911v4.177c-2.527-1.351-5.716-1.943-9.024-1.679c-0.806,0.066-1.493,0.347-1.908,0.779
		c-0.21,0.219-0.282,0.463-0.21,0.715c0.071,0.252,0.274,0.465,0.594,0.627c0.762,0.386,1.587,0.634,2.544,0.771
		c1.797,0.252,3.396,0.578,5.084,1.035c1.607,0.438,2.814,1.2,3.485,2.207c0.965,1.43,0.9,2.977-0.182,4.373
		c-1.082,1.396-2.989,2.396-5.392,2.821C297.793,417.271,293.359,416.771,289.788,415.131L289.788,415.131L289.788,415.131z
		 M317.993,407.592h5.03c0.855,0.002,1.631-0.293,2.02-0.766c0.709-0.84,0.655-1.828-0.146-2.637
		c-0.421-0.437-1.169-0.693-1.987-0.688h-4.916V407.592L317.993,407.592L317.993,407.592z M310.796,416.34v-16.771h12.426
		c2.622-0.013,5.017,0.715,6.609,2.004c2.472,2.074,2.816,4.809,0.894,7.094c-1.267,1.529-3.768,2.48-6.542,2.488l-6.139-0.033
		v5.219L310.796,416.34L310.796,416.34L310.796,416.34z M342.975,410.664c0.744,1.109,2.76,1.883,5.107,1.959
		c2.349,0.078,4.553-0.555,5.587-1.604c1.755-1.764,1.848-3.737,0.259-5.538c-0.968-1.123-3.236-1.834-5.697-1.783
		c-2.462,0.049-4.606,0.85-5.386,2.01C341.791,407.359,341.834,409.025,342.975,410.664L342.975,410.664L342.975,410.664z
		 M335.391,412.699c-2.511-2.873-2.668-5.953-0.454-8.887c2.081-2.81,7.482-4.681,13.515-4.681s11.434,1.871,13.514,4.681
		c2.124,2.95,1.877,6.028-0.713,8.887c-2.245,2.561-7.305,4.207-12.93,4.207C342.696,416.906,337.636,415.26,335.391,412.699
		L335.391,412.699L335.391,412.699z M372.858,406.807h4.394c0.789,0.002,1.511-0.174,2.086-0.51c0.578-0.34,0.886-0.795,0.87-1.291
		c-0.014-0.494-0.347-0.94-0.945-1.27c-0.507-0.271-1.12-0.41-1.79-0.406h-4.613L372.858,406.807L372.858,406.807L372.858,406.807z
		 M366.011,416.34v-16.771h14.245c2.596-0.023,4.957,0.881,6.085,2.332c1.171,1.438,1.148,3.086-0.062,4.514
		c-1.229,1.484-3.629,2.418-6.32,2.457l8.13,7.469h-8.202l-7.062-7.514v7.514L366.011,416.34L366.011,416.34L366.011,416.34z
		 M395.566,416.34v-12.533h-6.829v-4.237h20.156v4.17h-6.831v12.602L395.566,416.34L395.566,416.34L395.566,416.34z
		 M411.261,415.131v-4c2.351,1.422,5.37,2.16,8.652,2.113c1.133-0.014,2.152-0.336,2.84-0.894c0.34-0.274,0.455-0.616,0.321-0.952
		s-0.492-0.604-0.999-0.75c-0.715-0.203-1.392-0.354-2.152-0.479c-1.749-0.287-3.301-0.637-4.938-1.115
		c-2.938-0.86-4.767-2.703-4.683-4.717s2.063-3.795,5.068-4.561c4.396-1.123,9.289-0.785,13.177,0.911v4.177
		c-2.526-1.351-5.716-1.943-9.023-1.679c-0.807,0.066-1.493,0.347-1.908,0.779c-0.21,0.219-0.282,0.463-0.21,0.715
		c0.07,0.252,0.273,0.465,0.594,0.627c0.761,0.386,1.587,0.634,2.544,0.771c1.797,0.252,3.396,0.578,5.084,1.035
		c1.607,0.438,2.814,1.2,3.485,2.207c0.965,1.43,0.899,2.977-0.183,4.373c-1.082,1.396-2.988,2.396-5.392,2.821
		C419.267,417.271,414.832,416.771,411.261,415.131L411.261,415.131L411.261,415.131z M271.594,423.078l0.037-30.156l175.348,0.07
		l0.049,30.115L271.594,423.078L271.594,423.078L271.594,423.078z"/>
	<path fill="#303A96" d="M271.651,389.996l0.064-92.21h8.01l-4.061,92.21H271.651L271.651,389.996L271.651,389.996z
		 M277.861,385.834l13.614-88l17.217-0.049c-2.605,7.442-5.042,14.418-7.911,22.004h-11.167l-0.178,32.382L277.861,385.834
		L277.861,385.834L277.861,385.834z M278.615,389.996h161.981l-24.024-43.943l-1.979,3.658l19.948,36.646h-22.344l-9.021-16.369
		l-9.143,16.369h-19.597l19.198-34.286l-17.6-32.283h22.335l6.508,12.03l2.212-3.977l-16.474-30.246H329.1l-12.564,22.192h12.164
		v18.75h-19.558v8.732h16.322v18.24h-16.711l0.03,20.895h-19.256l-0.029-16.538C285.425,376.578,282.018,382.863,278.615,389.996
		L278.615,389.996L278.615,389.996z M326.677,353.02c0.158-13.62,9.488-25.598,22.536-28.931c7.852-2.14,15.803-1.109,22.868,2.962
		c8.374,4.478,13.773,12.753,14.553,22.306c0.421,3.16,0.415,6.088-0.018,9.247c-0.94,7.082-4.154,13.222-9.415,17.988
		c-0.112,0.104-0.207,0.205-0.303,0.326c-4.482,3.766-9.428,6.152-15.14,7.307c-3.29,0.529-6.362,0.517-9.646-0.043
		c-9.678-1.744-17.71-7.715-22.25-16.537C327.518,363.012,326.475,358.221,326.677,353.02L326.677,353.02L326.677,353.02z
		 M352.05,366.812l0.071-25.441c-0.015-1.313,0.46-2.517,1.366-3.457c0.905-0.94,2.083-1.452,3.38-1.47
		c1.298-0.018,2.486,0.462,3.418,1.377c0.931,0.915,1.438,2.105,1.459,3.418l0.02,25.585c-0.028,1.309-0.536,2.492-1.462,3.408
		c-0.925,0.914-2.105,1.399-3.399,1.399c-1.294-0.002-2.474-0.491-3.397-1.407C352.581,369.307,352.076,368.123,352.05,366.812
		L352.05,366.812L352.05,366.812z M410.829,297.779l7.628,22.011h12.791l-8.017,14.366l19.282,54.567l-14.812-90.948
		L410.829,297.779L410.829,297.779L410.829,297.779z M447.081,297.786l-0.119,92.203l-2.78,0.008l-4.094-92.21L447.081,297.786
		L447.081,297.786L447.081,297.786z"/>
</g>
</svg>
