<?xml version="1.0" encoding="utf-8"?>
<!-- Generator: Adobe Illustrator 16.0.0, SVG Export Plug-In . SVG Version: 6.00 Build 0)  -->
<!DOCTYPE svg PUBLIC "-//W3C//DTD SVG 1.1//EN" "http://www.w3.org/Graphics/SVG/1.1/DTD/svg11.dtd">
<svg version="1.1" id="Layer_1" xmlns="http://www.w3.org/2000/svg" xmlns:xlink="http://www.w3.org/1999/xlink" x="0px" y="0px"
	 width="175.748px" height="100.544px" viewBox="8.504 46.111 175.748 100.544"
	 enable-background="new 8.504 46.111 175.748 100.544" xml:space="preserve">
<g>
	<path fill="#A6CE39" d="M26.047,48.451c-5.848,26.676-11.696,53.352-17.543,80.028c46.074-16.432,98.933,19.209,153.365,18.152
		c7.461-26.592,14.922-53.184,22.383-79.775C127.135,70.934,96.042,37.103,26.047,48.451L26.047,48.451z"/>
	<path d="M143.479,126.319c-1.143-0.666-2.129-1.403-3.072-2.334c-0.473-0.495-0.902-1-1.303-1.56l-2.285,7.576
		c-0.928-0.092-1.855-0.183-2.785-0.267c-1.527-0.15-2.895-0.489-4.301-1.149c-0.623-0.321-1.198-0.671-1.766-1.085l-2.099,1.396
		l-3.413,1.188c-0.832,0.112-1.585,0.131-2.423,0.064c-1.032-0.131-1.97-0.373-2.966-0.681l-1.674-0.896
		c-0.826-0.647-1.594-1.299-2.31-2.068c-0.56-0.632-1.039-1.285-1.515-1.98l-0.781-1.795l-2.562,8.565
		c-1.188-0.767-2.381-1.53-3.576-2.286c-1.275-0.814-2.407-1.642-3.48-2.724c-1.326-1.433-2.365-3.011-3.158-4.798l-2.569,8.664
		c-1.192-0.984-2.386-1.969-3.585-2.945c-1.704-1.398-3.249-3.025-4.421-4.902l-2.837,9.571c-2.687-0.438-5.346-0.847-7.964-1.619
		c-1.71-0.532-3.295-1.194-4.853-2.086c-1.415-0.853-2.663-1.812-3.853-2.959l-0.686-0.716c-1.982-2.229-3.354-4.678-4.371-7.477
		c-0.367-1.065-0.671-2.135-0.931-3.234c-0.854-3.764-1.743-7.521-2.601-11.287c-0.828,1.646-1.787,3.164-2.842,4.67
		c-0.758,0.997-1.531,1.936-2.365,2.868l-1.781,1.758c-0.969,0.841-1.939,1.611-2.979,2.363l-2.193,1.368l-2.356,1.185l-2.518,0.981
		l-2.676,0.764l-2.833,0.529l-2.985,0.283l-1.549,0.045l-3.9-0.053l1.894-10.982l2.672-0.592c1.782-0.474,3.386-1.054,4.939-2.058
		c0.368-0.259,0.713-0.524,1.057-0.815c1.209-1.117,2.14-2.401,2.894-3.867c-1.461,0.216-2.906,0.031-4.311-0.398
		c-0.583-0.229-1.093-0.472-1.637-0.785c-0.522-0.357-0.963-0.713-1.425-1.147c-0.434-0.478-0.792-0.938-1.151-1.476
		c-0.329-0.579-0.593-1.131-0.842-1.75c-0.219-0.665-0.385-1.3-0.524-1.986c-0.392-2.67-0.185-5.36,0.116-8.029
		c0.219-1.451,0.485-2.856,0.811-4.288c0.376-1.415,0.795-2.78,1.274-4.165c0.528-1.361,1.091-2.672,1.718-3.993
		c0.672-1.294,1.375-2.532,2.141-3.774l1.655-2.371l1.829-2.236l1.999-2.088l2.164-1.924l2.322-1.745l2.475-1.55
		c2.04-1.1,4.104-2.071,6.321-2.757c1.184-0.349,2.385-0.624,3.582-0.918l3.542-0.887L61.19,63.373
		c2.521-0.457,5.025-0.77,7.577-0.982c2.603-0.179,5.186-0.254,7.794-0.239c4.051,0.065,8.06,0.337,12.088,0.769
		c2.219,0.256,4.428,0.56,6.64,0.861l-0.867,2.514c1.557-0.591,3.093-0.943,4.749-1.113c1.023-0.076,2.012-0.078,3.035-0.011
		c1.396,0.127,2.764,0.417,4.145,0.64c1.453,0.23,2.936,0.479,4.4,0.586l0.146-0.156c4.397,0.518,8.793,0.964,13.209,1.257
		l0.955,0.061l0.506,0.354c1.863-0.33,3.731-0.359,5.617-0.339c1.369,0.013,2.738,0.024,4.105,0.035l-0.2,0.584
		c2.205-0.938,4.45-1.568,6.791-2.064c2.89-0.561,5.786-0.879,8.709-1.209c2.076-0.244,4.132-0.574,6.201-0.896L152.47,78.39
		c4.055-1.222,8.062-2.605,12.074-3.963l-15.538,54.442c-0.86-0.388-1.722-0.78-2.583-1.163
		C145.423,127.271,144.435,126.839,143.479,126.319L143.479,126.319z M116.58,103.356l0.372-0.42l-0.243-0.01L116.58,103.356
		L116.58,103.356z M120.431,90.222l-0.871,2.993l1.529,0.039C120.737,92.29,120.51,91.246,120.431,90.222L120.431,90.222z
		 M74.461,93.53l1.353,6.902l2.133-6.762l-3.21-2.17l-0.612,0.308L74.461,93.53L74.461,93.53z"/>
	<path fill="#FFFFFF" d="M58.452,66.029c10.719-2.687,23.227-2.116,34.139-0.588l-1.82,5.279c3.962-3.157,8.582-4.265,13.607-3.208
		c0.623,0.131,7.178,1.215,7.292,0.845c4.218,0.498,8.46,0.903,12.705,1.173l-0.257,0.827c2.689-0.917,5.568-0.78,8.365-0.759
		l-1.008,2.938c7.094-5.185,16.207-5.017,22.471-6.035l-4.465,14.838c4.078-1.109,8.064-2.425,12.078-3.779l-13.852,48.53
		c-0.861-0.39-1.736-0.754-2.587-1.169c-3.619-1.768-6.179-5.081-6.086-9.221l-3.662,12.144c-0.771-0.075-1.548-0.116-2.31-0.254
		c-2.006-0.36-3.688-1.312-5.108-2.743l-0.079,0.078c-1.104,1.036-2.33,1.979-3.73,2.575c-2.285,0.976-4.031,0.844-6.31,0.11
		l-1.349-0.723c-1.383-1.065-2.194-1.894-3.166-3.348l-0.586-1.283c-2.463-7.584,3.488-16.986,9.148-21.125l-6.652-0.273
		l-8.164,27.312c-1.197-0.771-2.422-1.474-3.514-2.388c-3.5-2.933-5.379-8.16-5.187-12.558l-3.989,13.452
		c-0.953-0.79-1.944-1.524-2.808-2.409c-2.354-2.41-3.733-4.711-4.392-8.154l-4.002,13.498c-4.418-0.711-8.47-1.56-12.133-4.34
		c-3.912-2.972-6.08-7.222-7.15-11.934c-1.337-5.886-2.755-11.77-4.013-17.661c-3.417,11.687-12.907,22.165-29.144,21.608
		L32,109.958c7.901-1.614,10.665-4.965,13.4-12.208c-6.126,3.017-11.524,0.614-11.678-6.587
		c-0.316-14.78,8.594-29.505,22.757-34.479c1.51-0.53,3.079-0.851,4.631-1.242L58.452,66.029L58.452,66.029z M128.669,97.776
		c-1.434-0.35-2.74-1.084-3.787-2.146l-1.361,4.405C125.14,99.03,126.844,98.296,128.669,97.776L128.669,97.776z M124.618,95.349
		c-1.528-1.708-2.422-4.166-2.196-7.158c0.168-2.237,0.841-4.332,1.741-6.366c-2.896,0.912-4.312,3.209-5.085,5.866l-2.175,7.465
		L124.618,95.349L124.618,95.349z M80.454,92.4c-2.035-0.456-3.73-1.542-5.361-3.413c-0.986,0.607-2.094,1.179-3.249,1.621
		c1.176,5.852,2.211,11.778,3.63,17.571L80.454,92.4L80.454,92.4z"/>
	<path fill="#F58220" d="M58.616,57.942l-1.673,6.661c0,0-3.567,0.977-6.431,6.565c-2.864,5.588-4.627,14.748-4.627,14.748
		s-1.439,4.722-0.061,5.104c1.378,0.383,4.512-2.726,5.078-4.795c0.566-2.07,5.551-17.72,5.551-17.72s2.581-0.835,5.044-1.302
		c2.463-0.467,5.231-0.701,5.231-0.701s-7.499,25.529-8.165,27.83s-5.05,14.028-14.189,17.846
		c-9.138,3.818-11.379,2.966-11.379,2.966l0.593-3.658c0,0,7.611-1.523,10.807-7.242s5.292-10.837,5.292-10.837
		s-4.658,3.776-9.635,3.805c-4.977,0.029-4.719-7.692-4.498-9.857c0.221-2.165,2.481-11.016,6.19-17.208
		C44.726,65.166,53.502,59.106,58.616,57.942L58.616,57.942z M112.952,70.336c-1.303,4.2-4.938,15.785-4.938,15.785
		c-0.08,7.242,6.524,10.848,6.594,10.619l3.521-11.624c0,0,1.07-3.424,4.287-4.61s4.803-1.154,4.803-1.154l2.733-7.962
		c0,0-3.171-0.063-5.392,0.73c-2.22,0.794-3.513,1.994-3.513,1.994l0.911-2.923C119.201,71.02,116.244,70.734,112.952,70.336
		L112.952,70.336z M68.581,66.485l-4.604,14.964c0,0-2.198,5.737,1.881,7.908c4.078,2.171,9.594-2.809,9.594-2.809
		s2.084,2.953,4.045,3.646c1.961,0.693,2.413,0.669,2.413,0.669l8.252-23.934c-2.938-0.418-6.272-0.707-9.175-0.807
		c-1.604,4.639-4.332,13.669-4.929,14.953c-0.81,1.742-1.688,2.24-2.823,2.186c-1.134-0.056-1.31-0.751-0.316-3.725l4.534-13.554
		C74.338,66.002,71.547,66.201,68.581,66.485L68.581,66.485z M151.326,68.89l-7.867,26.176c0,0-1.834-0.155-3.354-0.659
		c-1.521-0.503-2.608-2.193-2.608-2.193s-5.013,6.992-10.47,2.783c-5.459-4.208-1.396-11.899-0.959-13.003
		c0.438-1.103,4.478-9.208,13.41-11.247C148.411,68.707,151.248,68.977,151.326,68.89L151.326,68.89z M141.151,75.565l-3.076,10.549
		c-0.479,1.641-3.715,5.045-3.17,1.244c0.182-1.256,1.975-6.42,2.494-7.527C138.435,77.63,139.17,76.69,141.151,75.565
		L141.151,75.565z M110.767,70.186c0,0-4.168-0.315-7.031-0.961c-2.864-0.646-9.396-0.802-14.152,5.337S83.424,87.5,87.195,90.253
		s9.716-0.273,9.716-0.273c0.779,3.719,3.064,3.659,6.113,4.22L110.767,70.186L110.767,70.186z M101.213,73.435l-3.847,10.4
		c-0.904,2.445-5.455,5.112-4.144,0.78c0.384-1.267,2.275-6.012,2.777-7.171C96.867,75.442,98.956,73.551,101.213,73.435
		L101.213,73.435z"/>
	<path fill="#ED1651" d="M142.692,97.306l-8.623,28.588c-2.528-0.213-4.565-1.57-6.041-3.86c0,0-5.312,7.411-11.1,2.95
		c-5.785-4.463-1.479-12.615-1.016-13.784c0.465-1.171,4.746-9.763,14.218-11.925C139.63,97.604,142.728,97.188,142.692,97.306
		L142.692,97.306z M91.884,93.88l-9.99,33.689c-9.086-1.338-14.335-6.078-16.236-14.631L61.084,92.37
		c2.965-0.315,6.03-0.52,9.156-0.575l2.712,13.364c1.611,7.938,2.612,8.751,2.612,8.751l6.789-21.511
		c1.021,0.125,2.044,0.269,3.066,0.437C87.693,93.208,89.843,93.556,91.884,93.88L91.884,93.88z M93.711,94.167
		c-0.179,0.583-0.409,1.326-0.672,2.173c2.909,0.457,5.591,0.862,8.088,1.216l0.647-2.189C99.288,95.02,96.613,94.62,93.711,94.167
		L93.711,94.167z M92.422,98.329c-1.367,4.413-3.129,10.152-3.56,12.016c-0.727,3.148,0.368,8.249,2.037,10.374
		c1.668,2.125,2.523,2.817,2.523,2.817l7.117-24C98.036,99.188,95.344,98.786,92.422,98.329L92.422,98.329z M149.929,83.101
		l-8.58,29.401c-1.89,6.472,1.906,9.66,5.192,11.081l12.329-43.202C155.76,81.433,152.759,82.361,149.929,83.101L149.929,83.101z
		 M108.015,86.136l-7.44,24.672c-1.317,4.365,0.562,11.574,5.45,14.537l7.877-26.355l7.945,0.328l0.693-2.246l-7.936-0.327
		C114.463,96.926,107.944,93.326,108.015,86.136L108.015,86.136z M131.905,104.383l-3.262,11.185c0,0-0.933,2.252-1.781,2.824
		c-0.848,0.571-1.769-0.175-1.577-1.506c0.19-1.332,2.093-6.806,2.646-7.979C129.026,106.572,129.806,105.575,131.905,104.383
		L131.905,104.383z"/>
	<path fill="#7670B3" d="M88.171,134.552c-0.085,0.206-0.166,0.521-0.242,0.948c-0.101,0.072-0.167,0.168-0.198,0.288
		c-0.602-0.137-1.128-0.216-1.576-0.235c-0.149,0.226-0.249,0.413-0.297,0.564c-0.027,0.063-0.061,0.241-0.103,0.524
		c-0.011,0.043-0.112,0.354-0.3,0.926c0.068,0.061,0.049,0.295-0.056,0.709c0.033,0.067,0.173,0.068,0.415,0.002
		c0.042-0.163,0.112-0.44,0.212-0.832c0.1-0.394,0.176-0.691,0.229-0.897c0.011,0.001,0.24,0.011,0.688,0.03
		c0.326,0.015,0.527,0.094,0.604,0.238c-0.078,0.384-0.204,0.834-0.376,1.354c-0.027-0.022-0.097,0.013-0.213,0.106
		c0.016,0.299,0.009,0.507-0.021,0.627c-0.025,0.097-0.062,0.185-0.112,0.26c-0.176,0.244-0.441,0.383-0.798,0.411
		c-0.631,0.048-0.973,0.077-1.026,0.086c-0.244-0.099-0.48-0.203-0.708-0.312c-0.281-0.11-0.425-0.315-0.433-0.613
		c0.164-0.721,0.46-1.78,0.89-3.182c-0.033-0.035-0.085-0.099-0.153-0.188c0.002-0.011,0.246-0.698,0.727-2.064
		c-0.104-0.114-0.131-0.274-0.079-0.481c0.044-0.174,0.163-0.422,0.352-0.745c0.191-0.321,0.297-0.532,0.322-0.629
		c0.153,0.007,0.311,0.014,0.474,0.021c0.236-0.001,0.439-0.111,0.61-0.336c0.099,0.137,0.333,0.23,0.701,0.279
		c0.48,0.053,0.744,0.093,0.788,0.115c0.206,0.24,0.283,0.469,0.228,0.688c-0.022,0.085-0.087,0.255-0.194,0.511
		c-0.104,0.256-0.176,0.45-0.212,0.594c-0.033,0.13-0.052,0.246-0.057,0.345C88.235,133.871,88.208,134.167,88.171,134.552
		L88.171,134.552z M87.249,132.844c-0.107-0.27-0.198-0.399-0.272-0.392c-0.281,0.538-0.459,0.953-0.534,1.247
		c-0.114,0.446-0.048,0.753,0.199,0.918C86.749,134.192,86.953,133.603,87.249,132.844L87.249,132.844z M85.204,139.046
		l-0.305-0.014l-0.083,0.326C84.907,139.285,85.037,139.181,85.204,139.046L85.204,139.046z M87.287,130.761
		c0.166,0.154,0.357,0.235,0.569,0.245c0.165,0.007,0.309-0.036,0.436-0.131c0.312-0.459,0.575-0.927,0.79-1.401
		c-0.102-0.005-0.263,0.037-0.48,0.127c-0.222-0.142-0.409-0.199-0.558-0.173C87.703,129.953,87.452,130.397,87.287,130.761
		L87.287,130.761z M94.933,131.847c-0.189,1.187-0.405,2.153-0.647,2.897c-0.177,0.575-0.289,1.015-0.337,1.323
		c0.002,0.033-0.066,0.199-0.204,0.498c-0.03,0.076-0.046,0.285-0.052,0.631c0.005,0.059-0.027,0.143-0.098,0.259
		c-0.08,0.161-0.134,0.267-0.157,0.317c-0.105,0.291-0.201,0.606-0.287,0.944c-0.061,0.238-0.256,1.304-0.582,3.188
		c0.21,0.021,0.424,0.044,0.644,0.065c0.32,0.032,0.565-0.042,0.734-0.227c-0.007-0.091-0.021-0.214-0.044-0.372
		c0.235-0.559,0.373-1.035,0.412-1.432c0.068-0.027,0.127-0.039,0.176-0.032c0.081,0.008,0.162,0.05,0.245,0.124
		c0.104,0.121,0.167,0.189,0.194,0.205c0.175-0.006,0.369,0.004,0.579,0.024c0.1-0.034,0.256-0.126,0.468-0.272
		c0.102-0.278,0.279-0.606,0.527-0.982c0.006-0.023,0.008-0.092,0.007-0.208c0-0.119,0.006-0.204,0.021-0.259
		c0.163-0.641,0.278-1.018,0.347-1.121c0.195-0.93,0.55-2.316,1.062-4.163c-0.063-0.229-0.139-0.562-0.225-0.994
		c-0.109-0.167-0.296-0.265-0.555-0.291c-0.24-0.024-0.534,0.021-0.878,0.13C95.984,132.06,95.536,131.974,94.933,131.847
		L94.933,131.847z M95.992,133.245c0.195-0.125,0.354-0.184,0.472-0.171c0.039,0.172,0.086,0.305,0.145,0.399
		c-0.168,0.217-0.313,0.562-0.432,1.027c-0.089,0.35-0.209,0.891-0.365,1.622c-0.126,0.567-0.238,1.008-0.337,1.323
		c-0.118,0.344-0.265,0.877-0.437,1.595c-0.087,0.015-0.16,0.021-0.219,0.015c-0.231-0.023-0.307-0.188-0.229-0.494
		c0.047-0.186,0.143-0.397,0.287-0.64C95.533,135.104,95.904,133.547,95.992,133.245L95.992,133.245z M102.126,136.89
		c-0.123,0.287-0.221,0.629-0.292,1.025c-0.36,1.225-0.585,1.999-0.668,2.325c-0.006,0.021-0.005,0.095,0.005,0.22
		s-0.001,0.208-0.033,0.249c-0.205,0.165-0.521,0.224-0.947,0.171c-0.18-0.021-0.336-0.062-0.476-0.124
		c-0.019-0.093-0.125-0.188-0.325-0.293c-0.005-0.013-0.152,0.065-0.44,0.229c-0.099,0.024-0.239,0.02-0.427-0.016
		c-0.063-0.064-0.176-0.15-0.332-0.26c-0.104-0.475-0.112-0.885-0.023-1.232c0.209-0.819,0.334-1.371,0.377-1.66
		c0.079-0.147,0.152-0.375,0.221-0.682c-0.002-0.191,0.076-0.604,0.237-1.234c0.162-0.635,0.325-1.334,0.49-2.102
		c0.054-0.094,0.12-0.263,0.198-0.506c0.076-0.246,0.143-0.414,0.197-0.508c0.11-0.031,0.245-0.039,0.403-0.021
		c0.099,0.014,0.249,0.03,0.446,0.055c0.212,0.051,0.363,0.08,0.453,0.092c-0.181,0.986-0.338,1.742-0.472,2.266
		c-0.133,0.522-0.274,0.977-0.423,1.362c-0.154,0.405-0.268,0.965-0.336,1.677c-0.123,0.321-0.326,0.861-0.613,1.625
		c0.043-0.006,0.105,0.016,0.191,0.064c0.082,0.051,0.143,0.076,0.171,0.08c0.08,0.01,0.144-0.039,0.188-0.146
		c0.328-0.923,0.582-1.812,0.759-2.666c-0.026-0.062-0.062-0.156-0.113-0.283c0.013-0.09,0.071-0.226,0.175-0.408
		c0.104-0.186,0.162-0.305,0.176-0.357c0.127-0.378,0.263-0.877,0.412-1.5c0.221-0.949,0.346-1.473,0.369-1.568
		c0.176,0.032,0.354,0.06,0.531,0.08c0.258,0.031,0.479-0.009,0.66-0.123c-0.008,0.032,0.016,0.086,0.066,0.161
		c0.053,0.073,0.08,0.122,0.086,0.144c-0.016,0.224-0.121,0.492-0.312,0.805c-0.088,0.136-0.153,0.297-0.202,0.48
		c-0.066,0.263-0.096,0.646-0.093,1.15c0.005,0.102-0.065,0.221-0.213,0.359c-0.071,0.115-0.123,0.296-0.152,0.537
		C102.009,136.634,102.035,136.812,102.126,136.89L102.126,136.89z M107.558,134.531c-0.048,0.274-0.139,0.629-0.271,1.062
		c-0.177,0.529-0.283,0.874-0.325,1.038c-0.141,0.028-0.337,0.015-0.588-0.037c-0.361-0.065-0.579-0.1-0.65-0.097
		c0.09-0.393,0.24-0.98,0.448-1.764c-0.008-0.045-0.041-0.123-0.094-0.229c-0.045-0.071-0.058-0.144-0.041-0.207l-0.269-0.032
		c-0.072,0.372-0.217,0.973-0.429,1.801c-0.021,0.076-0.065,0.209-0.14,0.402c-0.075,0.193-0.127,0.346-0.154,0.453
		c-0.047,0.186-0.052,0.342-0.014,0.471c-0.094,0.291-0.242,0.855-0.447,1.696c-0.189,0.785-0.372,1.424-0.55,1.92
		c-0.038,0.106-0.228,0.208-0.568,0.302c-0.043,0.006-0.116-0.045-0.223-0.146c-0.237,0.05-0.437,0.064-0.595,0.047l-0.129-0.219
		c0.008-0.032,0.055-0.079,0.135-0.141c0.084-0.063,0.132-0.105,0.146-0.125c0.057-0.297,0.129-0.725,0.223-1.285
		c0.031-0.209,0.08-0.438,0.144-0.687c0.072-0.285,0.185-0.662,0.335-1.136c0.215-0.602,0.339-0.973,0.375-1.113
		c0.004-0.057-0.008-0.148-0.036-0.273c0.285-0.805,0.367-1.366,0.244-1.686c0.123-0.039,0.276-0.179,0.458-0.414
		c0.037,0.018,0.104,0.075,0.2,0.178c0.079,0.056,0.157,0.086,0.237,0.096c0.061,0.007,0.127,0.004,0.201-0.01
		c0.008-0.031,0.082-0.098,0.219-0.192c-0.037-0.017-0.107-0.062-0.209-0.142c-0.104-0.082-0.188-0.127-0.258-0.135
		c-0.062-0.008-0.119,0.01-0.182,0.047c-0.1-0.339-0.111-0.603-0.043-0.797c0.336-0.15,0.621-0.211,0.859-0.182
		c0.248,0.029,0.414,0.162,0.496,0.396c0.121-0.031,0.242-0.062,0.361-0.091c0.194-0.046,0.356-0.06,0.487-0.043
		c0.228,0.027,0.392,0.149,0.489,0.362C107.563,133.967,107.616,134.269,107.558,134.531L107.558,134.531z M111.408,137.039
		c-0.082,0.28-0.237,0.711-0.47,1.293c-0.049,0.553-0.123,1.031-0.227,1.435c-0.104,0.402-0.248,0.789-0.436,1.161
		c-0.018,0.109-0.11,0.496-0.279,1.16c-0.07-0.007-0.214-0.008-0.432-0.001c-0.215,0.006-0.373,0.002-0.474-0.008
		c-0.291-0.03-0.459-0.13-0.509-0.301c-0.111,0.199-0.264,0.291-0.452,0.271c-0.09-0.009-0.222-0.048-0.394-0.116
		c-0.174-0.066-0.303-0.109-0.389-0.132c-0.195-0.241-0.227-0.63-0.09-1.165c0.051-0.193,0.139-0.46,0.264-0.794
		c0.102-0.233,0.188-0.55,0.259-0.944c0.088-0.506,0.135-0.778,0.146-0.821c0.373-0.175,0.682-0.36,0.928-0.56
		c0.293,0.019,0.722-0.279,1.287-0.893c-0.016-0.18,0.025-0.417,0.119-0.709c0.127-0.409,0.192-0.654,0.201-0.73
		c-0.091-0.043-0.172-0.067-0.242-0.074l0,0l0,0c-0.199-0.021-0.332,0.144-0.402,0.492c-0.116,0.582-0.185,0.888-0.202,0.918
		c-0.269,0.053-0.494,0.066-0.673,0.049c-0.25-0.024-0.428-0.114-0.531-0.271c0.162-0.831,0.298-1.382,0.404-1.65
		c0.009-0.064-0.014-0.102-0.063-0.105c0.075-0.016,0.179-0.084,0.308-0.211s0.219-0.244,0.268-0.352
		c0.344-0.143,0.766-0.189,1.264-0.14c0.271,0.027,0.542,0.081,0.814,0.159c0.271,0.077,0.437,0.27,0.49,0.576
		c0.023,0.146-0.045,0.415-0.203,0.801C111.726,135.771,111.63,136.323,111.408,137.039L111.408,137.039z M109.271,139.938
		c0.059-0.264,0.106-0.525,0.154-0.789c0.07-0.395,0.077-0.646,0.021-0.754c-0.334,0.27-0.504,0.477-0.512,0.621
		c-0.006,0.188-0.053,0.489-0.14,0.905c-0.101,0.481-0.157,0.767-0.169,0.854l0.064,0.105l0.225,0.021
		C108.978,140.667,109.094,140.344,109.271,139.938L109.271,139.938z M120.528,138.04c-0.086,0.206-0.166,0.521-0.242,0.949
		c-0.1,0.068-0.165,0.162-0.196,0.283c-0.594-0.16-1.114-0.26-1.557-0.295c-0.147,0.222-0.247,0.406-0.296,0.559
		c-0.025,0.062-0.061,0.24-0.104,0.525c-0.011,0.043-0.111,0.352-0.299,0.924c0.066,0.062,0.049,0.3-0.057,0.714
		c0.031,0.069,0.17,0.075,0.41,0.018c0.041-0.165,0.111-0.442,0.211-0.833c0.102-0.394,0.177-0.691,0.229-0.896
		c0.011,0.001,0.237,0.02,0.681,0.056c0.321,0.026,0.521,0.113,0.596,0.265c-0.078,0.383-0.203,0.834-0.375,1.354
		c-0.027-0.023-0.098,0.009-0.213,0.102c0.016,0.301,0.009,0.51-0.021,0.631c-0.023,0.098-0.062,0.184-0.111,0.258
		c-0.176,0.24-0.438,0.369-0.789,0.387c-0.625,0.023-0.963,0.041-1.015,0.049c-0.241-0.109-0.474-0.224-0.698-0.341
		c-0.276-0.122-0.42-0.334-0.426-0.636c0.164-0.721,0.46-1.78,0.889-3.18c-0.031-0.035-0.082-0.101-0.15-0.195
		c0.003-0.01,0.245-0.695,0.727-2.058c-0.104-0.118-0.13-0.282-0.076-0.489c0.043-0.174,0.16-0.418,0.35-0.738
		c0.189-0.317,0.296-0.526,0.32-0.623c0.15,0.013,0.308,0.025,0.469,0.038c0.232,0.008,0.435-0.097,0.604-0.316
		c0.098,0.142,0.328,0.244,0.691,0.308c0.475,0.071,0.734,0.121,0.777,0.146c0.203,0.25,0.279,0.482,0.224,0.703
		c-0.021,0.085-0.086,0.255-0.192,0.508c-0.104,0.254-0.176,0.448-0.212,0.592c-0.032,0.131-0.052,0.246-0.058,0.346
		C120.594,137.356,120.565,137.653,120.528,138.04L120.528,138.04z M119.622,136.282c-0.104-0.275-0.193-0.411-0.27-0.404
		c-0.278,0.531-0.455,0.944-0.531,1.238c-0.113,0.447-0.049,0.759,0.195,0.935C119.125,137.625,119.327,137.037,119.622,136.282
		L119.622,136.282z M117.583,142.467l-0.301-0.024l-0.084,0.326C117.289,142.698,117.417,142.599,117.583,142.467L117.583,142.467z
		 M125.362,138.192c-0.119,0.468-0.272,0.869-0.461,1.203c0.095,0.156,0.103,0.383,0.027,0.677c-0.031,0.12-0.091,0.293-0.18,0.521
		c-0.089,0.229-0.143,0.379-0.162,0.455c-0.014,0.057-0.09,0.414-0.229,1.078c-0.104,0.447-0.211,0.824-0.318,1.126
		c-0.071-0.002-0.203-0.017-0.396-0.049c-0.191-0.033-0.334-0.05-0.426-0.054c-0.174-0.004-0.322,0.024-0.439,0.088
		c-0.062-0.209-0.068-0.396-0.026-0.561c0.028-0.107,0.081-0.177,0.16-0.208c0.019-0.351,0.053-0.625,0.103-0.819
		c0.053-0.207,0.135-0.393,0.248-0.553c0.02-0.031,0.021-0.142,0.008-0.326c0.074-0.176,0.164-0.47,0.271-0.883
		c0.03-0.119,0.124-0.55,0.282-1.291c0.119-0.588,0.246-1.082,0.38-1.486c0.013-0.053,0.057-0.146,0.132-0.275
		c0.055-0.097,0.078-0.173,0.072-0.227c0-0.077-0.016-0.223-0.047-0.43c-0.002-0.021-0.031-0.074-0.084-0.148
		c-0.195,0.004-0.334,0.107-0.411,0.309c-0.077,0.2-0.155,0.395-0.233,0.578c0.006,0.064,0.024,0.154,0.059,0.266
		c-0.029,0.075-0.19,0.768-0.482,2.072c-0.014,0.057-0.051,0.159-0.109,0.311c-0.061,0.151-0.097,0.261-0.113,0.328
		c-0.055,0.217-0.025,0.358,0.093,0.428c-0.056,0.055-0.179,0.171-0.37,0.352c-0.262,1.232-0.461,2.018-0.6,2.354
		c-0.146,0.171-0.32,0.255-0.525,0.25c-0.07-0.002-0.195-0.021-0.372-0.06c-0.175-0.036-0.312-0.052-0.405-0.042
		c0.108-0.426,0.232-1.136,0.373-2.128c0.037-0.032,0.082-0.047,0.133-0.046c0.1,0.023,0.135,0.036,0.115,0.035
		c0.002-0.044,0.098-0.495,0.285-1.355c0.025-0.143,0.43-1.742,1.208-4.801c0.05,0.001,0.154,0.02,0.31,0.057
		c0.154,0.037,0.274,0.057,0.354,0.059c-0.062-0.002,0.166-0.023,0.683-0.064c0.012,0.077,0.041,0.182,0.088,0.314
		c0.129,0.023,0.367-0.102,0.717-0.379c0.066-0.02,0.164,0.015,0.299,0.099c0.134,0.085,0.232,0.13,0.306,0.132
		c0.074,0.11,0.175,0.283,0.302,0.518c-0.103,0.488-0.285,1.208-0.549,2.152c-0.006,0.023-0.013,0.084-0.021,0.183
		C125.397,138.047,125.378,138.128,125.362,138.192L125.362,138.192z M130.094,138.269c-0.086,0.209-0.165,0.522-0.241,0.947
		c-0.104,0.077-0.17,0.176-0.201,0.297c-0.61-0.103-1.146-0.15-1.601-0.146c-0.151,0.229-0.252,0.42-0.3,0.571
		c-0.027,0.065-0.062,0.242-0.104,0.522c-0.01,0.044-0.11,0.354-0.301,0.931c0.069,0.056,0.053,0.289-0.054,0.702
		c0.034,0.064,0.176,0.058,0.422-0.021c0.042-0.165,0.112-0.442,0.212-0.834c0.102-0.393,0.178-0.69,0.229-0.897
		c0.012,0,0.244-0.002,0.699-0.008c0.332-0.004,0.535,0.062,0.614,0.202c-0.077,0.382-0.204,0.833-0.377,1.355
		c-0.026-0.021-0.099,0.018-0.216,0.117c0.018,0.293,0.012,0.498-0.02,0.618c-0.025,0.099-0.062,0.187-0.113,0.263
		c-0.178,0.252-0.446,0.402-0.809,0.45c-0.642,0.081-0.988,0.129-1.041,0.142c-0.248-0.084-0.488-0.174-0.722-0.269
		c-0.284-0.093-0.432-0.287-0.44-0.58c0.164-0.72,0.461-1.78,0.892-3.187c-0.033-0.031-0.087-0.092-0.156-0.178
		c0.003-0.011,0.246-0.703,0.729-2.076c-0.105-0.106-0.135-0.264-0.081-0.471c0.045-0.175,0.163-0.425,0.354-0.755
		c0.193-0.327,0.3-0.541,0.325-0.638c0.155-0.002,0.314-0.004,0.48-0.006c0.24-0.016,0.445-0.135,0.617-0.365
		c0.103,0.128,0.34,0.208,0.715,0.236c0.487,0.025,0.756,0.051,0.799,0.07c0.212,0.227,0.291,0.445,0.234,0.666
		c-0.021,0.086-0.088,0.258-0.195,0.514c-0.104,0.259-0.176,0.455-0.213,0.599c-0.032,0.13-0.051,0.245-0.057,0.342
		C130.155,137.594,130.129,137.887,130.094,138.269L130.094,138.269z M129.149,136.635c-0.108-0.26-0.203-0.383-0.277-0.37
		c-0.284,0.545-0.463,0.965-0.538,1.26c-0.112,0.445-0.045,0.744,0.206,0.894C128.647,137.992,128.853,137.399,129.149,136.635
		L129.149,136.635z M127.099,142.863l-0.31,0.003l-0.083,0.326C126.798,143.115,126.929,143.006,127.099,142.863L127.099,142.863z
		 M135.535,136.103c-0.048,0.271-0.138,0.627-0.271,1.062c-0.179,0.535-0.287,0.883-0.328,1.048
		c-0.146,0.048-0.353,0.062-0.615,0.05c-0.379-0.009-0.606-0.009-0.682,0.006c0.09-0.392,0.239-0.98,0.448-1.764
		c-0.009-0.043-0.044-0.113-0.101-0.208c-0.047-0.062-0.062-0.129-0.045-0.194l-0.28,0.01c-0.072,0.369-0.216,0.969-0.427,1.797
		c-0.021,0.076-0.067,0.211-0.143,0.408c-0.076,0.197-0.128,0.351-0.156,0.459c-0.047,0.185-0.051,0.337-0.008,0.453
		c-0.096,0.295-0.244,0.859-0.447,1.699c-0.189,0.783-0.373,1.426-0.553,1.93c-0.039,0.107-0.236,0.233-0.591,0.373
		c-0.046,0.013-0.124-0.023-0.235-0.107c-0.248,0.083-0.455,0.129-0.621,0.134l-0.137-0.19c0.008-0.032,0.057-0.084,0.141-0.155
		c0.086-0.074,0.136-0.121,0.15-0.144c0.057-0.293,0.127-0.715,0.217-1.27c0.03-0.204,0.08-0.432,0.144-0.682
		c0.071-0.283,0.185-0.663,0.337-1.142c0.217-0.61,0.343-0.985,0.379-1.128c0.004-0.055-0.01-0.142-0.041-0.258
		c0.289-0.816,0.369-1.37,0.236-1.657c0.129-0.057,0.285-0.213,0.474-0.467c0.039,0.01,0.11,0.058,0.212,0.142
		c0.083,0.041,0.166,0.06,0.248,0.057c0.062-0.002,0.133-0.016,0.211-0.038c0.01-0.033,0.084-0.106,0.227-0.218
		c-0.038-0.012-0.112-0.045-0.221-0.106c-0.107-0.062-0.197-0.093-0.271-0.091c-0.063,0.002-0.125,0.027-0.188,0.072
		c-0.106-0.312-0.123-0.562-0.054-0.76c0.349-0.194,0.646-0.295,0.896-0.304c0.262-0.008,0.437,0.095,0.523,0.308
		c0.126-0.047,0.252-0.095,0.378-0.14c0.202-0.073,0.371-0.11,0.509-0.114c0.237-0.007,0.41,0.088,0.517,0.276
		C135.536,135.558,135.593,135.841,135.535,136.103L135.535,136.103z M138.224,143.503c-0.082,0.156-0.221,0.398-0.416,0.725
		c-0.104,0.039-0.211,0.08-0.324,0.121c-0.158,0.057-0.241,0.144-0.252,0.262c-0.879,0.224-1.742,0.365-2.59,0.426
		c-0.066-0.188-0.063-0.42,0.008-0.704c0.045-0.174,0.11-0.297,0.201-0.368c0.16-0.1,0.434-0.163,0.821-0.195l0,0
		c0.031-0.002,0.084-0.007,0.158-0.014c0.073-0.006,0.125-0.01,0.157-0.014c0.367-0.03,0.615-0.094,0.742-0.191
		c0.178-0.132,0.211-0.363,0.101-0.693c-0.461,0.113-0.919,0.117-1.377,0.019c-0.093-0.248-0.19-0.397-0.302-0.452
		c-0.026-0.222,0.065-0.438,0.271-0.646c0.357-1.274,0.629-2.396,0.811-3.359c0.021-0.203,0.08-0.496,0.179-0.877l0,0
		c0.106-0.426,0.256-1.05,0.446-1.876c0.062-0.037,0.129-0.117,0.201-0.241c0.07-0.121,0.133-0.201,0.184-0.236
		c0.371-0.246,0.693-0.381,0.966-0.402c0.252-0.021,0.465,0.052,0.64,0.218c0.211-0.263,0.482-0.407,0.819-0.437
		c0.284-0.022,0.501,0.033,0.649,0.17c-0.019,0.234-0.09,0.599-0.215,1.089c-0.146,0.608-0.228,0.973-0.246,1.092
		c-0.032,0.161-0.116,0.394-0.256,0.69c-0.195,0.453-0.301,0.699-0.309,0.73c-0.027,0.064-0.025,0.153,0.004,0.262
		c0.028,0.111,0.04,0.191,0.037,0.246c-0.057,0.133-0.092,0.215-0.111,0.249c-0.041,0.089-0.104,0.156-0.189,0.206
		c0.023,0.03,0.097,0.039,0.224,0.029l-0.196,0.225c-0.006,0.269-0.066,0.635-0.188,1.103c-0.193,0.721-0.298,1.101-0.309,1.145
		c-0.086,0.093-0.155,0.249-0.211,0.466C138.304,142.46,138.259,142.873,138.224,143.503L138.224,143.503z M138.082,138.851
		c-0.156-0.07-0.216-0.18-0.181-0.32c0.017-0.064,0.07-0.174,0.16-0.325c0.09-0.149,0.135-0.254,0.139-0.308
		c-0.028-0.051-0.059-0.127-0.094-0.23c0.066-0.145,0.146-0.363,0.234-0.658c0.094-0.296,0.174-0.511,0.25-0.646
		c0.033-0.045,0.025-0.135-0.023-0.271c-0.075-0.024-0.205-0.082-0.389-0.173c0.008-0.023,0.012,0.078,0.019,0.303
		c-0.021,0.043-0.072,0.127-0.149,0.252c-0.076,0.123-0.121,0.217-0.126,0.282c-0.093,0.688-0.149,1.193-0.171,1.515
		c-0.17,0.145-0.295,0.371-0.375,0.687c-0.059,0.229-0.059,0.392,0.002,0.479c-0.137,0.416-0.225,0.76-0.262,1.029
		c-0.081,0.273-0.154,0.544-0.225,0.817c-0.086,0.37-0.062,0.563,0.064,0.585c0.111-0.19,0.248-0.469,0.414-0.833
		c-0.008-0.095,0.005-0.202,0.035-0.322l0,0c-0.012,0.044,0.084-0.208,0.285-0.76c0.104-0.285,0.119-0.499,0.041-0.642
		c0.058-0.027,0.115-0.099,0.17-0.215C137.96,138.979,138.019,138.897,138.082,138.851L138.082,138.851z M143.829,133.381
		c-0.227,0.04-0.454,0.078-0.688,0.11c-0.281,0.058-0.502,0.142-0.66,0.246c0.004-0.137,0.029-0.359,0.078-0.665
		c0.045-0.306,0.07-0.527,0.075-0.664c0.351-0.048,0.822-0.117,1.419-0.21C144.067,132.502,143.994,132.896,143.829,133.381
		L143.829,133.381z M142.674,137.856c-0.093,0.558-0.198,1.076-0.319,1.556c-0.176,0.687-0.377,1.271-0.603,1.754
		c0.072,0.084,0.082,0.224,0.032,0.42c-0.059,0.229-0.172,0.472-0.34,0.726c0,0-0.104,0.029-0.313,0.09
		c-0.166,0.055-0.286,0.082-0.356,0.08c0.033-0.059,0.011-0.117-0.078-0.18c-0.006-0.01-0.152,0.061-0.434,0.202
		c-0.07-0.053-0.13-0.076-0.184-0.067c0.033-0.133,0.107-0.504,0.224-1.119c0.097-0.496,0.188-0.854,0.274-1.076
		c0.052-0.081,0.143-0.237,0.271-0.465c0.228-0.407,0.264-0.719,0.113-0.928c0.032-0.205,0.104-0.488,0.217-0.851
		c0.184-0.604,0.297-0.981,0.334-1.135c0.006-0.021-0.011-0.05-0.054-0.087c0.002-0.086,0.091-0.237,0.271-0.461
		c0.168-0.739,0.351-1.353,0.545-1.842c0.068-0.103,0.074-0.151,0.022-0.146c0.259,0.028,0.647-0.04,1.172-0.207
		c0.015,0.06,0.044,0.151,0.085,0.271c-0.033,0.207-0.113,0.525-0.244,0.965c-0.018,0.064-0.039,0.127-0.062,0.182
		c-0.034,0.089-0.089,0.159-0.163,0.212c-0.015,0.022-0.013,0.077,0.004,0.165c0.021,0.086,0.027,0.156,0.024,0.208
		C142.995,136.509,142.849,137.087,142.674,137.856L142.674,137.856z"/>
	<path fill="#7670B3" d="M147.869,136.575c-0.084,0.283-0.242,0.727-0.478,1.328c-0.045,0.529-0.115,0.996-0.219,1.398
		s-0.252,0.801-0.443,1.197c-0.018,0.105-0.11,0.492-0.279,1.156c-0.074,0.012-0.227,0.049-0.457,0.111
		c-0.229,0.062-0.396,0.098-0.503,0.114c-0.31,0.047-0.489-0.003-0.546-0.149c-0.114,0.216-0.274,0.341-0.477,0.371
		c-0.095,0.016-0.234,0.013-0.419-0.006c-0.184-0.02-0.323-0.025-0.414-0.023c-0.211-0.176-0.249-0.53-0.112-1.064
		c0.049-0.193,0.141-0.466,0.268-0.81c0.104-0.245,0.191-0.562,0.259-0.949c0.086-0.495,0.132-0.763,0.144-0.808
		c0.394-0.258,0.719-0.512,0.975-0.76c0.312-0.061,0.764-0.449,1.354-1.168c-0.019-0.164,0.021-0.396,0.117-0.692
		c0.127-0.415,0.193-0.661,0.201-0.735c-0.097-0.018-0.184-0.02-0.258-0.007l0,0l0,0c-0.212,0.032-0.352,0.22-0.42,0.563
		c-0.115,0.573-0.182,0.877-0.201,0.912c-0.284,0.115-0.523,0.188-0.713,0.219c-0.268,0.041-0.456,0.004-0.568-0.117
		c0.158-0.817,0.295-1.367,0.403-1.646c0.009-0.062-0.017-0.091-0.069-0.083c0.08-0.032,0.188-0.124,0.322-0.274
		c0.137-0.152,0.229-0.284,0.277-0.396c0.363-0.223,0.811-0.376,1.341-0.458c0.286-0.044,0.575-0.063,0.866-0.062
		c0.289,0.002,0.468,0.139,0.529,0.41c0.027,0.133-0.041,0.4-0.203,0.802C148.187,135.31,148.093,135.851,147.869,136.575
		L147.869,136.575z M145.644,139.836c0.059-0.259,0.106-0.519,0.152-0.776c0.068-0.386,0.071-0.621,0.012-0.709
		c-0.351,0.338-0.527,0.575-0.533,0.713c-0.004,0.178-0.049,0.472-0.133,0.883c-0.101,0.475-0.156,0.755-0.166,0.841l0.068,0.083
		l0.239-0.037C145.345,140.594,145.464,140.262,145.644,139.836L145.644,139.836z"/>
</g>
</svg>
