<?xml version="1.0" encoding="utf-8"?>
<!-- Generator: Adobe Illustrator 16.0.0, SVG Export Plug-In . SVG Version: 6.00 Build 0)  -->
<!DOCTYPE svg PUBLIC "-//W3C//DTD SVG 1.1//EN" "http://www.w3.org/Graphics/SVG/1.1/DTD/svg11.dtd">
<svg version="1.1" id="Layer_1" xmlns="http://www.w3.org/2000/svg" xmlns:xlink="http://www.w3.org/1999/xlink" x="0px" y="0px"
	 width="175.746px" height="70.756px" viewBox="8.505 60.999 175.746 70.756" enable-background="new 8.505 60.999 175.746 70.756"
	 xml:space="preserve">
<g>
	<path fill="#004990" d="M164.979,80.002v-0.134v-0.135l0,0c0.539-2.965,0-5.66-1.482-7.817c-1.348-1.887-3.369-3.235-5.795-3.908
		c-18.6-4.852-44.207-7.009-61.323-7.009c-17.116,0-42.724,2.157-61.188,7.009c-2.561,0.673-4.583,2.021-5.93,3.908
		c-1.483,2.157-1.887,4.852-1.348,7.817l0,0v0.135v0.134c-7.143,1.887-19.408,6.335-19.408,6.335l11.321,42.184
		c0,0,11.321-3.908,17.251-5.391l1.617,8.625c0.27-0.133,27.225-6.469,57.684-6.469c30.594,0,57.551,6.336,57.818,6.469l1.617-8.625
		c5.795,1.482,17.117,5.391,17.117,5.391l11.32-42.184C184.252,86.337,172.122,81.889,164.979,80.002L164.979,80.002z"/>
	<path fill="#FFDF1C" d="M154.332,113.562c-1.213-0.27-25.203-6.065-57.954-6.065c-32.75,0-56.741,5.797-57.819,6.065l-7.413-34.369
		c-0.943-5.66,3.1-7.413,4.852-7.817c18.329-4.852,43.532-7.008,60.379-7.008c16.981,0,42.185,2.156,60.38,7.008
		c1.887,0.404,5.93,2.157,4.852,7.817L154.332,113.562L154.332,113.562z"/>
	<path fill="#FFFFFF" d="M53.384,76.633c-0.27-1.213,0.27-1.617,0.539-1.887l-2.695,0.404c-0.27,0.27-0.809,0.809-0.674,1.887
		l4.178,25.876c0,0.809,1.078,1.348,1.078,1.348l2.696-0.404c0,0-0.943-0.403-1.078-1.213L53.384,76.633L53.384,76.633z"/>
	<path fill="#FFFFFF" d="M141.798,106.553c0,0,4.852-26.416,5.121-28.033s0.809-1.617,1.482-1.887l2.561,0.539
		c-0.674,0.27-1.213,0.27-1.482,1.887c-0.269,1.617-5.121,28.035-5.121,28.035L141.798,106.553L141.798,106.553z"/>
	<polygon fill="#FFFFFF" points="125.624,102.646 126.703,90.246 128.994,92.941 128.187,103.317 	"/>
	<path fill="#FFFFFF" d="M113.358,101.836c-0.674-0.271-0.809-0.942-0.674-1.752c0,0,1.349-23.99,1.483-25.607
		c0-1.617,0.539-1.752,1.213-2.157l2.562,0.404c-0.539,0.404-1.078,0.539-1.078,2.022c-0.135,1.617-1.482,25.606-1.482,25.606
		c-0.136,0.674,0,1.213,0.404,1.617L113.358,101.836L113.358,101.836z"/>
	<polygon fill="#FFFFFF" points="105.272,93.21 90.448,70.703 87.618,70.703 105.14,97.928 	"/>
	<polygon fill="#FFFFFF" points="136.541,86.337 124.681,72.32 121.177,72.051 136.271,89.572 	"/>
	<path fill="#FFFFFF" d="M73.331,95.098c-0.539-8.491-1.348-20.351-1.482-20.891c-0.135-1.078,0.27-1.617,0.674-1.887l-2.831,0.54
		c-0.404,0.134-0.809,0.674-0.674,1.752c0.135,0.809,1.482,17.655,2.021,24.798L73.331,95.098L73.331,95.098z"/>
	<path fill="#FFFFFF" d="M84.787,97.119c-1.482,2.694-0.809,4.043,0,4.312l-2.83,0.271c-0.943-0.404-1.887-1.214,0.404-4.582H84.787
		L84.787,97.119z"/>
	<path fill="#FFFFFF" d="M89.37,87.955c-1.482,2.695-2.292,4.178-1.482,4.583l-2.831-0.27c-0.404-0.135,1.348-4.986,2.561-6.874
		L89.37,87.955L89.37,87.955z"/>
	<path fill="#FFDF1C" d="M22.116,124.074l-9.569-35.581c3.1-1.078,10.513-3.639,16.039-5.256l7.682,36.524
		C31.82,120.84,25.216,122.996,22.116,124.074L22.116,124.074z"/>
	<path fill="#FFDF1C" d="M170.64,124.074c-3.1-1.078-9.568-3.234-14.15-4.312l7.682-36.524c5.525,1.618,12.939,4.178,16.039,5.256
		L170.64,124.074L170.64,124.074z"/>
	<path fill="#FFFFFF" d="M51.498,117.472c-0.135-0.675-0.27-1.078-0.27-1.214c-0.135-0.135-0.27-0.135-0.674-0.135h-0.539v-0.404
		c0.809-0.135,1.617-0.27,2.156-0.403c0.943-0.135,1.887-0.271,2.831-0.404c1.348-0.27,2.695,0,2.965,1.617
		c0.27,1.887-0.943,3.234-2.695,3.504c-0.27,0-0.539,0-0.809,0l-0.27-0.404l0.134-0.27c0.135,0,0.405,0.135,0.539,0
		c1.079-0.135,1.348-1.078,1.213-1.887c-0.135-1.214-0.674-1.888-2.021-1.753c-0.27,0.136-0.674,0.136-0.809,0.271l1.078,6.738
		c0,0.674,0.135,0.942,0.27,1.078c0,0.135,0.135,0.135,0.54,0.135h0.673l0.135,0.539c-0.809,0.135-1.482,0.135-2.426,0.27
		c-0.809,0.135-1.483,0.27-2.157,0.404v-0.539l0.539-0.135c0.27-0.136,0.404-0.136,0.539-0.271c0-0.135,0-0.539-0.135-1.078
		L51.498,117.472L51.498,117.472z"/>
	<path fill="#FFFFFF" d="M59.719,116.123c0-0.539-0.135-0.942-0.135-1.078c-0.135-0.135-0.27-0.135-0.674-0.135h-0.539v-0.539
		c0.539,0,1.348-0.136,2.157-0.271c0.808,0,1.617-0.135,2.156-0.27v0.539l-0.404,0.135c-0.404,0-0.539,0.135-0.539,0.27
		c-0.135,0.136-0.135,0.539,0,1.078l0.404,3.504c0.27,2.021,0.539,3.234,2.83,2.966c2.426-0.271,2.426-1.617,2.292-3.64
		l-0.405-3.369c-0.134-0.539-0.134-0.942-0.27-1.078c-0.135-0.135-0.27-0.27-0.674-0.27h-0.539v-0.404
		c0.539-0.135,1.078-0.135,1.618-0.135c0.539-0.135,1.078-0.27,1.617-0.27v0.539h-0.54c-0.27,0.135-0.404,0.27-0.539,0.404
		c0,0.135,0,0.539,0.135,1.077l0.404,4.044c0.405,2.561-0.808,3.907-3.369,4.312c-2.695,0.27-4.178-0.675-4.313-2.291
		L59.719,116.123L59.719,116.123z"/>
	<path fill="#FFFFFF" d="M70.771,114.91c0-0.675,0-0.943-0.135-1.213c-0.135-0.136-0.27-0.136-0.539-0.136h-0.539l-0.135-0.539
		c0.943,0,1.752-0.135,2.426-0.135c0.943-0.135,1.887-0.135,2.831-0.27c1.348-0.135,2.695,0.135,2.965,1.752
		c0,1.348-0.809,2.156-1.887,2.695l2.83,3.639c0.135,0.135,0.27,0.27,0.405,0.404c0.134,0.135,0.404,0.135,0.674,0.135v0.539
		c-0.404,0-0.943,0-1.348,0.135c-0.404,0-0.809,0-1.213,0.135l-3.639-4.582l0.134-0.27c1.213,0,2.157-0.943,2.022-2.156
		c-0.135-1.213-0.943-1.752-2.022-1.617c-0.27,0-0.674,0-0.943,0.135l0.674,6.873c0,0.539,0,0.943,0.135,1.078
		c0.134,0.135,0.27,0.135,0.674,0.135h0.404l0.135,0.539c-0.539,0.136-1.348,0.136-2.156,0.136c-0.944,0.135-1.618,0.27-2.157,0.27
		l-0.135-0.538l0.539-0.136c0.404,0,0.539-0.135,0.539-0.135c0.135-0.271,0-0.675,0-1.214L70.771,114.91L70.771,114.91z"/>
	<path fill="#FFFFFF" d="M83.035,116.258c0.404,0,0.674,0,0.943,0l0.943-0.135c0.54,0,0.809,0,0.809-0.271v-0.809h0.539
		c0,0.404,0,0.943,0.135,1.482c0,0.539,0,0.942,0.134,1.481h-0.674l-0.134-0.674c0-0.403-0.27-0.539-0.809-0.403h-0.943
		c-0.27,0-0.539,0-0.943,0.135l0.27,3.639c0.539,0,1.213,0,1.752,0c0.674,0,1.752-0.27,1.752-0.27l0.27-1.349l0.54-0.135v2.291
		l-0.135,0.135c-0.944,0.136-2.561,0.136-3.37,0.136c-0.674,0.135-1.213,0.135-1.752,0.135c-0.674,0-1.213,0.135-1.752,0.135v-0.404
		l0.404-0.27c0.27-0.135,0.27-0.271,0.27-0.81l-0.27-6.198c-0.135-0.675-0.135-0.943-0.27-1.213c0-0.136-0.135-0.136-0.539-0.136
		h-0.539v-0.539c0.943,0,1.617,0,2.156-0.135c1.348,0,2.291-0.136,3.1-0.136c0.809-0.135,1.348-0.135,2.022-0.135l0.134,0.135
		l-0.134,2.021h-0.539l-0.135-1.078c0-0.135-0.943-0.135-1.617-0.135c-0.539,0-1.213,0.135-1.752,0.135L83.035,116.258
		L83.035,116.258z"/>
	<path fill="#FFFFFF" d="M94.896,115.987c0.27,0,0.539,0,0.943,0h0.674c0.539,0,0.808-0.135,0.808-0.403v-0.674h0.675
		c0,0.403-0.136,0.942-0.136,1.481c0,0.404,0.136,0.943,0.136,1.482h-0.539l-0.136-0.674c0-0.404-0.27-0.539-0.808-0.539h-0.674
		c-0.404,0-0.674,0-0.943,0v2.695c0,0.539,0,0.942,0.135,1.078c0,0.135,0.135,0.135,0.539,0.27h0.674v0.539
		c-0.809,0-1.482,0-2.291,0c-0.944,0-1.618,0-2.291,0v-0.539H92.2c0.404-0.135,0.539-0.135,0.539-0.27
		c0.135-0.136,0.135-0.539,0.135-1.078v-5.795c0-0.539,0-0.943-0.135-1.078c0-0.135-0.27-0.271-0.539-0.271h-0.539v-0.539
		c0.943,0,1.617,0,2.156,0c1.078,0,2.021,0,2.83,0s1.482,0,2.021,0l0.136,0.136l-0.136,2.021H98.13l-0.135-1.078
		c0-0.271-0.943-0.271-1.617-0.271c-0.404,0-0.943,0-1.617,0L94.896,115.987L94.896,115.987z"/>
	<path fill="#FFFFFF" d="M110.125,116.662c-0.135,3.369-2.291,4.985-5.524,4.985c-3.234-0.135-4.988-1.887-4.854-5.121
		c0.135-3.368,2.291-4.985,5.525-4.852C108.373,111.676,110.26,113.562,110.125,116.662L110.125,116.662z M101.769,116.394
		c0,2.291,0.811,4.312,2.832,4.446c2.561,0,3.233-1.887,3.368-3.907c0.136-2.427-0.809-4.447-2.829-4.582
		C102.578,112.351,101.903,114.235,101.769,116.394L101.769,116.394z"/>
	<path fill="#FFFFFF" d="M121.716,117.604c-0.27,3.369-2.561,4.853-5.66,4.582c-3.234-0.135-4.986-2.021-4.718-5.256
		c0.269-3.234,2.562-4.852,5.661-4.582C120.233,112.619,121.985,114.371,121.716,117.604L121.716,117.604z M113.494,116.933
		c-0.269,2.291,0.539,4.312,2.562,4.582c2.562,0.135,3.369-1.752,3.504-3.773c0.271-2.291-0.539-4.447-2.561-4.582
		C114.438,112.89,113.629,114.774,113.494,116.933L113.494,116.933z"/>
	<path fill="#FFFFFF" d="M124.276,115.045c0.135-0.539,0.135-0.942,0.135-1.078c-0.135-0.135-0.27-0.27-0.539-0.27l-0.539-0.136
		v-0.539c0.943,0.136,1.618,0.271,2.156,0.271c0.943,0.135,2.427,0.271,3.64,0.404c2.965,0.403,4.582,1.752,4.179,4.985
		c-0.404,3.369-3.504,4.853-6.47,4.447c-0.674-0.135-1.349-0.27-2.022-0.27c-0.674-0.135-1.348-0.135-2.155-0.271v-0.271l0.539-0.27
		c0.27,0,0.27-0.27,0.403-0.674L124.276,115.045L124.276,115.045z M125.489,122.053c0.404,0.136,0.809,0.271,1.214,0.271
		c2.694,0.27,4.178-0.943,4.446-3.639c0.404-2.83-0.674-4.043-3.908-4.447c-0.27,0-0.538-0.135-0.809-0.135L125.489,122.053
		L125.489,122.053z"/>
	<path fill="#FFFFFF" d="M135.06,121.244v1.213c0.27,0.81,1.213,1.349,2.021,1.481c1.079,0.136,2.292-0.27,2.426-1.481
		c0.136-0.674-0.271-1.078-0.942-1.481l-1.888-0.943c-1.077-0.539-1.887-1.482-1.616-2.561c0.27-2.291,2.021-2.83,4.043-2.562
		c0.943,0.135,1.752,0.403,2.562,0.809v0.271c-0.136,0.404-0.404,1.213-0.404,1.887l-0.674-0.135l0.136-1.078
		c-0.271-0.539-1.078-0.943-1.754-1.078c-1.213-0.135-2.021,0.539-2.156,1.348c0,0.674,0.271,1.213,1.35,1.617l1.482,0.674
		c1.213,0.539,1.887,1.482,1.752,2.695c-0.404,2.426-2.562,3.1-4.584,2.695c-1.078-0.135-2.021-0.539-2.83-1.078
		c0.271-0.809,0.404-1.482,0.539-2.291L135.06,121.244L135.06,121.244z"/>
	<path fill="#004990" d="M151.501,77.172c-0.674,0.27-1.213,0.404-1.482,2.021c-0.27,1.482-5.121,28.302-5.121,28.302l-1.078-0.27
		c0,0,4.853-26.82,5.121-28.438c0.271-1.482,0.81-1.617,1.482-1.887L151.501,77.172L151.501,77.172z M117.269,102.375
		c0,0,7.951,0.539,9.166,0.674c-0.137-0.809-0.271-1.616,0-2.561l0.674-9.03l15.363,15.364c0,0,4.717-26.55,4.986-28.167
		c0.27-1.482,0.674-1.887,1.078-2.156l-9.84-2.156c0.406,0.674,0.676,1.482,0.406,2.561l-1.889,12.399l-16.441-17.521l-2.562,29.246
		C118.077,101.972,117.269,102.375,117.269,102.375L117.269,102.375z M115.921,101.972c-0.404-0.271-0.539-0.81-0.404-1.482
		c0,0,1.617-24.529,1.752-26.146c0.135-1.618,0.539-1.752,1.213-2.157l-1.078-0.135c-0.674,0.404-1.213,0.539-1.348,2.156
		c0,1.618-1.752,26.146-1.752,26.146c0,0.81-0.271,1.213,0.404,1.617h1.213V101.972z M129.397,95.098l-1.078-0.809l-0.674,6.737
		c-0.135,0-0.27,1.617,0.135,2.156h1.078c-0.27-0.27-0.27-1.348-0.135-1.887L129.397,95.098L129.397,95.098z M84.113,99.006h-1.348
		c-0.674,1.349-0.404,2.021,0.135,2.562h1.348C83.709,101.026,83.035,100.084,84.113,99.006L84.113,99.006z M57.562,102.51
		c0,0-0.674-3.772-1.348-8.356l-1.078,0.135c0.673,4.582,1.213,8.354,1.213,8.354c0.135,0.81,0.943,1.482,0.943,1.482l1.078-0.135
		C58.371,103.992,57.697,103.317,57.562,102.51L57.562,102.51z M53.789,84.315l1.078-0.27c-0.404-3.909-0.943-6.874-0.943-7.278
		c-0.27-1.078,0.54-1.752,0.54-2.156l-1.213,0.135c0.135,0.539-0.674,1.078-0.539,2.156C52.845,77.307,53.25,80.407,53.789,84.315
		L53.789,84.315z M72.523,94.02l0.943-1.482c-0.405-7.952-0.943-17.656-1.079-18.195c-0.134-1.079,0.27-1.618,0.674-1.887
		l-1.213,0.135c-0.404,0.27-0.809,0.809-0.674,1.887C71.31,75.15,71.983,86.068,72.523,94.02L72.523,94.02z M104.062,90.65
		L90.583,70.838h-1.078l14.421,21.564L104.062,90.65L104.062,90.65z M136.812,85.125l-12.131-12.939l-1.617-0.135l13.344,14.556
		L136.812,85.125L136.812,85.125z M114.571,74.073c0.137-1.618,0.541-1.752,1.215-2.157l-10.782-0.539
		c0.675,0.27,0.81,0.943,0.81,1.752c0,0-0.674,18.869-0.943,23.586L87.618,70.568l-16.039,27.36
		c-0.404-5.93-1.617-22.642-1.752-23.316c-0.135-1.213-0.135-1.618,0.27-1.887L59.45,73.804c0.674,0.134,0.809,1.078,0.943,1.887
		c0,0,0.674,4.043,1.348,8.895l-8.896,1.348c-0.809-4.717-1.348-8.491-1.482-8.895c-0.135-1.078,0-1.887,0.27-2.157L41.12,76.768
		c0.674,0.27,0.944,0.809,1.079,1.617c0,0,4.447,24.125,4.717,25.742c0.27,1.481-0.135,1.752-0.674,2.291l10.108-1.752
		c0,0-1.078-0.539-1.213-1.349c0,0-0.674-4.852-1.483-10.107l8.761-1.213c0.27,2.156,0.809,7.952,0.809,8.49
		c0.27,1.617,0.404,2.291-0.135,2.83l10.108-0.942l8.76-0.674c-0.943-0.404-2.021-1.482-0.135-3.908l12.534-0.271
		c0.674,1.482,0.943,2.562,0.135,3.773l12.398,0.27l6.604,0.404c-0.675-0.404-0.81-1.078-0.675-1.887
		C112.819,100.084,114.438,75.555,114.571,74.073L114.571,74.073z M85.191,91.458l2.831-5.391l2.696,5.121L85.191,91.458
		L85.191,91.458z M88.696,89.707l-0.674-0.943l-0.809,1.617h1.078L88.696,89.707L88.696,89.707z"/>
	<path d="M177.244,125.151c-1.214,0-2.022,0.943-2.022,2.021s0.81,2.021,1.889,2.021c1.213,0,2.021-0.943,2.021-2.021
		S178.321,125.151,177.244,125.151L177.244,125.151L177.244,125.151z M177.108,125.558c0,0,0,0,0.136,0
		c0.81,0,1.481,0.674,1.481,1.616c0,0.943-0.674,1.617-1.481,1.617c-0.943,0-1.617-0.674-1.617-1.617
		C175.627,126.231,176.165,125.558,177.108,125.558L177.108,125.558L177.108,125.558z M176.435,125.961v2.291h0.271v-0.942h0.405
		l0.674,0.942h0.404l-0.674-0.942c0.402,0,0.539-0.271,0.539-0.675c0-0.403-0.271-0.674-0.81-0.674H176.435L176.435,125.961z
		 M176.704,127.039v-0.674h0.54c0.271,0,0.539,0,0.539,0.27c0,0.271-0.271,0.404-0.404,0.404H176.704L176.704,127.039z"/>
</g>
</svg>
