<?xml version="1.0" encoding="utf-8"?>
<!-- Generator: Adobe Illustrator 16.0.0, SVG Export Plug-In . SVG Version: 6.00 Build 0)  -->
<!DOCTYPE svg PUBLIC "-//W3C//DTD SVG 1.1//EN" "http://www.w3.org/Graphics/SVG/1.1/DTD/svg11.dtd">
<svg version="1.1" id="Layer_1" xmlns="http://www.w3.org/2000/svg" xmlns:xlink="http://www.w3.org/1999/xlink" x="0px" y="0px"
	 width="175.748px" height="169.377px" viewBox="271.503 275.691 175.748 169.377"
	 enable-background="new 271.503 275.691 175.748 169.377" xml:space="preserve">
<g>
	<path fill="#FFFFFF" d="M439.869,335.623c0-0.724,0.145-1.448,0.145-2.171c0-2.75-0.579-5.501-1.593-7.962
		c1.014-1.738,1.448-3.475,1.448-5.501c0-1.013-0.146-2.027-0.436-3.185c-1.014-3.764-1.446-7.383-1.446-9.12
		c0-0.145,0-0.435,0-0.579l0.434-3.185l-3.185,0.724c-1.883,0.29-4.055-0.869-5.937-2.027l-2.171-1.013
		c-1.159-0.579-4.054-1.882-7.094-1.593c-0.436-3.04-3.476-7.962-12.74-8.831c-4.053-0.29-6.948-1.303-7.673-1.737l-1.882-1.592
		l-1.303,1.882c-8.977-8.396-24.756-13.608-35.759-14.042c-4.053,0-24.03,0-36.047,12.595c-8.251-0.724-28.664,3.909-41.982,33.152
		c-0.579,1.303-1.593,3.764-0.145,5.356c0.434,0.579,1.303,1.013,2.461,0.868c-0.579,0.435-1.158,0.869-1.592,1.303
		c-9.121,9.265-11.871,18.82-11.871,26.782c0,9.265,3.475,16.358,4.777,18.53c0.724,1.447,1.592,2.896,3.33,3.186
		c1.158,0.289,2.171-0.145,3.04-0.58c-1.737,2.461-2.172,5.068-2.172,7.383c0,0.437,0,0.869,0,1.158
		c0.579,13.465,16.069,28.955,27.072,34.166c2.026,0.869,3.619,1.592,5.211,0.58c1.158-0.725,1.304-2.027,1.304-3.041
		c1.447,5.066,4.633,8.83,9.555,11.002c3.041,1.303,6.37,2.172,10.134,2.896c8.251,1.735,16.938,3.619,22.583,12.594
		c0.724,1.158,1.737,1.447,2.461,1.447c0.579,0,1.593-0.289,2.172-1.593c1.015-2.172,1.737-4.344,2.316-6.368
		c0.145,0.289,0.434,0.723,0.868,1.157c1.593,1.304,3.33,0.146,4.922-1.014c8.687-6.08,18.676-8.977,25.335-10.568
		c12.016-2.895,20.846-6.368,27.216-10.713c13.464-8.83,16.359-20.122,16.938-26.059c0.145-0.724,0.145-1.447,0.145-2.024
		c0-4.199-1.303-8.107-3.909-11.148c0.146,0,0.146,0,0.146,0c2.314,1.592,4.486,2.604,7.094-1.014
		c2.461-3.328,5.211-10.277,5.211-18.386C447.252,350.679,445.37,343.006,439.869,335.623L439.869,335.623z"/>
	<polygon fill="#5A338E" points="382.975,433.342 384.567,433.342 384.567,436.816 385.726,436.816 385.726,433.342 
		387.318,433.342 387.318,432.473 382.975,432.473 	"/>
	<polygon fill="#5A338E" points="390.358,434.064 388.911,432.473 388.042,432.473 388.042,436.816 389.056,436.816 
		389.056,434.209 390.214,435.512 390.358,435.512 391.661,434.209 391.661,436.816 392.675,436.816 392.675,432.473 
		391.806,432.473 	"/>
	<path fill="#5A338E" d="M436.104,374.42c2.027,1.447,2.463,1.738,3.909-0.434c3.765-4.922,9.846-22.294-2.751-37.93
		c0.579-3.909,0-7.962-1.592-11.147c-0.869,1.303-2.172,2.316-3.619,3.185c-1.304-2.026-3.909-3.04-6.226-3.04
		c-1.447,0-1.015,0.435-0.289,0.724c9.555,4.054,6.08,15.201,4.922,17.517c-1.303,2.461-1.014,5.501-1.014,5.501
		c-3.04-0.868-5.646-0.145-8.106,0.29c-4.777,0.724-7.816-0.145-10.278-1.303c-2.026-0.869-5.066-2.895-5.646-6.804
		c0-0.724-0.436-1.158-0.724,0.145c-0.579,2.172-0.146,4.922,1.446,6.66c-1.736,8.686-18.818,8.107-18.818,8.107
		c-1.015-3.33-7.095-4.632-9.845-8.541l0,0l0,0c-0.29,9.699-4.198,16.792-6.081,19.253c-0.145,0.289-0.145,0.578,0.29,0.435
		c2.605-0.435,6.08-3.187,7.674-5.354c0.434-0.58,1.013-0.291,1.013,0.289c2.751,27.217-7.673,58.196-13.174,70.356
		c-1.594,3.33-3.186,5.211,0.435,2.604c8.687-6.079,18.675-9.12,26.06-10.856c14.62-3.619,22.294-7.383,26.491-10.279
		c10.713-7.238,15.2-16.504,16.069-24.465c1.303-13.897-13.029-18.097-13.464-18.387c-0.579-0.146-0.289-0.435,0.29-0.578
		C427.13,370.223,431.906,371.525,436.104,374.42L436.104,374.42z"/>
	<path fill="#BE3F91" d="M294.522,370.367c0.435,0,0.869,0.434,0.29,0.578c-11.871,4.633-12.305,9.846-12.16,14.043
		c0.579,12.16,15.345,27.217,25.769,32.139c2.461,1.158,3.476,1.592,3.186-1.303c-0.146-7.094,2.896-12.16,4.633-14.188
		c0.29-0.434,0.724-0.434,0.724,0.146c-0.145,0.434-5.936,17.951,7.383,23.887c9.556,4.199,25.045,2.461,33.875,16.359
		c0.29,0.578,0.436,0.434,0.579,0c8.252-17.808,0-34.312-1.448-37.931c4.199-2.315,8.107-5.211,10.714-8.396
		c2.025-2.461,2.75-4.197,3.329-5.355c0.578-1.158,0.289-1.883-0.725-1.303c-6.659,3.908-20.268,9.119-39.667,5.355
		c0,0-5.355-0.726-4.488-6.226c0.146-1.446,0.869-3.041,1.594-4.487c0.145-0.578,0.867-2.605,0.145-3.619
		c-0.579-1.015-1.013-1.738-0.579-2.896c0.29-1.014,1.593-2.172,3.619-2.606c1.737-0.578,4.922-0.724,7.528-0.578
		c0.579,0.145,1.303,0,1.736,0c0.725-0.146,1.158-0.725,1.015-1.447c-0.29-0.436-0.579-0.869-1.158-2.316
		c-0.436,1.014-0.869,1.303-2.027,1.158s-3.475-1.014-5.646-1.594c-2.171-0.578-3.475-0.145-4.777,1.594
		c-1.158,1.736-1.158,0-1.014-0.58c0.145-1.014,1.448-2.316,1.593-3.039c0.145-0.725,0.29-1.594-1.593-2.896
		c-1.158-0.867-2.026-1.593-2.605-2.173c-1.736-1.735-2.026-3.473,1.304-6.223c2.315-2.027,7.527-7.383,8.976-10.568
		c0.29-0.434,1.593-2.461,0.145-4.633c-1.013-1.448-1.157-1.737-1.447-2.316c-0.869-1.448-0.29-2.751,1.013-4.778
		c0.579-0.868,1.014-2.027,2.316-6.08c1.593-4.922,4.487-9.989,8.252-13.029c1.592-3.185,0.579-8.252,6.948-13.898
		c5.067-4.488,22.439-10.279,42.997-7.094c0.725-0.434,1.157-1.013,1.593-1.448c-7.674-8.251-24.177-14.477-35.902-14.911
		c-8.107-0.29-25.334,1.447-35.178,12.595c-7.239-1.303-27.651,2.895-40.68,31.704c-1.158,2.75-0.869,3.475,0.869,2.895
		c5.501-2.026,10.423-2.026,12.884-1.447c1.014,0.145,0.579,0.579,0.29,0.579c-0.145,0-0.579,0.145-1.303,0.289
		c-2.606,0.579-9.121,2.751-12.595,6.081c-19.254,19.254-7.962,40.245-6.659,42.417c1.158,2.316,1.882,2.75,3.764,1.303
		C283.812,372.684,288.152,370.512,294.522,370.367L294.522,370.367z"/>
	<path fill="#BE3F91" d="M334.912,363.852c-0.579,1.015-1.737,2.316-4.343,0.726c-2.316-1.304-2.896-1.593-4.055-2.173
		c-0.29-0.145-0.434-0.288-0.434-0.577c0.145-0.146,0.579-0.146,1.303-0.146c1.304,0.289,3.476,0.867,3.909,1.012
		c0.579,0,1.882,0.291,2.461-0.289c0.579-0.434,1.013-0.723,1.303-0.288C335.347,362.404,335.057,363.562,334.912,363.852
		L334.912,363.852z"/>
	<path fill="#F6937B" d="M435.526,306.524c-0.146,1.592,0.289,6.225,1.592,10.568c1.303,4.632-1.015,8.686-5.066,11.002
		c-1.304-2.026-3.909-3.04-6.226-3.04c-1.447,0-1.015,0.435-0.289,0.724c9.555,4.054,6.08,15.201,4.922,17.517
		c-1.303,2.461-1.014,5.501-1.014,5.501c-3.04-0.868-5.646-0.145-8.106,0.29c-4.777,0.724-7.816-0.145-10.278-1.303
		c-2.026-0.869-5.066-2.895-5.646-6.804c0-0.724-0.435-1.158-0.724,0.145c-0.579,2.172-0.146,4.922,1.446,6.66
		c-1.736,8.686-18.818,8.107-18.818,8.107c-1.158-3.764-8.977-4.922-10.714-10.423c-0.868-2.461-0.145-5.212-0.145-5.212
		c4.487,1.013,7.093-1.158,8.541-2.896c0.869-1.013,0.145-1.158-0.435-0.724c-5.646,3.619-11.003,0-12.017-5.067
		c-1.447-5.5-6.949-7.238-6.949-7.238c3.909-2.461,2.896-6.804,4.924-10.423c5.355-9.41,13.027-6.66,13.027-6.66
		c0.726,2.316,2.896,3.909,5.212,4.633c1.304,0.29,1.015-0.29,0.436-0.724c-5.356-3.909-4.054-10.134,0.289-13.029
		c7.384-5.067,8.687-7.239,8.687-7.239c1.303,1.014,4.922,1.882,8.831,2.316c8.541,0.724,10.567,5.212,10.713,6.804
		c-1.014,0.579-2.751,2.172-3.619,4.777c-0.29,1.303,0.289,1.013,0.725,0.435c3.33-4.488,7.383-3.619,11.292-1.882
		C428.577,304.498,432.052,307.248,435.526,306.524L435.526,306.524z"/>
	<path fill="#5A338E" d="M383.554,307.248c0.726,2.316,2.896,3.909,5.212,4.633c0.579,0.145,0.869,0.145,0.869,0s0-0.29-0.146-0.435
		c0-0.145-0.146-0.145-0.289-0.289c-5.356-3.909-4.054-10.134,0.289-13.029c2.315-1.593,4.054-2.896,5.356-4.054
		c-20.558-3.185-37.93,2.606-42.997,7.094c-6.37,5.646-5.355,10.713-6.948,13.898c2.75-2.027,5.646-3.33,9.265-4.054
		c9.121-2.027,13.752,1.303,15.924,3.909c0.146-0.29,0.29-0.724,0.436-1.013C375.882,304.498,383.554,307.248,383.554,307.248
		L383.554,307.248z"/>
	<path fill="#5A338E" d="M396.438,333.741c0,0.434,0.146,0.579,0.436,0.145c1.447-1.738,3.764-4.488,7.527-6.081
		c4.344-1.882,6.369-4.777,7.094-7.672c0.29-1.593,0.29-4.488,2.027-6.66c0.578-0.724-0.146-0.724-0.726-0.579
		c-0.578,0.29-3.329,1.882-4.777,4.488c-1.735-1.158-2.025-3.04-2.171-4.198c0-0.435-0.29-0.58-0.579-0.145
		c-1.303,1.592-1.882,3.474-2.025,4.632c0,0-1.304-0.579-1.304-2.896c0.146-0.289-0.146-0.145-0.289,0
		c-1.737,2.027-1.015,4.343-1.015,4.778c0,0-2.461-0.724-5.936-0.435c-1.014-2.026-4.777-1.882-4.777,0.579
		c0,2.171,3.765,3.04,4.777,0.869c0,0,4.922-0.579,10.134,2.605c0.435,0.435,0.724,0.724,0.435,1.014
		c-0.145,0.145-0.868,0-1.593-0.435c-1.013-0.289-7.673-2.605-12.016,1.014c-0.146,0.29-0.146,0.434,0.145,0.434
		c1.015,0,3.187,0.29,4.055,1.593c-1.304,0.579-3.186,1.882-3.909,5.356c-0.289,0.869,0.29,0.869,0.725,0.435
		c0.289-0.435,3.04-2.896,4.198-3.04C396.873,329.542,396.149,331.28,396.438,333.741L396.438,333.741z"/>
	<path fill="#BE3F91" d="M351.995,338.518c-1.593-1.013-3.909-1.013-4.343-1.013c-0.436-0.145-0.579-0.579,0.145-0.869
		c0.869-0.435,2.606-0.145,2.606-0.435c0.145-0.29-0.29-0.869-1.593-1.303c-1.303-0.579-4.197-0.434-5.646-0.145
		c-1.448,0.145-2.75-1.158-0.434-3.04c2.315-2.027,5.501-1.592,6.804-1.737s0.724-0.724,0.435-0.869
		c-0.435-0.145-2.172-1.158-5.066-1.013c-3.041,0.29-5.646,2.027-7.238,3.764c-0.869,1.013-1.158,2.027-1.303,2.895
		c-0.146,1.593,1.013,2.172,2.461,1.593c0.579-0.29,1.014-0.29,1.593-0.29c0.579,0.145,1.013,0.58,0.724,0.869
		c-0.29,0.145-0.579,0.579-0.869,1.448c-0.145,1.013,0.436,1.737,1.158,2.605c0.29,0.579,0.435,0.869,0.579,1.303
		c0.146,0.434,0,0.724-0.434,1.013c-0.436,0.434-0.146,1.014,0.869,0.724c1.157-0.29,1.736-0.579,2.604-1.303
		c1.158-1.013,1.158-1.593,1.882-2.461c0.869-0.869,3.476-0.869,4.922-0.579C353.442,339.821,353.732,339.531,351.995,338.518
		L351.995,338.518z"/>
</g>
</svg>
