<?xml version="1.0" encoding="utf-8"?>
<!-- Generator: Adobe Illustrator 16.0.0, SVG Export Plug-In . SVG Version: 6.00 Build 0)  -->
<!DOCTYPE svg PUBLIC "-//W3C//DTD SVG 1.1//EN" "http://www.w3.org/Graphics/SVG/1.1/DTD/svg11.dtd">
<svg version="1.1" id="Layer_1" xmlns="http://www.w3.org/2000/svg" xmlns:xlink="http://www.w3.org/1999/xlink" x="0px" y="0px"
	 width="187.086px" height="66.897px" viewBox="2.835 62.929 187.086 66.897" enable-background="new 2.835 62.929 187.086 66.897"
	 xml:space="preserve">
<g>
	<path fill="#FFFFFF" d="M38.53,62.929c-19.155,0-33.265,11.015-35.695,27.528v10.528c2.644,18.589,19.067,28.841,37.692,28.841
		h112.701c20.844,0,36.693-14.853,36.693-34.073c0-15.85-12.23-32.824-35.32-32.824H38.53L38.53,62.929z"/>
	<path fill="#ED1C24" d="M34.162,92.509l-1.997,7.489c-0.125,0.373-0.499,1.123,0.25,1.621v0.998c-2.746-0.248-5.866-0.373-7.239,0
		l-1.872-0.248l6.615-23.464c0.25-0.749,0.375-1.373,0.25-1.997c0-0.25-0.25-0.499-0.375-0.624l0.125-0.874
		c1.373,0.125,4.244,0.499,6.864,0l2.122,0.25c0,0-0.5,1.747-0.749,2.871L34.91,90.262c2.122-1.623,6.365-3.744,8.737-3.994
		l1.997-7.239c0.25-0.624,0.5-1.997,0.375-2.371c-0.25-0.125-0.375-0.25-0.5-0.25l0.125-0.999c1.249,0.125,4.992,0.499,7.239,0
		l1.872,0.25c0,0-0.5,1.747-0.874,2.871l-3.245,11.482l-2.621,9.985c-0.125,0.498-0.624,1.123,0.375,1.621l-0.25,0.998
		c-2.622-0.373-5.741-0.373-7.239,0l-1.748-0.248l3.619-12.856C40.527,89.513,36.658,90.637,34.162,92.509L34.162,92.509z"/>
	<path fill="#ED1C24" d="M153.103,86.269c1.125,1.747,0.75,3.869,0.25,5.491h-13.604c-0.624,2.247-1.248,5.367,0.873,7.488
		c2.122,1.623,5.117,0.873,6.863,0c1.125-0.498,2.123-1.123,2.996-1.871c0.375,0.373,1.248,1.373,1.248,1.373
		c-3.494,2.744-8.112,5.24-13.604,4.117c-2.745-0.373-5.241-2.496-5.99-4.492c-1.498-5.242,1.747-10.235,6.614-12.98
		C142.494,83.398,150.106,82.274,153.103,86.269L153.103,86.269z M144.242,85.769c-2.621,0.5-3.62,2.746-4.119,4.244
		c2.122,0,4.618,0,5.741,0c0.498-0.874,0.873-2.247,0.498-3.245C145.864,86.019,145.24,85.644,144.242,85.769L144.242,85.769z"/>
	<path fill="#ED1C24" d="M75.098,86.892c2.621,3.869,0.5,10.235-4.119,13.604c-2.746,1.998-5.991,2.871-9.86,2.746
		c-2.246,0-4.618-0.873-6.24-2.121c-1.997-1.498-2.746-4.619-2.496-5.991C53.132,89.763,58,84.896,64.614,83.897
		C68.234,83.398,72.977,84.146,75.098,86.892L75.098,86.892z M65.738,85.644c-1.373,0.5-2.746,1.623-3.62,3.62
		c-1.622,3.12-2.87,7.488-2.122,10.734c0.375,1.248,1.498,1.496,2.372,1.371c2.371-0.623,4.618-4.492,5.616-7.113
		c0.499-1.623,1.623-5.492,0.25-7.988C67.735,85.644,66.986,85.27,65.738,85.644L65.738,85.644z"/>
	<path fill="#ED1C24" d="M99.812,82.399c0.373-0.749-1.125-1.748-2.373-1.748c-4.617-0.125-7.487,4.618-9.983,7.863L87.33,88.64
		c0,0,0.499-2.122,0.749-3.12l-1.373-0.25c-2.871,0.625-6.116,0-6.74,0l-0.125,0.874c0.999,0.375,0.5,1.123,0.375,1.872
		l-3.994,14.354l1.872,0.248c0.624-0.248,2.995-0.248,3.62-0.248l3.619,0.248l0.125-0.873c-0.749-0.498-0.499-1.123-0.374-1.871
		c0,0,2.122-8.363,2.995-9.611c1.997-4.493,7.863-6.74,6.74-2.746l0.25,0.25C95.317,87.641,98.937,83.897,99.812,82.399
		L99.812,82.399z"/>
	<path fill="#ED1C24" d="M164.336,90.137l2.87-10.359c0.375-0.999,0.874-2.871,0.874-2.871l-1.997-0.125
		c-2.995,0.499-5.242,0-7.114-0.125l-0.124,0.999c0.124,0,0.249,0.25,0.499,0.499c0.249,0.25-0.25,1.498-0.375,2.122l-6.114,22.091
		l1.996,0.248c1.373-0.373,4.368-0.373,6.989,0l0.125-0.873c-0.624-0.375-0.5-0.998-0.5-1.373L164.336,90.137L164.336,90.137z"/>
	<path fill="#ED1C24" d="M101.683,85.395c-1.248,0.874-6.116,3.495-6.74,3.745c0,0.125,0,0.749,0,0.749
		c0.25,0,0.499,0.375,0.375,0.999c-0.999,3.619-3.245,11.483-3.245,11.483l1.872,0.248c0.624-0.248,3.494-0.373,7.115,0l0.123-0.998
		l-0.248-0.125c-0.375-0.373-0.25-0.873,0-1.746l1.746-6.116c0.5-1.498,0.75-4.867,3.869-6.74c0.499-0.249,0.998-0.249,1.373-0.249
		c1.997,0.249,0.998,2.87,0.749,3.869l-2.996,10.734l-0.249,1.123l1.747,0.248c1.747-0.498,4.867-0.248,7.239,0l0.124-0.873
		l-0.124-0.25c-0.5-0.248-0.5-0.623-0.125-1.746c0,0,1.872-6.865,2.496-9.111c0.499-1.623,2.371-4.493,4.867-3.994
		c0.748,0.249,1.248,1.123,0.873,2.746l-3.618,12.98l1.87,0.248c1.998-0.498,5.117-0.123,7.115,0l0.25-0.873
		c-0.25-0.125-0.375-0.25-0.375-0.375c-0.375-0.498,0-1.248,0.125-1.996c0,0,2.496-8.736,2.496-10.983
		c-0.125-0.999-0.375-2.122-1.373-3.245c-1.123-1.123-2.621-1.373-3.619-1.498c-3.994-0.5-7.488,2.122-8.861,3.869
		c0,0-0.374-1.248-0.748-1.748c-0.5-0.874-1.623-1.623-2.746-1.872c-4.368-1.248-6.74,1.124-9.111,3.62l0.625-1.623
		C104.929,84.271,104.179,83.897,101.683,85.395L101.683,85.395z"/>
	<path fill="#00A651" d="M100.81,84.396c3.494-3.37,6.863-6.864,8.236-10.234c0.499-1.248,0.749-2.745,0.499-4.493
		c-0.499-2.746-1.747-2.996-2.496-2.871c-0.374,0-1.248,0.499-1.373,1.498c-0.499-0.874-1.872-1.498-2.87-0.5
		c0,0-0.998,0.749-0.498,2.371c-1.125-0.375-2.248,0.375-2.496,1.373c-0.25,1.124,0.248,2.122,1.621,2.372
		c1.623,0.375,3.744,2.496,1.748,6.614c-0.5,1.124-2.371,3.121-2.621,3.37C100.435,84.146,100.56,84.521,100.81,84.396
		L100.81,84.396z"/>
	<path fill="#ED1C24" d="M118.157,112.853c0.749-2.496-0.125-3.494-1.123-3.244c-0.5,0.125-1.124,0.5-1.623,1.498
		c-0.749,1.498-1.622,3.494-0.998,4.742c0.374,0.748,1.373,0.625,1.872,0.125c0.374-0.375,1.372-1.123,1.747-2.621L118.157,112.853
		L118.157,112.853z M119.03,109.481l0.873-2.996c0.125-0.248,0.25-0.873,0.125-0.998s-0.125-0.25-0.25-0.25l0.125-0.372
		c0.873,0,1.873,0.247,3.246,0l0.873,0.125c0,0-0.25,0.747-0.375,1.247l-1.496,5.49l-1.25,4.867c0,0.125-0.125,0.375,0.25,0.625
		l-0.125,0.375c-1.248-0.125-2.495-0.125-3.244,0h-0.624l0.499-2.123c-0.623,1.373-2.121,2.248-3.12,2.248
		c-1.123,0-1.872-0.25-2.496-0.875c-0.624-0.748-0.998-2.371-0.873-3.119c0.374-2.746,2.121-4.867,5.241-5.367
		C117.283,108.233,118.656,108.483,119.03,109.481L119.03,109.481z"/>
	<path fill="#ED1C24" d="M123.897,115.599c0.998,0.625,1.873,0.998,3.244,0.998c1.498,0.125,2.498-0.248,2.746-1.123
		c0.375-1.373-5.49-1.621-4.742-4.242c0.25-1,0.998-1.748,2.121-2.248c1.248-0.498,2.373-0.623,3.621-0.623
		c1.122,0,2.245,0.125,3.244,0.375l-0.5,1.621c-0.624-0.498-1.622-0.873-2.496-0.873c-0.498,0-2.246,0.125-2.371,0.998
		c-0.25,0.625,1,0.998,1.498,1.123c0.748,0.25,1.497,0.5,2.121,1c0.749,0.498,1.373,1.123,0.999,2.121
		c-0.749,2.621-3.868,3.243-6.241,3.243c-1.248,0-2.496-0.372-3.619-0.622L123.897,115.599L123.897,115.599z"/>
	<path fill="#ED1C24" d="M108.547,109.856c1.248,1.871,0.249,4.992-1.997,6.615c-1.373,0.998-2.869,1.371-4.742,1.371
		c-1.123,0-2.246-0.498-2.996-0.998c-0.998-0.748-1.373-2.371-1.123-2.994c0.375-2.621,2.621-4.992,5.867-5.492
		C105.177,108.108,107.548,108.483,108.547,109.856L108.547,109.856z M104.054,109.231c-0.623,0.125-1.248,0.75-1.746,1.748
		c-0.75,1.498-1.373,3.619-1,5.242c0.125,0.623,0.75,0.748,1.123,0.623c1.125-0.25,2.248-2.121,2.621-3.494
		c0.25-0.748,0.874-2.621,0.25-3.869C104.929,109.231,104.679,108.981,104.054,109.231L104.054,109.231z"/>
	<path fill="#ED1C24" d="M82.961,109.606c0,0-2.371,0-4.493,0l0.874-3.121c0,0,3.495,0,4.119,0s1.248,0.625,1.248,1h0.624
		l0.624-2.495c0,0-8.612,0-10.359-0.125l-0.125,0.497c0.125,0,0.125,0.125,0.25,0.125c0,0.125-0.125,0.75-0.125,1.123l-2.996,10.984
		l0.749,0.125c0.624-0.25,2.122-0.125,3.37,0v-0.5c-0.374-0.25-0.125-0.5-0.125-0.748l1.498-5.242h2.372
		c0.624,0,1.248,0.623,1.248,0.998h0.624L82.961,109.606L82.961,109.606z"/>
	<path fill="#ED1C24" d="M95.067,109.856c1.248,1.871,0.25,4.992-1.997,6.615c-1.373,0.998-2.871,1.371-4.742,1.371
		c-1.124,0-2.247-0.498-2.996-0.998c-0.999-0.748-1.373-2.371-1.248-2.994c0.499-2.621,2.746-4.992,5.991-5.492
		C91.698,108.108,94.069,108.483,95.067,109.856L95.067,109.856z M90.574,109.231c-0.749,0.125-1.373,0.75-1.747,1.748
		c-0.749,1.498-1.373,3.619-0.999,5.242c0.125,0.623,0.749,0.748,1.124,0.623c1.123-0.25,2.247-2.121,2.621-3.494
		c0.249-0.748,0.874-2.621,0.249-3.869C91.448,109.231,91.199,108.981,90.574,109.231L90.574,109.231z"/>
	<path fill="#00A651" d="M53.631,125.832h99.347c18.098,0,32.949-12.354,32.949-29.954c0-15.227-11.855-28.831-30.703-28.956
		h-32.574c0.998,0.125,1.498,1.748,0.998,2.247h29.455c19.221,0,28.83,11.482,28.83,26.583c0,13.979-12.105,24.461-29.205,24.461
		h-87.24c-4.118,2.498-5.491,3.496-11.856,5.242C53.382,125.457,53.382,125.832,53.631,125.832L53.631,125.832z"/>
	<path fill="#00A651" d="M50.761,119.842c-3.994,0.498-4.743,0.373-12.106,0.373c-14.353,0-28.206-9.108-28.206-24.211v-0.125
		c0-17.972,12.979-26.708,28.082-26.708h61.655c-0.375-0.999,0.25-1.873,0.998-2.247h-63.28C18.81,66.924,6.329,79.53,6.329,95.88
		c0,19.969,16.974,29.954,33.074,29.954c6.49,0,11.108-1.248,14.603-2.371c5.991-1.996,11.856-6.239,17.099-10.981
		c0.375-0.5,0.125-0.75-0.375-0.375C64.49,116.597,56.377,119.217,50.761,119.842L50.761,119.842z"/>
	<path fill="#00A651" d="M115.037,63.803c0,0-1.623,0-1.748,1.872c0,0-1.497-1.373-2.745-0.125c-0.375,0.375-0.25,0.874-0.125,1.373
		c0,0,2.745,4.369-0.624,9.361v0.125c-0.499,0.624-0.499,0.874,0.25,0.25c0.624-0.5,1.248-0.999,1.248-0.999
		c6.364-5.117,9.36-5.866,9.36-5.866c0.373-0.125,0.623-0.249,0.873-0.499c0.25-0.499-0.125-0.998-0.5-1.248
		c0,0-0.498-0.375-1.373-0.25c0,0,1.123-1.373-0.125-2.496c0,0-1.246-0.874-2.494,0.125
		C117.034,65.425,116.659,63.803,115.037,63.803L115.037,63.803z"/>
	<path fill="#00A651" d="M108.297,80.402c0.624-0.375,1.124-0.749,1.748-0.999c4.742-2.371,6.739-0.375,6.739-0.375
		c1.622,0.999,1.123,2.746,1.123,2.746c1.498,0.374,2.496-0.375,2.869-0.999c0.375-0.874,0.25-1.623,0.25-1.623
		c2.248,0.25,2.746-1.623,2.746-1.623c0.375-1.872-1.373-2.496-1.373-2.496c2.246-1.123,1.498-3.12,0-3.245
		c-1.373-0.125-2.746,0.5-3.868,1.123c-1.872,0.874-6.989,4.493-10.483,7.239C107.673,80.527,107.798,80.777,108.297,80.402
		L108.297,80.402z"/>
</g>
</svg>
