<?xml version="1.0" encoding="utf-8"?>
<!-- Generator: Adobe Illustrator 16.0.0, SVG Export Plug-In . SVG Version: 6.00 Build 0)  -->
<!DOCTYPE svg PUBLIC "-//W3C//DTD SVG 1.1//EN" "http://www.w3.org/Graphics/SVG/1.1/DTD/svg11.dtd">
<svg version="1.1" id="Layer_1" xmlns="http://www.w3.org/2000/svg" xmlns:xlink="http://www.w3.org/1999/xlink" x="0px" y="0px"
	 width="145.415px" height="133.924px" viewBox="23.672 29.416 145.415 133.924"
	 enable-background="new 23.672 29.416 145.415 133.924" xml:space="preserve">
<g>
	
		<linearGradient id="SVGID_1_" gradientUnits="userSpaceOnUse" x1="43.6128" y1="122.3115" x2="43.6128" y2="14.5945" gradientTransform="matrix(1 0 0 -1 54 157.7559)">
		<stop  offset="0" style="stop-color:#B11116"/>
		<stop  offset="1" style="stop-color:#ED1C24"/>
	</linearGradient>
	<path fill="url(#SVGID_1_)" d="M150.342,129.019c0.825-2.011,1.339-4.096,1.507-6.231c2.598-22.991-22.137-55.083-26.505-60.217
		c6.644,8.289,2.214,20.998-5.905,26.519c0.736-1.652,8.119-9.944-4.433-26.519c-12.554-16.029-10.337-22.105-3.692-33.154
		C78.084,39.36,79.559,65.889,79.559,85.778c-0.737-6.634-10.338-15.473-18.461-20.444c7.385,5.525,9.358,24.068-0.74,31.5
		c-1.918,1.411-3.657,2.763-5.22,4.069c-7.474,5.568-11.951,12.639-11.951,20.336c0,8.025,4.864,15.371,12.924,21.046
		c2.34,1.646,83.355-0.195,85.756-2.213c2.139-1.794,3.978-3.729,5.479-5.773h0.021
		C148.634,132.657,149.612,130.887,150.342,129.019z"/>
	
		<linearGradient id="SVGID_2_" gradientUnits="userSpaceOnUse" x1="42.3794" y1="86.6562" x2="42.3794" y2="-7.1749" gradientTransform="matrix(1 0 0 -1 54 157.7559)">
		<stop  offset="0" style="stop-color:#FDB913"/>
		<stop  offset="1" style="stop-color:#F7941E"/>
	</linearGradient>
	<path fill="url(#SVGID_2_)" d="M167.59,140.99l-1.659-1.226c-0.707-0.519-1.568-0.74-2.431-0.681
		c-1.319-3.459-4.655-6.304-11.01-6.304c-4.243,0-7.902,1.254-10.505,3.369c-0.207-0.297-0.452-0.571-0.715-0.836
		c0.317-0.133,0.487-0.207,0.487-0.207c8.462-9.688,5.749-20.77,3.748-26.078c-2.263-6.002-7.502-11.355-8.553-14.812
		c2.45,8.066-8.392,10.5-17.552,15.473c8.398-5.522,8.398-20.443,8.398-22.098c-1.529,15.465-24.113,21.951-25.597,22.62
		c17.912-8.071,8.037-17.647,8.037-17.647c1.53,4.417-4.577,5.521-6.868,8.285c1.523-2.209,3.816-5.53-0.762-9.942
		c-3.819-4.972-7.629-16.577-7.629-20.447c-9.927,9.399-3.055,24.86-2.293,28.735c-0.761-2.213-4.655-4.631-4.655-4.631
		c3.05,9.84-2.704,19.175-4.811,19.175c-2.11,0-6.311-3.824-5.797-12.89c0.538-9.503,1.356-12.191,1.356-12.191
		c-7.75,6.521-8.991,17.718-8.991,17.718c-3.816-2.765,0-9.394,0-9.394c-8.462,4.593-8.179,14.06-7.484,19.394
		c-0.228-0.006-0.457-0.019-0.683-0.019c-0.041,0-0.077,0.004-0.118,0.004c-1.57-1.922-4.299-5.084-4.299-5.084
		c0.938,2.043-6.198,7.131-9.044,12.565c-0.678,1.208-1.583,3.695-1.699,3.61c0,0-0.012,0.299,0.027,0.707
		c-0.129-0.117-0.257-0.236-0.4-0.344c-0.021-0.019-0.041-0.033-0.062-0.047c-1.053-0.764-2.293-1.164-3.589-1.164
		c-1.262,0-2.575,0.312-3.899,0.926c-0.933,0.437-1.743,0.964-2.433,1.57c-0.914-0.488-1.935-0.748-3.004-0.748
		c-1.715,0-3.299,0.541-4.711,1.607c-1.68,1.289-2.591,3.089-2.591,5.085c0,0.683,0.11,1.335,0.32,1.94
		c-0.257,0.207-0.501,0.428-0.729,0.656c-0.692,0.694-1.074,1.629-1.074,2.597c0,0.19,0.015,0.384,0.045,0.577
		c0.078,0.484,0.27,0.934,0.523,1.342c-0.364,1.732-1.107,5.269-1.107,5.269c-0.036,0.181-0.06,0.362-0.071,0.543l-0.031,0.53
		c-0.003,0.072-0.005,0.143-0.005,0.212c0,1.947,0.829,3.67,2.332,4.851c1.272,0.992,2.804,1.517,4.436,1.517
		c1.417,0,2.924-0.373,4.485-1.106c1.116,0.721,2.444,1.106,3.878,1.106c0.721,0,1.456-0.099,2.208-0.283
		c0.762,1.94,1.978,3.646,3.624,5.047c2.708,2.318,6.164,3.498,10.262,3.498c2.988,0,5.91-0.622,8.678-1.847
		c2.796-1.246,5.202-2.991,7.159-5.193c1.057-1.17,1.97-2.434,2.692-3.727c0.329-0.582,0.701-1.34,1.119-2.282
		c2.072,2.653,5.747,4.243,10.394,4.243c4.482,0,8.188-1.385,10.833-4.014c1.165-0.187,2.425-0.549,3.604-1.099
		c1.064,2.995,4.105,5.111,7.799,5.111c2.557,0,4.945-0.716,7.012-2.024c0.076,0.157,0.166,0.309,0.271,0.456
		c0.685,0.982,1.81,1.568,3.01,1.568h7.425c1.39,0,2.64-0.787,3.262-2c1.49,1.475,3.634,2.391,6.06,2.391
		c2.679,0,5.345-0.979,7.621-2.638c2.101,1.434,4.927,2.247,8.249,2.247c4.486,0,8.195-1.384,10.84-4.017
		c3.049-0.484,6.76-2.176,7.928-5.281c0.158-0.422,0.236-0.86,0.236-1.291C169.084,142.804,168.55,141.697,167.59,140.99z"/>
	<path fill="#ED1C24" d="M142.008,143.086c-0.677,1.937-2.479,4.136-3.858,4.136c-0.484,0-0.686-0.238-0.686-0.646
		c0-1.051,2.062-3.594,2.062-6.477c0-2.234-1.69-3.252-4.131-3.252c-0.039,0-0.074,0-0.109,0c-0.264-0.031-0.516-0.053-0.771-0.053
		c-2.75,0-4.572,1.561-6.406,2.883c-0.51-1.629-2.334-2.883-4.478-2.883c-4.334,0-8.146,4.318-9.351,7.529l1.859,0.641
		c1.026-2.296,2.006-4.068,3.728-4.064c0.407,0,0.778,0.302,0.778,0.772c0,0.445-0.271,1.224-0.271,1.224l-2.912,7.967h7.425
		l1.865-5.156c0.771-2.27,2.443-4.807,3.825-4.807c0.58,0,0.892,0.271,0.892,0.772c0,0.37-0.134,0.629-0.236,0.955
		c-0.721,1.452-1.566,3.214-1.566,4.828c0,2.377,2.229,3.799,4.542,3.799c4.272,0,8.24-3.528,9.663-7.533L142.008,143.086z"/>
	<path fill="#ED1C24" d="M153.341,138.188c-2.607,0-4.92,5.795-4.92,8.64c0,1.632,0.684,2.172,1.996,2.172
		c1.564,0,2.409-1.426,3.087-2.612c-0.839-0.638-1.29-1.354-1.29-2.402c0-1.803,1.29-2.92,2.715-3.532
		C155.129,139.201,154.457,138.188,153.341,138.188L153.341,138.188z M159.142,147.003c-2.007,2.607-5.158,3.859-9.062,3.859
		c-4.909,0-8.575-2.168-8.575-6.137c0-5.354,5.325-8.273,10.985-8.273c5.423,0,8.03,2.479,8.03,6.476
		c0,0.714-0.062,1.089-0.168,1.798c1.125,0,2.951-0.945,3.396-2.002l1.661,1.225C164.76,145.678,161.547,147.003,159.142,147.003
		L159.142,147.003z"/>
	<path fill="#ED1C24" d="M88.199,138.188c-2.619,0-4.932,5.795-4.932,8.64c0,1.632,0.682,2.172,2.007,2.172
		c1.564,0,2.404-1.426,3.087-2.612c-0.851-0.638-1.294-1.354-1.294-2.402c0-1.803,1.294-2.92,2.719-3.532
		C89.991,139.201,89.309,138.188,88.199,138.188L88.199,138.188z M93.994,147.003c-2.006,2.607-5.16,3.859-9.056,3.859
		c-4.919,0-8.577-2.168-8.577-6.137c0-5.354,5.318-8.273,10.981-8.273c5.425,0,8.037,2.479,8.037,6.476
		c0,0.714-0.061,1.089-0.172,1.798c1.121,0,2.953-0.945,3.392-2.002l1.66,1.225C99.616,145.678,96.398,147.003,93.994,147.003
		L93.994,147.003z"/>
	<path fill="#ED1C24" d="M97.289,145.094c0.612-0.821,1.137-1.79,1.575-2.94c1.16-3.023,2.107-6.135,2.402-8.684h1.945
		c-0.105,0.779-0.204,1.497-0.204,2.203c0,0.779,0.708,1.018,1.763,1.018c1.426,0,2.195-0.237,3.592-0.237
		c2.429,0,4.136,1.021,4.136,3.263c0,2.877-2.073,5.418-2.073,6.473c0,0.404,0.204,0.641,0.684,0.641
		c1.173,0,2.639-1.572,3.474-3.229c0.153-0.295,0.423-0.601,0.53-0.9l1.722,0.636c-1.459,4.106-4.769,7.528-9.659,7.528
		c-2.301,0-4.546-1.426-4.546-3.799c0-2.812,2.581-6.071,2.581-7.35c0-0.682-0.438-1.023-1.492-1.023h-1.461
		c-0.27,1.023-0.91,2.746-1.421,3.996c-0.215,0.553-0.454,1.07-0.708,1.56L97.289,145.094L97.289,145.094z"/>
	<g>
		<path fill="#ED1C24" d="M93.613,126.324c0,1.784-0.851,3.174-2.572,4.163c-1.426,0.826-3.113,1.24-5.058,1.24
			c-1.325,0-2.806-0.143-4.461-0.433s-3.085-0.683-4.314-1.161c-0.524,0.896-0.967,1.727-1.313,2.498
			c-0.347,0.78-0.652,1.633-0.912,2.561c0.488,0.123,1.033,0.191,1.629,0.191c0.832,0,1.391-0.361,1.686-1.083l0.205-0.893
			c0.162-0.455,0.392-0.692,0.687-0.692c0.734,0,1.326,0.492,1.792,1.485c0.357,0.789,0.541,1.612,0.541,2.465
			c0,1.353-0.433,2.526-1.29,3.535c-0.859,0.999-1.945,1.504-3.268,1.504c-0.603,0-1.102-0.056-1.514-0.174
			c-0.413-0.112-1.051-0.358-1.91-0.718c-0.592,2.185-1.171,4.362-1.737,6.551c-0.626,1.521-1.156,2.67-1.584,3.421
			c-0.591,1.059-1.34,2.09-2.231,3.078c-1.619,1.819-3.585,3.245-5.898,4.272c-2.312,1.022-4.71,1.53-7.193,1.53
			c-3.202,0-5.836-0.867-7.884-2.622c-2.179-1.852-3.269-4.333-3.269-7.436c0-3.379,1.37-6.153,4.105-8.334
			c2.572-2.047,5.578-3.075,9.006-3.075c0.763,0,1.403,0.075,1.934,0.226c0.53,0.152,0.794,0.508,0.794,1.069
			c0,0.233-0.122,0.497-0.366,0.802c-0.246,0.296-0.438,0.544-0.585,0.75c-0.144,0.194-0.27,0.428-0.366,0.692
			c-0.099,0.266-0.145,0.583-0.145,0.946c0,0.771,0.322,1.394,0.964,1.871c0.651,0.482,1.371,0.723,2.16,0.723
			c1.753,0,3.218-0.633,4.411-1.899c0.926-0.963,1.772-2.407,2.531-4.34c-0.336-0.106-0.622-0.157-0.856-0.157
			c-0.402,0-1.024,0.284-1.859,0.85c-0.435,0.301-0.764,0.443-1.002,0.443c-0.301,0-0.516-0.111-0.653-0.344
			c-0.133-0.237-0.198-0.499-0.198-0.8c0-1.3,0.508-2.446,1.548-3.443c1.039-1.005,2.205-1.498,3.504-1.498l1.406,0.124
			c0.131-0.292,0.34-0.796,0.626-1.495c0.286-0.692,0.5-1.206,0.646-1.542c0.152-0.332,0.356-0.714,0.6-1.146
			c0.257-0.437,0.541-0.927,0.877-1.498c-1.355-0.47-2.435-0.788-3.224-0.957c-0.789-0.181-1.523-0.263-2.18-0.263
			c-0.831,0-1.635,0.195-2.41,0.58c-0.786,0.396-1.171,0.975-1.171,1.756c0,0.301,0.111,0.601,0.326,0.883
			c0.204,0.287,0.464,0.436,0.76,0.436h0.834c0.362,0.068,0.534,0.312,0.534,0.738c0,0.296-0.162,0.678-0.493,1.131
			c-0.128,0.202-0.281,0.391-0.443,0.571c-0.169,0.177-0.383,0.39-0.649,0.641c-0.259,0.244-0.61,0.515-1.038,0.812
			c-0.296,0.197-0.697,0.455-1.192,0.789c-1.391,0.785-2.94,1.182-4.66,1.182c-2.079,0-3.78-0.655-5.104-1.98
			c-1.323-1.324-1.98-3.045-1.98-5.164c0-2.645,1.154-4.875,3.467-6.698c2.15-1.679,4.601-2.525,7.335-2.525
			c2.313,0,4.666,0.457,7.039,1.379c2.349,1.06,4.691,2.095,7.038,3.113c1.289-1.294,2.762-2.313,4.413-3.065
			c1.655-0.75,3.371-1.121,5.158-1.121c2.083,0,3.898,0.396,5.451,1.188C92.624,122.983,93.613,124.438,93.613,126.324z
			 M85.086,126.226c0-0.318-0.199-0.578-0.595-0.771c-0.397-0.127-0.698-0.195-0.897-0.195c-0.631,0-1.251,0.149-1.89,0.444
			c-0.432,0.198-0.982,0.565-1.644,1.096c1.028,0.392,2.037,0.589,3.035,0.589c0.535,0,0.999-0.078,1.396-0.238
			C84.887,126.987,85.086,126.681,85.086,126.226z"/>
	</g>
	<g>
		<path fill="#ED1C24" d="M35.921,148.017c0,0.885-0.712,1.701-2.128,2.422c-1.244,0.649-2.364,0.969-3.353,0.969
			c-0.826,0-1.543-0.243-2.169-0.731c-0.617-0.483-0.928-1.142-0.928-1.961l0.031-0.528l1.395-6.652v-0.135
			c0-0.506-0.259-0.895-0.778-1.156c0.534-0.539,1.21-1.002,2.041-1.383c0.835-0.389,1.621-0.581,2.35-0.581
			c0.554,0,1.012,0.149,1.378,0.446c0.362,0.299,0.545,0.73,0.545,1.281c0,0.27-0.092,0.814-0.264,1.635
			c-0.016,0.157-0.133,0.656-0.342,1.496c-0.208,0.848-0.355,1.479-0.443,1.901c-0.173,0.844-0.266,1.399-0.266,1.662
			c0,0.338,0.087,0.614,0.25,0.832c0.169,0.225,0.408,0.335,0.713,0.335c0.159,0,0.387-0.068,0.703-0.205
			c0.31-0.146,0.552-0.212,0.735-0.212c0.131,0,0.254,0.055,0.361,0.163C35.866,147.728,35.921,147.862,35.921,148.017z
			 M35.564,134.158c0,0.858-0.378,1.571-1.131,2.147c-0.754,0.575-1.583,0.865-2.495,0.865c-0.668,0-1.243-0.188-1.733-0.562
			c-0.488-0.373-0.733-0.898-0.733-1.562c0-0.86,0.383-1.578,1.13-2.151c0.765-0.578,1.59-0.867,2.501-0.867
			c0.643,0,1.218,0.205,1.711,0.6C35.315,133.026,35.564,133.536,35.564,134.158z"/>
		<path fill="#ED1C24" d="M44.503,131.979v0.468L41.4,146.505l-0.036,0.434c0,0.264,0.086,0.489,0.26,0.66
			c0.179,0.178,0.413,0.271,0.703,0.271c0.197,0,0.444-0.06,0.733-0.193c0.287-0.114,0.51-0.187,0.663-0.187
			c0.179,0,0.322,0.072,0.433,0.197c0.106,0.133,0.164,0.281,0.164,0.434c0,0.82-0.718,1.6-2.164,2.32
			c-1.259,0.648-2.375,0.968-3.353,0.968c-0.865,0-1.607-0.248-2.209-0.748c-0.612-0.498-0.917-1.164-0.917-2.011l0.03-0.463
			l3.126-14.513l0.037-0.331c0-0.244-0.037-0.466-0.118-0.644c-0.086-0.195-0.294-0.336-0.642-0.419
			c0.49-0.557,1.151-1.03,1.977-1.417c0.834-0.39,1.62-0.587,2.353-0.587c0.529,0,1.009,0.158,1.437,0.468
			C44.294,131.062,44.503,131.468,44.503,131.979z"/>
	</g>
</g>
</svg>
