<?xml version="1.0" encoding="utf-8"?>
<!-- Generator: Adobe Illustrator 16.0.0, SVG Export Plug-In . SVG Version: 6.00 Build 0)  -->
<!DOCTYPE svg PUBLIC "-//W3C//DTD SVG 1.1//EN" "http://www.w3.org/Graphics/SVG/1.1/DTD/svg11.dtd">
<svg version="1.1" id="Layer_1" xmlns="http://www.w3.org/2000/svg" xmlns:xlink="http://www.w3.org/1999/xlink" x="0px" y="0px"
	 width="175.748px" height="53.595px" viewBox="8.504 69.582 175.748 53.595" enable-background="new 8.504 69.582 175.748 53.595"
	 xml:space="preserve">
<g>
	<path fill="#68828D" d="M176.462,112.321l0.52,0.156c-0.104,0.519-0.312,0.935-0.623,1.193c-0.312,0.312-0.676,0.415-1.09,0.415
		c-0.469,0-0.832-0.104-1.144-0.312c-0.26-0.209-0.468-0.521-0.623-0.936c-0.155-0.363-0.26-0.831-0.26-1.299
		c0-0.467,0.104-0.936,0.26-1.298c0.207-0.363,0.415-0.675,0.728-0.831c0.312-0.208,0.676-0.312,1.039-0.312
		c0.414,0,0.778,0.104,1.039,0.363c0.312,0.26,0.519,0.623,0.623,1.039l-0.572,0.155c-0.104-0.363-0.207-0.623-0.416-0.778
		c-0.154-0.156-0.414-0.208-0.674-0.208c-0.363,0-0.623,0.052-0.832,0.261c-0.207,0.154-0.362,0.414-0.467,0.674
		c-0.104,0.312-0.104,0.623-0.104,0.936c0,0.416,0.052,0.779,0.155,1.091c0.104,0.312,0.261,0.521,0.467,0.677
		c0.209,0.154,0.469,0.258,0.729,0.258c0.312,0,0.571-0.104,0.778-0.312C176.202,113.049,176.358,112.737,176.462,112.321
		L176.462,112.321z"/>
	<polygon fill="#68828D" points="177.761,114.035 177.761,113.36 178.331,113.36 178.331,114.035 	"/>
	<path fill="#68828D" d="M182.33,112.321l0.571,0.156c-0.104,0.519-0.312,0.935-0.623,1.193c-0.312,0.312-0.676,0.415-1.144,0.415
		c-0.467,0-0.831-0.104-1.091-0.312c-0.312-0.209-0.52-0.521-0.675-0.936c-0.155-0.363-0.208-0.831-0.208-1.299
		c0-0.467,0.104-0.936,0.26-1.298c0.156-0.363,0.416-0.675,0.729-0.831c0.312-0.208,0.623-0.312,0.985-0.312
		c0.468,0,0.779,0.104,1.091,0.363c0.26,0.26,0.469,0.623,0.571,1.039l-0.521,0.155c-0.104-0.363-0.26-0.623-0.414-0.778
		c-0.209-0.156-0.416-0.208-0.729-0.208s-0.57,0.052-0.83,0.261c-0.207,0.154-0.363,0.414-0.416,0.674
		c-0.104,0.312-0.156,0.623-0.156,0.936c0,0.416,0.054,0.779,0.156,1.091c0.104,0.312,0.26,0.521,0.521,0.677
		c0.207,0.154,0.415,0.258,0.675,0.258c0.312,0,0.57-0.104,0.831-0.312C182.123,113.049,182.278,112.737,182.33,112.321
		L182.33,112.321z"/>
	<polygon fill="#68828D" points="183.681,114.035 183.681,113.36 184.252,113.36 184.252,114.035 	"/>
	<path fill="#68828D" d="M165.088,70.463c0.624,0.104,1.247,0.208,1.922,0.312c0.571,0.104,1.351,0.26,1.974,0.468
		c0.832,0.363,1.817,0.882,2.598,1.402c0.936,0.623,1.662,1.143,2.545,1.818l0.675,0.519c0.208,0.156,0.416,0.312,0.623,0.468
		c0.261,0.155,0.468,0.363,0.624,0.571c0.155,0.208,0.312,0.468,0.415,0.728c0.104,0.259,0.208,0.571,0.261,0.831l0.727,2.753
		c0.104,0.363,0.676,0.208,0.57-0.156l-0.727-2.7c-0.26-1.091-0.623-1.818-1.506-2.493c-0.208-0.156-0.416-0.312-0.624-0.467
		l-0.675-0.52c-0.363-0.259-0.779-0.519-1.143-0.831c-1.195-0.883-2.753-1.87-4.154-2.441c-0.363-0.104-0.779-0.26-1.144-0.312
		c-0.883-0.208-1.974-0.415-2.907-0.519c-1.507-0.156-2.961-0.26-4.468-0.312c-0.362,0-0.415,0.571,0,0.571
		C162.128,70.203,163.582,70.307,165.088,70.463L165.088,70.463z M10.949,79.499c-0.415,0.832,0.364-1.506-0.883,2.337
		C8.872,85.679,8.82,97.937,8.82,98.715v0.052c0,3.896,1.558,7.479,3.999,10.127h4.777c-3.843-1.816-6.439-5.713-6.439-10.229
		V85.991c0-0.779,0.052-1.506,0.208-2.233c0.52-3.272,1.87-5.141,2.493-6.076c4.103-6.388,11.789-4.466,15.996-4.311
		c4.207,0.156,62.788,1.298,62.788,1.298h70.164c6.23,0,11.32,5.089,11.32,11.321c0,0,0,11.114,0,11.841
		c0.52,0,1.091,0.154,1.193,0.986c0.261,1.401-0.207,3.063-0.83,2.805l-0.676-0.363c-1.143,5.037-5.66,8.776-11.01,8.776h-2.961
		c-0.26,0.778-0.777,1.299-1.974,1.299c-1.246,0-1.507-0.208-1.974-1.299H106.3c0.52,2.077-0.26,2.856-2.805,2.7
		c-1.559-0.051-1.816-1.401-1.662-2.7h-33.86c-0.208,0.623-0.208,1.247-1.87,1.143c-1.091-0.104-2.078-0.622-2.805-1.143H33.073
		c0.727,1.454,0.571,2.545-1.922,2.545c-1.558,0-1.558-1.402-1.35-2.545h-5.505c0.467,0.937-0.052,2.182-1.09,2.182
		c-1.247,0-2.337,0-3.22-0.676c-0.416-0.415-0.26-1.091,0.104-1.767c-0.571-0.104-1.194-0.312-1.766-0.519v3.375
		c1.662,0.677,3.479,0.986,5.349,0.986h22.903v0.104c0,0,0.571,0,1.039,0.467c0.467,0.468,0.571,0.571,1.402,0.416
		c0.883-0.155,0.883-0.155,0.987-0.832v-0.155h37.963c0.26-0.83,0.883-1.921,1.87-1.921c1.35,0,1.298,0.883,1.609,1.921h14.802
		c0.104,0.104,0.467,0.468,0.675,0.52c0.208,0.054,0.415,0.208,0.208,0.364c-0.208,0.207-0.208-0.052-0.416,0.571
		c-0.155,0.622-0.208,1.245,0.364,1.245l32.042-2.7h7.479c0.104-0.728,0.467-1.869,1.558-1.767c1.506,0.209,1.868,0.676,1.922,1.767
		h12.412c-0.208,0.778-0.261,1.714,0.467,1.714c1.194,0,1.662,0.312,2.024-0.207l0.156-0.936c0,0-0.416-0.312,0.623-0.363
		c1.038-0.053,1.817,0.312,2.182-0.363l0.207-0.777c0.363-0.156,0.677-0.262,0.988-0.416c-0.104-0.209-0.209-0.469,0-0.729
		c0.467-0.415,0.312-0.415,1.142-0.259l0.778-0.104c0.26-0.154,0.521-0.363,0.779-0.52c-0.052-0.104-0.156-0.208-0.26-0.312
		c-0.623-0.52-0.779-0.83-0.312-1.662c0.469-0.83,0.363-0.83,1.559-0.883l1.609,0.26c0.779-0.935,1.455-1.973,1.922-3.062
		l0.779-0.156c0.415-0.154-0.261-0.312-0.52-0.363c0.727-1.766,1.143-3.688,1.143-5.713V93.26c0.104-0.104,0.363-0.208,0.727-0.208
		c0.832,0,0.832-0.364,0.416-0.52c-0.467-0.156-0.416-0.156-0.416-0.571c0-0.467-0.362-0.208-0.727-0.519v-5.246
		c0-3.428-1.143-6.543-3.064-9.088h-2.647V74.46c-2.493-1.974-5.713-3.168-9.192-3.168h-12.567
		c-0.468,0.571-0.985,1.039-2.129,1.039c-0.884,0-1.558-0.467-2.025-1.039h-37.185c0.312,1.09-0.155,2.648-1.559,2.648
		c-0.884,0-0.779-1.402-0.52-2.648H73.062c-0.571,0.779-1.194,1.61-3.635,1.61c-1.662,0-3.22-0.883-4.207-1.61
		c0,0-31.523,0.883-34.484,0.883c-2.96,0-12.308-0.416-15.892,2.648l-2.336,1.974v2.7h-1.559V79.499z M108.845,113.619h7.895
		l-8.725,1.144c0,0-0.623-0.52-0.054-0.52c0.571,0,1.401,0.312,1.299-0.104L108.845,113.619L108.845,113.619z M11.729,75.812
		c1.039-1.558,2.285-2.96,3.791-4.103c0.26-0.208-0.052-0.675-0.363-0.467c-2.545,1.973-4.466,4.57-5.557,7.53
		c-0.467,1.298-0.831,2.597-0.987,3.947c-0.104,0.831-0.156,1.87-0.052,2.752c0,0.364,0.571,0.312,0.571-0.052
		c-0.052-0.52-0.052-1.091,0-1.662C9.288,80.954,10.223,78.149,11.729,75.812L11.729,75.812z M44.811,109.621l24.305-0.156
		c0.363,0,0.363-0.623,0-0.571l-24.305,0.156C44.447,109.05,44.447,109.621,44.811,109.621L44.811,109.621z M28.14,115.333
		l5.609,0.416c0.415,0,0.415-0.571,0.052-0.571l-5.609-0.415C27.828,114.763,27.776,115.333,28.14,115.333L28.14,115.333z
		 M175.319,88.12c-0.832,1.351-0.571,2.701-0.416,3.532c0.156,0.831,0.832,2.025,1.351,1.194c0.521-0.831,0.987-1.817,0.677-3.168
		C176.618,88.328,176.149,86.718,175.319,88.12L175.319,88.12z M174.903,84.485c0,0-0.104,1.143,0.52,1.402
		c0.624,0.312,1.143,0.416,1.508-0.26c0.362-0.727,0.674-1.143-0.156-1.143L174.903,84.485L174.903,84.485z M175.423,83.446
		c0.364-0.26,0.469-0.416,0.936-0.416c0.468,0,0.623,0.52,0.676,0.727c0,0.26,0.363,0.416,0.26,0.156
		c-0.052-0.26,0-0.779-0.363-1.09c-0.363-0.26-0.623-0.521-1.091-0.312c-0.416,0.208-0.676,0.312-0.831,0.521
		C174.903,83.238,175.11,83.706,175.423,83.446L175.423,83.446z"/>
	<path fill="#68828D" d="M20.921,81.161c0.208-0.416,0.623-0.416,0.935-0.519c0.312-0.104,0-0.52-0.363-0.624
		c-0.364-0.156-0.156-0.363-0.26-0.727c-0.156-0.312-0.727-0.208-1.091,0c-0.259,0.156-0.467,0.364-0.623,0.467h-3.428v21.085
		c0.675,0.208,1.402,0.623,1.402,1.402c-0.052,1.246-0.727,1.766-1.402,1.818v1.869h4.83V81.161L20.921,81.161z M19.155,80.797
		c0.363-0.052,1.09-0.467,1.142-0.155c0,0.312-0.052,0.519,0.156,0.623c0.156,0.104,0.26,0.467-0.052,0.519
		c-0.26,0.052-0.675-0.208-0.883,0.052c-0.156,0.208-0.416,0.104-0.467,0c-0.052-0.156-0.104-0.26-0.312-0.26
		c-0.208,0-0.364-0.208-0.156-0.416C18.792,81.005,18.74,80.85,19.155,80.797L19.155,80.797z M29.282,79.759h-4.778v26.176h4.778
		v-6.389c0.312-0.104,0.727-0.104,1.09-0.156c0.571-0.052,0.104-0.777-0.052-1.037c-0.208-0.312,0-0.832-0.467-0.779
		c-0.26,0.052-0.416,0.208-0.52,0.312l-0.052,0.104c-0.416,0.728-0.727,0.363-1.091,0.104c-0.363-0.208-0.571-1.714-0.208-2.441
		c0.26-0.52,0.883-1.195,1.299-1.61v-7.115l2.077,5.869l1.558-7.427l-2.025-5.609L29.282,79.759L29.282,79.759z M40.5,79.759h-4.414
		l-3.947,15.996l1.818,7.167L40.5,79.759L40.5,79.759z M50.627,79.759h-2.233v26.176h4.778V92.327
		c0.156,0.104,0.364,0.156,0.416,0.312c0.156,0.312,0.571,0.416,0.831,0.208c0.208-0.208,0.416-0.312,0.363,0.104v3.999
		c0,0,2.545,0,3.376-0.364c0.779-0.312,0.779-0.571,0.467-0.934c-0.312-0.364-0.416-0.935,0-1.299
		c0.467-0.363,0.779-0.623,1.298-0.623c0.52,0,0.779,0.52,1.091,0.052c0.312-0.52,0.935-3.532,0.883-5.505
		c-0.052-1.974-0.779-6.024-3.843-7.479c-0.883-0.467-1.766-0.779-3.376-0.727v4.519c0,0,1.559,0.779,1.61,2.181
		c0.051,1.402,0.156,3.999-0.312,4.414c-0.52,0.416-0.779,0.468-0.987,0.208c-0.208-0.26-0.416-0.312-0.675-0.156
		c-0.259,0.156-0.779,0.416-1.143,0.675V79.759c0,0,0.104-0.727-0.467-0.727c-0.623,0-1.039,0.208-1.194-0.156
		c-0.156-0.312-0.312,0.104-0.52,0.468C50.938,79.447,50.783,79.604,50.627,79.759L50.627,79.759z M43.2,99.546
		c-0.208-0.729-0.363-0.936-0.727-0.986c-0.363-0.053-0.571-0.468-0.675-1.091c-0.104-0.624,0.624-0.884,1.039-0.884
		c0.156,0,0.26-0.052,0.363-0.207V79.759h-1.298L38.37,92.431v13.503h4.83V99.546L43.2,99.546z M71.348,79.915v4.31
		c0,0-0.779,0.727-0.883,2.649c-0.104,1.973-0.104,3.583-0.104,4.155c0,0.571-0.935,0.571-0.935,1.246
		c0,0.623,0.104,0.987,0.467,1.039c0.416,0.052,0.364,0.312,0.26,0.779v3.531c0,0,0.883,0.052,0.987,0.416
		c0.104,0.415,0.052,0.52,0.312,0.675c0.26,0.156,0.416,0.415-0.156,0.468l-0.883,0.104c0,0-0.052,0.467,0.052,0.985
		c0.104,0.469,0.156,0.677,0.467,1.144c0.312,0.521,0.364,0.831,0.364,1.767v3.012c0,0-0.208,0.416-0.831,0.156
		c-0.675-0.312-5.245-0.468-5.505-7.531c-0.26-7.114-0.26-14.384,2.597-17.033C68.232,81.161,69.219,80.019,71.348,79.915
		L71.348,79.915z M73.114,79.863v4.57c0,0,0.727,0.571,0.831,2.285c0.104,1.714,0.052,9.245,0,10.491
		c-0.052,1.246-0.208,3.323-0.779,3.843c-0.52,0.571-0.416,1.402-0.416,2.44c0,0.987-0.052,2.286,0,2.7
		c0.052,0.468,2.389-0.312,2.96-0.674c0.571-0.365,3.687-1.871,3.687-9.973c0-8.102-0.467-9.296-0.883-9.711
		c-0.467-0.468-0.467-1.195-0.519-1.766c-0.052-0.623-0.364-1.558-1.195-2.493c-0.883-0.935-1.61-1.506-2.544-1.61L73.114,79.863
		L73.114,79.863z M85.059,79.759c-0.104,0.883-0.727,1.351-1.143,1.559V97.21c0.104,0.053,0.26,0.053,0.416,0.053
		c0.675-0.104,1.194,0.362,1.194,0.935c0,0.622-0.259,1.558-1.039,1.401c-0.26-0.052-0.416-0.052-0.571-0.052v1.039
		c0.104,0.052,0.156,0.155,0.156,0.259c0,0.208,0,0.312-0.156,0.364v4.726h4.83V79.759H85.059L85.059,79.759z M90.408,79.863
		l0.052,4.466c0,0,1.818,0.571,1.973,2.233c0.208,1.662,0.312,4.674-1.039,4.882c-1.35,0.208-1.143,0.623-1.09,1.142
		c0.052,0.52-0.052,2.597,0,3.116c0.052,0.52,0.208,0.779,0.623,1.142c0.467,0.312,0.883,1.56,0.935,3.116
		c0.052,1.559,0.156,4.622,0.208,5.35v0.416c0,0,4.363-0.053,4.986,0c0.676,0.053,0.416-0.623,0.209-0.884
		c-0.156-0.312-0.417-1.194-0.417-2.337s0.051-5.245-0.571-6.18c-0.675-0.883-1.246-1.714-2.181-1.922
		c-0.883-0.208,0-0.623,0.416-0.727c0.363-0.104,1.87-1.091,2.233-1.818c0.363-0.675,0.936-2.908,0.83-4.726
		c-0.104-1.87-0.57-4.674-1.609-5.609c-1.091-0.935-2.181-1.506-3.687-1.558L90.408,79.863L90.408,79.863z M109.935,90.873
		c-0.154-0.052-0.259,0.208-0.467,0.416c-0.26,0.312-0.312,0.156-0.312,0.675c0,0.467-0.468,0.467-0.779,0.416
		c-0.26-0.052-0.623-0.623-0.935-0.883c-0.312-0.26-0.26-0.416,0.052-0.467c0.312-0.052,0.208-0.364,0.521-0.364
		c0.312,0,0.362-0.416,0.312-0.831c-0.052-0.415,0.155-1.09,0.935-1.194c0.312,0,0.571,0.052,0.676,0.104v-3.792h4.569V79.76h-1.298
		c-0.26,0.624-0.468,1.247-1.922,1.298c-0.986,0-1.715-0.727-2.077-1.298h-8.31v5.193h3.998v20.981h5.037V90.873L109.935,90.873z
		 M117.726,80.227l-4.259,25.499h4.622l0.623-3.998c0,0-0.104-0.363,0.363-0.468l2.025-0.362c0,0,0.52-0.054,0.312-0.729
		l-0.363-1.766c0,0,0.208-0.571-0.571-0.469c-0.83,0.104-1.453,0.209-1.297-0.675c0.154-0.935,0.414-4.57,0.467-5.038
		c0.052-0.52,0-0.987-0.104-1.766L117.726,80.227L117.726,80.227z M118.972,80.07h4.312l4.934,25.76h-4.519L118.972,80.07
		L118.972,80.07z M143.536,100.638l-0.729-0.209c-0.363-0.156-0.52-0.052-0.83,0.156c-0.26,0.207-0.623,0.053-0.83-0.261
		c-0.209-0.312-0.312-0.261-0.469,0c-0.207,0.261-0.363,0.104-0.727,0.104c-0.364,0-0.416,0.312-0.779,0.415
		c-0.416,0.104-0.468-0.312-0.729-0.623c-0.26-0.311-0.154-0.57-0.414-0.208c-0.26,0.312-0.364,0.156-0.364,0.156v-5.765
		c-0.259,0.104-0.675,0.156-1.246,0c-0.985-0.26-1.401-0.52-1.608-1.143c-0.209-0.571,0.154-1.143,0.414-0.675
		s0.363,0.156,1.144,0.156c0.728,0,1.246-0.104,0.831-0.364c-0.363-0.26-0.676-0.831-0.208-0.883l0.675-0.104V79.967h-4.881v25.707
		h4.466h0.363c0.155,0.312,0.468,0.675,0.831,0.675c0.675,0,0.312-0.363,0.883-0.414l1.299-0.261h2.908V100.638L143.536,100.638z
		 M162.438,80.07c0,0.208,0.054,0.208,0.312,0.468c0.311,0.259-0.312,0.259-0.779,0.208c-0.207-0.052-0.468,0-0.623,0l4.312,23.578
		c-0.104,0.104-0.261,0.155-0.364,0.208c-0.415,0.052-0.57,0.415-0.777,0.52c-0.209,0.104-0.156,0.363,0.051,0.831
		c0.207,0.521,0.623,0.675,1.144,0.521c0.571-0.156,0.935-0.104,1.454-0.521v-0.052h3.271l-0.986-5.143
		c0.052-0.051,0.104-0.155,0.207-0.207c0.26-0.156,0.416-0.312,0.104-0.779c-0.312-0.363-0.312-0.936-0.728-1.09l-3.531-18.542
		L162.438,80.07L162.438,80.07z M156.935,98.353c0.469,0.154,0.987,0.467,0.936,1.037c-0.053,0.779,0.053,0.936-0.623,0.936
		l-0.623-0.155l-0.936,5.558h4.674l0.572-4c0,0-0.104-0.362,0.362-0.467l2.078-0.363c0,0,0.467-0.053,0.26-0.728l-0.312-1.767
		c0,0,0.207-0.57-0.623-0.467c-0.778,0.104-1.454,0.207-1.299-0.676c0.207-0.935,0.468-4.57,0.521-5.038
		c0.052-0.52,0-0.987-0.104-1.766l-1.816-10.231L156.935,98.353L156.935,98.353z"/>
	<polygon fill="#ED1C24" points="10.794,123.071 11.833,118.242 15.416,118.242 15.26,119.072 12.663,119.072 12.403,120.163 
		14.948,120.163 14.741,120.942 12.248,120.942 11.936,122.293 14.792,122.293 14.585,123.071 	"/>
	<path fill="#ED1C24" d="M15.468,121.515l0.935-0.053c0.052,0.312,0.104,0.52,0.155,0.623c0.156,0.155,0.416,0.26,0.832,0.26
		c0.312,0,0.571-0.052,0.727-0.207c0.104-0.104,0.208-0.261,0.208-0.416c0-0.104-0.052-0.26-0.208-0.363
		c-0.052-0.053-0.312-0.155-0.675-0.312c-0.364-0.207-0.624-0.312-0.831-0.415c-0.156-0.104-0.312-0.26-0.416-0.416
		c-0.104-0.207-0.156-0.415-0.156-0.623c0-0.415,0.156-0.778,0.467-1.038c0.312-0.26,0.727-0.363,1.298-0.363
		c0.571,0,0.987,0.104,1.298,0.363c0.312,0.26,0.467,0.623,0.52,1.092l-0.935,0.052c-0.052-0.261-0.104-0.416-0.259-0.571
		c-0.156-0.104-0.364-0.156-0.624-0.156c-0.312,0-0.52,0.053-0.623,0.156c-0.104,0.052-0.156,0.207-0.156,0.363
		c0,0.104,0.052,0.208,0.156,0.312c0.104,0.104,0.363,0.208,0.727,0.363c0.52,0.26,0.883,0.468,1.039,0.623
		c0.26,0.208,0.363,0.468,0.363,0.831c0,0.416-0.155,0.779-0.519,1.091c-0.312,0.312-0.831,0.468-1.402,0.468
		c-0.416,0-0.779-0.052-1.091-0.208c-0.312-0.155-0.52-0.362-0.623-0.571C15.52,122.138,15.468,121.825,15.468,121.515
		L15.468,121.515z"/>
	<path fill="#ED1C24" d="M20.817,123.071H19.83l1.039-4.829h1.973c0.312,0,0.623,0.052,0.831,0.104
		c0.156,0.104,0.363,0.26,0.467,0.414c0.104,0.208,0.156,0.416,0.156,0.676c0,0.261-0.052,0.521-0.104,0.728
		c-0.104,0.26-0.259,0.416-0.363,0.571c-0.156,0.156-0.312,0.26-0.467,0.312c-0.156,0.054-0.364,0.104-0.624,0.156
		c-0.155,0.052-0.467,0.052-0.883,0.052h-0.623L20.817,123.071L20.817,123.071z M21.388,120.423H21.7c0.52,0,0.883,0,1.039-0.104
		c0.208-0.053,0.312-0.156,0.416-0.312s0.156-0.312,0.156-0.468c0-0.104,0-0.208-0.052-0.261c-0.052-0.104-0.156-0.154-0.26-0.207
		c-0.052,0-0.26-0.053-0.623-0.053H21.7L21.388,120.423L21.388,120.423z"/>
	<path fill="#ED1C24" d="M25.387,123.071h-1.039l1.039-4.829h2.129c0.363,0,0.675,0.052,0.883,0.104
		c0.208,0.104,0.363,0.207,0.519,0.414c0.104,0.208,0.156,0.469,0.156,0.779c0,0.363-0.104,0.729-0.363,0.986
		c-0.26,0.26-0.623,0.416-1.091,0.52c0.104,0.104,0.208,0.26,0.312,0.416c0.26,0.415,0.468,0.936,0.779,1.609H27.62
		c-0.104-0.26-0.26-0.676-0.519-1.246c-0.104-0.312-0.26-0.52-0.416-0.623c-0.104-0.104-0.26-0.104-0.468-0.104h-0.415
		L25.387,123.071L25.387,123.071z M25.958,120.371h0.52c0.52,0,0.883-0.052,1.039-0.104c0.208-0.053,0.312-0.156,0.415-0.312
		c0.104-0.156,0.156-0.261,0.156-0.416c0-0.208-0.052-0.312-0.208-0.415c-0.104-0.053-0.26-0.053-0.571-0.053h-1.091L25.958,120.371
		L25.958,120.371z"/>
	<polygon fill="#ED1C24" points="29.23,123.071 30.269,118.242 33.852,118.242 33.697,119.072 31.1,119.072 30.84,120.163 
		33.333,120.163 33.177,120.942 30.684,120.942 30.373,122.293 33.177,122.293 33.021,123.071 	"/>
	<path fill="#ED1C24" d="M33.904,121.515l0.935-0.053c0,0.312,0.052,0.52,0.156,0.623c0.156,0.155,0.416,0.26,0.831,0.26
		c0.312,0,0.571-0.052,0.675-0.207c0.156-0.104,0.26-0.261,0.26-0.416c0-0.104-0.104-0.26-0.208-0.363
		c-0.104-0.053-0.312-0.155-0.675-0.312c-0.363-0.207-0.675-0.312-0.831-0.415c-0.156-0.104-0.312-0.26-0.416-0.416
		c-0.104-0.207-0.156-0.415-0.156-0.623c0-0.415,0.156-0.778,0.467-1.038c0.26-0.26,0.727-0.363,1.247-0.363
		c0.571,0,1.039,0.104,1.35,0.363c0.312,0.26,0.467,0.623,0.519,1.092l-0.986,0.052c0-0.261-0.104-0.416-0.208-0.571
		c-0.156-0.104-0.363-0.156-0.675-0.156c-0.26,0-0.468,0.053-0.572,0.156c-0.104,0.052-0.155,0.207-0.155,0.363
		c0,0.104,0.052,0.208,0.155,0.312c0.104,0.104,0.312,0.208,0.675,0.363c0.571,0.26,0.935,0.468,1.091,0.623
		c0.208,0.208,0.363,0.468,0.363,0.831c0,0.416-0.208,0.779-0.519,1.091c-0.364,0.312-0.831,0.468-1.402,0.468
		c-0.416,0-0.779-0.052-1.09-0.208c-0.312-0.155-0.52-0.362-0.675-0.571C33.956,122.138,33.904,121.825,33.904,121.515
		L33.904,121.515z"/>
	<path fill="#ED1C24" d="M38.422,121.515l0.935-0.053c0,0.312,0.052,0.52,0.156,0.623c0.156,0.155,0.416,0.26,0.831,0.26
		c0.312,0,0.52-0.052,0.675-0.207c0.156-0.104,0.208-0.261,0.208-0.416c0-0.104-0.052-0.26-0.156-0.363
		c-0.104-0.053-0.312-0.155-0.675-0.312c-0.416-0.207-0.675-0.312-0.831-0.415c-0.156-0.104-0.312-0.26-0.416-0.416
		c-0.104-0.207-0.156-0.415-0.156-0.623c0-0.415,0.156-0.778,0.467-1.038c0.26-0.26,0.727-0.363,1.247-0.363
		c0.571,0,1.039,0.104,1.35,0.363c0.312,0.26,0.467,0.623,0.52,1.092l-0.987,0.052c0-0.261-0.104-0.416-0.26-0.571
		c-0.104-0.104-0.312-0.156-0.623-0.156c-0.26,0-0.467,0.053-0.571,0.156c-0.104,0.052-0.208,0.207-0.208,0.363
		c0,0.104,0.052,0.208,0.208,0.312c0.104,0.104,0.312,0.208,0.675,0.363c0.572,0.26,0.935,0.468,1.091,0.623
		c0.208,0.208,0.312,0.468,0.312,0.831c0,0.416-0.156,0.779-0.467,1.091c-0.363,0.312-0.831,0.468-1.454,0.468
		c-0.416,0-0.779-0.052-1.039-0.208c-0.312-0.155-0.52-0.362-0.675-0.571C38.474,122.138,38.422,121.825,38.422,121.515
		L38.422,121.515z"/>
	<path fill="#ED1C24" d="M43.097,121.202c0-0.312,0.052-0.623,0.104-0.936c0.104-0.416,0.312-0.778,0.52-1.091
		c0.259-0.312,0.519-0.571,0.883-0.728c0.363-0.207,0.727-0.26,1.194-0.26c0.623,0,1.091,0.155,1.454,0.52
		c0.364,0.363,0.571,0.883,0.571,1.506c0,0.52-0.156,0.987-0.363,1.455c-0.26,0.52-0.571,0.882-0.987,1.143
		c-0.416,0.26-0.883,0.363-1.402,0.363c-0.467,0-0.831-0.104-1.143-0.312c-0.312-0.207-0.519-0.467-0.623-0.778
		C43.148,121.825,43.097,121.515,43.097,121.202L43.097,121.202z M44.083,121.149c0,0.363,0.104,0.623,0.312,0.832
		c0.208,0.259,0.468,0.362,0.779,0.362c0.26,0,0.519-0.104,0.779-0.26c0.26-0.208,0.467-0.468,0.624-0.831
		c0.155-0.363,0.208-0.675,0.208-1.039c0-0.363-0.052-0.675-0.26-0.883c-0.208-0.207-0.467-0.312-0.831-0.312
		c-0.467,0-0.882,0.209-1.143,0.676C44.239,120.11,44.083,120.631,44.083,121.149L44.083,121.149z"/>
	<path fill="#ED1C24" d="M54.47,121.356l0.987,0.156c-0.208,0.521-0.467,0.936-0.883,1.246c-0.363,0.26-0.831,0.416-1.35,0.416
		c-0.624,0-1.091-0.156-1.402-0.52c-0.311-0.364-0.52-0.883-0.52-1.559c0-0.572,0.156-1.039,0.364-1.507
		c0.208-0.467,0.519-0.831,0.935-1.038c0.364-0.26,0.831-0.363,1.298-0.363c0.52,0,0.935,0.104,1.247,0.416
		c0.312,0.26,0.519,0.623,0.571,1.143l-0.935,0.052c-0.052-0.26-0.156-0.468-0.312-0.571c-0.156-0.155-0.363-0.207-0.623-0.207
		c-0.26,0-0.52,0.104-0.727,0.26c-0.26,0.156-0.467,0.416-0.623,0.779c-0.104,0.362-0.208,0.727-0.208,1.09s0.104,0.676,0.312,0.884
		c0.156,0.207,0.416,0.312,0.675,0.312c0.259,0,0.52-0.104,0.727-0.26S54.366,121.67,54.47,121.356L54.47,121.356z"/>
	<path fill="#ED1C24" d="M56.132,121.202c0-0.312,0.052-0.623,0.156-0.936c0.104-0.416,0.26-0.778,0.519-1.091
		c0.208-0.312,0.52-0.571,0.883-0.728c0.312-0.207,0.727-0.26,1.194-0.26c0.571,0,1.09,0.155,1.454,0.52
		c0.364,0.364,0.52,0.883,0.52,1.506c0,0.52-0.104,0.987-0.364,1.455c-0.208,0.52-0.571,0.882-0.987,1.143
		c-0.363,0.26-0.831,0.363-1.35,0.363c-0.467,0-0.831-0.104-1.143-0.312c-0.312-0.207-0.52-0.467-0.675-0.778
		C56.236,121.825,56.132,121.515,56.132,121.202L56.132,121.202z M57.118,121.149c0,0.363,0.104,0.623,0.312,0.832
		c0.208,0.259,0.467,0.362,0.831,0.362c0.259,0,0.519-0.104,0.779-0.26c0.208-0.208,0.416-0.468,0.571-0.831
		c0.208-0.363,0.26-0.675,0.26-1.039c0-0.363-0.104-0.675-0.312-0.883c-0.208-0.207-0.468-0.312-0.779-0.312
		c-0.467,0-0.883,0.209-1.194,0.676C57.274,120.11,57.118,120.631,57.118,121.149L57.118,121.149z"/>
	<polygon fill="#ED1C24" points="61.118,123.071 62.104,118.242 65.479,118.242 65.324,119.072 62.935,119.072 62.675,120.215 
		65.012,120.215 64.856,121.046 62.52,121.046 62.104,123.071 	"/>
	<polygon fill="#ED1C24" points="65.22,123.071 66.259,118.242 69.634,118.242 69.427,119.072 67.038,119.072 66.83,120.215 
		69.167,120.215 69.011,121.046 66.674,121.046 66.207,123.071 	"/>
	<polygon fill="#ED1C24" points="69.375,123.071 70.361,118.242 73.997,118.242 73.789,119.072 71.192,119.072 70.984,120.163 
		73.478,120.163 73.322,120.942 70.777,120.942 70.518,122.293 73.322,122.293 73.166,123.071 	"/>
	<polygon fill="#ED1C24" points="73.893,123.071 74.88,118.242 78.463,118.242 78.308,119.072 75.711,119.072 75.503,120.163 
		77.996,120.163 77.84,120.942 75.295,120.942 75.036,122.293 77.84,122.293 77.684,123.071 	"/>
	<polygon fill="#ED1C24" points="83.501,123.071 82.566,123.071 82.358,119.021 81.579,123.071 80.696,123.071 81.735,118.242 
		83.137,118.242 83.293,121.565 84.799,118.242 86.253,118.242 85.371,123.071 84.436,123.071 85.267,119.072 	"/>
	<path fill="#ED1C24" d="M89.525,122.033h-1.922l-0.571,1.038h-1.039l2.752-4.829h1.091l0.779,4.829H89.68L89.525,122.033
		L89.525,122.033z M89.421,121.202l-0.312-1.922l-1.09,1.922H89.421L89.421,121.202z"/>
	<path fill="#ED1C24" d="M94.719,121.356l1.039,0.156c-0.208,0.521-0.52,0.936-0.883,1.246c-0.415,0.26-0.883,0.416-1.402,0.416
		c-0.571,0-1.039-0.156-1.402-0.52c-0.312-0.363-0.467-0.883-0.467-1.559c0-0.572,0.104-1.039,0.312-1.507
		c0.26-0.467,0.571-0.831,0.935-1.038c0.416-0.26,0.831-0.363,1.298-0.363c0.52,0,0.935,0.104,1.299,0.416
		c0.312,0.26,0.467,0.623,0.571,1.143L95.03,119.8c-0.052-0.26-0.156-0.468-0.312-0.57c-0.156-0.156-0.312-0.209-0.572-0.209
		c-0.312,0-0.571,0.104-0.779,0.261c-0.26,0.155-0.416,0.416-0.571,0.778c-0.155,0.363-0.208,0.728-0.208,1.092
		c0,0.363,0.104,0.675,0.259,0.883c0.208,0.207,0.416,0.312,0.675,0.312c0.259,0,0.52-0.104,0.727-0.261
		C94.459,121.929,94.614,121.67,94.719,121.356L94.719,121.356z"/>
	<polygon fill="#ED1C24" points="99.444,120.942 97.574,120.942 97.106,123.071 96.121,123.071 97.159,118.242 98.146,118.242 
		97.729,120.11 99.601,120.11 100.017,118.242 101.002,118.242 100.017,123.071 98.978,123.071 	"/>
	<polygon fill="#ED1C24" points="100.95,123.071 101.989,118.242 102.976,118.242 101.938,123.071 	"/>
	<polygon fill="#ED1C24" points="106.767,123.071 105.832,123.071 104.481,119.853 103.808,123.071 102.924,123.071 
		103.911,118.242 104.847,118.242 106.144,121.462 106.819,118.242 107.754,118.242 	"/>
	<polygon fill="#ED1C24" points="107.754,123.071 108.793,118.242 112.376,118.242 112.22,119.072 109.623,119.072 109.362,120.163 
		111.856,120.163 111.7,120.942 109.208,120.942 108.896,122.293 111.7,122.293 111.545,123.071 	"/>
	<path fill="#ED1C24" d="M112.429,121.515l0.934-0.053c0,0.312,0.053,0.52,0.156,0.623c0.155,0.155,0.416,0.26,0.832,0.26
		c0.312,0,0.57-0.052,0.674-0.207c0.156-0.104,0.261-0.261,0.261-0.416c0-0.104-0.104-0.26-0.208-0.363
		c-0.104-0.053-0.312-0.155-0.676-0.312c-0.362-0.207-0.674-0.312-0.83-0.415c-0.156-0.104-0.312-0.26-0.416-0.416
		c-0.104-0.207-0.155-0.415-0.155-0.623c0-0.415,0.155-0.778,0.468-1.038c0.26-0.26,0.727-0.363,1.246-0.363
		c0.571,0,1.039,0.104,1.352,0.363c0.312,0.26,0.467,0.623,0.519,1.092l-0.985,0.052c0-0.261-0.104-0.416-0.209-0.571
		c-0.154-0.104-0.363-0.156-0.675-0.156c-0.26,0-0.468,0.053-0.571,0.156c-0.104,0.052-0.154,0.207-0.154,0.363
		c0,0.104,0.052,0.208,0.154,0.312c0.104,0.104,0.312,0.208,0.676,0.363c0.57,0.26,0.936,0.468,1.091,0.623
		c0.208,0.208,0.362,0.468,0.362,0.831c0,0.416-0.207,0.779-0.519,1.091c-0.364,0.312-0.831,0.468-1.401,0.468
		c-0.416,0-0.779-0.052-1.092-0.208c-0.312-0.155-0.52-0.362-0.675-0.571C112.479,122.138,112.429,121.825,112.429,121.515
		L112.429,121.515z"/>
	<path fill="#ED1C24" d="M152.209,79.915h-4.622v4.622h4.622V79.915L152.209,79.915z M147.587,87.393
		c0.52,0.208,1.246,0.675,1.352,1.662c0.154,1.35-0.416,1.454-1.352,1.662v14.957h2.598c-0.104-0.208-0.104-0.362,0.051-0.416
		c0.312-0.104,0.261-0.155,0.676-0.415c0.416-0.312,0.416-0.208,0.884-0.208l0.415-1.973V86.511h-4.622L147.587,87.393
		L147.587,87.393z"/>
</g>
</svg>
