<?xml version="1.0" encoding="utf-8"?>
<!-- Generator: Adobe Illustrator 16.0.0, SVG Export Plug-In . SVG Version: 6.00 Build 0)  -->
<!DOCTYPE svg PUBLIC "-//W3C//DTD SVG 1.1//EN" "http://www.w3.org/Graphics/SVG/1.1/DTD/svg11.dtd">
<svg version="1.1" id="Layer_1" xmlns="http://www.w3.org/2000/svg" xmlns:xlink="http://www.w3.org/1999/xlink" x="0px" y="0px"
	 width="179.356px" height="179.356px" viewBox="310.7 209.7 179.356 179.356" enable-background="new 310.7 209.7 179.356 179.356"
	 xml:space="preserve">
<g>
	<path fill="#1D1D1B" d="M400.378,209.7c49.395,0,89.679,40.285,89.679,89.677c0,49.395-40.284,89.68-89.679,89.68
		c-49.393,0-89.678-40.285-89.678-89.68C310.7,249.985,350.985,209.7,400.378,209.7L400.378,209.7z"/>
	<path fill="#F8E200" d="M400.378,211.816c48.228,0,87.562,39.334,87.562,87.561c0,48.229-39.335,87.562-87.562,87.562
		c-48.227,0-87.562-39.334-87.562-87.562C312.816,251.151,352.151,211.816,400.378,211.816L400.378,211.816z"/>
	<path fill="#1D1D1B" d="M400.378,237.604c34.023,0,61.774,27.75,61.774,61.773c0,34.025-27.751,61.775-61.774,61.775
		c-34.022,0-61.774-27.75-61.774-61.775C338.604,265.354,366.354,237.604,400.378,237.604L400.378,237.604z"/>
	<path fill="#F8E200" d="M434.646,344.643c-2.796-2.149-2.796-2.149-3.227-2.901c-0.86-0.322-1.72-0.646-2.688-0.97
		c-0.537-0.321-1.075-0.752-1.722-1.182c-0.105-0.645-0.321-1.398-0.537-2.15c-0.968-0.969-1.936-1.397-5.376-4.301
		c-0.215-0.43-0.43-0.859-0.645-1.397c3.333,0.108,6.772,0.323,10.214,0.538c0,1.289,0.107,2.58,0.215,3.869
		c0.215,0.107,0.537,0.215,0.86,0.433c1.074,2.474,2.148,5.053,3.332,7.633C434.968,344.32,434.86,344.428,434.646,344.643
		L434.646,344.643z M425.292,335.289c-0.107-0.215-0.215-0.537-0.322-0.859c0.646,0,1.397,0,2.15,0c0,0.107,0,0.322,0,0.537
		C426.582,335.074,425.938,335.182,425.292,335.289L425.292,335.289z M422.604,333.354c0-0.215,0-0.43,0-0.752
		c1.506,0,3.011,0.107,4.623,0.215c-0.216,0.107-0.431,0.216-0.646,0.431C425.292,333.246,424.002,333.246,422.604,333.354
		L422.604,333.354z M423.142,330.129c-1.826-2.688-3.654-5.375-5.59-8.062c-0.323-2.043-0.646-4.086-1.075-6.129
		c-0.322-0.858-0.753-1.721-1.183-2.58c-2.903-1.721-5.806-3.44-8.709-5.268c-4.3-3.764-4.3-3.764-6.773-6.451
		c-0.645-1.184-1.29-2.365-1.935-3.548c-0.215-0.108-0.538-0.215-0.86-0.323c-3.226,0.215-3.226,0.215-5.053,0.752
		c-2.149,0.968-4.408,2.042-6.666,3.119c0,0.215-0.106,0.536-0.215,0.858c0.968,0.321,2.043,0.752,3.118,1.185
		c2.149,0.215,2.149,0.215,10.213,0.215c0.107,0.106,0.323,0.215,0.538,0.321c-2.15,0.537-2.15,0.537-11.073,1.613
		c-2.903,0-5.806,0.106-8.816,0.215c-4.407-1.291-8.815-2.58-13.224-3.979c-2.149-0.858-4.408-1.72-6.666-2.688
		c-0.645-0.107-1.29-0.215-1.935-0.322c-0.752-0.323-1.505-0.646-2.258-1.076c-8.172,0-8.172,0-11.505-0.323
		c-0.106-0.537-0.106-0.537,0.216-1.182c3.871-1.183,5.482-1.936,7.418-2.258c0.537,0.323,0.537,0.323,2.149,0.323
		c-0.323-0.214-0.645-0.538-1.075-0.86c-2.149-0.537-2.149-0.537-3.439-1.183c-0.323-0.43-0.646-0.86-1.075-1.29
		c0-0.43,0-0.86-0.107-1.398c1.827,0,3.764,0,5.698-0.107c1.075,0.43,2.258,0.967,3.44,1.505c0,0.86,0,1.72,0,2.688
		c-0.107,0-0.323,0.107-0.538,0.215c0,0.107,0.106,0.322,0.215,0.538c0.753,0.322,1.505,0.645,2.258,0.968
		c3.227,0,6.451,0.107,9.676,0.215c1.075,0.215,2.15,0.537,3.227,0.86c2.043,1.075,4.085,2.15,6.128,3.225c0.753,0,1.613,0,2.473,0
		c5.913-2.15,13.439-4.3,17.739-6.021c0.215-0.752,0.215-0.752,2.366-3.118c0.752-0.538,1.612-1.075,2.472-1.72
		c0.323-0.752,0.753-1.612,1.184-2.473c1.612-7.525,1.612-7.525,1.505-8.386c-2.795-0.322-5.591-0.752-8.386-1.183
		c-3.117,0-6.235-0.107-9.354-0.215c-2.365-0.322-4.838-0.645-7.312-1.075c-1.397,0-2.795,0-4.3,0.107
		c0.107,0.538,0.107,0.538,1.612,2.043c0,0.322,0,0.645,0,0.967c-0.752,0.107-0.752,0.107-1.828-0.43
		c-0.645-0.645-1.29-1.29-1.935-1.935c-0.646-0.107-1.397-0.323-2.15-0.538c-2.257-1.397-2.257-1.397-3.333-2.58
		c-0.538,0-1.075,0-1.72-0.107c-0.322,0.215-0.753,0.43-1.184,0.645c-0.106,0.323-0.215,0.752-0.43,1.183
		c-0.43-0.107-0.86-0.215-1.29-0.323c-0.43-0.537-0.86-1.183-1.29-1.828c0-0.43,0-0.86-0.106-1.398c0.321,0,0.645,0,1.074,0
		c0,0.215,0,0.538-0.106,0.86c1.183,0,2.365,0,3.548,0c0-0.215,0-0.538,0-0.86c-0.752,0-1.505,0-2.365,0
		c-0.322-2.257-0.967-3.762-1.183-6.02c-0.967-0.538-0.967-0.538-3.655-1.075c-0.752-0.538-1.505-1.075-2.258-1.72
		c0-0.107,0-0.322-0.107-0.538c3.548-2.473,4.73-3.655,5.591-4.085c0.107,1.398,0.107,1.398,0.431,1.935
		c0.645,0.215,1.29,0.431,1.936,0.753c0,0.86,0,1.72,0.107,2.688c0.215,0.645,0.537,1.29,0.859,1.935
		c0.323,0,0.753,0.107,1.184,0.215c0.106,1.398,0.323,2.903,0.538,4.408c1.935,1.075,1.935,1.075,3.01,1.29c0-0.323,0-0.646,0-1.075
		c0.86,0.107,1.72,0.215,2.688,0.322c1.183,0.538,2.473,1.075,3.763,1.613c2.042-0.107,4.085-0.323,6.128-0.538
		c2.581,0,5.161,0,7.849,0c0.86,0.107,1.721,0.323,2.688,0.538c8.601-0.753,8.601-0.753,10.319-1.183
		c1.828-1.075,1.828-1.075,3.118-1.505c1.722,0,3.548-0.108,5.376-0.215c1.184-0.752,1.184-0.752,2.902-1.397
		c0.968-0.107,1.936-0.323,3.011-0.538c0.752-0.322,1.612-0.753,2.474-1.183c0.536-0.645,1.074-1.398,1.611-2.15
		c0-0.43-0.106-0.86-0.215-1.29c-0.859-0.86-0.859-0.86-1.075-1.505c0.646-3.763,1.075-4.408,0.969-5.053
		c-0.432-0.215-0.86-0.538-1.397-0.86c0.322-0.323,0.322-0.323,1.935-0.645c0-0.108,0-0.323,0-0.538
		c-1.183-0.107-2.473-0.215-3.763-0.323c0-0.214,0-0.429,0.107-0.645c0.968-0.107,2.043-0.215,3.118-0.43c0-0.215,0-0.43,0-0.645
		c-1.722-0.107-3.44-0.322-5.161-0.538c0.322-0.322,0.322-0.322,8.602-1.397c0.646,0.43,1.397,0.86,2.15,1.29
		c0.215,0.645,0.215,0.645,0.967,1.29c0.753,0.107,1.506,0.323,2.258,0.538c0.646,1.613,0.646,1.613,1.613,2.795
		c0.43,0.215,0.858,0.43,1.396,0.752c-0.106,0.645-0.215,1.398-0.431,2.15c0,1.505,0,3.01,0,4.516
		c-1.075,3.548-1.075,3.548-1.72,4.623c-0.86,0.107-1.722,0.215-2.58,0.322c-0.107,0.323-0.216,0.645-0.432,0.968
		c1.075,0.43,1.075,0.43,4.302,0.968c0.859,0.537,1.721,1.075,2.688,1.613c1.828,0.538,3.765,1.075,5.698,1.612
		c5.053,2.688,5.053,2.688,6.451,3.763c0,0.645,0,1.29,0.106,2.042c-0.968,1.075-0.968,1.075-3.548,2.903
		c-0.646,0.215-1.29,0.43-1.936,0.645c-3.118,0.107-6.235,0.322-9.461,0.538c-1.721,0.43-3.549,0.86-5.375,1.397
		c-1.398,0-2.796,0-4.302,0c-0.43-0.107-0.859-0.215-1.396-0.43c-0.646-1.076-0.646-1.076-0.753-2.366
		c1.396-0.107,2.795-0.215,4.301-0.43c0.107-0.107,0.322-0.215,0.537-0.43c0-0.323,0-0.645,0-0.968
		c-1.075-0.752-1.075-0.752-1.827-0.86c0,0.43,0,0.86,0,1.29c-1.075,0.107-2.258,0.323-3.44,0.538
		c-0.106,0.215-0.321,0.538-0.537,0.86c0,0.968-0.107,1.936-0.216,2.903c-0.752,0.968-3.225,2.688-5.375,4.838
		c-1.29,0.645-2.579,1.291-3.979,2.043c-0.215,0.43-0.537,0.968-0.86,1.505c0,0.968,0,1.935,0.108,3.01
		c2.902,4.085,2.902,4.085,10.751,13.761c1.935,5.807,3.978,11.719,6.021,17.633c0,0.645,0.107,1.396,0.216,2.15
		C426.045,329.914,424.646,330.021,423.142,330.129L423.142,330.129z M411.854,310.023c-1.936-1.504-3.869-3.01-5.806-4.623
		c-0.646-0.646-1.29-1.396-1.936-2.15c0-0.322,0-0.645-0.107-0.967c2.043,1.506,2.043,1.506,5.161,4.623
		c0.752,0.43,1.505,0.861,2.258,1.398c0.322,0.43,0.646,0.858,1.074,1.396C412.283,309.809,412.068,309.916,411.854,310.023
		L411.854,310.023z M351.862,293.038c0-0.108-0.107-0.215-0.215-0.323c0.537,0,1.074-0.107,1.612-0.215c0,0.107,0,0.323,0,0.538
		C352.83,293.038,352.4,293.038,351.862,293.038L351.862,293.038z M405.402,288.2c0.322-5.053,0.322-5.053,1.397-11.503
		c0.322-0.538,0.322-0.538,0.322-1.613c-0.107-0.43-0.215-0.86-0.431-1.398c0.431,0,0.859,0,1.397,0.108
		c1.184,0.967,1.184,0.967,4.192,4.73c0.43,0.322,0.859,0.645,1.396,0.967c1.185,0.323,2.474,0.645,3.764,0.968
		c-0.216,0.538-0.216,0.538-1.29,1.183c-1.505,0.322-3.011,0.752-4.516,1.183c-3.871,4.085-3.871,4.085-5.482,5.268
		C405.94,288.092,405.726,288.092,405.402,288.2L405.402,288.2z M430.345,279.599c0-0.537-0.106-1.183-0.215-1.828
		c3.763,0.323,4.301,0.645,5.376,0.753c-0.107,0.215-0.215,0.538-0.322,0.86C433.57,279.384,431.958,279.491,430.345,279.599
		L430.345,279.599z M367.452,271.321c-0.107-0.215-0.323-0.431-0.538-0.646c0.215,0,0.538,0,0.86,0c0,0.215,0.106,0.43,0.215,0.646
		C367.882,271.321,367.667,271.321,367.452,271.321L367.452,271.321z M426.045,269.923c0-1.29,0-2.58,0-3.87
		c0.107,0.107,0.322,0.322,0.537,0.537c0.107,1.075,0.215,2.15,0.323,3.333C426.689,269.923,426.367,269.923,426.045,269.923
		L426.045,269.923z M429.808,261.645c0-0.107,0-0.322,0-0.537c-0.215-0.108-0.43-0.215-0.646-0.323c0-0.322,0-0.645-0.107-1.075
		c0.646-0.215,1.397-0.43,2.15-0.646c0.322,0,0.753,0,1.183,0.108c0,0.43,0,0.968,0.107,1.505
		C431.743,261.214,431.743,261.214,429.808,261.645L429.808,261.645z"/>
	<path fill="#1D1D1B" d="M342.248,358.863l0.234-0.213l-0.282-0.303c-1.416-1.525-0.496-2.312-0.125-2.658l9.43-8.769
		c0.375-0.348,1.227-1.207,2.646,0.317l0.277,0.304l0.23-0.215l-5.155-5.55l-0.229,0.214l0.277,0.303
		c1.416,1.522,0.496,2.312,0.125,2.658l-9.43,8.769c-0.375,0.348-1.226,1.206-2.642-0.318l-0.282-0.303l-0.23,0.215L342.248,358.863
		L342.248,358.863z"/>
	<path fill="#1D1D1B" d="M330.186,344.086l2.389,4.324l0.273-0.154c-0.616-1.121-0.581-2.359-0.041-3.682l11.25-6.213
		c0.448-0.246,1.48-0.875,2.489,0.949l0.187,0.338l0.273-0.152l-2.875-5.213l-0.273,0.154l0.197,0.358
		c1.004,1.822-0.076,2.363-0.521,2.608l-10.108,5.582l6.337-17.073l-0.166-0.293l-13.241,7.31c-0.444,0.245-1.48,0.875-2.489-0.949
		l-0.198-0.359l-0.273,0.15l2.888,5.233l0.273-0.151l-0.197-0.359c-1.004-1.822,0.076-2.367,0.521-2.609l9.047-4.998
		L330.186,344.086L330.186,344.086z"/>
	<path fill="#1D1D1B" d="M320.988,325.107l3.774-0.642l-0.072-0.329c-0.84,0.141-2.707,0.221-3.3-2.378l-0.601-2.616l13.423-3.074
		c0.496-0.115,1.662-0.433,2.125,1.598l0.093,0.4l0.308-0.068l-1.69-7.387l-0.307,0.074l0.093,0.397
		c0.464,2.028-0.726,2.25-1.222,2.362l-13.423,3.078l-0.598-2.623c-0.597-2.592,1.121-3.334,1.937-3.567l-0.077-0.332l-3.679,1.065
		L320.988,325.107L320.988,325.107z"/>
	<path fill="#1D1D1B" d="M317.603,290.683l-0.472,12.892l0.314,0.012l0.016-0.412c0.077-2.075,1.283-1.983,1.791-1.969l12.867,0.474
		c0.508,0.02,1.719,0.016,1.642,2.094l-0.017,0.412l0.318,0.012l0.488-13.279l-4.19-1.387l-0.085,0.286
		c2.384,1.008,3.094,2.174,3.005,4.542l-0.169,4.67l-7.281-0.266l0.162-4.356c0.027-0.799,0.186-1.807,2.483-1.795l0.013-0.314
		l-5.877-0.218l-0.013,0.315c2.295,0.157,2.379,1.178,2.352,1.976l-0.161,4.352l-6.336-0.233l0.173-4.667
		c0.041-1.089,0.238-2.509,2.525-2.86l-0.036-0.367L317.603,290.683L317.603,290.683z"/>
	<path fill="#1D1D1B" d="M318.682,281.289l0.295,0.101l0.138-0.387c0.678-1.968,1.807-1.524,2.287-1.359l12.165,4.215
		c0.479,0.165,1.646,0.516,0.964,2.48l-0.133,0.391l0.294,0.101l2.479-7.155l-0.298-0.105l-0.133,0.387
		c-0.683,1.968-1.812,1.529-2.291,1.359l-5.627-1.948l0.479-1.396l9.458-2.896l1.521-4.393l-0.294-0.101
		c-0.544,1.347-1.492,1.787-2.86,2.263l-7.163,2.412c0.352-1.98-0.371-4.404-2.839-5.259c-3.888-1.347-5.316,2.254-5.925,4.017
		L318.682,281.289L318.682,281.289z M321.364,276.788c0.04-0.625,0.152-1.178,0.327-1.678c0.813-2.355,2.791-3.106,4.573-2.489
		c1.694,0.585,3.05,2.364,1.989,5.425c-0.117,0.343-0.229,0.666-0.372,1L321.364,276.788L321.364,276.788z"/>
	<path fill="#1D1D1B" d="M334.491,248.315l-7.64,11.717l0.267,0.173l0.222-0.347c1.138-1.743,2.126-1.041,2.549-0.762l10.79,7.03
		c0.429,0.278,1.468,0.895,0.331,2.642l-0.226,0.343l0.266,0.174l4.134-6.345l-0.262-0.173l-0.226,0.343
		c-1.138,1.746-2.122,1.044-2.55,0.766l-5.255-3.424l2.433-3.731c0.888-1.355,1.733-1.412,3.234-0.521l0.174-0.266l-4.934-3.21
		l-0.169,0.266c1.419,1.013,1.71,1.807,0.823,3.167l-2.433,3.727l-5.413-3.525l2.974-4.562c0.608-0.936,1.682-2.4,4.074-1.42
		l0.174-0.262L334.491,248.315L334.491,248.315z"/>
	<path fill="#1D1D1B" d="M353.451,251.099l-9.377-10.087c-0.348-0.375-1.206-1.226,0.317-2.642l0.304-0.282l-0.214-0.23
		l-5.551,5.155l0.214,0.234l0.304-0.282c1.523-1.416,2.311-0.496,2.658-0.125l8.769,9.43c0.347,0.375,1.206,1.226-0.319,2.646
		l-0.302,0.278l0.213,0.229l9.733-9.043l-1.977-3.944l-0.262,0.145c0.972,2.4,0.649,3.723-1.089,5.336L353.451,251.099
		L353.451,251.099z"/>
	<path fill="#1D1D1B" d="M369.438,241.092c4.405-2.23,5.74-7.143,3.551-11.459c-2.224-4.38-6.857-6.345-10.999-4.243
		c-3.913,1.98-5.95,6.732-3.555,11.459C360.617,241.144,365.275,243.205,369.438,241.092L369.438,241.092z M369.111,240.176
		c-2.183,1.105-5.521,0.302-8.056-4.683c-2.778-5.481-0.317-8.385,1.264-9.188c1.875-0.952,5.34-0.646,8.046,4.683
		C372.721,235.63,371.503,238.958,369.111,240.176L369.111,240.176z"/>
	<path fill="#1D1D1B" d="M375.244,219.815l0.073,0.307l0.398-0.089c2.029-0.468,2.254,0.726,2.372,1.218l2.872,12.552
		c0.113,0.496,0.431,1.662-1.598,2.13l-0.399,0.088l0.069,0.307l7.385-1.69l-0.073-0.307l-0.398,0.093
		c-2.029,0.464-2.25-0.726-2.368-1.222l-1.327-5.804l1.44-0.326l7.466,6.48l4.528-1.037l-0.067-0.307
		c-1.433,0.25-2.308-0.318-3.438-1.226l-5.836-4.796c1.864-0.75,3.538-2.646,2.953-5.195c-0.916-4.009-4.727-3.312-6.546-2.896
		L375.244,219.815L375.244,219.815z M380.488,219.71c0.553-0.303,1.081-0.496,1.597-0.617c2.432-0.553,4.114,0.722,4.534,2.565
		c0.398,1.742-0.387,3.836-3.545,4.558c-0.355,0.085-0.687,0.157-1.045,0.218L380.488,219.71L380.488,219.71z"/>
	<path fill="#1D1D1B" d="M395.914,232.674l4.832,0.331l0.023-0.315c-0.746-0.077-1.719-0.411-1.666-1.206
		c0.021-0.314,0.187-0.593,0.355-0.899l1.593-3.118l6.373,0.436l1.183,3.332c0.079,0.246,0.125,0.637,0.104,0.928
		c-0.032,0.46-0.246,0.791-1.763,0.952l-0.021,0.315l6.761,0.46l0.021-0.315c-1.484-0.294-1.715-0.794-2.328-2.464l-5.457-14.952
		l-0.218-0.017l-7.413,14.073c-0.638,1.194-1.229,2.053-2.354,2.146L395.914,232.674L395.914,232.674z M404.739,220.348l2.323,6.486
		l-5.481-0.371L404.739,220.348L404.739,220.348z"/>
	<path fill="#1D1D1B" d="M456.598,237.812l-11.036-8.595l-0.192,0.25l0.323,0.254c1.646,1.279,0.861,2.203,0.548,2.602
		l-7.905,10.164c-0.313,0.403-1.021,1.388-2.662,0.109l-0.322-0.254l-0.193,0.25l5.978,4.65l0.193-0.246L441,246.743
		c-1.642-1.279-0.859-2.202-0.549-2.605l3.853-4.949l3.514,2.739c1.277,0.996,1.263,1.843,0.25,3.263l0.25,0.193l3.609-4.646
		l-0.246-0.189c-1.13,1.327-1.943,1.557-3.227,0.557l-3.514-2.739l3.969-5.098l4.3,3.348c0.876,0.682,2.251,1.875,1.069,4.175
		l0.25,0.193L456.598,237.812L456.598,237.812z"/>
	<path fill="#1D1D1B" d="M452.179,256.439l10.688-8.688c0.392-0.319,1.304-1.122,2.613,0.496l0.259,0.319l0.246-0.198l-4.779-5.881
		l-0.242,0.202l0.258,0.319c1.315,1.613,0.343,2.339-0.048,2.658l-9.995,8.127c-0.392,0.319-1.303,1.122-2.612-0.496l-0.26-0.318
		l-0.246,0.197l8.383,10.31l4.062-1.71l-0.125-0.27c-2.46,0.811-3.759,0.399-5.255-1.44L452.179,256.439L452.179,256.439z"/>
	<path fill="#1D1D1B" d="M478.701,270.883l-5.475-11.685l-0.281,0.133l0.174,0.375c0.883,1.883-0.234,2.352-0.693,2.569
		l-11.657,5.465c-0.464,0.214-1.536,0.77-2.42-1.113l-0.173-0.371l-0.287,0.133l5.636,12.032l4.359-0.678l-0.057-0.294
		c-2.581,0.193-3.743-0.521-4.751-2.666l-1.98-4.231l6.596-3.089l1.851,3.944c0.339,0.722,0.658,1.694-1.392,2.735l0.134,0.287
		l5.324-2.493l-0.135-0.287c-2.112,0.908-2.652,0.041-2.991-0.682l-1.849-3.945l5.744-2.694l1.98,4.23
		c0.459,0.989,0.936,2.344-0.94,3.703l0.197,0.307L478.701,270.883L478.701,270.883z"/>
	<path fill="#1D1D1B" d="M481.648,279.68l-0.312,0.044l0.058,0.407c0.293,2.065-0.912,2.186-1.416,2.259l-8.793,1.25
		c-5.511,0.783-5.511,5.599-5.151,8.116c0.863,6.062,5.651,5.526,6.801,5.364l9.06-1.291c0.5-0.073,1.693-0.291,1.984,1.771
		l0.062,0.407l0.311-0.044l-0.844-5.917l-0.312,0.044l0.058,0.407c0.295,2.062-0.911,2.182-1.411,2.255l-8.604,1.222
		c-1.053,0.153-5.274,0.706-5.962-4.11c-0.701-4.913,3.118-5.385,4.34-5.559l8.843-1.258c0.504-0.072,1.693-0.29,1.987,1.771
		l0.058,0.407l0.313-0.044L481.648,279.68L481.648,279.68z"/>
	<path fill="#1D1D1B" d="M483.646,306.176l-0.311-0.053l-0.069,0.402c-0.357,2.049-1.545,1.795-2.045,1.707l-12.681-2.211
		c-0.5-0.088-1.706-0.25-1.343-2.299l0.067-0.406l-0.311-0.053l-1.303,7.461l0.306,0.053l0.073-0.404
		c0.358-2.049,1.545-1.795,2.045-1.705l5.864,1.02l-0.255,1.457l-8.873,4.373l-0.799,4.576l0.312,0.053
		c0.321-1.416,1.186-2.004,2.46-2.688l6.688-3.524c-0.031,2.008,1.069,4.286,3.644,4.737c4.054,0.707,4.889-3.075,5.207-4.912
		L483.646,306.176L483.646,306.176z M481.715,311.047c0.064,0.625,0.041,1.188-0.052,1.711c-0.428,2.457-2.259,3.51-4.118,3.186
		c-1.763-0.307-3.389-1.842-2.832-5.036c0.064-0.359,0.121-0.693,0.21-1.046L481.715,311.047L481.715,311.047z"/>
	<path fill="#1D1D1B" d="M459.904,327.887c-2,4.514,0.068,9.164,4.502,11.125c4.488,1.988,9.32,0.584,11.205-3.662
		c1.773-4.006,0.351-8.979-4.494-11.125C466.713,322.273,461.797,323.615,459.904,327.887L459.904,327.887z M460.743,328.391
		c0.988-2.233,4.087-3.723,9.196-1.459c5.623,2.492,5.551,6.299,4.837,7.914c-0.855,1.924-3.731,3.879-9.196,1.455
		C460.816,334.195,459.654,330.848,460.743,328.391L460.743,328.391z"/>
	<path fill="#1D1D1B" d="M467.651,348.494l-0.242-0.201l-0.263,0.314c-1.334,1.596-2.234,0.781-2.621,0.455l-9.883-8.256
		c-0.392-0.326-1.352-1.064-0.017-2.662l0.267-0.314l-0.241-0.203l-4.86,5.809l0.242,0.207l0.267-0.32
		c1.335-1.596,2.23-0.78,2.621-0.454l4.591,3.832c-1.193,0.897-1.613,1.211-2.045,1.729c-2.554,3.045-1.827,5.953,0.068,7.533
		c3.229,2.703,6.312-0.527,7.769-2.27L467.651,348.494L467.651,348.494z M463.505,351.717c-0.294,0.541-0.544,0.803-0.888,1.211
		c-0.79,0.947-2.791,2.812-5.425,0.604c-1.433-1.193-2.054-3.13-0.528-4.953c0.142-0.164,0.653-0.777,1.513-1.317L463.505,351.717
		L463.505,351.717z"/>
	<path fill="#1D1D1B" d="M391.282,365.703l-13.452-3.832l-0.084,0.303l0.395,0.113c2,0.572,1.622,1.723,1.484,2.211l-3.529,12.383
		c-0.137,0.488-0.423,1.67-2.424,1.1l-0.396-0.11l-0.089,0.303l7.288,2.072l0.084-0.304l-0.395-0.112
		c-2-0.567-1.625-1.718-1.484-2.213l1.719-6.027l4.279,1.22c1.562,0.442,1.863,1.233,1.456,2.932l0.303,0.086l1.612-5.656
		l-0.302-0.084c-0.549,1.654-1.223,2.166-2.783,1.723l-4.284-1.219l1.771-6.215l5.239,1.492c1.068,0.303,2.787,0.895,2.557,3.473
		l0.302,0.084L391.282,365.703L391.282,365.703z"/>
	<path fill="#1D1D1B" d="M392.758,365.99l-0.093,3.828l0.339-0.014c0.021-0.847,0.298-2.697,2.96-2.787l2.683-0.088l0.455,13.762
		c0.021,0.508,0.109,1.719-1.973,1.787l-0.411,0.012l0.008,0.313l7.571-0.25l-0.008-0.313l-0.411,0.012
		c-2.082,0.07-2.073-1.141-2.09-1.648l-0.456-13.762l2.683-0.09c2.662-0.088,3.062,1.738,3.139,2.586l0.339-0.012l-0.343-3.816
		L392.758,365.99L392.758,365.99z"/>
	<path fill="#1D1D1B" d="M410.728,365.377l0.085,0.303l0.396-0.113c2.005-0.567,2.287,0.609,2.429,1.099l3.529,12.383
		c0.141,0.488,0.516,1.638-1.484,2.205l-0.396,0.113l0.085,0.303l8.172-2.328c4.98-1.414,8.103-5.653,6.655-10.725
		c-0.97-3.4-4.225-7.582-12.206-5.308L410.728,365.377L410.728,365.377z M416.003,365.158c0.738-0.41,1.48-0.725,2.271-0.947
		c4.005-1.141,7.724,0.439,9.059,5.119c1.104,3.889,0.121,7.941-4.997,9.402c-0.605,0.168-1.312,0.346-2.376,0.322L416.003,365.158
		L416.003,365.158z"/>
	<path fill="#1D1D1B" d="M359.176,361.072c0.713,0,1.295,0.582,1.295,1.295s-0.582,1.295-1.295,1.295
		c-0.712,0-1.294-0.582-1.294-1.295S358.463,361.072,359.176,361.072L359.176,361.072z"/>
	<path fill="#1D1D1B" d="M443.086,361.072c0.714,0,1.295,0.582,1.295,1.295s-0.581,1.295-1.295,1.295
		c-0.712,0-1.294-0.582-1.294-1.295S442.374,361.072,443.086,361.072L443.086,361.072z"/>
	<path fill="#1D1D1B" d="M426.473,228.191c0.713,0,1.294,0.582,1.294,1.295c0,0.712-0.581,1.294-1.294,1.294
		s-1.294-0.582-1.294-1.294C425.179,228.772,425.76,228.191,426.473,228.191L426.473,228.191z"/>
	<polygon fill="#1D1D1B" points="462.521,382.018 462.521,374.295 459.764,374.295 459.764,372.721 467.15,372.721 467.15,374.295 
		464.399,374.295 464.399,382.018 	"/>
	<polygon fill="#1D1D1B" points="468.337,382.018 468.337,372.721 471.146,372.721 472.832,379.062 474.499,372.721 
		477.314,372.721 477.314,382.018 475.572,382.018 475.572,374.699 473.726,382.018 471.919,382.018 470.079,374.699 
		470.079,382.018 	"/>
</g>
</svg>
