<?xml version="1.0" encoding="utf-8"?>
<!-- Generator: Adobe Illustrator 16.0.0, SVG Export Plug-In . SVG Version: 6.00 Build 0)  -->
<!DOCTYPE svg PUBLIC "-//W3C//DTD SVG 1.1//EN" "http://www.w3.org/Graphics/SVG/1.1/DTD/svg11.dtd">
<svg version="1.1" id="Layer_1" xmlns="http://www.w3.org/2000/svg" xmlns:xlink="http://www.w3.org/1999/xlink" x="0px" y="0px"
	 width="158.804px" height="175.748px" viewBox="16.976 8.504 158.804 175.748"
	 enable-background="new 16.976 8.504 158.804 175.748" xml:space="preserve">
<g>
	<path fill="#5C73AD" d="M52.572,78.12h40.325c5.911-7.356,9.327-16.682,9.327-26.796c0-23.643-19.045-42.82-42.689-42.82
		c-23.512,0-42.558,19.177-42.558,42.82c0,16.419,9.063,30.605,22.33,37.829C40.488,82.849,46.005,78.12,52.572,78.12L52.572,78.12z
		"/>
	<path fill="#FFFFFF" d="M91.978,52.901c0,0.525-0.394,0.919-0.92,0.919c-0.525,0-0.919-0.394-0.919-0.919
		c0-0.526,0.394-0.92,0.919-0.92C91.584,51.981,91.978,52.375,91.978,52.901L91.978,52.901L91.978,52.901z M90.27,52.901
		c0,0.525,0.394,0.788,0.788,0.788s0.788-0.263,0.788-0.788c0-0.394-0.394-0.788-0.788-0.788S90.27,52.507,90.27,52.901
		L90.27,52.901L90.27,52.901z M90.795,53.426h-0.131v-1.051h0.526c0.131,0,0.262,0.132,0.262,0.394c0,0.132-0.131,0.263-0.262,0.263
		l0.394,0.394h-0.263l-0.263-0.394h-0.263V53.426L90.795,53.426L90.795,53.426z M91.058,52.901c0.132,0,0.263,0,0.263-0.132
		c0-0.262-0.131-0.262-0.263-0.262h-0.263v0.394H91.058L91.058,52.901z"/>
	<path fill="#FFFFFF" d="M55.199,39.766c0,4.334,4.86,6.305,4.729,10.114c0,1.051-0.789,3.678-3.547,3.678
		c-1.313,0-2.627-1.051-2.627-3.416v-1.708c0-0.131,0-0.263-0.131-0.394s-0.263-0.131-0.394-0.131
		c-0.262,0.131-0.394,0.525-0.525,0.657c-0.131,0.788-0.263,1.576-0.394,2.233c0,0.131,0,0.131,0,0.131
		c-0.131,0.525-0.131,1.051-0.263,1.577c0,0.394,0.263,0.657,0.525,0.788c1.051,0.525,2.364,0.92,3.809,1.051
		c3.547,0,6.437-3.152,6.568-6.173c0-2.364-1.313-3.809-2.89-5.648c-0.788-0.919-2.233-2.233-2.233-4.072
		c0-1.313,1.182-2.89,3.284-2.89c2.89,0,2.364,3.021,2.496,4.466c0,0.131,0,0.263,0,0.263c0.131,0.131,0.394,0.131,0.525,0.131
		c0-0.131,0.131-0.131,0.131-0.263l0.657-2.627c0.131-0.526,0.394-0.919,0.394-1.445c0-0.262-0.131-0.394-0.263-0.394
		c-1.445-0.788-2.364-0.919-3.81-1.051C57.827,34.643,55.331,37.138,55.199,39.766L55.199,39.766L55.199,39.766z M63.737,45.02
		c0,0.131,0.131,0.263,0.263,0.263c0.394,0,0.657-0.788,1.445-1.97C65.97,42.525,66.627,42,67.021,42
		c0.263,0,0.263,0.131,0.263,0.394c0,0.788-3.284,7.487-3.284,10.114c0,0.919,0.394,1.708,1.445,1.708
		c2.496,0,5.123-3.152,7.093-5.911c0-0.131,0.131-0.131,0.131,0c-0.394,1.182-1.051,3.284-1.051,4.729
		c0,0.526,0.132,1.183,1.051,1.183c2.233,0,4.992-4.335,4.992-5.254c0-0.263,0-0.394-0.263-0.394s-0.394,0.525-0.788,1.182
		c-0.657,1.051-1.708,2.496-2.233,2.496c-0.263,0-0.263-0.263-0.263-0.394c0-1.445,3.415-10.771,3.415-11.034
		c0-0.263,0-0.394-0.394-0.394c-0.131,0-0.525,0-1.051,0c-0.919,0-0.919,0.131-1.051,0.263c-0.525,0.919-1.182,3.678-2.496,6.042
		c-1.838,3.284-4.334,5.78-5.385,5.78c-0.263,0-0.525-0.394-0.525-0.789c0-1.313,3.415-8.669,3.415-10.376
		c0-0.394-0.263-1.312-1.313-1.312C66.102,40.028,63.737,44.494,63.737,45.02L63.737,45.02L63.737,45.02z M89.482,40.028
		c-2.758,0-5.648,4.334-6.567,5.779c-0.131,0.131-0.131,0.131-0.131,0c0.525-1.708,1.051-3.284,1.051-4.466
		c0-0.657-0.263-1.313-1.182-1.313c-1.97,0-4.729,3.678-4.729,4.597c0,0.263,0,0.394,0.263,0.394s0.525-0.657,1.051-1.313
		c0.657-0.788,1.445-1.839,1.97-1.839c0,0,0.131,0.131,0.131,0.394c0,1.182-2.496,7.75-3.416,11.165
		c-0.131,0.263,0.132,0.394,1.183,0.394c0.788,0,1.051,0.132,1.182-0.525c0.657-2.102,1.839-4.597,3.021-6.83
		c1.182-1.97,3.678-4.86,5.123-4.86c0.262,0,0.394,0.131,0.394,0.657c0,1.445-3.546,8.144-3.415,10.64
		c0,0.788,0.263,1.313,1.182,1.313c2.102,0,4.072-3.021,4.86-4.598c0.132-0.263,0.394-0.525,0.263-0.788
		c-0.131-0.131-0.263-0.131-0.394-0.131c0,0-0.131,0-0.131,0.131c-0.657,1.051-1.971,3.284-2.758,3.284
		c-0.263,0-0.263-0.132-0.263-0.263c0-1.051,3.152-7.487,3.152-9.72C91.321,40.554,90.401,40.028,89.482,40.028L89.482,40.028z"/>
	<path fill="#FFFFFF" d="M30.111,46.202c-0.788,0.788-2.102,0.788-2.89,0c-0.788-0.788-0.788-2.102,0-3.021l4.729-4.729l1.313,1.314
		l-4.86,4.729l0.394,0.394l4.86-4.86l1.313,1.313L30.111,46.202L30.111,46.202z"/>
	<path fill="#FFFFFF" d="M33.92,43.181c0.788-0.788,2.102-0.788,2.89,0c0.788,0.788,0.788,2.102,0,2.89l-4.86,4.86l-1.182-1.313
		l4.729-4.86l-0.262-0.263l-4.86,4.729l-1.313-1.182L33.92,43.181L33.92,43.181z"/>
	<path fill="#FFFFFF" d="M40.094,53.164c0.788,0.788,0.788,2.102,0,2.89c-0.789,0.788-2.102,0.788-2.89,0l-4.86-4.729l1.313-1.313
		l4.86,4.859l0.263-0.394l-4.729-4.86l1.183-1.313L40.094,53.164L40.094,53.164z"/>
	<path fill="#FFFFFF" d="M37.073,49.354c-0.788-0.788-0.788-2.102,0-2.89c0.788-0.788,2.102-0.788,3.021,0l4.729,4.86l-1.314,1.183
		l-4.728-4.729l-0.394,0.263l4.86,4.86l-1.313,1.313L37.073,49.354L37.073,49.354z"/>
	<path fill="#FFFFFF" d="M43.378,46.202c-0.92,0.788-2.102,0.788-3.021,0c-0.788-0.788-0.788-2.102,0-3.021l4.86-4.729l1.313,1.314
		l-4.86,4.729l0.394,0.394l4.729-4.86l1.313,1.313L43.378,46.202L43.378,46.202z"/>
	<path fill="#FFFFFF" d="M47.056,43.181c0.788-0.788,2.102-0.788,2.89,0c0.919,0.788,0.919,2.102,0,2.89l-4.729,4.86l-1.314-1.313
		l4.86-4.86l-0.394-0.263l-4.86,4.729l-1.182-1.182L47.056,43.181L47.056,43.181z"/>
	<path fill="#FFFFFF" d="M40.094,39.896c0.788,0.789,0.788,2.102,0,3.021c-0.789,0.788-2.102,0.788-2.89,0l-4.86-4.86l1.313-1.313
		l4.86,4.86l0.263-0.394l-4.729-4.729l1.183-1.313L40.094,39.896L40.094,39.896z"/>
	<path fill="#FFFFFF" d="M37.073,36.219c-0.788-0.788-0.788-2.102,0-2.89c0.788-0.919,2.102-0.919,3.021,0l4.729,4.729l-1.314,1.314
		l-4.728-4.86l-0.394,0.394l4.86,4.86l-1.313,1.182L37.073,36.219L37.073,36.219z"/>
	<path fill="#FFFFFF" d="M57.038,59.862v-1.839c0-0.525-0.131-0.657-0.525-0.657s-0.92,0.394-0.92,1.051v1.445h-0.525v-1.97
		c0-0.263,0-0.525-0.395-0.525c-0.525,0-0.919,0.394-0.919,1.051v1.445h-0.525v-2.89h0.525c0,0.131,0,0.394,0,0.525l0,0
		c0.131-0.394,0.525-0.657,1.051-0.657c0.657,0,0.788,0.394,0.788,0.657c0.132-0.263,0.394-0.657,1.051-0.657
		c0.526,0,0.92,0.263,0.92,0.919v2.102H57.038L57.038,59.862z"/>
	<path fill="#FFFFFF" d="M61.636,59.862c-0.788,0-1.313-0.263-1.313-1.445c0-0.919,0.525-1.576,1.445-1.576
		c0.263,0,0.525,0.131,0.657,0.131v0.394c-0.131,0-0.394,0-0.657,0c-0.657,0-0.919,0.394-0.919,1.051
		c0,0.525,0.263,1.051,0.919,1.051c0.263,0,0.525-0.132,0.657-0.263v0.525C62.292,59.731,62.03,59.862,61.636,59.862L61.636,59.862z
		"/>
	<path fill="#FFFFFF" d="M64.788,57.367c-0.657-0.132-0.919,0.394-0.919,1.313v1.183h-0.525v-2.89h0.525
		c0,0.131,0,0.394-0.131,0.656l0,0c0.131-0.394,0.525-0.788,1.051-0.788L64.788,57.367L64.788,57.367z"/>
	<path fill="#FFFFFF" d="M66.627,59.862c-0.788,0-1.313-0.394-1.313-1.445c0-0.919,0.525-1.576,1.445-1.576
		c0.788,0,1.313,0.394,1.313,1.444C68.072,59.206,67.546,59.862,66.627,59.862L66.627,59.862L66.627,59.862z M66.758,57.367
		c-0.525,0-0.919,0.262-0.919,0.919c0,0.789,0.263,1.183,0.919,1.183c0.394,0,0.788-0.394,0.788-1.051
		C67.546,57.629,67.284,57.367,66.758,57.367L66.758,57.367z"/>
	<path fill="#FFFFFF" d="M69.517,59.862c-0.263,0-0.525,0-0.657,0v-0.526c0.263,0.132,0.394,0.132,0.657,0.132
		c0.394,0,0.657-0.132,0.657-0.394c0-0.657-1.313-0.263-1.313-1.313c0-0.526,0.394-0.919,1.182-0.919c0.131,0,0.394,0,0.525,0.131
		v0.394c-0.131,0-0.394-0.132-0.657-0.132c-0.394,0-0.525,0.263-0.525,0.394c0,0.657,1.445,0.395,1.445,1.314
		C70.83,59.468,70.305,59.862,69.517,59.862L69.517,59.862z"/>
	<path fill="#FFFFFF" d="M72.669,60.125c-0.262,0.919-0.525,1.182-1.182,1.182c-0.131,0-0.263,0-0.394,0v-0.525
		c0.131,0.131,0.263,0.131,0.394,0.131c0.263,0,0.525-0.131,0.657-0.788l0.131-0.263l-1.051-2.89h0.526l0.657,1.445
		c0,0.262,0.131,0.525,0.131,0.788h0.131c0-0.263,0.132-0.657,0.263-0.92l0.394-1.313h0.657L72.669,60.125L72.669,60.125z"/>
	<path fill="#FFFFFF" d="M75.033,59.862c-0.131,0-0.394,0-0.525,0v-0.526c0.131,0.132,0.394,0.132,0.656,0.132
		c0.395,0,0.657-0.132,0.657-0.394c0-0.657-1.445-0.263-1.445-1.313c0-0.526,0.394-0.919,1.183-0.919c0.262,0,0.394,0,0.656,0.131
		v0.394c-0.262,0-0.394-0.132-0.656-0.132c-0.395,0-0.526,0.263-0.526,0.394c0,0.657,1.314,0.395,1.314,1.314
		C76.347,59.468,75.953,59.862,75.033,59.862L75.033,59.862z"/>
	<path fill="#FFFFFF" d="M78.186,59.862c-0.657,0-0.788-0.263-0.788-0.919v-1.576h-0.657v-0.394h0.657v-1.051l0.525-0.131v1.182
		h0.789v0.394h-0.789v1.445c0,0.525,0.132,0.657,0.395,0.657c0.131,0,0.263,0,0.394-0.132v0.526
		C78.58,59.862,78.317,59.862,78.186,59.862L78.186,59.862z"/>
	<path fill="#FFFFFF" d="M81.864,58.286h-1.97c0,0.789,0.394,1.183,0.919,1.183c0.394,0,0.657-0.132,0.919-0.132v0.395
		c-0.263,0.131-0.525,0.131-0.919,0.131c-0.919,0-1.445-0.394-1.445-1.445c0-0.919,0.525-1.576,1.313-1.576
		c0.919,0,1.182,0.525,1.182,1.313L81.864,58.286L81.864,58.286L81.864,58.286z M80.682,57.235c-0.394,0-0.657,0.263-0.788,0.789
		h1.445C81.338,57.498,81.075,57.235,80.682,57.235L80.682,57.235z"/>
	<path fill="#FFFFFF" d="M86.461,59.862v-1.839c0-0.525-0.131-0.657-0.525-0.657s-0.788,0.394-0.788,1.051v1.445h-0.525v-1.97
		c0-0.263-0.131-0.525-0.525-0.525c-0.525,0-0.788,0.394-0.788,1.051v1.445h-0.657v-2.89h0.525c0,0.131,0,0.394,0,0.525l0,0
		c0.131-0.394,0.525-0.657,1.051-0.657c0.657,0,0.788,0.394,0.788,0.657c0.131-0.263,0.525-0.657,1.051-0.657
		c0.657,0,0.919,0.263,0.919,0.919v2.102H86.461L86.461,59.862z"/>
	<path fill="#FFFFFF" d="M88.432,59.862c-0.132,0-0.395,0-0.657,0l0.131-0.526c0.131,0.132,0.394,0.132,0.657,0.132
		c0.394,0,0.657-0.132,0.657-0.394c0-0.657-1.445-0.263-1.445-1.313c0-0.526,0.394-0.919,1.182-0.919c0.263,0,0.394,0,0.657,0.131
		v0.394c-0.263,0-0.525-0.132-0.657-0.132c-0.394,0-0.657,0.263-0.657,0.394c0,0.657,1.445,0.395,1.445,1.314
		C89.745,59.468,89.219,59.862,88.432,59.862L88.432,59.862z"/>
	<path fill="#FFFFFF" d="M59.009,56.447c0.263,0,0.394-0.131,0.394-0.395c0-0.131-0.131-0.263-0.394-0.263
		c-0.131,0-0.263,0.131-0.263,0.263C58.746,56.316,58.877,56.447,59.009,56.447L59.009,56.447z"/>
	<polygon fill="#FFFFFF" points="58.352,56.973 58.352,57.367 58.746,57.367 58.746,59.862 59.271,59.862 59.271,56.973 	"/>
	<path fill="#5C73AD" d="M53.098,98.873l-0.919-0.787c0.657-0.92,0.789-1.84,0.789-3.021V86.79h1.838v8.669
		C54.805,96.903,54.411,98.086,53.098,98.873L53.098,98.873z"/>
	<path fill="#5C73AD" d="M62.949,96.377c-0.131-0.656-0.263-1.312-0.394-1.969h-3.021c-0.262,0.657-0.394,1.313-0.525,1.969H57.17
		c0.788-3.283,1.839-6.567,2.89-9.588h2.364c1.051,3.152,1.97,6.437,2.758,9.588H62.949L62.949,96.377z M60.979,88.759
		c-0.263,1.182-0.789,2.759-1.182,4.204h2.364C61.767,91.518,61.373,90.073,60.979,88.759L60.979,88.759z"/>
	<path fill="#5C73AD" d="M71.224,96.377H68.86c-1.182-3.151-2.102-6.436-2.758-9.588h2.102c0.525,2.233,1.182,5.123,1.97,7.619
		c0.657-2.102,1.313-4.991,1.839-7.619h1.97C73.194,90.073,72.275,93.357,71.224,96.377L71.224,96.377z"/>
	<path fill="#5C73AD" d="M80.682,96.377c-0.131-0.656-0.263-1.312-0.394-1.969h-3.021c-0.263,0.657-0.395,1.313-0.525,1.969h-1.839
		c0.788-3.283,1.839-6.567,2.89-9.588h2.364c1.051,3.152,1.97,6.437,2.758,9.588H80.682L80.682,96.377z M78.711,88.759
		c-0.263,1.182-0.789,2.759-1.183,4.204h2.365C79.5,91.518,79.105,90.073,78.711,88.759L78.711,88.759z"/>
	<path fill="#5C73AD" d="M93.554,96.51c-2.233,0-3.415-1.051-3.415-3.547v-6.174h1.97v6.042c0,1.576,0.657,2.102,1.577,2.102
		c1.051,0,1.708-0.525,1.708-1.97v-6.174h1.837v6.042C97.231,95.59,95.655,96.51,93.554,96.51L93.554,96.51z"/>
	<polygon fill="#5C73AD" points="105.771,96.377 102.224,89.285 102.224,96.377 100.517,96.377 100.517,86.789 103.144,86.789 
		106.164,92.963 106.164,86.789 107.871,86.789 107.871,96.377 	"/>
	<polygon fill="#5C73AD" points="111.155,86.789 113.125,86.789 113.125,96.377 111.155,96.377 	"/>
	<path fill="#5C73AD" d="M120.744,96.377h-2.496c-1.052-3.151-1.972-6.436-2.759-9.588h2.232c0.395,2.233,1.051,5.123,1.84,7.619
		c0.655-2.102,1.443-4.991,1.838-7.619h1.972C122.714,90.073,121.663,93.357,120.744,96.377L120.744,96.377z"/>
	<polygon fill="#5C73AD" points="125.735,96.377 125.735,86.789 130.728,86.789 130.728,88.366 127.705,88.366 127.705,90.73 
		130.201,90.73 130.201,92.306 127.705,92.306 127.705,94.801 130.856,94.801 130.856,96.377 	"/>
	<path fill="#5C73AD" d="M137.95,96.377l-1.971-3.939h-0.395v3.939h-1.97v-9.588c1.051,0,1.97,0,2.89,0
		c2.364,0,3.415,1.051,3.415,2.627c0,1.313-0.655,2.232-2.103,2.758l2.496,4.202L137.95,96.377L137.95,96.377z M136.375,88.234
		c-0.265,0-0.526,0-0.789,0v2.758c0.263,0,0.657,0,0.789,0c0.919,0,1.575-0.656,1.575-1.313
		C137.95,88.759,137.558,88.234,136.375,88.234L136.375,88.234z"/>
	<path fill="#5C73AD" d="M145.044,96.51c-0.92,0-1.839-0.264-2.759-0.92l0.524-1.051c0.525,0.262,1.184,0.525,2.103,0.525
		c1.051,0,1.444-0.525,1.444-1.182c0-1.839-3.81-1.183-3.81-4.335c0-1.708,1.183-2.89,3.021-2.89c1.052,0,1.84,0.394,2.496,0.92
		l-0.525,1.051c-0.395-0.263-1.051-0.526-1.707-0.526c-0.788,0-1.312,0.526-1.312,1.183c0,1.839,4.07,1.313,4.07,4.334
		C148.59,95.196,147.408,96.51,145.044,96.51L145.044,96.51z"/>
	<polygon fill="#5C73AD" points="151.349,86.789 153.188,86.789 153.188,96.377 151.349,96.377 	"/>
	<polygon fill="#5C73AD" points="159.624,88.366 159.624,96.377 157.785,96.377 157.785,88.366 155.683,88.366 155.683,86.789 
		161.726,86.789 161.726,88.366 	"/>
	<path fill="#5C73AD" d="M167.769,92.306v4.071h-1.84v-4.071c-1.051-1.839-1.839-3.547-2.627-5.517h2.102
		c0.395,1.313,0.92,2.627,1.576,3.809c0.525-1.182,1.052-2.496,1.576-3.809h1.84C169.606,89.022,168.817,90.73,167.769,92.306
		L167.769,92.306z"/>
	<path fill="#5C73AD" d="M54.411,101.633c1.839,0,2.627,0.918,2.627,2.103c0,1.312-0.919,2.363-2.89,2.363h-0.394v2.627h-0.919
		v-6.961C53.36,101.765,53.754,101.633,54.411,101.633L54.411,101.633z M53.754,105.312h0.525c1.183,0,1.839-0.525,1.839-1.445
		s-0.526-1.445-1.839-1.445h-0.525V105.312L53.754,105.312z"/>
	<path fill="#5C73AD" d="M62.555,108.726l-1.971-3.021H60.06v3.021h-0.788v-6.961c0.525-0.132,0.919-0.132,1.708-0.132
		c1.576,0,2.364,0.787,2.364,1.97c0,1.051-0.788,1.84-1.839,1.971l2.102,3.152H62.555L62.555,108.726z M60.716,102.42
		c-0.132,0-0.394,0-0.657,0v2.496c0.394,0,0.657,0,0.919,0c0.919,0,1.445-0.396,1.445-1.313
		C62.424,102.813,62.03,102.42,60.716,102.42L60.716,102.42z"/>
	<path fill="#5C73AD" d="M70.699,105.047c0,2.892-1.445,3.81-2.759,3.81c-1.576,0-2.627-1.051-2.627-3.545
		c0-2.496,1.313-3.679,2.758-3.679C69.648,101.633,70.699,102.685,70.699,105.047L70.699,105.047z M66.233,105.047
		c0,2.103,0.657,3.021,1.839,3.021c1.051,0,1.708-0.92,1.708-2.758c0-1.971-0.657-3.021-1.839-3.021
		C67.021,102.289,66.233,103.209,66.233,105.047L66.233,105.047z"/>
	<path fill="#5C73AD" d="M77.267,108.067c-0.395,0.396-1.183,0.656-1.97,0.656c-1.314,0-2.496-1.051-2.496-3.414
		c0-2.365,1.182-3.678,2.626-3.678c0.657,0,1.314,0.393,1.839,0.918l-0.395,0.395c-0.262-0.262-0.788-0.524-1.445-0.524
		c-0.919,0-1.708,0.92-1.708,2.758c0,1.972,0.789,2.892,1.839,2.892c0.394,0,0.656-0.131,0.919-0.264v-2.232h-1.051v-0.656h1.839
		v3.15H77.267z"/>
	<path fill="#5C73AD" d="M83.309,108.726l-1.97-3.021h-0.394v3.021h-0.919v-6.961c0.525-0.132,1.05-0.132,1.708-0.132
		c1.708,0,2.364,0.787,2.364,1.97c0,1.051-0.657,1.84-1.839,1.971l2.233,3.152H83.309L83.309,108.726z M81.601,102.42
		c-0.131,0-0.526,0-0.657,0v2.496c0.263,0,0.525,0,0.788,0c0.919,0,1.445-0.396,1.445-1.313
		C83.177,102.813,82.783,102.42,81.601,102.42L81.601,102.42z"/>
	<path fill="#5C73AD" d="M86.724,108.726h-0.919c0.525-2.232,1.182-4.729,1.97-6.961h1.182c0.788,2.362,1.445,4.598,1.97,6.961
		h-0.919c-0.131-0.525-0.263-1.052-0.394-1.576h-2.627C86.855,107.674,86.855,108.199,86.724,108.726L86.724,108.726z
		 M87.249,106.492h2.233c-0.394-1.314-0.788-2.627-1.182-4.072C87.906,103.733,87.512,105.047,87.249,106.492L87.249,106.492z"/>
	<path fill="#5C73AD" d="M99.99,108.726h-0.921c0-2.103-0.131-4.466-0.394-6.175l0,0l-2.102,6.175H96.05l-1.97-6.175l0,0
		c-0.263,1.709-0.263,4.072-0.394,6.175h-0.789c0-2.232,0.263-4.729,0.526-6.961h1.313l1.708,5.385l0,0l1.708-5.385h1.313
		C99.728,103.996,99.858,106.492,99.99,108.726L99.99,108.726z"/>
	<path fill="#5C73AD" d="M172.496,85.738c-0.132,0-0.263-0.131-0.524-0.131c-0.263,0-0.396,0.263-0.396,0.394
		c0,0.657,1.183,0.394,1.183,1.313c0,0.394-0.263,0.657-0.787,0.657c-0.264,0-0.525,0-0.789-0.131l0.131-0.262
		c0.133,0.131,0.396,0.131,0.526,0.131c0.394,0,0.524-0.131,0.524-0.394c0-0.657-1.182-0.394-1.182-1.313
		c0-0.394,0.394-0.657,0.787-0.657c0.264,0,0.525,0.132,0.656,0.132L172.496,85.738L172.496,85.738z"/>
	<path fill="#5C73AD" d="M175.78,87.971h-0.264c0-0.788,0-1.576-0.132-2.233l0,0l-0.788,2.233h-0.263l-0.655-2.233l0,0
		c-0.133,0.657-0.133,1.445-0.133,2.233h-0.395c0.132-0.788,0.132-1.708,0.263-2.627h0.526l0.523,2.102l0,0l0.657-2.102h0.524
		C175.78,86.264,175.78,87.184,175.78,87.971L175.78,87.971z"/>
	<path fill="#E92A35" d="M120.481,167.438c0-2.627-0.265-2.891-1.578-3.021l-0.523-0.131c-0.132,0-0.132-0.524,0-0.524
		c1.312,0,2.102,0,3.021,0s1.707,0,2.627,0c0.131,0,0.263,0.524,0.131,0.524l-0.395,0.131c-1.312,0.131-1.443,0.524-1.443,3.021
		v8.802c0,1.838,0,3.545-0.525,4.596c-0.656,1.972-2.365,3.416-4.467,3.416c-0.264,0-0.919,0-0.919-0.524
		c0-0.396,0.263-1.052,0.788-1.052c0.263,0,0.525,0,0.787,0.132c0.396,0.131,0.658,0.131,1.052,0.131s0.657-0.263,0.919-0.525
		c0.525-1.182,0.525-4.729,0.525-6.041V167.438L120.481,167.438z"/>
	<path fill="#E92A35" d="M132.04,175.058c-0.132-0.394-0.132-0.394-0.788-0.394h-2.89c-0.396,0-0.525,0-0.657,0.394l-0.656,1.971
		c-0.263,0.92-0.396,1.445-0.396,1.576c0,0.264,0,0.395,0.525,0.395l0.657,0.131c0.131,0,0.131,0.395-0.132,0.395
		c-0.395,0-1.051,0-1.971,0c-0.656,0-1.312,0-1.838,0c-0.133,0-0.133-0.395,0-0.395l0.655-0.131c0.396,0,0.788-0.264,1.052-0.92
		c0.395-0.92,0.92-2.102,1.707-4.203l1.971-5.123c0.263-0.787,0.395-1.051,0.263-1.445c0.524-0.131,0.788-0.393,1.051-0.656
		c0.132,0,0.263,0,0.263,0.134c0.264,0.918,0.525,1.707,0.92,2.625l2.496,7.618c0.656,1.576,0.92,1.841,1.707,1.972l0.525,0.131
		c0.131,0,0,0.396,0,0.396c-0.788,0-1.445,0-2.363,0c-0.92,0-1.576,0-2.233,0c-0.132,0-0.132-0.396,0-0.396l0.524-0.131
		c0.396,0,0.657-0.131,0.657-0.265c0-0.262,0-0.655-0.132-1.051L132.04,175.058L132.04,175.058z M128.229,173.351
		c-0.131,0.524-0.131,0.524,0.525,0.524h2.232c0.656,0,0.656-0.131,0.525-0.656l-1.051-3.021c-0.132-0.525-0.395-1.051-0.525-1.182
		l0,0c0,0-0.263,0.524-0.395,1.051L128.229,173.351L128.229,173.351z"/>
	<path fill="#E92A35" d="M135.979,169.017c-0.395-1.183-0.655-1.576-1.444-1.576l-0.394-0.133c-0.133,0-0.133-0.394,0-0.394
		c0.524,0,1.183,0,1.969,0c0.92,0,1.576,0,2.365,0c0.131,0,0.131,0.394,0,0.394l-0.263,0.133c-0.788,0-0.92,0.131-0.92,0.262
		c0,0.264,0.394,1.314,0.92,2.758c0.919,2.234,1.839,4.336,2.759,6.568c0.524-1.312,1.444-3.283,1.838-4.203
		c0.525-1.314,1.445-3.547,1.709-4.334c0.131-0.396,0.262-0.656,0.262-0.789c0-0.131-0.262-0.262-0.92-0.262l-0.394-0.133
		c-0.132,0,0-0.394,0.132-0.394c0.524,0,1.182,0,1.971,0c0.656,0,1.182,0,1.839,0c0.131,0,0.131,0.394,0,0.394l-0.525,0.133
		c-0.524,0-0.788,0.262-1.051,0.656c-0.524,0.92-1.183,2.362-2.103,4.334l-1.051,2.364c-0.789,1.707-1.576,3.938-1.971,4.99h-0.131
		c-0.133,0-0.264,0-0.395,0c-0.132-0.787-0.525-1.707-0.789-2.627L135.979,169.017L135.979,169.017z"/>
	<path fill="#E92A35" d="M152.662,175.058c-0.132-0.394-0.263-0.394-0.788-0.394h-2.891c-0.524,0-0.656,0-0.787,0.394l-0.657,1.971
		c-0.263,0.92-0.394,1.445-0.394,1.576c0,0.264,0.131,0.395,0.524,0.395l0.656,0.131c0.132,0,0.132,0.395,0,0.395
		c-0.525,0-1.183,0-1.97,0c-0.657,0-1.313,0-1.84,0c-0.132,0-0.263-0.395-0.132-0.395l0.657-0.131c0.525,0,0.919-0.264,1.182-0.92
		c0.264-0.92,0.789-2.102,1.709-4.203l1.838-5.123c0.264-0.787,0.395-1.051,0.395-1.445c0.395-0.131,0.789-0.393,0.92-0.656
		c0.131,0,0.264,0,0.395,0.134c0.131,0.918,0.525,1.707,0.787,2.625l2.627,7.618c0.525,1.576,0.789,1.841,1.576,1.972l0.526,0.131
		c0.131,0,0.131,0.396,0,0.396c-0.788,0-1.445,0-2.365,0c-0.788,0-1.575,0-2.103,0c-0.131,0-0.262-0.396,0-0.396l0.527-0.131
		c0.394,0,0.655-0.131,0.655-0.265c0-0.262-0.132-0.655-0.263-1.051L152.662,175.058L152.662,175.058z M148.853,173.351
		c-0.131,0.524-0.131,0.524,0.396,0.524h2.364c0.525,0,0.525-0.131,0.395-0.656l-1.051-3.021c-0.132-0.525-0.264-1.051-0.395-1.182
		h-0.133c0,0-0.131,0.524-0.394,1.051L148.853,173.351L148.853,173.351z"/>
	<path fill="#FFFFFF" d="M131.515,139.726c0.131,0,0.395,0,0.525-0.134l1.576-0.131c0.263,0,0.656,0,0.919,0l0.657-0.131
		c0.787,0,0.787,0,1.576,0c0-0.131-0.133-0.265-0.133-0.265c-0.787,0-0.919,0-1.707,0.134h-0.656c-0.131,0-0.395,0-0.525,0
		l-1.443,0.131c-0.264,0.131-0.525,0.131-0.658,0.131L131.515,139.726L131.515,139.726z"/>
	<path fill="#FFFFFF" d="M132.304,138.017c0.131,0,0.262,0,0.393,0l0.789-0.132h0.789c0.523,0,1.051-0.131,1.707-0.131h1.051h0.263
		c-0.131-0.131-0.263-0.131-0.396-0.131l-1.051-0.133c-0.131,0-0.131,0-0.131,0c-0.525,0.133-0.92,0.133-1.443,0.133l-0.789,0.131
		h-0.789c-0.262,0-0.393,0-0.524,0L132.304,138.017L132.304,138.017z"/>
	<path fill="#6062A7" d="M131.646,139.33l1.578-0.131c0.262,0,0.523,0,0.786,0l0.657-0.134c0.788,0,0.788,0,1.576,0
		c0-0.131-0.133-0.262-0.133-0.262c-0.786,0-0.786,0-1.707,0.131h-0.656c-0.131,0-0.264,0-0.523,0l-1.445,0.131L131.646,139.33
		L131.646,139.33z"/>
	<path fill="#6062A7" d="M132.171,137.754l0.788-0.131h0.788c0.525-0.133,1.184-0.133,1.708-0.133h1.051h0.263
		c-0.131-0.132-0.263-0.132-0.394-0.132l-1.051-0.131h-0.132c-0.396,0-0.92,0.131-1.445,0.131h-0.788l-0.788,0.132V137.754
		L132.171,137.754z"/>
	<path fill="#FFFFFF" d="M148.853,121.334c-0.787,0.396-1.051,1.313-1.576,1.84c-0.131,0.396,0.396,0.263,0.525,0.396
		c-0.394,0.393-0.787,0.393-1.182,0.656c-0.92,1.575-2.102,3.414-1.312,5.385c0.787,2.231,3.021,3.811,3.809,6.043
		c-1.576-2.76-4.991-4.861-4.467-8.406c0.133-0.789,0.525-1.576,0.789-2.234l-0.131-0.131c-3.021,1.84-6.568,4.598-7.488,8.145
		c-0.655,3.548,4.203,3.414,4.861,6.306c-0.264,2.231-2.496,3.938-4.203,5.385c-0.264,0.132-0.526,0.265-0.789,0.265l0.131-0.396
		c1.576-1.444,3.811-3.021,4.336-5.123c0-2.103-2.233-2.364-3.416-3.416c-0.788-0.787-1.444-1.707-1.312-2.889
		c0.524-3.416,4.598-7.226,8.406-9.062c0.656-0.921,1.312-2.234,2.102-3.021C148.327,121.072,148.59,121.334,148.853,121.334
		L148.853,121.334z"/>
	<path fill="#FFFFFF" d="M145.7,113.849c-0.525-0.789-1.051-1.707-1.84-2.103c-2.102-1.445-5.254-1.576-7.617-0.524
		c-7.094,2.889-6.438,10.901-7.094,17.469l-0.262,0.133c-1.313,0-2.496-0.396-3.679-0.92c-1.839-1.182-2.233-3.283-2.233-5.254
		c0.396-3.547,1.971-7.094,5.387-8.67c0.918-0.656,1.839-0.787,2.89-1.183c-0.92-0.131-1.708,0.263-2.364,0.525
		c-4.335,0.786-8.013,4.729-8.933,8.932c-1.052,3.679-0.263,7.75,2.759,10.377c1.971,1.707,5.648,1.972,7.881,0.789l1.051,0.787
		c0,0.524,0.133,1.183,0.133,1.707c0.131,0.92,0.787,1.576,0.918,2.365c-0.655,1.312-1.443,2.495-2.231,3.678
		c-0.788,1.312-0.396,0-1.183,1.576c0.395,0,0.656-0.396,1.051-0.525c1.576-2.495,1.576-1.84,2.891-4.467
		c0.787,0.524,1.838,1.313,1.971,2.233h0.132c-0.132-1.184-1.313-1.709-2.103-2.495l0.262-1.185c0.264-0.522,0.789-0.787,0.92-1.312
		c-0.395,0.131-0.395,0.655-0.787,0.92c-0.133-0.92-0.525-1.709-1.312-2.365l0.131-0.131l1.312,0.524
		c0.264,0.132,0.788,0,0.656,0.396h0.132l0,0c0.396,1.838,1.84,3.151,2.759,4.599c-0.395-1.576-1.97-2.629-2.232-4.336l0.131-0.263
		c0.92,0.263,1.84,0.524,2.627,1.183c0.525,0.655,0.525,1.575,0.396,2.364c-1.051,2.232-2.495,4.334-4.071,6.306
		c0,0.393-0.396,0.787,0.131,0.918c0.132-0.263,1.839-3.021,2.232-3.152c0.788-1.576,0.788-0.656,1.444-2.363
		c0.264-0.92,0.657-1.84,0.657-2.891c-0.131-1.969-2.232-2.102-3.547-2.889c-0.131-0.525,0.131-1.052,0.395-1.183
		c0.131-0.264-0.131-0.396,0-0.657c0.656-1.707,2.102-3.283,3.547-4.466c0.131-0.396-0.132-0.396-0.395-0.524
		c-1.576,1.312-2.76,2.889-3.678,4.465c-0.525-0.262-1.184-0.918-1.707-0.525c0.523,0.395,1.312,0.395,1.574,1.051
		c-0.263,0.525-0.131,1.182-0.395,1.709c-0.656-0.264-1.444-0.395-2.102-0.92c0.131-0.789,0.264-1.709,0.92-2.365
		c1.051-2.496,3.678-4.465,6.043-5.123c0.394-0.131,0.918-0.131,1.182-0.262c-0.131-0.395-0.395-0.264-0.788-0.264
		c-2.103,0.525-3.94,1.84-5.517,3.416l-0.525-0.789c0.263-0.393,0.263-0.525,0.525-0.918c0.394-0.395,0.918-1.314,1.707-1.184
		c0.262-0.131,0.262-0.394,0.395-0.525c0.788-0.787,1.576-1.312,2.495-1.707c0.526-0.525,0.395,0.525,0.92,0.264
		c0.131-0.395-0.132-0.92-0.525-1.051c-0.263,0-0.524-0.133-0.655,0c-0.658,0.525-1.313,1.051-2.103,1.443
		c-0.132-0.394,0.131-0.918,0.131-1.443s1.052-0.264,0.921-0.92c-0.264-0.131-0.527-0.264-0.658-0.131
		c-0.394-0.789,0.131-1.971-0.524-2.627c0,0.918,0,1.838-0.132,2.758l-0.264,0.395c-1.182,0.787-2.758,1.707-3.809,2.89l0.131-0.396
		c0.657-1.838,1.312-3.678,1.971-5.385c0.395-1.576,0.92-3.547,0.133-4.99c0.394,3.545-1.314,6.437-2.365,9.457
		c-0.131,1.576-1.444,2.627-2.232,4.07c0-4.07,0.131-8.143,1.707-11.689c1.576-3.545,5.254-5.778,8.934-5.518
		c2.363,0.133,4.729,1.445,5.517,3.811c1.444,4.203-2.103,7.226-4.992,9.853c0,0.131,0.132,0.131,0.265,0.131
		c1.312-0.396,2.231-1.576,3.414-2.496h-0.524C146.095,120.151,146.883,116.737,145.7,113.849L145.7,113.849z M124.29,133.156
		c-3.152-1.707-4.598-4.992-4.466-8.537c0.394-3.941,2.364-7.488,5.911-9.591h0.131c-2.364,2.365-3.415,5.519-3.152,8.933
		c0,1.84,1.051,3.812,2.891,4.599c0.92,0.524,2.102,0.524,3.283,0.789c0.131,0.655-0.395,1.312-0.263,1.971l0.131-0.264
		c0.524,0,0.524,0.786,0.92,1.182c0.132,0.264,0.394,0.524,0.525,0.789C128.362,133.812,125.998,134.076,124.29,133.156
		L124.29,133.156z M131.908,133.156c-0.263,0.131-0.394,0-0.525-0.132l0.788-0.655L131.908,133.156L131.908,133.156z
		 M132.828,135.783c0.263,0.524,0,1.182-0.132,1.707c-0.395-0.656-0.395-1.576-0.395-2.496
		C132.565,135.127,132.696,135.521,132.828,135.783L132.828,135.783z M132.565,131.187c0,0.524-0.92,0.92-1.445,1.184
		c0-1.578,1.051-2.891,2.232-4.072c0.264,0,0.131,0.262,0.264,0.393C133.747,130.135,133.091,130.397,132.565,131.187
		L132.565,131.187z M133.616,124.881l0.263-0.262c0.656-0.396,1.183-0.92,1.97-1.313c-0.131,0.788-0.131,1.575-0.656,2.231
		c-0.262-0.131-0.131,0.264-0.395,0.396c-1.312,0.789-1.839,2.758-3.678,2.627l0.656-2.103
		C132.565,125.933,132.696,125.146,133.616,124.881L133.616,124.881z M131.383,126.457l-0.655,2.103h-0.789L131.383,126.457
		L131.383,126.457z M129.544,129.215c0.788,0.134,1.708-0.262,2.364-0.262c-0.788,1.182-1.707,2.364-1.313,3.81
		c-0.394-0.132-0.525-0.525-0.787-0.921C129.413,131.056,129.149,130.004,129.544,129.215L129.544,129.215z"/>
	<path fill="#E92A35" d="M148.59,121.072c-0.919,0.395-1.182,1.312-1.707,1.838c-0.132,0.396,0.394,0.133,0.525,0.396
		c-0.263,0.264-0.788,0.395-1.183,0.655c-0.92,1.576-2.103,3.416-1.313,5.388c0.92,2.231,3.021,3.809,3.81,6.041
		c-1.576-2.759-4.99-4.859-4.466-8.537c0.132-0.656,0.524-1.445,0.788-2.103l-0.132-0.131c-3.021,1.707-6.567,4.596-7.486,8.143
		c-0.657,3.548,4.203,3.416,4.991,6.175c-0.395,2.364-2.628,4.071-4.335,5.518c-0.263,0.131-0.396,0.262-0.656,0.131v-0.264
		c1.576-1.576,3.81-3.021,4.334-5.254c0.132-1.971-2.231-2.232-3.282-3.283c-0.789-0.92-1.445-1.707-1.445-2.891
		c0.656-3.545,4.729-7.224,8.537-9.062c0.525-0.92,1.183-2.232,2.103-3.021C147.935,120.81,148.196,120.94,148.59,121.072
		L148.59,121.072z"/>
	<path fill="#E92A35" d="M145.438,113.586c-0.525-0.789-1.183-1.709-1.971-2.233c-2.102-1.312-5.254-1.445-7.486-0.396
		c-7.094,2.892-6.567,10.901-7.226,17.34l-0.131,0.263c-1.444,0-2.627-0.396-3.679-0.92c-1.971-1.183-2.232-3.283-2.232-5.386
		c0.395-3.414,1.84-6.961,5.254-8.537c0.92-0.657,1.971-0.92,2.891-1.184c-0.92-0.132-1.576,0.264-2.364,0.524
		c-4.335,0.658-7.882,4.73-8.933,8.801c-0.918,3.679-0.263,7.882,2.76,10.511c2.102,1.707,5.646,1.969,7.881,0.655l1.182,0.918
		c-0.131,0.527,0,1.185,0,1.709c0.133,0.921,0.788,1.443,0.92,2.363c-0.525,1.314-1.312,2.496-2.232,3.678
		c-0.788,1.314-0.264,0-1.051,1.576c0.263-0.131,0.524-0.393,0.92-0.524c1.576-2.494,1.576-1.838,2.89-4.466
		c0.788,0.525,1.97,1.312,1.97,2.232l0.133-0.131c-0.133-1.051-1.313-1.576-1.972-2.365l0.132-1.182
		c0.264-0.525,0.788-0.789,0.92-1.312c-0.264,0.131-0.395,0.656-0.787,0.918c-0.133-0.918-0.526-1.838-1.314-2.362l0.132-0.134
		l1.444,0.396c0.132,0.265,0.656,0.134,0.525,0.524l0.131-0.131l0.133,0.131c0.262,1.841,1.707,3.152,2.625,4.599
		c-0.394-1.576-1.969-2.758-2.102-4.467v-0.131c0.92,0.264,1.84,0.524,2.629,1.182c0.523,0.658,0.523,1.578,0.394,2.365
		c-1.052,2.231-2.495,4.334-3.94,6.305c-0.132,0.265-0.395,0.789,0,0.92c0.264-0.264,1.84-3.021,2.232-3.151
		c0.787-1.576,0.787-0.656,1.445-2.365c0.263-0.918,0.787-1.838,0.656-2.889c-0.132-1.972-2.232-2.234-3.547-3.021
		c-0.132-0.395,0.131-0.92,0.525-1.182c0-0.265-0.133-0.396-0.133-0.525c0.658-1.709,2.104-3.285,3.547-4.467
		c0.264-0.395-0.131-0.395-0.394-0.525c-1.577,1.314-2.759,2.891-3.679,4.467c-0.525-0.264-1.182-0.92-1.576-0.524
		c0.395,0.393,1.184,0.393,1.445,1.051c-0.264,0.394-0.131,1.183-0.395,1.707c-0.656-0.265-1.445-0.396-2.103-0.92
		c0.132-0.918,0.396-1.707,1.051-2.363c0.92-2.495,3.547-4.467,6.043-5.123c0.394-0.131,0.787-0.131,1.183-0.264
		c-0.264-0.394-0.525-0.263-0.92-0.263c-2.102,0.525-3.939,1.839-5.518,3.414l-0.395-0.787c0.131-0.395,0.131-0.524,0.525-0.92
		c0.395-0.395,0.919-1.312,1.707-1.312c0.264,0,0.132-0.264,0.264-0.524c0.787-0.658,1.576-1.185,2.496-1.709
		c0.524-0.394,0.524,0.524,0.92,0.395c0.131-0.395-0.133-0.92-0.527-1.182c-0.262,0-0.393,0-0.523,0.131
		c-0.788,0.525-1.445,0.92-2.104,1.445c-0.262-0.525,0-0.92,0-1.445c0.133-0.525,1.053-0.262,0.921-0.92
		c-0.132-0.131-0.396-0.394-0.656-0.131c-0.396-0.787,0.131-1.972-0.396-2.627c-0.131,0.789-0.131,1.84-0.263,2.758l-0.263,0.395
		c-1.182,0.789-2.76,1.707-3.811,2.891l0.133-0.395c0.656-1.84,1.312-3.678,1.97-5.518c0.396-1.443,0.92-3.414,0.132-4.859
		c0.395,3.416-1.312,6.305-2.232,9.457c-0.131,1.576-1.576,2.627-2.364,3.941c0-3.941,0.263-8.146,1.708-11.562
		c1.576-3.545,5.254-5.778,8.932-5.646c2.364,0.262,4.729,1.576,5.648,3.809c1.312,4.203-2.233,7.355-5.123,9.982
		c0,0.131,0.263,0.131,0.394,0.131c1.183-0.393,2.233-1.576,3.284-2.494h-0.395C145.832,119.758,146.487,116.476,145.438,113.586
		L145.438,113.586z M124.026,132.894c-3.282-1.707-4.729-5.121-4.598-8.537c0.396-3.939,2.496-7.486,5.911-9.588h0.263
		c-2.363,2.362-3.414,5.516-3.283,8.801c0.132,1.969,1.183,3.809,2.891,4.596c1.051,0.525,2.232,0.658,3.283,0.92
		c0.132,0.656-0.395,1.314-0.264,1.971l0.133-0.264c0.656,0,0.525,0.789,0.919,1.184c0.132,0.262,0.395,0.525,0.524,0.787
		C128.101,133.42,125.735,133.812,124.026,132.894L124.026,132.894z M131.646,132.894c-0.394,0.133-0.524,0-0.655-0.131l0.788-0.656
		L131.646,132.894L131.646,132.894z M132.435,135.521c0.262,0.523,0.131,1.183,0,1.707c-0.525-0.655-0.525-1.707-0.525-2.627
		C132.171,134.731,132.304,135.127,132.435,135.521L132.435,135.521z M132.304,130.924c-0.133,0.525-1.052,0.918-1.445,1.183
		c0-1.576,0.92-2.892,2.102-4.072c0.264-0.131,0.264,0.131,0.264,0.264C133.354,129.873,132.828,130.004,132.304,130.924
		L132.304,130.924z M133.224,124.619l0.262-0.265c0.656-0.524,1.312-1.051,1.971-1.312c0,0.656-0.131,1.576-0.657,2.103
		c-0.263,0-0.131,0.393-0.394,0.524c-1.182,0.787-1.84,2.758-3.547,2.494l0.524-1.97
		C132.171,125.67,132.304,124.881,133.224,124.619L133.224,124.619z M131.12,126.194l-0.788,2.103h-0.656L131.12,126.194
		L131.12,126.194z M129.149,128.953c0.789,0.131,1.707-0.396,2.365-0.265c-0.658,1.185-1.709,2.365-1.313,3.812
		c-0.396-0.131-0.525-0.524-0.657-0.92C129.149,130.791,128.888,129.74,129.149,128.953L129.149,128.953z"/>
	<path fill="#FFFFFF" d="M142.022,139.854c-0.395,0.131-0.92,0.263-1.313,0.263c-0.131,0-0.394,0.133-0.524-0.132
		C140.972,140.117,141.497,139.726,142.022,139.854L142.022,139.854z"/>
	<path fill="#FFFFFF" d="M140.054,140.117c-0.921,0.264-1.84,0.264-2.891,0.264c0.131,0-0.92,0.132-1.053,0.132v-0.132h0.133
		C137.426,140.25,138.737,139.985,140.054,140.117L140.054,140.117z"/>
	<path fill="#FFFFFF" d="M148.196,142.744c-0.525,0.657-1.709,0.264-2.364,0.92c-1.313,0.396-3.151,0.396-4.335,0.264
		c0.395-0.264,1.051-0.133,1.443-0.264c-0.394-0.263-0.918,0.131-1.312-0.131c1.183-0.265,2.89-0.265,4.203-0.656
		c0.788,0.131,1.707,0,2.364-0.396V142.744L148.196,142.744z"/>
	<path fill="#FFFFFF" d="M122.978,143.14l0.263,0.264c0.919,0.262,2.102,0,2.89,0.524c-1.182,0-2.627,0-3.546-0.657
		C122.451,142.744,123.106,143.14,122.978,143.14L122.978,143.14z"/>
	<path fill="#FFFFFF" d="M146.226,147.211c-1.051,0.656-2.231,0.656-3.414,0.92c-4.072,0.394-8.67,0.525-12.873,0.131
		c-0.524,0-1.183-0.131-1.707-0.395c0.395-0.263,1.051-0.396,1.707-0.525c4.467,0.396,9.326,0.265,13.397-0.786
		c0.263-0.134,0.524-0.265,0.396-0.525c-3.941,1.051-8.275,1.182-12.61,1.051c-0.263,0-0.263,0-0.656-0.133h-0.396
		c-0.262,0-0.394,0-0.655,0c-0.92-0.393-2.103-0.131-2.89-0.918c0.656-0.396,1.443-0.658,2.231-0.92l2.364,0.131l0.263-0.131
		l-0.524-0.131c-0.656,0-0.789-0.133-1.576-0.133c-0.656-0.132-1.576,0-1.576,0c-0.131,0.133-0.395,0.133-0.525,0.133
		c-0.524,0.131-0.918,0.131-1.443,0.524c-0.133,0.131,0.131,0.394-0.133,0.524c-0.394-0.133-0.918-0.524-1.312-0.395
		c0.132,0.131,0.395,0.262,0.657,0.395c0.524,0.263,0.263,0.656,0.394,1.052c0.133,0.394,0.657,0.394,0.788,0.787l0.396,0.131
		c0,0.133,0,0.133-0.133,0.264c-0.394,0.132-0.524,0.525-0.918,0.656c0,0-0.133,0.396,0,0.789c0.131,0.262,0.787,0.656,1.312,1.051
		c0,0.132,0.131,0,0.395,0.132c-0.264,0.264-1.052,0.524-0.789,1.051c0.264,0.92,1.313,0.92,1.971,1.313
		c-0.131,0.131,0.395,0.787,0.789,0.656c0.787,0.396,1.707,0.396,2.627,0.524c1.445,0.787,3.414,0.656,4.99,0.525
		c2.364-0.133,4.729-0.264,6.699-1.314c-2.102,0.658-4.335,0.658-6.568,0.658c1.84-0.395,3.68-0.658,5.519-1.051
		c0.524-0.264,1.052-0.527,1.707-0.789l-0.788,0.262c-3.415,0.396-6.83,1.314-10.377,1.185c-0.525-0.134-0.788,0-1.051-0.134
		c-0.131-0.131,0-0.262,0.132-0.393c4.071,0,8.274,0.262,11.69-1.445c0.524-0.131,1.051-0.264,1.312-0.655l-0.132-0.132
		l-0.394,0.263c-2.76,0.131-5.78,0.262-8.67,0c-0.656,0-1.313,0-1.971-0.131c3.284-0.265,6.566-0.396,9.59-1.314
		c0.262-0.262,0.918-0.262,0.655-0.786l-0.394,0.262c-4.203,1.051-8.67,1.445-13.398,1.182c-0.131-0.131-0.264,0.133-0.525-0.131
		c0.133-0.131,0.525-0.525,0.396-0.393c-0.524,0-1.052,0.131-1.576,0.262c-0.263,0.131-0.657,0-0.788-0.262
		c0.919-0.789,1.971-1.185,3.021-1.314c4.203,0.395,8.145,0,12.216-0.395l0.396-0.132c0.655,0,1.443-0.264,2.102-0.395
		C145.832,147.604,146.356,147.604,146.226,147.211L146.226,147.211z M125.735,146.815c0.394-0.92,0.918,0.265,1.576,0.132
		c0.263,0.133,0.655,0.264,1.051,0.264c-0.264,0.263-0.788,0.263-1.051,0.524C126.786,147.474,125.866,147.474,125.735,146.815
		L125.735,146.815z M131.383,153.646c-0.263,0.131-0.788,0-1.051-0.131c0.263-0.262,0.524,0,0.92-0.131
		C131.383,153.517,131.515,153.646,131.383,153.646L131.383,153.646z M135.192,152.069h5.91c-2.365,0.789-5.254,0.789-7.881,0.656
		C133.879,152.465,134.403,152.069,135.192,152.069L135.192,152.069z M133.616,152.069c-0.525,0.134-0.92,0.525-1.445,0.525
		c0,0,0,0,0-0.131h-0.131c-0.525,0.131-1.184,0.395-1.839,0.131c-0.263,0-0.396,0.131-0.657,0
		C130.728,151.676,132.304,151.938,133.616,152.069L133.616,152.069z M128.362,151.151c0.394,0.132,0.787,0.394,1.051,0.523
		c0.131,0.133,0.263-0.131,0.395,0.133c-0.264,0.131-0.656,0.262-0.92,0.396c0,0-0.395,0.131-0.525,0.262
		c-0.524-0.131-1.312-0.262-1.575-0.655C127.181,151.414,127.705,151.021,128.362,151.151L128.362,151.151z M127.442,150.103
		c-0.525,0-1.444,0-1.707-0.658c0.394-0.656,1.051-0.787,1.576-1.183c0.655,0.132,1.312,0.263,1.969,0.396
		C128.756,149.183,127.705,149.183,127.442,150.103L127.442,150.103z"/>
	<path fill="#FFFFFF" d="M157.392,156.406c0,0.524-0.395,0.786-0.789,1.182c-1.183,0.787-2.758,1.052-4.203,1.183
		c-1.838,0.264-3.81,0.395-5.647,0.395c-3.021-0.131-6.567,0.262-9.588-0.131c0,0,0,0,0-0.133h10.508
		c0.524,0,0.919-0.394,1.313-0.262v-0.132c-1.576,0-3.547,0-5.254,0l-2.627,0.132c3.283-0.396,8.406-1.052,11.559-1.972
		c0-0.131,0.131-0.131,0.263-0.131c0-0.131,0.919-0.524,0.919-1.051c0-0.396-0.263-0.658-0.525-0.921
		c-0.131-0.262-0.393-0.395-0.524-0.262c0.132,0.131,0.265,0.394,0.396,0.394c0.656,0.395-0.131,0.789-0.396,1.051
		c-1.707,1.051-3.81,1.185-5.909,1.185c0,0-0.789,0-1.709,0c-1.839,0-3.546,0-5.254-0.134c-4.597,0.134-8.932,0.396-13.396,0
		c-0.133,0-0.396,0-0.525,0c-1.445-0.131-2.496-0.262-3.811-0.393c-0.262,0-1.575-0.265-1.707-1.185
		c0.92-0.918,2.103-1.051,3.283-1.312c0.657,0,1.313-0.396,1.972-0.265v-0.131c-0.396,0-0.657,0-1.183,0
		c-0.396-0.131-0.656-0.131-1.183,0c-2.233,0-3.94,0.92-5.778,1.84c-0.265,0.263-0.396,0.525-0.265,1.052
		c0.132,0.524,0.657,1.051,1.052,1.312c-0.92,0-1.839-0.395-2.628-0.92c0.132,0.133,0,0.395,0.263,0.525
		c1.709,1.445,4.072,1.314,6.174,1.709l1.971,0.918c5.911,2.102,12.609,0.789,18.915,0.525c2.233-0.263,4.598-0.131,6.698-0.918
		c1.707-0.134,3.285-0.396,4.729-0.789c1.183-0.525,2.89-0.396,3.021-1.972C157.392,156.668,157.653,156.406,157.392,156.406
		L157.392,156.406z M122.188,157.981l-0.92-0.92c-0.131,0.131,0.131,0.525,0,0.656c-1.183-0.131-3.152-0.525-3.416-1.182
		c-0.262-0.525,1.313-1.314,2.103-1.576l0.132,0.787c0.657,1.051,1.839,1.051,2.76,1.314c3.021,0.262,6.041,0.655,8.932,0.524h9.193
		h0.657C135.324,159.033,128.493,158.113,122.188,157.981L122.188,157.981z M132.959,160.608c-2.758,0-6.042-0.264-8.801-1.313
		v-0.131c1.577,0.262,3.416-0.131,5.122,0.131c0.396,0,0.264,0,0.658,0c4.858,0.396,11.689,0.265,16.549,0.396
		C142.548,160.215,136.899,160.478,132.959,160.608L132.959,160.608z"/>
	<path fill="#FFFFFF" d="M157.392,140.906l-0.132-0.525C157.26,140.512,157.521,140.644,157.392,140.906L157.392,140.906z"/>
	<path fill="#6062A7" d="M156.865,140.644l-0.132-0.394C156.733,140.381,156.997,140.512,156.865,140.644L156.865,140.644z"/>
	<path fill="#FFFFFF" d="M157.916,140.906c-1.444-2.365-3.81-3.548-6.437-3.679c-1.313,0.131-2.496,0.525-3.547,0.92
		c-0.395,0.394-0.656,0.394-0.787,0.787c-0.396,0.265-0.92,0.265-1.313,0.396c0,0.131,0.524,0,0.655,0.131
		c0.264-0.131,1.052,0.131,1.184-0.655c1.312-0.396,2.495-1.183,3.939-0.921c0,0.132,0,0.132,0,0.132
		c-1.312,0.524-2.627,0.789-3.81,1.184c-0.788,0.525-1.706,0.656-2.627,0.787c-0.524,0.264-0.919,0.131-1.444,0.395
		c-3.94,0.262-8.013,0.656-12.084,0.525c0.131-0.131,0.263-0.131,0.131-0.264c-0.92,0-1.707,0.133-2.627,0.133l-0.131,0.131h-3.81
		l-0.396-0.131c1.313-0.396,2.496-0.525,3.811-0.789c0.395,0,0.525,0,0.788-0.131c0.655,0,1.444-0.131,1.97-0.131l0.133-0.265
		c-2.103,0.265-4.467,0.524-6.699,0.92c-0.525,0-0.92,0.396-1.444,0.263c-0.132-0.132-0.265-0.263-0.265-0.525
		c0.92-0.525,1.972-0.787,2.892-1.051c1.313-0.525,2.627-0.787,3.81-0.918c0.787,0,1.575,0,2.496-0.133l-0.133-0.263
		c-1.051,0.131-2.232,0.263-3.283,0.263c-0.525,0-7.225,1.444-7.486,2.364c0,0.396,0,0.525,0.132,0.656
		c0.524,0.92,1.575,0.92,2.626,1.051l0.132,0.131c0.396,0.789,1.183,1.185,1.839,1.709c2.76,0.787,5.779,0.394,8.932,0.394h0.396
		c0.655,0.133,1.183,0.133,1.839,0l-0.131-0.131h-4.729c-0.131-0.131-0.92-0.131-1.313-0.131c-0.131-0.131-0.263,0-0.524-0.131
		c-1.445,0-2.365-0.265-3.679-0.658c-0.131-0.263,0.132-0.263,0.263-0.394c-0.263,0.131-0.656,0-0.787,0.263
		c-0.264,0.131-0.395,0.131-0.525,0c-0.131-0.132-0.131-0.132-0.395-0.263c-0.263,0-0.524-0.264-0.656-0.524l0.132-0.134
		c1.051,0.134,2.364-0.393,3.282,0c2.365,0.134,4.861,0.134,6.963,0c2.494,0.134,4.99-0.393,7.486-0.786
		c1.444,0.131,2.364-1.445,3.81-1.052v0.132c-0.525,0.395-1.576,0.92-1.444,1.706l0.131-0.131l0.133,0.396
		c0-0.131,0.131-0.265,0.131-0.396c1.445-1.444,3.414-2.103,5.254-2.627c0.656-0.131,1.445-0.262,1.971,0.131
		c-0.132,0.658-0.264,1.445-0.788,1.972c-0.263-0.525-0.263-1.183-0.919-1.576c-0.132,0-0.789,0-0.789,0
		c-0.262,0.264-0.788,0.264-1.182,0.395c0.656,0,1.707-0.264,2.232,0.262c0.262,0.525,0,1.051-0.132,1.576
		c-0.263,0.525-0.657,1.051-0.657,1.576c-0.787,1.314-1.97,2.365-2.89,3.547h0.263c2.364-1.971,4.072-4.072,5.387-6.699
		c0.263,0,0.656-0.655,0.92-0.262c0,0.787,0.131,1.445,0,1.707l0,0c0,0.656-0.133,1.182-0.526,1.707
		c-1.051,1.971-2.758,3.678-4.597,5.123c0.131,0,0.394-0.262,0.525-0.262c2.627-1.051,5.517-4.861,5.778-8.275
		c0-0.395,0.394-0.395,0.656-0.264c0.524,0,0.524,0.658,0.788,0.92c0.132,0.525-0.131,1.314,0.132,1.84
		c0.396-0.264,0.263-0.789,0.524-1.184l0.131,0.133c0,1.312-0.655,2.494-1.707,3.545l-0.131,0.264
		c-2.365,2.363-5.254,4.334-8.537,5.123c-0.396,0.131-1.051-0.133-1.313,0.131c0.656,0.396,1.444,0.131,2.103,0.131
		c3.283-0.918,6.436-2.889,8.668-5.778C157.26,144.319,158.704,142.613,157.916,140.906L157.916,140.906z M121.926,141.037
		c-0.131-0.263,0-0.524,0.263-0.656c0.396-0.131,0.264,0.263,0.396,0.396c0.524,0.393,1.444,0.131,1.707,0.787
		C123.502,141.562,122.583,141.562,121.926,141.037L121.926,141.037z M124.946,141.826l-0.131-0.134l0.263-0.262
		c5.647,0.262,11.56,0,17.075-0.524C136.769,142.219,130.595,142.219,124.946,141.826L124.946,141.826z"/>
	<path fill="#6062A7" d="M141.497,139.592c-0.395,0.134-0.788,0.265-1.182,0.265c-0.264,0-0.396,0-0.657-0.131
		C140.446,139.726,140.972,139.461,141.497,139.592L141.497,139.592z"/>
	<path fill="#6062A7" d="M139.526,139.854c-0.789,0.263-1.84,0.263-2.758,0.263l-1.052,0.133l-0.132-0.133l0.132-0.132
		C137.031,139.985,138.214,139.726,139.526,139.854L139.526,139.854z"/>
	<path fill="#6062A7" d="M147.671,142.481c-0.525,0.656-1.708,0.263-2.363,0.92c-1.313,0.394-3.021,0.394-4.336,0.263
		c0.396-0.263,1.051-0.131,1.445-0.396c-0.395-0.131-0.92,0.265-1.312,0c1.312-0.262,2.89-0.262,4.203-0.656
		c0.787,0,1.707-0.131,2.363-0.524V142.481L147.671,142.481z"/>
	<path fill="#6062A7" d="M122.451,142.877l0.396,0.131c0.918,0.396,1.969,0.132,2.889,0.656c-1.312,0-2.758,0-3.678-0.656
		C121.926,142.481,122.583,142.744,122.451,142.877L122.451,142.877z"/>
	<path fill="#6062A7" d="M145.7,146.947c-0.92,0.657-2.232,0.657-3.283,0.92c-4.072,0.396-8.801,0.524-12.873,0.131
		c-0.656-0.131-1.312-0.131-1.839-0.394c0.524-0.395,1.183-0.524,1.708-0.524c4.466,0.394,9.324,0.262,13.527-0.789
		c0.133-0.131,0.396-0.263,0.396-0.524c-4.071,1.051-8.405,1.182-12.608,1.051c-0.264-0.131-0.396,0-0.658-0.131h-0.394
		c-0.395,0-0.395,0-0.657,0c-1.051-0.396-2.231-0.131-3.021-0.92c0.655-0.525,1.576-0.656,2.364-0.92l2.363,0.133l0.131-0.133
		l-0.394-0.132c-0.788,0-0.788-0.131-1.575-0.131c-0.658-0.131-1.709,0-1.709,0c-0.131,0-0.394,0-0.525,0.131
		c-0.524,0.132-0.918,0-1.312,0.525c-0.263,0.131,0.133,0.395-0.131,0.524c-0.395-0.131-0.92-0.524-1.445-0.524
		c0.264,0.264,0.525,0.395,0.789,0.524c0.395,0.131,0.262,0.525,0.395,1.051c0,0.396,0.525,0.396,0.787,0.789l0.395,0.131
		c0,0.132-0.131,0.132-0.263,0.263c-0.394,0.133-0.525,0.396-0.919,0.658c0,0-0.133,0.393,0,0.655
		c0.131,0.396,0.787,0.789,1.312,1.051c0.131,0.132,0.264,0.132,0.395,0.263c-0.264,0.265-1.051,0.526-0.788,1.051
		c0.263,0.92,1.313,0.789,2.102,1.185c-0.263,0.131,0.263,0.787,0.657,0.787c0.788,0.264,1.707,0.395,2.627,0.524
		c1.443,0.789,3.415,0.656,4.991,0.524c2.364-0.262,4.729-0.262,6.83-1.312c-2.103,0.525-4.466,0.656-6.698,0.656
		c1.839-0.396,3.678-0.656,5.516-1.051c0.526-0.265,1.051-0.656,1.709-0.787l-0.789,0.262c-3.414,0.396-6.83,1.312-10.377,1.183
		c-0.394-0.131-0.656,0-1.051-0.131c0-0.263,0.133-0.263,0.133-0.396c4.07-0.131,8.273,0.133,11.82-1.576
		c0.395-0.131,1.051-0.131,1.312-0.524l-0.262-0.263l-0.395,0.263c-2.627,0.133-5.779,0.395-8.669,0.133
		c-0.657,0-1.313,0-1.841-0.133c3.152-0.263,6.438-0.525,9.457-1.312c0.265-0.264,0.92-0.395,0.658-0.789l-0.264,0.264
		c-4.334,1.051-8.801,1.443-13.396,1.051c-0.264,0-0.396,0.132-0.657,0c0.263-0.131,0.524-0.524,0.395-0.395
		c-0.524-0.131-0.92,0.131-1.444,0.264c-0.395,0.131-0.656,0-0.92-0.264c0.92-0.789,1.971-1.182,3.152-1.314
		c4.071,0.396,8.145,0,12.084-0.393l0.395-0.133c0.656,0,1.445-0.262,2.232-0.393C145.308,147.342,145.832,147.342,145.7,146.947
		L145.7,146.947z M125.21,146.422c0.395-0.787,0.919,0.396,1.576,0.265c0.395,0,0.656,0.262,1.182,0.262
		c-0.394,0.264-0.787,0.264-1.182,0.525C126.261,147.211,125.474,147.211,125.21,146.422L125.21,146.422z M130.989,153.385
		c-0.396,0.132-0.92,0-1.184-0.131c0.264-0.264,0.657,0,1.051-0.133C130.856,153.254,130.989,153.254,130.989,153.385
		L130.989,153.385z M134.667,151.81h5.911c-2.364,0.787-5.254,0.787-7.882,0.655C133.354,152.203,133.879,151.81,134.667,151.81
		L134.667,151.81z M133.224,151.81c-0.527,0.131-0.92,0.524-1.578,0.524c0,0,0-0.131,0.133-0.131l-0.133-0.134
		c-0.655,0.134-1.312,0.525-1.97,0.265c-0.263,0-0.395,0.131-0.524,0C130.332,151.283,131.776,151.676,133.224,151.81
		L133.224,151.81z M127.837,150.89c0.395,0.131,0.788,0.264,1.051,0.524c0.131,0,0.264-0.131,0.395,0.131
		c-0.264,0.131-0.525,0.265-0.92,0.396c0,0-0.395,0.131-0.524,0.264c-0.524-0.133-1.183-0.264-1.575-0.658
		C126.786,151.151,127.312,150.758,127.837,150.89L127.837,150.89z M126.917,149.838c-0.525-0.131-1.443,0-1.576-0.789
		c0.264-0.524,0.92-0.787,1.445-1.051c0.656,0.133,1.312,0.265,2.102,0.396C128.229,148.918,127.181,148.918,126.917,149.838
		L126.917,149.838z"/>
	<path fill="#6062A7" d="M156.865,156.144c0.132,0.524-0.396,0.789-0.656,1.182c-1.313,0.789-2.759,1.051-4.203,1.184
		c-1.84,0.262-3.94,0.393-5.78,0.393c-3.021-0.131-6.566,0.265-9.588-0.131l0.131-0.131h10.508c0.396,0,0.789-0.395,1.184-0.264
		v-0.131c-1.576,0-3.547-0.131-5.123,0l-2.627,0.131c3.152-0.525,8.406-1.182,11.428-2.102c0.131,0,0.131,0,0.264,0
		c0.131-0.131,0.918-0.525,0.918-1.051c0-0.396-0.262-0.787-0.394-1.052c-0.263-0.131-0.524-0.262-0.657-0.131
		c0.133,0.131,0.264,0.265,0.525,0.396c0.525,0.393-0.131,0.787-0.395,0.92c-1.707,1.182-3.81,1.312-5.91,1.312c0,0-0.788,0-1.84,0
		c-1.838,0-3.414,0-5.121-0.131c-4.598,0.131-9.063,0.396-13.529,0c-0.132,0-0.264-0.131-0.525-0.131
		c-1.313,0-2.496-0.134-3.81-0.265c-0.131-0.131-1.576-0.395-1.576-1.182c0.788-0.92,1.97-1.051,3.152-1.314
		c0.657,0,1.313-0.393,1.971-0.262v-0.131c-0.396,0-0.657,0-1.183,0c-0.395-0.133-0.656-0.133-1.182,0
		c-2.103,0-3.941,0.787-5.648,1.707c-0.395,0.262-0.525,0.525-0.395,1.182c0.262,0.525,0.656,0.92,1.182,1.314
		c-1.051,0-1.971-0.395-2.758-0.92c0.131,0.131,0.131,0.395,0.263,0.525c1.708,1.444,4.071,1.312,6.306,1.707l1.839,0.92
		c5.91,2.102,12.741,0.787,18.914,0.524c2.364-0.264,4.729-0.131,6.699-0.92c1.708-0.131,3.283-0.396,4.86-0.787
		c1.051-0.524,2.758-0.396,3.021-1.971C156.997,156.406,157.128,156.144,156.865,156.144L156.865,156.144z M121.663,157.588
		l-0.919-0.92c-0.132,0.265,0.131,0.656,0,0.789c-1.183-0.265-3.152-0.524-3.416-1.185c-0.263-0.655,1.313-1.444,2.103-1.575
		l0.264,0.657c0.523,1.183,1.707,1.183,2.627,1.443c3.021,0.264,6.041,0.658,9.062,0.525h9.063h0.787
		C134.798,158.64,128.101,157.719,121.663,157.588L121.663,157.588z M132.435,160.347c-2.759,0-6.043-0.263-8.801-1.312v-0.135
		c1.707,0.265,3.547-0.131,5.122,0.134c0.396,0,0.396,0,0.657,0c4.99,0.262,11.689,0.262,16.55,0.393
		C142.153,159.819,136.506,160.215,132.435,160.347L132.435,160.347z"/>
	<path fill="#6062A7" d="M157.392,140.644c-1.313-2.363-3.811-3.679-6.437-3.679c-1.313,0-2.365,0.525-3.547,0.92
		c-0.263,0.396-0.657,0.396-0.788,0.789c-0.395,0.263-0.92,0.263-1.312,0.394c0,0.133,0.524,0,0.655,0
		c0.263,0,1.052,0.133,1.183-0.525c1.313-0.393,2.496-1.182,4.071-0.918c0,0.131-0.131,0.131-0.131,0.131
		c-1.183,0.395-2.627,0.656-3.81,1.182c-0.789,0.525-1.707,0.656-2.495,0.789c-0.525,0.263-1.052,0.131-1.576,0.263
		c-3.94,0.395-7.881,0.788-11.953,0.655c0-0.131,0.131-0.131,0-0.262c-0.92,0-1.708,0.131-2.627,0l-0.132,0.262h-3.809l-0.264-0.131
		c1.182-0.395,2.364-0.656,3.809-0.787c0.264,0,0.396,0,0.658-0.133c0.918,0,1.838-0.131,2.758-0.262l0.131-0.264
		c-2.495,0.264-4.99,0.658-7.354,0.92c-0.524,0-0.92,0.525-1.444,0.395c-0.131-0.131-0.395-0.264-0.395-0.525
		c0.919-0.655,1.971-0.789,3.021-1.051c1.183-0.524,2.496-0.789,3.678-0.92c1.051,0,1.971-0.131,2.89-0.131v-0.264
		c-1.313,0.133-2.495,0.133-3.81,0.264c-0.524,0-7.225,1.445-7.355,2.363c-0.131,0.395-0.131,0.525,0,0.658
		c0.657,0.787,1.708,0.918,2.628,1.051l0.263,0.131c0.263,0.787,1.052,1.182,1.707,1.707c2.76,0.656,5.912,0.395,8.933,0.395h0.396
		c0.655,0.131,1.182,0.131,1.838,0v-0.264h-4.859c-0.131,0-0.919,0-1.182,0c-0.264-0.131-0.396,0-0.658-0.131
		c-1.443,0-2.363-0.262-3.678-0.656c-0.131-0.264,0.264-0.264,0.264-0.395c-0.264,0.131-0.525,0-0.788,0.264
		c-0.263,0-0.394,0-0.525,0c-0.131-0.133-0.131-0.133-0.263-0.264c-0.264-0.131-0.656-0.262-0.788-0.525l0.132-0.131
		c1.182,0.131,2.364-0.395,3.415,0c2.231,0.131,4.729,0.131,6.83,0c2.496,0,5.122-0.395,7.487-0.789
		c1.443,0,2.363-1.443,3.809-1.182v0.264c-0.525,0.393-1.443,0.787-1.443,1.707l0.131-0.131l0.132,0.262
		c0-0.131,0.263-0.131,0.263-0.262c1.444-1.576,3.283-2.102,5.122-2.76c0.657,0,1.445-0.131,1.972,0.264
		c-0.132,0.656-0.264,1.445-0.789,1.838c-0.263-0.393-0.263-1.182-0.92-1.443c-0.131-0.133-0.656,0-0.656,0
		c-0.395,0.263-0.92,0.131-1.183,0.394c0.657-0.131,1.576-0.263,2.233,0.264c0.132,0.525-0.133,1.052-0.264,1.576
		s-0.655,0.92-0.655,1.576c-0.789,1.183-1.972,2.231-2.759,3.414h0.131c2.363-1.838,4.072-3.938,5.386-6.565
		c0.396,0,0.655-0.656,1.051-0.396c-0.132,0.789,0,1.575,0,1.84l0,0c0,0.524-0.263,1.183-0.524,1.576
		c-1.183,2.102-2.891,3.809-4.729,5.254c0.263-0.134,0.524-0.265,0.656-0.265c2.495-1.051,5.386-4.989,5.647-8.274
		c0-0.394,0.525-0.394,0.656-0.263c0.525,0,0.657,0.525,0.789,0.921c0.131,0.524,0,1.312,0.131,1.707
		c0.395-0.132,0.264-0.656,0.525-1.052l0.132,0.131c0,1.314-0.526,2.496-1.577,3.548l-0.262,0.131
		c-2.365,2.364-5.254,4.467-8.538,5.123c-0.396,0.262-1.052,0-1.313,0.262c0.656,0.396,1.444,0,2.103,0.134
		c3.415-0.921,6.567-2.892,8.801-5.779C156.733,144.06,158.179,142.353,157.392,140.644L157.392,140.644z M121.532,140.774
		c-0.264-0.264-0.133-0.524,0.263-0.657c0.263-0.132,0.131,0.264,0.394,0.264c0.396,0.525,1.445,0.263,1.576,0.92
		C122.978,141.301,122.188,141.168,121.532,140.774L121.532,140.774z M124.422,141.562l-0.132-0.131l0.264-0.264
		c5.778,0.264,11.559,0,17.206-0.525C136.243,141.826,130.069,141.957,124.422,141.562L124.422,141.562z"/>
	<polygon fill="#E92A35" points="153.317,166.649 154.369,166.649 154.369,166.783 153.976,166.783 153.976,167.965 
		153.844,167.965 153.844,166.783 153.317,166.783 	"/>
	<path fill="#E92A35" d="M154.765,167.965v-1.313h0.262l0.395,1.051l0.395-1.051h0.264v1.313h-0.133v-0.789v-0.131
		c0-0.131,0-0.131,0-0.262l-0.393,1.182h-0.133l-0.525-1.182v0.131c0,0,0.133,0,0.133,0.131v0.131v0.789H154.765L154.765,167.965z"
		/>
</g>
</svg>
