<?xml version="1.0" encoding="utf-8"?>
<!-- Generator: Adobe Illustrator 16.0.0, SVG Export Plug-In . SVG Version: 6.00 Build 0)  -->
<!DOCTYPE svg PUBLIC "-//W3C//DTD SVG 1.1//EN" "http://www.w3.org/Graphics/SVG/1.1/DTD/svg11.dtd">
<svg version="1.1" id="Layer_1" xmlns="http://www.w3.org/2000/svg" xmlns:xlink="http://www.w3.org/1999/xlink" x="0px" y="0px"
	 width="175.748px" height="27.201px" viewBox="271.504 346.778 175.748 27.201"
	 enable-background="new 271.504 346.778 175.748 27.201" xml:space="preserve">
<g>
	<polygon points="286.875,370.824 282.79,364.275 281.111,366.066 281.111,373.23 273.91,373.23 271.504,370.824 271.504,346.778 
		278.724,346.778 281.111,349.185 281.111,351.909 285.85,346.778 295.009,346.778 297.416,349.185 288.275,358.736 298.33,373.23 
		289.301,373.23 	"/>
	<path d="M318.887,373.23h-7.089l-1.194-1.193c-1.269,1.27-3.04,1.734-4.812,1.734c-1.679,0-3.582-0.41-4.794-1.643l-2.406-2.406
		c-0.914-0.914-1.362-2.125-1.362-3.395c0-2.146,1.231-3.713,3.097-4.607l-2.388-2.407c0.354-5.018,3.936-6.361,8.488-6.361
		c2.407,0,5.503,0.243,7.313,2.052l2.388,2.407c1.27,1.287,1.492,3.041,1.492,4.775v7.5
		C317.619,371.104,317.843,372.242,318.887,373.23L318.887,373.23z"/>
	<polygon points="350.228,355.919 344.725,373.23 338.046,373.23 335.64,370.824 334.539,366.627 332.878,373.23 326.145,373.23 
		323.738,370.824 318.141,353.513 324.894,353.513 327.301,355.919 328.401,360.061 330.024,353.513 335.994,353.513 
		338.382,355.919 339.371,359.967 341.105,353.513 347.803,353.513 	"/>
	<path d="M387.221,360.975c0.393,0.242,0.729,0.522,1.044,0.84l2.407,2.426c0.951,0.951,1.438,2.295,1.438,3.638
		c0,4.606-4.906,6.101-8.75,6.101c-2.537,0-5.409-0.504-7.275-2.369l-2.499-2.48c-1.062-1.062-1.437-2.48-1.53-3.938h4.943
		l-0.728-0.578l-2.406-2.405c-0.914-0.914-1.438-2.164-1.438-3.47c0-4.458,4.963-5.764,8.602-5.764c2.274,0,5.056,0.354,6.733,2.052
		l2.406,2.425c0.97,0.97,1.25,2.22,1.418,3.525h-2.183h-2.183V360.975z"/>
	<path d="M414.644,373.23h-7.09l-1.192-1.193c-1.25,1.27-3.004,1.734-4.757,1.734c-1.698,0-3.602-0.41-4.852-1.643l-2.406-2.406
		c-0.914-0.896-1.36-2.164-1.36-3.433c0-2.015,1.175-3.692,2.983-4.515l0.111-0.057l-2.388-2.406v-0.112l0.057-0.503
		c0.168-2.07,1.212-3.824,3.115-4.757c1.604-0.802,3.524-0.989,5.298-0.989c2.444,0,5.484,0.243,7.331,2.071l2.406,2.388
		c1.269,1.269,1.475,3.059,1.475,4.776v7.498C413.375,371.104,413.599,372.225,414.644,373.23L414.644,373.23z"/>
	<polygon points="427.926,370.824 426.135,367.783 425.463,368.512 425.463,373.23 418.952,373.23 416.546,370.824 416.546,346.778 
		423.057,346.778 425.463,349.185 425.463,355.751 427.329,353.513 435.145,353.513 437.533,355.919 431.097,362.672 
		438.167,373.23 430.332,373.23 	"/>
	<polygon points="447.252,355.919 447.252,373.23 440.704,373.23 438.316,370.824 438.316,353.513 439.343,353.513 440.368,353.513 
		438.316,351.46 438.316,346.778 444.846,346.778 447.252,349.185 447.252,353.849 446.226,353.849 445.182,353.849 	"/>
	<path d="M371.457,373.23h-7.089l-1.194-1.193c-1.287,1.27-3.059,1.734-4.812,1.734c-1.68,0-3.582-0.41-4.813-1.643l-2.388-2.406
		c-0.914-0.914-1.362-2.125-1.362-3.395c0-2.146,1.231-3.713,3.098-4.607l-2.407-2.407c0.373-5.018,3.955-6.361,8.507-6.361
		c2.407,0,5.484,0.243,7.294,2.052l2.406,2.407c1.269,1.287,1.491,3.041,1.491,4.775v7.5
		C370.188,371.104,370.412,372.242,371.457,373.23L371.457,373.23z"/>
	<polygon fill="#FFFFFF" points="278.238,363.475 280.999,360.527 287.155,370.34 295.009,370.34 285.234,356.273 293.89,347.263 
		286.073,347.263 278.238,355.751 278.238,347.263 271.989,347.263 271.989,370.34 278.238,370.34 	"/>
	<path fill="#FFFFFF" d="M309.243,367.541c0.019,0.988,0.148,1.866,0.448,2.799h5.689c-0.56-0.896-0.634-2.015-0.634-3.061v-7.5
		c0-5.484-3.638-6.343-8.396-6.343c-3.898,0-7.424,1.007-7.891,5.41h5.186c0.41-1.53,1.437-2.126,2.985-2.126
		c1.175,0,2.611,0.503,2.611,1.902c0,4.011-11.528,0.728-11.528,7.705c0,3.115,2.873,4.551,5.671,4.551
		C306.239,370.88,307.694,369.779,309.243,367.541L309.243,367.541z"/>
	<polygon fill="#FFFFFF" points="347.149,353.998 341.479,353.998 338.83,363.997 337.971,363.997 335.603,353.998 330.397,353.998 
		327.972,363.997 327.114,363.997 324.54,353.998 318.794,353.998 324.092,370.34 330.099,370.34 332.599,360.284 333.457,360.284 
		336.013,370.34 341.963,370.34 	"/>
	<path fill="#FFFFFF" d="M381.997,359.464l0.093,0.018c0.635,0.075,1.27,0.187,1.903,0.336l0.373,0.093l-0.615-0.616
		c-0.168-0.037-0.317-0.074-0.485-0.074C382.837,359.221,382.407,359.352,381.997,359.464L381.997,359.464z"/>
	<path fill="#FFFFFF" d="M382.911,366.852l-3.638-0.746l1.454,1.474c0.132,0,0.242,0,0.373,0
		C381.811,367.578,382.426,367.393,382.911,366.852L382.911,366.852z"/>
	<path fill="#FFFFFF" d="M372.576,365.676c0.28,1.66,0.84,2.984,2.312,3.936c1.754,1.14,4.012,1.476,6.062,1.476
		c3.545,0,8.283-1.288,8.283-5.614c0-2.854-2.258-4.422-4.795-5.057c-1.455-0.354-2.947-0.392-4.385-0.728
		c-0.896-0.206-1.753-0.597-1.753-1.642c0-1.231,1.455-1.698,2.462-1.698c1.287,0,2.239,0.541,2.668,1.754h5.204
		c-0.597-3.824-4.196-4.664-7.592-4.664c-3.358,0-8.134,1.138-8.134,5.317c0,2.779,2.369,4.179,4.812,4.663l2.612,0.504
		c1.287,0.262,3.283,0.448,3.283,2.184c0,1.344-1.307,1.959-2.481,1.959c-1.642,0-2.815-0.803-3.227-2.389H372.576L372.576,365.676z
		"/>
	<path fill="#FFFFFF" d="M404.998,367.541c0.02,0.988,0.148,1.866,0.448,2.799h5.688c-0.56-0.896-0.634-2.015-0.634-3.061v-7.5
		c0-5.466-3.638-6.343-8.376-6.343c-3.899,0-7.443,1.007-7.91,5.41h5.188c0.409-1.53,1.437-2.126,2.983-2.126
		c1.156,0,2.631,0.503,2.631,1.902c0,3.975-11.548,0.747-11.548,7.705c0,3.115,2.854,4.551,5.652,4.551
		C401.977,370.88,403.45,369.798,404.998,367.541L404.998,367.541z"/>
	<polygon fill="#FFFFFF" points="422.59,365.918 424.399,363.939 428.205,370.34 434.865,370.34 428.075,360.229 434.007,353.998 
		427.553,353.998 422.59,359.967 422.59,347.263 417.031,347.263 417.031,370.34 422.59,370.34 	"/>
	<polygon fill="#FFFFFF" points="444.36,353.998 438.782,353.998 438.782,370.34 444.36,370.34 	"/>
	<polygon fill="#FFFFFF" points="444.36,347.263 438.782,347.263 438.782,350.976 444.36,350.976 	"/>
	<path fill="#FFFFFF" d="M361.812,367.541c0.019,0.988,0.131,1.866,0.446,2.799h5.69c-0.561-0.896-0.653-2.015-0.653-3.061v-7.5
		c0-5.484-3.638-6.343-8.376-6.343c-3.898,0-7.425,1.007-7.91,5.41h5.205c0.393-1.53,1.438-2.126,2.985-2.126
		c1.175,0,2.611,0.503,2.611,1.902c0,4.011-11.547,0.728-11.547,7.705c0,3.115,2.873,4.551,5.671,4.551
		C358.791,370.88,360.264,369.779,361.812,367.541L361.812,367.541z"/>
	<path d="M309.317,361.665v1.901c0,2.332-1.475,4.197-3.937,4.197c-1.138,0-2.481-0.578-2.481-1.902
		c0-1.771,1.884-1.995,3.208-2.368C307.377,363.139,308.348,362.561,309.317,361.665L309.317,361.665z"/>
	<path d="M405.073,361.665v1.901c0,2.332-1.475,4.197-3.938,4.197c-1.119,0-2.5-0.578-2.5-1.902c0-1.771,1.903-1.995,3.229-2.368
		C403.133,363.139,404.104,362.542,405.073,361.665L405.073,361.665z"/>
	<path d="M361.887,361.665v1.901c0,2.332-1.474,4.197-3.936,4.197c-1.139,0-2.5-0.578-2.5-1.902c0-1.771,1.902-1.995,3.209-2.368
		C359.947,363.139,360.917,362.561,361.887,361.665L361.887,361.665z"/>
</g>
</svg>
