<?xml version="1.0" encoding="utf-8"?>
<!-- Generator: Adobe Illustrator 16.0.0, SVG Export Plug-In . SVG Version: 6.00 Build 0)  -->
<!DOCTYPE svg PUBLIC "-//W3C//DTD SVG 1.1//EN" "http://www.w3.org/Graphics/SVG/1.1/DTD/svg11.dtd">
<svg version="1.1" id="Layer_1" xmlns="http://www.w3.org/2000/svg" xmlns:xlink="http://www.w3.org/1999/xlink" x="0px" y="0px"
	 width="160.241px" height="156.907px" viewBox="320.175 220.802 160.241 156.907"
	 enable-background="new 320.175 220.802 160.241 156.907" xml:space="preserve">
<g>
	<polygon fill="#E1201E" points="320.175,220.802 371.837,220.802 371.837,244.261 395.296,220.802 468.814,220.802 
		410.166,279.386 468.814,337.904 395.296,337.904 371.837,314.511 371.837,337.904 320.175,337.904 	"/>
	<polygon fill="#E1201E" points="328.828,363.48 339.468,353.289 349.916,353.289 339.02,363.607 339.147,363.607 351.262,377.068 
		339.468,377.068 328.828,364.568 328.828,377.068 320.175,377.068 320.175,345.275 328.828,345.275 	"/>
	<path fill="#E1201E" d="M352.352,353.289h8.333v4.294c2.628-4.358,6.153-5.128,9.294-5.128c3.59,0,6.153,2.309,7.499,5.32
		c2.18-3.653,6.153-5.32,9.487-5.32c5.319-0.062,9.871,3.143,9.871,10.191v14.422h-8.269v-13.461c0-3.396-2.5-4.998-4.615-5.062
		c-2.437,0-5.192,2.436-5.192,5.448v13.075h-8.332v-13.461c0-2.562-1.281-5.062-4.294-5.062c-2.115,0-5.191,1.986-5.191,6.73v11.793
		h-8.589v-23.779H352.352z"/>
	<path fill="#E1201E" d="M430.741,353.289h8.269v4.999c1.604-4.937,6.153-5.833,11.729-5.384v7.435
		c-3.076-0.256-5.642-0.128-7.627,0.706c-2.053,0.896-3.782,3.012-3.782,5.318v10.705h-8.589V353.289L430.741,353.289z"/>
	<path fill="#E1201E" d="M452.599,345.275h8.524v7.563h7.051v7.499h-7.051v8.205c0,3.141,2.308,3.461,7.051,2.562v5.642
		c-8.781,1.795-15.575,0.705-15.575-8.461V345.275L452.599,345.275z"/>
	<polygon fill="#E1201E" points="476.186,372.646 477.211,372.646 478.236,376.043 479.326,372.646 480.416,372.646 
		480.416,376.876 479.711,376.876 479.711,373.415 478.621,376.876 477.916,376.876 476.826,373.415 476.826,376.876 
		476.186,376.876 	"/>
	<path fill="#E1201E" d="M475.288,373.863h-0.705c0-0.191-0.063-0.385-0.256-0.512c-0.192-0.129-0.385-0.192-0.705-0.192
		c-0.192,0-0.385,0-0.577,0.128c-0.128,0.128-0.191,0.256-0.191,0.385c0,0.191,0.063,0.32,0.191,0.385
		c0.128,0.129,0.385,0.256,0.833,0.32c0.642,0.191,1.025,0.32,1.282,0.514c0.191,0.19,0.256,0.447,0.256,0.769
		c0,0.385-0.128,0.705-0.448,0.962c-0.319,0.256-0.705,0.385-1.218,0.385c-0.577,0-0.962-0.129-1.282-0.385
		c-0.319-0.257-0.448-0.641-0.513-1.09h0.705c0.063,0.257,0.128,0.449,0.32,0.641c0.191,0.128,0.448,0.192,0.834,0.192
		c0.256,0,0.447-0.064,0.576-0.128c0.191-0.129,0.257-0.256,0.257-0.448c0-0.063,0-0.129-0.064-0.257
		c-0.062-0.064-0.128-0.128-0.19-0.192c-0.13-0.128-0.387-0.192-0.771-0.319c-0.063,0-0.129,0-0.192,0
		c-0.448-0.129-0.833-0.32-1.024-0.514c-0.192-0.193-0.32-0.449-0.32-0.77c0-0.321,0.191-0.641,0.448-0.833
		c0.32-0.257,0.705-0.32,1.218-0.32c0.449,0,0.833,0.063,1.09,0.32C475.16,373.159,475.288,373.479,475.288,373.863L475.288,373.863
		z"/>
	<path fill="#E1201E" d="M427.088,377.068h-8.205v-3.653c-1.857,2.372-4.807,4.294-9.165,4.294c-4.936,0-10.255-1.538-10.127-7.755
		c0-9.038,13.012-7.82,19.102-7.948c0-2.947-1.539-4.679-4.615-4.679c-2.5,0-4.358,1.218-4.358,2.628h-8.589
		c0-4.872,6.153-7.5,13.076-7.5c8.588,0,12.883,3.077,12.883,9.102L427.088,377.068L427.088,377.068z M418.691,366.621
		c-2.629,0.128-11.409-0.962-11.409,3.27c0,1.73,1.475,2.691,3.91,2.691C414.589,372.518,418.562,370.339,418.691,366.621
		L418.691,366.621z"/>
</g>
</svg>
