<?xml version="1.0" encoding="utf-8"?>
<!-- Generator: Adobe Illustrator 16.0.0, SVG Export Plug-In . SVG Version: 6.00 Build 0)  -->
<!DOCTYPE svg PUBLIC "-//W3C//DTD SVG 1.1//EN" "http://www.w3.org/Graphics/SVG/1.1/DTD/svg11.dtd">
<svg version="1.1" id="Layer_1" xmlns="http://www.w3.org/2000/svg" xmlns:xlink="http://www.w3.org/1999/xlink" x="0px" y="0px"
	 width="146.88px" height="175.748px" viewBox="24.362 8.122 146.88 175.748" enable-background="new 24.362 8.122 146.88 175.748"
	 xml:space="preserve">
<g>
	<path fill="#008641" d="M140.37,8.122v157.743c-2.504,1.038-3.54,1.438-5.291,2.034c-3.873,1.326-8.309,2.502-13.242,3.515
		c-4.554,0.935-7.762,1.411-13.525,2.013c-1.172,0.122-2.158,0.221-2.957,0.291l-1.961,0.176l-0.804,0.067l-0.724,0.041l-1.58,0.079
		h-0.577c-0.135,0-0.478,0.025-1.022,0.077c-0.547,0.05-1.307,0.075-2.268,0.075c-0.763,0-1.936-0.008-3.518-0.027
		c-1.104-0.014-1.897-0.021-2.38-0.021c-1.199,0-2.366,0.023-3.5,0.069l-1.739,0.072c-1.354,0.055-1.993,0.086-2.537,0.123
		l-0.941,0.063l-0.899,0.057l-0.875,0.051c-0.3,0.018-0.622,0.041-0.969,0.068c-0.58,0.049-0.945,0.076-1.102,0.086l-0.736,0.039
		c-1.708,0.09-4.204,0.42-7.476,0.986c-3.232,0.562-5.704,1.039-7.409,1.436c-2.383,0.553-4.855,1.253-7.406,2.099
		c-3.452,1.142-6.676,2.563-8.5,3.746l-1.137,0.735l-0.1,0.055h-0.134V8.122H140.37L140.37,8.122z"/>
	<path fill="#FFFFFF" d="M159.892,122.037V57.016c-4.17,8.308-11.307,16.007-32.332,21.099c-15.931,3.854-36.333,2.517-54.95,5.815
		c-20.8,3.686-37.828,10.943-48.248,28.491v65.018c10.419-17.549,27.447-24.802,48.248-28.486
		c18.617-3.299,39.02-1.962,54.946-5.816C148.585,138.048,155.722,130.345,159.892,122.037L159.892,122.037z"/>
	<path fill="#ED1C24" d="M123.073,108.544c0,0-1.312,2.812-2.596,3.783c-1.334,1.008-2.646,0.976-2.922,0.954
		c-0.369,8.62-5.897,14.786-13.262,14.786c-3.707,0-6.535-2.181-6.535-6.328v-0.479c-1.861,3.062-6.372,8.325-10.455,8.394
		c-1.239,0.019-3.303-0.189-3.303-3.233c0-1.272,0.552-3.217,1.033-5.092c0.544-2.134,1.649-5.638,1.718-6.396
		c0.007-0.072,0-0.141,0-0.209c0-0.479-0.216-0.824-0.825-0.824c-0.908,0-3.471,1.408-5.437,7.981
		c-0.609,2.043-1.786,5.433-2.338,6.945c-0.77,2.129-5.242,3.028-6.26,3.028c-0.894,0-1.374-0.207-1.374-0.828
		c0-0.096,0.029-0.211,0.068-0.344c0.406-1.478,1.861-5.399,2.614-7.771c0.369-1.177,2.475-6.745,2.546-7.157
		c0.029-0.172,0.067-0.337,0.067-0.479c0-0.37-0.107-0.62-0.552-0.62c-1.168,0-4.68,5.167-8.462,11.56
		c-3.068,5.191-6.901,8.698-10.05,9.161c-4.413,0.647-7.554-7.474-9.541-7.2c-0.441,1.857-0.889,3.708-1.31,5.598
		c-0.29,1.431-0.584,2.857-0.911,4.264l-0.337,1.66c-0.032,0.15-0.097,0.305-0.219,0.592c-0.438,1.624-5.693,4.66-8.398,5.335
		c-0.699,0.172-0.831-0.172-0.931-0.501c-0.057-0.193,0.014-0.822,0.05-0.979c1.011-4.34,2.302-8.695,3.947-14.217
		c-1.076-0.181-2.17-0.277-2.108-1.887c0.071-1.939,2.119-3.783,4.095-4.277c0.903-3.131,1.639-5.863,2.319-7.807l0.212-0.613
		c-4.859,0.445-9.462,2.148-13.07,7.91c-0.291,0.467-0.624,0.771-0.968,0.85c-0.412,0.098-1.069-0.11-1.177-0.651
		c-0.043-0.212-0.046-0.585,0.151-1.068c2.937-7.226,9.836-11.646,16.644-12.267c0.621-1.445,2.682-4.885,7.086-4.885
		c1.814,0,4.015,0.969,4.015,3.41c0,2.438-1.753,4.604-5.32,5.67c-0.908,2.718-1.406,5.225-2.284,8.619c0,0,1.018-0.384,1.499-0.793
		c3.822-3.227,8.052-9.447,10.707-13.104c4.596-6.347,7.397-8.8,18.211-9.922c0.709-0.075,1.438-0.054,1.968,0.021
		c0.409,0.059,0.649,0.436,0.649,0.986c0,0.523-0.462,1.011-1.294,1.086c-0.789,0.072-2.462,0.46-3.481,0.758
		c-3.606,1.064-6.805,3.13-9.907,8.16c-4.399,7.132-7.476,11.102-12.958,13.441c-0.85,0.367-0.763,0.349-1.258,0.55
		c0.419,0.141,0.652,0.325,1.162,0.642c1.115,0.688,2.241,1.901,3.274,2.7c1.132,0.875,1.743,0.735,2.208,0.588
		c1.75-0.555,3.406-2.452,5.609-5.959c1.552-2.474,3.428-5.278,5.503-8.05c1.288-1.719,5.364-6.189,9.631-6.189
		c1.857,0,2.818,0.689,2.818,2.131c0,0.416-0.412,1.998-0.824,3.099c1.857-2.753,5.354-5.984,9.495-5.984
		c2.201,0,3.025,1.441,3.025,2.683c0,1.033-0.975,4.429-1.423,5.983c-0.542,1.857-1.467,5.437-1.467,6.125
		c0,0.8,0.241,1.032,0.825,1.032c1.241,0,5.081-4.148,5.849-6.745c1.803-6.088,6.559-10.11,12.521-10.11
		c2.812,0,5.021,1.24,5.983,3.578c0.102,0.24,0.416,0.538,0.688,0.48c1.326-0.287,1.946-1.205,2.358-2.521
		c-1.01-0.605-1.703-1.66-1.631-3.272c0.096-2.185,1.391-4.218,3.754-4.007c1.856,0.166,2.545,1.492,2.545,2.5
		c0,0.345-0.034,0.636-0.106,0.979c4.017,0,6.802,0.223,6.802,3.096c0,1.039-0.631,3.455-0.968,4.707
		c-0.259,0.957-1.452,4.911-1.592,5.672c-0.024,0.125-0.069,0.312-0.069,0.416c0,0.393,0.186,0.553,0.621,0.553
		c0.623,0,1.09-0.48,1.385-0.828c1.176-1.385,5.563-9.391,6.371-14.146c-1.256-0.404-2.068-1.562-2.072-3.098
		c-0.004-2.648,1.506-4.862,3.736-4.913c1.686-0.035,2.95,0.902,2.95,2.56c0,0.267-0.051,0.543-0.11,0.834
		c5.812,0,7.924,0.461,7.924,3.338c0,1.656-0.738,4.244-1.176,5.861c-0.316,1.18-1.021,3.601-1.244,4.637
		c-0.111,0.531,0.18,0.968,0.69,0.968c0.417,0,0.951-0.253,1.542-0.761c1.091-0.924,2.127-2.008,3.025-3.18
		c0.22-0.291,0.66-0.6,1.017-0.6c0.608,0,1.132,0.456,1.132,0.957c0,0.068-0.01,0.212-0.056,0.361
		c-0.625,1.994-6.351,10.558-12.235,10.558c-1.412,0-2.836-1.237-2.836-3.185c0-0.968,0.691-3.668,1.523-6.021
		c0.734-2.082,1.919-5.521,2.076-6.503c0.209-1.313-1.424-1.381-2.562-1.381c-2.354,7.124-7.837,21.875-16.339,21.875
		c-0.703,0-3.184-0.107-3.184-3.115c0-1.66,1.039-3.883,1.867-6.376c0.42-1.258,1.66-5.593,1.732-6.493
		C124.626,108.985,123.798,108.685,123.073,108.544L123.073,108.544z M106.153,124.009c3.416,0,4.539-7.928,4.539-10.658
		c0-1.283-0.196-3.234-1.789-3.234c-3.418,0-4.539,7.928-4.539,10.664C104.364,122.06,104.558,124.009,106.153,124.009
		L106.153,124.009z"/>
	<path fill="#008641" d="M24.362,112.421C34.781,94.873,51.809,86.038,72.61,82.352c18.617-3.298,39.02-1.961,54.95-5.818
		c21.025-5.089,28.162-11.206,32.332-19.518c-3.846,15.261-19.352,25.748-44.451,29.768c-24.77,3.966-36.237,0.144-61.159,7.487
		c-11.055,3.253-16.336,6.546-21.664,10.476C28.001,108.146,24.362,112.421,24.362,112.421L24.362,112.421z"/>
	<path fill="#FFDD00" d="M24.362,112.421C34.781,94.873,51.809,87.616,72.609,83.93c18.617-3.298,39.022-1.947,54.949-5.815
		c21.229-5.156,28.162-12.787,32.332-21.099c-7.14,7.075-8.261,12.891-34.535,16.667c-20.959,3.012-36.232,0.078-58.549,5.428
		C38.396,85.92,26.111,105.069,24.362,112.421L24.362,112.421z"/>
	<path fill="#008641" d="M24.362,177.438c10.419-17.549,27.447-23.226,48.248-26.91c18.617-3.299,39.02-1.959,54.946-5.816
		c21.029-5.088,28.166-14.367,32.336-22.675c-7.141,7.073-10.812,11.832-34.889,15.637c-20.915,3.306-35.885,0.735-58.198,6.085
		C38.396,150.567,26.111,170.088,24.362,177.438L24.362,177.438z"/>
	<path fill="#FFDD00" d="M24.362,177.438c10.419-17.549,27.447-24.803,48.248-28.487c18.617-3.3,39.02-1.962,54.946-5.816
		c21.029-5.087,28.166-12.79,32.336-21.098c-3.841,15.261-19.352,25.748-44.451,29.769c-24.77,3.965-37.354,0.176-62.268,7.551
		c-12.313,3.646-15.228,6.482-20.556,10.408C28.001,173.168,24.362,177.438,24.362,177.438L24.362,177.438z"/>
	<path fill="#008641" d="M166.088,65.206h0.875c0.42,0,0.704-0.062,0.856-0.184c0.152-0.123,0.229-0.285,0.229-0.487
		c0-0.13-0.036-0.247-0.11-0.349c-0.073-0.103-0.176-0.18-0.305-0.23c-0.131-0.05-0.373-0.076-0.725-0.076h-0.821V65.206
		L166.088,65.206z M165.378,67.671v-4.389h1.516c0.518,0,0.893,0.041,1.123,0.121c0.232,0.082,0.416,0.224,0.555,0.425
		c0.138,0.201,0.207,0.416,0.207,0.643c0,0.321-0.116,0.601-0.346,0.838c-0.23,0.238-0.537,0.372-0.918,0.4
		c0.154,0.065,0.279,0.143,0.373,0.232c0.178,0.172,0.396,0.462,0.651,0.87l0.537,0.859h-0.856l-0.394-0.692
		c-0.31-0.543-0.56-0.884-0.747-1.021c-0.131-0.101-0.321-0.152-0.572-0.155h-0.419v1.868L165.378,67.671L165.378,67.671
		L165.378,67.671z M167.163,62.012c-0.573,0-1.131,0.147-1.674,0.44c-0.545,0.293-0.969,0.712-1.276,1.258
		c-0.308,0.545-0.46,1.113-0.46,1.703c0,0.587,0.15,1.149,0.452,1.688s0.724,0.958,1.265,1.258c0.541,0.3,1.105,0.45,1.693,0.45
		c0.589,0,1.152-0.15,1.695-0.45c0.541-0.301,0.961-0.72,1.263-1.258c0.299-0.538,0.448-1.101,0.448-1.688
		c0-0.59-0.152-1.158-0.457-1.703c-0.307-0.545-0.73-0.964-1.275-1.258S167.733,62.012,167.163,62.012L167.163,62.012
		L167.163,62.012z M167.163,61.34c0.688,0,1.354,0.175,2.008,0.526c0.652,0.351,1.16,0.853,1.525,1.506
		c0.363,0.653,0.546,1.333,0.546,2.042c0,0.701-0.181,1.376-0.538,2.024c-0.357,0.647-0.861,1.151-1.51,1.508
		c-0.646,0.358-1.323,0.536-2.031,0.536c-0.705,0-1.383-0.178-2.029-0.536c-0.646-0.357-1.15-0.861-1.512-1.508
		c-0.361-0.648-0.541-1.323-0.541-2.024c0-0.708,0.184-1.389,0.548-2.042c0.367-0.653,0.876-1.155,1.528-1.506
		C165.812,61.515,166.479,61.34,167.163,61.34L167.163,61.34z"/>
</g>
</svg>
