<?xml version="1.0" encoding="utf-8"?>
<!-- Generator: Adobe Illustrator 16.0.0, SVG Export Plug-In . SVG Version: 6.00 Build 0)  -->
<!DOCTYPE svg PUBLIC "-//W3C//DTD SVG 1.1//EN" "http://www.w3.org/Graphics/SVG/1.1/DTD/svg11.dtd">
<svg version="1.1" id="Layer_1" xmlns="http://www.w3.org/2000/svg" xmlns:xlink="http://www.w3.org/1999/xlink" x="0px" y="0px"
	 width="187.088px" height="96.47px" viewBox="2.835 48.146 187.088 96.47" enable-background="new 2.835 48.146 187.088 96.47"
	 xml:space="preserve">
<g>
	<path fill="#BB813C" d="M156.444,126.938c-0.77-0.512-2.049-1.024-3.586-1.537c-1.024-0.256-2.049,0-2.562,1.025
		c0,0-1.024,2.049-1.793,3.84c-0.513-2.049-1.024-4.608-1.024-4.608v-0.257c-0.256-0.768-0.513-1.536-1.279-2.305l0,0
		c-1.793-0.77-3.33-1.281-4.866-1.537c-0.256,0-0.513,0-0.513,0h-0.256c-0.512,0.256-0.769,0.513-0.769,0.769v0.258l0,0
		c0,0.256,0,0.256,0,0.513c-1.28-2.562-4.099-3.33-6.403-3.843l-1.793-0.512l-0.769-0.257c-0.769-0.258-1.792-0.514-2.815-0.258
		c-0.258,0-0.77,0-0.77,0.515l0,0c-0.256,0.256-0.256,0.512-0.256,0.512c0,0.769,0.512,1.279,0.512,1.537h0.256
		c0,0.256,0,5.121,0,8.195c-1.279-3.33-3.328-10.5-3.328-10.5c-0.257-0.259-0.257-0.259-0.257-0.259l-0.513-0.768
		c0-0.256-0.256-0.256-0.256-0.256l-0.512-0.512c-0.258,0-0.258,0-0.258,0l-0.512-0.256c-1.023-0.258-2.049-0.515-3.329-0.515
		c-0.257,0-0.769,0.257-0.769,0.771l0,0c0,0.256,0,0.256,0,0.512c0-0.256,0-0.256,0-0.512c-0.258,0-0.258-0.256-0.258-0.256
		c-0.256-0.515-0.768-1.025-1.279-1.025l0,0c-2.817-0.512-5.891-1.023-9.477-1.023c0,0-0.256,0-0.513,0l0,0l-0.769,0.512
		c-0.256,0.257-0.256,0.257-0.256,0.513l0,0c0,0.769,0.512,1.28,0.769,1.537l0.256,0.256c0,0.512,0,3.842,0,3.842
		c0,0.257,0,5.892,0,6.402v0.512c-0.256,0-0.256,0.515-0.256,0.515v0.256c-0.513,0.256-1.024,0.768-1.024,1.535l0,0
		c0,0.514,0.256,0.77,0.77,1.024l0,0c1.279,0.256,2.816,0.256,4.098,0.513c0.256,0,1.792,0,1.792,0c0,0.256,0.513,0,0.513,0
		l0.256-0.257c0.256,0,0.256,0,0.256-0.256c0.258,0.256,0.258,0.513,0.514,0.513c0,0,0.256,0.256,0.512,0.256l3.074,0.514
		l1.023-0.258l0.513-1.023c0,0,0,0,0-0.256c0,0,0,0-0.256-0.256c0-0.256,0-0.514,0-0.514c0-0.513,0-0.769,0.256-1.535
		c0,0,0.257-0.515,0.513-1.025c0.256,0,0.256,0,0.256,0l1.28,0.256c0,0-0.256,0-0.512,0l0.769,0.256c0.256,0,0.512,0,0.768,0.258
		c0,0.256,0.258,0.769,0.258,0.769c0.256,0.769,0.512,1.28,0.512,2.049l-0.256,0.256l-0.514,0.513c0,0.256,0,0.256,0,0.514l0,0
		c0,0.512,0.258,1.023,0.514,1.023l0.256,0.256l8.965,2.305l1.023,0.256c0.256,0,0.513,0,0.77-0.256c0,0,0,0-0.257,0
		c0.513,0,1.024-0.512,1.024-1.023l0,0c0-0.256-0.258-0.512-0.258-0.512c-0.512-0.77-0.512-1.537-0.512-2.307
		c0-0.256,0-0.512,0-0.769c0,0.257,0,0.257,0,0.257c0.256,0.256,2.049,3.586,2.049,3.586c1.537,2.305,3.842,3.071,6.146,3.586
		l1.279,0.512c1.025,0.512,1.793-0.256,1.793-0.512c0,0,0.257-0.256,0.257-0.515c0,0,0,0,0-0.256s-0.257-0.769-0.257-1.022
		l-0.256-0.513c0,0,0-0.771,0-1.793c0.256,1.022,0.769,3.328,0.769,3.328c0.257,0.515,0.513,1.281,0.769,2.049
		c0.256,0,0.256,0,0.256,0.257c0.514,0.258,1.024,0.258,2.05-0.257l0,0c0-0.256,0.257-0.256,0.257-0.512
		c0,0,1.023-2.049,2.049-4.354c0,1.023,0,3.586,0,4.354l0,0c-0.513,0.256-0.77,0.769-0.77,1.537v0.256c0,0.256,0,0.512,0.257,0.512
		l1.28,0.771c0.256,0,0.513,0.256,0.513,0.256c-0.257,0,1.793,0.768,1.793,0.768l1.537,0.771c0.256,0,0.512,0,0.768,0l0.257-0.259
		c0.256,0,0.512-0.256,0.512-0.512l0,0c0.514-0.768,0-1.537-0.256-1.793c0-0.256,0-0.256,0-0.256c-0.256-0.256-0.256-1.023,0-1.537
		v-1.023v-3.329c0,0,0-5.377,0-6.146l0,0l0.77-0.512c0.256,0,0.256-0.256,0.256-0.513c0.256,0,0.256-0.256,0.256-0.514
		C157.469,127.707,156.957,127.194,156.444,126.938L156.444,126.938z M150.298,140L150.298,140c0,0,0,0,0-0.256l0,0
		C150.298,140,150.298,140,150.298,140L150.298,140z M134.675,123.608c0,0.257,0,0.257,0,0.513c0,0.514-0.256,1.024-0.512,1.28
		c-0.256,0.257-0.514,0.257-0.514,0.257s0,0-0.256,0c0-0.513,0-2.05,0-2.816C133.907,122.842,134.419,123.099,134.675,123.608
		L134.675,123.608z M133.396,122.328v-0.256V122.328L133.396,122.328z M120.333,124.635L120.333,124.635L120.333,124.635
		L120.333,124.635L120.333,124.635z M140.31,124.121h0.256c0,0.514,0,7.685-0.256,10.244c-0.512-1.023-1.023-2.306-1.535-3.328
		c0,0-0.77-1.537-1.025-2.049c0.257-0.257,0.77-0.513,1.025-0.513c1.023-0.77,1.535-2.049,1.535-3.33c0-0.256,0-0.512,0-0.77
		c-0.256-0.512-0.256-0.768-0.256-1.023C140.054,123.608,140.31,123.865,140.31,124.121L140.31,124.121z M127.76,120.793
		c0,0,0,0,0-0.258V120.793L127.76,120.793L127.76,120.793z M118.54,118.487v0.257c0,0-0.256,0.512-0.512,1.278v-0.512
		c0-0.768,0-1.281,0-1.793C118.028,117.976,118.284,118.229,118.54,118.487L118.54,118.487z M113.162,118.487L113.162,118.487
		c0,0.257-0.513,1.023-0.513,1.023c-0.256,0.256-0.256,0.512-0.512,0.512c0-0.512,0-1.022,0-1.022s0-0.513,0.256-0.771
		c0.256,0,0.769,0,1.023,0.259L113.162,118.487L113.162,118.487z M106.503,117.207L106.503,117.207L106.503,117.207L106.503,117.207
		z M113.162,129.756c0,0,0,0-0.257,0.256c0-0.256-0.256-0.512-0.256-0.768h-0.256c-0.256-0.769-0.256-1.793-0.256-2.562
		c0-0.514,0-1.024,0-1.537c0,0,0-0.512,0-1.024l0,0l0.256,0.514c0.256,0.513,0.256,1.023,1.023,1.535
		c0.256,0.258,0.512,0.258,0.77,0.258l0,0c0.769-0.258,1.279-0.77,1.279-1.536c0-0.771,0-1.793,0-2.818c0-0.256,0-0.768,0-1.279
		c0.256,0.256,0.256,0.512,0.77,0.768h0.256c0.513,0,1.023-0.256,1.279-0.512c-1.279,2.816-3.072,7.17-3.072,7.17
		c-0.256,0.514-0.77,0.771-1.28,1.281L113.162,129.756L113.162,129.756z M156.188,129.5v-0.256l0,0
		C156.188,129.5,156.188,129.5,156.188,129.5L156.188,129.5L156.188,129.5z"/>
	<path fill="#BB813C" d="M138.772,128.219L138.772,128.219v0.259c0,0,0,0-0.256,0C138.517,128.478,138.772,128.478,138.772,128.219
		L138.772,128.219z"/>
	<path fill="#BB813C" d="M138.517,128.478L138.517,128.478L138.517,128.478z"/>
	<path fill="#BB813C" d="M102.918,114.392h-0.257c-0.768-0.515-1.536-0.515-2.305-0.515h-1.024h-0.256l0,0
		c-0.513,0-1.281,0-1.793,0.771v0.256c-0.257,0.256-0.257,0.512-0.257,0.512c0,0.768,0.257,1.025,0.513,1.281v0.256
		c0,0.512-0.256,1.023-0.769,1.793c0,0,0,0,0,0.256c-0.768-1.025-1.536-2.049-1.536-2.305v-0.256l0.256-0.515
		c0-0.256,0-0.256,0-0.512s0-1.022-1.281-1.281h-0.256l0,0h-3.842h-0.256l-0.256,0.259c-0.512,0-1.28,0.256-1.537,1.022
		c-2.305-1.022-4.866-0.769-6.915-0.513l-1.537,0.257H79.1c-0.512,0-1.024,0-1.537,0.512c-0.256,0-0.512,0.513-0.512,0.513v0.258
		l0,0c0,0.256,0.256,0.512,0.256,0.768c-1.793-1.793-4.354-1.281-5.891-1.281l-0.768,0.256c-2.049,0-3.842,0.258-5.634,1.025
		c0,0-0.256,0.256-0.512,0.512c0,0.256,0,0.512,0,0.771c0,0,0,0,0,0.256l-0.512-0.771l-1.281-0.256l-1.024,0.256
		c-3.074,0.515-5.891,1.281-8.708,2.306c-0.512,0.256-0.768,0.514-1.024,0.77c0,0.257,0,0.513,0,0.513c0,0.256,0,0.512,0,0.768
		c0.256,0,0.512,0.258,0.512,0.514c0.256,0,1.024,0.512,1.024,0.512s0,5.892,0,7.939c-0.512-1.025-1.536-1.793-2.817-2.049
		c0.256-0.256,0.512-0.512,0.512-0.512c0.512-0.771,1.024-1.793,1.024-2.562c0-0.768-0.256-1.535-0.512-2.049
		c-1.28-1.793-3.841-1.793-5.634-1.279c-2.817,0.768-5.378,1.793-7.684,2.816l-0.256,0.256l-0.512,0.256
		c-0.256,0.258-0.256,0.514-0.256,0.77l0,0c0,0.257-0.256,0.257-0.256,0.257c0,0.256,0.256,0.768,0.512,1.022
		c0,0,0.256,0.258,0.512,0.258c0.512,0.256,0.768,0.513,0.768,0.513v10.243c0,0.769-0.256,1.023-0.512,1.537l-0.256,0.513
		c0,0.256-0.256,0.512,0,1.022c0.256,0.258,0.512,0.771,1.024,0.771h0.512l3.33-1.281l2.817-1.022
		c2.049-0.771,4.354-1.537,6.403-3.33l0.256-0.256c0.256,0.256,0.256,0.256,0.256,0.256c0.256,0.256,0.512,0.256,0.768,0
		l5.122-1.281l2.562-0.768l1.281-0.513c0.768,0,1.537-0.256,2.305-0.771c0.256-0.256,0.512-0.512,0.512-0.512l0,0h0.256
		c0.256,0,0.256,0.256,0.512,0.256c1.024-0.256,2.049-0.256,2.817-0.512l1.024-0.256c0.769,0,1.537-0.256,2.305-0.512
		c0.256-0.258,0.512-0.514,0.512-0.77l0,0c0-0.257,0-0.257,0-0.257c0-1.022-0.769-1.536-1.024-1.793l0,0c0-0.256,0-0.768,0-1.537
		c0.256,0.515,1.024,1.281,1.024,1.281c2.561,3.074,6.403,2.562,9.476,2.049l1.28-0.256c0.256,0,0.512,0,0.512,0
		c0.512-0.512,0.769-1.024,0.769-1.28c0-0.257,0-0.257,0-0.513c0,0-0.256-0.256-0.256-0.512h-0.512v-0.257c0-0.256,0-1.28,0-2.305
		c0.256,0.256,0.769,0.769,0.769,0.769c1.024,1.28,1.792,2.305,3.329,3.329l0,0c2.049,0.769,4.354,0.769,6.659,0.513h2.817
		c0.256,0,0.256,0,0.513,0l0.512-0.256c0.256,0,0.77-0.257,0.77-0.515v-0.256c0.256-1.022-0.514-1.535-0.77-1.793l0,0
		c0-0.256,0-3.328,0-3.584c0-0.514,0-0.77-0.256-1.025c0.256,0,0.256,0,0.256,0l0,0c0-0.768,0.514-1.536,1.024-2.561l0.769-1.537
		c0.514-1.022,1.281-2.305,2.562-3.072c0.256,0,0.256-0.258,0.512-0.77v-0.512C103.431,114.901,103.174,114.392,102.918,114.392
		L102.918,114.392z M83.965,120.793c0-1.024,0-2.562,0-2.817c0.256,0,0.512,0,0.512,0c0.256,0.256,0.256,0.514,0.256,1.024
		s0,0.769-0.256,1.278C84.478,120.278,84.222,120.535,83.965,120.793L83.965,120.793z M90.368,119.256
		c1.537,2.562,2.305,3.586,2.561,4.099c0,0,0,0-0.256-0.256c0.256,0.256,0.256,0.512,0.256,1.022c0,0,0,0.256,0,0.514v0.513v1.022
		c0,0.515,0,1.281-0.256,1.537c-1.281-1.022-2.817-2.562-4.61-4.865c1.024-0.77,2.049-1.536,2.305-3.073
		C90.368,119.513,90.368,119.513,90.368,119.256L90.368,119.256z M71.416,122.072c0-0.769,0.256-2.306,0.256-2.816
		c0,0,0.256,0,0.256,0.256c0.256,0.257,0.512,0.513,0.512,1.023c0,0.258-0.256,0.771-0.256,1.024
		C71.928,121.815,71.672,122.072,71.416,122.072L71.416,122.072z M97.539,116.951v-0.257V116.951L97.539,116.951L97.539,116.951z
		 M78.075,118.229l0.256,0.259l0,0C78.075,118.229,78.075,118.229,78.075,118.229c0-0.256,0.256-0.256,0.256-0.512h0.256
		c-0.256,0.256-0.256,0.77-0.256,1.793c-0.256-0.512-0.256-1.023-0.512-1.537C77.819,118.229,77.819,118.229,78.075,118.229
		L78.075,118.229z M78.075,121.306c0,0,0-0.513,0.256-0.513c-0.256,0.769-0.256,1.535-0.256,2.815c0,0,0,2.818,0,4.099
		c0-0.256-0.256-0.256-0.256-0.256c-0.768-1.023-1.793-2.306-2.561-3.33C76.282,123.608,77.562,122.842,78.075,121.306
		L78.075,121.306z M64.501,123.354c0-0.256,0-0.256,0-0.256c0.256-1.025,0.256-2.05,0.256-3.074v-0.769l0,0l0,0
		c0,0.257,0.256,0.257,0.256,0.257c0.512,0.256,0.768,0.768,0.768,0.768s0,8.709,0,10.502c0,0,0,0-0.256,0.256
		c0-0.77,0-1.537,0-2.305v-0.256l0,0c-0.256-0.515-0.512-1.025-0.769-1.281c-0.512,0-1.024,0-1.28,0.256H63.22
		c-0.256,0.256-0.512,0.768-0.768,1.025c0.256-0.515,0.256-1.281,0.256-1.793c0-1.025-0.256-2.05-0.256-2.818
		c0.256,0,1.024,0,1.024,0L64.501,123.354L64.501,123.354z M44.781,137.694L44.781,137.694c0-0.256,0-4.608,0-4.864
		s0.256-0.515,0.769-0.515c1.281,0,1.792,0,2.049,0.515c0.256,0.512,0.512,0.769,0.512,1.535c0,0.258-0.256,0.77-0.256,1.28
		C47.086,136.928,45.805,137.438,44.781,137.694L44.781,137.694z M44.781,138.463v-0.256
		C44.781,138.207,44.781,138.207,44.781,138.463L44.781,138.463z M46.317,126.685L46.317,126.685l0.256,0.256
		c0,0.256,0,0.256,0,0.512c0,0,0,0,0,0.256l0,0c-0.256,0.77-0.769,1.025-1.793,1.537c0-1.025,0-1.793,0-2.305
		C45.037,126.685,45.549,126.428,46.317,126.685L46.317,126.685z M59.379,121.815c0.256,0,0.769,0,1.281,0.257
		c-0.256,0.256-0.256,0.256-0.512,0.514c-0.256,0-0.256,0.256-0.256,0.256c-0.256,0.513-0.256,0.769-0.512,1.279
		C59.379,123.354,59.379,122.328,59.379,121.815L59.379,121.815L59.379,121.815z M59.379,121.562L59.379,121.562L59.379,121.562
		L59.379,121.562z M59.379,132.83L59.379,132.83c0,0,0,0,0,0.256V132.83L59.379,132.83z M59.379,132.574c0-1.025,0-3.843,0-3.843
		v-0.514c0,0,0,0,0-0.256l0,0c0,0.256,0.256,0.514,0.256,0.77l0.256,0.513c0-0.256,0.769,0.769,0.769,0.769h1.024l0,0l0,0
		c0,0,0,0,0.256,0c0,0,0-0.257,0.256-0.513l0,0l-0.512,1.024C61.172,131.549,60.147,132.062,59.379,132.574L59.379,132.574z"/>
	<path fill="#B85D27" d="M160.286,112.342c-0.77-0.77-1.793-0.77-2.562-0.258c-0.256,0-0.768,0.258-2.049-0.256
		c-1.279-0.513-1.279-2.05-1.535-4.354c0,0.256,0-5.123,0-5.123V89.803c0-0.256,0-0.256,0-0.512s0-0.512,0-0.768
		c0.512,0,1.279,0.256,2.049,0.512c0.256,0,0.769,0.256,1.279,0.256c0.77,0.256,1.793,0,2.305-0.768
		c0-0.256,0.258-0.512,0.258-0.769c0.256-1.024,0-2.561,0-3.33c0-0.256-0.258-0.512-0.258-0.512l-0.256-0.512
		c0,0-0.256-0.256-0.512-0.512c-1.023-0.512-2.049-0.769-2.816-1.024c-0.514,0-0.77,0-1.28-0.256c0,0-0.257,0-0.513-0.256
		c0,0,0,0-0.256,0c0-1.793,0-9.988,0-9.988c0-0.256,0-0.256,0-0.256v-1.024c-0.257,0-0.257-0.256-0.257-0.256
		c-0.257-1.024-1.28-1.537-2.05-1.537c-0.768,0-1.279,0.256-1.792,0.512c-0.257,0.256-0.513,0.512-0.513,0.77
		c-1.793,4.61-3.842,7.427-6.659,8.195c-2.306,0.256-4.609-0.256-6.914-0.769c-0.769,0-1.281-0.256-2.049-0.256
		c0,0-0.257,0-0.257-0.256c-0.256,0-0.256,0-0.512,0c0-0.512,0-6.146,0-6.146v-4.098c0-0.256,0-0.512-0.257-0.769v-0.256
		c-0.257-0.512-0.513-0.769-0.769-0.769c-0.77-0.512-1.537-0.512-2.049-0.512c0,0,0,0-0.258,0c-0.512,0.256-1.023,0.512-1.279,1.281
		c-0.256,0-0.256,0-0.256,0.256l-0.256,0.769c-0.514,1.537-1.281,2.817-2.05,4.098c-2.049,2.817-5.122,4.097-9.731,4.097h-0.258
		c-1.022,0-1.535,0.769-1.791,1.793v0.256v2.305c0,0.256,0,0.768,0.256,1.024l0.256,0.256c0.257,0.256,0.513,0.512,1.023,0.512
		c0.256,0,0.77,0.256,1.024,0.256c0.769,0,1.537,0.256,2.306,0.512l0,0V83.4v7.427v2.305c0,3.586,0,8.195,0.512,11.781
		c0.514,2.816,2.562,5.379,5.379,7.17c3.586,2.307,9.221,2.049,12.806-0.768c0.257,0,0.257-0.256,0.257-0.256
		c0.77-0.769,2.305-2.05,1.793-3.843c0-0.256,0-0.256-0.257-0.512c-0.256-0.771-1.024-1.024-1.793-1.024c-0.256,0-0.513,0-0.769,0
		c-0.769,0.512-1.793,0.512-2.306,0c-1.536-0.769-1.536-2.562-1.536-5.121c0-0.259,0-14.6,0-14.6c0-1.024,0-1.792,0.256-2.305l0,0
		c2.305,0.256,4.354,0.768,6.146,1.28c0.513,0.256,0.77,0.769,0.77,1.281c0-0.256,0,13.573,0,13.573v8.194
		c0,2.818,1.023,5.123,2.816,7.173v0.256c3.585,3.33,7.939,4.608,12.037,3.33l0,0h0.256c1.793-0.515,3.842-1.281,5.122-3.33
		C161.056,114.133,160.798,112.854,160.286,112.342L160.286,112.342z"/>
	<path fill="#B85D27" d="M172.579,71.62c-0.512-0.769-1.28-1.28-2.049-1.793v-0.256h-0.256c-2.049-1.281-4.866-1.024-6.659,0.256
		c0,0.256,0,0.256,0,0.256c-1.536,1.281-2.817,3.073-2.05,5.89c0.514,1.793,1.793,2.305,2.306,2.305
		c0.769,0.256,0.769,0.512,1.024,0.512c0,1.024-0.256,2.049-1.537,3.329c-0.256,0-0.256,0.256-0.512,0.256c0.256,0,0.256,0,0.256,0
		c-0.769,1.024-0.513,1.793-0.256,2.305c0,0,0,0.256,0.256,0.256c0.256,0.513,0.769,0.769,1.537,0.769c0.256,0,0.256,0,0.256,0
		c3.586-0.769,6.914-3.842,8.195-7.427C173.858,76.229,173.858,73.668,172.579,71.62L172.579,71.62z"/>
	<path fill="#B85D27" d="M188.972,110.035c-1.025-3.072-3.33-5.377-5.892-7.17c0.512,0,1.024,0,1.28,0c0,0,0.256,0,0.256-0.257
		c1.023-0.258,1.793-1.28,1.793-2.562v-0.256c0-2.562,0.256-5.378-0.256-8.195c0-0.256,0-0.512-0.256-0.769
		c-1.281-1.537-3.074-1.024-4.1-0.768c-0.256,0-0.512,0-0.768,0c0,0-3.842-1.793-4.1-1.793c-3.841-1.537-9.476-1.792-13.316,1.024
		c-3.586,2.817-4.609,5.634-4.098,9.988c0.512,2.815,2.305,5.891,5.377,7.938c0.514,0.513,1.024,0.769,1.537,1.023
		c-2.305,0-4.354,0.77-5.635,2.051c-1.792,1.791-2.305,4.099-2.049,6.401c1.281,4.865,5.891,7.939,9.988,9.22
		c5.891,2.049,13.83,2.049,18.185-2.815C189.995,119.769,190.763,114.646,188.972,110.035L188.972,110.035z M173.349,96.206
		L173.349,96.206c0.256,0,0.512-0.256,0.769-0.256c2.562-0.512,4.864,2.304,6.401,4.867c0,0,0,0,0,0.256
		c0.256,0,0.256,0.256,0.514,0.512c-1.025-0.512-2.051-1.281-3.33-1.793C173.349,97.742,173.349,96.719,173.349,96.206
		L173.349,96.206z M176.165,120.022c-1.023,0.256-2.562,0-3.33-0.768c0-0.256-0.256-0.256-0.256-0.256
		c-0.256-0.256-0.512-1.281-0.256-1.793c0.256-0.256,0.512-0.512,1.023-0.768c0,0,0.256-0.258,0.512-0.258
		c0.258-0.257,0.514-0.513,0.514-0.769c0.256-0.769,0.256-1.537,0-2.049c0-0.257,0-0.257,0-0.257
		c-0.256-0.256-0.256-0.256-0.256-0.512c0.256,0.256,0.512,0.512,0.768,0.769c1.281,0.768,3.33,2.815,2.817,4.608
		c0,0.256,0,0.256,0,0.256C177.701,119,176.933,119.769,176.165,120.022L176.165,120.022z"/>
	<path fill="#B85D27" d="M84.478,54.973c-2.305-4.866-7.939-6.659-15.366-5.123c-7.427,2.049-14.599,5.378-21.001,9.988
		C38.378,66.241,29.158,77.51,23.78,84.937V82.12v-1.28c-0.256-2.049-0.256-6.659,0.256-7.683V72.9
		c1.537-1.537,2.049-2.305,2.049-4.098v-0.256c-0.256-1.024-0.769-1.281-1.024-1.537c-0.256,0-0.513-0.256-0.769-0.256
		c-1.024-0.256-2.049,0.256-2.817,0.512c-0.256,0-0.512,0.256-0.769,0.256H20.45c-5.634,2.049-10.245,3.585-15.367,6.146
		c0,0,0,0-0.256,0c-0.768,0.768-1.28,1.792-1.024,2.817c0.256,0.512,0.512,0.769,0.769,1.024c0.256,0,0.512,0.256,0.768,0.256
		c0,0.256,0.256,0.256,0.512,0.256c1.024,0.256,1.537,0.512,1.793,1.024c0.768,1.537,0.768,3.33,0.768,5.378v38.929
		c0,0.256,0,0.769,0,1.023c0,2.051,0,3.586-0.768,4.867c-0.256,0-0.256,0.256-0.256,0.512c0,0-0.256,0-0.256,0.256
		c-0.256,0.77-1.024,2.049,0,3.33c0.256,0.256,0.256,0.256,0.512,0.512c0.768,0.512,1.537,0.256,1.792,0c0.256,0,0.256,0,0.513,0
		l4.61-2.561c3.585-1.793,6.915-3.586,10.5-5.379c0.256,0,0.256,0,0.256,0c0.256-0.256,0.256-0.256,0.512-0.256
		c0.512-0.256,1.281-0.512,1.793-1.537c0-0.256,0.256-0.256,0.256-0.512c0.256-0.769-0.256-1.793-1.281-2.306
		c-0.512-0.256-1.281-0.256-1.793-0.256c-0.256,0-0.512,0-0.512,0c0-0.256-0.256-0.256-0.256-0.256
		c-0.256,0-0.256-0.258-0.256-0.515v-8.45V101.58c0.512,1.024,1.024,2.049,1.537,3.073c1.024,1.535,1.793,3.328,2.817,4.865
		c0.512,0.771,1.024,1.537,1.537,2.306c1.024,1.793,2.049,3.329,1.793,4.866c0.256,0.513,0,0.769-0.256,1.279
		c-0.256,0.256-0.512,0.771-0.768,1.281c-0.256,1.023,0,2.305,1.024,2.816c0,0,0.256,0,0.512,0.256c0.768,0,1.28-0.256,1.792-0.256
		l0,0c0.256,0,0.256-0.256,0.256-0.256c5.378-2.05,11.013-3.843,15.623-5.377c2.305-0.515,4.866-1.281,7.171-1.793l3.585-1.025
		c1.024-0.256,1.793-1.023,1.793-2.049c0-1.537-1.537-2.306-2.049-2.306c0,0,0,0-0.256-0.256c-0.256,0-0.256-0.512-0.256-0.771
		V90.06c0-1.537,0-3.073,0.512-4.098c0.512-0.768,1.28-1.024,2.049-0.768c1.024,0.256,1.281,2.561,1.024,5.378
		c0,0.512,0,0.768,0,1.28v17.16c0,0.257,0.256,1.794,0.256,1.794c0,0.256,0,0.512,0,0.512c0.256,0.768,0.768,1.281,2.049,1.281
		c0.256,0,0.256,0,0.512,0c3.329-0.515,6.659-1.025,9.988-1.537h0.256c0.769,0,1.793,0,2.817-1.281l0,0
		c0.512-0.769,0.512-1.793-0.256-2.562c0-0.256-0.256-0.256-0.512-0.512c0,0-0.256,0-0.256-0.256c-0.256,0-0.769-0.259-1.024-0.515
		c0-1.022,0-16.39,0-16.39v-4.354c0-4.098-2.049-7.684-5.378-9.476c0,0,0,0-0.256,0c-4.098-1.793-9.22-1.024-12.806,2.049
		c0.256-0.256,0.256-0.256,0.256-0.256c-0.256,0.256-0.512,0.256-0.512,0.512c-0.256-0.256-0.256-0.256-0.256-0.256
		c-0.256-0.256-0.513-0.512-0.769-0.512c-0.769-0.512-1.537-0.256-1.793-0.256c-0.256,0.256-0.256,0.256-0.256,0.256
		c-2.561,0.512-5.122,1.024-7.427,1.537l-2.562,0.768h-0.256l0,0c-0.769,0.256-1.537,0.512-2.305,1.537c0,0.256,0,0.256-0.256,0.512
		c-0.256,2.305,1.793,2.817,2.305,3.074c0.256,0,0.512,0.256,0.512,0.256c0,1.024,0,20.745,0,25.098
		c0-0.256-0.256-0.512-0.512-0.768c-3.842-6.658-7.683-13.575-11.013-20.232c0-0.256-0.256-0.256-0.256-0.256
		c-0.769-1.28,0-2.562,1.537-4.61c0.256-0.512,0.512-0.769,0.768-1.025c4.61-5.122,11.781-11.524,17.159-14.854
		c5.123-3.33,11.013-4.866,15.367-3.842c1.024,0.512,1.793,1.537,2.049,2.561l0,0l0,0c0,0.513,0,1.537,0.512,2.049
		c0.256,0.256,1.024,0.768,1.793,0.512c0,0,0,0-0.256,0c5.122,0.256,7.94-1.024,11.013-4.866
		C84.99,62.144,86.014,58.046,84.478,54.973L84.478,54.973z"/>
	<path fill="#B85D27" d="M117.004,88.523c-0.257-3.842-1.793-7.171-4.354-9.989l0,0l-2.049-1.792
		c-4.098-3.585-9.73-4.866-16.135-4.098c-2.817,0.256-5.891,1.537-8.964,3.585c-5.378,4.866-7.939,12.806-5.89,20.233
		c0.769,4.354,4.61,9.475,8.708,11.779c5.635,2.818,13.318,3.074,18.697,0.77c5.377-2.305,9.476-8.195,9.987-14.086
		C117.26,93.389,117.26,90.06,117.004,88.523L117.004,88.523z M100.612,102.865c-2.049,1.278-4.097,0.768-5.122,0
		c-1.025-1.281-1.025-2.818-1.025-4.867V84.169c0-2.305,0.512-3.586,1.537-4.354c1.024-0.512,3.073-0.512,4.099,0.256
		c1.023,0.769,1.535,2.305,1.535,4.098l0.258,13.316c0,0.257,0,0.513,0,0.769C101.894,100.303,101.638,102.353,100.612,102.865
		L100.612,102.865z"/>
	<path fill="#FFFFFF" d="M159.263,111.062c-0.514-0.513-1.537-0.769-2.306-0.256c-0.257,0.256-0.769,0.512-2.049,0
		c-1.281-0.771-1.537-2.306-1.537-4.354v-5.379V88.779c0-0.256,0-0.512,0-0.768c0-0.256,0-0.512,0-0.512
		c0.513,0,1.024,0,1.793,0.256c0.512,0,1.024,0.256,1.536,0.256c0.769,0.256,1.793,0,2.049-0.769
		c0.257-0.256,0.257-0.256,0.257-0.512c0.257-1.28,0.257-2.817,0-3.586c0-0.256,0-0.256,0-0.512l-0.257-0.256
		c-0.256-0.256-0.256-0.512-0.512-0.512c-1.024-0.77-2.049-1.024-3.073-1.024c-0.256-0.256-0.769-0.256-1.024-0.512
		c-0.256,0-0.513,0-0.513,0l-0.256-0.256c0-1.792,0-9.988,0-9.988v-0.256l-0.256-1.024c0,0,0,0,0-0.256
		c-0.513-1.024-1.281-1.537-2.306-1.537c-0.513,0-1.024,0.256-1.537,0.77c-0.256,0-0.513,0.256-0.513,0.512
		c-1.793,4.866-4.098,7.427-6.657,8.195c-2.306,0.512-4.61,0-7.172-0.512c-0.513-0.256-1.281-0.256-1.793-0.512
		c-0.256,0-0.256,0-0.513,0h-0.256c0-0.512,0-6.402,0-6.402V64.96c0-0.256-0.257-0.512-0.257-0.768l-0.256-0.256
		c0-0.256-0.256-0.512-0.769-0.768c-0.769-0.256-1.28-0.512-2.049-0.256l0,0c-0.513,0-1.024,0.512-1.537,1.024v0.256l-0.512,0.768
		c-0.513,1.537-1.024,3.074-2.05,4.098c-2.049,2.817-5.121,4.098-9.477,4.098c-0.256,0-0.256,0-0.512,0
		c-0.77,0.256-1.537,0.768-1.793,1.792c0,0.256,0,0.256,0,0.256v2.305c0,0.512,0.256,0.769,0.512,1.024l0.256,0.256
		c0.258,0.512,0.514,0.512,1.025,0.768c0.256,0,0.512,0,1.023,0c0.769,0.256,1.537,0.256,2.049,0.512c0.257,0,0.257,0,0.257,0.256
		v9.476v2.049c0,3.842,0,8.451,0.513,11.781c0.256,2.818,2.305,5.379,5.378,7.172c3.585,2.306,8.964,2.05,12.806-0.77l0,0
		c1.024-1.023,2.306-2.05,2.049-4.099c-0.256,0-0.256-0.256-0.256-0.256c-0.256-0.768-1.024-1.281-2.049-1.281
		c-0.257,0-0.257,0-0.513,0.259c-1.024,0.256-2.049,0.256-2.562,0c-1.28-1.025-1.537-2.818-1.28-5.38V84.681
		c-0.257-0.769,0-1.537,0.256-2.049l0,0c2.306,0,4.354,0.512,6.147,1.28c0.256,0,0.768,0.512,0.768,1.024v13.575v8.451
		c0,2.561,1.023,5.121,2.816,7.17l0,0c3.33,3.33,7.685,4.611,11.781,3.586c0,0,0,0,0.256,0l0,0c1.793-0.768,4.099-1.537,5.123-3.586
		C160.286,112.854,160.03,111.828,159.263,111.062L159.263,111.062z"/>
	<path fill="#FFFFFF" d="M171.812,70.595c-0.769-1.024-1.28-1.537-2.049-2.049h-0.257V68.29c-2.049-1.024-4.866-0.768-6.659,0.512
		c0,0,0,0-0.256,0c-1.279,1.281-2.561,3.073-2.049,5.891c0.514,2.049,2.049,2.305,2.562,2.561c0.768,0,0.768,0.256,0.768,0.256
		c0.257,1.024-0.256,2.049-1.536,3.33c0,0-0.256,0.256-0.256,0.512c0-0.256,0-0.256,0-0.256c-0.513,1.024-0.513,1.793-0.257,2.305
		c0,0.256,0.257,0.256,0.257,0.512c0.512,0.256,1.024,0.512,1.792,0.512h0.257c3.585-0.512,6.915-3.842,7.938-7.427
		C173.092,74.949,172.835,72.388,171.812,70.595L171.812,70.595z"/>
	<path fill="#FFFFFF" d="M187.946,108.756c-1.024-3.073-3.33-5.379-5.893-7.172c0.514,0.256,1.025,0,1.537,0c0,0,0,0,0.256,0
		c1.025-0.512,1.537-1.537,1.793-2.815l0,0c0-2.562,0-5.636-0.256-8.196c0-0.256-0.256-0.77-0.512-1.024
		c-1.281-1.537-2.818-1.024-3.842-0.769c-0.258,0-0.77,0.256-0.77,0.256s-4.098-1.793-4.098-2.049
		c-3.842-1.537-9.477-1.793-13.318,1.024c-3.585,2.817-4.865,5.89-4.098,9.987c0.257,3.074,2.307,5.891,5.122,8.195
		c0.513,0.258,1.024,0.77,1.537,1.024c-2.306-0.256-4.099,0.513-5.636,1.793c-1.535,1.793-2.305,4.099-1.791,6.402
		c1.023,4.864,5.89,7.938,9.986,9.221c5.891,2.306,13.83,2.306,18.186-2.817C189.228,118.744,189.995,113.365,187.946,108.756
		L187.946,108.756z M172.579,95.182L172.579,95.182c0-0.256,0.256-0.512,0.513-0.512c2.816-0.256,5.122,2.562,6.658,4.866
		c0,0.256,0,0.256,0,0.256c0,0.256,0.256,0.512,0.513,0.512c-1.281-0.512-2.306-1.022-3.33-1.535
		C172.323,96.463,172.579,95.694,172.579,95.182L172.579,95.182z M175.396,118.744c-1.279,0.256-2.562,0.256-3.586-0.771
		c0,0,0,0,0-0.256c-0.512-0.256-0.512-1.023-0.256-1.793c0,0,0.514-0.256,0.77-0.512s0.512-0.256,0.769-0.512
		s0.257-0.512,0.513-0.771c0.256-0.512,0.256-1.278,0-2.049c-0.256,0-0.256-0.256-0.256-0.256s0-0.257-0.257-0.257
		c0.513,0.257,0.769,0.257,1.024,0.513c1.279,1.024,3.072,2.817,2.561,4.867c0,0,0,0,0,0.256
		C176.677,117.719,176.165,118.487,175.396,118.744L175.396,118.744z"/>
	<path fill="#FFFFFF" d="M83.453,53.692c-2.305-4.866-7.939-6.659-15.11-4.866c-7.683,2.049-14.598,5.378-21.257,9.732
		C37.61,64.96,28.39,76.229,22.755,83.657V80.84v-1.281c0-2.049,0-6.402,0.256-7.427c0.256-0.256,0.256-0.256,0.256-0.256
		c1.28-1.536,2.049-2.305,2.049-4.354v-0.256c-0.256-0.768-1.024-1.281-1.28-1.537c0,0-0.256,0-0.512-0.256
		c-1.281,0-2.049,0.256-2.817,0.512c-0.256,0.256-0.768,0.256-1.024,0.256l0,0c-5.634,2.049-10.5,3.842-15.623,6.147
		c0,0,0,0,0,0.256c-1.024,0.512-1.537,1.537-1.024,2.561c0,0.512,0.512,1.024,0.768,1.024c0,0.256,0.256,0.512,0.512,0.512
		s0.512,0,0.769,0.256c0.768,0.256,1.537,0.256,1.792,0.769c0.769,1.537,0.769,3.585,0.769,5.378v38.928c0,0.514,0,0.77,0,1.024
		c0,2.049,0,3.586-1.024,4.865c0,0.256,0,0.256-0.256,0.514v0.256c-0.256,0.769-1.024,2.05,0,3.328c0,0.256,0.256,0.515,0.256,0.515
		c0.768,0.512,1.792,0.256,2.049,0.256c0.256,0,0.256,0,0.256-0.256l4.867-2.562c3.585-1.794,6.915-3.585,10.5-5.121
		c0-0.257,0.256-0.257,0.256-0.257s0.256,0,0.256-0.258c0.512-0.256,1.537-0.512,2.049-1.535v-0.256
		c0.256-1.024-0.256-2.051-1.024-2.562c-0.768-0.256-1.537-0.256-2.049-0.256c0,0-0.256,0-0.512,0l0,0
		c-0.256-0.256-0.512-0.513-0.512-0.769v-8.451v-10.246c0.512,1.025,1.281,2.05,1.792,3.074c0.769,1.793,1.793,3.33,2.817,4.865
		c0.513,1.024,1.024,1.793,1.281,2.562c1.281,1.537,2.049,3.072,2.049,4.865c0,0.256-0.256,0.512-0.512,1.025
		c-0.256,0.512-0.512,1.022-0.512,1.535c-0.512,0.77,0,2.049,0.769,2.562c0.256,0.256,0.512,0.256,0.512,0.256
		c0.768,0.256,1.537,0,1.792-0.256c0.256,0,0.256,0,0.256,0s0,0,0.256,0c5.378-2.306,10.757-4.099,15.623-5.379
		c2.305-0.769,4.609-1.281,7.17-2.05l3.586-0.768c1.024-0.256,1.537-1.281,1.537-2.049c0-1.793-1.281-2.307-2.049-2.562l0,0
		c-0.256-0.256-0.513-0.768-0.513-0.768v-18.44c0-1.537,0.256-3.073,0.769-4.098c0.512-0.512,1.024-0.769,1.793-0.769
		c1.281,0.256,1.281,2.817,1.281,5.635c0,0.256,0,0.768,0,1.024v17.416v1.793c0,0,0,0.256,0.256,0.514
		c0,0.512,0.769,1.279,2.049,1.279h0.256c3.329-0.769,6.915-1.279,9.988-1.537c0.256-0.256,0.256-0.256,0.512-0.256
		c0.512,0,1.793,0,2.562-1.023V108.5c0.512-0.771,0.512-1.793,0-2.562c-0.256,0-0.256-0.256-0.513-0.513c-0.256,0-0.256,0-0.256,0
		c-0.512-0.256-1.024-0.512-1.024-0.768c0-0.771,0-16.135,0-16.135v-4.61c0-4.098-2.049-7.427-5.634-9.476l0,0
		c-4.098-1.792-9.22-1.024-12.806,2.049c0,0,0-0.256,0.256-0.256c-0.256,0.256-0.513,0.512-0.769,0.512c0,0,0-0.256-0.256-0.256
		c0-0.256-0.256-0.512-0.512-0.512c-0.768-0.256-1.537-0.256-2.049,0h-0.256c-2.561,0.512-4.866,1.024-7.171,1.793l-2.817,0.512l0,0
		h-0.256c-0.513,0.256-1.537,0.512-2.049,1.537c-0.256,0.256-0.256,0.512-0.256,0.512c-0.512,2.305,1.537,3.073,2.305,3.33
		c0.256,0,0.512,0,0.512,0c0,1.024,0,21.001,0,25.354l0,0c-0.256-0.256-0.256-0.77-0.512-1.024
		c-3.842-6.658-7.684-13.573-11.269-20.232V87.5c-1.024-1.281-0.256-2.305,1.537-4.61c0.256-0.256,0.256-0.512,0.512-0.769
		c4.61-5.378,12.038-11.78,17.416-15.11c5.122-3.329,11.013-4.61,15.11-3.585c1.024,0.256,2.049,1.281,2.305,2.305c0,0,0,0,0,0.256
		l0,0c0,0.513-0.256,1.281,0.512,2.049c0.256,0,0.768,0.512,1.792,0.512c-0.256,0-0.256,0-0.256,0c5.122,0,7.683-1.281,10.756-5.123
		C84.222,61.119,85.246,57.021,83.453,53.692L83.453,53.692z"/>
	<path fill="#FFFFFF" d="M116.235,87.499c-0.258-3.842-1.793-7.171-4.354-9.989c0,0,0,0,0-0.256l-2.048-1.793
		c-4.354-3.329-9.732-4.866-16.135-4.097c-3.074,0.256-5.891,1.537-8.964,3.841c-5.634,4.61-7.939,12.806-6.146,20.232
		c1.024,4.354,4.61,9.221,8.963,11.781c5.378,2.561,13.062,2.816,18.696,0.512c5.378-2.305,9.477-7.938,9.988-14.084
		C116.491,92.108,116.491,89.035,116.235,87.499L116.235,87.499z M99.588,101.84c-2.049,1.025-3.841,0.771-4.866-0.256
		c-1.024-1.022-1.024-2.815-1.024-4.865V82.888c0-2.049,0.256-3.33,1.537-4.098c1.024-0.769,3.073-0.512,4.098,0
		c1.023,0.768,1.537,2.305,1.537,4.098v13.318c0,0.257,0,0.513,0,0.77C100.869,99.278,100.869,101.072,99.588,101.84L99.588,101.84z
		"/>
	<path fill="#6D328F" d="M159.772,130.781c0-1.025,0.77-2.05,2.049-2.05c1.025,0,2.05,1.023,2.05,2.05
		c0,1.278-1.024,2.049-2.05,2.049C160.542,132.83,159.772,132.062,159.772,130.781L159.772,130.781z M159.263,130.781
		c0,1.534,1.023,2.561,2.561,2.561c1.281,0,2.562-1.024,2.562-2.561c0-1.281-1.28-2.306-2.562-2.306
		C160.286,128.478,159.263,129.5,159.263,130.781L159.263,130.781z M160.798,132.315h0.514v-1.278h0.512l0.769,1.278h0.513
		l-1.023-1.278c0.512,0,0.768-0.256,0.768-0.771c0-0.512-0.256-0.768-1.023-0.768h-1.024v2.816H160.798z M161.312,129.756h0.512
		c0.257,0,0.769,0,0.769,0.513c0,0.258-0.256,0.258-0.769,0.258h-0.512V129.756L161.312,129.756z"/>
	<path fill="#6D328F" d="M158.493,111.828c-0.256-0.256-0.77-0.256-1.024,0c-0.769,0.514-1.793,0.256-3.073-0.256
		c-1.793-0.769-2.049-2.816-2.049-5.121v-5.379V88.779c0-0.256,0-0.512,0-0.768c-0.256-0.769,0-1.281,0.256-1.537
		c0.77-0.256,1.793,0,2.817,0.256c0.513,0,1.024,0.256,1.28,0.256c0.513,0.256,1.023,0,1.281-0.256v-0.256
		c0.256-1.024,0.256-2.305,0-3.074v-0.256l-0.258-0.256v-0.256c-1.023-0.513-1.791-0.769-2.815-0.769
		c-0.257-0.256-0.769-0.256-1.024-0.512v0.256c-0.257-0.256-0.513-0.256-0.513-0.256c-1.024-0.256-1.024-0.512-1.024-0.769v-10.5
		c0,0,0,0-0.256,0v-1.024l0,0c-0.257-0.512-0.77-1.024-1.281-1.024c-0.256,0-0.768,0.256-1.023,0.512c0,0,0,0-0.256,0.256
		c-1.537,5.122-4.098,7.939-7.172,8.708c-2.561,0.512-5.121,0-7.684-0.512c-0.512-0.256-1.023-0.256-1.792-0.512h-0.257
		c-1.023-0.256-1.536-0.256-1.279-1.024V69.06v-4.1l-0.257-0.256v-0.256c-0.257-0.256-0.257-0.256-0.257-0.256
		c-0.768-0.256-1.023-0.256-1.536-0.256c-0.256,0-0.513,0.256-0.769,0.512v0.256l-0.512,0.768c-0.514,1.537-1.024,3.074-2.05,4.354
		c-2.306,3.074-5.635,4.354-10.501,4.354h-0.256c-0.514,0.256-0.77,0.512-0.77,1.024l0,0v2.305c0,0.256,0,0.256,0,0.512l0.256,0.256
		h0.258c0.512,0.256,0.768,0.256,1.023,0.256c1.024,0.256,2.049,0.256,2.817,0.512c0.256,0.256,0.513,0.512,0.513,0.769v2.305v7.684
		v2.049c0,3.585,0,8.451,0.512,11.525c0.257,3.074,2.816,5.379,4.865,6.401c3.33,2.306,8.196,2.05,11.525-0.512
		c0.256,0,0.256-0.256,0.256-0.256c0.77-0.512,1.793-1.537,1.28-2.818c0,0,0,0,0-0.256c0,0-0.256-0.512-1.024-0.512c0,0,0,0-0.256,0
		c-1.023,0.512-2.305,0.768-3.328,0c-2.05-1.281-2.05-3.586-2.05-6.146l0,0V84.681c0-1.024,0.256-2.049,0.513-2.817
		c0,0,0.256-0.512,1.023-0.512c2.562,0.256,4.609,0.768,6.659,1.537c0.769,0.256,1.28,1.281,1.28,2.049v13.575v8.451
		c0,2.305,0.769,4.609,2.562,6.402c3.073,3.074,7.171,4.354,10.757,3.33h0.256c1.536-0.771,3.586-1.281,4.609-3.074
		C159.006,112.854,158.749,112.084,158.493,111.828L158.493,111.828z"/>
	<path fill="#6D328F" d="M170.786,71.107c-0.512-0.768-1.023-1.281-1.792-1.793l0,0l0,0c-1.793-1.024-4.099-0.768-5.636,0.256l0,0
		c-1.023,1.28-2.305,2.561-1.793,4.866c0.514,1.281,1.024,1.537,1.537,1.537c1.024,0.256,1.537,0.769,1.793,1.281
		c0.256,1.537-0.256,2.817-1.793,4.354l0,0c0,0.256,0,0.256,0,0.256c-0.256,0.256-0.513,0.512-0.256,1.024v0.256
		c0.256,0,0.512,0.256,1.023,0.256l0,0c3.074-0.512,6.146-3.33,7.428-6.659C171.812,74.949,171.812,72.644,170.786,71.107
		L170.786,71.107z"/>
	<path fill="#6D328F" d="M186.922,109.269c-1.537-4.867-6.147-7.429-10.501-9.732c-4.354-2.049-5.122-3.072-4.865-4.61
		c0-0.512,0.512-1.024,1.279-1.28c3.586-0.512,6.146,2.561,7.684,5.378c0.256,0.512,1.28,1.793,2.817,1.537l0,0
		c0.769-0.259,1.024-1.025,1.28-1.793c0-2.562,0-5.636-0.256-8.196c0,0,0,0-0.256-0.256c-0.77-1.024-1.793-0.768-2.817-0.512
		c-0.513,0.256-1.024,0.256-1.537,0c0,0-3.842-1.792-4.099-1.792c-3.328-1.281-8.707-1.793-12.293,1.024
		c-3.072,2.305-4.098,5.122-3.586,8.963c0.258,2.562,2.049,5.123,4.867,7.172c1.793,1.537,3.842,2.561,5.635,3.586
		c1.535,0.768,3.072,1.537,4.354,2.561c2.049,1.281,3.842,3.586,3.329,5.892c-0.256,0-0.256,0-0.256,0
		c0,1.022-0.769,2.306-2.05,2.562c-1.535,0.256-3.328,0.256-4.608-1.023c-0.769-0.77-1.024-2.049-0.513-3.074
		c0.256-0.512,0.769-1.023,1.279-1.279c0.258,0,0.514-0.258,0.514-0.258c0.256-0.256,0.256-0.256,0.256-0.256
		c0.256-0.512,0-1.023,0-1.535l0,0c-1.28-1.793-3.073-3.074-5.122-3.842c-2.817-0.77-5.378-0.258-6.915,1.279
		c-1.279,1.537-1.793,3.33-1.536,5.379c1.024,4.609,5.378,7.428,9.22,8.451c5.379,2.049,13.062,2.049,17.159-2.562
		C187.946,118.229,188.714,113.365,186.922,109.269L186.922,109.269z"/>
	<path fill="#6D328F" d="M82.685,54.204c-3.073-6.403-11.525-4.866-14.086-4.354c-7.427,1.793-14.342,5.123-20.745,9.732
		c-10.501,6.915-20.745,19.72-25.867,26.892l0,0c0,0.256-0.256,0.256-0.256,0.256v-5.891v-1.281c0-2.305,0-7.427,0.512-8.195
		l0.256-0.256c1.28-1.537,1.537-2.049,1.537-3.585l0,0c0-0.513-0.256-0.769-0.512-0.769h-0.256c-0.768-0.256-1.537,0-2.305,0.256
		c-0.256,0.256-0.512,0.256-1.024,0.256l0,0c-5.635,2.049-10.245,3.842-15.367,6.146c-0.512,0.256-0.769,1.024-0.512,1.537
		c0,0.256,0.256,0.512,0.256,0.512h0.256c0,0.256,0,0.256,0,0.256c0.256,0,0.512,0,0.768,0c1.024,0.512,1.793,0.768,2.561,1.537
		c0.769,1.792,0.769,3.841,0.769,5.89v38.928c0,0.256,0,0.77,0,1.025c0,2.049,0,4.098-1.024,5.635c0,0,0,0-0.256,0
		c0,0.256,0,0.256,0,0.512c-0.512,0.768-0.768,1.537-0.256,2.305H7.39c0.256,0.256,0.769,0.256,1.024,0.256c0,0,0,0,0.256,0
		l4.61-2.561c3.586-2.049,6.915-3.842,10.5-5.379h0.256c0-0.256,0.256-0.256,0.512-0.512c0.513,0,1.025-0.256,1.281-1.025l0,0
		c0.256-0.512,0-1.023-0.512-1.279c-0.512-0.256-1.024-0.256-1.537-0.256c-0.256,0-0.768,0-1.024,0l0,0
		c-0.768-0.514-1.024-1.281-1.024-1.793v-8.451v-13.83l0,0l0,0c1.281,2.049,2.561,4.098,3.842,6.146
		c0.768,1.793,1.792,3.328,2.817,4.865c0.256,0.77,0.769,1.537,1.281,2.305c1.024,1.793,2.049,3.586,2.049,5.635
		c0,0.512-0.256,1.025-0.512,1.537s-0.512,0.768-0.512,1.281c-0.256,0.512-0.256,1.022,0.512,1.535l0,0c0.512,0,1.024,0,1.281-0.256
		c0,0,0,0,0.256,0l0,0c5.634-2.306,11.013-4.099,15.623-5.377c2.561-0.771,4.866-1.281,7.427-2.05l3.585-0.771
		c0.512-0.256,0.769-0.768,0.769-1.022c0-1.024-0.769-1.28-1.281-1.537H58.61c-0.512-0.512-1.024-1.024-1.024-1.793v-18.44
		c0-1.537,0-3.329,0.769-4.61c0.769-1.025,1.793-1.537,3.073-1.281c2.305,0.512,2.049,3.842,2.049,6.659c0,0.256,0,0.768,0,1.024
		v17.415v1.793l0,0c0.256,0.771,1.024,0.771,1.28,0.515l0,0c0,0,0,0,0.256,0c3.329-0.515,6.659-1.024,9.988-1.537
		c0,0,0.256,0,0.512,0c0.512,0,1.281,0,1.793-0.771c0.256-0.512,0.256-1.022,0-1.278c-0.256,0-0.256-0.256-0.256-0.256
		c-0.256,0-0.256,0-0.256,0c-1.024-0.515-1.793-1.025-1.793-1.793V83.913c0-1.793-0.256-6.146-4.866-8.452
		c-3.585-1.792-8.452-1.024-11.525,1.793l0,0c-0.256,0.256-0.768,0.512-1.024,0.768c0,0.256-0.256,0.512-0.512,0.512
		c0,0-0.256-0.256-0.256-0.512c-0.256-0.256-0.256-0.512-0.512-0.768c0-0.256-0.256-0.256-0.256-0.256c-0.512-0.256-0.768,0-1.28,0
		h-0.256c-2.561,0.512-4.866,1.024-7.171,1.793l-2.817,0.512c0,0,0,0-0.256,0c-0.256,0.256-1.024,0.512-1.537,1.024
		c0,0.256,0,0.256,0,0.256c-0.256,1.281,1.024,1.793,1.537,2.049c1.024,0.256,1.281,0.256,1.281,1.024v26.122v0.257
		c0,0.258,0,0.771-0.256,1.024l-0.256,0.256c-0.512-0.512-1.024-1.022-1.537-1.793c0-0.256-0.256-0.768-0.512-1.022l0,0
		c-3.842-6.66-7.684-13.575-11.013-20.233c-0.256,0-0.256,0-0.256,0c-1.28-2.049,0.256-4.098,1.537-6.147
		c0.256-0.256,0.512-0.512,0.769-0.768c4.61-5.378,12.037-11.781,17.671-15.367c5.378-3.329,11.525-4.866,16.135-3.585
		c1.281,0.512,2.561,1.793,2.817,3.073c0,0.256,0,0.256,0,0.256l0,0v0.256c0,0.513,0,0.769,0.256,1.281c0.256,0,0.512,0.256,0.769,0
		l0,0c4.61,0.256,7.171-1.024,9.988-4.61C83.197,60.607,83.965,57.021,82.685,54.204L82.685,54.204z"/>
	<path fill="#6D328F" d="M115.211,87.499c-0.513-3.586-1.793-6.659-4.099-9.22c0-0.256-2.049-2.049-2.049-2.049
		c-3.842-3.329-9.221-4.61-15.367-3.841c-2.817,0.256-5.378,1.536-8.196,3.585c-5.378,4.354-7.683,12.038-5.89,19.208
		c0.769,4.098,4.354,8.708,8.451,11.012c5.123,2.562,12.548,2.817,17.671,0.77c5.123-2.305,8.963-7.684,9.477-13.318
		C115.211,92.108,115.211,89.035,115.211,87.499L115.211,87.499z M92.673,94.157V82.888c0-1.537,0-3.842,1.792-5.122
		c1.537-0.769,4.099-0.769,5.378,0.256c1.281,1.024,2.051,2.817,2.051,4.866v13.318c0,0.257,0,0.513,0,0.77
		c0,2.049,0.256,4.608-1.793,5.891c-2.307,1.279-4.867,0.768-6.146-0.514c-1.537-1.279-1.537-3.584-1.281-5.634V94.157
		L92.673,94.157z"/>
	<path fill="#FFFFFF" d="M105.479,113.365L105.479,113.365l-1.024,0.512c0,0.256,0,0.256,0,0.515c0,0,0,0,0,0.256
		c0,0.512,0.257,1.022,0.769,1.278c0,0,0,0.257,0.256,0.257c0,0.514,0,4.098,0,4.098s0,5.891,0,6.147l-0.256,0.513v0.768h-0.256
		c-0.256,0.256-0.769,0.77-0.769,1.537l0,0c0,0.512,0.256,0.768,0.513,1.023h0.256c1.28,0.258,2.817,0.258,4.098,0.514h1.537
		c0.256,0,0.769,0,0.769-0.256h0.256c0.256-0.258,0.256-0.258,0.256-0.515c0.257-0.256,0.257-0.256,0.257-0.512
		c0-0.512-0.513-1.022-0.769-1.281l0,0c-0.256-0.768-0.513-1.791-0.513-2.815c0-0.512,0.257-0.769,0.257-1.281c0,0,0-0.768,0-1.023
		l0,0l0.256,0.512c0,0.513,0.256,1.025,1.024,1.537c0,0,0.512,0.256,0.769,0l0,0c0.512,0,1.024-0.512,1.024-1.28s0-1.793,0-2.562
		c0-0.512,0-1.024,0-1.537c0.256,0.256,0.512,0.513,0.769,0.513c0.256,0.256,0.256,0.256,0.512,0.256
		c0.769,0,1.024-0.513,1.28-0.769v-0.256c0,0,0-0.256,0-0.512v-0.512c0.257-1.025,0.257-2.049,0-2.818c0,0,0-0.256-0.256-0.256
		c-0.256-0.512-0.514-1.023-1.28-1.023l0,0c-2.562-0.514-5.635-0.77-9.476-1.024h-0.258V113.365z M105.479,116.183L105.479,116.183
		L105.479,116.183L105.479,116.183L105.479,116.183z M106.503,128.478l0.514-1.281v-0.769c0,0,0-0.77,0-2.051
		c0-1.791,0-4.099,0-4.099v-4.098c0-0.256-0.514-1.022-0.77-1.279c3.329,0.257,6.146,0.513,8.708,1.023c0,0,0.256,0,0.256,0.256
		c0,0.258,0,0.771,0,1.281c0,0.256,0,0.512,0,0.768c0-0.256-0.256-0.768-0.256-0.768c-1.024-1.281-2.306-2.049-4.099-2.049
		c-0.513,0-1.023,0.256-1.28,0.768c0,0,0,0,0,0.258l-0.257,1.279v2.049c0.257,0.769,0.77,1.281,1.281,1.281
		c1.023,0,1.537-0.77,2.049-1.281c0,0.512,0,1.025,0,1.537s0,1.023,0,1.537c0-0.256-0.256-0.514-0.256-0.514
		c-0.256-0.512-1.024-1.279-2.049-1.279c0,0,0,0-0.257,0c-0.769,0.512-0.769,1.279-0.769,1.793l0,0v1.279c0,0.256,0,0.77,0,1.281
		c0,1.281,0.256,2.561,0.513,3.586c0,0,0.256,0,0.256,0.256c-0.513,0-1.024-0.256-1.024-0.256c-1.023,0-1.793,0-2.816-0.256
		C106.503,128.731,106.503,128.478,106.503,128.478L106.503,128.478z M111.112,117.976c0,0,0-0.513,0-1.023
		c0.513,0.256,0.769,0.256,1.281,0.512h-0.256v0.256l-0.514,0.771c-0.256,0.256-0.512,0.512-0.512,0.768
		C111.112,118.744,111.112,117.976,111.112,117.976L111.112,117.976z M112.649,123.865L112.649,123.865L112.649,123.865
		L112.649,123.865L112.649,123.865z"/>
	<path fill="#FFFFFF" d="M117.771,114.901c-0.256,0-0.768,0.257-0.768,0.769l0,0c-0.257,0.256-0.257,0.256-0.257,0.513
		c0,0.514,0.257,1.024,0.513,1.28l0.256,0.256l-3.842,9.478c-0.256,0.512-0.77,0.768-1.279,1.281l-0.256,0.256
		c-0.258,0-0.258,0.256-0.258,0.512c0,0-0.256,0.256-0.256,0.512s0.256,0.77,0.77,1.025l0.256,0.256l3.328,0.512l1.025-0.512
		l0.512-0.77c0,0,0,0,0-0.257l-0.256-0.256c-0.256-0.256-0.256-0.512-0.256-0.769c0-0.256,0.256-0.512,0.512-1.28
		c0,0,0.256-0.513,0.514-1.022h0.256l1.279,0.256h-0.512h0.512c0.514,0.256,0.77,0.256,1.024,0.256c0,0.512,0.257,1.022,0.257,1.022
		c0.256,0.771,0.512,1.281,0.512,2.05c0-0.257-0.256,0.258-0.256,0.258l-0.513,0.512c0,0,0,0.256,0,0.512
		c0,0.512,0.257,0.768,0.513,1.025l0.256,0.256h0.256l8.709,2.049l1.023,0.256c0.256,0,0.512,0,0.77-0.256l-0.258,0.256
		c0.258-0.256,0.258-0.256,0.258-0.256s0,0,0.256,0v-0.256c0.256-0.258,0.256-0.514,0.256-0.77c0,0,0-0.257,0-0.513
		c-0.512-0.512-0.512-1.537-0.512-2.305c0-0.257,0-0.513,0-0.771c0,0.258,0.256,0.514,0.256,0.514l1.793,3.328
		c1.536,2.306,3.842,3.074,6.146,3.586l1.279,0.513c1.023,0.514,1.537-0.256,1.793-0.513l0.256-0.256c0-0.256,0-0.256,0-0.256
		c0-0.512-0.256-1.024-0.512-1.281v-0.256c0,0,0-1.537,0-2.305c0.256,1.023,0.768,3.33,0.768,3.33v0.256
		c0.258,0.512,0.514,1.279,1.024,2.049c0,0,0,0,0.257,0.256c0.256,0.256,0.768,0.256,1.536-0.256c0.256,0,0.256,0,0.256,0
		c0-0.256,0.257-0.256,0.257-0.514c0,0,1.024-2.305,2.049-4.354c0,1.024,0,3.842,0,4.354l0,0c-0.256,0.514-0.769,1.025-0.769,1.537
		v0.256c0,0.256,0,0.514,0.256,0.514l1.281,0.769c0.256,0,0.513,0.256,0.513,0.256c-0.257-0.256,1.793,0.771,1.793,0.771
		l1.536,0.512c0.257,0.256,0.513,0.256,0.769,0h0.257c0.256,0,0.512-0.256,0.512-0.512l0,0c0.513-0.771,0-1.537-0.256-1.793v-0.259
		c-0.256-0.256-0.256-1.022-0.256-1.534v-1.025c0,0,0-0.512,0-1.279c0-1.025,0-7.684,0-8.195h0.256l0.769-0.514
		c0.256-0.256,0.256-0.256,0.256-0.512c0,0,0-0.256,0-0.512c0-0.513-0.256-1.025-0.769-1.025c-1.024-0.512-2.305-1.279-3.842-1.793
		c-1.024-0.256-1.793,0.256-2.306,1.025c0,0-1.023,2.305-1.793,3.842c-0.513-1.793-1.279-4.611-1.279-4.611v-0.256
		c0-0.768-0.258-1.535-1.024-2.049l-0.257-0.256c-1.536-0.769-3.072-1.281-4.865-1.537c0,0-0.256,0-0.513,0l-0.256,0.256
		c-0.257,0-0.513,0.258-0.513,0.77l0,0c0,0,0,0,0,0.256c0,0.512,0.256,1.025,0.513,1.281c0,0,0,0,0,0.256c0,0,0,8.963,0,10.244
		c-0.513-1.025-1.28-2.305-1.793-3.586c0,0-0.769-1.537-0.769-2.049l0.769-0.512c1.024-0.769,1.536-1.793,1.536-3.074
		c0-0.256,0-0.768,0-1.023c-0.768-3.586-4.098-4.354-6.914-5.123l-1.793-0.256l-0.514-0.256c-1.023-0.256-2.049-0.512-2.815-0.512
		c-0.513,0-0.769,0.256-1.024,0.512v0.256c0,0.256,0,0.256,0,0.512c0,0.515,0.256,1.025,0.512,1.281c0,0,0,0.256,0.256,0.256
		c0,0.256,0,5.379,0,8.451c-1.279-3.842-3.584-11.012-3.584-11.012s0,0-0.256-0.256l-0.258-0.512
		c-0.256-0.258-0.256-0.258-0.512-0.515l-0.514-0.256h-0.256l-0.512-0.256C119.821,115.158,118.797,114.901,117.771,114.901
		L117.771,114.901z M115.211,127.707l1.793-4.608c0-0.257,2.05-4.867,2.05-4.867c0-0.256,0-0.256,0-0.513
		c0-0.512-0.257-0.768-0.257-1.022c0.513,0,1.024,0,1.536,0.256l0.514,0.256c0,0,0.256,0,0.512,0.256l0.256,0.256
		c0,0.256,4.354,13.574,4.354,13.574l0.768,0.768c0.258,0.256,0.258,0,0.514,0c0.512,0,0.77-0.512,1.023-1.022v-11.524l0,0l0,0
		c0,0-0.256-0.513-0.513-0.769c0.513,0,1.024,0,1.537,0.256l0.769,0.256c-0.256,0,1.537,0.257,1.537,0.257
		c2.816,0.768,5.379,1.28,5.891,3.842c0,0.256,0,0.512,0,0.768c0,0.77-0.256,1.281-1.024,1.793l-0.512,0.256l-1.024,0.77v1.023
		l1.28,2.562c0.513,1.535,1.28,3.328,2.562,5.121c0,0,0.256,0,0.256,0.256c-1.536-0.512-2.816-1.279-3.586-2.562l-1.793-3.329
		l-0.768-1.794c-0.257-0.256-0.257-0.512-0.769-0.512c0-0.256,0-0.256,0-0.256c-0.257-0.257-0.769-0.257-1.024-0.257l-0.257,0.257
		c-0.256,0-0.256,0.256-0.256,0.512s0,0.256,0,0.256l0,0v1.025c-0.257,0.512-0.257,1.022-0.257,1.793
		c0,0.769,0.257,1.537,0.513,2.305c0,0-6.401-1.536-8.451-2.049c0.257-0.256,0.513-0.769,0.513-1.024
		c0-1.023-0.256-1.791-0.513-2.562l-0.256-1.022c-0.256,0-0.256-0.256-0.256-0.256c-0.513-0.771-1.281-0.771-1.793-1.025h-0.513
		h-0.256l-0.513-0.256c-0.513-0.256-1.537-0.513-2.05,0.512c-0.256,0-0.256,0-0.256,0.256l-0.514,1.025
		c-0.256,0.768-0.512,1.537-0.512,2.305c0,0,0,0.256,0.256,0.512c-0.512,0-1.535-0.256-2.049-0.256
		C114.187,128.988,114.698,128.478,115.211,127.707L115.211,127.707z M115.724,130.524c0-0.258,0-0.258,0-0.258s0,0.258,0.256,0.258
		C115.724,130.524,115.724,130.524,115.724,130.524L115.724,130.524z M122.126,131.549L122.126,131.549c0,0.257,0,0.257,0,0.257
		S122.126,131.806,122.126,131.549L122.126,131.549z M140.565,122.072c1.279,0.514,2.562,0.77,3.586,1.28
		c0.256,0.256,0.512,0.513,0.512,1.023c0,0.258,1.793,7.172,1.793,7.172c0,0.256,0.256,0.512,0.512,0.512
		c0.514,0,0.77,0,1.024-0.256l0.257-0.256c0,0,0,0,0-0.256l2.561-5.379c0-0.256,0.258-0.256,0.514-0.256
		c1.023,0.512,2.049,1.025,2.816,1.281c-0.256,0.256-0.513,0.512-0.769,1.022l0,0v9.988v1.024c0,0.256,0,0.512,0,0.769
		c0,0.512,0,1.024,0.256,1.537l0,0c-0.256,0-0.769-0.257-0.769-0.257l-1.793-0.77L150.81,140c0,0-0.256,0-0.512-0.256l0,0
		l0.512-0.769l0,0c0,0,0,0,0-0.256c0,0,0-7.938,0-8.453l0,0c0-0.256,0-0.512-0.256-0.768c-0.256,0-0.512-0.256-0.769,0l-0.257,0.256
		l0,0l0.257-0.256h0.257c0.256,0,0.512,0.256,0.768,0.512c0,0.256,0,0.256,0,0.256c0,0.258-0.256,0.515-0.256,0.515
		c-0.256,0-0.256,0.256-0.256,0.256l0,0c-0.256,0-0.513-0.256-0.77-0.256c0-0.257,0-0.257,0-0.257
		c-0.256-0.258-0.256-0.258-0.256-0.258c0-0.256,0-0.256,0-0.256l0,0l0,0v0.256l0,0c-0.512,0.771-3.072,6.66-3.33,7.172
		c-0.256-0.256-0.256-0.512-0.512-1.024v-0.256l-1.023-4.099l-1.024-4.098l-0.256-0.256l0,0l0,0c0-0.256,0-0.512-0.257-0.512
		c-0.256-0.256-0.512-0.256-1.023-0.256v0.256c0,0,0,0-0.257,0.256c0-0.256,0-0.256,0.257-0.256l-0.257,0.256
		c0,0.256,0,0.256,0,0.256h-0.256h0.256c-0.256,0-0.256,0.256-0.256,0.256v7.684c0,0,0.256,0.769,0.513,1.025
		c-0.513-0.258-1.281-0.514-1.281-0.514c-0.256,0-0.512,0-0.768,0c0.256,0,0.256,0,0.256-0.256c0.256,0,0.256,0,0.256,0
		c0.512-0.512,0.77-1.023,0.77-1.537v-11.523C141.078,123.099,140.821,122.586,140.565,122.072L140.565,122.072z M154.908,127.963
		L154.908,127.963c0,0.256,0,0.256,0,0.256l0,0V127.963L154.908,127.963z M149.528,130.781L149.528,130.781c0,0,0.257,0,0.257,0.256
		C149.785,130.781,149.785,130.781,149.528,130.781L149.528,130.781z M149.272,138.722L149.272,138.722L149.272,138.722
		L149.272,138.722L149.272,138.722z M154.396,141.537L154.396,141.537L154.396,141.537L154.396,141.537z M126.735,119.513
		L126.735,119.513L126.735,119.513L126.735,119.513L126.735,119.513z M137.748,127.194h-0.256l0,0H137.748L137.748,127.194
		L137.748,127.194z M137.492,127.194L137.492,127.194L137.492,127.194L137.492,127.194L137.492,127.194z M149.272,130.012
		c0,0,0-0.256,0.256-0.256C149.272,129.756,149.272,130.012,149.272,130.012L149.272,130.012z"/>
	<path fill="#FFFFFF" d="M118.54,120.793c0,0.256-1.023,2.306-1.023,3.072c0,0,0,0,0,0.256s0.256,1.024,1.793,1.28
		c0.769,0,1.279,0,1.537-0.256c0.256,0,0.512-0.256,0.256-0.77l-0.256-1.535l-0.514-1.537c-0.256-0.512-0.512-0.77-0.77-0.77
		C119.31,120.278,118.797,120.535,118.54,120.793L118.54,120.793z M119.31,123.354v0.256c0,0,0,0-0.256,0
		C119.054,123.608,119.31,123.608,119.31,123.354L119.31,123.354z M119.31,125.401L119.31,125.401L119.31,125.401L119.31,125.401
		L119.31,125.401z"/>
	<path fill="#FFFFFF" d="M131.347,119.769c-0.257,0.256-0.514,1.024-0.514,1.024s0,0,0,0.256v3.843l0,0
		c0,0.768,0.77,1.022,1.281,1.278c0.769,0,1.535,0,2.049-0.512c1.023-1.023,1.279-2.562,0.77-3.843
		c-0.514-1.793-2.562-2.049-3.074-2.049C131.603,119.769,131.603,119.769,131.347,119.769L131.347,119.769z M132.37,121.049
		L132.37,121.049L132.37,121.049L132.37,121.049z M132.37,121.562c0.513,0,1.023,0.256,1.023,0.768
		c0.256,0.258,0.256,0.514,0.256,0.77c0,0.512-0.256,0.769-0.512,1.279c-0.256,0-0.513,0.258-0.769,0l0,0
		C132.37,123.865,132.37,122.328,132.37,121.562L132.37,121.562z"/>
	<path fill="#FFFFFF" d="M60.403,117.207c-2.817,0.769-5.891,1.28-8.708,2.562c-0.256,0-0.512,0.256-0.768,0.768
		c0,0,0,0.258,0,0.514c0,0,0,0.256,0,0.512c0,0,0.256,0.256,0.512,0.513c0.768,0.256,1.024,0.514,1.024,0.77v8.707v0.513
		c0,1.024-0.256,1.793-0.769,2.305c-0.256,0.258-0.256,0.258-0.256,0.514c-0.256,0-0.256,1.023-0.256,1.023l0.512,0.77
		c0.256,0.256,0.512,0.256,0.769,0l5.122-1.281l2.305-0.768c0.256,0,1.281-0.514,1.281-0.514c1.024,0,1.793-0.256,2.561-0.769
		c0.256-0.256,0.256-0.512,0.512-0.512c0.512-1.537,0.256-3.33,0.256-4.867l-0.256-0.256l0,0c0-0.513-0.256-1.022-0.768-1.022
		c-0.256-0.256-0.769-0.256-1.024,0h-0.256c-0.256,0.512-0.512,0.768-0.769,1.278l0,0c0,0,0,0,0-0.256c0-0.513,0-1.022,0-1.793
		c0-0.769,0-1.793-0.256-2.815h1.281l0.768-0.771l0,0l0,0l0,0c0.256-0.769,0.256-1.279,0.256-2.049c0-0.257,0-0.513,0-1.023v-0.768
		c0-0.259,0-0.259,0-0.259l0,0l-0.769-1.022l-1.024-0.256L60.403,117.207L60.403,117.207z M61.94,118.487L61.94,118.487
		L61.94,118.487L61.94,118.487L61.94,118.487z M60.916,118.744c0,0,0.768,0,1.024-0.256c0,0.512,0,1.022,0,1.022
		c0,0.256,0,0.512,0,0.768c0,0.515,0,0.771-0.256,1.025c-1.024-1.281-2.305-2.049-3.585-1.793
		C59.123,119.256,59.891,119,60.916,118.744L60.916,118.744z M57.842,119.513c-0.512,0.256-1.024,0.512-1.281,1.022
		c0,0.258,0,0.258,0,0.258v3.584c0,0.258,0,0.771,0.769,1.281c0.256,0,0.256,0,0.512,0c1.024-0.257,1.537-1.023,1.793-1.793
		c0.256,0.77,0.256,1.28,0.256,2.049c0,0.256,0,0.514,0,0.771c-0.256-0.257-0.512-0.771-1.024-0.771
		c-0.256-0.256-1.024-0.513-1.793,0c-0.512,0.514-0.512,1.024-0.512,1.28c0,0.257,0,0.257,0,0.513v0.256v4.354l0,0
		c0,0.514,0.512,1.024,1.024,1.281l0,0c-0.256,0-0.512,0.256-0.512,0.256s-2.305,0.512-3.585,1.024
		C54,134.108,54,133.086,54,132.062v-0.513v-8.707c0-1.024-0.512-1.536-1.024-1.793C54.513,120.535,56.049,120.022,57.842,119.513
		L57.842,119.513z M58.099,120.793L58.099,120.793L58.099,120.793L58.099,120.793z M59.635,121.306
		c-0.256,0.256-0.512,0.256-0.769,0.512v0.256c-0.256,0.514-0.512,1.025-0.768,1.281c0-0.769,0-1.793,0-2.306h0.256
		C58.61,121.049,58.867,120.793,59.635,121.306L59.635,121.306z M62.196,121.562L62.196,121.562L62.196,121.562
		c0,0.256,0,0.256,0,0.256S62.196,121.815,62.196,121.562L62.196,121.562z M58.099,127.963v-0.256c0-0.256,0-0.256,0-0.513h0.256
		c0,0.257,0.256,0.513,0.256,0.769l0.256,0.515c0-0.259,0.769,0.768,0.769,0.768h0.768c0.256,0,0.256,0,0.256,0l0,0c0,0,0,0,0-0.256
		c0,0,0.512-0.512,0.768-0.771c-0.256,0.259-0.256,0.259-0.256,0.515l-0.512,1.022c-0.512,1.025-1.537,1.793-2.561,2.05
		C58.099,131.037,58.099,127.963,58.099,127.963L58.099,127.963z M59.891,127.707L59.891,127.707L59.891,127.707L59.891,127.707
		L59.891,127.707z M58.099,132.062L58.099,132.062c0,0,0,0,0,0.256V132.062L58.099,132.062z M62.453,129.244
		c0.256,0,0.256-0.256,0.256-0.513c0.256,0.513,0.256,1.023,0.256,1.279c0,0.771-0.256,1.537-0.256,2.049
		c-0.512,0.256-1.281,0.515-1.792,0.515c0,0-1.025,0.256-1.281,0.512c1.024-0.512,1.792-1.537,2.305-2.562L62.453,129.244
		L62.453,129.244z M52.208,135.135h-0.256C52.208,135.135,52.208,135.135,52.208,135.135L52.208,135.135z M62.708,117.207
		L62.708,117.207L62.708,117.207z M62.453,123.099L62.453,123.099L62.453,123.099z M61.94,130.524L61.94,130.524L61.94,130.524
		L61.94,130.524L61.94,130.524z M51.184,134.879c0,0,0,0,0.256,0l0,0H51.184L51.184,134.879z"/>
	<path fill="#FFFFFF" d="M44.269,130.012c-1.28,0.257-2.049,0.771-2.305,1.794v5.122v0.257l0.256,0.768c0,0.256,0,0.256,0,0.256
		c0.256,0.514,0.769,0.514,1.28,0.514c1.537-0.258,3.586-1.024,4.61-3.074c0.769-1.537,0.769-3.33-0.256-4.608
		C46.83,130.012,45.549,130.012,44.269,130.012L44.269,130.012z M44.525,131.549c1.024,0,1.792,0.257,2.049,0.769
		c0.256,0.258,0.512,0.77,0.512,1.281c0,0.51-0.256,1.024-0.256,1.28c-0.769,1.279-2.049,2.049-3.33,2.306c0-0.257,0-0.257,0-0.257
		c0-0.256,0-4.61,0-4.866C43.756,131.806,44.013,131.806,44.525,131.549L44.525,131.549z M43.756,137.438v0.256
		C43.756,137.694,43.756,137.694,43.756,137.438L43.756,137.438z"/>
	<path fill="#FFFFFF" d="M41.963,125.401v0.257v3.842c0,0.256,0,0.256,0,0.256c0.256,0.256,0.256,0.513,0.512,0.771
		c0.256,0,0.769,0,1.024-0.258c-0.256,0-0.256,0-0.256,0.258c0.769-0.258,3.073-0.771,3.842-2.818c0.256-0.768,0-1.537-0.256-2.305
		c-0.256-0.512-0.769-1.025-1.537-1.025C44.013,124.121,42.732,124.377,41.963,125.401L41.963,125.401z M45.037,125.914h0.256
		l0.256,0.256c0,0.258,0,0.515,0,0.515c0,0.256,0,0.256,0,0.256s0,0,0,0.256c-0.256,0.512-1.024,1.022-2.049,1.281
		c0-0.771,0-1.793,0-2.308C44.013,125.914,44.525,125.658,45.037,125.914L45.037,125.914z"/>
	<path fill="#FFFFFF" d="M44.781,122.328c-2.561,0.771-5.122,1.793-7.427,2.817h-0.256l-0.512,0.513
		c-0.256,0-0.512,0.256-0.512,0.77l0,0c0,0,0,0,0,0.257c0,0.256,0.256,0.512,0.512,0.768c0,0.256,0.256,0.256,0.256,0.256
		c0.769,0.256,1.024,0.512,1.024,0.77v10.244c0,0.512-0.256,1.023-0.512,1.535l-0.256,0.256c0,0.258,0,0.514,0,0.771v0.256
		c0.256,0.512,0.512,0.769,1.024,0.769c0,0.258,0.512,0.258,0.512,0l3.073-1.023c0.256-0.256,3.073-1.281,3.073-1.281
		c2.049-0.768,4.354-1.537,6.403-3.328c1.024-1.025,1.537-2.307,1.537-3.842c0-0.514,0-1.025-0.256-1.537
		c-0.256-1.537-1.537-2.305-2.817-2.816c0.256-0.258,0.256-0.514,0.256-0.514c0.768-0.512,1.024-1.535,1.024-2.561
		c0-0.768-0.256-1.281-0.512-2.049C49.135,121.562,46.574,121.562,44.781,122.328L44.781,122.328z M37.354,126.17
		c0.256,0.258,0.256,0,0.256,0.258C37.61,126.428,37.61,126.17,37.354,126.17L37.354,126.17z M45.293,123.865
		c1.281-0.513,3.074-0.513,3.842,0.512c0.512,0.771,0.256,2.051-0.256,2.817c-0.256,0-0.769,0.513-0.769,0.513l-0.769,0.771
		c-0.256,0.256-0.256,0.512,0,0.768c0,0.256,0.256,0.512,0.513,0.512c1.28,0.256,2.817,0.77,3.073,2.049
		c0.512,1.537,0,2.818-0.769,3.842c-1.792,1.537-3.842,2.306-5.891,2.816c-0.256,0-3.073,1.281-3.073,1.281
		s-1.281,0.512-2.305,0.768c0.256-0.512,0.512-1.022,0.512-1.791v-10.244c0-0.77-0.512-1.537-1.28-1.793
		C40.171,125.658,42.732,124.635,45.293,123.865L45.293,123.865z M48.11,128.219c0.256,0,0.256,0,0.256,0l0,0
		C48.367,128.219,48.367,128.219,48.11,128.219L48.11,128.219z"/>
	<path fill="#FFFFFF" d="M69.624,116.951c-0.512,0-0.769,0.512-0.769,1.278v3.843v0.256c0,0.258,0.256,0.514,1.024,0.771l0,0
		c1.281,0,2.049-0.513,2.561-1.537c0.512-1.537,0.512-3.072-0.512-4.099C71.416,116.951,70.392,116.694,69.624,116.951
		L69.624,116.951z M70.904,118.487c0.256,0.257,0.256,0.769,0.256,1.279c0,0.256,0,0.769-0.256,1.025
		c0,0.256-0.256,0.512-0.512,0.512c0-0.77,0-2.305,0-2.816C70.648,118.487,70.904,118.487,70.904,118.487L70.904,118.487z"/>
	<path fill="#FFFFFF" d="M82.173,115.414c-0.512,0-1.024,0.512-1.024,1.28v3.841v0.258c0,0.256,0.256,0.513,1.024,0.769h0.256
		c1.024,0,2.049-0.513,2.561-1.537c0.512-1.535,0.512-3.072-0.512-4.099C83.965,115.414,82.941,115.158,82.173,115.414
		L82.173,115.414z M83.197,116.951c0.256,0.256,0.512,0.768,0.512,1.278c0,0.258-0.256,0.771-0.256,1.025
		c-0.256,0.256-0.512,0.512-0.768,0.512c0-0.768,0-2.305,0-2.815C82.941,116.951,83.197,116.951,83.197,116.951L83.197,116.951z"/>
	<path fill="#FFFFFF" d="M98.052,113.108h-0.257c-0.512,0-1.28,0-1.536,0.513c-0.256,0.256-0.256,0.256-0.256,0.256
		c0,0.256,0,0.515,0,0.771c0,0.512,0.256,0.768,0.512,1.022v0.256l0,0c0,0.515-0.256,1.025-0.769,1.793c0,0,0,0.257-0.256,0.513
		c-0.513-1.023-1.537-2.306-1.537-2.562l0,0c0.256-0.256,0.512-0.769,0.512-0.769v-0.256c0-0.514-0.256-1.28-1.28-1.28l-0.256-0.257
		l-4.098,0.257h-0.256h-0.256c-0.256,0.256-1.281,0.256-1.537,1.024c-2.049-1.024-4.61-0.514-6.915-0.258l-1.281,0.258
		c-0.256,0-0.769,0-0.769,0c-0.256,0-1.024,0-1.537,0.512c0,0-0.256,0.257-0.256,0.513v0.256l0,0c0,0.513,0,0.771,0.256,1.024
		c0-0.256,0-0.256-0.256-0.256c-1.792-1.793-4.354-1.537-5.634-1.28l-1.024,0.256c-1.792,0-3.585,0.256-5.378,1.024
		c-0.256,0.256-0.512,0.256-0.512,0.513c0,0.256-0.256,0.512-0.256,0.768c0,0.257,0.256,0.513,0.512,0.771c0,0,0,0.256,0.256,0.256
		c0.512,0.256,0.768,0.512,0.768,0.768c0,0,0,9.732,0,10.5c-0.256,0.256-0.768,1.025-0.768,1.025c-0.256,0-0.256,0.256-0.256,0.768
		c0,0,0,0,0,0.256s0.512,0.771,0.769,0.771c0.256,0,0.256,0,0.512,0c1.024,0,1.792-0.256,2.817-0.515h1.024
		c0.769-0.256,1.537-0.256,2.305-0.768c0.256,0,0.512-0.256,0.512-0.512l0,0c0-0.256,0-0.256,0-0.512
		c0-0.771-0.769-1.281-1.024-1.537h-0.256c0-0.256,0-0.771,0-1.793c0.256,0.256,1.281,1.537,1.281,1.537
		c2.305,2.815,6.403,2.305,9.476,1.793h1.28c0,0,0.256-0.258,0.512-0.258c0.512-0.256,0.769-0.769,0.769-1.023s0-0.256-0.256-0.512
		c0-0.256,0-0.256-0.256-0.515l-0.256-0.256h-0.256c0-0.256,0-1.535,0-2.562c0.512,0.257,1.024,0.769,1.024,0.769
		c0.768,1.281,1.792,2.562,3.329,3.33l0,0c2.049,1.024,4.354,0.769,6.659,0.513h2.817c0.255,0,0.255,0,0.255,0l0.769-0.257
		c0.256,0,0.513-0.256,0.77-0.512l0,0c0-0.256,0-0.513,0-0.513c0-0.77-0.514-1.28-0.77-1.28l-0.256-0.257c0-0.512,0-2.817,0-2.817
		c0-1.022,0-1.535,0-1.791c0,0,0,0,0,0.256l0,0c0-1.024,0.512-1.793,1.023-2.817l0.77-1.535c0.768-1.025,1.535-2.307,2.561-3.074
		c0.258,0,0.514-0.256,0.514-0.768v-0.256c0-0.515-0.256-0.771-0.514-1.025h-0.256c-0.77-0.256-1.537-0.256-2.305-0.256h-0.77
		h-0.254V113.108z M64.501,117.207c0.256,0.256,0.256,0,0.256,0.256C64.757,117.463,64.757,117.207,64.501,117.207L64.501,117.207z
		 M80.124,115.67c2.561-0.256,5.122-0.769,6.915,0.771c0.256,0.512,0.512,1.022,0.512,1.535c0,0.256,0,0.256,0,0.514
		c-0.256,1.023-1.28,1.791-2.049,2.561c-0.256,0.256-0.512,0.512-0.512,0.768c0,0.513,0.256,0.771,0.256,1.025h0.256
		c2.049,2.561,3.585,4.354,5.378,5.635h0.256c0,0,0.256,0,0.512,0c-1.537,0.256-2.817,0-4.098-0.514
		c-1.024-0.512-1.792-1.535-2.561-2.561c0-0.256-2.305-2.562-2.305-2.562s0,0-0.256,0c-0.512-0.256-1.024,0.257-1.28,0.769v4.608
		c0,0.259,0.256,0.515,0.256,0.771h-0.512c-2.817,0.512-6.147,1.022-7.94-1.281c0-0.256-1.28-1.537-1.28-1.537l-1.281-1.535
		c-0.256,0-0.256-0.258-0.512-0.258s-0.256,0-0.512,0.258l-0.512,0.512l0,0v0.256v4.099v0.256l0,0c0,0,0.512,0.513,0.769,0.771
		c-0.256,0-0.512,0-1.024,0l-1.281,0.256c-0.512,0.256-1.024,0.256-1.537,0.256c0.256-0.256,0.512-0.256,0.512-0.256
		c0-0.256,0-0.256,0-0.514v-10.756c0-0.769-0.512-1.281-1.024-1.793c1.281-0.513,2.817-0.769,4.354-0.769l1.024-0.256
		c1.537,0,3.329-0.257,4.354,0.768c0.769,0.769,0.512,2.05,0.512,2.562c-0.512,1.024-1.28,1.537-2.305,1.793l-0.512,0.512l0,0
		c-0.256,0.258-0.512,0.514-0.256,1.281c0,0,0,0,0,0.256c1.024,1.281,2.049,2.562,3.073,3.842l0.769,1.025c0.256,0,0.256,0,0.256,0
		l0,0c0.256,0.256,0.513,0.512,1.024,0.512c0.513-0.256,0.769-0.512,1.025-1.025c0,0,0,0,0-0.256v-10.5l0,0
		c0-0.512-0.256-1.023-0.512-1.281c-0.256,0-0.256,0-0.256-0.256h0.256h0.768C78.587,115.926,80.124,115.67,80.124,115.67
		L80.124,115.67z M70.392,125.401v0.257l0,0V125.401L70.392,125.401z M70.392,129.244v0.256V129.244L70.392,129.244z
		 M70.392,130.269L70.392,130.269L70.392,130.269L70.392,130.269L70.392,130.269z M89.087,118.744c0,0,0-0.256,0-0.515
		c2.049,3.074,2.817,4.099,3.074,4.355l0,0c-0.256,0-0.513-0.258-0.513-0.514c0.256,0.514,0.256,0.514,0.256,1.025
		c0,0.256,0,0.512,0,0.768v0.512v0.77c0,0.769,0,1.537-0.256,1.793l0,0c-1.28-1.024-3.073-2.562-4.866-4.866
		C87.807,121.306,88.832,120.278,89.087,118.744L89.087,118.744z M98.308,114.646c-0.256,0,0.77,0,0.77,0c0.256,0,0.512,0,1.023,0
		c-1.023,1.023-1.793,2.049-2.306,3.072c-0.256,0.256-0.769,1.537-0.769,1.537c-0.769,1.023-1.28,2.049-1.28,3.33
		c0,0.256,0,1.791,0,1.791v3.074c0,0.512,0.256,0.768,0.512,1.025c-0.512,0-2.817,0-2.817,0c-0.256,0-0.512,0-0.768,0l0,0
		c0.768-0.771,0.768-1.793,0.768-3.33v-0.771v-0.512c0-0.257,0-0.513,0-0.769c0-0.512,0-1.025-0.512-1.793l-3.33-5.379
		c0-0.256-0.768-0.768-0.768-0.768s0,0,0-0.256c0,0,0,0,0.256,0c0,0,3.33,0,3.586,0c-0.256,0.256-0.256,0.512-0.256,0.768
		s0,0.512,0,0.77c0.256,0,2.305,3.584,2.305,3.584l0,0c0.256,0,0.256,0.256,0.256,0.256h0.256c0.256,0.257,0.512,0.257,0.769,0
		v-0.256c0.256,0,0.512-0.256,0.512-0.512l0.768-1.023c0.256-0.77,0.769-1.536,0.769-2.562v-0.256l-0.257-0.769
		c-0.256-0.256-0.256-0.256-0.256-0.256c0.256,0,0.256,0,0.256,0h0.513V114.646z M77.051,120.535c0-0.513,0-1.022,0-1.535
		c0-0.771-0.256-1.537-0.769-2.306c0.256,0.257,0.512,0.513,0.512,0.769l0.256,0.256v-0.256l0,0c0-0.256,0-0.256,0.256-0.512l0,0
		c-0.256,0.256-0.256,1.536-0.256,5.891c0,0,0,2.816,0,4.099c-0.256-0.256-0.256-0.513-0.256-0.513
		c-1.024-1.024-1.793-2.051-2.561-3.073C75.258,122.842,76.538,122.072,77.051,120.535L77.051,120.535z M96.515,115.926
		L96.515,115.926L96.515,115.926L96.515,115.926L96.515,115.926z"/>
	<path fill="#6D328F" d="M115.211,115.158c0.256,0,0.513,0.256,0.769,0.512v0.256l0,0c0,0.771,0,1.537,0,2.306
		c0,0.258,0,0.514,0,0.77v0.256l0,0l0,0c0,0.256-0.256,0.512-0.513,0.512l0,0l0,0c-0.512-0.256-0.769-0.768-1.024-1.022
		c0-0.256,0-0.515-0.256-0.771l0,0l0,0c-0.769-1.022-1.793-1.793-3.328-1.793c-0.258,0-0.514,0.258-0.514,0.258l0,0
		c0,0.513,0,1.023,0,1.279c-0.256,0.771-0.256,1.537,0,2.049l0,0c0,0.256,0,0.256,0.256,0.256c0.77,0.257,1.28-0.512,1.537-1.278
		c0.256-0.256,0.256-0.515,0.512-0.771l0,0h0.256c0.258,0,0.514,0.515,0.514,0.515l0,0v0.256l0,0c0,1.535,0,3.328,0,5.121
		c0,0.256-0.256,0.512-0.514,0.512l0,0h-0.256c-0.256-0.256-0.512-0.512-0.512-1.022c-0.257-0.256-0.257-0.513-0.257-0.769
		c-0.512-0.514-1.022-0.771-1.28-0.771l0,0c-0.256,0-0.512,0.513-0.256,1.025l0,0c0,0.512-0.256,0.768-0.256,1.279
		c0,1.537,0,3.074,0.512,4.611l0,0l0.258,0.256c0.256,0.256,0.512,0.512,0.512,0.768h-0.256l0,0l-0.256,0.256l0,0l0,0
		c-0.514,0-1.281,0-1.793,0c-1.28-0.256-2.562-0.256-3.842-0.512l-0.257-0.256l0,0c0-0.512,0.257-0.768,0.513-0.768
		c0.256-0.259,0.256-0.259,0.513-0.515c0-0.256,0-0.512,0.256-1.022c0-0.256,0-0.256,0-0.513l0,0c0-2.051,0-4.1,0-6.147v-4.098l0,0
		c0-0.257-0.256-0.513-0.513-0.769c-0.256-0.256-0.512-0.513-0.512-0.769v-0.256l0,0c0-0.258,0.256-0.258,0.512-0.258l0,0l0,0l0,0
		C109.319,114.392,112.394,114.646,115.211,115.158L115.211,115.158z"/>
	<path fill="#6D328F" d="M127.504,119.513c0-0.257-0.256-0.257-0.512-0.513c0-0.256-0.513-0.513-0.257-1.024v-0.257h0.257
		c0.768,0,1.536,0.257,2.562,0.513c0.256,0,0.512,0,0.512,0.258c0.769,0,1.281,0.256,2.05,0.256
		c2.561,0.768,5.378,1.279,6.146,4.609c0.256,1.28-0.256,2.561-1.279,3.33l0,0c0,0-0.514,0.256-0.77,0.256s-0.513,0.256-0.513,0.256
		c0,0.256,0,0.256,0,0.512c0.513,0.77,0.769,1.537,1.024,2.561c0.769,1.537,1.536,3.33,2.816,4.867c0,0,0.257,0.256,0.514,0
		l-0.257,0.256c0.257-0.512,0.513-0.768,0.513-1.024v-11.523c0-0.256-0.256-0.256-0.513-0.514c0-0.256-0.257-0.513-0.257-1.022l0,0
		l0,0l0.257-0.257h0.257l0,0c1.535,0.257,3.072,0.769,4.608,1.537l0,0l0,0c0.513,0.513,0.769,1.022,0.769,1.791v0.259l1.793,6.657
		v-0.256c0,0.256,0,0.256,0,0.256l0,0l0.256-0.256l0,0l2.562-5.636c0.256-0.512,0.768-0.512,1.536-0.256
		c1.28,0.256,2.562,0.769,3.586,1.537l0,0c0.256,0,0.256,0.256,0.256,0.513l0,0l0,0c-0.256,0.256-0.512,0.256-0.769,0.512
		c-0.256,0-0.256,0-0.512,0.256l0,0v9.988c0,0.256,0,0.771,0,1.024c0,0.769,0,1.279,0.256,2.049l0,0
		c0.256,0.257,0.513,0.769,0.256,1.279l0,0l0,0l-0.256,0.258l0,0l-0.256-0.258l-1.537-0.512c-1.281-0.512-1.793-0.768-1.793-0.768
		c-0.257,0-0.257-0.256-0.513-0.256s-0.769-0.258-1.024-0.515l0,0V140c0-0.256,0.256-0.512,0.513-0.769
		c0.257-0.256,0.257-0.512,0.257-0.512l0,0v-8.453l0,0c0,0,0,0,0.256,0c-0.256,0-0.256,0-0.256,0l0,0l0,0
		c-1.281,3.074-2.307,5.379-3.586,7.939l0,0l0,0l0,0c-0.256,0.256-0.514,0.514-1.023,0.256l0,0l0,0
		c-0.257-0.512-0.514-1.279-0.77-1.791v-0.258c-0.256-1.535-0.77-2.816-1.023-4.098c-0.513-1.279-0.77-2.816-1.025-4.099l0,0
		c0,0,0-0.256-0.256-0.256c0-0.256,0-0.256,0-0.256l0,0l-0.256,0.256h0.256v7.685l0,0c0,0.256,0,0.512,0,0.512
		c0.256,0.514,0.513,0.77,0.256,1.025l0,0v0.256c-0.256,0.256-0.512,0-0.768,0l0,0c-0.513-0.256-1.025-0.256-1.537-0.513
		c-2.049-0.514-4.098-1.024-5.635-3.073c-0.512-1.023-1.279-2.306-1.792-3.328c-0.257-0.771-0.513-1.281-0.769-1.793
		c0-0.515-0.514-0.515-0.77-0.771h0.256l-0.256,0.256l0,0c0,0.259,0,0.771,0,1.025c-0.256,1.793-0.256,3.329,0.512,4.608l0,0l0,0
		c0,0.256-0.256,0.512-0.256,0.512l0,0l0,0l0,0h-0.256l-0.769-0.256c-3.073-0.768-5.892-1.535-8.964-2.049l0,0v-0.256l0,0
		c-0.256,0-0.256,0-0.256-0.256l0,0v-0.256l0.256-0.256c0.257-0.256,0.513-0.512,0.513-0.77c0-1.023-0.256-1.535-0.513-2.306
		c-0.256-0.513-0.256-0.769-0.256-1.022l0,0c-0.513-0.513-1.024-0.513-1.537-0.771c0,0-0.256,0-0.512,0l0,0
		c-0.257,0-0.513-0.256-0.77-0.256c-0.512-0.257-1.023-0.257-1.28,0l0,0c0,0.514-0.256,1.024-0.513,1.536
		c-0.512,0.769-0.77,1.794-0.256,2.816l0,0l0,0v0.258c-0.256,0-0.256,0.256-0.514,0.256l0,0l0,0l-3.072-0.514v-0.256l0,0
		c-0.256,0-0.512-0.256-0.256-0.512l0,0v-0.256l0.256-0.256c0.513-0.256,1.281-0.771,1.537-1.537l0,0
		c0.513-1.537,1.279-3.074,1.793-4.609c0.769-1.793,1.279-3.33,2.049-4.867c0-0.256,0-0.768-0.256-1.023
		c-0.258-0.256-0.514-0.512-0.258-1.024v-0.256l0,0c1.025,0,2.051,0.256,2.817,0.512l0.513,0.259l0,0l0,0l0.77,0.256l0,0l0,0
		l0.512,0.768l0,0l0,0l4.354,13.574l0,0c0,0.256,0.258,0.256,0.258,0.256l0,0l0,0c0.256,0,0.512-0.256,0.512-0.512v0.256
		L127.504,119.513L127.504,119.513L127.504,119.513z M119.563,124.635c0.514,0,0.77,0,0.77,0l0,0l0,0
		c0-0.258-0.256-0.77-0.256-1.536l-0.514-1.537c0-0.256-0.256-0.256-0.256-0.256l0,0l0,0l0,0l0,0
		c-0.256,0.512-1.023,2.049-1.023,2.561C118.284,124.121,118.54,124.377,119.563,124.635L119.563,124.635z M131.603,124.892
		c0,0.256,0.256,0.256,0.513,0.256v0.256l0,0c0.512,0,1.28-0.256,1.536-0.512l0,0c0.769-0.515,0.769-1.793,0.513-2.818l0,0
		c-0.513-1.279-2.049-1.537-2.306-1.537l0,0c-0.256,0-0.256,0.258-0.256,0.514l0,0V124.892L131.603,124.892L131.603,124.892z"/>
	<path fill="#6D328F" d="M62.708,118.487c0,0.257,0,0.513,0,1.023c0,0.768,0,1.793-0.256,2.562l0,0l0,0
		c0,0.256-0.256,0.256-0.256,0.256c-0.256,0-0.256,0-0.512,0l0,0l0,0c-1.281-1.793-2.561-2.306-3.585-2.05l0,0
		c-0.256,0.257-0.769,0.257-0.769,0.515l0,0c0,1.279,0,2.562,0,3.584c0,0.258,0,0.258,0.256,0.515l0,0
		c1.024-0.257,1.537-1.537,2.049-2.562l0,0l0,0l0,0c0-0.256,0.256-0.256,0.512-0.256l0,0h0.256v0.514l0,0l0,0
		c0.256,1.791,0.256,3.584,0.256,5.121l0,0v0.256c0,0-0.256,0.256-0.512,0.514l0,0l0,0h-0.256c-0.256,0-0.256-0.258-0.256-0.514
		c-0.256,0-0.256-0.256-0.256-0.256c-0.256-0.512-0.256-1.023-0.769-1.279l0,0c-0.256,0-0.768,0-1.024,0.256
		s-0.256,0.513-0.256,1.023c0,0,0,0,0,0.256v4.354l0,0c0,0,0.256,0.515,0.512,0.515l0,0c1.281-0.256,2.817-1.281,3.585-2.562
		c0-0.513,0.256-0.769,0.513-1.279c0-0.512,0.256-1.025,0.768-1.537l0,0v-0.256c0.256,0,0.256,0,0.512,0
		c0.256,0.256,0.256,0.256,0.256,0.512l0,0l0,0v0.256c0.256,1.537,0.256,3.074,0,4.611l0,0H63.22
		c-0.512,0.512-1.28,0.768-2.049,0.768c-0.512,0.256-1.024,0.256-1.281,0.512c-0.256,0-2.561,0.771-2.561,0.771
		c-1.793,0.513-3.33,1.022-5.122,1.279v0.256v-0.256c-0.256,0-0.256,0-0.256-0.257c-0.256,0,0-0.256,0-0.256
		c0-0.256,0-0.256,0-0.256l0,0h0.256c1.024-0.77,1.024-2.049,1.024-3.074v-0.512v-8.707c0-0.77-0.768-1.281-1.537-1.537l0,0l0,0
		c0-0.256,0-0.512,0-0.512c0-0.258,0.256-0.258,0.512-0.514c2.561-1.023,5.634-1.535,8.452-2.305l1.024-0.256
		c0.256,0,0.512,0,0.512,0.256c0.256,0,0.512,0.256,0.512,0.256v0.254H62.708L62.708,118.487z"/>
	<path fill="#6D328F" d="M42.732,136.928l0.256,1.023v-0.257c0,0.257,0.256,0.257,0.512,0.257l0,0
		c1.281-0.257,3.074-0.769,4.098-2.562l0,0c0.256-1.281,0.512-2.815-0.256-3.586l0,0l0,0c-0.768-1.022-1.792-1.022-3.073-1.022
		c-0.512,0.256-1.28,0.512-1.537,1.022l0,0V136.928L42.732,136.928L42.732,136.928z M42.732,129.5c0,0,0,0.256,0.256,0.256l0,0l0,0
		V129.5c1.28-0.256,2.817-0.769,3.329-2.049l0,0v-0.257c0.256-0.256,0-1.024-0.256-1.28h0.256h-0.256
		c0-0.513-0.256-0.769-0.769-0.769l0,0l0,0c-1.024-0.256-2.049,0-2.561,0.769v-0.256L42.732,129.5L42.732,129.5L42.732,129.5z
		 M38.634,128.478c0-0.771-0.769-1.281-1.537-1.537l0,0l0,0c-0.256,0-0.256-0.256,0-0.513l0,0l0,0v-0.258l0.512-0.256l0,0l0,0
		c2.305-1.022,4.866-2.049,7.427-2.815c1.537-0.513,3.585-0.771,4.61,0.768c0.769,1.025,0.512,2.818-0.256,3.842
		c-0.256,0.256-0.512,0.512-0.769,0.77c-0.256,0-0.512,0.256-0.768,0.513h0.256l0,0l0,0l0,0l0,0c1.537,0.256,3.33,0.768,3.585,2.561
		c0.512,1.793,0,3.586-1.024,4.609c-1.792,1.537-4.098,2.305-6.146,3.073c-1.025,0.513-2.049,0.769-3.074,1.279l-3.073,1.025v0.256
		v-0.256c-0.256,0-0.512,0-0.512-0.256v-0.256l0,0c0-0.256,0.256-0.256,0.256-0.515c0.256-0.512,0.512-1.022,0.512-1.79
		L38.634,128.478L38.634,128.478z"/>
	<path fill="#6D328F" d="M69.624,122.072c0,0.256,0.256,0.256,0.256,0.256l0,0c0.769,0,1.537-0.513,1.793-1.279l0,0
		c0.512-1.024,0.512-2.305-0.256-3.073c-0.256-0.257-1.024-0.513-1.537-0.257l0,0l0,0c-0.256,0-0.256,0.257-0.256,0.513V122.072
		L69.624,122.072L69.624,122.072z M81.917,120.535c0,0.258,0.256,0.258,0.512,0.258l0,0c0.769,0,1.281-0.515,1.793-1.28l0,0
		c0.256-1.023,0.512-2.306-0.256-3.072c-0.512-0.258-1.024-0.515-1.537-0.258l0,0l0,0c-0.256,0-0.512,0.258-0.512,0.514V120.535
		L81.917,120.535L81.917,120.535z M77.819,117.463c0-0.256-0.256-0.512-0.512-0.769c-0.256-0.256-0.512-0.514-0.512-1.024v-0.256
		l0,0c0.512-0.256,0.768-0.256,1.281-0.256c0.256,0,0.256,0,0.512,0l0,0l0,0c0.512-0.257,1.024-0.257,1.537-0.257
		c2.561-0.256,5.378-0.77,7.427,1.023c0.769,0.77,1.024,1.793,0.769,2.818c-0.256,1.279-1.281,2.049-2.305,2.816l0,0
		c-0.256,0.256-0.256,0.256,0,0.768l0,0l0,0c2.049,2.562,3.585,4.1,5.378,5.379l0,0l0,0c0.256,0.256,0.512,0.256,0.769,0.256l0,0
		c0.512-0.512,0.512-1.535,0.512-2.816c0-0.256,0-0.512,0-0.77v-0.512c0-1.023,0-1.537-0.256-2.049l-3.585-5.635l0,0
		c0,0-0.256-0.257-0.512-0.257c-0.256-0.512-0.512-0.768-0.769-1.022l0,0l0,0c0.256-0.512,0.512-0.512,1.024-0.771h0.256l0,0l0,0
		h4.098l0,0l0,0l0,0c0.256,0,0.769,0,0.512,0.515c0,0.256,0,0.256,0,0.512c-0.256,0.256-0.256,0.512-0.256,1.023l0,0l2.305,3.329
		h-0.256c0.256,0,0.512,0,0.769-0.256c0-0.512,0.256-0.769,0.512-1.024c0.511-0.769,0.768-1.535,0.768-2.562l0,0
		c0,0,0-0.256-0.257-0.256c-0.256-0.256-0.256-0.769-0.256-1.281l0,0l0,0c0.256-0.256,0.769-0.256,1.024-0.256h0.258l0,0
		c0.512,0,0.768,0,1.023,0c0.768,0,1.535,0,2.049,0.256h0.256v0.515l-0.256,0.256c-1.281,0.768-2.049,2.049-2.816,3.328l0,0l0,0
		c-0.256,0.514-0.514,1.024-0.77,1.28c-0.512,1.023-1.024,2.05-1.024,3.33v1.535v3.074c0,0.256,0.255,0.256,0.512,0.512
		c0.256,0.256,0.512,0.515,0.512,1.024l0,0h-0.256l-0.513,0.257l0,0h-0.255c-0.769,0-2.049,0-2.817,0
		c-2.305,0.256-4.354,0.256-6.403-0.513l0,0l0,0c-1.281-0.77-2.049-1.793-3.073-3.073c-0.512-0.769-1.281-1.537-2.049-2.05l0,0
		c-0.256,0-0.256,0.257-0.256,0.257l0,0v4.354c0,0.259,0.256,0.259,0.512,0.515c0,0,0.256,0,0.256,0.256l0,0l0,0
		c0.256,0.256,0,0.512-0.256,0.512v0.256l0,0c-0.512,0-1.024,0-1.536,0c-2.817,0.512-6.403,1.025-8.708-1.537l0,0
		c-0.256-0.512-0.769-1.023-1.281-1.535c-0.256-0.514-0.768-1.024-1.28-1.537l0,0h0.256l-0.256,0.256l0,0c0,1.537,0,2.562,0,4.099
		l0,0l0,0c0,0,0.256,0.256,0.512,0.256c0.256,0.257,0.768,0.513,0.768,1.025l0,0l-0.256,0.256c-0.512,0.256-1.281,0.256-1.793,0.512
		c-0.512,0-1.024,0-1.28,0c-0.769,0.257-1.793,0.513-2.817,0.513l0,0l0,0c0,0-0.256,0-0.256-0.256c0,0,0-0.257,0.256-0.513v0.256
		l0.769-1.28l0,0v-10.757c0-0.768-0.769-1.28-1.281-1.536l0,0l0,0c-0.256-0.257-0.256-0.513,0-0.769l0,0l0,0
		c1.537-0.769,3.585-1.024,5.122-1.024l1.024-0.257c1.793-0.256,3.842-0.256,5.122,1.025c1.024,1.022,0.769,2.561,0.769,3.327
		c-0.512,1.281-1.537,1.794-2.561,2.308c-0.256,0.256-0.512,0.256-0.512,0.256l0,0c0,0-0.256,0.257,0,0.513l0,0
		c0.768,1.28,1.792,2.561,2.817,3.842l1.025,1.022v-0.256c0,0.256,0,0.256,0,0.256c0.256,0,0.256,0.259,0.256,0.259
		c0.512-0.259,0.512-0.515,0.512-0.515l0,0v-10.5H77.819z"/>
</g>
</svg>
