<?xml version="1.0" encoding="utf-8"?>
<!-- Generator: Adobe Illustrator 16.0.0, SVG Export Plug-In . SVG Version: 6.00 Build 0)  -->
<!DOCTYPE svg PUBLIC "-//W3C//DTD SVG 1.1//EN" "http://www.w3.org/Graphics/SVG/1.1/DTD/svg11.dtd">
<svg version="1.1" id="Layer_1" xmlns="http://www.w3.org/2000/svg" xmlns:xlink="http://www.w3.org/1999/xlink" x="0px" y="0px"
	 width="101.672px" height="83.083px" viewBox="349.164 258.458 101.672 83.083"
	 enable-background="new 349.164 258.458 101.672 83.083" xml:space="preserve">
<g>
	<path fill="#C2B9B5" d="M399.19,341.541c27.628,0,50.026-18.104,50.026-40.434c0-22.333-22.398-40.437-50.026-40.437
		c-27.629,0-50.026,18.104-50.026,40.437C349.164,323.439,371.562,341.541,399.19,341.541"/>
	<path fill="#C2B9B5" d="M399.472,299.793"/>
	
		<linearGradient id="SVGID_1_" gradientUnits="userSpaceOnUse" x1="419.625" y1="502.5781" x2="312.5388" y2="395.1408" gradientTransform="matrix(1 0 0 1 33.04 -151.6602)">
		<stop  offset="0" style="stop-color:#7D1517"/>
		<stop  offset="0.1665" style="stop-color:#AE2729"/>
		<stop  offset="0.37" style="stop-color:#EF3E42"/>
		<stop  offset="0.3805" style="stop-color:#F04649"/>
		<stop  offset="0.3964" style="stop-color:#F15B5E"/>
		<stop  offset="0.4159" style="stop-color:#F47D80"/>
		<stop  offset="0.438" style="stop-color:#F8ADAF"/>
		<stop  offset="0.4622" style="stop-color:#FDEAEA"/>
		<stop  offset="0.47" style="stop-color:#FFFFFF"/>
		<stop  offset="0.472" style="stop-color:#FFF9F9"/>
		<stop  offset="0.4957" style="stop-color:#F9B7B9"/>
		<stop  offset="0.5172" style="stop-color:#F58386"/>
		<stop  offset="0.5357" style="stop-color:#F25D61"/>
		<stop  offset="0.5506" style="stop-color:#F0464A"/>
		<stop  offset="0.56" style="stop-color:#EF3E42"/>
		<stop  offset="0.6073" style="stop-color:#DA3539"/>
		<stop  offset="0.7402" style="stop-color:#A21E20"/>
		<stop  offset="0.8547" style="stop-color:#7A0E0F"/>
		<stop  offset="0.945" style="stop-color:#610404"/>
		<stop  offset="1" style="stop-color:#580000"/>
	</linearGradient>
	<path fill="url(#SVGID_1_)" d="M400.812,339.328c27.627,0,50.023-18.104,50.023-40.435c0-22.332-22.396-40.435-50.023-40.435
		c-27.63,0-50.027,18.104-50.027,40.435C350.785,321.225,373.183,339.328,400.812,339.328"/>
	<path fill="#FFFFFF" d="M400.948,334.95c24.606,0,44.558-16.158,44.558-36.089c0-19.931-19.95-36.088-44.558-36.088
		c-24.609,0-44.561,16.158-44.561,36.088C356.389,318.792,376.339,334.95,400.948,334.95"/>
	<path fill="#FFFFFF" d="M400.948,298.861"/>
	
		<linearGradient id="SVGID_2_" gradientUnits="userSpaceOnUse" x1="368.1772" y1="449.7832" x2="368.1772" y2="423.0996" gradientTransform="matrix(1 0 0 1 33.04 -151.6602)">
		<stop  offset="0" style="stop-color:#00529F"/>
		<stop  offset="0.121" style="stop-color:#00458B"/>
		<stop  offset="0.3076" style="stop-color:#003674"/>
		<stop  offset="0.5068" style="stop-color:#002B63"/>
		<stop  offset="0.7253" style="stop-color:#002459"/>
		<stop  offset="1" style="stop-color:#002256"/>
	</linearGradient>
	<path fill="url(#SVGID_2_)" d="M401.218,332.639c23.591,0,42.716-15.334,42.716-34.247c0-18.914-19.125-34.248-42.716-34.248
		c-23.592,0-42.718,15.334-42.718,34.248C358.5,317.305,377.626,332.639,401.218,332.639"/>
	<path d="M401.07,298.651"/>
	
		<linearGradient id="SVGID_3_" gradientUnits="userSpaceOnUse" x1="379.5283" y1="435.4854" x2="384.6774" y2="417.4626" gradientTransform="matrix(1 0 0 1 33.04 -151.6602)">
		<stop  offset="0" style="stop-color:#00529F"/>
		<stop  offset="0.2536" style="stop-color:#0254A0"/>
		<stop  offset="0.3909" style="stop-color:#0A59A3"/>
		<stop  offset="0.5003" style="stop-color:#1862A8"/>
		<stop  offset="0.5952" style="stop-color:#2B6FAF"/>
		<stop  offset="0.6805" style="stop-color:#4480B9"/>
		<stop  offset="0.759" style="stop-color:#6395C4"/>
		<stop  offset="0.8324" style="stop-color:#88AED2"/>
		<stop  offset="0.9016" style="stop-color:#B3CBE2"/>
		<stop  offset="0.9652" style="stop-color:#E2EBF4"/>
		<stop  offset="1" style="stop-color:#FFFFFF"/>
	</linearGradient>
	<path fill="url(#SVGID_3_)" d="M420.021,276.263c0.188-2.753-0.718-5.536-1.277-7.734c-3.106-1.169-6.237-1.904-9.981-2.541
		c-0.819-0.133-0.154,0.38-0.154,0.38c1.868,1.347,5.879,4.058,6.53,13.432c0,0,0.239,1.834,0.912,2.201
		c0.672,0.367,2.729,2.428,5.12,4.25C420.657,284.338,419.675,281.297,420.021,276.263"/>
	
		<linearGradient id="SVGID_4_" gradientUnits="userSpaceOnUse" x1="387.7002" y1="444.5098" x2="400.3407" y2="425.3148" gradientTransform="matrix(1 0 0 1 33.04 -151.6602)">
		<stop  offset="0" style="stop-color:#00529F"/>
		<stop  offset="0.2536" style="stop-color:#0254A0"/>
		<stop  offset="0.3909" style="stop-color:#0A59A3"/>
		<stop  offset="0.5003" style="stop-color:#1862A8"/>
		<stop  offset="0.5952" style="stop-color:#2B6FAF"/>
		<stop  offset="0.6805" style="stop-color:#4480B9"/>
		<stop  offset="0.759" style="stop-color:#6395C4"/>
		<stop  offset="0.8324" style="stop-color:#88AED2"/>
		<stop  offset="0.9016" style="stop-color:#B3CBE2"/>
		<stop  offset="0.9652" style="stop-color:#E2EBF4"/>
		<stop  offset="1" style="stop-color:#FFFFFF"/>
	</linearGradient>
	<path fill="url(#SVGID_4_)" d="M434.74,279.004c-3.625-3.868-7.906-7.037-13.559-9.442c0.601,2.267,0.981,5.198,0.806,8.03
		c-0.349,5.556,1.092,8.712,1.633,10.458c0.572,0.481,0.977,0.997,1.586,1.551c0,0,4.677,5.789,9.332,3.884
		C437.401,292.314,439.902,284.515,434.74,279.004"/>
	<path fill="#002458" d="M397.543,290.677l-3.906-0.01c-0.123-2.332-0.229-4.433-0.281-6.694c-0.09-2.349-0.812-4.981-2.984-6.182
		l-1.432-0.619c-2.525-0.44-5.316-0.247-7.029,1.696c-1.324,1.643-1.555,3.78-1.713,5.776c-0.391,3.32-0.248,7.012-2.085,9.998
		c-1.165,1.625-3.021,2.367-4.733,3.056c-0.141,0.087-0.247,0.264-0.177,0.423c0.653,0.546,1.606,0.689,2.297,1.219
		c2.438,1.483,2.737,4.628,3.127,7.225c0.158,1.185,0.299,2.42,0.6,3.638c0.054,0.266-0.212,0.371-0.406,0.405l-3.056-0.018
		c-0.3-0.088-0.405-0.404-0.513-0.67c-0.601-2.227-0.495-4.594-0.883-6.818c-0.212-1.537-1.097-2.844-2.491-3.392
		c-0.477-0.158-0.988-0.3-1.519-0.194c-0.459,0.177-0.442,0.742-0.442,1.112c0.07,3.181,0.036,6.253,0.036,9.909l-0.212,0.088
		l-3.25-0.035c-0.105-0.053-0.3-0.053-0.266-0.229V284.75c1.165-0.088,2.401-0.036,3.604-0.053v10.721
		c0.193,0.248,0.159,0.671,0.513,0.795c1.448,0.07,2.88-0.459,3.886-1.519c1.607-1.749,1.73-4.186,1.926-6.377
		c0.141-2.826,0.301-5.882,1.36-8.514c1.289-3.249,4.627-5.033,8.02-5.351c1.643-0.248,3.392-0.071,4.928,0.335
		c0.088,0.07,0.229,0.088,0.353,0.105c1.819,0.636,3.374,1.767,4.451,3.356c2.049,2.862,2.031,6.094,2.263,9.557L397.543,290.677z"
		/>
	<path fill="#002458" d="M381.131,310.639l-0.035-7.309l-0.007-0.246c-0.159-2.809,0.272-6.059-0.347-8.833
		c0.036-0.194,0.195-0.299,0.354-0.389c0.865-0.106,1.854-0.123,2.721,0c0.405,0.035,0.46,0.494,0.617,0.76
		c0.071,0.159,0.159,0.495,0.425,0.37c0.213,0.018,0.282-0.229,0.405-0.299c0.689-0.654,1.607-1.078,2.633-0.972l0.564,0.071
		l0.002,3.269c-0.989,0.04-2.156,0.246-2.793,0.917c-0.882,0.707-1.007,1.891-1.022,2.985v9.68L381.131,310.639z"/>
	<path fill="#002458" d="M430.693,310.674v-14.832c-0.178-0.247-0.105-0.706-0.229-1.042c-0.035-0.176-0.142-0.53,0.035-0.724
		c0.089-0.142,0.281-0.071,0.389-0.16c0.848,0.036,1.819-0.07,2.648,0.088c0.424,0.23,0.424,0.883,0.83,1.148
		c0.513-0.16,0.849-0.795,1.359-0.971c0.548-0.372,1.325-0.125,2.032-0.195c0.124,0.052,0.087,0.141,0.229,0.158l0.019,3.427
		c-0.089,0.053-0.178,0-0.195-0.071c-1.183-0.142-2.277,0.248-3.021,0.972c-0.777,0.76-0.644,1.86-0.662,2.9l-0.009,0.19v9.108
		h-3.426V310.674z"/>
	<path fill="#002458" d="M422.269,296.389c-1.309,0.531-1.642,2.067-1.625,3.373c0,0.265,0.194,0.478,0.426,0.548H424
		c0.442-0.018,0.848,0,1.131-0.318c0.159-0.866-0.036-1.784-0.37-2.562C424.336,296.583,423.294,296.019,422.269,296.389
		 M421.474,307.411c0.583,0.618,1.607,0.637,2.367,0.317c1.147-0.601,1.22-1.996,1.466-3.146l0.16-0.054l3.125,0.013
		c-0.018,2.226-1.165,5.183-3.303,6.082c-0.565,0.317-1.29,0.283-1.942,0.405c-1.309,0.107-2.402-0.37-3.444-0.829
		c-1.679-0.918-2.437-2.896-2.845-4.716c-0.884-3.93,0.158-7.445,0.953-9.255c0.776-1.765,2.562-2.949,4.487-3.056
		c1.254-0.088,2.349,0.194,3.391,0.724c2.475,1.59,2.914,5.088,2.88,8.039c-0.035,0.211-0.07,0.459-0.301,0.528l-0.794,0.088
		l-7.317,0.039C420.286,303.973,420.485,306.352,421.474,307.411"/>
	<path fill="#002458" d="M395.545,296.46c-0.866-0.23-1.696,0.088-2.243,0.724c-1.078,1.59-1.024,3.462-1.096,5.282
		c0.104,1.872,0.07,4.38,1.996,5.315c0.494,0.267,1.165,0.107,1.625-0.07c1.729-1.061,1.713-3.391,1.854-5.229
		c-0.105-1.801,0-3.938-1.167-5.421C396.269,296.76,395.934,296.583,395.545,296.46 M398.406,294.076
		c2.119,1.342,2.612,4.062,2.826,6.464c0.123,3.604-0.07,8.249-3.745,10.19c-1.289,0.513-2.968,0.707-4.327,0.248
		c-1.802-0.459-3.232-1.908-3.815-3.674c-0.548-1.343-0.697-2.871-0.706-4.346c-0.014-2.208,0.158-4.256,0.865-6.271v0.052
		c0.937-2.101,3.073-3.498,5.423-3.498C396.233,293.175,397.417,293.422,398.406,294.076"/>
	<path fill="#002458" d="M408.351,296.708c-1.271,0.707-1.606,2.172-1.73,3.55c-0.071,2.366-0.388,4.735,1.023,6.641
		c0.39,0.371,0.865,0.654,1.448,0.601c0.688-0.052,1.342-0.44,1.625-1.095c0.884-2.26,0.389-4.698,0.479-7.083
		c-0.036-0.636-0.071-1.361-0.46-1.891C410.311,296.619,409.215,296.389,408.351,296.708 M407.148,324.296
		c2.805-1.001,3.656-4.132,3.886-6.835c0.194-2.385,0.229-4.732,0.054-7.119c-0.07-0.121-0.3-0.246-0.441-0.121
		c-0.885,0.528-1.891,0.899-3.003,0.652c-1.555-0.266-2.915-1.096-3.586-2.562c-0.794-1.5-0.995-3.426-1.147-4.91
		c-0.154-1.5,0.186-5.183,1.023-6.993c0.769-1.657,2.366-3.109,4.347-3.073c0.776-0.053,1.675,0.266,2.222,0.653
		c0.289,0.206,0.728,0.655,1.062,0.265c0.158-0.229,0.461-0.354,0.741-0.389c0.865,0,1.818-0.088,2.579,0.16
		c0.109,0.055,0.137,0.115,0.07,0.247c-0.459,2.103-0.266,4.274-0.317,6.376c-0.07,1.89,0.159,3.832,0.088,5.865
		c-0.018,2.277,0.035,4.608-0.052,6.853l0.052,0.104c0.019,2.861,0.071,5.937-1.183,8.373c-1.537,3.32-4.911,5.141-8.443,5.493
		c-1.766,0.019-3.621,0.054-5.14-0.583c-1.042-0.3-1.856-1.006-2.738-1.572c-2.208-1.695-3.231-4.502-3.409-7.259
		c-0.157-1.077-0.212-2.296-0.229-3.444c0.017-0.158,0.053-0.371,0.229-0.405h3.552c0.247,0.317,0.265,0.776,0.247,1.2
		c0.07,2.226,0.193,4.521,0.937,6.605c0.653,1.678,2.125,2.854,3.912,3.02c0.76,0.07,1.546,0.125,2.34,0.125
		C405.132,325.064,406.619,324.518,407.148,324.296"/>
	<path fill="#FFFFFF" d="M421.281,314.426c0.262,0,0.496-0.018,0.496-0.332c0-0.253-0.229-0.3-0.445-0.3h-0.422v0.632H421.281z
		 M420.911,315.574h-0.311v-2.043h0.778c0.481,0,0.722,0.178,0.722,0.58c0,0.365-0.229,0.524-0.529,0.562l0.58,0.9h-0.347
		l-0.539-0.885h-0.354V315.574L420.911,315.574z M421.285,316.027c0.802,0,1.434-0.627,1.434-1.479c0-0.839-0.632-1.471-1.434-1.471
		c-0.811,0-1.442,0.632-1.442,1.471C419.843,315.4,420.476,316.027,421.285,316.027 M419.486,314.548
		c0-1.017,0.824-1.766,1.799-1.766c0.966,0,1.79,0.749,1.79,1.766c0,1.026-0.824,1.776-1.79,1.776
		C420.312,316.324,419.486,315.574,419.486,314.548"/>
	
		<linearGradient id="SVGID_5_" gradientUnits="userSpaceOnUse" x1="370.0557" y1="424.2695" x2="370.0557" y2="477.8733" gradientTransform="matrix(1 0 0 1 33.04 -151.6602)">
		<stop  offset="0" style="stop-color:#5B78B7"/>
		<stop  offset="0.033" style="stop-color:#6D86BF"/>
		<stop  offset="0.087" style="stop-color:#8698CA"/>
		<stop  offset="0.12" style="stop-color:#8F9FCE"/>
		<stop  offset="0.3029" style="stop-color:#93A2D0"/>
		<stop  offset="0.4664" style="stop-color:#9DABD4"/>
		<stop  offset="0.6226" style="stop-color:#B0BBDC"/>
		<stop  offset="0.7742" style="stop-color:#C9D1E8"/>
		<stop  offset="0.9212" style="stop-color:#EAEDF6"/>
		<stop  offset="1" style="stop-color:#FFFFFF"/>
	</linearGradient>
	<path fill="url(#SVGID_5_)" d="M411.717,295.968c0.39,0.53,0.424,1.254,0.459,1.89c-0.088,2.385,0.407,4.824-0.476,7.083
		c-0.283,0.651-0.938,1.041-1.627,1.095c-0.582,0.054-1.06-0.229-1.446-0.603c-1.414-1.906-1.096-4.273-1.025-6.641
		c0.123-1.378,0.459-2.844,1.731-3.55C410.197,294.926,411.293,295.156,411.717,295.968 M405.783,323.559
		c-0.796,0-1.582-0.055-2.341-0.125c-1.788-0.166-3.261-1.342-3.912-3.02c-0.743-2.084-0.866-4.381-0.938-6.605
		c0.018-0.425,0-0.883-0.247-1.201h-3.551c-0.176,0.035-0.212,0.248-0.229,0.406c0.018,1.147,0.069,2.365,0.229,3.443
		c0.178,2.756,1.201,5.564,3.409,7.262c0.883,0.563,1.694,1.271,2.738,1.57c1.519,0.636,3.372,0.602,5.139,0.583
		c3.534-0.354,6.906-2.173,8.443-5.493c1.254-2.438,1.201-5.512,1.184-8.371l-0.054-0.107c0.09-2.243,0.037-4.574,0.054-6.854
		c0.07-2.031-0.159-3.975-0.089-5.864c0.054-2.101-0.141-4.274,0.317-6.376c0.066-0.133,0.04-0.192-0.069-0.247
		c-0.76-0.248-1.714-0.159-2.579-0.159c-0.283,0.035-0.584,0.159-0.741,0.389c-0.336,0.388-0.773-0.061-1.063-0.266
		c-0.546-0.387-1.444-0.706-2.223-0.653c-1.978-0.035-3.577,1.417-4.345,3.074c-0.839,1.811-1.18,5.492-1.024,6.995
		c0.152,1.483,0.354,3.41,1.148,4.91c0.672,1.467,2.031,2.297,3.586,2.562c1.112,0.246,2.119-0.125,3.001-0.654
		c0.141-0.124,0.372,0,0.442,0.124c0.178,2.385,0.142,4.733-0.053,7.117c-0.229,2.704-1.083,5.833-3.887,6.836
		C407.602,323.055,406.113,323.602,405.783,323.559 M397.498,295.598c1.166,1.484,1.061,3.621,1.166,5.423
		c-0.143,1.836-0.124,4.168-1.854,5.228c-0.459,0.178-1.131,0.336-1.626,0.069c-1.924-0.936-1.89-3.442-1.993-5.315
		c0.069-1.819,0.017-3.692,1.095-5.281c0.547-0.636,1.378-0.954,2.243-0.724C396.916,295.121,397.251,295.297,397.498,295.598
		 M395.908,291.781c-2.35,0-4.486,1.396-5.422,3.498v-0.053c-0.708,2.015-0.879,4.064-0.866,6.271
		c0.009,1.476,0.158,3.003,0.707,4.346c0.582,1.767,2.015,3.216,3.814,3.675c1.36,0.459,3.038,0.266,4.327-0.248
		c3.674-1.943,3.868-6.588,3.744-10.191c-0.211-2.402-0.707-5.122-2.825-6.464C398.399,291.959,397.217,291.712,395.908,291.781
		 M425.74,295.968c0.336,0.777,0.529,1.695,0.372,2.561c-0.283,0.318-0.689,0.3-1.131,0.318h-2.933
		c-0.229-0.071-0.424-0.283-0.424-0.548c-0.02-1.306,0.316-2.843,1.625-3.374C424.275,294.556,425.316,295.121,425.74,295.968
		 M421.339,301.13l7.316-0.039l0.795-0.089c0.229-0.07,0.265-0.316,0.301-0.529c0.035-2.95-0.406-6.447-2.879-8.038
		c-1.043-0.53-2.139-0.812-3.392-0.724c-1.926,0.106-3.713,1.29-4.486,3.056c-0.795,1.81-1.838,5.326-0.954,9.254
		c0.409,1.819,1.166,3.799,2.844,4.717c1.042,0.461,2.139,0.936,3.445,0.83c0.653-0.123,1.376-0.088,1.942-0.405
		c2.138-0.901,3.283-3.858,3.302-6.083l-3.125-0.012l-0.159,0.053c-0.247,1.148-0.318,2.543-1.467,3.145
		c-0.76,0.317-1.783,0.301-2.366-0.316C421.467,304.889,421.269,302.508,421.339,301.13 M435.102,309.211v-9.109l0.01-0.19
		c0.019-1.042-0.114-2.141,0.663-2.9c0.741-0.725,1.837-1.113,3.021-0.973c0.018,0.071,0.104,0.124,0.193,0.071l-0.018-3.427
		c-0.143-0.017-0.106-0.105-0.229-0.159c-0.707,0.071-1.483-0.177-2.031,0.195c-0.514,0.176-0.849,0.812-1.361,0.972
		c-0.403-0.265-0.403-0.919-0.83-1.149c-0.828-0.158-1.801-0.052-2.647-0.087c-0.106,0.087-0.3,0.018-0.389,0.16
		c-0.177,0.194-0.07,0.547-0.034,0.724c0.123,0.336,0.051,0.795,0.229,1.042v14.832h3.425V309.211z M385.629,309.182v-9.681
		c0.018-1.095,0.141-2.278,1.024-2.985c0.635-0.671,1.802-0.878,2.791-0.917v-3.27l-0.565-0.071
		c-1.023-0.105-1.943,0.318-2.633,0.972c-0.123,0.071-0.194,0.318-0.405,0.301c-0.265,0.123-0.354-0.212-0.425-0.372
		c-0.158-0.265-0.212-0.724-0.618-0.759c-0.864-0.124-1.854-0.106-2.72,0c-0.159,0.088-0.318,0.194-0.354,0.389
		c0.618,2.772,0.188,6.023,0.348,8.832l0.007,0.247l0.035,7.309L385.629,309.182z M398.526,289.213l-3.906-0.011
		c-0.124-2.331-0.23-4.432-0.284-6.693c-0.088-2.35-0.812-4.981-2.984-6.182l-1.431-0.618c-2.524-0.441-5.314-0.247-7.03,1.697
		c-1.322,1.642-1.553,3.779-1.713,5.775c-0.389,3.321-0.247,7.012-2.084,9.997c-1.167,1.625-3.021,2.368-4.732,3.056
		c-0.143,0.088-0.247,0.265-0.179,0.424c0.654,0.547,1.608,0.688,2.298,1.219c2.438,1.484,2.737,4.627,3.125,7.223
		c0.16,1.185,0.303,2.422,0.603,3.64c0.053,0.266-0.213,0.372-0.406,0.405l-3.056-0.018c-0.301-0.088-0.406-0.406-0.512-0.671
		c-0.602-2.226-0.495-4.592-0.885-6.817c-0.212-1.537-1.095-2.844-2.489-3.392c-0.479-0.159-0.989-0.301-1.521-0.195
		c-0.46,0.177-0.44,0.743-0.44,1.113c0.07,3.179,0.035,6.253,0.035,9.909l-0.212,0.09l-3.251-0.037
		c-0.104-0.052-0.301-0.052-0.264-0.229v-25.613c1.165-0.087,2.401-0.035,3.603-0.052v10.722c0.194,0.247,0.159,0.671,0.513,0.794
		c1.448,0.071,2.88-0.459,3.886-1.519c1.608-1.748,1.73-4.186,1.926-6.376c0.142-2.826,0.301-5.881,1.359-8.513
		c1.29-3.25,4.628-5.034,8.02-5.352c1.644-0.247,3.393-0.071,4.93,0.335c0.088,0.071,0.229,0.088,0.353,0.106
		c1.82,0.636,3.374,1.766,4.452,3.356c2.048,2.862,2.03,6.094,2.26,9.556L398.526,289.213z"/>
	
		<linearGradient id="SVGID_6_" gradientUnits="userSpaceOnUse" x1="370.771" y1="476.4658" x2="370.771" y2="443.9304" gradientTransform="matrix(1 0 0 1 33.04 -151.6602)">
		<stop  offset="0" style="stop-color:#5B78B7"/>
		<stop  offset="0.033" style="stop-color:#6D86BF"/>
		<stop  offset="0.087" style="stop-color:#8698CA"/>
		<stop  offset="0.12" style="stop-color:#8F9FCE"/>
		<stop  offset="0.3029" style="stop-color:#93A2D0"/>
		<stop  offset="0.4664" style="stop-color:#9DABD4"/>
		<stop  offset="0.6226" style="stop-color:#B0BBDC"/>
		<stop  offset="0.7742" style="stop-color:#C9D1E8"/>
		<stop  offset="0.9212" style="stop-color:#EAEDF6"/>
		<stop  offset="1" style="stop-color:#FFFFFF"/>
	</linearGradient>
	<path fill="url(#SVGID_6_)" d="M412.433,295.146c0.389,0.529,0.425,1.253,0.459,1.889c-0.088,2.385,0.405,4.822-0.477,7.083
		c-0.282,0.653-0.936,1.043-1.626,1.096c-0.582,0.054-1.06-0.229-1.447-0.603c-1.413-1.906-1.096-4.272-1.022-6.64
		c0.123-1.377,0.458-2.843,1.729-3.55C410.913,294.104,412.009,294.333,412.433,295.146 M406.497,322.734
		c-0.795,0-1.58-0.053-2.339-0.125c-1.788-0.166-3.259-1.34-3.913-3.02c-0.742-2.085-0.866-4.38-0.938-6.605
		c0.019-0.424,0-0.883-0.248-1.201h-3.549c-0.177,0.035-0.212,0.248-0.229,0.406c0.018,1.147,0.069,2.367,0.229,3.444
		c0.178,2.755,1.2,5.562,3.408,7.261c0.884,0.563,1.696,1.271,2.739,1.571c1.519,0.636,3.372,0.601,5.139,0.582
		c3.534-0.354,6.905-2.172,8.443-5.493c1.254-2.437,1.2-5.511,1.184-8.371l-0.054-0.105c0.089-2.244,0.035-4.575,0.054-6.854
		c0.07-2.033-0.159-3.976-0.089-5.866c0.053-2.102-0.142-4.274,0.318-6.376c0.064-0.132,0.04-0.192-0.072-0.247
		c-0.758-0.247-1.711-0.16-2.578-0.16c-0.282,0.037-0.583,0.16-0.742,0.39c-0.334,0.389-0.772-0.06-1.062-0.266
		c-0.545-0.387-1.443-0.706-2.223-0.653c-1.978-0.035-3.575,1.417-4.344,3.074c-0.839,1.811-1.18,5.494-1.024,6.994
		c0.152,1.484,0.354,3.408,1.147,4.91c0.672,1.466,2.031,2.297,3.587,2.562c1.111,0.247,2.119-0.124,3.001-0.653
		c0.143-0.123,0.372,0,0.442,0.123c0.177,2.387,0.142,4.734-0.054,7.117c-0.229,2.704-1.081,5.836-3.886,6.838
		C408.317,322.23,406.828,322.779,406.497,322.734 M398.214,294.774c1.165,1.484,1.062,3.621,1.165,5.421
		c-0.141,1.837-0.123,4.168-1.854,5.229c-0.46,0.178-1.132,0.335-1.626,0.07c-1.926-0.936-1.891-3.444-1.996-5.316
		c0.07-1.82,0.019-3.691,1.097-5.282c0.547-0.635,1.377-0.953,2.243-0.723C397.631,294.297,397.966,294.473,398.214,294.774
		 M396.625,290.959c-2.35,0-4.488,1.396-5.424,3.496v-0.053c-0.706,2.014-0.878,4.063-0.865,6.271
		c0.009,1.476,0.159,3.003,0.706,4.345c0.583,1.766,2.014,3.215,3.815,3.674c1.359,0.461,3.037,0.266,4.326-0.246
		c3.675-1.943,3.868-6.588,3.744-10.191c-0.211-2.403-0.706-5.123-2.825-6.465C399.115,291.136,397.931,290.888,396.625,290.959
		 M426.457,295.146c0.335,0.777,0.529,1.695,0.37,2.56c-0.282,0.319-0.688,0.301-1.129,0.319h-2.934
		c-0.229-0.071-0.425-0.283-0.425-0.548c-0.018-1.307,0.317-2.844,1.626-3.373C424.991,293.732,426.033,294.297,426.457,295.146
		 M422.054,300.308l7.317-0.04l0.795-0.089c0.229-0.071,0.265-0.317,0.3-0.529c0.037-2.95-0.405-6.448-2.878-8.037
		c-1.043-0.531-2.138-0.813-3.393-0.725c-1.926,0.106-3.71,1.29-4.485,3.056c-0.795,1.811-1.837,5.326-0.954,9.255
		c0.408,1.82,1.166,3.797,2.844,4.716c1.043,0.461,2.139,0.938,3.443,0.831c0.655-0.123,1.379-0.089,1.944-0.406
		c2.138-0.9,3.284-3.855,3.303-6.083l-3.126-0.011l-0.159,0.053c-0.247,1.148-0.317,2.545-1.466,3.145
		c-0.76,0.316-1.783,0.301-2.367-0.317C422.183,304.064,421.984,301.686,422.054,300.308 M435.818,308.389v-9.11l0.008-0.19
		c0.019-1.042-0.114-2.141,0.663-2.901c0.742-0.725,1.837-1.113,3.021-0.972c0.017,0.071,0.105,0.124,0.193,0.071l-0.019-3.426
		c-0.142-0.019-0.104-0.106-0.229-0.16c-0.707,0.071-1.483-0.177-2.03,0.195c-0.514,0.176-0.849,0.812-1.36,0.971
		c-0.406-0.265-0.406-0.918-0.829-1.148c-0.831-0.158-1.803-0.053-2.65-0.088c-0.105,0.088-0.3,0.018-0.388,0.159
		c-0.177,0.194-0.071,0.547-0.035,0.725c0.123,0.335,0.051,0.794,0.229,1.042v14.833h3.427V308.389z M386.344,308.357v-9.681
		c0.019-1.095,0.144-2.279,1.025-2.985c0.636-0.672,1.802-0.878,2.792-0.918l-0.002-3.269l-0.563-0.071
		c-1.025-0.105-1.942,0.319-2.633,0.972c-0.123,0.07-0.195,0.318-0.406,0.301c-0.265,0.123-0.354-0.212-0.425-0.372
		c-0.158-0.264-0.212-0.723-0.618-0.76c-0.864-0.123-1.854-0.105-2.72,0c-0.159,0.089-0.318,0.194-0.354,0.389
		c0.617,2.773,0.188,6.023,0.348,8.832l0.006,0.247l0.035,7.309L386.344,308.357z M399.242,288.39l-3.907-0.01
		c-0.124-2.332-0.229-4.433-0.283-6.694c-0.088-2.348-0.812-4.981-2.983-6.182l-1.432-0.618c-2.524-0.441-5.314-0.247-7.029,1.696
		c-1.323,1.643-1.555,3.78-1.714,5.776c-0.39,3.32-0.247,7.012-2.085,9.997c-1.165,1.625-3.02,2.366-4.731,3.055
		c-0.143,0.088-0.247,0.265-0.178,0.424c0.653,0.547,1.606,0.689,2.298,1.219c2.437,1.484,2.736,4.628,3.126,7.224
		c0.158,1.184,0.3,2.42,0.601,3.638c0.052,0.267-0.213,0.372-0.407,0.407l-3.056-0.018c-0.3-0.089-0.405-0.406-0.512-0.673
		c-0.602-2.225-0.495-4.592-0.884-6.817c-0.214-1.537-1.096-2.843-2.49-3.392c-0.479-0.159-0.988-0.3-1.52-0.194
		c-0.46,0.177-0.44,0.742-0.44,1.112c0.068,3.181,0.035,6.253,0.035,9.91l-0.214,0.088l-3.249-0.034
		c-0.105-0.054-0.301-0.054-0.266-0.23v-25.611c1.166-0.089,2.402-0.035,3.604-0.053v10.721c0.192,0.248,0.157,0.671,0.513,0.794
		c1.448,0.072,2.879-0.458,3.886-1.519c1.606-1.749,1.73-4.186,1.925-6.376c0.143-2.826,0.302-5.882,1.36-8.514
		c1.29-3.249,4.628-5.033,8.019-5.352c1.645-0.247,3.393-0.07,4.929,0.335c0.089,0.07,0.229,0.088,0.354,0.106
		c1.819,0.635,3.373,1.766,4.45,3.355c2.05,2.862,2.032,6.094,2.262,9.557L399.242,288.39z"/>
</g>
</svg>
