<?xml version="1.0" encoding="utf-8"?>
<!-- Generator: Adobe Illustrator 16.0.0, SVG Export Plug-In . SVG Version: 6.00 Build 0)  -->
<!DOCTYPE svg PUBLIC "-//W3C//DTD SVG 1.1//EN" "http://www.w3.org/Graphics/SVG/1.1/DTD/svg11.dtd">
<svg version="1.1" id="Layer_1" xmlns="http://www.w3.org/2000/svg" xmlns:xlink="http://www.w3.org/1999/xlink" x="0px" y="0px"
	 width="200px" height="171.5px" viewBox="0 14 200 171.5" enable-background="new 0 14 200 171.5" xml:space="preserve">
<g>
	
		<linearGradient id="SVGID_1_" gradientUnits="userSpaceOnUse" x1="-10.5645" y1="121.6553" x2="106" y2="5.091" gradientTransform="matrix(1 0 0 -1 54 165)">
		<stop  offset="0.0056" style="stop-color:#99272B"/>
		<stop  offset="0.1461" style="stop-color:#EE272A"/>
		<stop  offset="0.2313" style="stop-color:#EE2A2D"/>
		<stop  offset="0.2918" style="stop-color:#EF3336"/>
		<stop  offset="0.3447" style="stop-color:#F04345"/>
		<stop  offset="0.3932" style="stop-color:#F2595B"/>
		<stop  offset="0.4387" style="stop-color:#F47577"/>
		<stop  offset="0.482" style="stop-color:#F7999A"/>
		<stop  offset="0.5236" style="stop-color:#FAC2C3"/>
		<stop  offset="0.5627" style="stop-color:#FEF1F1"/>
		<stop  offset="0.573" style="stop-color:#FFFFFF"/>
		<stop  offset="0.5815" style="stop-color:#FDDFE0"/>
		<stop  offset="0.5949" style="stop-color:#F9B4B6"/>
		<stop  offset="0.6093" style="stop-color:#F68E90"/>
		<stop  offset="0.6246" style="stop-color:#F46E70"/>
		<stop  offset="0.6411" style="stop-color:#F25457"/>
		<stop  offset="0.6592" style="stop-color:#F04043"/>
		<stop  offset="0.6798" style="stop-color:#EF3235"/>
		<stop  offset="0.7048" style="stop-color:#EE292C"/>
		<stop  offset="0.7472" style="stop-color:#EE272A"/>
		<stop  offset="1" style="stop-color:#99272B"/>
	</linearGradient>
	<ellipse fill="url(#SVGID_1_)" cx="100.539" cy="100.448" rx="93.215" ry="75.95"/>
	<ellipse fill="#FFFFFF" cx="100.539" cy="100.056" rx="84.045" ry="66.808"/>
	
		<linearGradient id="SVGID_2_" gradientUnits="userSpaceOnUse" x1="46.5376" y1="128.752" x2="46.5376" y2="1.5628" gradientTransform="matrix(1 0 0 -1 54 165)">
		<stop  offset="0.0056" style="stop-color:#2E2F6F"/>
		<stop  offset="0.5843" style="stop-color:#0073BB"/>
	</linearGradient>
	<ellipse fill="url(#SVGID_2_)" cx="100.538" cy="100.056" rx="80.271" ry="63.807"/>
	
		<linearGradient id="SVGID_3_" gradientUnits="userSpaceOnUse" x1="59.9297" y1="89.2329" x2="88.9569" y2="118.2601" gradientTransform="matrix(1 0 0 -1 54 165)">
		<stop  offset="0.0056" style="stop-color:#2E2F6F"/>
		<stop  offset="0.5562" style="stop-color:#0073BB"/>
		<stop  offset="0.9663" style="stop-color:#FFFFFF"/>
	</linearGradient>
	<path opacity="0.81" fill="url(#SVGID_3_)" enable-background="new    " d="M115.962,41.464c5.853,0.029,6.396,19.582,7.048,24.021
		c1.215,8.266,10.338,11.566,17.582,16.585c0.152,0.163-1.102-2.698-1.27-2.847c-0.812-9.106-0.213-22.995-4.004-31.262
		c-1.293-2.823-10.672-7.916-19.114-7.452"/>
	
		<linearGradient id="SVGID_4_" gradientUnits="userSpaceOnUse" x1="81.436" y1="73.7285" x2="107.1682" y2="99.4607" gradientTransform="matrix(1 0 0 -1 54 165)">
		<stop  offset="0.0056" style="stop-color:#2E2F6F"/>
		<stop  offset="0.5562" style="stop-color:#0073BB"/>
		<stop  offset="0.9663" style="stop-color:#FFFFFF"/>
	</linearGradient>
	<path opacity="0.81" fill="url(#SVGID_4_)" enable-background="new    " d="M140.387,50.436c4.854-0.081,12.215,5.373,16.107,8.032
		c4.085,2.793,9.679,7.758,12.41,12.151c3.502,5.63,3.74,10.724,2.011,17.188c-1.452,5.426-5.668,12.998-12.056,9.096
		c-5.979-3.652-13.248-10.419-14.412-17.648c-0.756-4.692-0.691-9.631-0.875-14.516c-0.143-3.746-0.957-10.093-2.139-13.256"/>
	<path fill="#FFFFFF" d="M154.314,93.074c0-0.349-0.114-0.694-0.348-0.81c-0.23-0.232-0.693-0.348-1.156-0.348h-1.388v4.048h0.579
		v-1.85h0.809l0.812,1.85h0.578l-0.81-1.85c0.346,0,0.461-0.231,0.69-0.348C154.2,93.535,154.314,93.305,154.314,93.074
		L154.314,93.074L154.314,93.074z M153.506,93.65c-0.232,0.117-0.464,0.117-0.811,0.117h-0.692V92.38h0.692
		c0.347,0,0.578,0,0.811,0.114c0.116,0.117,0.23,0.348,0.23,0.58C153.736,93.305,153.622,93.535,153.506,93.65L153.506,93.65z"/>
	<path fill="#FFFFFF" d="M155.703,92.726c-0.23-0.461-0.463-0.809-0.694-1.155c-0.348-0.232-0.694-0.579-1.041-0.694
		c-0.462-0.232-0.81-0.232-1.271-0.232c-0.465,0-0.926,0-1.272,0.232c-0.347,0.115-0.694,0.347-1.042,0.694
		c-0.229,0.347-0.462,0.694-0.693,1.155c-0.114,0.349-0.229,0.81-0.229,1.272c0,0.464,0.115,0.925,0.229,1.273
		c0.231,0.462,0.349,0.808,0.693,1.155c0.348,0.348,0.695,0.578,1.042,0.693c0.347,0.232,0.81,0.232,1.272,0.232
		c0.346,0,0.81,0,1.156-0.232c0.461-0.115,0.809-0.346,1.155-0.693c0.231-0.348,0.464-0.693,0.694-1.155
		c0.115-0.349,0.23-0.81,0.23-1.273C155.936,93.535,155.818,93.074,155.703,92.726L155.703,92.726L155.703,92.726z M155.355,95.156
		c-0.115,0.346-0.348,0.692-0.58,0.923c-0.346,0.348-0.693,0.581-1.039,0.695c-0.346,0.115-0.694,0.23-1.041,0.23
		c-0.346,0-0.812-0.115-1.157-0.23c-0.347-0.114-0.577-0.348-0.923-0.695c-0.233-0.23-0.463-0.577-0.579-0.923
		c-0.116-0.348-0.231-0.812-0.231-1.158c0-0.348,0.115-0.809,0.231-1.156c0.116-0.347,0.346-0.694,0.692-0.925
		c0.231-0.347,0.463-0.579,0.81-0.694c0.347-0.116,0.694-0.231,1.157-0.231c0.347,0,0.695,0.115,1.041,0.231
		c0.346,0.115,0.693,0.348,1.039,0.694c0.232,0.23,0.465,0.577,0.58,0.925c0.115,0.348,0.231,0.809,0.231,1.156
		C155.588,94.462,155.473,94.809,155.355,95.156L155.355,95.156z"/>
	<g>
		<path d="M69.095,89.426h-6.129c0.117,1.504,0.58,4.048,0.81,5.437v26.601h7.055v-18.735c0.115-4.742,2.312-7.864,6.939-7.056
			v-6.939c-3.933,0-5.32,0.927-7.056,2.544C70.253,90.583,69.79,90.351,69.095,89.426L69.095,89.426z"/>
		<path d="M49.897,96.712c6.824-2.08,10.293-5.436,11.565-17.926c1.62-17.927,3.816-20.935,12.838-21.05
			c10.755-0.115,12.838,7.519,12.838,25.444h7.633c0.347-29.839-12.028-30.995-20.009-30.88
			c-10.872,0.232-19.43,5.899-20.124,20.355c-0.462,9.6-0.348,13.069-3.47,17.812c-1.851,3.006-7.98,5.089-8.674,2.775V72.656h-7.17
			v48.807h7.517v-20.124c2.313-1.619,7.402,0.925,8.096,5.204c0.578,3.586,1.156,14.227,2.776,14.92h6.245
			c0.348,0,0.579-1.387,0.116-3.584c-1.272-12.377-2.891-17.234-10.525-19.894C49.088,97.869,48.856,97.06,49.897,96.712
			L49.897,96.712z"/>
		<path d="M102.404,104.924c0-9.599-3.584-17.348-12.259-17.348c-8.674,0-12.259,7.749-12.259,17.348
			c0,9.484,4.164,17.35,12.259,17.35C98.241,122.271,102.404,114.408,102.404,104.924L102.404,104.924L102.404,104.924z
			 M84.941,104.924c0-5.782,1.272-10.64,4.973-10.871c3.817-0.232,5.204,4.511,5.204,10.756c0,6.246-1.157,10.988-4.974,10.988
			C86.213,115.797,84.941,110.706,84.941,104.924L84.941,104.924z"/>
		<path d="M163.934,91.623c-0.463-0.81-0.926-1.04-1.619-1.964h-6.131c0.116,1.503,0.58,4.047,0.811,5.433l0.001,26.487l7.169-0.116
			v-18.506c0-4.74,2.199-7.865,6.824-7.055v-6.938C167.057,88.964,165.668,89.889,163.934,91.623L163.934,91.623z"/>
		<path d="M121.949,89.194c-0.577,0.465-1.039,0.465-1.271,1.273c-0.809-1.042-2.658-2.082-5.781-1.968
			c-2.893,0.117-5.898,1.62-7.865,5.089c-1.62,2.661-1.85,7.404-2.082,12.377s0.693,8.21,2.312,11.217
			c2.892,5.09,10.064,6.362,13.417,2.776v12.491c0,10.408-6.244,15.96-13.531,16.076c-6.015,0.113-11.914-3.471-11.914-15.383
			v-5.205h-7.748c0.115,11.684,1.966,17.58,8.095,22.09c5.32,4.049,15.96,5.091,23.477-0.115c7.865-5.781,8.329-11.797,8.329-22.551
			v-11.336l-0.347-21.165c0-2.197,0.462-4.279,1.386-5.668L121.949,89.194L121.949,89.194L121.949,89.194z M120.1,111.402
			c0,1.385-1.736,3.813-3.123,3.813c-3.932,0-4.625-3.006-4.74-9.83c0.115-9.715,1.966-10.409,5.205-10.524
			c1.848,0.115,2.658,1.503,2.658,2.891C120.794,102.264,120.794,106.891,120.1,111.402L120.1,111.402z"/>
		<path d="M142.652,87.923c-3.237-0.115-6.131,1.041-8.213,3.934c-2.312,3.353-3.471,7.632-3.471,13.183
			c0,5.667,1.273,10.063,3.588,13.185c2.08,2.775,4.51,3.701,8.325,3.701c3.009,0,5.554-0.926,7.403-3.007
			c2.082-2.428,3.354-5.897,3.47-9.831l-6.593-0.113c-0.58,5.436-2.312,6.823-4.973,6.823c-2.775,0-4.28-6.479-4.049-9.946h15.729
			c0.114-6.247,0-10.409-2.662-14.574C148.436,88.269,146.932,88.038,142.652,87.923L142.652,87.923L142.652,87.923z
			 M146.354,101.453h-6.938c-0.465,0-0.695-1.387-0.348-3.005c0.348-1.968,0.576-4.164,3.932-4.396
			c3.008-0.115,3.354,2.312,3.816,4.396C147.048,100.066,146.932,101.453,146.354,101.453L146.354,101.453z"/>
	</g>
	<g>
		<path fill="#FFFFFF" d="M70.117,87.282h-6.129c0.116,1.503,0.579,4.047,0.81,5.435v26.602h7.055v-18.735
			c0.115-4.741,2.312-7.865,6.939-7.055v-6.939c-3.933,0-5.32,0.926-7.055,2.544C71.275,88.438,70.812,88.208,70.117,87.282
			L70.117,87.282z"/>
		<path fill="#FFFFFF" d="M50.919,94.567c6.824-2.081,10.293-5.436,11.566-17.927c1.619-17.926,3.816-20.933,12.837-21.05
			c10.756-0.114,12.839,7.52,12.839,25.445h7.633c0.346-29.84-12.028-30.995-20.009-30.88c-10.872,0.23-19.43,5.899-20.125,20.354
			c-0.461,9.599-0.347,13.068-3.469,17.812c-1.851,3.007-7.98,5.089-8.673,2.776V70.512h-7.171v48.806h7.517V99.194
			c2.313-1.62,7.402,0.925,8.096,5.205c0.578,3.584,1.156,14.227,2.776,14.918h6.245c0.348,0,0.579-1.387,0.116-3.584
			C59.824,103.357,58.206,98.5,50.572,95.84C50.111,95.725,49.878,94.914,50.919,94.567L50.919,94.567z"/>
		<path fill="#FFFFFF" d="M103.427,102.779c0-9.599-3.585-17.348-12.26-17.348c-8.674,0-12.259,7.749-12.259,17.348
			c0,9.482,4.164,17.349,12.259,17.349C99.263,120.128,103.427,112.264,103.427,102.779L103.427,102.779L103.427,102.779z
			 M85.963,102.779c0-5.783,1.272-10.64,4.973-10.871c3.817-0.232,5.204,4.511,5.204,10.755c0,6.245-1.157,10.987-4.974,10.987
			C87.235,113.65,85.963,108.562,85.963,102.779L85.963,102.779z"/>
		<path fill="#FFFFFF" d="M164.955,89.479c-0.463-0.811-0.926-1.042-1.619-1.966h-6.13c0.116,1.503,0.579,4.048,0.81,5.435v26.485
			l7.17-0.117v-18.504c0-4.742,2.198-7.864,6.825-7.055v-6.939C168.078,86.819,166.689,87.743,164.955,89.479L164.955,89.479z"/>
		<path fill="#FFFFFF" d="M122.973,87.049c-0.578,0.465-1.039,0.465-1.271,1.273c-0.811-1.04-2.661-2.082-5.782-1.967
			c-2.892,0.116-5.897,1.621-7.864,5.088c-1.621,2.662-1.852,7.404-2.082,12.377c-0.231,4.973,0.693,8.211,2.312,11.218
			c2.891,5.09,10.063,6.36,13.417,2.774v12.492c0,10.409-6.246,15.961-13.531,16.076c-6.016,0.116-11.914-3.47-11.914-15.383v-5.205
			h-7.748c0.115,11.684,1.966,17.581,8.096,22.091c5.321,4.05,15.96,5.091,23.477-0.116c7.864-5.781,8.329-11.797,8.329-22.551
			V113.88l-0.348-21.164c0-2.197,0.463-4.279,1.385-5.668L122.973,87.049L122.973,87.049L122.973,87.049z M121.121,109.257
			c0,1.388-1.734,3.815-3.122,3.815c-3.933,0-4.625-3.008-4.742-9.83c0.117-9.715,1.968-10.408,5.205-10.525
			c1.849,0.117,2.659,1.503,2.659,2.892C121.814,100.119,121.814,104.746,121.121,109.257L121.121,109.257z"/>
		<path fill="#FFFFFF" d="M143.675,85.779c-3.237-0.116-6.13,1.04-8.212,3.932c-2.312,3.354-3.471,7.633-3.471,13.184
			c0,5.668,1.273,10.062,3.587,13.186c2.081,2.775,4.51,3.702,8.325,3.702c3.009,0,5.554-0.927,7.402-3.007
			c2.084-2.43,3.354-5.899,3.471-9.832l-6.594-0.115c-0.578,5.436-2.312,6.824-4.972,6.824c-2.774,0-4.278-6.479-4.049-9.947h15.729
			c0.114-6.245,0-10.408-2.662-14.572C149.458,86.125,147.953,85.894,143.675,85.779L143.675,85.779L143.675,85.779z
			 M147.376,99.309h-6.938c-0.465,0-0.694-1.387-0.349-3.005c0.349-1.966,0.578-4.164,3.933-4.396
			c3.008-0.115,3.354,2.312,3.816,4.396C148.07,97.922,147.953,99.309,147.376,99.309L147.376,99.309z"/>
	</g>
	<g>
		
			<linearGradient id="SVGID_5_" gradientUnits="userSpaceOnUse" x1="38.9604" y1="116.8594" x2="38.9604" y2="16.5807" gradientTransform="matrix(1 0 0 -1 54 165)">
			<stop  offset="0.0112" style="stop-color:#FFFFFF"/>
			<stop  offset="0.0179" style="stop-color:#F5F8FB"/>
			<stop  offset="0.0348" style="stop-color:#E1E9F2"/>
			<stop  offset="0.0542" style="stop-color:#D3DFEC"/>
			<stop  offset="0.0779" style="stop-color:#CAD9E8"/>
			<stop  offset="0.118" style="stop-color:#C8D7E7"/>
			<stop  offset="0.2528" style="stop-color:#FFFFFF"/>
			<stop  offset="0.2949" style="stop-color:#F4F5F8"/>
			<stop  offset="0.3564" style="stop-color:#EBEEF3"/>
			<stop  offset="0.4607" style="stop-color:#E9ECF1"/>
			<stop  offset="0.7978" style="stop-color:#7D99CF"/>
		</linearGradient>
		<path fill="url(#SVGID_5_)" d="M89.185,117.845c3.666,1.312,8.061,0.585,10.939-2.093c2.827-2.628,4.129-6.346,4.75-10.059
			c1.31-7.837-0.345-20.527-10.141-21.698c0.126,0.005,0.252-0.003,0.378,0c-1.387-0.229-3.007-0.229-4.395,0
			c0.151-0.003,0.302,0.005,0.454,0c-7.508,0.926-10.514,9.047-10.514,15.72C80.656,106.508,81.868,115.096,89.185,117.845
			 M87.711,101.113c0-3.473,0.511-11.632,5.81-10.813c2.42,0.374,3.26,2.997,3.829,5.046c0.391,2.348,0.657,4.749,0.513,7.13
			c-0.195,3.209-0.601,10.07-5.336,9.604C87.976,111.634,87.711,104.434,87.711,101.113"/>
		
			<linearGradient id="SVGID_6_" gradientUnits="userSpaceOnUse" x1="91.2153" y1="116.8516" x2="91.2153" y2="16.5116" gradientTransform="matrix(1 0 0 -1 54 165)">
			<stop  offset="0.0112" style="stop-color:#FFFFFF"/>
			<stop  offset="0.0179" style="stop-color:#F5F8FB"/>
			<stop  offset="0.0348" style="stop-color:#E1E9F2"/>
			<stop  offset="0.0542" style="stop-color:#D3DFEC"/>
			<stop  offset="0.0779" style="stop-color:#CAD9E8"/>
			<stop  offset="0.118" style="stop-color:#C8D7E7"/>
			<stop  offset="0.2528" style="stop-color:#FFFFFF"/>
			<stop  offset="0.2949" style="stop-color:#F4F5F8"/>
			<stop  offset="0.3564" style="stop-color:#EBEEF3"/>
			<stop  offset="0.4607" style="stop-color:#E9ECF1"/>
			<stop  offset="0.7978" style="stop-color:#7D99CF"/>
		</linearGradient>
		<path fill="url(#SVGID_6_)" d="M156.535,95.21c-0.235-1.395-0.588-2.768-0.819-4.159c-0.303-0.76-0.679-1.501-1.021-2.244
			c-0.312-0.678-0.857-1.161-1.178-1.803c-2.506-2.505-5.164-2.726-8.533-2.797c-7.019-0.145-10.703,7.189-11.023,13.341
			c-0.438,2.897-0.441,6.399,0.229,9.263c0.709,3.043,1.572,5.946,3.635,8.358c3.803,4.446,13.113,4.228,16.101-1.083
			c0.757-1.345,1.501-2.605,1.908-4.109c0.424-1.554,0.429-3.127,0.694-4.699c-1.473-0.025-2.946-0.051-4.418-0.079
			c-0.688-0.013-1.377-0.022-2.063-0.035c-0.167-0.003-0.7,3.228-0.896,3.789c-0.486,1.388-1.286,2.549-2.762,2.966
			c-1.197,0.33-2.365,0.206-3.201-0.809c-1.916-2.322-2.272-6.058-2.272-8.954c3.38,0,6.763,0,10.142,0c1.691,0,3.381,0,5.069,0
			c0.815,0,0.633-0.441,0.633-1.276C156.756,98.979,156.702,97.101,156.535,95.21 M141.837,97.181
			c-0.567-1.131,0.04-2.933,0.317-4.092c0.313-1.312,1.158-2.231,2.475-2.564c1.477-0.37,3.094-0.185,3.973,1.169
			c0.826,1.273,1.07,3.126,1.07,4.62c0,0.711-0.056,1.33-0.843,1.33c-0.87,0-1.738,0-2.608,0
			C145.689,97.644,141.837,98.068,141.837,97.181"/>
		
			<linearGradient id="SVGID_7_" gradientUnits="userSpaceOnUse" x1="19.1372" y1="116.7627" x2="19.1372" y2="16.6519" gradientTransform="matrix(1 0 0 -1 54 165)">
			<stop  offset="0.0112" style="stop-color:#FFFFFF"/>
			<stop  offset="0.0179" style="stop-color:#F5F8FB"/>
			<stop  offset="0.0348" style="stop-color:#E1E9F2"/>
			<stop  offset="0.0542" style="stop-color:#D3DFEC"/>
			<stop  offset="0.0779" style="stop-color:#CAD9E8"/>
			<stop  offset="0.118" style="stop-color:#C8D7E7"/>
			<stop  offset="0.2528" style="stop-color:#FFFFFF"/>
			<stop  offset="0.2949" style="stop-color:#F4F5F8"/>
			<stop  offset="0.3564" style="stop-color:#EBEEF3"/>
			<stop  offset="0.4607" style="stop-color:#E9ECF1"/>
			<stop  offset="0.7978" style="stop-color:#7D99CF"/>
		</linearGradient>
		<path fill="url(#SVGID_7_)" d="M74.062,87.004c-0.193,0.192-0.385,0.386-0.578,0.577c-0.166-0.332-1.465-1.966-1.741-1.966
			c-0.646,0-1.292,0-1.939,0c-1.356,0-2.712,0-4.069,0c0,2.238,0.81,4.423,0.81,6.684c0,1.279,0,2.562,0,3.841
			c0,2.471,0,4.938,0,7.409c0,2.553,0,5.102,0,7.651c0,1.208,0,2.415,0,3.624c0,0.586,0,1.176,0,1.762
			c0,0.426-0.228,1.182,0.276,1.182c1.723,0,3.446,0,5.17,0c0.532,0,1.064,0,1.597,0c0.023,0,0.012-1.353,0.012-1.457
			c0-2.463,0-4.929,0-7.396c0-2.492,0-4.987,0-7.479c0-1.571,0.082-3.062,0.252-4.623c0.383-3.506,3.346-5.478,6.687-4.952
			c0-1.772,0-3.547,0-5.321c0-0.48,0-0.962,0-1.445c0-0.122-1.156-0.058-1.34-0.058C77.261,85.036,75.49,85.707,74.062,87.004"/>
		
			<linearGradient id="SVGID_8_" gradientUnits="userSpaceOnUse" x1="56.7251" y1="117.0352" x2="56.7251" y2="16.6165" gradientTransform="matrix(1 0 0 -1 54 165)">
			<stop  offset="0.0112" style="stop-color:#FFFFFF"/>
			<stop  offset="0.0179" style="stop-color:#F5F8FB"/>
			<stop  offset="0.0348" style="stop-color:#E1E9F2"/>
			<stop  offset="0.0542" style="stop-color:#D3DFEC"/>
			<stop  offset="0.0779" style="stop-color:#CAD9E8"/>
			<stop  offset="0.118" style="stop-color:#C8D7E7"/>
			<stop  offset="0.2528" style="stop-color:#FFFFFF"/>
			<stop  offset="0.2949" style="stop-color:#F4F5F8"/>
			<stop  offset="0.3564" style="stop-color:#EBEEF3"/>
			<stop  offset="0.4607" style="stop-color:#E9ECF1"/>
			<stop  offset="0.7978" style="stop-color:#7D99CF"/>
		</linearGradient>
		<path fill="url(#SVGID_8_)" d="M124.719,85.384c-0.556,0.447-1.08,0.627-1.271,1.388c-3.433-4.111-10.203-1.67-12.896,1.918
			c-2.756,3.676-2.124,8.272-2.833,12.539c0,4.51,0.176,8.815,2.698,12.715c2.503,4.338,9.37,5.869,13.031,2.207
			c0,2.468,0,4.933,0,7.399c0,3.874,0.376,7.726-0.849,11.527c-1.553,4.819-5.33,8.616-10.395,9.532
			c-3.986,0.721-8.268-0.267-10.914-3.49c-3.172-3.863-3.287-9.086-3.287-13.84c0-0.853,0-1.703,0-2.553
			c0-0.439,0.123-0.599-0.36-0.599c-1.819,0-3.637,0-5.455,0c-0.613,0-1.227,0-1.839,0c-0.216,0-0.003,3.351,0.02,3.784
			c0.153,2.921,0.461,5.868,1.264,8.691c1.342,4.724,4.49,8.924,8.955,11.113c5.685,2.795,13.284,2.646,18.938-0.138
			c4.943-2.437,8.621-7.003,9.815-12.376c1.003-4.503,0.814-9.212,0.814-13.794c0-2.542,0-5.085,0-7.628
			c0-4.127,0.062-8.315-0.169-12.434c-0.114-2.081-0.063-4.168-0.063-6.25c0-3.387-0.303-6.566,1.271-9.716
			C129.036,85.384,126.879,85.384,124.719,85.384 M123.332,100.188c0,1.895-0.133,3.729-0.27,5.613
			c-0.32,2.016-0.412,3.919-2.199,5.295c-1.779,1.37-4.25-0.363-4.934-2.093c-0.787-2.094-0.927-4.519-0.927-6.733
			c0-3.492-0.435-10.761,4.421-11.078c1.835-0.11,3.442,0.675,3.442,2.75C122.867,96.017,123.332,98.093,123.332,100.188"/>
		
			<linearGradient id="SVGID_9_" gradientUnits="userSpaceOnUse" x1="112.3428" y1="116.752" x2="112.3428" y2="16.6565" gradientTransform="matrix(1 0 0 -1 54 165)">
			<stop  offset="0.0112" style="stop-color:#FFFFFF"/>
			<stop  offset="0.0179" style="stop-color:#F5F8FB"/>
			<stop  offset="0.0348" style="stop-color:#E1E9F2"/>
			<stop  offset="0.0542" style="stop-color:#D3DFEC"/>
			<stop  offset="0.0779" style="stop-color:#CAD9E8"/>
			<stop  offset="0.118" style="stop-color:#C8D7E7"/>
			<stop  offset="0.2528" style="stop-color:#FFFFFF"/>
			<stop  offset="0.2949" style="stop-color:#F4F5F8"/>
			<stop  offset="0.3564" style="stop-color:#EBEEF3"/>
			<stop  offset="0.4607" style="stop-color:#E9ECF1"/>
			<stop  offset="0.7978" style="stop-color:#7D99CF"/>
		</linearGradient>
		<path fill="url(#SVGID_9_)" d="M167.514,87.004c-0.271,0.272-0.484,0.591-0.812,0.809c-0.402-0.604-0.934-1-1.355-1.573
			c-0.33-0.443-0.162-0.396-0.584-0.386c-0.916,0.018-1.83,0.035-2.744,0.052c-0.869,0.016-1.738,0.031-2.61,0.049
			c-0.866,0.016-0.402,0.889-0.292,1.643c0.205,1.393,0.648,2.805,0.648,4.21c0,0.654,0,1.306,0,1.957c0,1.209,0,2.416,0,3.624
			c0,5,0,10.001,0,15.001c0,1.308,0,2.614,0,3.922c0,0.104-0.011,1.457,0.012,1.457c0.617,0,1.232,0,1.847,0c1.737,0,3.474,0,5.21,0
			c0.2,0,0.104-2.901,0.104-3.297c0-4.988,0-9.979,0-14.969c0-1.991,0.205-4.017,1.494-5.632c1.396-1.752,3.258-1.831,5.33-1.779
			c0-1.676,0-3.355,0-5.031c0-0.354,0-0.71,0-1.067c0-0.129,0.08-0.632,0-0.725c-0.561-0.021-1.117-0.019-1.675,0.019
			C170.37,85.405,168.87,85.959,167.514,87.004"/>
		
			<linearGradient id="SVGID_10_" gradientUnits="userSpaceOnUse" x1="13.8379" y1="116.8584" x2="13.8379" y2="16.5381" gradientTransform="matrix(1 0 0 -1 54 165)">
			<stop  offset="0.0112" style="stop-color:#FFFFFF"/>
			<stop  offset="0.0179" style="stop-color:#F5F8FB"/>
			<stop  offset="0.0348" style="stop-color:#E1E9F2"/>
			<stop  offset="0.0542" style="stop-color:#D3DFEC"/>
			<stop  offset="0.0779" style="stop-color:#CAD9E8"/>
			<stop  offset="0.118" style="stop-color:#C8D7E7"/>
			<stop  offset="0.2528" style="stop-color:#FFFFFF"/>
			<stop  offset="0.2949" style="stop-color:#F4F5F8"/>
			<stop  offset="0.3564" style="stop-color:#EBEEF3"/>
			<stop  offset="0.4607" style="stop-color:#E9ECF1"/>
			<stop  offset="0.7978" style="stop-color:#7D99CF"/>
		</linearGradient>
		<path fill="url(#SVGID_10_)" d="M64.348,73.935c0.478-4.985,0.769-10.694,3.098-15.245c1.446-2.826,3.932-4.155,7.015-4.502
			c3.695-0.417,7.994-0.23,10.838,2.479c3.276,3.121,3.905,8.309,4.256,12.571c0.271,3.31,0.353,6.64,0.353,9.959
			c0,0.515,0.697,0.288,1.145,0.288c1.018,0,2.035,0,3.052,0c0.881,0,1.761,0,2.642,0c1.13,0,0.794-0.297,0.794-1.504
			c0-3.229-0.17-6.257-0.574-9.453c-1.021-8.047-4.084-17.177-12.856-19.331c-7.327-1.801-16.541-0.331-21.691,5.483
			c-3.976,4.488-4.793,10.317-5.125,16.08c-0.326,5.662-0.004,12.372-4.046,16.809c-1.133,1.243-2.809,2.165-4.421,2.614
			c-1,0.277-3.155,0.674-3.563-0.751c-0.3-0.974,0-2.537,0-3.562c0-2.552,0-5.1,0-7.649c0-2.618,0-5.236,0-7.854
			c0-0.147,0.057-1.522-0.047-1.522c-0.681,0-1.362,0-2.044,0c-1.677,0-3.354,0-5.032,0c-0.085,0-0.047,27.639-0.047,30.209
			c0,4.984,0,9.967,0,14.949c0,1.226,0,2.449,0,3.674c0,0.19,3.884,0.091,4.271,0.091c0.864,0,1.728,0,2.592,0
			c0.635,0,0.655,0.092,0.655-0.555c0-1.279,0-2.561,0-3.84c0-5.031,0-10.062,0-15.096c0-0.422-0.108-0.608,0.306-0.839
			c0.576-0.316,1.328-0.401,1.97-0.287c1.596,0.208,3.185,1.168,4.202,2.395c2.076,2.501,1.899,5.821,2.294,8.892
			c0.195,1.511,0.297,3.033,0.531,4.539c0.204,1.311,0.348,3.66,1.372,4.662c0.31,0.305,1.142,0.129,1.524,0.129
			c1.049,0,2.098,0,3.147,0c1.194,0,1.997,0.344,2.14-1.065c0.137-1.341-0.301-2.724-0.42-4.056
			c-0.12-1.344-0.316-2.681-0.478-4.016c-0.618-5.123-2.365-10.679-7.161-13.319c-0.723-0.398-2.697-0.71-3.097-1.414
			c-0.372-0.885,2.088-1.386,2.614-1.602c2.391-0.907,4.554-2.223,5.992-4.392c1.364-2.061,2.091-4.217,2.708-6.708
			c0.309-1.255,0.564-2.533,0.671-3.822C64.11,76.283,63.998,74.982,64.348,73.935"/>
	</g>
	<g>
		<path fill="#FFFFFF" d="M141.254,128.864c0-0.349-0.115-0.695-0.348-0.812c-0.23-0.229-0.693-0.346-1.155-0.346h-1.388v4.047
			h0.578v-1.849h0.81l0.812,1.849h0.576l-0.81-1.849c0.347,0,0.462-0.232,0.692-0.35
			C141.139,129.325,141.254,129.095,141.254,128.864L141.254,128.864L141.254,128.864z M140.445,129.441
			c-0.232,0.115-0.465,0.115-0.811,0.115h-0.693v-1.389h0.693c0.346,0,0.577,0,0.811,0.115c0.115,0.115,0.229,0.349,0.229,0.58
			C140.676,129.095,140.562,129.325,140.445,129.441L140.445,129.441z"/>
		<path fill="#FFFFFF" d="M142.643,128.518c-0.229-0.465-0.463-0.811-0.693-1.158c-0.348-0.23-0.694-0.577-1.042-0.692
			c-0.462-0.231-0.81-0.231-1.271-0.231c-0.465,0-0.927,0-1.273,0.231c-0.346,0.115-0.693,0.349-1.041,0.692
			c-0.23,0.349-0.461,0.693-0.694,1.158c-0.114,0.348-0.229,0.809-0.229,1.271s0.115,0.926,0.229,1.272
			c0.233,0.463,0.349,0.809,0.694,1.156c0.348,0.348,0.695,0.578,1.041,0.693c0.348,0.23,0.81,0.23,1.273,0.23
			c0.344,0,0.809,0,1.154-0.23c0.463-0.115,0.811-0.348,1.157-0.693c0.229-0.349,0.464-0.693,0.694-1.156
			c0.113-0.348,0.229-0.812,0.229-1.272C142.873,129.325,142.757,128.864,142.643,128.518L142.643,128.518L142.643,128.518z
			 M142.295,130.943c-0.115,0.349-0.347,0.695-0.579,0.926c-0.346,0.349-0.694,0.58-1.04,0.695c-0.347,0.115-0.695,0.23-1.039,0.23
			c-0.349,0-0.812-0.115-1.158-0.23c-0.347-0.115-0.578-0.348-0.924-0.695c-0.232-0.23-0.464-0.577-0.578-0.926
			c-0.115-0.346-0.232-0.809-0.232-1.155s0.117-0.81,0.232-1.155c0.114-0.349,0.346-0.693,0.692-0.926
			c0.231-0.348,0.462-0.579,0.81-0.693c0.347-0.117,0.693-0.231,1.158-0.231c0.344,0,0.692,0.114,1.039,0.231
			c0.346,0.114,0.694,0.346,1.04,0.693c0.232,0.23,0.464,0.577,0.579,0.926c0.117,0.346,0.23,0.809,0.23,1.155
			C142.525,130.25,142.412,130.598,142.295,130.943L142.295,130.943z"/>
	</g>
	<rect fill="none" width="200" height="200"/>
</g>
</svg>
