<?xml version="1.0" encoding="utf-8"?>
<!-- Generator: Adobe Illustrator 16.0.0, SVG Export Plug-In . SVG Version: 6.00 Build 0)  -->
<!DOCTYPE svg PUBLIC "-//W3C//DTD SVG 1.1//EN" "http://www.w3.org/Graphics/SVG/1.1/DTD/svg11.dtd">
<svg version="1.1" id="Layer_1" xmlns="http://www.w3.org/2000/svg" xmlns:xlink="http://www.w3.org/1999/xlink" x="0px" y="0px"
	 width="144.418px" height="61.385px" viewBox="26.758 65.374 144.418 61.385"
	 enable-background="new 26.758 65.374 144.418 61.385" xml:space="preserve">
<g>
	<path fill="#00B6F1" d="M58.246,78.213c-0.089-0.216-0.132-0.416-0.132-0.594c0-1.009,0.875-1.516,2.633-1.516
		c1.362,0,2.044,0.266,2.044,0.792c0,0.396-0.618,0.836-1.843,1.318c0.173-0.351,0.5-0.878,0.986-1.581
		c-1.936,3.124-3.608,5.846-5.012,8.174c-1.318,2.286-1.977,3.538-1.977,3.753c-0.047,0.047-0.047,0.047,0,0
		c0.042,0,0.107-0.042,0.196-0.13l0.462-0.528c0.22-0.263,0.706-0.922,1.454-1.979c-0.529-0.524-0.901-0.79-1.122-0.79
		c-0.131,0-0.177,0.087-0.131,0.261c0,0.705,1.13,3.224,3.393,7.548c2.263,4.326,3.658,6.578,4.187,6.751
		c-0.266-0.834-0.968-2.37-2.108-4.61c0.879,0.701,1.318,1.295,1.318,1.776c0,0.487-0.458,0.725-1.376,0.725
		c-0.917,0-1.688-0.195-2.313-0.593c-0.501-0.305-0.751-0.613-0.751-0.922c0-0.347,0.173-0.678,0.524-0.986
		c0.142,0.835,0.215,1.342,0.215,1.515c0.042,0.046,0.042,0.065,0,0.065c-0.088,0-0.131-0.042-0.131-0.132
		c-0.262-0.351-0.758-1.425-1.499-3.229c-0.957-2.236-1.935-4.677-2.934-7.314c-0.74-2.066-1.111-3.165-1.111-3.296
		c-0.029-0.042-0.026-0.065,0.021-0.065v0.065l0.127,0.131l0.316,0.725l1.265,3.035c-0.201-0.525-0.417-1.319-0.656-2.375
		c0.349,0.706,0.566,1.496,0.656,2.375c0-0.968,0-1.496,0-1.585l0.493,13.104c0,0.482,0,0.768,0,0.853
		c-0.166-0.728-0.333-2.021-0.493-3.87c0.328,0.485,0.493,0.926,0.493,1.317c0,1.276-0.93,1.912-2.783,1.912
		c-1.106,0-1.657-0.373-1.657-1.121c0-0.569,0.415-1.272,1.249-2.107c-0.004,0.528-0.008,1.342-0.008,2.438l-0.007,0.526v0.198
		h-0.493l0.493-0.133v-0.463c-0.166-0.303-0.333-1.028-0.493-2.17c-0.147-2.236-0.216-5.439-0.216-9.61
		c0-10.182,0.108-15.359,0.328-15.537c0.177,1.488,0.308,4.118,0.397,7.88c-0.34-0.963-0.509-1.758-0.509-2.375
		c0-1.095,0.459-1.646,1.379-1.646c0.918,0,1.681,0.375,2.298,1.122c0.523,0.572,0.786,1.034,0.786,1.384
		c0,0.617-0.42,1.122-1.256,1.515c0.053-0.439,0.188-0.898,0.413-1.384c0.054,0,0.081,0.047,0.081,0.132v0.331
		c0,0.308,0,1.033,0,2.175c0,6.022-0.146,9.14-0.44,9.356c-0.042-0.613-0.061-1.735-0.061-3.361c0,0.439-0.085,1.122-0.25,2.043
		v-0.262c-0.047-0.528,0.042-1.123,0.258-1.781c-0.081,0.308-0.279,0.748-0.59,1.318l3.362-7.973
		c0.262-1.009,0.856-2.348,1.781-4.02C59.278,75.445,58.862,76.586,58.246,78.213L58.246,78.213z"/>
	<path fill="#00B6F1" d="M67.737,85.068c-0.266-0.616-0.397-1.123-0.397-1.519c0-0.571,0.258-0.856,0.775-0.856
		c0.601,0,1.202,0.266,1.804,0.79c0.471,0.44,0.709,0.772,0.709,0.991c0,0.354-0.285,0.551-0.848,0.594l0.401-0.201l0.2,0.328
		c0,0.532-0.166,0.86-0.494,0.99l-0.1-0.393l-0.393,0.262l0.451-0.262l-0.451,0.196c1.295-0.481,2.876-1.01,4.734-1.58
		c-0.266,0.088-0.729,0.261-1.384,0.524l0.528-0.394c0.173,0.046,0.262,0.286,0.262,0.725c0,0.794-0.154,1.234-0.462,1.319
		l-0.328-0.398l0.528-0.262h-0.066c-0.308,0-1.156,0.277-2.541,0.826c-1.384,0.55-2.074,0.89-2.074,1.021l0.397,0.065l0.922-0.065
		l-0.201-0.991l-0.131-0.262v-0.065l-0.062,0.065l-0.062,0.262c-0.043,0.178-0.062,0.397-0.062,0.659
		c0,1.188,0.082,2.984,0.246,5.397c0.163,2.414,0.247,4.21,0.247,5.394c0,0.746,0.028,1.318,0.089,1.713
		c0-0.828-0.024-2.121-0.066-3.872c0.312,0.439,0.47,0.859,0.47,1.254c0,0.878-0.628,1.318-1.885,1.318
		c-1.21,0-1.816-0.353-1.816-1.059c0-0.48,0.352-0.986,1.057-1.515c-0.043,0.659-0.147,1.342-0.313,2.042
		c-0.17-0.215-0.25-1.812-0.25-4.783v-6.296c0-1.657,0.02-3.32,0.062-4.981c-0.085-0.478-0.022-1.18,0.188-2.097
		C67.548,80.95,67.652,82.654,67.737,85.068L67.737,85.068z"/>
	<path fill="#00B6F1" d="M85.252,87.504c0.327-0.312,0.494-0.602,0.494-0.872c0-0.266-0.158-0.602-0.466-1.006
		c-0.447-0.49-0.983-0.736-1.608-0.736c-0.312,0-0.467,0.115-0.467,0.338c0,0.273,0.197,0.614,0.594,1.022
		c0.043-0.132,0.065-0.24,0.065-0.332c0-0.174-0.088-0.262-0.261-0.262c-0.44,0-0.945,0.219-1.515,0.659
		c-0.529,0.397-0.791,0.682-0.791,0.856c0,0.266,0.332,0.377,0.995,0.332c-0.046-0.395-0.12-0.833-0.211-1.319
		c-0.19,0.177-0.282,1.123-0.282,2.834v4.746c0,3.385,0,5.167,0,5.34c0.247-0.701,0.409-1.914,0.494-3.628
		c-0.331,0.254-0.494,0.533-0.494,0.829c0,0.259,0.154,0.578,0.467,0.959c0.44,0.471,0.972,0.701,1.595,0.701
		c0.355,0,0.533-0.1,0.533-0.308c0-0.247-0.2-0.56-0.594-0.93c-0.088,0.131-0.131,0.244-0.131,0.332
		c0,0.178,0.084,0.264,0.262,0.264c0.486,0,1.014-0.221,1.585-0.66c0.481-0.394,0.724-0.678,0.724-0.855
		c0-0.219-0.331-0.332-0.986-0.332c0.045,0.397,0.139,0.836,0.282,1.318c0.138-0.173,0.212-1.142,0.212-2.899V89.15
		c0-3.339-0.074-5.093-0.212-5.27C85.44,84.539,85.345,85.746,85.252,87.504L85.252,87.504L85.252,87.504z M79.712,87.504
		c-0.586-0.135-0.875-0.363-0.875-0.679c0-0.405,0.725-1.107,2.181-2.102c1.543-1.04,2.845-1.561,3.902-1.561
		c0.219,0,0.332,0.074,0.332,0.212c0,0.328-0.486,0.914-1.449,1.759c-0.225-0.328-0.332-0.564-0.332-0.702
		c0-0.185,0.131-0.281,0.397-0.281c0.833,0,2.066,0.516,3.697,1.542c1.581,0.984,2.374,1.631,2.374,1.944
		c0,0.134-0.135,0.2-0.396,0.2c-0.401,0-0.953-0.108-1.658-0.331c0.038-0.262,0.208-0.655,0.502-1.188
		c0.377,0.439,0.567,1.877,0.567,4.322v3.732c0,2.14-0.17,3.666-0.503,4.584c-0.253-0.646-0.441-1.804-0.566-3.477
		c0.547,0.131,0.821,0.351,0.821,0.659c0,0.396-0.705,1.079-2.117,2.044c-1.542,1.01-2.845,1.516-3.9,1.516
		c-0.266,0-0.397-0.066-0.397-0.197c0-0.309,0.501-0.854,1.512-1.646c0.173,0.233,0.262,0.422,0.262,0.573
		c0,0.191-0.135,0.284-0.397,0.284c-0.791,0-2.021-0.509-3.689-1.527c-1.584-0.929-2.374-1.542-2.374-1.843
		c0-0.124,0.129-0.188,0.396-0.188c0.394,0,0.964,0.112,1.712,0.327c-0.042,0.266-0.228,0.664-0.559,1.187
		c-0.379-0.482-0.564-1.932-0.564-4.349V88.56c0-2.15,0.185-3.688,0.564-4.614C79.356,84.648,79.542,85.835,79.712,87.504
		L79.712,87.504z"/>
	<path fill="#00B6F1" d="M95.115,85.395c-0.22-0.613-0.328-1.118-0.328-1.515c0-0.571,0.262-0.856,0.791-0.856
		c0.616,0,1.21,0.266,1.78,0.791c0.524,0.44,0.791,0.79,0.791,1.052c0,0.309-0.33,0.485-0.991,0.528l0.672-0.131v0.263
		c0,0.531-0.147,0.858-0.433,0.99l-0.174-0.398l-0.262,0.263l0.262-0.263l-0.458,0.132c1.404-0.833,2.722-1.36,3.952-1.582
		c-0.09,0.132-0.397,0.332-0.923,0.594c-0.132-0.173-0.197-0.304-0.197-0.397c0-0.173,0.109-0.262,0.329-0.262
		c0.659,0,1.496,0.286,2.507,0.856c0.879,0.527,1.318,0.924,1.318,1.187c0,0.22-0.243,0.328-0.727,0.328l-0.594-0.066
		c0.039-0.483,0.135-0.987,0.291-1.516c0.191,0.178,0.286,1.582,0.286,4.215v4.406c0,4.435-0.095,6.735-0.286,6.912
		c-0.117-0.786-0.214-2.271-0.291-4.46c0.387,0.582,0.577,1.092,0.577,1.526c0,0.972-0.538,1.454-1.614,1.454
		c-1.392,0-2.084-0.482-2.084-1.454c0-0.532,0.293-1.041,0.877-1.526l-0.386,1.646v-0.327v-3.89c0-5.751,0.162-9.005,0.494-9.753
		c-0.008-0.305-0.022-0.59-0.039-0.856c0.043,0.795,0.021,2.178-0.069,4.152c0.235-0.394,0.354-0.768,0.354-1.122
		c0-0.921-0.466-1.384-1.397-1.384c-0.531,0-0.799,0.201-0.799,0.595c0,0.261,0.174,0.546,0.53,0.855
		c0.041-0.131,0.063-0.238,0.063-0.328c0-0.173-0.135-0.262-0.398-0.262c-0.527,0-0.988,0.136-1.383,0.397
		c-0.396,0.263-0.593,0.481-0.593,0.655c0,0.224,0.263,0.421,0.791,0.594c0.041-0.394-0.023-0.921-0.197-1.58l0.223,10.778
		c0.299,0.536,0.449,1.004,0.449,1.403c0,0.94-0.605,1.408-1.816,1.408c-1.258,0-1.886-0.425-1.886-1.276
		c0-0.521,0.329-1.088,0.988-1.704c0,0.658-0.073,1.36-0.22,2.109c-0.186-0.218-0.274-1.844-0.274-4.875V87.38
		c0-1.71,0.035-3.4,0.107-5.068c-0.115-0.525-0.061-1.23,0.167-2.109C95.003,81.212,95.076,82.944,95.115,85.395L95.115,85.395z"/>
	<path fill="#00B6F1" d="M108.196,84.67c-0.274-0.855-0.41-1.623-0.41-2.302c0-1.44,0.721-2.166,2.171-2.166
		c1.842,0,2.765,0.725,2.765,2.166c0,0.726-0.498,1.493-1.492,2.302c0.041-0.963,0.196-1.974,0.467-3.03
		c0.354,0.178,0.531,3.377,0.531,9.596v6.75c0,3.262-0.088,4.986-0.267,5.164c-0.181-1.426-0.34-3.957-0.47-7.604
		c0.488,0.855,0.734,1.623,0.734,2.297c0,1.399-0.759,2.1-2.276,2.1c-1.935,0-2.903-0.699-2.903-2.1c0-0.718,0.493-1.484,1.48-2.297
		c-0.098,0.967-0.264,2-0.493,3.096c-0.166-0.217-0.247-3.424-0.247-9.624v-6.654c0-3.338,0.053-5.097,0.165-5.274
		C108.062,78.499,108.146,81.024,108.196,84.67L108.196,84.67L108.196,84.67z M107.998,76.039c-0.394-0.132-0.588-0.215-0.588-0.262
		c0-0.22,0.793-0.332,2.389-0.332c1.945,0,2.923,0.088,2.923,0.262c0,0.135-0.498,0.246-1.492,0.331l0.535-0.397
		c0.309,0.309,0.463,0.707,0.463,1.188v0.725c0,0.617-0.154,1.142-0.463,1.582c-0.254-0.174-0.437-0.501-0.535-0.987
		c0.393,0.131,0.595,0.243,0.595,0.331c0,0.179-0.791,0.263-2.372,0.263c-1.936,0-2.898-0.084-2.898-0.263
		c0-0.088,0.482-0.2,1.445-0.331l-0.514,0.393c-0.291-0.308-0.438-0.708-0.438-1.195v-0.732c0-0.617,0.147-1.149,0.438-1.593
		C107.728,75.202,107.896,75.542,107.998,76.039L107.998,76.039z"/>
	<path fill="#00B6F1" d="M117.291,78.476c-0.295-0.964-0.442-1.778-0.442-2.437c0-1.229,0.471-1.847,1.418-1.847
		c0.86,0,1.569,0.375,2.133,1.122c0.429,0.529,0.645,0.991,0.645,1.384c0,0.702-0.413,1.295-1.234,1.778
		c0-0.351,0.047-0.856,0.146-1.515l0.102-0.263h0.246v0.131v0.528c0,0.44,0,0.968,0,1.581c0,3.254-0.054,6.832-0.162,10.742
		c0.108,0.658,0.035,1.626-0.22,2.899c-0.039-0.833-0.053-2.348-0.053-4.546c0,0.527-0.073,1.319-0.218,2.372l-0.053-0.856
		c0-0.524,0.067-1.029,0.211-1.515c-0.1,0.22-0.276,0.547-0.539,0.987l4.217-6.229c0.222-0.617,0.812-1.48,1.781-2.587
		c-0.266,0.492-0.771,1.345-1.52,2.556c-0.047-0.131-0.064-0.263-0.064-0.397c0-0.744,0.922-1.118,2.767-1.118
		c1.362,0,2.044,0.177,2.044,0.528c0,0.309-0.658,0.636-1.977,0.988l1.188-1.185c-5.269,5.317-7.897,8.174-7.897,8.566
		c0.539-0.308,1.347-0.901,2.426-1.781c-0.262-0.215-0.678-0.482-1.241-0.791l-0.197,0.197c0,0.571,1.228,2.638,3.688,6.195
		c2.498,3.605,4.056,5.518,4.673,5.732c-0.31-0.701-1.058-1.95-2.24-3.754c0.832,0.57,1.252,1.056,1.252,1.45
		c0,0.438-0.485,0.658-1.448,0.658c-0.97,0-1.781-0.173-2.44-0.527c-0.615-0.263-0.921-0.524-0.921-0.791
		c0-0.262,0.195-0.524,0.598-0.79c0.195,0.659,0.296,1.075,0.296,1.252v0.065c-0.34-0.216-1.473-2.128-3.403-5.732
		c-1.932-3.601-2.896-5.602-2.896-5.998h0.062l0.059,0.13l0.357,0.594l1.379,2.571c-0.199-0.439-0.404-1.099-0.604-1.978
		c0.366,0.571,0.566,1.23,0.604,1.978v-0.791v-0.528c0.209,7.425,0.291,11.296,0.248,11.609v0.335
		c-0.084-0.655-0.166-1.823-0.248-3.509c0.328,0.386,0.494,0.753,0.494,1.091c0,0.344-0.207,0.705-0.617,1.092
		c-0.594,0.554-1.388,0.832-2.39,0.832c-0.957,0-1.435-0.32-1.435-0.963c0-0.557,0.475-1.238,1.43-2.052
		c0,0.574-0.066,1.481-0.195,2.722l-0.066,0.645l-0.064,0.144h-0.115v-0.132l-0.082-0.532c-0.059-0.31-0.109-1.041-0.164-2.193
		c0-3.146,0-7.799,0-13.959v-5.586c0-4.252,0.123-6.489,0.377-6.712C117.103,71.867,117.206,74.581,117.291,78.476L117.291,78.476z"
		/>
	<path fill="#00B6F1" d="M155.515,102.662l-0.324,0.082C155.453,102.572,155.586,102.509,155.515,102.662L155.515,102.662z"/>
	<path fill="#00B6F1" d="M151.435,104.26c1.002-0.512,2.614-1.271,3.756-1.516C154.354,103.298,152.122,104.925,151.435,104.26
		L151.435,104.26z"/>
	<path fill="#00B6F1" d="M156.381,103.869l-1.391,0.42C155.622,103.706,155.677,104.138,156.381,103.869L156.381,103.869z"/>
	<polygon fill="#00B6F1" points="155.528,103.362 155.44,103.028 156.258,102.962 	"/>
	<path fill="#00B6F1" d="M122.351,75.09c0.123,0.159,0.195,0.325,0.106,0.519L122.351,75.09L122.351,75.09z"/>
	<path fill="#00B6F1" d="M119.281,73.252c-0.282-0.083-0.484-0.126-0.655-0.157C118.826,73.09,118.989,73.141,119.281,73.252
		L119.281,73.252z"/>
	<path fill="#00B6F1" d="M125.274,75.281l-0.568-0.021C124.89,75.232,125.095,75.235,125.274,75.281L125.274,75.281z"/>
	<path fill="#00B6F1" d="M160.179,81.922c0.377,0.429,0.721,0.833,0.969,1.144C160.17,82.834,160.298,82.345,160.179,81.922
		L160.179,81.922z"/>
	<path fill="#00B6F1" d="M104.679,67.253l-0.154,0.258C104.375,67.381,104.306,67.26,104.679,67.253L104.679,67.253z"/>
	<path fill="#00B6F1" d="M118.937,68.733c-0.002,0.155-0.047,0.266-0.111,0.342l-0.163-0.081L118.937,68.733L118.937,68.733z"/>
	<path fill="#00B6F1" d="M127.603,75.023l0.033-0.025l0.442,0.224C127.824,75.24,127.673,75.174,127.603,75.023L127.603,75.023z"/>
	<path fill="#00B6F1" d="M100.087,66.647c-0.197-0.16-0.387-0.356-0.547-0.612C99.979,66.176,100.174,66.448,100.087,66.647
		L100.087,66.647z"/>
	<polygon fill="#00B6F1" points="118.544,73.088 118.54,73.076 118.626,73.095 	"/>
	<path fill="#00B6F1" d="M123.633,69.516l-0.731-0.22C123.222,69.269,123.479,69.375,123.633,69.516L123.633,69.516z"/>
	<path fill="#00B6F1" d="M160.179,81.922l-0.318-0.368C160.047,81.646,160.131,81.774,160.179,81.922L160.179,81.922z"/>
	<path fill="#00B6F1" d="M158.517,100.306c0.385-0.232,0.575-0.125,0.748-0.003C159.005,100.354,158.754,100.364,158.517,100.306
		L158.517,100.306z"/>
	<path fill="#00B6F1" d="M27.445,78.115l-0.149,0.067L27.445,78.115z"/>
	<path fill="#00B6F1" d="M43.9,74.867l0.253,0.179C44.018,75.135,43.92,75.025,43.9,74.867L43.9,74.867z"/>
	<path fill="#00B6F1" d="M66.541,66.276l0.077-0.099l1.015,0.243l-0.076,0.097L66.541,66.276L66.541,66.276L66.541,66.276z
		 M47.743,68.918c-1.181,0.62-1.075-0.404-1.838-0.396C46.842,67.962,46.803,68.891,47.743,68.918L47.743,68.918L47.743,68.918z
		 M75.45,67.779c-1.239,0.266,0.609,0.746-0.203,1.003l0.648-0.062c-1.046,0.547-0.761-0.554-1.503-0.393l0.496-0.106
		c0.387-0.485-0.768-0.315-0.868-0.693C74.6,67.322,75.944,67.671,75.45,67.779L75.45,67.779L75.45,67.779z M48.949,69.11
		c-0.699,0.468-0.8,0.336-1.313,0.254C47.773,69.154,48.431,69.028,48.949,69.11L48.949,69.11L48.949,69.11z M69.33,68.345
		c0.1,0.377-1.133,0.43-1.397,0.251c0.098,0.496,0.921,0.403,1.58,0.435c0.085,0.038,0.225,0.058,0.435,0.052l-0.435-0.052
		c-0.25-0.109-0.086-0.371-0.091-0.546l0.323-0.157l-0.916-0.103L69.33,68.345L69.33,68.345L69.33,68.345z M80.89,69.354
		l-0.69-0.659l-1.072,0.064L80.89,69.354L80.89,69.354L80.89,69.354z M100.545,69.835c0.188,0.036,0.343,0.051,0.478,0.061
		c0.569,0.219,0.471,0.937,1.492,0.589c-0.24-0.2-0.662,0.021-0.902-0.18c0.076-0.449-0.074-0.372-0.59-0.409
		C100.897,69.849,100.754,69.817,100.545,69.835L100.545,69.835L100.545,69.835z M100.278,70.823
		c-0.405-0.262-2.31,0.207-2.541-0.706C97.06,71.1,99.293,70.967,100.278,70.823L100.278,70.823L100.278,70.823z M63.319,70.206
		c-0.32,0.16,0.463,0.689,1.191,0.507l-0.358,0.733c-0.04-0.472-1.513-0.35-1.68-0.382C62.179,70.417,62.766,70.663,63.319,70.206
		L63.319,70.206L63.319,70.206z M34.713,74.33c-0.117-0.12-0.002-0.341-0.292-0.47l-0.513-0.023
		C33.336,74.285,34.142,74.402,34.713,74.33L34.713,74.33L34.713,74.33z M41.203,73.531c0.185-0.102,0.344-0.202,0.407-0.307
		l0.111,0.129C41.556,73.625,41.373,73.596,41.203,73.531C41,73.64,40.761,73.746,40.515,73.85
		c-0.084,0.502,0.974,0.657,1.278,0.885c-0.497-0.062-0.984-0.455-1.574-0.065c0.107,0.126,0.044,0.235,0.44,0.163l-0.855,0.248
		c-1.115-0.496-0.197-0.858,0.711-1.23c0.014-0.111,0.067-0.231,0.226-0.382C40.881,73.374,41.04,73.468,41.203,73.531
		L41.203,73.531L41.203,73.531z M35.571,74.721c0.209,0.043,0.326,0.193,0.417,0.371c0.375,0.12,0.942,0.074,1.447-0.236
		c-0.162-0.355-0.503-0.046-0.85-0.073c0.23-0.095,0.58-0.406,1.089-0.362c-0.416,0.762-0.017,0.682,0.029,1.255
		c-1.377,0.625-1.449-0.077-1.715-0.583C35.769,75.019,35.612,74.89,35.571,74.721L35.571,74.721L35.571,74.721z M35.063,75.372
		l0.729,0.615l-0.61,0.188L35.063,75.372L35.063,75.372L35.063,75.372z M45.021,74.254c-0.242,0.076-1.316,0.04-1.061-0.38
		L45.021,74.254L45.021,74.254L45.021,74.254z M43.129,72.848l-0.515-0.066l0.639,0.768L43.129,72.848L43.129,72.848L43.129,72.848z
		 M53.274,71.723l1.589,0.192c-0.232,0.881-1.397,0.074-2.118,0.288C52.454,71.802,53.054,72.026,53.274,71.723L53.274,71.723
		L53.274,71.723z M68.073,70.97c0.111,0.376-1.657,1.116-2.112,0.427C66.862,71.256,67.853,71.265,68.073,70.97L68.073,70.97
		L68.073,70.97z M102.507,70.96l-1.316-0.197l1.396,0.107L102.507,70.96L102.507,70.96L102.507,70.96z M114.037,71.392
		c-0.964,1.526,1.871,1.299,2.229,2.112c0.141-0.526,1.059-1.281-1.113-1.456c1.924-0.37,1.082,1.138,2.318-0.099
		c-0.906,0.022-1.955-0.492-2.109-0.551l1.068,0.038C115.915,70.396,114.754,71.772,114.037,71.392L114.037,71.392L114.037,71.392z
		 M136.532,75.038l-0.192-0.502l0.335,0.536L136.532,75.038l0.043,0.114l-2.152-0.617L136.532,75.038L136.532,75.038L136.532,75.038
		z M139.528,75.93l-1.816-1.127l0.587,0.527l-1.243-0.583C137.144,75.292,138.347,76.098,139.528,75.93L139.528,75.93L139.528,75.93
		z M139.586,75.071c-0.392-0.121-0.555-0.211-0.62-0.288c-0.318-0.207-0.54-0.463-0.393-0.709c0.792,0.381,0.22,0.502,0.393,0.709
		C139.16,74.907,139.373,75.014,139.586,75.071L139.586,75.071L139.586,75.071z M153.722,77.971
		c0.086-0.103,0.105-0.262,0.063-0.412c-0.146-0.097-0.261-0.211-0.294-0.346c0.145,0.043,0.248,0.188,0.294,0.346
		c0.373,0.251,1.004,0.374,1.342,0.296c-0.082-0.322-0.735-0.469-0.929-0.726c1.174-0.367,2.63,2.296,2.658,0.249
		c0.33,0.356,1.512,1.327,0.924,1.473C156.753,78.353,154.649,77.861,153.722,77.971c-0.072,0.085-0.191,0.134-0.38,0.091
		C153.418,78.012,153.562,77.986,153.722,77.971L153.722,77.971L153.722,77.971z M164.501,82.267l-0.479-0.345l-0.358,0.116
		L164.501,82.267L164.501,82.267L164.501,82.267z M170.169,91.323l-0.406-0.666l-0.354,1.041L170.169,91.323L170.169,91.323
		L170.169,91.323z M142.026,73.475c-0.666-0.07-2.4-0.279-2.15-0.285C140.103,72.795,141.653,73.167,142.026,73.475L142.026,73.475
		L142.026,73.475z M132.413,71.267l1.561,0.32C133.455,71.61,132.449,71.657,132.413,71.267L132.413,71.267L132.413,71.267z
		 M142.515,72.839l-0.49-0.379C142.554,72.588,142.592,72.726,142.515,72.839l0.402,0.325
		C141.683,73.21,142.345,73.059,142.515,72.839L142.515,72.839L142.515,72.839z M131.354,70.94l-0.557,0.034
		c-0.688,0.245-0.941,1.136-1.714,0.104l1.714-0.104C130.954,70.917,131.136,70.894,131.354,70.94L131.354,70.94L131.354,70.94z
		 M132.812,72.815c-0.502,0.023-0.396,0.563-1.258,0.069c0.217-0.404,0.006-1.484-1.355-1.326c0.908,0.887,0.943,1.27,2.216,1.825
		L132.812,72.815L132.812,72.815L132.812,72.815z M132.679,71.883c0.859,0.508,2.438,1.213,2.215,1.615
		c0.184-0.791-1.082-1.357-1.492-1.416C133.153,72.094,132.985,72.022,132.679,71.883L132.679,71.883L132.679,71.883z M85.829,68.39
		c0.668,0.196,1.588,1.287,2.905,0.73l-0.992-0.293l0.243-0.048l-0.248-0.428C87.998,69.494,86.415,68.441,85.829,68.39
		L85.829,68.39L85.829,68.39z M123.562,70.416c0.439,0.671,1.768,0.699,2.66,0.954c0.299-0.491-0.556-1.218-1.636-1.278
		C123.382,69.489,124.022,70.846,123.562,70.416L123.562,70.416L123.562,70.416z M119.301,69.482l-0.257,0.024l0.887,0.463
		L119.301,69.482L119.301,69.482L119.301,69.482z M97.433,67.872c0.002-0.476-1.151-0.606-1.486-0.95
		c-0.502,0.082,0.162,0.527,0.327,0.819c-0.248,0.04-0.412-0.013-0.747-0.116C95.685,68.625,96.444,67.318,97.433,67.872
		L97.433,67.872L97.433,67.872z M77.733,67.397l0.196,0.094L77.733,67.397c-0.783-0.341-1.085,0.521-1.727-0.298
		C76.775,66.374,77.286,67.106,77.733,67.397L77.733,67.397L77.733,67.397z M88.84,71.406l0.982,0.297l0.085-0.094l-0.995-0.299
		L88.84,71.406L88.84,71.406L88.84,71.406z M98.042,71.649l0.489,0.396l0.415-0.463L98.042,71.649L98.042,71.649L98.042,71.649z
		 M164.329,80.275l-1.053-0.659c0.252,0.077,0.929,0.692,0.768,0.234C164.183,79.966,164.574,80.197,164.329,80.275L164.329,80.275
		L164.329,80.275z M99.104,66.974l0.713,0.082c0.145-0.029,0.293-0.031,0.451,0.054l-0.451-0.054
		C99.444,67.132,99.162,67.424,99.104,66.974L99.104,66.974L99.104,66.974z M59.291,66.887c-1.127,0.464-2.37-0.248-3.379-0.221
		l0.366,0.308l-1.032-0.202l0.048,0.473c-1.691-0.094-3.723,0.576-4.406-0.112l0.267,0.739L49.32,67.44l1.068,0.415
		c-1.973,0.342-5.072,0.113-5.503,0.181l0.216,0.258c-0.308,0.186-0.59,0.033-0.944-0.016l0.317,0.387
		c-3.028,0.29-3.698,1.346-7.124,1.505c-0.896,0.274,0.533,0.039,0.588,0.271c-0.437,0.426-1.664,0.331-1.956,0.195
		c0.396,0.599,1.757,0.135,0.794,0.86C35.96,71.318,37.407,72,36.06,72.124l-0.691-0.72c-0.711,0.306-0.01,0.682-1.193,0.855
		c-1.421-0.068,1.429-1.302-0.763-0.946c-1.094,0.333-1.785,2.451-3.946,2.66c-1.603,1.022,1.324,0.941-1.121,1.56l1.686,0.006
		c-0.31,0.361,0.069,0.682-0.983,0.853c-0.432-0.217-1.186-0.336-1.748-0.159c2.338-0.28-1.414,1.651,0.83,1.611l-0.686,0.272
		c0.094-0.011,0.149,0.053,0.134,0.134l-0.821,0.477c0.595-0.116,1.891-0.612,1.558,0.226c-0.388,0.229-0.726,0.479-1.088,0.709
		c0.526,0.264,0.212,0.638,0.465,0.935c1.129-0.255,2.413-0.448,3.764-0.57c-0.231-0.22-0.832-0.208-0.725-0.548
		c0.933-0.591,0.986,0.211,1.862-0.458l-0.548-0.23c0.121,0.113,0.274,0.116,0.071,0.227c-0.279,0.335-0.517,0.107-0.59-0.119
		c0.212-0.558,1.331-0.557,1.717-0.318c1.328-0.396,0.062-0.902,0.32-1.117c0.887,0.585,2.284-0.57,3.232-0.389l-0.66-0.386
		c0.928-0.86,2.015-0.511,2.67-0.457l-0.321-0.372c1.508-0.203,2.051-1.724,3.441-0.424l-0.203-0.257
		c0.604-0.22,1.516-0.672,2.179-0.312c-0.01-0.179,0.066-0.413,0.313-0.501c0.42,0.531,1.015,0.014,1.935-0.208
		c-0.637-0.073-0.534-0.847-1.213-0.947c1.352-0.947,1.43,0.662,2.638,0.516c0.686-0.462-0.701-0.352-0.91-0.605
		c1.914,0.191,3.689-2.163,5.03-0.763l-0.763,0.556c0.779,0.254,1.183,0.213,1.078,0.081c-0.236,0.072-0.329-0.062-0.428-0.194
		c2.195-0.993,3.629,0.795,5.882,0.329c-0.19-0.271-0.523-0.341-0.554-0.578c1.033-0.364,1.124,1.391,2.78,0.694l-0.353-0.307
		c0.555-0.233,1.001,0.219,0.931,0.319c-0.029-1.288,3.593-0.14,4.708-1.854c0.868,0.657,3.276,1.129,3.993,0.716
		c1.026-0.806-0.956-0.815-0.59-1.545c0.826-0.034,1.278,0.655,2.499,0.379c0.038,0.712-2.377,1.507-0.067,1.858l0.312-0.392
		c-0.238,0.057-0.561,0.21-0.896,0.125c-0.678-0.405,0.384-0.488,0.533-0.685l2.477,0.157c0.196,0.755-1.284,0.613-1.432,0.81
		c1.946-0.215,4.286-1.356,6.113-0.866l-0.174-0.283c2.323,0.635,1.35-1.4,3.202-0.186c0.977-0.195-0.352-0.808,1.125-0.861
		c0.417-0.002,0.171,0.284,0.097,0.38c1.811,0.277,0.803-0.722,2.472-0.012l-0.354-0.808c1.997,0.578,4.059,2.007,5.784,1.705
		c-0.089-0.621-1.156-0.587-1.571-1.067c2.31,1.163,5.597,0.272,7.733,0.953c-0.662,0.503,0.971,1.267-0.42,1.651
		c-0.328-0.818-0.992-0.307-1.724-0.42c1.127,1.775,5.009-0.662,5.312,0.866l0.343-0.605c0.325,0.109,1.137,0.618,0.552,0.785
		l2.385-0.284c-0.804-0.509-2.51-1.673-3.091-1.031c-0.646-0.691,0.991-0.387,0.429-1.173c1.541,1.11,0.998-0.387,2.637-0.082
		c-0.791,0.856,1.572,1.3,1.473,1.735c0.547-0.135,1.714,0.35,2.156,0.681c0.941,0.139,3.162-0.431,4.662-0.013
		c-0.555-0.326-1.439-0.754-1.334-1.32c0.728,0.373,1.547,0.426,1.736-0.225c-2.568-1.406-0.964,1.462-3.311,0.51
		c-0.544-0.796-1.191-1.025-2.419-1.32c0.591-0.4,0.354-0.603,0.618-1.113c1.421,1.693,3.949,0.409,5.881,1.357
		c0.8,0.533,0.094,1.485,1.966,1.807l-1.659,0.36c1.814-0.302,0.381,0.502,1.833,0.794l-0.537-0.562
		c0.904-0.034,1.229,0.095,1.69,0.513l-0.69-0.868c0.492-0.056,1.397-0.078,1.367,0.396c0.146-0.184,0.198-0.335,0.21-0.471
		c0.086,0.141,0.307,0.247,0.876,0.271c-0.323-0.121-0.563-0.092-0.553-0.329c2.146,0.383,0.584-0.826,1.923-0.618
		c-0.193-0.206,0.21-0.398,0.699-0.448c-0.153,1.259,2.486,1.677,3.109,2.462l-0.01-0.02l1.742,0.706
		c-0.352-0.143,0.079-0.441,0.624-0.516l-0.089-0.003c0.595-0.127-0.523-1.448,1.152-0.876l0.858,0.482
		c-0.151-0.064,0.022-0.237,0.118-0.322l0.889,0.457c1.576-0.997,2.59,1.02,4.333,0.674c-0.493,0.029-1.214-0.158-0.848-0.495
		c0.346-0.098,0.813,0.105,1.04,0.33l-0.067-0.153l3.05,1.256c-0.187-0.463-1.955-0.763-1.091-1.119
		c0.56-0.499,1.376,0.243,1.937,0.386c-0.129,0.316-1.217,0.433-0.194,0.787c0.158-0.14,1.218-0.311,0.785-0.626
		c1.028,0.51,2.558,0.993,3.405,1.76c0.334-0.087-0.115-0.311-0.27-0.386l-0.097,0.079c-0.609-0.301,0.06-0.859-1.279-0.756
		c0.083-1.097,1.892,0.043,3.037,0.101l-1.651-1.064c3.319-0.924,7.08,1.532,9.976,2.331c-0.951,0.113-1.586-0.381-1.691,0.473
		c1.714,0.852,1.521,0.603,3.259,1.272l-0.14-0.085c1.054-0.176,2.044,1.031,2.873,0.484c-0.261-0.574-1.431,0.018-1.173-0.9
		l2.214,0.778c-0.522-0.768-2.215-0.788-3.039-1.16c-0.634-0.133,1.214,0.486,0.735,1.002c-2.084-0.637-2.398-1.362-3.232-2.497
		c-0.484-0.804,1.114-0.419,1.512-0.299c1.123,1.333,2.938,2.318,5.143,2.631l1.388-0.276c0.772,1.022-0.11,2.026,1.698,2.613
		l-0.314-0.705c0.465-0.026,0.741,0.034,0.93,0.121c-0.586-0.717-1.279-1.435-1.848-2.106c1.465-0.614,2.842,1.716,4.122,2.68
		c-0.009-0.161-0.491-0.463-0.521-0.799c2.379,0.856,3.835,3.442,4.727,4.766c0.876,0.202-0.751-1.247-0.053-1.506
		c0.548,0.805,1.691,1.317,1.293,1.91c0.564-0.906,1.208,1.919,1-0.182c1.225,1.494,1.33,3.967,0.238,5.632
		c-1,1.719-2.598,2.857-4.076,3.85c0.322,0.094,0.484,0.266,0.499,0.51c0.946-0.804,2.309-1.998,3.261-2.257
		c-0.109,1.052-1.773,1.188-1.72,1.527c0.462-0.157,1.049-0.782,1.413-0.528c-0.352,1.216-1.354,1.208-1.975,1.654l0.144-0.455
		c-2.236,1.109-2.017-0.326-3.786,1.348c-0.362,1,0.283,0.379,0.727,0.938c-0.605,0.162-1.779,1.823-2.691,1.538l1.216-0.883
		c-0.983,0.418-1.802,0.971-2.563,1.111c0.145,0.094,0.277,0.197,0.498,0.137c-0.832,0.226-1.721,0.82-2.315,0.623l0.169,0.777
		c0.273-0.533,1.501-1.349,1.941-1.109c0.222,0.64-1.287,1.072-1.84,1.433c2.615-1.278,3.305-0.285,5.139-2.117l-0.492,0.046
		c0.962-1.346,2.822-1.548,3.879-2.559c-0.194,0.382-0.079,0.652,0.15,0.619c1.756-2.465,5.09-4.889,4.375-9.705
		c0.213-0.489,0.344-0.997,0.403-1.525l-0.569,0.103c-1.062-1.878,0.572-0.782-0.158-2.039c0.287,0.478,0.15,0.438,0.082,0.604
		c-0.818-2.552-1.221-0.809-1.872-1.98c-0.011,0.841,1.352,2.1,0.338,2.1c-0.642-2.352-3.642-3.894-3.13-5.176
		c-3.594-1.683-7.527-4.026-10.475-5.084c-0.479,0.104,0.191,0.258-0.017,0.394c-0.937-1.156-4.065-0.619-3.888-1.305
		c-0.616,0.028-0.985,0.482-1.187,0.628c-0.657-0.516-1.514-0.912-2.446-1.234l0.652,0.36l-0.1,0.075l-0.926-0.503l0.054-0.034
		c-2.335-0.753-5.109-1.148-7.146-2.29c1.166,0.691-0.468,0.789,0.069,1.174c-0.892-1.326-3.542-1.811-5.705-2.023
		c-0.028,0.236-0.222,0.399,0,0.624l-1.173-0.65l0.125,0.307c-2.251-0.127-4.514-1.707-6.059-1.353
		c0.892,0.247,0.869,0.484,0.91,0.871c-1.595-0.226-3.094-0.433-4.924-0.974c0.092,0.08,0.152,0.167,0.143,0.252
		c-0.5,0.044-1.057-0.3-1.543-0.493l-0.131,0.559c-0.924-0.36-2.188-0.191-3.276-0.759c-0.503,0.576-2.701-0.825-4.038-0.681
		c-0.491-0.181,1.035,0.747-0.366,0.593c-0.103-1.248-1.825-0.174-1.831-1.511l-1.27,0.388l-0.225-0.683
		c-1.14,1.17-1.56-0.667-3.148-0.38c0.07,0.148,0.236,0.206,0.148,0.296c-0.496-0.176-1.656-0.33-0.729-0.615
		c-0.835-0.042-3.654-0.517-2.421,0.259c-0.07-0.386,1.076,0.006,1.57,0.173c-0.101,0.566-1.338,0.267-1.684,0.87
		c-0.036-0.065-0.195-0.173-0.309-0.274l-0.199,0.342c-1.526-0.72-3.139-0.335-4.237-1.206c-0.073,0.174-0.354,0.294-0.89,0.234
		l0.008-0.714l-1.666-0.052l0.736,1.069c-1.831,0.13-3.07-1.093-4.568-1.312c-0.42,1.173-2.92-0.534-4.245,0.5l1.166,0.348
		c-2.5-0.274-2.911,0.442-5.238,0.005c1.987-0.368,1.992-0.146,4.9-1.054c-2.909,0.433-5.008-0.763-7.675-0.082
		c0.177,0.284,0.843,0.47,0.191,0.76c-0.517-0.616-2.5,0.012-2.108-0.704c-0.826,0.248-0.967,0.917-1.471,1.019l-2.774-0.859
		l0.086,0.141c-4.67,1.71-8.819-0.943-13.544-0.008l0.109,0.376l-1.214-0.5c0.949,0.32-0.378,0.5-0.431,0.837L58.375,66
		C58.328,66.339,58.556,67.082,59.291,66.887L59.291,66.887z"/>
	<path fill="#00B6F1" d="M46.8,74.063c-0.29,0.099-0.484,0.113-0.651,0.095C46.352,74.108,46.568,74.069,46.8,74.063L46.8,74.063z"
		/>
	<path fill="#00B6F1" d="M103.834,73.447c0.035-0.127,0.144-0.188,0.289-0.222C104.101,73.298,104.028,73.373,103.834,73.447
		L103.834,73.447z"/>
	<polygon fill="#00B6F1" points="106.19,73.898 106.278,73.906 106.353,73.955 	"/>
	<path fill="#00B6F1" d="M158.808,99.405c-0.748-0.271,0.365-0.331,0.707-0.539C159.175,99.072,159.263,99.521,158.808,99.405
		L158.808,99.405z"/>
	<path fill="#00B6F1" d="M162.052,98.522c-0.308-0.015-0.664,0.076-1.044,0.266C161.22,98.625,161.49,98.521,162.052,98.522
		L162.052,98.522z"/>
	<path fill="#00B6F1" d="M159.711,99.748c0.472-0.433,0.894-0.769,1.297-0.96C160.681,99.032,160.524,99.442,159.711,99.748
		L159.711,99.748z"/>
	<path fill="#00B6F1" d="M167.963,92.373c-0.506,0.269-0.924,1.091-0.92,1.104c0.896-1.82-0.83-0.07-1.112-0.155
		C166.703,92.452,167.156,92.748,167.963,92.373L167.963,92.373z"/>
	<path fill="#00B6F1" d="M168.956,89.856c-0.016,0.207-0.023,0.413,0.018,0.587C168.899,90.216,168.91,90.035,168.956,89.856
		L168.956,89.856z"/>
	<path fill="#00B6F1" d="M168.603,89.109c0.021-0.665,0.394-1.008,0.562-1.44c0.579,0.84-0.014,1.598-0.209,2.187
		C169.042,89.341,168.964,88.852,168.603,89.109L168.603,89.109z"/>
	<path fill="#00B6F1" d="M150.192,79.854c0.146,0.088,0.529,0.192,0.477,0.425l-1.159-0.314
		C149.076,79.708,149.948,79.833,150.192,79.854L150.192,79.854z"/>
	<path fill="#00B6F1" d="M146.119,77.656c-0.946-0.254-0.585,0.458-1.038,0.211l0.23-0.775L146.119,77.656L146.119,77.656z"/>
	<polygon fill="#00B6F1" points="147.584,73.789 147.853,73.932 147.532,73.83 	"/>
	<path fill="#00B6F1" d="M141.354,77.46l0.482,1.016C141.083,78.087,141.209,77.384,141.354,77.46L141.354,77.46z"/>
	<polygon fill="#00B6F1" points="137.583,77.384 138.099,77.753 136.379,77.19 	"/>
	<polygon fill="#00B6F1" points="133.222,76.237 133.034,76.401 131.853,75.991 	"/>
	<path fill="#00B6F1" d="M84.245,71.952c-0.183-0.765,1.795-0.42,2.372-0.611C86.21,72.292,85.042,71.001,84.245,71.952
		L84.245,71.952z"/>
	<path fill="#00B6F1" d="M48.458,73.528l1.886-0.026C48.926,73.946,49.941,73.545,48.458,73.528L48.458,73.528z"/>
	<path fill="#00B6F1" d="M84.499,103.901l0.085,0.017C84.501,103.915,84.463,103.911,84.499,103.901L84.499,103.901z"/>
	<path fill="#00B6F1" d="M85.643,104.028c-0.296-0.02-0.766-0.051-1.059-0.11C84.848,103.924,85.561,103.909,85.643,104.028
		L85.643,104.028z"/>
	<path fill="#00B6F1" d="M84.458,103.714l0.367,0.061C84.608,103.789,84.649,103.737,84.458,103.714L84.458,103.714z"/>
	<polygon fill="#00B6F1" points="84.586,103.829 84.563,103.869 84.369,103.815 	"/>
	<path fill="#00B6F1" d="M65.705,102.858c0.036,0.021,0.058,0.043,0.039,0.065L65.705,102.858L65.705,102.858z"/>
	<path fill="#00B6F1" d="M64.864,102.604l-0.175-0.026L64.864,102.604z"/>
	<path fill="#00B6F1" d="M66.48,102.901l-0.15-0.006L66.48,102.901z"/>
	<path fill="#00B6F1" d="M75.971,103.454l0.371,0.104C76.065,103.569,76.046,103.499,75.971,103.454L75.971,103.454z"/>
	<path fill="#00B6F1" d="M60.989,101.687l-0.039,0.03C60.911,101.698,60.892,101.683,60.989,101.687L60.989,101.687z"/>
	<polygon fill="#00B6F1" points="64.704,102.031 64.68,102.073 64.636,102.062 	"/>
	<polygon fill="#00B6F1" points="67.088,102.88 67.096,102.877 67.218,102.907 	"/>
	<path fill="#00B6F1" d="M59.795,101.544l-0.143-0.086C59.766,101.483,59.817,101.521,59.795,101.544L59.795,101.544z"/>
	<polygon fill="#00B6F1" points="64.668,102.577 64.667,102.575 64.689,102.578 	"/>
	<path fill="#00B6F1" d="M65.934,102.164l-0.194-0.032L65.934,102.164z"/>
	<path fill="#00B6F1" d="M75.971,103.454l-0.118-0.034L75.971,103.454z"/>
	<path fill="#00B6F1" d="M83.501,103.907c-0.119-0.008-0.146-0.033-0.167-0.059L83.501,103.907L83.501,103.907z"/>
	<path fill="#00B6F1" d="M40.397,100.462l-0.047-0.007L40.397,100.462z"/>
	<path fill="#00B6F1" d="M44.945,101.044l0.058,0.032L44.945,101.044z"/>
	<path fill="#00B6F1" d="M51.103,100.778l0.022-0.01l0.257,0.059l-0.022,0.01L51.103,100.778L51.103,100.778L51.103,100.778z
		 M46.201,100.485c-0.327,0.029-0.258-0.09-0.45-0.119C46.011,100.337,45.962,100.444,46.201,100.485L46.201,100.485L46.201,100.485
		z M53.383,101.197c-0.327,0.003,0.147,0.106-0.068,0.12l0.17,0.008c-0.281,0.042-0.19-0.088-0.386-0.086l0.131-0.001
		c0.107-0.052-0.195-0.058-0.215-0.107C53.169,101.119,53.513,101.196,53.383,101.197L53.383,101.197L53.383,101.197z M46.5,100.556
		c-0.197,0.029-0.218,0.01-0.345-0.021C46.198,100.517,46.371,100.524,46.5,100.556L46.5,100.556L46.5,100.556z M51.783,101.11
		c0.019,0.05-0.303,0.022-0.368-0.006c0.016,0.062,0.231,0.074,0.402,0.097l0.112,0.018l-0.112-0.018
		c-0.062-0.021-0.015-0.05-0.013-0.07l0.087-0.011l-0.236-0.037L51.783,101.11L51.783,101.11L51.783,101.11z M54.781,101.521
		l-0.172-0.098l-0.281-0.017L54.781,101.521L54.781,101.521L54.781,101.521z M59.92,101.951l0.125,0.015
		c0.149,0.036,0.126,0.124,0.392,0.098l-0.236-0.037c0.019-0.055-0.021-0.047-0.156-0.061L59.92,101.951L59.92,101.951
		L59.92,101.951z M59.853,102.069c-0.107-0.037-0.606-0.01-0.667-0.129C59.009,102.053,59.594,102.074,59.853,102.069
		L59.853,102.069L59.853,102.069z M50.18,101.171c-0.087,0.012,0.104,0.1,0.298,0.098l-0.11,0.08c0-0.06-0.387-0.088-0.43-0.097
		C49.877,101.162,50.024,101.212,50.18,101.171L50.18,101.171L50.18,101.171z M42.602,100.532c-0.021-0.02,0.023-0.039-0.04-0.069
		l-0.127-0.03C42.258,100.449,42.451,100.511,42.602,100.532L42.602,100.532L42.602,100.532z M44.312,100.765l0.121-0.018
		l0.022,0.021C44.398,100.793,44.353,100.78,44.312,100.765l-0.194,0.006c-0.05,0.057,0.216,0.125,0.284,0.166
		c-0.127-0.03-0.231-0.102-0.407-0.082c0.021,0.02-0.001,0.028,0.106,0.039l-0.237-0.012c-0.261-0.111-0.001-0.109,0.253-0.111
		l0.079-0.033L44.312,100.765L44.312,100.765L44.312,100.765z M42.792,100.625l0.082,0.063c0.088,0.035,0.239,0.061,0.389,0.049
		c-0.02-0.051-0.127-0.03-0.214-0.053c0.065,0.002,0.175-0.018,0.303,0.014c-0.155,0.068-0.047,0.078-0.072,0.148
		c-0.399,0.004-0.373-0.086-0.406-0.158C42.822,100.67,42.791,100.646,42.792,100.625L42.792,100.625L42.792,100.625z
		 M42.616,100.672l0.145,0.11l-0.172-0.012L42.616,100.672L42.616,100.672L42.616,100.672z M45.268,101.019
		c-0.067,0-0.346-0.052-0.259-0.091L45.268,101.019L45.268,101.019L45.268,101.019z M44.844,100.769l-0.129-0.029l0.127,0.119
		L44.844,100.769L44.844,100.769L44.844,100.769z M47.52,101.032l0.408,0.076c-0.09,0.101-0.367-0.037-0.562-0.037
		C47.304,101.013,47.453,101.062,47.52,101.032L47.52,101.032L47.52,101.032z M51.404,101.401c0.022,0.05-0.458,0.093-0.562-0.006
		C51.081,101.403,51.341,101.433,51.404,101.401L51.404,101.401L51.404,101.401z M60.438,102.121l-0.346-0.044l0.367,0.033
		L60.438,102.121L60.438,102.121L60.438,102.121z M63.463,102.319c-0.235,0.184,0.507,0.184,0.612,0.289
		c0.03-0.065,0.26-0.15-0.312-0.194c0.5-0.028,0.3,0.153,0.607,0.01c-0.237-0.006-0.519-0.08-0.56-0.089l0.28,0.016
		C63.941,102.213,63.656,102.377,63.463,102.319L63.463,102.319L63.463,102.319z M69.43,102.897l-0.067-0.062l0.106,0.067
		L69.43,102.897l0.015,0.016l-0.582-0.077L69.43,102.897L69.43,102.897L69.43,102.897z M70.245,103.006l-0.515-0.139l0.172,0.065
		l-0.345-0.07C69.597,102.931,69.941,103.032,70.245,103.006L70.245,103.006L70.245,103.006z M70.227,102.897
		c-0.106-0.015-0.152-0.024-0.172-0.034c-0.09-0.025-0.157-0.058-0.128-0.089c0.22,0.045,0.076,0.062,0.128,0.089L70.227,102.897
		L70.227,102.897L70.227,102.897z M74.014,103.128l-0.012-0.053l-0.097-0.038l0.097,0.038c0.11,0.023,0.278,0.027,0.356,0.012
		c-0.043-0.039-0.216-0.045-0.282-0.072c0.263-0.065,0.822,0.229,0.674-0.024c0.107,0.036,0.474,0.128,0.342,0.159
		C74.8,103.114,74.242,103.101,74.014,103.128l-0.09,0.018L74.014,103.128L74.014,103.128L74.014,103.128z M77.039,103.313
		l-0.15-0.018l-0.066,0.031L77.039,103.313L77.039,103.313L77.039,103.313z M79.742,103.407l-0.131,0.062l0.26,0.024L79.742,103.407
		L79.742,103.407L79.742,103.407z M70.794,102.688c-0.173-0.006-0.627-0.026-0.563-0.028
		C70.275,102.608,70.687,102.649,70.794,102.688L70.794,102.688L70.794,102.688z M68.245,102.421l0.412,0.042
		C68.524,102.465,68.265,102.472,68.245,102.421L68.245,102.421L68.245,102.421z M70.893,102.604l-0.14-0.045
		C70.893,102.573,70.909,102.59,70.893,102.604l0.117,0.037C70.696,102.656,70.859,102.634,70.893,102.604L70.893,102.604
		L70.893,102.604z M67.963,102.377l-0.143,0.003c-0.171,0.029-0.215,0.143-0.441,0.01l0.441-0.01L67.963,102.377L67.963,102.377
		L67.963,102.377z M68.393,102.617c-0.13,0.002-0.087,0.071-0.325,0.006c0.045-0.051-0.039-0.188-0.387-0.171
		c0.258,0.113,0.278,0.163,0.625,0.236L68.393,102.617L68.393,102.617L68.393,102.617z M68.331,102.499
		c0.237,0.064,0.667,0.154,0.622,0.206c0.022-0.101-0.322-0.172-0.429-0.181L68.331,102.499L68.331,102.499L68.331,102.499z
		 M56.08,101.506c0.172,0.038,0.406,0.194,0.753,0.149l-0.257-0.057h0.063l-0.062-0.061
		C56.638,101.688,56.231,101.524,56.08,101.506L56.08,101.506L56.08,101.506z M65.933,102.276c0.127,0.088,0.473,0.101,0.71,0.136
		c0.067-0.062-0.169-0.155-0.451-0.17C65.868,102.159,66.061,102.334,65.933,102.276L65.933,102.276L65.933,102.276z M64.81,102.128
		l-0.066,0.001l0.238,0.065L64.81,102.128L64.81,102.128L64.81,102.128z M59.105,101.653c0.001-0.06-0.299-0.094-0.386-0.143
		c-0.131,0.002,0.042,0.068,0.084,0.108l-0.194-0.028C58.649,101.722,58.849,101.569,59.105,101.653L59.105,101.653L59.105,101.653z
		 M53.982,101.205l0.049,0.017L53.982,101.205c-0.199-0.062-0.29,0.038-0.445-0.078C53.747,101.056,53.869,101.158,53.982,101.205
		L53.982,101.205L53.982,101.205z M56.848,101.942l0.257,0.057l0.023-0.01l-0.26-0.057L56.848,101.942L56.848,101.942
		L56.848,101.942z M59.267,102.14l0.129,0.058l0.108-0.052L59.267,102.14L59.267,102.14L59.267,102.14z M76.761,103.092
		l-0.303-0.032c0.064-0.002,0.279,0.043,0.193-0.004C76.695,103.063,76.805,103.071,76.761,103.092L76.761,103.092L76.761,103.092z
		 M59.54,101.569l0.186,0.021l0.117,0.015l-0.117-0.015C59.629,101.595,59.556,101.627,59.54,101.569L59.54,101.569L59.54,101.569z
		 M49.222,100.642c-0.302,0.021-0.6-0.107-0.859-0.138l0.084,0.05l-0.258-0.059l-0.002,0.059c-0.429-0.066-0.971-0.057-1.12-0.166
		l0.042,0.1l-0.451-0.119l0.256,0.089c-0.516-0.029-1.291-0.179-1.4-0.19l0.043,0.041l-0.237-0.041l0.062,0.061
		c-0.772-0.094-0.997,0.007-1.855-0.141c-0.237-0.013,0.128,0.03,0.129,0.061c-0.133,0.029-0.432-0.043-0.494-0.073
		c0.06,0.091,0.426,0.103,0.143,0.14c-0.193-0.061,0.125,0.092-0.218,0.039l-0.125-0.121c-0.194-0.002-0.048,0.08-0.351,0.035
		c-0.342-0.082,0.438-0.072-0.119-0.148c-0.28-0.024-0.616,0.181-1.153,0.062c-0.474,0,0.228,0.192-0.417,0.09l0.407,0.117
		c-0.11,0.019-0.049,0.078-0.327,0.023c-0.084-0.051-0.252-0.124-0.403-0.146c0.598,0.149-0.547,0.057,0.006,0.229l-0.21-0.028
		l0.016,0.022l-0.281-0.024c0.17,0.044,0.58,0.103,0.379,0.156l-0.408-0.027c0.102,0.071-0.05,0.078-0.033,0.128l1.183,0.254
		c-0.042-0.041-0.212-0.084-0.144-0.113c0.323,0.008,0.253,0.095,0.559,0.078l-0.128-0.061c0.022,0.021,0.063,0.03-0.002,0.029
		c-0.108,0.019-0.15-0.021-0.148-0.051c0.112-0.049,0.411,0.024,0.496,0.076c0.389,0.033,0.092-0.099,0.179-0.107
		c0.19,0.121,0.648,0.07,0.884,0.141l-0.148-0.08c0.304-0.048,0.562,0.045,0.732,0.085l-0.062-0.06
		c0.411,0.053,0.632-0.104,0.926,0.115l-0.04-0.039c0.17,0,0.431-0.014,0.586,0.06c0.006-0.021,0.038-0.047,0.106-0.046
		c0.084,0.081,0.265,0.044,0.515,0.057c-0.163-0.035-0.102-0.125-0.273-0.164c0.393-0.059,0.342,0.141,0.664,0.17
		c0.199-0.029-0.168-0.068-0.211-0.108c0.493,0.1,1.043-0.118,1.339,0.101l-0.22,0.039c0.194,0.061,0.301,0.069,0.279,0.051
		c-0.064,0-0.084-0.021-0.105-0.041c0.606-0.039,0.922,0.228,1.529,0.246c-0.042-0.039-0.126-0.06-0.127-0.089
		c0.281-0.011,0.253,0.207,0.709,0.177l-0.084-0.049c0.152-0.012,0.257,0.059,0.235,0.067c0.026-0.159,0.95,0.095,1.281-0.086
		c0.212,0.108,0.835,0.231,1.033,0.2c0.285-0.07-0.235-0.127-0.125-0.206c0.217,0.018,0.322,0.116,0.647,0.114
		c-0.002,0.088-0.652,0.123-0.051,0.228l0.089-0.039l-0.237-0.009c-0.171-0.067,0.109-0.051,0.152-0.07l0.648,0.084
		c0.04,0.1-0.348,0.042-0.39,0.062c0.517,0.025,1.148-0.061,1.621,0.045l-0.042-0.039c0.603,0.133,0.371-0.143,0.843,0.051
		c0.259-0.002-0.083-0.107,0.304-0.082c0.109,0.009,0.042,0.038,0.022,0.049c0.473,0.074,0.217-0.072,0.649,0.053l-0.086-0.107
		c0.518,0.113,1.052,0.334,1.508,0.329c-0.021-0.08-0.301-0.097-0.407-0.164c0.601,0.19,1.468,0.141,2.029,0.261
		c-0.175,0.053,0.256,0.175-0.112,0.2c-0.086-0.108-0.261-0.056-0.455-0.083c0.296,0.244,1.323,0.001,1.403,0.197l0.089-0.069
		c0.086,0.019,0.302,0.095,0.147,0.106h0.629c-0.214-0.076-0.667-0.248-0.819-0.177c-0.171-0.097,0.261-0.032,0.111-0.141
		c0.408,0.163,0.262-0.033,0.693,0.03c-0.206,0.096,0.418,0.186,0.395,0.238c0.144-0.011,0.454,0.066,0.573,0.115
		c0.25,0.03,0.832-0.014,1.23,0.057c-0.149-0.047-0.386-0.111-0.363-0.183c0.195,0.058,0.411,0.072,0.455-0.008
		c-0.687-0.207-0.24,0.173-0.866,0.024c-0.149-0.106-0.321-0.145-0.645-0.199c0.153-0.041,0.089-0.07,0.156-0.131
		c0.383,0.231,1.037,0.104,1.552,0.242c0.215,0.076,0.04,0.188,0.537,0.25l-0.434,0.026c0.476-0.019,0.106,0.067,0.493,0.12
		l-0.148-0.076c0.238,0.005,0.325,0.023,0.453,0.081l-0.193-0.116c0.129-0.002,0.367,0.004,0.366,0.063l0.049-0.058
		c0.025,0.019,0.084,0.033,0.235,0.043c-0.087-0.02-0.15-0.019-0.151-0.048c0.571,0.068,0.142-0.099,0.497-0.061
		c-0.054-0.027,0.049-0.05,0.176-0.052c-0.021,0.158,0.682,0.232,0.861,0.334l-0.002-0.002l0.474,0.101
		c-0.096-0.021,0.012-0.056,0.154-0.062h-0.024c0.154-0.014-0.168-0.187,0.285-0.104l0.237,0.063c-0.042-0.009,0-0.028,0.023-0.039
		l0.245,0.062c0.389-0.118,0.708,0.138,1.158,0.101c-0.129,0.002-0.324-0.023-0.236-0.065c0.087-0.011,0.216,0.017,0.282,0.045
		l-0.022-0.021l0.841,0.162c-0.064-0.059-0.538-0.099-0.322-0.143c0.131-0.062,0.368,0.031,0.521,0.05
		c-0.023,0.04-0.306,0.056-0.024,0.099c0.037-0.018,0.309-0.039,0.185-0.078c0.287,0.063,0.706,0.121,0.961,0.215
		c0.083-0.012-0.043-0.039-0.086-0.049l-0.022,0.011c-0.172-0.036-0.018-0.108-0.366-0.091c-0.019-0.139,0.498,0,0.8,0.003
		l-0.474-0.13c0.825-0.125,1.901,0.16,2.703,0.222c-0.239,0.024-0.432-0.03-0.413,0.078c0.495,0.089,0.431,0.061,0.926,0.118
		l-0.042-0.01c0.261-0.035,0.604,0.097,0.78,0.014c-0.108-0.066-0.371,0.027-0.367-0.092l0.626,0.057
		c-0.191-0.085-0.626-0.057-0.864-0.09c-0.172-0.008,0.345,0.042,0.257,0.113c-0.584-0.047-0.712-0.134-0.991-0.267
		c-0.17-0.096,0.261-0.063,0.37-0.058c0.364,0.149,0.903,0.246,1.488,0.234l0.326-0.066c0.28,0.103,0.146,0.255,0.667,0.271
		l-0.15-0.076c0.115-0.018,0.19-0.021,0.246-0.016l-0.653-0.203c0.305-0.115,0.843,0.13,1.274,0.188
		c-0.021-0.019-0.171-0.034-0.216-0.072c0.651,0.014,1.316,0.229,1.816,0.284c0.216-0.046-0.414-0.069-0.303-0.151
		c0.26,0.053,0.562-0.004,0.627,0.084c-0.107-0.126,0.605,0.035,0.11-0.111c0.95,0.018,1.987,0.199,2.939,0.336
		c-0.044-0.039-0.042-0.069,0-0.09c-0.324-0.021-0.798-0.09-0.97-0.185c0.215-0.046,0.497,0.116,0.56,0.085
		c-0.106-0.037-0.321-0.052-0.322-0.111c0.282-0.047,0.431,0.06,0.626,0.084l-0.108,0.022c0.604,0.123,0.322,0.229,0.97,0.241
		c0.24-0.055,0.002-0.059,0.003-0.147c0.151,0.047,0.649-0.017,0.8,0.089l-0.392-0.02c0.273,0.044,0.531,0.062,0.72,0.105
		c-0.018-0.021-0.033-0.041-0.09-0.053c0.214,0.044,0.495,0.057,0.603,0.122l0.068-0.091c-0.134,0.033-0.521,0.014-0.584-0.044
		c0.043-0.08,0.433-0.003,0.604,0.004c-0.756-0.079-0.755-0.229-1.402-0.212l0.107,0.037c-0.406,0.043-0.809-0.104-1.158-0.127
		c0.099-0.012,0.124-0.045,0.078-0.063c-0.78,0.021-1.537-0.091-2.422-0.108l-0.259-0.112l-0.022,0.069
		c-0.433,0-0.085-0.106-0.365-0.121c0.106,0.009,0.085,0.019,0.106,0.039c-0.496-0.117-0.284,0.045-0.562,0.002
		c0.129,0.088,0.539,0.066,0.406,0.16c-0.494-0.117-1.273-0.13-1.334-0.307c-0.933,0.002-2.076-0.189-2.854-0.264
		c-0.109,0.022,0.064,0.029,0.023,0.051c-0.302-0.122-1.042-0.008-1.039-0.098c-0.151,0.015-0.219,0.076-0.261,0.096
		c-0.194-0.057-0.43-0.096-0.681-0.126l0.183,0.038l-0.021,0.01l-0.259-0.055l0.011-0.004c-0.625-0.071-1.349-0.104-1.911-0.244
		c0.324,0.085-0.09,0.103,0.062,0.148c-0.278-0.162-0.969-0.219-1.531-0.246c-0.001,0.028-0.045,0.051,0.019,0.077l-0.321-0.082
		l0.041,0.038c-0.584-0.018-1.207-0.225-1.596-0.188c0.235,0.035,0.235,0.065,0.255,0.113c-0.417-0.035-0.811-0.066-1.295-0.146
		l0.042,0.033c-0.129,0.002-0.28-0.045-0.409-0.072l-0.024,0.068c-0.246-0.051-0.571-0.041-0.863-0.121
		c-0.122,0.07-0.712-0.127-1.057-0.121c-0.13-0.027,0.278,0.104-0.088,0.07c-0.041-0.158-0.477-0.041-0.492-0.211l-0.326,0.036
		l-0.064-0.089c-0.285,0.135-0.41-0.104-0.819-0.086c0.02,0.021,0.063,0.028,0.041,0.039c-0.13-0.027-0.432-0.062-0.194-0.086
		c-0.216-0.018-0.949-0.114-0.625,0c-0.021-0.05,0.279,0.016,0.409,0.043c-0.023,0.068-0.346,0.016-0.433,0.086l-0.082-0.038
		l-0.05,0.04c-0.4-0.109-0.818-0.088-1.105-0.213c-0.019,0.021-0.092,0.032-0.231,0.016l0.001-0.09l-0.432-0.033l0.192,0.146
		c-0.477-0.013-0.798-0.187-1.185-0.24c-0.112,0.14-0.755-0.12-1.103-0.017l0.301,0.064c-0.648-0.08-0.759,0.002-1.361-0.102
		c0.519-0.006,0.519,0.023,1.278-0.035c-0.757,0-1.292-0.193-1.987-0.165c0.042,0.039,0.213,0.076,0.042,0.099
		c-0.128-0.088-0.648-0.052-0.539-0.133c-0.216,0.012-0.261,0.092-0.393,0.094l-0.708-0.172l0.021,0.02
		c-1.237,0.103-2.263-0.338-3.493-0.359l0.019,0.051l-0.299-0.099c0.235,0.067-0.109,0.05-0.132,0.089l-0.773-0.175
		C48.991,100.542,49.028,100.642,49.222,100.642L49.222,100.642z"/>
	<path fill="#00B6F1" d="M45.741,101.069l-0.174-0.016L45.741,101.069z"/>
	<path fill="#00B6F1" d="M60.797,102.453l0.075-0.024C60.867,102.438,60.848,102.446,60.797,102.453L60.797,102.453z"/>
	<polygon fill="#00B6F1" points="61.422,102.542 61.445,102.545 61.464,102.552 	"/>
	<path fill="#00B6F1" d="M83.306,103.974c0.129,0.084-0.131,0.002-0.238-0.005C83.175,103.976,83.222,103.925,83.306,103.974
		L83.306,103.974z"/>
	<path fill="#00B6F1" d="M82.465,103.785c0.062,0.026,0.152,0.049,0.263,0.063C82.658,103.847,82.583,103.833,82.465,103.785
		L82.465,103.785z"/>
	<path fill="#00B6F1" d="M83.156,103.867c-0.167,0.004-0.311-0.003-0.428-0.019C82.838,103.853,82.933,103.83,83.156,103.867
		L83.156,103.867z"/>
	<path fill="#00B6F1" d="M80.172,103.646c0.13,0.057,0.389,0.049,0.389,0.049c-0.563,0.006,0.106,0.098,0.151,0.137
		C80.365,103.788,80.366,103.729,80.172,103.646L80.172,103.646z"/>
	<path fill="#00B6F1" d="M79.433,103.567l0.156,0.002L79.433,103.567z"/>
	<path fill="#00B6F1" d="M79.22,103.599c-0.193-0.023-0.258-0.082-0.343-0.131c0.237-0.021,0.381,0.074,0.556,0.102
		C79.294,103.56,79.16,103.544,79.22,103.599L79.22,103.599z"/>
	<path fill="#00B6F1" d="M73.226,103.419c0.043,0.009,0.151,0.018,0.152,0.047l-0.325-0.021
		C72.924,103.416,73.161,103.421,73.226,103.419L73.226,103.419z"/>
	<path fill="#00B6F1" d="M72.04,103.187c-0.259-0.023-0.13,0.062-0.26,0.035l0.023-0.099L72.04,103.187L72.04,103.187z"/>
	<polygon fill="#00B6F1" points="72.222,102.687 72.297,102.703 72.211,102.692 	"/>
	<path fill="#00B6F1" d="M70.784,103.192l0.17,0.125C70.738,103.272,70.743,103.185,70.784,103.192L70.784,103.192z"/>
	<polygon fill="#00B6F1" points="69.788,103.194 69.938,103.24 69.463,103.171 	"/>
	<polygon fill="#00B6F1" points="68.601,103.049 68.556,103.069 68.232,103.017 	"/>
	<path fill="#00B6F1" d="M55.636,101.918c-0.042-0.101,0.475-0.017,0.628-0.026C56.15,102,55.853,101.815,55.636,101.918
		L55.636,101.918z"/>
	<path fill="#00B6F1" d="M46.197,101.069l0.494,0.07C46.303,101.14,46.584,101.131,46.197,101.069L46.197,101.069z"/>
	<path fill="#00B6F1" d="M41.538,111.176c-0.494-0.521-0.74-0.95-0.74-1.291c0-0.519,0.531-0.78,1.598-0.78
		c1.041,0,2.165,0.188,3.373,0.565c1.208,0.378,1.813,0.726,1.813,1.037c0,0.288-0.652,0.444-1.956,0.469
		c0.208-0.077,0.389-0.118,0.547-0.118c0.312,0,0.469,0.146,0.469,0.431c0,0.524-0.196,0.799-0.586,0.823
		c-0.208-0.076-0.354-0.207-0.43-0.392l0.47,0.076c-2.165-0.284-3.521-0.431-4.069-0.431c-0.052,0-0.118,0.016-0.195,0.039
		c0,0.056,0.402,0.158,1.212,0.314c-0.072-0.208-0.133-0.367-0.18-0.471c-0.022-0.076-0.07-0.131-0.142-0.156
		c-0.048,0-0.096,0.04-0.143,0.118c-0.119,0.339-0.179,1.147-0.179,2.424c0,1.489,0.071,2.519,0.213,3.091
		c0,0.078,0.035,0.169,0.108,0.272c0.142-0.312,0.25-0.873,0.322-1.683c-0.312,0.184-0.469,0.338-0.469,0.471
		c0,0.158,0.261,0.234,0.783,0.234c0.468,0,1.134-0.076,1.994-0.234c0.86-0.156,1.291-0.287,1.291-0.393
		c0-0.104-0.376-0.128-1.132-0.078c0.129-0.104,0.247-0.156,0.352-0.156c0.208,0,0.313,0.184,0.313,0.548
		c0,0.47-0.105,0.706-0.313,0.706c-0.158-0.053-0.275-0.17-0.352-0.354c0.105,0.027,0.247,0.052,0.43,0.079
		c0.025,0-0.013-0.011-0.118-0.038l-0.351-0.041l-0.9-0.155c-1.202-0.156-2.023-0.234-2.466-0.234c-0.131,0-0.195,0.013-0.195,0.038
		c0,0.055,0.378,0.172,1.133,0.353c-0.025-0.131-0.084-0.324-0.18-0.588c-0.022-0.05-0.07-0.102-0.142-0.156
		c-0.048,0.027-0.084,0.08-0.108,0.156c-0.142,0.395-0.213,1.332-0.213,2.817c0,1.616,0.06,2.726,0.179,3.323
		c0.024,0.08,0.069,0.172,0.143,0.274c0.142-0.364,0.25-0.991,0.322-1.877c-0.312,0.235-0.469,0.416-0.469,0.548
		c0,0.182,0.261,0.273,0.783,0.273c0.521,0,1.224-0.094,2.111-0.273c0.887-0.184,1.331-0.326,1.331-0.43
		c0-0.105-0.391-0.145-1.174-0.118c0.131-0.076,0.26-0.117,0.391-0.117c0.312,0,0.471,0.235,0.471,0.705
		c0,0.338-0.118,0.521-0.354,0.548c-0.208-0.078-0.377-0.197-0.509-0.354c0.495,0.025,0.744,0.093,0.744,0.193
		c0,0.211-0.783,0.444-2.345,0.707c-1.457,0.26-2.615,0.389-3.475,0.389c-0.659,0-0.986-0.075-0.986-0.233
		c0-0.235,0.657-0.586,1.973-1.056c-0.061,0.303-0.185,0.744-0.369,1.324c-0.026,0.109-0.085,0.263-0.183,0.453l-0.072,0.039
		c-0.073,0-0.139-0.127-0.199-0.388c-0.062-0.258-0.116-0.661-0.165-1.205c-0.082-1.299-0.123-3.155-0.123-5.571
		c0-2.726,0.063-5.021,0.19-6.893c0-0.439,0.088-1.104,0.268-1.984c0.026-0.078,0.05-0.117,0.077-0.117h0.039
		c0.025,0.027,0.05,0.091,0.077,0.191c0.05,0.155,0.1,0.414,0.152,0.772C41.334,108.392,41.436,109.578,41.538,111.176
		L41.538,111.176z"/>
	<path fill="#00B6F1" d="M62.256,114.694c-0.131-0.363-0.197-0.662-0.197-0.897c0-0.34,0.157-0.509,0.471-0.509
		c0.364,0,0.715,0.156,1.055,0.468c0.312,0.263,0.47,0.472,0.47,0.627c0,0.183-0.197,0.287-0.585,0.312l0.173-0.075l0.123,0.155
		c0,0.312-0.068,0.51-0.207,0.586l-0.083-0.232l-0.125,0.156l0.156-0.156l-0.273,0.076c0.834-0.495,1.618-0.809,2.348-0.938
		c-0.053,0.08-0.234,0.196-0.546,0.354c-0.08-0.104-0.118-0.184-0.118-0.235c0-0.104,0.062-0.155,0.191-0.155
		c0.386,0,0.874,0.168,1.463,0.508c0.513,0.312,0.772,0.549,0.772,0.705c0,0.131-0.137,0.192-0.411,0.192l-0.335-0.038
		c0.025-0.287,0.088-0.587,0.188-0.9c0.123,0.104,0.187,0.938,0.187,2.505v2.618c0,2.634-0.063,4-0.187,4.104
		c-0.077-0.469-0.139-1.354-0.188-2.655c0.085,0.303,0.129,0.567,0.129,0.793c0,0.502-0.307,0.752-0.916,0.752
		c-0.789,0-1.182-0.25-1.182-0.752c0-0.276,0.212-0.539,0.637-0.793l-0.267,0.979v-0.194v-2.309c0-3.416,0.041-5.347,0.123-5.788
		c0.041-0.182,0.104-0.352,0.186-0.51c0.025,0.472,0.012,1.291-0.042,2.464c0.068-0.235,0.104-0.458,0.104-0.665
		c0-0.549-0.254-0.821-0.761-0.821c-0.292,0-0.437,0.117-0.437,0.354c0,0.158,0.105,0.328,0.315,0.509
		c0.024-0.077,0.038-0.144,0.038-0.197c0-0.104-0.079-0.155-0.235-0.155c-0.312,0-0.586,0.078-0.82,0.234
		c-0.236,0.156-0.353,0.284-0.353,0.389c0,0.131,0.156,0.25,0.471,0.354c0.025-0.235-0.014-0.548-0.118-0.938l0.098,6.418
		c0.131,0.318,0.198,0.599,0.198,0.838c0,0.558-0.344,0.836-1.03,0.836c-0.712,0-1.067-0.258-1.067-0.771
		c0-0.312,0.194-0.653,0.587-1.024c0,0.395-0.052,0.812-0.152,1.254c-0.127-0.131-0.189-1.098-0.189-2.898v-3.764
		c0-1.018,0.025-2.023,0.076-3.017c-0.078-0.312-0.039-0.729,0.114-1.255C62.179,112.19,62.229,113.228,62.256,114.694
		L62.256,114.694z"/>
	<path fill="#00B6F1" d="M86.749,114.774c0.164-0.024,0.247-0.077,0.247-0.156c0-0.104-0.205-0.352-0.611-0.744
		c-0.459-0.389-0.801-0.586-1.03-0.586v0.079c-0.027,0.077,0.091,0.246,0.351,0.507c0.053-0.077,0.08-0.156,0.08-0.234l-0.08-0.078
		c-0.208,0-0.541,0.196-0.996,0.59c-0.457,0.391-0.699,0.637-0.723,0.74l0.117,0.039l0.469-0.156c0-0.076-0.065-0.182-0.195-0.312
		c-0.229,0.235-0.343,1.122-0.343,2.657c0,0.395,0.063,0.654,0.193,0.783c0.131-0.209,0.246-0.56,0.344-1.059
		c-0.358,0.133-0.538,0.237-0.538,0.312c0,0.211,0.588,0.314,1.768,0.314c1.453,0,2.181-0.104,2.181-0.314
		c0-0.102-0.413-0.208-1.234-0.312c0.031,0.133,0.158,0.276,0.379,0.434c0.157-0.209,0.237-0.481,0.237-0.821v-0.979
		c0-0.808-0.127-1.34-0.38-1.604C86.858,114.032,86.779,114.331,86.749,114.774L86.749,114.774L86.749,114.774z M86.749,119.037
		c-0.147-0.076-0.22-0.142-0.22-0.196c0-0.104,0.391-0.156,1.174-0.156c1.009,0,1.514,0.053,1.514,0.156
		c0,0.079-0.232,0.145-0.692,0.196l0.266-0.235c0.2,0.184,0.303,0.512,0.303,0.979c0,0.549-0.078,0.836-0.228,0.86
		c-0.151-0.076-0.266-0.207-0.341-0.392l0.493-0.156l0.076,0.041c-0.027,0.165-0.683,0.688-1.967,1.568
		c-1.286,0.878-2.085,1.329-2.395,1.356c0.052-0.207,0.378-0.6,0.978-1.166c0.129,0.207,0.194,0.364,0.194,0.47
		c0,0.131-0.092,0.192-0.272,0.192c-0.549,0-1.396-0.35-2.543-1.057c-1.096-0.676-1.643-1.119-1.643-1.328
		c0-0.104,0.091-0.158,0.273-0.158c0.26,0,0.651,0.08,1.174,0.236c-0.055,0.184-0.194,0.457-0.415,0.82
		c-0.278-0.312-0.416-1.342-0.416-3.09v-2.502c0-1.484,0.123-2.541,0.374-3.168c0.192,0.443,0.344,1.265,0.456,2.463
		c-0.391-0.102-0.585-0.27-0.585-0.504c0-0.258,0.496-0.709,1.486-1.354c1.069-0.722,1.967-1.084,2.697-1.084
		c0.156,0,0.235,0.053,0.235,0.153c0,0.203-0.339,0.572-1.018,1.104c-0.13-0.181-0.194-0.336-0.194-0.468
		c0-0.077,0.063-0.117,0.194-0.117c0.444,0,1.28,0.391,2.506,1.174c1.173,0.756,1.761,1.236,1.761,1.444l-0.119,0.079
		c-0.234-0.023-0.679-0.166-1.33-0.43c0.054-0.104,0.176-0.223,0.368-0.354c0.38,0.079,0.571,0.966,0.571,2.661
		c0,0.964-0.124,1.682-0.369,2.149c-0.217-0.285-0.408-0.78-0.57-1.485c0.46,0.157,0.692,0.276,0.692,0.353
		c0,0.105-0.22,0.155-0.66,0.155c-0.493,0-1.54-0.09-3.143-0.272c-1.709-0.155-2.601-0.273-2.677-0.354
		c0.365,0,0.977,0.041,1.836,0.118c-0.111-0.156-0.304-0.312-0.578-0.468c-0.22,0.207-0.33,0.574-0.33,1.096
		c0,1.852,0.207,2.828,0.619,2.932c0.166-0.181,0.262-0.533,0.289-1.056c-0.111,0.055-0.168,0.119-0.168,0.196
		c0,0.129,0.191,0.363,0.577,0.701c0.411,0.395,0.758,0.602,1.039,0.627l0.039-0.157c0-0.075-0.118-0.244-0.351-0.507
		c-0.054,0.104-0.079,0.184-0.079,0.233c0,0.024,0.024,0.054,0.076,0.077c0.282-0.104,0.628-0.332,1.041-0.684
		c0.414-0.351,0.62-0.594,0.62-0.726v-0.038l-0.617,0.274l0.185,0.119c0.041-0.054,0.062-0.105,0.062-0.158
		c0-0.287-0.104-0.886-0.31-1.8L86.749,119.037L86.749,119.037z"/>
	<path fill="#00B6F1" d="M104.696,114.5c-0.157-0.362-0.234-0.665-0.234-0.899c0-0.34,0.15-0.51,0.457-0.51
		c0.359,0,0.719,0.159,1.076,0.471c0.279,0.264,0.419,0.457,0.419,0.586c0,0.211-0.169,0.328-0.504,0.354l0.173-0.117l0.084,0.194
		c0,0.313-0.082,0.512-0.246,0.588l-0.05-0.235l-0.196,0.156l0.273-0.156l-0.273,0.118c0.771-0.284,1.71-0.6,2.815-0.938
		c-0.157,0.053-0.431,0.156-0.82,0.312l0.312-0.233c0.105,0.028,0.158,0.17,0.158,0.432c0,0.471-0.094,0.73-0.272,0.781
		l-0.197-0.234l0.312-0.156h-0.035c-0.184,0-0.688,0.164-1.51,0.49c-0.819,0.326-1.23,0.527-1.23,0.604l0.236,0.039l0.547-0.039
		l-0.118-0.588l-0.079-0.156v-0.037l-0.039,0.037l-0.04,0.156c-0.026,0.104-0.038,0.234-0.038,0.391c0,0.701,0.02,1.769,0.062,3.195
		c0.039,1.428,0.062,2.49,0.062,3.191c0,0.443,0.075,0.779,0.229,1.014c0-0.488-0.014-1.248-0.039-2.273
		c0.119,0.262,0.179,0.507,0.179,0.742c0,0.521-0.354,0.781-1.067,0.781c-0.687,0-1.027-0.207-1.027-0.625
		c0-0.285,0.207-0.586,0.625-0.898c-0.028,0.392-0.098,0.797-0.209,1.212c-0.115-0.128-0.17-1.075-0.17-2.841v-3.737
		c0-0.985,0.014-1.972,0.043-2.959c-0.055-0.283-0.014-0.7,0.127-1.244C104.569,112.053,104.64,113.065,104.696,114.5L104.696,114.5
		z"/>
	<path fill="#00B6F1" d="M126.295,114.228c-0.362-0.053-0.541-0.119-0.541-0.196c0-0.13,0.584-0.261,1.752-0.392
		c1.017-0.104,1.828-0.156,2.438-0.156c0.658,0,0.99,0.052,0.99,0.156c0,0.131-0.494,0.327-1.479,0.588
		c0.123-0.34,0.231-0.586,0.323-0.742c0.092-0.155,0.17-0.234,0.231-0.234c0.091,0.027,0.152,0.079,0.185,0.158
		c0.054,0.132,0.098,0.341,0.125,0.627c0,0.632,0,1.564,0,2.797c0,2.1-0.09,3.634-0.264,4.604c-0.027,0.16-0.09,0.33-0.188,0.514
		c-0.177-0.453-0.312-1.281-0.413-2.482c0.396,0.264,0.597,0.498,0.597,0.706c0,0.443-0.725,0.665-2.171,0.665
		c-1.418,0-2.127-0.17-2.127-0.509c0-0.157,0.314-0.327,0.941-0.511c0.176,0.184,0.265,0.326,0.265,0.43
		c0,0.055-0.065,0.081-0.194,0.081c-0.576,0-1.578-0.381-3.011-1.136c-1.382-0.73-2.071-1.201-2.071-1.408
		c0-0.105,0.104-0.157,0.312-0.157c0.285,0,0.74,0.065,1.367,0.197c-0.062,0.208-0.17,0.509-0.325,0.899
		c-0.073,0.209-0.136,0.312-0.187,0.312c-0.078-0.049-0.129-0.141-0.152-0.271c-0.053-0.207-0.102-0.506-0.153-0.896
		c-0.079-0.984-0.12-2.372-0.12-4.164c0-4.54,0.155-6.85,0.471-6.93c0.182,0.642,0.338,1.783,0.469,3.424
		c-0.383-0.208-0.57-0.471-0.57-0.787c0-0.339,0.45-0.824,1.354-1.454c1.028-0.704,2.008-1.06,2.938-1.06
		c0.31,0,0.464,0.08,0.464,0.238c0,0.264-0.379,0.684-1.134,1.264c-0.132-0.209-0.194-0.365-0.194-0.471
		c0-0.076,0.049-0.117,0.15-0.117c0.381,0,1.236,0.442,2.568,1.33c1.328,0.887,1.996,1.436,1.996,1.646
		c0,0.024-0.025,0.038-0.07,0.038c-0.17,0-0.641-0.21-1.409-0.627c0.079-0.024,0.157-0.038,0.235-0.038
		c0.371,0,0.555,0.286,0.555,0.858c0,0.705-0.131,1.069-0.395,1.096c-0.185-0.129-0.316-0.344-0.396-0.651
		c0.239,0.052,0.36,0.112,0.36,0.188c0,0.101-0.403,0.149-1.211,0.149c-1.149,0-1.724-0.06-1.724-0.188
		c0-0.052,0.282-0.101,0.847-0.15c-0.086,0.123-0.17,0.197-0.25,0.222c-0.06-0.023-0.086-0.09-0.086-0.194
		c0-0.886,0.111-1.407,0.336-1.564c0,0.079,0,0.208,0,0.39c0.045,0.026,0.104,0.055,0.18,0.078c0.045,0,0.068-0.012,0.068-0.037
		c0-0.104-0.293-0.412-0.879-0.92c-0.588-0.51-0.959-0.774-1.113-0.803c0,0.133,0.144,0.354,0.431,0.665
		c0.051-0.131,0.077-0.235,0.077-0.313c0-0.156-0.092-0.235-0.271-0.235c-0.394,0-0.797,0.17-1.216,0.509
		c-0.362,0.315-0.546,0.537-0.546,0.668c0,0.208,0.221,0.34,0.665,0.393c0-0.209-0.037-0.547-0.108-1.02v-0.197v-0.037v0.08v0.193
		c-0.125,0.131-0.246,0.457-0.371,0.977v4.42c0,4.279,0.08,6.455,0.242,6.533c0.094-0.651,0.172-1.8,0.237-3.44
		c-0.074,0.287-0.108,0.562-0.108,0.821c0,0.233,0.108,0.509,0.324,0.819c0.312,0.392,0.734,0.587,1.266,0.587
		c0.291,0,0.436-0.104,0.436-0.312c0-0.209-0.17-0.481-0.508-0.821c-0.053,0.053-0.078,0.1-0.078,0.146
		c0,0.195,0.352,0.291,1.059,0.291c0.545,0,0.818-0.062,0.818-0.186s-0.203-0.246-0.602-0.371c0,0.104,0.021,0.275,0.071,0.512
		l0.037,0.115h0.035h0.036l0.035-0.115c0.023-0.078,0.049-0.264,0.074-0.549c0.021-0.549,0.035-1.316,0.035-2.311
		c0-2.033-0.051-3.062-0.146-3.089c-0.074,0.313-0.136,0.889-0.181,1.721c0.164-0.208,0.248-0.364,0.248-0.468
		c0-0.156-0.145-0.235-0.43-0.235c-0.338,0-0.744,0.085-1.214,0.255s-0.703,0.308-0.703,0.41c0,0.076,0.22,0.09,0.664,0.038
		c-0.071,0.104-0.146,0.156-0.216,0.156c-0.072,0-0.137-0.054-0.182-0.156c-0.097-0.208-0.145-0.468-0.145-0.78
		c0-0.312,0.059-0.48,0.182-0.509C126.054,113.877,126.174,114.019,126.295,114.228L126.295,114.228z"/>
	<path fill="#00B6F1" d="M149.921,124.16v0.665c0.049,1.146-0.307,1.721-1.072,1.721c-0.515,0-0.961-0.234-1.343-0.703
		c-0.28-0.339-0.421-0.627-0.421-0.861c0-0.442,0.359-0.717,1.082-0.82c-0.104,0.104-0.223,0.261-0.354,0.468
		c0.181-0.056,0.477-0.392,0.881-1.015c0.404-0.626,0.609-1.006,0.609-1.135c0-0.105-0.064-0.168-0.195-0.196l-0.277,0.081
		c0,0.338,0.158,0.82,0.475,1.443l-2.716-9.936c-0.36-1.146-0.813-2.855-1.356-5.124c0.236,0.782,0.651,2.244,1.252,4.385
		c-0.504-0.651-0.76-1.186-0.76-1.604c0-0.467,0.318-0.702,0.95-0.702c0.659,0,1.229,0.194,1.704,0.586
		c0.369,0.339,0.555,0.627,0.555,0.86c0,0.312-0.195,0.601-0.58,0.86l-0.037-0.862v-0.235v-0.038c-0.006,0-0.006,0,0,0
		c0.041,0.027,0.082,0.064,0.123,0.118l0.123,0.312c0.074,0.235,0.226,0.876,0.453,1.92c0.021,0.104,0.309,1.226,0.857,3.361
		c0.348,1.357,0.523,2.479,0.523,3.364c0,0.394-0.037,0.771-0.107,1.136v0.037c-0.027,0-0.252-0.963-0.676-2.895
		c0.104,0.625,0.156,1.043,0.156,1.252l-0.047,0.508c-0.187-0.521-0.217-1.107-0.094-1.76c-0.031,0.263-0.143,0.64-0.326,1.133
		l1.574-6.803c0.053-0.783,0.348-1.931,0.889-3.443c-0.09,0.574-0.291,1.541-0.611,2.896c-0.063-0.209-0.094-0.417-0.094-0.627
		c0-0.312,0.143-0.624,0.43-0.938c0.417-0.443,1.004-0.666,1.762-0.666c0.702,0,1.055,0.223,1.055,0.666
		c0,0.418-0.432,0.94-1.291,1.565c0.285-0.782,0.613-1.591,0.979-2.426l0.04,0.08c0,0.418-0.263,1.69-0.782,3.815
		c-1.045,4.381-2.035,7.869-2.975,10.465c-0.078,0.393-0.326,0.955-0.743,1.691C149.56,126.245,149.687,125.378,149.921,124.16
		L149.921,124.16z"/>
</g>
</svg>
