<?xml version="1.0" encoding="utf-8"?>
<!-- Generator: Adobe Illustrator 16.0.0, SVG Export Plug-In . SVG Version: 6.00 Build 0)  -->
<!DOCTYPE svg PUBLIC "-//W3C//DTD SVG 1.1//EN" "http://www.w3.org/Graphics/SVG/1.1/DTD/svg11.dtd">
<svg version="1.1" id="Layer_1" xmlns="http://www.w3.org/2000/svg" xmlns:xlink="http://www.w3.org/1999/xlink" x="0px" y="0px"
	 width="175.748px" height="100.811px" viewBox="8.505 45.973 175.748 100.811"
	 enable-background="new 8.505 45.973 175.748 100.811" xml:space="preserve">
<g>
	<path fill="#FFFFFF" d="M17.414,146.783c50.42-31.296,128.673-26.349,128.673-26.349c-6.056,2.404,26.956-24.709,6.035-25.833
		c-54.525-2.932-122.61,19.585-131.644,41.351C16.42,145.728,17.414,146.783,17.414,146.783L17.414,146.783z"/>
	<path fill="#FFFFFF" d="M156.957,92.636c-1.753,3.662-5.49,6.223-8.272,5.92c-2.736-0.197-3.656-3.61-2.125-7.812
		c1.481-4.311,5.021-7.362,7.986-6.62C157.551,84.974,158.667,88.872,156.957,92.636L156.957,92.636z"/>
	<path fill="#FFFFFF" d="M172.76,83.963c-0.749-0.304-1.478-0.666-0.763-1.097L172.76,83.963L172.76,83.963z M175.289,59.224
		c-0.088-0.075-1.036-2.601-1.131-2.677c-1.535-2.315-2.433-5.001-6.45-5.185c-3.993-5.327-7.857-5.422-8.454-5.385
		c-0.515,0.015-7.173,0.83-3.619,4.544c0.576,0.604,0.634,1.438,0.841,2.526c-1.461,0.396-2.086,0.618-3.312,2.213
		c-1.063,1.386-1.28,3.024-0.655,4.87c-1.135,3.638,0.997,9.066,0.997,9.066c0.731,1.939,2.44,6.482-5.149,13.898
		c-1.818,1.815-2.047,3.885-0.584,5.292c0.814,0.785,4.814,2.989,10.39,0.602c1.315-0.581,6.328-3.697,7.991-4.634L175.289,59.224
		L175.289,59.224z"/>
	<path fill="#FFFFFF" d="M157.601,57.82l-0.844-0.562c-1.253-1.576-3.918-1.516-5.861-1.187c-0.869,0.149-1.701,0.293-2.567,0.441
		c0-0.015-0.003-0.039-0.005-0.058c-20.071,4.047-77.445,11-139.818,2.526c0,0,11.472,10.987,12.17,16.734
		c0,0-0.263,9.165-0.72,10.275c-0.509,1.043-5.365,5.589-5.365,5.589s5.215,2.392,6.302,7.173c0,0,0.703,7.67,0.78,11.975
		c0.058,7.984-0.992,13.045-2.135,20.318c-0.476,3.03-1.313,8.018-2.019,13.092c6.488-6.238,12.829-11.568,19.576-16.529
		c1.171-1.888,2.165-4.687,2.264-8.836c0.562,3.492,1.811,4.781,3.163,5.006c2.877-1.948,5.651-3.717,8.578-5.473
		c1.392-1.46,2.777-3.796,3.047-7.461c0.479,2.981,1.885,3.836,3.366,3.803c29.308-15.832,58.078-17.317,88.393-19.914l0.888-2.734
		c0.298-0.806,5.032-1.525,5.474-5.82l0.562-1.684c1.727-0.08,5.949-6.078,6.178-8.424C159.004,76.07,158.597,59.131,157.601,57.82
		L157.601,57.82z"/>
	<path fill="#FFFFFF" d="M143.851,123.368c13.812,0,25.312-12.995,25.524-16.736c0.211-3.729-11.714-16.734-25.524-16.734
		c-13.812,0-25.51,12.501-25.527,16.734C118.306,110.87,130.039,123.368,143.851,123.368L143.851,123.368z"/>
	<path d="M143.851,122.101c12.766,0,23.393-12.012,23.59-15.469c0.194-3.445-10.824-15.465-23.59-15.465
		s-23.578,11.555-23.594,15.465C120.242,110.549,131.085,122.101,143.851,122.101L143.851,122.101z"/>
	<path d="M21.325,142.219c53.029-29.122,123.927-24.255,123.927-24.255c-5.369,2.26,31.336-19.826-5.794-21.989
		c-47.908-2.79-108.097,16.667-116.487,38.213C19.205,143.862,21.325,142.219,21.325,142.219L21.325,142.219z"/>
	<path d="M153.894,65.124c0.062-2.1,1.172-3.594,0.221-4.838l-0.434-0.652c-1.195-1.496-4.009-1.624-5.863-1.312
		c-0.827,0.143-1.619,0.279-2.449,0.418c0-0.012-0.002-0.037-0.004-0.052c-5.26,0.89-10.209,1.667-15.35,2.393
		c0.024,1.066,0.024,2.184,0.002,3.424c-0.676-1.693-0.625-2.772-3.461-2.948c-23.285,3.102-44.834,4.314-71.397,3.243
		c-3.372,0.701-3.65,2.351-4.836,4.719c0.267-1.625,0.555-3.202,0.885-4.897c-2.149-0.108-4.237-0.223-6.452-0.362
		c-1.12,0.438-2.088,1.233-2.578,2.755c-0.07-1.559-0.993-2.471-2.294-3.08c-8.171-0.582-16.4-1.336-25.555-2.346
		c3.971,4.382,8.416,9.237,8.899,14.639c0.307,5.152,0.12,9.429-0.315,10.483c-0.485,0.988-3.814,5.352-3.814,5.352v0.001
		c0,0,3.697,2.962,4.567,5.753c0.556,2.154,0.812,8.281,0.884,12.367c0.055,7.574-0.947,12.377-2.035,19.276
		c-0.454,2.878-1.254,7.608-1.927,12.423c6.189-5.92,12.239-10.976,18.674-15.684c1.117-1.792,2.064-4.446,2.16-8.385
		c0.537,3.312,1.727,4.537,3.017,4.748c2.744-1.847,5.391-3.526,8.181-5.19c1.33-1.386,2.65-3.603,2.906-7.08
		c0.459,2.83,1.8,3.642,3.212,3.608c27.956-15.021,55.401-16.433,84.319-18.896l0.846-2.596c0.285-0.764,1.015-4.87,1.436-8.946
		c1.646-0.074,2.658-0.202,4.312-0.268c2.586-0.626,3.394-4.062,3.609-6.291c0.32-3.907,0.562-7.991,0.637-11.891
		C153.896,65.041,153.894,65.102,153.894,65.124L153.894,65.124z"/>
	<path fill="#D2656C" d="M120.646,94.841c-2.25-1.235-4.35-4.13-4.24-6.366c0.177-1.653,0.359-3.389,0.553-5.297
		c-1.875,0.153-3.682,0.309-5.568,0.479c0.237-2.319,0.478-4.639,0.719-7.064c1.957-0.177,3.828-0.346,5.789-0.522
		c0.174-1.964,0.324-3.856,0.469-5.769c0,0.021-0.006,0.059-0.008,0.077c0.164-1.551-0.11-2.959-0.756-4
		c-0.816-1.256-2.039-1.773-3.569-1.617c-4.562,0.486-8.938,0.892-13.562,1.251c-0.002,0,0,0.002,0.002,0.002
		c-0.129,0.009-0.23,0.018-0.357,0.026c0,0,0.691,0.344,1.479,1.105c0.937,1.173,2.029,3.148,1.754,6.234
		c-0.166,1.357-0.322,2.682-0.486,4.077c-0.24,1.838-1.379,2.754-1.413,2.781c0,0-1.99,1.531-1.997,1.521
		c0.599,0.341,1.173,0.66,1.775,0.996c0.071,0.044,0.516,0.329,0.729,1.114c0.062,0.272,0.115,0.727,0.072,1.218
		c-0.141,1.367-0.269,2.656-0.393,3.977c-0.365,2.977-1.934,5.194-3.179,6.68c-0.985,1.007-2.369,3.658-2.369,3.658
		S118.509,95.149,120.646,94.841L120.646,94.841z"/>
	<path d="M109.599,77.155c0.123-1.178,0.241-2.303,0.361-3.472c0.497-0.048,0.971-0.091,1.469-0.14c0.041,0.005,0.074,0.003,0.114,0
		c-0.005,0.066-0.015,0.211-0.019,0.279c-0.104,1.035-0.203,2.038-0.312,3.088C110.759,76.946,110.127,77.104,109.599,77.155
		L109.599,77.155z"/>
	<path d="M110.399,84.278c-0.104,1.001-0.199,1.941-0.299,2.9c-0.012,0.066-0.026,0.188-0.035,0.255
		c-0.039,0.01-0.08,0.017-0.119,0.023c-0.502,0.051-0.984,0.103-1.489,0.155c0.11-1.077,0.218-2.14,0.338-3.28
		C109.321,84.29,109.937,84.327,110.399,84.278L110.399,84.278z"/>
	<path fill="#FFFFFF" d="M116.729,92.794c-1.688-1.324-1.312-2.675-1.146-4.235c0.147-1.379,0.297-2.801,0.457-4.361
		c-1.647,0.139-3.226,0.276-4.882,0.428c-0.118,1.151-0.23,2.229-0.34,3.316c-0.131,0.225-0.416,0.503-0.906,0.565
		c-0.789,0.096-1.784,0.203-2.197,0.247c-0.035-0.043-0.074-0.089-0.109-0.136c0.185-1.84,0.375-3.707,0.584-5.711
		c0.293-0.022,1.701-0.141,2.484-0.226c0,0.003,0.006,0.001,0.012,0c0.148-1.445,0.295-2.861,0.447-4.351
		c-0.003,0.003-0.007,0.002-0.012,0.002c-0.773,0.055-2.186,0.191-2.475,0.22c0.222-2.093,0.435-4.108,0.653-6.167
		c0.281-0.028,1.41-0.144,2.283-0.219c0.987-0.066,0.89,0.83,0.836,1.543c-0.036,0.366-0.103,1.017-0.153,1.542
		c1.642-0.152,3.215-0.298,4.861-0.452c0.002-0.011,0.002-0.038,0.003-0.049c0-0.01,0.007-0.037,0.011-0.047
		c-0.004-0.002-0.007-0.007-0.004-0.008c0.123-1.466,0.237-2.865,0.35-4.296c0.255-2.499-0.91-4.682-3.547-4.438
		c-1.354,0.145-2.648,0.279-4.012,0.415c-2.359,0.233-4.627,0.445-7.012,0.649c0.085,0.099,0.16,0.175,0.252,0.27
		c-0.027,0.002-0.05,0.004-0.078,0.006c0.111,0.112,0.2,0.2,0.312,0.31c0.929,1.41,0.968,3.505,0.933,4.542
		c-0.208,1.469-0.622,4.807-0.802,6.303c-0.59,2.023-1.826,2.812-1.826,2.812s1.059,0.741,1.229,2.698
		c-0.097,0.958-0.399,4.223-0.521,5.978c-0.185,1.083-0.771,3.702-2.593,5.522c-0.004,0.046-0.01,0.12-0.012,0.166
		c0.148-0.032,0.293-0.062,0.444-0.093c-0.012,0.013-0.034,0.031-0.048,0.046C105.774,94.468,111.123,93.573,116.729,92.794
		L116.729,92.794z"/>
	<path fill="#D2656C" d="M96.088,99.403c5.052-1.172,6.304-6.085,6.304-9.368c0.174-1.885,0.359-3.774,0.568-5.791
		c-2.213,0.221-4.34,0.441-6.573,0.684c-0.162,1.576-0.304,3.079-0.441,4.637c-0.379,0.053-0.744,0.102-1.125,0.155
		c-0.941,0.137-0.72-1.878-0.667-2.737c0.406-4.257,0.891-8.39,1.466-12.54c0.482-4.855,2.886-8.18-3.686-7.851
		c-1.586,0.117-3.115,0.224-4.723,0.327c2.196,1.526,2.357,3.677,2.317,5.231c-0.081,0.264-1.268,8.045-1.268,8.047
		c-0.622,1.583-1.58,2.489-1.58,2.489s0.764,0.736,1.03,2.407c0,0-0.577,7.847-0.55,8.438c-0.455,2.806-0.982,3.898-2.591,6.092
		l-3.041,3.693C86.036,101.974,91.53,100.47,96.088,99.403L96.088,99.403z"/>
	<path fill="#FFFFFF" d="M98.138,96.221c3.477-0.967,3.269-4.288,3.411-6.072c0.146-1.575,0.294-3.139,0.466-4.807
		c-1.697,0.177-3.326,0.354-5.033,0.544c-0.161,1.619-0.306,3.162-0.438,4.749c-0.618,0.088-1.209,0.176-1.83,0.271
		c-0.806,0.117-1.179-0.127-1.498-0.659c0.438-5.27,1.018-10.462,1.739-15.632c0.729-4.965,1.787-7.597-1.892-7.185
		c-1.316,0.086-2.583,0.166-3.914,0.242c1.08,1.002,1.234,2.86,1.173,4.42c-0.074,0.258-1.244,8.028-1.244,8.028
		c-0.574,1.575-1.436,2.465-1.436,2.465s0.668,0.744,0.888,2.417c0,0-0.591,7.797-0.571,8.379c-0.421,2.774-1.286,4.824-2.126,5.772
		C89.975,98.054,93.956,97.108,98.138,96.221L98.138,96.221z"/>
	<path fill="#D2656C" d="M58.239,85.951c-0.66-0.489-1.058-1.235-1.058-1.235c-0.298-0.386-1.092-1.762-0.991-3.082
		c0.196-1.999,0.425-3.853,0.704-5.763c0.683-4.298,4.486-7.128,6.421-8.644c-2.529,0.032-4.983,0.047-7.589,0.045
		c-4.523,0.022-5.94,7.853-6.329,10.991c-0.003,0.012-0.487,4.22-0.716,9.206c-0.229,4.968-0.192,10.796-0.19,10.839
		c-0.51,0.133-0.999,0.262-1.51,0.398c0-0.037-0.121-9.514,0.506-17.171c0.627-7.594,1.964-14.41,1.964-14.412
		c-1.136-0.033-2.235-0.068-3.391-0.11c-1.005-0.026-1.977,0.575-2.876,1.814c-1.209,1.714-2.048,4.304-2.389,7.796
		c-0.704,7.389-0.896,14.867-0.53,25.792c0.199,4.607,1,9.053,2.123,11.93c1.051,2.6,2.598,4.157,3.933,3.316l4.563-2.608
		c1.375-0.747,2.551-3.641,3.42-6.774c0.743-2.81,1.125-5.771,1.125-8.645c-0.007-2.856,0.03-5.407,0.114-7.925
		c0.078-1.705,1.103-3.578,1.47-4.124c0.396-0.561,0.778-1.086,1.183-1.629L58.239,85.951L58.239,85.951z M39.716,90.175
		l18.523-4.225L39.716,90.175z"/>
	<path fill="#FFFFFF" d="M55.404,68.888c-2.823,0.036-4.304,3.554-5.062,9.356c-0.644,5.673-0.945,11.475-0.928,19.028
		c-0.017,2.742-0.364,3.201-0.856,3.359c-0.541,0.159-1.058,0.312-1.602,0.477c-0.556,0.152-0.823-0.403-0.882-2.849
		c-0.137-12.365,0.548-20.357,2.095-29.454c-0.807-0.013-1.583-0.028-2.401-0.046c-1.699-0.003-3.426,2.361-4,7.818
		c-0.728,7.335-0.941,14.755-0.604,25.555c0.281,6.384,1.894,13.377,4.624,11.89c1.681-0.858,3.295-1.656,4.991-2.467
		c2.234-1.119,3.727-6.537,3.752-11.64c-0.012-2.906,0.016-5.494,0.097-8.046c0.136-3.141,1.929-5.646,1.931-5.646
		c0,0-1.499-1.941-1.302-4.507c0-0.001,0.874-7.001,0.684-5.711c0-0.001,0.789-5.106,2.802-7.111
		C57.623,68.897,56.542,68.896,55.404,68.888L55.404,68.888z"/>
	<path fill="#D2656C" d="M119.761,79.503c0.313,0.364,0.622,0.706,0.941,1.064c0.295,0.349,1.072,1.553,0.986,2.705
		c-0.164,1.682-0.326,3.214-0.483,4.674c-0.163,1.448,0.222,3.759,0.959,4.503c0,0,0.438,2.825,6.739,1.304l2.656-1.341
		c1.371-0.129,1.682-1.395,2.692-2.158c1.081-0.843,1.81-2.179,2.074-4.154c0.521-4.668,1.056-11.035,1.248-17.105
		c0.087-2.836-0.354-4.762-1.218-5.896c-0.633-0.804-1.398-1.11-2.281-0.991c-1.002,0.146-1.963,0.283-2.967,0.423
		c0,0.002-1.366,23.078-1.371,23.154c-0.5,0.033-0.983,0.063-1.49,0.098c0.01-0.074,1.154-14.157,1.154-14.182
		c0.111-2.625,0.197-8.723-3.863-8.317c-1.773,0.23-3.473,0.441-5.251,0.656c1.392,1.007,2.688,2.914,2.474,6.66
		c-0.111,1.645-0.23,3.265-0.371,4.958c-0.111,1.104-1.103,2.384-1.451,2.757c0,0-0.498,0.671-1.219,1.191L119.761,79.503
		L119.761,79.503z M137.337,79.339l-17.576,0.164L137.337,79.339z"/>
	<path fill="#FFFFFF" d="M125.521,64.486c2.541-0.283,3.195,2.34,2.996,7.237c-0.279,4.795-0.709,9.61-1.139,13.703
		c-0.138,1.473,0.221,1.538,0.705,1.513c0.538-0.039,1.053-0.075,1.591-0.111c0.554-0.043,0.824-0.292,0.987-1.546
		c0.672-6.377,1.347-14.966,1.322-21.653c0.715-0.099,1.4-0.195,2.119-0.296c1.496-0.186,2.711,1.288,2.592,5.758
		c-0.199,6.01-0.736,12.353-1.26,17.06c-0.373,2.757-1.854,4.457-4.645,4.712c-1.727,0.161-3.385,0.325-5.119,0.512
		c-2.295,0.224-3.831-0.955-3.574-3.491c0.159-1.448,0.317-2.98,0.485-4.68c0.174-2.095-1.248-3.78-1.248-3.78l0,0
		c0,0,1.722-1.796,1.944-3.944c0,0,0.421-6.005,0.357-4.895c0,0,0.271-4.339-1.144-5.717
		C123.515,64.74,124.49,64.618,125.521,64.486L125.521,64.486z"/>
	<path fill="#D2656C" d="M82.834,79.102c2.181-0.194,4.267-0.382,6.449-0.577c0.252-1.98,0.518-3.849,0.821-5.763
		c-0.004,0.018-0.011,0.058-0.014,0.076c0.294-1.551,0.169-2.992-0.346-4.109c-0.663-1.359-1.798-2.025-3.376-1.959
		c-6.193,0.281-12.247,0.435-18.775,0.468c-0.126,0-0.252,0-0.38,0c0,0.002,0.695,0.494,1.444,1.459
		c0.86,1.466,1.788,3.768,1.346,7.149c-0.238,1.49-0.445,2.937-0.643,4.491c2.215-0.205,4.33-0.401,6.541-0.609
		c-0.006,0.05-0.022,0.183-0.031,0.237c-0.254,1.686-1.198,2.745-1.232,2.777c-0.431,0.468-0.843,0.921-1.271,1.404
		c0.007,0.005,1.002,1.167,1.002,1.167c0.021,0.033,0.778,0.955,0.638,3.155c-0.146,1.915-0.258,3.805-0.348,5.852
		c-0.289,5.779-3.636,9.926-5.086,12.91l16.081-5.217C79.571,101.795,81.955,85.671,82.834,79.102L82.834,79.102z"/>
	<path fill="#FFFFFF" d="M88.578,77.136c0.201-1.473,0.408-2.867,0.636-4.304c0.465-2.51-0.399-4.86-3.111-4.759
		c-2.896,0.15-5.693,0.274-8.655,0.377c-2.469,0.086-4.858,0.153-7.386,0.205c0.001,0,0.001,0,0.001,0s0,0-0.001,0
		c0.074,0.11,0.156,0.23,0.236,0.338c-0.028,0-0.054,0-0.082,0.002c0.092,0.128,0.197,0.258,0.295,0.382
		c0.817,1.707,0.691,4.019,0.586,5.157c-0.311,1.602-0.462,2.62-0.693,4.251c0,0,5.582-0.458,5.288-0.432
		c0.152-1.159,0.316-2.255,0.5-3.392c0.449-0.029,0.881-0.059,1.333-0.094c-0.275,1.661-0.518,3.279-0.746,5.013
		c-0.386,2.568-1.781,4.087-1.781,4.087s1.115,1.239,0.915,4.369c-0.146,1.9-0.261,3.771-0.354,5.796
		c-0.227,3.878-1.159,6.98-2.078,8.305c2.302-0.769,4.516-1.467,6.837-2.155c0.233-9.066,0.916-16.943,2.102-24.6
		c0.046-0.271,0.152-0.902,0.199-1.173c0.166-0.007,0.317-0.019,0.48-0.032c1.012-0.045,0.849,0.874,0.754,1.604
		c-0.054,0.364-0.155,1.044-0.231,1.585c1.671-0.142,3.27-0.278,4.941-0.423c0.002-0.011,0.005-0.037,0.008-0.051
		c0-0.011,0.006-0.037,0.009-0.047C88.58,77.144,88.578,77.138,88.578,77.136L88.578,77.136z"/>
	<path fill="#D2656C" d="M40.971,83.05c0.139-2.721,0.339-5.197,0.61-7.761c-0.005,0.02-0.009,0.083-0.011,0.104
		c0.266-2.035,0.102-3.981-0.509-5.6c-0.787-1.973-2.125-3.128-3.96-3.23c-5.469-0.281-10.875-0.627-16.736-1.07l0,0
		c-0.127-0.011-0.323-0.026-0.451-0.036c0,0,0.941,0.822,2.014,2.317c1.296,2.242,2.735,5.589,2.764,10.297
		c-0.041,2.072-0.053,4.098-0.04,6.316c-0.018,2.931-1.101,4.521-1.127,4.559c0,0-1.883,2.674-1.893,2.668
		c0.714,0.621,1.399,1.203,2.11,1.817c0.062,0.06,0.613,0.581,1.001,2.087c0.063,0.275,0.271,1.407,0.328,2.398
		c0.14,2.765,0.311,5.604,0.529,8.841c0.382,7.322-0.418,14.709-1.111,19.917c-0.623,3.544-0.858,5.502-0.858,5.502
		c4.467-3.498,8.796-6.587,13.373-9.565c1.518-0.979,2.618-3.952,3.347-7.971c0.553-3.238,0.761-6.714,0.605-9.858
		c0,0.021,0.004,0.138,0.007,0.157c-0.152-3.951-0.229-7.364-0.24-10.659c-0.052-2.725,0.106-4.521-0.383-5.837
		C40.892,86.994,40.813,85.345,40.971,83.05L40.971,83.05z"/>
	<path fill="#FFFFFF" d="M40.022,83.071c0.016-0.348,0.069-1.32,0.111-1.984c0-0.011,0.005-0.056,0.009-0.067
		c-0.002-0.001-0.004-0.01-0.004-0.011c0.12-1.964,0.273-3.79,0.465-5.686c0.406-3.308-0.617-6.715-3.733-6.876
		c-1.596-0.056-3.143-0.118-4.774-0.185V68.26c-2.836-0.121-5.594-0.254-8.534-0.415v0.002H23.56
		c2.401,3.365,2.161,9.316,2.161,9.316c-0.067,2.343-0.097,4.633-0.09,7.155c0,0.018,0,0.093,0,0.11
		c-0.071,4.391-1.64,6.307-1.64,6.307s1.658,1.472,2.008,6.939c0.152,3.132,0.343,6.384,0.596,10.134c0,0,0.611,10.021-0.801,18.016
		v0.007c2.336-1.575,4.586-3.022,6.953-4.478v-0.004c1.35-0.828,2.646-1.604,4.008-2.395c2.621-1.559,3.547-8.547,3.314-13.713
		c-0.119-2.932-0.195-5.537-0.234-8.098c-0.002-0.004,0.001-0.027,0.004-0.033c-0.002-0.014-0.006-0.071-0.006-0.086
		c-0.008-0.348-0.026-1.654-0.03-2.479c-0.084-3.086-0.644-4.646-1.41-5.804C39.197,87.374,39.825,85.657,40.022,83.071
		L40.022,83.071L40.022,83.071L40.022,83.071z M33.978,77.123c1.11,0.002,1.009,1.246,0.97,2.243
		c-0.085,1.518-0.151,2.998-0.199,4.603c0,0-0.029,1.92-0.954,2.033c-0.83,0.074-2.348,0.262-2.659,0.3
		c0.021-3.25,0.113-6.138,0.273-9.1C31.692,77.195,32.999,77.14,33.978,77.123L33.978,77.123L33.978,77.123L33.978,77.123z
		 M34.905,101.123c0.04,1.408,0.143,3.28-0.872,3.692c-0.888,0.334-2.054,0.72-2.334,0.812c-0.253-4.545-0.41-8.408-0.496-12.104
		c0.29-0.046,1.778-0.312,2.594-0.491c0.9-0.165,0.921,2.081,0.921,2.081C34.761,97.036,34.82,98.974,34.905,101.123L34.905,101.123
		z"/>
	<path d="M32.038,84.193c0.036-1.758,0.091-3.386,0.17-5.056c0.551-0.026,1.081-0.053,1.634-0.08
		c0.04,0.007,0.086,0.007,0.125,0.009c-0.002,0.066-0.009,0.322-0.009,0.391c-0.078,1.458-0.137,2.885-0.176,4.424
		C33.29,83.923,32.613,84.136,32.038,84.193L32.038,84.193z"/>
	<path d="M33.743,95.932c0.044,1.875,0.112,3.764,0.203,5.854c0.001,0.068,0.012,0.497,0.015,0.564
		c-0.035,0.023-0.08,0.043-0.118,0.061c-0.509,0.156-0.997,0.308-1.509,0.467c-0.116-2.419-0.203-4.595-0.269-6.756
		C32.613,96.006,33.267,96.047,33.743,95.932L33.743,95.932z"/>
	<path d="M157.601,57.82c-1.686,2.246-4.494,2.808-6.457,1.966c-1.968-0.842-11.232,19.373-10.672,22.743
		c0.562,3.369,1.965,9.827,1.965,9.827l7.301-0.281l12.074-19.374L157.601,57.82L157.601,57.82z"/>
	<path fill="#D2656C" d="M69.958,94.188c0.048-1.251,0.104-2.42,0.176-3.622c0.251-5.226-0.552-9.575-3.194-9.937
		c1.193-0.106,2.334-0.209,3.528-0.316c0.193-1.751,0.411-3.39,0.668-5.081c0.046-0.288,0.153-0.86,0.238-1.299
		c-0.001-0.06,0.003-0.193,0.003-0.252c0.354-1.683,0.386-2.911-0.107-4.181c-0.631-1.547-1.794-2.376-3.461-2.378
		c-1.281,0.005-2.515,0.005-3.816,0c-0.022-0.016-0.045-0.037-0.066-0.057c-2.009-0.05-3.729,0.764-5.204,2.549
		c-1.302,1.627-2.21,3.859-2.623,6.688c-0.139,0.989-0.265,1.946-0.384,2.962c-0.371,3.225,0.031,6.045,1.082,8.234
		c1.119,2.259,2.738,3.312,4.673,2.996c0.441-0.075,0.863-0.145,1.306-0.219c0.243-0.045,0.355,0.043,0.373,0.077
		c0.018,0.041,0.048,0.489,0.033,0.759c-0.014,0.323-0.051,1.185-0.075,1.805c-0.041,1.195-0.121,1.588-0.132,1.636
		c-0.021,0.021-0.739,0.271-1.102,0.352c0.034-1.38,0.081-2.659,0.143-3.966c-2.292,0.399-4.496,0.796-6.807,1.229
		c-0.079,2.694-0.105,5.448-0.085,8.57c0.01,2.14,0.25,5.229,1.217,7.505c0.832,1.888,2.368,3.55,4.979,2.463
		c0,0,4.127-2.174,13.038-5.216l-1.041-1.086C70.981,101.44,69.778,100.239,69.958,94.188L69.958,94.188L69.958,94.188
		L69.958,94.188z M63.319,79.157c-0.447,0.024-0.401-0.553-0.388-0.654c0.032-0.229,0.121-0.867,0.154-1.099
		c0.023-0.112,0.081-0.42,0.105-0.531c0.456-0.035,0.895-0.068,1.355-0.104c-0.121,0.773-0.227,1.523-0.329,2.318
		C63.921,79.111,63.625,79.132,63.319,79.157L63.319,79.157z"/>
	<path fill="#FFFFFF" d="M69.228,95.655c0.054-1.726,0.125-3.329,0.217-4.958c0.273-6.013-0.984-10.325-4.537-10.107
		c-0.522,0.046-1.026,0.092-1.553,0.138c-0.97,0.055-1.257-1.112-1.125-2.183c0.033-0.229,0.119-0.864,0.15-1.094
		c0.268-1.656,0.628-2.113,1.798-2.181c0.599-0.033,1.173-0.063,1.774-0.098c-0.209,1.263-0.391,2.486-0.566,3.792
		c1.539-0.121,3.01-0.236,4.544-0.358c0.204-1.46,0.419-2.834,0.667-4.258c-0.004-0.032-0.011-0.101-0.012-0.134
		c0.007-0.038,0.03-0.137,0.041-0.177c0.54-2.731-0.252-5.404-3.108-5.4c-1.217,0.007-2.389,0.009-3.625,0.003
		c-0.024-0.013-0.05-0.029-0.072-0.046c-0.15,0.017-0.314,0.033-0.463,0.046c-0.091,0.001-0.183-0.002-0.276-0.003
		c-0.002,0.004-0.006,0.023-0.006,0.029c-3.258,0.403-5.151,3.383-5.792,7.572c-0.142,0.981-0.269,1.933-0.39,2.943
		c-0.68,6.058,1.678,9.904,4.898,9.472c0.442-0.066,0.868-0.128,1.314-0.196c0.792-0.125,1.323,0.38,1.22,2.493
		c-0.016,0.315-0.053,1.145-0.076,1.746c-0.092,2.379-0.29,3.644-1.507,3.968c-0.54,0.13-1.056,0.258-1.597,0.392
		c0.023-1.437,0.054-2.766,0.102-4.121c-1.667,0.329-3.266,0.65-4.943,0.999c-0.046,2.07-0.063,4.154-0.054,6.469
		c0.017,3.582,0.704,8.236,3.568,7.129c3.721-1.545,7.302-2.909,11.066-4.225C69.905,101.806,69.142,99.213,69.228,95.655
		L69.228,95.655z"/>
	<path fill="#D2656C" d="M143.031,93.318c0.278-1.404,1.157-7.335,1.521-11.519c0,0,2.596-0.306,4.405-0.39
		c2.208-0.574,3.896-3.128,4.071-5.042l0.65-10.215c0.066-1.805-1.304-4.565-1.304-4.565c-0.996-1.364-3.342-1.851-4.931-1.595
		c-4.719,0.783-9.185,1.481-13.82,2.151h0.002c-0.125,0.021-0.229,0.035-0.355,0.054c0,0,0.77,0.274,1.696,0.99
		c1.14,1.124,2.534,3.159,2.521,6.53c-0.053,1.484-0.123,2.939-0.215,4.452c-0.139,1.998-0.875,5.934-0.696,6.762
		c0.063,0.272,0.126,0.741,0.086,1.227c-0.125,1.344-0.249,2.562-0.374,3.723c-0.378,2.606-1.977,3.977-3.241,4.782
		c-0.998,0.539-1.819,0.803-1.819,0.803c0.129-0.013-5.929,2.733-5.801,2.721C125.429,94.188,138.248,92.884,143.031,93.318
		L143.031,93.318z"/>
	<path fill="#FFFFFF" d="M141.658,90.031L141.658,90.031c0.163-0.95,0.351-2.317,0.551-4.071c0.19-1.698,0.383-3.616,0.563-5.79
		c0,0,4.623-0.01,6.522-0.324c1.228-0.547,1.786-2.538,1.974-4.693c0.092-1.314,0.176-2.598,0.246-3.942
		c0-0.012,0.004-0.045,0.004-0.058c0-0.001,0-0.005,0-0.009c0.062-1.708,0.105-3.343,0.121-5c0.086-2.894-1.393-5.267-4.117-4.871
		c-1.393,0.225-2.725,0.432-4.113,0.648c-2.41,0.374-4.713,0.72-7.114,1.066c0.001,0,0.001,0,0.001,0s0,0-0.001,0
		c2.136,1.648,2.097,5.993,2.097,5.993c-0.053,1.7-0.129,3.375-0.23,5.119c-0.001,0.016-0.002,0.058-0.006,0.076
		c-0.252,3.027-1.885,4.058-1.885,4.058s1.476,1.142,1.283,3.861c-0.142,1.546-0.285,2.932-0.432,4.224c0,0-0.396,2.992-2.711,4.234
		C136.856,90.353,139.203,90.185,141.658,90.031L141.658,90.031L141.658,90.031L141.658,90.031z M143.429,68.53
		c0.28-0.037,1.422-0.181,2.305-0.278c0.998-0.091,0.959,0.934,0.953,1.749c-0.045,1.24-0.1,2.445-0.164,3.695
		c0,0-0.065,1.467-0.931,1.549c-0.774,0.048-2.186,0.174-2.475,0.201C143.265,73.126,143.371,70.841,143.429,68.53L143.429,68.53z"
		/>
	<path d="M144.015,73.898c0.069-1.317,0.129-2.593,0.174-3.915c0.502-0.055,0.979-0.108,1.481-0.164c0.039,0.003,0.072,0,0.115,0
		c0,0.065,0,0.248,0,0.316c-0.043,1.178-0.093,2.319-0.155,3.509C145.174,73.678,144.545,73.85,144.015,73.898L144.015,73.898z"/>
	<path fill="#D2656C" d="M143.851,120.162c11.14,0,20.414-10.509,20.586-13.528c0.172-3.019-10.049-13.966-21.188-13.966
		c-11.143,0-22.98,10.542-22.992,13.964C120.242,110.058,132.707,120.162,143.851,120.162L143.851,120.162z"/>
	<path fill="#E9BB48" d="M143.851,118.858c10.053,0,18.418-9.494,18.572-12.226c0.155-2.727-8.52-12.226-18.572-12.226
		c-10.055,0-18.566,9.131-18.578,12.226C125.26,109.728,133.796,118.858,143.851,118.858L143.851,118.858z"/>
	<path fill="#E9BB48" d="M23.662,139.299c52.113-29.558,123.178-26.782,123.178-26.782s26.692-15.948-14.993-12.276
		c-59.193,5.213-82.609,18.581-102.062,33.948C29.206,134.644,23.181,138.795,23.662,139.299
		C24.027,139.685,23.662,139.299,23.662,139.299L23.662,139.299z"/>
	<path fill="#FFFFFF" d="M64.324,119.483c-0.647,0.146-1.269,0.283-1.927,0.422c-0.049-0.827-0.095-1.788-0.157-2.854
		c0.663-0.188,1.3-0.371,1.963-0.566C64.248,117.58,64.285,118.589,64.324,119.483L64.324,119.483z"/>
	<path fill="#FFFFFF" d="M70.9,115.222c-0.657,0.185-1.288,0.363-1.95,0.547c-0.042,0.953-0.083,1.842-0.121,2.684
		c-0.646,0.152-1.266,0.296-1.917,0.443c0.022-0.795,0.047-1.65,0.07-2.58c-0.636,0.175-1.25,0.341-1.891,0.513
		c-0.002-0.234-0.002-0.381-0.002-0.618c1.977-0.561,3.864-1.1,5.846-1.654C70.922,114.801,70.913,114.972,70.9,115.222
		L70.9,115.222z"/>
	<path fill="#FFFFFF" d="M73.27,114.229c-0.035,0.11-0.063,0.193-0.099,0.308c-0.133,0.387-0.239,0.707-0.362,1.065
		c-0.023,0.057-0.044,0.099-0.072,0.151c-0.072,0.038-0.134,0.075-0.205,0.112c-0.068-0.001-0.126-0.004-0.193-0.01
		c-0.017-0.047-0.026-0.073-0.041-0.121c-0.073-0.418-0.122-0.729-0.185-1.106c-0.007-0.03-0.007-0.053-0.009-0.085
		c0.064-0.092,0.121-0.169,0.184-0.262c0.145-0.064,0.278-0.129,0.424-0.197c0.143-0.006,0.268-0.016,0.412-0.027
		C73.178,114.123,73.213,114.166,73.27,114.229L73.27,114.229z"/>
	<path fill="#FFFFFF" d="M78.783,115.167c-0.085,0.379-0.355,0.655-0.871,0.975c-0.511,0.312-1.114,0.541-1.875,0.713
		c-0.775,0.17-1.415,0.211-1.985,0.123c0.245-0.261,0.456-0.479,0.691-0.73c0.365,0.1,0.707,0.085,1.137-0.012
		c0.238-0.058,0.421-0.129,0.607-0.237c0.18-0.113,0.265-0.201,0.292-0.321c0.02-0.113-0.025-0.178-0.175-0.264
		c-0.239-0.078-0.417-0.139-0.654-0.219c-0.294-0.084-0.542-0.154-0.819-0.237c-0.321-0.14-0.426-0.28-0.388-0.541
		c0.053-0.327,0.296-0.581,0.768-0.879c0.473-0.292,1.05-0.522,1.779-0.713c0.643-0.163,1.212-0.228,1.76-0.209
		c-0.228,0.257-0.44,0.497-0.665,0.75c-0.352,0.002-0.631,0.032-0.896,0.096c-0.431,0.112-0.645,0.228-0.68,0.397
		c0.035,0.06,0.058,0.096,0.096,0.154c0.184,0.062,0.328,0.108,0.512,0.17c0.337,0.088,0.609,0.178,0.901,0.301
		C78.694,114.646,78.841,114.86,78.783,115.167L78.783,115.167z"/>
	<path fill="#FFFFFF" d="M88.401,114.209c-0.719,0.142-1.407,0.278-2.128,0.42c-0.072-0.351-0.123-0.581-0.185-0.889
		c-0.702,0.143-1.375,0.282-2.081,0.426c-0.321,0.374-0.63,0.729-0.947,1.097c-0.52,0.104-1.018,0.203-1.538,0.307
		c1.312-1.529,2.606-3.077,3.98-4.659c0.595-0.13,1.169-0.259,1.772-0.394C87.674,111.765,88.041,112.987,88.401,114.209
		L88.401,114.209L88.401,114.209L88.401,114.209z M85.984,113.151c-0.101-0.448-0.169-0.77-0.258-1.168
		c-0.399,0.496-0.783,0.972-1.181,1.468C85.027,113.351,85.496,113.254,85.984,113.151L85.984,113.151z"/>
	<path fill="#FFFFFF" d="M97.64,112.69c-0.438,0.069-0.854,0.133-1.292,0.203c-0.632-0.681-1.254-1.353-1.913-2.057
		c-0.386,0.866-0.755,1.693-1.145,2.539c-0.536,0.088-1.045,0.167-1.582,0.253c0.653-1.465,1.276-2.938,1.917-4.454
		c0.498-0.092,0.979-0.184,1.479-0.279c0.651,0.674,1.271,1.326,1.907,2.008c0.403-0.871,0.789-1.715,1.195-2.598
		c0.569-0.104,1.119-0.211,1.694-0.322C99.146,109.585,98.42,111.138,97.64,112.69L97.64,112.69z"/>
	<path fill="#FFFFFF" d="M103.718,111.877c-1.542,0.199-3.017,0.392-4.557,0.601c0.843-1.567,1.633-3.146,2.454-4.791
		c1.476-0.254,2.893-0.494,4.382-0.746c-0.167,0.321-0.328,0.632-0.501,0.955c-0.749,0.123-1.468,0.241-2.22,0.361
		c-0.172,0.327-0.33,0.637-0.498,0.963c0.722-0.109,1.416-0.22,2.146-0.333c-0.176,0.327-0.337,0.64-0.513,0.964
		c-0.718,0.104-1.403,0.202-2.124,0.31c-0.207,0.39-0.406,0.764-0.611,1.149c0.86-0.119,1.691-0.235,2.562-0.353
		C104.062,111.274,103.894,111.567,103.718,111.877L103.718,111.877z"/>
	<path fill="#FFFFFF" d="M117.769,105.212c-1.795,2.043-3.467,3.903-5.259,5.739c-0.674,0.067-1.313,0.129-1.987,0.194
		c0.227-1.019,0.426-2.026,0.631-3.104c-1.129,1.171-2.209,2.269-3.352,3.378c-0.658,0.068-1.292,0.131-1.953,0.2
		c0.404-1.562,0.754-3.142,1.113-4.8c0.764-0.159,1.499-0.312,2.271-0.471c-0.381,1.23-0.75,2.401-1.146,3.599
		c1.257-1.286,2.455-2.558,3.731-3.925c0.539-0.08,1.061-0.158,1.602-0.24c-0.271,1.255-0.525,2.445-0.811,3.652
		c1.154-1.338,2.252-2.672,3.428-4.112C116.622,105.287,117.181,105.249,117.769,105.212L117.769,105.212z"/>
	<path fill="#FFFFFF" d="M123.896,110.033c-0.931,0.243-1.693,0.375-2.357,0.409c-1.208,0.062-1.969-0.156-2.376-0.682
		c-0.406-0.523-0.324-1.188,0.246-2.109c0.559-0.881,1.37-1.627,2.53-2.316c1.164-0.686,2.332-1.102,3.604-1.268
		c0.65-0.074,1.186-0.045,1.65,0.103c-0.435,0.421-0.848,0.822-1.275,1.235c-0.27-0.045-0.561-0.051-0.896-0.016
		c-0.695,0.078-1.342,0.312-1.989,0.717c-0.644,0.408-1.124,0.879-1.492,1.451c-0.333,0.527-0.437,0.933-0.315,1.26
		c0.129,0.36,0.416,0.465,0.926,0.435c0.113-0.019,0.235-0.036,0.342-0.058c0.352-0.522,0.68-1.032,1.031-1.573
		c0.701-0.058,1.377-0.108,2.088-0.167C125.032,108.353,124.479,109.188,123.896,110.033L123.896,110.033z"/>
	<path fill="#FFFFFF" d="M131.412,110.022c-0.74,0.018-1.444,0.029-2.185,0.045c0.172-0.494,0.334-0.979,0.506-1.494
		c-0.721,0.025-1.414,0.058-2.137,0.086c-0.562,0.515-1.111,0.996-1.682,1.49c-0.539,0.018-1.055,0.031-1.592,0.047
		c2.381-2.051,4.613-4.194,7.117-6.692c0.613-0.062,1.203-0.12,1.824-0.188C132.558,105.755,132.006,107.921,131.412,110.022
		L131.412,110.022L131.412,110.022L131.412,110.022z M130.086,107.567c0.224-0.682,0.438-1.354,0.67-2.067
		c-0.729,0.743-1.422,1.438-2.146,2.144C129.106,107.617,129.586,107.595,130.086,107.567L130.086,107.567z"/>
	<path fill="#FFFFFF" d="M139.719,110.114c-0.657-0.012-1.284-0.022-1.942-0.037c0.804-1.151,1.572-2.315,2.416-3.604
		c0.35-0.514,0.686-1.018,1.048-1.558c-0.419,0.481-0.884,0.994-1.435,1.567c-1.231,1.277-2.383,2.429-3.591,3.568
		c-0.282,0.004-0.571-0.005-0.86-0.01c0.371-1.117,0.73-2.238,1.135-3.466c0.175-0.483,0.347-0.955,0.535-1.459
		c-0.315,0.509-0.613,0.979-0.924,1.469c-0.804,1.222-1.549,2.331-2.338,3.44c-0.539-0.004-1.05-0.008-1.593-0.012
		c1.542-2.16,2.992-4.425,4.711-7.07c0.853-0.067,1.67-0.129,2.53-0.203c-0.602,1.656-1.102,3.148-1.596,4.638
		c1.477-1.521,2.918-3.082,4.541-4.873c0.828-0.065,1.625-0.131,2.461-0.2C142.896,105.276,141.34,107.757,139.719,110.114
		L139.719,110.114z"/>
	<path fill="#FFFFFF" d="M145.751,110.418c-1.531-0.085-2.996-0.16-4.523-0.233c1.646-2.386,3.244-4.91,5.242-7.971
		c1.444-0.074,2.834-0.156,4.297-0.24c-0.399,0.612-0.77,1.185-1.145,1.77c-0.729,0.023-1.43,0.044-2.165,0.066
		c-0.372,0.58-0.724,1.125-1.079,1.681c0.702,0,1.379-0.011,2.089-0.015c-0.354,0.556-0.688,1.075-1.028,1.612
		c-0.699-0.013-1.371-0.021-2.07-0.03c-0.412,0.637-0.803,1.229-1.2,1.834c0.849,0.034,1.663,0.062,2.519,0.094
		C146.366,109.479,146.065,109.938,145.751,110.418L145.751,110.418z"/>
	<path fill="#FFFFFF" stroke="#000000" stroke-width="1.2929" stroke-miterlimit="2.6131" d="M64.324,119.483
		c-0.647,0.146-1.269,0.283-1.927,0.422c-0.049-0.827-0.095-1.788-0.157-2.854c0.663-0.188,1.3-0.371,1.963-0.566
		C64.248,117.58,64.285,118.589,64.324,119.483L64.324,119.483L64.324,119.483z"/>
	<path fill="#FFFFFF" stroke="#000000" stroke-width="1.2929" stroke-miterlimit="2.6131" d="M70.9,115.222
		c-0.657,0.185-1.288,0.363-1.95,0.547c-0.042,0.953-0.083,1.842-0.121,2.684c-0.646,0.152-1.266,0.296-1.917,0.443
		c0.022-0.795,0.047-1.65,0.07-2.58c-0.636,0.175-1.25,0.341-1.891,0.513c-0.002-0.234-0.002-0.381-0.002-0.618
		c1.977-0.561,3.864-1.1,5.846-1.654C70.922,114.801,70.913,114.972,70.9,115.222L70.9,115.222L70.9,115.222z"/>
	<path fill="#FFFFFF" stroke="#000000" stroke-width="1.2929" stroke-miterlimit="2.6131" d="M73.27,114.229
		c-0.035,0.11-0.063,0.193-0.099,0.308c-0.133,0.387-0.239,0.707-0.362,1.065c-0.023,0.057-0.044,0.099-0.072,0.151
		c-0.072,0.038-0.134,0.075-0.205,0.112c-0.068-0.001-0.126-0.004-0.193-0.01c-0.017-0.047-0.026-0.073-0.041-0.121
		c-0.073-0.418-0.122-0.729-0.185-1.106c-0.007-0.03-0.007-0.053-0.009-0.085c0.064-0.092,0.121-0.169,0.184-0.262
		c0.145-0.064,0.278-0.129,0.424-0.197c0.143-0.006,0.268-0.016,0.412-0.027C73.178,114.123,73.213,114.166,73.27,114.229
		L73.27,114.229L73.27,114.229z"/>
	<path fill="#FFFFFF" stroke="#000000" stroke-width="1.2929" stroke-miterlimit="2.6131" d="M78.783,115.167
		c-0.085,0.379-0.355,0.655-0.871,0.975c-0.511,0.312-1.114,0.541-1.875,0.713c-0.775,0.17-1.415,0.211-1.985,0.123
		c0.245-0.261,0.456-0.479,0.691-0.73c0.365,0.1,0.707,0.085,1.137-0.012c0.238-0.058,0.421-0.129,0.607-0.237
		c0.18-0.113,0.265-0.201,0.292-0.321c0.02-0.113-0.025-0.178-0.175-0.264c-0.239-0.078-0.417-0.139-0.654-0.219
		c-0.294-0.084-0.542-0.154-0.819-0.237c-0.321-0.14-0.426-0.28-0.388-0.541c0.053-0.327,0.296-0.581,0.768-0.879
		c0.473-0.292,1.05-0.522,1.779-0.713c0.643-0.163,1.212-0.228,1.76-0.209c-0.228,0.257-0.44,0.497-0.665,0.75
		c-0.352,0.002-0.631,0.032-0.896,0.096c-0.431,0.112-0.645,0.228-0.68,0.397c0.035,0.06,0.058,0.096,0.096,0.154
		c0.184,0.062,0.328,0.108,0.512,0.17c0.337,0.088,0.609,0.178,0.901,0.301C78.694,114.646,78.841,114.86,78.783,115.167
		L78.783,115.167L78.783,115.167z"/>
	<path fill="#FFFFFF" d="M88.401,114.209c-0.719,0.142-1.407,0.278-2.128,0.42c-0.072-0.351-0.123-0.581-0.185-0.889
		c-0.702,0.143-1.375,0.282-2.081,0.426c-0.321,0.374-0.63,0.729-0.947,1.097c-0.52,0.104-1.018,0.203-1.538,0.307
		c1.312-1.529,2.606-3.077,3.98-4.659c0.595-0.13,1.169-0.259,1.772-0.394C87.674,111.765,88.041,112.987,88.401,114.209
		L88.401,114.209L88.401,114.209L88.401,114.209z M85.984,113.151c-0.101-0.448-0.169-0.77-0.258-1.168
		c-0.399,0.496-0.783,0.972-1.181,1.468C85.027,113.351,85.496,113.254,85.984,113.151L85.984,113.151L85.984,113.151z"/>
	<path fill="none" stroke="#000000" stroke-width="1.2929" stroke-miterlimit="2.6131" d="M88.401,114.209
		c-0.719,0.142-1.407,0.278-2.128,0.42c-0.072-0.351-0.123-0.581-0.185-0.889c-0.702,0.143-1.375,0.282-2.081,0.426
		c-0.321,0.374-0.63,0.729-0.947,1.097c-0.52,0.104-1.018,0.203-1.538,0.307c1.312-1.529,2.606-3.077,3.98-4.659
		c0.595-0.13,1.169-0.259,1.772-0.394C87.674,111.765,88.041,112.987,88.401,114.209L88.401,114.209 M85.984,113.151
		c-0.101-0.448-0.169-0.77-0.258-1.168c-0.399,0.496-0.783,0.972-1.181,1.468C85.027,113.351,85.496,113.254,85.984,113.151
		L85.984,113.151L85.984,113.151z"/>
	<path fill="#FFFFFF" stroke="#000000" stroke-width="1.2929" stroke-miterlimit="2.6131" d="M97.64,112.69
		c-0.438,0.069-0.854,0.133-1.292,0.203c-0.632-0.681-1.254-1.353-1.913-2.057c-0.386,0.866-0.755,1.693-1.145,2.539
		c-0.536,0.088-1.045,0.167-1.582,0.253c0.653-1.465,1.276-2.938,1.917-4.454c0.498-0.092,0.979-0.184,1.479-0.279
		c0.651,0.674,1.271,1.326,1.907,2.008c0.403-0.871,0.789-1.715,1.195-2.598c0.569-0.104,1.119-0.211,1.694-0.322
		C99.146,109.585,98.42,111.138,97.64,112.69L97.64,112.69L97.64,112.69z"/>
	<path fill="#FFFFFF" stroke="#000000" stroke-width="1.2929" stroke-miterlimit="2.6131" d="M103.718,111.877
		c-1.542,0.199-3.017,0.392-4.557,0.601c0.843-1.567,1.633-3.146,2.454-4.791c1.476-0.254,2.893-0.494,4.382-0.746
		c-0.167,0.321-0.328,0.632-0.501,0.955c-0.749,0.123-1.468,0.241-2.22,0.361c-0.172,0.327-0.33,0.637-0.498,0.963
		c0.722-0.109,1.416-0.22,2.146-0.333c-0.176,0.327-0.337,0.64-0.513,0.964c-0.718,0.104-1.403,0.202-2.124,0.31
		c-0.207,0.39-0.406,0.764-0.611,1.149c0.86-0.119,1.691-0.235,2.562-0.353C104.062,111.274,103.894,111.567,103.718,111.877
		L103.718,111.877L103.718,111.877z"/>
	<path fill="#FFFFFF" stroke="#000000" stroke-width="1.2929" stroke-miterlimit="2.6131" d="M117.769,105.212
		c-1.795,2.043-3.467,3.903-5.259,5.739c-0.674,0.067-1.313,0.129-1.987,0.194c0.227-1.019,0.426-2.026,0.631-3.104
		c-1.129,1.171-2.209,2.269-3.352,3.378c-0.658,0.068-1.292,0.131-1.953,0.2c0.404-1.562,0.754-3.142,1.113-4.8
		c0.764-0.159,1.499-0.312,2.271-0.471c-0.381,1.23-0.75,2.401-1.146,3.599c1.257-1.286,2.455-2.558,3.731-3.925
		c0.539-0.08,1.061-0.158,1.602-0.24c-0.271,1.255-0.525,2.445-0.811,3.652c1.154-1.338,2.252-2.672,3.428-4.112
		C116.622,105.287,117.181,105.249,117.769,105.212L117.769,105.212L117.769,105.212z"/>
	<path fill="#FFFFFF" stroke="#000000" stroke-width="1.2929" stroke-miterlimit="2.6131" d="M123.896,110.033
		c-0.931,0.243-1.693,0.375-2.357,0.409c-1.208,0.062-1.969-0.156-2.376-0.682c-0.406-0.523-0.324-1.188,0.246-2.109
		c0.559-0.881,1.37-1.627,2.53-2.316c1.164-0.686,2.332-1.102,3.604-1.268c0.65-0.074,1.186-0.045,1.65,0.103
		c-0.435,0.421-0.848,0.822-1.275,1.235c-0.27-0.045-0.561-0.051-0.896-0.016c-0.695,0.078-1.342,0.312-1.989,0.717
		c-0.644,0.408-1.124,0.879-1.492,1.451c-0.333,0.527-0.437,0.933-0.315,1.26c0.129,0.36,0.416,0.465,0.926,0.435
		c0.113-0.019,0.235-0.036,0.342-0.058c0.352-0.522,0.68-1.032,1.031-1.573c0.701-0.058,1.377-0.108,2.088-0.167
		C125.032,108.353,124.479,109.188,123.896,110.033L123.896,110.033L123.896,110.033z"/>
	<path fill="#FFFFFF" d="M131.412,110.022c-0.74,0.018-1.444,0.029-2.185,0.045c0.172-0.494,0.334-0.979,0.506-1.494
		c-0.721,0.025-1.414,0.058-2.137,0.086c-0.562,0.515-1.111,0.996-1.682,1.49c-0.539,0.018-1.055,0.031-1.592,0.047
		c2.381-2.051,4.613-4.194,7.117-6.692c0.613-0.062,1.203-0.12,1.824-0.188C132.558,105.755,132.006,107.921,131.412,110.022
		L131.412,110.022L131.412,110.022L131.412,110.022z M130.086,107.567c0.224-0.682,0.438-1.354,0.67-2.067
		c-0.729,0.743-1.422,1.438-2.146,2.144C129.106,107.617,129.586,107.595,130.086,107.567L130.086,107.567L130.086,107.567z"/>
	<path fill="none" stroke="#000000" stroke-width="1.2929" stroke-miterlimit="2.6131" d="M131.412,110.022
		c-0.74,0.018-1.444,0.029-2.185,0.045c0.172-0.494,0.334-0.979,0.506-1.494c-0.721,0.025-1.414,0.058-2.137,0.086
		c-0.562,0.515-1.111,0.996-1.682,1.49c-0.539,0.018-1.055,0.031-1.592,0.047c2.381-2.051,4.613-4.194,7.117-6.692
		c0.613-0.062,1.203-0.12,1.824-0.188C132.558,105.755,132.006,107.921,131.412,110.022L131.412,110.022 M130.086,107.567
		c0.224-0.682,0.438-1.354,0.67-2.067c-0.729,0.743-1.422,1.438-2.146,2.144C129.106,107.617,129.586,107.595,130.086,107.567
		L130.086,107.567L130.086,107.567z"/>
	<path fill="#FFFFFF" stroke="#000000" stroke-width="1.2929" stroke-miterlimit="2.6131" d="M139.719,110.114
		c-0.657-0.012-1.284-0.022-1.942-0.037c0.804-1.151,1.572-2.315,2.416-3.604c0.35-0.514,0.686-1.018,1.048-1.558
		c-0.419,0.481-0.884,0.994-1.435,1.567c-1.231,1.277-2.383,2.429-3.591,3.568c-0.282,0.004-0.571-0.005-0.86-0.01
		c0.371-1.117,0.73-2.238,1.135-3.466c0.175-0.483,0.347-0.955,0.535-1.459c-0.315,0.509-0.613,0.979-0.924,1.469
		c-0.804,1.222-1.549,2.331-2.338,3.44c-0.539-0.004-1.05-0.008-1.593-0.012c1.542-2.16,2.992-4.425,4.711-7.07
		c0.853-0.067,1.67-0.129,2.53-0.203c-0.602,1.656-1.102,3.148-1.596,4.638c1.477-1.521,2.918-3.082,4.541-4.873
		c0.828-0.065,1.625-0.131,2.461-0.2C142.896,105.276,141.34,107.757,139.719,110.114L139.719,110.114L139.719,110.114z"/>
	<path fill="#FFFFFF" stroke="#000000" stroke-width="1.2929" stroke-miterlimit="2.6131" d="M145.751,110.418
		c-1.531-0.085-2.996-0.16-4.523-0.233c1.646-2.386,3.244-4.91,5.242-7.971c1.444-0.074,2.834-0.156,4.297-0.24
		c-0.399,0.612-0.77,1.185-1.145,1.77c-0.729,0.023-1.43,0.044-2.165,0.066c-0.372,0.58-0.724,1.125-1.079,1.681
		c0.702,0,1.379-0.011,2.089-0.015c-0.354,0.556-0.688,1.075-1.028,1.612c-0.699-0.013-1.371-0.021-2.07-0.03
		c-0.412,0.637-0.803,1.229-1.2,1.834c0.849,0.034,1.663,0.062,2.519,0.094C146.366,109.479,146.065,109.938,145.751,110.418
		L145.751,110.418L145.751,110.418z"/>
	<path fill="#FFFFFF" d="M64.324,119.483c-0.647,0.146-1.269,0.283-1.927,0.422c-0.049-0.827-0.095-1.788-0.157-2.854
		c0.663-0.188,1.3-0.371,1.963-0.566C64.248,117.58,64.285,118.589,64.324,119.483L64.324,119.483z"/>
	<path fill="#FFFFFF" d="M70.9,115.222c-0.657,0.185-1.288,0.363-1.95,0.547c-0.042,0.953-0.083,1.842-0.121,2.684
		c-0.646,0.152-1.266,0.296-1.917,0.443c0.022-0.795,0.047-1.65,0.07-2.58c-0.636,0.175-1.25,0.341-1.891,0.513
		c-0.002-0.234-0.002-0.381-0.002-0.618c1.977-0.561,3.864-1.1,5.846-1.654C70.922,114.801,70.913,114.972,70.9,115.222
		L70.9,115.222z"/>
	<path fill="#FFFFFF" d="M73.27,114.229c-0.035,0.11-0.063,0.193-0.099,0.308c-0.133,0.387-0.239,0.707-0.362,1.065
		c-0.023,0.057-0.044,0.099-0.072,0.151c-0.072,0.038-0.134,0.075-0.205,0.112c-0.068-0.001-0.126-0.004-0.193-0.01
		c-0.017-0.047-0.026-0.073-0.041-0.121c-0.073-0.418-0.122-0.729-0.185-1.106c-0.007-0.03-0.007-0.053-0.009-0.085
		c0.064-0.092,0.121-0.169,0.184-0.262c0.145-0.064,0.278-0.129,0.424-0.197c0.143-0.006,0.268-0.016,0.412-0.027
		C73.178,114.123,73.213,114.166,73.27,114.229L73.27,114.229z"/>
	<path fill="#FFFFFF" d="M78.783,115.167c-0.085,0.379-0.355,0.655-0.871,0.975c-0.511,0.312-1.114,0.541-1.875,0.713
		c-0.775,0.17-1.415,0.211-1.985,0.123c0.245-0.261,0.456-0.479,0.691-0.73c0.365,0.1,0.707,0.085,1.137-0.012
		c0.238-0.058,0.421-0.129,0.607-0.237c0.18-0.113,0.265-0.201,0.292-0.321c0.02-0.113-0.025-0.178-0.175-0.264
		c-0.239-0.078-0.417-0.139-0.654-0.219c-0.294-0.084-0.542-0.154-0.819-0.237c-0.321-0.14-0.426-0.28-0.388-0.541
		c0.053-0.327,0.296-0.581,0.768-0.879c0.473-0.292,1.05-0.522,1.779-0.713c0.643-0.163,1.212-0.228,1.76-0.209
		c-0.228,0.257-0.44,0.497-0.665,0.75c-0.352,0.002-0.631,0.032-0.896,0.096c-0.431,0.112-0.645,0.228-0.68,0.397
		c0.035,0.06,0.058,0.096,0.096,0.154c0.184,0.062,0.328,0.108,0.512,0.17c0.337,0.088,0.609,0.178,0.901,0.301
		C78.694,114.646,78.841,114.86,78.783,115.167L78.783,115.167z"/>
	<path fill="#FFFFFF" d="M88.401,114.209c-0.719,0.142-1.407,0.278-2.128,0.42c-0.072-0.351-0.123-0.581-0.185-0.889
		c-0.702,0.143-1.375,0.282-2.081,0.426c-0.321,0.374-0.63,0.729-0.947,1.097c-0.52,0.104-1.018,0.203-1.538,0.307
		c1.312-1.529,2.606-3.077,3.98-4.659c0.595-0.13,1.169-0.259,1.772-0.394C87.674,111.765,88.041,112.987,88.401,114.209
		L88.401,114.209L88.401,114.209L88.401,114.209z M85.984,113.151c-0.101-0.448-0.169-0.77-0.258-1.168
		c-0.399,0.496-0.783,0.972-1.181,1.468C85.027,113.351,85.496,113.254,85.984,113.151L85.984,113.151z"/>
	<path fill="#FFFFFF" d="M97.64,112.69c-0.438,0.069-0.854,0.133-1.292,0.203c-0.632-0.681-1.254-1.353-1.913-2.057
		c-0.386,0.866-0.755,1.693-1.145,2.539c-0.536,0.088-1.045,0.167-1.582,0.253c0.653-1.465,1.276-2.938,1.917-4.454
		c0.498-0.092,0.979-0.184,1.479-0.279c0.651,0.674,1.271,1.326,1.907,2.008c0.403-0.871,0.789-1.715,1.195-2.598
		c0.569-0.104,1.119-0.211,1.694-0.322C99.146,109.585,98.42,111.138,97.64,112.69L97.64,112.69z"/>
	<path fill="#FFFFFF" d="M103.718,111.877c-1.542,0.199-3.017,0.392-4.557,0.601c0.843-1.567,1.633-3.146,2.454-4.791
		c1.476-0.254,2.893-0.494,4.382-0.746c-0.167,0.321-0.328,0.632-0.501,0.955c-0.749,0.123-1.468,0.241-2.22,0.361
		c-0.172,0.327-0.33,0.637-0.498,0.963c0.722-0.109,1.416-0.22,2.146-0.333c-0.176,0.327-0.337,0.64-0.513,0.964
		c-0.718,0.104-1.403,0.202-2.124,0.31c-0.207,0.39-0.406,0.764-0.611,1.149c0.86-0.119,1.691-0.235,2.562-0.353
		C104.062,111.274,103.894,111.567,103.718,111.877L103.718,111.877z"/>
	<path fill="#FFFFFF" d="M117.769,105.212c-1.795,2.043-3.467,3.903-5.259,5.739c-0.674,0.067-1.313,0.129-1.987,0.194
		c0.227-1.019,0.426-2.026,0.631-3.104c-1.129,1.171-2.209,2.269-3.352,3.378c-0.658,0.068-1.292,0.131-1.953,0.2
		c0.404-1.562,0.754-3.142,1.113-4.8c0.764-0.159,1.499-0.312,2.271-0.471c-0.381,1.23-0.75,2.401-1.146,3.599
		c1.257-1.286,2.455-2.558,3.731-3.925c0.539-0.08,1.061-0.158,1.602-0.24c-0.271,1.255-0.525,2.445-0.811,3.652
		c1.154-1.338,2.252-2.672,3.428-4.112C116.622,105.287,117.181,105.249,117.769,105.212L117.769,105.212z"/>
	<path fill="#FFFFFF" d="M123.896,110.033c-0.931,0.243-1.693,0.375-2.357,0.409c-1.208,0.062-1.969-0.156-2.376-0.682
		c-0.406-0.523-0.324-1.188,0.246-2.109c0.559-0.881,1.37-1.627,2.53-2.316c1.164-0.686,2.332-1.102,3.604-1.268
		c0.65-0.074,1.186-0.045,1.65,0.103c-0.435,0.421-0.848,0.822-1.275,1.235c-0.27-0.045-0.561-0.051-0.896-0.016
		c-0.695,0.078-1.342,0.312-1.989,0.717c-0.644,0.408-1.124,0.879-1.492,1.451c-0.333,0.527-0.437,0.933-0.315,1.26
		c0.129,0.36,0.416,0.465,0.926,0.435c0.113-0.019,0.235-0.036,0.342-0.058c0.352-0.522,0.68-1.032,1.031-1.573
		c0.701-0.058,1.377-0.108,2.088-0.167C125.032,108.353,124.479,109.188,123.896,110.033L123.896,110.033z"/>
	<path fill="#FFFFFF" d="M131.412,110.022c-0.74,0.018-1.444,0.029-2.185,0.045c0.172-0.494,0.334-0.979,0.506-1.494
		c-0.721,0.025-1.414,0.058-2.137,0.086c-0.562,0.515-1.111,0.996-1.682,1.49c-0.539,0.018-1.055,0.031-1.592,0.047
		c2.381-2.051,4.613-4.194,7.117-6.692c0.613-0.062,1.203-0.12,1.824-0.188C132.558,105.755,132.006,107.921,131.412,110.022
		L131.412,110.022L131.412,110.022L131.412,110.022z M130.086,107.567c0.224-0.682,0.438-1.354,0.67-2.067
		c-0.729,0.743-1.422,1.438-2.146,2.144C129.106,107.617,129.586,107.595,130.086,107.567L130.086,107.567z"/>
	<path fill="#FFFFFF" d="M139.719,110.114c-0.657-0.012-1.284-0.022-1.942-0.037c0.804-1.151,1.572-2.315,2.416-3.604
		c0.35-0.514,0.686-1.018,1.048-1.558c-0.419,0.481-0.884,0.994-1.435,1.567c-1.231,1.277-2.383,2.429-3.591,3.568
		c-0.282,0.004-0.571-0.005-0.86-0.01c0.371-1.117,0.73-2.238,1.135-3.466c0.175-0.483,0.347-0.955,0.535-1.459
		c-0.315,0.509-0.613,0.979-0.924,1.469c-0.804,1.222-1.549,2.331-2.338,3.44c-0.539-0.004-1.05-0.008-1.593-0.012
		c1.542-2.16,2.992-4.425,4.711-7.07c0.853-0.067,1.67-0.129,2.53-0.203c-0.602,1.656-1.102,3.148-1.596,4.638
		c1.477-1.521,2.918-3.082,4.541-4.873c0.828-0.065,1.625-0.131,2.461-0.2C142.896,105.276,141.34,107.757,139.719,110.114
		L139.719,110.114z"/>
	<path fill="#FFFFFF" d="M145.751,110.418c-1.531-0.085-2.996-0.16-4.523-0.233c1.646-2.386,3.244-4.91,5.242-7.971
		c1.444-0.074,2.834-0.156,4.297-0.24c-0.399,0.612-0.77,1.185-1.145,1.77c-0.729,0.023-1.43,0.044-2.165,0.066
		c-0.372,0.58-0.724,1.125-1.079,1.681c0.702,0,1.379-0.011,2.089-0.015c-0.354,0.556-0.688,1.075-1.028,1.612
		c-0.699-0.013-1.371-0.021-2.07-0.03c-0.412,0.637-0.803,1.229-1.2,1.834c0.849,0.034,1.663,0.062,2.519,0.094
		C146.366,109.479,146.065,109.938,145.751,110.418L145.751,110.418z"/>
	<path d="M155.06,92.444c-1.492,3.113-4.67,5.292-7.037,5.036c-2.324-0.17-3.108-3.07-1.809-6.646
		c1.264-3.666,4.271-6.262,6.794-5.63C155.563,85.925,156.513,89.241,155.06,92.444L155.06,92.444z"/>
	<path fill="#FFFFFF" d="M153.476,92.07c-0.941,2.062-2.99,3.505-4.541,3.3c-1.439-0.157-2.004-2.201-1.195-4.338
		c0.841-2.304,2.811-3.93,4.432-3.561C153.802,87.878,154.401,89.971,153.476,92.07L153.476,92.07z"/>
	<path fill="#D2656C" d="M152.717,91.913c-0.688,1.564-2.194,2.664-3.353,2.494c-1.146-0.151-1.547-1.599-0.902-3.271
		c0.637-1.692,2.104-2.891,3.298-2.632C152.962,88.781,153.396,90.324,152.717,91.913L152.717,91.913z"/>
	<path d="M149.665,93.554c2.277-0.307,2.7-2.098,2.785-3.159C152.45,90.395,151.451,92.572,149.665,93.554L149.665,93.554z"/>
	<path d="M170.907,82.364c-0.566-0.273-1.118-0.599-0.575-0.986L170.907,82.364L170.907,82.364z M171.378,59.844
		c-0.064-0.068,0.661-2.121,0.589-2.188c-1.161-2.086-2.626-4.572-5.67-4.736c-3.022-4.802-5.169-4.824-5.616-4.791
		c-0.392,0.014-4.815,0.369-2.125,3.716c0.437,0.545,0.938,1.143,1.094,2.123c-1.104,0.356-2.654,1.088-3.584,2.528
		c-0.807,1.25-0.969,2.725-0.494,4.389c-0.86,3.279,0.753,8.171,0.753,8.171c0.556,1.749,1.85,5.841-3.896,12.525
		c-1.381,1.637-1.554,3.504-0.445,4.77c0.619,0.708,2.516,2.121,6.736-0.031c0.997-0.523,3.383-2.162,4.643-3.007L171.378,59.844
		L171.378,59.844z"/>
	<path fill="#FFFFFF" d="M179.687,67.267c1.176-0.061,2.78-0.203,3.932-2.784l0.635-1.846c-1.054,1.147-3.094,2.271-4.97,1.972
		c-0.414-0.067-2.271,0.001-3.282,0.68c-0.49,0.331-1.124,0.449-1.413,0.406c-0.427-0.063-0.526-1.209,0.646-1.071
		c1.317,0.156,2.183-1.101,2.183-1.101s-0.938-0.062-0.949-0.731c-0.006-0.282,0.345-0.755,1.232-1.09l1.263-0.478l-1.216-0.64
		c-0.709-0.374-1.254-0.405-1.688-0.282c0.104-0.229,0.141-0.476,0.162-0.659c0.066-0.497,0.125-0.925,1.391-1.229l2.488-0.29
		l-2.525-0.9c-1.327-0.266-2.188,0.288-2.883,0.733c-0.653,0.42-1.028,0.628-1.602,0.408c-1.166-0.731-1.418-0.799-2.089-0.915
		c-0.146-0.027-2.692-0.515-2.897-0.558c-0.052-0.063,2.275,0.332,2.219,0.268c-0.992-1.963-9.467,25.887-8.399,25.09
		c0.022,0.032,1.297,3.42,4.376,2.695c0.536-0.128,0.924-0.411,1.24-0.69c1.488-1.319,4.365,0.74,4.365,0.74l-0.039-1.031
		c-0.061-1.594-1.174-2.188-1.913-2.583c-0.481-0.254-0.949-0.561-0.488-0.926c0.293-0.228,1.917,1.083,1.917,1.083
		c0.862,0.477,1.938,0.303,2.559-0.411l0.711-0.821c0,0-2.571-0.2-1.543-1.125c0.473-0.432,2.748,0.783,2.748,0.783
		c1.422,0.52,2.522-0.026,2.944-0.752l0.925-1.595l-1.643,0.707c-0.766,0.331-1.281-0.071-2.062-0.751
		c-0.455-0.398-0.931-0.812-1.502-0.956c-0.668-0.172-1.466-0.053-2.061,0.31c-1.411,0.86-1.441-1.185-0.068-0.669
		c0.327,0.124,0.737,0.104,1.156,0.113c0.952-0.033,1.616-0.492,2.122-0.899c0.944-0.756,1.999-0.567,2.72-0.339l2.15,0.625
		l-1.631-1.672c-1.27-1.107-2.231-1.297-3.471-1.253c-0.439,0.016-0.779,0.186-1.091,0.307c-1.194,0.465-1.387-0.492-1.364-0.741
		c0.246,0.211,1.342,1.035,3.356-0.074l1.353-0.944l-1.629-0.168c-2.102,0.026-1.526-1.82-0.033-0.958
		c0.854,0.493,2.496,0.764,3.723-0.657l1.085-1.262l-1.604,0.248C178.304,68.797,177.677,67.37,179.687,67.267L179.687,67.267
		L179.687,67.267L179.687,67.267z M174.911,61.053c-0.057,0.051-0.109,0.105-0.167,0.161c-0.181,0.176-0.556,0.547-0.755,0.534
		c-0.051-0.002-0.11-0.06-0.15-0.112c-0.038-0.041-0.146-0.188-0.093-0.317c0.071-0.169,0.412-0.339,1.011-0.336
		c0.09,0,0.168-0.006,0.243-0.013C174.969,60.998,174.942,61.026,174.911,61.053L174.911,61.053z"/>
	<path fill="#E9BB48" d="M157.413,82.167c2.257-0.252,5.206-0.554,5.759,0.8c0.478,1.165,1.427,1.774,2.979,1.386
		c1.476-0.367,1.504-2.354,5.136-0.372c-0.089-2.436-3.276-1.79-2.478-3.663c0.607-1.24,2.273,0.288,2.828,0.684
		c0.674,0.37,1.459,0.184,1.869-0.289c-0.869-0.162-1.372-0.593-1.277-1.239c0.479-1.761,2.533-0.688,3.801-0.083
		c1.084,0.396,1.955,0.044,2.271-0.5c-1.767,0.76-2.707-1.363-3.912-1.68c-1.221-0.32-1.359,0.324-2.035,0.513
		c-0.854,0.235-1.586,0.174-1.642-1.021c-0.073-1.52,1.599-1.056,2.828-0.94c1.218-0.041,1.91-1.086,2.631-1.29
		c0.745-0.203,1.538-0.185,2.37,0.079c-1.12-0.975-1.921-1.154-3.079-1.112c-0.749,0.027-1.224,0.62-1.94,0.473
		c-1.938-0.386-0.795-2.733-0.811-2.818c1.098,2.265,3.297,0.723,3.297,0.723s-1.859-0.192-2.01-1.346
		c-0.012-0.947,0.477-0.887,1.15-0.983c0.814-0.17,2.74,1.353,4.162-0.303c-1.078,0.165-1.965-0.526-1.558-1.524
		c0.86-2.108,3.593,0.481,5.343-3.445c-1.449,1.399-3.707,0.88-4.896,1.021c-1.81,0.035-3.663,2.249-4.441,0.276
		c-0.284-0.744,0.144-1.099,0.695-1.416c0.614-0.324,1.354,0.283,1.979-0.397c-1.033-0.519-0.578-1.958,1.055-2.572
		c-1.135-0.6-1.631-0.144-2.202,0.388c-0.386,0.351-1.188,1.347-1.882,0.519c-0.536-0.643-0.277-1.669,1.339-1.663
		c1.79,0.003-0.22-1.848,2.728-2.551c-2.22-0.443-2.848,1.827-4.619,1.097c-1.521-0.955-1.369-0.722-2.608-0.997
		c-0.888-0.028-3.085,8.414-6.358,14.633C160.614,78.772,157.413,82.167,157.413,82.167L157.413,82.167z"/>
	<path fill="#FFFFFF" d="M171.789,69.818c0.981-4.213,0.813-9.361-1.938-12.302c-0.951-1.938-2.467-3.017-4.32-3.088
		c-2.684-4.844-4.203-4.65-4.203-4.65s-1.469,0.053-1.818,0.758c-0.726,1.447,1.402,1.819,1.518,4.568
		c-0.893,0.257-2.357,0.868-3.17,2.269c-0.623,1.066-0.726,2.344-0.325,3.793c-0.425,1.943-0.237,4.417,0.553,7.36
		c0.004,0.012,0.05,0.173,0.05,0.173c0.496,1.737,1.657,5.808-3.412,12.346c-0.99,1.298-1.145,2.755-0.39,3.709
		c0.435,0.55,1.791,1.632,4.998-0.182c1.63-0.947,5.11-3.366,8.396-6.8C169.577,75.842,171.172,72.504,171.789,69.818
		L171.789,69.818z"/>
	<path fill="#D2656C" d="M155.478,81.704c-1.483,1.956-0.414,4.104,3.381,1.956c3.597-2.094,14.129-8.422,12.367-21.229
		c-0.807-3.589-2.834-6.667-8.402-5.356c-2.743,0.715-6.042,2.845-3.797,11.184C159.513,69.998,161.032,74.542,155.478,81.704
		L155.478,81.704z"/>
	<path fill="#E9BB48" d="M160.334,51.286c0,0,2.16,2.244,1.574,4.676c-0.003,0.003-6.688,0.921-1.935,8.005
		c0-0.001-0.555-4.491,2.297-4.761c0,0,2.008,1.44,2.307,4.883c0,0,2.042-3.088,0.682-5.571c0,0,2.45-1.336,4.643,2.975
		c0-0.002-0.352-6.375-4.904-6.025c-0.002-0.003-2.495-4.55-3.695-4.656C160.097,50.807,160.334,51.286,160.334,51.286
		L160.334,51.286z"/>
	<path d="M169.563,64.823c0.567,1.885-0.291,10.158-10.396,16.919c0.003-0.004,10.548-8.91,8.751-19.908
		C169.399,62.63,169.563,64.823,169.563,64.823L169.563,64.823z"/>
	<polygon points="158.531,123.006 158.026,123.006 158.026,121.015 157.295,121.015 157.295,120.586 159.263,120.586 
		159.263,121.015 158.531,121.015 	"/>
	<polygon points="161.884,123.006 161.412,123.006 161.412,120.981 161.405,120.981 160.954,123.006 160.459,123.006 
		160.019,120.981 160.011,120.981 160.011,123.006 159.539,123.006 159.539,120.586 160.276,120.586 160.715,122.492 
		160.722,122.492 161.151,120.586 161.884,120.586 	"/>
</g>
</svg>
