<?xml version="1.0" encoding="utf-8"?>
<!-- Generator: Adobe Illustrator 16.0.0, SVG Export Plug-In . SVG Version: 6.00 Build 0)  -->
<!DOCTYPE svg PUBLIC "-//W3C//DTD SVG 1.1//EN" "http://www.w3.org/Graphics/SVG/1.1/DTD/svg11.dtd">
<svg version="1.1" id="Layer_1" xmlns="http://www.w3.org/2000/svg" xmlns:xlink="http://www.w3.org/1999/xlink" x="0px" y="0px"
	 width="175.748px" height="107.793px" viewBox="8.503 42.483 175.748 107.793"
	 enable-background="new 8.503 42.483 175.748 107.793" xml:space="preserve">
<g>
	<path fill="#262729" d="M28.576,89.641c-0.234-0.468-0.234-0.937-0.234-1.405v-5.15c0.468,0,1.873,0.468,1.873,1.639
		c0,1.17-1.639,1.639-1.873,1.639c0,0,1.17,1.404,2.107,2.341c0.468,0.468,0.937,0.702,1.405,0.937c0.234,0,0.702,0,0.702,0
		c-0.468-0.234-1.873-1.639-2.809-3.043c0.468-0.234,1.404-0.702,1.404-1.873s-1.17-2.107-2.341-2.107c-0.702,0-1.405,0-1.873,0
		c0.234,0.234,0.234,0.937,0.234,1.405v4.214c0,0.468,0,0.937-0.234,1.405C27.405,89.641,28.107,89.641,28.576,89.641L28.576,89.641
		z"/>
	<path fill="#262729" d="M35.599,82.618c0.234,0.234,0.234,0.937,0.234,1.405v4.214c0,0.468,0,0.937-0.234,1.405
		c0.468,0,3.511,0,3.746,0c0.234-0.468,0.468-0.937,0.702-1.405c-0.937,0.468-1.405,0.702-3.043,0.702c0-0.234,0-2.575,0-2.575
		c0.234,0,0.937,0,1.639,0.234c0.468-0.468,0.468-0.702,0.703-0.937c0,0-1.639,0-2.341,0c0-0.702,0-1.639,0-2.341
		c1.171,0,1.405,0,2.107,0.468c0.468-1.171,0.468-1.171,0.468-1.171S36.067,82.618,35.599,82.618L35.599,82.618z"/>
	<path fill="#262729" d="M45.196,89.641c0.703-0.234,1.171-0.234,1.639-0.937c0.703-1.17-0.234-2.107-0.936-2.575
		c-0.937-0.702-1.873-0.937-1.873-1.873c0-0.468,0.234-0.937,1.17-0.937c0.703,0,0.937,0.234,1.405,0.468c0-0.468,0-0.702,0-0.937
		c-0.702-0.234-1.405-0.234-1.873-0.234c-0.936,0.234-1.639,0.703-1.639,1.405c-0.468,0.937,0.234,1.639,1.171,2.107
		c0.468,0.468,1.17,0.937,1.405,1.405c0.468,0.702,0,1.17-0.469,1.404c-0.702,0.234-1.404-0.234-1.873-0.702c0,0,0,0.937,0,1.17
		C44.26,89.641,44.728,89.641,45.196,89.641L45.196,89.641z"/>
	<path fill="#262729" d="M53.624,89.641c-0.234-0.703-0.234-1.405-0.234-1.639c0-0.468,0-4.214,0-4.682
		c0.936,0,1.639,0.234,2.107,0.468c0-0.468,0.234-0.702,0.468-1.171c-0.234,0-4.682,0-5.618,0c0,0.469-0.234,1.171-0.234,1.171
		s1.17-0.468,2.341-0.468c0,0.702,0,4.916,0,4.682c0,0,0,1.17-0.468,1.639C53.156,89.641,53.39,89.641,53.624,89.641L53.624,89.641z
		"/>
	<path fill="#262729" d="M59.008,88.938c0.234-0.702,0.703-1.639,0.703-1.639c1.17,0,2.575,0,2.575,0
		c0.468,1.17,0.703,1.639,0.703,1.639c0,0.234,0,0.468,0,0.703h1.639c-0.468-0.468-0.937-1.405-1.17-2.575
		c-0.937-1.639-2.107-3.979-2.341-4.448c-0.234,0.469-1.404,2.81-2.341,4.448c-0.468,1.17-1.171,2.107-1.639,2.575h1.873
		C58.774,89.407,59.008,89.173,59.008,88.938L59.008,88.938z M61.115,84.959c0,0,0.703,1.405,0.703,1.639c-0.234,0-1.171,0-1.639,0
		C60.413,86.129,60.881,84.959,61.115,84.959L61.115,84.959z"/>
	<path fill="#262729" d="M67.202,82.618c0.234,0.234,0.234,0.937,0.234,1.405v3.512c0,0.936,0.936,2.107,2.341,2.107
		c0.468,0,0.936,0,2.106-0.468c0,0.234,0,0.468,0,0.468s1.17,0,1.405,0c0-0.468-0.234-0.937-0.234-1.405v-4.214
		c0-0.468,0.234-0.936,0.234-1.405c-0.234,0-1.17,0-1.405,0c0.234,0.469,0.234,0.937,0.234,1.405v3.512
		c0,0.468-0.702,1.404-1.873,1.404c-1.17,0-1.639-0.936-1.639-1.404v-3.512c0-0.468,0-1.17,0.234-1.405
		C68.372,82.618,67.67,82.618,67.202,82.618L67.202,82.618z"/>
	<path fill="#262729" d="M79.141,89.641c-0.234-0.468-0.234-0.937-0.234-1.405v-5.15c0.468,0,1.873,0.468,1.873,1.639
		c0,1.17-1.405,1.639-1.873,1.639c0,0,1.17,1.404,2.106,2.341c0.468,0.468,0.937,0.702,1.405,0.937c0.234,0,0.937,0,0.937,0
		c-0.703-0.234-2.107-1.639-3.043-3.043c0.468-0.234,1.639-0.702,1.639-1.873s-1.404-2.107-2.341-2.107c-0.702,0-1.639,0-1.873,0
		c0,0.234,0.234,0.937,0.234,1.405v4.214c0,0.468-0.234,0.937-0.234,1.405C77.97,89.641,78.907,89.641,79.141,89.641L79.141,89.641z
		"/>
	<path fill="#262729" d="M86.866,88.938c0.234-0.702,0.702-1.639,0.702-1.639c0.937,0,2.575,0,2.575,0
		c0.468,1.17,0.702,1.639,0.702,1.639c0,0.234,0,0.468,0,0.703h1.639c-0.469-0.468-0.937-1.405-1.405-2.575
		c-0.703-1.639-1.873-3.979-2.107-4.448c-0.234,0.469-1.405,2.81-2.341,4.448c-0.703,1.17-1.17,2.107-1.639,2.575h1.873
		C86.632,89.407,86.632,89.173,86.866,88.938L86.866,88.938z M88.973,84.959c0,0,0.702,1.405,0.702,1.639c-0.234,0-1.404,0-1.639,0
		C88.271,86.129,88.739,84.959,88.973,84.959L88.973,84.959z"/>
	<path fill="#262729" d="M101.614,84.022c0-0.468,0.234-0.936,0.234-1.405c-0.234,0-0.938,0-1.404,0
		c0.232,0.469,0.232,0.937,0.232,1.405c0,0,0,2.341,0,3.512c-0.936-0.937-3.744-4.448-3.744-4.682c0,0,0,0-0.234-0.234
		c0,0-0.936,0-1.638,0c0.702,0.703,0.702,0.703,0.936,0.937c0,0.234,0,0.234,0,0.468v4.214c0,0.468,0,0.937-0.234,1.405
		c0.234,0,1.17,0,1.405,0c-0.234-0.468-0.234-0.937-0.234-1.405c0,0,0-2.107,0-3.277c2.342,2.809,3.746,4.214,3.746,4.682
		c0.469,0,0.702,0,1.17,0c-0.233-0.468-0.233-0.703-0.233-0.937C101.614,86.832,101.614,84.022,101.614,84.022L101.614,84.022z"/>
	<path fill="#262729" d="M108.638,89.641c-0.234-0.703-0.234-1.405-0.234-1.639c0-0.468,0-4.214,0-4.682
		c0.938,0,1.64,0.234,1.873,0.468c0.234-0.468,0.469-0.702,0.469-1.171c-0.232,0-4.447,0-5.385,0
		c-0.233,0.469-0.233,1.171-0.233,1.171s1.171-0.468,2.106-0.468c0,0.702,0,4.916,0,4.682c0,0,0.233,1.17-0.233,1.639
		C107.937,89.641,108.169,89.641,108.638,89.641L108.638,89.641z"/>
	<path fill="#262729" d="M60.881,120.543c-0.937,0.231-4.682,3.043-5.619,3.276l9.364-7.727c0.936-0.701,1.873-1.404,2.809-2.107
		c1.405-3.51,2.575-7.021,3.98-10.532v-0.234c0.234,0.47,0.936,1.171,0.936,0.937c2.107,1.404,2.809,2.576,2.809,4.684
		c0,1.639-0.702,2.34-1.404,3.277c-0.703,0.936,0,0.232-1.639,2.34c-0.702,0.703-1.17,1.17-1.639,1.639
		c-0.234,1.172-0.234,2.342-0.234,3.043c-0.234,1.639-0.936,3.277-1.404,4.916c-0.937,3.277-0.937,2.812-1.171,4.215
		c-0.937,3.277-0.702,2.574-1.404,4.683c3.746-1.873,16.855-13.578,21.069-11.236c0.234,0.234,0.702,0.701,1.17,2.341
		c0.234,0.938,0,0.702,0.234,1.405c-0.234,0.467-0.234,0.701-0.468,0.701c-0.468,0.469-0.937,1.17-1.405,0.469
		c-0.234-0.469-0.702-0.233-0.702-0.469c0-0.47-0.468-0.47-0.468-0.937c0-1.639-4.682,5.853-5.619,7.256
		c1.873-0.936,5.619-4.446,7.726-3.276c0.937,0.469,2.341,1.403,2.107,2.576c0.702,0.233,2.106,4.916,2.341,5.852
		c0.703,0.703,0.468,2.107,1.405,2.576l-0.234,0.467c-6.555-0.936-6.321-6.319-9.13-8.428c-1.404,1.64-3.745,3.512-5.618,4.685
		c-0.703,1.639-3.043,3.043-4.682,1.871c-2.341-1.871,0.937-7.726,2.575-9.13c0.234-0.936,2.341-2.573,3.043-3.043
		c-2.106,1.17-15.216,11.002-14.982,12.173c-2.341,1.872-4.214,2.106-6.321-0.232c0-1.639,1.17-2.812,1.17-4.449
		c0.703-0.701,3.043-7.256,3.043-8.193c1.17-0.936,0.234-2.574,1.404-3.277c0.234-1.17,0.937-2.34,1.405-3.512
		c-0.937,0.703-1.873,1.172-3.277,1.406C61.818,120.774,61.35,120.543,60.881,120.543L60.881,120.543z M70.479,111.178
		c0.234-0.233,0.468-0.469,0.702-0.7c1.873-2.107,1.17-5.619,0.234-7.023l-0.703,5.385
		C70.713,109.539,70.713,110.478,70.479,111.178L70.479,111.178z M121.045,97.834c14.981,0.703,29.965,0.703,44.713,3.043
		c1.404,0.233,4.683,0.233,5.618,1.172c0.234,0.232,0.469,0.701,0.234,0.937c-0.702,0.703-3.512,0.233-4.448,0.469l-0.233-0.234
		l0.702-0.234c-3.276-0.702-14.515-0.936-17.558-0.469c-1.172-0.233-5.15-0.233-6.32-0.233c-1.171-0.232-2.107,0.233-3.277,0h-2.576
		c-1.873-0.232-3.979,0.233-5.853,0c-1.639,0-2.575-0.468-4.683-0.232c-0.233,0-6.789-0.233-7.491-0.233
		c-0.468,1.17-0.233,2.809-1.17,3.744l-0.47,2.342c-0.232,0.703,0,0.233-0.232,0.938c-0.234,0.467-7.023,26.219-7.023,26.92
		c-1.639,2.576-3.512,14.516-7.49,14.516c-1.873-2.811,3.277-17.323,3.979-21.303h0.234c0-2.811,3.043-15.451,4.214-18.729
		c-0.47-0.234,0-0.469,0.233-0.938c0.938-2.105,0.938-4.683,1.64-7.023c-1.405-0.467-3.044-0.701-4.448-0.467
		c-0.234-0.234-1.404,0-1.639,0c-0.938-0.469-1.404,0-2.342-0.234c-0.701,0.234-12.406-0.936-14.982-0.469
		c-1.638-0.701-40.733-1.17-46.117-1.17c-8.193,0-16.153,0-24.347-0.234l-8.193-0.234H9.848c-0.234,0-1.873,0-1.171,0
		c12.407-1.403,25.283-1.873,37.924-2.104c10.3,0,13.344,0,23.41,0c4.916,0,16.855,0,21.537,0c2.809,0,5.385,0,8.194,0
		c0.468,0,3.745,0,4.682,0c2.341,0,3.513,0,5.853,0.231c0.703,0,4.215,0.234,4.683,0c0.47,0,0.47-0.701,0.702-1.169
		C116.129,94.323,120.576,95.962,121.045,97.834L121.045,97.834z M147.498,129.438l0.702-0.234l0.701-0.467l1.64-1.172
		c2.106-1.404,2.106-4.916,7.022-2.574c0.938,1.404,0.47,4.916,1.404,5.617c0.938,0.703,5.15-2.81,7.727-4.683
		c0.468-2.809,2.105-3.743,3.277-3.043c0.467,0.234,0.937,0.938,1.17,1.873c3.043-2.342,10.301-3.746,13.109-3.746l-3.043,1.873
		l-1.641,2.576c-1.403,0.937-2.809,0.937-4.446,2.104c-0.702,0.47-2.341,2.576-2.81,3.746c-0.233,0.469-3.043,4.683-3.277,5.15
		c-1.172,1.873,0,2.107-1.639,1.639c-2.342-0.703,0-4.447-1.172-7.725c-1.871,1.17-3.511,2.809-5.617,3.979
		c-0.233,1.17-1.873,1.64-2.81,1.873c-3.979,0.469-2.81-3.512-4.448-5.619c-0.468-0.467-1.873,0.703-2.574,1.64
		c-0.703,0.703-1.404,0.938-2.342,2.106l-0.701,0.47l-0.234,0.469c-2.575,0.937-0.702,1.403-4.682,1.403l-1.405-0.938
		c0.469-0.701-1.64-1.639-0.937-2.105c0-2.575,1.873-8.428,3.745-10.301c-0.233-1.873,2.81-3.512,4.448-3.276
		c1.404,1.17,0.702,2.573,0.232,3.745c-0.701,1.404-1.639,3.044-1.871,3.979C146.796,128.502,146.796,129.438,147.498,129.438
		L147.498,129.438z M140.709,121.947l-1.17-0.938c-0.233,1.404,0,2.576-0.702,3.746c0,1.404-0.938,2.342-0.938,3.512
		c-1.64,0.937-2.106,3.746-3.979,4.683c-0.702,0.469-1.639,1.403-2.106,2.106c-0.467,0-2.81,1.639-3.043,1.873
		c-1.404,0.701-2.81,1.639-4.213,1.871c-5.15,1.172-6.088,0.703-7.492-1.404c-0.233-0.701-0.701-1.639-0.701-2.104
		c0-1.64,0-2.576,0-2.812c3.277-7.725,8.896-15.215,17.557-16.854C136.026,111.178,143.985,120.074,140.709,121.947L140.709,121.947
		z M135.56,116.328c-0.233-0.234-0.469-0.234-0.703-0.234c-1.873,0.703-3.744,1.404-4.682,2.812c-2.81,2.104-3.979,4.916-5.617,7.49
		c-0.47,0.936-0.938,1.403-0.703,2.342l0.233,0.701h0.47c0.701,0.233,2.34-0.234,2.809-0.701c1.404-0.703,1.639-1.172,2.81-1.873
		c1.171-0.703,1.873-1.639,3.044-2.342C135.325,121.947,135.793,119.371,135.56,116.328L135.56,116.328z"/>
	<path fill="#B97F44" d="M166.46,89.407c0,0.468,0.234,0.702,0,1.17l0.234,2.575l-0.234,0.234c-1.404-0.468-1.639-2.107-2.341-3.043
		c-0.234-0.468-0.468-1.17,0-1.639c0.468-0.469,0.937-0.702,1.403-0.702C166.226,88.236,166.226,88.938,166.46,89.407L166.46,89.407
		z M128.771,89.407c0.703,0.937,0.233,2.341,0,3.277c-0.233,0.468-0.701,0.468-1.17,0.468c-0.703-0.468-1.17-1.405-1.17-2.341
		c0.232-0.937,0.467-1.873,1.403-1.873C128.067,88.938,128.302,89.407,128.771,89.407L128.771,89.407z M158.501,85.661
		c1.171,0.937,1.873,2.809,1.639,4.448c-0.233,1.17-0.468,2.575-1.639,3.277c-0.468-0.234-0.702,0.469-1.171,0.234
		c-0.702-0.234-1.17,0-1.404-0.703c0-0.234-0.469-0.468-0.469-0.702c-0.702-1.17-0.702-2.809-0.233-3.979
		c0.469-0.702,0.469-2.107,1.404-2.575C157.097,85.193,158.033,85.427,158.501,85.661L158.501,85.661z M134.39,86.364
		c0.937,1.404,0.467,3.277,0.232,4.682c0,0.702-0.469,1.17-0.702,1.639c-0.702,0-1.17,0.234-1.639,0
		c-0.702,0-0.702-0.468-1.171-0.937c-0.233-0.234,0-0.702,0-1.17c-0.469-0.702,0-1.873-0.469-2.575
		c0.234-0.703,0.469-1.171,0.703-1.873c0.233-0.468,0.469-0.702,0.937-0.702C132.983,85.427,133.92,85.661,134.39,86.364
		L134.39,86.364z M151.244,84.725c0,0.468,0.468,0.702,0.468,1.17c0.234,0.702,0.234,1.639,0.234,2.575
		c0,0.468-0.469,1.171-0.234,1.639c0,0.468,0,1.17,0,1.639c-0.702,0.468-0.702-0.468-1.171-0.702c-0.702,0-1.403,0.234-2.106-0.234
		c-1.404-1.405-1.17-3.746-0.937-5.619c0.469-0.468,0.702-1.17,1.403-1.404C149.839,83.789,150.774,84.022,151.244,84.725
		L151.244,84.725z M141.411,84.022c1.404,0.468,1.873,1.405,2.107,2.809c0.233,0.468,0,1.171,0,1.639
		c0,0.703-0.234,1.171-0.47,1.405c0.234,0.937-0.468,1.639-1.17,1.404c-0.702,0.468-1.403,0-2.106-0.468
		c0-0.468-0.937-0.468-0.703-1.17c-0.232-0.468-0.467-0.937-0.467-1.639c0-0.937,0-1.873,0.467-2.575c0-0.468,0.47-0.702,0.703-1.17
		C140.241,83.789,140.942,84.022,141.411,84.022L141.411,84.022z M168.801,83.789h-0.937c-1.17-1.873,0.234-3.512-1.872-4.917
		c-0.702-0.468-0.702-1.17-1.171-1.873c-0.234-0.702-0.938-1.405-1.17-2.107c-2.342-3.511-1.639-4.213-3.045-7.257
		c-2.105-4.682-7.959-7.959-13.108-8.193c-1.873-0.234-4.214-0.234-5.853,0.234c-2.81,0.937-4.683,1.17-6.789,3.511
		c-0.234,0.234-0.938,1.405-1.17,1.405l-0.938,0.702c0,0.703-1.171,1.405-1.639,1.873c0,0.702-2.107,4.214-2.575,4.448
		c0,0.703-0.702,1.17-0.937,1.873c-0.469,1.873-1.17,7.022-2.342,8.193l-0.234,1.405c0.703-0.469,5.619-1.873,5.619-1.873
		c1.17,0,2.81-0.703,3.979-0.937c0.234-0.234,0.703-0.234,0.938,0c7.258-1.873,31.838,1.873,36.521,7.959l-0.47,0.234
		c-6.555-2.575-13.108-4.682-19.897-6.321c-0.702-0.234-4.916-0.468-5.149-0.702c-3.746,0.234-10.535,0.936-13.812,2.106
		c-0.469,0.234-1.171,0.938-1.873,0.938c-0.938,0.468-2.105,0.702-2.809,1.639c-0.938,0.234-3.746,2.341-3.98,3.512
		c-0.468,0-0.702,0.702-1.404,0.936c0,0.234-0.701,0.234-0.701,0.468c-1.405,0.468-3.045,0.234-4.215-0.702
		c-0.233-0.468-0.469-0.937-0.469-1.639c0.234-0.234,0.234-1.17,0.703-1.405c0.232-0.234,0.469-0.468,0.702-0.468
		c0.233-0.234,0.468-0.702,0.937-0.702c0.233-0.234,1.639-0.937,1.639-1.404l0.234-0.234c-0.234-0.938-0.703-2.107-0.234-3.043
		c-0.702-0.703,1.873-6.555,1.873-7.726c0.233-0.468,0-0.937,0.469-1.17c0,0,1.404-2.575,1.639-2.81
		c0-0.468,1.404-0.936,1.404-1.639c0.234-0.234,0.469-0.702,0.702-0.936s0.702-0.468,0.702-0.703c0.233-0.234,2.81-2.575,2.81-2.809
		c2.106-0.702,3.276-3.277,7.726-4.682c13.345-3.98,26.453,3.511,29.73,17.089c0.234,1.17,0.702,2.575,0.702,3.746
		C168.801,81.213,168.801,82.384,168.801,83.789L168.801,83.789z M143.519,52.419c1.404,0.234,2.81,0,4.215,0.234
		c2.574,0.468,4.916,1.17,7.021,2.809c0.469-0.234,0.469,0.234,0.702,0.234c0.233,0.468,0.703,1.17,0.233,1.639
		c0,0.703-0.467,0.937-0.701,1.405c-0.469-0.234-0.702-0.702-0.938-0.938c-0.468-0.702,0-1.404,0-1.873
		c0-0.469-0.468-0.234-0.701-0.468c-0.938-0.702-2.342-0.468-3.277-1.17c-1.404-0.234-2.575,0.468-3.746,0.702
		c-0.469,0-0.702,0.234-1.17,0.234c-0.938,0.468-1.873,0.468-2.575,0.937c-0.233,0-0.702,0.234-0.702,0.468
		c-1.171,0.234-1.639,1.639-3.043,1.639c-0.703,0.234-1.639,0.234-2.342-0.234c-0.469-0.468-1.17-1.171-0.938-2.107
		c0.234-0.703,0.938-1.17,1.873-1.405c0-0.234,0.234-0.234,0.469-0.468c0.703-0.702,1.64-0.936,2.576-1.17
		c0.701-0.234,1.639-0.234,2.105-0.468C143.05,52.419,143.284,52.887,143.519,52.419L143.519,52.419z M143.519,46.098
		c2.106-0.702,4.448-0.234,5.854,1.17c0.234,0.468,0,0.937,0,1.171c-0.938,0.234,0.234,1.639-0.702,1.873
		c-1.171,0.468-2.575,0.234-3.276,0.937c-1.406,0.234-3.513,1.405-4.449,0c-0.467-0.702-0.233-1.873,0-2.575
		c0.469-0.234,0-0.702,0-0.937c0-0.702,0-1.17,0.469-1.639C142.114,45.396,142.815,46.801,143.519,46.098L143.519,46.098z
		 M147.731,42.821c0.234,0.234,0.703,0.468,0.703,0.703c-0.703,0.468-1.404-0.234-2.107,0.468c-0.233-0.234-0.469,0.234-0.702,0.234
		c-0.468,0.468-0.702,0.937-1.17,0.937c-0.47,0-0.702-0.234-0.937-0.703c0.233-0.234,0.233-0.702,0.467-0.936
		C144.923,42.587,146.796,42.119,147.731,42.821L147.731,42.821z"/>
</g>
</svg>
