<?xml version="1.0" encoding="utf-8"?>
<!-- Generator: Adobe Illustrator 16.0.0, SVG Export Plug-In . SVG Version: 6.00 Build 0)  -->
<!DOCTYPE svg PUBLIC "-//W3C//DTD SVG 1.1//EN" "http://www.w3.org/Graphics/SVG/1.1/DTD/svg11.dtd">
<svg version="1.1" id="Layer_1" xmlns="http://www.w3.org/2000/svg" xmlns:xlink="http://www.w3.org/1999/xlink" x="0px" y="0px"
	 width="170.851px" height="175.749px" viewBox="10.953 8.503 170.851 175.749"
	 enable-background="new 10.953 8.503 170.851 175.749" xml:space="preserve">
<g>
	<path fill="#FFCB05" d="M29.15,131.882c10.575,27.497,37.235,47.012,68.453,47.012c31.217,0,57.877-19.515,68.451-47.012H29.15
		L29.15,131.882z M171.946,131.882c-11.467,30.596-40.975,52.37-75.568,52.37s-64.102-21.774-75.57-52.37l-9.855-0.001v-14.396
		h170.851v14.396L171.946,131.882L171.946,131.882z M18.644,81.871c9.47-34.036,40.686-59.012,77.734-59.012
		s68.264,24.976,77.734,59.012h-8.715c-8.933-30.419-37.049-52.63-70.354-52.63c-33.304,0-61.421,22.21-70.354,52.63H18.644
		L18.644,81.871z"/>
	<path d="M83.775,155.839c-0.353,0.859-0.856,1.589-1.509,2.188c-0.654,0.6-1.354,1.056-2.107,1.369s-1.451,0.473-2.097,0.475
		c-1.278-0.01-2.464-0.436-3.559-1.276c-1.096-0.843-1.98-2.043-2.655-3.604c-0.675-1.562-1.023-3.426-1.042-5.594
		c0.018-2.75,0.637-4.979,1.85-6.69c1.214-1.71,2.9-2.591,5.061-2.644c1.535,0.015,2.785,0.439,3.755,1.278
		c0.971,0.838,1.464,2.011,1.483,3.515h1.033c0-0.108-0.004-0.215-0.014-0.315c-0.006-0.103-0.012-0.208-0.012-0.317
		c-0.001-0.647,0.02-1.455,0.063-2.421c0.042-0.965,0.109-1.817,0.202-2.561c-0.291,0.061-0.602,0.097-0.93,0.11
		c-0.331,0.013-0.673,0.019-1.033,0.016c-0.7-0.026-1.454-0.133-2.268-0.316c-0.812-0.185-1.872-0.29-3.183-0.316
		c-2.271,0.029-4.133,0.558-5.585,1.58c-1.453,1.022-2.522,2.367-3.215,4.033c-0.693,1.666-1.037,3.476-1.03,5.43
		c0.001,1.961,0.403,3.804,1.205,5.529c0.802,1.727,1.988,3.133,3.556,4.217c1.57,1.084,3.508,1.645,5.813,1.679
		c1.499,0.017,2.741-0.115,3.723-0.396c0.982-0.281,1.751-0.81,2.31-1.588c0.556-0.777,0.945-1.902,1.168-3.378L83.775,155.839
		L83.775,155.839z"/>
	<path d="M85.632,160.724h0.877c0.146-0.005,0.292-0.026,0.439-0.07c0.146-0.043,0.293-0.084,0.438-0.119
		c0.24-0.061,0.48-0.092,0.718-0.096c0.239-0.004,0.48-0.004,0.718,0c0.558,0.002,0.918,0.017,1.082,0.045
		c0.165,0.027,0.257,0.062,0.278,0.099c0.019,0.037,0.093,0.069,0.221,0.099c0.128,0.027,0.434,0.043,0.917,0.045h0.48v-1.203
		h-0.613c-0.192,0.012-0.412-0.031-0.662-0.131c-0.248-0.099-0.434-0.317-0.554-0.66c-0.121-0.342-0.088-0.871,0.099-1.59
		l1.063-3.875c0.712,0.032,1.225,0.062,1.535,0.088c0.313,0.024,0.625,0.037,0.939,0.039c0.562-0.002,1.11-0.015,1.644-0.039
		c0.534-0.025,0.942-0.056,1.226-0.088l1.195,4.383c0.136,0.551,0.104,0.998-0.09,1.342c-0.192,0.344-0.481,0.521-0.868,0.531h-0.61
		v1.203h1.145c0.605-0.006,1.007-0.031,1.191-0.082c0.188-0.053,0.385-0.104,0.588-0.152c0.205-0.051,0.639-0.078,1.302-0.082
		c0.532,0.002,0.892,0.019,1.078,0.049c0.183,0.031,0.312,0.066,0.382,0.109c0.066,0.041,0.191,0.076,0.375,0.107
		s0.535,0.049,1.062,0.051h0.666v-1.203h-0.269c-0.237,0.02-0.483,0.014-0.737-0.02c-0.252-0.031-0.513-0.203-0.783-0.513
		c-0.271-0.312-0.551-0.874-0.846-1.691c-0.35-0.997-0.779-2.289-1.295-3.877c-0.513-1.588-1.051-3.302-1.611-5.141
		c-0.56-1.839-1.082-3.634-1.564-5.384c-0.486-1.75-0.873-3.287-1.16-4.608c-0.616,0.323-1.3,0.565-2.047,0.729
		c-0.096,0.576-0.245,1.27-0.442,2.078c-0.199,0.809-0.511,1.959-0.932,3.45c-0.424,1.494-1.021,3.556-1.791,6.183
		c-0.951,3.297-1.732,5.599-2.34,6.907c-0.61,1.31-1.237,1.938-1.883,1.886h-0.56L85.632,160.724L85.632,160.724z M93.871,143.621
		c0.074,0.56,0.185,1.097,0.332,1.608c0.146,0.513,0.37,1.256,0.666,2.229c0.299,0.975,0.709,2.436,1.235,4.381
		c-0.284,0.062-0.586,0.112-0.911,0.145c-0.323,0.031-0.719,0.048-1.188,0.048c-0.537,0-0.999-0.017-1.385-0.048
		c-0.387-0.031-0.75-0.08-1.088-0.145c0.593-2.188,1.034-3.806,1.325-4.852c0.29-1.047,0.485-1.782,0.586-2.209
		c0.101-0.424,0.164-0.801,0.19-1.127L93.871,143.621L93.871,143.621z"/>
	<path d="M105.3,166.022c0.197-1.832,0.479-3.121,0.844-3.861c0.36-0.742,0.789-1.171,1.283-1.288
		c0.492-0.118,1.034-0.157,1.62-0.118c0.394,0.002,0.903,0.01,1.531,0.025c0.628,0.015,1.245,0.029,1.854,0.046
		c0.609,0.015,1.084,0.022,1.424,0.024c0.939-0.007,1.787-0.026,2.543-0.063s1.531-0.06,2.322-0.063
		c0.264-0.012,0.584,0.006,0.957,0.049c0.375,0.043,0.707,0.185,0.997,0.422c0.294,0.238,0.447,0.642,0.464,1.212
		c-0.002,0.489-0.037,1.104-0.104,1.845c-0.07,0.74-0.158,1.331-0.269,1.773h1.276c0.306-1.301,0.563-2.563,0.784-3.789
		c0.219-1.225,0.398-2.414,0.545-3.57c-1.157,0.352-1.953,0.41-2.393,0.179s-0.758-0.673-0.957-1.319
		c-0.338-0.924-0.733-2.145-1.185-3.664c-0.453-1.521-0.919-3.188-1.399-5.002c-0.482-1.814-0.938-3.625-1.371-5.431
		c-0.43-1.806-0.797-3.454-1.096-4.948c-0.854,0.195-1.695,0.345-2.523,0.444c-0.072,0.341-0.28,1.22-0.624,2.642
		c-0.343,1.42-0.767,3.097-1.267,5.027c-0.496,1.932-1.015,3.835-1.556,5.709c-0.538,1.873-1.039,3.434-1.505,4.678
		c-0.464,1.246-0.835,1.893-1.109,1.939c-0.242-0.004-0.566-0.035-0.969-0.091c-0.402-0.058-0.7-0.11-0.891-0.163
		c0.025,0.65,0.004,1.592-0.062,2.82c-0.064,1.231-0.238,2.744-0.521,4.539h1.355V166.022z M112.955,142.765
		c0.026,0.768,0.165,1.76,0.413,2.98c0.249,1.22,0.662,2.886,1.234,4.998c0.576,2.111,1.361,4.89,2.363,8.334
		c-0.428,0.033-1.02,0.068-1.773,0.104c-0.754,0.033-1.569,0.053-2.449,0.055c-0.824,0-1.598-0.016-2.32-0.043
		s-1.402-0.066-2.039-0.114c0.932-3.175,1.684-5.759,2.258-7.749c0.573-1.991,1.023-3.639,1.35-4.941
		c0.324-1.304,0.572-2.512,0.753-3.623H112.955L112.955,142.765z"/>
	<path d="M36.625,111.688H37.5c0.537-0.006,0.894-0.037,1.07-0.1c0.178-0.061,0.35-0.122,0.516-0.183
		c0.169-0.062,0.506-0.095,1.02-0.099c0.529,0.016,1.019,0.078,1.468,0.188c0.449,0.11,0.792,0.175,1.029,0.19h0.451v-1.203h-0.583
		c-0.295,0.035-0.57-0.129-0.829-0.495c-0.257-0.365-0.248-1.142,0.031-2.328l2.683-10.125c0.16-0.599,0.281-1.115,0.367-1.547
		c0.086-0.432,0.14-0.9,0.165-1.404h0.214c0.047,0.338,0.084,0.599,0.105,0.782c0.022,0.183,0.057,0.356,0.107,0.52l3.056,10.506
		c0.165,0.52,0.323,1.094,0.473,1.724c0.149,0.63,0.152,1.177,0.011,1.64c-0.143,0.464-0.569,0.707-1.281,0.73h-0.346v1.201h1.357
		c0.21-0.004,0.417-0.035,0.619-0.09c0.204-0.058,0.403-0.111,0.603-0.164c0.239-0.06,0.484-0.097,0.734-0.109
		c0.25-0.014,0.501-0.02,0.754-0.016c0.265-0.002,0.532,0.01,0.796,0.03c0.267,0.022,0.532,0.065,0.799,0.127
		c0.186,0.052,0.372,0.101,0.558,0.146c0.186,0.047,0.372,0.072,0.558,0.076h0.877v-1.203h-0.559
		c-0.434-0.021-0.835-0.332-1.207-0.936c-0.371-0.604-0.722-1.376-1.052-2.318c-0.329-0.94-0.648-1.931-0.957-2.967
		c-0.657-2.127-1.227-3.988-1.707-5.582c-0.482-1.597-0.918-3.115-1.307-4.555c-0.39-1.44-0.778-2.992-1.158-4.653
		c-0.644,0.186-1.327,0.323-2.048,0.413c-0.4,1.888-0.821,3.626-1.262,5.217c-0.441,1.59-0.889,3.13-1.342,4.621
		c-0.27,0.94-0.568,2.016-0.891,3.223c-0.325,1.207-0.686,2.383-1.083,3.527c-0.397,1.144-0.839,2.092-1.329,2.842
		c-0.491,0.752-1.038,1.142-1.641,1.168h-0.716v1.205H36.625z"/>
	<path d="M56.136,90.142v1.202h0.479c0.497,0.028,0.855,0.318,1.08,0.872c0.223,0.553,0.362,1.203,0.418,1.951
		c0.054,0.747,0.078,1.426,0.069,2.036v9.965c0.009,0.522-0.015,1.114-0.069,1.774c-0.055,0.66-0.193,1.238-0.411,1.731
		c-0.221,0.494-0.574,0.754-1.061,0.78h-0.505v1.202h0.982c0.459-0.001,0.748-0.011,0.868-0.025
		c0.121-0.016,0.197-0.032,0.232-0.055c0.035-0.021,0.149-0.039,0.347-0.056c0.196-0.015,0.6-0.022,1.212-0.023
		c0.663-0.003,1.424,0.02,2.286,0.072c0.861,0.051,1.978,0.154,3.348,0.309c0.294,0.038,0.589,0.064,0.891,0.083
		c0.298,0.019,0.595-0.01,0.887-0.083c0.567-0.111,1.042-0.539,1.423-1.284c0.379-0.743,0.616-1.997,0.704-3.76h-0.957
		c-0.39,1.476-0.866,2.438-1.424,2.894c-0.56,0.455-1.094,0.696-1.603,0.728c-0.333,0.062-0.665,0.095-1,0.095
		s-0.676-0.031-1.02-0.095c-0.356-0.045-0.665-0.164-0.922-0.358c-0.259-0.195-0.456-0.58-0.596-1.156
		c-0.14-0.575-0.209-1.457-0.211-2.646v-5.176h2.5c0.88,0.049,1.426,0.325,1.632,0.83s0.292,0.948,0.255,1.329
		c0,0.111-0.005,0.229-0.017,0.35c-0.01,0.12-0.021,0.237-0.037,0.35h0.953v-2.158c0.004-0.441,0.037-0.965,0.095-1.569
		c0.059-0.604,0.122-1.181,0.193-1.726c0.071-0.545,0.127-0.947,0.165-1.211h-1.009c0.048,1.049-0.133,1.73-0.543,2.05
		c-0.411,0.317-1.098,0.46-2.061,0.429h-2.128V91.82h3.029c0.14-0.012,0.355,0.006,0.646,0.055c0.292,0.048,0.565,0.203,0.814,0.463
		c0.252,0.26,0.383,0.701,0.402,1.324c0,0.164-0.008,0.36-0.028,0.591c-0.019,0.231-0.055,0.563-0.106,0.996h1.01
		c0.18-0.945,0.323-1.637,0.426-2.073c0.104-0.436,0.198-0.849,0.28-1.239s0.184-0.988,0.303-1.795
		c-0.898,0.063-1.724,0.113-2.478,0.15c-0.751,0.037-1.52,0.064-2.299,0.08c-0.781,0.016-1.659,0.024-2.637,0.023
		c-1.101-0.003-1.84-0.025-2.22-0.065c-0.379-0.041-0.655-0.082-0.821-0.122c-0.169-0.041-0.483-0.062-0.946-0.066H56.136
		L56.136,90.142z"/>
	<path d="M77.338,91.376v13.619c0.01,0.727-0.011,1.512-0.063,2.354c-0.051,0.844-0.19,1.568-0.413,2.18
		c-0.223,0.609-0.587,0.929-1.093,0.957h-0.558v1.203h1.063c0.227-0.006,0.447-0.035,0.662-0.092s0.428-0.109,0.641-0.162
		c0.241-0.047,0.484-0.08,0.729-0.099c0.248-0.021,0.491-0.028,0.732-0.028c0.239,0,0.482,0.01,0.73,0.028
		c0.247,0.019,0.49,0.052,0.729,0.099c0.214,0.053,0.427,0.105,0.641,0.162c0.217,0.057,0.437,0.086,0.664,0.092h0.982v-1.203
		h-0.558c-0.521-0.029-0.886-0.354-1.094-0.973c-0.208-0.621-0.33-1.354-0.362-2.201c-0.032-0.849-0.042-1.631-0.031-2.35V91.376
		h2.099c0.372-0.015,0.796,0.021,1.271,0.108c0.476,0.086,0.891,0.311,1.249,0.672c0.357,0.362,0.543,0.948,0.563,1.759
		c0.001,0.069-0.001,0.232-0.017,0.488c-0.014,0.256-0.052,0.569-0.116,0.94h1.037c0.123-0.852,0.229-1.54,0.322-2.064
		c0.092-0.525,0.173-1.045,0.24-1.563c0.069-0.517,0.127-1.19,0.182-2.019c-0.775,0.055-1.656,0.117-2.639,0.185
		c-0.982,0.069-1.984,0.128-3.008,0.179c-1.023,0.051-1.984,0.078-2.883,0.08c-0.375,0-0.854-0.003-1.442-0.01
		c-0.588-0.007-1.167-0.018-1.737-0.032c-0.572-0.014-1.017-0.032-1.337-0.053c-0.319-0.021-0.602-0.044-0.845-0.07
		c-0.244-0.026-0.558-0.061-0.943-0.104c-0.386-0.044-0.95-0.102-1.694-0.175c-0.035,0.58-0.077,1.102-0.129,1.567
		c-0.054,0.465-0.122,1.005-0.201,1.619c-0.083,0.614-0.185,1.434-0.308,2.459h1.01c0.376-1.568,0.886-2.63,1.531-3.187
		c0.646-0.556,1.403-0.817,2.269-0.781h2.125V91.376z"/>
	<path d="M88.855,90.142v1.202h0.557c0.553,0.026,0.925,0.352,1.114,0.976c0.19,0.624,0.287,1.392,0.288,2.302
		c0.003,0.91-0.005,1.806-0.019,2.689v9.237c0.008,0.459-0.017,0.991-0.073,1.599c-0.054,0.608-0.186,1.145-0.395,1.606
		c-0.209,0.463-0.541,0.707-0.993,0.731h-0.532v1.201h0.957c0.211-0.004,0.424-0.035,0.637-0.09
		c0.212-0.058,0.427-0.111,0.638-0.164c0.479-0.089,0.957-0.131,1.434-0.125c0.479-0.006,0.956,0.036,1.434,0.125
		c0.212,0.053,0.425,0.106,0.637,0.164c0.212,0.055,0.425,0.086,0.639,0.09h0.957v-1.201h-0.532
		c-0.606-0.051-0.998-0.48-1.174-1.291c-0.176-0.809-0.256-1.689-0.236-2.646v-5.396c0.391,0.048,0.82,0.087,1.29,0.119
		c0.47,0.031,1.031,0.056,1.687,0.07c0.36,0,0.715,0,1.065,0c0.352,0,0.703,0,1.062,0c1.155-0.014,2.07-0.033,2.746-0.06
		s1.283-0.069,1.826-0.132v5.396c0.009,0.459-0.016,0.991-0.071,1.6c-0.055,0.607-0.188,1.144-0.396,1.605
		c-0.211,0.463-0.543,0.707-0.995,0.73h-0.531v1.203h0.958c0.212-0.006,0.425-0.035,0.639-0.092
		c0.211-0.057,0.424-0.109,0.637-0.162c0.479-0.09,0.957-0.132,1.434-0.127c0.479-0.005,0.956,0.037,1.436,0.127
		c0.211,0.053,0.424,0.105,0.638,0.162c0.213,0.057,0.425,0.086,0.637,0.092h0.958v-1.203h-0.531
		c-0.604-0.051-0.996-0.479-1.173-1.289c-0.176-0.81-0.254-1.69-0.235-2.646v-9.175c-0.017-0.913-0.022-1.83-0.026-2.748
		c-0.001-0.918,0.093-1.689,0.282-2.312c0.188-0.623,0.564-0.946,1.127-0.971h0.558V90.14h-0.903
		c-0.213,0.003-0.43,0.021-0.649,0.055c-0.222,0.035-0.438,0.069-0.652,0.103c-0.237,0.033-0.479,0.062-0.716,0.087
		c-0.24,0.025-0.479,0.039-0.718,0.04c-0.24-0.001-0.483-0.015-0.729-0.04c-0.246-0.025-0.49-0.054-0.729-0.087
		c-0.214-0.034-0.433-0.068-0.65-0.103c-0.221-0.034-0.438-0.052-0.653-0.055h-0.875v1.202h0.559
		c0.553,0.026,0.922,0.352,1.113,0.976c0.189,0.624,0.287,1.392,0.289,2.302c0,0.91-0.006,1.806-0.021,2.689v2.35
		c-0.389,0.053-0.966,0.105-1.725,0.163c-0.758,0.057-1.752,0.087-2.979,0.091c-1.233,0-2.219-0.023-2.954-0.071
		c-0.739-0.048-1.411-0.118-2.019-0.214v-2.255c-0.015-0.913-0.022-1.83-0.025-2.748c-0.001-0.918,0.092-1.689,0.282-2.312
		s0.564-0.946,1.126-0.971h0.558V90.14h-0.904c-0.215,0.003-0.432,0.021-0.652,0.055c-0.221,0.035-0.438,0.069-0.65,0.103
		c-0.241,0.033-0.479,0.062-0.718,0.087c-0.238,0.025-0.477,0.039-0.716,0.04c-0.241-0.001-0.483-0.015-0.73-0.04
		c-0.248-0.025-0.49-0.054-0.73-0.087c-0.214-0.034-0.431-0.068-0.65-0.103c-0.221-0.034-0.438-0.052-0.651-0.055h-0.884V90.142z"/>
	<path d="M111.071,90.142v1.202h0.56c0.718,0.046,1.134,0.525,1.245,1.438c0.111,0.911,0.148,1.977,0.109,3.197v11.27
		c-0.002,0.668-0.024,1.396-0.068,2.183c-0.047,0.786-0.104,1.719-0.172,2.799l1.809-0.541c0.17-0.285,0.372-0.596,0.61-0.93
		c0.237-0.334,0.61-0.828,1.117-1.479c0.509-0.652,1.247-1.598,2.22-2.838c0.977-1.238,2.279-2.906,3.917-5.004
		c1.466-1.883,2.459-3.233,2.985-4.055c0.527-0.82,0.815-1.331,0.869-1.532h0.16c-0.094,0.405-0.166,0.826-0.215,1.262
		c-0.051,0.437-0.076,0.842-0.076,1.215v7.333c0.006,0.799-0.012,1.563-0.059,2.295c-0.048,0.731-0.17,1.332-0.372,1.801
		c-0.2,0.472-0.526,0.714-0.979,0.729h-0.558v1.201h0.981c0.215-0.004,0.427-0.035,0.64-0.09c0.213-0.058,0.427-0.111,0.638-0.164
		c0.457-0.088,0.924-0.131,1.408-0.125c0.239,0,0.482,0.008,0.73,0.027c0.244,0.02,0.488,0.053,0.729,0.098
		c0.215,0.053,0.428,0.106,0.639,0.164c0.213,0.055,0.426,0.086,0.639,0.09h0.902v-1.201h-0.559
		c-0.46-0.018-0.787-0.262-0.982-0.733c-0.195-0.473-0.313-1.069-0.354-1.792c-0.038-0.723-0.054-1.468-0.044-2.236V94.076
		c0-0.937,0.018-1.761,0.049-2.475c0.031-0.713,0.066-1.315,0.111-1.806c-0.428,0.031-0.879,0.095-1.356,0.19
		c-1.684,2.729-3.147,4.974-4.393,6.732c-1.244,1.761-2.323,3.222-3.24,4.388c-0.919,1.164-1.729,2.22-2.435,3.166
		c-0.707,0.946-1.364,1.972-1.974,3.074h-0.239c0.061-0.438,0.127-1.053,0.199-1.841c0.072-0.789,0.113-1.498,0.12-2.128v-7.332
		c-0.036-1.28,0.009-2.372,0.134-3.278c0.123-0.906,0.541-1.38,1.248-1.421h0.56v-1.202h-0.878
		c-0.225,0.003-0.446,0.021-0.666,0.055c-0.217,0.035-0.438,0.069-0.662,0.103c-0.238,0.033-0.479,0.062-0.719,0.087
		c-0.237,0.025-0.478,0.039-0.717,0.04c-0.238-0.001-0.477-0.015-0.716-0.04c-0.237-0.025-0.479-0.054-0.718-0.087
		c-0.227-0.034-0.445-0.068-0.665-0.103c-0.217-0.034-0.438-0.052-0.662-0.055L111.071,90.142L111.071,90.142z"/>
	<path d="M133.345,90.142v1.202h0.557c0.72,0.046,1.135,0.525,1.246,1.438c0.11,0.911,0.146,1.977,0.108,3.197v11.27
		c-0.001,0.668-0.024,1.396-0.067,2.183c-0.047,0.786-0.103,1.719-0.17,2.799l1.805-0.541c0.171-0.285,0.373-0.596,0.613-0.93
		c0.237-0.334,0.61-0.828,1.117-1.479c0.506-0.652,1.246-1.598,2.221-2.838c0.972-1.238,2.279-2.906,3.916-5.004
		c1.463-1.883,2.459-3.233,2.982-4.055c0.529-0.82,0.818-1.331,0.872-1.532h0.159c-0.092,0.405-0.165,0.826-0.215,1.262
		c-0.051,0.437-0.077,0.842-0.077,1.215v7.333c0.008,0.799-0.013,1.563-0.058,2.295c-0.049,0.731-0.172,1.332-0.373,1.801
		c-0.198,0.472-0.526,0.714-0.979,0.729h-0.56v1.201h0.984c0.213-0.004,0.426-0.035,0.641-0.09c0.213-0.058,0.424-0.111,0.637-0.164
		c0.456-0.088,0.925-0.131,1.406-0.125c0.242,0,0.484,0.008,0.729,0.027c0.247,0.02,0.492,0.053,0.731,0.098
		c0.213,0.053,0.426,0.106,0.637,0.164c0.213,0.055,0.427,0.086,0.639,0.09h0.904v-1.201h-0.559
		c-0.461-0.018-0.789-0.262-0.984-0.733c-0.195-0.473-0.314-1.069-0.354-1.792c-0.037-0.723-0.054-1.468-0.045-2.236V94.076
		c0-0.937,0.02-1.761,0.049-2.475c0.033-0.713,0.068-1.316,0.111-1.808c-0.426,0.032-0.875,0.095-1.354,0.19
		c-1.686,2.73-3.151,4.975-4.395,6.733c-1.244,1.76-2.322,3.223-3.242,4.387c-0.916,1.164-1.729,2.221-2.434,3.166
		c-0.705,0.947-1.363,1.973-1.973,3.075h-0.239c0.062-0.438,0.127-1.053,0.2-1.841c0.072-0.789,0.113-1.498,0.117-2.128v-7.332
		c-0.033-1.28,0.011-2.372,0.136-3.278c0.124-0.906,0.54-1.38,1.251-1.421h0.559v-1.202h-0.877
		c-0.225,0.003-0.445,0.021-0.666,0.055c-0.219,0.035-0.441,0.069-0.666,0.103c-0.24,0.033-0.479,0.062-0.717,0.087
		c-0.238,0.025-0.479,0.039-0.717,0.04c-0.239-0.001-0.477-0.015-0.719-0.04c-0.238-0.025-0.478-0.054-0.717-0.087
		c-0.225-0.034-0.444-0.068-0.664-0.103c-0.219-0.034-0.438-0.052-0.664-0.055H133.345L133.345,90.142z M142.481,84.302h-0.291
		c-0.387,0.506-0.789,0.947-1.209,1.321c-0.418,0.375-0.85,0.696-1.287,0.964c0.179,0.719,0.459,1.327,0.847,1.823
		c0.388,0.497,0.927,0.755,1.622,0.776c0.492,0.021,1.072-0.042,1.736-0.187c0.666-0.145,1.381-0.496,2.145-1.054
		c0.768-0.557,1.547-1.443,2.342-2.66c-0.371-0.312-0.718-0.64-1.035-0.984c-0.552,1.315-1.127,2.192-1.729,2.63
		c-0.598,0.439-1.114,0.641-1.544,0.607c-0.429-0.004-0.798-0.139-1.106-0.405c-0.312-0.266-0.474-0.638-0.488-1.119v-1.712H142.481
		z"/>
	<path fill="#FFCB05" d="M94.34,19.766c3.548-3.092,4.841-3.348,5.687-3.667c4.629-1.748,8.861-1.747,13.547-5.539
		c2.562-2.073,6.076-2.065,8.004,0.571c4.156,5.678,0.404,10.9,0.607,17.896c0.203,6.794-0.151,10.698,0.812,17.39
		c0.507,3.6,3.601,6.185,1.673,9.227c-1.217,1.927-3.751,1.774-5.982,1.014c-8.061-2.839-13.891-4.31-18.401-11.458
		c-5.019-7.959-2.281-14.55-5.323-23.676L94.34,19.766L94.34,19.766z"/>
	<path fill="#ED1C24" d="M63.828,41.275c0-7.764,4.34-11.287,9.702-16.841c4.345-4.5,8.003-8.559,14.213-8.128
		c8.28,0.518,10.479,7.231,12.47,16.279c1.634,7.416,7.823,9.086,11.099,16.198c5.52,4.572,13.59,11.777,8.069,16.435
		c-4.228,3.623-8.798,0.862-14.146-0.345c-6.123-1.38-9.833-1.639-15.87-3.45C77.29,57.801,82.498,46.965,63.828,41.275
		L63.828,41.275z"/>
	<path fill="#009042" d="M69.701,41.728c-4.696,5.5-2.162,7.692-3.268,12.62c-1.257,5.581-2.765,9.412-0.502,14.641
		c2.413,5.581,9.1,5.521,15.183,6.024c9.703,0.804,15.183,0.804,24.885,0.804c5.632,0,8.749,0.201,14.379,0.201
		c2.564,0,5.18-3.167,3.821-5.33c-3.47-5.43-7.872-3.707-14.156-4.963c-5.882-1.157-8.972-3.662-14.982-6.959
		c-6.136-3.37-7.161-8.34-12.338-12.966C78.75,42.281,73.158,37.679,69.701,41.728L69.701,41.728z"/>
	<path d="M94.965,20.78c-2.348,2.836-4.377,5.906-6.025,9.127c8.67,7.821,17.935,16.73,27.398,25.951
		C108.913,43.984,101.581,32.122,94.965,20.78L94.965,20.78z M108.944,67.214c-1.002,1.958-1.684,4.104-1.969,6.37l4.533-0.012
		c3.287-0.007,7.141-0.014,10.286,0.508c-3.586-1.907-12.952-3.67-12.272-6.555L108.944,67.214L108.944,67.214z M120.213,56.815
		c1.095-0.352,2.228-0.611,3.392-0.769c-0.42-11.631-0.496-29.188-0.633-45.711c-2.277-0.054-4.58,0.05-6.871,0.29
		c-4.646,0.897-9.16,2.31-13.451,4.206c-2.184,1.314-4.232,2.824-6.131,4.499C103.963,30.681,116.806,51.329,120.213,56.815
		L120.213,56.815z M69.092,43.154c14.89,7.201,28.788,14.292,41.058,20.872c1.494-2.003,3.352-3.723,5.467-5.06
		c-9.738-9.848-19.421-19.647-28.787-29.913c1.851-3.542,4.058-6.802,6.601-9.803l0.418-0.393c-1.03-1.778-2.041-3.543-3.031-5.292
		c-1.553,0.232-3.131,0.619-4.704,1.128c-2.827,1.224-5.518,2.781-7.997,4.606c-2.862,2.681-5.394,5.712-7.587,8.996
		c-2.203,4.183-3.938,8.581-5.13,13.06l3.192,1.528c0.394-1.237,1.445-3.686,1.959-4.6c0.5-0.891,0.751-1.212,1.273-1.89
		c0,0,3.987,1.685,4.686,1.956c11.856,4.593,18.382,12.422,21.038,15.904c0.132,0.173,1.335,1.555,1.407,1.662
		c0.078,0.118,0.044,0.153,0.044,0.153c-0.022,0.02-0.063,0.021-0.335-0.303c-0.289-0.345-1.164-1.204-1.164-1.204
		c-3.151-2.652-11.181-8.622-23.434-16.688c-0.146-0.096-0.478-0.257-0.812-0.328c-0.645-0.135-1.188-0.183-1.672,0.231
		c-0.73,0.622-1.064,1.06-1.767,2.743C69.467,41.351,69.092,43.154,69.092,43.154L69.092,43.154z M106.302,73.586
		c0.29-2.38,1.002-4.635,2.057-6.688c-11.299-6.086-24.572-13.416-39.5-22.152c-1.041,5.445-1.087,10.699-1.757,14.916
		c-0.711,4.477-0.473,9.255-0.097,14.149C79.22,73.705,92.452,73.628,106.302,73.586L106.302,73.586z M106.417,79.272
		c-0.107-0.669-0.182-1.333-0.223-1.992c-14.257,0.014-27.858-0.045-40.368-0.045c-0.075,0-0.696-0.189-1.112-0.533
		c-0.573-0.474-0.976-1.161-0.994-1.303c-0.379-5.641-0.644-11.101,0.263-16.176c0.962-5.383,2.619-10.321,4.115-14.884
		c-2.038-1.194-3.958-2.331-6.047-3.574c1.351-4.988,3.242-9.701,5.632-14.18c2.407-3.557,5.177-6.837,8.345-9.775
		c2.809-2.044,5.801-3.752,8.995-5.114c1.787-0.567,3.638-1.008,5.574-1.28c1.598,2.375,3.178,4.748,4.741,7.12
		c1.986-1.689,4.104-3.201,6.349-4.52c4.571-1.96,9.297-3.381,14.15-4.263c2.569-0.238,5.146-0.313,7.751-0.194
		c0.245,0.026,1.169,1.055,1.168,1.302c-0.073,16.593-0.104,33.881-0.674,46.125c2.071-0.231,4.229-0.142,6.426,0.319
		c0.437,0.091,0.3,0.745-0.137,0.653c-2.161-0.454-4.286-0.535-6.321-0.296l-0.146,2.684c-0.023-0.529-0.188-0.572-0.213-1.133
		l-0.062-1.497c-1.044,0.146-2.063,0.376-3.051,0.684l0.43,0.691l3.49,5.661c0.129,0.21-2.007,1.909-2.183,1.735l-5.959-5.924
		c-2.281,1.131-4.129,2.813-5.612,4.782c0.479,0.355,1.08,0.641,1.597,0.859c5.217,2.816,10.083,5.511,14.518,8.032
		c0.129,0.238,0.261,0.545,0.382,0.991c0.024,0.165,0.042,0.427,0.015,0.817c-7.011,2.204-11.788,2.218-15.742,2.227l-4.646,0.008
		c0.04,0.624,0.109,1.253,0.212,1.886C107.146,79.606,106.487,79.712,106.417,79.272L106.417,79.272z M61.414,80.998h69.063
		c0.444,0,0.444,0.668,0,0.668H61.414C60.968,81.666,60.968,80.998,61.414,80.998L61.414,80.998z"/>
	<path fill="#ED1C24" d="M67.575,121.491h3.497v3.242c0.043,0.117,0.132,0.224,0.267,0.315c0.135,0.093,0.28,0.144,0.435,0.147
		c0.147,0,0.298-0.037,0.452-0.112c0.154-0.074,0.238-0.187,0.25-0.336v-3.258h3.601v3.616c0.002,0.069,0.019,0.119,0.12,0.125
		h0.071c0.357,0,0.609,0.129,0.758,0.391c0.096,0.171,0.145,0.386,0.145,0.646c0,0.603-0.156,1.069-0.468,1.403
		c-0.253,0.269-0.535,0.401-0.847,0.401c-0.156,0-0.28-0.039-0.374-0.117c-0.093-0.078-0.139-0.169-0.139-0.271
		c0-0.104,0.03-0.191,0.089-0.263s0.163-0.106,0.312-0.106c0.134,0,0.212-0.016,0.266-0.062c0.071-0.062,0.099-0.11,0.099-0.229
		c0-0.118-0.028-0.188-0.092-0.229c-0.067-0.042-0.224-0.035-0.368-0.014c-0.059,0.009-0.108,0.027-0.169,0.041
		c-0.338,0.07-0.662,0.107-0.972,0.105c-0.295-0.011-0.617-0.089-0.963-0.231c-0.346-0.144-0.673-0.287-0.983-0.431
		c-0.309-0.145-0.557-0.223-0.744-0.232c-0.202,0.013-0.429,0.095-0.684,0.248c-0.254,0.152-0.521,0.307-0.799,0.459
		c-0.279,0.152-0.557,0.236-0.833,0.248c-0.221,0.001-0.481-0.043-0.779-0.135c-0.298-0.092-0.561-0.24-0.789-0.446
		s-0.348-0.48-0.36-0.822L67.575,121.491L67.575,121.491z"/>
	<path fill="#ED1C24" d="M84.85,121.491h3.497v3.242c0.043,0.117,0.132,0.224,0.268,0.315c0.134,0.093,0.28,0.144,0.435,0.147
		c0.146,0,0.297-0.037,0.452-0.112c0.154-0.074,0.238-0.187,0.25-0.336v-3.258h3.601v3.616c0.001,0.069,0.019,0.119,0.12,0.125
		h0.072c0.356,0,0.609,0.129,0.757,0.391c0.097,0.171,0.146,0.386,0.146,0.646c0,0.603-0.156,1.069-0.468,1.403
		c-0.253,0.269-0.535,0.401-0.847,0.401c-0.156,0-0.281-0.039-0.374-0.117c-0.093-0.078-0.14-0.169-0.14-0.271
		c0-0.104,0.03-0.191,0.089-0.263c0.06-0.071,0.164-0.106,0.312-0.106c0.134,0,0.212-0.016,0.266-0.062
		c0.07-0.062,0.099-0.11,0.099-0.229c0-0.118-0.029-0.188-0.093-0.229c-0.067-0.042-0.223-0.035-0.368-0.014
		c-0.059,0.009-0.108,0.027-0.169,0.041c-0.338,0.07-0.662,0.107-0.972,0.105c-0.296-0.011-0.617-0.089-0.963-0.231
		c-0.345-0.145-0.673-0.287-0.982-0.431c-0.309-0.145-0.557-0.223-0.744-0.232c-0.202,0.013-0.43,0.095-0.684,0.248
		c-0.254,0.152-0.521,0.307-0.8,0.459c-0.279,0.152-0.557,0.236-0.833,0.248c-0.221,0.001-0.481-0.043-0.779-0.135
		c-0.297-0.092-0.561-0.24-0.789-0.446s-0.348-0.48-0.36-0.822L84.85,121.491L84.85,121.491z"/>
	<path fill="#ED1C24" d="M144.294,125.467l0.041,0.201c0.012,0.06,0.02,0.112,0.02,0.157c0,0.117-0.078,0.265-0.236,0.439
		c-0.16,0.176-0.407,0.334-0.742,0.473c-0.335,0.141-0.766,0.215-1.292,0.223c-0.313-0.011-0.627-0.08-0.94-0.209
		c-0.312-0.13-0.6-0.259-0.859-0.389c-0.26-0.129-0.467-0.198-0.62-0.209c-0.084,0.012-0.226,0.089-0.423,0.231
		c-0.198,0.144-0.428,0.288-0.688,0.431c-0.262,0.146-0.529,0.223-0.803,0.232c-0.757-0.011-1.327-0.179-1.712-0.503
		c-0.386-0.325-0.642-0.743-0.771-1.254s-0.188-1.051-0.179-1.619c0-0.168,0.004-0.39,0.009-0.665
		c0.006-0.275,0.014-0.553,0.023-0.832c0.009-0.277,0.018-0.507,0.027-0.685h3.646v3.138c-0.002,0.141,0.047,0.258,0.146,0.355
		s0.26,0.148,0.481,0.152c0.166,0.002,0.298-0.046,0.392-0.139c0.097-0.094,0.145-0.234,0.146-0.43v-3.078h3.766v3.615
		c0,0.104,0.017,0.182,0.049,0.229c0.033,0.048,0.086,0.071,0.16,0.069c0.104,0.002,0.188,0.008,0.246,0.021
		C144.241,125.438,144.278,125.451,144.294,125.467L144.294,125.467z"/>
	<path fill="#ED1C24" d="M59.32,125.467l0.042,0.201c0.012,0.06,0.018,0.112,0.019,0.157c0.001,0.117-0.078,0.265-0.237,0.439
		c-0.16,0.176-0.406,0.334-0.742,0.473c-0.335,0.141-0.766,0.215-1.292,0.223c-0.313-0.011-0.626-0.08-0.94-0.209
		c-0.313-0.13-0.6-0.259-0.86-0.389c-0.26-0.129-0.467-0.198-0.621-0.209c-0.084,0.012-0.225,0.089-0.423,0.231
		c-0.198,0.144-0.427,0.288-0.688,0.431c-0.261,0.146-0.528,0.223-0.801,0.232c-0.757-0.011-1.328-0.179-1.712-0.503
		c-0.384-0.325-0.641-0.743-0.769-1.254c-0.129-0.511-0.188-1.051-0.179-1.619c0-0.168,0.003-0.39,0.009-0.665
		c0.005-0.275,0.013-0.553,0.022-0.832c0.009-0.277,0.019-0.507,0.029-0.685h3.646v3.138c-0.002,0.141,0.046,0.258,0.146,0.355
		c0.099,0.098,0.259,0.148,0.481,0.152c0.167,0.002,0.297-0.046,0.392-0.139c0.096-0.094,0.144-0.234,0.146-0.43v-3.078h3.766v3.615
		c0,0.104,0.016,0.182,0.048,0.229c0.033,0.048,0.087,0.071,0.161,0.069c0.104,0.002,0.187,0.008,0.247,0.021
		C59.268,125.438,59.305,125.451,59.32,125.467L59.32,125.467z"/>
	<path fill="#ED1C24" d="M41.907,126.959h-3.676v-3.106c0-0.168-0.044-0.31-0.131-0.422c-0.086-0.113-0.212-0.172-0.377-0.176
		c-0.209,0.003-0.366,0.057-0.471,0.16c-0.104,0.104-0.157,0.24-0.157,0.407v3.137H33.3v-3.675c-0.02-0.111-0.099-0.247-0.239-0.407
		s-0.219-0.303-0.239-0.43c0.011-0.164,0.129-0.31,0.354-0.437c0.224-0.127,0.489-0.232,0.793-0.318
		c0.304-0.086,0.582-0.151,0.833-0.194c0.25-0.045,0.407-0.065,0.471-0.065c0.251,0.012,0.499,0.094,0.743,0.246
		c0.244,0.154,0.469,0.309,0.676,0.461c0.208,0.153,0.382,0.236,0.523,0.248c0.207-0.011,0.424-0.086,0.65-0.225
		c0.226-0.141,0.474-0.278,0.743-0.417c0.269-0.14,0.572-0.215,0.909-0.226c0.753,0.021,1.338,0.228,1.755,0.621
		c0.417,0.393,0.628,0.854,0.635,1.381V126.959L41.907,126.959z"/>
	<path fill="#ED1C24" d="M156.823,124.271c0.109-0.002,0.217-0.041,0.316-0.119c0.101-0.076,0.153-0.176,0.16-0.299
		c-0.003-0.199-0.058-0.361-0.164-0.488c-0.107-0.129-0.252-0.194-0.434-0.198c-0.174,0.001-0.328,0.043-0.467,0.127
		c-0.141,0.083-0.213,0.2-0.221,0.353c-0.009,0.116,0.045,0.248,0.156,0.392C156.284,124.181,156.502,124.258,156.823,124.271
		L156.823,124.271z M152.549,126.959l1.464-1.911c-0.291-0.203-0.541-0.454-0.75-0.755c-0.207-0.3-0.314-0.596-0.324-0.89
		c0-0.258,0.074-0.534,0.221-0.827s0.363-0.545,0.648-0.755c0.286-0.211,0.639-0.32,1.059-0.33h4.781
		c0.276-0.001,0.562,0.031,0.852,0.096c0.289,0.064,0.533,0.171,0.734,0.314c0.199,0.146,0.304,0.338,0.312,0.576
		c-0.01,0.099-0.073,0.189-0.194,0.275l-0.358,0.264c-0.12,0.09-0.185,0.188-0.194,0.297v3.646h-3.615v-1.493l-1.076,1.493H152.549
		L152.549,126.959z"/>
	<path fill="#ED1C24" d="M126.886,124.36c-0.013,0.57-0.179,1.062-0.496,1.478c-0.318,0.415-0.707,0.735-1.168,0.961
		c-0.459,0.226-0.912,0.339-1.354,0.343c-0.229-0.004-0.5-0.047-0.814-0.125c-0.316-0.08-0.627-0.173-0.931-0.279
		c-0.304-0.104-0.548-0.199-0.735-0.283v3.585h-3.797v-8.577h3.768c0.043,0.096,0.092,0.188,0.146,0.276
		c0.056,0.089,0.126,0.136,0.213,0.143c0.312-0.022,0.638-0.112,0.979-0.271c0.342-0.156,0.713-0.245,1.113-0.269
		c0.508,0,0.996,0.112,1.463,0.337c0.467,0.227,0.85,0.562,1.148,1.01C126.722,123.135,126.876,123.692,126.886,124.36
		L126.886,124.36z M122.771,123.61c-0.028-0.188-0.123-0.353-0.283-0.493c-0.158-0.144-0.324-0.218-0.5-0.226
		c-0.1-0.023-0.229,0.041-0.393,0.194c-0.16,0.154-0.25,0.548-0.268,1.181c-0.003,0.188,0.011,0.396,0.043,0.618
		c0.031,0.226,0.094,0.421,0.189,0.587c0.094,0.166,0.236,0.252,0.428,0.26c0.305-0.016,0.52-0.147,0.645-0.398
		c0.125-0.252,0.186-0.525,0.182-0.826c0-0.168-0.002-0.332-0.006-0.492C122.804,123.853,122.792,123.719,122.771,123.61
		L122.771,123.61z"/>
	<path fill="#ED1C24" d="M109.116,126.124c-0.373,0.283-0.799,0.493-1.277,0.631c-0.479,0.137-1.008,0.205-1.591,0.204
		c-0.623,0.006-1.237-0.078-1.841-0.252c-0.604-0.173-1.107-0.47-1.51-0.89c-0.401-0.42-0.609-0.994-0.625-1.727
		c0.011-0.588,0.188-1.078,0.537-1.474c0.346-0.396,0.799-0.691,1.357-0.89c0.561-0.197,1.163-0.297,1.811-0.297
		c0.989,0.016,1.738,0.207,2.25,0.574c0.51,0.367,0.768,0.812,0.77,1.337c-0.023,0.699-0.312,1.179-0.862,1.435
		c-0.551,0.26-1.221,0.408-2.007,0.449c0.045,0.225,0.137,0.39,0.271,0.498c0.139,0.106,0.326,0.16,0.565,0.159
		c0.077-0.003,0.261-0.028,0.552-0.077l0.869-0.152l0.551-0.098c0.072,0.074,0.121,0.162,0.146,0.26
		C109.106,125.916,109.119,126.019,109.116,126.124L109.116,126.124z M106.067,124.031c0.299-0.007,0.562-0.082,0.797-0.229
		c0.232-0.145,0.357-0.317,0.369-0.52c-0.004-0.183-0.063-0.332-0.184-0.448c-0.119-0.115-0.277-0.175-0.475-0.179
		c-0.19,0.005-0.324,0.067-0.399,0.19c-0.075,0.12-0.11,0.267-0.108,0.437V124.031L106.067,124.031z"/>
</g>
</svg>
