<?xml version="1.0" encoding="utf-8"?>
<!-- Generator: Adobe Illustrator 16.0.0, SVG Export Plug-In . SVG Version: 6.00 Build 0)  -->
<!DOCTYPE svg PUBLIC "-//W3C//DTD SVG 1.1//EN" "http://www.w3.org/Graphics/SVG/1.1/DTD/svg11.dtd">
<svg version="1.1" id="Layer_1" xmlns="http://www.w3.org/2000/svg" xmlns:xlink="http://www.w3.org/1999/xlink" x="0px" y="0px"
	 width="226.473px" height="309.402px" viewBox="68.571 28.965 226.473 309.402"
	 enable-background="new 68.571 28.965 226.473 309.402" xml:space="preserve">
<g>
	<path d="M69.028,257.546h12.875v46.247h22.7v10.842H69.028V257.546z"/>
	<path d="M133.23,315.566c-16.855,0-26.851-12.791-26.851-29.053c0-17.109,11.011-29.899,27.782-29.899
		c17.533,0,27.104,13.129,27.104,28.883c0,18.804-11.265,30.069-27.952,30.069H133.23z M133.823,305.316
		c8.725,0,13.722-8.215,13.722-19.396c0-10.249-4.828-19.058-13.722-19.058c-8.894,0-13.891,8.64-13.891,19.312
		c0,10.759,5.167,19.144,13.807,19.144h0.084V305.316z"/>
	<path d="M217.421,312.009c-3.981,1.355-11.521,3.22-19.058,3.22c-10.42,0-17.957-2.627-23.208-7.623
		c-5.167-4.998-8.047-12.451-8.047-20.838c0.085-18.973,13.891-29.813,32.61-29.813c7.369,0,13.046,1.438,15.841,2.71l-2.711,10.419
		c-3.135-1.44-6.945-2.457-13.214-2.457c-10.758,0-18.974,6.099-18.974,18.466c0,11.857,7.453,18.719,18.042,18.719
		c2.88,0,5.251-0.338,6.269-0.763V292.02h-8.81v-10.08h21.26V312.009L217.421,312.009z"/>
	<path d="M233.174,315.566c-4.488,0-7.539-3.305-7.539-7.709c0-4.572,3.135-7.707,7.623-7.707c4.489,0,7.454,3.135,7.539,7.707
		c0,4.404-2.965,7.709-7.539,7.709H233.174z M228.432,295.916l-1.865-38.37h13.384l-1.863,38.37H228.432z"/>
	<path d="M292.04,313.109c-2.287,1.102-7.708,2.457-14.567,2.457c-19.736,0-29.899-12.366-29.899-28.715
		c0-19.48,13.891-30.238,31.17-30.238c6.69,0,11.772,1.355,14.062,2.541l-2.712,10.164c-2.54-1.101-6.183-2.116-10.842-2.116
		c-10.164,0-18.126,6.183-18.126,18.973c0,11.435,6.775,18.636,18.211,18.636c3.98,0,8.216-0.764,10.842-1.863L292.04,313.109z"/>
</g>
<g>
	<path d="M69.113,335.605c0.92,0.59,2.241,1.039,3.657,1.039c2.1,0,3.326-1.086,3.326-2.713c0-1.463-0.849-2.336-2.996-3.138
		c-2.595-0.944-4.199-2.312-4.199-4.528c0-2.479,2.052-4.317,5.143-4.317c1.604,0,2.807,0.377,3.491,0.778l-0.566,1.674
		c-0.495-0.307-1.557-0.754-2.996-0.754c-2.17,0-2.996,1.297-2.996,2.383c0,1.486,0.967,2.218,3.161,3.066
		c2.689,1.062,4.034,2.336,4.034,4.67c0,2.455-1.792,4.602-5.543,4.602c-1.533,0-3.208-0.473-4.058-1.038L69.113,335.605z"/>
	<path d="M121.8,322.42c0.991-0.188,2.288-0.33,3.939-0.33c2.029,0,3.515,0.473,4.458,1.321c0.873,0.755,1.416,1.91,1.416,3.325
		c0,1.438-0.425,2.572-1.25,3.396c-1.085,1.156-2.854,1.746-4.859,1.746c-0.613,0-1.18-0.023-1.651-0.143v6.369H121.8V322.42z
		 M123.852,330.062c0.448,0.119,1.038,0.166,1.698,0.166c2.501,0,3.987-1.228,3.987-3.375c0-2.123-1.486-3.137-3.75-3.137
		c-0.896,0-1.581,0.094-1.935,0.165V330.062L123.852,330.062z"/>
	<path d="M175.572,333.105l-1.651,5.002h-2.123l5.402-15.899h2.478l5.425,15.899h-2.193l-1.698-5.002H175.572z M180.786,331.502
		l-1.581-4.576c-0.33-1.037-0.566-1.98-0.802-2.9h-0.071c-0.211,0.92-0.471,1.91-0.777,2.877l-1.558,4.601L180.786,331.502
		L180.786,331.502z"/>
	<path d="M238.969,337.611c-0.73,0.378-2.265,0.756-4.197,0.756c-4.482,0-7.832-2.831-7.832-8.068c0-5.001,3.373-8.351,8.304-8.351
		c1.958,0,3.231,0.425,3.774,0.708l-0.521,1.675c-0.755-0.378-1.863-0.661-3.185-0.661c-3.729,0-6.205,2.383-6.205,6.559
		c0,3.916,2.242,6.394,6.086,6.394c1.274,0,2.549-0.261,3.375-0.66L238.969,337.611z"/>
	<path d="M290.57,330.652h-6.156v5.732h6.889v1.723h-8.964v-15.899h8.61v1.722h-6.535v5.024h6.156V330.652z"/>
</g>
<g>
	<path d="M295.044,173.524v24.317l-112.356,56.067L70.33,197.842V85.257l112.357-56.292L206.557,40.9v88.491L295.044,173.524z
		 M180.885,142.675L73.933,89.31v106.278l106.952,53.367V142.675L180.885,142.675z M182.688,33.021L76.185,86.385l106.502,53.136
		l18.016-9.006l-88.492-44.13l88.492-44.36L182.688,33.021z M202.953,44.954l-82.411,41.431l82.411,41.206V44.954z M184.488,248.955
		l106.953-53.367v-18.011l-88.488,44.133v-88.268l-18.464,9.233L184.488,248.955L184.488,248.955z M206.557,133.442v82.186
		l82.41-40.98L206.557,133.442z"/>
</g>
<polygon points="182.613,140.833 204.615,130.997 204.615,218.488 293.141,175.519 293.141,198.298 182.872,251.361 "/>
<polygon fill="#999999" points="206.557,133.442 206.557,215.628 288.967,174.648 "/>
<polygon fill="#E6E6E6" points="202.95,127.569 202.953,44.954 120.539,86.363 "/>
</svg>
