<?xml version="1.0" encoding="utf-8"?>
<!-- Generator: Adobe Illustrator 16.0.0, SVG Export Plug-In . SVG Version: 6.00 Build 0)  -->
<!DOCTYPE svg PUBLIC "-//W3C//DTD SVG 1.1//EN" "http://www.w3.org/Graphics/SVG/1.1/DTD/svg11.dtd">
<svg version="1.1" id="Capa_1" xmlns="http://www.w3.org/2000/svg" xmlns:xlink="http://www.w3.org/1999/xlink" x="0px" y="0px"
	 width="282.365px" height="140.216px" viewBox="164.817 143.696 282.365 140.216"
	 enable-background="new 164.817 143.696 282.365 140.216" xml:space="preserve">
<g>
	<path d="M278.166,179.917c0,0-1.801,0.591-2.672,1.451c-0.952,0.962-1.905,2.388-1.905,2.388l-1.728,3.286l-2.179,1.375
		l-0.558,1.375l9.042-0.837l4.973,0.063c0,0,5.398,1.153,11.706,1.439c6.312,0.256,15.954-4.235,15.954-4.235
		s6.638,1.889,9.322,2.465c14.859,3.193,23.459-4.932,23.459-4.932s-5.001-1.307-8.838-4.054
		c-3.831-2.748-16.539-1.149-17.373-1.421c-0.819-0.28-1.636-11.521,10.973-20.851c6.771-5.003,17.279-3.288,25.744-2.817
		c7.295,0.406,13.139-0.711,13.139-0.711s-1.429-2.63-12.42-4.787c-5.552-1.085-11.65-4.923-18.229-5.39
		c-15.627-1.089-41.137,29.617-41.137,29.617s-2.884,1.667-4.101,0.819c-7.477-5.211-16.323-11.19-20.625-11.427
		c-3.814-0.21-8.346,2.553-13.376,5.499c-9.79,5.737-20.067,7.16-17.198,8.602c1.936,0.967,9.607,2.602,17.438,0.479
		c4.545-1.236,7.566-3.712,10.273-3.343c3.583,0.479,4.543,1.679,6.445,3.343C275.757,178.587,278.166,179.917,278.166,179.917z"/>
	<path d="M182.727,222.282h-6.547v-21.518h-11.363v57.495h11.363v-24.471h6.547v24.471H194.1v-57.495h-11.373V222.282z
		 M217.096,200.764c-7.366,0-12.746,5.212-12.746,16.08v25.248c0,9.881,4.884,16.08,12.746,16.08c7.843,0,12.738-6.199,12.738-16.08
		v-25.248C229.834,205.976,224.462,200.764,217.096,200.764z M219.94,243.203c0,1.457,0,5.09-2.844,5.09
		c-2.862,0-2.862-3.633-2.862-5.09v-27.494c0-1.876,0-5.062,2.862-5.062c2.844,0,2.844,3.187,2.844,5.062V243.203z M250.407,200.764
		h-9.722v57.407h20.289v-11.043h-10.567V200.764z M279.157,200.764h-9.722v57.407h20.289v-11.043h-10.567V200.764z M300.683,258.259
		h9.352v-57.495h-9.352V258.259z M334.817,225.925c-3.959-3.91-8.071-7.743-8.071-11.083c0-2.575,1.267-4.182,3.325-4.182
		c2.733,0,3.054,3.339,3.054,6.136v2.993h9.082v-5.022c0-8.56-3.698-14.003-12.136-14.003c-7.754,0-12.399,4.651-12.399,15.609
		c0,8.487,3.904,11.579,7.812,15.812c3.847,3.709,7.696,6.977,7.696,11.85c0,2.45-1.161,4.33-3.371,4.33
		c-2.752,0-3.278-2.795-3.278-5.789v-4.107h-9.383v5.988c0,5.789,2.94,13.805,12.549,13.805c10.133,0,13.194-8.855,13.194-14.227
		C342.892,232.828,338.404,230.106,334.817,225.925z M352.204,211.848h6.588v46.411h10.207v-46.411h6.588v-11.084h-23.383V211.848
		L352.204,211.848z M394.87,234.376h10.797v-11.083H394.87v-11.445h12.336v-11.084h-22.425v57.495h22.92v-11.059H394.87V234.376z
		 M442.882,239.384c-1.128-4.864-2.372-8.047-4.124-9.649c4.495-2.011,6.869-6.439,6.869-13.061
		c0-10.235-5.002-15.938-14.477-15.938h-12.219v57.258h9.476v-24.391c0.185,0,0.438-0.104,0.622-0.104
		c2.996,0,3.987,3.69,5.428,11.152l2.617,13.34h10.107L442.882,239.384z M430.217,223.701h-1.81v-12.982h1.867
		c3.931,0,5.798,1.934,5.798,6.617C436.072,222.199,434.33,223.701,430.217,223.701z"/>
	<g>
		<path d="M221.821,283.912c-1.13,0-2.214-0.188-3.251-0.562c-1.037-0.374-1.956-0.913-2.756-1.617
			c-0.792-0.703-1.424-1.562-1.896-2.575c-0.472-1.016-0.708-2.158-0.708-3.432s0.231-2.428,0.694-3.464
			c0.462-1.036,1.103-1.929,1.922-2.679c0.81-0.74,1.767-1.312,2.87-1.717c1.103-0.404,2.282-0.605,3.537-0.605
			c0.934,0,1.78,0.097,2.536,0.291c0.756,0.195,1.477,0.468,2.162,0.818l0.547-0.763h1.069l0.121,5.677h-1.096
			c-0.143-0.553-0.356-1.152-0.641-1.801c-0.285-0.646-0.619-1.193-1.001-1.645c-0.427-0.508-0.934-0.906-1.521-1.193
			c-0.587-0.288-1.259-0.434-2.015-0.434c-0.863,0-1.666,0.162-2.409,0.483c-0.743,0.321-1.386,0.798-1.928,1.427
			c-0.516,0.605-0.921,1.377-1.214,2.312c-0.294,0.936-0.44,1.979-0.44,3.133c0,1.018,0.153,1.951,0.46,2.801
			c0.307,0.85,0.745,1.598,1.314,2.24c0.569,0.637,1.243,1.135,2.022,1.494c0.778,0.359,1.648,0.538,2.609,0.538
			c0.721,0,1.384-0.095,1.989-0.286c0.605-0.189,1.129-0.441,1.575-0.758c0.445-0.328,0.836-0.702,1.174-1.121
			c0.338-0.42,0.614-0.875,0.828-1.369l1.002,0.404c-0.766,1.578-1.78,2.705-3.044,3.383
			C225.069,283.574,223.565,283.912,221.821,283.912z"/>
		<path d="M250.173,283.53h-7.88v-0.797c0.695-0.037,1.271-0.112,1.73-0.226c0.458-0.11,0.688-0.25,0.688-0.414
			c0-0.067-0.009-0.149-0.027-0.246c-0.018-0.098-0.044-0.184-0.08-0.26l-1.57-3.566h-6.655c-0.25,0.523-0.453,0.979-0.609,1.368
			s-0.296,0.748-0.421,1.077c-0.116,0.322-0.196,0.584-0.241,0.785s-0.067,0.367-0.067,0.494c0,0.299,0.281,0.53,0.842,0.695
			c0.561,0.164,1.194,0.262,1.897,0.291v0.797h-7.14v-0.797c0.232-0.016,0.521-0.059,0.869-0.129
			c0.347-0.07,0.632-0.166,0.855-0.286c0.356-0.202,0.632-0.413,0.828-0.634c0.196-0.221,0.388-0.525,0.575-0.914
			c0.953-1.997,2.004-4.241,3.153-6.732c1.149-2.49,2.173-4.707,3.073-6.652h1.069l6.319,13.732
			c0.134,0.293,0.285,0.527,0.455,0.707c0.169,0.18,0.405,0.355,0.708,0.527c0.205,0.104,0.472,0.191,0.802,0.264
			c0.329,0.071,0.605,0.11,0.828,0.117L250.173,283.53L250.173,283.53z M242.545,277.022l-2.872-6.179l-2.831,6.179H242.545z"/>
		<path d="M267.522,278.794l-0.401,4.734h-14.816v-0.797c0.213-0.016,0.523-0.041,0.928-0.078c0.405-0.037,0.688-0.086,0.849-0.146
			c0.267-0.096,0.461-0.238,0.581-0.426c0.12-0.187,0.18-0.426,0.18-0.717v-11.4c0-0.254-0.051-0.479-0.153-0.674
			c-0.103-0.193-0.305-0.352-0.608-0.471c-0.205-0.09-0.492-0.178-0.862-0.264c-0.37-0.086-0.675-0.137-0.915-0.152v-0.796h8.003
			v0.796c-0.25,0.008-0.573,0.045-0.969,0.112s-0.684,0.128-0.862,0.18c-0.303,0.091-0.51,0.243-0.621,0.46
			c-0.112,0.219-0.167,0.449-0.167,0.696v10.692c0,0.492,0.029,0.877,0.086,1.149c0.058,0.272,0.194,0.484,0.408,0.634
			c0.205,0.135,0.51,0.223,0.915,0.264c0.405,0.041,0.973,0.062,1.704,0.062c0.33,0,0.672-0.008,1.029-0.021
			c0.356-0.016,0.695-0.045,1.015-0.09c0.312-0.045,0.599-0.106,0.862-0.187c0.263-0.078,0.457-0.177,0.582-0.297
			c0.365-0.345,0.79-0.866,1.276-1.565c0.485-0.699,0.822-1.266,1.009-1.699H267.522z"/>
		<path d="M278.552,283.53h-8.537v-0.797c0.24-0.015,0.588-0.037,1.042-0.067c0.454-0.028,0.775-0.074,0.962-0.135
			c0.294-0.097,0.508-0.229,0.641-0.396c0.134-0.17,0.201-0.402,0.201-0.701v-11.534c0-0.262-0.049-0.481-0.147-0.657
			c-0.098-0.175-0.33-0.322-0.695-0.441c-0.267-0.09-0.604-0.174-1.009-0.254c-0.405-0.077-0.737-0.125-0.995-0.141v-0.796h8.537
			v0.796c-0.276,0.008-0.605,0.036-0.989,0.086c-0.383,0.049-0.717,0.109-1.002,0.184c-0.338,0.091-0.565,0.236-0.681,0.439
			c-0.116,0.201-0.174,0.426-0.174,0.674v11.521c0,0.247,0.064,0.466,0.194,0.656c0.129,0.191,0.349,0.343,0.661,0.455
			c0.187,0.06,0.492,0.125,0.916,0.195c0.423,0.071,0.781,0.11,1.075,0.117V283.53L278.552,283.53z"/>
		<path d="M297.09,271.591h-1.002c-0.187-0.592-0.577-1.223-1.169-1.896s-1.16-1.044-1.704-1.111
			c-0.276-0.028-0.604-0.051-0.982-0.066s-0.808-0.021-1.289-0.021h-3.18v6.396h2.183c0.661,0,1.174-0.058,1.54-0.175
			c0.366-0.114,0.679-0.293,0.938-0.532c0.179-0.164,0.341-0.42,0.489-0.769c0.147-0.349,0.244-0.721,0.288-1.117h1.002v6.262
			h-1.002c-0.027-0.329-0.118-0.703-0.274-1.122c-0.156-0.419-0.324-0.722-0.502-0.908c-0.268-0.276-0.605-0.466-1.011-0.565
			c-0.406-0.103-0.895-0.152-1.466-0.152h-2.183v5.479c0,0.246,0.058,0.467,0.173,0.66c0.116,0.194,0.321,0.352,0.615,0.471
			c0.134,0.054,0.423,0.117,0.869,0.19c0.445,0.075,0.784,0.116,1.015,0.123v0.798h-8.217v-0.798
			c0.267-0.015,0.624-0.039,1.069-0.071c0.445-0.035,0.735-0.078,0.869-0.131c0.267-0.097,0.461-0.24,0.581-0.432
			c0.12-0.191,0.18-0.421,0.18-0.689v-11.492c0-0.246-0.049-0.465-0.147-0.656c-0.098-0.189-0.303-0.346-0.614-0.465
			c-0.241-0.098-0.563-0.184-0.969-0.26c-0.405-0.074-0.728-0.119-0.969-0.135v-0.796h14.871v3.983H297.09z"/>
		<path d="M315.534,269.494c0.838,0.733,1.492,1.617,1.965,2.653s0.709,2.183,0.709,3.438c0,1.265-0.242,2.412-0.723,3.444
			c-0.481,1.032-1.148,1.911-2.004,2.638c-0.828,0.717-1.791,1.271-2.886,1.66c-1.096,0.389-2.264,0.584-3.502,0.584
			c-1.317,0-2.535-0.209-3.653-0.623c-1.118-0.416-2.078-0.994-2.879-1.733c-0.802-0.726-1.432-1.606-1.891-2.644
			c-0.459-1.035-0.688-2.145-0.688-3.326c0-1.293,0.241-2.447,0.722-3.461c0.481-1.015,1.144-1.892,1.991-2.631
			c0.837-0.734,1.81-1.295,2.919-1.684c1.108-0.391,2.269-0.584,3.479-0.584c1.256,0,2.441,0.197,3.556,0.595
			C313.764,268.218,314.724,268.776,315.534,269.494z M313.544,280.781c0.5-0.681,0.861-1.451,1.09-2.312
			c0.228-0.858,0.34-1.82,0.34-2.883c0-1.092-0.127-2.094-0.381-3.008c-0.254-0.912-0.625-1.688-1.115-2.332
			c-0.489-0.637-1.104-1.133-1.844-1.488c-0.74-0.354-1.586-0.531-2.539-0.531c-1.067,0-1.977,0.205-2.725,0.617
			c-0.748,0.41-1.358,0.961-1.83,1.648c-0.446,0.658-0.777,1.43-0.996,2.312c-0.218,0.883-0.327,1.812-0.327,2.782
			c0,1.078,0.116,2.049,0.347,2.918c0.231,0.867,0.597,1.638,1.096,2.312c0.481,0.658,1.086,1.172,1.816,1.542
			c0.729,0.371,1.604,0.557,2.618,0.557c0.953,0,1.812-0.188,2.58-0.562C312.44,281.978,313.062,281.455,313.544,280.781z"/>
		<path d="M340.499,283.53h-5.105c-1.13-1.487-2.149-2.774-3.062-3.858c-0.912-1.086-1.902-2.203-2.97-3.355h-1.942v5.051
			c0,0.262,0.049,0.49,0.147,0.688c0.098,0.198,0.307,0.35,0.628,0.454c0.16,0.053,0.439,0.102,0.842,0.146
			c0.399,0.046,0.739,0.071,1.015,0.078v0.797h-8.016v-0.797c0.214-0.015,0.521-0.041,0.929-0.078
			c0.405-0.036,0.688-0.086,0.848-0.146c0.269-0.098,0.462-0.239,0.581-0.426c0.121-0.188,0.182-0.428,0.182-0.719v-11.512
			c0-0.262-0.045-0.494-0.134-0.695c-0.09-0.203-0.299-0.355-0.629-0.461c-0.223-0.066-0.512-0.129-0.867-0.185
			c-0.356-0.058-0.659-0.093-0.908-0.107v-0.796h8.751c0.802,0,1.554,0.069,2.258,0.207c0.703,0.139,1.341,0.361,1.911,0.668
			c0.552,0.299,0.992,0.689,1.322,1.174c0.329,0.481,0.494,1.062,0.494,1.743c0,0.613-0.111,1.156-0.334,1.627
			c-0.224,0.472-0.554,0.88-0.988,1.224c-0.401,0.322-0.882,0.601-1.443,0.836c-0.561,0.236-1.181,0.437-1.856,0.601
			c0.936,1.04,1.713,1.915,2.332,2.625c0.618,0.711,1.378,1.575,2.276,2.593c0.394,0.448,0.746,0.779,1.062,0.992
			c0.315,0.214,0.63,0.389,0.941,0.521c0.231,0.098,0.521,0.172,0.868,0.225c0.349,0.053,0.637,0.083,0.868,0.09L340.499,283.53
			L340.499,283.53z M333.472,271.666c0-0.963-0.33-1.728-0.988-2.291c-0.659-0.562-1.591-0.846-2.792-0.846h-2.271v6.821h1.751
			c1.229,0,2.253-0.33,3.072-0.991C333.062,273.699,333.472,272.8,333.472,271.666z"/>
		<path d="M362.138,268.405c-0.25,0.009-0.633,0.067-1.148,0.181c-0.517,0.113-0.888,0.229-1.109,0.348
			c-0.32,0.188-0.536,0.547-0.646,1.076c-0.111,0.531-0.167,1.205-0.167,2.021v11.657h-1.162l-11.49-13.026v8.213
			c0,0.92,0.068,1.627,0.207,2.121c0.138,0.493,0.35,0.846,0.635,1.055c0.204,0.164,0.628,0.318,1.27,0.459
			c0.642,0.144,1.063,0.219,1.27,0.226v0.798h-7.774v-0.798c0.239-0.015,0.646-0.088,1.216-0.219
			c0.568-0.132,0.926-0.248,1.067-0.354c0.312-0.209,0.525-0.527,0.643-0.959c0.114-0.43,0.174-1.164,0.174-2.205v-7.843
			c0-0.344-0.071-0.688-0.214-1.032c-0.144-0.344-0.334-0.608-0.574-0.795c-0.321-0.248-0.755-0.459-1.303-0.636
			c-0.548-0.175-0.991-0.271-1.33-0.286v-0.796h5.417l10.656,12.138v-7.572c0-0.926-0.071-1.639-0.215-2.137
			c-0.143-0.496-0.348-0.828-0.613-0.992c-0.25-0.143-0.657-0.28-1.224-0.416c-0.565-0.135-0.994-0.209-1.289-0.225v-0.796h7.709
			v0.795H362.138z"/>
		<path d="M373.408,283.53h-8.537v-0.797c0.24-0.015,0.588-0.037,1.042-0.067c0.454-0.028,0.773-0.074,0.962-0.135
			c0.294-0.097,0.508-0.229,0.642-0.396c0.135-0.17,0.2-0.402,0.2-0.701v-11.534c0-0.262-0.049-0.481-0.146-0.657
			c-0.099-0.175-0.329-0.322-0.694-0.441c-0.268-0.09-0.604-0.174-1.009-0.254c-0.405-0.077-0.737-0.125-0.995-0.141v-0.796h8.537
			v0.796c-0.276,0.008-0.605,0.036-0.988,0.086c-0.384,0.049-0.718,0.109-1.002,0.184c-0.339,0.091-0.566,0.236-0.682,0.439
			c-0.116,0.201-0.175,0.426-0.175,0.674v11.521c0,0.247,0.064,0.466,0.193,0.656c0.13,0.191,0.35,0.343,0.662,0.455
			c0.187,0.06,0.491,0.125,0.915,0.195c0.423,0.071,0.781,0.11,1.075,0.117V283.53L373.408,283.53z"/>
		<path d="M394.912,283.53h-7.881v-0.797c0.694-0.037,1.271-0.112,1.729-0.226c0.459-0.11,0.688-0.25,0.688-0.414
			c0-0.067-0.01-0.149-0.027-0.246c-0.018-0.098-0.044-0.184-0.08-0.26l-1.57-3.566h-6.653c-0.25,0.523-0.453,0.979-0.609,1.368
			s-0.297,0.748-0.421,1.077c-0.116,0.322-0.196,0.584-0.241,0.785s-0.065,0.367-0.065,0.494c0,0.299,0.279,0.53,0.841,0.695
			c0.562,0.164,1.194,0.262,1.896,0.291v0.797h-7.14v-0.797c0.231-0.016,0.521-0.059,0.868-0.129
			c0.348-0.07,0.633-0.166,0.854-0.286c0.356-0.202,0.633-0.413,0.828-0.634c0.196-0.221,0.389-0.525,0.574-0.914
			c0.953-1.997,2.005-4.241,3.153-6.732c1.148-2.49,2.174-4.707,3.073-6.652h1.067l6.32,13.732c0.133,0.293,0.284,0.527,0.454,0.707
			c0.169,0.18,0.404,0.355,0.708,0.527c0.205,0.104,0.472,0.191,0.802,0.264c0.329,0.071,0.605,0.11,0.828,0.117v0.798H394.912z
			 M387.285,277.022l-2.872-6.179l-2.831,6.179H387.285z"/>
	</g>
</g>
</svg>
