<?xml version="1.0" encoding="utf-8"?>
<!-- Generator: Adobe Illustrator 16.0.0, SVG Export Plug-In . SVG Version: 6.00 Build 0)  -->
<!DOCTYPE svg PUBLIC "-//W3C//DTD SVG 1.1//EN" "http://www.w3.org/Graphics/SVG/1.1/DTD/svg11.dtd">
<svg version="1.1" id="Layer_1" xmlns="http://www.w3.org/2000/svg" xmlns:xlink="http://www.w3.org/1999/xlink" x="0px" y="0px"
	 width="241.037px" height="241.029px" viewBox="14.554 19.582 241.037 241.029"
	 enable-background="new 14.554 19.582 241.037 241.029" xml:space="preserve">
<g id="Layer_1_1_">
</g>
<g id="Layer_3">
</g>
<g id="Layer_4">
</g>
<g id="Layer_2">
	
		<path fill="#FFFFFF" stroke="#221F1F" stroke-width="2" stroke-linecap="round" stroke-linejoin="round" stroke-miterlimit="2.6131" d="
		M254.591,140.098c0-66.007-53.508-119.516-119.516-119.516c-66.008,0-119.521,53.509-119.521,119.516
		c0,66.008,53.513,119.514,119.521,119.514C201.083,259.611,254.591,206.105,254.591,140.098L254.591,140.098z"/>
	<path d="M251.707,140.098c0-64.417-52.219-116.634-116.632-116.634c-64.417,0-116.637,52.217-116.637,116.634
		c0,64.414,52.22,116.633,116.637,116.633C199.488,256.73,251.707,204.512,251.707,140.098L251.707,140.098z"/>
	<path fill="#FFFFFF" d="M84.6,74.54c-0.446-3.115-2.322-5.732-5.202-7.042c-2.888-1.312-6.245-0.818-8.792,0.984
		c-0.207,0.148-0.399,0.326-0.596,0.484c0.421-1.441,0.551-2.895,0.191-4.372c-0.35-1.438-1.106-2.768-2.167-3.802
		c-2.16-2.107-5.437-2.8-8.268-1.741c-1.332,0.497-2.519,1.352-3.409,2.463c-0.505,0.631-1.011,1.263-1.516,1.897
		c-2.645,3.301-5.285,6.6-7.927,9.901c-2.271,2.833-4.539,5.666-6.806,8.499c-0.15,0.187-0.298,0.375-0.448,0.562
		c-0.012,0.01,0.291,0.24,0.312,0.256c0.881,0.706,1.761,1.409,2.641,2.115c3.329,2.665,6.658,5.33,9.989,7.997
		c3.292,2.639,6.59,5.278,9.889,7.919c0.841,0.672,1.679,1.344,2.522,2.017c0.034,0.03,0.23,0.226,0.265,0.185
		c0.166-0.21,0.333-0.418,0.498-0.625c2.263-2.829,4.526-5.653,6.788-8.479c2.712-3.386,5.423-6.772,8.135-10.159
		c1.4-1.748,2.946-3.396,3.612-5.588C84.652,76.883,84.708,75.705,84.6,74.54L84.6,74.54L84.6,74.54z M55.403,84.091
		c-1.371-1.098-2.743-2.197-4.113-3.293c-0.524-0.419-1.045-0.838-1.57-1.257c-0.013-0.013,0.537-0.689,0.577-0.733
		c2.553-3.191,5.11-6.385,7.663-9.575c0.674-0.841,1.277-1.739,2.312-2.167c1.413-0.582,3.073-0.208,4.098,0.918
		c0.827,0.914,1.101,2.156,0.834,3.345c-0.305,1.057-1.053,1.835-1.727,2.674c-1.343,1.679-2.689,3.36-4.034,5.04
		C58.098,80.727,56.75,82.41,55.403,84.091L55.403,84.091L55.403,84.091z M75.669,80.162c-0.868,1.084-1.733,2.167-2.599,3.25
		c-2.381,2.975-4.768,5.952-7.149,8.927c-0.011,0.012-0.075,0.113-0.091,0.1c-0.123-0.098-0.246-0.195-0.368-0.293
		c-0.649-0.521-1.294-1.037-1.943-1.557c-1.124-0.9-2.248-1.8-3.371-2.698c2.161-2.7,4.322-5.399,6.482-8.099
		c1.053-1.314,2.105-2.631,3.157-3.944c0.754-0.942,1.706-1.611,2.958-1.65c1.501-0.049,2.81,0.828,3.448,2.158
		C76.725,77.645,76.545,79.067,75.669,80.162L75.669,80.162z"/>
	<path fill="#FFFFFF" d="M207.971,140.098c0-40.261-32.638-72.896-72.896-72.896c-40.261,0-72.899,32.635-72.899,72.896
		c0,40.26,32.638,72.896,72.899,72.896C175.333,212.994,207.971,180.357,207.971,140.098L207.971,140.098z"/>
	<path fill="#0099D8" d="M135.072,70.896c-37.777,0.981-68.222,31.425-69.2,69.202h69.2V70.896L135.072,70.896z"/>
	<path fill="#0099D8" d="M135.072,209.302c37.782-0.983,68.223-31.426,69.206-69.204h-69.205L135.072,209.302L135.072,209.302z"/>
	<polygon fill="#FFFFFF" points="212.836,60.326 206.761,54.684 187.039,80.592 193.111,86.231 214.741,76.312 200.328,95.244 
		204.507,102.408 234.1,88.827 229.924,81.666 212.846,89.501 224.984,73.556 219.671,66.918 201.456,75.274 	"/>
	<polygon fill="#FFFFFF" points="124.344,40.47 132.036,62.339 138.111,62.339 145.805,40.47 146.615,62.339 155.121,63.554 
		153.904,30.751 142.971,29.535 135.075,52.62 127.174,29.535 116.239,30.751 115.026,63.554 123.534,62.339 	"/>
</g>
</svg>
