<?xml version="1.0" encoding="utf-8"?>
<!-- Generator: Adobe Illustrator 16.0.0, SVG Export Plug-In . SVG Version: 6.00 Build 0)  -->
<!DOCTYPE svg PUBLIC "-//W3C//DTD SVG 1.1//EN" "http://www.w3.org/Graphics/SVG/1.1/DTD/svg11.dtd">
<svg version="1.1" id="Layer_1" xmlns="http://www.w3.org/2000/svg" xmlns:xlink="http://www.w3.org/1999/xlink" x="0px" y="0px"
	 width="175.75px" height="159.514px" viewBox="8.501 16.621 175.75 159.514" enable-background="new 8.501 16.621 175.75 159.514"
	 xml:space="preserve">
<g>
	<path d="M24.172,148.621h2.393c2.153,0,3.509,0.778,3.509,2.659c0,1.707-1.436,2.305-3.509,2.305h-2.393V148.621L24.172,148.621
		L24.172,148.621z M21.568,155.49h5.316c3.137,0,5.795-1.199,5.795-4.21c0-1.616-1.09-3.258-3.032-3.723
		c1.41-0.774,2.393-1.815,2.393-3.257c0-2.26-2.232-4.009-4.971-4.009h-5.502L21.568,155.49L21.568,155.49L21.568,155.49z
		 M24.172,142.197h2.393c1.886,0,2.87,0.731,2.87,2.104c0,1.554-1.249,2.503-2.87,2.503h-2.393V142.197L24.172,142.197z"/>
	<path d="M44.96,148.621l2.577-4.362l2.605,4.362H44.96L44.96,148.621L44.96,148.621z M40.786,155.844l3.085-5.229h7.335
		l3.109,5.229l2.605-0.442l-9.277-15.463H47.59l-9.25,15.461L40.786,155.844L40.786,155.844z"/>
	<polygon points="63.593,155.844 63.593,140.293 66.196,139.938 66.196,147.626 66.25,147.626 73.72,139.675 76.165,140.604 
		69.253,147.69 75.979,155.024 73.348,155.844 66.25,147.738 66.196,147.738 66.196,155.49 	"/>
	<polygon points="83.688,155.49 83.688,140.293 93.414,140.293 93.973,142.287 86.292,142.287 86.292,146.584 92.432,146.584 
		92.432,148.576 86.292,148.576 86.292,153.495 94.56,153.495 93.816,155.49 	"/>
	<path d="M104.634,142.287h1.859c2.02,0,3.402,0.819,3.402,2.614c0,1.662-1.621,2.725-3.402,2.725h-1.859V142.287L104.634,142.287
		L104.634,142.287z M104.634,155.49v-7.377h0.053l6.354,7.729l2.924-0.621l-5.503-6.354c2.5-0.468,4.042-1.706,4.042-3.966
		c0-3.457-3.27-4.608-5.982-4.608h-4.49v15.461L104.634,155.49L104.634,155.49z"/>
	<polygon points="120.767,155.666 120.767,140.293 123.371,139.938 123.371,155.49 	"/>
	<polygon points="132.117,155.49 132.117,140.293 141.847,140.293 142.405,142.287 134.722,142.287 134.722,146.584 140.86,146.584 
		140.86,148.576 134.722,148.576 134.722,153.495 142.99,153.495 142.244,155.49 	"/>
	<path d="M151.787,152.056c0.744,0.977,2.021,1.795,3.483,1.795c1.912,0,3.32-0.774,3.32-2.658c0-3.522-8.347-1.594-8.347-6.934
		c0-2.68,2.312-4.32,5.61-4.32c2.02,0,3.934,0.889,5.129,2.217l-1.754,1.464c-0.983-0.866-1.994-1.687-3.51-1.687
		c-1.675,0-2.871,0.887-2.871,2.326c0,3.123,8.348,1.706,8.348,6.955c0,2.702-2.5,4.63-5.663,4.63c-2.498,0-4.013-0.995-5.661-2.459
		L151.787,152.056L151.787,152.056z"/>
	<polygon points="32.391,171.539 28.76,170.113 28.76,169.664 32.991,171.344 32.991,171.733 28.76,173.415 28.76,172.966 	"/>
	<path d="M38.697,174.015c0.593,0.801,1.3,1.182,2.404,1.182c1.189,0,2.067-0.604,2.067-1.672c0-2.364-4.982-1.072-4.982-4.012
		c0-1.539,1.387-2.39,3.043-2.39c0.962,0,1.924,0.396,2.562,1.009l-0.538,0.566c-0.61-0.469-1.174-0.812-2.024-0.812
		c-1.132,0-2.081,0.504-2.081,1.575c0,2.103,4.982,0.997,4.982,3.988c0,1.536-1.33,2.51-3.044,2.51c-1.315,0-2.39-0.468-3.07-1.478
		L38.697,174.015L38.697,174.015z"/>
	<polygon points="49.991,167.319 50.867,167.123 50.867,175.765 49.991,175.862 	"/>
	<polygon points="63.803,167.319 64.68,167.172 64.68,175.96 64.652,175.96 58.155,169.142 58.127,169.142 58.127,175.765 
		57.25,175.862 57.25,167.123 57.277,167.123 63.775,173.903 63.803,173.903 	"/>
	<path d="M77.077,175.565c-0.552,0.221-1.217,0.395-1.826,0.395c-2.645,0-4.953-1.907-4.953-4.419c0-2.51,2.308-4.418,4.953-4.418
		c0.609,0,1.273,0.172,1.826,0.396l0.127,0.934c-0.396-0.27-1.188-0.564-2.023-0.564c-2.237,0-3.921,1.637-3.921,3.654
		c0,2.02,1.684,3.654,3.921,3.654c0.906,0,1.627-0.293,2.023-0.566L77.077,175.565L77.077,175.565z"/>
	<polygon points="83.091,175.765 83.091,167.319 88.342,167.319 88.514,168.082 83.97,168.082 83.97,171.099 87.861,171.099 
		87.861,171.862 83.97,171.862 83.97,175 88.753,175 88.598,175.765 	"/>
	<polygon points="104.817,168.106 102.282,169.341 102.028,168.812 105.694,166.865 105.722,166.865 105.722,175.765 
		104.817,175.862 	"/>
	<path d="M115.28,176.135c1.758-1.237,3.813-3.815,3.813-5.885c0-1.674-1.188-3.127-3.141-3.127c-1.755,0-3.043,1.328-3.043,3.063
		c0,1.539,1.161,2.992,2.985,2.992c0.584,0,1.119-0.236,1.571-0.518l0.029,0.021c-0.752,1.196-1.843,2.191-2.958,3.079l0.511,0.371
		h0.231V176.135z M113.817,170.274c0-1.193,0.709-2.438,2.096-2.438c1.314,0,2.277,0.995,2.277,2.266
		c0,1.229-0.681,2.435-2.192,2.435C114.567,172.537,113.817,171.479,113.817,170.274L113.817,170.274L113.817,170.274z"/>
	<path d="M126.188,170.963c1.258,0.049,2.816-0.198,2.816-1.54c0-0.984-0.809-1.585-1.871-1.585c-0.934,0-1.584,0.394-2.179,0.984
		l-0.582-0.492c0.879-0.778,1.501-1.207,2.789-1.207c1.485,0,2.747,0.837,2.747,2.19c0,0.91-0.609,1.562-1.544,1.931
		c1.118,0.37,1.812,1.194,1.812,2.229c0,1.549-1.472,2.485-3.156,2.485c-1.246,0-2.363-0.642-2.9-1.613l0.736-0.403
		c0.41,0.762,1.162,1.304,2.151,1.304c1.271,0,2.265-0.629,2.265-1.847c0-1.502-1.459-1.771-3.084-1.785V170.963L126.188,170.963z"
		/>
	<path d="M138.542,173.006c0.991-0.913,2.307-1.883,2.307-3.235c0-1.146-0.933-1.933-2.236-1.933c-1.217,0-2.164,0.785-2.164,1.87
		c0,1.156,0.863,1.896,2.137,2.066l-0.566,0.604c-1.441-0.209-2.475-1.316-2.475-2.586c0-1.514,1.314-2.67,3.041-2.67
		c1.883,0,3.172,1.193,3.172,2.816c0,1.012-0.964,2.07-1.729,2.744l-2.659,2.366h4.333l-0.145,0.713h-6.029L138.542,173.006
		L138.542,173.006z"/>
	<polygon points="151.052,173.415 146.821,171.733 146.821,171.344 151.052,169.664 151.052,170.113 147.42,171.539 
		151.052,172.966 	"/>
	<path fill="#B8BCC3" d="M57.128,135.134c-21.596-18.1-50.125-45.178-48.565-71.38c0.183-3.034,0.938-6.702,2.803-10.602
		c1.158-2.768,2.888-5.667,5.399-8.592c-5.436,6.349-7.093,12.65-7.374,17.391c-1.523,25.423,26.129,51.687,47.054,69.247
		l2.194,1.826l2.23-1.777c12.346-9.896,31.223-16.307,56.133-19.036c12.662-1.39,27.179-3.412,38.839-7.921
		c12.919-4.984,20.402-12.261,22.877-22.23c4.932-19.882-8.996-46.779-18.367-61.895l1.342,1.801
		c9.651,15.27,26.836,41.399,21.582,62.507c-2.533,10.286-10.26,17.792-23.594,22.924c-12.027,4.644-27.005,6.738-40.07,8.177
		c-25.702,2.804-45.201,9.407-57.938,19.596l-2.291,1.843L57.128,135.134L57.128,135.134z M160.34,20.148
		c-0.28-0.451-0.562-0.902-0.829-1.329c0.276,0.437,0.557,0.885,0.842,1.343L160.34,20.148L160.34,20.148z"/>
	<path fill="#FFFFFF" d="M75.492,20.57L75.492,20.57C53.73,23.562,36.96,28.997,25.651,36.715
		c-12.747,8.703-15.905,18.54-16.3,25.259C7.83,87.382,35.48,113.656,56.41,131.208l2.189,1.831l2.224-1.781
		c12.347-9.896,31.236-16.296,56.141-19.028c12.664-1.39,27.18-3.416,38.837-7.92c12.919-4.992,20.399-12.267,22.875-22.236
		c5.089-20.483-9.851-48.415-19.2-63.234l-1.067-1.692c-1.908,0.09-5.64,0.027-8.62-0.093
		C137.549,16.559,112.083,15.534,75.492,20.57L75.492,20.57z"/>
	<path fill="#C73132" d="M156.536,20.689c9.964,15.791,23.34,42.104,18.768,60.542c-4.764,19.206-31.008,24.506-58.722,27.54
		c-27.397,3.006-46.105,10.293-57.935,19.772c-22.021-18.464-47.206-43.22-45.827-66.366c0.928-15.645,17.47-31.879,63.149-38.163
		C121.644,17.73,149.666,20.958,156.536,20.689L156.536,20.689z"/>
	<path fill="#FFFFFF" d="M63.958,69.329c0.129-8.835,7.87-19.756,17.269-19.926c2.866-0.047,6.126,2.317,6.097,6.026
		c-0.004,0.93,0.273,0.906,0.547,0.156c0.635-1.724,3.783-7.306,9.967-9.859c1.009-0.42,1.325-0.456,1.733-1.633
		c0.404-1.175,2.77-7.574,4.852-10.522c0.612-0.868,2.139-1.594,3.268-1.947c1.58-0.484,2.199-0.263,1.123,2.818
		c-0.953,2.724-1.729,5.516-2.603,7.911c-0.202,0.566-0.28,1.057,0.662,0.771c3.731-1.125,8.741-2.146,12.162-5.16
		c0.731-0.649,1.517-1.275,1.377,0.053c-0.151,1.477-3.408,9.259-15.224,11.75c-1.524,0.321-1.647,0.468-1.787,1.034
		c-0.193,0.764-2.604,7.047-3.066,11.53c-0.179,1.755,0.454,3.069,2.068,3.029c1.65-0.037,4.906-3.371,7.509-7.32
		c2.606-3.948,5.368-9.604,6.711-11.419c0.647-0.881,1.415-1.341,2.179-1.8c0.768-0.46,4.319-1.927,3.494,0.807
		c-0.89,2.903-2.846,7.393-3.443,11.851c-0.326,2.438,1.219,3.192,2.522,3.054c3.481-0.381,6.778-7.666,10.417-14.948
		c0.962-1.913,2.779-3.213,4.678-3.482c1.695-0.242,2.121,0.25,1.648,1.798c-0.225,0.737-1.186,3.525-1.688,5.02
		c-0.502,1.493-2.425,7.563,0.188,7.437c2.344-0.118,4.981-5.943,9.083-10.999c4.102-5.06,6.555-7.245,9.617-7.815
		c1.064-0.205,1.535,0.381,1.496,1.03c-0.037,0.657-1.23,1.996-1.11,4.065c0.114,2.068,2.14,5.365,2.299,10.649
		c0.163,5.522-2.543,11.925-10.563,12.469c-2.248,0.156-6.143-1.486-6.336-5.057c-0.104-1.89,0.699-2.649,1.312-2.696
		c0.612-0.055,0.537,0.682,0.935,1.237c0.475,0.646,2.172,2.579,4.476,2.096c2.683-0.564,3.298-2.252,3.315-4.979
		c0.027-2.737-1.604-5.802-2.091-7.565c-0.409-1.479-0.003-2.1-0.358-2.171c-0.299-0.058-0.666,0.604-1.279,1.225
		c-2.758,2.813-9.512,16.685-15.08,16.212c-2.875-0.244-3.872-2.232-3.67-4.403c0.084-0.882,0.156-2.077-0.482-1.255
		c-0.64,0.819-5.512,8.947-10.793,8.762c-4.294-0.152-4.791-4.715-4.791-5.708c0-0.998,0.051-1.546,0.078-1.903
		c0.027-0.359-0.129-0.377-0.436,0.049c-1.172,1.633-9.069,12.848-14.776,12.771c-3.729-0.047-5.208-2.756-5.057-6.399
		c0.156-3.64,1.996-9.424,2.913-11.952c0.176-0.488,0.345-1.269-0.917-0.535c-1.266,0.724-4.655,2.006-6.714,6.478
		c-0.468,1.03-0.734,1.779-1.836,3.83c-1.297,2.414-7.316,12.986-15.711,12.986C65.885,76.777,63.916,72.547,63.958,69.329
		L63.958,69.329L63.958,69.329z M70.706,65.322c0.108,1.63,0.634,3.83,2.965,3.857c4.905,0.048,8.092-7.458,8.068-9.99
		c-0.024-2.173-1.411-3.888-3.397-3.76C72.596,55.82,70.578,63.455,70.706,65.322L70.706,65.322z"/>
	<path fill="#FFFFFF" d="M72.021,77.926c-4.698,4.115-12.582,7.622-17.962,9.324c-0.596,0.18-1.166,0.353-1.703,0.505
		c-1.197,0.322-2.203,0.456-2.905,0.578c-3.473,0.599-4.906-0.017-3.574-4.921c3.627-13.397,7.539-24.374,15.861-44.002
		c0.987-2.335,1.181-3.33-1.08-2.897c-2.253,0.429-9.115,1.954-10.594,5.105c-4.519,9.651-11.482,27.171-16.459,44.712
		c-2.852,10.063-0.966,11.579,2.908,11.911l0.142,0.012c2.423,0.229,7.282-0.473,9.578-1.162
		c14.66-4.389,21.894-11.291,24.809-14.655c1.09-1.259,1.744-2.013,2.464-3.59C74.04,77.687,73.178,76.915,72.021,77.926
		L72.021,77.926z"/>
	<path fill="#FFFFFF" d="M111.481,92.982c-1.354,0.109-1.905-3.095-2.33-5.957c-0.754-5.036-3.392-7.925-4.479-8.473
		c-1.09-0.55-1.467-0.217-1.729,0.276c-0.246,0.458-0.738,2.179-0.569,3.704c-3.843-2.729-6.705-1.732-7.133-1.548
		c-0.426,0.176-0.458,0.432-0.132,0.712c0.689,0.602,2.941,2.092,4.265,3.6c2.407,2.74,3.457,6.293,4.131,8.403
		c0.673,2.102,2.047,3.833,4.659,3.583c2.396-0.225,4.604-1.882,5.244-5.922C112.974,92.088,112.115,92.935,111.481,92.982
		L111.481,92.982L111.481,92.982z M111.192,82.578c0.109-0.776-0.176-1.619-0.75-1.867c-0.776-0.33-1.058,0.572-0.858,1.191
		c0.399,1.27,0.549,3.024,0.208,4.635C110.463,85.07,111.069,83.488,111.192,82.578L111.192,82.578L111.192,82.578z M113.782,84.841
		c0.624-0.645,0.722-1.008,0.527-1.625c-0.191-0.619-1.002-0.097-1.525,0.727c-1.131,1.768-1.659,3.778-1.719,5.465
		C111.795,86.625,113.397,85.239,113.782,84.841L113.782,84.841L113.782,84.841z M108.882,76.592
		c1.118-0.023,1.657,1.945,1.783,2.933c0.377-0.552,1.273-1.486,2.256-1.439c2.301,0.11,2.934,3.014,3.268,5.767
		c0.334,2.752-0.07,5.364-0.767,7.1c0.353-0.489,1.822-2.682,3.978-4.375c1.949-1.539,5.033-2.737,6.066-4.841
		c0.167-0.332,0.071-0.436-0.193-0.509c-3.256-0.848-6.42,0.518-7.703,1.883c0.681-4.435-0.979-6.963-1.827-7.602
		c-0.47-0.358-0.776-0.238-1.165-0.087c-0.914,0.362-2.319,1.212-3.422,2.509c-0.385-1.507-0.881-2.356-1.473-2.932
		c-0.539-0.533-0.865-0.326-1.195-0.032c-1.062,0.946-1.928,2.707-2.029,4.007C106.808,78.138,108.003,76.612,108.882,76.592
		L108.882,76.592z"/>
	<path fill="#FFFFFF" d="M110.489,100.888c0.371-2.621,5.379-5.944,12.094-7.042c6.718-1.099,10.254-2.925,11.248-4.961
		c0.986-2.036,0.588,7.556-8.979,9.746c-5.283,1.21-6.246,0.61-12.549,1.869C110.651,100.833,110.375,101.657,110.489,100.888
		L110.489,100.888z"/>
	<path fill="#FFFFFF" d="M109.772,101.876c-1.465-1.752-2.562-3.241-10.353-4.042c-6.347-0.644-11.167,1.241-13.029-1.866
		c-0.166-0.275-0.386,2.695,0.885,4.348c1.261,1.652,3.592,4.178,11.886,2.203c1.614-0.387,3.274-0.569,4.927-0.662
		c1.482-0.078,3.004-0.115,4.447,0.25c0.302,0.076,0.597,0.185,0.893,0.274c0.45,0.146,0.656,0.248,0.693,0.157
		C110.147,102.481,109.967,102.115,109.772,101.876L109.772,101.876z"/>
	<path fill="#FFFFFF" d="M118.834,93.32c1.849-2.554,4.47-2.624,6.526-4.043c2.188-1.505,2.482-2.691,2.548-3.048
		c0.073-0.354,0.854,1.489,0.644,2.624c-0.212,1.135-0.883,2.625-3.191,2.979c-1.842,0.287-3.332,0.498-4.61,0.784
		C119.304,92.93,118.834,93.32,118.834,93.32L118.834,93.32z"/>
	<path fill="#FFFFFF" d="M100.862,95.6c-0.432-0.289-0.899-0.536-1.387-0.749c-1.26-0.559-2.508-1.062-3.681-1.801
		c-0.653-0.403-1.519-1.056-1.246-1.945c-0.545,0.429-0.738,1.402-0.785,1.942c-0.062,0.684,0.095,1.35,0.571,1.863
		c1.027,1.105,2.711,1.579,4.134,1.887c1.448,0.312,2.89,0.356,4.243,1.037C102.354,96.852,101.683,96.145,100.862,95.6
		L100.862,95.6z"/>
</g>
</svg>
