<?xml version="1.0" encoding="utf-8"?>
<!-- Generator: Adobe Illustrator 16.0.0, SVG Export Plug-In . SVG Version: 6.00 Build 0)  -->
<!DOCTYPE svg PUBLIC "-//W3C//DTD SVG 1.1//EN" "http://www.w3.org/Graphics/SVG/1.1/DTD/svg11.dtd">
<svg version="1.1" id="Layer_1" xmlns="http://www.w3.org/2000/svg" xmlns:xlink="http://www.w3.org/1999/xlink" x="0px" y="0px"
	 width="165.925px" height="79.553px" viewBox="317.416 260.298 165.925 79.553"
	 enable-background="new 317.416 260.298 165.925 79.553" xml:space="preserve">
<g>
	<polygon fill="#054D90" points="400.378,263.409 442.607,282.209 467.104,282.209 467.104,290.076 480.498,290.076 
		480.498,337.008 320.258,337.008 320.258,290.076 333.653,290.076 333.653,282.209 358.149,282.209 	"/>
	<polygon fill="none" stroke="#D11E41" stroke-width="5.685" stroke-miterlimit="2.6131" points="400.378,263.409 442.607,282.209 
		467.104,282.209 467.104,290.076 480.498,290.076 480.498,337.008 320.258,337.008 320.258,290.076 333.654,290.076 
		333.654,282.209 358.149,282.209 	"/>
	<polygon fill="#054D90" stroke="#FFFFFF" stroke-width="1.2184" stroke-miterlimit="2.6131" points="400.378,263.409 
		442.607,282.209 467.104,282.209 467.104,290.076 480.498,290.076 480.498,337.008 320.258,337.008 320.258,290.076 
		333.654,290.076 333.654,282.209 358.149,282.209 	"/>
	<path fill="#FFFFFF" d="M379.327,298.609c1.404,0,2.679,1.2,3.062,2.534l0.384,1.601v19.334c-0.384,1.198-1.148,2.532-2.425,2.932
		l-1.786,0.269h-12.119c-1.148,0-2.296-0.4-2.935-1.467c-0.51-0.666-0.51-1.468-0.638-2.133v-20.269
		c0.255-1.066,0.893-2.133,1.914-2.533l1.021-0.267H379.327L379.327,298.609z M375.755,304.609h-5.996c0,0,0,10,0,14.397
		c2.041,0,4.21,0,6.124,0L375.755,304.609L375.755,304.609z"/>
	<path fill="#FFFFFF" d="M349.601,292.875c0,0.267,0,25.867,0,26.132h10.59v6.269h-17.606v-32.4H349.601L349.601,292.875z"/>
	<polygon fill="#FFFFFF" points="442.607,292.875 442.607,300.476 436.61,300.476 436.61,292.875 	"/>
	<path fill="#FFFFFF" d="M458.938,300.875v5.466c-1.147-0.399-2.552-1.198-3.699-1.6c-2.041-0.802-5.23-1.867-6.763-0.269
		c-0.51,0.4-0.638,1.066-0.638,1.603c0.383,1.864,2.424,2.133,3.7,3.065c3.188,1.332,7.526,3.732,7.909,7.865
		c0.766,3.066-0.383,5.867-2.551,7.734c-4.212,3.6-15.184-0.268-15.184-0.268v-6.134c0,0,7.272,2.802,9.059,2.533
		c1.021-0.134,1.913-0.666,2.297-1.601c0.128-0.801,0.128-1.6-0.384-2.268c-3.57-2.666-8.165-3.066-10.589-7.467
		c-1.147-2.398-1.147-5.732,0.383-7.999c2.041-3.2,5.358-4.133,8.932-3.733C455.237,298.342,458.938,300.875,458.938,300.875
		L458.938,300.875z"/>
	<path fill="#FFFFFF" d="M403.95,319.008h3.7v-20.399h7.145v22.667c0,1.468-0.766,3.066-2.169,3.732l-1.403,0.268h-8.548
		c-0.894-0.133-1.786-1.2-2.297-2c-0.638,1.199-1.021,2-2.296,2c-1.403,0-5.486,0-8.165,0c-0.638-0.133-0.893-0.133-1.276-0.399
		c-0.766-0.399-2.041-0.935-2.041-3.601v-22.667h7.018v20.399h3.827v-20.399c2.297,0,4.338,0,6.507,0L403.95,319.008L403.95,319.008
		z"/>
	<path fill="#FFFFFF" d="M435.08,304.609h-9.441v4.397h9.441v6h-9.441c0,1.201,0,4,0,4h9.441v6.269h-16.458v-26.667h16.458V304.609
		L435.08,304.609z"/>
	<path fill="#FFFFFF" d="M460.341,300.609c0-1.333,1.021-2.268,2.169-2.268c1.021,0,2.041,0.933,2.041,2.268
		c0,1.199-1.021,2.133-2.041,2.133C461.361,302.742,460.341,301.809,460.341,300.609L460.341,300.609z M462.51,302.342
		c0.894,0,1.658-0.666,1.658-1.732c0-1.067-0.766-1.867-1.658-1.867c-1.021,0-1.786,0.8-1.786,1.867
		C460.724,301.676,461.489,302.342,462.51,302.342L462.51,302.342z M462,301.809h-0.384v-2.533h0.894c0.639,0,0.894,0.267,0.894,0.8
		c0,0.4-0.255,0.533-0.639,0.667l0.767,1.065h-0.512l-0.638-1.065H462V301.809L462,301.809z M462.51,300.476
		c0.255,0,0.51-0.133,0.51-0.534c0-0.267-0.255-0.267-0.51-0.267H462v0.8L462.51,300.476L462.51,300.476z"/>
</g>
</svg>
