<?xml version="1.0" encoding="utf-8"?>
<!-- Generator: Adobe Illustrator 16.0.0, SVG Export Plug-In . SVG Version: 6.00 Build 0)  -->
<!DOCTYPE svg PUBLIC "-//W3C//DTD SVG 1.1//EN" "http://www.w3.org/Graphics/SVG/1.1/DTD/svg11.dtd">
<svg version="1.1" id="Layer_1" xmlns="http://www.w3.org/2000/svg" xmlns:xlink="http://www.w3.org/1999/xlink" x="0px" y="0px"
	 width="162.254px" height="144.982px" viewBox="15.251 23.887 162.254 144.982"
	 enable-background="new 15.251 23.887 162.254 144.982" xml:space="preserve">
<g>
	<path fill="#C7C8CA" d="M149.097,145.765h-5.64v0.178c0.571,0.059,0.867,0.117,0.867,0.512c0,0.119-0.079,0.572-0.118,0.689
		l-1.398,5.026c-0.197,0.711-0.375,0.75-0.928,0.851v0.176h5.776l0.688-1.854l-0.178-0.077c-0.809,1.122-1.301,1.559-3.488,1.559
		c-0.296,0-0.789-0.041-0.789-0.396c0-0.139,0.06-0.336,0.77-2.959c1.873,0.062,1.873,0.062,1.873,0.611
		c0,0.178-0.039,0.354-0.1,0.532l0.237,0.06l0.769-2.641l-0.196-0.041c-0.118,0.237-0.218,0.454-0.315,0.61
		c-0.256,0.355-0.314,0.476-2.148,0.494l0.748-2.662c0.061-0.217,0.08-0.295,0.908-0.295c2.129,0,2.168,0.236,2.069,1.34
		l0.256,0.021L149.097,145.765L149.097,145.765z"/>
	<path fill="#C7C8CA" d="M140.342,145.765h-5.657v0.178c0.571,0.059,0.866,0.117,0.866,0.512c0,0.119-0.079,0.572-0.118,0.689
		l-1.398,5.026c-0.197,0.711-0.355,0.75-0.928,0.851v0.176h5.776l0.71-1.854l-0.197-0.077c-0.809,1.122-1.28,1.559-3.488,1.559
		c-0.297,0-0.77-0.041-0.77-0.396c0-0.139,0.039-0.336,0.77-2.959c1.854,0.062,1.854,0.062,1.854,0.611
		c0,0.178-0.039,0.354-0.078,0.532l0.217,0.06l0.769-2.641l-0.196-0.041c-0.119,0.237-0.218,0.454-0.316,0.61
		c-0.256,0.355-0.314,0.476-2.147,0.494l0.749-2.662c0.059-0.217,0.1-0.295,0.906-0.295c2.148,0,2.169,0.236,2.09,1.34l0.237,0.021
		L140.342,145.765L140.342,145.765z"/>
	<path fill="#C7C8CA" d="M132.142,145.765h-5.658v0.178c0.591,0.059,0.867,0.078,0.867,0.492c0,0.217-0.08,0.553-0.119,0.709
		l-1.398,5.026c-0.197,0.729-0.355,0.75-0.927,0.851v0.176h2.858v-0.176c-0.375-0.021-0.867-0.062-0.867-0.515
		c0-0.119,0.039-0.256,0.117-0.512l0.689-2.525c0.218,0,0.671,0.021,1.242,0.021c0.178,0,0.572,0.038,0.572,0.551
		c0,0.235-0.061,0.494-0.1,0.649l0.197,0.062l0.867-2.662l-0.217-0.059c-0.514,1.024-0.553,1.024-2.445,1.063l0.75-2.662
		c0.078-0.256,0.197-0.295,0.906-0.295c1.695,0,2.109,0.156,2.109,0.867c0,0.158-0.04,0.314-0.04,0.473l0.236,0.021L132.142,145.765
		L132.142,145.765z"/>
	<path fill="#C7C8CA" d="M123.485,145.765h-5.658v0.178c0.592,0.059,0.888,0.078,0.888,0.492c0,0.217-0.099,0.553-0.138,0.709
		l-1.4,5.026c-0.197,0.729-0.354,0.75-0.927,0.851v0.176h2.858v-0.176c-0.375-0.021-0.867-0.062-0.867-0.515
		c0-0.119,0.04-0.256,0.117-0.512l0.69-2.525c0.218,0,0.67,0.021,1.242,0.021c0.196,0,0.571,0.038,0.571,0.551
		c0,0.235-0.059,0.494-0.1,0.649l0.197,0.062l0.868-2.662l-0.218-0.059c-0.514,1.024-0.553,1.024-2.444,1.063l0.75-2.662
		c0.078-0.256,0.196-0.295,0.905-0.295c1.695,0,2.109,0.156,2.109,0.867c0,0.158-0.039,0.314-0.039,0.473l0.236,0.021
		L123.485,145.765L123.485,145.765z"/>
	<path fill="#C7C8CA" d="M114.752,148.385c0-1.911-1.262-2.76-2.622-2.76c-2.051,0-4.633,2.483-4.633,4.988
		c0,2.168,1.52,2.778,2.482,2.778C112.524,153.394,114.752,150.672,114.752,148.385L114.752,148.385z"/>
	<path fill="#C7C8CA" d="M105.724,147.912l0.434-2.269h-0.236c-0.061,0.119-0.139,0.258-0.475,0.258
		c-0.256,0-0.945-0.276-1.773-0.276c-2.602,0-4.613,2.504-4.613,4.713c0,2.267,1.656,3.056,2.979,3.056
		c1.676,0,2.681-1.185,3.095-1.695l-0.196-0.158c-0.533,0.533-1.34,1.342-2.623,1.342c-1.34,0-1.971-0.947-1.971-2.426
		c0-1.676,1.163-4.416,3.43-4.416c1.638,0,1.735,1.518,1.756,1.834L105.724,147.912L105.724,147.912z"/>
	<path fill="#C7C8CA" d="M94.328,145.765h-6.052l-0.493,1.754L88,147.558c0.651-1.398,1.222-1.398,2.701-1.398l-1.636,6.012
		c-0.197,0.75-0.69,0.789-1.202,0.85v0.177h3.292v-0.177c-0.849-0.061-1.026-0.08-1.026-0.532c0-0.179,0.059-0.337,0.138-0.65
		l1.578-5.678h0.631c0.848,0,1.34,0.256,1.144,1.438l0.197,0.021L94.328,145.765L94.328,145.765z"/>
	<path fill="#C7C8CA" d="M86.205,145.765h-2.267v0.178c0.631,0.059,0.808,0.178,0.808,0.61c0,0.195-0.079,0.414-0.138,0.57
		l-1.144,4.278h-0.02l-2.346-5.639h-1.833v0.178c0.532,0.039,0.789,0.218,0.966,0.65l-1.341,4.73
		c-0.433,1.479-0.552,1.598-1.183,1.697v0.176h2.267v-0.176c-0.335-0.021-0.808-0.062-0.808-0.515c0-0.101,0.02-0.297,0.099-0.592
		l1.281-4.729h0.04l2.602,6.188h0.197l1.636-5.736c0.395-1.36,0.454-1.518,1.183-1.694L86.205,145.765L86.205,145.765z"/>
	<path fill="#C7C8CA" d="M75.815,153.021c-0.65-0.062-0.729-0.197-0.868-0.986l-1.064-6.428h-0.296l-3.292,5.678
		c-0.946,1.598-1.045,1.637-1.479,1.736v0.176h2.129v-0.176c-0.513-0.062-0.67-0.101-0.67-0.416c0-0.236,0.079-0.396,0.237-0.689
		l0.631-1.281h2.504l0.236,1.479c0.02,0.157,0.02,0.315,0.02,0.336c0,0.452-0.295,0.512-0.887,0.571v0.177h2.799V153.021
		L75.815,153.021z"/>
	<path fill="#C7C8CA" d="M68.915,145.765h-6.052l-0.473,1.754l0.197,0.039c0.67-1.398,1.222-1.398,2.701-1.398l-1.637,6.012
		c-0.197,0.75-0.69,0.789-1.203,0.85v0.177h3.292v-0.177c-0.848-0.061-1.005-0.08-1.005-0.532c0-0.179,0.04-0.337,0.118-0.65
		l1.597-5.678h0.611c0.848,0,1.341,0.256,1.164,1.438l0.177,0.021L68.915,145.765L68.915,145.765z"/>
	<path fill="#C7C8CA" d="M59.748,147.873l0.473-2.269h-0.276c-0.139,0.218-0.237,0.297-0.493,0.297
		c-0.237,0-0.375-0.061-0.591-0.139c-0.198-0.08-0.473-0.139-0.986-0.139c-1.045,0-1.952,0.75-1.952,1.854
		c0,0.75,0.059,0.867,1.636,2.543c0.375,0.396,0.788,0.75,0.788,1.479c0,0.572-0.394,1.498-1.458,1.498
		c-1.025,0-1.676-0.888-1.676-1.912c0-0.078,0.02-0.137,0.02-0.235l-0.217-0.021l-0.394,2.543h0.217
		c0.04-0.158,0.118-0.375,0.434-0.375c0.395,0,0.966,0.396,1.755,0.396c1.518,0,2.307-1.185,2.307-2.246
		c0-0.75-0.237-1.203-1.282-2.248c-0.986-0.967-1.124-1.224-1.124-1.775c0-0.748,0.572-1.123,1.203-1.123
		c1.38,0,1.4,1.184,1.419,1.834L59.748,147.873L59.748,147.873z"/>
	<path fill="#C7C8CA" d="M53.419,145.765h-2.267v0.178c0.611,0.059,0.789,0.178,0.789,0.61c0,0.195-0.079,0.414-0.118,0.57
		l-1.144,4.278h-0.04l-2.346-5.639H46.46v0.178c0.552,0.039,0.789,0.218,0.986,0.65l-1.36,4.73
		c-0.414,1.479-0.552,1.598-1.163,1.697v0.176h2.248v-0.176c-0.335-0.021-0.808-0.062-0.808-0.515c0-0.101,0.039-0.297,0.118-0.592
		l1.261-4.729h0.06l2.582,6.188H50.6l1.637-5.736c0.375-1.36,0.434-1.518,1.183-1.694L53.419,145.765L53.419,145.765z"/>
	<path fill="#C7C8CA" d="M39.895,153.194h2.78v-0.176c-0.494-0.061-0.77-0.1-0.77-0.455c0-0.274,0.059-0.512,0.119-0.729
		l1.399-5.047c0.197-0.711,0.375-0.73,0.927-0.848v-0.178h-2.8v0.178c0.493,0.059,0.789,0.098,0.789,0.492
		c0,0.217-0.059,0.473-0.118,0.709l-1.399,5.026c-0.197,0.711-0.355,0.75-0.927,0.851V153.194L39.895,153.194z"/>
	<path fill="#C7C8CA" d="M122.835,39.402c-3.45-8.95-14.411-15.515-27.305-15.515c-12.913,0-23.855,6.565-27.305,15.515h-48.34
		v25.333h0.985V40.388h47c-0.513,1.597-0.789,3.292-0.789,5.027c0,1.42,0.197,2.819,0.552,4.18H24.952v15.141h0.985V50.581H67.93
		c3.075,9.364,14.293,16.363,27.601,16.363c13.308,0,24.524-6.979,27.601-16.363h38.621v14.155h0.984V49.595h-39.311
		c0.354-1.341,0.532-2.76,0.532-4.18c0-1.735-0.257-3.43-0.769-5.027h42.761v24.347h0.985V39.402H122.835L122.835,39.402z"/>
	<polygon fill="#C7C8CA" points="93.854,167.883 93.854,168.869 166.938,168.869 166.938,103.771 165.951,103.771 165.951,167.883 	
		"/>
	<polygon fill="#C7C8CA" points="93.854,157.69 93.854,158.676 162.737,158.676 162.737,103.771 161.752,103.771 161.752,157.69 	
		"/>
	<polygon fill="#C7C8CA" points="93.854,158.676 93.854,157.69 25.937,157.69 25.937,103.771 24.952,103.771 24.952,158.676 	"/>
	<polygon fill="#C7C8CA" points="93.854,168.869 93.854,167.883 20.87,167.883 20.87,103.771 19.885,103.771 19.885,168.869 	"/>
	<path fill="#636466" d="M66.273,135.078v3.075h92.403v-3.075C127.804,135.078,97.088,135.078,66.273,135.078L66.273,135.078z"/>
	<path fill="#636466" d="M101.918,66.392c-2.069,0.354-4.199,0.552-6.388,0.552s-4.337-0.197-6.388-0.552H60.063v3.056h89.426
		v-3.056H101.918L101.918,66.392z"/>
	<path fill="#FFFFFF" d="M176.282,108.207c0-1.676-1.36-3.037-3.018-3.037c-1.676,0-3.035,1.361-3.035,3.037
		c0,1.655,1.359,3.017,3.035,3.017C174.922,111.203,176.282,109.862,176.282,108.207L176.282,108.207z"/>
	<path fill="#FFFFFF" d="M127.586,58.033c0-1.636-1.34-2.977-2.996-2.977c-1.655,0-2.997,1.341-2.997,2.977
		c0,1.656,1.342,2.997,2.997,2.997C126.246,61.03,127.586,59.689,127.586,58.033L127.586,58.033z"/>
	<path fill="#939598" d="M175.929,108.207c0,1.479-1.203,2.662-2.662,2.662c-1.498,0-2.683-1.185-2.683-2.662
		s1.185-2.683,2.662-2.683S175.929,106.729,175.929,108.207L175.929,108.207z"/>
	<path fill="#939598" d="M127.231,58.033c0,1.479-1.184,2.642-2.643,2.642c-1.459,0.02-2.643-1.163-2.643-2.622
		c0-1.479,1.184-2.661,2.643-2.661S127.231,56.574,127.231,58.033L127.231,58.033z"/>
	<path fill="#FFFFFF" d="M172.122,109.765h0.434v-1.421h1.104c0.688,0,0.491,0.611,0.552,1.007l0.079,0.414h0.513
		c-0.197-0.275-0.119-0.354-0.158-0.787c-0.059-0.572-0.059-0.634-0.414-0.851c0.336-0.235,0.453-0.394,0.453-0.828
		c-0.059-0.748-0.552-0.846-1.063-0.846h-1.498L172.122,109.765L172.122,109.765z"/>
	<path fill="#FFFFFF" d="M123.466,59.59h0.434v-1.4h1.086c0.688,0,0.492,0.611,0.57,0.986l0.061,0.414h0.513
		c-0.196-0.276-0.139-0.355-0.157-0.789c-0.061-0.571-0.061-0.611-0.414-0.828c0.334-0.256,0.452-0.395,0.434-0.828
		c-0.039-0.749-0.532-0.848-1.045-0.848h-1.479L123.466,59.59L123.466,59.59z"/>
	<path fill="#939598" d="M173.62,106.826c0.275,0,0.671,0.061,0.611,0.631c-0.039,0.435-0.315,0.515-0.611,0.515h-1.064v-1.146
		H173.62L173.62,106.826z"/>
	<path fill="#939598" d="M124.964,56.672c0.258,0,0.651,0.079,0.592,0.631c-0.039,0.434-0.314,0.513-0.592,0.513h-1.064v-1.144
		H124.964L124.964,56.672z"/>
	<path d="M95.53,24.912c14.905,0,27.088,9.206,27.088,20.503c0,11.277-12.184,20.484-27.088,20.484
		c-14.904,0-27.088-9.207-27.088-20.484C68.442,34.118,80.626,24.912,95.53,24.912L95.53,24.912z"/>
	<path fill="#636466" d="M99.907,36.603c1.34,0.039,2.72,0.275,3.785,0.709c0.67-0.415,1.733-1.084,1.023-1.972
		c-0.178-0.177-0.374-0.295-0.611-0.375C102.47,34.493,100.933,35.341,99.907,36.603L99.907,36.603z"/>
	<path fill="#FFFFFF" d="M99.67,36.583c0.849-1.183,2.583-2.188,4.16-1.893c0.591,0.118,1.262,0.395,1.301,1.281
		c0.021,0.552-0.631,1.124-1.222,1.419c0.57,0.256,1.045,0.572,1.32,0.966c1.32-0.769,1.734-2.169,1.399-3.312
		c-0.336-1.124-1.302-2.05-2.978-1.991c-2.346,0.059-4.869,2.011-5.993,3.647C98.271,36.603,98.96,36.563,99.67,36.583L99.67,36.583
		z"/>
	<path fill="#FFFFFF" d="M112.8,53.104c0.316-0.395,0.436-0.414,0.828-0.118l2.387,1.734c0.395,0.296,0.531,0.396,0.235,0.888
		l0.099,0.079l1.086-1.597l-0.1-0.079c-0.314,0.434-0.454,0.473-0.868,0.177l-1.005-0.749c0.1-0.118,0.178-0.217,0.275-0.354
		c0.414-0.611,0.553-1.045,0.492-1.459c-0.02-0.177-0.078-0.592-0.513-0.907c-0.688-0.513-1.459,0-1.991,0.789l-1.024,1.518
		L112.8,53.104L112.8,53.104z"/>
	<path fill="#FFFFFF" d="M113.411,58.269c0.986-0.729,1.302-2.07,0.474-3.292c-0.887-1.32-2.247-1.34-3.153-0.67
		c-0.907,0.651-1.342,1.972-0.455,3.292C111.085,58.841,112.406,58.999,113.411,58.269L113.411,58.269z"/>
	<path fill="#FFFFFF" d="M110.571,59.965c-0.274,0.098-0.473,0.04-0.67-0.079l-1.951-1.065c0.296-0.197,1.045-0.71,0.689-1.578
		c-0.414-1.005-1.479-0.67-2.031-0.434l-1.715,0.75l0.039,0.118c0.455-0.138,0.572-0.118,0.771,0.355l1.144,2.799
		c0.196,0.493,0.217,0.631-0.257,0.887l0.04,0.119l1.715-0.75l-0.039-0.138c-0.513,0.197-0.631,0.099-0.809-0.335l-0.514-1.262
		l0.336-0.177l2.287,1.34l1.006-0.434L110.571,59.965L110.571,59.965z"/>
	<path fill="#FFFFFF" d="M100.952,63.277l1.872-0.414c2.03-0.453,2.268-1.912,2.09-2.819c-0.315-1.538-1.519-2.07-3.095-1.715
		l-1.795,0.394l0.039,0.139c0.514-0.079,0.593-0.02,0.69,0.493l0.631,3.036c0.099,0.473,0.039,0.611-0.454,0.749L100.952,63.277
		L100.952,63.277z"/>
	<path fill="#FFFFFF" d="M87.408,62.528c-0.532-0.158-0.591-0.315-0.473-0.769l0.828-3.49l0.355,0.099
		c0.71,0.178,0.868,0.354,0.829,1.144l0.158,0.04l0.236-1.183l-3.687-0.946l-0.315,1.144l0.157,0.039
		c0.316-0.709,0.533-0.788,1.243-0.591l0.354,0.079l-0.808,3.411c-0.118,0.513-0.177,0.651-0.789,0.533l-0.02,0.118l1.912,0.493
		L87.408,62.528L87.408,62.528z"/>
	<path fill="#FFFFFF" d="M84.746,56.909l-0.118-0.06c-0.039,0.06-0.138,0.178-0.315,0.099c-0.138-0.079-0.375-0.474-0.729-0.651
		c-0.532-0.296-1.262-0.237-1.597,0.473c-0.315,0.631-0.059,1.104,0.335,1.735c0.611,1.005,0.611,1.262,0.434,1.616
		c-0.158,0.335-0.592,0.572-1.064,0.315c-0.809-0.433-0.71-1.399-0.69-1.754l-0.138-0.079l-0.474,1.42l0.138,0.079
		c0.059-0.118,0.158-0.177,0.295-0.118c0.178,0.099,0.355,0.473,0.829,0.71c0.847,0.453,1.557,0.079,1.813-0.454
		c0.631-1.282-1.32-2.484-0.867-3.411c0.198-0.395,0.591-0.434,0.907-0.276c0.63,0.335,0.729,1.104,0.591,1.676l0.138,0.079
		L84.746,56.909L84.746,56.909z"/>
	<path fill="#FFFFFF" d="M79.601,59.432c-0.237-0.197-0.256-0.315-0.138-0.867l0.887-4.259l-0.118-0.079l-3.075,1.932
		c-0.276,0.177-0.729,0.454-0.946,0.513c-0.178,0.02-0.276-0.04-0.375-0.099l-0.079,0.118L76.84,57.5l0.079-0.099
		c-0.118-0.099-0.375-0.296-0.217-0.532c0.06-0.06,0.118-0.118,0.197-0.178l0.71-0.473l1.439,1.084l-0.158,0.71
		c-0.02,0.098-0.078,0.354-0.138,0.434c-0.158,0.217-0.334,0.079-0.532-0.079l-0.079,0.118l1.38,1.045L79.601,59.432L79.601,59.432z
		"/>
	<path fill="#FFFFFF" d="M77.452,51.625l-1.143-1.597l-0.099,0.079c0.236,0.375,0.295,0.532-0.119,0.867l-2.405,1.893
		c-0.415,0.315-0.552,0.217-0.829-0.118l-0.099,0.079l2.169,3.017l1.144-0.473l-0.098-0.138c-0.947,0.237-1.222-0.099-1.834-0.947
		c-0.335-0.453-0.395-0.571-0.197-0.729l2.563-2.011c0.414-0.335,0.552-0.217,0.848,0.158L77.452,51.625L77.452,51.625z"/>
	<path fill="#FFFFFF" d="M116.171,41.334l-0.117-0.178c-0.729,0.138-1.085-0.021-1.558-0.749c-0.554-0.868-0.554-0.868-0.315-1.045
		l1.381-0.966l0.57,0.907c0.314,0.493,0.276,0.631-0.117,1.005l0.078,0.138l1.301-0.907l-0.078-0.138
		c-0.435,0.217-0.61,0.256-0.946-0.256l-0.591-0.907l1.242-0.867c0.196-0.138,0.235-0.059,0.314,0.059l0.514,0.789
		c0.412,0.631,0.434,0.848-0.021,1.281l0.099,0.158l0.789-0.591l-1.991-3.076l-0.117,0.079c0.217,0.375,0.274,0.533-0.178,0.848
		l-2.466,1.754c-0.435,0.295-0.571,0.197-0.847-0.158l-0.1,0.079l2.03,3.135L116.171,41.334L116.171,41.334z"/>
	<path fill="#FFFFFF" d="M109.291,35.439l1.479,1.203l0.078-0.099c-0.395-0.375-0.375-0.513-0.099-0.887l0.849-1.144l1.615,1.321
		l-0.808,1.064c-0.315,0.415-0.435,0.533-0.888,0.178l-0.08,0.118l1.479,1.203l0.079-0.119c-0.395-0.355-0.375-0.512-0.1-0.867
		l1.834-2.465c0.295-0.394,0.414-0.414,0.848-0.118l0.079-0.099l-1.479-1.203l-0.078,0.099c0.375,0.355,0.396,0.473,0.1,0.887
		l-0.809,1.065l-1.617-1.301l0.809-1.065c0.296-0.394,0.415-0.414,0.85-0.118l0.077-0.118l-1.479-1.203l-0.079,0.118
		c0.375,0.335,0.395,0.454,0.099,0.868l-1.794,2.405c-0.314,0.414-0.434,0.512-0.887,0.177L109.291,35.439L109.291,35.439z"/>
	<path fill="#FFFFFF" d="M108.228,34.75c-0.514-0.256-0.533-0.414-0.336-0.848l1.459-3.253l0.314,0.158
		c0.671,0.316,0.809,0.513,0.611,1.282l0.158,0.079l0.434-1.104l-3.432-1.675l-0.531,1.064l0.158,0.079
		c0.434-0.631,0.649-0.67,1.319-0.355l0.335,0.158l-1.419,3.194c-0.217,0.474-0.296,0.611-0.866,0.355L106.373,34l1.794,0.867
		L108.228,34.75L108.228,34.75z"/>
	<path fill="#FFFFFF" d="M100.676,32.384c1.202,0.217,2.326-0.513,2.582-1.972c0.257-1.597-0.688-2.602-1.774-2.8
		c-1.084-0.197-2.305,0.414-2.562,1.992C98.665,31.083,99.474,32.167,100.676,32.384L100.676,32.384z"/>
	<path fill="#FFFFFF" d="M97.284,31.713c-0.571-0.02-0.65-0.157-0.65-0.63v-3.588h0.375c0.729,0,0.928,0.118,1.064,0.906h0.158
		l-0.041-1.202h-3.785l-0.04,1.202h0.178c0.138-0.769,0.315-0.906,1.064-0.906h0.355v3.509c0,0.513-0.02,0.69-0.631,0.709v0.139
		h1.951L97.284,31.713L97.284,31.713z"/>
	<path fill="#FFFFFF" d="M87.743,32.817l1.873-0.394c2.031-0.414,2.287-1.854,2.129-2.78c-0.295-1.538-1.479-2.07-3.075-1.755
		l-1.794,0.355l0.04,0.138c0.512-0.059,0.591-0.02,0.69,0.493l0.572,3.056c0.099,0.493,0.04,0.611-0.473,0.749L87.743,32.817
		L87.743,32.817z"/>
	<path fill="#FFFFFF" d="M84.923,34.079c1.124-0.473,1.716-1.715,1.164-3.095c-0.572-1.498-1.892-1.833-2.898-1.4
		c-1.025,0.434-1.754,1.617-1.183,3.115C82.539,34.079,83.78,34.552,84.923,34.079L84.923,34.079z"/>
	<path fill="#FFFFFF" d="M80.665,36.484c0.986-0.75,1.262-2.109,0.414-3.312c-0.907-1.301-2.247-1.301-3.154-0.611
		c-0.887,0.67-1.321,2.011-0.414,3.312C78.358,37.076,79.68,37.214,80.665,36.484L80.665,36.484z"/>
	<path fill="#FFFFFF" d="M76.604,36.464l-1.005,1.459l0.099,0.059c0.296-0.355,0.375-0.473,0.828-0.118l0.887,0.67
		c0.197,0.138,0.04,0.631-0.216,1.005c-0.611,0.887-1.656,1.006-2.642,0.256c-1.36-1.025-1.124-2.129-0.749-2.662
		c0.552-0.808,1.301-0.69,1.794-0.552l0.099-0.119l-1.183-0.828l-0.098,0.118c0.138,0.158,0.039,0.355,0,0.415
		c-0.138,0.177-0.493,0.295-0.888,0.868c-0.848,1.202-0.453,2.642,0.473,3.332c0.71,0.533,1.144,0.611,1.676,0.552
		c0.71-0.079,1.301-0.592,1.696-1.164c0.434-0.611,0.651-1.617,0.572-1.675l-1.104-0.829c-0.375-0.295-0.295-0.453-0.138-0.709
		L76.604,36.464L76.604,36.464z"/>
	<polygon fill="#FFFFFF" points="115.994,44.843 118.084,44.843 118.733,42.853 119.385,44.843 121.476,44.843 119.778,46.085 
		120.431,48.077 118.733,46.835 117.039,48.077 117.688,46.085 	"/>
	<path fill="#FFFFFF" d="M95.924,59.098c-0.276,2.03-1.636,3.154-1.597,4.337c0.02,1.203,0.749,1.735,1.735,1.735
		c0.964-0.02,1.478-0.591,1.458-1.735C97.481,62.291,96.24,61.088,95.924,59.098L95.924,59.098z"/>
	<path fill="#FFFFFF" d="M96.102,52.572c2.149-5.106,4.081-10.666,8.102-13.663c-1.676-1.38-3.923-1.4-5.953-1.321
		c-1.676,0.059-3.075,1.341-4.692,1.695c-1.163,0.276-2.385,0.118-3.568,0.158c-1.558,1.4-2.287,2.917-2.622,4.515
		C91.213,45.829,92.494,50.797,96.102,52.572L96.102,52.572z"/>
	<path fill="#FFFFFF" d="M95.866,56.771c0.828-4.554,3.844-10.469,5.48-12.815c0.67,0.414,1.34,0.828,2.012,1.242
		c-1.264,4.594-3.787,8.458-6.585,11.888C96.22,57.796,95.708,57.698,95.866,56.771L95.866,56.771z"/>
	<path fill="#C7C8CA" d="M107.28,35.578c0.02,0.157,0.02,0.335,0.02,0.532c-0.06,1.104-0.769,2.11-1.773,2.721
		c0.453,1.755-1.342,7.216-2.721,10.251c-1.834,4.002-4.377,7.531-5.975,9.01c9.621-0.473,17.271-5.974,17.271-12.677
		C114.103,41.452,111.438,37.904,107.28,35.578L107.28,35.578z"/>
	<path fill="#C7C8CA" d="M86.126,46.046c-0.098-3.292,1.183-5.737,3.569-7.374c1.616,0.099,2.72,0.02,4.022-0.237
		c1.36-0.276,2.444-1.143,3.449-1.794c0.888-1.479,2.366-2.721,4.022-3.352c-1.795-0.394-3.688-0.591-5.659-0.591
		c-10.232,0-18.571,5.698-18.571,12.716c0,6.703,7.649,12.224,17.29,12.677c-2.109-1.419-4.613-4.061-5.343-6.841
		C88.236,48.609,87.822,46.637,86.126,46.046L86.126,46.046z"/>
	<path fill="#636466" d="M87.901,47.899c0.236,0.513,0.414,1.124,0.611,1.794h-9.306c-0.335-0.572-0.591-1.183-0.788-1.794H87.901
		L87.901,47.899z"/>
	<path fill="#636466" d="M89.064,51.763c-0.059-0.177-0.099-0.335-0.158-0.512c-0.118-0.454-0.216-0.888-0.334-1.282h-9.208
		c0.375,0.611,0.828,1.222,1.361,1.794H89.064L89.064,51.763z"/>
	<path fill="#636466" d="M89.162,52.039c0.237,0.611,0.552,1.222,0.907,1.794H83.13c-0.809-0.552-1.519-1.163-2.149-1.794H89.162
		L89.162,52.039z"/>
	<path fill="#636466" d="M90.247,54.109c0.434,0.631,0.927,1.242,1.459,1.794h-4.574c-1.321-0.493-2.523-1.104-3.608-1.794H90.247
		L90.247,54.109z"/>
	<path fill="#636466" d="M91.962,56.179c0.394,0.395,0.788,0.77,1.202,1.084c-1.873-0.158-3.647-0.552-5.283-1.084H91.962
		L91.962,56.179z"/>
	<path fill="#636466" d="M97.601,57.303c0.295-0.335,0.61-0.709,0.946-1.124h4.634C101.464,56.751,99.571,57.146,97.601,57.303
		L97.601,57.303z"/>
	<path fill="#636466" d="M98.743,55.904c0.414-0.552,0.849-1.144,1.281-1.794h7.513c-1.085,0.69-2.288,1.301-3.608,1.794H98.743
		L98.743,55.904z"/>
	<path fill="#636466" d="M100.202,53.833c0.375-0.572,0.729-1.163,1.085-1.794h8.792c-0.63,0.631-1.34,1.243-2.148,1.794H100.202
		L100.202,53.833z"/>
	<path fill="#636466" d="M101.444,51.763c0.334-0.591,0.649-1.183,0.945-1.794h9.307c-0.375,0.611-0.828,1.222-1.36,1.794H101.444
		L101.444,51.763z"/>
	<path fill="#636466" d="M103.317,47.899c-0.157,0.415-0.336,0.809-0.514,1.183c-0.078,0.197-0.178,0.414-0.275,0.611h9.326
		c0.334-0.572,0.59-1.183,0.787-1.794H103.317L103.317,47.899z"/>
	<path fill="#636466" d="M103.437,47.624c0.217-0.572,0.453-1.183,0.67-1.794h8.912c-0.041,0.611-0.14,1.203-0.297,1.794H103.437
		L103.437,47.624z"/>
	<path fill="#636466" d="M104.204,45.553c0.197-0.591,0.395-1.202,0.572-1.794h8.082c0.1,0.533,0.158,1.084,0.158,1.656
		c0,0.04,0,0.099,0,0.138H104.204L104.204,45.553z"/>
	<path fill="#636466" d="M104.854,43.483c0.179-0.63,0.336-1.242,0.453-1.794h6.842c0.275,0.572,0.492,1.183,0.649,1.794H104.854
		L104.854,43.483z"/>
	<path fill="#636466" d="M105.368,41.413c0.138-0.69,0.217-1.301,0.217-1.794h5.244c0.453,0.572,0.867,1.163,1.184,1.794H105.368
		L105.368,41.413z"/>
	<path fill="#636466" d="M106.847,37.549c-0.314,0.513-0.789,0.946-1.32,1.282c0.039,0.138,0.06,0.315,0.06,0.512h5.007
		c-0.552-0.65-1.183-1.242-1.893-1.794H106.847L106.847,37.549z"/>
	<path fill="#636466" d="M106.983,37.272c0.119-0.236,0.218-0.493,0.257-0.749c0.375,0.236,0.75,0.493,1.104,0.749H106.983
		L106.983,37.272z"/>
	<path fill="#636466" d="M100.045,33.842c-0.631,0.375-1.224,0.828-1.755,1.36H86.402c2.662-1.124,5.796-1.774,9.128-1.774
		C97.088,33.429,98.604,33.566,100.045,33.842L100.045,33.842z"/>
	<path fill="#636466" d="M96.24,37.272c0.295-0.216,0.61-0.433,0.926-0.63c0.257-0.414,0.553-0.809,0.888-1.163H85.792
		c-1.124,0.512-2.149,1.124-3.076,1.793H96.24L96.24,37.272z"/>
	<path fill="#636466" d="M88.827,39.343c0.257-0.236,0.552-0.473,0.868-0.67c1.616,0.099,2.72,0.02,4.022-0.237
		c0.769-0.158,1.459-0.513,2.089-0.887H82.361c-0.709,0.552-1.36,1.144-1.913,1.794H88.827L88.827,39.343z"/>
	<path fill="#636466" d="M88.531,39.619c-0.552,0.532-1.005,1.124-1.38,1.794h-8.103c0.315-0.631,0.71-1.222,1.183-1.794H88.531
		L88.531,39.619z"/>
	<path fill="#636466" d="M87.014,41.689c-0.276,0.552-0.493,1.144-0.651,1.794H78.26c0.158-0.611,0.355-1.222,0.65-1.794H87.014
		L87.014,41.689z"/>
	<path fill="#636466" d="M86.304,43.759c-0.118,0.552-0.178,1.164-0.178,1.794h-8.083c0-0.039,0-0.098,0-0.138
		c0-0.572,0.039-1.124,0.157-1.656H86.304L86.304,43.759z"/>
	<path fill="#636466" d="M86.126,45.829c0,0.059,0,0.138,0,0.217c0.77,0.275,1.262,0.808,1.656,1.577h-9.443
		c-0.158-0.592-0.256-1.183-0.295-1.794H86.126L86.126,45.829z"/>
	<polygon fill="#FFFFFF" points="69.96,44.843 72.05,44.843 72.701,42.853 73.332,44.843 75.441,44.843 73.745,46.085 
		74.396,48.077 72.701,46.835 71.005,48.077 71.656,46.085 	"/>
	<path d="M113.806,52.236c-0.178-0.138-0.138-0.197-0.02-0.375c0.156-0.256,0.749-1.084,1.537-0.493
		c0.828,0.611,0.314,1.38,0.178,1.577c-0.1,0.138-0.178,0.236-0.256,0.335L113.806,52.236L113.806,52.236z"/>
	<path d="M113.272,58.072c-0.61,0.434-1.518,0.335-2.385-0.927c-0.867-1.321-0.572-2.228-0.021-2.642
		c0.571-0.414,1.498-0.394,2.386,0.927C114.103,56.692,113.885,57.619,113.272,58.072L113.272,58.072z"/>
	<path d="M106.235,57.52c-0.079-0.177-0.039-0.256,0.296-0.395c0.256-0.118,1.063-0.453,1.419,0.395
		c0.375,0.927-0.553,1.36-1.064,1.597L106.235,57.52L106.235,57.52z"/>
	<path d="M101.386,58.959c-0.02-0.118-0.06-0.256,0.256-0.335c0.828-0.177,1.242-0.079,1.616,0.158
		c0.532,0.316,0.81,0.848,0.927,1.419c0.414,1.991-1.201,2.346-1.636,2.445c-0.315,0.079-0.396,0.039-0.454-0.197L101.386,58.959
		L101.386,58.959z"/>
	<polygon points="77.866,56.061 79.581,54.977 79.127,57.007 	"/>
	<path d="M100.715,32.127c-0.729-0.118-1.301-0.868-1.045-2.386c0.276-1.577,1.104-2.011,1.774-1.873
		c0.671,0.118,1.32,0.808,1.063,2.385C102.233,31.772,101.464,32.266,100.715,32.127L100.715,32.127z"/>
	<path d="M88.236,28.52c-0.02-0.138-0.04-0.276,0.256-0.335c0.848-0.178,1.242-0.059,1.616,0.177
		c0.533,0.335,0.809,0.867,0.907,1.439c0.374,2.01-1.242,2.326-1.676,2.425c-0.315,0.059-0.394,0.02-0.454-0.217L88.236,28.52
		L88.236,28.52z"/>
	<path d="M84.825,33.842c-0.69,0.296-1.558-0.02-2.109-1.458c-0.572-1.479-0.079-2.287,0.552-2.563
		c0.631-0.276,1.538-0.04,2.109,1.459C85.929,32.699,85.515,33.547,84.825,33.842L84.825,33.842z"/>
	<path d="M80.527,36.268c-0.611,0.454-1.519,0.375-2.385-0.868c-0.907-1.301-0.631-2.228-0.06-2.642
		c0.552-0.414,1.479-0.414,2.366,0.887C81.336,34.888,81.119,35.813,80.527,36.268L80.527,36.268z"/>
	<path d="M101.108,45.573c-0.452-0.276-0.039-1.005,0.354-0.828c0.396,0.178,0.75,0.473,1.085,0.67
		c0.374,0.256-0.02,0.887-0.474,0.71C101.819,46.007,101.464,45.79,101.108,45.573L101.108,45.573z"/>
	<path d="M88.689,43.877c3.095,1.439,4.179,4.692,7.176,6.525c0.669,0.414,0.946-0.631,0.315-1.084
		c-2.464-1.755-3.942-4.85-6.959-6.072C88.314,42.892,87.862,43.503,88.689,43.877L88.689,43.877z"/>
	<path fill="#939598" d="M108.681,151.146c0-1.479,1.144-5.146,3.391-5.146c1.085,0,1.498,0.789,1.498,1.834
		c0,1.379-1.104,5.187-3.41,5.187C108.681,153.021,108.681,151.401,108.681,151.146L108.681,151.146z"/>
	<polygon fill="#939598" points="71.399,150.219 73.095,147.262 73.114,147.262 73.095,147.262 73.587,150.219 	"/>
	<polygon fill="#C7C8CA" points="93.854,167.883 93.854,168.869 166.938,168.869 166.938,103.969 165.951,103.969 165.951,167.883 	
		"/>
	<polygon fill="#C7C8CA" points="93.854,157.69 93.854,158.676 162.737,158.676 162.737,103.969 161.752,103.969 161.752,157.69 	
		"/>
	<polygon fill="#C7C8CA" points="93.854,158.676 93.854,157.69 25.937,157.69 25.937,103.969 24.952,103.969 24.952,158.676 	"/>
	<polygon fill="#C7C8CA" points="93.854,168.869 93.854,167.883 20.87,167.883 20.87,103.969 19.885,103.969 19.885,168.869 	"/>
	<polygon points="162.737,103.969 165.951,103.969 165.951,167.883 20.87,167.883 20.87,103.969 24.952,103.969 24.952,158.676 
		162.737,158.676 	"/>
	<path d="M162.737,64.735v-15.14h-39.312c0.354-1.341,0.532-2.76,0.532-4.18c0-1.735-0.257-3.43-0.77-5.027h42.762v24.347H162.737
		L162.737,64.735z"/>
	<path d="M20.87,40.388v24.347h4.082v-15.14h42.682c-0.355-1.36-0.552-2.76-0.552-4.18c0-1.735,0.276-3.43,0.789-5.027H20.87
		L20.87,40.388z"/>
	<path fill="#FFFFFF" d="M27.672,67.042l7.294,18.296l8.103-18.296h11.435v0.276c-1.084,0.276-1.735,0.966-1.735,2.149v26.871
		c0,1.063,0.848,1.974,1.735,2.445v0.53H43.188v-0.53c0.67-0.435,2.07-1.302,2.07-2.445v-20.7L35.774,99h-3.706l-9.266-23.046
		v20.384c0,1.146,1.32,2.013,1.991,2.445v0.53h-9.542v-0.53c0.887-0.474,1.715-1.382,1.715-2.445V69.467
		c0-1.183-0.631-1.873-1.715-2.149v-0.276H27.672L27.672,67.042z"/>
	<path fill="#FFFFFF" d="M112.347,75.855c0.236-0.789-0.688-1.124-1.359-1.183V74.14h8.318v0.532
		c-0.945,0.119-1.498,0.532-1.301,1.183l0.395,1.242l3.471,12.164l4.062-13.031c0.334-1.005-0.021-1.499-1.185-1.774V74.16h7.983
		v0.296c-0.848,0.197-1.576,0.966-1.812,1.735l-7.137,22.949h-5.678l-3.963-12.638l-3.233,12.638l-6.525,0.021l-6.86-22.791
		l-6.544,9.128l7.767,12.518c0.217,0.336,0.729,0.494,1.42,0.611v0.553H88.709v-0.553c1.281-0.275,1.853-0.709,1.084-2.012
		l-3.036-5.223l-3.766,5.223c-0.887,1.223-0.177,1.736,1.085,2.012v0.553H76.84h-7.688l-0.04-2.248
		c-2.307,1.598-4.515,2.129-6.782,2.07c-4.002-0.078-8.221-2.012-7.846-6.841c0.552-6.781,3.943-7.215,11.021-8.615
		c2.504-0.494,3.49-2.248,3.096-3.333c-0.611-1.616-2.465-2.148-4.219-2.148c-2.031,0-4.87,0.335-7.886,2.898v-4.889
		c2.682-1.794,6.782-2.248,9.542-2.248c8.3,0,9.522,2.721,9.522,8.32v13.031c0,1.301,0.098,1.972,0.808,2.168l7.827-10.409
		L77.984,76.21c-0.454-0.77-1.025-1.519-1.932-1.735v-0.296h9.759v0.296c-1.084,0.276-1.203,0.769-0.572,1.774l3.154,5.086
		l3.825-5.086c0.709-0.927,0.532-1.558-0.592-1.774v-0.296h4.554h9.739v0.296c-1.184,0.276-1.479,0.769-1.203,1.774l3.825,13.011
		L112.347,75.855L112.347,75.855z"/>
	<path fill="#FFFFFF" d="M151.382,96.338v-5.52c-3.509,3.411-5.561,4.456-9.01,4.357c-3.745-0.118-5.973-4.298-5.561-7.472h15.182
		c0.061-0.749,0.117-1.636,0.117-2.287c0-7.669-3.981-11.355-10.35-11.296c-7.039,0.079-12.064,5.382-12.104,11.888
		c-0.021,9.029,4.594,13.169,13.091,13.169C145.704,99.178,149.153,97.916,151.382,96.338L151.382,96.338z"/>
	<path fill="#FFFFFF" d="M152.21,98.783v0.53h9.938v-0.53c-0.672-0.435-1.301-1.302-1.301-2.445V67.042h-8.637v0.276
		c1.084,0.276,1.716,0.966,1.716,2.149v26.871C153.926,97.401,153.099,98.312,152.21,98.783L152.21,98.783z"/>
	<path fill="#FFFFFF" d="M162.935,98.783v0.53h9.957v-0.53c-0.689-0.435-1.302-1.302-1.302-2.445V67.042h-8.655v0.276
		c1.086,0.276,1.735,0.966,1.735,2.149v26.871C164.67,97.401,163.821,98.312,162.935,98.783L162.935,98.783z"/>
	<path fill="#FFFFFF" d="M156.074,127.33v-5.5c-3.511,3.392-5.54,4.437-8.99,4.336c-3.745-0.117-5.993-4.297-5.56-7.472h15.181
		c0.06-0.75,0.099-1.637,0.099-2.286c0-7.671-3.963-11.355-10.351-11.298c-7.019,0.078-12.065,5.384-12.085,11.908
		c-0.039,9.029,4.572,13.17,13.091,13.17C150.396,130.188,153.866,128.926,156.074,127.33L156.074,127.33z"/>
	<path fill="#FFFFFF" d="M112.819,128.494c2.465,1.457,5.64,1.932,8.912,2.108c7.807,0.414,11.295-3.903,11.67-8.123
		c0.275-3.254-2.188-7.176-7.865-7.629c-2.583-0.197-5.836-1.342-6.35-2.545c-0.848-2.01,1.303-3.963,5.737-3.488
		c2.169,0.218,5.066,1.398,6.724,3.035v-5.321c-2.562-0.968-6.428-1.736-9.09-1.677c-7.273,0.158-10.25,3.312-10.25,8.023
		c0,3.154,2.977,6.111,6.071,6.645c7.038,1.224,8.24,2.779,8.004,4.336c-0.178,1.146-1.262,1.914-3.096,2.132
		c-5.322,0.688-8.201-1.4-10.468-3.728V128.494L112.819,128.494z"/>
	<path fill="#FFFFFF" d="M99.179,125.793c1.518,0,2.956-1.045,3.784-2.328v-16.065c0-1.185-0.631-1.873-1.735-2.148v-0.297h8.654
		v22.516c0,1.162,0.612,2.029,1.303,2.463v0.533h-8.222v-1.439c-1.519,1.4-4.081,2.031-6.19,1.972
		c-7.117-0.217-8.734-4.08-8.734-8.022c0-5.185-0.02-10.39-0.02-15.574c0-1.185-0.631-1.873-1.715-2.148v-0.297h8.635v16.916
		C94.939,123.801,95.826,125.793,99.179,125.793L99.179,125.793z"/>
	<path fill="#FFFFFF" d="M61.621,117.61c0,8.121,4.811,12.894,12.164,12.894c7.374,0,12.164-4.771,12.164-12.894
		c0-8.143-4.791-12.913-12.164-12.913C66.431,104.697,61.621,109.469,61.621,117.61L61.621,117.61z"/>
	<path fill="#FFFFFF" d="M39.008,118.224h12.677v-2.505v-7.256c0-1.084-0.848-1.989-1.735-2.465v-0.531h10.449v0.531
		c-0.69,0.435-1.301,1.301-1.301,2.465l0.02,7.138h0.04v12.024l-0.04-0.021l-0.02,7.156c0,1.164,0.611,2.031,1.301,2.465v0.533
		h-10.45v-0.533c0.888-0.473,1.735-1.381,1.735-2.465V123.25H38.949v11.512c0,1.164,0.631,2.031,1.301,2.466v0.532H29.821v-0.532
		c0.887-0.474,1.715-1.381,1.715-2.466v-19.043v-7.256c0-1.084-0.828-1.989-1.715-2.465v-0.531H40.25v0.531
		c-0.67,0.435-1.301,1.301-1.301,2.465L39.008,118.224L39.008,118.224z"/>
	<path fill="#939598" d="M68.461,91.213c-0.197,0.65-0.551,3.509-4.12,3.391c-2.09-0.079-2.957-1.183-2.839-2.958
		c0.178-3.095,4.929-2.799,6.959-4.356V91.213L68.461,91.213z"/>
	<path fill="#939598" d="M137.582,83.425c-0.217-1.144,0.217-5.284,4.573-5.284c2.879-0.02,3.549,2.622,3.549,5.284H137.582
		L137.582,83.425z"/>
	<path fill="#939598" d="M142.272,114.416c-0.195-1.144,0.219-5.283,4.595-5.283c2.858-0.02,3.549,2.644,3.549,5.283H142.272
		L142.272,114.416z"/>
	<path fill="#939598" d="M68.6,117.61c0-5.561,2.149-8.518,5.145-8.518c3.076,0,5.244,2.957,5.244,8.518
		c0,5.56-2.168,8.496-5.244,8.496C70.749,126.106,68.6,123.11,68.6,117.61L68.6,117.61z"/>
	<path d="M143.417,79.423l-0.256-0.118c-0.631-0.256-1.262-0.197-1.934-0.098l-0.512,0.138c-0.513,0.197-0.867,0.434-1.242,0.828
		l-0.236,0.315c-0.395,0.591-0.631,1.242-0.689,1.952h5.362c0.217-0.158,0.452-0.315,0.729-0.454
		c-0.1-0.828-0.336-1.695-0.928-2.326C143.614,79.581,143.517,79.502,143.417,79.423L143.417,79.423z"/>
	<path d="M152.19,88.689H137.76c0.039,0.828,0.236,1.577,0.552,2.346l0.236,0.513c0.335,0.591,0.71,1.065,1.202,1.538
		c0.196,0.177,0.414,0.315,0.632,0.473c0.395,0.237,0.77,0.394,1.202,0.513c0.06,0.02,0.118,0.02,0.158,0.04
		c-0.316-1.005-0.415-2.031-0.298-2.997h8.162C150.495,90.345,151.343,89.498,152.19,88.689L152.19,88.689z"/>
	<path d="M172.575,70.453v25.943c0.021,0.611,0.275,1.164,0.789,1.52l0.513,0.334v2.051h-4.653
		c-0.236,0.828-0.926,1.519-1.654,1.912v0.533h9.936v-0.533c-0.67-0.435-1.281-1.301-1.281-2.465V70.453H172.575L172.575,70.453z"/>
	<path d="M161.831,70.453v25.943c0.039,0.572,0.275,1.105,0.729,1.458c0.553-0.313,1.104-0.866,1.125-1.537V70.453H161.831
		L161.831,70.453z"/>
	<path d="M119.562,77.55l2.347,8.261l1.38-4.396l-0.256-0.888l-0.395-1.242c-0.197-0.67,0.354-1.064,1.301-1.183V77.55H119.562
		L119.562,77.55z"/>
	<path d="M106.138,77.609l2.385,8.103l1.281-4.476l-0.453-1.557c-0.275-1.005,0.021-1.499,1.203-1.775v-0.295H106.138
		L106.138,77.609z"/>
	<polygon points="87.23,77.609 88.472,79.601 89.971,77.609 	"/>
	<path d="M76.091,77.885c0.395,1.36,0.434,2.839,0.454,4.239v13.347l3.647-4.85c0-2.898,0.434-7.019-0.631-9.72
		C78.635,79.325,78.004,78.497,76.091,77.885L76.091,77.885z"/>
	<path d="M63.04,83.031c-0.65,0.138-1.281,0.276-1.912,0.434v-3.963l3.844-0.434c1.242,0.119,3.667,1.006,2.307,2.524
		C65.998,81.75,64.558,82.144,63.04,83.031L63.04,83.031z"/>
	<path d="M53.755,70.453v19.734c0.512-2.346,1.498-4.239,3.647-5.402v-3.292c-0.631,0.493-1.262,1.045-1.893,1.577v-7.53
		c0.631-0.414,1.222-0.789,1.893-1.104c0-1.578-0.256-3.174,1.735-3.687v-0.295L53.755,70.453L53.755,70.453z"/>
	<polygon points="30.097,70.453 35.025,82.794 36.189,80.192 32.305,70.453 	"/>
	<path d="M27.435,90.128l-3.647-9.069v15.317c0.02,0.178,0.138,0.355,0.256,0.514c0.454,0.57,1.124,0.965,1.735,1.34v2.07H21.52
		c-0.216,0.828-0.926,1.518-1.655,1.912v0.533h9.562v-0.533c-0.69-0.434-1.992-1.301-1.992-2.465V90.128L27.435,90.128z"/>
	<polygon points="44.272,92.908 44.272,80.685 36.445,99.985 35.715,99.985 36.701,102.431 40.408,102.431 	"/>
	<path d="M57.402,98.881c-0.059-0.021-0.118-0.059-0.197-0.098c-0.355-0.197-0.69-0.396-1.025-0.632
		c-0.334-0.256-0.611-0.491-0.907-0.789l-0.532-0.63c-0.414-0.571-0.789-1.222-0.985-1.932l0.02,1.576
		c0.04,0.65,0.591,1.184,1.124,1.498l0.592,0.316v2.108h-5.698c-0.355,0.888-1.419,1.558-1.972,1.912v0.533h11.316v-0.533
		c-0.887-0.473-1.735-1.397-1.735-2.465L57.402,98.881L57.402,98.881z"/>
	<path d="M87.723,99.888v-2.052c0.454-0.099,0.986-0.155,1.4-0.354c-0.414-1.301-1.735-3.036-2.445-4.277
		c-0.986,1.301-2.326,2.878-3.056,4.257c0.434,0.199,0.986,0.276,1.439,0.396v2.307h-3.607l-0.473,0.611
		c-0.316-0.099-0.513-0.295-0.631-0.611h-2.523h-9.66l-0.02-1.498c-2.366,1.223-5.185,1.617-7.807,1.145
		c3.135,3.767,9.759,3.074,13.406,0.551l0.02,2.229h7.708h7.235v-0.532C87.289,101.74,86.797,101.188,87.723,99.888L87.723,99.888z"
		/>
	<path d="M97.245,78.852l1.637,5.481l-3.273,4.593l5.5,8.871c-0.474-0.078-1.104-0.116-1.537-0.336l-7.412-11.926l0.729-0.986
		l0.138,0.217l3.805-5.086C97.067,79.364,97.206,79.088,97.245,78.852L97.245,78.852z"/>
	<path d="M116.704,97.994l-2.465-7.885l-2.444,9.522l-0.474,0.492h-3.036l0.729,2.465l6.525-0.039
		C116.112,100.358,116.171,100.123,116.704,97.994L116.704,97.994z"/>
	<path d="M130.819,94.82l-0.453-0.729l-0.553-1.242l-0.453-1.341l-0.336-1.439c-0.196-1.123-0.314-2.248-0.334-3.391l-4.181,13.445
		h-2.543l0.749,2.426h5.697L130.819,94.82L130.819,94.82z"/>
	<path d="M155.147,100.301h-3.924v-2.108c0.592-0.316,1.184-0.611,1.539-1.224c-0.929,0.632-1.796,1.046-2.723,1.302
		c-3.706,1.873-8.143,2.444-12.184,1.342C142.333,103.711,150.199,103.276,155.147,100.301L155.147,100.301z"/>
	<path d="M158.479,100.301h3.47h3.589c0.156,0.888,0.67,1.558,1.24,1.912v0.533h-9.937v-0.533
		C157.571,101.817,158.263,101.129,158.479,100.301L158.479,100.301z"/>
	<path d="M64.361,89.912c-0.65,0.256-1.34,0.552-1.715,1.183c-1.044,2.306,1.538,2.917,3.234,2.306
		c1.833-0.808,1.597-2.858,1.597-4.495C66.471,89.3,65.386,89.537,64.361,89.912L64.361,89.912z"/>
	<path d="M156.901,119.681h-14.45c0.04,0.827,0.235,1.577,0.552,2.348l0.257,0.512c0.396,0.67,0.808,1.203,1.399,1.715
		c0.217,0.158,0.434,0.297,0.65,0.434c0.395,0.197,0.729,0.316,1.144,0.414c-0.315-1.004-0.435-2.028-0.295-2.977h8.161
		C155.207,121.336,156.035,120.487,156.901,119.681L156.901,119.681z"/>
	<path d="M148.108,110.414c-2.287-1.183-4.633,0.67-4.85,3.019h5.344c0.235-0.158,0.474-0.316,0.748-0.435
		C149.233,112.051,148.938,110.985,148.108,110.414L148.108,110.414z"/>
	<path d="M95.944,108.385v13.623c0.079,2.109,1.636,3.095,3.607,2.761v-16.384H95.944L95.944,108.385z"/>
	<path d="M85.101,109.824c0.73,1.221,1.124,2.641,1.479,4.021c1.262,7.904-1.045,15.002-9.325,17.271
		c-2.307,0.413-4.83,0.592-7.117-0.039c5.185,4.612,14.884,3.666,18.552-2.427c-1.242-1.733-1.617-3.567-1.636-5.678
		c0-3.883,0-7.768,0-11.649C86.461,110.75,85.811,110.235,85.101,109.824L85.101,109.824z"/>
	<path d="M69.585,118.084c0.119,2.465,0.789,7.037,4.14,7.037c-1.025-3.687-0.848-11.119,3.431-12.42
		c-0.789-1.734-1.873-2.722-3.845-2.582C69.94,110.649,69.546,115.461,69.585,118.084L69.585,118.084z"/>
	<path d="M39.935,108.877h4.948v0.554c-0.67,0.413-1.301,1.301-1.301,2.465l0.039,5.342h-3.627L39.935,108.877L39.935,108.877z"/>
	<path d="M50.699,126.681h-7.117v11.514c0,1.162,0.63,2.029,1.301,2.465v0.531H34.454v-0.531c0.73-0.395,1.42-1.086,1.636-1.914
		h5.146v-2.049c-0.73-0.475-1.242-0.889-1.301-1.854v-10.606h10.764V126.681L50.699,126.681z"/>
	<path d="M63.04,108.877h-2.957l0.02,5.735h0.04v13.998h-0.04l-0.02,6.23c0.059,0.965,0.572,1.379,1.301,1.854v2.05h-5.146
		c-0.217,0.828-0.927,1.521-1.656,1.914v0.53h10.449v-0.53c-0.69-0.437-1.301-1.304-1.301-2.466l0.02-7.155h0.039v-3.746
		c-3.824-4.988-4.061-11.711-1.419-17.291L63.04,108.877L63.04,108.877z"/>
	<path d="M130.858,112.465l-0.196-0.178c-1.479-1.242-3.392-2.07-5.283-2.404c-1.282-0.217-2.623-0.235-3.885,0.158
		c-0.552,0.194-1.144,0.474-1.419,1.022c-0.118,0.336-0.118,0.73,0.138,1.006c0.335,0.316,0.729,0.515,1.144,0.712
		c0.867,0.395,1.774,0.688,2.722,0.866c0.788-1.024,2.681-1.694,5.461-1.399C129.952,112.287,130.405,112.367,130.858,112.465
		L130.858,112.465z"/>
	<path d="M125.418,123.426c-0.021-0.176-0.099-0.354-0.237-0.53c-0.414-0.453-0.966-0.711-1.518-0.968
		c-1.538-0.649-3.194-1.024-4.85-1.319c1.123,1.203,2.642,2.069,4.199,2.346C123.899,123.11,124.708,123.271,125.418,123.426
		L125.418,123.426z"/>
	<path d="M114.517,130.347c-0.928-0.335-1.814-0.787-2.683-1.281v-9.207c0.888,0.908,1.735,1.813,2.683,2.643v-3.688
		c-3.215-2.463-4.22-6.918-2.091-10.429h-1.558v19.162c0.061,0.968,0.57,1.359,1.301,1.854v2.051h-10.191v-0.572
		c-2.347,1.182-5.146,1.32-7.688,0.848c2.739,3.293,10.133,3.666,13.308,0.729v1.438h8.221v-0.53
		C114.692,132.651,114.517,131.549,114.517,130.347L114.517,130.347z"/>
	<path d="M137.522,128.14c-1.539-1.224-2.562-3.076-3.233-4.89c-0.81,5.203-4.948,7.59-9.72,8.278
		c-2.404,0.14-4.73,0.021-7.116-0.413v0.788c2.465,1.46,5.618,1.951,8.909,2.13C132.771,134.367,136.281,131.528,137.522,128.14
		L137.522,128.14z"/>
	<path d="M154.753,129.281c-3.646,1.854-8.182,2.426-12.184,1.342c4.673,4.276,13.209,3.666,18.138,0.137v-5.52
		C158.36,127.526,156.666,128.75,154.753,129.281L154.753,129.281z"/>
	<path d="M156.429,109.646c1.577,3.056,1.439,6.703,1.184,10.033h-0.551v2.445h4.276
		C161.673,117.453,161.142,112.031,156.429,109.646L156.429,109.646z"/>
	<path d="M133.854,113.588l0.297-0.965l0.473-1.164l0.572-1.084l0.434-0.649c-0.906-0.314-1.932-0.593-2.996-0.828v4.141
		C133.047,113.194,133.461,113.373,133.854,113.588L133.854,113.588z"/>
	<path d="M101.147,97.875v2.287h-6.663c0.67,1.203,0.079,1.616-1.144,1.894v0.532h11.454v-0.532c-0.69-0.117-1.202-0.275-1.419-0.63
		L101.147,97.875L101.147,97.875z"/>
</g>
</svg>
