<?xml version="1.0" encoding="utf-8"?>
<!-- Generator: Adobe Illustrator 16.0.0, SVG Export Plug-In . SVG Version: 6.00 Build 0)  -->
<!DOCTYPE svg PUBLIC "-//W3C//DTD SVG 1.1//EN" "http://www.w3.org/Graphics/SVG/1.1/DTD/svg11.dtd">
<svg version="1.1" id="Layer_1" xmlns="http://www.w3.org/2000/svg" xmlns:xlink="http://www.w3.org/1999/xlink" x="0px" y="0px"
	 width="99.273px" height="26.609px" viewBox="350.363 280.668 99.273 26.609"
	 enable-background="new 350.363 280.668 99.273 26.609" xml:space="preserve">
<g>
	<polygon fill="#004281" points="350.363,280.668 449.637,280.668 449.631,307.277 350.363,307.277 	"/>
	<path fill="#FFE600" d="M439.786,298.205c-0.023,0.184-0.093,0.669-0.724,0.731h-5.544c-0.631-0.062-0.745-0.547-0.77-0.731v-8.556
		c0.023-0.184,0.11-0.577,0.742-0.64h5.572c0.632,0.063,0.697,0.456,0.722,0.64L439.786,298.205L439.786,298.205z M441.705,285.785
		h-10.874c-1.634,0.132-3.014,0.96-3.198,2.814v10.593c0.186,1.854,1.564,2.835,3.198,2.968h10.874
		c1.634-0.133,3.014-1.114,3.198-2.968V288.6C444.719,286.746,443.339,285.917,441.705,285.785L441.705,285.785z M397.697,289.009
		h-4.861v-3.224h14.84v3.224h-4.86v13.151h-5.117L397.697,289.009L397.697,289.009z M391.301,289.009v-3.224h-13.305v16.375
		l13.48-0.004l0.006-3.22h-8.356l0.001-3.507h8.174v-3.215h-8.174v-3.205H391.301L391.301,289.009z M420.98,291.547
		c0,0.354-0.089,0.666-0.726,0.666h-5.928v-3.214h5.936c0.724,0,0.718,0.473,0.718,0.768V291.547L420.98,291.547z M422.398,295.794
		c1.596-0.128,3.188-1.214,3.188-2.999v-3.685v-0.358c-0.186-1.845-1.569-2.841-3.211-2.973h-13.164v16.38h5.117v-6.366h2.037
		l3.326,6.366h5.884l-3.96-6.366L422.398,295.794L422.398,295.794z M367.403,302.16l3.429-10.286v10.286h5.117v-16.375h-6.908
		l-3.326,8.188l-3.326-8.188h-6.907v16.375h5.116v-10.286l3.454,10.286H367.403L367.403,302.16z"/>
</g>
</svg>
