<?xml version="1.0" encoding="utf-8"?>
<!-- Generator: Adobe Illustrator 16.0.0, SVG Export Plug-In . SVG Version: 6.00 Build 0)  -->
<!DOCTYPE svg PUBLIC "-//W3C//DTD SVG 1.1//EN" "http://www.w3.org/Graphics/SVG/1.1/DTD/svg11.dtd">
<svg version="1.1" id="Layer_1" xmlns="http://www.w3.org/2000/svg" xmlns:xlink="http://www.w3.org/1999/xlink" x="0px" y="0px"
	 width="175.748px" height="66.232px" viewBox="8.504 63.262 175.748 66.232" enable-background="new 8.504 63.262 175.748 66.232"
	 xml:space="preserve">
<g>
	<path fill="#EE3224" d="M41.652,63.262h109.516c18.168,0,33.084,14.917,33.084,33.147l0,0c0,18.23-14.916,33.085-33.084,33.085
		H41.652c-18.231,0-33.148-14.854-33.148-33.085l0,0C8.504,78.178,23.42,63.262,41.652,63.262L41.652,63.262z"/>
	<path fill="#FFFFFF" d="M25.843,103.229l4.271-24.031c0.382-1.977,0.956-3.442,1.849-4.271c0.829-0.829,2.04-1.275,3.634-1.275
		c1.466,0,2.677,0.446,3.633,1.211c0.893,0.765,1.594,1.976,1.977,3.57l5.354,21.037l4.972-21.101
		c0.383-1.53,1.021-2.741,1.977-3.506c0.892-0.765,2.104-1.211,3.506-1.211c1.721,0,2.996,0.446,3.825,1.338
		c0.893,0.893,1.53,2.422,1.849,4.462l3.952,24.287c0.064,0.318,0.127,0.701,0.127,1.021c0.064,0.318,0.064,0.638,0.064,0.894
		c0,1.273-0.382,2.295-1.147,3.06c-0.701,0.765-1.721,1.147-2.932,1.147c-1.147,0-2.04-0.383-2.677-1.147
		c-0.638-0.765-1.083-1.978-1.275-3.569l-2.55-21.037c-1.977,8.414-3.379,14.342-4.335,17.849c-0.957,3.506-1.657,5.673-2.231,6.438
		c-0.319,0.574-0.702,0.894-1.211,1.147c-0.574,0.19-1.275,0.319-2.104,0.319c-1.402,0-2.422-0.319-3.124-0.957
		c-0.701-0.573-1.275-1.657-1.594-3.061l-5.227-21.737l-2.741,20.526c-0.255,1.85-0.765,3.188-1.402,4.016
		c-0.701,0.767-1.657,1.213-2.805,1.213c-1.211,0-2.167-0.383-2.869-1.147c-0.702-0.764-1.083-1.785-1.083-3.06
		c0-0.319,0.063-0.702,0.063-1.084C25.651,104.123,25.715,103.677,25.843,103.229L25.843,103.229z M31.134,120.378
		c-1.976,0-3.442-0.318-4.398-0.956s-1.466-1.657-1.466-2.933c0-1.338,0.51-2.295,1.466-2.932c0.956-0.639,2.422-0.957,4.398-0.957
		h110.408c1.977,0,3.441,0.318,4.398,0.957c0.893,0.637,1.401,1.594,1.401,2.932c0,1.275-0.51,2.295-1.466,2.933
		s-2.423,0.956-4.335,0.956H31.134L31.134,120.378z M69.891,76.074c0-1.274,0.447-2.294,1.339-3.187
		c0.893-0.893,1.913-1.338,3.188-1.338c1.211,0,2.231,0.446,3.124,1.338c0.893,0.892,1.275,1.913,1.275,3.187
		c0,1.275-0.382,2.295-1.275,3.188c-0.829,0.892-1.913,1.338-3.124,1.338c-1.275,0-2.359-0.446-3.251-1.338
		C70.338,78.369,69.891,77.35,69.891,76.074L69.891,76.074z M78.242,103.995c0,1.977-0.319,3.379-0.956,4.335
		c-0.638,0.894-1.594,1.401-2.869,1.401c-1.338,0-2.295-0.51-2.996-1.401c-0.637-0.956-0.957-2.423-0.957-4.335V88.314
		c0-1.913,0.319-3.315,0.957-4.271c0.637-0.957,1.658-1.403,2.996-1.403c1.275,0,2.231,0.446,2.869,1.403
		c0.637,0.956,0.956,2.358,0.956,4.271V103.995L78.242,103.995z M84.107,77.222c0-1.912,0.319-3.314,0.956-4.271
		s1.657-1.402,2.932-1.402c1.339,0,2.295,0.446,2.933,1.402c0.637,0.956,0.956,2.358,0.956,4.271v26.773
		c0,1.977-0.319,3.379-0.956,4.335c-0.638,0.894-1.594,1.401-2.933,1.401c-1.275,0-2.295-0.51-2.932-1.401
		c-0.637-0.956-0.956-2.423-0.956-4.335V77.222L84.107,77.222z M105.271,91.629l6.693-6.885c0.701-0.765,1.34-1.275,2.04-1.658
		c0.638-0.318,1.274-0.51,1.912-0.51c0.956,0,1.722,0.319,2.358,0.893c0.638,0.638,0.955,1.338,0.955,2.167
		c0,0.574-0.189,1.274-0.51,1.912c-0.382,0.638-0.893,1.275-1.466,1.849l-5.291,4.845l7.331,8.604
		c0.51,0.639,0.893,1.213,1.146,1.85c0.256,0.574,0.383,1.211,0.383,1.912c0,0.894-0.383,1.658-1.083,2.23
		c-0.701,0.639-1.53,0.956-2.614,0.956c-0.766,0-1.466-0.19-2.104-0.573c-0.701-0.383-1.338-1.021-1.912-1.849l-7.842-10.392v7.013
		c0,1.978-0.317,3.379-0.955,4.397c-0.639,0.957-1.594,1.402-2.934,1.402c-1.339,0-2.295-0.445-2.932-1.402
		c-0.639-1.02-0.957-2.422-0.957-4.397V77.222c0-1.912,0.318-3.314,0.957-4.271c0.637-0.957,1.593-1.402,2.932-1.402
		c1.34,0,2.295,0.446,2.934,1.402c0.638,0.956,0.955,2.422,0.955,4.271v14.407H105.271z M129.367,93.222h10.263
		c-0.062-1.275-0.574-2.422-1.594-3.314c-0.956-0.829-2.104-1.275-3.441-1.275c-1.339,0-2.424,0.383-3.38,1.211
		C130.259,90.736,129.621,91.82,129.367,93.222L129.367,93.222z M129.431,98.322c0.19,1.528,0.766,2.612,1.85,3.442
		c1.02,0.827,2.357,1.273,4.078,1.273c1.468,0,3.125-0.446,4.908-1.273c1.785-0.894,2.869-1.275,3.315-1.275
		c0.894,0,1.657,0.255,2.231,0.828c0.572,0.574,0.892,1.274,0.892,2.168c0,1.722-1.146,3.188-3.506,4.525
		c-2.358,1.402-5.101,2.04-8.287,2.04c-3.824,0-7.075-1.274-9.625-3.952c-2.614-2.613-3.89-5.929-3.89-9.881
		c0-3.953,1.274-7.268,3.762-9.945c2.55-2.677,5.674-4.016,9.371-4.016c3.633,0,6.693,1.275,9.115,3.761s3.633,5.546,3.633,9.179
		c0,1.146-0.254,1.977-0.828,2.423c-0.51,0.51-1.529,0.701-3.061,0.701L129.431,98.322L129.431,98.322z M165.001,85.764
		c0.445-1.083,0.893-1.849,1.466-2.359c0.511-0.51,1.212-0.765,2.04-0.765c1.146,0,2.104,0.319,2.805,1.02
		c0.639,0.638,1.021,1.594,1.021,2.741c0,0.319-0.063,0.765-0.19,1.211c-0.063,0.446-0.256,0.956-0.445,1.466l-11.922,28.303
		c-0.51,1.147-1.02,1.978-1.529,2.423c-0.51,0.51-1.146,0.701-1.912,0.701c-1.146,0-2.104-0.318-2.805-1.021
		c-0.701-0.637-1.021-1.594-1.021-2.74c0-0.445,0-0.893,0.127-1.338c0.128-0.446,0.319-0.894,0.511-1.34l3.188-6.947l-7.841-18.423
		c-0.191-0.318-0.255-0.574-0.318-0.956c-0.063-0.319-0.128-0.765-0.128-1.211c0-1.083,0.383-2.04,1.146-2.741
		c0.701-0.765,1.595-1.147,2.679-1.147c0.894,0,1.657,0.255,2.295,0.829c0.573,0.51,1.147,1.53,1.657,2.932l4.398,11.793
		L165.001,85.764L165.001,85.764z"/>
</g>
</svg>
