<?xml version="1.0" encoding="utf-8"?>
<!-- Generator: Adobe Illustrator 16.0.0, SVG Export Plug-In . SVG Version: 6.00 Build 0)  -->
<!DOCTYPE svg PUBLIC "-//W3C//DTD SVG 1.1//EN" "http://www.w3.org/Graphics/SVG/1.1/DTD/svg11.dtd">
<svg version="1.1" id="Layer_1" xmlns="http://www.w3.org/2000/svg" xmlns:xlink="http://www.w3.org/1999/xlink" x="0px" y="0px"
	 width="139.615px" height="178.372px" viewBox="289.57 271.192 139.615 178.372"
	 enable-background="new 289.57 271.192 139.615 178.372" xml:space="preserve">
<g>
	<polygon fill="none" stroke="#000000" stroke-width="1.2769" stroke-miterlimit="2.6131" points="428.547,279.677 428.448,278.389 
		428.149,277.196 427.65,276.102 427.054,275.01 426.258,274.116 425.264,273.321 424.268,272.725 423.172,272.229 421.979,271.933 
		420.685,271.831 298.071,271.831 296.776,271.933 295.582,272.229 294.487,272.725 293.395,273.321 292.497,274.116 
		291.701,275.01 291.105,276.102 290.606,277.196 290.308,278.389 290.209,279.677 290.209,440.977 290.308,442.27 290.606,443.461 
		291.105,444.654 291.701,445.646 292.497,446.541 293.395,447.334 294.487,448.031 295.582,448.426 296.776,448.727 
		298.071,448.926 420.685,448.926 421.979,448.727 423.172,448.426 424.268,448.031 425.264,447.334 426.258,446.541 
		427.054,445.646 427.65,444.654 428.149,443.461 428.448,442.27 428.547,440.977 	"/>
	<polygon points="294.388,391.02 337.682,391.02 358.979,353.575 315.786,353.575 	"/>
	<polygon points="359.178,353.275 337.582,315.335 359.178,277.492 380.775,315.335 	"/>
	<polygon points="423.87,391.02 380.575,391.02 359.278,353.575 402.471,353.575 	"/>
	<polygon points="290.209,395.986 290.209,440.977 290.308,442.27 290.606,443.461 291.105,444.654 291.701,445.646 
		292.497,446.541 293.395,447.334 294.487,448.031 295.582,448.426 296.776,448.727 298.071,448.926 420.685,448.926 
		421.979,448.727 423.172,448.426 424.268,448.031 425.264,447.334 426.258,446.541 427.054,445.646 427.65,444.654 
		428.149,443.461 428.448,442.27 428.547,440.977 428.547,395.986 	"/>
	<polygon fill="#FFFFFF" points="383.761,424.688 383.761,403.436 379.781,403.436 379.781,424.688 	"/>
	<polygon fill="#FFFFFF" points="423.771,424.688 423.771,403.436 419.789,403.436 419.789,424.688 	"/>
	<polygon fill="#FFFFFF" points="319.07,424.688 319.07,403.436 315.089,403.436 315.089,424.688 	"/>
	<polygon fill="#FFFFFF" points="320.265,403.436 332.608,403.436 332.608,407.01 328.527,407.01 328.527,424.688 324.444,424.688 
		324.444,407.01 320.265,407.01 	"/>
	<polygon fill="#FFFFFF" points="401.177,403.436 401.177,424.688 405.159,424.688 405.159,415.154 412.324,415.154 
		412.324,424.688 416.305,424.688 416.305,403.436 412.324,403.436 412.324,411.48 405.159,411.48 405.159,403.436 	"/>
	<polygon fill="#FFFFFF" points="295.384,424.688 295.384,403.436 300.062,403.436 303.743,412.969 307.527,403.436 
		312.003,403.436 312.003,424.688 308.022,424.688 308.022,411.381 303.743,422.105 299.366,411.48 299.366,424.688 	"/>
	<polygon fill="#FFFFFF" points="361.469,418.432 361.07,420.615 360.074,422.504 358.581,423.994 356.69,424.986 354.5,425.285 
		352.312,424.986 350.42,423.994 348.928,422.504 347.932,420.615 347.534,418.432 347.534,403.436 351.516,403.436 
		351.516,418.631 351.714,419.525 352.112,420.32 352.709,421.016 353.605,421.412 354.5,421.609 355.496,421.412 356.293,421.016 
		356.889,420.32 357.388,419.525 357.487,418.631 357.487,403.436 361.469,403.436 	"/>
	<polygon fill="#FFFFFF" points="364.055,424.688 364.055,403.436 372.416,403.436 373.61,403.635 375.004,404.328 376.197,405.422 
		376.993,406.912 377.392,408.896 377.093,410.289 376.596,411.48 375.898,412.273 375.202,412.871 374.703,413.168 
		375.699,413.764 376.596,414.658 377.292,415.75 377.789,417.141 377.989,419.029 377.59,421.213 376.596,422.803 375.103,423.896 
		373.211,424.49 371.32,424.688 	"/>
	<polygon points="368.036,407.01 371.32,407.01 371.919,407.109 372.515,407.408 372.911,407.904 373.211,408.402 373.312,409.096 
		373.211,409.793 373.012,410.387 372.713,410.982 372.117,411.381 371.42,411.48 369.23,411.48 369.23,415.154 371.519,415.154 
		372.216,415.254 372.911,415.65 373.511,416.246 374.009,417.141 374.106,418.332 373.909,419.326 373.511,420.121 
		372.812,420.615 372.216,420.916 371.519,421.113 368.036,421.113 	"/>
	<polygon fill="#FFFFFF" points="327.629,441.873 327.629,428.564 330.518,428.564 332.805,434.521 335.193,428.564 
		337.979,428.564 337.979,441.873 335.492,441.873 335.492,433.529 332.805,440.283 330.117,433.629 330.117,441.873 	"/>
	<polygon fill="#FFFFFF" points="350.718,428.662 358.482,428.662 358.482,430.848 355.894,430.848 355.894,441.873 
		353.308,441.873 353.308,430.848 350.718,430.848 	"/>
	<polygon fill="#FFFFFF" points="345.047,442.367 346.739,441.971 348.232,440.977 349.426,439.488 350.123,437.6 350.42,435.318 
		350.123,433.133 349.426,431.145 348.232,429.656 346.739,428.662 345.047,428.365 343.353,428.662 341.862,429.656 
		340.769,431.145 339.97,433.133 339.671,435.318 339.97,437.6 340.769,439.488 341.862,440.977 343.353,441.971 	"/>
	<polygon points="345.047,439.887 345.941,439.588 346.739,438.99 347.335,438 347.733,436.807 347.932,435.318 347.733,433.926 
		347.335,432.635 346.739,431.742 345.941,431.047 345.047,430.848 344.151,431.047 343.353,431.742 342.756,432.635 
		342.359,433.926 342.259,435.318 342.359,436.807 342.756,438 343.353,438.99 344.151,439.588 	"/>
	<polygon fill="#FFFFFF" points="364.552,442.367 366.244,441.971 367.739,440.977 368.932,439.488 369.728,437.6 369.926,435.318 
		369.728,433.133 368.932,431.145 367.739,429.656 366.244,428.662 364.552,428.365 362.86,428.662 361.469,429.656 
		360.272,431.145 359.48,433.133 359.178,435.318 359.48,437.6 360.272,439.488 361.469,440.977 362.86,441.971 	"/>
	<polygon points="364.552,439.887 365.449,439.588 366.244,438.99 366.842,438 367.24,436.807 367.438,435.318 367.24,433.926 
		366.842,432.635 366.244,431.742 365.449,431.047 364.552,430.848 363.658,431.047 362.961,431.742 362.265,432.635 
		361.866,433.926 361.766,435.318 361.866,436.807 362.265,438 362.961,438.99 363.658,439.588 	"/>
	<polygon fill="#FFFFFF" points="372.018,441.971 372.018,428.662 377.093,428.662 378.189,428.861 379.182,429.357 
		379.979,430.152 380.477,431.145 380.675,432.238 380.575,433.031 380.377,433.826 379.979,434.721 379.282,435.516 
		378.387,436.111 381.671,441.971 378.885,441.971 375.6,436.311 375.501,436.012 375.501,435.615 375.501,435.318 375.699,435.02 
		376.099,434.721 376.695,434.521 377.193,434.324 377.689,433.926 378.089,433.33 378.189,432.537 378.089,431.84 377.891,431.344 
		377.49,431.047 377.093,430.947 376.695,430.848 374.505,430.848 374.505,441.971 	"/>
	<polygon fill="#FFFFFF" points="336.288,418.93 336.487,419.723 336.984,420.518 337.582,421.113 338.378,421.512 339.374,421.709 
		340.27,421.609 341.064,421.213 341.662,420.615 342.061,419.822 342.259,418.93 342.16,418.531 342.061,418.035 341.962,417.639 
		341.662,417.24 341.363,416.941 340.667,416.346 339.671,415.75 338.476,415.154 337.185,414.459 335.89,413.666 334.796,412.871 
		334.1,411.977 333.501,411.082 333.202,410.088 333.104,409.096 333.401,407.01 334.298,405.32 335.692,404.031 337.383,403.234 
		339.374,402.938 341.562,403.234 343.254,404.129 344.548,405.422 345.245,407.109 345.544,409.096 345.544,410.088 
		342.061,410.088 341.962,409.891 341.962,409.691 341.962,409.492 341.962,409.295 341.962,409.096 341.862,408.201 
		341.463,407.506 340.867,406.912 340.168,406.613 339.374,406.414 338.476,406.613 337.881,406.912 337.383,407.408 
		336.984,408.104 336.885,408.896 336.984,409.492 337.185,409.891 337.482,410.387 337.979,410.785 338.577,411.182 
		339.472,411.678 340.667,412.273 341.962,412.969 343.055,413.666 343.951,414.361 344.648,415.057 345.245,415.949 
		345.643,416.842 345.843,417.836 345.941,418.93 345.643,421.016 344.648,422.703 343.254,423.994 341.463,424.789 
		339.374,425.086 337.284,424.789 335.391,423.896 333.998,422.504 333.003,420.717 332.705,418.631 332.705,418.432 
		332.705,418.232 332.705,418.035 332.705,417.936 332.705,417.736 336.089,417.736 336.089,417.936 336.189,418.232 
		336.189,418.432 336.189,418.729 	"/>
	<polygon fill="#FFFFFF" points="384.955,438.297 385.055,438.793 385.354,439.291 385.751,439.688 386.25,439.887 386.846,439.984 
		387.444,439.984 387.941,439.688 388.339,439.391 388.539,438.893 388.638,438.297 388.638,438 388.539,437.699 388.44,437.502 
		388.339,437.205 388.14,437.006 387.643,436.707 387.044,436.311 386.25,435.912 385.452,435.516 384.656,435.02 384.059,434.521 
		383.562,433.926 383.264,433.33 383.064,432.734 382.966,432.139 383.164,430.848 383.761,429.854 384.558,429.061 
		385.651,428.564 386.846,428.465 388.238,428.564 389.335,429.16 390.131,429.953 390.531,430.947 390.728,432.139 
		390.728,432.734 388.539,432.734 388.539,432.635 388.539,432.537 388.539,432.436 388.539,432.238 388.539,432.139 
		388.44,431.643 388.14,431.145 387.842,430.848 387.344,430.551 386.846,430.449 386.35,430.551 385.951,430.746 385.553,431.145 
		385.354,431.543 385.354,432.039 385.354,432.336 385.553,432.635 385.751,432.934 386.052,433.133 386.35,433.43 386.945,433.729 
		387.643,434.125 388.44,434.623 389.137,435.02 389.731,435.418 390.131,435.912 390.531,436.41 390.728,437.006 390.926,437.6 
		391.026,438.297 390.828,439.588 390.229,440.68 389.335,441.475 388.14,441.971 386.846,442.17 385.553,441.971 384.36,441.377 
		383.461,440.482 382.866,439.391 382.667,438.098 382.667,438 382.667,437.9 382.667,437.699 382.667,437.6 384.856,437.6 
		384.856,437.699 384.856,437.801 384.856,438 384.856,438.197 	"/>
	<polygon fill="#FFFFFF" points="389.234,418.93 389.533,419.723 389.931,420.518 390.63,421.113 391.424,421.512 392.32,421.709 
		393.216,421.609 394.012,421.213 394.709,420.615 395.106,419.822 395.204,418.93 395.204,418.531 395.106,418.035 
		394.908,417.639 394.709,417.24 394.41,416.941 393.715,416.346 392.62,415.75 391.424,415.154 390.131,414.459 388.838,413.666 
		387.842,412.871 387.044,411.977 386.549,411.082 386.25,410.088 386.149,409.096 386.449,407.01 387.344,405.32 388.638,404.031 
		390.329,403.234 392.32,402.938 394.509,403.234 396.301,404.129 397.496,405.422 398.293,407.109 398.491,409.096 
		398.491,410.088 395.006,410.088 395.006,409.891 395.006,409.691 395.006,409.492 395.006,409.295 395.006,409.096 
		394.808,408.201 394.509,407.506 393.913,406.912 393.216,406.613 392.32,406.414 391.524,406.613 390.828,406.912 
		390.329,407.408 390.031,408.104 389.931,408.896 390.031,409.492 390.229,409.891 390.531,410.387 391.026,410.785 
		391.622,411.182 392.52,411.678 393.614,412.273 394.908,412.969 396.102,413.666 396.898,414.361 397.594,415.057 398.19,415.949 
		398.59,416.842 398.889,417.836 398.989,418.93 398.59,421.016 397.694,422.703 396.301,423.994 394.41,424.789 392.32,425.086 
		390.229,424.789 388.44,423.896 386.945,422.504 386.052,420.717 385.651,418.631 385.651,418.432 385.651,418.232 
		385.651,418.035 385.651,417.936 385.651,417.736 389.137,417.736 389.137,417.936 389.137,418.232 389.137,418.432 
		389.234,418.729 	"/>
</g>
</svg>
