<?xml version="1.0" encoding="utf-8"?>
<!-- Generator: Adobe Illustrator 16.0.0, SVG Export Plug-In . SVG Version: 6.00 Build 0)  -->
<!DOCTYPE svg PUBLIC "-//W3C//DTD SVG 1.1//EN" "http://www.w3.org/Graphics/SVG/1.1/DTD/svg11.dtd">
<svg version="1.1" id="Layer_1" xmlns="http://www.w3.org/2000/svg" xmlns:xlink="http://www.w3.org/1999/xlink" x="0px" y="0px"
	 width="187.089px" height="68.719px" viewBox="265.835 326.018 187.089 68.719"
	 enable-background="new 265.835 326.018 187.089 68.719" xml:space="preserve">
<g>
	<path fill="#744826" d="M286.776,378.508l-0.052-33.715c0-2.246,1.924-4.206,4.527-4.206c2.602,0,4.242,2.21,4.242,4.242v49.905
		h19.792v-13.401h-0.903c-1.559,0-2.823-1.267-2.823-2.824l-0.023-33.715c0-2.246,1.925-4.206,4.527-4.206
		c2.602,0,4.241,2.21,4.241,4.242v49.906h20.533v-13.402h-0.903c-1.559,0-2.822-1.266-2.822-2.824l-0.076-40.809
		c0-10.171-14.354-15.875-26.712-7.985c-7.415-5.609-15.115-3.993-23.581,0v-2.603h-20.907v12.517h1.568
		c1.559,0,2.823,1.264,2.823,2.823v36.056c0,1.56-1.264,2.824-2.823,2.824h-1.093v13.401h24.192v-13.401H289.6
		C288.041,381.332,286.776,380.066,286.776,378.508L286.776,378.508z"/>
	<path fill="#744826" d="M378.747,378.508l-0.053-33.715c0-2.246,1.925-4.206,4.526-4.206c2.603,0,4.242,2.21,4.242,4.242v49.905
		h19.82v-13.401h-0.903c-1.56,0-2.823-1.267-2.823-2.824l-0.053-33.715c0-2.246,1.926-4.206,4.527-4.206
		c2.603,0,4.242,2.21,4.242,4.242v49.906h20.532v-13.402h-0.902c-1.56,0-2.823-1.266-2.823-2.824l-0.076-40.809
		c0-10.171-14.354-15.875-26.712-7.985c-7.414-5.609-15.114-3.993-23.58,0v-2.603h-20.908v12.517h1.569
		c1.559,0,2.823,1.264,2.823,2.823v36.056c0,1.56-1.266,2.824-2.823,2.824h-1.094v13.401h24.191v-13.401h-0.901
		C380.011,381.332,378.747,380.066,378.747,378.508L378.747,378.508z"/>
	<path fill="#744826" d="M357.52,367.357l-1.407-2.094c1.07-1.849,1.692-3.183,1.692-3.183h2.424v-5.134h-5.418l-1.916,3.532
		l-3.133-4.661l0.628-0.725c3.279-3.85,4.136-6.417,2.425-9.554c-1.711-3.137-8.556-3.85-11.122,0.428
		c-2.114,3.523,0.8,8.01,1.895,9.484c-0.539,0.557-0.896,0.924-0.896,0.924c-3.138,2.995-6.274,9.126-2.853,13.975
		c3.422,4.848,9.981,3.707,12.977-0.144c0.068-0.09,0.137-0.179,0.206-0.269l1.647,2.549h5.704v-5.133h-2.854V367.357z
		 M346.398,350.817c-0.856-1.854-1.427-4.277,1.14-4.277c1.901,0,1.854,2.519,1.093,3.564c-0.233,0.289-0.832,0.938-1.562,1.713
		L346.398,350.817L346.398,350.817z M344.402,367.643c-2.281-1.567-0.855-4.562,0.428-6.131l1.569-1.811l3.756,5.809
		C348.601,367.977,346.639,369.18,344.402,367.643L344.402,367.643z"/>
	<polygon fill="#744826" points="432.237,339.98 429.527,348.108 433.663,348.108 436.372,339.98 	"/>
	<path fill="#744826" d="M446.354,352.101h3.707v-9.126h-3.563v1.141c-2.994-1.568-8.128-1.996-10.694,1.997
		c-2.565,3.992-0.569,8.84,1.568,10.124c2.139,1.284,7.415,3.708,8.556,5.705c1.142,2.139,1.283,4.42-0.569,5.418
		c-1.854,0.998-5.704,0.285-6.561-5.562h-4.277v10.408h4.421v-1.854c2.994,2.994,6.986,2.424,9.839,0.855
		c2.852-1.568,5.134-5.418,3.707-9.98s-3.992-5.562-7.699-7.7c-2.21-1.105-3.636-2.246-3.993-3.102
		c-0.677-1.604,0.072-2.673,0.928-3.101c1.604-0.82,3.352,0.071,3.956,1.39C446.282,350.033,446.354,350.746,446.354,352.101
		L446.354,352.101z"/>
</g>
</svg>
