<?xml version="1.0" encoding="utf-8"?>
<!-- Generator: Adobe Illustrator 16.0.0, SVG Export Plug-In . SVG Version: 6.00 Build 0)  -->
<!DOCTYPE svg PUBLIC "-//W3C//DTD SVG 1.1//EN" "http://www.w3.org/Graphics/SVG/1.1/DTD/svg11.dtd">
<svg version="1.1" id="Layer_1" xmlns="http://www.w3.org/2000/svg" xmlns:xlink="http://www.w3.org/1999/xlink" x="0px" y="0px"
	 width="175.75px" height="46.33px" viewBox="271.502 337.212 175.75 46.33" enable-background="new 271.502 337.212 175.75 46.33"
	 xml:space="preserve">
<g>
	<path fill="#939598" d="M286.928,344.712c16.167,0,60.826,0,76.994,0c0.314-0.917,0.626-1.834,0.94-2.75
		c1.069-3.136,3.948-4.75,9.022-4.75c24.222,0,44.229,0,68.451,0c3.856,0,6.386,2.678,3.97,9.434
		c-1.997,5.584-3.373,9.304-5.37,14.888c-2.729,7.632-6.343,8.368-11.66,8.368c-13.133,0-7.061-0.01-20.19-0.01
		c-0.297,1.307-0.923,2.428-1.308,3.729c-1.918,6.497-5.533,9.921-11.501,9.921c-25.23,0-92.805,0-118.038,0
		c-5.12,0-7.897-3.151-6.273-8.771c1.823-6.303,4.992-16.771,6.814-23.073C280.625,345.319,282.987,344.712,286.928,344.712
		L286.928,344.712z"/>
	<path fill="#FFFFFF" d="M289.63,344.377c15.895,0,59.801,0,75.696,0c0.309-0.875,0.615-1.752,0.924-2.627
		c1.054-2.996,3.884-4.537,8.873-4.537c23.812,0,43.483,0,67.296,0c3.792,0,6.278,2.559,3.903,9.012
		c-1.963,5.334-3.315,8.888-5.279,14.222c-2.684,7.291-6.236,7.505-11.465,7.505c-12.91,0-6.94-0.011-19.852-0.011
		c-0.291,1.248-0.905,2.81-1.284,4.054c-1.887,6.206-5.439,9.478-11.309,9.478c-24.805,0-91.241,0-116.046,0
		c-5.034,0-7.764-3.011-6.168-8.377c1.792-6.021,4.908-16.021,6.699-22.042C283.433,344.957,285.755,344.377,289.63,344.377
		L289.63,344.377z"/>
	<path d="M292.071,348.673c16.894,0,61.508,0,78.403,0c0.376-1.072,0.729-2.232,1.043-3.128c1.562-4.446,3.657-5.056,9.888-5.056
		c19.836,0,37.829,0,57.665,0c4.07,0,4.861,1.677,3.371,5.729c-1.761,4.782-3.046,8.152-4.806,12.935
		c-1.494,4.057-2.193,5.845-7.762,5.845c-14.057,0-14.141,0-28.198,0c-0.346,1.482-0.551,1.473-0.896,2.954
		c-1.802,5.925-2.854,9.073-7.787,9.073c-20.367,0-89.155,0-109.522,0c-3.167,0-5.25-1.262-3.885-5.852
		c1.241-4.17,4.207-13.755,5.448-17.924C286.444,348.502,288.348,348.673,292.071,348.673L292.071,348.673z"/>
	<path fill="#EE2D2E" d="M398.698,343.655h5.214l-1.936,5.98l8.788-5.98h6.981l-11.774,8.013l7.995,8.391h-7.233l-6.067-6.368
		l-2.06,6.368h-5.215L398.698,343.655L398.698,343.655z M381.85,343.655c3.397,0,6.944,0,10.343,0c3.581,0,3.267,2.424,2.058,6.161
		c-1.451,4.249-4.32,4.136-11.831,4.452c-1.686,0.023-3.462,0.089-4.091,2.036c4.701,0,9.403,0,14.104,0
		c-0.404,1.251-0.81,2.503-1.215,3.755c-6.331,0-12.438,0-18.769,0c0.403-1.252,0.81-2.504,1.215-3.755
		c1.728-5.341,4.029-5.429,9.241-5.621c1.934-0.071,3.567-0.137,5.502-0.208c1.703-0.063,1.683-1.257,2.087-2.577
		c0.136-0.444-0.155-0.807-0.646-0.807c-2.565,0-5.133,0-7.697,0c-0.491,0-1.008,0.363-1.142,0.807
		c-0.193,0.64-0.389,1.279-0.583,1.919c-1.555,0-3.108,0-4.663,0c0.229-0.708,0.652-2.017,0.883-2.726
		C377.351,344.902,379.279,343.655,381.85,343.655L381.85,343.655z M423.044,343.655c3.397,0,6.795,0,10.191,0
		c2.797,0,3.335,1.878,2.832,3.435c-0.229,0.709-0.459,1.417-0.688,2.126c-0.552,1.706-1.699,2.535-2.874,2.535
		c1.181,0,2.427,1.051,1.841,2.863c-0.283,0.877-0.385,1.188-0.668,2.064c-0.596,1.841-2.422,3.38-5.749,3.38
		c-3.396,0-6.794,0-10.19,0c-2.29,0-4.11-1.418-3.251-4.075c0.208-0.646,0.417-1.291,0.626-1.936h4.577
		c-0.03,0.058-0.056,0.118-0.073,0.179l-0.451,1.517c-0.146,0.486,0.164,0.884,0.688,0.884h8.195c0.523,0,1.069-0.397,1.215-0.884
		l0.451-1.517c0.146-0.486-0.165-0.884-0.688-0.884h-6.43l1.054-3.256h6.021c0.491,0,1.004-0.363,1.142-0.807l0.424-1.383
		c0.136-0.444-0.154-0.807-0.646-0.807h-7.697c-0.491,0-1.006,0.363-1.142,0.807l-0.404,1.319h-4.672
		c0.229-0.709,0.459-1.417,0.688-2.126C418.058,344.946,419.776,343.655,423.044,343.655L423.044,343.655z"/>
	<path fill="#FFFFFF" d="M333.127,365.753h-4.875l11.253-12.935h6.133l3.649,12.815l11.147-12.815h6.134l3.684,12.935h-4.738
		l-0.643-2.258h-8.85l-1.965,2.258h-4.735h-0.14h-4.599l-0.644-2.258h-8.849L333.127,365.753L333.127,365.753z M307.032,365.801
		h-6.751l-5.347-9.473l-2.993,9.473h-4.395l4.114-13.022h6.72l5.365,9.55l3.017-9.55h4.386L307.032,365.801L307.032,365.801z
		 M325.256,357.474l0.042-0.131c0.162-0.508,0.093-0.878-0.21-1.114c-0.3-0.236-0.859-0.355-1.677-0.355h-3.578
		c-1.533,0-2.568,0.164-3.11,0.496c-0.542,0.328-0.979,1.018-1.315,2.066l-0.581,1.812c-0.301,0.938-0.267,1.582,0.107,1.934
		c0.371,0.348,1.274,0.523,2.708,0.523h2.597c1.422,0,2.391-0.125,2.915-0.379c0.523-0.254,0.896-0.727,1.117-1.412l0.045-0.141
		h4.529c-0.005,0.019-0.013,0.051-0.021,0.096c-0.103,0.379-0.183,0.663-0.242,0.848c-0.268,0.838-0.605,1.522-1.018,2.066
		c-0.408,0.54-0.917,0.977-1.527,1.302c-0.581,0.315-1.287,0.54-2.128,0.675c-0.837,0.135-2.026,0.199-3.565,0.199h-4.993
		c-1.525,0-2.626-0.07-3.3-0.218c-0.671-0.146-1.209-0.394-1.605-0.743c-0.458-0.415-0.725-0.922-0.799-1.525
		c-0.074-0.605,0.035-1.367,0.33-2.287l1.14-3.552c0.598-1.866,1.512-3.167,2.744-3.905c1.231-0.737,3.154-1.107,5.768-1.107h4.993
		c1.603,0,2.766,0.063,3.483,0.191c0.72,0.128,1.25,0.346,1.593,0.647c0.36,0.317,0.566,0.741,0.618,1.275
		c0.047,0.531-0.057,1.2-0.315,2.006c-0.061,0.191-0.112,0.34-0.145,0.442c-0.036,0.101-0.077,0.2-0.121,0.292L325.256,357.474
		L325.256,357.474z M358.523,360.62h5.527l-1.362-4.788L358.523,360.62L358.523,360.62z M337.593,360.62h5.529l-1.364-4.788
		L337.593,360.62L337.593,360.62z"/>
	<path fill="#FFFFFF" d="M369.494,352.979h-0.055v0.274h0.075c0.056,0,0.098-0.011,0.125-0.035c0.027-0.024,0.042-0.059,0.042-0.104
		c0-0.047-0.016-0.081-0.046-0.103C369.607,352.989,369.56,352.979,369.494,352.979L369.494,352.979z M369.55,352.751
		c0.165,0,0.291,0.029,0.377,0.087c0.087,0.058,0.131,0.143,0.131,0.253c0,0.075-0.021,0.139-0.062,0.193
		c-0.041,0.054-0.099,0.094-0.173,0.12l0.254,0.506h-0.397l-0.205-0.444h-0.034v0.444h-0.365v-1.159H369.55L369.55,352.751z
		 M370.39,353.355c0-0.114-0.021-0.223-0.063-0.326c-0.042-0.104-0.104-0.195-0.184-0.275c-0.083-0.083-0.176-0.145-0.277-0.188
		c-0.102-0.042-0.21-0.063-0.326-0.063c-0.117,0-0.227,0.021-0.328,0.062c-0.102,0.042-0.191,0.103-0.27,0.183
		c-0.082,0.083-0.146,0.176-0.188,0.281c-0.044,0.104-0.064,0.213-0.064,0.326c0,0.113,0.021,0.221,0.063,0.324
		c0.044,0.104,0.105,0.195,0.188,0.276c0.08,0.082,0.173,0.144,0.275,0.187c0.104,0.043,0.21,0.065,0.324,0.065
		c0.113,0,0.222-0.022,0.325-0.066c0.104-0.043,0.198-0.106,0.282-0.189c0.079-0.079,0.141-0.168,0.183-0.27
		C370.369,353.581,370.39,353.473,370.39,353.355L370.39,353.355z M369.535,352.284c0.146,0,0.286,0.027,0.417,0.08
		c0.13,0.053,0.246,0.131,0.349,0.233c0.1,0.1,0.174,0.215,0.229,0.345c0.053,0.132,0.08,0.27,0.08,0.414
		c0,0.146-0.026,0.283-0.079,0.411c-0.054,0.128-0.129,0.241-0.229,0.338c-0.105,0.103-0.225,0.182-0.355,0.237
		c-0.131,0.055-0.27,0.084-0.409,0.084c-0.143,0-0.276-0.028-0.404-0.082c-0.128-0.054-0.244-0.133-0.348-0.236
		c-0.104-0.102-0.182-0.218-0.235-0.347c-0.054-0.129-0.081-0.265-0.081-0.406c0-0.144,0.027-0.281,0.082-0.412
		c0.056-0.131,0.134-0.249,0.237-0.354c0.098-0.1,0.211-0.175,0.339-0.228C369.253,352.311,369.39,352.284,369.535,352.284
		L369.535,352.284z"/>
	<path fill="#FFFFFF" d="M290.833,370.598l0.013-0.048c0.051-0.184,0.03-0.317-0.066-0.403c-0.094-0.086-0.27-0.129-0.527-0.129
		h-1.125c-0.482,0-0.808,0.061-0.979,0.18c-0.17,0.119-0.309,0.369-0.414,0.75l-0.183,0.656c-0.094,0.34-0.083,0.574,0.034,0.701
		s0.401,0.19,0.852,0.19h0.817c0.447,0,0.752-0.046,0.917-0.138s0.282-0.265,0.351-0.514l0.015-0.051h1.425
		c-0.001,0.007-0.004,0.02-0.006,0.035c-0.032,0.137-0.058,0.24-0.077,0.308c-0.084,0.304-0.19,0.552-0.32,0.749
		c-0.128,0.196-0.288,0.354-0.48,0.473c-0.183,0.115-0.405,0.195-0.669,0.244c-0.263,0.049-0.637,0.072-1.122,0.072h-1.571
		c-0.48,0-0.826-0.025-1.039-0.079c-0.211-0.053-0.38-0.143-0.505-0.27c-0.144-0.15-0.228-0.335-0.251-0.554
		c-0.023-0.22,0.011-0.496,0.104-0.83l0.359-1.287c0.188-0.678,0.476-1.149,0.863-1.418c0.387-0.268,0.993-0.4,1.814-0.4h1.571
		c0.504,0,0.87,0.021,1.096,0.068c0.227,0.048,0.394,0.127,0.501,0.234c0.114,0.115,0.178,0.27,0.194,0.463
		c0.015,0.192-0.017,0.437-0.099,0.729c-0.019,0.068-0.036,0.123-0.045,0.16c-0.011,0.037-0.025,0.072-0.038,0.105h-1.41V370.598z
		 M294.665,373.675c-0.537,0-0.923-0.024-1.16-0.073c-0.235-0.051-0.414-0.135-0.537-0.257c-0.139-0.135-0.218-0.312-0.236-0.53
		c-0.017-0.22,0.025-0.51,0.125-0.871l0.358-1.287c0.11-0.396,0.236-0.711,0.378-0.939c0.142-0.23,0.322-0.412,0.536-0.549
		c0.188-0.119,0.417-0.203,0.688-0.255c0.27-0.052,0.665-0.075,1.187-0.075h1.654c0.523,0,0.906,0.023,1.152,0.075
		c0.244,0.052,0.427,0.136,0.546,0.255c0.134,0.133,0.208,0.314,0.224,0.546c0.015,0.229-0.027,0.524-0.127,0.886l-0.366,1.315
		c-0.101,0.364-0.223,0.66-0.366,0.888c-0.143,0.227-0.318,0.408-0.527,0.543c-0.188,0.122-0.416,0.206-0.683,0.256
		c-0.267,0.051-0.667,0.074-1.198,0.074L294.665,373.675L294.665,373.675z M295.375,372.495h0.892c0.498,0,0.844-0.063,1.043-0.19
		c0.198-0.129,0.345-0.367,0.442-0.714l0.186-0.67c0.097-0.346,0.082-0.584-0.045-0.712c-0.128-0.128-0.439-0.191-0.936-0.191
		h-0.899c-0.507,0-0.858,0.064-1.051,0.193c-0.193,0.129-0.34,0.374-0.441,0.734l-0.182,0.658c-0.095,0.34-0.077,0.573,0.054,0.7
		C294.567,372.432,294.879,372.495,295.375,372.495L295.375,372.495z M301.021,372.477h3.062l-0.318,1.143h-4.469l1.313-4.725h1.406
		L301.021,372.477L301.021,372.477z M306.137,372.477h3.062l-0.318,1.143h-4.469l1.313-4.725h1.406L306.137,372.477L306.137,372.477
		z M315.451,370.045h-3.625l-0.199,0.715h3.415l-0.276,0.993h-3.415l-0.2,0.724h3.681l-0.318,1.143h-5.084l1.314-4.725h5.028
		L315.451,370.045L315.451,370.045z M320.518,370.6l0.004-0.015c0.061-0.217,0.037-0.366-0.067-0.446
		c-0.105-0.082-0.382-0.121-0.832-0.121h-0.819c-0.48,0-0.805,0.061-0.972,0.178c-0.168,0.119-0.306,0.369-0.412,0.753l-0.183,0.655
		c-0.096,0.342-0.083,0.574,0.035,0.701c0.116,0.127,0.399,0.19,0.849,0.19h0.812c0.404,0,0.692-0.038,0.866-0.112
		s0.286-0.205,0.337-0.389c0.007-0.025,0.016-0.067,0.022-0.127c0.002-0.006,0.003-0.012,0.004-0.016h-1.653l0.267-0.955h3.115
		l-0.431,1.551c-0.124,0.443-0.372,0.76-0.745,0.947c-0.372,0.188-0.956,0.279-1.751,0.279h-1.564c-0.48,0-0.827-0.025-1.04-0.079
		c-0.215-0.053-0.385-0.143-0.508-0.27c-0.144-0.15-0.228-0.334-0.251-0.554c-0.023-0.219,0.012-0.496,0.104-0.83l0.357-1.287
		c0.188-0.678,0.477-1.149,0.862-1.418c0.386-0.268,0.99-0.4,1.812-0.4h1.57c0.507,0,0.875,0.021,1.103,0.068
		c0.229,0.048,0.396,0.127,0.504,0.234c0.111,0.115,0.175,0.27,0.191,0.463c0.015,0.193-0.019,0.438-0.1,0.729
		c-0.02,0.069-0.035,0.124-0.047,0.161c-0.012,0.038-0.021,0.072-0.034,0.105h-1.407V370.6z M327.997,370.045h-3.625l-0.199,0.715
		h3.415l-0.275,0.993h-3.415l-0.202,0.724h3.681l-0.318,1.143h-5.083l1.313-4.725h5.028L327.997,370.045L327.997,370.045z
		 M334.869,372.546c0.124,0,0.229-0.038,0.316-0.112c0.088-0.074,0.151-0.183,0.189-0.322c0.035-0.127,0.029-0.229-0.02-0.303
		c-0.051-0.074-0.134-0.113-0.25-0.113h-2.597l-0.235,0.852L334.869,372.546L334.869,372.546z M335.246,370.734
		c0.118,0,0.216-0.034,0.297-0.101c0.081-0.067,0.139-0.163,0.174-0.291c0.032-0.114,0.024-0.21-0.021-0.28
		c-0.047-0.072-0.124-0.108-0.232-0.108h-2.47l-0.217,0.78H335.246L335.246,370.734z M334.933,373.618h-4.361l1.312-4.724h4.146
		c0.515,0,0.868,0.108,1.062,0.326c0.193,0.217,0.228,0.549,0.104,0.992c-0.07,0.252-0.183,0.458-0.338,0.62
		s-0.362,0.289-0.621,0.38c0.277,0.049,0.458,0.162,0.542,0.344c0.083,0.182,0.077,0.441-0.018,0.781
		c-0.125,0.447-0.331,0.771-0.621,0.975C335.853,373.516,335.45,373.618,334.933,373.618L334.933,373.618z M340.2,371.695h1.768
		l-0.429-1.672L340.2,371.695L340.2,371.695z M338.686,373.618h-1.532l3.825-4.724h1.793l1.152,4.724h-1.542l-0.227-0.787h-2.804
		L338.686,373.618L338.686,373.618z M344.662,372.048l1.388-0.003l-0.022,0.085c-0.051,0.179-0.041,0.298,0.025,0.36
		c0.067,0.062,0.236,0.094,0.506,0.094h1.766c0.174,0,0.306-0.029,0.396-0.092c0.092-0.061,0.156-0.159,0.194-0.299
		c0.04-0.143,0.024-0.243-0.044-0.305s-0.24-0.104-0.518-0.125l-2.192-0.051c-0.548-0.016-0.893-0.124-1.03-0.322
		c-0.14-0.199-0.137-0.562,0.009-1.086c0.075-0.271,0.163-0.494,0.264-0.67c0.101-0.175,0.224-0.32,0.37-0.438
		c0.17-0.131,0.37-0.225,0.603-0.279c0.231-0.057,0.592-0.082,1.079-0.082h2.146c0.532,0,0.888,0.1,1.065,0.298
		c0.179,0.199,0.207,0.521,0.083,0.968c-0.008,0.029-0.018,0.062-0.028,0.097c-0.011,0.032-0.028,0.089-0.057,0.163h-1.354
		l0.006-0.02c0.044-0.154,0.036-0.271-0.019-0.352c-0.055-0.078-0.16-0.117-0.314-0.117h-1.62c-0.271,0-0.456,0.027-0.559,0.082
		c-0.102,0.057-0.171,0.152-0.209,0.289c-0.038,0.136-0.025,0.232,0.036,0.294c0.062,0.062,0.195,0.099,0.401,0.116l2.302,0.037
		c0.523,0.016,0.861,0.137,1.013,0.365c0.152,0.228,0.151,0.618-0.003,1.17c-0.091,0.328-0.202,0.582-0.331,0.762
		c-0.129,0.181-0.305,0.334-0.526,0.461c-0.146,0.08-0.331,0.137-0.553,0.173c-0.222,0.035-0.533,0.052-0.936,0.052h-1.874
		c-0.768,0-1.257-0.088-1.469-0.266c-0.21-0.176-0.249-0.506-0.114-0.987c0.007-0.028,0.021-0.073,0.044-0.138
		C344.604,372.221,344.63,372.141,344.662,372.048L344.662,372.048z M352.83,370.648h0.591l2.33-1.754h1.866l-3.136,2.33
		l2.149,2.394h-1.954l-1.586-1.786H352.5l-0.496,1.786H350.6l1.313-4.724h1.403L352.83,370.648L352.83,370.648z M363.085,370.045
		h-3.625l-0.199,0.715h3.415l-0.275,0.993h-3.415l-0.201,0.724h3.681l-0.316,1.143h-5.084l1.312-4.725h5.028L363.085,370.045
		L363.085,370.045z M366.158,373.618h-1.403l0.991-3.566h-1.925l0.32-1.157h5.256l-0.322,1.157h-1.926L366.158,373.618
		L366.158,373.618z M372.996,372.546c0.123,0,0.229-0.038,0.316-0.112c0.088-0.074,0.15-0.183,0.189-0.322
		c0.035-0.127,0.029-0.229-0.021-0.303c-0.051-0.074-0.134-0.113-0.25-0.113h-2.597l-0.236,0.852L372.996,372.546L372.996,372.546z
		 M373.373,370.734c0.118,0,0.217-0.034,0.297-0.101c0.081-0.067,0.138-0.163,0.174-0.291c0.032-0.114,0.024-0.21-0.021-0.28
		c-0.047-0.072-0.124-0.108-0.231-0.108h-2.47l-0.217,0.78H373.373L373.373,370.734z M373.06,373.618h-4.36l1.312-4.724h4.146
		c0.515,0,0.868,0.108,1.062,0.326c0.193,0.217,0.229,0.549,0.104,0.992c-0.07,0.252-0.184,0.458-0.338,0.62
		c-0.155,0.162-0.362,0.289-0.621,0.38c0.277,0.049,0.458,0.162,0.542,0.344c0.083,0.182,0.077,0.441-0.019,0.781
		c-0.124,0.447-0.33,0.771-0.619,0.975C373.979,373.516,373.577,373.618,373.06,373.618L373.06,373.618z M377.947,371.695h1.769
		l-0.43-1.672L377.947,371.695L377.947,371.695z M376.433,373.618H374.9l3.826-4.724h1.792l1.153,4.724h-1.542l-0.228-0.787H377.1
		L376.433,373.618L376.433,373.618z M383.958,372.477h3.062l-0.316,1.143h-4.469l1.312-4.725h1.406L383.958,372.477L383.958,372.477
		z M389.073,372.477h3.062l-0.317,1.143h-4.47l1.313-4.725h1.406L389.073,372.477L389.073,372.477z"/>
</g>
</svg>
