<?xml version="1.0" encoding="utf-8"?>
<!-- Generator: Adobe Illustrator 16.0.0, SVG Export Plug-In . SVG Version: 6.00 Build 0)  -->
<!DOCTYPE svg PUBLIC "-//W3C//DTD SVG 1.1//EN" "http://www.w3.org/Graphics/SVG/1.1/DTD/svg11.dtd">
<svg version="1.1" id="Layer_1" xmlns="http://www.w3.org/2000/svg" xmlns:xlink="http://www.w3.org/1999/xlink" x="0px" y="0px"
	 width="255.118px" height="255.118px" viewBox="0 0 255.118 255.118" enable-background="new 0 0 255.118 255.118"
	 xml:space="preserve">
<path fill="#794400" d="M251.387,0C251.387,0,3.957,0,0,0c0,3.927,0,251.192,0,255.118c3.927,0,251.192,0,255.118,0
	c0-3.926,0-251.191,0-255.118C253.421,0,251.387,0,251.387,0z"/>
<rect x="3.733" y="3.733" fill="#E0C398" width="247.654" height="247.654"/>
<g>
	<path fill="#FFFFFF" d="M238.147,236.265c-3.785,0-5.858-2.054-5.858-5.154v-3.69h1.389v3.558c0,2.663,1.674,3.671,4.47,3.671
		c2.795,0,4.451-1.008,4.451-3.671v-3.558h1.388v3.69C243.986,234.211,241.913,236.265,238.147,236.265z"/>
	<path fill="#FFFFFF" d="M238.185,223.293c-4.584,0-6.048-2.548-6.048-5.648s1.464-5.611,6.048-5.611
		c4.565,0,5.954,2.53,5.954,5.631C244.139,220.764,242.75,223.293,238.185,223.293z M238.224,213.688
		c-3.729,0-4.698,1.483-4.698,3.976c0,2.491,0.97,3.975,4.698,3.975c3.651,0,4.565-1.56,4.565-3.994
		C242.789,215.248,241.875,213.688,238.224,213.688z"/>
	<path fill="#FFFFFF" d="M232.289,206.879v-8.503h1.389v6.905h3.67v-6.334h1.294v6.334h5.345v1.598H232.289z"/>
	<path fill="#FFFFFF" d="M232.289,193.107v-8.502h1.389v6.904h3.67v-6.333h1.294v6.333h5.345v1.598H232.289z"/>
	<path fill="#FFFFFF" d="M232.289,179.337v-8.502h1.389v6.904h3.651v-6.334h1.293v6.334h3.977v-7.037h1.388v8.635H232.289z"/>
	<path fill="#FFFFFF" d="M232.289,165.51v-8.502h1.389v6.904h3.651v-6.334h1.293v6.334h3.977v-7.037h1.388v8.635H232.289z"/>
</g>
<g>
	<path fill="#794400" d="M23.492,157.311l34.784,72.476H58.5v-72.476h4.698v79.857h-6.152L22.15,164.691h-0.224v72.477h-4.698
		v-79.857H23.492z"/>
	<path fill="#794400" d="M76.06,157.311h38.139v4.25H80.757v31.876h31.205v4.25H80.757v35.23h34.449v4.251H76.06V157.311z"/>
	<path fill="#794400" d="M123.705,157.311h23.376c11.073,0,19.796,6.374,19.796,20.915c0,10.513-5.591,18.678-15.993,19.797v0.224
		c13.086,0.782,15.436,8.835,15.436,19.797v8.389c0,4.585,0.671,7.493,2.684,10.736h-5.368c-1.23-2.349-2.015-6.151-2.015-10.849
		v-8.165c0-11.408-3.132-18.007-15.993-18.007h-17.224v37.021h-4.698V157.311z M143.39,196.345c8.836,0,18.791-2.908,18.791-18.119
		c0-10.737-6.04-17.112-15.771-17.112h-18.007v35.231H143.39z"/>
	<path fill="#794400" d="M183.319,216.028c0,11.186,5.033,18.68,17.448,18.68c11.52,0,17.447-7.494,17.447-18.68v-58.718h4.697
		v57.824c0,18.007-11.071,23.376-22.145,23.376s-22.146-4.251-22.146-23.376v-57.824h4.697V216.028z"/>
</g>
<path fill="#FFFFFF" d="M170.161,89.663c0,0-0.503-17.394-0.839-22.913c-0.334-5.52-9.7-8.698-9.7-8.698s0.04-0.432,0.079-0.989
	c-0.639-0.118-1.282-0.259-1.527-0.38c-0.552-0.278,0,0-0.552-0.278c-0.55-0.276-1.195-0.735-1.195-0.735s-0.276-1.104-0.645-1.564
	c-0.366-0.46,0-1.103,1.656-0.276c0.82,0.41,1.686,0.934,2.35,1.356c-0.018-1.007-1.347-2.827-2.843-3.657
	c-1.506-0.837-0.5-4.014-0.332-5.687c0.166-1.674-2.177-8.197-2.177-8.197s-0.158-0.357-0.359-1.011
	c-5.071-1.988-20.883-7.402-34.903-3.869c0,0-1.242-1.931-4.553-1.518c0,0,3.311-2.76,5.655-2.76c2.347,0,6.072,0.138,7.176-1.518
	c1.104-1.655,3.586-2.069,3.864-0.689c0.274,1.38,0.274,3.036,0.413,3.725c0.139,0.691,0.554,1.242,2.069,0.828
	c1.518-0.415,2.76-0.69,3.45-0.965c0.69-0.277,0.966-0.415,1.795-1.105c0.827-0.688,1.653-1.242,1.931-1.931
	c0.275-0.689,1.518-2.208,1.24-4.001c-0.251-1.637,0.649-3.851,2.277-5.273c-0.085-0.051-0.17-0.1-0.257-0.152
	c-2.009-1.17-5.854-2.173-9.031-1.337c-3.18,0.837-7.528-0.669-10.038-1.337c-2.508-0.669-7.191-1.004-8.864,0.501
	c-1.672,1.505-5.853,2.676-9.031,2.173c-3.178-0.5-7.025,0-8.866,2.343c-1.839,2.34-4.516,2.676-8.363,3.009
	c-3.847,0.335-5.017,2.007-6.188,3.848c-1.016,1.595,0.232,2.561-0.073,3.117l0.072,0.007c0,0,0.413,4.001,0.413,4.967
	c0,0.967-0.138,2.483,0,2.898c0.138,0.413,0.416,1.241,0.416,1.241l0.828,1.242c0,0-0.828,2.069-2.345,2.069
	c-1.221,0-4.224,0.625-6.215,2.446c-0.269,1.946-1.257,3.299-0.789,3.923c0.502,0.67,2.341,3.011,1.338,3.846
	c-1.003,0.838-0.502,4.518-0.502,4.518l0.023,11.062c1.888,0.672,4.352,1.745,4.352,2.766c0,1.655,1.655,4.552,1.655,5.795
	c0,1.241-0.277,3.586,0.139,4.967c0.413,1.379,0,5.105,1.379,5.243c1.38,0.138,2.897,0.276,3.725-0.552
	c0.828-0.828,0.966-1.241,3.312-2.345c2.346-1.104,3.448-1.794,3.448-1.794s1.932,0,2.071,0.416c0.138,0.413,1.241,4,0,7.036
	c-1.243,3.035-2.071,6.899-1.243,7.312c0.827,0.414,1.931,0.967,3.311,0.553c1.381-0.416,1.794-0.553,3.174-0.828
	c1.38-0.277,1.518-0.138,2.069-0.828c0.552-0.69,1.243-1.933,1.932-2.898c0.689-0.966,1.241-1.103,2.207-0.689
	c0.967,0.414,1.656,1.103,2.208,1.103c0.552,0,1.103,0,1.518,0.414c0.415,0.415,2.76,3.727,3.035,6.208
	c0.277,2.484,1.38,9.659-1.793,13.521c-3.172,3.864-5.657,6.347-5.38,7.728c0.274,1.372,0.14,4.515,0.816,4.416
	c0.004-0.001,0.008,0,0.012-0.001c0.689-0.138,0.414-1.657,1.793-2.347c1.381-0.689,4.139-0.827,6.071-0.827
	c1.932,0,4.14-1.794,4.83-2.623c0.689-0.828,0.965-2.344,1.38-2.483c0.413-0.139,1.379-0.139,1.379-0.139s0.966,0.553,1.518,0.966
	c0.552,0.416,1.242,0.69,1.794,0.69s2.344-0.413,2.899,0c0.55,0.415,1.379,1.242,1.792,1.381c0.414,0.137,1.104,0.413,1.104,0.413
	l-0.139-1.517l-1.379-2.07c0,0,4.552,4.968,6.069,9.382c0,0,0.829,2.207-1.792,2.07c-2.622-0.139-10.763-0.552-9.521,0.827
	c1.241,1.381,3.31-0.827,3.31,1.381c0,0-3.034-0.139-4.69-1.104c-1.656-0.968-10.623-1.518-11.589-1.518
	c-0.967,0-2.898-0.691-2.898-0.691l-0.966-0.551c0,0-0.42,0.112-0.894,0.272c-0.578,0.196-1.237,0.466-1.312,0.693
	c-0.139,0.414-1.38,0.827-1.38,1.518s-0.689,1.381-1.38,1.656c-0.689,0.274,0,1.24,0,1.24l0.828,1.794l1.104,0.277
	c0,0,1.242,0.829,1.793,0.688c0.552-0.137,0.689-0.137,1.103-0.137c0.415,0,1.242,0,1.242,0s1.579-0.101,3.344-0.203
	c1.812-0.105,3.822-0.21,4.521-0.21c1.378,0,2.759,0.137,3.862,0c1.105-0.139,1.381-0.552,2.209-0.552
	c0.827,0,5.794-1.379,7.176-1.379c1.379,0,4.552-0.69,5.104-0.69c0.551,0,5.104-0.966,6.347-0.966c1.241,0,4.691-0.554,5.382-1.381
	c0.69-0.829,1.518-3.174,2.067-4.14c0.554-0.965,0.554-1.104,1.658-1.931c1.102-0.829,1.792-2.069,2.069-3.449
	c0.274-1.38,1.24-5.657,1.24-7.313c0-1.656-0.275-4.416-0.412-4.967c-0.14-0.552-1.381-2.621-1.519-3.173
	c-0.137-0.553-0.827-0.415-1.379-1.793c-0.553-1.381-1.243-5.52-1.243-5.933c0-0.415-3.173-3.312-4.277-4.14
	c-1.104-0.827-5.656-2.76-12.005-0.966c-2.869,0.811-4.717,1.988-5.887,3.035c-0.145,0.425-0.438,1.279-0.735,2.071
	c-0.414,1.104-0.69,2.346-0.965,3.862c-0.276,1.519,0.826,12.143,0.826,12.143l-1.241-0.827c0,0-0.965-0.829-1.242-1.242
	c-0.276-0.414-1.793-1.793-1.793-1.793l0.275-4.001l-0.138-1.518l-1.241-2.345v-2.759c0,0,0.138-1.933,0.276-3.037
	c0.137-1.103,0.276-1.655,1.379-2.069c0.919-0.344,6.412-1.641,8.233-2.067c2.242-1.131,5.395-2.121,9.842-2.624
	c0,0,4.69,0.139,6.623,1.379c1.931,1.243,3.312,1.243,3.312,0.69c0-0.551,0.136-2.621,0.136-2.621l0.139-2.208l1.381-0.139
	c0,0,6.761,2.484,7.174,2.484c0.414,0,2.76,0.553,2.76,0.553s1.656,0.551,2.069,0.551c0.414,0,2.347,0.689,2.347,0.689
	s-9.521-1.656-8.555,6.762c0,0,2.592-8.716,11.584-4.383C170.944,90.699,170.161,89.663,170.161,89.663z M120.554,17.589
	c0.137-1.656,2.483-1.518,2.483-1.518c1.104,0.415,2.069,1.381,2.069,1.381s0.828,0.965,0.828,1.379
	c0,0.415-0.138,1.104-0.414,1.655c-0.275,0.553-0.551,1.105-0.551,1.105s-0.966-0.552-1.656-0.69
	c-0.69-0.138-1.656-0.827-2.07-1.103C120.829,19.521,120.415,19.246,120.554,17.589z M87.165,56.774
	c-0.829,0.551-3.589,3.311-3.589,3.311v-3.311c0,0,2.898-1.793,4.554-2.345C88.13,54.429,87.991,56.222,87.165,56.774z
	 M95.855,51.945c-1.107,1.162-3.366,3.254-4.216,4.037l0.078,6.587l-0.828,0.553c0,0,0.414-22.49-0.414-23.042
	c-0.828-0.552-2.07-0.689-2.07-0.689l-1.519-0.553c0,0-1.656,0-1.793-0.689c-0.136-0.689,0-3.173,0.553-3.726l0.414,3.312
	c0,0,4.967-1.793,6.898-2.069l0.552-1.794l0.137-5.794c0,0,0.69,2.344,0.968,2.759c0.275,0.414,0.551,0.829,0.551,0.829
	s0.689,1.102,0.689,1.517c0,0.413,0,1.794,0,1.794l-2.069,1.517l-1.932,1.105l-0.413,1.518l0.17,14.498
	c0.735-0.598,2.979-2.403,3.555-2.632C95.855,50.703,97.236,50.497,95.855,51.945z M103.581,19.935
	c2.485,0.828-0.136,4.139-0.136,4.139s-1.38-0.689-1.793-0.827c-0.415-0.14-0.965-0.828-0.965-0.828l-0.692-0.965l-0.136-1.243
	C100.132,19.797,101.098,19.107,103.581,19.935z M105.1,49.669c-0.276,0.413-2.001,1.31-2.001,1.31s-1.793,0.828-2.138,0.897
	c-0.345,0.068-1.38,0.621-1.38,0.621c-0.622-2.553,2.14-2.622,3.242-2.76c1.104-0.14,2.83-1.173,2.83-1.173
	S105.375,49.254,105.1,49.669z M101.375,33.87c0.138-2.483,4.14-3.863,5.933-4.691c1.794-0.828,1.518-4.553,1.518-4.553
	c2.897,0.966,1.932,8.14,1.932,8.14C107.998,32.628,101.375,33.87,101.375,33.87z M113.654,48.034c0,0.461-0.735,0.921-1.104,1.105
	c-0.367,0.184-0.736,0.276-1.839,1.196c-1.104,0.919-2.392,0.183-2.392,0.183s0-1.656,0.368-2.298
	c0.368-0.644,2.024-0.92,2.392-0.92c0.368,0,1.471-0.828,1.471-0.828l1.104-0.093C113.654,46.379,113.654,47.576,113.654,48.034z
	 M134.995,101.109c1.931-1.195,5.886-1.839,7.909-1.379c2.024,0.46,4.048,1.931,4.875,2.299c0.829,0.368,1.656,1.104,1.933,1.196
	c0.275,0.093-1.84,1.196-2.575,1.932c-0.736,0.736-4.139,1.84-4.875,2.023c-0.736,0.186-2.024,0.369-3.772,0.552
	c-1.747,0.184-3.862,0.093-4.14-0.183c-0.274-0.277,0.368-2.3,2.944-2.944s5.151-0.827,5.61-1.012
	c0.461-0.183,1.197-0.643,1.197-0.643s1.288-1.013-0.829-1.473c-2.115-0.459-6.163,0.736-6.898,0.736
	c-0.736,0-3.035,1.656-4.229,3.127c-1.197,1.471-2.302,1.196-2.302,1.196S133.062,102.305,134.995,101.109z M125.796,47.3
	c-0.276,0.184-0.46,0.276-0.736,0.459c-0.276,0.184-0.736,0-1.655,0.092c-0.92,0.092-2.024-0.184-2.024-0.184
	c-0.184-1.471,1.564-1.38,2.668-1.471c1.103-0.093,2.759-0.46,2.759-0.46S126.072,47.115,125.796,47.3z M134.35,48.034
	c-1.562,0.553-0.643,0-1.102,0c-0.461,0-0.829-0.091-1.474-0.275c-0.644-0.184-2.113-1.563-2.113-1.563s3.31-0.093,4.688-0.093
	C135.73,46.104,135.913,47.484,134.35,48.034z M142.812,49.598l-1.011-0.183l-1.011-0.46l-0.92-1.288l1.564-0.367l1.011,0.551
	l0.827,0.552l0.368,0.645L142.812,49.598z M152.702,85.06l-0.69,0.275c0,0-0.968-0.137-1.934-0.275
	c-0.963-0.139-6.345-2.347-5.518-2.347c0.829,0,4.139,1.104,4.139,1.104V50.979l0.416-0.414h1.379h0.965
	c0.69,0.552-0.827,1.105-0.827,1.105l-0.965,0.551l-0.277,29.527l0.552,1.103l3.174,1.243l0.552,0.55L152.702,85.06z
	 M148.425,25.178c0.413,0,0.965-0.276,1.381-0.138c0.411,0.138,0.826,0.689,0.826,0.689l-0.965,0.828c0,0-0.552,0.69-0.69,1.519
	s-0.69,2.483-0.139,2.483s1.379-1.104,1.933-1.794c0.55-0.688,0.966-1.517,1.379-1.655c0.26-0.088,2.167,0.866,4.022,1.413
	c0.823-0.917,1.63-1.755,2.113-2.418c1.219-1.677-3.118-4.464-6.557-5.579c-0.924,0.778-2.127,1.86-2.752,2.722
	C147.872,24.763,148.011,25.178,148.425,25.178z M141.112,138.869c-1.52-0.691-1.933-1.518-4.829-2.347
	c-2.898-0.827-10.487-0.275-11.867,0c-1.379,0.276-2.069,0.552-3.312,0.552c-1.24,0-2.344-0.413-7.036-0.69
	c-4.691-0.273-7.726,4.279-7.726,5.245c0,0.965,8.001,1.104,15.591,1.104c7.587,0,20.697-1.933,20.697-1.933
	S142.63,139.56,141.112,138.869z M109.377,107.962c-0.476-0.19-1.279-0.906-1.868-1.692c-1.792-0.203-4.361,0.727-5.722,0.727
	c-1.656,0-4.415-0.139-3.862-2.208c0.367-1.376,2.503-2.325,3.893-2.807c-1.508-0.185-2.956-0.127-3.893,0.184
	c-2.07,0.69-4.416,5.244-4.416,5.244l0.137,1.104c0,0,1.243,0,2.484,0.552c1.242,0.552,8.279-0.276,9.796-0.276
	C107.445,108.791,110.067,108.238,109.377,107.962z"/>
</svg>
