<?xml version="1.0" encoding="utf-8"?>
<!-- Generator: Adobe Illustrator 16.0.0, SVG Export Plug-In . SVG Version: 6.00 Build 0)  -->
<!DOCTYPE svg PUBLIC "-//W3C//DTD SVG 1.1//EN" "http://www.w3.org/Graphics/SVG/1.1/DTD/svg11.dtd">
<svg version="1.1" id="Layer_1" xmlns="http://www.w3.org/2000/svg" xmlns:xlink="http://www.w3.org/1999/xlink" x="0px" y="0px"
	 width="165.922px" height="85.476px" viewBox="276.402 340.935 165.922 85.476"
	 enable-background="new 276.402 340.935 165.922 85.476" xml:space="preserve">
<g>
	<g>
		<polygon points="316.843,367.956 316.718,384.311 327.182,384.273 342.077,341.004 332.029,340.986 326.164,355.34 
			326.647,341.022 315.124,341.004 299.946,384.292 310.277,384.296 		"/>
		<path d="M442.29,364.479c-0.049-0.129-0.142-0.231-0.267-0.293c-0.123-0.062-0.262-0.07-0.39-0.035l-49.578,14.108l0.852-3.602
			l-11.403-0.103l3.013-9.463l10.119-0.084l3.186-9.202l-9.861-0.036l2.578-7.885l9.955-0.031l2.479-6.897l-32.663-0.022
			l-7.585,8.674l2.871-8.657l-10.003,0.062l-14.947,43.291l10.589-0.035l5.183-14.877l1.005,14.881l11.611,0.031
			c-18.044,6.961-34.825,12.289-53.573,17.025c-7.062,1.795-14.491-0.905-18.762-6.805c-2.632-3.791-3.615-8.236-2.831-12.785
			c0.828-4.018,1.874-7.615,3.327-11.451c-0.004-0.111-0.084-0.209-0.19-0.236c-0.111-0.031-0.226,0.018-0.283,0.111
			c-3.239,2.613-5.822,5.449-8.12,8.923c-6.495,8.537-10.447,17.818-12.104,28.42c-0.425,4.094,0.589,7.976,2.964,11.336
			c2.374,3.364,5.688,5.619,9.688,6.594c4.47,1.08,8.741,1.259,13.286,0.554c6.184-1.136,11.682-2.849,17.418-5.426l122.161-55.408
			c0.125-0.059,0.218-0.156,0.271-0.283C442.335,364.744,442.339,364.605,442.29,364.479z M368.458,378.426l-1.432-20.502
			l13.905-15.054L368.458,378.426z"/>
		<polygon points="339.352,384.305 354.26,340.935 343.366,341.006 328.507,384.279 		"/>
	</g>
</g>
</svg>
