<?xml version="1.0" encoding="utf-8"?>
<!-- Generator: Adobe Illustrator 16.0.0, SVG Export Plug-In . SVG Version: 6.00 Build 0)  -->
<!DOCTYPE svg PUBLIC "-//W3C//DTD SVG 1.1//EN" "http://www.w3.org/Graphics/SVG/1.1/DTD/svg11.dtd">
<svg version="1.1" id="Ebene_1" xmlns="http://www.w3.org/2000/svg" xmlns:xlink="http://www.w3.org/1999/xlink" x="0px" y="0px"
	 width="143.72px" height="111.911px" viewBox="0 0 143.72 111.911" enable-background="new 0 0 143.72 111.911"
	 xml:space="preserve">
<g>
	<path fill="#FFFFFF" d="M119.809,95.494h-7.936C114.527,95.602,117.17,95.609,119.809,95.494L119.809,95.494L119.809,95.494z
		 M1.917,1.915h139.888v46.935v46.645l-0.029,8.785c-54.146,19.516-81.664-26.543-139.861,4.443v-14.75l0.002-45.124V1.915
		L1.917,1.915L1.917,1.915z"/>
	<path fill="none" stroke="#FFFFFF" stroke-width="3.8295" stroke-miterlimit="3.8637" d="M119.809,95.494h-7.936
		C114.527,95.602,117.17,95.609,119.809,95.494L119.809,95.494L119.809,95.494z M1.917,1.915h139.888v46.935v46.645l-0.029,8.785
		c-54.146,19.516-81.664-26.543-139.861,4.443v-14.75l0.002-45.124V1.915L1.917,1.915L1.917,1.915z"/>
	<path fill="#FFFFFF" d="M1.917,95.494V48.56v0.29h0.079c9.711-9.291,15.265-13.103,21.126-18.096
		c6.598-5.619,9.918-4.773,12.723-2.522c2.13,1.711,7.98,7.362,7.98,7.362c7.529-6.159,12.297-12.283,20.194-17.84
		c7.749-5.453,8.505-6.308,19.991,2.382c4.045,3.061,11.102,8.869,12.881,10.489c4.572,4.162,5.465,2.934,7.467,0.8
		c8.586-9.16,11.389-4.85,16.629-0.097c8.744,7.929,20.762,17.522,20.762,17.522h0.057v-0.29v46.935H1.917L1.917,95.494
		L1.917,95.494L1.917,95.494z"/>
	<path fill="#62BB46" d="M1.915,108.723c58.197-30.986,85.714,15.072,139.861-4.443V91.131
		C101.068,106.373,65.567,76.07,1.915,93.973V108.723L1.915,108.723L1.915,108.723L1.915,108.723z"/>
	<path fill="#004FA3" d="M27.995,59.928c5.524-6.199,7.949-8.017,10.778-8.017c3.099,0,4.244,1.55,4.244,5.591
		c0,1.752-0.673,5.996-0.673,10.037c0,2.223,0.27,4.312,0.472,5.523c0.135,0.607,0.876,3.033,0.876,3.908
		c0,1.348-4.042,3.031-5.928,3.031c-3.841,0-6.601-4.176-6.601-9.969c0-1.281,0.066-2.357,0.403-4.65
		c-6.467,6.469-7.814,9.365-12.126,14.148c-0.876,0.809-1.751,1.213-2.762,1.213c-2.761,0-4.715-2.291-4.715-5.66
		c0-5.051,3.638-20.411,8.286-25.262c1.01-1.01,2.156-1.481,3.57-1.481c2.224,0,3.436,1.549,3.436,4.445
		c0,2.426-0.404,5.321-1.347,9.433L27.995,59.928L27.995,59.928L27.995,59.928L27.995,59.928z"/>
	<path fill="#004FA3" d="M110.545,77.162c-2.426,2.359-3.502,3.031-5.186,3.031c-2.697,0-4.717-2.223-4.717-5.188
		c0-1.885,0.471-3.703,2.02-7.68c0.404-1.076,0.541-1.279,0.811-2.088c-2.83,2.83-3.84,3.975-6.4,7.074
		c-4.648,5.592-7.006,7.611-9.027,7.611c-2.828,0-4.58-2.357-4.58-6.264c0-2.561,0.877-5.93,3.166-11.789
		c3.1-8.084,5.188-13.137,9.566-13.137c2.426,0,4.109,1.281,4.109,3.032c0,1.751-0.473,3.706-1.887,7.545
		c-0.875,2.223-1.01,2.762-1.482,4.379c1.416-1.416,1.686-1.752,4.041-4.648c5.322-6.535,9.027-10.643,12.531-10.643
		c2.357,0,4.379,2.559,4.379,5.456c0,1.145-0.605,3.369-1.955,7.208c-0.605,1.818-0.74,2.088-1.078,3.234
		c1.418-1.281,3.641-3.168,7.074-6.872c3.303-3.638,4.648-4.582,6.332-4.582c2.697,0,4.178,1.954,4.178,5.524
		c0,1.953-1.346,9.094-1.346,14.889c0,2.088,0.201,3.637,0.875,6.803c0.336,1.482,0.539,1.752,0.539,2.83
		c0,1.549-2.562,2.83-4.918,2.83c-1.752,0-3.502-0.809-5.055-2.426c-2.02-2.088-2.693-4.244-2.693-9.094
		c0-2.088,0.068-2.561,0.404-7.074l-0.74,0.809L110.545,77.162L110.545,77.162L110.545,77.162L110.545,77.162z"/>
	<path fill="#004FA3" d="M72.986,44.346c1.605-0.986,3.186-1.304,4.676-2.051c2.537-1.273,8.123-7.391,1.627-10.591
		c-6.383-3.146-8.85,4.547-8.62,7.478C70.878,41.837,71.837,45.051,72.986,44.346L72.986,44.346L72.986,44.346L72.986,44.346z"/>
	<path fill="#004FA3" d="M72.341,47.311c-0.706-0.11-1.147-0.287-3.569-0.236C57.541,47.31,46.509,58.15,46.509,68.732
		c0,8.451,7.352,12.025,15.048,12.025c4.81,0,10.288-1.934,14.265-5.283c3.572-3.01,6.27-9.197,6.314-13.689
		C82.23,52.119,76.645,47.977,72.341,47.311L72.341,47.311L72.341,47.311L72.341,47.311z M71.558,65.889
		c-1.479,5.162-5.954,9.152-9.289,8.684c-3.602-0.506-5.562-3.977-4.896-8.713c0.802-5.701,4.607-11.59,8.342-13.013
		C71.921,50.484,73.703,58.404,71.558,65.889L71.558,65.889L71.558,65.889L71.558,65.889z"/>
	<path fill="#004FA3" d="M62.939,44.837c-1.017-1.237-2.183-1.848-3.189-2.942c-2.414-2.625-3.872-8.28,1.624-8.963
		c5.816-0.723,5.854,6.104,4.858,8.395C65.328,43.405,63.668,45.723,62.939,44.837L62.939,44.837L62.939,44.837L62.939,44.837z"/>
	<path fill="#4D90CD" d="M1.917,1.915v46.935h0.079c9.711-9.291,15.265-13.103,21.126-18.096c6.598-5.619,9.918-4.773,12.723-2.522
		c2.13,1.711,7.98,7.362,7.98,7.362c7.529-6.159,12.297-12.283,20.194-17.84c7.749-5.453,8.505-6.308,19.991,2.382
		c4.045,3.061,11.102,8.869,12.881,10.489c4.572,4.162,5.465,2.934,7.467,0.8c8.586-9.16,11.389-4.85,16.629-0.097
		c8.744,7.929,20.762,17.522,20.762,17.522h0.057V1.915H1.917L1.917,1.915L1.917,1.915L1.917,1.915z"/>
</g>
</svg>
