<?xml version="1.0" encoding="utf-8"?>
<!-- Generator: Adobe Illustrator 16.0.0, SVG Export Plug-In . SVG Version: 6.00 Build 0)  -->
<!DOCTYPE svg PUBLIC "-//W3C//DTD SVG 1.1//EN" "http://www.w3.org/Graphics/SVG/1.1/DTD/svg11.dtd">
<svg version="1.1" id="Layer_1" xmlns="http://www.w3.org/2000/svg" xmlns:xlink="http://www.w3.org/1999/xlink" x="0px" y="0px"
	 width="192.756px" height="192.756px" viewBox="263 264 192.756 192.756" enable-background="new 263 264 192.756 192.756"
	 xml:space="preserve">
<g>
	<polygon fill="#F9A13A" points="263,264 455.756,264 455.756,456.756 263,456.756 	"/>
	<path fill="#FFFFFF" d="M338.105,434.057c-2.612,1.716-5.44,2.55-8.48,2.55c-4.785,0-7.613-3.179-7.613-7.441
		c0-5.727,5.275-8.764,16.147-9.982v-1.43c0-1.863-1.415-2.938-4.023-2.938c-2.611,0-4.73,1.028-6.253,2.938l-4.564-2.594
		c2.393-3.33,6.033-4.994,10.927-4.994c6.685,0,10.438,2.891,10.438,7.588c0,0-0.01,18.51,0.007,18.555h-5.986L338.105,434.057
		L338.105,434.057z M328.644,428.68c0,1.711,1.087,3.318,3.048,3.318c2.122,0,4.188-0.877,6.25-2.693v-6.057
		C331.633,424.023,328.644,425.643,328.644,428.68L328.644,428.68z"/>
	<path fill="#FFFFFF" d="M350.017,411.301l5.586-0.77l0.616,3.031c3.152-2.3,5.656-3.521,8.805-3.521
		c5.273,0,7.993,2.789,7.993,8.324v17.817h-6.741v-16.647c0-3.133-0.816-4.551-3.265-4.551c-2.011,0-4.021,0.928-6.307,2.842v18.356
		h-6.688L350.017,411.301L350.017,411.301z"/>
	<path fill="#FFFFFF" d="M417.704,436.682c-7.556,0-12.067-4.85-12.067-13.274c0-8.521,4.569-13.363,11.967-13.363
		c7.391,0,11.794,4.695,11.794,13.021c0,0.444-0.058,0.885-0.058,1.321h-17.067c0.057,4.851,2.07,7.301,6.035,7.301
		c2.557,0,4.239-1.028,5.815-3.276l4.943,2.738C426.894,434.768,422.979,436.682,417.704,436.682L417.704,436.682z M422.763,420.031
		c0-3.431-1.957-5.438-5.16-5.438c-3.05,0-4.949,1.955-5.224,5.438H422.763L422.763,420.031z"/>
	<path fill="#FFFFFF" d="M288.505,436.961c-6.669,0-12.684-4.244-12.684-13.51c0-9.267,6.015-13.504,12.684-13.504
		c6.672,0,12.687,4.237,12.687,13.504C301.192,432.717,295.177,436.961,288.505,436.961L288.505,436.961z M288.505,415.635
		c-5.036,0-5.97,4.537-5.97,7.816s0.934,7.815,5.97,7.815c5.042,0,5.97-4.536,5.97-7.815S293.547,415.635,288.505,415.635
		L288.505,415.635z"/>
	<path fill="#FFFFFF" d="M305.818,410.615h6.416v3.012c1.223-1.621,4.24-3.533,7.068-3.533c0.271,0,0.598,0,0.868,0.045v6.316
		c-0.107,0-0.216,0-0.324,0c-2.936,0-6.145,0.451-7.174,2.732v18.026h-6.854V410.615L305.818,410.615z"/>
	<path fill="#FFFFFF" d="M389.535,430.715c5.121-0.045,5.554-5.242,5.554-8.637c0-3.996-1.958-7.25-5.599-7.25
		c-2.429,0-5.129,1.766-5.129,7.529C384.361,425.521,384.584,430.746,389.535,430.715L389.535,430.715z M401.57,410.52v24.242
		c0,4.277-0.324,11.312-12.545,11.396c-5.039,0.03-9.715-1.984-10.647-6.373l6.657-1.068c0.279,1.252,1.049,2.504,4.83,2.504
		c3.495,0,5.172-1.672,5.172-5.668v-2.975l-0.089-0.096c-1.073,1.905-2.707,3.719-6.621,3.719c-5.967,0-10.681-4.14-10.681-12.787
		c0-8.56,4.848-13.351,10.306-13.357c5.107-0.012,7.015,2.32,7.447,3.547l-0.082-0.02l0.559-3.062h5.694V410.52z"/>
	<path fill="#FFFFFF" d="M433.127,400.492h-3.209v8.865h-1.69v-8.865h-3.209v-1.367h8.108V400.492L433.127,400.492z M446.49,409.357
		h-1.696v-8.55h-0.044l-3.362,8.55h-1.072l-3.355-8.55h-0.051v8.55h-1.69v-10.232h2.611l3.062,7.771l3.007-7.771h2.592
		L446.49,409.357L446.49,409.357z"/>
</g>
</svg>
