<?xml version="1.0" encoding="utf-8"?>
<!-- Generator: Adobe Illustrator 16.0.0, SVG Export Plug-In . SVG Version: 6.00 Build 0)  -->
<!DOCTYPE svg PUBLIC "-//W3C//DTD SVG 1.1//EN" "http://www.w3.org/Graphics/SVG/1.1/DTD/svg11.dtd">
<svg version="1.1" id="Layer_1" xmlns="http://www.w3.org/2000/svg" xmlns:xlink="http://www.w3.org/1999/xlink" x="0px" y="0px"
	 width="376.236px" height="196.704px" viewBox="0 0 376.236 196.704" enable-background="new 0 0 376.236 196.704"
	 xml:space="preserve">
<g>
	<g>
		<path fill="#007550" d="M220.302,152.064c-1.08,3.672-2.376,7.56-5.256,10.152c-2.016,1.728-4.536,2.88-7.2,3.168
			c-0.72,0.072-1.296,0.144-2.376,0.072c-2.664-0.144-5.256-1.224-7.271-2.952c-0.36,0.288-0.72,0.648-1.08,0.936
			c-0.792,0.72-1.872,1.08-3.024,1.224c-1.008,0.216-2.016,0.216-2.88,0.288l0,0c-1.584,0-3.096,0.072-4.68,0.216
			c-4.392,0.288-8.712,0.792-13.032,0.936c-1.584,0.144-3.168,0.144-4.824,0.144c-4.464,0-9.072-0.36-13.32-1.872
			c-1.944-0.648-3.816-1.512-5.544-2.736c-1.008,1.152-2.376,2.088-3.816,2.736c-3.6,1.512-7.92,1.008-11.52-0.216
			c-3.816-1.44-6.48-3.456-9.504-5.688c-2.88-2.16-8.352-5.832-10.872-5.832c-1.368,0-2.736,0.72-4.032,1.584
			c-1.944,1.368-3.6,3.096-5.328,4.68c-1.44,1.44-3.024,2.808-4.752,4.032c-2.592,1.728-5.616,3.024-8.784,3.168
			c-3.96,0.144-7.92-1.152-10.728-3.888c-1.8-1.728-2.952-3.96-3.312-6.48c-0.144-1.296,0.072-2.592,0.36-3.816
			c0.432-1.944,1.08-3.816,1.728-5.688l2.736-8.136c-0.504,0.144-1.08,0.288-1.584,0.432h-0.072
			c-1.296,0.288-2.592,0.504-3.888,0.72c-3.672,0.576-8.28,0.936-10.44,4.392c-1.224,1.944-1.512,4.176-1.872,6.336
			c-0.504,3.168-1.08,6.264-2.808,9.144c-1.008,1.584-2.232,2.952-3.744,4.032c-1.584,1.224-3.456,2.016-5.472,2.232
			c-2.088,0.288-4.248,0-6.264-0.36c-4.104-0.864-8.136-2.88-10.296-6.408c-1.8-3.024-2.088-6.984-2.448-10.368
			c-0.792-7.2-1.08-14.4-1.08-21.528c0-7.632,0.288-15.192,0.576-22.752c0.072-1.872,0.144-3.816,0.288-5.472
			c0.072-1.008,0.144-1.944,0.576-2.952c1.224-2.808,4.104-4.968,6.696-6.336c4.536-2.088,9.216-2.592,13.824-2.952
			c5.616-0.504,11.232-0.36,16.776,0.576c4.608,0.72,9.36,2.016,13.536,4.032c3.312,1.512,6.048,3.528,8.496,6.192
			c1.152,1.296,2.16,2.664,3.024,4.176c0.72-1.728,1.584-3.312,2.592-4.824c1.656-2.52,3.6-4.824,6.048-6.48
			c0.216-0.144,0.504-0.36,0.864-0.504c-0.792-4.32-1.224-8.784-1.224-13.32C104.094,34.2,138.294,0,180.198,0
			c41.904,0,76.032,34.2,76.032,76.104c0,3.168-0.144,6.192-0.504,9.216c0.936-0.072,1.872-0.144,2.808-0.072
			c2.448,0.072,4.896,0.648,7.128,1.584c0.792,0.36,1.584,0.792,2.376,1.224c1.872,1.152,3.672,2.52,5.112,4.176
			c2.16,2.376,3.384,4.896,3.672,7.92c0.936,9,0.792,17.712,0.504,26.352c0-0.072,0.072-0.216,0.072-0.288
			c0.432-1.152,0.864-2.232,1.296-3.312c0.648-1.872,1.44-3.96,2.232-5.976c2.088-5.76,4.176-11.376,6.84-17.424
			c0.792-1.584,2.232-4.248,3.672-5.976c3.672-4.32,8.064-6.768,13.896-6.768c1.872-0.072,3.816,0.216,5.616,0.792
			c3.24,0.936,6.192,2.664,8.568,4.752c0.432,0.432,0.936,0.864,1.296,1.296c2.232,2.232,4.032,4.896,5.04,7.92
			c0.648,1.728,2.088,5.976,3.96,11.232c1.44,4.104,2.952,8.352,4.464,12.672l6.84,19.512c0.288,0.792,1.944,5.256,2.16,6.048
			c0.36,1.296,0.504,2.592,0.432,3.96c-0.144,1.8-0.72,3.672-1.728,5.256c-1.008,1.584-2.376,2.808-4.032,3.672
			c-1.44,0.792-3.096,1.296-4.752,1.44c-1.8,0.072-2.808,0-4.968-0.432c-5.256-1.08-9.216-4.032-13.32-7.056
			c-1.944-1.44-3.816-3.024-5.976-4.104c-1.224-0.576-2.448-1.008-3.744-1.008c-0.576,0-1.152,0.072-1.728,0.216
			c-3.6,1.152-7.344,6.048-10.44,8.64c-3.312,2.736-7.272,4.608-11.592,4.608c-3.528,0-7.056-1.296-9.648-3.744
			c-2.52,1.8-5.688,2.592-8.856,2.664c-1.44,0.072-2.88,0.144-4.392-0.36c-1.512-0.504-3.312-1.8-4.536-3.24
			c-1.728-2.016-2.88-4.248-3.6-6.84c-0.36-1.296-0.648-2.664-0.936-4.032c-0.792,2.016-1.44,4.032-2.304,5.976
			c-1.152,2.52-2.808,4.608-5.256,5.976c-2.664,1.512-5.76,1.8-8.712,1.368c-1.44-0.144-2.664-0.504-3.816-1.008
			c-1.152-0.576-2.232-1.296-3.312-2.232c-2.592-2.304-3.816-4.608-5.184-7.344C220.878,153.288,220.302,152.136,220.302,152.064z"
			/>
		<path fill="#FFFFFF" d="M62.622,147.528c-0.72,3.96-1.008,8.064-3.456,11.376c-2.088,2.952-5.04,4.752-8.712,4.68
			c-4.68,0-10.656-1.656-13.248-5.976c-0.792-1.224-1.152-2.664-1.512-4.32c-0.648-3.456-0.936-7.056-1.224-10.584
			c-0.432-5.328-0.576-10.656-0.576-15.984c0-6.48,0.144-12.672,0.432-19.152c0.216-3.24,0.216-7.488,0.576-10.08
			c0.36-2.808,3.816-5.4,6.12-6.552c2.88-1.512,6.48-2.016,9.648-2.448c4.104-0.504,8.208-0.72,12.384-0.576
			c8.208,0.36,19.368,2.52,25.992,8.136c2.952,2.448,5.256,5.688,6.696,9.288l0.144,0.432c0,0,0,0,0.072-0.072
			c0-0.072,0.072-0.144,0.072-0.216c2.16-5.472,5.112-11.376,10.224-14.472c0.432-0.216,0.792-0.432,1.152-0.648
			c-0.936-4.608-1.368-9.36-1.368-14.256c0-40.824,33.336-74.16,74.16-74.16c40.824,0,74.16,33.336,74.16,74.16
			c0,3.96-0.288,7.776-0.864,11.592l1.224-0.288c1.008-0.216,2.016-0.288,2.952-0.288c1.728,0,3.384,0.216,5.112,0.72
			c4.824,1.224,11.448,6.336,12.096,11.592c1.224,10.872,0.792,21.312,0.36,31.752c-0.144,2.376-0.216,4.752-0.288,7.128
			c0.144-0.432,0.36-0.936,0.504-1.368c1.584-4.536,3.312-8.928,4.968-13.392c2.952-7.848,5.544-15.408,9.144-23.472
			c0.432-0.864,0.864-1.728,1.224-2.376l0,0c2.16-3.744,5.4-6.84,9.504-8.28c2.376-0.792,4.896-1.008,7.344-0.648
			c3.384,0.432,6.624,1.872,9.288,3.888c3.24,2.376,5.832,5.688,7.2,9.432c2.376,6.768,5.328,15.336,8.352,23.976l7.128,20.304
			c0.432,1.08,0.792,2.232,1.224,3.384c0.504,1.152,0.792,2.232,0.936,3.384c0.144,1.08,0.072,2.16-0.216,3.384
			c-0.144,0.576-0.36,1.152-0.576,1.656c-1.152,2.448-3.456,4.248-6.192,4.968c-2.016,0.432-4.176,0.288-6.192-0.072
			c-4.968-1.08-8.856-4.032-12.888-6.984c-2.304-1.728-4.608-3.6-7.2-4.608c-1.8-0.72-3.744-0.936-5.544-0.36
			c-2.592,0.792-4.608,2.88-6.48,4.68c-0.864,0.792-1.656,1.584-2.52,2.376c-1.44,1.296-2.88,2.592-4.536,3.672
			c-2.592,1.584-5.616,2.592-8.712,2.376c-1.296,0-2.52-0.288-3.744-0.792c-1.944-0.72-3.744-2.016-4.968-3.6
			c-0.576,0.504-1.152,0.936-1.728,1.368c-2.088,1.296-4.68,1.944-7.776,2.016c-1.872,0-3.456,0-5.04-1.08
			c-1.152-0.792-2.088-1.872-2.88-3.024c-1.008-1.368-1.8-3.024-2.376-4.968c-0.432-1.584-0.72-3.312-1.152-4.968
			c-0.216-0.648-0.36-1.296-0.576-2.016c-0.216-0.504-0.36-0.864-0.792-0.792c-0.432,0.072-0.648,0.288-0.936,0.936
			c-0.144,0.288-0.36,0.648-0.432,1.008c-1.008,2.52-1.8,5.112-2.88,7.56c-0.648,1.512-1.152,2.232-2.16,3.312
			c-1.44,1.44-3.024,2.304-4.752,2.736c-1.584,0.36-3.384,0.432-5.112,0.144c-2.448-0.288-4.248-1.152-6.048-2.736
			c-2.52-2.232-3.6-4.464-4.968-7.272c-0.792-1.584-1.224-2.88-1.944-4.464c-0.072-0.216-0.072-0.36-0.36-0.432
			c-0.216,0-0.432,0.288-0.432,0.432c-0.432,1.296-0.648,2.016-1.008,3.312c-0.864,3.168-1.728,6.336-3.96,9
			c-2.016,2.232-4.752,3.456-7.632,3.672c-3.528,0.216-6.696-1.152-8.784-3.816c-0.72,0.792-1.512,1.512-2.376,2.232
			c-1.008,0.864-3.096,1.008-4.752,1.008c-3.168,0.144-6.336,0.36-9.576,0.648c-4.248,0.36-8.496,0.72-12.888,0.72
			c-5.184,0-9.36-0.576-12.744-1.728c-2.592-0.936-4.752-2.16-6.48-3.672c-0.288,0.432-0.576,0.864-0.864,1.224
			c-3.384,3.96-9,3.672-13.464,2.16c-3.024-1.08-5.472-2.664-7.92-4.392c4.104,2.952-8.208-7.2-13.104-7.2
			c-3.672,0-6.912,3.24-9.432,5.76c-3.6,3.456-7.416,6.912-12.528,7.632c-2.448,0.288-5.112-0.144-7.416-1.224
			c-2.88-1.44-5.256-3.96-5.688-7.416c-0.144-1.224,0.216-2.88,0.504-3.96l5.472-16.488c-1.584,0.72-3.312,1.224-5.04,1.584
			c-3.672,0.792-8.352,1.152-11.664,2.592C64.854,140.76,63.27,144.072,62.622,147.528z"/>
		<path fill="#007550" d="M213.03,78.84v-2.736c0.864-3.816,0.576-3.528,0-2.52V51.696c0.144,0,0.288,0,0.432,0
			c-0.072-0.072-0.216-0.216-0.36-0.36h-0.072v-5.04c2.16-1.008,3.816-1.368,5.904-1.368c1.872,0.144,3.312,0.792,4.464,1.872
			c1.224,1.44,1.224,2.16-0.648,2.016c-2.592-1.656-2.952-1.512-2.52-0.432c1.224,1.44-0.072,2.016-0.936,1.152
			c-2.016-1.584-1.656-0.936-1.296,0c1.152,1.224-0.144,1.44-2.664,0.504c1.44,1.512,0.72,1.224-0.648,0.936
			c0,0.36,0.072,0.72,0.072,0.936c3.96,1.296,7.056,3.456,9.576,6.192c1.728,2.304,2.808,4.752,3.384,7.416
			c0.36,3.24-0.144,4.176-1.8,1.944c-1.656-5.04-2.088-5.184-2.232-3.384c0.36,3.312-1.224,2.664-1.656,0.504
			c-1.008-4.32-1.008-3.024-1.224-1.44c0.432,2.88-1.008,1.728-2.88-2.232c0.576,3.528,0,2.448-1.224,0.504
			c-0.576,1.872-0.936,3.6-1.728-1.224c-0.576-0.864-0.72-1.728-0.288,1.656c-0.072,0-0.072,0.072-0.072,0.144
			c1.512,3.168,2.376,6.48,2.88,9.864c0.216,3.312-0.072,6.408-0.864,9.288c-1.152,3.24-1.944,3.888-2.16,0.576
			c1.08-5.832,0.864-6.336-0.144-4.68C213.75,78.552,213.318,79.056,213.03,78.84z M213.03,46.296v5.04
			c-0.504-0.144-0.72-0.288-0.216,0.36c0.072,0,0.144,0,0.216,0v21.888c-0.144,0.216-0.216,0.36-0.36,0.576
			c-0.936,2.952-1.512,0.936-1.08-4.176c-1.224,3.744-1.152,2.304-1.152-0.36c-1.296,1.44-2.304,2.736-0.72-2.304
			c0-1.224,0.216-2.088-1.008,1.296c-1.8,2.304-2.088,0.936-0.432-3.96c-0.072-0.36-0.504,0.36-1.008,0.864
			c-0.216,4.32-0.864,8.352-1.8,12.24c-1.008,3.24-2.16,5.976-3.456,8.208c-1.728,2.376-2.304,2.52-1.368-0.648
			c2.448-4.824,2.52-5.4,1.512-4.464c-1.728,2.52-1.656,0.432-0.504-1.368c2.088-3.816,1.44-2.952,0.504-2.16
			c-1.44,2.232-1.08,0.072,0.792-4.392c-1.8,2.736-1.296,1.512-0.432-1.008c-1.152,0.648-2.088,1.296,0.36-2.52
			c0.36-1.152,0.792-1.872-0.936,0.648c-1.656,1.152-1.368-0.288,1.08-3.888c0.216-0.864-2.52,2.376-1.152-1.872
			c0.144-0.936,0.36-1.944,0.576-2.88c-1.44,4.608-2.808,9.36-4.176,14.184v-5.976c0.288-0.792,0.576-1.584,0.792-2.376
			c-0.216-0.144-0.432-0.36-0.792-0.648v-3.024c0.36,0.504,0.648,1.008,0.936,1.584c0.144,0.216,0.216,0.504,0.36,0.72
			c1.152-3.528,2.304-6.48,3.312-8.784c-0.216,0.216-2.52,4.104-2.736,4.392c-1.296,1.008-0.432-1.368-1.728-0.36
			c-0.072,0.072-0.072,0.072-0.144,0.144v-7.2c0.36-0.792,0.936-1.512,0.648-1.512c-0.216,0.144-0.432,0.36-0.648,0.504v-9.936
			c0.072,0,0.072,0.072,0.072,0.072c0.936,0.288,2.016,1.296,2.88,1.8c-0.072,0.288,5.184,2.952,1.44-0.792
			c-1.224-1.152-1.944-1.728,0.36-1.08c-2.52-1.872-3.24-3.168-1.368-2.664c1.008,0,1.8,0.072-0.864-1.152
			c-1.368-0.432-1.728-1.944,0.288-1.368c1.224,0,1.08-0.432-2.016-2.16c-0.432-0.504-0.72-0.864-0.792-1.152v-0.216
			c0.144-0.36,0.864-0.36,2.088-0.072c3.168,1.296,9.072,8.928,9.576,12.672c1.224-0.576,0.432,0.864,1.08,0.288
			C211.734,46.944,212.382,46.584,213.03,46.296L213.03,46.296z M213.03,76.104c-0.072,0.072-0.072,0.144-0.072,0.216
			c-0.36,1.224-0.288,2.304,0.072,2.52V76.104L213.03,76.104z M198.27,32.76v-1.224C198.846,32.184,198.846,32.616,198.27,32.76z
			 M198.27,31.536v1.224c-0.288,0.072-0.864,0.072-1.656-0.072v-2.664C197.406,30.6,197.982,31.104,198.27,31.536L198.27,31.536z
			 M198.27,34.416v0.216C198.27,34.56,198.27,34.488,198.27,34.416L198.27,34.416z M198.27,43.128v9.936
			c-0.216,0.216-0.432,0.432-0.72,0.576c0.216,0.288,0.432,0.576,0.576,0.792c0.072-0.072,0.072-0.216,0.144-0.36v7.2
			c-0.36,0.432-0.72,0.72-0.936,0.864c0.36,0.504,0.648,0.936,0.936,1.44V66.6c-0.144-0.144-0.36-0.36-0.504-0.576
			c-0.432-0.648-0.792-1.224-1.152-1.656V61.2c0.072,0.072,0.072,0.072,0.144,0.144c0-0.432,0.072-0.864-0.144-0.648l0,0v-8.424
			v0.072c1.872-1.584,1.296-1.224,0.504-1.008c-0.144,0.144-0.36,0.216-0.504,0.36v-9.36
			C197.406,42.696,198.054,42.984,198.27,43.128L198.27,43.128z M198.27,69.624V75.6c-0.576,2.016-1.08,4.104-1.656,6.192V74.88
			C197.19,73.08,197.766,71.28,198.27,69.624z M196.614,30.024v2.664c-0.072,0-0.144,0-0.288-0.072v-2.808
			C196.47,29.88,196.542,29.952,196.614,30.024L196.614,30.024z M196.614,42.336v9.36c-0.072,0.072-0.144,0.144-0.288,0.216v-9.648
			C196.47,42.264,196.542,42.336,196.614,42.336L196.614,42.336z M196.614,52.272v8.424c-0.072,0.144-0.072,0.216-0.144,0.36
			c0.072,0,0.072,0.072,0.144,0.144v3.168c-0.072-0.144-0.144-0.288-0.288-0.432v-8.28c0.072,0,0.072,0,0.072,0
			c0-0.072,0-0.072-0.072-0.072v-3.6C196.47,52.056,196.542,52.2,196.614,52.272L196.614,52.272z M196.614,74.88v6.912
			c-0.072,0.36-0.144,0.648-0.288,1.008v-7.056C196.47,75.456,196.542,75.168,196.614,74.88z M196.326,29.808v2.808h-0.072
			c-0.504-0.216-0.936-0.504-1.296-0.648v-3.096c0.432,0.288,0.936,0.576,1.368,0.864V29.808L196.326,29.808z M196.326,42.264v9.648
			l0,0c0,0,0,0,0,0.072v3.6c-0.216-0.36-0.432-0.72-0.648-1.008c-0.072,0-0.144-0.072-0.144-0.144
			c-0.216-0.36-0.432-0.648-0.576-0.936v-3.672c0.072-0.072,0.216-0.144,0.288-0.216c-0.072,0-0.216,0.072-0.288,0.072v-7.992
			C195.39,41.904,195.894,42.048,196.326,42.264L196.326,42.264z M196.326,55.656v8.28c-0.288-0.432-0.576-0.792-0.792-1.152
			c-0.216,0.432-0.432,0.792-0.576,1.08c0,0.072,0,0.144,0,0.144V56.52C195.39,56.232,195.894,55.944,196.326,55.656L196.326,55.656
			z M196.326,75.744V82.8c-0.432,1.872-0.936,3.744-1.368,5.688v-7.92C195.39,78.912,195.894,77.328,196.326,75.744z
			 M194.958,28.872v3.096c-0.144-0.072-0.216-0.144-0.36-0.216v-3.024C194.742,28.8,194.814,28.872,194.958,28.872L194.958,28.872z
			 M194.958,41.688v7.992c-0.144,0.072-0.216,0.144-0.36,0.144v-8.208C194.742,41.616,194.814,41.688,194.958,41.688L194.958,41.688
			z M194.958,49.824v3.672c-0.144-0.144-0.288-0.288-0.36-0.36v-3.24c0.072,0,0.072,0.072,0.144,0.144
			C194.814,49.968,194.886,49.896,194.958,49.824L194.958,49.824z M194.958,56.52v7.488c-0.072,0.216-0.216,0.288-0.36,0.216
			c0,0.072,0,0.072,0,0.072v-2.16c0.072-0.072,0.072-0.144,0.072-0.216h-0.072v-5.184C194.742,56.664,194.814,56.592,194.958,56.52
			L194.958,56.52z M194.958,80.568v7.92c-0.144,0.432-0.216,0.864-0.36,1.296v-8.136C194.742,81.288,194.814,80.928,194.958,80.568z
			 M194.598,28.728v3.024c-0.648-0.288-1.152-0.576-1.584-0.72v-3.096C193.518,28.152,194.094,28.44,194.598,28.728L194.598,28.728z
			 M194.598,41.616v8.208l0,0c0,0,0,0,0,0.072v3.24c-0.864-1.152-1.008-0.864-0.864,0.072c0.936,2.16,0.144,2.232-0.72,1.368v-6.408
			l0,0c0.288-0.36,0.36-0.576,0-0.36v-4.752c0.144,0,0.288-0.072,0.432-0.072c-0.216-0.072-0.36-0.144-0.432-0.144v-1.8
			C193.518,41.184,194.022,41.4,194.598,41.616L194.598,41.616z M194.598,56.736v5.184c-0.072,0-0.072,0.144-0.072,0.432
			c0-0.072,0.072-0.144,0.072-0.216v2.16c-0.432,0.504-0.648,0.36-0.648-0.432c-0.144-0.144-0.216-0.288-0.36-0.432
			c-0.288,0.432-0.432,0.72-0.576,1.008v-7.056c0.072,0.072,0.144,0.144,0.288,0.216C193.734,57.312,194.166,57.024,194.598,56.736
			L194.598,56.736z M194.598,81.648v8.136c-0.576,2.304-1.08,4.608-1.584,6.912v-9.36C193.518,85.392,194.094,83.52,194.598,81.648
			L194.598,81.648z M193.014,140.328v-4.32c0.648,0.216,1.152,0.504,1.584,0.864c0,0.576-0.072,1.728-0.072,2.304
			c0,0.216-0.072,1.152-0.072,1.44c-0.432,0.216,0.432-0.072-0.36,0.072C193.734,140.544,193.374,140.4,193.014,140.328z
			 M193.014,27.936v3.096c-2.52-1.152-2.592-0.792-1.584,0.432c3.024,2.376,1.008,3.024-1.152,1.512
			c-0.288-0.216-0.648-0.36-0.936-0.576v-5.76C190.638,27,191.862,27.432,193.014,27.936L193.014,27.936z M193.014,41.04v1.8
			c-1.08-0.432-1.152-0.216-0.792,0.36c0.288,0,0.504-0.072,0.792-0.144v4.752c-0.072,0-0.144,0.072-0.288,0.072
			c0.072,0.072,0.144,0.144,0.216,0.216c0,0,0,0.072,0.072,0.072v6.408c-0.432-0.36-0.864-0.936-1.152-1.584
			c-2.448-4.248-2.088-3.096-1.872-1.728c0.648,1.512,0.36,1.656-0.648,0.864v-7.776c0.216-0.072,0.432-0.216,0.648-0.288
			c-0.216-0.144-0.432-0.288-0.648-0.36V40.32c0.504,0,1.08,0.072,1.728,0.144C191.574,40.536,192.222,40.752,193.014,41.04
			L193.014,41.04z M193.014,57.384c-1.152-1.008-2.376-2.016-3.672-2.88v5.688c0.144,0.144,0.216,0.216,0.288,0.288
			c-0.072,0.072-0.216,0.144-0.288,0.288v5.472c0.576-0.648,1.368-1.584,2.232-2.736c-1.512,3.024-0.72,1.944,0.864,0.072
			c-0.072,1.008-0.216,1.944,0.576,0.864V57.384L193.014,57.384z M193.014,87.336v9.36c-1.44,6.336-2.664,12.816-3.672,19.224
			v-14.184C190.494,96.84,191.718,92.016,193.014,87.336L193.014,87.336z M193.014,136.008v4.32c-1.152-0.36-2.376-0.576-3.672-0.72
			v-4.32C190.926,135.504,192.078,135.72,193.014,136.008z M189.342,26.64v5.76c-3.312-1.944-2.304-0.936-1.224,0.36
			c2.448,1.872,0.576,2.088-3.744,0.504c0.144,0.072,0.144,0.216,0,0.36c1.944,1.512,1.152,1.296-0.792,0.792v-1.44
			c0.072,0,0.072,0,0.144,0c-0.072,0-0.072,0-0.144,0v-6.984c1.224,0,2.448,0.072,3.672,0.144
			C187.974,26.28,188.622,26.496,189.342,26.64L189.342,26.64z M189.342,40.32v3.384c-1.008-0.504-0.648,0-0.072,0.72
			c0.072-0.072,0.072-0.072,0.072-0.072v7.776c-0.792-0.72-1.944-2.16-3.456-4.104c1.584,3.384,0.576,2.232-1.44,0
			c-0.072,0.648-0.144,1.296-0.36,1.368c-0.144,0.072-0.288,0.072-0.504,0v-8.928c1.872,0.936,3.24,2.016,4.176,2.52
			C189.99,44.136,182.646,39.96,189.342,40.32L189.342,40.32z M189.342,54.504c-1.728-1.368-3.672-2.592-5.76-3.816v5.04
			c0.072,0,0.36,0.36,0.72,0.792c1.944,4.032,2.016,2.88,2.16,1.584c1.728,1.944,2.592,2.952,1.224,0
			c0.576,0.792,1.152,1.512,1.656,2.088V54.504L189.342,54.504z M189.342,60.768v5.472c-1.224,1.44-1.584,1.512-0.864-0.144
			c0.36-1.224,0.72-2.304-1.368,1.44c-0.936,1.872-2.52,2.808-1.224,0.072c0.36-1.368,0.072-1.224-2.304,2.448V67.32
			c1.008-1.44,2.232-2.952,3.6-4.464C187.902,62.136,188.55,61.416,189.342,60.768L189.342,60.768z M189.342,101.736v14.184
			c-0.936,6.48-1.584,12.888-1.872,19.152c0.648,0.072,1.296,0.144,1.872,0.216v4.32c-0.936-0.144-1.872-0.216-2.952-0.36
			c-0.36-0.072-1.152-0.216-1.584-0.36l0,0c-0.432-0.144-0.792-0.288-1.224-0.504v-3.456c0.216,0,0.36,0,0.576,0
			C184.95,124.128,186.966,112.68,189.342,101.736L189.342,101.736z M183.582,58.608v-2.736c0.072,0.216,0.288,0.792,0.792,1.8
			C184.302,58.68,184.086,58.968,183.582,58.608L183.582,58.608z M183.582,36.288V36C183.654,36.144,183.654,36.216,183.582,36.288z
			 M183.582,25.992v6.984c0,0-0.072,0-0.072-0.072c0,0.072,0.072,0.072,0.072,0.072l0,0v1.44c-0.216-0.072-0.504-0.144-0.792-0.216
			c0.36,0.72,0.72,1.368,0.792,1.8v0.288c-0.072,0.216-0.504,0.072-1.584-0.576h-0.072v-9.648
			C182.502,26.064,183.078,25.992,183.582,25.992L183.582,25.992z M183.582,40.464v8.928c-0.36-0.144-0.936-0.432-1.656-0.864
			v-2.304c0,0,0.072,0.072,0.144,0.144c0-0.072-0.072-0.072-0.072-0.144c0-0.072-0.072-0.072-0.072-0.144v-6.336
			C182.502,39.96,183.078,40.176,183.582,40.464L183.582,40.464z M183.582,50.688v5.04c0,0,0,0.072,0,0.144v2.736
			c-0.36-0.288-0.936-1.152-1.656-2.592v-6.192C182.502,50.112,183.078,50.4,183.582,50.688L183.582,50.688z M183.582,67.32v2.736
			c-0.144,0.216-0.36,0.504-0.504,0.864c-0.504,0.504-0.864,0.864-1.152,1.08v-1.728c0.072-0.144,0.144-0.288,0.216-0.504
			C182.574,68.976,183.078,68.184,183.582,67.32L183.582,67.32z M183.582,134.928v3.456c-0.576-0.288-1.152-0.576-1.656-0.936
			V88.704c1.44,15.048,1.872,31.248,0.36,46.224c0.288,0,0.576-0.072,0.864-0.072C183.294,134.856,183.438,134.856,183.582,134.928z
			 M181.926,26.064v9.648c-0.216,0.144-0.432,0.216-0.72,0.36c1.152,1.944,0.864,2.52-0.864,1.656V34.92
			c0.216,0.072,0.432,0.072,0.648,0.144l0,0c-0.144-0.144-0.36-0.288-0.648-0.432v-8.424
			C180.918,26.136,181.422,26.064,181.926,26.064L181.926,26.064z M181.926,39.744v6.336c-0.072,0-0.072-0.072-0.144-0.072
			c-0.072,0,0,0.072,0.144,0.216v2.304c0,0,0,0-0.072-0.072c-0.216,0.648-0.72,0.36-1.512-0.792v-8.496
			c0.144,0.072,0.288,0.144,0.432,0.216C181.134,39.456,181.566,39.6,181.926,39.744L181.926,39.744z M181.926,49.824
			c-0.216-0.144-0.432-0.216-0.576-0.288c-0.216-0.072-0.432-0.144-0.648-0.216c0.072-0.288-0.144-0.72-0.36-1.08v7.992
			c1.152,0.432,0.504-1.8,1.008-1.368c0.216,0.432,0.36,0.792,0.576,1.152V49.824L181.926,49.824z M181.926,70.272V72
			C181.062,72.72,181.134,72,181.926,70.272L181.926,70.272z M181.926,88.704v48.744c-0.576-0.288-1.08-0.648-1.584-1.08V75.6
			C180.99,79.848,181.494,84.24,181.926,88.704z M180.342,26.208v8.424c0-0.072-0.072-0.072-0.072-0.144
			c-0.864,0.216-0.576,0.288,0.072,0.432v2.808c-0.144-0.072-0.288-0.144-0.432-0.288c-0.288,0.144-0.72,0.288-1.224,0.504V37.08
			c0.216,0,0.432,0,0.576,0c-0.072-0.072-0.216-0.144-0.288-0.216c-0.072,0-0.216,0.072-0.288,0.072V26.424
			C179.262,26.352,179.838,26.28,180.342,26.208L180.342,26.208z M180.342,39.168v8.496c-0.072-0.144-0.216-0.288-0.288-0.504
			c-0.072,0-0.072,0-0.072-0.072c-0.36,0,0.072,0.576,0.36,1.152v7.992c-0.288-0.072-0.792-0.432-1.44-1.224
			c-0.072,0-0.144-0.072-0.216-0.072V38.304C179.262,38.592,179.838,38.88,180.342,39.168L180.342,39.168z M180.342,75.6v60.768
			c-0.576-0.504-1.152-1.008-1.656-1.584v-13.608c0.576-8.784,0.504-17.568,0-26.352v-29.88
			C179.334,68.328,179.838,71.928,180.342,75.6z M178.686,26.424v10.512c-0.144,0.072-0.36,0.144-0.576,0.144
			c0.216,0,0.432,0,0.576,0v0.864c-0.144,0.072-0.288,0.072-0.432,0.144c0.144,0.072,0.216,0.072,0.288,0.144
			c0.072,0,0.144,0,0.144,0.072v16.632c-0.792-0.648-1.584-1.296-2.376-1.944c0.864,3.672,1.656,7.704,2.376,11.952v29.88
			c-0.792-14.832-2.88-29.664-5.472-44.208c-0.216-0.216-0.72,0.648-0.936,0.432c0.216,0.864,0.072,0.144,0.216,1.008
			c0,1.728,0.936,3.672,0.936,5.4c0.936,4.104-2.088,0.72-1.944,1.584c2.592,3.6,2.664,4.968,0.576,3.672
			c-1.8-2.52-1.368-1.8-1.152-0.72c2.592,3.816,1.368,3.096,0,2.376c0.648,2.376,1.08,3.6-0.864,0.792
			c1.584,4.392,1.656,6.408,0.144,4.176c-1.008-0.864-1.8-1.728,0.288,2.088c1.08,1.728,0.792,3.672-1.008,1.152
			c-0.216-0.216-0.432-0.36-0.576-0.432V39.456c0-0.072,0-0.144,0-0.144c0.072-0.144,0.216-0.216,0.288-0.36
			c-0.144-0.072-0.216-0.216-0.288-0.288V21.96c1.224,1.512,2.16,3.24,2.736,5.256c0,0.576-0.072,1.152-0.144,1.728
			c0.288-0.288,0.576-0.504,0.864-0.72C174.51,27.36,176.598,26.784,178.686,26.424L178.686,26.424z M178.686,121.176v13.608
			c-0.432-0.576-0.792-1.08-1.152-1.656C178.11,129.168,178.47,125.208,178.686,121.176L178.686,121.176z M168.894,77.616
			c1.512,2.088,2.232,2.088,1.656-0.792c-0.936-1.8-1.44-3.024-1.656-3.744V77.616z M168.894,21.96v16.704
			c-0.144-0.144-0.216-0.216-0.288-0.36c0.072,0.432,0.144,0.792,0.216,1.152c0,0,0,0,0.072,0v32.688
			c-0.288-0.072-0.288,0.216,0,0.936v4.536c-0.144-0.072-0.216-0.216-0.288-0.36c-0.936-1.584-1.728-3.312-2.304-5.256
			c-0.288,0.216-0.792-0.144-1.512-1.008v-4.608c0.144,0.432,0.432,0.936,0.648,1.512c-0.072-1.008-0.144-1.944-0.144-2.952
			c-0.072-0.072-0.144-0.216-0.288-0.36c-0.072-0.072-0.144-0.144-0.216-0.216v-1.44c0.36,1.008,0.648,1.152,0.432-1.872
			l-0.072-1.944c0-0.432,0.288-0.288-0.144-0.288c-0.072,0.432-0.144,0.72-0.216,0.864V18.432c0.216,0.072,0.36,0.216,0.576,0.288
			C166.734,19.656,167.886,20.736,168.894,21.96z M162.99,29.448c0.216,0.072,0.432,0.072,0.648,0.072
			c0.216,0.072-0.216,0.216-0.648,0.36v38.16c0.288,0.648,0.648,1.296,1.008,1.872c0.288,0.432,0.504,0.792,0.792,1.08v-4.608
			c-1.008-2.304-0.864-2.592,0-2.016v-1.44c-0.288-0.864-0.648-2.448-0.792-3.312l0.072-0.504c0.072,0,0.432,0.936,0.72,0.576
			V18.432c-0.576-0.288-1.224-0.576-1.8-0.792v9.792c0.504,0.216,0.936,0.288,0,0.36V29.448z M162.198,29.448
			c0.288,0,0.504,0,0.792,0v-1.656c-0.36,0-0.864,0-1.512,0v19.944c0.216-0.144,0.504-0.36,0.792-0.72
			c0.36,0.288,0.504,0.36,0.144,0.648l-0.432,0.288c-0.216,0.072-0.36,0.216-0.504,0.288v16.056
			c0.432,1.296,0.936,2.592,1.512,3.744V29.88c-0.072,0.072-0.144,0.072-0.216,0.072C162.63,29.808,162.414,29.592,162.198,29.448
			L162.198,29.448z M162.99,17.64v9.792c-0.072-0.072-0.144-0.072-0.216-0.072c-0.504-0.072-0.936-0.072-1.296-0.072v-1.296
			c0-0.072,0.072-0.072,0.072-0.072s-0.072,0-0.072-0.072v-1.08c0.216,0,0.432,0,0.72,0c-0.288-0.072-0.504-0.144-0.72-0.216v-2.52
			V21.96v-4.824C161.982,17.28,162.486,17.424,162.99,17.64z M161.478,17.136v4.824c-0.144-0.072-0.792-0.216-2.448-0.432v-1.512
			c1.368-0.288,1.656-0.576,0-1.008v-2.376C159.894,16.776,160.686,16.92,161.478,17.136L161.478,17.136z M161.478,22.032v2.52
			c-1.08-0.36-1.872-0.72-2.448-1.008v-1.08c0.216-0.072,0.504-0.072,0.864-0.072C160.686,22.248,161.334,22.176,161.478,22.032
			L161.478,22.032z M161.478,24.768v1.08C159.678,25.128,158.67,24.696,161.478,24.768L161.478,24.768z M161.478,25.992v1.296
			C158.166,27.072,159.678,26.568,161.478,25.992L161.478,25.992z M161.478,27.792v19.944c-0.648,0.36-0.864-0.216-0.864-0.792
			c0,0.072-0.288,1.368-0.288,2.016c0.072,0,0.216,0.072,0.36-0.072c0.36-0.216,0.576-0.432,0.792-0.648v16.056
			c-0.288-0.936-0.576-1.944-0.792-3.024l-0.072-0.072c-0.576,2.304-0.792,3.6-1.584,0.576V50.328
			c0.216-0.216,0.36-0.504,0.504-0.648c0.288-0.288-0.072-0.432-0.072-0.792l-0.072-0.576c0-0.36-0.072-0.576-0.36-0.576v-20.16
			c0.36,0.144,0.792,0.36,1.152,0.504c0.216-0.072,0.504-0.144,0.864-0.288C161.19,27.792,161.334,27.792,161.478,27.792z
			 M159.03,16.632v2.376c-0.432-0.072-1.152-0.216-1.944-0.432V16.56c0.216-0.072,0.432-0.072,0.648-0.072
			C158.166,16.56,158.598,16.56,159.03,16.632L159.03,16.632z M159.03,20.016v1.512c-0.144,0-0.36-0.072-0.576-0.072
			c-0.576,0-1.08-0.144-1.368-0.288v-0.936C157.446,20.088,158.094,20.016,159.03,20.016L159.03,20.016L159.03,20.016z
			 M159.03,22.464v1.08C157.95,22.968,157.878,22.536,159.03,22.464L159.03,22.464z M159.03,27.576v20.16
			c-0.072-0.072-0.144-0.072-0.216-0.072c-0.432,0-0.36,0.432-0.36,0.864v0.576c0,0.288-0.144,1.296,0.144,1.44
			c0.144,0.072,0.288-0.072,0.432-0.216v11.448c0-0.144-0.072-0.216-0.072-0.432c-0.432,3.672-1.224,5.616-1.872,4.896V52.128
			c0.288-0.864,0.216-1.584,0-1.656v-23.76C157.734,27,158.382,27.288,159.03,27.576z M157.086,16.56v2.016
			c-0.432-0.072-0.936-0.144-1.44-0.216c-0.144-0.072-0.216-0.144-0.36-0.216v-1.44C155.718,16.632,156.294,16.56,157.086,16.56
			L157.086,16.56z M157.086,20.232v0.936C156.51,20.88,156.438,20.52,157.086,20.232L157.086,20.232z M157.086,26.712v23.76
			c-0.072-0.072-0.144,0-0.216,0c0,0.36,0.144,1.584,0.144,1.8c0-0.072,0-0.072,0.072-0.144V66.24
			c-0.216-0.216-0.36-0.576-0.504-1.224c-0.864-1.368-1.368-2.592-0.864,1.944c0.216,1.008-0.072,1.872-0.432,2.16V54.936
			c0.432-0.432,0.792-0.864,1.224-1.296c0-0.072,0-0.144,0-0.144c0.072-0.144,0.072-0.288,0.144-0.432
			c-0.144,0-0.36-0.144-0.648-0.36c-0.288,0.504-0.504,0.936-0.72,1.224V39.456c0.576-0.936,0.36-0.792,0-0.648V32.4
			c0.072,0.072,0.144,0.072,0.216,0.072c1.008-0.648,0.576-0.504-0.216-0.432v-5.976C155.862,26.28,156.438,26.496,157.086,26.712z
			 M155.286,16.704v1.44C154.062,17.424,154.134,16.92,155.286,16.704L155.286,16.704z M155.286,26.064v5.976c0,0-0.072,0-0.144,0
			c-0.216,0.072-0.432,0.216-0.648,0.288c0.288,0.072,0.576,0.072,0.792,0.072v6.408c-0.216,0.072-0.432,0.216-0.576,0.144
			c-0.288-0.216-0.36-0.216-0.504-0.144V25.704C154.566,25.848,154.926,25.992,155.286,26.064L155.286,26.064z M155.286,39.456
			v14.472c-0.576,0.864-0.864,0.864-1.08,0.432V40.32c0.072,0,0.072-0.072,0.144-0.072l0.648-0.36
			C155.142,39.744,155.214,39.6,155.286,39.456L155.286,39.456z M155.286,54.936V69.12c-0.288,0.288-0.72,0.216-1.08-0.432V56.232
			C154.566,55.8,154.926,55.368,155.286,54.936z M154.206,25.704v13.104c-0.144,0.072-0.216,0.144-0.36,0.216l-0.504,0.432
			c-0.36,0.216-0.864,1.296-0.504,1.584c0.36,0.216,0.936-0.432,1.368-0.72v14.04c-0.072-0.072-0.072-0.144-0.144-0.216
			c-0.216,0.36-0.432,0.144-0.72-0.936c-0.216,0.144-0.432,0.288-0.648,0.432c-0.648,3.96-1.8,5.184-2.448,2.304
			c-0.36-0.576-0.648-1.08-0.864-1.296c-0.144,0.072-0.216,0.144-0.36,0.216c-0.072,0.432,0,1.44,0.216,3.312
			c0.504,2.52-1.296,4.176-2.304,0.504c-0.216-1.44-2.304,0.072-3.168,5.904c-1.152,3.456-1.944,1.512-2.376-1.656
			c-0.504-2.88,0.648-6.264,1.656-9.432c-4.608,7.488-4.824,6.048-3.24,2.592c0.936-2.088,2.592-4.896,4.248-6.984
			c0.648-0.288,1.368-1.008,2.016-1.296c1.224-1.728,2.952-3.672,4.536-5.184c-0.216,0.144-0.36-0.144-0.216-0.504
			c0.432-0.936,0.648-1.584,0.792-1.872c0.216-0.792,0-1.224-1.152,0.72c-2.376,4.896-2.592,3.096-2.952,1.008
			c-2.376,1.872-3.528,2.88-1.8-0.72c-3.96,3.888-6.48,4.824-5.112,1.944c0.144-1.656,0.504-3.024-2.232,1.296
			c-1.152,2.16-3.816,2.592-2.376-0.792c0.072-1.944-0.576-1.8-4.392,3.168c-3.168,2.16-3.672,1.008-2.304-2.304
			c1.512-2.664,3.888-5.112,7.128-7.2c4.608-2.52,9.936-4.248,16.416-4.968c0.072-0.288,0.288-0.648,0.432-1.008
			c-2.304,0.144-3.456,0.216-0.864-1.152c-4.104,0.648-6.12,0.216-4.032-0.864c0.792-0.936,1.584-1.584-1.944-0.216
			c-1.656,0.792-3.528-0.072-1.224-1.368c0.864-1.08,0.36-1.224-4.032,0.072c-2.952-0.072-2.808-0.936-0.576-2.232
			c2.088-0.936,4.536-1.368,7.488-1.224C149.814,24.624,151.974,25.056,154.206,25.704L154.206,25.704z M154.206,56.232
			c-1.584,1.944-2.808,3.96-3.744,6.048c-1.008,2.952-1.296,5.832-0.864,8.568c0.864,3.168,1.8,3.816,2.88,0.792
			c-0.216-5.4,0.216-5.832,1.224-4.248c0.144,0.576,0.288,1.008,0.504,1.296V56.232z"/>
		<path fill="#FFCB05" d="M247.806,75.888v1.944c-0.216,12.96-4.896,26.568-11.952,36.792c-0.72,1.008-0.576,0.792-1.368,1.728
			c-1.512-1.512-2.52-3.384-3.096-5.256c-1.224-5.544-1.872-8.784-3.744-13.248c-2.52-4.536-5.616-8.208-11.448-9.792
			c-3.816-0.504-4.536-0.504-6.264-0.36c-2.16,0.144-5.112,1.08-7.848,2.808c-0.432,0.504-0.936,0.936-1.368,1.296v-2.376
			c0.792-0.216,1.656-1.008,2.592-2.376l0.072-0.072c0-0.072,0,0,0-0.144c0.216-0.288,0.36-0.576,0.576-0.864
			c0.144-0.432,0.36-0.792,0.504-1.08c1.44-2.952,2.448-5.904,3.096-9l0.216-1.08c0.144-0.792,0.288-1.584,0.432-2.376
			c0.216,0.144,0.504,0.216,0.792,0.216c0.072,0.288,0.144,0.432,0.288,0.648c0,0.072,0.072,0.144,0.144,0.288
			c0.504,0.72,0.36,0.936,0.576,1.944c0.144,0.576,0.36,1.008,0.72,1.296c0.144,0.144,0.288,0.288,0.504,0.36
			c-0.144,1.152-0.072,2.664,1.08,3.24c0.288,0.144,0.504,0.216,0.792,0.216c-0.072,0.432-0.216,0.936-0.216,1.368
			c0.216,3.168,1.224,4.248,2.88,3.528c0.864-0.288,1.656-1.584,2.376-3.672l0.072-0.144l0,0c0.072-0.36,0.144-0.792,0.288-1.296
			c0.072-0.432,0.216-0.864,0.288-1.296c0.36-2.304,0.432-4.68,0.288-7.2v-0.072c-0.288-1.8-0.648-3.528-1.152-5.256
			c-0.144-0.576-0.36-1.152-0.504-1.728c0.216,0.144,0.504,0.144,0.864,0.072l0,0c0.288,0.36,0.504,0.648,0.72,0.864
			c0.432,0.432,0.936,0.648,1.368,0.72c0.216,0,0.432,0,0.648,0c0.216,0.504,0.576,0.936,0.864,1.152
			c0.432,0.36,0.936,0.504,1.44,0.432c0.36,0,0.72-0.144,0.936-0.288c0.072,0.072,0.072,0.216,0.144,0.288
			c0,0.072,0.216,0.432,0.216,0.504c1.728,2.232,3.096,2.52,4.176,1.08c0.576-0.72,0.72-2.16,0.432-4.176v-0.144l0,0
			c-0.072-0.36-0.144-0.792-0.288-1.152c-0.072-0.432-0.216-0.792-0.36-1.224c-0.648-1.944-1.656-3.816-3.024-5.616l-0.072-0.144
			c-1.368-1.44-2.88-2.736-4.536-3.888c-0.648-0.432-1.368-0.792-2.088-1.152c0.144-0.072,0.288-0.216,0.432-0.288
			c0.144-0.072,0.216-0.144,0.288-0.288c0.36,0.072,0.648,0.144,0.936,0.072c0.432-0.072,0.792-0.216,1.152-0.504
			c0.216-0.216,0.36-0.432,0.504-0.792c0.144,0.072,0.36,0.144,0.432,0.144c1.872,0.216,2.88-0.36,3.168-1.584l0,0
			c0.216-0.864-0.216-1.872-1.152-3.024l-0.144-0.144c-0.72-0.648-1.512-1.152-2.448-1.512c-0.864-0.36-1.872-0.576-2.952-0.72
			h-0.144c-1.512,0-2.808,0.216-4.176,0.576c-1.08,0.36-2.232,0.792-3.528,1.512c0-0.072-0.072-0.072-0.072-0.072
			c-0.072-0.216-0.216-0.504-0.288-0.72c-0.288-0.72-0.648-1.44-1.08-2.232c-2.232-3.96-6.264-8.496-8.856-9.504l-0.216-0.072l0,0
			V11.736c27.288,8.64,47.088,33.912,47.088,63.72C247.806,75.6,247.806,75.744,247.806,75.888L247.806,75.888z M200.718,86.4
			L200.718,86.4c0.216,0.072,0.216,0,0.144-0.072c-0.072,0-0.072,0-0.144,0V86.4z M189.414,96.12
			c1.008-4.248,2.088-8.352,3.168-12.312c0.792-3.096,1.656-6.12,2.52-8.928c0.72-2.448,1.44-4.752,2.16-6.912
			c-0.216-0.144-0.432-0.36-0.648-0.648c0,0-0.144-0.216-0.216-0.216c-0.216-0.432-0.504-0.792-0.792-1.296
			c-0.072,0.072-0.144,0.072-0.288,0.144s-0.288,0.216-0.432,0.288l0,0c-0.432,0.144-0.864,0.144-1.296,0
			c-0.576,0.504-1.08,0.576-1.584,0.36c-0.36,0.36-0.792,0.576-1.152,0.576c-0.504,0.576-0.936,1.008-1.224,1.296
			c-0.072,0.072-0.144,0.072-0.216,0.144V96.12L189.414,96.12z M200.718,11.736v21.312c-0.144,0-0.288-0.072-0.432-0.072
			c0-0.216,0-0.36,0-0.576c-0.072-0.936-1.08-2.232-2.952-3.672l-0.072-0.072l0,0h-0.072c-0.36-0.288-0.792-0.504-1.224-0.72
			c-0.432-0.288-0.864-0.504-1.224-0.72c-1.656-0.792-3.384-1.44-5.328-1.944V9.216C193.302,9.792,197.118,10.584,200.718,11.736
			L200.718,11.736z M200.718,86.328V86.4C200.502,86.328,200.574,86.328,200.718,86.328L200.718,86.328z M200.718,89.424V91.8
			c-3.672,3.672-5.472,6.912-6.048,15.696c0.864,11.16,0.648,18.288-0.216,28.152c-1.44-0.36-1.944-0.936-5.04-1.224v-2.592
			c0.792-10.728,2.52-21.528,4.896-32.832c1.296-6.192,2.808-12.384,4.392-18.576c0.504-1.872,1.008-3.672,1.512-5.472
			c0,0.144,0.072,0.36,0.144,0.504c-0.288,0.936-0.504,1.656-0.576,2.16c-0.216,1.224,0.216,1.656,0.216,1.728
			c-0.432,0.864-0.72,1.8-0.72,2.376c-0.072,0.576,0.072,1.008,0.36,1.368c0.072,0.144,0.216,0.288,0.288,0.36
			c-0.072,0.216-0.216,0.504-0.36,0.792c-0.072,0.072-0.288,0.576-0.36,0.792c-0.864,2.664-0.504,4.104,0.72,4.464
			C200.214,89.568,200.43,89.496,200.718,89.424L200.718,89.424z M189.414,38.952v-3.024c0.288-0.072,0.504-0.144,0.648-0.288
			c0.216-0.216,0.36-0.36,0.504-0.504c0.72,0.36,1.512,0.504,2.016,0.432c0.576-0.072,1.08-0.288,1.44-0.72
			c0.288-0.288,0.504-0.72,0.504-1.152c0.288,0.144,0.648,0.36,1.008,0.504c0,0,0.36,0.144,0.432,0.144
			c0.216,0.072,0.504,0.144,0.72,0.144c-0.072,0.72,0.288,1.584,1.152,2.52c0.072,0.072,0.432,0.36,0.432,0.36
			c0.072,0,0.072,0.072,0.072,0.072c-0.072,0.216-0.144,0.36-0.216,0.648c-0.072,0.36-0.072,0.792,0.144,1.224
			c0.144,0.36,0.432,0.72,0.792,1.08c0,0.072,0,0.216,0,0.288c-0.072,0.432,0.072,0.864,0.36,1.296c0,0.072,0.072,0.144,0.072,0.216
			c-0.072-0.072-0.216-0.144-0.288-0.144c-0.144-0.144-0.36-0.216-0.504-0.288c-0.288-0.144-0.576-0.288-0.936-0.432l0,0
			c-1.8-0.792-4.968-1.872-6.336-2.16l-0.144-0.072C190.566,39.024,189.99,38.952,189.414,38.952z M184.806,111.744
			c0.072,2.736,0.072,5.472,0.072,8.208c1.224-7.992,2.808-16.128,4.536-23.832V68.616c-0.288,0.216-0.576,0.36-0.936,0.432
			c-0.144,0.072-0.288,0.072-0.36,0.072c-0.432,0.72-1.008,1.296-1.368,1.584c-0.504,0.288-0.936,0.432-1.44,0.36
			c-0.144,0-0.216,0-0.36-0.072c-0.144,0.288-0.36,0.576-0.576,0.936c0,0,0,0.072-0.072,0.072v27.504
			C184.59,103.608,184.734,107.64,184.806,111.744L184.806,111.744z M189.414,9.216v16.056c-0.648-0.144-1.296-0.288-1.872-0.432
			h-0.144c-1.008-0.144-2.016-0.216-3.096-0.216V8.712C186.102,8.856,187.83,9,189.414,9.216L189.414,9.216z M189.414,35.928v3.024
			c-2.088-0.072-3.312,0.36-3.96,0.936c-0.36-0.216-0.72-0.36-1.152-0.576v-1.368c0.288-0.144,0.504-0.36,0.648-0.576
			c0.144-0.288,0.216-0.576,0.216-0.792c0.648,0,1.152-0.144,1.584-0.648c0,0,0-0.072,0.072-0.072
			c0.72,0.144,1.296,0.216,1.728,0.216C188.91,36.072,189.198,36.072,189.414,35.928L189.414,35.928z M189.414,131.832v2.592
			c0,0-0.072,0-0.144,0C189.342,133.56,189.414,132.696,189.414,131.832L189.414,131.832z M184.302,63.936v-3.384
			c0.216-0.072,0.36-0.144,0.504-0.216c0.72,0.792,1.368,0.864,2.016,0.576c0.072,0.072,0.072,0.144,0.144,0.144
			c-0.288,0.288-0.576,0.576-0.936,0.936l0,0l0,0c-0.288,0.36-0.576,0.648-0.936,1.008C184.878,63.36,184.59,63.648,184.302,63.936z
			 M184.302,72c0,0.072-0.072,0.144-0.072,0.144c-1.008,1.08-1.8,1.728-2.52,1.872c1.152,8.064,2.088,16.776,2.592,25.488V72
			L184.302,72z M184.302,8.712v15.912c-1.512,0-3.096,0.072-4.608,0.288c-2.232,0.288-4.464,0.792-6.696,1.656
			c-0.576-1.872-1.44-3.456-2.52-4.896c-2.304-3.024-4.752-4.752-8.28-5.76c-2.16-0.576-6.552-1.44-8.568,0
			c-2.232,1.656-0.216,3.528,1.656,4.176c-0.144,0.216-0.216,0.504-0.216,0.792c0,0.576,0.216,1.08,0.648,1.44
			c0.288,0.216,0.576,0.432,0.936,0.576c0,0.144,0,0.288,0.072,0.504h-0.072c0.144,0.504,0.432,0.936,0.936,1.296
			c0.792,0.648,0.36,0.144,0.648,1.008c-1.368-0.504-2.736-1.008-4.032-1.368c-2.52-0.792-5.184-1.368-7.776-1.296
			c-0.504,0-0.864,0-1.224,0c-1.872,0.144-8.712,1.224-8.28,4.536c0.36,2.376,3.456,2.16,5.184,1.728
			c0.072,0.792,0.72,1.512,1.512,1.728c0.504,0.216,1.296,0.288,2.088,0.072c0.216,0.36,0.576,0.648,0.936,0.864
			c-1.224,0.288-2.448,0.576-3.6,0.936c-3.24,1.008-6.552,2.304-9.288,4.32c-2.52,1.8-4.752,4.104-6.264,6.768
			c0,0-0.072,0.144-0.072,0.216c-0.936,2.16-1.08,3.816-0.36,4.752c0.936,1.152,2.592,1.008,5.04-0.576c0,0,0.36-0.288,0.36-0.36
			c0.432-0.576,0.864-1.152,1.224-1.584c0,0.072,0.072,0.144,0.072,0.144l0,0c0.288,0.648,0.72,1.08,1.296,1.224
			c0.504,0.216,1.008,0.216,1.512,0.072c0.72-0.216,1.584-0.864,2.232-1.728c0.288,0.216,0.648,0.432,1.08,0.504
			c0.432,0.072,1.008,0,1.584-0.288c0.576-0.216,1.296-0.648,2.088-1.296c0.072,0.072,0.216,0.144,0.288,0.216
			c0.792,0.36,1.512,0.072,2.376-0.432c0,0.072,0.072,0.144,0.144,0.216c-0.504,0.576-0.936,1.152-1.296,1.728
			c-0.36,0.216-0.72,0.432-1.008,0.648c-0.288,0.216-0.504,0.432-0.72,0.504c-0.072,0-0.432,0.36-0.432,0.36h-0.072l0,0
			c-0.216,0.288-0.432,0.648-0.72,1.008c-0.288,0.36-0.576,0.72-0.72,1.008c-1.224,1.728-2.304,3.672-3.024,5.328
			c-0.576,1.224-0.936,2.304-1.008,2.952c-0.144,1.08,0.288,1.8,1.368,2.016c0.288,0.072,0.648,0.072,1.008-0.072
			c-0.072,0.936-0.072,1.872,0.144,2.808l0,0c0.144,1.512,0.504,2.808,0.864,3.528c0.288,0.576,0.72,1.008,1.224,1.152
			c0.72,0.288,1.44,0.144,2.088-0.432c1.008-1.44,1.08-1.728,1.296-2.592c0.216-1.656,0.576-2.88,0.864-3.744
			c0.36,0.504,0.72,0.792,1.08,1.008c0.504,0.288,1.008,0.36,1.512,0.288c-0.216,0.648-0.432,1.368-0.576,2.088
			c-0.504,2.232-1.08,9.288,2.16,10.584c1.512,0.576,2.664-0.288,3.6-2.88c0.144-0.432,0.072-1.008,0-1.512
			c0.504,0.216,1.08,0.288,1.584,0.072c1.152-0.36,1.656-1.584,1.8-2.736c0.216,0,0.504-0.072,0.792-0.216
			c0.432-0.216,0.792-0.576,1.08-1.152c0.216-0.36,0.432-0.864,0.576-1.44c0.144-0.072,0.216-0.072,0.288-0.072
			c0.864,2.664,2.088,5.832,4.32,7.776c0.216,0.216,0.432,0.36,0.648,0.504c0.216,0.72,0.504,1.368,0.792,2.016
			c0.72,1.656,2.52,5.472,4.68,5.256c1.512-0.072,2.088-1.368,1.512-4.104c-0.072-0.504-0.36-0.936-0.576-1.296
			c0.216-0.072,0.432-0.216,0.648-0.432c0.36-0.36,0.504-0.792,0.576-1.296c0-0.576-0.144-1.368-0.432-2.088
			c0.072-0.144,0.216-0.288,0.288-0.432c0.576-0.936,0.216-2.16,0-3.168c0.504-0.504,1.08-5.112,1.512-1.944
			c0.432,2.88,0.792,5.832,1.152,8.712c2.376,19.872,3.168,37.368,0.792,56.232c-0.648-0.792-0.864-1.728-1.296-3.312
			c-1.584-5.544-1.728-8.28-1.152-13.464c0.216-1.944,1.08-3.672,0.792-8.064c-0.216-3.6-0.936-7.272-2.304-9.72
			c-1.224-2.304-3.312-4.176-6.048-5.832c-2.448-1.44-6.264-1.872-8.784-1.584c-6.768,1.656-10.296,5.328-11.808,13.176
			c-0.072,0.936-0.432,5.4-0.216,6.336c0.072,10.368-1.296,15.12-1.944,23.904l-9.072-26.424l-2.16-5.472
			c-2.16-4.68-5.112-7.344-9.504-9.72c-2.664-1.512-5.976-2.088-8.784-2.016c-0.144-0.864-0.288-1.728-0.432-2.592
			c-0.504-3.528-0.72-7.128-0.72-10.8c0-36.936,30.312-66.816,67.608-66.816C181.638,8.64,183.006,8.64,184.302,8.712L184.302,8.712
			z M184.302,37.944c-0.216,0.144-0.504,0.216-0.792,0.216c-0.072,0.216-0.144,0.432-0.216,0.648c0.36,0.144,0.72,0.288,1.008,0.504
			V37.944L184.302,37.944z M184.302,60.552c-0.216,0-0.432,0-0.72-0.072c-0.504-0.072-0.936-0.288-1.296-0.72
			c-0.36-0.36-0.72-0.936-1.152-1.728c-0.648,0.216-1.368,0-2.304-0.72c0.72,3.6,1.44,7.488,2.088,11.664
			c0.936-1.656,2.016-3.312,3.384-4.968c0,0,0,0,0-0.072V60.552z"/>
		<path fill="#ED174C" d="M305.766,144.432v-10.224c0.504,0.072,1.08,0.072,1.8,0.072c2.808-0.144,4.68-6.192,4.68-8.064
			c0-2.376-0.936-4.896-3.168-5.976c-0.792-0.432-2.016-0.792-3.312-0.864V95.472c0.072,0,0.216,0,0.288,0.072
			c1.44,0.072,2.808,0.432,4.032,1.008c3.456,1.512,6.408,4.464,7.632,7.992l17.352,49.032c0.36,1.584-0.504,3.024-2.016,3.384
			c-1.512,0.36-3.528-0.072-4.824-0.576c-3.24-1.08-6.192-3.456-8.856-5.4c-1.8-1.368-3.6-2.736-5.472-3.888
			c-0.504-0.288-1.008-0.576-1.512-0.792C310.086,145.152,307.854,144.432,305.766,144.432z M305.766,95.472v23.904
			c-1.512-0.144-3.096,0.072-4.032,1.152c-1.008,1.296-1.656,2.736-2.088,4.392c-0.36,1.512-0.504,3.24-0.36,5.112
			c0.144,1.224,1.152,2.376,2.088,3.024c0.936,0.72,2.088,1.08,3.24,1.152c0.288,0,0.648,0,1.152,0v10.224c0,0,0,0-0.072,0
			c-2.088,0-4.104,0.288-6.048,1.08c-4.824,2.016-8.28,6.408-12.096,9.648l0,0c-0.576,0.576-1.224,1.008-1.872,1.44
			c-1.512,0.864-3.024,1.296-4.392,1.296c-1.296,0-2.448-0.36-3.456-1.08c-1.8-1.296-1.08-2.808-0.504-4.608
			c0.288-1.008,0.648-2.16,1.008-3.384c1.872-5.976,4.248-12.6,7.056-19.944l0,0c1.224-3.096,2.16-5.76,3.168-8.424
			c2.232-5.976,4.464-12.024,6.984-17.712c1.728-3.744,4.104-5.832,6.624-6.768C303.318,95.616,304.542,95.472,305.766,95.472
			L305.766,95.472z M114.606,144.432v-10.224c0.504,0.072,1.152,0.072,1.872,0.072c0.72,0,1.944-0.792,2.304-1.368
			c0.288-0.648,0.576-1.152,0.72-1.44c0.36-0.792,0.792-1.656,1.152-2.52c0.432-1.224,0.576-2.448,0.432-3.744
			c-0.288-2.016-1.008-3.888-3.024-4.968c-0.936-0.504-2.088-0.792-3.456-0.864V95.472c0.288,0,0.504,0,0.792,0
			c1.368,0.144,2.736,0.576,4.032,1.224c3.24,1.584,5.976,4.464,7.2,7.848l17.28,48.888c0.144,0.72,0.072,1.656-0.288,2.304
			c-0.36,0.792-1.152,1.152-2.016,1.296c-1.584,0.216-3.528-0.288-4.464-0.648c-1.512-0.504-2.952-1.296-4.248-2.16l0,0
			c-1.728-1.152-3.096-2.16-4.32-3.024c-3.096-2.232-5.904-4.464-9.576-5.832C117.486,144.864,116.046,144.504,114.606,144.432
			L114.606,144.432z M195.534,149.616c-0.864-1.296-2.016-2.088-3.456-2.736c-1.8-0.72-3.96-1.152-6.624-1.44
			c-7.2-0.864-12.6-5.76-15.48-12.384c-2.448-5.688-3.096-12.456-2.376-18.36c0.072-1.008,0.288-2.016,0.432-2.952l0,0
			c1.44-6.912-0.576-11.808-3.672-14.256c-1.296-1.08-2.808-1.728-4.32-1.944c-1.44-0.144-2.808,0.072-4.104,0.792
			c-2.52,1.512-4.464,4.896-4.392,10.8c0.792,3.528,0.216,8.424-0.504,14.544c-0.36,2.88-0.72,6.048-1.08,9.936l0,0
			c-0.648,8.856-0.72,15.696,1.728,20.088c2.304,4.104,7.272,6.336,16.848,6.336c1.296,0,2.952-0.072,5.04-0.216
			c2.016-0.072,4.464-0.288,7.416-0.504l0,0c2.952-0.288,5.4-0.432,7.128-0.576c1.512-0.072,2.88-0.144,4.104-0.144
			c1.512-1.368,3.456-3.528,3.456-5.76l0,0C195.678,150.408,195.606,149.976,195.534,149.616L195.534,149.616z M267.462,154.872
			c0.216-0.432,0.576-1.08,0.576-1.584c0.144-17.712,2.232-45.936,0-53.208c-1.944-2.952-4.536-4.896-7.272-5.688
			c-1.44-0.432-2.952-0.504-4.464-0.36c-1.44,0.216-2.88,0.648-4.176,1.44c-2.592,1.512-4.752,4.104-5.832,7.848
			c-1.584,5.328-3.384,13.968-7.056,17.712c-1.152,1.152-3.024,2.232-4.896,2.304c-1.008,0-2.16-0.216-2.88-0.864
			c-5.544-4.824-5.976-11.16-7.704-17.856c-0.288-1.008-0.504-1.8-0.72-2.376l0,0c-1.656-3.888-4.464-6.408-7.56-7.488
			c-1.8-0.648-3.744-0.792-5.616-0.432c-1.872,0.36-3.6,1.224-5.04,2.52c-2.448,2.16-4.104,5.76-4.104,10.8
			c0,5.616,0.36,11.016,0.36,16.704c0,3.672,0,7.56,0,11.232v0.072c0,0.576-0.072,1.296-0.072,2.088
			c-0.072,2.088-0.216,4.176-0.288,6.264c-0.072,3.888-0.144,8.136,2.16,11.448c0.72,1.152,1.008,1.44,2.16,1.584
			c1.8,0.216,3.672,0.072,4.824-1.584c1.296-1.944,1.656-4.392,2.304-6.552c0.72-2.304,0.936-3.816,2.664-7.2
			c0.936-1.8,2.088-3.312,3.528-4.104c0.72-0.432,2.232-0.288,2.88,0.216c1.152,0.936,2.232,2.376,3.384,4.248
			c1.008,1.728,2.016,3.888,3.096,6.48l0,0c1.08,2.736,2.376,4.824,3.888,6.12c0.792,0.72,1.512,1.08,2.592,1.224
			c0.36,0,0.792,0.072,1.224,0.072l0,0c3.672,0,4.032-3.024,5.04-5.76c0.432-1.08,0.936-2.376,1.512-3.888v-0.072
			c0.72-1.8,1.512-3.384,2.592-4.608c1.08-1.44,3.024-3.6,5.616-3.312c2.304,0.288,4.32,2.736,5.472,4.968
			c1.08,2.088,1.584,4.392,2.088,6.624c0.216,0.936,0.432,1.8,0.72,2.808l0,0l0,0c0.576,1.944,1.368,3.168,2.736,4.176
			c0.648,0.144,1.08,0.144,1.656,0.144C264.798,156.96,266.526,156.672,267.462,154.872z M114.606,95.472v23.904
			c-0.576,0-1.152,0-1.8,0.072c-0.432,0.072-1.728,0.432-2.16,1.08c-1.008,1.296-1.728,2.736-2.088,4.392
			c-0.432,1.512-0.504,3.24-0.36,5.112c0.072,0.792,0.576,1.584,1.08,2.16c1.08,1.296,2.592,1.872,4.248,2.016l0,0
			c0.216,0,0.576,0,1.08,0v10.224c-0.216,0-0.432,0-0.648,0c-1.8,0-3.6,0.36-5.472,1.152c-4.608,1.944-8.352,6.264-12.024,9.576
			c-1.8,1.512-3.888,2.736-6.264,2.736c-0.864,0-1.584-0.144-2.304-0.432v-10.728c1.728-5.4,3.888-11.304,6.408-17.856l0,0l0,0l0,0
			c1.152-3.024,2.232-5.904,3.24-8.784c2.088-5.904,4.176-11.736,6.912-17.208c1.872-3.888,4.32-6.048,6.912-6.912
			C112.446,95.544,113.526,95.4,114.606,95.472L114.606,95.472z M87.894,123.768c1.008-1.872,1.584-3.96,2.016-6.048
			c0.288-1.584,0.432-2.952,0.432-4.608c0-2.952-0.864-5.76-2.448-8.208V123.768z M73.35,113.832c0.072,0.36,0.072,0.72,0.072,1.152
			l0,0c0,0.72-0.144,1.44-0.432,2.232c-0.288,0.648-0.72,1.224-1.224,1.872c-0.36,0.288-0.72,0.72-1.08,1.152
			c-0.648,0.648-1.368,1.512-2.232,1.8c-0.648,0.144-1.368,0.288-2.016,0.288c-0.144,0-0.288,0-0.432,0v10.944
			c0.504-0.144,1.008-0.36,1.512-0.504l0,0l0,0l0,0c2.232-0.576,4.536-1.008,6.768-1.44c2.088-0.432,4.176-0.864,6.12-1.368
			c2.88-0.792,5.04-2.448,6.552-4.608c0.36-0.504,0.648-1.008,0.936-1.584v-18.864c-1.08-1.728-2.592-3.24-4.32-4.464
			c-0.504-0.36-1.008-0.648-1.584-0.936l0,0c-0.504-0.288-1.08-0.576-1.728-0.864l0,0c-1.224-0.432-2.52-1.008-4.248-1.584
			c-2.88-1.08-6.264-2.088-10.008-2.088v13.392c1.8,0.072,3.456,0.72,4.896,1.944c0.288,0.216,0.576,0.504,0.936,0.864
			C72.63,111.96,73.134,112.608,73.35,113.832L73.35,113.832z M87.894,146.736v10.728c-0.432-0.144-0.792-0.36-1.152-0.648
			c-0.648-0.432-1.152-1.152-1.296-1.944c0.576-2.016,1.152-4.032,1.8-6.048C87.462,148.176,87.678,147.456,87.894,146.736z
			 M66.006,122.328c-2.736-0.144-4.824-1.224-6.192-3.24c-0.288-0.36-0.504-0.792-0.72-1.296c-0.432-0.864-0.792-2.088-0.36-3.096
			c0.432-1.08,0.936-2.088,1.44-3.168c0.648-1.44,1.656-2.376,2.952-2.88c0.648-0.216,1.368-0.36,2.088-0.36
			c0.216,0,0.504,0,0.792,0.072V94.968c-0.072,0-0.144,0-0.216,0l0,0c-0.576,0-1.08,0-1.656,0c-6.12-0.072-13.752-0.072-19.08,1.512
			h-0.072c-1.44,0.504-2.592,1.296-3.528,2.376c0,0-0.216,0.864-0.288,0.864c-0.288,4.896-0.432,9.792-0.576,14.688
			c-0.36,11.088-0.432,22.32,0.792,33.336c0.288,2.016,0.576,4.104,0.936,6.12c1.728,2.448,4.464,3.312,7.488,3.312l0,0
			c0.36,0,0.72,0,1.152,0c0.216,0,0.432,0,0.72-0.072c1.224-0.72,2.088-1.728,2.664-2.952c0.792-1.584,0.936-3.456,1.224-5.112
			c0.288-1.656,0.576-3.384,1.008-5.112c1.008-3.744,3.312-7.056,6.624-9.216c0.648-0.432,1.296-0.792,2.016-1.152
			c0.288-0.072,0.504-0.144,0.792-0.288V122.328z"/>
	</g>
	<g>
		<path fill="#007550" d="M188.262,196.704L188.262,196.704L188.262,196.704c102.384-0.36,146.376-7.776,187.704-12.528
			c0.36-0.072,0.36-0.36,0-0.432c-36-5.184-84.24-12.024-187.704-12.024l0,0l0,0c-0.072,0-0.144,0-0.144,0s-0.072,0-0.144,0l0,0l0,0
			c-103.464,0-151.704,6.84-187.704,12.024c-0.36,0.072-0.36,0.36,0,0.432c41.328,4.752,85.32,12.168,187.704,12.528l0,0l0,0
			c0.072,0,0.144,0,0.144,0S188.19,196.704,188.262,196.704z"/>
		<path fill="#FFFFFF" d="M215.262,174.312h0.216c0.36,0,1.584,0.648,2.016,0.648v-0.648h3.384l0.144,0.288h4.176
			c0.36-0.216,0.792-0.288,1.44-0.288c0.72,0,1.8,0.072,2.448,0.144c-0.216,0.864,0,2.232,0,2.592v0.432
			c0,0.432-0.072,0.576-0.216,0.576h-0.072c-3.744,0-6.552-0.144-8.352-0.144c-0.36,0-0.648,0-0.864,0c0,0-0.144,0.648-0.144,1.08
			s0.144,0.72,0.144,0.936c0.072,0.648,0.072,1.296,0,1.944l0.216,0.216h7.992v2.952c0,0-0.504,0.36-0.504,0.648
			c0,0.72-0.648-0.432-0.648-0.504c-0.432,0-1.656,0.504-1.512,0.432c-0.648,0-1.44-0.288-2.088-0.288
			c-1.224,0-2.376,0.288-3.24,0.288v3.168c-1.008,0.864,0.864,2.088,1.8,2.088c0.792,0,1.44-0.072,1.872-0.144
			c0-0.072,0-0.072,0-0.144c0-0.216-0.144-0.36-0.504-0.288h4.968l0.216,0.288h0.864c0,0.648,0,1.08,0,1.44
			c0,0.72,0.072,1.656,0.072,2.016H215.55c0-0.648-0.432-1.512-0.432-2.016c0-0.648,0.144-0.864,0.144-1.296
			c0-0.504-0.144-0.72-0.144-1.008v-0.216c0.432-0.576,0-1.368,0-2.016v-0.72c0.432-0.576,0.072-1.224,0-1.584v-0.288
			c0-0.792,0.144-0.648,0.144-1.296c0-0.504-0.144-0.504-0.144-0.72v-0.72c0-0.144,0.144-0.936,0.144-1.584v-4.536v-0.864V174.312
			L215.262,174.312z M153.414,174.312c0.72-0.432,0.792,0.72,0.72,1.728v3.816l-0.504,0.504l0.576,1.512v-0.648
			c0,0.36-0.072,0.864-0.144,1.224c-0.36,0.36,0.288,2.88,0.288,4.104c0,0.432-0.144,1.152-0.144,1.8
			c0,0.936,0.216,1.872-0.072,2.736c-1.08,2.808-3.24,3.096-4.824,3.384c-0.72,0-1.368-0.072-2.088,0
			c-0.936-0.36-3.456,0.288-5.328-4.176v-0.288c0.288-0.72-0.144-0.936-0.144-1.224c0-0.504,0.144-1.584,0.144-2.304
			c0.504,0.144,0.864,0.72,1.368,0.072l2.88-0.072l0.144,2.304c-0.864,0.072,0.144,1.584,0.432,1.08
			c0.432,1.152,0.288,0.72,1.008,0.72c1.728,0,1.8-0.576,1.8-1.584c0-0.504,0-1.008,0.144-1.656c0-0.216,0.144-0.504,0.288-0.72
			c-0.144-0.504-0.288-1.008-0.288-1.584v-2.16c0-1.8-0.144-2.592-0.144-4.32c0.072-0.072,0.36-1.008,0.36-1.368h-0.432
			c0-0.504,0-0.936,0.072-1.44c0.072-0.648-0.072-0.648-0.072-1.008c0-0.072,0.072-0.288-0.072-0.504L153.414,174.312
			L153.414,174.312z M160.83,174.6h4.464c0,1.224-0.216,2.088-0.144,2.088h-0.648v0.432h0.936c0.144,0,0.144,0.216,0.144,0.792
			c-0.288,1.008-0.36,1.944-0.288,3.312c0,0.144-0.792,0.288-0.792,1.008c0.216,0,0.36-0.144,0.504-0.144
			c0.216,0,0.432,1.008,0.432,1.296c0,0.576-0.144,0.72-0.144,1.224c0,0.648,0.144,0.72,0.144,1.224c0,0.72-0.144,1.368-0.144,1.728
			c0,0.648,0.72,2.16,0.792,2.376c0,0.792,1.44,1.224,2.304,1.224c0.432,0,1.08-0.288,1.872-0.72
			c1.584-0.864,1.224-3.888,1.152-5.256c0.216-0.288,0.36-0.504,0.36-0.72c0-0.504-0.288-1.08-0.36-1.296c0-0.072,0-0.072,0-0.144
			c0-0.432,0.36-1.224,0.36-1.728c0-0.288-0.216-0.864-0.216-1.656c0-0.576,0.216-0.576,0.216-1.08s-0.144-0.864-0.216-1.08v-0.864
			c0-0.792,0-1.872,0.072-2.376h0.432h0.36c1.152,0.072,2.52,0,3.672,0c0,0.936,0,2.304,0,3.24v0.288
			c-0.144,0.792-0.144,0.864-0.144,1.512c0,0.504,0.072,0.792,0.144,0.936c0,1.08,0,2.16,0,3.168
			c0.216,0.648,0.216,0.72,0.216,1.296c0,0.936-0.936,1.296-0.936,1.872c0.864,0,0.576,0.936,0.576,1.512
			c0.072,0.288,0.144,0.504,0.144,0.576c0,1.08-0.432,3.456-1.944,3.456c-0.36,0-0.576,0.288-0.576,0.936h0.504
			c0,0.504-4.32,1.872-4.968,1.872c-1.296,0-2.52-0.216-3.672-0.576c-0.216-0.072-0.36-0.144-0.504-0.144
			c-1.872-0.288-2.376-1.512-3.024-2.16c-0.576-0.648-0.648-1.224-0.648-2.232v-0.144c-0.864-0.432-0.072-1.512-0.144-1.656
			c0-0.216-0.288-0.432-0.288-0.576c0-0.288,0.288-0.432,0.288-0.648c0-1.008-0.288-1.872-0.288-2.448v-1.296
			c0.072-0.576,0-0.864,0-1.152V174.6L160.83,174.6z M183.51,174.312c0.072-0.072,0.072-0.072,0.144-0.072
			c1.296,0,1.224,0.072,2.592,0.072c-0.072,0.288,0.72,0.072,0.936,0.072c0.144,0,0.216-0.144,0.504-0.144c0.216,0,0,2.448,0,2.592
			c0,0.072,0.288,1.008,0.288,1.728c0,0.288-0.576,0.576-0.576,0.72l0.504,0.648l0.072,4.608c0,0.576-0.144,0.648-0.144,1.08
			c0,0.504,0.216,0.504,0.216,0.936c0,0.72-0.216,1.368-0.216,1.728s0.216,1.152,0.216,1.656l-0.504,0.936
			c0.864,0.648,0.504,1.584,0.288,1.944c-0.144,1.224,0.576,1.44-0.36,1.296h-3.888c0-0.792-0.216-1.44-0.216-2.016
			s0.36-1.728,0.36-2.376c0-0.288-0.36-1.512-0.36-1.728c0-0.576,0.144-0.648,0.144-0.864v-1.008c0-0.504-0.144-1.152-0.144-1.872
			c0-0.648,0.144-1.152,0.144-1.152c0-0.576-0.144-0.864-0.144-1.152v-0.648c0-1.584-0.144-2.52,0.144-4.392
			c0.36,0,0.504-0.432,0.504-0.936c0-0.144-0.072-0.288-0.36-0.36c-0.432-0.288-0.288-0.864,0-1.152L183.51,174.312L183.51,174.312z
			 M206.982,174.96c0.864,0.432,1.44,1.08,1.8,1.872l0.288,0.864c0.144,0.432,0.288,0.72,0.36,0.864
			c0.36,0.936,0.288,0.504,0.288,1.152v0.144c0.576,0.504,0.144,0.72,0.144,1.224c-1.44,0-2.88,0.072-4.32,0
			c-0.72-0.648-0.648-3.384-2.448-3.384c-0.432,0-0.648,0.144-0.936,0.144c-0.144,0-0.288-0.072-0.288-0.144
			c-0.936,0-1.584,0.288-1.944,0.864c-0.432,0.648-0.648,1.152-0.792,1.44c-0.864,1.512-0.864,3.744-0.864,5.544
			c0-0.144,0.576,1.08,0.504,1.296c0.144,1.368,0.432,1.512,0.864,2.592c0.288,1.08,1.8,1.512,2.808,1.512
			c1.44,0,2.16-0.72,3.024-1.656l0.072-1.8c0-0.144,0.72,0,0.864,0c0.288,0,0.576-0.072,0.792-0.072c1.152,0,2.16-0.216,3.024-0.216
			c0,2.52-1.224,5.976-4.104,6.912c-0.504,0-2.664,0.648-3.096,0.72c-1.656-0.216-3.6-0.36-4.536-0.936
			c-1.152-0.288-1.44-1.152-1.944-1.224c-0.864,0-0.648-0.576-0.792-0.864c-1.584-1.152-1.224-2.088-1.296-2.664
			c-0.648-0.864-0.792-2.232-0.792-3.096c0-1.512,0.144-3.096,0.432-4.68c0.216-1.008,0.216-2.16,0.648-2.808
			c0.432-0.576,0.648-0.936,0.648-1.008c-0.072-0.504,1.08-1.656,2.304-2.304c0.72-0.504,1.152-0.864,1.296-1.152
			c0.432,0.072,0.792,0.144,0.936,0.144c0,0,0.144-0.072,0.504-0.144c0.72-0.36,2.016-0.144,2.376-0.144
			c0.432-0.072,0.792-0.072,1.152-0.216C204.822,174.168,206.334,174.6,206.982,174.96z"/>
	</g>
</g>
</svg>
