<?xml version="1.0" encoding="utf-8"?>
<!-- Generator: Adobe Illustrator 16.0.0, SVG Export Plug-In . SVG Version: 6.00 Build 0)  -->
<!DOCTYPE svg PUBLIC "-//W3C//DTD SVG 1.1//EN" "http://www.w3.org/Graphics/SVG/1.1/DTD/svg11.dtd">
<svg version="1.1" id="Layer_1" xmlns="http://www.w3.org/2000/svg" xmlns:xlink="http://www.w3.org/1999/xlink" x="0px" y="0px"
	 width="102.653px" height="175.75px" viewBox="45.05 8.504 102.653 175.75" enable-background="new 45.05 8.504 102.653 175.75"
	 xml:space="preserve">
<g>
	<path fill="#9A9CCD" d="M67.423,10.129c0,0,5.887,4.021,2.248,8.042c-3.64,4.107-8.135,5.561-8.885,9.753
		c-0.856,4.192,1.82,7.957,3.854,8.555c2.033,0.685,2.033-0.085,1.819-1.882c-0.214-1.797-1.605-4.534,1.178-7.015
		c2.89-2.396,9.526-3.251,9.74-10.694c0.214-5.646-8.456-8.384-8.456-8.384s0,0-0.001,0s-0.003,0-0.005,0
		C68.771,8.516,66.49,8.72,67.423,10.129L67.423,10.129z"/>
	<path fill="#9A9CCD" d="M84.978,17.487c0,0,2.783,4.876-1.285,7.272c-4.067,2.48-8.456,4.277-6.101,10.608
		c0,0,2.462,2.053,3.639-0.171c1.285-2.31,1.713-3.764,4.496-4.705c2.89-1.027,5.245-2.481,5.673-6.16
		c0.428-3.764-4.496-7.785-4.496-7.785S84.764,15.69,84.978,17.487L84.978,17.487z"/>
	<path fill="#EE2A24" d="M109.918,43.836c1.071,4.021-11.347,9.753-27.83,12.662c-16.484,2.909-30.721,2.053-31.898-2.053
		c-1.177-4.021,11.347-9.667,27.831-12.662C94.505,38.875,108.741,39.815,109.918,43.836L109.918,43.836z"/>
	<path fill="#F9B4A6" d="M122.229,78.57c0,6.245-5.246,11.378-11.562,11.378S99.106,84.815,99.106,78.57
		c0-6.245,5.246-11.378,11.562-11.378S122.229,72.325,122.229,78.57L122.229,78.57z"/>
	<path fill="#3B73B9" d="M112.06,138.285c0,0,7.707,26.862,12.311,36.444c0,0,0.32,2.822-2.783,2.054
		c-1.393-0.429-20.552-19.249-25.476-24.981c0,0-3.211-2.139-3.96,0.344c-0.643,2.479-2.034,24.553-1.713,29.941
		c0,0-1.177,3.166-4.174,1.198c-2.89-1.968-13.487-24.384-16.806-44.829c0,0,0.214-2.055,1.713-1.711
		c1.605,0.342,20.337,6.673,36.715,0.428C107.885,137.173,111.524,136.231,112.06,138.285L112.06,138.285z"/>
	<path fill="#74B83F" d="M112.701,113.562l2.248,20.02c0,0-0.535,1.711-2.248,2.053c-1.819,0.258-26.438,6.93-44.743-5.304
		c0,0-2.462-1.112-0.535-3.509c1.927-2.396,17.234-22.157,17.234-22.157s1.07-1.882,0.321-3.422s-5.887-15.742-0.535-34.05
		c0,0,2.462-1.54,3.96,0.171c1.392,1.711,7.814,27.376,19.696,27.376c11.881,0,27.295-5.562,34.359-7.101
		c3.584-0.77,5.003-0.492,5.245,0.223v0.53c-0.181,0.687-0.943,1.559-1.819,2.327c-2.355,2.053-18.305,13.346-31.576,18.906
		C114.308,109.625,112.487,110.908,112.701,113.562L112.701,113.562z"/>
	<path d="M97.823,92.173L84.229,67.192c0,0-1.605-2.31-4.281-2.053c-1.605,0.085-2.569,2.481-2.89,4.534
		c-1.07,5.732-2.89,16.426,1.82,30.971c0,0,0.642,1.539-0.321,2.907c-1.07,1.369-15.414,19.849-17.983,24.126
		c0,0-0.856,1.026,1.605,2.908c2.355,1.968,21.836,11.293,46.349,4.706c0,0,1.604-0.257,1.391-1.797s-2.033-20.789-2.033-20.789
		s-0.214-1.711,1.498-2.652c1.713-0.94,25.264-14.03,33.397-22.842c0,0,0.321-0.428,0.321-0.855c-0.107-0.428-0.535-0.77-1.393-0.77
		c-1.713,0-18.09,2.396-32.006,7.529c0,0-0.643,0.256-0.749,0.684c-0.106,0.428,0.214,0.941,0.963,0.941
		c1.606,0,19.481-3.422,19.481-3.422s1.713-0.342,0.856,0.941c-0.429,0.77-27.724,13.688-27.724,13.688s-1.393,0.771-1.393,1.883
		s-0.32,21.56-0.32,21.56s-2.248,2.736-14.344,1.881c-12.096-0.77-13.487-6.158-12.738-7.955
		c0.642-1.797,15.307-26.948,15.307-26.948s0.535-1.626-0.535-1.626c-0.963,0-4.817,3.765-4.817,3.765S82.3,99.36,82.3,97.651
		c0-0.855-1.177-6.417-1.392-11.979c-0.106-6.416,0.643-10.266,0.643-10.266s0.321-1.026,1.178-0.257
		c0.856,0.855,12.523,17.795,12.523,17.795s0.643,1.027,1.927,0.684C98.358,93.371,97.823,92.173,97.823,92.173L97.823,92.173z"/>
	<path d="M122.335,78.485c-2.997,5.646-9.848,8.726-15.199,6.844c-5.353-1.882-7.172-7.956-4.066-13.603
		c3.104-5.646,9.953-8.726,15.307-6.844C123.62,66.679,125.438,72.753,122.335,78.485L122.335,78.485z M116.341,70.187
		c-2.462-0.855-6.102,1.026-8.027,4.62c-1.926,3.679-1.605,7.272,0.855,8.127s5.995-1.369,8.027-5.048
		C119.124,74.292,118.804,71.042,116.341,70.187L116.341,70.187z"/>
	<path d="M69.029,139.312c0,0,5.566,17.367,8.777,24.64c0,0,0.856,1.368,1.285-0.085c0.321-1.54,2.248-13.176,5.78-20.704
		c0,0,1.605-2.737,3.639-0.854c2.141,1.967,14.558,14.2,14.558,14.2s0.964,1.112,0.964-0.513c0-1.711,0.429-14.801,0.429-14.801
		s0-1.625,1.498-1.625c1.605,0,1.713,2.31,1.713,2.31s4.816,24.126,9.205,33.707c0,0,0,1.626-0.749,1.883
		c-0.644,0.257-2.569-0.086-3.64-1.198c-0.963-1.111-22.372-23.439-22.372-23.439s-0.749-1.112-1.926-0.686
		c-0.642,0.172-0.535,1.455-0.535,1.455s-2.783,12.147-3.961,29.086c0,0,0,1.455-1.177,1.541c-1.177,0.172-2.783-0.514-3.318-1.541
		c-0.535-0.939-11.56-17.365-13.273-43.373c0,0,0.321-1.369,1.605-1.369C68.387,137.942,68.815,138.713,69.029,139.312
		L69.029,139.312z"/>
	<path d="M125.976,68.133c0,0,3.854-3.678,5.459-4.534c1.604-0.771,7.278-1.113,6.102-3.679c-1.284-2.652-8.562-1.967-8.562-1.967
		s-0.644-4.534-2.677-4.534c-2.034,0-3.961,7.101-3.961,7.101s-1.927,2.139-3.104,0c-1.178-2.053-1.819-9.582,1.07-11.806
		c2.783-2.31,12.311-4.534,11.668,5.219c0,0,7.92-0.685,11.561,0.941c3.746,1.625,5.139,5.219,2.676,8.897
		c-2.462,3.764-11.132,2.481-11.132,2.481l-6.315,4.021c0,0-1.178,0.171-2.462-0.171C125.118,69.759,125.976,68.133,125.976,68.133
		L125.976,68.133z"/>
	<path d="M79.305,46.745c0,0,19.481,0.342,21.301,4.192c1.928,4.192-7.493,7.7-21.516,8.812
		c-13.273,1.026-23.549-0.685-23.335-4.876c0.214-4.192,15.414-5.39,15.414-5.39s1.605-1.283,0.642-1.882
		c-1.07-0.684-3.104-0.513-5.887-0.342c-2.89,0.171-20.766,2.224-20.873,8.555c-0.214,6.331,15.949,9.411,34.039,7.957
		c18.09-1.455,33.504-5.047,34.253-11.207c0.856-6.16-20.445-9.069-34.467-8.042c0,0-2.248,0.599-2.034,1.455
		C77.057,46.745,79.305,46.745,79.305,46.745L79.305,46.745z"/>
	<path d="M69.457,13.295c0,0,5.887,4.021,2.248,8.042c-3.64,4.106-8.135,5.561-8.885,9.753c-0.856,4.192,1.82,7.957,3.854,8.641
		c2.034,0.599,2.034-0.171,1.82-1.968c-0.214-1.796-1.605-4.534,1.178-7.015c2.89-2.396,9.526-3.251,9.741-10.694
		c0.214-5.646-8.563-8.384-8.563-8.384S68.494,11.84,69.457,13.295L69.457,13.295z"/>
	<path d="M86.905,20.652c0,0,2.89,4.876-1.177,7.358c-4.067,2.396-8.563,4.192-6.102,10.522c0,0,2.462,2.053,3.64-0.171
		c1.284-2.31,1.605-3.764,4.496-4.706c2.783-1.026,5.245-2.481,5.673-6.16c0.428-3.764-4.496-7.785-4.496-7.785
		S86.691,18.855,86.905,20.652L86.905,20.652z"/>
</g>
</svg>
