<?xml version="1.0" encoding="utf-8"?>
<!-- Generator: Adobe Illustrator 16.0.0, SVG Export Plug-In . SVG Version: 6.00 Build 0)  -->
<!DOCTYPE svg PUBLIC "-//W3C//DTD SVG 1.1//EN" "http://www.w3.org/Graphics/SVG/1.1/DTD/svg11.dtd">
<svg version="1.1" id="Layer_1" xmlns="http://www.w3.org/2000/svg" xmlns:xlink="http://www.w3.org/1999/xlink" x="0px" y="0px"
	 width="174.546px" height="87.88px" viewBox="274.413 310.897 174.546 87.88"
	 enable-background="new 274.413 310.897 174.546 87.88" xml:space="preserve">
<g>
	<path d="M373.547,311.594l1.092,2.215c3.367,0.303,6.583,1.031,9.404,2.609c2.062,1.123,3.943,2.7,6.188,3.397
		c0.028,0.212,0,0.516,0.028,0.759l0.577,0.06l9.858,7.766c1.851,1.759,3.7,3.458,5.823,4.611v0.879l0.698,0.061
		c4.368,3.034,9.312,5.491,15.016,4.429c3.216-0.637,6.311-3.336,7.704-6.34l4.977-10.981c1.698-3.458,5.187-6.734,8.493-8.797
		c1.152-0.576,2.761-1.183,4.064-0.424c1.062,0.697,1.518,1.851,1.486,3.125c-0.151,1.972-1.669,3.913-3.52,4.641
		c-2.428,1.395-5.127,2.093-7.249,4.186c-1.003,1.638-2.609,3.003-3.398,4.671c-1.152,2.336-1.94,4.823-3.002,7.22h-0.304
		l-0.94,1.972c-1.305,1.76-3.033,3.458-4.854,4.459l-0.184,0.546c2.427,3.701,3.246,8.099,3.914,12.528
		c0.091,2.245-0.396,4.763,0.424,6.764c0.184,0.454,0.486,0.881,0.729,1.364v0.761l3.033,2.395c0.789,3.035,2.699,5.734,2.244,9.162
		c-0.454,1.517-0.484,3.274-0.213,4.854c-0.333,0.483-1.093,0.213-1.606,0.213c-1.668-0.213-3.671-1.184-4.065-3.004
		c-0.271-2.519-0.242-5.127-0.424-7.674l-6.037-5.279c-1.486-1.729-2.366-3.701-3.943-5.399l-0.971-1.638l-3.883-8.949
		c-1.426-2.185-3.7-3.549-6.127-3.853l-8.555-0.789c-3.429-0.789-6.554-2.306-9.525-4.186c-2.366-1.699-4.368-4.247-6.704-6.006
		h-0.971c-1.729,1.911-4.034,2.548-6.582,2.245c-3.731-0.243-6.613-2.518-10.192-3.154c-0.304,0.667-0.455,1.456-0.697,2.184
		c-1.336,0.152-3.095,0.546-4.064-0.667c-0.819-0.879-0.971-2.214-0.637-3.367c0.971-2.366,3.519-3.337,5.914-3.428
		c1.912-0.091,3.641,0.333,5.521,0.273l0.273-0.182l-0.334-1.911l-1.396-1.274l-3.913,0.333l-3.883-2.851l-0.667-0.85v-1.457
		l1.607-1.911l0.789-1.851l2.668-2.305l1.244-2.214c0.909-0.304,1.518,0.394,2.185,0.727l0.938-0.242l1.002-1.123h0.91
		L373.547,311.594L373.547,311.594z"/>
	<path d="M298.165,355.946c1.79,0.212,3.914,0.574,4.581,2.515l0.182,0.91v23.175c-0.122,1.882-0.667,3.943-2.609,4.701
		c-0.971,0.364-2.032,0.547-3.125,0.576h-10.572v10.164h-12.209v-42.042L298.165,355.946L298.165,355.946z"/>
	<path d="M318.384,381.061l-0.212,1.91v7.646c0,0.768,0.318,1.518,1.046,1.881c0.607,0.213,1.364,0.092,1.881-0.242
		c0.697-0.545,0.85-1.362,0.85-2.215v-34.093h11.724v14.951l-0.318,2.095l-0.029,20.264c-0.152,1.576-0.365,3.306-1.942,4.094
		c-1.244,0.548-2.669,0.668-4.156,0.64l-16.047-0.031c-1.517-0.182-3.186-0.273-4.095-1.699c-0.698-1.213-0.789-2.699-0.85-4.186
		v-36.126h12.148L318.384,381.061L318.384,381.061z"/>
	<path d="M375.003,355.946c1.759,0.151,3.64,1.241,4.125,3c0.426,1.335,0.426,3.187,0,4.521l0.031,8.584l0.242,1.639v24.3h-11.771
		v-21.843l0.303-1.092l-0.029-10.102c-0.151-0.818-0.363-1.639-0.304-2.549c-0.12-0.484-0.516-0.91-0.971-1.092
		c-0.606-0.273-1.396-0.121-1.911,0.242c-0.91,0.668-0.455,2.002-0.577,3.034l-0.333,0.545l0.03,11.802l0.303,1.092v19.961h-11.678
		l0.031-15.289l0.333-1.457v-14.318l-0.364-0.879l-0.03-3.67c-0.121-0.576-0.637-1.092-1.183-1.213
		c-0.697,0-1.456,0.061-1.941,0.576c-0.395,0.455-0.303,1.092-0.303,1.697c-0.03,1.426,0.091,2.912-0.333,4.155l0.03,16.623
		l0.303,1.457v12.316H337.54l-0.03-27.515l-0.272-1.486l0.029-9.979c0.122-1.274,1.365-2.366,2.519-2.669
		c0.728-0.213,1.456-0.361,2.214-0.392H375.003L375.003,355.946z"/>
	<path d="M405.338,355.946c1.547,0.212,3.215,0.513,4.004,2.03l0.183,0.849c0,2.411-0.12,5.444,0.334,7.401v31.762h-11.739v-10.133
		h-3.124v10.133h-12.149v-25.057l0.242-1.093v-8.646c-0.455-1.273-0.197-2.853-0.228-4.248c0.546-1.577,2.198-3,3.883-3h0.546
		H405.338L405.338,355.946z"/>
	<path fill="#FFFFFF" d="M290.248,361.525c0.303,0.576,0.425,1.213,0.425,1.91l-0.03,16.807c-0.091,0.758-0.425,1.576-1.183,1.971
		c-0.789,0.455-1.866,0.395-2.837,0.395v-22.112C287.958,360.342,289.52,360.251,290.248,361.525L290.248,361.525z"/>
	<path fill="#FFFFFF" d="M398.27,362.01l0.214,0.486c0,2.305,0.15,5.148-0.364,6.855v13.227h-3.124v-12.469l-0.532-1.607v-5.672
		c0-0.721,0.774-1.365,1.472-1.607C396.784,360.949,397.754,361.252,398.27,362.01L398.27,362.01z"/>
	<path fill="#FFFFFF" d="M312.509,396.906c0.293,0,0.531-0.238,0.531-0.531v-6.623c0-0.293-0.238-0.531-0.531-0.531
		s-0.531,0.238-0.531,0.531v6.623C311.978,396.668,312.215,396.906,312.509,396.906L312.509,396.906z"/>
	<path fill="#FFFFFF" d="M310.36,396.906c0.293,0,0.53-0.238,0.53-0.531v-2.529c0-0.293-0.237-0.529-0.53-0.529
		s-0.531,0.236-0.531,0.529v2.529C309.829,396.668,310.067,396.906,310.36,396.906L310.36,396.906z"/>
	<path fill="#FFFFFF" d="M318.854,396.906c0.294,0,0.531-0.238,0.531-0.531v-2.529c0-0.293-0.237-0.529-0.531-0.529
		c-0.293,0-0.53,0.236-0.53,0.529v2.529C318.323,396.668,318.561,396.906,318.854,396.906L318.854,396.906z"/>
	<path fill="#FFFFFF" d="M321.281,396.906c0.292,0,0.531-0.238,0.531-0.531v-2.529c0-0.293-0.238-0.529-0.531-0.529
		s-0.531,0.236-0.531,0.529v2.529C320.75,396.668,320.987,396.906,321.281,396.906L321.281,396.906z"/>
	<path fill="#FFFFFF" d="M314.556,396.906c0.293,0,0.531-0.238,0.531-0.531v-9.596c0-0.293-0.237-0.531-0.531-0.531
		c-0.293,0-0.53,0.238-0.53,0.531v9.596C314.025,396.668,314.263,396.906,314.556,396.906L314.556,396.906z"/>
	<path fill="#FFFFFF" d="M316.528,396.906c0.293,0,0.53-0.238,0.53-0.531v-12.842c0-0.293-0.237-0.531-0.53-0.531
		s-0.531,0.238-0.531,0.531v12.842C315.997,396.668,316.235,396.906,316.528,396.906L316.528,396.906z"/>
	<path fill="#FFFFFF" d="M323.657,396.906c0.293,0,0.531-0.238,0.531-0.531v-12.842c0-0.293-0.238-0.531-0.531-0.531
		s-0.531,0.238-0.531,0.531v12.842C323.125,396.668,323.364,396.906,323.657,396.906L323.657,396.906z"/>
	<path fill="#FFFFFF" d="M325.729,396.906c0.294,0,0.531-0.238,0.531-0.531v-19.121c0-0.293-0.237-0.531-0.531-0.531
		c-0.293,0-0.53,0.238-0.53,0.531v19.121C325.199,396.668,325.438,396.906,325.729,396.906L325.729,396.906z"/>
	<path fill="#FFFFFF" d="M327.701,396.906c0.293,0,0.531-0.238,0.531-0.531v-20.123c0-0.293-0.238-0.529-0.531-0.529
		s-0.531,0.236-0.531,0.529v20.123C327.17,396.668,327.408,396.906,327.701,396.906L327.701,396.906z"/>
	<path fill="#FFFFFF" d="M329.673,396.906c0.292,0,0.531-0.238,0.531-0.531v-21.438c0-0.293-0.238-0.529-0.531-0.529
		s-0.531,0.236-0.531,0.529v21.438C329.142,396.668,329.38,396.906,329.673,396.906L329.673,396.906z"/>
	<path fill="#FFFFFF" d="M331.646,396.906c0.291,0,0.529-0.238,0.529-0.531v-22.336c0-0.293-0.238-0.531-0.529-0.531
		c-0.295,0-0.531,0.238-0.531,0.531v22.336C331.114,396.668,331.352,396.906,331.646,396.906L331.646,396.906z"/>
	<path fill="#FFFFFF" d="M338.962,396.906c0.293,0,0.532-0.238,0.532-0.531v-26.068c0-0.293-0.238-0.531-0.532-0.531
		c-0.292,0-0.53,0.238-0.53,0.531v26.068C338.432,396.668,338.67,396.906,338.962,396.906L338.962,396.906z"/>
	<path fill="#FFFFFF" d="M340.998,396.906c0.293,0,0.531-0.238,0.531-0.531v-26.594c0-0.293-0.237-0.531-0.531-0.531
		c-0.293,0-0.531,0.238-0.531,0.531v26.594C340.467,396.668,340.705,396.906,340.998,396.906L340.998,396.906z"/>
	<path fill="#FFFFFF" d="M343.033,396.906c0.293,0,0.531-0.238,0.531-0.531v-27.16c0-0.293-0.238-0.531-0.531-0.531
		s-0.531,0.238-0.531,0.531v27.16C342.502,396.668,342.74,396.906,343.033,396.906L343.033,396.906z"/>
	<path fill="#FFFFFF" d="M345.068,387.289c0.293,0,0.53-0.238,0.53-0.531v-18.059c0-0.293-0.237-0.531-0.53-0.531
		s-0.531,0.238-0.531,0.531v18.059C344.537,387.051,344.774,387.289,345.068,387.289L345.068,387.289z"/>
	<path fill="#FFFFFF" d="M347.103,385.701c0.294,0,0.531-0.236,0.531-0.529v-16.715c0-0.293-0.237-0.531-0.531-0.531
		c-0.293,0-0.53,0.238-0.53,0.531v16.715C346.572,385.465,346.81,385.701,347.103,385.701L347.103,385.701z"/>
	<path fill="#FFFFFF" d="M354.181,381.266c0.293,0,0.531-0.238,0.531-0.531v-13.491c0-0.293-0.238-0.529-0.531-0.529
		s-0.53,0.236-0.53,0.529v13.491C353.65,381.027,353.888,381.266,354.181,381.266L354.181,381.266z"/>
	<path fill="#FFFFFF" d="M356.216,380.658c0.293,0,0.531-0.238,0.531-0.531v-13.188c0-0.293-0.238-0.531-0.531-0.531
		s-0.531,0.238-0.531,0.531v13.188C355.685,380.42,355.923,380.658,356.216,380.658L356.216,380.658z"/>
	<path fill="#FFFFFF" d="M358.251,379.748c0.293,0,0.53-0.238,0.53-0.531v-12.883c0-0.293-0.237-0.531-0.53-0.531
		s-0.531,0.238-0.531,0.531v12.883C357.72,379.51,357.958,379.748,358.251,379.748L358.251,379.748z"/>
	<path fill="#FFFFFF" d="M360.286,378.838c0.293,0,0.53-0.238,0.53-0.531v-12.277c0-0.293-0.237-0.528-0.53-0.528
		s-0.53,0.235-0.53,0.528v12.277C359.756,378.6,359.993,378.838,360.286,378.838L360.286,378.838z"/>
	<path fill="#FFFFFF" d="M362.32,377.928c0.293,0,0.53-0.236,0.53-0.531v-11.67c0-0.293-0.237-0.531-0.53-0.531
		s-0.53,0.238-0.53,0.531v11.67C361.79,377.691,362.027,377.928,362.32,377.928L362.32,377.928z"/>
	<path fill="#FFFFFF" d="M369.411,375.4c0.293,0,0.531-0.238,0.531-0.531v-10.053c0-0.293-0.238-0.531-0.531-0.531
		s-0.531,0.238-0.531,0.531v10.053C368.88,375.162,369.118,375.4,369.411,375.4L369.411,375.4z"/>
	<path fill="#FFFFFF" d="M371.535,375.096c0.293,0,0.53-0.236,0.53-0.529v-10.053c0-0.293-0.237-0.531-0.53-0.531
		c-0.294,0-0.531,0.238-0.531,0.531v10.053C371.004,374.859,371.241,375.096,371.535,375.096L371.535,375.096z"/>
	<path fill="#FFFFFF" d="M373.658,374.49c0.293,0,0.529-0.238,0.529-0.531v-9.75c0-0.293-0.236-0.529-0.529-0.529
		s-0.531,0.236-0.531,0.529v9.75C373.127,374.252,373.365,374.49,373.658,374.49L373.658,374.49z"/>
	<path fill="#FFFFFF" d="M375.781,373.883c0.293,0,0.531-0.238,0.531-0.531v-9.444c0-0.294-0.238-0.531-0.531-0.531
		s-0.531,0.237-0.531,0.531v9.444C375.25,373.645,375.488,373.883,375.781,373.883L375.781,373.883z"/>
	<path fill="#FFFFFF" d="M377.905,373.277c0.293,0,0.529-0.238,0.529-0.531v-9.447c0-0.293-0.236-0.529-0.529-0.529
		s-0.531,0.236-0.531,0.529v9.447C377.374,373.039,377.612,373.277,377.905,373.277L377.905,373.277z"/>
	<path fill="#FFFFFF" d="M384.718,371.76c0.293,0,0.53-0.238,0.53-0.531v-7.93c0-0.293-0.237-0.529-0.53-0.529
		c-0.294,0-0.531,0.236-0.531,0.529v7.93C384.188,371.521,384.424,371.76,384.718,371.76L384.718,371.76z"/>
	<path fill="#FFFFFF" d="M386.702,371.152c0.293,0,0.531-0.236,0.531-0.529v-7.627c0-0.293-0.238-0.531-0.531-0.531
		c-0.294,0-0.531,0.238-0.531,0.531v7.627C386.171,370.916,386.408,371.152,386.702,371.152L386.702,371.152z"/>
	<path fill="#FFFFFF" d="M388.688,370.547c0.293,0,0.529-0.238,0.529-0.531v-7.322c0-0.293-0.236-0.53-0.529-0.53
		c-0.294,0-0.531,0.237-0.531,0.53v7.322C388.155,370.309,388.394,370.547,388.688,370.547L388.688,370.547z"/>
	<path fill="#FFFFFF" d="M390.671,369.939c0.293,0,0.531-0.238,0.531-0.531v-7.018c0-0.296-0.238-0.531-0.531-0.531
		c-0.294,0-0.531,0.235-0.531,0.531v7.018C390.14,369.701,390.377,369.939,390.671,369.939L390.671,369.939z"/>
	<path fill="#FFFFFF" d="M392.655,369.637c0.293,0,0.53-0.238,0.53-0.531v-7.02c0-0.293-0.237-0.531-0.53-0.531
		s-0.531,0.238-0.531,0.531v7.02C392.124,369.398,392.362,369.637,392.655,369.637L392.655,369.637z"/>
	<path fill="#FFFFFF" d="M400.12,367.684c0.293,0,0.531-0.238,0.531-0.531v-5.672c0-0.293-0.238-0.53-0.531-0.53
		s-0.53,0.237-0.53,0.53v5.672C399.59,367.445,399.827,367.684,400.12,367.684L400.12,367.684z"/>
	<path fill="#FFFFFF" d="M402.122,367.107c0.294,0,0.531-0.238,0.531-0.531v-5.4c0-0.293-0.237-0.531-0.531-0.531
		s-0.53,0.238-0.53,0.531v5.4C401.592,366.869,401.828,367.107,402.122,367.107L402.122,367.107z"/>
	<path fill="#FFFFFF" d="M404.124,366.5c0.293,0,0.531-0.238,0.531-0.531v-5.096c0-0.293-0.238-0.531-0.531-0.531
		s-0.53,0.238-0.53,0.531v5.096C403.594,366.262,403.831,366.5,404.124,366.5L404.124,366.5z"/>
	<path fill="#FFFFFF" d="M406.126,366.045c0.294,0,0.531-0.236,0.531-0.531v-4.943c0-0.293-0.237-0.53-0.531-0.53
		c-0.293,0-0.53,0.237-0.53,0.53v4.943C405.596,365.809,405.833,366.045,406.126,366.045L406.126,366.045z"/>
	<path fill="#FFFFFF" d="M408.129,365.105c0.292,0,0.53-0.238,0.53-0.531v-4.308c0-0.293-0.238-0.531-0.53-0.531
		c-0.294,0-0.531,0.238-0.531,0.531v4.308C407.598,364.867,407.835,365.105,408.129,365.105L408.129,365.105z"/>
	<path d="M421.449,391.363c0.752,0.768,1.128,1.674,1.128,2.719c0,1.074-0.378,1.996-1.134,2.766
		c-0.757,0.763-1.667,1.146-2.732,1.146c-1.069,0-1.982-0.379-2.738-1.142c-0.761-0.758-1.141-1.682-1.141-2.77
		c0-1.049,0.374-1.955,1.121-2.719c0.76-0.781,1.68-1.172,2.758-1.172C419.776,390.191,420.689,390.582,421.449,391.363
		L421.449,391.363z M422.029,390.764c-0.917-0.918-2.023-1.375-3.318-1.375c-1.235,0-2.312,0.424-3.229,1.273
		c-0.978,0.908-1.466,2.049-1.466,3.42c0,1.32,0.453,2.434,1.357,3.338s2.017,1.357,3.337,1.357c1.278,0,2.374-0.443,3.287-1.326
		c0.938-0.912,1.407-2.035,1.407-3.369C423.405,392.787,422.946,391.682,422.029,390.764L422.029,390.764z M419.291,393.725
		c-0.179,0.129-0.428,0.191-0.746,0.191h-0.528v-1.508h0.331c0.34,0,0.604,0.035,0.79,0.107c0.28,0.108,0.421,0.307,0.421,0.592
		S419.469,393.598,419.291,393.725L419.291,393.725z M418.017,394.854h0.287l0.299,0.019c0.208,0.015,0.363,0.041,0.466,0.084
		c0.188,0.071,0.313,0.199,0.383,0.381c0.042,0.111,0.068,0.324,0.082,0.64c0.013,0.312,0.04,0.553,0.083,0.719h1.299l-0.044-0.146
		c-0.018-0.051-0.028-0.102-0.035-0.151c-0.006-0.052-0.009-0.104-0.009-0.152v-0.465c0-0.531-0.153-0.921-0.459-1.166
		c-0.166-0.134-0.412-0.232-0.738-0.302c0.356-0.037,0.656-0.153,0.9-0.35c0.244-0.195,0.365-0.512,0.365-0.949
		c0-0.572-0.23-0.986-0.693-1.242c-0.271-0.147-0.613-0.235-1.025-0.268c-0.071-0.004-0.43-0.006-1.071-0.008
		c-0.645-0.004-1.128-0.004-1.449-0.004v5.203h1.361L418.017,394.854L418.017,394.854z"/>
</g>
</svg>
