<?xml version="1.0" encoding="utf-8"?>
<!-- Generator: Adobe Illustrator 16.0.0, SVG Export Plug-In . SVG Version: 6.00 Build 0)  -->
<!DOCTYPE svg PUBLIC "-//W3C//DTD SVG 1.1//EN" "http://www.w3.org/Graphics/SVG/1.1/DTD/svg11.dtd">
<svg version="1.1" id="Layer_1" xmlns="http://www.w3.org/2000/svg" xmlns:xlink="http://www.w3.org/1999/xlink" x="0px" y="0px"
	 width="345.989px" height="120.313px" viewBox="124.647 360.788 345.989 120.313"
	 enable-background="new 124.647 360.788 345.989 120.313" xml:space="preserve">
<g id="Layer_1_1_">
	<g>
		<path fill="#03446C" d="M355.583,412.297c-4.51,1.128-7.707,2.632-8.834,7.521c-1.129,4.887-1.506,6.766-2.443,7.895h13.91v4.699
			h-20.113v-13.724c0,0-3.01,4.701-7.895,4.701c-5.076,0-42.674,0-42.674,0v-18.799l-2.443,2.068c0,0-1.316,0.752-1.316,3.571
			v22.558h-19.551v-9.211l-2.068,1.504c0,0-1.692,0.941-1.692,3.57v7.896c0,0,0.565,3.947-3.383,5.076
			c-4.136,1.314-7.144-2.256-8.271-3.949l-0.563,0.189c0,0,3.759,9.213,12.031,6.203c0,0,3.759-1.879,3.948-6.953h98.131v-30.081
			C362.353,407.034,360.097,410.981,355.583,412.297z M333.777,432.787H287.72v-5.074h46.057V432.787z M358.216,423.388h-8.084
			c0,0,0.564-3.571,2.068-4.887c1.506-1.503,6.016-2.632,6.016-2.632V423.388L358.216,423.388z"/>
		<path fill="#03446C" d="M353.14,406.658c0-1.129,0.939-2.256,2.254-2.256c1.316,0,2.447,1.127,2.447,2.256
			c0,1.315-1.131,2.442-2.447,2.442C354.08,409.101,353.14,407.974,353.14,406.658z"/>
		<path fill="#03446C" d="M348.443,406.658c0-1.129,1.127-2.256,2.443-2.256c1.314,0,2.254,1.127,2.254,2.256
			c0,1.315-0.939,2.442-2.254,2.442C349.57,409.101,348.443,407.974,348.443,406.658z"/>
		<path fill="#03446C" d="M206.51,442.189c0,1.314,1.127,2.443,2.443,2.443c1.128,0,2.256-1.129,2.256-2.443
			c0-1.316-1.127-2.258-2.256-2.258C207.637,439.931,206.51,440.873,206.51,442.189z"/>
		<path fill="#03446C" d="M180.378,415.681c0-1.315,0.94-2.443,2.256-2.443c1.316,0,2.445,1.128,2.445,2.443
			c0,1.316-1.129,2.257-2.445,2.257C181.318,417.938,180.378,416.998,180.378,415.681z"/>
		<path fill="#03446C" d="M175.679,415.681c0-1.315,1.127-2.443,2.443-2.443s2.256,1.128,2.256,2.443
			c0,1.316-0.94,2.257-2.256,2.257S175.679,416.998,175.679,415.681z"/>
		<path fill="#03446C" d="M152.556,425.457c-5.076,1.316-7.895,5.266-7.895,10.527h9.963c0,0,0.188,3.762-2.821,5.264
			c-3.007,1.691-7.143,0-9.023-2.633c0,0-0.188,0.564,0.376,1.131c0.376,0.375,3.948,7.141,11.656,4.32c0,0,3.572-1.127,3.572-5.826
			c0-3.947,0.187-17.107,0.187-17.107S157.632,423.953,152.556,425.457z M154.436,432.037h-3.948c0,0,0.565-1.693,1.881-2.07
			c1.127-0.375,2.067-0.75,2.067-0.75V432.037z"/>
		<path fill="#03446C" d="M141.84,404.214c0,0-1.691,1.127-2.443,1.879c-0.564,0.564-1.692,1.88-1.692,4.136
			c0,2.257,0,24.439,0,24.439s1.128,5.826-5.263,6.393c-6.392,0.75-6.58-8.463-5.64-10.717c0,0,0.188-1.693-0.751-0.562
			c-0.752,1.127-5.077,13.725,6.579,14.852c0,0,8.836,0.939,8.836-10.34C141.465,423.013,141.84,404.214,141.84,404.214z"/>
		<path fill="#03446C" d="M165.527,457.603h3.008v-3.57c0,0,0.376-2.068,1.879-3.574c2.256-1.691,2.445-2.066,2.445-2.066v9.213
			h4.512v3.383h-4.512v6.77c0,1.314,0.188,2.254,0.564,2.631c0.563,0.562,1.127,0.75,2.256,0.75h1.692v3.387h-3.948
			c-1.504,0-2.632-0.375-3.572-1.316c-0.752-0.941-1.316-2.258-1.316-3.945v-8.273h-3.008V457.603z"/>
		<path fill="#03446C" d="M184.138,470.761c-0.375-0.188-0.563-0.562-0.563-1.314c0-0.562,0.188-1.127,0.563-1.502
			c0.376-0.189,1.129-0.377,2.068-0.377h5.076v3.568h-5.452C185.079,471.136,184.327,470.949,184.138,470.761z M180.191,461.175
			h7.143c1.505,0,2.445,0.188,3.008,0.562c0.564,0.375,0.94,1.131,0.94,2.068v0.375h-5.639c-2.256,0-3.948,0.564-4.888,1.316
			c-1.127,0.752-1.503,2.256-1.503,4.137c0,1.502,0.376,2.818,1.316,3.57c0.751,0.939,2.067,1.314,3.571,1.314h11.468v-10.523
			c0-2.258-0.565-3.76-1.692-4.893c-1.129-0.939-2.632-1.502-4.888-1.502h-8.835L180.191,461.175L180.191,461.175z"/>
		<path fill="#03446C" d="M197.486,456.099c0,0,0.563,1.504,3.196,1.504c0.94,0,3.948,0,3.948,0c1.691,0,3.007,0.375,3.571,0.939
			c1.128,0.939,1.692,2.443,1.692,3.947h-3.759c0,0,0-1.693-1.316-1.693c-0.376,0-3.008,0-3.008,0v13.727h-4.323L197.486,456.099
			L197.486,456.099z"/>
		<path fill="#03446C" d="M152.932,470.761c-0.376-0.188-0.563-0.562-0.563-1.314c0-0.562,0.188-1.127,0.563-1.502
			c0.564-0.189,1.127-0.377,2.067-0.377h5.076v3.568h-5.263C153.872,471.136,153.12,470.949,152.932,470.761z M149.173,461.175
			h7.143c1.316,0,2.445,0.188,3.008,0.562c0.564,0.375,0.751,1.131,0.751,2.068v0.375h-5.639c-2.256,0-3.948,0.564-4.888,1.316
			s-1.503,2.256-1.503,4.137c0,1.502,0.376,2.818,1.316,3.57c0.752,0.939,2.067,1.314,3.759,1.314h11.467v-10.523
			c0-2.258-0.563-3.76-1.691-4.893c-1.129-0.939-2.821-1.502-5.076-1.502h-8.647V461.175L149.173,461.175z"/>
		<path fill="#03446C" d="M131.313,469.07c0.563,0.939,1.505,1.504,2.445,1.691c0-1.316,0-2.818,0-2.818h3.947
			c0,0.75,0,1.691,0,2.818c1.128-0.188,1.88-0.752,2.632-1.691c0.939-1.314,1.316-3.385,1.316-6.016
			c0-2.818-0.376-4.891-1.316-6.205c-1.127-1.314-2.632-1.879-4.512-1.879c-2.067,0-3.572,0.564-4.512,1.879
			s-1.503,3.387-1.503,6.205C129.81,465.687,130.373,467.755,131.313,469.07z M144.849,471.136c0,0-0.376,0.566-1.316,1.506
			c-0.752,0.562-1.692,1.127-1.692,1.127c-0.751,0.379-1.691,0.754-2.631,0.941c-0.376,0-0.752,0.188-1.129,0.188
			c0.376,1.314,0.94,2.258,2.256,2.818c2.443,0.939,5.828,0.939,8.647-2.441l0.563,0.188c0,0-2.631,5.451-8.083,5.639
			c-1.316,0-4.512-0.562-6.017-2.818c-0.751-1.127-1.127-2.068-1.316-3.385c-3.007-0.188-5.076-1.129-6.579-2.818
			c-1.88-1.881-2.632-5.076-2.632-9.023c0-4.135,0.752-7.145,2.632-9.211c1.692-1.881,4.512-2.82,8.271-2.82
			c3.76,0,6.392,0.939,8.271,2.82c1.692,2.066,2.632,5.076,2.632,9.211c0,1.691-0.187,3.195-0.376,4.512
			C145.976,468.882,145.412,470.199,144.849,471.136z"/>
		<path fill="#03446C" d="M269.485,456.099c0,0,0.563,1.504,3.196,1.504c0.94,0,3.948,0,3.948,0c1.692,0,3.008,0.375,3.572,0.939
			c1.127,0.939,1.692,2.443,1.692,3.947h-3.761c0,0,0-1.693-1.316-1.693c-0.375,0-3.007,0-3.007,0v13.727h-4.324V456.099z"/>
		<path fill="#03446C" d="M256.326,457.603h3.008v-3.57c0,0,0.376-2.068,1.879-3.574c2.256-1.691,2.443-2.066,2.443-2.066v9.213
			h4.512v3.383h-4.512v6.77c0,1.314,0.189,2.254,0.565,2.631c0.564,0.562,1.127,0.75,2.256,0.75h1.691v3.387h-3.947
			c-1.504,0-2.632-0.375-3.572-1.316c-0.752-0.941-1.316-2.258-1.316-3.945v-8.273h-3.008L256.326,457.603L256.326,457.603z"/>
		<path fill="#03446C" d="M234.332,456.289c0.564,0.561,0.94,1.502,0.94,2.631c0,1.127-0.376,2.066-0.94,2.633
			c-0.752,0.562-1.692,0.75-3.196,0.75h-5.64v-6.768h5.452C232.452,455.535,233.579,455.722,234.332,456.289z M220.985,474.521
			h4.511v-8.082h5.64c1.88,0,3.383-0.189,4.323-0.379c0.94-0.188,1.692-0.562,2.445-1.127c0.94-0.562,1.503-1.504,1.879-2.443
			c0.564-0.938,0.752-2.068,0.752-3.57c0-1.316-0.376-2.631-0.752-3.76c-0.563-1.129-1.316-1.881-2.256-2.631
			c-0.752-0.379-1.503-0.566-2.443-0.756c-1.128-0.186-2.444-0.375-4.137-0.375h-5.827c-2.632,0-4.136-2.068-4.136-2.068
			L220.985,474.521L220.985,474.521z"/>
		<path fill="#03446C" d="M248.807,474.521c-2.632,0-4.701-0.752-6.016-2.068c-1.316-1.504-2.068-3.57-2.068-6.393
			c0-2.82,0.752-4.887,2.068-6.391c1.315-1.316,3.383-2.066,6.016-2.066h6.203v3.57h-5.639c-1.503,0-2.443,0.189-3.008,0.564
			c-0.563,0.562-0.94,1.314-0.94,2.633h9.587v3.383h-9.587c0,1.316,0.376,2.066,0.752,2.633c0.564,0.375,1.692,0.562,3.196,0.562
			h5.639v3.572H248.807z"/>
		<path fill="#03446C" d="M288.096,462.302c0.752-0.938,1.692-1.314,3.008-1.314s2.256,0.377,3.007,1.314
			c0.752,0.939,1.128,2.254,1.128,3.76c0,1.693-0.376,2.82-1.128,3.76c-0.751,0.939-1.691,1.314-3.007,1.314
			s-2.256-0.375-3.008-1.314c-0.751-0.939-1.127-2.066-1.127-3.76C286.969,464.556,287.345,463.24,288.096,462.302z
			 M297.308,459.669c-1.503-1.504-3.571-2.443-6.203-2.443s-4.7,0.939-6.204,2.443c-1.692,1.693-2.443,3.76-2.443,6.393
			s0.751,4.699,2.443,6.393c1.504,1.504,3.572,2.443,6.204,2.443s4.7-0.939,6.203-2.443c1.505-1.691,2.445-3.76,2.445-6.393
			S298.812,461.363,297.308,459.669z"/>
		<path fill="#03446C" d="M315.167,474.521c-2.631,0-4.703-0.752-6.016-2.068c-1.504-1.504-2.068-3.57-2.068-6.393
			c0-2.82,0.564-4.887,2.068-6.391c1.312-1.316,3.385-2.066,6.016-2.066h6.203v3.57h-5.641c-1.502,0-2.633,0.189-3.008,0.564
			c-0.562,0.562-0.941,1.314-0.941,2.633h9.59v3.383h-9.59c0,1.316,0.379,2.066,0.756,2.633c0.561,0.375,1.502,0.562,3.193,0.562
			h5.641v3.572H315.167z"/>
		<path fill="#03446C" d="M337.724,474.521h-8.082c-2.443,0-4.135-0.562-5.076-1.502c-1.129-0.941-1.689-2.445-1.689-4.701v-10.715
			h4.32v10.34c0,1.127,0.188,1.877,0.566,2.256c0.375,0.375,1.127,0.562,2.254,0.562h3.385v-13.158h4.322V474.521L337.724,474.521z"
			/>
		<path fill="#03446C" d="M339.041,455.91c0,0,0.939,1.693,4.512,1.693c3.008,0,12.031,0,12.031,0c2.258,0,3.947,0.375,5.076,1.502
			c1.127,0.941,1.504,2.447,1.504,4.701v10.715h-4.137v-10.15c0-1.316-0.186-2.068-0.561-2.443
			c-0.379-0.375-1.131-0.562-2.258-0.562h-2.443v13.158h-4.322v-13.158h-5.076v13.158h-4.326V455.91L339.041,455.91z"/>
		<path fill="#03446C" d="M301.069,454.031c0,0,0.375-2.068,1.878-3.574c2.258-1.689,2.443-2.064,2.443-2.064v26.693h-4.321V454.031
			L301.069,454.031z"/>
		<path fill="#03446C" d="M437.546,455.16c6.205,6.393,12.783,12.971,21.432,14.1c4.137,0.562,8.082,0.188,11.656-1.129v6.58H387.73
			v-20.117c11.844,6.203,28.387,6.771,40.043,3.949C431.156,457.603,434.539,456.474,437.546,455.16z"/>
		<path fill="#03446C" d="M444.878,456.662c-0.938-1.127-2.256-2.256-3.383-3.572c1.693-0.938,3.572-1.877,5.074-3.008
			c4.701,3.949,9.59,7.145,15.227,7.896c3.01,0.375,6.021,0.564,8.838,0v5.828C461.986,467.755,452.587,464.371,444.878,456.662z"/>
		<path fill="#03446C" d="M470.634,424.892v28.766c-2.816,0.561-5.828,0.561-8.082,0.188c-4.891-0.756-9.021-3.197-12.598-6.207
			C458.792,440.873,465.746,432.412,470.634,424.892z"/>
		<path fill="#39B08C" d="M428.148,420.38c-15.791,0-30.078-6.391-40.418-16.73v46.622c0.377,0.186,0.941,0.375,1.506,0.752
			c15.037,7.709,30.83,7.143,44.93,1.127c-6.393-6.391-12.783-11.654-20.869-9.4c-1.689,0.566-3.76,1.504-5.076,2.633
			c-0.375,0.566-0.938,0.754-1.688,0.754c-1.131,0-2.07-0.939-2.07-2.068c0-0.562,0.189-1.129,0.564-1.504
			c0,0,0.752-0.752,2.066-1.502c12.033-7.896,22.561,0.371,31.021,9.211c1.689-0.941,3.383-1.881,5.076-3.01
			c-9.402-9.021-17.484-19.551-27.449-15.791c-1.877,0.564-3.76,1.883-5.076,3.385c-0.375,0.375-1.127,0.752-1.689,0.752
			c-1.129,0-2.068-0.939-2.068-2.068c0-0.562,0.188-1.127,0.564-1.502c0,0,0.188-0.189,0.375-0.566
			c11.094-10.903,23.311-2.254,32.145,6.77c2.258,2.066,4.514,4.51,6.77,6.768c9.775-6.955,18.236-16.73,23.875-27.635v-16.166
			C460.294,413.049,445.068,420.38,428.148,420.38z"/>
		<path fill="#39B08C" d="M428.148,360.788c0,0,7.145,7.895,11.842,14.663c4.514,6.768,8.086,13.723,8.086,20.867
			c0,7.708-2.633,11.843-5.266,14.476c-3.193,3.196-9.398,6.204-14.662,5.452c0,0,6.955,0.376,12.031-4.699
			c3.947-4.136,5.264-9.023,5.264-14.1c0-5.452-3.76-12.408-7.896-17.86c-3.76-5.263-10.715-12.407-10.715-12.407
			s-7.145,8.647-10.902,15.979c-3.57,6.957-5.266,12.407-5.074,17.295c0,0-1.129-3.76,0.938-11.28
			c1.881-6.767,4.889-11.843,7.896-16.73C423.261,366.992,428.148,360.788,428.148,360.788z"/>
		<path fill="#03446C" d="M428.148,371.691c0,0-6.955,6.579-10.904,14.476c-3.947,7.895-4.697,11.279-3.006,18.235
			c1.691,7.144,9.965,9.773,9.965,9.773s-7.896-5.639-8.086-15.039c-0.188-9.398,3.949-15.603,5.266-18.046
			C422.697,378.646,428.148,371.691,428.148,371.691z"/>
		<path fill="#03446C" d="M240.16,406.845c-0.752,0.565-1.505,1.881-1.505,3.572c0,1.505,0,22.182,0,22.182h-8.083v-0.375
			l0.188-27.634c0,0-0.94,0.752-1.692,1.504h-0.188c-0.188,0.188-0.563,0.564-0.752,0.564c-0.751,0.752-1.503,2.067-1.503,3.572
			c0,1.691,0,22.369,0,22.369h-7.332v-9.021c0,0-1.692,1.314-2.256,1.881c-0.752,0.562-1.879,1.691-1.879,3.57
			c0,1.881,0,3.76,0,3.76H185.08v-12.031c0,0-2.069,2.068-3.948,2.632c-1.88,0.375-8.46,0.564-9.587,7.145
			c0,0,0.563,9.398-3.008,10.715c-2.632,0.941-5.639,0.941-8.271-2.258l-0.563,0.189c0,0,4.699,8.834,11.843,4.512
			c0,0,3.196-1.502,3.383-7.52c0.376-7.332,2.068-7.332,4.136-8.082c0,0,1.692-0.566,1.692,1.127c0,2.254,0,7.33,0,7.33h61.849
			V404.59C242.603,404.589,240.911,406.094,240.16,406.845z"/>
	</g>
</g>
</svg>
