<?xml version="1.0" encoding="utf-8"?>
<!-- Generator: Adobe Illustrator 16.0.0, SVG Export Plug-In . SVG Version: 6.00 Build 0)  -->
<!DOCTYPE svg PUBLIC "-//W3C//DTD SVG 1.1//EN" "http://www.w3.org/Graphics/SVG/1.1/DTD/svg11.dtd">
<svg version="1.1" id="Layer_1" xmlns="http://www.w3.org/2000/svg" xmlns:xlink="http://www.w3.org/1999/xlink" x="0px" y="0px"
	 width="143.236px" height="134.59px" viewBox="231.302 287.965 143.236 134.59"
	 enable-background="new 231.302 287.965 143.236 134.59" xml:space="preserve">
<g>
	<polygon fill="#ED1C24" points="330.158,389.167 330.158,422.555 336.995,422.555 336.995,408.549 342.922,408.549 
		342.922,422.555 349.727,422.555 349.727,389.167 342.926,389.167 342.926,402.468 336.993,402.468 336.993,389.167 	"/>
	<polygon fill="#ED1C24" points="277.42,389.167 277.42,422.555 283.68,422.555 283.68,401.328 287.356,422.555 291.523,422.555 
		295.261,401.328 295.261,422.555 301.545,422.555 301.545,389.167 292.232,389.167 289.479,405.219 286.729,389.167 	"/>
	<polygon fill="#ED1C24" points="238.101,389.167 242.266,404.083 246.433,389.167 253.229,389.167 245.898,411.599 
		245.898,422.555 238.637,422.555 238.637,411.599 231.302,389.167 	"/>
	<path fill="#ED1C24" d="M267.672,389.167h-9.047l-5.944,33.388h6.757l1.141-7.942h5.107l1.141,7.942h6.797L267.672,389.167z
		 M263.132,396.713l1.69,11.833h-3.382L263.132,396.713z"/>
	<path fill="#ED1C24" d="M320.367,389.167h-9.048l-5.946,33.388h6.76l1.141-7.942h5.107l1.141,7.942h6.797L320.367,389.167z
		 M315.829,396.713l1.688,11.833h-3.38L315.829,396.713z"/>
	<path fill="#ED1C24" d="M368.586,389.167h-9.05l-5.944,33.388h6.761l1.14-7.942h5.108l1.141,7.942h6.797L368.586,389.167z
		 M364.048,396.713l1.688,11.833h-3.38L364.048,396.713z"/>
	<g>
		<g>
			
				<radialGradient id="SVGID_1_" cx="-3374.334" cy="4016.0557" r="385.5374" fx="-3389.877" fy="4038.2595" gradientTransform="matrix(0.1284 0 0 -0.1284 722.3654 823.173)" gradientUnits="userSpaceOnUse">
				<stop  offset="0" style="stop-color:#FAD5E5"/>
				<stop  offset="0.0763" style="stop-color:#FAD2DE"/>
				<stop  offset="0.1652" style="stop-color:#FAC8CF"/>
				<stop  offset="0.2606" style="stop-color:#F9B9B9"/>
				<stop  offset="0.3603" style="stop-color:#F7A49C"/>
				<stop  offset="0.4636" style="stop-color:#F58A7A"/>
				<stop  offset="0.5698" style="stop-color:#F26A57"/>
				<stop  offset="0.6764" style="stop-color:#EF3C30"/>
				<stop  offset="0.7191" style="stop-color:#ED1C24"/>
				<stop  offset="1" style="stop-color:#CE181E"/>
			</radialGradient>
			<path fill="url(#SVGID_1_)" d="M259.893,331.019c0-23.775,19.264-43.054,43.028-43.054c23.76,0,43.028,19.279,43.028,43.054
				s-19.269,43.05-43.028,43.05C279.157,374.069,259.893,354.794,259.893,331.019z"/>
		</g>
		<path d="M302.921,373.257c22.812,0,41.306-18.505,41.306-41.331c0-22.824-18.494-41.331-41.306-41.331
			c-22.813,0-41.307,18.507-41.307,41.331C261.615,354.752,280.108,373.257,302.921,373.257z M337.967,352.171
			c-0.176,0.308-0.512,0.464-0.844,0.426l-5.755-1.276c-6.2,9.083-16.626,15.045-28.447,15.045
			c-11.821,0-22.249-5.962-28.447-15.042l-5.749,1.269c-0.332,0.042-0.673-0.113-0.852-0.423c-0.174-0.306-0.145-0.675,0.052-0.942
			l3.978-4.349c-2.182-4.521-3.406-9.595-3.406-14.954c0-18.158,14.045-33.031,31.856-34.348l1.773-5.617
			c0.13-0.308,0.436-0.527,0.794-0.527c0.353,0,0.657,0.215,0.787,0.52l1.777,5.625c17.814,1.313,31.857,16.19,31.857,34.348
			c0,5.359-1.223,10.431-3.403,14.954l3.972,4.341C338.109,351.488,338.146,351.863,337.967,352.171z"/>
		<path d="M337.16,351.411l-8.655-9.244c-1.207,0.52-2.632,0.482-3.857-0.225c-1.223-0.705-1.965-1.92-2.122-3.22l-0.001,0.015
			c-0.234-1.95-1.353-3.77-3.182-4.829l-3.506-2.027l15.635-9.031l-1.721-2.986l-17.361,10.029l-3.016-1.742v-3.475l17.364-10.031
			l-1.724-2.983l-15.642,9.037v-4.052c0-2.121-1.018-4-2.59-5.178l0.015,0.005c-1.046-0.787-1.726-2.039-1.726-3.449
			c0-1.416,0.681-2.669,1.731-3.456l0.004-0.007l-3.674-12.114c-0.018-0.095-0.096-0.215-0.215-0.215
			c-0.121,0-0.215,0.096-0.215,0.215l-3.675,12.121c1.054,0.787,1.736,2.041,1.736,3.456c0,1.41-0.681,2.662-1.727,3.449
			l0.015-0.005c-1.573,1.178-2.592,3.057-2.592,5.178v4.044l-15.637-9.031l-1.722,2.985l17.358,10.027v3.484l-3.011,1.736
			l-17.36-10.029l-1.722,2.983l15.643,9.035l-3.528,2.037l0.021-0.009c-1.835,1.06-2.952,2.881-3.182,4.833l-0.007-0.015
			c-0.156,1.299-0.898,2.514-2.119,3.219c-1.225,0.707-2.653,0.744-3.859,0.225l-0.011,0.003l-8.645,9.239
			c-0.076,0.063-0.137,0.189-0.082,0.293c0.063,0.104,0.193,0.139,0.297,0.08l12.329-2.877c0.152-1.302,0.898-2.523,2.123-3.23
			c1.221-0.707,2.644-0.744,3.848-0.228l-0.011-0.011c1.805,0.774,3.937,0.716,5.77-0.341l3.508-2.026v18.065h3.445v-20.054
			l3.013-1.742l3.011,1.738v20.058h3.441v-18.069l3.509,2.026c1.833,1.059,3.972,1.117,5.774,0.341l-0.013,0.011
			c1.206-0.516,2.628-0.479,3.851,0.23c1.223,0.705,1.969,1.925,2.122,3.228l0.006,0.009l12.321,2.872
			c0.093,0.035,0.233,0.024,0.293-0.08C337.297,351.6,337.264,351.47,337.16,351.411z M302.921,335.36l-3.013-1.74v-3.48
			l3.013-1.738l3.011,1.738v3.48L302.921,335.36z M299.909,316.646c0-1.666,1.349-3.017,3.013-3.017
			c1.662,0,3.011,1.351,3.011,3.017v6.04l-3.011,1.736l-3.013-1.742V316.646z M291.238,342.109c-1.44,0.831-3.284,0.338-4.115-1.102
			c-0.831-1.443-0.337-3.285,1.104-4.118l5.226-3.02l3.011,1.74v3.484L291.238,342.109z M318.72,341.007
			c-0.833,1.44-2.675,1.933-4.118,1.102l-5.228-3.02v-3.475l3.016-1.742l5.226,3.017
			C319.058,337.722,319.551,339.564,318.72,341.007z M319.339,333.905c0,0,0.003,0,0.004,0.002l0.016,0.009L319.339,333.905z
			 M312.902,345.103l-0.021-0.011l0,0L312.902,345.103z M292.961,345.096c-0.002,0-0.002,0-0.005,0l-0.015,0.011L292.961,345.096z"
			/>
		
			<radialGradient id="SVGID_2_" cx="-4786.3877" cy="4062.165" r="1527.2584" gradientTransform="matrix(0.0642 0 0 -0.0642 569.9249 553.0416)" gradientUnits="userSpaceOnUse">
			<stop  offset="0" style="stop-color:#E3EAEE"/>
			<stop  offset="0.2576" style="stop-color:#F1F4F6"/>
			<stop  offset="0.3876" style="stop-color:#FFFFFF"/>
			<stop  offset="0.4658" style="stop-color:#F6F7F9"/>
			<stop  offset="0.5397" style="stop-color:#E5E7ED"/>
			<stop  offset="0.6119" style="stop-color:#CDD2DB"/>
			<stop  offset="0.6825" style="stop-color:#AEB6C4"/>
			<stop  offset="0.7416" style="stop-color:#909BAC"/>
			<stop  offset="0.7696" style="stop-color:#A1AABA"/>
			<stop  offset="0.8478" style="stop-color:#CED4DF"/>
			<stop  offset="0.8876" style="stop-color:#E2E6EE"/>
			<stop  offset="0.9048" style="stop-color:#D6DDE6"/>
			<stop  offset="0.9328" style="stop-color:#B9C4D1"/>
			<stop  offset="0.9679" style="stop-color:#8E9EB0"/>
			<stop  offset="1" style="stop-color:#667A8E"/>
		</radialGradient>
		<path fill="url(#SVGID_2_)" d="M302.921,372.348c22.812,0,41.306-18.503,41.306-41.329s-18.494-41.331-41.306-41.331
			c-22.813,0-41.307,18.505-41.307,41.331C261.614,353.845,280.108,372.348,302.921,372.348z M337.967,351.262
			c-0.176,0.308-0.512,0.464-0.844,0.427l-5.755-1.276c-6.2,9.083-16.626,15.047-28.447,15.047c-11.821,0-22.249-5.96-28.447-15.043
			l-5.749,1.271c-0.332,0.043-0.673-0.113-0.852-0.423c-0.174-0.306-0.145-0.677,0.052-0.944l3.978-4.347
			c-2.182-4.521-3.406-9.597-3.406-14.954c0-18.158,14.045-33.033,31.856-34.348l1.773-5.617c0.13-0.31,0.436-0.527,0.794-0.527
			c0.353,0,0.657,0.213,0.787,0.52l1.777,5.625c17.814,1.315,31.857,16.19,31.857,34.348c0,5.357-1.223,10.43-3.403,14.954
			l3.972,4.339C338.109,350.58,338.146,350.954,337.967,351.262z"/>
		
			<linearGradient id="SVGID_3_" gradientUnits="userSpaceOnUse" x1="-3694.4893" y1="4112.5703" x2="-3245.231" y2="3663.312" gradientTransform="matrix(0.1284 0 0 -0.1284 747.5548 829.3391)">
			<stop  offset="0" style="stop-color:#FFFFFF"/>
			<stop  offset="1" style="stop-color:#58595B"/>
		</linearGradient>
		<path fill="url(#SVGID_3_)" d="M302.919,372.352c22.813,0,41.308-18.505,41.308-41.331c0-22.824-18.494-41.331-41.308-41.331
			c-22.812,0-41.308,18.506-41.308,41.331C261.611,353.847,280.107,372.352,302.919,372.352z M261.819,331.028
			c0-22.675,18.438-41.123,41.101-41.123s41.1,18.448,41.1,41.123c0,22.675-18.438,41.123-41.1,41.123
			S261.819,353.704,261.819,331.028z"/>
		
			<linearGradient id="SVGID_4_" gradientUnits="userSpaceOnUse" x1="-3288.5322" y1="3680.7627" x2="-3628.5732" y2="4020.8037" gradientTransform="matrix(0.1284 0 0 -0.1284 747.5548 829.3391)">
			<stop  offset="0" style="stop-color:#FFFFFF"/>
			<stop  offset="1" style="stop-color:#58595B"/>
		</linearGradient>
		<path fill="url(#SVGID_4_)" d="M338.062,350.175l-3.882-4.239c2.233-4.677,3.369-9.693,3.369-14.915
			c0-8.807-3.303-17.199-9.306-23.633c-5.938-6.367-13.958-10.233-22.604-10.908l-1.732-5.493l-0.003-0.013l-0.006-0.007
			c-0.169-0.394-0.551-0.646-0.979-0.646c-0.43,0-0.816,0.26-0.981,0.653c-0.007,0.019-1.477,4.667-1.74,5.506
			c-8.645,0.675-16.667,4.542-22.603,10.908c-6.003,6.438-9.306,14.826-9.306,23.633c0,5.222,1.135,10.238,3.369,14.917
			l-3.885,4.245l-0.007,0.007l-0.006,0.011c-0.254,0.341-0.28,0.801-0.067,1.169c0.215,0.375,0.629,0.579,1.056,0.525
			c0.019-0.002,4.771-1.054,5.632-1.245c6.478,9.408,17.134,15.02,28.538,15.02c11.406,0,22.062-5.612,28.538-15.021l5.621,1.247
			l0.011,0.001h0.012c0.424,0.048,0.835-0.159,1.047-0.526C338.362,350.997,338.332,350.535,338.062,350.175z M337.965,351.266
			c-0.174,0.309-0.512,0.464-0.842,0.427l-5.755-1.276c-6.2,9.083-16.626,15.045-28.449,15.045
			c-11.819,0-22.247-5.962-28.445-15.043l-5.751,1.271c-0.33,0.042-0.671-0.115-0.85-0.423c-0.178-0.306-0.145-0.675,0.052-0.942
			l3.978-4.349c-2.182-4.523-3.406-9.595-3.406-14.954c0-18.158,14.043-33.031,31.856-34.348l1.773-5.617
			c0.13-0.308,0.436-0.527,0.792-0.527c0.354,0,0.659,0.215,0.789,0.52l1.777,5.625c17.814,1.313,31.857,16.19,31.857,34.348
			c0,5.359-1.223,10.431-3.404,14.954l3.971,4.341C338.109,350.583,338.144,350.958,337.965,351.266z"/>
		
			<linearGradient id="SVGID_5_" gradientUnits="userSpaceOnUse" x1="-4455.709" y1="3725.4834" x2="-4455.709" y2="3769.4944" gradientTransform="matrix(-0.1284 0 0 -0.1284 -235.9992 829.3508)">
			<stop  offset="0" style="stop-color:#FFFFFF"/>
			<stop  offset="1" style="stop-color:#808285"/>
		</linearGradient>
		<path fill="url(#SVGID_5_)" d="M334.181,345.957l-0.264,0.037l3.944,4.271c0,0,0.224,0.308,0.224,0.653h0.225
			c0.015-0.401-0.358-0.869-0.366-0.876C337.781,349.86,334.181,345.957,334.181,345.957z"/>
		
			<linearGradient id="SVGID_6_" gradientUnits="userSpaceOnUse" x1="-4702.2192" y1="3144.5693" x2="-4596.4907" y2="3144.5693" gradientTransform="matrix(0.0642 0 0 -0.0642 569.9249 553.0416)">
			<stop  offset="0" style="stop-color:#BCBEC0"/>
			<stop  offset="0.0503" style="stop-color:#CACCCD"/>
			<stop  offset="0.1368" style="stop-color:#DCDDDF"/>
			<stop  offset="0.2386" style="stop-color:#EAEBEC"/>
			<stop  offset="0.3637" style="stop-color:#F4F5F5"/>
			<stop  offset="0.5374" style="stop-color:#FCFCFC"/>
			<stop  offset="1" style="stop-color:#FFFFFF"/>
		</linearGradient>
		<path fill="url(#SVGID_6_)" d="M267.7,351.37c0.211,0.375,0.627,0.579,1.056,0.525c0.017-0.002,4.77-1.054,5.632-1.245
			l0.091-0.233l-5.751,1.272c-0.33,0.042-0.672-0.115-0.85-0.423L267.7,351.37z"/>
		
			<linearGradient id="SVGID_7_" gradientUnits="userSpaceOnUse" x1="-4704.4355" y1="3183.625" x2="-4636.6411" y2="3183.625" gradientTransform="matrix(0.0642 0 0 -0.0642 569.9249 553.0416)">
			<stop  offset="0" style="stop-color:#BCBEC0"/>
			<stop  offset="0.0563" style="stop-color:#ACAEB0"/>
			<stop  offset="0.1686" style="stop-color:#929497"/>
			<stop  offset="0.2897" style="stop-color:#7E7F82"/>
			<stop  offset="0.4206" style="stop-color:#6E6F72"/>
			<stop  offset="0.566" style="stop-color:#626365"/>
			<stop  offset="0.7375" style="stop-color:#5A5B5E"/>
			<stop  offset="1" style="stop-color:#58595B"/>
		</linearGradient>
		<path fill="url(#SVGID_7_)" d="M267.878,351.266c-0.176-0.306-0.145-0.677,0.052-0.944l3.978-4.347l-0.245-0.039l-3.885,4.247
			l-0.007,0.007l-0.007,0.007c-0.252,0.345-0.278,0.802-0.063,1.173L267.878,351.266z"/>
		
			<linearGradient id="SVGID_8_" gradientUnits="userSpaceOnUse" x1="-4455.709" y1="3725.4834" x2="-4455.709" y2="3769.4944" gradientTransform="matrix(-0.1284 0 0 -0.1284 -235.9992 829.3508)">
			<stop  offset="0" style="stop-color:#FFFFFF"/>
			<stop  offset="1" style="stop-color:#A7A9AC"/>
		</linearGradient>
		<path fill="url(#SVGID_8_)" d="M334.181,345.957l-0.264,0.037l3.944,4.271c0,0,0.224,0.308,0.224,0.653h0.225
			c0.015-0.401-0.358-0.869-0.366-0.876C337.781,349.86,334.181,345.957,334.181,345.957z"/>
		
			<radialGradient id="SVGID_9_" cx="-4786.293" cy="4062.1807" r="1527.2903" gradientTransform="matrix(0.0642 0 0 -0.0642 569.9249 553.0416)" gradientUnits="userSpaceOnUse">
			<stop  offset="0" style="stop-color:#E3EAEE"/>
			<stop  offset="0.2576" style="stop-color:#F1F4F6"/>
			<stop  offset="0.3876" style="stop-color:#FFFFFF"/>
			<stop  offset="0.4658" style="stop-color:#F6F7F9"/>
			<stop  offset="0.5397" style="stop-color:#E5E7ED"/>
			<stop  offset="0.6119" style="stop-color:#CDD2DB"/>
			<stop  offset="0.6825" style="stop-color:#AEB6C4"/>
			<stop  offset="0.7416" style="stop-color:#909BAC"/>
			<stop  offset="0.7696" style="stop-color:#A1AABA"/>
			<stop  offset="0.8478" style="stop-color:#CED4DF"/>
			<stop  offset="0.8876" style="stop-color:#E2E6EE"/>
			<stop  offset="0.9048" style="stop-color:#D6DDE6"/>
			<stop  offset="0.9328" style="stop-color:#B9C4D1"/>
			<stop  offset="0.9679" style="stop-color:#8E9EB0"/>
			<stop  offset="1" style="stop-color:#667A8E"/>
		</radialGradient>
		<path fill="url(#SVGID_9_)" d="M337.16,350.505l-8.655-9.246c-1.207,0.52-2.632,0.482-3.857-0.226
			c-1.223-0.702-1.965-1.917-2.122-3.217l-0.001,0.015c-0.234-1.952-1.353-3.77-3.182-4.831l-3.506-2.025l15.635-9.031l-1.721-2.986
			l-17.361,10.025l-3.016-1.74v-3.476l17.364-10.029l-1.724-2.983l-15.642,9.035v-4.052c0-2.117-1.018-3.996-2.59-5.174l0.015,0.002
			c-1.046-0.783-1.726-2.037-1.726-3.447c0-1.414,0.681-2.669,1.731-3.454l0.004-0.009l-3.674-12.112
			c-0.018-0.097-0.096-0.215-0.215-0.215c-0.121,0-0.215,0.096-0.215,0.215l-3.675,12.121c1.054,0.785,1.736,2.041,1.736,3.454
			c0,1.41-0.681,2.664-1.727,3.447l0.015-0.002c-1.573,1.178-2.592,3.057-2.592,5.174v4.048l-15.637-9.034l-1.722,2.986
			l17.358,10.029v3.48l-3.011,1.74l-17.36-10.029l-1.722,2.981l15.643,9.037l-3.528,2.037l0.021-0.011
			c-1.835,1.058-2.952,2.881-3.182,4.835l-0.007-0.019c-0.156,1.302-0.898,2.515-2.119,3.22c-1.225,0.708-2.653,0.746-3.859,0.227
			h-0.011l-8.645,9.242c-0.076,0.063-0.137,0.189-0.082,0.293c0.063,0.102,0.193,0.137,0.297,0.078l12.329-2.879
			c0.152-1.302,0.898-2.521,2.123-3.228c1.221-0.705,2.644-0.742,3.848-0.23l-0.011-0.011c1.805,0.776,3.937,0.718,5.77-0.337
			l3.508-2.026v18.065h3.445v-20.058l3.013-1.74l3.011,1.738v20.06h3.441v-18.071l3.509,2.028c1.833,1.057,3.972,1.113,5.774,0.339
			l-0.013,0.013c1.206-0.518,2.628-0.479,3.851,0.227c1.223,0.708,1.969,1.925,2.122,3.231l0.006,0.008l12.321,2.872
			c0.093,0.033,0.233,0.024,0.293-0.078C337.297,350.695,337.264,350.564,337.16,350.505z M302.921,334.455l-3.013-1.74v-3.48
			l3.013-1.74l3.011,1.74v3.48L302.921,334.455z M299.909,315.736c0-1.666,1.349-3.013,3.013-3.013c1.662,0,3.011,1.347,3.011,3.013
			v6.041l-3.011,1.74l-3.013-1.744V315.736z M291.238,341.204c-1.44,0.831-3.284,0.337-4.115-1.105
			c-0.831-1.439-0.337-3.284,1.104-4.115l5.226-3.02l3.011,1.736v3.484L291.238,341.204z M318.72,340.098
			c-0.833,1.443-2.675,1.937-4.118,1.105l-5.228-3.022v-3.475l3.016-1.744l5.226,3.02
			C319.058,336.814,319.551,338.659,318.72,340.098z M319.339,332.997c0,0,0.003,0.003,0.004,0.003l0.016,0.008L319.339,332.997z
			 M312.902,344.194l-0.021-0.007l0,0L312.902,344.194z M292.961,344.187c-0.002,0.003-0.002,0.003-0.005,0.003l-0.015,0.007
			L292.961,344.187z"/>
		<polygon fill="#FFFFFF" points="302.919,334.688 299.699,332.826 299.907,332.707 302.919,334.447 		"/>
		<polygon fill="#FFFFFF" points="306.138,332.826 302.919,334.688 302.919,334.447 305.931,332.707 		"/>
		<polygon fill="#FFFFFF" points="306.138,332.859 306.138,329.142 305.931,329.26 305.931,332.737 		"/>
		<polygon fill="#C7C8CA" points="306.138,329.142 302.917,327.279 302.917,327.52 305.931,329.26 		"/>
		<polygon fill="#58595B" points="299.699,329.142 302.917,327.279 302.917,327.52 299.907,329.26 		"/>
		<polygon fill="#808285" points="299.699,332.859 299.699,329.142 299.907,329.26 299.907,332.737 		"/>
		
			<linearGradient id="SVGID_10_" gradientUnits="userSpaceOnUse" x1="-4409.1685" y1="3318.1621" x2="-4250.8467" y2="3318.1621" gradientTransform="matrix(0.0642 0 0 -0.0642 569.9249 553.0416)">
			<stop  offset="0" style="stop-color:#A7A9AC"/>
			<stop  offset="0.0275" style="stop-color:#B0B2B5"/>
			<stop  offset="0.1091" style="stop-color:#C7C9CB"/>
			<stop  offset="0.2013" style="stop-color:#DBDCDD"/>
			<stop  offset="0.3069" style="stop-color:#EAEAEB"/>
			<stop  offset="0.434" style="stop-color:#F4F4F5"/>
			<stop  offset="0.6043" style="stop-color:#FCFCFC"/>
			<stop  offset="1" style="stop-color:#FFFFFF"/>
		</linearGradient>
		<path fill="url(#SVGID_10_)" d="M286.492,338.547c-0.011,0.583,0.134,1.156,0.434,1.67c0.887,1.54,2.861,2.07,4.4,1.18l5.33-3.076
			l-0.208-0.119l-5.226,3.017c-1.439,0.831-3.285,0.337-4.118-1.106c-0.286-0.492-0.416-1.035-0.404-1.566H286.492L286.492,338.547z
			"/>
		
			<linearGradient id="SVGID_11_" gradientUnits="userSpaceOnUse" x1="-4409.1748" y1="3386.2539" x2="-4300.8789" y2="3386.2539" gradientTransform="matrix(0.0642 0 0 -0.0642 569.9249 553.0416)">
			<stop  offset="0" style="stop-color:#A7A9AC"/>
			<stop  offset="0.1695" style="stop-color:#919395"/>
			<stop  offset="0.3951" style="stop-color:#797B7D"/>
			<stop  offset="0.6135" style="stop-color:#68696B"/>
			<stop  offset="0.8195" style="stop-color:#5C5D5F"/>
			<stop  offset="1" style="stop-color:#58595B"/>
		</linearGradient>
		<path fill="url(#SVGID_11_)" d="M286.7,338.547c0.022-1.018,0.56-2,1.506-2.547l5.231-3.018v-0.241l-5.335,3.08
			c-0.744,0.43-1.276,1.124-1.499,1.955c-0.069,0.256-0.105,0.512-0.111,0.771H286.7L286.7,338.547z"/>
		<path fill="#FFFFFF" d="M319.351,338.508c0.014,0.581-0.134,1.156-0.431,1.671c-0.891,1.536-2.864,2.066-4.4,1.18l-5.331-3.076
			l0.208-0.123l5.229,3.019c1.438,0.831,3.283,0.339,4.116-1.104c0.283-0.494,0.415-1.035,0.401-1.567H319.351L319.351,338.508z"/>
		
			<linearGradient id="SVGID_12_" gradientUnits="userSpaceOnUse" x1="-4005.1243" y1="3386.6328" x2="-3896.8208" y2="3386.6328" gradientTransform="matrix(0.0642 0 0 -0.0642 569.9249 553.0582)">
			<stop  offset="0" style="stop-color:#808285"/>
			<stop  offset="0.1379" style="stop-color:#8A8C8F"/>
			<stop  offset="0.3965" style="stop-color:#A6A8AA"/>
			<stop  offset="0.7448" style="stop-color:#D5D6D8"/>
			<stop  offset="1" style="stop-color:#FFFFFF"/>
		</linearGradient>
		<path fill="url(#SVGID_12_)" d="M319.143,338.538c-0.019-1.018-0.559-2.001-1.503-2.547l-5.234-3.018v-0.239l5.336,3.079
			c0.746,0.427,1.28,1.123,1.503,1.954c0.065,0.254,0.104,0.514,0.106,0.771H319.143z"/>
		<polygon fill="#FFFFFF" points="296.657,338.321 296.655,334.6 296.449,334.718 296.449,338.202 		"/>
		<polygon fill="#C7C8CA" points="293.438,332.741 296.655,334.6 296.449,334.718 293.438,332.982 		"/>
		<polygon fill="#808285" points="309.162,360.007 309.158,341.79 309.368,342.15 309.368,360.215 		"/>
		<polygon fill="#58595B" points="305.926,360.23 309.368,360.23 309.162,360.022 306.135,360.022 		"/>
		<polygon fill="#FFFFFF" points="305.923,340.161 305.926,360.215 306.131,360.007 306.131,340.042 		"/>
		<polygon fill="#C7C8CA" points="302.91,338.184 306.127,340.042 305.923,340.161 302.91,338.425 		"/>
		<polygon fill="#58595B" points="299.697,340.061 302.919,338.198 302.919,338.439 299.901,340.183 		"/>
		<polygon fill="#808285" points="299.697,360.021 299.697,340.061 299.901,340.183 299.907,360.228 		"/>
		<polygon fill="#58595B" points="296.465,360.226 299.916,360.228 299.705,360.021 296.673,360.019 		"/>
		<polygon fill="#FFFFFF" points="296.449,342.154 296.451,360.211 296.659,360.003 296.657,341.793 		"/>
		<path fill="#58595B" d="M296.469,342.174l-3.508,2.024c-1.833,1.054-3.968,1.109-5.773,0.336l0.013,0.013
			c-1.206-0.516-2.63-0.479-3.851,0.226c-1.225,0.708-1.97,1.926-2.123,3.228l-0.185-0.171c0.204-1.367,1.001-2.542,2.204-3.237
			c1.243-0.714,2.712-0.803,4.037-0.237l-0.013-0.013c1.827,0.785,3.866,0.666,5.588-0.323l3.819-2.204L296.469,342.174z"/>
		<path fill="#58595B" d="M268.579,350.776c0.059,0.104,0.191,0.139,0.315,0.096l12.334-2.875l-0.187-0.167l-12.226,2.811
			L268.579,350.776z"/>
		<path fill="#FFFFFF" d="M277.317,341.248l-8.66,9.237c-0.074,0.062-0.137,0.191-0.078,0.292l0.237-0.136l8.549-9.149
			L277.317,341.248z"/>
		<path fill="#FFFFFF" d="M289.993,330.967l-3.512,2.026c-1.831,1.058-2.946,2.879-3.18,4.831l-0.003-0.019
			c-0.156,1.302-0.902,2.516-2.123,3.22c-1.224,0.705-2.655,0.742-3.858,0.223l0.048,0.243c1.274,0.503,2.727,0.399,3.914-0.288
			c1.224-0.707,2.056-1.968,2.223-3.373l0.005,0.015c0.236-1.978,1.356-3.68,3.078-4.675l3.823-2.204L289.993,330.967
			L289.993,330.967z"/>
		<polygon fill="#58595B" points="312.397,332.728 309.173,334.59 309.381,334.71 312.397,332.967 		"/>
		<polygon fill="#808285" points="309.183,338.28 309.183,334.566 309.39,334.685 309.39,338.161 		"/>
		<polygon fill="#FFFFFF" points="324.935,311.028 309.16,320.141 309.366,319.779 325.012,310.746 		"/>
		<polygon fill="#C7C8CA" points="326.73,313.729 325.012,310.746 324.935,311.028 326.448,313.651 		"/>
		<polygon fill="#58595B" points="309.375,323.773 326.739,313.744 326.456,313.666 309.168,323.654 		"/>
		<polygon fill="#808285" points="309.168,327.368 309.168,323.654 309.375,323.773 309.375,327.25 		"/>
		<polygon fill="#FFFFFF" points="312.383,329.216 309.16,327.354 309.368,327.234 312.387,328.975 		"/>
		<polygon fill="#FFFFFF" points="329.668,319.235 312.383,329.216 312.387,328.975 329.743,318.948 		"/>
		<polygon fill="#C7C8CA" points="331.466,321.933 329.743,318.948 329.668,319.235 331.183,321.858 		"/>
		<polygon fill="#58595B" points="315.841,330.976 331.476,321.945 331.191,321.869 315.425,330.976 		"/>
		
			<linearGradient id="SVGID_13_" gradientUnits="userSpaceOnUse" x1="-3958.1985" y1="3374.6162" x2="-3754.3938" y2="3374.6162" gradientTransform="matrix(0.0642 0 0 -0.0642 569.9249 553.0416)">
			<stop  offset="0" style="stop-color:#FFFFFF"/>
			<stop  offset="0.2033" style="stop-color:#FBFBFC"/>
			<stop  offset="0.3081" style="stop-color:#F3F4F4"/>
			<stop  offset="0.3904" style="stop-color:#E8E9EA"/>
			<stop  offset="0.4606" style="stop-color:#D8DADB"/>
			<stop  offset="0.5169" style="stop-color:#C7C8CA"/>
			<stop  offset="0.5243" style="stop-color:#CBCCCE"/>
			<stop  offset="0.5661" style="stop-color:#DDDEDF"/>
			<stop  offset="0.6154" style="stop-color:#EBEBEC"/>
			<stop  offset="0.6765" style="stop-color:#F5F5F5"/>
			<stop  offset="0.7621" style="stop-color:#FCFCFC"/>
			<stop  offset="1" style="stop-color:#FFFFFF"/>
		</linearGradient>
		<path fill="url(#SVGID_13_)" d="M315.829,330.967l3.506,2.026c1.832,1.061,2.946,2.879,3.181,4.831l0.004-0.015
			c0.155,1.299,0.901,2.512,2.122,3.221c1.225,0.705,2.652,0.742,3.858,0.223l-0.056,0.245c-1.287,0.508-2.701,0.404-3.907-0.29
			c-1.242-0.718-2.052-1.948-2.222-3.376l-0.007,0.017c-0.234-1.976-1.355-3.679-3.077-4.675l-3.815-2.206L315.829,330.967
			L315.829,330.967z"/>
		<path fill="#C7C8CA" d="M337.232,350.791c0.06-0.104,0.022-0.234-0.076-0.293l-8.656-9.246l-0.056,0.245l8.551,9.157
			L337.232,350.791z"/>
		<path fill="#808285" d="M324.611,348.008l12.33,2.883c0.089,0.032,0.23,0.022,0.291-0.08l-0.237-0.139l-12.198-2.827
			L324.611,348.008z"/>
		
			<linearGradient id="SVGID_14_" gradientUnits="userSpaceOnUse" x1="-4055.7175" y1="3242.2461" x2="-3812.1707" y2="3242.2461" gradientTransform="matrix(0.0642 0 0 -0.0642 569.9249 553.0416)">
			<stop  offset="0.0112" style="stop-color:#C7C8CA"/>
			<stop  offset="0.1172" style="stop-color:#C4C6C8"/>
			<stop  offset="0.1997" style="stop-color:#BCBEC0"/>
			<stop  offset="0.2744" style="stop-color:#AEB0B3"/>
			<stop  offset="0.3444" style="stop-color:#9C9EA0"/>
			<stop  offset="0.4111" style="stop-color:#858789"/>
			<stop  offset="0.4746" style="stop-color:#696B6D"/>
			<stop  offset="0.5056" style="stop-color:#58595B"/>
			<stop  offset="0.5603" style="stop-color:#6F7073"/>
			<stop  offset="0.7186" style="stop-color:#A7AAAC"/>
			<stop  offset="0.8498" style="stop-color:#D5D6D8"/>
			<stop  offset="0.9472" style="stop-color:#F1F2F2"/>
			<stop  offset="1" style="stop-color:#FFFFFF"/>
		</linearGradient>
		<path fill="url(#SVGID_14_)" d="M309.368,342.15l3.51,2.029c1.833,1.058,3.969,1.113,5.772,0.339l-0.014,0.013
			c1.206-0.518,2.631-0.479,3.853,0.226c1.223,0.709,1.971,1.928,2.122,3.232l0.186-0.163c-0.202-1.354-1.017-2.56-2.204-3.247
			c-1.227-0.708-2.732-0.798-4.036-0.239l0.014-0.013c-1.831,0.785-3.866,0.665-5.588-0.328l-3.821-2.209L309.368,342.15z"/>
		<g>
			<polygon fill="#FFFFFF" points="306.149,315.718 306.146,321.877 305.938,321.758 305.941,315.718 			"/>
			
				<linearGradient id="SVGID_15_" gradientUnits="userSpaceOnUse" x1="-4203.897" y1="3721.6641" x2="-4100.3799" y2="3721.6641" gradientTransform="matrix(0.0642 0 0 -0.0642 569.9366 553.0455)">
				<stop  offset="0" style="stop-color:#808285"/>
				<stop  offset="1" style="stop-color:#FFFFFF"/>
			</linearGradient>
			<path fill="url(#SVGID_15_)" d="M299.686,315.725c0-1.777,1.447-3.22,3.224-3.22c0.861,0,1.67,0.334,2.278,0.942
				c0.608,0.604,0.943,1.417,0.943,2.274h-0.208c0-1.662-1.349-3.009-3.013-3.009c-1.666,0-3.017,1.351-3.017,3.013H299.686
				L299.686,315.725z"/>
			<polygon fill="#808285" points="299.705,315.718 299.705,321.873 299.912,321.754 299.912,315.718 			"/>
			<polygon fill="#FFFFFF" points="299.705,321.873 302.929,323.736 302.929,323.495 299.912,321.754 			"/>
			<polygon fill="#FFFFFF" points="306.146,321.877 302.929,323.736 302.929,323.495 305.938,321.758 			"/>
			<polygon fill="#C7C8CA" points="274.671,321.862 290.447,330.967 290.032,330.969 274.389,321.936 			"/>
			<polygon fill="#FFFFFF" points="276.111,318.957 274.389,321.936 274.671,321.862 276.185,319.239 			"/>
			<polygon fill="#FFFFFF" points="293.479,328.978 276.111,318.957 276.185,319.239 293.479,329.218 			"/>
			<polygon fill="#FFFFFF" points="296.695,327.361 293.479,329.218 293.479,328.978 296.488,327.238 			"/>
			<polygon fill="#FFFFFF" points="296.695,323.639 296.695,327.361 296.488,327.238 296.488,323.756 			"/>
			<polygon fill="#C7C8CA" points="279.409,313.659 296.695,323.639 296.488,323.756 279.124,313.736 			"/>
			<polygon fill="#FFFFFF" points="280.849,310.753 279.124,313.736 279.409,313.659 280.925,311.035 			"/>
			<polygon fill="#FFFFFF" points="296.491,319.779 280.849,310.753 280.925,311.035 296.699,320.137 			"/>
			<path fill="#FFFFFF" d="M296.491,319.779v-4.052c0.002-2.115,1.021-3.99,2.594-5.167l-0.015,0.004
				c1.046-0.787,1.728-2.037,1.728-3.447c0-1.415-0.681-2.669-1.735-3.454l0.241-0.076c1.08,0.863,1.701,2.139,1.701,3.53
				c0,1.434-0.66,2.75-1.811,3.61l0.015-0.002c-1.594,1.189-2.508,3.015-2.51,5.001v4.41L296.491,319.779z"/>
			<path fill="#FFFFFF" d="M302.957,291.33c-0.119,0-0.215,0.097-0.215,0.215l-3.679,12.118l0.241-0.076l3.653-11.982V291.33
				L302.957,291.33z"/>
			<path fill="#FFFFFF" d="M306.839,303.661l-3.667-12.116c-0.017-0.097-0.097-0.215-0.215-0.215v0.274l3.649,11.977
				L306.839,303.661z"/>
			
				<linearGradient id="SVGID_16_" gradientUnits="userSpaceOnUse" x1="-3430.0854" y1="4098.7588" x2="-3430.0854" y2="3969.0588" gradientTransform="matrix(0.1284 0 0 -0.1284 747.5763 829.3391)">
				<stop  offset="0" style="stop-color:#58595B"/>
				<stop  offset="0.0483" style="stop-color:#5F6063"/>
				<stop  offset="0.1256" style="stop-color:#727476"/>
				<stop  offset="0.2221" style="stop-color:#8E9093"/>
				<stop  offset="0.3342" style="stop-color:#B8BABC"/>
				<stop  offset="0.458" style="stop-color:#F0F0F1"/>
				<stop  offset="0.4831" style="stop-color:#FFFFFF"/>
				<stop  offset="0.6768" style="stop-color:#CED0D2"/>
				<stop  offset="1" style="stop-color:#808285"/>
			</linearGradient>
			<path fill="url(#SVGID_16_)" d="M309.407,319.78v-4.053c0-2.117-1.02-3.992-2.592-5.17l0.016,0.006
				c-1.048-0.785-1.728-2.039-1.728-3.449c0.003-1.414,0.686-2.668,1.736-3.453l-0.232-0.08c-1.073,0.854-1.708,2.163-1.708,3.532
				c-0.004,1.416,0.675,2.766,1.807,3.614l-0.015-0.004c1.595,1.191,2.508,3.017,2.508,5.003v4.414L309.407,319.78z"/>
		</g>
	</g>
</g>
</svg>
