<?xml version="1.0" encoding="utf-8"?>
<!-- Generator: Adobe Illustrator 16.0.0, SVG Export Plug-In . SVG Version: 6.00 Build 0)  -->
<!DOCTYPE svg PUBLIC "-//W3C//DTD SVG 1.1//EN" "http://www.w3.org/Graphics/SVG/1.1/DTD/svg11.dtd">
<svg version="1.1" id="Layer_1" xmlns="http://www.w3.org/2000/svg" xmlns:xlink="http://www.w3.org/1999/xlink" x="0px" y="0px"
	 width="175.748px" height="81.759px" viewBox="8.504 55.499 175.748 81.759" enable-background="new 8.504 55.499 175.748 81.759"
	 xml:space="preserve">
<g>
	<path fill="#0076C0" d="M147.082,134.728c0.296,0.067,0.503,0.148,0.622,0.246c0.171,0.139,0.257,0.316,0.257,0.536
		c0,0.233-0.094,0.425-0.28,0.575c-0.229,0.184-0.562,0.275-1,0.275h-1.568v-0.08c0.146,0,0.244-0.014,0.296-0.041
		c0.052-0.025,0.089-0.062,0.108-0.104c0.021-0.043,0.031-0.147,0.031-0.317v-1.996c0-0.17-0.011-0.275-0.031-0.319
		c-0.02-0.044-0.058-0.079-0.11-0.104c-0.052-0.026-0.15-0.039-0.294-0.039v-0.08h1.48c0.354,0,0.605,0.031,0.752,0.095
		c0.147,0.062,0.266,0.157,0.35,0.282c0.086,0.125,0.127,0.259,0.127,0.397c0,0.149-0.053,0.282-0.162,0.397
		S147.356,134.658,147.082,134.728L147.082,134.728z M146.263,134.668c0.215,0,0.373-0.026,0.475-0.073
		c0.104-0.049,0.183-0.117,0.236-0.205c0.055-0.089,0.082-0.201,0.082-0.338c0-0.138-0.027-0.249-0.082-0.336
		c-0.053-0.087-0.13-0.154-0.229-0.199c-0.102-0.045-0.262-0.067-0.48-0.064v1.216H146.263z M146.263,134.839v0.988v0.111
		c0,0.084,0.021,0.145,0.061,0.186c0.041,0.044,0.102,0.062,0.182,0.062c0.118,0,0.229-0.025,0.326-0.08
		c0.102-0.055,0.177-0.131,0.23-0.232c0.054-0.104,0.08-0.215,0.08-0.341c0-0.144-0.031-0.272-0.092-0.388
		c-0.061-0.114-0.148-0.193-0.266-0.239C146.668,134.858,146.494,134.838,146.263,134.839L146.263,134.839z"/>
	<path fill="#0076C0" d="M158.612,133.278h2.547v0.078c-0.189,0.008-0.309,0.035-0.359,0.086c-0.052,0.05-0.076,0.158-0.076,0.322
		v2.066c0,0.13,0.01,0.221,0.028,0.273c0.021,0.052,0.063,0.093,0.13,0.125s0.16,0.049,0.277,0.049v0.979h-0.079
		c-0.019-0.266-0.116-0.483-0.293-0.649c-0.177-0.164-0.418-0.248-0.726-0.248h-0.845c-0.317,0-0.573,0.078-0.767,0.231
		c-0.191,0.156-0.305,0.378-0.334,0.666h-0.079v-0.979c0.377-0.075,0.647-0.331,0.81-0.762c0.161-0.434,0.242-1.012,0.242-1.735
		c0-0.173-0.031-0.288-0.09-0.343c-0.061-0.054-0.189-0.08-0.387-0.082V133.278L158.612,133.278z M160.062,133.478h-0.772v0.264
		c0,0.372-0.024,0.73-0.075,1.084c-0.05,0.351-0.117,0.628-0.204,0.828c-0.086,0.201-0.202,0.371-0.347,0.509h1.097
		c0.149,0,0.237-0.011,0.263-0.03c0.026-0.02,0.041-0.088,0.041-0.199v-2.455H160.062z"/>
	<path fill="#0076C0" d="M58.033,133.278h2.545v0.078c-0.188,0.008-0.308,0.035-0.359,0.086c-0.051,0.05-0.076,0.158-0.076,0.322
		v2.066c0,0.13,0.009,0.221,0.029,0.273c0.02,0.052,0.063,0.093,0.13,0.125c0.067,0.032,0.16,0.049,0.277,0.049v0.979H60.5
		c-0.018-0.266-0.116-0.483-0.292-0.649c-0.176-0.164-0.418-0.248-0.726-0.248h-0.843c-0.319,0-0.575,0.078-0.767,0.231
		c-0.193,0.156-0.305,0.378-0.335,0.666h-0.079v-0.979c0.377-0.075,0.647-0.331,0.809-0.762c0.161-0.434,0.243-1.012,0.243-1.735
		c0-0.173-0.031-0.288-0.09-0.343c-0.059-0.054-0.189-0.08-0.386-0.082L58.033,133.278L58.033,133.278z M59.481,133.478h-0.774
		v0.264c0,0.372-0.025,0.73-0.075,1.084c-0.05,0.351-0.118,0.628-0.205,0.828c-0.087,0.201-0.201,0.371-0.345,0.509h1.097
		c0.148,0,0.236-0.011,0.262-0.03s0.04-0.088,0.04-0.199V133.478L59.481,133.478z"/>
	<path fill="#0076C0" d="M38.267,124.173c0.761,0,1.585-0.305,2.316-0.73c0.395-0.213,0.761-0.457,1.096-0.701
		c-0.244,0.914-0.61,1.857-1.096,2.65c-0.701,1.219-1.646,2.133-2.682,2.133c-1.005,0-1.767-0.334-1.493-1.371
		c0.061-0.305,0.244-0.578,0.945-0.883c0.122-0.03,0.152-0.123,0.183-0.215c0.031-0.213-0.122-0.518-0.366-0.518
		c-0.274,0-2.133,0.915-2.925,1.646c-0.183,0.184-0.305,0.334-0.335,0.457c-0.122,0.549,0.031,0.943,0.335,1.278
		c0.549,0.549,1.615,0.794,2.56,0.794c1.188,0,2.59-0.52,3.779-1.341c1.371-0.915,2.529-2.195,2.833-3.413l2.072-7.771
		c0.031-0.151,0.091-0.274,0.122-0.366c0.274-0.579,0.64-0.73,0.792-1.31c0.031-0.093-0.091-0.396-0.396-0.396
		c-0.123,0-0.244,0.06-0.396,0.151c-0.214,0.09-0.458,0.244-0.67,0.244c-1.006,0-0.975-0.396-1.95-0.396
		c-0.822,0-1.646,0.15-2.407,0.396c-2.59,0.822-4.632,2.862-5.211,5.057C34.854,121.521,35.646,124.173,38.267,124.173
		L38.267,124.173z M37.84,118.993c0.305-1.189,1.067-2.956,2.743-3.506c0.365-0.121,0.731-0.184,1.188-0.184
		c0.823,0,1.401,0.274,1.737,0.551l-1.432,5.302c-0.335,0.457-0.883,0.976-1.493,1.25c-0.274,0.12-0.549,0.183-0.824,0.183
		C37.78,122.589,37.444,120.485,37.84,118.993L37.84,118.993z"/>
	<path fill="#0076C0" d="M24.676,117.592c-0.609,0.822-1.036,1.646-1.219,2.406c-0.396,1.462,0.03,3.047,1.219,4.022
		c0.335,0.272,0.731,0.487,1.188,0.609c0.396,0.151,0.853,0.212,1.371,0.212c0.58,0,1.189-0.12,1.768-0.305
		c2.286-0.791,4.418-2.833,5.241-4.661c0.122-0.245,0.213-0.488,0.274-0.732c0.214-0.853,0.152-1.857-0.274-2.74
		c-0.549-1.189-1.707-2.135-3.535-2.135c-0.579,0-1.158,0.062-1.706,0.244c-1.188,0.336-2.255,1.004-3.139,1.799
		C25.408,116.708,25.012,117.134,24.676,117.592L24.676,117.592z M29.003,115.822c0.335-0.122,0.671-0.183,1.006-0.183
		c1.858,0,2.865,0.854,2.102,3.719c-0.365,1.432-1.402,3.351-3.108,3.932c-0.305,0.121-0.67,0.182-1.066,0.182
		c-1.158,0-1.798-0.518-2.072-1.22c-0.305-0.7-0.244-1.646,0-2.498v-0.032C26.23,118.321,27.389,116.403,29.003,115.822
		L29.003,115.822z"/>
	<path fill="#0076C0" d="M60.421,124.631c1.462,0,3.108-0.823,4.297-1.555c-0.092,0.729,0.122,1.371,1.127,1.371
		c0.884,0,1.798-0.337,2.621-0.976c0.731-0.58,1.158-1.037,1.585-1.523l-0.701,2.65c-0.214,0.793-0.61,1.098-1.464,1.098
		c-0.335,0-0.396,0.092-0.518,0.304c-0.061,0.062-0.092,0.093-0.092,0.185c-0.03,0.062,0,0.123,0.092,0.123h4.784
		c0.183,0,0.305-0.094,0.396-0.215c0.031-0.062,0.091-0.152,0.122-0.183c0.031-0.152-0.03-0.214-0.152-0.214
		c-1.036,0-1.341-0.184-1.097-1.098l1.341-4.937l0.548-0.396c1.524-0.123,1.433,0.883,1.768,2.012l0.762,2.438
		c0.153,0.578,0.732,0.793,1.341,0.793c1.036,0,2.194-0.641,2.956-1.433c0.091-0.122,0.214-0.216,0.427-0.487
		c0.609,1.098,1.798,1.98,3.504,1.98c0.579,0,1.189-0.094,1.768-0.307c2.591-0.884,4.998-3.441,5.516-5.394
		c0.518-1.979-0.579-4.875-3.81-4.875c-0.578,0-1.157,0.093-1.706,0.243c-2.864,0.791-5.028,3.505-5.577,5.482
		c-0.152,0.672-0.182,1.312-0.031,1.952c0.031,0.427-0.151,0.578-0.518,0.915c-0.335,0.334-0.609,0.547-1.036,0.547
		c-0.518,0-0.762-0.334-1.005-1.004l-0.946-3.049c-0.244-0.7-0.761-1.156-1.676-1.066l3.444-2.255
		c0.67-0.456,1.158-0.639,2.042-0.639c0.122,0,0.305-0.152,0.458-0.308c0.121-0.211,0.182-0.334-0.061-0.334h-3.931
		c-0.122,0-0.305,0.062-0.487,0.274c-0.183,0.183-0.244,0.366-0.092,0.366c0.366,0,0.884,0.336,0.122,0.883l-3.474,2.469
		l1.828-6.887c0.152-0.609,0.426-0.732,0.518-1.158c0.092-0.307-0.061-0.548-0.366-0.548c-0.792,0-0.975,0.396-2.833,0.396
		c-0.213,0-0.457,0.031-0.64,0.305c-0.091,0.092-0.122,0.152-0.152,0.243c0,0.03,0,0.092,0.091,0.092
		c1.371,0,1.311,0.642,1.097,1.463l-2.103,7.86c-0.64,0.978-1.494,1.922-2.347,2.562c-0.487,0.396-0.67,0.456-0.914,0.456
		c-0.305,0-0.427-0.182-0.305-0.73l1.798-6.795c0.182-0.608,0.426-0.731,0.548-1.127c0.062-0.336-0.091-0.549-0.366-0.549
		c-0.792,0-1.005,0.364-2.864,0.364c-0.213,0-0.426,0.062-0.64,0.306c-0.061,0.09-0.092,0.185-0.122,0.244
		c-0.031,0.061,0,0.092,0.062,0.092c1.371,0,1.34,0.639,1.096,1.463l-1.188,4.51c-0.762,0.943-1.981,2.224-3.352,2.224
		c-0.792,0-1.372-0.821-1.189-1.522l1.584-6.002c0.183-0.609,0.427-0.732,0.549-1.129c0.061-0.334-0.091-0.547-0.366-0.547
		c-0.792,0-1.006,0.363-2.864,0.363c-0.214,0-0.427,0.061-0.609,0.307c-0.092,0.09-0.123,0.184-0.153,0.244
		c-0.031,0.06,0,0.09,0.061,0.09c1.372,0,1.341,0.64,1.097,1.463l-1.645,6.277C58.075,123.897,59.202,124.631,60.421,124.631
		L60.421,124.631z M82.696,119.45c0.365-1.401,1.494-3.322,3.139-3.901c0.335-0.121,0.671-0.183,1.006-0.183
		c1.829,0,2.865,0.884,2.102,3.748c-0.365,1.4-1.402,3.32-3.108,3.9c-0.334,0.12-0.67,0.182-1.066,0.182
		C82.392,123.196,82.239,121.156,82.696,119.45L82.696,119.45z"/>
	<path fill="#0076C0" d="M103.938,114.543c-0.094,0.092-0.123,0.151-0.153,0.245c-0.03,0.027,0,0.09,0.062,0.09
		c1.371,0,1.34,0.641,1.098,1.464l-1.586,6.002c-0.09,0.396-0.272,0.701-0.547,0.886c-0.153,0.123-0.396,0.183-0.672,0.183
		c-0.184,0-0.365,0.182-0.519,0.336c0,0,0,0.028-0.03,0.028c-0.091,0.152-0.121,0.273,0,0.273c0.03,0,0.03,0,0.062,0h1.158h1.156
		c1.158,0,1.98,0.215,2.986,0.215c0.213,0,0.488-0.031,0.732-0.062c1.522-0.243,3.473-1.158,4.416-2.529
		c0.215-0.305,0.367-0.64,0.459-0.975c0.242-0.945,0.029-1.616-0.459-2.072c-0.578-0.519-1.521-0.731-2.59-0.731h-1.826h-1.066
		l0.607-2.347c0.152-0.487,0.336-0.671,0.459-0.944c0.028-0.062,0.061-0.123,0.09-0.184c0.029-0.184,0-0.333-0.09-0.457
		c-0.062-0.061-0.153-0.121-0.276-0.121c-0.79,0-1.004,0.396-2.833,0.396C104.333,114.237,104.119,114.271,103.938,114.543
		L103.938,114.543z M106.375,118.87h1.278c0.031,0,0.031,0,0.031,0c1.98,0.029,2.772,0.822,2.377,2.378
		c-0.334,1.249-1.279,1.828-2.377,1.979c-0.215,0.029-0.428,0.062-0.67,0.062c-0.764,0-1.098-0.032-1.77-0.184L106.375,118.87
		L106.375,118.87z"/>
	<path fill="#0076C0" d="M95.22,124.569c2.409,0,4.938-1.342,6.37-3.109c0.55-0.639,0.945-1.341,1.128-2.07
		c0.031-0.152,0.092-0.307,0.092-0.49c0.092-0.484,0.092-0.943,0-1.399c-0.152-0.791-0.55-1.433-1.22-1.858
		c-0.305-0.182-0.671-0.304-1.065-0.365c0.396-0.151,0.73-0.305,1.065-0.459c0.488-0.211,0.884-0.457,1.22-0.697
		c0.641-0.488,1.066-1.038,1.248-1.678c0.305-1.219-0.363-1.92-1.248-2.317c-0.396-0.183-0.822-0.271-1.22-0.333
		c-0.183,0-0.366-0.029-0.519-0.029c-4.053,0-7.708,3.869-8.897,8.35C91.503,120.669,92.235,124.569,95.22,124.569L95.22,124.569z
		 M94.886,116.981c0.731-2.836,2.224-5.789,5.028-5.789c0.854,0,1.463,0.182,1.676,0.699c0.123,0.274,0.123,0.642,0,1.099
		c-0.183,0.791-1.248,1.704-2.071,1.92c-1.828,0.396-2.498,0.729-3.475,1.401c-0.061,0.062-0.153,0.15-0.153,0.272
		c-0.092,0.335,0.062,0.61,0.214,0.517c0.456-0.182,1.067-0.697,1.889-0.697c2.407,0,2.651,1.949,2.164,3.777
		c-0.488,1.827-1.707,3.016-3.598,3.016C94.247,123.196,93.79,121.125,94.886,116.981L94.886,116.981z"/>
	<path fill="#0076C0" d="M132.368,125.849h6.431c0.151,0,0.364-0.061,0.456-0.213c0.121-0.183,0.184-0.275,0.213-0.365
		c0.061-0.152-0.06-0.215-0.213-0.215c-1.279,0-1.799-0.213-1.492-1.34l1.492-5.729l1.157-0.729c1.372,0.06,1.585,0.608,1.921,1.948
		l1.4,5.395c0.396,1.493,0.609,1.707,1.892,1.707c1.462,0,3.106-0.976,4.052-1.707c0.156-0.104,1.162-0.812,1.369-1.129l-0.79,3.021
		c-0.151,0.639-0.519,1.065-1.22,1.065c-0.184,0-0.365,0.028-0.456,0.213c-0.062,0.121-0.153,0.183-0.185,0.273
		c-0.029,0.091,0.03,0.152,0.123,0.152h4.447c0.244,0,0.396-0.03,0.52-0.244c0.061-0.062,0.121-0.151,0.121-0.213
		c0.031-0.092-0.029-0.184-0.213-0.184c-1.097,0-1.279-0.242-1.065-1.064l0.671-2.562c0.363,0.213,1.158,0.459,1.889,0.459
		c0.549,0,1.065-0.062,1.584-0.215c2.62-0.701,4.603-3.107,5.332-5.484c0.032-0.09,0.062-0.213,0.092-0.306
		c0.213-0.853,0.213-1.858-0.092-2.711c-0.396-1.037-1.279-1.858-2.863-1.858c-0.854,0-1.707,0.334-2.469,0.791
		c-0.457,0.273-0.853,0.58-1.22,0.914c0.153-0.641,0.397-0.762,0.519-1.158c0.092-0.334-0.061-0.547-0.363-0.547
		c-0.795,0-0.977,0.364-2.836,0.364c-0.211,0-0.457,0.062-0.639,0.304c-0.093,0.123-0.123,0.185-0.154,0.246
		c0,0.062,0,0.09,0.094,0.09c1.371,0,1.311,0.643,1.096,1.465l-1.521,5.697c-0.793,1.006-2.012,1.707-2.256,1.89
		c-0.64,0.396-1.188,0.519-1.31,0.519c-0.55,0-0.886-0.519-1.099-1.25l-1.678-5.912c-0.395-1.431-1.461-1.584-2.619-1.584
		l4.998-3.383c1.158-0.762,2.193-1.402,3.229-1.402c0.427,0,0.64-0.15,0.823-0.334c0.184-0.213,0.212-0.457,0-0.457h-5.395
		c-0.154,0-0.365,0.06-0.609,0.334c-0.213,0.216-0.305,0.457-0.122,0.457c1.097,0,1.493,0.367,0.518,1.067l-6.217,4.419l1.129-4.297
		c0.151-0.609,0.944-1.189,1.675-1.189c0.153,0,0.366-0.119,0.549-0.396c0.062-0.062,0.094-0.183,0.121-0.213
		c0.032-0.124,0-0.183-0.181-0.183h-5.698c-0.154,0-0.365,0.059-0.58,0.334c-0.092,0.092-0.213,0.215-0.242,0.306
		c-0.031,0.09,0,0.151,0.121,0.151c1.065,0,1.646,0.274,1.432,1.188l-3.105,11.671c-0.246,0.977-0.855,1.34-1.921,1.34
		c-0.397,0-0.458,0.185-0.61,0.397c-0.062,0.062-0.151,0.183-0.151,0.212C132.216,125.758,132.276,125.849,132.368,125.849
		L132.368,125.849z M154.918,116.799c0.365-0.426,0.914-0.915,1.554-1.188c0.336-0.15,0.672-0.243,1.037-0.243
		c2.163,0,2.193,2.438,1.891,3.627c-0.308,1.096-1.281,3.442-2.928,4.083c-0.273,0.092-0.548,0.152-0.853,0.152
		c-1.067,0-1.646-0.307-2.194-0.822L154.918,116.799L154.918,116.799z"/>
	<path fill="#0076C0" d="M183.716,113.812c-0.763,0-0.977,0.365-2.835,0.365c-0.214,0-0.458,0.061-0.641,0.305
		c-0.062,0.123-0.121,0.184-0.121,0.244c-0.03,0.062,0,0.09,0.062,0.09c1.371,0,1.311,0.644,1.096,1.466l-1.188,4.509
		c-0.762,0.945-1.98,2.227-3.352,2.227c-0.795,0-1.372-0.795-1.189-1.525l1.585-5.973c0.183-0.641,0.427-0.762,0.519-1.158
		c0.092-0.334-0.062-0.547-0.365-0.547c-0.762,0-0.977,0.364-2.834,0.364c-0.215,0-0.457,0.062-0.641,0.304
		c-0.062,0.123-0.121,0.185-0.121,0.246c-0.031,0.062,0,0.09,0.061,0.09c1.371,0,1.341,0.643,1.098,1.465l-0.945,3.412
		c-0.334,0.641-1.342,2.012-2.56,2.863c-0.519,0.365-0.7,0.459-0.944,0.459c-0.303,0-0.428-0.185-0.274-0.732l1.677-6.399
		c0.366-1.37-0.73-2.286-2.406-2.286c-0.945,0-1.797,0.366-2.621,0.366c-0.092,0-0.152,0-0.213,0
		c-0.549-0.028-0.854-0.213-1.129-0.213c-0.242,0-0.457,0.153-0.518,0.427c-0.428,1.616-0.854,1.401-1.188,2.621
		c-0.031,0.121,0.062,0.184,0.213,0.184c0.244,0,0.701-0.184,0.731-0.336c0.152-0.58,1.005-1.219,1.89-1.584
		c0.457-0.185,0.976-0.306,1.371-0.306c1.433,0,1.95,0.58,1.401,2.591c-0.853,0.305-1.829,0.519-2.772,0.791
		c-2.043,0.579-4.022,1.342-4.756,3.321c-0.06,0.123-0.091,0.245-0.119,0.365c-0.184,0.702-0.184,1.343,0.119,1.8
		c0.275,0.486,0.854,0.762,1.738,0.762c0.975,0,2.042-0.337,3.018-0.822c0.457-0.213,0.914-0.457,1.34-0.731
		c-0.12,0.731,0.092,1.371,1.099,1.371c0.912,0,1.769-0.396,2.62-0.976c0.486-0.336,1.645-1.463,1.889-1.92l-0.304,1.25
		c-0.274,1.129,0.821,1.828,2.04,1.828c1.464,0,3.109-0.822,4.297-1.555c-0.121,0.732,0.123,1.371,1.128,1.371
		c0.886,0,1.737-0.428,2.621-0.975c0.091-0.032,0.151-0.123,0.185-0.213c0.061-0.246-0.062-0.58-0.215-0.58
		c-0.031,0-0.152,0.062-0.273,0.121c-0.52,0.365-0.67,0.459-0.914,0.459c-0.305,0-0.428-0.185-0.305-0.732l1.797-6.766
		c0.154-0.641,0.427-0.762,0.52-1.158C184.172,114.024,184.021,113.812,183.716,113.812L183.716,113.812z M168.386,120.974
		c-0.486,0.641-1.096,1.278-1.826,1.646c-0.459,0.241-0.945,0.396-1.463,0.396c-0.885,0-1.22-0.672-1.007-1.464
		c0.214-0.821,0.64-1.401,1.22-1.798c0.365-0.273,0.791-0.486,1.25-0.671c0.791-0.335,1.676-0.547,2.498-0.669L168.386,120.974
		L168.386,120.974z"/>
	<rect x="182.66" y="108.452" fill="#0076C0" width="0.006" height="0.002"/>
	<rect x="133.099" y="106.312" fill="#0076C0" width="0.004" height="0.004"/>
	<path fill="#0076C0" d="M123.864,112.897c1.554,0,4.113-0.244,4.539-1.89c0.152-0.549,0.062-0.944-0.549-1.341
		c-0.334-0.245-1.433,0.213-1.278,0.396c0.213,0.272,0.12,0.576,0.062,0.821c-0.215,0.853-1.279,1.007-2.072,1.007
		c-1.158,0-2.133-0.216-1.92-1.007c0.061-0.245,0.242-0.671,0.608-0.944c0.487-0.365-0.821-0.457-1.25-0.244
		c-0.67,0.426-1.065,0.763-1.278,1.523C120.328,112.808,122.462,112.897,123.864,112.897L123.864,112.897z"/>
	<path fill="#0076C0" d="M45.428,123.625c-0.305,0-0.396,0.091-0.518,0.304c-0.031,0.062-0.092,0.121-0.092,0.184
		c-0.031,0.062,0,0.152,0.092,0.152h0.701h4.114c0.152,0,0.274-0.123,0.366-0.244c0.031-0.061,0.122-0.151,0.122-0.183
		c0.031-0.151-0.03-0.213-0.152-0.213c-1.036,0-1.341-0.185-1.098-1.099l0.823-3.076h4.358l-0.823,3.076
		c-0.214,0.793-0.609,1.099-1.463,1.099c-0.305,0-0.396,0.091-0.518,0.304c-0.062,0.062-0.091,0.121-0.091,0.184
		c-0.031,0.062,0,0.152,0.091,0.152h4.784c0.183,0,0.305-0.123,0.396-0.244c0.03-0.061,0.121-0.151,0.121-0.183
		c0.031-0.151-0.03-0.213-0.152-0.213c-1.036,0-1.341-0.185-1.097-1.099l1.798-6.795c0.152-0.608,0.426-0.731,0.518-1.127
		c0.091-0.336-0.062-0.549-0.366-0.549c-0.762,0-0.975,0.364-2.833,0.364c-0.213,0-0.457,0.062-0.64,0.306
		c-0.062,0.09-0.122,0.185-0.153,0.244c0,0.061,0.031,0.092,0.091,0.092c1.372,0,1.311,0.639,1.098,1.463l-0.458,1.735H50.09
		l0.67-2.528c0.152-0.608,0.427-0.731,0.518-1.127c0.092-0.336-0.061-0.549-0.365-0.549c-0.762,0-0.975,0.364-2.834,0.364
		c-0.213,0-0.458,0.062-0.64,0.306c-0.061,0.09-0.122,0.185-0.122,0.244c-0.03,0.061,0,0.092,0.061,0.092
		c1.371,0,1.31,0.639,1.097,1.463l-1.584,6.002c-0.183,0.73-0.549,1.037-1.28,1.099C45.55,123.625,45.489,123.625,45.428,123.625
		L45.428,123.625z"/>
	<path fill="#0076C0" d="M120.179,124.447c1.463,0,3.108-0.822,4.297-1.556c-0.121,0.732,0.123,1.371,1.129,1.371
		c0.883,0,1.735-0.426,2.619-0.974c0.092-0.062,0.152-0.154,0.184-0.214c0.062-0.274-0.061-0.579-0.213-0.579
		c-0.03,0-0.152,0.03-0.274,0.122c-0.519,0.365-0.67,0.457-0.914,0.457c-0.305,0-0.457-0.215-0.305-0.732l1.797-6.795
		c0.153-0.609,0.427-0.732,0.519-1.128c0.092-0.333-0.061-0.578-0.363-0.578c-0.764,0-0.978,0.396-2.836,0.396
		c-0.213,0-0.457,0.03-0.641,0.305c-0.061,0.092-0.121,0.151-0.121,0.245c-0.029,0.027,0,0.09,0.062,0.09
		c1.37,0,1.312,0.641,1.098,1.464l-1.188,4.479c-0.762,0.974-1.979,2.255-3.352,2.255c-0.793,0-1.371-0.824-1.189-1.556l1.586-5.973
		c0.183-0.609,0.427-0.732,0.517-1.128c0.093-0.333-0.06-0.578-0.364-0.578c-0.761,0-0.975,0.396-2.834,0.396
		c-0.213,0-0.457,0.031-0.64,0.306c-0.062,0.092-0.123,0.151-0.123,0.245c-0.03,0.027,0,0.09,0.062,0.09
		c1.373,0,1.312,0.641,1.098,1.464l-1.646,6.277C117.833,123.716,118.96,124.447,120.179,124.447L120.179,124.447z"/>
	<path fill="#0076C0" d="M112.103,123.44c-0.182,0-0.304,0.062-0.395,0.185c-0.062,0.122-0.152,0.213-0.152,0.272
		c-0.031,0.093,0.03,0.151,0.121,0.151h0.426h3.992c0.245,0,0.396-0.028,0.549-0.243c0.03-0.06,0.092-0.119,0.123-0.182
		c0-0.122-0.062-0.214-0.244-0.214c-1.099,0-1.25-0.243-1.035-1.067l1.798-6.795c0.151-0.609,0.396-0.732,0.519-1.128
		c0.09-0.333-0.093-0.578-0.365-0.578c-0.793,0-0.977,0.396-2.834,0.396c-0.244,0-0.457,0.03-0.641,0.305
		c-0.093,0.092-0.122,0.151-0.152,0.245c0,0.027,0,0.09,0.092,0.09c1.341,0,1.31,0.641,1.097,1.464l-1.584,6.002
		c-0.183,0.673-0.549,1.067-1.22,1.067C112.164,123.411,112.134,123.411,112.103,123.44L112.103,123.44z"/>
	<path fill="#0076C0" d="M15.229,126.062c0.152,0,0.335-0.029,0.458-0.184c0.092-0.182,0.182-0.273,0.213-0.363
		c0.031-0.154-0.091-0.214-0.213-0.214c-1.31,0-1.829-0.213-1.524-1.341l1.433-5.333c0.64,0.212,1.492,0.426,2.285,0.426
		c2.377,0,5.181-1.31,6.796-3.169c0.519-0.607,0.945-1.279,1.188-1.949c0.031-0.121,0.061-0.213,0.091-0.336
		c0.152-0.67,0.122-1.246-0.091-1.736c-0.244-0.52-0.64-0.944-1.188-1.279c-0.731-0.459-1.676-0.792-2.773-0.977
		c-3.321-0.457-7.161,0.945-8.684,2.104c-0.427,0.307-0.671,0.643-0.244,0.643c1.676-0.824,3.352-1.435,5.455-1.465
		c2.316,0,4.967,1.129,4.358,3.719c-0.488,1.8-2.042,3.047-3.901,3.047c-1.006,0-2.194-0.213-2.864-0.701l1.219-4.57
		c-1.768-0.09-3.017,0.396-3.443,1.92l-2.469,9.66c-0.243,0.973-0.853,1.341-1.919,1.341c-0.366,0-0.457,0.183-0.609,0.396
		c-0.03,0.062-0.122,0.182-0.152,0.214c0,0.09,0.031,0.15,0.152,0.15h6.426V126.062z"/>
	<path fill="#0076C0" d="M179.449,112.897c1.554,0,4.112-0.244,4.538-1.89c0.154-0.549,0.062-0.944-0.547-1.341
		c-0.336-0.245-1.434,0.213-1.28,0.396c0.215,0.272,0.122,0.576,0.062,0.821c-0.214,0.853-1.279,1.007-2.072,1.007
		c-1.156,0-2.133-0.216-1.92-1.007c0.062-0.245,0.244-0.671,0.609-0.944c0.488-0.365-0.822-0.457-1.249-0.244
		c-0.671,0.426-1.065,0.763-1.28,1.523C175.914,112.808,178.046,112.897,179.449,112.897L179.449,112.897z"/>
	<path fill="#0076C0" d="M26.802,136.36v-0.08H26.9c0.151,0,0.246-0.031,0.282-0.096c0.037-0.064,0.056-0.184,0.056-0.354v-2.355
		h-1.111v2.355c0,0.2,0.023,0.325,0.072,0.374c0.048,0.05,0.139,0.073,0.271,0.073h0.093v0.08H24.95v-0.08h0.099
		c0.136,0,0.227-0.024,0.271-0.076c0.045-0.053,0.067-0.176,0.067-0.371v-2.023c0-0.188-0.021-0.309-0.063-0.365
		c-0.041-0.057-0.132-0.086-0.275-0.086H24.95v-0.078h3.466v0.078h-0.082c-0.146,0-0.241,0.029-0.287,0.088
		c-0.045,0.061-0.068,0.18-0.068,0.363v2.023c0,0.2,0.025,0.325,0.077,0.374c0.052,0.05,0.147,0.073,0.287,0.073h0.073v0.08h-1.614
		V136.36z"/>
	<path fill="#0076C0" d="M33.007,134.959v0.858c0,0.17,0.01,0.274,0.031,0.318c0.021,0.043,0.058,0.078,0.111,0.104
		c0.053,0.024,0.151,0.038,0.293,0.038v0.08h-1.587v-0.08c0.146,0,0.244-0.014,0.296-0.04c0.052-0.025,0.088-0.062,0.109-0.104
		c0.021-0.043,0.032-0.148,0.032-0.318v-1.996c0-0.17-0.01-0.274-0.032-0.318c-0.021-0.044-0.058-0.079-0.109-0.105
		c-0.053-0.025-0.151-0.039-0.295-0.039v-0.078h1.351c0.444,0,0.763,0.078,0.958,0.234c0.193,0.157,0.29,0.354,0.29,0.59
		c0,0.197-0.062,0.369-0.187,0.512c-0.124,0.141-0.295,0.238-0.514,0.289C33.606,134.94,33.358,134.959,33.007,134.959
		L33.007,134.959z M33.007,133.451v1.334c0.051,0.005,0.089,0.005,0.115,0.005c0.188,0,0.333-0.055,0.433-0.165
		c0.102-0.11,0.152-0.281,0.152-0.512c0-0.229-0.05-0.396-0.152-0.503c-0.101-0.107-0.252-0.159-0.454-0.159H33.007L33.007,133.451z
		"/>
	<path fill="#0076C0" d="M40.221,133.784c-0.002-0.168-0.022-0.279-0.06-0.34c-0.039-0.059-0.134-0.088-0.289-0.088H39.77v-0.078
		h1.647v0.078h-0.105c-0.142,0-0.236,0.028-0.282,0.084c-0.046,0.055-0.069,0.178-0.069,0.367v2.023
		c0,0.189,0.023,0.312,0.069,0.366c0.047,0.056,0.14,0.081,0.281,0.081h0.105v0.08h-1.647v-0.08h0.102
		c0.144,0,0.238-0.028,0.282-0.084c0.044-0.06,0.067-0.18,0.067-0.363v-1.682l-1.098,1.716c0,0.146,0.019,0.253,0.055,0.317
		c0.036,0.064,0.135,0.096,0.295,0.096h0.106v0.08h-1.653v-0.08h0.103c0.145,0,0.24-0.028,0.285-0.084
		c0.045-0.06,0.068-0.18,0.068-0.363v-2.023c0-0.189-0.018-0.312-0.055-0.367c-0.037-0.056-0.136-0.084-0.299-0.084h-0.103v-0.078
		h1.653v0.078h-0.106c-0.139,0-0.232,0.031-0.279,0.094c-0.047,0.061-0.071,0.18-0.071,0.357v1.691L40.221,133.784L40.221,133.784z"
		/>
	<path fill="#0076C0" d="M45.99,134.959v0.858c0,0.17,0.01,0.274,0.031,0.318c0.021,0.043,0.059,0.078,0.112,0.104
		c0.054,0.024,0.151,0.038,0.293,0.038v0.08h-1.587v-0.08c0.146,0,0.244-0.014,0.296-0.04c0.052-0.025,0.088-0.062,0.109-0.104
		c0.021-0.043,0.032-0.148,0.032-0.318v-1.996c0-0.17-0.011-0.274-0.032-0.318s-0.057-0.079-0.11-0.105
		c-0.053-0.025-0.151-0.039-0.295-0.039v-0.078h1.35c0.445,0,0.765,0.078,0.958,0.234c0.193,0.157,0.291,0.354,0.291,0.59
		c0,0.197-0.062,0.369-0.188,0.512c-0.124,0.141-0.296,0.238-0.514,0.289C46.589,134.94,46.34,134.959,45.99,134.959L45.99,134.959z
		 M45.99,133.451v1.334c0.051,0.005,0.089,0.005,0.115,0.005c0.188,0,0.332-0.055,0.433-0.165s0.152-0.281,0.152-0.512
		c0-0.229-0.051-0.396-0.152-0.503c-0.101-0.107-0.252-0.159-0.454-0.159H45.99L45.99,133.451z"/>
	<path fill="#0076C0" d="M52.604,133.231c0.491-0.019,0.89,0.125,1.197,0.431c0.307,0.304,0.461,0.685,0.461,1.144
		c0,0.391-0.115,0.733-0.343,1.03c-0.304,0.396-0.731,0.59-1.285,0.59c-0.554,0-0.983-0.187-1.286-0.562
		c-0.24-0.297-0.359-0.648-0.359-1.057c0-0.457,0.156-0.84,0.467-1.145C51.766,133.356,52.148,133.214,52.604,133.231
		L52.604,133.231z M52.631,133.378c-0.282,0-0.497,0.145-0.644,0.432c-0.12,0.236-0.18,0.575-0.18,1.019
		c0,0.522,0.092,0.914,0.277,1.165c0.129,0.176,0.31,0.263,0.542,0.263c0.156,0,0.287-0.038,0.391-0.112
		c0.133-0.097,0.237-0.252,0.312-0.466c0.074-0.212,0.111-0.489,0.111-0.831c0-0.406-0.038-0.713-0.113-0.914
		c-0.076-0.201-0.173-0.344-0.291-0.429C52.919,133.421,52.784,133.378,52.631,133.378L52.631,133.378z"/>
	<path fill="#0076C0" d="M65.189,134.879v0.953c0,0.158,0.009,0.259,0.026,0.299c0.018,0.039,0.051,0.075,0.102,0.104
		c0.051,0.029,0.12,0.045,0.206,0.045h0.102v0.08h-1.614v-0.08h0.104c0.09,0,0.162-0.018,0.217-0.049
		c0.04-0.021,0.07-0.059,0.091-0.109c0.017-0.037,0.025-0.134,0.025-0.29v-2.024c0-0.16-0.009-0.26-0.025-0.3
		c-0.017-0.04-0.051-0.075-0.102-0.104c-0.051-0.03-0.12-0.045-0.207-0.045H64.01v-0.079h1.614v0.079h-0.102
		c-0.089,0-0.162,0.016-0.217,0.05c-0.039,0.021-0.07,0.058-0.093,0.108c-0.017,0.037-0.024,0.135-0.024,0.291v0.873h1.097v-0.873
		c0-0.16-0.008-0.26-0.025-0.3c-0.017-0.04-0.051-0.075-0.103-0.104c-0.052-0.03-0.121-0.045-0.208-0.045H65.85v-0.079h1.613v0.079
		h-0.1c-0.091,0-0.164,0.016-0.217,0.05c-0.04,0.021-0.071,0.058-0.094,0.108c-0.016,0.037-0.025,0.135-0.025,0.291v2.024
		c0,0.158,0.009,0.259,0.025,0.299c0.017,0.039,0.051,0.075,0.103,0.104c0.052,0.029,0.121,0.045,0.208,0.045h0.1v0.08H65.85v-0.08
		h0.101c0.091,0,0.164-0.018,0.217-0.049c0.04-0.021,0.07-0.059,0.093-0.109c0.017-0.037,0.025-0.134,0.025-0.29v-0.953H65.189
		L65.189,134.879z"/>
	<path fill="#0076C0" d="M72.734,135.479h-1.085l-0.135,0.301c-0.042,0.102-0.063,0.186-0.063,0.252
		c0,0.087,0.035,0.152,0.104,0.193c0.041,0.023,0.142,0.043,0.302,0.055v0.08h-1.025v-0.08c0.11-0.018,0.201-0.063,0.272-0.139
		c0.072-0.076,0.159-0.232,0.264-0.471l1.104-2.459h0.042l1.11,2.525c0.106,0.244,0.193,0.396,0.262,0.459
		c0.051,0.049,0.124,0.076,0.218,0.082v0.08h-1.487v-0.08h0.062c0.12,0,0.204-0.017,0.252-0.049c0.033-0.026,0.05-0.062,0.05-0.107
		c0-0.027-0.004-0.057-0.014-0.085c-0.003-0.015-0.025-0.072-0.068-0.175L72.734,135.479L72.734,135.479z M72.663,135.313
		l-0.462-1.062l-0.477,1.062H72.663L72.663,135.313z"/>
	<path fill="#0076C0" d="M79.327,134.959l-0.994,1.401H77.36v-0.086c0.083-0.004,0.156-0.03,0.219-0.078
		c0.041-0.032,0.111-0.114,0.208-0.248l0.74-1.045c-0.188-0.047-0.334-0.115-0.439-0.211c-0.164-0.148-0.245-0.336-0.245-0.562
		c0-0.188,0.055-0.352,0.164-0.488c0.109-0.14,0.25-0.233,0.424-0.285c0.174-0.053,0.447-0.078,0.821-0.078h1.435v0.08
		c-0.144,0-0.242,0.013-0.294,0.039c-0.053,0.024-0.089,0.059-0.111,0.103c-0.021,0.044-0.03,0.147-0.03,0.313v2.013
		c0,0.165,0.01,0.271,0.03,0.312c0.021,0.043,0.058,0.078,0.109,0.104c0.052,0.024,0.15,0.039,0.296,0.039v0.079h-1.593v-0.079
		c0.144,0,0.242-0.015,0.294-0.038c0.053-0.025,0.09-0.061,0.11-0.104c0.021-0.044,0.032-0.148,0.032-0.313v-0.866L79.327,134.959
		L79.327,134.959z M79.286,133.451c-0.244,0-0.421,0.056-0.531,0.167c-0.109,0.113-0.165,0.285-0.165,0.52
		c0,0.161,0.03,0.293,0.09,0.396c0.06,0.101,0.142,0.171,0.246,0.209c0.105,0.039,0.263,0.058,0.474,0.058h0.13v-1.348
		L79.286,133.451L79.286,133.451z"/>
	<path fill="#0076C0" d="M90.395,136.36v-0.08h0.099c0.151,0,0.245-0.031,0.282-0.096c0.037-0.065,0.055-0.184,0.055-0.354v-2.355
		h-1.11v2.355c0,0.2,0.023,0.325,0.072,0.374c0.048,0.05,0.139,0.073,0.271,0.073h0.093v0.08h-1.614v-0.08h0.099
		c0.135,0,0.227-0.024,0.271-0.076c0.044-0.053,0.067-0.176,0.067-0.371v-2.023c0-0.188-0.021-0.309-0.063-0.365
		c-0.042-0.055-0.132-0.086-0.275-0.086h-0.099v-0.078h3.465v0.078h-0.083c-0.145,0-0.241,0.029-0.287,0.088
		c-0.044,0.061-0.067,0.18-0.067,0.363v2.023c0,0.2,0.025,0.325,0.077,0.374c0.052,0.05,0.147,0.073,0.286,0.073h0.073v0.08h-1.612
		V136.36z"/>
	<path fill="#0076C0" d="M97.711,133.784c-0.001-0.168-0.021-0.279-0.06-0.34c-0.039-0.059-0.135-0.088-0.287-0.088h-0.104v-0.078
		h1.646v0.078h-0.105c-0.142,0-0.234,0.028-0.281,0.084c-0.045,0.055-0.067,0.178-0.067,0.367v2.023
		c0,0.189,0.022,0.312,0.067,0.366c0.049,0.056,0.143,0.081,0.281,0.081h0.105v0.08h-1.646v-0.08h0.104
		c0.143,0,0.236-0.028,0.279-0.084c0.047-0.06,0.066-0.18,0.066-0.363v-1.682l-1.098,1.716c0,0.146,0.02,0.253,0.055,0.317
		c0.036,0.064,0.136,0.096,0.296,0.096h0.104v0.08h-1.652v-0.08h0.103c0.145,0,0.24-0.028,0.286-0.084
		c0.045-0.06,0.068-0.18,0.068-0.363v-2.023c0-0.189-0.018-0.312-0.055-0.367c-0.037-0.056-0.136-0.084-0.299-0.084h-0.103v-0.078
		h1.652v0.078h-0.104c-0.139,0-0.233,0.031-0.279,0.094c-0.048,0.061-0.071,0.18-0.071,0.357v1.691L97.711,133.784L97.711,133.784z"
		/>
	<path fill="#0076C0" d="M105.161,133.278v0.834h-0.08c-0.048-0.191-0.102-0.331-0.162-0.413c-0.059-0.085-0.141-0.151-0.242-0.202
		c-0.058-0.025-0.158-0.039-0.303-0.039h-0.23v2.374c0,0.158,0.008,0.259,0.025,0.299c0.018,0.039,0.05,0.075,0.102,0.104
		c0.051,0.029,0.119,0.045,0.207,0.045h0.103v0.08h-1.614v-0.08h0.104c0.089,0,0.16-0.018,0.216-0.049
		c0.039-0.021,0.071-0.059,0.094-0.109c0.017-0.037,0.024-0.134,0.024-0.29v-2.374h-0.231c-0.209,0-0.36,0.042-0.455,0.131
		c-0.133,0.122-0.217,0.296-0.252,0.523h-0.08v-0.834H105.161L105.161,133.278z"/>
	<path fill="#0076C0" d="M109.847,134.681h0.405c0.438,0,0.758,0.076,0.956,0.23s0.297,0.359,0.297,0.617
		c0,0.177-0.05,0.326-0.15,0.455c-0.101,0.127-0.228,0.221-0.379,0.283c-0.154,0.062-0.375,0.094-0.666,0.094h-1.653v-0.08
		c0.19-0.004,0.312-0.029,0.368-0.077c0.054-0.05,0.08-0.154,0.08-0.32v-2.042c0-0.222-0.021-0.355-0.066-0.404
		c-0.044-0.05-0.163-0.076-0.355-0.078v-0.08h1.588v0.08c-0.146,0.002-0.244,0.016-0.291,0.041c-0.049,0.026-0.082,0.06-0.103,0.097
		c-0.021,0.038-0.03,0.134-0.03,0.286V134.681L109.847,134.681z M109.847,134.879v0.929c0,0.147,0.02,0.25,0.06,0.311
		c0.042,0.061,0.116,0.09,0.227,0.09c0.177,0,0.31-0.061,0.399-0.18c0.089-0.12,0.135-0.269,0.135-0.447
		c0-0.173-0.041-0.316-0.123-0.436c-0.082-0.115-0.172-0.188-0.271-0.222C110.171,134.896,110.028,134.879,109.847,134.879
		L109.847,134.879z"/>
	<path fill="#0076C0" d="M116.194,133.458v1.248h0.062c0.197,0,0.34-0.061,0.428-0.184c0.09-0.123,0.146-0.305,0.172-0.545h0.08
		v1.614h-0.08c-0.019-0.175-0.058-0.319-0.116-0.431c-0.06-0.111-0.128-0.188-0.205-0.227c-0.078-0.039-0.19-0.058-0.341-0.058
		v0.868c0,0.17,0.008,0.273,0.021,0.311c0.016,0.038,0.043,0.07,0.081,0.096c0.039,0.021,0.103,0.035,0.19,0.035h0.184
		c0.287,0,0.52-0.065,0.691-0.199c0.174-0.133,0.298-0.336,0.373-0.608h0.084l-0.137,0.979h-2.666v-0.08h0.103
		c0.091,0,0.164-0.017,0.218-0.049c0.04-0.021,0.069-0.058,0.092-0.108c0.018-0.037,0.025-0.134,0.025-0.29v-2.023
		c0-0.144-0.005-0.229-0.012-0.261c-0.017-0.056-0.045-0.097-0.086-0.126c-0.058-0.043-0.137-0.064-0.237-0.064h-0.103v-0.078h2.578
		v0.906h-0.078c-0.043-0.223-0.105-0.382-0.187-0.477c-0.08-0.096-0.194-0.166-0.34-0.212c-0.085-0.026-0.246-0.039-0.479-0.039
		L116.194,133.458L116.194,133.458z"/>
	<path fill="#0076C0" d="M123.347,134.728c0.295,0.067,0.504,0.148,0.622,0.246c0.171,0.139,0.257,0.316,0.257,0.536
		c0,0.233-0.094,0.425-0.279,0.575c-0.23,0.184-0.563,0.275-1.002,0.275h-1.567v-0.08c0.146,0,0.244-0.014,0.295-0.041
		c0.054-0.025,0.089-0.062,0.109-0.104c0.021-0.043,0.032-0.147,0.032-0.317v-1.996c0-0.17-0.012-0.275-0.032-0.319
		c-0.021-0.044-0.058-0.079-0.11-0.104c-0.052-0.026-0.15-0.039-0.294-0.039v-0.08h1.481c0.354,0,0.604,0.031,0.752,0.095
		c0.146,0.062,0.264,0.157,0.35,0.282c0.084,0.125,0.127,0.259,0.127,0.397c0,0.149-0.054,0.282-0.164,0.397
		C123.813,134.565,123.622,134.658,123.347,134.728L123.347,134.728z M122.526,134.668c0.215,0,0.373-0.026,0.476-0.073
		c0.103-0.049,0.181-0.117,0.233-0.205c0.057-0.089,0.082-0.201,0.082-0.338c0-0.138-0.024-0.249-0.08-0.336
		c-0.053-0.087-0.129-0.154-0.23-0.199c-0.1-0.045-0.259-0.067-0.479-0.064v1.216H122.526z M122.526,134.839v0.988v0.111
		c0,0.084,0.02,0.145,0.062,0.186c0.041,0.044,0.101,0.062,0.181,0.062c0.119,0,0.229-0.025,0.328-0.08s0.176-0.131,0.229-0.232
		c0.053-0.104,0.08-0.215,0.08-0.341c0-0.144-0.03-0.272-0.092-0.388c-0.061-0.114-0.147-0.193-0.267-0.239
		C122.933,134.858,122.758,134.838,122.526,134.839L122.526,134.839z"/>
	<path fill="#0076C0" d="M129.296,135.479h-1.086l-0.136,0.301c-0.041,0.102-0.062,0.186-0.062,0.252
		c0,0.087,0.034,0.152,0.104,0.193c0.041,0.023,0.142,0.043,0.302,0.055v0.08h-1.022v-0.08c0.108-0.018,0.199-0.063,0.271-0.139
		c0.07-0.076,0.159-0.232,0.264-0.471l1.104-2.459h0.043l1.111,2.525c0.104,0.244,0.192,0.396,0.261,0.459
		c0.052,0.049,0.125,0.076,0.218,0.082v0.08h-1.486v-0.08h0.062c0.119,0,0.203-0.017,0.251-0.049
		c0.034-0.026,0.051-0.062,0.051-0.107c0-0.027-0.005-0.057-0.015-0.085c-0.002-0.015-0.024-0.072-0.066-0.175L129.296,135.479
		L129.296,135.479z M129.224,135.313l-0.461-1.062l-0.478,1.062H129.224L129.224,135.313z"/>
	<path fill="#0076C0" d="M135.888,134.959l-0.992,1.401h-0.974v-0.086c0.083-0.004,0.155-0.03,0.22-0.078
		c0.041-0.032,0.109-0.114,0.207-0.248l0.74-1.045c-0.189-0.047-0.335-0.115-0.438-0.211c-0.166-0.148-0.246-0.336-0.246-0.562
		c0-0.188,0.055-0.352,0.164-0.488c0.107-0.14,0.25-0.233,0.424-0.285c0.173-0.053,0.445-0.078,0.82-0.078h1.437v0.08
		c-0.146,0-0.243,0.013-0.296,0.039c-0.053,0.024-0.09,0.059-0.11,0.103s-0.03,0.147-0.03,0.313v2.013
		c0,0.165,0.01,0.271,0.03,0.312c0.021,0.043,0.058,0.078,0.109,0.104c0.051,0.024,0.149,0.039,0.297,0.039v0.079h-1.595v-0.079
		c0.144,0,0.242-0.015,0.295-0.038c0.053-0.025,0.089-0.061,0.109-0.104c0.021-0.044,0.031-0.148,0.031-0.313v-0.866
		L135.888,134.959L135.888,134.959z M135.847,133.451c-0.244,0-0.42,0.056-0.529,0.167c-0.109,0.113-0.166,0.285-0.166,0.52
		c0,0.161,0.031,0.293,0.091,0.396c0.062,0.101,0.143,0.171,0.247,0.209c0.104,0.039,0.263,0.058,0.473,0.058h0.13v-1.348
		L135.847,133.451L135.847,133.451z"/>
	<path fill="#0076C0" d="M153.185,133.231c0.49-0.019,0.891,0.125,1.197,0.431c0.309,0.304,0.46,0.685,0.46,1.144
		c0,0.391-0.114,0.733-0.343,1.03c-0.303,0.396-0.732,0.59-1.285,0.59c-0.555,0-0.982-0.187-1.285-0.562
		c-0.24-0.297-0.359-0.648-0.359-1.057c0-0.457,0.154-0.84,0.467-1.145C152.349,133.356,152.729,133.214,153.185,133.231
		L153.185,133.231z M153.211,133.378c-0.28,0-0.495,0.145-0.644,0.432c-0.121,0.236-0.18,0.575-0.18,1.019
		c0,0.522,0.092,0.914,0.277,1.165c0.129,0.176,0.309,0.263,0.542,0.263c0.155,0,0.286-0.038,0.392-0.112
		c0.133-0.097,0.235-0.252,0.312-0.466c0.073-0.212,0.11-0.489,0.11-0.831c0-0.406-0.037-0.713-0.111-0.914
		c-0.077-0.201-0.174-0.344-0.292-0.429C153.499,133.421,153.364,133.378,153.211,133.378L153.211,133.378z"/>
	<path fill="#0076C0" d="M166.437,135.479h-1.086l-0.136,0.301c-0.042,0.102-0.063,0.186-0.063,0.252
		c0,0.087,0.035,0.152,0.104,0.193c0.04,0.023,0.142,0.043,0.302,0.055v0.08h-1.023v-0.08c0.109-0.018,0.201-0.063,0.273-0.139
		c0.069-0.076,0.157-0.232,0.262-0.471l1.104-2.459h0.044l1.111,2.525c0.104,0.244,0.192,0.396,0.261,0.459
		c0.051,0.049,0.125,0.076,0.219,0.082v0.08h-1.486v-0.08h0.062c0.12,0,0.204-0.017,0.252-0.049
		c0.034-0.026,0.052-0.062,0.052-0.107c0-0.027-0.006-0.057-0.015-0.085c-0.003-0.015-0.026-0.072-0.067-0.175L166.437,135.479
		L166.437,135.479z M166.362,135.313l-0.463-1.062l-0.477,1.062H166.362L166.362,135.313z"/>
	<path fill="#0076C0" d="M74.777,69.264c-0.926-0.463-1.422-1.522-1.124-2.415c0.297-0.859,1.29-1.224,2.215-0.794
		c0.761,0.364,1.192,1.19,1.687,1.852l0.926,1.289L77.06,69.33C76.298,69.396,75.505,69.627,74.777,69.264L74.777,69.264z"/>
	<path fill="#008752" d="M77.853,72.273c0.793,0.761,1.025,1.951,0.529,2.679c-0.529,0.695-1.554,0.662-2.349-0.066
		c-0.628-0.628-0.892-1.554-1.19-2.348l-0.628-1.555l1.455,0.396C76.398,71.579,77.224,71.677,77.853,72.273L77.853,72.273z"/>
	<path fill="#0076C0" d="M74.248,78.755c-0.992-0.133-1.719-1.025-1.653-1.952c0.099-0.959,0.959-1.587,1.951-1.455
		c0.794,0.132,1.422,0.794,2.051,1.258l1.224,0.959l-1.356,0.562C75.769,78.424,75.042,78.888,74.248,78.755L74.248,78.755z"/>
	<path fill="#D1D3D4" d="M76.001,82.493c-0.827,0.595-1.886,0.43-2.348-0.331c-0.497-0.794-0.166-1.918,0.661-2.513
		c0.694-0.497,1.554-0.43,2.315-0.497l1.456-0.166L77.39,80.41C76.994,81.136,76.695,81.997,76.001,82.493L76.001,82.493z"/>
	<path fill="#0076C0" d="M79.309,84.808c-0.827,0.53-1.885,0.298-2.315-0.529c-0.431-0.793-0.066-1.885,0.793-2.415
		c0.728-0.462,1.554-0.33,2.314-0.363l1.489-0.033l-0.827,1.355C80.366,83.518,80.036,84.345,79.309,84.808L79.309,84.808z"/>
	<path fill="#008752" d="M82.086,83.319c0.992-0.231,1.952,0.265,2.117,1.159c0.198,0.925-0.463,1.851-1.456,2.116
		c-0.827,0.232-1.588-0.132-2.349-0.331l-1.422-0.397l1.157-1.059C80.731,84.246,81.293,83.552,82.086,83.319L82.086,83.319z"/>
	<path fill="#0076C0" d="M85.957,89.041c-0.595,0.894-1.654,1.191-2.348,0.662c-0.662-0.562-0.728-1.72-0.133-2.613
		c0.496-0.729,1.29-1.025,1.984-1.39l1.356-0.728l-0.231,1.588C86.452,87.388,86.452,88.313,85.957,89.041L85.957,89.041z"/>
	<path fill="#0076C0" d="M89.329,91.324c-0.264,1.091-1.124,1.787-1.951,1.587c-0.794-0.199-1.256-1.257-0.992-2.348
		c0.198-0.893,0.827-1.489,1.356-2.15l0.991-1.257l0.331,1.62C89.23,89.57,89.528,90.431,89.329,91.324L89.329,91.324z"/>
	<path fill="#0076C0" d="M78.911,71.446c-0.165-1.124,0.332-2.149,1.158-2.348c0.827-0.199,1.621,0.562,1.786,1.687
		c0.132,0.892-0.231,1.753-0.463,2.58l-0.463,1.587l-0.86-1.29C79.605,73,79.011,72.339,78.911,71.446L78.911,71.446z"/>
	<path fill="#008752" d="M85.658,77.268c0.1,1.125-0.496,2.149-1.323,2.282c-0.827,0.165-1.587-0.628-1.686-1.753
		c-0.099-0.892,0.331-1.753,0.596-2.546l0.529-1.587l0.794,1.356C84.997,75.68,85.56,76.341,85.658,77.268L85.658,77.268z"/>
	<path fill="#008752" d="M87.713,64.098c-0.066,0.893-0.827,1.587-1.653,1.554c-0.86-0.033-1.455-0.794-1.389-1.688
		c0.066-0.728,0.628-1.322,1.025-1.917l0.76-1.158l0.596,1.224C87.35,62.708,87.778,63.336,87.713,64.098L87.713,64.098z"/>
	<path fill="#0076C0" d="M90.917,58.151c-0.066-0.894,0.562-1.688,1.422-1.787c0.828-0.099,1.555,0.562,1.588,1.455
		c0.066,0.728-0.398,1.389-0.695,2.018l-0.628,1.257l-0.729-1.092C91.479,59.44,90.95,58.878,90.917,58.151L90.917,58.151z"/>
	<path fill="#0076C0" d="M88.602,64.468c-0.43-1.092-0.265-2.315,0.397-2.746c0.628-0.429,1.521,0.133,1.951,1.191
		c0.363,0.894,0.298,1.886,0.298,2.778l0.065,1.753l-1.124-1.058C89.627,65.824,88.965,65.361,88.602,64.468L88.602,64.468z"/>
	<path fill="#0076C0" d="M96.44,64.038c-0.396-1.257-0.099-2.613,0.663-3.01c0.76-0.429,1.688,0.265,2.115,1.521
		c0.332,1.026,0.133,2.117,0.1,3.142l-0.1,1.952l-1.125-1.29C97.499,65.691,96.771,65.062,96.44,64.038L96.44,64.038z"/>
	<path fill="#0076C0" d="M85.99,70.223c-0.86-0.926-1.092-2.315-0.562-3.042c0.529-0.728,1.653-0.562,2.48,0.396
		c0.694,0.761,0.959,1.819,1.29,2.778l0.661,1.819l-1.521-0.628C87.543,71.215,86.65,71.016,85.99,70.223L85.99,70.223z"/>
	<path fill="#0076C0" d="M92.108,74.522c-0.232-0.992,0.265-2.017,1.125-2.282c0.86-0.298,1.786,0.298,2.018,1.29
		c0.198,0.793-0.131,1.653-0.331,2.414l-0.363,1.521l-1.026-1.058C93.001,75.845,92.339,75.349,92.108,74.522L92.108,74.522z"/>
	<path fill="#0076C0" d="M94.191,68.668c-0.065-1.025,0.596-1.918,1.489-2.018c0.892-0.066,1.686,0.695,1.752,1.721
		c0.065,0.86-0.43,1.586-0.762,2.314l-0.628,1.39l-0.794-1.257C94.821,70.156,94.258,69.495,94.191,68.668L94.191,68.668z"/>
	<path fill="#008752" d="M104.38,79.02c-0.927,0.231-1.787-0.397-1.886-1.323c-0.101-0.959,0.562-1.919,1.521-2.117
		c0.795-0.199,1.489,0.231,2.149,0.462l1.356,0.497l-1.19,1.059C105.769,78.127,105.172,78.855,104.38,79.02L104.38,79.02z"/>
	<path fill="#008752" d="M105.569,86.925c-0.926-0.265-1.555-1.257-1.391-2.216c0.166-0.959,1.025-1.522,1.951-1.257
		c0.762,0.198,1.29,0.959,1.854,1.521l1.091,1.125l-1.355,0.429C107.058,86.76,106.33,87.156,105.569,86.925L105.569,86.925z"/>
	<path fill="#0076C0" d="M103.552,87.156c0.562,0.496,0.661,1.422,0.232,2.051c-0.432,0.627-1.258,0.727-1.819,0.198
		c-0.464-0.397-0.595-1.124-0.794-1.72l-0.363-1.19l1.092,0.165C102.46,86.76,103.09,86.727,103.552,87.156L103.552,87.156z"/>
	<path fill="#0076C0" d="M111.06,79.781c0.894,0.165,1.521,1.124,1.39,2.116c-0.132,0.993-0.992,1.688-1.886,1.522
		c-0.728-0.133-1.289-0.827-1.817-1.356l-1.06-0.992l1.289-0.629C109.638,80.144,110.299,79.649,111.06,79.781L111.06,79.781z"/>
	<path fill="#0076C0" d="M100.541,58.581c0.497-0.86,1.522-1.125,2.283-0.563c0.761,0.563,0.96,1.72,0.462,2.581
		c-0.43,0.694-1.223,0.959-1.852,1.289l-1.256,0.695l0.032-1.588C100.244,60.201,100.146,59.275,100.541,58.581L100.541,58.581z"/>
	<path fill="#D1D3D4" d="M95.548,57.786c0-0.728,0.529-1.355,1.157-1.355c0.661-0.033,1.19,0.562,1.224,1.323
		c0,0.595-0.363,1.125-0.628,1.621l-0.529,0.993l-0.529-0.959C95.944,58.912,95.581,58.416,95.548,57.786L95.548,57.786z"/>
	<path fill="#008752" d="M112.812,72.604c-0.761,0.1-1.389-0.496-1.422-1.29c0-0.793,0.594-1.521,1.355-1.621
		c0.629-0.065,1.156,0.332,1.688,0.596l1.024,0.529l-0.992,0.761C113.938,71.975,113.44,72.505,112.812,72.604L112.812,72.604z"/>
	<path fill="#D1D3D4" d="M110.167,66.618c0.762-0.596,1.785-0.397,2.314,0.397c0.528,0.827,0.33,1.984-0.397,2.58
		c-0.628,0.497-1.422,0.43-2.149,0.497l-1.389,0.098l0.528-1.456C109.373,68.006,109.571,67.114,110.167,66.618L110.167,66.618z"/>
	<path fill="#008752" d="M105.306,65.957c-0.529,0.827-1.652,1.157-2.48,0.728c-0.828-0.431-1.024-1.455-0.496-2.316
		c0.463-0.661,1.324-0.992,2.018-1.355l1.391-0.761l-0.066,1.455C105.669,64.435,105.769,65.261,105.306,65.957L105.306,65.957z"/>
	<path fill="#0076C0" d="M111.126,74.39c0.396-0.925,1.391-1.291,2.184-0.86c0.793,0.464,1.125,1.554,0.728,2.479
		c-0.331,0.761-1.091,1.125-1.688,1.556l-1.188,0.858l-0.134-1.586C110.994,76.043,110.763,75.15,111.126,74.39L111.126,74.39z"/>
	<path fill="#0076C0" d="M99.317,79.979c0.597-0.793,1.654-0.859,2.315-0.198c0.694,0.661,0.761,1.818,0.166,2.612
		c-0.497,0.629-1.321,0.761-1.985,0.992l-1.355,0.497l0.23-1.555C98.823,81.534,98.823,80.607,99.317,79.979L99.317,79.979z"/>
	<path fill="#D1D3D4" d="M99.021,70.156c0.397-0.925,1.391-1.291,2.186-0.859c0.825,0.462,1.156,1.587,0.727,2.513
		c-0.33,0.728-1.059,1.091-1.688,1.521l-1.189,0.86l-0.101-1.588C98.89,71.81,98.688,70.917,99.021,70.156L99.021,70.156z"/>
	<path fill="#0076C0" d="M104.478,68.437c0.598-0.727,1.653-0.793,2.316-0.099c0.66,0.661,0.693,1.851,0.066,2.612
		c-0.498,0.596-1.291,0.727-1.985,0.926l-1.356,0.463l0.267-1.554C103.948,69.991,103.948,69.064,104.478,68.437L104.478,68.437z"/>
	<path fill="#0076C0" d="M95.879,76.143c0.43-0.562,1.157-0.628,1.654-0.133c0.463,0.463,0.493,1.291,0.099,1.853
		c-0.363,0.43-0.927,0.53-1.422,0.694l-0.96,0.331l0.198-1.092C95.515,77.234,95.548,76.573,95.879,76.143L95.879,76.143z"/>
	<path fill="#0076C0" d="M107.785,62.714c0.596-0.727,1.655-0.761,2.315-0.033c0.693,0.695,0.727,1.886,0.131,2.613
		c-0.527,0.595-1.322,0.662-2.018,0.86l-1.354,0.364l0.263-1.521C107.257,64.203,107.29,63.311,107.785,62.714L107.785,62.714z"/>
	<path fill="#D1D3D4" d="M101.501,90.364c0.662,0.694,0.529,1.72-0.232,2.313c-0.791,0.596-1.949,0.53-2.578-0.165
		c-0.528-0.595-0.528-1.422-0.629-2.117l-0.23-1.389l1.488,0.43C100.08,89.67,100.974,89.769,101.501,90.364L101.501,90.364z"/>
	<path fill="#008752" d="M88.867,98.666c-0.397,0.958-0.86,1.754-1.356,2.446c-1.09,1.457-2.315,2.416-3.109,3.21
		c1.257-0.497,2.283-1.125,3.109-1.888c4.234-3.77,3.242-10.187,2.282-14.221C89.66,91.125,89.727,96.517,88.867,98.666
		L88.867,98.666z"/>
	<path fill="#008752" d="M92.836,85.271c-0.96-3.605-2.514-5.259-4.366-7.31c-0.331-0.362-0.662-0.792-0.959-1.19
		c-2.513-3.34-3.67-7.045-4.63-9.492c0.198,4.861,2.415,8.136,4.63,11.377c2.381,3.44,4.796,6.812,4.697,12.006
		c-0.066-0.429-0.167-0.827-0.298-1.256c-0.893-3.01-2.48-4.927-4.399-6.482c-2.778-2.249-6.217-3.704-8.93-6.713
		c1.886,4.134,6.02,5.159,8.93,8.036c0.199,0.199,0.364,0.397,0.563,0.595c2.811,3.241,3.142,8.103,3.571,12.668
		c0.396,4.199,1.588,4.199,1.918-0.96c0.034-0.595,0.067-1.224,0.067-1.885V93.87C93.597,90.463,93.232,86.76,92.836,85.271
		L92.836,85.271z"/>
	<path fill="#0076C0" d="M92.67,81.798c-0.894-3.01-2.944-5.623-2.613-8.931c0.331-3.34,3.11-7.97,4.565-10.88
		c-2.381,6.912-5.854,10.551-1.521,16.868c0.992,1.456,1.356,3.274,1.588,5.061c0.033,0.131,0.033,0.264,0.066,0.396
		c0.86-2.513,2.217-4.928,4.1-7.11c3.44-3.903,7.543-5.126,11.875-5.722c-4.629,1.819-9.096,3.44-12.072,8.037
		c-1.785,2.812-2.976,6.118-3.406,9.492c0.1-0.264,0.231-0.562,0.364-0.827c2.083-3.803,10.649-5.623,13.594-12.006
		c-0.86,5.259-6.847,7.806-10.683,10.617c-1.521,1.091-2.118,3.605-2.25,5.325c-0.298,4.135,0.793,8.964,2.316,12.833
		C91.977,99.326,94.953,89.306,92.67,81.798L92.67,81.798z"/>
	<path fill="#008752" d="M77.844,108.165c10.14-8.344,22.63-1.426,33.985,0.133c-3.434,0.58-12.385-2.007-21.152-2.324
		c3.301,0.371,6.627,1.375,9.322,1.69c-2.562,0.606-13.679-2.614-18.775,0.687c1.136-1.188,2.536-1.875,4.041-2.244
		C82.571,106.396,80.062,107.005,77.844,108.165L77.844,108.165z"/>
	<path fill="#D1D3D4" d="M183.667,130.25H9.089c-0.317,0-0.585,0.194-0.585,0.425c0,0.232,0.268,0.428,0.585,0.428h174.578
		c0.316,0,0.585-0.194,0.585-0.428C184.252,130.444,183.983,130.25,183.667,130.25L183.667,130.25z"/>
	<path fill="#D1D3D4" d="M68.993,60.32c2.894-0.944,5.644-1.916,6.998-1.561c0.937,0.244,1.738,2.356,2.33,2.421
		c0.275,0.029,0.473-0.118,0.616-0.347c-0.066-0.241-0.004-0.594,0.275-0.679c0.287-0.052,0.506,0.231,0.558,0.477
		c0.231,0.137,0.475,0.177,0.705,0.024c0.498-0.33,0.237-2.574,0.955-3.222c1.032-0.93,3.879-1.335,6.855-1.819
		c0.127-0.021,0.334,0.009,0.092,0.194c-0.496,0.377-1.197,0.908-2.505,2.458c-0.893,1.06-2.043,3.36-3.958,5.314l1.539,0.869
		c-0.421,3.16-4.201,4.081-6.029,1.469l0.967-1.48c-2.599-0.854-4.678-2.367-5.959-2.897c-1.949-0.806-2.805-0.961-3.427-1.042
		C68.784,60.472,68.847,60.367,68.993,60.32L68.993,60.32z"/>
	<path fill="#D1D3D4" d="M70.354,59.768c2.38-0.756,4.499-1.429,5.668-1.124l0.001,0.001h0.001l0,0
		c0.548,0.145,1.028,0.844,1.456,1.466c0.335,0.489,0.636,0.927,0.853,0.951l0,0h0.001l0,0c0.032,0.003,0.062,0.004,0.09,0.001
		c0.027-0.001,0.054-0.005,0.081-0.013c0.122-0.033,0.222-0.12,0.304-0.238c-0.004-0.025-0.009-0.052-0.012-0.08
		c-0.004-0.044-0.005-0.088-0.002-0.132c0.013-0.24,0.127-0.482,0.383-0.56l0.007-0.002l0.006-0.001
		c0.006-0.001,0.004-0.001,0.008-0.001l0,0c0.051-0.009,0.103-0.008,0.152-0.001c0.05,0.007,0.096,0.021,0.139,0.041
		c0.188,0.087,0.327,0.287,0.382,0.478c0.015,0.007,0.029,0.015,0.045,0.022c0.029,0.013,0.057,0.024,0.085,0.033
		c0.136,0.043,0.275,0.035,0.407-0.052l0,0h0.001c0.182-0.123,0.247-0.649,0.32-1.237c0.094-0.75,0.198-1.593,0.62-1.973l0,0
		l0.001-0.001c0.898-0.81,3.088-1.186,5.548-1.609c0.149-0.025,0.777-0.138,1.265-0.231c0.149-0.028,0.541,0.014,0.403,0.256
		c-0.046,0.08-0.107,0.125-0.183,0.189c-0.466,0.399-1.177,0.917-2.423,2.394l0,0c-0.315,0.374-0.667,0.912-1.077,1.538
		c-0.714,1.09-1.598,2.44-2.779,3.672l1.405,0.794l0.07,0.039l-0.011,0.08c-0.149,1.12-0.709,1.969-1.456,2.492
		c-0.343,0.239-0.723,0.41-1.121,0.507c-0.398,0.097-0.814,0.121-1.229,0.066c-0.904-0.12-1.792-0.617-2.439-1.543l-0.046-0.065
		l0.043-0.067l0.883-1.351c-1.616-0.55-3.022-1.342-4.157-1.982c-0.651-0.367-1.213-0.683-1.664-0.869
		c-0.225-0.093-1.433-0.527-2.359-0.803c-0.619-0.185-1.065-0.215-1.182-0.335c-0.195-0.201,0.188-0.333,0.325-0.376
		C69.657,59.98,70.25,59.801,70.354,59.768L70.354,59.768z M70.425,59.995c-0.422,0.133-0.852,0.271-1.292,0.406
		c0.62,0.101,1.495,0.268,3.344,1.032c0.469,0.194,1.035,0.513,1.69,0.881c1.161,0.655,2.607,1.47,4.259,2.012l0.002,0.001l0,0
		l0.143,0.05l-0.083,0.126l-0.922,1.413c0.602,0.825,1.408,1.269,2.229,1.378c0.383,0.051,0.77,0.029,1.141-0.062
		c0.371-0.091,0.725-0.249,1.042-0.471c0.678-0.475,1.19-1.239,1.345-2.25l-1.468-0.829l-0.135-0.076l0.108-0.11
		c1.217-1.242,2.127-2.632,2.857-3.747c0.412-0.629,0.767-1.172,1.095-1.56c1.29-1.53,1.992-2.08,2.495-2.455
		c-0.453,0.083-0.898,0.158-1.334,0.234c-2.425,0.417-4.584,0.788-5.431,1.55l-0.001,0.001c-0.356,0.321-0.455,1.117-0.543,1.826
		c-0.08,0.646-0.152,1.225-0.425,1.406l-0.001,0.001c-0.198,0.131-0.406,0.145-0.609,0.08c-0.038-0.013-0.076-0.028-0.113-0.044
		c-0.036-0.017-0.072-0.036-0.108-0.058h-0.001h-0.001l-0.043-0.027l-0.011-0.049c-0.031-0.144-0.127-0.303-0.263-0.364
		c-0.024-0.011-0.048-0.019-0.073-0.022c-0.023-0.003-0.05-0.003-0.078,0.001c-0.137,0.046-0.2,0.194-0.208,0.342
		c-0.002,0.033,0,0.066,0.002,0.096c0.003,0.03,0.008,0.06,0.016,0.09l0,0c0,0.001,0,0.001,0.001,0.004l0.014,0.049l-0.027,0.044
		c-0.117,0.189-0.271,0.331-0.472,0.383c-0.039,0.011-0.08,0.018-0.124,0.021c-0.043,0.002-0.087,0.002-0.132-0.002v-0.001
		l-0.001,0.001c-0.326-0.035-0.656-0.516-1.025-1.053c-0.404-0.589-0.858-1.25-1.322-1.372H75.96l0,0
		C74.857,58.586,72.77,59.25,70.425,59.995L70.425,59.995z"/>
	<path fill="#D1D3D4" d="M76.168,61.002c1.209,0.12,1.638,0.794,2.148,1.925c0.009,0.019,0.018,0.039,0.027,0.059
		C78.062,62.936,77.022,61.29,76.168,61.002L76.168,61.002z"/>
	<path fill="#D1D3D4" d="M81.069,62.572L81.069,62.572c0.088,0.362,0.028,0.724-0.139,1.014c-0.165,0.285-0.433,0.501-0.766,0.583
		h-0.001l0,0c-0.334,0.081-0.672,0.012-0.948-0.165c-0.282-0.181-0.501-0.474-0.589-0.835l0,0c0.479,0.501,0.818,0.936,1.482,0.774
		h0.001C80.987,63.789,80.982,62.623,81.069,62.572L81.069,62.572z"/>
	<path fill="#D1D3D4" d="M82.213,59.695c-1.02,0.663-1.09,1.459-1.022,2.697c0.001,0.021,0.002,0.044,0.003,0.065
		C81.421,62.284,81.586,60.343,82.213,59.695L82.213,59.695z"/>
</g>
</svg>
