<?xml version="1.0" encoding="utf-8"?>
<!-- Generator: Adobe Illustrator 16.0.0, SVG Export Plug-In . SVG Version: 6.00 Build 0)  -->
<!DOCTYPE svg PUBLIC "-//W3C//DTD SVG 1.1//EN" "http://www.w3.org/Graphics/SVG/1.1/DTD/svg11.dtd">
<svg version="1.1" id="Layer_1" xmlns="http://www.w3.org/2000/svg" xmlns:xlink="http://www.w3.org/1999/xlink" x="0px" y="0px"
	 width="473.49px" height="200.427px" viewBox="46.718 183.251 473.49 200.427"
	 enable-background="new 46.718 183.251 473.49 200.427" xml:space="preserve">
<g>
	<g>
		<path d="M366.617,258.779c-0.146,2.232,3.385,3.672,4.318,5.184c11.521-17.928,59.475-29.376,84.744,3.672
			c3.744,4.896,6.77,9.36,8.064,13.392c0.359,0.144,0.646-0.36,1.008-0.504c-2.088-10.44,1.008-21.24,9.863-27.936
			c12.385-9.36,30.023-6.048,38.52,6.84c5.979,9,7.777,19.8,6.84,30.528c-1.148,14.111-7.27,27.721-12.959,40.607
			c-6.336,14.473-14.326,33.697-27.145,43.705c-4.248,3.383-10.584,5.328-17.137,5.688c-9.574,0.504-21.455-2.664-25.344-12.527
			c-0.791-1.944-0.646-4.752-2.734-2.231c-11.09,13.248-35.93,21.961-53.713,17.138c-13.969-3.816-23.473-19.08-18.359-32.978
			c1.871-4.97,4.824-10.151,4.463-11.735c-0.215-1.08-4.535-5.761-5.832-5.185c-0.791,0.287-2.734,3.168-5.039,6.84
			c-5.617,9.146-10.08,18.504-17.785,26.207c-5.396,5.399-11.664,10.297-19.295,11.953c-8.062,1.729-18.792,1.008-23.112-5.185
			c-0.286-0.434-0.646-0.647-1.295-0.36c-9.358,9.864-28.512,9.504-38.16-0.144c-7.632-7.633-5.616-17.496-6.768-27.145
			c-0.288-2.664-1.08-5.111-2.952-6.695c-4.896,8.279-9.288,17.424-14.688,25.199c-7.848,11.232-12.528,19.801-28.368,18.432
			c-5.976-0.504-11.88-2.664-15.84-6.119c-2.52-2.16-4.607-4.823-6.479-7.776c-6.48-9.863-12.528-18.863-19.801-27.069
			c-10.008-11.378-22.752-21.962-36.792-28.011c-8.136-3.455-19.367-7.271-26.783,0c-2.952,2.881-3.097,6.625,2.808,9.146
			c2.592,1.08,5.688,1.369,8.352,1.655c9.288,1.009,18.217-3.526,27.505,0.722c7.632,3.526,12.239,12.887,13.104,20.879
			c1.656,15.553-10.296,27-24.84,29.953c-7.272,1.512-15.408,1.512-23.4,0.358C74.44,371.171,53.2,355.475,47.8,327.539
			c-5.903-30.815,13.104-56.087,38.952-65.735c26.929-10.008,48.312,1.08,72.864,11.016c1.729-15.336,14.832-27.288,30.672-27.288
			c10.08,0,18.937,4.752,24.624,12.168c17.136-16.272,32.472-8.424,41.4-1.224c1.584-0.936,2.735-2.088,3.888-3.24
			c8.784-9.504,20.88-11.232,32.545-6.624c9.069,3.528,11.879,12.312,13.176,20.736c2.088,13.248-1.152,29.232,0.287,43.561
			c9.865,2.447,9.145-45.361,14.545-52.921c-0.504-0.648-0.865-1.224-1.297-1.872c-9.359-7.488-15.408-19.008-15.408-31.968
			c0-22.608,18.289-40.896,40.896-40.896c22.533,0,40.822,18.288,40.822,40.896C385.769,238.763,378.136,251.579,366.617,258.779z"
			/>
		<path fill="#FBC825" d="M295.769,281.099l-5.041,71.352c0.721,19.08-35.207,23.111-32.327-6.479l4.392-68.112
			c0.504-8.424,2.664-21.744,15.192-22.536C297.063,254.171,296.705,267.923,295.769,281.099z"/>
		<path fill="#FBC825" d="M248.824,292.332c-4.176,23.256-13.824,48.455-27.432,67.967c-5.616,8.064-12.385,11.017-21.456,7.201
			c-6.265-2.664-10.225-8.354-13.896-14.328c-11.088-18.289-25.92-33.553-43.704-45.36c-14.256-9.433-39.456-19.438-53.136-3.455
			c-3.312,3.89-5.112,8.783-4.248,14.328c1.656,10.151,9.433,14.903,17.496,16.416c8.784,1.584,17.136-2.449,25.776-1.08
			c9,1.367,12.888,13.896,8.063,21.022c-5.399,8.138-19.224,8.642-30.6,7.488c-17.424-1.801-32.328-8.352-41.76-24.264
			c-10.009-16.992-7.704-39.6,6.624-53.568c13.104-12.744,33.768-17.208,51.407-14.04c29.736,5.328,51.12,26.497,71.712,46.584
			c8.568,8.424,12.312,11.592,17.496-1.729c3.168-8.064,4.32-17.137,6.408-25.344c1.224-4.537,1.656-10.945,2.376-16.849
			c1.008-9.216,10.008-16.488,18.864-15.048C254.584,260.867,250.84,281.315,248.824,292.332z"/>
		<path fill="#FBC825" d="M450.062,327.755c-6.047,10.513-13.605,19.871-22.68,27.433c-9.863,8.207-30.672,21.601-44.783,16.416
			c-10.438-3.744-12.889-17.063-5.977-25.058c1.729-2.016,3.961-3.672,6.695-4.896c1.729-0.791,3.816-1.149,6.408-0.719
			c-0.215-1.226,0.361-2.593-0.504-3.527c-9,0-19.656-14.112-22.463-21.743c-5.545-15.336,0.072-35.138,12.455-45.649
			c18.936-16.128,49.32-13.752,66.096,4.104C460.505,290.314,460.433,309.539,450.062,327.755z"/>
		<path fill="#FBC825" d="M508.746,281.675c0.215,22.825-17.281,59.76-30.816,76.032c-4.537,5.545-6.984,8.137-14.617,9.648
			c-7.631,1.439-15.119-3.527-17.783-10.152c-2.305-5.543,0.791-11.231,4.104-15.408c13.609-17.135,23.904-38.735,26.064-58.319
			c0.793-6.624-0.359-12.816,1.801-17.28c4.318-8.712,19.367-8.352,25.199-1.656C506.658,269.003,508.673,275.771,508.746,281.675z"
			/>
		<path fill="#282F2F" d="M410.681,317.314c10.729,0,19.512-6.84,19.512-15.191c0-8.351-8.783-15.19-19.512-15.19
			c-10.801,0-19.512,6.84-19.512,15.19C391.169,310.474,399.88,317.314,410.681,317.314z"/>
		<path fill="#ED6E31" d="M344.945,253.451c16.129,0,29.305-13.176,29.305-29.304c0-16.2-13.176-29.376-29.305-29.376
			c-16.199,0-29.377,13.176-29.377,29.376C315.568,240.275,328.746,253.451,344.945,253.451z"/>
		<path fill="#FBC825" d="M189.424,297.227c12.024,0,21.816-9.791,21.816-21.744c0-12.024-9.792-21.816-21.816-21.816
			c-12.023,0-21.888,9.792-21.888,21.816C167.536,287.436,177.4,297.227,189.424,297.227z"/>
		<path fill="#FBC825" d="M359.994,281.675c0.215,22.825-17.281,59.76-30.816,76.032c-4.537,5.545-6.984,8.137-14.617,9.648
			c-7.631,1.439-15.119-3.527-17.855-10.152c-2.231-5.543,0.793-11.231,4.176-15.408c13.609-17.135,23.904-38.735,26.064-58.319
			c0.721-6.624-0.359-12.816,1.801-17.28c4.248-8.712,19.295-8.352,25.199-1.656C357.906,269.003,359.921,275.771,359.994,281.675z"
			/>
		<path fill="#0095D1" d="M410.681,308.748c5.615,0,10.295-2.953,10.295-6.625c0-3.6-4.68-6.623-10.295-6.623
			c-5.688,0-10.297,3.023-10.297,6.623C400.384,305.794,404.994,308.748,410.681,308.748z"/>
		<path fill="#FDCB26" d="M344.945,244.667c11.305,0,20.52-9.216,20.52-20.52s-9.215-20.52-20.52-20.52
			c-11.307,0-20.594,9.216-20.594,20.52C324.353,235.451,333.64,244.667,344.945,244.667z"/>
	</g>
</g>
</svg>
