<?xml version="1.0" encoding="utf-8"?>
<!-- Generator: Adobe Illustrator 16.0.0, SVG Export Plug-In . SVG Version: 6.00 Build 0)  -->
<!DOCTYPE svg PUBLIC "-//W3C//DTD SVG 1.1//EN" "http://www.w3.org/Graphics/SVG/1.1/DTD/svg11.dtd">
<svg version="1.1" id="Layer_1" xmlns="http://www.w3.org/2000/svg" xmlns:xlink="http://www.w3.org/1999/xlink" x="0px" y="0px"
	 width="118.307px" height="91.514px" viewBox="0 13.396 118.307 91.514" enable-background="new 0 13.396 118.307 91.514"
	 xml:space="preserve">
<g id="CuadrÌcula" display="none">
</g>
<g id="Capa_1">
</g>
<g id="Escritorio">
</g>
<g id="GuÌas">
</g>
<g id="Page_1">
	<g id="Capa_1_1_">
		<g>
			<g>
				<path fill="#231F20" d="M59.801,15.141c-22.345,0-42.164,15.53-42.164,34.862c0,21.499,18.607,34.604,42.164,34.604
					c23.556,0,42.164-14.011,42.164-34.604C101.965,30.442,82.729,15.141,59.801,15.141L59.801,15.141z M59.801,70.224
					C41.633,70.223,32.589,59.03,32.566,50.676C32.535,38.611,44.831,28.83,59.96,28.83s27.394,9.781,27.394,21.846
					S74.93,70.226,59.801,70.224L59.801,70.224z"/>
				<path fill="#231F20" d="M98.02,104.903c10.816,0,19.206-8.571,19.176-19.221c-0.03-11.183-8.358-19.384-19.502-19.303H22.044
					C10.8,66.299,2.537,75.351,2.564,85.682c0.029,10.824,8.521,19.221,19.479,19.228L98.02,104.903L98.02,104.903z"/>
			</g>
			<g>
				<g>
					<g>
						<defs>
							<rect id="SVGID_1_" x="29.173" y="24.25" width="57.9" height="46.486"/>
						</defs>
						<clipPath id="SVGID_2_">
							<use xlink:href="#SVGID_1_"  overflow="visible"/>
						</clipPath>
						<g transform="matrix(1 0 0 1 3.814697e-06 0)" clip-path="url(#SVGID_2_)">
						</g>
					</g>
				</g>
			</g>
			<g>
				<path fill="#FFFFFF" d="M58.347,13.396c-22.345,0-42.164,15.53-42.164,34.862c0,21.499,18.608,34.604,42.164,34.604
					s42.164-14.011,42.164-34.604C100.511,28.698,81.275,13.396,58.347,13.396L58.347,13.396z M58.347,68.48
					C40.18,68.479,31.135,57.286,31.113,48.931c-0.031-12.063,12.266-21.846,27.395-21.846s27.394,9.781,27.394,21.846
					C85.9,60.996,73.476,68.482,58.347,68.48L58.347,68.48z"/>
				<path fill="#FFFFFF" d="M96.565,103.159c10.817,0,19.207-8.571,19.178-19.221c-0.032-11.183-8.359-19.383-19.502-19.303H20.589
					C9.347,64.555,1.083,73.607,1.111,83.938c0.029,10.825,8.521,19.221,19.479,19.227L96.565,103.159L96.565,103.159z"/>
			</g>
			<g>
				<g>
					
						<linearGradient id="SVGID_3_" gradientUnits="userSpaceOnUse" x1="160.3489" y1="-715.9646" x2="160.3489" y2="-787.1755" gradientTransform="matrix(0.4872 0 0 -0.4872 -47.5184 -318.8246)">
						<stop  offset="0" style="stop-color:#1CB3E8"/>
						<stop  offset="0.5" style="stop-color:#CFEDFC"/>
						<stop  offset="1" style="stop-color:#00B1E8"/>
					</linearGradient>
					<path fill="url(#SVGID_3_)" d="M23.953,64.687c-7.938-11.365-5.936-28.538,4.446-34.694l9.728,6.75
						c-3.538,3.461-5.052,6.709-5.036,11.521c0.017,4.792,0.284,9.316,9.022,16.423H23.953L23.953,64.687z"/>
					
						<linearGradient id="SVGID_4_" gradientUnits="userSpaceOnUse" x1="158.6321" y1="-721.2244" x2="158.6321" y2="-787.0994" gradientTransform="matrix(0.4872 0 0 -0.4872 -47.5184 -318.8246)">
						<stop  offset="0" style="stop-color:#BCCEE5"/>
						<stop  offset="0.5" style="stop-color:#FFFFFF"/>
						<stop  offset="1" style="stop-color:#B8C0D9"/>
					</linearGradient>
					<path fill="url(#SVGID_4_)" d="M35.587,64.65c-9.958-8.666-8.891-24.107-0.727-29.854l-3.359-2.241
						c-7.207,4.794-11.714,19.618-1.923,32.095H35.587L35.587,64.65z"/>
				</g>
				<g>
					
						<linearGradient id="SVGID_5_" gradientUnits="userSpaceOnUse" x1="274.0735" y1="-715.4021" x2="274.0735" y2="-787.0798" gradientTransform="matrix(0.4872 0 0 -0.4872 -47.5184 -318.8246)">
						<stop  offset="0" style="stop-color:#1CB3E8"/>
						<stop  offset="0.5" style="stop-color:#CFEDFC"/>
						<stop  offset="1" style="stop-color:#00B1E8"/>
					</linearGradient>
					<path fill="url(#SVGID_5_)" d="M91.951,64.639c8.861-12.383,6.858-28.156-4.175-34.921l-9.727,6.75
						c3.538,3.461,5.159,6.711,5.035,11.521c-0.102,3.868,0.443,9.318-8.568,16.65L91.951,64.639L91.951,64.639z"/>
					
						<linearGradient id="SVGID_6_" gradientUnits="userSpaceOnUse" x1="275.1897" y1="-720.6619" x2="275.1897" y2="-787.0974" gradientTransform="matrix(0.4872 0 0 -0.4872 -47.5184 -318.8246)">
						<stop  offset="0" style="stop-color:#BCCEE5"/>
						<stop  offset="0.5" style="stop-color:#FFFFFF"/>
						<stop  offset="1" style="stop-color:#B8C0D9"/>
					</linearGradient>
					<path fill="url(#SVGID_6_)" d="M80.316,64.648c10.853-9.298,9.163-24.379,0.999-30.125l3.36-2.242
						c8.131,5.462,12.502,19.076,1.65,32.368L80.316,64.648L80.316,64.648z"/>
				</g>
			</g>
			
				<radialGradient id="SVGID_7_" cx="218.9407" cy="-749.4236" r="75.6717" gradientTransform="matrix(0.4872 0 0 -0.4872 -47.5184 -318.8246)" gradientUnits="userSpaceOnUse">
				<stop  offset="0.14" style="stop-color:#000000"/>
				<stop  offset="0.14" style="stop-color:#FFF570"/>
				<stop  offset="0.536" style="stop-color:#FFF685"/>
				<stop  offset="0.86" style="stop-color:#F7986B"/>
			</radialGradient>
			<path fill="url(#SVGID_7_)" d="M82.804,39.262c-4.61-6.929-13.712-12.129-24.237-12.146c-10.836-0.018-19.996,5.205-24.76,12.057
				l-11.524-4.989c6.958-10.324,20.683-18.499,36.4-18.391C74.302,15.902,87.8,24.177,94.574,34.49L82.804,39.262L82.804,39.262z"/>
			<g>
				<path d="M29.162,33.943l-0.913-0.815l1.852-2.162l0.95,0.772l-0.079,0.093c-0.331-0.205-0.57-0.311-0.718-0.315
					c-0.148-0.007-0.316,0.103-0.506,0.322l-0.184,0.214l2.807,2.39c0.213,0.181,0.363,0.27,0.455,0.267
					c0.09-0.003,0.21-0.075,0.358-0.217l0.1,0.084l-0.956,1.115l-0.1-0.084c0.121-0.179,0.169-0.312,0.146-0.401
					c-0.025-0.09-0.156-0.235-0.395-0.438l-2.742-2.334l-0.183,0.213c-0.181,0.212-0.261,0.394-0.239,0.544
					c0.022,0.15,0.163,0.371,0.426,0.661L29.162,33.943L29.162,33.943z"/>
				<path d="M31.555,30.274c-0.074-0.079-0.108-0.141-0.104-0.184s0.058-0.112,0.161-0.211c0.155-0.144,0.309-0.229,0.458-0.256
					c0.28-0.051,0.562,0.075,0.847,0.381c0.296,0.317,0.398,0.624,0.31,0.92c-0.054,0.173-0.208,0.388-0.46,0.647L31.555,30.274
					L31.555,30.274z M34.78,33.065l-0.088-0.096c-0.155,0.112-0.278,0.161-0.368,0.147s-0.227-0.118-0.408-0.312l-0.966-1.036
					l0.193-0.203l2.392,0.803l0.596-0.552l-0.089-0.097c-0.083,0.059-0.166,0.091-0.248,0.097c-0.083,0.006-0.186-0.011-0.31-0.05
					l-2.005-0.628c0.164-0.235,0.241-0.479,0.229-0.73s-0.14-0.508-0.384-0.771c-0.364-0.392-0.749-0.534-1.154-0.431
					c-0.214,0.056-0.427,0.182-0.642,0.378l-1.022,0.948l0.091,0.098c0.148-0.107,0.27-0.151,0.361-0.131
					c0.092,0.021,0.225,0.124,0.396,0.311l2.126,2.279c0.205,0.221,0.317,0.375,0.338,0.469c0.021,0.092-0.029,0.214-0.154,0.362
					l0.089,0.097L34.78,33.065L34.78,33.065z"/>
				<path d="M35.128,27.793l1.648,1.247l-0.935,0.688L35.128,27.793L35.128,27.793z M36.851,31.118
					c-0.104,0.06-0.181,0.09-0.231,0.093c-0.083,0.003-0.161-0.044-0.234-0.143c-0.036-0.049-0.075-0.122-0.117-0.222
					s-0.148-0.377-0.324-0.833l1.063-0.781l0.581,0.433c0.082,0.062,0.156,0.123,0.222,0.186c0.066,0.062,0.11,0.106,0.131,0.136
					c0.062,0.084,0.085,0.149,0.066,0.197c-0.019,0.047-0.082,0.122-0.189,0.225l0.078,0.104l1.033-0.761l-0.077-0.104
					c-0.108,0.052-0.203,0.064-0.282,0.044c-0.078-0.021-0.232-0.117-0.461-0.286l-3.438-2.535l-0.08,0.059l1.254,3.462
					c0.188,0.519,0.292,0.846,0.31,0.979c0.02,0.135-0.018,0.249-0.108,0.343l0.078,0.104l0.805-0.593L36.851,31.118L36.851,31.118z
					"/>
				<path d="M37.655,25.622c-0.06-0.104-0.081-0.18-0.063-0.229c0.018-0.051,0.075-0.104,0.172-0.161
					c0.395-0.229,0.79-0.274,1.189-0.139c0.466,0.16,0.885,0.56,1.257,1.195c0.417,0.714,0.543,1.316,0.377,1.809
					c-0.108,0.319-0.333,0.578-0.673,0.776c-0.109,0.062-0.19,0.089-0.245,0.076c-0.055-0.012-0.11-0.068-0.169-0.169L37.655,25.622
					L37.655,25.622z M40.166,29.035c0.325-0.188,0.564-0.406,0.719-0.653c0.086-0.134,0.15-0.294,0.192-0.48
					c0.066-0.296,0.062-0.609-0.012-0.939c-0.073-0.33-0.202-0.649-0.383-0.96c-0.501-0.858-1.097-1.312-1.787-1.358
					c-0.382-0.026-0.771,0.073-1.168,0.305l-1.175,0.683l0.067,0.115c0.171-0.078,0.299-0.098,0.384-0.061
					c0.084,0.037,0.191,0.17,0.325,0.396l1.613,2.763c0.138,0.234,0.198,0.396,0.185,0.48c-0.016,0.086-0.095,0.187-0.239,0.303
					l0.065,0.112L40.166,29.035L40.166,29.035z"/>
				<path d="M42.039,27.994l-0.058-0.117c0.176-0.107,0.276-0.206,0.302-0.292c0.025-0.087-0.022-0.255-0.146-0.506l-1.402-2.876
					c-0.115-0.237-0.218-0.377-0.305-0.419c-0.088-0.042-0.228-0.024-0.419,0.052l-0.059-0.119l1.343-0.65l0.059,0.12
					c-0.178,0.103-0.277,0.199-0.3,0.295c-0.021,0.096,0.026,0.262,0.142,0.5l1.402,2.876c0.122,0.25,0.226,0.393,0.31,0.426
					s0.223,0.015,0.417-0.056l0.057,0.116L42.039,27.994L42.039,27.994z"/>
				<path d="M43.304,22.12c0.169-0.067,0.357-0.102,0.564-0.102c0.208,0,0.321-0.005,0.343-0.014
					c0.044-0.018,0.079-0.053,0.104-0.104c0.025-0.05,0.031-0.115,0.018-0.195l0.098-0.039l0.649,1.479l-0.107,0.043
					c-0.183-0.271-0.361-0.479-0.536-0.621c-0.331-0.267-0.658-0.333-0.981-0.202c-0.328,0.131-0.521,0.424-0.58,0.876
					c-0.06,0.452,0.042,1.002,0.304,1.648c0.24,0.595,0.542,1.024,0.904,1.293c0.361,0.267,0.711,0.333,1.046,0.197
					c0.242-0.098,0.432-0.27,0.569-0.517c0.079-0.14,0.15-0.333,0.215-0.579l0.137,0.089c-0.028,0.229-0.09,0.444-0.188,0.647
					c-0.166,0.344-0.401,0.577-0.708,0.701c-0.503,0.2-0.994,0.134-1.476-0.206c-0.444-0.313-0.793-0.787-1.05-1.422
					c-0.262-0.647-0.338-1.251-0.229-1.808C42.516,22.706,42.817,22.316,43.304,22.12L43.304,22.12z"/>
				<path d="M46.515,26.082l-0.04-0.123c0.188-0.083,0.301-0.166,0.338-0.249c0.037-0.082,0.013-0.256-0.074-0.521l-0.994-3.039
					c-0.083-0.252-0.165-0.403-0.246-0.458c-0.082-0.054-0.223-0.055-0.422-0.005l-0.042-0.127l1.42-0.462l0.042,0.127
					c-0.19,0.076-0.304,0.16-0.337,0.252c-0.034,0.092-0.011,0.263,0.071,0.514l0.995,3.04c0.087,0.266,0.169,0.419,0.248,0.464
					s0.219,0.046,0.421,0.002l0.041,0.124L46.515,26.082L46.515,26.082z"/>
				<path d="M47.963,21.394c0.115-0.401,0.32-0.639,0.613-0.711c0.283-0.07,0.571,0.038,0.862,0.323
					c0.292,0.287,0.533,0.812,0.724,1.571c0.188,0.752,0.222,1.324,0.103,1.717c-0.12,0.393-0.324,0.624-0.612,0.695
					c-0.295,0.073-0.588-0.04-0.878-0.34c-0.29-0.301-0.526-0.818-0.71-1.551C47.881,22.363,47.847,21.795,47.963,21.394
					L47.963,21.394z M48.407,24.863c0.413,0.367,0.85,0.493,1.309,0.38c0.429-0.107,0.745-0.396,0.948-0.873
					c0.226-0.53,0.245-1.174,0.056-1.931c-0.186-0.744-0.499-1.3-0.937-1.666c-0.405-0.338-0.828-0.452-1.271-0.343
					c-0.439,0.108-0.759,0.405-0.958,0.893c-0.216,0.531-0.23,1.169-0.044,1.914C47.688,23.945,47.986,24.487,48.407,24.863
					L48.407,24.863z"/>
				<path d="M52.586,24.543l-0.021-0.129c-0.184-0.001-0.308-0.036-0.372-0.104c-0.098-0.106-0.175-0.354-0.231-0.742l-0.411-2.771
					l2.787,3.574l0.085-0.014l-0.555-3.742c-0.057-0.373-0.06-0.616-0.012-0.729c0.048-0.112,0.165-0.197,0.352-0.254l-0.02-0.132
					l-1.173,0.173l0.021,0.133c0.187-0.005,0.312,0.027,0.378,0.097c0.098,0.105,0.177,0.354,0.234,0.746l0.354,2.378l-2.433-3.141
					l-0.855,0.127l0.02,0.133c0.104-0.012,0.183-0.006,0.238,0.016c0.056,0.022,0.129,0.088,0.22,0.2l0.085,0.104l0.466,3.137
					c0.055,0.375,0.062,0.617,0.019,0.729s-0.166,0.197-0.368,0.258l0.02,0.129L52.586,24.543L52.586,24.543z"/>
				<path d="M56.104,19.347l1.412-0.02l0.002,0.133c-0.119-0.003-0.207,0.013-0.266,0.042c-0.059,0.031-0.087,0.099-0.085,0.198
					c0,0.03,0.006,0.068,0.016,0.113c0.01,0.046,0.034,0.105,0.069,0.181l0.769,1.586l0.703-1.631
					c0.028-0.068,0.047-0.124,0.056-0.169c0.009-0.044,0.013-0.078,0.013-0.099c-0.001-0.104-0.041-0.17-0.119-0.202
					c-0.046-0.021-0.125-0.031-0.237-0.031l-0.001-0.134l1.104-0.016l0.002,0.134c-0.104,0.009-0.192,0.054-0.272,0.134
					c-0.123,0.126-0.26,0.357-0.412,0.697l-0.725,1.631l0.019,1.399c0.004,0.278,0.038,0.452,0.103,0.521
					c0.063,0.067,0.206,0.107,0.427,0.122l0.001,0.13l-1.542,0.021l-0.002-0.13c0.229-0.021,0.369-0.071,0.423-0.149
					c0.054-0.08,0.079-0.275,0.075-0.591l-0.017-1.249l-0.68-1.37c-0.234-0.472-0.398-0.774-0.493-0.907
					c-0.094-0.133-0.207-0.204-0.338-0.212L56.104,19.347L56.104,19.347z"/>
				<path d="M62.955,20.521l0.338,2.036l-1.152-0.142L62.955,20.521L62.955,20.521z M61.915,24.118
					c-0.116-0.027-0.193-0.059-0.232-0.092c-0.062-0.055-0.087-0.143-0.072-0.263c0.009-0.062,0.031-0.142,0.068-0.241
					c0.038-0.102,0.151-0.376,0.339-0.826l1.312,0.159l0.123,0.712c0.018,0.101,0.028,0.196,0.033,0.286
					c0.007,0.091,0.008,0.152,0.002,0.188c-0.013,0.104-0.042,0.167-0.087,0.188c-0.046,0.021-0.144,0.033-0.292,0.034l-0.017,0.128
					l1.274,0.155l0.017-0.129c-0.115-0.038-0.193-0.092-0.235-0.161s-0.088-0.244-0.138-0.523l-0.751-4.197l-0.099-0.012
					l-1.475,3.374c-0.222,0.505-0.371,0.812-0.45,0.925c-0.078,0.11-0.185,0.168-0.314,0.174l-0.016,0.129l0.992,0.12L61.915,24.118
					L61.915,24.118z"/>
				<path d="M66.223,20.625c0.022-0.104,0.053-0.169,0.091-0.189c0.037-0.022,0.126-0.019,0.267,0.013
					c0.207,0.046,0.363,0.122,0.472,0.229c0.202,0.199,0.258,0.504,0.169,0.909c-0.093,0.423-0.287,0.684-0.583,0.778
					c-0.171,0.054-0.437,0.052-0.795-0.008L66.223,20.625L66.223,20.625z M65.759,24.856l0.027-0.127
					c-0.182-0.062-0.292-0.137-0.331-0.219c-0.04-0.08-0.032-0.253,0.024-0.514l0.305-1.381l0.277,0.042l0.7,2.417l0.795,0.174
					l0.027-0.127c-0.096-0.035-0.168-0.085-0.221-0.147c-0.051-0.064-0.097-0.158-0.135-0.281l-0.625-2.001
					c0.287,0,0.532-0.076,0.732-0.229c0.201-0.151,0.34-0.402,0.417-0.754c0.114-0.521,0.014-0.918-0.304-1.189
					c-0.167-0.146-0.394-0.247-0.678-0.311l-1.364-0.298l-0.028,0.13c0.174,0.061,0.278,0.134,0.313,0.222
					c0.035,0.089,0.025,0.256-0.028,0.503l-0.668,3.041c-0.064,0.293-0.129,0.474-0.193,0.544c-0.062,0.068-0.193,0.097-0.388,0.08
					l-0.028,0.127L65.759,24.856L65.759,24.856z"/>
				<path d="M68.638,21.889l0.393-1.158l2.724,0.845l-0.338,1.175L71.3,22.714c0.058-0.384,0.061-0.645,0.008-0.781
					c-0.053-0.138-0.219-0.25-0.498-0.336l-0.269-0.084l-1.097,3.513c-0.084,0.266-0.104,0.438-0.066,0.521s0.15,0.163,0.342,0.243
					l-0.039,0.125l-1.405-0.437l0.039-0.124c0.211,0.041,0.354,0.032,0.428-0.026c0.071-0.058,0.155-0.234,0.249-0.532l1.07-3.432
					l-0.269-0.083c-0.268-0.083-0.466-0.085-0.597-0.005s-0.277,0.296-0.441,0.648L68.638,21.889L68.638,21.889z"/>
				<path d="M70.418,26.143l0.05-0.12c0.183,0.043,0.312,0.044,0.388,0.003s0.165-0.188,0.269-0.439l1.203-2.964
					c0.097-0.235,0.134-0.4,0.112-0.494c-0.021-0.093-0.113-0.183-0.28-0.271l0.051-0.123l2.484,1.003L74.321,23.7l-0.117-0.048
					c0.08-0.312,0.099-0.526,0.054-0.646c-0.043-0.118-0.202-0.232-0.478-0.345l-0.636-0.256c-0.067-0.027-0.116-0.028-0.146-0.004
					c-0.028,0.024-0.062,0.081-0.097,0.168l-0.604,1.486l0.72,0.291c0.2,0.079,0.345,0.089,0.435,0.025
					c0.089-0.062,0.201-0.216,0.341-0.46l0.109,0.044l-0.627,1.542l-0.108-0.044c0.069-0.271,0.094-0.461,0.073-0.565
					c-0.021-0.106-0.131-0.199-0.328-0.278l-0.721-0.291l-0.67,1.648c-0.054,0.133-0.057,0.224-0.008,0.271
					c0.05,0.048,0.221,0.131,0.513,0.249c0.316,0.128,0.57,0.172,0.763,0.134c0.189-0.037,0.424-0.222,0.697-0.553l0.131,0.053
					l-0.671,1.04L70.418,26.143L70.418,26.143z"/>
				<path d="M73.414,27.475l0.1,0.049c0.031-0.049,0.068-0.092,0.11-0.129c0.041-0.037,0.089-0.042,0.142-0.017
					c0.021,0.012,0.09,0.094,0.204,0.244c0.114,0.151,0.24,0.262,0.38,0.332c0.278,0.139,0.562,0.14,0.855,0.003
					c0.291-0.136,0.521-0.373,0.691-0.709c0.126-0.252,0.187-0.494,0.18-0.728c-0.011-0.233-0.084-0.521-0.223-0.862l-0.222-0.546
					c-0.083-0.204-0.13-0.384-0.14-0.538c-0.013-0.152,0.022-0.311,0.106-0.477c0.093-0.185,0.211-0.306,0.354-0.361
					c0.145-0.058,0.277-0.056,0.4,0.006c0.158,0.079,0.277,0.241,0.357,0.485c0.08,0.245,0.054,0.591-0.081,1.04l0.107,0.054
					l0.591-1.417l-0.094-0.046c-0.046,0.062-0.09,0.106-0.13,0.135c-0.04,0.026-0.089,0.025-0.145-0.001
					c-0.021-0.011-0.084-0.088-0.193-0.233c-0.106-0.145-0.214-0.241-0.315-0.294c-0.249-0.124-0.505-0.116-0.765,0.022
					s-0.472,0.371-0.635,0.696c-0.123,0.242-0.172,0.5-0.146,0.767c0.016,0.142,0.055,0.293,0.117,0.456l0.213,0.534
					c0.123,0.308,0.193,0.527,0.214,0.661c0.027,0.207-0.012,0.416-0.116,0.625c-0.117,0.23-0.261,0.387-0.432,0.464
					s-0.326,0.079-0.472,0.007c-0.266-0.133-0.412-0.394-0.44-0.782c-0.018-0.223,0.011-0.498,0.078-0.825l-0.104-0.052
					L73.414,27.475L73.414,27.475z"/>
				<path d="M78.996,26.055l-0.556,1.986l-0.984-0.611L78.996,26.055L78.996,26.055z M76.531,28.877
					c-0.095-0.074-0.15-0.135-0.173-0.181c-0.033-0.076-0.019-0.166,0.046-0.271c0.032-0.051,0.088-0.113,0.164-0.188
					c0.077-0.074,0.297-0.277,0.657-0.607l1.121,0.697l-0.188,0.697c-0.027,0.099-0.059,0.189-0.092,0.273
					c-0.032,0.084-0.059,0.142-0.076,0.171c-0.057,0.091-0.109,0.135-0.16,0.136c-0.051,0-0.145-0.03-0.278-0.094l-0.069,0.11
					l1.09,0.677l0.068-0.108c-0.088-0.083-0.136-0.164-0.144-0.245c-0.01-0.081,0.022-0.259,0.097-0.533l1.096-4.121l-0.083-0.053
					l-2.766,2.438c-0.415,0.365-0.682,0.582-0.8,0.649c-0.118,0.066-0.238,0.075-0.359,0.024l-0.069,0.109l0.851,0.527
					L76.531,28.877L76.531,28.877z"/>
				<path d="M78.576,30.297l0.081-0.102c0.183,0.104,0.329,0.135,0.44,0.09c0.11-0.045,0.284-0.217,0.521-0.515l1.97-2.487
					l0.019-0.134c0.02-0.144,0.019-0.241-0.005-0.297c-0.021-0.056-0.073-0.116-0.15-0.185l0.083-0.104l0.679,0.534l-0.625,3.918
					l1.494-1.889c0.246-0.311,0.374-0.537,0.384-0.683c0.005-0.094-0.058-0.207-0.188-0.34L83.361,28l0.931,0.733l-0.082,0.104
					c-0.169-0.097-0.312-0.124-0.426-0.08c-0.116,0.042-0.292,0.212-0.525,0.508l-2.354,2.971l-0.066-0.054l0.697-4.474
					l-1.741,2.198c-0.244,0.309-0.371,0.534-0.383,0.678c-0.008,0.093,0.053,0.207,0.179,0.342l-0.081,0.104L78.576,30.297
					L78.576,30.297z"/>
				<path d="M82.428,33.549l0.089-0.095c-0.135-0.155-0.201-0.278-0.2-0.368c0.002-0.09,0.1-0.235,0.291-0.438l2.199-2.326
					c0.184-0.193,0.321-0.296,0.418-0.311c0.097-0.014,0.226,0.045,0.383,0.176l0.093-0.099l-1.086-1.021l-0.093,0.097
					c0.141,0.15,0.205,0.274,0.197,0.371c-0.008,0.098-0.104,0.242-0.285,0.435l-2.2,2.326c-0.19,0.203-0.332,0.309-0.423,0.315
					c-0.09,0.006-0.217-0.053-0.381-0.178l-0.089,0.095L82.428,33.549L82.428,33.549z"/>
				<path d="M86.443,32.231l-1.106,1.743l-0.767-0.87L86.443,32.231L86.443,32.231z M83.265,34.224
					c-0.066-0.099-0.104-0.173-0.111-0.224c-0.011-0.082,0.03-0.164,0.123-0.244c0.045-0.04,0.115-0.085,0.211-0.135
					c0.097-0.049,0.364-0.18,0.806-0.392l0.871,0.99l-0.383,0.612c-0.056,0.086-0.11,0.165-0.166,0.236
					c-0.058,0.071-0.099,0.118-0.124,0.142c-0.079,0.069-0.145,0.098-0.192,0.082c-0.049-0.014-0.128-0.069-0.24-0.169l-0.098,0.086
					l0.847,0.962l0.099-0.085c-0.062-0.104-0.082-0.196-0.066-0.275c0.015-0.08,0.098-0.241,0.247-0.482l2.244-3.629l-0.065-0.074
					l-3.354,1.537c-0.503,0.23-0.821,0.361-0.953,0.392c-0.133,0.029-0.251,0.004-0.353-0.08l-0.099,0.086l0.66,0.75L83.265,34.224
					L83.265,34.224z"/>
			</g>
			<path fill="#0068A6" d="M95.721,100.185c10.299,0.015,16.604-8.294,16.562-16.302c-0.049-9.298-7.584-16.373-16.382-16.373
				H20.695c-9.742,0-16.149,8.02-16.176,16.519c-0.031,9.621,8.879,16.141,16.085,16.156H95.721L95.721,100.185z"/>
			<g>
				<path fill="#FFFFFF" d="M20.357,78.863c-1.556,0-1.647-1.63-1.647-1.63c0-0.748-0.169-1.339-0.702-1.339
					c-0.532,0-0.702,0.591-0.702,1.339c0,3.05,4.705,2.49,4.705,8.279c0,3.518-1.448,5.386-4.258,5.386
					c-2.15,0-3.812-1.214-3.812-4.42c0,0-0.197-2.168,1.593-2.168c1.869,0,1.771,2.013,1.771,2.013c0,0.747,0.17,1.338,0.702,1.338
					c0.533,0,0.702-0.591,0.702-1.338c0-4.234-4.769-2.927-4.769-8.717c0-3.549,1.725-4.949,3.938-4.949
					c2.554,0,4.192,1.463,4.192,4.451C22.073,77.108,21.914,78.863,20.357,78.863L20.357,78.863z"/>
				<path fill="#FFFFFF" d="M37.219,76.087c2.49,0,4.053,2.033,4.056,3.898l-0.002,9.187c0,0,0.117,1.673-1.712,1.697
					c-1.66,0.021-1.66-1.697-1.66-1.697l0.012-8.453c0-0.637-0.073-1.49-0.711-1.49c-0.64,0-0.694,0.854-0.694,1.49L36.5,89.172
					c0,0,0.064,1.709-1.647,1.709c-1.725,0-1.709-1.756-1.709-1.756V79.94C33.127,78.138,34.729,76.087,37.219,76.087L37.219,76.087
					z"/>
				<path fill="#FFFFFF" d="M49.035,90.917c-1.868,0.023-1.817-1.695-1.817-1.695V74.21c0,0,0.027-1.459,1.817-1.413
					c1.79,0.044,1.717,1.413,1.717,1.413v15.01C50.752,89.219,50.902,90.893,49.035,90.917L49.035,90.917z"/>
				<path fill="#FFFFFF" d="M60.181,88.458c-0.082,4.779-0.847,6.659-2.234,7.755c-1.988,1.571-6.818,2.164-6.818-0.194
					c0-1.938,2.273-1.68,3.506-2.051c1.594-0.479,1.902-1.885,1.872-3.546l-0.431,0.398c0,0,0.167,0.238-0.918,0.238
					c-1.979,0-3.067-1.849-3.067-3.96v-7.086c0-2.316,2.314-3.926,4.183-3.926c1.867,0,3.931,1.362,3.95,3.854
					C60.24,82.433,60.181,88.458,60.181,88.458L60.181,88.458z M55.453,86.361c0,0.533,0.148,1.094,0.702,1.094
					c0.555,0,0.703-0.561,0.703-1.094V80.49c0-0.534-0.148-1.094-0.703-1.094c-0.554,0-0.702,0.56-0.702,1.094V86.361L55.453,86.361
					z"/>
				<path fill="#FFFFFF" d="M103.742,87.132c0,2.697-1.916,3.868-4.066,3.868c-2.149,0-4.065-1.171-4.065-3.868v-6.947
					c0-2.621,1.447-4.098,4.065-4.098c2.619,0,4.066,1.477,4.066,4.098V87.132L103.742,87.132z M98.974,87.335
					c0,0.535,0.17,1.02,0.702,1.02s0.703-0.483,0.703-1.02v-7.584c0-0.534-0.171-1.018-0.703-1.018s-0.702,0.482-0.702,1.018V87.335
					L98.974,87.335z"/>
				<path fill="#FFFFFF" d="M65.755,76.052c2.491,0,4.054,2.032,4.056,3.899l-0.002,9.187c0,0,0.117,1.673-1.712,1.695
					c-1.66,0.021-1.66-1.695-1.66-1.695l0.012-8.453c0-0.638-0.072-1.491-0.712-1.491c-0.639,0-0.693,0.854-0.693,1.491
					l-0.006,8.453c0,0,0.063,1.707-1.647,1.707c-1.726,0-1.71-1.755-1.71-1.755v-9.185C61.663,78.103,63.266,76.052,65.755,76.052
					L65.755,76.052z"/>
				<g>
					<path fill="#FFFFFF" d="M84.617,82.503v4.832c0,0.535,0.17,1.02,0.701,1.02c0.532,0,0.703-0.483,0.703-1.02l-0.04-0.873
						c0.039-0.636,0.467-1.483,1.597-1.483c1.595,0,1.789,1.061,1.789,2.015s0,0,0,0.53c0,1.795-1.49,3.467-4.068,3.478
						c-2.513,0.01-4.045-1.247-4.045-4.047v-4.45L84.617,82.503L84.617,82.503z"/>
					<path fill="#FFFFFF" d="M81.235,82.61l0.02-2.451c0-2.8,1.532-4.057,4.045-4.046c2.578,0.01,4.068,1.683,4.068,3.478
						c0,0.529,0-0.425,0,0.529c0,0.955-0.194,2.016-1.789,2.016c-1.13,0-1.558-0.849-1.597-1.483l0.04-0.874
						c0-0.534-0.171-1.019-0.703-1.019c-0.531,0-0.701,0.483-0.701,1.019v2.833L81.235,82.61L81.235,82.61z"/>
				</g>
				<path fill="#FFFFFF" d="M27.189,90.988c-2.179,0-3.891-1.485-3.891-3.396l0.003-1.732c0-3.817,4.769-3.359,4.769-6.059
					c0-0.585-0.15-1.111-0.702-1.067c-0.879,0.07-0.703,0.766-0.703,1.352c0,0,0.021,1.252-1.439,1.269
					c-1.849,0.02-1.927-1.323-1.927-1.323c0-2.928,2.046-3.942,4.069-3.942c2.022,0,4.065,1.043,4.065,3.971
					c0,0,0,5.815-0.042,7.535S30.224,90.988,27.189,90.988L27.189,90.988z M26.664,87.364c0,0.509,0.298,0.764,0.616,0.764
					c0.703,0,0.895-0.77,0.905-2.135l-0.037-2.099c-0.776,0.554-1.521,0.885-1.521,2.029L26.664,87.364L26.664,87.364z"/>
				<path fill="#FFFFFF" d="M75.404,90.917c-2.179,0-3.891-1.483-3.891-3.394l0.003-1.734c0-3.816,4.769-3.358,4.769-6.057
					c0-0.586-0.15-1.113-0.702-1.069c-0.878,0.071-0.702,0.768-0.702,1.354c0,0,0.021,1.251-1.439,1.268
					c-1.849,0.021-1.927-1.324-1.927-1.324c0-2.927,2.046-3.941,4.068-3.941s4.065,1.044,4.065,3.97c0,0,0,5.817-0.042,7.537
					C79.565,89.244,78.439,90.917,75.404,90.917L75.404,90.917z M74.88,87.293c0,0.509,0.298,0.765,0.617,0.765
					c0.703,0,0.894-0.771,0.903-2.137l-0.037-2.098c-0.776,0.554-1.521,0.885-1.521,2.029L74.88,87.293L74.88,87.293z"/>
				<g>
					<path fill="#FFFFFF" d="M92.269,90.926c-1.556,0.037-1.634-1.412-1.634-1.412V77.784c0,0-0.078-1.714,1.673-1.696
						s1.69,1.696,1.69,1.696v11.729C93.998,89.513,93.825,90.89,92.269,90.926L92.269,90.926z"/>
					<path fill="#FFFFFF" d="M92.347,71.542c-1.026,0-1.858,0.756-1.858,1.688c0,0.932,0.832,1.688,1.858,1.688
						c1.027,0,1.859-0.756,1.859-1.688C94.206,72.298,93.374,71.542,92.347,71.542L92.347,71.542z"/>
				</g>
			</g>
			<path fill="#FFFFFF" d="M92.558,95.111c0-1.56,1.27-2.708,2.769-2.708c1.483,0,2.753,1.148,2.753,2.708
				c0,1.573-1.27,2.724-2.753,2.724C93.826,97.834,92.558,96.684,92.558,95.111L92.558,95.111z M95.325,97.381
				c1.231,0,2.204-0.963,2.204-2.271c0-1.286-0.973-2.256-2.204-2.256c-1.247,0-2.221,0.97-2.221,2.256
				C93.105,96.418,94.078,97.381,95.325,97.381L95.325,97.381z M94.748,96.684h-0.477v-3.133h1.196c0.742,0,1.11,0.272,1.11,0.892
				c0,0.561-0.354,0.805-0.814,0.862l0.895,1.379h-0.533l-0.829-1.357h-0.548V96.684L94.748,96.684z M95.317,94.924
				c0.404,0,0.765-0.027,0.765-0.51c0-0.388-0.354-0.46-0.686-0.46h-0.647v0.97H95.317L95.317,94.924z"/>
		</g>
		<rect x="0" y="0" fill="none" width="118.307" height="118.307"/>
	</g>
</g>
</svg>
