<?xml version="1.0" encoding="utf-8"?>
<!-- Generator: Adobe Illustrator 16.0.0, SVG Export Plug-In . SVG Version: 6.00 Build 0)  -->
<!DOCTYPE svg PUBLIC "-//W3C//DTD SVG 1.1//EN" "http://www.w3.org/Graphics/SVG/1.1/DTD/svg11.dtd">
<svg version="1.1" id="Layer_1" xmlns="http://www.w3.org/2000/svg" xmlns:xlink="http://www.w3.org/1999/xlink" x="0px" y="0px"
	 width="175.749px" height="62.667px" viewBox="8.503 65.043 175.749 62.667" enable-background="new 8.503 65.043 175.749 62.667"
	 xml:space="preserve">
<g>
	<path fill="#706A00" d="M82.132,114.803c-1.325-1.489-2.273-3.932-3.003-7.771l-0.305,0.104
		C79.614,111.046,80.656,113.429,82.132,114.803L82.132,114.803z"/>
	<path fill="#706A00" d="M95.415,81.362c0.025,0.166,0.051,0.333,0.077,0.505l1.769-0.467c-0.414-3.023-0.846-6.673-1.094-9.256
		c-0.127-0.062-0.256-0.118-0.384-0.176c0.25,2.566,0.668,6.081,1.07,9.014L95.415,81.362L95.415,81.362z"/>
	<path fill="#706A00" d="M88.093,72.589c-2.142,0-3.934,0.932-5.151,2.403c-1.047,1.312-1.583,2.98-1.583,4.958
		c0,1.785,0.416,3.507,1.414,5.138c0.498,0.771,1.11,1.492,1.914,2.295c-0.608-0.642-1.095-1.242-1.505-1.877
		c-0.997-1.631-1.413-3.353-1.413-5.138c0-1.978,0.536-3.647,1.583-4.958c1.218-1.472,3.009-2.403,5.151-2.403
		c2.01,0,3.377,0.35,4.36,1.222C91.858,73.048,90.397,72.589,88.093,72.589L88.093,72.589z"/>
	<path fill="#706A00" d="M86.868,95.099c-1.805-1.68-3.626-3.115-5.117-4.6c1.559,1.638,3.552,3.18,5.525,5.019
		c1.554,1.254,2.941,2.383,4.117,3.56C90.138,97.746,88.604,96.502,86.868,95.099L86.868,95.099z"/>
	<path fill="#706A00" d="M94.517,96.082c0.66,0.698,1.249,1.435,1.782,2.291c1.159,2.094,2,4.535,2,7.842
		c0,3.345-0.878,6.379-2.591,8.624c-1.889,2.402-4.843,4.094-8.906,4.094c-2.588,0-5.462-0.668-8.013-1.762
		c0.007,0.085,0.016,0.168,0.023,0.255c2.643,1.194,5.68,1.925,8.398,1.925c4.063,0,7.017-1.69,8.907-4.095
		c1.712-2.243,2.59-5.278,2.59-8.623c0-3.307-0.842-5.748-2-7.842C96.067,97.761,95.346,96.905,94.517,96.082L94.517,96.082z"/>
	<path fill="#706A00" d="M140.907,74.882c0.357,0.376,0.709,0.77,1.046,1.196c3.26,4.19,5.021,10.483,5.021,18.446
		c0,7.95-1.67,13.868-4.496,17.866c-3.101,4.33-7.617,6.543-13.24,6.543h-0.051c-4.515,0-8.33-1.447-11.265-4.285
		c2.986,3.111,6.944,4.703,11.675,4.703h0.051c5.621,0,10.14-2.213,13.238-6.543c2.826-3.998,4.495-9.916,4.495-17.866
		c0-7.962-1.76-14.256-5.021-18.446C141.897,75.908,141.411,75.375,140.907,74.882L140.907,74.882z"/>
	<path fill="#706A00" d="M119.666,111.581c-2.485-3.814-3.858-9.548-3.858-16.632c0-7.974,1.459-13.281,3.848-16.762
		c2.529-3.6,6.058-5.279,9.945-5.279h0.051c3.119,0,5.992,1.071,8.312,3.326c-2.386-2.541-5.413-3.744-8.719-3.744h-0.052
		c-3.889,0-7.416,1.68-9.946,5.279c-2.39,3.481-3.847,8.788-3.847,16.763c0,7.085,1.373,12.816,3.858,16.631
		c0.474,0.674,1.007,1.292,1.585,1.854C120.422,112.567,120.024,112.092,119.666,111.581L119.666,111.581z"/>
	<path fill="#706A00" d="M159.04,72.97v0.416c1.493,0,2.417,0.065,2.994,0.458C161.565,73.13,160.683,72.987,159.04,72.97
		L159.04,72.97z"/>
	<polygon fill="#706A00" points="183.771,108.119 182.054,118.006 159.04,118.006 159.04,118.423 182.463,118.423 184.252,108.119 	
		"/>
	<path fill="#706A00" d="M166.294,77.924v34.536c0,1.889,0.15,2.63,0.705,2.907c-0.225-0.437-0.297-1.189-0.297-2.489V78.342
		c0-4.631,0.232-4.957,3.982-4.957V71.45h-0.408v1.517C166.526,72.967,166.294,73.293,166.294,77.924L166.294,77.924z"/>
	<path fill="#867A08" d="M95.709,114.839c1.713-2.245,2.591-5.279,2.591-8.624c0-3.307-0.842-5.748-2-7.842
		c-0.533-0.856-1.122-1.593-1.782-2.291c-1.542-1.629-3.48-3.045-6.053-5.288c-1.617-1.402-2.831-2.464-3.778-3.412
		c-0.804-0.804-1.416-1.524-1.914-2.295c-0.998-1.63-1.414-3.353-1.414-5.138c0-1.978,0.536-3.646,1.583-4.958
		c1.218-1.471,3.009-2.403,5.151-2.403c2.304,0,3.765,0.459,4.769,1.64c1.142,1.343,1.692,3.62,2.222,7.22l0.332-0.087l1.438-0.38
		c-0.402-2.933-0.82-6.448-1.07-9.014c-0.008-0.079-0.017-0.166-0.024-0.243c-2.202-1.083-4.526-1.621-7.444-1.621
		c-3.525,0-6.025,1.225-7.702,3.083c-1.897,2.135-2.757,4.964-2.757,7.719c0,2.442,0.576,4.588,1.412,6.374
		c0.596,1.161,1.463,2.202,2.484,3.219c1.491,1.485,3.312,2.92,5.117,4.6c1.736,1.403,3.27,2.647,4.525,3.978
		c0.686,0.729,1.292,1.481,1.796,2.302c0.948,1.766,1.43,3.404,1.43,5.855c0,2.912-0.871,5.22-2.216,6.785
		c-1.356,1.573-3.228,2.424-5.237,2.424c-2.098,0-3.734-0.432-5.034-1.642c-1.476-1.374-2.518-3.757-3.308-7.666
		c-0.035-0.172-0.07-0.345-0.104-0.522l-1.77,0.605c0.56,2.748,1.102,5.702,1.454,9.788c0.126,0.058,0.257,0.108,0.385,0.163
		c2.551,1.094,5.425,1.762,8.013,1.762C90.866,118.933,93.82,117.241,95.709,114.839L95.709,114.839z"/>
	<path fill="#867A08" d="M129.237,118.933c5.623,0,10.14-2.211,13.238-6.541c2.826-3.998,4.496-9.918,4.496-17.867
		c0-7.962-1.76-14.256-5.02-18.446c-0.337-0.427-0.688-0.82-1.047-1.196c-3.276-3.439-7.422-4.777-11.663-4.777
		c-4.731,0-9.321,1.638-12.735,5.974c-3.261,4.19-5.021,10.483-5.021,18.446c0,7.95,1.67,13.868,4.496,17.866
		c0.596,0.832,1.244,1.582,1.938,2.258c2.935,2.838,6.75,4.285,11.265,4.285h0.053V118.933L129.237,118.933z M119.258,111.162
		c-2.485-3.813-3.858-9.546-3.858-16.631c0-7.975,1.457-13.282,3.847-16.763c2.53-3.599,6.058-5.279,9.946-5.279h0.052
		c3.306,0,6.333,1.203,8.719,3.744c0.438,0.467,0.858,0.975,1.253,1.535c2.389,3.481,3.846,8.788,3.846,16.763
		c0,7.085-1.373,12.817-3.857,16.631c-2.344,3.332-6.092,5.386-9.959,5.386c-3.105,0-6.118-1.311-8.4-3.531
		C120.265,112.454,119.729,111.836,119.258,111.162L119.258,111.162z"/>
	<path fill="#867A08" d="M183.771,108.119l0.072-0.418h-1.822c-1.424,7.346-1.938,7.819-4.846,7.819h-9.208
		c-0.411,0-0.727-0.035-0.968-0.153c-0.555-0.277-0.705-1.021-0.705-2.907V77.924c0-4.631,0.232-4.958,3.982-4.958V71.45v-0.418
		h-11.646v1.935c0.146,0,0.275,0.002,0.409,0.003c1.643,0.018,2.525,0.161,2.994,0.874c0.449,0.685,0.523,1.896,0.523,4.047v33.151
		c0,4.684-0.305,5.027-3.928,5.027v1.937h0.409h23.015L183.771,108.119L183.771,108.119z"/>
	<path fill="#867A08" d="M72.256,97.181c-0.262-0.772,0.333-1.593,0.665-2.388c0.167-0.478,0-0.955,0-1.432
		c0-0.159,0.333-0.478,0.333-0.637c0.167-3.341,0.333-6.524-0.333-9.865c-0.047-0.246-0.114-0.476-0.194-0.697
		c0.631,3.326,0.47,6.503,0.304,9.835c0,0.162-0.338,0.485-0.338,0.648c0,0.485,0.169,0.971,0,1.457
		c-0.339,0.809-0.944,1.643-0.676,2.428c2.369,6.961,1.691,10.199-0.339,16.35c-0.508,2.43-2.708,4.857-4.062,5.344
		c-2.369,0.971-4.399,0.81-6.769,1.618c-1.692,0.647-2.876,2.104-4.569,2.914c-0.508,0.323-0.676,0.81-1.015,1.295
		c-1.185,1.134-3.385,1.78-4.908,1.942c-5.923,0.972-11.169-1.135-16.923,0c-0.338,0.972-1.523,0.972-2.369,1.295
		c-1.593,0.234-3.098,0.38-4.643,0.261c1.884,0.3,3.669,0.144,5.584-0.138c0.832-0.318,1.995-0.318,2.329-1.273
		c5.655-1.113,10.811,0.955,16.632,0c1.497-0.158,3.659-0.796,4.823-1.908c0.333-0.478,0.499-0.955,0.999-1.272
		c1.663-0.796,2.827-2.228,4.491-2.864c2.328-0.796,4.324-0.636,6.653-1.591c1.33-0.478,3.492-2.864,3.992-5.251
		C73.919,107.203,74.584,104.021,72.256,97.181L72.256,97.181z"/>
	<path fill="#F5CD23" d="M31.247,118.233c3.09,1.336,6.516,2.086,10.123,2.086c3.694,0,7.199-0.785,10.348-2.184
		C45.259,119,35.993,118.558,31.247,118.233L31.247,118.233z"/>
	<path fill="#F5CD23" d="M31.063,127.288c0.846-0.323,2.031-0.323,2.369-1.295c5.754-1.135,11,0.972,16.923,0
		c1.523-0.162,3.723-0.811,4.908-1.942c0.339-0.485,0.507-0.972,1.015-1.295c1.692-0.81,2.877-2.267,4.569-2.914
		c2.37-0.81,4.4-0.647,6.769-1.618c1.354-0.486,3.554-2.914,4.062-5.344c2.03-6.15,2.708-9.389,0.339-16.35
		c-0.268-0.785,0.337-1.619,0.676-2.428c0.169-0.486,0-0.972,0-1.457c0-0.163,0.338-0.486,0.338-0.648
		c0.166-3.332,0.327-6.509-0.304-9.835c-0.013-0.067-0.021-0.134-0.034-0.202c-0.676-3.562-4.908-4.533-8.123-6.314
		c-2.2-1.133-4.4-2.428-5.415-4.532c-0.846-2.105-3.216-3.076-5.247-3.562c-4.061-0.81-7.954-0.162-12.015-0.324
		c-0.507-0.163-1.015-0.486-1.522-0.486c-2.539-0.323-5.077-1.133-7.615-1.457c-2.301-0.314-4.443-0.321-6.734-0.025
		c0.283,0.316,1.492,1.663,2.309,2.4c0.672,0.606,2.597,2.324,3.1,3.766c0.142,0.406,0.539,1.085,1.034,1.885
		c2.78-0.972,5.779-1.503,8.906-1.503c14.378,0,26.075,11.22,26.075,25.012c0,13.792-11.697,25.012-26.075,25.012
		c-14.379,0-26.078-11.22-26.078-25.012c0-8.858,4.831-16.65,12.094-21.096c-1.3-4.854-1.587-9.63-1.627-10.437
		c-0.996,0.018-1.992,0.489-2.988,0.807c-2.369,0.647-3.046,3.076-4.231,5.18c-0.507,0.809-1.185,1.619-2.369,1.294l-0.508,0.163
		c-0.677,0.162-3.046,1.781-3.384,2.266c-1.184,2.59,1.523,6.638,0.507,9.228c-0.169,0.486-1.861,3.399-2.031,3.885
		c-0.846,5.666,1.693,6.151,1.016,11.818c0,0.972-0.508,1.942-1.016,2.914c-0.338,0.485-1.185,0.647-1.354,1.296
		c-1.016,3.074-1.861,7.122,1.523,9.228c2.03,1.133,3.891,2.104,5.753,3.562c0.508,0.323,1.014,0.485,1.523,0.811
		c0.507,0.646,1.184,1.133,1.692,1.779c1.523,1.781,1.861,3.887,2.538,5.99c0.339,0.811,1.185,1.457,2.2,1.78
		c0.606,0.134,1.2,0.215,1.788,0.261C27.965,127.668,29.47,127.522,31.063,127.288L31.063,127.288z"/>
	<path fill="#F5CD23" d="M46.916,87.768c0.653,0.112,1.122-0.637,1.759-0.176c1.29,0.18,2.814-2.052,2.798-3.846
		c-0.268-0.417,0.335-1.342-1.391-1.01c-1.458,0.272-1.374,1.911-0.704,2.676C48.825,86.454,48.004,87.239,46.916,87.768
		L46.916,87.768z"/>
	<path fill="#615800" d="M53.818,106.522c-0.116,0.385-0.31,1.297-0.636,1.884c0.269-0.042,0.523-0.113,0.752-0.233
		c0,0,0.519-0.138,0.951-0.123c0.361-0.762,0.582-1.887,0.523-2.328c-0.083-0.641,0.335-2.082,0-2.725
		c-0.335-0.641,0.167-1.627-0.251-1.977l-1.172-0.428c0,0,0.418,2.645,0.167,3.285C53.902,104.521,53.985,105.962,53.818,106.522
		L53.818,106.522z"/>
	<path fill="#F5CD23" d="M43.424,80.289c-0.05,0.322,0.128,0.355,0.282,0.823c0,1.462-0.25,1.6-0.574,2.442
		c-0.261,1.07,0.022,0.303-0.261,1.07l-0.513,0.965c0.905-0.818,2.111-1.651,3.502-1.683l0.146-0.421c0,0,1.256-2.885,4.104-2.404
		c2.849,0.481,3.184,0,4.106,0.481c0.841,0.439,7.542,1.949,10.425,7.572c-2.864-7.868-9.994-13.845-18.738-15.404
		c-0.753,1.75-2.702,5.925-2.606,6.169l0.183,0.16C43.456,80.135,43.442,80.212,43.424,80.289L43.424,80.289z"/>
	<path fill="#615800" d="M41.37,71.81c-3.127,0-6.126,0.531-8.906,1.503c-0.495-0.8-0.893-1.479-1.034-1.885
		c-0.502-1.442-2.428-3.16-3.1-3.766c-0.817-0.737-2.026-2.084-2.309-2.4c-0.039-0.044-0.061-0.069-0.061-0.069l-0.208-0.033
		c0,0,0.003,0.052,0.007,0.13c0.04,0.806,0.327,5.583,1.627,10.437c-7.263,4.445-12.094,12.237-12.094,21.096
		c0,13.792,11.698,25.012,26.078,25.012c14.378,0,26.075-11.22,26.075-25.012S55.748,71.81,41.37,71.81L41.37,71.81L41.37,71.81z
		 M45.903,73.729c8.744,1.559,15.874,7.536,18.738,15.404c-2.883-5.623-9.584-7.132-10.425-7.572c-0.922-0.481-1.257,0-4.106-0.481
		c-2.848-0.481-4.104,2.404-4.104,2.404l-0.146,0.421c-1.391,0.032-2.597,0.865-3.502,1.683l0.513-0.965c0.284-0.767,0,0,0.261-1.07
		c0.324-0.842,0.574-0.979,0.574-2.442c-0.153-0.467-0.332-0.501-0.282-0.823c0.009-0.064,0.025-0.136,0.056-0.23l-0.183-0.16
		C43.202,79.654,45.15,75.479,45.903,73.729L45.903,73.729L45.903,73.729z M50.082,82.735c1.726-0.332,1.123,0.594,1.391,1.01
		c0.016,1.794-1.508,4.026-2.798,3.846c-0.637-0.461-1.106,0.288-1.759,0.176c1.088-0.529,1.91-1.314,2.462-2.356
		C48.708,84.646,48.624,83.008,50.082,82.735L50.082,82.735L50.082,82.735z M41.37,73.323c0.446,0,0.889,0.013,1.329,0.035
		c-1.133,2.549-4.49,10.505-4.211,14.707c0.093,1.381-2.052-2.043-2.052-2.043c0.754-2.645-0.648-4.644-0.732-6.487
		c-0.048-1.057-1.279-3.09-2.417-4.906C35.821,73.787,38.539,73.323,41.37,73.323L41.37,73.323L41.37,73.323z M41.37,120.319
		c-3.607,0-7.033-0.75-10.123-2.086c4.746,0.324,14.012,0.767,20.471-0.098C48.569,119.534,45.064,120.319,41.37,120.319
		L41.37,120.319L41.37,120.319z M53.825,117.081c0.258-0.48,0.405-1.066-0.074-1.458c0,0-23.778-0.382-27.189-0.038
		c-0.308-0.223-0.611-0.449-0.908-0.684c5.806,0.072,28.583-0.125,28.583-0.125c1.005-0.24,0.569-2.184,0.569-2.184
		c-0.274-0.135-0.705-0.199-1.212-0.223c-0.508,0.025-1.146,0.045-1.887,0.057c-0.947,0.076-1.882,0.197-2.496,0.266
		c-1.424,0.16-13.486,0.16-13.486,0.16l-11.075-0.42c-0.677,0.221-0.827,0.514-0.77,0.916c-4.413-4.248-7.144-10.089-7.144-16.528
		c0-8.184,4.412-15.401,11.083-19.609c1.185,3.771,3.033,7.339,5.92,8.836l0.353,0.239c-1.193-1.952-3.326-5.857-4.282-10.208
		c-0.111-0.505-0.205-1.016-0.281-1.532c-0.024-0.165-0.049-0.33-0.069-0.495c0,0,0.046,0.167,0.135,0.463
		c0.1,0.332,0.254,0.83,0.456,1.446c0.905,2.754,2.784,7.864,5.186,11.103l1.241,0.842c0.67,0.401,0.754,1.521,1.676,1.521
		c0,0-1.006,2.575-0.42,3.317c0,0,2.312-0.433,3.317-0.326c0.52-0.369-0.117-0.619,0.353-0.957c0-0.384,0.302-1.61,0.234-2.14
		c0.101-1.346,0.637-2.964,2.295-3.911c0.401-0.289,1.022-0.545,1.407-0.336l-0.088,0.092c0,0-1.927,0,0.419,6.41
		c2.346,6.411,11.141,9.536,11.56,9.536c0.418,0,1.507-0.16,1.842,0.239c0,0,1.571,0.281,3.435-0.479
		c1.419-0.58,2.929-1.501,3.481-3.585C65.816,105.717,60.971,113.067,53.825,117.081L53.825,117.081z"/>
	<path fill="#615800" d="M23.761,111.76c0,0,28.85,0.511,31.044,0.161c0.119-0.173,0.225-0.352,0.318-0.531
		c0.185-0.578,0.321-1.187,0.424-1.817c-0.079-0.032-0.14-0.104-0.206-0.169c-0.351-0.176-1.407,0-1.407,0
		c-0.938,0.306-9.986,0.162-10.169,0.179c-1.943,0.24-4.323-0.515-6.149,0c-0.687-0.401-6.744,0-10.521,0
		c-1.189,0.11-1.34-0.222-2.346-0.173c-0.847,0.074-1.13,0.479-1.183,0.964c0.02,0.343,0.062,0.688,0.108,1.017
		C23.705,111.519,23.736,111.646,23.761,111.76L23.761,111.76z"/>
	<path fill="#615800" d="M53.935,108.173c-0.229,0.12-0.484,0.191-0.752,0.233c-0.149,0.27-0.327,0.471-0.537,0.521
		c0,0,1.005,0.161,1.675-0.16c0.208-0.1,0.401-0.371,0.565-0.717C54.454,108.035,53.935,108.173,53.935,108.173L53.935,108.173z"/>
	<path fill="#615800" d="M51.707,112.428c0.742-0.012,1.379-0.03,1.887-0.057C53.027,112.347,52.366,112.376,51.707,112.428
		L51.707,112.428z"/>
	<path fill="#615800" d="M25.755,108.571c0.921,0.863,3.518,0.479,4.808,0.336c0.369,0.061-0.544-2.036-0.704-2.385
		c-1.207-2.633,0.188-7.787,1.09-8.705c1.339-1.361,2.322-3.008,4.272-3.476c1.675-0.4,1.491-0.709,1.491-0.709
		c-0.352-0.309-3.937-0.413-5.194,0.068c-3.937,1.507-7.027,5.794-7.027,10.257C24.491,107.022,25.755,108.571,25.755,108.571
		L25.755,108.571z"/>
	<path fill="#615800" d="M42.94,102.342c-1.644,3.386,3.057,5.421,4.16,2.206C48.258,101.664,44.429,99.276,42.94,102.342
		L42.94,102.342z"/>
	<path fill="#F5CD23" d="M62.509,100.874c-1.864,0.762-3.435,0.48-3.435,0.48c-0.335-0.4-1.424-0.24-1.842-0.24
		c-0.419,0-9.214-3.125-11.56-9.536c-2.346-6.41-0.419-6.41-0.419-6.41l0.088-0.092c-0.385-0.209-1.006,0.047-1.407,0.336
		c-1.659,0.946-2.194,2.564-2.295,3.911c0.067,0.529-0.234,1.755-0.234,2.14c-0.47,0.337,0.167,0.588-0.353,0.957
		c-1.005-0.107-3.317,0.326-3.317,0.326c-0.586-0.742,0.42-3.317,0.42-3.317c-0.922,0-1.005-1.121-1.676-1.522l-1.241-0.842
		c-2.402-3.238-4.281-8.349-5.186-11.103c-0.202-0.616-0.356-1.114-0.456-1.446c-0.089-0.296-0.135-0.463-0.135-0.463
		c0.02,0.166,0.044,0.331,0.069,0.495c0.076,0.516,0.17,1.027,0.281,1.532c0.957,4.35,3.089,8.255,4.282,10.208l-0.353-0.239
		c-2.887-1.497-4.735-5.065-5.92-8.836c-6.671,4.208-11.083,11.425-11.083,19.609c0,6.438,2.731,12.278,7.144,16.526
		c-0.057-0.401,0.093-0.693,0.77-0.916l11.075,0.422c0,0,12.062,0,13.486-0.16c0.614-0.068,1.549-0.189,2.496-0.267
		c0.659-0.052,1.321-0.081,1.887-0.057c0.507,0.022,0.938,0.088,1.212,0.223c0,0,0.436,1.942-0.569,2.185
		c0,0-22.777,0.197-28.583,0.123c0.297,0.234,0.6,0.463,0.908,0.685c3.412-0.344,27.189,0.038,27.189,0.038
		c0.479,0.391,0.333,0.979,0.074,1.458c7.146-4.013,11.991-11.364,12.165-19.792C65.438,99.373,63.928,100.294,62.509,100.874
		L62.509,100.874L62.509,100.874z M53.183,108.406c0.326-0.587,0.52-1.499,0.636-1.884c0.167-0.562,0.083-2.004,0.334-2.645
		s-0.167-3.285-0.167-3.285l1.172,0.428c0.418,0.35-0.083,1.336,0.251,1.977c0.335,0.643-0.083,2.084,0,2.725
		c0.058,0.441-0.163,1.566-0.523,2.328c-0.164,0.346-0.357,0.617-0.565,0.717c-0.67,0.321-1.675,0.16-1.675,0.16
		C52.856,108.877,53.033,108.676,53.183,108.406L53.183,108.406L53.183,108.406z M47.1,104.548c-1.103,3.214-5.803,1.18-4.16-2.206
		C44.429,99.276,48.258,101.664,47.1,104.548L47.1,104.548L47.1,104.548z M46.563,93.811c0,0-6.198,0.725-8.235,3.215
		s-3.672,6.668-2.604,8.856c0.586,1.201,1.766,3.024,1.766,3.024c-1.357,0.081-4.526,0.953-5.134-0.514
		c-0.545-1.313-1.391-2.662-1.391-4.184c0-1.244-0.038-2.429,0.335-3.027C32.265,95.304,41.44,90.525,46.563,93.811L46.563,93.811
		L46.563,93.811z M31.519,93.702c1.257-0.48,4.842-0.376,5.194-0.068c0,0,0.184,0.309-1.491,0.709
		c-1.95,0.467-2.933,2.113-4.272,3.477c-0.902,0.918-2.297,6.07-1.09,8.705c0.16,0.348,1.073,2.443,0.704,2.384
		c-1.29,0.145-3.887,0.528-4.808-0.336c0,0-1.264-1.55-1.264-4.612C24.491,99.496,27.582,95.209,31.519,93.702L31.519,93.702
		L31.519,93.702z M55.124,111.39c-0.094,0.182-0.199,0.358-0.318,0.531c-2.195,0.35-31.044-0.161-31.044-0.161
		c-0.025-0.114-0.056-0.241-0.086-0.372c-0.075-0.326-0.143-0.688-0.108-1.016c0.053-0.486,0.336-0.891,1.183-0.964
		c1.005-0.05,1.156,0.284,2.346,0.173c3.777,0,9.834-0.4,10.521,0c1.826-0.514,4.206,0.24,6.149,0
		c0.184-0.018,9.231,0.127,10.169-0.178c0,0,1.056-0.176,1.407,0c0.066,0.062,0.127,0.136,0.206,0.168
		c0.042,0.017,0.088,0.025,0.146,0.01C55.592,110.222,55.414,110.826,55.124,111.39L55.124,111.39z"/>
	<path fill="#F5CD23" d="M36.436,86.022c0,0,2.145,3.425,2.052,2.043c-0.279-4.202,3.078-12.158,4.211-14.707
		c-0.44-0.022-0.883-0.035-1.329-0.035c-2.832,0-5.549,0.463-8.083,1.306c1.137,1.816,2.368,3.849,2.417,4.906
		C35.787,81.378,37.189,83.377,36.436,86.022L36.436,86.022z"/>
	<path fill="#615800" d="M31.301,101.183c-0.373,0.601-0.335,1.784-0.335,3.028c0,1.521,0.846,2.869,1.391,4.185
		c0.608,1.465,3.777,0.594,5.134,0.513c0,0-1.18-1.823-1.766-3.024c-1.067-2.189,0.568-6.365,2.604-8.855
		c2.037-2.491,8.235-3.216,8.235-3.216C41.44,90.525,32.265,95.304,31.301,101.183L31.301,101.183z"/>
</g>
</svg>
