<?xml version="1.0" encoding="utf-8"?>
<!-- Generator: Adobe Illustrator 16.0.0, SVG Export Plug-In . SVG Version: 6.00 Build 0)  -->
<!DOCTYPE svg PUBLIC "-//W3C//DTD SVG 1.1//EN" "http://www.w3.org/Graphics/SVG/1.1/DTD/svg11.dtd">
<svg version="1.1" id="Layer_1" xmlns="http://www.w3.org/2000/svg" xmlns:xlink="http://www.w3.org/1999/xlink" x="0px" y="0px"
	 width="127.474px" height="129.471px" viewBox="242.331 331.361 127.474 129.471"
	 enable-background="new 242.331 331.361 127.474 129.471" xml:space="preserve">
<g>
	<path fill="#007654" d="M243.951,395.602c0-34.45,27.927-62.38,62.381-62.38c34.451,0,62.379,27.93,62.379,62.38
		c0,34.453-27.928,62.38-62.379,62.38C271.878,457.982,243.951,430.055,243.951,395.602"/>
	<path fill="#FFFFFF" d="M245.791,395.602c0-33.434,27.104-60.539,60.541-60.539c33.435,0,60.541,27.105,60.541,60.539
		c0,33.435-27.106,60.541-60.541,60.541C272.895,456.143,245.791,429.037,245.791,395.602"/>
	<path fill="#007654" d="M247.762,395.602c0-32.345,26.222-58.566,58.57-58.566c32.346,0,58.568,26.221,58.568,58.566
		c0,32.347-26.224,58.568-58.568,58.568C273.984,454.17,247.762,427.949,247.762,395.602"/>
	<path fill="#FFFFFF" d="M270.128,395.355c0-19.921,16.148-36.069,36.067-36.069c19.919,0,36.065,16.148,36.065,36.069
		c0,19.918-16.146,36.065-36.065,36.065C286.276,431.42,270.128,415.273,270.128,395.355"/>
	<path fill="#FFFFFF" d="M311.898,342.193c0.987,0.886,1.268,2.052,1.217,3.345c-0.279,0.914-0.785,1.8-1.599,2.435
		c0.99,0.734,1.979,1.496,2.131,2.813c0.279,1.293-0.103,2.458-0.838,3.422c-1.545,1.748-4.004,1.293-6.235,1.367l-5.893,0.155
		l-0.04-0.536l-0.606-13.382l-0.025-0.292C303.889,341.496,308.45,340.493,311.898,342.193"/>
	<path fill="#FFFFFF" d="M322.877,344.081c-1.041,3.004-2.408,5.971-3.146,9.139c-0.074,0.788,0.394,1.598,1.294,1.826
		c0.623,0.343,1.509,0.407,1.977,0c2.004-2.813,2.955-6.312,4.211-9.469c1.596,0.559,2.84,1.357,4.387,1.94
		c-1.649,3.499-2.664,7.619-4.945,10.495c-1.647,1.445-4.258,1.089-6.234,0.607c-2.257-0.81-4.716-2.254-5.4-4.79
		c-0.53-1.736,1.878-7.694,3.194-11.254L322.877,344.081"/>
	<path fill="#FFFFFF" d="M286.345,360.751l-3.347,2.203c-1.249-0.658-1.978-1.102-2.89-1.52l-3.705,3.119
		c0.381,0.914,0.867,2.028,1.272,3.042l-3.309,3.699l-0.266-0.583l-5.857-13.916l5.349-4.602l0.431,0.267
		c4.197,2.562,8.51,5.583,12.761,8.002L286.345,360.751"/>
	<path fill="#FFFFFF" d="M287.181,360.242c-1.757-4.285-3.909-9.29-5.501-13.309c4.032-1.623,9.863-5.615,13.461-1.9
		c0.912,1.014,1.039,2.433,1.064,3.726c-0.226,0.835-0.432,1.674-0.988,2.358c1.203,1.481,3.437,3.162,4.982,4.632l-0.19,0.064
		l-4.563,1.007c-1.623-1.305-2.542-2.226-3.954-3.194c-0.609,0.074-1.028,0.431-1.6,0.684l1.572,3.601L287.181,360.242"/>
	<path fill="#007654" d="M307.944,344.55c0.354,0.378,0.279,1.166,0.073,1.597c-0.656,0.762-1.874,0.734-2.888,0.607
		c0.074-0.861-0.244-1.698-0.18-2.584C305.812,344.296,307.311,343.864,307.944,344.55"/>
	<path fill="#007654" d="M291.213,348.047c0.251,0.634,0.266,1.666-0.274,2.042l-2.509,1.064c-0.626-1.151-0.892-1.94-1.323-2.876
		C288.272,347.846,290.274,346.097,291.213,348.047"/>
	<path fill="#007654" d="M308.78,350.329c0.201,0.889-0.202,1.801-1.065,1.979c-0.811,0.125-1.418,0.05-2.281,0.075
		c-0.127-0.914-0.201-2.13-0.127-2.891C306.473,349.645,308.225,349.012,308.78,350.329"/>
	<path fill="#FFFFFF" d="M343.002,355.274c0.863,1.064,1.448,2.382,1.827,3.725c-1.065,0.572-1.876,1.219-2.891,1.674
		c-0.251-1.572-1.114-3.169-2.66-3.954c-0.735-0.432-1.827-0.508-2.662-0.229c-1.294,0.481-2.408,1.597-2.891,2.89
		c-0.431,1.242,0.051,2.458,0.763,3.421c0.986,1.116,2.308,1.701,3.799,1.751c-0.67,1.102-1.036,1.798-1.671,2.662
		c-2.486-0.356-4.817-1.725-6.236-4.032c-1.217-1.951-1.292-4.942-0.227-6.996c1.113-2.257,3.32-3.702,5.701-4.032
		C338.72,352.053,341.305,353.195,343.002,355.274"/>
	<path fill="#007654" d="M277.143,359.532c-0.683,0.635-1.445,1.242-2.28,1.824c-0.609-1.445-1.193-2.738-1.826-4.335
		C274.492,357.796,275.772,358.695,277.143,359.532"/>
	<path fill="#FFFFFF" d="M350.609,364.248c-1.165,1.166-2.711,2.156-3.956,3.271c1.979,0.43,4.208,0.354,6.236,0.684
		c0.913,1.32,1.395,2.587,2.282,4.183l-7.453-0.531c-1.647,2.585-3.143,5.221-4.563,7.908c-0.886-1.293-1.569-2.964-2.434-4.409
		c0.966-1.953,2.219-4.019,3.185-5.972c-1.66,1.028-3.118,2.358-4.809,3.422l-2.633-3.537c3.548-3.042,7.376-5.754,11.104-8.515
		l0.302-0.109L350.609,364.248"/>
	<path fill="#FFFFFF" d="M266.927,363.311c-0.673,1.394-1.56,2.344-2.179,3.675l8.669,5.703c-0.457,1.292-1.445,2.562-2.283,3.802
		l-8.897-5.552c-0.798,1.052-1.37,2.13-2.169,3.474c-1.166-0.772-1.99-1.28-2.927-1.95c2.207-3.679,4.298-7.125,6.731-10.942
		L266.927,363.311"/>
	<path d="M291.317,397.217c0.01,0.592-0.038,1.188-0.182,1.787c-1.343,2.713-3.522,5.094-3.876,8.215
		c-1.546,0.986-2.816,2.711-5.02,2.129c-0.077,0.582,0.101,1.468,0.303,2.127c-1.748-0.073-2.941,1.218-4.412,1.826
		c-0.785-0.252-0.988-1.268-1.291-1.977c1.722-0.582,2.964-2.308,4.942-2.279c0.229-0.637-0.128-1.219-0.229-1.826
		c-2.46-1.092-6.363,5.398-6.691-0.229c2.458-0.152,4.03-2.435,6.465-2.662l0.074-1.826c-2.763-0.279-4.538,2.562-7.3,2.281
		l-0.61-2.433c3.194,0.201,5.097-2.661,8.139-2.815c0.404-0.531,0.455-1.318,0.533-2.053c-3.321-0.433-5.602,3.246-9.126,2.129
		c0,0-0.12-1.531-0.186-2.396L291.317,397.217"/>
	<path d="M295.212,397.217c0.112,1.351-0.218,2.697-1.49,4.07c-1.826,2.152-3.675,4.865-2.357,7.758
		c1.395,3.191,5.78,5.676,3.878,9.656c-1.038,2.51-3.524,4.412-3.422,7.377c-0.658-0.279-1.341-0.559-1.9-1.064
		c0-3.776,5.372-6.135,2.812-10.114c-0.226,0.784-0.277,1.85-0.455,2.737c-0.889,2.308-2.789,4.156-3.5,6.543
		c-1.189-0.459-2.433-1.422-3.422-2.436l1.371-0.838c-0.152-0.508-0.559-0.938-0.914-1.369c-0.889-0.125-1.471,0.457-2.205,0.686
		c-0.634-0.559-1.244-1.065-1.749-1.75c0.455-1.295,4.005-0.227,2.204-2.356c-1.216-0.76-2.432,0.33-3.497,0.838l-1.445-1.826
		c1.242-0.76,2.483-1.826,4.028-1.521c0.381,0.686,0.408,1.696,1.142,2.055c2.611-0.051,4.462-2.029,6.464-3.576
		c-1.396-2.076-2.534-4.942-1.294-7.453c0.993-2.516,3.583-4.633,3.7-7.414h2.051"/>
	<path d="M298.928,397.217c0.13,1.16-0.061,2.351-0.871,3.611c-1.646,2.234-3.801,4.588-2.814,7.529
		c0.938,2.967,4.64,4.766,4.412,8.215c-0.025,4.08-4.767,6.617-3.423,11.18l-2.357-0.762c-0.937-4.056,3.372-6.133,3.422-9.885
		c0.609-4.312-4.895-5.91-4.565-10.115c-0.023-3.195,2.79-5.224,4.032-7.91c0.213-0.654,0.285-1.271,0.256-1.863H298.928"/>
	<path d="M311.96,397.217c-0.138,0.984-0.021,2.006,0.548,3.08c1.647,2.609,4.538,5.375,2.735,8.748
		c-1.899,2.785-5.068,5.5-3.802,9.123c1.395,3.17,4.31,6.186,2.736,10.117l-2.355,0.531c1.875-3.83-0.938-7.63-2.584-10.951
		c-2.004-4.767,4.308-7.051,4.408-11.408c-0.023-2.812-3.016-4.41-3.647-6.996c-1.294-1.092-2.638,0.432-4.185,0.15
		c-1.141,0.229-2.89-1.572-3.573,0.381c-0.812,2.863-4.515,4.969-2.89,8.365c1.547,3.018,5.271,5.223,4.028,9.129
		c-1.114,3.647-4.79,7.123-2.509,11.33c-0.938-0.304-2.688,0.278-2.662-1.218c-1.445-5.096,4.716-8.062,2.813-13.155
		c-0.886-3.119-4.918-4.845-4.03-8.597c0.656-3.088,4.117-5.248,3.631-8.631L311.96,397.217"/>
	<path d="M315.625,397.217c-0.049,0.867,0.126,1.729,0.685,2.547c1.75,2.84,4.792,5.959,3.043,9.66
		c-1.977,2.965-5.425,5.982-3.5,9.887c1.396,2.332,3.552,4.662,2.97,7.529l-2.283,0.76c1.521-5.348-5.933-8.493-2.813-13.842
		c1.928-2.865,5.373-5.553,3.424-9.354c-1.166-2.355-3.575-3.75-3.5-6.693l0.082-0.492L315.625,397.217"/>
	<path d="M319.4,397.217c-0.006,0.719,0.146,1.439,0.559,2.166c1.648,2.969,4.615,5.781,3.5,9.506
		c-0.307,1.144-1.216,2.031-1.445,3.195c1.93,1.598,3.753,3.396,6.312,3.498c0.912-0.582,0.405-3.168,2.281-1.977l2.736,1.37
		c-0.2,0.734-0.811,1.396-1.367,1.9c-1.039-0.506-2.053-1.115-3.348-1.066c-0.382,0.406-0.712,0.863-0.683,1.445
		c0.912,0.15,1.746,0.531,2.508,1.064c-0.354,0.762-1.04,1.241-1.674,1.825l-2.129-0.762c-0.354,0.508-1.093,1.041-0.834,1.599
		c0.479,0.204,1.014,0.481,1.366,0.838c-0.938,1.014-2.128,1.67-3.271,2.358c-0.986-3.221-4.234-5.479-3.955-9.203l-0.15-0.151
		c-0.762,0.858-0.506,2.229-0.456,3.344c0.913,2.332,3.094,4.135,3.424,6.693c-0.382,0.657-1.243,0.784-1.903,1.063
		c0.077-4.613-6.919-8.108-2.432-12.774c1.495-2.285,4.005-4.464,3.115-7.607c-0.912-3.037-4.142-4.922-4.113-8.326L319.4,397.217"
		/>
	<path d="M339.66,397.217c0.024,0.857,0.104,1.594-0.231,2.474c-3.473,0.987-5.754-2.688-9.124-2.134l0.379,1.904
		c3.118,0.102,5.07,3.092,8.29,2.963c-0.457,0.914,0.203,3.322-1.823,2.359c-2.104-0.506-3.626-2.359-5.934-2.359
		c-0.277,0.51-0.102,1.221-0.15,1.826c2.433,0.381,4.182,2.436,6.613,2.816c-0.229,0.836-0.457,1.771-1.141,2.28
		c-1.979-0.481-3.524-2.258-5.63-2.207l-0.377,1.748c2.002,0.052,3.296,1.826,5.095,2.357c0.049,0.738-0.608,1.396-0.988,2.055
		c-1.596-0.479-2.813-1.85-4.639-1.748c-0.026-0.688,0.38-1.471,0.226-2.205c-2.05,0.609-3.422-1.293-4.939-2.436
		c-0.044-3.738-3.979-6.193-4.188-9.695L339.66,397.217"/>
	<path d="M272.851,397.217c-0.024-0.338-0.043-0.572-0.043-0.572c3.144,1.22,5.905-1.038,8.593-2.203
		c0.684-0.205,1.748,0.151,2.055-0.609c-0.027-0.583,1.038-1.268,0.152-1.674c-3.931-0.533-6.541,4.209-10.571,2.054l-0.306-0.609
		c0.838-11.457,7.302-22.535,18.024-27.986c9.583-5.477,24.287-5.019,33.312,1.369c4.793,2.94,9.38,7.783,11.866,12.702
		c2.38,4.309,3.473,9.149,3.8,14.296c-4.158,3.143-6.946-2.964-11.182-1.597c0.229,0.66,0.356,1.344,0.84,1.902
		c3.753-0.026,6.337,3.904,10.267,2.354l0.003,0.572h-18.562c-0.04-0.699,0.066-1.443,0.385-2.243
		c1.293-2.991,0.886-6.872-0.533-9.661c-0.432-0.734-1.191-1.316-1.902-1.748c1.041,2.207,2.307,4.817,1.674,7.529
		c-0.072,2.094-1.306,4.104-1.319,6.123h-1.958l0.008-0.266c0.733-3.55,2.968-7.328,1.142-11.105
		c-0.508-1.52-1.646-3.244-3.192-3.878c2.306,2.638,3.218,6.946,1.898,10.497c-0.665,1.412-1.582,3.091-1.673,4.751h-1.896
		c0.785-4.175,3.963-8.125,1.743-12.587c-0.583-1.318-1.748-2.661-3.041-3.423l-0.078,0.078c2.588,2.51,3.372,6.643,1.979,9.962
		c-0.652,1.947-2.081,3.883-2.371,5.97h-11.337c-0.039-0.283-0.108-0.574-0.207-0.875c-1.293-3.651-3.931-7.3-2.359-11.561
		c0.432-1.217,1.295-2.257,2.053-3.345c-2.51,1.343-3.777,4.183-3.726,7.073c-0.109,3.141,2.214,5.833,2.544,8.708h-1.907
		c-0.152-2.972-2.829-5.291-2.385-8.632c0.15-2.459,0.986-4.615,2.583-6.464c-2.204,0.886-3.116,3.422-3.725,5.551
		c-1.057,3.415,1.466,6.485,1.719,9.545h-2.051c0.026-0.633-0.074-1.3-0.351-2.017c-1.368-3.523-1.851-8.287,0.76-11.406
		c-1.42,0.381-2.256,2.153-2.738,3.497c-1.57,3.44,0.416,6.628,0.484,9.926L272.851,397.217"/>
	<path fill="#FFFFFF" d="M308.019,367.821l4.108,0.229l-0.076,0.381l-3.042,2.89c0.531,1.294,1.064,2.587,1.598,3.877
		c2.307-1.341,4.514-3.015,7.302-3.194c-0.254,1.472-1.369,3.019-1.219,4.487c1.725-0.481,3.299-1.545,5.175-1.445
		c-1.168,2.156-2.867,4.312-2.97,6.998c-2.56-0.961-5.196-2.13-8.06-2.585c-6.11-1.041-11.993,0.303-17.039,2.738
		c-0.43-2.56-1.671-4.792-3.193-6.921c0.912-0.304,2.027,0.201,2.967,0.458c0.786,0.226,1.445,0.758,2.282,0.912
		c0.15-1.521-0.735-3.017-1.368-4.412c0.431-0.33,1.115-0.078,1.597,0.077c2.001,0.759,3.802,1.95,5.628,3.042
		c0.937-1.092,1.29-2.664,1.671-4.109l-3.116-2.813v-0.303l4.106-0.23c0.683-1.292,1.14-2.661,1.825-3.954
		C307.031,365.085,307.311,366.581,308.019,367.821"/>
	<path d="M309.464,376.111l-0.378,0.38c-1.902-0.202-3.904,0.05-5.706,0.078c-0.202-0.203-0.606-0.508-0.229-0.762l2.891-2.207
		C307.234,374.289,308.501,375.175,309.464,376.111"/>
	<path fill="#FFFFFF" d="M258.738,377.176c-1.573,1.219-2.688,2.994-2.357,5.021c0.178,0.304,0.354,0.759,0.76,0.835
		c1.267,0,1.698-1.367,2.28-2.205c0.685-1.521,2.005-3.17,3.804-3.346c1.546-0.1,2.867,0.304,3.88,1.521
		c1.546,1.852,1.267,4.843,0.533,6.999c-0.687,1.597-1.751,3.217-3.271,4.258l-2.739-1.674c1.496-1.037,3.069-2.738,3.271-4.639
		c0-0.684-0.15-1.597-0.99-1.674c-1.748,0.508-1.925,2.611-3.116,3.803c-0.912,0.939-2.054,1.647-3.5,1.444
		c-1.344-0.077-2.486-0.912-3.271-1.977c-1.496-2.28-0.761-5.629,0.152-7.376c0.559-0.99,1.219-1.978,2.131-2.74
		C257.064,375.858,257.953,376.518,258.738,377.176"/>
	<path fill="#FFFFFF" d="M358.062,379.156c1.316,2.128,1.826,4.941,1.141,7.528l-2.814-0.152c0.383-1.699,0.66-3.828-0.531-5.248
		c-0.354-0.431-0.988-0.686-1.445-0.457c-1.546,1.724,0.13,4.21-0.834,6.161c-0.458,0.889-1.143,1.953-2.131,2.356
		c-1.6,0.609-3.576,0.305-4.793-0.912c-2.381-2.485-3.498-6.339-1.976-9.583h2.965c-0.507,1.27-0.858,3.068-0.379,4.564
		c0.252,0.634,0.558,1.445,1.294,1.673c2.434,0.088,0.784-3.397,1.367-5.021c0.229-1.216,0.887-2.483,2.128-3.042
		C354.336,375.909,357,377.176,358.062,379.156"/>
	<path fill="#FFFFFF" d="M283.456,383.946c2.458-0.939,5.804-2.56,8.441-0.836c-0.559,0.785-1.646,1.217-2.435,1.9
		c-1.291,1.267-2.863,2.812-3.8,4.41c-3.169-0.635-5.706,1.219-8.367,2.283c-1.014,0.201-2.358,0.303-3.194-0.381
		c2.51-4.134,6.057-7.936,5.171-13.386c0.279-0.482,0.76-0.075,1.064,0.077C282.29,379.533,283.227,381.638,283.456,383.946"/>
	<path fill="#FFFFFF" d="M333.498,378.545c-0.987,5.171,2.56,8.823,4.943,12.777c-2.736,1.826-5.325-0.99-7.909-1.674
		c-1.142-0.176-2.483-0.33-3.576-0.152c-1.569-2.432-3.674-4.715-6.235-6.083c0.151-0.835,1.317-0.889,2.13-0.99
		c2.257-0.226,4.233,0.711,6.084,1.675c0.355-0.835,0.508-1.775,0.76-2.661c0.61-1.496,1.804-3.019,3.35-3.651
		C333.371,377.836,333.6,378.192,333.498,378.545"/>
	<path fill="#FFFFFF" d="M312.354,383.262c0.078,0.43,0.509,0.811,0.229,1.293c-1.496-0.458-3.193-0.205-4.639,0.378
		c-1.294,0.963-1.092,2.943-0.762,4.335l0.382,0.306c0.633-0.153,0.659-0.963,1.216-1.142c0.938,0.229,2.23,0.56,3.118,0
		c0.784,0.026,0.762,1.115,0.836,1.674c-0.558,2.941-1.8,6.135-4.79,7.529c-1.243,0.609-2.841,0.201-4.032-0.229
		c-2.94-1.749-4.588-5.222-4.258-8.364c0.229-0.482,0.584-0.863,1.143-0.533c1.188,0.81,2.481-0.633,3.573,0.378
		c1.317-0.583,0.532-2.203,0.532-3.42c-1.064-1.37-2.89-1.168-4.486-1.066c-0.711-0.432,0.051-1.115,0.226-1.597
		c1.725-2.433,5.022-2.483,7.909-2.129C310.022,381.056,311.646,381.689,312.354,383.262"/>
	<path fill="#FFFFFF" d="M303.531,386.759v0.306c-0.861-0.077-2.254-0.939-3.041,0.151c-0.506,0.226-0.582-0.357-0.531-0.685
		c-0.102-0.38,0.127-0.686,0.457-0.76C301.605,385.493,302.949,385.846,303.531,386.759"/>
	<path fill="#FFFFFF" d="M312.583,386.378c-0.024,0.306,0.051,0.66-0.304,0.838c-0.964-0.38-2.309-0.913-3.271-0.151
		c-0.559-1.192,0.99-0.939,1.521-1.293C311.315,385.745,312.229,385.721,312.583,386.378"/>
	<path d="M307.715,391.247c-0.455,0.963-1.926,0.355-2.738,0.531c-0.276-0.102-0.102-0.404-0.152-0.607
		C305.637,390.612,307.082,390.538,307.715,391.247"/>
	<path d="M308.931,393.377c-0.604,0.912-1.519,2.051-2.734,1.978c-1.371,0.101-1.674-1.015-2.664-1.674l-0.074-0.459
		C305.283,393.502,307.285,393.149,308.931,393.377"/>
	<path fill="#FFFFFF" d="M261.551,405.24c1.536-0.008,3.01,0.051,4.596,0.014l-3.529,2.951c0.34,1.242,0.634,2.67,1.064,4.336
		l-3.499-2.434c-1.471,0.672-2.357,1.495-3.877,2.28l1.216-4.184c-1.155-0.945-2.446-1.842-3.538-2.805
		c1.592-0.041,2.986,0.022,4.525-0.009c0.711-1.33,1.028-2.854,1.674-4.184L261.551,405.24"/>
	<path fill="#FFFFFF" d="M279.575,425.242c0.306,0.733,0.747,1.315,0.935,2.418c-0.81,0.51-1.834,0.928-2.76,1.385
		c-0.226-1.674-1.698-3.297-3.345-3.729c-1.368-0.341-2.864,0.307-3.877,1.522c-0.838,0.986-1.092,2.408-0.838,3.65
		c0.66,1.721,2.485,3.021,4.335,3.021l0.532,0.017c-0.505,1.219-0.835,1.83-1.367,2.743c-3.069-0.104-6.161-1.903-7.303-4.87
		c-0.988-2.406-0.556-5.525,0.99-7.529c1.876-2.381,4.868-3.041,7.758-2.433C276.584,421.973,278.41,423.441,279.575,425.242"/>
	<path fill="#FFFFFF" d="M338.667,423.646l0.192,0.188l-4.563,4.248l1.521,1.836c1.292-1.014,2.688-2.092,4.068-3.383
		c0.71,0.596,1.282,1.291,1.952,2.08c-1.367,1.303-2.789,2.19-3.979,3.434c0.507,0.635,0.897,1.355,1.671,2.117l4.92-4.057
		l2.102,2.168c-2.788,2.647-5.829,5.375-8.719,7.489l-8.595-11.104c2.738-2.283,5.045-4.361,7.454-6.771
		C337.428,422.377,337.961,423.01,338.667,423.646"/>
	<path fill="#FFFFFF" d="M290.299,433c1.546,1.977,1.571,5.043,0.607,7.299c-1.075,2.295-3.142,3.754-5.399,4.26
		c-2.735,0.431-5.322-0.454-7.3-2.354c-1.748-1.928-2.712-4.691-1.826-7.377c0.786-2.916,3.625-5.045,6.542-5.4
		C285.938,429.248,288.728,430.643,290.299,433"/>
	<path fill="#007654" d="M287.107,434.826c0.859,2.002-0.129,3.979-1.523,5.397c-0.886,0.709-2.047,1.156-3.212,0.726
		c-0.734-0.355-1.641-1.004-1.844-1.791c-0.559-2.027,0.368-3.928,1.786-5.322c0.862-0.711,2.105-1.115,3.193-0.609
		C286.167,433.43,286.902,434.166,287.107,434.826"/>
	<path fill="#FFFFFF" d="M317.376,438.043c-2.133,0.307-4.17,0.561-6.201,0.891c0.205,1,0.114,1.67,0.268,2.433
		c1.901-0.037,3.562-0.375,5.338-0.604l0.519,3.252c-1.736,0.318-3.629,0.607-5.452,0.787c0.052,1.469,0.246,3.269,0.224,4.892
		c-1.495,0.229-3.109,0.393-4.656,0.291l-0.912-13.865l-0.012-0.291c3.433-0.33,6.919-0.773,10.2-1.308
		C316.83,435.561,317.147,436.762,317.376,438.043"/>
	<path fill="#FFFFFF" d="M329.007,431.811l0.128,0.238l-5.568,2.793l0.942,2.189c1.699-0.648,3.166-1.252,4.854-2.105
		c0.515,0.773,0.868,1.601,1.292,2.543c-1.531,0.816-3.116,1.449-4.785,2.183c0.31,0.75,0.466,1.297,1.011,2.5l5.861-2.515
		l1.411,2.674c-3.42,1.759-7.104,3.521-10.475,4.74l-5.133-13.067c3.27-1.423,6.068-2.771,9.054-4.404
		C328.173,430.246,328.506,431.004,329.007,431.811"/>
	<path fill="#FFFFFF" d="M304.41,439.619c-2.121-0.355-4.145-0.734-6.176-1.039c-0.113,1.016-0.4,1.629-0.485,2.397
		c1.823,0.544,3.507,0.728,5.267,1.05l-0.495,3.26c-1.751-0.228-3.641-0.527-5.435-0.912c-0.398,1.414-0.756,3.189-1.271,4.729
		c-1.496-0.238-3.085-0.574-4.527-1.144l3.346-13.484l0.079-0.278c3.372,0.729,6.826,1.365,10.115,1.856
		C304.645,437.088,304.58,438.332,304.41,439.619"/>
	<path fill="#FFFFFF" d="M353.696,405.262c1.532-0.006,2.902,0.035,4.593,0.017l-3.526,2.95c0.344,1.24,0.635,2.668,1.062,4.337
		l-3.496-2.437c-1.474,0.67-2.359,1.496-3.88,2.281l1.217-4.183c-1.154-0.942-2.448-1.844-3.534-2.807
		c1.588-0.041,2.983,0.023,4.521-0.008c0.621-1.385,1.064-2.715,1.676-4.185L353.696,405.262"/>
	<path fill="none" d="M369.805,396.096c0,35.734-28.554,64.736-63.735,64.736c-35.182,0-63.738-29.002-63.738-64.736
		c0-35.731,28.555-64.735,63.738-64.735C341.252,331.361,369.805,360.364,369.805,396.096z"/>
	<g>
		<path d="M347.483,448.024c1.981,0,3.681,1.541,3.681,3.632c0,2.109-1.698,3.649-3.681,3.649c-2.002,0-3.7-1.54-3.7-3.649
			C343.783,449.565,345.481,448.024,347.483,448.024z M347.483,448.613c-1.688,0-2.993,1.306-2.993,3.043
			c0,1.775,1.306,3.062,2.993,3.062c1.669,0,2.974-1.285,2.974-3.062C350.457,449.919,349.152,448.613,347.483,448.613z
			 M346.708,453.767h-0.647v-4.2h1.609c1.001,0,1.492,0.373,1.492,1.196c0,0.756-0.472,1.08-1.1,1.158l1.196,1.846h-0.706
			l-1.119-1.825h-0.727L346.708,453.767L346.708,453.767z M346.708,451.411h0.766c0.785,0,1.04-0.228,1.04-0.688
			c0-0.401-0.195-0.628-0.932-0.628h-0.874V451.411z"/>
	</g>
</g>
</svg>
