<?xml version="1.0" encoding="utf-8"?>
<!-- Generator: Adobe Illustrator 16.0.0, SVG Export Plug-In . SVG Version: 6.00 Build 0)  -->
<!DOCTYPE svg PUBLIC "-//W3C//DTD SVG 1.1//EN" "http://www.w3.org/Graphics/SVG/1.1/DTD/svg11.dtd">
<svg version="1.1" id="logo" xmlns="http://www.w3.org/2000/svg" xmlns:xlink="http://www.w3.org/1999/xlink" x="0px" y="0px"
	 width="229.755px" height="106.506px" viewBox="0 0 229.755 106.506" enable-background="new 0 0 229.755 106.506"
	 xml:space="preserve">
<ellipse fill="#FFFFFF" cx="114.877" cy="53.254" rx="114.877" ry="53.252"/>
<path fill-rule="evenodd" clip-rule="evenodd" fill="#004FA3" d="M115.247,4.079c60.494,0,109.824,22.119,109.824,49.238
	c0,15.148-18.109,30.123-45.145,31.008c-58.484,1.908-95.42-18.707-143.176,3.365C17.388,78.806,5.421,66.671,5.421,53.317
	C5.421,26.198,54.757,4.079,115.247,4.079L115.247,4.079z"/>
<path fill-rule="evenodd" clip-rule="evenodd" fill="#00ADE8" d="M114.327,102.273c-28.215,0.08-53.001-4.611-72.484-12.5
	c50.557-19.464,72.809,9.992,141.203,1.984C183.046,91.758,148.917,102.175,114.327,102.273z"/>
<g>
	<circle fill="#FFFFFF" cx="218.568" cy="22.298" r="8.718"/>
	<path fill="#004FA3" d="M213.042,22.279c0-3.222,2.43-5.652,5.545-5.652c3.078,0,5.508,2.431,5.508,5.652
		c0,3.276-2.43,5.688-5.508,5.688C215.472,27.968,213.042,25.556,213.042,22.279z M218.587,29.102c3.707,0,6.875-2.88,6.875-6.822
		c0-3.906-3.168-6.785-6.875-6.785c-3.744,0-6.912,2.879-6.912,6.785C211.675,26.222,214.843,29.102,218.587,29.102z M217.146,22.82
		h1.368l2.07,3.401h1.332l-2.232-3.456c1.152-0.145,2.033-0.756,2.033-2.16c0-1.548-0.918-2.232-2.771-2.232h-2.988v7.849h1.188
		V22.82z M217.146,21.812v-2.43h1.62c0.828,0,1.709,0.18,1.709,1.151c0,1.207-0.899,1.278-1.907,1.278H217.146z"/>
</g>
<path fill-rule="evenodd" clip-rule="evenodd" fill="#FFFFFF" d="M176.878,24.076c-3.799-0.035-6.811,0.814-9.146,1.957h-22.051
	v8.999c-0.631-0.96-1.346-1.884-2.15-2.761c-4.248-4.629-10.078-6.979-17.346-6.979c-7.883,0-14.271,2.305-19.012,6.84V27.25h-7.085
	V16.513h-13.2l-0.513,2.854c-0.503,2.854-1.995,7.426-3.716,9.154c-0.018-0.705-0.073-1.464-0.201-2.25
	c-0.659-4.244-4.284-18.062-23.25-17.814C39.857,8.704,34.932,23.784,35.023,31.658c-0.073,13.627,9.629,19.049,11.332,19.898
	c0.275,0.167,0.916,0.549,1.813,1.071h-0.156H30.145v5.744c0,0.244,0.32,24.984,28.239,25.029
	c6.122,0.008,11.225-1.465,15.257-4.334h26.447V60.922c1.182,3.668,3.26,7.508,6.518,10.727c4.979,4.92,11.761,7.49,19.607,7.418
	c9.41-0.084,15.66-4.344,19.469-9.09v17.137l21.822,0.01V75.9c2.316,0.889,5.393,1.557,9.484,1.557
	c10.307,0,21.785-10.572,21.785-25.754C198.772,31.484,186.974,24.185,176.878,24.076z M60.681,61.498
	c-0.037,0.602-0.211,0.76-0.293,0.83c-0.521,0.451-1.821,0.625-2.526,0.57l-0.65-0.064l-0.155,0.045
	c-0.705-0.035-2.526-0.238-3.817-1.48c-1.163-1.098-1.749-2.898-1.767-5.332l-0.009-1.582c1.913,1.043,4.128,2.203,6.307,3.201
	C60.828,59.082,60.754,60.254,60.681,61.498z M71.546,39.833c-1.364-0.714-2.865-1.326-4.531-1.803l0.439,0.119
	c-5.611-1.957-10.38-5.157-10.609-6.511c0.027-1.409,0.458-3.082,2.417-3.091c2.462-0.01,3.021,2.295,3.14,3.246l0.33,3.1h3.112
	h5.703V39.833z M129.224,44.287h-6.719c0,0,0.566-2.396,3.396-2.396C128.739,41.89,129.224,44.287,129.224,44.287z M172.272,59.32
	c-2.883,0-5.41-3.941-5.41-8.43c0-4.482,2.527-8.424,5.41-8.424c2.875,0,5.4,3.941,5.4,8.424
	C177.673,55.379,175.147,59.32,172.272,59.32z M129.095,59.377c-0.301,0.666-1.152,2.012-3.268,2.012s-2.93-1.346-3.195-2.012
	H129.095z"/>
<path fill-rule="evenodd" clip-rule="evenodd" fill="#ED1C24" d="M96.627,30.679V19.943H89.78c0,0-1.62,9.2-5.739,11.879
	c-3.387,2.195-9.035,2.516-9.035,2.516v7.691h6.481v33.553h15.14V42.029h7.085v-11.35H96.627z"/>
<path fill-rule="evenodd" clip-rule="evenodd" fill="#ED1C24" d="M126.185,28.722c-24.496,0-23.937,24.409-23.937,24.409
	c0.01,8.961,6.701,22.605,23.937,22.451c17.236-0.156,20.76-15.619,20.76-15.619h-14.17c0,0-1.236,4.17-6.59,4.15
	c-9.008-0.027-8.064-8.057-8.064-8.057h29.072C147.192,56.057,149.562,28.722,126.185,28.722z M134.001,46.537H118.12
	c0,0,0.146-7.188,7.66-7.262C133.288,39.193,134.001,46.537,134.001,46.537z"/>
<path fill-rule="evenodd" clip-rule="evenodd" fill="#ED1C24" d="M66.32,41.388c0,0-12.889-4.473-12.934-9.73
	c0,0-0.073-6.566,5.858-6.594c5.941-0.027,6.6,6.347,6.6,6.347h13.199c0,0,0.366-2.276,0-4.636
	c-0.906-5.771-4.878-15.08-19.79-14.889c-21.008,0.274-20.77,19.771-20.77,19.771c-0.073,12.529,9.529,16.836,9.529,16.836
	s5.822,3.557,11.195,6.018c4.485,2.049,5.081,4.609,4.934,7.16c-0.311,5.223-6.6,4.637-6.6,4.637s-9.464,0.594-9.529-10.252H33.604
	c0,0,0,0.576,0,2.287c0,3.328,2.179,21.535,24.788,21.572c22.601,0.037,21.374-21.902,21.374-21.902S79.474,45.202,66.32,41.388z"/>
<path fill-rule="evenodd" clip-rule="evenodd" fill="#ED1C24" d="M176.841,27.505c-8.998-0.091-12.559,5.67-12.559,5.67l0.008-3.722
	h-15.148v54.185h14.902v-13.91c0,0,3.322,4.244,12.943,4.244c8.246,0,18.324-9.055,18.324-22.297
	C195.312,33.962,185.829,27.597,176.841,27.505z M163.403,50.863c0-6.558,3.973-11.88,8.869-11.88c4.889,0,8.861,5.322,8.861,11.88
	c0,6.567-3.973,11.889-8.861,11.889C167.376,62.752,163.403,57.43,163.403,50.863z"/>
</svg>
