<?xml version="1.0" encoding="utf-8"?>
<!-- Generator: Adobe Illustrator 16.0.0, SVG Export Plug-In . SVG Version: 6.00 Build 0)  -->
<!DOCTYPE svg PUBLIC "-//W3C//DTD SVG 1.1//EN" "http://www.w3.org/Graphics/SVG/1.1/DTD/svg11.dtd">
<svg version="1.1" id="Layer_1" xmlns="http://www.w3.org/2000/svg" xmlns:xlink="http://www.w3.org/1999/xlink" x="0px" y="0px"
	 width="175.749px" height="51.536px" viewBox="271.505 334.608 175.749 51.536"
	 enable-background="new 271.505 334.608 175.749 51.536" xml:space="preserve">
<g>
	<path fill="#084831" d="M311.088,342.073c12.01,0,22.742,0,34.78,0c4.987,0,6.516,0.857,7.517,1.669
		c0.419,0.34,0.416,0.517,0.484-0.079c0.045-0.393,0.091-0.701,0.136-1.095c0.048-0.417,0.071-0.496,0.492-0.496
		c21.252,0,42.235,0,63.486,0c0.559,0,0.64,0.037,0.719,0.586c0.273,1.888,0.539,3.814,0.812,5.702
		c0.099,0.667,0.043,0.777,0.475,0.271c3.728-4.381,8.653-7.047,13.111-6.625c0.636,0.06,0.536,0.083,0.736-0.537
		c0.693-2.14,1.325-4.084,2.018-6.223c0.271-0.832,0.278-0.831,0.72-0.111c3.327,5.446,6.634,10.798,9.958,16.229
		c0.923,1.508,1.161,1.344-0.494,2.026c-5.705,2.35-10.945,4.523-16.649,6.872c-1.338,0.55-1.622,0.673-1.184-0.717
		c0.149-0.478,0.394-1.033,0.293-1.093c-0.062-0.036-0.245,0.107-0.647,0.551c-3.521,3.888-5.759,7.778-7.256,11.653
		c-0.325,0.842-0.387,0.674,0.517,0.674c1.126,0,2.252,0,3.378,0c1.375,0,1.938,0.759,1.938,1.982c0,1.211,0,2.422,0,3.633
		c0,1.875-0.947,2.544-2.366,2.544c-10.652,0-21.362,0-32.033,0c-1.095,0-1.128,0.065-0.957-1.005
		c0.185-1.15,0.368-2.303,0.552-3.451c0.062-0.393,0.207-0.493-0.22-0.493c-0.076,0-0.218,0-0.306,0
		c-0.342,0-0.354,0.254-0.509,0.544c-0.593,1.107-1.186,2.216-1.778,3.322c-0.6,1.121-0.512,1.083-1.781,1.083
		c-12.079,0-23.953,0-36.033,0c-1.308,0-1.248-0.03-1.103-1.304c0.083-0.718,0.134-1.152,0.216-1.869
		c0.123-1.062,0.019-0.866-0.63-0.336c-3.367,2.768-7.876,3.509-12.782,3.509c-4.587,0-8.84,0-13.429,0
		c-1.177,0-1.237-0.037-0.886-1.112c0.156-0.477,0.312-0.954,0.469-1.431c-3.316,2.342-7.066,3.356-10.666,3.356
		c-4.192,0-7.968-1.762-9.524-4.984c-5.834,5.426-14.956,5.648-17.681,4.26c-0.74,2.107-1.461,4.188-2.2,6.296
		c-0.155,0.358-0.301,0.363-0.551-0.007c-3.501-5.786-6.976-11.527-10.477-17.312c-0.478-0.779-0.25-0.828,0.626-1.197
		c4.646-1.955,9.292-3.911,13.938-5.866c0.675-0.284,0.657-0.179,0.493-0.884c-1.962-8.441,1.964-14.304,7.331-17.013
		c5.099-2.574,11.5-2.284,15.386,0.172c0.531,0.336,0.465,0.461,0.671-0.167c0.12-0.366,0.239-0.732,0.359-1.098
		C310.695,342.074,310.638,342.073,311.088,342.073L311.088,342.073z"/>
	<path fill="#FFFFFF" d="M418.826,374.33h2.078v0.341h-0.816v1.987h-0.439v-1.987h-0.821L418.826,374.33L418.826,374.33z
		 M421.224,374.33h0.644l0.639,1.861l0.648-1.861h0.643v2.328h-0.421v-1.924l-0.658,1.924h-0.434l-0.65-1.924v1.924h-0.409
		L421.224,374.33L421.224,374.33z"/>
	<g>
		<path fill="#084831" d="M341.035,364.283h-2.351l-1.566,5.408h3.017c1.483,0,2.888-1.148,3.12-2.551l0.051-0.307
			C343.54,365.432,342.517,364.283,341.035,364.283z"/>
		<path fill="#FFFFFF" d="M298.518,353.673c1.384-2.653,5.403-1.547,7.278-0.207c1.026-2.11,2.129-4.373,3.154-6.483
			c-2.353-1.613-5.181-2.342-7.823-2.288c-5.044,0.104-9.827,3.267-11.637,8.771c-1.279,3.891,0.327,6.829,1.93,9.201
			c1.371,2.028,2.761,3.636,2.104,5.146c-0.89,2.709-6.095,2.025-7.911,0.832c0.449-1.367,0.898-2.732,1.347-4.098
			c-3.784,1.596-7.568,3.189-11.352,4.784c2.097,3.537,4.193,7.073,6.29,10.61c0.394-1.198,0.788-2.396,1.182-3.594
			c2.448,0.398,4.623,0.885,7.363,0.834c5.057-0.095,10.348-2.871,12.256-6.949c1.138-2.433,1.074-5.326-0.959-8.39
			C300.327,359.714,297.016,356.551,298.518,353.673z"/>
		<path fill="#FFFFFF" d="M333.818,345.102c-2.895,0-5.789,0-8.684,0c-2.342,7.122-4.917,14.949-7.259,22.071
			c-1.061,3.224-5.29,3.224-4.252,0.068c2.349-7.143,4.931-14.994,7.281-22.139c-2.795,0-5.591,0-8.387,0
			c-2.405,7.316-4.727,14.37-7.132,21.686c-2.064,6.274,0.291,10.743,7.055,10.743c6.776,0,12.17-4.438,14.233-10.713
			C329.085,359.493,331.408,352.428,333.818,345.102z"/>
		<path fill="#FFFFFF" d="M348.089,360.38c7.116-3.066,8.769-15.278,0.113-15.278c-3.794,0-7.965,0-11.758,0
			c-3.478,10.572-6.954,21.144-10.432,31.716c4.14,0,9.037,0,13.178,0C348.79,376.818,356.766,366.77,348.089,360.38z
			 M343.306,366.834l-0.051,0.307c-0.232,1.402-1.637,2.551-3.12,2.551h-3.017l1.566-5.408h2.351
			C342.517,364.283,343.54,365.432,343.306,366.834z M346.317,354.693l-0.114,0.317c-0.523,1.452-2.163,2.64-3.646,2.64h-1.95
			l1.62-5.597h2.345C346.053,352.053,346.839,353.241,346.317,354.693z"/>
		<path fill="#084831" d="M344.571,352.053h-2.345l-1.62,5.597h1.95c1.483,0,3.123-1.188,3.646-2.64l0.114-0.317
			C346.839,353.241,346.053,352.053,344.571,352.053z"/>
	</g>
	<g>
		<polygon fill="#F9E543" points="383.82,345.102 374.631,364.805 377.9,345.102 370.854,345.102 361.316,365.004 364.66,345.102 
			356.837,345.102 353.153,376.818 361.182,376.818 370.537,356.714 367.202,376.818 374.966,376.818 391.964,345.102 		"/>
		<polygon fill="#084831" points="396.808,365.354 398.775,353.5 392.422,365.354 		"/>
		<path fill="#F9E543" d="M395.689,345.102l-17,31.716h7.587l2.841-5.299h6.668l-0.879,5.299h8.332l3.684-31.716H395.689z
			 M396.808,365.354h-4.386l6.354-11.854L396.808,365.354z"/>
		<path fill="#F9E543" d="M443.218,351.291c-1.987-3.235-3.977-6.47-5.964-9.705c-0.386,1.172-0.771,2.344-1.157,3.516
			c-8.252-0.867-12.946,3.69-18.462,11.742c-0.562-3.914-1.126-7.828-1.688-11.742c-2.56,0-5.117,0-7.676,0
			c0.92,5.916,1.841,11.831,2.761,17.746c-1.533,4.656-3.064,9.313-4.596,13.969c2.952,0,5.905,0,8.858,0
			c5.663-19.434,16.57-26.535,18.562-24.898c-0.423,1.281-0.844,2.562-1.266,3.843C436.133,354.271,439.676,352.781,443.218,351.291
			z"/>
	</g>
</g>
</svg>
