<?xml version="1.0" encoding="utf-8"?>
<!-- Generator: Adobe Illustrator 16.0.0, SVG Export Plug-In . SVG Version: 6.00 Build 0)  -->
<!DOCTYPE svg PUBLIC "-//W3C//DTD SVG 1.1//EN" "http://www.w3.org/Graphics/SVG/1.1/DTD/svg11.dtd">
<svg version="1.1" id="Layer_1" xmlns="http://www.w3.org/2000/svg" xmlns:xlink="http://www.w3.org/1999/xlink" x="0px" y="0px"
	 width="175.748px" height="114.346px" viewBox="8.504 39.205 175.748 114.346"
	 enable-background="new 8.504 39.205 175.748 114.346" xml:space="preserve">
<g>
	<path fill="#EB2E2E" d="M67.53,153.551H56.76c0.496-0.407,0.868-0.911,1.117-1.508c0.249-0.599,0.386-1.365,0.416-2.296V127.62
		c-0.029-1.049-0.183-1.952-0.459-2.711c-0.277-0.756-0.723-1.413-1.336-1.969h6.278c0.986,0,1.712-0.051,2.176-0.152
		c0.464-0.104,0.871-0.299,1.219-0.591v3.259c0.688-0.989,1.562-1.725,2.623-2.204c1.059-0.479,2.263-0.721,3.61-0.721
		c2.865,0,5.1,0.946,6.705,2.838c1.606,1.892,2.409,4.469,2.409,7.728c0,3.551-0.96,6.314-2.879,8.295
		c-1.918,1.979-4.467,2.969-7.645,2.969c-0.315-0.029-0.637-0.06-0.967-0.088c-0.33-0.029-0.651-0.06-0.965-0.088l-1.546-4.225
		c0.168,0.059,0.351,0.098,0.546,0.111c0.194,0.016,0.391,0.021,0.588,0.021c1.567,0,2.723-0.51,3.464-1.532
		c0.744-1.023,1.115-2.545,1.115-4.56c0-2.396-0.343-4.154-1.029-5.28c-0.685-1.125-1.631-1.688-2.835-1.688
		c-0.953,0-1.729,0.381-2.332,1.14s-0.89,1.769-0.86,3.022v18.453c0,0.965,0.102,1.738,0.306,2.323
		C66.682,152.558,67.032,153.083,67.53,153.551L67.53,153.551z"/>
	<path fill="#EB2E2E" d="M112.763,132.735c0,5.438-7.843,9.846-17.517,9.846c-9.676,0-17.518-4.408-17.518-9.846
		c0-5.438,7.842-9.848,17.518-9.848C104.92,122.89,112.763,127.297,112.763,132.735L112.763,132.735z"/>
	<path fill="#F6C123" d="M109.46,132.735c0,4.281-6.363,7.754-14.214,7.754c-7.852,0-14.216-3.473-14.216-7.754
		c0-4.283,6.364-7.756,14.216-7.756C103.097,124.979,109.46,128.452,109.46,132.735L109.46,132.735z"/>
	<path fill="#F6C123" d="M42.729,85.723c0,15.663,23.727,28.358,52.995,28.358c2.532,0,5.019-0.102,7.457-0.285
		c-23.841-8.622-11.883-46.48-52.422-43.063C45.68,75.082,42.729,80.216,42.729,85.723L42.729,85.723z"/>
	<path fill="#EB2E2E" d="M95.724,57.365c-7.247,0-14.146,0.786-20.435,2.196c-0.02,0.002-0.042,0.001-0.061,0.003
		c-11.023,2.407-17.07,6.157-17.07,6.157c19.95,1.093,26.761,11.728,31.949,22.574c-4.54,7.301-8.492,13.701-16.232,19.631
		c-12.049-4.569-20.093-12.803-20.093-22.203c0-5.587,2.853-10.758,7.689-14.996c-3.07-0.319-6.603-0.341-10.713,0.005
		c-0.001,0-0.001,0.001-0.003,0.002c-5.078,4.349-8.026,9.482-8.026,14.989c0,15.663,23.727,28.358,52.995,28.358
		c12.875,0,24.671-2.458,33.854-6.541l-0.196,0.018c0.18-0.057,0.346-0.106,0.525-0.166c-14.483,2.153-22.307-12.343-29.704-25.765
		c5.753-7.954,11.159-14.986,12.217-15.734c1.438-1.019,3.709-1.712,5.685-2.16c11.752,4.608,19.562,12.731,19.562,21.991
		c0,6.435-3.775,12.32-10.021,16.861c3.207,0.77,6.414,1.129,9.49,0.825c7.243-4.851,11.584-10.995,11.584-17.686
		C148.72,70.062,124.994,57.365,95.724,57.365L95.724,57.365z M107.062,110.746c-3.608,0.629-7.403,0.983-11.337,0.983
		c-3.426,0-6.752-0.261-9.94-0.74c-0.755-1.273-1.475-3.243-0.932-5.715c0.338-1.539,3.418-6.473,7.412-12.352
		C95.798,100.56,99.344,107.624,107.062,110.746L107.062,110.746z M105.89,65.455c-0.467,1.508-3.496,5.599-8.261,11.561
		c-4.41-7.725-8.933-14.318-14.889-16.025c4.088-0.826,8.451-1.274,12.984-1.274c3.544,0,6.984,0.276,10.272,0.789
		C106.258,61.816,106.435,63.69,105.89,65.455L105.89,65.455z"/>
	<path fill="#F6C123" d="M117.396,63.901c-1.791,0.448-3.707,1.092-4.977,1.991c-1.057,0.748-6.464,7.78-12.217,15.734
		c4.486,8.138,9.131,16.665,15.318,21.643C126.336,98.678,145.379,79.394,117.396,63.901L117.396,63.901z M105.996,60.504
		c-3.288-0.513-6.728-0.789-10.272-0.789c-4.533,0-8.896,0.448-12.984,1.274c5.956,1.708,10.479,8.3,14.889,16.025
		c4.765-5.962,7.794-10.053,8.261-11.561C106.435,63.69,106.258,61.816,105.996,60.504L105.996,60.504z"/>
	<path fill="#F6C123" d="M19.562,104.097c0,2.1-1.702,3.801-3.801,3.801c-2.099,0-3.801-1.701-3.801-3.801
		c0-2.102,1.702-3.803,3.801-3.803C17.86,100.294,19.562,101.995,19.562,104.097L19.562,104.097z"/>
	<path fill="#F6C123" d="M179.894,104.097c0,2.1-1.703,3.801-3.803,3.801s-3.802-1.701-3.802-3.801c0-2.102,1.702-3.803,3.802-3.803
		C178.188,100.294,179.894,101.995,179.894,104.097L179.894,104.097z"/>
	<path fill="#EB2E2E" d="M39.973,128.024l2.184-4.846c0.786-0.203,1.58-0.363,2.38-0.479c0.8-0.115,1.711-0.175,2.73-0.175
		c2.999,0.029,5.255,0.67,6.77,1.918c1.513,1.248,2.285,3.238,2.314,5.97v6.231c0,1.045,0.306,1.883,0.919,2.506
		c0.613,0.625,1.314,0.938,2.104,0.938h0.701l-2.016,4.223c-0.233,0-0.453,0.008-0.658,0.021s-0.408,0.021-0.612,0.021
		c-2.743,0-4.822-0.565-6.238-1.703c-1.415-1.135-2.107-2.707-2.078-4.715v-4.146c-0.146,0.118-0.292,0.222-0.436,0.311
		c-0.146,0.088-0.32,0.161-0.523,0.221c-1.424,0.56-2.326,1.062-2.703,1.503c-0.378,0.44-0.553,1-0.523,1.678
		c0,0.913,0.261,1.627,0.785,2.144c0.523,0.515,1.235,0.771,2.137,0.771c0.174,0,0.319,0,0.435,0c0.115,0,0.232-0.014,0.349-0.044
		l-2.093,3.854c-0.437,0.027-0.872,0.057-1.308,0.086c-0.436,0.026-0.814,0.043-1.134,0.043c-2.326-0.03-4.159-0.605-5.496-1.73
		c-1.337-1.127-1.991-2.713-1.962-4.759c-0.029-1.578,0.479-2.945,1.526-4.101c1.046-1.154,2.688-1.966,4.926-2.434l2.528-0.527
		c1.54-0.32,2.52-0.654,2.943-1.007c0.42-0.351,0.631-0.817,0.631-1.403c0-0.612-0.261-1.088-0.784-1.425
		c-0.524-0.336-1.32-0.505-2.396-0.505c-0.958,0-1.888,0.139-2.789,0.414C41.687,127.153,40.814,127.536,39.973,128.024
		L39.973,128.024z"/>
	<path fill="#EB2E2E" d="M37.339,143.324c-1.139-0.96-1.849-2.214-2.125-3.73h-0.168v-21.557c0-1.17,0.139-2.129,0.415-2.875
		c0.278-0.746,0.753-1.384,1.425-1.91H24.917c0.642,0.526,1.103,1.164,1.38,1.91c0.277,0.746,0.431,1.705,0.46,2.875v21.557h-8.124
		v-21.557c0-1.17,0.137-2.129,0.415-2.875c0.276-0.746,0.752-1.384,1.424-1.91H8.504c0.643,0.524,1.111,1.162,1.403,1.906
		c0.291,0.745,0.438,1.702,0.438,2.872v21.134c-0.03,1.199-0.184,2.171-0.461,2.916c-0.276,0.746-0.737,1.367-1.379,1.862h21.929
		c1.751,0,3.013,0.713,3.786,2.138c0.773,1.423,1.131,3.371,1.073,5.846l3.939-1.008v-6.444
		C38.526,144.174,37.894,143.791,37.339,143.324L37.339,143.324z"/>
	<path fill="#EB2E2E" d="M106.306,122.824h9.881c0.028,0.292,0.08,0.548,0.15,0.766c0.073,0.22,0.367,0.767,0.887,1.642l1.812,3.237
		l1.554-2.319c0.146-0.231,0.26-0.473,0.346-0.722c0.086-0.247,0.131-0.562,0.131-0.94c-0.029-0.407-0.116-0.743-0.258-1.006
		c-0.146-0.263-0.347-0.481-0.604-0.656h7.509l-6.432,8.971l6.085,9.717c0.229,0.381,0.53,0.789,0.905,1.227
		c0.375,0.438,0.748,0.804,1.123,1.095h-10.056c-0.06-0.262-0.144-0.556-0.26-0.876c-0.116-0.318-0.259-0.641-0.433-0.964
		l-2.936-5.119l-2.46,3.765c-0.087,0.146-0.165,0.334-0.235,0.568c-0.072,0.232-0.095,0.423-0.064,0.568
		c0,0.319,0.086,0.67,0.26,1.051c0.171,0.379,0.402,0.716,0.688,1.007h-7.812l7.424-10.548l-5.049-8.229
		c-0.288-0.438-0.612-0.854-0.972-1.248C107.129,123.416,106.735,123.087,106.306,122.824L106.306,122.824z"/>
	<path fill="#EB2E2E" d="M127.556,122.937h19.141c-0.524,0.467-0.905,1-1.139,1.598c-0.234,0.599-0.351,1.336-0.351,2.21v13.392
		c0,0.965,0.124,1.745,0.371,2.344c0.248,0.599,0.636,1.086,1.162,1.465h-10.944c0.496-0.379,0.867-0.866,1.116-1.465
		s0.387-1.379,0.417-2.344v-13.261h-3.609l-0.045,3.321c-0.088,5.711-0.67,9.49-1.74,11.339c-1.072,1.853-2.726,2.789-4.957,2.819
		c-0.354-0.03-0.677-0.073-0.971-0.131c-0.295-0.06-0.615-0.146-0.969-0.264l-0.266-5.378c0.205,0.146,0.446,0.263,0.727,0.351
		c0.279,0.088,0.579,0.116,0.902,0.088c1.115,0,1.93-0.67,2.441-2.012c0.514-1.34,0.771-4.138,0.771-8.393
		c0-1.747-0.176-3.008-0.525-3.779C128.737,124.063,128.228,123.431,127.556,122.937L127.556,122.937z"/>
	<path fill="#EB2E2E" d="M159.101,143.942h-10.949c0.498-0.379,0.879-0.866,1.14-1.465c0.265-0.599,0.396-1.379,0.396-2.344v-12.517
		c-0.027-1.052-0.183-1.955-0.459-2.714c-0.279-0.758-0.726-1.414-1.336-1.969h6.26c0.992,0,1.722-0.052,2.188-0.154
		c0.465-0.104,0.874-0.299,1.227-0.592v17.944c0,0.966,0.123,1.745,0.369,2.343C158.185,143.076,158.571,143.563,159.101,143.942
		L159.101,143.942z M148.724,116.903c0-1.197,0.437-2.243,1.313-3.135c0.873-0.893,1.926-1.338,3.151-1.338
		c1.193,0.028,2.237,0.481,3.127,1.358c0.892,0.878,1.334,1.916,1.334,3.114c0,1.228-0.442,2.279-1.334,3.156
		c-0.89,0.877-1.934,1.314-3.127,1.314c-1.227,0-2.278-0.438-3.151-1.314C149.159,119.185,148.724,118.132,148.724,116.903
		L148.724,116.903z"/>
	<path fill="#EB2E2E" d="M182.528,112.351l-1.766,6.734c-0.636,0.059-1.174,0.096-1.615,0.109c-0.448,0.016-0.871,0.021-1.271,0.021
		c-0.229,0.029-0.617,0.043-1.163,0.043c-0.547,0-0.978,0-1.292,0l-3.707,0.135c-2.41,0.088-4.229,0.778-5.447,2.071
		c-1.221,1.293-1.844,3.028-1.873,5.203c0.976-1.312,2.139-2.267,3.488-2.862c1.348-0.599,3.071-0.896,5.17-0.896
		c3.676,0,6.461,0.956,8.356,2.863c1.896,1.908,2.844,4.307,2.844,7.189c0,3.409-1.192,6.157-3.577,8.24
		c-2.383,2.084-5.383,3.124-9.001,3.124c-4.022,0-7.104-1.222-9.241-3.661c-2.14-2.441-3.209-5.783-3.209-10.025
		c0-3.361,0.516-6.301,1.549-8.814c1.033-2.518,2.571-4.562,4.61-6.143c1.121-0.849,2.269-1.455,3.447-1.82
		c1.178-0.365,3.128-0.577,5.856-0.637l4.737-0.088c0.634,0,1.194-0.064,1.681-0.197
		C181.594,112.812,182.065,112.612,182.528,112.351L182.528,112.351z M171.339,127.177c-1.234,0-2.181,0.596-2.839,1.784
		c-0.66,1.19-0.987,2.729-0.987,4.613c0,1.917,0.439,3.483,1.321,4.702c0.883,1.219,2.056,1.813,3.515,1.783
		c1.008,0,1.862-0.508,2.564-1.522c0.699-1.015,1.051-2.565,1.051-4.657c0-1.799-0.415-3.365-1.24-4.699
		C173.896,127.845,172.767,127.177,171.339,127.177L171.339,127.177z"/>
	<path fill="#EB2E2E" d="M87.309,129.222v6.008c0,0.269,0.031,0.486,0.094,0.653c0.062,0.167,0.169,0.306,0.319,0.417h-2.705
		c0.145-0.111,0.249-0.25,0.315-0.417c0.065-0.167,0.098-0.386,0.098-0.653v-4.021c-0.17-0.064-0.341-0.123-0.511-0.172
		s-0.341-0.098-0.512-0.143c0.531-0.131,1.03-0.33,1.499-0.596C86.373,130.033,86.841,129.675,87.309,129.222L87.309,129.222z"/>
	<path fill="#EB2E2E" d="M89.094,136.496l0.364-0.847c0.755-0.137,1.381-0.516,1.877-1.135s0.744-1.423,0.744-2.41
		c0-0.558-0.083-0.996-0.245-1.317c-0.164-0.321-0.394-0.481-0.695-0.481c-0.231,0-0.421,0.108-0.569,0.324
		c-0.147,0.215-0.221,0.542-0.221,0.979c0,0.451,0.08,0.807,0.239,1.063c0.16,0.259,0.377,0.39,0.653,0.39
		c0.068,0,0.146-0.01,0.23-0.025c0.085-0.018,0.168-0.044,0.25-0.084l-0.406,0.947c-0.122,0.046-0.233,0.076-0.336,0.093
		c-0.103,0.019-0.199,0.024-0.289,0.024c-0.623,0-1.136-0.203-1.537-0.608c-0.401-0.405-0.602-0.96-0.602-1.661
		c-0.006-0.714,0.229-1.312,0.707-1.798c0.478-0.484,1.12-0.728,1.927-0.728c0.839,0,1.507,0.289,2.003,0.864
		c0.499,0.577,0.747,1.291,0.747,2.144c0,1.16-0.463,2.168-1.385,3.022C91.627,136.106,90.476,136.521,89.094,136.496
		L89.094,136.496z"/>
	<path fill="#EB2E2E" d="M94.732,130.677l0.342-1.158c0.27-0.094,0.562-0.164,0.875-0.218c0.312-0.053,0.591-0.079,0.838-0.079
		c0.657,0,1.198,0.151,1.621,0.452c0.423,0.302,0.635,0.701,0.635,1.199c0,0.319-0.104,0.612-0.312,0.873
		c-0.207,0.263-0.479,0.446-0.814,0.551v0.039c0.458,0.092,0.816,0.298,1.075,0.62c0.256,0.32,0.384,0.708,0.384,1.16
		c0,0.701-0.288,1.273-0.87,1.717c-0.581,0.441-1.348,0.663-2.302,0.663c-0.219,0-0.45-0.017-0.691-0.049
		c-0.243-0.033-0.489-0.079-0.742-0.138l-0.271-1.209c0.222,0.121,0.458,0.213,0.708,0.271c0.248,0.058,0.515,0.086,0.802,0.086
		c0.427,0,0.768-0.122,1.017-0.368c0.255-0.245,0.379-0.562,0.379-0.947c0-0.387-0.123-0.67-0.369-0.854
		c-0.248-0.184-0.709-0.278-1.386-0.285h-0.2v-0.922h0.209c0.448,0.007,0.796-0.078,1.042-0.254c0.248-0.178,0.37-0.424,0.37-0.735
		c0-0.28-0.081-0.489-0.242-0.626c-0.162-0.139-0.393-0.206-0.692-0.206c-0.217,0-0.439,0.036-0.67,0.107
		C95.238,130.438,94.994,130.542,94.732,130.677L94.732,130.677z"/>
	<path fill="#EB2E2E" d="M103.476,129.222c0.838,0,1.502,0.338,1.992,1.014c0.488,0.676,0.733,1.55,0.733,2.625
		c0,1.106-0.261,1.99-0.781,2.647c-0.522,0.659-1.188,0.988-1.995,0.988c-0.822,0-1.49-0.345-1.996-1.032s-0.759-1.557-0.759-2.604
		c0-1.01,0.244-1.868,0.733-2.576C101.894,129.576,102.584,129.222,103.476,129.222L103.476,129.222z M102.548,132.761
		c0,0.857,0.077,1.514,0.23,1.969c0.154,0.455,0.378,0.684,0.666,0.684c0.285,0,0.502-0.214,0.652-0.643
		c0.151-0.431,0.228-1.066,0.228-1.91c0-0.852-0.08-1.488-0.241-1.91s-0.371-0.637-0.629-0.645c-0.311,0-0.537,0.213-0.684,0.639
		C102.621,131.369,102.548,131.976,102.548,132.761L102.548,132.761z"/>
	<path fill="#EB2E2E" d="M16.157,89.113l1.059,0.51c-0.276,0.16-0.537,0.361-0.784,0.606c-0.246,0.245-0.446,0.526-0.599,0.845
		c-0.295,0.613-0.354,1.241-0.174,1.884c0.18,0.642,0.62,1.132,1.32,1.47c0.8,0.385,1.547,0.464,2.242,0.236
		c0.695-0.228,1.221-0.712,1.578-1.453c0.207-0.428,0.339-0.836,0.398-1.226c0.06-0.388,0.041-0.763-0.057-1.124l0.879,1.151
		c-0.048,0.291-0.112,0.561-0.193,0.812c-0.082,0.25-0.188,0.521-0.322,0.812c-0.519,1.076-1.214,1.774-2.086,2.096
		c-0.872,0.32-1.768,0.256-2.687-0.194c-0.886-0.427-1.498-1.091-1.835-1.992c-0.337-0.899-0.255-1.878,0.247-2.934
		c0.081-0.168,0.167-0.326,0.26-0.474c0.092-0.148,0.233-0.343,0.422-0.587c0.084-0.102,0.15-0.182,0.197-0.242
		C16.07,89.251,16.114,89.185,16.157,89.113L16.157,89.113z"/>
	<path fill="#EB2E2E" d="M16.924,87.474l1.863-3.231l0.951,0.547c-0.168,0.036-0.315,0.111-0.439,0.224
		c-0.124,0.113-0.246,0.271-0.364,0.477l-0.623,1.136l1.682,0.97l0.689-1.196c0.029-0.049,0.057-0.1,0.083-0.151
		c0.025-0.051,0.047-0.105,0.065-0.162l0.905,0.522c-0.123,0.033-0.229,0.089-0.32,0.169c-0.091,0.081-0.178,0.193-0.261,0.337
		l-0.498,0.864l2.097,1.209c0.125-0.165,0.245-0.337,0.36-0.518c0.116-0.181,0.223-0.357,0.322-0.529
		c0.232-0.39,0.391-0.744,0.474-1.062c0.083-0.317,0.09-0.641,0.02-0.969l0.927,1.101l-2.094,3.631
		c-0.017-0.188-0.072-0.35-0.166-0.484c-0.092-0.135-0.241-0.262-0.447-0.38l-4.171-2.406c-0.204-0.11-0.386-0.173-0.547-0.188
		C17.271,87.369,17.101,87.398,16.924,87.474L16.924,87.474z"/>
	<path fill="#EB2E2E" d="M19.86,82.481l1.409-2.178c0.314-0.479,0.685-0.791,1.112-0.938c0.427-0.146,0.835-0.088,1.224,0.172
		c0.26,0.176,0.439,0.404,0.538,0.684c0.097,0.28,0.105,0.591,0.022,0.932c0.32-0.373,0.703-0.595,1.147-0.667
		c0.443-0.073,0.871,0.03,1.281,0.306c0.519,0.357,0.811,0.833,0.874,1.429c0.063,0.596-0.172,1.291-0.706,2.084l-1.307,1.941
		c-0.004-0.189-0.048-0.352-0.13-0.488c-0.082-0.137-0.223-0.275-0.421-0.417l-3.995-2.69c-0.2-0.126-0.379-0.203-0.537-0.228
		C20.212,82.399,20.042,82.418,19.86,82.481L19.86,82.481z M21.261,81.704l1.623,1.093l0.303-0.433
		c0.247-0.343,0.367-0.683,0.362-1.018c-0.006-0.335-0.15-0.602-0.433-0.8c-0.254-0.171-0.513-0.208-0.775-0.111
		c-0.263,0.098-0.497,0.3-0.705,0.607c-0.045,0.079-0.102,0.179-0.173,0.301C21.394,81.465,21.326,81.585,21.261,81.704
		L21.261,81.704z M23.435,83.167l2.153,1.45c0.12-0.121,0.233-0.249,0.341-0.385c0.108-0.136,0.204-0.269,0.29-0.396
		c0.293-0.436,0.423-0.833,0.387-1.188c-0.036-0.356-0.228-0.656-0.576-0.898c-0.336-0.227-0.699-0.287-1.087-0.182
		c-0.389,0.106-0.754,0.411-1.094,0.916c-0.039,0.059-0.092,0.146-0.16,0.264C23.622,82.864,23.537,83.004,23.435,83.167
		L23.435,83.167z"/>
	<path fill="#EB2E2E" d="M24.616,75.742L25.6,74.5l5.944,1.754c0.285,0.086,0.525,0.124,0.721,0.114
		c0.196-0.01,0.385-0.057,0.567-0.143l-1.278,1.615c0.043-0.168,0.034-0.311-0.03-0.427c-0.064-0.116-0.19-0.204-0.38-0.264
		l-1.868-0.551L27.65,78.65l0.809,1.41c0.139,0.249,0.286,0.403,0.441,0.465c0.156,0.062,0.33,0.064,0.523,0.005l-1.124,1.419
		c0.024-0.217,0.007-0.43-0.052-0.64s-0.181-0.477-0.366-0.803l-2.622-4.539c-0.085-0.141-0.183-0.229-0.295-0.264
		C24.854,75.67,24.737,75.683,24.616,75.742L24.616,75.742z M25.866,75.576l1.437,2.478l1.31-1.653L25.866,75.576L25.866,75.576z"/>
	<path fill="#EB2E2E" d="M31.796,67.645l0.861,0.8c-0.311,0.071-0.62,0.187-0.928,0.348s-0.581,0.371-0.821,0.63
		c-0.464,0.498-0.705,1.081-0.723,1.749c-0.019,0.667,0.257,1.265,0.827,1.794c0.65,0.604,1.341,0.9,2.072,0.888
		c0.732-0.013,1.377-0.32,1.937-0.922c0.324-0.348,0.571-0.699,0.742-1.053c0.171-0.354,0.264-0.717,0.278-1.09l0.5,1.359
		c-0.131,0.264-0.272,0.503-0.423,0.718c-0.152,0.214-0.334,0.441-0.548,0.681c-0.813,0.875-1.684,1.336-2.612,1.386
		c-0.928,0.049-1.765-0.277-2.509-0.978c-0.721-0.67-1.109-1.485-1.166-2.445c-0.056-0.959,0.312-1.871,1.102-2.729
		c0.127-0.136,0.256-0.261,0.389-0.375c0.133-0.114,0.325-0.259,0.577-0.438c0.111-0.072,0.198-0.129,0.26-0.172
		C31.673,67.752,31.735,67.702,31.796,67.645L31.796,67.645z"/>
	<path fill="#EB2E2E" d="M35.296,65.224l3.418,3.666c0.167,0.178,0.323,0.298,0.471,0.357c0.148,0.06,0.318,0.075,0.51,0.045
		l-1.368,1.276c0.038-0.185,0.033-0.353-0.017-0.505c-0.049-0.151-0.154-0.318-0.316-0.501l-3.413-3.661l-0.844,0.774
		c-0.155,0.145-0.267,0.297-0.336,0.459c-0.069,0.16-0.109,0.334-0.12,0.52l-0.542-1.146c0.074-0.043,0.142-0.089,0.206-0.139
		c0.063-0.05,0.153-0.134,0.271-0.253l2.727-2.542c0.061-0.057,0.127-0.123,0.198-0.198c0.071-0.075,0.139-0.152,0.206-0.231
		l0.519,1.05c-0.13-0.036-0.255-0.034-0.375,0.007c-0.12,0.041-0.257,0.134-0.412,0.278L35.296,65.224L35.296,65.224z"/>
	<path fill="#EB2E2E" d="M39.625,60.311c0.829-0.661,1.721-0.956,2.675-0.886c0.955,0.07,1.759,0.515,2.412,1.335
		c0.602,0.755,0.859,1.607,0.775,2.558c-0.084,0.951-0.575,1.785-1.475,2.501c-0.834,0.664-1.726,0.961-2.676,0.892
		c-0.951-0.069-1.754-0.517-2.412-1.342c-0.597-0.749-0.856-1.599-0.776-2.551C38.229,61.867,38.721,61.03,39.625,60.311
		L39.625,60.311z M40.125,60.908c-0.604,0.489-0.943,1.073-1.018,1.752c-0.075,0.679,0.121,1.312,0.588,1.898
		c0.522,0.666,1.141,1.061,1.855,1.185c0.715,0.124,1.369-0.05,1.961-0.522c0.603-0.479,0.943-1.061,1.021-1.741
		c0.077-0.681-0.12-1.317-0.59-1.909c-0.523-0.656-1.144-1.048-1.86-1.175C41.365,60.27,40.713,60.44,40.125,60.908L40.125,60.908z"
		/>
	<path fill="#EB2E2E" d="M47.561,61.731l-2.632-4.033c-0.137-0.209-0.272-0.354-0.407-0.43c-0.134-0.077-0.298-0.121-0.49-0.134
		l5.173-3.376c-0.071,0.184-0.099,0.354-0.083,0.508c0.017,0.154,0.096,0.334,0.238,0.54l2.632,4.033
		c0.14,0.215,0.276,0.362,0.408,0.441c0.132,0.079,0.295,0.12,0.489,0.123l-1.566,1.022c0.07-0.175,0.096-0.34,0.08-0.495
		c-0.016-0.154-0.095-0.338-0.235-0.554l-2.74-4.197l-2.783,1.816l2.74,4.197c0.141,0.215,0.276,0.362,0.408,0.441
		c0.132,0.079,0.295,0.121,0.489,0.124l-1.566,1.022c0.069-0.175,0.096-0.34,0.08-0.494C47.78,62.131,47.701,61.946,47.561,61.731
		L47.561,61.731z"/>
	<path fill="#EB2E2E" d="M53.862,51.019c0.938-0.493,1.869-0.616,2.794-0.368c0.924,0.248,1.63,0.836,2.118,1.765
		c0.449,0.854,0.542,1.74,0.281,2.658c-0.262,0.918-0.901,1.645-1.918,2.179c-0.944,0.496-1.876,0.62-2.796,0.374
		c-0.921-0.247-1.625-0.837-2.116-1.771c-0.446-0.849-0.541-1.732-0.284-2.652C52.199,52.284,52.839,51.556,53.862,51.019
		L53.862,51.019z M54.242,51.699c-0.685,0.367-1.128,0.877-1.33,1.53c-0.201,0.653-0.127,1.312,0.222,1.975
		c0.388,0.751,0.921,1.256,1.599,1.512c0.679,0.256,1.354,0.208,2.025-0.145c0.682-0.358,1.125-0.864,1.329-1.519
		c0.204-0.655,0.13-1.316-0.221-1.985c-0.391-0.743-0.926-1.245-1.606-1.503C55.58,51.305,54.906,51.35,54.242,51.699L54.242,51.699
		z"/>
	<path fill="#EB2E2E" d="M63.609,47.78l1.849,4.446c0.088,0.228,0.192,0.395,0.313,0.501c0.12,0.107,0.275,0.179,0.465,0.218
		l-1.727,0.718c0.1-0.16,0.154-0.319,0.161-0.479c0.006-0.16-0.034-0.353-0.122-0.581l-1.924-4.628l-1.781,0.741l0.408,0.98
		c0.723,1.74,1.077,3.017,1.062,3.832c-0.016,0.815-0.321,1.345-0.914,1.592c-0.077,0.032-0.154,0.055-0.231,0.07
		s-0.157,0.025-0.238,0.031l-0.541-0.976c0.125,0.052,0.241,0.081,0.347,0.085c0.106,0.005,0.209-0.014,0.31-0.056
		c0.343-0.142,0.459-0.587,0.349-1.335c-0.109-0.748-0.399-1.688-0.871-2.821c-0.277-0.651-0.514-1.069-0.71-1.255
		c-0.195-0.187-0.423-0.274-0.683-0.264l4.526-1.882c-0.11,0.171-0.17,0.334-0.183,0.488C63.461,47.359,63.507,47.551,63.609,47.78
		L63.609,47.78z"/>
	<path fill="#EB2E2E" d="M65.257,46.13l1.776-0.585c-0.116,0.16-0.184,0.319-0.202,0.478c-0.02,0.158,0.009,0.35,0.083,0.576
		l0.506,1.535c0.207-0.088,0.418-0.177,0.632-0.264c0.214-0.087,0.395-0.155,0.541-0.203c0.743-0.246,1.376-0.266,1.899-0.063
		c0.522,0.203,0.886,0.613,1.088,1.229c0.211,0.641,0.158,1.222-0.16,1.743c-0.319,0.521-0.929,0.93-1.831,1.227l-2.222,0.732
		c0.112-0.152,0.177-0.307,0.197-0.465c0.018-0.158-0.007-0.354-0.077-0.588l-1.508-4.574c-0.08-0.223-0.175-0.393-0.285-0.509
		C65.585,46.28,65.44,46.191,65.257,46.13L65.257,46.13z M67.641,48.804l0.828,2.511c0.168-0.021,0.337-0.053,0.505-0.095
		c0.168-0.042,0.325-0.087,0.472-0.135c0.525-0.167,0.871-0.419,1.036-0.76c0.164-0.34,0.179-0.725,0.044-1.157
		c-0.127-0.386-0.363-0.646-0.707-0.777c-0.344-0.131-0.817-0.097-1.419,0.102c-0.11,0.036-0.231,0.083-0.364,0.14
		C67.902,48.69,67.771,48.747,67.641,48.804L67.641,48.804z"/>
	<path fill="#EB2E2E" d="M76.869,42.919l0.28,1.142c-0.298-0.111-0.62-0.185-0.966-0.218c-0.346-0.034-0.69-0.009-1.033,0.075
		c-0.661,0.163-1.182,0.518-1.563,1.065c-0.381,0.548-0.479,1.199-0.293,1.954c0.212,0.862,0.627,1.489,1.246,1.879
		c0.618,0.391,1.327,0.488,2.125,0.292c0.461-0.114,0.861-0.271,1.198-0.473c0.337-0.202,0.614-0.455,0.83-0.759l-0.328,1.41
		c-0.254,0.149-0.503,0.271-0.748,0.368c-0.244,0.096-0.521,0.186-0.832,0.269c-1.16,0.286-2.141,0.194-2.944-0.274
		c-0.803-0.468-1.323-1.2-1.562-2.194c-0.235-0.956-0.112-1.85,0.367-2.683s1.286-1.393,2.419-1.678
		c0.181-0.044,0.357-0.078,0.531-0.101c0.173-0.022,0.414-0.039,0.722-0.048c0.132,0,0.236,0,0.312-0.002
		C76.706,42.941,76.786,42.933,76.869,42.919L76.869,42.919z"/>
	<path fill="#EB2E2E" d="M78.634,42.454l1.845-0.305c-0.139,0.14-0.231,0.287-0.273,0.44c-0.043,0.154-0.045,0.348-0.006,0.582
		l0.264,1.595c0.219-0.055,0.44-0.109,0.666-0.164c0.225-0.053,0.413-0.093,0.565-0.118c0.771-0.128,1.401-0.051,1.886,0.229
		c0.485,0.281,0.781,0.742,0.887,1.381c0.11,0.666-0.032,1.231-0.427,1.697c-0.395,0.465-1.061,0.776-1.998,0.931l-2.308,0.382
		c0.134-0.132,0.223-0.275,0.266-0.43c0.043-0.153,0.047-0.351,0.014-0.592l-0.785-4.751c-0.045-0.233-0.113-0.415-0.204-0.547
		C78.935,42.653,78.805,42.543,78.634,42.454L78.634,42.454z M80.579,45.462l0.432,2.609c0.169,0.005,0.341-0.001,0.514-0.016
		c0.173-0.016,0.335-0.036,0.487-0.061c0.545-0.084,0.925-0.281,1.14-0.592c0.215-0.31,0.289-0.689,0.222-1.136
		c-0.067-0.401-0.26-0.693-0.579-0.876s-0.792-0.222-1.418-0.119c-0.114,0.019-0.241,0.046-0.381,0.083
		C80.854,45.391,80.716,45.427,80.579,45.462L80.579,45.462z"/>
	<path fill="#EB2E2E" d="M85.12,41.444l1.862-0.171c-0.149,0.129-0.251,0.27-0.305,0.42c-0.054,0.15-0.07,0.343-0.048,0.58
		l0.443,4.795c0.016,0.244,0.066,0.435,0.149,0.572c0.083,0.137,0.21,0.253,0.38,0.347l-1.863,0.172
		c0.144-0.123,0.242-0.259,0.296-0.409c0.054-0.15,0.073-0.347,0.057-0.59l-0.442-4.795c-0.028-0.236-0.083-0.422-0.163-0.56
		C85.406,41.667,85.283,41.545,85.12,41.444L85.12,41.444z M87.034,44.527l1.31-2.152c0.135-0.219,0.223-0.383,0.264-0.493
		c0.041-0.11,0.062-0.208,0.06-0.292c-0.009-0.095-0.049-0.182-0.12-0.259c-0.072-0.077-0.161-0.137-0.268-0.178l1.84-0.17
		l-2.051,3.236l1.237,1.356c0.596,0.661,1.051,1.124,1.366,1.388c0.315,0.264,0.66,0.479,1.037,0.644l-1.022,0.143
		c-0.249,0.029-0.482-0.007-0.701-0.109c-0.219-0.102-0.562-0.418-1.03-0.95L87.034,44.527L87.034,44.527z"/>
	<path fill="#EB2E2E" d="M93.107,46.348l3.372-5.146c0.062-0.097,0.118-0.171,0.166-0.224c0.047-0.052,0.103-0.104,0.167-0.156
		l1.367-0.016c-0.16,0.117-0.271,0.246-0.337,0.385c-0.065,0.139-0.098,0.333-0.096,0.583l0.055,4.816
		c0.003,0.257,0.039,0.454,0.108,0.591c0.068,0.137,0.184,0.26,0.346,0.367l-1.871,0.021c0.153-0.111,0.264-0.236,0.333-0.375
		c0.068-0.139,0.102-0.336,0.099-0.593l-0.051-4.521l-3.371,5.146c-0.07,0.104-0.128,0.182-0.176,0.234
		c-0.048,0.051-0.1,0.1-0.157,0.146l-1.368,0.016c0.153-0.111,0.264-0.236,0.333-0.375c0.069-0.139,0.102-0.337,0.099-0.594
		l-0.054-4.815c-0.002-0.251-0.04-0.444-0.112-0.582c-0.072-0.138-0.186-0.263-0.341-0.377l1.871-0.021
		c-0.16,0.117-0.272,0.246-0.338,0.384c-0.066,0.139-0.097,0.333-0.095,0.583L93.107,46.348L93.107,46.348z"/>
	<path fill="#EB2E2E" d="M101.006,46.451l3.829-4.817c0.07-0.09,0.133-0.16,0.186-0.207c0.053-0.048,0.111-0.094,0.181-0.141
		l1.362,0.11c-0.168,0.103-0.293,0.22-0.371,0.352c-0.077,0.132-0.127,0.323-0.146,0.572l-0.387,4.8
		c-0.021,0.256-0.002,0.455,0.053,0.599c0.057,0.143,0.16,0.275,0.312,0.397l-1.864-0.15c0.161-0.097,0.284-0.211,0.366-0.343
		c0.08-0.131,0.132-0.325,0.152-0.581l0.361-4.506l-3.827,4.816c-0.078,0.097-0.144,0.169-0.196,0.216
		c-0.052,0.047-0.107,0.091-0.17,0.131l-1.361-0.109c0.16-0.096,0.283-0.21,0.363-0.342c0.084-0.132,0.133-0.326,0.154-0.582
		l0.387-4.8c0.021-0.25,0-0.446-0.061-0.59c-0.059-0.143-0.16-0.278-0.305-0.406l1.863,0.15c-0.17,0.102-0.293,0.219-0.371,0.352
		c-0.078,0.132-0.127,0.322-0.146,0.572L101.006,46.451L101.006,46.451z M102.001,39.205l0.844,0.068
		c-0.15,0.187-0.158,0.367-0.023,0.539c0.135,0.171,0.32,0.267,0.556,0.286c0.229,0.019,0.427-0.046,0.586-0.194
		s0.185-0.326,0.072-0.535l0.843,0.068c-0.018,0.385-0.175,0.699-0.472,0.943c-0.296,0.243-0.654,0.345-1.076,0.305
		c-0.429-0.035-0.771-0.194-1.022-0.479C102.054,39.921,101.95,39.587,102.001,39.205L102.001,39.205z"/>
	<path fill="#EB2E2E" d="M112.722,45.581l-1.166-2.721c-0.096-0.215-0.188-0.387-0.285-0.514c-0.097-0.127-0.203-0.236-0.322-0.325
		l0.809,0.133c0.387,0.065,0.604,0.123,0.657,0.172c0.052,0.05,0.144,0.222,0.272,0.517l0.907,2.118l1.39-1.242
		c0.072-0.07,0.137-0.141,0.189-0.212c0.055-0.071,0.087-0.139,0.1-0.201c0.019-0.088,0-0.173-0.051-0.256
		c-0.053-0.083-0.131-0.155-0.236-0.215l1.812,0.365l-2.907,2.469l1.379,3.216c0.098,0.235,0.207,0.438,0.33,0.607
		c0.125,0.169,0.267,0.312,0.426,0.43l-1.566-0.316c-0.062-0.084-0.114-0.167-0.156-0.248c-0.043-0.08-0.099-0.212-0.166-0.397
		l-1.074-2.654l-1.83,1.616c-0.119,0.107-0.207,0.198-0.262,0.271c-0.054,0.075-0.088,0.14-0.099,0.196
		c-0.021,0.107-0.006,0.21,0.046,0.31c0.052,0.099,0.135,0.179,0.247,0.241l-1.993-0.402c0.145-0.095,0.28-0.192,0.407-0.291
		c0.128-0.099,0.274-0.219,0.44-0.363L112.722,45.581L112.722,45.581z"/>
	<path fill="#EB2E2E" d="M122.629,45.821l-1.319,4.631c-0.074,0.233-0.096,0.429-0.067,0.587s0.104,0.312,0.229,0.461l-1.799-0.513
		c0.178-0.062,0.318-0.154,0.424-0.274c0.104-0.121,0.193-0.298,0.266-0.531l1.373-4.82l-1.854-0.529l-0.291,1.021
		c-0.516,1.812-1.033,3.032-1.553,3.66c-0.521,0.628-1.089,0.854-1.706,0.678c-0.081-0.023-0.156-0.053-0.226-0.089
		c-0.07-0.037-0.139-0.078-0.205-0.124l0.184-1.101c0.066,0.12,0.139,0.213,0.219,0.283c0.08,0.069,0.172,0.119,0.277,0.149
		c0.357,0.102,0.725-0.174,1.104-0.828s0.737-1.571,1.073-2.751c0.188-0.682,0.263-1.156,0.226-1.424s-0.16-0.479-0.369-0.632
		l4.714,1.344c-0.19,0.065-0.341,0.154-0.446,0.268C122.774,45.4,122.69,45.579,122.629,45.821L122.629,45.821z"/>
	<path fill="#EB2E2E" d="M124.933,45.582l1.767,0.617c-0.19,0.056-0.341,0.142-0.452,0.255c-0.111,0.114-0.205,0.284-0.284,0.508
		l-1.59,4.546c-0.086,0.228-0.12,0.422-0.103,0.581c0.02,0.16,0.086,0.318,0.203,0.474l-1.767-0.617
		c0.183-0.052,0.328-0.135,0.438-0.249c0.111-0.114,0.211-0.286,0.297-0.514l1.591-4.545c0.071-0.226,0.1-0.419,0.084-0.577
		C125.103,45.9,125.04,45.741,124.933,45.582L124.933,45.582z"/>
	<path fill="#EB2E2E" d="M128.276,46.757l3.799,1.573c0.053,0.022,0.105,0.043,0.16,0.062c0.056,0.02,0.111,0.034,0.17,0.044
		l-0.434,1.046c-0.057-0.148-0.145-0.276-0.262-0.385c-0.119-0.108-0.3-0.212-0.542-0.313l-1.867-0.773l-0.728,1.755
		c0.275,0.093,0.515,0.175,0.721,0.247c0.207,0.072,0.363,0.129,0.471,0.174c0.723,0.299,1.217,0.694,1.483,1.183
		c0.267,0.49,0.278,1.025,0.038,1.606c-0.254,0.611-0.67,1.006-1.247,1.184c-0.577,0.178-1.306,0.085-2.183-0.278l-2.162-0.896
		c0.185-0.042,0.336-0.117,0.453-0.224c0.117-0.108,0.227-0.273,0.324-0.497l1.844-4.449c0.086-0.222,0.123-0.413,0.117-0.572
		C128.427,47.086,128.375,46.923,128.276,46.757L128.276,46.757z M128.31,50.406l-0.988,2.39c0.142,0.093,0.289,0.178,0.439,0.255
		c0.152,0.077,0.303,0.146,0.451,0.207c0.461,0.191,0.872,0.229,1.232,0.114c0.359-0.115,0.636-0.395,0.826-0.838
		c0.145-0.365,0.127-0.706-0.051-1.023c-0.178-0.317-0.556-0.596-1.137-0.837c-0.083-0.034-0.188-0.072-0.312-0.113
		C128.646,50.519,128.493,50.467,128.31,50.406L128.31,50.406z"/>
	<path fill="#EB2E2E" d="M137.685,50.86c0.94,0.489,1.572,1.185,1.896,2.085c0.324,0.901,0.244,1.816-0.24,2.747
		c-0.445,0.856-1.119,1.438-2.021,1.748c-0.903,0.309-1.865,0.198-2.885-0.333c-0.945-0.492-1.58-1.187-1.901-2.083
		c-0.323-0.896-0.24-1.813,0.247-2.749c0.441-0.85,1.113-1.432,2.016-1.746C135.699,50.215,136.659,50.327,137.685,50.86
		L137.685,50.86z M137.342,51.56c-0.692-0.353-1.364-0.426-2.015-0.219c-0.65,0.208-1.148,0.644-1.495,1.308
		c-0.396,0.747-0.506,1.473-0.33,2.177c0.177,0.703,0.603,1.23,1.272,1.581c0.685,0.355,1.354,0.43,2.006,0.225
		c0.654-0.206,1.156-0.644,1.505-1.314c0.389-0.745,0.493-1.471,0.319-2.177C138.431,52.434,138.008,51.907,137.342,51.56
		L137.342,51.56z"/>
	<path fill="#EB2E2E" d="M142.331,53.594l1.578,1.004c-0.197,0.012-0.363,0.06-0.497,0.146c-0.136,0.086-0.267,0.229-0.394,0.429
		l-2.584,4.063c-0.138,0.203-0.213,0.384-0.231,0.544c-0.019,0.159,0.012,0.328,0.089,0.507l-1.579-1.004
		c0.188-0.009,0.351-0.057,0.483-0.143c0.136-0.085,0.271-0.229,0.406-0.432l2.586-4.064c0.121-0.204,0.191-0.384,0.213-0.543
		C142.423,53.944,142.399,53.774,142.331,53.594L142.331,53.594z M141.959,57.204l2.354-0.901c0.238-0.09,0.41-0.167,0.51-0.229
		c0.1-0.062,0.175-0.126,0.226-0.193c0.052-0.081,0.072-0.174,0.063-0.279c-0.01-0.105-0.045-0.207-0.104-0.306l1.561,0.992
		l-3.603,1.304l0.148,1.83c0.067,0.887,0.144,1.532,0.231,1.934c0.086,0.402,0.229,0.783,0.424,1.144l-0.896-0.513
		c-0.215-0.129-0.378-0.301-0.487-0.516c-0.111-0.215-0.188-0.675-0.234-1.381L141.959,57.204L141.959,57.204z"/>
	<path fill="#EB2E2E" d="M150.815,59.21c0.841,0.644,1.344,1.437,1.508,2.38c0.164,0.943-0.072,1.831-0.709,2.664
		c-0.586,0.766-1.352,1.224-2.295,1.374c-0.941,0.149-1.869-0.126-2.782-0.824c-0.849-0.648-1.353-1.44-1.517-2.379
		c-0.162-0.938,0.076-1.827,0.717-2.665c0.582-0.76,1.344-1.218,2.287-1.372C148.967,58.234,149.896,58.508,150.815,59.21
		L150.815,59.21z M150.356,59.841c-0.621-0.467-1.271-0.654-1.947-0.562c-0.676,0.092-1.242,0.437-1.698,1.031
		c-0.519,0.668-0.752,1.364-0.698,2.087c0.053,0.723,0.381,1.315,0.982,1.776c0.611,0.468,1.258,0.658,1.938,0.567
		c0.68-0.09,1.25-0.435,1.709-1.036c0.51-0.667,0.737-1.364,0.688-2.089C151.276,60.889,150.954,60.298,150.356,59.841
		L150.356,59.841z"/>
	<path fill="#EB2E2E" d="M155.308,62.983l1.241,1.176l-2.045,4.995l4.313-1.917c0.091-0.039,0.188-0.088,0.297-0.15
		c0.107-0.062,0.212-0.128,0.314-0.199l1.199,1.136c-0.169-0.036-0.326-0.01-0.471,0.078c-0.146,0.088-0.286,0.227-0.422,0.417
		l-2.92,4c-0.141,0.186-0.226,0.351-0.254,0.494c-0.03,0.145-0.027,0.296,0.01,0.455l-1.356-1.285
		c0.175,0.031,0.335,0.015,0.485-0.051c0.15-0.066,0.35-0.26,0.594-0.585l2.743-3.638l-5.733,2.595l-0.035-0.353
		c-0.019-0.131-0.013-0.271,0.019-0.419c0.028-0.148,0.085-0.321,0.166-0.519l1.909-4.758l-3.621,2.885
		c-0.299,0.23-0.473,0.424-0.522,0.58c-0.051,0.156-0.042,0.323,0.027,0.503l-1.216-1.152c0.197,0.003,0.39-0.033,0.57-0.108
		c0.183-0.075,0.367-0.186,0.56-0.332l3.682-2.908c0.271-0.221,0.427-0.392,0.466-0.513
		C155.349,63.288,155.347,63.146,155.308,62.983L155.308,62.983z"/>
	<path fill="#EB2E2E" d="M162.037,69.572l2.714,3.088c0.037,0.043,0.077,0.085,0.118,0.127c0.04,0.041,0.084,0.079,0.132,0.114
		l-0.85,0.747c0.014-0.158-0.008-0.312-0.066-0.461s-0.175-0.323-0.348-0.521l-1.334-1.517l-1.428,1.254
		c0.205,0.204,0.385,0.384,0.537,0.539c0.154,0.155,0.271,0.276,0.346,0.363c0.518,0.587,0.787,1.16,0.81,1.716
		c0.022,0.557-0.202,1.042-0.676,1.458c-0.496,0.437-1.043,0.607-1.64,0.512c-0.599-0.095-1.209-0.5-1.836-1.213l-1.545-1.758
		c0.185,0.044,0.353,0.043,0.506-0.001c0.152-0.044,0.322-0.145,0.51-0.301l3.617-3.178c0.174-0.162,0.293-0.315,0.357-0.461
		S162.052,69.764,162.037,69.572L162.037,69.572z M160.457,72.86l-1.942,1.707c0.086,0.146,0.18,0.288,0.281,0.424
		c0.104,0.136,0.207,0.264,0.312,0.385c0.33,0.375,0.683,0.59,1.057,0.646s0.745-0.073,1.111-0.387
		c0.291-0.264,0.426-0.577,0.406-0.94c-0.02-0.363-0.236-0.78-0.649-1.252c-0.062-0.067-0.136-0.147-0.229-0.239
		C160.709,73.11,160.594,72.996,160.457,72.86L160.457,72.86z"/>
	<path fill="#EB2E2E" d="M166.25,74.496l1.153,1.471c-0.188-0.055-0.361-0.064-0.518-0.028c-0.154,0.036-0.326,0.128-0.513,0.274
		l-3.789,2.973c-0.194,0.146-0.329,0.291-0.399,0.436c-0.069,0.144-0.098,0.313-0.084,0.507l-1.154-1.471
		c0.181,0.054,0.349,0.063,0.505,0.027c0.153-0.036,0.33-0.127,0.526-0.272l3.787-2.973c0.185-0.151,0.312-0.299,0.383-0.44
		C166.222,74.855,166.254,74.688,166.25,74.496L166.25,74.496z"/>
	<path fill="#EB2E2E" d="M167.042,79.931l2.092,3.059l1.403-0.959c0.207-0.142,0.349-0.281,0.423-0.417
		c0.074-0.136,0.116-0.301,0.125-0.494l1.057,1.544c-0.188-0.067-0.354-0.09-0.508-0.067c-0.152,0.022-0.332,0.104-0.537,0.246
		l-3.977,2.718c-0.212,0.145-0.355,0.283-0.432,0.417c-0.076,0.133-0.114,0.297-0.114,0.491l-1.056-1.543
		c0.178,0.065,0.344,0.088,0.496,0.069c0.153-0.02,0.336-0.102,0.549-0.247l1.938-1.325l-2.091-3.059l-1.938,1.325
		c-0.211,0.145-0.354,0.284-0.431,0.417c-0.076,0.133-0.114,0.297-0.112,0.491l-1.057-1.543c0.177,0.065,0.343,0.088,0.497,0.069
		c0.151-0.02,0.337-0.102,0.549-0.247l3.976-2.718c0.207-0.141,0.347-0.28,0.42-0.416c0.074-0.136,0.117-0.301,0.125-0.493
		l1.056,1.544c-0.187-0.067-0.354-0.089-0.509-0.067c-0.151,0.023-0.332,0.105-0.539,0.247L167.042,79.931L167.042,79.931z"/>
	<path fill="#EB2E2E" d="M173.865,85.624l0.774,1.381l-3.877,4.835c-0.188,0.231-0.312,0.438-0.38,0.624
		c-0.065,0.185-0.093,0.378-0.083,0.579l-1.009-1.796c0.14,0.104,0.274,0.15,0.405,0.134c0.132-0.015,0.262-0.099,0.389-0.251
		l1.221-1.52l-1.283-2.282l-1.611,0.213c-0.282,0.034-0.48,0.111-0.6,0.231c-0.115,0.12-0.183,0.281-0.201,0.482l-0.887-1.578
		c0.19,0.105,0.396,0.17,0.61,0.194c0.217,0.025,0.511,0.014,0.883-0.033l5.193-0.705c0.161-0.025,0.28-0.083,0.354-0.173
		C173.841,85.871,173.875,85.758,173.865,85.624L173.865,85.624z M173.546,86.844l-2.839,0.39l1.033,1.839L173.546,86.844
		L173.546,86.844z"/>
	<path fill="#EB2E2E" d="M176.673,92.658l-4.527,2.152c-0.221,0.105-0.381,0.219-0.481,0.342c-0.103,0.123-0.168,0.28-0.198,0.472
		l-0.802-1.689c0.164,0.092,0.326,0.138,0.485,0.137c0.158-0.001,0.351-0.051,0.572-0.15l4.521-2.148l-0.483-1.039
		c-0.091-0.191-0.203-0.345-0.336-0.459c-0.132-0.114-0.285-0.205-0.459-0.272l1.258-0.171c0.019,0.084,0.041,0.163,0.069,0.238
		c0.028,0.075,0.082,0.187,0.159,0.335l1.602,3.367c0.035,0.075,0.078,0.158,0.129,0.248c0.049,0.09,0.103,0.179,0.157,0.266
		l-1.157,0.178c0.073-0.113,0.108-0.233,0.105-0.359c-0.003-0.127-0.051-0.285-0.143-0.477L176.673,92.658L176.673,92.658z"/>
</g>
</svg>
