<?xml version="1.0" encoding="utf-8"?>
<!-- Generator: Adobe Illustrator 16.0.0, SVG Export Plug-In . SVG Version: 6.00 Build 0)  -->
<!DOCTYPE svg PUBLIC "-//W3C//DTD SVG 1.1//EN" "http://www.w3.org/Graphics/SVG/1.1/DTD/svg11.dtd">
<svg version="1.1" id="Layer_1" xmlns="http://www.w3.org/2000/svg" xmlns:xlink="http://www.w3.org/1999/xlink" x="0px" y="0px"
	 width="114.917px" height="154.75px" viewBox="22.39 6.853 114.917 154.75" enable-background="new 22.39 6.853 114.917 154.75"
	 xml:space="preserve">
<g>
	<path fill="#F58345" d="M42.87,9.342l1.444,4.98c3.643,5.12,5.973,9.546,6.925,13.263c-3.282-0.554-6.498,0-9.714,1.621
		c2.23,3.36,3.609,6.384,4.135,9.092c0.263,1.462-0.197,2.569-1.346,3.36c8.959,1.265,13.586,6.78,13.849,16.543l-4.135,0.81h5.579
		l-2.79,2.49c7.252,7.116,6.3,12.907-2.79,17.374C33.911,92.967,30.17,99.056,42.87,97.118c-2.001-7.176,4.037-13.52,18.082-19.054
		c-1.214,31.091,2.954,40.203,12.503,27.335c0.427,8.144,4.168,11.442,11.125,9.901c0.918-0.969,1.838-1.502,2.789-1.62l1.346-2.49
		v-2.49l2.789-5.791v-2.49l1.443-2.491c-0.229-5.139,0.658-9.546,2.691-13.262l1.442-2.49l4.137-2.431l1.443-2.49
		c5.086-4.467,8.762-8.618,11.06-12.452l2.788-1.68c3.644-7.373,7.812-13.164,12.505-17.354l-4.136,1.66l-4.233,6.602l-1.347,1.68
		l-2.789,2.491l-2.788,2.49l-1.347,1.621l-1.442,1.68c-3.117,4.032-6.367,7.333-9.714,9.903v-2.491
		c2.625-2.569,4.035-5.04,4.232-7.412l1.346-2.49l2.789-1.68l2.789-5.791c2.625-4.111,5.383-7.412,8.271-9.882
		c3.282-6.582,7.91-11.82,13.946-15.753c-1.541-0.929-2.461-2.036-2.788-3.301l-4.136,2.491
		c-6.334,11.503-15.621,20.595-27.795,27.255c-5.315,6.187-11.322,10.891-18.049,14.132c1.148,3.993-0.23,7.293-4.136,9.902
		c0.229-8.4,4.396-15.298,12.47-20.674c-1.477-0.771-2.855-1.048-4.199-0.87c2.56-11.76,10.437-20.595,23.627-26.445l-4.135-4.98
		l-8.369-1.68l-1.442,4.17l-1.347,2.49l-2.789,1.621l-1.346,3.36l-2.789,1.621c-8.957,10.79-14.996,19.645-18.048,26.503
		l-1.444-2.49c-2.33-3.043-3.216-5.811-2.69-8.281c-2.396-3.38-3.808-6.424-4.233-9.072c-4.89-4.981-8.105-9.409-9.713-13.263
		l4.135-3.3c-4.759-5.989-7.056-11.503-6.925-16.563l-5.579-4.17V9.342L42.87,9.342z M106.797,42.468
		c-2.69,2.569-1.737,2.846,2.789,0.81L106.797,42.468L106.797,42.468z M99.873,47.429c-11.092,9.823-10.141,9.823,2.789,0H99.873
		h2.789H99.873L99.873,47.429z M105.451,55.71c0.656,1.403,0.656,2.491,0,3.301c-2.035,3.143-3.445,5.89-4.232,8.282l-2.79,2.49
		l-1.347,2.49c-2.1,5.712-4.889,10.416-8.367,14.073c0.263,5.139-1.573,9.269-5.545,12.391l-4.136-9.092
		c0.952-0.929,1.87-1.462,2.79-1.62c-0.656-2.768-0.656-5.258,0-7.472l2.756-2.49c0.918-0.929,1.838-1.482,2.789-1.68v-2.49
		l2.789-2.491c0.92-0.89,1.838-1.423,2.789-1.621l1.346-1.68l1.347-2.49L105.451,55.71L105.451,55.71z"/>
	<path fill="#A57253" stroke="#A25641" stroke-width="0.6554" stroke-miterlimit="2.6131" d="M31.65,158.274l0.033,0.113
		l-0.045,0.461l-0.057,0.213l-0.045,0.09l-0.034,0.022l-0.021,0.022l-0.011,0.021v0.034l-0.136,0.259l-0.021,0.012l-0.034,0.066
		l-0.203,0.214l-0.101,0.056l-0.079,0.091l-0.045,0.057l-0.057,0.045l-0.079,0.046l-0.146,0.057l-0.012,0.021l-0.191,0.09
		l-0.011,0.012l-0.034,0.057l-0.122,0.066l-0.203,0.067l-0.079,0.033l-0.09,0.034l-0.056,0.033l-0.191,0.067h-0.124h-0.021
		l-0.067,0.029l-0.719,0.04l-0.057,0.009l-0.225-0.032l-0.056,0.032l-0.058-0.041l-0.303-0.026l-0.021-0.025l-0.079-0.028
		l-0.023-0.013h-0.157l-0.259-0.09h-0.045l-0.135-0.09l-0.079-0.012l-0.023-0.033l-0.011-0.022l-0.18-0.09l-0.103-0.091l-0.066-0.09
		l0.011-0.057l0.011-0.021l0.181-0.157l0.011-0.034l0.045-0.021l0.044-0.033l0.079,0.045l-0.023,0.066v0.022l0.012,0.067
		l0.124,0.135l0.325,0.156l0.045,0.013l0.112,0.045h0.034l0.236,0.056l0.033,0.022h0.067l0.607,0.079h0.135l0.09,0.011l0.067-0.021
		l0.124,0.01l0.359-0.045l0.057,0.012l0.033-0.012l0.045-0.012l0.338-0.09l0.506-0.234l0.146-0.146l0.045,0.021l0.079-0.146
		l0.067-0.056l0.056-0.057l0.045-0.067l0.022-0.022l0.056-0.101l0.045-0.113l0.011-0.146l0.057-0.034l0.045-0.562l-0.068-0.313
		l-0.09-0.157l-0.011-0.013l-0.011-0.033l-0.057-0.09l-0.045-0.067l-0.011-0.022l0.011-0.033l-0.18-0.111l-0.112-0.158l-0.102-0.056
		l-0.057-0.013l-0.011-0.032l-0.021-0.022l-0.022-0.012h-0.034l-0.101-0.056l-0.067-0.022l-0.045-0.033l-0.011-0.012l-0.022-0.033
		l-0.371-0.123l-0.021-0.022l-0.191-0.045l-0.416,0.011l-0.135-0.079l-0.021-0.09l0.124-0.213l0.021-0.013l0.011-0.09l0.045-0.021
		l0.057-0.168l0.066-0.068l0.012-0.101l0.033-0.034l0.012-0.033l0.033-0.045l0.057-0.102l0.022-0.034l0.091-0.112l0.078-0.078
		l0.022-0.011l0.168-0.304l0.034-0.124l-0.303-0.136l-0.315-0.111l-0.022-0.021l-0.033-0.022l-0.034,0.011l-0.315-0.157
		l-0.101-0.011l-0.034-0.021l-0.045-0.022v-0.022l-0.101-0.045l-0.281-0.146l-0.146-0.057l-0.011,0.021l-0.09-0.012l-0.057,0.046
		l0.046,0.146v0.17l0.011,0.033l0.011,0.012l0.067,0.551l0.021,0.045l0.022,0.313l0.056,0.091l0.011,0.146l0.034,0.057l0.057,0.033
		l-0.022,0.103l0.045,0.18l-0.011,0.27l0.079,0.09h0.056v0.022l0.045,0.113l-0.021,0.155l0.011,0.023l-0.023,0.225l0.013,0.057
		l-0.057,0.494l-0.045,0.854l-0.031,0.12l0.034,0.021l-0.021,0.08l-0.023,0.146l0.011,0.067l-0.021,0.213l0.021,0.067v0.136
		l-0.27,0.258l-0.056,0.012l-0.124-0.012l-0.079-0.066l0.09-0.472l0.034-0.315v-0.066l0.034-0.067l0.011-0.045v-0.022v-0.033v-0.832
		v-0.045v-0.438l-0.038-0.124l-0.064-0.596l0.023-0.056l0.011-0.035l-0.021-0.032l-0.034-0.013l0.011-0.135l-0.021-0.033
		l-0.012-0.012l-0.012-0.201l0.012-0.058v-0.022l-0.021-0.033l0.011-0.045l-0.011-0.012l-0.011-0.056l-0.103-0.338l-0.056-0.394
		l-0.022-0.067l-0.09-0.394v-0.102l-0.045-0.135l-0.034-0.09l-0.011-0.013l-0.022-0.056l-0.011-0.021v-0.067l-0.112-0.236
		l-0.021-0.056l-0.022-0.034L27.2,154.14l-0.236-0.461l0.045-0.066l0.058-0.022l0.021-0.101l0.057-0.047l0.034-0.066l0.056-0.033
		l0.168,0.078l0.292,0.191v0.011l0.021,0.022l0.417,0.258l0.247,0.125l0.54,0.291l0.102,0.068l0.056,0.033l0.618,0.314l0.348,0.146
		l0.248,0.068l0.124,0.067l0.045,0.032l0.067,0.112l0.011,0.033v0.033l-0.021,0.034l-0.191,0.236l-0.067,0.135h-0.011l-0.021,0.033
		l-0.034,0.034l-0.18,0.225l-0.034,0.09l-0.292,0.428l-0.034,0.158l0.034,0.045l0.101,0.021l0.213,0.021l0.226,0.067l0.18,0.091
		l0.056,0.032l0.058,0.022l0.066,0.033l0.236,0.125l0.021,0.032l0.034,0.013l0.079,0.056l0.067,0.022l0.045,0.033l0.146,0.123
		l0.012,0.021l0.033,0.035l0.067,0.09l0.056,0.033l0.012,0.012l0.066,0.123l0.045,0.078l0.012,0.035l0.079,0.123l0.045,0.201
		L31.65,158.274L31.65,158.274z M28.637,155.915l0.011,0.102l-0.045,0.135l-0.067,0.091v0.034l-0.057,0.033l0.012-0.078l0.034-0.022
		l-0.022-0.103l0.012-0.146l0.045-0.089l-0.022-0.068l0.022-0.056l-0.022-0.022l-0.034-0.123l-0.112-0.203l0.022-0.045l0.124-0.033
		l0.045,0.068l0.022,0.043l0.045,0.305l-0.011,0.136l-0.022,0.044h0.021V155.915z M28.547,156.397v0.146l-0.09,0.428l-0.034-0.123
		l0.068-0.507h0.022l-0.012,0.045L28.547,156.397L28.547,156.397z M28.333,156.051h0.034l-0.011,0.325l-0.034-0.021l-0.011-0.022
		l0.021-0.09l-0.029,0.022h-0.016l-0.045-0.136l0.011-0.078h0.023l0.011-0.057H28.3l-0.021-0.022l-0.023-0.045l0.012-0.102v-0.012
		l-0.022-0.045l-0.021-0.021l-0.023-0.135l0.011-0.012v-0.067l0.057,0.011l0.012-0.011l0.021,0.022l-0.011,0.012l0.045,0.111v0.123
		l0.034,0.157L28.333,156.051L28.333,156.051z M27.94,155.421v-0.09l-0.049-0.135l-0.073-0.09l-0.013-0.058v-0.056l0.011-0.182
		l-0.011-0.056l-0.034-0.124v-0.101l-0.023-0.046l-0.044-0.033l-0.057-0.021l-0.034-0.012l-0.033,0.021l-0.012,0.057v0.045v0.066
		v0.013l0,0l0.021,0.022h0.012l0.011,0.045v0.057l0.011,0.056l0.045,0.247l0.057,0.102v0.304l0.07,0.079l0.036,0.011l0.061-0.021
		L27.94,155.421L27.94,155.421z M40.004,160.231v0.057l-0.056,0.033l-0.056,0.045l-0.271,0.191l-0.225,0.09l-0.045,0.012
		l-0.012-0.034H39.24l-0.146-0.124l-0.181-0.27l-0.09-0.102l-0.056-0.169l-0.136-0.235l-0.033-0.045l-0.012-0.057l-0.057-0.045
		l-0.011-0.045l-0.034-0.092l-0.011-0.123l-0.091-0.18l-0.011-0.168l-0.034-0.046l-0.033-0.102l-0.012-0.101l-0.066-0.091h-0.057
		l-0.033,0.045v0.033h-0.022v0.022l-0.022,0.057l-0.235,0.369l-0.226,0.234l-0.033,0.078l-0.26,0.223l-0.09,0.123l-0.124,0.065
		l-0.066,0.091l-0.202,0.111l-0.102,0.034l-0.057,0.045l-0.112,0.043l-0.033,0.045l-0.067,0.013l-0.191,0.146l-0.124,0.022
		l-0.168,0.1l-0.371,0.124H35.52l-0.067,0.056l-0.113-0.033l-0.247-0.146l-0.078-0.079H34.97l-0.057,0.034l-0.079,0.067
		l-0.079-0.013l-0.045,0.022l-0.146-0.057l-0.236-0.124l-0.079-0.168l0.022-0.325l0.034-0.045v-0.035l0.168-0.234l0.033-0.034
		l0.057-0.078l0.09-0.181l0.359-0.314l0.033-0.021l0.013-0.022l0.079-0.045l0.056-0.078l0.112-0.079l0.124-0.123l0.19-0.112
		l0.045-0.033l0.022-0.013l0.011-0.032l0.034-0.013l0.079-0.066l0.021-0.012l0.012-0.045l0.045-0.066l0.146-0.079h0.045l0.169-0.103
		l0.124-0.032l0.079-0.058l0.067-0.021v-0.021l0.214-0.08l0.011-0.011l0.067-0.032l0.124-0.058l0.248-0.067l0.079-0.033l0.358,0.012
		l0.191,0.111l0.101,0.078l0.045,0.08h0.034l-0.079-0.136l-0.022-0.202l-0.078-0.123l-0.09-0.26l-0.079-0.135l-0.168-0.146
		l-0.236-0.021l-0.09,0.056l-0.394,0.45l-0.157,0.135l-0.057,0.045l-0.045,0.012l-0.034-0.012l-0.033-0.033V157.5l0.102-0.078
		v-0.022l0.011-0.033l0.034-0.045l0.112-0.135l0.146-0.123l0.146-0.182l0.482-0.449l0.112-0.012l0.191-0.123h0.033l0.034,0.012
		l0.034,0.021l0.124,0.012l0.202,0.213l0.09,0.146l0.124,0.304l0.045,0.058l0.135,0.369v0.045l0.022,0.067l0.021,0.181l0.046,0.102
		v0.045l0.021,0.09l0.011,0.079l0.022,0.078l0.09,0.293l0.045,0.078l0.011,0.146l0.091,0.157l0.012,0.202l0.056,0.102l0.067,0.28
		l0.19,0.405l0.067,0.078l0.021,0.045l0.067,0.078l0.012,0.103l0.259,0.19l0.146-0.022l0.045-0.022H40.004L40.004,160.231z
		 M37.847,157.983v-0.057l-0.103-0.078l-0.079-0.067l-0.079-0.022l-0.248-0.021l-0.27,0.066l-0.079,0.034l-0.112,0.045l-0.045,0.033
		l-0.034,0.012l-0.416,0.19l-0.045,0.033l-0.021,0.033l-0.067,0.023l-0.056,0.021l-0.023,0.033l-0.078,0.057l-0.012,0.022
		l-0.021,0.011l-0.012,0.022l-0.056,0.045l-0.213,0.247l-0.022,0.057l-0.021,0.079l-0.056,0.046l-0.012,0.045l-0.079,0.168
		l-0.033,0.021l-0.023,0.057l-0.056,0.09l0.011,0.136l-0.067,0.112l-0.021,0.156l0.021,0.225l0.067,0.146l0.068,0.033l0.056,0.113
		l0.135,0.09l0.157,0.021l0.213-0.021l0.281-0.102l0.045-0.046l0.09-0.011l0.225-0.124l0.226-0.214l0.034-0.012l0.021-0.021
		l0.371-0.473l0.056-0.045l0.034-0.057l0.09-0.123l0.091-0.226l0.045-0.079l0.032-0.057v-0.021l0.022-0.045l0.056-0.156v-0.058
		l0.013-0.033l0.021-0.034v-0.259L37.847,157.983L37.847,157.983z M35.272,159.007l-0.112,0.067l-0.135,0.146l-0.09,0.057
		l-0.034,0.046l-0.023,0.056l-0.045,0.091l-0.034,0.033v0.103l-0.011,0.033l-0.021,0.045l-0.057,0.057l-0.021,0.111l0.021,0.057
		l0.034,0.102l0.067,0.067L34.8,160.04h0.091l0.045-0.012l0.044-0.055l0.012-0.058v-0.045l0.078-0.236l0.022-0.077l0.046-0.058
		v-0.011l0.021-0.034l0.011-0.045l0.034-0.103l0.169-0.234l0.044-0.09l-0.021-0.022l-0.034-0.022l-0.056,0.022l-0.034,0.033
		L35.272,159.007L35.272,159.007z M45.93,156.579l0.056,0.123v0.057l-0.112,0.078l-0.056,0.057l-0.079,0.012l-0.067,0.045
		l-0.022,0.012l-0.079-0.021l-0.101-0.215l-0.102-0.123l-0.021-0.033l-0.046-0.022l-0.021-0.032h-0.045L45.21,156.5l-0.079,0.012
		l-0.101,0.033l-0.045,0.034l-0.405,0.189l-0.09,0.034l-0.022,0.022l-0.112,0.078l-0.112,0.236l-0.079,0.325l-0.045,0.112
		l-0.033,0.079l-0.021,0.077v0.136l-0.09,0.271l-0.022,0.202l-0.045,0.19l-0.011,0.021l-0.022,0.022v0.102l-0.034,0.067v0.021
		l0.012,0.034v0.168l-0.012,0.022l0.012,0.078l-0.034,0.123l-0.044,0.461l0.033,0.068l-0.033,0.111l0.021,0.527l0.022,0.022
		l-0.011,0.091l-0.077,0.066l-0.153,0.068l-0.188,0.011l-0.046,0.034l-0.031-0.045l-0.013-0.034v-0.181v-0.156v-0.35l0,0v-0.045
		v-0.033v-0.045v-0.314v-0.112v-0.124v-0.111v-0.022v-0.011v-0.045l0.034-0.034l-0.011-0.022h-0.023l0.034-0.011l-0.021-0.112
		l-0.013-0.078v-0.191v-0.034v-0.033v-0.123v-0.124v-0.101h-0.021l-0.058-0.046l-0.022-0.012l-0.045,0.012l-0.081,0.078
		l-0.092,0.058l-0.034,0.09l-0.034,0.011l-0.217,0.371l-0.092,0.215l-0.058,0.313l0.034,0.169l-0.022,0.012l0.011,0.021
		l-0.022,0.021l-0.066-0.078l-0.034-0.033l-0.034-0.057l0.011-0.045l-0.011-0.022v-0.033l0.011-0.034l0.034-0.078l-0.011-0.066
		l0.011-0.022v-0.034l0.022-0.066l0.056-0.124l0.034-0.146l0.012-0.067l0.022-0.012l0.234-0.393l0.023-0.113l0.021-0.011
		l0.045-0.045l0.012-0.022l0.011-0.012l0.011-0.057l0.022-0.057l0.045-0.033l0.056-0.078l0.057-0.033l0.011-0.012l0.056-0.09
		l-0.011-0.125l-0.034-0.101v-0.124l0.271-0.202h0.044l0.022,0.013l0.011,0.032l0.124,0.058l0.067-0.012l0.225-0.203l0.046-0.066
		l0.101-0.079l0.034-0.022l0.011-0.021l0.023-0.057l0.078-0.09v-0.09l0.046-0.033H44.3l0.157-0.08l0.09,0.013l0.113-0.045
		l0.022-0.013h0.011l0.101-0.011l0.35-0.146l0.079-0.012l0.09-0.021l0.394-0.169l0.112-0.022l0.079,0.067l0.011,0.033l-0.011,0.169
		l0.021,0.248l0.012,0.056V156.579L45.93,156.579z M43.952,157.59l-0.012-0.09l-0.022-0.022v-0.021l-0.067-0.033h-0.124
		l-0.022,0.057l-0.045,0.033l0.067,0.293h0.056l0.079-0.113l0.044-0.012l0.021-0.021L43.952,157.59L43.952,157.59z M57.859,158.95
		v-0.022l-0.102-0.09l-0.101,0.022l-0.304-0.125l-0.034,0.013v0.033l-0.135-0.011l-0.022-0.035l-0.034,0.013h-0.011l-0.034-0.013
		l-0.079-0.066l-0.225-0.234l-0.034-0.103l-0.056-0.033l-0.135-0.045l-0.067-0.09l-0.045,0.011l-0.292-0.102l-0.146-0.022
		l-0.18,0.034l-0.146,0.033h-0.034l-0.079,0.033l-0.011,0.013l-0.057,0.067l-0.079,0.043l-0.056,0.058l-0.191,0.079l-0.169,0.168
		l0.181,0.18l0.079,0.092l0.021,0.032l0.584,0.494l0.168,0.214l0.056,0.022v0.012l0.248,0.226l0.383,0.28l0.021,0.067l0.067,0.045
		l0.045,0.135l-0.034,0.033l0.011,0.023l0.022,0.021l-0.012,0.045l0.371,0.394v0.157l-0.056-0.011l-0.021,0.045l-0.124-0.102l0,0
		l-0.022-0.022l-0.045-0.022l-0.146-0.066l-0.146-0.078h-0.079l-0.236-0.27l-0.146-0.09l-0.079-0.023l-0.09-0.135l-0.326-0.26
		h-0.022l-0.056-0.089l-0.146-0.079l-0.168-0.18l-0.181-0.111l-0.213-0.26l-0.303-0.201l-0.135-0.125l-0.091,0.058l-0.021,0.032
		l-0.271,0.17l-0.123,0.09l-0.068,0.033l-0.112,0.123l-0.045,0.035l-0.832,0.517l-0.135,0.102l-0.012,0.022l-0.259,0.156
		l-0.146,0.033l-0.135,0.112l-0.271,0.103l-0.045,0.021l-0.079,0.012l-0.102,0.033l-0.022,0.012l-0.045-0.012l-0.066-0.021
		l-0.292-0.012l-0.202-0.066l-0.124-0.068l-0.169-0.189l-0.09-0.203l-0.034-0.226l0.045-0.28l0.135-0.248l0.056-0.213L51,158.985
		l0.124-0.271l0.09-0.123l0.157-0.169l0.213-0.325l0.202-0.168l0.103-0.158l0.427-0.371l0.146-0.156l0.191-0.18l-0.112-0.158
		l-0.157-0.303l-0.012-0.08l-0.034-0.146l-0.111-0.202l-0.045-0.281l0.021-0.021l-0.045-0.146l0.022-0.067l-0.012-0.259l0.112-0.281
		l0.158-0.258l0.584-0.598l0.371-0.279l0.235-0.079l0.034,0.012l0.011,0.033l0.136-0.056l0.235-0.022l0.428,0.056l0.28,0.135
		l0.181,0.203l0.112,0.203l0.022,0.111l0.021,0.079v0.224l-0.102,0.271l-0.135,0.27l-0.045,0.022l-0.034,0.034l-0.057,0.065
		l-0.033,0.058l-0.213,0.225l-0.067,0.046l-0.067,0.056l-0.292,0.326l-0.156,0.112l-0.058,0.045l-0.079,0.09l-0.124,0.033
		l-0.021,0.012l-0.011,0.034v0.033l-0.236,0.18l0.146,0.26l0.124,0.123l0.124,0.213l0.09,0.103l0.012,0.033l0.112,0.067l0.394,0.461
		l0.158,0.112l0.078,0.111l0.19,0.136l0.259-0.18l0.112-0.113l0.112-0.057l0.427-0.291l0.09-0.047l0.034-0.032l0.27-0.103
		l0.102-0.021h0.057l0.213-0.057l0.168,0.012l0.383,0.136l0.201,0.135l0.181,0.19l0.124,0.09v0.021l0.021,0.012l0.067,0.068
		l0.337,0.538l0.021,0.136l0.013,0.078l-0.058,0.045L57.859,158.95L57.859,158.95z M54.375,155.196v-0.202l-0.045-0.124
		l-0.124-0.146l-0.056-0.111l-0.056-0.033l-0.305-0.102l-0.168,0.021l-0.54,0.18l-0.056,0.045l-0.034,0.047l-0.045,0.056
		l-0.113,0.112l-0.066,0.146v0.214l-0.022,0.033l0.011,0.281l0.058,0.101l0.033,0.103l0.045,0.045v0.18l0.102,0.045l0.011,0.021
		l0.022,0.067l0.021,0.079l0.045,0.102l0.102,0.19l0.225-0.157l0.281-0.314l0.236-0.18l0.371-0.449L54.375,155.196L54.375,155.196z
		 M53.892,159.085l0.371-0.292l-0.136-0.169l-0.18-0.102v-0.033l-0.045,0.012l-0.191-0.227l-0.258-0.234l-0.09-0.09l-0.439-0.54
		l-0.146,0.022l-0.214,0.135l-0.045,0.091l-0.112,0.056l-0.011,0.021l-0.034,0.022l-0.023,0.067l-0.292,0.247l-0.056,0.067
		l-0.034,0.033l-0.021,0.057l-0.034,0.045l-0.113,0.168l-0.011,0.035l-0.112,0.056v0.022l-0.135,0.28l-0.067,0.045l-0.066,0.146
		l-0.034,0.136v0.349l0.056,0.146l0.079,0.078l0.214,0.123l0.146,0.035l0.427-0.045l0.259-0.08l0.067-0.011l0.056-0.022l0.102-0.057
		l0.337-0.101l0.202-0.09l0.101-0.067l0.09-0.068l0.158-0.078l0.101-0.09L53.892,159.085L53.892,159.085z M67.282,154.565
		l0.022,0.08l0.011,0.201v0.157l-0.022,0.112l-0.045,0.156v0.08l-0.247,0.482l-0.034,0.021l-0.011,0.033l-0.111,0.158l-0.112,0.102
		l-0.181,0.18l-0.246,0.225l-0.034-0.011l-0.09,0.09l-0.067,0.045l-0.045,0.034l-0.056,0.045l-0.383,0.26l-0.021,0.021l-0.067,0.012
		l-0.111,0.091l-0.079,0.09l-0.012,0.066l-0.021,0.371l0.056,0.169l0.146,0.271l0.225,0.371l0.078,0.045l0.068,0.09l0.225,0.291
		l0.09,0.067l0.146,0.181h0.011l0.044,0.021l0.056,0.146l0.058,0.021l0.066,0.102h0.022l0.124,0.123l0.112,0.236l0.325,0.305
		l0.079,0.135l0.067,0.045l0.021,0.033l0.012,0.045l-0.012,0.033l-0.045,0.035l-0.066-0.035l-0.124-0.066l-0.112-0.021l-0.023,0.01
		l-0.011-0.01h-0.021l-0.191-0.158l-0.124,0.012l-0.124-0.09l-0.056-0.057l-0.045-0.033l-0.012-0.045l-0.225-0.203l-0.011-0.033
		l-0.057-0.022l-0.045-0.056l-0.832-0.889l-0.056-0.102l-0.012-0.033h-0.034l-0.011-0.046l-0.292-0.493l-0.067-0.338l0.056-0.271
		l0.067-0.091l0.045-0.021l0.034-0.102l0.146-0.102l0.034-0.011l0.012-0.022l0.314-0.168l0.011-0.013l0.112-0.067l0.169-0.111
		l0.044-0.033l0.09-0.034v-0.022l0.033-0.01l0.056-0.045l0.091-0.068v-0.012l0.056-0.045l0.112-0.102l0.045-0.045l0.011-0.021
		l0.068-0.033l0.056-0.112h0.021v-0.022l0.079-0.09l0.191-0.259l0.011-0.079l0.022-0.011l0.101-0.349l0.011-0.091l0.012-0.045
		l-0.034-0.405l-0.011-0.011l-0.034-0.09l-0.057-0.146l-0.18-0.226l-0.045-0.011l-0.011-0.012l-0.079-0.09l-0.191-0.136l-0.202-0.09
		l-0.213-0.058l-0.27-0.032l-0.236-0.067l-0.124,0.012l-0.045-0.022H65.09l-0.011,0.012h-0.494l-0.124,0.022l-0.247-0.012
		l-0.157,0.045h-0.091l-0.021,0.021l-0.135,0.034l-0.012,0.011l-0.079,0.045l-0.021,0.022h-0.011v0.022l0.011,0.078v0.146
		l0.101,0.156l0.022,0.28l0.021,0.034l0.046,0.021l0.033-0.011l0.045-0.021l0.091-0.103l0.157-0.102h0.057l0.045,0.066l0.021,0.103
		l0.012,0.045l0.011,0.022l-0.011,0.045l-0.045,0.056l0.033,0.103l-0.021,0.786l-0.022,0.123l0.012,0.022v0.214l-0.023,0.067
		l-0.022,0.473l0.012,0.135l-0.034,0.09v0.033l0.011,0.021L64.225,157v0.18l-0.023,0.136v0.123l-0.021,0.709l-0.068,0.551
		l-0.011,0.225v0.079l0.011,0.056l-0.034,0.135v0.045l0.012,0.022l-0.033,0.191l0.021,0.651l0.034,0.123l0.012,0.012l-0.012,0.012
		l0.012,0.021l0.011,0.058l-0.011,0.09l-0.034,0.045l-0.067,0.045l-0.236,0.146h-0.112l-0.056-0.102l-0.068-0.033l0.012-0.078
		l0.021-0.146l-0.021-0.551l0.021-0.102l-0.034-0.057v-0.202l0.034-0.271l-0.034-0.146l0.012-0.123l-0.057-0.394l0.012-0.182
		l-0.045-0.258l-0.012-0.494l-0.021-0.158l0.011-0.123l-0.022-0.057l-0.056-1.371l0.011-0.19l-0.056-0.573l-0.011-0.314l-0.09-0.403
		l-0.067-0.214l-0.124-0.135l-0.056-0.136l0.213-0.169l0.281-0.156l0.078,0.032l0.079-0.032l0.438-0.022l0.022-0.011l0.045-0.013
		l0.349-0.012l0.056-0.011l0.022-0.012l0.259-0.012l0.011,0.021l0.034,0.022l0.101-0.045l0.359,0.041v0.017h0.113l0.416,0.043
		l0.012,0.022l0.382,0.09l0.045,0.058l0.168,0.045l0.248,0.102l0.045,0.045l0.045,0.057l0.022,0.012l0.101,0.078l0.023,0.012
		l0.011,0.021v0.033l0.103,0.057l0.146,0.191v0.067l0.011,0.011L67.282,154.565L67.282,154.565z M63.685,155.41l-0.045-0.63
		l-0.079-0.293l-0.012-0.156l-0.033-0.068l-0.102-0.056l-0.079,0.022v0.066l0.045,0.102l0.045,0.112l-0.011,0.033l0.034,0.146
		l-0.022,0.203l0.034,0.135l-0.011,0.123l0.034,0.236l-0.012,0.584l0.022,0.102l-0.034,0.349l0.203-0.033l0.011-0.551l0.022-0.058
		l-0.011-0.235l0.011-0.021l-0.011-0.058L63.685,155.41L63.685,155.41z M73.883,158.703h0.079l-0.045,0.112l-0.021,0.045
		l-0.045,0.102l-0.168,0.168l-0.091,0.102l-0.562,0.507l-0.09,0.056l-0.034,0.045l-0.112,0.092l-0.021,0.032l-0.034,0.022
		l-0.022,0.011l-0.033,0.012l-0.181,0.146l-0.527,0.314l-0.169,0.057l-0.079,0.021l-0.034,0.012l-0.18,0.058l-0.046,0.011
		l-0.135,0.057l-0.326,0.033l-0.27,0.012l-0.213-0.078l-0.102-0.135l-0.078-0.058l-0.181-0.247l-0.079-0.395l0.067-0.27v-0.111
		l0.169-0.574l0.382-0.764l-0.101-0.168l0.011-0.215l0.112-0.201l0.157-0.215l0.191-0.214l0.36-0.292l0.27-0.202l0.337-0.247
		l0.079-0.045l0.348-0.18l0.473-0.169l0.214-0.022l0.168,0.033l0.056,0.021l0.136,0.091l0.033,0.271l-0.045,0.18l-0.213,0.473
		l-0.079,0.102l-0.111,0.112l-0.371,0.394l-0.146,0.067l-0.314,0.235l-0.642,0.271l-0.28,0.079h-0.078l-0.136-0.021l-0.056-0.012
		l-0.021-0.091l0.168-0.079l0.135-0.135l0.111-0.033l0.091-0.078l0.495-0.091l0.146-0.045l0.472-0.271l0.181-0.201l0.112-0.248
		l0.022-0.146l-0.011-0.248l-0.181-0.135h-0.225l-0.101,0.021l-0.181,0.137l-0.056,0.066l-0.057,0.012l-0.303,0.326l-0.057,0.066
		l-0.09,0.079l-0.136,0.134l-0.156,0.236l-0.034,0.045l-0.034,0.021l-0.079,0.092l-0.135,0.156l-0.045,0.102l-0.135,0.135
		l-0.26,0.562l-0.135,0.449v0.102l-0.021,0.123l-0.022,0.428l0.067,0.18l0.101,0.136l0.113,0.102l0.157,0.101l0.066,0.022
		l0.124,0.034l0.461,0.011l0.427-0.135l0.438-0.226l0.168-0.156l0.045-0.034l0.034-0.022l0.495-0.371h0.034v-0.021l0.021-0.057
		l0.213-0.19L73.883,158.703L73.883,158.703z M71.59,157.062l0.034-0.112l-0.157,0.09l-0.27,0.235l-0.022,0.112l0.012,0.046
		l0.066,0.012l0.146-0.17l0.057-0.056L71.59,157.062L71.59,157.062z M80.227,156.31l0.032,0.012l-0.012,0.146l-0.033,0.103
		l-0.021,0.045l-0.012,0.011l-0.013-0.011l0.013,0.225l-0.045,0.012l-0.023-0.021l-0.045-0.314l-0.089-0.102l-0.045-0.045
		l-0.022-0.034l-0.359-0.033l-0.473,0.157l-0.382,0.214l-0.124,0.112l-0.102,0.078l-0.271,0.158l-0.011,0.021h-0.034l-0.495,0.519
		l-0.034,0.09l-0.124,0.18l-0.123,0.247l0.045,0.124l-0.012,0.033l0.012,0.033l0.012,0.022l0.045,0.103l0.09,0.09l0.124,0.065
		l0.495-0.056l0.584-0.215l0.157-0.021l0.214-0.079l0.348-0.102l0.315-0.022l0.021,0.013l0.045-0.013l0.113,0.013l0.302,0.156
		l0.058,0.103v0.157l-0.021,0.033h0.01l0.035,0.168l-0.125,0.338l-0.123,0.156l-0.057,0.146l-0.394,0.539v0.022l-0.066,0.056
		l-0.495,0.395l-0.281,0.191l-0.27,0.135l-0.158,0.033l-0.337,0.123l-0.382,0.022l-0.202-0.022l-0.079-0.045l-0.045-0.021
		l-0.146-0.021l-0.011-0.045l-0.168-0.013l-0.146-0.056l-0.012-0.034l-0.012-0.056l0.18-0.08l0.079-0.01l0.146-0.092l0.169,0.045
		h0.09l0.112,0.034l0.247,0.013l0.033,0.021l0.012,0.012l0.079-0.012h0.056l0.18-0.011l0.146-0.067l0.135-0.022l0.214-0.078
		l0.191-0.045l0.157-0.102l0.078-0.102l0.146-0.079l0.18-0.28l0.135-0.111l0.146-0.215l0.034-0.246l-0.012-0.125l-0.011-0.033
		l-0.022-0.045l-0.091-0.112h-0.258l-0.248,0.079l-0.168,0.09l-0.135,0.021l-0.157,0.103l-0.304,0.09l-0.202,0.045l-0.056,0.022
		h-0.022l-0.034-0.022l-0.101,0.011l-0.057,0.034l-0.236,0.033h-0.394L77,159.074l-0.012-0.022l-0.056-0.146l-0.012-0.112
		l0.012-0.066l-0.012-0.035L77,158.39l0.226-0.406l0.033-0.045l0.012-0.078l0.314-0.438l0.079-0.012l0.079-0.18l0.135-0.112v-0.034
		l0.034-0.021l0.068-0.067l0.843-0.72l0.303-0.19l0.416-0.19l0.292-0.021l0.136-0.034l0.046,0.022l0.021,0.033l0.103,0.045
		l0.077,0.091l0.023,0.155l-0.023,0.047l-0.032,0.033v0.033h0.045L80.227,156.31L80.227,156.31z M85.535,157.31l0.123,0.102
		l-0.246,0.045l-0.473,0.012l-0.181-0.012l-0.032-0.033l-0.08,0.012l0.035,0.021l-0.023,0.021l-0.033-0.011l-0.033,0.304
		l0.021,0.067l-0.045,0.765l0.033,0.033l-0.011,0.428l-0.012,0.021l-0.022,0.021v0.022l0.034,0.045l0.011,0.067l-0.021,0.506
		l0.021,0.045l-0.011,0.021l-0.067,0.271l0.045,0.078v0.156l0.022,0.013l0.011,0.045v0.022l0.012,0.078v0.033h-0.021l0.021,0.022
		l-0.012,0.045l-0.201,0.022l-0.271,0.135l-0.045,0.012l-0.045-0.012l-0.022-0.045v-0.168l0.035-0.058v-0.169l0.01-0.056v-0.191
		l0.012-0.034v-0.033l-0.012-0.033l-0.033-0.09l0.012-0.19l0.021-0.058v-0.032l-0.01-0.045l-0.013-0.034l-0.067-0.259l0.012-0.214
		l-0.023-0.021l0.035-0.012v-0.146l0.021-0.326l0.067-0.045l-0.032-0.156l-0.013-0.36l0.013-0.382l-0.228-0.021l-0.066-0.035
		l-0.102,0.013l-0.258,0.032l-0.125-0.045l-0.078-0.123l-0.123-0.033l-0.057-0.045l0.057-0.045l0.066,0.012l0.438-0.012l0.135-0.022
		l0.181-0.011l0.123-0.022l0.012-0.034l0.033-0.012l0.057-0.101l-0.045-0.112l-0.012-0.066v-0.035l0.022-0.056l-0.022-0.102
		l0.022-0.011l-0.012-0.013l-0.033-0.067l0.013-0.057l-0.058-0.719l-0.022-0.079l0.08-0.135l-0.023-0.056l-0.033-0.034l-0.022-0.067
		v-0.349l-0.021-0.011l-0.022-0.08l-0.033-0.045l0.045-0.135l0.156-0.045l0.09-0.09l0.022-0.18l-0.032-0.135l0.057-0.293
		l-0.012-0.022v-0.101l0.032-0.416l-0.032-0.135v-0.046l-0.023-0.057l-0.09-0.022l-0.045-0.021l-0.045-0.012l-0.078,0.022
		l-0.058-0.124l-0.012-0.146l0.045-0.112l-0.021-0.202l0.021-0.066l0.023-0.022l0.012-0.101l-0.035-0.035v-0.057h-0.021l0.11-0.168
		l0.146-0.066l0.146-0.146l0.158-0.213l0.078,0.012l0.021,0.09l0.012,0.168l0.022,0.057l-0.012,0.136l0.033,0.111l0.012,0.067
		L84.6,152.54l0.035,0.102l-0.013,0.022l-0.033,0.058l0.046,0.101l-0.046,0.235l0.046,0.157l0.01,0.214l-0.01,0.058l0.032,0.065
		l-0.032,0.664l0.045,0.045l-0.035,0.112l0.022,0.011l-0.032,0.022h0.032l-0.057,0.371l0.033,0.27l-0.033,0.079l0.023,0.112
		l-0.023,0.18l0.023,0.157l-0.046,0.293l0.011,0.056l0.022,0.078l0.013,0.013l0.01,0.156l-0.056,0.202v0.663l-0.045,0.034
		l-0.022,0.045l0.057,0.045l0.033,0.045l0.135,0.022l0.078-0.022l0.068,0.034l0.19-0.045l0.281,0.021L85.535,157.31L85.535,157.31z
		 M93.453,160.231v0.057l-0.055,0.033l-0.058,0.045l-0.27,0.191l-0.225,0.09l-0.046,0.012l-0.012-0.034h-0.102l-0.146-0.124
		l-0.18-0.27l-0.09-0.102l-0.058-0.169l-0.135-0.235l-0.033-0.045l-0.012-0.057l-0.057-0.045l-0.011-0.045l-0.034-0.092
		l-0.011-0.123l-0.09-0.18l-0.012-0.168l-0.033-0.046l-0.035-0.102l-0.012-0.101l-0.066-0.091h-0.057l-0.033,0.045v0.033h-0.022
		v0.022l-0.021,0.057l-0.235,0.369l-0.226,0.234l-0.033,0.078l-0.26,0.223l-0.09,0.123l-0.123,0.065l-0.066,0.091l-0.202,0.111
		l-0.103,0.034l-0.057,0.045l-0.111,0.043l-0.033,0.045l-0.067,0.013l-0.191,0.146l-0.123,0.022l-0.168,0.1l-0.371,0.124h-0.113
		l-0.065,0.056l-0.113-0.033l-0.248-0.146l-0.078-0.079h-0.045l-0.057,0.034l-0.078,0.067l-0.078-0.013l-0.045,0.022l-0.146-0.057
		l-0.236-0.124l-0.078-0.168l0.021-0.325l0.034-0.045v-0.035l0.168-0.234l0.033-0.034l0.058-0.078l0.09-0.181l0.358-0.314
		l0.033-0.021l0.012-0.022l0.08-0.045l0.056-0.078l0.112-0.079l0.123-0.123l0.191-0.112l0.045-0.033l0.021-0.013l0.013-0.032
		l0.033-0.013l0.079-0.066l0.021-0.012l0.012-0.045l0.045-0.066l0.146-0.079h0.045l0.168-0.103l0.123-0.032l0.08-0.058l0.065-0.021
		v-0.021l0.216-0.08l0.01-0.011l0.067-0.032l0.123-0.058l0.248-0.067l0.078-0.033l0.359,0.012l0.19,0.111l0.103,0.078l0.045,0.08
		h0.033l-0.078-0.136l-0.023-0.202l-0.078-0.123l-0.09-0.26l-0.078-0.135l-0.17-0.146l-0.233-0.021l-0.09,0.056l-0.396,0.45
		l-0.156,0.135l-0.057,0.045l-0.045,0.012l-0.035-0.012l-0.033-0.033V157.5l0.103-0.078v-0.022l0.012-0.033l0.033-0.045l0.113-0.135
		l0.145-0.123l0.146-0.182l0.484-0.449l0.111-0.012l0.19-0.123h0.033l0.035,0.012l0.033,0.021l0.123,0.012l0.203,0.213l0.09,0.146
		l0.123,0.304l0.045,0.058l0.135,0.369v0.045l0.023,0.067l0.021,0.181l0.045,0.102v0.045l0.023,0.09l0.012,0.079l0.021,0.078
		l0.09,0.293l0.045,0.078l0.012,0.146l0.09,0.157l0.012,0.202l0.056,0.102l0.067,0.28l0.191,0.405l0.066,0.078l0.022,0.045
		l0.066,0.078l0.012,0.103l0.258,0.19l0.146-0.022l0.045-0.022H93.453L93.453,160.231z M91.295,157.983v-0.057l-0.102-0.078
		l-0.078-0.067l-0.078-0.022l-0.248-0.021l-0.27,0.066l-0.078,0.034l-0.113,0.045l-0.045,0.033l-0.033,0.012l-0.416,0.19
		l-0.045,0.033l-0.021,0.033l-0.068,0.023l-0.057,0.021l-0.021,0.033l-0.078,0.057l-0.012,0.022l-0.023,0.011l-0.01,0.022
		l-0.057,0.045l-0.213,0.247l-0.023,0.057l-0.022,0.079l-0.056,0.046l-0.012,0.045l-0.078,0.168l-0.035,0.021l-0.021,0.057
		l-0.058,0.09l0.013,0.136l-0.068,0.112l-0.021,0.156l0.021,0.225l0.068,0.146l0.065,0.033l0.058,0.113l0.135,0.09l0.158,0.021
		l0.213-0.021l0.281-0.102l0.045-0.046l0.09-0.011l0.225-0.124l0.226-0.214l0.032-0.012l0.023-0.021l0.371-0.473l0.057-0.045
		l0.033-0.057l0.09-0.123l0.09-0.226l0.045-0.079l0.033-0.057v-0.021l0.023-0.045l0.057-0.156v-0.058l0.01-0.033l0.023-0.034v-0.259
		L91.295,157.983L91.295,157.983z M88.721,159.007l-0.111,0.067l-0.135,0.146l-0.091,0.057l-0.032,0.046l-0.023,0.056l-0.045,0.091
		l-0.033,0.033v0.103l-0.012,0.033l-0.021,0.045l-0.057,0.057l-0.022,0.111l0.022,0.057l0.033,0.102l0.068,0.067l-0.013-0.034h0.09
		l0.045-0.011l0.046-0.056l0.012-0.058v-0.045l0.078-0.235l0.021-0.078l0.047-0.058v-0.011l0.021-0.034l0.012-0.045l0.033-0.103
		l0.168-0.234l0.045-0.09l-0.021-0.022l-0.033-0.022l-0.058,0.022l-0.034,0.033V159.007L88.721,159.007z M99.941,156.051v0.235
		l-0.012,0.111l0.022,0.113l-0.022,0.235l-0.023,0.079l-0.01,0.011l0.033,0.013l-0.023,0.28l0.057,0.235l-0.01,0.248l-0.012,0.045
		l0.012,0.021l-0.012,0.281l0.021,0.135v0.203l-0.032,0.168l0.045,0.022l0.012,0.146l0.045,0.214l-0.045,0.012l0.033,0.033
		l0.057,0.202l-0.045,0.011l0.045,0.045l0.021,0.215l0.125,0.236v0.032h0.045l0.065,0.202l0.09,0.227v0.021l0.136,0.202l0.293,0.146
		l0.258-0.068l0.045,0.058l-0.103,0.123l-0.233,0.079l-0.103,0.045l-0.146,0.021l-0.123-0.021l-0.068-0.033l-0.135-0.057
		l-0.066-0.102l-0.112-0.057l-0.213-0.124l-0.068-0.146l-0.066-0.125l-0.18-0.213l-0.057-0.057l-0.013-0.079l-0.057-0.067
		l0.012-0.066l-0.09-0.259l-0.045-0.181v-0.156l0.033-0.022l-0.057-0.157l-0.011-0.156l-0.034-0.18l-0.011-0.17l-0.022-0.169
		l0.032-0.022l-0.032-0.01l-0.013-0.136l-0.09,0.236l-0.11,0.213l-0.113,0.235l-0.066,0.102h-0.022l-0.01,0.057l-0.023,0.057
		l-0.113,0.226h-0.021v0.033h0.021l-0.201,0.399l-0.123,0.221l-0.079,0.154l-0.123,0.123l-0.191,0.266l-0.078,0.091l-0.078,0.054
		l-0.17,0.122l-0.168,0.078l-0.158,0.077l-0.11,0.021h-0.103h-0.012l-0.201-0.021l-0.137-0.102l-0.101-0.146l-0.057-0.122
		l-0.022-0.056l0.012-0.058l-0.021-0.123l-0.012-0.123l-0.012-0.236l0.012-0.2l0.068-0.045l-0.035-0.022l-0.012-0.111l0.022-0.102
		l0.057-0.022l-0.045-0.022v-0.101l0.013-0.091v-0.269l0.065-0.124l0.013-0.123l0.045-0.012v-0.135l0.01-0.133l0.022-0.125
		l0.033-0.123v-0.504l-0.021-0.012l0.032-0.021l-0.067-0.225l0.022-0.226l-0.045-0.179l-0.032-0.066l-0.058-0.057l-0.123-0.09
		l-0.158,0.012l-0.2,0.123l-0.035-0.022l-0.021,0.046l-0.146,0.111l-0.146,0.066l-0.033-0.01l-0.102,0.101l-0.066-0.022
		l-0.022-0.033l0.09-0.111l0.123-0.09h0.012l0.226-0.182l0.225-0.168l0.225-0.18l0.171-0.113l0.2-0.09l0.058-0.021h0.203
		l0.155,0.021l0.045,0.102h0.023l0.055,0.112l0.023,0.181l-0.033,0.181l-0.023,0.011v0.607l-0.021,0.135l-0.033,0.123l-0.067,0.281
		l-0.046,0.045l0.033,0.033l-0.012,0.136l-0.021,0.122l0.033,0.046l-0.012,0.046l-0.043,0.247l-0.09,0.28v0.19l-0.035,0.19
		l-0.021,0.012v0.359l0.033,0.158v0.189l0.078,0.191l0.068,0.111l0.102,0.057l0.088,0.057h0.113l0.113-0.033l0.033,0.033
		l0.146-0.102l0.102-0.102l0.101-0.135l0.113-0.135l0.057-0.125l0.055-0.135l0.08-0.111l0.066-0.112l0.045-0.157l0.067-0.146
		l0.058-0.156l0.065-0.157l0.078-0.102l0.138-0.271l0.045-0.27h0.021l0.103-0.247l0.11-0.259l0.058-0.293l0.045-0.271v-0.045
		l0.012-0.067l0.045-0.234l0.078-0.236l0.057-0.09l0.271-0.112L99.941,156.051L99.941,156.051z M106.98,156.579l0.057,0.123v0.057
		l-0.113,0.078l-0.055,0.057l-0.08,0.012l-0.065,0.045l-0.023,0.012l-0.078-0.021l-0.102-0.215l-0.103-0.123l-0.021-0.033
		l-0.045-0.022l-0.023-0.032h-0.045l-0.021-0.013l-0.078,0.013l-0.103,0.032l-0.045,0.034l-0.404,0.189l-0.09,0.035l-0.022,0.021
		l-0.113,0.078l-0.111,0.236l-0.078,0.325l-0.045,0.112l-0.034,0.079l-0.021,0.077v0.136l-0.09,0.271l-0.023,0.202l-0.045,0.19
		l-0.012,0.021l-0.021,0.022v0.103l-0.032,0.066v0.021l0.01,0.034v0.169l-0.01,0.021l0.01,0.079l-0.033,0.122l-0.045,0.462
		l0.033,0.067l-0.033,0.111l0.023,0.528l0.021,0.021l-0.012,0.091l-0.076,0.066l-0.154,0.068l-0.186,0.011l-0.045,0.034
		l-0.033-0.045l-0.012-0.034v-0.181v-0.156v-0.35l0,0v-0.045v-0.033v-0.045v-0.314v-0.112v-0.124v-0.111v-0.022v-0.011v-0.045
		l0.035-0.034l-0.013-0.022h-0.022l0.035-0.011l-0.023-0.112l-0.012-0.078v-0.191v-0.034v-0.033v-0.122v-0.125v-0.101h-0.021
		l-0.059-0.046l-0.021-0.012l-0.045,0.012l-0.08,0.079l-0.092,0.057l-0.035,0.09l-0.033,0.011l-0.217,0.371l-0.092,0.215
		l-0.057,0.313l0.032,0.169l-0.021,0.012l0.01,0.021l-0.021,0.021l-0.068-0.078l-0.033-0.033l-0.033-0.057l0.013-0.045l-0.013-0.022
		v-0.033l0.013-0.034l0.033-0.078l-0.013-0.066l0.013-0.022v-0.034l0.021-0.066l0.057-0.124l0.033-0.146l0.012-0.068l0.023-0.012
		l0.236-0.393l0.021-0.113l0.021-0.011l0.047-0.045l0.01-0.022l0.012-0.012l0.013-0.057l0.021-0.057l0.045-0.033l0.058-0.078
		l0.057-0.033l0.012-0.012l0.056-0.09l-0.011-0.125l-0.035-0.101v-0.124l0.271-0.202h0.047l0.021,0.013l0.012,0.033l0.123,0.057
		l0.067-0.012l0.226-0.203l0.045-0.066l0.1-0.079l0.035-0.022l0.012-0.021l0.021-0.057l0.078-0.09v-0.09l0.045-0.033h0.035
		l0.156-0.08l0.09,0.013l0.112-0.045l0.021-0.013h0.012l0.103-0.01l0.348-0.146l0.08-0.012l0.09-0.021l0.394-0.169l0.112-0.022
		l0.078,0.067l0.012,0.033l-0.012,0.169l0.021,0.248l0.012,0.056v0.034H106.98z M105.002,157.59l-0.01-0.09l-0.023-0.022v-0.021
		l-0.067-0.033h-0.123l-0.021,0.057l-0.045,0.033l0.066,0.293h0.057l0.078-0.113l0.045-0.012l0.023-0.021L105.002,157.59
		L105.002,157.59z M114.91,160.231v0.057l-0.057,0.033l-0.056,0.045l-0.271,0.191l-0.226,0.09l-0.045,0.012l-0.01-0.034h-0.102
		L114,160.501l-0.18-0.27l-0.09-0.102l-0.058-0.169l-0.135-0.235l-0.033-0.045l-0.012-0.057l-0.057-0.045l-0.013-0.045l-0.032-0.092
		l-0.011-0.123l-0.092-0.18l-0.01-0.168l-0.035-0.046l-0.033-0.102l-0.012-0.101l-0.066-0.091h-0.057l-0.033,0.045v0.033h-0.022
		v0.022l-0.021,0.06l-0.235,0.369l-0.226,0.233l-0.033,0.078l-0.26,0.225l-0.09,0.123l-0.123,0.064l-0.068,0.09l-0.2,0.112
		l-0.103,0.034l-0.057,0.045l-0.111,0.043l-0.035,0.045l-0.065,0.012l-0.191,0.146l-0.123,0.021l-0.17,0.101l-0.371,0.124h-0.111
		l-0.067,0.056l-0.111-0.032L110,160.536l-0.078-0.079h-0.045l-0.057,0.034l-0.078,0.066l-0.08-0.012l-0.043,0.023l-0.146-0.058
		l-0.236-0.124l-0.078-0.168l0.021-0.326l0.032-0.045v-0.033l0.17-0.235l0.033-0.034l0.058-0.078l0.09-0.181l0.358-0.313
		l0.033-0.022l0.012-0.022l0.078-0.045l0.058-0.078l0.11-0.078l0.125-0.125l0.191-0.111l0.045-0.033l0.021-0.012l0.012-0.033
		l0.033-0.012l0.08-0.067l0.021-0.011l0.012-0.047l0.045-0.065l0.146-0.079h0.045l0.168-0.102l0.123-0.033l0.08-0.057l0.065-0.022
		v-0.022l0.214-0.078l0.012-0.012l0.067-0.033l0.123-0.057l0.248-0.066l0.078-0.033l0.359,0.011l0.19,0.112l0.103,0.078l0.045,0.078
		h0.033l-0.078-0.135l-0.023-0.201l-0.078-0.125l-0.09-0.259l-0.078-0.135l-0.17-0.146l-0.235-0.022l-0.09,0.056l-0.394,0.45
		l-0.158,0.136l-0.055,0.045l-0.047,0.01l-0.033-0.01l-0.033-0.035V157.5l0.103-0.078v-0.022l0.012-0.033l0.033-0.045l0.11-0.135
		l0.146-0.123l0.146-0.182l0.481-0.449l0.113-0.012l0.19-0.123h0.033l0.033,0.012l0.035,0.021l0.123,0.012l0.203,0.213l0.09,0.146
		l0.123,0.304l0.045,0.058l0.135,0.369v0.045l0.021,0.067l0.022,0.181l0.045,0.102v0.045l0.023,0.09l0.01,0.079l0.023,0.078
		l0.09,0.293l0.045,0.078l0.012,0.146l0.09,0.157l0.01,0.202l0.058,0.102l0.067,0.28l0.191,0.405l0.066,0.078l0.022,0.045
		l0.066,0.078l0.012,0.103l0.258,0.19l0.146-0.022l0.045-0.022H114.91L114.91,160.231z M112.752,157.983v-0.057l-0.102-0.078
		l-0.078-0.067l-0.078-0.022l-0.248-0.021l-0.27,0.066l-0.078,0.034l-0.113,0.045l-0.045,0.033l-0.033,0.012l-0.416,0.19
		l-0.045,0.033l-0.022,0.033l-0.066,0.023l-0.057,0.021l-0.021,0.033l-0.08,0.057l-0.01,0.022l-0.023,0.011l-0.012,0.022
		l-0.055,0.045l-0.215,0.247l-0.021,0.057l-0.022,0.079l-0.058,0.046l-0.01,0.045l-0.08,0.168l-0.033,0.021l-0.021,0.057
		l-0.058,0.09l0.013,0.136l-0.068,0.112l-0.023,0.156l0.023,0.225l0.068,0.146l0.065,0.033l0.058,0.113l0.135,0.09l0.158,0.021
		l0.213-0.021l0.281-0.102l0.045-0.046l0.09-0.011l0.225-0.124l0.226-0.214l0.032-0.012l0.023-0.021l0.371-0.473l0.055-0.045
		l0.035-0.057l0.09-0.123l0.09-0.226l0.045-0.079l0.033-0.057v-0.021l0.023-0.045l0.055-0.156v-0.058l0.012-0.033l0.023-0.034
		v-0.259L112.752,157.983L112.752,157.983z M110.178,159.007l-0.111,0.067l-0.135,0.146l-0.091,0.057l-0.034,0.046l-0.021,0.056
		l-0.045,0.091l-0.033,0.033v0.103l-0.012,0.033l-0.023,0.045l-0.055,0.057l-0.022,0.111l0.022,0.057l0.033,0.102l0.065,0.067
		l-0.01-0.034h0.09l0.045-0.011l0.046-0.056l0.01-0.058v-0.045l0.08-0.235l0.021-0.078l0.045-0.058v-0.011l0.023-0.034l0.01-0.045
		l0.035-0.103l0.168-0.234l0.045-0.09l-0.023-0.022l-0.032-0.022l-0.058,0.022l-0.032,0.033V159.007L110.178,159.007z
		 M121.725,160.794l0.055,0.057h-0.033l0.021,0.012l-0.056,0.033l-0.067,0.012l-0.078-0.079l-0.103-0.045l-0.102-0.136l-0.123-0.078
		l-0.135-0.057l-0.068-0.102l-0.258-0.168l-0.012-0.057l-0.021-0.012l0.033-0.021l-0.045-0.203l-0.078-0.102l-0.012-0.18v-0.079
		l0.012-0.067l-0.012-0.078l-0.103-0.359l-0.065-0.326l0.021-0.066l-0.021-0.123l-0.023-0.203l0.033-1.213l-0.021-0.215
		l-0.032-0.111l-0.113,0.146l-0.271,0.617l-0.065,0.113l-0.08,0.135l-0.033,0.078l0.033,0.034l-0.438,0.774l-0.045,0.146
		l-0.125,0.202l-0.01,0.011v0.034l-0.012,0.056l-0.168,0.27h-0.013l-0.022,0.058l-0.057,0.067l-0.066,0.168l-0.012,0.012
		l-0.078,0.146l-0.058,0.045l-0.032,0.156l-0.146,0.293l-0.102,0.111l-0.111,0.012l-0.035,0.057l-0.135,0.078h-0.168h-0.033h-0.022
		h-0.033l-0.058-0.011l-0.045-0.045v-0.055l-0.032-0.134l-0.046-0.555h0.033l-0.021-0.057l0.01-0.102v-0.303l-0.066-0.158
		l0.045-0.156l-0.045-0.281v-0.202v-0.046v-0.123l0.017-0.066l0.041-0.383l-0.058-0.169l0.021-0.032l0.022-0.281l-0.045-0.079
		l0.045-0.056l-0.045-0.17l0.013-0.865l0.022-0.012l0.033-0.146l0.094-0.068l0.59-0.122l0.068,0.078l0.023,0.123l-0.013,0.202
		l-0.012,0.112l0.012,0.022l-0.035,0.044l-0.059,0.203l-0.035,0.102l-0.022,0.078l-0.023,0.045l-0.059,0.518l-0.035,0.135v0.248
		l-0.023,0.045l-0.012,0.045v0.022l-0.01,0.225l0.045,0.865v0.135v0.034v0.135l0.01,0.022l0.023,0.235v0.067l0.012,0.033
		l0.055,0.034h0.068l0.146-0.079l0.045-0.078l0.021-0.034l0.023-0.111l0.11-0.136l0.17-0.259v-0.045l0.011-0.012l0.19-0.235
		l0.068-0.214l0.18-0.314l0.113-0.146l0.168-0.359v-0.011l0.033-0.068l0.032-0.135l0.013-0.033l0.057-0.057l0.057-0.066l0.021-0.078
		l0.078-0.248l0.102-0.226l0.158-0.494l0.146-0.235l0.29-0.135h0.046l0.045-0.022l0.235-0.034l0.023,0.157l-0.035,0.057l-0.01,0.034
		l0.01,0.045l0.068,0.427l-0.013,0.034l-0.012,0.102l-0.045,0.123l0.035,0.461l-0.035,0.146v0.09l-0.01,0.034l-0.013,0.181
		l0.066,0.225l0.09,0.888l0.08,0.54l0.021,0.09l0.032,0.146v0.213l0.048,0.111l0.043,0.08l0.034,0.066l0.033,0.079l0.09,0.225
		L121.725,160.794L121.725,160.794z M126.561,157.31l0.123,0.102l-0.246,0.045l-0.474,0.012l-0.18-0.012l-0.035-0.033l-0.078,0.012
		l0.033,0.021l-0.021,0.021l-0.033-0.011l-0.035,0.304l0.023,0.067l-0.046,0.765l0.033,0.033l-0.012,0.428l-0.01,0.021l-0.023,0.021
		v0.022l0.033,0.045l0.012,0.067l-0.021,0.506l0.021,0.045l-0.012,0.021l-0.066,0.271l0.045,0.078v0.156l0.021,0.013l0.012,0.045
		v0.022l0.013,0.078v0.033h-0.023l0.023,0.022l-0.013,0.045l-0.201,0.022l-0.27,0.135l-0.047,0.012l-0.045-0.012l-0.021-0.045
		v-0.168l0.033-0.058v-0.169l0.012-0.056v-0.191l0.013-0.034v-0.033l-0.013-0.033l-0.032-0.09l0.01-0.19l0.022-0.058v-0.032
		l-0.012-0.045l-0.012-0.034l-0.066-0.259l0.012-0.214l-0.022-0.021l0.033-0.012v-0.146l0.022-0.326l0.066-0.045l-0.033-0.156
		l-0.012-0.36l0.012-0.382l-0.225-0.021l-0.066-0.035l-0.102,0.013l-0.261,0.032l-0.123-0.045l-0.077-0.123l-0.123-0.033
		l-0.058-0.045l0.058-0.045l0.065,0.012l0.439-0.012l0.135-0.022l0.18-0.011l0.123-0.022l0.013-0.034l0.032-0.012l0.058-0.101
		l-0.045-0.112l-0.013-0.066v-0.035l0.021-0.056l-0.021-0.102l0.021-0.011l-0.01-0.013l-0.035-0.067l0.012-0.057l-0.057-0.719
		l-0.021-0.079l0.078-0.135l-0.021-0.056l-0.035-0.034l-0.021-0.067v-0.349l-0.022-0.011l-0.021-0.08l-0.033-0.045l0.045-0.135
		l0.156-0.045l0.09-0.09l0.023-0.18l-0.035-0.135l0.057-0.293l-0.01-0.022v-0.101l0.033-0.416l-0.033-0.135v-0.046l-0.022-0.057
		l-0.091-0.022l-0.045-0.021l-0.045-0.012l-0.078,0.022l-0.057-0.124l-0.012-0.146l0.045-0.112l-0.021-0.202l0.021-0.066
		l0.022-0.022l0.011-0.101l-0.033-0.035v-0.057h-0.021l0.111-0.168l0.146-0.066l0.146-0.146l0.156-0.213l0.08,0.012l0.021,0.09
		l0.012,0.168l0.021,0.057l-0.01,0.136l0.033,0.111l0.012,0.067l-0.023,0.066l0.033,0.102l-0.01,0.022l-0.035,0.058l0.045,0.101
		l-0.045,0.235l0.045,0.157l0.012,0.214l-0.012,0.058l0.035,0.065l-0.035,0.664l0.045,0.045l-0.033,0.112l0.023,0.011l-0.035,0.022
		h0.035l-0.058,0.371l0.033,0.27l-0.033,0.079l0.021,0.112l-0.021,0.18l0.021,0.157l-0.045,0.293l0.012,0.056l0.023,0.078
		l0.01,0.013l0.012,0.156l-0.057,0.202v0.663l-0.045,0.034l-0.021,0.045l0.058,0.045l0.033,0.045l0.135,0.022l0.078-0.022
		l0.067,0.034l0.191-0.045l0.279,0.021L126.561,157.31L126.561,157.31z M132.959,158.703h0.08l-0.047,0.112l-0.021,0.045
		l-0.046,0.102l-0.168,0.168l-0.09,0.102l-0.562,0.507l-0.09,0.056l-0.033,0.045l-0.113,0.092l-0.021,0.032l-0.035,0.022
		l-0.021,0.011l-0.033,0.012l-0.182,0.146l-0.527,0.314l-0.168,0.057l-0.079,0.021l-0.033,0.012l-0.181,0.058l-0.045,0.011
		l-0.135,0.057l-0.326,0.033l-0.27,0.012l-0.215-0.078l-0.101-0.135l-0.08-0.058l-0.18-0.247l-0.078-0.395l0.066-0.27v-0.111
		l0.17-0.574l0.381-0.764l-0.1-0.168l0.01-0.215l0.112-0.201l0.158-0.215l0.189-0.214l0.36-0.292l0.271-0.202l0.338-0.247
		l0.078-0.045l0.348-0.18l0.474-0.169l0.213-0.022l0.17,0.033l0.055,0.021l0.135,0.091l0.035,0.271l-0.045,0.18l-0.215,0.473
		l-0.078,0.102l-0.113,0.112l-0.371,0.394l-0.145,0.067l-0.316,0.235l-0.641,0.271l-0.279,0.079h-0.08l-0.135-0.021l-0.057-0.012
		l-0.021-0.091l0.168-0.079l0.136-0.135l0.112-0.033l0.09-0.078l0.494-0.091l0.146-0.045l0.473-0.271l0.18-0.201l0.111-0.248
		l0.023-0.146l-0.013-0.248l-0.18-0.135h-0.225l-0.103,0.021l-0.18,0.137l-0.057,0.066l-0.058,0.012l-0.303,0.326l-0.057,0.066
		l-0.091,0.079l-0.135,0.134l-0.156,0.236l-0.034,0.045l-0.033,0.021l-0.078,0.092l-0.135,0.156l-0.045,0.102l-0.136,0.135
		l-0.26,0.562l-0.135,0.449v0.102l-0.021,0.123l-0.022,0.428l0.067,0.18l0.101,0.136l0.113,0.102l0.157,0.101l0.066,0.022
		l0.125,0.034l0.459,0.011l0.428-0.135l0.439-0.226l0.168-0.156l0.045-0.034l0.033-0.022l0.493-0.371h0.035v-0.021l0.021-0.057
		l0.215-0.19L132.959,158.703L132.959,158.703z M130.666,157.062l0.033-0.112l-0.156,0.09l-0.27,0.235l-0.023,0.112l0.013,0.046
		l0.067,0.012l0.146-0.17l0.057-0.056L130.666,157.062L130.666,157.062z"/>
	<path fill="#F58345" d="M25.902,146.372c-1.61-2.004-2.659-5.337-3.16-10.012c-0.227-2.017-0.334-3.937-0.334-5.76l-0.018-4.961
		c0.209-0.228,0.375-0.347,0.507-0.369c0.125-0.024,0.459,0,0.996,0.07c0.137,0.59,0.298,1.204,0.471,1.83
		c1.919,0.829,2.844,3.398,2.76,7.704c-0.036,1.747-0.154,3.522-0.37,5.33c-0.161,1.384-0.245,2.601-0.245,3.649
		c0,0.291,0.007,0.565,0.019,0.822c1.354-0.376,2.396-1.438,3.13-3.185c0.477-1.14,0.864-2.671,1.168-4.591
		c0.161-1.198,0.424-2.993,0.787-5.379c0.34-2.086,0.889-3.793,1.658-5.121c0.363,0.07,0.728,0.131,1.103,0.173
		c0.395,1.89,0.59,3.321,0.59,4.299c-1.03,1.037-1.817,2.498-2.354,4.389c-0.28,1.104-0.697,2.755-1.258,4.942
		c-0.489,1.859-1.056,3.256-1.693,4.174C28.728,145.71,27.476,146.372,25.902,146.372L25.902,146.372z M40.206,146.407
		c-3.094-0.662-4.847-1.461-5.252-2.391c-0.083-0.191-0.125-0.377-0.125-0.562c0-0.978,0.763-2.445,2.29-4.406l4.925-2.319
		c1.432-0.681,3.179-1.072,5.241-1.191v-0.627c-1.198-0.305-2.343-0.453-3.422-0.453c-0.256,0-0.632,0.029-1.127,0.084
		c-0.495,0.061-0.864,0.089-1.109,0.089c-1.306,0-2.188-0.93-2.642-2.796c-0.603-0.09-1.229-0.346-1.866-0.77
		c-0.023-0.162-0.036-0.315-0.036-0.472c0-1.104,0.656-1.657,1.975-1.657h3.602l9.868,5.504c0.346,0.513,0.555,0.869,0.607,1.078
		c0.023,0.084,0.036,0.252,0.036,0.496c0,0.231-0.018,0.523-0.054,0.889c-0.125,0.012-0.322,0.06-0.59,0.137
		c0.03,0.62,0.048,1.217,0.048,1.783c0,0.352-0.024,0.863-0.065,1.544c-0.048,0.686-0.071,1.198-0.071,1.551
		c0,1.056,0.227,2.199,0.68,3.422c-0.942-0.353-2.075-0.812-3.405-1.377c-0.709-0.305-1.389-0.459-2.045-0.459
		c-0.542,0-1.072,0.106-1.586,0.315v1.223c-0.352,0.107-1.317,0.395-2.903,0.857C42.037,146.24,41.046,146.407,40.206,146.407
		L40.206,146.407z M37.445,142.877c0.489-0.106,1.318-0.56,2.479-1.365c1.33-0.918,2.236-1.483,2.731-1.692l-0.614,1.521
		c-0.245,0.608-0.44,1.121-0.596,1.538c0.709-0.07,1.765-0.189,3.16-0.369c1.306-0.185,2.242-0.561,2.813-1.133
		c-0.07-1.516-0.119-3.005-0.137-4.473c-1.46,0.197-3.404,0.709-5.837,1.539l-1.813,1.431c-0.792,0.608-1.425,0.996-1.89,1.169
		C37.654,141.478,37.553,142.084,37.445,142.877L37.445,142.877z M60.711,146.442h-0.607c-0.597-0.405-1.933-0.822-4.001-1.239
		c-0.364-3.333-0.542-6.076-0.542-8.229c0-2.051,0.226-4.072,0.68-6.062c0.572-0.078,0.936-0.126,1.103-0.139
		c0.441,0.842,0.77,1.385,0.979,1.641c0.316,0.388,0.811,0.805,1.485,1.259v-0.925c0.185,0,0.363,0,0.542,0
		c0.578,0,1.342-0.221,2.29-0.656c0.941-0.435,1.717-0.645,2.319-0.62c0.572,0.024,1.359,0.347,2.361,0.979
		c-0.047,0.209-0.232,0.322-0.561,0.334c-0.388,0.012-0.649,0.107-0.805,0.292c-1.324,0.436-2.158,0.799-2.499,1.103
		c-0.221,0.197-0.721,0.954-1.502,2.272C61.719,138.649,61.308,141.983,60.711,146.442L60.711,146.442z M71.188,146.407
		c-3.096-0.662-4.849-1.461-5.253-2.391c-0.083-0.191-0.125-0.377-0.125-0.562c0-0.978,0.763-2.445,2.29-4.406l4.925-2.319
		c1.431-0.681,3.178-1.072,5.241-1.191v-0.627c-1.198-0.305-2.344-0.453-3.422-0.453c-0.257,0-0.633,0.029-1.128,0.084
		c-0.494,0.061-0.864,0.089-1.108,0.089c-1.306,0-2.188-0.93-2.643-2.796c-0.602-0.09-1.228-0.346-1.865-0.77
		c-0.024-0.162-0.036-0.315-0.036-0.472c0-1.104,0.656-1.657,1.974-1.657h3.602l9.867,5.504c0.347,0.513,0.556,0.869,0.607,1.078
		c0.025,0.084,0.037,0.252,0.037,0.496c0,0.231-0.019,0.523-0.055,0.889c-0.125,0.012-0.322,0.06-0.591,0.137
		c0.029,0.62,0.05,1.217,0.05,1.783c0,0.352-0.025,0.863-0.066,1.544c-0.049,0.686-0.072,1.198-0.072,1.551
		c0,1.056,0.228,2.199,0.681,3.422c-0.941-0.353-2.074-0.812-3.404-1.377c-0.709-0.305-1.389-0.459-2.045-0.459
		c-0.542,0-1.073,0.106-1.586,0.315v1.223c-0.353,0.107-1.318,0.395-2.904,0.857C73.018,146.24,72.028,146.407,71.188,146.407
		L71.188,146.407z M68.427,142.877c0.489-0.106,1.317-0.56,2.48-1.365c1.33-0.918,2.236-1.483,2.731-1.692l-0.614,1.521
		c-0.244,0.608-0.441,1.121-0.596,1.538c0.71-0.07,1.765-0.189,3.159-0.369c1.307-0.185,2.242-0.561,2.814-1.133
		c-0.071-1.516-0.119-3.005-0.137-4.473c-1.461,0.197-3.404,0.709-5.837,1.539l-1.812,1.431c-0.793,0.608-1.425,0.996-1.89,1.169
		C68.635,141.478,68.534,142.084,68.427,142.877L68.427,142.877z M89.754,146.651c-0.069-0.125-0.166-0.381-0.297-0.77l-1.467-0.209
		c-0.49-0.07-0.967-0.145-1.432-0.227c0.147-3.333,0.299-5.521,0.436-6.57c0.387-2.874,1.104-4.83,2.152-5.867
		c0.268,0.023,0.68,0.071,1.239,0.137c-0.131,1.443-0.34,2.679-0.633,3.703l2.951-2.652c1.158-1.014,2.326-1.521,3.514-1.521
		c1.162,0.954,2.642,2.033,4.437,3.231c-0.066,0.639-0.113,1.264-0.137,1.866H99.92v-0.627h-0.625
		c0.113,0.771,0.312,1.92,0.59,3.459c0.306,1.377,0.931,2.266,1.873,2.672v0.632c-0.411-0.084-0.973-0.185-1.698-0.298
		c-0.066-0.28-0.113-0.489-0.14-0.633h-0.625l-2.309-4.908c-0.232-0.034-0.59-0.082-1.066-0.153
		c-1.08,1.062-2.057,2.427-2.916,4.103c-0.381,0.752-1.061,2.289-2.026,4.633H89.754L89.754,146.651z M107.695,147.194
		c-1.312-0.27-2.266-0.62-2.844-1.051c-0.759-0.571-1.187-1.437-1.293-2.604c-0.013-0.138-0.021-1.312-0.021-3.529
		c0.418-1.014,1.062-2.062,1.935-3.153c0.862-1.086,1.739-1.926,2.629-2.522c0.78-0.524,1.557-0.787,2.338-0.787
		c0.221,0,0.403,0.013,0.541,0.036c0.942,0.148,1.692,1.073,2.254,2.761c-0.439-0.071-1.115-0.179-2.008-0.327
		c-0.072-0.19-0.119-0.395-0.156-0.615c-2.891,0.222-4.447,1.246-4.68,3.078c-0.181,1.395-0.265,2.886-0.265,4.472
		c0,0.59,0.013,1.198,0.037,1.812c0.232,0.083,0.437,0.144,0.607,0.18c0.084-1.192,0.18-2.225,0.299-3.096h0.625
		c-0.113,1.127-0.215,2.463-0.297,4.002c1.293-0.186,2.396-0.52,3.303-0.996c0.488-0.269,1.443-0.912,2.867-1.938
		c1.014-11.299,2.184-20.142,3.512-26.533c0.406-0.173,0.662-0.28,0.771-0.315v-0.924h1.223v0.924h0.627
		c0.674,1.455,1.014,3.185,1.014,5.188c0,0.77-0.049,1.562-0.145,2.374c-0.346,3.052-1.043,5.491-2.092,7.321l-0.627,0.154
		c0.022-0.686,0.071-1.396,0.155-2.129c-0.061-0.012-0.315-0.07-0.77-0.173c-0.377,0.835-0.842,3.638-1.396,8.401
		c-0.387,3.25-0.69,6.23-0.912,8.943c-0.231,0.029-0.584,0.084-1.065,0.154v-2.289c-0.871,0.221-1.789,0.774-2.754,1.663
		C110.219,146.479,109.086,146.985,107.695,147.194L107.695,147.194z M124.344,146.407c-3.096-0.662-4.848-1.461-5.254-2.391
		c-0.082-0.191-0.125-0.377-0.125-0.562c0-0.978,0.765-2.445,2.289-4.406l4.927-2.319c1.432-0.681,3.178-1.072,5.241-1.191v-0.627
		c-1.198-0.305-2.344-0.453-3.424-0.453c-0.256,0-0.631,0.029-1.127,0.084c-0.494,0.061-0.865,0.089-1.108,0.089
		c-1.306,0-2.188-0.93-2.642-2.796c-0.602-0.09-1.229-0.346-1.867-0.77c-0.022-0.162-0.034-0.315-0.034-0.472
		c0-1.104,0.655-1.657,1.975-1.657h3.602l9.867,5.504c0.346,0.513,0.555,0.869,0.607,1.078c0.022,0.084,0.037,0.252,0.037,0.496
		c0,0.231-0.019,0.523-0.056,0.889c-0.125,0.012-0.321,0.06-0.59,0.137c0.029,0.62,0.047,1.217,0.047,1.783
		c0,0.352-0.022,0.863-0.063,1.544c-0.049,0.686-0.072,1.198-0.072,1.551c0,1.056,0.227,2.199,0.68,3.422
		c-0.94-0.353-2.073-0.812-3.403-1.377c-0.709-0.305-1.39-0.459-2.045-0.459c-0.543,0-1.074,0.106-1.587,0.315v1.223
		c-0.352,0.107-1.317,0.395-2.903,0.857C126.174,146.24,125.184,146.407,124.344,146.407L124.344,146.407z M121.582,142.877
		c0.49-0.106,1.318-0.56,2.48-1.365c1.33-0.918,2.235-1.483,2.731-1.692l-0.614,1.521c-0.244,0.608-0.441,1.121-0.597,1.538
		c0.709-0.07,1.765-0.189,3.16-0.369c1.305-0.185,2.242-0.561,2.814-1.133c-0.072-1.516-0.119-3.005-0.138-4.473
		c-1.461,0.197-3.405,0.709-5.838,1.539l-1.812,1.431c-0.793,0.608-1.426,0.996-1.892,1.169
		C121.791,141.478,121.689,142.084,121.582,142.877L121.582,142.877z"/>
</g>
</svg>
