<?xml version="1.0" encoding="utf-8"?>
<!-- Generator: Adobe Illustrator 16.0.0, SVG Export Plug-In . SVG Version: 6.00 Build 0)  -->
<!DOCTYPE svg PUBLIC "-//W3C//DTD SVG 1.1//EN" "http://www.w3.org/Graphics/SVG/1.1/DTD/svg11.dtd">
<svg version="1.1" id="Layer_1" xmlns="http://www.w3.org/2000/svg" xmlns:xlink="http://www.w3.org/1999/xlink" x="0px" y="0px"
	 width="192.756px" height="192.756px" viewBox="0 0 192.756 192.756" enable-background="new 0 0 192.756 192.756"
	 xml:space="preserve">
<g>
	<polygon fill-rule="evenodd" clip-rule="evenodd" fill="#FFFFFF" points="0,0 192.756,0 192.756,192.756 0,192.756 0,0 	"/>
	<polygon fill-rule="evenodd" clip-rule="evenodd" fill="#F37655" points="96.376,139.426 96.983,139.414 97.667,139.362 
		98.432,139.297 99.261,139.202 100.119,139.097 101.014,138.967 101.936,138.834 102.843,138.688 103.738,138.531 104.609,138.374 
		105.438,138.214 106.217,138.069 106.913,137.911 107.533,137.767 108.059,137.636 108.455,137.504 176.23,104.226 
		176.729,103.962 177.219,103.687 177.691,103.384 178.153,103.079 178.589,102.765 179.01,102.436 179.418,102.093 
		179.799,101.752 180.183,101.395 180.524,101.026 180.866,100.645 181.184,100.249 181.485,99.853 181.775,99.46 182.051,99.052 
		182.302,98.629 182.538,98.208 182.762,97.773 182.973,97.338 183.172,96.89 183.343,96.442 183.502,95.995 183.645,95.548 
		183.777,95.088 183.988,94.166 184.067,93.691 184.134,93.229 184.186,92.757 184.225,92.282 184.237,91.82 184.252,91.348 
		184.237,90.874 184.212,90.399 184.173,89.924 184.107,89.449 184.028,88.963 183.922,88.488 183.805,88.002 183.672,87.527 
		183.526,87.04 183.185,86.094 182.985,85.631 182.776,85.171 182.302,84.25 181.775,83.379 181.485,82.946 181.195,82.523 
		180.879,82.115 180.563,81.719 180.222,81.338 179.878,80.969 179.509,80.615 179.143,80.259 178.759,79.929 178.365,79.626 
		177.954,79.324 177.534,79.046 177.114,78.783 176.679,78.532 176.23,78.309 105.782,48.6 105.413,48.482 104.978,48.365 
		104.491,48.244 103.95,48.126 103.385,48.008 102.777,47.89 102.159,47.784 101.501,47.679 100.842,47.587 100.17,47.494 
		99.499,47.416 98.841,47.349 98.181,47.297 97.55,47.243 96.944,47.219 96.376,47.204 95.799,47.219 95.191,47.243 94.56,47.297 
		93.916,47.349 93.241,47.416 92.57,47.494 91.912,47.587 91.24,47.679 90.596,47.784 89.964,47.89 89.356,48.008 88.791,48.126 
		88.265,48.244 87.778,48.365 87.343,48.482 86.961,48.6 16.999,78.309 16.419,78.572 15.866,78.85 15.325,79.14 14.813,79.455 
		14.324,79.771 13.864,80.102 13.417,80.443 12.994,80.8 12.6,81.154 12.217,81.537 11.863,81.918 11.519,82.314 11.203,82.72 
		10.901,83.127 10.624,83.551 10.373,83.972 10.125,84.407 9.901,84.854 9.701,85.289 9.517,85.749 9.347,86.197 9.188,86.659 
		9.057,87.119 8.939,87.581 8.833,88.056 8.74,88.516 8.662,88.99 8.556,89.937 8.531,90.399 8.504,90.874 8.504,91.82 
		8.517,92.282 8.556,92.742 8.595,93.217 8.728,94.139 8.818,94.586 8.924,95.046 9.042,95.496 9.175,95.929 9.32,96.377 
		9.492,96.812 9.677,97.247 9.874,97.667 10.097,98.09 10.333,98.511 10.583,98.919 10.862,99.327 11.165,99.723 11.479,100.116 
		11.809,100.5 12.177,100.881 12.546,101.25 12.954,101.618 13.377,101.976 13.825,102.317 14.3,102.659 14.786,102.988 
		15.3,103.317 15.838,103.633 16.407,103.938 16.999,104.226 84.286,137.504 84.695,137.636 85.208,137.767 85.828,137.911 
		86.526,138.069 87.304,138.214 88.132,138.374 89.002,138.531 89.91,138.688 90.819,138.834 91.729,138.967 92.625,139.097 
		93.492,139.202 94.309,139.297 95.073,139.362 95.771,139.414 96.376,139.426 	"/>
	<polygon fill-rule="evenodd" clip-rule="evenodd" fill="#F9DE6E" points="110.522,122.492 111.326,122.571 112.128,122.662 
		112.933,122.755 113.749,122.861 114.579,122.979 115.436,123.098 116.303,123.229 117.213,123.375 117.754,123.466 
		118.24,123.571 118.701,123.678 119.124,123.783 119.504,123.9 119.861,124.031 120.203,124.177 120.518,124.337 120.835,124.519 
		121.125,124.729 121.415,124.953 121.691,125.204 121.981,125.479 122.271,125.797 122.573,126.139 122.891,126.522 
		122.931,126.562 122.955,126.602 126.09,131.012 126.262,131.275 126.432,131.565 126.591,131.855 126.736,132.17 126.788,132.343 
		126.854,132.512 126.934,132.881 126.973,133.08 126.999,133.289 127.012,133.501 127.012,133.948 126.999,134.159 
		126.973,134.371 126.934,134.568 126.854,134.937 126.788,135.108 126.736,135.278 126.591,135.596 126.432,135.885 
		126.273,136.161 126.09,136.424 125.959,136.609 125.603,137.122 125.102,137.833 124.523,138.637 123.943,139.453 
		123.444,140.164 123.087,140.665 122.955,140.848 122.931,140.89 122.891,140.929 122.573,141.311 122.271,141.651 
		121.981,141.969 121.691,142.244 121.415,142.495 121.125,142.719 120.835,142.931 120.203,143.272 119.861,143.417 
		119.504,143.551 119.124,143.668 118.701,143.774 118.24,143.879 117.754,143.971 117.213,144.062 116.303,144.206 
		115.436,144.352 114.579,144.472 113.749,144.59 112.933,144.696 112.128,144.787 111.326,144.88 110.522,144.959 109.113,145.076 
		107.665,145.195 106.111,145.301 104.464,145.379 102.646,145.458 100.657,145.498 98.459,145.536 95.995,145.552 93.531,145.536 
		91.333,145.498 89.344,145.458 87.527,145.379 85.867,145.301 84.325,145.195 82.877,145.076 81.468,144.959 80.665,144.88 
		79.059,144.696 78.243,144.59 76.556,144.352 75.673,144.206 74.778,144.062 74.237,143.971 73.75,143.879 73.291,143.774 
		72.867,143.668 72.486,143.551 72.117,143.417 71.788,143.272 71.458,143.103 71.156,142.931 70.866,142.719 70.576,142.495 
		70.3,142.244 70.01,141.969 69.72,141.651 69.418,141.311 69.1,140.929 69.061,140.89 69.037,140.848 65.901,136.424 
		65.717,136.161 65.557,135.885 65.399,135.596 65.255,135.278 65.203,135.108 65.137,134.937 65.058,134.568 65.018,134.371 
		64.992,134.159 64.979,133.948 64.979,133.501 64.992,133.289 65.018,133.08 65.058,132.881 65.137,132.512 65.188,132.343 
		65.255,132.17 65.399,131.855 65.545,131.565 65.717,131.288 65.901,131.024 66.032,130.828 66.388,130.326 66.887,129.616 
		67.468,128.812 68.048,127.995 68.547,127.284 68.903,126.785 69.037,126.602 69.061,126.562 69.1,126.522 69.418,126.139 
		69.72,125.797 70.01,125.479 70.3,125.204 70.576,124.953 70.866,124.729 71.156,124.519 71.458,124.337 71.788,124.177 
		72.117,124.031 72.486,123.9 72.867,123.783 73.291,123.678 73.75,123.571 74.237,123.466 74.778,123.375 75.673,123.229 
		76.556,123.098 78.243,122.861 79.059,122.755 79.86,122.662 80.665,122.571 81.468,122.492 82.877,122.359 84.325,122.253 
		85.867,122.15 87.527,122.057 89.344,121.99 91.333,121.939 93.531,121.912 95.995,121.899 98.459,121.912 100.657,121.939 
		102.619,121.99 104.397,122.057 106.045,122.136 107.586,122.241 109.06,122.359 110.522,122.492 	"/>
	<polygon fill-rule="evenodd" clip-rule="evenodd" fill="#FFFFFF" points="81.006,126.378 80.507,126.455 80.06,126.522 
		79.651,126.602 79.282,126.668 78.938,126.758 78.636,126.85 78.346,126.955 78.082,127.088 77.847,127.221 77.596,127.378 
		77.372,127.562 77.136,127.771 76.897,128.01 76.661,128.272 76.398,128.563 76.12,128.905 74.119,131.723 73.989,131.934 
		73.855,132.146 73.738,132.382 73.645,132.618 73.566,132.881 73.5,133.145 73.46,133.409 73.448,133.685 73.46,133.963 
		73.5,134.226 73.566,134.489 73.645,134.74 73.738,134.988 73.855,135.212 73.989,135.436 74.119,135.635 76.12,138.465 
		76.398,138.795 76.661,139.097 76.897,139.362 77.136,139.599 77.372,139.81 77.596,139.979 77.847,140.151 78.082,140.282 
		78.346,140.415 78.636,140.521 78.938,140.611 79.282,140.692 79.651,140.771 80.06,140.848 80.507,140.914 81.006,140.98 
		81.665,141.074 82.391,141.152 83.167,141.244 83.984,141.322 84.852,141.389 85.75,141.468 86.684,141.534 87.646,141.601 
		88.633,141.651 89.647,141.706 90.674,141.758 91.703,141.785 92.743,141.824 93.795,141.836 94.837,141.851 95.877,141.863 
		96.905,141.851 97.957,141.836 98.998,141.824 100.038,141.785 101.081,141.758 102.105,141.706 103.106,141.651 104.096,141.601 
		105.057,141.534 105.991,141.468 106.9,141.389 107.757,141.322 108.572,141.244 109.35,141.152 110.074,141.074 110.734,140.98 
		111.233,140.914 111.695,140.848 112.104,140.771 112.473,140.692 112.802,140.611 113.104,140.521 113.395,140.415 
		113.657,140.282 113.908,140.151 114.145,139.979 114.38,139.81 114.604,139.599 114.843,139.362 115.094,139.097 115.342,138.795 
		115.619,138.465 117.634,135.635 117.767,135.436 118.003,134.988 118.187,134.489 118.292,133.963 118.305,133.685 
		118.292,133.409 118.187,132.881 118.096,132.618 118.003,132.382 117.885,132.146 117.767,131.934 117.634,131.723 
		115.619,128.905 115.342,128.563 115.094,128.272 114.843,128.01 114.604,127.771 114.38,127.562 114.145,127.378 113.908,127.221 
		113.657,127.088 113.395,126.955 113.104,126.85 112.802,126.758 112.473,126.668 112.104,126.602 111.695,126.522 
		111.233,126.455 110.734,126.378 110.061,126.299 109.337,126.205 108.572,126.127 107.757,126.048 106.9,125.969 106.018,125.902 
		105.096,125.824 104.146,125.77 103.173,125.705 102.172,125.652 100.119,125.573 99.064,125.546 98.01,125.521 96.944,125.507 
		94.837,125.507 93.795,125.521 92.743,125.546 91.703,125.573 90.674,125.612 89.647,125.664 88.633,125.718 87.646,125.77 
		86.684,125.836 85.75,125.902 84.852,125.969 83.984,126.048 83.167,126.127 82.391,126.205 81.665,126.299 81.006,126.378 	"/>
	<polyline fill="none" stroke="#FFFFFF" stroke-width="0.3297" stroke-linecap="square" stroke-miterlimit="2.6131" points="
		81.006,126.378 80.507,126.455 80.06,126.522 79.651,126.602 79.282,126.668 78.938,126.758 78.636,126.85 78.346,126.955 
		78.082,127.088 77.847,127.221 77.596,127.378 77.372,127.562 77.136,127.771 76.897,128.01 76.661,128.272 76.398,128.563 
		76.12,128.905 74.119,131.723 73.989,131.934 73.855,132.146 73.738,132.382 73.645,132.618 73.566,132.881 73.5,133.145 
		73.46,133.409 73.448,133.685 73.46,133.963 73.5,134.226 73.566,134.489 73.645,134.74 73.738,134.988 73.855,135.212 
		73.989,135.436 74.119,135.635 76.12,138.465 76.398,138.795 76.661,139.097 76.897,139.362 77.136,139.599 77.372,139.81 
		77.596,139.979 77.847,140.151 78.082,140.282 78.346,140.415 78.636,140.521 78.938,140.611 79.282,140.692 79.651,140.771 
		80.06,140.848 80.507,140.914 81.006,140.98 81.665,141.074 82.391,141.152 83.167,141.244 83.984,141.322 84.852,141.389 
		85.75,141.468 86.684,141.534 87.646,141.601 88.633,141.651 89.647,141.706 90.674,141.758 91.703,141.785 92.743,141.824 
		93.795,141.836 94.837,141.851 95.877,141.863 96.905,141.851 97.957,141.836 98.998,141.824 100.038,141.785 101.081,141.758 
		102.105,141.706 103.106,141.651 104.096,141.601 105.057,141.534 105.991,141.468 106.9,141.389 107.757,141.322 108.572,141.244 
		109.35,141.152 110.074,141.074 110.734,140.98 111.233,140.914 111.695,140.848 112.104,140.771 112.473,140.692 112.802,140.611 
		113.104,140.521 113.395,140.415 113.657,140.282 113.908,140.151 114.145,139.979 114.38,139.81 114.604,139.599 114.843,139.362 
		115.094,139.097 115.342,138.795 115.619,138.465 117.634,135.635 117.767,135.436 118.003,134.988 118.187,134.489 
		118.292,133.963 118.305,133.685 118.292,133.409 118.187,132.881 118.096,132.618 118.003,132.382 117.885,132.146 
		117.767,131.934 117.634,131.723 115.619,128.905 115.342,128.563 115.094,128.272 114.843,128.01 114.604,127.771 114.38,127.562 
		114.145,127.378 113.908,127.221 113.657,127.088 113.395,126.955 113.104,126.85 112.802,126.758 112.473,126.668 
		112.104,126.602 111.695,126.522 111.233,126.455 110.734,126.378 110.061,126.299 109.337,126.205 108.572,126.127 
		107.757,126.048 106.9,125.969 106.018,125.902 105.096,125.824 104.146,125.77 103.173,125.705 102.172,125.652 100.119,125.573 
		99.064,125.546 98.01,125.521 96.944,125.507 94.837,125.507 93.795,125.521 92.743,125.546 91.703,125.573 90.674,125.612 
		89.647,125.664 88.633,125.718 87.646,125.77 86.684,125.836 85.75,125.902 84.852,125.969 83.984,126.048 83.167,126.127 
		82.391,126.205 81.665,126.299 81.006,126.378 	"/>
	<polygon fill-rule="evenodd" clip-rule="evenodd" fill="#F37655" points="76.455,138.76 76.516,138.834 76.779,139.137 
		77.015,139.399 77.254,139.638 77.49,139.85 77.728,140.034 77.964,140.191 78.215,140.321 78.479,140.454 78.756,140.561 
		79.059,140.65 79.4,140.732 79.769,140.809 80.177,140.89 80.625,140.953 81.127,141.02 81.798,141.113 82.521,141.191 
		83.286,141.283 84.117,141.361 84.972,141.428 85.867,141.507 86.802,141.573 87.778,141.639 88.764,141.691 89.765,141.745 
		90.792,141.797 91.833,141.824 92.873,141.863 93.916,141.875 94.955,141.902 97.036,141.902 98.076,141.875 99.115,141.863 
		100.158,141.824 101.198,141.797 102.227,141.745 103.227,141.691 104.213,141.639 105.189,141.573 106.111,141.507 
		107.019,141.428 107.874,141.361 108.705,141.283 109.468,141.191 110.193,141.113 110.864,141.02 111.365,140.953 111.813,140.89 
		112.222,140.809 112.59,140.732 112.92,140.65 113.235,140.561 113.513,140.454 113.775,140.321 114.026,140.191 114.263,140.034 
		114.501,139.85 114.737,139.638 114.961,139.399 115.212,139.137 115.475,138.834 115.536,138.76 122.733,138.76 121.823,140.046 
		121.545,140.388 121.282,140.678 121.031,140.953 120.783,141.191 120.545,141.403 120.309,141.601 120.07,141.758 
		119.821,141.915 119.556,142.048 119.269,142.165 118.964,142.271 118.635,142.364 118.28,142.456 117.885,142.535 
		117.449,142.612 116.978,142.691 116.158,142.837 115.342,142.957 114.525,143.075 113.725,143.193 112.907,143.299 
		112.076,143.39 111.248,143.483 110.39,143.575 108.969,143.707 107.506,143.813 105.966,143.919 104.319,143.998 102.541,144.062 
		100.579,144.115 98.404,144.143 95.995,144.154 93.586,144.143 91.412,144.115 89.45,144.062 87.672,143.998 86.024,143.919 
		84.483,143.813 83.023,143.707 81.599,143.575 80.743,143.483 79.915,143.39 79.083,143.299 78.267,143.193 77.451,143.075 
		76.646,142.957 75.83,142.837 75.001,142.691 74.527,142.612 74.106,142.535 73.711,142.456 73.354,142.364 73.027,142.271 
		72.722,142.165 72.432,142.048 72.169,141.915 71.921,141.758 71.683,141.601 71.431,141.403 71.195,141.191 70.959,140.953 
		70.709,140.678 70.445,140.388 70.167,140.046 69.257,138.76 76.455,138.76 	"/>
	<polygon fill-rule="evenodd" clip-rule="evenodd" fill="#F37655" points="69.257,138.76 67.033,135.62 66.902,135.436 
		66.784,135.227 66.663,135.027 66.56,134.804 66.479,134.568 66.415,134.305 66.4,134.172 66.376,134.026 66.376,133.882 
		66.361,133.725 66.376,133.567 66.376,133.422 66.4,133.277 66.415,133.145 66.479,132.881 66.56,132.645 66.663,132.421 
		66.784,132.209 66.902,132.013 67.033,131.816 70.167,127.402 70.445,127.061 70.709,126.758 70.959,126.495 71.195,126.259 
		71.431,126.048 71.683,125.852 71.921,125.679 72.169,125.534 72.432,125.401 72.722,125.283 73.027,125.178 73.354,125.086 
		73.711,124.992 74.106,124.914 74.527,124.836 75.001,124.744 75.83,124.612 76.646,124.493 77.451,124.376 78.267,124.255 
		79.083,124.152 79.915,124.059 80.743,123.967 81.599,123.874 83.023,123.743 84.483,123.638 86.024,123.532 87.672,123.453 
		89.45,123.375 91.412,123.336 93.586,123.296 98.483,123.296 100.685,123.336 102.646,123.375 104.424,123.453 106.033,123.532 
		107.545,123.638 108.98,123.743 110.39,123.874 111.248,123.967 112.076,124.059 112.907,124.152 113.725,124.255 114.525,124.376 
		115.342,124.493 116.158,124.612 116.978,124.744 117.449,124.836 117.885,124.914 118.28,124.992 118.635,125.086 
		118.964,125.178 119.269,125.283 119.556,125.401 119.821,125.534 120.07,125.679 120.309,125.852 120.545,126.048 
		120.783,126.259 121.031,126.495 121.282,126.758 121.545,127.061 121.823,127.402 124.956,131.816 125.089,132.013 
		125.207,132.209 125.325,132.421 125.431,132.645 125.512,132.881 125.575,133.145 125.591,133.277 125.615,133.422 
		125.615,133.567 125.63,133.725 125.615,133.882 125.615,134.026 125.591,134.172 125.575,134.305 125.512,134.568 
		125.431,134.804 125.325,135.027 125.207,135.227 125.089,135.436 124.956,135.62 122.733,138.76 115.536,138.76 115.75,138.505 
		117.754,135.674 117.885,135.475 118.017,135.251 118.123,135.027 118.227,134.779 118.305,134.528 118.371,134.266 
		118.41,134.002 118.426,133.725 118.41,133.448 118.371,133.186 118.305,132.92 118.227,132.657 118.123,132.421 118.017,132.185 
		117.885,131.974 117.754,131.777 115.75,128.944 115.475,128.603 115.212,128.312 114.961,128.049 114.737,127.811 
		114.501,127.602 114.263,127.417 114.026,127.26 113.775,127.128 113.513,126.994 113.235,126.892 112.92,126.798 112.59,126.706 
		112.222,126.641 111.813,126.562 111.365,126.495 110.864,126.417 110.181,126.338 109.468,126.244 108.69,126.165 
		107.874,126.087 107.033,126.008 106.136,125.941 105.214,125.863 104.268,125.81 103.291,125.745 102.29,125.691 101.277,125.652 
		100.237,125.612 99.182,125.586 98.13,125.561 97.062,125.546 94.955,125.546 93.916,125.561 92.873,125.586 91.833,125.612 
		90.792,125.652 89.765,125.705 88.764,125.758 87.778,125.81 86.802,125.875 85.867,125.941 84.972,126.008 84.117,126.087 
		83.286,126.165 82.521,126.244 81.798,126.338 81.127,126.417 80.625,126.495 80.177,126.562 79.769,126.641 79.4,126.706 
		79.059,126.798 78.756,126.892 78.479,126.994 78.215,127.128 77.964,127.26 77.728,127.417 77.49,127.602 77.254,127.811 
		77.015,128.049 76.779,128.312 76.516,128.603 76.239,128.944 74.237,131.777 74.106,131.974 73.974,132.185 73.868,132.421 
		73.762,132.657 73.684,132.92 73.62,133.186 73.578,133.448 73.566,133.725 73.578,134.002 73.62,134.266 73.684,134.528 
		73.762,134.779 73.868,135.027 73.974,135.251 74.106,135.475 74.237,135.674 76.239,138.505 76.455,138.76 69.257,138.76 	"/>
	<polygon fill-rule="evenodd" clip-rule="evenodd" fill="#6C5F87" points="81.943,137.135 81.982,137.201 82.009,137.28 
		82.034,137.334 82.061,137.397 82.073,137.452 82.088,137.519 82.101,137.583 82.112,137.648 85.142,137.648 85.078,137.583 
		85.024,137.519 84.972,137.452 84.918,137.397 84.878,137.334 84.84,137.28 84.8,137.201 84.761,137.135 82.548,133.08 
		84.84,129.984 84.894,129.906 84.958,129.84 85.012,129.761 85.063,129.694 85.117,129.628 85.182,129.576 85.235,129.524 
		85.302,129.471 82.642,129.471 82.614,129.537 82.587,129.604 82.562,129.654 82.536,129.721 82.497,129.772 82.457,129.84 
		82.417,129.906 82.363,129.984 80.311,132.672 80.295,129.984 80.295,129.906 80.311,129.84 80.311,129.772 80.322,129.721 
		80.335,129.654 80.362,129.604 80.374,129.537 80.414,129.471 77.675,129.471 77.713,129.537 77.728,129.604 77.753,129.654 
		77.768,129.721 77.78,129.772 77.78,129.84 77.792,129.906 77.792,137.201 77.78,137.28 77.78,137.334 77.768,137.397 
		77.753,137.452 77.728,137.519 77.713,137.583 77.675,137.648 80.414,137.648 80.374,137.583 80.362,137.519 80.335,137.452 
		80.322,137.397 80.311,137.334 80.311,137.28 80.295,137.201 80.295,134.187 81.943,137.135 	"/>
	<path fill-rule="evenodd" clip-rule="evenodd" fill="#6C5F87" d="M85.958,129.984v-0.145l-0.013-0.067l-0.012-0.052l-0.016-0.066
		l-0.012-0.051l-0.027-0.066l-0.024-0.066h4.318l0.239,0.015l0.235,0.024l0.239,0.027l0.236,0.054l0.236,0.063l0.226,0.094
		l0.224,0.106l0.091,0.063l0.106,0.066l0.091,0.079l0.093,0.078l0.079,0.081l0.094,0.092l0.064,0.104l0.066,0.106l0.066,0.117
		l0.052,0.119l0.054,0.132l0.04,0.146l0.026,0.145l0.025,0.158l0.015,0.157v0.172l-0.015,0.263l-0.025,0.251l-0.053,0.224
		l-0.066,0.21l-0.079,0.199l-0.091,0.169l-0.118,0.158l-0.121,0.145l-0.13,0.133l-0.133,0.118l-0.145,0.094l-0.145,0.091
		l-0.158,0.066l-0.157,0.051l-0.16,0.055l-0.157,0.024l1.911,3.214l0.039,0.066l0.039,0.079l0.04,0.054l0.054,0.063l0.039,0.055
		l0.052,0.066l0.051,0.064l0.066,0.065h-3.081v-0.065l-0.012-0.064l-0.015-0.066l-0.027-0.055l-0.012-0.063l-0.066-0.133
		l-0.04-0.066l-1.581-2.594v2.739l0.015,0.054l0.012,0.063l0.015,0.055l0.012,0.066l0.051,0.13h-2.724l0.024-0.065l0.027-0.064
		l0.012-0.066l0.016-0.055l0.012-0.063l0.013-0.054V129.984L85.958,129.984z M88.474,133.186h0.989l0.106-0.015l0.093-0.013
		l0.091-0.027l0.079-0.025l0.079-0.04l0.079-0.052l0.066-0.055l0.066-0.063l0.052-0.066l0.081-0.157l0.039-0.094l0.013-0.105
		l0.027-0.236l-0.015-0.117l-0.025-0.212l-0.039-0.091l-0.04-0.079l-0.042-0.081l-0.052-0.078l-0.066-0.052l-0.066-0.055
		l-0.079-0.052l-0.079-0.039l-0.079-0.027l-0.091-0.026l-0.093-0.024h-0.106l-0.106-0.015h-0.883V133.186L88.474,133.186z"/>
	<polygon fill-rule="evenodd" clip-rule="evenodd" fill="#6C5F87" points="107.506,129.485 107.506,131.71 107.441,131.684 
		107.375,131.671 107.309,131.644 107.257,131.632 107.19,131.617 107.124,131.617 107.058,131.604 104.412,131.604 
		104.412,133.026 107.427,133.026 107.427,134.882 107.362,134.857 107.297,134.831 107.23,134.818 107.176,134.792 
		107.112,134.792 107.046,134.779 104.412,134.779 104.412,137.135 104.424,137.201 104.424,137.334 104.437,137.397 
		104.451,137.452 104.464,137.519 104.491,137.583 104.516,137.648 101.791,137.648 101.843,137.519 101.855,137.452 
		101.882,137.397 101.882,137.334 101.896,137.28 101.896,129.84 101.882,129.772 101.882,129.721 101.855,129.654 101.843,129.604 
		101.816,129.537 101.791,129.471 107.506,129.485 	"/>
	<polygon fill-rule="evenodd" clip-rule="evenodd" fill="#6C5F87" points="108.086,129.485 108.086,131.71 108.152,131.684 
		108.219,131.671 108.271,131.644 108.337,131.632 108.402,131.617 108.455,131.617 108.533,131.604 110.299,131.604 
		110.299,137.28 110.287,137.334 110.287,137.397 110.271,137.452 110.245,137.519 110.22,137.583 110.193,137.648 112.893,137.648 
		112.865,137.583 112.854,137.519 112.826,137.452 112.814,137.397 112.814,137.334 112.802,137.28 112.802,131.604 
		114.486,131.604 114.553,131.617 114.619,131.617 114.686,131.632 114.737,131.644 114.803,131.671 114.869,131.684 
		114.934,131.71 114.934,129.485 108.086,129.485 	"/>
	<path fill-rule="evenodd" clip-rule="evenodd" fill="#6C5F87" d="M96.93,134.277h-0.514l0.672-2.818l0.673,2.818H96.93
		L96.93,134.277z M98.181,136.016l0.264,1.119l0.015,0.066l0.013,0.079l0.012,0.054v0.249l-0.012,0.065h2.872l-0.054-0.065
		l-0.04-0.064l-0.039-0.066l-0.027-0.055l-0.024-0.063l-0.027-0.054l-0.026-0.079l-0.013-0.066l-2.056-7.163l-0.027-0.065
		l-0.012-0.066l-0.013-0.067l-0.015-0.063v-0.172l0.015-0.066h-3.504l0.013,0.066v0.172l-0.013,0.063l-0.012,0.067l-0.015,0.066
		l-0.024,0.065l-2.189,7.163l-0.024,0.066l-0.027,0.079l-0.013,0.054l-0.026,0.063l-0.04,0.055l-0.027,0.066l-0.052,0.064
		l-0.039,0.065h2.712l-0.012-0.065v-0.249l0.012-0.054l0.013-0.079l0.015-0.066l0.275-1.119H98.181L98.181,136.016z"/>
	<polygon fill-rule="evenodd" clip-rule="evenodd" fill="#F9DE6E" points="47.081,113.973 47.081,114.062 47.066,114.117 
		47.066,114.247 47.054,114.302 47.054,114.341 47.039,114.564 47.015,114.773 46.988,114.985 46.949,115.182 46.897,115.366 
		46.83,115.538 46.751,115.696 46.658,115.854 46.553,115.986 46.422,116.104 46.289,116.21 46.132,116.288 45.96,116.367 
		45.763,116.421 45.552,116.448 45.328,116.461 45.156,116.448 44.986,116.448 44.829,116.421 44.696,116.395 44.551,116.367 
		44.314,116.288 44.209,116.237 44.104,116.171 43.918,116.04 43.841,115.959 43.774,115.88 43.708,115.789 43.644,115.696 
		43.59,115.604 43.511,115.394 43.432,115.157 43.378,114.906 43.339,114.644 43.314,114.365 43.299,114.062 43.299,112.194 
		43.326,111.904 43.339,111.614 43.366,111.351 43.471,110.85 43.538,110.626 43.628,110.429 43.683,110.335 43.747,110.245 
		43.813,110.166 43.88,110.087 43.958,110.008 44.037,109.942 44.131,109.876 44.237,109.824 44.34,109.77 44.445,109.731 
		44.578,109.691 44.708,109.652 44.841,109.64 44.998,109.612 45.156,109.601 45.328,109.601 45.512,109.612 45.697,109.64 
		45.854,109.664 46.014,109.719 46.159,109.77 46.289,109.849 46.422,109.942 46.527,110.032 46.631,110.153 46.725,110.271 
		46.804,110.417 46.87,110.559 46.921,110.719 46.975,110.903 47,111.088 47.027,111.297 47.027,111.351 47.039,111.418 
		47.039,111.548 47.054,111.602 47.054,111.783 45.908,111.783 45.893,111.614 45.869,111.43 45.854,111.232 45.814,111.033 
		45.775,110.943 45.749,110.864 45.697,110.785 45.645,110.719 45.591,110.665 45.512,110.626 45.421,110.601 45.328,110.586 
		45.237,110.586 45.17,110.601 45.092,110.613 45.025,110.641 44.908,110.692 44.814,110.771 44.723,110.864 44.657,110.97 
		44.605,111.1 44.565,111.219 44.538,111.351 44.512,111.496 44.485,111.759 44.485,114.26 44.512,114.498 44.524,114.616 
		44.538,114.734 44.578,114.854 44.605,114.958 44.708,115.17 44.774,115.248 44.854,115.327 44.947,115.381 45.064,115.433 
		45.183,115.46 45.328,115.472 45.434,115.46 45.539,115.421 45.618,115.366 45.684,115.302 45.736,115.209 45.79,115.104 
		45.814,114.997 45.854,114.88 45.881,114.631 45.893,114.381 45.908,114.157 45.908,113.973 47.081,113.973 	"/>
	<path fill-rule="evenodd" clip-rule="evenodd" fill="#F9DE6E" d="M47.699,112.51l0.014-0.315l0.012-0.29l0.027-0.29l0.025-0.264
		l0.042-0.251l0.063-0.25l0.066-0.224l0.094-0.197l0.103-0.184l0.066-0.079l0.079-0.079l0.079-0.079l0.081-0.065l0.091-0.066
		l0.093-0.052l0.118-0.055l0.106-0.038l0.13-0.04l0.133-0.039l0.13-0.013l0.16-0.027l0.157-0.012h0.33l0.158,0.012l0.157,0.027
		l0.133,0.013l0.13,0.039l0.133,0.04l0.105,0.038l0.118,0.055l0.093,0.052l0.091,0.066l0.079,0.065l0.079,0.079l0.081,0.079
		l0.064,0.079l0.106,0.184l0.093,0.197l0.064,0.224l0.066,0.25l0.039,0.251l0.027,0.264l0.027,0.29l0.012,0.29l0.013,0.315v1.251
		l-0.024,0.604l-0.027,0.278l-0.04,0.263l-0.054,0.251l-0.064,0.236l-0.093,0.211l-0.052,0.092l-0.132,0.184l-0.067,0.079
		l-0.078,0.081l-0.091,0.064l-0.094,0.066l-0.091,0.066l-0.118,0.051l-0.121,0.04l-0.118,0.039l-0.13,0.027l-0.145,0.026
		l-0.16,0.027h-0.157l-0.17,0.013l-0.187-0.013h-0.158l-0.157-0.027l-0.146-0.026l-0.132-0.027l-0.118-0.039l-0.118-0.04
		l-0.118-0.051l-0.094-0.066l-0.091-0.066l-0.093-0.064l-0.079-0.081l-0.066-0.079l-0.13-0.184l-0.054-0.092l-0.091-0.211
		l-0.066-0.236l-0.051-0.251l-0.04-0.263l-0.027-0.278l-0.026-0.604V112.51L47.699,112.51z M48.898,114.051v0.209l0.013,0.238
		l0.027,0.118l0.012,0.118l0.027,0.12l0.04,0.104l0.105,0.212l0.066,0.078l0.079,0.079l0.091,0.054l0.106,0.052l0.132,0.027
		l0.146,0.012l0.143-0.012l0.121-0.027l0.118-0.052l0.091-0.054l0.081-0.079l0.064-0.091l0.105-0.211l0.04-0.118l0.027-0.118
		l0.026-0.264l0.013-0.25v-2.147l-0.013-0.266l-0.015-0.13l-0.012-0.145l-0.027-0.146l-0.027-0.131l-0.039-0.133l-0.064-0.117
		l-0.066-0.106l-0.079-0.105l-0.093-0.078l-0.119-0.052l-0.066-0.027l-0.066-0.013l-0.079-0.015h-0.158l-0.079,0.015l-0.066,0.013
		l-0.066,0.027l-0.118,0.052l-0.105,0.078l-0.079,0.094l-0.066,0.105l-0.052,0.13l-0.04,0.119l-0.039,0.132l-0.016,0.146
		l-0.012,0.13l-0.013,0.133V114.051L48.898,114.051z"/>
	<polygon fill-rule="evenodd" clip-rule="evenodd" fill="#F9DE6E" points="55.35,109.758 56.511,109.758 56.511,116.303 
		55.298,116.303 54.404,113.973 54.283,113.683 53.968,112.772 53.875,112.443 53.771,112.101 53.678,111.747 53.573,111.376 
		53.561,111.376 53.573,111.574 53.6,112.022 53.626,112.258 53.639,112.496 53.667,112.996 53.678,113.234 53.691,113.485 
		53.705,113.722 53.718,113.973 53.718,114.208 53.729,114.433 53.729,116.303 52.572,116.303 52.572,109.758 53.784,109.758 
		54.679,112.141 54.785,112.431 54.903,112.721 54.996,113.011 55.102,113.325 55.205,113.655 55.298,113.984 55.405,114.354 
		55.51,114.734 55.522,114.734 55.495,114.287 55.483,114.051 55.471,113.827 55.444,113.353 55.429,113.116 55.405,112.642 
		55.39,112.418 55.377,112.18 55.365,111.944 55.365,111.72 55.35,111.481 55.35,109.758 	"/>
	<polygon fill-rule="evenodd" clip-rule="evenodd" fill="#F9DE6E" points="61.067,113.973 61.067,114.117 61.055,114.157 
		61.055,114.302 61.04,114.341 61.028,114.564 61.016,114.773 60.974,114.985 60.935,115.182 60.883,115.366 60.816,115.538 
		60.737,115.696 60.646,115.854 60.541,115.986 60.408,116.104 60.278,116.21 60.118,116.288 59.948,116.367 59.764,116.421 
		59.54,116.448 59.316,116.461 59.144,116.448 58.973,116.448 58.682,116.395 58.537,116.367 58.419,116.328 58.301,116.288 
		58.195,116.237 58.089,116.171 57.999,116.104 57.905,116.04 57.841,115.959 57.762,115.88 57.696,115.789 57.59,115.604 
		57.497,115.394 57.418,115.157 57.367,114.906 57.327,114.644 57.312,114.365 57.288,114.062 57.288,112.51 57.3,112.194 
		57.312,111.904 57.327,111.614 57.367,111.351 57.406,111.1 57.458,110.85 57.524,110.626 57.618,110.429 57.669,110.335 
		57.735,110.245 57.802,110.166 57.866,110.087 57.947,110.008 58.025,109.942 58.117,109.876 58.223,109.824 58.328,109.77 
		58.446,109.731 58.564,109.691 58.696,109.652 58.842,109.64 58.987,109.612 59.144,109.601 59.316,109.601 59.501,109.612 
		59.686,109.64 59.842,109.664 60,109.719 60.145,109.77 60.29,109.849 60.408,109.942 60.526,110.032 60.62,110.153 
		60.711,110.271 60.79,110.417 60.856,110.559 60.909,110.719 60.961,110.903 60.988,111.088 61.016,111.297 61.016,111.351 
		61.028,111.418 61.028,111.481 61.04,111.548 61.04,111.783 59.894,111.783 59.882,111.614 59.87,111.43 59.842,111.232 
		59.803,111.033 59.776,110.943 59.737,110.864 59.697,110.785 59.646,110.719 59.58,110.665 59.501,110.626 59.407,110.601 
		59.316,110.586 59.235,110.586 59.156,110.601 59.078,110.613 59.012,110.641 58.894,110.692 58.802,110.771 58.709,110.864 
		58.643,110.97 58.591,111.1 58.552,111.219 58.524,111.351 58.498,111.496 58.485,111.626 58.485,111.759 58.473,112.022 
		58.473,114.051 58.485,114.26 58.498,114.498 58.513,114.616 58.537,114.734 58.564,114.854 58.591,114.958 58.643,115.063 
		58.696,115.17 58.763,115.248 58.842,115.327 58.948,115.381 59.05,115.433 59.171,115.46 59.316,115.472 59.42,115.46 
		59.525,115.421 59.604,115.366 59.67,115.302 59.725,115.209 59.776,115.104 59.816,114.997 59.842,114.88 59.87,114.631 
		59.894,114.381 59.894,114.157 59.909,113.973 61.067,113.973 	"/>
	<polygon fill-rule="evenodd" clip-rule="evenodd" fill="#F9DE6E" points="61.711,116.303 61.711,109.758 64.979,109.758 
		64.979,110.719 62.872,110.719 62.872,112.364 64.82,112.364 64.82,113.325 62.872,113.325 62.872,115.342 64.979,115.342 
		64.979,116.303 61.711,116.303 	"/>
	<polygon fill-rule="evenodd" clip-rule="evenodd" fill="#F9DE6E" points="68.417,109.758 69.589,109.758 69.589,116.303 
		68.377,116.303 67.468,113.973 67.362,113.683 67.244,113.38 67.138,113.074 67.047,112.772 66.941,112.443 66.835,112.101 
		66.745,111.747 66.639,111.376 66.625,111.376 66.639,111.574 66.651,111.799 66.679,112.022 66.703,112.496 66.73,112.996 
		66.745,113.234 66.757,113.485 66.769,113.722 66.784,113.973 66.784,114.208 66.796,114.433 66.796,114.656 66.809,114.867 
		66.809,116.303 65.651,116.303 65.651,109.758 66.848,109.758 67.746,112.141 67.863,112.431 68.073,113.011 68.166,113.325 
		68.377,113.984 68.469,114.354 68.574,114.734 68.601,114.734 68.574,114.511 68.562,114.287 68.547,114.051 68.535,113.827 
		68.496,113.116 68.483,112.878 68.469,112.642 68.456,112.418 68.441,112.18 68.441,111.944 68.429,111.72 68.429,111.258 
		68.417,111.033 68.417,109.758 	"/>
	<polygon fill-rule="evenodd" clip-rule="evenodd" fill="#F9DE6E" points="70.038,109.758 73.907,109.758 73.907,110.719 
		72.552,110.719 72.552,116.303 71.392,116.303 71.392,110.719 70.038,110.719 70.038,109.758 	"/>
	<path fill-rule="evenodd" clip-rule="evenodd" fill="#F9DE6E" d="M75.503,113.485v2.817h-1.161v-6.545h2.385l0.169,0.012
		l0.172,0.027l0.172,0.039l0.143,0.04l0.145,0.066l0.146,0.065l0.118,0.079l0.121,0.106l0.091,0.104l0.093,0.131l0.063,0.146
		l0.067,0.157l0.039,0.185l0.027,0.196v0.489l-0.04,0.264l-0.012,0.117l-0.042,0.131l-0.04,0.12l-0.103,0.21l-0.066,0.104
		l-0.079,0.094l-0.094,0.067l-0.091,0.078l-0.12,0.052l-0.119,0.039l-0.145,0.027v0.027l0.12,0.012l0.118,0.039l0.106,0.027
		l0.091,0.052l0.079,0.054l0.079,0.064l0.054,0.065l0.066,0.066l0.04,0.092l0.039,0.081l0.039,0.091l0.025,0.094l0.027,0.209
		l0.015,0.238v0.711l0.012,0.342l0.04,0.341l0.039,0.303l0.027,0.121l0.039,0.105l0.04,0.091l0.052,0.052v0.12h-1.276l-0.04-0.172
		l-0.04-0.211l-0.015-0.209l-0.013-0.239l-0.012-0.224v-0.604l-0.015-0.157v-0.16l-0.013-0.169l-0.027-0.16l-0.027-0.064
		l-0.024-0.081l-0.027-0.064l-0.039-0.054l-0.052-0.051l-0.055-0.055l-0.051-0.024l-0.079-0.027l-0.12-0.039l-0.118-0.027
		l-0.118-0.013l-0.133-0.012H75.503L75.503,113.485z M75.503,112.523h0.908l0.145-0.027l0.118-0.038l0.066-0.027l0.052-0.039
		l0.106-0.106l0.039-0.052l0.04-0.081l0.027-0.063l0.039-0.094l0.015-0.091l0.025-0.094v-0.117l0.015-0.106l-0.015-0.13v-0.121
		l-0.025-0.104l-0.015-0.093l-0.039-0.079l-0.027-0.065l-0.04-0.064l-0.052-0.055l-0.039-0.039l-0.066-0.039l-0.051-0.027
		l-0.067-0.012l-0.145-0.027l-0.158-0.013h-0.855V112.523L75.503,112.523z"/>
	<path fill-rule="evenodd" clip-rule="evenodd" fill="#F9DE6E" d="M78.676,116.303l1.489-6.545h1.567l1.409,6.545h-1.237
		l-0.318-1.659h-1.357l-0.302,1.659H78.676L78.676,116.303z M80.414,113.683h0.989l-0.303-1.857l-0.027-0.12l-0.012-0.104
		l-0.027-0.12l-0.012-0.105l-0.015-0.118v-0.118l-0.013-0.106l-0.012-0.117l-0.015-0.052v-0.105l-0.012-0.066v-0.106l-0.012-0.051
		v-0.055h-0.027v0.055l-0.012,0.051v0.106l-0.015,0.066v0.051l-0.012,0.055v0.052l-0.013,0.117l-0.015,0.106l-0.027,0.236
		l-0.012,0.105l-0.013,0.12l-0.014,0.104l-0.024,0.12L80.414,113.683L80.414,113.683z"/>
	<polygon fill-rule="evenodd" clip-rule="evenodd" fill="#F9DE6E" points="82.654,109.758 86.526,109.758 86.526,110.719 
		85.168,110.719 85.168,116.303 84.011,116.303 84.011,110.719 82.654,110.719 82.654,109.758 	"/>
	<polygon fill-rule="evenodd" clip-rule="evenodd" fill="#F9DE6E" points="86.935,116.303 86.935,109.758 90.2,109.758 
		90.2,110.719 88.093,110.719 88.093,112.364 90.043,112.364 90.043,113.325 88.093,113.325 88.093,115.342 90.2,115.342 
		90.2,116.303 86.935,116.303 	"/>
	<path fill-rule="evenodd" clip-rule="evenodd" fill="#F9DE6E" d="M90.898,116.303v-6.545h2.425l0.117,0.012l0.131,0.013
		l0.159,0.054l0.158,0.066l0.091,0.04l0.082,0.052l0.079,0.065l0.079,0.066l0.079,0.079l0.078,0.093l0.079,0.092l0.067,0.105
		l0.093,0.185l0.063,0.212l0.067,0.235l0.039,0.264l0.04,0.303l0.027,0.313v0.357l0.012,0.396v0.486l-0.012,0.503l-0.012,0.248
		l-0.054,0.474l-0.039,0.239l-0.052,0.224l-0.067,0.209l-0.079,0.199l-0.093,0.196l-0.105,0.173l-0.13,0.157l-0.067,0.066
		l-0.078,0.063l-0.079,0.066l-0.093,0.066l-0.091,0.052l-0.106,0.039l-0.105,0.027l-0.106,0.026l-0.118,0.013h-0.106l-0.118,0.015
		H90.898L90.898,116.303z M92.558,115.342l0.185-0.015l0.172-0.013l0.13-0.039l0.132-0.055l0.106-0.078l0.079-0.079l0.079-0.117
		l0.066-0.134l0.04-0.156l0.039-0.17l0.039-0.199l0.013-0.236l0.027-0.526v-1.186l-0.027-0.449l-0.027-0.196l-0.024-0.185
		l-0.039-0.158l-0.04-0.132l-0.053-0.119l-0.067-0.104l-0.063-0.092l-0.082-0.066l-0.09-0.052l-0.093-0.042l-0.119-0.024h-0.882
		v4.623H92.558L92.558,115.342z"/>
	<polygon fill-rule="evenodd" clip-rule="evenodd" fill="#F9DE6E" points="98.958,111.481 99.01,111.602 99.052,111.72 
		99.091,111.838 99.131,111.969 99.154,112.089 99.182,112.22 99.209,112.352 99.236,112.482 99.249,112.482 99.288,112.298 
		99.327,112.128 99.367,111.956 99.42,111.811 99.473,111.666 99.524,111.521 99.578,111.376 99.63,111.246 100.183,109.758 
		101.462,109.758 99.814,113.524 99.814,116.303 98.656,116.303 98.656,113.524 97.036,109.758 98.3,109.758 98.958,111.481 	"/>
	<polygon fill-rule="evenodd" clip-rule="evenodd" fill="#F9DE6E" points="101.831,116.303 101.831,109.758 105.096,109.758 
		105.096,110.719 102.988,110.719 102.988,112.364 104.926,112.364 104.926,113.325 102.988,113.325 102.988,115.342 
		105.096,115.342 105.096,116.303 101.831,116.303 	"/>
	<path fill-rule="evenodd" clip-rule="evenodd" fill="#F9DE6E" d="M105.269,116.303l1.487-6.545h1.568l1.409,6.545h-1.252
		l-0.303-1.659h-1.356l-0.317,1.659H105.269L105.269,116.303z M107.007,113.683h0.988l-0.317-1.857l-0.013-0.12l-0.027-0.104
		l-0.012-0.12l-0.016-0.105l-0.012-0.118l-0.013-0.118l-0.015-0.106l-0.012-0.117v-0.106l-0.015-0.051v-0.118l-0.012-0.055v-0.051
		l-0.013-0.055h-0.015l-0.013,0.055v0.105l-0.012,0.052v0.066l-0.016,0.051v0.106l-0.012,0.117l-0.013,0.106l-0.015,0.118
		l-0.013,0.118l-0.012,0.105l-0.016,0.12l-0.012,0.104l-0.027,0.12L107.007,113.683L107.007,113.683z"/>
	<polygon fill-rule="evenodd" clip-rule="evenodd" fill="#F9DE6E" points="112.485,111.747 112.485,111.535 112.473,111.324 
		112.458,111.219 112.445,111.127 112.394,110.943 112.352,110.876 112.3,110.798 112.249,110.743 112.183,110.692 112.104,110.641 
		112.025,110.613 111.919,110.601 111.813,110.586 111.668,110.601 111.535,110.626 111.43,110.665 111.339,110.731 111.3,110.771 
		111.272,110.81 111.233,110.864 111.206,110.916 111.182,111.046 111.167,111.191 111.167,111.284 111.182,111.376 
		111.193,111.442 111.221,111.521 111.287,111.653 111.365,111.759 111.457,111.865 111.575,111.956 111.695,112.034 
		111.825,112.128 111.983,112.233 112.167,112.364 112.366,112.496 112.562,112.642 112.748,112.787 112.933,112.933 
		113.104,113.074 113.235,113.207 113.38,113.353 113.485,113.51 113.578,113.67 113.657,113.827 113.697,113.997 113.736,114.182 
		113.764,114.365 113.764,114.577 113.749,114.801 113.725,115.012 113.685,115.209 113.618,115.394 113.552,115.565 
		113.459,115.711 113.354,115.854 113.235,115.974 113.104,116.092 112.959,116.183 112.802,116.275 112.63,116.343 
		112.445,116.395 112.262,116.421 112.064,116.448 111.853,116.461 111.602,116.448 111.365,116.421 111.154,116.367 
		110.97,116.315 110.798,116.237 110.641,116.131 110.496,116.025 110.377,115.907 110.271,115.762 110.193,115.617 
		110.114,115.447 110.061,115.275 110.009,115.091 109.981,114.895 109.957,114.471 109.957,113.984 111.115,113.984 
		111.115,114.604 111.142,114.812 111.167,114.906 111.193,114.997 111.221,115.091 111.261,115.157 111.312,115.236 
		111.365,115.287 111.417,115.342 111.484,115.394 111.562,115.421 111.656,115.447 111.747,115.472 111.932,115.472 
		112.025,115.46 112.104,115.447 112.167,115.421 112.234,115.394 112.288,115.354 112.339,115.314 112.394,115.275 
		112.433,115.221 112.473,115.17 112.524,115.039 112.562,114.88 112.562,114.564 112.538,114.433 112.497,114.313 112.445,114.208 
		112.379,114.103 112.3,114.012 112.209,113.918 112.104,113.839 111.865,113.655 111.629,113.485 111.378,113.312 111.142,113.142 
		110.903,112.972 110.68,112.772 110.562,112.667 110.469,112.563 110.365,112.458 110.271,112.324 110.205,112.22 110.142,112.101 
		110.102,111.969 110.048,111.85 110.021,111.72 109.996,111.587 109.981,111.457 109.97,111.324 109.981,111.127 110.009,110.931 
		110.036,110.759 110.088,110.586 110.153,110.429 110.232,110.298 110.326,110.166 110.429,110.048 110.55,109.942 110.68,109.849 
		110.84,109.782 110.997,109.719 111.182,109.664 111.365,109.625 111.575,109.612 111.801,109.601 111.971,109.612 
		112.128,109.612 112.273,109.64 112.406,109.664 112.538,109.704 112.656,109.742 112.763,109.797 112.854,109.849 
		112.947,109.902 113.038,109.97 113.116,110.032 113.183,110.111 113.301,110.271 113.395,110.429 113.459,110.601 
		113.513,110.785 113.552,110.97 113.578,111.14 113.604,111.47 113.604,111.747 112.485,111.747 	"/>
	<polygon fill-rule="evenodd" clip-rule="evenodd" fill="#F9DE6E" points="114.054,109.758 117.924,109.758 117.924,110.719 
		116.568,110.719 116.568,116.303 115.408,116.303 115.408,110.719 114.054,110.719 114.054,109.758 	"/>
	<polygon fill-rule="evenodd" clip-rule="evenodd" fill="#F9DE6E" points="120.164,116.303 120.164,109.758 123.43,109.758 
		123.43,110.719 121.321,110.719 121.321,112.364 123.259,112.364 123.259,113.325 121.321,113.325 121.321,115.342 123.43,115.342 
		123.43,116.303 120.164,116.303 	"/>
	<polygon fill-rule="evenodd" clip-rule="evenodd" fill="#F9DE6E" points="128.039,116.303 126.722,116.303 126.05,114.71 
		126.011,114.604 125.972,114.511 125.944,114.405 125.905,114.302 125.881,114.196 125.854,114.09 125.826,113.984 
		125.814,113.879 125.799,113.879 125.774,114.036 125.735,114.196 125.696,114.354 125.643,114.498 125.591,114.656 
		125.523,114.801 125.458,114.946 125.392,115.091 124.878,116.303 123.613,116.303 125.141,112.983 123.681,109.758 
		124.971,109.758 125.603,111.246 125.643,111.336 125.682,111.442 125.721,111.535 125.76,111.642 125.787,111.747 125.799,111.85 
		125.826,111.956 125.826,112.062 125.854,112.062 125.905,111.747 125.944,111.602 125.999,111.442 126.05,111.297 
		126.117,111.152 126.169,111.009 126.234,110.864 126.683,109.758 127.985,109.758 126.497,112.983 128.039,116.303 	"/>
	<polygon fill-rule="evenodd" clip-rule="evenodd" fill="#F9DE6E" points="128.027,109.758 131.897,109.758 131.897,110.719 
		130.543,110.719 130.543,116.303 129.382,116.303 129.382,110.719 128.027,110.719 128.027,109.758 	"/>
	<path fill-rule="evenodd" clip-rule="evenodd" fill="#F9DE6E" d="M133.49,113.485v2.817h-1.157v-6.545h2.37l0.185,0.012
		l0.172,0.027l0.157,0.039l0.157,0.04l0.146,0.066l0.133,0.065l0.13,0.079l0.212,0.211l0.094,0.131l0.063,0.146l0.054,0.157
		l0.052,0.185l0.027,0.196v0.489l-0.04,0.264l-0.026,0.117l-0.027,0.131l-0.039,0.12l-0.104,0.21l-0.066,0.104l-0.079,0.094
		l-0.093,0.067l-0.091,0.078l-0.12,0.052l-0.119,0.039l-0.145,0.027v0.027l0.118,0.012l0.12,0.039l0.105,0.027l0.092,0.052
		l0.078,0.054l0.067,0.064l0.132,0.132l0.04,0.092l0.039,0.081l0.039,0.091l0.024,0.094l0.027,0.209l0.012,0.238v0.711l0.015,0.342
		l0.027,0.341l0.052,0.303l0.027,0.121l0.039,0.105l0.04,0.091l0.051,0.052v0.12h-1.275l-0.055-0.172l-0.051-0.42l-0.013-0.239
		v-0.644l-0.015-0.185v-0.317l-0.013-0.169l-0.039-0.16l-0.016-0.064l-0.024-0.081l-0.039-0.064l-0.026-0.054l-0.055-0.051
		l-0.052-0.055l-0.052-0.024l-0.081-0.027l-0.118-0.039l-0.118-0.027l-0.117-0.013l-0.133-0.012H133.49L133.49,113.485z
		 M133.49,112.523h0.91l0.133-0.027l0.13-0.038l0.066-0.027l0.052-0.039l0.055-0.053l0.039-0.054l0.052-0.052l0.039-0.081
		l0.027-0.063l0.027-0.094l0.024-0.091l0.015-0.094l0.013-0.117v-0.236l-0.013-0.121l-0.015-0.104l-0.024-0.093l-0.027-0.079
		l-0.027-0.065l-0.039-0.064l-0.052-0.055l-0.054-0.039l-0.052-0.039l-0.052-0.027l-0.066-0.012l-0.146-0.027l-0.156-0.013h-0.859
		V112.523L133.49,112.523z"/>
	<path fill-rule="evenodd" clip-rule="evenodd" fill="#F9DE6E" d="M136.665,116.303l1.488-6.545h1.568l1.409,6.545h-1.252
		l-0.302-1.659h-1.358l-0.302,1.659H136.665L136.665,116.303z M138.404,113.683h0.987l-0.314-1.857l-0.015-0.12l-0.027-0.104
		l-0.012-0.12l-0.013-0.105l-0.027-0.236l-0.012-0.106v-0.117l-0.015-0.052v-0.105l-0.013-0.066v-0.052l-0.012-0.055v-0.051
		l-0.015-0.055h-0.013v0.055l-0.013,0.051v0.055l-0.015,0.052v0.117l-0.012,0.055v0.052l-0.015,0.117l-0.013,0.106l-0.027,0.236
		l-0.012,0.105l-0.013,0.12l-0.015,0.104l-0.024,0.12L138.404,113.683L138.404,113.683z"/>
	<polygon fill-rule="evenodd" clip-rule="evenodd" fill="#F9DE6E" points="145.2,113.973 145.188,114.023 145.188,114.208 
		145.173,114.247 145.173,114.341 145.16,114.564 145.133,114.773 145.094,114.985 145.055,115.182 145.003,115.366 
		144.937,115.538 144.858,115.696 144.768,115.854 144.661,115.986 144.541,116.104 144.396,116.21 144.251,116.288 
		144.081,116.367 143.882,116.421 143.673,116.448 143.435,116.461 143.265,116.448 143.105,116.448 142.947,116.421 
		142.803,116.395 142.672,116.367 142.54,116.328 142.422,116.288 142.316,116.237 142.225,116.171 142.119,116.104 142.04,116.04 
		141.959,115.959 141.881,115.88 141.829,115.789 141.763,115.696 141.711,115.604 141.618,115.394 141.551,115.157 
		141.499,114.906 141.46,114.644 141.433,114.365 141.408,113.761 141.408,112.51 141.421,112.194 141.433,111.904 141.46,111.614 
		141.487,111.351 141.526,111.1 141.578,110.85 141.656,110.626 141.75,110.429 141.856,110.245 141.92,110.166 142.001,110.087 
		142.065,110.008 142.158,109.942 142.249,109.876 142.343,109.824 142.448,109.77 142.566,109.731 142.685,109.691 
		142.817,109.652 142.962,109.64 143.105,109.612 143.265,109.601 143.435,109.601 143.634,109.612 143.976,109.664 
		144.133,109.719 144.278,109.77 144.41,109.849 144.529,109.942 144.646,110.032 144.753,110.153 144.831,110.271 144.991,110.559 
		145.043,110.719 145.082,110.903 145.121,111.088 145.133,111.297 145.148,111.351 145.148,111.418 145.16,111.481 145.16,111.783 
		144.015,111.783 144.003,111.614 143.987,111.43 143.963,111.232 143.924,111.033 143.896,110.943 143.857,110.864 
		143.818,110.785 143.764,110.719 143.7,110.665 143.634,110.626 143.54,110.601 143.435,110.586 143.355,110.586 143.277,110.601 
		143.211,110.613 143.146,110.641 143.026,110.692 142.92,110.771 142.842,110.864 142.778,110.97 142.724,111.1 142.685,111.219 
		142.645,111.351 142.633,111.496 142.605,111.759 142.605,114.26 142.618,114.498 142.633,114.616 142.657,114.734 
		142.685,114.854 142.764,115.063 142.83,115.17 142.896,115.248 142.975,115.327 143.066,115.381 143.171,115.433 143.305,115.46 
		143.435,115.472 143.556,115.46 143.646,115.421 143.725,115.366 143.791,115.302 143.857,115.209 143.896,115.104 
		143.936,114.997 143.963,114.88 144.003,114.631 144.015,114.381 144.027,114.157 144.027,113.973 145.2,113.973 	"/>
	<polygon fill-rule="evenodd" clip-rule="evenodd" fill="#F9DE6E" points="145.45,109.758 149.324,109.758 149.324,110.719 
		147.979,110.719 147.979,116.303 146.809,116.303 146.809,110.719 145.45,110.719 145.45,109.758 	"/>
	<path fill-rule="evenodd" clip-rule="evenodd" fill="#F9DE6E" d="M176.187,83.303l0.006,0.013l0.011,0.063l0.014,0.054l0.014,0.051
		l0.146,0.607l-0.081-0.054l-0.064-0.052l-0.065-0.067l-0.066-0.051l-0.131-0.133l-0.066-0.066l-0.105-0.106l-0.04-0.052
		l-0.054-0.055l-0.024-0.051l-0.027-0.052l-0.009-0.051H176.187L176.187,83.303z M177.581,83.303l-0.008,0.024l-0.026,0.052
		l-0.025,0.042l-0.027,0.037l-0.051,0.055l-0.039,0.052l-0.055,0.054l-0.039,0.039l-0.052,0.052l-0.027,0.027l-0.383,0.342
		l0.015-0.105l0.026-0.118l0.024-0.131l0.027-0.145l0.039-0.132l0.04-0.13l0.005-0.013H177.581L177.581,83.303z M176.255,85.419
		l-0.012,0.04l-0.013,0.066l-0.014,0.066l-0.024,0.067l-0.016,0.066l-0.024,0.064l-0.027,0.054l-0.015,0.04l-0.039,0.039
		l-0.024,0.04l-0.055,0.012l-0.039,0.015L175.901,86l-0.039-0.013l-0.055-0.015l-0.052-0.024l-0.039-0.027l-0.027-0.039l-0.026-0.04
		l-0.024-0.039v-0.04l-0.015-0.054l0.015-0.052l0.024-0.04l0.054-0.079l0.079-0.093l0.079-0.106l0.317-0.275l0.09-0.079l0.094-0.066
		L176.255,85.419L176.255,85.419z M176.849,84.972l0.015-0.012l0.514,0.459l0.039,0.054l0.052,0.052l0.039,0.04l0.04,0.054
		l0.015,0.052l0.012,0.066v0.052l-0.039,0.066l-0.027,0.054l-0.039,0.025l-0.039,0.026l-0.052,0.027L177.323,86h-0.053l-0.039-0.013
		l-0.054-0.015l-0.039-0.039l-0.04-0.04l-0.039-0.051l-0.027-0.066l-0.012-0.066l-0.027-0.064l-0.013-0.055l-0.012-0.051
		L176.849,84.972L176.849,84.972z M177.691,84.315l0.039-0.015l0.066-0.012l0.067-0.013l0.065-0.015l0.066-0.012h0.064l0.106,0.027
		l0.038,0.024l0.039,0.04l0.027,0.054l0.013,0.052l0.015,0.054l-0.015,0.052v0.052l-0.024,0.054l-0.055,0.051l-0.038,0.039
		l-0.067,0.015l-0.063,0.013l-0.133-0.027l-0.052-0.012l-0.066-0.013l-0.094-0.015l-0.091-0.024l-0.079-0.027l-0.093-0.027
		l-0.079-0.027l-0.091-0.024l-0.081-0.04l-0.079-0.039L177.691,84.315L177.691,84.315z M176.099,84.524v0.015l-0.554,0.185
		l-0.052,0.013l-0.054,0.026l-0.063,0.013h-0.067l-0.066,0.013h-0.066l-0.105-0.025l-0.039-0.039l-0.04-0.039l-0.024-0.04
		l-0.014-0.054l-0.014-0.052v-0.054l0.014-0.052l0.026-0.04l0.039-0.066l0.052-0.027l0.055-0.024h0.117l0.066,0.013l0.131,0.026
		L176.099,84.524L176.099,84.524z M176.416,84.854l-0.066-0.039l-0.055-0.067l-0.04-0.063l-0.024-0.067l-0.014-0.079v-0.078
		l0.014-0.079l0.024-0.067l0.055-0.066l0.052-0.054l0.066-0.052l0.078-0.026l0.067-0.013h0.078l0.078,0.027l0.079,0.024l0.066,0.054
		l0.055,0.052l0.039,0.066l0.024,0.079l0.015,0.079v0.066l-0.027,0.079l-0.027,0.079l-0.051,0.066l-0.054,0.052l-0.064,0.042
		l-0.066,0.024l-0.078,0.015h-0.079l-0.066-0.015L176.416,84.854L176.416,84.854z"/>
	<path fill-rule="evenodd" clip-rule="evenodd" fill="#F9DE6E" d="M175.642,83.303l-0.003-0.015v-0.066l0.024-0.067l0.039-0.039
		l0.042-0.04l0.039-0.026l0.052-0.025l0.052-0.015h0.054l0.052,0.015l0.079,0.052l0.039,0.051l0.027,0.055l0.049,0.121H175.642
		L175.642,83.303z M177.025,83.303l0.034-0.093l0.039-0.093l0.027-0.04l0.078-0.052l0.04-0.015l0.054-0.012l0.052,0.012l0.04,0.015
		l0.054,0.013l0.039,0.027l0.039,0.039l0.025,0.04l0.026,0.039l0.016,0.051v0.04l-0.008,0.029H177.025L177.025,83.303z"/>
	<polygon fill-rule="evenodd" clip-rule="evenodd" fill="#000707" points="25.35,77.994 32.08,77.994 35.858,93.534 35.925,93.534 
		38.731,77.994 45.288,77.994 39.744,105.543 32.131,105.543 25.35,77.994 	"/>
	<polygon fill-rule="evenodd" clip-rule="evenodd" fill="#000707" points="80.507,96.403 80.467,96.839 80.401,97.26 80.322,97.694 
		80.229,98.13 80.126,98.562 80.02,98.985 79.888,99.405 79.624,100.223 79.479,100.605 79.322,100.96 79.176,101.302 
		79.004,101.618 78.848,101.921 78.69,102.185 78.518,102.408 78.36,102.619 78.201,102.816 78.031,103.016 77.858,103.2 
		77.675,103.369 77.49,103.542 77.293,103.699 77.097,103.856 76.885,104.002 76.674,104.146 76.464,104.279 76.253,104.397 
		75.806,104.633 75.582,104.739 75.343,104.832 74.884,105.003 74.409,105.162 73.947,105.28 73.487,105.386 73.027,105.465 
		72.577,105.517 72.13,105.543 71.709,105.555 71.247,105.543 70.799,105.492 70.352,105.41 69.904,105.307 69.47,105.162 
		69.049,104.99 68.641,104.793 68.232,104.569 67.836,104.306 67.44,104.017 67.072,103.699 66.718,103.357 66.361,102.988 
		66.019,102.592 65.702,102.172 65.387,101.725 65.097,101.263 64.82,100.764 64.556,100.237 64.308,99.696 64.07,99.13 
		63.858,98.538 63.661,97.931 63.477,97.286 63.32,96.642 63.187,95.956 63.069,95.258 62.963,94.547 62.884,93.81 62.833,93.044 
		62.793,92.27 62.779,91.479 62.793,90.674 62.833,89.897 62.884,89.147 62.963,88.41 63.069,87.687 63.187,86.988 63.332,86.317 
		63.492,85.658 63.676,85.026 63.873,84.407 64.084,83.829 64.32,83.249 64.583,82.708 64.846,82.193 65.137,81.695 65.439,81.22 
		65.756,80.772 66.098,80.35 66.439,79.956 66.809,79.587 67.192,79.245 67.574,78.928 67.981,78.653 68.402,78.39 68.825,78.166 
		69.26,77.955 69.72,77.782 70.183,77.652 70.642,77.531 71.129,77.453 71.616,77.414 72.117,77.389 72.513,77.401 72.895,77.428 
		73.291,77.48 73.671,77.546 74.052,77.638 74.437,77.744 74.805,77.861 75.174,78.006 75.528,78.166 75.885,78.348 76.226,78.547 
		76.568,78.756 76.885,78.995 77.2,79.245 77.504,79.509 77.792,79.799 78.082,80.102 78.346,80.416 78.597,80.758 78.835,81.114 
		79.059,81.482 79.268,81.864 79.467,82.26 79.637,82.68 79.796,83.116 79.927,83.563 80.045,84.025 80.15,84.5 80.229,84.999 
		80.283,85.501 80.311,86.027 80.322,86.565 73.723,86.565 73.671,86.145 73.604,85.646 73.553,85.395 73.487,85.132 73.408,84.869 
		73.314,84.618 73.209,84.367 73.079,84.143 73.012,84.038 72.934,83.946 72.854,83.854 72.761,83.763 72.671,83.684 72.565,83.618 
		72.459,83.551 72.354,83.512 72.235,83.472 72.117,83.433 71.985,83.42 71.839,83.406 71.749,83.42 71.655,83.433 71.552,83.457 
		71.431,83.484 71.313,83.539 71.195,83.603 71.063,83.669 70.933,83.763 70.799,83.854 70.669,83.972 70.524,84.104 70.392,84.25 
		70.246,84.407 70.101,84.591 69.971,84.788 69.826,84.999 69.693,85.235 69.562,85.486 69.444,85.764 69.324,86.066 69.206,86.381 
		69.088,86.71 68.995,87.08 68.892,87.463 68.81,87.872 68.731,88.304 68.668,88.754 68.613,89.241 68.562,89.74 68.535,90.281 
		68.507,90.846 68.496,91.439 68.507,92.032 68.522,92.584 68.547,93.125 68.574,93.637 68.626,94.126 68.668,94.574 68.731,95.007 
		68.798,95.415 68.876,95.798 68.955,96.168 69.049,96.51 69.14,96.826 69.233,97.113 69.339,97.392 69.457,97.655 69.575,97.879 
		69.693,98.103 69.826,98.3 69.943,98.483 70.089,98.644 70.222,98.786 70.366,98.919 70.497,99.037 70.642,99.143 70.799,99.222 
		70.944,99.301 71.089,99.366 71.247,99.405 71.392,99.445 71.552,99.473 71.697,99.484 71.973,99.484 72.09,99.473 72.196,99.46 
		72.314,99.433 72.42,99.394 72.526,99.354 72.631,99.301 72.722,99.249 72.816,99.182 72.906,99.104 73,99.024 73.079,98.919 
		73.157,98.827 73.314,98.589 73.381,98.459 73.448,98.314 73.5,98.154 73.566,97.997 73.62,97.827 73.711,97.443 73.79,97.023 
		73.855,96.561 73.896,96.049 73.922,95.481 73.935,94.876 69.629,94.876 69.629,89.846 80.507,89.846 80.519,90.03 80.546,90.517 
		80.586,91.242 80.612,92.165 80.625,93.204 80.625,94.296 80.612,94.849 80.586,95.391 80.559,95.917 80.507,96.403 	"/>
	<polygon fill-rule="evenodd" clip-rule="evenodd" fill="#000707" points="47.238,77.876 60.922,77.876 60.922,83.578 
		53.137,83.578 53.137,88.437 60.79,88.437 60.79,93.915 53.137,93.915 53.137,99.473 61.279,99.473 61.279,105.41 47.238,105.41 
		47.238,77.876 	"/>
	<polygon fill-rule="evenodd" clip-rule="evenodd" fill="#000707" points="24.189,76.848 30.919,76.848 34.701,92.388 
		34.765,92.388 37.585,76.848 44.131,76.848 38.586,104.397 30.985,104.397 24.189,76.848 	"/>
	<polygon fill-rule="evenodd" clip-rule="evenodd" fill="#FFFFFF" points="31.539,103.554 38.071,103.554 43.091,77.704 
		38.071,77.704 34.74,95.088 30.433,77.704 25.229,77.704 31.539,103.554 	"/>
	<polygon fill-rule="evenodd" clip-rule="evenodd" fill="#000707" points="79.361,95.27 79.31,95.692 79.244,96.113 79.165,96.549 
		78.98,97.419 78.742,98.26 78.611,98.668 78.466,99.076 78.321,99.46 78.176,99.814 78.019,100.158 77.858,100.485 77.689,100.775 
		77.529,101.039 77.359,101.263 77.215,101.474 77.057,101.67 76.885,101.869 76.529,102.224 76.332,102.396 76.135,102.553 
		75.936,102.711 75.739,102.855 75.528,103.001 75.304,103.133 75.093,103.252 74.869,103.369 74.646,103.487 74.422,103.593 
		74.185,103.687 73.723,103.871 73.263,104.017 72.789,104.134 72.329,104.24 71.867,104.318 71.419,104.37 70.984,104.397 
		70.563,104.409 70.101,104.397 69.642,104.346 69.193,104.265 68.759,104.161 68.323,104.017 67.891,103.844 67.48,103.647 
		67.072,103.424 66.679,103.158 66.295,102.87 65.914,102.553 65.557,102.212 65.203,101.842 64.874,101.446 64.544,101.039 
		64.242,100.591 63.939,100.116 63.661,99.617 63.398,99.104 63.147,98.551 62.911,97.984 62.7,97.392 62.503,96.785 62.331,96.152 
		62.174,95.496 62.029,94.81 61.91,94.112 61.805,93.401 61.738,92.664 61.672,91.902 61.647,91.122 61.633,90.333 61.647,89.543 
		61.672,88.767 61.738,88.002 61.817,87.264 61.91,86.554 62.029,85.855 62.174,85.171 62.331,84.513 62.516,83.88 62.715,83.261 
		62.938,82.68 63.174,82.115 63.425,81.562 63.7,81.048 63.979,80.549 64.281,80.074 64.611,79.626 64.94,79.207 65.294,78.811 
		65.651,78.441 66.032,78.1 66.428,77.782 66.824,77.507 67.244,77.244 67.664,77.02 68.115,76.809 68.562,76.637 69.022,76.506 
		69.496,76.386 69.971,76.307 70.458,76.268 70.959,76.255 71.353,76.255 71.749,76.283 72.13,76.334 72.526,76.4 72.906,76.491 
		73.276,76.598 73.659,76.715 74.013,76.86 74.382,77.032 74.724,77.205 75.067,77.401 75.41,77.613 75.739,77.849 76.042,78.1 
		76.358,78.375 76.646,78.653 76.925,78.956 77.188,79.27 77.438,79.614 77.689,79.968 77.913,80.337 78.109,80.721 78.306,81.114 
		78.479,81.537 78.636,81.97 78.769,82.417 78.887,82.879 78.993,83.354 79.071,83.854 79.123,84.355 79.165,84.881 79.176,85.419 
		72.565,85.419 72.526,84.999 72.447,84.513 72.393,84.25 72.262,83.723 72.156,83.472 72.051,83.222 71.921,82.998 71.854,82.892 
		71.776,82.801 71.697,82.708 71.604,82.617 71.51,82.538 71.419,82.472 71.313,82.417 71.195,82.366 71.077,82.326 70.959,82.287 
		70.827,82.272 70.682,82.26 70.59,82.272 70.497,82.287 70.392,82.314 70.286,82.354 70.167,82.393 70.038,82.457 69.917,82.523 
		69.787,82.617 69.642,82.708 69.508,82.826 69.363,82.958 69.233,83.103 69.088,83.261 68.955,83.446 68.81,83.642 68.68,83.854 
		68.547,84.092 68.417,84.34 68.284,84.618 68.166,84.92 68.048,85.235 67.942,85.565 67.836,85.934 67.746,86.317 67.652,86.726 
		67.574,87.159 67.507,87.608 67.455,88.095 67.401,88.609 67.376,89.135 67.35,89.7 67.35,90.886 67.362,91.451 67.389,91.979 
		67.429,92.491 67.468,92.98 67.522,93.428 67.574,93.861 67.64,94.269 67.719,94.665 67.797,95.021 67.891,95.364 67.981,95.681 
		68.087,95.969 68.193,96.246 68.298,96.51 68.417,96.745 68.535,96.957 68.668,97.153 68.798,97.338 68.931,97.498 69.061,97.655 
		69.206,97.773 69.351,97.891 69.496,97.997 69.642,98.09 69.787,98.154 69.932,98.221 70.089,98.26 70.234,98.3 70.392,98.327 
		70.537,98.341 70.814,98.341 71.05,98.314 71.156,98.287 71.261,98.248 71.367,98.208 71.471,98.154 71.564,98.103 71.655,98.036 
		71.749,97.958 71.839,97.879 71.921,97.788 72,97.682 72.078,97.562 72.156,97.443 72.223,97.313 72.29,97.168 72.354,97.023 
		72.407,96.851 72.459,96.682 72.552,96.312 72.631,95.89 72.698,95.415 72.737,94.904 72.761,94.335 72.776,93.73 68.469,93.73 
		68.469,88.712 79.361,88.712 79.361,88.884 79.389,89.372 79.428,90.096 79.452,91.019 79.467,92.059 79.467,93.15 79.452,93.704 
		79.428,94.245 79.4,94.771 79.361,95.27 	"/>
	<polygon fill-rule="evenodd" clip-rule="evenodd" fill="#FFFFFF" points="78.479,89.543 69.246,89.543 69.246,92.902 
		73.738,92.902 73.738,93.677 73.711,94.39 73.671,95.061 73.62,95.681 73.578,95.969 73.539,96.246 73.487,96.51 73.436,96.76 
		73.381,96.996 73.314,97.22 73.157,97.643 73.066,97.827 72.973,97.997 72.867,98.169 72.761,98.314 72.644,98.459 72.513,98.577 
		72.38,98.695 72.223,98.801 72.078,98.879 71.906,98.958 71.736,99.024 71.552,99.076 71.353,99.13 71.144,99.155 70.693,99.182 
		70.431,99.17 70.183,99.13 69.943,99.091 69.708,99.01 69.484,98.932 69.061,98.695 68.864,98.551 68.68,98.393 68.496,98.208 
		68.323,98.012 68.009,97.562 67.863,97.313 67.719,97.05 67.585,96.772 67.468,96.47 67.35,96.152 67.244,95.823 67.152,95.481 
		67.059,95.127 66.98,94.759 66.902,94.375 66.835,93.981 66.73,93.138 66.69,92.703 66.651,92.256 66.625,91.796 66.6,90.834 
		66.585,90.333 66.6,89.74 66.612,89.16 66.639,88.622 66.679,88.095 66.73,87.593 66.796,87.106 66.863,86.647 66.941,86.211 
		67.033,85.789 67.138,85.395 67.244,85.012 67.362,84.658 67.48,84.315 67.612,83.998 67.746,83.708 67.891,83.42 68.048,83.169 
		68.205,82.919 68.362,82.696 68.535,82.496 68.707,82.314 68.892,82.142 69.061,81.985 69.26,81.853 69.444,81.734 69.642,81.628 
		69.826,81.55 70.038,81.482 70.234,81.431 70.431,81.392 70.642,81.365 70.959,81.365 71.077,81.377 71.195,81.405 71.301,81.431 
		71.419,81.471 71.525,81.51 71.631,81.562 71.721,81.628 71.827,81.695 71.921,81.773 72.011,81.853 72.105,81.945 72.275,82.142 
		72.432,82.354 72.577,82.59 72.71,82.84 72.843,83.103 72.946,83.379 73.04,83.669 73.17,84.276 73.224,84.591 78.479,84.591 
		78.466,84.328 78.439,84.065 78.412,83.787 78.36,83.499 78.294,83.209 78.215,82.904 78.122,82.59 78.019,82.287 77.753,81.655 
		77.608,81.353 77.438,81.035 77.254,80.733 77.057,80.416 76.846,80.126 76.622,79.823 76.384,79.548 76.12,79.27 75.857,79.007 
		75.567,78.744 75.265,78.508 74.947,78.284 74.62,78.072 74.276,77.876 73.922,77.704 73.539,77.546 73.146,77.401 72.737,77.296 
		72.314,77.205 71.879,77.138 71.431,77.099 70.959,77.084 70.509,77.099 70.076,77.138 69.642,77.205 69.221,77.308 68.798,77.428 
		68.377,77.586 67.981,77.758 67.585,77.967 67.192,78.206 66.824,78.454 66.455,78.744 66.098,79.046 65.756,79.388 65.427,79.745 
		65.109,80.141 64.807,80.549 64.517,80.984 64.242,81.444 63.991,81.93 63.74,82.445 63.516,82.971 63.307,83.523 63.108,84.104 
		62.938,84.709 62.779,85.329 62.633,85.987 62.516,86.659 62.425,87.342 62.343,88.056 62.279,88.793 62.253,89.556 62.24,90.333 
		62.253,91.11 62.279,91.875 62.343,92.597 62.425,93.323 62.516,94.006 62.633,94.68 62.767,95.324 62.924,95.956 63.096,96.561 
		63.292,97.141 63.492,97.694 63.716,98.221 63.951,98.734 64.215,99.222 64.478,99.684 64.755,100.116 65.058,100.525 
		65.361,100.908 65.678,101.277 66.007,101.606 66.349,101.921 66.69,102.212 67.047,102.462 67.416,102.698 67.785,102.895 
		68.166,103.079 68.562,103.239 68.943,103.357 69.339,103.463 69.747,103.529 70.155,103.568 70.563,103.581 71.038,103.568 
		71.498,103.542 71.96,103.503 72.42,103.424 72.644,103.384 72.867,103.33 73.091,103.264 73.314,103.2 73.526,103.133 
		73.738,103.055 74.158,102.87 74.581,102.659 74.778,102.541 74.975,102.408 75.174,102.278 75.37,102.133 75.555,101.976 
		75.739,101.815 75.924,101.646 76.108,101.462 76.45,101.065 76.622,100.854 76.792,100.63 76.952,100.395 77.108,100.144 
		77.345,99.669 77.583,99.143 77.689,98.853 77.792,98.551 77.913,98.235 78.004,97.891 78.109,97.522 78.201,97.141 78.294,96.733 
		78.373,96.298 78.439,95.85 78.505,95.375 78.569,94.862 78.624,94.335 78.65,93.915 78.663,93.507 78.676,93.086 78.676,92.664 
		78.65,91.86 78.611,91.122 78.569,90.478 78.53,89.979 78.491,89.649 78.479,89.543 	"/>
	<polygon fill-rule="evenodd" clip-rule="evenodd" fill="#000707" points="46.078,76.73 59.764,76.73 59.764,82.432 51.979,82.432 
		51.979,87.291 59.631,87.291 59.631,92.782 51.979,92.782 51.979,98.327 60.118,98.327 60.118,104.279 46.078,104.279 
		46.078,76.73 	"/>
	<polygon fill-rule="evenodd" clip-rule="evenodd" fill="#FFFFFF" points="46.882,103.424 59.316,103.424 59.316,99.182 
		51.189,99.182 51.189,91.926 58.842,91.926 58.842,88.147 51.189,88.147 51.189,81.589 58.973,81.589 58.973,77.571 46.882,77.571 
		46.882,103.424 	"/>
	<polygon fill-rule="evenodd" clip-rule="evenodd" fill="#000707" points="99.645,77.782 107.427,77.782 111.919,87.342 
		111.998,87.342 115.687,77.782 123.495,77.782 123.495,105.331 117.504,105.331 117.516,90.663 111.959,105.371 105.888,90.663 
		105.821,105.331 99.645,105.331 99.645,77.782 	"/>
	<polygon fill-rule="evenodd" clip-rule="evenodd" fill="#000707" points="127.145,77.994 134.376,77.994 134.376,105.543 
		127.145,105.543 127.145,77.994 	"/>
	<polygon fill-rule="evenodd" clip-rule="evenodd" fill="#000707" points="140.985,83.932 136.336,83.932 136.336,77.994 
		152.235,77.994 152.235,83.932 147.334,83.932 147.334,105.543 140.985,105.543 140.985,83.932 	"/>
	<polygon fill-rule="evenodd" clip-rule="evenodd" fill="#000707" points="154.037,77.994 167.723,77.994 167.723,83.708 
		159.938,83.708 159.938,88.569 167.591,88.569 167.591,94.045 159.938,94.045 159.938,99.604 168.077,99.604 168.077,105.543 
		154.037,105.543 154.037,77.994 	"/>
	<polygon fill-rule="evenodd" clip-rule="evenodd" fill="#000707" points="98.499,76.637 106.269,76.637 110.773,86.197 
		110.84,86.197 114.525,76.637 122.337,76.637 122.337,104.186 116.343,104.186 116.369,89.517 110.812,104.226 104.727,89.517 
		104.66,104.186 98.499,104.186 98.499,76.637 	"/>
	<polygon fill-rule="evenodd" clip-rule="evenodd" fill="#FFFFFF" points="99.288,103.345 103.858,103.345 103.844,84.645 
		110.812,101.553 117.161,84.775 117.146,103.345 121.533,103.345 121.533,77.492 115.079,77.492 110.798,88.857 105.716,77.492 
		99.288,77.492 99.288,103.345 	"/>
	<polygon fill-rule="evenodd" clip-rule="evenodd" fill="#000707" points="125.999,76.848 133.228,76.848 133.228,104.397 
		125.999,104.397 125.999,76.848 	"/>
	<polygon fill-rule="evenodd" clip-rule="evenodd" fill="#FFFFFF" points="126.788,103.554 132.426,103.554 132.426,77.704 
		126.788,77.704 126.788,103.554 	"/>
	<polygon fill-rule="evenodd" clip-rule="evenodd" fill="#000707" points="139.827,82.786 135.189,82.786 135.189,76.848 
		151.074,76.848 151.074,82.786 146.176,82.786 146.176,104.397 139.827,104.397 139.827,82.786 	"/>
	<polygon fill-rule="evenodd" clip-rule="evenodd" fill="#FFFFFF" points="140.631,103.554 145.373,103.554 145.373,81.945 
		150.285,81.945 150.285,77.704 135.981,77.704 135.981,81.945 140.631,81.945 140.631,103.554 	"/>
	<polygon fill-rule="evenodd" clip-rule="evenodd" fill="#000707" points="152.879,76.848 166.562,76.848 166.562,82.562 
		158.78,82.562 158.78,87.424 166.433,87.424 166.433,92.902 158.78,92.902 158.78,98.459 166.919,98.459 166.919,104.397 
		152.879,104.397 152.879,76.848 	"/>
	<polygon fill-rule="evenodd" clip-rule="evenodd" fill="#FFFFFF" points="153.683,103.554 166.115,103.554 166.115,99.301 
		157.989,99.301 157.989,92.059 165.641,92.059 165.641,88.265 157.989,88.265 157.989,81.707 165.773,81.707 165.773,77.704 
		153.683,77.704 153.683,103.554 	"/>
	<polygon fill-rule="evenodd" clip-rule="evenodd" fill="#000707" points="82.917,77.876 96.615,77.876 96.615,83.578 88.83,83.578 
		88.83,88.437 96.482,88.437 96.482,93.915 88.83,93.915 88.83,99.473 96.957,99.473 96.957,105.41 82.917,105.41 82.917,77.876 	
		"/>
	<polygon fill-rule="evenodd" clip-rule="evenodd" fill="#000707" points="81.758,76.73 95.455,76.73 95.455,82.432 87.672,82.432 
		87.672,87.291 95.324,87.291 95.324,92.782 87.672,92.782 87.672,98.327 95.799,98.327 95.799,104.279 81.758,104.279 
		81.758,76.73 	"/>
	<polygon fill-rule="evenodd" clip-rule="evenodd" fill="#FFFFFF" points="82.562,103.424 95.007,103.424 95.007,99.182 
		86.868,99.182 86.868,91.926 94.521,91.926 94.521,88.147 86.868,88.147 86.868,81.589 94.653,81.589 94.653,77.571 82.562,77.571 
		82.562,103.424 	"/>
</g>
</svg>
