<?xml version="1.0" encoding="utf-8"?>
<!-- Generator: Adobe Illustrator 16.0.0, SVG Export Plug-In . SVG Version: 6.00 Build 0)  -->
<!DOCTYPE svg PUBLIC "-//W3C//DTD SVG 1.1//EN" "http://www.w3.org/Graphics/SVG/1.1/DTD/svg11.dtd">
<svg version="1.1" id="Layer_1" xmlns="http://www.w3.org/2000/svg" xmlns:xlink="http://www.w3.org/1999/xlink" x="0px" y="0px"
	 width="56.389px" height="32.207px" viewBox="0 0 56.389 32.207" enable-background="new 0 0 56.389 32.207" xml:space="preserve">
<g>
	<defs>
		<rect id="SVGID_1_" x="0.061" y="0.059" width="56.268" height="32.085"/>
	</defs>
	<clipPath id="SVGID_2_">
		<use xlink:href="#SVGID_1_"  overflow="visible"/>
	</clipPath>
	<g clip-path="url(#SVGID_2_)">
		<defs>
			<rect id="SVGID_3_" x="0.061" y="0.059" width="56.268" height="32.085"/>
		</defs>
		<clipPath id="SVGID_4_">
			<use xlink:href="#SVGID_3_"  overflow="visible"/>
		</clipPath>
		<g clip-path="url(#SVGID_4_)">
			<defs>
				<rect id="SVGID_5_" x="0.061" y="0.059" width="56.268" height="32.085"/>
			</defs>
			<clipPath id="SVGID_6_">
				<use xlink:href="#SVGID_5_"  overflow="visible"/>
			</clipPath>
			<path clip-path="url(#SVGID_6_)" fill="#003C78" d="M44.61,23.579c0,2.16-1.955,6.121-4.226,6.121h-22.12
				c-2.27,0-3.997-3.961-3.997-6.121V20.42c0-2.16,1.84-3.911,4.111-3.911h22.121c2.271,0,4.111,1.751,4.111,3.911V23.579z"/>
			<path clip-path="url(#SVGID_6_)" fill="#003C78" d="M16.498,30.801h-5.294l-0.119-11.073c-0.005-0.402-0.129-0.413-0.277-0.028
				L6.559,30.801H1.295L1.211,1.211h5.922L6.654,17.063c-0.012,0.405,0.091,0.415,0.228,0.023l5.577-15.876h4.479l-0.356,15.233
				c-0.01,0.403,0.094,0.415,0.232,0.023l5.378-15.257h5.473L16.498,30.801z"/>
			
				<path clip-path="url(#SVGID_6_)" fill="none" stroke="#003C78" stroke-width="2.4216" stroke-linecap="round" stroke-linejoin="round" stroke-miterlimit="8" d="
				M16.498,30.801h-5.294l-0.119-11.073c-0.005-0.402-0.129-0.413-0.277-0.028L6.559,30.801H1.295L1.211,1.211h5.922L6.654,17.063
				c-0.012,0.405,0.091,0.415,0.228,0.023l5.577-15.876h4.479l-0.356,15.233c-0.01,0.403,0.094,0.415,0.232,0.023l5.378-15.257
				h5.473L16.498,30.801z"/>
			<polygon clip-path="url(#SVGID_6_)" fill="#003C78" points="29.072,13.448 24.648,30.797 19.383,30.797 23.534,14.485 			"/>
			
				<polygon clip-path="url(#SVGID_6_)" fill="none" stroke="#003C78" stroke-width="2.4216" stroke-linecap="round" stroke-linejoin="round" stroke-miterlimit="8" points="
				29.072,13.448 24.648,30.797 19.383,30.797 23.534,14.485 			"/>
			<path clip-path="url(#SVGID_6_)" fill="#003C78" d="M40.21,13.299l-1.453,4.516c-0.9-0.133-1.149-0.125-1.707-0.125
				c-1.792,0-3.615,0.863-3.861,1.828c-0.11,0.435,0.121,0.7,0.664,0.7c0.19,0,0.39-0.034,0.588-0.067l0.47-0.044
				c0.337-0.03,0.878-0.086,1.201-0.121c0,0,0,0,0.245,0c2.009,0,2.867,1.429,2.273,3.758c-1.034,4.058-5.541,7.253-10.209,7.253
				c-1.114,0-2.248-0.134-2.958-0.334l1.486-4.506c0.215,0.063,0.586,0.152,0.906,0.191c0,0,0.325,0.052,0.559,0.071
				c0,0,0.67,0.052,0.887,0.052c1.847,0,3.437-0.698,3.682-1.664c0.118-0.466-0.112-0.729-0.6-0.729
				c-0.082,0-0.582,0.072-0.813,0.098c-0.534,0.062-0.949,0.102-1.193,0.102c-2.091,0-3.048-1.464-2.473-3.727
				c1.076-4.226,5.674-7.352,10.861-7.352C39.351,13.198,39.689,13.229,40.21,13.299z"/>
			
				<path clip-path="url(#SVGID_6_)" fill="none" stroke="#003C78" stroke-width="2.4216" stroke-linecap="round" stroke-linejoin="round" stroke-miterlimit="8" d="
				M40.21,13.299l-1.453,4.516c-0.9-0.133-1.149-0.125-1.707-0.125c-1.792,0-3.615,0.863-3.861,1.828
				c-0.11,0.435,0.121,0.7,0.664,0.7c0.19,0,0.39-0.034,0.588-0.067l0.47-0.044c0.337-0.03,0.878-0.086,1.201-0.121c0,0,0,0,0.245,0
				c2.009,0,2.867,1.429,2.273,3.758c-1.034,4.058-5.541,7.253-10.209,7.253c-1.114,0-2.248-0.134-2.958-0.334l1.486-4.506
				c0.215,0.063,0.586,0.152,0.906,0.191c0,0,0.325,0.052,0.559,0.071c0,0,0.67,0.052,0.887,0.052c1.847,0,3.437-0.698,3.682-1.664
				c0.118-0.466-0.112-0.729-0.6-0.729c-0.082,0-0.582,0.072-0.813,0.098c-0.534,0.062-0.949,0.102-1.193,0.102
				c-2.091,0-3.048-1.464-2.473-3.727c1.076-4.226,5.674-7.352,10.861-7.352C39.351,13.198,39.689,13.229,40.21,13.299z"/>
			<path clip-path="url(#SVGID_6_)" fill="#003C78" d="M49.423,13.929h5.755l-5.22,7.05c-0.257,0.351-0.347,0.879-0.201,1.18
				c0,0,0.521,1.053,0.887,2.383c0.657,2.384,0.639,5.011,0.545,6.227h-5.527c0.154-1.107,0.391-2.533,0.172-4.13
				c-0.25-1.896-0.701-2.529-1.795-3.459l-1.942,7.589H36.86l5.527-21.701l5.499-0.985l-3.12,12.222l0.028,0.004L49.423,13.929"/>
			
				<path clip-path="url(#SVGID_6_)" fill="none" stroke="#003C78" stroke-width="2.4216" stroke-linecap="round" stroke-linejoin="round" stroke-miterlimit="8" d="
				M49.423,13.929h5.755l-5.22,7.05c-0.257,0.351-0.347,0.879-0.201,1.18c0,0,0.521,1.053,0.887,2.383
				c0.657,2.384,0.639,5.011,0.545,6.227h-5.527c0.154-1.107,0.391-2.533,0.172-4.13c-0.25-1.896-0.701-2.529-1.795-3.459
				l-1.942,7.589H36.86l5.527-21.701l5.499-0.985l-3.12,12.222l0.028,0.004L49.423,13.929"/>
			<path clip-path="url(#SVGID_6_)" fill="#003C78" d="M29.665,10.52c0,1.182-1.18,2.254-2.633,2.396
				c-1.456,0.144-2.636-0.697-2.636-1.88c0-1.18,1.18-2.252,2.636-2.396C28.485,8.498,29.665,9.339,29.665,10.52z"/>
			
				<path clip-path="url(#SVGID_6_)" fill="none" stroke="#003C78" stroke-width="2.4216" stroke-linecap="round" stroke-linejoin="round" stroke-miterlimit="8" d="
				M29.665,10.52c0,1.182-1.18,2.254-2.633,2.396c-1.456,0.144-2.636-0.697-2.636-1.88c0-1.18,1.18-2.252,2.636-2.396
				C28.485,8.498,29.665,9.339,29.665,10.52z"/>
			
				<linearGradient id="SVGID_7_" gradientUnits="userSpaceOnUse" x1="724.6006" y1="-111.7168" x2="724.6006" y2="-143.9859" gradientTransform="matrix(0.949 0 0 0.9025 -673.2076 131.5458)">
				<stop  offset="0" style="stop-color:#FFF200"/>
				<stop  offset="0.0955" style="stop-color:#FFF200"/>
				<stop  offset="0.573" style="stop-color:#F26522"/>
				<stop  offset="1" style="stop-color:#F26522"/>
			</linearGradient>
			<path clip-path="url(#SVGID_6_)" fill="url(#SVGID_7_)" d="M16.498,30.801h-5.294l-0.119-11.073
				c-0.005-0.402-0.129-0.413-0.277-0.028L6.559,30.801H1.295L1.211,1.211h5.922L6.654,17.063c-0.012,0.405,0.091,0.415,0.228,0.023
				l5.577-15.876h4.479l-0.356,15.233c-0.01,0.403,0.094,0.415,0.232,0.023l5.378-15.257h5.473L16.498,30.801z"/>
			
				<linearGradient id="SVGID_8_" gradientUnits="userSpaceOnUse" x1="734.916" y1="-111.7178" x2="734.916" y2="-144.0426" gradientTransform="matrix(0.949 0 0 0.9025 -673.2076 131.5458)">
				<stop  offset="0" style="stop-color:#FFF200"/>
				<stop  offset="0.0955" style="stop-color:#FFF200"/>
				<stop  offset="0.573" style="stop-color:#F26522"/>
				<stop  offset="1" style="stop-color:#F26522"/>
			</linearGradient>
			<polygon clip-path="url(#SVGID_6_)" fill="url(#SVGID_8_)" points="29.072,13.448 24.648,30.797 19.383,30.797 23.534,14.485 			
				"/>
			
				<linearGradient id="SVGID_9_" gradientUnits="userSpaceOnUse" x1="743.9883" y1="-111.7183" x2="743.9883" y2="-143.9833" gradientTransform="matrix(0.949 0 0 0.9025 -673.2076 131.5458)">
				<stop  offset="0" style="stop-color:#FFF200"/>
				<stop  offset="0.0955" style="stop-color:#FFF200"/>
				<stop  offset="0.573" style="stop-color:#F26522"/>
				<stop  offset="1" style="stop-color:#F26522"/>
			</linearGradient>
			<path clip-path="url(#SVGID_6_)" fill="url(#SVGID_9_)" d="M40.21,13.299l-1.453,4.516c-0.9-0.133-1.149-0.125-1.707-0.125
				c-1.792,0-3.615,0.863-3.861,1.828c-0.11,0.435,0.121,0.7,0.664,0.7c0.19,0,0.39-0.034,0.588-0.067l0.47-0.044
				c0.337-0.03,0.878-0.086,1.201-0.121c0,0,0,0,0.245,0c2.009,0,2.867,1.429,2.273,3.758c-1.034,4.058-5.541,7.253-10.209,7.253
				c-1.114,0-2.248-0.134-2.958-0.334l1.486-4.506c0.215,0.063,0.586,0.152,0.906,0.191c0,0,0.325,0.052,0.559,0.071
				c0,0,0.67,0.052,0.887,0.052c1.847,0,3.437-0.698,3.682-1.664c0.118-0.466-0.112-0.729-0.6-0.729
				c-0.082,0-0.623,0.072-0.813,0.098c-0.532,0.074-0.949,0.102-1.193,0.102c-2.091,0-3.048-1.464-2.473-3.727
				c1.076-4.226,5.674-7.352,10.861-7.352C39.351,13.198,39.689,13.229,40.21,13.299z"/>
			
				<linearGradient id="SVGID_10_" gradientUnits="userSpaceOnUse" x1="757.8779" y1="-111.751" x2="757.8779" y2="-144.1283" gradientTransform="matrix(0.949 0 0 0.9025 -673.2076 131.5458)">
				<stop  offset="0" style="stop-color:#FFF200"/>
				<stop  offset="0.0955" style="stop-color:#FFF200"/>
				<stop  offset="0.573" style="stop-color:#F26522"/>
				<stop  offset="1" style="stop-color:#F26522"/>
			</linearGradient>
			<path clip-path="url(#SVGID_6_)" fill="url(#SVGID_10_)" d="M49.423,13.929h5.755l-5.22,7.05
				c-0.257,0.351-0.347,0.879-0.201,1.18c0,0,0.521,1.053,0.887,2.383c0.657,2.384,0.639,5.011,0.545,6.227h-5.527
				c0.154-1.107,0.391-2.533,0.172-4.13c-0.25-1.896-0.701-2.529-1.795-3.459l-1.942,7.589H36.86l5.527-21.701l5.499-0.985
				l-3.12,12.222l0.028,0.004L49.423,13.929"/>
			
				<linearGradient id="SVGID_11_" gradientUnits="userSpaceOnUse" x1="737.8691" y1="-111.7256" x2="737.8691" y2="-143.9812" gradientTransform="matrix(0.949 0 0 0.9025 -673.2076 131.5458)">
				<stop  offset="0" style="stop-color:#FFF200"/>
				<stop  offset="0.0955" style="stop-color:#FFF200"/>
				<stop  offset="0.573" style="stop-color:#F26522"/>
				<stop  offset="1" style="stop-color:#F26522"/>
			</linearGradient>
			<path clip-path="url(#SVGID_6_)" fill="url(#SVGID_11_)" d="M29.665,10.52c0,1.182-1.18,2.254-2.633,2.396
				c-1.456,0.144-2.636-0.697-2.636-1.88c0-1.18,1.18-2.252,2.636-2.396C28.485,8.498,29.665,9.339,29.665,10.52z"/>
			<path clip-path="url(#SVGID_6_)" fill="#F26522" d="M43.525,22.684l-1.942,7.589h-4.589l-0.13,0.508h5.24l1.94-7.587
				c0.071,0.061,0.139,0.119,0.205,0.179C44.044,23.144,43.807,22.924,43.525,22.684z"/>
			<polygon clip-path="url(#SVGID_6_)" fill="#F26522" points="27.67,1.226 26.957,1.226 15.982,30.306 11.203,30.306 
				11.209,30.813 16.502,30.813 			"/>
			<polygon clip-path="url(#SVGID_6_)" fill="#F26522" points="6.425,18.694 6.703,17.374 6.658,17.197 7.138,1.226 6.602,1.226 
				6.139,16.569 			"/>
			<polygon clip-path="url(#SVGID_6_)" fill="#F26522" points="10.295,19.237 6.044,30.306 1.298,30.306 1.3,30.813 6.564,30.813 
				10.884,19.516 10.997,19.412 11.064,18.416 			"/>
			<polygon clip-path="url(#SVGID_6_)" fill="#F26522" points="16.35,18.086 16.646,16.734 16.581,16.629 16.943,1.226 16.41,1.226 
				16.052,16.728 			"/>
			<path clip-path="url(#SVGID_6_)" fill="#F26522" d="M49.763,22.173c-0.147-0.298-0.058-0.829,0.201-1.178l5.22-7.051h-0.897
				l-4.843,6.54c-0.258,0.349-0.348,0.881-0.201,1.181c0,0,0.52,1.052,0.886,2.382c0.657,2.383,0.639,5.012,0.545,6.226h-4.936
				c-0.024,0.175-0.048,0.347-0.071,0.508h5.527c0.094-1.211,0.111-3.843-0.545-6.223C50.282,23.227,49.763,22.173,49.763,22.173z"
				/>
			<path clip-path="url(#SVGID_6_)" fill="#F26522" d="M36.535,17.193c-1.792,0-3.445,0.938-3.691,1.903
				c-0.098,0.384,0.022,0.906,0.444,0.957c-0.142-0.241-0.109-0.456-0.093-0.52c0.246-0.965,2.067-1.831,3.86-1.831
				c0.558,0,0.808-0.006,1.708,0.126l1.453-4.514c-0.246-0.035-0.451-0.058-0.661-0.074l-1.312,4.078
				C37.342,17.188,37.092,17.193,36.535,17.193z"/>
			<polygon clip-path="url(#SVGID_6_)" fill="#F26522" points="43.799,21.652 44.758,20.332 47.89,8.098 47.208,8.218 
				43.771,21.648 			"/>
			<polygon clip-path="url(#SVGID_6_)" fill="#F26522" points="29.077,13.464 28.394,13.592 24.132,30.302 19.518,30.302 
				19.388,30.811 24.653,30.811 			"/>
			<path clip-path="url(#SVGID_6_)" fill="#F26522" d="M32.012,23.616c-0.081,0-0.537,0.018-0.957,0.051
				c-0.534,0.066-0.949,0.101-1.194,0.101c-0.686,0-1.248-0.161-1.675-0.453c0.435,0.614,1.18,0.962,2.196,0.962
				c0.244,0,0.659-0.034,1.192-0.1c0.249-0.025,0.707-0.089,0.789-0.098c0.251-0.021,0.464,0.096,0.552,0.195
				C32.919,23.943,32.419,23.616,32.012,23.616z"/>
			<path clip-path="url(#SVGID_6_)" fill="#F26522" d="M38.623,21.323l0.002-0.008c-0.005-0.013-0.013-0.022-0.017-0.037
				c-0.012-0.026-0.02-0.059-0.032-0.085c0,0,0,0.007-0.003,0.017c-0.157-0.34-0.386-0.618-0.692-0.816
				c0.452,0.649,0.548,1.625,0.234,2.854c-1.034,4.058-5.54,7.252-10.21,7.252c-0.82,0-1.651-0.073-2.315-0.19l-0.121,0.367
				c0.708,0.198,1.843,0.332,2.957,0.332c3.52,0,6.945-1.814,8.863-4.445l0.007-0.028c0.488-0.664,0.875-1.423,1.162-2.202
				C38.879,23.189,38.911,22.097,38.623,21.323z"/>
			<polygon clip-path="url(#SVGID_6_)" fill="#FFFFFF" points="11.064,18.416 10.997,19.412 11.079,19.554 11.204,30.801 
				11.719,30.801 11.605,19.513 			"/>
			<polygon clip-path="url(#SVGID_6_)" fill="#FFFFFF" points="28.909,14.085 29.072,13.448 23.534,14.485 19.384,30.797 
				20.033,30.797 24.054,14.995 			"/>
			<path clip-path="url(#SVGID_6_)" fill="#FFFFFF" d="M28.376,26.859c0,0,0.326,0.051,0.56,0.069c0,0,0.669,0.052,0.887,0.052
				c1.847,0,3.279-0.664,3.524-1.629c0.109-0.431-0.019-1.039-0.432-1.077c0.138,0.125,0.088,0.455,0.069,0.532
				c-0.245,0.966-1.834,1.664-3.682,1.664c-0.217,0-0.887-0.052-0.887-0.052c-0.234-0.02-0.559-0.071-0.559-0.071
				c-0.32-0.039-0.691-0.128-0.906-0.191l-1.485,4.506c0.187,0.054,0.404,0.1,0.642,0.143l1.364-4.14
				C27.685,26.729,28.057,26.82,28.376,26.859z"/>
			<path clip-path="url(#SVGID_6_)" fill="#FFFFFF" d="M34.235,20.676c0.19,0.011,0.553,0.007,0.727-0.015l0.47-0.045
				c0.338-0.029,0.877-0.085,1.201-0.121c0,0,0,0,0.245,0c0.619,0,1.127,0.136,1.519,0.393c-0.404-0.581-1.092-0.902-2.04-0.902
				c-0.244,0-0.244,0-0.244,0c-0.324,0.035-0.864,0.091-1.201,0.121l-0.471,0.044c-0.198,0.033-0.397,0.074-0.587,0.067
				c-0.284-0.012-0.409-0.053-0.566-0.164C33.278,20.381,33.828,20.655,34.235,20.676z"/>
			<path clip-path="url(#SVGID_6_)" fill="#FFFFFF" d="M28.424,21.06c1.077-4.225,5.674-7.352,10.861-7.352
				c0.31,0,0.55,0.01,0.785,0.026l0.141-0.436c-0.522-0.069-0.86-0.101-1.446-0.101c-5.12,0-9.663,3.047-10.815,7.189l-0.072,0.284
				c-0.339,1.458-0.029,2.57,0.824,3.152C28.241,23.171,28.128,22.223,28.424,21.06z"/>
			<path clip-path="url(#SVGID_6_)" fill="#FFFFFF" d="M27.546,9.14c0.705-0.071,1.344,0.094,1.816,0.41
				c-0.439-0.641-1.32-1.021-2.337-0.92c-1.454,0.141-2.633,1.215-2.633,2.397c0,0.606,0.315,1.124,0.818,1.464
				c-0.19-0.276-0.298-0.6-0.298-0.956C24.913,10.354,26.093,9.281,27.546,9.14z"/>
			<polygon clip-path="url(#SVGID_6_)" fill="#FFFFFF" points="7.402,17.599 12.979,1.72 16.927,1.72 16.938,1.211 12.458,1.211 
				6.833,17.219 6.703,17.374 6.427,18.667 			"/>
			<polygon clip-path="url(#SVGID_6_)" fill="#FFFFFF" points="17.32,17.027 22.691,1.72 27.484,1.72 27.675,1.211 22.171,1.211 
				16.777,16.581 16.646,16.734 16.35,18.086 			"/>
			<polygon clip-path="url(#SVGID_6_)" fill="#FFFFFF" points="7.118,1.72 7.133,1.211 1.211,1.211 1.295,30.801 1.814,30.801 
				1.731,1.72 			"/>
			<path clip-path="url(#SVGID_6_)" fill="#FFFFFF" d="M46.355,27.146c-0.234-1.772-0.644-2.44-1.591-3.281
				c0.588,0.654,0.885,1.364,1.07,2.772c0.219,1.597-0.019,3.022-0.172,4.13h0.592C46.396,29.747,46.542,28.51,46.355,27.146z"/>
			<polygon clip-path="url(#SVGID_6_)" fill="#FFFFFF" points="45.313,20.814 49.944,14.438 54.8,14.438 55.178,13.929 
				49.423,13.929 44.796,20.312 43.799,21.652 			"/>
			<polygon clip-path="url(#SVGID_6_)" fill="#FFFFFF" points="36.86,30.768 37.51,30.768 42.908,9.576 47.724,8.714 47.885,8.081 
				42.387,9.066 			"/>
		</g>
	</g>
</g>
</svg>
