<?xml version="1.0" encoding="utf-8"?>
<!-- Generator: Adobe Illustrator 16.0.0, SVG Export Plug-In . SVG Version: 6.00 Build 0)  -->
<!DOCTYPE svg PUBLIC "-//W3C//DTD SVG 1.1//EN" "http://www.w3.org/Graphics/SVG/1.1/DTD/svg11.dtd">
<svg version="1.1" id="Layer_1" xmlns="http://www.w3.org/2000/svg" xmlns:xlink="http://www.w3.org/1999/xlink" x="0px" y="0px"
	 width="94.139px" height="78.447px" viewBox="352.931 260.776 94.139 78.447"
	 enable-background="new 352.931 260.776 94.139 78.447" xml:space="preserve">
<g id="g2503" transform="matrix(1.1981848,0,0,1.1981848,-26.420874,-1137.0336)">
	<g id="g3300" transform="matrix(0.5,0,0,0.5,11.025373,521.22047)">
		<path id="path2418" fill="#ED1C24" d="M616.353,1421.713l62.274-32.947c3.699,0.355,7.259,0.571,10.959,0.571
			c43.412,0,78.71-22.208,78.71-49.391c0-27.189-35.298-49.175-78.71-49.175c-43.342,0-78.426,21.986-78.426,49.175
			c0,18.501,16.156,34.655,40.067,42.983L616.353,1421.713"/>
		<path id="path2420" fill="#FFFFFF" d="M662.186,1317.527h-15.3l0.567,4.34h1.495c1.85,0,2.494,0.214,2.704,0.214
			c0.355,0.215,0.355,0.429,0.355,0.641l0,0c0,0.214,0,1.068-0.782,2.703c-0.639,0.855-1.492,2.281-2.491,4.129
			c0,0-2.279,3.559-3.987,6.048c-1.635-3.558-5.192-11.242-5.192-11.242l0,0c-0.215-0.214-0.215-0.429-0.357-0.997
			c-0.215-0.643-0.425-0.854-0.425-0.854c0-0.214,0-0.214,0-0.214s0,0,0.212,0c0-0.215,0.571-0.215,2.492-0.429h1.85l-0.644-4.34
			h-18.858l0.782,4.129l1.283,0.211c1.852,0.214,2.491,0.642,2.706,0.642c0,0,0.424,0.425,1.42,2.705c0,0,7.689,16.152,8.113,17.007
			c-0.21,0.854-1.635,13.308-1.635,13.308c-0.215,1.425-0.641,2.489-1.28,2.704c-0.215,0.213-0.996,0.57-3.133,0.57l-1.85,0.215
			l0.639,4.196h22.205l-0.854-4.196l-1.209-0.215c-2.704,0-3.772-0.142-4.127-0.357c-0.214,0-0.429-0.429-0.641-1.068
			c0-0.212,0-0.641,0-1.21c0-0.426,0-1.28,0.214-2.134c0,0,0.996-9.75,1.211-11.6c0.424-0.639,11.031-17.436,11.031-17.436
			c0.998-1.636,1.637-2.279,1.852-2.49c0.21-0.214,0.854-0.429,2.06-0.642l1.708-0.212l-0.854-4.129H662.186"/>
		<path id="path2422" fill="#FFFFFF" d="M667.381,1331.265L667.381,1331.265l-4.77,0.995l-5.976,1.28l0.571,3.703h1.493
			c1.421,0,2.062,0,2.276,0.211c0,0,0.215,0.214,0.215,0.429v0.209c0,0,0,0.43,0,0.645l-1.283,17.578v1.28c0,0.424,0,0.852,0,1.425
			c0.644,2.488,2.065,3.769,3.133,4.409c0.854,0.355,1.85,0.569,2.704,0.569c3.345,0,6.189-2.064,8.683-5.979
			c0.424-0.639,1.066-1.703,1.705-2.704c-0.21,0.645-0.21,1.21-0.21,1.853v0.212c0,0.639,0.21,1.425,0.21,2.064
			c0.214,1.493,0.998,2.706,1.849,3.345c1.069,0.854,2.28,1.21,3.558,1.21c2.279,0,4.554-1.423,6.405-4.339
			c1.069-1.211,1.853-2.703,2.494-4.344l0.642-1.279l-3.56-2.276l-2.276,3.553c-0.646,0.855-0.854,1.21-0.854,1.21l-0.145,0.215
			c0-0.425,0-0.571,0-0.571l2.064-22.416l0.215-1.919h-7.898l-0.43,1.492c-0.639,3.487-1.064,5.977-1.42,7.684
			c-0.644,2.49-1.283,4.77-2.349,6.834c-0.999,2.275-2.279,4.554-3.49,6.619c-1.635,2.49-2.704,2.704-2.919,2.704v-0.214l0,0l0,0
			v-0.429v-0.995l1.853-21.776v-0.426c0-0.639-0.214-1.068-0.569-1.493l0,0C668.448,1331.05,667.809,1331.265,667.381,1331.265"/>
		<path id="path2424" fill="#FFFFFF" d="M701.681,1331.265c-4.411,0.995-7.681,1.849-9.821,2.064l-1.635,0.426l0.642,3.914h1.425
			c1.919,0,2.489,0,2.704,0.215c0,0,0.212,0,0.212,0.209v0.215c0,0.215,0,0.571,0,0.571l-2.492,24.339h8.115l0.214-1.493
			c0.639-3.488,0.996-6.194,1.211-8.044c0.642-2.919,1.281-5.409,2.065-7.119c0.854-1.851,2.132-3.915,3.555-5.976
			c1.852-2.494,2.706-2.703,3.133-2.703l0,0c0,0.209,0,0.209,0,0.425v0.215v0.355c0,0.214-2.065,24.339-2.065,24.339h8.044
			l0.21-1.493c0.429-5.199,0.854-8.259,1.069-9.752c0.214-1.422,0.853-3.272,1.635-5.409c0.852-2.06,2.064-4.126,3.557-5.976
			c0.996-1.707,2.279-2.494,3.133-2.703c0,0.209,0,0.209,0,0.209v0.786l-1.493,17.861v1.28c0,0.429,0,0.786,0,1.21
			c0.425,1.922,1.278,3.133,2.274,3.987c0.854,0.427,1.853,0.781,2.706,0.781c2.065,0,3.775-0.781,5.41-2.491
			c1.425-1.425,2.918-3.273,4.129-5.549l0.212-0.429l0.642-1.28l-3.705-2.489l-2.491,3.77l-0.214,0.429
			c-0.21,0.211-0.425,0.566-0.641,0.782c0,0,0,0,0,0.214c0.215-2.064,1.425-16.157,1.425-16.157v-0.211c0-1.068,0-1.707,0-2.279
			c0-0.854,0-1.281,0-1.494c-0.429-1.85-1.21-3.275-2.489-4.34c-1.211-0.854-2.494-1.209-3.915-1.209
			c-2.918,0-5.622,1.849-8.542,5.763l0,0c-0.212,0.425-0.425,0.641-0.781,1.064c0-0.425,0-0.85,0-1.279
			c-0.43-2.065-1.495-3.7-2.919-4.554c-1.064-0.64-2.065-0.995-3.343-0.995c-2.704,0-5.41,1.637-8.115,5.335l0,0
			c-0.424,0.643-0.781,1.284-1.21,1.923c0.215-2.491,0.639-6.264,0.639-6.264l-1.702-1.21L701.681,1331.265"/>
		<path id="path2426" fill="#FFFFFF" d="M746.089,1319.377L746.089,1319.377c-0.639,1.284-0.854,3.558-0.854,6.478v5.765
			c0,0.425,0,2.276-0.21,8.538l-0.214,11.032l1.278,0.355l2.704,0.426l2.279-10.389c0.782-4.339,1.211-5.979,1.423-6.619
			c1.493-5.623,2.279-8.894,2.494-9.963c0.209-1.425,0.209-2.703,0-3.915c-0.215-1.069-0.786-2.135-1.64-3.13
			c-0.854-0.855-2.065-1.283-3.345-1.283C748.369,1316.674,746.874,1317.527,746.089,1319.377z M742.106,1355.531L742.106,1355.531
			c-0.786,0.995-1.211,2.279-0.998,3.49c0.425,1.703,0.998,2.915,2.276,3.769c0.996,0.854,2.28,1.21,3.49,1.21
			c1.495,0,2.704-0.569,3.557-1.637c0.853-1.066,1.281-2.279,0.853-3.7c-0.212-1.493-0.853-2.492-2.06-3.558
			c-1.069-0.855-2.349-1.283-3.558-1.283C743.815,1353.823,742.53,1354.677,742.106,1355.531"/>
	</g>
</g>
</svg>
