<?xml version="1.0" encoding="utf-8"?>
<!-- Generator: Adobe Illustrator 16.0.0, SVG Export Plug-In . SVG Version: 6.00 Build 0)  -->
<!DOCTYPE svg PUBLIC "-//W3C//DTD SVG 1.1//EN" "http://www.w3.org/Graphics/SVG/1.1/DTD/svg11.dtd">
<svg version="1.1" id="Layer_1" xmlns="http://www.w3.org/2000/svg" xmlns:xlink="http://www.w3.org/1999/xlink" x="0px" y="0px"
	 width="175.746px" height="130.459px" viewBox="8.505 31.129 175.746 130.459"
	 enable-background="new 8.505 31.129 175.746 130.459" xml:space="preserve">
<g>
	<path fill="#FFFFFF" d="M144.644,133.974c-1.586,0.971-3.476,1.702-5.615,1.702c-2.149,0-4.28-0.942-6.141-2.415l-14.564,3.854
		c-0.404-1.479-0.758-2.673-1.059-3.737l-16.986,4.38l0.234-3.05l-9.099,2.407c-0.298-1.091-0.569-2.026-0.811-2.87l-9.005,2.771
		l-1.516-3.041c-1.586,0.969-3.475,1.701-5.615,1.701c-1.881,0-3.748-0.722-5.431-1.889l-13.984,3.139l-0.548-2.217
		c-1.474,0.602-2.894,0.967-3.799,0.967c-2.606,0-4.74-1.035-6.409-2.345l-13.013,3.923c-1.138-3.583-2.476-7.275-3.276-11.003
		c-0.905,1.438-1.771,2.708-2.599,3.793c-2.098,2.763-4.795,5.825-8.581,5.825c-4.481,0-6.615-3.459-7.336-5.194
		c-0.786-1.896-0.985-3.918-0.985-5.67c0-2.938,0.601-6.092,2.514-8.79c1.424-2.041,3.341-3.797,5.452-5.335
		c0.956-0.729,2.098-1.965,3.319-3.901c1.407-2.188,2.703-4.617,3.852-7.207c1.17-2.604,1.415-4.051,1.415-4.603v-5.218
		c2.91-0.667,5.818-1.292,8.689-2.106l14.281-3.976c-0.869,5.122-1.917,10.129-2.276,15.296c-0.118,2.142-0.178,3.913-0.178,5.317
		c0,1.053,0.009,2.072,0.027,3.059c3.427-3.861,6.915-6.416,11.556-9.33l0.97-3.177c1.435-4.475,3.789-10.003,9.42-10.003
		c3.904,0,6.499,2.792,8.249,5.892c1.284,2.19,2.348,4.814,2.348,7.69v1.359c1.266-0.875,2.609-1.746,4.067-2.662l3.645,2.554
		c1.279-0.558,2.311-0.667,2.937-0.667c1.554,0,3.075,0.506,4.438,1.349c0.695-2.188,1.445-4.423,2.243-6.674
		c1.494-4.097,3.812-8.84,8.952-8.84c3.644,0,6.214,2.462,8.022,5.304c1.383,2.124,2.525,4.738,2.525,7.695
		c0,0.603-0.062,1.197-0.177,1.781l6.068-1.511c0.483-1.464,0.989-2.942,1.517-4.43c1.494-4.097,3.812-8.84,8.952-8.84
		c3.642,0,6.212,2.462,8.021,5.304c1.385,2.124,2.527,4.738,2.527,7.695c0,0.966-0.163,1.91-0.434,2.831
		c1.627-1.183,3.373-2.323,5.322-3.552l3.646,2.555c1.278-0.557,2.312-0.667,2.938-0.667c1.629,0,3.225,0.557,4.638,1.476
		l14.991-3.941l0.059,2.275c2.242,0.068,3.911,1.119,4.725,1.701c2.049,1.415,3.506,3.492,5.074,5.379
		c-0.984,2.145-1.984,4.178-2.742,6.396l-3.07,8.888l-4.807-0.813l-0.17,0.692c-0.66,5.381-2.046,14.426-9.357,14.426
		c-2.332,0-4.217-0.896-5.662-2.006l-10.871,3.345L144.644,133.974L144.644,133.974z"/>
	<path fill="#00A651" stroke="#00984A" stroke-width="0.1979" stroke-miterlimit="2.6131" d="M85.566,99.662l2.67-4.318l7.86-1.745
		c-0.864,2.434-2.041,5.152-2.736,7.341c-1.362-0.844-3.035-1.325-4.589-1.325c-0.626,0-1.457,0.327-2.735,0.884L85.566,99.662
		L85.566,99.662z"/>
	<path fill="#00A651" stroke="#00984A" stroke-width="0.1979" stroke-miterlimit="2.6131" d="M86.428,90.949l-10.454,0.286
		l-0.18-0.312c-0.173-0.306-0.354-0.609-0.544-0.908l8.016-6.061l8.298,1.234L86.428,90.949L86.428,90.949z"/>
	<path fill="#00A651" stroke="#00984A" stroke-width="0.1979" stroke-miterlimit="2.6131" d="M145.604,91.198l6.48,8.133
		c-0.486,0.1-1.314,0.368-1.938,0.638l-3.353-2.389c-0.794,0.5-1.343,0.759-2.073,1.237l-2.582-0.713l-0.552-1.145
		c-0.096-2.622-1.17-4.328-2.383-6.281L145.604,91.198L145.604,91.198z"/>
	<polygon fill="#00A651" stroke="#00984A" stroke-width="0.1979" stroke-miterlimit="2.6131" points="83.164,79.191 71.037,74.859 
		82.722,71.535 90.014,75.689 	"/>
	<polygon fill="#00A651" stroke="#00984A" stroke-width="0.1979" stroke-miterlimit="2.6131" points="84.371,67.052 74.62,58.618 
		86.681,59.745 91.991,66.269 	"/>
	<polygon fill="#00A651" stroke="#00984A" stroke-width="0.1979" stroke-miterlimit="2.6131" points="89.875,56.18 83.815,44.771 
		94.623,50.173 97.229,58.201 	"/>
	<polygon fill="#00A651" stroke="#00984A" stroke-width="0.1979" stroke-miterlimit="2.6131" points="98.92,48.048 97.379,35.188 
		105.485,44.113 105.021,52.574 	"/>
	<polygon fill="#00A651" stroke="#00984A" stroke-width="0.1979" stroke-miterlimit="2.6131" points="110.272,43.747 
		113.479,31.165 117.812,42.395 114.315,50.149 	"/>
	<polygon fill="#00A651" stroke="#00984A" stroke-width="0.1979" stroke-miterlimit="2.6131" points="122.397,43.844 
		129.942,33.242 129.935,45.264 123.854,51.254 	"/>
	<polygon fill="#00A651" stroke="#00984A" stroke-width="0.1979" stroke-miterlimit="2.6131" points="133.662,48.314 144.545,41.14 
		140.208,52.342 132.353,55.738 	"/>
	<polygon fill="#00A651" stroke="#00984A" stroke-width="0.1979" stroke-miterlimit="2.6131" points="142.558,56.549 
		155.315,53.795 147.229,62.675 138.658,62.997 	"/>
	<polygon fill="#00A651" stroke="#00984A" stroke-width="0.1979" stroke-miterlimit="2.6131" points="147.894,67.44 160.798,69.494 
		150.042,74.855 141.926,72.05 	"/>
	<polygon fill="#00A651" stroke="#00984A" stroke-width="0.1979" stroke-miterlimit="2.6131" points="148.959,79.529 
		160.252,86.119 148.265,87.227 141.709,81.673 	"/>
	<path fill="#FFF200" d="M96.625,92.007l-11.571,2.607l9.31-10.44l-13.818-2.055l12.444-6.363l-12.146-6.919l13.897-1.427
		L85.91,56.558l13.474,3.702l-4.325-13.316l11.228,8.33l0.767-13.982l7.469,11.833l5.754-12.76l2.699,13.739l9.963-9.815
		l-2.434,13.79l12.828-5.546l-7.239,11.977l13.962-0.525l-11.068,8.547l13.207,4.564l-13.396,3.963l10.669,9.04l-11.362-0.922
		c-1.746-2.329-3.477-3.671-6.619-3.671c-5.139,0-7.33,4.307-8.824,8.404c-0.526,1.488-1.018,3.225-1.5,4.688l-6.575,1.549
		c0.113-0.586-0.088-1.434-0.088-2.035c0-2.957-1.044-5.306-2.429-7.43c-1.81-2.841-4.034-5.042-7.676-5.042
		C99.983,85.638,98.144,88.43,96.625,92.007L96.625,92.007z"/>
	<path d="M156.828,92.943c0-1.386,0.462-2.497,1.386-3.333c0.934-0.836,2.049-1.254,3.35-1.254s2.412,0.418,3.338,1.254
		c0.932,0.836,1.397,1.947,1.397,3.333c0,1.386-0.467,2.496-1.397,3.332c-0.926,0.837-2.037,1.255-3.338,1.255
		s-2.416-0.418-3.35-1.255C157.29,95.439,156.828,94.329,156.828,92.943L156.828,92.943z M161.562,89.438
		c-0.932,0-1.717,0.328-2.354,0.984c-0.639,0.656-0.957,1.497-0.957,2.521c0,1.033,0.314,1.877,0.943,2.533
		c0.639,0.648,1.429,0.972,2.367,0.972c0.926,0,1.707-0.328,2.344-0.984c0.646-0.664,0.97-1.504,0.97-2.521
		c0-1.025-0.317-1.865-0.956-2.521C163.28,89.766,162.495,89.438,161.562,89.438L161.562,89.438z M160.79,95.452h-1.079v-5.03h1.877
		c0.695,0,1.21,0.115,1.546,0.345c0.344,0.221,0.516,0.615,0.516,1.181c0,0.451-0.123,0.787-0.368,1.008
		c-0.237,0.213-0.576,0.32-1.019,0.32l1.301,2.177h-1.104l-1.153-2.128h-0.516V95.452L160.79,95.452z M161.747,92.488
		c0.27,0,0.466-0.041,0.589-0.123c0.123-0.09,0.185-0.267,0.185-0.529c0-0.197-0.078-0.34-0.232-0.431
		c-0.146-0.098-0.393-0.147-0.736-0.147h-0.761v1.229L161.747,92.488L161.747,92.488z"/>
	<path d="M144.644,133.974c-1.586,0.971-3.477,1.702-5.615,1.702c-2.15,0-4.28-0.942-6.141-2.415l-14.564,3.854
		c-0.404-1.479-0.76-2.673-1.059-3.737l-16.988,4.38l0.236-3.05l-9.1,2.407c-0.298-1.091-0.569-2.026-0.811-2.87l-9.005,2.771
		l-1.516-3.041c-1.586,0.969-3.475,1.701-5.615,1.701c-1.881,0-3.748-0.722-5.431-1.889l-13.984,3.139l-0.548-2.217
		c-1.473,0.602-2.894,0.967-3.799,0.967c-2.606,0-4.74-1.035-6.409-2.345l-13.013,3.923c-1.138-3.583-2.476-7.275-3.276-11.003
		c-0.905,1.438-1.772,2.709-2.599,3.794c-2.098,2.762-4.795,5.825-8.581,5.825c-4.481,0-6.614-3.46-7.336-5.195
		c-0.786-1.896-0.985-3.918-0.985-5.67c0-2.938,0.601-6.092,2.514-8.79c1.424-2.041,3.341-3.796,5.452-5.335
		c0.956-0.729,2.099-1.965,3.319-3.901c1.406-2.188,2.703-4.617,3.852-7.207c1.17-2.604,1.415-4.051,1.415-4.603v-5.218
		c2.91-0.668,5.818-1.292,8.689-2.106l14.281-3.976c-0.869,5.122-1.918,10.129-2.276,15.296c-0.117,2.142-0.178,3.913-0.178,5.317
		c0,1.054,0.009,2.072,0.027,3.059c3.427-3.861,6.915-6.416,11.556-9.33l0.97-3.177c1.435-4.475,3.79-10.003,9.42-10.003
		c3.904,0,6.499,2.793,8.249,5.892c1.284,2.19,2.348,4.814,2.348,7.69v1.359c1.265-0.875,2.609-1.744,4.068-2.662l3.645,2.554
		c1.279-0.556,2.31-0.667,2.937-0.667c1.553,0,3.075,0.506,4.437,1.35c0.695-2.189,1.445-4.423,2.243-6.675
		c1.494-4.098,3.812-8.841,8.952-8.841c3.643,0,6.213,2.462,8.021,5.304c1.383,2.125,2.527,4.738,2.527,7.696
		c0,0.602-0.063,1.195-0.178,1.781l6.068-1.511c0.482-1.465,0.988-2.943,1.516-4.431c1.494-4.098,3.812-8.841,8.952-8.841
		c3.644,0,6.212,2.462,8.022,5.304c1.383,2.125,2.525,4.739,2.525,7.696c0,0.965-0.163,1.909-0.434,2.831
		c1.627-1.185,3.373-2.324,5.324-3.553l3.645,2.555c1.277-0.557,2.311-0.668,2.938-0.668c1.631,0,3.226,0.558,4.639,1.478
		l14.99-3.941l0.06,2.274c2.241,0.069,3.911,1.119,4.726,1.701c2.047,1.415,3.504,3.493,5.073,5.38
		c-0.985,2.144-1.985,4.177-2.741,6.396l-3.072,8.889l-4.807-0.812l-0.17,0.691c-0.658,5.381-2.045,14.426-9.355,14.426
		c-2.334,0-4.219-0.896-5.664-2.006l-10.871,3.346L144.644,133.974L144.644,133.974z M145.063,132.379
		c-1.653,1.211-3.693,2.206-6.037,2.206c-2.058,0-4.113-0.999-5.883-2.521l-14.058,3.72c-0.416-1.523-0.765-2.692-1.044-3.734
		l-16.561,4.271l0.24-3.062l-9.545,2.525c-0.311-1.138-0.583-2.077-0.818-2.914l-9.201,2.831l-1.656-3.321
		c-1.655,1.211-3.695,2.206-6.038,2.206c-1.797,0-3.592-0.762-5.196-1.969l-13.411,3.01l-0.593-2.416
		c-1.645,0.84-3.397,1.375-4.562,1.375c-2.525,0-4.578-1.102-6.169-2.466l-12.541,3.78c-1.188-3.739-2.556-7.506-3.217-11.394
		l-0.184-1.298c-1.237,2.134-2.56,4.217-4.053,6.174c-1.878,2.473-4.304,5.396-7.715,5.396c-3.826,0-5.676-2.947-6.331-4.522
		c-0.709-1.71-0.902-3.569-0.902-5.251c0-2.8,0.574-5.704,2.313-8.156c1.332-1.914,3.15-3.589,5.205-5.086
		c1.09-0.826,2.32-2.171,3.597-4.197c1.436-2.232,2.755-4.705,3.927-7.348c1.196-2.662,1.51-4.271,1.51-5.049v-4.348
		c2.645-0.607,5.284-1.186,7.895-1.925l12.627-3.515c-0.782,4.607-1.68,9.067-2.002,13.708c-0.12,2.173-0.181,3.971-0.181,5.395
		c0,2.123,0.037,4.112,0.111,5.968c3.95-5.039,7.696-7.897,13.024-11.242c0.39-1.319,1.124-2.494,1.545-3.844
		c1.266-3.948,3.376-9.241,8.382-9.241c3.448,0,5.76,2.609,7.302,5.338c1.235,2.103,2.207,4.538,2.207,7.152v1.455
		c-0.67,1.17-1.336,2.355-1.974,3.562c2.118-1.761,4.399-3.312,7.098-5.011l3.573,2.504c1.337-0.691,2.415-0.834,3.041-0.834
		c1.798,0,3.561,0.794,5.024,2.027c0.813-2.637,1.711-5.34,2.68-8.075c1.313-3.604,3.371-8.119,7.928-8.119
		c3.216,0,5.511,2.298,7.104,4.8c1.316,2.021,2.354,4.432,2.354,7.109c0,1.125-0.249,2.227-0.637,3.291l8.463-2.105
		c0.536-1.641,1.103-3.302,1.694-4.975c1.313-3.605,3.371-8.119,7.928-8.119c3.216,0,5.511,2.298,7.104,4.8
		c1.318,2.021,2.355,4.432,2.355,7.109c0,2.294-1.034,4.485-2.168,6.472c2.406-2.135,4.979-3.91,8.115-5.884l3.572,2.504
		c1.338-0.69,2.416-0.834,3.041-0.834c1.562,0,3.1,0.601,4.436,1.565l14.141-3.717l0.051,2c0.27-0.027,0.545-0.044,0.83-0.044
		c2.02,0,3.547,0.945,4.323,1.501c1.793,1.235,3.054,3.006,4.431,4.661c-0.902,1.962-1.802,3.835-2.494,5.872l-2.771,8.014
		l-4.845-0.82c-0.182,0.518-0.346,1.101-0.479,1.744c-0.574,4.727-1.748,13.52-8.283,13.52c-2.27,0-4.076-0.975-5.433-2.128
		L146.72,135.7L145.063,132.379L145.063,132.379z"/>
	<path fill="#00A651" d="M166.662,105.163l0.049,1.893c0,1.034-0.065,2.118-0.194,3.25c-0.129,1.101-0.289,2.247-0.482,3.444
		c1.16-2.069,2.273-3.994,3.436-5.677c1.161-1.682,2.274-2.522,3.34-2.522c0.322,0,0.709,0.162,1.162,0.485
		c0.483,0.322,0.887,0.679,1.209,1.066c-0.387,0.84-0.807,1.924-1.259,3.25l-1.258,3.64l-3.728-0.63
		c-0.838,0.646-1.531,1.584-2.08,2.812c-0.549,1.196-0.969,2.538-1.258,4.026c-0.228,1.94-0.599,3.914-1.113,5.919
		c-0.518,2.005-1.113,3.008-1.791,3.008c-0.969,0-1.951-0.646-2.952-1.939c-1-1.326-1.5-2.426-1.5-3.299
		c0-1.166,0.468-2.539,1.403-4.125c0.967-1.584,1.451-3.186,1.451-4.803c-0.226-4.593-0.339-7.343-0.339-8.248L166.662,105.163
		L166.662,105.163z"/>
	<path fill="#00A651" d="M150.594,107.978c0.162-0.356,0.582-0.81,1.259-1.358c0.711-0.582,1.211-0.874,1.502-0.874
		c0.74,0,1.467,0.486,2.178,1.457c0.709,0.969,1.064,1.729,1.064,2.279c0,0.873-0.564,2.377-1.695,4.512
		c-1.129,2.135-1.693,3.59-1.693,4.365c0,1.586,0.161,3.269,0.484,5.047c0.354,1.746,0.807,3.089,1.354,4.025l-5.518,1.698
		c-0.547-1.101-0.936-2.278-1.161-3.541c-0.193-1.262-0.29-2.604-0.29-4.026h-0.34c-1.225,1.715-2.678,3.412-4.354,5.094
		c-1.678,1.65-3.13,2.475-4.354,2.475c-1.064,0-2.258-0.855-3.582-2.57c-1.322-1.715-1.983-3.153-1.983-4.317
		c0-2.394,1.42-5.354,4.261-8.878c2.869-3.559,5.822-6.291,8.854-8.199L150.594,107.978L150.594,107.978z M141.737,123.793
		c0.902-0.421,2-1.408,3.291-2.96c1.322-1.585,2.242-2.83,2.759-3.734c0.354-2.813,0.903-5.338,1.646-7.568l-0.482-0.291
		c-2.131,1.423-3.889,3.267-5.276,5.529c-1.354,2.265-2.403,4.819-3.146,7.666L141.737,123.793L141.737,123.793z"/>
	<path fill="#00A651" d="M122.912,129.129c-0.194-0.711-0.291-2.021-0.291-3.93v-0.923c0-2.942,0.306-6.338,0.919-10.188
		c0.613-3.882,1.309-6.938,2.082-9.17c0.87-2.878,1.839-5.82,2.902-8.83c1.098-3.007,2.033-4.511,2.808-4.511
		c0.71,0,1.549,0.76,2.519,2.28c1,1.521,1.498,2.911,1.498,4.172c0,0.906-0.677,2.49-2.031,4.754c-1.354,2.23-2.5,4.658-3.437,7.277
		c-0.903,2.619-1.354,6.063-1.354,10.334c0,1.777,0.031,3.233,0.097,4.366c0.097,1.132,0.21,2.054,0.339,2.765L122.912,129.129
		L122.912,129.129z"/>
	<path fill="#00A651" d="M118.847,105.551c-3.162,6.923-4.742,14.216-4.742,21.88l-6.584,1.698
		c0.355-4.431,0.855-8.278,1.502-11.547c0.678-3.267,1.678-6.711,3-10.333L118.847,105.551L118.847,105.551z"/>
	<path fill="#00A651" d="M96.003,129.129c-0.194-0.711-0.291-2.021-0.291-3.93v-0.923c0-2.942,0.307-6.338,0.919-10.188
		c0.614-3.882,1.308-6.938,2.082-9.17c0.871-2.878,1.839-5.82,2.904-8.83c1.097-3.007,2.032-4.511,2.807-4.511
		c0.71,0,1.55,0.76,2.517,2.28c1,1.521,1.5,2.911,1.5,4.172c0,0.906-0.676,2.49-2.031,4.754c-1.355,2.23-2.501,4.658-3.438,7.277
		c-0.902,2.619-1.354,6.063-1.354,10.334c0,1.777,0.031,3.233,0.097,4.366c0.097,1.132,0.209,2.054,0.339,2.765L96.003,129.129
		L96.003,129.129z"/>
	<path fill="#00A651" d="M86.033,107.978c0.162-0.356,0.582-0.81,1.258-1.358c0.71-0.582,1.21-0.874,1.501-0.874
		c0.742,0,1.468,0.486,2.178,1.457c0.709,0.969,1.064,1.729,1.064,2.279c0,0.873-0.564,2.377-1.694,4.512
		c-1.129,2.135-1.694,3.59-1.694,4.365c0,1.586,0.161,3.269,0.484,5.047c0.355,1.746,0.808,3.089,1.355,4.025l-5.517,1.698
		c-0.548-1.101-0.936-2.278-1.162-3.541c-0.193-1.262-0.29-2.604-0.29-4.026h-0.339c-1.226,1.715-2.677,3.412-4.355,5.094
		c-1.678,1.65-3.129,2.475-4.356,2.475c-1.064,0-2.258-0.855-3.581-2.57c-1.323-1.715-1.984-3.153-1.984-4.317
		c0-2.394,1.419-5.354,4.259-8.878c2.872-3.559,5.824-6.291,8.856-8.199L86.033,107.978L86.033,107.978z M77.176,123.793
		c0.903-0.421,2-1.408,3.291-2.96c1.323-1.585,2.242-2.83,2.759-3.734c0.355-2.813,0.903-5.338,1.645-7.568l-0.484-0.291
		c-2.129,1.423-3.888,3.267-5.275,5.529c-1.355,2.265-2.404,4.819-3.145,7.666L77.176,123.793L77.176,123.793z"/>
	<path fill="#00A651" d="M59.899,129.129c-0.388-1.616-0.581-3.233-0.581-4.853c0-0.743,0.016-1.276,0.049-1.601
		c0.032-0.323,0.096-0.792,0.193-1.407c-2.065,2.49-3.792,4.463-5.276,5.821c-1.483,1.358-2.678,2.038-3.581,2.038
		c-1.291,0-2.614-0.855-3.969-2.57c-1.355-1.746-2.032-3.252-2.032-4.513c0-1.876,1.371-4.594,4.113-8.149
		c2.774-3.559,5.759-6.34,8.953-8.346l3.533,1.989c0.904-3.396,1.92-6.905,3.049-10.526c1.162-3.624,2.227-5.435,3.194-5.435
		c0.742,0,1.598,0.857,2.565,2.571c1,1.682,1.5,3.168,1.5,4.463c-1.742,3.041-3.291,6.307-4.646,9.8s-2.033,7.132-2.033,10.916
		c0,2.489,0.339,5.305,1.017,8.44L59.899,129.129L59.899,129.129z M60.479,109.044c-2.097,1.52-3.872,3.43-5.323,5.725
		c-1.419,2.265-2.548,4.787-3.388,7.568c0.226,0.26,0.435,0.485,0.629,0.68c0.226,0.161,0.564,0.389,1.016,0.68
		c1.388-1.067,2.517-2.104,3.388-3.105c0.871-1.002,1.839-2.408,2.904-4.22c0-1.165,0.081-2.231,0.242-3.202
		c0.193-0.971,0.484-2.266,0.871-3.881L60.479,109.044L60.479,109.044z"/>
	<path fill="#00A651" d="M35.556,129.129c-0.678-2.135-1.146-3.962-1.404-5.481c-0.226-1.521-0.5-3.72-0.822-6.599
		c-0.807-0.323-1.549-0.565-2.227-0.728c-0.645-0.194-1.419-0.291-2.322-0.291l-2.469,0.049c-2.388,4.463-4.42,7.794-6.098,9.993
		c-1.646,2.167-2.775,3.25-3.388,3.25c-0.548,0-0.983-0.388-1.306-1.163c-0.322-0.777-0.484-1.827-0.484-3.154
		c0-2.104,0.435-3.768,1.307-4.996c0.87-1.262,2.194-2.54,3.968-3.833c1.775-1.325,3.436-3.219,4.985-5.676
		c1.581-2.459,3.017-5.144,4.308-8.054c1.322-2.943,1.984-5.37,1.984-7.277c1.129-0.259,2.436-0.599,3.92-1.019l4.355-1.213
		c-0.257,1.52-0.467,3.445-0.629,5.774c-0.128,2.328-0.193,4.252-0.193,5.772c0,4.722,0.177,8.812,0.532,12.273
		c0.355,3.43,1.162,6.905,2.42,10.432L35.556,129.129L35.556,129.129z M33.136,109.771c0-0.938,0.097-2.556,0.29-4.852
		c0.194-2.296,0.291-4.253,0.291-5.87h-0.339c-1.193,3.851-2.209,6.761-3.048,8.732c-0.808,1.94-1.743,3.815-2.808,5.628
		c1.033-0.258,2.033-0.389,3.001-0.389l2.613,0.098V109.771L33.136,109.771z"/>
	<path fill="#FFF200" d="M28.895,129.748c-0.532,0.793-1.086,1.569-1.665,2.33c-1.878,2.472-4.304,5.396-7.715,5.396
		c-2.006,0-3.469-0.81-4.501-1.808c0.556,0.13,1.159,0.204,1.812,0.204c3.786,0,6.483-3.062,8.581-5.825
		c0.827-1.085,1.694-2.354,2.599-3.794C28.257,127.421,28.561,128.587,28.895,129.748L28.895,129.748z"/>
	<path fill="#FFF200" d="M47.179,88.682l2.176-0.605c-0.781,4.607-1.68,9.066-2.002,13.709c-0.085,1.543-0.141,2.896-0.166,4.062
		c-0.533,0.536-1.062,1.1-1.588,1.692c-0.018-0.985-0.027-2.005-0.027-3.058c0-1.405,0.061-3.178,0.178-5.318
		C45.995,95.625,46.565,92.16,47.179,88.682L47.179,88.682z"/>
	<path fill="#FFF200" d="M145.791,136.276c-1.224,0.603-2.588,1.004-4.074,1.004c-1.838,0-3.675-0.797-5.306-2.051
		c0.857,0.287,1.734,0.445,2.615,0.445c2.141,0,4.029-0.732,5.615-1.701L145.791,136.276L145.791,136.276z"/>
	<path fill="#FFF200" d="M135.467,134.856l-13.69,3.621l-0.594-2.121l11.705-3.097C133.702,133.906,134.567,134.45,135.467,134.856
		L135.467,134.856z"/>
	<polygon fill="#FFF200" points="117.866,135.483 104.173,139.015 104.353,136.706 117.265,133.377 	"/>
	<polygon fill="#FFF200" points="100.333,137.033 94.867,138.479 94.273,136.356 100.513,134.707 	"/>
	<polygon fill="#FFF200" points="91.226,136.435 84.848,138.396 83.818,136.331 90.602,134.244 	"/>
	<path fill="#FFF200" d="M81.229,136.276c-1.222,0.603-2.587,1.004-4.074,1.004c-1.796,0-3.592-0.762-5.196-1.969l-13.411,3.011
		l-0.508-2.067l10.995-2.468c1.683,1.167,3.55,1.889,5.431,1.889c2.14,0,4.029-0.731,5.615-1.702L81.229,136.276L81.229,136.276z"/>
	<path fill="#FFF200" d="M56.224,136.663c-1.065,0.39-2.073,0.617-2.832,0.617c-2.291,0-4.192-0.905-5.713-2.094
		c0.925,0.309,1.933,0.488,3.024,0.488c0.905,0,2.326-0.365,3.799-0.967l0.548,2.217L56.224,136.663L56.224,136.663z"/>
	<path fill="#FFF200" d="M46.926,134.903l-12.243,3.69l-0.698-2.155l10.31-3.107C45.071,133.94,45.948,134.49,46.926,134.903
		L46.926,134.903z"/>
	<path fill="#FFF200" d="M165.382,137.28c-2.178,0-3.93-0.896-5.266-1.988c0.787,0.241,1.646,0.384,2.576,0.384
		c7.312,0,8.697-9.045,9.356-14.426l0.169-0.692l4.809,0.813l3.07-8.888c0.67-1.965,1.53-3.785,2.403-5.664
		c0.597,0.697,1.163,1.426,1.751,2.133c-0.902,1.962-1.801,3.836-2.495,5.872l-2.769,8.013l-4.846-0.82
		c-0.182,0.52-0.345,1.102-0.479,1.744C173.091,128.487,171.918,137.28,165.382,137.28L165.382,137.28z"/>
	<path fill="#FFF200" d="M157.028,133.67c0.797,0.608,1.726,1.156,2.787,1.522l-10.406,3.203l-1.029-2.064L157.028,133.67
		L157.028,133.67z"/>
	<path d="M38.693,150.699l1.308,2.381c0.808,1.459,1.211,2.257,1.211,2.392c0,0.192-0.192,0.521-0.577,0.983
		c-0.385,0.463-0.619,0.694-0.702,0.694c-0.32,0-0.778-0.349-1.375-1.043c-0.289-0.348-0.595-0.766-0.918-1.254
		c-0.324-0.487-0.668-1.045-1.034-1.668l-0.24-0.463c-0.09-0.193-0.16-0.289-0.211-0.289c-0.032,0-0.068,0.021-0.106,0.066
		l-0.04,0.163l0.04,0.271l0.039,0.521c0,1.779-0.042,2.896-0.125,3.352c-0.083,0.452-0.25,0.68-0.5,0.68
		c-0.128,0-0.305-0.055-0.529-0.164l-0.5-0.213l-0.654-0.201l-0.452-0.154c-0.16-0.077-0.301-0.18-0.423-0.309
		c-0.096-0.115-0.15-0.229-0.164-0.338L32.759,156c0.08-0.449,0.119-0.915,0.119-1.397v-0.211c0-0.072,0-0.146,0-0.224
		c0-0.069,0-0.118,0-0.144v-0.088v-1.514v-1.947v-0.606v-0.617l0.04-1.647l0.02-1.178v-0.761l-0.059-0.858l0.059-0.299V144.2
		l-0.059-0.184l-0.042-0.192l0.101-0.185l0.163-0.154l0.374,0.088c0.128,0.031,0.229,0.055,0.303,0.066
		c0.073,0.014,0.229,0.035,0.465,0.068l0.24,0.02c0.18,0,0.337,0.01,0.471,0.028c0.135,0.019,0.27,0.048,0.404,0.087
		c0.263,0.059,0.451,0.15,0.563,0.279c0.112,0.128,0.168,0.318,0.168,0.568v0.271l-0.039,0.349l0.039,0.472v0.309
		c0,0.861-0.049,1.755-0.147,2.681l-0.03,0.348c0,0.045,0.008,0.079,0.024,0.102s0.04,0.034,0.072,0.034
		c0.051,0,0.303-0.5,0.755-1.5c0.452-0.999,0.89-1.933,1.313-2.8c0.34-0.694,0.638-1.257,0.895-1.688
		c0.237-0.404,0.395-0.613,0.471-0.627c0.25,0,0.424,0.09,0.52,0.271l0.086,0.146c0.135,0.191,0.409,0.438,0.822,0.731
		c0.414,0.296,0.621,0.505,0.621,0.627c0,0.051-0.32,0.749-0.961,2.092c-0.308,0.644-0.619,1.324-0.933,2.044
		C39.321,149.173,39.02,149.89,38.693,150.699L38.693,150.699z M52.524,157.483c-0.345,0-0.73-0.1-1.156-0.297
		c-0.425-0.199-1.002-0.56-1.73-1.08l-0.432-0.297c-0.467-0.322-0.754-0.56-0.863-0.713c-0.166-0.219-0.323-0.591-0.47-1.117
		c-0.147-0.525-0.221-0.994-0.221-1.404v-0.318v-0.115l-0.035-0.942l-0.012-0.154l-0.012-0.202v-0.191
		c0-0.366,0.023-0.963,0.069-1.791c0.046-0.827,0.069-1.474,0.069-1.936c0-0.494,0.014-0.915,0.041-1.262
		c0.028-0.348,0.06-0.696,0.097-1.049V144.2c0-0.059,0.051-0.157,0.154-0.299c0.083-0.115,0.214-0.213,0.391-0.295
		c0.177-0.08,0.355-0.119,0.535-0.119c0.334,0,0.783,0.15,1.345,0.453s0.844,0.565,0.844,0.791l-0.029,0.153
		c-0.085,0.315-0.128,0.607-0.128,0.878c0,0.084-0.013,0.545-0.04,1.385c-0.027,0.838-0.04,1.436-0.04,1.789
		c0,0.545-0.008,1.078-0.025,1.596c-0.016,0.518-0.034,1.078-0.054,1.683c0,0.927,0.05,1.511,0.15,1.75
		c0.1,0.241,0.291,0.362,0.574,0.362c0.463,0,0.784-0.393,0.96-1.178c0.176-0.783,0.265-2.541,0.265-5.273v-2.257
		c0-0.501-0.005-0.845-0.015-1.027c-0.01-0.183-0.032-0.429-0.066-0.737l-0.021-0.145c0-0.188,0.107-0.346,0.322-0.479
		c0.215-0.131,0.489-0.196,0.822-0.196c0.481,0,1.005,0.181,1.572,0.543c0.567,0.362,0.851,0.641,0.851,0.834l-0.02,0.173
		c-0.091,0.911-0.137,1.906-0.137,2.984v0.875l0.042,1.041l-0.021,1.193l-0.021,0.713c0,1.314-0.077,2.258-0.23,2.824
		c-0.153,0.568-0.408,1.105-0.763,1.612c-0.354,0.508-0.771,0.91-1.251,1.209C53.359,157.336,52.92,157.483,52.524,157.483
		L52.524,157.483z M66.791,149.782c0,0.09,0.011,0.154,0.034,0.197c0.022,0.041,0.063,0.062,0.121,0.062
		c0.084,0,0.297-0.138,0.64-0.41c0.343-0.272,0.69-0.604,1.043-0.998c0.353-0.392,0.577-0.69,0.674-0.896
		c0.084-0.2,0.126-0.45,0.126-0.754c0-0.25-0.113-0.508-0.338-0.771c-0.225-0.264-0.467-0.396-0.725-0.396
		c-0.393,0-0.707,0.029-0.942,0.092c-0.235,0.061-0.372,0.143-0.41,0.246c-0.013,0.045-0.055,0.466-0.126,1.264
		c0,0.321-0.007,0.613-0.021,0.877C66.816,149.209,66.791,149.704,66.791,149.782L66.791,149.782z M69.818,151.702
		c0.378,0.654,0.924,1.47,1.638,2.443c0.713,0.974,1.07,1.607,1.07,1.902c0,0.199-0.141,0.492-0.422,0.877
		c-0.281,0.387-0.501,0.579-0.661,0.579c-0.244,0-0.56-0.162-0.95-0.487c-0.39-0.324-1.01-0.965-1.861-1.922
		c-0.319-0.365-0.666-0.785-1.041-1.262c-0.374-0.477-0.603-0.719-0.686-0.73c-0.051,0-0.096,0.037-0.134,0.114l-0.053,0.347
		l0.01,0.213c0,0.186,0.007,0.43,0.021,0.73c0.015,0.303,0.022,0.479,0.022,0.53l0.02,0.635v0.731c0,0.463-0.019,0.762-0.058,0.896
		c-0.038,0.135-0.144,0.202-0.315,0.202c-0.134,0-0.252,0.017-0.354,0.05l-0.22,0.051c-0.057,0-0.22-0.052-0.488-0.153
		c-0.269-0.104-0.549-0.235-0.842-0.396c-0.153-0.077-0.279-0.155-0.378-0.235c-0.099-0.08-0.172-0.17-0.22-0.266
		c-0.048-0.097-0.089-0.246-0.125-0.447c-0.035-0.203-0.052-0.449-0.052-0.738c0-0.244-0.007-0.696-0.02-1.354
		c-0.013-0.659-0.02-1.134-0.02-1.423l0.04-2.062v-1.61v-1.253l-0.04-1.128c0-0.212,0.007-0.502,0.02-0.868
		c0.013-0.366,0.02-0.627,0.02-0.781c0-0.236,0.011-0.423,0.034-0.554c0.022-0.132,0.053-0.245,0.091-0.338
		c0.039-0.095,0.244-0.191,0.616-0.294l0.318-0.088c0.52-0.153,1.075-0.295,1.666-0.424c0.552-0.104,0.94-0.153,1.165-0.153
		c0.385,0,0.9,0.087,1.545,0.26c0.646,0.174,1.116,0.363,1.411,0.569c0.186,0.128,0.433,0.371,0.742,0.731l0.279,0.339
		c0.347,0.59,0.58,1.074,0.698,1.45c0.118,0.376,0.178,0.772,0.178,1.19c0,0.572-0.171,1.145-0.515,1.717
		C71.625,149.863,70.908,150.667,69.818,151.702L69.818,151.702z M84.171,157.483c-0.345,0-0.73-0.1-1.155-0.297
		c-0.425-0.199-1.002-0.56-1.731-1.08l-0.432-0.297c-0.467-0.322-0.754-0.56-0.863-0.713c-0.167-0.219-0.323-0.591-0.47-1.117
		c-0.147-0.525-0.22-0.994-0.22-1.404v-0.318v-0.115l-0.036-0.942l-0.012-0.154l-0.012-0.202v-0.191
		c0-0.366,0.023-0.963,0.069-1.791c0.046-0.827,0.069-1.474,0.069-1.936c0-0.494,0.014-0.915,0.042-1.262
		c0.027-0.348,0.06-0.696,0.097-1.049V144.2c0-0.059,0.051-0.157,0.154-0.299c0.084-0.115,0.214-0.213,0.391-0.295
		c0.177-0.08,0.355-0.119,0.536-0.119c0.334,0,0.783,0.15,1.345,0.453s0.844,0.565,0.844,0.791l-0.03,0.153
		c-0.085,0.315-0.128,0.607-0.128,0.878c0,0.084-0.013,0.545-0.04,1.385c-0.027,0.838-0.039,1.436-0.039,1.789
		c0,0.545-0.008,1.078-0.025,1.596s-0.035,1.078-0.054,1.683c0,0.927,0.049,1.511,0.149,1.75c0.1,0.241,0.291,0.362,0.574,0.362
		c0.464,0,0.784-0.393,0.961-1.178c0.177-0.783,0.265-2.541,0.265-5.273v-2.257c0-0.501-0.005-0.845-0.015-1.027
		c-0.011-0.183-0.033-0.429-0.066-0.737l-0.021-0.145c0-0.188,0.107-0.346,0.322-0.479c0.215-0.131,0.489-0.196,0.822-0.196
		c0.481,0,1.005,0.181,1.572,0.543c0.567,0.362,0.851,0.641,0.851,0.834l-0.02,0.173c-0.091,0.911-0.137,1.906-0.137,2.984v0.875
		l0.042,1.041l-0.021,1.193l-0.021,0.713c0,1.314-0.077,2.258-0.23,2.824c-0.154,0.568-0.408,1.105-0.763,1.612
		c-0.354,0.508-0.772,0.91-1.251,1.209S84.567,157.483,84.171,157.483L84.171,157.483z M99.25,157.426
		c-0.173,0-0.381-0.039-0.624-0.116l-0.385-0.125l-0.374-0.039c-0.192-0.019-0.347-0.055-0.462-0.104
		c-0.115-0.052-0.195-0.101-0.24-0.146s-0.066-0.111-0.066-0.201v-0.185l0.045-0.327l-0.045-0.965l-0.041-1.639l0.041-0.443v-0.424
		c0-0.077-0.177-0.471-0.53-1.182s-0.661-1.463-0.924-2.26c-0.372-1.119-0.653-2.066-0.842-2.845
		c-0.189-0.776-0.284-1.354-0.284-1.735c0-0.172,0.186-0.375,0.558-0.606c0.173-0.108,0.343-0.194,0.509-0.26
		c0.167-0.064,0.317-0.097,0.452-0.097c0.622,0,1.244,0.797,1.865,2.391l0.145,0.376l0.355,0.974
		c0.154,0.463,0.279,0.694,0.375,0.694c0.059,0,0.224-0.447,0.496-1.34c0.271-0.894,0.533-1.685,0.783-2.371l0.26-0.8
		c0.302-0.938,0.635-1.407,1-1.407c0.371,0,0.812,0.137,1.322,0.409c0.51,0.272,0.764,0.524,0.764,0.757
		c0,0.264-0.243,1.181-0.73,2.752c-0.486,1.571-1.076,3.272-1.77,5.104l-0.135,0.308c-0.166,0.373-0.299,0.762-0.395,1.167
		c-0.098,0.404-0.145,0.842-0.145,1.311c0,0.264-0.013,0.715-0.033,1.354c-0.022,0.64-0.033,1.108-0.033,1.411l-0.01,0.213
		c0,0.154-0.067,0.26-0.202,0.318c-0.063,0.024-0.147,0.045-0.255,0.058C99.591,157.419,99.442,157.426,99.25,157.426L99.25,157.426
		z M111.46,157.618c-0.744-0.342-1.256-0.717-1.534-1.124c-0.278-0.409-0.419-1.048-0.419-1.916v-0.231
		c0-1.113,0.01-2.132,0.03-3.056c0.021-0.923,0.042-1.873,0.067-2.853c0.026-0.979,0.039-1.656,0.039-2.037
		c0-1.942,0.123-2.913,0.365-2.913l0.154,0.028l0.191,0.027l0.105-0.027l0.191-0.028c0.039,0,0.102,0.003,0.188,0.009
		c0.087,0.007,0.189,0.02,0.312,0.038l0.586,0.048c0.063,0,0.166-0.003,0.304-0.01c0.138-0.006,0.304-0.02,0.495-0.038l0.932-0.047
		c0.244,0,0.499,0.013,0.766,0.038c0.266,0.025,0.533,0.066,0.803,0.125c0.538,0.097,0.849,0.187,0.934,0.271
		c0.172,0.173,0.327,0.476,0.465,0.905c0.139,0.43,0.207,0.859,0.207,1.291c0,0.129-0.478,0.24-1.431,0.338
		c-0.399,0-0.843,0.033-1.329,0.102c-0.486,0.067-0.843,0.116-1.068,0.148l-0.058,0.686v1.012v0.289c0,0.136,0,0.244,0,0.328h0.908
		c0.252,0,0.483,0.002,0.696,0.01c0.213,0.007,0.438,0.021,0.678,0.044c0.238,0.022,0.391,0.062,0.455,0.12
		c0.309,0.348,0.515,0.634,0.617,0.857c0.104,0.225,0.154,0.459,0.154,0.703l-0.019,0.28l-0.021,0.212l0.01,0.116l0.011,0.125
		c0,0.114-0.503,0.254-1.511,0.413c-0.871,0.123-1.557,0.231-2.057,0.328v0.85l-0.011,0.299l-0.01,0.262l0.028,0.221l0.097,0.328
		l1.489-0.068l0.904-0.03c0.23,0,0.346,0.071,0.346,0.213c0,0.07,0.018,0.119,0.049,0.146l0.203,0.174
		c0.576,0.463,0.865,1.036,0.865,1.719c0,0.143-0.027,0.239-0.082,0.294c-0.056,0.056-0.207,0.082-0.457,0.082l-0.99,0.211
		c-0.256,0.06-0.453,0.101-0.592,0.125c-0.138,0.026-0.338,0.058-0.602,0.097c-0.134,0.039-0.32,0.086-0.559,0.145
		c-0.166,0.039-0.357,0.08-0.575,0.125c-0.22,0.045-0.431,0.084-0.636,0.115C112.067,157.544,111.838,157.573,111.46,157.618
		L111.46,157.618z M126.358,157.524h-0.262h-0.174c-0.312,0-0.706-0.1-1.177-0.295c-0.472-0.195-0.754-0.343-0.851-0.438
		c-0.09-0.116-0.164-0.338-0.222-0.666c-0.038-0.309-0.058-0.986-0.058-2.034c0-0.911,0.013-1.856,0.037-2.834
		c0.025-0.978,0.054-2.003,0.082-3.075c0.029-1.074,0.043-1.867,0.043-2.383l0.021-0.451v-0.318c0-0.354,0.093-0.631,0.279-0.829
		c0.187-0.199,0.438-0.3,0.76-0.3c0.5,0,1.218,0.146,2.153,0.435l0.529,0.164c0.107,0.024,0.191,0.173,0.25,0.442l0.037,0.223
		l0.355,1.87c0.309,1.664,0.525,2.497,0.654,2.497c0.186,0,0.52-1.401,1-4.203v-0.049c0.02-0.083,0.063-0.297,0.135-0.637
		c0.052-0.25,0.102-0.494,0.146-0.731c0.076-0.493,0.267-0.739,0.568-0.739c0.393,0,0.913,0.09,1.562,0.266
		c0.649,0.178,1.137,0.364,1.457,0.563c0.129,0.077,0.242,0.188,0.338,0.337c0.021,0.026,0.045,0.084,0.078,0.174
		c0.031,0.09,0.049,0.178,0.049,0.262c0,0.051-0.004,0.125-0.012,0.226s-0.022,0.224-0.046,0.371l-0.056,0.687l0.059,1.59
		c0,0.334,0.008,0.818,0.026,1.455s0.026,1.107,0.026,1.416c0,0.604-0.012,1.211-0.032,1.817s-0.044,1.265-0.065,1.972
		s-0.033,1.266-0.033,1.676l-0.02,0.617l0.02,0.328l0.021,0.24c0,0.129-0.058,0.221-0.173,0.275
		c-0.116,0.055-0.314,0.082-0.598,0.082c-0.524,0-1.004-0.077-1.438-0.231c-0.434-0.153-0.648-0.334-0.648-0.54v-0.115l0.02-0.203
		c0.051-0.514,0.089-1.019,0.113-1.514c0.025-0.495,0.039-1.048,0.039-1.658c0-1.627,0.062-3.089,0.184-4.387l0.02-0.251
		c0-0.06-0.02-0.112-0.058-0.164c-0.019-0.039-0.054-0.06-0.104-0.06c-0.07,0-0.289,0.875-0.653,2.623
		c-0.154,0.783-0.273,1.358-0.356,1.726c-0.135,0.616-0.267,1.187-0.395,1.705c-0.077,0.315-0.225,0.878-0.441,1.688
		c-0.07,0-0.171-0.026-0.299-0.08c-0.032-0.013-0.083-0.027-0.152-0.043c-0.072-0.019-0.133-0.028-0.184-0.035l-0.059,0.01
		l-0.076,0.01c-0.104,0-0.275-0.048-0.521-0.145c-0.243-0.098-0.382-0.164-0.413-0.202c-0.025-0.052-0.115-0.392-0.27-1.021
		l-0.317-1.34c-0.212-0.893-0.39-1.832-0.534-2.816c-0.144-0.986-0.261-1.479-0.351-1.479c-0.058,0-0.099,0.031-0.12,0.092
		c-0.021,0.062-0.033,0.188-0.033,0.382l0.02,0.388c0,0.411,0.013,0.89,0.037,1.431c0.025,0.541,0.052,1.084,0.076,1.629
		c0.024,0.544,0.037,1.045,0.037,1.502v1.372v0.744c0,0.06,0,0.11,0,0.16c0,0.048,0.008,0.11,0.023,0.188l0.095,0.385
		L126.358,157.524L126.358,157.524z M141.901,152.358v-1.303v-1.33v-1.379l0.06-1.427v-0.714l-0.06-0.8l0.06-0.54l0.036-0.704
		c0-0.09-0.012-0.202-0.036-0.338l-0.06-0.261c0-0.129,0.115-0.238,0.35-0.332c0.232-0.094,0.533-0.141,0.902-0.141
		c0.396,0,0.847,0.124,1.354,0.372c0.508,0.247,0.76,0.433,0.76,0.554l-0.037,0.116c-0.053,0.354-0.078,0.71-0.078,1.069
		c0,0.161-0.004,0.296-0.01,0.404c-0.033,0.533-0.05,0.865-0.05,0.994c0,0.225-0.01,0.494-0.028,0.81
		c-0.021,0.315-0.029,0.515-0.029,0.598c0,0.136,0.017,0.53,0.049,1.187c0.033,0.656,0.05,1.25,0.05,1.783
		c0,0.488,0.011,0.998,0.031,1.528s0.043,1.099,0.065,1.701v0.106c0,0.129-0.002,0.271-0.008,0.429
		c-0.005,0.157-0.016,0.325-0.031,0.507l-0.039,0.8v0.339l0.039,0.326c0,0.387-0.062,0.63-0.188,0.733
		c-0.126,0.103-0.459,0.153-1.001,0.153c-0.612,0-1.116-0.108-1.51-0.328c-0.394-0.219-0.591-0.494-0.591-0.828v-0.252v-1.57v-0.926
		V152.358L141.901,152.358z M143.67,141.632c-0.354,0-0.703-0.107-1.051-0.322c-0.349-0.215-0.521-0.451-0.521-0.707
		c0-0.069,0.039-0.246,0.121-0.528c0.079-0.283,0.17-0.494,0.273-0.636c0.115-0.181,0.254-0.311,0.414-0.391s0.369-0.12,0.627-0.12
		c0.277,0,0.572,0.195,0.888,0.587c0.315,0.393,0.474,0.678,0.474,0.856c0,0.237-0.138,0.507-0.41,0.81
		C144.212,141.481,143.94,141.632,143.67,141.632L143.67,141.632z M155.69,157.426c-0.782-0.147-1.522-0.518-2.223-1.108
		c-0.916-0.783-1.432-1.731-1.547-2.844c0.346-0.264,0.627-0.457,0.842-0.578c0.215-0.123,0.394-0.184,0.534-0.184
		c0.257,0,0.433,0.087,0.529,0.26l0.067,0.116c0.287,0.476,0.597,0.833,0.924,1.074c0.326,0.241,0.664,0.36,1.011,0.36
		c0.211,0,0.396-0.078,0.549-0.235s0.229-0.354,0.229-0.593c0-0.385-0.4-0.912-1.203-1.58c-0.471-0.387-0.816-0.688-1.041-0.907
		c-0.616-0.591-1.066-1.177-1.35-1.759c-0.281-0.581-0.424-1.2-0.424-1.855c0-0.738,0.229-1.5,0.684-2.283
		c0.455-0.785,1.02-1.393,1.692-1.822c0.308-0.199,0.53-0.328,0.668-0.387c0.138-0.058,0.271-0.086,0.397-0.086
		c0.244,0,0.578,0.125,1.002,0.377c0.423,0.25,0.76,0.426,1.01,0.528c0.652,0.265,1.146,0.685,1.477,1.265
		c0.33,0.577,0.496,1.322,0.496,2.234c0,0.516-0.076,0.913-0.228,1.196c-0.149,0.282-0.363,0.424-0.64,0.424
		c-0.385,0-0.797-0.062-1.239-0.185c-0.442-0.121-0.705-0.25-0.789-0.386c-0.052-0.083-0.123-0.325-0.216-0.728
		c-0.094-0.401-0.141-0.688-0.141-0.862v-0.212c0-0.188-0.022-0.318-0.07-0.396c-0.039-0.076-0.112-0.114-0.223-0.114
		c-0.115,0-0.269,0.157-0.462,0.472c-0.192,0.314-0.289,0.655-0.289,1.021c0,0.746,0.681,1.66,2.04,2.746l0.23,0.174
		c0.359,0.27,0.666,0.533,0.919,0.793c0.254,0.262,0.446,0.514,0.581,0.758c0.283,0.486,0.425,1.056,0.425,1.704
		c0,1.015-0.331,1.881-0.992,2.601c-0.31,0.34-0.647,0.602-1.021,0.784s-0.777,0.274-1.215,0.274l-0.02,0.166l-0.038,0.41
		c0,0.059,0.021,0.107,0.058,0.149c0.039,0.043,0.09,0.069,0.154,0.083h0.434c0.475,0,0.865,0.152,1.172,0.458
		c0.309,0.306,0.463,0.692,0.463,1.162c0,0.546-0.19,0.962-0.572,1.248c-0.381,0.284-0.95,0.429-1.707,0.429
		c-0.646,0-1.285-0.096-1.913-0.289c-0.628-0.191-0.942-0.373-0.942-0.54c0-0.219,0.049-0.414,0.145-0.588
		c0.104-0.161,0.212-0.241,0.327-0.241c0.032,0.014,0.065,0.025,0.101,0.038c0.036,0.015,0.09,0.042,0.159,0.087
		c0.634,0.364,1.263,0.547,1.884,0.547c0.23,0,0.424-0.045,0.577-0.138c0.153-0.091,0.229-0.192,0.229-0.307
		c0-0.233-0.062-0.402-0.188-0.507c-0.125-0.104-0.331-0.155-0.619-0.155h-0.27h-0.279c-0.128,0-0.229-0.041-0.302-0.125
		c-0.074-0.084-0.111-0.199-0.111-0.347c0-0.154,0.029-0.405,0.087-0.752c0.021-0.137,0.038-0.252,0.059-0.349
		C155.593,157.827,155.633,157.663,155.69,157.426L155.69,157.426z"/>
</g>
</svg>
