<?xml version="1.0" encoding="utf-8"?>
<!-- Generator: Adobe Illustrator 16.0.0, SVG Export Plug-In . SVG Version: 6.00 Build 0)  -->
<!DOCTYPE svg PUBLIC "-//W3C//DTD SVG 1.1//EN" "http://www.w3.org/Graphics/SVG/1.1/DTD/svg11.dtd">
<svg version="1.1" id="Layer_1" xmlns="http://www.w3.org/2000/svg" xmlns:xlink="http://www.w3.org/1999/xlink" x="0px" y="0px"
	 width="160.823px" height="96.296px" viewBox="318.666 254.429 160.823 96.296"
	 enable-background="new 318.666 254.429 160.823 96.296" xml:space="preserve">
<g>
	<g>
		
			<image overflow="visible" opacity="0.5" enable-background="new    " width="162" height="97" xlink:href="BD2F251B182D23F4.png"  transform="matrix(0.9927 0 0 0.9927 318.6655 254.4287)">
		</image>
		<g>
			<g>
				
					<linearGradient id="SVGID_1_" gradientUnits="userSpaceOnUse" x1="344.8613" y1="233.3804" x2="344.8613" y2="304.7678" gradientTransform="matrix(1 0 0 -1 54 565)">
					<stop  offset="0.1044" style="stop-color:#0099D9"/>
					<stop  offset="0.289" style="stop-color:#46B5E3"/>
					<stop  offset="0.4795" style="stop-color:#87CFED"/>
					<stop  offset="0.6529" style="stop-color:#BBE4F5"/>
					<stop  offset="0.803" style="stop-color:#E0F3FA"/>
					<stop  offset="0.9237" style="stop-color:#F7FCFE"/>
					<stop  offset="1" style="stop-color:#FFFFFF"/>
				</linearGradient>
				<path fill="url(#SVGID_1_)" d="M387.29,323.326c-3.708,0-6.319-1.215-7.996-2.418c-0.894,0.508-1.804,0.933-2.711,1.268
					c-1.551,0.57-3.115,0.858-4.655,0.858c-1.541,0-2.985-0.214-4.297-0.638c-0.449-0.145-0.888-0.314-1.312-0.512
					c-1.419,0.537-2.88,0.816-4.314,0.816c-1.279,0-2.519-0.167-3.685-0.497c-0.178-0.05-0.353-0.104-0.526-0.161
					c-1.088,0.305-2.187,0.457-3.279,0.457c-1.965,0-3.841-0.427-5.574-1.27c-1.774-0.856-3.304-2.112-4.532-3.727
					c-1.037-1.361-1.824-2.956-2.34-4.738c-0.44-1.539-0.661-3.203-0.661-4.974c0-1.795,0.229-3.595,0.685-5.351
					c0.412-1.598,0.987-3.161,1.706-4.633c0.701-1.44,1.539-2.813,2.488-4.077c0.994-1.319,2.08-2.492,3.234-3.496
					c1.318-1.143,2.733-2.07,4.212-2.761l0.372-0.42c1.193-1.345,2.736-2.367,4.463-2.956c1.194-0.408,2.449-0.614,3.729-0.614
					c1.631,0,3.186,0.252,4.626,0.749c0.218-0.938,0.514-1.805,0.896-2.618c0.904-1.904,2.25-3.455,3.907-4.523
					c1.746-1.11,3.721-1.681,5.76-1.681c1.247,0,2.489,0.204,3.692,0.607c0.906,0.304,1.78,0.709,2.607,1.208
					c0.771,0.464,1.512,1.018,2.186,1.64c0.688,0.639,1.279,1.308,1.79,2.015c0.573,0.79,1.055,1.646,1.419,2.53
					c0.631,0.074,1.248,0.194,1.848,0.36c0.316,0.089,0.626,0.19,0.927,0.301c0.144-0.254,0.288-0.503,0.435-0.747
					c0.861-1.435,1.807-2.727,2.808-3.84c1.218-1.361,2.58-2.494,4.032-3.35c2.066-1.215,4.268-1.829,6.55-1.829
					c1.372,0,2.691,0.205,3.926,0.608c1.626,0.532,3.068,1.397,4.29,2.572c1.278,1.252,2.197,2.701,2.784,4.36
					c0.404,1.154,0.634,2.385,0.688,3.681c0.399-0.042,0.8-0.062,1.201-0.062c1.17,0,2.236,0.136,3.258,0.416
					c0.546,0.155,1.068,0.347,1.565,0.573c0.989-0.25,1.979-0.375,2.958-0.375c0.203,0,0.404,0.004,0.604,0.014
					c0.472-0.974,0.97-1.902,1.493-2.772c0.859-1.429,1.799-2.715,2.793-3.824c1.234-1.375,2.589-2.502,4.031-3.355
					c2.077-1.221,4.277-1.835,6.562-1.835c1.365,0,2.682,0.203,3.91,0.604c1.655,0.542,3.106,1.416,4.33,2.603
					c1.253,1.226,2.171,2.675,2.758,4.334c0.47,1.334,0.702,2.768,0.702,4.281c0,0.992-0.13,2.029-0.386,3.083
					c-0.046,0.194-0.098,0.392-0.155,0.594c0.167,0.188,0.329,0.384,0.486,0.585c1.814,2.326,2.74,5.343,2.74,8.959
					c0,1.347-0.137,2.739-0.402,4.138c-0.242,1.274-0.592,2.563-1.037,3.828c-0.427,1.213-0.949,2.424-1.551,3.594
					c-0.608,1.176-1.288,2.295-2.028,3.347c-0.782,1.108-1.631,2.134-2.529,3.062c-0.988,1.025-2.062,1.94-3.183,2.715
					c-1.236,0.857-2.571,1.559-3.947,2.068c-1.646,0.614-3.389,0.934-5.146,0.934c-2.123,0-4.123-0.422-5.943-1.25
					c-0.236-0.107-0.469-0.223-0.698-0.346c-0.597,0.289-1.195,0.543-1.796,0.76c-1.549,0.556-3.097,0.836-4.61,0.836
					c-1.544,0-2.991-0.215-4.304-0.639c-0.094-0.031-0.187-0.062-0.278-0.095c-0.465,0.111-0.941,0.19-1.442,0.244
					c-0.555,0.054-1.044,0.076-1.548,0.076c-2.035,0-3.974-0.472-5.762-1.4c-0.45-0.233-0.885-0.491-1.302-0.772
					c-1.053,0.668-2.168,1.224-3.312,1.648c-1.663,0.619-3.401,0.938-5.156,0.938c-2.125,0-4.125-0.422-5.945-1.25
					c-0.152-0.069-0.304-0.144-0.451-0.219c-0.625,0.321-1.25,0.603-1.87,0.84C390.473,323.018,388.866,323.326,387.29,323.326z"/>
			</g>
			<g>
				<path fill="#FFFFFF" d="M441.932,283.334c0.416,0,0.787,0.053,1.117,0.16c0.328,0.107,0.607,0.274,0.838,0.498
					c0.23,0.226,0.408,0.512,0.533,0.865c0.123,0.351,0.187,0.775,0.187,1.271c0,0.274-0.043,0.593-0.132,0.955
					c-0.086,0.361-0.231,0.784-0.436,1.267c-0.207,0.482-0.473,1.031-0.801,1.643c-0.328,0.615-0.732,1.313-1.217,2.097
					c-0.48,0.785-1.048,1.658-1.693,2.62c-0.646,0.962-1.389,2.028-2.228,3.201c-0.1,0.637-0.194,1.296-0.282,1.976
					c-0.086,0.682-0.16,1.338-0.22,1.971c-0.062,0.635-0.108,1.223-0.143,1.766s-0.051,0.999-0.051,1.365
					c0,0.898,0.014,1.623,0.041,2.17c0.026,0.545,0.065,0.965,0.119,1.26c0.055,0.296,0.127,0.492,0.217,0.589
					c0.092,0.099,0.196,0.146,0.317,0.146c0.254,0,0.523-0.099,0.81-0.297c0.285-0.195,0.565-0.463,0.85-0.799
					c0.281-0.334,0.551-0.722,0.81-1.16c0.26-0.438,0.483-0.901,0.68-1.388c0.193-0.485,0.35-0.979,0.467-1.479
					c0.117-0.498,0.176-0.973,0.176-1.422c0-0.396-0.026-0.729-0.086-1.006c-0.057-0.274-0.157-0.511-0.301-0.709
					c-0.143-0.197-0.338-0.363-0.584-0.503c-0.244-0.137-0.551-0.263-0.92-0.377c-0.047-0.188-0.08-0.358-0.1-0.513
					c-0.021-0.154-0.029-0.315-0.029-0.482c0-0.536,0.109-1.054,0.33-1.553c0.223-0.5,0.518-0.942,0.891-1.327
					c0.373-0.385,0.808-0.695,1.301-0.925c0.496-0.232,1.019-0.348,1.562-0.348c1.11,0,1.945,0.356,2.502,1.071
					c0.557,0.713,0.836,1.851,0.836,3.413c0,0.79-0.082,1.607-0.242,2.447c-0.16,0.842-0.389,1.683-0.684,2.519
					c-0.295,0.838-0.65,1.66-1.064,2.465c-0.416,0.804-0.879,1.564-1.383,2.281c-0.508,0.719-1.051,1.377-1.635,1.98
					c-0.582,0.604-1.191,1.125-1.826,1.562c-0.633,0.439-1.281,0.782-1.949,1.029c-0.666,0.249-1.338,0.373-2.016,0.373
					c-0.83,0-1.564-0.146-2.201-0.438c-0.639-0.293-1.17-0.74-1.598-1.349c-0.431-0.604-0.754-1.382-0.972-2.327
					c-0.073-0.318-0.131-0.666-0.18-1.025c-0.416,0.453-0.844,0.904-1.309,1.338c-0.554,0.516-1.132,1.004-1.73,1.462
					c-0.6,0.461-1.193,0.864-1.783,1.213s-1.166,0.623-1.725,0.824c-0.562,0.2-1.078,0.302-1.553,0.302
					c-0.604,0-1.113-0.066-1.527-0.201c-0.416-0.134-0.752-0.339-1.006-0.613c-0.256-0.274-0.439-0.621-0.549-1.041
					c-0.111-0.418-0.166-0.912-0.166-1.482c0-0.455,0.053-0.939,0.155-1.457c0.104-0.518,0.232-1.036,0.388-1.562
					c0.151-0.525,0.321-1.043,0.508-1.549c0.184-0.506,0.354-0.972,0.508-1.396c0.154-0.426,0.283-0.797,0.387-1.11
					c0.104-0.315,0.156-0.551,0.156-0.704c0-0.328-0.166-0.492-0.494-0.492c-0.094,0-0.242,0.043-0.451,0.131
					c-0.207,0.088-0.461,0.24-0.756,0.457c-0.295,0.219-0.623,0.511-0.983,0.875c-0.361,0.365-0.744,0.824-1.146,1.383
					c-0.146,0.791-0.271,1.513-0.377,2.166c-0.104,0.654-0.19,1.281-0.266,1.885c-0.074,0.604-0.136,1.21-0.183,1.814
					c-0.047,0.606-0.086,1.258-0.119,1.955c-0.102,0.101-0.2,0.187-0.297,0.256c-0.098,0.072-0.207,0.127-0.325,0.168
					c-0.123,0.039-0.265,0.066-0.431,0.084c-0.164,0.017-0.36,0.025-0.598,0.025c-0.576,0-1.107-0.128-1.598-0.383
					c-0.488-0.254-0.912-0.594-1.271-1.021c-0.359-0.424-0.641-0.918-0.846-1.481c-0.203-0.562-0.312-1.153-0.326-1.771
					c0-0.783,0.086-1.599,0.252-2.441c0.168-0.846,0.428-1.746,0.783-2.705c-0.166-0.389-0.277-0.809-0.332-1.257
					c-0.053-0.448-0.08-0.882-0.08-1.297c0-0.401,0.094-0.85,0.281-1.342c0.188-0.493,0.44-0.988,0.76-1.487
					c0.318-0.5,0.688-0.984,1.104-1.454c0.421-0.469,0.861-0.886,1.324-1.252c0.461-0.364,0.929-0.658,1.4-0.879
					c0.475-0.222,0.92-0.332,1.342-0.332c0.355,0,0.648,0.033,0.877,0.096c0.228,0.064,0.406,0.166,0.537,0.307
					s0.221,0.32,0.275,0.538c0.054,0.218,0.079,0.48,0.079,0.789c0,0.254-0.032,0.613-0.1,1.075
					c-0.068,0.463-0.168,0.969-0.303,1.519c-0.133,0.55-0.303,1.118-0.51,1.705c-0.209,0.586-0.449,1.131-0.726,1.634
					c0.75-1.302,1.484-2.397,2.205-3.293c0.721-0.894,1.41-1.62,2.066-2.176c0.655-0.557,1.271-0.959,1.846-1.207
					c0.572-0.248,1.084-0.372,1.531-0.372c0.477,0,0.893,0.072,1.248,0.216c0.354,0.146,0.649,0.347,0.891,0.603
					c0.238,0.26,0.414,0.562,0.533,0.905c0.115,0.347,0.176,0.719,0.176,1.122c0,0.55-0.092,1.194-0.273,1.935
					c-0.18,0.741-0.487,1.604-0.926,2.59c-0.119,0.301-0.256,0.629-0.403,0.983c-0.152,0.354-0.304,0.72-0.453,1.091
					c-0.15,0.373-0.3,0.742-0.443,1.105c-0.145,0.365-0.271,0.712-0.387,1.037c-0.113,0.324-0.203,0.621-0.271,0.889
					c-0.065,0.27-0.1,0.489-0.1,0.664c0,0.229,0.049,0.386,0.149,0.479c0.101,0.088,0.244,0.135,0.435,0.135
					c0.207,0,0.516-0.129,0.924-0.387c0.408-0.259,0.879-0.633,1.412-1.121c0.533-0.489,1.113-1.094,1.738-1.811
					c0.252-0.287,0.506-0.602,0.758-0.919c0.039-0.672,0.098-1.351,0.178-2.037c0.158-1.34,0.381-2.674,0.668-4.001
					c0.289-1.327,0.637-2.624,1.041-3.891c0.406-1.267,0.855-2.467,1.348-3.6c0.492-1.132,1.023-2.173,1.595-3.121
					c0.57-0.948,1.164-1.766,1.778-2.452c0.617-0.688,1.252-1.224,1.904-1.609C440.619,283.527,441.273,283.334,441.932,283.334
					 M405.777,283.334c0.416,0,0.789,0.053,1.116,0.16c0.328,0.107,0.607,0.274,0.841,0.498c0.229,0.226,0.407,0.512,0.532,0.865
					c0.123,0.351,0.185,0.775,0.185,1.271c0,0.274-0.041,0.593-0.129,0.955c-0.088,0.361-0.234,0.784-0.438,1.267
					c-0.205,0.482-0.473,1.031-0.801,1.643c-0.328,0.615-0.732,1.313-1.215,2.097c-0.482,0.785-1.049,1.658-1.695,2.62
					c-0.646,0.962-1.389,2.028-2.227,3.201c-0.101,0.637-0.193,1.296-0.279,1.976c-0.088,0.682-0.162,1.338-0.223,1.971
					c-0.062,0.635-0.107,1.223-0.142,1.766c-0.033,0.543-0.051,0.999-0.051,1.365c0,0.898,0.014,1.623,0.039,2.17
					c0.027,0.545,0.068,0.965,0.121,1.26c0.053,0.296,0.127,0.492,0.217,0.589c0.092,0.099,0.197,0.146,0.316,0.146
					c0.256,0,0.524-0.099,0.811-0.297c0.283-0.195,0.566-0.463,0.849-0.799c0.28-0.334,0.553-0.722,0.811-1.16
					s0.482-0.901,0.678-1.388c0.196-0.485,0.351-0.979,0.47-1.479c0.116-0.498,0.176-0.973,0.176-1.422
					c0-0.396-0.029-0.729-0.086-1.006c-0.058-0.274-0.156-0.511-0.301-0.709c-0.146-0.197-0.341-0.363-0.585-0.503
					c-0.243-0.137-0.553-0.263-0.92-0.377c-0.047-0.188-0.08-0.358-0.102-0.513c-0.021-0.154-0.027-0.315-0.027-0.482
					c0-0.536,0.109-1.054,0.328-1.553c0.224-0.5,0.521-0.942,0.894-1.327c0.371-0.385,0.805-0.695,1.301-0.925
					c0.496-0.232,1.016-0.348,1.559-0.348c1.113,0,1.947,0.356,2.504,1.071c0.556,0.713,0.834,1.851,0.834,3.413
					c0,0.79-0.08,1.607-0.239,2.447c-0.16,0.842-0.39,1.683-0.685,2.519c-0.295,0.838-0.649,1.66-1.065,2.465
					c-0.416,0.804-0.877,1.564-1.384,2.281c-0.506,0.719-1.051,1.377-1.633,1.98c-0.584,0.604-1.19,1.125-1.826,1.562
					c-0.633,0.439-1.282,0.782-1.948,1.029c-0.668,0.249-1.341,0.373-2.017,0.373c-0.83,0-1.565-0.146-2.203-0.438
					c-0.636-0.293-1.168-0.74-1.598-1.349c-0.428-0.604-0.752-1.382-0.971-2.327c-0.066-0.291-0.12-0.604-0.165-0.932
					c-0.408,0.456-0.822,0.909-1.276,1.35c-0.557,0.539-1.139,1.051-1.745,1.532c-0.605,0.481-1.209,0.905-1.805,1.267
					c-0.598,0.362-1.174,0.65-1.734,0.865c-0.56,0.215-1.077,0.322-1.553,0.322c-1.253,0-2.219-0.284-2.896-0.85
					c-0.677-0.566-1.017-1.438-1.017-2.609c0-0.456,0.05-0.926,0.151-1.412c0.101-0.486,0.224-0.969,0.371-1.447
					c0.146-0.479,0.308-0.947,0.48-1.402c0.176-0.456,0.336-0.879,0.483-1.268c0.146-0.39,0.271-0.734,0.373-1.041
					c0.101-0.305,0.148-0.544,0.148-0.719c0-0.248-0.11-0.449-0.336-0.604c-0.225-0.153-0.563-0.324-1.02-0.512
					c-0.322,0.608-0.626,1.16-0.91,1.651c-0.285,0.493-0.569,0.954-0.851,1.383c-0.282,0.429-0.57,0.835-0.865,1.218
					c-0.013,0.016-0.026,0.031-0.039,0.047c-0.063,0.103-0.116,0.199-0.187,0.305c-0.339,0.51-0.734,1.035-1.189,1.578
					c-0.457,0.543-0.948,1.072-1.475,1.589c-0.526,0.516-1.077,1.004-1.654,1.462c-0.576,0.461-1.15,0.863-1.725,1.213
					c-0.573,0.35-1.133,0.623-1.679,0.824c-0.547,0.201-1.058,0.302-1.533,0.302c-0.604,0-1.111-0.067-1.526-0.201
					c-0.416-0.134-0.751-0.339-1.007-0.612c-0.254-0.275-0.438-0.621-0.548-1.041c-0.11-0.418-0.167-0.914-0.167-1.483
					c0-0.455,0.029-0.905,0.086-1.353c0.004-0.026,0.013-0.059,0.019-0.086c-0.254,0.267-0.492,0.537-0.761,0.795
					c-0.521,0.496-1.058,0.965-1.608,1.408c-0.554,0.441-1.095,0.829-1.624,1.16c-0.529,0.332-1.034,0.596-1.515,0.789
					c-0.479,0.195-0.902,0.292-1.271,0.292c-0.448,0-0.856-0.052-1.227-0.155c-0.368-0.104-0.68-0.283-0.935-0.543
					c-0.256-0.258-0.453-0.604-0.595-1.035c-0.141-0.434-0.21-0.978-0.21-1.635c0-0.229,0.011-0.477,0.035-0.744
					c0.021-0.268,0.055-0.556,0.095-0.863c-0.328,0.938-0.688,1.715-1.08,2.326c-0.393,0.615-0.792,1.103-1.2,1.463
					c-0.408,0.363-0.816,0.617-1.223,0.766c-0.406,0.146-0.789,0.221-1.151,0.221c-0.59,0-1.135-0.119-1.634-0.361
					c-0.499-0.241-0.931-0.602-1.293-1.076c-0.361-0.475-0.644-1.067-0.85-1.779c-0.203-0.709-0.306-1.529-0.306-2.463
					c0-1.031,0.132-2.061,0.396-3.086s0.625-2.007,1.08-2.939c0.456-0.937,0.987-1.808,1.594-2.615
					c0.607-0.807,1.253-1.508,1.938-2.102c0.684-0.593,1.388-1.059,2.11-1.396c0.724-0.339,1.427-0.509,2.111-0.509
					c0.288,0,0.512,0.022,0.672,0.066c0.161,0.043,0.293,0.118,0.394,0.226l0.131-2.393c0.16-0.182,0.367-0.315,0.623-0.402
					c0.255-0.087,0.526-0.131,0.814-0.131c0.704,0,1.322,0.106,1.859,0.321c0.536,0.215,0.986,0.485,1.353,0.811
					s0.644,0.684,0.83,1.074c0.188,0.393,0.281,0.77,0.281,1.132c0,0.269-0.034,0.644-0.102,1.126
					c-0.065,0.483-0.187,1.013-0.354,1.588c-0.361,1.295-0.667,2.434-0.919,3.418c-0.251,0.984-0.456,1.836-0.614,2.554
					c-0.157,0.718-0.271,1.312-0.341,1.78c-0.07,0.468-0.105,0.838-0.105,1.105c0,0.207,0.01,0.373,0.029,0.497
					c0.021,0.124,0.052,0.22,0.097,0.286c0.043,0.068,0.098,0.111,0.161,0.131c0.063,0.021,0.136,0.03,0.217,0.03
					c0.207,0,0.491-0.101,0.854-0.302c0.362-0.2,0.784-0.517,1.267-0.944c0.483-0.429,1.02-0.976,1.608-1.64
					c0.465-0.522,0.957-1.149,1.463-1.834c-0.019-0.098-0.042-0.188-0.056-0.287c-0.054-0.448-0.08-0.881-0.08-1.297
					c0-0.402,0.094-0.852,0.281-1.342c0.188-0.494,0.441-0.989,0.766-1.489c0.32-0.499,0.689-0.983,1.11-1.452
					c0.419-0.47,0.857-0.887,1.316-1.253c0.459-0.364,0.927-0.657,1.402-0.879c0.475-0.222,0.926-0.332,1.348-0.332
					c0.477,0,0.851,0.062,1.12,0.186c0.271,0.125,0.479,0.301,0.618,0.528c0.142,0.229,0.229,0.505,0.267,0.83
					c0.038,0.325,0.057,0.688,0.057,1.091c0,0.268-0.04,0.572-0.121,0.914c-0.081,0.342-0.188,0.71-0.321,1.101
					c-0.135,0.394-0.289,0.8-0.463,1.224c-0.174,0.42-0.354,0.851-0.543,1.287c-0.288,0.709-0.537,1.33-0.748,1.863
					c-0.212,0.532-0.387,1.001-0.527,1.402c-0.141,0.402-0.246,0.751-0.312,1.046c-0.067,0.296-0.102,0.56-0.102,0.794
					c0,0.229,0.052,0.389,0.151,0.482c0.101,0.095,0.244,0.141,0.432,0.141c0.142,0,0.361-0.088,0.662-0.266
					c0.303-0.178,0.674-0.473,1.112-0.881s0.944-0.945,1.519-1.612c0.504-0.587,1.062-1.316,1.656-2.146
					c0.026-0.04,0.058-0.081,0.082-0.122c0.211-0.328,0.411-0.669,0.599-1.021c0.188-0.351,0.368-0.738,0.543-1.16
					c-0.168-0.188-0.312-0.417-0.437-0.689c-0.125-0.27-0.188-0.604-0.188-1c0-0.482,0.112-0.988,0.332-1.518
					c0.224-0.529,0.513-1.053,0.875-1.568c0.361-0.517,0.776-1.007,1.241-1.473c0.467-0.466,0.945-0.877,1.438-1.232
					c0.492-0.354,0.978-0.638,1.453-0.85c0.477-0.21,0.906-0.316,1.296-0.316c0.349,0,0.668,0.04,0.957,0.12
					c0.287,0.081,0.532,0.196,0.736,0.348c0.204,0.15,0.363,0.336,0.478,0.552c0.114,0.22,0.172,0.469,0.172,0.75
					c0,0.296-0.038,0.569-0.119,0.825c-0.496,0.268-0.951,0.562-1.363,0.884c-0.413,0.322-0.756,0.714-1.029,1.177
					c0.228,0.12,0.519,0.248,0.873,0.382c0.354,0.134,0.712,0.252,1.065,0.352c0.604,0.174,1.097,0.346,1.479,0.514
					c0.382,0.167,0.679,0.34,0.894,0.518c0.214,0.178,0.36,0.366,0.438,0.567c0.078,0.201,0.114,0.426,0.114,0.674
					c0,0.416-0.102,0.875-0.306,1.376c-0.205,0.504-0.476,1.088-0.81,1.75c-0.235,0.469-0.458,0.944-0.675,1.424
					c-0.214,0.479-0.401,0.937-0.562,1.371c-0.159,0.437-0.289,0.838-0.387,1.207s-0.146,0.681-0.146,0.936
					c0,0.295,0.05,0.535,0.146,0.719c0.098,0.186,0.282,0.275,0.557,0.275c0.195,0,0.432-0.067,0.71-0.205
					c0.278-0.139,0.587-0.332,0.925-0.582c0.339-0.253,0.701-0.557,1.086-0.917c0.387-0.356,0.776-0.759,1.172-1.201
					c0.396-0.442,0.791-0.921,1.188-1.438c0.016-0.02,0.03-0.043,0.046-0.064c0.039-0.684,0.097-1.375,0.18-2.076
					c0.158-1.34,0.38-2.674,0.668-4.001c0.288-1.327,0.637-2.624,1.041-3.891c0.406-1.267,0.854-2.467,1.348-3.6
					c0.493-1.132,1.023-2.173,1.594-3.121s1.164-1.766,1.781-2.452c0.614-0.688,1.25-1.224,1.903-1.609
					C404.467,283.527,405.121,283.334,405.777,283.334 M357.551,307.713c0.288,0,0.571-0.093,0.854-0.279
					c0.281-0.188,0.548-0.439,0.796-0.754l1.314-8.567c-0.516,0.329-1.014,0.776-1.496,1.344c-0.482,0.565-0.91,1.204-1.286,1.914
					s-0.678,1.465-0.904,2.262c-0.229,0.799-0.343,1.596-0.343,2.395c0,0.381,0.027,0.684,0.086,0.904
					c0.057,0.221,0.133,0.391,0.229,0.508c0.098,0.117,0.211,0.191,0.343,0.226C357.274,307.697,357.411,307.713,357.551,307.713
					 M377.486,284.439c0.274,0,0.553,0.048,0.83,0.141c0.278,0.094,0.549,0.221,0.81,0.378c0.262,0.157,0.505,0.34,0.729,0.547
					c0.224,0.208,0.42,0.428,0.587,0.659c0.167,0.23,0.301,0.464,0.396,0.698c0.098,0.234,0.146,0.459,0.146,0.674
					c0,0.248-0.05,0.535-0.149,0.86c-0.1,0.325-0.262,0.694-0.482,1.11c-0.222,0.415-0.508,0.877-0.854,1.383
					c-0.35,0.506-0.771,1.061-1.268,1.663c-0.402,0-0.771-0.075-1.11-0.227c-0.339-0.149-0.628-0.374-0.869-0.673
					c-0.24-0.298-0.431-0.67-0.567-1.117c-0.139-0.444-0.206-0.966-0.206-1.562c0-0.838,0.045-1.545,0.132-2.121
					c0.086-0.576,0.214-1.042,0.381-1.397c0.169-0.355,0.378-0.613,0.628-0.774C376.869,284.521,377.158,284.439,377.486,284.439
					 M441.932,265.281c-3.857,0-7.703,1.062-11.117,3.069c-2.273,1.345-4.343,3.057-6.188,5.111
					c-0.415,0.463-0.82,0.944-1.216,1.443c-0.855-1.39-1.874-2.663-3.049-3.813l-0.057-0.054l-0.056-0.054
					c-2.207-2.124-4.812-3.687-7.738-4.646c-2.143-0.701-4.408-1.057-6.734-1.057c-3.857,0-7.701,1.062-11.116,3.069
					c-1.353,0.797-2.637,1.73-3.845,2.791c-0.763-0.604-1.563-1.159-2.395-1.658c-1.365-0.823-2.841-1.507-4.361-2.018
					c-2.147-0.718-4.354-1.08-6.575-1.08c-3.757,0-7.405,1.058-10.554,3.059l-0.048,0.031l-0.048,0.031
					c-2.031,1.31-3.802,2.994-5.233,4.964c-2.033,0.067-4.03,0.432-5.947,1.085c-2.817,0.961-5.376,2.549-7.468,4.626
					c-1.598,0.897-3.134,1.98-4.573,3.229c-1.646,1.428-3.165,3.067-4.531,4.881c-1.308,1.742-2.448,3.609-3.403,5.571
					c-0.978,2.005-1.765,4.141-2.331,6.336c-0.641,2.473-0.968,5.035-0.968,7.593c0,2.61,0.337,5.112,1.002,7.435
					c0.841,2.905,2.128,5.494,3.841,7.744c2.101,2.756,4.725,4.906,7.801,6.395c2.945,1.43,6.147,2.16,9.489,2.16
					c1.024,0,2.047-0.075,3.064-0.227c1.438,0.284,2.921,0.428,4.425,0.428c1.344,0,2.688-0.134,4.025-0.399
					c1.863,0.485,3.846,0.731,5.898,0.731c2.369,0,4.743-0.393,7.067-1.166c2.303,0.865,5.06,1.459,8.295,1.459
					c2.288,0,4.583-0.371,6.838-1.104c1.991,0.539,4.069,0.811,6.212,0.811c2.833,0,5.633-0.508,8.322-1.511
					c0.064-0.022,0.131-0.049,0.196-0.073c2.246,0.771,4.626,1.172,7.014,1.172c0.788,0,1.564-0.035,2.309-0.105l0.094-0.01
					l0.085-0.01c1.62,0.355,3.326,0.537,5.086,0.537c2.125,0,4.263-0.316,6.37-0.942c2.138,0.628,4.37,0.942,6.679,0.942
					c2.819,0,5.604-0.502,8.277-1.494l0,0c2.092-0.772,4.104-1.826,5.983-3.133c1.573-1.086,3.104-2.391,4.514-3.85
					c1.208-1.249,2.354-2.635,3.396-4.105c0.992-1.41,1.885-2.883,2.671-4.399c0.81-1.574,1.496-3.165,2.061-4.771
					c0.595-1.684,1.062-3.414,1.391-5.138c0.371-1.946,0.561-3.907,0.561-5.821c0-4.355-0.923-8.245-2.749-11.608
					c0.042-0.541,0.063-1.079,0.063-1.612c0-2.534-0.405-4.974-1.205-7.25c-1.063-3.009-2.721-5.616-4.938-7.787l-0.027-0.027
					l-0.027-0.027c-2.217-2.15-4.838-3.731-7.792-4.699C446.502,265.633,444.246,265.281,441.932,265.281L441.932,265.281z"/>
			</g>
		</g>
	</g>
	<path fill="none" stroke="#FFFFFF" stroke-width="6.372" d="M393.194,306.229c0,0,2.069-2.242,2.321-2.735
		c0.181-0.351,5.945,0.308-1.293,7.651"/>
	<g>
		
			<image overflow="visible" opacity="0.75" enable-background="new    " width="23" height="23" xlink:href="BD2F251B182D23F5.png"  transform="matrix(0.9565 0 0 0.9565 383.3154 303.3164)">
		</image>
		<g>
			<path fill="#00B2EF" d="M393.717,314.932c0,0,0.838-0.604,1.562-1.279c0.722-0.676-0.933-0.793-0.933-0.793l-1.815,1.584
				C392.53,314.443,392.483,315.84,393.717,314.932z"/>
		</g>
	</g>
	<g>
		
			<image overflow="visible" opacity="0.75" enable-background="new    " width="22" height="24" xlink:href="BD2F251B182D23F3.png"  transform="matrix(0.9566 0 0 0.9566 382.293 283.3364)">
		</image>
		<g>
			<path fill="#00B2EF" d="M393.009,296.19c0,0,0.895-1.123,0.059-3.448c-0.377-1.051-1.288,0.817-1.288,0.817l-0.058,2.706
				C391.722,296.266,392.587,297.839,393.009,296.19z"/>
		</g>
	</g>
	<path fill="#FFFFFF" d="M391.757,316.246c0.565-0.327,2.062-1.104,3.809-2.842c0.763-0.758,0.833-0.981,0.833-0.981l-1.146-1.682
		l-4.522,2.753l-0.67,1.964L391.757,316.246z"/>
	<path fill="#FFFFFF" d="M392.142,290.907c0,0,0.486,0.563,0.787,1.224c0.3,0.661,0.828,2.278,0.521,3.79
		c-0.304,1.487-1.038,2.916-1.038,2.916l-2.731-1.155l0.221-2.382l0.94-3.344L392.142,290.907z"/>
	<g>
		<path fill="#6DCEF5" d="M447.33,315.416v1.246h-0.193v-1.246h-0.449v-0.178h1.064l0.029,0.178H447.33z M449.373,316.662
			l-0.082-1.094l-0.441,1.098h-0.155l-0.438-1.098l-0.088,1.094h-0.186l0.106-1.424h0.23l0.455,1.168l0.452-1.168h0.228l0.11,1.424
			H449.373z"/>
	</g>
</g>
</svg>
