<?xml version="1.0" encoding="utf-8"?>
<!-- Generator: Adobe Illustrator 16.0.0, SVG Export Plug-In . SVG Version: 6.00 Build 0)  -->
<!DOCTYPE svg PUBLIC "-//W3C//DTD SVG 1.1//EN" "http://www.w3.org/Graphics/SVG/1.1/DTD/svg11.dtd">
<svg version="1.1" id="Layer_1" xmlns="http://www.w3.org/2000/svg" xmlns:xlink="http://www.w3.org/1999/xlink" x="0px" y="0px"
	 width="192.756px" height="192.756px" viewBox="0 0 192.756 192.756" enable-background="new 0 0 192.756 192.756"
	 xml:space="preserve">
<g>
	<polygon fill-rule="evenodd" clip-rule="evenodd" fill="#ED1C2E" points="0,0 192.756,0 192.756,192.756 0,192.756 0,0 	"/>
	<path fill-rule="evenodd" clip-rule="evenodd" fill="#FFFFFF" d="M59.616,98.713l0.029,0.061
		c5.527,11.331,35.114,5.466,64.819-9.022c16.75-8.169,30.248-18.342,37.878-27.732c0.114-0.145,0.263-0.24,0.462-0.24
		c0.346,0,0.626,0.281,0.626,0.626c0,0.088-0.019,0.172-0.052,0.249c-5.125,11.924-18.793,26.221-37.506,38.305l8.28,22.907h10.086
		v3.492h-43.599v-3.492h12.876l-4.787-13.256c-29.14,14.225-56.305,16.462-63.318,4.314L59.616,98.713L59.616,98.713z"/>
	<path fill-rule="evenodd" clip-rule="evenodd" fill="#FFFFFF" d="M120.969,87.473c-6.237,2.865-12.387,5.195-18.243,6.975
		l-12.36-33.849c-6.63,18.78-13.985,39.631-13.98,39.631c-1.494,0.077-2.871,0.064-4.209,0c-0.009,0,24.246-68.712,24.246-68.712
		h4.347L120.969,87.473L120.969,87.473z"/>
	<path fill-rule="evenodd" clip-rule="evenodd" fill="#FFFFFF" d="M132.489,154.097c0.124,0.203,0.27,0.464,0.396,0.738l2.857,6.343
		h-7.093l-2.408-6.679h-0.591l-1.227,6.679h-6.415l3.713-20.22h8.412c4.36,0,7.51,1.905,6.596,6.883
		c-0.557,3.026-1.882,4.289-4.633,5.199l-0.151,0.13C131.946,153.17,132.428,153.997,132.489,154.097L132.489,154.097z
		 M126.445,150.176h0.847c1.181,0,2.63-0.192,2.958-1.979c0.356-1.939-1.052-2.142-2.257-2.142h-0.791L126.445,150.176
		L126.445,150.176z M161.418,161.178l3.714-20.22h6.571l-2.595,14.131h6.057l-1.118,6.089H161.418L161.418,161.178z
		 M146.772,161.178l3.714-20.22h6.571l-2.595,14.131h6.057l-1.117,6.089H146.772L146.772,161.178z M147.341,140.958l-3.713,20.22
		h-6.571l3.713-20.22H147.341L147.341,140.958z M60.086,161.178l2.618-14.064h-4.598l1.13-6.155h15.696l-1.131,6.16h-4.526
		l-2.618,14.06H60.086L60.086,161.178z M46.234,140.958l-2.064,11.243c-0.277,1.508-0.615,3.411,1.684,3.411
		c2.173,0,2.518-1.717,2.809-3.304l2.084-11.351h6.572l-2.196,11.961c-1.086,5.913-5.065,8.591-10.46,8.591
		c-5.367,0-8.292-2.625-7.216-8.483l2.216-12.068H46.234L46.234,140.958z M28.911,161.178l-0.177-2.594h-5.749l-1.18,2.594h-6.908
		l10.369-20.22h7.496l3.12,20.22H28.911L28.911,161.178z M24.812,154.233h3.607l-0.534-7.383L24.812,154.233L24.812,154.233z
		 M82.547,161.51c-5.856,0-9.844-3.859-8.655-10.332c1.174-6.393,6.741-10.551,12.598-10.551c5.822,0,9.799,4.1,8.634,10.442
		C93.926,157.595,88.435,161.51,82.547,161.51L82.547,161.51z M83.753,155.53c2.327,0,4.249-1.747,4.707-4.242
		c0.428-2.332-0.717-4.405-3.227-4.405c-2.445,0-4.292,1.982-4.717,4.297C80.053,153.703,81.372,155.53,83.753,155.53L83.753,155.53
		z M96.806,151.261c1.22-6.642,6.574-10.634,12.639-10.634c3.293,0,7.354,1.683,8.336,4.875l-6.65,2.406
		c-0.466-1.01-1.443-1.522-2.59-1.522c-2.757,0-4.671,2.483-5.146,5.07c-0.435,2.367,0.556,4.792,3.156,4.792
		c1.181,0,2.86-0.575,3.501-1.994l0.188-0.417h-3.344l0.794-4.323h10.461c-0.143,0.719-0.282,1.412-0.443,2.084
		c-0.185,0.772-0.396,1.516-0.676,2.236c-0.552,1.43-1.362,2.765-2.734,4.057c-2.479,2.35-5.861,3.619-8.847,3.619
		C99.59,161.51,95.617,157.73,96.806,151.261L96.806,151.261z"/>
	<path fill-rule="evenodd" clip-rule="evenodd" fill="#FFFFFF" d="M133.042,105.974c1.774,0,3.179-1.404,3.179-3.171
		s-1.404-3.17-3.179-3.17s-3.179,1.403-3.179,3.17S131.268,105.974,133.042,105.974L133.042,105.974z M133.042,100.148
		c1.452,0,2.662,1.154,2.662,2.654c0,1.492-1.21,2.654-2.662,2.654s-2.662-1.162-2.662-2.654
		C130.38,101.303,131.59,100.148,133.042,100.148L133.042,100.148z M133.591,102.964c0.476-0.017,0.952-0.274,0.952-0.976
		c0-0.751-0.581-0.944-1.227-0.944h-1.501v3.565h0.517v-1.646h0.661l0.912,1.646h0.589L133.591,102.964L133.591,102.964z
		 M133.22,101.561c0.428,0,0.807,0.032,0.807,0.483c0,0.484-0.662,0.403-1.146,0.403h-0.549v-0.887H133.22L133.22,101.561z"/>
</g>
</svg>
