<?xml version="1.0" encoding="utf-8"?>
<!-- Generator: Adobe Illustrator 16.0.0, SVG Export Plug-In . SVG Version: 6.00 Build 0)  -->
<!DOCTYPE svg PUBLIC "-//W3C//DTD SVG 1.1//EN" "http://www.w3.org/Graphics/SVG/1.1/DTD/svg11.dtd">
<svg version="1.1" id="Layer_1" xmlns="http://www.w3.org/2000/svg" xmlns:xlink="http://www.w3.org/1999/xlink" x="0px" y="0px"
	 width="175.747px" height="59.587px" viewBox="312.504 269.585 175.747 59.587"
	 enable-background="new 312.504 269.585 175.747 59.587" xml:space="preserve">
<g>
	<polygon fill="#ED1C2E" points="426.059,326.346 412.273,326.346 431.653,270.396 444.871,270.396 	"/>
	<polygon fill="#ED1C2E" points="393.299,326.346 373.433,326.346 373.433,270.396 387.408,270.603 387.46,311.67 408.463,270.396 
		422.733,270.396 	"/>
	<path fill="#ED1C2E" d="M483.711,287.18c-0.811-0.892-1.783-1.541-2.919-2.027l-0.974-0.486c-2.595-1.135-4.703-1.622-7.136-1.622
		c-3.324,0-6.001,2.027-6.001,4.541l0.081,0.162v0.973c0.567,2.108,1.541,3.406,4.541,5.757c3.244,2.595,5.027,4.46,6.325,6.245
		c1.702,2.432,2.594,5.271,2.594,8.432c0,11.029-9.324,19.787-21.082,19.787c-6.242,0-13.46-2.026-18.648-5.354l-0.325-0.162
		l4.622-13.703l0.244,0.244l0.243,0.162c2.756,2.432,9.567,4.783,13.783,4.783c3.812,0,6.405-2.107,6.405-5.189
		c0-1.379-0.892-3-2.352-4.055l-2.188-1.621c-2.271-1.703-5.352-4.541-6.406-6c-2.106-2.838-3.161-5.919-3.161-9.325
		c0-10.866,9.243-19.137,21.486-19.137c5.109,0,11.271,1.703,15.083,4.135l0.324,0.163L483.711,287.18L483.711,287.18z"/>
	<path fill="#1D1D1B" d="M480.393,327.301h-0.932v-4.359h1.628c1.125,0,1.789,0.32,1.789,1.316c0,0.803-0.472,1.094-1.05,1.135
		l1.114,1.908h-1.104l-1.007-1.832h-0.439L480.393,327.301L480.393,327.301z M481.218,324.73c0.418,0,0.664-0.086,0.664-0.568
		c0-0.451-0.481-0.482-0.835-0.482h-0.654v1.051H481.218L481.218,324.73z M481.067,329.172c-2.153,0-4.07-1.49-4.07-4.051
		c0-2.559,1.917-4.049,4.07-4.049c2.144,0,4.061,1.49,4.061,4.049C485.128,327.682,483.211,329.172,481.067,329.172L481.067,329.172
		z M481.067,322.018c-1.606,0-2.903,1.242-2.903,3.107c0,1.863,1.297,3.117,2.903,3.105v0.012c1.563,0,2.893-1.254,2.893-3.117
		C483.96,323.26,482.632,322.018,481.067,322.018L481.067,322.018z"/>
	<path fill="#ED1C2E" d="M333.749,312.107l-7.298,14.026h-13.947l28.575-55.739l8.534-0.003v0.006l13.232,0.003v55.845H348.98
		l-0.212-0.533l-0.043-13.605H333.749L333.749,312.107z M348.632,282.923l-10.21,18.718h10.271L348.632,282.923L348.632,282.923z"/>
</g>
</svg>
