<?xml version="1.0" encoding="utf-8"?>
<!-- Generator: Adobe Illustrator 16.0.0, SVG Export Plug-In . SVG Version: 6.00 Build 0)  -->
<!DOCTYPE svg PUBLIC "-//W3C//DTD SVG 1.1//EN" "http://www.w3.org/Graphics/SVG/1.1/DTD/svg11.dtd">
<svg version="1.1" id="Layer_1" xmlns="http://www.w3.org/2000/svg" xmlns:xlink="http://www.w3.org/1999/xlink" x="0px" y="0px"
	 width="68.454px" height="10.997px" viewBox="365.773 294.502 68.454 10.997"
	 enable-background="new 365.773 294.502 68.454 10.997" xml:space="preserve">
<path fill="#003976" d="M368.616,294.502h0.505c0.359,0,1.595,0.345,1.595,0.345h0.212c0.083,0,0.215-0.063,0.267-0.105
	c0.037,0.011,0.062,0.019,0.105,0.053l-2.099,1.488c-0.003,0-0.639,0.315-0.639,0.611v3.747l-2.071,1.435
	c0.027-0.199,0.292-0.382,0.292-0.664v-3.693c0-0.286,1.992-1.326,1.992-1.621c0-0.292-1.169-0.531-1.169-0.531
	c-0.372-0.014-0.525-0.014-0.903,0c-0.369,0.014-0.786,0.247-0.93,0.239C366.226,295.504,367.439,294.502,368.616,294.502z
	 M372.867,294.581c0.318,0,0.513,0.344,1.062,1.063c0.137,0.178,0.771,0.954,0.771,1.328v0.293c0,0.756-1.993,1.517-1.993,1.833
	c0,0.215,1.047,0.114,1.515,0.425c0.446,0.298,0.639,0.926,0.639,1.275v0.903c0,0.54-0.741,0.744-1.647,1.436
	c-0.397,0.303-1.759,1.223-1.859,1.223c0,0-1.561-0.852-2.312-0.852h-1.009c-0.424,0-1.462,0.373-1.541,0.373
	c0,0,1.567-1.542,3.161-1.542h1.062c0.218,0,0.972,0.31,1.169,0.372v-6.749c0-0.066-0.085-0.186-0.213-0.186
	c-0.295,0-0.505,0.536-0.505,0.558v4.013c0,0.178-0.69,0.715-1.062,0.93c-0.557,0.322-0.914,0.63-1.249,0.797v-0.079
	c0,0,0.292-0.318,0.292-0.505v-4.358c0-0.053,0.468-0.638,1.754-1.381C371.647,295.32,372.408,294.581,372.867,294.581z
	 M372.257,296.415c0,0,0.851,0.927,0.851,1.488c0,0.425-0.327,0.59-0.851,0.903V296.415z M372.257,299.55
	c0.082,0.021,0.559,0.306,0.559,0.505v3.056c-0.134,0.062-0.026,0-0.106,0c-0.167,0-0.451-0.133-0.451-0.293L372.257,299.55
	L372.257,299.55z M392.553,298.407l1.888,0.931v4.092l-1.78,0.877l-1.913-0.824v-4.276L392.553,298.407z M383.838,298.286
	l1.144,1.143v3.506l0.53,0.531l-0.876,0.852l-0.931-0.877v-3.269c-0.016-0.012-0.582-0.574-0.69-0.611l-0.638,0.584v2.816
	l0.479,0.479l-0.903,0.877l-0.824-0.797v-3.534c0,0-0.391-0.327-0.558-0.531l1.115-1.143l1.09,1.036L383.838,298.286z
	 M388.223,298.434l2.072,0.877c-0.096,0.12-0.729,0.582-0.957,0.638c0,0-1.691-0.661-1.727-0.664v3.454l1.424,0.708
	c0,0,0.821-0.283,1.021-0.283c0.021,0,0.06,0.009,0.106,0v0.08l-1.621,1.062h-0.213l-2.046-0.93v-4.013L388.223,298.434z
	 M377.754,298.339c1.291,0.646,1.859,0.725,1.859,1.01v3.401l0.824,0.823l-0.771,0.743c-0.562-0.459-0.771-0.664-0.771-0.664
	l-1.415,0.711l-1.933-0.887v-2.242l1.887-0.93l1.035,0.426V299.8l-1.653-0.575l-0.831,0.1l-0.038-0.136L377.754,298.339z
	 M391.982,299.205l1.233,0.584v3.641l-1.248-0.558L391.982,299.205z M376.718,301.075l1.753,0.879v1.646l-1.753-0.814V301.075z
	 M400.924,295.938c0.08,0,0.432,0.136,1.01,0.426c0.313,0.156,0.877,0.274,0.877,0.558v6.59l-1.754,0.823l-1.938-0.931v-4.171
	l1.86-0.823c0.065,0.008,0.663,0.238,0.663,0.238v-1.328l-1.551-0.662c-0.253,0.016-0.551,0.257-0.854,0.311l0.065-0.26
	C399.304,296.709,400.701,295.938,400.924,295.938z M405.84,298.383l1.728,1.914l-2.524,1.859v0.505
	c0,0.106,1.487,0.784,1.487,0.784s0.736-0.504,1.062-0.307c-0.019,0.023-1.778,1.17-1.778,1.17l-1.888-0.824v-4.198L405.84,298.383z
	 M400.34,299.207l1.275,0.584v3.641h-0.027l-1.248-0.558V299.207z M405.069,299.287l1.267,1.328l-1.267,0.931V299.287z
	 M429.034,302.984l0.479,0.453l-0.956,0.902l-0.903-0.902v-6.111l1.382-1.355L429.034,302.984L429.034,302.984z M421.675,295.8
	v3.853l1.382-1.354l1.036,1.036v4.89l-1.303,1.274h-0.025v-5.5l-0.505-0.479l-0.585,0.505v2.896l0.505,0.479v0.025l-0.931,0.93
	l-0.903-0.902v-6.324l1.329-1.302V295.8z M425.634,295.8h0.026l0.903,0.903v0.026l-0.931,0.931l-0.931-0.931L425.634,295.8z
	 M432.17,298.442c0.05,0,1.728,1.836,1.753,1.913l-2.522,1.78v0.717l1.43,0.647c0,0,0.752-0.101,1.015-0.328l0.383,0.095
	c-0.031,0.049-1.757,1.102-2.057,1.102c-0.065,0-1.353-0.494-1.887-0.85v-4.065C430.283,299.271,432.164,298.442,432.17,298.442z
	 M425.66,298.298h0.025l0.823,0.823v3.773l0.505,0.478l-0.956,0.931l-0.902-0.902v-3.773l-0.425-0.398L425.66,298.298z
	 M431.426,299.346l1.21,1.244l-1.202,0.776L431.426,299.346z M416.534,295.118h0.105c-0.085,0.216-1.519,0.906-2.071,1.541
	c-0.854,0.978-1.425,1.522-1.328,3.046c0.055,0.886,0.754,2.197,1.565,2.667c0.25,0.144,1.042,0.579,1.78,0.61
	c1.076,0.049,0.647-0.166,0.804-0.082v-6.431c0-0.079-0.194-0.502-0.378-0.502c-0.054,0-0.134,0.099-0.134,0.159v4.438
	c0,0.166-0.153,0.404-0.903,0.903c-0.768,0.511-1.004,0.683-1.089,0.665c0.02-0.049,0.136-0.224,0.187-0.267v-4.623
	c0-0.457,0.667-0.726,1.249-1.169c0.96-0.733,1.478-0.903,1.487-0.903h0.239c0.638,0,1.036,0.771,1.115,0.85
	c0.006,0.006,0.184,0.066,0.24,0.133h0.371c0.105,0,0.372-0.159,0.53-0.133c-0.431,0.375-1.802,1.249-1.833,1.249h-0.213
	c-0.098,0-0.249-0.151-0.425-0.239v5.793c0.074,0.011,0.062,0,0.106,0c0.261,0,1.228-0.699,1.274-0.771h0.079v0.186
	c-0.005,0.009-0.396,0.74-0.398,0.744c-0.828,0.949-1.759,1.418-3.085,1.428c-2.319,0.018-3.965-1.663-4.142-4.27
	c-0.176-2.595,1.65-4.726,3.8-4.863c0.313-0.02,0.695,0.003,0.743,0C416.215,295.277,416.51,295.137,416.534,295.118z"/>
</svg>
