<?xml version="1.0" encoding="utf-8"?>
<!-- Generator: Adobe Illustrator 16.0.0, SVG Export Plug-In . SVG Version: 6.00 Build 0)  -->
<!DOCTYPE svg PUBLIC "-//W3C//DTD SVG 1.1//EN" "http://www.w3.org/Graphics/SVG/1.1/DTD/svg11.dtd">
<svg version="1.1" id="Layer_1" xmlns="http://www.w3.org/2000/svg" xmlns:xlink="http://www.w3.org/1999/xlink" x="0px" y="0px"
	 width="141.733px" height="310.013px" viewBox="289 206 141.733 310.013" enable-background="new 289 206 141.733 310.013"
	 xml:space="preserve">
<g>
	<path d="M359.867,446.205c4.668-21.896,25.782-32.499,45.78-22.323c-4.16-9.043,13.827-11.282,25.086,7.051
		c-7.289-18.292-21.211-32.259-41.765-41.898c0.039,8.492-7.018,12.51-21.17,12.052c-1.354-2.216-2.096-4.934-2.221-8.152
		c-1.107,1.52-1.898,2.817-2.373,3.897h-6.678c-0.475-1.08-1.266-2.379-2.373-3.897c-0.125,3.22-0.865,5.938-2.221,8.152
		c-14.151,0.458-21.209-3.56-21.17-12.052c-20.553,9.641-34.475,23.606-41.764,41.898c11.258-18.333,29.247-16.094,25.086-7.051
		C334.084,413.706,355.198,424.31,359.867,446.205L359.867,446.205z"/>
	<path d="M359.867,383.932c3.648-11.895,17.657-19.961,35.816-19.961h13.168c-3.084-12.282,4.212-21.277,21.882-26.989h-45.164
		l-0.775,2.893c-1.324,4.94-5.647,8.259-10.764,8.259h-8.117c-1.195-2.278-1.932-5.323-2.209-9.135
		c-0.488,2.003-0.826,3.693-1.014,5.067c-1.793-0.713-3.854-0.713-5.646,0c-0.188-1.375-0.526-3.064-1.013-5.067
		c-0.277,3.812-1.015,6.857-2.211,9.135h-8.116c-5.114,0-9.439-3.319-10.763-8.259l-0.775-2.893H289
		c17.67,5.711,24.964,14.707,21.882,26.989h13.167C342.21,363.971,356.218,372.037,359.867,383.932L359.867,383.932z"/>
	<path d="M359.867,269.716c2.27-12.601,21.27-25.228,23.941-11.921c9.199-12.291,26.664-6.183,17.363,10.464
		c38.342-19.888,23.396-48.468-13.106-59.081c17.215,24.638-17.07,26.014-17.851,13.691L369.145,206l-5.178,7.813h-8.201
		L350.588,206l-1.069,16.869c-0.779,12.323-35.064,10.946-17.851-13.691c-36.501,10.613-51.449,39.193-13.107,59.081
		c-9.3-16.647,8.164-22.755,17.364-10.464C338.595,244.489,357.596,257.116,359.867,269.716L359.867,269.716z"/>
	<path d="M360.875,323.169c7.738-10.763,14.381-12.791,19.93-6.08c8.777-8.472,22.937-4.405,13.709,6.854
		c12.619-3.996,20.021-9.364,23.17-15.053c-0.42-0.702-0.928-1.377-1.516-2.022c-2.518-2.753-6.51-4.938-11.396-6.117
		c-11.611-2.801-28.197,0.108-42.117,14.56c-0.41,0.427-0.728,0.883-0.951,1.38c-0.226,0.496-0.359,1.035-0.41,1.625
		L360.875,323.169L360.875,323.169z M359.867,284.73l0.711,2.824c0.135,0.532,0.381,0.956,0.774,1.335
		c1.011,0.969,1.724,2.602,2.312,4.857c3.326,12.76,48.965,2.059,44.129-11.515c36.793,12.661,25.773,40.584-7.959,49.08
		c48.373-17.455-2.869-52.412-37.574-16.38c-0.91,0.944-1.399,2.033-1.514,3.339l-0.879,10.221l-0.88-10.221
		c-0.113-1.306-0.604-2.395-1.516-3.339c-34.704-36.032-85.946-1.074-37.573,16.38c-33.732-8.496-44.752-36.419-7.959-49.08
		c-4.837,13.574,40.803,24.275,44.129,11.515c0.588-2.255,1.3-3.889,2.31-4.857c0.396-0.38,0.642-0.803,0.776-1.335L359.867,284.73
		L359.867,284.73z M407.477,285.38c-5.702-3.504-13.219-6.256-22.082-7.729c9.117,9.496-2.891,16.082-12.803,13.421
		c-1.942-0.522-3.354-1.934-3.877-3.879c-0.967-3.603-1.545-7.539-1.731-11.808c-1.636,1.788-2.916,3.564-3.851,5.329h-6.534
		c-0.932-1.765-2.215-3.542-3.848-5.329c-0.189,4.27-0.767,8.206-1.733,11.808c-0.521,1.945-1.933,3.357-3.878,3.879
		c-9.912,2.66-21.918-3.925-12.801-13.421c-8.864,1.472-16.378,4.225-22.082,7.729c0.583,2.691,3.178,5.205,6.822,7.318
		c2.803,1.626,6.215,3.007,9.822,4.053c3.609,1.046,7.416,1.754,11.001,2.033c7.794,0.607,14.496-0.796,15.637-5.174
		c0.304-1.165,0.639-2.168,1.029-3.005c0.404-0.87,0.874-1.575,1.431-2.109c0.161-0.154,0.291-0.316,0.392-0.49
		c0.102-0.174,0.178-0.367,0.231-0.583l0.712-2.825l0.532-2.11l0.532,2.11l0.711,2.825c0.055,0.216,0.131,0.409,0.231,0.583
		c0.102,0.174,0.23,0.336,0.394,0.49c0.557,0.535,1.024,1.239,1.43,2.109c0.391,0.837,0.725,1.841,1.029,3.005
		c1.141,4.378,7.844,5.781,15.637,5.174c3.586-0.279,7.393-0.987,11.002-2.033c3.607-1.045,7.018-2.427,9.822-4.053
		C404.297,290.585,406.893,288.071,407.477,285.38L407.477,285.38z M302.05,308.891c3.146,5.688,10.55,11.057,23.169,15.053
		c-9.228-11.259,4.933-15.325,13.708-6.854c5.549-6.711,12.193-4.683,19.932,6.08l-0.417-4.853c-0.052-0.591-0.188-1.13-0.412-1.625
		c-0.226-0.497-0.541-0.953-0.951-1.38c-13.919-14.452-30.506-17.361-42.117-14.56c-4.887,1.179-8.878,3.364-11.395,6.117
		C302.976,307.513,302.469,308.189,302.05,308.891L302.05,308.891z"/>
	<path d="M359.867,516.013c-12.289-21.043-27.245-32.874-44.917-35.491c-3.428-16.768-12.078-31.406-25.95-43.92l39.845,13.06
		c4.464,18.369,25.745,47.275,23.662,11.05c4.629,9.531,10.089,9.531,14.72,0c-2.084,36.227,19.197,7.319,23.66-11.05l39.847-13.06
		c-13.871,12.514-22.521,27.152-25.949,43.92C387.111,483.139,372.154,494.97,359.867,516.013L359.867,516.013z"/>
</g>
</svg>
