<?xml version="1.0" encoding="utf-8"?>
<!-- Generator: Adobe Illustrator 16.0.0, SVG Export Plug-In . SVG Version: 6.00 Build 0)  -->
<!DOCTYPE svg PUBLIC "-//W3C//DTD SVG 1.1//EN" "http://www.w3.org/Graphics/SVG/1.1/DTD/svg11.dtd">
<svg version="1.1" id="Layer_1" xmlns="http://www.w3.org/2000/svg" xmlns:xlink="http://www.w3.org/1999/xlink" x="0px" y="0px"
	 width="175.75px" height="121.719px" viewBox="271.504 299.521 175.75 121.719"
	 enable-background="new 271.504 299.521 175.75 121.719" xml:space="preserve">
<g>
	<path fill="#FFFFFF" d="M296.673,312.219c-1.003,0.392-0.897,1.67-0.893,2.904l0.106,14.771l-0.41,0.16l-7.59-8.285l-0.322,11.38
		l-0.41,0.16l-10.141-10.771c-0.953-1.027-1.74-1.957-2.794-1.547l-0.161-0.41l6.563-2.564l0.161,0.41
		c-0.571,0.226-1.289,0.613-0.995,1.367c0.143,0.365,0.636,0.885,0.907,1.175l6.16,6.525l0.138-6.669l-1.584-1.754
		c-1.099-1.205-1.767-1.762-3.185-1.205l-0.161-0.41l7.337-2.873l0.161,0.416c-0.659,0.257-1.588,0.649-1.284,1.423
		c0.142,0.368,0.599,0.796,0.838,1.072l5.827,6.417l-0.06-7.173c-0.014-0.704,0.033-1.882-0.221-2.523
		c-0.368-0.938-1.165-0.754-1.919-0.46l-0.161-0.414l3.931-1.533L296.673,312.219L296.673,312.219z"/>
	<path fill="#FFFFFF" d="M337.724,315.934c0.263,1.976,0.35,2.606,2.638,2.297l0.06,0.437l-8.442,1.137l-0.06-0.437
		c2.287-0.309,2.2-0.944,1.938-2.914l-1.35-10.02c-0.262-1.977-0.345-2.606-2.632-2.299l-0.06-0.437l8.44-1.136l0.062,0.438
		c-2.289,0.308-2.206,0.939-1.938,2.909l0.576,4.286l5.643-0.76l-0.574-4.28c-0.268-1.97-0.351-2.605-2.639-2.297l-0.055-0.437
		l8.442-1.133l0.06,0.438c-2.292,0.308-2.205,0.938-1.938,2.909l1.345,10.025c0.267,1.971,0.35,2.604,2.638,2.298l0.061,0.437
		l-8.446,1.132l-0.057-0.437c2.288-0.308,2.2-0.938,1.934-2.909l-0.626-4.694l-5.647,0.755L337.724,315.934L337.724,315.934z"/>
	<path fill="#FFFFFF" d="M393.304,301.54l5.575,0.493l-0.037,0.437c-2.177-0.189-2.342,0.585-2.521,2.587l-0.62,7.093
		c-0.204,2.296-1.188,6.182-6.863,5.68c-4.056-0.358-5.818-2.458-5.501-6.081l0.7-7.944c0.174-1.984,0.229-2.62-2.066-2.822
		l0.039-0.438l8.484,0.746l-0.037,0.442c-2.3-0.203-2.354,0.433-2.531,2.411l-0.771,8.779c-0.162,1.81,0.274,3.577,3.064,3.821
		c3.079,0.271,4.244-2.288,4.438-4.488l0.639-7.287c0.179-2.007,0.151-2.798-2.03-2.986L393.304,301.54L393.304,301.54z"/>
	<path fill="#FFFFFF" d="M430.342,316.632c1.535-4.786,6.103-6.958,10.821-5.439c4.723,1.513,7.172,5.933,5.633,10.724
		c-1.536,4.793-6.104,6.965-10.82,5.446C431.251,325.849,428.803,321.43,430.342,316.632L430.342,316.632L430.342,316.632z
		 M442.682,320.602c0.879-2.739,1.795-7.37-1.8-8.526c-3.599-1.154-5.552,3.149-6.431,5.883c-0.875,2.734-1.79,7.359,1.805,8.515
		C439.854,327.635,441.801,323.331,442.682,320.602L442.682,320.602z"/>
	<path fill="#82683B" d="M294.113,311.197c-1.002,0.391-0.897,1.671-0.892,2.906l0.111,14.77l-0.415,0.162l-7.585-8.29
		l-0.327,11.383l-0.405,0.161l-10.141-10.771c-0.958-1.026-1.744-1.956-2.794-1.546l-0.161-0.41l6.56-2.564l0.161,0.409
		c-0.571,0.226-1.289,0.612-0.994,1.368c0.143,0.363,0.64,0.884,0.911,1.173l6.159,6.527l0.138-6.669l-1.587-1.754
		c-1.1-1.206-1.768-1.762-3.186-1.206l-0.157-0.415l7.337-2.867l0.161,0.409c-0.663,0.263-1.592,0.649-1.289,1.427
		c0.143,0.368,0.604,0.795,0.838,1.073l5.832,6.416l-0.06-7.171c-0.019-0.71,0.027-1.883-0.226-2.523
		c-0.363-0.938-1.16-0.754-1.915-0.459l-0.161-0.415l3.931-1.538L294.113,311.197L294.113,311.197z"/>
	<path fill="#82683B" d="M335.169,314.913c0.262,1.969,0.345,2.604,2.633,2.296l0.061,0.437l-8.442,1.137l-0.056-0.442
		c2.283-0.308,2.2-0.938,1.934-2.909l-1.344-10.025c-0.269-1.969-0.351-2.6-2.638-2.292l-0.056-0.442l8.438-1.132l0.06,0.437
		c-2.288,0.308-2.2,0.94-1.938,2.91l0.575,4.285l5.647-0.759l-0.575-4.281c-0.267-1.971-0.35-2.606-2.638-2.298l-0.06-0.437
		l8.441-1.132l0.061,0.438c-2.287,0.309-2.205,0.939-1.938,2.91l1.349,10.024c0.264,1.972,0.347,2.602,2.633,2.298l0.06,0.438
		l-8.446,1.131l-0.055-0.438c2.288-0.308,2.2-0.938,1.938-2.909l-0.631-4.695l-5.643,0.755L335.169,314.913L335.169,314.913z"/>
	<path fill="#82683B" d="M390.745,300.519l5.579,0.492l-0.041,0.438c-2.178-0.188-2.343,0.584-2.52,2.587l-0.626,7.093
		c-0.203,2.298-1.187,6.182-6.856,5.68c-4.061-0.359-5.824-2.462-5.501-6.08l0.698-7.945c0.177-1.983,0.23-2.619-2.07-2.821
		l0.04-0.442l8.489,0.75l-0.041,0.441c-2.302-0.203-2.354,0.434-2.532,2.414l-0.769,8.777c-0.162,1.809,0.275,3.577,3.062,3.821
		c3.08,0.271,4.245-2.288,4.438-4.488l0.64-7.288c0.18-2.006,0.15-2.799-2.024-2.988L390.745,300.519L390.745,300.519z"/>
	<path fill="#82683B" d="M427.781,315.611c1.537-4.788,6.106-6.96,10.826-5.445c4.723,1.518,7.172,5.938,5.629,10.729
		c-1.536,4.791-6.1,6.959-10.821,5.445C428.693,324.826,426.244,320.403,427.781,315.611L427.781,315.611L427.781,315.611z
		 M440.122,319.574c0.879-2.732,1.8-7.364-1.8-8.52c-3.6-1.155-5.547,3.144-6.426,5.884c-0.88,2.729-1.796,7.359,1.8,8.515
		C437.301,326.608,439.247,322.308,440.122,319.574L440.122,319.574z"/>
	<path fill="#FFDF1B" d="M295.651,311.197c-1.008,0.391-0.902,1.671-0.893,2.906l0.105,14.77l-0.409,0.162l-7.59-8.29l-0.322,11.383
		l-0.41,0.161l-10.14-10.771c-0.958-1.026-1.74-1.956-2.794-1.546l-0.161-0.41l6.56-2.564l0.166,0.409
		c-0.576,0.226-1.293,0.612-0.999,1.368c0.147,0.363,0.64,0.884,0.912,1.173l6.159,6.527l0.133-6.669l-1.578-1.754
		c-1.105-1.206-1.772-1.762-3.186-1.206l-0.161-0.415l7.337-2.867l0.162,0.409c-0.663,0.263-1.593,0.649-1.284,1.427
		c0.137,0.368,0.598,0.795,0.837,1.073l5.827,6.416l-0.06-7.171c-0.014-0.71,0.028-1.883-0.221-2.523
		c-0.368-0.938-1.165-0.754-1.919-0.459l-0.166-0.415l3.936-1.538L295.651,311.197L295.651,311.197z"/>
	<path fill="#FFDF1B" d="M336.701,314.913c0.268,1.969,0.351,2.604,2.638,2.296l0.06,0.437l-8.446,1.137l-0.061-0.442
		c2.287-0.308,2.204-0.938,1.938-2.909l-1.344-10.025c-0.263-1.969-0.35-2.6-2.638-2.292l-0.055-0.442l8.442-1.132l0.059,0.437
		c-2.287,0.308-2.204,0.94-1.938,2.91l0.571,4.285l5.648-0.759l-0.575-4.281c-0.267-1.971-0.35-2.606-2.638-2.298l-0.061-0.437
		l8.446-1.132l0.056,0.438c-2.282,0.309-2.199,0.939-1.938,2.91l1.349,10.024c0.263,1.972,0.351,2.602,2.638,2.298l0.056,0.438
		l-8.441,1.131l-0.06-0.438c2.287-0.308,2.204-0.938,1.94-2.909l-0.635-4.695l-5.643,0.755L336.701,314.913L336.701,314.913z"/>
	<path fill="#FFDF1B" d="M392.279,300.519l5.576,0.492l-0.039,0.438c-2.174-0.188-2.339,0.584-2.521,2.587l-0.626,7.093
		c-0.202,2.298-1.183,6.182-6.857,5.68c-4.061-0.359-5.816-2.462-5.501-6.08l0.7-7.945c0.174-1.983,0.23-2.619-2.066-2.821
		l0.038-0.442l8.486,0.75l-0.042,0.441c-2.296-0.203-2.352,0.434-2.525,2.414l-0.773,8.777c-0.162,1.809,0.275,3.577,3.065,3.821
		c3.08,0.271,4.238-2.288,4.433-4.488l0.646-7.288c0.175-2.006,0.146-2.799-2.031-2.988L392.279,300.519L392.279,300.519z"/>
	<path fill="#FFDF1B" d="M429.318,315.611c1.539-4.788,6.101-6.96,10.821-5.445c4.724,1.518,7.171,5.938,5.636,10.729
		c-1.543,4.791-6.104,6.959-10.827,5.445C430.23,324.827,427.781,320.403,429.318,315.611L429.318,315.611L429.318,315.611z
		 M441.66,319.574c0.873-2.732,1.796-7.364-1.807-8.52c-3.599-1.155-5.546,3.144-6.421,5.884c-0.879,2.729-1.8,7.359,1.802,8.515
		C438.839,326.608,440.782,322.308,441.66,319.574L441.66,319.574z"/>
	<path fill="#FFDF1B" d="M342.658,371.766l-0.125,0.118c-0.617,7.401,0.621,12.584,2.099,15.792
		c0.612,1.729,1.357,2.838,1.846,3.578c0.373,0.493,0.497,0.734,0.746,0.859l0.124,0.125c3.944,3.701,8.879,6.044,12.829,7.525
		c2.096,0.74,3.825,1.234,5.056,1.606c0.496,0.12,0.864,0.249,1.231,0.249c0.373,0,0.742-0.129,1.358-0.249
		c1.238-0.372,2.96-0.866,4.935-1.606c4.072-1.481,9.003-3.824,12.953-7.402v-0.123l0,0c0.124,0,0.124-0.125,0.124-0.125
		c0.125-0.124,0.368-0.366,0.617-0.859c0.616-0.74,1.231-1.852,1.975-3.578c1.359-3.208,2.711-8.391,1.972-15.792v-23.812h-47.738
		L342.658,371.766L342.658,371.766L342.658,371.766z"/>
	<path fill="#FFFFFF" d="M340.314,371.268v0.123c-0.741,7.896,0.616,13.57,2.219,17.146c0.741,1.855,1.485,3.211,2.218,4.074
		c0.249,0.492,0.493,0.74,0.741,0.99c0,0.117,0.124,0.117,0.249,0.238v0.125c4.317,3.829,9.5,6.416,13.688,7.896
		c2.104,0.746,3.95,1.36,5.184,1.604c0.988,0.248,1.605,0.492,1.85,0.492c0.249,0,0.99-0.244,1.978-0.492
		c1.236-0.244,3.083-0.858,5.183-1.604c4.193-1.479,9.374-4.065,13.693-7.896c0-0.125,0-0.125,0-0.125l0,0
		c0.123-0.121,0.123-0.121,0.242-0.238c0.124-0.25,0.497-0.498,0.746-0.99c0.612-0.863,1.479-2.219,2.215-4.074
		c1.606-3.575,2.845-9.251,2.099-17.146v-25.538h-52.304V371.268L340.314,371.268L340.314,371.268z"/>
	<path fill="#FFDF1B" d="M390.521,373.486H342.41c0.125-0.489,0.125-0.986,0.125-1.604l0.125-23.812h47.738v23.812
		C390.521,372.376,390.521,372.997,390.521,373.486L390.521,373.486L390.521,373.486L390.521,373.486L390.521,373.486z
		 M387.684,394.338L387.684,394.338c7.158-6.418,5.682-23.07,5.682-23.07v-26.156h-53.671v26.156c0,0-1.479,16.652,5.551,23.07
		c8.764,8.019,21.219,10.236,21.219,10.236S379.049,402.355,387.684,394.338L387.684,394.338L387.684,394.338L387.684,394.338z"/>
	<path fill="#E13A3E" d="M388.426,387.676L388.426,387.676c1.229-2.959,2.467-7.648,2.096-14.189H342.41
		c-0.244,6.541,0.865,11.23,2.223,14.189c0.612,1.729,1.357,2.838,1.846,3.578c0.373,0.493,0.497,0.734,0.746,0.859l0.124,0.125
		c3.944,3.701,8.879,6.044,12.829,7.525c2.096,0.74,3.825,1.234,5.056,1.606c0.497,0.12,0.864,0.249,1.231,0.249
		c0.373,0,0.742-0.129,1.358-0.249c1.239-0.372,2.96-0.866,4.935-1.606c4.072-1.481,9.003-3.824,12.953-7.402v-0.123l0,0
		c0.124,0,0.124-0.125,0.124-0.125c0.125-0.124,0.368-0.366,0.617-0.859C387.067,390.514,387.684,389.402,388.426,387.676
		L388.426,387.676L388.426,387.676L388.426,387.676z"/>
	<path d="M342.906,348.321h47.246v23.686c0.739,7.278-0.616,12.337-1.976,15.541c-0.618,1.731-1.357,2.845-1.846,3.581
		c-0.254,0.373-0.498,0.618-0.622,0.86c-0.119,0-0.119,0-0.119,0c0,0.124,0,0.124,0,0.124h-0.124
		c-3.826,3.582-8.766,5.92-12.71,7.406c-1.975,0.736-3.695,1.233-4.935,1.604c-0.616,0.124-0.985,0.248-1.358,0.248
		c-0.367,0-0.734-0.124-1.231-0.248c-1.229-0.369-2.96-0.866-4.937-1.604c-3.949-1.486-8.879-3.824-12.828-7.406l-0.12-0.124
		c-0.124-0.242-0.373-0.487-0.622-0.86c-0.487-0.736-1.232-1.85-1.975-3.581c-1.353-3.204-2.587-8.263-1.97-15.541L342.906,348.321
		L342.906,348.321L342.906,348.321L342.906,348.321z M385.834,392.486L385.834,392.486c0.125-0.125,0.125-0.125,0.244-0.248
		c0.124-0.125,0.373-0.368,0.621-0.736c0.486-0.865,1.229-1.977,1.976-3.702c1.354-3.332,2.711-8.515,1.97-15.916v-24.056H342.41
		l-0.12,24.056c-0.621,7.401,0.617,12.584,2.095,15.916c0.617,1.728,1.358,2.837,1.976,3.702c0.249,0.368,0.493,0.611,0.616,0.736
		c0.124,0.123,0.124,0.123,0.124,0.248c4.069,3.578,9.009,6.044,13.077,7.526c1.972,0.74,3.702,1.233,4.935,1.606
		c0.493,0.119,0.985,0.239,1.354,0.239c0.373,0,0.866-0.12,1.487-0.239c1.234-0.373,2.955-0.866,4.931-1.606
		C376.95,398.53,381.89,396.064,385.834,392.486L385.834,392.486L385.834,392.486L385.834,392.486L385.834,392.486z"/>
	<path fill="#FFDF1B" d="M334.763,350.667L334.763,350.667l-3.581-0.864c0,0,0.373,1.476,3.084,1.849
		C334.395,351.653,334.763,350.667,334.763,350.667L334.763,350.667L334.763,350.667L334.763,350.667z"/>
	<path fill="#FFDF1B" d="M398.662,351.772L398.662,351.772c2.717-0.119,3.209-1.968,3.209-1.968l-3.577,0.736L398.662,351.772
		L398.662,351.772L398.662,351.772L398.662,351.772z"/>
	<path fill="#FFDF1B" d="M401.255,413.582L401.255,413.582c1.232-2.093-1.232-7.773-1.232-7.773s3.45,0.865,7.523,0.865
		c0.984,0,2.101-0.125,3.085-0.243l-0.742,5.919c0,0,3.949-1.976,6.911-1.976c0.243,0,0.491,0,0.864,0
		c0.736,0.125,1.355,0.249,1.971,0.368c1.731,0.373,2.959,0.617,3.953,0.617c1.108,0,1.728-0.244,2.219-0.985
		c0.618-0.99,0.488-2.468,0.488-2.468l-0.613-9.128c0,0-1.851-0.864-3.947-1.481c0.124-1.107,0.373-2.343,0.491-3.457
		c0.368-2.462,2.597-4.685,3.209-5.304c0.129-0.123,0.129-0.244,0.129-0.244c-1.731-1.729-2.104-6.296-1.976-6.296
		c3.329-2.338,4.313-4.812,4.442-5.423c0.12,0,0.12-0.123,0.12-0.123c2.219,0.61,6.906,2.094,6.906,2.094s2.098-4.192-1.23-8.138
		c-1.852-2.348-4.195-2.717-5.925-2.717c-0.984,0-1.851,0.121-1.851,0.121s-0.617-1.972-4.686-3.205
		c-3.582-1.108-8.514-7.157-8.514-7.157l0.617-0.985l2.836,1.358c0,0,4.688-7.282,1.854-16.778c-2.346-7.773-11.106-9.5-11.106-9.5
		l-1.231,2.839c0,0-1.11-2.591-2.966-2.839c-0.243,0-0.617-0.121-0.86-0.121c-1.113,0-1.974,0.245-1.974,0.245l0.615,1.11
		l-5.92,2.347c0,0,1.482,1.603,1.727,1.726c0.494,0.369,0.984,0.369,1.478,0.369c0.253,0,0.493,0,0.493,0s0.248,0.492-1.104,2.218
		c0,0,0.61,0.865,0.367,2.222c-0.249,1.235-0.864,3.205-0.864,3.205s-3.577-1.846-4.442-2.343c-1.233-0.738-2.342-1.726-2.954-2.218
		c-0.249-0.244-0.374-0.244-0.498-0.244s-0.243-0.125-0.492-0.125c-0.368,0-0.741,0-1.238,0c-0.611,0-1.229,0-1.354,0.369
		c-0.124,0-0.124,0.124-0.124,0.248c0.124,0.369,0.124,0.741-0.741,0.741l0,0c-0.242,0-0.611-0.124-0.984-0.248
		c-0.248-0.124-0.487-0.249-0.74-0.249c0,0,0,0-0.124,0c-1.359,0.249-3.203,2.841-3.203,2.841s1.477,1.973,4.312,2.834l0,0
		c0.128,0,0.497-0.244,0.863-0.492c0.498-0.369,0.985-0.736,1.109-0.736l0,0c0.497,0.12,0.617,1.477,0.617,1.477
		s1.975-0.989,2.717-0.989l0,0c0.616,0,3.082,1.975,3.082,2.099c-0.123,3.332,0.248,6.786,0.496,9.127
		c0.25,1.851,0.371,3.084,0.25,3.333c-0.25,0.368-3.212,0.864-5.556,1.232c-1.478,0.123-2.592,0.367-2.717,0.492
		c-0.735,0.492-2.096,5.178-2.096,5.178c2.345,2.843,2.594,6.673,2.713,7.527c0,0.125,0,0.25,0,0.25
		c0.741,1.108,1.606,2.34,1.729,2.34c0.244-0.125,0.488-0.125,0.737-0.125c1.358,0,1.852,1.732,2.1,2.475
		c0,0.248,0,0.369,0.12,0.369c0.621,0.248,2.839,0.984,3.337,0.984c0,0,0,0,0.119,0c1.357-3.578,0.12-6.293,0-6.293
		c-3.7,0-1.852-1.723-1.234-2.22l0.119-0.124c-1.108-1.109-2.585-2.466-3.321-3.209c-0.498-0.367-0.741-0.611-0.741-0.611
		c-0.865-1.233-0.13-1.73,0.741-1.975c0.612-0.125,1.347-0.249,1.721-0.249c0.249,0,0.492,0,0.492,0
		c4.447,0.249,5.31,0.492,5.31,0.492c1.355,2.469,4.192,4.69,5.55,5.676c0.492,0.373,0.74,0.617,0.74,0.742
		c-0.989,0.983-0.864,3.331-0.74,5.426c0.125,1.853,0.125,3.328-0.368,4.069c-1.729,2.469-3.825,2.841-5.676,3.09
		c-1.108,0.244-1.976,0.368-2.591,0.984c-0.119,0-0.119,0,0,0.125c0,0.61,0.249,2.838-2.345,3.455c0,0-0.247,1.598-0.49,3.078
		c-0.989-0.119-1.728-0.248-2.225-0.248c-0.488,0-0.865,0.129-0.984,0.129l0,0l0,0c0,0-2.343,7.647-2.592,8.509
		c-0.367,1.36,0.616,3.083,0.741,3.083c-0.125,0-0.125,0-0.249,0.129c-1.354,0.369-8.263,2.468-20.105,2.468
		c-9.744,0-18.379-2.468-18.379-2.468s0.74-1.233,0.615-2.84c0-1.108-2.466-8.881-2.466-8.881s-0.622-0.129-1.851-0.129
		c-0.368,0-0.864,0-1.357,0.129c-0.249-1.48-0.616-2.959-0.616-2.959c-2.468-0.617-2.343-2.845-2.224-3.455c0-0.125,0-0.125,0-0.125
		c-0.617-0.616-1.601-0.74-2.715-0.984c-1.727-0.249-3.945-0.621-5.671-3.09c-0.374-0.741-0.374-2.219-0.248-4.069
		c0-2.095,0.124-4.44-0.742-5.426c0-0.125,0.248-0.369,0.742-0.742c1.356-0.983,4.192-3.207,5.431-5.676c0,0,0.86-0.243,5.428-0.492
		c0,0,0.119,0,0.368,0c0.493,0,1.109,0.124,1.727,0.249c0.989,0.243,1.602,0.74,0.74,1.975c0,0-0.243,0.244-0.611,0.611
		c-0.865,0.743-2.224,2.1-3.332,3.209c0,0,0,0.124,0.119,0.124c0.621,0.497,2.467,2.22-1.354,2.22c-0.125,0-1.357,2.715,0.119,6.293
		c0,0,0,0,0.125,0c0.493,0,2.716-0.736,3.333-0.984c0,0,0-0.121,0.124-0.369c0.119-0.741,0.736-2.475,1.975-2.475
		c0.244,0,0.493,0,0.861,0.125c0,0,0.985-1.23,1.606-2.34c0.12,0,0.12-0.125,0.12-0.25c0-0.854,0.247-4.686,2.592-7.527
		c0.124,0-1.234-4.686-1.976-5.178c-0.12-0.125-1.357-0.369-2.711-0.492c-2.348-0.368-5.308-0.864-5.551-1.232
		c-0.129-0.249,0-1.483,0.12-3.333c0.372-2.342,0.74-5.795,0.616-9.127c-0.119-0.124,2.348-2.099,3.084-2.099l0,0
		c0.741,0,2.716,0.989,2.716,0.989s0.12-1.357,0.617-1.477l0,0c0.124,0,0.492,0.368,0.988,0.736c0.488,0.249,0.86,0.492,0.86,0.492
		l0,0c2.961-0.861,4.447-2.834,4.447-2.834s-1.855-2.593-3.333-2.841l0,0c-0.249,0-0.497,0.125-0.741,0.249
		c-0.373,0.124-0.745,0.248-0.989,0.248h-0.124c-0.736,0-0.736-0.372-0.736-0.741c0-0.124,0-0.248,0-0.248
		c-0.249-0.369-0.87-0.369-1.482-0.369c-0.373,0-0.741,0-1.114,0c-0.244,0-0.487,0.125-0.611,0.125c0,0-0.12,0-0.369,0.244
		c-0.617,0.492-1.855,1.48-3.089,2.218c-0.74,0.497-4.441,2.343-4.441,2.343s-0.493-1.969-0.737-3.205
		c-0.249-1.357,0.368-2.222,0.368-2.222c-1.357-1.726-1.108-2.218-1.108-2.218s0.119,0,0.492,0c0.368,0,0.985,0,1.354-0.369
		c0.248-0.124,1.729-1.726,1.729-1.726l-5.918-2.347l0.736-1.11c0,0-0.985-0.245-2.094-0.245c-0.249,0-0.498,0.121-0.741,0.121
		c-1.975,0.248-2.959,2.839-2.959,2.839l-1.358-2.839c0,0-8.636,1.726-10.982,9.5c-2.96,9.497,1.85,16.778,1.85,16.778l2.841-1.358
		l0.617,0.985c0,0-4.935,6.048-8.636,7.157c-4.069,1.233-4.691,3.205-4.691,3.205s-0.735-0.121-1.85-0.121
		c-1.602,0-3.945,0.369-5.919,2.717c-3.208,3.943-1.234,8.138-1.234,8.138s4.686-1.481,7.029-2.094v0.123
		c0.249,0.61,1.114,3.085,4.57,5.423c0.12,0-0.248,4.566-2.099,6.296c0,0,0.124,0.121,0.248,0.244
		c0.493,0.619,2.831,2.842,3.079,5.304c0.249,1.114,0.369,2.474,0.498,3.582c-2.223,0.611-3.825,1.232-3.825,1.232
		s-1.233,9.496,0,11.596c0.368,0.741,1.109,1.109,2.099,1.109c0.98,0,2.095-0.244,3.204-0.493c0.984-0.243,1.975-0.492,2.959-0.492
		c0.125,0,0.243,0,0.492,0c2.841,0,6.914,2.1,6.914,2.1s-0.74-5.925-0.616-5.925c0.984,0,1.97,0.125,2.956,0.125
		c4.321,0,7.649-0.74,7.649-0.74s-2.218,5.059-1.602,7.033c1.356,4.316,21.588,7.524,33.923,7.646c0.125,0,0.498,0,0.866,0
		C379.424,420.611,399.408,417.159,401.255,413.582L401.255,413.582L401.255,413.582L401.255,413.582L401.255,413.582z
		 M411.248,396.924c-1.972,0.249-3.702,0.498-5.303,0.498c-1.109,0-2.098-0.125-2.967-0.498c-2.342-0.858-4.438-1.602-6.167-2.095
		c0-1.478,0.125-3.824,1.108-4.192l0,0c0.253,0,2.102,1.233,2.102,1.233s2.591-3.334,8.021-4.565c0,0,0,0,0-0.125
		c0-0.617,0.369-3.945,4.562-5.304c0,0,0.368,0.492,0.736,1.108c0.249,0.25,0.497,0.619,0.746,0.867c0,0.119,0,0.119,0,0.119
		c0.737,1.113,1.604,2.348,1.479,3.09c0,0,0.124,0,0.247,0c0.86,0.119,2.587,0.367,3.082,1.23c1.479,2.837-4.688,7.896-4.688,7.896
		l0.128,0.491C413.341,396.681,412.237,396.805,411.248,396.924L411.248,396.924L411.248,396.924L411.248,396.924L411.248,396.924z
		 M335.748,395.078c-3.576,1.478-6.043,2.219-8.879,2.219c-1.606,0-3.333-0.249-5.557-0.616c-0.735-0.125-1.601-0.249-2.467-0.249
		v-0.242c0,0-6.163-5.061-4.562-7.896c0.493-0.863,2.219-1.111,2.96-1.23c0.249,0,0.373,0,0.373,0
		c-0.249-0.742,0.611-1.977,1.354-3.09c0.124,0,0.124,0,0.124-0.119c0.244-0.248,0.492-0.617,0.617-0.867
		c0.492-0.616,0.736-1.108,0.865-1.108c4.188,1.358,4.437,4.687,4.561,5.304c0,0.125,0,0.125,0,0.125
		c5.309,1.231,8.02,4.565,8.02,4.565s1.851-1.233,1.97-1.233l0,0c1.114,0.368,1.243,2.715,1.114,4.192
		C336.121,394.954,335.993,394.954,335.748,395.078L335.748,395.078L335.748,395.078L335.748,395.078z"/>
	<path fill="#FFDF1B" d="M309.35,408.399L309.35,408.399c0.119,0.983,2.096,0.247,2.096,0.247l-0.494-2.099
		C310.951,406.549,309.102,407.29,309.35,408.399L309.35,408.399L309.35,408.399L309.35,408.399z"/>
	<path fill="#FFDF1B" d="M335.624,413.21L335.624,413.21v-3.573c0,0-1.85,0.613-1.85,1.854
		C333.774,412.593,335.624,413.21,335.624,413.21L335.624,413.21L335.624,413.21L335.624,413.21z"/>
	<path fill="#FFDF1B" d="M344.02,404.698L344.02,404.698c0,0,1.474-1.108,1.354-1.728c-0.249-1.111-1.731-0.739-1.731-0.739
		L344.02,404.698L344.02,404.698L344.02,404.698z"/>
	<path fill="#FFDF1B" d="M397.553,413.21L397.553,413.21c0,0,1.855-0.617,1.855-1.851c-0.123-0.985-1.979-1.724-1.979-1.724
		L397.553,413.21L397.553,413.21L397.553,413.21z"/>
	<path fill="#FFDF1B" d="M389.042,404.698l0.494-2.467c0,0-1.479-0.244-1.854,0.615
		C387.439,403.713,389.042,404.698,389.042,404.698L389.042,404.698L389.042,404.698L389.042,404.698z"/>
	<path fill="#FFDF1B" d="M421.733,408.647L421.733,408.647c0,0,1.854,0.616,2.098-0.248c0.249-0.86-1.725-1.852-1.725-1.852
		L421.733,408.647L421.733,408.647L421.733,408.647z"/>
	<path fill="#FFDF1B" d="M385.218,327.966l0.249-0.123C385.342,327.966,385.342,327.966,385.218,327.966L385.218,327.966
		L385.218,327.966L385.218,327.966z"/>
	<path fill="#FFDF1B" d="M367.822,394.585l0.378,0.244c0.119,0,0.984-0.616,1.349-0.989l0.989-1.602l0.492,0.496l0.859-1.112
		l0.742,0.366l0.249-0.61c0.248,0.244,0.497,0.369,0.616,0.492c0.248,0.118,0.617,0.243,0.861,0.368
		c0.372,0.123,1.361,0.248,1.361,0.248c0-0.125,0.243-0.248,0.362-0.373l1.732,0.248l0.739-1.726h0.248
		c0.244,0,0.369-0.124,0.369-0.245c0.12-0.373,0.25-0.746,0.369-1.111l0.123-1.853l0.498,0.12c0.12-0.12,0.244-1.229,0.244-1.602
		c-0.124-0.616-0.244-1.109-0.369-1.604l-0.373-0.99l0.373-0.119c0,0-0.373-0.616-0.745-0.984c-0.617-0.62-1.723-1.605-3.21-2.098
		c-0.61-0.373-1.353-0.373-1.969-0.373c-0.736,0-1.358,0.128-1.853,0.248c-0.617,0-1.726,1.727-2.466,1.603
		c-3.334-0.86-4.069-1.108-7.033-0.12c-0.617,0.12-0.617-1.232-1.359-1.232c0,0-0.367-0.248-0.616-0.248
		c-0.362-0.121-0.979-0.249-1.721-0.249c-0.745,0-1.482,0.128-2.472,0.372c-0.984,0.369-1.851,1.109-2.587,1.846
		c-0.497,0.497-0.737,0.988-0.985,1.238l0.369,0.119c-0.12,0.373-0.497,1.238-0.616,1.606c-0.124,0.617-0.249,1.603,0,2.587
		l0.616-0.119c-0.12,0.371-0.12,0.739-0.12,0.863c0.12,0.368,0.12,0.739,0.24,1.234c0.128,0.369,0.497,1.109,0.497,1.109h0.368
		c0.125,0.244,0.249,0.492,0.368,0.865c0.125,0.245,0.373,0.859,0.373,0.859l1.975-0.372l0.244,0.497
		c0.248,0,0.746-0.125,1.363-0.248l1.477-0.86l0.249,0.611l0.362-0.242l0.497,0.614l0.492-0.491c0.125,0.491,2.225,2.959,2.35,2.959
		l0.367-0.244c0.25,0.125,1.481,1.229,1.481,1.354L367.822,394.585L367.822,394.585L367.822,394.585z"/>
	<path fill="#FFDF1B" d="M354.253,323.897L354.253,323.897c-1.478-1.731-4.193-5.432-5.552-8.392
		c-1.109-2.218-1.109-4.068-1.233-4.068c0,0.119-1.229,2.959-1.602,4.935c0,0.243-1.114,2.094-0.622,4.934
		c0,0.368-0.98,2.711,0.373,4.934c0,0.249-0.492,3.945,1.108,5.675c0.125,0.125-0.248,1.971,0.741,4.068
		c0.124,0.249,0.741,5.06,3.949,3.454c0.12,0,2.96,0.497,3.208,0.621c0.244,0.244,0.861,1.478,1.97,2.462
		c1.113,0.867,2.473,1.483,2.473,1.483l0.859,1.357c0,0.124,0.741-0.497,0.741-0.497s-0.243-0.86-0.243-1.228
		c0-0.249,1.229-0.494,1.602-0.618c0.493,0,3.204-0.989,3.451-3.457c0.125-0.989-0.124-3.95,0.125-4.07
		c0.125-0.124,3.458,1.852,3.582,1.852c0.12,0,2.219,0,2.219,0.74c0,0.862,0.486,3.328,1.479,4.07
		c0.367,0.249,3.7,1.353,3.819,1.602c0.128,0.124-0.119,1.108-0.119,1.108l0.74,0.497c0,0,0.985-1.725,2.102-1.974
		c0.492-0.125,3.819-3.209,4.805-3.454c1.113-0.373,2.716-0.125,3.331-0.248c0.746-0.125,1.607,0.124,2.346-3.825
		c0-0.369,0.739-1.11,0.739-4.193c0-0.245,2.223-1.727,0.984-5.179c-0.12-0.249,1.735-2.348,0.373-5.183
		c-0.125-0.373,0.864-2.84-0.74-5.059c-0.125-0.244-0.369-3.825-1.232-5.184c-0.124-0.119-0.492,3.333-1.354,4.562
		c-0.369,0.747-7.034,9.998-7.283,10.983c-0.244,0.986,0.616,2.96,0.865,3.824c0.243,0.741-0.865,6.043-3.452,4.691
		c-2.591-1.238,3.695-6.665,0-9.133c-0.248-0.249-1.232-0.861-3.58,0.498c0,0,0.128-5.676-3.453-5.432c0,0,1.976-1.975-0.247-5.551
		c0,0,0.366-3.327-1.847-4.691c0,0-0.87-3.083-2.472-4.192c0,0,0.248,2.223-0.617,3.949c-0.612,1.109-3.083,5.432-3.448,5.925
		c-0.376,0.492-3.709,5.053-3.456,6.66c0.124,1.109,1.721,2.467,1.721,2.467c-0.238,0.493-1.478-0.374-2.705,0.249
		c-0.498,0.244-1.731,0.985-1.363,3.329c0.248,0.741,1.855,3.578,1.855,4.935c0.119,0.74-0.87,1.477-1.855,1.233
		c-0.617-0.124-2.219-2.466-2.344-4.687c0-0.74,1.115-2.222,0.99-3.701C355.859,325.991,354.501,324.265,354.253,323.897
		L354.253,323.897L354.253,323.897L354.253,323.897z"/>
	<path fill="#FFFFFF" d="M347.592,311.312L347.592,311.312c0-0.124-1.353,2.219-1.85,5.059c0,0-1.358,2.834-0.617,5.059
		c0.12,0.119-1.233,2.094,0.368,4.934c0,0-0.741,3.577,1.114,5.551c0,0.125-0.129,2.095,0.74,3.945
		c0.12,0.372,0.492,5.431,4.438,3.701c0-0.124-7.402-5.675-1.604-21.339C350.184,318.098,348.085,314.396,347.592,311.312
		L347.592,311.312L347.592,311.312L347.592,311.312z"/>
	<path fill="#FFFFFF" d="M352.158,320.933L352.158,320.933c-0.124-0.12-5.433,12.709,2.587,19.37c0,0,0.497-0.493,0.373-1.11
		c-0.125-0.621-6.785-4.69-1.975-16.902C353.144,322.166,352.775,321.798,352.158,320.933L352.158,320.933L352.158,320.933
		L352.158,320.933z"/>
	<path fill="#FFFFFF" d="M390.028,310.944c-0.861,3.944-2.712,6.536-2.712,6.536c5.919,15.67-1.482,22.205-1.357,22.205
		c3.826,1.605,3.945-3.825,3.945-3.825c1.112-1.11,0.857-4.069,0.857-4.193c2.104-2.344,1.114-5.179,1.114-5.179
		c1.608-2.72,0.25-5.059,0.25-5.308c0.61-3.457-0.741-5.059-0.741-5.059C391.137,312.915,390.028,310.814,390.028,310.944
		L390.028,310.944L390.028,310.944L390.028,310.944z"/>
	<path fill="#FFFFFF" d="M385.342,320.564c-0.741,0.866-1.113,1.358-0.984,1.483c4.811,12.088-2.101,16.406-2.101,17.146
		c-0.13,0.617,0.492,1.234,0.74,0.985C391.386,332.04,385.342,320.439,385.342,320.564L385.342,320.564L385.342,320.564
		L385.342,320.564z"/>
	<path fill="#FFFFFF" d="M361.902,336.108L361.902,336.108c0.617,0.125,1.237,2.713,1.237,2.713c1.354-3.209,0.738-4.07,0.12-5.055
		c-0.368-0.497-2.095-1.607-2.592,0.492C360.545,334.875,360.788,336.108,361.902,336.108L361.902,336.108L361.902,336.108
		L361.902,336.108z"/>
	<path fill="#FFFFFF" d="M375.353,336.108c1.229-0.125,1.478-1.233,1.35-1.85c-0.617-2.1-2.342-0.989-2.586-0.492
		c-0.617,0.984-1.233,1.845,0.119,5.055C374.234,338.821,374.856,336.108,375.353,336.108L375.353,336.108L375.353,336.108
		L375.353,336.108z"/>
	<path fill="#FFFFFF" d="M373.498,328.335L373.498,328.335c0,0.492,0.736-0.245,1.854,0c0.98,0.368,0.121,0.989,2.096,2.098
		c2.096,0.99,4.192-2.217,1.479-4.317C376.829,324.39,373.498,327.966,373.498,328.335L373.498,328.335L373.498,328.335
		L373.498,328.335z"/>
	<path fill="#FFFFFF" d="M360.918,329.448L360.918,329.448c0.119-0.125,1.108,2.591,3.826,4.687
		c1.477,1.356,4.191,2.715,5.301,2.839c1.109,0.245,1.479-0.248,2.219-2.347c0,0-4.686-1.85-5.675-10.73
		c0,0-3.083,1.352-7.645,1.845c-1.11,0.129-2.225,2.102-1.235,4.323C357.709,330.065,359.431,331.667,360.918,329.448
		L360.918,329.448L360.918,329.448L360.918,329.448z"/>
	<path fill="#FFFFFF" d="M368.562,322.908L368.562,322.908c0,0.125,0.244,7.033,5.061,10.118c0,0,0.611-0.618,1.109-1.111
		c0,0-4.812-2.591-4.812-9.5C369.921,322.291,368.562,322.784,368.562,322.908L368.562,322.908L368.562,322.908L368.562,322.908z"/>
	<path fill="#FFFFFF" d="M361.653,318.958L361.653,318.958c0,0,3.209,2.223,4.075,4.811c0,0.128,0.615-0.244,0.615-0.244
		s-0.74-3.334-4.196-5.426C362.026,317.973,361.653,318.958,361.653,318.958L361.653,318.958L361.653,318.958L361.653,318.958z"/>
	<path fill="#FFFFFF" d="M363.506,315.625L363.506,315.625c0,0.128,3.454,1.363,5.059,6.915c0,0,6.789-0.742,3.083-7.034
		c0,0,0.243-3.327-1.85-4.691c0,0-0.735-3.202-2.713-4.312C367.085,306.502,367.454,309.586,363.506,315.625L363.506,315.625
		L363.506,315.625L363.506,315.625z"/>
	<path d="M365.853,310.575c-0.146,0.387-0.249,0.614-0.249,0.614c-0.74,2.099-6.783,9.868-6.783,11.595
		c0,1.357,0.988,2.465,0.988,2.465s-1.606-0.368-2.591,1.115c-1.233,1.851,0,3.944,0.244,4.437c0.248,0.497,1.358,2.469,1.238,3.209
		c-0.129,0.617-0.377,0.984-1.115,0.865c-0.989,0-2.343-3.577-2.099-4.074c0-0.12,0.249-1.232,0.249-1.353
		c0.493-0.865,0.74-1.233,0.74-2.348c0-1.229-3.084-5.178-3.084-5.178c-4.566-6.169-4.938-7.894-5.183-8.759
		c-0.244-0.865-0.493-3.209-0.493-3.209s-0.989,1.851-1.237,2.593c-0.119,0.244-0.368,0.741-0.488,1.352
		c-0.248,0.741-0.248,1.607-0.248,1.607s-0.741,1.358-0.99,2.96c-0.244,1.357,0.129,2.591,0.129,2.591s-0.497,1.603-0.497,2.592
		c0,1.725,0.861,2.716,0.861,2.716s-0.244,0.86-0.244,2.095c0,2.222,1.358,3.581,1.358,3.456c0-0.124-0.12,1.727,0,2.22
		c0.249,0.616,0.865,1.605,0.865,1.726c0,0.248,0,0.866,0.368,1.851c0.373,0.985,0.861,1.606,0.861,1.606s-2.836-0.496-3.821,0
		c-0.612,0.244-4.441,2.712-4.81,2.96c-0.742,0.493-3.452,1.479-3.452,1.479s-0.498-2.464-0.498-3.085
		c0.12-0.368,0.498-1.354,0.498-1.354s-0.377-0.372-0.377-0.496c-0.12-0.125-0.488-0.368-0.617-0.738
		c0-0.125,0.129-0.249,0.129-0.249s1.354-0.491,2.095-0.984c0.368-0.249,1.727-2.1,1.727-2.1l-3.577-1.232l0.861-1.36
		c0,0-0.617-0.119-1.105-0.119c-0.249,0-1.602,0.611-1.85,0.738c-0.249,0-0.368-0.126-0.368-0.126l1.107-1.477
		c0,0-1.107-0.373-2.472-0.373c-0.741,0-1.357,0.124-1.974,0.248c-1.234,0.374-2.096,1.359-2.22,1.359
		c-0.243,0-0.367-0.249-0.491-0.368c0-0.125-0.125-0.617-0.249-0.866c-0.12-0.25-0.369-0.373-0.369-0.373s-0.249,0.248-0.497,0.248
		c-0.12,0.125-8.014,1.234-11.222,8.512c-4.322,9.745,1.729,18.996,1.729,18.996l2.707-1.108c0,0,0.125,0.125,0.125,0.373
		c-0.125,0.368-4.069,3.824-4.562,4.068c-0.497,0.367-3.705,2.224-4.194,2.344c-0.497,0.125-1.487,0.865-1.73,0.865
		c-0.367,0-0.487-0.119-0.487-0.119l-1.73,2.094c0,0-5.303-0.249-7.894,2.837c-3.949,4.44-1.234,9.5-1.234,9.5l6.785-2.226
		c0,0,0.369,1.109,1.851,2.722c0.492,0.487,0.985,0.985,1.358,1.479c0.736,0.49,1.353,0.982,1.353,0.982s-0.118,1.482-0.487,2.469
		c-0.989,2.711-1.73,3.699-1.73,3.699s2.343,1.482,3.204,4.443c0.124,0.371,0.373,4.067,0.373,4.067
		c-1.358,0.374-3.333,1.362-3.452,1.362l0,0l0,0c0,0,0,2.095-0.125,4.319c-0.243,2.586-0.492,5.421-0.373,6.167
		c0.129,1.727,1.114,2.712,2.473,3.079c1.353,0.249,5.546-1.603,9.743-0.735c2.711,0.611,5.552,2.71,5.552,2.71l-1.11-6.908
		c0,0,2.463,0.124,4.567,0.248c1.97,0,4.562-0.616,4.562-0.616s-1.232,3.825-1.232,4.068c-0.374,1.851,0.372,3.332,0.74,3.706
		c1.607,1.601,6.044,2.835,7.029,3.084c1.178,0.35,12.323,3.504,27.14,3.69l0.005-1.331c-0.327-0.004-0.661-0.014-0.989-0.019
		c-15.42-0.249-24.796-2.959-30.469-5.184c-1.107-0.491-2.223-0.864-2.347-2.963c-0.125-1.479,1.606-5.427,1.606-5.427
		s4.312-1.358,4.441-1.358c4.193-1.972,5.06-1.852,5.06-1.852l0.368,2.592c0,0,3.203-1.479,2.344-3.203
		c-0.741-1.356-2.225-1.108-3.701-0.492c-4.935,2.342-9.376,3.328-10.734,3.576c-1.357,0.244-4.316,0.617-8.636,0.244
		c-1.353-0.125-7.401-1.109-10.112-0.492c-2.104,0.492-4.193,1.357-3.948,3.084c0.125,1.975,3.451,0.74,3.451,0.74l-0.491-2.343
		c0.12,0,1.481-0.741,4.44-0.616c1.728,0.12,5.796,0.735,5.796,0.735s0.741,4.198,0.621,4.572c0,0-3.088-1.731-5.799-1.731
		c-4.691,0-7.283,1.731-8.636,0.492c-0.985-1.109-0.616-2.96-0.616-2.96l0.616-8.145l2.343-0.863c0,0,0.12,0.987,0.737,1.73
		c0,0,0.615-0.743,1.361-0.618c0.736,0.125,0.616,0.861,0.616,0.861l0.12,3.208c0.124,0,2.348,0.492,4.566,0.373
		c1.974-0.248,4.441-0.99,4.441-0.99l0,0c0,0-1.238-2.959-1.238-3.327c-0.12-0.498-0.368-1.237-0.368-1.237s-0.985,0-1.358-0.249
		c-0.368-0.239-0.617-0.736-0.617-0.736l0.124-0.249c0,0,4.074,0.498,5.676,0.866c2.349,0.368,5.676,0,8.766-1.233
		c2.089-0.864,3.694-1.233,3.694-1.233s1.115,0.25,2.225,0.25s4.193-0.375,4.193-0.375l-0.244-1.481l1.726,0.125l1.846,6.416
		c0,0,1.358,2.959-0.248,4.562c-0.119,0-1.846,2.84-7.771,3.457c-0.124,0-5.422,0.247-5.671,2.96
		c-0.125,2.099,3.204,2.715,3.204,2.715l0.129-4.067c0,0,0.487-0.249,1.354-0.37c1.727-0.123,3.576-0.372,4.811-0.863
		c2.959-0.99,4.934-3.09,4.934-3.09s8.079,2.449,18.385,2.468v-1.473c-9.938,0.097-17.888-2.104-17.888-2.104
		s0.86-1.354,0.368-2.954c-0.124-0.249-2.467-8.766-2.467-8.766l0,0l-2.841-0.119l-0.616-2.961c0,0-1.109,0.244-1.97-0.989
		c-0.746-0.985-0.125-2.468-0.125-2.468s-1.482-0.615-3.333-0.987c-1.606-0.245-2.836-0.369-4.686-1.978
		c-1.234-1.231-0.866-3.819-0.985-6.291c0-1.975-0.372-3.819-0.372-3.819s2.218-1.853,2.591-2.345
		c0.493-0.371,2.463-3.088,2.591-3.209c0.12-0.119,6.785-0.615,6.785-0.615l1.233,0.367c0,0-0.498,0.99-0.74,1.358
		c-0.493,0.741-2.717,2.099-3.208,2.591c-0.368,0.493-0.741,1.357-0.741,1.357s1.232,0.369,0.99,1.116
		c-0.249,0.485-1.731-0.13-1.731-0.13s-0.492,0.865-0.612,2.839c-0.249,3.085,0.736,5.056,0.736,5.056l4.69-1.354
		c0,0,0.498-1.98,1.109-2.225l0.368-0.125c0,0,0.244,0.125,0.493,0.125c0.124,0,0.373,0.368,0.373,0.368s1.357-1.358,1.726-2.342
		c0.373-0.99,1.109-4.937,1.358-5.673c0.249-0.987,1.722-2.965,1.722-2.965s-0.364-2.342-0.731-3.328
		c-0.373-0.987-1.358-2.715-1.358-2.715s-2.343-0.244-3.581-0.492c-1.229-0.125-3.333-0.497-3.701-0.616
		c-0.369-0.119-0.741-0.617-0.741-0.617s0.493-2.348,0.493-4.935c0-1.726,0-6.542,0-6.542s2.472-1.851,2.721-1.851
		s3.08,1.358,3.08,1.358l0.616-1.358l1.114,0.985c0,0,2.219-0.861,2.956-1.478c2.347-1.725,2.716-2.466,2.716-2.466l-3.701-3.454
		c0,0,0.12,0,0.497,0c0.368,0,0.617-0.125,0.737-0.125c0.124,0,2.223,0.617,2.347,0.617c0,0.124,0.493,1.233,1.479,1.976
		c0,0,0.497,0.493,1.108,0.74c0.865,0.494,1.604,0.494,2.101,0.986c0.61,0.492,0.741,1.725,0.741,1.725l0.366-0.124
		c0,0,0,0.249,0,0.373c0,0.125-0.118,0.244-0.242,0.493c-0.253,0.124-0.253,0.369-0.253,0.493c0.129,0.125,0.253,0.243,0.496,0.243
		c0.249,0,0.368,0,0.368-0.368c-0.119-0.245-0.119-0.737,0.373-0.861c0.497-0.124,0.616,0.368,0.735,0.861
		c0,0.368,0,0.492,0.373,0.492c0.37-0.125,0.494-0.243,0.37-0.492c-0.121-0.245-0.494-0.617-0.121-0.861
		c0.121-0.124,0.617,0,0.737,0.125c0,0.244-0.12,0.617-0.12,0.737c0.12,0.249,0.616,0.249,0.736,0.125
		c0.125-0.125,0.125-0.618,0.125-0.861c-0.125-0.249-0.245-0.497-0.741-0.617c-0.12,0-0.492-0.124-0.861-0.124
		c-0.125,0-0.368,0-0.498,0c-0.238,0-0.486-0.244-0.486-0.244h0.119c0,0-0.368-1.113-0.249-1.238
		c0.13-0.248,0.746-0.248,1.238-0.497c0.369-0.119,1.114-0.365,1.114-0.365s0.489,0.365,0.613,0.494
		c0.247,0.243,0.615,0.736,0.615,0.736s0.74,0.373,0.861,0.373c0.123,0,0.372,0.119,0.372,0.119c0.104,0,0.192,0,0.249,0.015v-0.788
		c-0.384-0.087-0.865-0.335-0.865-0.335l-0.493-1.235c0,0,0.856-0.428,1.358-2.002v-5.768c-0.77-0.332-1.108-1.109-1.108-1.109
		s0.436-0.157,1.108-0.516v-1.302c-0.328,0.193-0.621,0.354-0.865,0.459c-1.977,0.619-3.334-2.098-3.334-2.098s1.606,0,2.961-0.493
		c0.16-0.097,0.626-0.328,1.238-0.63v-1.312c-0.731,0.35-1.482,0.709-1.482,0.709v-0.369c0,0-1.109-0.866-1.358-1.234
		c-0.247-0.248-0.863-0.741-0.863-0.741s0.863-0.125,1.357-0.374c0.125-0.078,1.08-0.557,2.348-1.149v-1.247
		c-2.421,1.302-4.567,1.661-4.567,1.661s-1.601-1.109-1.357-2.59c0.213-0.732,4.126-6.666,5.926-9.676v-2.164H365.853
		L365.853,310.575L365.853,310.575z M365.853,317.542c-0.631,0.924-2.841,3.764-2.841,3.764s0.99,0.492,1.482-0.249
		c0.096-0.097,0.64-0.773,1.357-1.754L365.853,317.542L365.853,317.542L365.853,317.542L365.853,317.542z M365.853,321.742
		c-0.562,0.53-1.107,1.042-1.107,1.042s0.487,0.497,0.983,0.249c0.036-0.015,0.078-0.039,0.124-0.064V321.742L365.853,321.742
		L365.853,321.742L365.853,321.742z M365.853,345.177c-0.035,0.04-0.083,0.097-0.124,0.184c0,0.12,0.051,0.268,0.124,0.415V345.177
		L365.853,345.177L365.853,345.177L365.853,345.177z M311.941,398.282c0,0-0.129-0.368-0.249-0.488c0-0.248,0.12-3.829-0.497-5.433
		c-1.11-2.959-2.836-4.069-2.836-4.069s1.108-1.974,1.357-2.962c0,0,0.245-0.986,0.369-1.848c0.125-0.865,0.125-1.854,0.125-1.854
		s-4.935-2.837-4.811-7.152c0.125-5.553,3.82-8.145,3.82-8.145s0.377-0.243,0.617-0.368c0.741-0.124,2.104-0.616,2.845-1.108
		c3.079-1.729,6.537-4.935,6.78-5.308c0.616-0.618,1.603-2.099,1.603-2.099s-2.955-4.935-3.083-8.884
		c0-1.722-0.12-6.782,2.348-10.237c2.591-3.701,6.292-4.193,6.292-4.193l-0.12,0.492l-0.377,0.368l1.605,0.129
		c0,0,0.746-1.854,1.728-2.473c1.481-0.983,2.591-0.492,2.591-0.492l-2.099,2.836h1.481l1.11-1.476l4.689,1.849l-0.859,0.865
		c-0.377,0.244-1.114,0.369-1.114,0.369l-0.129-0.99l-1.597-0.244c0,0,0.125,0.244,0.244,0.493c0.129,0.372,0.248,1.606,0.372,1.974
		c0.12,0.494,0.861,1.727,0.861,1.727s-0.244,0.989-0.244,2.222c0,0.125,0.861,3.081,0.861,3.329
		c0.124,0.249,0.497,1.114,0.497,1.358c0.12,1.115-0.249,1.358-0.497,1.602c-0.249,0.249-0.741,1.115-1.358,1.483
		c-0.244,0.249-0.735,0.125-0.979-0.368c-0.249-0.497-0.129-1.731-0.129-1.731s-0.985-0.368-1.109-0.125
		c-0.125,0.254,0.493,0.99,0.493,0.99l0.124,0.985c0,0-0.492,0-0.865-0.119c-0.12-0.124-0.86-0.622-0.86-0.622
		s-0.617-1.722-0.866-1.971c-0.124-0.249-0.616-1.85-0.616-1.85s-1.23-0.125-2.467-1.482c-1.234-1.48-0.985-2.96-0.985-2.96h-0.99
		c0,0,0,1.605,0.622,2.467c0.12,0.125,0.369,0.618,0.617,0.986c0.488,0.498,1.109,0.989,1.109,0.989s0.368,1.974,0.984,2.84
		c0.129,0.12,1.11,1.846,2.219,2.955c0.125,0.128,0.865,1.113,1.606,1.486c0.125,0,0.369-0.125,1.731,0.364
		c0.12,0,1.104,0.622,1.845,1.238c0.99,0.985,1.851,2.098,1.851,2.098c1.727,2.095,1.233,3.822,1.233,3.822l-1.354-0.492
		c0,0,0-1.235-0.372-1.977c-0.497-1.232-1.233-1.606-1.233-1.606l-1.358,0.622c0,0,0.99,0.12,1.606,1.606
		c0.368,0.981-0.128,1.971-0.128,1.971s1.113,0.736,3.457,1.234c0.244,0.119,1.851,0.492,3.457,0.863
		c2.219,0.369,4.562,0.736,4.686,0.736c0.861,0.862,1.852,4.316,1.728,4.566c0,0.248-0.737,0.984-0.866,1.357
		c-0.244,0.368-1.105,2.467-1.229,3.084c-0.125,0.368-0.373,2.836-0.373,3.203c-0.125,0.498-1.357,1.975-1.357,1.975
		c-0.12,0-0.985-0.119-1.603,0.125c-0.736,0.367-1.481,2.593-1.481,2.593l-2.587,0.741c0,0-0.498-1.234-0.498-2.346
		c-0.119-1.973,0.369-2.466,0.369-2.466s1.975,0.124,2.347-0.989c0.493-1.108-0.741-1.976-0.741-1.976s2.84-2.342,3.208-2.835
		c0.492-0.617,0.865-1.357,0.865-1.973c0-0.496-0.493-1.479-0.493-1.479c-0.373-0.125-3.457-0.374-3.581-0.249
		c-0.859,0-6.044,0.492-8.263,0.368c-0.373,0-0.616-2.463-0.616-2.463l-1.358,0.243l0.737,3.58c0,0,0.989-0.127,1.357-0.127
		c0.373,0,1.727,0.127,1.727,0.127s-1.971,2.342-4.562,4.438c-0.125,0-2.959,2.22-7.895,3.458c-0.124,0-0.249-1.602-0.497-2.468
		c-0.119-0.746-0.866-2.349-0.866-2.349l-1.108,0.617c0,0,1.727,2.717,0.99,7.153c-0.616,3.829-2.717,5.677-3.208,6.173
		c-0.369,0.492-0.617,0.985-0.736,1.109c0,0.369,0,0.736,0,0.736s-2.596-0.121-3.333,1.729c-0.493,1.234,0.369,3.702,0.737,4.07
		c0.248,0.373,2.84,2.84,2.964,3.084c0.249,0.492,0.369,0.865,0.369,0.865s-0.617,0.859-0.493,1.357
		c0.249,1.602,2.219,1.725,2.219,1.725c0.124,0.375,0.373,0.743,0.492,1.11c0.124,0.493,0.249,0.99,0.374,1.479
		c0,0-1.358,0.496-2.711,0.621c-1.114,0.125-2.965-0.125-2.965-0.125l-0.248-2.961c0,0-0.368-1.112-1.109-1.231
		C312.434,398.033,311.941,398.282,311.941,398.282L311.941,398.282L311.941,398.282L311.941,398.282L311.941,398.282z
		 M331.679,340.302L331.679,340.302l1.109,0.989l0.368,1.229l0.498,0.497l-0.249-2.223l0.249-0.861c0,0-0.249-0.864-0.498-1.113
		c-0.12-0.249-0.736-0.617-0.736-0.617v1.233L331.679,340.302L331.679,340.302L331.679,340.302L331.679,340.302z M334.395,346.346
		l0.613,0.617l0.249-0.369l-0.373-0.741l-0.617-0.124L334.395,346.346L334.395,346.346L334.395,346.346L334.395,346.346z
		 M331.799,350.171l2.595,0.616l-0.128,0.617c0,0-0.979-0.244-1.478-0.368C332.048,350.667,331.799,350.171,331.799,350.171
		L331.799,350.171L331.799,350.171L331.799,350.171L331.799,350.171z M325.755,332.408c0,0,0.369,0.37,0.369,0.494
		s-0.12,0.249-0.12,0.249s-4.441,1.108-6.666,4.561c0,0-2.707,2.839-2.467,9.376c0,0.617-0.119,2.343,0.249,4.073
		c0.497,2.588,1.481,5.055,1.481,5.055l-1.481,0.621c0,0-2.343-3.824-2.468-9.505c0-3.078,0.492-7.397,3.825-10.974
		C321.682,333.026,325.755,332.408,325.755,332.408L325.755,332.408L325.755,332.408L325.755,332.408L325.755,332.408z
		 M339.449,356.463c0,0-1.11-1.85-2.096-2.963c-0.983-1.11-2.228-1.972-2.228-1.972s0.377-1.233,0.497-1.477
		c0.124-0.373,1.482-1.856,1.605-2.348c0.249-0.986-0.372-2.219-0.248-2.463c0-0.129,3.7-1.854,4.197-2.1
		c2.712-1.73,3.329-2.591,3.329-2.591s2.218,0,2.218,0.12c0,0.865,0.373,1.112,0.373,1.112c1.851,0.619,2.22-0.372,2.711-0.372
		c0.741,0,1.977,1.358,2.225,1.73c0.124,0.121,0.368,0.494,0.368,0.494s-1.234,0.984-1.482,1.228
		c-0.613,0.377-2.095,0.865-2.095,0.865s-0.616-0.244-0.985-0.617c-0.248-0.248-0.616-0.492-0.616-0.492s-0.616-0.124-0.865,0.244
		c-0.249,0.248-0.492,1.114-0.492,1.114s-1.482-0.736-1.727-0.866c-1.233-0.367-2.84,1.234-3.089,1.482
		c-0.736,0.618-1.357,0.99-1.357,0.99l0.129,0.487c0,0-0.129,4.691-0.129,5.308C339.822,353.873,339.449,356.463,339.449,356.463
		L339.449,356.463L339.449,356.463L339.449,356.463L339.449,356.463z M302.933,376.45l-4.561,1.233c0,0-1.239-3.084,0.984-6.293
		c2.587-3.701,6.413-2.959,6.413-2.959s-0.741,1.603-0.985,1.975c-0.369,0.984-0.493,2.342-0.493,2.342s-1.358,0.861-1.606,1.604
		C302.441,375.465,302.933,376.45,302.933,376.45L302.933,376.45L302.933,376.45L302.933,376.45L302.933,376.45z M325.507,377.434
		l-0.12-1.108c0,0,1.728-0.615,1.976-0.738c0.249-0.245,2.343-1.483,2.343-1.483s0.616,1.238,0.492,2.84
		c-0.125,0.742-0.248,4.318,0,5.427c0.617,2.469,4.687,3.95,4.687,3.95c3.581,0.369,3.825,0.742,3.825,0.742
		s-0.124,1.23,0.249,2.219c0.492,1.111,2.094,1.48,2.094,1.48l0.617,3.329c0,0-1.478,0.248-2.462,0.248
		c-0.866,0-2.348-0.498-2.348-0.498s0-1.478-0.248-2.218c-0.239-1.23-1.482-1.727-1.482-1.727l-1.722,1.232
		c0,0-1.109-1.354-2.591-2.225c-1.851-1.229-5.18-2.094-5.18-2.094s0.12-1.48-1.233-3.084c-1.113-1.479-3.088-2.219-3.088-2.219
		s0.249-0.617,0.368-0.988c0.249-0.369,0.497-1.358,0.497-1.358L325.507,377.434L325.507,377.434L325.507,377.434L325.507,377.434
		L325.507,377.434z M319.338,396.064c0,0-0.617-1.479-1.356-2.101c-0.613-0.612-2.835-2.343-3.08-3.696
		c-0.249-0.742,0.493-2.225,1.232-2.469c0.618-0.252,1.604,0.12,1.604,0.12s0.373-1.231,0.741-1.974
		c0.243-0.74,2.343-3.209,2.343-3.209s1.108-0.12,2.592,1.729c1.481,1.604,1.109,3.7,1.109,3.7s1.602,0.124,4.073,1.234
		c3.826,1.852,4.936,3.576,4.936,3.576s0.493-0.492,0.617-0.74c0.248-0.25,0.86-0.616,0.86-0.616s0.368,0.739,0.368,1.356
		c0.129,1.11-0.492,1.851-0.492,1.851s-5.178,1.976-7.646,2.095C324.765,396.924,319.338,396.064,319.338,396.064L319.338,396.064
		L319.338,396.064L319.338,396.064L319.338,396.064z M350.184,340.058c0,0-0.124,0.12-0.492,0.244c-0.124,0-1.358,0.124-1.358,0.124
		s-0.124-0.249,0-0.249c0-0.244,0.12-0.861,0.12-0.861s0.497,0.492,0.989,0.617C349.567,339.934,350.184,340.058,350.184,340.058
		L350.184,340.058L350.184,340.058L350.184,340.058L350.184,340.058z M359.068,327.349L359.068,327.349
		c0,0.37,0.243,0.617,0.492,0.617c0.367,0.124,0.616-0.372,0.616-0.742c0-0.244-0.492-0.736-0.746-0.616
		C359.068,326.732,359.068,327.1,359.068,327.349L359.068,327.349L359.068,327.349L359.068,327.349L359.068,327.349z
		 M347.348,312.671c0,0,0.12,2.093,2.095,5.178c0.497,0.617,6.168,8.022,6.292,9.132c0,1.354-0.742,2.343-0.99,3.084
		c-0.244,1.357,0.741,5.303,2.84,5.675c0.617,0.12,1.846-0.373,1.976-1.605c0.248-1.357-2.099-4.443-1.976-5.919
		c0.124-1.483,0.865-2.344,2.224-2.225c1.229,0.125,3.572,1.604,3.572,2.1c0,0.125-0.86-0.124-0.985-0.124
		c-0.492,0-1.229,0.249-1.478,0.985c-0.373,1.357,1.478,2.963,2.588,4.318c1.973,2.222,1.973,4.935,1.356,7.157
		c-0.735,2.219-3.825,2.219-4.438,2.836c-0.368,0.373,0,1.357,0,1.357l-0.498,0.372c0,0-0.367-1.356-1.478-1.729
		c-2.715-1.109-3.581-3.454-3.581-3.454l-2.343-0.492l0.865-0.496c0.12-0.125,0.12-0.617,0.12-0.617l-0.984,0.368
		c0,0-1.727,1.114-2.959,0.745c-0.985-0.248-1.603-2.59-1.603-2.59s1.233,0.616,2.219,0.616c0.488,0,1.604,0,1.728,0
		c0.248-0.124,0.492-0.867,0.492-0.867s-2.96,0.125-4.069-0.736c-1.482-1.238-1.233-3.208-1.233-3.208s1.109,0.619,1.851,0.862
		c0.741,0.125,1.971,0.492,2.343,0.492c0.494-0.12,0.494-0.616,0.494-0.616s-3.577-1.111-5.061-2.345
		c-1.481-1.356-0.984-3.7-0.984-3.7s3.083,2.716,5.551,3.457c0.245,0.12,0.618-0.616,0.618-0.616s-4.687-1.975-6.168-4.566
		c-0.861-1.482-0.368-3.333-0.368-3.333s1.105,2.467,5.675,5.677c0.368,0.247,0.985-0.249,0.985-0.249s-4.566-3.578-5.795-5.672
		c-1.487-2.591-0.249-4.565-0.249-4.565s0.985,3.207,6.044,8.514c0.368,0.493,0.989,0,0.989,0s-6.298-6.54-6.416-10.118
		C346.607,314.272,347.348,312.671,347.348,312.671L347.348,312.671L347.348,312.671L347.348,312.671z"/>
	<path d="M383.62,362.939c-0.172,0.347-0.346,0.732-0.501,1.174c-0.25,0.74-0.737,3.455-0.737,3.455s2.095,1.973,2.468,5.798
		c0.368,3.817,2.337,5.054,2.337,5.054s0.254-0.245,0.373-0.245c0.249,0,0.497-0.368,0.497-0.368s0.488,0.245,0.737,0.488
		c0.248,0.373,0.742,1.98,0.742,1.98l4.688,1.354c0,0,0.861-2.344,0.861-4.195c0-2.834-0.741-3.824-0.741-3.824
		s-1.607,0.99-1.851,0.256c-0.244-0.747,1.238-1.116,1.238-1.116s-0.369-0.864-0.747-1.231c-0.249-0.373-2.343-1.727-2.958-2.35
		c-0.861-0.984-1.11-1.727-1.11-1.727s1.358-0.616,3.209-0.367c0.859,0.119,4.811,0.615,4.811,0.615s1.236,1.604,2.224,2.838
		c0.74,0.863,2.463,2.347,2.586,2.591c0.125,0.249,0.249,8.759-0.491,9.5c-0.492,0.616-1.727,1.851-2.343,2.1
		c-2.961,0.613-6.175,1.603-6.175,1.603s0.498,1.48,0.129,2.218c-0.864,1.358-2.223,1.239-2.223,1.239l-0.491,2.959l-2.967,0.244
		c0,0-2.218,7.774-2.218,7.896c-0.739,2.591,0.124,3.7,0.124,3.7s-4.441,1.975-19.116,2.1c-0.04,0-0.083,0.005-0.124,0.005v1.473
		c0.041,0,0.084,0,0.124,0c12.332,0,19.733-2.468,19.733-2.468s1.729,1.979,4.442,2.965c2.343,0.865,6.659,1.358,6.659,1.358
		l0.125,4.067c0,0,3.452-0.735,3.084-2.715c-0.368-1.977-2.837-2.464-2.837-2.464s-5.556-0.745-6.664-1.356
		c-3.576-1.73-4.441-2.841-4.687-4.567c-0.124-0.983,2.344-9.007,2.344-9.007c0.616,0,1.113-0.125,1.607-0.125l0.119,0.125
		l-0.249,1.357c0,0,1.974,0.25,3.211,0.373c1.105,0,3.21-0.373,3.21-0.373s6.287,2.343,8.76,2.592
		c3.207,0.249,9.251-0.866,9.251-0.866l0.249,0.249c0,0-0.249,0.497-0.498,0.736c-0.248,0.249-1.479,0.249-1.479,0.249l-1.603,4.564
		c0,0,2.963,0.865,4.812,0.99c1.725,0,4.196-0.373,4.196-0.373l0.119-3.332c0,0,0.249-0.737,0.864-0.737
		c0.619,0,1.11,0.618,1.11,0.618s0.367-0.368,0.492-0.743c0.243-0.371,0.367-0.987,0.367-0.987l2.226,0.864l0.619,8.885
		c0,0,0,1.727-0.74,2.219c-1.482,1.109-3.088-0.119-6.909-0.492c-3.576-0.374-7.281,1.603-7.281,1.603l-0.124-0.244l0.621-4.198
		c0,0,5.298-0.735,6.288-0.735c2.84-0.125,3.95,0.735,3.95,0.735l-0.494,2.224c0,0,3.332,1.233,3.576-0.611
		c0.248-1.979-2.343-2.721-3.949-3.088c-2.466-0.617-6.536-0.125-7.402,0c-0.987,0.124-3.576,0.615-6.907,0.492
		c-7.276,0-14.928-3.825-15.669-4.073c-0.734-0.12-2.215-1.105-3.334,0.621c-0.983,1.725,2.351,3.202,2.351,3.202l0.492-2.592
		c0,0,0.615-0.244,4.935,1.852l4.445,1.238c0,0,2.215,4.935,1.354,6.785c-0.741,1.851-6.537,3.452-11.969,4.687
		c-4.181,1.077-12.985,2.385-22.941,2.239l-0.005,1.331c0.732,0.016,1.474,0.016,2.225,0.01c4.315-0.124,10.36-0.497,15.792-1.358
		c5.553-0.989,9.372-2.098,10.237-2.222c2.468-0.618,8.387-2.097,8.263-5.924c0-0.862-1.481-5.056-1.481-5.056
		s3.581,0.492,4.565,0.616c2.348,0,4.57-0.373,4.57-0.373l-0.989,7.033c0,0,3.329-2.71,7.277-2.959
		c3.457-0.125,6.904,1.481,8.637,0.736c1.726-0.736,1.851-2.831,1.851-2.831l-0.617-10.486l-3.458-1.362c0,0,0.254-3.695,0.621-4.81
		c0.865-2.343,3.086-3.578,3.086-3.578s-1.357-2.099-1.853-3.699c-0.249-0.989-0.368-2.593-0.368-2.593s2.221-1.975,2.589-2.342
		c1.108-1.109,1.973-2.842,1.973-2.842l6.787,2.226c0,0,0.736-2.101,0.859-3.332c0-0.121,0.373-3.453-2.468-6.537
		c-2.71-2.841-7.649-2.468-7.649-2.468l-1.723-2.094c0,0-0.249,0.119-0.492,0.119c-0.233-0.115-2.44-1.105-4.144-2.15l-2.411-0.008
		c0.907,0.693,1.894,1.377,2.851,1.914c0.741,0.492,2.218,0.984,2.835,1.108c0.377,0.125,0.62,0.368,0.62,0.368
		s3.821,2.592,3.821,8.145c0.129,4.315-4.812,7.152-4.812,7.152s0,0.988,0.13,1.854c0.119,0.861,0.488,1.848,0.488,1.848
		c0.128,0.988,1.236,2.962,1.236,2.962s-1.726,1.111-2.714,4.07c-0.616,1.603-0.616,5.184-0.616,5.432
		c0,0.12-0.249,0.488-0.249,0.488l0,0l0,0c0,0-0.37-0.249-1.354-0.119c-0.623,0.119-0.991,1.232-0.991,1.232l-0.371,2.96
		c0,0-1.727,0.25-2.834,0.125c-1.479-0.125-2.838-0.621-2.838-0.621c0.124-0.488,0.243-0.985,0.492-1.479
		c0.119-0.367,0.249-0.734,0.368-1.109c0,0,1.978-0.248,2.226-1.726c0.123-0.622-0.498-1.356-0.498-1.356s0.25-0.374,0.498-0.866
		c0-0.244,2.586-2.711,2.957-3.084c0.248-0.368,1.233-2.835,0.616-4.07c-0.739-1.85-3.33-1.729-3.33-1.729s0.124-0.367,0-0.736
		c0-0.248-0.243-0.617-0.741-1.109c-0.363-0.496-2.588-2.344-3.208-6.173c-0.736-4.437,1.112-7.153,1.112-7.153l-1.112-0.617
		c0,0-0.736,1.603-0.98,2.349c-0.248,0.867-0.372,2.468-0.372,2.468c-4.935-1.238-7.9-3.458-7.9-3.458
		c-2.705-2.097-4.562-4.438-4.562-4.438s1.234-0.128,1.606-0.128c0.368,0,1.479,0.128,1.479,0.128l0.616-3.581l-1.357-0.243
		c0,0-0.248,2.463-0.616,2.463c-2.225,0.124-7.402-0.368-8.145-0.493c-0.118,0-3.332,0.249-3.699,0.374c0,0-0.494,0.984-0.494,1.48
		c0,0.612,0.373,1.354,0.861,1.972c0.373,0.369,3.214,2.835,3.214,2.835s-1.114,0.866-0.741,1.976
		c0.368,1.113,2.469,0.989,2.469,0.989s0.366,0.493,0.366,2.466c-0.118,1.11-0.487,2.346-0.487,2.346l-2.603-0.741
		c0,0-0.733-2.226-1.472-2.593c-0.616-0.244-1.607-0.124-1.731-0.124c0,0-1.228-1.478-1.228-1.976
		c-0.13-0.367-0.373-2.834-0.373-3.203c-0.125-0.617-1.109-2.715-1.233-3.084c-0.249-0.373-0.861-1.109-0.989-1.357
		c0-0.217,0.663-2.887,1.406-4.131L383.62,362.939L383.62,362.939L383.62,362.939L383.62,362.939z M430.125,376.45L430.125,376.45
		c0,0,0.617-0.985,0.244-2.101c-0.244-0.74-1.483-1.603-1.483-1.603s-0.237-1.356-0.616-2.343c-0.118-0.371-0.984-1.975-0.984-1.975
		s3.824-0.742,6.416,2.959c2.225,3.209,0.984,6.293,0.984,6.293L430.125,376.45L430.125,376.45L430.125,376.45L430.125,376.45z
		 M407.546,377.434L407.546,377.434l3.453,1.729c0,0,0.249,0.865,0.373,1.357c0.12,0.373,0.368,0.989,0.368,0.989
		s-1.853,0.74-3.08,2.22c-1.238,1.603-1.238,3.084-1.238,3.084s-3.203,0.863-5.184,2.094c-1.477,0.869-2.586,2.224-2.586,2.224
		l-1.731-1.233c0,0-1.229,0.496-1.478,1.728c-0.124,0.739-0.243,2.218-0.243,2.218s-1.482,0.498-2.229,0.498
		c-0.985,0-2.464-0.248-2.464-0.248l0.618-3.328c0,0,1.606-0.369,1.975-1.481c0.367-0.987,0.244-2.22,0.244-2.22
		s0.372-0.373,3.828-0.742c0.12,0,4.064-1.48,4.683-3.949c0.249-1.107,0.124-4.686,0.124-5.428
		c-0.124-1.601,0.374-2.838,0.374-2.838s2.094,1.237,2.344,1.482c0.248,0.123,2.098,0.738,2.098,0.738L407.546,377.434
		L407.546,377.434L407.546,377.434L407.546,377.434z M413.719,396.064L413.719,396.064c0,0-5.427,0.858-7.896,0.858
		c-2.35-0.119-7.647-2.095-7.647-2.095s-0.621-0.739-0.496-1.85c0-0.617,0.367-1.357,0.367-1.357s0.746,0.367,0.867,0.615
		c0.119,0.25,0.616,0.742,0.616,0.742s1.108-1.727,4.935-3.576c2.463-1.235,4.197-1.235,4.197-1.235s-0.368-2.097,0.984-3.7
		c1.604-1.851,2.593-1.73,2.593-1.73s2.099,2.47,2.467,3.209c0.249,0.742,0.741,1.975,0.741,1.975s0.86-0.372,1.598-0.12
		c0.741,0.244,1.357,1.728,1.237,2.468c-0.368,1.354-2.466,3.084-3.083,3.697C414.456,394.585,413.719,396.064,413.719,396.064
		L413.719,396.064L413.719,396.064L413.719,396.064z"/>
	<path d="M383.62,362.939c0.502-0.994,0.979-1.541,0.979-1.541s6.162-0.86,7.158-1.109c0.611-0.119,0.736-0.617,0.736-0.617
		s-0.368-3.333-0.368-5.432c0-0.985,0-6.044,0-6.044s-1.109-0.741-1.364-0.984c-0.242-0.125-1.472-0.866-1.472-0.866
		s-1.234,0.497-1.482,0.617c-1.108,0.622-1.605,0.741-1.605,0.741l-0.492-1.358l-1.233,0.985c0,0-1.728-0.612-3.328-1.722
		c-1.481-1.113-1.975-1.854-1.975-1.854s-0.741,0.248-0.991,0.741c-0.241,0.496-0.365,1.357-0.365,1.357l-0.369-0.124
		c0,0-0.125,0.124,0,0.373c0,0.244,0.369,0.368,0.493,0.741l0,0c0,0.245-0.124,0.369-0.369,0.488c-0.372,0.125-0.497,0-0.497-0.368
		c0-0.12,0.248-0.737-0.492-0.861c-0.617-0.124-0.617,0.986-0.617,1.229c-0.124,0.125-0.74,0.254-0.858-0.243
		c0-0.125,0.49-0.493,0.367-0.861c-0.121-0.249-0.616-0.249-0.74-0.125c-0.243,0.125-0.243,0.368,0,0.861
		c0,0-0.243,0.125-0.373,0.125c-0.125,0.125-0.492,0-0.492-0.245c-0.121-0.249-0.121-0.99,0.492-1.234
		c0.746-0.124,1.236,0,1.48-0.124c0.373,0,0.621-0.244,0.621-0.244h-0.129c0,0,0.368-0.988,0.249-1.238
		c-0.12-0.125-1.477-0.497-1.606-0.497c-0.118-0.119-0.74-0.365-0.74-0.365l-1.848,0.737c0,0-0.615-0.243-0.863-0.492
		c-0.369-0.125-0.741-0.37-0.741-0.37s-0.125,0.489-0.125,0.618c0,0.12-0.487,0.368-0.736,0.368c-0.243,0-0.615-0.368-0.243-0.741
		c0.12-0.121,0.492,0.125,0.492-0.368c0-0.125-0.249-0.741-0.492-0.618c-0.372,0-0.372,0.369-0.372,0.741
		c0,0.245-0.119,0.37-0.368,0.37c-0.248,0-0.248-0.618-0.13-0.867c0.13-0.613,0.255-0.738,0.255-0.738s-0.125-0.247-0.373-0.247
		c-0.125,0-0.488,0.247-0.488,0.493c-0.129,0.373-0.378,0.617-0.622,0.373c-0.124-0.249-0.124-0.743,0.244-0.991
		c0.249-0.368,0.378-0.617,1.239-0.741c0.735,0,1.477,1.237,1.969,1.731c0.124,0,1.107,0.368,1.107,0.368l0.743-0.249
		c0,0-1.109-0.367-1.606-2.218c-0.368-1.481-0.244-2.344-0.244-2.344s-0.985,0.246-1.726-0.125
		c-1.233-0.491-1.976-1.232-2.593-1.478c-0.249-0.124-0.735-0.124-0.735-0.124s0.243,0.986,0.243,1.479
		c0.124,0.493-0.124,1.481-0.124,1.726c-0.061,0.411-0.146,0.768-0.243,1.081v-5.768c0.456,0.204,1.067,0.244,1.851-0.124
		c1.846-0.861,5.427-5.059,5.427-5.059s0.119,0.497,0,0.984c-0.373,0.87-1.854,2.349-2.473,3.213
		c-0.736,0.736-2.457,1.974-2.457,1.974s0.985,0.736,1.478,0.861c0.735,0.249,1.478-0.245,1.478-0.245s0.249-1.362,1.847-3.331
		c0.622-0.867,3.7-2.961,2.722-4.199c-0.497-0.737-2.1,0-2.1,0s-0.622,0.125-0.741-0.125c-0.249-0.244,0.119-0.612,0.119-0.612
		l1.855-1.602c0,0-0.124-4.566-1.855-4.691c-0.817-0.083-4.607,1.593-7.147,2.794v-1.247c0.041-0.019,0.084-0.047,0.124-0.064
		c0.859-0.373,5.178-2.224,5.178-2.224l0,0c0,0,0.983-1.358,1.108-2.591c0-0.492-0.616-1.969-0.616-1.969s-0.616,1.229-0.864,1.477
		c-0.233,0.358-3.692,4.279-4.93,4.995v-1.226c0.464-0.437,0.938-0.886,1.106-1.054c0.37-0.374,3.946-3.825,4.07-5.8
		c0.124-2.099-0.985-3.333-0.985-3.333s-0.124,0.867-0.615,1.976c-0.907,1.96-2.453,4.238-3.576,5.771v-1.761
		c0.05-0.075,0.092-0.135,0.124-0.185c2.095-3.458,2.96-3.945,2.96-7.403c-0.129-1.233-1.358-2.466-1.358-2.466s0,1.725-0.989,3.949
		c-0.146,0.305-0.408,0.755-0.735,1.303v-2.165c0.216-0.556,0.521-1.448,0.735-2.471c0.248-1.602-0.125-3.454-0.125-3.454
		s1.487,1.106,2.101,2.096c1.48,2.223,1.48,3.701,1.48,3.701s0.985,0.497,1.603,2.467c0.244,1.114,0.244,2.466,0.244,2.466
		s0.99,0.991,1.238,2.841c0.119,1.109-0.618,2.342-0.618,2.342s1.111-0.374,1.849,0.493c1.361,1.727,1.114,4.566,1.48,4.685
		c0.124,0.129,1.358-0.736,2.343-0.493c2.349,0.493,2.349,2.47,2.468,2.966c0.125,1.233-1.478,3.824-1.726,4.687
		c-0.249,0.864-0.743,1.356,0.123,1.849c0.742,0.493,1.359-0.248,1.728-0.865c0.372-0.616,1.605-2.837,0.983-4.194
		c-0.611-1.109-0.859-1.357-0.859-2.343c0-1.478,1.601-3.452,2.22-4.317c0.616-0.985,4.564-6.044,5.799-9.253
		c0.618-1.601,0.618-3.826,0.618-3.826s0.86,1.11,1.108,1.727c0.74,1.975,0.983,4.073,0.983,4.073s0.866,1.11,0.989,2.712
		c0.248,1.602-0.123,2.84-0.123,2.84s0.491,0.86,0.619,1.975c0,1.968-1.112,3.083-0.987,3.083c0,0,0.368,1.479,0.243,2.463
		c0,1.726-1.353,3.212-1.353,3.212s0,1.354-0.256,2.219c-0.117,0.736-0.609,1.725-0.609,1.725s-0.248,1.359-0.367,2.221
		c-0.13,0.492-0.867,1.357-0.867,1.357s2.591,1.606,3.7,2.468c1.234,0.866,4.194,1.85,4.194,1.85s0.372-2.22,0.372-3.084
		c0-0.861-0.492-1.478-0.492-1.478s0.617-0.745,0.984-1.113c0,0,0.119-0.37-0.125-0.493c-0.491-0.124-1.232-0.124-1.969-0.737
		c-0.742-0.618-1.73-2.224-1.73-2.224l3.575-1.232l-0.984-1.36c0,0,0.741-0.119,0.984-0.119c0.492,0,1.604,0.611,1.979,0.738
		c0.244,0,0.364-0.126,0.364-0.126l-0.981-1.477c0,0,2.091-0.493,3.204-0.25c0.243,0,1.232,0.125,1.854,0.374
		c0.613,0.246,1.479,1.234,1.599,1.234c0-0.124,0.498-0.492,0.498-0.864c-0.124-0.494,0.493-0.867,0.493-0.867
		s0.119,0.124,0.368,0.248c0.738,0.249,4.191,0.495,8.76,4.691c0.616,0.616,2.834,3.329,3.699,7.154c0,0,0.616,4.317,0.123,7.645
		c0,0.128-0.248,1.851-1.108,4.074c-0.864,1.969-1.854,3.943-1.854,3.943l-2.588-1.108c0,0-0.248,0.125-0.248,0.373
		c0.248,0.492,2.594,2.349,2.594,2.349c2.098,1.969,3.451,2.585,3.451,2.585c0.097,0.062,0.202,0.126,0.301,0.188l-2.409-0.002
		c-2.017-1.533-3.683-3.136-3.937-3.394c-0.616-0.618-1.602-2.099-1.602-2.099s3.084-4.935,3.084-8.884
		c0-1.722,0.125-6.782-2.219-10.237c-2.593-3.701-6.296-4.193-6.296-4.193v0.368l0.367,0.492l-1.479,0.129
		c0,0-0.736-1.854-1.846-2.592c-1.482-0.864-2.472-0.373-2.472-0.373l1.975,2.836h-1.481l-1.108-1.476l-4.688,1.849
		c0,0,0.865,0.865,0.985,0.865c0.248,0.244,0.983,0.369,0.983,0.369l0.248-0.99l1.483-0.244c0,0-0.12,0.244-0.12,0.493
		c-0.248,0.372-0.377,1.482-0.377,1.974c-0.119,0.494-0.986,1.727-0.986,1.727s0.369,0.989,0.249,2.222
		c0,0.125-0.741,3.081-0.865,3.329c0,0.249-0.367,1.114-0.49,1.358c-0.125,1.115,0.372,1.358,0.49,1.602
		c0.249,0.249,0.745,1.115,1.483,1.483c0.248,0.249,0.74,0.125,0.988-0.368c0.121-0.497,0.121-1.731,0.121-1.731
		s0.859-0.368,0.988-0.125c0.12,0.254-0.372,0.99-0.372,0.99l-0.248,0.985c0,0,0.62,0,0.864-0.119
		c0.248-0.124,0.864-0.622,0.864-0.622s0.617-1.722,0.86-1.971c0.125-0.249,0.622-1.85,0.622-1.85s1.354-0.125,2.468-1.482
		c1.229-1.48,1.107-2.96,1.107-2.96h0.865c0,0,0,1.48-0.497,2.467c-0.124,0.125-0.368,0.618-0.738,0.986
		c-0.493,0.498-1.109,0.989-1.109,0.989s-0.368,1.85-0.986,2.84c0,0.12-0.99,1.846-2.224,2.955c0,0.128-0.864,1.113-1.605,1.486
		c0,0-0.368-0.125-1.722,0.364c-0.129,0-0.986,0.497-1.851,1.238c-0.866,0.985-1.727,2.098-1.727,2.098
		c-1.851,2.095-1.357,3.697-1.357,3.697l1.357-0.493c0,0,0-1.109,0.367-1.851c0.492-1.232,1.358-1.606,1.358-1.606l1.231,0.622
		c0,0-0.864,0.12-1.48,1.606c-0.492,0.981,0.124,1.971,0.124,1.971s-1.233,0.736-3.451,1.234c-0.369,0.119-1.976,0.492-3.457,0.862
		c-2.221,0.369-4.687,0.612-4.811,0.737c-0.11,0.111-0.218,0.259-0.323,0.438L383.62,362.939L383.62,362.939L383.62,362.939
		L383.62,362.939z M365.853,327.75c0.687-0.326,1.354-0.649,1.354-0.649c1.234-0.492,3.824-2.219,3.824-2.219l0,0
		c0,0,0,0.86-0.248,1.358c-0.369,0.547-3.217,1.966-4.93,2.822L365.853,327.75L365.853,327.75L365.853,327.75L365.853,327.75z
		 M365.853,331.824c2.241-1.336,5.92-4.351,5.92-4.351s0.118,0.617-0.125,1.11c-0.492,0.985-3.083,2.715-3.327,2.839
		c-0.922,0.793-1.81,1.35-2.468,1.704V331.824L365.853,331.824L365.853,331.824L365.853,331.824z M365.853,344.091
		c0.088,0.022,0.171,0.037,0.244,0.037c0.492,0,1.357-0.249,1.727-0.125c0.497,0.125,0.741,0.25,0.741,0.25
		c0.497,0.492,0.621,0.988,0.621,1.725c0,0.368-0.248,0.617-0.378,0.617c-0.243,0-0.243-0.125-0.243-0.368c0-0.125,0-0.373,0-0.617
		c0-0.124-0.244-0.617-0.363-0.617c-0.129,0-0.249,0.12-0.249,0.12s0,0.497-0.129,0.866c-0.119,0.249-0.244,0.617-0.492,0.492
		c-0.245,0-0.245-0.244-0.245-0.492c0-0.125,0.245-0.249,0.245-0.493c0-0.244-0.124-0.621-0.37-0.621
		c-0.247,0-0.496,0.248-0.496,0.621c0,0.244,0.249,0.244,0.249,0.368c0,0,0.124,0.373,0,0.493c0,0-0.249,0-0.492,0
		c0,0-0.221-0.275-0.368-0.57v-0.598c0.068-0.08,0.124-0.105,0.124-0.185c0-0.073-0.04-0.101-0.124-0.114L365.853,344.091
		L365.853,344.091L365.853,344.091L365.853,344.091z M401.379,340.302l-0.741-0.865v-1.233c0,0-0.487,0.368-0.615,0.617
		c-0.369,0.249-0.613,1.113-0.613,1.113l0.364,0.861l-0.364,2.223l0.492-0.497l0.368-1.229L401.379,340.302L401.379,340.302
		L401.379,340.302L401.379,340.302L401.379,340.302z M398.791,346.346v-0.617l-0.617,0.124l-0.253,0.741l0.124,0.369
		L398.791,346.346L398.791,346.346L398.791,346.346L398.791,346.346z M401.379,350.171L401.379,350.171c0,0-0.368,0.496-1.109,0.865
		c-0.368,0.124-1.479,0.244-1.479,0.244l-0.129-0.492L401.379,350.171L401.379,350.171L401.379,350.171L401.379,350.171z
		 M407.298,332.283L407.298,332.283c0,0,4.194,0.743,7.281,4.073c3.333,3.577,3.949,7.771,3.821,10.974
		c-0.12,5.681-2.462,9.505-2.462,9.505l-1.482-0.621c0,0,0.989-2.586,1.482-5.055c0.367-1.729,0.367-3.456,0.367-4.073
		c0.249-6.537-2.588-9.376-2.588-9.376c-2.103-3.453-6.665-4.561-6.665-4.561s-0.128-0.125,0-0.373L407.298,332.283L407.298,332.283
		L407.298,332.283L407.298,332.283L407.298,332.283z M393.604,356.463L393.604,356.463c0,0-0.239-2.591-0.239-3.084
		c0-0.617-0.129-5.308-0.129-5.308l0.129-0.487c0,0-0.627-0.373-1.237-0.99c-0.25-0.249-1.975-1.85-3.209-1.482
		c-0.243,0-1.73,0.866-1.73,0.866s-0.119-0.866-0.487-1.114c-0.248-0.368-0.74-0.244-0.74-0.244s-0.492,0.244-0.617,0.492
		c-0.373,0.373-1.112,0.617-1.112,0.617s-1.479-0.488-1.973-0.865c-0.367-0.244-1.605-1.228-1.605-1.228s0.249-0.373,0.374-0.494
		c0.247-0.372,1.476-1.73,2.342-1.73c0.369,0,0.741,0.991,2.593,0.372c0,0,0.492-0.247,0.373-1.112c0-0.12,2.343-0.12,2.343-0.12
		s0.616,0.861,3.327,2.467c0.368,0.37,4.074,2.094,4.198,2.224c0,0.244-0.616,1.477-0.373,2.463
		c0.249,0.492,1.481,1.975,1.726,2.348c0.125,0.243,0.492,1.477,0.492,1.477s-1.231,0.861-2.218,1.972
		C394.842,354.614,393.604,356.463,393.604,356.463L393.604,356.463L393.604,356.463L393.604,356.463L393.604,356.463z
		 M378.183,327.473c0-0.373,0-0.617-0.365-0.741c-0.245-0.124-0.742,0.368-0.742,0.617c0,0.37,0.248,0.866,0.617,0.741
		C377.94,328.09,378.183,327.843,378.183,327.473L378.183,327.473L378.183,327.473L378.183,327.473L378.183,327.473z
		 M389.904,312.79L389.904,312.79c0,0,0.739,1.606,0.739,3.083c-0.124,3.581-6.416,10.117-6.416,10.117s0.621,0.498,0.989,0
		c5.06-5.302,6.044-8.51,6.044-8.51s1.233,1.974-0.369,4.566c-1.106,2.094-5.675,5.547-5.675,5.547s0.616,0.621,0.86,0.372
		c4.685-3.209,5.799-5.676,5.799-5.676s0.493,1.851-0.368,3.332c-1.479,2.593-6.167,4.562-6.167,4.562s0.368,0.616,0.617,0.616
		c2.467-0.736,5.55-3.452,5.55-3.452s0.493,2.343-1.111,3.7c-1.354,1.234-4.931,2.345-4.931,2.345s0,0.492,0.492,0.616
		c0.373,0,1.601-0.369,2.347-0.492c0.736-0.249,1.848-0.868,1.848-0.868s0.244,1.976-1.234,3.209
		c-1.109,0.866-4.068,0.741-4.068,0.741s0.243,0.741,0.492,0.865c0.125,0,1.233,0,1.727,0c0.988,0,2.1-0.617,2.1-0.617
		s-0.492,2.342-1.483,2.587c-1.352,0.372-2.958-0.865-2.958-0.865l-0.989-0.244v0.493c0.128,0.124,0.989,0.616,0.989,0.616
		l-2.344,0.497c0,0-0.866,2.343-3.577,3.454c-1.112,0.368-1.481,1.725-1.481,1.725l-0.493-0.367c0,0,0.37-0.989,0-1.357
		c-0.615-0.618-3.699-0.618-4.441-2.837c-0.615-2.222-0.615-4.939,1.358-7.156c1.11-1.354,2.955-2.961,2.587-4.319
		c-0.249-0.74-0.979-0.984-1.477-0.984c-0.124,0-0.989,0.245-0.989,0.125c0-0.497,2.347-2.1,3.58-2.1
		c1.229-0.125,2.096,0.741,2.219,2.22c0,1.481-2.219,4.567-1.975,5.923c0.125,1.233,1.356,1.725,1.975,1.602
		c2.094-0.369,3.083-4.317,2.834-5.675c-0.243-0.737-0.984-1.726-0.984-3.085c0.125-1.109,5.802-8.51,6.168-9.127
		C389.655,314.889,389.904,312.79,389.904,312.79L389.904,312.79L389.904,312.79L389.904,312.79z"/>
	<path d="M354.009,383.109c0,0,1.354-1.85,3.084-2.219c2.468-0.615,3.695,0.244,3.695,0.244s-1.229,1.602-3.079,2.219
		C355.859,383.852,354.009,383.109,354.009,383.109L354.009,383.109L354.009,383.109L354.009,383.109L354.009,383.109z
		 M360.177,387.18c0,0,0.368-2.587,1.851-3.826c2.221-1.845,3.701-1.725,3.701-1.725s-0.125,2.342-1.85,3.949
		C362.521,387.061,360.177,387.18,360.177,387.18L360.177,387.18L360.177,387.18L360.177,387.18L360.177,387.18z M372.139,381.012
		c0,0,2.222-0.736,3.826-0.119c2.468,0.86,3.084,2.217,3.084,2.217s-1.975,0.742-3.942,0.244
		C373.379,382.736,372.139,381.012,372.139,381.012L372.139,381.012L372.139,381.012L372.139,381.012L372.139,381.012z
		 M372.633,387.676L372.633,387.676c0,0-2.344-0.371-3.825-1.849c-1.478-1.731-1.723-4.074-1.723-4.074s1.852-0.124,3.697,1.976
		C372.388,385.33,372.633,387.676,372.633,387.676L372.633,387.676L372.633,387.676L372.633,387.676L372.633,387.676z
		 M364.002,386.938c0,0,0.742-0.498,1.229-0.99c0.372-0.368,1.112-1.727,1.112-1.727s0.492,0.864,0.861,1.481
		c0.497,0.616,1.482,1.478,1.482,1.478s-0.617,1.233-0.985,1.727c-0.373,0.498-1.606,1.361-1.606,1.361s-0.864-0.621-1.353-1.481
		C364.127,387.92,364.002,386.938,364.002,386.938L364.002,386.938L364.002,386.938L364.002,386.938L364.002,386.938z
		 M364.494,393.84L364.494,393.84c0,0-0.739-0.488-1.233-0.859c-0.368-0.492-0.739-1.357-0.739-1.357s0.49-0.617,0.859-1.109
		c0.374-0.369,0.621-1.109,0.621-1.109s0.612,0.865,1.108,1.234c0.492,0.367,1.109,0.864,1.109,0.864s-0.368,0.86-0.617,1.108
		C365.479,392.854,364.494,393.84,364.494,393.84L364.494,393.84L364.494,393.84L364.494,393.84L364.494,393.84z M361.534,391.254
		c0,0-0.368-0.74-0.746-1.729c-0.119-0.494-0.119-1.481-0.119-1.481s0.497,0,0.984-0.124c0.618-0.244,1.486-0.615,1.486-0.615
		l0.24,0.739c0,0-0.369,1.235-0.737,1.731C362.396,390.02,361.534,391.254,361.534,391.254L361.534,391.254L361.534,391.254
		L361.534,391.254L361.534,391.254z M365.11,394.338c0.492-0.498,1.109-1.115,1.109-1.115c0.616,0.742,1.109,0.99,1.109,0.99
		c-0.493,0.741-1.233,0.989-1.233,0.989C365.479,394.829,365.11,394.338,365.11,394.338L365.11,394.338L365.11,394.338
		L365.11,394.338L365.11,394.338z M366.713,392.611c0.617-0.864,0.99-2.1,0.99-2.1c0.497-0.494,0.737-0.986,0.737-0.986
		c0.366,1.234,1.479,2.222,1.356,2.222c-0.249,1.476-1.479,2.343-1.479,2.343C367.578,393.471,366.713,392.611,366.713,392.611
		L366.713,392.611L366.713,392.611L366.713,392.611L366.713,392.611z M369.43,387.676c1.478,0.737,2.461,0.86,2.461,0.86
		c-0.118,1.978-1.232,3.086-1.232,3.086c-1.353-1.847-1.473-3.209-1.473-3.209C369.306,388.044,369.43,387.676,369.43,387.676
		L369.43,387.676L369.43,387.676L369.43,387.676L369.43,387.676z M369.798,381.136c-0.492-0.368-1.598-0.741-1.598-0.741
		c-0.129-0.119-0.129-0.242-0.129-0.242c0.248-1.11,1.233-0.99,1.233-1.11c0.492,0,1.232,1.479,1.232,1.479
		C369.921,380.893,369.798,381.136,369.798,381.136L369.798,381.136L369.798,381.136L369.798,381.136L369.798,381.136z
		 M370.906,381.876l0.248-0.123c0,0,0.249,0.368,0.249,0.74c0,0-0.129-0.125-0.249-0.372
		C371.03,381.996,370.906,381.876,370.906,381.876L370.906,381.876L370.906,381.876L370.906,381.876L370.906,381.876z
		 M372.757,383.354c1.358,1.114,3.084,0.99,3.084,1.114c0.621,1.851-0.367,3.452-0.367,3.452c-0.864,0-1.851-0.372-1.851-0.372
		c0-1.478-0.866-3.08-0.866-3.08C372.882,384.096,372.757,383.354,372.757,383.354L372.757,383.354L372.757,383.354L372.757,383.354
		L372.757,383.354z M376.701,384.344c1.606-0.123,2.348-0.492,2.348-0.373c0.742,1.359,0.494,2.842,0.494,2.842
		c-2.344-0.984-2.714-1.728-2.714-1.728C376.701,384.717,376.701,384.344,376.701,384.344L376.701,384.344L376.701,384.344
		L376.701,384.344L376.701,384.344z M375.841,388.904c1.109-1.356,0.988-2.586,0.988-2.586c0.742,0.742,2.22,1.229,2.22,1.229
		c0.125,1.482-0.74,2.471-0.74,2.471C376.214,389.525,375.841,388.904,375.841,388.904L375.841,388.904L375.841,388.904
		L375.841,388.904L375.841,388.904z M373.379,388.785l0.367,0.119v-0.244l0.613,0.125c0.497,0.617,1.604,1.357,1.604,1.357
		c-0.243,0.861-0.612,1.728-0.612,1.728c-1.36-0.123-2.223-1.233-2.223-1.233C373.498,389.279,373.379,388.785,373.379,388.785
		L373.379,388.785L373.379,388.785L373.379,388.785L373.379,388.785z M376.701,390.393l1.356,0.368c0,0.368-0.486,1.109-0.486,1.109
		c-0.621,0.118-1.357-0.248-1.357-0.248C376.462,391.005,376.701,390.393,376.701,390.393L376.701,390.393L376.701,390.393
		L376.701,390.393L376.701,390.393z M354.009,383.971c0.861,0.373,2.338,0.373,2.338,0.373c-0.118,0.249-0.118,0.741-0.118,0.741
		c-0.741,0.985-2.717,1.728-2.717,1.728C353.272,385.085,354.009,383.971,354.009,383.971L354.009,383.971L354.009,383.971
		L354.009,383.971L354.009,383.971z M357.217,384.468c2.214-0.247,3.079-1.114,3.079-1.114c-0.119,0.25-0.119,0.498-0.119,0.498
		c-1.232,2.096-1.232,3.824-1.232,3.824c-0.374,0.244-1.359,0.244-1.359,0.244C356.596,386.318,357.093,384.468,357.217,384.468
		L357.217,384.468L357.217,384.468L357.217,384.468L357.217,384.468z M354.009,387.548c1.727-0.735,2.219-1.229,2.219-1.229
		c-0.119,1.357,0.99,2.588,0.865,2.588c-0.746,0.869-2.467,1.236-2.467,1.236C353.76,388.66,354.009,387.548,354.009,387.548
		L354.009,387.548L354.009,387.548L354.009,387.548L354.009,387.548z M354.993,390.761c0.866-0.247,1.354-0.493,1.354-0.368
		c0.129,0.368,0.498,1.229,0.498,1.229c-0.735,0.367-1.357,0.248-1.482,0.248C355.118,391.622,354.993,390.761,354.993,390.761
		L354.993,390.761L354.993,390.761L354.993,390.761L354.993,390.761z M357.093,390.143c0.616-0.367,1.607-1.356,1.607-1.356
		c0.244,0,0.73-0.249,0.73-0.249c0,0.743,0.497,2.102,0.497,2.102c-1.107,1.232-2.343,1.232-2.343,1.232
		C357.709,391.87,357.093,390.143,357.093,390.143L357.093,390.143L357.093,390.143L357.093,390.143L357.093,390.143z
		 M361.653,381.996l0.124-0.243l0.125,0.123L361.653,381.996L361.653,381.996L361.653,381.996L361.653,381.996z M362.521,380.52
		c0,0,0.619-0.985,0.739-1.108c0.245-0.493,0.986-0.249,1.233,0c0.616,0.368,0.493,0.864,0.493,0.864
		c-1.108,0.244-1.848,0.736-1.848,0.736L362.521,380.52L362.521,380.52L362.521,380.52L362.521,380.52L362.521,380.52z
		 M353.023,383.604L353.023,383.604c0,0-1.113,1.976-0.373,4.316l0.373-0.12c0,0,0,0.86,0.249,1.847
		c0.119,0.746,0.611,1.358,0.611,1.358l0.369-0.124c0,0,0,0.373,0.249,0.741c0.124,0.491,0.492,0.989,0.492,0.989s0.368,0,0.99,0
		c0.492-0.124,0.984-0.249,0.984-0.249l0.124,0.372c0,0,0.741,0,1.728-0.247c0.61-0.249,1.237-0.617,1.237-0.617l0.119,0.492
		l0.492-0.249l0.616,0.74l0.368-0.366c0,0,0.249,0.491,0.989,1.478c0.862,0.989,1.483,1.237,1.483,1.237l0.367-0.248
		c0,0,0.493,0.492,0.616,0.618c0.367,0.367,0.865,0.616,0.865,0.616s0.612-0.249,0.983-0.616c0.246-0.126,0.862-0.618,0.862-0.618
		l0.378,0.248c0,0,0.735-0.373,1.478-1.112c0.611-0.619,0.86-1.354,0.86-1.354l0.492,0.486l0.984-1.232l0.866,0.373l0.119-0.492
		c0,0,0.622,0.368,1.357,0.617c0.616,0.248,1.481,0.248,1.481,0.248l0.243-0.373c0,0,0.13,0.125,0.745,0.125
		c0.245,0.123,1.229,0.123,1.229,0.123s0.374-0.74,0.498-0.863c0-0.125,0.248-0.866,0.248-0.866l0.369,0.124
		c0,0,0.492-0.861,0.617-1.727c0.248-0.742,0.125-1.479,0.125-1.479l0.492,0.12c0,0,0.366-1.231,0.241-1.974
		c-0.119-1.229-0.61-2.344-0.61-2.344l0.369-0.119c0,0-1.114-2.348-4.194-3.705c-2.347-0.986-4.812,0.248-4.812,0.248
		s-0.864-2.101-2.218-1.976c-1.481,0.123-1.979,1.481-1.979,1.481v-1.238h-1.229v1.855h-0.124c0,0-0.249-1.977-2.098-2.1
		c-1.359-0.244-2.103,1.977-2.103,1.977s-2.093-1.235-5.058-0.121c-2.463,0.861-4.069,3.576-4.069,3.576L353.023,383.604
		L353.023,383.604L353.023,383.604z"/>
	<path d="M359.713,356.478c0-2.296,0-3.034-2.666-3.034v-0.51h9.877c6.644,0,6.644,4.087,6.644,4.652
		c0,2.611-2.242,3.666-4.313,4.148v0.055c2.665,0.512,5.308,1.648,5.308,4.822c0,1.932-1.505,5.115-8.263,5.115h-9.251v-0.512
		c2.666,0,2.666-0.738,2.666-3.042L359.713,356.478L359.713,356.478L359.713,356.478z M364.085,361.389
		c3.467,0,4.828-1.356,4.828-3.714c0-0.856-0.341-3.665-4.032-3.665h-0.796V361.389L364.085,361.389L364.085,361.389z
		 M364.085,368.855c0,1.308,0.285,1.789,1.587,1.789c2.33,0,3.891-1.646,3.891-3.916c0-1.139-0.28-4.258-4.625-4.258h-0.853V368.855
		L364.085,368.855z"/>
	<path d="M344.596,415.902c0.558-0.061,0.874-0.102,0.874-0.704v-4.819c0-0.653-0.418-0.677-0.874-0.703v-0.249h3.07
		c0.557,0,2.592,0.036,2.592,1.592c0,1.104-1.128,1.362-1.542,1.486v0.024c0.833,0.143,1.878,0.64,1.878,1.771
		c0,0.836-0.694,1.81-2.794,1.851h-3.203L344.596,415.902L344.596,415.902L344.596,415.902z M347.059,412.441
		c1.334,0,1.556-0.42,1.556-1.434c0-0.693-0.222-1.283-1.026-1.283c-0.506,0-0.516,0.26-0.529,0.482V412.441L347.059,412.441
		L347.059,412.441z M347.059,415.227c0,0.45,0.185,0.606,0.604,0.606c1.091,0,1.225-0.884,1.225-1.496
		c0-1.421-0.879-1.569-1.523-1.601h-0.304L347.059,415.227L347.059,415.227z"/>
	<path d="M357.949,409.676c-0.548,0.077-0.778,0.188-0.778,0.846v3.172c0,0.59-0.139,1.475-0.557,1.92
		c-0.497,0.539-1.362,0.728-1.96,0.728c-0.438,0-1.372-0.06-2.021-0.626c-0.428-0.378-0.685-0.728-0.685-1.799v-3.325
		c0-0.837-0.258-0.854-0.815-0.914v-0.249h3.365v0.249c-0.658,0.026-0.966,0.034-0.966,0.914v3.325c0,0.561,0,1.942,1.431,1.942
		c1.75,0,1.772-1.53,1.772-2.165v-3.032c0-0.607-0.12-0.95-0.977-0.984v-0.249h2.191L357.949,409.676L357.949,409.676z"/>
	<path d="M365.271,416.151h-2.038l-2.062-3.116h-0.269v1.951c0,0.797,0.224,0.828,0.875,0.916v0.249h-3.364v-0.249
		c0.677-0.078,0.879-0.109,0.879-0.916v-4.396c0-0.854-0.313-0.88-0.879-0.914v-0.249h3.205c0.699,0,2.808,0.078,2.808,1.749
		c0,1.225-1.027,1.531-1.562,1.698l1.998,2.84c0.139,0.18,0.29,0.188,0.408,0.188L365.271,416.151L365.271,416.151L365.271,416.151z
		 M360.902,412.718c1.305-0.011,1.819-0.227,1.819-1.521c0-1.007-0.404-1.438-1.2-1.438c-0.551,0-0.571,0.111-0.619,0.42V412.718
		L360.902,412.718z"/>
	<path d="M372.854,413.547c-0.615,0.068-0.855,0.096-0.855,0.914v1.262c-0.479,0.34-1.822,0.617-2.688,0.617
		c-2.484,0-3.601-1.759-3.601-3.493c0-1.957,1.371-3.571,3.522-3.571c0.896,0,1.66,0.485,1.918,0.485
		c0.269,0,0.359-0.206,0.462-0.458h0.267v2.327h-0.249c-0.35-0.864-1.183-2.023-2.319-2.023c-1.439,0-1.837,1.51-1.837,3.221
		c0,0.71,0.061,3.187,1.938,3.187c0.875,0,1.036-0.299,1.036-0.727v-1.046c0-0.64-0.318-0.658-1.004-0.693V413.3h3.411
		L372.854,413.547L372.854,413.547z"/>
	<path d="M380.053,409.676c-0.544,0.077-0.769,0.188-0.769,0.846v3.172c0,0.59-0.145,1.475-0.562,1.92
		c-0.497,0.539-1.361,0.728-1.956,0.728c-0.442,0-1.377-0.06-2.023-0.626c-0.425-0.378-0.684-0.728-0.684-1.799v-3.325
		c0-0.837-0.262-0.854-0.818-0.914v-0.249h3.365v0.249c-0.66,0.026-0.969,0.034-0.969,0.914v3.325c0,0.561,0,1.942,1.433,1.942
		c1.754,0,1.771-1.53,1.771-2.165v-3.032c0-0.607-0.119-0.95-0.976-0.984v-0.249h2.187L380.053,409.676L380.053,409.676z"/>
	<path d="M389.429,416.151h-3.3v-0.249c0.595-0.061,0.884-0.088,0.884-0.745v-5.014h-0.022l-2.486,6.008h-0.266l-2.49-5.859h-0.018
		v4.626c0,0.694,0.179,0.939,1.003,0.984v0.249h-2.324v-0.249c0.771-0.069,0.9-0.222,0.9-0.796v-4.729
		c0-0.516-0.181-0.653-0.885-0.703v-0.249h2.52l1.987,4.694l1.989-4.694h2.508v0.249c-0.558,0.034-0.874,0.061-0.874,0.914v4.396
		c0,0.797,0.217,0.828,0.874,0.916V416.151L389.429,416.151z"/>
</g>
</svg>
