<?xml version="1.0" encoding="utf-8"?>
<!-- Generator: Adobe Illustrator 16.0.0, SVG Export Plug-In . SVG Version: 6.00 Build 0)  -->
<!DOCTYPE svg PUBLIC "-//W3C//DTD SVG 1.1//EN" "http://www.w3.org/Graphics/SVG/1.1/DTD/svg11.dtd">
<svg version="1.1" id="Ñëîé_1" xmlns="http://www.w3.org/2000/svg" xmlns:xlink="http://www.w3.org/1999/xlink" x="0px" y="0px"
	 width="322.601px" height="358.649px" viewBox="790.724 793.108 322.601 358.649"
	 enable-background="new 790.724 793.108 322.601 358.649" xml:space="preserve">
<g>
	<path fill="#23074D" d="M790.724,954.408L790.724,954.408c0,37.806,13.311,74.375,37.478,103.315
		c-3.232,2.877-20.606,18.341-20.606,18.341c-1.999,1.892-3.003,4.123-3.003,6.371c0,1.924,0.734,3.858,2.209,5.604l1.028,1.12
		l0.37,0.388c18.27,19.435,39.851,34.729,64.146,45.464c25.151,11.112,51.959,16.746,79.68,16.746
		c27.72,0,54.527-5.634,79.679-16.746c24.295-10.732,45.875-26.029,64.145-45.464c0.001,0,0.37-0.388,0.37-0.388l1.029-1.12
		c1.481-1.754,2.215-3.697,2.215-5.622c0-2.234-0.99-4.443-2.949-6.299c0,0-17.434-15.518-20.667-18.396
		c24.167-28.94,37.479-65.511,37.479-103.315c0-88.94-72.359-161.299-161.299-161.299
		C863.082,793.109,790.724,865.468,790.724,954.408z"/>
	<path fill="#FFFFFF" d="M952.023,1149.064c55.933,0,106.354-23.589,141.86-61.36c0.438-0.465,0.893-0.913,1.304-1.4
		c2.06-2.436,2.28-5.567-0.525-8.228l-22.541-20.062l0.023-0.035c23.981-27.788,38.485-63.986,38.485-103.571
		c0-87.595-71.013-158.606-158.606-158.606l0,0c-87.596,0-158.606,71.012-158.606,158.606c0,39.585,14.502,75.783,38.484,103.571
		l0.023,0.035l-22.541,20.062c-2.808,2.659-2.584,5.792-0.526,8.228c0.41,0.487,0.865,0.937,1.303,1.4
		C845.667,1125.477,896.09,1149.064,952.023,1149.064L952.023,1149.064z"/>
	<path fill="#23074D" d="M849.388,1082.689c0.275-0.216,0.729-0.22,1.009-0.01l6.272,4.74c0.279,0.21,0.397,0.646,0.263,0.971
		l-6.514,15.628c-0.135,0.323-0.473,0.415-0.752,0.203l-4.421-3.34c-0.28-0.212-0.378-0.64-0.219-0.951l0.695-1.37
		c0.159-0.312,0.062-0.738-0.219-0.949l-1.899-1.437c-0.278-0.211-0.718-0.188-0.975,0.049l-1.127,1.043
		c-0.257,0.238-0.695,0.261-0.975,0.049l-4.46-3.37c-0.279-0.211-0.283-0.562-0.008-0.775L849.388,1082.689z M846.042,1092.964
		c-0.253,0.241-0.232,0.61,0.047,0.821l1.092,0.825c0.28,0.211,0.646,0.132,0.812-0.177l3.378-6.205
		c0.167-0.308,0.295-0.564,0.285-0.573c-0.012-0.009-0.228,0.183-0.48,0.424L846.042,1092.964z"/>
	<path fill="#23074D" d="M860.071,1094.561c0.179-0.301,0.57-0.399,0.872-0.22l4.963,2.957c0.301,0.181,0.49,0.606,0.421,0.949
		l-1.579,7.82c-0.069,0.343-0.118,0.628-0.108,0.634c0.01,0.007,0.164-0.235,0.344-0.535l3.815-6.403
		c0.18-0.3,0.571-0.399,0.872-0.221l2.898,1.728c0.301,0.18,0.399,0.571,0.221,0.871l-6.731,11.298
		c-0.181,0.3-0.572,0.398-0.873,0.22l-4.928-2.938c-0.301-0.18-0.494-0.606-0.428-0.951l1.444-7.646
		c0.064-0.345,0.11-0.631,0.101-0.636c-0.01-0.006-0.164,0.234-0.343,0.536l-3.703,6.213c-0.179,0.3-0.571,0.398-0.872,0.22
		l-2.896-1.727c-0.302-0.181-0.401-0.572-0.222-0.872L860.071,1094.561z"/>
	<path fill="#23074D" d="M875.358,1103.428c0.148-0.315,0.529-0.453,0.847-0.304l9.592,4.521c0.316,0.149,0.454,0.529,0.304,0.848
		l-0.921,1.955c-0.148,0.315-0.529,0.454-0.847,0.304l-1.736-0.818c-0.315-0.147-0.696-0.012-0.847,0.306l-4.143,8.79
		c-0.148,0.315-0.529,0.453-0.847,0.304l-3.782-1.782c-0.316-0.149-0.453-0.53-0.305-0.847l4.143-8.79
		c0.149-0.316,0.012-0.696-0.305-0.846l-1.771-0.837c-0.317-0.148-0.454-0.528-0.306-0.846L875.358,1103.428z"/>
	<path fill="#23074D" d="M888.2,1109.582c0.065-0.344,0.392-0.531,0.722-0.419l3,1.028c0.331,0.112,0.54,0.485,0.463,0.826
		l-2.116,9.426c-0.076,0.342-0.131,0.624-0.119,0.629c0.01,0.003,0.143-0.252,0.296-0.566l4.21-8.711
		c0.151-0.313,0.548-0.479,0.879-0.366l4.796,1.645c0.331,0.113,0.542,0.485,0.468,0.828l-2.03,9.456
		c-0.074,0.342-0.125,0.624-0.115,0.627c0.01,0.005,0.142-0.251,0.291-0.567l4.125-8.737c0.148-0.315,0.543-0.481,0.874-0.369
		l3,1.027c0.331,0.113,0.472,0.461,0.313,0.773l-6.01,11.854c-0.158,0.312-0.558,0.475-0.89,0.361l-5.293-1.813
		c-0.331-0.114-0.544-0.487-0.475-0.83l1.729-8.406c0.069-0.344,0.119-0.626,0.108-0.63c-0.011-0.005-0.145,0.25-0.3,0.562
		l-3.791,7.702c-0.155,0.313-0.552,0.478-0.883,0.365l-5.294-1.813c-0.331-0.114-0.547-0.488-0.481-0.83L888.2,1109.582z"/>
	<path fill="#23074D" d="M910.138,1116.657c0.076-0.341,0.418-0.56,0.761-0.482l9.679,2.164c0.342,0.076,0.56,0.419,0.481,0.759
		l-0.472,2.11c-0.076,0.341-0.418,0.559-0.76,0.481l-4.356-0.975c-0.342-0.077-0.684,0.141-0.76,0.482l-0.189,0.848
		c-0.076,0.341,0.142,0.684,0.482,0.76l3.904,0.873c0.341,0.075,0.558,0.417,0.48,0.76l-0.392,1.754
		c-0.077,0.342-0.418,0.56-0.759,0.482l-3.904-0.873c-0.341-0.076-0.683,0.142-0.759,0.481l-0.233,1.047
		c-0.077,0.34,0.141,0.683,0.481,0.759l4.356,0.975c0.342,0.076,0.56,0.418,0.482,0.759l-0.472,2.11
		c-0.077,0.341-0.418,0.559-0.76,0.481l-9.68-2.164c-0.341-0.076-0.558-0.419-0.48-0.759L910.138,1116.657z"/>
	<path fill="#23074D" d="M928.626,1128.15l-0.673,5.259c-0.045,0.348-0.366,0.595-0.712,0.551l-4.148-0.531
		c-0.347-0.045-0.594-0.364-0.55-0.713l1.671-13.043c0.044-0.347,0.365-0.594,0.713-0.55l7.744,0.992
		c3.125,0.399,4.499,1.758,4.14,4.562c-0.231,1.804-1.459,2.809-3.245,2.761l-0.005,0.041c1.105,0.265,2.677,1.198,2.45,2.962
		l-0.414,3.226c-0.1,0.782,0.106,1.379,0.106,1.379l-4.906-0.629c-0.48-0.062-0.729-0.5-0.647-1.142l0.402-3.146
		c0.157-1.222-0.163-1.751-1.164-1.881L928.626,1128.15z M928.981,1125.385l0.86,0.111c0.981,0.125,1.436-0.551,1.54-1.372
		c0.131-1.021-0.469-1.424-1.291-1.529l-0.741-0.095L928.981,1125.385z"/>
	<path fill="#23074D" d="M945.414,1130.97l-0.129,3.906c-0.011,0.35-0.308,0.626-0.656,0.614l-4.179-0.14
		c-0.351-0.011-0.626-0.306-0.615-0.655l0.434-13.144c0.012-0.35,0.307-0.626,0.656-0.614l7.419,0.244
		c3.534,0.117,5.159,1.667,5.04,5.28c-0.094,2.849-1.47,4.722-4.275,4.629L945.414,1130.97z M945.511,1128.021l0.989,0.031
		c0.909,0.03,1.404-0.902,1.447-2.193c0.033-1.011-0.569-1.758-1.417-1.785l-0.889-0.029L945.511,1128.021z"/>
	<path fill="#23074D" d="M955.918,1121.887c-0.019-0.351,0.252-0.649,0.602-0.67l9.903-0.536c0.351-0.019,0.651,0.252,0.67,0.603
		l0.116,2.156c0.02,0.351-0.251,0.651-0.602,0.671l-4.457,0.241c-0.351,0.02-0.619,0.319-0.603,0.67l0.048,0.866
		c0.02,0.351,0.32,0.619,0.669,0.603l3.994-0.216c0.351-0.02,0.651,0.251,0.67,0.601l0.099,1.795c0.018,0.35-0.252,0.651-0.603,0.67
		l-3.994,0.215c-0.35,0.021-0.619,0.32-0.602,0.67l0.059,1.069c0.02,0.351,0.32,0.62,0.671,0.603l4.456-0.241
		c0.352-0.02,0.652,0.252,0.671,0.602l0.116,2.157c0.02,0.352-0.251,0.651-0.601,0.67l-9.904,0.535
		c-0.35,0.021-0.65-0.251-0.669-0.601L955.918,1121.887z"/>
	<path fill="#23074D" d="M969.727,1121.088c-0.052-0.346,0.189-0.671,0.536-0.723l5.712-0.855c0.347-0.053,0.765,0.159,0.929,0.469
		l3.732,7.051c0.164,0.309,0.308,0.562,0.318,0.559c0.01-0.001-0.022-0.285-0.074-0.632l-1.104-7.371
		c-0.053-0.347,0.189-0.672,0.535-0.724l3.336-0.501c0.348-0.052,0.672,0.188,0.724,0.536l1.948,13.004
		c0.052,0.347-0.189,0.672-0.536,0.724l-5.673,0.851c-0.347,0.053-0.767-0.157-0.935-0.465l-3.727-6.832
		c-0.167-0.307-0.312-0.557-0.324-0.555c-0.012,0.001,0.022,0.285,0.074,0.632l1.069,7.151c0.054,0.346-0.188,0.671-0.535,0.723
		l-3.334,0.501c-0.348,0.052-0.672-0.188-0.725-0.536L969.727,1121.088z"/>
	<path fill="#23074D" d="M1024.11,1108.375l-4.636,1.926c-0.641,0.238-0.88,0.083-1.098-0.436l-0.3-0.723
		c-0.34-0.819-0.979-1.196-1.892-0.817s-1.096,1.097-0.754,1.917l3.239,7.798c0.341,0.819,0.979,1.197,1.892,0.817
		c0.911-0.379,1.096-1.097,0.754-1.918l-0.42-1.008c-0.207-0.513-0.211-0.82,0.451-1.091l4.633-1.923
		c0.58-0.217,0.75-0.064,0.863,0.234c0.063,0.162,0.119,0.324,0.174,0.486c0.48,1.446,0.642,2.849,0.169,4.177
		c-0.557,1.622-2.099,3.118-5.223,4.416c-6.338,2.634-8.593,0.683-11.182-5.486c-2.776-6.68-1.973-9.313,3.978-11.785
		c5.477-2.274,7.909-0.97,9.48,2.032c0.081,0.154,0.158,0.312,0.234,0.477C1024.671,1107.874,1024.645,1108.133,1024.11,1108.375z"
		/>
	<path fill="#23074D" d="M1025.805,1104.836c-0.162-0.31-0.043-0.696,0.268-0.859l3.697-1.949c0.311-0.165,0.695-0.044,0.859,0.266
		l4.532,8.594c0.163,0.311,0.55,0.431,0.858,0.268l3.233-1.706c0.312-0.163,0.696-0.043,0.86,0.267l1.009,1.912
		c0.162,0.309,0.043,0.695-0.268,0.859l-8.058,4.249c-0.311,0.163-0.697,0.043-0.858-0.268L1025.805,1104.836z"/>
	<path fill="#23074D" d="M1040.629,1106.691c2.627,4.146,5.78,3.008,8.544,1.256c2.765-1.753,5.138-4.119,2.51-8.265l-4.602-7.259
		c-0.188-0.296-0.583-0.385-0.879-0.197l-3.531,2.239c-0.295,0.188-0.384,0.582-0.197,0.878l5.22,8.231
		c0.648,1.022,0.553,1.323-0.163,1.776c-0.718,0.454-1.03,0.414-1.68-0.608l-5.219-8.231c-0.187-0.296-0.582-0.384-0.877-0.197
		l-3.531,2.239c-0.296,0.188-0.386,0.582-0.196,0.878L1040.629,1106.691z"/>
	<path fill="#23074D" d="M1057.845,1101.651c-0.276,0.213-0.679,0.159-0.892-0.117l-8.009-10.431
		c-0.214-0.276-0.16-0.679,0.116-0.893l5.489-4.213c3.235-2.485,4.952-2.273,6.341-0.463c1.439,1.874,0.852,3.396-0.579,4.951
		l0.025,0.031c1.923-1.145,3.668-1.391,5.17,0.564c1.106,1.442,1.445,3.575-1.391,5.753L1057.845,1101.651z M1056.199,1091.863
		l0.865-0.664c0.545-0.419,0.512-1.158,0.069-1.734c-0.444-0.577-1.149-0.799-1.692-0.381l-0.865,0.663L1056.199,1091.863z
		 M1059.718,1096.446l0.865-0.665c0.641-0.492,0.51-1.359-0.032-2.063c-0.54-0.706-1.13-0.712-1.659-0.306l-0.945,0.726
		L1059.718,1096.446z"/>
	<path fill="#23074D" d="M1105.25,954.408c0,84.625-68.604,153.227-153.227,153.227c-84.625,0-153.229-68.602-153.229-153.227
		c0-84.624,68.604-153.229,153.229-153.229C1036.646,801.181,1105.25,869.784,1105.25,954.408z M952.023,810.298
		c-79.59,0-144.111,64.521-144.111,144.11c0,79.591,64.521,144.109,144.111,144.109c79.588,0,144.109-64.52,144.109-144.109
		S1031.611,810.298,952.023,810.298z"/>
	<path fill="#23074D" d="M1008.837,1069.597c-0.133-0.247-0.039-0.557,0.207-0.688l6.685-3.589c0.247-0.133,0.559-0.039,0.689,0.207
		l0.695,1.295c0.132,0.247,0.038,0.558-0.209,0.688l-1.141,0.612c-0.246,0.133-0.34,0.442-0.208,0.689l3.284,6.116
		c0.133,0.246,0.039,0.558-0.208,0.688l-2.584,1.388c-0.246,0.133-0.557,0.039-0.688-0.207l-3.285-6.117
		c-0.132-0.247-0.442-0.341-0.688-0.208l-1.167,0.626c-0.245,0.132-0.557,0.038-0.688-0.208L1008.837,1069.597z"/>
	<path fill="#23074D" d="M1017.48,1064.885c-0.148-0.235-0.078-0.552,0.157-0.702l5.983-3.8c0.236-0.15,0.553-0.08,0.702,0.156
		l0.789,1.24c0.148,0.235,0.077,0.552-0.157,0.703l-2.649,1.682c-0.235,0.15-0.306,0.467-0.155,0.703l0.285,0.449
		c0.15,0.235,0.467,0.308,0.702,0.156l2.365-1.502c0.236-0.148,0.553-0.079,0.702,0.157l0.646,1.018
		c0.149,0.237,0.079,0.554-0.156,0.703l-2.365,1.501c-0.236,0.15-0.307,0.467-0.156,0.703l0.363,0.574
		c0.151,0.234,0.468,0.307,0.704,0.156l2.647-1.684c0.236-0.149,0.554-0.079,0.702,0.156l0.789,1.241
		c0.149,0.235,0.078,0.552-0.158,0.703l-5.983,3.8c-0.236,0.15-0.553,0.08-0.702-0.156L1017.48,1064.885z"/>
	<path fill="#23074D" d="M1025.686,1059.646c-0.171-0.223-0.128-0.543,0.095-0.714l3.248-2.484c0.222-0.17,0.596-0.185,0.829-0.03
		l4.757,3.111c0.233,0.151,0.432,0.273,0.438,0.27s-0.128-0.191-0.299-0.413l-3.222-4.212c-0.17-0.223-0.128-0.544,0.095-0.714
		l1.863-1.427c0.224-0.171,0.545-0.127,0.714,0.095l5.73,7.489c0.172,0.222,0.129,0.543-0.095,0.714l-3.224,2.467
		c-0.224,0.17-0.599,0.188-0.833,0.036l-4.677-2.977c-0.235-0.149-0.435-0.271-0.44-0.265c-0.006,0.005,0.129,0.19,0.299,0.413
		l3.125,4.083c0.17,0.223,0.128,0.544-0.095,0.714l-1.865,1.428c-0.223,0.169-0.543,0.127-0.713-0.096L1025.686,1059.646z"/>
	<path fill="#23074D" d="M1035.718,1051.773c-0.188-0.207-0.175-0.529,0.031-0.719l5.234-4.781c0.207-0.188,0.529-0.175,0.72,0.031
		l0.991,1.085c0.188,0.207,0.174,0.53-0.032,0.72l-2.317,2.116c-0.206,0.189-0.222,0.513-0.032,0.72l0.359,0.395
		c0.189,0.206,0.513,0.222,0.719,0.032l2.068-1.891c0.207-0.188,0.53-0.174,0.72,0.032l0.813,0.891
		c0.188,0.207,0.174,0.53-0.033,0.72l-2.067,1.89c-0.207,0.189-0.221,0.513-0.031,0.72l0.458,0.501
		c0.188,0.207,0.513,0.223,0.719,0.032l2.316-2.116c0.207-0.188,0.53-0.174,0.72,0.032l0.991,1.085
		c0.188,0.206,0.175,0.53-0.032,0.719l-5.233,4.782c-0.207,0.189-0.53,0.175-0.72-0.032L1035.718,1051.773z"/>
	<path fill="#23074D" d="M1059.583,1045.868c-0.882,1.036-1.626,1.073-2.284,0.514l-1.001-0.854
		c-1.858,1.568-3.437,1.166-6.144-1.144c-3.263-2.78-3.545-4.389-1.066-7.295c2.479-2.904,4.11-2.879,7.372-0.098
		c2.839,2.422,3.429,3.963,1.876,6.234l0.234,0.199c0.332,0.284,0.86-0.221,0.86-0.221s0.086-0.102,0.19-0.225
		c0.104-0.124,0.365-0.076,0.578,0.104l0.63,0.535c0.213,0.183,0.237,0.505,0.057,0.718L1059.583,1045.868z M1054.66,1042.958
		c0.402,0.343,0.84,0.37,1.22-0.076c0.379-0.444,0.283-0.873-0.117-1.215l-3.809-3.248c-0.4-0.341-0.839-0.369-1.218,0.076
		c-0.381,0.444-0.284,0.874,0.117,1.216L1054.66,1042.958z"/>
	<path fill="#23074D" d="M1053.98,1032.5c-0.229-0.161-0.281-0.48-0.119-0.709l1.697-2.391c0.162-0.229,0.481-0.282,0.71-0.121
		l5.716,4.062c0.717,0.509,0.938,0.45,1.293-0.051c0.357-0.501,0.341-0.729-0.375-1.238l-5.719-4.062
		c-0.229-0.161-0.281-0.48-0.119-0.709l1.697-2.392c0.162-0.229,0.481-0.281,0.711-0.12l5.036,3.578
		c2.899,2.061,1.956,4.297,0.582,6.229c-1.372,1.934-3.175,3.561-6.073,1.501L1053.98,1032.5z"/>
	<path fill="#23074D" d="M1062.192,1018.639c1.928-3.298,3.538-3.56,7.239-1.396c3.702,2.164,4.265,3.694,2.336,6.993
		c-1.927,3.297-3.537,3.56-7.238,1.396C1060.827,1023.469,1060.266,1021.936,1062.192,1018.639z M1068.713,1023.432
		c0.455,0.267,0.893,0.218,1.188-0.289c0.296-0.506,0.125-0.909-0.33-1.176l-4.32-2.524c-0.455-0.267-0.892-0.217-1.187,0.288
		c-0.296,0.507-0.125,0.91,0.329,1.178L1068.713,1023.432z"/>
	<path fill="#23074D" d="M1065.973,1012.536l2.162-4.582c1.16-2.461,2.646-3.006,4.806-1.987l3.123,1.474
		c2.156,1.018,2.683,2.511,1.521,4.973l-2.167,4.596c-0.119,0.253-0.425,0.362-0.678,0.243l-8.517-4.017
		C1065.932,1013.082,1065.785,1012.866,1065.973,1012.536z M1074.848,1012.999l0.27-0.569c0.306-0.648,0.161-0.991-0.567-1.335
		l-3.468-1.637c-0.729-0.343-1.086-0.237-1.392,0.412l-0.269,0.569L1074.848,1012.999z"/>
	<path fill="#23074D" d="M1073.912,993.045c0.914-2.811,2.023-3.389,3.598-2.878c1.629,0.529,1.9,1.68,1.687,3.195l0.026,0.009
		c0.68-1.472,1.62-2.335,3.318-1.784c1.253,0.407,2.331,1.542,1.53,4.005l-1.756,5.403c-0.089,0.266-0.376,0.413-0.644,0.327
		l-8.968-2.916c-0.267-0.086-0.413-0.375-0.326-0.642L1073.912,993.045z M1077.303,995.871l0.244-0.752
		c0.153-0.474-0.168-0.901-0.669-1.064c-0.502-0.163-1.015-0.006-1.168,0.467l-0.245,0.751L1077.303,995.871z M1081.283,997.164
		l0.244-0.752c0.181-0.557-0.254-1.021-0.865-1.22c-0.612-0.199-0.967,0.039-1.116,0.499l-0.268,0.82L1081.283,997.164z"/>
	<path fill="#23074D" d="M1076.066,987.673c-0.271-0.063-0.442-0.34-0.379-0.612l1.625-6.899c0.063-0.272,0.34-0.442,0.611-0.378
		l1.432,0.336c0.271,0.063,0.441,0.34,0.379,0.611l-0.719,3.056c-0.064,0.271,0.105,0.548,0.378,0.612l0.52,0.121
		c0.272,0.064,0.549-0.105,0.613-0.378l0.641-2.728c0.063-0.272,0.34-0.442,0.611-0.378l1.175,0.275
		c0.272,0.064,0.443,0.341,0.379,0.612l-0.642,2.728c-0.064,0.271,0.105,0.548,0.378,0.611l0.662,0.156
		c0.271,0.064,0.548-0.106,0.612-0.379l0.719-3.054c0.063-0.272,0.339-0.443,0.612-0.38l1.431,0.337
		c0.272,0.063,0.442,0.34,0.379,0.611l-1.624,6.9c-0.063,0.271-0.341,0.442-0.612,0.379L1076.066,987.673z"/>
	<path fill="#23074D" d="M1078.274,978.191c-0.277-0.04-0.473-0.3-0.432-0.576l0.583-4.048c0.04-0.277,0.298-0.548,0.571-0.603
		l5.575-1.104c0.274-0.055,0.501-0.105,0.502-0.113c0.001-0.007-0.226-0.046-0.502-0.087l-5.249-0.756
		c-0.277-0.04-0.473-0.3-0.433-0.577l0.335-2.324c0.039-0.276,0.3-0.471,0.576-0.431l9.334,1.345
		c0.277,0.04,0.473,0.299,0.432,0.576l-0.578,4.019c-0.039,0.276-0.297,0.552-0.57,0.608l-5.424,1.142
		c-0.272,0.059-0.498,0.112-0.5,0.12c-0.001,0.007,0.225,0.047,0.502,0.087l5.091,0.732c0.277,0.04,0.47,0.299,0.432,0.576
		l-0.336,2.323c-0.039,0.276-0.3,0.472-0.575,0.432L1078.274,978.191z"/>
	<path fill="#23074D" d="M1079.939,965.541c-0.279-0.015-0.494-0.257-0.479-0.536l0.396-7.078c0.018-0.278,0.259-0.495,0.536-0.479
		l1.47,0.082c0.278,0.016,0.496,0.257,0.479,0.537l-0.176,3.134c-0.016,0.278,0.2,0.52,0.479,0.536l0.533,0.029
		c0.279,0.017,0.521-0.199,0.536-0.479l0.157-2.797c0.016-0.279,0.257-0.495,0.536-0.479l1.204,0.068
		c0.278,0.016,0.495,0.257,0.479,0.537l-0.155,2.797c-0.017,0.279,0.2,0.521,0.479,0.537l0.68,0.038
		c0.278,0.016,0.521-0.2,0.536-0.479l0.175-3.133c0.017-0.279,0.258-0.496,0.536-0.479l1.469,0.081
		c0.279,0.018,0.495,0.258,0.479,0.537l-0.396,7.078c-0.016,0.279-0.257,0.495-0.537,0.479L1079.939,965.541z"/>
	<path fill="#23074D" d="M832.579,885.537c3.471-6.25,6.473-7.052,10.154-5.008c3.811,2.115,3.992,5.011,2.81,8.522l0.065,0.036
		c2.312-3.168,5.02-4.742,8.993-2.535c2.932,1.627,5.116,4.906,2.075,10.383l-6.651,11.977c-0.341,0.611-1.118,0.835-1.73,0.495
		l-21.03-11.681c-0.611-0.34-0.835-1.117-0.495-1.729L832.579,885.537z M839.774,894.068l0.928-1.672
		c0.584-1.052-0.032-2.243-1.205-2.896c-1.173-0.651-2.51-0.544-3.095,0.508l-0.929,1.671L839.774,894.068z M849.089,899.242
		l0.928-1.671c0.688-1.238-0.188-2.575-1.622-3.371s-2.414-0.41-2.981,0.61l-1.014,1.826L849.089,899.242z"/>
	<path fill="#23074D" d="M848.072,865.35c-0.5-0.489-0.507-1.3-0.017-1.799l11.958-12.172c0.491-0.499,1.301-0.506,1.8-0.016
		l2.702,2.654c0.5,0.491,0.508,1.302,0.017,1.801l-5.26,5.354c-0.491,0.499-0.483,1.31,0.016,1.799l1.002,0.984
		c0.499,0.491,1.309,0.483,1.799-0.016l4.69-4.775c0.491-0.5,1.3-0.507,1.8-0.016l2.224,2.186c0.499,0.491,0.508,1.3,0.017,1.8
		l-4.69,4.774c-0.491,0.499-0.482,1.309,0.016,1.799l1.269,1.245c0.499,0.491,1.309,0.482,1.799-0.017l5.261-5.354
		c0.49-0.499,1.301-0.506,1.801-0.016l2.702,2.654c0.499,0.49,0.507,1.301,0.017,1.799l-11.958,12.173
		c-0.49,0.5-1.3,0.507-1.8,0.016L848.072,865.35z"/>
	<path fill="#23074D" d="M874.034,841.902c-0.36-0.601-0.162-1.386,0.438-1.745l14.646-8.756c0.601-0.359,1.386-0.162,1.745,0.438
		l1.944,3.252c0.359,0.602,0.161,1.386-0.438,1.745l-6.443,3.854c-0.601,0.358-0.798,1.144-0.438,1.744l0.721,1.206
		c0.359,0.602,1.145,0.798,1.745,0.438l5.745-3.436c0.601-0.358,1.386-0.161,1.745,0.439l1.6,2.676
		c0.359,0.602,0.161,1.387-0.438,1.746l-5.745,3.435c-0.601,0.358-0.798,1.145-0.438,1.744l0.912,1.526
		c0.359,0.602,1.144,0.799,1.745,0.439l6.444-3.853c0.6-0.358,1.385-0.162,1.744,0.438l1.944,3.253
		c0.359,0.6,0.162,1.385-0.438,1.745l-14.646,8.757c-0.6,0.357-1.385,0.161-1.745-0.439L874.034,841.902z"/>
	<path fill="#23074D" d="M918.249,836.938l2.55,9.339c0.186,0.675-0.216,1.377-0.892,1.562l-6.765,1.847
		c-0.675,0.186-1.378-0.216-1.562-0.892l-6.335-23.208c-0.186-0.675,0.217-1.378,0.892-1.562l13.045-3.562
		c5.326-1.454,8.49-0.078,9.864,4.954c0.883,3.235-0.401,5.787-3.317,6.931l0.02,0.072c1.971-0.307,5.159,0.214,6.021,3.376
		l1.581,5.787c0.383,1.401,1.128,2.28,1.128,2.28l-8.357,2.28c-0.819,0.225-1.528-0.354-1.842-1.505l-1.541-5.643
		c-0.6-2.193-1.483-2.878-3.19-2.412L918.249,836.938z M916.895,831.977l1.469-0.4c1.673-0.457,1.935-1.918,1.531-3.393
		c-0.5-1.833-1.75-2.109-3.149-1.728l-1.263,0.345L916.895,831.977z"/>
	<path fill="#23074D" d="M952.039,836.412c0.052,0.629,0.125,1.169,0.312,1.604c0.273,0.603,0.728,0.981,1.541,0.996
		c1.273,0.022,2.212-0.968,2.233-2.271c0.101-5.886-13.2-2.277-13.032-12c0.11-6.408,3.979-9.099,11.199-8.975
		c7.779,0.135,10.318,2.952,10.833,6.505c0.025,0.174,0.045,0.348,0.061,0.523c0.062,0.786,0.081,1.284-1.342,1.26l-5.947-0.104
		c-1.253-0.021-1.46-0.371-1.494-0.801c-0.04-0.498-0.12-0.911-0.306-1.241c-0.274-0.489-0.836-0.761-1.828-0.777
		c-1.025-0.018-1.715,0.939-1.731,1.945c-0.085,4.955,13.271,2.241,13.104,11.889c-0.122,7.04-5.114,9.153-11.166,9.048
		c-5.57-0.096-11.275-0.903-11.84-6.796c-0.025-0.276-0.043-0.563-0.044-0.863c-0.003-0.729,0.489-1.047,1.536-1.014l6.509,0.112
		C951.78,835.468,951.985,835.757,952.039,836.412z"/>
	<path fill="#23074D" d="M997.718,841.808l-6.013-1.878c-0.667-0.209-1.368,0.116-1.559,0.721c-0.188,0.604-0.522,1.674-0.522,1.674
		c-0.4,1.279-1.274,1.943-2.625,1.521c-1.353-0.422-1.693-1.466-1.293-2.746l3.799-12.162c0.399-1.28,1.274-1.943,2.625-1.521
		c1.353,0.422,1.692,1.466,1.293,2.746c0,0-0.263,0.844-0.426,1.365c-0.163,0.521,0.25,1.117,0.918,1.325l5.901,1.844
		c1.447,0.455,2.002,0.163,2.276-0.876c0.038-0.16,0.075-0.32,0.108-0.479c1.046-4.915-0.435-8.69-8.462-11.199
		c-8.818-2.753-12.171-0.443-15.427,9.976c-2.977,9.647-2.352,14.059,7.041,16.993c4.627,1.444,7.72,1.161,9.852-0.202
		c1.572-0.982,2.65-2.51,3.458-4.351c0.086-0.193,0.18-0.388,0.248-0.593C999.323,842.715,999.03,842.247,997.718,841.808z"/>
	<path fill="#23074D" d="M1019.646,835.19c0.396-0.578,1.19-0.729,1.769-0.333l5.786,3.959c0.578,0.395,0.728,1.19,0.333,1.769
		l-3.509,5.126c-0.395,0.577-0.245,1.373,0.332,1.769l0.996,0.683c0.577,0.395,1.373,0.246,1.769-0.333l3.508-5.125
		c0.396-0.577,1.191-0.727,1.769-0.331l5.786,3.959c0.578,0.395,0.728,1.19,0.332,1.769l-13.585,19.854
		c-0.396,0.577-1.19,0.727-1.77,0.332l-5.786-3.959c-0.578-0.396-0.728-1.191-0.332-1.769l4.308-6.294
		c0.396-0.578,0.245-1.374-0.332-1.769l-0.995-0.683c-0.577-0.395-1.373-0.246-1.77,0.332l-4.307,6.294
		c-0.396,0.577-1.19,0.727-1.77,0.331l-5.786-3.959c-0.577-0.395-0.727-1.19-0.332-1.769L1019.646,835.19z"/>
	<path fill="#23074D" d="M1059.666,867.001c5.828,7.167,4.927,11.138-3.543,18.025c-8.47,6.886-12.541,6.958-18.368-0.21
		c-5.828-7.168-4.928-11.14,3.543-18.025C1049.77,859.904,1053.839,859.833,1059.666,867.001z M1042.472,878.334
		c-1.04,0.846-1.333,1.904-0.438,3.002c0.893,1.1,1.989,1.029,3.029,0.183l9.886-8.038c1.042-0.846,1.333-1.903,0.439-3.003
		c-0.895-1.098-1.988-1.028-3.028-0.183L1042.472,878.334z"/>
	<path fill="#23074D" d="M1072.9,889.958c0.64-0.282,1.395,0.012,1.677,0.652l7.352,16.722c0.282,0.64-0.012,1.395-0.65,1.677
		l-3.47,1.525c-0.641,0.282-1.396-0.013-1.676-0.652l-1.229-2.79c-0.281-0.641-1.035-0.935-1.676-0.652l-16.226,7.133
		c-0.641,0.281-1.396-0.013-1.676-0.652l-2.822-6.418c-0.282-0.64,0.012-1.395,0.651-1.677l16.225-7.133
		c0.641-0.282,0.934-1.036,0.653-1.679l-1.256-2.854c-0.282-0.641,0.012-1.396,0.65-1.677L1072.9,889.958z"/>
	<path fill="#23074D" d="M829.515,1084.939c0.135,0.128,0.353,0.153,0.568,0.062c0.146-0.06,0.294-0.176,0.416-0.088
		c0.1,0.072,0.199,0.16,0.246,0.194c2.049,1.565,3.608,1.092,4.689,0.252c0.544-0.423,0.509-1.005,0.146-1.67
		c-0.025-0.048-0.063-0.168-0.033-0.215c0.09-0.136,0.283-0.428,0.368-0.561c1.812-2.798,1.9-4.398,0.787-5.466l0,0
		c-1.114-1.07-2.708-0.916-5.43,1.01c-0.13,0.091-0.413,0.295-0.546,0.391c-0.044,0.032-0.168,0-0.215-0.023
		c-0.68-0.335-1.263-0.348-1.662,0.214c-0.794,1.116-1.206,2.691,0.443,4.677c0.037,0.045,0.129,0.142,0.206,0.238
		c0.092,0.118-0.016,0.271-0.07,0.418C829.347,1084.595,829.38,1084.811,829.515,1084.939L829.515,1084.939z"/>
	<path fill="#23074D" d="M1074.529,1084.939c-0.135,0.128-0.353,0.153-0.567,0.062c-0.146-0.06-0.295-0.176-0.417-0.088
		c-0.1,0.072-0.2,0.16-0.247,0.194c-2.049,1.565-3.606,1.092-4.688,0.252c-0.544-0.423-0.508-1.005-0.146-1.67
		c0.025-0.048,0.063-0.168,0.032-0.215c-0.091-0.136-0.282-0.428-0.369-0.561c-1.811-2.798-1.897-4.398-0.785-5.466l0,0
		c1.114-1.07,2.709-0.916,5.431,1.01c0.13,0.091,0.412,0.295,0.545,0.391c0.045,0.032,0.169,0,0.216-0.023
		c0.68-0.335,1.264-0.348,1.661,0.214c0.795,1.116,1.207,2.691-0.442,4.677c-0.036,0.045-0.13,0.142-0.204,0.238
		c-0.093,0.118,0.016,0.271,0.07,0.418C1074.696,1084.595,1074.664,1084.811,1074.529,1084.939L1074.529,1084.939z"/>
	<path fill="#23074D" d="M1000.172,1127.174c0.18-0.046,0.315-0.218,0.35-0.451c0.026-0.152,0.005-0.343,0.144-0.4
		c0.114-0.047,0.242-0.086,0.295-0.106c2.405-0.93,2.813-2.509,2.665-3.87c-0.077-0.682-0.592-0.956-1.347-0.994
		c-0.055-0.004-0.178-0.033-0.201-0.086c-0.068-0.146-0.216-0.463-0.286-0.605c-1.439-3.006-2.756-3.917-4.25-3.525l0,0
		c-1.494,0.391-2.196,1.831-1.975,5.159c0.009,0.156,0.034,0.504,0.049,0.667c0.002,0.056-0.089,0.145-0.135,0.171
		c-0.64,0.405-0.953,0.897-0.686,1.528c0.537,1.261,1.666,2.437,4.219,2.065c0.058-0.008,0.188-0.036,0.312-0.05
		c0.146-0.018,0.223,0.154,0.319,0.277C999.791,1127.138,999.991,1127.222,1000.172,1127.174L1000.172,1127.174z"/>
	<circle fill="#23074D" cx="844.914" cy="963.648" r="4.863"/>
	<path fill="#23074D" d="M824.768,970.939c-0.349,0-0.636,0.286-0.636,0.637v5.012c0,0.351,0.287,0.636,0.636,0.636h40.292
		c0.351,0,0.637-0.286,0.637-0.636v-5.012c0-0.35-0.286-0.637-0.637-0.637H824.768z"/>
	<path fill="#23074D" d="M827.951,979.917c-0.561,0-1.019,0.458-1.019,1.018v6.643c0,0.56,0.458,1.018,1.019,1.018h33.926
		c0.561,0,1.018-0.458,1.018-1.018v-6.643c0-0.56-0.457-1.018-1.018-1.018H827.951z"/>
	<circle fill="#23074D" cx="857.129" cy="963.648" r="4.863"/>
	<circle fill="#23074D" cx="832.699" cy="963.648" r="4.863"/>
	<path fill="#23074D" d="M1008.332,1045.803c30.619-18.906,51.023-52.767,51.023-91.395c0-59.278-48.056-107.333-107.332-107.333
		c-55.065,0-100.447,41.469-106.619,94.88l0.053-0.003c18.548,0.275,33.492,14.67,33.492,32.384
		c0,13.774-9.035,25.541-21.774,30.223l-0.062,0.019c12.547,23.687,33.702,42.114,59.296,51.115l-0.009-0.087l-0.01-0.394
		c-0.022-0.853-0.047-1.771-0.047-2.753c0-7.312,1.326-18.198,14.545-31.807c0.099-0.101,0.287-0.279,0.489-0.47
		c0.369-0.346,0.475-1.293,0.122-1.943c-0.422-0.78-0.909-1.683-1.007-1.877c-2.542-5.019-5.374-11.599-5.374-27.712
		c0-1.059,0.028-2.175,0.045-3.325c0.012-0.796-0.209-1.083-1.053-1.318c-1.936-0.571-4.6-1.403-7.103-2.341
		c-2.125-0.798-3.297-1.118-3.943-1.229c-0.229-0.039-0.471,0.379-0.364,0.804c0.105,0.424,0.285,1.007,0.581,1.811
		c0.564,1.533,1.14,3.095,1.14,4.404c0,1.012-0.345,1.872-1.306,2.448c-1.281,0.77-2.392,0.38-3.395-0.345
		c-0.158-0.114-0.568,0.047-0.632,0.235c-0.123,0.367-0.281,0.693-0.479,1.023c-0.477,0.793-1.247,1.257-2.114,1.27
		c-1.034,0.016-1.688-0.531-2.247-1.26c-0.104-0.138-0.435-0.19-0.507-0.079c-0.291,0.445-0.67,0.82-1.183,1.033
		c-0.898,0.372-1.929,0.163-2.624-0.531c-1.173-1.172-1.625-1.98-2.905-4.658l-0.098-0.203c-1.356-2.835-3.216-6.72-3.586-9.935
		c-0.067-0.586-0.106-1.156-0.106-1.715c0-3.301,1.375-6.164,6.393-9.405c4.793-3.095,14.016-7.327,21.708-10.081
		c0.207-0.074,0.183-0.645-0.045-0.875c-0.501-0.509-1.036-1.084-1.601-1.731c-2.979-3.419-7.93-9.72-9.85-12.72
		c-1.152-1.802-5.18-4.854-11.047-8.376c-1.793-1.076-3.848-1.906-5.661-2.64c-2.108-0.853-3.93-1.588-5.16-2.602
		c-2.486-2.049-2.878-4.154-2.937-7.598c-0.002-0.166-0.045-0.536-0.073-0.538c-0.126-0.01-0.294-0.022-0.487-0.046
		c-1.031-0.122-2.806-0.532-3.125-2.282c-0.021-0.117-0.039-0.269-0.039-0.443c0-0.299,0.068-0.667,0.261-1.047
		c0.054-0.106,0.093-0.479,0.044-0.557c-0.107-0.17-0.203-0.354-0.247-0.583c-0.026-0.141-0.041-0.289-0.041-0.44
		c0-0.657,0.284-1.393,1.013-1.958c0.125-0.097,0.419-0.723,0.438-0.849c0.312-2.044,3.057-2.64,4.01-2.848
		c2.795-0.607,5.109-0.283,7.184,0.969c0.128,0.077,0.647,0.219,0.798,0.21c1.5-0.083,3.963,0.03,6.404,1.25
		c1.709,0.854,2.891,1.913,4.14,3.033c1.347,1.208,2.739,2.458,5.117,3.728c5.128,2.745,11.116,4.657,20.021,6.398
		c7.146,1.396,12.004,1.812,15.057,1.884c0.182,0.004,0.354,0.005,0.522,0.009c0.706,0.012,0.823-0.279,0.88-0.778
		c0.035-0.227,0.063-0.449,0.09-0.671c0.319-2.803-0.164-5.111-1.604-7.33c-3.304-5.086-10.161-10.839-18.783-17.832l-4.432-3.54
		c-4.416-3.5-7.171-5.71-8.213-6.899c-2.169-2.479-1.702-7.472-0.625-9.232c1-1.635,2.277-2.472,3.104-2.871
		c1.491-0.732,2.649-1.069,3.249-0.884c0.599,0.188,0.524,1.191,0.524,1.191c-0.054,0.406-0.103,1.246-0.112,1.465
		c-0.038,0.823,0.148,1.047,0.522,1.015c0.704,0,1.729-0.203,2.682-0.981c0.402-0.329,0.745-0.646,1.043-0.945
		c0.204-0.206,0.266-0.87,0.114-1.016c-1.389-1.332-3.066-2.943-3.066-2.943c-2.979-2.792-4.212-4.165-4.212-6.318
		c0-0.154,0.006-0.314,0.019-0.479c0.104-1.35,0.933-2.487,1.692-3.262c0.145-0.147,0.504-0.736,0.558-0.925
		c0.27-0.946,0.744-2.234,1.598-3.548c2.566-3.947,5.727-3.021,6.635-2.644c1.199,0.5,6.017,2.604,10.125,4.621
		c2.43,1.191,3.795,1.104,6.128,0.637c3.65-0.729,7.777,1.055,10.507,2.236c1.745,0.754,4.238,2.06,5.964,2.989
		c0.165,0.09,0.722,0.048,0.855-0.058c1.063-0.831,2.556-1.662,4.381-1.766c3.62-0.207,6.853,2.205,7.358,5.489
		c0.067,0.439,0.097,0.912,0.097,1.397c0,0.702-0.066,1.406-0.156,2.085c-0.025,0.19,0.325,1.001,0.522,1.215
		c0.482,0.519,0.899,0.969,0.899,0.969c0.496,0.545,0.91,1.104,1.236,1.586c0.099,0.145,0.549,0.508,0.701,0.565
		c1.012,0.384,2.37,1.053,3.476,2.159c1.495,1.495,2,3.375,2.167,4.724c0.019,0.154,0.492,0.802,0.762,1.021
		c2.243,1.823,6.479,5.347,8.928,7.907c3.493,3.652,6.116,7.659,9.193,17.329l3.236,9.566c1.38,3.975,2.808,8.085,3.807,11.417
		l0.218,0.72c1.328,4.414,2.905,9.648,2.905,15.809c0,1.923-0.153,3.938-0.517,6.045l-0.606,3.419
		c-0.932,5.169-1.614,8.955-1.614,14.812c0,1.565,0.051,3.278,0.155,5.205c0.597,10.901,2.214,18.499,4.435,28.042
		c1.447,6.224,2.165,12.155,2.165,17.525c0,6.931-1.196,12.925-3.564,17.399c-1.044,1.971-2.067,3.775-3.059,5.452
		L1008.332,1045.803z"/>
	<path fill="#23074D" d="M947.46,930.334c-0.062,0.18-0.132,0.36-0.199,0.543c-1.159,3.109-2.748,6.646-4.638,10.791
		c-0.107,0.236-0.545,0.85-0.959,1.059c-1.372,0.69-4.876,2.188-9.616,2.275c-6.172,0.112-10.661-2.356-16.833-8.191
		c-4.679-4.425-9.163-7.884-16.945-11.559c-4.039-1.908-8.191-2.356-8.864-4.713s-0.562-3.928,1.57-6.06
		c2.133-2.133,6.061-2.133,8.417-0.562s5.051,5.05,9.65,7.182c4.602,2.134,11.446,5.163,21.322,6.733
		c7.974,1.269,13.154,1.656,15.954,1.766c0.22,0.01,0.426,0.019,0.616,0.021C947.516,929.627,947.629,929.843,947.46,930.334z
		 M957.156,1041.436c2.162-8.739,9.081-15.411,9.081-15.411s-6.884-4.788-9.727-9.875c-2.842-5.087-7.181-13.915-1.795-23.94
		c4.876-9.075,9.263-14.717,17.487-22.032c0.861-0.766,1.301-1.547-0.727-0.406c-2.819,1.588-6.83,3.812-9.878,5.381
		c-5.236,2.692-18.403,5.536-24.09,5.236c-5.686-0.299-9.127-0.599-16.01-3.142c-6.882-2.544-10.174-2.993-12.418,0.148
		c-2.245,3.143-3.143,5.388-4.938,5.237c-1.795-0.148-5-1.479-5.686-4.339c-0.898-3.74-1.408-4.847,3.441-8.08
		c4.039-2.693,10.23-5.828,27.53-12.119c13.167-4.788,18.866-6.604,26.484-15.412c4.419-5.11,8.712-9.457,16.526-13.037
		c0.65-0.298,1.205-0.814-0.202-0.498c-2.649,0.597-7.371,2.091-12.584,5.755c-5.312,3.732-8.28,8.704-15.25,12.933
		c-0.296,0.179-0.763,0.188-0.499-0.439c0.925-2.188,3.278-7.787,5.723-13.84c3.142-7.781,3.74-15.412-0.599-21.695
		c-4.177-6.049-18.122-16.843-27.167-24.048c-0.354-0.28-0.696-0.797-0.142-0.813c1.185-0.035,3.348-0.28,5.275-1.472
		c6.172-3.815,7.294-6.173,7.182-8.305c-0.111-2.132-3.106-3.97-6.846-7.069c-2.842-2.356-4.788-4.152-3.89-4.602
		c0.897-0.448,2.617-0.522,3.366-0.823c0.748-0.299,0.974-1.645,1.421-2.468c0.449-0.823,1.049-1.122,4.564,0.673
		s5.686,2.842,9.352,2.842s5.608-1.193,10.549,1.348c7.854,4.04,13.541,7.78,17.281,10.997c0,0,0.599,1.047-0.749,1.047
		c-1.347,0-4.679,0.187-6.283,1.945c-1.571,1.722-2.095,4.714-1.496,5.387c0.598,0.673,0.973,0.074,1.496-1.421
		c0.522-1.497,1.048-3.218,5.012-3.815c3.965-0.599,6.135,0,7.706,1.421c1.57,1.421,1.557,2.817-2.021,6.061
		c-3.218,2.918-4.265,4.488-7.406,4.414c-3.143-0.075-2.917,0.149-0.973,1.422c1.945,1.271,4.338,1.122,7.331-1.198
		c2.35-1.819,4.605-4.054,5.467-4.932c0,0,2.239,1.864,6.578,5.604c4.34,3.74,7.631,5.835,10.624,14.812
		c2.992,8.978,5.014,13.578,7.146,20.311c2.132,6.733,5.049,14.701,3.927,21.21s-3.142,15.71-3.366,21.771
		c-0.224,6.061,1.012,14.251,3.144,24.464c2.133,10.212,3.366,18.066,3.255,23.79c-0.189,9.648-0.897,15.599-6.622,24.165
		c-4.106,6.146-7.406,9.726-9.65,19.15c-1.14,4.784-1.122,13.468,0.112,18.181c1.072,4.092,0.673,5.498-2.693,6.621
		c-3.367,1.121-14.701,3.142-22.668,3.928c-7.968,0.785-8.753-0.562-9.09-3.03c-0.336-2.469,0.562-4.713,4.04-6.284
		c2.609-1.179,6.271-2.251,7.938-2.715c0.556-0.154,0.418-0.749,0.156-1.052c-3.69-4.281-10.468-14.755-12.284-21.185
		c-1.532-5.423-1.857-11.033-1.927-13.168c-0.019-0.572-0.458-1.147-1.22-1.625c-2.287-1.431-7.478-4.882-12.414-9.596
		c-2.919-2.786-5.381-5.943-7.097-8.377c-0.178-0.25-0.788-0.521-1.14,0.006c-0.717,1.08-1.719,3.515-1.19,8.334
		c0.506,4.622,4.151,10.887,7.854,18.518c3.704,7.63,4.938,12.007,4.938,12.007c-0.562,3.028-3.703,15.935-4.713,20.872
		c-1.011,4.938-3.815,4.602-9.988,3.928c-6.172-0.674-12.68-2.581-18.291-4.264c-5.611-1.685-6.958-2.918-6.845-5.388
		c0.111-2.469,2.917-5.499,6.284-6.509c3.365-1.01,7.294-0.337,9.763,0.112c2.469,0.448,2.581-1.234,1.908-3.143
		c-0.673-1.907-2.021-6.51-2.132-12.682c-0.112-6.172-0.226-14.026,3.142-20.873c2.748-5.586,6.965-10.771,8.424-12.49
		c0.329-0.387,0.316-0.911,0.226-1.054c-0.181-0.284-0.334-0.531-0.462-0.737c-0.267-0.435-0.824-0.261-1.029-0.052
		c-15.21,15.545-14.188,27.146-14.041,34.084c0.126,5.927,1.634,11.642,2.104,13.292c0.087,0.308-0.212,0.457-0.381,0.448
		c-5.464-0.252-7.879,0.123-11.898,2.419c-3.143,1.796-6.284,6.435-4.788,9.876c1.32,3.037,13.766,6.434,22.443,8.379
		c8.679,1.945,14.064,1.945,16.159,0.3s2.095-6.884,4.938-18.255c2.132-8.528,4.769-17.646,5.954-21.673
		c0.396-1.341,0.618-1.349,0.694-0.065c0.203,3.385,1.021,10.345,4.274,16.202c3.326,5.985,6.158,9.343,7.402,10.683
		c0.437,0.469,0.166,0.841-0.093,0.933c-4.148,1.462-8.674,5.53-8.957,9.333c-0.169,2.284,0.188,4.186,0.53,5.406
		c0.263,0.938,1.279,1.521,1.875,1.529c3.15,0.048,10.288-0.213,21.236-1.85c9.071-1.354,13.42-3.146,15.222-4.107
		c0.784-0.418,1.425-1.409,1.496-1.885c0.384-2.595-1.006-7.234-1.006-11.663c0-5.235,0.448-13.315,3.142-18.402
		c2.694-5.088,6.434-10.175,10.475-17.807c4.164-7.865,4.188-20.499,1.195-33.366c-2.338-10.051-3.891-17.506-4.488-28.429
		c-0.599-10.922,0.599-15.262,2.096-23.938c1.495-8.68-0.749-15.562-2.544-21.546c-1.795-5.986-4.938-14.365-7.032-20.948
		c-2.97-9.333-5.386-13.019-8.678-16.458c-2.76-2.885-8.077-7.207-9.727-8.53c-0.317-0.255-0.486-0.588-0.497-0.903
		c-0.032-0.908-0.265-2.849-1.599-4.183c-1.134-1.134-2.727-1.695-3.432-1.9c-0.225-0.064-0.468-0.297-0.661-0.608
		c-0.296-0.479-0.79-1.216-1.395-1.879c-0.628-0.691-1.35-1.464-1.798-1.942c-0.264-0.28-0.366-0.806-0.331-1.01
		c0.188-1.092,0.392-2.706,0.209-3.881c-0.3-1.945-2.394-3.741-5.013-3.592c-1.963,0.113-3.507,1.529-4.155,2.23
		c-0.216,0.234-0.515,0.287-0.828,0.115c-1.325-0.729-4.997-2.724-7.234-3.691c-2.77-1.197-6.3-2.67-9.178-2.095
		c-2.493,0.499-4.46,0.697-7.557-0.823c-4.015-1.97-8.803-4.064-10-4.562c-1.197-0.499-2.593-0.2-3.89,1.795
		c-0.912,1.402-1.331,2.856-1.5,3.595c-0.07,0.311-0.294,0.637-0.562,0.875c-0.539,0.479-1.363,1.347-1.43,2.213
		c-0.101,1.296,0.299,1.995,3.492,4.987c1.966,1.843,3.401,3.231,4.215,4.026c0.506,0.496,0.613,1.031,0.283,1.47
		c-0.498,0.661-1.385,1.704-2.703,2.783c-2.195,1.795-4.889,1.696-5.985,1.098c-0.666-0.364-0.854-1.315-0.898-2.007
		c-0.029-0.448-0.171-0.741-0.44-0.611c-0.526,0.255-1.426,0.832-2.152,2.019c-0.635,1.039-0.997,4.987,0.399,6.583
		c1.396,1.597,7.626,6.328,12.369,10.175c8.979,7.28,15.776,13.003,19.252,18.354c2.187,3.367,2.533,6.818,1.57,11.102
		c-0.032,0.14-0.068,0.279-0.1,0.423c-0.143,0.65-0.475,0.677-0.886,0.704c-0.171,0.012-0.352,0.013-0.542,0.017
		c-2.972,0.069-8.433-0.199-17.301-1.933c-10.068-1.97-15.823-4.041-20.648-6.622c-4.826-2.581-6.06-5.162-9.202-6.733
		c-2.428-1.213-4.922-1.088-5.932-0.968c-0.297,0.035-0.71-0.125-0.833-0.216c-1.801-1.324-3.726-1.585-6.142-1.061
		c-2.58,0.562-2.805,1.347-1.459,1.458c1.348,0.112,2.245,0.226,3.03,0.898c0.786,0.673-0.225,0.449-1.459,0.112
		c-1.233-0.337-2.355,0.111-3.479,0.673c-1.122,0.561,0.897,0.896,2.132,1.01s2.132,0.673,1.683,0.785
		c-0.448,0.111-1.907-0.112-3.591,0.673c-1.137,0.531-0.449,0.897,1.01,1.011c0.881,0.067,1.476,0.544,1.808,0.911
		c0.219,0.241,0.326,0.754,0.326,0.906c0.018,4.005,0.293,5.311,2.131,6.823c1.907,1.571,6.621,2.693,10.549,5.05
		s9.987,6.283,11.783,9.089s6.621,8.978,9.649,12.457c1.994,2.289,3.601,3.605,4.464,4.238c0.449,0.329,0.214,0.62-0.034,0.696
		c-8.264,2.559-19.735,7.734-24.966,11.111c-5.386,3.479-5.61,6.061-5.273,8.978c0.336,2.917,2.244,6.846,3.479,9.427
		c1.234,2.58,1.571,3.142,2.47,4.041c0.396,0.396,0.897-1.348,0.897-2.694s1.347-0.897,2.469,0.786
		c1.123,1.684,1.459,2.469,1.797,1.908c0.336-0.562,0.561-1.012,0.448-3.144c-0.111-2.132,0.449-1.908,2.021-0.449
		c1.571,1.458,2.245,2.245,2.806,1.907c0.562-0.336,0-2.02-0.786-4.151c-0.663-1.8-1.233-3.703-0.561-4.714
		c0.968-1.451,2.692-1.233,7.182,0.449c3.416,1.28,7.241,2.389,8.876,2.844c0.515,0.146,0.793,0.719,0.785,0.963
		c-0.779,22.731,3.499,28.798,6.316,34.49l2.589,4.176c1.455,2.24,4.458,6.541,8.23,10.144c4.87,4.647,10.057,8.067,12.187,9.396
		c0.046,0.028,0.167,0.12,0.25,0.088C957.104,1041.635,957.144,1041.485,957.156,1041.436z"/>
	<path fill="#23074D" d="M948.573,875.677c-0.146-0.126-0.249-0.433-0.252-0.643c-0.016-0.771-0.153-2.677-1.124-3.647
		c-1.155-1.154-2.017-1.131-3.87-1.03c-0.126,0.007-0.444,0.177-0.357,0.347c0.087,0.169,0.312,0.352,0.861,0.403
		c1.178,0.111,1.795,0.28,2.3,0.896c0.317,0.389,0.436,1.132,0.48,1.63c0.024,0.294-0.122,0.506-0.357,0.501
		c-0.705-0.013-2.198-0.097-2.872-0.559c-0.976-0.671-1.708-2.064-2.062-3.382c-0.05-0.185-0.021-0.687,0.225-0.864
		c0.396-0.288,1.15-0.679,2.399-0.749c2.02-0.112,4.208,0.337,5.161,2.692c0.955,2.357,0.112,4.321-0.167,4.489
		C948.815,875.836,948.684,875.771,948.573,875.677z"/>
</g>
</svg>
