<?xml version="1.0" encoding="utf-8"?>
<!-- Generator: Adobe Illustrator 16.0.0, SVG Export Plug-In . SVG Version: 6.00 Build 0)  -->
<!DOCTYPE svg PUBLIC "-//W3C//DTD SVG 1.1//EN" "http://www.w3.org/Graphics/SVG/1.1/DTD/svg11.dtd">
<svg version="1.1" id="Layer_1" xmlns="http://www.w3.org/2000/svg" xmlns:xlink="http://www.w3.org/1999/xlink" x="0px" y="0px"
	 width="41.447px" height="37.938px" viewBox="379.277 281.031 41.447 37.938"
	 enable-background="new 379.277 281.031 41.447 37.938" xml:space="preserve">
<g>
	<g>
		<path fill="#023F87" d="M386.688,318.969c-5.019-0.003-7.41-2.668-7.41-6.77v-18.564c0-5.251,1.793-6.291,6.527-8.216l9.304-3.43
			c1.556-0.552,3.198-0.958,4.963-0.958c1.763,0,3.407,0.406,4.963,0.958l9.302,3.43c4.735,1.925,6.389,2.964,6.389,8.216v18.564
			c0,4.102-2.253,6.767-7.271,6.77H386.688z"/>
	</g>
	<path fill="#FFD300" d="M414.335,286.256l-9.302-3.431c-1.558-0.552-3.171-0.958-4.963-0.958c-1.793,0-3.407,0.406-4.963,0.958
		l-9.304,3.431c-4.166,1.524-5.552,2.922-5.552,6.596v18.835c0,4.18,1.927,6.44,6.669,6.444h26.296
		c4.743-0.004,6.669-2.266,6.669-6.444v-18.835C419.887,289.178,418.501,287.781,414.335,286.256z M419.416,311.688
		c0,4.041-1.966,5.972-6.198,5.975h-26.296c-4.231-0.003-6.198-1.934-6.198-5.975v-18.512c0-3.328,0.681-4.838,5.081-6.449
		l9.304-3.43c1.556-0.552,3.17-0.973,4.963-0.973c1.792,0,3.405,0.421,4.963,0.973l9.302,3.43c4.402,1.611,5.081,3.121,5.081,6.449
		L419.416,311.688L419.416,311.688z"/>
	<g>
		<path fill="#FFD300" d="M388.695,302.943v0.59c0.42,0,0.649,0.059,0.769,0.177c0.061,0.06,0.101,0.175,0.103,0.31
			c0.001,0.121-0.018,0.211-0.073,0.451c-0.204,0.789-0.948,3.658-1.074,4.125c0,0-0.746-3.016-1.038-4.191
			c-0.062-0.25-0.091-0.424-0.092-0.471c0-0.117,0.027-0.199,0.086-0.258c0.1-0.1,0.338-0.143,0.718-0.143l0.001-0.59h-3.195v0.59
			c0.4,0,0.511,0.09,0.594,0.424c0,0,0.338,1.336,0.366,1.453l-0.936,3.201c0,0-0.776-3.195-1.026-4.258
			c-0.047-0.195-0.062-0.295-0.064-0.355c-0.006-0.143,0.027-0.257,0.096-0.326c0.096-0.094,0.26-0.139,0.57-0.139l-0.001-0.59
			h-3.039l-0.001,0.59c0.354,0,0.477,0.095,0.561,0.422l1.974,7.598h0.732l1.415-5.047l1.293,5.047h0.756l1.906-6.754
			c0.245-0.865,0.326-1.266,0.905-1.266l-0.001-0.59H388.695z"/>
		<g>
			<path fill="#FFD300" d="M418.486,310.957c-0.491-0.021-0.728-0.139-0.728-0.615v-3.48c0-0.616-0.165-1.106-0.475-1.418
				c-0.247-0.246-0.586-0.377-0.98-0.377c-0.575,0-1.089,0.31-1.433,0.918v-0.764l-2.185,0.081v0.536
				c0.503,0.036,0.729,0.143,0.729,0.619v3.885c0,0.477-0.198,0.58-0.729,0.615v0.566h3.053v-0.566
				c-0.537-0.035-0.774-0.135-0.774-0.615v-3.062c0-0.428,0.175-0.899,0.426-1.15c0.121-0.121,0.25-0.184,0.384-0.184
				c0.09,0,0.166,0.031,0.229,0.095c0.104,0.104,0.158,0.284,0.158,0.522v4.961h2.325V310.957z"/>
			<path fill="#FFD300" d="M411.53,305.066c-0.648,0.006-1.144,0.658-1.372,1.356v-1.202l-2.206,0.08v0.536
				c0.521,0.041,0.772,0.138,0.772,0.619v3.885c0,0.481-0.229,0.578-0.772,0.617v0.563h3.262v-0.563
				c-0.67-0.035-0.938-0.256-0.938-0.748v-1.707c0-0.771,0.254-1.856,0.727-2.444c-0.041,0.111-0.068,0.26-0.07,0.358
				c-0.01,0.343,0.089,0.595,0.255,0.763c0.134,0.133,0.309,0.198,0.521,0.198c0.182,0,0.353-0.075,0.495-0.218
				c0.207-0.208,0.326-0.535,0.326-0.898c0-0.339-0.096-0.744-0.335-0.959C412.003,305.133,411.792,305.062,411.53,305.066z"/>
		</g>
		<path fill="#FFD300" d="M395.796,301.041c0,0.727-0.229,1.34-0.66,1.771c-0.472,0.471-1.174,0.721-2.033,0.721h-3.771l-0.001-0.59
			c0.73,0,0.873-0.23,0.873-0.687V296.2c0-0.25-0.045-0.407-0.146-0.509c-0.123-0.123-0.291-0.18-0.725-0.177v-0.59h3.904
			c0.77,0,1.333,0.163,1.681,0.538c0.416,0.449,0.523,0.997,0.521,1.594c-0.007,0.85-0.499,1.589-1.481,1.849
			c0.541,0.047,0.962,0.235,1.284,0.573C395.604,299.858,395.796,300.398,395.796,301.041z M393.544,299.671
			c-0.222-0.218-0.552-0.309-1.145-0.309h-0.47v2.822c0,0.262,0.062,0.451,0.187,0.576c0.124,0.123,0.308,0.17,0.562,0.184
			c0.896,0.05,1.286-0.762,1.312-1.651C394.013,300.43,393.896,300.019,393.544,299.671z M393.327,295.862
			c-0.167-0.19-0.479-0.352-0.811-0.348c-0.189,0.001-0.354,0.043-0.444,0.133c-0.098,0.097-0.143,0.249-0.143,0.479v2.573h0.302
			c0.935,0,1.469-0.415,1.469-1.542C393.7,296.579,393.613,296.185,393.327,295.862z"/>
		<path fill="#FFD300" d="M395.587,311.386c0.044-0.104,0.065-0.179,0.134-0.179c0.035,0,0.125,0.045,0.227,0.104
			c0.251,0.146,0.633,0.367,1.197,0.365c1.191-0.001,2.173-0.759,2.179-2.088c0.005-1.037-0.552-1.664-1.798-2.054
			c-0.271-0.085-0.477-0.157-0.773-0.317c-0.275-0.148-0.433-0.408-0.433-0.718c0-0.247,0.086-0.462,0.238-0.603
			c0.138-0.125,0.277-0.201,0.533-0.213c0.603-0.029,1.027,0.479,1.281,1.364h0.511v-1.83h-0.472c0,0-0.022,0.093-0.036,0.138
			c-0.016,0.051-0.043,0.137-0.079,0.135c-0.053,0-0.081-0.021-0.142-0.059c-0.22-0.13-0.46-0.361-1.154-0.369
			c-1.037-0.015-1.915,0.707-1.959,1.906c-0.026,0.739,0.298,1.282,0.64,1.535c0.431,0.316,0.763,0.424,1.124,0.564
			c0.919,0.361,1.163,0.596,1.162,1.099c-0.001,0.532-0.368,0.89-0.873,0.89c-0.637,0-1.258-0.453-1.48-1.705h-0.515v2.174h0.433
			C395.53,311.525,395.562,311.447,395.587,311.386z"/>
		<path fill="#FFD300" d="M402.706,309.352v0.694c0,0.622-0.215,0.881-0.551,0.882c-0.141,0-0.245-0.037-0.322-0.115
			c-0.115-0.114-0.17-0.319-0.17-0.631v-4.344h1.523v-0.619h-1.523v-2.216h-0.441c-0.044,0.358-0.123,1.894-1.883,2.274v0.561h0.775
			v4.014c0,0.769,0.177,1.148,0.416,1.402c0.281,0.301,0.631,0.422,1.154,0.422c0.552,0,0.9-0.131,1.15-0.381
			c0.234-0.232,0.388-0.57,0.388-1.049v-0.895H402.706L402.706,309.352z"/>
		<path fill="#FFD300" d="M394.518,309.352c-0.139,1.035-0.599,2.326-2.153,2.328c-0.521,0.002-1.29-0.176-1.875-0.986
			c-0.388-0.536-0.641-1.311-0.641-2.308c0-1.954,0.984-3.319,2.395-3.319c0.551,0,1.011,0.181,1.368,0.537
			c0.548,0.549,0.838,1.51,0.838,2.782v0.036h-2.934c0.004,1.203,0.18,1.963,0.535,2.32c0.163,0.162,0.359,0.238,0.603,0.24
			c0.771,0.008,1.127-0.83,1.277-1.631H394.518L394.518,309.352z M392.534,305.816c-0.089-0.09-0.196-0.133-0.327-0.133
			s-0.238,0.043-0.327,0.133c-0.249,0.25-0.362,0.863-0.364,1.985h1.384C392.896,306.68,392.783,306.066,392.534,305.816z"/>
		<path fill="#FFD300" d="M408.837,301.195v0.699c0,0.621-0.215,0.881-0.551,0.881c-0.14,0-0.245-0.037-0.323-0.115
			c-0.113-0.114-0.169-0.32-0.169-0.631v-4.344h1.524v-0.619h-1.524v-2.216h-0.441c-0.117,0.375-0.122,1.894-1.883,2.276v0.559
			h0.774v4.014c0,0.768,0.178,1.148,0.416,1.402c0.283,0.299,0.632,0.422,1.156,0.422c0.551,0,0.899-0.131,1.149-0.381
			c0.234-0.233,0.387-0.57,0.387-1.049v-0.898H408.837L408.837,301.195z"/>
		<path fill="#FFD300" d="M400.801,301.193c-0.139,1.035-0.599,2.324-2.154,2.326c-0.521,0.002-1.29-0.176-1.874-0.986
			c-0.388-0.535-0.641-1.311-0.641-2.307c0-1.955,0.984-3.32,2.395-3.32c0.551,0,1.011,0.181,1.366,0.538
			c0.55,0.548,0.84,1.51,0.84,2.782v0.036h-2.934c0.003,1.204,0.179,1.962,0.535,2.32c0.162,0.162,0.359,0.238,0.602,0.242
			c0.772,0.007,1.127-0.829,1.278-1.631H400.801z M398.817,297.657c-0.091-0.089-0.196-0.132-0.327-0.132s-0.238,0.043-0.327,0.132
			c-0.25,0.25-0.362,0.863-0.364,1.986h1.383C399.179,298.521,399.066,297.907,398.817,297.657z"/>
		<path fill="#FFD300" d="M407.976,309.352c-0.139,1.035-0.6,2.326-2.154,2.328c-0.521,0.002-1.29-0.176-1.874-0.986
			c-0.389-0.536-0.641-1.311-0.641-2.308c0-1.954,0.983-3.319,2.395-3.319c0.55,0,1.01,0.181,1.367,0.537
			c0.549,0.549,0.838,1.51,0.838,2.782v0.036h-2.933c0.003,1.203,0.18,1.963,0.535,2.32c0.162,0.162,0.359,0.238,0.603,0.24
			c0.771,0.008,1.126-0.828,1.276-1.629L407.976,309.352z M405.991,305.816c-0.089-0.09-0.195-0.133-0.327-0.133
			c-0.13,0-0.237,0.043-0.326,0.133c-0.25,0.25-0.362,0.863-0.364,1.985h1.383C406.354,306.68,406.241,306.066,405.991,305.816z"/>
		<path fill="#FFD300" d="M401.845,303.048c0.053,0.001,0.124,0.045,0.227,0.104c0.251,0.146,0.632,0.365,1.196,0.365
			c1.192-0.002,2.174-0.76,2.18-2.088c0.005-1.039-0.554-1.665-1.799-2.055c-0.271-0.084-0.476-0.157-0.772-0.317
			c-0.276-0.148-0.434-0.408-0.434-0.717c0-0.247,0.091-0.458,0.24-0.604c0.106-0.103,0.276-0.2,0.532-0.212
			c0.603-0.029,1.027,0.48,1.28,1.366h0.511v-1.831h-0.472c0,0-0.021,0.092-0.035,0.137c-0.016,0.051-0.043,0.136-0.08,0.135
			c-0.052-0.001-0.081-0.022-0.141-0.058c-0.22-0.129-0.461-0.362-1.155-0.371c-1.036-0.013-1.915,0.707-1.958,1.908
			c-0.027,0.739,0.298,1.283,0.64,1.535c0.43,0.317,0.763,0.423,1.124,0.565c0.919,0.36,1.163,0.596,1.162,1.099
			c-0.001,0.532-0.369,0.891-0.874,0.891c-0.636,0-1.257-0.453-1.48-1.705h-0.514v2.174h0.439
			C401.682,303.227,401.706,303.047,401.845,303.048z"/>
	</g>
	<g>
		<path fill="#EC1B2E" d="M396.673,293.696l-2.375-5.355l0.324-0.543l0.681,0.31l2.479,5.59L396.673,293.696z M397.698,288.16
			l0.324-0.543l0.681,0.31l1.039,2.343l-0.555,1.246L397.698,288.16z M402.368,293.697l2.478-5.59l0.682-0.31l0.322,0.543
			l-2.375,5.355L402.368,293.697z M399.174,287.482l-1.376-0.591l-0.782,1.247l1.833,4.132l-0.515,1.158l-2.56-5.766l-1.376-0.59
			l-0.783,1.246l2.651,5.982h2.354l0.562-1.272l0.563,1.271h0.649l0.562-1.271l0.562,1.272h2.354l2.652-5.982l-0.782-1.246
			l-1.376,0.59l-2.561,5.766l-0.516-1.158l1.833-4.132l-0.782-1.247l-1.376,0.591l-0.896,2.025L399.174,287.482z M400.961,291.516
			l-0.555-1.246l1.039-2.343l0.681-0.31l0.324,0.543L400.961,291.516z M400.074,291.028l0.552,1.245l-0.552,1.243l-0.552-1.243
			L400.074,291.028z"/>
		<path fill="#EC1B2E" d="M400.527,283.941l0.769,1.724l-0.771,1.739h-0.899l-0.771-1.743l0.767-1.72H400.527z M400.074,284.417
			l-0.555,1.244l0.555,1.245l0.554-1.245L400.074,284.417z"/>
	</g>
	<path fill="#FFD430" stroke="#FFD430" stroke-width="0.2" d="M416.759,312.43h0.495c0.198,0,0.321,0.107,0.321,0.275
		c0,0.127-0.058,0.232-0.185,0.268v0.004c0.123,0.022,0.147,0.112,0.158,0.217c0.009,0.104,0.003,0.219,0.062,0.291h-0.156
		c-0.04-0.043-0.018-0.156-0.038-0.262c-0.015-0.103-0.04-0.188-0.176-0.188h-0.343v0.45h-0.141L416.759,312.43L416.759,312.43z
		 M417.19,312.914c0.132,0,0.243-0.033,0.243-0.188c0-0.104-0.057-0.181-0.188-0.181h-0.349v0.367L417.19,312.914L417.19,312.914z"
		/>
	<circle fill="none" stroke="#FFD430" stroke-width="0.5" cx="417.149" cy="312.988" r="0.973"/>
</g>
</svg>
