<?xml version="1.0" encoding="utf-8"?>
<!-- Generator: Adobe Illustrator 16.0.0, SVG Export Plug-In . SVG Version: 6.00 Build 0)  -->
<!DOCTYPE svg PUBLIC "-//W3C//DTD SVG 1.1//EN" "http://www.w3.org/Graphics/SVG/1.1/DTD/svg11.dtd">
<svg version="1.1" id="Layer_1" xmlns="http://www.w3.org/2000/svg" xmlns:xlink="http://www.w3.org/1999/xlink" x="0px" y="0px"
	 width="215.962px" height="127.067px" viewBox="0 0 215.962 127.067" enable-background="new 0 0 215.962 127.067"
	 xml:space="preserve">
<g>
	<path fill="#E6B252" d="M0,83.948c0,0,31.408,5.958,52.022-2.57l49.573,6.058c0,0-28.959,25.218-51.705,20.952
		C27.144,104.126,0,83.948,0,83.948"/>
	
		<linearGradient id="SVGID_1_" gradientUnits="userSpaceOnUse" x1="-90.1895" y1="1744.6533" x2="15.6507" y2="1744.6533" gradientTransform="matrix(0.7052 0 0 0.7052 -1107.3213 -1132.5458)">
		<stop  offset="0" style="stop-color:#C01423"/>
		<stop  offset="1" style="stop-color:#6F0000"/>
	</linearGradient>
	<path fill="url(#SVGID_1_)" d="M0.145,86.608c0,0,31.41,5.957,52.021-2.573l49.575,6.062c0,0-28.959,25.213-51.708,20.949
		C27.289,106.782,0.145,86.608,0.145,86.608"/>
	<g>
		<path d="M103.516,0C49.732,0,7.602,21.743,7.602,49.501c0,27.761,42.131,49.503,95.914,49.503
			c53.78,0,95.912-21.742,95.912-49.503C199.428,21.743,157.295,0,103.516,0z"/>
		<path fill="#E6B252" d="M168.052,16.462c-17.287-8.33-40.206-12.917-64.537-12.917S56.264,8.132,38.974,16.462
			c-17.943,8.64-27.823,20.375-27.823,33.039c0,12.664,9.879,24.398,27.823,33.045c17.291,8.322,40.21,12.911,64.542,12.911
			c24.329,0,47.249-4.588,64.537-12.911c17.943-8.646,27.829-20.381,27.829-33.045C195.881,36.837,185.995,25.102,168.052,16.462z"
			/>
		
			<radialGradient id="SVGID_2_" cx="-269.3335" cy="-74.0044" r="99.5113" gradientTransform="matrix(0.7052 0 0 0.7052 -879.0118 -1070.9286)" gradientUnits="userSpaceOnUse">
			<stop  offset="0" style="stop-color:#00B9F2"/>
			<stop  offset="0.116" style="stop-color:#00B5EE"/>
			<stop  offset="0.2482" style="stop-color:#00ACE8"/>
			<stop  offset="0.3884" style="stop-color:#009FDE"/>
			<stop  offset="0.5341" style="stop-color:#008DD1"/>
			<stop  offset="0.6828" style="stop-color:#0078C1"/>
			<stop  offset="0.7022" style="stop-color:#0075BF"/>
		</radialGradient>
		<path fill="url(#SVGID_2_)" d="M103.516,92.637c49.452,0,89.536-19.315,89.536-43.135c0-23.823-40.083-43.132-89.536-43.132
			c-49.454,0-89.544,19.309-89.544,43.132C13.972,73.321,54.062,92.637,103.516,92.637z"/>
	</g>
	<path fill="#E6B252" d="M206.37,95.625l9.308,23.672c-26.735-13.39-62.431-12.884-113.93,1.456
		c-59.2,16.482-101.598-4.515-101.598-4.515V84.435c0,0,42.398,19.968,101.598,3.486c51.499-14.344,87.137-21.621,114.215-8.755
		L206.37,95.625z"/>
	<path fill="#ED1C2E" d="M206.71,95.287l7.482,19.709c-25.195-13.499-60.946-11.294-112.445,3.05
		c-59.2,16.483-101.598-4.509-101.598-4.509V86.803c0,0,42.398,19.97,101.598,3.487c51.499-14.341,87.25-19.593,112.445-8.145
		L206.71,95.287z"/>
</g>
<g>
	<g>
		<path fill="#0054A6" d="M111.685,21.135L111.685,21.135L111.685,21.135z"/>
		<path fill="#FEC46F" d="M156.367,61.28c15.798-2.576,27.552,0.681,27.552,0.681c-1.146-28.013-26.17-36.078-52.567-31.769
			c-20.373,3.326-14.889-3.879-11.229-4.464c0,0-2.211-4.407-9.427-2.575c-0.162,0.042-0.313,0.094-0.465,0.144
			c-1.288-1.49-3.13-3.239-5.821-3.175c-2.692,0.065-4.397,1.805-5.757,3.199c-0.137-0.052-0.28-0.1-0.426-0.144
			c-6.864-2.083-9.831,2.353-9.831,2.353c3.495,0.571,6.545,8.225-12.805,4.761c-22.365-4.004-44.632,1.779-52.21,32.546
			c9.874-2.755,16.529,0.89,30.998-0.918c18.368-2.296,24.296,1.547,32.604,7.806c8.299,6.255,18.027,9.091,28.707,3.36
			c7.39-3.964,15.836-2.442,15.836-2.442c-1.651-4.69-9.517-7.479-9.517-7.479s2.81,0.178,5.587,0.232
			C137.745,63.595,140.554,63.86,156.367,61.28z"/>
		<path fill="#FFFFFF" d="M106.63,62.725c0,0,14.376-3.045,22.113,6.824c0,0-4.519-1.353-15.74,3.642
			c-6.249,2.782-13.343,2.639-20.27-1.898c-6.301-4.128-13.449-13.189-38.816-10.99c-13.316,1.155-22.392-2.718-27.094,0.237
			C38.306,24.493,68.554,30.444,77.55,32.162c5.881,1.124,14.886,1.569,15.722-2.324c0.736-3.415-3.544-4.625-3.544-4.625
			c3.597-2.461,10.403-1.607,12.842,2.357c0,0-0.277-2.697-3.474-4.074c1.248-0.604,1.533-1.626,5.146-1.632
			c3.614-0.006,4.413,1.013,5.493,1.613c-3.586,1.39-4.618,4.092-4.618,4.092c3.55-3.977,10.6-4.855,13.508-2.407
			c0,0-4.423,0.368-4.414,3.907c0.016,4.751,8.459,4.147,14.648,3.005c9.485-1.748,50.15-5.628,52.306,27.362
			c0,0-9.001-2.799-27.663,0.957c-9.178,1.846-19.894,2.32-26.627,1.096C115.24,59.373,110.994,60.364,106.63,62.725z"/>
		<g>
			<g>
				<g>
					<path fill="#ED1C24" d="M55.233,42.536c-0.56,2.151-2.171,2.478-3.534,2.522l-1.023,0.033l1.259-4.808l1.206-0.044
						C54.963,40.166,55.773,40.458,55.233,42.536z M58.29,49.902c0.626-2.335-0.823-4.277-3.943-4.044
						c2.718-0.201,4.857-2.052,5.27-4.037c0.66-3.16-2.04-4.169-7.914-3.755l-4.925,0.135c0,0,0.787,0.989-1.086,8.184
						c-1.814,6.971-3.482,8.752-3.482,8.752l6.055,0.007C52.468,55.172,57.324,53.524,58.29,49.902z M53.481,49.901
						c-0.68,2.535-2.697,2.867-3.691,2.888l-1.074,0.023l1.474-5.618l1.105-0.031C53.292,47.104,54.031,47.854,53.481,49.901z"/>
					<path fill="#ED1C24" d="M58.85,55.108l4.405-16.932l4.383-0.003l-4.396,16.928L58.85,55.108z"/>
					<path fill="#ED1C24" d="M92.166,37.988l-5.704,0.148c0,0,0.682,1.255-0.996,7.706c-1.603,6.152-3.068,8.52-3.473,9.09
						c-3.779-2.97-3.793-7.351-3.793-7.351c3.484-0.841,5.229-2.984,5.647-5.246c0.559-3.021-2.485-4.625-8.029-4.38l-5.854,0.211
						c0,0,0.85,0.762-0.976,7.76c-1.925,7.401-3.556,9.175-3.556,9.175l5.805,0.001l1.714-6.613l0.499-0.003
						c0,0,0.416,4.665,3.06,6.588l5.375,0.001c0,0.001-0.003,0.004-0.003,0.004l5.711-0.03c5.497,0.271,10.972-2.073,12.555-8.162
						C101.933,40.047,98.793,37.845,92.166,37.988z M74.321,46.553l-0.799,0.004l1.668-6.438l0.859-0.011
						c2.262-0.039,3.225,0.505,2.621,2.828C77.941,45.745,76.577,46.541,74.321,46.553z M88.992,52.975l-0.75-0.017l3.341-12.766
						l1.173,0.006c3.668,0.349,3.265,2.796,2.26,6.665C94.132,50.257,92.808,52.822,88.992,52.975z"/>
					<path fill="#ED1C24" d="M99.917,51.875c1.445,0.781,2.181,0.944,3.488,0.974c1.967,0.043,3.543-0.897,3.849-2.034
						c0.22-0.825-0.311-1.559-1.067-2.192l-2.291-1.892c-1.142-0.931-2.013-2.188-1.466-4.229c0.729-2.721,4.542-4.644,8.576-4.639
						c1.414,0,2.604,0.069,3.606,0.303l-1.714,2.78c-0.677-0.79-1.402-0.954-2.614-0.957c-2.067-0.006-3.347,0.933-3.6,1.876
						c-0.254,0.944,0.349,1.503,0.945,1.972l2.2,1.71c1.898,1.486,2.493,2.615,1.981,4.53c-0.77,2.878-5.121,5.198-9.475,5.086
						c-1.211-0.033-3.669-0.203-4.61-0.567L99.917,51.875z"/>
					<path fill="#ED1C24" d="M145.595,54.959l12.534-0.03l0.083-3.059c0,0-0.526,0.438-2.75,0.662
						c-1.506,0.153-3.339-0.116-3.339-0.116l0.99-3.814c2.938-1.197,5.878-1.09,5.878-1.09l0.764-2.909c0,0-2.557-0.353-5.906,1.231
						l1.498-5.649c3.737-0.274,5.705,0.529,5.705,0.529l1.361-2.677l-15.143,0.032c-2.572,1.486-4.852,4.853-5.745,6.194
						c-0.442-3.105-2.146-6.186-2.146-6.186l-17.107,0.032c0,0,0.767,0.956-1.143,8.293c-1.747,6.708-3.437,8.601-3.437,8.601
						l12.536-0.03l0.081-3.061c0,0-0.525,0.44-2.748,0.666c-1.508,0.149-3.34-0.12-3.34-0.12l0.99-3.814
						c2.939-1.197,5.879-1.088,5.879-1.088l0.761-2.908c0,0-2.558-0.355-5.907,1.231l1.498-5.65c3.734-0.277,5.705,0.53,5.705,0.53
						l1.001-1.965c0.94,1.492,2.988,5.134,3.156,8.855l-1.888,7.317l5.146-0.011l1.899-7.348c3.209-5.415,6.377-8.016,7.837-9.022
						c0.088,0.827,0.004,2.879-1.266,7.774C147.284,53.066,145.595,54.959,145.595,54.959z"/>
				</g>
				<path fill="#ED1C24" d="M164.609,53.496c-0.223,0.846-1.151,1.509-2.209,1.511c-1.109,0.002-1.646-0.66-1.423-1.504
					c0.219-0.846,1.15-1.512,2.209-1.514C164.294,51.986,164.826,52.651,164.609,53.496z M165.172,53.455
					c0.272-1.05-0.547-1.775-1.901-1.775c-1.319,0.003-2.602,0.871-2.861,1.864c-0.273,1.048,0.548,1.772,1.911,1.768
					C163.63,55.311,164.91,54.462,165.172,53.455z M163.661,54.425l-0.225-0.886c0.283-0.121,0.474-0.258,0.543-0.522
					c0.075-0.3-0.226-0.485-0.833-0.486l-1.008,0.002l-0.492,1.896l0.6-0.001l0.191-0.726h0.406l0.132,0.724H163.661z
					 M163.32,53.095c-0.063,0.243-0.264,0.364-0.566,0.366l-0.252-0.003l0.174-0.683l0.286-0.001
					C163.234,52.773,163.372,52.894,163.32,53.095z"/>
			</g>
			<g>
				<path fill="#D1D3D4" d="M113.304,41.379c-0.009,0.001-0.018-0.005-0.026-0.005c0.265,0.142,0.51,0.34,0.743,0.614l1.718-2.784
					c-0.287-0.063-0.59-0.117-0.907-0.157l-1.395,2.256C113.414,41.348,113.36,41.378,113.304,41.379z"/>
				<path fill="#D1D3D4" d="M112.764,41.04c-0.064-0.079-0.134-0.144-0.203-0.208c-0.51-0.33-1.099-0.409-1.923-0.411
					c-2.037-0.006-3.211,0.911-3.44,1.769c-0.187,0.689,0.139,1.151,0.574,1.547c-0.078-0.242-0.093-0.515-0.009-0.83
					c0.259-0.945,1.538-1.884,3.603-1.879c0.722,0.004,1.27,0.067,1.74,0.281c-0.066-0.074-0.133-0.144-0.203-0.209
					C112.85,41.1,112.799,41.078,112.764,41.04z"/>
				<path fill="#D1D3D4" d="M134.915,40.451c-0.17-0.32-0.333-0.614-0.485-0.874l-0.778,1.529c-0.038,0.072-0.135,0.104-0.222,0.067
					c-0.018-0.007-1.941-0.764-5.499-0.519c-0.042,0.164-0.913,3.44-1.257,4.746c0.285-0.117,0.565-0.218,0.839-0.308l1.014-3.824
					c3.733-0.276,5.706,0.529,5.706,0.529L134.915,40.451z"/>
				<path fill="#D1D3D4" d="M95.058,41.312c-0.042-0.053-0.087-0.1-0.134-0.147c-0.44-0.281-1.04-0.46-1.814-0.534
					c0,0-0.836-0.005-1.042-0.006c-0.052,0.202-2.718,10.38-3.19,12.193c0.059,0,0.095,0.003,0.103,0.003
					c0.23-0.01,0.452-0.03,0.667-0.058l3.017-11.53l1.173,0.006c0.547,0.051,0.997,0.156,1.375,0.298
					C95.166,41.458,95.117,41.381,95.058,41.312z"/>
				<path fill="#D1D3D4" d="M84.267,43.079c-0.621,2.386-2.617,4.151-5.544,4.896c0.025,0.524,0.246,3.103,2.083,5.471
					c-1.516-2.442-1.526-4.82-1.526-4.82c3.487-0.845,5.233-2.987,5.651-5.25c0.202-1.094-0.073-2-0.767-2.7
					c0.268,0.578,0.338,1.235,0.203,1.969C84.337,42.792,84.307,42.937,84.267,43.079z"/>
				<path fill="#D1D3D4" d="M142.15,43.104c-0.665-2.212-1.648-3.989-1.648-3.989l-0.166,0.002c0.452,0.945,1.152,2.602,1.552,4.366
					C141.971,43.361,142.056,43.237,142.15,43.104z"/>
				<path fill="#D1D3D4" d="M160.834,45.641c0,0-0.271-0.036-0.748-0.033l-0.582,2.22c-0.017,0.071-0.084,0.116-0.163,0.114
					c-0.031,0-2.888-0.088-5.735,1.049c-0.03,0.118-0.658,2.54-0.866,3.343c0.208,0.02,0.462,0.041,0.739,0.056l0.715-2.75
					c2.938-1.2,5.88-1.089,5.88-1.089L160.834,45.641z"/>
				<path fill="#D1D3D4" d="M161.334,41.13c-0.018-0.007-1.945-0.764-5.503-0.521c-0.042,0.165-0.912,3.44-1.258,4.746
					c0.291-0.115,0.569-0.216,0.841-0.308l1.015-3.824c3.734-0.277,5.702,0.527,5.702,0.527l1.361-2.672l-0.931,0.003l-1.009,1.976
					C161.514,41.135,161.42,41.166,161.334,41.13z"/>
				<path fill="#D1D3D4" d="M132.933,45.687c0,0-0.272-0.036-0.75-0.034l-0.579,2.218c-0.022,0.071-0.088,0.115-0.166,0.114
					c-0.028-0.001-2.886-0.087-5.732,1.05c-0.033,0.119-0.66,2.541-0.867,3.341c0.209,0.021,0.461,0.042,0.739,0.06l0.715-2.755
					c2.94-1.195,5.878-1.086,5.878-1.086L132.933,45.687z"/>
				<path fill="#D1D3D4" d="M78.608,41.26c-0.046-0.17-0.115-0.313-0.215-0.426c-0.408-0.217-1.042-0.311-1.983-0.297
					c0,0-0.55,0.01-0.735,0.011c-0.048,0.186-1.205,4.651-1.515,5.851c0.09,0,0.154-0.001,0.154-0.001
					c0.207,0,0.409-0.01,0.605-0.025l1.352-5.212l0.859-0.014C77.714,41.138,78.202,41.17,78.608,41.26z"/>
				<path fill="#D1D3D4" d="M150.038,40.66c0.062-0.5,0.097-0.898,0.104-1.222c-1.612,1.237-4.385,3.813-7.171,8.507
					c-0.013,0.04-1.894,7.329-1.894,7.329c-0.018,0.065-0.081,0.111-0.157,0.112l-4.263,0.009l-0.162,0.61l5.149-0.012l1.9-7.347
					C145.975,44.547,148.375,42.063,150.038,40.66z"/>
				<path fill="#D1D3D4" d="M112.16,47.733c0.415,0.797,0.445,1.622,0.167,2.663c-0.791,2.934-5.204,5.312-9.643,5.2
					c-0.702-0.018-2.357-0.106-3.587-0.316l-0.29,0.356c0.94,0.366,3.397,0.539,4.609,0.569c4.356,0.112,8.705-2.211,9.479-5.089
					C113.268,49.719,113.048,48.738,112.16,47.733z"/>
				<path fill="#D1D3D4" d="M82.522,55.507h-5.616c0.209,0.223,0.437,0.425,0.684,0.607l11.098-0.036
					c5.489,0.285,10.96-2.062,12.545-8.149c0.856-3.293,0.573-5.506-0.688-6.905c0.783,1.462,0.82,3.498,0.122,6.183
					c-1.69,6.491-7.674,8.524-12.702,8.264l-4.579,0.026L82.522,55.507z"/>
				<path fill="#D1D3D4" d="M130.8,53.214l-0.055,2.047c-0.001,0.079-0.07,0.142-0.163,0.145l-11.384,0.026
					c-0.269,0.433-0.425,0.609-0.425,0.609l12.536-0.028l0.079-3.06C131.389,52.954,131.246,53.07,130.8,53.214z"/>
				<path fill="#D1D3D4" d="M73.373,49.169c-0.31,1.198-1.621,6.251-1.621,6.251c-0.016,0.066-0.081,0.114-0.159,0.114l-4.657-0.001
					c-0.266,0.438-0.42,0.605-0.42,0.605l5.805,0.002l1.398-5.397C73.544,50.124,73.436,49.573,73.373,49.169z"/>
				<path fill="#D1D3D4" d="M159.293,52.91c0,0-0.143,0.117-0.591,0.264l-0.052,2.042c-0.004,0.083-0.074,0.145-0.163,0.146
					l-11.387,0.024c-0.265,0.434-0.426,0.611-0.426,0.611l12.536-0.028L159.293,52.91z"/>
				<path fill="#D1D3D4" d="M52.084,44.879l0.93-3.555l1.207-0.044c0.377-0.018,0.708-0.013,0.996,0.017
					c-0.018-0.193-0.069-0.354-0.151-0.475c-0.312-0.136-0.802-0.183-1.564-0.149c0,0-0.885,0.032-1.085,0.04
					c-0.041,0.172-0.838,3.203-1.1,4.202c0.197-0.005,0.366-0.013,0.366-0.013C51.815,44.898,51.952,44.892,52.084,44.879z"/>
				<path fill="#D1D3D4" d="M52.376,48.203c0.402-0.011,0.749,0.011,1.047,0.069c-0.044-0.167-0.116-0.313-0.216-0.432
					c-0.352-0.185-0.862-0.265-1.553-0.246c0,0-0.784,0.024-0.979,0.029c-0.045,0.178-1.028,3.914-1.318,5.021
					c0.219-0.004,0.418-0.007,0.42-0.007c0.107-0.003,0.224-0.011,0.342-0.025l1.151-4.377L52.376,48.203z"/>
				<path fill="#D1D3D4" d="M60.087,42.319c-0.419,1.616-1.881,2.982-3.704,3.611c0.386,0.118,0.732,0.284,1.028,0.501
					c1.729-0.711,2.981-2.103,3.284-3.569c0.249-1.182,0.024-2.063-0.659-2.681c0.223,0.537,0.255,1.185,0.094,1.955
					C60.119,42.193,60.104,42.257,60.087,42.319z"/>
				<path fill="#D1D3D4" d="M58.667,47.823c0.315,0.692,0.373,1.525,0.137,2.399c-0.993,3.716-5.976,5.383-10.185,5.354
					l-4.899-0.008c-0.272,0.44-0.431,0.606-0.431,0.606l6.055,0.01c4.205,0.028,9.062-1.62,10.03-5.241
					C59.705,49.701,59.447,48.576,58.667,47.823z"/>
				<path fill="#D1D3D4" d="M67.965,39.215l-4.209,16.203c-0.015,0.067-0.08,0.114-0.159,0.115l-3.508,0.005l-0.16,0.608
					l4.395-0.006l4.396-16.927L67.965,39.215z"/>
			</g>
		</g>
		<path fill="#0054A6" d="M117.888,66.001c-0.071,0.502-0.803,0.912-1.636,0.915c-0.833,0-1.451-0.407-1.381-0.908
			c0.07-0.503,0.802-0.912,1.637-0.915C117.343,65.093,117.958,65.498,117.888,66.001z"/>
	</g>
</g>
<g>
	<path fill="#FFFFFF" d="M10.039,109.19l2.469,0.656l-0.056-0.221l-0.044-0.233c-0.07-0.402-0.096-0.719-0.094-1.25l0.022-3.357
		l1.248,0.332c0.207,0.054,0.604,0.188,1.22,0.471c0.104,0.042,0.191,0.081,0.279,0.134l0.176,0.09l0.206,0.114l0.008-1.383
		l-0.19,0.008l-0.177,0.011c-0.221,0-0.472-0.022-0.707-0.055c-0.279-0.03-0.559-0.09-0.809-0.156l-1.233-0.328l0.025-4.08
		l1.675,0.445c0.544,0.146,0.999,0.326,1.822,0.72l0.396,0.193l0.191,0.095l-0.184-1.17l-6.129-1.627l0.043,0.202l0.042,0.189
		c0.056,0.354,0.084,0.715,0.082,1.054l-0.048,7.599c-0.003,0.457-0.035,0.801-0.125,1.192l-0.045,0.178L10.039,109.19z"/>
	<path fill="#FFFFFF" d="M21.601,106.928l0.004-0.633l0-0.134c-0.009-0.989-0.666-1.716-2.386-2.182
		c-0.221-0.051-0.457-0.104-0.691-0.129c-1.605-0.189-2.344,0.321-2.451,0.945c-0.078,0.499,0.391,1.032,1.054,1.022
		c0.088,0.005,0.191-0.015,0.265-0.058c0.207-0.085,0.312-0.223,0.341-0.364c0.196-0.809,0.448-1.019,1.052-0.895
		c0.647,0.131,0.953,0.543,0.977,1.329l-0.001,0.295l-0.001,0.207c-0.018,0.585-0.182,0.768-1.081,1.064
		c-0.089,0.038-0.176,0.062-0.266,0.086l-0.531,0.129l-0.398,0.102c-0.915,0.248-1.211,0.416-1.447,0.701
		c-0.564,0.741-0.249,1.948,0.72,2.583c0.6,0.404,1.335,0.555,2.044,0.35c0.398-0.102,0.709-0.295,0.945-0.58l-0.035,0.921
		l1.97,0.45c-0.027-0.213-0.057-0.398-0.07-0.548l0.001-0.118l-0.012-0.429l-0.012-0.43l-0.014-0.079v-0.088l0.001-0.088
		L21.601,106.928z M19.77,107.629l-0.011,1.841c-0.004,0.53-0.092,0.759-0.389,0.973c-0.074,0.057-0.147,0.099-0.236,0.123
		c-0.634,0.238-1.324-0.185-1.512-0.833c-0.216-0.742,0.112-1.315,1.145-1.67C19.268,107.898,19.474,107.797,19.77,107.629z"/>
	<path fill="#FFFFFF" d="M22.561,112.346l2.118,0.407c-0.043-0.2-0.087-0.371-0.101-0.535l-0.013-0.15l-0.013-0.4l-0.012-0.401
		l0.001-0.104l-0.015-0.105l0-0.088l0.017-2.709c0.002-0.25,0.033-0.45,0.063-0.637c0.139-0.873,0.758-1.005,1.609-0.399
		c0.043,0.038,0.102,0.078,0.146,0.131c0.033-0.658,0.11-1.305,0.262-1.925c-0.44-0.116-0.795-0.05-1.357,0.314
		c-0.178,0.113-0.339,0.259-0.502,0.449l-0.105,0.114l-0.073,0.118l0.006-1.119l-1.97-0.378c0.058,0.202,0.086,0.384,0.1,0.536
		l0.014,0.135l0.013,0.431l0.011,0.502l-0.001,0.176l-0.024,3.933l-0.001,0.177l-0.018,0.498
		C22.711,111.771,22.665,112.026,22.561,112.346z"/>
	<path fill="#FFFFFF" d="M27.119,113.283l2.118,0.293c-0.115-0.356-0.13-0.534-0.14-1.066l-0.012-0.503l0.001-0.131v-0.061
		l0.005-0.662l0.002-0.487l0.008-1.28l0.001-0.147c-0.021-1.432,0.128-1.78,0.734-1.963c1.031-0.315,1.794,0.366,1.832,1.521
		c0.013,0.25,0.011,0.515,0.01,0.767l-0.009,1.399l-0.002,0.354l-0.02,0.852l-0.001,0.177l-0.018,0.514l-0.018,0.41l-0.015,0.115
		c-0.016,0.16-0.047,0.319-0.106,0.501l2.087,0.289c-0.084-0.35-0.113-0.575-0.125-1.078l0.003-0.5l0.001-0.148v-0.043l0.021-1.045
		l0.002-0.324l0.006-1.001l-0.014-0.267c-0.021-1.388,0.115-1.724,0.749-1.901c1.269-0.327,1.809,0.367,1.812,2.165l0.006,1.372
		l-0.008,1.413l-0.011,1.694l1.942,0.267c-0.043-0.212-0.086-0.378-0.1-0.528l0-0.134l-0.026-0.416l0.003-0.516v-0.03l0-0.147
		l0.008-1.149l0.024-1.587c0.059-2.527-0.686-3.515-2.835-3.412c-0.515,0.017-1.002,0.186-1.519,0.512
		c-0.061,0.052-0.134,0.1-0.193,0.151c-0.48-0.818-1.391-1.327-2.568-1.284c-0.62,0.035-1.166,0.223-1.625,0.558l0.004-0.661
		l-1.927-0.267c0.043,0.213,0.057,0.377,0.071,0.525v0.03l0.011,0.518l0.013,0.502l0,0.191l-0.025,3.917l-0.001,0.193l-0.019,0.498
		l-0.017,0.424l0,0.118C27.209,112.927,27.179,113.1,27.119,113.283z"/>
	<path fill="#FFFFFF" d="M43.981,110.545l0.413,0.035l0.089,0.006c0.324,0.014,0.442-0.227,0.241-0.877
		c-0.461-1.542-1.781-2.434-3.402-2.233c-1.518,0.181-2.615,1.384-2.789,3.196c-0.268,2.836,1.811,4.884,4.242,4.485
		c0.502-0.089,0.974-0.286,1.418-0.631l0.133-0.091l0.119-0.108l0.33-1.122l-0.104,0.08l-0.087,0.066
		c-0.18,0.133-0.385,0.248-0.637,0.358c-1.742,0.794-3.194-0.064-3.448-1.884c-0.055-0.46-0.067-0.888-0.021-1.326
		c0.015-0.074,0.016-0.16,0.031-0.249L43.981,110.545z M40.557,109.695l0.03-0.129l0.03-0.146c0.03-0.101,0.061-0.215,0.106-0.316
		c0.149-0.371,0.327-0.605,0.563-0.776c0.622-0.435,1.489-0.125,1.719,0.601c0.188,0.533-0.035,0.868-0.417,0.895
		c-0.132,0.017-0.25,0.022-0.383,0.011L40.557,109.695z"/>
	<path fill="#FFFFFF" d="M45.445,115.351l2.119,0.105c-0.042-0.193-0.086-0.358-0.099-0.52l-0.015-0.147l-0.012-0.398l-0.012-0.398
		v-0.103l-0.014-0.104l0-0.088l0.017-2.709c0.002-0.25,0.034-0.456,0.062-0.644c0.139-0.893,0.758-1.113,1.609-0.629
		c0.045,0.032,0.104,0.065,0.147,0.111c0.033-0.662,0.111-1.32,0.263-1.962c-0.442-0.05-0.796,0.064-1.358,0.508
		c-0.178,0.139-0.341,0.307-0.504,0.521l-0.104,0.126l-0.074,0.129l0.007-1.119l-1.974-0.099c0.059,0.195,0.086,0.374,0.101,0.522
		l0.012,0.133l0.013,0.427l0.012,0.5l-0.002,0.178l-0.024,3.932l0,0.176l-0.018,0.5C45.596,114.755,45.549,115.017,45.445,115.351z"
		/>
	<path fill="#FFFFFF" d="M54.169,110.496c-0.008,1.207,0.265,2.144,0.791,2.929c1.313,1.96,3.223,2.717,5.566,2.198
		c2.153-0.471,3.813-2.256,4.152-4.59c0.583-3.972-2.314-6.726-6.132-6.029c-0.958,0.181-1.8,0.581-2.541,1.215
		C54.822,107.258,54.165,108.699,54.169,110.496z M56.451,110.361c-0.012-0.266,0.003-0.53,0.035-0.796
		c0.095-1.135,0.306-1.83,0.648-2.456c0.908-1.595,2.838-1.913,4.04-0.775c0.717,0.677,1.209,1.933,1.243,3.817
		c0.053,3.224-1.327,4.797-2.976,4.818C57.851,114.999,56.446,113.526,56.451,110.361z"/>
	<path fill="#FFFFFF" d="M65.108,107.985c0.103,0.182,0.189,0.352,0.248,0.508l0.072,0.169l0.129,0.357l0.116,0.343l0.042,0.143
		l0.015,0.044l0.044,0.143l1.613,5.505l1.68-0.151l1.341-4.712l1.267,4.478l1.651-0.15l1.817-5.815l0.061-0.196l0.044-0.137
		l0.136-0.38l0.135-0.394l0.059-0.168c0.075-0.169,0.164-0.354,0.285-0.555l-1.489,0.134c0.102,0.329,0.1,0.55-0.006,1.076
		l-0.091,0.375l-0.03,0.134l-0.045,0.182l-1.174,4.02l-1.079-4.096c-0.115-0.402-0.13-0.519-0.143-0.694
		c0.001-0.339,0.033-0.533,0.093-0.671l0.014-0.044l0.044-0.064l-2.533,0.229l0.03,0.085l0.042,0.071
		c0.058,0.127,0.101,0.271,0.145,0.397l0.058,0.202l0.057,0.245c0.072,0.288,0.114,0.533,0.143,0.767l-1.128,3.928l-1.111-3.77
		l-0.059-0.187l-0.13-0.489l-0.114-0.416l-0.029-0.115c-0.029-0.145-0.042-0.319-0.055-0.525L65.108,107.985z"/>
	<path fill="#FFFFFF" d="M76.646,114.338l2.064-0.295c-0.086-0.326-0.115-0.543-0.112-1.043l0.002-0.501l0.002-0.191l0.005-1.031
		l0.01-1.502c-0.008-1.087,0.038-1.314,0.29-1.69c0.193-0.276,0.46-0.507,0.801-0.645c1.166-0.46,1.604,0.065,1.607,1.874
		l-0.01,1.472l-0.007,1.267l-0.01,1.621l1.961-0.281c-0.044-0.185-0.073-0.357-0.086-0.502l-0.014-0.16l-0.012-0.382l-0.012-0.498
		l0-0.147l0.001-0.045l0.001-0.206l0.005-0.897l0.024-1.504l-0.007-1.264l0.001-0.147c-0.066-1.241-1.196-1.947-2.922-1.303
		c-0.605,0.219-1.152,0.607-1.583,1.109l0.005-0.81l-1.917,0.273c0.044,0.186,0.059,0.347,0.072,0.491v0.088l0.011,0.454l0.013,0.5
		l-0.002,0.161v0.03l-0.024,3.933l-0.002,0.176l-0.017,0.311l-0.001,0.191l-0.031,0.417l-0.001,0.132
		C76.736,113.957,76.706,114.125,76.646,114.338z"/>
	<path fill="#FFFFFF" d="M89.492,107.526l0.413-0.082l0.09-0.018c0.324-0.078,0.442-0.351,0.24-0.944
		c-0.462-1.411-1.785-1.928-3.408-1.271c-1.521,0.609-2.62,2.12-2.793,3.978c-0.268,2.906,1.812,4.364,4.25,3.282
		c0.502-0.231,0.975-0.561,1.42-1.03l0.133-0.13l0.118-0.141l0.332-1.212l-0.104,0.109l-0.089,0.091
		c-0.178,0.182-0.384,0.356-0.636,0.538c-1.746,1.284-3.201,0.836-3.453-0.908c-0.057-0.446-0.069-0.87-0.022-1.319
		c0.015-0.077,0.016-0.166,0.031-0.257L89.492,107.526z M86.06,107.643l0.031-0.139l0.03-0.153c0.03-0.108,0.061-0.232,0.106-0.343
		c0.149-0.413,0.328-0.698,0.564-0.936c0.624-0.606,1.492-0.542,1.723,0.117c0.188,0.479-0.036,0.875-0.418,1.009
		c-0.134,0.055-0.25,0.094-0.384,0.12L86.06,107.643z"/>
	<path fill="#FFFFFF" d="M95.634,103.669c-0.102-0.022-0.191-0.033-0.294-0.04c-2.311-0.239-4.413,1.685-4.548,4.581
		c-0.069,1.427,0.278,2.382,0.909,2.908c1.142,0.975,3.03,0.394,3.878-1.113l-0.006,0.972l1.976-0.426
		c-0.086-0.32-0.113-0.534-0.125-1.031l0.002-0.413l-0.014-0.099l0.001-0.177l0.056-8.85l-1.902,0.409
		c0.029,0.17,0.042,0.329,0.057,0.458l0.013,0.158l-0.003,0.384l0.012,0.423v0.075l-0.001,0.191L95.634,103.669z M92.738,107.66
		c0.001-0.147,0.002-0.295,0.018-0.459c0.097-1.182,0.366-1.859,0.765-2.326c0.549-0.649,1.463-0.742,1.856-0.238
		c0.207,0.266,0.249,0.476,0.242,1.669l-0.008,1.325c-0.022,1.123-0.127,1.572-0.425,1.974c-0.534,0.733-1.419,0.909-1.901,0.366
		c-0.249-0.272-0.379-0.596-0.478-1.193C92.748,108.495,92.721,108.119,92.738,107.66z"/>
	<path fill="#FFFFFF" d="M106.043,108.163l2.464-0.666c-0.131-0.391-0.172-0.748-0.186-1.303l-0.01-0.673l0.002-0.207l0.048-7.656
		l0.206-0.057l0.355-0.111c0.146-0.039,0.294-0.064,0.456-0.109c1.401-0.275,2.002,0.136,2.039,1.479
		c-0.002,0.235-0.018,0.46-0.064,0.693c-0.229,1.356-1.207,2.487-2.581,2.932c-0.073,0.02-0.148,0.04-0.221,0.06
		c0.529,0.092,1.164,0.009,1.931-0.316c0.385-0.148,0.753-0.366,1.094-0.633c0.829-0.652,1.377-1.432,1.634-2.222
		c0.752-2.452-0.625-3.697-3.517-2.856c-0.207,0.07-0.413,0.128-0.633,0.202c-0.738,0.228-1.196,0.366-1.579,0.471l-1.357,0.367
		c0.115,0.409,0.171,0.806,0.168,1.336l-0.003,0.369l0.014,0.304l-0.001,0.207l-0.038,6.096l0,0.207l-0.002,0.235l-0.018,0.445
		C106.21,107.354,106.164,107.688,106.043,108.163z"/>
	<path fill="#FFFFFF" d="M113.854,106.095l2.123-0.536c-0.043-0.18-0.086-0.33-0.099-0.489l-0.015-0.145l-0.013-0.394l-0.011-0.394
		v-0.104l-0.014-0.099v-0.088l0.018-2.709c0-0.25,0.032-0.463,0.062-0.662c0.139-0.932,0.759-1.339,1.612-1.112
		c0.043,0.019,0.103,0.033,0.146,0.066c0.034-0.669,0.112-1.352,0.264-2.036c-0.443,0.082-0.799,0.303-1.361,0.916
		c-0.177,0.192-0.34,0.409-0.503,0.671l-0.105,0.159l-0.074,0.151l0.007-1.119l-1.976,0.497c0.058,0.177,0.086,0.346,0.1,0.489
		l0.014,0.129l0.012,0.423l0.012,0.497l-0.001,0.178l-0.025,3.931l-0.001,0.177l-0.018,0.505
		C114.005,105.453,113.96,105.729,113.854,106.095z"/>
	<path fill="#FFFFFF" d="M117.94,101.805c0.163,2.106,1.672,3.108,3.827,2.447c1.843-0.553,3.254-2.215,3.487-4.2
		c0.326-2.655-0.874-3.926-3.041-3.659C119.68,96.722,117.735,99.078,117.94,101.805z M119.909,100.031
		c0.017-0.181,0.046-0.35,0.077-0.534c0.123-0.782,0.333-1.246,0.645-1.619c0.564-0.698,1.477-0.826,1.973-0.247
		c0.161,0.181,0.277,0.386,0.422,0.821c0.158,0.445,0.257,1.11,0.253,1.86c-0.021,1.125-0.217,1.85-0.484,2.315
		c-0.507,0.848-1.362,1.165-1.949,0.739c-0.426-0.304-0.717-0.862-0.872-1.942C119.903,100.943,119.877,100.494,119.909,100.031z"/>
	<path fill="#FFFFFF" d="M126.354,95.604c0.044,0.198,0.073,0.354,0.087,0.513l0.013,0.158l0.012,0.379l0.012,0.365l-0.001,0.133
		l0.015,0.144v0.045l-0.018,2.842l-0.035,0.802c0.004,1.734,1.398,2.478,3.512,1.141c0.443-0.272,0.785-0.594,1.051-0.976
		l-0.005,0.869l1.946-0.419c-0.042-0.182-0.071-0.353-0.086-0.496l-0.013-0.144l-0.012-0.395l-0.013-0.38l0.001-0.118v-0.088
		l0.001-0.104l0.035-5.668l-1.931,0.414c0.029,0.2,0.057,0.356,0.055,0.518l0.015,0.16l0.013,0.379l-0.001,0.28l-0.002,0.222
		l0.014,0.188L131,99.15l-0.003,0.502c-0.049,0.862-0.584,1.565-1.484,1.788c-0.428,0.107-0.794,0.009-1.016-0.237
		c-0.174-0.198-0.217-0.395-0.214-0.954l0.003-0.471l0.03-4.595L126.354,95.604z"/>
	<path fill="#FFFFFF" d="M138.601,93.116c-0.102-0.024-0.19-0.037-0.294-0.045c-2.31-0.28-4.411,1.604-4.548,4.5
		c-0.068,1.424,0.28,2.386,0.909,2.923c1.144,0.996,3.03,0.447,3.878-1.043l-0.006,0.972l1.976-0.39
		c-0.086-0.321-0.114-0.536-0.125-1.034l0.002-0.413l-0.014-0.1l0.001-0.178l0.055-8.85l-1.902,0.375
		c0.029,0.17,0.042,0.329,0.056,0.459l0.015,0.159l-0.003,0.383l0.012,0.425v0.073l0,0.192L138.601,93.116z M135.707,97.054
		c0-0.147,0.001-0.294,0.018-0.459c0.095-1.181,0.364-1.852,0.764-2.312c0.549-0.638,1.463-0.716,1.856-0.204
		c0.206,0.269,0.248,0.48,0.24,1.673l-0.009,1.325c-0.021,1.123-0.127,1.571-0.424,1.966c-0.534,0.725-1.418,0.883-1.9,0.331
		c-0.25-0.274-0.38-0.602-0.479-1.199C135.717,97.89,135.689,97.513,135.707,97.054z"/>
	<path fill="#FFFFFF" d="M141.683,89.258c0.087,0.309,0.101,0.481,0.112,0.995l0.012,0.395l0,0.104l-0.001,0.19l-0.045,7.158
		l-0.015,0.179l-0.004,0.5l-0.018,0.475l-0.014,0.076c-0.016,0.149-0.032,0.329-0.093,0.53l2.093-0.374
		c-0.042-0.199-0.071-0.355-0.085-0.5l0.001-0.118l-0.025-0.421l-0.013-0.439l-0.015-0.056v-0.089l0.001-0.103l0.057-8.85
		L141.683,89.258z"/>
	<path fill="#FFFFFF" d="M147.314,97.794c0.027,0.068,0.057,0.124,0.071,0.194c0.159,0.459,0.128,0.759-0.2,1.533
		c-0.418,0.995-1.055,1.479-1.643,1.544c-0.148,0.024-0.221,0.022-0.266,0.014l-0.191-0.027l-0.176-0.032
		c-0.428-0.035-0.663,0.033-0.899,0.263c-0.326,0.301-0.359,0.793-0.108,1.017c0.174,0.134,0.394,0.202,0.896,0.15
		c1.268-0.116,2.452-1.101,3.363-3.248l3.168-7.454c0.238-0.598,0.329-0.744,0.595-1.023l-1.518,0.245
		c0.115,0.333,0.098,0.674-0.081,1.131l-1.675,4.109l-1.596-3.773c-0.073-0.165-0.101-0.396-0.098-0.764
		c0-0.045,0.015-0.106,0.015-0.151l-2.682,0.433c0.308,0.229,0.512,0.492,0.715,0.944L147.314,97.794z"/>
	<path fill="#FFFFFF" d="M165.447,86.159l-0.102,0.01l-0.119,0.013c-0.118,0.027-0.221,0.024-0.31,0.032l-0.073-0.005l-0.311-0.01
		l-0.662-0.018l-0.338-0.007l-0.442-0.011c-3.931-0.062-6.627,2.568-6.84,6.049c-0.214,3.614,2.305,5.712,6.492,4.818
		c0.177-0.035,0.354-0.083,0.531-0.13l0.973-0.283l0.163-0.046c0.544-0.133,0.767-0.171,1.224-0.162l0.191-0.006l0.117,0.002
		c-0.027-0.144-0.057-0.287-0.071-0.418c-0.028-0.16-0.042-0.305-0.042-0.437l-0.014-0.161l0.003-0.382l0.015-2.474l0.002-0.221
		l0.016-0.296c0.016-0.192,0.033-0.341,0.048-0.475l0.029-0.151l0.047-0.182l-2.343,0.253l0.042,0.187l0.028,0.158l0.014,0.161
		l0.029,0.217c0.013,0.263,0.026,0.454,0.025,0.659l-0.018,2.946c-0.133,0.058-0.267,0.116-0.415,0.177
		c-0.294,0.12-0.59,0.196-0.886,0.258c-2.003,0.423-3.309-0.379-3.768-2.389c-0.96-4.267,1.087-6.724,3.915-6.869
		c0.309-0.018,0.618-0.007,0.926,0.033c0.972,0.147,1.531,0.351,2.059,0.734L165.447,86.159z"/>
	<path fill="#FFFFFF" d="M167.131,96.515l2.121-0.154c-0.044-0.188-0.087-0.348-0.1-0.508l-0.014-0.146l-0.012-0.397l-0.012-0.396
		l0-0.103l-0.015-0.101v-0.088l0.018-2.709c0.001-0.251,0.031-0.46,0.062-0.653c0.138-0.908,0.759-1.204,1.61-0.824
		c0.043,0.026,0.103,0.051,0.147,0.093c0.032-0.666,0.11-1.333,0.261-1.992c-0.442,0.003-0.796,0.161-1.359,0.673
		c-0.178,0.16-0.34,0.348-0.504,0.582l-0.104,0.139l-0.075,0.139l0.007-1.119l-1.972,0.143c0.057,0.188,0.084,0.364,0.099,0.509
		l0.014,0.132l0.012,0.424l0.012,0.5l-0.001,0.178l-0.024,3.931l-0.001,0.177l-0.018,0.501
		C167.282,95.901,167.236,96.169,167.131,96.515z"/>
	<path fill="#FFFFFF" d="M171.337,93.008c0.163,2.146,1.671,3.5,3.821,3.337c1.842-0.125,3.248-1.464,3.481-3.398
		c0.326-2.583-0.871-4.133-3.033-4.37C173.073,88.319,171.134,90.229,171.337,93.008z M173.302,91.686
		c0.015-0.176,0.047-0.339,0.078-0.516c0.121-0.753,0.332-1.17,0.642-1.47c0.563-0.57,1.475-0.486,1.972,0.21
		c0.16,0.218,0.275,0.452,0.419,0.92c0.159,0.481,0.258,1.171,0.253,1.922c-0.021,1.12-0.217,1.8-0.484,2.204
		c-0.506,0.732-1.359,0.852-1.946,0.291c-0.424-0.405-0.715-1.032-0.869-2.147C173.297,92.6,173.27,92.144,173.302,91.686z"/>
	<path fill="#FFFFFF" d="M179.083,88.563c0.102,0.197,0.189,0.378,0.245,0.542l0.075,0.181l0.13,0.374l0.115,0.36l0.043,0.148
		l0.015,0.046l0.043,0.149l1.613,5.736l1.678,0.084l1.339-4.53l1.265,4.658l1.65,0.083l1.816-5.566l0.06-0.188l0.046-0.131
		l0.133-0.36l0.137-0.377l0.059-0.159c0.076-0.158,0.165-0.33,0.283-0.516l-1.486-0.075c0.1,0.343,0.098,0.565-0.007,1.076
		l-0.09,0.364l-0.03,0.13l-0.046,0.175l-1.173,3.86l-1.077-4.252c-0.116-0.417-0.129-0.536-0.143-0.713
		c0.001-0.339,0.032-0.53,0.091-0.658l0.016-0.044l0.043-0.056l-2.53-0.125l0.027,0.089l0.044,0.076
		c0.058,0.134,0.102,0.284,0.145,0.42l0.057,0.208l0.059,0.254c0.071,0.297,0.114,0.55,0.142,0.787l-1.128,3.774l-1.109-3.929
		l-0.057-0.194l-0.129-0.506l-0.116-0.434l-0.026-0.118c-0.03-0.149-0.042-0.327-0.058-0.535L179.083,88.563z"/>
	<path fill="#FFFFFF" d="M190.348,96.589l2.058,0.284c-0.086-0.351-0.114-0.577-0.11-1.077l0.002-0.5l0-0.191l0.007-1.031
		l0.01-1.501c-0.007-1.091,0.037-1.307,0.29-1.611c0.193-0.225,0.459-0.379,0.797-0.42c1.164-0.134,1.602,0.515,1.606,2.329
		L195,94.341l-0.009,1.267l-0.009,1.62l1.957,0.271c-0.044-0.198-0.071-0.379-0.085-0.528l-0.013-0.164l-0.014-0.386l-0.012-0.503
		l0.002-0.146v-0.046l0.001-0.206l0.006-0.899l0.022-1.5l-0.005-1.268v-0.147c-0.066-1.262-1.193-2.286-2.917-2.127
		c-0.604,0.05-1.15,0.285-1.579,0.668l0.005-0.81l-1.913-0.264c0.043,0.198,0.056,0.362,0.068,0.511v0.089l0.014,0.458l0.012,0.503
		l-0.001,0.163l-0.001,0.029l-0.023,3.932l-0.001,0.177l-0.017,0.308l-0.001,0.191l-0.031,0.408l-0.002,0.133
		C190.438,96.232,190.408,96.391,190.348,96.589z"/>
	<path fill="#FFFFFF" d="M99.883,107.95l1.107,1.109l-1.119,1.129l-1.108-1.107L99.883,107.95z"/>
	<path fill="#FFFFFF" d="M199.255,96.005l1.108,1.109l-1.12,1.129l-1.107-1.11L199.255,96.005z"/>
</g>
<path fill="#FFFFFF" d="M201.602,88.425l0.847-2.211h0.818v3.007h-0.534v-2.445h-0.014l-0.942,2.445h-0.364l-0.942-2.445h-0.015
	v2.445h-0.533v-3.007h0.817L201.602,88.425z M199.398,86.652h-0.927v2.569h-0.532v-2.569h-0.928v-0.438h2.387V86.652z"/>
</svg>
