<?xml version="1.0" encoding="utf-8"?>
<!-- Generator: Adobe Illustrator 16.0.0, SVG Export Plug-In . SVG Version: 6.00 Build 0)  -->
<!DOCTYPE svg PUBLIC "-//W3C//DTD SVG 1.1//EN" "http://www.w3.org/Graphics/SVG/1.1/DTD/svg11.dtd">
<svg version="1.1" id="Layer_1" xmlns="http://www.w3.org/2000/svg" xmlns:xlink="http://www.w3.org/1999/xlink" x="0px" y="0px"
	 width="140.999px" height="187.081px" viewBox="291.714 266.834 140.999 187.081"
	 enable-background="new 291.714 266.834 140.999 187.081" xml:space="preserve">
<g>
	<path fill="#00A651" d="M362.042,382.506L362.042,382.506L362.042,382.506L362.042,382.506L362.042,382.506L362.042,382.506
		L362.042,382.506L362.042,382.506L362.042,382.506L362.042,382.506L362.042,382.506L362.042,382.506L362.042,382.506
		L362.042,382.506L362.042,382.506L362.042,382.506L362.042,382.506L362.042,382.506L362.042,382.506L362.042,382.506v0.002l0,0l0,0
		l0,0l0,0l0,0c0,0,0,0,0.001,0l0,0l0,0l0,0L362.042,382.506L362.042,382.506L362.042,382.506L362.042,382.506L362.042,382.506
		L362.042,382.506L362.042,382.506L362.042,382.506c0.001,0.001,0.001,0.001,0.002,0.001
		C362.043,382.507,362.043,382.507,362.042,382.506L362.042,382.506c0.001,0.001,0.001,0.001,0.002,0.001
		C362.043,382.507,362.043,382.507,362.042,382.506L362.042,382.506L362.042,382.506L362.042,382.506L362.042,382.506
		L362.042,382.506L362.042,382.506L362.042,382.506L362.042,382.506C362.042,382.505,362.042,382.505,362.042,382.506
		L362.042,382.506L362.042,382.506z M334.306,334.468c0.388-7.479,1.831-14.252,3.312-19.069c4.229,2.738,9.691,7,14.796,12.48
		c2.919-6.896,6.591-12.768,9.628-16.788c3.038,4.019,6.712,9.89,9.633,16.784c5.104-5.479,10.564-9.739,14.793-12.478
		c1.479,4.816,2.924,11.59,3.312,19.067c6.67-3.403,13.258-5.54,18.169-6.667c-0.257,5.031-1.217,11.891-3.41,19.05
		c7.432-0.917,14.353-0.671,19.353-0.051c-1.962,4.641-5.21,10.758-9.72,16.735c7.297,1.68,13.717,4.277,18.202,6.57
		c-3.431,3.689-8.574,8.326-14.856,12.4c6.282,4.074,11.427,8.712,14.857,12.4c-4.486,2.294-10.906,4.892-18.203,6.571
		c4.51,5.979,7.758,12.096,9.72,16.735c-4.999,0.62-11.921,0.866-19.353-0.051c2.193,7.159,3.154,14.019,3.411,19.05
		c-4.911-1.127-11.499-3.263-18.169-6.667c-0.389,7.479-1.831,14.252-3.312,19.068c-4.229-2.738-9.688-6.999-14.793-12.479
		c-2.922,6.895-6.595,12.766-9.632,16.784c-3.038-4.019-6.711-9.891-9.632-16.784c-5.104,5.479-10.564,9.739-14.793,12.479
		c-1.48-4.815-2.924-11.59-3.312-19.067c-6.669,3.404-13.258,5.54-18.168,6.667c0.258-5.031,1.218-11.891,3.411-19.051
		c-7.432,0.917-14.353,0.672-19.353,0.052c1.962-4.641,5.21-10.759,9.72-16.735c-7.297-1.681-13.716-4.276-18.203-6.57
		c3.431-3.689,8.575-8.327,14.857-12.401c-6.282-4.073-11.426-8.711-14.857-12.399c4.486-2.295,10.906-4.892,18.204-6.569
		c-4.51-5.978-7.759-12.096-9.721-16.737c5-0.621,11.921-0.868,19.352,0.049c-2.192-7.159-3.152-14.018-3.41-19.049
		C321.048,328.927,327.637,331.063,334.306,334.468L334.306,334.468z M362.042,382.506L362.042,382.506L362.042,382.506
		L362.042,382.506z"/>
	<path fill="#A6CE39" d="M362.043,382.505C362.042,382.505,362.042,382.505,362.043,382.505L362.043,382.505h-0.002l0,0v0.001l0,0
		c0,0,0,0,0,0.001l0,0l0,0l0,0c0,0,0,0,0,0.001c0-0.001,0-0.001,0-0.001c0,0.001,0,0.001,0,0.001l0,0l0.001,0.001v-0.001
		c0,0.001,0,0.001,0.001,0.001c0,0,0,0,0-0.001v0.001v-0.001h0.001l0,0c0,0,0,0,0.001,0c-0.001,0-0.001-0.001-0.001-0.001
		s0,0,0.001,0h-0.001h0.001h-0.001c0-0.001,0-0.001,0.001-0.001C362.044,382.506,362.044,382.506,362.043,382.505L362.043,382.505
		L362.043,382.505L362.043,382.505L362.043,382.505L362.043,382.505L362.043,382.505L362.043,382.505z M321.216,389.704
		c-5.308-1.78-10.255-4.351-14.646-7.197c4.39-2.848,9.337-5.418,14.646-7.198c-4.379-3.488-8.147-7.598-11.3-11.773
		c5.1-1.176,10.628-1.896,16.226-1.756c-2.922-4.776-5.06-9.925-6.593-14.929c5.193,0.641,10.636,1.853,15.849,3.9
		c-1.112-5.487-1.36-11.058-1.09-16.284c4.661,2.378,9.362,5.377,13.56,9.084c0.832-5.537,2.503-10.855,4.545-15.673
		c3.566,3.829,6.957,8.255,9.633,13.174c2.675-4.918,6.066-9.345,9.632-13.174c2.042,4.818,3.714,10.137,4.546,15.673
		c4.196-3.707,8.897-6.706,13.559-9.084c0.271,5.226,0.022,10.796-1.089,16.284c5.211-2.048,10.652-3.259,15.847-3.9
		c-1.532,5.003-3.67,10.152-6.592,14.928c5.597-0.142,11.125,0.581,16.225,1.756c-3.15,4.177-6.921,8.286-11.3,11.774
		c5.308,1.779,10.255,4.351,14.645,7.197c-4.39,2.848-9.337,5.418-14.646,7.198c4.38,3.487,8.149,7.597,11.301,11.774
		c-5.099,1.174-10.628,1.896-16.225,1.755c2.922,4.775,5.06,9.926,6.592,14.929c-5.192-0.641-10.636-1.852-15.847-3.9
		c1.111,5.488,1.358,11.06,1.089,16.284c-4.66-2.379-9.362-5.377-13.559-9.084c-0.832,5.536-2.504,10.855-4.546,15.673
		c-3.565-3.829-6.957-8.255-9.632-13.173c-2.676,4.918-6.066,9.344-9.633,13.173c-2.042-4.816-3.713-10.137-4.545-15.673
		c-4.197,3.707-8.897,6.705-13.56,9.084c-0.271-5.226-0.022-10.797,1.091-16.284c-5.211,2.049-10.654,3.261-15.849,3.9
		c1.533-5.003,3.67-10.152,6.593-14.929c-5.598,0.143-11.125-0.581-16.226-1.757C313.067,397.302,316.837,393.193,321.216,389.704
		L321.216,389.704z"/>
	<path fill="#FFDA00" d="M362.041,382.507L362.041,382.507L362.041,382.507L362.041,382.507L362.041,382.507z M362.041,382.508
		L362.041,382.508C362.042,382.509,362.042,382.508,362.041,382.508c0.001,0,0.001,0.001,0.002,0.001v-0.001l0.001,0.001v-0.001
		h0.001c0,0-0.001,0-0.001-0.001c0.001,0,0.001,0,0.002,0c-0.001,0-0.001,0-0.001,0L362.041,382.508L362.041,382.508z
		 M362.045,382.507L362.045,382.507C362.045,382.506,362.045,382.506,362.045,382.507v-0.002
		C362.045,382.505,362.044,382.505,362.045,382.507c-0.001-0.002-0.001-0.002-0.001-0.003c0,0,0,0-0.001,0.001
		c0-0.001,0-0.001,0-0.002c0,0.001,0,0.001,0,0.002c0-0.001,0-0.001,0-0.002c0,0.001-0.001,0.002-0.001,0.003
		c0-0.001-0.001-0.001-0.001-0.001s0,0,0,0.001v-0.001v0.001c0,0,0,0-0.001,0l0.001,0.001c0,0,0,0-0.001,0h0.001H362.045
		L362.045,382.507z M362.041,382.508L362.041,382.508L362.041,382.508L362.041,382.508z M357.115,354.559
		c0.907-4.815,2.661-9.338,4.928-13.506c2.267,4.168,4.02,8.691,4.927,13.506c2.5-4.214,5.694-7.864,9.249-11.006
		c0.705,4.692,0.808,9.541,0.014,14.377c3.791-3.106,8.041-5.444,12.457-7.18c-0.943,4.651-2.507,9.242-4.906,13.516
		c4.625-1.623,9.418-2.363,14.161-2.484c-2.478,4.047-5.518,7.826-9.233,11.021c4.899,0.058,9.657,1,14.156,2.509
		c-3.712,2.955-7.86,5.467-12.445,7.197c4.586,1.73,8.735,4.241,12.447,7.197c-4.499,1.509-9.258,2.449-14.158,2.509
		c3.717,3.193,6.756,6.974,9.233,11.021c-4.744-0.121-9.536-0.863-14.161-2.485c2.399,4.272,3.963,8.862,4.906,13.513
		c-4.416-1.734-8.666-4.071-12.456-7.178c0.794,4.836,0.692,9.685-0.013,14.377c-3.556-3.143-6.749-6.792-9.249-11.006
		c-0.907,4.816-2.661,9.338-4.929,13.507c-2.267-4.169-4.02-8.689-4.927-13.507c-2.5,4.215-5.694,7.864-9.25,11.006
		c-0.704-4.692-0.807-9.541-0.012-14.376c-3.791,3.105-8.04,5.442-12.456,7.179c0.942-4.649,2.506-9.24,4.905-13.515
		c-4.625,1.622-9.418,2.364-14.162,2.485c2.478-4.048,5.518-7.826,9.233-11.021c-4.9-0.058-9.658-0.999-14.157-2.508
		c3.711-2.956,7.86-5.468,12.444-7.198c-4.585-1.73-8.734-4.24-12.446-7.197c4.499-1.509,9.258-2.451,14.159-2.51
		c-3.717-3.193-6.756-6.974-9.232-11.021c4.743,0.121,9.536,0.865,14.16,2.486c-2.399-4.272-3.962-8.863-4.905-13.514
		c4.416,1.736,8.665,4.072,12.456,7.178c-0.795-4.836-0.693-9.685,0.012-14.377C351.42,346.695,354.614,350.344,357.115,354.559
		L357.115,354.559z M362.042,382.506L362.042,382.506L362.042,382.506z"/>
	<path fill="#FFFFFF" d="M357.056,368.807c-0.9-4.972-0.792-9.737,0.06-14.246c2.341,3.946,4.074,8.387,4.927,13.366
		c0.853-4.979,2.587-9.42,4.927-13.366c0.853,4.508,0.96,9.274,0.061,14.244c2.505-4.387,5.651-7.966,9.201-10.874
		c-0.743,4.528-2.271,9.043-4.816,13.406c3.854-3.267,8.036-5.553,12.366-7.071c-2.247,4.002-5.227,7.723-9.111,10.949
		c4.738-1.75,9.451-2.469,14.038-2.415c-3.479,2.991-7.552,5.47-12.307,7.175c5.051-0.024,9.726,0.911,14.019,2.53
		c-4.293,1.621-8.968,2.556-14.019,2.532c4.755,1.705,8.826,4.184,12.308,7.173c-4.589,0.056-9.301-0.665-14.039-2.415
		c3.885,3.229,6.864,6.95,9.111,10.95c-4.33-1.519-8.514-3.806-12.366-7.071c2.546,4.362,4.073,8.878,4.816,13.406
		c-3.55-2.908-6.697-6.488-9.202-10.875c0.9,4.971,0.792,9.736-0.059,14.245c-2.342-3.946-4.075-8.388-4.929-13.367
		c-0.854,4.979-2.585,9.421-4.926,13.367c-0.851-4.509-0.96-9.274-0.061-14.245c-2.505,4.387-5.651,7.967-9.201,10.875
		c0.743-4.528,2.271-9.044,4.817-13.407c-3.854,3.267-8.037,5.555-12.366,7.072c2.247-4,5.228-7.724,9.112-10.951
		c-4.738,1.751-9.451,2.472-14.039,2.417c3.48-2.99,7.552-5.47,12.307-7.175c-5.051,0.024-9.726-0.911-14.019-2.53
		c4.293-1.619,8.967-2.558,14.019-2.533c-4.755-1.705-8.826-4.182-12.307-7.173c4.588-0.054,9.3,0.665,14.039,2.415
		c-3.885-3.229-6.864-6.949-9.111-10.949c4.33,1.52,8.513,3.805,12.366,7.07c-2.546-4.361-4.074-8.877-4.816-13.405
		C351.404,360.839,354.551,364.419,357.056,368.807L357.056,368.807z"/>
	<path fill="#00A651" d="M380.995,266.834v34.868h5.188v-3.346c2.135,2.861,4.512,4.179,7.954,4.179
		c6.401,0,10.959-5.197,10.959-13.49c0-8.535-4.654-13.724-10.911-13.724c-3.442,0-6.109,1.455-7.952,4.219v-12.706H380.995
		L380.995,266.834z M392.925,280.074c4.122,0,6.692,3.201,6.692,9.02c0,5.528-2.57,8.681-6.692,8.681
		c-4.315,0-6.789-3.055-6.789-8.826C386.136,283.08,388.463,280.074,392.925,280.074L392.925,280.074z"/>
	<path fill="#00A651" d="M420.54,280.074c4.074,0,6.692,3.201,6.692,8.729c0,5.819-2.57,8.972-6.692,8.972
		c-4.413,0-6.789-2.958-6.789-8.681C413.751,283.129,416.176,280.074,420.54,280.074L420.54,280.074z M413.848,298.55
		c1.795,2.619,4.512,3.985,7.953,3.985c6.256,0,10.912-5.197,10.912-13.732c0-8.292-4.559-13.481-10.96-13.481
		c-3.492,0-5.868,1.357-7.953,4.413v-3.588h-5.188v35.749h5.236V298.55L413.848,298.55z"/>
</g>
</svg>
