<?xml version="1.0" encoding="utf-8"?>
<!-- Generator: Adobe Illustrator 16.0.0, SVG Export Plug-In . SVG Version: 6.00 Build 0)  -->
<!DOCTYPE svg PUBLIC "-//W3C//DTD SVG 1.1//EN" "http://www.w3.org/Graphics/SVG/1.1/DTD/svg11.dtd">
<svg version="1.1" id="Layer_1" xmlns="http://www.w3.org/2000/svg" xmlns:xlink="http://www.w3.org/1999/xlink" x="0px" y="0px"
	 width="164.166px" height="108.618px" viewBox="277.173 313.258 164.166 108.618"
	 enable-background="new 277.173 313.258 164.166 108.618" xml:space="preserve">
<g>
	<polyline fill="none" stroke="#000000" stroke-width="0.8142" stroke-miterlimit="2.6131" points="343.621,332.834 
		359.012,313.901 374.524,332.712 	"/>
	<polygon fill="#D21E48" points="349.606,333.933 359.012,323.062 368.173,333.567 	"/>
	<polyline fill="none" stroke="#000000" stroke-width="0.8142" stroke-miterlimit="2.6131" points="349.606,333.933 
		359.012,323.062 368.173,333.567 	"/>
	<path fill="none" stroke="#000000" stroke-width="0.78" stroke-miterlimit="2.6131" d="M325.055,355.675l-17.956,21.743
		l23.452,34.689h-53.134 M441.339,412.107H387.35l23.696-34.935l-18.565-21.987"/>
	<path fill="none" stroke="#D21E48" stroke-width="3.9048" stroke-miterlimit="2.6131" d="M441.339,419.924H372.57l28.826-42.629
		l-8.552-10.26 M325.788,366.424l-9.039,10.994l27.604,42.506h-67.181"/>
	<path fill="none" stroke="#000000" stroke-width="0.78" stroke-miterlimit="2.6131" d="M277.173,417.848h63.272l-26.506-40.553
		l11.481-14.168 M441.339,417.848h-65.104l27.728-40.674l-11.727-14.291"/>
	<path fill="#FFFFFF" d="M396.145,365.324c-0.244-5.252-2.564-9.893-4.03-12.703l-0.733-1.588l0.123,1.344
		c0.122,1.832,0.61,8.307-1.344,11.85c-2.321,5.008-9.283,4.52-11.604,4.396l-0.122-0.123c-3.785-0.244-16.001-0.608-19.787-0.608
		c-4.886,0-10.383,0.364-14.779,0.731c-2.198,0.123-4.031,0.364-5.252,0.364c-0.123,0-0.245,0-0.489,0
		c-6.107,0.611-10.016-1.221-11.604-5.373c-0.854-2.565-0.854-7.573-0.854-10.016v-1.709l-0.489,0.854
		c-1.099,2.199-3.298,6.107-4.031,12.703c-0.365,7.816,3.665,10.628,6.719,12.093c3.298,1.467,6.474,1.711,7.572,1.711h0.123l0,0
		c0.244,0.121,0.488,0.121,0.733,0.121c0.244,0,0.61,0,0.977,0.123c-0.488,0-1.344,0.243-1.955,0.366
		c-0.732,0.121-1.465,0.121-1.71,0.244c-0.732,0.121-3.908,0.854-5.496,1.465c-1.467,0.488-2.933,1.222-3.055,1.222l-0.244,0.123
		l0.244,0.243c0,0,0.489,0.732,0.979,1.224c1.099,1.099,4.152,3.054,7.816,2.563c2.932-0.366,4.52-1.1,5.13-1.344
		c0.122,0.611,0.611,2.076,1.101,3.176c1.343,3.297,4.274,9.527,5.497,11.728c0.854,1.832,1.832,3.297,2.32,4.396l0.244,0.367
		c-0.122,0.609-0.61,1.101-0.978,1.343c-0.122,0.122-0.244,0.245-0.244,0.245l-0.122,0.121v0.123c0,0.609-0.122,5.984,3.542,10.017
		h0.122l0,0c1.832,0.731,4.275,1.465,8.062,1.465c4.031,0,7.329-0.978,8.551-1.588l0,0l0,0c2.564-3.054,3.786-7.695,3.786-9.283
		v-0.121v-0.123c-0.122,0-0.244-0.121-0.244-0.121c-0.366-0.488-0.854-0.977-1.223-2.076c0.367-0.487,0.979-1.832,1.467-2.811
		c0.244-0.609,0.488-1.101,0.61-1.344c1.101-2.197,4.274-9.04,5.618-12.216c0.733-2.076,1.222-3.053,1.466-3.541
		c0.489,0.365,1.955,0.978,4.888,1.345c3.663,0.364,7.206-2.199,8.184-3.544c0.122-0.12,0.488-0.487,0.488-0.487l0.122-0.244
		l-0.244-0.123c0,0-0.122-0.12-0.732-0.243l-2.077-0.732l-1.954-0.732c-0.61-0.123-3.054-0.732-4.886-1.1l-1.344-0.244l0.366-0.123
		C385.64,378.395,396.877,376.439,396.145,365.324L396.145,365.324z"/>
	<path d="M396.145,365.324c-0.244-5.252-2.564-9.893-4.03-12.703l-0.733-1.588l0.123,1.344c0.122,1.832,0.61,8.307-1.344,11.85
		c-2.321,5.008-9.283,4.52-11.604,4.396l-0.122-0.123c-3.785-0.244-16.001-0.608-19.787-0.608c-4.886,0-10.383,0.364-14.779,0.731
		c-2.198,0.123-4.031,0.364-5.252,0.364c-0.123,0-0.245,0-0.489,0c-6.107,0.611-10.016-1.221-11.604-5.373
		c-0.854-2.565-0.854-7.573-0.854-10.016v-1.709l-0.489,0.854c-1.099,2.199-3.298,6.107-4.031,12.703
		c-0.365,7.816,3.665,10.628,6.719,12.093c3.298,1.467,6.474,1.711,7.572,1.711h0.123l0,0c0.244,0.121,0.488,0.121,0.733,0.121
		c0.244,0,0.61,0,0.977,0.123c-0.488,0-1.344,0.243-1.955,0.366c-0.732,0.121-1.465,0.121-1.71,0.244
		c-0.732,0.121-3.908,0.854-5.496,1.465c-1.467,0.488-2.933,1.222-3.055,1.222l-0.244,0.123l0.244,0.243
		c0,0,0.489,0.732,0.979,1.224c1.099,1.099,4.152,3.054,7.816,2.563c2.932-0.366,4.52-1.1,5.13-1.344
		c0.122,0.611,0.611,2.076,1.101,3.176c1.343,3.297,4.274,9.527,5.497,11.728c0.854,1.832,1.832,3.297,2.32,4.396l0.244,0.367
		c-0.122,0.609-0.61,1.101-0.978,1.343c-0.122,0.122-0.244,0.245-0.244,0.245l-0.122,0.121v0.123c0,0.609-0.122,5.984,3.542,10.017
		h0.122l0,0c1.832,0.731,4.275,1.465,8.062,1.465c4.031,0,7.329-0.978,8.551-1.588l0,0l0,0c2.564-3.054,3.786-7.695,3.786-9.283
		v-0.121v-0.123c-0.122,0-0.244-0.121-0.244-0.121c-0.366-0.488-0.854-0.977-1.223-2.076c0.367-0.487,0.979-1.832,1.467-2.811
		c0.244-0.609,0.488-1.101,0.61-1.344c1.101-2.197,4.274-9.04,5.618-12.216c0.733-2.076,1.222-3.053,1.466-3.541
		c0.489,0.365,1.955,0.978,4.888,1.345c3.663,0.364,7.206-2.199,8.184-3.544c0.122-0.12,0.488-0.487,0.488-0.487l0.122-0.244
		l-0.244-0.123c0,0-0.122-0.12-0.732-0.243l-2.077-0.732l-1.954-0.732c-0.61-0.123-3.054-0.732-4.886-1.1l-1.344-0.244l0.366-0.123
		C385.64,378.395,396.877,376.439,396.145,365.324L396.145,365.324z"/>
	<path fill="#D21E48" d="M325.177,354.087c-0.122,2.81-0.122,5.985,0.611,8.795c-0.611-0.61-1.221-1.223-1.954-1.711
		c-0.489,0.611-1.1,1.222-1.588,1.832C322.856,359.828,323.833,356.897,325.177,354.087L325.177,354.087L325.177,354.087z"/>
	<path fill="#D21E48" d="M395.045,361.783l0.244,0.732l-1.588-1.101c-0.61,0.367-1.223,0.731-1.954,1.101
		c0.488-2.81,0.61-5.62,0.488-8.673C393.457,356.408,394.189,359.095,395.045,361.783L395.045,361.783z"/>
	<path fill="#D21E48" d="M358.767,389.143c1.589,2.443,4.397,3.176,7.084,2.443c0.979-0.244,1.955-0.609,2.811-0.977
		c-0.854,2.563-1.344,5.375-1.344,8.184c0,2.564,0.488,4.887,1.222,7.207c-0.366-0.123-0.732-0.488-1.222-0.611
		c-5.252-2.688-12.703-2.563-17.955,0.123c0.244-0.731,0.487-1.711,0.609-2.565c0.855-4.029,0.244-8.306-1.099-11.97
		c2.809,1.222,6.962,1.465,9.161-1.1C358.401,389.633,358.523,389.389,358.767,389.143L358.767,389.143z"/>
	<path fill="#D21E48" d="M346.919,391.221c-0.122,1.098-0.611,2.32-1.71,2.809c-1.099,0.244-1.955-0.243-2.565-0.977
		c-0.244-0.367-0.488-0.734-0.61-1.223c1.466,0.979,3.542,0.244,4.764-0.732L346.919,391.221L346.919,391.221z"/>
	<path fill="#D21E48" d="M375.379,391.342c-0.366,0.977-1.221,1.955-2.32,2.199c-0.732,0.121-1.466-0.244-1.953-0.977
		c-0.245-0.367-0.367-0.734-0.489-1.224C371.959,392.441,374.036,392.197,375.379,391.342L375.379,391.342z"/>
	<path fill="#D21E48" d="M372.447,394.273c0.61,0.123,1.1-0.121,1.711-0.244c-1.466,3.787-3.299,7.451-5.253,10.994
		c-0.61-1.834-0.488-3.787-0.366-5.742c0.244-2.443,0.854-4.764,1.588-6.963C370.615,393.174,371.471,394.029,372.447,394.273
		L372.447,394.273z"/>
	<path fill="#D21E48" d="M348.751,405.023L348.751,405.023c-2.198-3.423-4.031-7.086-5.619-10.871
		c0.733,0.488,1.955,0.731,2.811,0.244c0.732-0.611,1.099-1.345,1.466-2.199C349.24,395.861,349.606,400.748,348.751,405.023
		L348.751,405.023z"/>
	<path fill="#D21E48" d="M370.127,407.953c-0.366,3.178-1.588,6.106-3.542,8.674c-4.764,1.832-11.116,1.953-15.879,0
		c-2.321-2.566-3.176-5.742-3.298-9.283c5.008-3.543,12.826-4.397,18.565-1.832C367.439,406.244,368.905,406.977,370.127,407.953
		L370.127,407.953z"/>
	<path fill="#D21E48" d="M389.548,381.938c-3.908-1.467-9.038-2.442-13.312-2.442c-0.366-4.888-0.979-7.818-1.832-10.507
		c-2.199-0.12-11.972-0.487-15.757-0.487c-3.787,0-13.438,0.487-15.636,0.733c-0.854,2.564-1.954,5.74-2.32,10.504
		c-4.397,0.244-10.261,1.466-14.169,2.933c-0.61,0.244-0.855,0.367-0.855,0.367c0.611,0.731,2.81,3.297,6.84,3.42
		c1.344,0,3.787-0.244,5.374-0.854c0.367-0.244,1.344-0.611,1.344-0.611s0.245,0.488,0.367,0.977
		c0.489,1.223,0.978,2.932,1.343,3.666c0.611,1.1,1.467,2.076,2.933,2.076c1.344,0,2.32-1.1,2.564-1.344
		c-3.909-0.123-5.497-2.199-5.74-5.252c-0.855-0.123-1.1-0.244-1.222-0.732c-0.123-0.49,0-0.979,0.366-1.59
		c0.489-0.609,1.222-1.221,2.932-0.609c1.223,0.365,2.199,1.101,2.811,1.709c0.854,0.732,3.175,3.055,4.519,3.91
		c1.466,0.854,4.275,1.709,6.107-0.123c1.71-1.711,1.955-3.176,2.199-4.152c-3.055,0-5.985-0.366-8.672-0.733
		c-0.733-0.121-0.366-0.854,0.243-0.608c0,0,5.009,0.608,8.429,0.608c0.122-0.364,0.122-1.099,0.122-1.953
		c-2.077,0-5.619-0.243-8.917-0.854c-0.61-0.121-0.488-0.978,0.123-0.732c0.487,0.121,5.862,0.855,8.794,0.855
		c0-0.611,0-1.467,0-2.322c-1.832,0-4.643-0.244-8.673-0.854c-0.732,0-0.61-0.734,0-0.611c0,0,5.009,0.732,8.673,0.732
		c0-0.611,0-1.345,0-1.953c0-0.734,0.61-0.855,0.61-0.123c0,0.244,0.122,1.1,0.122,1.955c3.542-0.123,6.718-0.49,8.185-0.734
		c0.854-0.244,0.732,0.488,0.366,0.611c-0.488,0-4.643,0.854-8.673,0.977c0,0.611,0.122,1.588,0.122,2.322
		c2.688-0.123,5.741-0.244,8.306-0.734c1.101-0.244,1.101,0.49,0.245,0.611c-2.564,0.488-6.353,0.854-8.551,0.854
		c0,0.731,0,1.466,0,1.953c4.275-0.121,8.306-0.608,9.039-0.731c0.61-0.121,0.854,0.61,0,0.731c-0.733,0-5.619,0.733-8.917,0.733
		c0.366,1.099,0.366,2.688,1.954,4.029c1.466,1.223,4.031,1.1,5.863,0.123c1.344-0.855,3.542-3.176,4.396-3.908
		c0.61-0.61,2.198-1.955,4.275-1.955c1.954,0,1.954,1.101,2.076,1.345c0.122,0.366,0.243,0.977-0.244,1.223
		c-0.366,0.242-0.611,0.121-0.979,0.365c-0.243,1.588-0.854,3.543-2.197,4.521c-1.345,1.1-3.665,1.221-3.665,1.221
		s0.366,0.367,0.488,0.49c0.244,0.244,0.978,0.608,1.954,0.487c0.855-0.123,1.954-0.854,2.442-1.223
		c0.732-0.978,1.344-2.81,1.833-4.029c0.122-0.489,0.61-1.223,0.731-1.59c0.366,0.123,0.611,0.246,1.345,0.61
		c1.588,0.611,3.665,0.855,5.008,0.855c2.077,0,4.52-1.344,5.985-2.688c0.243-0.244,0.731-0.732,0.731-0.732
		S389.915,382.059,389.548,381.938L389.548,381.938z"/>
	<path d="M366.707,408.443c0.366,0.731,0.122,1.588-0.244,2.196c-0.854,0.979-2.077,1.468-3.299,1.101
		c-0.732-0.244-1.465-0.732-1.832-1.344c-0.244,0.61,0.244,0.979,0.122,1.588c0,0.123-0.244,0.123-0.244,0
		c-0.731-0.854-0.977-2.197-0.366-3.297c0.732-1.345,2.198-1.955,3.664-1.712C365.363,407.1,366.341,407.588,366.707,408.443
		L366.707,408.443z"/>
	<path d="M356.324,408.932c0.61,0.978,0.367,2.32-0.244,3.177c-0.122,0.243-0.244,0.364-0.366,0.243
		c-0.245-0.366,0.122-0.61,0.122-0.977c0-0.123,0.122-0.49,0-0.734c-0.854,1.101-1.955,1.711-3.298,1.468
		c-0.978-0.244-1.832-0.978-2.198-1.832c-0.245-0.611-0.123-1.345,0.244-1.832c0.855-1.224,2.565-1.468,3.909-0.979
		C355.225,407.709,355.958,408.199,356.324,408.932L356.324,408.932z"/>
	<path d="M366.707,415.527c-0.122,0.121-0.244,0.244-0.366,0.364c-0.489-0.12-0.978-0.243-1.466-0.487
		c-4.397-1.709-9.895-1.222-13.925,0.487c-0.122-0.12-0.244-0.243-0.244-0.364C355.469,413.451,361.943,413.084,366.707,415.527
		L366.707,415.527z"/>
	<path d="M367.439,392.564c-0.732,3.42-2.933,7.327-6.475,8.305c-2.809,0.731-6.106,0.123-8.062-2.197
		c-1.345-1.834-2.076-3.787-2.321-5.986c0.245-0.121,0.366-0.121,0.488-0.121c0.366,3.177,1.955,6.718,5.252,7.816
		c2.81,0.855,6.106,0,8.062-2.442c1.344-1.589,2.199-3.665,2.565-5.62C367.195,392.318,367.317,392.318,367.439,392.564
		L367.439,392.564z"/>
	<path fill="#FFFFFF" d="M326.154,363.98c0,0,0.123,0.367,0.367,1.1c1.954,3.666,5.618,4.764,9.526,4.643
		c2.077-0.123,4.153-0.244,6.229-0.488v0.244c-1.1,2.933-1.71,6.107-2.198,9.283c-5.497,0.121-11.238-0.244-15.27-3.91
		c-2.809-2.932-3.542-6.717-2.932-10.504c0.733-0.854,1.344-1.465,2.077-2.32C324.566,362.76,326.154,363.98,326.154,363.98
		L326.154,363.98z"/>
	<path fill="#FFFFFF" d="M395.411,363.492c0.122,0.488,0.122,1.1,0.244,1.711c0.244,4.152-1.588,8.184-5.252,10.26
		c-4.031,2.443-8.551,3.299-13.438,3.42c-0.122-0.488-0.122-0.977-0.244-1.588c-0.365-2.688-0.854-5.619-1.71-8.307
		c5.252,0,11.604,1.344,15.024-3.42c0.488-0.732,0.977-1.342,1.343-2.076c0.855-0.244,1.589-0.732,2.321-1.221
		C394.312,362.637,394.801,363.127,395.411,363.492L395.411,363.492z"/>
	<path fill="#FFFFFF" d="M375.502,384.99c0.122,1.711-0.489,3.42-1.955,4.152c-0.609,0.366-1.466,0.489-2.198,0.489
		c0-0.123-0.122-0.366,0-0.489c1.1,0,2.32-0.365,2.933-1.343c0.488-0.733,0.609-1.588,0.609-2.442
		C375.135,385.234,375.379,385.113,375.502,384.99L375.502,384.99z"/>
	<path fill="#FFFFFF" d="M346.064,389.51c-0.244,0-0.367,0.123-0.733,0c-1.954,0-3.909-1.588-3.786-4.152
		c0.244-0.123,0.488-0.123,0.732,0c0,1.466,0.61,3.541,3.665,3.541C346.186,389.266,345.942,389.266,346.064,389.51L346.064,389.51z
		"/>
	<path fill="#FFFFFF" d="M335.804,334.3v2.443h-0.854v2.932h3.298v-2.932h-0.855V334.3h5.497v2.443h-1.1v8.306h1.1v2.443h-5.497
		v-2.443h0.855v-3.176h-3.298v3.176h0.854v2.443h-5.497v-2.443h1.1v-8.306h-1.1V334.3H335.804L335.804,334.3z M345.209,334.3v2.443
		h-1.466v8.306h1.466v3.175h8.55v-3.175h-3.909v-8.306h0.855V334.3H345.209L345.209,334.3z M395.899,334.3
		c-1.954-0.245-3.908,0.611-5.131,2.321c-1.71,2.199-1.832,5.741-0.487,8.062c1.099,1.955,3.054,3.42,5.374,3.176
		c1.955-0.122,3.787-1.588,4.642-3.42c1.344-2.443,0.979-5.863-0.854-8.062C398.587,335.277,397.365,334.544,395.899,334.3
		L395.899,334.3z M396.755,338.086c0.733,1.832,0.733,4.275-0.122,6.107c-0.244,0.489-0.854,1.222-1.588,1.1
		c-0.854-0.122-1.344-1.1-1.588-1.955c-0.488-1.832-0.488-4.275,0.61-5.863c0.365-0.489,0.732-0.733,1.344-0.611
		C396.022,336.987,396.511,337.598,396.755,338.086L396.755,338.086z M366.585,334.3v2.443l-2.688,0.611l1.222,7.695h-0.979v2.443
		h4.153v-2.443h-0.978l0.488-1.588h3.42l0.61,1.588h-0.978v2.443h5.618v-2.443h-0.977l-2.565-8.306h1.223V334.3H366.585
		L366.585,334.3z M370.737,341.506h-2.32l1.099-3.665L370.737,341.506L370.737,341.506z M382.586,350.545
		c-0.854,0-4.396-2.688-5.008-2.688c-4.764,0.366-5.863,7.207-5.253,8.672c0.367,1.344,8.551,1.71,9.649,2.321
		c0.732,0.489,1.588,0.611,1.954,1.465c0.366,0.611,0.366,0.979,0,1.223s-0.854,0.244-1.222,0.121
		c-0.854-0.121-1.588-0.611-1.832-1.344c-0.122-0.244-0.244-0.61-0.244-0.61h-1.466v4.52h1.222c0,0,0.244-0.123,0.244-0.246
		c0.244-0.244,0.366-0.487,0.732-0.364c0.365,0.243,0.732,0.487,1.222,0.731c0.488,0.123,1.1,0.244,1.71,0.244
		c0.732-0.244,1.466-0.488,1.954-0.977c1.344-1.1,1.71-2.932,1.222-4.52c-0.365-1.099-1.344-1.954-2.319-2.565
		c-0.855-0.489-1.832-0.732-2.443-1.71c-0.244-0.245-0.244-0.733-0.122-1.099c0.122-0.245,0.366-0.245,0.61-0.245
		c1.1-0.122,1.955,0.611,2.442,1.466c0.122,0.122,0.244,0.611,0.244,0.611h1.466l-0.122-4.642h-1.222c0,0-0.244,0.244-0.366,0.489
		c-0.122,0.122-0.365,0.244-0.487,0.122C384.418,350.912,383.562,350.545,382.586,350.545L382.586,350.545z M339.59,349.69
		l2.321,3.665h1.099v7.206c0.122,1.224,0.855,2.199,1.71,2.933c1.345,1.223,3.542,1.467,5.252,0.854
		c1.588-0.488,2.443-2.199,2.443-3.664l0.122-7.329h1.1v-2.565h-4.396v2.565h0.977l0.123,6.841
		c-0.123,1.221-0.977,1.709-1.588,1.709c-0.366,0.122-0.732,0.122-1.099-0.121c-0.611-0.244-1.1-0.854-1.1-1.588v-6.841h0.978
		v-2.565L339.59,349.69L339.59,349.69z M355.714,350.79v2.565h-1.833v8.429h1.833v2.442h9.283v-4.765h-2.077v2.321h-2.687v-8.429
		l1.71,0.367l0.122-5.008L355.714,350.79L355.714,350.79z M364.02,349.446l-2.442,2.077l-0.488,4.642l7.329,5.619h-1.1v2.442h9.404
		v-4.765h-2.197v2.321h-2.688v-8.429h1.101v-2.565L364.02,349.446L364.02,349.446z M329.574,350.912v2.565h1.099v8.307h-1.099v2.563
		h7.694c0,0,0.61-0.121,0.978-0.244c1.222-0.487,1.955-1.832,1.955-3.299c0.122-2.198-1.955-3.297-1.955-3.297
		s1.71-0.977,1.71-3.175c0-4.886-8.306-3.42-3.542-3.42L329.574,350.912L329.574,350.912z M335.071,353.354
		c1.222,0,1.832,0.978,1.832,1.221c0,0.367,0.245,1.71-1.588,1.833h-0.978v-3.054H335.071L335.071,353.354z M336.903,359.95
		c0,0.61-0.122,1.589-1.709,1.71h-0.979v-3.175l0.489,0.122C335.56,358.607,336.781,358.851,336.903,359.95L336.903,359.95z
		 M324.566,334.544c-0.367-0.367-0.855-0.611-1.833-0.611c-2.076,0-4.765,2.199-4.765,6.84c0,4.886,3.176,6.962,5.13,6.962
		c1.832,0,2.933-0.855,3.542-1.588c0.733-0.855,3.42-5.619,3.42-5.619l-4.274,1.832c-0.244,0.611-0.733,2.443-2.199,2.443
		c-1.71-0.122,0.979-1.832,1.344-3.542c0.122-0.978-2.688-4.275-0.977-4.275c1.343,0,1.588,1.588,1.955,2.565h1.832
		c0,0,0-3.542,0-5.252h-1.832C325.91,334.3,325.788,335.399,324.566,334.544L324.566,334.544z M359.134,334.544
		c-0.367-0.367-0.854-0.611-1.832-0.611c-2.077,0-4.764,2.199-4.764,6.84c0,4.886,3.054,7.695,4.886,7.695
		c1.955,0,3.176-1.588,3.787-2.321c0.733-0.855,1.344-2.932,1.344-2.932l-2.076-0.855c-0.366,0.611-0.732,2.443-2.32,2.443
		c-1.588-0.122,0.731-1.832,1.099-3.542c0.122-0.978-2.442-4.275-0.732-4.275c1.344,0,1.71,1.588,1.954,2.565h1.832
		c0,0,0-3.542,0-5.252h-1.832C360.478,334.3,360.478,335.399,359.134,334.544L359.134,334.544z M384.052,334.544
		c-0.489-0.367-0.978-0.611-1.954-0.611c-1.955,0-4.764,2.199-4.764,6.84c0,4.886,3.176,6.962,5.13,6.962s3.298-0.733,4.03-1.71
		c0.367-0.489,0.978-1.466,1.222-2.565c0.366-1.343,0.244-2.687,0.244-2.687h-4.641v2.077l1.709,0.122
		c0,0.733-0.488,1.832-1.954,1.832c-1.71-0.122-1.954-3.786-1.71-5.375c0.244-1.099,0.366-2.443,1.955-2.443
		c1.099,0,1.832,0.733,1.954,1.954l1.832-0.122v-4.52h-1.832C385.273,334.3,385.273,335.399,384.052,334.544L384.052,334.544z"/>
	<path fill="none" stroke="#FFFFFF" stroke-width="4.3973" stroke-linejoin="round" stroke-miterlimit="2.6131" d="M335.804,334.3
		v2.443h-0.854v2.932h3.298v-2.932h-0.855V334.3h5.497v2.443h-1.1v8.306h1.1v2.443h-5.497v-2.443h0.855v-3.176h-3.298v3.176h0.854
		v2.443h-5.497v-2.443h1.1v-8.306h-1.1V334.3H335.804L335.804,334.3z M345.209,334.3v2.443h-1.466v8.306h1.466v3.175h8.55v-3.175
		h-3.909v-8.306h0.855V334.3H345.209L345.209,334.3z M395.899,334.3c-1.954-0.245-3.908,0.611-5.131,2.321
		c-1.71,2.199-1.832,5.741-0.487,8.062c1.099,1.955,3.054,3.42,5.374,3.176c1.955-0.122,3.787-1.588,4.642-3.42
		c1.344-2.443,0.979-5.863-0.854-8.062C398.587,335.277,397.365,334.544,395.899,334.3L395.899,334.3z M396.755,338.086
		c0.733,1.832,0.733,4.275-0.122,6.107c-0.244,0.489-0.854,1.222-1.588,1.1c-0.854-0.122-1.344-1.1-1.588-1.955
		c-0.488-1.832-0.488-4.275,0.61-5.863c0.365-0.489,0.732-0.733,1.344-0.611C396.022,336.987,396.511,337.598,396.755,338.086
		L396.755,338.086z M366.585,334.3v2.443l-2.688,0.611l1.222,7.695h-0.979v2.443h4.153v-2.443h-0.978l0.488-1.588h3.42l0.61,1.588
		h-0.978v2.443h5.618v-2.443h-0.977l-2.565-8.306h1.223V334.3H366.585L366.585,334.3z M370.737,341.506h-2.32l1.099-3.665
		L370.737,341.506L370.737,341.506z M382.586,350.545c-0.854,0-4.396-2.688-5.008-2.688c-4.764,0.366-5.863,7.207-5.253,8.672
		c0.367,1.344,8.551,1.71,9.649,2.321c0.732,0.489,1.588,0.611,1.954,1.465c0.366,0.611,0.366,0.979,0,1.223
		s-0.854,0.244-1.222,0.121c-0.854-0.121-1.588-0.611-1.832-1.344c-0.122-0.244-0.244-0.61-0.244-0.61h-1.466v4.52h1.222
		c0,0,0.244-0.123,0.244-0.246c0.244-0.244,0.366-0.487,0.732-0.364c0.365,0.243,0.732,0.487,1.222,0.731
		c0.488,0.123,1.1,0.244,1.71,0.244c0.732-0.244,1.466-0.488,1.954-0.977c1.344-1.1,1.71-2.932,1.222-4.52
		c-0.365-1.099-1.344-1.954-2.319-2.565c-0.855-0.489-1.832-0.732-2.443-1.71c-0.244-0.245-0.244-0.733-0.122-1.099
		c0.122-0.245,0.366-0.245,0.61-0.245c1.1-0.122,1.955,0.611,2.442,1.466c0.122,0.122,0.244,0.611,0.244,0.611h1.466l-0.122-4.642
		h-1.222c0,0-0.244,0.244-0.366,0.489c-0.122,0.122-0.365,0.244-0.487,0.122C384.418,350.912,383.562,350.545,382.586,350.545
		L382.586,350.545z M339.59,349.69l2.321,3.665h1.099v7.206c0.122,1.224,0.855,2.199,1.71,2.933
		c1.345,1.223,3.542,1.467,5.252,0.854c1.588-0.488,2.443-2.199,2.443-3.664l0.122-7.329h1.1v-2.565h-4.396v2.565h0.977l0.123,6.841
		c0,1.221-0.977,1.709-1.588,1.709c-0.366,0.122-0.732,0.122-1.099-0.121c-0.611-0.244-1.1-0.854-1.1-1.588v-6.841h0.978v-2.565
		L339.59,349.69L339.59,349.69z M355.714,350.79v2.565h-1.833v8.429h1.833v2.442h9.283v-4.765h-2.077v2.321h-2.687v-8.429
		l1.71,0.367l0.122-5.008L355.714,350.79L355.714,350.79z M364.02,349.446l-2.442,2.077l-0.488,4.642l7.329,5.619h-1.1v2.442h9.404
		v-4.765h-2.197v2.321h-2.688v-8.429h1.101v-2.565L364.02,349.446L364.02,349.446z M329.574,350.912v2.565h1.099v8.307h-1.099v2.563
		h7.694c0,0,0.61-0.121,0.978-0.244c1.222-0.487,1.955-1.832,1.955-3.299c0.122-2.198-1.955-3.297-1.955-3.297
		s1.71-0.977,1.71-3.175c0-4.886-8.306-3.42-3.542-3.42L329.574,350.912L329.574,350.912z M335.071,353.354
		c1.222,0,1.832,0.978,1.832,1.221c0,0.367,0.245,1.71-1.588,1.833h-0.978v-3.054H335.071L335.071,353.354z M336.903,359.95
		c0,0.61-0.122,1.589-1.709,1.71h-0.979v-3.175l0.489,0.122C335.56,358.607,336.781,358.851,336.903,359.95L336.903,359.95z
		 M324.566,334.544c-0.367-0.367-0.855-0.611-1.833-0.611c-2.076,0-4.765,2.199-4.765,6.84c0,4.886,3.176,6.962,5.13,6.962
		c1.832,0,2.933-0.855,3.542-1.588c0.733-0.855,3.42-5.619,3.42-5.619l-4.274,1.832c-0.244,0.611-0.733,2.443-2.199,2.443
		c-1.71-0.122,0.979-1.832,1.344-3.542c0.122-0.978-2.688-4.275-0.977-4.275c1.343,0,1.588,1.588,1.955,2.565h1.832
		c0,0,0-3.542,0-5.252h-1.832C325.91,334.3,325.788,335.399,324.566,334.544L324.566,334.544z M359.134,334.544
		c-0.367-0.367-0.854-0.611-1.832-0.611c-2.077,0-4.764,2.199-4.764,6.84c0,4.886,3.054,7.695,4.886,7.695
		c1.955,0,3.176-1.588,3.787-2.321c0.733-0.855,1.344-2.932,1.344-2.932l-2.076-0.855c-0.366,0.611-0.732,2.443-2.32,2.443
		c-1.588-0.122,0.731-1.832,1.099-3.542c0.122-0.978-2.442-4.275-0.732-4.275c1.344,0,1.71,1.588,1.954,2.565h1.832
		c0,0,0-3.542,0-5.252h-1.832C360.478,334.3,360.478,335.399,359.134,334.544L359.134,334.544z M384.052,334.544
		c-0.489-0.367-0.978-0.611-1.954-0.611c-1.955,0-4.764,2.199-4.764,6.84c0,4.886,3.176,6.962,5.13,6.962s3.298-0.733,4.03-1.71
		c0.367-0.489,0.978-1.466,1.222-2.565c0.366-1.343,0.244-2.687,0.244-2.687h-4.641v2.077l1.709,0.122
		c0,0.733-0.488,1.832-1.954,1.832c-1.71-0.122-1.954-3.786-1.71-5.375c0.244-1.099,0.366-2.443,1.955-2.443
		c1.099,0,1.832,0.733,1.954,1.954l1.832-0.122v-4.52h-1.832C385.273,334.3,385.273,335.399,384.052,334.544L384.052,334.544z"/>
	<polygon points="335.804,334.055 335.804,336.498 334.949,336.621 334.949,339.552 338.247,339.552 338.247,336.498 
		337.392,336.498 337.392,334.055 342.888,334.055 342.888,336.498 341.789,336.498 341.789,344.804 342.888,344.804 
		342.888,347.37 337.392,347.37 337.392,344.804 338.247,344.804 338.247,341.628 334.949,341.628 334.949,344.804 335.804,344.804 
		335.804,347.37 330.307,347.37 330.307,344.804 331.406,344.804 331.406,336.498 330.307,336.498 330.307,334.055 	"/>
	<polygon points="350.706,334.055 350.706,336.498 349.851,336.498 349.851,344.804 350.828,344.804 350.828,347.37 345.209,347.37 
		345.209,344.804 346.186,344.804 346.186,336.621 345.209,336.498 345.209,334.055 	"/>
	<path d="M399.442,336.254c1.832,2.076,2.197,5.618,0.854,8.061c-0.854,1.71-2.687,3.176-4.642,3.298
		c-2.32,0.244-4.275-1.099-5.374-3.054c-1.345-2.443-1.223-5.985,0.487-8.184c1.223-1.587,3.055-2.565,5.131-2.199
		C397.243,334.422,398.587,335.033,399.442,336.254L399.442,336.254z M395.411,336.621c-0.61-0.123-0.979,0.244-1.344,0.611
		c-1.1,1.709-1.1,4.031-0.61,5.985c0.244,0.733,0.732,1.71,1.588,1.955c0.732,0,1.344-0.611,1.588-1.222
		c0.855-1.832,0.855-4.275,0.122-6.107C396.389,337.354,396.022,336.743,395.411,336.621L395.411,336.621z"/>
	<path d="M374.036,334.055v2.565h-1.101l2.565,8.184h0.977v2.565h-5.618v-2.565h0.978l-0.61-1.588h-3.42l-0.488,1.588h0.978v2.565
		h-4.153v-2.565h0.979l2.564-8.184h-1.222v-2.565H374.036L374.036,334.055z M369.516,337.598l-1.099,3.787h2.32L369.516,337.598
		L369.516,337.598z"/>
	<path d="M385.028,351.4c0.245,0,0.488-0.123,0.61-0.245c0.122-0.122,0.366-0.489,0.366-0.489h1.222v4.642h-1.344
		c0,0-0.122-0.367-0.244-0.611c-0.487-0.855-1.344-1.466-2.442-1.466c-0.244,0-0.488,0.122-0.61,0.366
		c-0.122,0.245-0.122,0.733,0,1.1c0.733,0.855,1.71,1.1,2.565,1.71c0.977,0.489,1.954,1.466,2.319,2.443
		c0.488,1.588,0.122,3.419-1.222,4.52c-0.61,0.487-1.222,0.854-1.954,0.978c-0.609,0.122-1.222,0-1.71-0.244
		c-0.488-0.123-0.854-0.367-1.344-0.732c-0.244,0-0.366,0.121-0.61,0.365c-0.122,0.123-0.244,0.367-0.244,0.367h-1.222v-4.643h1.466
		c0,0,0,0.366,0.122,0.61c0.366,0.732,1.101,1.344,1.954,1.467c0.366,0,0.854,0,1.1-0.123c0.488-0.367,0.488-0.731,0.122-1.344
		c-0.366-0.732-1.222-0.977-1.953-1.465c-1.101-0.489-2.443-1.344-2.811-2.688c-0.611-1.465-0.244-3.298,0.978-4.397
		c0.366-0.489,1.588-1.222,2.442-1.222C383.562,350.301,384.418,350.79,385.028,351.4L385.028,351.4z"/>
	<path d="M347.53,350.667v2.565h-0.978v6.84c0,0.612,0.488,1.344,1.1,1.588c0.366,0.123,0.732,0.123,1.099,0.123
		c0.611-0.123,1.466-0.611,1.588-1.833l-0.123-6.718h-0.977v-2.565h4.396v2.565h-1.222v7.207c0,1.588-0.855,3.176-2.443,3.665
		c-1.832,0.61-3.908,0.367-5.252-0.855c-0.854-0.732-1.588-1.709-1.71-2.809v-7.207h-1.099v-2.565H347.53L347.53,350.667z"/>
	<polygon points="361.332,350.667 361.332,353.232 360.233,353.232 360.233,361.539 362.92,361.539 362.92,359.218 364.997,359.218 
		364.997,364.104 355.714,364.104 355.714,361.539 356.812,361.539 356.812,353.232 355.714,353.232 355.714,350.667 	"/>
	<polygon points="372.938,350.667 372.938,353.232 371.837,353.232 371.837,361.539 374.524,361.539 374.524,359.218 
		376.723,359.218 376.723,364.104 367.317,364.104 367.317,361.539 368.417,361.539 368.417,353.232 367.317,353.232 
		367.317,350.667 	"/>
	<path d="M336.415,350.667c1.588,0,3.542,1.466,3.542,3.42c0,2.321-1.71,3.176-1.71,3.176s2.077,1.1,1.955,3.42
		c0,1.344-0.733,2.688-2.077,3.176c-0.245,0.121-0.855,0.244-0.855,0.244h-7.694v-2.443h1.099v-8.428h-1.099v-2.565H336.415
		L336.415,350.667z M334.216,353.11l0.122,3.054h0.978c1.833-0.123,1.588-1.344,1.588-1.71c0-0.367-0.732-1.344-1.832-1.344H334.216
		L334.216,353.11z M334.582,358.363h-0.366v3.053h0.979c1.587,0,1.709-1.1,1.709-1.588
		C336.781,358.729,335.56,358.363,334.582,358.363L334.582,358.363z"/>
	<path d="M325.788,334.055h1.955c0,1.71,0,5.375,0,5.375h-1.955c-0.244-1.099-0.489-2.687-1.832-2.687
		c-1.71,0-1.832,1.344-2.077,2.443c-0.244,1.588,0,5.375,1.71,5.375c1.466,0,1.955-1.71,2.199-2.443l2.199,0.855
		c0,0-0.61,2.077-1.345,2.932c-0.609,0.733-1.71,1.71-3.664,1.71c-1.832,0-5.008-2.077-5.008-6.962c0-4.642,2.688-6.962,4.765-6.962
		c0.854,0,1.344,0.244,1.833,0.611C325.788,335.277,325.788,334.055,325.788,334.055L325.788,334.055z"/>
	<path d="M360.478,334.055h1.832c0,1.71,0,5.375,0,5.375h-1.832c-0.366-1.099-0.609-2.687-1.954-2.687
		c-1.71,0-1.832,1.344-1.955,2.443c-0.366,1.588,0,5.375,1.588,5.375c1.466,0,1.954-1.71,2.199-2.443l2.197,0.855
		c0,0-0.609,2.077-1.344,2.932c-0.61,0.733-1.71,1.71-3.542,1.71c-1.954,0-5.13-2.077-5.13-6.962c0-4.642,2.688-6.962,4.764-6.962
		c0.978,0,1.465,0.244,1.832,0.611C360.478,335.277,360.478,334.055,360.478,334.055L360.478,334.055z"/>
	<path d="M385.273,334.055h1.832v4.642h-1.832c-0.122-1.1-0.855-1.955-1.954-1.955c-1.589,0-1.711,1.344-1.955,2.443
		c-0.244,1.588,0,5.375,1.71,5.375c1.466,0,1.954-0.977,1.954-1.832h-1.709v-2.199h4.641c0,0,0,1.466-0.244,2.687
		c-0.244,1.099-0.854,2.199-1.222,2.565c-0.732,0.977-2.076,1.833-4.03,1.833s-5.13-2.077-5.13-6.962
		c0-4.642,2.809-6.962,4.764-6.962c0.978,0,1.466,0.244,1.954,0.611C385.273,335.277,385.273,334.055,385.273,334.055
		L385.273,334.055z"/>
</g>
</svg>
