<?xml version="1.0" encoding="utf-8"?>
<!-- Generator: Adobe Illustrator 16.0.0, SVG Export Plug-In . SVG Version: 6.00 Build 0)  -->
<!DOCTYPE svg PUBLIC "-//W3C//DTD SVG 1.1//EN" "http://www.w3.org/Graphics/SVG/1.1/DTD/svg11.dtd">
<svg version="1.1" id="Layer_1" xmlns="http://www.w3.org/2000/svg" xmlns:xlink="http://www.w3.org/1999/xlink" x="0px" y="0px"
	 width="117.293px" height="129.726px" viewBox="300.762 272.502 117.293 129.726"
	 enable-background="new 300.762 272.502 117.293 129.726" xml:space="preserve">
<g>
	<path d="M403.791,343.447l4.472-18.278c-2.695,2.762-10.06,8.942-19.198,8.942h-3.024l-2.367,9.731h-19.725l-0.065,0.46
		c-1.314-0.329-2.63-0.46-4.011-0.46c-4.208,0-7.956,1.447-11.112,3.879c0.592-1.709,0.92-3.616,0.92-5.852
		c0.133-5.917-3.748-15.451-17.687-15.451c-18.87,0-31.165,17.884-31.231,34.781c-0.066,13.216,6.97,25.051,23.341,25.051
		c7.363,0,13.544-3.354,18.409-7.824c2.695,4.077,6.97,6.379,11.834,6.379c3.419,0,6.971-1.119,10.062-3.813
		c4.272,3.419,9.139,4.536,14.004,4.536c3.354,0,6.771-0.592,10.06-1.445c1.315,0.197,2.763,0.328,4.208,0.328
		c13.939,0,22.421-10.125,24.656-20.316C420.163,351.469,414.443,342.921,403.791,343.447L403.791,343.447z"/>
	<path fill="#E11A27" d="M305.365,359.49c-0.789,13.544,6.641,22.552,18.738,22.552c8.021,0,14.597-5.522,17.293-8.547
		c-0.986-4.011-0.657-8.876,0.395-12.757c-4.997,5.262-10.849,8.22-16.108,7.824c-13.609-1.117-5.458-27.087,4.733-27.087
		c3.682,0,4.471,4.931-0.329,6.706l3.55,8.021c14.991-3.813,15.979-25.576-1.841-25.576
		C319.238,330.626,306.351,342.198,305.365,359.49L305.365,359.49z"/>
	<path fill="#E11A27" d="M372.363,370.404l5.521-22.289h-10.52l-0.525,2.499c-2.302-1.709-4.077-2.499-6.97-2.499
		c-8.745,0-15.912,9.468-15.451,20.71c0.263,7.102,4.142,11.375,9.534,11.638c4.602,0.132,7.956-2.169,10.323-5.72
		c4.732,5.786,10.979,7.364,18.146,6.312C378.215,378.952,374.139,375.007,372.363,370.404L372.363,370.404z M363.027,363.369
		c-1.054,4.34-2.17,6.51-4.537,6.443c-1.709,0-2.959-1.314-3.09-3.551c-0.197-4.273,2.695-8.285,5.654-8.285
		c1.314,0,2.038,0.46,3.024,1.25L363.027,363.369L363.027,363.369z"/>
	<path fill="#E11A27" d="M404.58,347.655c-2.958,0-4.339,0.592-6.706,1.841l3.484-14.202c-3.616,2.104-7.759,3.024-11.9,3.024
		l-8.481,33.862c-1.513-0.132-3.354-0.525-4.404-0.854c0.592,0.854,1.313,1.841,2.17,2.694c2.958,3.156,7.562,6.115,13.938,6.115
		c8.284,0,17.556-4.8,20.448-17.357C414.969,355.02,411.812,347.655,404.58,347.655L404.58,347.655z M395.376,369.747
		c-0.921,0-1.578-0.263-2.367-0.657l1.185-4.932c1.184-4.602,2.301-6.114,4.339-6.114c1.578,0,3.023,1.315,3.091,3.419
		C401.753,365.539,399.123,369.747,395.376,369.747L395.376,369.747z"/>
	<path fill="#FFFFFF" d="M309.836,375.73c3.221,4.011,8.153,6.312,14.268,6.312c6.312,0,11.703-3.419,15.057-6.312h1.447
		c-4.405,4.143-10.39,7.297-16.504,7.297c-6.771,0-12.163-2.694-15.582-7.297H309.836L309.836,375.73z M346.195,375.73
		c1.709,2.893,4.471,4.603,7.758,4.732c4.142,0.133,7.298-1.773,9.599-4.732h1.578c4.604,4.996,10.521,6.312,17.292,5.324
		c-2.433-1.248-4.865-3.09-6.838-5.324h1.381c2.367,2.563,5.393,4.603,8.351,5.72c-1.314,0.329-4.076,0.854-6.903,0.854
		c-5.194,0-10.191-1.447-14.07-5.918c-1.973,2.564-5.522,5.262-10.388,5.062c-3.945-0.197-7.102-2.235-8.876-5.721h1.117V375.73z
		 M380.517,375.73c2.894,2.433,6.97,4.404,12.163,4.404c4.405,0,9.073-1.314,12.888-4.404h1.513
		c-4.144,3.812-9.468,5.457-14.399,5.457c-5.521,0-10.125-2.104-13.609-5.457H380.517L380.517,375.73z"/>
	<path fill="#FFFFFF" d="M308.521,375.73c-3.024-4.144-4.538-9.73-4.143-16.307c0.986-17.753,14.269-29.785,27.417-29.785
		c19.001,0,18.607,23.867,1.25,27.746l-4.34-9.796c1.578-0.526,3.748-1.315,3.682-3.419c0-0.921-0.656-1.709-1.973-1.709
		c-9.007,0-16.832,24.129-4.668,25.05c3.879,0.329,8.284-1.381,12.295-4.668c1.644-1.315,4.931-4.603,6.509-6.97
		c-1.774,3.879-2.827,7.956-2.695,13.084c0,1.645,0.263,3.156,0.657,4.8c-0.592,0.657-1.249,1.315-1.906,1.974h-1.447
		c0.92-0.854,1.644-1.578,2.234-2.235c-0.985-4.011-0.656-8.876,0.396-12.757c-4.997,5.262-10.849,8.22-16.108,7.824
		c-13.609-1.117-5.458-27.087,4.733-27.087c3.682,0,4.471,4.931-0.329,6.706l3.55,8.021c14.991-3.813,15.979-25.576-1.841-25.576
		c-12.558,0-25.445,11.572-26.431,28.864c-0.395,6.708,1.25,12.295,4.471,16.241H308.521L308.521,375.73z M345.078,375.73
		c-0.987-1.906-1.578-4.209-1.645-6.838c-0.525-11.573,6.904-21.764,16.438-21.764c2.433,0,4.471,0.526,6.312,1.775l0.396-1.775
		h12.624l-5.786,23.209c0.789,1.973,2.038,3.748,3.551,5.393h-1.381c-1.381-1.645-2.498-3.42-3.222-5.326l5.521-22.289h-10.52
		l-0.525,2.499c-2.302-1.709-4.077-2.499-6.97-2.499c-8.745,0-15.912,9.468-15.451,20.71c0.131,2.762,0.723,5.063,1.775,6.903
		h-1.118V375.73z M363.553,375.73c0.264-0.33,0.526-0.657,0.725-0.986c0.263,0.329,0.592,0.656,0.854,0.986H363.553L363.553,375.73z
		 M379.069,375.73c-1.774-1.775-3.354-3.813-4.603-6.115c1.314,0.525,3.418,1.184,5.785,1.513l8.416-33.795h0.396
		c5.392,0,9.533-1.315,13.872-4.143l-3.551,14.399c1.054-0.46,2.763-0.986,5.194-0.986c8.285,0,11.375,8.416,9.534,16.438
		c-1.249,5.654-3.813,9.796-7.035,12.689h-1.513c3.419-2.828,6.245-6.971,7.562-12.953c1.841-7.758-1.314-15.123-8.548-15.123
		c-2.958,0-4.339,0.592-6.706,1.841l3.484-14.202c-3.616,2.104-7.759,3.024-11.9,3.024l-8.481,33.861
		c-1.513-0.131-3.354-0.524-4.404-0.854c0.592,0.854,1.313,1.841,2.17,2.694c0.524,0.592,1.117,1.119,1.774,1.711H379.069
		L379.069,375.73z M363.027,363.369c-1.054,4.34-2.17,6.51-4.537,6.443c-1.709,0-2.959-1.314-3.09-3.551
		c-0.197-4.273,2.695-8.285,5.654-8.285c1.314,0,2.038,0.46,3.024,1.25L363.027,363.369L363.027,363.369z M362.041,363.172
		l0.92-3.55c-0.657-0.46-1.184-0.592-1.906-0.592c-2.104,0-4.8,3.156-4.668,7.232c0.131,1.775,1.053,2.563,2.104,2.563
		C359.938,368.826,360.923,367.643,362.041,363.172L362.041,363.172z M395.376,368.761c2.893,0,5.391-3.483,5.26-7.231
		c-0.064-1.709-1.118-2.433-2.104-2.433c-1.185,0-2.169,0.657-3.354,5.326l-1.052,4.076
		C394.521,368.63,394.981,368.761,395.376,368.761L395.376,368.761z M395.376,369.747c-0.921,0-1.578-0.263-2.367-0.657l1.185-4.932
		c1.184-4.602,2.301-6.114,4.339-6.114c1.578,0,3.023,1.315,3.091,3.419C401.753,365.539,399.123,369.747,395.376,369.747
		L395.376,369.747z"/>
	<path d="M316.542,402.228c-2.761,0-4.273-2.037-4.273-4.865c0-3.091,1.775-4.931,4.34-4.931c2.301,0,3.222,1.051,3.879,2.826
		l-2.367,0.921c-0.329-0.854-0.658-1.446-1.578-1.446c-1.052,0-1.578,1.117-1.578,2.63c0,1.446,0.526,2.631,1.645,2.631
		c0.788,0,1.184-0.461,1.709-1.381l2.17,1.184C319.896,401.044,318.843,402.228,316.542,402.228L316.542,402.228z"/>
	<path d="M328.442,397.361c0,1.71-0.592,2.631-1.645,2.631c-1.117,0-1.709-0.921-1.709-2.631c0-1.709,0.592-2.631,1.645-2.631
		C327.785,394.73,328.442,395.652,328.442,397.361L328.442,397.361z M331.138,397.361c0-3.155-1.774-4.932-4.339-4.932
		c-2.63,0-4.405,1.775-4.405,4.932c0,3.155,1.775,4.865,4.341,4.865C329.297,402.228,331.138,400.518,331.138,397.361
		L331.138,397.361z"/>
	<polygon points="333.505,402.096 333.505,392.628 336.136,392.628 336.136,399.795 340.343,399.795 340.343,402.096 	"/>
	<path d="M347.642,398.349h-1.577l0.196-0.657c0.329-1.185,0.46-1.709,0.592-2.367c0.132,0.658,0.264,1.184,0.593,2.367
		L347.642,398.349L347.642,398.349z M351.652,402.096l-3.485-9.468h-2.63l-3.419,9.468h2.761l0.526-1.644h2.893l0.46,1.644H351.652
		L351.652,402.096z"/>
	<path d="M360.002,399.86c-0.328,0.196-0.591,0.329-0.986,0.329c-0.789,0-1.052-0.329-1.052-0.855c0-0.328,0.263-0.657,0.724-0.985
		L360.002,399.86L360.002,399.86z M364.999,402.096l-2.104-2.367c0.461-0.592,0.921-1.313,1.382-2.104l-1.974-1.052
		c-0.329,0.592-0.592,1.052-0.854,1.512l-2.039-2.366c-0.197-0.264-0.263-0.396-0.263-0.658c0-0.262,0.196-0.395,0.656-0.395
		c0.79,0,1.381,0.197,2.104,0.592l1.118-1.906c-0.921-0.592-1.843-0.92-3.224-0.92c-1.84,0-3.221,0.854-3.221,2.563
		c0,0.724,0.329,1.313,0.854,1.906l0.066,0.065c-1.052,0.591-1.973,1.512-1.973,2.695c0,1.841,1.25,2.563,2.827,2.563
		c1.184,0,2.104-0.263,2.959-0.921l0.656,0.789h3.027V402.096z"/>
	<path d="M374.336,395.455c0,0.395-0.197,0.724-0.789,0.724h-1.973v-1.513h1.973C374.139,394.666,374.336,394.995,374.336,395.455
		L374.336,395.455z M377.163,399.006c0-1.052-0.526-1.71-1.381-2.104c0.657-0.328,1.184-0.789,1.184-1.842
		c0-1.578-0.985-2.433-3.354-2.433h-4.604v9.468h4.604C375.979,402.096,377.163,400.979,377.163,399.006L377.163,399.006z
		 M374.599,399.071c0,0.525-0.329,0.985-0.985,0.985h-2.038v-1.905h2.038C374.27,398.151,374.599,398.545,374.599,399.071
		L374.599,399.071z"/>
	<polygon points="379.596,402.096 379.596,392.628 386.828,392.628 386.828,394.798 382.16,394.798 382.16,396.047 384.987,396.047 
		384.987,398.282 382.16,398.282 382.16,399.926 386.96,399.926 386.96,402.096 	"/>
	<polygon points="389.458,402.096 389.458,392.628 396.69,392.628 396.69,394.798 392.022,394.798 392.022,396.047 394.85,396.047 
		394.85,398.282 392.022,398.282 392.022,399.926 396.822,399.926 396.822,402.096 	"/>
	<path d="M404.646,395.784c0,0.657-0.329,1.052-1.185,1.052h-1.578v-2.104h1.578C404.317,394.73,404.646,395.191,404.646,395.784
		L404.646,395.784z M407.407,402.096l-1.841-3.615c0.985-0.461,1.644-1.382,1.644-2.762c0-2.236-1.446-3.091-3.682-3.091h-4.208
		v9.468h2.563v-3.155h1.052l1.578,3.155H407.407L407.407,402.096z"/>
	<path d="M413.852,381.518c0,1.248-0.985,2.234-2.235,2.234c-1.249,0-2.169-0.986-2.169-2.234c0-1.25,0.92-2.17,2.169-2.17
		S413.852,380.268,413.852,381.518L413.852,381.518z M414.312,381.518c0-1.514-1.185-2.631-2.696-2.631
		c-1.513,0-2.63,1.117-2.63,2.631c0,1.512,1.117,2.694,2.63,2.694C413.128,384.212,414.312,383.027,414.312,381.518L414.312,381.518
		z M412.733,380.661c-0.197-0.394-0.526-0.657-1.053-0.657c-0.724,0-1.314,0.657-1.314,1.514c0,0.92,0.525,1.512,1.314,1.512
		c0.525,0,0.789-0.264,1.053-0.657l-0.526-0.396c-0.131,0.264-0.328,0.396-0.525,0.396c-0.395,0-0.592-0.329-0.592-0.854
		c0-0.592,0.197-0.854,0.592-0.854c0.197,0,0.396,0.065,0.46,0.329L412.733,380.661L412.733,380.661z"/>
	<path fill="#E11A27" d="M357.043,334.177c0.066,0.066,0.132,0.131,0.132,0.197l-0.263,0.263c-0.131-0.132-0.329-0.329-0.46-0.46
		h-2.894c1.118,1.644,2.894,2.696,4.472,3.288c0.789,0.329,1.38,0.591,1.249,1.249c-0.197,0.92-1.842,0.986-2.894,0.92
		c0.986,0.395,2.038,0.592,2.827,0.592c3.748,0,5.195-1.118,6.707-1.644c1.052-0.395,1.578-0.263,1.709,0.197
		c0.396,1.052-1.38,2.169-3.023,2.499c2.366,0.197,6.838-0.592,9.008-5.655c0.329-0.657,0.724-1.315,1.314-1.118
		c1.513,0.395,0,3.222-0.854,4.077c2.302-0.92,3.288-2.564,3.683-4.405H369.8c-0.263,0.131-0.524,0.263-0.854,0.329l-0.197-0.329
		H357.043L357.043,334.177z"/>
	<path fill="#E11A27" d="M357.043,326.878c-1.38,2.038-1.906,4.734,0,7.298h11.704l-0.065-0.066
		c2.104-1.381,3.616-4.011,3.944-7.232h-2.827c-0.328,3.09-2.433,5.852-5.391,6.049c-2.236,0.198-3.748-1.249-3.551-3.287
		c0.131-1.25,0.592-2.104,1.313-2.762H357.043L357.043,326.878z M374.73,326.878c-0.462,3.485-2.696,6.247-4.933,7.298h7.956
		c0.396-1.907,0.197-3.945,0.329-5.392c0.131-0.854,0.263-1.512,0.985-1.446c0.985,0.066,1.25,2.17,0.985,3.945
		c0.789-1.118,1.315-2.564,1.185-4.406L374.73,326.878L374.73,326.878z M392.088,326.878c-0.854,0.46-1.644,0.92-2.498,1.315
		c0.328-0.329,0.657-0.789,0.986-1.315H392.088L392.088,326.878z M353.559,334.177c-0.723-1.052-1.184-2.367-1.117-3.945
		c0-1.25,0.263-2.367,0.723-3.354h2.433c-1.445,2.17-1.709,4.997,0.855,7.298L353.559,334.177L353.559,334.177z"/>
	<path fill="#E11A27" d="M350.469,312.282c-1.052,0.855-2.301,1.578-3.616,1.512c-1.314,0.986-2.893,2.564-4.733,2.169
		c0.525-1.249,2.367-2.433,4.011-2.827c0.066-0.263,0.131-0.592,0.263-0.855h-2.63c-0.065,0.263-0.132,0.526-0.132,0.789
		c-0.131,0-0.986,0.263-1.381,0.657c-0.526,0.46-0.592,0.92-1.578,1.644c-0.657,0.395-1.578,0.591-2.367,0.526
		c-0.196-0.789-0.985-1.052-1.774-1.25c-0.986-0.197-1.118-0.789-1.249-1.052c-0.46-0.723-1.381-1.315-2.367-0.986
		c-1.315,0.395-1.645,1.709-1.906,2.828c0.657-0.724,2.367-3.354,4.01,0.46c0.264,0.46,0.922,0.658,1.249,0.986
		c-1.445-0.329-2.301-0.263-2.893,0.723c-0.789,1.381,0.131,2.761,0.854,3.485c-0.788-2.367,0.133-2.893,0.46-2.893
		c1.315-0.066,2.631,1.907,4.208,0.986l0.789,0.986c1.382,1.315,5.721,0.395,3.748,2.828c-0.46,0.526-1.249,0.854-1.709,0.92
		c0.92,0.131,2.039,0.197,2.827-0.723c1.315-1.447,0.46-2.63-0.789-3.419c-1.118-0.657-2.499-1.118-3.024-1.38
		c0.854-0.723,1.577-0.986,1.577-0.986c1.645,0.329,3.223-0.592,4.273-1.907c2.17,0.395,4.405-0.658,5.852-2.301
		c1.249,0.855,3.683,1.775,7.166,2.433c4.734,0.92,7.693,2.761,9.205,5.588c-1.184-0.131-2.433-0.197-3.747-0.263
		c-4.471-0.066-9.993,1.512-11.9,5.917h2.433c1.249-1.907,3.419-3.353,5.326-3.55l0.132,0.395c-1.314,0.395-2.959,1.578-4.011,3.156
		h5.128c1.578-1.38,4.208-1.578,5.786-1.446c0.592,0.066,1.184,0.131,1.906,0.263c0,0.065,0,0.197,0,0.329
		c0,0.329,0,0.592-0.065,0.854h2.827c0.066-0.46,0.066-0.92,0.066-1.38c-0.197-11.572-12.757-10.191-19.003-13.216H350.469
		L350.469,312.282z M358.03,312.282c6.969,2.038,16.567,2.63,16.766,13.15c0,0.526,0,0.986-0.064,1.446h6.509v-0.065
		c3.616,0,7.299-0.526,10.65-2.17c-0.263,0.658-0.789,1.512-1.313,2.235h1.512c3.748-2.169,7.364-5.26,9.008-9.402
		c-3.682,3.748-8.284,4.603-12.624,4.405c0.657,0.46,1.775,1.184,3.223,1.644c-4.143,1.118-7.627,0.789-11.243,0
		c-0.46-1.184-1.185-2.564-2.169-4.076c-0.265-0.46-0.329-0.987,0.064-1.184c0.854-0.46,2.17,0.789,3.024,1.775
		c-0.854-4.339-5.721-4.537-8.087-6.377c-0.592-0.46-0.921-0.92-1.118-1.381H358.03L358.03,312.282z M377.031,312.282l-0.328,0.329
		c-0.132-0.065-0.264-0.197-0.461-0.329H377.031L377.031,312.282z"/>
	<path fill="#E11A27" d="M343.763,312.282c0.395-1.447,1.184-2.762,2.498-3.485c-0.329-1.052-0.525-2.038-0.592-3.156
		c-3.156-0.92-3.024-4.142-2.696-8.021c-0.131-0.197-1.052-1.249-1.249-1.775c-0.065,0.592,0,2.17-0.395,3.616
		c-0.065,0.46-0.46,0.92-1.25,0.855c-0.723-0.131-2.367-1.25-2.761-2.63c0.592,0.46,1.512,1.315,2.563,1.315
		c0.591,0,0.395-1.315,0-2.17c-0.46-0.92-0.263-1.775,0-2.499c-0.985-0.263-1.447-1.052-1.907-2.367
		c-0.196-0.526-0.46-1.052-1.052-0.986c-0.263,0.066-1.118,0.592-1.512,1.644c0-1.512,0.789-2.893,1.774-2.893
		c1.118,0,2.631,2.038,3.354,2.301c0.066-0.854-0.46-0.986-0.526-2.498c0-1.184,0-2.235-0.592-2.235
		c-0.723,0-1.644,0.525-2.169,0.854c0.46-0.658,0.854-1.775,2.301-2.235c0.854-0.263,1.446,0.328,1.709,1.644
		c0.065,0.657,0.065,2.301,0.591,2.893c0.593,0.657,0.986,1.446,0.854,3.288c1.25,1.644,2.499,1.38,3.025,2.038
		c0.328,1.315,0.131,2.63,0.592,3.945c0.985-0.46,2.104-0.986,3.222-0.592c0.723-2.038,2.169-3.222,4.274-3.748
		c2.893-0.723,4.011-1.578,4.471-3.288c0.329-1.249-0.197-2.499-1.315-3.419c-1.381-0.789-2.893-0.658-4.142-1.709
		c-1.25,0.854-3.09,0.92-4.34-0.066c1.118,0.132,2.563-0.263,3.419-1.249c-1.578,0.329-3.879-0.131-4.997-1.512
		c0.92,0.395,2.301,0.592,3.682,0.46c0.526-0.592,0.526-1.644,1.513-1.973c0.395-0.132,1.184-0.132,1.184-0.132
		c-0.395,0.263-0.789,0.79-0.854,1.381c0.197,0.263,0.724,0.263,1.118,0.263c1.249-0.132,2.499,0.526,3.156,1.775
		c0.723-5.063-7.035-3.617-7.43-9.271c-0.46,0.658-0.986,1.184-1.578,1.709c0.789-1.709,1.249-4.011,1.314-5.852
		c0.526,1.907,1.775,3.879,3.223,5.062c0,0-1.71-0.591-2.235-1.052c0.46,4.405,6.377,3.748,7.824,7.43
		c-0.132-2.038-0.921-4.143-1.71-5.063c-0.789,0.263-1.249,0.92-1.512,1.513c-0.197-1.052,0.329-2.367,0.789-3.09
		c-0.789,0.131-1.645,0.789-1.907,1.512c-0.131-1.25,0.46-2.499,1.314-3.222c0.789-0.263,1.578-0.658,2.499-0.197
		c0.854,0.394,0.986,1.578,1.118,2.893c0.526,0.329,1.25,0.986,1.25,1.906c0.396,0.132,1.314,0.395,1.314,0.855
		c0.592-0.132,1.314-0.066,1.774,0.395c0.526,0.723,0.854,1.578,0.986,2.433c0.854-0.46,1.775-1.315,2.235-2.301
		c0.328,1.184,0.064,2.696-0.724,3.551c1.973,0,3.813-2.17,3.944-3.945c0.329,3.485-0.92,7.101-3.944,8.811
		c1.709,8.942-6.838,9.928-7.167,11.835c1.709,0.526,4.405,1.249,5.853,2.17l1.71-1.118c1.117-4.405,2.893-7.627,5.128-9.994
		c3.748-4.011,10.717-8.35,20.383-5.063l-0.132,0.592c-4.733-0.789-8.68-0.197-12.164,2.893c2.236-0.263,5.721,0.066,8.285,1.249
		l-0.197,0.658c-1.381-0.46-3.616-0.46-4.471-0.263c-4.274-1.118-10.323-0.854-12.625,4.734c7.167-9.534,21.895-1.709,27.747,9.139
		l-0.658,0.46c-2.434-3.287-5.72-6.838-7.758-5.983c-1.71,0.657-0.133,3.419,2.17,5.588l-0.526,0.526
		c-2.498-2.499-5.457-5.26-7.101-4.471c-1.646,0.723-0.132,3.419,1.577,5.26l-0.461,0.526c-1.973-2.17-4.535-4.143-5.653-3.419
		c-1.185,0.723-0.132,2.761,1.71,4.668l-0.461,0.395c-2.038-2.104-4.339-3.353-5.194-2.301c-0.788,1.052,0.197,2.499,1.842,4.142
		l-0.065,0.066h-0.789c-1.774-1.447-3.419-2.235-4.076-1.249c-0.197,0.329-0.197,0.723,0,1.249H358.03
		c-4.077-1.184-7.299-2.893-7.299-7.232c0-2.367,1.71-5.062,4.865-6.575c3.683-1.841,4.998-3.354,5.063-6.247l-0.526-0.065
		c-0.657,2.958-2.893,4.011-4.997,4.865c-5.654,2.301-7.824,6.97-5.721,11.375c-1.446,0.921-2.498,2.367-3.024,3.879H343.763
		L343.763,312.282z M353.69,312.282c-0.724-0.329-1.382-0.789-1.907-1.315c-0.396,0.46-0.854,0.92-1.315,1.315H353.69
		L353.69,312.282z M359.871,281.512c1.249,0.526,2.17,1.907,2.433,3.287C360.791,284.339,359.739,283.418,359.871,281.512
		L359.871,281.512z M384.855,300.185c-5.062-2.564-9.469-3.024-13.02-1.315c2.499,0.394,5.983,2.104,8.021,3.748l-0.328,0.46
		c-3.092-1.841-6.378-3.024-8.745-3.024c1.184,1.381,3.419,3.748,4.997,4.997l-0.396,0.46c-1.774-1.183-4.076-3.156-5.653-4.537
		c0.196,1.578,1.445,4.931,2.499,6.509l-0.526,0.329c-1.381-1.775-2.63-4.274-2.959-5.721c-0.657,2.17-1.315,5.655-0.986,9.14
		l-0.592,0.065c-0.46-3.222-0.328-6.641,0.395-9.008c1.053-3.418,3.945-5.588,8.549-5.588c2.893-0.066,6.049,1.183,9.008,2.958
		L384.855,300.185L384.855,300.185z"/>
	<path fill="#FFFFFF" d="M374.796,325.432c0.065,4.602-3.023,8.285-5.852,9.073l-0.264-0.395c2.434-1.578,4.076-4.799,4.012-8.613
		c-0.197-12.953-15.912-9.666-20.909-14.531c-1.25,1.446-3.024,2.893-4.932,2.827c-1.314,0.986-2.893,2.564-4.733,2.169
		c0.525-1.249,2.367-2.433,4.011-2.827c0.395-1.775,1.578-3.617,3.287-4.734c-2.104-4.405,0.066-9.073,5.721-11.375
		c2.104-0.854,4.339-1.907,4.997-4.865l0.526,0.065c-0.065,2.893-1.381,4.405-5.063,6.247c-3.155,1.512-4.865,4.208-4.865,6.575
		C350.731,316.951,374.533,308.863,374.796,325.432L374.796,325.432z"/>
	<path fill="#FFFFFF" d="M357.175,334.374l-0.263,0.263c-5.588-4.405-0.197-10.915,4.011-11.309l0.132,0.395
		C357.964,324.643,353.493,329.64,357.175,334.374L357.175,334.374z"/>
	<path fill="#FFFFFF" d="M359.871,281.512c1.249,0.526,2.17,1.907,2.433,3.287C360.791,284.339,359.739,283.418,359.871,281.512
		L359.871,281.512z"/>
	<path fill="#FFFFFF" d="M384.855,300.185c-5.062-2.564-9.469-3.024-13.02-1.315c2.499,0.394,5.983,2.104,8.021,3.748l-0.328,0.46
		c-3.092-1.841-6.378-3.024-8.745-3.024c1.184,1.381,3.419,3.748,4.997,4.997l-0.396,0.46c-1.774-1.183-4.076-3.156-5.653-4.537
		c0.196,1.578,1.445,4.931,2.499,6.509l-0.526,0.329c-1.381-1.775-2.63-4.274-2.959-5.721c-0.657,2.17-1.315,5.655-0.986,9.14
		l-0.592,0.065c-0.46-3.222-0.328-6.641,0.395-9.008c1.053-3.418,3.945-5.588,8.549-5.588c2.893-0.066,6.049,1.183,9.008,2.958
		L384.855,300.185L384.855,300.185z"/>
</g>
</svg>
