<?xml version="1.0" encoding="utf-8"?>
<!-- Generator: Adobe Illustrator 16.0.0, SVG Export Plug-In . SVG Version: 6.00 Build 0)  -->
<!DOCTYPE svg PUBLIC "-//W3C//DTD SVG 1.1//EN" "http://www.w3.org/Graphics/SVG/1.1/DTD/svg11.dtd">
<svg version="1.1" id="Layer_1" xmlns="http://www.w3.org/2000/svg" xmlns:xlink="http://www.w3.org/1999/xlink" x="0px" y="0px"
	 width="155.952px" height="164.377px" viewBox="18.432 14.184 155.952 164.377"
	 enable-background="new 18.432 14.184 155.952 164.377" xml:space="preserve">
<g>
	<path fill="#ED1C24" d="M57.6,173.881h77.76c30.744,0,34.127-3.961,34.127-31.682V50.328c0-11.808-0.359-20.736-5.688-25.992
		c-0.216-0.288-0.504-0.504-0.792-0.792c-3.384-2.808-7.344-4.536-27.647-4.536H57.528c-17.784,0-23.76,1.08-28.08,4.68
		c-6.048,5.04-6.048,14.4-6.048,26.64v53.278h-0.144v38.521c0,13.607,0.864,21.527,5.4,26.062
		C33.336,172.873,41.904,173.881,57.6,173.881L57.6,173.881z"/>
	<path fill="#313D98" d="M80.208,124.129c0.216-3.024,0.576-6.407,1.008-10.151l-0.072,0.504c0.144,0,0.432,0,0.864,0
		c0.144,0,0.36,0,0.504,0c0.36,0,0.72,0,1.008,0c1.224,0,2.448-0.072,3.744-0.146c0.72-0.071,1.44-0.146,2.232-0.215
		c9.216-1.011,19.368-4.104,28.728-10.515h51.266v38.521c0,27.791-3.385,31.752-34.129,31.752H57.528
		c-15.624,0-24.192-1.08-28.872-5.689c-4.536-4.534-5.4-12.455-5.4-26.062v-38.521h57.096c-0.36,2.953-0.648,5.977-0.792,9.145
		c-2.736,0.289-5.544,0.432-8.352,0.793c2.52,0.287,5.328,0.359,8.28,0.215c-0.216,3.385-0.288,6.84-0.288,10.369L80.208,124.129
		L80.208,124.129z"/>
	<path fill="#C4161C" d="M111.384,103.606c10.944-7.055,20.809-18.358,26.568-35.566c2.592,0.216,4.824,0.576,6.048,0.936
		c-0.144,0.504-0.36,1.008-0.576,1.512c-4.032,10.656-9.575,18.936-15.84,25.272c0,0.072,0,0.072-0.071,0.144
		c-0.072,0.072-0.217,0.216-0.359,0.359c-2.81,2.809-5.832,5.255-8.93,7.343H111.384L111.384,103.606z"/>
	<path fill="#232874" d="M82.008,114.479c-0.432,0-0.72,0-0.864,0l0.072-0.504c0-0.072,0.072-0.217,0.072-0.289
		c2.952-0.215,6.048-0.646,9.216-1.367c5.616-1.151,12.815-3.385,18.937-7.487c0.647-0.358,1.297-0.791,1.943-1.226h6.84
		c-9.358,6.408-19.512,9.504-28.728,10.515c-0.792,0.069-1.512,0.144-2.232,0.215c-1.296,0.072-2.52,0.146-3.744,0.146
		c-0.288,0-0.648,0-1.008,0C82.368,114.479,82.152,114.479,82.008,114.479L82.008,114.479z"/>
	<path fill="#C4161C" d="M116.353,65.304c1.151-2.16,2.664-5.184,3.961-8.856c0.07,0,0.07,0,0.07,0c0-0.144,0.072-0.216,0.072-0.288
		c0.072-0.072,0.072-0.216,0.145-0.36v-0.072c0.071-0.144,0.145-0.288,0.145-0.432c0.072,0,0.072,0,0.072,0
		c2.088-6.12,3.742-13.824,2.951-22.104l0,0c2.375-1.8,4.465-3.24,5.977-4.464c0.792,3.312,1.08,6.48,1.152,9.576
		c0,10.008-3.457,18.864-6.625,25.056C121.176,63.792,118.368,64.368,116.353,65.304L116.353,65.304z"/>
	<path fill="#FFFFFF" d="M79.488,113.76c-2.952,0.146-5.76,0.072-8.28-0.215c2.808-0.36,5.616-0.504,8.352-0.793
		c0.288-4.606,0.72-9.071,1.296-13.248C45,84.888,56.232,54.432,59.832,46.728C79.92,46.8,85.248,60.192,88.272,67.536
		c-9-11.952-23.328-12.456-23.328-12.456c-3.312,27.144,5.832,36.936,16.128,42.84c7.128-48.384,32.4-65.952,40.896-73.584
		c5.545,17.496-1.8,33.84-5.615,40.968c5.832-2.664,19.151-2.808,23.039-2.088c-10.008,36.577-37.512,48.959-58.104,50.471
		c-0.504,3.816-0.792,7.345-1.08,10.441H79.2C79.2,120.601,79.272,117.146,79.488,113.76L79.488,113.76z M81.432,112.537
		l0.144-0.072c34.487-5.545,43.848-34.993,45.432-42.769c-10.728-1.584-18.358,1.944-24.911,4.536
		c14.111-14.328,11.879-24.12,11.375-30.744C95.76,60.624,87.624,81.576,83.736,99.358c2.376,1.226,4.752,2.306,7.056,3.457
		c-2.664-0.721-5.04-1.512-7.344-2.305C82.584,104.76,81.936,108.793,81.432,112.537L81.432,112.537z"/>
	<path fill="#FFFFFF" d="M34.128,139.104c-1.728-0.433-3.168-0.937-4.392-1.584c-1.152-0.72-2.016-1.439-2.664-2.23
		c-1.008-1.225-1.44-2.449-1.44-3.889c0-2.377,1.368-4.32,4.248-5.832s6.912-2.232,12.096-2.232c1.8,0,3.456,0.072,4.896,0.217
		c1.368,0.144,3.024,0.432,4.968,0.791l0.072,0.146c-0.216,0.358-0.36,0.791-0.504,1.366c-0.216,0.865-0.36,1.584-0.36,2.377h-1.584
		c0-0.864-0.072-1.512-0.216-2.016c-0.864-0.576-1.872-0.938-2.952-1.225c-1.152-0.217-2.52-0.359-4.248-0.359
		c-3.168,0-5.616,0.576-7.488,1.656c-1.872,1.15-2.808,2.734-2.808,4.752c0,1.223,0.288,2.303,0.936,3.168
		c0.648,0.936,1.44,1.654,2.52,2.23c1.008,0.647,2.088,1.08,3.168,1.297c1.44,0.358,3.168,0.576,5.256,0.576
		c1.368,0,2.664-0.072,3.816-0.289c1.224-0.144,2.52-0.433,3.96-0.863l0.504,0.287l-0.936,1.152
		c-1.656,0.432-3.168,0.793-4.464,1.008c-1.296,0.145-2.952,0.289-4.968,0.289C38.736,139.896,36.288,139.606,34.128,139.104
		L34.128,139.104z M70.992,136.226h-5.328v-0.793c1.224,0,1.8-0.072,2.016-0.144l0.216-0.217c0-0.146-0.144-0.359-0.36-0.722
		l-1.224-1.727h-7.92l-0.504,0.791c-0.504,0.793-0.72,1.367-0.72,1.512c0,0.146,0.072,0.217,0.216,0.289
		c0.216,0.072,0.864,0.143,2.088,0.143v0.865h-3.528h-3.456l-0.072-0.865c0.864,0,1.44,0,1.584-0.069l0.432-0.146l0.36-0.217
		c0.072-0.145,0.432-0.576,1.008-1.367c0.288-0.36,0.72-0.865,1.44-1.944L61.2,126l1.368-1.942h2.16l6.768,9.071l0.864,1.08
		L72.936,135l0.288,0.217l0.288,0.072c0.144,0.069,0.432,0.069,0.936,0.069c0.144,0,0.432,0,0.792,0.072v0.793h-4.248V136.226z
		 M59.184,131.545c0.936,0,2.016,0,3.24,0c1.152,0,2.232,0,3.168,0l-3.312-4.465L59.184,131.545L59.184,131.545z M118.08,136.226
		h-5.399v-0.793c1.225,0,1.871-0.072,2.016-0.144l0.289-0.217c0-0.146-0.146-0.359-0.36-0.722l-1.224-1.727h-7.92l-0.506,0.791
		c-0.504,0.793-0.791,1.367-0.791,1.512c0,0.146,0.071,0.217,0.287,0.289c0.217,0.072,0.864,0.143,2.088,0.143v0.865h-3.526h-3.528
		v-0.865c0.792,0,1.439,0,1.584-0.069l0.434-0.146l0.287-0.217c0.145-0.145,0.504-0.576,1.08-1.367
		c0.287-0.36,0.647-0.865,1.439-1.944l3.96-5.615l1.296-1.942h2.16l6.84,9.071l0.864,1.08l0.575,0.791l0.289,0.217l0.287,0.072
		c0.145,0.069,0.433,0.069,0.937,0.069c0.144,0,0.432,0,0.72,0.072v0.793h-4.177V136.226z M106.272,131.545c0.936,0,2.016,0,3.238,0
		c1.152,0,2.16,0,3.098,0l-3.24-4.465L106.272,131.545L106.272,131.545z M163.224,136.226h-5.326v-0.793
		c1.224,0,1.871-0.072,2.016-0.144l0.288-0.217c0-0.146-0.146-0.359-0.36-0.722l-1.224-1.727h-7.921l-0.504,0.791
		c-0.504,0.793-0.791,1.367-0.791,1.512c0,0.146,0.07,0.217,0.287,0.289s0.863,0.143,2.017,0.143v0.865h-3.456h-3.527v-0.865
		c0.791,0,1.439,0,1.584-0.069l0.359-0.146l0.359-0.217c0.145-0.145,0.504-0.576,1.08-1.367c0.217-0.36,0.647-0.865,1.439-1.944
		l3.96-5.615l1.296-1.942h2.16l6.84,9.071l0.792,1.08L165.24,135l0.288,0.217l0.287,0.072c0.145,0.069,0.433,0.069,0.863,0.069
		c0.217,0,0.504,0,0.793,0.072v0.793h-4.248V136.226z M151.487,131.545c0.937,0,2.017,0,3.24,0c1.151,0,2.16,0,3.097,0l-3.24-4.465
		L151.487,131.545L151.487,131.545z M129.601,153.937l-5.328,0.071v-0.862c1.225,0,1.871-0.072,2.017-0.072l0.216-0.289
		c0-0.143-0.072-0.359-0.359-0.719l-1.151-1.729h-7.92l-0.576,0.863c-0.504,0.793-0.72,1.297-0.72,1.44s0.07,0.287,0.216,0.359
		c0.288,0.072,0.864,0.072,2.088,0.145v0.863l-3.456-0.072l-3.527,0.072v-0.863c0.791-0.071,1.367-0.071,1.584-0.071l0.359-0.146
		l0.359-0.287c0.145-0.145,0.433-0.576,1.08-1.297c0.217-0.359,0.647-0.936,1.367-2.016l3.961-5.615l1.367-1.945h2.16l6.77,9.072
		l0.863,1.08l0.647,0.793l0.288,0.215l0.287,0.145c0.072,0,0.433,0,0.863,0c0.146,0.072,0.504,0.072,0.793,0.072v0.863
		L129.601,153.937L129.601,153.937z M117.792,149.256c1.008,0,2.016,0.072,3.24,0.072c1.224,0,2.23-0.072,3.168-0.072l-3.24-4.463
		L117.792,149.256L117.792,149.256z M94.68,136.226c-3.24-2.088-7.92-5.185-13.896-9.361v4.178c0,0.863,0,1.871,0.072,2.807
		c0,0.648,0.072,1.08,0.216,1.226l0.144,0.145c0.144,0.072,0.288,0.072,0.504,0.144c0.72,0,1.152,0,1.512,0h0.288v0.865
		c-1.944,0-3.024,0-3.312,0c-1.008,0-2.304,0-3.96,0v-0.865c1.152,0,1.872,0,2.016-0.07l0.288-0.072
		c0.072-0.072,0.145-0.217,0.216-0.361c0.072-0.215,0.072-0.719,0.216-1.584c0-0.504,0-1.149,0-1.87v-2.593v-2.52
		c0-0.434-0.072-0.721-0.144-0.793l-0.216-0.287c-0.072-0.072-0.216-0.145-0.432-0.145c-0.288-0.072-0.936-0.072-1.944-0.146v-0.791
		c1.224,0,2.232,0,2.808,0h2.232h1.368c2.088,1.513,4.608,3.312,7.56,5.328c2.16,1.513,3.96,2.664,5.328,3.455v-1.871
		c0-3.168,0-4.969-0.144-5.474c-0.072-0.288-0.144-0.432-0.288-0.432c-0.216-0.145-1.008-0.217-2.376-0.217v-0.791
		c1.224,0,2.376,0,3.456,0c0.936,0,2.232,0,3.816,0v0.791c-1.224,0-1.942,0.072-2.159,0.145l-0.217,0.146
		c-0.145,0.287-0.216,1.008-0.216,2.017c-0.072,1.008-0.144,1.799-0.144,2.303c0,3.816,0.07,6.049,0.215,6.84l-0.215,0.072
		C96.48,136.367,95.544,136.297,94.68,136.226L94.68,136.226z M128.088,136.226h-4.606v-0.504c0.07,0,0.215-0.072,0.432-0.146
		c0.359-0.146,0.72-0.218,1.008-0.359c0.145-0.793,0.217-2.088,0.217-3.815v-1.226c0-0.719-0.072-1.87-0.072-3.312
		c-0.071-0.791-0.145-1.367-0.217-1.584l-0.144-0.143c-0.072,0-0.216-0.072-0.36-0.072c-0.144,0-0.791-0.072-1.943-0.146v-0.791
		h5.545c0.646,0,1.871,0,3.672,0c1.296,0,2.304-0.071,3.096-0.071c1.801,0,3.24,0.071,4.32,0.215
		c1.08,0.145,2.016,0.289,2.808,0.576c0.792,0.289,1.513,0.647,2.089,1.008c0.504,0.36,0.937,0.793,1.225,1.225
		c0.432,0.721,0.72,1.512,0.72,2.377c0,1.08-0.36,2.088-1.08,2.951s-1.655,1.584-2.88,2.16c-1.296,0.576-2.592,1.008-4.104,1.295
		c-1.439,0.217-3.168,0.361-5.256,0.361H128.088L128.088,136.226z M129.528,125.138c-0.072,0.79-0.146,2.375-0.146,4.606v2.016
		c0,1.729,0.072,2.882,0.146,3.457c0.936,0.072,1.871,0.072,2.734,0.072c1.297,0,2.521-0.072,3.602-0.217
		c0.72-0.146,1.439-0.289,2.016-0.576c0.576-0.217,1.152-0.504,1.656-1.008c0.504-0.433,0.936-0.937,1.224-1.584
		c0.288-0.648,0.433-1.298,0.433-2.017c0-0.647-0.145-1.297-0.433-1.945c-0.288-0.575-0.792-1.149-1.438-1.584
		c-0.648-0.504-1.514-0.791-2.521-1.008c-1.08-0.215-2.592-0.358-4.68-0.358C131.328,124.992,130.464,125.063,129.528,125.138
		L129.528,125.138z M140.544,153.937l-4.607,0.071v-0.575c0.071,0,0.217-0.072,0.433-0.144c0.358-0.146,0.72-0.217,1.08-0.361
		c0.144-0.79,0.144-2.016,0.144-3.743v-1.224c0-0.793,0-1.873-0.07-3.385c0-0.793-0.072-1.298-0.217-1.584l-0.072-0.072
		c-0.071-0.071-0.217-0.071-0.433-0.146c-0.144,0-0.792-0.069-1.872-0.143v-0.793l5.545,0.072c0.575,0,1.871-0.072,3.601-0.072
		c1.296,0,2.376,0,3.168,0c1.8,0,3.239,0.072,4.319,0.145c1.08,0.146,2.017,0.359,2.809,0.576c0.792,0.287,1.439,0.648,2.016,1.008
		c0.577,0.36,1.008,0.791,1.297,1.226c0.433,0.719,0.647,1.513,0.647,2.375c0.071,1.151-0.288,2.088-1.008,2.953
		c-0.722,0.862-1.729,1.653-2.952,2.229c-1.225,0.576-2.592,0.938-4.032,1.226c-1.438,0.287-3.239,0.432-5.256,0.432
		L140.544,153.937L140.544,153.937z M142.056,142.849c-0.144,0.864-0.144,2.377-0.144,4.68v1.945c0,1.727,0,2.879,0.144,3.454
		c0.938,0.072,1.801,0.146,2.664,0.146c1.368,0,2.594-0.146,3.602-0.289c0.791-0.143,1.438-0.287,2.016-0.504
		c0.576-0.287,1.152-0.574,1.656-1.08c0.576-0.432,1.008-0.936,1.296-1.584c0.288-0.646,0.433-1.295,0.433-2.016
		c0-0.646-0.145-1.295-0.433-1.943c-0.288-0.576-0.792-1.152-1.44-1.584c-0.72-0.504-1.512-0.793-2.592-1.008
		c-1.008-0.217-2.592-0.289-4.607-0.289C143.856,142.774,142.992,142.774,142.056,142.849L142.056,142.849z M44.712,157.896
		c-0.792,0-2.232,0-4.464,0.072v-0.648c1.008-0.217,1.584-0.358,1.728-0.432l0.288-0.289c0.072-0.215,0.144-0.719,0.216-1.438
		c0.072-0.793,0.144-1.367,0.144-1.729v-6.623c0-0.721-0.072-1.584-0.144-2.592c-0.072-0.648-0.216-1.008-0.36-1.225
		c-0.144-0.072-0.288-0.145-0.504-0.217c-0.576-0.07-1.728-0.144-3.456-0.144v-0.793c0.576,0,1.224,0,2.088,0l5.184,0.072
		l9.216-0.146c2.448,0,4.32,0.146,5.616,0.361c1.368,0.215,2.376,0.576,3.096,1.08c0.792,0.574,1.152,1.15,1.152,1.727
		c0,0.504-0.216,1.008-0.648,1.441c-0.504,0.432-1.08,0.791-1.8,1.15c-0.72,0.289-1.584,0.576-2.448,0.793
		c-0.936,0.145-2.16,0.358-3.6,0.504c1.944,0.072,3.528,0.217,4.752,0.359c1.224,0.217,2.16,0.432,3.024,0.721
		c0.792,0.358,1.368,0.721,1.8,1.225c0.432,0.432,0.648,0.936,0.648,1.512c0,1.152-0.792,2.088-2.232,2.951
		c-1.512,0.865-3.456,1.512-5.76,1.943c-1.8,0.289-3.888,0.434-6.264,0.434L44.712,157.896L44.712,157.896z M47.592,142.92
		c-0.144,0.576-0.216,1.584-0.216,2.881v2.734c0.936,0,1.8,0,2.52,0c2.088,0,3.672-0.07,4.752-0.216
		c1.152-0.145,2.016-0.288,2.664-0.575c0.576-0.218,1.152-0.504,1.512-0.937c0.432-0.36,0.648-0.865,0.648-1.44
		c0-0.937-0.72-1.584-2.016-2.017c-1.368-0.432-3.24-0.646-5.832-0.646C50.184,142.705,48.888,142.774,47.592,142.92L47.592,142.92z
		 M47.376,149.474v4.319c0,0.358,0,1.367,0.072,3.022c1.296,0.072,2.592,0.216,3.96,0.216c2.232,0,3.96-0.216,5.328-0.505
		c1.368-0.286,2.376-0.719,3.096-1.366c0.72-0.647,1.08-1.367,1.08-2.16c0-0.791-0.288-1.438-1.008-2.017
		c-0.648-0.504-1.729-0.936-3.024-1.225c-1.368-0.215-3.6-0.359-6.768-0.359C49.392,149.399,48.456,149.399,47.376,149.474
		L47.376,149.474z M87.48,153.937c-0.792,0-1.656,0-2.448,0.071c0-0.145-0.144-0.358-0.36-0.504l-3.24-3.096
		c-0.936-0.863-1.728-1.584-2.376-2.089c-0.288-0.217-0.648-0.432-0.936-0.575l0.144-0.287c1.224,0.069,2.16,0,2.808-0.217
		c0.576-0.146,1.152-0.433,1.512-0.863c0.432-0.435,0.648-0.864,0.648-1.44c0-0.504-0.216-0.937-0.648-1.295
		c-0.432-0.361-1.008-0.648-1.656-0.722c-0.432-0.146-1.224-0.146-2.304-0.146c-0.432,0-0.936,0-1.44,0.072
		c0,0.146-0.072,0.648-0.072,1.369c-0.072,1.656-0.072,2.664-0.072,3.168c0,0.863,0,1.799,0,2.807
		c0.072,1.152,0.072,1.802,0.072,2.019c0.072,0.287,0.144,0.504,0.216,0.646l0.144,0.072c0.144,0.072,0.288,0.072,0.504,0.146
		c0.216,0,0.792,0,1.728,0v0.936c-1.728-0.071-3.456-0.071-5.256-0.071c-1.584,0-3.024,0-4.392,0.071v-0.936
		c1.152,0,1.872,0,2.088-0.072l0.216-0.071l0.144-0.287c0.072-0.218,0.144-0.504,0.144-1.009l0.144-2.521v-3.023l-0.072-1.799
		c0-0.721-0.072-1.152-0.144-1.297l-0.288-0.145c-0.216-0.072-0.936-0.144-2.232-0.216v-0.793c0.216,0,1.08,0,2.448,0.072
		c0.648,0,1.656,0,2.88,0c1.08,0,2.016,0,2.736-0.072c1.224,0,2.304,0,3.096,0c1.584,0,2.808,0.072,3.6,0.146
		c0.792,0.145,1.44,0.432,2.016,0.791c0.576,0.434,0.864,0.938,0.864,1.514c0,0.719-0.432,1.367-1.152,1.943
		c-0.792,0.576-1.944,1.008-3.528,1.367c0.288,0.289,0.576,0.504,0.864,0.793c0.36,0.287,0.504,0.432,0.576,0.504l0.144,0.145
		l2.376,2.016c0.648,0.576,0.936,0.72,0.936,0.791c0.792,0.576,1.224,0.937,1.44,1.008c0.144,0.072,0.288,0.218,0.504,0.218
		c0.144,0.071,0.504,0.071,1.008,0.071v0.863C89.352,153.937,88.2,153.937,87.48,153.937L87.48,153.937z M103.248,153.937
		c-2.376,0-4.104,0-4.968,0c-0.288,0-1.944,0-5.112,0.071v-0.647c0.648-0.144,1.08-0.287,1.512-0.433
		c0.072-0.286,0.072-0.647,0.144-1.223c0.072-1.011,0.144-1.729,0.144-2.16v-3.672c0-0.146-0.072-0.722-0.072-1.729
		c0-0.647-0.072-1.008-0.216-1.151l-0.216-0.146c-0.288-0.072-1.008-0.143-2.16-0.143v-0.865l3.528,0.072c0.648,0,1.296,0,1.944,0
		c1.438,0,2.951,0,4.68-0.072h3.096c0.36,0,1.08,0,2.232,0c0.072,0,0.216,0,0.504,0.072l0.072,0.072l-0.289,1.295
		c0,0.072-0.071,0.504-0.145,1.225h-1.224c0-0.648,0-1.08-0.072-1.225l-0.216-0.215c-0.145-0.072-0.504-0.072-1.225-0.146
		c-1.008-0.071-2.017-0.071-2.951-0.071c-0.864,0-1.801,0-2.736,0.071c-0.145,0.647-0.216,1.438-0.216,2.447v1.729
		c0.647,0.072,1.368,0.072,2.159,0.072c0.217,0,1.08,0,2.521-0.072c0.505,0,0.864,0,0.937-0.071l0.217-0.144
		c0.145-0.217,0.216-0.576,0.216-1.151h1.224l-0.07,2.016l0.07,1.943h-1.295c0-0.646-0.072-1.08-0.217-1.224
		c-0.145-0.146-0.359-0.217-0.646-0.217c-0.721-0.072-1.584-0.072-2.736-0.072c-0.938,0-1.729,0-2.376,0v3.673
		c0,0.432,0,0.721,0,1.079c0.864,0,1.8,0,2.952,0c1.08,0,2.088,0,3.023-0.071c0.937,0,1.512-0.072,1.729-0.144l0.216-0.146
		c0.146-0.289,0.36-0.793,0.576-1.584h1.224c-0.216,1.152-0.359,2.088-0.359,2.81l-0.145,0.144c-0.646,0-1.584,0.071-2.809,0.071
		L103.248,153.937L103.248,153.937z"/>
	<path fill="#00649A" d="M173.088,48.312c0-13.608-1.728-21.816-6.552-26.496c-4.752-4.752-12.96-6.408-26.354-6.336H52.56
		c-13.392-0.072-21.6,1.584-26.352,6.336c-4.824,4.68-6.552,12.888-6.48,26.496v96.121c-0.072,13.608,1.656,21.815,6.48,26.567
		c4.752,4.752,12.96,6.336,26.352,6.336h87.625c13.393,0,21.601-1.584,26.353-6.336c4.823-4.752,6.552-12.959,6.552-26.567
		L173.088,48.312L173.088,48.312z M52.56,14.184h87.625c13.465,0,22.031,1.512,27.287,6.696s6.842,13.752,6.912,27.432v96.121
		c-0.07,13.68-1.656,22.248-6.912,27.432c-5.256,5.186-13.822,6.697-27.287,6.697v-0.576v0.576H52.56v-0.576v0.576
		c-13.464,0-22.032-1.513-27.288-6.697c-5.256-5.184-6.84-13.752-6.84-27.432V48.312c0-13.68,1.584-22.248,6.84-27.432
		S39.096,14.184,52.56,14.184L52.56,14.184z"/>
</g>
</svg>
