<?xml version="1.0" encoding="utf-8"?>
<!-- Generator: Adobe Illustrator 16.0.0, SVG Export Plug-In . SVG Version: 6.00 Build 0)  -->
<!DOCTYPE svg PUBLIC "-//W3C//DTD SVG 1.1//EN" "http://www.w3.org/Graphics/SVG/1.1/DTD/svg11.dtd">
<svg version="1.1" id="Layer_1" xmlns="http://www.w3.org/2000/svg" xmlns:xlink="http://www.w3.org/1999/xlink" x="0px" y="0px"
	 width="140.969px" height="165.137px" viewBox="25.894 13.829 140.969 165.137"
	 enable-background="new 25.894 13.829 140.969 165.137" xml:space="preserve">
<g>
	<path fill="#FFCB05" d="M103.614,114.69c2.463,0.969,4.896,1.965,7.332,2.961c2.381-1.301,4.732-2.602,7.113-3.9
		c2.131,3.65,2.047,4.398,1.549,8.631c-2.768-0.359-5.534-0.719-8.301-1.079c-2.242,1.826-4.483,3.651-6.754,5.423
		C103.421,122.88,102.867,118.896,103.614,114.69L103.614,114.69z"/>
	<path fill="#FFCB05" stroke="#FFF200" stroke-width="0.083" stroke-miterlimit="2.6131" d="M82.306,73.832
		c-2.048-5.201-4.123-10.429-6.171-15.63c-8.745,7.773-31.271,9.046-22.94-11.702c2.712-6.695,7.195-7.47,13.449-10.125
		c8.413-27.525,53.492-19.253,46.462-5.201c5.812-2.158,10.819-2.489,14.86-1.687c15.828,3.07,21.031,27.913-9.63,16.376
		c2.158,5.782,4.564,10.734,7.582,16.128C108.872,61.328,96.834,65.118,82.306,73.832L82.306,73.832z"/>
	<polygon points="59.946,29.044 59.946,28.795 60.057,28.38 60.361,27.8 60.832,27.108 61.413,26.333 62.188,25.393 63.046,24.452 
		64.125,23.401 65.287,22.35 66.643,21.299 68.055,20.164 69.632,19.113 71.32,18.117 73.202,17.176 75.139,16.292 77.187,15.544 
		78.017,15.24 78.847,15.019 79.732,14.77 80.59,14.604 81.476,14.438 82.417,14.244 83.302,14.134 84.243,14.023 85.239,13.913 
		86.18,13.829 87.176,13.829 88.173,13.829 89.225,13.829 90.221,13.913 91.245,14.023 92.324,14.134 93.265,14.244 94.205,14.438 
		95.202,14.659 96.198,14.909 97.14,15.129 98.135,15.434 99.187,15.766 100.183,16.125 104.278,17.896 107.405,19.694 
		109.509,21.52 110.81,23.401 111.335,25.227 111.28,26.97 110.562,28.685 109.453,30.206 107.985,31.672 106.271,32.917 
		104.417,33.969 102.479,34.799 100.543,35.379 98.771,35.656 97.25,35.601 96.004,35.241 97,34.66 98.052,34.024 98.993,33.249 
		99.935,32.447 100.765,31.562 101.483,30.676 102.009,29.736 102.396,28.795 102.59,27.8 102.535,26.859 102.229,25.918 
		101.649,25.033 100.765,24.175 99.603,23.401 97.997,22.654 96.004,21.99 93.791,21.464 91.494,21.05 89.225,20.773 86.817,20.634 
		84.409,20.634 82.002,20.773 79.594,21.05 77.187,21.464 74.807,21.99 72.51,22.654 70.213,23.401 67.999,24.286 65.813,25.337 
		63.765,26.444 61.773,27.689 	"/>
	<polygon points="70.739,34.439 70.518,34.08 69.743,33.775 68.525,33.443 66.864,33.194 64.928,33.083 62.713,33.083 
		60.306,33.194 57.788,33.609 55.187,34.245 52.613,35.186 50.15,36.431 47.798,38.062 45.75,40.054 43.979,42.6 42.567,45.532 
		41.627,48.99 41.211,52.503 41.406,55.546 42.097,58.257 43.232,60.415 44.698,62.241 46.497,63.652 48.49,64.647 50.676,65.284 
		52.89,65.533 55.187,65.422 57.428,64.869 59.531,64.067 61.413,62.877 63.101,61.356 64.401,59.475 65.343,57.317 63.765,58.312 
		62.243,59.198 60.776,59.89 59.42,60.415 58.12,60.83 56.902,61.023 55.712,61.079 54.605,60.886 53.609,60.553 52.668,60 
		51.783,59.253 50.953,58.312 50.205,57.151 49.486,55.795 48.85,54.135 48.268,52.337 47.908,50.401 47.908,48.575 48.213,46.805 
		48.85,45.117 49.79,43.457 50.897,41.991 52.309,40.58 53.914,39.308 55.657,38.201 57.539,37.177 59.586,36.32 61.717,35.601 
		63.931,35.02 66.172,34.66 68.442,34.439 	"/>
	<polygon points="114.269,28.214 115.681,28.104 117.036,28.048 118.253,27.965 119.36,28.048 120.438,28.214 121.353,28.436 
		122.294,28.74 123.124,29.155 123.954,29.681 124.646,30.317 125.421,31.091 126.112,31.977 126.776,32.973 127.469,34.134 
		128.104,35.49 128.824,36.957 129.405,38.478 129.819,39.833 130.042,41.133 130.042,42.295 129.933,43.291 129.571,44.231 
		129.103,45.062 128.465,45.698 127.635,46.223 126.692,46.639 125.642,46.943 124.425,47.054 123.124,46.998 121.657,46.805 
		120.08,46.528 118.42,46.058 119.664,46.943 120.883,47.69 122.183,48.326 123.483,48.852 124.757,49.267 126.058,49.571 
		127.356,49.682 128.575,49.682 129.767,49.516 130.929,49.211 131.979,48.796 132.976,48.16 133.916,47.386 134.69,46.39 
		135.383,45.283 135.909,43.982 136.269,42.461 136.379,40.829 136.213,39.003 135.854,37.123 135.272,35.241 134.44,33.388 
		133.392,31.617 132.117,30.041 130.649,28.574 128.935,27.385 126.998,26.5 124.84,25.918 122.543,25.808 119.969,26.112 
		117.202,26.859 	"/>
	<polygon points="67.39,56.432 67.695,57.261 68.442,59.364 69.521,62.407 70.739,66.003 71.929,69.766 72.98,73.279 73.728,76.156 
		74.032,78.037 74.558,77.566 75.194,77.013 75.858,76.432 76.605,75.796 77.436,75.077 78.266,74.385 79.207,73.611 80.203,72.809 
		81.254,71.979 82.361,71.149 83.551,70.291 84.769,69.461 86.07,68.576 87.342,67.746 88.754,66.944 90.165,66.114 91.604,65.339 
		93.126,64.592 94.731,63.873 96.309,63.181 97.94,62.601 99.657,62.02 101.345,61.549 103.116,61.134 104.942,60.775 
		106.741,60.47 108.623,60.304 110.562,60.249 112.44,60.249 114.435,60.415 116.427,60.664 118.42,61.023 117.367,60.47 
		116.205,60 115.017,59.668 113.688,59.364 112.331,59.198 110.92,59.087 109.453,59.004 107.933,59.004 106.354,59.143 
		104.749,59.253 103.116,59.419 101.539,59.668 99.878,59.945 98.246,60.249 96.586,60.664 94.952,61.023 93.32,61.411 
		91.715,61.881 90.221,62.352 88.699,62.822 87.232,63.348 85.821,63.873 84.464,64.344 83.192,64.869 81.946,65.422 80.839,65.893 
		79.788,66.418 78.847,66.888 77.961,67.358 77.27,67.746 76.605,68.161 76.135,68.521 75.499,66.944 75.028,65.339 74.558,63.763 
		73.977,62.186 73.091,60.664 71.791,59.143 69.992,57.731 	"/>
	<polygon points="76.965,48.99 77.187,48.852 77.961,48.464 79.068,47.856 80.59,47.109 82.472,46.279 84.658,45.338 87.121,44.398 
		89.75,43.457 92.545,42.6 95.479,41.88 98.522,41.299 101.594,40.885 104.692,40.774 107.683,40.94 110.615,41.465 113.438,42.351 
		113.742,44.453 114.074,46.528 114.435,48.464 114.851,50.207 115.319,51.867 115.847,53.333 116.481,54.55 117.202,55.602 
		115.099,54.191 113.632,52.808 112.608,51.396 112.082,49.986 111.75,48.63 111.558,47.386 111.335,46.223 110.976,45.228 
		109.868,45.338 108.567,45.449 107.103,45.532 105.413,45.587 103.642,45.643 101.649,45.698 99.603,45.753 97.415,45.864 
		95.063,46.002 92.656,46.168 90.221,46.473 87.647,46.749 85.073,47.164 82.361,47.634 79.677,48.271 	"/>
	<polygon points="105.579,115.383 101.399,114.58 101.815,122.492 108.042,118.343 101.815,129.906 101.649,129.437 
		101.124,128.108 100.46,126.199 99.769,123.737 99.131,120.972 98.661,118.039 98.522,115.162 98.882,112.533 100.071,112.396 
		100.875,112.285 101.483,112.285 101.926,112.396 102.479,112.755 103.116,113.336 104.112,114.222 	"/>
	<polygon points="109.287,114.166 116.371,109.987 116.565,110.349 117.036,111.344 117.617,112.865 118.198,114.69 
		118.612,116.685 118.668,118.785 118.253,120.722 117.202,122.492 115.956,122.022 114.739,121.552 113.632,121.138 
		112.608,120.722 111.806,120.444 111.142,120.196 110.754,120.03 110.562,119.976 115.153,119.146 114.739,113.336 	"/>
	<polygon points="125.892,91.343 125.31,93.031 124.646,94.635 123.897,96.156 123.124,97.623 122.183,98.979 121.187,100.251 
		120.135,101.44 118.974,102.437 117.672,103.377 116.315,104.124 114.794,104.705 113.217,105.258 111.444,105.534 
		109.619,105.729 107.627,105.646 105.522,105.479 106.354,106.198 107.156,106.778 108.042,107.194 108.981,107.472 
		109.868,107.72 110.81,107.774 111.75,107.831 112.69,107.774 113.632,107.665 114.545,107.472 115.431,107.306 116.261,107.11 
		117.091,106.89 117.838,106.642 118.612,106.476 119.25,106.31 121.353,105.479 123.124,104.263 124.59,102.657 125.642,100.722 
		126.308,98.619 126.583,96.267 126.417,93.86 	"/>
	<polygon points="81.78,95.908 81.891,96.047 82.25,96.434 82.776,97.042 83.468,97.789 84.299,98.729 85.295,99.726 
		86.485,100.858 87.702,101.966 89.003,103.128 90.414,104.263 91.854,105.313 93.32,106.254 94.787,107.058 96.309,107.72 
		97.774,108.135 99.187,108.356 97.472,108.661 95.894,108.827 94.427,108.827 93.071,108.716 91.854,108.411 90.691,107.997 
		89.64,107.416 88.643,106.642 87.702,105.783 86.817,104.788 85.932,103.653 85.129,102.381 84.243,100.972 83.468,99.394 
		82.61,97.733 	"/>
	<polygon points="105.579,99.614 105.634,100.028 105.469,100.499 105.164,100.972 104.638,101.385 104.002,101.717 
		103.172,101.854 102.176,101.717 101.013,101.247 101.345,101.911 101.871,102.437 102.535,102.853 103.228,103.128 
		104.058,103.321 104.888,103.433 105.634,103.433 106.409,103.321 106.99,103.072 107.517,102.853 107.819,102.491 
		107.933,102.021 107.819,101.551 107.405,100.972 106.687,100.308 	"/>
	<polygon points="104.224,71.868 104.278,71.923 104.474,72.089 104.749,72.283 105.108,72.449 105.522,72.56 105.994,72.504 
		106.465,72.338 106.99,71.868 107.351,71.979 107.683,72.089 108.099,72.145 108.567,72.283 108.981,72.449 109.343,72.615 
		109.675,72.919 109.979,73.279 109.509,72.615 108.872,71.812 108.099,70.983 107.269,70.208 106.409,69.627 105.634,69.406 
		104.888,69.571 104.334,70.346 104.058,70.927 103.862,71.232 103.946,71.454 	"/>
	<polygon points="98.135,72.919 98.052,72.974 97.94,73.223 97.72,73.444 97.415,73.694 97.056,73.915 96.586,74.025 96.06,73.915 
		95.423,73.611 95.202,73.804 94.842,73.97 94.482,74.219 94.123,74.385 93.735,74.689 93.431,74.911 93.126,75.271 92.96,75.686 
		93.265,74.966 93.652,74.025 94.205,73.03 94.787,72.034 95.479,71.287 96.198,70.872 96.89,70.872 97.608,71.454 97.997,71.979 
		98.301,72.227 98.301,72.449 	"/>
	<polygon points="99.935,80.554 100.403,81.301 100.765,81.965 100.875,82.546 100.765,83.017 100.349,83.376 99.546,83.708 
		98.356,84.012 96.668,84.234 94.952,84.759 93.846,85.7 93.126,86.945 92.601,88.355 92.074,89.767 91.327,91.039 90.276,92.034 
		88.643,92.643 87.425,92.754 86.07,92.643 84.658,92.284 83.357,91.647 82.25,90.707 81.421,89.518 80.95,87.996 81.006,86.115 
		81.531,84.704 82.472,83.764 83.662,83.376 84.88,83.376 86.07,83.818 86.955,84.593 87.481,85.7 87.342,87.11 87.287,86.834 
		87.287,86.529 87.232,86.226 87.121,85.894 86.955,85.589 86.65,85.312 86.18,85.008 85.544,84.704 84.354,84.648 83.607,85.174 
		83.247,86.059 83.247,87.221 83.551,88.411 84.188,89.462 85.018,90.098 86.125,90.292 87.868,89.711 89.114,88.632 90.054,87.221 
		90.719,85.645 91.245,83.957 91.715,82.353 92.324,80.969 93.071,79.89 93.956,79.199 94.897,78.729 95.838,78.562 96.834,78.562 
		97.72,78.784 98.604,79.199 99.353,79.78 	"/>
	<polygon points="103.946,80.887 103.696,81.771 103.586,82.491 103.586,83.071 103.808,83.487 104.334,83.708 105.22,83.818 
		106.409,83.708 108.099,83.487 109.038,83.431 109.868,83.487 110.562,83.708 111.226,84.068 111.806,84.538 112.276,85.063 
		112.802,85.645 113.217,86.226 113.688,86.889 114.158,87.47 114.685,87.996 115.209,88.466 115.847,88.881 116.565,89.103 
		117.367,89.296 118.31,89.241 119.554,88.992 120.771,88.466 122.017,87.692 123.067,86.696 123.843,85.534 124.286,84.123 
		124.286,82.546 123.705,80.776 122.765,79.559 121.657,78.95 120.356,78.895 119.194,79.254 118.198,80.029 117.562,81.024 
		117.423,82.242 117.894,83.542 117.894,83.238 117.838,82.961 117.783,82.657 117.783,82.297 117.894,81.965 118.087,81.605 
		118.502,81.191 119.028,80.72 120.135,80.306 120.965,80.609 121.603,81.356 121.906,82.491 121.962,83.708 121.657,84.897 
		121.021,85.755 120.024,86.226 119.083,86.309 118.198,86.17 117.367,85.894 116.676,85.534 115.956,85.008 115.375,84.427 
		114.794,83.764 114.269,83.127 113.742,82.353 113.271,81.661 112.802,80.969 112.331,80.25 111.86,79.669 111.392,79.088 
		110.864,78.617 110.339,78.258 109.287,77.844 108.208,77.677 107.269,77.732 106.354,78.092 105.522,78.562 104.806,79.199 
		104.278,80.029 	"/>
	<path stroke="#000000" stroke-width="0.083" stroke-miterlimit="2.6131" d="M54.854,96.517c-2.352-0.083-4.981,1.106-7.915,3.595
		c-3.349,2.878-7.666,7.912-12.923,15.104c-5.396,7.388-8.081,14.745-8.081,22.187c0,5.838,1.605,11.203,4.76,16.101
		c1.521,2.269,3.818,4.315,6.862,6.226c3.044,1.881,6.227,3.209,9.547,3.955c3.293,0.748,7.029,1.106,11.208,1.106
		c11.041,0,20.617-2.655,28.78-7.967c-9.99,3.069-21.115,4.481-33.374,4.231c-6.918-0.332-12.729-2.048-17.489-5.117
		c-5.258-3.402-7.915-7.828-7.915-13.278c0-4.841,1.633-10.484,4.898-16.875c2.768-5.562,6.116-10.484,9.99-14.744
		c4.843-5.367,8.8-8.051,11.872-8.051c1.577,0,3.127,0.803,4.594,2.38c1.162,1.438,2.324,2.849,3.459,4.232
		c0.775,0.855,1.162,1.549,1.162,2.073c0,0.913-1.605,2.021-4.815,3.319c-0.719,0.277-1.079,0.941-1.079,1.938
		c0,0.248,0.028,0.608,0.111,1.106c0.055,0.524,0.083,0.829,0.083,0.995c-0.083,1.328,0.332,1.992,1.246,1.992
		c1.854,0,3.625-1.743,5.312-5.229c1.384-2.877,2.076-5.007,2.076-6.418c0-0.913-0.221-1.688-0.719-2.353
		c-0.748-1.022-1.66-2.047-2.712-3.099C61.274,101.33,58.313,98.868,54.854,96.517L54.854,96.517z M115.099,158.538
		c-2.685-0.607-4.013-2.02-4.013-4.288c0-0.829,0.194-1.604,0.581-2.323c-1.105,1.301-4.206,3.1-9.298,5.396
		c-4.123,1.854-7.361,2.794-9.713,2.794c-2.684,0-4.068-1.272-4.068-3.817c0-1.384,0.387-2.933,1.162-4.647
		c1.827-3.983,4.871-7.055,9.021-9.213c3.184-1.688,6.67-2.683,10.517-3.015c-6.228,2.157-10.571,4.454-13.034,6.888
		c-1.827,2.104-2.712,4.066-2.712,5.894c0,2.213,1.688,3.431,5.063,3.68c1.744,0.138,4.18-0.747,7.307-2.655
		c3.459-2.131,5.175-4.232,5.175-6.336c0-1.105-0.524-2.129-1.577-3.099c1.411,0.388,3.459,0.858,6.115,1.467
		c0.857,0.14,1.273,0.608,1.273,1.438c0,0.332-0.084,0.719-0.25,1.134c-0.166,0.969-0.248,1.882-0.248,2.739
		c0,4.48,2.074,7.662,6.254,9.544C121.603,160.115,119.083,159.59,115.099,158.538L115.099,158.538z M120.799,140.694
		c4.483,6.004,7.195,13.777,8.054,23.32c0.416,2.187,0.748,3.293,0.914,3.293c0.498,0,1.105-1.521,1.881-4.593
		c8.91-17.731,15.912-28.633,21.004-32.644c0.443-0.249,0.637-0.442,0.637-0.581c-0.027-0.083-0.166-0.138-0.359-0.138
		c-0.857,0-2.074,0.58-3.652,1.797c-2.158,1.66-4.15,3.983-5.978,6.972l-12.011,19.254c-2.297-7.524-3.957-12.394-4.953-14.661
		c-0.773-1.384-2.188-2.074-4.262-2.074C121.657,140.64,121.215,140.668,120.799,140.694L120.799,140.694z M142.438,158.677
		c3.487-2.158,6.283-4.178,8.33-6.031c0.885-0.83,1.551-1.549,2.021-2.156c0.332-0.526,1.052-1.992,2.157-4.398
		c0.721-1.438,1.385-2.158,2.021-2.158c0.664,0,0.996,0.555,0.996,1.66c0,0.719-0.138,2.131-0.47,4.26
		c-0.306,2.104-0.443,3.598-0.443,4.51c0,1.438,0.36,2.353,1.136,2.738c0.471,0.25,1.549,0.359,3.153,0.359
		c1.688,0,3.128-0.359,4.317-1.078c0.056-0.056,0.109-0.083,0.166-0.139l0.056,0.056c0,0.248-0.858,0.912-2.573,2.019
		c-1.966,1.246-3.681,1.883-5.119,1.883c-1.302,0-2.297-0.471-3.017-1.385c-0.388-0.523-0.804-1.409-1.219-2.654
		c-0.332-0.94-0.664-1.467-0.94-1.577c-0.388-0.083-1.965,0.608-4.76,2.075c-2.768,1.494-4.511,2.24-5.23,2.24
		C142.716,158.897,142.522,158.813,142.438,158.677L142.438,158.677z"/>
	<path stroke="#000000" stroke-width="0.083" stroke-miterlimit="2.6131" d="M38.61,172.147l0.083-0.441
		c0.055-0.193,0.083-0.305,0.083-0.359c0.028-0.027,0.056-0.056,0.111-0.056c0.028,0,0.028,0,0.055,0.026
		c0,0.029,0.027,0.057,0.027,0.111c0,0.027-0.027,0.11-0.027,0.249c-0.083,0.554-0.138,1.106-0.138,1.632
		c0,0.14,0,0.277,0.028,0.442c0,0.14,0,0.222,0,0.222c0,0.057,0,0.111-0.028,0.139c0,0.027-0.028,0.027-0.056,0.027
		c-0.027,0-0.055,0-0.055-0.027c-0.028-0.026-0.056-0.082-0.056-0.165l-0.11-0.747c-0.304-0.359-0.636-0.664-1.024-0.857
		c-0.387-0.193-0.802-0.275-1.218-0.275c-0.747,0-1.328,0.221-1.743,0.662c-0.415,0.443-0.636,1.053-0.636,1.854
		c0,0.388,0.055,0.747,0.138,1.079s0.222,0.637,0.388,0.913c0.304,0.47,0.636,0.83,1.024,1.079c0.387,0.248,0.803,0.359,1.246,0.359
		c0.249,0,0.47-0.027,0.719-0.111c0.221-0.055,0.471-0.193,0.692-0.359v-2.157c-0.387-0.056-0.637-0.083-0.774-0.11
		c-0.167-0.027-0.222-0.084-0.222-0.139c0-0.027,0-0.056,0.027-0.082c0.028-0.029,0.055-0.029,0.111-0.029
		c0.027,0,0.166,0.029,0.415,0.029c0.249,0.026,0.526,0.055,0.775,0.055s0.525-0.027,0.802-0.055c0.277,0,0.416-0.029,0.416-0.029
		c0.055,0,0.083,0,0.11,0.029c0.028,0.026,0.028,0.055,0.028,0.082c0,0.055-0.056,0.083-0.138,0.11
		c-0.111,0.056-0.277,0.083-0.526,0.139v1.438c0,0.221,0.027,0.415,0.083,0.581c0,0.026,0.027,0.026,0.027,0.026
		c0,0.057-0.083,0.11-0.193,0.11c-0.138,0-0.249,0.028-0.36,0.056c-0.083,0.028-0.277,0.11-0.554,0.25
		c-0.249,0.139-0.47,0.248-0.636,0.303c-0.277,0.14-0.526,0.223-0.775,0.277s-0.498,0.083-0.747,0.083
		c-0.359,0-0.72-0.056-1.052-0.166s-0.608-0.276-0.886-0.471c-0.359-0.276-0.636-0.636-0.83-1.078
		c-0.194-0.415-0.304-0.886-0.304-1.384c0-0.555,0.11-1.051,0.332-1.521c0.222-0.496,0.526-0.912,0.941-1.271
		c0.332-0.276,0.692-0.498,1.107-0.637s0.858-0.222,1.356-0.222c0.332,0,0.664,0.027,0.996,0.11
		C37.974,171.928,38.306,172.011,38.61,172.147L38.61,172.147z M55.74,175.137c0,0.996,0.193,1.742,0.581,2.323
		c0.388,0.555,0.941,0.83,1.633,0.83s1.246-0.275,1.661-0.857c0.415-0.554,0.608-1.328,0.608-2.296c0-0.969-0.193-1.741-0.581-2.323
		c-0.416-0.554-0.941-0.83-1.633-0.83c-0.691,0-1.245,0.276-1.66,0.857C55.934,173.396,55.74,174.168,55.74,175.137L55.74,175.137z
		 M57.871,178.512c-0.499,0-0.941-0.083-1.356-0.222c-0.415-0.166-0.774-0.387-1.08-0.719c-0.304-0.277-0.525-0.609-0.664-0.996
		c-0.166-0.389-0.222-0.83-0.222-1.301c0-0.525,0.083-0.996,0.222-1.411c0.166-0.414,0.415-0.773,0.719-1.105
		c0.332-0.332,0.72-0.581,1.163-0.747c0.443-0.166,0.913-0.248,1.439-0.248c0.498,0,0.94,0.082,1.356,0.221
		c0.388,0.166,0.747,0.388,1.079,0.691c0.305,0.305,0.526,0.664,0.664,1.051c0.166,0.389,0.222,0.803,0.222,1.272
		c0,1.052-0.305,1.909-0.969,2.545C59.78,178.181,58.922,178.512,57.871,178.512L57.871,178.512z M81.614,172.231
		c-0.36-0.056-0.581-0.084-0.692-0.11c-0.111-0.027-0.166-0.083-0.166-0.14c0-0.026,0-0.055,0.028-0.082
		c0.027-0.027,0.083-0.027,0.111-0.027c0.027,0,0.138,0.027,0.387,0.027c0.249,0.027,0.498,0.056,0.72,0.056
		c0.249,0,0.47-0.027,0.719-0.056c0.249,0,0.388-0.027,0.388-0.027c0.055,0,0.083,0,0.111,0.027
		c0.027,0.027,0.027,0.056,0.027,0.082c0,0.057-0.055,0.111-0.166,0.14s-0.332,0.056-0.692,0.11
		c-0.056,0.222-0.083,0.525-0.139,0.912c-0.028,0.36-0.055,0.857-0.083,1.438l-0.055,1.301c-0.056,0.886-0.277,1.55-0.665,1.991
		c-0.387,0.415-0.969,0.637-1.743,0.637c-0.526,0-0.969-0.083-1.329-0.222c-0.36-0.14-0.636-0.358-0.885-0.663
		c-0.139-0.193-0.25-0.416-0.305-0.691c-0.055-0.277-0.083-0.72-0.083-1.301v-1.633c0-0.332,0-0.663-0.027-0.939
		c0-0.305-0.028-0.582-0.028-0.83c-0.388-0.056-0.637-0.084-0.748-0.11c-0.111-0.056-0.166-0.083-0.166-0.14
		c0-0.026,0-0.055,0.028-0.082c0.027-0.027,0.083-0.027,0.111-0.027c0.027,0,0.083,0,0.166,0.027
		c0.387,0.027,0.774,0.056,1.162,0.056c0.388,0,0.775-0.027,1.19-0.056c0.056-0.027,0.111-0.027,0.139-0.027
		c0.027,0,0.083,0,0.11,0.027c0.028,0.027,0.028,0.056,0.028,0.082c0,0.057-0.056,0.084-0.138,0.14
		c-0.111,0.026-0.36,0.056-0.719,0.11c-0.028,0.248-0.028,0.525-0.056,0.83c0,0.276,0,0.607,0,0.939v1.771
		c0,0.442,0,0.773,0.028,0.968c0.028,0.222,0.083,0.416,0.138,0.554c0.11,0.333,0.276,0.581,0.526,0.721
		c0.249,0.166,0.582,0.248,0.968,0.248c0.72,0,1.246-0.222,1.55-0.69c0.332-0.443,0.47-1.162,0.47-2.214v-0.912
		c0-0.277,0-0.609-0.055-0.996C81.753,173.09,81.697,172.675,81.614,172.231L81.614,172.231z M98.633,174.03c0-0.36,0-0.664,0-0.969
		c-0.026-0.305-0.026-0.582-0.055-0.83c-0.36-0.027-0.609-0.084-0.72-0.11c-0.111-0.027-0.166-0.083-0.166-0.14
		c0-0.026,0-0.055,0.026-0.055c0.027-0.027,0.083-0.056,0.14-0.056c0.026,0,0.166,0.028,0.414,0.056
		c0.25,0.028,0.472,0.027,0.691,0.027c0.194,0,0.526,0,0.913-0.027c0.415-0.027,0.72-0.056,0.94-0.056
		c0.804,0,1.412,0.139,1.826,0.415c0.442,0.275,0.638,0.664,0.638,1.189c0,0.498-0.194,0.912-0.581,1.244
		c-0.389,0.332-0.913,0.553-1.605,0.637l1.273,1.771c0.249,0.36,0.441,0.581,0.581,0.692c0.11,0.082,0.249,0.138,0.358,0.138
		c0.084,0,0.139,0,0.223-0.026c0.082-0.027,0.109-0.057,0.139-0.057c0.027,0,0.055,0.027,0.055,0.027
		c0.028,0.027,0.028,0.056,0.028,0.084c0,0.082-0.11,0.192-0.306,0.332c-0.221,0.138-0.442,0.192-0.637,0.192
		c-0.47,0-0.969-0.415-1.55-1.218l-0.026-0.055l-1.272-1.799c-0.028-0.056-0.056-0.084-0.056-0.11
		c-0.028-0.027-0.028-0.056-0.028-0.083s0-0.057,0.028-0.083c0.027-0.027,0.082-0.027,0.109-0.027c0.028,0,0.084,0,0.166,0
		c0.11,0,0.223,0.027,0.305,0.027c0.638,0,1.08-0.11,1.385-0.306c0.275-0.221,0.415-0.553,0.415-0.996
		c0-0.469-0.166-0.885-0.526-1.217c-0.332-0.332-0.746-0.498-1.244-0.498c-0.111,0-0.25,0-0.359,0
		c-0.139,0.028-0.277,0.057-0.389,0.084c-0.026,0.248-0.056,0.525-0.056,0.83c-0.026,0.305-0.026,0.607-0.026,0.969v2.24
		c0,0.332,0,0.664,0.026,0.969c0,0.275,0.028,0.553,0.056,0.802c0.36,0.056,0.609,0.11,0.721,0.139
		c0.082,0.027,0.138,0.056,0.138,0.11c0,0.027,0,0.056-0.026,0.083c-0.027,0.028-0.084,0.028-0.111,0.028
		c-0.026,0-0.082,0-0.193-0.028c-0.387-0.027-0.773-0.056-1.134-0.056s-0.747,0.027-1.136,0.056
		c-0.082,0.028-0.166,0.028-0.166,0.028c-0.055,0-0.11,0-0.139-0.028c-0.027-0.027-0.027-0.056-0.027-0.083
		c0-0.057,0.056-0.083,0.193-0.139c0.111-0.027,0.332-0.056,0.692-0.082c0.026-0.277,0.026-0.555,0.055-0.858
		c0-0.276,0-0.608,0-0.94V174.03L98.633,174.03z M119.499,178.041c0.389,0.056,0.636,0.083,0.747,0.11
		c0.11,0.056,0.166,0.082,0.166,0.139c0,0.027,0,0.057-0.028,0.083c-0.027,0.028-0.055,0.028-0.109,0.028
		c0,0-0.14-0.028-0.416-0.028c-0.276-0.026-0.524-0.056-0.774-0.056c-0.222,0-0.415,0.027-0.663,0.056
		c-0.222,0-0.359,0.028-0.388,0.028c-0.056,0-0.083,0-0.111-0.028c-0.026-0.026-0.055-0.056-0.055-0.083
		c0-0.057,0.055-0.083,0.166-0.139c0.11-0.027,0.358-0.055,0.72-0.082c0.055-0.223,0.109-0.498,0.166-0.858
		c0.055-0.332,0.109-0.802,0.165-1.383l0.276-2.822l-0.193-0.276c-0.083-0.138-0.193-0.275-0.275-0.358
		c-0.11-0.083-0.193-0.14-0.276-0.166c-0.056-0.027-0.14-0.056-0.249-0.083c-0.166-0.027-0.277-0.083-0.277-0.139
		c0-0.027,0.028-0.056,0.057-0.082c0.026-0.028,0.056-0.028,0.109-0.028c0.057,0,0.194,0.028,0.415,0.056
		c0.194,0.027,0.388,0.027,0.526,0.027c0.082,0,0.193,0,0.275,0c0.11-0.027,0.223-0.027,0.332-0.027l2.242,3.9l1.743-3.928
		c0.11,0.026,0.192,0.026,0.305,0.026c0.11,0.027,0.222,0.027,0.359,0.027s0.305-0.027,0.498-0.056c0.192,0,0.332-0.027,0.388-0.027
		c0.055,0,0.083,0,0.11,0.027c0.028,0.027,0.028,0.056,0.028,0.082c0,0.057-0.057,0.111-0.168,0.14
		c-0.138,0.026-0.358,0.083-0.69,0.11l0.222,4.398c0,0.248,0.027,0.471,0.055,0.719c0.028,0.223,0.057,0.471,0.111,0.721
		c0.359,0.027,0.58,0.055,0.719,0.082c0.111,0.056,0.168,0.082,0.168,0.139c0,0.027-0.028,0.057-0.057,0.083
		c-0.027,0.028-0.056,0.028-0.083,0.028c-0.028,0-0.083,0-0.192-0.028c-0.389-0.026-0.775-0.056-1.136-0.056
		c-0.388,0-0.774,0.027-1.163,0.056c-0.082,0.028-0.138,0.028-0.166,0.028c-0.055,0-0.082,0-0.109-0.028
		c-0.027-0.026-0.027-0.056-0.027-0.083c0-0.057,0.055-0.083,0.166-0.139c0.109-0.027,0.332-0.055,0.691-0.082
		c0-0.25,0-0.526,0-0.775c-0.027-0.275-0.027-0.554-0.055-0.857l-0.168-3.457c-0.304,0.608-0.58,1.188-0.83,1.715
		c-0.248,0.525-0.441,0.996-0.607,1.355l-0.249,0.581c0,0.026-0.027,0.083-0.027,0.109c-0.056,0.139-0.11,0.222-0.167,0.222
		c-0.027,0-0.055-0.027-0.082-0.027c-0.027-0.026-0.056-0.082-0.111-0.138l-1.992-3.514l-0.139,2.047c0,0.166,0,0.332-0.027,0.471
		c0,0.166,0,0.304,0,0.47c0,0.332,0.027,0.638,0.027,0.94C119.416,177.517,119.442,177.792,119.499,178.041L119.499,178.041z
		 M142.522,178.041c0.192,0.028,0.388,0.056,0.554,0.056c0.192,0.027,0.358,0.027,0.524,0.027c0.36,0,0.721-0.055,1.08-0.109
		c0.359-0.084,0.691-0.193,1.023-0.332l0.056-0.555c0-0.083,0.027-0.138,0.027-0.138c0.026-0.028,0.056-0.056,0.056-0.056
		c0.027,0,0.055,0.026,0.055,0.026c0.028,0.028,0.028,0.083,0.028,0.14c0,0.026,0,0.109-0.028,0.275
		c0,0.139-0.026,0.305-0.026,0.443c0,0.192,0.026,0.414,0.026,0.636c0.028,0.222,0.028,0.332,0.028,0.358c0,0.028,0,0.057,0,0.084
		c-0.028,0.027-0.056,0.027-0.083,0.027c0,0-0.027,0-0.027-0.027c-0.027-0.027-0.027-0.056-0.027-0.11l-0.057-0.276
		c-0.192-0.056-0.498-0.109-0.912-0.139c-0.416-0.027-0.913-0.027-1.494-0.027h-1.356c-0.442,0-0.856,0-1.245,0.057
		c-0.056,0-0.082,0-0.109,0c-0.028,0-0.083,0-0.11-0.028c-0.028-0.027-0.028-0.056-0.028-0.083c0-0.057,0.057-0.109,0.166-0.139
		c0.14-0.027,0.359-0.082,0.692-0.11c0.026-0.249,0.056-0.524,0.056-0.83c0.027-0.276,0.027-0.608,0.027-0.94v-2.269
		c0-0.332,0-0.663-0.027-0.94c0-0.304-0.027-0.58-0.056-0.83c-0.333-0.026-0.554-0.082-0.692-0.109
		c-0.109-0.027-0.166-0.083-0.166-0.139c0-0.027,0-0.056,0.028-0.082c0.026,0,0.082-0.028,0.11-0.028c0.027,0,0.055,0,0.109,0
		c0.389,0.056,0.803,0.056,1.219,0.056h1.328c0.554,0,1.051,0,1.467-0.027c0.414-0.027,0.72-0.084,0.912-0.139l0.057-0.275
		c0-0.028,0.027-0.084,0.027-0.111c0.027-0.027,0.056-0.027,0.056-0.027c0.026,0,0.056,0,0.056,0.027
		c0.027,0.027,0.027,0.057,0.027,0.083c0,0.028-0.027,0.14-0.027,0.358c-0.027,0.223-0.027,0.443-0.027,0.638
		c0,0.139,0,0.305,0.027,0.442c0,0.166,0,0.248,0,0.276c0,0.056,0,0.11,0,0.138c0,0-0.027,0.028-0.056,0.028s-0.056,0-0.056-0.028
		c-0.027-0.026-0.027-0.082-0.055-0.166l-0.057-0.553c-0.305-0.139-0.664-0.249-1.023-0.332c-0.359-0.056-0.748-0.111-1.162-0.111
		c-0.11,0-0.25,0-0.388,0.028c-0.167,0-0.333,0.027-0.526,0.056c-0.026,0.248-0.026,0.525-0.056,0.83c0,0.276,0,0.607,0,0.939v0.969
		h0.277c0.554,0,1.024-0.027,1.438-0.056c0.442-0.056,0.83-0.11,1.162-0.222l0.083-0.498c0.027-0.082,0.027-0.139,0.056-0.139
		c0-0.027,0.027-0.056,0.056-0.056s0.055,0.028,0.055,0.028c0.028,0.027,0.028,0.056,0.028,0.109c0,0,0,0.11-0.028,0.332
		c0,0.221-0.026,0.415-0.026,0.608c0,0.222,0.026,0.415,0.026,0.637c0.028,0.193,0.028,0.304,0.028,0.332
		c0,0.027,0,0.056-0.028,0.083c0,0.027-0.026,0.027-0.055,0.055c-0.026-0.026-0.056-0.026-0.056-0.055
		c-0.027,0-0.027-0.056-0.056-0.111l-0.083-0.524c-0.332-0.11-0.748-0.166-1.189-0.222c-0.442-0.056-0.969-0.084-1.521-0.084h-0.167
		v1.08c0,0.332,0,0.664,0,0.939C142.495,177.517,142.495,177.792,142.522,178.041L142.522,178.041z M166.599,172.619
		c-0.332-0.14-0.691-0.249-1.052-0.332c-0.36-0.056-0.72-0.11-1.106-0.11c-0.027,0.305-0.027,0.608-0.056,0.913
		c0,0.306-0.028,0.608-0.028,0.912v2.269c0,0.306,0.028,0.608,0.028,0.914c0.027,0.275,0.027,0.58,0.056,0.856
		c0.359,0.056,0.608,0.083,0.72,0.11c0.11,0.056,0.166,0.082,0.166,0.139c0,0.027-0.027,0.057-0.056,0.083
		c-0.027,0.028-0.056,0.028-0.11,0.028c0,0-0.14-0.028-0.415-0.057c-0.305,0-0.581-0.027-0.857-0.027
		c-0.359,0-0.748,0.027-1.162,0.056c-0.11,0.028-0.166,0.028-0.193,0.028c-0.057,0-0.083,0-0.11-0.028
		c-0.028-0.026-0.056-0.056-0.056-0.083c0-0.057,0.083-0.109,0.193-0.139c0.11-0.027,0.359-0.082,0.691-0.11
		c0.027-0.276,0.055-0.581,0.055-0.885c0-0.277,0.028-0.581,0.028-0.886v-2.27c0-0.332-0.028-0.663-0.028-0.968
		c0-0.306-0.027-0.581-0.055-0.857c-0.389,0-0.747,0.056-1.107,0.11c-0.358,0.083-0.69,0.193-1.022,0.332l-0.083,0.525
		c0,0.082,0,0.139-0.027,0.166c0,0.027-0.027,0.027-0.056,0.027s-0.056-0.027-0.056-0.027c0-0.027-0.027-0.084-0.027-0.139
		c0-0.027,0.027-0.111,0.027-0.277c0-0.138,0.026-0.304,0.026-0.441c0-0.193-0.026-0.387-0.026-0.608
		c-0.027-0.222-0.027-0.358-0.027-0.388c0-0.027,0-0.055,0.027-0.083c0-0.026,0.026-0.026,0.056-0.026c0,0,0.026,0,0.026,0.026
		c0.027,0.028,0.057,0.056,0.057,0.11l0.055,0.276c0.168,0.056,0.471,0.11,0.887,0.14c0.414,0.026,0.912,0.026,1.494,0.026h0.746
		c0.582,0,1.08,0,1.495-0.026c0.415-0.028,0.72-0.084,0.913-0.14l0.055-0.276c0-0.056,0-0.082,0.028-0.11
		c0-0.026,0.026-0.026,0.056-0.026c0,0,0.027,0,0.055,0.026c0,0.028,0,0.056,0,0.083s0,0.139,0,0.359
		c-0.026,0.222-0.026,0.442-0.026,0.637c0,0.139,0,0.305,0,0.441c0.026,0.166,0.026,0.25,0.026,0.277c0,0.055,0,0.11-0.026,0.11
		c0,0.026-0.028,0.056-0.028,0.056c-0.026,0-0.055,0-0.082-0.027c0-0.027-0.027-0.084-0.027-0.166L166.599,172.619L166.599,172.619z
		"/>
	<path d="M158.324,135.467c1.188,0,2.131,0.97,2.131,2.13c0,1.189-0.94,2.131-2.131,2.131c-1.163,0-2.132-0.94-2.132-2.131
		C156.192,136.437,157.161,135.467,158.324,135.467L158.324,135.467z"/>
</g>
</svg>
