<?xml version="1.0" encoding="utf-8"?>
<!-- Generator: Adobe Illustrator 16.0.0, SVG Export Plug-In . SVG Version: 6.00 Build 0)  -->
<!DOCTYPE svg PUBLIC "-//W3C//DTD SVG 1.1//EN" "http://www.w3.org/Graphics/SVG/1.1/DTD/svg11.dtd">
<svg version="1.1" id="Layer_1" xmlns="http://www.w3.org/2000/svg" xmlns:xlink="http://www.w3.org/1999/xlink" x="0px" y="0px"
	 width="140.235px" height="175.748px" viewBox="289.258 272.503 140.235 175.748"
	 enable-background="new 289.258 272.503 140.235 175.748" xml:space="preserve">
<g>
	<path fill="#EB2E2E" d="M404.812,385.65l20.451,5.102c-4.521,19.32-12.434,33.734-23.734,43.24
		c-5.651,4.754-11.915,8.317-18.793,10.694c-6.876,2.378-14.367,3.564-22.472,3.564c-14.241,0-26.417-3.148-36.524-9.447
		c-10.108-6.299-18.383-16.403-24.822-30.315c-3.22-6.955-5.635-14.539-7.245-22.75c-1.609-8.213-2.415-17.053-2.415-26.521
		c0-18.703,3.224-34.527,9.671-47.473c6.447-12.946,15.178-22.722,26.192-29.33c5.507-3.304,11.334-5.782,17.479-7.434
		c6.146-1.652,12.612-2.478,19.397-2.478c14.86,0,27.625,4.203,38.296,12.607c5.335,4.202,9.87,9.388,13.605,15.556
		s6.672,13.32,8.808,21.455l-19.429,5.101c-3.438-11.748-8.605-20.558-15.501-26.432c-6.896-5.874-15.521-8.811-25.875-8.811
		c-10.312,0-19.247,2.368-26.808,7.104s-13.596,12.11-18.106,22.124c-2.256,5.007-3.947,10.678-5.075,17.014
		c-1.128,6.336-1.691,13.337-1.691,21.003c0,23.18,4.523,40.567,13.569,52.161c4.523,5.797,9.792,10.144,15.807,13.041
		c6.016,2.898,12.776,4.349,20.284,4.349c11.094,0,20.673-3.564,28.736-10.693c4.032-3.564,7.396-8.051,10.096-13.455
		C401.413,399.221,403.445,392.896,404.812,385.65L404.812,385.65z"/>
	<path fill="#FFFFFF" d="M397.334,316.047l-0.02-0.013c-0.426-0.145-0.814-0.404-1.092-0.725c-0.276-0.321-0.438-0.705-0.504-1.131
		c-0.065-0.426-0.036-0.895,0.151-1.366s0.533-0.945,0.764-1.231c0.229-0.286,0.345-0.383,0.439-0.486
		c0.095-0.102,0.171-0.209,0.288-0.393c0.115-0.184,0.271-0.443,0.597-0.727c0.324-0.284,0.816-0.592,1.496-0.845
		s1.547-0.453,2.301-0.514c0.754-0.06,1.396,0.019,2.019,0.233c0.623,0.214,1.228,0.564,1.79,1.016
		c0.562,0.452,1.081,1.003,1.486,1.69s0.697,1.509,0.902,2.311c0.206,0.8,0.326,1.58,0.256,2.352
		c-0.069,0.772-0.329,1.536-0.545,2.119c-0.215,0.583-0.386,0.986-0.588,1.373c-1.079-0.208-2.162-0.394-3.104-0.536
		c-0.94-0.142-1.739-0.241-2.328-0.28c-0.587-0.04-0.964-0.021-1.374-0.133c-0.408-0.112-0.853-0.356-1.129-0.566
		c-0.273-0.209-0.383-0.385-0.479-0.507c-0.097-0.123-0.182-0.194-0.363-0.406c-0.181-0.212-0.458-0.566-0.636-0.794
		S397.409,316.153,397.334,316.047L397.334,316.047z"/>
	<path fill="#323B97" d="M399.348,311.021c-0.189,0.12-0.34,0.243-0.459,0.402c-0.118,0.159-0.206,0.355-0.376,0.57
		c-0.17,0.215-0.421,0.449-0.634,0.697s-0.387,0.51-0.466,0.786s-0.063,0.564,0.077,0.74c0.142,0.176,0.409,0.24,0.613,0.334
		c0.207,0.094,0.354,0.219,0.552,0.47c0.2,0.251,0.452,0.629,0.668,0.896s0.396,0.422,0.551,0.606
		c0.155,0.185,0.287,0.397,0.507,0.516c0.22,0.118,0.527,0.142,0.929,0.162c0.401,0.019,0.896,0.033,1.509,0.106
		c0.611,0.073,1.341,0.204,1.901,0.303c0.562,0.099,0.953,0.165,1.347,0.232c0.271-0.621,0.442-1.29,0.483-1.856
		c0.04-0.566-0.052-1.029-0.197-1.621c-0.145-0.592-0.347-1.31-0.738-1.952c-0.394-0.641-0.979-1.204-1.562-1.58
		c-0.587-0.376-1.174-0.564-1.848-0.562c-0.675,0.003-1.438,0.199-1.935,0.355C399.773,310.781,399.539,310.9,399.348,311.021
		L399.348,311.021z"/>
	<path fill="#FFFFFF" d="M382.311,383.291c-0.199-0.078-0.396-0.168-0.733-0.338c-0.338-0.172-0.817-0.424-1.163-0.611
		c-0.346-0.186-0.558-0.305-0.804-0.432c-0.245-0.127-0.525-0.262-0.815-0.416c-0.29-0.156-0.591-0.332-0.772-0.443
		c-0.183-0.111-0.248-0.158-0.366-0.211c-0.119-0.051-0.293-0.111-0.449-0.172s-0.295-0.121-0.48-0.236
		c-0.185-0.115-0.415-0.281-0.614-0.479c-0.2-0.195-0.37-0.422-0.521-0.689c-0.147-0.268-0.275-0.576-0.378-0.957
		s-0.179-0.836-0.214-1.293c-0.988,0.32-2.028,0.455-3.399,0.371s-3.074-0.389-5.01-0.893c-1.935-0.506-4.101-1.209-6.213-2.047
		c-0.237,1.484-0.486,2.965-0.636,3.793s-0.199,1.002-0.229,1.143c-0.029,0.143-0.041,0.254-0.125,0.539
		c-0.085,0.293-0.251,0.77-0.426,1.234c0.007,0.199-0.005,0.4-0.035,0.584c-0.028,0.184-0.077,0.354-0.146,0.514
		c-0.069,0.162-0.161,0.318-0.219,0.406c-0.059,0.088-0.082,0.107-0.123,0.182c-0.041,0.075-0.098,0.203-0.22,0.459
		s-0.308,0.643-0.496,1.025c-0.562,1.1-1.136,2.193-1.463,2.789c-0.328,0.598-0.407,0.697-0.53,0.908s-0.289,0.535-0.509,1.178
		c-0.22,0.641-0.493,1.602-0.7,2.357c-0.206,0.754-0.346,1.305-0.392,1.795c-0.046,0.489,0.002,0.924,0.075,1.379
		s0.17,0.932,0.288,1.312c0.118,0.381,0.255,0.666,0.448,0.959c0.192,0.293,0.439,0.594,0.665,0.82
		c0.225,0.225,0.426,0.377,0.707,0.522c0.28,0.146,0.641,0.289,0.978,0.425c0.337,0.137,0.652,0.266,1.092,0.487
		c0.44,0.222,1.004,0.535,1.479,0.847c0.475,0.309,0.856,0.61,1.183,0.932c0.327,0.32,0.596,0.656,0.834,1.002
		s0.445,0.701,0.573,0.916c0.129,0.215,0.18,0.291,0.247,0.396c0.067,0.105,0.152,0.244,0.248,0.441
		c0.189,0.387,0.366,0.955,0.299,1.43c-0.024,0.229-0.083,0.447-0.174,0.648c-0.092,0.201-0.216,0.389-0.369,0.553
		c-0.153,0.162-0.335,0.306-0.546,0.42c-0.209,0.115-0.447,0.205-0.74,0.263c-0.293,0.057-0.642,0.082-1.124,0.062
		c-0.481-0.018-1.099-0.08-1.58-0.121c-0.48-0.043-0.828-0.061-1.304-0.078c-0.475-0.016-1.08-0.028-2.335-0.106
		c-1.256-0.078-3.163-0.224-4.239-0.304c-1.077-0.081-1.322-0.104-1.488-0.114c-0.166-0.015-0.251-0.019-0.489-0.043
		c-0.238-0.027-0.63-0.076-0.96-0.158c-0.329-0.086-0.597-0.205-0.825-0.344c-0.23-0.14-0.423-0.297-0.587-0.478
		c-0.164-0.182-0.298-0.385-0.399-0.612c-0.101-0.23-0.169-0.486-0.208-0.759c-0.041-0.27-0.053-0.555-0.064-0.772
		c-0.013-0.217-0.023-0.367-0.08-0.617c-0.058-0.252-0.159-0.605-0.272-0.893c-0.114-0.287-0.239-0.509-0.39-0.712l-0.061-0.038
		c-0.068-0.019-0.138-0.037-0.229-0.068c-0.175-0.057-0.46-0.174-0.708-0.404c-0.252-0.235-0.406-0.516-0.484-0.795
		c-0.209-0.211-0.415-0.426-0.578-0.621c-0.162-0.194-0.279-0.371-0.634-0.543c-0.353-0.17-0.939-0.336-1.497-0.471
		c-0.557-0.135-1.082-0.238-1.611-0.312c0.229-2.008,0.427-4.02,0.53-5.294c0.104-1.275,0.113-1.812,0.103-2.363
		c-0.012-0.549-0.044-1.109-0.082-1.486s-0.08-0.566-0.105-0.895c-0.025-0.33-0.034-0.795-0.088-1.187
		c-0.055-0.392-0.155-0.705-0.255-1.115c-0.1-0.407-0.2-0.913-0.36-1.518c-0.159-0.604-0.381-1.31-0.627-2.003
		c-0.578,0.654-1.221,1.255-1.883,1.759c-0.663,0.504-1.346,0.91-2.04,1.217c-0.694,0.308-1.399,0.511-2.153,0.752
		c-0.754,0.242-1.557,0.521-2.021,0.697c-0.464,0.176-0.589,0.246-1.148,0.375c-0.559,0.129-1.552,0.313-2.22,0.435
		c-0.668,0.119-1.01,0.172-1.354,0.213c-1.327,0.196-2.656,0.381-3.457,0.483c-0.801,0.104-1.073,0.123-1.33,0.142
		c-0.257,0.018-0.498,0.032-0.729,0.114c-0.229,0.08-0.452,0.229-0.583,0.318c-0.13,0.09-0.17,0.12-0.304,0.198
		c-0.133,0.082-0.359,0.211-0.604,0.302c-0.251,0.096-0.521,0.141-0.794,0.168c-0.6,0.512-1.146,1.09-1.537,1.6
		c-0.393,0.511-0.627,0.949-0.74,1.408c-0.114,0.459-0.105,0.937,0.034,1.358c0.138,0.423,0.405,0.789,0.667,1.062
		c0.262,0.271,0.518,0.445,0.772,0.66s0.512,0.472,0.777,0.731c0.266,0.263,0.54,0.531,0.736,0.712
		c0.197,0.184,0.316,0.276,0.597,0.612c0.278,0.338,0.719,0.918,1.06,1.728c0.34,0.809,0.583,1.846,0.739,2.559
		s0.225,1.101,0.27,1.492c-0.861,0.561-1.856,0.93-2.781,1.008c-0.927,0.076-1.783-0.141-2.698-0.271
		c-0.915-0.134-1.887-0.181-2.706-0.205c-0.819-0.023-1.483-0.025-2.071-0.025s-1.099,0.002-1.56-0.17s-0.871-0.518-1.086-0.707
		c-0.215-0.188-0.238-0.225-0.294-0.275c-0.058-0.051-0.147-0.118-0.412-0.454c-0.266-0.336-0.705-0.939-0.958-1.822
		s-0.32-2.045-0.176-3.166c0.024-0.346,0.045-0.693,0.062-1.172c0.019-0.48,0.035-1.095,0.038-1.464
		c0.001-0.368-0.011-0.495,0.017-0.944c0.027-0.444,0.095-1.213,0.146-1.787c0.051-0.575,0.086-0.957,0.098-1.228
		c0.013-0.268,0-0.424,0.106-1.495c0.104-1.072,0.329-3.062,0.477-4.187c0.148-1.125,0.223-1.385,0.269-1.561
		s0.062-0.266,0.07-0.355c0.009-0.088,0.008-0.176,0.01-0.33c-0.004-0.309,0.046-0.865,0.306-1.328
		c0.123-0.229,0.283-0.438,0.471-0.614c0.052-0.154,0.125-0.302,0.217-0.435s0.2-0.254,0.324-0.359
		c0.125-0.104,0.265-0.19,0.417-0.262c0.153-0.07,0.322-0.123,0.545-0.156c0.224-0.034,0.5-0.047,0.776-0.032l0.149-0.035
		c0.095-0.063,0.189-0.129,0.312-0.213s0.271-0.188,0.441-0.281c0.169-0.096,0.356-0.18,1.148-0.801
		c0.792-0.619,2.188-1.772,3.319-3.074c1.131-1.301,1.997-2.748,2.427-3.518c0.431-0.771,0.426-0.859,0.461-0.998
		c0.035-0.138,0.11-0.322,0.191-0.486c0.082-0.164,0.171-0.305,0.524-1.354c0.354-1.051,0.974-3.006,1.271-4.541
		c0.299-1.534,0.277-2.647,0.359-3.542c0.083-0.893,0.271-1.566,0.543-2.205c-0.641-0.552-1.158-1.242-1.54-2.101
		c-0.382-0.86-0.626-1.889-0.685-2.71c-0.057-0.821,0.074-1.434,0.166-1.983c0.092-0.549,0.145-1.035,0.201-1.438
		c0.057-0.403,0.118-0.724,0.156-0.921c0.037-0.197,0.051-0.271,0.058-0.31s0.008-0.044,0.007-0.049
		c-0.011-0.074-0.014-0.149-0.012-0.312c0.001-0.164,0.008-0.417,0.094-0.704c0.085-0.287,0.248-0.607,0.345-0.795
		c0.098-0.188,0.129-0.244,0.199-0.43s0.181-0.501,0.238-0.737c0.057-0.237,0.061-0.393,0.267-0.938
		c0.206-0.544,0.614-1.476,0.874-2.049c0.26-0.574,0.371-0.79,0.507-1.09c0.138-0.3,0.3-0.685,0.521-1.14
		c0.221-0.455,0.501-0.981,0.961-1.673s1.102-1.549,1.426-1.981c0.332-0.443,0.33-0.439,0.336-0.447
		c0.004-0.261,0.062-0.522,0.166-0.758c0.106-0.236,0.261-0.446,0.452-0.617c0.192-0.17,0.421-0.301,0.667-0.38
		c0.174-0.198,0.354-0.391,0.876-0.917c0.523-0.525,1.39-1.382,1.899-1.887s0.665-0.658,0.879-0.864s0.487-0.466,0.847-0.744
		c0.36-0.279,0.809-0.578,1.079-0.751c0.271-0.173,0.366-0.223,0.481-0.286c0.114-0.063,0.251-0.14,0.346-0.217
		c0.095-0.078,0.148-0.156,0.257-0.254c0.109-0.099,0.272-0.217,0.443-0.323c0.187-0.221,0.399-0.42,0.615-0.568
		c0.217-0.148,0.434-0.245,0.653-0.361c0.219-0.116,0.44-0.251,0.636-0.38c0.196-0.129,0.367-0.25,0.624-0.409
		c0.258-0.159,0.603-0.354,0.99-0.524s0.819-0.314,1.093-0.407c0.274-0.093,0.392-0.135,0.671-0.254
		c0.281-0.12,0.725-0.318,1.084-0.495c0.36-0.177,0.638-0.332,1.05-0.497c0.413-0.164,0.961-0.338,1.294-0.43
		c0.333-0.092,0.451-0.102,0.821-0.188c0.372-0.087,0.999-0.25,1.54-0.378c0.542-0.129,0.999-0.226,1.44-0.295
		c0.442-0.069,0.869-0.111,1.168-0.141c0.299-0.03,0.471-0.047,0.777-0.106c0.306-0.059,0.748-0.16,1.012-0.23
		c0.265-0.07,0.354-0.111,0.533-0.147c0.364-0.087,1.062-0.075,1.641,0.208c0.212,0.031,0.426,0.053,1.041,0.072
		c0.614,0.02,1.63,0.038,3.136,0.185s3.503,0.422,4.895,0.616c1.392,0.193,2.177,0.305,2.636,0.37c0.459,0.065,0.59,0.082,0.722,0.1
		c0.535,0.047,1.065,0.163,1.485,0.326c0.421,0.163,0.73,0.373,0.895,0.483s0.181,0.123,0.195,0.136l0.044,0.021
		c0.266-0.022,0.529-0.044,0.796-0.014c0.268,0.03,0.536,0.115,0.807,0.199c0.147-0.083,0.3-0.161,1.165-0.584
		c0.863-0.423,2.441-1.192,3.699-1.689c1.259-0.497,2.194-0.724,3.147-0.832c0.533-0.065,1.068-0.158,1.357-0.23
		c0.289-0.072,0.334-0.125,0.462-0.189c0.129-0.065,0.34-0.144,0.652-0.189s0.729-0.058,1.084-0.051
		c0.355,0.006,0.651,0.031,1.371,0.025s1.863-0.044,3.006-0.101c0.305-0.985,0.711-1.94,1.177-2.77
		c0.466-0.831,0.987-1.536,1.626-2.215c0.638-0.679,1.391-1.332,2.147-1.893c0.759-0.561,1.523-1.031,2.218-1.321
		c0.695-0.29,1.317-0.4,1.639-0.458c0.319-0.056,0.338-0.059,0.355-0.059c0.09-0.026,0.183-0.046,0.359-0.078
		c0.179-0.033,0.442-0.078,0.742-0.068c0.299,0.009,0.631,0.073,0.996,0.201c0.364,0.128,0.763,0.319,1.186,0.607
		c0.423,0.289,0.871,0.674,1.206,0.961c0.334,0.287,0.554,0.474,0.771,0.664c0.184,0.146,0.351,0.312,0.59,0.606
		c0.237,0.294,0.548,0.719,0.721,0.958c0.174,0.238,0.212,0.289,0.248,0.341c1.259-0.212,2.555-0.207,3.818,0.057
		c1.265,0.264,2.497,0.784,3.341,1.14c0.841,0.355,1.293,0.545,2.174,0.883c0.88,0.337,2.188,0.823,4.065,2.258
		c1.877,1.434,4.32,3.817,5.628,5.113c1.308,1.296,1.478,1.504,1.617,1.733c-0.284,1.435-0.431,2.904-0.433,4.051
		c-0.003,1.147,0.137,1.973,0.476,2.78s0.875,1.597,1.476,2.285c0.6,0.689,1.263,1.276,1.831,1.665
		c0.567,0.389,1.042,0.578,1.541,0.794c0.5,0.216,1.025,0.459,1.54,0.759s1.016,0.657,1.335,1.049
		c0.318,0.393,0.456,0.822,0.461,1.36c0.006,0.539-0.119,1.188-0.322,1.744c-0.202,0.556-0.48,1.02-0.839,1.414
		c0.068,0.604,0.092,1.212,0.071,1.78c-0.037,1.147-0.262,2.133-0.694,3.186c-0.219,0.531-0.49,1.078-0.773,1.546
		c-0.282,0.468-0.577,0.856-0.834,1.146c-0.255,0.289-0.471,0.478-0.612,0.614c-0.145,0.136-0.215,0.22-0.279,0.295
		c-0.063,0.075-0.123,0.142-0.265,0.282c-0.143,0.139-0.366,0.351-0.603,0.507c-0.235,0.156-0.479,0.259-0.746,0.33
		c-0.265,0.071-0.549,0.11-0.919,0.092c-0.37-0.02-0.827-0.097-1.282-0.196c-0.455-0.1-0.909-0.221-1.422-0.344
		c-0.511-0.123-1.077-0.247-1.707-0.34c-0.629-0.094-1.318-0.156-1.961-0.161c-0.642-0.005-1.233,0.046-1.713,0.121
		c-0.479,0.074-0.843,0.172-1.072,0.251c-0.229,0.079-0.323,0.14-0.441,0.208c-0.117,0.067-0.257,0.141-0.44,0.198
		c-0.378,0.125-0.922,0.126-1.394-0.024c-0.337,0.095-0.67,0.204-0.968,0.32c-0.297,0.117-0.56,0.241-0.917,0.37
		c-0.358,0.129-0.814,0.261-1.354,0.442s-1.163,0.411-2.103,0.925c-0.94,0.514-2.195,1.312-2.983,1.826s-1.109,0.741-1.357,0.905
		c-0.246,0.166-0.421,0.268-0.782,0.522c-0.363,0.254-0.915,0.66-1.381,0.994c-0.468,0.336-0.848,0.6-1.203,0.84
		c-0.713,0.463-1.262,0.889-1.829,1.361c-0.287,0.227-0.6,0.451-0.919,0.666c0.567,0.641,1.171,1.254,1.79,1.811
		c0.62,0.558,1.258,1.06,1.748,1.447c0.49,0.389,0.836,0.666,1.182,0.943c0.562,0.396,1.126,0.791,1.568,1.094
		c0.441,0.305,0.764,0.516,0.934,0.656c0.17,0.143,0.191,0.215,0.828,0.609c0.637,0.394,1.891,1.108,2.813,1.604
		c0.924,0.495,1.519,0.764,1.895,0.939c0.376,0.174,0.534,0.256,0.872,0.405c0.337,0.152,0.853,0.375,1.385,0.572
		c0.532,0.196,1.08,0.366,1.525,0.491c0.444,0.125,0.787,0.205,1.244,0.406c0.457,0.199,1.027,0.519,1.588,0.979
		c0.56,0.461,1.105,1.062,2.067,2.571c0.963,1.509,2.34,3.925,3.599,6.394c0.38,0.756,0.76,1.515,0.976,1.942
		c0.215,0.433,0.269,0.539,0.43,0.873c0.162,0.334,0.435,0.896,0.729,1.57c0.298,0.674,0.621,1.459,0.803,2.023
		c0.183,0.564,0.223,0.908,0.221,1.209c-0.003,0.303-0.048,0.564-0.132,0.805c-0.085,0.238-0.208,0.455-0.372,0.646
		c-0.165,0.193-0.369,0.361-0.578,0.484c-0.207,0.125-0.416,0.207-0.534,0.254c-0.119,0.045-0.147,0.055-0.198,0.076
		c-0.049,0.021-0.121,0.055-0.347,0.12c-0.227,0.066-0.606,0.166-1.108,0.214c-0.502,0.047-1.125,0.041-1.73-0.011
		c-0.604-0.051-1.193-0.146-1.736-0.291c-0.545-0.144-1.047-0.336-1.606-0.627c-0.559-0.291-1.178-0.683-1.94-1.242
		c-0.766-0.561-1.677-1.293-2.323-1.864c-0.647-0.57-1.032-0.98-1.303-1.332c-0.271-0.354-0.431-0.648-0.564-0.881
		s-0.244-0.4-0.404-0.627c-0.159-0.228-0.369-0.513-0.63-0.902c-0.26-0.391-0.568-0.889-0.774-1.254
		c-0.205-0.367-0.309-0.603-0.399-0.812c-0.092-0.209-0.174-0.395-0.292-0.557s-0.271-0.301-0.482-0.424
		c-0.212-0.125-0.479-0.232-0.758-0.297s-0.572-0.084-0.915-0.052c-0.344,0.035-0.735,0.125-1.222,0.306
		c-0.486,0.18-1.062,0.45-1.521,0.705c-0.459,0.256-0.801,0.498-0.995,0.645c-0.195,0.146-0.245,0.201-0.414,0.318
		c-0.169,0.116-0.459,0.299-0.761,0.42c-0.304,0.123-0.618,0.188-0.913,0.213s-0.571,0.01-0.812,0c-0.241-0.008-0.447-0.01-0.637,0
		c-0.19,0.01-0.362,0.029-0.646,0.039c-0.282,0.012-0.678,0.016-1.485-0.094c-0.809-0.111-2.031-0.33-3.232-0.584
		c-1.2-0.255-2.378-0.543-3.324-0.851s-1.663-0.631-2.149-0.854c-0.487-0.221-0.745-0.34-0.982-0.447
		c-0.235-0.108-0.452-0.209-0.668-0.309c-0.304-0.111-0.615-0.201-0.83-0.242c-0.214-0.039-0.332-0.024-0.569-0.108
		c-0.238-0.082-0.598-0.261-0.79-0.356C382.37,383.328,382.337,383.311,382.311,383.291L382.311,383.291z"/>
	<path fill="#323B97" d="M400.438,319.316c0.262,0.276,0.401,0.376,0.497,0.411c0.229,0.09,0.173-0.25,0.16-0.46
		c-0.009-0.122-0.015-0.21-0.004-0.326c0.012-0.116,0.039-0.259,0.106-0.368c0.066-0.109,0.174-0.184,0.338-0.233
		c0.165-0.049,0.39-0.074,0.891-0.022c0.502,0.051,1.281,0.179,2.006,0.368c0.726,0.189,1.396,0.44,1.851,0.618
		c0.454,0.176,0.689,0.278,0.993,0.404c0.304,0.125,0.673,0.275,1.028,0.42c0.356,0.145,0.701,0.285,1.234,0.511
		c0.535,0.226,1.259,0.538,2.067,1c1.618,0.933,3.508,2.388,5.281,4.11c0.889,0.862,1.763,1.808,2.585,2.796
		c-0.19,0.945-0.298,1.906-0.317,2.853c-0.021,0.947,0.044,1.877,0.176,2.643c0.133,0.765,0.333,1.366,0.678,2.03
		c0.347,0.665,0.835,1.394,1.368,2.052c0.532,0.659,1.107,1.248,1.715,1.721c0.608,0.473,1.249,0.83,1.716,1.055
		c0.467,0.226,0.761,0.32,1.155,0.504c0.396,0.185,0.896,0.458,1.24,0.673c0.346,0.215,0.538,0.371,0.601,0.623
		s-0.005,0.6-0.094,0.938c-0.089,0.338-0.198,0.667-0.334,0.895c-0.136,0.226-0.297,0.35-0.428,0.452s-0.232,0.183-0.286,0.324
		c-0.054,0.142-0.062,0.343-0.047,0.484c0.013,0.142,0.046,0.223,0.079,0.578s0.067,0.986,0.028,1.604
		c-0.038,0.618-0.149,1.224-0.379,1.88c-0.229,0.657-0.575,1.365-0.895,1.878c-0.318,0.514-0.61,0.832-0.793,1.021
		c-0.185,0.19-0.259,0.25-0.325,0.309c-0.066,0.058-0.124,0.115-0.207,0.206c-0.083,0.091-0.191,0.216-0.327,0.36
		c-0.136,0.145-0.297,0.31-0.516,0.397c-0.22,0.088-0.495,0.1-0.919,0.034c-0.426-0.066-0.998-0.209-1.611-0.361
		c-0.614-0.151-1.269-0.311-2.064-0.437c-0.795-0.125-1.729-0.217-2.639-0.204c-0.909,0.013-1.791,0.129-2.411,0.271
		c-0.62,0.142-0.979,0.31-1.187,0.418c-0.207,0.108-0.266,0.158-0.354,0.175s-0.211,0.001-0.277-0.024
		c-0.068-0.025-0.083-0.061-0.191-0.088c-0.108-0.027-0.31-0.047-0.656,0.021c-0.348,0.069-0.84,0.226-1.112,0.33
		c-0.272,0.104-0.325,0.155-0.617,0.271c-0.292,0.116-0.823,0.3-1.354,0.466c-0.529,0.166-1.059,0.315-1.873,0.705
		c-0.813,0.39-1.914,1.02-2.796,1.568c-0.883,0.547-1.547,1.012-2.027,1.339c-0.481,0.327-0.779,0.516-1.157,0.767
		c-0.378,0.25-0.835,0.562-1.129,0.778c-0.293,0.216-0.422,0.336-0.763,0.58c-0.339,0.242-0.889,0.608-1.321,0.908
		c-0.435,0.297-0.75,0.524-0.982,0.709c-0.234,0.185-0.385,0.321-0.594,0.498c-0.209,0.176-0.476,0.387-0.698,0.487
		c-0.222,0.103-0.401,0.095-0.611-0.026c-0.211-0.123-0.453-0.361-0.677-0.636c-0.222-0.274-0.423-0.586-0.629-0.881
		c-0.206-0.293-0.416-0.571-0.603-0.776c-0.187-0.207-0.349-0.341-0.459-0.369c-0.111-0.028-0.175,0.045-0.132,0.237
		c0.043,0.193,0.191,0.505,0.308,0.748c0.116,0.244,0.197,0.423,0.282,0.625c0.085,0.201,0.173,0.427,0.333,0.816
		c0.159,0.393,0.393,0.951,0.951,1.711c0.562,0.76,1.45,1.719,2.199,2.449c0.749,0.729,1.358,1.229,1.833,1.609
		c0.476,0.38,0.815,0.645,1.093,0.863c0.278,0.219,0.493,0.393,0.706,0.569c0.463,0.338,0.93,0.675,1.204,0.867
		c0.276,0.192,0.362,0.246,0.445,0.297c0.083,0.052,0.164,0.099,0.33,0.209c0.167,0.113,0.421,0.287,0.572,0.42
		c0.15,0.134,0.199,0.224,0.977,0.691c0.775,0.471,2.278,1.321,3.228,1.827c0.95,0.507,1.345,0.668,1.759,0.857
		s0.847,0.41,1.479,0.668c0.63,0.256,1.458,0.551,1.945,0.701s0.635,0.156,1.033,0.283c0.397,0.127,1.048,0.377,1.696,0.953
		c0.65,0.576,1.303,1.479,2.262,3.1s2.227,3.959,2.941,5.316s0.879,1.734,1.046,2.082c0.167,0.35,0.337,0.67,0.701,1.455
		c0.363,0.785,0.922,2.037,1.121,2.75c0.198,0.715,0.036,0.893-0.119,1.004c-0.156,0.109-0.306,0.154-0.426,0.199
		c-0.12,0.043-0.209,0.09-0.398,0.146c-0.188,0.06-0.478,0.131-1.179,0.144c-0.7,0.01-1.812-0.039-2.852-0.402
		s-2.006-1.043-2.979-1.785c-0.971-0.744-1.945-1.553-2.496-2.123c-0.55-0.57-0.674-0.902-0.935-1.33
		c-0.26-0.426-0.655-0.949-0.991-1.445c-0.337-0.496-0.614-0.965-0.788-1.303c-0.173-0.336-0.242-0.539-0.403-0.857
		c-0.162-0.317-0.416-0.754-0.927-1.137c-0.51-0.385-1.271-0.717-2.085-0.807c-0.812-0.088-1.673,0.066-2.562,0.391
		c-0.89,0.322-1.807,0.816-2.349,1.15s-0.709,0.51-0.917,0.672s-0.459,0.311-0.759,0.367c-0.3,0.056-0.65,0.023-0.963,0.014
		c-0.312-0.012-0.584,0.002-0.928,0.027c-0.346,0.025-0.76,0.062-2.037-0.139c-1.276-0.199-3.414-0.638-4.876-1.039
		c-1.462-0.402-2.248-0.771-2.885-1.064c-0.638-0.293-1.124-0.512-1.607-0.738c-0.319-0.133-0.646-0.246-0.88-0.307
		c-0.438-0.109-0.595-0.051-0.859-0.15c-0.121-0.045-0.244-0.119-0.324-0.172c-0.081-0.053-0.117-0.086-0.243-0.15
		c-0.125-0.063-0.338-0.157-0.515-0.235s-0.314-0.14-0.653-0.315c-0.339-0.181-0.873-0.476-1.299-0.701
		c-0.426-0.229-0.737-0.39-0.929-0.482c-0.188-0.096-0.255-0.125-0.39-0.201c-0.134-0.078-0.335-0.201-0.508-0.305
		c-0.171-0.104-0.313-0.189-0.466-0.26c-0.291-0.133-0.56-0.188-0.794-0.336c-0.115-0.072-0.241-0.172-0.352-0.301
		c-0.108-0.13-0.201-0.287-0.283-0.498s-0.153-0.478-0.208-0.841c-0.055-0.362-0.092-0.823-0.095-1.346s0.028-1.103,0.092-1.679
		c-0.223,0.062-0.452,0.103-0.663,0.119c-0.21,0.021-0.402,0.015-0.544-0.006c-0.251-0.043-0.363-0.098-0.516-0.334
		c-0.065-0.107-0.129-0.254-0.192-0.496s-0.13-0.58-0.18-1.002c-0.051-0.424-0.087-0.932-0.093-1.42
		c-0.005-0.488,0.019-0.957,0.069-1.41c0.052-0.453,0.131-0.893,0.238-1.322c-0.142-0.006-0.283-0.002-0.414,0.013
		c-0.23,0.021-0.395,0.063-0.524,0.069c-0.176,0-0.401,0.033-0.572-0.248c-0.031-0.051-0.061-0.114-0.085-0.196
		c-0.025-0.08-0.047-0.179-0.063-0.304c-0.017-0.127-0.027-0.28-0.025-0.51c0.002-0.227,0.017-0.531,0.034-0.813
		c0.02-0.285,0.04-0.55,0.055-0.729c0.013-0.178,0.019-0.27,0.026-0.402c0.011-0.135,0.022-0.311,0.058-0.562
		c0.034-0.25,0.091-0.573,0.131-0.797c0.04-0.226,0.062-0.346,0.084-0.471c0.021-0.123,0.037-0.248,0.043-0.332
		c0.006-0.082-0.001-0.123-0.01-0.152c-0.068-0.137-0.125-0.062-0.223-0.039c-0.247,0.103-0.471,0.226-0.754,0.188
		c-0.166-0.027-0.315-0.107-0.47-0.305c-0.05-0.066-0.102-0.146-0.155-0.252c-0.053-0.105-0.107-0.234-0.16-0.386
		c-0.171-0.489-0.285-1.119-0.298-1.692c-0.07,0.114-0.116,0.246-0.132,0.416c-0.015,0.17,0.001,0.377,0.009,0.651
		c0.008,0.272,0.006,0.613,0.001,0.988c-0.004,0.377-0.01,0.789,0.036,1.463s0.146,1.608,0.326,2.604s0.441,2.055,0.604,2.674
		s0.229,0.801,0.295,1.033c0.066,0.231,0.139,0.518,0.226,0.856c0.088,0.34,0.192,0.731,0.484,1.437
		c0.291,0.705,0.771,1.721,1.288,2.713c-0.58,0.207-1.189,0.319-2.049,0.354c-0.86,0.033-1.971-0.012-3.886-0.435
		c-1.916-0.422-4.638-1.221-6.193-1.771c-1.557-0.55-1.949-0.854-2.166-1.084s-0.257-0.389-0.252-0.551
		c0.004-0.16,0.052-0.324,0.093-0.496c0.041-0.17,0.075-0.347,0.062-0.666c-0.012-0.317-0.068-0.78-0.107-1.117
		c-0.039-0.338-0.059-0.551-0.075-0.752c-0.017-0.202-0.03-0.393-0.047-0.62c-0.019-0.229-0.037-0.492-0.135-1.199
		c-0.099-0.705-0.273-1.853-0.636-3.17c-0.361-1.318-0.909-2.812-1.422-4.033c-0.513-1.222-0.991-2.172-1.577-3.145
		c-0.586-0.973-1.278-1.967-1.7-2.507c-0.422-0.542-0.571-0.629-0.688-0.65c-0.118-0.021-0.203,0.026-0.246,0.114
		c-0.043,0.087-0.044,0.215,0.044,0.407c0.088,0.191,0.266,0.445,0.454,0.705c0.189,0.26,0.392,0.526,0.809,1.375
		c0.419,0.849,1.052,2.281,1.514,3.466c0.461,1.184,0.752,2.122,0.963,2.811s0.342,1.129,0.463,1.504
		c0.122,0.375,0.233,0.683,0.384,1.252c0.15,0.568,0.34,1.398,0.431,1.867c0.09,0.469,0.079,0.576,0.09,0.729
		c0.011,0.149,0.042,0.347,0.079,0.998c0.037,0.649,0.079,1.76,0.033,3.024c-0.045,1.265-0.178,2.685-0.358,3.896
		c-0.182,1.215-0.411,2.223-0.54,2.805s-0.157,0.74-0.201,0.939c-0.044,0.201-0.104,0.445-0.17,0.625
		c-0.065,0.182-0.137,0.297-0.199,0.436c-0.062,0.139-0.114,0.301-0.132,0.441c-0.018,0.139-0.001,0.258-0.002,0.377
		s-0.021,0.238-0.068,0.34c-0.049,0.1-0.126,0.18-0.217,0.336s-0.195,0.391-0.328,0.672c-0.132,0.283-0.293,0.611-0.455,0.939
		c-0.425,0.869-0.865,1.732-1.166,2.283c-0.3,0.551-0.458,0.789-0.583,0.992s-0.219,0.369-0.336,0.602s-0.257,0.531-0.409,0.934
		c-0.151,0.403-0.313,0.91-0.503,1.566c-0.188,0.654-0.405,1.457-0.539,2.004c-0.133,0.547-0.184,0.838-0.212,1.113
		c-0.027,0.275-0.036,0.537-0.023,0.842c0.012,0.305,0.043,0.654,0.095,1.016c0.051,0.361,0.123,0.732,0.201,1.062
		c0.079,0.328,0.166,0.61,0.261,0.864c0.198,0.521,0.417,0.914,0.747,1.357c0.169,0.227,0.371,0.467,0.556,0.664
		c0.186,0.197,0.353,0.354,0.521,0.49c0.17,0.139,0.342,0.258,0.578,0.385c0.233,0.125,0.532,0.258,0.775,0.363
		c0.244,0.104,0.438,0.18,0.691,0.285c0.254,0.108,0.571,0.248,0.896,0.411c0.324,0.164,0.658,0.354,0.956,0.541
		c0.3,0.189,0.562,0.375,0.78,0.55c0.218,0.174,0.391,0.336,0.549,0.51c0.158,0.172,0.305,0.356,0.466,0.598
		c0.159,0.24,0.334,0.533,0.459,0.74c0.251,0.414,0.295,0.463,0.386,0.625c0.047,0.084,0.108,0.201,0.148,0.303
		c0.041,0.104,0.061,0.191,0.065,0.269c0.008,0.129-0.013,0.229-0.11,0.334c-0.042,0.043-0.097,0.08-0.172,0.112
		c-0.075,0.033-0.172,0.062-0.315,0.08c-0.146,0.019-0.341,0.025-0.672,0.013c-0.331-0.017-0.801-0.056-1.128-0.084
		c-0.327-0.031-0.515-0.052-0.985-0.078c-0.471-0.027-1.226-0.062-1.715-0.078c-0.491-0.021-0.72-0.023-1.659-0.086
		c-0.938-0.062-2.588-0.183-3.578-0.258c-0.991-0.074-1.322-0.103-1.554-0.119c-0.232-0.021-0.366-0.027-0.555-0.045
		c-0.188-0.017-0.432-0.041-0.623-0.078c-0.19-0.037-0.329-0.084-0.44-0.133c-0.112-0.052-0.197-0.103-0.266-0.158
		c-0.067-0.056-0.117-0.115-0.16-0.187c-0.043-0.07-0.077-0.153-0.103-0.291c-0.024-0.137-0.041-0.328-0.049-0.459
		c-0.008-0.133-0.01-0.203-0.022-0.354c-0.012-0.152-0.032-0.385-0.077-0.635c-0.046-0.25-0.112-0.517-0.196-0.781
		s-0.186-0.527-0.29-0.76s-0.213-0.433-0.321-0.601c-0.106-0.168-0.213-0.305-0.315-0.416c-0.2-0.221-0.418-0.348-0.641-0.43
		c-0.108-0.041-0.21-0.068-0.276-0.09c-0.067-0.019-0.103-0.029-0.125-0.041c-0.113-0.074,0.104-0.119,0.27-0.246
		c0.062-0.06,0.06-0.086-0.02-0.137c-0.052-0.031-0.14-0.072-0.206-0.104c-0.145-0.063-0.293-0.123-0.489-0.273
		c-0.233-0.188-0.409-0.422-0.579-0.62c-0.09-0.107-0.193-0.226-0.312-0.336c-0.119-0.113-0.255-0.224-0.416-0.326
		c-0.16-0.105-0.347-0.203-0.574-0.306c-0.229-0.1-0.499-0.198-0.796-0.289c-0.298-0.09-0.623-0.172-0.951-0.233
		c0.122-0.818,0.219-1.639,0.278-2.344c0.061-0.705,0.082-1.291,0.089-1.685s0-0.588,0-0.856c0.001-0.269,0.012-0.609,0.021-0.844
		c0.011-0.234,0.021-0.361,0.027-0.597c0.005-0.231,0.006-0.569-0.02-0.938c-0.024-0.364-0.075-0.758-0.117-1.084
		s-0.074-0.584-0.098-0.819c-0.022-0.238-0.037-0.455-0.044-0.638c-0.007-0.182-0.009-0.326-0.042-0.524
		c-0.033-0.199-0.097-0.451-0.142-0.621c-0.044-0.166-0.07-0.25-0.138-0.524c-0.065-0.273-0.175-0.74-0.261-1.111
		c-0.086-0.373-0.148-0.65-0.237-0.98c-0.087-0.328-0.198-0.707-0.324-1.051c-0.125-0.342-0.265-0.646-0.414-0.936
		c-0.15-0.287-0.312-0.558-0.418-0.732c-0.105-0.174-0.153-0.25-0.213-0.357c-0.061-0.108-0.131-0.246-0.177-0.396
		s-0.067-0.313-0.082-0.42c-0.014-0.104-0.019-0.156-0.038-0.265c-0.019-0.108-0.053-0.278-0.111-0.446
		c-0.06-0.171-0.144-0.339-0.269-0.541c-0.125-0.201-0.292-0.437-0.438-0.627c-0.146-0.191-0.271-0.339-0.385-0.48
		c-0.228-0.28-0.416-0.534-0.506-0.788c-0.134-0.386-0.075-0.685-0.125-1.052c-0.015-0.11-0.04-0.215-0.071-0.295
		c-0.032-0.08-0.072-0.136-0.122-0.183s-0.111-0.086-0.208-0.118c-0.098-0.033-0.23-0.062-0.324-0.076s-0.146-0.021-0.227-0.033
		c-0.08-0.012-0.188-0.032-0.273-0.063c-0.149-0.06-0.246-0.109-0.351-0.32c-0.093-0.182-0.156-0.553-0.208-0.881
		c-0.028-0.17-0.056-0.318-0.093-0.477c-0.037-0.156-0.084-0.324-0.126-0.433c-0.088-0.222-0.147-0.231-0.221-0.246
		c-0.038-0.002-0.081,0.008-0.148,0.052c-0.066,0.045-0.158,0.12-0.221,0.174c-0.062,0.053-0.095,0.082-0.147,0.123
		c-0.107,0.082-0.258,0.172-0.378,0.153c-0.061-0.004-0.122-0.021-0.197-0.062s-0.165-0.105-0.291-0.229
		c-0.126-0.123-0.288-0.303-0.479-0.543c-0.188-0.242-0.405-0.545-0.623-0.894c-0.217-0.35-0.434-0.741-0.854-1.479
		c-0.421-0.738-1.044-1.818-1.668-2.898c-0.022,0.316-0.015,0.636,0.025,0.945c0.039,0.312,0.109,0.617,0.232,0.951
		c0.123,0.336,0.299,0.699,0.459,0.996c0.16,0.295,0.304,0.523,0.446,0.756c0.142,0.234,0.28,0.473,0.379,0.682
		c0.195,0.416,0.203,0.679,0.333,0.967c0.066,0.146,0.171,0.312,0.28,0.453c0.107,0.142,0.222,0.259,0.387,0.445
		c0.165,0.188,0.382,0.445,0.558,0.695c0.178,0.25,0.312,0.492,0.422,0.682c0.11,0.19,0.191,0.326,0.301,0.479
		c0.107,0.153,0.241,0.323,0.447,0.596s0.483,0.646,0.71,0.953c0.228,0.308,0.404,0.554,0.627,0.832
		c0.224,0.278,0.492,0.592,0.709,0.849c0.218,0.256,0.384,0.452,0.488,0.582c0.105,0.129,0.151,0.19,0.236,0.291
		c0.086,0.098,0.213,0.231,0.342,0.319s0.26,0.129,0.349,0.158c0.09,0.028,0.139,0.045,0.196,0.079
		c0.059,0.035,0.128,0.086,0.175,0.158s0.071,0.166,0.071,0.285s-0.022,0.264-0.093,0.453s-0.189,0.422-0.361,0.684
		c-0.172,0.265-0.397,0.558-0.699,0.871c-0.301,0.312-0.677,0.646-1.062,0.955c-0.385,0.31-0.779,0.592-1.173,0.82
		c-0.395,0.229-0.788,0.4-1.295,0.582c-0.508,0.184-1.129,0.375-1.746,0.58c-0.616,0.203-1.228,0.422-1.613,0.562
		c-0.386,0.14-0.547,0.203-0.806,0.291c-0.259,0.086-0.614,0.196-1.071,0.289c-0.458,0.092-1.017,0.166-1.489,0.231
		c-0.473,0.067-0.857,0.127-1.244,0.188c-0.396,0.08-0.795,0.146-1.481,0.239c-0.688,0.095-1.663,0.214-2.232,0.277
		c-0.568,0.062-0.731,0.069-1.004,0.096c-0.271,0.027-0.649,0.074-0.962,0.164c-0.312,0.09-0.558,0.224-0.736,0.33
		c-0.178,0.106-0.286,0.188-0.421,0.278c-0.135,0.093-0.294,0.193-0.45,0.25c-0.155,0.056-0.31,0.062-0.413,0.068
		c-0.104,0.006-0.159,0.008-0.268,0.041c-0.107,0.033-0.269,0.098-0.522,0.277c-0.255,0.182-0.602,0.479-0.957,0.848
		c-0.357,0.371-0.725,0.814-1.024,1.221c-0.299,0.406-0.532,0.773-0.687,1.103c-0.155,0.33-0.23,0.623-0.283,0.967
		c-0.052,0.347-0.081,0.74-0.069,1.093c0.02,0.676,0.204,1.248,0.568,1.856c0.176,0.293,0.388,0.578,0.634,0.832
		c0.247,0.256,0.529,0.479,0.729,0.643c0.202,0.164,0.322,0.267,0.485,0.423c0.162,0.153,0.365,0.358,0.587,0.575
		c0.222,0.218,0.461,0.443,0.63,0.603c0.169,0.16,0.268,0.252,0.419,0.432c0.152,0.18,0.358,0.449,0.55,0.803
		c0.191,0.354,0.368,0.789,0.527,1.304c0.16,0.512,0.301,1.1,0.403,1.694c-0.188,0.105-0.395,0.173-0.676,0.203
		c-0.282,0.029-0.642,0.023-1.072-0.018c-0.431-0.043-0.935-0.123-1.424-0.195c-0.489-0.07-0.965-0.135-1.761-0.186
		c-0.797-0.052-1.913-0.086-2.575-0.099c-0.662-0.01-0.869,0.004-1.096,0.009c-0.227,0.006-0.473,0-0.662-0.039
		c-0.191-0.039-0.326-0.111-0.451-0.207c-0.125-0.095-0.239-0.211-0.319-0.293c-0.081-0.08-0.128-0.125-0.212-0.209
		c-0.083-0.082-0.204-0.203-0.336-0.382c-0.132-0.178-0.274-0.414-0.385-0.686c-0.111-0.271-0.192-0.576-0.234-1.029
		c-0.043-0.451-0.05-1.053-0.034-1.596c0.017-0.545,0.056-1.033,0.08-1.574c0.026-0.541,0.04-1.135,0.04-1.502
		c0-0.364-0.012-0.506,0.013-0.937c0.026-0.432,0.09-1.153,0.135-1.635c0.044-0.481,0.069-0.727,0.089-1.006
		c0.019-0.281,0.029-0.6,0.042-0.836c0.012-0.236,0.021-0.393,0.134-1.41c0.113-1.02,0.327-2.902,0.452-3.869
		c0.125-0.969,0.159-1.022,0.199-1.168c0.041-0.143,0.087-0.377,0.107-0.563c0.021-0.188,0.018-0.334,0.018-0.474
		c0-0.141,0.005-0.276,0.037-0.397c0.033-0.121,0.095-0.229,0.169-0.312c0.072-0.084,0.158-0.146,0.239-0.203
		c0.08-0.058,0.155-0.107,0.196-0.17c0.041-0.064,0.047-0.144,0.047-0.191s-0.007-0.068-0.008-0.105
		c-0.001-0.039,0.003-0.094,0.07-0.125c0.066-0.031,0.194-0.039,0.312-0.043c0.118-0.002,0.225,0,0.375,0.004
		c0.151,0.002,0.347,0.008,0.559-0.067c0.211-0.074,0.437-0.229,0.588-0.334c0.15-0.104,0.228-0.158,0.349-0.234
		c0.121-0.077,0.286-0.18,0.566-0.354c0.279-0.174,0.677-0.42,1.21-0.84c0.533-0.418,1.206-1.01,1.83-1.606s1.2-1.205,1.813-1.944
		c0.613-0.74,1.263-1.615,1.705-2.275c0.442-0.658,0.675-1.103,0.838-1.478c0.162-0.379,0.254-0.688,0.352-0.961
		c0.097-0.271,0.198-0.5,0.271-0.655c0.072-0.154,0.113-0.236,0.312-0.73c0.199-0.496,0.558-1.406,0.827-2.25
		c0.27-0.846,0.45-1.623,0.6-2.621c0.148-1,0.265-2.221,0.33-2.977c0.063-0.754,0.076-1.043,0.098-1.332
		c0.022-0.289,0.054-0.577,0.106-0.791c0.052-0.215,0.124-0.355,0.237-0.477c0.114-0.122,0.27-0.225,0.453-0.316
		c0.357-0.18,0.807-0.296,1.208-0.518c0.195-0.109,0.382-0.248,0.507-0.37c0.125-0.122,0.19-0.226,0.216-0.307
		c0.024-0.081,0.011-0.139-0.047-0.187c-0.057-0.048-0.156-0.085-0.371-0.107c-0.214-0.022-0.54-0.028-0.81-0.033
		s-0.483-0.007-0.711-0.026c-0.229-0.018-0.473-0.052-0.666-0.124s-0.333-0.182-0.498-0.355c-0.166-0.174-0.354-0.412-0.54-0.736
		c-0.184-0.323-0.359-0.732-0.498-1.128c-0.136-0.396-0.231-0.779-0.274-1.166c-0.084-0.787,0.051-1.493,0.17-2.198
		c0.059-0.36,0.111-0.744,0.141-0.985c0.029-0.241,0.034-0.339,0.063-0.522c0.028-0.183,0.08-0.452,0.12-0.653
		c0.04-0.201,0.066-0.336,0.075-0.461c0.008-0.126-0.001-0.243-0.008-0.347s-0.011-0.196,0.028-0.326
		c0.038-0.13,0.12-0.299,0.194-0.442c0.076-0.142,0.146-0.258,0.248-0.505c0.102-0.247,0.232-0.626,0.305-0.875
		c0.071-0.249,0.083-0.367,0.144-0.602c0.062-0.236,0.171-0.588,0.363-1.044c0.192-0.456,0.466-1.016,0.719-1.545
		c0.252-0.529,0.483-1.027,0.639-1.375c0.155-0.348,0.235-0.546,0.471-0.968c0.233-0.423,0.622-1.071,1.004-1.636
		c0.381-0.565,0.756-1.048,0.987-1.336c0.23-0.288,0.317-0.381,0.41-0.505c0.094-0.124,0.191-0.279,0.236-0.417
		s0.037-0.259,0.029-0.34s-0.016-0.123-0.007-0.167c0.008-0.044,0.028-0.093,0.072-0.122s0.111-0.038,0.182-0.05
		c0.069-0.012,0.144-0.026,0.255-0.112s0.261-0.245,0.495-0.494c0.232-0.25,0.549-0.589,0.93-0.977
		c0.381-0.388,0.826-0.823,1.221-1.208c0.396-0.385,0.743-0.719,0.979-0.951c0.235-0.232,0.363-0.361,0.592-0.565
		c0.23-0.204,0.563-0.482,0.861-0.694c0.298-0.212,0.562-0.357,0.805-0.497c0.243-0.14,0.465-0.275,0.629-0.396
		c0.164-0.121,0.269-0.228,0.335-0.302c0.113-0.129,0.147-0.163,0.219-0.09c0.025,0.029,0.042,0.071,0.062,0.108
		c0.02,0.037,0.041,0.069,0.065,0.056c0.025-0.013,0.056-0.072,0.082-0.136c0.056-0.115,0.104-0.364,0.318-0.597
		c0.114-0.115,0.277-0.206,0.399-0.268s0.201-0.098,0.352-0.181s0.368-0.213,0.565-0.336c0.196-0.124,0.373-0.241,0.556-0.363
		c0.183-0.122,0.374-0.25,0.672-0.395c0.298-0.144,0.705-0.305,0.963-0.395c0.258-0.089,0.367-0.107,0.691-0.233
		s0.862-0.36,1.188-0.513c0.326-0.152,0.439-0.223,0.718-0.358c0.277-0.135,0.719-0.337,1.089-0.465
		c0.371-0.127,0.67-0.182,1.074-0.271c0.405-0.089,0.915-0.213,1.349-0.322c0.433-0.109,0.79-0.203,1.235-0.29
		c0.447-0.088,0.985-0.168,1.301-0.202c0.314-0.034,0.406-0.022,0.706-0.063c0.299-0.041,0.805-0.133,1.159-0.212
		c0.354-0.078,0.558-0.142,0.72-0.194c0.162-0.052,0.281-0.092,0.428-0.081c0.146,0.012,0.316,0.076,0.422,0.12
		c0.105,0.043,0.146,0.066,0.27,0.098c0.123,0.032,0.328,0.073,0.542,0.088c0.214,0.015,0.435,0.004,1.036,0.021
		c0.604,0.017,1.589,0.062,2.901,0.189c1.313,0.127,2.955,0.337,3.889,0.465c0.937,0.128,1.165,0.175,1.735,0.26
		c0.571,0.085,1.484,0.209,2.094,0.292c0.61,0.082,0.916,0.123,1.18,0.186c0.263,0.063,0.482,0.149,0.651,0.242
		c0.169,0.093,0.287,0.193,0.398,0.273c0.111,0.081,0.218,0.141,0.299,0.179c0.169,0.083,0.248,0.053,0.374,0.221
		c0.066,0.09,0.138,0.24,0.185,0.394c0.013-0.101,0.039-0.2,0.071-0.272c0.033-0.072,0.071-0.117,0.128-0.147
		c0.058-0.031,0.132-0.048,0.241-0.06c0.109-0.012,0.251-0.019,0.401,0.007c0.149,0.026,0.309,0.083,0.398,0.117
		c0.092,0.035,0.116,0.046,0.188,0.068c0.07,0.022,0.188,0.055,0.3,0.065c0.111,0.011,0.22,0.001,0.375-0.051
		c0.155-0.052,0.357-0.146,0.539-0.239c0.182-0.093,0.339-0.184,0.816-0.417c0.479-0.234,1.275-0.609,2.051-0.963
		c0.773-0.354,1.525-0.686,2.084-0.904c0.56-0.218,0.925-0.322,1.305-0.404c0.38-0.083,0.774-0.144,1.121-0.194
		c0.346-0.051,0.642-0.092,0.936-0.143c0.294-0.051,0.585-0.113,0.788-0.172c0.417-0.128,0.465-0.218,0.655-0.271
		c0.097-0.029,0.224-0.053,0.459-0.059c0.236-0.006,0.58,0.005,0.943,0.016c0.363,0.011,0.746,0.022,1.442,0.008
		c0.696-0.014,1.705-0.053,2.713-0.108c-0.196,0.866-0.305,1.755-0.307,2.5s0.102,1.349,0.2,1.772
		c0.098,0.423,0.189,0.667,0.275,0.896c0.084,0.229,0.161,0.445,0.268,0.783c0.105,0.338,0.24,0.799,0.353,1.198
		c0.112,0.398,0.202,0.732,0.352,1.137c0.146,0.404,0.354,0.88,0.558,1.186c0.203,0.307,0.405,0.444,0.574,0.515
		c0.169,0.07,0.305,0.075,0.387,0.021c0.081-0.054,0.108-0.165-0.021-0.437c-0.129-0.271-0.414-0.704-0.609-0.989
		c-0.195-0.286-0.3-0.423-0.459-0.702c-0.159-0.278-0.371-0.695-0.481-1.048c-0.108-0.352-0.116-0.639-0.144-0.929
		c-0.027-0.29-0.071-0.584-0.14-0.811c-0.142-0.455-0.354-0.643-0.386-0.919c-0.018-0.139,0.005-0.3,0.021-0.468
		c0.016-0.169,0.022-0.345,0.028-0.482s0.009-0.235,0.01-0.38c0-0.144-0.003-0.334,0.104-0.931c0.107-0.597,0.325-1.601,0.614-2.574
		c0.289-0.973,0.649-1.913,1.057-2.697c0.408-0.783,0.863-1.409,1.393-2c0.528-0.591,1.13-1.146,1.818-1.664s1.464-1,2.062-1.274
		c0.598-0.274,1.021-0.342,1.271-0.379c0.25-0.036,0.328-0.041,0.428-0.059c0.098-0.019,0.215-0.05,0.368-0.083
		c0.153-0.032,0.346-0.065,0.628,0c0.283,0.065,0.657,0.229,1.047,0.487c0.387,0.258,0.787,0.61,1.053,0.844
		c0.265,0.233,0.396,0.347,0.503,0.438c0.107,0.091,0.19,0.162,0.273,0.232c0.147,0.126,0.283,0.267,0.495,0.537
		c0.21,0.269,0.495,0.667,0.668,0.906c0.172,0.238,0.229,0.317,0.285,0.396C399.794,318.589,400.176,319.041,400.438,319.316
		L400.438,319.316z"/>
	<path fill="#FFFFFF" d="M392.622,322.873c-0.129,0.834-0.207,1.592-0.066,2.595c0.143,1.003,0.503,2.252,0.855,3.117
		c0.352,0.865,0.696,1.346,1,1.732c0.303,0.386,0.564,0.677,0.546,0.899c-0.02,0.222-0.321,0.373-0.589,0.501
		c-0.271,0.128-0.505,0.233-0.756,0.166c-0.251-0.067-0.52-0.307-0.735-0.53s-0.38-0.43-0.623-0.82
		c-0.242-0.391-0.562-0.965-0.833-1.691c-0.269-0.726-0.486-1.604-0.621-2.43c-0.135-0.826-0.188-1.6-0.091-2.308
		c0.098-0.708,0.346-1.351,0.592-1.837c0.247-0.485,0.492-0.814,0.796-1.136c0.306-0.32,0.669-0.633,1.062-0.903
		C392.927,321.125,392.75,322.038,392.622,322.873L392.622,322.873z"/>
	<path fill="#FFFFFF" d="M352.84,327.961c0.189-0.011,0.382,0.109,0.375,0.205c-0.008,0.096-0.215,0.168-0.446,0.243
		c-0.229,0.074-0.483,0.15-0.712,0.108s-0.433-0.204-0.482-0.18c-0.051,0.024,0.051,0.234-0.016,0.383
		c-0.065,0.149-0.302,0.238-0.818,0.346c-0.518,0.108-1.316,0.236-2.019,0.406c-0.701,0.169-1.305,0.38-1.996,0.627
		c-0.689,0.247-1.468,0.531-1.946,0.863c-0.479,0.332-0.66,0.712-0.842,1.104c-0.18,0.392-0.359,0.796-0.604,0.985
		c-0.243,0.188-0.55,0.161-1.099,0.07c-0.55-0.09-1.341-0.243-1.863-0.24c-1.051,0.008-1.037,0.646-1.162,1.075
		c-0.059,0.219-0.138,0.388-0.319,0.747c-0.181,0.359-0.466,0.907-0.874,1.158c-0.407,0.25-0.938,0.201-1.491,0.142
		c-0.553-0.058-1.126-0.125-1.49,0.013s-0.519,0.484-0.643,0.817c-0.125,0.333-0.221,0.653-0.376,1.107
		c-0.154,0.454-0.37,1.04-0.588,1.625c-0.645-0.097-1.291-0.186-1.735-0.238c-0.444-0.052-0.688-0.066-0.859-0.095
		c-0.17-0.03-0.268-0.074-0.351-0.139c0.542-0.851,1.153-1.666,1.595-2.146c0.439-0.481,0.709-0.629,0.962-0.778
		c0.252-0.15,0.489-0.301,0.667-0.484c0.177-0.183,0.295-0.398,0.492-0.618c0.196-0.22,0.473-0.445,0.899-0.79
		c0.428-0.344,1.004-0.806,1.772-1.354c0.768-0.548,1.726-1.181,2.667-1.689c0.939-0.508,1.864-0.891,2.574-1.196
		c0.711-0.306,1.211-0.534,2.45-0.856c1.24-0.322,3.222-0.737,4.565-0.991s2.054-0.346,2.473-0.309
		c0.418,0.038,0.547,0.205,0.705,0.217C352.462,328.114,352.65,327.972,352.84,327.961L352.84,327.961z"/>
	<path fill="#FFFFFF" d="M412.806,335.9c0.526,0.567,0.959,0.99,1.393,1.513c0.433,0.523,0.866,1.147,1.232,1.42
		s0.666,0.196,0.893-0.018c0.225-0.213,0.375-0.562,0.546-0.828c0.17-0.266,0.359-0.448,0.532-0.616
		c0.172-0.168,0.324-0.322,0.523-0.219c0.198,0.104,0.442,0.464,0.731,0.847c0.289,0.382,0.623,0.787,1.104,1.27
		c0.482,0.482,1.113,1.044,1.604,1.406c0.491,0.363,0.842,0.526,1.097,0.715s0.414,0.404,0.427,0.617
		c0.015,0.429-0.524,0.88-0.389,1.343c0.065,0.233,0.293,0.463,0.525,0.696c0.231,0.233,0.468,0.47,0.678,0.666
		c0.211,0.196,0.396,0.351,0.493,0.589c0.097,0.239,0.104,0.561,0.17,0.954c0.064,0.393,0.188,0.856,0.289,1.216
		c0.101,0.36,0.179,0.617,0.108,0.904c-0.069,0.287-0.287,0.602-0.454,0.919c-0.167,0.318-0.282,0.638-0.505,0.996
		c-0.221,0.358-0.546,0.754-1.007,1.022c-0.46,0.268-1.057,0.407-1.605,0.446c-0.551,0.04-1.053-0.02-1.521-0.139
		c-0.468-0.118-0.902-0.294-1.189-0.466c-0.288-0.172-0.431-0.337-0.764-0.564c-0.332-0.228-0.854-0.516-1.229-0.837
		c-0.372-0.321-0.593-0.675-0.852-1c-0.258-0.326-0.553-0.625-0.732-1.028c-0.183-0.405-0.25-0.915-0.341-1.512
		c-0.092-0.596-0.205-1.278-0.23-1.912c-0.025-0.634,0.037-1.22,0.055-1.674c0.019-0.455-0.009-0.778-0.151-0.977
		c-0.146-0.199-0.405-0.273-0.664-0.092c-0.261,0.182-0.519,0.621-0.829,0.845c-0.312,0.223-0.677,0.231-1.079,0.219
		c-0.401-0.011-0.839-0.042-1.212-0.09c-0.374-0.046-0.684-0.109-1.005-0.299c-0.32-0.19-0.654-0.508-0.973-0.849
		c-0.317-0.34-0.62-0.703-0.843-1.191c-0.222-0.488-0.365-1.101-0.408-1.716c-0.043-0.615,0.014-1.233,0.112-1.751
		c0.1-0.519,0.242-0.939,0.562-1.366c0.317-0.427,0.812-0.861,1.171-1.185c0.358-0.324,0.581-0.538,0.887-0.563
		s0.694,0.138,1.198,0.575C411.659,334.622,412.279,335.333,412.806,335.9L412.806,335.9z"/>
	<path fill="#323B97" d="M409.046,337.086c-0.158,0.343-0.222,0.485-0.279,0.639c-0.057,0.155-0.107,0.322-0.086,0.631
		c0.022,0.309,0.118,0.759,0.241,1.17c0.124,0.412,0.276,0.785,0.516,1.035c0.238,0.25,0.564,0.377,0.93,0.488
		c0.363,0.111,0.766,0.207,1.116,0.246c0.35,0.039,0.647,0.023,0.896-0.087c0.25-0.11,0.45-0.313,0.628-0.522
		c0.179-0.21,0.333-0.426,0.479-0.706c0.146-0.279,0.284-0.622,0.291-0.994c0.006-0.372-0.12-0.775-0.312-0.979
		c-0.19-0.204-0.449-0.208-0.613-0.084c-0.164,0.125-0.233,0.378-0.487,0.542s-0.691,0.239-0.962,0.026
		c-0.271-0.213-0.373-0.715-0.315-1.061c0.058-0.345,0.276-0.534,0.426-0.728c0.147-0.194,0.227-0.392,0.142-0.638
		s-0.333-0.541-0.576-0.667c-0.243-0.127-0.481-0.086-0.708-0.016c-0.229,0.07-0.442,0.171-0.678,0.494
		C409.457,336.199,409.204,336.743,409.046,337.086L409.046,337.086z"/>
	<path fill="#FFFFFF" d="M390.827,344.64c0.204,0.527,0.325,0.677,0.401,0.875c0.076,0.199,0.107,0.447,0.317,0.61
		c0.209,0.164,0.597,0.242,0.89,0.578c0.295,0.336,0.494,0.928,0.714,1.448c0.219,0.52,0.456,0.97,0.716,1.257
		c0.26,0.288,0.542,0.415,0.774,0.306c0.232-0.11,0.417-0.455,0.597-0.421c0.178,0.034,0.351,0.448,0.729,1.041
		s0.96,1.364,1.395,1.91c0.433,0.546,0.715,0.867,0.886,1.074c0.17,0.207,0.229,0.3,0.274,0.399
		c-0.709-0.072-1.418-0.22-1.859-0.376c-0.441-0.156-0.616-0.32-0.812-0.488c-0.195-0.169-0.415-0.343-0.729-0.509
		c-0.312-0.167-0.718-0.325-0.921-0.494c-0.201-0.169-0.2-0.349-0.291-0.371c-0.09-0.021-0.271,0.114-0.474,0.074
		c-0.201-0.041-0.423-0.257-0.823-0.589c-0.4-0.333-0.982-0.779-1.812-1.542c-0.832-0.763-1.912-1.842-2.485-2.511
		c-0.576-0.668-0.646-0.925-0.633-1.248c0.014-0.323,0.107-0.712,0.203-1.099c0.096-0.386,0.19-0.77,0.312-1.202
		c0.119-0.433,0.263-0.915,0.398-1.415c0.137-0.5,0.265-1.017,0.361-1.413c0.099-0.396,0.167-0.669,0.246-0.93
		c0.078-0.26,0.164-0.508,0.252-0.52c0.087-0.012,0.174,0.212,0.271,0.788c0.099,0.576,0.209,1.501,0.408,2.418
		C390.332,343.206,390.621,344.112,390.827,344.64L390.827,344.64z"/>
	<path fill="#FFFFFF" d="M329.673,365.676c-0.071-0.184-0.208-0.549-0.207-0.549c0.002,0,0.145,0.367,0.213,0.551
		C329.749,365.859,329.745,365.859,329.673,365.676L329.673,365.676z"/>
	<path fill="#FFFFFF" d="M397.082,411.939c-0.195-0.021-0.393-0.037-0.699-0.056c-0.308-0.016-0.726-0.033-1.378-0.076
		c-0.651-0.043-1.537-0.11-2.216-0.35c-0.679-0.236-1.149-0.639-1.499-1.154c-0.349-0.516-0.575-1.141-0.709-1.561
		c-0.132-0.42-0.172-0.635-0.564-1.26c-0.394-0.627-1.141-1.664-2.029-2.558c-0.891-0.895-1.922-1.645-2.666-2.043
		c-0.744-0.399-1.201-0.449-1.7-0.555c-0.499-0.107-1.041-0.271-1.594-0.562c-0.555-0.291-1.118-0.713-1.524-1.444
		c-0.404-0.732-0.649-1.775-0.788-2.406c-0.139-0.633-0.171-0.854-0.305-1.41c-0.134-0.555-0.369-1.444-0.646-2.688
		c-0.274-1.239-0.593-2.834-0.857-4.08c-0.266-1.245-0.48-2.146-0.649-2.729c-0.168-0.586-0.288-0.854-0.477-1.735
		c-0.188-0.879-0.445-2.367-0.581-3.613c-0.136-1.244-0.152-2.248-0.082-3.244c3.188,1.279,6.384,2.533,8.783,3.459
		c2.398,0.924,4.001,1.518,4.898,1.812c0.896,0.293,1.089,0.287,1.467,0.432c0.377,0.145,0.938,0.439,1.365,0.824
		c0.426,0.385,0.717,0.856,0.871,1.338c0.154,0.48,0.172,0.969,0.18,1.48s0.004,1.047,0.137,2.297
		c0.132,1.248,0.398,3.209,0.882,5.034c0.482,1.826,1.182,3.519,1.845,4.738s1.292,1.975,2.01,2.504
		c0.718,0.527,1.522,0.832,2.068,1.006c0.547,0.174,0.834,0.217,1.25,0.322c0.415,0.104,0.96,0.271,1.562,0.629
		c0.603,0.359,1.263,0.908,1.858,1.609c0.597,0.703,1.133,1.557,1.448,2.313c0.314,0.757,0.411,1.418,0.374,1.971
		c-0.037,0.554-0.208,0.996-0.479,1.361c-0.271,0.363-0.641,0.646-1.132,0.771s-1.103,0.084-1.701,0.021
		c-0.598-0.062-1.183-0.147-2.101-0.211c-0.918-0.062-2.171-0.104-2.996-0.131C397.879,411.971,397.481,411.955,397.082,411.939
		L397.082,411.939z"/>
	<path fill="#323B97" d="M379.078,386.1c0.215,0.719,0.391,1.338,0.611,2.39c0.223,1.051,0.489,2.534,0.787,3.875
		c0.3,1.34,0.629,2.534,0.859,3.549c0.232,1.014,0.366,1.846,0.533,2.473c0.167,0.629,0.367,1.056,0.717,1.355
		c0.35,0.299,0.848,0.471,1.382,0.606s1.104,0.234,1.662,0.463c0.558,0.229,1.104,0.585,1.77,1.058s1.452,1.061,2.266,1.906
		c0.812,0.845,1.649,1.948,2.127,2.748c0.477,0.799,0.592,1.291,0.735,1.729c0.143,0.438,0.313,0.82,0.519,1.047
		c0.205,0.228,0.443,0.297,0.699,0.354c0.256,0.059,0.529,0.104,1.04,0.139c0.512,0.035,1.259,0.061,1.818,0.1
		c0.562,0.039,0.936,0.091,1.395,0.093c0.459,0,1.003-0.052,1.975-0.004c0.973,0.045,2.37,0.188,3.228,0.276
		c0.855,0.092,1.17,0.133,1.405,0.152c0.234,0.019,0.392,0.016,0.46-0.119c0.068-0.133,0.05-0.4,0.004-0.674
		c-0.046-0.274-0.116-0.553-0.394-1.058c-0.274-0.502-0.757-1.229-1.271-1.756c-0.515-0.528-1.062-0.858-1.508-1.037
		c-0.447-0.178-0.794-0.2-1.337-0.35s-1.281-0.422-1.809-0.645c-0.527-0.224-0.841-0.394-1.184-0.654
		c-0.344-0.264-0.714-0.619-1.144-1.068s-0.918-0.992-1.36-1.758c-0.444-0.766-0.846-1.754-1.178-2.576
		c-0.333-0.821-0.597-1.479-0.812-2.094c-0.216-0.615-0.383-1.188-0.571-2.043c-0.188-0.854-0.398-1.981-0.546-3.072
		c-0.147-1.09-0.229-2.139-0.262-2.811c-0.034-0.675-0.019-0.972-0.026-1.255c-0.008-0.282-0.043-0.553-0.196-0.786
		c-0.153-0.234-0.429-0.433-0.665-0.554s-0.437-0.164-0.786-0.25c-0.352-0.084-0.853-0.211-2.021-0.639s-3.004-1.154-4.496-1.746
		c-1.492-0.59-2.64-1.043-3.471-1.369c-0.83-0.326-1.345-0.526-1.858-0.727c0.017,0.789,0.1,1.578,0.268,2.383
		S378.864,385.379,379.078,386.1L379.078,386.1z"/>
</g>
</svg>
