<?xml version="1.0" encoding="utf-8"?>
<!-- Generator: Adobe Illustrator 16.0.0, SVG Export Plug-In . SVG Version: 6.00 Build 0)  -->
<!DOCTYPE svg PUBLIC "-//W3C//DTD SVG 1.1//EN" "http://www.w3.org/Graphics/SVG/1.1/DTD/svg11.dtd">
<svg version="1.1" id="Layer_1" xmlns="http://www.w3.org/2000/svg" xmlns:xlink="http://www.w3.org/1999/xlink" x="0px" y="0px"
	 width="92.658px" height="175.748px" viewBox="50.049 8.504 92.658 175.748" enable-background="new 50.049 8.504 92.658 175.748"
	 xml:space="preserve">
<g>
	<path fill="#FFFFFF" d="M66.034,26.963v0.015c-10.623,9.12-15.985,24.646-15.985,46.498c0,21.849,5.362,37.375,15.985,46.496v0.016
		c7.5,6.437,17.624,9.673,30.347,9.673c12.675,0,22.775-3.218,30.267-9.609c0.026-0.02,0.053-0.038,0.072-0.059h0.006v-0.021
		c10.623-9.121,15.981-24.646,15.981-46.496c0-21.853-5.358-37.378-15.981-46.498v-0.017c-7.5-6.435-17.627-9.672-30.345-9.672
		C83.658,17.29,73.535,20.528,66.034,26.963L66.034,26.963z"/>
	<path fill="#0073B3" d="M96.385,20.719c-33.834,0-42.993,24.076-42.993,52.757c0,28.68,9.158,52.748,42.993,52.748
		c33.831,0,42.976-24.067,42.976-52.748C139.36,44.795,130.216,20.719,96.385,20.719L96.385,20.719z"/>
	<path fill="none" stroke="#0073B3" stroke-width="0.216" stroke-miterlimit="2.6131" d="M96.385,20.719
		c-33.834,0-42.993,24.076-42.993,52.757c0,28.68,9.158,52.748,42.993,52.748c33.831,0,42.976-24.067,42.976-52.748
		C139.36,44.795,130.216,20.719,96.385,20.719"/>
	<path fill="#F6DA26" d="M96.385,24.61c-27.594,0-39.032,17.367-39.032,48.866c0,31.496,11.438,48.863,39.032,48.863
		c27.585,0,39.024-17.367,39.024-48.863C135.409,41.978,123.97,24.61,96.385,24.61L96.385,24.61z"/>
	<path fill="none" stroke="#F6DA26" stroke-width="0.216" stroke-miterlimit="2.6131" d="M96.385,24.61
		c-27.594,0-39.032,17.367-39.032,48.866c0,31.496,11.438,48.863,39.032,48.863c27.585,0,39.024-17.367,39.024-48.863
		C135.409,41.978,123.97,24.61,96.385,24.61"/>
	<path fill="#F6DA26" d="M96.385,24.61c-27.594,0-39.032,17.367-39.032,48.866c0,31.496,11.438,48.863,39.032,48.863
		c27.585,0,39.024-17.367,39.024-48.863C135.409,41.978,123.97,24.61,96.385,24.61L96.385,24.61z"/>
	<path fill="none" stroke="#F6DA26" stroke-width="0.216" stroke-miterlimit="2.6131" d="M96.385,24.61
		c-27.594,0-39.032,17.367-39.032,48.866c0,31.496,11.438,48.863,39.032,48.863c27.585,0,39.024-17.367,39.024-48.863
		C135.409,41.978,123.97,24.61,96.385,24.61"/>
	<path fill="#0073B3" d="M96.385,27.498c-26.382,0-36.075,16.36-36.075,45.979c0,29.62,9.693,45.971,36.075,45.971
		c26.376,0,36.062-16.352,36.062-45.971C132.446,43.858,122.761,27.498,96.385,27.498L96.385,27.498z"/>
	<path fill="none" stroke="#0073B3" stroke-width="0.216" stroke-miterlimit="2.6131" d="M96.385,27.498
		c-26.382,0-36.075,16.36-36.075,45.979c0,29.62,9.693,45.971,36.075,45.971c26.376,0,36.062-16.352,36.062-45.971
		C132.446,43.858,122.761,27.498,96.385,27.498"/>
	<path fill="#F6DA26" d="M84.386,38.458c0.177,0.17,0.492,0.382,0.681,0.421c0.515,0.091,0.754,0.361,0.413,0.342
		c-1.094-0.087-2.156,0.863-2.455,1.432c-0.423,0.811-0.749,1.951,0.373,2.401c0.409,0.164,1.623-0.031,2.107-0.216
		c0.513-0.218,1.208-0.707,1.401,0.312c0.187,1.023,0.977,1.971,1.411,2.43c0.399,0.426,1.187,0.918,1.97,1.312
		c0.593,0.301,0.977,0.552,1.017,1.366c0.042,0.828,0.419,1.222,0.624,1.407c0.257,0.226,0.475,0.54,0.091,1.316
		c-0.131,0.323-0.452,0.867-0.154,1.266c0.295,0.404,1.198,0.458,1.388,0c0.349-0.83,0.569-0.735,0.811-0.322
		c0.162,0.278,0.115,0.322,0.115,0.99c0,0.662-0.089,1.146-1.272,1.274c-1.558,0.158-1.695-0.577-3.04-0.833
		c-0.479-0.087-1.841-0.301-2.982,0.201c-0.655,0.289-1.027,0.452-1.027,1.073c0,0.185,0.463,0.847-0.096,0.897
		c-0.434,0.032-1.369,0.295-1.826,0.992c-0.081,0.158-0.185,0.562-0.025,0.805c0.16,0.239,0.511,0.349-0.16,0.426
		c-0.376,0.046-1.475,0.639-1.718,1.33c-0.24,0.693-0.205,1.777,0.793,2.283c0.325,0.164,1.482,0.096,1.963,0.025
		c0.681-0.099,0.728,0.133,0.376,0.668c-0.05,0.11-0.183,0.399-0.353,0.672c-0.152,0.27-0.359,0.526,0.099,1.218
		c1.156,1.747,2.704,3.364,4.719,4.97c1.349,1.075,2.129,1.629,2.696,2.001c0.269,0.162,0.809,0.631,1.085,0.762
		c0.353,0.166,1.079,0.234,1.857-0.254c0.78-0.482,1.436-0.861,2.963-0.788c0.515,0.031,0.58-0.33-0.119-0.569
		c-0.674-0.212-1.58-0.778-2.659-0.673c-0.324,0.029-0.948,0.243-1.22,0.303c-0.297,0.075-0.946,0.146-1.396-0.231
		c-0.326-0.244-1.326-1.154-1.764-1.756c-0.324-0.448-2.113-2.708-2.411-3.162c-0.345-0.508-1.112-0.855-0.417-1.917
		c0.28-0.575,0.5-0.749,1.112-0.158c0.191,0.187,0.782,0.272,1.501,0.139c0.376-0.071,0.958,0.184,1.394,0.944
		c0.258,0.446,0.949,0.573,2.644,0.438c1.048-0.081,2.111-2.215,1.253-3.759c-0.233-0.415-0.72-0.604-0.72-1.087
		s0.164-0.669,0.859-0.415c0.303,0.116,0.368-0.392,0.023-0.992c-0.139-0.242-0.305-0.603-0.926-0.822
		c-0.494-0.18-0.788-0.583,0.229-0.492c0.539,0.05,1.227-0.616,1.28-1.127c0.078-0.537-0.053-1.388-0.51-1.899
		c-0.137-0.156,0-0.538,0.237-0.503c0.241,0.025,0.983-0.004,1.146,0.019c0.166,0.025,0.836,0.17,1.186-0.712
		c0.021-0.108,0.094-0.271,0.094-0.346c0-0.104-0.439-0.05-0.648-0.095c-0.133-0.025-0.229-0.041-0.603-0.255
		c-0.162-0.081-0.321-0.27-0.481-0.482c-0.246-0.324-0.424-0.479,0.086-0.507c0.369-0.025,0.603-0.093,0.856-0.232
		c0.147-0.079,0.466-0.218,1.14-0.141c-0.144-0.433-0.074-0.345,0.23-0.803c-0.926-1.251-0.396-2.036-0.188-2.173
		c0.322-0.207,0.484-0.344,0.625-0.475c0.112-0.097,0.133-0.5-0.047-0.726c-0.187-0.233-0.639-0.459-1.203-0.459
		c-0.592,0-2.192,0.031-2.541,0.035c-1.563,0.014-1.946,2.291-2.031,2.809c-0.088,0.575,0.073,0.365,0.097,1.828
		c0.023,0.509-0.299,1.054-0.463,0.363c-0.075-0.316-0.382-0.388-0.467-0.444c-0.104-0.077-0.771-0.79-1.201-2.235
		c-0.353-1.184-0.494-0.793-1.646-1.525c-0.836-0.531-2.039-1.407-2.569-3.138c-0.33-1.067,0.506-0.956,0.882-0.93
		c6.703,0.915,10.949,0.482,14.556-0.429c0.805-0.189,1.971-0.403,1.428,0.922c-0.53,1.312-1.273,2.212-3.174,3.337
		c-0.305,0.184-1.168,0.705-0.668,0.955c0.092,0.041,0.604-0.069,0.604-0.069s-0.113,0.272-0.419,0.419
		c-0.046,0.065-0.085,0.104,0,0.125c0.327,0.1,0.668-0.125,0.506,0.197c-0.05,0.104-0.81,0.243-0.81,0.459
		c-0.062,0.747-0.01,0.054,0.185,1.127c0.185,1.021-1.019,2.609-1.688,3.81c-0.324,0.581-0.674,0.946,0.021,1.731
		c0.729,0.828,1.648,1.971,2.021,2.561c0.353,0.565,0.772,2.096,0.031,4.152c-0.158,0.415-0.128,0.828-0.988,2.196
		c-0.457,0.75-0.51,1.569-0.068,2.673c0.307,0.778,1.318,3.166,2.449,3.915c0.916,0.589,1.442-0.265,0.672-0.778
		c-0.44-0.292-2.049-2.648-2.451-3.823c-0.213-0.674-0.321-1.243,0.186-1.942c0.404-0.558,1.226-0.396,2.02-0.093
		c0.484,0.189,1.436,0.397,2.111-0.484c0.238-0.32,0.453-0.272,0.483-1.641c0-0.373-0.024-0.596,0.37-0.579
		c1.344,0.072,2.042-0.262,2.342-1.496c0.326-1.207,0.102-1.982,0.022-2.33c-0.079-0.351-0.113-0.548,0.206-0.627
		c0.351-0.054,1.82-0.15,2.229-1.194c0.43-1.075,0.774-2.932-0.119-4.297c-0.134-0.214-0.666-0.473-0.853-1.386
		c-0.058-0.318-0.123-0.417-0.44-0.899c-0.107-0.156-0.582-0.67-0.984-0.753c-0.164-0.021-0.32-0.187-0.32-0.318
		c-0.029-0.16,0.006-0.61,0.247-1.033c0.056-0.139,0.838-1.878,1.426-2.928c0.407-0.722,1.739-3.632,2.119-4.192
		c0.246-0.359,0.422-0.703,0.917-0.932c0.786-0.361,1.261-0.72,1.531-0.852c0.27-0.133,1.527-0.909,2.129-1.641
		c0.199-0.239-0.122-0.517-0.557-0.368c-0.468,0.166-1.018,0.681-1.83,0.961c-0.246,0.087-0.823,0.195-1.062,0.162
		c-0.714-0.077-1.02-0.371-1.182-0.979c-0.094-0.352-0.51-0.838-0.791-0.471c-0.146,0.199,0.336,1.763-0.229,2.807
		c-0.567,1.05-1.133,2.706-4.009,6.57c-0.277,0.347-0.648,1.208-1.512,1.337c-0.858,0.135-1.656,0.184-2.129,0.761
		c-0.582,0.716-0.928,0.359-0.928,0.118c0.029-0.268,0-0.469,0.579-0.932c0.718-0.571,2.142-1.826,2.729-3.14
		c0.33-0.672,0.682-1.29-0.021-2.171c-0.242-0.271-0.236-0.799,0.254-0.933c0.355-0.099,0.838-0.183,1.276-0.26
		c0.256-0.226-0.298-0.325-0.601-0.33c-0.125-0.002-0.812,0.052-0.717-0.542c0.03-0.212,0.445-0.5,0.53-0.741
		c0.079-0.237-0.022-0.276-0.37-0.207c-0.251,0.05-0.374,0.207-0.535,0.23c-0.162,0.025-0.337,0.044-0.416-0.114
		c-0.08-0.164-0.144-0.538-0.225-0.699c-0.057-0.131-0.081-0.212-0.216,0.027c-0.136,0.239-0.128,0.675-0.29,0.842
		c-0.354,0.063-0.577-0.062-0.521-0.378c0.168-0.892,0.469-1.835-0.093-2.805c-0.162-0.292-0.899-0.826-1.763-0.048
		c-0.186,0.168-0.031,0.267-0.92,0.176c-0.784-0.079-0.803,0.407-1.23,0.62c-0.52,0.259-0.527,0.397-0.654,0.511
		c-0.399,0.354-0.256,0.531-1.092,0.072c-1.083-0.614-2.824-0.161-3.66,0.509c-0.214,0.131-0.621,0.554-1.158,0.098
		c-0.164-0.133-0.861-0.548-1.456-0.629c-0.617-0.056-0.648-0.06-0.729-0.353c-0.079-0.295,0.052-0.718,0.025-0.935
		c-0.025-0.212-0.513,0.099-0.587,0.637c-0.172-0.016-0.141,0.189-0.382-0.025c-0.189-0.158-0.35-0.214-0.461-0.347
		c-0.077-0.108-0.311-0.056-0.208,0.133c0.284,0.544,0.139,0.658,0.139,0.816c0,0.139-1.046-0.01-1.206-0.01
		c-0.137,0-0.139,0.089-0.081,0.104c0.444,0.141,0.515,0.376,0.745,0.488c0.162,0.083-0.297,0.286-0.649,0.141
		c-0.664-0.253-2.208-0.535-3.356-0.253C84.503,36.754,83.521,37.641,84.386,38.458L84.386,38.458z"/>
	<path fill="none" stroke="#F6DA26" stroke-width="0.216" stroke-miterlimit="2.6131" d="M84.386,38.458
		c0.177,0.17,0.492,0.382,0.681,0.421c0.515,0.091,0.754,0.361,0.413,0.342c-1.094-0.087-2.156,0.863-2.455,1.432
		c-0.423,0.811-0.749,1.951,0.373,2.401c0.409,0.164,1.623-0.031,2.107-0.216c0.513-0.218,1.208-0.707,1.401,0.312
		c0.187,1.023,0.977,1.971,1.411,2.43c0.399,0.426,1.187,0.918,1.97,1.312c0.593,0.301,0.977,0.552,1.017,1.366
		c0.042,0.828,0.419,1.222,0.624,1.407c0.257,0.226,0.475,0.54,0.091,1.316c-0.131,0.323-0.452,0.867-0.154,1.266
		c0.295,0.404,1.198,0.458,1.388,0c0.349-0.83,0.569-0.735,0.811-0.322c0.162,0.278,0.115,0.322,0.115,0.99
		c0,0.662-0.089,1.146-1.272,1.274c-1.558,0.158-1.695-0.577-3.04-0.833c-0.479-0.087-1.841-0.301-2.982,0.201
		c-0.655,0.289-1.027,0.452-1.027,1.073c0,0.185,0.463,0.847-0.096,0.897c-0.434,0.032-1.369,0.295-1.826,0.992
		c-0.081,0.158-0.185,0.562-0.025,0.805c0.16,0.239,0.511,0.349-0.16,0.426c-0.376,0.046-1.475,0.639-1.718,1.33
		c-0.24,0.693-0.205,1.777,0.793,2.283c0.325,0.164,1.482,0.096,1.963,0.025c0.681-0.099,0.728,0.133,0.376,0.668
		c-0.05,0.11-0.183,0.399-0.353,0.672c-0.152,0.27-0.359,0.526,0.099,1.218c1.156,1.747,2.704,3.364,4.719,4.97
		c1.349,1.075,2.129,1.629,2.696,2.001c0.269,0.162,0.809,0.631,1.085,0.762c0.353,0.166,1.079,0.234,1.857-0.254
		c0.78-0.482,1.436-0.861,2.963-0.788c0.515,0.031,0.58-0.33-0.119-0.569c-0.674-0.212-1.58-0.778-2.659-0.673
		c-0.324,0.029-0.948,0.243-1.22,0.303c-0.297,0.075-0.946,0.146-1.396-0.231c-0.326-0.244-1.326-1.154-1.764-1.756
		c-0.324-0.448-2.113-2.708-2.411-3.162c-0.345-0.508-1.112-0.855-0.417-1.917c0.28-0.575,0.5-0.749,1.112-0.158
		c0.191,0.187,0.782,0.272,1.501,0.139c0.376-0.071,0.958,0.184,1.394,0.944c0.258,0.446,0.949,0.573,2.644,0.438
		c1.048-0.081,2.111-2.215,1.253-3.759c-0.233-0.415-0.72-0.604-0.72-1.087s0.164-0.669,0.859-0.415
		c0.303,0.116,0.368-0.392,0.023-0.992c-0.139-0.242-0.305-0.603-0.926-0.822c-0.494-0.18-0.788-0.583,0.229-0.492
		c0.539,0.05,1.227-0.616,1.28-1.127c0.078-0.537-0.053-1.388-0.51-1.899c-0.137-0.156,0-0.538,0.237-0.503
		c0.241,0.025,0.983-0.004,1.146,0.019c0.166,0.025,0.836,0.17,1.186-0.712c0.021-0.108,0.094-0.271,0.094-0.346
		c0-0.104-0.439-0.05-0.648-0.095c-0.133-0.025-0.229-0.041-0.603-0.255c-0.162-0.081-0.321-0.27-0.481-0.482
		c-0.246-0.324-0.424-0.479,0.086-0.507c0.369-0.025,0.603-0.093,0.856-0.232c0.147-0.079,0.466-0.218,1.14-0.141
		c-0.144-0.433-0.074-0.345,0.23-0.803c-0.926-1.251-0.396-2.036-0.188-2.173c0.322-0.207,0.484-0.344,0.625-0.475
		c0.112-0.097,0.133-0.5-0.047-0.726c-0.187-0.233-0.639-0.459-1.203-0.459c-0.592,0-2.192,0.031-2.541,0.035
		c-1.563,0.014-1.946,2.291-2.031,2.809c-0.088,0.575,0.073,0.365,0.097,1.828c0.023,0.509-0.299,1.054-0.463,0.363
		c-0.075-0.316-0.382-0.388-0.467-0.444c-0.104-0.077-0.771-0.79-1.201-2.235c-0.353-1.184-0.494-0.793-1.646-1.525
		c-0.836-0.531-2.039-1.407-2.569-3.138c-0.33-1.067,0.506-0.956,0.882-0.93c6.703,0.915,10.949,0.482,14.556-0.429
		c0.805-0.189,1.971-0.403,1.428,0.922c-0.53,1.312-1.273,2.212-3.174,3.337c-0.305,0.184-1.168,0.705-0.668,0.955
		c0.092,0.041,0.604-0.069,0.604-0.069s-0.113,0.272-0.419,0.419c-0.046,0.065-0.085,0.104,0,0.125
		c0.327,0.1,0.668-0.125,0.506,0.197c-0.05,0.104-0.81,0.243-0.81,0.459c-0.062,0.747-0.01,0.054,0.185,1.127
		c0.185,1.021-1.019,2.609-1.688,3.81c-0.324,0.581-0.674,0.946,0.021,1.731c0.729,0.828,1.648,1.971,2.021,2.561
		c0.353,0.565,0.772,2.096,0.031,4.152c-0.158,0.415-0.128,0.828-0.988,2.196c-0.457,0.75-0.51,1.569-0.068,2.673
		c0.307,0.778,1.318,3.166,2.449,3.915c0.916,0.589,1.442-0.265,0.672-0.778c-0.44-0.292-2.049-2.648-2.451-3.823
		c-0.213-0.674-0.321-1.243,0.186-1.942c0.404-0.558,1.226-0.396,2.02-0.093c0.484,0.189,1.436,0.397,2.111-0.484
		c0.238-0.32,0.453-0.272,0.483-1.641c0-0.373-0.024-0.596,0.37-0.579c1.344,0.072,2.042-0.262,2.342-1.496
		c0.326-1.207,0.102-1.982,0.022-2.33c-0.079-0.351-0.113-0.548,0.206-0.627c0.351-0.054,1.82-0.15,2.229-1.194
		c0.43-1.075,0.774-2.932-0.119-4.297c-0.134-0.214-0.666-0.473-0.853-1.386c-0.058-0.318-0.123-0.417-0.44-0.899
		c-0.107-0.156-0.582-0.67-0.984-0.753c-0.164-0.021-0.32-0.187-0.32-0.318c-0.029-0.16,0.006-0.61,0.247-1.033
		c0.056-0.139,0.838-1.878,1.426-2.928c0.407-0.722,1.739-3.632,2.119-4.192c0.246-0.359,0.422-0.703,0.917-0.932
		c0.786-0.361,1.261-0.72,1.531-0.852c0.27-0.133,1.527-0.909,2.129-1.641c0.199-0.239-0.122-0.517-0.557-0.368
		c-0.468,0.166-1.018,0.681-1.83,0.961c-0.246,0.087-0.823,0.195-1.062,0.162c-0.714-0.077-1.02-0.371-1.182-0.979
		c-0.094-0.352-0.51-0.838-0.791-0.471c-0.146,0.199,0.336,1.763-0.229,2.807c-0.567,1.05-1.133,2.706-4.009,6.57
		c-0.277,0.347-0.648,1.208-1.512,1.337c-0.858,0.135-1.656,0.184-2.129,0.761c-0.582,0.716-0.928,0.359-0.928,0.118
		c0.029-0.268,0-0.469,0.579-0.932c0.718-0.571,2.142-1.826,2.729-3.14c0.33-0.672,0.682-1.29-0.021-2.171
		c-0.242-0.271-0.236-0.799,0.254-0.933c0.355-0.099,0.838-0.183,1.276-0.26c0.256-0.226-0.298-0.325-0.601-0.33
		c-0.125-0.002-0.812,0.052-0.717-0.542c0.03-0.212,0.445-0.5,0.53-0.741c0.079-0.237-0.022-0.276-0.37-0.207
		c-0.251,0.05-0.374,0.207-0.535,0.23c-0.162,0.025-0.337,0.044-0.416-0.114c-0.08-0.164-0.144-0.538-0.225-0.699
		c-0.057-0.131-0.081-0.212-0.216,0.027c-0.136,0.239-0.128,0.675-0.29,0.842c-0.354,0.063-0.577-0.062-0.521-0.378
		c0.168-0.892,0.469-1.835-0.093-2.805c-0.162-0.292-0.899-0.826-1.763-0.048c-0.186,0.168-0.031,0.267-0.92,0.176
		c-0.784-0.079-0.803,0.407-1.23,0.62c-0.52,0.259-0.527,0.397-0.654,0.511c-0.399,0.354-0.256,0.531-1.092,0.072
		c-1.083-0.614-2.824-0.161-3.66,0.509c-0.214,0.131-0.621,0.554-1.158,0.098c-0.164-0.133-0.861-0.548-1.456-0.629
		c-0.617-0.056-0.648-0.06-0.729-0.353c-0.079-0.295,0.052-0.718,0.025-0.935c-0.025-0.212-0.513,0.099-0.587,0.637
		c-0.172-0.016-0.141,0.189-0.382-0.025c-0.189-0.158-0.35-0.214-0.461-0.347c-0.077-0.108-0.311-0.056-0.208,0.133
		c0.284,0.544,0.139,0.658,0.139,0.816c0,0.139-1.046-0.01-1.206-0.01c-0.137,0-0.139,0.089-0.081,0.104
		c0.444,0.141,0.515,0.376,0.745,0.488c0.162,0.083-0.297,0.286-0.649,0.141c-0.664-0.253-2.208-0.535-3.356-0.253
		C84.503,36.754,83.521,37.641,84.386,38.458"/>
	<path fill="#F6DA26" d="M84.386,38.458c0.177,0.17,0.492,0.382,0.681,0.421c0.515,0.091,0.754,0.361,0.413,0.342
		c-1.094-0.087-2.156,0.863-2.455,1.432c-0.423,0.811-0.749,1.951,0.373,2.401c0.409,0.164,1.623-0.031,2.107-0.216
		c0.513-0.218,1.208-0.707,1.401,0.312c0.187,1.023,0.977,1.971,1.411,2.43c0.399,0.426,1.187,0.918,1.97,1.312
		c0.593,0.301,0.977,0.552,1.017,1.366c0.042,0.828,0.419,1.222,0.624,1.407c0.257,0.226,0.475,0.54,0.091,1.316
		c-0.131,0.323-0.452,0.867-0.154,1.266c0.295,0.404,1.198,0.458,1.388,0c0.349-0.83,0.569-0.735,0.811-0.322
		c0.162,0.278,0.115,0.322,0.115,0.99c0,0.662-0.089,1.146-1.272,1.274c-1.558,0.158-1.695-0.577-3.04-0.833
		c-0.479-0.087-1.841-0.301-2.982,0.201c-0.655,0.289-1.027,0.452-1.027,1.073c0,0.185,0.463,0.847-0.096,0.897
		c-0.434,0.032-1.369,0.295-1.826,0.992c-0.081,0.158-0.185,0.562-0.025,0.805c0.16,0.239,0.511,0.349-0.16,0.426
		c-0.376,0.046-1.475,0.639-1.718,1.33c-0.24,0.693-0.205,1.777,0.793,2.283c0.325,0.164,1.482,0.096,1.963,0.025
		c0.681-0.099,0.728,0.133,0.376,0.668c-0.05,0.11-0.183,0.399-0.353,0.672c-0.152,0.27-0.359,0.526,0.099,1.218
		c1.156,1.747,2.704,3.364,4.719,4.97c1.349,1.075,2.129,1.629,2.696,2.001c0.269,0.162,0.809,0.631,1.085,0.762
		c0.353,0.166,1.079,0.234,1.857-0.254c0.78-0.482,1.436-0.861,2.963-0.788c0.515,0.031,0.58-0.33-0.119-0.569
		c-0.674-0.212-1.58-0.778-2.659-0.673c-0.324,0.029-0.948,0.243-1.22,0.303c-0.297,0.075-0.946,0.146-1.396-0.231
		c-0.326-0.244-1.326-1.154-1.764-1.756c-0.324-0.448-2.113-2.708-2.411-3.162c-0.345-0.508-1.112-0.855-0.417-1.917
		c0.28-0.575,0.5-0.749,1.112-0.158c0.191,0.187,0.782,0.272,1.501,0.139c0.376-0.071,0.958,0.184,1.394,0.944
		c0.258,0.446,0.949,0.573,2.644,0.438c1.048-0.081,2.111-2.215,1.253-3.759c-0.233-0.415-0.72-0.604-0.72-1.087
		s0.164-0.669,0.859-0.415c0.303,0.116,0.368-0.392,0.023-0.992c-0.139-0.242-0.305-0.603-0.926-0.822
		c-0.494-0.18-0.788-0.583,0.229-0.492c0.539,0.05,1.227-0.616,1.28-1.127c0.078-0.537-0.053-1.388-0.51-1.899
		c-0.137-0.156,0-0.538,0.237-0.503c0.241,0.025,0.983-0.004,1.146,0.019c0.166,0.025,0.836,0.17,1.186-0.712
		c0.021-0.108,0.094-0.271,0.094-0.346c0-0.104-0.439-0.05-0.648-0.095c-0.133-0.025-0.229-0.041-0.603-0.255
		c-0.162-0.081-0.321-0.27-0.481-0.482c-0.246-0.324-0.424-0.479,0.086-0.507c0.369-0.025,0.603-0.093,0.856-0.232
		c0.147-0.079,0.466-0.218,1.14-0.141c-0.144-0.433-0.074-0.345,0.23-0.803c-0.926-1.251-0.396-2.036-0.188-2.173
		c0.322-0.207,0.484-0.344,0.625-0.475c0.112-0.097,0.133-0.5-0.047-0.726c-0.187-0.233-0.639-0.459-1.203-0.459
		c-0.592,0-2.192,0.031-2.541,0.035c-1.563,0.014-1.946,2.291-2.031,2.809c-0.088,0.575,0.073,0.365,0.097,1.828
		c0.023,0.509-0.299,1.054-0.463,0.363c-0.075-0.316-0.382-0.388-0.467-0.444c-0.104-0.077-0.771-0.79-1.201-2.235
		c-0.353-1.184-0.494-0.793-1.646-1.525c-0.836-0.531-2.039-1.407-2.569-3.138c-0.33-1.067,0.506-0.956,0.882-0.93
		c6.703,0.915,10.949,0.482,14.556-0.429c0.805-0.189,1.971-0.403,1.428,0.922c-0.53,1.312-1.273,2.212-3.174,3.337
		c-0.305,0.184-1.168,0.705-0.668,0.955c0.092,0.041,0.604-0.069,0.604-0.069s-0.113,0.272-0.419,0.419
		c-0.046,0.065-0.085,0.104,0,0.125c0.327,0.1,0.668-0.125,0.506,0.197c-0.05,0.104-0.81,0.243-0.81,0.459
		c-0.062,0.747-0.01,0.054,0.185,1.127c0.185,1.021-1.019,2.609-1.688,3.81c-0.324,0.581-0.674,0.946,0.021,1.731
		c0.729,0.828,1.648,1.971,2.021,2.561c0.353,0.565,0.772,2.096,0.031,4.152c-0.158,0.415-0.128,0.828-0.988,2.196
		c-0.457,0.75-0.51,1.569-0.068,2.673c0.307,0.778,1.318,3.166,2.449,3.915c0.916,0.589,1.442-0.265,0.672-0.778
		c-0.44-0.292-2.049-2.648-2.451-3.823c-0.213-0.674-0.321-1.243,0.186-1.942c0.404-0.558,1.226-0.396,2.02-0.093
		c0.484,0.189,1.436,0.397,2.111-0.484c0.238-0.32,0.453-0.272,0.483-1.641c0-0.373-0.024-0.596,0.37-0.579
		c1.344,0.072,2.042-0.262,2.342-1.496c0.326-1.207,0.102-1.982,0.022-2.33c-0.079-0.351-0.113-0.548,0.206-0.627
		c0.351-0.054,1.82-0.15,2.229-1.194c0.43-1.075,0.774-2.932-0.119-4.297c-0.134-0.214-0.666-0.473-0.853-1.386
		c-0.058-0.318-0.123-0.417-0.44-0.899c-0.107-0.156-0.582-0.67-0.984-0.753c-0.164-0.021-0.32-0.187-0.32-0.318
		c-0.029-0.16,0.006-0.61,0.247-1.033c0.056-0.139,0.838-1.878,1.426-2.928c0.407-0.722,1.739-3.632,2.119-4.192
		c0.246-0.359,0.422-0.703,0.917-0.932c0.786-0.361,1.261-0.72,1.531-0.852c0.27-0.133,1.527-0.909,2.129-1.641
		c0.199-0.239-0.122-0.517-0.557-0.368c-0.468,0.166-1.018,0.681-1.83,0.961c-0.246,0.087-0.823,0.195-1.062,0.162
		c-0.714-0.077-1.02-0.371-1.182-0.979c-0.094-0.352-0.51-0.838-0.791-0.471c-0.146,0.199,0.336,1.763-0.229,2.807
		c-0.567,1.05-1.133,2.706-4.009,6.57c-0.277,0.347-0.648,1.208-1.512,1.337c-0.858,0.135-1.656,0.184-2.129,0.761
		c-0.582,0.716-0.928,0.359-0.928,0.118c0.029-0.268,0-0.469,0.579-0.932c0.718-0.571,2.142-1.826,2.729-3.14
		c0.33-0.672,0.682-1.29-0.021-2.171c-0.242-0.271-0.236-0.799,0.254-0.933c0.355-0.099,0.838-0.183,1.276-0.26
		c0.256-0.226-0.298-0.325-0.601-0.33c-0.125-0.002-0.812,0.052-0.717-0.542c0.03-0.212,0.445-0.5,0.53-0.741
		c0.079-0.237-0.022-0.276-0.37-0.207c-0.251,0.05-0.374,0.207-0.535,0.23c-0.162,0.025-0.337,0.044-0.416-0.114
		c-0.08-0.164-0.144-0.538-0.225-0.699c-0.057-0.131-0.081-0.212-0.216,0.027c-0.136,0.239-0.128,0.675-0.29,0.842
		c-0.354,0.063-0.577-0.062-0.521-0.378c0.168-0.892,0.469-1.835-0.093-2.805c-0.162-0.292-0.899-0.826-1.763-0.048
		c-0.186,0.168-0.031,0.267-0.92,0.176c-0.784-0.079-0.803,0.407-1.23,0.62c-0.52,0.259-0.527,0.397-0.654,0.511
		c-0.399,0.354-0.256,0.531-1.092,0.072c-1.083-0.614-2.824-0.161-3.66,0.509c-0.214,0.131-0.621,0.554-1.158,0.098
		c-0.164-0.133-0.861-0.548-1.456-0.629c-0.617-0.056-0.648-0.06-0.729-0.353c-0.079-0.295,0.052-0.718,0.025-0.935
		c-0.025-0.212-0.513,0.099-0.587,0.637c-0.172-0.016-0.141,0.189-0.382-0.025c-0.189-0.158-0.35-0.214-0.461-0.347
		c-0.077-0.108-0.311-0.056-0.208,0.133c0.284,0.544,0.139,0.658,0.139,0.816c0,0.139-1.046-0.01-1.206-0.01
		c-0.137,0-0.139,0.089-0.081,0.104c0.444,0.141,0.515,0.376,0.745,0.488c0.162,0.083-0.297,0.286-0.649,0.141
		c-0.664-0.253-2.208-0.535-3.356-0.253C84.503,36.754,83.521,37.641,84.386,38.458L84.386,38.458z"/>
	<path fill="none" stroke="#F6DA26" stroke-width="0.216" stroke-miterlimit="2.6131" d="M84.386,38.458
		c0.177,0.17,0.492,0.382,0.681,0.421c0.515,0.091,0.754,0.361,0.413,0.342c-1.094-0.087-2.156,0.863-2.455,1.432
		c-0.423,0.811-0.749,1.951,0.373,2.401c0.409,0.164,1.623-0.031,2.107-0.216c0.513-0.218,1.208-0.707,1.401,0.312
		c0.187,1.023,0.977,1.971,1.411,2.43c0.399,0.426,1.187,0.918,1.97,1.312c0.593,0.301,0.977,0.552,1.017,1.366
		c0.042,0.828,0.419,1.222,0.624,1.407c0.257,0.226,0.475,0.54,0.091,1.316c-0.131,0.323-0.452,0.867-0.154,1.266
		c0.295,0.404,1.198,0.458,1.388,0c0.349-0.83,0.569-0.735,0.811-0.322c0.162,0.278,0.115,0.322,0.115,0.99
		c0,0.662-0.089,1.146-1.272,1.274c-1.558,0.158-1.695-0.577-3.04-0.833c-0.479-0.087-1.841-0.301-2.982,0.201
		c-0.655,0.289-1.027,0.452-1.027,1.073c0,0.185,0.463,0.847-0.096,0.897c-0.434,0.032-1.369,0.295-1.826,0.992
		c-0.081,0.158-0.185,0.562-0.025,0.805c0.16,0.239,0.511,0.349-0.16,0.426c-0.376,0.046-1.475,0.639-1.718,1.33
		c-0.24,0.693-0.205,1.777,0.793,2.283c0.325,0.164,1.482,0.096,1.963,0.025c0.681-0.099,0.728,0.133,0.376,0.668
		c-0.05,0.11-0.183,0.399-0.353,0.672c-0.152,0.27-0.359,0.526,0.099,1.218c1.156,1.747,2.704,3.364,4.719,4.97
		c1.349,1.075,2.129,1.629,2.696,2.001c0.269,0.162,0.809,0.631,1.085,0.762c0.353,0.166,1.079,0.234,1.857-0.254
		c0.78-0.482,1.436-0.861,2.963-0.788c0.515,0.031,0.58-0.33-0.119-0.569c-0.674-0.212-1.58-0.778-2.659-0.673
		c-0.324,0.029-0.948,0.243-1.22,0.303c-0.297,0.075-0.946,0.146-1.396-0.231c-0.326-0.244-1.326-1.154-1.764-1.756
		c-0.324-0.448-2.113-2.708-2.411-3.162c-0.345-0.508-1.112-0.855-0.417-1.917c0.28-0.575,0.5-0.749,1.112-0.158
		c0.191,0.187,0.782,0.272,1.501,0.139c0.376-0.071,0.958,0.184,1.394,0.944c0.258,0.446,0.949,0.573,2.644,0.438
		c1.048-0.081,2.111-2.215,1.253-3.759c-0.233-0.415-0.72-0.604-0.72-1.087s0.164-0.669,0.859-0.415
		c0.303,0.116,0.368-0.392,0.023-0.992c-0.139-0.242-0.305-0.603-0.926-0.822c-0.494-0.18-0.788-0.583,0.229-0.492
		c0.539,0.05,1.227-0.616,1.28-1.127c0.078-0.537-0.053-1.388-0.51-1.899c-0.137-0.156,0-0.538,0.237-0.503
		c0.241,0.025,0.983-0.004,1.146,0.019c0.166,0.025,0.836,0.17,1.186-0.712c0.021-0.108,0.094-0.271,0.094-0.346
		c0-0.104-0.439-0.05-0.648-0.095c-0.133-0.025-0.229-0.041-0.603-0.255c-0.162-0.081-0.321-0.27-0.481-0.482
		c-0.246-0.324-0.424-0.479,0.086-0.507c0.369-0.025,0.603-0.093,0.856-0.232c0.147-0.079,0.466-0.218,1.14-0.141
		c-0.144-0.433-0.074-0.345,0.23-0.803c-0.926-1.251-0.396-2.036-0.188-2.173c0.322-0.207,0.484-0.344,0.625-0.475
		c0.112-0.097,0.133-0.5-0.047-0.726c-0.187-0.233-0.639-0.459-1.203-0.459c-0.592,0-2.192,0.031-2.541,0.035
		c-1.563,0.014-1.946,2.291-2.031,2.809c-0.088,0.575,0.073,0.365,0.097,1.828c0.023,0.509-0.299,1.054-0.463,0.363
		c-0.075-0.316-0.382-0.388-0.467-0.444c-0.104-0.077-0.771-0.79-1.201-2.235c-0.353-1.184-0.494-0.793-1.646-1.525
		c-0.836-0.531-2.039-1.407-2.569-3.138c-0.33-1.067,0.506-0.956,0.882-0.93c6.703,0.915,10.949,0.482,14.556-0.429
		c0.805-0.189,1.971-0.403,1.428,0.922c-0.53,1.312-1.273,2.212-3.174,3.337c-0.305,0.184-1.168,0.705-0.668,0.955
		c0.092,0.041,0.604-0.069,0.604-0.069s-0.113,0.272-0.419,0.419c-0.046,0.065-0.085,0.104,0,0.125
		c0.327,0.1,0.668-0.125,0.506,0.197c-0.05,0.104-0.81,0.243-0.81,0.459c-0.062,0.747-0.01,0.054,0.185,1.127
		c0.185,1.021-1.019,2.609-1.688,3.81c-0.324,0.581-0.674,0.946,0.021,1.731c0.729,0.828,1.648,1.971,2.021,2.561
		c0.353,0.565,0.772,2.096,0.031,4.152c-0.158,0.415-0.128,0.828-0.988,2.196c-0.457,0.75-0.51,1.569-0.068,2.673
		c0.307,0.778,1.318,3.166,2.449,3.915c0.916,0.589,1.442-0.265,0.672-0.778c-0.44-0.292-2.049-2.648-2.451-3.823
		c-0.213-0.674-0.321-1.243,0.186-1.942c0.404-0.558,1.226-0.396,2.02-0.093c0.484,0.189,1.436,0.397,2.111-0.484
		c0.238-0.32,0.453-0.272,0.483-1.641c0-0.373-0.024-0.596,0.37-0.579c1.344,0.072,2.042-0.262,2.342-1.496
		c0.326-1.207,0.102-1.982,0.022-2.33c-0.079-0.351-0.113-0.548,0.206-0.627c0.351-0.054,1.82-0.15,2.229-1.194
		c0.43-1.075,0.774-2.932-0.119-4.297c-0.134-0.214-0.666-0.473-0.853-1.386c-0.058-0.318-0.123-0.417-0.44-0.899
		c-0.107-0.156-0.582-0.67-0.984-0.753c-0.164-0.021-0.32-0.187-0.32-0.318c-0.029-0.16,0.006-0.61,0.247-1.033
		c0.056-0.139,0.838-1.878,1.426-2.928c0.407-0.722,1.739-3.632,2.119-4.192c0.246-0.359,0.422-0.703,0.917-0.932
		c0.786-0.361,1.261-0.72,1.531-0.852c0.27-0.133,1.527-0.909,2.129-1.641c0.199-0.239-0.122-0.517-0.557-0.368
		c-0.468,0.166-1.018,0.681-1.83,0.961c-0.246,0.087-0.823,0.195-1.062,0.162c-0.714-0.077-1.02-0.371-1.182-0.979
		c-0.094-0.352-0.51-0.838-0.791-0.471c-0.146,0.199,0.336,1.763-0.229,2.807c-0.567,1.05-1.133,2.706-4.009,6.57
		c-0.277,0.347-0.648,1.208-1.512,1.337c-0.858,0.135-1.656,0.184-2.129,0.761c-0.582,0.716-0.928,0.359-0.928,0.118
		c0.029-0.268,0-0.469,0.579-0.932c0.718-0.571,2.142-1.826,2.729-3.14c0.33-0.672,0.682-1.29-0.021-2.171
		c-0.242-0.271-0.236-0.799,0.254-0.933c0.355-0.099,0.838-0.183,1.276-0.26c0.256-0.226-0.298-0.325-0.601-0.33
		c-0.125-0.002-0.812,0.052-0.717-0.542c0.03-0.212,0.445-0.5,0.53-0.741c0.079-0.237-0.022-0.276-0.37-0.207
		c-0.251,0.05-0.374,0.207-0.535,0.23c-0.162,0.025-0.337,0.044-0.416-0.114c-0.08-0.164-0.144-0.538-0.225-0.699
		c-0.057-0.131-0.081-0.212-0.216,0.027c-0.136,0.239-0.128,0.675-0.29,0.842c-0.354,0.063-0.577-0.062-0.521-0.378
		c0.168-0.892,0.469-1.835-0.093-2.805c-0.162-0.292-0.899-0.826-1.763-0.048c-0.186,0.168-0.031,0.267-0.92,0.176
		c-0.784-0.079-0.803,0.407-1.23,0.62c-0.52,0.259-0.527,0.397-0.654,0.511c-0.399,0.354-0.256,0.531-1.092,0.072
		c-1.083-0.614-2.824-0.161-3.66,0.509c-0.214,0.131-0.621,0.554-1.158,0.098c-0.164-0.133-0.861-0.548-1.456-0.629
		c-0.617-0.056-0.648-0.06-0.729-0.353c-0.079-0.295,0.052-0.718,0.025-0.935c-0.025-0.212-0.513,0.099-0.587,0.637
		c-0.172-0.016-0.141,0.189-0.382-0.025c-0.189-0.158-0.35-0.214-0.461-0.347c-0.077-0.108-0.311-0.056-0.208,0.133
		c0.284,0.544,0.139,0.658,0.139,0.816c0,0.139-1.046-0.01-1.206-0.01c-0.137,0-0.139,0.089-0.081,0.104
		c0.444,0.141,0.515,0.376,0.745,0.488c0.162,0.083-0.297,0.286-0.649,0.141c-0.664-0.253-2.208-0.535-3.356-0.253
		C84.503,36.754,83.521,37.641,84.386,38.458"/>
	<path fill="#0073B3" d="M98.701,49.578c0-0.089-0.06-0.188-0.14-0.188c-0.105,0-0.121,0.104-0.121,0.159
		c0,0.081,0.041,0.21,0.121,0.21C98.666,49.76,98.701,49.63,98.701,49.578L98.701,49.578z"/>
	<path fill="none" stroke="#0073B3" stroke-width="0.216" stroke-miterlimit="2.6131" d="M98.701,49.578
		c0-0.089-0.06-0.188-0.14-0.188c-0.105,0-0.121,0.104-0.121,0.159c0,0.081,0.041,0.21,0.121,0.21
		C98.666,49.76,98.701,49.63,98.701,49.578"/>
	<path fill="#0073B3" d="M92.305,51.701c0,0.216,0.43,0.438,0.646,0.089c0.187-0.326,0.083-0.627,0.083-0.761
		c-0.027-0.293-0.475-0.669-0.593-0.077C92.401,51.18,92.305,51.464,92.305,51.701L92.305,51.701z"/>
	<path fill="none" stroke="#0073B3" stroke-width="0.216" stroke-miterlimit="2.6131" d="M92.305,51.701
		c0,0.216,0.43,0.438,0.646,0.089c0.187-0.326,0.083-0.627,0.083-0.761c-0.027-0.293-0.475-0.669-0.593-0.077
		C92.401,51.18,92.305,51.464,92.305,51.701"/>
	<path fill="#0073B3" d="M96.456,46.222c0.623-0.014,0.786,0.193,1.061,0.351c0.279,0.16,0.646-0.141,0.209-0.299
		c-0.488-0.172-0.365-0.313-0.72-0.326C96.398,45.932,95.885,46.239,96.456,46.222L96.456,46.222z"/>
	<path fill="none" stroke="#0073B3" stroke-width="0.216" stroke-miterlimit="2.6131" d="M96.456,46.222
		c0.623-0.014,0.786,0.193,1.061,0.351c0.279,0.16,0.646-0.141,0.209-0.299c-0.488-0.172-0.365-0.313-0.72-0.326
		C96.398,45.932,95.885,46.239,96.456,46.222"/>
	<path fill="#0073B3" d="M96.57,47.015c-0.218,0.067-0.054,0.345-0.674,0.111c-0.125,0.077,0.174,0.348,0.093,0.415
		c-0.058,0.047-0.288,0.16-0.579,0.114c-0.365-0.05,0.065,0.186,0.363,0.375c0.191,0.135,0.839,0.183,1.123-0.28
		c0.097-0.17,0-0.603,0.16-0.672c0.461,0,0.512,0.301,0.549,0.463c0.03,0.104-0.07,0.512-0.039,0.649
		c0,0.104,0.187,0.139,0.23-0.186c0.02-0.131,0.094-0.274,0.044-0.486c-0.044-0.207-0.239-0.592-0.623-0.658
		C96.935,46.782,96.707,46.964,96.57,47.015L96.57,47.015z"/>
	<path fill="none" stroke="#0073B3" stroke-width="0.216" stroke-miterlimit="2.6131" d="M96.57,47.015
		c-0.218,0.067-0.054,0.345-0.674,0.111c-0.125,0.077,0.174,0.348,0.093,0.415c-0.058,0.047-0.288,0.16-0.579,0.114
		c-0.365-0.05,0.065,0.186,0.363,0.375c0.191,0.135,0.839,0.183,1.123-0.28c0.097-0.17,0-0.603,0.16-0.672
		c0.461,0,0.512,0.301,0.549,0.463c0.03,0.104-0.07,0.512-0.039,0.649c0,0.104,0.187,0.139,0.23-0.186
		c0.02-0.131,0.094-0.274,0.044-0.486c-0.044-0.207-0.239-0.592-0.623-0.658C96.935,46.782,96.707,46.964,96.57,47.015"/>
	<path fill="#0073B3" d="M84.988,37.673c-0.077,0.133,0,0.537,0.241,0.614c0.247,0.079,2.669,0.48,3.045,0.537
		c0.376,0.058,0.612,0,0.726-0.376c0.081-0.348,0.05-0.586-0.218-0.722c-0.67-0.349-2.715-0.562-3.227-0.455
		C85.204,37.324,85.067,37.534,84.988,37.673L84.988,37.673z"/>
	<path fill="none" stroke="#0073B3" stroke-width="0.216" stroke-miterlimit="2.6131" d="M84.988,37.673
		c-0.077,0.133,0,0.537,0.241,0.614c0.247,0.079,2.669,0.48,3.045,0.537c0.376,0.058,0.612,0,0.726-0.376
		c0.081-0.348,0.05-0.586-0.218-0.722c-0.67-0.349-2.715-0.562-3.227-0.455C85.204,37.324,85.067,37.534,84.988,37.673"/>
	<path fill="#0073B3" d="M84.579,42.207c0.482-0.133,1.133-0.48,1.721-0.56c0.622-0.106,1.508-0.297,2.104-0.297
		c0.612,0,0.838-0.201,0.516-0.869c-0.29-0.588,0.092-1.035-0.906-1.063c-1.511-0.083-2.104,0.176-2.962,0.743
		c-0.513,0.32-1.088,0.894-1.252,1.133C83.418,41.838,83.822,42.448,84.579,42.207L84.579,42.207z"/>
	<path fill="none" stroke="#0073B3" stroke-width="0.216" stroke-miterlimit="2.6131" d="M84.579,42.207
		c0.482-0.133,1.133-0.48,1.721-0.56c0.622-0.106,1.508-0.297,2.104-0.297c0.612,0,0.838-0.201,0.516-0.869
		c-0.29-0.588,0.092-1.035-0.906-1.063c-1.511-0.083-2.104,0.176-2.962,0.743c-0.513,0.32-1.088,0.894-1.252,1.133
		C83.418,41.838,83.822,42.448,84.579,42.207"/>
	<path fill="#0073B3" d="M90.855,37.133c-0.697,0.397-1.102,0.832-1.079,1.768c0.031,0.936,0.376,1.843,0.671,2.249
		c0.135,0.218,0.191,0.35,0.323,0.35c0.158,0,2.236,0.351,2.432,0.351c0.184,0,0.712-0.025,0.793-0.077
		c0.106-0.082,0.411-0.753,0.495-0.888c0.077-0.139,0.037-0.635,0.037-0.799c0-0.16-0.425-1.816-1.531-2.532
		C92.648,37.308,91.579,36.7,90.855,37.133L90.855,37.133z"/>
	<path fill="none" stroke="#0073B3" stroke-width="0.216" stroke-miterlimit="2.6131" d="M90.855,37.133
		c-0.697,0.397-1.102,0.832-1.079,1.768c0.031,0.936,0.376,1.843,0.671,2.249c0.135,0.218,0.191,0.35,0.323,0.35
		c0.158,0,2.236,0.351,2.432,0.351c0.184,0,0.712-0.025,0.793-0.077c0.106-0.082,0.411-0.753,0.495-0.888
		c0.077-0.139,0.037-0.635,0.037-0.799c0-0.16-0.425-1.816-1.531-2.532C92.648,37.308,91.579,36.7,90.855,37.133"/>
	<path fill="#0073B3" d="M94.687,38.241c0.106,0.295,0.685,1.206,0.789,1.337c0.112,0.137,0.189,0.033,0.243,0.033
		c0.079-0.033,0.425-0.276,0.558-0.299c0.158-0.056,0.509-0.214,0.586-0.214c0.111,0,0.111-0.342,0.166-0.39
		c0.031-0.031,1.013-0.861,1.119-0.998c0.141-0.162,0.379-0.535-0.271-0.755c-0.571-0.189-0.942-0.282-1.888-0.029
		c-0.505,0.135-0.913,0.382-1.179,0.648C94.725,37.654,94.58,37.945,94.687,38.241L94.687,38.241z"/>
	<path fill="none" stroke="#0073B3" stroke-width="0.216" stroke-miterlimit="2.6131" d="M94.687,38.241
		c0.106,0.295,0.685,1.206,0.789,1.337c0.112,0.137,0.189,0.033,0.243,0.033c0.079-0.033,0.425-0.276,0.558-0.299
		c0.158-0.056,0.509-0.214,0.586-0.214c0.111,0,0.111-0.342,0.166-0.39c0.031-0.031,1.013-0.861,1.119-0.998
		c0.141-0.162,0.379-0.535-0.271-0.755c-0.571-0.189-0.942-0.282-1.888-0.029c-0.505,0.135-0.913,0.382-1.179,0.648
		C94.725,37.654,94.58,37.945,94.687,38.241"/>
	<path fill="#0073B3" d="M98.776,39.715c-0.241-0.071-0.519-0.145-1.006-0.101c-0.479,0.039-1.756,0.461-2.295,1.26
		c-0.176,0.274-0.735,0.946-0.089,0.975c0.65,0.035,2.103-0.008,2.345-0.021c0.246-0.007,0.399-0.118,0.5-0.309
		c0.08-0.168,0.545-1.233,0.649-1.452C98.957,39.904,99.026,39.783,98.776,39.715L98.776,39.715z"/>
	<path fill="none" stroke="#0073B3" stroke-width="0.216" stroke-miterlimit="2.6131" d="M98.776,39.715
		c-0.241-0.071-0.519-0.145-1.006-0.101c-0.479,0.039-1.756,0.461-2.295,1.26c-0.176,0.274-0.735,0.946-0.089,0.975
		c0.65,0.035,2.103-0.008,2.345-0.021c0.246-0.007,0.399-0.118,0.5-0.309c0.08-0.168,0.545-1.233,0.649-1.452
		C98.957,39.904,99.026,39.783,98.776,39.715"/>
	<path fill="#0073B3" d="M100.437,35.967c-0.488,0.455-1.672,2.038-1.858,2.302c-0.187,0.269-0.536,0.537-0.026,0.697
		c0.215,0.056,0.729,0.218,0.896,0.271c0.154,0.056,0.367,0.106,0.479-0.052c0.106-0.162,0.807-1.314,1.266-2.278
		C101.565,36.073,100.924,35.512,100.437,35.967L100.437,35.967z"/>
	<path fill="none" stroke="#0073B3" stroke-width="0.216" stroke-miterlimit="2.6131" d="M100.437,35.967
		c-0.488,0.455-1.672,2.038-1.858,2.302c-0.187,0.269-0.536,0.537-0.026,0.697c0.215,0.056,0.729,0.218,0.896,0.271
		c0.154,0.056,0.367,0.106,0.479-0.052c0.106-0.162,0.807-1.314,1.266-2.278C101.565,36.073,100.924,35.512,100.437,35.967"/>
	<path fill="#0073B3" d="M102.476,35.336c-0.295,0.558-0.896,2.034-1.141,2.517c-0.293,0.562-0.175,0.369,0.145,0.317
		c0.347-0.083,1.324-0.322,1.598-0.459c0.271-0.135,0.178-0.375,0.178-0.503c0-0.133,0.029-1.184,0.055-1.664
		C103.308,35.085,102.89,34.527,102.476,35.336L102.476,35.336z"/>
	<path fill="none" stroke="#0073B3" stroke-width="0.216" stroke-miterlimit="2.6131" d="M102.476,35.336
		c-0.295,0.558-0.896,2.034-1.141,2.517c-0.293,0.562-0.175,0.369,0.145,0.317c0.347-0.083,1.324-0.322,1.598-0.459
		c0.271-0.135,0.178-0.375,0.178-0.503c0-0.133,0.029-1.184,0.055-1.664C103.308,35.085,102.89,34.527,102.476,35.336"/>
	<path fill="#0073B3" d="M100.179,41.619c0.508-0.078,2.178-0.212,2.549-0.293c0.412-0.106,1.594-0.45,1.809-0.614
		c0.242-0.189,0.352-0.432,0.138-0.805c-0.19-0.348-0.545-1.233-1.753-1.206c-1.186,0-2.826,0.399-3.445,2.114
		C99.265,41.46,99.635,41.729,100.179,41.619L100.179,41.619z"/>
	<path fill="none" stroke="#0073B3" stroke-width="0.216" stroke-miterlimit="2.6131" d="M100.179,41.619
		c0.508-0.078,2.178-0.212,2.549-0.293c0.412-0.106,1.594-0.45,1.809-0.614c0.242-0.189,0.352-0.432,0.138-0.805
		c-0.19-0.348-0.545-1.233-1.753-1.206c-1.186,0-2.826,0.399-3.445,2.114C99.265,41.46,99.635,41.729,100.179,41.619"/>
	<path fill="#0073B3" d="M87.692,55.598c0.563,0.087,1.096,0.075,1.598,0.415c0.718,0.484,1.366,0.415,1.934,0.415
		c0.593-0.027,1.264-0.465,2.125,0.025c0.619,0.216,0.779,0.231,1.06-0.141c0.226-0.299,0.341-0.766-0.253-1.062
		c-0.563-0.268-0.952-0.297-1.718-0.438c-0.714-0.129-1.382,0.025-1.782-0.181c-0.624-0.348-2.154-0.568-2.745-0.326
		c-0.563,0.216-0.515,0.299-0.701,0.486C86.995,55.029,86.929,55.479,87.692,55.598L87.692,55.598z"/>
	<path fill="none" stroke="#0073B3" stroke-width="0.216" stroke-miterlimit="2.6131" d="M87.692,55.598
		c0.563,0.087,1.096,0.075,1.598,0.415c0.718,0.484,1.366,0.415,1.934,0.415c0.593-0.027,1.264-0.465,2.125,0.025
		c0.619,0.216,0.779,0.231,1.06-0.141c0.226-0.299,0.341-0.766-0.253-1.062c-0.563-0.268-0.952-0.297-1.718-0.438
		c-0.714-0.129-1.382,0.025-1.782-0.181c-0.624-0.348-2.154-0.568-2.745-0.326c-0.563,0.216-0.515,0.299-0.701,0.486
		C86.995,55.029,86.929,55.479,87.692,55.598"/>
	<path fill="#0073B3" d="M85.742,56.752c-0.326,0.431,0.089,0.678,0.508,0.749c0.72,0.125,1.592,0.228,2.297,0.629
		c0.72,0.426,1.528,0.56,2.206,0.53c0.695-0.054,1.282,0.126,2.04,0.193c0.805,0.066,1.42-0.025,1.66-0.374
		c0.245-0.35,0.093-0.994-0.473-1.29c-0.594-0.322-0.95-0.467-1.542-0.438c-0.591,0.027-0.757,0.359-1.158,0.416
		c-0.378,0.023-0.801,0.069-1.527-0.416c-0.784-0.536-1.847-0.75-2.549-0.667C86.8,56.109,86.067,56.32,85.742,56.752L85.742,56.752
		z"/>
	<path fill="none" stroke="#0073B3" stroke-width="0.216" stroke-miterlimit="2.6131" d="M85.742,56.752
		c-0.326,0.431,0.089,0.678,0.508,0.749c0.72,0.125,1.592,0.228,2.297,0.629c0.72,0.426,1.528,0.56,2.206,0.53
		c0.695-0.054,1.282,0.126,2.04,0.193c0.805,0.066,1.42-0.025,1.66-0.374c0.245-0.35,0.093-0.994-0.473-1.29
		c-0.594-0.322-0.95-0.467-1.542-0.438c-0.591,0.027-0.757,0.359-1.158,0.416c-0.378,0.023-0.801,0.069-1.527-0.416
		c-0.784-0.536-1.847-0.75-2.549-0.667C86.8,56.109,86.067,56.32,85.742,56.752"/>
	<path fill="#0073B3" d="M83.382,59.356c-0.193,0.513,0.118,1.083,0.837,1.111c0.533,0.018,0.871-0.228,1.245-0.335
		c0.351-0.079,1.077,0,1.562,0.373c0.486,0.38,1.756,1.048,2.75,1.048c0.511,0,1.664-0.019,2.687,0.759
		c0.324,0.243,1.324,1.202,2.32,0.419c0.733-0.577,0.533-0.99,0.373-1.558c-0.189-0.686-1.256-1.186-1.581-1.397
		c-0.461-0.323-1.274-0.51-2.453-0.184c-0.469,0.125-1.332,0.131-2.274-0.459c-0.971-0.62-1.297-0.832-1.888-0.992
		c-0.617-0.189-1.702-0.031-2.211,0.158C84.372,58.429,83.571,58.85,83.382,59.356L83.382,59.356z"/>
	<path fill="none" stroke="#0073B3" stroke-width="0.216" stroke-miterlimit="2.6131" d="M83.382,59.356
		c-0.193,0.513,0.118,1.083,0.837,1.111c0.533,0.018,0.871-0.228,1.245-0.335c0.351-0.079,1.077,0,1.562,0.373
		c0.486,0.38,1.756,1.048,2.75,1.048c0.511,0,1.664-0.019,2.687,0.759c0.324,0.243,1.324,1.202,2.32,0.419
		c0.733-0.577,0.533-0.99,0.373-1.558c-0.189-0.686-1.256-1.186-1.581-1.397c-0.461-0.323-1.274-0.51-2.453-0.184
		c-0.469,0.125-1.332,0.131-2.274-0.459c-0.971-0.62-1.297-0.832-1.888-0.992c-0.617-0.189-1.702-0.031-2.211,0.158
		C84.372,58.429,83.571,58.85,83.382,59.356"/>
	<path fill="#0073B3" d="M104.028,49.412c0.32,0,0.805-0.52,1.183,0.044c0.369,0.565,0.535,0.969,0.695,1.177
		c0.187,0.24,0.424,0.394,0.56,0.394c0.104,0,0.547-0.013,0.71,0.416c0.188,0.453,0.293,0.72,0.507,0.86
		c0.219,0.131,0.59,0.651,0.379,1.081c-0.189,0.45-0.195,0.811-0.188,1.247c0.021,1.15,1.048,1.281,1.37,1.173
		c0.429-0.164,1.046-0.864,1.151-1.158c0.133-0.322,0.271-1.148,0.215-1.475c-0.025-0.346-0.557-1.009-0.935-1.276
		c-0.35-0.241-0.34-0.453-0.389-1.193c-0.044-0.726-0.419-1.48-1.042-1.613c-0.615-0.133-0.822,0.004-0.898-0.693
		c-0.086-0.698-1.154-1.36-1.879-1.36c-0.755-0.031-1.552,0.006-2.222,1.023C102.787,48.758,103.222,49.466,104.028,49.412
		L104.028,49.412z"/>
	<path fill="none" stroke="#0073B3" stroke-width="0.216" stroke-miterlimit="2.6131" d="M104.028,49.412
		c0.32,0,0.805-0.52,1.183,0.044c0.369,0.565,0.535,0.969,0.695,1.177c0.187,0.24,0.424,0.394,0.56,0.394
		c0.104,0,0.547-0.013,0.71,0.416c0.188,0.453,0.293,0.72,0.507,0.86c0.219,0.131,0.59,0.651,0.379,1.081
		c-0.189,0.45-0.195,0.811-0.188,1.247c0.021,1.15,1.048,1.281,1.37,1.173c0.429-0.164,1.046-0.864,1.151-1.158
		c0.133-0.322,0.271-1.148,0.215-1.475c-0.025-0.346-0.557-1.009-0.935-1.276c-0.35-0.241-0.34-0.453-0.389-1.193
		c-0.044-0.726-0.419-1.48-1.042-1.613c-0.615-0.133-0.822,0.004-0.898-0.693c-0.086-0.698-1.154-1.36-1.879-1.36
		c-0.755-0.031-1.552,0.006-2.222,1.023C102.787,48.758,103.222,49.466,104.028,49.412"/>
	<path fill="#0073B3" d="M101.778,51.371c0,0.193,0.496,0.737,1.009,0.822c0.54,0.052,1.909,0.585,1.94,1.901
		c0,0.484-0.031,1.223,0.318,1.733c0.352,0.51,0.444,1.21,0.26,1.986c-0.061,0.268-0.371,0.994,0.11,1.75
		c0.3,0.471,1.799,0.59,2.065-0.344c0.295-0.913,0.468-2.998-0.047-3.715c-0.463-0.675-1.024-0.911-0.647-2.171
		c0.133-0.537-0.067-1.507-0.743-1.613c-0.863-0.162-1.139-0.535-1.402-1.085c-0.268-0.554-1.524-0.809-2.168-0.624
		C102.099,50.119,101.672,50.327,101.778,51.371L101.778,51.371z"/>
	<path fill="none" stroke="#0073B3" stroke-width="0.216" stroke-miterlimit="2.6131" d="M101.778,51.371
		c0,0.193,0.496,0.737,1.009,0.822c0.54,0.052,1.909,0.585,1.94,1.901c0,0.484-0.031,1.223,0.318,1.733
		c0.352,0.51,0.444,1.21,0.26,1.986c-0.061,0.268-0.371,0.994,0.11,1.75c0.3,0.471,1.799,0.59,2.065-0.344
		c0.295-0.913,0.468-2.998-0.047-3.715c-0.463-0.675-1.024-0.911-0.647-2.171c0.133-0.537-0.067-1.507-0.743-1.613
		c-0.863-0.162-1.139-0.535-1.402-1.085c-0.268-0.554-1.524-0.809-2.168-0.624C102.099,50.119,101.672,50.327,101.778,51.371"/>
	<path fill="#0073B3" d="M101.472,53.087c-0.515,0.269-0.725,0.76-0.779,1.077c-0.055,0.326,0.076,1.226,0.351,1.55
		c0.297,0.341,1.267,0.907,1.156,1.66c-0.027,0.35,0.186,0.878,0.581,1.175c0.212,0.163,0.359,0.703,0.037,1.375
		c-0.323,0.666-0.469,1.643-0.416,2.021c0.09,0.51,0.863,0.799,1.514,0.745c0.641-0.056,1.129-0.833,1.179-1.05
		c0.08-0.239,0.091-1.152-0.339-1.903c-0.404-0.724-0.734-0.994-0.354-1.715c0.398-0.749,0.33-2.226-0.231-2.586
		c-0.647-0.413-0.791-0.498-0.812-1.166c0-0.212-0.107-0.701-0.408-0.996C102.574,52.902,102.117,52.738,101.472,53.087
		L101.472,53.087z"/>
	<path fill="none" stroke="#0073B3" stroke-width="0.216" stroke-miterlimit="2.6131" d="M101.472,53.087
		c-0.515,0.269-0.725,0.76-0.779,1.077c-0.055,0.326,0.076,1.226,0.351,1.55c0.297,0.341,1.267,0.907,1.156,1.66
		c-0.027,0.35,0.186,0.878,0.581,1.175c0.212,0.163,0.359,0.703,0.037,1.375c-0.323,0.666-0.469,1.643-0.416,2.021
		c0.09,0.51,0.863,0.799,1.514,0.745c0.641-0.056,1.129-0.833,1.179-1.05c0.08-0.239,0.091-1.152-0.339-1.903
		c-0.404-0.724-0.734-0.994-0.354-1.715c0.398-0.749,0.33-2.226-0.231-2.586c-0.647-0.413-0.791-0.498-0.812-1.166
		c0-0.212-0.107-0.701-0.408-0.996C102.574,52.902,102.117,52.738,101.472,53.087"/>
	<path fill="none" stroke="#0073B3" stroke-width="1.0001" stroke-miterlimit="2.6131" d="M99.876,48.165
		c0.189,0.095,0.07,0.164,0.423,0.116c0.114-0.276,0.369-0.484,0.158-1.086c-0.063,0-0.274,0.214-0.274,0.214
		S100.202,47.796,99.876,48.165"/>
	<path fill="none" stroke="#F6DA26" stroke-width="0.216" stroke-miterlimit="2.6131" d="M99.876,48.165
		c0.189,0.095,0.07,0.164,0.423,0.116c0.114-0.276,0.369-0.484,0.158-1.086c-0.063,0-0.274,0.214-0.274,0.214
		S100.202,47.796,99.876,48.165"/>
	<path fill="none" stroke="#F6DA26" stroke-width="1.0001" stroke-miterlimit="2.6131" d="M99.876,48.165
		c0.189,0.095,0.07,0.164,0.423,0.116c0.114-0.276,0.369-0.484,0.158-1.086c-0.063,0-0.274,0.214-0.274,0.214
		S100.202,47.796,99.876,48.165"/>
	<path fill="none" stroke="#F6DA26" stroke-width="0.216" stroke-miterlimit="2.6131" d="M99.876,48.165
		c0.189,0.095,0.07,0.164,0.423,0.116c0.114-0.276,0.369-0.484,0.158-1.086c-0.063,0-0.274,0.214-0.274,0.214
		S100.202,47.796,99.876,48.165"/>
	<path fill="#F6DA26" d="M99.528,50.729c-0.324-0.234-0.694-0.216-1.018-0.044c-0.295,0.158-0.488,0.158-0.742,0.179
		c0.215,0.146,0.209,0.442,0.604,0.394c0.345-0.041,0.387,0.075,0.717,0.048C99.37,51.282,99.461,50.983,99.528,50.729
		L99.528,50.729z"/>
	<path fill="none" stroke="#F6DA26" stroke-width="0.216" stroke-miterlimit="2.6131" d="M99.528,50.729
		c-0.324-0.234-0.694-0.216-1.018-0.044c-0.295,0.158-0.488,0.158-0.742,0.179c0.215,0.146,0.209,0.442,0.604,0.394
		c0.345-0.041,0.387,0.075,0.717,0.048C99.37,51.282,99.461,50.983,99.528,50.729"/>
	<path fill="#F6DA26" d="M99.528,50.729c-0.324-0.234-0.694-0.216-1.018-0.044c-0.295,0.158-0.488,0.158-0.742,0.179
		c0.215,0.146,0.209,0.442,0.604,0.394c0.345-0.041,0.387,0.075,0.717,0.048C99.37,51.282,99.461,50.983,99.528,50.729
		L99.528,50.729z"/>
	<path fill="none" stroke="#F6DA26" stroke-width="0.216" stroke-miterlimit="2.6131" d="M99.528,50.729
		c-0.324-0.234-0.694-0.216-1.018-0.044c-0.295,0.158-0.488,0.158-0.742,0.179c0.215,0.146,0.209,0.442,0.604,0.394
		c0.345-0.041,0.387,0.075,0.717,0.048C99.37,51.282,99.461,50.983,99.528,50.729"/>
	<path fill="#FFFFFF" d="M79.495,73.1l-2.854,1.662v16.004h2.854c0,0,0-11.258,0-11.5c0-0.137,0.186-0.27,0.375-0.27
		c0.188,0,0.969,0,1.212,0c0.239,0,0.94,0.162,0.94,0.967v10.803h2.882c0,0,0-10.777,0-10.992c0-1.58-1.588-2.974-5.408-2.225
		L79.495,73.1L79.495,73.1z"/>
	<path fill="#FFFFFF" d="M89.585,90.766c0,0,0-12.974,0-13.188l-2.879-0.029v13.217H89.585L89.585,90.766z"/>
	<path fill="#FFFFFF" d="M88.157,72.778c-1.073,0-1.425,0.643-1.425,1.689c0,1.073,0.347,1.687,1.425,1.687
		c1.079,0,1.428-0.613,1.428-1.687C89.585,73.42,89.236,72.778,88.157,72.778L88.157,72.778z"/>
	<path fill="#FFFFFF" d="M114.159,90.766c0,0,0-12.974,0-13.19l-2.878-0.027v13.217H114.159L114.159,90.766z"/>
	<path fill="#FFFFFF" d="M109.554,88.433V77.549h-2.878c0,0,0,10.939,0,11.177c0,0.405-0.433,0.753-1.264,0.753
		c-0.808,0-1.265-0.348-1.265-0.753c0-0.238,0-11.177,0-11.177h-2.854v10.884c0,2.706,2.339,2.791,4.119,2.791
		C107.212,91.224,109.554,91.139,109.554,88.433L109.554,88.433z"/>
	<path fill="#FFFFFF" d="M119.028,73.318l-2.879,1.66v2.492h-1.266c-0.025,0-0.054,0.052-0.054,0.079v1.662
		c0,0.056,0.028,0.081,0.054,0.081h1.266v11.475h2.879V79.292h1.267c0.054,0,0.083-0.025,0.083-0.081v-1.662
		c0-0.027-0.029-0.079-0.083-0.079h-1.267V73.318L119.028,73.318z"/>
	<path fill="#FFFFFF" d="M126,87.495v-3.377c0-0.427-0.243-0.321-0.372-0.267c-0.434,0.21-0.975,0.401-1.429,0.614
		c-0.457,0.216-0.457,0.484-0.457,0.778v2.922c0,0.805,0.7,0.94,0.938,0.94c0.241,0,0.754,0,0.946,0c0.187,0,0.372-0.11,0.372-0.267
		L126,87.495l2.853-0.002v3.273c0,0-4.654,0-5.652,0c-1.021,0-2.395-0.27-2.395-2.814c0-0.216,0-2.092,0-2.092
		c0-1.878,0.809-2.145,1.801-2.573c0.998-0.431,2.719-1.152,3.021-1.256c0.291-0.11,0.399-0.435,0.399-0.913
		c0-0.458,0-1.129,0-1.554c0-0.969-0.832-0.888-1.209-0.888c-0.402,0-1.133-0.081-1.133,0.888c0,0.292,0,1.764,0,1.764h-2.854
		c0,0,0-0.965,0-1.175c0-2.2,1.158-3.005,2.797-3.06c0.357,0.002,0.812,0,1.023,0c0.244,0,0.975,0.029,1.347,0.054
		c1.806,0.135,2.854,0.83,2.854,3.028v7.317L126,87.495L126,87.495z"/>
	<path fill="#FFFFFF" d="M112.758,72.778c-1.075,0-1.397,0.643-1.397,1.689c0,1.073,0.322,1.687,1.397,1.687
		c1.104,0,1.429-0.613,1.429-1.687C114.187,73.42,113.862,72.778,112.758,72.778L112.758,72.778z"/>
	<path fill="#FFFFFF" d="M93.918,88.085c0,0.805,0.485,0.965,0.971,0.965c0.239,0,1.237,0,1.424,0c0.189,0,0.376-0.131,0.376-0.295
		c0-0.212,0-3.781,0-3.781v-2.035c0,0,0-3.513,0-3.733c0-0.158-0.187-0.291-0.373-0.291c-0.191,0.004-1.188,0-1.428,0
		c-0.406,0-0.971,0.164-0.971,0.969V83.1h-2.853c0-1.556,0-2.872,0-2.872c0-1.928,1.05-3.053,2.853-3.107
		c1.643-0.027,1.533-0.054,2.612,0c1.076,0.054,3.016-0.081,3.016,3.107v14.8l-2.856,1.664v-5.925c0,0-1.854,0.108-3.173,0
		c-1.212-0.081-2.451-0.27-2.451-2.814c0-0.083,0-3.376,0-4.853h2.853V88.085L93.918,88.085z"/>
	<path fill="#FFFFFF" d="M70.261,73.046c2.368,0,4.789,0.616,4.789,3.326v2.652h-2.878c0,0,0-2.171,0-2.383
		c0-1.156-0.216-1.799-1.911-1.799c-1.697,0-1.913,0.643-1.913,1.797v5.873c0,0,0,4.505,0,4.738
		c0.001,1.156,0.216,1.801,1.913,1.801c1.695,0,1.911-0.645,1.911-1.801v-1.203c0-0.243,0-1.501,0-1.501h2.878v3.275
		c0,2.704-2.42,3.318-4.789,3.318c-2.56,0-5.25-0.855-5.25-3.318V76.372C65.011,73.716,67.702,73.046,70.261,73.046L70.261,73.046z"
		/>
	<path fill="#008D43" d="M119.918,8.504H72.836c-3.743,0-6.802,3.063-6.802,6.803v11.656c7.5-6.435,17.624-9.674,30.347-9.674
		c12.718,0,22.845,3.237,30.345,9.672V15.307C126.726,11.567,123.663,8.504,119.918,8.504L119.918,8.504z"/>
	<path fill="#008D43" d="M126.646,120.051c-7.489,6.394-17.59,9.609-30.266,9.609c-12.723,0-22.846-3.236-30.347-9.672v57.454
		c0,3.744,3.059,6.81,6.802,6.81h47.082c3.745,0,6.809-3.063,6.809-6.81v-57.45h-0.006
		C126.699,120.013,126.674,120.031,126.646,120.051L126.646,120.051z"/>
	<path fill="#FFFFFF" d="M118.324,159.465l3.976-2.728l-4.451-1.838l3.316-3.491l-4.736-0.877l2.52-4.095l-4.812,0.121l1.609-4.533
		l-4.682,1.132l0.635-4.777l-4.348,2.08l-0.375-4.799l-3.814,2.928l-1.362-4.619l-3.127,3.668l-2.297-4.237l-2.293,4.237
		l-3.121-3.668l-1.367,4.619l-3.816-2.928l-0.376,4.795l-4.348-2.076l0.631,4.777l-4.674-1.132l1.612,4.533l-4.816-0.121
		l2.519,4.095l-4.737,0.877l3.32,3.491l-4.451,1.838l3.97,2.728l-3.97,2.726l4.451,1.834l-3.318,3.492l4.675,0.864
		c0.353-0.207,0.712-0.409,1.073-0.6c-1.109-2.55-1.733-5.361-1.733-8.316c0-11.471,9.301-20.772,20.77-20.772
		c11.477,0,20.773,9.303,20.773,20.772c0,2.955-0.621,5.769-1.735,8.316c0.364,0.188,0.722,0.393,1.077,0.6l4.675-0.864
		l-3.317-3.492l4.452-1.834L118.324,159.465L118.324,159.465z"/>
	<path fill="#FFFFFF" d="M96.373,172.166c-4.284,0-8.477,0.887-12.337,2.584c3.351,2.774,7.651,4.433,12.337,4.433
		c4.692,0,8.987-1.656,12.347-4.433C104.854,173.053,100.668,172.166,96.373,172.166L96.373,172.166z"/>
	<path fill="#FFFFFF" d="M115.97,159.401c0-10.85-8.828-19.676-19.676-19.676c-10.847,0-19.675,8.826-19.675,19.676
		c0,2.671,0.533,5.261,1.571,7.705c1.903-0.948,3.881-1.756,5.896-2.395c-0.729-1.678-1.108-3.461-1.108-5.311
		c0-7.342,5.975-13.312,13.315-13.312c7.349,0,13.319,5.97,13.319,13.312c0,1.85-0.377,3.633-1.107,5.313
		c2.014,0.636,3.989,1.441,5.887,2.392C115.437,164.662,115.97,162.072,115.97,159.401L115.97,159.401z"/>
	<path fill="#FFFFFF" d="M96.373,147.11c-6.809,0-12.349,5.541-12.349,12.354c0,1.738,0.346,3.4,1.06,4.992
		c0.042-0.013,0.436-0.117,0.676-0.188c-0.016-0.031-0.027-0.055-0.046-0.096c-0.693-1.521-1.033-3.115-1.033-4.781
		c0-6.447,5.252-11.69,11.694-11.69c6.448,0,11.694,5.243,11.694,11.69c0,1.666-0.342,3.256-1.032,4.777
		c-0.004,0.027-0.029,0.066-0.041,0.094c0.19,0.057,0.618,0.176,0.672,0.193c0.709-1.596,1.06-3.254,1.06-4.992
		C108.728,152.651,103.185,147.11,96.373,147.11L96.373,147.11z"/>
	<path fill="#FFFFFF" d="M99.938,163.897c0.011,0.15-0.004,0.31-0.054,0.445c-0.122,0.367-0.413,0.635-0.788,0.73
		c-0.395,0.104-0.845-0.002-1.144-0.266c-0.158-0.146-0.386-0.259-0.603-0.336c0.022,0.043,0.055,0.081,0.072,0.135
		c0.061,0.143,0.092,0.291,0.092,0.436s-0.025,0.275-0.078,0.41c-0.23,0.576-0.909,0.848-1.515,0.605
		c-0.189-0.074-0.352-0.193-0.477-0.345c-0.129-0.147-0.214-0.321-0.257-0.521l-0.012-0.047v-0.047
		c-0.003-0.113-0.005-0.246-0.293-0.692c-0.04-0.062-0.086-0.115-0.131-0.173c-0.004-0.008-0.014-0.01-0.018-0.021
		c-0.017-0.014-0.029-0.021-0.035-0.035c-0.141-0.129-0.333-0.217-0.724-0.356c-6.67,0.397-13.098,2.473-18.745,6.055
		c0.822,2.42,2.044,4.656,3.636,6.676c5.215-3.42,11.272-5.236,17.539-5.236c6.269,0,12.319,1.816,17.538,5.236
		c1.592-2.02,2.812-4.252,3.636-6.676C112.24,166.49,106.211,164.457,99.938,163.897L99.938,163.897z"/>
	<path fill="#FFFFFF" d="M96.334,180.19c-4.941,0-9.718-1.778-13.462-5.014c-0.081,0.039-0.309,0.152-0.493,0.229
		c3.864,3.403,8.811,5.288,13.955,5.288c5.146,0,10.088-1.885,13.953-5.288c-0.177-0.076-0.411-0.189-0.488-0.229
		C106.056,178.412,101.276,180.19,96.334,180.19L96.334,180.19z"/>
	<path fill="#FFFFFF" d="M101.038,153.535c0,0-0.081-0.074-0.105-0.099c-0.248-0.153-0.508-0.11-0.729,0.033
		c-0.048,0.012-0.048-0.037-0.036-0.07c0.084-0.422,0.55-0.434,0.662-0.387C101.028,153.088,101.092,153.295,101.038,153.535
		L101.038,153.535z M101.228,153.906c-0.271,0.188-0.817,0.225-1.267-0.013c-0.157,0.068-0.231,0.086-0.31,0.072
		c-0.074-0.01-0.082-0.029-0.088-0.076c-0.015-0.115-0.004-0.42,0.135-0.672c0.182-0.328,0.425-0.488,0.74-0.559
		c0.347-0.082,0.556-0.008,0.722,0.094C101.565,153.015,101.615,153.633,101.228,153.906L101.228,153.906z M102.866,159.301
		c0,0,0.281,0.117,0.406,0.134c0.289,0.069,0.599-0.08,0.719-0.369c0.125-0.318-0.031-0.674-0.348-0.808
		c-0.281-0.106-0.598-0.002-0.752,0.246c-0.197,0.231-0.94,0.537-1.305,0.322c-0.111-0.257,0.145-0.402,0.385-0.558
		c0.362-0.229,0.441-0.563,0.16-0.824c-0.087-0.09-0.271-0.163-0.406-0.139c-0.231,0.037-0.388,0.238-0.424,0.479
		c-0.031,0.248-0.17,0.807-0.861,0.875c-0.521,0.055-0.699,0.146-0.717-0.185c-0.007-0.344,0.049-0.697,0.188-1.047
		c0.287-0.691,0.633-0.928,1.125-1.393l0.95-0.746c0.311-0.303,0.701-0.469,0.9-0.904c0.086-0.176,0.152-0.486,0.061-0.68
		c0.228-0.27,0.492-0.721,0.521-0.936c0.079-0.463-0.044-0.979-0.496-1.093c-0.025-0.012-0.07-0.03-0.07-0.03
		c-0.455-0.166-0.891-0.043-1.342-0.215c-0.68-0.269-0.777-0.837-1.664-0.935c-0.629-0.062-1.014,0.313-1.357,0.826
		c-0.143,0.209-0.253,0.424-0.466,0.557c-0.407,0.269-0.951,0.306-1.394,0.371c-1.3,0.172-2.051,0.722-2.626,1.228
		c-0.316,0.28-1.762,1.721-2.125,1.994c-0.427-0.037-0.754-0.269-0.591-0.845c0.199-0.758,0.805-0.813,1.071-0.776
		c0.633,0.09,0.743-0.431,0.743-0.431c0.069-0.18,0.01-0.475-0.309-0.619c-0.484-0.215-0.697,0.242-0.763,0.302
		c-0.042,0.045-0.272,0.487-0.627,0.43c-0.101-0.135-0.185-0.426-0.031-0.781c0.401-0.922,0.757-1.035,0.892-1.484
		c0.081-0.278-0.025-0.635-0.363-0.737c-0.331-0.111-0.683,0.067-0.792,0.409c-0.112,0.287-0.062,1.074-0.293,1.779
		c-0.091,0.266-0.295,0.975-0.546,0.637c-0.152-0.207-0.183-0.395-0.174-0.621c0.016-0.219-0.067-0.438-0.301-0.536
		c-0.301-0.132-0.654,0.026-0.766,0.321c-0.108,0.269-0.014,0.533,0.16,0.662c0.229,0.211,0.614,0.027,0.77,0.57
		c0.114,0.398,0.168,0.695-0.075,1.34c-0.326,0.881-0.338,1.83-0.02,2.262c0.388,0.539,0.795,0.47,0.795,0.47
		c-0.191,0.637-0.29,1.104,0.558,1.752c0.143,0.106,0.812,0.448,1.148,0.457c-0.286,0.762-0.958,0.356-1.226,1.09
		c-0.371,1.021,1.471,1.562,2.426,1.899c1.143,0.404,1.434,0.488,1.771,1.008c0.299,0.449,0.359,0.677,0.363,0.916
		c0.041,0.191,0.178,0.365,0.388,0.447c0.316,0.131,0.672-0.004,0.786-0.293c0.113-0.293-0.049-0.635-0.363-0.762
		c-0.343-0.139-0.386-0.262-0.318-0.5c0.392-0.285,1.467,0,1.978,0.457c0.28,0.256,0.863,0.232,1.023-0.227
		c0.072-0.213,0.012-0.553-0.378-0.709c-0.318-0.137-0.612,0.045-0.875,0.045c-0.528,0-1.001-0.254-1.212-0.449
		c0.006-0.037,0.065-0.422,0.648-0.367c0.298,0.023,0.568-0.152,0.61-0.49c0.025-0.166-0.059-0.342-0.312-0.44
		c-0.209-0.084-0.445-0.015-0.572,0.163c-0.157,0.144-0.17,0.328-0.491,0.494c-0.309,0.156-0.454,0.189-0.788,0.16
		c-0.139-0.014-0.534-0.117-0.683-0.307c-0.083-0.102-0.086-0.27-0.086-0.27c-0.07,0.01,1.586-0.326,1.987-0.867
		c0.539-0.717,0.033-1.166-0.648-1.469c0.565-0.261,1.442-0.888,1.765-1.365c0.077,0.033,0.175,0.498,0.214,0.647l0.073,0.796
		c0.215,0.688,0.967,0.104,1.635,0.184c0.595,0.082,0.747,0.168,1.083,0.467c0.182,0.16,0.27,0.467,0.449,0.703
		c0.093,0.139,0.238,0.229,0.413,0.242c0.296,0.022,0.549-0.199,0.569-0.49c0.016-0.248-0.131-0.465-0.35-0.543
		c-0.464-0.104-0.99-0.418-0.553-0.697C102.194,159.231,102.708,159.262,102.866,159.301L102.866,159.301z"/>
	<path fill="#FFFFFF" d="M88.462,154.084h0.002l0.009-0.117l-0.004-0.004h-0.457l-0.002,0.009l-0.006,0.112h0.148
		c0,0.24,0,0.299-0.002,0.524l0.002,0.007c0.068,0,0.091,0,0.165,0l0.005-0.013c-0.005-0.129-0.005-0.25-0.005-0.385
		c0-0.049,0-0.074,0-0.135L88.462,154.084L88.462,154.084z"/>
	<path fill="#FFFFFF" d="M89.284,153.967c0,0.06,0,0.064,0.009,0.152c0.002,0.059,0.002,0.114,0.006,0.172
		c0.001,0.104,0.011,0.211,0.017,0.313l-0.005,0.011c-0.071,0-0.099,0-0.158,0l-0.004-0.007v-0.223l-0.004-0.135v-0.168l-0.05,0.195
		l-0.038,0.133l-0.052,0.193L89,154.615c-0.066,0-0.083,0-0.141,0l-0.004-0.007l-0.06-0.233l-0.032-0.131l-0.044-0.164l-0.002,0.174
		l-0.006,0.179l-0.003,0.174l-0.004,0.01c-0.052,0-0.07,0-0.129,0l-0.002-0.006c0.018-0.297,0.021-0.363,0.029-0.639l0.006-0.009
		c0.104,0,0.12,0,0.22,0l0.002,0.004l0.048,0.179l0.021,0.104l0.042,0.162l0.046-0.16l0.035-0.133l0.039-0.147l0.008-0.009
		c0.101,0,0.12,0,0.214,0L89.284,153.967L89.284,153.967z"/>
	<path fill="#008D43" d="M79.008,157.231c0.023-0.168,0.071-0.508,0.456-0.457c0.177,0.023,0.297,0.104,0.357,0.238
		c0.035,0.072,0.042,0.148,0.042,0.232c0,0.086-0.008,0.164-0.019,0.271c0,0,0,0.014,0,0.018c-0.012,0-0.813-0.107-0.857-0.125
		C78.991,157.381,79.008,157.231,79.008,157.231L79.008,157.231z M78.751,156.34c-0.141,0.201-0.178,0.414-0.235,0.922l-0.037,0.298
		l-0.071,0.518l0.029,0.006l1.998,0.24l0.939,0.141l0.004-0.029l0.002-0.035l0.081-0.647l0.004-0.024l-0.029-0.009
		c0,0-1.081-0.104-1.131-0.104c0-0.012,0.004-0.021,0.004-0.021l0.018-0.233c0.517-0.195,0.65-0.242,1.247-0.439
		c0.01-0.006,0.029-0.033,0.029-0.033c0.005-0.024,0.025-0.383,0.025-0.383l0.054-0.422l-0.054,0.02l-0.803,0.398
		c0,0-0.458,0.191-0.572,0.242c-0.006-0.002-0.006-0.012-0.006-0.012c-0.05-0.188-0.173-0.603-0.708-0.672
		C79.381,156.033,78.981,156.015,78.751,156.34L78.751,156.34z"/>
	<path fill="#008D43" d="M80.778,154.672l-0.625-0.428c0,0-0.316-0.224-0.467-0.332c0.143,0.016,0.62,0.06,0.62,0.06
		s0.562,0.051,0.703,0.061c-0.016,0.053-0.201,0.598-0.22,0.648C80.78,154.681,80.778,154.672,80.778,154.672L80.778,154.672z
		 M79.458,153.291l-0.282,0.896l0.019,0.021c0.649,0.463,1.027,0.74,2.461,1.848l0.029,0.019l0.209-0.644l-0.02-0.02
		c0,0-0.641-0.422-0.67-0.441c0.016-0.037,0.286-0.863,0.299-0.897c0.035,0.004,0.826,0.077,0.826,0.077l0.015-0.022l0.002-0.021
		l0.216-0.683l-0.035-0.004l-0.585-0.021l-2.472-0.133L79.458,153.291L79.458,153.291z"/>
	<path fill="#008D43" d="M80.442,151.088l-0.332,0.687l0.031,0.016c0.396,0.166,0.604,0.252,1.573,0.742l1.077,0.564l0.333-0.697
		l-0.025-0.012l-1.073-0.505l-1.577-0.813L80.442,151.088L80.442,151.088z"/>
	<path fill="#008D43" d="M82.405,148.06l-0.324,0.471l0.021,0.012l0.471,0.303l0.49,0.322c0,0,0.513,0.346,0.625,0.43
		c-0.139-0.006-0.724-0.039-0.724-0.039l-0.683-0.012l-0.371-0.014l-0.535-0.023l-0.021,0.018l-0.39,0.576l1.432,0.98l0.676,0.486
		l0.34,0.246l0.017-0.021l0.342-0.504l-0.793-0.512l-0.44-0.291c0,0-0.361-0.232-0.523-0.338c0.156,0.008,1.081,0.045,1.081,0.045
		l0.834,0.02l0.608,0.008l0.021-0.018l0.309-0.455l-1.272-0.893l-1.167-0.84L82.405,148.06L82.405,148.06z"/>
	<path fill="#008D43" d="M84.517,145.879l-1.311,1.293l0.023,0.021c0.292,0.266,0.542,0.494,1.071,1.033l1.021,1.063l0.539-0.547
		l-0.02-0.017c0,0-0.835-0.793-0.87-0.83c0.006,0,0.685-0.672,0.685-0.672l-0.017-0.018l-0.317-0.375c0,0-0.656,0.689-0.688,0.715
		c-0.033-0.025-0.489-0.494-0.518-0.529c0.033-0.031,0.77-0.729,0.77-0.729l-0.017-0.027l-0.336-0.402L84.517,145.879
		L84.517,145.879z"/>
	<path fill="#008D43" d="M86.503,146.172c-0.191-0.282-0.286-0.516-0.286-0.717c0-0.08,0.014-0.154,0.045-0.226
		c0.046-0.104,0.12-0.188,0.212-0.256c0.131-0.086,0.305-0.113,0.465-0.072c0.139,0.041,0.251,0.138,0.326,0.209l0.276,0.326
		c0.241,0.332,0.363,0.601,0.363,0.824c0,0.031-0.003,0.064-0.008,0.092c-0.021,0.135-0.104,0.256-0.245,0.353
		c-0.129,0.088-0.27,0.127-0.413,0.101C86.933,146.74,86.675,146.42,86.503,146.172L86.503,146.172z M86.991,144.272
		c-0.251,0.017-0.533,0.111-0.788,0.285c-0.243,0.164-0.417,0.354-0.524,0.568c-0.255,0.533-0.056,0.982,0.021,1.154
		c-0.004-0.002-0.004-0.002,0.208,0.377c0.303,0.443,0.637,0.68,1.031,0.742c0.429,0.062,0.809-0.137,0.996-0.267
		c0.21-0.149,0.482-0.396,0.587-0.746c0.156-0.563-0.167-1.127-0.311-1.338c-0.394-0.575-0.76-0.682-0.876-0.723
		C87.215,144.291,87.099,144.271,86.991,144.272L86.991,144.272z"/>
	<path fill="#008D43" d="M89.174,143.502c0.101-0.043,0.272-0.119,0.423-0.062c0.085,0.031,0.152,0.104,0.199,0.213
		c0.073,0.162,0.066,0.309-0.021,0.432c-0.083,0.123-0.228,0.197-0.409,0.285c0,0-0.014,0.004-0.018,0.008
		c-0.006-0.008-0.008-0.021-0.008-0.021s-0.32-0.727-0.339-0.77C89.035,143.569,89.174,143.502,89.174,143.502L89.174,143.502z
		 M88.885,143.103l-0.267,0.121c-0.006,0-0.454,0.2-0.465,0.2l-0.016,0.013l0.854,1.856l0.367,0.871l0.027-0.006l0.039-0.019
		l0.614-0.287l-0.011-0.024c0,0-0.475-0.974-0.496-1.021c0.003-0.004,0.017-0.004,0.017-0.004l0.21-0.104
		c0.448,0.338,0.571,0.439,1.021,0.824l0.02,0.01l0.029-0.008l0.336-0.17l0.384-0.183l-0.042-0.03l-0.754-0.482
		c0,0-0.407-0.279-0.51-0.357c0.002-0.002,0.01-0.008,0.01-0.008c0.102-0.109,0.284-0.311,0.284-0.605
		c0-0.112-0.029-0.229-0.081-0.348c-0.066-0.15-0.263-0.502-0.661-0.523C89.55,142.806,89.352,142.887,88.885,143.103
		L88.885,143.103z"/>
	<path fill="#008D43" d="M92.996,141.771l-1.805,0.447l0.006,0.029c0.12,0.371,0.173,0.547,0.438,1.637l0.263,1.158l0.016,0.061
		l0.023-0.012l1.812-0.439v-0.03l-0.093-0.498l-0.029,0.002c0,0-1.078,0.289-1.122,0.306c0-0.011-0.002-0.017-0.002-0.017
		s-0.164-0.615-0.191-0.738c0.046-0.008,0.988-0.241,0.988-0.241v-0.029l-0.089-0.465l-0.023,0.004c0,0-0.944,0.25-0.993,0.266
		c-0.01-0.049-0.156-0.643-0.172-0.691c0.051-0.008,1.085-0.248,1.085-0.248l-0.002-0.024l-0.087-0.478L92.996,141.771
		L92.996,141.771z"/>
	<path fill="#008D43" d="M95.022,141.465c-0.37,0.033-0.637,0.146-0.803,0.345c-0.189,0.219-0.201,0.485-0.183,0.631
		c0.035,0.5,0.424,0.647,0.677,0.748l0.155,0.059c0.27,0.084,0.544,0.178,0.567,0.428c0.006,0.078-0.025,0.164-0.083,0.23
		c-0.06,0.068-0.18,0.158-0.417,0.178c-0.389,0.025-0.623-0.125-0.733-0.203l-0.044-0.027l0.025,0.623l0.029,0.019l0.033,0.01
		l0.093,0.027c0.095,0.022,0.35,0.081,0.672,0.053c0.16-0.013,0.459-0.056,0.689-0.187c0.285-0.17,0.44-0.444,0.44-0.793
		l-0.008-0.088c-0.019-0.27-0.152-0.504-0.363-0.643l-0.332-0.148c-0.007-0.004-0.12-0.039-0.12-0.039
		c-0.384-0.125-0.573-0.188-0.583-0.385c-0.006-0.082,0.021-0.148,0.065-0.203c0.054-0.061,0.15-0.135,0.328-0.141
		c0.32-0.027,0.521,0.084,0.671,0.168l0.039,0.023l-0.012-0.578l-0.031-0.021l-0.025-0.012
		C95.599,141.492,95.406,141.442,95.022,141.465L95.022,141.465z"/>
	<path fill="#008D43" d="M96.568,141.498l-0.058,0.515h0.023c0,0,0.646,0.021,0.688,0.021c0,0.004,0,0.014,0,0.014l-0.171,2.441
		l0.028,0.004c0.033,0,0.045,0,0.049-0.011c-0.02,0.011,0.674,0.035,0.674,0.035h0.024v-0.028l0.075-1.771l0.045-0.61
		c0,0,0.002-0.021,0.002-0.041c0.051,0.004,0.687,0.057,0.687,0.057l0.06-0.533l-2.118-0.123L96.568,141.498L96.568,141.498z"/>
	<path fill="#008D43" d="M102.472,142.988c-0.021,0.137-0.096,0.614-0.096,0.614s-0.077,0.556-0.102,0.697
		c-0.006-0.004-0.58-0.232-0.637-0.254c0.038-0.051,0.475-0.607,0.475-0.607C102.11,143.442,102.121,143.428,102.472,142.988
		L102.472,142.988z M102.206,142.479c-0.471,0.588-0.751,0.926-1.986,2.352l-0.021,0.031l0.628,0.248l0.021-0.021
		c0,0,0.457-0.613,0.476-0.639c0.038,0.006,0.847,0.33,0.878,0.348c-0.002,0.037-0.12,0.816-0.12,0.816l0.028,0.014l0.687,0.258
		l0.065-0.623l0.271-2.447l-0.024-0.02l-0.875-0.336L102.206,142.479L102.206,142.479z"/>
	<path fill="#008D43" d="M104.468,143.403l-0.443,0.826l-1,1.763l0.019,0.012l1.429,0.802l0.018-0.021l0.289-0.441l-0.769-0.407
		c0,0-0.063-0.027-0.089-0.047c0.008-0.009,0.012-0.011,0.012-0.011c0.524-0.948,0.678-1.217,1.219-2.103l0.016-0.022l-0.689-0.371
		L104.468,143.403L104.468,143.403z"/>
	<path fill="#008D43" d="M106.528,144.629l-0.543,0.763l-1.229,1.61l0.021,0.013l1.257,0.938l0.058,0.043l0.365-0.422l-0.716-0.494
		c0,0-0.054-0.047-0.077-0.063c0.002-0.007,0.007-0.013,0.007-0.013c0.649-0.862,0.828-1.106,1.488-1.916l0.016-0.019l-0.024-0.02
		l-0.601-0.438L106.528,144.629L106.528,144.629z"/>
	<polygon fill="#008D43" points="108.467,146.185 107.257,147.433 106.377,148.274 106.937,148.813 106.956,148.795 
		107.776,147.935 109.048,146.694 108.485,146.158 	"/>
	<path fill="#008D43" d="M110.153,148.531c-0.084,0.116-0.394,0.489-0.394,0.489s-0.34,0.445-0.43,0.554
		c-0.005-0.007-0.392-0.492-0.431-0.537c0.059-0.021,0.715-0.285,0.715-0.285S109.633,148.75,110.153,148.531L110.153,148.531z
		 M110.179,147.963c-0.714,0.274-1.131,0.437-2.893,1.054l-0.035,0.014l0.423,0.527l0.031-0.007c0,0,0.696-0.307,0.735-0.319
		c0.018,0.033,0.562,0.703,0.584,0.74c-0.021,0.024-0.512,0.649-0.512,0.649l0.008,0.021l0.474,0.569l0.021-0.026l0.353-0.492
		l1.444-1.986l-0.013-0.021l-0.597-0.725L110.179,147.963L110.179,147.963z"/>
	<path fill="#008D43" d="M111.726,150.043c0,0-1.496,0.815-1.5,0.815l-0.752,0.382l-0.369,0.192l0.306,0.549l0.815-0.471l0.461-0.25
		c0,0,0.371-0.215,0.541-0.313c-0.082,0.135-0.539,0.94-0.539,0.94l-0.355,0.664l-0.32,0.602l0.006,0.029l0.267,0.482l0.021-0.01
		l0.359-0.195l0.988-0.518l1.279-0.656l-0.019-0.039l-0.278-0.504l-0.023,0.006l-0.479,0.289l-0.516,0.287
		c0,0-0.537,0.293-0.66,0.369c0.069-0.131,0.358-0.631,0.358-0.631c0-0.004,0.326-0.604,0.326-0.604
		c0-0.006,0.172-0.317,0.172-0.317l0.271-0.48l-0.01-0.021l-0.332-0.608L111.726,150.043L111.726,150.043z"/>
	<path fill="#008D43" d="M111.808,153.556c-0.527,0.159-1.104,0.606-1.104,1.358c0,0.172,0.028,0.354,0.091,0.537
		c0.105,0.346,0.27,0.549,0.346,0.643l0.008,0.017l0.024-0.004l0.608-0.154l-0.039-0.031c-0.194-0.141-0.322-0.318-0.391-0.549
		l-0.045-0.262c0-0.383,0.278-0.693,0.738-0.83c0.152-0.049,0.548-0.141,0.857,0.027c0.175,0.088,0.296,0.252,0.363,0.473
		l0.049,0.299c0,0.148-0.032,0.25-0.062,0.318l-0.012,0.041l0.58-0.138l0.009-0.026l0.008-0.164c0-0.213-0.026-0.41-0.091-0.607
		c-0.128-0.418-0.35-0.715-0.672-0.883C112.728,153.438,112.274,153.406,111.808,153.556L111.808,153.556z"/>
	<path fill="#008D43" d="M114.06,156.181c-0.389,0.073-0.547,0.102-1.681,0.243l-1.173,0.119l-0.047,0.013h-0.024l0.229,1.877
		l0.029,0.002l0.515-0.027l-0.007-0.031c0,0-0.161-1.104-0.17-1.15c0.004,0,0.015,0,0.015,0s0.635-0.088,0.755-0.104
		c0.008,0.047,0.123,1.014,0.123,1.014h0.029l0.474-0.03c0,0-0.136-0.992-0.146-1.041c0.049-0.006,0.658-0.084,0.703-0.084
		c0.008,0.049,0.125,1.104,0.125,1.104h0.021l0.487-0.031l-0.006-0.03c-0.01-0.035-0.222-1.797-0.226-1.812l-0.002-0.029H114.06
		L114.06,156.181z"/>
	<path fill="#008D43" d="M79.514,160.033l0.047-0.074L79.635,160c0.535,0.308,0.906,0.795,1.054,1.396
		c0.152,0.59,0.048,1.203-0.284,1.721l-0.044,0.076l-0.071-0.041c-0.537-0.308-0.909-0.803-1.058-1.396
		C79.083,161.162,79.184,160.551,79.514,160.033L79.514,160.033z"/>
	<path fill="#008D43" d="M78.003,163.461l-0.02-0.084l0.075-0.022c0.583-0.203,1.207-0.162,1.75,0.117
		c0.544,0.274,0.94,0.75,1.116,1.342l0.023,0.082l-0.075,0.021c-0.583,0.207-1.203,0.166-1.747-0.106
		C78.576,164.528,78.18,164.047,78.003,163.461L78.003,163.461z"/>
	<path fill="#008D43" d="M82.38,161.944l0.08-0.02l0.033,0.08c0.203,0.578,0.164,1.197-0.118,1.744
		c-0.278,0.547-0.755,0.939-1.342,1.117l-0.085,0.027l-0.029-0.082c-0.205-0.584-0.158-1.203,0.116-1.748
		C81.312,162.521,81.79,162.125,82.38,161.944L82.38,161.944z"/>
	<path fill="#008D43" d="M113.097,160.033l-0.05-0.074L112.974,160c-0.533,0.308-0.912,0.795-1.06,1.396
		c-0.146,0.59-0.046,1.203,0.282,1.721l0.041,0.076l0.076-0.041c0.537-0.308,0.912-0.803,1.06-1.396
		C113.519,161.162,113.424,160.551,113.097,160.033L113.097,160.033z"/>
	<path fill="#008D43" d="M114.601,163.461l0.023-0.084l-0.079-0.022c-0.583-0.203-1.198-0.162-1.747,0.117
		c-0.546,0.274-0.943,0.75-1.121,1.342l-0.023,0.082l0.084,0.021c0.576,0.207,1.195,0.166,1.742-0.106
		C114.024,164.528,114.422,164.047,114.601,163.461L114.601,163.461z"/>
	<path fill="#008D43" d="M110.226,161.944l-0.078-0.02l-0.031,0.08c-0.204,0.578-0.158,1.197,0.115,1.744
		c0.278,0.547,0.754,0.939,1.343,1.117l0.079,0.027l0.027-0.082c0.209-0.584,0.166-1.203-0.109-1.748
		C111.293,162.521,110.813,162.125,110.226,161.944L110.226,161.944z"/>
	<path fill="#008D43" d="M89.867,174.147l-0.413,1.117l-0.336,0.836l-0.035,0.084l0.005,0.056l0.006,0.014
		c0.018,0.021,0.342,0.146,0.342,0.146l0.93,0.354l0.056-0.031l0.048-0.086l0.076-0.164l-0.012-0.059l-0.006-0.012
		c-0.021-0.023-0.847-0.326-0.899-0.346c0.02-0.015,0.041-0.06,0.041-0.06s0.208-0.537,0.21-0.549
		c0.006,0.036,0.751,0.338,0.751,0.338l0.023,0.01l0.044-0.037l0.035-0.051l0.093-0.203l-0.011-0.057l-0.002-0.015
		c-0.023-0.022-0.143-0.065-0.143-0.065s-0.674-0.257-0.685-0.261c0.031-0.004,0.22-0.471,0.22-0.471s0.006-0.014,0.016-0.033
		c0.009,0.015,0.033,0.027,0.033,0.027l0.811,0.332l0.042-0.039l0.131-0.254l-0.01-0.062l-0.004-0.014
		c-0.021-0.018-1.06-0.412-1.06-0.412l-0.245-0.092L89.867,174.147L89.867,174.147z"/>
	<path fill="#008D43" d="M91.633,174.981c-0.089,0.078-0.161,0.195-0.193,0.324c0,0.004-0.023,0.172-0.023,0.172
		c0,0.299,0.224,0.48,0.386,0.615l0.141,0.113c0.146,0.098,0.267,0.193,0.267,0.328l-0.012,0.066
		c-0.046,0.176-0.212,0.248-0.454,0.184c-0.249-0.064-0.38-0.211-0.444-0.285l-0.013-0.012l-0.05-0.019l-0.048,0.013
		c-0.029,0.018-0.058,0.11-0.058,0.11l-0.075,0.218l0.019,0.055c0.166,0.15,0.363,0.25,0.596,0.309
		c0.271,0.072,0.515,0.051,0.701-0.062c0.156-0.094,0.268-0.245,0.312-0.426c0.108-0.422-0.181-0.647-0.376-0.801l-0.135-0.104
		l-0.199-0.166c-0.062-0.066-0.097-0.127-0.077-0.217l0.092-0.133c0.082-0.039,0.191-0.05,0.315-0.019
		c0.218,0.055,0.328,0.157,0.438,0.252c0.039,0.019,0.097,0.004,0.097,0.004c0.021-0.021,0.046-0.074,0.046-0.074l0.08-0.245
		l-0.027-0.06c-0.156-0.104-0.299-0.19-0.548-0.256C92.167,174.812,91.865,174.791,91.633,174.981L91.633,174.981z"/>
	<path fill="#008D43" d="M93.248,175.203l-0.05,0.244l0.033,0.057l0.001,0.015c0.027,0.012,0.591,0.075,0.591,0.075
		c-0.037,0.019-0.104,0.548-0.104,0.548l-0.199,1.305l0.027,0.062c0.027,0.021,0.409,0.062,0.409,0.062h0.021l0.041-0.045
		c0.01-0.012,0.018-0.024,0.168-1.301c0,0,0.083-0.586,0.091-0.6c0.002,0.031,0.512,0.107,0.512,0.107l0.032,0.01l0.035-0.055
		l0.056-0.25c-0.012-0.045-0.027-0.08-0.027-0.08c-0.022-0.017-0.75-0.109-0.75-0.109l-0.847-0.111L93.248,175.203L93.248,175.203z"
		/>
	<path fill="#008D43" d="M96.258,175.537l-0.023,0.002l-0.037,0.055l-0.019,0.263l0.023,0.033l0.041,0.028
		c0.025,0.002,0.291-0.058,0.301-0.062c-0.023,0.009-0.027,0.156-0.027,0.259c0,0.051,0.003,0.092,0.003,0.092l0.004,0.229
		l0.017,1.217l0.035,0.047l0.006,0.016c0.031,0.006,0.378-0.016,0.378-0.016h0.038l0.033-0.066l-0.044-0.941l-0.004-1.174v-0.028
		l-0.066-0.052C96.909,175.438,96.896,175.437,96.258,175.537L96.258,175.537z"/>
	<path fill="#008D43" d="M98.19,176.369c-0.072-0.058-0.117-0.146-0.137-0.256c-0.006-0.113,0.014-0.22,0.073-0.294
		c0.054-0.067,0.133-0.112,0.228-0.129c0.302-0.037,0.422,0.242,0.446,0.39c0,0.01,0,0.01,0,0.01c0,0.023,0.003,0.045,0.011,0.062
		c-0.008,0.015-0.018,0.015-0.025,0.046c-0.062,0.125-0.186,0.209-0.338,0.229C98.347,176.437,98.257,176.418,98.19,176.369
		L98.19,176.369z M97.759,175.615c-0.095,0.133-0.152,0.291-0.152,0.463l0.013,0.119c0.022,0.202,0.116,0.372,0.269,0.487
		c0.146,0.107,0.34,0.158,0.547,0.135c0.174-0.026,0.319-0.116,0.426-0.225c0,0.066,0,0.164,0,0.164
		c-0.018,0.121-0.057,0.293-0.225,0.408l-0.248,0.09c-0.201,0.025-0.332-0.049-0.383-0.076l-0.025-0.008l-0.049,0.018l-0.035,0.019
		c-0.008,0.037,0.016,0.299,0.016,0.299v0.025l0.053,0.051l0.021,0.002l0.486,0.026c0.278-0.034,0.49-0.151,0.649-0.36
		c0.176-0.233,0.2-0.478,0.21-0.688l-0.025-0.289c-0.027-0.217-0.095-0.498-0.252-0.689c-0.084-0.1-0.203-0.186-0.332-0.232
		l-0.402-0.03C98.075,175.351,97.89,175.447,97.759,175.615L97.759,175.615z"/>
	<path fill="#008D43" d="M100.378,176.457c0-0.154,0.105-0.276,0.292-0.328c0.108-0.026,0.21-0.017,0.287,0.024
		c0.073,0.05,0.131,0.119,0.153,0.216c0.027,0.088,0.017,0.178-0.031,0.25c-0.041,0.078-0.126,0.141-0.241,0.166
		c-0.226,0.059-0.394-0.021-0.448-0.226L100.378,176.457L100.378,176.457z M100.304,175.765l-0.104-0.146l-0.009-0.066
		c0-0.133,0.096-0.229,0.256-0.27c0.186-0.055,0.322,0.029,0.367,0.148l-0.019,0.196c-0.037,0.08-0.11,0.131-0.216,0.158
		C100.469,175.812,100.372,175.81,100.304,175.765L100.304,175.765z M100.358,174.92c-0.266,0.067-0.401,0.185-0.474,0.271
		c-0.095,0.104-0.145,0.24-0.145,0.377l0.026,0.143c0.047,0.186,0.17,0.305,0.346,0.365c-0.127,0.117-0.194,0.252-0.194,0.424
		l0.021,0.182c0.051,0.172,0.16,0.322,0.31,0.41c0.179,0.105,0.411,0.119,0.67,0.051c0.241-0.057,0.423-0.174,0.534-0.317
		c0.048-0.062,0.135-0.211,0.135-0.396l-0.023-0.181c-0.039-0.14-0.112-0.271-0.222-0.351c0,0-0.187-0.065-0.248-0.088
		c0.097-0.11,0.167-0.219,0.167-0.346l-0.023-0.152C101.16,175.021,100.86,174.785,100.358,174.92L100.358,174.92z"/>
	<path fill="#008D43" d="M102.866,174.067l-1.405,0.566l-0.01,0.072l0.073,0.246l0.041,0.035l0.021,0.002
		c0.026,0.008,1.015-0.402,1.015-0.402c-0.052,0.02-0.052,0.146-0.052,0.146l-0.059,1.785c0.015,0.051,0.059,0.082,0.059,0.082
		c0.035,0,0.4-0.152,0.4-0.152l0.024-0.014l0.024-0.05l-0.004-0.122c-0.06-0.55-0.036-1.554-0.024-2.091v-0.016l-0.021-0.062
		l-0.046-0.045L102.866,174.067L102.866,174.067z"/>
	<path fill="#008D43" d="M83.467,171.174l0.349,0.857l-0.015,0.047c-0.146,0.157-0.398,0.426-0.876,0.647
		c-1.378,0.637-2.48-0.008-2.982-1.094c-0.463-0.994-0.479-2.355,0.986-3.035c0.5-0.234,0.901-0.258,1.143-0.279l0.037,0.021
		l0.311,0.803l-0.047,0.035c-0.193-0.043-0.503-0.096-0.924,0.1c-0.92,0.427-0.695,1.357-0.469,1.841
		c0.376,0.807,1.048,1.077,1.691,0.778c0.475-0.219,0.66-0.565,0.743-0.729L83.467,171.174L83.467,171.174z"/>
	<path fill="#008D43" d="M87.331,170.192l0.191,0.736l-0.037,0.055l-2.611,0.834l-0.037-0.012c-0.185-0.629-0.286-1.006-0.527-1.756
		c-0.511-1.594-0.596-1.807-0.816-2.371l0.023-0.045l2.605-0.832l0.039,0.008l0.176,0.705l-0.014,0.047
		c-0.724,0.215-0.861,0.248-1.532,0.467l0.301,0.943l1.434-0.479l0.037,0.022l0.178,0.682l-0.033,0.052l-1.382,0.446l0.34,1.033
		c0.764-0.244,0.93-0.309,1.613-0.559L87.331,170.192L87.331,170.192z"/>
	<path fill="#008D43" d="M89.554,168.771c0.539,0.623,0.666,0.789,1.216,1.513l0.05,0.026c0.189-0.051,0.371-0.104,0.562-0.141
		c0.186-0.047,0.378-0.08,0.572-0.123l0.023-0.08c-0.292-0.26-0.38-0.336-0.95-0.953c-0.254-0.275-0.386-0.42-0.59-0.666
		c0.252-0.172,0.76-0.539,0.613-1.312c-0.052-0.271-0.231-0.812-0.785-0.979c-0.348-0.104-0.678-0.051-1.394,0.104l-0.427,0.082
		l-0.747,0.139l-0.023,0.043c0.143,0.615,0.288,1.25,0.604,2.912c0.108,0.572,0.152,0.847,0.231,1.354l0.041,0.037
		c0.446-0.106,0.544-0.135,1.044-0.219l0.035-0.049c-0.187-0.701-0.229-0.889-0.37-1.623L89.554,168.771L89.554,168.771z
		 M88.906,166.926c0.081-0.026,0.166-0.041,0.25-0.061c0.238-0.046,0.712-0.138,0.815,0.405c0.035,0.17,0.035,0.408-0.166,0.59
		c-0.151,0.136-0.371,0.193-0.676,0.252L88.906,166.926L88.906,166.926z"/>
	<path fill="#008D43" d="M94.075,166.301c0.019,0.396,0.031,0.591,0.052,0.929c0.063,0.881,0.143,1.75,0.237,2.617l-0.039,0.036
		c-0.516,0.041-0.633,0.054-1.094,0.111l-0.037-0.041c-0.065-1.539-0.095-1.933-0.22-3.566l-1.011,0.104l-0.037-0.037l-0.012-0.764
		l0.041-0.041l3.075-0.226l0.033,0.013l0.016,0.778l-0.037,0.035L94.075,166.301L94.075,166.301z"/>
	<path fill="#008D43" d="M99.925,168.233c-0.062,0.82-0.083,1.039-0.113,1.759l-0.037,0.028c-0.547-0.061-0.649-0.067-1.105-0.098
		l-0.029-0.035c0.092-0.711,0.18-1.42,0.256-2.135c0.121-1.098,0.146-1.588,0.178-2.197l0.035-0.039
		c1.338,0.154,1.673,0.187,2.691,0.283l0.036,0.029l-0.151,0.762l-0.045,0.039l-1.514-0.178l-0.107,1.035l1.412,0.102l0.025,0.039
		l-0.123,0.719l-0.049,0.033L99.925,168.233L99.925,168.233z"/>
	<path fill="#008D43" d="M104.354,166.33c-0.189,0.834-0.371,1.676-0.545,2.521c-0.181,0.887-0.229,1.166-0.312,1.732l-0.044,0.035
		c-0.506-0.105-0.624-0.131-1.087-0.203l-0.027-0.043c0.158-0.631,0.243-1,0.394-1.725c0.312-1.56,0.359-1.865,0.455-2.537
		l0.033-0.031c0.438,0.09,0.577,0.123,1.108,0.203L104.354,166.33L104.354,166.33z"/>
	<path fill="#008D43" d="M107.722,170.985l-0.266,0.72l-0.059,0.019l-2.621-0.81l-0.024-0.035c0.21-0.617,0.34-0.989,0.569-1.737
		c0.49-1.597,0.546-1.82,0.688-2.412l0.049-0.021l2.613,0.803l0.02,0.035l-0.25,0.67l-0.041,0.033
		c-0.721-0.242-0.851-0.283-1.53-0.49l-0.288,0.945l1.45,0.422l0.019,0.049l-0.244,0.658l-0.053,0.025l-1.391-0.433l-0.311,1.048
		c0.762,0.233,0.93,0.276,1.646,0.459L107.722,170.985L107.722,170.985z"/>
	<path fill="#008D43" d="M109.092,172.394c0.149,0.073,0.3,0.146,0.448,0.213c0.634,0.289,1.67,0.733,2.546-0.088
		c0.324-0.3,0.562-0.742,0.681-0.994c0.24-0.531,0.311-0.996,0.289-1.316c-0.072-0.879-0.789-1.238-1.438-1.533
		c-0.259-0.117-0.521-0.229-0.789-0.332l-0.603-0.27l-0.053,0.023c-0.223,0.551-0.415,1.038-1.136,2.61
		c-0.255,0.553-0.414,0.881-0.64,1.349l0.023,0.028L109.092,172.394L109.092,172.394z M109.741,171.808
		c0.244-0.558,0.477-1.093,0.724-1.638c0.144-0.299,0.279-0.606,0.427-0.916c0.117,0.047,0.243,0.099,0.351,0.147
		c0.343,0.16,1.021,0.47,0.467,1.677c-0.319,0.707-0.733,0.901-0.921,0.953C110.437,172.129,110.046,171.942,109.741,171.808
		L109.741,171.808z"/>
	<path fill="#008D43" d="M97.334,168.056c0.01-0.841,0.037-1.689,0.065-2.531c-0.217,0.422-0.684,0.651-1.157,0.6
		c0.011,0.402,0.011,0.912-0.002,1.932c-0.012,0.73-0.033,1.111-0.062,1.762l0.023,0.035c0.467-0.008,0.59-0.006,1.112,0
		l0.037-0.037C97.325,169.238,97.317,168.955,97.334,168.056L97.334,168.056z"/>
	<polygon fill="#FFFFFF" points="123.906,93.028 123.906,93.605 122.935,93.605 122.935,96.278 122.25,96.278 122.25,93.605 
		121.274,93.605 121.274,93.028 	"/>
	<path fill="#FFFFFF" d="M126.455,93.028h0.978v3.25h-0.632V94.08c0-0.064,0-0.15,0.005-0.264c0-0.114,0.002-0.203,0.002-0.263
		l-0.617,2.725h-0.66l-0.61-2.725c0,0.06,0,0.149,0.004,0.263c0,0.114,0.002,0.2,0.002,0.264v2.198h-0.633v-3.25h0.985l0.592,2.555
		L126.455,93.028L126.455,93.028z"/>
</g>
</svg>
