<?xml version="1.0" encoding="utf-8"?>
<!-- Generator: Adobe Illustrator 16.0.0, SVG Export Plug-In . SVG Version: 6.00 Build 0)  -->
<!DOCTYPE svg PUBLIC "-//W3C//DTD SVG 1.1//EN" "http://www.w3.org/Graphics/SVG/1.1/DTD/svg11.dtd">
<svg version="1.1" id="Layer_1" xmlns="http://www.w3.org/2000/svg" xmlns:xlink="http://www.w3.org/1999/xlink" x="0px" y="0px"
	 width="262.275px" height="158.684px" viewBox="0 -0.001 262.275 158.684" enable-background="new 0 -0.001 262.275 158.684"
	 xml:space="preserve">
<g>
	<g>
		<defs>
			<rect id="SVGID_1_" x="0" y="-0.001" width="262.275" height="158.684"/>
		</defs>
		<clipPath id="SVGID_2_">
			<use xlink:href="#SVGID_1_"  overflow="visible"/>
		</clipPath>
		<path clip-path="url(#SVGID_2_)" fill="#1B2452" d="M74.453,123.898c-5.159,6.52-13.161,10.688-22.114,10.688
			c-15.61,0-28.242-12.647-28.242-28.242c0-15.61,12.632-28.241,28.242-28.241c8.479,0,16.087,3.727,21.246,9.651L84.174,74.29
			c-8.154-8.136-19.408-13.142-31.835-13.142c-24.957,0-45.198,20.241-45.198,45.198c0,24.958,20.241,45.182,45.198,45.182
			c12.479,0,23.766-5.056,31.937-13.211L74.453,123.898z"/>
	</g>
	<g>
		<defs>
			<rect id="SVGID_3_" x="0" y="-0.001" width="262.275" height="158.684"/>
		</defs>
		<clipPath id="SVGID_4_">
			<use xlink:href="#SVGID_3_"  overflow="visible"/>
		</clipPath>
		<rect x="93.327" y="62.979" clip-path="url(#SVGID_4_)" fill="#1B2452" width="19.066" height="87.557"/>
	</g>
	<g>
		<defs>
			<rect id="SVGID_5_" x="0" y="-0.001" width="262.275" height="158.684"/>
		</defs>
		<clipPath id="SVGID_6_">
			<use xlink:href="#SVGID_5_"  overflow="visible"/>
		</clipPath>
		<rect x="197.297" y="63.438" clip-path="url(#SVGID_6_)" fill="#1B2452" width="19.065" height="87.556"/>
	</g>
	<g>
		<defs>
			<rect id="SVGID_7_" x="0" y="-0.001" width="262.275" height="158.684"/>
		</defs>
		<clipPath id="SVGID_8_">
			<use xlink:href="#SVGID_7_"  overflow="visible"/>
		</clipPath>
		<path clip-path="url(#SVGID_8_)" fill="#1B2452" d="M164.676,151.426c-16.39,0-20.31-14.01-20.71-21.89h-0.119v-50.04h-16.761
			V63.447h16.761V46.456l16.989-10.33l-0.46,13.021v14.301h17.21v16.049h-17.21v44.41c-0.108,0.621-0.16,1.261-0.16,1.911
			c0,0.648,0.052,1.29,0.16,1.91v1c0.65,3.88,3.261,7.1,6.78,8.608c1.38,0.59,2.9,0.92,4.5,0.92c3.57,0,6.76-1.63,8.86-4.188
			c0.47-0.58,0.89-1.2,1.238-1.86c0.012-0.01,0.012-0.02,0.021-0.02C181.776,132.187,182.116,151.426,164.676,151.426"/>
	</g>
	<g>
		<defs>
			<rect id="SVGID_9_" x="0" y="-0.001" width="262.275" height="158.684"/>
		</defs>
		<clipPath id="SVGID_10_">
			<use xlink:href="#SVGID_9_"  overflow="visible"/>
		</clipPath>
		<path clip-path="url(#SVGID_10_)" fill="#1B2452" d="M160.376,123.906v3.82c-0.108-0.62-0.16-1.262-0.16-1.91
			C160.216,125.166,160.267,124.526,160.376,123.906"/>
	</g>
	<g>
		<defs>
			<rect id="SVGID_11_" x="0" y="-0.001" width="262.275" height="158.684"/>
		</defs>
		<clipPath id="SVGID_12_">
			<use xlink:href="#SVGID_11_"  overflow="visible"/>
		</clipPath>
		<path clip-path="url(#SVGID_12_)" fill="#ED1C24" d="M157.955,8.799c-32.345,0-60.844,16.479-77.561,41.504h26.967
			c13.04-12.752,30.915-20.633,50.594-20.633s37.554,7.881,50.594,20.633h26.968C218.799,25.278,190.301,8.799,157.955,8.799"/>
	</g>
	<g>
		<defs>
			<rect id="SVGID_13_" x="0" y="-0.001" width="262.275" height="158.684"/>
		</defs>
		<clipPath id="SVGID_14_">
			<use xlink:href="#SVGID_13_"  overflow="visible"/>
		</clipPath>
		<path clip-path="url(#SVGID_14_)" fill="#1B2452" d="M241.815,48.749v-9.701h4.66c0.865,0,1.525,0.081,1.984,0.238
			c0.456,0.16,0.822,0.454,1.104,0.885c0.277,0.431,0.42,0.954,0.42,1.571c0,0.537-0.108,1.002-0.322,1.392
			c-0.213,0.391-0.509,0.708-0.883,0.95c-0.239,0.154-0.567,0.282-0.982,0.382c0.333,0.121,0.575,0.24,0.729,0.359
			c0.103,0.08,0.251,0.249,0.447,0.51c0.194,0.262,0.324,0.461,0.392,0.604l1.354,2.811h-3.159l-1.496-2.965
			c-0.188-0.383-0.356-0.632-0.507-0.747c-0.201-0.15-0.43-0.226-0.686-0.226h-0.247v3.938H241.815z M244.625,42.979h1.181
			c0.128,0,0.375-0.043,0.74-0.132c0.186-0.04,0.336-0.142,0.453-0.306c0.116-0.163,0.177-0.351,0.177-0.562
			c0-0.313-0.094-0.554-0.278-0.722c-0.186-0.167-0.532-0.251-1.042-0.251h-1.229L244.625,42.979L244.625,42.979z"/>
	</g>
	<g>
		<defs>
			<rect id="SVGID_15_" x="0" y="-0.001" width="262.275" height="158.684"/>
		</defs>
		<clipPath id="SVGID_16_">
			<use xlink:href="#SVGID_15_"  overflow="visible"/>
		</clipPath>
		<path clip-path="url(#SVGID_16_)" fill="#1B2452" d="M245.526,34.233c-5.406,0-9.788,4.383-9.788,9.789
			c0,5.404,4.382,9.789,9.788,9.789c5.405,0,9.789-4.385,9.789-9.789C255.315,38.616,250.932,34.233,245.526,34.233 M245.526,52.01
			c-4.41,0-7.99-3.578-7.99-7.988c0-4.411,3.58-7.983,7.99-7.983c4.408,0,7.981,3.572,7.981,7.983
			C253.509,48.432,249.935,52.01,245.526,52.01"/>
	</g>
	<g>
		<defs>
			<rect id="SVGID_17_" x="0" y="-0.001" width="262.275" height="158.684"/>
		</defs>
		<clipPath id="SVGID_18_">
			<use xlink:href="#SVGID_17_"  overflow="visible"/>
		</clipPath>
		<path clip-path="url(#SVGID_18_)" fill="#1B2452" d="M160.376,123.906v3.82c-0.108-0.62-0.16-1.262-0.16-1.91
			C160.216,125.166,160.267,124.526,160.376,123.906"/>
	</g>
</g>
</svg>
