<?xml version="1.0" encoding="utf-8"?>
<!-- Generator: Adobe Illustrator 16.0.0, SVG Export Plug-In . SVG Version: 6.00 Build 0)  -->
<!DOCTYPE svg PUBLIC "-//W3C//DTD SVG 1.1//EN" "http://www.w3.org/Graphics/SVG/1.1/DTD/svg11.dtd">
<svg version="1.1" id="Layer_1" xmlns="http://www.w3.org/2000/svg" xmlns:xlink="http://www.w3.org/1999/xlink" x="0px" y="0px"
	 width="129.101px" height="168.481px" viewBox="36.221 14.617 129.101 168.481"
	 enable-background="new 36.221 14.617 129.101 168.481" xml:space="preserve">
<g>
	<path fill="#FFFFFF" d="M37.063,83.336c-1.998-33.481,21.312-62.604,53.401-68.719c-32.149,3.875-56.125,32.21-54.127,64.904
		c0.243,3.33,0.667,6.599,1.393,9.748C37.427,87.332,37.185,85.334,37.063,83.336L37.063,83.336z"/>
	<path fill="#E79044" d="M159.426,72.074c-1.452-23.552-15.862-43.168-35.903-52.311c18.164,9.748,30.938,28.396,32.271,50.495
		c2.059,33.966-23.795,63.208-57.761,65.267c-10.474,0.666-20.464-1.393-29.424-5.448c9.808,5.268,21.13,7.991,33.058,7.266
		C135.631,135.224,161.483,106.04,159.426,72.074L159.426,72.074z"/>
	<path fill="#FFFFFF" d="M113.048,120.632c-0.242-1.938-0.969-3.814-1.574-6.236c-0.969-3.936-1.393-8.295-0.969-13.198
		c0.303-3.209,1.453-10.716,1.756-13.38c1.332-10.232-0.182-18.83-1.514-23.855c0,0-0.545-2.119-1.574-4.722
		c-1.756-4.36-2.543-6.842-3.512-10.475c-1.029-3.572-2.059-8.779-1.695-13.199c0.182-1.09,0.545-3.27,0.545-3.27
		c0.545-2.906,0.424-5.509,0.424-5.509c-0.061-0.788-0.121-1.332-0.483-1.696l0,0c-2.302-2.543-10.05-3.39-10.05-3.39
		c-0.848-0.061-0.969,0.423-0.969,0.423s-0.121,0.545,0.545,0.848c0,0,0.303,0.182,0.908,0.424c0,0,1.574,0.666,2.724,1.574
		c0.304,0.303,0.545,0.909,0.605,1.695c0,0,0.121,1.453-0.12,2.846c0,0-0.12,1.393-0.485,2.846c0,0-0.362,1.998-0.422,2.845
		c-0.365,4.299,0.664,9.324,1.633,12.836c0.97,3.512,1.757,5.933,3.451,10.111c1.029,2.543,1.515,4.602,1.515,4.602
		c1.271,4.844,2.784,13.199,1.452,23.128c-0.303,2.603-1.393,9.869-1.635,13.019c-0.424,4.781-0.061,9.021,0.908,12.773
		c0.605,2.361,1.271,4.178,1.514,6.055c0.121,1.09,0.121,2.181-0.182,3.392c-0.363,1.998-3.027,5.934-14.954,5.934h-0.243
		c-1.695,0-3.208-0.062-4.541-0.182v-0.062c-0.364,0-0.605-0.061-0.908-0.061c0,0-1.211-0.182-1.393,0.241
		c0,0-0.242,0.364,0.969,0.907c0,0,0.424,0.184,1.09,0.485c2.3,1.029,5.873,1.876,11.322,1.876h0.241
		c12.291,0,15.017-4.056,15.439-6.113C113.169,122.872,113.169,121.722,113.048,120.632L113.048,120.632z"/>
	<path fill="#FFFFFF" d="M158.751,170.954c-1.55,0-2.766,0.568-3.762,1.661c-1.104,1.075-1.602,2.347-1.602,3.84
		c0,1.562,0.498,2.844,1.656,3.963c0.939,1.093,2.212,1.59,3.706,1.59c1.597,0,2.817-0.497,3.754-1.59
		c1.106-1.144,1.657-2.401,1.657-3.963c0-1.493-0.551-2.765-1.657-3.84C161.569,171.522,160.349,170.954,158.751,170.954
		L158.751,170.954z M165.321,176.455c0,1.935-0.662,3.497-1.877,4.767c-1.271,1.256-2.816,1.877-4.693,1.877
		c-1.827,0-3.371-0.621-4.641-1.904c-1.164-1.271-1.827-2.832-1.827-4.738s0.771-3.551,1.934-4.82
		c1.33-1.229,2.82-1.822,4.534-1.822c1.877,0,3.424,0.677,4.693,1.945C164.659,173.06,165.321,174.631,165.321,176.455
		L165.321,176.455z M159.963,175.074c0-0.415-0.22-0.636-0.548-0.845c-0.391-0.057-0.664-0.139-1.053-0.139h-0.555v2.143h0.775
		c0.327,0,0.831-0.068,1.104-0.273C159.799,175.791,159.963,175.5,159.963,175.074L159.963,175.074z M155.985,180.187v-7.392
		c0.439,0,0.998,0.028,1.933,0.028c0.886,0,1.497,0,1.551,0c0.552,0.023,1.05,0.135,1.437,0.398
		c0.664,0.315,0.938,0.926,0.938,1.739c0,0.595-0.22,1.024-0.493,1.326c-0.392,0.265-0.722,0.456-1.275,0.485
		c0.443,0.109,0.832,0.289,0.996,0.451c0.5,0.336,0.664,0.901,0.664,1.646v0.664c0,0.041,0,0.15,0,0.221
		c0,0.057,0.055,0.11,0.055,0.223l0.055,0.207h-1.77c-0.053-0.232-0.11-0.637-0.11-1.037c-0.053-0.412-0.112-0.746-0.164-0.869
		c-0.11-0.262-0.223-0.469-0.551-0.607c-0.167-0.029-0.337-0.059-0.664-0.086l-0.221-0.023h-0.556v2.625H155.985L155.985,180.187z"
		/>
	<path fill="#FFFFFF" d="M115.008,151.083c3.255-0.316,7.097-0.046,10.579-0.136c-2.472,3.45-6.055,6.966-8.884,10.511
		c1.185,2.133,2.524,4.438,4.067,6.714c1.85,2.726,3.438,6.481,7.799,6.375c-2.528-2.297-3.493-6.749-3.049-11.054
		c0.826-8.059,7.47-13.096,16.748-12.275c3.967,0.352,9.401,2.711,8.342,7.801c-1.295,6.205-8.978,7.461-15.801,8.34
		c0.482,2.304,1.412,4.509,2.983,5.832c4.039,3.408,10.418-0.678,13.021-2.576c-1.545,7.229-12.713,11.063-19.463,5.898
		c-2.119,0.926-4.053,1.92-6.781,2.104c-8.211,0.55-10.286-7.17-13.428-11.937c-1.971,2.074-0.735,7.357-1.086,11.053
		c-2.779,0-5.562,0-8.34,0c-0.035-7.963,0.342-31.479-0.406-33.702c-0.459-1.361-2.207-1.738-3.256-2.577
		c3.774-0.316,8.137-0.045,12.139-0.137c0,7.348,0,14.693,0,22.041c1.191-1.34,2.416-2.762,4.002-4.748
		c0.932-1.166,3.425-3.573,3.457-4.814C117.688,152.386,115.72,152.003,115.008,151.083L115.008,151.083z M142.541,158.881
		c0-2.45-0.808-5.493-3.459-5.493c-4.11,0-4.592,7.455-4.883,11.529C138.041,164.315,142.541,163.687,142.541,158.881
		L142.541,158.881z"/>
	<path fill="#FFFFFF" d="M71.471,141.726c-0.256,3.584-0.349,7.336-0.882,10.646c-1.71-4.707-4.949-9.035-10.511-9.629
		c-7.452-0.798-9.955,7.041-10.715,13.493c-0.766,6.518,0.743,14.832,4.951,17.361c6.591,3.963,14.495-0.988,16.546-5.695
		c-1.78-10.617,5.461-17.315,15.666-16.752c8.106,0.449,14.595,5.98,13.427,15.529c-0.968,7.909-8.318,13.25-17.632,11.801
		c-4.906-0.765-8.367-3.088-10.307-7.121c-3.412,5.049-8.532,7.836-16.75,7.527c-9.988-0.373-16.718-9.08-16.276-20.142
		c0.156-3.901,1.292-6.629,2.849-9.29c2.755-4.712,7.65-9.521,14.647-9.629C62.308,139.735,66.652,140.717,71.471,141.726
		L71.471,141.726z M82.729,154.202c-3.508,3.081-3.995,15.076-1.357,19.802c0.897,1.606,2.545,3.335,4.95,2.646
		c3.596-1.031,4.351-6.279,4.476-10.782c0.161-5.782-0.656-11.714-4.679-12.613C84.682,152.933,83.445,153.573,82.729,154.202
		L82.729,154.202z"/>
</g>
</svg>
