<?xml version="1.0" encoding="utf-8"?>
<!-- Generator: Adobe Illustrator 16.0.0, SVG Export Plug-In . SVG Version: 6.00 Build 0)  -->
<!DOCTYPE svg PUBLIC "-//W3C//DTD SVG 1.1//EN" "http://www.w3.org/Graphics/SVG/1.1/DTD/svg11.dtd">
<svg version="1.1" id="Layer_1" xmlns="http://www.w3.org/2000/svg" xmlns:xlink="http://www.w3.org/1999/xlink" x="0px" y="0px"
	 width="181.86px" height="353.913px" viewBox="308.544 122.007 181.86 353.913"
	 enable-background="new 308.544 122.007 181.86 353.913" xml:space="preserve">
<g>
	<path d="M418.103,234.283c0,0-4.086-16.975-17.917-12.259c0,0-14.042,3.458-12.154,25.252c0,0-6.915,4.61-10.27,9.431
		c0,0-9.011-5.239-13.831-6.287c0,0-6.077-3.772-11.944-3.772c0,0-10.688-0.629-11.735,7.125c0,0-0.21,1.467,0,3.772
		c0,0-2.934,11.526-1.048,22.843c0,0,1.676,19.07,26.614,24.519c0,0,0.419,7.963,11.315,9.221c0,0-0.838,4.19,0,5.029
		c0,0,1.468,1.467,2.936,2.516c0,0,0.628,2.306-0.42,2.935c0,0-4.4-1.467-7.125-1.258c0,0-4.4-2.097-21.375,6.705
		c0,0-13.622,5.239-21.585,26.405c0,0-2.307,5.867-4.401,11.944c0,0,0,1.048-0.838,1.258c0,0-3.354,0.419-6.706,3.562
		c0,0-4.82,3.771-7.964,9.639c0,0-2.725,5.031,2.096,10.271c0,0,1.257,1.466,2.306,2.306c0,0,2.935,5.028,7.754,6.077
		c0,0,3.981,0.629,6.286,0.419c0,0,2.935,3.145,8.803-0.629c0,0,6.916-3.98,5.238-9.85c0,0-0.21-2.305-1.677-2.725
		c0,0,2.515-5.03,2.726-7.754c0,0,2.934-5.869-0.63-10.897c0,0,0.63-18.231,13.622-25.774c0,0-3.98,10.688-3.98,21.584
		c0,0-1.258,2.725-1.048,5.448c0,0,0,5.867,1.257,8.384l1.049,1.258c0,0,1.886,6.705,5.238,9.849c0,0,13.413,48.619,16.347,62.241
		v0.838c0,0-12.364-5.868-22.005-3.772c0,0-23.052,2.726-22.633,16.766c0,0,0,6.286,7.754,7.335c0,0,16.346,3.144,55.744,0.839
		c0,0,51.135-0.838,58.259-1.258c0,0,18.442-3.146,2.515-16.138c0,0-7.754-7.334-25.146-6.076c0,0-9.013-1.258-20.118,6.076
		c0,0-19.7-33.319-18.861-61.61c0,0,3.771-4.191,6.287-7.335c0,0,5.238-4.191,6.286-11.945c0,0,0.211-1.887,0.42-2.725
		c0,0,5.008-11.869,5.029-30.807c0,0,12.153,6.078,12.783,33.949c0,0-9.85,3.354-10.27,12.574c0,0,0.208,7.125,4.191,9.639
		c0,0,0,6.917,4.399,8.174c0,0,2.517,2.097,7.126,0.42c0,0,2.515,2.306,6.286,1.887c0,0,3.772,0.21,5.449-1.678
		c0,0,3.352,1.468,5.658-1.467c0,0,5.447-2.515,4.399-12.363c0,0-2.095-9.223-11.105-16.976c0,0,1.257-16.974-11.317-35.415
		c0,0-8.59-15.299-19.907-12.155c0,0-0.419-1.468-0.629-4.19c0,0,5.449-2.096,8.174-5.868c0,0,11.944-0.63,20.117-9.013
		c0,0,9.013-5.657,8.383-17.603c0,0,4.399,9.431,17.812,8.173c0,0,24.521-1.467,29.758-29.338c0,0,5.239-36.674-17.393-38.351
		c0,0-6.498-3.143-20.118,5.868c0,0-5.66,3.562-13.623,10.897c0,0-9.639-10.479-18.65-11.107
		C420.095,239.313,418.416,234.912,418.103,234.283z"/>
	<path fill="#FFFFFF" d="M335.64,375.109c0,0-1.467,11.106-8.802,10.688c0,0-7.545-2.515-3.354-11.945c0,0,4.818-7.543,11.734-5.658
		c0,0,9.641,0.63,7.545,9.852c0,0-1.886,3.771-5.238,6.076c0,0,2.934-0.209,4.609-2.305c0,0-1.047,4.399-2.096,5.658
		c0,0-3.562,0-4.4,0.418c0,0,0,0.84-1.467,0.84l-1.049-0.211c0,0-0.419-1.258-1.467-2.725
		C331.657,385.798,337.106,382.234,335.64,375.109z"/>
	<path fill="#FFFFFF" d="M323.694,370.918c0,0-13.203,6.078-13.831,17.186c0,0,1.467,6.496,10.269,6.705
		c0,0,10.688,0.84,11.944-6.076c0,0-0.419-1.258-1.257-1.887c0,0-5.239,1.887-8.593-2.305c0,0-4.19,0-6.077,3.771
		c0,0-0.628-2.935,4.819-5.238c0,0-0.419-8.174,2.306-10.688C323.274,372.386,323.485,371.756,323.694,370.918z"/>
	<path fill="#FFFFFF" d="M315.521,395.229c0,0,2.515,6.077,9.85,5.658c0,0,14.879-1.469,8.592-10.479c0,0-0.839-0.838-1.048,0.839
		c0,0-1.048,3.144-6.706,4.61C326.209,395.857,320.761,396.485,315.521,395.229z"/>
	<path fill="#FFFFFF" d="M335.64,390.408c0,0-0.629-1.047,1.049-1.047c0,0,3.562-1.469,4.399,1.676c0,0,2.096,9.64-10.688,11.105
		c0,0-2.098-0.21,0-1.048C330.4,401.096,339.411,396.695,335.64,390.408z"/>
	<path fill="#FFFFFF" d="M341.717,369.032c0,0-6.916-4.4-15.089-0.839l2.515-8.381c0,0,0.839-2.935,4.191-2.935
		c0,0,6.916-0.211,10.059,3.979C343.393,360.859,342.136,366.727,341.717,369.032z"/>
	<path fill="#FFFFFF" d="M395.575,388.521c0,0-23.053-1.258-40.865-8.383c0,0-0.629,1.467,1.048,3.771c0,0,1.049,3.354,6.287,8.594
		c0,0-1.048,0.629-2.096-0.21c0,0,15.508,51.553,16.765,62.869c0,0,3.982,2.305,4.82,3.98c0,0-13.622-7.964-23.052-7.544
		c0,0-21.585-1.677-27.243,14.04c0,0-0.21,8.173,11.105,8.173c0,0,17.498,1.782,50.399,0.524c0,0,1.572-0.313,0.733-1.152
		c0,0-3.562-4.399,0.839-9.85c0,0,0.839-1.048-0.839-1.676c0,0-6.497-3.982-12.572-5.24c0,0,5.656,0.629,10.688,2.305
		c0,0-14.88-39.605-18.441-62.657c0,0-3.771-1.258-5.448-3.772c0,0,5.449,2.935,7.544,3.353c0,0-0.209,1.259-0.838,1.259
		c0,0,9.64,41.912,18.86,62.239c0,0,1.258,2.307,2.515,2.517c0,0,6.707-4.192,8.592-4.402c0,0-10.478,5.869-10.478,9.852
		c0,0-2.306,6.706,3.771,6.915c0,0,49.039-0.42,55.115-1.468c0,0,16.347-3.771,0.42-14.67c0,0-11.318-7.125-24.102-5.028
		c0,0-6.914-1.888-21.164,6.495l-0.212-1.887c0,0-17.812-31.225-18.44-60.562c0,0-2.516-0.211,0.209-2.307
		C389.497,394.598,394.736,391.248,395.575,388.521z"/>
	<path fill="#FFFFFF" d="M435.603,368.611c0,0-1.888-1.467-6.496-1.047c0,0-3.354,0.629-6.706,2.515l0.21,8.383
		c0,0,1.048,1.048,2.305,0.21c0,0,5.03-1.887,11.316-1.887C436.23,376.785,435.812,369.66,435.603,368.611z"/>
	<path fill="#FFFFFF" d="M426.381,381.814c0,0-3.562-3.562-6.916-1.676c0,0-7.754,2.305-7.124,12.153c0,0,1.677,8.173,8.173,6.287
		c0,0,6.286-1.049,3.562-8.804c0,0,5.239,5.031-1.676,9.642c0,0-1.887,1.257-5.867,1.048c0,0-0.211,7.544,6.915,6.915
		c0,0,3.771,1.258,8.593-6.286c0,0-0.63-1.048-1.888-1.048c0,0,4.61-0.419,6.078-1.048c0,0-1.887,1.468-2.935,2.935
		c0,0-2.306,3.144-5.029,5.238c0,0,0.209,2.305,5.867,1.677c0,0,3.354,0.838,6.287-4.818c0,0,1.466-1.26,0.629-2.308
		c0,0-0.419-0.209-1.468-0.209c0,0-1.046-1.258,0.42-1.258c0,0,3.562,0.21,4.61-0.628c0,0-1.049,1.258-2.308,2.306
		c0,0-1.885,3.98-2.724,5.447c0,0,1.678,1.678,4.82-2.095c0,0,4.19-3.982,3.145-10.479c0,0-2.726-10.688-11.106-16.557
		c0,0-2.307-1.467-10.688,1.049c0,0,0.839,1.049,1.887,1.887L426.381,381.814z"/>
	<path fill="#FFFFFF" d="M407.729,343.047c0,0-0.42,19.698-5.867,32.9c0,0-3.145,2.096-14.879,0.629c0,0-16.138-1.676-33.53-10.059
		c0,0,1.258-31.646,16.137-37.932c0,0-0.21-1.467-1.258-0.839c0,0-7.544,5.448-11.316,14.879c0,0-1.677,1.258-2.724,1.888
		c0,0-6.287,3.981-10.688,14.25c0,0-6.496-4.82-12.993-2.306c0,0,6.497-20.747,24.31-27.244c0,0,15.089-7.963,22.633-3.979
		c0,0-0.838,0.418-2.515,1.467c0,0,1.468,0.21,2.725,0.419c0,0,3.981-0.839,8.173,2.726c0,0,1.259,0,0.628-0.84
		c0,0-3.562-2.514-6.285-3.143c0,0-0.419-0.42,0.209-0.84c0,0,1.048-2.305,0.629-3.144c-0.419-0.838-0.419-0.838-0.419-0.838
		s2.934,1.258,6.078,2.097c0,0,0.838-1.049-0.421-1.049c0,0-7.544-2.306-8.173-4.818c0,0-0.419-4.191,2.307-2.726
		c0,0,6.075,3.771,11.734,4.819c0,0,11.735,1.048,20.118,0.419c0,0-4.399,3.772-10.06,5.239c0,0-0.419,1.047,0.419,1.047
		c0,0,1.676,0,2.515-0.627c0,0-0.418,2.934-0.209,4.818c0,0-0.21,1.049-1.677,0.42c0,0-3.354-3.771-10.896-1.678
		c0,0-0.419,0.839,1.468,0.839c0,0,5.867-1.048,9.22,2.097c0,0,0.42,1.886,1.678,0.629c0,0,1.886-2.516,4.819-2.307
		c0,0,7.545,0.42,14.67,11.945c0,0,7.335,9.639,11.105,24.1c0,0-8.383-1.887-12.992,2.515c0,0-0.839-0.21-0.628-1.257
		c0,0-1.888-19.489-12.573-25.776C409.197,341.789,406.682,340.322,407.729,343.047z"/>
	<ellipse cx="388.08" cy="344.893" rx="15.143" ry="14.346"/>
	<ellipse fill="#FF0000" cx="388.177" cy="345.078" rx="14.002" ry="13.266"/>
	<path fill="#FFFFFF" d="M420.514,274.729c0,0,13.621,18.442,19.908,24.938c0,0-4.819,13.832-21.376,17.604
		c0,0-18.44,2.095-26.405,0.629c0,0-6.287-1.258-10.688-4.191c0,0,9.221-1.049,11.945-3.562c0,0-12.154,3.562-18.651,1.887
		c0,0-6.077-1.678-7.334-5.868c0,0-0.419-0.629,1.257-0.629c0,0,26.824,5.237,41.075-11.316c0,0,0.419-0.628,1.466,0.419
		c0,0,2.725,1.257,5.449,1.257c0,0,1.047-1.257,0-1.048c0,0-8.802-0.209-8.173-8.382c0,0-1.048-0.838-1.259,0.209
		c0,0,0.421,4.61,1.679,6.287c0,0-6.916,10.897-28.711,12.156c0,0-9.432-0.21-12.573-0.839c0,0-23.262-4.82-27.663-21.794
		c0,0-2.934-13.203,0.419-23.89c0,0,0-2.305,1.258-1.257c0,0,1.887,1.048,2.516,0.21c0,0,1.258-1.887,1.886-0.42
		c0,0,1.677,3.772,1.677,8.173c0,0,0.839,0.838,1.048,0c0,0,0.419-6.496,3.981-7.125c0,0,2.515-1.048,3.981,0.628
		c0,0,7.334,2.096,7.755-2.934c0,0,0.838-2.305-0.84-3.981c0,0,12.154,3.772,24.311,14.041c0,0,9.221,6.916,12.783,15.089
		c0,0,0.419,1.048,1.048,0.209c0,0,0.628-0.42,0.312-0.734l0.21-0.314C402.805,280.178,409.092,283.217,420.514,274.729z"/>
	<path fill="#FFFFFF" d="M396.099,271.167c0,0,3.249-8.173,13.518-13.203c0,0-6.497-11.316-10.688-14.041
		c0,0-2.935,0.419-3.771,1.257c0,0,1.886,0.838,1.886,1.886c0,0,1.049,3.144,0.21,5.658c0,0-1.048,0.209-1.258-0.629
		c0,0,0-6.287-3.771-5.658c0,0-7.648,2.724-13.622,10.373c0,0,0.733,0.524,1.259,0.838c0,0,4.818-6.602,8.592-8.278
		c0,0,4.925-1.362,5.973,1.781c0,0,4.191,4.401-4.506,13.831C389.916,264.984,395.47,269.176,396.099,271.167z"/>
	<path fill="#FFFFFF" d="M400.499,242.299c0,0-5.973,1.257-10.845,4.086c0,0-2.986-14.617,7.387-22.004
		c0,0,8.959-5.029,14.146,0.786c0,0,4.088,2.829,5.975,12.103c0,0,0,0.628-1.729,0.157c0,0-10.688-3.144-12.889-4.244
		c0,0-0.942,0.629-0.471,0.943c0,0,8.645,3.144,12.416,4.086c0,0-8.436-1.624-11.997-0.157c0,0-0.838,0.419,0,0.629
		c0,0,1.886,0,3.143,0.418c0,0-6.077,0.209-6.915,1.886c0,0,8.803-1.466,10.061-0.838c0,0,0.628-1.467,0-1.467
		c0,0,3.979,0.209,5.447,1.257c0,0,4.188,0.209,5.029-0.209c0,0,2.305,0.629,3.144,1.048c0,0,11.106,4.401,14.881,10.059
		c0,0-1.259,2.096-3.354,2.935c0,0,0,1.257,1.047,1.257c0,0,0.42-0.628,1.049-1.047c0,0,20.538-20.747,32.481-19.49
		c0,0,10.271-1.676,18.023,11.107c0,0,6.495,19.07-0.421,33.949c0,0-6.075,18.232-24.309,20.328c0,0-13.203,3.145-19.699-9.639
		c0,0-1.258,0.209-0.838,1.467c0,0,0.629,1.467-0.209,6.078c0,0-12.575-12.993-18.861-23.053l-0.629-0.628
		c0,0,0.419-2.095-1.047-1.676c0,0-9.431-14.46-10.269-16.765c0,0-8.174-11.316-9.852-12.155
		C400.395,243.505,399.766,242.77,400.499,242.299z"/>
	<path fill="#FFFF00" d="M385.201,261.422c0,0-3.145-2.41-4.61-3.144c0,0,7.125-9.954,10.896-7.649c0,0,3.877,0.943,2.306,6.497
		c0,0-2.41,5.239-4.925,7.125l-0.733-0.943c0,0,4.82-2.934,3.145-6.391c0,0-1.887-2.41-4.296,0.523c0,0-1.571,1.991-1.049,3.877
		L385.201,261.422z"/>
	<path d="M454.778,247.797c-2.535,1.363-7.867,7.438-8.097,7.7l-0.053,0.06l-0.037,0.073c-1.922,3.844-7.057,8.363-7.115,8.412
		c-0.146,0.125-0.522,0.554-0.522,0.733c0,0.143,0.005,0.406,0.104,0.524c0.225,0.266,0.354,0.269,0.618,0.045
		c0.242-0.203,5.919-5.006,7.994-9.067c1.569-1.79,5.915-6.487,7.782-7.42l0.1-0.049l0.075-0.081
		c0.075-0.079,7.604-7.922,12.848-7.423c0.379,0.019,8.62,0.525,12.164,10.017c0.014,0.045,2.54,7.266,1.274,11.568
		c-0.098,0.333,0.085,0.636,0.419,0.733c0.334,0.098,0.362-0.286,0.419-0.628c1.049-6.287-1.051-12.051-1.151-12.364
		c-3.853-10.32-12.689-10.264-12.783-10.269C463.156,239.821,455.477,247.072,454.778,247.797z"/>
	<path d="M481.003,267.878c-0.005,0.055-0.175,4.979-2.443,8.003c-0.206,0.278-0.276,1.049,0,1.258
		c0.279,0.208,0.633-0.037,0.841-0.314c2.481-3.311,2.597-8.246,2.618-8.487c0.032-0.346-0.281-1.016-0.628-1.048
		C481.044,267.257,481.035,267.532,481.003,267.878z"/>
	<path d="M474.789,282.064c-0.039,0.05-3.643,4.661-6.056,6.185c-0.293,0.186-0.382,0.574-0.196,0.868
		c0.186,0.293,0.715,0.146,1.013-0.032c3.145-1.886,5.707-5.867,5.867-6.078c0.212-0.276,0.487-0.942,0.211-1.152
		C475.354,281.644,474.999,281.788,474.789,282.064z"/>
	<path d="M464.729,290.028c-0.022,0.021-1.94,1.844-7.125,0.733c-0.34-0.072-0.659-0.025-0.732,0.314
		c-0.073,0.34-0.166,0.52,0.174,0.592c5.857,1.255,8.202-0.804,8.313-0.907c0.258-0.23,0.667-0.933,0.438-1.191
		C465.569,289.31,464.991,289.801,464.729,290.028z"/>
	<path d="M448.193,286.186c-0.252,0.238-0.265,0.636-0.026,0.889c0.232,0.246,2.047,1.996,3.78,2.429
		c0.336,0.084,0.544,0.232,0.628-0.104c0.085-0.337-0.188-0.649-0.523-0.734c-1.165-0.291-2.269-1.501-2.828-2.095
		C448.984,286.317,448.447,285.948,448.193,286.186z"/>
	<path fill="#FF0000" d="M358.854,370.664c0,0-4.774-2.17-6.077-2.93c0,0-2.062,4.449,0.217,10.527c0,0,3.039,1.735,5.102,1.952
		c0,0,0.436-0.217,0.325-0.649C358.42,379.564,357.878,373.053,358.854,370.664z"/>
	<path fill="#FF0000" d="M396.622,387.379c0,0,3.906-3.148,5.427-9.66c0,0-8.14,0.76-13.132,0c0,0-7.706-0.326-15.737-2.388
		c0,0-0.759,0.435-0.759,1.521c0,0-0.651,5.209-0.107,6.836C372.312,383.688,383.382,387.379,396.622,387.379z"/>
	<path fill="#FFFF00" d="M361.459,371.641c0,0-1.736-1.084-1.953,0.869c0,0-0.435,5.752-0.108,7.271c0,0-0.108,0.76,0.76,0.76
		c0,0,7.813,2.93,10.854,2.713c0,0,0.978-7.271,0.867-8.141c0,0-0.649-0.649-1.193-0.434c0,0-8.247-2.496-9.008-3.039"/>
	<path d="M384.771,332.217c0,0-9.031,10.008-10.009,12.814c0,0,0.244,1.832,2.687,1.953c0,0,4.882,0.977,6.956,0.488
		c0,0-4.027,3.782-4.271,4.76c0,0,2.809,1.465,3.905,1.953c0,0,3.54-3.052,4.028-4.027c0,0,0.487,4.271,0.242,5.369
		c0,0,5.248-2.928,5.98-3.539c0,0,0.977,2.195,0.977,3.051c0,0,3.052-0.609,4.271-3.051c0,0-0.61-9.521-1.465-10.252
		c0,0-3.661,2.318-4.395,2.93l-0.73-0.123c0,0-0.488-4.395-1.101-5.248C391.849,339.295,389.164,329.898,384.771,332.217z"/>
	<path fill="#FFFF00" d="M385.503,332.949c0,0-6.103,5.369-9.886,11.961c0,0,6.347,3.418,10.618,0.242c0,0,5.612-4.394,3.661-8.299
		C389.896,336.854,388.188,332.705,385.503,332.949z"/>
	<path fill="#FFFF00" d="M391.361,340.639c0,0-5.736,7.078-9.521,10.496c0,0,0.854,1.342,2.44,1.83c0,0,4.148-3.906,4.882-5.126
		c0,0,0.488,5.249,0.244,5.858c0,0,5.735-3.297,6.347-4.027c0,0,0.487,3.904,0.365,4.271c0,0,1.71-0.854,2.318-1.342
		c0,0-0.486-8.666-0.731-9.277c0,0-4.395,2.93-5.492,3.297C392.215,346.619,391.972,341.127,391.361,340.639z"/>
	<path d="M385.381,336.244c0,0-4.638,4.027-5.248,6.469c0,0,0,0.732,0.854,0.732c0,0,4.394,0.242,6.346-3.662
		C387.333,339.783,388.555,336.732,385.381,336.244z"/>
	<path fill="#FF0000" d="M386.137,338.094c0,0-3.646,2.1-3.646,4.088c0,0,1.437-0.553,2.541-1.656
		C385.032,340.523,386.358,339.42,386.137,338.094z"/>
	<g>
		<g>
			<g>
				<path d="M479.122,161.968c0,0-6.396-7.308-8.222-8.221c0,0,9.363-6.394,8.448-13.929c0,0-0.457-10.047-13.242-12.788
					c0,0-8.679-0.685-12.104-0.685l-0.685-2.055h-24.891l-0.229,1.598c0,0-4.795-2.511-10.274-1.826c0,0-5.023,0.456-9.134,3.425
					l-0.458-2.283H392.35l-1.369,8.906l-13.018-11.418l-3.196,16.213l-8.448-16.898l-6.622,11.646h-1.827
					c0,0-5.709-11.188-27.63-9.59l-0.458-0.001l-8.905,47.611c0,0,3.768,2.055,5.48,1.712l-17.812,29.8l14.044,10.619l6.165-9.934
					l6.851,9.591l8.563-9.591l5.479,9.249l8.563-4.453c0,0,6.507,4.453,16.099,3.425c0,0,9.248-2.055,12.674-6.851
					c0,0,5.138,7.193,17.811,7.878c0,0,6.281,0.228,11.533-3.882h2.283v4.11c0,0,15.757,1.141,24.661-7.992h1.6l-0.457,6.851
					l26.945-0.228l0.685-15.071h-9.59l-0.229-2.74l7.767-0.229l0.456-9.591l-7.309-0.457v-3.197l10.505,0.229v-11.189l-1.371-0.685
					v-1.826L479.122,161.968z M338.688,178.411l-2.969-6.166l9.134-2.968L338.688,178.411z M340.97,151.008
					c0.229-1.599,1.37-9.591,1.37-9.591c2.057,0,2.969,3.654,2.969,3.654C345.08,149.637,340.97,151.008,340.97,151.008z
					 M356.727,180.008l-4.339-8.221l6.623,0.229l0.913-4.338h4.795l0.913,1.598C361.979,170.646,356.727,180.008,356.727,180.008z
					 M377.562,186.744c-1.332,3.165-4.174,5.464-6.13,4.64c-1.957-0.824-2.463-4.058-1.13-7.223s3.999-5.062,5.956-4.239
					C378.216,180.745,378.896,183.58,377.562,186.744z M389.838,173.158c0,0-4.339-4.339-5.253-4.567l2.056-6.85l7.079,6.394
					L389.838,173.158z M407.42,190.97c0,0-7.993,0.229-0.912-15.072l0.686-1.141l-4.566-2.512l-0.229-3.882
					c0,0,4.795,2.512,7.992,2.969l-0.459,3.882C409.932,175.214,414.501,190.97,407.42,190.97z M417.239,143.7l-0.686,7.536
					c0,1.37-1.6,1.827-1.6,1.827c-4.339-2.284,0.686-10.961,0.686-10.961c2.74-2.055,4.795,0.457,4.795,0.457
					C419.75,143.244,417.239,143.7,417.239,143.7z M427.516,179.78l-1.369-0.229c-0.229-2.055-2.741-10.048-2.741-10.048
					c2.285,0.229,11.875-0.913,11.875-0.913l0.686,2.511C430.484,171.56,427.516,179.78,427.516,179.78z M444.756,153.633
					l-4.34-0.114c0,0,1.027-1.256,4.454-1.256L444.756,153.633z M447.383,139.59l-6.623-0.456l0.229-1.371l6.851-0.229
					L447.383,139.59z M461.77,141.646c1.627-0.652,1.978,0.899,2.043,1.845c0.115-0.143,0.202-0.299,0.238-0.473
					c0.067-0.341,0.102-0.507,0-0.002c0,0.001,0,0.001,0,0.002c-0.086,0.43-0.229,1.139-0.229,1.139s0.018-0.285-0.01-0.666
					c-0.642,0.793-2.273,1.123-2.273,1.123L461.77,141.646z M457.657,168.362c0,0,1.142-4.795,1.142-5.708
					c0,0,5.938,4.338,7.766,5.937L457.657,168.362z"/>
			</g>
		</g>
		<g>
			
				<linearGradient id="SVGID_1_" gradientUnits="userSpaceOnUse" x1="283.145" y1="354.1074" x2="283.145" y2="396.2383" gradientTransform="matrix(1 0 0 -1 54 565)">
				<stop  offset="0" style="stop-color:#FF7500"/>
				<stop  offset="1" style="stop-color:#AB0000"/>
			</linearGradient>
			<polygon fill="url(#SVGID_1_)" points="330.466,168.933 310.942,202.843 321.731,210.892 328.753,199.76 335.604,210.55 
				344.338,199.932 349.818,210.55 363.349,202.158 348.791,168.762 338.686,182.292 			"/>
			<g>
				<g>
					
						<linearGradient id="SVGID_2_" gradientUnits="userSpaceOnUse" x1="320.2339" y1="353.9678" x2="320.2339" y2="397.3291" gradientTransform="matrix(1 0 0 -1 54 565)">
						<stop  offset="0" style="stop-color:#FF7500"/>
						<stop  offset="1" style="stop-color:#AB0000"/>
					</linearGradient>
					<path fill="url(#SVGID_2_)" d="M376.193,167.734c-12.16-1.199-18.668,15.072-18.668,15.072l8.562,20.552l-6.166,4.452
						c7.536,4.624,13.701,2.912,13.701,2.912c16.271-4.11,17.298-22.436,17.298-22.436
						C391.606,169.447,376.193,167.734,376.193,167.734z M377.905,189.999c-4.968,7.536-9.248,1.027-9.248,1.027
						c-3.254-10.275,6.509-13.358,6.509-13.358c2.397,0.343,3.596,2.055,3.596,2.055
						C381.159,183.49,377.905,189.999,377.905,189.999z"/>
				</g>
			</g>
			<g>
				<g>
					
						<linearGradient id="SVGID_3_" gradientUnits="userSpaceOnUse" x1="286.7485" y1="394.3574" x2="286.7485" y2="439.7295" gradientTransform="matrix(1 0 0 -1 54 565)">
						<stop  offset="0" style="stop-color:#FF7500"/>
						<stop  offset="1" style="stop-color:#AB0000"/>
					</linearGradient>
					<path fill="url(#SVGID_3_)" d="M330.957,125.278l-8.052,44.857c0,0,2.761,0.69,4.141,0.46l4.141-7.361l3.91,6.901
						c0,0,22.544-6.671,23.465-25.764C358.562,144.371,360.632,124.818,330.957,125.278z M347.52,145.75
						c-0.689,8.052-8.74,7.591-8.74,7.591l1.84-14.492C347.979,138.39,347.52,145.75,347.52,145.75z"/>
				</g>
			</g>
			<g>
				<g>
					
						<linearGradient id="SVGID_4_" gradientUnits="userSpaceOnUse" x1="311.9219" y1="395.0938" x2="311.9219" y2="438.8008" gradientTransform="matrix(1 0 0 -1 54 565)">
						<stop  offset="0" style="stop-color:#FF7500"/>
						<stop  offset="1" style="stop-color:#AB0000"/>
					</linearGradient>
					<path fill="url(#SVGID_4_)" d="M366.383,126.198l-6.44,9.892c7.82,16.793-9.893,29.675-9.893,29.675l1.381,3.221l5.75,0.92
						l2.07-4.601l20.704-0.689l1.84-1.841L366.383,126.198z M363.622,157.022c0,0,1.38-8.741,2.3-9.892l1.841,8.282L363.622,157.022
						z"/>
				</g>
			</g>
			
				<linearGradient id="SVGID_5_" gradientUnits="userSpaceOnUse" x1="337.105" y1="396.2441" x2="337.105" y2="437.6514" gradientTransform="matrix(1 0 0 -1 54 565)">
				<stop  offset="0" style="stop-color:#FF7500"/>
				<stop  offset="1" style="stop-color:#AB0000"/>
			</linearGradient>
			<path fill="url(#SVGID_5_)" d="M378.805,127.348c0,0-2.989,13.572-2.761,15.643l8.512,19.783l1.609-5.291l13.342,11.272
				l6.672-41.177l-11.501-0.23l-2.301,11.271L378.805,127.348z"/>
			
				<linearGradient id="SVGID_6_" gradientUnits="userSpaceOnUse" x1="363.7397" y1="395.2871" x2="363.7397" y2="438.9141" gradientTransform="matrix(1 0 0 -1 54 565)">
				<stop  offset="0" style="stop-color:#FF7500"/>
				<stop  offset="1" style="stop-color:#AB0000"/>
			</linearGradient>
			<path fill="url(#SVGID_6_)" d="M423.202,141.61c0,0-7.363-6.902-10.812,2.99c0,0-3.682,9.892,3.222,10.582
				c0,0,3.68-0.23,3.907-2.761l-1.607-0.92l0.688-5.98l13.573,0.69c0,0,0.23,16.103-13.573,23.004c0,0-6.21,2.301-15.643-2.991
				l5.291-37.036c0,0,15.413-7.131,21.164,0.23c0,0,5.291,5.751,2.07,7.361L423.202,141.61z"/>
			
				<linearGradient id="SVGID_7_" gradientUnits="userSpaceOnUse" x1="384.6138" y1="397.625" x2="384.6138" y2="438.3418" gradientTransform="matrix(1 0 0 -1 54 565)">
				<stop  offset="0" style="stop-color:#FF7500"/>
				<stop  offset="1" style="stop-color:#AB0000"/>
			</linearGradient>
			<path fill="url(#SVGID_7_)" d="M431.254,126.658h20.012l-1.38,8.051l-10.582,0.46l-1.379,5.981l8.281,0.92v7.592l-7.361,0.69
				l-2.76,4.831l11.962,0.919l-1.841,11.272l-20.244-0.46c0,0,10.812-8.971,9.432-22.773l-8.74-1.15l8.971-5.521
				c0,0,0.691-1.84,0-2.991L431.254,126.658z"/>
			<g>
				<g>
					
						<linearGradient id="SVGID_8_" gradientUnits="userSpaceOnUse" x1="408.7061" y1="397.625" x2="408.7061" y2="437.0303" gradientTransform="matrix(1 0 0 -1 54 565)">
						<stop  offset="0" style="stop-color:#FF7500"/>
						<stop  offset="1" style="stop-color:#AB0000"/>
					</linearGradient>
					<path fill="url(#SVGID_8_)" d="M468.979,152.192c0,0,10.353-4.371,8.052-14.493c0,0-2.07-11.731-23.005-9.431l-5.979,24.614
						l2.759,0.459l-0.92,13.803l5.521,0.23l2.301-9.432l11.501,8.971l7.592-6.211l-7.592-6.441L468.979,152.192z M465.759,143.911
						c-0.689,4.831-6.671,3.22-6.671,3.22c0.23-1.61,2.071-9.201,2.071-9.201C466.449,138.849,465.759,143.911,465.759,143.911z"/>
				</g>
			</g>
			
				<linearGradient id="SVGID_9_" gradientUnits="userSpaceOnUse" x1="352.6631" y1="353.6709" x2="352.6631" y2="393.8975" gradientTransform="matrix(1 0 0 -1 54 565)">
				<stop  offset="0" style="stop-color:#FF7500"/>
				<stop  offset="1" style="stop-color:#AB0000"/>
			</linearGradient>
			<path fill="url(#SVGID_9_)" d="M404.452,175.669l-10.506-4.567c0,0-2.739,3.197-3.195,4.339c0,0,6.622,15.3-2.513,28.315
				c0,0,12.331,14.843,29.229,2.969c0,0,14.157-13.93,3.882-35.623l-9.819,3.426c0,0,5.254,16.898-2.739,18.725
				c0,0-6.396,2.055-6.852-6.851C401.939,186.402,402.168,179.323,404.452,175.669z"/>
			
				<linearGradient id="SVGID_10_" gradientUnits="userSpaceOnUse" x1="381.5068" y1="353.2324" x2="381.5068" y2="396.4102" gradientTransform="matrix(1 0 0 -1 54 565)">
				<stop  offset="0" style="stop-color:#FF7500"/>
				<stop  offset="1" style="stop-color:#AB0000"/>
			</linearGradient>
			<path fill="url(#SVGID_10_)" d="M448.751,168.59l2.056,10.504c0,0-9.591,2.513-7.764,8.678c0,0,3.426,13.473-0.229,15.756
				c0,0-8.68,8.678-22.607,8.221v-4.567c0,0,6.622-7.763,6.395-10.732c0,0,4.338-0.685,3.427-5.709c0,0-4.112-9.134,0.685-13.701
				C430.712,177.039,435.507,170.417,448.751,168.59z"/>
			
				<linearGradient id="SVGID_11_" gradientUnits="userSpaceOnUse" x1="405.2568" y1="354.1641" x2="405.2568" y2="394.3535" gradientTransform="matrix(1 0 0 -1 54 565)">
				<stop  offset="0" style="stop-color:#FF7500"/>
				<stop  offset="1" style="stop-color:#AB0000"/>
			</linearGradient>
			<polygon fill="url(#SVGID_11_)" points="472.271,171.33 472.043,178.866 461.77,179.094 461.77,185.032 469.074,185.26 
				468.617,192.339 460.854,192.339 460.625,198.504 470.673,198.732 470.445,210.606 446.24,210.835 448.751,183.89 
				453.775,181.607 452.404,170.646 			"/>
		</g>
	</g>
	<path fill="#720707" d="M350.969,247.623c0,0-4.863-0.72-8.796,3.371c0,0-2.075,2.914-0.833,4.709c0,0,1.005,1.167,2.23,1.066
		c0,0,1.11-0.503,1.447-0.974c0,0,1.728-0.716,2.146,0.466c0,0,1.642,2.306,1.302,4.765c0,0,0.132,1.582,0.356,2.734
		c0,0,0.834-4.604,2.949-5.782c0,0,2.351-1.508,4.908-0.499c0,0,1.362,0.835,1.833,0.902c0,0,7.941,1.092,5.384-5.912
		c0,0-1.279-2.087-4.04-3.03C359.857,249.44,355.884,247.488,350.969,247.623z"/>
	<path fill="#B76C83" d="M351.104,248.149c0,0-4.04-0.241-6.564,1.853c0,0-1.294,0.804-0.079,1.667c0,0,2.598,0.309,4.73-0.515
		C349.189,251.154,354.131,248.869,351.104,248.149z"/>
</g>
</svg>
