<?xml version="1.0" encoding="utf-8"?>
<!-- Generator: Adobe Illustrator 16.0.0, SVG Export Plug-In . SVG Version: 6.00 Build 0)  -->
<!DOCTYPE svg PUBLIC "-//W3C//DTD SVG 1.1//EN" "http://www.w3.org/Graphics/SVG/1.1/DTD/svg11.dtd">
<svg version="1.1" id="Livello_1" xmlns="http://www.w3.org/2000/svg" xmlns:xlink="http://www.w3.org/1999/xlink" x="0px" y="0px"
	 width="129.663px" height="196.401px" viewBox="31.139 1.902 129.663 196.401"
	 enable-background="new 31.139 1.902 129.663 196.401" xml:space="preserve">
<g>
	<g>
		<path d="M145.003,194.614c-9.76,1.629-21.635,2.44-35.462,2.44c-13.824,0-25.699-0.812-35.622-2.44
			c-9.76-1.626-14.64-3.579-14.64-6.02c0-2.274,4.88-4.227,14.64-6.017c9.923-1.626,21.797-2.439,35.622-2.439
			c13.827,0,25.702,0.813,35.462,2.439c9.923,1.79,14.802,3.742,14.802,6.017C159.805,191.035,154.926,192.988,145.003,194.614
			L145.003,194.614z"/>
		<path d="M144.354,18.453c-0.979,0.488-1.791,1.302-2.278,2.115l-1.302,2.603h1.302c1.952,0.163,3.743,0.65,5.368,1.789
			l0.326,0.326c0.16-1.791,0.976-2.929,2.438-3.742l0.813-0.164h0.487c-2.112,1.627-2.765,3.579-1.952,6.02l0.326,0.65
			c1.139,1.789,2.604,2.277,4.393,1.627c0.488-0.164,0.978-0.488,1.138-0.812c0.651-0.813,1.142-1.626,1.465-2.44l-0.164-0.488
			c1.304-3.09,0.652-5.367-1.95-7.156c-1.139-0.814-2.277-1.303-3.578-1.464C148.744,16.827,146.467,17.152,144.354,18.453
			L144.354,18.453z M145.816,59.443c1.463-2.276,2.603-4.716,3.74-7.156l0.649-1.79l0.326-1.627l-4.882-0.812
			c1.791,0,3.254-0.163,4.393-0.488c1.141-0.326,1.79-0.651,2.277-0.977l1.14-1.789c-2.767,0-4.394-1.301-4.881-4.066v-1.302v-1.139
			c-0.812-0.162-1.787-0.487-2.763-1.139c-0.814-0.65-1.305-1.463-1.143-2.602l0.164-0.327c-0.486-0.161-0.977-0.325-1.302-0.487
			l-2.929-1.953c-0.487-0.324-0.812-0.65-0.977-1.137l0.812-0.164c1.304,1.301,2.767,2.277,4.557,2.765l0.161-0.162
			c0.487,0.488,1.142,0.488,1.953-0.326c0.487-0.488,0.812-0.976,0.975-1.462c0.488-1.627,0.488-3.092-0.321-4.555l-0.166-0.488
			c-2.602-1.789-5.529-2.439-8.781-1.626l-0.488,0.325c-1.628,2.44-2.277,4.879-1.953,7.645c0.162,1.789,0.812,3.578,1.789,5.042
			l1.952,4.555l-1.952-2.439h-0.162l-0.324,2.115l-0.813,2.603l-1.304,2.277l-3.578,5.855c-5.043,8.621-12.197,13.99-21.633,15.94
			l-0.487,0.162l-0.488-0.162l0.488-0.162c8.62-2.928,15.776-8.296,21.146-16.104c1.627-2.278,3.092-4.717,4.23-7.157
			c1.138-2.441,1.951-4.88,2.113-7.158l-0.487-0.977c-1.304-2.277-1.951-4.718-1.951-7.482c0-1.138,0.325-2.276,0.813-3.415
			c0.648-1.464,1.787-2.44,3.576-2.765c1.301-4.393,4.229-6.833,8.621-7.483c4.393-0.651,7.809,0.813,10.086,4.555
			c0.648,0.976,0.813,1.952,0.648,3.09l-0.488,2.277c1.465,1.791,1.629,3.741,0.814,6.018l-0.161,0.651
			c1.464,1.463,2.112,3.253,1.95,5.693c-0.486,2.603-1.95,4.554-4.389,5.693l-1.955,0.814l-1.463,2.927l-1.627,1.301l-0.486,1.627
			l-0.652,1.79c-0.812,2.44-1.95,4.879-3.09,7.156l-2.441,4.229l-1.138,1.627c-2.603,3.742-5.693,7.158-9.435,10.249
			c-4.393,3.74-9.271,6.343-14.965,7.644l-2.439,0.164l0,0h-0.813l0.65-0.326c3.091-1.139,6.019-2.439,8.784-4.066l3.902-2.277
			c1.788-1.138,3.416-2.44,4.881-3.742c2.276-1.789,4.393-3.904,6.344-6.181l2.279-2.927l1.461-1.953l0,0L145.816,59.443
			L145.816,59.443z M150.533,30.49l-1.301-0.976c0.162,2.44-0.652,3.905-2.767,4.556l-0.813,0.161l0.813,2.116l3.091,0.65
			l1.789-0.162c2.604-0.164,4.555-1.464,6.02-3.58l0.65-1.626c0.486-1.463,0.323-2.765-0.326-4.228
			c-1.138,2.601-2.928,3.904-5.529,3.74L150.533,30.49L150.533,30.49z M149.723,39.436l0.16,1.302l1.139,2.277
			c1.14,0.651,2.277,0.813,3.09,0.651l0.326-0.163l1.627-0.326l0.326-0.163l1.137-0.813c1.791-1.79,2.44-3.904,1.951-6.506
			l-0.976-2.603c-1.626,3.253-4.229,4.88-7.97,5.042l-0.812,0.976v0.326H149.723z"/>
		<path fill="#2165AF" d="M144.354,18.453c-0.979,0.488-1.791,1.302-2.278,2.115l-1.302,2.603h1.302
			c1.952,0.163,3.743,0.65,5.368,1.789l0.326,0.326c0.16-1.791,0.976-2.929,2.438-3.742l0.813-0.164h0.487
			c-2.112,1.627-2.765,3.579-1.952,6.02l0.326,0.65c1.139,1.789,2.604,2.277,4.393,1.627c0.488-0.164,0.978-0.488,1.138-0.812
			c0.651-0.813,1.142-1.626,1.465-2.44l-0.164-0.488c1.304-3.09,0.652-5.367-1.95-7.156c-1.139-0.814-2.277-1.303-3.578-1.464
			C148.744,16.827,146.467,17.152,144.354,18.453L144.354,18.453z M145.816,59.443c1.463-2.276,2.603-4.716,3.74-7.156l0.649-1.79
			l0.326-1.627l-4.882-0.812c1.791,0,3.254-0.163,4.393-0.488c1.141-0.326,1.79-0.651,2.277-0.977l1.14-1.789
			c-2.767,0-4.394-1.301-4.881-4.066v-1.302v-1.139c-0.812-0.162-1.787-0.487-2.763-1.139c-0.814-0.65-1.305-1.463-1.143-2.602
			l0.164-0.327c-0.486-0.161-0.977-0.325-1.302-0.487l-2.929-1.953c-0.487-0.324-0.812-0.65-0.977-1.137l0.812-0.164
			c1.304,1.301,2.767,2.277,4.557,2.765l0.161-0.162c0.487,0.488,1.142,0.488,1.953-0.326c0.487-0.488,0.812-0.976,0.975-1.462
			c0.488-1.627,0.488-3.092-0.321-4.555l-0.166-0.488c-2.602-1.789-5.529-2.439-8.781-1.626l-0.488,0.325
			c-1.628,2.44-2.277,4.879-1.953,7.645c0.162,1.789,0.812,3.578,1.789,5.042l1.952,4.555l-1.952-2.439h-0.162l-0.324,2.115
			l-0.813,2.603l-1.304,2.277l-3.578,5.855c-5.043,8.621-12.197,13.99-21.633,15.94l-0.487,0.162l6.669,14.315
			c3.091-1.139,6.02-2.439,8.783-4.066c0-0.326,0.164-0.65,0.324-1.139l0.326-0.651l0.487-0.487
			c0.649-0.488,1.303-0.488,2.114-0.164l0.65,0.164c1.788-1.138,3.416-2.44,4.881-3.742l0.164-0.488l0.162-0.326l0.325-0.488
			l0.322-0.324c-0.16-0.65,0-1.301,0.487-1.789l0.166-0.326c0.16-1.301,0.975-2.115,2.275-2.439l0.814-0.162l0.647,0.162h0.978
			l2.279-2.927l1.461-1.953l0,0c-0.324-0.488-0.487-1.139-0.487-1.789c0-0.488,0.163-0.814,0.651-0.976h0.65L145.816,59.443
			L145.816,59.443z M144.188,61.884L144.188,61.884L144.188,61.884z M150.533,30.49l-1.301-0.976
			c0.162,2.44-0.652,3.905-2.767,4.556l-0.813,0.161l0.813,2.116l3.091,0.65l1.789-0.162c2.604-0.164,4.555-1.464,6.02-3.58
			l0.65-1.626c0.486-1.463,0.323-2.765-0.326-4.228c-1.138,2.601-2.928,3.904-5.529,3.74L150.533,30.49L150.533,30.49z
			 M149.723,39.436l0.16,1.302l1.139,2.277c1.14,0.651,2.277,0.813,3.09,0.651l0.326-0.163l1.627-0.326l0.326-0.163l1.137-0.813
			c1.791-1.79,2.44-3.904,1.951-6.506l-0.976-2.603c-1.626,3.253-4.229,4.88-7.97,5.042l-0.812,0.976v0.326H149.723z"/>
		<path fill="#FFF02B" d="M125.32,78.964l3.902-2.277l-0.65-0.164c-0.812-0.324-1.465-0.324-2.114,0.164l-0.487,0.487l-0.326,0.651
			C125.484,78.313,125.32,78.638,125.32,78.964L125.32,78.964z M134.104,72.945c2.277-1.789,4.394-3.904,6.345-6.181h-0.978
			l-0.647-0.162l-0.814,0.162c-1.302,0.324-2.114,1.138-2.276,2.439l-0.164,0.326c-0.488,0.488-0.648,1.139-0.488,1.789
			l-0.322,0.324l-0.326,0.488l-0.162,0.326L134.104,72.945L134.104,72.945z M144.188,61.884l1.631-2.441l-0.814-0.324h-0.65
			c-0.487,0.162-0.651,0.487-0.651,0.976C143.7,60.745,143.863,61.396,144.188,61.884L144.188,61.884L144.188,61.884z"/>
		<path fill="#2065AF" d="M88.721,149.884l-2.114,1.466l-3.252,2.112c-2.766,1.626-5.856,2.765-9.109,3.578l-8.133,1.464
			c-6.344,0.651-12.525,0.488-18.706-0.324c-3.09-0.488-5.855-1.466-8.621-3.092c-2.767-1.626-4.881-3.904-6.344-6.832l0,0
			l-0.325-0.977v-1.301c-0.162-0.487,0.163-1.139,0.65-1.627c0.812-0.487,1.789-0.813,2.603-0.977l1.139-0.162
			c-0.651,0.324-0.651,0.65,0,1.139l1.463,0.488l0.488,0.487c0.326,0.489,0.65,0.651,0.977,0.813
			c2.604,0.813,3.416-0.162,2.604-3.255l3.415-0.487c-0.162,0.651-0.162,1.302,0.162,1.789c1.463,2.278,3.091,2.44,4.879,0.326
			c0.163,0.487,0.651,0.65,1.302,0.325c1.464-1.14,2.115-2.766,1.789-4.88l1.301-0.65l-0.163,1.465
			c0.814,0.812,1.465,0.812,2.278,0.324l0.488-0.488h0.487c1.464,1.627,3.253,2.115,5.368,1.627
			c2.766-0.813,3.743-2.276,2.766-4.555l0.162-1.138c0.326-1.791-0.162-3.253-1.463-4.394c1.301-1.137,2.44-2.438,3.578-3.901
			l0.65-0.978l2.602-5.205L88.721,149.884L88.721,149.884z"/>
		<path d="M71.641,122.068l0.651-1.625l-2.765,5.041l-2.277,2.929c-0.812,0.813-1.789,1.788-3.254,2.927l-4.066,3.092
			c-1.789,1.463-3.579,2.764-5.692,3.904l-0.164,0.162c-1.301,0.812-2.766,1.463-4.229,1.95c-1.302,0.487-2.604,0.976-4.067,1.139
			l-2.766,0.163H42.2c-2.439-0.163-4.716,0-7.157,0.812c-3.904,1.302-4.881,3.742-2.928,7.32c1.463,2.93,3.741,5.204,6.832,6.668
			c2.929,1.465,6.019,2.44,9.271,2.93l9.598,0.648c6.344,0.164,12.688-0.486,19.032-1.951c2.44-0.488,4.879-1.465,6.995-2.764
			c1.299-0.814,2.44-1.627,3.415-2.604l2.44-2.767l-0.163-0.487l-0.813,0.325l-2.114,1.466l-3.252,2.112
			c-2.766,1.626-5.856,2.765-9.109,3.578l-8.133,1.464c-6.344,0.65-12.525,0.488-18.706-0.325c-3.09-0.487-5.855-1.465-8.621-3.091
			c-2.767-1.626-4.881-3.904-6.344-6.832l0,0l-0.325-0.977v-1.301c-0.162-0.487,0.163-1.139,0.65-1.627
			c0.812-0.488,1.789-0.813,2.603-0.977l1.139-0.162l5.205-0.326h0.326l3.415-0.486c2.764-0.487,5.53-1.303,8.132-2.439l1.301-0.65
			c2.115-1.139,4.066-2.275,5.856-3.74l4.067-3.416c1.301-1.139,2.44-2.438,3.578-3.902l0.65-0.977L71.641,122.068L71.641,122.068z"
			/>
		<path fill="#FFF02B" d="M36.508,143.214l5.205-0.325h0.326c0.812,3.092,0,4.067-2.604,3.254c-0.326-0.162-0.65-0.324-0.977-0.813
			l-0.488-0.487l-1.463-0.488C35.856,143.864,35.856,143.538,36.508,143.214L36.508,143.214z M45.454,142.4
			c2.764-0.487,5.53-1.303,8.132-2.439c0.326,2.114-0.325,3.74-1.789,4.88c-0.651,0.325-1.139,0.162-1.302-0.325
			c-1.788,2.114-3.417,1.952-4.879-0.326C45.292,143.701,45.292,143.052,45.454,142.4L45.454,142.4z M54.887,139.311
			c2.115-1.139,4.066-2.275,5.856-3.74l4.067-3.416c1.301,1.14,1.79,2.602,1.463,4.393l-0.162,1.139
			c0.977,2.276,0,3.739-2.766,4.555c-2.114,0.488-3.904,0-5.368-1.629H57.49l-0.488,0.488c-0.813,0.488-1.464,0.488-2.278-0.324
			L54.887,139.311L54.887,139.311z"/>
		<path d="M104.988,147.768l-0.65-0.322v0.486c0.162,1.139,0.325,2.276,0.65,3.252l0.486,2.116l2.766,14.479
			c0.652,3.412,1.465,6.83,2.277,10.246c0.813,2.603,1.625,5.203,2.767,7.646l1.139,2.438l0.812,0.812
			c1.953,0.977,4.066,1.788,6.184,2.276l3.738,0.487l4.88,0.651l5.207,0.488l4.228,0.323l3.418-0.323l3.416-0.651l3.092-0.977
			l1.625-0.65l1.302-0.162c1.465-0.326,2.766-0.974,3.903-2.113h1.463c1.789-0.812,2.768-2.276,2.604-4.391
			c0-2.115-0.651-4.066-1.79-5.857l-0.977-0.977l-1.788-1.787l-2.114-1.303l-2.439-0.977c-0.813-0.489-1.627-0.649-2.439-0.813
			l-2.604-0.487l-2.603-0.324l-2.438-0.326l-2.604-0.161h-2.604l-5.205,0.323l-0.324-0.977l-0.977-2.602l-1.14-3.578l-0.813-2.93
			l-0.812-2.929l-0.812-3.091l-0.652-2.929l-0.65-3.091l-0.486-3.09l-0.326-1.627l-0.812-4.554v0.488v2.601l0.163,1.953l0.325,3.09
			l0.488,2.93l0.322,1.953l0.326,1.625l0.163,0.162l0.326,1.627v0.324l0.489,1.952l0.486,1.952l0.486,1.79l0.327,0.976l0.321,0.814
			l2.281,6.832l0.323,0.648l-0.487,0.327l-0.164,0.162l-0.976,0.325l-0.813,0.16h0.813l7.481-0.324l3.742-0.161l1.627,0.161
			c2.765,0.164,5.369,0.65,7.482,1.301l1.139,0.327l2.276,0.651c1.14,0.485,2.276,0.975,3.092,1.463l1.627,1.138l0.648,0.649
			l0.325,0.326c1.465,2.114,1.791,4.556,1.138,6.996c-0.161,1.135-0.812,1.788-1.787,2.111c0.649-2.111,0.487-4.227-0.485-6.18
			l-0.326-0.649c-0.978-1.142-2.115-1.953-3.58-2.44c0.488,0.487,0.977,0.977,1.627,1.465l0.813,0.812l0.648,1.142l0.489,1.138
			l0.162,0.976l0.164,0.978l-0.164,0.487l-0.162,0.812l-0.164,0.65l-0.487,0.812l-0.649,0.815c-0.976,0.812-2.115,1.625-3.416,2.11
			l1.463-2.11l0.325-1.303l0.164-0.49v-0.646v-1.304l-0.164-0.488l-0.487-0.975l-0.324-0.489l-0.977-0.649l-2.439-1.625l0.326,0.812
			l0.649,0.322l0.978,0.814c1.463,1.788,1.787,3.58,0.648,5.692l-0.162,0.325l-0.324,0.488l-0.651,0.812l-0.326,0.324l-0.647,0.326
			l-1.467,0.648l-3.742,0.65c-3.088,0.162-6.018,0.162-8.943,0l-5.531-0.488l-3.415-0.162c-2.767-0.162-5.205-0.648-7.646-1.787
			l-2.439-1.141l-0.812-0.649l-0.488-0.326l-0.325-0.489l-0.649-1.785l-0.486-1.627l-1.465-5.53l-0.65-2.765l-2.604-11.713v0.162
			l-2.603-13.502L104.988,147.768L104.988,147.768z"/>
		<path fill="#2065AF" d="M122.88,140.287v2.602l0.163,1.952l-0.977,1.302l-0.976,1.463l-0.489,0.813l-0.324,1.953l0.488,0.812
			l1.139,1.303l0.65,0.649l0.649,0.652c0.325,0.323,0.813,0.487,1.301,0.649l0.163,0.162l0.326,1.627h-1.139l-1.789-0.324
			c-0.649-0.164-1.14,0.16-1.301,0.812l0.161,0.978l0.65,0.652l0.813,0.812l0.649,0.812l0.649,0.488l1.463,0.162
			c0.328-0.162,0.654-0.324,0.814-0.162l0.487,1.79l0.327,0.977l-0.652-0.162l-0.648-0.326c-0.814-0.65-1.465-0.487-1.627,0.488
			c-0.326,1.139-0.164,1.951,0.648,2.438c0.163,0.164,0.327,0.325,0.327,0.651c0.162,0.488,0.162,0.977-0.164,1.465
			c-0.489,0.812-0.489,1.463,0,2.275c0.164,0.489,0.651,0.649,1.302,0.814l2.602,0.162l0.815-0.162l0.324,0.648l-0.487,0.327
			l-0.164,0.162l-0.976,0.325l-0.813,0.16h0.813l7.481-0.324l3.742-0.161l1.627,0.161c2.765,0.164,5.368,0.65,7.482,1.301
			l1.139,0.327l2.276,0.651c1.14,0.485,2.276,0.975,3.092,1.463l1.627,1.138l0.647,0.649l0.326,0.326
			c1.465,2.114,1.791,4.556,1.138,6.996c-0.161,1.135-0.812,1.788-1.787,2.111c0.649-2.111,0.487-4.227-0.485-6.179l-0.326-0.65
			c-0.978-1.141-2.115-1.953-3.58-2.44c0.488,0.487,0.977,0.977,1.627,1.465l0.813,0.812l0.647,1.142l0.49,1.138l0.162,0.976
			l0.164,0.978l-0.164,0.487l-0.162,0.812l-0.164,0.65l-0.487,0.812l-0.649,0.815c-0.976,0.812-2.115,1.625-3.416,2.111l1.463-2.111
			l0.325-1.303l0.164-0.49v-0.646v-1.304l-0.164-0.488l-0.487-0.975l-0.324-0.489l-0.977-0.649l-2.439-1.625l0.326,0.812
			l0.649,0.322l0.978,0.814c1.463,1.788,1.787,3.58,0.648,5.692l-0.162,0.325l-0.324,0.488l-0.651,0.812l-0.326,0.324l-0.647,0.326
			l-1.467,0.648l-3.742,0.65c-3.088,0.162-6.018,0.162-8.943,0l-5.531-0.488l-3.415-0.162c-2.767-0.162-5.205-0.648-7.646-1.787
			l-2.439-1.14l-0.812-0.65l-0.488-0.325l-0.325-0.49l-0.649-1.785l-0.486-1.627l-1.465-5.53l-0.65-2.765l-2.604-11.713v0.162
			l-2.603-13.502l-1.138-1.627L122.88,140.287L122.88,140.287z M129.389,170.868L129.389,170.868L129.389,170.868z"/>
		<path fill="#FFF02B" d="M123.043,144.841l0.325,3.091l0.489,2.928l0.322,1.953l0.325,1.627c-0.487-0.162-0.976-0.326-1.301-0.65
			l-0.649-0.652l-0.65-0.648l-1.139-1.303l-0.488-0.812l0.324-1.953l0.489-0.812l0.976-1.463L123.043,144.841L123.043,144.841z
			 M124.995,156.227v0.325l0.489,1.952l0.486,1.952c-0.162-0.162-0.486,0-0.814,0.162l-1.463-0.162l-0.65-0.488l-0.648-0.812
			l-0.814-0.812l-0.65-0.652l-0.162-0.978c0.162-0.649,0.651-0.976,1.301-0.812l1.791,0.324H124.995L124.995,156.227z
			 M126.785,163.223l0.322,0.813l2.279,6.832l0,0l-0.814,0.162l-2.602-0.162c-0.65-0.165-1.139-0.325-1.303-0.813
			c-0.488-0.813-0.488-1.464,0-2.275c0.326-0.489,0.326-0.978,0.164-1.465c0-0.326-0.164-0.488-0.327-0.652
			c-0.812-0.487-0.976-1.301-0.647-2.439c0.16-0.976,0.812-1.139,1.627-0.486l0.647,0.324L126.785,163.223L126.785,163.223z"/>
		<path d="M83.517,174.934l0.975,0.327l2.441,0.649c-3.904-0.488-7.321-0.488-10.249,0.162c-2.928,0.65-4.878,1.302-5.692,2.113
			l0.487,0.326H69.69c-3.09,0.162-5.694,1.627-7.645,4.394c-0.977,1.3-1.303,2.765-0.814,4.555c0.488,2.438,1.627,4.226,3.742,5.366
			c0.812,0.324,1.627,0.488,2.439,0.488c-1.626-3.578-1.462-6.994,0.325-10.248c0.977-1.627,2.278-2.603,4.069-3.09
			c-2.767,1.789-4.231,4.229-4.394,7.482c-0.162,1.788,0.325,3.414,1.302,4.878c2.116,2.765,4.879,4.065,8.458,3.578l2.278-0.326
			c-2.278-2.274-2.929-5.042-2.115-8.294c0.488-1.787,1.465-3.414,2.927-4.554l1.464-0.976c-2.439,2.114-3.741,4.717-3.741,7.969
			l0.163,2.275c1.79,2.768,4.229,4.231,7.319,4.555c2.928,0.488,5.857,0.326,8.784-0.486c3.903-0.977,6.995-3.253,9.272-6.667
			c1.789-2.604,1.949-5.368,0.812-8.459c-0.488-1.302-0.812-2.604-0.812-4.066c0.324-6.019,0.324-12.2,0.162-18.22l-0.487-10.085
			l-0.163-0.326l0.65,1.628c0.812,5.043,1.14,9.76,1.303,14.312l0.162,9.924c0,2.115-0.162,3.74-0.325,4.718l0,0
			c1.786,3.091,2.112,6.183,0.975,9.599c-0.649,1.785-1.625,3.414-2.928,4.715c-2.439,2.438-5.368,3.903-8.784,4.556
			c-4.88,1.139-9.598,0.649-13.989-1.463c-2.114,1.463-4.553,1.788-6.994,1.138c-1.952-0.488-3.579-1.465-4.88-2.93
			c-2.927,0.488-5.367-0.649-7.156-3.09c-0.813-0.813-1.139-1.789-1.302-2.926c-0.163-3.416,0.813-6.184,3.091-8.297
			c1.952-1.789,4.23-2.604,6.832-2.277c1.463-1.139,3.416-1.951,5.53-2.439l4.229-0.648h1.301l0.163-3.256l1.463-10.572v-0.326
			l0.326-1.787l0.977-6.346l0.651-5.041l0,0l0.161-1.303c0.163-0.488,0.163-0.488,0.163,0v1.303l-0.649,6.668l-0.325,4.065
			l-0.326,3.091l-0.326,3.904l-0.163,0.651l-0.326,5.366v0.326l-0.65,3.254L83.517,174.934L83.517,174.934z"/>
		<path fill="#2165AF" d="M83.517,174.934l0.975,0.327l2.441,0.649c-3.904-0.488-7.321-0.488-10.249,0.162
			c-2.928,0.65-4.878,1.302-5.692,2.113l0.487,0.326H69.69c-3.09,0.162-5.694,1.627-7.645,4.394c-0.977,1.3-1.303,2.765-0.814,4.555
			c0.488,2.438,1.627,4.226,3.742,5.366c0.812,0.324,1.627,0.488,2.439,0.488c-1.626-3.578-1.462-6.994,0.325-10.248
			c0.977-1.627,2.278-2.603,4.069-3.09c-2.767,1.789-4.231,4.229-4.394,7.482c-0.162,1.788,0.325,3.414,1.302,4.878
			c2.116,2.765,4.879,4.065,8.458,3.578l2.278-0.326c-2.278-2.274-2.929-5.042-2.115-8.294c0.488-1.787,1.465-3.414,2.927-4.554
			l1.464-0.976c-2.439,2.114-3.741,4.717-3.741,7.969l0.163,2.275c1.79,2.768,4.229,4.231,7.319,4.555
			c2.928,0.488,5.857,0.326,8.784-0.486c3.903-0.977,6.995-3.253,9.272-6.667c1.789-2.604,1.949-5.368,0.812-8.459
			c-0.488-1.302-0.812-2.604-0.812-4.066c0.324-6.019,0.324-12.2,0.162-18.22l-0.487-10.085l-18.545-2.438v1.301
			c1.464-0.164,2.766,0.162,3.904,0.648c0.813,0.163,1.302,0.651,1.79,1.465c0.162,0.162,0.162,0.488,0.162,0.978l-0.162,1.301
			c0,0.812-0.164,1.627-0.651,2.276c-0.488,0.65-1.302,0.977-2.277,0.814l-1.302,0.161l-0.488,0.815l-0.162,1.137
			c0,0.162-0.162,0.327-0.326,0.486l-0.811,0.328l-0.651,0.323l-0.326,3.091c0.814,0.164,1.464,0.325,2.114,0.651
			c0.65,0.325,0.815,0.813,0.488,1.464l-0.814,0.651l-1.625,0.812l-0.488,0.325l-0.163,0.651l1.465,0.649l0.649,0.326l0.65,0.487
			c1.14,0.812,1.303,1.626,0.165,2.438c-0.488,0.488-0.488,0.815,0,1.141c0.812,0.812,1.138,1.465,0.65,2.113l-0.65,0.327
			l-0.977,0.487l-0.813,0.812L83.517,174.934L83.517,174.934z"/>
		<path fill="#FFF02B" d="M84.654,147.443c1.464-0.164,2.766,0.162,3.904,0.648c0.813,0.163,1.302,0.651,1.79,1.465
			c0.162,0.162,0.162,0.488,0.162,0.978l-0.162,1.301c0,0.812-0.164,1.627-0.651,2.276c-0.488,0.65-1.302,0.977-2.277,0.814
			l-1.302,0.161l-0.488,0.815l-0.162,1.137c0,0.162-0.162,0.327-0.326,0.486l-0.811,0.328l-0.651,0.323l0.325-4.065L84.654,147.443
			L84.654,147.443z M83.354,161.27c0.814,0.164,1.464,0.325,2.114,0.651c0.65,0.325,0.815,0.813,0.488,1.464l-0.814,0.651
			l-1.625,0.812l-0.488,0.325L83.354,161.27L83.354,161.27z M82.866,165.825l1.465,0.649l0.649,0.326l0.65,0.487
			c1.14,0.813,1.303,1.626,0.165,2.438c-0.488,0.487-0.488,0.814,0,1.141c0.812,0.812,1.138,1.464,0.65,2.113l-0.65,0.326
			l-0.977,0.487l-0.813,0.812l-0.488,0.326l-1.626-0.162l0.65-3.254v-0.326L82.866,165.825L82.866,165.825z"/>
		<path d="M92.301,64.974c-0.164,1.79-0.652,3.252-1.464,4.717l-3.254,6.669l-2.765,6.832l-2.928,6.994l-2.603,5.694L78.8,97.018
			l-2.604,6.019l-0.163,0.326l-0.326,0.812l-0.487,1.301l0,0l-1.952,5.205l0,0l-0.326,1.141l-0.651,1.951l-0.651,2.767
			c-0.487,1.951-0.811,4.229-0.975,6.832c0,2.603,0.326,5.042,0.813,7.481c0.488,2.439,1.301,4.555,2.278,6.342
			c0.813,1.789,2.439,3.742,4.717,5.531c2.278,1.789,4.392,3.254,6.344,4.393l0.162,0.326c0.162,0.647-0.162,0.812-1.3,0.486
			c-0.977-0.326-2.766-1.464-5.206-3.578s-4.229-4.23-5.531-6.343c-1.137-1.952-1.789-3.905-2.277-6.021l-0.812-7.154l-0.163-3.743
			l0.487-3.739l0.976-3.58l1.138-3.416l1.627-4.556l0.163-0.325l2.927-6.994l2.766-5.694l2.439-5.367l1.953-4.392l2.765-6.343
			l2.276-5.694L92.301,64.974L92.301,64.974z M103.199,150.046v-0.326c7.807,0.326,14.312-2.114,19.519-7.48
			c4.067-4.229,6.671-8.945,7.97-13.987c1.789-8.945,0.812-17.404-3.252-25.701c-3.578-7.32-6.668-13.828-9.272-19.52
			c-2.438-5.531-4.716-9.922-6.83-13.012l-1.627-2.441l2.276,2.115l1.627,2.439c1.14,1.465,2.438,4.229,4.065,7.971
			c3.417,7.969,6.994,15.778,10.735,23.422c3.904,7.971,4.882,16.104,2.929,24.727c-0.165,0.977-1.303,3.739-3.416,8.133
			c-2.112,4.391-5.69,8.131-10.409,10.896c-4.717,2.929-9.598,3.904-14.313,3.093L103.199,150.046L103.199,150.046z M72.292,110.355
			L72.292,110.355L72.292,110.355z"/>
		<path fill="#2165AF" d="M109.705,67.577l-0.488-1.301c-4.064-4.229-9.433-5.368-16.266-3.253l-0.65,1.952
			c-0.164,1.79-0.652,3.252-1.464,4.717l-3.254,6.669l-2.765,6.832l-2.928,6.994l-2.603,5.694l0.651,0.812l0.161,0.325l0.326,0.488
			c0.326,0.65,0.488,1.302,0.326,1.953l-0.164,1.462l-0.488,0.813l-0.161,0.324l-0.327,0.489l-0.486,0.65
			c-0.325,0.325-0.651,0.487-1.14,0.487h-0.65l-0.325-0.162l-0.326-0.162l-0.488-0.326l-0.163,0.326l0.326,0.812l0,0v0.325
			l-0.326,0.324l0,0l-0.812,0.651l0,0l-1.952,5.205l0,0l0.163,0.164l0.326,0.162l0.326,0.487c0.163,0.489,0.163,0.977-0.163,1.302
			l-0.813,0.65l-0.488,0.164l-0.326,0.16l-0.651,2.768c-0.487,1.951-0.811,4.229-0.975,6.832c0,2.604,0.326,5.042,0.813,7.482
			c0.488,2.438,1.301,4.554,2.278,6.342c0.813,1.789,2.439,3.74,4.717,5.531c2.278,1.787,4.392,3.252,6.344,4.392l18.381,2.928
			v-0.326c7.807,0.326,14.312-2.114,19.52-7.481c4.066-4.228,6.67-8.944,7.969-13.986c1.789-8.945,0.812-17.405-3.252-25.701
			c-3.578-7.32-6.668-13.828-9.272-19.52c-2.438-5.531-4.715-9.922-6.83-13.012L109.705,67.577L109.705,67.577z M107.428,72.619
			c2.439,0.488,4.229,1.953,5.369,4.067c1.137,2.277,2.112,4.554,2.928,6.994l2.113,5.367l2.276,5.043l2.278,5.369l2.112,5.204
			l1.466,3.903c0.975,2.279,1.789,4.555,2.276,6.996c0.649,2.438,0.976,5.041,0.812,7.646c-0.162,2.438-0.812,4.879-1.625,7.156
			l-1.139,2.44c-1.302,2.113-2.929,4.065-4.718,5.692c-0.812,0.647-1.789,1.301-2.929,1.789c-2.114,1.137-4.556,1.95-6.994,2.274
			l-6.182-0.162c-2.438-0.649-4.879-1.625-7.156-2.928c-2.115-1.137-3.904-2.765-5.531-4.718c-1.463-1.788-2.604-3.901-3.579-6.017
			c-0.976-2.115-1.626-4.392-2.114-6.67l-0.488-5.855c0-2.277,0.326-4.555,0.813-6.832l2.114-6.994
			c0.814-2.439,1.626-4.88,2.278-7.32l1.464-5.531l1.952-7.319c0.163-1.139,0.488-2.115,0.976-2.929
			c1.139-2.44,2.765-4.392,5.043-5.693C103.199,72.294,105.314,71.969,107.428,72.619L107.428,72.619z"/>
		<path fill="#FFF02B" d="M79.288,95.88l0.651,0.812l0.161,0.325l0.326,0.488c0.326,0.65,0.488,1.302,0.326,1.953l-0.164,1.462
			l-0.488,0.812l-0.161,0.326l-0.327,0.488l-0.486,0.65c-0.325,0.324-0.651,0.486-1.14,0.486h-0.65l-0.325-0.162l-0.326-0.162
			l-0.488-0.325l2.604-6.019L79.288,95.88L79.288,95.88z M76.033,103.363l0.326,0.812l0,0v0.325l-0.326,0.324l0,0l-0.812,0.651
			l0.487-1.301L76.033,103.363L76.033,103.363z M73.269,110.682l0.163,0.164l0.326,0.162l0.326,0.487
			c0.163,0.489,0.163,0.978-0.163,1.302l-0.813,0.65l-0.488,0.164l-0.326,0.16l0.651-1.95L73.269,110.682L73.269,110.682z
			 M107.428,72.619c2.439,0.488,4.229,1.953,5.369,4.067c1.137,2.277,2.112,4.554,2.928,6.994l2.113,5.367l2.276,5.043l2.278,5.369
			l2.112,5.204l1.466,3.903c0.975,2.279,1.789,4.555,2.276,6.996c0.649,2.438,0.976,5.041,0.812,7.646
			c-0.162,2.438-0.812,4.879-1.625,7.156l-1.139,2.44c-1.302,2.113-2.929,4.065-4.718,5.692c-0.812,0.647-1.789,1.301-2.929,1.789
			c-2.114,1.137-4.556,1.95-6.994,2.274l-6.182-0.162c-2.438-0.649-4.879-1.625-7.156-2.928c-2.115-1.137-3.904-2.765-5.531-4.718
			c-1.463-1.788-2.604-3.901-3.579-6.017c-0.976-2.115-1.626-4.392-2.114-6.67l-0.488-5.855c0-2.277,0.326-4.555,0.813-6.832
			l2.114-6.994c0.814-2.439,1.626-4.88,2.278-7.32l1.464-5.531l1.952-7.319c0.163-1.139,0.488-2.115,0.976-2.929
			c1.139-2.44,2.765-4.392,5.043-5.693C103.199,72.294,105.314,71.969,107.428,72.619L107.428,72.619z"/>
		
			<path fill="none" stroke="#000000" stroke-width="0.6506" stroke-linecap="round" stroke-linejoin="round" stroke-miterlimit="10" d="
			M107.428,72.619c2.439,0.488,4.229,1.953,5.369,4.067c1.137,2.277,2.112,4.554,2.928,6.994l2.113,5.367l2.276,5.043l2.278,5.369
			l2.112,5.204l1.466,3.903c0.975,2.279,1.789,4.555,2.276,6.996c0.649,2.438,0.976,5.041,0.812,7.646
			c-0.162,2.438-0.812,4.879-1.625,7.156l-1.139,2.44c-1.302,2.113-2.929,4.065-4.718,5.692c-0.812,0.647-1.789,1.301-2.929,1.789
			c-2.114,1.137-4.556,1.95-6.994,2.274l-6.182-0.162c-2.438-0.649-4.879-1.625-7.156-2.928c-2.115-1.137-3.904-2.765-5.531-4.718
			c-1.463-1.788-2.604-3.901-3.579-6.017c-0.976-2.115-1.626-4.392-2.114-6.67l-0.488-5.855c0-2.277,0.326-4.555,0.813-6.832
			l2.114-6.994c0.814-2.439,1.626-4.88,2.278-7.32l1.464-5.531l1.952-7.319c0.163-1.139,0.488-2.115,0.976-2.929
			c1.139-2.44,2.765-4.392,5.043-5.693C103.199,72.294,105.314,71.969,107.428,72.619"/>
		<path fill="#FFFFFF" d="M119.139,97.995l0.977,1.465c0.488,0.977,0.814,2.114,0.978,3.252l0.163,2.604
			c-0.163,0.975-0.326,1.949-0.652,2.765l-0.812,2.438l-0.813,1.627l-1.951,2.604c-0.813,0.812-1.627,1.628-2.603,2.115
			c-0.976,0.65-1.952,1.138-3.091,1.464l-1.141,0.323l-3.09,0.326l-2.275-0.326c-0.488-0.161-0.814-0.323-0.977-0.488l-0.813-0.975
			l-0.488-1.301l-0.813-2.768l-0.65-3.252l-0.161-3.417v-3.902l0.486-2.765l0.489-0.813l0.976-0.326l2.116,0.163
			c0.646-0.163,0.974,0.325,0.974,1.14v2.764l0.164,2.928l0.162,2.766l0.487,3.74l0.488,1.627l0.324,0.324h0.812l1.465-0.486
			l0.65-0.325l0.648-0.488l1.305-0.976l1.301-1.303c1.3-1.302,2.113-2.765,2.438-4.555c0.488-1.788,0.164-3.74-0.812-5.528
			c-0.814-1.465-1.791-2.441-3.256-3.092l-2.927-0.651l-3.254-0.163l-2.764,0.326l-2.277,0.488l-2.767,0.812h-0.488
			c-0.488-0.162-0.649-0.487-0.811-0.976c0-0.488,0.161-0.812,0.322-0.975l0.652-1.139c0.488-0.488,0.977-0.814,1.465-0.976
			l1.138-0.488c0.326-0.162,0.975-0.488,2.114-0.65l2.115-0.488l5.204,0.163l3.253,0.813l3.255,1.789
			C117.514,95.88,118.326,96.856,119.139,97.995L119.139,97.995z M120.604,95.718l-0.162-0.488l0,0
			c-0.162-0.65-0.487-1.139-0.977-1.627l-3.09-2.277l-1.305-0.813l-0.975-0.488l-1.953,0.325l-1.463,0.652l0,0l-6.018,0.65l0,0
			c-2.766,0.162-5.205,0.976-6.996,2.113c-1.299,0.977-1.95,1.953-2.114,2.765c-0.161,0.977,0,1.79,0.488,2.278
			c0.488,0.487,1.138,0.651,1.952,0.651l1.627-0.326h0.487l0.165,0.162l0.161,0.326l-0.161,0.163l-0.165,2.765
			c-0.162,5.367,0.326,9.76,1.626,13.501v0.162c0.326,1.14,0.978,2.115,2.115,2.927c0.488,0.327,1.141,0.488,1.951,0.651l3.74-0.163
			c1.141-0.322,2.279-0.602,3.418-1.09l2.492-1.391l2.085-1.769l0.79-0.93l0.162-0.19c1.625-2.438,2.767-5.042,3.416-7.97
			l0.162-0.813v-0.162c0.164-1.791,0-3.416-0.487-4.878l-0.161-0.164l-0.979-2.115l0,0C120.604,97.344,120.768,96.53,120.604,95.718
			L120.604,95.718z"/>
		<path fill="#003366" d="M119.139,97.995l0.977,1.465c0.488,0.977,0.814,2.114,0.978,3.252l0.163,2.604
			c-0.163,0.975-0.326,1.949-0.652,2.765l-0.812,2.438l-0.813,1.627l-1.951,2.604c-0.813,0.812-1.627,1.628-2.603,2.115
			c-0.976,0.65-1.952,1.138-3.091,1.464l-1.141,0.323l-3.09,0.326l-2.275-0.326c-0.488-0.161-0.814-0.323-0.977-0.488l-0.813-0.975
			l-0.488-1.301l-0.813-2.768l-0.65-3.252l-0.161-3.417v-3.902l0.486-2.765l0.489-0.813l0.976-0.326l2.116,0.163
			c0.646-0.163,0.974,0.325,0.974,1.14v2.764l0.164,2.928l0.162,2.766l0.487,3.74l0.488,1.627l0.324,0.324h0.812l1.465-0.486
			l0.65-0.325l0.648-0.488l1.305-0.976l1.301-1.303c1.3-1.302,2.113-2.765,2.438-4.555c0.488-1.788,0.164-3.74-0.812-5.528
			c-0.814-1.465-1.791-2.441-3.256-3.092l-2.927-0.651l-3.254-0.163l-2.764,0.326l-2.277,0.488l-2.767,0.812h-0.488
			c-0.488-0.162-0.649-0.487-0.811-0.976c0-0.488,0.161-0.812,0.322-0.975l0.652-1.139c0.488-0.488,0.977-0.814,1.465-0.976
			l1.138-0.488c0.326-0.162,0.975-0.488,2.114-0.65l2.115-0.488l5.204,0.163l3.253,0.813l3.255,1.789
			C117.514,95.88,118.326,96.856,119.139,97.995L119.139,97.995z"/>
		
			<path fill="none" stroke="#2D2B77" stroke-width="0.6506" stroke-linecap="round" stroke-linejoin="round" stroke-miterlimit="10" d="
			M120.604,95.718l-0.162-0.488l0,0c-0.162-0.65-0.487-1.139-0.977-1.627l-3.09-2.277l-1.305-0.813l-0.975-0.488l-1.953,0.325
			l-1.463,0.652l0,0l-6.018,0.65l0,0c-2.766,0.162-5.205,0.976-6.996,2.113c-1.299,0.977-1.95,1.953-2.114,2.765
			c-0.161,0.977,0,1.79,0.488,2.278c0.488,0.487,1.138,0.651,1.952,0.651l1.627-0.326h0.487l0.165,0.162l0.161,0.326l-0.161,0.163
			l-0.165,2.765c-0.162,5.367,0.326,9.76,1.626,13.501v0.162c0.326,1.14,0.978,2.115,2.115,2.927
			c0.488,0.327,1.141,0.488,1.951,0.651l3.74-0.163c1.141-0.322,2.279-0.602,3.418-1.09l2.492-1.391l2.085-1.769l0.79-0.93
			l0.162-0.19c1.625-2.438,2.767-5.042,3.416-7.97l0.162-0.813v-0.162c0.164-1.791,0-3.416-0.487-4.878l-0.161-0.164l-0.979-2.115
			l0,0C120.604,97.344,120.768,96.53,120.604,95.718"/>
		
			<path fill="none" stroke="#FFFFFF" stroke-width="1.3013" stroke-linecap="round" stroke-linejoin="round" stroke-miterlimit="10" d="
			M112.309,99.133l2.114-0.162h1.302l0,0c2.764,0.162,4.065-0.814,3.74-2.928c-0.326-1.791-1.464-2.441-3.417-2.115
			c-0.323-1.952-1.3-2.765-3.089-2.603c-2.115,0.326-2.604,1.789-1.627,4.555l0,0l0.488,1.138
			C111.982,97.833,112.145,98.483,112.309,99.133"/>
		<path fill="#CC2127" d="M112.309,98.971l2.114-0.163h1.302l0,0c2.764,0.163,4.065-0.813,3.74-2.928
			c-0.326-1.79-1.464-2.44-3.417-2.116c-0.323-1.951-1.3-2.764-3.089-2.602c-2.115,0.325-2.604,1.789-1.627,4.555l0,0l0.488,1.138
			C111.982,97.669,112.145,98.32,112.309,98.971L112.309,98.971z"/>
		<path fill="#2165AF" d="M109.217,48.22v-0.977V48.22L109.217,48.22z M108.729,47.244l-0.162,12.851l0.812,9.108l-17.403-2.927
			c0.488-0.977,0.812-2.115,0.649-3.417l-0.812-6.018L91,51.311c-0.162-1.464-0.488-2.603-0.65-3.091l-0.326-0.325L108.729,47.244
			L108.729,47.244z"/>
		<path d="M109.217,48.22v-0.977v-0.325v0.325l0,0l-0.324-1.301l-0.164,1.301l-0.162,12.851l0.812,9.108l0.326,0.163h0.324
			L109.217,48.22L109.217,48.22z M90.349,48.22l-0.326-0.325l-0.325-0.164h-0.163c0.65,3.416,1.14,6.833,1.626,10.248l0.488,4.554
			l-0.323,3.58l-0.165,0.812v0.163l0.488-0.324l0.327-0.488c0.488-0.977,0.812-2.115,0.649-3.417l-0.812-6.018L91,51.311
			C90.837,49.847,90.511,48.708,90.349,48.22L90.349,48.22z"/>
		<path d="M97.993,49.522h-4.717l1.627,1.951c0.813,1.14,1.626,2.278,2.439,3.742l1.301,2.44c0.488,1.139,1.141,2.115,1.953,2.928
			c0.65,0.814,1.463,1.626,2.439,2.114c1.14,0.652,2.438,0.976,3.576,1.141l2.115-0.326h-1.951c1.14-1.139,1.951-2.603,2.277-4.068
			c0.486-1.789,0.975-3.578,1.627-5.204l0.975-1.626l0.977-1.14l-1.465,1.14l-3.739-1.301l-4.229-1.139
			C101.408,49.685,99.784,49.522,97.993,49.522L97.993,49.522z M90.674,48.871c0.486,0.326,1.139,1.139,1.951,2.441
			c0.651,1.301,1.464,2.927,2.278,5.042c0.813,2.115,1.953,4.229,3.416,6.019c1.465,1.789,3.416,3.09,5.531,3.904
			c2.764,1.138,4.879,0.163,6.018-2.765l2.604-5.856l0.161-0.162l0,0h0.165l-0.165,0.162l-0.323,1.789
			c-0.488,1.953-1.303,3.58-2.115,5.044c-0.813,1.301-1.952,2.277-3.092,2.765c-1.301,0.487-2.926,0.325-4.716-0.487
			c-1.788-0.814-3.254-1.953-4.555-3.742c-2.114-2.928-3.579-5.692-4.555-8.295C92.464,52.287,91.487,50.335,90.674,48.871
			L90.674,48.871L90.674,48.871L90.674,48.871z M97.343,54.565h0.324h0.814h0.65h0.652l0.649,0.162l0.649,0.162l0.487,0.325
			l0.652,0.163l0.977,0.651l0.324,0.163l2.604,0.651c1.139,0.488,2.113,1.463,2.766,2.601h-0.164v0.164
			c-0.324,1.139-0.812,2.277-1.627,3.253l-0.488,0.489c-1.299-0.164-2.438-0.652-3.413-1.141c-1.791-0.812-2.927-2.113-3.741-3.74
			l-1.791-3.579L97.343,54.565L97.343,54.565z"/>
		<path fill="#FFF02B" d="M97.993,49.522h-4.717l1.627,1.951c0.813,1.14,1.626,2.278,2.439,3.742l1.301,2.44
			c0.488,1.139,1.141,2.115,1.953,2.928c0.65,0.814,1.463,1.626,2.439,2.114c1.14,0.652,2.438,0.976,3.576,1.141l2.115-0.326h-1.951
			c1.14-1.139,1.951-2.603,2.277-4.068c0.486-1.789,0.975-3.578,1.627-5.204l0.975-1.626l0.977-1.14l-1.465,1.14l-3.739-1.301
			l-4.229-1.139C101.408,49.685,99.784,49.522,97.993,49.522L97.993,49.522z M112.632,57.492l1.952-7.808l-22.771-4.066h-0.164
			l-0.975,3.252c0.486,0.326,1.139,1.139,1.951,2.441c0.651,1.301,1.464,2.927,2.278,5.042c0.813,2.115,1.953,4.229,3.416,6.019
			c1.465,1.789,3.416,3.09,5.531,3.904c2.764,1.138,4.879,0.163,6.018-2.765l2.604-5.855L112.632,57.492L112.632,57.492
			L112.632,57.492z"/>
		<path fill="#B4262D" d="M97.343,54.565h0.324h0.814h0.65h0.652l0.649,0.162l0.649,0.162l0.487,0.325l0.652,0.163l0.977,0.651
			l0.324,0.163l2.604,0.651c1.139,0.488,2.113,1.463,2.766,2.601h-0.164v0.164c-0.324,1.139-0.812,2.277-1.627,3.253l-0.488,0.489
			c-1.299-0.164-2.438-0.652-3.413-1.141c-1.791-0.812-2.927-2.113-3.741-3.74l-1.791-3.579L97.343,54.565L97.343,54.565z
			 M103.523,56.191l0.164,0.325L103.523,56.191L103.523,56.191z M103.688,56.516l0.488,0.65L103.688,56.516L103.688,56.516z
			 M104.176,57.167l0.487,0.651L104.176,57.167L104.176,57.167z M104.663,57.818l0.325,0.976L104.663,57.818L104.663,57.818z"/>
		
			<path fill="none" stroke="#000000" stroke-width="0.3253" stroke-linecap="round" stroke-linejoin="round" stroke-miterlimit="10" d="
			M97.343,54.565h0.324h0.814h0.65h0.652l0.649,0.162l0.649,0.162l0.487,0.325l0.652,0.163l0.977,0.651l0.324,0.163l2.604,0.651
			c1.139,0.488,2.113,1.463,2.766,2.601 M103.523,56.191l0.164,0.325l0.487,0.65l0.487,0.651l0.326,0.976"/>
		<path d="M91.812,48.383L91.812,48.383L93.6,50.66c1.464,1.464,3.256,2.766,5.043,3.742l2.927,1.463
			c1.791,0.651,3.418,1.139,5.207,1.465l3.09,0.488l2.93-0.164h-0.165h0.165l0,0c2.438-0.162,4.878-0.812,7.156-1.952
			c3.415-1.626,6.505-3.904,8.945-6.832c2.602-3.252,3.903-6.994,4.065-11.061c0.162-2.115-0.487-4.067-1.626-5.694
			c-2.277-3.416-5.529-5.692-9.597-6.668l-2.277-0.488l0,0c-0.651-3.091-1.952-4.879-3.741-5.205
			c-1.789-0.488-3.416-0.163-4.718,0.976l0,0l-1.95-2.439c-1.953-2.115-4.229-3.904-6.67-5.205l-1.303-0.651l1.303-0.162
			c1.465,0,2.93,0.162,4.393,0.65l0.488,0.163l1.627,0.487c0.323-1.139,0.323-2.115-0.164-2.929c-0.488-0.65-1.14-1.138-1.951-1.626
			l-0.978-0.65c2.929-1.139,6.021-1.627,9.271-1.301c-3.088-2.764-6.668-4.554-10.57-5.042c-2.93-0.487-5.531,0.488-7.971,2.765
			l1.302-1.626c-2.928,0.812-4.88,2.115-6.019,3.904c-0.976,1.789-1.464,2.927-1.464,3.578l-0.488,1.465
			c-0.326-0.488-0.488-0.977-0.488-1.465l0.65-2.927c-1.139,0-1.951,0.163-2.603,0.651c-0.65,0.488-1.137,1.301-1.625,2.276
			l-0.327,1.302v1.301l-1.137,0.977c-0.326,0.326-0.488,0.813-0.651,1.626l0.488,0.488l0.812,0.65
			c0.488,0.163,0.815,0.651,1.303,1.302l-0.327,0.976l-0.162,0.488c-0.977,3.904-0.488,7.809,1.625,11.549
			c-1.464,0.162-2.602,0.812-3.415,1.626c-1.79,2.114-2.603,4.229-2.115,6.669c0.813,5.043,3.904,8.296,8.947,9.597h0.162l0,0
			l-0.162-0.162c-1.465-0.814-3.091-1.791-4.554-2.928c-1.628-1.14-2.766-2.766-3.417-4.717c-1.464-4.393,0-7.483,4.229-9.11
			c2.439-0.488,6.345,0.326,11.549,2.604l-2.275,3.091l3.577-3.742c2.766-3.09,6.182-5.367,10.248-6.83
			c3.902-1.465,7.809-1.628,11.875-0.488c2.602,0.651,4.718,1.952,6.504,3.741c2.929,3.252,3.58,6.994,1.953,11.386
			c-1.465,4.066-4.066,7.482-7.646,10.248c-3.741,2.602-7.81,4.066-12.198,4.229l-1.789,0.163c-1.953-0.163-3.902-0.651-5.692-1.14
			l-3.579-1.463l-1.301-0.488l-0.164-0.163v-0.163l-2.438-1.463l-0.164-0.163c-1.301-0.976-2.44-2.114-3.416-3.578l0,0l-0.161-0.326
			c-1.139-1.463-1.791-3.252-2.278-5.205l-0.488-2.115c0.163,1.953,0.488,3.905,1.302,5.694L91.812,48.383L91.812,48.383z
			 M119.139,24.96l-3.252-0.162l-2.438,0.325l-0.163-0.325l-1.952-3.579l0,0l0.324-0.162c2.604-1.464,4.719-0.814,6.506,1.626
			C118.65,23.333,118.977,24.147,119.139,24.96L119.139,24.96L119.139,24.96L119.139,24.96z M113.12,25.286l-0.323-0.326
			c-2.604-4.392-6.02-8.133-10.249-11.224l-0.161-0.163l-1.789-1.139l-1.466,0.488c-0.488,0.325-0.812,0.813-0.977,1.464
			L97.667,16.5h-0.162l-0.162-0.162h-0.164v-0.326l-0.811-0.65c-1.14-0.488-2.279-0.813-3.417-0.651h-0.163
			c-1.789,0.163-2.928,0.651-3.741,1.464c-0.813,0.976-1.301,1.789-1.464,2.604l-0.163,0.813l-0.163,0.163l-0.651-0.814
			l-0.324,0.814c-0.165,0.326-0.327,1.464-0.488,3.253c-0.165,1.79,0.488,4.556,1.625,8.133c1.464-0.163,3.74,0.326,6.507,1.301
			c2.767,0.977,4.393,1.627,4.881,2.115c3.74-4.392,8.458-7.482,14.151-9.271H113.12L113.12,25.286z M104.663,8.693l1.788,0.813
			l1.139,0.814c0.164,0.162,0.326,0.324,0.487,0.812c0.163,0.163,0.325,0.488,0.163,0.977l-0.163,0.65l-0.812-0.325
			c-1.629-0.488-3.254-0.65-4.881-0.65c-0.978-0.163-1.952,0-2.766,0.325c-0.651,0.163-1.139,0.65-1.627,1.138l-0.814-1.301
			l-0.975-0.813l-0.487,0.163l-0.652,0.162c0.652-0.162,1.304,0,1.792,0.488l0.322,0.651c0.326,0.488,0.488,1.138,0.326,1.789v0.488
			V15.2v0.163c-0.812-0.488-1.788-0.976-2.765-1.139l-3.58,0.326l-1.951,0.813l-0.976,0.813l-0.488,0.651l-0.326,0.649l-0.487,1.303
			c-0.814-1.952-1.626-2.929-2.441-3.091l0.488-1.138c0.327-0.488,0.815-0.651,1.465-0.488l0,0l-0.162-0.976l-0.165-1.628
			l0.326-0.813c0.488-0.812,1.301-1.463,2.114-1.952l0.976-0.487l-0.65,1.627v0.812l0.325,1.302
			c0.325,0.488,0.651,0.651,0.976,0.812l0.814-2.115c0.649-1.789,1.626-3.252,3.09-4.554l1.79-1.627L95.392,5.44l-0.163,0.488v0.488
			c1.789-1.138,3.579-1.952,5.531-2.601c2.439-0.813,4.877-0.813,7.317-0.164c2.114,0.488,3.905,1.464,5.53,2.928
			c-2.44-0.488-4.879-0.163-7.156,0.977L104.663,8.693L104.663,8.693z M89.209,40.412l-1.138,0.326h-0.488v-0.164
			c0.163-0.324,0.488-0.487,0.976-0.65l0.162-0.162c0.813-0.163,1.628,0,2.439,0.488h0.165L89.209,40.412L89.209,40.412z
			 M91.16,49.359v-0.163V49.359L91.16,49.359z"/>
		<path fill="#00ABEC" d="M104.663,8.693l1.788,0.813l1.139,0.814c0.164,0.162,0.326,0.324,0.487,0.812
			c0.163,0.163,0.325,0.488,0.163,0.977l-0.163,0.65l-0.812-0.325c-1.629-0.488-3.254-0.65-4.881-0.65
			c-0.978-0.163-1.952,0-2.766,0.325c-0.651,0.163-1.139,0.65-1.627,1.138l-0.814-1.301l-0.975-0.813l-0.487,0.163l-0.652,0.162
			c0.652-0.162,1.304,0,1.792,0.488l0.322,0.651c0.326,0.488,0.488,1.138,0.326,1.789v0.488V15.2v0.163
			c-0.812-0.488-1.788-0.976-2.765-1.139l-3.58,0.326l-1.951,0.813l-0.976,0.813l-0.488,0.651l-0.326,0.649l-0.487,1.303
			c-0.814-1.952-1.626-2.929-2.441-3.091l0.488-1.138c0.327-0.488,0.815-0.651,1.465-0.488l0,0l-0.162-0.976l-0.165-1.628
			l0.326-0.813c0.488-0.812,1.301-1.463,2.114-1.952l0.976-0.487l-0.65,1.627v0.812l0.325,1.302
			c0.325,0.488,0.651,0.651,0.976,0.812l0.814-2.115c0.649-1.789,1.626-3.252,3.09-4.554l1.79-1.627L95.392,5.44l-0.163,0.488v0.488
			c1.789-1.138,3.579-1.952,5.531-2.601c2.439-0.813,4.877-0.813,7.317-0.164c2.114,0.488,3.905,1.464,5.53,2.928
			c-2.44-0.488-4.879-0.163-7.156,0.977L104.663,8.693L104.663,8.693z"/>
		<path fill="#FFF02B" d="M90.837,49.034c-1.465-0.814-3.091-1.791-4.554-2.928c-1.628-1.14-2.766-2.766-3.417-4.717
			c-1.464-4.393,0-7.483,4.229-9.11c2.439-0.488,6.345,0.326,11.549,2.604l-2.275,3.091l3.577-3.742
			c2.766-3.09,6.182-5.367,10.248-6.83c3.902-1.465,7.809-1.628,11.875-0.488c2.602,0.651,4.718,1.952,6.505,3.741
			c2.928,3.252,3.579,6.994,1.952,11.386c-1.465,4.066-4.066,7.482-7.646,10.248c-3.741,2.602-7.81,4.066-12.198,4.229l-1.789,0.163
			c-1.953-0.163-3.902-0.651-5.692-1.14l-3.579-1.463L98.32,53.59l-0.164-0.163v-0.163l-2.438-1.463l-0.164-0.163
			c-1.301-0.976-2.44-2.114-3.416-3.578l0,0l-0.161-0.326c-1.139-1.463-1.791-3.252-2.278-5.205l-0.488-2.115
			c0.163,1.953,0.488,3.905,1.302,5.694l1.302,2.277L90.837,49.034L90.837,49.034z M119.139,24.96l-3.252-0.162l-2.438,0.325
			l-0.163-0.325l-1.952-3.579l0,0l0.324-0.162c2.604-1.464,4.719-0.814,6.506,1.626C118.65,23.333,118.977,24.147,119.139,24.96
			L119.139,24.96L119.139,24.96z M89.209,40.412l-1.138,0.326h-0.488v-0.164c0.163-0.324,0.488-0.487,0.976-0.65l0.162-0.162
			c0.813-0.163,1.628,0,2.439,0.488h0.165L89.209,40.412L89.209,40.412z"/>
		<path fill="#2165AF" d="M113.12,25.286l-0.323-0.326c-2.604-4.392-6.02-8.133-10.249-11.224l-0.161-0.163l-1.789-1.139
			l-1.466,0.488c-0.488,0.325-0.812,0.813-0.977,1.464L97.667,16.5h-0.162l-0.162-0.162h-0.164v-0.326l-0.811-0.65
			c-1.14-0.488-2.279-0.813-3.417-0.651h-0.163c-1.789,0.163-2.928,0.651-3.741,1.464c-0.813,0.976-1.301,1.789-1.464,2.604
			l-0.163,0.813l-0.163,0.163l-0.651-0.814l-0.324,0.814c-0.165,0.326-0.327,1.464-0.488,3.253c-0.165,1.79,0.488,4.556,1.625,8.133
			c1.464-0.163,3.74,0.326,6.507,1.301c2.767,0.977,4.393,1.627,4.881,2.115c3.74-4.392,8.458-7.482,14.151-9.271H113.12
			L113.12,25.286z"/>
		<path fill="#BCB325" d="M110.029,33.093h0.326c0.812,0,1.465,0.326,1.951,1.138c0.489,0.813,0.812,1.628,0.812,2.766
			c0,1.139-0.323,1.952-0.812,2.766l-0.486,0.488c0.812-0.163,1.464-0.488,1.951-1.139c0.487-0.814,0.812-1.627,0.812-2.765
			c0-1.139-0.324-1.953-0.812-2.765c-0.487-0.814-1.301-1.139-2.115-1.139C111.167,32.442,110.518,32.604,110.029,33.093
			L110.029,33.093z"/>
		<path fill="#1F579A" d="M110.029,33.093h0.326c0.812,0,1.465,0.326,1.951,1.138c0.489,0.813,0.812,1.628,0.812,2.766
			c0,1.139-0.323,1.952-0.812,2.766l-0.486,0.488h-0.164c-0.812,0-1.465-0.326-1.951-1.139c-0.488-0.814-0.812-1.627-0.812-2.765
			c0-1.139,0.324-1.953,0.812-2.765L110.029,33.093L110.029,33.093z"/>
		
			<path fill="none" stroke="#000000" stroke-width="0.3253" stroke-linecap="round" stroke-linejoin="round" stroke-miterlimit="10" d="
			M110.029,33.093h0.326c0.812,0,1.465,0.326,1.951,1.138c0.489,0.813,0.812,1.628,0.812,2.766c0,1.139-0.323,1.952-0.812,2.766
			l-0.486,0.488c0.812-0.163,1.464-0.488,1.951-1.139c0.487-0.814,0.812-1.627,0.812-2.765c0-1.139-0.324-1.953-0.812-2.765
			c-0.487-0.814-1.301-1.139-2.115-1.139C111.167,32.442,110.518,32.604,110.029,33.093l-0.324,0.488
			c-0.488,0.812-0.812,1.626-0.812,2.765c0,1.138,0.324,1.951,0.812,2.765c0.486,0.813,1.139,1.139,1.951,1.139h0.164"/>
		<path fill="#FFFFFF" d="M101.083,17.315l0.487-0.814c1.141-1.138,3.256-0.325,6.184,2.44c1.951,2.278,3.413,4.555,4.229,6.669
			c-2.114,0.813-3.904,1.627-5.369,2.44l0,0C102.387,22.683,100.598,19.104,101.083,17.315L101.083,17.315z M93.276,20.405
			l0.488-0.488c0.65-0.488,1.627-0.65,2.765-0.162c1.138,0.487,2.114,0.976,3.091,1.79c0.813,0.813,1.627,1.626,2.438,2.603
			c0.813,0.976,1.303,2.114,1.791,3.253c0.325,0.812,0.487,1.463,0.649,1.952l-4.88,4.391c-0.488-0.488-1.139-0.977-1.789-1.627
			l-2.278-3.09c-0.812-0.976-1.301-1.951-1.788-3.09c-0.488-1.138-0.813-2.277-0.813-3.415l0.161-1.464V20.73L93.276,20.405
			L93.276,20.405z"/>
		<path d="M92.625,14.387v0.325l-1.3,0.651l-0.488,0.488l-0.326,0.488l-0.162,0.488l-0.164,0.813v0.976v1.139v0.65
			c-0.487-0.488-0.976-0.978-1.301-1.789l-0.163-0.651l-0.162-0.488v-0.649v-0.651c0.325-0.651,0.813-1.139,1.464-1.464l0.488-0.162
			l0.488-0.163l0.649-0.163H92.3L92.625,14.387L92.625,14.387z"/>
		
			<path fill="none" stroke="#000000" stroke-width="0.3253" stroke-linecap="round" stroke-linejoin="round" stroke-miterlimit="10" d="
			M92.625,14.387v0.325l-1.3,0.651l-0.488,0.488l-0.326,0.488l-0.162,0.488l-0.164,0.813v0.976v1.139v0.65
			c-0.487-0.488-0.976-0.978-1.301-1.789l-0.163-0.651l-0.162-0.488v-0.649v-0.651c0.325-0.651,0.813-1.139,1.464-1.464l0.488-0.162
			l0.488-0.163l0.649-0.163H92.3L92.625,14.387 M91.16,20.73c-0.486-3.903,0.652-5.531,3.416-4.718"/>
		
			<path fill="none" stroke="#000000" stroke-width="0.6506" stroke-linecap="round" stroke-linejoin="round" stroke-miterlimit="10" d="
			M101.083,17.315l0.487-0.814c1.141-1.138,3.256-0.325,6.184,2.44c1.951,2.278,3.413,4.555,4.229,6.669 M106.613,28.05
			c-4.229-5.368-6.018-8.946-5.53-10.735c0.164-1.302,0.813-2.115,1.628-2.44 M93.276,20.405l0.488-0.488
			c0.65-0.488,1.627-0.65,2.765-0.162c1.138,0.487,2.114,0.976,3.091,1.79c0.813,0.813,1.627,1.626,2.438,2.603
			c0.813,0.976,1.303,2.114,1.791,3.253c0.325,0.812,0.487,1.463,0.649,1.952 M99.62,33.743c-0.488-0.488-1.139-0.977-1.789-1.627
			l-2.278-3.09c-0.812-0.976-1.301-1.951-1.788-3.09c-0.488-1.138-0.813-2.277-0.813-3.415l0.161-1.464V20.73l0.164-0.325
			c0.163-1.139,0.812-1.952,1.627-2.277"/>
	</g>
	<g>
		<g>
			<defs>
				<path id="SVGID_1_" d="M111.982,25.61c-2.115,0.813-3.905,1.627-5.369,2.44l0,0c-4.717-6.018-6.506-9.922-5.043-11.549
					c1.141-1.138,3.256-0.325,6.184,2.44C109.705,21.219,111.167,23.496,111.982,25.61L111.982,25.61z M103.85,27.4
					c0.326,0.812,0.488,1.463,0.65,1.952l-4.88,4.391c-0.488-0.488-1.139-0.977-1.789-1.627l-2.278-3.09
					c-0.812-0.976-1.301-1.951-1.788-3.09c-0.488-1.138-0.813-2.277-0.813-3.415c-0.163-1.14,0.161-2.115,0.813-2.604
					c0.65-0.488,1.627-0.65,2.765-0.162c1.138,0.487,2.114,0.976,3.091,1.79c0.813,0.813,1.627,1.626,2.439,2.603
					C102.873,25.123,103.361,26.261,103.85,27.4L103.85,27.4z"/>
			</defs>
			<clipPath id="SVGID_2_">
				<use xlink:href="#SVGID_1_"  overflow="visible"/>
			</clipPath>
			<path clip-path="url(#SVGID_2_)" fill="#00ABEC" d="M99.132,24.96c0.813-0.488,1.628-0.325,2.438,0.163
				c0.978,0.487,1.791,1.138,2.441,2.114c0.487,1.138,0.813,2.276,0.65,3.252c-0.163,1.139-0.65,1.789-1.301,2.277
				c-0.814,0.488-1.791,0.488-2.604-0.162c-0.976-0.488-1.791-1.138-2.44-2.115c-0.488-1.138-0.652-2.277-0.488-3.252
				C97.993,26.099,98.319,25.448,99.132,24.96L99.132,24.96z M99.296,27.724l-0.164,0.326c0,0.489,0.164,1.139,0.488,1.951
				c0.325,0.652,0.813,1.139,1.302,1.303c0.486,0.324,1.139,0.324,1.626,0.162c0.325-0.326,0.488-0.813,0.651-1.465
				c0.162-0.488,0-1.138-0.326-1.789c-0.325-0.649-0.812-1.137-1.465-1.463c-0.486-0.325-0.975-0.325-1.463-0.162l-0.487,0.65
				L99.296,27.724L99.296,27.724L99.296,27.724z"/>
		</g>
		<g>
			<defs>
				<path id="SVGID_3_" d="M111.982,25.61c-2.115,0.813-3.905,1.627-5.369,2.44l0,0c-4.717-6.018-6.506-9.922-5.043-11.549
					c1.141-1.138,3.256-0.325,6.184,2.44C109.705,21.219,111.167,23.496,111.982,25.61L111.982,25.61z M103.85,27.4
					c0.326,0.812,0.488,1.463,0.65,1.952l-4.88,4.391c-0.488-0.488-1.139-0.977-1.789-1.627l-2.278-3.09
					c-0.812-0.976-1.301-1.951-1.788-3.09c-0.488-1.138-0.813-2.277-0.813-3.415c-0.163-1.14,0.161-2.115,0.813-2.604
					c0.65-0.488,1.627-0.65,2.765-0.162c1.138,0.487,2.114,0.976,3.091,1.79c0.813,0.813,1.627,1.626,2.439,2.603
					C102.873,25.123,103.361,26.261,103.85,27.4L103.85,27.4z"/>
			</defs>
			<clipPath id="SVGID_4_">
				<use xlink:href="#SVGID_3_"  overflow="visible"/>
			</clipPath>
			<path clip-path="url(#SVGID_4_)" d="M99.458,27.237v-0.162h0.649c0.326,0.162,0.489,0.488,0.489,0.649
				c0.163,0.164,0.325,0.488,0.163,0.651l-0.163,0.488h-0.651c-0.161,0-0.325-0.163-0.487-0.488l-0.162-0.651l-0.164,0.326
				c0,0.489,0.164,1.139,0.488,1.951c0.325,0.652,0.813,1.139,1.302,1.303c0.486,0.324,1.139,0.324,1.626,0.162
				c0.325-0.326,0.488-0.813,0.651-1.465c0.162-0.488,0-1.138-0.326-1.789c-0.325-0.649-0.812-1.137-1.465-1.463
				c-0.486-0.325-0.975-0.325-1.463-0.162L99.458,27.237L99.458,27.237z"/>
		</g>
		<g>
			<defs>
				<path id="SVGID_5_" d="M111.982,25.61c-2.115,0.813-3.905,1.627-5.369,2.44l0,0c-4.717-6.018-6.506-9.922-5.043-11.549
					c1.141-1.138,3.256-0.325,6.184,2.44C109.705,21.219,111.167,23.496,111.982,25.61L111.982,25.61z M103.85,27.4
					c0.326,0.812,0.488,1.463,0.65,1.952l-4.88,4.391c-0.488-0.488-1.139-0.977-1.789-1.627l-2.278-3.09
					c-0.812-0.976-1.301-1.951-1.788-3.09c-0.488-1.138-0.813-2.277-0.813-3.415c-0.163-1.14,0.161-2.115,0.813-2.604
					c0.65-0.488,1.627-0.65,2.765-0.162c1.138,0.487,2.114,0.976,3.091,1.79c0.813,0.813,1.627,1.626,2.439,2.603
					C102.873,25.123,103.361,26.261,103.85,27.4L103.85,27.4z"/>
			</defs>
			<clipPath id="SVGID_6_">
				<use xlink:href="#SVGID_5_"  overflow="visible"/>
			</clipPath>
			<path clip-path="url(#SVGID_6_)" fill="#FFFFFF" d="M99.458,27.237v-0.162h0.649c0.326,0.162,0.489,0.488,0.489,0.649
				c0.163,0.164,0.325,0.488,0.163,0.651l-0.163,0.488h-0.651c-0.161,0-0.325-0.163-0.487-0.488l-0.162-0.651L99.458,27.237
				L99.458,27.237z M99.296,27.724L99.296,27.724L99.296,27.724z"/>
		</g>
		<g>
			<defs>
				<path id="SVGID_7_" d="M111.982,25.61c-2.115,0.813-3.905,1.627-5.369,2.44l0,0c-4.717-6.018-6.506-9.922-5.043-11.549
					c1.141-1.138,3.256-0.325,6.184,2.44C109.705,21.219,111.167,23.496,111.982,25.61L111.982,25.61z M103.85,27.4
					c0.326,0.812,0.488,1.463,0.65,1.952l-4.88,4.391c-0.488-0.488-1.139-0.977-1.789-1.627l-2.278-3.09
					c-0.812-0.976-1.301-1.951-1.788-3.09c-0.488-1.138-0.813-2.277-0.813-3.415c-0.163-1.14,0.161-2.115,0.813-2.604
					c0.65-0.488,1.627-0.65,2.765-0.162c1.138,0.487,2.114,0.976,3.091,1.79c0.813,0.813,1.627,1.626,2.439,2.603
					C102.873,25.123,103.361,26.261,103.85,27.4L103.85,27.4z"/>
			</defs>
			<clipPath id="SVGID_8_">
				<use xlink:href="#SVGID_7_"  overflow="visible"/>
			</clipPath>
			
				<path clip-path="url(#SVGID_8_)" fill="none" stroke="#000000" stroke-width="0.3253" stroke-linecap="round" stroke-linejoin="round" stroke-miterlimit="10" d="
				M99.132,24.96c0.813-0.488,1.628-0.325,2.438,0.163c0.978,0.487,1.791,1.138,2.441,2.114c0.487,1.138,0.813,2.276,0.65,3.252
				c-0.163,1.139-0.65,1.789-1.301,2.277c-0.814,0.488-1.791,0.488-2.604-0.162c-0.976-0.488-1.791-1.138-2.44-2.115
				c-0.488-1.138-0.652-2.277-0.488-3.252C97.993,26.099,98.319,25.448,99.132,24.96"/>
		</g>
		<g>
			<defs>
				<path id="SVGID_9_" d="M111.982,25.61c-2.115,0.813-3.905,1.627-5.369,2.44l0,0c-4.717-6.018-6.506-9.922-5.043-11.549
					c1.141-1.138,3.256-0.325,6.184,2.44C109.705,21.219,111.167,23.496,111.982,25.61L111.982,25.61z M103.85,27.4
					c0.326,0.812,0.488,1.463,0.65,1.952l-4.88,4.391c-0.488-0.488-1.139-0.977-1.789-1.627l-2.278-3.09
					c-0.812-0.976-1.301-1.951-1.788-3.09c-0.488-1.138-0.813-2.277-0.813-3.415c-0.163-1.14,0.161-2.115,0.813-2.604
					c0.65-0.488,1.627-0.65,2.765-0.162c1.138,0.487,2.114,0.976,3.091,1.79c0.813,0.813,1.627,1.626,2.439,2.603
					C102.873,25.123,103.361,26.261,103.85,27.4L103.85,27.4z"/>
			</defs>
			<clipPath id="SVGID_10_">
				<use xlink:href="#SVGID_9_"  overflow="visible"/>
			</clipPath>
			<path clip-path="url(#SVGID_10_)" fill="#00ABEC" d="M106.289,21.707c0.65-0.488,1.627-0.65,2.766-0.326
				c0.975,0.326,1.789,0.977,2.439,2.115c0.812,0.977,1.138,1.952,1.138,3.091c-0.161,1.137-0.487,1.952-1.138,2.439
				c-0.65,0.488-1.627,0.488-2.766,0.163c-0.976-0.488-1.789-1.139-2.439-2.277c-0.814-0.813-1.139-1.952-0.975-3.091
				C105.314,22.845,105.637,22.194,106.289,21.707L106.289,21.707z M106.777,24.472v0.163c0,0.813,0.162,1.464,0.649,1.952
				c0.326,0.488,0.812,0.813,1.628,1.137c0.485,0.164,0.975,0.164,1.463-0.161c0.325-0.326,0.487-0.814,0.487-1.303
				c0-0.65-0.162-1.301-0.649-1.789c-0.326-0.651-0.814-1.139-1.301-1.301c-0.652-0.163-1.14-0.163-1.628,0.163l-0.487,0.488v0.488
				L106.777,24.472L106.777,24.472z"/>
		</g>
		<g>
			<defs>
				<path id="SVGID_11_" d="M111.982,25.61c-2.115,0.813-3.905,1.627-5.369,2.44l0,0c-4.717-6.018-6.506-9.922-5.043-11.549
					c1.141-1.138,3.256-0.325,6.184,2.44C109.705,21.219,111.167,23.496,111.982,25.61L111.982,25.61z M103.85,27.4
					c0.326,0.812,0.488,1.463,0.65,1.952l-4.88,4.391c-0.488-0.488-1.139-0.977-1.789-1.627l-2.278-3.09
					c-0.812-0.976-1.301-1.951-1.788-3.09c-0.488-1.138-0.813-2.277-0.813-3.415c-0.163-1.14,0.161-2.115,0.813-2.604
					c0.65-0.488,1.627-0.65,2.765-0.162c1.138,0.487,2.114,0.976,3.091,1.79c0.813,0.813,1.627,1.626,2.439,2.603
					C102.873,25.123,103.361,26.261,103.85,27.4L103.85,27.4z"/>
			</defs>
			<clipPath id="SVGID_12_">
				<use xlink:href="#SVGID_11_"  overflow="visible"/>
			</clipPath>
			<path clip-path="url(#SVGID_12_)" d="M106.939,23.821h0.162c0.164-0.163,0.325-0.163,0.487,0c0.326,0,0.487,0.163,0.65,0.326
				c0.163,0.325,0.163,0.651,0.163,0.813l-0.163,0.488h-0.486l-0.813-0.325l-0.162-0.651v0.163c0,0.813,0.162,1.464,0.649,1.952
				c0.326,0.488,0.812,0.813,1.628,1.137c0.485,0.164,0.975,0.164,1.463-0.161c0.325-0.326,0.487-0.814,0.487-1.303
				c0-0.65-0.162-1.301-0.649-1.789c-0.326-0.651-0.814-1.139-1.301-1.301c-0.652-0.163-1.14-0.163-1.628,0.163L106.939,23.821
				L106.939,23.821z"/>
		</g>
		<g>
			<defs>
				<path id="SVGID_13_" d="M111.982,25.61c-2.115,0.813-3.905,1.627-5.369,2.44l0,0c-4.717-6.018-6.506-9.922-5.043-11.549
					c1.141-1.138,3.256-0.325,6.184,2.44C109.705,21.219,111.167,23.496,111.982,25.61L111.982,25.61z M103.85,27.4
					c0.326,0.812,0.488,1.463,0.65,1.952l-4.88,4.391c-0.488-0.488-1.139-0.977-1.789-1.627l-2.278-3.09
					c-0.812-0.976-1.301-1.951-1.788-3.09c-0.488-1.138-0.813-2.277-0.813-3.415c-0.163-1.14,0.161-2.115,0.813-2.604
					c0.65-0.488,1.627-0.65,2.765-0.162c1.138,0.487,2.114,0.976,3.091,1.79c0.813,0.813,1.627,1.626,2.439,2.603
					C102.873,25.123,103.361,26.261,103.85,27.4L103.85,27.4z"/>
			</defs>
			<clipPath id="SVGID_14_">
				<use xlink:href="#SVGID_13_"  overflow="visible"/>
			</clipPath>
			<path clip-path="url(#SVGID_14_)" fill="#FFFFFF" d="M106.939,23.821h0.162c0.164-0.163,0.325-0.163,0.487,0
				c0.326,0,0.487,0.163,0.65,0.326c0.163,0.325,0.163,0.651,0.163,0.813l-0.163,0.488h-0.486l-0.813-0.325l-0.162-0.651
				l0.162-0.163V23.821L106.939,23.821z"/>
		</g>
		<g>
			<defs>
				<path id="SVGID_15_" d="M111.982,25.61c-2.115,0.813-3.905,1.627-5.369,2.44l0,0c-4.717-6.018-6.506-9.922-5.043-11.549
					c1.141-1.138,3.256-0.325,6.184,2.44C109.705,21.219,111.167,23.496,111.982,25.61L111.982,25.61z M103.85,27.4
					c0.326,0.812,0.488,1.463,0.65,1.952l-4.88,4.391c-0.488-0.488-1.139-0.977-1.789-1.627l-2.278-3.09
					c-0.812-0.976-1.301-1.951-1.788-3.09c-0.488-1.138-0.813-2.277-0.813-3.415c-0.163-1.14,0.161-2.115,0.813-2.604
					c0.65-0.488,1.627-0.65,2.765-0.162c1.138,0.487,2.114,0.976,3.091,1.79c0.813,0.813,1.627,1.626,2.439,2.603
					C102.873,25.123,103.361,26.261,103.85,27.4L103.85,27.4z"/>
			</defs>
			<clipPath id="SVGID_16_">
				<use xlink:href="#SVGID_15_"  overflow="visible"/>
			</clipPath>
			
				<path clip-path="url(#SVGID_16_)" fill="none" stroke="#000000" stroke-width="0.3253" stroke-linecap="round" stroke-linejoin="round" stroke-miterlimit="10" d="
				M106.289,21.707c0.65-0.488,1.627-0.65,2.766-0.326c0.975,0.326,1.789,0.977,2.439,2.115c0.812,0.977,1.138,1.952,1.138,3.091
				c-0.161,1.137-0.487,1.952-1.138,2.439c-0.65,0.488-1.627,0.488-2.766,0.163c-0.976-0.488-1.789-1.139-2.439-2.277
				c-0.814-0.813-1.139-1.952-0.975-3.091C105.314,22.845,105.637,22.194,106.289,21.707"/>
		</g>
	</g>
	<g>
		<path d="M54.075,13.41c0.976,0.651,1.788,1.465,2.439,2.44c0.651,0.977,1.139,1.953,1.464,2.766h-1.464
			c-2.114,0.163-4.066,0.812-5.856,1.952l-0.487,0.488c-0.163-1.79-0.976-3.253-2.603-4.067l-0.977-0.325h-0.488
			c2.278,1.789,2.928,4.066,2.115,6.669l-0.325,0.813c-1.301,1.789-2.927,2.44-4.88,1.789c-0.488-0.163-0.974-0.488-1.3-0.976
			l-1.465-2.603v-0.651c-1.301-3.253-0.487-5.856,2.277-7.808c1.139-0.812,2.441-1.464,3.906-1.626
			C49.195,11.784,51.635,12.109,54.075,13.41L54.075,13.41z M52.448,58.793c-1.627-2.44-3.09-5.205-4.229-7.97l-0.65-1.953
			l-0.489-1.952l5.532-0.65c-2.116-0.163-3.742-0.326-4.88-0.65c-1.139-0.326-2.115-0.652-2.603-1.139l-1.139-1.953
			c2.927,0.163,4.718-1.302,5.369-4.392V36.67v-1.3c0.977,0,1.951-0.488,3.09-1.301c0.814-0.651,1.302-1.627,1.139-2.765
			l-0.162-0.488c0.488-0.163,0.976-0.326,1.463-0.488l3.254-1.952c0.486-0.488,0.812-0.975,0.975-1.463h-0.812
			c-1.465,1.3-3.092,2.277-5.042,2.927l-0.163-0.162c-0.651,0.488-1.302,0.488-2.115-0.325c-0.488-0.488-0.813-0.977-0.976-1.628
			c-0.65-1.789-0.488-3.415,0.326-5.042v-0.65c2.927-1.952,6.18-2.604,9.758-1.79l0.65,0.488c1.627,2.603,2.277,5.368,2.115,8.458
			c-0.162,2.115-0.976,3.904-2.115,5.53L58.628,39.6l2.115-2.441l0.164-0.163l0.487,2.44l0.814,2.766l1.464,2.603l3.903,6.343
			c5.693,9.598,13.663,15.617,23.912,17.731h0.488l0.488-0.164h-0.327c-9.597-3.252-17.403-9.272-23.423-17.891
			c-1.788-2.604-3.415-5.205-4.717-7.809c-1.3-2.765-2.114-5.368-2.277-7.971l0.488-1.139c1.464-2.439,2.114-5.205,2.114-8.295
			c0-1.138-0.326-2.439-0.814-3.578c-0.812-1.79-2.115-2.766-4.066-3.253c-1.464-4.718-4.555-7.321-9.434-8.135
			c-4.88-0.65-8.621,0.977-11.223,5.043c-0.652,1.139-0.814,2.277-0.652,3.416c0.163,0.813,0.326,1.626,0.652,2.44
			c-1.464,2.114-1.79,4.391-0.977,6.831l0.324,0.65c-1.788,1.464-2.601,3.579-2.114,6.181c0.326,2.928,1.952,5.043,4.718,6.344
			l1.951,0.814l1.791,3.253l1.789,1.463l0.65,1.789l0.489,1.953c0.976,2.765,2.114,5.367,3.415,7.807l2.766,4.88l1.301,1.789
			c2.929,4.067,6.344,7.808,10.248,11.223c4.88,4.068,10.411,6.833,16.591,8.296l2.765,0.326l0,0l0.977-0.163l-0.813-0.164
			c-3.416-1.3-6.669-2.765-9.758-4.392l-4.23-2.601l-5.531-4.229c-2.439-2.115-4.717-4.229-6.831-6.67l-2.604-3.253l-1.626-2.276
			l0,0L52.448,58.793L52.448,58.793z M47.243,26.749l1.301-0.977c-0.163,2.603,0.814,4.229,3.091,5.043l0.977,0.162l-0.977,2.277
			l-3.417,0.65h-1.952c-2.765-0.324-5.042-1.627-6.668-4.066c-0.326-0.487-0.488-1.139-0.65-1.789
			c-0.488-1.626-0.488-3.09,0.325-4.555c1.139,2.765,3.253,4.229,6.02,4.068C45.94,27.4,46.592,27.237,47.243,26.749L47.243,26.749z
			 M48.056,36.67c0,0.488,0,0.977-0.163,1.465l-1.301,2.439c-1.3,0.814-2.439,0.977-3.416,0.65l-0.489-0.162L41.062,40.9
			l-0.326-0.326l-1.301-0.812c-1.951-1.952-2.603-4.392-2.114-7.158c0.163-1.138,0.487-2.115,0.975-2.927
			c1.79,3.578,4.88,5.367,8.947,5.53l0.813,0.975V36.67L48.056,36.67z"/>
		<path fill="#2165AF" d="M54.075,13.41c0.976,0.651,1.788,1.465,2.439,2.44c0.651,0.977,1.139,1.953,1.464,2.766h-1.464
			c-2.114,0.163-4.066,0.812-5.856,1.952l-0.487,0.488c-0.163-1.79-0.976-3.253-2.603-4.067l-0.977-0.325h-0.488
			c2.278,1.789,2.928,4.066,2.115,6.669l-0.325,0.813c-1.301,1.789-2.927,2.44-4.88,1.789c-0.488-0.163-0.974-0.488-1.3-0.976
			l-1.465-2.603v-0.651c-1.301-3.253-0.487-5.856,2.277-7.808c1.139-0.812,2.441-1.464,3.906-1.626
			C49.195,11.784,51.635,12.109,54.075,13.41L54.075,13.41z M52.448,58.793c-1.627-2.44-3.09-5.205-4.229-7.97l-0.65-1.953
			l-0.489-1.952l5.532-0.65c-2.116-0.163-3.742-0.326-4.88-0.65c-1.139-0.326-2.115-0.652-2.603-1.139l-1.139-1.953
			c2.927,0.163,4.718-1.302,5.369-4.392V36.67v-1.3c0.977,0,1.951-0.488,3.09-1.301c0.814-0.651,1.302-1.627,1.139-2.765
			l-0.162-0.488c0.488-0.163,0.976-0.326,1.463-0.488l3.254-1.952c0.486-0.488,0.812-0.975,0.975-1.463h-0.812
			c-1.465,1.3-3.092,2.277-5.042,2.927l-0.163-0.162c-0.651,0.488-1.302,0.488-2.115-0.325c-0.488-0.488-0.813-0.977-0.976-1.628
			c-0.65-1.789-0.488-3.415,0.326-5.042v-0.65c2.927-1.952,6.18-2.604,9.758-1.79l0.65,0.488c1.627,2.603,2.277,5.368,2.115,8.458
			c-0.162,2.115-0.976,3.904-2.115,5.53L58.628,39.6l2.115-2.441l0.164-0.163l0.487,2.44l0.814,2.766l1.464,2.603l3.903,6.343
			c5.693,9.598,13.663,15.617,23.912,17.731h0.488l-7.321,15.939c-3.416-1.3-6.669-2.765-9.758-4.392l-0.163-1.3l-0.488-0.813
			l-0.488-0.488c-0.651-0.488-1.465-0.651-2.278-0.326l-0.813,0.326l-5.531-4.229v-0.488l-0.162-0.488l-0.488-0.325l-0.325-0.488
			c0.163-0.814,0-1.463-0.488-1.952l-0.326-0.488c-0.162-1.301-0.976-2.115-2.439-2.602h-0.814H59.28l-0.975,0.162l-2.604-3.253
			l-1.626-2.276l0,0c0.325-0.488,0.488-1.139,0.649-1.953c0-0.486-0.161-0.812-0.649-0.975h-0.813L52.448,58.793L52.448,58.793z
			 M54.075,61.396L54.075,61.396L54.075,61.396z M47.243,26.749l1.301-0.977c-0.163,2.603,0.814,4.229,3.091,5.043l0.977,0.162
			l-0.977,2.277l-3.417,0.65h-1.952c-2.765-0.324-5.042-1.627-6.668-4.066c-0.326-0.487-0.488-1.139-0.65-1.789
			c-0.488-1.626-0.488-3.09,0.325-4.555c1.139,2.765,3.253,4.229,6.02,4.068C45.94,27.4,46.592,27.237,47.243,26.749L47.243,26.749z
			 M48.056,36.67c0,0.488,0,0.977-0.163,1.465l-1.301,2.439c-1.3,0.814-2.439,0.977-3.416,0.65l-0.489-0.162L41.062,40.9
			l-0.326-0.326l-1.301-0.812c-1.951-1.952-2.603-4.392-2.114-7.158c0.163-1.138,0.487-2.115,0.975-2.927
			c1.79,3.578,4.88,5.367,8.947,5.53l0.813,0.975V36.67L48.056,36.67z"/>
		<path fill="#FFF02B" d="M74.896,80.426l-4.23-2.601l0.813-0.326c0.813-0.325,1.627-0.162,2.278,0.326l0.488,0.488l0.488,0.813
			L74.896,80.426L74.896,80.426z M65.135,73.596c-2.439-2.115-4.717-4.229-6.831-6.67l0.975-0.162h0.813h0.814
			c1.463,0.487,2.277,1.301,2.439,2.602l0.326,0.488c0.488,0.488,0.65,1.138,0.488,1.952l0.325,0.488l0.488,0.325l0.162,0.488
			L65.135,73.596L65.135,73.596z M54.075,61.396l-1.627-2.603l0.814-0.325h0.813c0.488,0.163,0.649,0.488,0.649,0.975
			C54.563,60.257,54.4,60.908,54.075,61.396L54.075,61.396L54.075,61.396z"/>
		<path fill="#BCB325" d="M122.066,30.49h0.326c0.812,0,1.465,0.326,1.95,1.139c0.489,0.813,0.812,1.626,0.812,2.765
			s-0.322,1.953-0.812,2.765l-0.485,0.488c0.812-0.163,1.463-0.488,1.951-1.139c0.487-0.813,0.812-1.626,0.812-2.765
			c0-1.139-0.324-1.953-0.812-2.765c-0.488-0.813-1.304-1.139-2.115-1.139C123.205,29.839,122.555,30.001,122.066,30.49
			L122.066,30.49z"/>
		<path fill="#1F579A" d="M122.066,30.49h0.326c0.812,0,1.465,0.326,1.95,1.139c0.489,0.813,0.812,1.626,0.812,2.765
			s-0.322,1.953-0.812,2.765l-0.485,0.488h-0.164c-0.813,0-1.463-0.324-1.951-1.139c-0.487-0.813-0.812-1.626-0.812-2.765
			c0-1.139,0.325-1.953,0.812-2.765L122.066,30.49L122.066,30.49z"/>
		
			<path fill="none" stroke="#000000" stroke-width="0.3253" stroke-linecap="round" stroke-linejoin="round" stroke-miterlimit="10" d="
			M122.066,30.49h0.326c0.812,0,1.465,0.326,1.95,1.139c0.489,0.813,0.812,1.626,0.812,2.765s-0.322,1.953-0.812,2.765l-0.485,0.488
			c0.812-0.163,1.463-0.488,1.951-1.139c0.487-0.813,0.812-1.626,0.812-2.765c0-1.139-0.324-1.953-0.812-2.765
			c-0.488-0.813-1.304-1.139-2.115-1.139C123.205,29.839,122.555,30.001,122.066,30.49l-0.324,0.488
			c-0.487,0.812-0.812,1.626-0.812,2.765c0,1.139,0.325,1.952,0.812,2.765c0.488,0.814,1.138,1.139,1.951,1.139h0.164"/>
		<path fill="#F1EFA3" d="M150.695,17.477L150.695,17.477L150.695,17.477z M151.021,18.128L151.021,18.128L151.021,18.128
			L151.021,18.128z"/>
		<path fill="#DCD81F" d="M150.695,17.477L150.695,17.477L150.695,17.477z"/>
	</g>
</g>
</svg>
