<?xml version="1.0" encoding="utf-8"?>
<!-- Generator: Adobe Illustrator 16.0.0, SVG Export Plug-In . SVG Version: 6.00 Build 0)  -->
<!DOCTYPE svg PUBLIC "-//W3C//DTD SVG 1.1//EN" "http://www.w3.org/Graphics/SVG/1.1/DTD/svg11.dtd">
<svg version="1.1" id="Livello_1" xmlns="http://www.w3.org/2000/svg" xmlns:xlink="http://www.w3.org/1999/xlink" x="0px" y="0px"
	 width="191.433px" height="96.414px" viewBox="4.382 45.274 191.433 96.414" enable-background="new 4.382 45.274 191.433 96.414"
	 xml:space="preserve">
<g>
	<g>
		<g>
			<path fill="#F3F9FC" d="M136.38,67.628c-2.075-0.656-4.043-0.328-5.901,0.983c-3.17-2.623-6.229-2.951-9.291-0.983v-11.04
				c-2.403-3.279-6.994-5.793-13.664-7.652c-6.668-1.858-14.864-2.731-24.484-2.842c-9.727,0-18.362,0.875-26.014,2.515
				c-8.417,1.857-13.664,4.481-15.959,7.87l-0.11,14.209c-4.043-1.202-8.634-1.53-13.772-0.983l-0.764,0.11
				c-11.041,2.95-18.037,8.744-20.987,17.488l-0.219,1.421c-0.109,3.279,0.546,5.684,1.967,7.215c1.422,1.967,3.717,2.95,6.887,2.95
				l0,0h0.547l1.639-0.326l1.53-0.767l0.657,3.279v0.108l6.558,23.502l0.109,0.656l1.748,3.825l0.657,1.092
				c3.169,4.92,8.744,5.356,16.724,1.313l0.22-0.111c5.573-3.169,9.945-7.979,13.115-14.536l0.329-0.657
				c6.229,6.23,13.443,7.652,21.533,4.047l0.328-0.22c3.824,1.855,7.541,1.968,11.367,0.109h0.327
				c6.559,1.528,11.149,0.108,13.665-4.263l0,0c3.497,4.263,8.743,5.465,15.63,3.713c3.825,2.844,9.183,3.171,16.067,0.984
				c2.951,2.516,8.309,3.062,15.959,1.422c5.793,5.139,12.787,5.686,21.203,1.42c5.029-2.949,8.528-8.742,10.388-17.379h4.591
				c4.701-2.514,6.559-6.558,5.792-12.134c-0.547-0.983-1.202-1.638-1.967-1.856c-4.481-0.548-8.197-0.548-11.259,0.219
				c-5.137-6.45-12.352-7.979-21.644-4.591c-0.874-2.078-2.405-2.953-4.698-2.844c0.324-5.355-1.312-8.853-4.92-10.493
				c-4.373-1.093-7.434-0.437-9.183,2.078C141.189,72,139.66,69.048,136.38,67.628L136.38,67.628z M22.593,91.894l-0.329,0.438
				l0.329,0.107l0.327-0.874L22.593,91.894L22.593,91.894z M60.085,93.97v0.111l-0.11-0.111H60.085L60.085,93.97z"/>
			
				<path fill="none" stroke="#082987" stroke-width="1.6396" stroke-linecap="round" stroke-linejoin="round" stroke-miterlimit="10" d="
				M136.38,67.628c-2.075-0.656-4.043-0.328-5.901,0.983c-3.17-2.623-6.229-2.951-9.291-0.983v-11.04
				c-2.403-3.279-6.994-5.793-13.664-7.652c-6.668-1.858-14.864-2.731-24.484-2.842c-9.727,0-18.362,0.875-26.014,2.515
				c-8.417,1.857-13.664,4.481-15.959,7.87l-0.11,14.209c-4.043-1.202-8.634-1.53-13.772-0.983l-0.764,0.11
				c-11.041,2.95-18.037,8.744-20.987,17.488l-0.219,1.421c-0.109,3.279,0.546,5.684,1.967,7.215c1.422,1.967,3.717,2.95,6.887,2.95
				l0,0h0.547l1.639-0.326l1.53-0.767l0.657,3.279v0.108l6.558,23.502l0.109,0.656l1.748,3.825l0.657,1.092
				c3.169,4.92,8.744,5.356,16.724,1.313l0.22-0.111c5.573-3.169,9.945-7.979,13.115-14.536l0.329-0.657
				c6.229,6.23,13.443,7.652,21.533,4.047l0.328-0.22c3.824,1.855,7.541,1.968,11.367,0.109h0.327
				c6.559,1.528,11.149,0.108,13.665-4.263l0,0c3.497,4.263,8.743,5.465,15.63,3.713c3.825,2.844,9.183,3.171,16.067,0.984
				c2.951,2.516,8.309,3.062,15.959,1.422c5.793,5.139,12.787,5.686,21.203,1.42c5.029-2.949,8.528-8.742,10.388-17.379h4.591
				c4.701-2.514,6.559-6.558,5.792-12.134c-0.547-0.983-1.202-1.638-1.967-1.856c-4.481-0.548-8.197-0.548-11.259,0.219
				c-5.137-6.45-12.352-7.979-21.644-4.591c-0.874-2.078-2.405-2.953-4.698-2.844c0.324-5.355-1.312-8.853-4.92-10.493
				c-4.373-1.093-7.434-0.437-9.183,2.078C141.189,72,139.66,69.048,136.38,67.628"/>
			<path fill="#F3F9FC" d="M183.055,77.685v0.327c-0.109,4.264,0.875,8.308,3.17,11.914c2.077-4.918,4.811-8.963,8.199-12.352
				c1.42-3.498,0.217-5.902-3.826-7.214C186.333,70.907,183.818,73.312,183.055,77.685L183.055,77.685z M190.707,127.2l-0.109-0.222
				c-2.078-4.696-5.687-6.119-10.711-4.261c-2.518,1.53-4.266,3.28-5.248,5.138l0.328,0.22c3.061-0.328,5.903,0.874,8.637,3.823
				l0.217,0.108C188.958,134.961,191.253,133.43,190.707,127.2L190.707,127.2z M176.934,133.213
				c0.437,0.436,0.656,0.982,0.656,1.639s-0.221,1.203-0.656,1.64c-0.545,0.438-1.093,0.655-1.64,0.655
				c-0.655,0-1.202-0.217-1.638-0.655c-0.549-0.437-0.768-0.982-0.768-1.64c0-0.656,0.219-1.203,0.768-1.639
				c0.436-0.439,0.98-0.656,1.638-0.656C175.841,132.557,176.389,132.773,176.934,133.213L176.934,133.213z M16.471,140.863
				c-3.826,0.109-5.684-1.641-5.355-5.247c1.64-2.732,4.043-3.935,7.213-3.608c1.969-0.107,4.045-1.31,6.342-3.388l0.219,0.22
				c0.546,6.229-2.187,10.166-8.199,11.914L16.471,140.863L16.471,140.863z"/>
			
				<path fill="none" stroke="#082987" stroke-width="1.6396" stroke-linecap="round" stroke-linejoin="round" stroke-miterlimit="10" d="
				M183.055,77.685v0.327c-0.109,4.264,0.875,8.308,3.17,11.914c2.077-4.918,4.811-8.963,8.199-12.352
				c1.42-3.498,0.217-5.902-3.826-7.214C186.333,70.907,183.818,73.312,183.055,77.685 M190.598,126.979
				c-2.078-4.696-5.687-6.119-10.711-4.261c-2.518,1.53-4.266,3.28-5.248,5.138 M174.967,128.075
				c3.061-0.328,5.903,0.874,8.637,3.823 M183.818,132.008c5.14,2.953,7.435,1.422,6.889-4.808 M176.934,133.213
				c0.437,0.436,0.656,0.982,0.656,1.639s-0.221,1.203-0.656,1.64c-0.545,0.438-1.093,0.655-1.64,0.655
				c-0.655,0-1.202-0.217-1.638-0.655c-0.549-0.437-0.768-0.982-0.768-1.64c0-0.656,0.219-1.203,0.768-1.639
				c0.436-0.439,0.98-0.656,1.638-0.656C175.841,132.557,176.389,132.773,176.934,133.213 M16.471,140.863
				c-3.826,0.109-5.684-1.641-5.355-5.247c1.64-2.732,4.043-3.935,7.213-3.608c1.969-0.107,4.045-1.31,6.342-3.388 M24.889,128.84
				c0.546,6.229-2.187,10.166-8.199,11.914"/>
			<g>
				<path fill="#082987" d="M179.01,98.561c-0.766-3.389-2.513-5.684-5.464-7.105c-5.139-1.64-9.292-1.093-12.68,1.639
					c-1.642,1.203-3.06,2.515-4.265,4.044c-0.983,1.313-1.748,2.734-2.295,4.373c-1.095,2.951-1.423,6.45-1.095,10.275
					c-2.512,1.311-4.59,1.527-6.448,0.654l-0.328-0.107l-0.107-0.109c-0.985-1.312-1.096-2.951-0.549-5.029l2.188-12.35l5.683,0.874
					c1.641-0.109,2.733-0.765,3.281-2.077c0.219-1.749-0.33-2.951-1.748-3.717l-5.467-0.983l1.094-5.246
					c0.545-3.17-0.33-5.029-2.846-5.362c-2.295-0.109-3.826,0.985-4.48,3.061l-2.078,6.341l-5.354-1.094
					c-1.093,0.109-1.858,0.874-2.188,2.295c-0.326,1.531,0,2.623,0.986,3.39l5.463,1.202v0.218
					c-1.967,5.794-2.951,11.04-2.951,15.959c-1.856,1.203-3.387,1.749-4.809,1.642c-1.857,0.219-3.06-0.33-3.498-1.752
					c-0.218-7.431,0.438-13.224,1.86-17.487c0.873-3.936,0-6.231-2.624-6.778h-0.438c-2.297,0-3.828,0.985-4.699,2.842
					c-1.643,7.325-2.406,14.32-2.079,20.877c-0.546,0.548-1.421,0.986-2.623,1.093c-1.421-0.106-2.185-0.763-2.404-1.856
					l0.108-19.347c-1.748-4.154-4.698-5.902-8.854-5.355c-2.294,0.656-4.592,1.748-6.886,3.388L99.87,85.66
					c-3.39-3.061-6.122-2.515-8.088,1.749l0.108,21.754c-0.438,0.545-1.42,0.981-3.06,1.31c-2.186,0.11-3.28-0.656-3.28-2.187
					l-0.983-20.44c-0.438-1.966-1.532-3.06-3.389-3.278c-2.404-0.546-3.826,0.327-4.153,2.842
					c-4.264-2.625-8.198-2.733-11.587-0.438c-4.7,3.171-6.776,8.089-6.23,14.756l0.109,0.22c0.329,6.229,2.405,11.149,6.34,14.757
					c5.795,2.842,10.275,1.857,13.663-2.951c2.405,2.077,4.701,3.059,6.887,2.842c1.967,0,4.263-0.764,6.775-2.406
					c0.766,1.422,2.078,1.969,4.047,1.752c1.967-0.11,3.278-1.096,3.934-2.844l0.219-17.489c0.984-4.154,2.734-5.685,5.465-4.592
					c1.205,0.766,1.642,2.186,1.424,4.372l0.107,15.632c0.438,2.187,2.078,3.826,4.811,4.811c3.606,0.436,6.668-0.329,9.07-2.297
					c0.549,2.076,2.516,3.39,5.685,3.936h0.329c3.389,0.111,6.777-0.875,10.058-2.731c0.763,2.186,2.404,3.388,5.026,3.606
					c3.39,0.328,6.669-0.219,10.056-1.421c0.876-0.546,1.531-0.329,2.078,0.656c1.093,2.403,3.39,3.715,6.886,4.044
					c5.357,0.325,9.729-1.529,13.227-5.793c2.515-3.607,3.937-7.652,4.265-12.243c1.528-1.749,4.372-2.295,8.417-1.64
					c1.855-2.076,2.732-3.936,2.623-5.794C186.88,95.5,183.055,96.265,179.01,98.561z M76.918,106.104
					c-0.547,3.717-2.076,5.356-4.592,4.92c-1.42-0.109-2.513-1.203-3.06-3.279c-2.077-5.574-2.295-9.838-0.875-13.006
					c0.655-1.642,1.64-2.624,2.951-3.172c1.203-0.547,2.297-0.436,3.062,0.437C76.48,95.391,77.246,100.093,76.918,106.104z
					 M170.923,105.887l-0.11,0.219c-1.201,4.592-3.06,7.543-5.574,8.963c-2.514,0.983-3.934,0.108-4.264-2.404
					c-0.326-4.919,0.767-9.4,3.389-13.227h0.218v-0.001c1.528-2.623,3.39-3.279,5.466-1.857
					C171.359,98.563,171.688,101.404,170.923,105.887z"/>
				<path fill="#082987" d="M27.731,74.404c-9.29,2.515-15.193,7.324-17.817,14.538c-0.108,3.497,1.311,5.247,4.373,5.139h0.109
					c2.295-0.986,3.607-2.516,4.045-4.592l0.218-0.328c0.983-1.53,2.732-3.059,5.247-4.7c4.7-2.295,9.946-2.295,15.521,0
					l0.108,0.109c4.045,2.842,6.449,7.762,7.215,14.756c0.547,7.871-0.874,13.883-4.372,18.145
					c-3.389,3.391-5.575,2.405-6.559-2.951l-2.951-11.914l-1.64-10.166c-0.547-4.371-3.061-5.465-7.761-3.17
					c-1.529,1.86-1.64,5.467-0.437,10.712l6.559,23.392l1.64,3.935c2.077,2.623,5.684,2.623,10.82,0
					c4.92-2.731,8.747-7.104,11.479-12.896l0.109-0.221c3.605-10.819,2.842-20.767-2.296-29.949
					C46.095,76.482,38.224,73.203,27.731,74.404z"/>
			</g>
			<path fill="#DB2504" d="M135.068,77.902c-1.639,2.077-3.937,3.607-6.775,4.373c-2.514-1.422-4.266-3.279-5.357-5.793
				c-0.982-2.733-0.547-4.482,1.531-5.356c1.422-0.766,3.061-0.109,4.811,2.077c2.514-1.64,4.479-1.968,5.684-0.766
				C136.71,73.859,136.71,75.606,135.068,77.902L135.068,77.902z"/>
			<path fill="#FFFFFF" d="M116.05,55.823c-11.913-3.936-23.719-5.903-35.416-5.903h-0.327c-11.26,0.109-22.736,2.077-34.213,5.903
				c-0.875,0.327-1.312,1.093-1.312,2.404v14.429c0,0.874,0.766,1.529,2.187,1.967c22.846,9.729,45.581,9.729,68.1,0
				c1.42-0.547,2.185-1.202,2.295-1.967V58.228c0-1.093-0.328-1.858-0.875-2.187L116.05,55.823L116.05,55.823z M116.486,54.511
				l-0.983-0.437c-5.573-2.077-11.039-3.717-16.505-4.81c-6.121-1.312-12.242-1.968-18.364-1.858h-0.327
				c-5.686,0.109-11.368,0.656-17.161,1.858c-5.466,1.093-10.93,2.732-16.506,4.81c-2.076,0.765-3.061,1.967-2.951,3.606v14.976
				c0.11,1.42,0.875,2.404,2.077,3.06c23.281,11.041,46.783,11.041,70.394,0c1.639-0.873,2.404-1.856,2.295-3.06V57.681
				C118.562,56.259,117.91,55.276,116.486,54.511L116.486,54.511z"/>
			<path fill="#082987" d="M116.05,55.823c-11.913-3.936-23.719-5.903-35.416-5.903h-0.327c-11.26,0.109-22.736,2.077-34.213,5.903
				c-0.875,0.327-1.312,1.093-1.312,2.404v14.429c0,0.874,0.766,1.529,2.187,1.967c22.846,9.729,45.581,9.729,68.1,0
				c1.42-0.547,2.185-1.202,2.295-1.967V58.228c0-1.093-0.328-1.858-0.875-2.187L116.05,55.823L116.05,55.823z"/>
		</g>
	</g>
	
		<radialGradient id="SVGID_1_" cx="26.835" cy="89.2988" r="21.5639" gradientTransform="matrix(1 0 0 -1 54 165)" gradientUnits="userSpaceOnUse">
		<stop  offset="0" style="stop-color:#FFFFFF"/>
		<stop  offset="0.4" style="stop-color:#31ACEA"/>
		<stop  offset="1" style="stop-color:#082987"/>
	</radialGradient>
	<path fill="url(#SVGID_1_)" d="M54.392,64.433c0-6.979,11.84-12.639,26.443-12.639c14.604,0,26.442,5.659,26.442,12.639
		S95.439,77.071,80.835,77.071C66.231,77.07,54.392,71.413,54.392,64.433L54.392,64.433z"/>
	<path fill="#DB2504" d="M101.948,71.563c-0.108,0.108,0,0.218,0.219,0.327c0.11,0.109,0.22,0.219,0.11,0.438
		c-0.11,0.546-0.875,1.202-2.295,2.076l-2.076,1.094c-2.952,1.64-5.904,2.951-8.855,3.716c-3.825,0.766-7.215,1.094-10.274,0.875
		c-3.062-0.219-6.013-0.765-8.745-1.53c-3.935-1.202-7.433-3.061-10.492-5.575c-0.438-0.327-0.657-0.765-0.657-1.093
		c0-0.219,0.11-0.327,0.328-0.327c0.218,0,0.547,0.108,1.094,0.218l1.093,0.438c0.765,0.438,1.749,0.873,2.732,1.202
		c3.169,1.202,6.121,2.077,9.072,2.624c2.952,0.546,5.466,0.764,7.324,0.764l3.934-0.11l2.624-0.438
		c0.982-0.109,3.06-0.656,6.229-1.53c3.169-0.873,5.793-1.858,7.979-2.951L101.948,71.563L101.948,71.563z"/>
	<g>
		<path fill="#1A1A6E" d="M84.46,61.834c-0.546,0.657-0.875,1.422-0.875,2.295c0,0.875,0.329,1.641,0.875,2.187
			c0.546,0.656,1.202,0.984,1.967,0.984c0.767,0,1.422-0.328,1.969-0.984c0.546-0.546,0.764-1.312,0.764-2.187
			c0-0.873-0.218-1.638-0.764-2.295c-0.547-0.547-1.202-0.874-1.969-0.874C85.662,60.96,85.006,61.287,84.46,61.834L84.46,61.834z
			 M84.46,61.944c-0.546,0.547-0.765,1.312-0.765,2.185c0,0.767,0.219,1.531,0.765,2.187c0.546,0.547,1.202,0.876,1.967,0.876
			c0.767,0,1.312-0.329,1.859-0.876c0.547-0.655,0.873-1.42,0.873-2.187c0-0.873-0.326-1.638-0.873-2.185
			c-0.547-0.547-1.093-0.875-1.859-0.875C85.662,61.069,85.006,61.397,84.46,61.944L84.46,61.944z M86.318,57.79
			c1.64,0,3.17,0.655,4.372,1.858c0.547,0.546,0.984,1.203,1.312,1.967v-3.06l0.109-0.328l0.328-0.218h2.076l0.328,0.108
			c1.422,1.093,2.732,2.405,4.046,4.044v-3.606l0.108-0.438l0.438-0.108h2.404l0.438,0.108l0.109,0.438v3.716
			c0.325-0.984,0.766-1.858,1.42-2.623c1.203-1.203,2.514-1.858,4.153-1.858l0,0h0.11c1.529,0,2.84,0.655,3.824,1.858l0,0
			c0.984,1.203,1.53,2.732,1.53,4.48c0,0.329,0,0.657-0.108,0.984c0,0.109,0,0.22-0.109,0.328c-0.109,0.109-0.219,0.109-0.327,0.109
			h-7.106l0.438,0.875c0.547,0.546,1.093,0.874,1.858,0.874s1.311-0.328,1.857-0.874l0.219-0.11h0.219l2.404,0.438l0.328,0.219
			l0.109,0.328l-0.109,0.219c-0.218,0.437-0.438,0.765-0.765,1.093c-1.204,1.312-2.624,1.968-4.263,1.968
			c-1.641,0-3.062-0.655-4.266-1.968c-0.654-0.765-1.094-1.529-1.42-2.514v3.498c0,0.108,0,0.219-0.109,0.328l-0.438,0.218h-2.077
			l-0.327-0.109l-0.219-0.328c-0.986-2.622-2.186-4.7-3.827-6.23v6.122c0,0.108,0,0.219-0.107,0.328l-0.438,0.218h-2.404
			l-0.328-0.218l-0.109-0.328v-2.952c-0.327,0.766-0.765,1.422-1.312,1.968c-1.202,1.312-2.732,1.968-4.372,1.968
			s-3.061-0.655-4.263-1.968c-0.655-0.765-1.094-1.529-1.422-2.404v3.389c0,0.108-0.108,0.219-0.219,0.328
			c-0.108,0.108-0.219,0.218-0.328,0.218h-2.185l-0.219-0.109l-0.22-0.328c-0.983-2.622-2.186-4.7-3.825-6.23v6.122
			c0,0.108-0.11,0.219-0.219,0.328c-0.108,0.108-0.219,0.218-0.327,0.218h-2.406l-0.218-0.109c-0.109,0.109-0.219,0.109-0.328,0.109
			h-2.405l-0.326-0.218c-0.111-0.109-0.22-0.22-0.22-0.328l-0.218-2.077h-4.264l-0.109,2.077c0,0.108-0.109,0.219-0.218,0.328
			c-0.11,0.108-0.22,0.218-0.328,0.218h-2.404l-0.221-0.109l-0.218-0.218l-0.109-0.219l0.327-2.077
			c-0.546,0.656-1.092,1.202-1.748,1.75c-2.076,1.311-4.591,1.528-7.761,0.764l-0.218-0.218l-0.109-0.329
			c0.218-3.605,0.218-7.214,0-10.93l0.109-0.328l0.327-0.109c3.389-0.766,6.012-0.438,7.98,0.984
			c0.764,0.655,1.419,1.421,1.966,2.404c0.22,0.547,0.329,1.093,0.438,1.749c0.765-1.969,1.641-3.607,2.843-4.919l0.219-0.219h0.218
			h2.405h0.219l0.109,0.219c1.748,2.076,2.951,4.81,3.716,8.198v-7.979l0.219-0.328l0.327-0.218h2.077l0.22,0.108
			c1.421,1.093,2.843,2.405,4.152,4.044v-3.606l0.11-0.438l0.328-0.108h2.513l0.328,0.108l0.219,0.438v3.498
			c0.328-0.875,0.767-1.641,1.422-2.405C83.258,58.445,84.679,57.79,86.318,57.79L86.318,57.79z M86.318,57.898
			c1.64,0,3.061,0.657,4.264,1.859c0.765,0.655,1.202,1.421,1.529,2.404v-3.606l0.109-0.328l0.219-0.109h2.076l0.218,0.109
			c1.532,1.093,2.954,2.514,4.265,4.264v-3.936l0.108-0.328l0.329-0.109h2.404l0.327,0.109l0.109,0.328v4.481
			c0.22-1.203,0.767-2.296,1.641-3.279c1.094-1.202,2.402-1.859,4.044-1.859l0,0h0.11c1.422-0.108,2.731,0.547,3.714,1.859
			c0.983,1.202,1.532,2.623,1.532,4.371v0.984c0,0.109-0.109,0.22-0.221,0.328l-0.217,0.109h-7.214l0.545,0.875
			c0.547,0.656,1.093,0.983,1.858,0.983s1.423-0.327,1.969-0.874l0.107-0.109h0.219l2.404,0.437l0.219,0.109l0.109,0.328v0.219
			l-0.875,1.093c-1.094,1.203-2.514,1.858-4.152,1.858s-2.95-0.655-4.153-1.858c-0.874-0.983-1.421-2.076-1.64-3.389v4.373
			l-0.11,0.328c-0.106,0.108-0.22,0.108-0.327,0.108h-2.077c-0.108,0-0.219,0-0.219-0.108l-0.219-0.22
			c-0.983-2.732-2.294-4.918-4.043-6.448v6.34l-0.109,0.328c-0.11,0.108-0.219,0.108-0.329,0.108h-2.404l-0.219-0.108l-0.109-0.328
			v-3.389c-0.327,0.875-0.765,1.64-1.529,2.404c-1.203,1.203-2.624,1.858-4.264,1.858s-2.951-0.655-4.153-1.858
			c-0.875-0.874-1.422-1.858-1.64-3.061v4.045l-0.11,0.328c-0.108,0.108-0.219,0.108-0.328,0.108h-2.185l-0.219-0.108l-0.109-0.22
			c-0.984-2.732-2.405-4.918-4.046-6.448v6.34l-0.108,0.328c-0.108,0.108-0.219,0.108-0.327,0.108h-2.406l-0.218-0.108h-0.109
			l-0.219,0.108h-2.405l-0.326-0.108l-0.111-0.328l-0.218-2.077h-4.372l-0.219,2.077c0,0.108,0,0.219-0.108,0.328
			c-0.11,0.108-0.22,0.108-0.328,0.108h-2.404l-0.221-0.108l-0.108-0.109l-0.109-0.219l0.329-2.404
			c-0.547,0.764-1.203,1.42-1.969,1.966l0,0c-1.967,1.312-4.481,1.53-7.542,0.767c-0.109,0-0.219,0-0.219-0.109l-0.108-0.329
			c0.218-3.605,0.218-7.214,0-10.93l0.108-0.219c0-0.109,0.109-0.219,0.219-0.219c3.279-0.655,5.903-0.328,7.871,1.093
			c0.873,0.547,1.528,1.312,1.966,2.296c0.329,0.655,0.438,1.312,0.547,2.076c0.656-2.076,1.641-3.825,2.951-5.246l0.11-0.109h0.218
			h2.405h0.109l0.219,0.109c1.857,2.295,3.169,5.246,3.825,9.072v-8.854l0.109-0.328l0.327-0.109h2.077l0.22,0.109
			c1.421,1.093,2.843,2.514,4.263,4.264v-3.936l0.108-0.328l0.22-0.109h2.513l0.328,0.109l0.11,0.328v4.263
			c0.218-1.203,0.765-2.187,1.64-3.061C83.367,58.556,84.679,57.898,86.318,57.898L86.318,57.898z M107.961,60.741
			c-0.656,0.11-1.202,0.438-1.749,0.983l-0.438,0.656h4.266l-0.329-0.656c-0.437-0.655-0.983-0.983-1.64-0.983H107.961
			L107.961,60.741L107.961,60.741z M107.961,60.852c-0.656,0-1.202,0.327-1.749,0.873l-0.328,0.547h4.046l-0.328-0.547
			c-0.438-0.546-0.983-0.873-1.529-0.873l0,0H107.961L107.961,60.852z M55.713,61.397c-0.547-0.328-1.422-0.546-2.405-0.546v6.23
			c1.093,0.109,1.858-0.11,2.296-0.438c0.546-0.328,0.874-0.764,1.094-1.093c0.218-0.438,0.327-0.875,0.327-1.422l-0.218-1.42
			C56.587,62.271,56.259,61.834,55.713,61.397c0.546,0.437,0.984,0.874,1.202,1.312l0.218,1.42
			c-0.108,0.547-0.218,0.984-0.326,1.422c-0.22,0.438-0.548,0.875-1.094,1.202c-0.547,0.329-1.312,0.547-2.515,0.438v-6.45
			C54.291,60.741,55.166,60.96,55.713,61.397L55.713,61.397z M66.206,64.349c-0.328-0.984-0.874-1.968-1.421-2.733
			c-0.546,0.766-0.985,1.749-1.312,2.733H66.206L66.206,64.349z M66.315,64.458c-0.328-1.094-0.875-2.077-1.53-2.951
			c-0.546,0.874-1.094,1.857-1.422,2.951H66.315L66.315,64.458z"/>
		<path fill="#1A1C6E" d="M84.351,61.834c-0.546,0.547-0.874,1.312-0.874,2.295c0,0.875,0.328,1.641,0.874,2.297
			c0.548,0.546,1.312,0.874,2.076,0.874c0.767,0,1.422-0.328,1.969-0.874c0.546-0.656,0.874-1.422,0.874-2.297
			c0-0.982-0.328-1.748-0.874-2.295c-0.547-0.655-1.202-0.982-1.969-0.982C85.662,60.852,84.898,61.179,84.351,61.834L84.351,61.834
			z M84.46,61.834c-0.546,0.657-0.875,1.422-0.875,2.295c0,0.875,0.329,1.641,0.875,2.187c0.546,0.656,1.202,0.984,1.967,0.984
			c0.767,0,1.422-0.328,1.969-0.984c0.546-0.546,0.764-1.312,0.764-2.187c0-0.873-0.218-1.638-0.764-2.295
			c-0.547-0.547-1.202-0.874-1.969-0.874C85.662,60.96,85.006,61.287,84.46,61.834L84.46,61.834z M86.318,57.898
			c1.64,0,3.061,0.657,4.264,1.859c0.765,0.874,1.311,1.857,1.529,3.061v-4.263l0.109-0.219l0.219-0.109h2.076l0.218,0.109
			c1.532,1.093,2.954,2.515,4.373,4.372v-4.153v-0.328l0.329-0.109h2.404l0.327,0.109v0.328v11.04v0.219
			c-0.107,0.109-0.219,0.109-0.327,0.109h-2.077l-0.219-0.109l-0.108-0.11c-0.983-2.842-2.404-5.028-4.153-6.667v6.559l-0.109,0.219
			c-0.11,0.109-0.219,0.109-0.329,0.109H92.44l-0.219-0.109l-0.109-0.219v-4.154c-0.219,1.202-0.765,2.187-1.529,3.061
			c-1.203,1.202-2.624,1.858-4.264,1.858c-1.64,0-2.951-0.656-4.153-1.858c-1.203-1.202-1.75-2.622-1.75-4.373
			c0-1.638,0.547-3.169,1.75-4.371C83.367,58.556,84.679,57.898,86.318,57.898c1.639,0,3.061,0.657,4.264,1.859
			c0.765,0.655,1.202,1.421,1.529,2.404v-3.606l0.109-0.328l0.219-0.109h2.076l0.218,0.109c1.532,1.093,2.954,2.514,4.265,4.264
			v-3.936l0.108-0.328l0.329-0.109h2.404l0.327,0.109l0.109,0.328v4.481c0.22-1.203,0.767-2.296,1.641-3.279
			c1.094-1.202,2.402-1.859,4.044-1.859l0,0h0.11c1.422-0.108,2.731,0.547,3.714,1.859c0.983,1.202,1.532,2.623,1.532,4.371v0.984
			c0,0.109-0.109,0.22-0.221,0.328l-0.217,0.109h-7.214l0.545,0.875c0.547,0.656,1.093,0.983,1.858,0.983s1.423-0.327,1.969-0.874
			l0.107-0.109h0.219l2.404,0.437l0.219,0.109l0.109,0.328v0.219l-0.875,1.093c-1.094,1.203-2.514,1.858-4.152,1.858
			s-2.95-0.655-4.153-1.858c-0.874-0.983-1.421-2.076-1.64-3.389v4.373l-0.11,0.328c-0.106,0.108-0.22,0.108-0.327,0.108h-2.077
			c-0.108,0-0.219,0-0.219-0.108l-0.219-0.22c-0.983-2.732-2.294-4.918-4.043-6.448v6.34l-0.109,0.328
			c-0.11,0.108-0.219,0.108-0.329,0.108h-2.404l-0.219-0.108l-0.109-0.328v-3.389c-0.327,0.875-0.765,1.64-1.529,2.404
			c-1.203,1.203-2.624,1.858-4.264,1.858s-2.951-0.655-4.153-1.858c-0.875-0.874-1.422-1.858-1.64-3.061v4.045l-0.11,0.328
			c-0.108,0.108-0.219,0.108-0.328,0.108h-2.185l-0.219-0.108l-0.109-0.22c-0.984-2.732-2.405-4.918-4.046-6.448v6.34l-0.108,0.328
			c-0.108,0.108-0.219,0.108-0.327,0.108h-2.406l-0.218-0.108h-0.109l-0.219,0.108h-2.405l-0.326-0.108l-0.111-0.328l-0.218-2.077
			h-4.372l-0.219,2.077c0,0.108,0,0.219-0.108,0.328c-0.11,0.108-0.22,0.108-0.328,0.108h-2.404l-0.221-0.108l-0.108-0.109
			l-0.109-0.219l0.329-2.404c-0.547,0.764-1.203,1.42-1.969,1.966l0,0c-1.967,1.312-4.481,1.53-7.542,0.767
			c-0.109,0-0.219,0-0.219-0.109l-0.108-0.329c0.218-3.605,0.218-7.214,0-10.93l0.108-0.219c0-0.109,0.109-0.219,0.219-0.219
			c3.279-0.655,5.903-0.328,7.871,1.093c0.873,0.547,1.528,1.312,1.966,2.296c0.329,0.655,0.438,1.312,0.547,2.076
			c0.656-2.076,1.641-3.825,2.951-5.246l0.11-0.109h0.218h2.405h0.109l0.219,0.109c1.857,2.295,3.169,5.246,3.825,9.072v-8.854
			l0.109-0.328l0.327-0.109h2.077l0.22,0.109c1.421,1.093,2.843,2.514,4.263,4.264v-3.936l0.108-0.328l0.22-0.109h2.513l0.328,0.109
			l0.11,0.328v4.263c0.218-1.203,0.765-2.187,1.64-3.061C83.367,58.556,84.679,57.898,86.318,57.898L86.318,57.898z M107.961,57.898
			h0.109c1.423,0,2.732,0.657,3.715,1.859c0.984,1.202,1.531,2.733,1.531,4.371c0,0.329,0,0.657-0.108,0.984l-0.11,0.22
			l-0.217,0.108h-7.436l0.658,1.094c0.543,0.656,1.201,0.983,1.967,0.983s1.423-0.327,1.969-0.983l0.218-0.109h0.108l2.404,0.546
			l0.219,0.11l0.109,0.218l-0.109,0.219c-0.219,0.328-0.437,0.656-0.766,0.983c-1.203,1.202-2.514,1.858-4.152,1.858
			s-2.95-0.656-4.045-1.858c-1.201-1.202-1.748-2.622-1.748-4.373c0-1.638,0.547-3.169,1.748-4.371
			C105.12,58.556,106.432,58.01,107.961,57.898L107.961,57.898L107.961,57.898z M107.961,60.741
			c-0.656,0.11-1.202,0.438-1.749,0.983l-0.438,0.656h4.266l-0.329-0.656c-0.437-0.655-0.983-0.983-1.64-0.983H107.961
			L107.961,60.741L107.961,60.741z M107.961,60.632c-0.766,0.109-1.312,0.438-1.855,0.983l-0.551,0.876h4.594l-0.438-0.876
			c-0.437-0.546-0.983-0.874-1.64-0.983H107.961L107.961,60.632L107.961,60.632z M49.81,58.337l0.219-0.109
			c3.279-0.656,5.903-0.329,7.871,1.093c0.765,0.547,1.42,1.312,1.857,2.187c0.328,0.765,0.547,1.64,0.547,2.622
			c0.765-2.295,1.749-4.153,3.06-5.684l0.11-0.108l0.218-0.109h2.405l0.109,0.109l0.109,0.108c2.076,2.406,3.39,5.684,4.044,9.947
			v-9.837l0.109-0.219l0.218-0.109h2.077l0.109,0.109c1.531,1.093,2.953,2.515,4.373,4.372v-4.153l0.108-0.328l0.22-0.109h2.513
			l0.22,0.109l0.108,0.328v11.04l-0.108,0.219l-0.22,0.109h-2.185l-0.11-0.109l-0.108-0.11c-1.094-2.842-2.515-5.028-4.264-6.667
			v6.559l-0.108,0.219l-0.219,0.109h-2.406l-0.218-0.109l0,0l-0.109,0.109H70.14h-2.405c-0.108,0-0.218,0-0.218-0.109l-0.108-0.219
			c-0.111-0.766-0.22-1.53-0.329-2.187h-4.481l-0.218,2.187l-0.11,0.219l-0.218,0.109h-2.404H59.54l-0.22-0.22v-0.108l0.329-2.952
			l-0.109,0.328l0,0c-0.438,0.875-1.095,1.53-1.969,2.076c-1.967,1.312-4.481,1.531-7.542,0.767l-0.219-0.11v-0.219
			c0.219-3.605,0.219-7.214,0-10.93V58.337L49.81,58.337z M55.713,61.287c-0.547-0.436-1.422-0.655-2.624-0.546V67.3
			c1.202,0,2.077-0.108,2.624-0.438c0.546-0.437,0.984-0.874,1.094-1.312c0.218-0.438,0.326-0.875,0.326-1.422
			c0.108-0.546,0-0.982-0.218-1.42C56.807,62.162,56.368,61.725,55.713,61.287L55.713,61.287z M55.713,61.397
			c0.546,0.437,0.984,0.874,1.202,1.312l0.218,1.42c-0.108,0.547-0.218,0.984-0.326,1.422c-0.22,0.438-0.548,0.875-1.094,1.202
			c-0.547,0.329-1.312,0.547-2.515,0.438v-6.45C54.291,60.741,55.166,60.96,55.713,61.397L55.713,61.397z M66.315,64.458
			c-0.328-1.094-0.875-2.077-1.53-2.951c-0.546,0.874-1.094,1.857-1.422,2.951H66.315L66.315,64.458z M66.425,64.567
			c-0.438-1.203-0.984-2.296-1.64-3.17c-0.656,0.874-1.202,1.967-1.53,3.17H66.425L66.425,64.567z"/>
		<path fill="#18186A" d="M84.569,61.944c-0.546,0.547-0.874,1.312-0.874,2.185c0,0.767,0.328,1.531,0.874,2.078
			c0.547,0.546,1.093,0.875,1.857,0.875c0.767,0,1.312-0.329,1.859-0.875c0.547-0.547,0.765-1.312,0.765-2.078
			c0-0.873-0.218-1.638-0.765-2.185c-0.547-0.547-1.093-0.875-1.859-0.875C85.662,61.069,85.116,61.397,84.569,61.944L84.569,61.944
			z M84.569,62.054c-0.546,0.546-0.765,1.202-0.765,2.075c0,0.767,0.219,1.531,0.765,2.078c0.547,0.546,1.093,0.765,1.857,0.765
			c0.657,0,1.204-0.219,1.75-0.765c0.547-0.547,0.765-1.312,0.765-2.078c0-0.873-0.218-1.529-0.765-2.075
			c-0.546-0.547-1.093-0.875-1.75-0.875C85.662,61.179,85.116,61.507,84.569,62.054L84.569,62.054z M86.318,57.571
			c1.748,0,3.279,0.656,4.48,1.967c0.438,0.438,0.767,0.875,0.985,1.422v-2.404l0.218-0.438l0.438-0.22h2.076l0.328,0.111
			c1.422,0.982,2.732,2.294,3.936,3.715v-3.169l0.11-0.546l0.546-0.22h2.404c0.22,0,0.438,0.108,0.548,0.22l0.108,0.546v2.731
			c0.328-0.655,0.655-1.202,1.2-1.749c1.203-1.201,2.623-1.857,4.265-1.967l0,0h0.11c1.529,0,2.84,0.656,3.934,1.967
			c1.094,1.313,1.641,2.843,1.641,4.591l-0.108,1.094c0,0.11-0.109,0.219-0.22,0.328l-0.437,0.219h-6.888l0.438,0.546
			c0.438,0.547,0.983,0.876,1.641,0.876c0.654,0,1.201-0.329,1.748-0.876l0.328-0.108l0.328-0.109l2.404,0.546
			c0.107,0,0.217,0.109,0.327,0.219l0.219,0.329l-0.108,0.437l-0.875,1.093c-1.202,1.312-2.623,1.967-4.371,1.967
			c-1.641,0-3.172-0.655-4.375-1.967c-0.545-0.546-0.872-1.093-1.2-1.749v2.624l-0.108,0.437c-0.109,0.109-0.328,0.219-0.548,0.219
			h-2.077l-0.438-0.109l-0.219-0.327c-0.876-2.515-2.075-4.481-3.498-6.012v5.793l-0.219,0.437
			c-0.107,0.109-0.327,0.219-0.546,0.219h-2.404L92,70.035l-0.218-0.437v-2.187c-0.219,0.546-0.547,0.983-0.985,1.421
			c-1.201,1.202-2.732,1.857-4.48,1.857c-1.64,0-3.17-0.655-4.373-1.857l-1.202-1.748v2.514l-0.218,0.437l-0.438,0.219h-2.185
			l-0.328-0.109c-0.11-0.109-0.22-0.218-0.22-0.327c-0.983-2.515-2.186-4.481-3.607-6.012v5.793l-0.108,0.437
			c-0.11,0.109-0.327,0.219-0.546,0.219h-2.406h-0.218H70.14h-2.405l-0.546-0.219l-0.109-0.437l-0.218-1.858h-3.935l-0.22,1.858
			c0,0.219,0,0.328-0.109,0.437c-0.109,0.109-0.328,0.219-0.546,0.219h-2.404l-0.329-0.109L59.1,69.928l-0.108-0.438l0.108-1.312
			c-0.328,0.438-0.765,0.873-1.312,1.201c-2.076,1.421-4.7,1.641-7.87,0.766l-0.327-0.218l-0.22-0.438
			c0.329-3.605,0.329-7.214,0-10.93l0.22-0.438l0.327-0.22c3.389-0.764,6.121-0.327,8.09,1.094c0.983,0.656,1.64,1.421,2.076,2.405
			l0,0l0.437,1.202c0.655-1.64,1.531-3.17,2.624-4.372l0.218-0.218l0.328-0.111h2.405l0.219,0.111l0.218,0.218
			c1.64,1.748,2.733,4.044,3.498,6.886v-6.558l0.219-0.438c0.109-0.108,0.219-0.22,0.437-0.22h2.077l0.329,0.111
			c1.421,0.982,2.622,2.294,3.825,3.715v-3.169l0.218-0.546l0.438-0.22h2.513l0.438,0.22l0.218,0.546v2.623l1.202-1.641
			C83.148,58.228,84.679,57.571,86.318,57.571L86.318,57.571z M86.318,57.681c1.748,0,3.17,0.656,4.372,1.857
			c0.547,0.547,0.875,1.094,1.202,1.749v-2.731l0.219-0.438l0.328-0.108h2.076l0.328,0.108c1.422,0.984,2.732,2.295,3.936,3.826
			v-3.389c0-0.219,0.11-0.328,0.219-0.438c0.108-0.108,0.219-0.22,0.438-0.22h2.404c0.221,0,0.327,0.111,0.438,0.22
			c0.109,0.109,0.22,0.219,0.22,0.438v3.169c0.328-0.765,0.765-1.53,1.312-2.076c1.203-1.312,2.514-1.968,4.153-1.968l0,0h0.11
			c1.529,0,2.84,0.656,3.934,1.968c0.984,1.203,1.531,2.732,1.531,4.48l-0.109,1.094c0,0.11,0,0.219-0.109,0.328l-0.437,0.109
			h-6.997c0.109,0.328,0.221,0.547,0.438,0.655c0.548,0.547,1.095,0.876,1.751,0.984c0.765-0.108,1.31-0.328,1.747-0.874
			l0.328-0.219h0.328l2.405,0.546l0.327,0.109c0.109,0.109,0.109,0.22,0.109,0.329l-0.109,0.437l-0.874,1.093
			c-1.204,1.203-2.624,1.858-4.263,1.858c-1.641,0-3.061-0.655-4.266-1.858c-0.547-0.655-0.981-1.421-1.311-2.186v3.061
			l-0.219,0.438c-0.11,0.109-0.219,0.109-0.438,0.109h-2.077l-0.327-0.109l-0.219-0.218c-0.986-2.623-2.186-4.701-3.718-6.122v5.903
			l-0.217,0.438c-0.109,0.109-0.22,0.109-0.438,0.109h-2.404l-0.328-0.109l-0.219-0.438V67.08c-0.327,0.546-0.655,1.093-1.202,1.639
			c-1.202,1.203-2.624,1.858-4.372,1.858c-1.64,0-3.17-0.655-4.373-1.858c-0.545-0.655-0.983-1.312-1.312-2.077v2.952l-0.108,0.438
			l-0.438,0.109h-2.185c-0.11,0-0.219,0-0.328-0.109l-0.22-0.218c-0.874-2.623-2.076-4.701-3.607-6.122v5.903l-0.219,0.438
			l-0.436,0.109h-2.406h-0.218H70.14h-2.405l-0.438-0.109l-0.218-0.438l-0.218-1.968h-4.045l-0.109,1.968l-0.219,0.438l-0.437,0.109
			h-2.404h-0.329l-0.219-0.327v-0.329l0.109-1.639c-0.328,0.546-0.874,1.093-1.53,1.422c-2.076,1.419-4.591,1.639-7.761,0.873
			l-0.327-0.218l-0.109-0.438c0.327-3.605,0.327-7.214,0-10.93l0.109-0.328l0.437-0.218c3.389-0.767,6.012-0.329,7.98,1.093
			c0.873,0.546,1.53,1.311,1.966,2.295l0,0l0.547,1.529c0.655-1.857,1.531-3.389,2.733-4.699l0.108-0.109l0.328-0.108h2.405
			l0.219,0.108l0.218,0.109c1.64,1.967,2.843,4.481,3.607,7.542v-7.214l0.109-0.438l0.437-0.108h2.077l0.329,0.108
			c1.421,0.984,2.733,2.295,3.935,3.826v-3.389c0-0.219,0.108-0.328,0.219-0.438l0.328-0.22h2.513l0.438,0.22
			c0.108,0.109,0.108,0.219,0.108,0.438v3.06c0.328-0.764,0.767-1.421,1.312-2.077C83.148,58.337,84.679,57.681,86.318,57.681
			L86.318,57.681z M108.07,60.96h-0.109c-0.656,0-1.202,0.327-1.641,0.874l-0.327,0.438h3.825l-0.325-0.438
			C109.163,61.287,108.617,60.96,108.07,60.96L108.07,60.96L108.07,60.96z M108.07,61.069h-0.109c-0.546,0-1.093,0.218-1.529,0.765
			l-0.22,0.328h3.498l-0.217-0.328C109.163,61.287,108.617,61.069,108.07,61.069L108.07,61.069L108.07,61.069z M56.587,62.818
			c-0.109-0.438-0.438-0.874-0.983-1.312c-0.547-0.328-1.203-0.438-2.187-0.438v5.902c0.983,0,1.64-0.109,2.076-0.437
			c0.547-0.328,0.875-0.766,1.094-1.094l0.22-1.312C56.915,63.583,56.807,63.146,56.587,62.818L56.587,62.818z M55.604,61.507
			c-0.547-0.328-1.312-0.547-2.296-0.547l0.109,6.122c0.983,0,1.64-0.11,2.187-0.438l0,0c0.546-0.328,0.874-0.764,0.983-1.202l0,0
			c0.22-0.438,0.328-0.874,0.328-1.312l-0.218-1.42C56.587,62.381,56.149,61.944,55.604,61.507L55.604,61.507z M66.097,64.239
			c-0.328-0.875-0.765-1.64-1.312-2.405c-0.546,0.766-0.875,1.53-1.202,2.405H66.097L66.097,64.239z M65.987,64.239
			c-0.328-0.875-0.766-1.64-1.202-2.295c-0.438,0.655-0.765,1.42-1.094,2.295H65.987L65.987,64.239z"/>
		<path fill="#181C6D" d="M84.569,61.944c-0.546,0.547-0.874,1.312-0.874,2.185c0,0.767,0.328,1.531,0.874,2.078
			c0.547,0.546,1.093,0.875,1.857,0.875c0.767,0,1.312-0.329,1.859-0.875c0.547-0.547,0.765-1.312,0.765-2.078
			c0-0.873-0.218-1.638-0.765-2.185c-0.547-0.547-1.093-0.875-1.859-0.875C85.662,61.069,85.116,61.397,84.569,61.944L84.569,61.944
			z M84.46,61.944c-0.546,0.547-0.765,1.312-0.765,2.185c0,0.767,0.219,1.531,0.765,2.187c0.546,0.547,1.202,0.876,1.967,0.876
			c0.767,0,1.312-0.329,1.859-0.876c0.547-0.655,0.873-1.42,0.873-2.187c0-0.873-0.326-1.638-0.873-2.185
			c-0.547-0.547-1.093-0.875-1.859-0.875C85.662,61.069,85.006,61.397,84.46,61.944L84.46,61.944z M86.318,57.79
			c1.64,0,3.17,0.655,4.372,1.858c0.547,0.546,0.984,1.203,1.312,1.967v-3.06l0.109-0.328l0.328-0.218h2.076l0.328,0.108
			c1.422,1.093,2.732,2.405,4.046,4.044v-3.606l0.108-0.438l0.438-0.108h2.404l0.438,0.108l0.109,0.438v3.716
			c0.325-0.984,0.766-1.858,1.42-2.623c1.203-1.203,2.514-1.858,4.153-1.858l0,0h0.11c1.529,0,2.84,0.655,3.824,1.858l0,0
			c0.984,1.203,1.53,2.732,1.53,4.48c0,0.329,0,0.657-0.108,0.984c0,0.109,0,0.22-0.109,0.328c-0.109,0.109-0.219,0.109-0.327,0.109
			h-7.106l0.438,0.875c0.547,0.546,1.093,0.874,1.858,0.874s1.311-0.328,1.857-0.874l0.219-0.11h0.219l2.404,0.438l0.328,0.219
			l0.109,0.328l-0.109,0.219c-0.218,0.437-0.438,0.765-0.765,1.093c-1.204,1.312-2.624,1.968-4.263,1.968
			c-1.641,0-3.062-0.655-4.266-1.968c-0.654-0.765-1.094-1.529-1.42-2.514v3.498c0,0.108,0,0.219-0.109,0.328l-0.438,0.218h-2.077
			l-0.327-0.109l-0.219-0.328c-0.986-2.622-2.186-4.7-3.827-6.23v6.122c0,0.108,0,0.219-0.107,0.328l-0.438,0.218h-2.404
			l-0.328-0.218l-0.109-0.328v-2.952c-0.327,0.766-0.765,1.422-1.312,1.968c-1.202,1.312-2.732,1.968-4.372,1.968
			s-3.061-0.655-4.263-1.968c-0.655-0.765-1.094-1.529-1.422-2.404v3.389c0,0.108-0.108,0.219-0.219,0.328
			c-0.108,0.108-0.219,0.218-0.328,0.218h-2.185l-0.219-0.109l-0.22-0.328c-0.983-2.622-2.186-4.7-3.825-6.23v6.122
			c0,0.108-0.11,0.219-0.219,0.328c-0.108,0.108-0.219,0.218-0.327,0.218h-2.406l-0.218-0.109c-0.109,0.109-0.219,0.109-0.328,0.109
			h-2.405l-0.326-0.218c-0.111-0.109-0.22-0.22-0.22-0.328l-0.218-2.077h-4.264l-0.109,2.077c0,0.108-0.109,0.219-0.218,0.328
			c-0.11,0.108-0.22,0.218-0.328,0.218h-2.404l-0.221-0.109l-0.218-0.218l-0.109-0.219l0.327-2.077
			c-0.546,0.656-1.092,1.202-1.748,1.75c-2.076,1.311-4.591,1.528-7.761,0.764l-0.218-0.218l-0.109-0.329
			c0.218-3.605,0.218-7.214,0-10.93l0.109-0.328l0.327-0.109c3.389-0.766,6.012-0.438,7.98,0.984
			c0.764,0.655,1.419,1.421,1.966,2.404c0.22,0.547,0.329,1.093,0.438,1.749c0.765-1.969,1.641-3.607,2.843-4.919l0.219-0.219h0.218
			h2.405h0.219l0.109,0.219c1.748,2.076,2.951,4.81,3.716,8.198v-7.979l0.219-0.328l0.327-0.218h2.077l0.22,0.108
			c1.421,1.093,2.843,2.405,4.152,4.044v-3.606l0.11-0.438l0.328-0.108h2.513l0.328,0.108l0.219,0.438v3.498
			c0.328-0.875,0.767-1.641,1.422-2.405C83.258,58.445,84.679,57.79,86.318,57.79L86.318,57.79z M86.318,57.681
			c1.748,0,3.17,0.656,4.372,1.857c0.547,0.547,0.875,1.094,1.202,1.749v-2.731l0.219-0.438l0.328-0.108h2.076l0.328,0.108
			c1.422,0.984,2.732,2.295,3.936,3.826v-3.389c0-0.219,0.11-0.328,0.219-0.438c0.108-0.108,0.219-0.22,0.438-0.22h2.404
			c0.221,0,0.327,0.111,0.438,0.22c0.109,0.109,0.22,0.219,0.22,0.438v3.169c0.328-0.765,0.765-1.53,1.312-2.076
			c1.203-1.312,2.514-1.968,4.153-1.968l0,0h0.11c1.529,0,2.84,0.656,3.934,1.968c0.984,1.203,1.531,2.732,1.531,4.48l-0.109,1.094
			c0,0.11,0,0.219-0.109,0.328l-0.437,0.109h-6.997c0.109,0.328,0.221,0.547,0.438,0.655c0.548,0.547,1.095,0.876,1.751,0.984
			c0.765-0.108,1.31-0.328,1.747-0.874l0.328-0.219h0.328l2.405,0.546l0.327,0.109c0.109,0.109,0.109,0.22,0.109,0.329l-0.109,0.437
			l-0.874,1.093c-1.204,1.203-2.624,1.858-4.263,1.858c-1.641,0-3.061-0.655-4.266-1.858c-0.547-0.655-0.981-1.421-1.311-2.186
			v3.061l-0.219,0.438c-0.11,0.109-0.219,0.109-0.438,0.109h-2.077l-0.327-0.109l-0.219-0.218c-0.986-2.623-2.186-4.701-3.718-6.122
			v5.903l-0.217,0.438c-0.109,0.109-0.22,0.109-0.438,0.109h-2.404l-0.328-0.109l-0.219-0.438V67.08
			c-0.327,0.546-0.655,1.093-1.202,1.639c-1.202,1.203-2.624,1.858-4.372,1.858c-1.64,0-3.17-0.655-4.373-1.858
			c-0.545-0.655-0.983-1.312-1.312-2.077v2.952l-0.108,0.438l-0.438,0.109h-2.185c-0.11,0-0.219,0-0.328-0.109l-0.22-0.218
			c-0.874-2.623-2.076-4.701-3.607-6.122v5.903l-0.219,0.438l-0.436,0.109h-2.406h-0.218H70.14h-2.405l-0.438-0.109l-0.218-0.438
			l-0.218-1.968h-4.045l-0.109,1.968l-0.219,0.438l-0.437,0.109h-2.404h-0.329l-0.219-0.327v-0.329l0.109-1.639
			c-0.328,0.546-0.874,1.093-1.53,1.422c-2.076,1.419-4.591,1.639-7.761,0.873l-0.327-0.218l-0.109-0.438
			c0.327-3.605,0.327-7.214,0-10.93l0.109-0.328l0.437-0.218c3.389-0.767,6.012-0.329,7.98,1.093
			c0.873,0.546,1.53,1.311,1.966,2.295l0,0l0.547,1.529c0.655-1.857,1.531-3.389,2.733-4.699l0.108-0.109l0.328-0.108h2.405
			l0.219,0.108l0.218,0.109c1.64,1.967,2.843,4.481,3.607,7.542v-7.214l0.109-0.438l0.437-0.108h2.077l0.329,0.108
			c1.421,0.984,2.733,2.295,3.935,3.826v-3.389c0-0.219,0.108-0.328,0.219-0.438l0.328-0.22h2.513l0.438,0.22
			c0.108,0.109,0.108,0.219,0.108,0.438v3.06c0.328-0.764,0.767-1.421,1.312-2.077C83.148,58.337,84.679,57.681,86.318,57.681
			L86.318,57.681z M108.07,60.96h-0.109c-0.656,0-1.202,0.327-1.641,0.874l-0.327,0.438h3.825l-0.325-0.438
			C109.163,61.287,108.617,60.96,108.07,60.96L108.07,60.96L108.07,60.96z M107.961,60.852c-0.656,0-1.202,0.327-1.749,0.873
			l-0.328,0.547h4.046l-0.328-0.547c-0.438-0.546-0.983-0.873-1.529-0.873l0,0H107.961L107.961,60.852z M55.713,61.397
			c-0.547-0.328-1.422-0.546-2.405-0.546v6.23c1.093,0.109,1.858-0.11,2.296-0.438c0.546-0.328,0.874-0.764,1.094-1.093
			c0.218-0.438,0.327-0.875,0.327-1.422l-0.218-1.42C56.587,62.271,56.259,61.834,55.713,61.397L55.713,61.397z M55.604,61.507
			c-0.547-0.328-1.312-0.547-2.296-0.547l0.109,6.122c0.983,0,1.64-0.11,2.187-0.438l0,0c0.546-0.328,0.874-0.764,0.983-1.202l0,0
			c0.22-0.438,0.328-0.874,0.328-1.312l-0.218-1.42C56.587,62.381,56.149,61.944,55.604,61.507L55.604,61.507z M66.206,64.349
			c-0.328-0.984-0.874-1.968-1.421-2.733c-0.546,0.766-0.985,1.749-1.312,2.733H66.206L66.206,64.349z M66.097,64.239
			c-0.328-0.875-0.765-1.64-1.312-2.405c-0.546,0.766-0.875,1.53-1.202,2.405H66.097L66.097,64.239z"/>
		<path fill="#191B6E" d="M84.351,61.834c-0.546,0.547-0.874,1.312-0.874,2.295c0,0.875,0.328,1.641,0.874,2.297
			c0.548,0.546,1.312,0.874,2.076,0.874c0.767,0,1.422-0.328,1.969-0.874c0.546-0.656,0.874-1.422,0.874-2.297
			c0-0.982-0.328-1.748-0.874-2.295c-0.547-0.655-1.202-0.982-1.969-0.982C85.662,60.852,84.898,61.179,84.351,61.834L84.351,61.834
			z M86.318,57.898c1.64,0,3.061,0.657,4.264,1.859c0.765,0.874,1.311,1.857,1.529,3.061v-4.263l0.109-0.219l0.219-0.109h2.076
			l0.218,0.109c1.532,1.093,2.954,2.515,4.373,4.372v-4.153v-0.328l0.329-0.109h2.404l0.327,0.109v0.328v11.04v0.219
			c-0.107,0.109-0.219,0.109-0.327,0.109h-2.077l-0.219-0.109l-0.108-0.11c-0.983-2.842-2.404-5.028-4.153-6.667v6.559l-0.109,0.219
			c-0.11,0.109-0.219,0.109-0.329,0.109H92.44l-0.219-0.109l-0.109-0.219v-4.154c-0.219,1.202-0.765,2.187-1.529,3.061
			c-1.203,1.202-2.624,1.858-4.264,1.858c-1.64,0-2.951-0.656-4.153-1.858c-1.203-1.202-1.75-2.622-1.75-4.373
			c0-1.638,0.547-3.169,1.75-4.371C83.367,58.556,84.679,57.898,86.318,57.898L86.318,57.898z M84.241,61.725
			c-0.546,0.656-0.874,1.422-0.874,2.404c0,0.875,0.328,1.641,0.874,2.297c0.547,0.656,1.312,0.983,2.186,0.983
			c0.767,0,1.531-0.327,2.078-0.983c0.546-0.656,0.874-1.422,0.874-2.297c0-0.982-0.328-1.748-0.874-2.404
			c-0.547-0.655-1.312-0.983-2.078-0.983C85.553,60.741,84.788,61.069,84.241,61.725L84.241,61.725z M86.318,58.01
			c1.64,0,3.061,0.655,4.154,1.857c1.202,1.202,1.748,2.624,1.748,4.262c0,1.641-0.546,3.171-1.748,4.373
			c-1.094,1.202-2.515,1.749-4.154,1.749c-1.639,0-2.951-0.547-4.044-1.749c-1.203-1.202-1.749-2.732-1.749-4.373
			c0-1.638,0.546-3.06,1.749-4.262C83.367,58.665,84.679,58.01,86.318,58.01L86.318,58.01z M92.331,58.337h0.108h2.076h0.11
			c1.64,1.201,3.062,2.732,4.48,4.59v-4.371l0.11-0.219l0.219-0.109h2.404l0.221,0.109l0.106,0.219v11.04l-0.106,0.219h-0.221
			h-2.077h-0.219v-0.11c-1.092-2.951-2.513-5.246-4.371-6.886v6.777l-0.11,0.219h-0.219h-2.404H92.33l-0.11-0.219v-11.04
			L92.331,58.337L92.331,58.337z M107.961,57.898h0.109c1.423,0,2.732,0.657,3.715,1.859c0.984,1.202,1.531,2.733,1.531,4.371
			c0,0.329,0,0.657-0.108,0.984l-0.11,0.22l-0.217,0.108h-7.436l0.658,1.094c0.543,0.656,1.201,0.983,1.967,0.983
			s1.423-0.327,1.969-0.983l0.218-0.109h0.108l2.404,0.546l0.219,0.11l0.109,0.218l-0.109,0.219
			c-0.219,0.328-0.437,0.656-0.766,0.983c-1.203,1.202-2.514,1.858-4.152,1.858s-2.95-0.656-4.045-1.858
			c-1.201-1.202-1.748-2.622-1.748-4.373c0-1.638,0.547-3.169,1.748-4.371C105.12,58.556,106.432,58.01,107.961,57.898
			L107.961,57.898L107.961,57.898z M107.961,58.01h0.109c1.423,0,2.623,0.655,3.606,1.857c0.983,1.202,1.53,2.624,1.53,4.262
			c0,0.329,0,0.657-0.109,0.984l-0.109,0.22h-0.107h-7.544c0.108,0.437,0.438,0.874,0.769,1.202
			c0.543,0.765,1.199,1.093,1.967,1.093c0.765,0,1.529-0.328,2.076-0.984l0.108-0.108h0.108l2.404,0.547h0.11l0.108,0.218
			l-0.108,0.109l-0.767,1.093c-1.094,1.202-2.404,1.749-4.043,1.749c-1.641,0-2.951-0.547-4.045-1.749s-1.641-2.732-1.641-4.373
			c0-1.638,0.547-3.06,1.641-4.262C105.119,58.666,106.432,58.118,107.961,58.01L107.961,58.01z M107.961,60.632
			c-0.766,0-1.312,0.328-1.855,0.983l-0.658,0.984h4.919l-0.546-0.984c-0.547-0.655-1.094-0.983-1.748-0.983H107.961L107.961,60.632
			c-0.766,0.109-1.312,0.438-1.855,0.983l-0.551,0.876h4.594l-0.438-0.876c-0.437-0.546-0.983-0.874-1.64-0.983H107.961
			L107.961,60.632L107.961,60.632z M49.81,58.337l0.219-0.109c3.279-0.656,5.903-0.329,7.871,1.093
			c0.765,0.547,1.42,1.312,1.857,2.187c0.328,0.765,0.547,1.64,0.547,2.622c0.765-2.295,1.749-4.153,3.06-5.684l0.11-0.108
			l0.218-0.109h2.405l0.109,0.109l0.109,0.108c2.076,2.406,3.39,5.684,4.044,9.947v-9.837l0.109-0.219l0.218-0.109h2.077
			l0.109,0.109c1.531,1.093,2.953,2.515,4.373,4.372v-4.153l0.108-0.328l0.22-0.109h2.513l0.22,0.109l0.108,0.328v11.04
			l-0.108,0.219l-0.22,0.109h-2.185l-0.11-0.109l-0.108-0.11c-1.094-2.842-2.515-5.028-4.264-6.667v6.559l-0.108,0.219l-0.219,0.109
			h-2.406l-0.218-0.109l0,0l-0.109,0.109H70.14h-2.405c-0.108,0-0.218,0-0.218-0.109l-0.108-0.219
			c-0.111-0.766-0.22-1.53-0.329-2.187h-4.481l-0.218,2.187l-0.11,0.219l-0.218,0.109h-2.404H59.54l-0.22-0.22v-0.108l0.329-2.952
			l-0.109,0.328l0,0c-0.438,0.875-1.095,1.53-1.969,2.076c-1.967,1.312-4.481,1.531-7.542,0.767l-0.219-0.11v-0.219
			c0.219-3.605,0.219-7.214,0-10.93V58.337L49.81,58.337z M50.028,58.337c3.279-0.656,5.903-0.327,7.761,0.983
			c0.875,0.547,1.53,1.312,1.859,2.187c0.437,0.874,0.655,1.749,0.546,2.732v0.765c0.655-2.623,1.748-4.81,3.279-6.559l0.109-0.108
			h0.108h2.405h0.109l0.109,0.108c2.186,2.624,3.606,6.341,4.153,11.15l-0.109,0.108l-0.109,0.11h-0.109h-2.405h-0.218l-0.108-0.219
			l-0.22-2.296h-4.7l-0.108,2.296l-0.11,0.219h-0.218h-2.404h-0.109l-0.111-0.11v-0.108c0.111-1.312,0.221-2.514,0.547-3.716
			l-0.436,0.982c-0.547,0.875-1.203,1.64-2.078,2.186c-1.857,1.312-4.372,1.531-7.433,0.767l-0.109-0.11l-0.109-0.219
			c0.328-3.605,0.328-7.214,0-10.93l0.109-0.11L50.028,58.337L50.028,58.337z M55.713,61.287c-0.547-0.436-1.422-0.655-2.624-0.546
			V67.3c1.202,0,2.077-0.108,2.624-0.438c0.546-0.437,0.984-0.874,1.094-1.312c0.218-0.438,0.326-0.875,0.326-1.422
			c0.108-0.546,0-0.982-0.218-1.42C56.807,62.162,56.368,61.725,55.713,61.287L55.713,61.287z M57.024,62.6
			c-0.218-0.438-0.656-0.875-1.203-1.421c-0.546-0.438-1.53-0.655-2.842-0.547l0.109,6.777c1.202,0,2.187-0.218,2.732-0.547
			c0.547-0.327,0.876-0.765,1.094-1.312c0.218-0.438,0.326-0.875,0.326-1.422L57.024,62.6L57.024,62.6z M70.469,58.337h0.218h2.077
			h0.109c1.641,1.201,3.062,2.732,4.481,4.59v-4.371l0.109-0.219l0.11-0.109h2.513l0.22,0.109v0.219v11.04v0.219h-0.22h-2.185h-0.11
			l-0.108-0.11c-0.984-2.951-2.515-5.246-4.372-6.886v6.777v0.219h-0.219h-2.406h-0.218v-0.219v-11.04v-0.219H70.469z
			 M66.425,64.567c-0.438-1.203-0.984-2.296-1.64-3.17c-0.656,0.874-1.202,1.967-1.53,3.17H66.425L66.425,64.567z M66.533,64.676
			c-0.437-1.312-0.983-2.514-1.748-3.497c-0.765,0.983-1.312,2.077-1.64,3.497H66.533L66.533,64.676z"/>
		<path fill="#1A1C6E" d="M83.367,64.129c-0.109,0.984,0.218,1.751,0.874,2.406c0.547,0.656,1.312,0.983,2.186,0.983
			c0.767,0,1.531-0.327,2.078-0.983c0.654-0.655,0.983-1.422,0.983-2.406c0-0.982-0.329-1.748-0.983-2.404
			c-0.547-0.765-1.312-1.093-2.078-1.093c-0.874,0-1.639,0.328-2.186,1.093C83.585,62.381,83.258,63.146,83.367,64.129
			c0-0.982,0.328-1.748,0.874-2.404c0.547-0.655,1.312-0.983,2.186-0.983c0.767,0,1.531,0.328,2.078,0.983
			c0.546,0.656,0.874,1.422,0.874,2.404c0,0.875-0.328,1.641-0.874,2.297c-0.547,0.656-1.312,0.983-2.078,0.983
			c-0.874,0-1.639-0.327-2.186-0.983C83.695,65.77,83.367,65.004,83.367,64.129L83.367,64.129z M86.318,58.01
			c1.64,0,3.061,0.655,4.154,1.857c1.202,1.202,1.748,2.624,1.748,4.262c0,1.641-0.546,3.171-1.748,4.373
			c-1.094,1.202-2.515,1.749-4.154,1.749c-1.639,0-2.951-0.547-4.044-1.749c-1.203-1.202-1.749-2.732-1.749-4.373
			c0-1.638,0.546-3.06,1.749-4.262C83.367,58.665,84.679,58.01,86.318,58.01L86.318,58.01z M86.318,58.118
			c1.64,0,2.951,0.547,4.154,1.749c1.093,1.202,1.639,2.624,1.639,4.262c0,1.641-0.546,3.062-1.639,4.264
			c-1.203,1.203-2.515,1.749-4.154,1.858c-1.53-0.109-2.842-0.655-4.044-1.858c-1.094-1.201-1.641-2.623-1.641-4.264
			c0-1.638,0.547-3.06,1.641-4.262C83.477,58.665,84.788,58.118,86.318,58.118L86.318,58.118z M92.331,58.337h0.108h2.076h0.11
			c1.64,1.201,3.062,2.732,4.48,4.59v-4.371l0.11-0.219l0.219-0.109h2.404l0.221,0.109l0.106,0.219v11.04l-0.106,0.219h-0.221
			h-2.077h-0.219v-0.11c-1.092-2.951-2.513-5.246-4.371-6.886v6.777l-0.11,0.219h-0.219h-2.404H92.33l-0.11-0.219v-11.04
			L92.331,58.337L92.331,58.337z M92.331,58.445h0.108h2.076h0.11c1.64,1.203,3.17,2.733,4.591,4.811v-4.7l0.108-0.219h0.11h2.404
			h0.107l0.111,0.219v11.04l-0.111,0.108h-0.107h-2.077h-0.108l-0.11-0.108c-1.092-2.952-2.624-5.247-4.481-6.887v6.887v0.108
			h-0.219h-2.404h-0.108v-0.108v-11.04V58.445L92.331,58.445z M107.961,58.118h0.109c1.423,0,2.623,0.547,3.606,1.749
			c0.983,1.202,1.421,2.624,1.421,4.262c0,0.329,0,0.657-0.109,0.984v0.109h-0.107h-7.652c0.108,0.547,0.438,0.984,0.766,1.421
			c0.547,0.656,1.312,0.984,2.078,0.984c0.765,0,1.529-0.328,2.076-0.984h0.108h0.108l2.404,0.548h0.11V67.3v0.109
			c-0.22,0.328-0.438,0.656-0.767,0.983c-1.094,1.203-2.404,1.858-4.043,1.858c-1.531,0-2.844-0.655-3.937-1.858
			c-1.093-1.201-1.64-2.623-1.64-4.264c0-1.638,0.547-3.06,1.64-4.262C105.12,58.665,106.432,58.118,107.961,58.118L107.961,58.118z
			 M107.961,58.01h0.109c1.423,0,2.623,0.655,3.606,1.857c0.983,1.202,1.53,2.624,1.53,4.262c0,0.329,0,0.657-0.109,0.984
			l-0.109,0.22h-0.107h-7.544c0.108,0.437,0.438,0.874,0.769,1.202c0.543,0.765,1.199,1.093,1.967,1.093
			c0.765,0,1.529-0.328,2.076-0.984l0.108-0.108h0.108l2.404,0.547h0.11l0.108,0.218l-0.108,0.109l-0.767,1.093
			c-1.094,1.202-2.404,1.749-4.043,1.749c-1.641,0-2.951-0.547-4.045-1.749s-1.641-2.732-1.641-4.373
			c0-1.638,0.547-3.06,1.641-4.262C105.119,58.666,106.432,58.118,107.961,58.01L107.961,58.01z M107.961,60.632
			c-0.766,0-1.312,0.328-1.855,0.983l-0.658,0.984h4.919l-0.546-0.984c-0.547-0.655-1.094-0.983-1.748-0.983H107.961L107.961,60.632
			L107.961,60.632z M107.961,60.523c-0.766,0-1.421,0.328-1.968,0.983l-0.656,1.093h5.14l-0.547-1.093l0,0
			c-0.549-0.655-1.094-0.983-1.857-0.983H107.961L107.961,60.523L107.961,60.523z M50.028,58.445
			c3.279-0.765,5.903-0.436,7.761,0.984c0.766,0.546,1.421,1.312,1.859,2.186l0,0c0.326,0.766,0.546,1.641,0.546,2.624
			c-0.109,0.983-0.329,1.858-0.767,2.623c-0.546,0.875-1.201,1.53-1.967,2.077c-1.968,1.312-4.481,1.53-7.433,0.765l-0.109-0.108
			v-0.11c0.329-3.605,0.329-7.214,0-10.93v-0.11L50.028,58.445L50.028,58.445z M50.028,58.337c3.279-0.656,5.903-0.327,7.761,0.983
			c0.875,0.547,1.53,1.312,1.859,2.187c0.437,0.874,0.655,1.749,0.546,2.732v0.765c0.655-2.623,1.748-4.81,3.279-6.559l0.109-0.108
			h0.108h2.405h0.109l0.109,0.108c2.186,2.624,3.606,6.341,4.153,11.15l-0.109,0.108l-0.109,0.11h-0.109h-2.405h-0.218l-0.108-0.219
			l-0.22-2.296h-4.7l-0.108,2.296l-0.11,0.219h-0.218h-2.404h-0.109l-0.111-0.11v-0.108c0.111-1.312,0.221-2.514,0.547-3.716
			l-0.436,0.982c-0.547,0.875-1.203,1.64-2.078,2.186c-1.857,1.312-4.372,1.531-7.433,0.767l-0.109-0.11l-0.109-0.219
			c0.328-3.605,0.328-7.214,0-10.93l0.109-0.11L50.028,58.337L50.028,58.337z M57.133,62.6c-0.218-0.546-0.655-0.984-1.312-1.421
			c-0.546-0.547-1.53-0.766-2.951-0.655l0.109,6.886c1.312,0.109,2.296-0.109,2.842-0.438c0.547-0.437,0.985-0.874,1.203-1.312
			c0.217-0.547,0.327-0.984,0.327-1.531L57.133,62.6L57.133,62.6z M57.024,62.6c-0.218-0.438-0.656-0.875-1.203-1.421
			c-0.546-0.438-1.53-0.655-2.842-0.547l0.109,6.777c1.202,0,2.187-0.218,2.732-0.547c0.547-0.327,0.876-0.765,1.094-1.312
			c0.218-0.438,0.326-0.875,0.326-1.422L57.024,62.6L57.024,62.6z M63.583,58.445h0.108h2.405l0,0l0.109,0.11
			c2.186,2.514,3.607,6.23,4.153,11.04v0.108H70.25h-0.109h-2.405h-0.108l-0.109-0.108l-0.22-2.404H62.49l-0.219,2.404
			c0,0.108,0,0.108-0.109,0.108h-0.108H59.65h-0.109l0,0v-0.108c0.326-4.7,1.638-8.417,3.935-11.04L63.583,58.445L63.583,58.445z
			 M70.469,58.337h0.218h2.077h0.109c1.641,1.201,3.062,2.732,4.481,4.59v-4.371l0.109-0.219l0.11-0.109h2.513l0.22,0.109v0.219
			v11.04v0.219h-0.22h-2.185h-0.11l-0.108-0.11c-0.984-2.951-2.515-5.246-4.372-6.886v6.777v0.219h-0.219h-2.406h-0.218v-0.219
			v-11.04v-0.219H70.469z M70.578,58.445h0.108h2.077l0,0c1.641,1.203,3.28,2.733,4.7,4.811v-4.7v-0.219h0.11h2.513h0.109v0.219
			v11.04v0.108h-0.109h-2.185l0,0l-0.11-0.108c-1.093-2.952-2.623-5.247-4.48-6.887v6.887c0,0.108,0,0.108-0.11,0.108h-0.108h-2.406
			h-0.108l-0.109-0.108v-11.04L70.578,58.445L70.578,58.445z M66.643,64.676c-0.437-1.42-1.093-2.622-1.857-3.606
			c-0.765,0.984-1.422,2.187-1.749,3.606H66.643L66.643,64.676z M66.533,64.676c-0.437-1.312-0.983-2.514-1.748-3.497
			c-0.765,0.983-1.312,2.077-1.64,3.497H66.533L66.533,64.676z"/>
		<path fill="#1A1B6E" d="M83.258,64.129c0,0.984,0.327,1.751,0.874,2.406c0.656,0.765,1.421,1.093,2.295,1.093
			c0.875,0,1.64-0.328,2.188-1.093c0.545-0.655,0.874-1.422,0.874-2.406c0-0.982-0.329-1.857-0.874-2.514
			c-0.548-0.655-1.312-0.983-2.188-0.983c-0.874,0-1.639,0.328-2.295,0.983C83.585,62.271,83.258,63.146,83.258,64.129
			L83.258,64.129z M83.367,64.129c-0.109,0.984,0.218,1.751,0.874,2.406c0.547,0.656,1.312,0.983,2.186,0.983
			c0.767,0,1.531-0.327,2.078-0.983c0.654-0.655,0.983-1.422,0.983-2.406c0-0.982-0.329-1.748-0.983-2.404
			c-0.547-0.765-1.312-1.093-2.078-1.093c-0.874,0-1.639,0.328-2.186,1.093C83.585,62.381,83.258,63.146,83.367,64.129
			L83.367,64.129z M86.318,58.228c1.64,0,2.951,0.547,4.044,1.748c1.093,1.203,1.64,2.516,1.64,4.153
			c0,1.641-0.547,3.062-1.64,4.264c-1.093,1.203-2.404,1.749-4.044,1.749c-1.53,0-2.842-0.546-3.935-1.749
			c-1.094-1.201-1.641-2.623-1.641-4.264c0-1.638,0.547-2.95,1.641-4.153C83.477,58.774,84.788,58.228,86.318,58.228L86.318,58.228z
			 M86.318,58.118c1.64,0,2.951,0.547,4.154,1.749c1.093,1.202,1.639,2.624,1.639,4.262c0,1.641-0.546,3.062-1.639,4.264
			c-1.203,1.203-2.515,1.749-4.154,1.858c-1.53-0.109-2.842-0.655-4.044-1.858c-1.094-1.201-1.641-2.623-1.641-4.264
			c0-1.638,0.547-3.06,1.641-4.262C83.477,58.665,84.788,58.118,86.318,58.118L86.318,58.118z M92.331,58.445h0.108h2.076h0.11
			c1.64,1.203,3.17,2.733,4.591,4.811v-4.7l0.108-0.219h0.11h2.404h0.107l0.111,0.219v11.04l-0.111,0.108h-0.107h-2.077h-0.108
			l-0.11-0.108c-1.092-2.952-2.624-5.247-4.481-6.887v6.887v0.108h-0.219h-2.404h-0.108v-0.108v-11.04V58.445L92.331,58.445z
			 M94.516,58.445c1.75,1.203,3.391,2.952,4.81,5.028v-4.918v-0.11h0.11h2.404h0.108v0.11v11.04l0,0l-0.108,0.108h-2.077h-0.108
			v-0.108c-1.094-3.17-2.623-5.467-4.7-7.104v7.104l0,0l-0.11,0.108h-2.404v-0.108l0,0v-11.04l0,0v-0.11H94.516L94.516,58.445
			L94.516,58.445z M107.961,58.118h0.109c1.423,0,2.623,0.547,3.606,1.749c0.983,1.202,1.421,2.624,1.421,4.262
			c0,0.329,0,0.657-0.109,0.984v0.109h-0.107h-7.652c0.108,0.547,0.438,0.984,0.766,1.421c0.547,0.656,1.312,0.984,2.078,0.984
			c0.765,0,1.529-0.328,2.076-0.984h0.108h0.108l2.404,0.548h0.11V67.3v0.109c-0.22,0.328-0.438,0.656-0.767,0.983
			c-1.094,1.203-2.404,1.858-4.043,1.858c-1.531,0-2.844-0.655-3.937-1.858c-1.093-1.201-1.64-2.623-1.64-4.264
			c0-1.638,0.547-3.06,1.64-4.262C105.12,58.665,106.432,58.118,107.961,58.118L107.961,58.118z M108.07,58.228
			c1.423,0,2.513,0.547,3.498,1.748c0.983,1.203,1.42,2.516,1.42,4.153v0.984h-0.107v0.109h-7.761
			c0.108,0.547,0.435,0.984,0.764,1.421c0.656,0.766,1.421,1.094,2.188,1.094c0.875,0,1.639-0.328,2.186-0.984l0,0h0.108
			l2.403,0.438l0,0V67.3l0,0l-0.765,1.093c-1.094,1.203-2.403,1.749-3.935,1.749c-1.53,0-2.842-0.546-3.936-1.749
			c-1.093-1.201-1.64-2.623-1.64-4.264c0-1.638,0.547-2.95,1.64-4.153c1.094-1.201,2.404-1.748,3.825-1.748H108.07L108.07,58.228z
			 M107.961,60.523c-0.766,0-1.421,0.328-1.968,0.983l-0.656,1.093h5.14l-0.547-1.093l0,0c-0.549-0.655-1.094-0.983-1.857-0.983
			H107.961L107.961,60.523L107.961,60.523z M107.961,60.413c-0.766,0.11-1.529,0.438-2.077,1.094l-0.655,1.202h5.354l-0.653-1.202
			c-0.549-0.766-1.094-1.094-1.857-1.094H107.961L107.961,60.413z M50.138,58.445c3.17-0.655,5.684-0.327,7.542,0.984
			c0.765,0.546,1.421,1.312,1.859,2.186c0.326,0.766,0.546,1.641,0.546,2.624c-0.11,0.874-0.328,1.749-0.766,2.623
			c-0.438,0.766-1.093,1.53-1.858,2.077c-1.968,1.202-4.481,1.421-7.433,0.656l0,0v-0.11c0.22-3.605,0.22-7.214,0-10.93l0,0
			L50.138,58.445L50.138,58.445z M50.028,58.445c3.279-0.765,5.903-0.436,7.761,0.984c0.766,0.546,1.421,1.312,1.859,2.186l0,0
			c0.326,0.766,0.546,1.641,0.546,2.624c-0.109,0.983-0.329,1.858-0.767,2.623c-0.546,0.875-1.201,1.53-1.967,2.077
			c-1.968,1.312-4.481,1.53-7.433,0.765l-0.109-0.108v-0.11c0.329-3.605,0.329-7.214,0-10.93v-0.11L50.028,58.445L50.028,58.445z
			 M57.133,62.6c-0.108-0.546-0.546-0.984-1.201-1.53c-0.656-0.546-1.641-0.766-3.062-0.656v7.105
			c1.421,0.109,2.405-0.109,2.951-0.437c0.547-0.438,0.985-0.875,1.312-1.422c0.219-0.547,0.328-0.984,0.328-1.531
			C57.461,63.583,57.352,63.037,57.133,62.6c-0.218-0.546-0.655-0.984-1.312-1.421c-0.546-0.547-1.53-0.766-2.951-0.655l0.109,6.886
			c1.312,0.109,2.296-0.109,2.842-0.438c0.547-0.437,0.985-0.874,1.203-1.312c0.217-0.547,0.327-0.984,0.327-1.531L57.133,62.6
			L57.133,62.6z M63.691,58.556h2.405l0,0l0,0c2.295,2.623,3.608,6.34,4.153,11.04l0,0v0.108H70.14h-2.405l-0.108-0.108l0,0
			c-0.109-0.875-0.218-1.641-0.329-2.404h-4.917c-0.11,0.764-0.22,1.529-0.22,2.404l0,0l-0.108,0.108h-2.404l0,0l-0.109-0.108l0,0
			c0.436-4.7,1.748-8.417,4.044-11.04l0,0H63.691L63.691,58.556z M63.583,58.445h0.108h2.405l0,0l0.109,0.11
			c2.186,2.514,3.607,6.23,4.153,11.04v0.108H70.25h-0.109h-2.405h-0.108l-0.109-0.108l-0.22-2.404H62.49l-0.219,2.404
			c0,0.108,0,0.108-0.109,0.108h-0.108H59.65h-0.109l0,0v-0.108c0.326-4.7,1.638-8.417,3.935-11.04L63.583,58.445L63.583,58.445z
			 M70.578,58.445h0.108h2.077l0,0c1.641,1.203,3.28,2.733,4.7,4.811v-4.7v-0.219h0.11h2.513h0.109v0.219v11.04v0.108h-0.109h-2.185
			l0,0l-0.11-0.108c-1.093-2.952-2.623-5.247-4.48-6.887v6.887c0,0.108,0,0.108-0.11,0.108h-0.108h-2.406h-0.108l-0.109-0.108
			v-11.04L70.578,58.445L70.578,58.445z M72.764,58.445c1.641,1.203,3.28,2.952,4.811,5.028v-4.918v-0.11l0,0h2.513h0.109v0.11
			v11.04l0,0l-0.109,0.108h-2.185l0,0v-0.108c-1.203-3.17-2.733-5.467-4.701-7.104v7.104l0,0l-0.108,0.108h-2.406l-0.108-0.108l0,0
			v-11.04l0,0l0.108-0.11H72.764L72.764,58.445L72.764,58.445z M66.753,64.786c-0.438-1.422-1.094-2.732-1.968-3.826
			c-0.765,0.984-1.422,2.296-1.857,3.826H66.753L66.753,64.786z M66.643,64.676c-0.437-1.42-1.093-2.622-1.857-3.606
			c-0.765,0.984-1.422,2.187-1.749,3.606H66.643L66.643,64.676z"/>
		<path fill="#1B1C6F" d="M83.258,64.129c0,0.984,0.327,1.751,0.874,2.406c0.656,0.765,1.421,1.093,2.295,1.093
			c0.875,0,1.64-0.328,2.188-1.093c0.545-0.655,0.874-1.422,0.874-2.406c0-0.982-0.329-1.857-0.874-2.514
			c-0.548-0.655-1.312-0.983-2.188-0.983c-0.874,0-1.639,0.328-2.295,0.983C83.585,62.271,83.258,63.146,83.258,64.129
			L83.258,64.129z M86.318,58.228c1.64,0,2.951,0.547,4.044,1.748c1.093,1.203,1.64,2.516,1.64,4.153
			c0,1.641-0.547,3.062-1.64,4.264c-1.093,1.203-2.404,1.749-4.044,1.749c-1.53,0-2.842-0.546-3.935-1.749
			c-1.094-1.201-1.641-2.623-1.641-4.264c0-1.638,0.547-2.95,1.641-4.153C83.477,58.774,84.788,58.228,86.318,58.228L86.318,58.228z
			 M94.516,58.445c1.75,1.203,3.391,2.952,4.81,5.028v-4.918v-0.11h0.11h2.404h0.108v0.11v11.04l0,0l-0.108,0.108h-2.077h-0.108
			v-0.108c-1.094-3.17-2.623-5.467-4.7-7.104v7.104l0,0l-0.11,0.108h-2.404v-0.108l0,0v-11.04l0,0v-0.11H94.516L94.516,58.445
			L94.516,58.445z M108.07,58.228c1.423,0,2.513,0.547,3.498,1.748c0.983,1.203,1.42,2.516,1.42,4.153v0.984h-0.107v0.109h-7.761
			c0.108,0.547,0.435,0.984,0.764,1.421c0.656,0.766,1.421,1.094,2.188,1.094c0.875,0,1.639-0.328,2.186-0.984l0,0h0.108
			l2.403,0.438l0,0V67.3l0,0l-0.765,1.093c-1.094,1.203-2.403,1.749-3.935,1.749c-1.53,0-2.842-0.546-3.936-1.749
			c-1.093-1.201-1.64-2.623-1.64-4.264c0-1.638,0.547-2.95,1.64-4.153c1.094-1.201,2.404-1.748,3.825-1.748H108.07L108.07,58.228z
			 M107.961,60.413c-0.766,0.11-1.529,0.438-2.077,1.094l-0.655,1.202h5.354l-0.653-1.202c-0.549-0.766-1.094-1.094-1.857-1.094
			H107.961L107.961,60.413z M50.138,58.445c3.17-0.655,5.684-0.327,7.542,0.984c0.765,0.546,1.421,1.312,1.859,2.186
			c0.326,0.766,0.546,1.641,0.546,2.624c-0.11,0.874-0.328,1.749-0.766,2.623c-0.438,0.766-1.093,1.53-1.858,2.077
			c-1.968,1.202-4.481,1.421-7.433,0.656l0,0v-0.11c0.22-3.605,0.22-7.214,0-10.93l0,0L50.138,58.445L50.138,58.445z M57.133,62.6
			c-0.108-0.546-0.546-0.984-1.201-1.53c-0.656-0.546-1.641-0.766-3.062-0.656v7.105c1.421,0.109,2.405-0.109,2.951-0.437
			c0.547-0.438,0.985-0.875,1.312-1.422c0.219-0.547,0.328-0.984,0.328-1.531C57.461,63.583,57.352,63.037,57.133,62.6L57.133,62.6z
			 M63.691,58.556h2.405l0,0l0,0c2.295,2.623,3.608,6.34,4.153,11.04l0,0v0.108H70.14h-2.405l-0.108-0.108l0,0
			c-0.109-0.875-0.218-1.641-0.329-2.404h-4.917c-0.11,0.764-0.22,1.529-0.22,2.404l0,0l-0.108,0.108h-2.404l0,0l-0.109-0.108l0,0
			c0.436-4.7,1.748-8.417,4.044-11.04l0,0H63.691L63.691,58.556z M72.764,58.445c1.641,1.203,3.28,2.952,4.811,5.028v-4.918v-0.11
			l0,0h2.513h0.109v0.11v11.04l0,0l-0.109,0.108h-2.185l0,0v-0.108c-1.203-3.17-2.733-5.467-4.701-7.104v7.104l0,0l-0.108,0.108
			h-2.406l-0.108-0.108l0,0v-11.04l0,0l0.108-0.11H72.764L72.764,58.445L72.764,58.445z M66.753,64.786
			c-0.438-1.422-1.094-2.732-1.968-3.826c-0.765,0.984-1.422,2.296-1.857,3.826H66.753L66.753,64.786z"/>
		<g>
			<path fill="#FFFFFF" d="M63.255,58.445c-2.295,2.624-3.716,6.231-4.045,10.931h2.405l0.218-2.514h5.139l0.326,2.514h2.407
				c-0.548-4.701-1.86-8.416-4.046-10.931H63.255z M62.381,64.676c0.437-1.639,1.093-2.951,1.967-4.044
				c0.874,1.093,1.53,2.405,2.077,4.044H62.381z"/>
			<path fill="#FFFFFF" d="M77.136,63.474c-1.53-2.076-3.17-3.825-4.81-5.137H70.25v11.039h2.405v-7.214
				c2.077,1.641,3.716,4.045,4.809,7.214h2.187V58.337h-2.515V63.474z"/>
			<g>
				<path fill="none" d="M55.493,60.851c-0.656-0.548-1.749-0.766-3.169-0.657v7.215c1.529,0.109,2.623-0.109,3.169-0.547
					c0.547-0.437,0.984-0.874,1.204-1.421c0.218-0.437,0.328-0.983,0.436-1.53c0-0.547-0.108-1.093-0.326-1.64
					C56.587,61.725,56.149,61.287,55.493,60.851z"/>
				<path fill="#FFFFFF" d="M58.992,61.397c-0.328-0.765-0.983-1.53-1.751-2.078c-1.856-1.31-4.371-1.639-7.54-0.983
					c0.218,3.717,0.218,7.324,0,10.932c2.95,0.764,5.356,0.546,7.214-0.657c0.765-0.546,1.421-1.202,1.967-2.076
					c0.437-0.766,0.657-1.64,0.657-2.515C59.648,63.037,59.428,62.162,58.992,61.397z M56.697,65.441
					c-0.22,0.547-0.657,0.984-1.204,1.421c-0.546,0.438-1.64,0.656-3.169,0.547v-7.215c1.42-0.109,2.513,0.109,3.169,0.657
					c0.656,0.436,1.094,0.874,1.314,1.42c0.218,0.547,0.326,1.093,0.326,1.64C57.025,64.458,56.915,65.004,56.697,65.441z"/>
			</g>
			<path fill="#FFFFFF" d="M112.443,63.911c0-1.639-0.439-2.951-1.424-4.153c-0.981-1.202-2.074-1.748-3.388-1.748h-0.108
				c-1.42,0.108-2.732,0.655-3.717,1.748c-1.095,1.202-1.641,2.514-1.641,4.153c0,1.639,0.546,3.06,1.641,4.154
				c0.983,1.203,2.297,1.749,3.825,1.749c1.531,0,2.843-0.546,3.937-1.749c0.328-0.328,0.547-0.656,0.766-0.983l-2.404-0.547
				c-0.656,0.765-1.422,1.093-2.297,1.093s-1.64-0.328-2.188-1.093c-0.436-0.547-0.766-1.094-0.873-1.64h7.871V63.911z M104.68,62.6
				l0.766-1.421c0.548-0.656,1.313-0.985,2.078-1.094h0.108c0.765,0,1.421,0.328,1.968,1.094l0.656,1.421H104.68z"/>
			<path fill="#FFFFFF" d="M98.998,63.474c-1.531-2.076-3.17-3.825-4.919-5.137h-2.077v11.039h2.405v-7.214
				c2.075,1.641,3.715,4.045,4.918,7.214h2.077V58.337h-2.404V63.474z"/>
			<g>
				<path fill="#FFFFFF" d="M89.818,59.758c-0.985-1.202-2.298-1.748-3.937-1.748c-1.53,0-2.843,0.546-3.936,1.748
					c-1.092,1.202-1.639,2.514-1.639,4.153c0,1.639,0.547,3.06,1.639,4.154c1.093,1.203,2.406,1.749,3.936,1.749
					c1.639,0,2.953-0.546,3.937-1.749c1.092-1.093,1.638-2.515,1.638-4.154C91.456,62.272,90.91,60.96,89.818,59.758z
					 M88.286,66.426c-0.655,0.656-1.422,0.983-2.295,0.983c-0.985,0-1.75-0.327-2.296-0.983c-0.657-0.766-0.983-1.53-0.983-2.515
					c0-0.985,0.326-1.857,0.983-2.624c0.546-0.655,1.311-0.983,2.296-0.983c0.873,0,1.64,0.328,2.295,0.983
					c0.547,0.767,0.873,1.64,0.873,2.624C89.159,64.895,88.833,65.66,88.286,66.426z"/>
			</g>
		</g>
	</g>
</g>
</svg>
