<?xml version="1.0" encoding="utf-8"?>
<!-- Generator: Adobe Illustrator 16.0.0, SVG Export Plug-In . SVG Version: 6.00 Build 0)  -->
<!DOCTYPE svg PUBLIC "-//W3C//DTD SVG 1.1//EN" "http://www.w3.org/Graphics/SVG/1.1/DTD/svg11.dtd">
<svg version="1.1" id="Layer_1" xmlns="http://www.w3.org/2000/svg" xmlns:xlink="http://www.w3.org/1999/xlink" x="0px" y="0px"
	 width="176.256px" height="78.3px" viewBox="8.224 57.216 176.256 78.3" enable-background="new 8.224 57.216 176.256 78.3"
	 xml:space="preserve">
<g>
	<path fill="#00AB66" d="M179.824,72.064c1.897,0,3.433,1.556,3.433,3.472s-1.535,3.472-3.433,3.472
		c-1.898,0-3.435-1.556-3.435-3.472C176.392,73.62,177.926,72.064,179.824,72.064L179.824,72.064z M179.824,72.544
		c-1.632,0-2.956,1.337-2.956,2.992c0,1.653,1.324,2.991,2.956,2.991c1.631,0,2.954-1.338,2.954-2.991
		C182.778,73.881,181.455,72.544,179.824,72.544L179.824,72.544z M179.146,75.391v-1.175h0.922c0.434,0,0.514,0.388,0.517,0.589
		c0.007,0.412-0.263,0.569-0.532,0.586H179.146L179.146,75.391z M178.423,77.524h0.725v-1.633h0.763c0.414,0,0.599,0.244,0.641,0.71
		c0.054,0.572,0.123,0.728,0.177,0.918l0.717,0.004v-0.101c-0.088-0.129-0.176-0.389-0.219-0.856
		c-0.065-0.705-0.097-0.746-0.517-0.972c0.351-0.126,0.614-0.476,0.614-0.894c0-0.328-0.172-1.073-1.112-1.073h-1.787
		L178.423,77.524L178.423,77.524z"/>
	<path fill="#00AB66" d="M113.196,87.07h5.646c3.695,0,7.17,2.927,8.232,6.992h-6.975c-0.533-0.933-1.884-5.268-4.688-5.268
		c-2.659,0-5.502,5.109-5.502,9.882c0,3.729,2.104,9.651,5.502,9.651c0.479,0,2.62-0.235,4.575-5.036h7.68
		c-0.812,3.263-4.09,6.806-8.454,6.806h-5.722c-8.174,0-10.483-6.479-10.483-11.467C103.008,96.626,103.7,87.07,113.196,87.07
		L113.196,87.07z"/>
	<path fill="#00AB66" d="M92.678,81.053c0-2.011,1.78-3.642,3.976-3.642c2.195,0,3.976,1.631,3.976,3.642
		c0,2.012-1.779,3.643-3.976,3.643C94.458,84.696,92.678,83.065,92.678,81.053L92.678,81.053z"/>
	<polygon fill="#00AB66" points="93.117,87.338 100.155,87.338 100.155,109.905 93.117,109.905 	"/>
	<path fill="#00AB66" d="M129.489,81.053c0-2.011,1.779-3.642,3.976-3.642s3.976,1.631,3.976,3.642c0,2.012-1.779,3.643-3.976,3.643
		S129.489,83.065,129.489,81.053L129.489,81.053z"/>
	<polygon fill="#00AB66" points="129.929,87.338 136.967,87.338 136.967,109.905 129.929,109.905 	"/>
	<path fill="#00AB66" d="M88.025,107.478c0.633,0,2.108-0.047,2.663,0c0.074,0.979-0.074,1.867,0,2.429H82.88
		c-1.696,0-3.069-1.642-3.069-3.666V76.742h7.032v28.727C86.842,105.469,87.027,107.478,88.025,107.478L88.025,107.478z"/>
	<g>
		<path fill="#00AB66" d="M160.217,89.823c-1.694-2.047-3.661-2.695-5.563-2.838c-1.916,0-4.842-0.041-6.174,0
			c-3.418,0.112-7.074,2.792-8.068,6.655c1.693,0.046,3.84,0,5.785,0c1.216-4.792,4.533-5.025,5.638-5.025
			c2.618,0,3.575,1.377,3.575,2.604c0,2.473-1.475,2.885-4.387,3.583c-1.731,0.558-6.754,1.199-8.469,2.255
			c-1.726,1.144-2.986,3.09-2.918,6.539c-0.025,1.793,0.539,3.23,1.338,4.272c0.92,1.138,2.43,1.987,4.406,1.987h3.303
			c3.207,0.232,5.266-1.254,6.356-2.072c0.442,0.372,0.369,1.209,0.332,1.953h7.021V95.593
			C162.392,94.289,161.616,91.498,160.217,89.823z M155.372,103.271c0,1.807-2.005,4.233-4.717,4.233
			c-3.125,0-3.317-3.526-3.317-4.606c0-1.918,0.666-3.367,1.777-4.465c1.87-1.49,3.565-1.631,5.149-2.422
			c1.032-0.557,0.922,0.001,1.107,0.141V103.271z"/>
	</g>
	<path fill="#00AB66" d="M59.735,98.832c-0.111-4.996,2.663-9.991,5.325-10.086c2.626-0.093,3.958,3.922,4.549,5.09
		c0,0,1.035,2.941-0.628,3.082C67.67,97.028,59.736,98.885,59.735,98.832L59.735,98.832z M77.461,96.775
		c-0.442-3.444-2.349-9.78-10.081-9.78h-1.026h-3.319c-9.527,0-10.207,9.572-10.207,11.581c0,4.995,2.314,11.485,10.502,11.485
		h5.732c4.371,0,7.387-3.549,8.2-6.816H69.57c-1.959,4.811-3.836,5.045-4.316,5.045c-2.844,0-4.783-4.141-5.344-7.682L77.461,96.775
		L77.461,96.775z"/>
	<g>
		<path fill="#00AB66" d="M50.082,76.785c-1.035-0.047-5.479,0-7.069,0v11.284c-0.333,1.867-1.701-0.514-4.918-0.514
			c-0.315-0.103-1.109-0.046-1.109-0.046v0.001h-1.19c-9.291,0-9.979,9.358-9.979,11.322c0,4.884,2.277,11.214,10.268,11.229
			l0.9,0.002c5.658-0.047,4.659-1.635,5.88-1.635c0.148,0,0.259-0.421,0.259,1.494h6.958
			C50.082,108.894,50.077,84.731,50.082,76.785z M37.93,108.326c-2.675,0-5.243-4.282-5.243-9.563c0-5.283,3.001-9.564,5.243-9.564
			c2.278,0,5.315,4.282,5.315,9.564C43.245,104.044,40.605,108.326,37.93,108.326z"/>
	</g>
	<path fill="#00458D" stroke="#00458D" stroke-width="0.4561" stroke-linejoin="round" stroke-miterlimit="2.6131" d="
		M171.826,98.004c-0.062,20.886-29.968,33.619-74.515,36.396c-2.875,0.185-2.896,0.92-0.061,0.888c48.188-0.495,87-15.505,87-37.282
		c0-22.09-39.889-37.264-89.097-37.264C95.155,60.74,171.925,65.115,171.826,98.004L171.826,98.004z"/>
	<path fill="#00458D" stroke="#00458D" stroke-width="0.5016" stroke-linejoin="round" stroke-miterlimit="2.6131" d="
		M104.101,57.469C50.685,57.538,7.182,72.432,8.504,95.777c0.628,11.154,12.714,17.24,19.602,18.728
		c1.055,0.225,1.196,0.042,0.197-0.562c-6.117-3.711-10.876-9.793-10.876-17.969c0-22.633,43.222-37.272,86.809-37.272
		L104.101,57.469L104.101,57.469z"/>
	<path fill="#00458D" stroke="#00458D" stroke-width="0.5016" stroke-linejoin="round" stroke-miterlimit="2.6131" d="
		M103.577,57.469c53.808-0.196,69.438,17.221,69.438,17.221s-17.356-15.684-69.572-15.99L103.577,57.469L103.577,57.469z"/>
</g>
</svg>
