<?xml version="1.0" encoding="utf-8"?>
<!-- Generator: Adobe Illustrator 16.0.0, SVG Export Plug-In . SVG Version: 6.00 Build 0)  -->
<!DOCTYPE svg PUBLIC "-//W3C//DTD SVG 1.1//EN" "http://www.w3.org/Graphics/SVG/1.1/DTD/svg11.dtd">
<svg version="1.1" id="Layer_1" xmlns="http://www.w3.org/2000/svg" xmlns:xlink="http://www.w3.org/1999/xlink" x="0px" y="0px"
	 width="192px" height="192.327px" viewBox="0 0 192 192.327" enable-background="new 0 0 192 192.327" xml:space="preserve">
<rect fill="none" width="192" height="192.327"/>
<g>
	<g>
		<g>
			<g>
				<g>
					<g>
						<path stroke="#000000" stroke-width="0.9692" stroke-linejoin="round" d="M70.805,108.239
							c-0.22-3.347-0.458-6.387-1.155-9.707c-1.319-6.31-3.109-10.667-5.759-16.06c-0.538-1.093-1.515-2.532-2.752-4.351
							l-1.806-2.688c-2.432-3.688-6.442-7.114-7.757-8.24l-0.193-0.166c-1.372-1.202-3.209-2.421-4.06-2.427
							c-0.886-0.004-1.662,0.546-2.248,1.592c-0.878,1.573-2.481,4.918-3.896,7.87l-1.961,4.046l-0.105,0.214
							c-0.528,1.048-1.324,2.636-1.229,3.596c0.146,1.564,1.418,2.455,2.886,3.487c0.699,0.49,1.426,1,2.124,1.637
							c4.514,4.103,6.52,6.137,9.528,10.119c2.354,3.127,4.339,6.2,6.361,11.054c1.087,2.611,1.753,4.671,2.049,6.293
							c0.221,1.218,0.324,2.154,0.362,3.337c0.08,2.25-0.718,4.467-2.13,5.938c-1.111,1.152-2.514,1.767-4.063,1.772
							c-1.593,0.012-2.638-0.429-4.167-1.156c-0.68-0.321-1.775-1.272-2.654-2.036l-0.833-0.715c-3.2-3.032-7.094-8.505-7.91-9.781
							l-1.164-1.796c-1.102-1.687-2.053-3.147-3.253-5.257l-12.191-22.07c-1.503-2.931-2.485-4.294-3.096-4.291
							c-0.886,0.003-1.472,1.39-1.99,2.61l-0.133,0.315l-3.704,8.059c-1.497,3.422-2.224,5.07-3.733,8.256l-0.445,0.871
							c-0.463,0.868-0.897,1.685-0.892,2.798c0.008,1.323,0.568,2.324,1.161,3.384l0.634,1.178c1.296,2.725,2.527,4.872,3.579,6.668
							c3.471,5.897,4.78,7.831,8.777,13.621c5.063,7.337,7.988,10.325,13.024,14.642c3.446,2.961,7.198,4.932,10.562,5.551
							c1.029,0.189,1.615,0.186,2.502,0.181l0.371-0.002c12.542-0.066,17.779-10.422,19.968-19.099
							c0.58-2.336,1.331-7.175,1.533-10.917C71.125,113.211,71.021,111.55,70.805,108.239z"/>
						<path stroke="#000000" stroke-width="0.9692" stroke-linejoin="round" d="M90.61,88.775c-3.3,0.119-4.891,4.792-5.124,9.346
							c-0.195,3.953,0.261,6.582,0.886,8.973c0.832,3.145,2.295,5.018,3.53,6.962c0.642,1.002,2.191,2.185,4.023,2.173
							c3.799-0.022,5.202-6.118,4.937-10.658c-0.259-4.475-0.775-7.506-2.947-11.968C94.857,91.425,92.611,88.705,90.61,88.775z
							 M72.21,101.525c-0.118-10.779,4.8-18.809,15.203-20.01c1.203-0.126,3.032,0.036,4.261,0.031
							c2.687-0.013,4.497-1.021,6.555-2.682c1.552-1.228,1.754-3.782,3.554-3.291l10.88,40.582c0,0-7.789,3.588-8.72,4.001
							c-1.505,0.669-1.406-1.824-2.746-1.522c-0.82,0.192-1.38,3.415-4.741,5.821c-2.304,1.66-4.471,2.216-7.349,2.23
							C77.272,126.741,72.337,113.012,72.21,101.525z"/>
						<path stroke="#000000" stroke-width="0.9692" stroke-linejoin="round" d="M149.212,99.379l-13.414,6.154l-12.797-47.251
							c-0.493-1.958-1.079-1.349-1.353-1.381c-0.236-0.028-1.125,0.802-1.773,0.673c-0.395-0.079-0.688-0.693-0.045-1.793
							l9.934-19.802c0.574-1.199,0.92-2.096,1.359-2.134c0.382-0.029,0.466,1.166,0.886,3.059L149.212,99.379z"/>
						<path stroke="#000000" stroke-width="0.9692" stroke-linejoin="round" d="M156.511,45.028
							c-2.308,0.012-4.877,4.233-3.749,9.293c0.177,1.051,2.249,6.435,5.557,6.075c2.967-0.321,4.116-3.502,4.111-6.04
							C162.422,50.586,159.491,45.013,156.511,45.028z M142.527,58.171c-0.054-10.553,6.137-20.209,16.932-21.513
							c2.652-0.319,5.921,0.181,8.393,1.586c3.794,2.161,5.84,6.219,5.793,10.646c-0.044,4.46-0.91,8.013-4.954,11.941
							c-3.334,3.243-8.005,4.978-12.055,3.916c-0.08,0.653,1.402,5.966,5.565,6.8c6.229,1.245,4.558-5.797,4.636-6.748
							c0.049-0.555,0.741-0.801,1.281-1.175c0.528-0.366,6.386-4.059,7.456-4.448c0.688-0.249,0.684,1.956,0.554,3.062
							c-0.449,3.767-0.938,6.266-2.669,9.697c-1.291,2.567-2.239,4.496-5.358,6.75c-1.995,1.446-4.931,2.858-8.494,2.871
							C147.922,81.594,142.596,69.203,142.527,58.171z"/>
						<path stroke="#000000" stroke-width="0.9692" stroke-linejoin="round" d="M104.756,66.653
							c-0.492-1.957-1.083-1.348-1.356-1.38c-0.24-0.027-1.129,0.803-1.776,0.674c-0.39-0.079-0.688-0.693-0.047-1.793l9.938-19.801
							c0.576-1.201,0.92-2.099,1.361-2.135c0.382-0.03,0.461,1.165,0.88,3.058l17.201,62.474l-13.414,6.156L104.756,66.653z"/>
					</g>
					<g>
						<path fill-rule="evenodd" clip-rule="evenodd" stroke="#000000" stroke-width="0.9692" stroke-linejoin="round" d="
							M181.655,66.022l-0.131-0.5l-0.145-0.016c-0.508,2.19-2.875,6.852-5.055,9.357c-0.554,0.634-1.153,1.239-1.73,1.823
							c-2.399,2.42-4.879,4.922-5.066,10.455c-0.049,1.475,0.072,3.567,0.95,5.164l0.083,0.156l0.048-0.171
							c1.007-3.57,4.06-6.617,6.748-9.306c0.993-0.988,1.927-1.921,2.692-2.816c2.205-2.56,2.552-4.517,2.539-8.206
							C182.571,69.066,181.93,66.933,181.655,66.022z"/>
						<path fill-rule="evenodd" clip-rule="evenodd" stroke="#000000" stroke-width="0.9692" stroke-linejoin="round" d="
							M162.271,85.424c-2.054-0.682-3.296-0.687-5.35-0.692l-0.501-0.001l-1.188,0.001c-1.285,0.007-2.394,0.015-3.523-0.144
							c-1.586-0.224-4.106-1.329-5.188-2.276l-0.134-0.115l0.014,0.176c0.062,0.866,0.472,2.208,0.907,3.532
							c0.421,1.297,1.13,2.679,1.89,3.696c0.791,1.066,2.683,2.069,3.952,2.334c1.81,0.371,3.761,0.314,5.648,0.257
							c1.529-0.046,2.969-0.09,4.237,0.094c1.756,0.254,5.135,1.195,5.167,1.203l0.121,0.034l-0.03-0.122
							C167.629,90.781,165.48,86.492,162.271,85.424z"/>
					</g>
				</g>
				<g>
					<path d="M178.524,89.448c-0.125-0.045-0.303-0.07-0.535-0.07h-0.226v0.991h0.358c0.217,0,0.385-0.041,0.505-0.127
						c0.121-0.081,0.183-0.218,0.183-0.403C178.81,89.649,178.718,89.52,178.524,89.448z M176.845,92.194v-3.42l0.978,0.003
						l0.729,0.002c0.279,0.022,0.512,0.082,0.697,0.18c0.312,0.167,0.47,0.439,0.47,0.815c0,0.288-0.081,0.496-0.252,0.625
						c-0.165,0.129-0.367,0.205-0.609,0.231c0.223,0.042,0.392,0.107,0.504,0.195c0.205,0.163,0.312,0.417,0.312,0.766v0.304
						l0.002,0.1l0.021,0.103l0.033,0.096h-0.884c-0.023-0.108-0.042-0.267-0.051-0.472c-0.007-0.208-0.027-0.348-0.056-0.419
						c-0.05-0.121-0.138-0.205-0.26-0.25c-0.074-0.029-0.176-0.048-0.316-0.056l-0.201-0.014h-0.197v1.21H176.845z"/>
					<path d="M180.485,88.295c-0.625-0.604-1.371-0.905-2.253-0.905c-0.831,0.001-1.562,0.279-2.184,0.839
						c-0.66,0.598-0.994,1.345-0.994,2.248c0,0.87,0.308,1.601,0.922,2.196c0.609,0.592,1.365,0.89,2.256,0.89
						c0.871,0,1.613-0.289,2.233-0.872c0.634-0.598,0.952-1.338,0.952-2.214C181.418,89.625,181.105,88.899,180.485,88.295z
						 M180.091,92.294c-0.514,0.504-1.136,0.756-1.858,0.756c-0.724,0-1.342-0.248-1.852-0.751
						c-0.514-0.499-0.771-1.109-0.771-1.821c0-0.689,0.249-1.285,0.757-1.788c0.517-0.514,1.14-0.771,1.866-0.771
						c0.723,0,1.345,0.257,1.862,0.771c0.505,0.504,0.764,1.104,0.764,1.788C180.858,91.184,180.6,91.789,180.091,92.294z"/>
				</g>
				<g>
					<path fill-rule="evenodd" clip-rule="evenodd" d="M72.969,58.884c-2.376-4.684-7.673-6.534-12.883-4.178l-6.775,3.067
						l0.839,0.633l0.323,0.287c0.189,0.232,0.271,0.398,0.417,0.697l5.989,12.44c0.195,0.405,0.288,0.613,0.369,0.955
						c0.096,0.3,0.112,0.489,0.125,0.837l0.02,0.972l6.692-3.026C73.49,69.113,75.405,63.737,72.969,58.884z M66.154,69.745
						c-0.574,0.234-1.011,0.451-1.464,0.632c-0.317,0.136-0.658,0.251-1.062,0.342l-5.828-12.133c0.37-0.28,0.716-0.504,1.089-0.714
						c0.473-0.24,0.975-0.468,1.57-0.767c4.243-2.084,8.327-0.297,9.975,3.084C72.091,63.658,70.864,67.8,66.154,69.745z"/>
					<path fill-rule="evenodd" clip-rule="evenodd" d="M80.795,49.149l-0.969-0.287l-0.635-0.065l-0.428,0.109l-0.502,0.263
						l-4.056,1.84l1.973,4.122l6.165-2.788l1.339,2.777l-0.698,0.038c-0.365,0-0.604,0.027-0.969,0.115l-0.705,0.254l-3.972,1.804
						l2.884,5.999l4.857-2.191c0.686-0.325,1.062-0.533,1.611-1.027l0.509-0.595l0.718-1.093l0.54,3.923l-10.77,4.865l0.196-1.165
						l-0.007-0.513l-0.056-0.209L77.6,64.908L71.225,51.65l-0.29-0.39l-0.295-0.171l-1.472-0.516l10.129-4.575L80.795,49.149z"/>
					<path fill-rule="evenodd" clip-rule="evenodd" d="M93.3,57.441l5.942-2.701c0.341-0.159,0.513-0.278,0.769-0.54l0.195-0.151
						l0.114-0.138l0.174-0.372l0.798-1.703l0.346,4.59L90.78,61.365l0.273-1.234l0.034-0.353l-0.054-0.299l-0.176-0.387
						l-6.21-12.938l-0.398-0.598l-0.48-0.388l-1.182-0.585l4.427-1.995l-0.047,1.021l0.024,0.557l0.167,0.533l0.318,0.658
						L93.3,57.441z"/>
				</g>
			</g>
			<g>
				<path fill-rule="evenodd" clip-rule="evenodd" fill="#E03A3E" d="M71.739,58.536c-2.38-4.684-7.679-6.534-12.889-4.177
					l-6.775,3.066l0.836,0.633l0.326,0.286c0.191,0.234,0.271,0.398,0.416,0.697l5.989,12.439c0.198,0.406,0.292,0.614,0.372,0.958
					c0.093,0.297,0.112,0.488,0.125,0.836l0.016,0.971l6.695-3.027C72.253,68.765,74.169,63.388,71.739,58.536z M64.917,69.396
					c-0.571,0.236-1.01,0.451-1.463,0.632c-0.314,0.136-0.66,0.252-1.062,0.34l-5.827-12.131c0.371-0.278,0.713-0.505,1.088-0.713
					c0.471-0.241,0.975-0.469,1.571-0.766c4.244-2.085,8.327-0.298,9.978,3.083C70.855,63.309,69.627,67.451,64.917,69.396z"/>
				<path fill-rule="evenodd" clip-rule="evenodd" fill="#E03A3E" d="M79.562,48.8l-0.973-0.289l-0.634-0.062l-0.427,0.109
					l-0.5,0.262l-4.062,1.84l1.978,4.123l6.167-2.789l1.338,2.779l-0.699,0.039c-0.362,0-0.607,0.025-0.966,0.113l-0.707,0.253
					l-3.972,1.804l2.885,6l4.861-2.19c0.682-0.325,1.061-0.532,1.607-1.028l0.512-0.595l0.717-1.092L87.224,62l-10.765,4.863
					l0.192-1.164l-0.006-0.515l-0.056-0.207l-0.227-0.417l-6.373-13.257l-0.292-0.392l-0.294-0.172l-1.471-0.514l10.13-4.576
					L79.562,48.8z"/>
				<path fill-rule="evenodd" clip-rule="evenodd" fill="#E03A3E" d="M92.061,57.09l5.945-2.697c0.34-0.158,0.513-0.28,0.771-0.541
					l0.195-0.152l0.108-0.135l0.181-0.374l0.798-1.705l0.339,4.592l-10.855,4.938l0.271-1.236l0.038-0.35l-0.058-0.299l-0.174-0.389
					l-6.21-12.937l-0.398-0.597l-0.48-0.389l-1.185-0.583l4.43-1.996l-0.046,1.021l0.024,0.561l0.164,0.528l0.32,0.66L92.061,57.09z
					"/>
			</g>
			<g>
				<path fill-rule="evenodd" clip-rule="evenodd" fill="#E03A3E" d="M14.627,80.697c0,0,1.629-4.687,2.849-4.57
					c1.216,0.102,3.014,3.856,3.972,6.03c0.965,2.177,13.118,25.625,17.485,31.369c3.771,4.956,8.449,10.986,13.044,11.391
					c4.602,0.394,6.718-3.066,7.096-7.238c0.36-4.185-3.343-17.857-15.495-30.02c-3.738-3.754-6.551-5.601-6.551-5.601
					s-2.327-1.755-0.664-4.705c1.654-2.931,5.687-12.126,6.239-13.009c0.547-0.891,1.665-2.478,2.831-2.377
					c1.151,0.101,6.551,4.089,9.743,8.349c3.183,4.259,5.703,7.777,8.96,14.749c1.445,3.098,4.435,12.504,4.812,26.951
					c0.068,2.905-0.26,35.275-22.953,34.686c-16.907-0.427-35.872-38.029-38.919-44.471c-1.084-2.282-1.142-2.806,0.596-6.114
					C8.765,94.041,14.627,80.697,14.627,80.697z"/>
				<path fill-rule="evenodd" clip-rule="evenodd" fill="#E03A3E" d="M110.097,40.382c0,0,0.487-1.176,0.873-1.134
					c0.394,0.025,0.446,0.873,0.654,1.689l17.312,66.189l-13.582,6.375c0,0-13.009-49.232-13.15-49.627
					c-0.12-0.404-0.011-1.025-0.767-0.681c-0.756,0.328-1.335,0.63-1.764,0.579c-0.419-0.026-0.597-0.303-0.545-0.814
					c0.041-0.504,0.872-2.536,1.232-3.283C100.756,58.852,110.097,40.382,110.097,40.382z"/>
				<path fill-rule="evenodd" clip-rule="evenodd" fill="#E03A3E" d="M128.543,31.799c0,0,0.486-1.184,0.879-1.151
					c0.403,0.043,0.456,0.874,0.658,1.689l17.3,66.19l-13.572,6.384c0,0-13.019-49.225-13.145-49.628
					c-0.144-0.395-0.026-1.033-0.774-0.688c-0.765,0.344-1.344,0.638-1.772,0.596c-0.419-0.042-0.579-0.312-0.545-0.815
					c0.042-0.512,0.873-2.544,1.232-3.301C119.199,50.251,128.543,31.799,128.543,31.799z"/>
				<path fill-rule="evenodd" clip-rule="evenodd" fill="#00AB67" d="M144.71,80.923c0,0,1.772,2.218,7.299,2.603
					c5.34,0.378,12.118-1.444,14.337,9.046c0,0-3.478-1.203-5.872-1.403c-2.402-0.21-6.005,0.093-8.852-0.15
					C148.783,90.766,145.533,87.886,144.71,80.923z M179.768,63.118c0.375,1.738,3.324,11.128-1.688,16.243
					c-5.015,5.115-7.208,6.534-9.492,12.154c0,0-1.27-2.882-0.948-6.535c0.317-3.637,2.704-7.77,4.953-9.592
					C177.415,71.518,179.768,63.118,179.768,63.118z"/>
				<path fill-rule="evenodd" clip-rule="evenodd" fill="#E03A3E" d="M88.57,87.433c3.788,0.344,8.761,9.079,7.801,20.013
					c-0.386,4.284-1.915,8.458-5.222,8.164c-4.023-0.353-8.65-9.433-7.76-19.578C84.027,88.701,87.101,87.306,88.57,87.433z
					 M99.562,73.331l10.92,42.379l-8.164,3.94c-0.545,0.269-1.343,0.772-2.293-0.589c-0.933-1.359-0.822-1.184-1.209-0.781
					c-0.395,0.41-1.159,1.714-1.672,2.511c-0.51,0.789-3.425,6.36-11.27,5.662c-7.828-0.671-12.051-7.979-13.034-10.307
					c-0.992-2.343-3.444-8.601-3.074-16.376c0.217-4.612,1.427-19.831,17.661-20.19c1.235-0.035,2.479,0.613,5.015-0.439
					c2.536-1.041,4.516-2.299,5.089-4.299c0,0-0.034-0.336,0.57-0.639C98.714,73.902,99.562,73.331,99.562,73.331z"/>
				<path fill-rule="evenodd" clip-rule="evenodd" fill="#E03A3E" d="M154.905,42.306c1.89,0.168,6.232,4.064,5.643,10.734
					c-0.369,4.275-2.736,5.417-4.306,5.273c-1.94-0.158-5.84-3.746-5.277-10.238C151.352,43.801,153.896,42.221,154.905,42.306z
					 M160.012,33.545c2.999,0,13.054,1.957,11.894,15.253c-0.893,10.127-12.045,16.334-17.283,13.681c0,0,1.66,7.164,6.516,7.583
					c4.871,0.429,4.071-5.517,4.047-6.172c-0.015-0.671-0.89-0.798,0.623-1.932c1.511-1.125,6.971-4.652,7.717-4.812
					c0.739-0.159,1.296,0.227,1.103,2.167c-0.193,1.915-0.833,6.567-2.086,9.171c-1.232,2.622-3.812,8.77-10.58,11.079
					c-6.754,2.292-15.287-0.294-19.635-12.699C136.544,50.393,145.246,33.528,160.012,33.545z"/>
			</g>
		</g>
	</g>
	<g>
		<path fill="none" d="M123.341,147.67c0.019,0.023,0.037,0.036,0.054,0.045c0.007,0.006,0.014,0.01,0.021,0.017L123.341,147.67z"/>
		<polygon fill="#00AB67" points="123.415,147.731 123.419,147.733 123.419,147.733 		"/>
		<path fill="#00AB67" d="M179.14,103.277l-0.179-0.426c0,0-0.336-0.188-0.345-0.194c-0.01-0.01-0.052-0.048-0.052-0.048
			c0.01,0.01-0.662-0.474-0.662-0.474l-0.363-0.259l-0.279,0.174l-0.99,0.36c-0.217,0.029-0.435,0.091-0.646,0.208
			c-0.494,0.12-0.838,0.362-1.09,0.549l-0.371,0.24c0,0-0.2,0.162-0.39,0.31c-0.072,0.031-0.389,0.154-0.389,0.154
			s-0.04,0.033-0.076,0.064c-0.021,0.009-0.156,0.072-0.156,0.072l-0.619,0.339c-0.005,0.005-0.009,0.005-0.016,0.011
			c0.011-0.084,0.043-0.142,0.043-0.232c0-0.193-0.03-0.397-0.109-0.611c-0.003,0-0.062-0.121-0.122-0.244
			c0.005-0.018,0.014-0.041,0.014-0.041l-0.07-0.773l-0.175-1.644l-0.112-0.226l-0.099-0.261c-0.242-0.564-0.691-0.937-1.305-1.071
			l-0.101-0.021l-0.03,0.003c0,0-0.391,0.01-0.444,0.01c-0.11-0.048-0.185-0.081-0.227-0.102c-0.353-0.131-0.842-0.216-1.499,0.062
			l-0.52,0.222l-0.133,0.325c-0.242,0.598-0.264,0.938-0.214,1.313l-0.046,0.021l-0.067,0.164c-0.264,0.656-0.232,0.902-0.136,1.398
			l0.046,0.25c-0.007-0.069,0.077,0.55,0.077,0.55l0.064,0.544c-0.005,0.091,0.155,1.637,0.155,1.637
			c-0.001-0.039,0.082,1.138,0.082,1.138l0.042,0.879c-0.054,0.041-0.095,0.073-0.095,0.073c0.007-0.005,0.008-0.006,0.008-0.006
			c0,0.002-0.257,0.193-0.257,0.193c-0.008,0.009-0.059,0.054-0.105,0.097c-0.02,0.003-0.22,0.057-0.22,0.057l-0.16,0.17
			c-0.314,0.321-0.713,0.57-1.132,0.834l-0.9,0.603c0.079-0.054-0.405,0.184-0.405,0.184c-0.524,0.233-1.177,0.523-1.555,1.624
			l-0.108,0.308l0.186,0.43c-0.149,0.183-0.285,0.417-0.396,0.738l-0.055,0.157l0.145,0.332c0.115,0.281,0.297,0.703,0.77,0.896
			c-0.029-0.015,0.275,0.146,0.275,0.146c0.348,0.191,0.649,0.358,1.292,0.367l0.106,0.003l0.541-0.272l1.192-0.677
			c-0.051,0.03,0.878-0.588,0.96-0.641c-0.002,0.007-0.023,0.11-0.023,0.11l0.03,0.12l0.045,0.567c0,0,0.018,0.4,0.023,0.521
			c-0.032,0.188-0.054,0.372-0.054,0.546c0,0.26,0.027,0.508,0.052,0.752c0.021,0.192,0.036,0.378,0.041,0.561
			c-0.247-0.096-0.541-0.171-0.885-0.131c-0.852-0.015-1.217,0.475-1.392,0.713l-0.086,0.106l-0.15,0.138
			c-0.287,0.338-0.435,0.736-0.469,1.145c-0.069,0.097-0.141,0.195-0.141,0.195s-0.068,0.088-0.133,0.169
			c-0.309-0.186-0.635-0.521-0.908-0.861l-0.438-0.518l-0.042-0.029c-0.1-0.082-0.188-0.259-0.287-0.461
			c-0.178-0.367-0.48-0.823-0.997-1.195c-0.015-0.021-0.033-0.045-0.033-0.045c-0.305-0.404-0.723-0.653-1.178-0.74
			c-1.032-0.474-2.104-0.167-2.665,0.069l-0.404,0.173l-0.203,0.314l-0.303,0.441c0,0-0.374,0.532-0.386,0.553
			c-0.013-0.167-0.027-0.379-0.027-0.379l-0.042-0.167l-0.052-0.652c0,0-0.03-0.471-0.043-0.692
			c0.036-0.186,0.076-0.376,0.076-0.542c0-0.226-0.026-0.433-0.049-0.615l-0.035-0.49l-0.013,0.118l0.123-1.903l0.071-1.458
			l0.009-0.108l0.107-0.939c0.122-0.67,0.17-1.189-0.277-2.243l-0.16-0.378l-0.32-0.211l-1.366-0.603l-0.174,0.131l-0.439,0.084
			c-0.535,0.073-1.538,0.209-1.843,1.522l-0.004,0.021l-0.019,0.157l-0.078,0.438l-0.042,0.38c-0.065,0.128-0.122,0.267-0.164,0.442
			c-0.01,0.086-0.103,0.618-0.103,0.618l-0.106,0.938c0.001-0.088-0.107,0.739-0.107,0.739c-0.105,0.769-0.169,1.233-0.054,2.397
			l0.002-0.104l0.022,0.828l0.021,0.646l-0.007,0.104l0.105,1.918l0.014,0.242c-0.24-0.127-0.458-0.193-0.647-0.244l-0.567-0.183
			l-0.271,0.018c-1.211,0.226-1.597,0.977-1.936,1.638l-0.104,0.199c0,0,0.021,0.245,0.028,0.33
			c-0.007,0.006-0.128,0.242-0.128,0.242s-0.046,0.111-0.072,0.173c-0.042-0.066-0.244-0.36-0.244-0.36l-0.646,0.054
			c0,0-0.954,0.054-1.096,0.063c-0.232,0.006-0.802,0.023-0.802,0.023l-0.59,0.037l-0.174,0.016
			c-0.67,0.149-1.172,0.491-1.581,1.075c-0.01,0.01-0.083,0.117-0.112,0.162c-0.368,0.411-0.595,0.872-0.786,1.283l-0.296,0.599
			c0,0-0.016,0.123-0.021,0.169c-0.033,0.069-0.087,0.19-0.087,0.19c-0.117,0.234-0.284,0.573-0.284,1.027
			c0,0.021,0.002,0.044,0.002,0.063c-0.077,0.229-0.128,0.449-0.162,0.661c-0.074,0.173-0.136,0.372-0.136,0.615
			c0,0.033,0.003,0.071,0.006,0.106c-0.162,0.411-0.21,0.788-0.21,1.159c0,0.116,0.002,0.232,0.006,0.352l0.003,0.564l0.034-0.154
			l-0.126,0.594c0,0.012-0.003,0.179-0.003,0.179c0,0.006-0.091,0.341-0.091,0.341l-0.019,0.068l-0.033,0.315
			c0,0,0.104,1.428,0.118,1.65c-0.039,0.171-0.064,0.344-0.064,0.512c0,0.072,0.016,0.144,0.022,0.218
			c-0.301,0.103-0.612,0.262-0.935,0.491l-0.017,0.013c0,0-0.044,0.046-0.087,0.09c-0.011,0.008-0.034,0.015-0.034,0.015
			c-0.316,0.134-0.725,0.342-1.036,0.74c0,0-0.012,0.016-0.019,0.025c-0.104,0.072-0.198,0.164-0.286,0.266
			c-0.065,0.024-0.138,0.037-0.195,0.069c0-0.021,0-0.071,0-0.071l-0.137-1.14l-0.026-0.38l-0.021-0.125l-0.021-0.966
			c0,0,0.007-0.773,0.009-0.918c0.047-0.196,0.108-0.398,0.108-0.569c0-0.235-0.032-0.442-0.056-0.612l-0.027-0.244
			c0.07-0.171,0.117-0.344,0.117-0.513c0-0.314-0.134-0.589-0.312-0.832c-0.026-0.589-0.11-1.153-0.345-1.696l-0.02-0.048
			l-0.027-0.046c-0.603-1.041-1.462-0.805-1.784-0.716l-0.175,0.044c0,0-0.019,0.074-0.022,0.084
			c-0.196,0.035-0.881,0.165-0.881,0.165s-0.082,0.098-0.158,0.19c-0.016,0.009-0.033,0.021-0.033,0.021
			c-0.206,0.129-0.639,0.391-0.819,1.033c0.005-0.015-0.162,0.539-0.162,0.539l0.072-0.174l-0.309,0.937l-0.104,0.464l0.027,0.211
			c0,0,0,0.009,0.003,0.014c-0.003,0.006-0.003,0.013-0.003,0.013c0-0.006,0.003-0.007,0.003-0.006c0,0.021-0.23,0.728-0.23,0.728
			l-0.093,0.402l0.016,0.104c0,0,0.051,0.235,0.06,0.287c-0.039,0.133-0.09,0.271-0.09,0.381c0,0.177,0.037,0.326,0.068,0.452
			l0.052,0.284c-0.071,0.637-0.092,1.181-0.092,1.672c0,0.281,0.007,0.544,0.018,0.795c-0.034,0.152-0.06,0.301-0.06,0.43
			c0,0.235,0.044,0.434,0.085,0.631c0,0,0.067,0.356,0.071,0.372c-0.004,0.006-0.004,0.082-0.004,0.082s0.028,0.28,0.045,0.445
			c0.003,0.016,0.166,0.889,0.166,0.889c0.003,0.006,0.119,0.263,0.119,0.263c-0.006-0.012,0.019,0.056,0.019,0.056
			c0.02,0.413,0.262,0.75,0.474,1.05c0.167,0.235,0.302,0.422,0.326,0.665l0.017,0.162l0.261,0.2l0.305,0.274
			c0.027,0.021,0.052,0.039,0.075,0.057c-0.833,0.42-2.036,1.026-2.036,1.026l-1.778,0.929c-0.027,0.014-2.219,1.418-2.219,1.418
			s-1.326,0.86-1.609,1.049c-0.016-0.081-0.033-0.176-0.033-0.176l-0.299-1.165l0.096,0.358l-0.131-0.952
			c-0.054-0.264-0.091-0.454-0.091-0.629c0-0.118,0.016-0.23,0.055-0.348l0.095-0.29l-0.19-0.449c0-0.001-0.075-0.385-0.075-0.385
			s-0.082-0.328-0.153-0.601c0.023-0.157,0.052-0.317,0.052-0.459c0-0.278-0.034-0.521-0.068-0.709l-0.022,0.374
			c0,0-0.073-1.027-0.076-1.067c0.011-0.107,0.039-0.404,0.039-0.404l-0.064-0.176c-0.168-0.45-0.208-0.972-0.253-1.521
			c0,0-0.046-0.486-0.054-0.6c0.018-0.168,0.035-0.33,0.035-0.49c0-0.401-0.049-0.785-0.096-1.138c0,0-0.007-0.065-0.015-0.118
			c0.017-0.214,0.031-0.446,0.031-0.71c0-0.528-0.065-1.14-0.247-1.751c0-0.303,0-0.655,0-0.655s-0.021-0.115-0.029-0.17
			c0.003-0.051,0.003-0.108,0.003-0.108c0.003-0.133,0.005-0.269,0.005-0.41c0-0.448-0.051-0.935-0.229-1.423
			c0.003-0.033,0.01-0.127,0.01-0.127l-0.021-0.729c0.004,0.012,0.006,0.013,0.006,0.011c0-0.034-0.092-0.503-0.092-0.503
			l-0.035-0.136c0-0.014-0.208-3.037-0.208-3.037c0.007-0.063,0.012-0.125,0.012-0.188c0-1.067-1.039-2.256-1.663-2.51l-0.158-0.063
			l-0.172,0.007l-0.798,0.023l-0.139,0.061c-0.016,0.006-1.576,0.838-1.63,1.688c-0.007,0.062-0.009,0.133-0.009,0.205
			c0,0.168,0.015,0.362,0.038,0.568c-0.169,0.181-0.299,0.365-0.309,0.528c-0.035,0.411,0.067,1.087,0.18,1.806l0.177,1.591
			l0.024,0.115l0.043,0.099c-0.007-0.022-0.024,0.139-0.024,0.139c-0.019,0.104-0.036,0.233-0.036,0.382
			c0,0.136,0.048,0.304,0.102,0.47c0,0.1-0.006,0.449-0.006,0.449l-0.018,0.531l0.05,0.175c0,0,0.023,0.038,0.046,0.078
			c0.002,0.068,0.004,0.166,0.004,0.166l0.101,0.686l-0.029-0.127c0,0,0.17,1.38,0.17,1.389c0.01,0.211,0.041,1.174,0.041,1.174
			l0.063,0.777c0.006-0.058,0.045,0.847,0.045,0.847c0.023,0.178,0.05,0.358,0.05,0.512c0,0.116-0.015,0.215-0.054,0.286
			l-0.032,0.056l-0.012,0.065c-0.016,0.085-0.031,0.189-0.031,0.3c0,0.183,0.062,0.387,0.188,0.595
			c0.009,0.109,0.196,2.751,0.196,2.751c0.004,0.022,0.112,1.412,0.112,1.412s0.28,2.526,0.298,2.697
			c-0.013,0.073-0.066,0.416-0.066,0.416l0.021,0.106l0.229,1.137l0.177,0.974c0.021,0.068,0.128,0.535,0.128,0.535
			s0.089,0.396,0.115,0.517c0.021,0.621,0.167,1.258,0.456,1.94c0,0.002,0.071,0.258,0.071,0.258c0.049,0.246,0.147,0.6,0.557,0.844
			c-0.017-0.009-0.035-0.021-0.054-0.045l0.074,0.062c0,0,0,0,0.004,0.002c0.009,0.005,0.021,0.012,0.033,0.023
			c0.338,0.347,0.669,0.411,0.938,0.43l0.365,0.041l0.089-0.001c0.88-0.12,1.724-0.273,2.395-0.823
			c-0.077,0.052,0.128-0.062,0.128-0.062c0.003-0.003,0.172-0.109,0.172-0.109c-0.001,0.001,0.037-0.021,0.037-0.021
			c0.002,0,0.159-0.021,0.159-0.021l0.136-0.072l0.355-0.213c0.233-0.129,0.49-0.289,0.702-0.54
			c0.022-0.015,1.706-1.091,1.706-1.091c0.015-0.01,0.684-0.545,0.684-0.545c0.352-0.3,0.685-0.585,1.071-0.75
			c0.124-0.071,1.611-1.034,2.278-1.612c0.818-0.549,1.906-1.229,2.33-1.409c0.237-0.128,0.385-0.393,0.438-0.698
			c0.173-0.096,0.311-0.169,0.404-0.209c0.487-0.264,0.702-0.801,0.702-1.334c0-0.277-0.056-0.553-0.164-0.789
			c-0.016-0.036-0.043-0.084-0.069-0.133c0.138-0.057,0.242-0.103,0.242-0.103s0.285-0.196,0.491-0.341
			c0.333-0.015,0.547-0.14,0.771-0.307l0.096-0.07l0.045-0.112c0.068-0.166,0.149-0.375,0.255-0.419
			c0.163-0.069,0.3-0.181,0.42-0.312c0.052-0.032,0.108-0.058,0.155-0.092l0.169-0.129c0,0,0.045-0.1,0.096-0.206
			c0.203-0.118,0.366-0.298,0.485-0.521c0.145-0.122,0.276-0.265,0.388-0.434c0,0,0,0.004,0.001,0.004
			c0.439,0.435,0.928,0.404,1.32,0.377l0.424-0.009l0.094-0.018c0.663-0.215,1.154-0.636,1.453-1.208
			c0.521-0.303,0.918-0.751,1.167-1.298l0.604-0.893l0.576-0.854c0.005,0.048,0.018,0.138,0.018,0.138
			c0.003,0.018,0.048,0.224,0.048,0.224c-0.008-0.035-0.011,0.031-0.011,0.11c0,0.093,0.003,0.203,0.003,0.203
			s0.024,0.405,0.033,0.555c-0.003,0.06-0.045,0.729-0.045,0.729l-0.064,0.805c-0.007,0.097-0.125,1.21-0.125,1.21l-0.134,1.116
			l0.019-0.121l-0.026,0.195l-0.029,0.051l-0.025,0.138c-0.088,0.469-0.192,1.085-0.243,1.738l-0.068,0.522
			c-0.057,0.381-0.102,0.771-0.13,1.166c-0.074,0.299-0.146,0.577-0.146,0.577s-0.396,1.481-0.409,1.531
			c-0.256,0.361-0.366,0.719-0.403,0.968c0,0-0.038,0.189-0.048,0.232c-0.072,0.124-0.221,0.371-0.221,0.371
			c-0.245,0.423-0.456,0.786-0.758,1.093l-0.211,0.213c0,0-0.007,0.083-0.016,0.163c-0.027,0.024-0.065,0.061-0.065,0.061
			c-0.314,0.227-0.609,0.488-0.789,1.197l-0.066,0.27l0.103,0.254c0.036,0.088,0.072,0.165,0.11,0.242
			c-0.146,0.154-0.267,0.358-0.359,0.727l-0.034,0.134l0.051,0.131c0.317,0.788,0.644,0.911,1.354,1.114
			c0.745,0.084,1.464-0.27,1.543-0.311l0.147-0.075l0.059-0.156c0.088-0.235,0.271-0.405,0.482-0.602
			c0.07-0.065,0.138-0.146,0.205-0.223l0.211-0.108l0.115-0.309c0.052-0.135,0.175-0.254,0.376-0.439
			c0.246-0.228,0.534-0.564,0.729-1.019c1.022-1.229,1.471-2.692,1.9-4.109l0.014-0.045l0.024-0.112l0.306-1.664l0.409-2.437
			c0.004-0.043,0.263-2.082,0.263-2.082l0.286-2.329l-0.048,0.257l0.192-1.243l0.108-0.784l0.049-0.412l0.055-0.8
			c0.041-0.269,0.084-0.559,0.084-0.869c0-0.157-0.027-0.325-0.057-0.494c0.007-0.181,0.023-0.596,0.023-0.596
			c-0.002-0.061-0.003-0.129-0.003-0.198c0-0.158,0.005-0.322,0.032-0.388l0.059-0.145l-0.017,0.011l0.02-0.796
			c0,0-0.014-0.179-0.015-0.191c0.003-0.012,0.021-0.163,0.021-0.163c0.041-0.344,0.089-0.733,0.089-1.119
			c0-0.185-0.029-0.36-0.057-0.536c0.016-0.098,0.018-0.202,0.027-0.301l0.015,0.115l0.018,0.096
			c0.106,0.296,0.098,0.643,0.092,1.009l0.065,1.064c0.011,0.04,0.048,0.805,0.048,0.805l-0.005,0.52
			c0.003-0.096,0.036,0.631,0.036,0.631l0.024,0.48l-0.009,0.188c0.14,0.589,0.396,1.229,1.221,1.49
			c-0.009-0.003,0.322,0.109,0.322,0.109c0.694,0.227,1.299,0.226,1.846-0.008l0.057-0.024l0.12-0.069
			c0.314-0.265,0.523-0.553,0.676-0.851c0.011-0.005,0.02-0.005,0.028-0.011l0.114-0.048l0.165-0.11
			c0.829-0.687,1.028-1.516,1.203-2.244c0,0,0.066-0.273,0.066-0.279c0.004,0,0.282-0.844,0.282-0.844l0.008-0.026l0.021-0.083
			l0.219-0.848c0.147-0.51,0.301-1.091,0.323-1.719c0.045-0.166,0.3-1.1,0.377-1.38l0.356,0.441c0,0,0.699,0.817,0.701,0.817
			c0-0.003,0.434,0.368,0.434,0.368l0.237,0.183l0.11,0.065l0.256,0.177c0.186,0.162,0.442,0.384,0.923,0.403l-0.13-0.012
			l0.64,0.206c0.075,0.008,0.144,0.012,0.144,0.012c0.533,0.03,1.067,0.034,1.448-0.1c0.673-0.094,0.983-0.533,1.226-0.897
			l0.172-0.236c0.447-0.231,0.712-0.594,0.895-0.875l0.329-0.45l0.104-0.239c0.078-0.315,0.189-0.519,0.438-0.815
			c0.046,0.318,0.118,0.645,0.206,0.979c-0.026,0.135-0.052,0.27-0.052,0.409c0,0.265,0.051,0.54,0.152,0.818l-0.025-0.145
			l0.24,1.031c0,0.004,0.389,1.063,0.389,1.063l0.19,0.117l0.151,0.069c0.241,0.116,0.607,0.291,1.029,0.11l0.091-0.037
			c0,0,0.078-0.094,0.087-0.102c0.041-0.015,0.326-0.106,0.326-0.106l0.052-0.108c0,0,0.07-0.103,0.133-0.196
			c0.763-0.148,0.992-0.651,1.047-1.007c0.811-0.262,1.154-0.905,1.154-1.529c0-0.007,0-0.041,0-0.041l-0.006-0.084
			c-0.103-1.586-0.287-2.318-0.419-2.682c0.048-0.192,0.104-0.378,0.104-0.607c0-0.12-0.044-0.259-0.07-0.389
			c0.009-0.097,0.032-0.318,0.032-0.318c0,0.005-0.037-0.22-0.074-0.438c0.035-0.059,0.064-0.12,0.064-0.12l-0.023-0.113
			l-0.121-1.146c0,0-0.011-0.057-0.021-0.115c0.011-0.087,0.117-0.938,0.117-0.938l-0.084-0.057c0,0-0.033-0.092-0.065-0.176
			c0-0.03,0-0.058,0-0.058s-0.039-0.248-0.076-0.486c0.02-0.3,0.075-1.096,0.075-1.096l-0.011-0.538l-0.038,0.188l0.122-0.656
			l0.103-0.673c0,0-0.153-0.308-0.178-0.359c0.003-0.021,0.057-0.612,0.057-0.612l-0.079-0.126c0,0-0.051-0.125-0.096-0.232
			c0.006-0.054,0.014-0.143,0.014-0.143s-0.008-0.309-0.017-0.558c0.837-0.521,1.667-1.14,2.603-1.943
			c-0.007,0.004-0.009,0.007-0.009,0.007c0-0.013,0.365-0.337,0.365-0.337l0.149-0.155c0.007,0,0.64-0.34,0.64-0.34
			c0.066-0.026,0.181-0.074,0.181-0.074l0.082-0.058l0.364-0.238c0.042-0.024,0.091-0.07,0.137-0.095
			c-0.002,0.036-0.004,0.155-0.004,0.155l0.169-0.178c-0.003,0.05-0.004,0.086-0.004,0.086l1.612-1.75
			c0.265-0.288,0.4-0.656,0.4-1.043C179.284,103.736,179.236,103.504,179.14,103.277z M137.522,139.306
			c-0.472,0.201-1.612,0.92-2.438,1.479c-0.653,0.564-2.171,1.546-2.171,1.546c-0.699,0.297-1.202,0.897-1.813,1.324
			c-0.58,0.37-1.17,0.745-1.72,1.102c-0.27,0.386-0.715,0.495-1.071,0.762c-0.14,0.017-0.182,0.019-0.305,0.093l-0.167,0.107
			c-0.057,0.035-0.112,0.067-0.173,0.097c-0.61,0.498-1.443,0.633-2.195,0.734c-0.48-0.104-0.756,0.058-1.131-0.41
			c-0.47-0.227-0.36-0.59-0.517-0.961c-0.239-0.562-0.418-1.182-0.431-1.838c-0.13-0.354-0.102-0.746-0.246-1.087
			c-0.172-0.743-0.21-1.438-0.412-2.133l0.064-0.395c-0.261-1.349-0.273-2.695-0.415-4.14c-0.035-0.959-0.088-1.886-0.201-2.841
			c-0.181-0.218-0.208-0.438-0.157-0.715c0.266-0.483-0.075-1.251,0.011-1.84c-0.002-0.68-0.201-1.344-0.111-2.028
			c-0.085-0.411-0.14-0.898-0.165-1.335c-0.112-0.278-0.051-0.535-0.078-0.816l-0.096-0.165c0.077-0.345-0.02-0.624,0.025-0.967
			c-0.236-0.514,0.033-0.89-0.07-1.133l-0.043-0.1c0.026-0.773-0.412-2.615-0.352-3.328c0.014-0.199,0.848-0.869,1.142-0.995
			l0.646-0.021c0.379,0.152,1.235,1.167,1.146,1.912c-0.013,0.257,0.158,2.514,0.213,3.168c0.025,0.218,0.138,0.411,0.143,0.643
			l-0.002,0.089c0.062,0.241-0.06,0.683,0.008,0.806c0.254,0.599,0.209,1.213,0.198,1.846c0.041,0.335,0.153,0.582,0.058,0.942
			c0.248,0.782,0.244,1.604,0.187,2.328c0.071,0.573,0.168,1.15,0.075,1.728c0.093,0.794,0.077,1.625,0.359,2.382l-0.037,0.381
			c0.059,0.257,0.229,0.396,0.123,0.751c0.054,0.315,0.091,0.687,0.003,1.055c0.199,0.418,0.125,0.871,0.297,1.275l0.069,0.168
			c-0.267,0.813,0.105,1.408,0.127,2.207c0.295,0.548,0.121,1.121,0.381,1.638c0.053,0.335,0.431,0.484,0.896,0.133
			c1.308-0.764,2.637-1.82,3.962-2.558c1.612-0.813,3.245-1.749,4.504-2.301C137.956,137.049,137.945,139.075,137.522,139.306z
			 M151.897,119.778c-0.193,0.688-0.178,1.409-0.284,2.114c0.067,0.304-0.088,0.824-0.013,1.002c0.109,0.523,0.121,1.043,0.03,1.515
			c0.128,0.509,0.006,1.261-0.056,1.798c-0.011,0.297,0.085,0.516,0.016,0.837c-0.168,0.416-0.047,1.049-0.111,1.52
			c0.188,0.777-0.188,1.49-0.074,2.268c-0.267,0.655-0.072,1.355-0.312,2.029c-0.052,1.507-0.485,2.861-0.547,4.361
			c-0.121,1.328-0.522,2.747-0.709,4.061c-0.414,1.363-0.836,2.771-1.776,3.882c-0.181,0.767-0.96,0.959-1.223,1.666
			c0,0-0.664,0.338-1.229,0.279c-0.63-0.182-0.824-0.234-1.075-0.862c0.186-0.737,0.441-0.586,0.846-1.066l0.019-0.183
			c0.501-0.509,0.78-1.109,1.154-1.711c0.181-0.445,0.024-0.834,0.46-1.234c0.354-0.984,0.479-2.027,0.791-3.021
			c-0.047-0.874,0.085-1.815,0.249-2.669c0.305-0.542,0.197-1.178,0.372-1.757c0.009-0.762,0.285-1.494,0.253-2.252
			c0.101-0.526,0.044-1.061,0.115-1.589c-0.067-0.342-0.003-0.676-0.043-1.016c-0.019-0.062-0.027-0.118-0.033-0.155l-0.023-0.18
			l-0.026-0.172l-0.032-0.075c-0.036-0.426-0.147-0.702,0.027-1.136c-0.105-0.768,0.109-1.513,0.046-2.273
			c-0.049,0.168-0.115,0.364-0.202,0.544c-0.105,0.203-0.155,0.425-0.279,0.621c-0.1,0.402-0.386,0.713-0.484,1.112
			c-0.282,0.468-0.394,1.009-0.641,1.493c-0.027,0.082-0.062,0.154-0.087,0.206l-0.098,0.203c-0.027,0.062-0.054,0.146-0.062,0.183
			l0.029,0.233c-0.503,0.557-0.742,1.256-1.23,1.814c-0.237,0.596-0.706,0.995-1.308,1.188c-0.519-0.032-0.986,0.173-1.427-0.263
			c-0.206-0.183-0.314-0.356-0.384-0.531c-0.093,0.377-0.313,0.693-0.556,0.894c-0.084,0.254-0.254,0.477-0.504,0.584l-0.124,0.054
			l-0.039,0.075c-0.122,0.238-0.305,0.435-0.556,0.539c-0.27,0.116-0.384,0.406-0.486,0.654c-0.223,0.17-0.356,0.247-0.638,0.234
			c-0.144,0.174-0.328,0.276-0.533,0.363l-0.879,0.375c-0.427,0.12-1.219-0.011-1.613-0.062c-0.257-0.057-0.127-0.034-0.344-0.072
			c-0.267-0.053-0.487-0.16-0.694-0.337c-0.195-0.262-0.2-0.251-0.497-0.425c-0.073-0.719-0.763-1.041-0.814-1.784
			c-0.007-0.024-0.018-0.061-0.042-0.114l-0.115-0.255c-0.069-0.168-0.157-0.409-0.135-0.694c-0.057-0.199-0.038-0.398-0.042-0.601
			c-0.064-0.52-0.246-0.819-0.092-1.383c-0.028-0.701-0.036-1.449,0.073-2.474c-0.004-0.417-0.254-0.646-0.022-1.126
			c-0.016-0.121-0.053-0.238-0.075-0.356c0.096-0.345,0.113-0.709,0.293-1.025l0.169-0.553c0.137-0.493,0.529-0.517,0.636-0.696
			l0.75-0.141c-0.058,0.009-0.113-0.011-0.17-0.051c0.446-0.062,0.754-0.355,1.11,0.26c0.247,0.587,0.332,1.133,0.317,1.695
			c0.181,0.14,0.396,0.45,0.176,0.798c-0.121,0.423,0.222,0.973-0.046,1.631c0.06,0.688-0.124,1.413,0.029,2.086
			c0.045,0.559,0.054,1.105,0.187,1.652c-0.098,0.39,0.108,0.749,0.101,1.151c0.029,0.09,0.055,0.184,0.073,0.28l0.041,0.189
			c0.295-0.211,0.503-0.544,0.757-0.801c0.139-0.189,0.324-0.27,0.542-0.307c0.107-0.183,0.241-0.323,0.445-0.388l0.035-0.093
			c0.181-0.235,0.432-0.369,0.699-0.48c0.161-0.069,0.198-0.069,0.294-0.207c0.512-0.363,1.135-0.675,1.714-0.271l0.129,0.182
			c0.062,0.024,0.116,0.052,0.168,0.084c-0.009-0.019-0.015-0.034-0.023-0.058c-0.139-0.542-0.387-1.078-0.261-1.65
			c-0.12-0.486-0.231-1.003-0.102-1.501c-0.178-0.621,0.076-1.208-0.136-1.828c0.149-0.268,0.163-0.275,0.163-0.576l0.003-0.169
			c0.008-0.153,0.033-0.302,0.094-0.444c0.024-0.777-0.115-1.35,0.205-2.047c-0.07-0.492,0.218-0.756,0.347-1.172l0.007-0.112
			c0.302-0.556,0.495-1.172,0.948-1.633l0.117-0.176c0.278-0.39,0.596-0.625,1.077-0.733c0.487,0.03,0.962-0.124,1.451-0.067
			c0.465-0.092,0.766,0.046,1.24-0.08l0.333,0.488c0.26,0.433,0.479,0.635,0.482,1.069c0.015-0.012,0.03-0.03,0.044-0.04
			c-0.065-0.271,0.033-0.435,0.204-0.549l0.045-0.149c0.04-0.122,0.09-0.25,0.169-0.403c0.013-0.055-0.023-0.149-0.011-0.204
			c0.08-0.416,0.554-0.786,0.434-1.282c0.333-0.646,0.553-1.045,1.341-1.191c0.552,0.224,0.851,0.149,1.367,0.633l0.042,0.101
			C152.138,118.576,152.003,119.277,151.897,119.778z M168.008,119.181c-0.186,0.457-0.386,0.897-0.513,1.373
			c-0.326,0.385-0.517,0.704-0.636,1.189c-0.418,0.448-0.546,1.082-1.28,1.157c-0.344,0.144-1.018,0.095-1.401,0.075
			c-0.182-0.029-0.353-0.055-0.516-0.153l-0.074-0.05c-0.548-0.023-0.634-0.389-1.036-0.551c-0.214-0.182-0.458-0.32-0.65-0.529
			c-0.438-0.404-0.727-0.925-1.132-1.359c-0.123-0.485-0.634-0.694-0.842-1.151c-0.089-0.104-0.154,0.307-0.272,0.561
			c-0.491,1.144-0.635,2.391-1.029,3.565c0.01,0.896-0.381,1.705-0.541,2.566l-0.298,0.901c-0.204,0.8-0.293,1.502-0.991,2.084
			l-0.07,0.026c-0.514,0.221-1.03,0.167-1.539,0l-0.333-0.114c-0.601-0.19-0.805-0.644-0.937-1.185
			c0.127-0.398-0.113-0.792-0.039-1.222c-0.024-0.423,0.079-1-0.052-1.393c-0.153-0.698,0.066-1.457-0.17-2.123
			c-0.002-0.919-0.274-1.804-0.386-2.706c0.111-0.908-0.229-1.787-0.24-2.691c-0.162-1.425-0.118-2.848-0.248-4.276
			c0.083-0.495-0.106-0.983-0.038-1.48c-0.148-1.461,0-1.737,0.158-3.132c-0.045-0.511,0.194-0.935,0.202-1.422
			c0.236-1.02,0.984-0.757,1.716-0.991c0.404,0.076,0.582,0.22,0.918,0.439l0.062,0.146c0.585,1.374,0.129,1.44,0.104,2.835
			c-0.162,1.105,0.01,2.231-0.19,3.334c-0.021,0.58,0.188,1.048,0.011,1.66c0.1,0.547-0.046,1.115,0.14,1.647
			c0.111,0.856,0.027,1.715,0.239,2.562c-0.201,0.574,0.201,1.109,0.091,1.716c0.15,0.752,0.021,0.075,0.326-0.28
			c-0.03-0.218-0.029-0.413,0.212-0.909c0.009-0.3-0.057-0.495,0.115-0.788c-0.011-0.269,0.015-0.537,0.155-0.755
			c0.085-0.259,0.455-0.85,0.455-0.85c0.218-0.38,0.527-0.652,0.725-1.057l0.177-0.075c0.552-0.235,1.374-0.417,2.074-0.045
			c0.295,0.023,0.565,0.181,0.742,0.417l0.059,0.084c0.896,0.438,0.834,1.316,1.419,1.791c0.564,0.622,1.202,1.676,2.127,1.764
			c0.371-0.208,0.632-0.767,0.902-1.081c-0.049-0.329,0.07-0.643,0.28-0.892c0.361-0.254,0.342-0.678,0.987-0.658
			c0.451-0.104,0.791,0.2,1.183,0.357l0.083,0.195C168.471,118.312,168.171,118.665,168.008,119.181z M172.468,110.012l0.002-0.003
			L172.468,110.012z M172.472,110.006v-0.004V110.006z M178.261,104.431c0.007-0.084-0.006-0.133-0.07-0.174
			c-0.258,0.782-0.682,0.697-1.147,1.106l-0.079,0.033c-0.126,0.054-0.304,0.104-0.795,0.418c-0.201,0.148-0.292,0.372-0.53,0.505
			c-0.822,0.706-1.699,1.389-2.693,1.995c-0.199,0.211-0.441,0.374-0.654,0.504c-0.219,0.14-0.455,0.271-0.491,0.17
			c0.018,0.228,0.064,0.375-0.067,0.604c0.011,0.077,0.03,0.138,0.039,0.196c0.104,0.37-0.064,0.682-0.011,1.014l0.149,0.372
			c-0.004,0.22-0.084,0.483-0.035,0.7l0.152,0.202c-0.089,0.319-0.063,0.646-0.159,0.948c-0.05,0.577,0.113,1.104-0.053,1.691
			c0.118,0.263,0.033,0.474,0.063,0.731l0.119,0.305c0.011,0.24-0.059,0.465-0.108,0.693c0.075,0.414,0.188,0.807,0.162,1.205
			l-0.072,0.14l0.036,0.076c0.041,0.092,0.092,0.241,0.072,0.427l-0.04,0.387c0.146,0.394,0.044,0.735-0.06,1.109
			c0.345,0.673,0.443,2.562,0.453,2.7c0.006,0.604-0.385,0.806-0.906,0.842l-0.217,0.317c-0.09,0.04-0.187,0.059-0.267,0.084
			l-0.103,0.117c-0.311,0.134-0.579-0.069-0.854-0.18c-0.09-0.339-0.21-0.627-0.348-0.951c-0.099-0.235-0.203-0.525-0.206-0.869
			c-0.115-0.317-0.178-0.692-0.074-1.083c-0.198-0.711-0.3-1.397-0.275-2.104c0.006-0.395-0.184-0.67-0.034-1.101
			c-0.221-0.558-0.006-1.092-0.285-1.651c0.296-0.894-0.134-1.75,0.062-2.661c-0.067-0.413,0.036-0.823-0.088-1.225
			c0.066-0.526,0.302-1.044,0.106-0.989c-0.601,0.359-1.103,0.857-1.725,1.176c-0.496,0.351-1.055,0.589-1.586,0.87
			c-0.688-0.012-0.859-0.207-1.417-0.483c-0.297-0.121-0.422-0.395-0.537-0.67l-0.079-0.182c0.354-1.026,0.906-0.948,1.673-1.407
			c0.701-0.536,1.501-0.879,2.127-1.522c0.141-0.036,0.166-0.032,0.273-0.13l0.155-0.139c0.066-0.055,0.137-0.108,0.217-0.159
			l0.741-0.571c0-0.198,0.004-0.341,0.026-0.479c0.026-1.073-0.128-2.065-0.175-3.108c-0.068-0.503-0.131-1.002-0.157-1.51
			c0.057-0.366-0.138-0.839-0.143-1.237c-0.11-0.636-0.205-0.746,0.064-1.414l0.197-0.082c0.312-0.134,0.659-0.189,0.977-0.04
			c0.121,0.017,0.235,0.065,0.336,0.151c0.186-0.012,0.324-0.026,0.475-0.018c0.334,0.075,0.572,0.258,0.707,0.574
			c0.061,0.143,0.081,0.254,0.165,0.383c0.099,0.698,0.146,1.398,0.214,2.1l-0.067,0.22l0.089,0.135
			c0.045,0.071,0.108,0.18,0.15,0.312c0.115,0.314,0.026,0.636-0.063,0.939c0.199,0.343,0.227,0.698,0.231,0.973l0.001,0.126
			c0.441-0.232,0.885-0.477,1.239-0.836c0.192-0.154,0.648-0.29,0.752-0.395l0.319-0.124c0.091-0.119,0.197-0.232,0.359-0.302
			c0.532-0.225,0.79-0.681,1.452-0.777c0.186-0.132,0.396-0.227,0.629-0.218c0.286-0.153,0.59-0.241,0.903-0.322
			c0.194,0.111,0.353,0.215,0.518,0.368l0.094,0.084c0.062,0.051,0.135,0.088,0.203,0.127l0.066,0.157
			C178.475,103.875,178.472,104.201,178.261,104.431z"/>
		<path fill="#00AB67" d="M145.425,122.644c-0.582,0.833-0.522,2.072-0.839,3.042c-0.061,1.198-0.188,2.427-0.196,3.648
			c0.11,0.396-0.019,0.286,0.231,0.011c0.118-0.312,0.225-0.624,0.348-0.936c0.148-0.127,0.146-0.148,0.205-0.348l0.046-0.15
			c0.05-0.158,0.115-0.307,0.205-0.441c0.053-0.28,0.196-0.52,0.304-0.779c0.127-0.384,0.25-0.768,0.448-1.121
			c0.065-0.211,0.183-0.336,0.295-0.513l0.007,0.015l-0.021-0.343c0.034-0.088,0.074-0.167,0.113-0.242l0.096-0.17
			c0.047-0.084,0.07-0.141,0.087-0.204c0.024-0.208,0.136-0.392,0.306-0.515l0.006-0.21c0.137-0.27,0.144-0.903,0.45-1.043
			c0.014-0.245,0.012-0.441,0.07-0.626c-0.17,0.052-0.364,0.066-0.626,0.095C146.422,121.964,145.719,122.104,145.425,122.644z"/>
		<path fill="#00AB67" d="M169.698,99.108c0,0,0.064,0.029,0.081,0.036c0.047,0.02,0.125,0.017,0.168,0.038L169.698,99.108z"/>
		<path fill="#00AB67" d="M135.143,121.998l0.058,0.009l0.268-0.036l-0.14,0.018l0.179,0.027l0.828-0.061
			c0.345-0.144,0.554-0.41,0.68-0.599c0.213-0.165,0.349-0.341,0.45-0.51c0.178-0.117,0.345-0.268,0.494-0.457
			c0.489-0.353,0.665-0.775,0.771-1.063l0.249-0.503l0.126-0.422c-0.062-1.199-0.56-1.547-1.106-1.821l-0.486-0.303l-0.293-0.113
			l-0.413-0.091c-0.533-0.13-1.195-0.294-2.126,0.382l-0.158,0.113c0,0-0.107,0.205-0.109,0.208
			c-0.005,0.003-0.091,0.068-0.091,0.068c-0.335,0.236-0.708,0.562-0.886,1.405l-0.043,0.201l0.109,0.394
			c-0.153,0.181-0.288,0.426-0.373,0.832l-0.021,0.102l0.229,0.833C133.509,121.34,134.184,121.863,135.143,121.998z M135.18,117.14
			c0.793-0.576,1.116-0.266,1.909-0.141c0.633,0.543,1.11,0.281,1.172,1.447c-0.428,0.456-0.255,0.948-0.878,1.323
			c-0.126,0.189-0.283,0.361-0.497,0.451c-0.3,0.128-0.511,0.032-0.799,0.004l0.043-0.019l-0.211,0.027
			c-0.506-0.07-1.278-0.329-1.453-1.076l-0.201-0.732C134.47,117.453,134.924,117.668,135.18,117.14z"/>
		<path fill="#00AB67" d="M165.026,124.635c-0.019,0.008-0.051,0.004-0.071,0.012c-0.021,0.002-0.028,0.018-0.049,0.02
			L165.026,124.635z"/>
		<path fill="#00AB67" d="M123.395,147.715c0.01,0.006,0.014,0.012,0.021,0.017l0,0
			C123.408,147.725,123.401,147.721,123.395,147.715z"/>
		<polygon fill="#00AB67" points="123.415,147.731 123.415,147.731 123.419,147.733 		"/>
		<polygon fill="#00AB67" points="123.415,147.731 123.415,147.731 123.419,147.733 		"/>
		<path fill="#00AB67" d="M123.479,147.781c-0.013-0.006-0.013-0.019-0.027-0.024c-0.013-0.008-0.021-0.015-0.033-0.023
			L123.479,147.781z"/>
		<path fill="#00AB67" d="M123.419,147.733c0.013,0.009,0.021,0.016,0.033,0.023C123.44,147.745,123.428,147.738,123.419,147.733
			L123.419,147.733z"/>
		<path fill="#00AB67" d="M123.419,147.733c0.013,0.009,0.021,0.016,0.033,0.023C123.44,147.745,123.428,147.738,123.419,147.733
			L123.419,147.733z"/>
		<path fill="#FFFFFF" d="M135.919,120.233l0.211-0.027l-0.043,0.019c0.288,0.028,0.499,0.124,0.799-0.004
			c0.214-0.09,0.371-0.262,0.497-0.451c0.623-0.375,0.45-0.867,0.878-1.323c-0.062-1.166-0.539-0.904-1.172-1.447
			c-0.793-0.125-1.116-0.436-1.909,0.141c-0.256,0.528-0.71,0.313-0.915,1.285l0.201,0.732
			C134.641,119.904,135.413,120.163,135.919,120.233z"/>
		<path fill="#FFFFFF" d="M151.796,117.772c-0.517-0.483-0.815-0.409-1.367-0.633c-0.788,0.146-1.008,0.546-1.341,1.191
			c0.12,0.496-0.354,0.866-0.434,1.282c-0.013,0.055,0.023,0.149,0.011,0.204c-0.079,0.153-0.129,0.281-0.169,0.403l-0.045,0.149
			c-0.171,0.114-0.27,0.277-0.204,0.549c-0.014,0.01-0.029,0.028-0.044,0.04c-0.003-0.435-0.223-0.637-0.482-1.069l-0.333-0.488
			c-0.475,0.126-0.775-0.012-1.24,0.08c-0.489-0.057-0.964,0.098-1.451,0.067c-0.481,0.108-0.799,0.344-1.077,0.733l-0.117,0.176
			c-0.453,0.461-0.646,1.077-0.948,1.633l-0.007,0.112c-0.129,0.416-0.417,0.68-0.347,1.172c-0.32,0.697-0.181,1.27-0.205,2.047
			c-0.061,0.143-0.086,0.291-0.094,0.444l-0.003,0.169c0,0.301-0.014,0.309-0.163,0.576c0.212,0.62-0.042,1.207,0.136,1.828
			c-0.13,0.498-0.019,1.015,0.102,1.501c-0.126,0.572,0.122,1.108,0.261,1.65c0.009,0.023,0.015,0.039,0.023,0.058
			c-0.052-0.032-0.106-0.06-0.168-0.084l-0.129-0.182c-0.579-0.404-1.202-0.093-1.714,0.271c-0.096,0.138-0.133,0.138-0.294,0.207
			c-0.268,0.111-0.519,0.245-0.699,0.48l-0.035,0.093c-0.204,0.064-0.338,0.205-0.445,0.388c-0.218,0.037-0.403,0.117-0.542,0.307
			c-0.254,0.257-0.462,0.59-0.757,0.801l-0.041-0.189c-0.019-0.097-0.044-0.19-0.073-0.28c0.008-0.402-0.198-0.762-0.101-1.151
			c-0.133-0.547-0.142-1.094-0.187-1.652c-0.153-0.673,0.03-1.397-0.029-2.086c0.268-0.658-0.075-1.208,0.046-1.631
			c0.22-0.348,0.005-0.658-0.176-0.798c0.015-0.562-0.07-1.108-0.317-1.695c-0.356-0.615-0.664-0.322-1.11-0.26
			c0.057,0.04,0.112,0.06,0.17,0.051l-0.75,0.141c-0.106,0.18-0.499,0.203-0.636,0.696l-0.169,0.553
			c-0.18,0.316-0.197,0.681-0.293,1.025c0.022,0.118,0.06,0.235,0.075,0.356c-0.231,0.479,0.019,0.709,0.022,1.126
			c-0.109,1.024-0.102,1.772-0.073,2.474c-0.154,0.563,0.027,0.863,0.092,1.383c0.004,0.202-0.015,0.401,0.042,0.601
			c-0.022,0.285,0.065,0.526,0.135,0.694l0.115,0.255c0.024,0.054,0.035,0.09,0.042,0.114c0.052,0.743,0.741,1.065,0.814,1.784
			c0.297,0.174,0.302,0.163,0.497,0.425c0.207,0.177,0.428,0.284,0.694,0.337c0.217,0.038,0.087,0.016,0.344,0.072
			c0.395,0.051,1.187,0.182,1.613,0.062l0.879-0.375c0.205-0.087,0.39-0.189,0.533-0.363c0.281,0.013,0.415-0.064,0.638-0.234
			c0.103-0.248,0.217-0.538,0.486-0.654c0.251-0.104,0.434-0.301,0.556-0.539l0.039-0.075l0.124-0.054
			c0.25-0.107,0.42-0.33,0.504-0.584c0.242-0.2,0.463-0.517,0.556-0.894c0.069,0.175,0.178,0.349,0.384,0.531
			c0.44,0.436,0.908,0.23,1.427,0.263c0.602-0.192,1.07-0.592,1.308-1.188c0.488-0.559,0.728-1.258,1.23-1.814l-0.029-0.233
			c0.009-0.037,0.035-0.121,0.062-0.183l0.098-0.203c0.025-0.052,0.06-0.124,0.087-0.206c0.247-0.484,0.358-1.025,0.641-1.493
			c0.099-0.399,0.385-0.71,0.484-1.112c0.124-0.196,0.174-0.418,0.279-0.621c0.087-0.18,0.153-0.376,0.202-0.544
			c0.063,0.761-0.151,1.506-0.046,2.273c-0.175,0.434-0.063,0.71-0.027,1.136l0.032,0.075l0.026,0.172l0.023,0.18
			c0.006,0.037,0.015,0.093,0.033,0.155c0.04,0.34-0.024,0.674,0.043,1.016c-0.071,0.528-0.015,1.062-0.115,1.589
			c0.032,0.758-0.244,1.49-0.253,2.252c-0.175,0.579-0.067,1.215-0.372,1.757c-0.164,0.854-0.296,1.795-0.249,2.669
			c-0.312,0.994-0.438,2.037-0.791,3.021c-0.436,0.4-0.279,0.789-0.46,1.234c-0.374,0.602-0.653,1.202-1.154,1.711l-0.019,0.183
			c-0.404,0.48-0.66,0.329-0.846,1.066c0.251,0.628,0.445,0.681,1.075,0.862c0.565,0.059,1.229-0.279,1.229-0.279
			c0.263-0.707,1.042-0.899,1.223-1.666c0.94-1.11,1.362-2.519,1.776-3.882c0.187-1.313,0.588-2.732,0.709-4.061
			c0.062-1.5,0.495-2.854,0.547-4.361c0.239-0.674,0.045-1.374,0.312-2.029c-0.114-0.777,0.262-1.49,0.074-2.268
			c0.064-0.471-0.057-1.104,0.111-1.52c0.069-0.321-0.026-0.54-0.016-0.837c0.062-0.537,0.184-1.289,0.056-1.798
			c0.091-0.472,0.079-0.991-0.03-1.515c-0.075-0.178,0.08-0.698,0.013-1.002c0.106-0.705,0.091-1.426,0.284-2.114
			c0.105-0.501,0.24-1.202-0.06-1.905L151.796,117.772z M147.516,122.345c-0.307,0.14-0.313,0.773-0.45,1.043l-0.006,0.21
			c-0.17,0.123-0.281,0.307-0.306,0.515c-0.017,0.063-0.04,0.12-0.087,0.204l-0.096,0.17c-0.039,0.075-0.079,0.154-0.113,0.242
			l0.021,0.343l-0.007-0.015c-0.112,0.177-0.229,0.302-0.295,0.513c-0.198,0.354-0.321,0.737-0.448,1.121
			c-0.107,0.26-0.251,0.499-0.304,0.779c-0.09,0.135-0.155,0.283-0.205,0.441l-0.046,0.15c-0.06,0.199-0.057,0.221-0.205,0.348
			c-0.123,0.312-0.229,0.624-0.348,0.936c-0.25,0.275-0.121,0.386-0.231-0.011c0.009-1.222,0.136-2.45,0.196-3.648
			c0.316-0.97,0.257-2.209,0.839-3.042c0.294-0.54,0.997-0.68,1.535-0.83c0.262-0.028,0.456-0.043,0.626-0.095
			C147.527,121.903,147.529,122.1,147.516,122.345z"/>
		<path fill="#FFFFFF" d="M168.133,117.514c-0.392-0.157-0.731-0.462-1.183-0.357c-0.646-0.02-0.626,0.404-0.987,0.658
			c-0.21,0.249-0.329,0.562-0.28,0.892c-0.271,0.314-0.531,0.873-0.902,1.081c-0.925-0.088-1.562-1.142-2.127-1.764
			c-0.585-0.475-0.523-1.353-1.419-1.791l-0.059-0.084c-0.177-0.236-0.447-0.394-0.742-0.417c-0.7-0.372-1.522-0.19-2.074,0.045
			l-0.177,0.075c-0.197,0.404-0.507,0.677-0.725,1.057c0,0-0.37,0.591-0.455,0.85c-0.141,0.218-0.166,0.486-0.155,0.755
			c-0.172,0.293-0.106,0.488-0.115,0.788c-0.241,0.496-0.242,0.691-0.212,0.909c-0.305,0.355-0.176,1.032-0.326,0.28
			c0.11-0.606-0.292-1.142-0.091-1.716c-0.212-0.848-0.128-1.706-0.239-2.562c-0.186-0.532-0.04-1.101-0.14-1.647
			c0.177-0.612-0.032-1.08-0.011-1.66c0.2-1.103,0.028-2.229,0.19-3.334c0.024-1.395,0.48-1.461-0.104-2.835l-0.062-0.146
			c-0.336-0.22-0.514-0.363-0.918-0.439c-0.731,0.234-1.479-0.028-1.716,0.991c-0.008,0.487-0.247,0.911-0.202,1.422
			c-0.158,1.395-0.307,1.671-0.158,3.132c-0.068,0.497,0.121,0.985,0.038,1.48c0.13,1.429,0.086,2.852,0.248,4.276
			c0.011,0.904,0.352,1.783,0.24,2.691c0.111,0.902,0.384,1.787,0.386,2.706c0.236,0.666,0.017,1.425,0.17,2.123
			c0.131,0.393,0.027,0.97,0.052,1.393c-0.074,0.43,0.166,0.823,0.039,1.222c0.132,0.541,0.336,0.994,0.937,1.185l0.333,0.114
			c0.509,0.167,1.025,0.221,1.539,0l0.07-0.026c0.698-0.582,0.787-1.284,0.991-2.084l0.298-0.901
			c0.16-0.861,0.551-1.671,0.541-2.566c0.395-1.175,0.538-2.422,1.029-3.565c0.118-0.254,0.184-0.665,0.272-0.561
			c0.208,0.457,0.719,0.666,0.842,1.151c0.405,0.435,0.693,0.955,1.132,1.359c0.192,0.209,0.437,0.348,0.65,0.529
			c0.402,0.162,0.488,0.527,1.036,0.551l0.074,0.05c0.163,0.099,0.334,0.124,0.516,0.153c0.384,0.02,1.058,0.068,1.401-0.075
			c0.734-0.075,0.862-0.709,1.28-1.157c0.119-0.485,0.31-0.805,0.636-1.189c0.127-0.476,0.327-0.916,0.513-1.373
			c0.163-0.516,0.463-0.869,0.208-1.472L168.133,117.514z"/>
		<path fill="#FFFFFF" d="M178.293,103.449c-0.068-0.039-0.142-0.076-0.203-0.127l-0.094-0.084
			c-0.165-0.153-0.323-0.257-0.518-0.368c-0.313,0.081-0.617,0.169-0.903,0.322c-0.232-0.009-0.443,0.086-0.629,0.218
			c-0.662,0.097-0.92,0.553-1.452,0.777c-0.162,0.069-0.269,0.183-0.359,0.302l-0.319,0.124c-0.104,0.104-0.56,0.24-0.752,0.395
			c-0.354,0.359-0.798,0.604-1.239,0.836l-0.001-0.126c-0.005-0.274-0.032-0.63-0.231-0.973c0.09-0.304,0.179-0.625,0.063-0.939
			c-0.042-0.133-0.105-0.241-0.15-0.312l-0.089-0.135l0.067-0.22c-0.068-0.701-0.115-1.401-0.214-2.1
			c-0.084-0.129-0.104-0.24-0.165-0.383c-0.135-0.316-0.373-0.499-0.707-0.574c-0.15-0.009-0.289,0.006-0.475,0.018
			c-0.101-0.086-0.215-0.135-0.336-0.151c-0.317-0.149-0.664-0.094-0.977,0.04l-0.197,0.082c-0.27,0.668-0.175,0.778-0.064,1.414
			c0.005,0.398,0.199,0.871,0.143,1.237c0.026,0.508,0.089,1.007,0.157,1.51c0.047,1.043,0.201,2.035,0.175,3.108
			c-0.022,0.139-0.026,0.281-0.026,0.479l-0.741,0.571c-0.08,0.051-0.15,0.104-0.217,0.159l-0.155,0.139
			c-0.107,0.098-0.133,0.094-0.273,0.13c-0.626,0.644-1.426,0.986-2.127,1.522c-0.767,0.459-1.319,0.381-1.673,1.407l0.079,0.182
			c0.115,0.275,0.24,0.549,0.537,0.67c0.558,0.276,0.729,0.472,1.417,0.483c0.531-0.281,1.09-0.52,1.586-0.87
			c0.622-0.318,1.124-0.816,1.725-1.176c0.195-0.055-0.04,0.463-0.106,0.989c0.124,0.401,0.021,0.812,0.088,1.225
			c-0.196,0.911,0.233,1.768-0.062,2.661c0.279,0.56,0.064,1.094,0.285,1.651c-0.149,0.431,0.04,0.706,0.034,1.101
			c-0.024,0.706,0.077,1.393,0.275,2.104c-0.104,0.391-0.041,0.766,0.074,1.083c0.003,0.344,0.107,0.634,0.206,0.869
			c0.138,0.324,0.258,0.612,0.348,0.951c0.274,0.11,0.543,0.313,0.854,0.18l0.103-0.117c0.08-0.025,0.177-0.044,0.267-0.084
			l0.217-0.317c0.521-0.036,0.912-0.238,0.906-0.842c-0.01-0.139-0.108-2.027-0.453-2.7c0.104-0.374,0.205-0.716,0.06-1.109
			l0.04-0.387c0.02-0.186-0.031-0.335-0.072-0.427l-0.036-0.076l0.072-0.14c0.025-0.398-0.087-0.791-0.162-1.205
			c0.05-0.229,0.119-0.453,0.108-0.693l-0.119-0.305c-0.03-0.258,0.055-0.469-0.063-0.731c0.166-0.587,0.003-1.114,0.053-1.691
			c0.096-0.302,0.07-0.629,0.159-0.948l-0.152-0.202c-0.049-0.217,0.031-0.48,0.035-0.7l-0.149-0.372
			c-0.054-0.332,0.114-0.644,0.011-1.014c-0.009-0.059-0.028-0.119-0.039-0.196c0.132-0.229,0.085-0.377,0.067-0.604
			c0.036,0.101,0.272-0.03,0.491-0.17c0.213-0.13,0.455-0.293,0.654-0.504c0.994-0.606,1.871-1.289,2.693-1.995
			c0.238-0.133,0.329-0.356,0.53-0.505c0.491-0.314,0.669-0.364,0.795-0.418l0.079-0.033c0.466-0.409,0.89-0.324,1.147-1.106
			c0.064,0.041,0.077,0.09,0.07,0.174c0.211-0.229,0.214-0.556,0.099-0.824L178.293,103.449z"/>
		<path fill="#FFFFFF" d="M135.642,137.895c-1.259,0.552-2.892,1.487-4.504,2.301c-1.325,0.737-2.654,1.794-3.962,2.558
			c-0.465,0.352-0.843,0.202-0.896-0.133c-0.26-0.517-0.086-1.09-0.381-1.638c-0.021-0.799-0.394-1.394-0.127-2.207l-0.069-0.168
			c-0.172-0.404-0.098-0.857-0.297-1.275c0.088-0.368,0.051-0.739-0.003-1.055c0.106-0.355-0.064-0.494-0.123-0.751l0.037-0.381
			c-0.282-0.757-0.267-1.588-0.359-2.382c0.093-0.577-0.004-1.154-0.075-1.728c0.058-0.724,0.062-1.546-0.187-2.328
			c0.096-0.36-0.017-0.607-0.058-0.942c0.011-0.633,0.056-1.247-0.198-1.846c-0.067-0.123,0.055-0.564-0.008-0.806l0.002-0.089
			c-0.005-0.231-0.117-0.425-0.143-0.643c-0.055-0.654-0.226-2.911-0.213-3.168c0.09-0.745-0.767-1.76-1.146-1.912l-0.646,0.021
			c-0.294,0.126-1.128,0.796-1.142,0.995c-0.061,0.713,0.378,2.555,0.352,3.328l0.043,0.1c0.104,0.243-0.166,0.619,0.07,1.133
			c-0.045,0.343,0.052,0.622-0.025,0.967l0.096,0.165c0.027,0.281-0.034,0.538,0.078,0.816c0.025,0.437,0.08,0.924,0.165,1.335
			c-0.09,0.685,0.109,1.349,0.111,2.028c-0.086,0.589,0.255,1.356-0.011,1.84c-0.051,0.277-0.023,0.497,0.157,0.715
			c0.113,0.955,0.166,1.882,0.201,2.841c0.142,1.444,0.154,2.791,0.415,4.14l-0.064,0.395c0.202,0.694,0.24,1.39,0.412,2.133
			c0.145,0.341,0.116,0.733,0.246,1.087c0.013,0.656,0.191,1.275,0.431,1.838c0.156,0.371,0.047,0.734,0.517,0.961
			c0.375,0.468,0.65,0.307,1.131,0.41c0.752-0.102,1.585-0.236,2.195-0.734c0.061-0.029,0.116-0.062,0.173-0.097l0.167-0.107
			c0.123-0.074,0.165-0.076,0.305-0.093c0.356-0.267,0.802-0.376,1.071-0.762c0.55-0.356,1.14-0.731,1.72-1.102
			c0.611-0.427,1.114-1.027,1.813-1.324c0,0,1.518-0.981,2.171-1.546c0.825-0.559,1.966-1.277,2.438-1.479
			C137.945,139.075,137.956,137.049,135.642,137.895z"/>
	</g>
</g>
</svg>
