<?xml version="1.0" encoding="utf-8"?>
<!-- Generator: Adobe Illustrator 16.0.0, SVG Export Plug-In . SVG Version: 6.00 Build 0)  -->
<!DOCTYPE svg PUBLIC "-//W3C//DTD SVG 1.1//EN" "http://www.w3.org/Graphics/SVG/1.1/DTD/svg11.dtd">
<svg version="1.1" id="Layer_1" xmlns="http://www.w3.org/2000/svg" xmlns:xlink="http://www.w3.org/1999/xlink" x="0px" y="0px"
	 width="175.748px" height="175.748px" viewBox="8.504 8.504 175.748 175.748" enable-background="new 8.504 8.504 175.748 175.748"
	 xml:space="preserve">
<g>
	<path fill="#FFFFFF" d="M182.176,102.112c2.769-2.771,2.769-7.259,0-10.028l-81.505-81.503c-2.77-2.769-7.258-2.77-10.027-0.001
		L10.58,90.644c-2.769,2.769-2.768,7.257,0,10.028l81.504,81.503c2.769,2.77,7.259,2.77,10.028,0.001L182.176,102.112
		L182.176,102.112z"/>
	<path fill="#E13A3E" d="M94.585,94.997l-38.997,38.996c-2.076,2.076-5.444,2.076-7.521,0L13.835,99.761
		c-2.076-2.076-2.076-5.444,0-7.521l38.997-38.996L94.585,94.997L94.585,94.997z"/>
	<path fill="#E13A3E" d="M55.345,50.731l36.377-36.377c2.077-2.077,5.444-2.077,7.52-0.001l34.233,34.233
		c2.075,2.077,2.075,5.444-0.002,7.521L97.099,92.484L55.345,50.731L55.345,50.731z"/>
	<path fill="#0078A9" d="M178.929,101.578c2.076-2.077,2.076-5.443,0-7.52l-35.371-35.372c-2.076-2.077-5.443-2.077-7.521,0
		l-77.931,77.931c-2.077,2.077-2.077,5.444,0,7.521l35.371,35.371c2.077,2.076,5.444,2.077,7.521,0L178.929,101.578L178.929,101.578
		z"/>
	<path fill="#FFFFFF" d="M63.515,141.897l4.145-4.146c3.759-3.759,8.702-4.58,13.846,0.562c4.159,4.16,4.448,9.146,1.165,12.429
		l-5.155,5.155L63.515,141.897L63.515,141.897z M77.39,147.632l0.253-0.253c1.352-1.353,1.612-3.172-0.227-5.011
		c-1.969-1.969-3.71-1.896-5.196-0.411l-0.252,0.252L77.39,147.632L77.39,147.632z"/>
	<path fill="#FFFFFF" d="M93.832,129.964c3.269,3.268,2.714,7.35,0.248,9.814c-2.466,2.468-6.548,3.021-9.816-0.247
		c-3.454-3.453-3.09-7.457-0.489-10.058C86.374,126.874,90.377,126.51,93.832,129.964L93.832,129.964z M87.904,135.743
		c0.78,0.779,1.831,0.88,2.425,0.285c0.595-0.594,0.494-1.646-0.286-2.426c-0.798-0.799-1.879-1.018-2.518-0.377
		C86.886,133.864,87.105,134.944,87.904,135.743L87.904,135.743z"/>
	<path fill="#FFFFFF" d="M95.383,121.802l0.119-0.117c-0.895-1.521-0.691-3.248,0.32-4.258c1.129-1.129,2.678-1.154,4.355-0.16
		l0.09-0.089c-0.929-1.819-0.925-3.271,0.295-4.489c1.885-1.888,4.537-0.899,6.674,1.234l6.127,6.128l-3.715,3.714l-4.883-4.883
		c-0.576-0.574-1.318-1.318-1.884-0.754c-0.55,0.55,0.193,1.293,0.769,1.868l4.885,4.883l-3.715,3.715l-4.885-4.883
		c-0.574-0.576-1.317-1.319-1.881-0.754c-0.551,0.549,0.191,1.293,0.768,1.868l4.884,4.883l-3.714,3.715l-9.86-9.859l3.625-3.625
		L95.383,121.802L95.383,121.802z"/>
	<path fill="#FFFFFF" d="M105.315,108.379l3.832-3.833l9.86,9.859l-3.834,3.832L105.315,108.379L105.315,108.379z M106.297,101.308
		c1.614,1.615,1.312,3.332,0.211,4.43c-1.1,1.102-2.815,1.406-4.431-0.211c-1.43-1.43-1.396-3.207-0.193-4.411
		C103.088,99.911,104.866,99.878,106.297,101.308L106.297,101.308z"/>
	<path fill="#FFFFFF" d="M116.06,100.792l0.088-0.089c-0.334-1.819-0.492-3.108,0.74-4.342c1.961-1.961,4.571-0.896,6.743,1.277
		l6.072,6.071l-3.833,3.834l-4.811-4.81c-0.574-0.576-1.393-1.394-2.045-0.739c-0.64,0.639,0.178,1.456,0.752,2.032l4.811,4.809
		l-3.832,3.833l-9.861-9.858l3.745-3.744L116.06,100.792L116.06,100.792z"/>
	<path fill="#FFFFFF" d="M135.724,88.072c3.269,3.268,2.715,7.35,0.248,9.817c-2.467,2.465-6.549,3.02-9.815-0.25
		c-3.454-3.454-3.091-7.458-0.489-10.057C128.267,84.982,132.271,84.618,135.724,88.072L135.724,88.072z M129.795,93.851
		c0.78,0.78,1.832,0.88,2.427,0.286c0.594-0.594,0.493-1.646-0.287-2.425c-0.799-0.799-1.879-1.018-2.518-0.379
		S128.996,93.053,129.795,93.851L129.795,93.851z"/>
	<polygon fill="#FFFFFF" points="133.735,83.727 128.422,75.233 132.271,71.385 136.396,81.067 	"/>
	<path fill="#FFFFFF" d="M142.079,83.647l0.423-0.052c0.944-0.126,2.218-0.396,2.871-1.051c0.253-0.253,0.397-0.731,0.026-1.103
		c-0.539-0.538-1.019-0.097-1.387,0.159c-1.5,1.055-3.339,1.594-5.195-0.263c-2.469-2.47-1.463-5.445,0.23-7.139
		c0.98-0.98,2.439-1.958,3.896-2.225l1.793,3.666c-0.936,0.044-1.961,0.327-2.584,0.951c-0.238,0.238-0.457,0.643-0.104,0.995
		c0.483,0.483,0.937,0.104,1.583-0.319c1.645-1.088,3.354-1.609,5.34,0.378c2.562,2.562,1.586,5.657-0.197,7.439
		c-1.248,1.248-2.948,1.983-4.705,2.515L142.079,83.647L142.079,83.647z"/>
	<path fill="#FFFFFF" d="M82.61,160.61l5.155-5.155c2.615-2.615,6.217-2.876,9.69,0.597c2.858,2.859,3.215,6.067,0.942,8.342
		l-2.081,2.08l4.215,4.215l-3.923,3.922L82.61,160.61L82.61,160.61z M92.79,162.944l0.401-0.4c0.713-0.713,1.338-1.635,0.205-2.768
		c-1.096-1.096-1.984-0.318-2.652,0.351l-0.386,0.386L92.79,162.944L92.79,162.944z"/>
	<path fill="#FFFFFF" d="M97.935,153.565l3.834-3.834l9.859,9.86l-3.834,3.833L97.935,153.565L97.935,153.565z M98.916,146.495
		c1.615,1.615,1.312,3.331,0.211,4.43c-1.101,1.1-2.815,1.404-4.431-0.211c-1.43-1.43-1.396-3.208-0.192-4.412
		C95.707,145.099,97.485,145.063,98.916,146.495L98.916,146.495z"/>
	<polygon fill="#FFFFFF" points="114.065,147.238 114.494,149.3 114.604,149.411 115.281,148.512 117.465,146.328 121.179,150.042 
		112.858,158.36 112.19,157.692 110.104,150.942 109.776,149.04 109.702,148.966 108.956,149.972 107.099,151.829 103.385,148.115 
		111.513,139.988 112.069,140.546 	"/>
	<polygon fill="#FFFFFF" points="123.056,138.25 123.481,140.312 123.594,140.423 124.271,139.522 126.453,137.34 130.167,141.053 
		121.847,149.374 121.179,148.705 119.092,141.953 118.767,140.052 118.69,139.978 117.944,140.983 116.087,142.841 
		112.373,139.128 120.5,131 121.058,131.558 	"/>
	<path fill="#FFFFFF" d="M135.896,132.728l-0.09,0.088c0.23,1.627,0.2,2.846-0.885,3.931c-2.139,2.14-6.039,0.616-8.434-1.778
		c-2.488-2.488-3.996-6.402-1.768-8.631c0.95-0.951,2.164-1.312,3.694-0.911l0.089-0.089l-1.288-1.051l3.759-3.76l9.859,9.86
		l-3.759,3.759L135.896,132.728L135.896,132.728z M132.642,131.522c0.729-0.729,0.301-1.75-0.461-2.512
		c-0.761-0.761-1.734-0.9-2.343-0.293c-0.608,0.609-0.364,1.627,0.358,2.352C130.978,131.851,131.942,132.222,132.642,131.522
		L132.642,131.522z"/>
	<path d="M113.401,174.392c2.095,0,3.961,1.506,3.961,3.849c0,2.353-1.866,3.87-3.961,3.87c-2.096,0-3.963-1.519-3.963-3.87
		C109.438,175.897,111.308,174.392,113.401,174.392L113.401,174.392z M113.401,181.283c1.599,0,2.91-1.279,2.91-3.044
		c0-1.754-1.312-3.023-2.91-3.023c-1.62,0-2.909,1.27-2.909,3.023C110.492,180.004,111.781,181.283,113.401,181.283L113.401,181.283
		z M111.864,176.073h1.63c1.084,0,1.692,0.34,1.692,1.279c0,0.793-0.496,1.104-1.136,1.154l1.155,1.889h-0.898l-1.052-1.848h-0.537
		v1.848h-0.854V176.073L111.864,176.073z M112.722,177.878h0.764c0.483,0,0.846-0.072,0.846-0.598c0-0.465-0.495-0.537-0.889-0.537
		h-0.721V177.878L112.722,177.878z"/>
	<path fill="#FFFFFF" d="M44.381,104.326c3.886-3.886,3.886-10.185,0-14.07c-3.885-3.886-10.184-3.886-14.07,0
		c-3.885,3.885-3.885,10.185,0,14.07C34.197,108.211,40.496,108.211,44.381,104.326L44.381,104.326z"/>
	<path fill="#FFFFFF" d="M74.265,104.326c3.885-3.886,3.885-10.185,0-14.07c-3.885-3.886-10.185-3.886-14.07,0
		c-3.885,3.885-3.885,10.185,0,14.07C64.08,108.211,70.38,108.211,74.265,104.326L74.265,104.326z"/>
	<path fill="#FFFFFF" d="M103.206,58.795c3.885-3.886,3.885-10.185,0-14.07c-3.887-3.886-10.186-3.886-14.07,0
		c-3.885,3.885-3.885,10.185,0,14.07C93.021,62.681,99.319,62.681,103.206,58.795L103.206,58.795z"/>
</g>
</svg>
