<?xml version="1.0" encoding="utf-8"?>
<!-- Generator: Adobe Illustrator 16.0.0, SVG Export Plug-In . SVG Version: 6.00 Build 0)  -->
<!DOCTYPE svg PUBLIC "-//W3C//DTD SVG 1.1//EN" "http://www.w3.org/Graphics/SVG/1.1/DTD/svg11.dtd">
<svg version="1.1" id="Layer_1" xmlns="http://www.w3.org/2000/svg" xmlns:xlink="http://www.w3.org/1999/xlink" x="0px" y="0px"
	 width="168.174px" height="47.479px" viewBox="275.34 333.802 168.174 47.479"
	 enable-background="new 275.34 333.802 168.174 47.479" xml:space="preserve">
<g>
	<path fill="#AFADAE" d="M442.575,338.76l0.057,0.197l-0.085,0.225l-0.281,0.141l0.085,0.056l0.423,0.563h-0.227l-0.196-0.281
		l-0.142-0.197l-0.084-0.084h-0.057l-0.142-0.056h-0.196v0.619h-0.17v-1.351h0.593l0.28,0.028L442.575,338.76L442.575,338.76z
		 M442.406,338.816l-0.253-0.084h-0.423v0.451h0.562l0.112-0.141l0.027-0.084L442.406,338.816L442.406,338.816z"/>
	
		<path fill="none" stroke="#747879" stroke-width="0.1877" stroke-linecap="round" stroke-linejoin="round" stroke-miterlimit="2.6131" d="
		M442.013,337.831c0.422,0,0.761,0.14,0.985,0.421c0.281,0.283,0.422,0.62,0.422,1.042c0,0.366-0.141,0.703-0.422,0.985
		c-0.227,0.282-0.507,0.422-0.93,0.422c-0.366,0-0.704-0.141-1.042-0.422c-0.281-0.282-0.423-0.619-0.423-0.985
		c0-0.422,0.142-0.76,0.423-1.042C441.308,337.971,441.646,337.831,442.013,337.831"/>
	<path d="M402.639,357.253l-8.168,7.685c-0.365,0.281-0.761,0.396-1.126,0.34l-0.789-0.086l-1.689,8.812l12.562-15.285
		L402.639,357.253L402.639,357.253z M398.639,335.635c0.677-0.422,1.408-0.619,2.311-0.562l36.416,0.225
		c1.1-0.056,1.831,0.225,2.226,0.789c0.563,0.704,0.563,1.323,0,1.885l-16.812,20.831l10.618-8.501
		c0.787-0.31,1.491-0.169,2.11,0.394c0.563,0.366,0.704,0.929,0.451,1.633l-8.309,27.586c-0.142,0.478-0.312,0.844-0.648,1.067
		c-0.422,0.254-0.929,0.338-1.464,0.281l-36.051-0.225c-0.985,0.141-1.689-0.197-1.999-1.07c-0.197-0.9-0.058-1.604,0.422-2.025
		l-13.012,0.619c-0.762,0.142-1.353-0.057-1.774-0.479c-0.338-0.422-0.535-0.789-0.535-1.211l-7.745,0.648
		c-0.225,0.703-0.845,0.928-1.831,0.703l-3.604-0.703l-3.605,0.28h-6.252c-0.225,0.646-0.704,0.984-1.324,0.984h-7.351
		c-0.253,0-0.422-0.084-0.479-0.281l-9.576-0.057c-0.564,0.057-0.986-0.027-1.211-0.281c-0.338-0.17-0.479-0.451-0.535-0.844
		l-0.142-1.437l-0.874,0.844c-0.562,0.422-1.099,0.732-1.521,0.984c-1.069,0.424-2.395,0.705-4.027,0.732
		c-2.535,0.057-4.422-0.422-5.632-1.437l-3.887,0.451l-1.802,0.11c-0.452-0.055-0.733-0.252-0.789-0.562l-5.154,0.084l-2.506,0.847
		c-0.31,0.225-0.929,0.338-1.831,0.338c-0.366,0.027-0.732-0.254-1.127-0.816l-8.449,0.252c-0.422-0.055-0.789-0.195-1.126-0.535
		c-0.226-0.309-0.366-0.59-0.422-0.928l0.056-1.268c-0.901,0.705-1.747,1.211-2.478,1.549c-0.901,0.281-1.803,0.479-2.732,0.619
		l-0.93,0.027c-0.141-0.027-0.338-0.142-0.563-0.31c-0.281-0.396-0.422-0.703-0.422-1.041l-2.45-20.916l-1.07-0.196
		c-0.422-0.141-0.817-0.366-1.098-0.704c-0.225-0.282-0.367-0.619-0.423-1.042l-2.337-19.085l3.38-0.084
		c1.211,0.028,3.52,0.647,6.956,1.773c1.718,0.62,3.746,1.773,6.055,3.604c0-0.31,0.141-0.647,0.451-0.872
		c0.338-0.254,0.704-0.339,1.126-0.197l1.662,0.281l2.422,0.479c1.324,0.31,2.591,0.788,3.858,1.435
		c2.028,1.042,3.746,2.252,5.21,3.631l7.378,1.689l0.986,0.282c0.225,0.225,0.366,0.507,0.422,0.845l0.422,1.125
		c0.31-0.337,0.986-0.675,1.972-1.041c1.015-0.366,1.972-0.619,2.761-0.704c1.267-0.14,2.76,0,4.506,0.366
		c2.619,0.62,4.73,1.745,6.337,3.49c-0.142-0.337,0.057-0.675,0.507-1.042c0.422-0.366,0.816-0.562,1.042-0.619l5.858-0.028
		c0.479,0.028,0.816,0.168,1.042,0.422c0.226-0.337,0.619-0.535,1.126-0.562l6.394,0.028l3.887-0.366
		c2.311-0.141,3.888-0.141,4.789-0.084c1.183,0.028,2.252,0.422,3.323,1.013c0.057-0.309,0.113-0.591,0.197-0.788
		c0.196-0.479,0.646-0.76,1.465-0.788l7.829-0.394l9.153-0.929l0.365-0.76l0.901-0.647l10.505-2.477
		c0.62-0.253,1.1-0.197,1.408,0.141c0.395,0.282,0.479,0.732,0.282,1.351l-2.563,17.03l3.831-0.479l5.407-22.941
		C398.217,336.282,398.47,335.804,398.639,335.635L398.639,335.635z"/>
	<path fill="#FFFFFF" d="M377.769,346.754l-8.982,0.872v1.661l-0.563-1.464l-7.915,0.366l-0.422,2.392
		c-1.126-0.872-2.45-1.435-3.999-1.716c-0.985-0.142-2.254-0.197-3.858-0.057l-3.324,0.225l-1.69,0.253l-6.815-0.141l0.112,2.111
		l-0.958-1.886l-6.899,0.141l-0.281,6.277h-0.366l0.281-3.406c-1.773-2.252-3.802-3.715-6.112-4.335
		c-3.604-0.985-6.42-0.985-8.532,0c-1.466,0.704-2.311,1.126-2.479,1.379l-0.676-2.589l-8.477-1.914
		c-1.831-1.942-3.633-3.209-5.352-3.856c-1.746-0.62-4.337-1.211-7.717-1.773l-0.029,2.111c-2.393-2.168-4.703-3.66-6.956-4.476
		c-3.605-1.352-5.971-1.999-7.041-1.999l-2.197-0.113l2.253,18.635l2.394,0.366l2.675,22.293c1.352,0,2.704-0.366,4.084-1.182
		c1.352-0.789,2.337-1.436,3.042-2.057l-0.084,3.66l9.379-0.197l0.76,0.957l3.943-1.322l5.521,0.084l0.196-1.549l0.648,1.943
		l5.915-0.395c1.379,0.983,3.238,1.407,5.632,1.237c1.605-0.142,2.873-0.479,3.802-0.983c0.563-0.281,1.127-0.816,1.746-1.521
		l0.986-1.127l0.647,0.196l0.113,3.521l10.026,0.056l0.282-0.562l0.395,0.844l7.548-0.111l0.084-0.93l10.421-0.084l5.069,0.646
		l0.394-1.604l0.648,1.041l8.815-0.844l0.112,1.604l15.489-0.703l2.676-15.765l-4.787,0.647l3.126-18.634l-11.548,2.674
		l-1.437,10.049L377.769,346.754L377.769,346.754z"/>
	<path fill="#FFFFFF" d="M408.074,350.272l-1.071,1.408h2.761l0.817-1.408H408.074L408.074,350.272z M403.005,355.508l-9.098,8.416
		c-0.281,0.227-0.562,0.227-0.845,0c-0.339-0.281-0.424-0.562-0.281-0.844l6.814-26.938l38.331,0.338
		c0.423-0.056,0.705,0.084,0.761,0.366c0.142,0.422,0.058,0.759-0.281,1.041l-16.954,20.915l0.676,2.196l11.716-9.29
		c0.423-0.422,0.761-0.506,1.1-0.281c0.226,0.141,0.226,0.535,0,1.182l-8.225,27.5l-37.374-0.141l-0.789-0.195l0.197-0.846
		l16.054-19.986L403.005,355.508L403.005,355.508z"/>
	<path d="M403.427,354.157l-9.66,9.063l6.28-26.572l38.022,0.422L420.86,358.52l0.93,3.66l12.729-10.078l-8.505,27.333
		l-36.417-0.228l16.139-20.407L403.427,354.157L403.427,354.157z M407.566,349.456l-2.872,3.068l5.548,0.084l2.395-3.04
		L407.566,349.456L407.566,349.456z M416.242,364.234l-2.112,2.928h2.226l3.407-3.49L416.242,364.234L416.242,364.234z"/>
	<polygon fill="#E62229" points="434.802,338.535 401.229,338.394 395.795,359.224 407.482,347.824 415.96,348.021 411.003,354.072 
		405.258,354.072 407.482,358.323 392.442,377.576 424.466,377.943 431.169,356.212 417.002,368.371 411.369,368.371 
		415.312,362.939 419.959,362.264 418.917,358.52 	"/>
	<polygon points="379.966,346.219 374.615,376.619 388.838,375.973 391.429,361.701 386.528,362.602 389.485,343.883 	"/>
	<polygon fill="#E62229" points="385.599,363.812 388.275,345.291 381.008,347.036 376.305,375.605 388.189,374.902 
		390.189,362.967 	"/>
	<polygon points="369.688,348.443 368.476,373.945 380.304,372.031 381.459,360.969 376.502,362.18 376.953,347.599 	"/>
	<polygon fill="#E62229" points="375.403,363.445 375.883,348.724 371.038,349.288 369.688,372.594 379.544,371.385 
		380.304,362.377 	"/>
	<polygon points="360.898,348.949 356.083,375.41 363.574,376.451 364.673,369.441 365.404,375.889 373.629,375.043 
		367.799,348.752 	"/>
	<path fill="#E62229" d="M364.673,356.494l-1.099,5.742h1.38L364.673,356.494L364.673,356.494z M357.294,374.621l4.703-24.546
		l4.957-0.281l4.985,24.265l-5.576,0.449l-1.042-7.037l-1.636,0.113l-1.126,7.629L357.294,374.621L357.294,374.621z"/>
	<path d="M346.507,350.131l-0.113,10.021l1.239,1.239l0.986,14.524c4.534,0.196,7.351,0.254,8.393,0.112
		c0.789-0.141,1.747-0.534,2.732-1.237c1.07-0.789,1.688-1.549,1.831-2.338c0.225-0.9,0.31-1.772,0.282-2.675
		c-0.059-0.983-0.282-1.772-0.678-2.393l-1.493-2.59c1.466-1.631,2.339-2.842,2.593-3.604c0.169-0.619,0.28-1.632,0.31-3.179
		c0-1.605-0.085-2.675-0.31-3.294c-0.338-0.901-0.847-1.69-1.521-2.477c-0.93-1.098-1.999-1.83-3.183-2.224
		c-1.211-0.422-2.337-0.647-3.379-0.704l-2.619,0.141L346.507,350.131L346.507,350.131z"/>
	<path fill="#E62229" d="M360.448,353.454c1.437,1.463,1.688,3.941,0.647,7.375c-0.365,1.269-1.493,2.422-3.437,3.405l1.747,2.025
		c0.507,0.621,0.845,1.184,1.042,1.635c0.282,0.703,0.423,1.521,0.366,2.447c-0.058,1.043-0.479,2.027-1.353,2.957
		c-0.845,0.9-1.689,1.406-2.535,1.547c-1.099,0.197-3.493,0.197-7.182,0l-0.761-14.018l-1.269-1.182l-0.196-8.585l5.83-0.479
		c1.549-0.084,2.9,0.142,4.083,0.676C358.364,351.68,359.35,352.384,360.448,353.454L360.448,353.454z M352.788,355.649l0.366,5.179
		c0.985-0.845,1.408-1.885,1.38-3.152C354.477,356.409,353.857,355.705,352.788,355.649L352.788,355.649z M353.971,371.328
		c0.704-0.367,0.985-0.846,0.93-1.465c-0.057-0.562-0.479-1.068-1.184-1.576L353.971,371.328L353.971,371.328z"/>
	<polygon points="333.157,349.991 330.96,376.535 340.029,376.619 340.114,374.986 341.296,376.732 347.859,376.732 
		347.859,350.075 341.184,349.991 340.902,353.96 338.79,350.075 	"/>
	<polygon fill="#FAE62A" points="342.423,351.398 346.366,351.398 346.732,375.551 342.029,375.691 339.466,370.539 
		338.987,375.354 332.284,375.184 334.283,351.117 338.227,351.117 341.944,358.858 	"/>
	<path d="M330.96,359.139l0.563-6.446c-2.028-2.336-4.281-3.744-6.676-4.25c-1.831-0.422-3.407-0.535-4.788-0.338
		c-1.352,0.226-2.76,0.761-4.225,1.633c-1.267,0.844-2.253,1.801-2.844,2.815c-0.423,0.704-0.845,1.886-1.324,3.49
		c-0.423,1.548-0.761,3.265-0.931,5.207c-0.252,2.252-0.196,4.223,0.086,5.912c0.225,1.717,0.646,3.039,1.211,3.939
		c0.479,0.731,1.267,1.577,2.394,2.534c1.1,0.871,2.311,1.548,3.718,2.056c1.465,0.506,2.873,0.787,4.226,0.787
		c1.267,0,2.338-0.226,3.239-0.646c0.619-0.281,1.324-0.76,2.027-1.465c0.732-0.703,1.438-1.492,2.057-2.42
		c0.789-1.269,1.323-2.506,1.55-3.66c0.337-1.66,0.562-4.615,0.704-8.866L330.96,359.139L330.96,359.139z"/>
	<path fill="#FAE62A" d="M330.312,352.693c-3.015-2.477-5.689-3.687-8.027-3.687c-2.676,0-5.126,0.928-7.379,2.758
		c-0.789,0.704-1.493,1.886-2.057,3.575c-0.619,1.717-0.957,3.828-1.098,6.278c-0.17,3.012-0.029,5.291,0.421,6.895
		c0.62,2.254,1.972,3.941,4.084,5.125c2.084,1.154,4,1.773,5.773,1.773c1.381,0.057,2.507-0.283,3.38-0.93l2.31-1.83
		c0.901-0.9,1.492-1.83,1.831-2.928c0.507-1.634,0.76-2.701,0.76-3.181l0.169-6.391l-9.857-1.013l0.113,4.363l4.394,0.451
		c0.704,2.082-0.169,2.871-2.676,2.394c-1.915-0.312-3.239-0.873-3.831-1.689c-0.704-0.873-0.901-2.279-0.563-4.223
		c0.508-3.124,2-4.672,4.395-4.588c1.747,0.057,2.873,1.042,3.436,2.872l3.465,0.507L330.312,352.693L330.312,352.693z"/>
	<polygon points="311.894,375.889 319.835,375.213 313.583,347.542 306.12,345.797 301.304,375.127 309.978,375.41 310.175,369.695 
			"/>
	<polygon fill="#FAE62A" points="310.823,367.471 309.33,367.584 308.513,372.82 302.598,373.213 306.823,347.261 312.569,348.583 
		317.92,374.283 312.569,374.762 	"/>
	<polygon points="309.894,357.676 309.414,361.842 310.541,361.842 	"/>
	<path d="M297.642,340.984c-1.099-0.338-2.451-0.62-4.197-0.958l-1.718,35.89l9.182-0.17l0.563,0.732l8.42-3.236l-5.547-9.43
		c2.76-2.478,4.224-5.573,4.42-9.291c0.169-4.025-1.521-7.544-5.069-10.584C302.233,342.701,300.205,341.715,297.642,340.984
		L297.642,340.984z"/>
	<path fill="#FAE62A" d="M306.936,354.072c-0.056,3.744-1.661,6.756-4.787,9.038l5.801,9.57l-6.365,2.504l-2.591-6.445l-0.084,5.967
		l-6.309,0.197l1.605-33.75c0.563,0.254,1.268,0.478,2.112,0.675c1.605,0.366,3.183,1.014,4.789,1.999
		c1.492,0.901,2.76,2.083,3.745,3.519C306.26,349.315,306.964,351.567,306.936,354.072L306.936,354.072z"/>
	<path d="M300.402,354.157l-0.283,4.223c0.902-0.226,1.409-0.844,1.465-1.83C301.613,355.508,301.247,354.72,300.402,354.157
		L300.402,354.157z"/>
	<path d="M287.081,338.113c-3.014-1.464-6.252-2.309-9.773-2.59l2.197,17.228l2.394,0.365l2.591,22.208
		c5.492-1.463,9.069-4.363,10.787-8.727c1.38-3.349,2.168-6.249,2.45-8.726c0.338-2.674,0.085-5.208-0.704-7.713
		c-0.789-2.562-2.113-4.926-3.886-7.066C291.305,340.871,289.277,339.182,287.081,338.113L287.081,338.113z"/>
	<path fill="#FAE62A" d="M292.319,344.361c1.463,1.83,2.506,4.025,3.098,6.502c0.817,3.293,0.845,6.868,0.057,10.667
		c-1.127,5.658-4.422,9.714-9.858,12.05l-2.479-21.394l-2.45-0.366l-2.027-14.834c1.549,0,3.379,0.366,5.548,1.126
		C287.249,339.182,289.925,341.293,292.319,344.361L292.319,344.361z"/>
	<path d="M286.968,352.553l0.958,8.021c1.971-1.013,2.901-2.533,2.844-4.503C290.742,354.438,289.474,353.256,286.968,352.553
		L286.968,352.553z"/>
	<path d="M331.157,356.888c2.253,0,4.168,0.788,5.773,2.392c1.577,1.578,2.395,3.519,2.395,5.771s-0.817,4.166-2.395,5.77
		c-1.604,1.576-3.521,2.394-5.773,2.394c-2.31,0-4.225-0.815-5.83-2.394c-1.606-1.604-2.396-3.518-2.396-5.77
		s0.789-4.193,2.396-5.771C326.934,357.676,328.848,356.888,331.157,356.888L331.157,356.888z"/>
	<path fill="#F79231" d="M324.116,365.051c0-1.941,0.704-3.631,2.056-4.982c1.353-1.351,3.042-2.054,4.985-2.054
		c1.915,0,3.604,0.703,4.957,2.054c1.38,1.352,2.027,3.041,2.027,4.982c0,1.914-0.646,3.604-2.027,4.953
		c-1.353,1.381-3.042,2.084-4.957,2.084c-1.943,0-3.633-0.703-4.985-2.084C324.82,368.654,324.116,366.965,324.116,365.051
		L324.116,365.051z"/>
	<polygon fill="#EE2D2F" points="331.016,361.055 332.002,364.064 335.128,364.064 332.594,365.895 333.551,368.852 
		331.016,367.021 328.482,368.852 329.468,365.895 326.934,364.064 330.031,364.064 	"/>
</g>
</svg>
