<?xml version="1.0" encoding="utf-8"?>
<!-- Generator: Adobe Illustrator 16.0.0, SVG Export Plug-In . SVG Version: 6.00 Build 0)  -->
<!DOCTYPE svg PUBLIC "-//W3C//DTD SVG 1.1//EN" "http://www.w3.org/Graphics/SVG/1.1/DTD/svg11.dtd">
<svg version="1.1" id="Layer_1" xmlns="http://www.w3.org/2000/svg" xmlns:xlink="http://www.w3.org/1999/xlink" x="0px" y="0px"
	 width="134.712px" height="41.396px" viewBox="332.645 279.302 134.712 41.396"
	 enable-background="new 332.645 279.302 134.712 41.396" xml:space="preserve">
<g>
	<g>
		
			<linearGradient id="SVGID_1_" gradientUnits="userSpaceOnUse" x1="343.1289" y1="283.2266" x2="343.1289" y2="244.618" gradientTransform="matrix(1 0 0 -1 54 565)">
			<stop  offset="0" style="stop-color:#F28622"/>
			<stop  offset="0.6228" style="stop-color:#EF6B23"/>
			<stop  offset="1" style="stop-color:#EE6024"/>
		</linearGradient>
		<path fill="url(#SVGID_1_)" d="M337.296,320.697c-2.605,0-4.651-2.637-4.651-6.002v-29.391c0-3.366,2.043-6.002,4.651-6.002
			l0.155,0.004l119.317,5.112c2.673,0.106,4.845,2.272,4.845,4.823v21.516c0,2.55-2.172,4.713-4.845,4.823l-119.32,5.113
			L337.296,320.697z"/>
		<g>
			
				<linearGradient id="SVGID_2_" gradientUnits="userSpaceOnUse" x1="409.8418" y1="280.1265" x2="409.8418" y2="252.1375" gradientTransform="matrix(1 0 0 -1 54 565)">
				<stop  offset="0" style="stop-color:#F28622"/>
				<stop  offset="0.6228" style="stop-color:#EF6B23"/>
				<stop  offset="1" style="stop-color:#EE6024"/>
			</linearGradient>
			<path fill="url(#SVGID_2_)" d="M462.85,285.761v-0.018c0-0.1,0.062-0.154,0.172-0.154h1.646c0.111,0,0.168,0.054,0.168,0.154
				v0.018c0,0.101-0.057,0.158-0.168,0.158h-0.637v1.839c0,0.111-0.058,0.168-0.166,0.168h-0.049c-0.105,0-0.158-0.057-0.158-0.168
				v-1.839h-0.637C462.91,285.919,462.85,285.862,462.85,285.761z"/>
			
				<linearGradient id="SVGID_3_" gradientUnits="userSpaceOnUse" x1="412.2559" y1="280.1279" x2="412.2559" y2="252.1308" gradientTransform="matrix(1 0 0 -1 54 565)">
				<stop  offset="0" style="stop-color:#F28622"/>
				<stop  offset="0.6228" style="stop-color:#EF6B23"/>
				<stop  offset="1" style="stop-color:#EE6024"/>
			</linearGradient>
			<path fill="url(#SVGID_3_)" d="M465.156,287.758v-1.979c0-0.126,0.084-0.205,0.213-0.205h0.096c0.146,0,0.185,0.054,0.242,0.187
				l0.549,1.239l0.553-1.239c0.06-0.136,0.103-0.187,0.238-0.187h0.09c0.133,0,0.22,0.079,0.22,0.205v1.979
				c0,0.111-0.048,0.168-0.154,0.168h-0.051c-0.104,0-0.146-0.057-0.146-0.168v-1.706l-0.514,1.157
				c-0.041,0.093-0.08,0.158-0.238,0.158c-0.16,0-0.192-0.064-0.235-0.158l-0.509-1.146v1.695c0,0.111-0.043,0.168-0.147,0.168
				h-0.06C465.199,287.927,465.156,287.87,465.156,287.758z"/>
		</g>
	</g>
	<g>
		<path fill="#D45620" d="M339.831,306.13l2.757-13.097c0.27-1.271,1.052-1.858,2.249-1.858h8.73c1.003,0,1.541,0.392,1.541,1.075
			c0,0.392-0.222,1.271-0.612,1.663c-0.27,0.293-0.586,0.392-1.395,0.392h-7.164l-0.842,3.858h5.355c0.93,0,1.418,0.392,1.418,1.002
			c0,0.367-0.17,1.174-0.537,1.565c-0.245,0.244-0.562,0.391-1.297,0.391h-5.575l-0.863,4.178h7.141
			c1.004,0,1.517,0.393,1.517,1.053c0,0.416-0.195,1.271-0.587,1.688c-0.269,0.27-0.612,0.393-1.394,0.393h-8.634
			C340.149,308.43,339.489,307.67,339.831,306.13z"/>
		<path fill="#D45620" d="M356.3,307.279l-0.978-6.797c-0.245-1.859-0.809-2.348-1.786-2.421c-0.049,0,0.172-1.761,2.151-1.761
			c0.733,0,1.247,0.196,1.713,0.66c0.659,0.661,0.952,1.737,1.075,3.375l0.439,4.451l4.842-8.461
			c0.024-0.048,2.373,0.075,2.373,1.688c0,0.538-0.196,0.954-0.734,1.76l-5.037,7.752c-0.562,0.88-1.491,1.027-2.151,1.027
			C357.327,308.552,356.422,308.232,356.3,307.279z"/>
		<path fill="#D45620" d="M366.228,303.637c0-4.328,3.327-7.435,7.509-7.435c3.031,0,4.72,1.418,4.72,3.497
			c0,2.445-1.565,3.914-6.871,3.914c-0.734,0-1.54-0.049-2.446-0.1v0.074c0,1.662,1.028,2.689,2.91,2.689
			c1.59,0,2.739-0.709,3.521-1.737c0.049-0.073,1.467,0.173,1.467,1.298c0,0.635-0.195,0.979-0.659,1.467
			c-0.905,0.881-2.324,1.418-4.377,1.418C368.087,308.723,366.228,306.57,366.228,303.637z M369.579,301.411
			c0.637,0.048,1.198,0.073,1.712,0.073c3.326,0,4.255-0.758,4.255-1.688c0-0.635-0.66-1.271-1.956-1.271
			C371.78,298.525,370.289,299.772,369.579,301.411z"/>
		<path fill="#D45620" d="M383.984,298.525c0.953-1.443,2.347-2.323,4.106-2.323c2.445,0,3.864,1.59,3.864,3.864
			c0,0.856-0.294,2.03-0.71,3.499c-0.317,1.197-0.562,2.15-0.562,2.64c0,0.687,0.318,0.955,0.979,1.053
			c0.05,0-0.195,1.418-2.078,1.418c-1.613,0-2.372-0.831-2.372-2.128c0-0.686,0.22-1.589,0.587-2.934
			c0.318-1.125,0.539-2.057,0.539-2.568c0-1.223-0.687-1.956-1.933-1.956c-1.198,0-1.98,0.562-2.738,1.736l-1.272,6.063
			c-0.269,1.223-0.709,1.639-1.59,1.639h-0.364c-0.932,0-1.763-0.366-1.492-1.639l2.176-10.271c0.024-0.074,0.416-0.219,0.954-0.219
			C383.054,296.398,384.008,296.936,383.984,298.525z"/>
		<path fill="#D45620" d="M394.549,304.223l1.051-5.037h-0.587c-0.782,0-1.247-0.342-1.247-0.905c0-0.342,0.146-1.077,0.488-1.444
			c0.245-0.219,0.514-0.341,1.199-0.341h0.709l0.146-0.684c0.344-1.762,1.053-2.495,2.567-2.495c0.734,0,1.296,0.293,1.272,0.416
			l-0.588,2.764h2.005c0.832,0,1.297,0.367,1.297,0.906c0,0.342-0.146,1.1-0.515,1.442c-0.221,0.22-0.514,0.342-1.174,0.342h-2.226
			l-1.052,4.891c-0.317,1.443,0.172,2.054,1.124,2.054c0.612,0,1.149-0.317,1.469-0.61c0.098-0.073,0.562,0.318,0.562,1.052
			c0,0.514-0.195,0.954-0.586,1.346c-0.538,0.537-1.395,0.832-2.543,0.832C395.184,308.748,393.938,307.107,394.549,304.223z"/>
		<path fill="#D45620" d="M406.215,306.398c-0.467,1.541-1.223,2.129-2.567,2.129c-0.66,0-1.224-0.295-1.199-0.416l3.219-15.25
			c0.27-1.248,0.709-1.663,1.59-1.663h0.392c0.903,0,1.762,0.391,1.467,1.663L408,298.183c0.879-1.223,2.15-1.981,3.789-1.981
			c2.568,0,4.695,1.834,4.695,5.11c0,3.767-2.47,7.41-6.236,7.41C408.488,308.723,406.947,307.867,406.215,306.398z
			 M407.436,300.799l-0.364,1.713c-0.367,1.905,0.66,3.495,2.688,3.495c2.176,0,3.375-2.104,3.375-4.254
			c0-1.736-1.102-2.813-2.545-2.813C409.32,298.941,408.17,299.699,407.436,300.799z"/>
		<path fill="#D45620" d="M422.396,298.501c0.733-1.442,1.834-2.299,3.227-2.299c1.199,0,2.129,0.685,2.129,1.687
			c0,1.688-1.492,2.226-1.541,2.177c-0.342-0.367-0.83-0.709-1.662-0.709c-1.541,0-2.52,1.711-3.057,4.231l-0.687,3.301
			c-0.27,1.223-0.709,1.639-1.59,1.639h-0.365c-0.93,0-1.762-0.366-1.491-1.639l2.176-10.271c0.024-0.074,0.416-0.219,0.953-0.219
			C421.467,296.398,422.42,296.936,422.396,298.501z"/>
		<path fill="#D45620" d="M427.924,305.373l1.564-7.312c0.27-1.248,0.709-1.662,1.59-1.662h0.367c0.93,0,1.76,0.366,1.492,1.662
			l-1.591,7.41c-0.27,1.32-0.049,1.834,0.953,1.98c0.025,0.023-0.172,1.223-2.006,1.223
			C428.07,308.674,427.508,307.305,427.924,305.373z M430.434,293.18c0-1.174,0.806-2.005,2.004-2.005
			c1.226,0,1.908,0.612,1.908,1.492c0,1.149-0.807,2.006-2.006,2.006C431.117,294.672,430.434,294.06,430.434,293.18z"/>
		<path fill="#D45620" d="M435.406,304.223l1.053-5.037h-0.588c-0.783,0-1.246-0.342-1.246-0.905c0-0.342,0.146-1.077,0.488-1.444
			c0.246-0.219,0.514-0.341,1.199-0.341h0.709l0.146-0.684c0.342-1.762,1.051-2.495,2.568-2.495c0.733,0,1.295,0.293,1.271,0.416
			l-0.588,2.764h2.004c0.834,0,1.299,0.367,1.299,0.906c0,0.342-0.147,1.1-0.514,1.442c-0.223,0.22-0.516,0.342-1.174,0.342h-2.228
			l-1.051,4.891c-0.317,1.443,0.172,2.054,1.125,2.054c0.611,0,1.148-0.317,1.465-0.61c0.101-0.073,0.564,0.318,0.564,1.052
			c0,0.514-0.195,0.954-0.588,1.346c-0.537,0.537-1.394,0.832-2.543,0.832C436.043,308.748,434.795,307.107,435.406,304.223z"/>
		<path fill="#D45620" d="M443.699,303.637c0-4.328,3.324-7.435,7.506-7.435c3.033,0,4.721,1.418,4.721,3.497
			c0,2.445-1.565,3.914-6.873,3.914c-0.731,0-1.541-0.049-2.444-0.1v0.074c0,1.662,1.026,2.689,2.909,2.689
			c1.591,0,2.74-0.709,3.521-1.737c0.049-0.073,1.467,0.173,1.467,1.298c0,0.635-0.195,0.979-0.66,1.467
			c-0.903,0.881-2.321,1.418-4.377,1.418C445.557,308.723,443.699,306.57,443.699,303.637z M447.049,301.411
			c0.635,0.048,1.197,0.073,1.711,0.073c3.326,0,4.256-0.758,4.256-1.688c0-0.635-0.661-1.271-1.957-1.271
			C449.248,298.525,447.756,299.772,447.049,301.411z"/>
	</g>
	<g>
		<path fill="#FFFFFF" d="M340.188,305.773l2.757-13.098c0.27-1.271,1.052-1.858,2.25-1.858h8.729c1.002,0,1.54,0.391,1.54,1.075
			c0,0.392-0.22,1.271-0.612,1.663c-0.269,0.293-0.586,0.392-1.394,0.392h-7.164l-0.841,3.858h5.354c0.93,0,1.418,0.392,1.418,1.002
			c0,0.367-0.171,1.174-0.537,1.565c-0.245,0.244-0.562,0.393-1.297,0.393h-5.575l-0.863,4.176h7.141
			c1.003,0,1.517,0.393,1.517,1.053c0,0.416-0.195,1.271-0.586,1.688c-0.271,0.271-0.612,0.392-1.396,0.392h-8.633
			C340.505,308.072,339.845,307.312,340.188,305.773z"/>
		<path fill="#FFFFFF" d="M356.657,306.924l-0.979-6.798c-0.245-1.859-0.808-2.349-1.786-2.421c-0.049,0,0.173-1.761,2.152-1.761
			c0.733,0,1.247,0.196,1.712,0.661c0.66,0.66,0.954,1.736,1.076,3.375l0.439,4.452l4.842-8.461
			c0.023-0.048,2.373,0.074,2.373,1.688c0,0.538-0.196,0.954-0.734,1.76l-5.037,7.752c-0.562,0.881-1.492,1.027-2.151,1.027
			C357.683,308.195,356.779,307.877,356.657,306.924z"/>
		<path fill="#FFFFFF" d="M366.585,303.279c0-4.328,3.326-7.434,7.508-7.434c3.031,0,4.719,1.418,4.719,3.496
			c0,2.446-1.563,3.914-6.87,3.914c-0.734,0-1.54-0.049-2.445-0.101v0.074c0,1.664,1.027,2.69,2.909,2.69
			c1.59,0,2.739-0.71,3.521-1.737c0.049-0.072,1.468,0.174,1.468,1.297c0,0.636-0.194,0.979-0.659,1.467
			c-0.905,0.882-2.323,1.419-4.377,1.419C368.444,308.365,366.585,306.215,366.585,303.279z M369.936,301.055
			c0.637,0.049,1.197,0.072,1.712,0.072c3.325,0,4.255-0.757,4.255-1.687c0-0.635-0.66-1.271-1.956-1.271
			C372.136,298.168,370.645,299.416,369.936,301.055z"/>
		<path fill="#FFFFFF" d="M384.34,298.168c0.953-1.442,2.348-2.323,4.107-2.323c2.445,0,3.863,1.589,3.863,3.864
			c0,0.855-0.294,2.029-0.71,3.498c-0.315,1.197-0.562,2.15-0.562,2.641c0,0.685,0.317,0.953,0.978,1.051
			c0.051,0-0.193,1.418-2.077,1.418c-1.613,0-2.372-0.83-2.372-2.127c0-0.685,0.22-1.59,0.587-2.934
			c0.317-1.125,0.539-2.056,0.539-2.568c0-1.223-0.687-1.957-1.934-1.957c-1.198,0-1.979,0.562-2.738,1.736l-1.271,6.064
			c-0.27,1.223-0.709,1.64-1.589,1.64h-0.366c-0.931,0-1.762-0.366-1.492-1.64l2.176-10.27c0.024-0.074,0.416-0.22,0.954-0.22
			C383.411,296.042,384.365,296.579,384.34,298.168z"/>
		<path fill="#FFFFFF" d="M394.906,303.866l1.051-5.037h-0.586c-0.784,0-1.248-0.343-1.248-0.905c0-0.343,0.146-1.077,0.489-1.444
			c0.244-0.219,0.513-0.342,1.198-0.342h0.709l0.146-0.684c0.343-1.761,1.052-2.495,2.567-2.495c0.733,0,1.297,0.293,1.271,0.416
			l-0.587,2.763h2.005c0.83,0,1.297,0.367,1.297,0.906c0,0.342-0.147,1.1-0.516,1.442c-0.221,0.221-0.514,0.343-1.174,0.343h-2.226
			l-1.051,4.891c-0.317,1.442,0.171,2.054,1.124,2.054c0.612,0,1.15-0.317,1.468-0.61c0.099-0.072,0.563,0.317,0.563,1.053
			c0,0.513-0.195,0.953-0.587,1.345c-0.537,0.537-1.396,0.832-2.543,0.832C395.541,308.391,394.294,306.752,394.906,303.866z"/>
		<path fill="#FFFFFF" d="M406.57,306.043c-0.465,1.541-1.224,2.128-2.566,2.128c-0.66,0-1.225-0.294-1.199-0.417l3.22-15.248
			c0.268-1.248,0.709-1.663,1.59-1.663h0.391c0.904,0,1.76,0.391,1.467,1.663l-1.114,5.32c0.881-1.223,2.151-1.98,3.789-1.98
			c2.567,0,4.694,1.834,4.694,5.11c0,3.767-2.469,7.409-6.233,7.409C408.844,308.365,407.303,307.51,406.57,306.043z
			 M407.793,300.442l-0.367,1.712c-0.367,1.908,0.66,3.496,2.691,3.496c2.176,0,3.373-2.103,3.373-4.254
			c0-1.736-1.101-2.812-2.543-2.812C409.676,298.584,408.527,299.342,407.793,300.442z"/>
		<path fill="#FFFFFF" d="M422.754,298.145c0.732-1.442,1.832-2.299,3.228-2.299c1.198,0,2.129,0.685,2.129,1.687
			c0,1.688-1.492,2.226-1.543,2.177c-0.343-0.368-0.83-0.709-1.662-0.709c-1.541,0-2.519,1.711-3.058,4.229l-0.686,3.302
			c-0.269,1.223-0.707,1.64-1.588,1.64h-0.367c-0.93,0-1.76-0.367-1.492-1.64l2.178-10.27c0.023-0.074,0.416-0.22,0.953-0.22
			C421.824,296.042,422.777,296.579,422.754,298.145z"/>
		<path fill="#FFFFFF" d="M428.279,305.018l1.565-7.312c0.271-1.248,0.709-1.663,1.588-1.663h0.367c0.931,0,1.763,0.366,1.494,1.663
			l-1.59,7.408c-0.271,1.32-0.051,1.835,0.953,1.98c0.022,0.024-0.172,1.223-2.006,1.223
			C428.428,308.316,427.865,306.947,428.279,305.018z M430.789,292.823c0-1.174,0.807-2.006,2.006-2.006
			c1.223,0,1.906,0.612,1.906,1.492c0,1.149-0.808,2.006-2.004,2.006C431.473,294.315,430.789,293.703,430.789,292.823z"/>
		<path fill="#FFFFFF" d="M435.764,303.866l1.052-5.037h-0.587c-0.782,0-1.245-0.343-1.245-0.905c0-0.343,0.145-1.077,0.487-1.444
			c0.244-0.219,0.513-0.342,1.197-0.342h0.709l0.148-0.684c0.342-1.761,1.049-2.495,2.565-2.495c0.734,0,1.297,0.293,1.271,0.416
			l-0.586,2.763h2.004c0.832,0,1.297,0.367,1.297,0.906c0,0.342-0.146,1.1-0.514,1.442c-0.222,0.221-0.515,0.343-1.175,0.343h-2.227
			l-1.051,4.891c-0.318,1.442,0.172,2.054,1.125,2.054c0.61,0,1.149-0.317,1.467-0.61c0.098-0.072,0.563,0.317,0.563,1.053
			c0,0.513-0.196,0.953-0.59,1.345c-0.535,0.537-1.393,0.832-2.541,0.832C436.4,308.391,435.152,306.752,435.764,303.866z"/>
		<path fill="#FFFFFF" d="M444.055,303.279c0-4.328,3.326-7.434,7.506-7.434c3.033,0,4.722,1.418,4.722,3.496
			c0,2.446-1.564,3.914-6.873,3.914c-0.732,0-1.539-0.049-2.443-0.101v0.074c0,1.664,1.025,2.69,2.908,2.69
			c1.59,0,2.74-0.71,3.521-1.737c0.052-0.072,1.47,0.174,1.47,1.297c0,0.636-0.195,0.979-0.66,1.467
			c-0.906,0.882-2.324,1.419-4.377,1.419C445.912,308.365,444.055,306.215,444.055,303.279z M447.406,301.055
			c0.635,0.049,1.196,0.072,1.711,0.072c3.324,0,4.254-0.757,4.254-1.687c0-0.635-0.66-1.271-1.955-1.271
			C449.605,298.168,448.113,299.416,447.406,301.055z"/>
	</g>
</g>
</svg>
