<?xml version="1.0" encoding="utf-8"?>
<!-- Generator: Adobe Illustrator 16.0.0, SVG Export Plug-In . SVG Version: 6.00 Build 0)  -->
<!DOCTYPE svg PUBLIC "-//W3C//DTD SVG 1.1//EN" "http://www.w3.org/Graphics/SVG/1.1/DTD/svg11.dtd">
<svg version="1.1" id="Layer_1" xmlns="http://www.w3.org/2000/svg" xmlns:xlink="http://www.w3.org/1999/xlink" x="0px" y="0px"
	 width="187.087px" height="87.965px" viewBox="2.835 52.395 187.087 87.965" enable-background="new 2.835 52.395 187.087 87.965"
	 xml:space="preserve">
<g>
	<path d="M183.36,95.115c-5.588,7.774-14.334,15.063-25.512,21.139c-22.109,11.906-50.295,17.736-77.507,16.279
		c-21.382-1.216-51.267-7.775-75.078-31.103c-0.243,0.973-0.486,1.459-0.486,1.459c51.753,54.668,160.36,28.428,180.042-9.962
		C184.333,93.657,183.847,94.387,183.36,95.115L183.36,95.115z"/>
	<path fill="#FFE822" d="M119.217,60.614c-20.651-6.074-39.604-7.775-56.369-5.346c-13.12,2.187-25.026,7.046-34.987,14.335
		C12.554,81.266,5.993,95.358,4.778,98.272c23.568,24.541,54.182,31.101,75.807,32.316c26.482,1.457,54.911-4.375,76.293-15.793
		c10.934-6.076,19.68-13.121,25.025-20.654c4.131-6.074,6.316-12.148,6.316-18.465c0-1.701-0.242-3.401-0.729-5.102
		C182.39,72.033,160.765,73.977,119.217,60.614L119.217,60.614z"/>
	<path fill="#EB5127" d="M62.605,53.567c-13.606,2.187-25.754,7.046-35.959,14.821C9.152,81.266,3.078,97.545,2.835,98.272v0.486
		l0.243,0.242c23.811,25.27,55.154,32.072,77.265,33.531c27.213,1.457,55.397-4.373,77.508-16.279
		c11.176-6.074,19.922-13.363,25.512-21.139c5.83-8.504,7.775-17.25,5.83-25.998c0,0-0.971-0.729-1.457-0.486
		c-0.242,0-19.682,5.832-67.789-9.718C98.808,52.838,79.613,50.895,62.605,53.567L62.605,53.567z M27.861,69.604
		c9.961-7.289,21.867-12.148,34.987-14.335c16.765-2.43,35.715-0.729,56.369,5.346c41.548,13.363,63.173,11.419,68.275,9.962
		c0.485,1.701,0.729,3.401,0.729,5.102c0,6.317-2.188,12.392-6.318,18.465c-5.346,7.533-14.092,14.578-25.024,20.654
		c-21.382,11.418-49.81,17.25-76.293,15.793c-21.625-1.217-52.238-7.775-75.807-32.316C5.993,95.358,12.554,81.266,27.861,69.604
		L27.861,69.604z"/>
	<path d="M14.497,81.266c0.243-2.43,0.243-4.131-1.701-3.888c-0.972-0.243-1.701,0-1.458-0.972c0-0.729,0.486-0.972,0.729-0.972
		c0.243,0,0.243,0,1.215,0c1.215,0,3.159-0.243,7.532-0.729H21.3c4.374-0.486,6.561-0.729,7.775-0.972
		c0.972-0.243,1.215-0.243,1.215-0.243c0.729-0.243,0.729,0.243,0.486,0.972L30.29,80.78c0,0.243,0,1.214-0.486,1.214
		c-0.486,0-0.729-0.972-0.729-1.214c-0.729-3.159-1.214-5.104-7.532-4.374c-1.458,0.243-2.187,0.486-2.43,3.159l-0.486,8.018
		c-0.243,3.158-0.243,3.401,0.243,3.401c0.729,0,1.944-0.243,2.673-0.243c3.401-0.243,4.13-1.701,4.859-4.859
		c0.243-0.486,0.486-0.972,0.729-1.215c0.486,0,0.486,0.486,0.486,0.972c0,0.972-0.486,5.103-0.486,5.832s-0.243,1.701-0.243,2.916
		v2.916c0,0.486,0,1.216-0.486,1.216c-0.486,0-0.729-0.486-0.729-0.974c0-0.242-0.243-1.944-0.243-2.187
		c-0.486-3.159-3.159-2.916-4.13-2.673c-3.159,0.243-3.159,0.243-3.401,3.159l-0.729,10.205c-0.243,2.188-0.243,4.132,1.701,4.132
		c1.215-0.242,1.701-0.242,1.701,0.729c0,0.729-0.729,0.973-0.972,0.973c-1.458,0-3.645,0.242-5.103,0.242
		c-1.458,0.242-3.645,0.729-5.102,0.973c-0.243,0-0.972,0-0.729-0.973c0-0.729,0.486-0.971,1.458-0.971
		c2.187-0.486,2.187-2.188,2.43-4.617L14.497,81.266L14.497,81.266z"/>
	<path d="M35.393,106.293c0,0,0,1.457,1.215,1.699c0.486,0,0.972,0,0.972,0.973c-0.243,0.486-0.486,0.729-0.729,0.729
		c-1.215,0.244-2.43,0.244-3.645,0.244c-1.215,0.242-2.673,0.483-3.888,0.729c-0.243,0-0.486-0.244-0.486-0.729
		c0-0.974,0.486-0.974,0.729-1.217c1.701-0.484,1.701-1.943,1.701-1.943l1.701-20.652c0-2.43,0.243-2.673-1.215-2.916
		c-0.243,0-0.486-0.243-0.486-0.729c0-0.729,0.729-0.972,1.215-0.972c1.215-0.486,2.43-1.215,3.645-1.944
		c0.243-0.243,0.729-0.729,0.972-0.729c0.486,0,0.243,1.458,0.243,2.187L35.393,106.293L35.393,106.293z"/>
	<path d="M42.925,96.816c-0.729,0-0.972,0-0.972,1.215c-0.243,4.131,0.972,8.262,3.888,8.018c1.944-0.241,2.916-2.672,3.645-2.672
		c0.243-0.244,0.486,0,0.243,0.483c0,0.974-0.972,2.188-1.458,2.675c-1.458,1.457-2.916,2.43-4.616,2.672
		c-3.645,0.485-6.317-3.646-5.832-9.961c0.243-6.317,4.13-10.691,7.775-10.934c1.458-0.243,2.916,0.243,3.888,1.458
		c0.729,0.972,1.458,2.672,1.215,4.373c-0.243,1.701-0.729,1.945-1.701,1.945L42.925,96.816L42.925,96.816z M46.083,94.629
		c0.729-0.486,0.972-1.215,1.215-2.43c0-1.458-0.485-2.673-1.701-2.43c-0.729,0-1.458,0.729-2.187,1.701
		c-0.486,0.729-0.972,2.188-0.972,3.159c0,0.729,0.486,0.486,0.972,0.486C43.896,95.115,45.354,94.873,46.083,94.629L46.083,94.629z
		"/>
	<path d="M56.774,101.433c-0.243,0.973-0.243,2.674-0.243,3.401s0.972,0.729,1.458,0.729c0.243,0,0.486,0.244,0.486,0.729
		c0,0.729-0.486,0.972-0.972,0.972c-0.972,0.241-2.187,0.241-3.159,0.241c-1.215,0.244-2.187,0.486-3.402,0.486
		c-0.243,0-0.729,0-0.729-0.729c0.243-0.486,0.486-0.729,0.729-0.971c0.486,0,1.215-0.244,1.458-0.973
		c0.243-0.729,0.243-2.43,0.486-3.402l0.486-6.56c0-1.701,0.243-2.673-0.972-2.916c-0.486,0-0.729,0-0.729-0.729
		s0.972-0.972,1.214-1.215c1.215-0.486,2.673-1.701,3.645-3.159c0-0.486,0.486-0.972,0.972-0.972s0.243,0.972,0.243,1.458
		L56.774,101.433L56.774,101.433z M53.858,81.995c0.243-2.187,1.458-3.645,2.673-3.645c1.214-0.243,2.187,0.729,1.943,2.916
		c0,2.43-1.215,3.887-2.672,3.887C54.587,85.396,53.858,84.182,53.858,81.995L53.858,81.995z"/>
	<path d="M58.718,102.162c0.243-0.729,0.243-1.701,0.729-1.701c1.215-0.244,0.486,5.347,3.888,4.858
		c0.972,0,2.672-0.973,2.915-2.916c0-1.942-0.972-2.672-1.943-3.157c-1.944-0.729-5.103-1.943-4.859-6.075
		c0.486-4.374,3.401-7.046,5.831-7.289c0.972,0,2.43,0.243,3.645,0.486c0.486,0.243,0.729,0.486,0.486,1.701v0.972
		c-0.243,0.486-0.243,1.944-0.729,1.944c-0.486,0-0.729-0.486-0.729-0.972c-0.729-1.701-0.972-2.672-2.673-2.672
		c-0.729,0.243-2.187,0.972-2.187,2.672c-0.243,1.458,0.972,1.944,1.701,2.43l1.458,0.486c1.701,0.729,3.402,1.944,3.159,5.831
		c-0.243,2.431-0.972,4.373-2.429,6.074c-1.215,1.459-2.916,1.942-4.131,2.188c-1.215,0-2.672,0-3.645-0.974
		c-0.729-0.485-0.729-0.973-0.486-2.188v-1.698H58.718z"/>
	<path d="M78.642,86.125c-0.972,0-1.701,1.215-2.43,2.187c-0.729,1.458-1.215,3.645-1.458,5.588
		c-0.243,4.373,1.215,8.503,4.13,8.262c1.944-0.244,2.672-1.945,3.159-1.945c0.243,0,0.243,0.244,0.243,0.486
		c0,0.973-0.972,1.944-1.458,2.43c-1.215,1.459-2.673,2.188-4.131,2.188c-3.645,0.486-6.56-3.158-6.074-9.719
		c0.486-6.56,5.103-10.934,8.747-11.176c0.972-0.243,2.187,0,3.159,0.729c0.486,0.486,0.729,0.729,0.486,1.701
		c0,1.215-0.486,4.13-1.458,4.13c-0.729,0.243-0.972-1.215-1.214-2.187C79.856,87.583,79.613,85.882,78.642,86.125L78.642,86.125z"
		/>
	<path d="M98.079,96.816c-0.243,0.729-0.243,2.671-0.243,3.158c0.485,0.729,0.972,0.729,1.458,0.729
		c0.243,0,0.484,0.244,0.484,0.973c0,0.729-0.484,0.729-0.971,0.974c-1.216,0-2.431,0-3.646,0.242c-0.972,0-1.944,0.241-2.916,0.485
		c-0.243,0-0.486-0.244-0.486-0.729c0-0.729,0.243-0.973,0.486-0.973c0.486-0.244,0.972-0.486,1.215-0.973
		c0.486-0.971,0.486-2.43,0.486-3.4l0.486-6.318c0.243-2.673,0.485-5.588-1.701-5.346c-0.729,0.243-1.701,0.729-2.187,1.701
		c-0.729,0.729-0.729,1.458-0.729,2.43l-0.486,8.019c-0.243,0.729-0.486,2.428-0.243,3.158c0.243,0.484,0.486,0.729,0.729,0.971
		c0.486,0,0.972,0,0.972,0.73c-0.243,0.729-0.486,0.971-0.729,0.971c-0.486,0-0.972,0-1.701,0c-1.701,0.242-3.401,0.486-5.102,0.729
		c-0.243,0-0.729,0-0.729-0.729c0-0.486,0.486-0.971,0.729-0.971c0.486-0.244,0.972-0.244,1.215-0.974
		c0.486-0.973,0.486-2.43,0.729-3.401l1.215-18.223c0.243-2.43,0.486-2.916-0.972-3.159c-0.243,0-0.486,0-0.486-0.486
		c0-0.729,0.729-0.972,1.215-1.215c1.215-0.243,2.187-0.972,3.401-1.944c0.486-0.243,0.729-0.486,1.215-0.486
		c0.486-0.243,0.243,1.458,0.243,1.944l-0.972,10.447c0,0.243,0-0.486,0.243-0.486c0.243,0,2.187-1.943,4.374-2.187
		c1.215,0,2.673,0.486,3.402,1.944s0.485,3.645,0.485,5.588L98.079,96.816L98.079,96.816z"/>
	<path d="M106.826,82.238c0.485,0,1.942-1.215,4.373-1.458c1.215-0.243,2.187,0.243,2.915,1.701c0.242,0,0.242-0.486,0.486-0.486
		c0.242-0.243,2.187-1.943,4.131-2.187c1.215-0.243,2.43,0.243,3.4,1.458c0.973,1.458,0.973,3.401,0.729,5.588l-0.485,7.046
		c-0.243,0.972-0.485,2.672,0,3.402c0.242,0.486,0.729,0.486,1.215,0.729c0.243,0,0.485,0.241,0.485,0.729
		c0,0.729-0.485,0.974-0.973,0.974c-0.972,0-1.699,0.242-2.672,0.242c-1.216,0.241-2.431,0.241-3.646,0.485
		c-0.242,0-0.729,0-0.485-0.729c0-0.485,0.243-0.729,0.485-0.973c0.485-0.242,0.973-0.486,1.215-1.215
		c0.243-0.486,0.243-2.43,0.485-3.158l0.486-6.075c0-1.215,0.242-2.916,0-3.887c-0.242-1.215-0.973-1.944-1.701-1.701
		c-0.972,0-1.701,0.486-2.187,1.701c-0.243,0.486-0.243,1.701-0.243,2.43l-0.729,8.018c0,0.729-0.242,2.672,0,3.159
		c0.242,0.729,0.486,0.729,0.973,0.971c0.243,0,0.484,0.244,0.484,0.729c0,0.729-0.484,0.972-0.729,0.972
		c-1.215,0.244-2.43,0.244-3.4,0.244c-0.974,0.241-1.944,0.483-2.916,0.483c-0.243,0-0.485,0-0.485-0.729
		c0-0.486,0.242-0.971,0.729-0.971c0.242-0.244,0.729-0.486,0.972-0.974c0.485-0.729,0.485-2.43,0.485-3.401l0.485-6.561
		c0.243-2.429,0.243-5.345-1.7-5.345c-0.486,0.243-1.457,0.729-1.943,1.701c-0.485,0.972-0.485,2.187-0.485,3.402l-0.729,7.289
		c0,0.728-0.242,2.674,0,3.158c0.244,0.73,0.729,0.73,0.974,0.973c0.241,0,0.485,0.242,0.485,0.729c0,0.729-0.244,0.973-0.729,0.973
		c-1.215,0-2.187,0.242-3.401,0.242c-0.973,0.244-1.943,0.244-2.916,0.485c-0.242,0-0.729,0-0.729-0.729s0.484-0.973,0.729-0.973
		c0.486-0.242,0.973-0.242,1.215-0.971c0.485-0.974,0.485-2.431,0.485-3.402l0.486-6.56c0.243-1.944,0.485-2.916-0.729-2.916
		c-0.486,0-0.972,0-0.729-0.729c0-0.729,0.729-0.972,1.215-1.215c0.973-0.486,2.673-1.701,3.4-3.401
		c0.244-0.243,0.486-0.729,1.217-0.729c0.242-0.243,0.242,0.972,0.242,1.458L106.826,82.238L106.826,82.238z"/>
	<path d="M135.496,92.2c0,0.729-0.243,2.673,0.485,2.673c0.242,0,0.485-0.243,0.729-0.486c0-0.244,0.485-0.486,0.485-0.729
		c0.242,0,0.486,0.486,0.486,0.729c-0.244,0.486-0.729,1.214-0.973,1.701c-0.729,1.215-1.943,2.187-2.916,2.431
		c-0.973,0-1.457-0.486-1.943-1.945c0-0.242,0-0.971-0.242-0.971s-2.188,3.645-4.859,4.131c-1.458,0-2.673-1.459-2.43-4.131
		c0.242-1.944,0.729-3.159,1.701-4.373c0.972-0.972,3.645-4.131,4.615-4.617c0.971-0.486,0.729,0.486,1.215-0.486
		c0.243-0.243,0.486-0.243,0.486-0.486v-1.458c0.242-1.458,0.484-4.374-0.729-4.374c-0.973,0.243-1.7,1.701-2.188,2.916
		c-0.242,1.214-0.486,1.943-1.215,2.429c-0.729,0.486-1.701,1.215-2.188,1.215c-0.485,0-0.972-0.243-0.729-0.972
		c0-1.458,1.215-3.402,1.943-4.374c1.701-1.701,0.973-2.673,5.104-2.673c1.215,0,2.43,0,3.4,0.729
		c0.729,0.729,0.729,2.187,0.486,3.645L135.496,92.2L135.496,92.2z M132.095,89.77c0-0.243,0-1.944-0.242-1.701
		c-0.244,0-1.701,1.458-1.943,1.701c-0.973,0.972-1.701,1.944-1.701,3.645c-0.243,1.215,0.243,2.43,1.215,2.43
		c-0.729,0,2.916-3.888,1.944-1.944c0.241-0.486,0.485-1.215,0.485-1.944L132.095,89.77L132.095,89.77z"/>
	<path d="M144.485,78.35c0.486,0,1.943-1.701,4.617-1.943c0.972-0.243,2.187,0.243,3.157,1.215c0.972,1.458,0.729,3.401,0.486,5.588
		l-0.486,7.289c0,0.972-0.241,2.672,0,3.401c0.243,0.486,0.729,0.486,1.216,0.729c0.242,0,0.485,0.243,0.485,0.729
		c0,0.729-0.485,0.972-0.729,0.972c-0.972,0-1.942,0-2.914,0.242c-1.215,0-2.43,0.244-3.646,0.486c-0.243,0-0.485,0-0.485-0.729
		c0-0.486,0.242-0.972,0.485-0.972c0.486-0.243,0.972-0.486,1.216-1.215c0.485-0.729,0.485-2.429,0.485-3.158l0.485-6.56
		c0-1.215,0.242-2.916-0.244-3.645c-0.241-0.972-0.971-1.458-1.456-1.458c-0.729,0-1.701,0.729-2.188,1.458
		c-0.729,1.214-0.729,1.944-0.729,3.401l-0.729,7.289c0,0.729-0.243,2.672,0,3.159c0.242,0.729,0.729,0.729,0.972,0.972
		c0.242,0,0.485,0.243,0.485,0.729c0,0.729-0.243,0.973-0.729,0.973c-1.215,0.242-2.43,0.242-3.4,0.242
		c-0.972,0.244-1.943,0.486-2.916,0.486c-0.242,0-0.729,0-0.729-0.729c0-0.486,0.484-0.973,0.729-0.973
		c0.243-0.242,0.973-0.242,1.215-0.972c0.486-0.729,0.486-2.43,0.486-3.402l0.484-6.56c0.244-1.701,0.486-2.916-0.729-2.916
		c-0.486,0-0.973,0-0.729-0.729c0-0.729,0.729-0.972,0.973-1.215c1.215-0.486,2.915-1.701,3.645-3.402
		c0.243-0.243,0.485-0.729,0.973-0.729c0.484,0,0.484,0.972,0.242,1.458v0.489H144.485z"/>
	<path d="M171.94,69.361c0.244-1.458,0.486-3.159,1.701-3.402c0.729,0,1.215,0.972,0.973,2.43c0,0.729,0,1.458-0.243,2.187
		l-0.972,6.074c-0.243,0.729-0.243,1.944-0.973,1.944c-0.486,0-0.486-0.729-0.486-1.458V69.361L171.94,69.361z"/>
	<path d="M174.128,88.798c0-0.729,0-1.458,0.729-1.701c1.215,0,0.485,5.345,3.888,5.103c0.973-0.243,2.431-1.215,2.673-3.159
		c0.243-1.944-0.973-2.672-1.943-2.916c-1.942-0.972-5.103-1.944-4.615-6.317c0.242-4.374,3.4-6.803,5.83-7.046
		c0.973-0.243,2.431,0,3.401,0.243c0.729,0.243,0.729,0.486,0.729,1.701l-0.243,0.972c0,0.729,0,1.944-0.729,2.188
		c-0.242,0-0.484-0.729-0.729-0.972c-0.729-1.701-0.973-2.916-2.43-2.672c-0.973,0-2.188,0.729-2.431,2.429
		c0,1.701,1.216,2.187,1.701,2.43l1.457,0.486c1.944,0.729,3.646,2.187,3.401,5.831c-0.242,2.43-1.215,4.616-2.43,6.074
		s-2.916,2.187-4.373,2.187c-1.216,0.243-2.674,0-3.646-0.729c-0.485-0.486-0.485-1.215-0.485-2.187L174.128,88.798L174.128,88.798z
		"/>
	<path fill="#D32A46" d="M13.525,80.294c0.243-2.672,0.243-4.13-1.701-4.13c-0.972,0-1.458,0-1.458-0.729
		c0-0.972,0.486-0.972,0.972-0.972c0,0,0,0,0.972,0c1.215-0.243,3.159-0.243,7.532-0.729l0.486-0.243
		c4.374-0.486,6.56-0.729,7.775-0.972c0.972,0,1.215-0.243,1.215-0.243c0.729,0,0.729,0.243,0.486,0.972l-0.243,6.317
		c-0.243,0.243-0.243,1.215-0.729,1.215c-0.486,0.243-0.729-0.729-0.729-0.972c-0.729-3.159-1.215-5.102-7.532-4.374
		c-1.458,0.243-2.187,0.243-2.43,3.159l-0.486,8.018c-0.243,3.159-0.243,3.159,0.243,3.159c0.729,0.243,1.944,0,2.672,0
		c3.402-0.486,4.131-1.944,4.859-5.103c0.243-0.486,0.486-0.972,0.729-0.972c0.486,0,0.486,0.486,0.486,0.972
		c0,0.729-0.486,4.859-0.486,5.832c0,0.486-0.243,1.458-0.243,2.916v2.673c0,0.484,0,1.215-0.486,1.215
		c-0.486,0.242-0.729-0.486-0.729-0.729c0-0.242-0.243-1.943-0.243-2.186c-0.243-3.159-3.159-2.916-4.13-2.916
		c-3.159,0.486-3.159,0.486-3.402,3.159l-0.729,10.205c-0.243,2.43-0.243,4.131,1.701,4.131c1.215,0,1.701,0,1.701,0.729
		c0,0.974-0.729,0.974-0.972,0.974c-1.458,0.242-3.644,0.242-5.102,0.485c-1.458,0-3.645,0.484-5.103,0.729
		c-0.243,0-0.972,0.242-0.729-0.729c0-0.973,0.729-0.973,1.458-1.215c2.187-0.485,2.43-1.944,2.43-4.375L13.525,80.294
		L13.525,80.294z"/>
	<path fill="#D32A46" d="M34.421,105.076c0,0.243,0,1.7,1.458,1.7c0.243,0.244,0.729,0.244,0.729,0.974
		c-0.243,0.729-0.486,0.729-0.729,0.972c-1.214,0-2.43,0-3.645,0.243c-1.214,0.242-2.43,0.242-3.887,0.486
		c-0.243,0-0.486,0-0.486-0.729s0.486-0.972,0.729-0.972c1.701-0.485,1.701-1.942,1.701-2.188l1.701-20.409
		c0-2.429,0.243-2.916-1.215-3.159c-0.243,0-0.486,0-0.486-0.485c0-0.729,0.729-0.972,1.215-1.215
		c1.215-0.243,2.429-0.972,3.645-1.944c0.243-0.243,0.729-0.485,0.972-0.485c0.486-0.243,0.243,1.458,0.243,1.943L34.421,105.076
		L34.421,105.076z"/>
	<path fill="#D32A46" d="M41.953,95.601c-0.486,0.243-0.729,0-0.972,1.215c-0.243,4.373,1.215,8.26,3.888,8.018
		c1.944-0.242,3.159-2.672,3.645-2.672c0.243,0,0.486,0.241,0.486,0.729c-0.243,0.729-1.215,2.186-1.701,2.43
		c-1.458,1.701-2.916,2.672-4.373,2.672c-3.888,0.486-6.56-3.645-6.074-9.719c0.486-6.317,4.13-10.69,7.775-11.176
		c1.458,0,2.916,0.486,3.888,1.701c0.729,0.972,1.458,2.43,1.215,4.374c0,1.701-0.729,1.701-1.458,1.944L41.953,95.601
		L41.953,95.601z M45.111,93.415c0.729-0.243,0.972-1.215,1.215-2.187c0-1.701-0.486-2.673-1.458-2.673
		c-0.972,0.243-1.701,0.972-2.43,1.944c-0.243,0.729-0.729,1.943-0.972,2.916c0,0.729,0.486,0.729,0.972,0.729
		C43.168,93.9,44.382,93.9,45.111,93.415L45.111,93.415z"/>
	<path fill="#D32A46" d="M55.802,100.461c0,0.972-0.243,2.431-0.243,3.399c0.243,0.73,0.972,0.486,1.458,0.486
		c0.243,0.244,0.486,0.486,0.486,0.973c0,0.729-0.486,0.974-0.972,0.974c-0.972,0-2.187,0-3.159,0.242
		c-1.215,0-2.187,0.241-3.402,0.485c-0.243,0-0.729,0-0.729-0.729c0.243-0.73,0.486-0.973,0.729-0.973
		c0.486-0.244,1.215-0.244,1.458-0.973c0.243-0.972,0.486-2.431,0.486-3.646l0.486-6.316c0-1.944,0.243-2.916-0.972-2.916
		c-0.243,0-0.729,0-0.729-0.729c0-0.729,0.972-0.972,1.215-1.215c1.215-0.486,2.672-1.943,3.645-3.401
		c0.243-0.243,0.486-0.729,0.972-0.972c0.486,0,0.243,1.215,0.243,1.701L55.802,100.461L55.802,100.461z M52.886,80.78
		c0.243-1.944,1.458-3.402,2.673-3.646c1.215,0,2.187,0.972,1.944,3.159c0,2.187-1.215,3.645-2.43,3.888
		C53.615,84.182,52.886,82.967,52.886,80.78L52.886,80.78z"/>
	<path fill="#D32A46" d="M57.989,100.947c0-0.73,0-1.46,0.486-1.46c1.215-0.241,0.486,5.347,3.888,4.859
		c0.972-0.242,2.673-1.215,2.916-3.158c0-1.942-0.972-2.43-1.943-2.916c-1.944-0.729-5.103-1.942-4.86-6.073
		c0.486-4.374,3.645-7.046,5.832-7.289c0.972-0.243,2.673,0,3.645,0.243c0.729,0.243,0.729,0.486,0.486,1.701v0.972
		c0,0.729-0.243,2.187-0.729,2.187c-0.243,0-0.729-0.729-0.729-0.972c-0.729-1.701-0.972-2.916-2.673-2.672
		c-0.729,0-2.187,0.729-2.187,2.672c-0.243,1.458,0.972,1.944,1.701,2.187l1.458,0.486c1.701,0.972,3.402,2.187,3.159,5.831
		c0,2.431-0.972,4.617-2.43,6.074c-1.215,1.457-2.672,2.188-4.13,2.188c-1.215,0.241-2.673,0-3.645-0.73
		c-0.729-0.484-0.729-0.971-0.486-2.186L57.989,100.947L57.989,100.947z"/>
	<path fill="#D32A46" d="M77.669,84.911c-0.729,0.243-1.701,1.215-2.187,2.187c-0.972,1.458-1.458,3.645-1.701,5.588
		c-0.243,4.617,1.215,8.747,4.13,8.504c1.944-0.242,2.673-1.943,3.159-1.943c0.243-0.244,0.243,0.242,0.243,0.486
		c0,0.971-0.972,1.699-1.215,2.43c-1.458,1.215-2.916,1.943-4.13,2.186c-3.888,0.486-6.803-3.158-6.317-9.718
		c0.486-6.803,5.103-10.934,8.747-11.419c0.972,0,2.187,0.243,3.159,0.972c0.486,0.243,0.729,0.729,0.486,1.701
		c0,0.972-0.486,3.888-1.215,4.13c-0.972,0-1.215-1.458-1.458-2.429C78.884,86.369,78.642,84.911,77.669,84.911L77.669,84.911z"/>
	<path fill="#D32A46" d="M97.106,95.844c0,0.729-0.242,2.429,0,3.158s0.729,0.485,1.215,0.729c0.242,0,0.486,0.242,0.486,0.729
		c0,0.972-0.486,0.972-0.729,0.972c-1.458,0.243-2.673,0.243-3.888,0.243c-0.972,0.242-1.944,0.486-2.916,0.486
		c-0.243,0-0.486,0-0.486-0.729c0-0.484,0.243-0.729,0.486-0.972c0.486-0.244,0.972-0.244,1.215-0.729
		c0.486-0.973,0.486-2.674,0.486-3.645l0.486-6.318c0.243-2.673,0.486-5.345-1.701-5.103c-0.729,0-1.701,0.729-2.187,1.458
		c-0.729,0.972-0.729,1.458-0.729,2.43l-0.486,8.261c-0.243,0.486-0.243,2.186-0.243,2.917c0.243,0.483,0.486,0.971,0.729,0.971
		c0.486,0.244,0.972,0,0.972,0.973c-0.243,0.486-0.486,0.729-0.729,0.729c-0.486,0.244-0.972,0-1.458,0.244
		c-1.944,0.242-3.402,0.484-5.345,0.484c-0.243,0.244-0.729,0.244-0.729-0.484c0.243-0.729,0.486-0.973,0.729-1.217
		c0.485,0,0.972-0.242,1.458-0.729c0.486-0.971,0.486-2.672,0.486-3.4l1.215-18.223c0.243-2.43,0.486-2.916-0.972-3.159
		c-0.243,0-0.486,0-0.486-0.486c0-0.972,0.729-1.214,1.214-1.214c1.215-0.486,2.43-1.215,3.402-1.944
		c0.486-0.243,0.729-0.729,1.215-0.729s0.243,1.458,0.243,2.187L89.33,84.182c-0.243,0.243,0,0.486,0,0.486
		c0.486,0,2.187-2.916,4.373-3.158c1.215-0.243,2.673,0.485,3.401,1.943s0.729,3.645,0.485,5.588L97.106,95.844L97.106,95.844z"/>
	<path fill="#D32A46" d="M105.854,82.481c0.485,0,1.943-2.673,4.373-2.916c1.215,0,2.188,0.486,2.916,1.701
		c0.242,0.243,0.242,0.729,0.485,0.729s2.187-3.158,4.131-3.158c1.216-0.243,2.673,0,3.401,1.215
		c1.215,1.458,0.972,3.401,0.729,5.588l-0.484,7.046c0,1.215-0.243,2.916,0,3.645c0.242,0.486,0.729,0.486,1.214,0.486
		c0.243,0.243,0.485,0.243,0.485,0.973c0,0.729-0.485,0.729-0.972,0.971c-0.729,0-1.7,0-2.673,0.242
		c-1.215,0-2.43,0.244-3.645,0.486c-0.244,0-0.485-0.242-0.485-0.729c0-0.729,0.241-0.971,0.485-1.215
		c0.485,0,0.972-0.242,1.215-0.973c0.242-0.729,0.486-2.429,0.486-3.401l0.484-5.831c0-1.215,0.243-3.159,0-4.13
		c-0.242-1.215-0.973-1.701-1.7-1.701c-0.972,0.243-1.7,0.729-2.188,1.701c-0.241,0.729-0.241,1.701-0.241,2.429l-0.729,8.018
		c0,0.972-0.242,2.673,0,3.4c0.243,0.486,0.729,0.73,0.973,0.73c0.242,0.242,0.486,0.484,0.486,0.971
		c0,0.729-0.486,0.729-0.729,0.973c-1.215,0-2.187,0-3.402,0.242c-0.972,0-1.942,0.242-2.672,0.242
		c-0.485,0.244-0.729,0-0.729-0.484c0-0.729,0.244-0.973,0.729-1.215c0.243,0,0.729-0.244,0.972-0.729
		c0.486-0.973,0.486-2.674,0.486-3.646l0.485-6.56c0.243-2.43,0.243-5.346-1.458-5.103c-0.729,0-1.7,0.729-2.188,1.701
		c-0.486,0.972-0.486,2.187-0.486,3.159l-0.729,7.289c0,0.972-0.242,2.673,0,3.402c0.243,0.486,0.729,0.729,0.973,0.729
		c0.485,0.242,0.485,0.486,0.485,0.973c0,0.729-0.243,0.729-0.485,0.729c-1.215,0.242-2.431,0.242-3.646,0.486
		c-0.972,0-1.942,0.241-2.915,0.241c-0.243,0.242-0.729,0.242-0.729-0.485s0.485-0.972,0.729-1.216c0.484,0,0.973-0.241,1.215-0.729
		c0.485-0.971,0.485-2.672,0.485-3.645l0.729-6.317c0-1.943,0.241-2.916-0.973-3.159c-0.486,0-0.973,0.243-0.729-0.486
		c0-0.972,0.729-1.215,1.215-1.215c0.972-0.729,2.673-1.944,3.645-3.401c0-0.486,0.243-0.972,0.973-0.972
		c0.242,0,0.242,1.215,0.242,1.458L105.854,82.481L105.854,82.481z"/>
	<path fill="#D32A46" d="M134.524,91.228c0,0.486-0.243,2.672,0.484,2.672c0.243-0.243,0.486-0.243,0.729-0.729
		c0,0,0.486-0.486,0.729-0.486c0,0,0.243,0.243,0.243,0.486c0,0.729-0.486,1.458-0.973,1.944c-0.729,1.215-1.943,2.188-2.916,2.188
		c-0.971,0.242-1.456-0.486-1.7-1.944c-0.242,0-0.242-0.972-0.485-0.729c-0.242,0-2.187,3.645-4.859,3.889
		c-1.457,0.241-2.43-1.459-2.43-3.889c0.243-1.944,0.729-3.401,1.943-4.374c0.729-0.972,2.188-2.187,3.159-2.916
		c0.972-0.486,1.942-1.458,2.672-2.187c0-0.243,0.244-0.486,0.244-0.486V83.21c0.241-1.458,0.729-4.617-0.729-4.374
		c-0.972,0-1.701,1.458-2.187,2.916c-0.243,0.972-0.486,1.701-1.216,2.187c-0.485,0.729-1.7,1.215-2.187,1.215
		c-0.485,0.243-0.729,0-0.729-0.729c0-1.458,1.459-3.645,1.945-4.374c1.699-1.944,3.4-2.673,5.103-2.916
		c1.214,0,2.429,0,3.401,0.972c0.729,0.729,0.729,1.944,0.484,3.402L134.524,91.228L134.524,91.228z M131.122,88.798
		c0-0.243,0-1.943-0.242-1.943s-1.701,1.701-1.943,1.943c-0.973,0.972-1.701,1.944-1.701,3.402s0.244,2.673,1.216,2.43
		c0.729,0,1.7-0.729,1.942-1.944c0.244-0.486,0.486-1.215,0.486-1.944L131.122,88.798L131.122,88.798z"/>
	<path fill="#D32A46" d="M143.515,78.836c0.485-0.243,1.943-3.402,4.616-3.645c1.216,0,2.187,0.243,3.158,1.458
		c0.972,1.458,0.729,3.159,0.485,5.345l-0.485,7.29c0,1.215-0.243,2.672,0,3.645c0.243,0.486,0.729,0.486,1.215,0.486
		c0.243,0,0.486,0.243,0.486,0.972s-0.486,0.729-0.729,0.729c-0.972,0.243-1.943,0.243-2.914,0.243
		c-1.216,0.243-2.431,0.486-3.646,0.486c-0.243,0.244-0.486,0-0.486-0.729c0-0.486,0.243-0.729,0.729-0.972
		c0.242-0.243,0.729-0.243,0.973-0.972c0.484-0.729,0.484-2.43,0.484-3.401l0.486-6.317c0.243-1.215,0.243-2.916,0-3.887
		c-0.486-0.972-0.972-1.458-1.701-1.458c-0.729,0.243-1.457,0.729-2.187,1.701s-0.729,1.944-0.729,3.402l-0.729,7.046
		c0,0.972-0.243,2.673,0,3.401c0.243,0.486,0.729,0.729,0.973,0.729C144,94.629,144,94.873,144,95.358
		c0,0.729-0.243,0.729-0.485,0.972c-1.216,0-2.431,0-3.645,0.242c-0.973,0-1.944,0.244-2.916,0.485c-0.243,0-0.729,0-0.729-0.729
		c0-0.729,0.485-0.972,0.729-1.215c0.484,0,0.972-0.243,1.215-0.729c0.484-0.972,0.484-2.43,0.484-3.645l0.486-6.317
		c0.243-1.944,0.486-2.916-0.729-3.159c-0.486,0-0.973,0.243-0.729-0.486c0-0.972,0.729-0.972,1.215-1.215
		c0.973-0.729,2.672-1.944,3.4-3.402c0.243-0.243,0.486-0.729,1.217-0.972c0.241,0,0.241,1.215,0.241,1.701L143.515,78.836
		L143.515,78.836z"/>
	<path fill="#D32A46" d="M170.97,68.389c0.243-1.701,0.485-3.402,1.701-3.402c0.729,0,1.215,0.972,0.973,2.187
		c0,0.729,0,1.458-0.244,2.187l-0.971,6.074c-0.244,0.729-0.244,1.944-0.974,2.187c-0.485,0-0.485-0.972-0.485-1.701V68.389
		L170.97,68.389z"/>
	<path fill="#D32A46" d="M173.156,87.583c0-0.486,0.243-1.458,0.729-1.458c1.214-0.243,0.485,5.345,3.888,4.859
		c0.972,0,2.672-0.972,2.672-2.916c0.244-1.944-0.971-2.673-1.942-3.159c-1.701-0.729-4.858-1.944-4.616-6.074
		c0.242-4.374,3.401-7.046,5.831-7.289c0.972,0,2.431,0,3.401,0.486c0.729,0.243,0.729,0.243,0.729,1.458v1.215
		c-0.242,0.486-0.242,1.943-0.729,1.943c-0.485,0-0.729-0.486-0.973-0.972c-0.729-1.701-0.972-2.673-2.43-2.673
		c-0.973,0.243-2.188,0.729-2.43,2.673c0,1.458,1.215,1.944,1.943,2.187l1.215,0.729c1.943,0.729,3.645,1.944,3.4,5.832
		c-0.242,2.187-1.214,4.373-2.43,5.831c-1.215,1.701-2.915,2.187-4.373,2.43c-0.973,0-2.673,0-3.645-0.972
		c-0.486-0.486-0.486-0.972-0.486-2.187L173.156,87.583L173.156,87.583z"/>
	<path fill="#D32A46" d="M170.728,98.519h0.485c0.242,0,0.485,0,0.485,0.241c0,0.486-0.243,0.486-0.485,0.486h-0.485V98.519
		L170.728,98.519z M170.24,98.031v2.916h0.485v-1.216h0.486c0.484,0,0.484,0.242,0.484,0.484c0,0.486,0,0.486,0.244,0.73h0.485
		c-0.243-0.244-0.243-0.244-0.243-0.73c0-0.484,0-0.729-0.486-0.729l0,0c0.486-0.242,0.486-0.486,0.486-0.729
		c0-0.729-0.729-0.729-0.972-0.729h-0.971V98.031z M171.213,96.816c-1.458,0-2.43,1.215-2.43,2.671c0,1.216,0.972,2.431,2.43,2.431
		c1.216,0,2.431-1.215,2.431-2.431C173.644,98.031,172.429,96.816,171.213,96.816L171.213,96.816z M171.213,97.303
		c0.972,0,1.942,0.972,1.942,2.187c0,0.973-0.971,1.943-1.942,1.943c-1.215,0-1.944-0.972-1.944-1.943
		C169.269,98.272,169.998,97.303,171.213,97.303L171.213,97.303z"/>
	<path d="M90.061,137.635c-3.401,2.431-5.831,2.916-8.018-0.241c-2.187-2.916-0.243-5.104,1.701-7.289
		c2.43-2.674,5.831-5.59,11.176-9.963c9.478-7.775,17.251-12.636,19.681-9.232c2.916,3.889-3.645,9.477-13.605,17.98
		C96.621,132.533,92.977,135.69,90.061,137.635L90.061,137.635z"/>
	<path d="M81.8,137.147c0,0-3.645-3.157,1.215-9.719c2.916-3.887,5.832-6.561,10.69-9.475c4.374-2.674,10.205-7.533,11.42-9.963
		c0.972,1.459-1.215,8.018-4.616,12.877c-2.43,3.402-4.617,6.561-9.476,9.721c-4.617,2.914-7.532,5.83-9.233,6.316V137.147
		L81.8,137.147z"/>
	<path d="M90.547,140.063c4.13-0.971,7.289-2.672,10.935-6.073c3.4-3.4,9.231-6.804,11.662-6.804
		c-1.215-1.942-7.533-2.916-12.877-1.942c-3.401,0.729-6.804,1.7-10.935,5.103c-3.402,3.157-5.832,5.346-6.803,6.561
		c-0.243,0.242-3.159-0.729-4.859,0.971l1.215,1.945c2.187-2.188,3.887-1.459,3.887-1.459S84.715,141.278,90.547,140.063
		L90.547,140.063z"/>
	<path fill="#F6B327" d="M93.948,118.44c-5.588,4.615-8.747,7.287-11.177,9.961c-1.943,2.188-4.13,4.615-1.701,7.775
		c2.43,3.4,5.103,2.672,8.504,0.486c2.43-1.701,5.588-4.375,8.989-7.291l1.944-1.699c9.961-8.504,16.765-14.094,13.604-18.223
		c-0.484-0.73-1.213-1.215-2.187-1.459C108.771,107.75,103.183,110.908,93.948,118.44L93.948,118.44z M81.8,135.69
		c-2.187-2.674-0.486-4.616,1.458-6.803c2.43-2.674,5.588-5.346,11.177-9.719c5.587-4.617,13.606-10.691,17.494-10.205
		c0.729,0,1.215,0.242,1.7,0.973c0.243,0.484,0.485,0.972,0.485,1.699c0,3.402-5.831,8.504-14.092,15.551l-1.943,1.457
		c-3.402,3.16-6.561,5.59-8.99,7.289C85.444,138.363,83.5,138.363,81.8,135.69L81.8,135.69z"/>
	<path fill="#36A04D" d="M80.828,135.935c0,0-3.645-3.158,1.458-9.72c2.672-3.646,5.588-6.315,10.447-9.231
		c4.616-2.672,10.206-7.775,11.42-10.205c0.484,0.973-0.486,7.289-4.616,13.121c-2.188,3.401-4.617,6.315-9.477,9.719
		C85.688,132.533,82.529,135.205,80.828,135.935L80.828,135.935L80.828,135.935z"/>
	<path fill="#FFE822" d="M89.332,136.178c-3.402,2.431-5.832,2.916-8.018-0.243c-2.187-2.916-0.243-5.103,1.701-7.289
		c2.43-2.672,5.832-5.588,11.177-9.961c9.476-7.531,17.25-12.636,19.681-8.99c2.915,3.887-3.646,9.231-13.606,17.736
		C95.892,131.074,92.248,134.233,89.332,136.178L89.332,136.178z"/>
	<path fill="#FFE822" d="M86.659,125.485c0.243,0.242,0.972,0,1.215-0.241c0.486-0.244,0.486-0.729,0.243-0.974
		c-0.243-0.242-0.729-0.242-1.215,0C86.659,124.758,86.416,125.244,86.659,125.485L86.659,125.485z"/>
	<path fill="#FFE822" d="M87.874,124.271c0.243,0.242,0.972,0.242,1.215,0c0.486-0.485,0.486-0.971,0.243-1.215
		c-0.243-0.242-0.729-0.242-0.972,0.244C87.874,123.543,87.631,124.028,87.874,124.271L87.874,124.271z"/>
	<path fill="#FFE822" d="M89.332,123.301c0.243,0.242,0.729,0,1.215-0.243c0.243-0.242,0.486-0.729,0.243-0.974
		c-0.243-0.242-0.729-0.242-1.215,0C89.089,122.569,89.089,123.058,89.332,123.301L89.332,123.301z"/>
	<path fill="#FFE822" d="M90.547,122.084c0.243,0.244,0.729,0.244,1.215,0c0.243-0.483,0.486-0.972,0.243-1.215
		c-0.243-0.242-0.729,0-1.214,0.244C90.304,121.354,90.304,121.842,90.547,122.084L90.547,122.084z"/>
	<path fill="#FFE822" d="M91.762,121.112c0.243,0.242,0.729,0.242,1.215-0.243c0.486-0.242,0.486-0.729,0.243-0.972
		c-0.243-0.241-0.729-0.241-1.215,0.242C91.762,120.385,91.519,120.869,91.762,121.112L91.762,121.112z"/>
	<path fill="#FFE822" d="M93.219,119.897c0.243,0.242,0.729,0.242,0.972,0c0.486-0.485,0.486-0.729,0.243-0.973
		c-0.243-0.242-0.729-0.242-0.972,0C92.977,119.17,92.977,119.656,93.219,119.897L93.219,119.897z"/>
	<path fill="#FFE822" d="M94.435,118.926c0.243,0.244,0.729,0.244,0.972,0c0.486-0.483,0.486-0.729,0.243-0.971
		c-0.243-0.244-0.729-0.244-0.972,0C94.191,118.197,94.191,118.685,94.435,118.926L94.435,118.926z"/>
	<path fill="#FFE822" d="M95.649,117.955c0.243,0.242,0.486,0.242,0.972,0c0.243-0.244,0.485-0.729,0.243-0.974
		c-0.243-0.241-0.729-0.241-0.972,0.242C95.406,117.469,95.406,117.711,95.649,117.955L95.649,117.955z"/>
	<path fill="#FFE822" d="M96.621,116.981c0.243,0.242,0.729,0.242,0.972,0c0.486-0.241,0.486-0.729,0.243-0.973
		c0-0.242-0.485,0-0.972,0.244C96.621,116.496,96.621,116.981,96.621,116.981L96.621,116.981z"/>
	<path fill="#FFE822" d="M97.836,116.254c0.243,0,0.729,0,0.972-0.244c0.243-0.241,0.486-0.729,0.243-0.971
		c-0.243,0-0.729,0-0.972,0.242C97.836,115.524,97.593,116.01,97.836,116.254L97.836,116.254z"/>
	<path fill="#FFE822" d="M99.051,115.281c0.243,0.243,0.486,0.243,0.972,0c0.244-0.242,0.486-0.729,0.244-0.972
		c-0.244-0.244-0.729,0-0.973,0.242C99.051,114.797,98.808,115.039,99.051,115.281L99.051,115.281z"/>
	<path fill="#FFE822" d="M100.267,114.553c0,0.244,0.485,0.244,0.729,0c0.486-0.485,0.486-0.729,0.242-0.973
		c0-0.242-0.484,0-0.729,0.244C100.022,114.065,100.022,114.312,100.267,114.553L100.267,114.553z"/>
	<path fill="#FFE822" d="M82.771,129.617c0,0.241,0.486,0.241,0.729-0.244c0.486-0.242,0.486-0.483,0.243-0.729
		c0-0.242-0.486,0-0.729,0.244C82.529,129.131,82.529,129.373,82.771,129.617L82.771,129.617z"/>
	<path fill="#FFE822" d="M101.237,113.824c0.242,0.241,0.486,0,0.972-0.244c0.243-0.242,0.243-0.483,0.243-0.729
		c-0.243-0.242-0.729-0.242-0.973,0C101.237,113.097,100.994,113.58,101.237,113.824L101.237,113.824z"/>
	<path fill="#FFE822" d="M102.209,113.097c0.243,0.241,0.729,0,0.974-0.244c0.241-0.242,0.241-0.486,0.241-0.729
		c-0.241,0-0.729,0-0.972,0.242C102.209,112.608,102.209,112.853,102.209,113.097L102.209,113.097z"/>
	<path fill="#FFE822" d="M86.902,125.485c0.243,0,0,0.486-0.243,0.974c-0.486,0.242-0.972,0.242-1.215,0
		c-0.243-0.244,0-0.729,0.243-0.974C86.173,125.244,86.659,125.244,86.902,125.485L86.902,125.485z"/>
	<path fill="#FFE822" d="M85.688,126.459c0.243,0.242,0.243,0.729-0.243,0.972c-0.243,0.243-0.729,0.485-0.972,0.243
		c-0.243-0.243,0-0.729,0.243-0.973C85.201,126.459,85.688,126.215,85.688,126.459L85.688,126.459z"/>
	<path fill="#FFE822" d="M84.715,127.674c0.243,0.242,0.243,0.486-0.243,0.729c-0.243,0.486-0.729,0.486-0.972,0.242
		c-0.243-0.242-0.243-0.729,0.243-0.972C83.987,127.431,84.473,127.431,84.715,127.674L84.715,127.674z"/>
	<path fill="#FFE822" d="M104.153,111.881c0,0,0.242,0,0.484-0.244c0.243-0.241,0.486-0.483,0.243-0.483
		c-0.243-0.244-0.485-0.244-0.729,0C103.91,111.396,103.91,111.638,104.153,111.881L104.153,111.881z"/>
	<path fill="#FFE822" d="M103.183,112.365c0,0.243,0.484,0,0.729,0c0.242-0.242,0.242-0.484,0-0.729c0-0.242-0.243,0-0.486,0
		C103.183,111.881,102.938,112.123,103.183,112.365L103.183,112.365z"/>
	<path fill="#F6B327" d="M84.715,130.104c0.243,0.485,0.486,0.242,0.972,0c0.243-0.244,0.243-0.73,0-0.974
		c-0.243-0.241-0.486-0.241-0.972,0C84.473,129.617,84.473,129.858,84.715,130.104L84.715,130.104z"/>
	<path fill="#F6B327" d="M88.36,126.459c0.243,0.242,0.972,0.242,1.458,0c0.243-0.485,0.486-0.974,0-1.215
		c-0.243-0.486-0.729-0.486-1.215,0C88.117,125.485,88.117,126.215,88.36,126.459L88.36,126.459z"/>
	<path fill="#F6B327" d="M89.818,125.244c0.486,0.241,0.972,0.241,1.458-0.244c0.486-0.242,0.486-0.729,0.243-1.215
		c-0.486-0.242-0.972-0.242-1.458,0C89.575,124.271,89.575,124.758,89.818,125.244L89.818,125.244z"/>
	<path fill="#F6B327" d="M91.519,123.785c0.243,0.485,0.972,0.485,1.215,0c0.486-0.242,0.486-0.972,0.243-1.216
		c-0.243-0.241-0.972-0.241-1.215,0C91.276,123.058,91.276,123.543,91.519,123.785L91.519,123.785z"/>
	<path fill="#F6B327" d="M92.977,122.569c0.486,0.486,0.972,0.244,1.458,0c0.243-0.485,0.485-0.971,0.243-1.215
		c-0.486-0.241-0.972-0.241-1.458,0C92.733,121.842,92.733,122.328,92.977,122.569L92.977,122.569z"/>
	<path fill="#F6B327" d="M94.677,121.354c0.243,0.244,0.729,0.244,1.215,0c0.486-0.485,0.486-0.971,0.243-1.215
		c-0.243-0.483-0.972-0.242-1.458,0C94.435,120.385,94.191,121.112,94.677,121.354L94.677,121.354z"/>
	<path fill="#F6B327" d="M96.135,120.142c0.243,0.243,0.729,0.243,1.214,0c0.486-0.484,0.486-0.972,0.243-1.216
		c-0.243-0.241-0.972-0.241-1.215,0C95.892,119.412,95.892,119.897,96.135,120.142L96.135,120.142z"/>
	<path fill="#F6B327" d="M97.593,118.926c0.243,0.486,0.973,0.244,1.215,0c0.486-0.241,0.486-0.729,0.243-0.971
		c-0.243-0.486-0.972-0.486-1.215,0C97.351,118.197,97.351,118.685,97.593,118.926L97.593,118.926z"/>
	<path fill="#F6B327" d="M99.051,117.711c0.243,0.486,0.729,0.244,1.216,0c0.242-0.242,0.485-0.729,0-0.971
		c-0.244-0.486-0.729-0.244-0.973,0C98.808,116.981,98.808,117.469,99.051,117.711L99.051,117.711z"/>
	<path fill="#F6B327" d="M100.509,116.74c0.243,0.241,0.729,0.241,1.215,0c0.242-0.244,0.242-0.73,0-0.974
		c-0.242-0.485-0.729-0.242-0.972,0C100.267,116.01,100.267,116.496,100.509,116.74L100.509,116.74z"/>
	<path fill="#F6B327" d="M101.966,115.769c0.243,0.241,0.729,0.241,0.973,0c0.485-0.486,0.485-0.972,0.244-1.216
		c-0.244-0.241-0.729-0.241-1.217,0C101.724,115.039,101.724,115.524,101.966,115.769L101.966,115.769z"/>
	<path fill="#F6B327" d="M103.183,114.797c0.241,0.242,0.729,0.242,0.971-0.244c0.486-0.241,0.486-0.729,0.244-0.973
		c-0.244-0.242-0.729-0.242-0.974,0.244C102.938,114.065,102.938,114.553,103.183,114.797L103.183,114.797z"/>
	<path fill="#F6B327" d="M104.396,113.824c0.242,0.241,0.729,0.241,1.215-0.244c0.242-0.242,0.242-0.729,0-0.972
		c-0.242-0.243-0.729-0.243-0.973,0.242C104.396,113.097,104.153,113.58,104.396,113.824L104.396,113.824z"/>
	<path fill="#F6B327" d="M105.854,112.853c0,0.244,0.485,0.244,0.729,0c0.484-0.486,0.484-0.729,0.243-0.972
		c-0.243-0.244-0.729-0.244-0.974,0C105.61,112.123,105.61,112.608,105.854,112.853L105.854,112.853z"/>
	<path fill="#F6B327" d="M89.575,127.916c-0.243-0.242-0.243-0.972,0.243-1.215c0.486-0.486,0.972-0.486,1.215,0
		c0.243,0.243,0.243,0.973-0.243,1.215C90.304,128.401,89.818,128.401,89.575,127.916L89.575,127.916z"/>
	<path fill="#F6B327" d="M91.033,126.701c-0.243-0.486,0-0.974,0.486-1.457c0.243-0.244,0.972-0.244,1.215,0.241
		c0.243,0.242,0,0.974-0.243,1.216C92.004,127.188,91.276,126.944,91.033,126.701L91.033,126.701z"/>
	<path fill="#F6B327" d="M92.733,125.485c-0.243-0.485-0.243-0.973,0.243-1.457c0.486-0.243,0.972-0.243,1.215,0
		c0.243,0.484,0.243,0.972-0.243,1.457C93.462,125.729,92.977,125.729,92.733,125.485L92.733,125.485z"/>
	<path fill="#F6B327" d="M94.191,124.028c-0.243-0.243,0-0.729,0.243-1.215c0.485-0.244,0.972-0.244,1.458,0
		c0.243,0.486,0,0.972-0.486,1.457C95.163,124.515,94.435,124.515,94.191,124.028L94.191,124.028z"/>
	<path fill="#F6B327" d="M95.649,122.813c-0.243-0.244,0-0.973,0.486-1.215c0.243-0.244,0.972-0.244,1.214,0
		c0.243,0.484,0,0.971-0.242,1.215C96.621,123.301,96.135,123.301,95.649,122.813L95.649,122.813z"/>
	<path fill="#F6B327" d="M97.351,121.601c-0.244-0.244-0.244-0.73,0.242-1.216c0.243-0.243,0.973-0.243,1.215,0
		c0.243,0.484,0,0.972-0.486,1.216C98.079,122.084,97.593,122.084,97.351,121.601L97.351,121.601z"/>
	<path fill="#F6B327" d="M98.808,120.385c-0.242-0.243-0.242-0.729,0.243-0.973c0.243-0.486,0.972-0.486,1.216,0
		c0.242,0.244,0,0.729-0.486,0.973C99.537,120.869,99.051,120.869,98.808,120.385L98.808,120.385z"/>
	<path fill="#F6B327" d="M100.267,119.412c-0.244-0.486-0.244-0.972,0.242-1.215c0.243-0.242,0.729-0.242,0.973,0
		c0.242,0.243,0.242,0.729-0.244,1.215C100.994,119.656,100.267,119.656,100.267,119.412L100.267,119.412z"/>
	<path fill="#F6B327" d="M101.479,118.197c-0.242-0.242,0-0.729,0.244-1.216c0.484-0.241,0.971-0.241,1.215,0
		c0.242,0.486,0,0.974-0.244,1.216C102.209,118.44,101.724,118.44,101.479,118.197L101.479,118.197z"/>
	<path fill="#F6B327" d="M88.36,126.459c0.486,0.242,0.243,0.729,0,1.215c-0.486,0.242-0.972,0.242-1.214,0
		c-0.486-0.243-0.243-0.729,0-1.215C87.631,126.215,88.117,126.215,88.36,126.459L88.36,126.459z"/>
	<path fill="#F6B327" d="M87.146,127.916c0.243,0.244,0.243,0.729,0,0.974c-0.486,0.483-0.972,0.483-1.215,0.241
		c-0.486-0.485-0.243-0.971,0-1.215C86.416,127.674,86.902,127.674,87.146,127.916L87.146,127.916z"/>
	<path fill="#F6B327" d="M89.575,127.916c-0.243-0.242-0.729-0.242-1.215,0c-0.243,0.244-0.486,0.729-0.243,1.215
		c0.243,0.242,0.729,0.242,1.215,0C89.818,128.89,89.818,128.16,89.575,127.916L89.575,127.916z"/>
	<path fill="#F6B327" d="M88.117,129.131c-0.243-0.241-0.729-0.485-1.215,0c-0.243,0.242-0.486,0.729-0.243,1.216
		c0.243,0.243,0.729,0.243,1.215,0C88.36,129.858,88.36,129.373,88.117,129.131L88.117,129.131z"/>
	<path fill="#F6B327" d="M86.659,130.347c-0.243-0.486-0.729-0.486-0.972-0.242c-0.486,0.485-0.486,0.971-0.243,1.215
		c0.243,0.242,0.729,0.486,0.972,0C86.902,131.074,86.902,130.59,86.659,130.347L86.659,130.347z"/>
	<path fill="#F6B327" d="M85.201,131.317c0-0.243-0.486-0.243-0.972,0c-0.243,0.242-0.486,0.729-0.243,1.216
		c0.243,0.241,0.729,0.241,0.972,0C85.444,132.289,85.444,131.806,85.201,131.317L85.201,131.317z"/>
	<path fill="#F6B327" d="M102.938,116.981c-0.244-0.241-0.244-0.729,0.242-0.973c0.242-0.242,0.729-0.242,0.973,0
		c0.242,0.244,0.242,0.73-0.243,1.215C103.667,117.469,103.183,117.469,102.938,116.981L102.938,116.981z"/>
	<path fill="#F6B327" d="M104.153,116.01c-0.243-0.241,0-0.729,0.242-0.971c0.485-0.242,0.729-0.242,0.973,0
		c0.242,0.242,0.242,0.729-0.243,0.971C104.882,116.254,104.396,116.254,104.153,116.01L104.153,116.01z"/>
	<path fill="#F6B327" d="M105.368,115.039c-0.243-0.242,0-0.729,0.242-0.974c0.486-0.241,0.729-0.241,0.973,0
		c0.243,0.244,0.243,0.73-0.243,0.974C106.097,115.281,105.61,115.281,105.368,115.039L105.368,115.039z"/>
	<path fill="#F6B327" d="M106.583,114.065c-0.243-0.241,0-0.729,0.243-0.971c0.485-0.244,0.729-0.244,0.972,0
		c0.243,0.242,0.243,0.729-0.242,0.971C107.312,114.312,106.826,114.312,106.583,114.065L106.583,114.065z"/>
	<path fill="#F6B327" d="M107.798,113.097c-0.242-0.244,0-0.73,0.243-0.974c0.242-0.242,0.729-0.242,0.972,0
		c0.243,0.242,0,0.729-0.242,0.974C108.526,113.338,108.041,113.338,107.798,113.097L107.798,113.097z"/>
	<path fill="#F6B327" d="M109.013,112.123c-0.242-0.242,0-0.729,0.243-0.972c0.242-0.243,0.729-0.243,0.972,0
		c0,0.242,0,0.729-0.242,0.972C109.498,112.365,109.256,112.365,109.013,112.123L109.013,112.123z"/>
	<path fill="#F6B327" d="M107.067,111.881c0.244,0.242,0.486,0.242,0.729,0c0.243-0.244,0.243-0.485,0-0.729
		c0,0-0.485,0-0.485,0.242C107.067,111.396,106.826,111.638,107.067,111.881L107.067,111.881z"/>
	<path fill="#36A04D" d="M89.575,139.094c4.13-0.973,7.29-2.916,10.934-6.317c3.401-3.158,9.232-6.562,11.662-6.803
		c-1.215-1.701-7.531-2.673-12.634-1.701c-3.645,0.729-7.046,1.457-10.934,5.102c-3.645,3.16-6.074,5.104-7.046,6.561
		c-0.243,0.244-3.159-0.729-4.859,0.974l1.215,1.942c2.187-2.43,4.131-1.457,4.131-1.457S83.744,140.31,89.575,139.094
		L89.575,139.094z"/>
	<path d="M161.494,76.407c0.241,0,1.942-1.701,4.373-1.944c1.215-0.243,2.43,0.243,3.159,1.215c0.972,1.458,0.972,3.402,0.729,5.588
		l-0.486,7.289c-0.242,0.972-0.484,2.673,0,3.401c0.244,0.486,0.729,0.486,0.973,0.486c0.486,0.243,0.729,0.486,0.729,0.972
		c0,0.729-0.484,0.972-0.972,0.972c-0.972,0-1.701,0-2.673,0.243c-1.215,0-2.43,0.243-3.645,0.486c-0.244,0-0.729,0-0.486-0.729
		c0-0.486,0.242-0.972,0.486-0.972c0.485-0.243,0.971-0.486,1.215-1.215c0.242-0.729,0.242-2.43,0.485-3.159l0.485-6.56
		c0-1.215,0-2.916-0.243-3.888c-0.242-0.729-0.972-1.458-1.7-1.215c-0.729,0-1.458,0.729-1.943,1.458
		c-0.973,0.972-0.729,1.944-0.973,3.401l-0.484,7.289c0,0.729-0.244,2.673,0,3.159c0.242,0.729,0.484,0.729,0.972,0.972
		c0.241,0,0.485,0.243,0.485,0.729c0,0.729-0.485,0.972-0.729,0.972c-1.215,0.243-2.431,0.243-3.646,0.243
		c-0.972,0.243-1.701,0.487-2.672,0.487c-0.486,0-0.973,0-0.729-0.729c0-0.486,0.241-0.972,0.485-0.972
		c0.485-0.244,1.215-0.244,1.457-0.972c0.486-0.729,0.486-2.43,0.486-3.402l0.485-6.56c0.243-1.701,0.243-2.916-0.972-2.916
		c-0.244,0-0.729,0-0.729-0.729s0.972-0.972,1.215-1.215c1.216-0.486,2.673-1.701,3.646-3.401c0.242-0.243,0.484-0.729,0.972-0.729
		c0.485-0.243,0.243,0.972,0.243,1.458v0.487H161.494z"/>
	<path fill="#D32A46" d="M160.522,76.893c0.242-0.243,1.942-3.402,4.373-3.645c1.215,0,2.43,0.243,3.158,1.458
		c0.973,1.458,0.973,3.159,0.729,5.345l-0.486,7.289c-0.242,1.215-0.242,2.672,0,3.645c0.243,0.486,0.729,0.486,1.215,0.486
		c0.243,0,0.486,0.243,0.486,0.972s-0.486,0.729-0.973,0.729c-0.973,0.243-1.7,0.243-2.672,0.243
		c-1.215,0.243-2.431,0.486-3.646,0.486c-0.243,0.243-0.485,0-0.485-0.729c0-0.486,0.242-0.729,0.485-0.972
		c0.485-0.243,0.972-0.243,1.215-0.972s0.485-2.43,0.485-3.402l0.486-6.317c0-1.215,0-2.916-0.244-3.888
		c-0.242-0.972-0.971-1.458-1.7-1.458c-0.729,0.243-1.457,0.729-1.943,1.701c-0.729,0.972-0.729,1.943-0.972,3.401l-0.486,7.046
		c0,0.972-0.242,2.673,0,3.402c0.243,0.486,0.486,0.729,0.973,0.729c0.242,0.243,0.485,0.486,0.485,0.972
		c0,0.729-0.485,0.729-0.729,0.972c-1.215,0-2.43,0-3.645,0.243c-0.972,0-1.701,0.243-2.673,0.486c-0.485,0-0.972,0-0.729-0.729
		c0-0.729,0.244-0.972,0.729-1.215c0.243,0,0.972-0.243,1.215-0.729c0.486-0.972,0.486-2.43,0.486-3.645l0.485-6.317
		c0.242-1.944,0.242-2.916-0.973-3.159c-0.242,0-0.729,0.243-0.729-0.486c0.242-0.972,0.973-1.215,1.216-1.215
		c1.215-0.729,2.672-1.944,3.646-3.401c0.241-0.243,0.484-0.972,0.971-0.972s0.244,1.215,0.244,1.701v1.945H160.522z"/>
</g>
</svg>
