<?xml version="1.0" encoding="utf-8"?>
<!-- Generator: Adobe Illustrator 16.0.0, SVG Export Plug-In . SVG Version: 6.00 Build 0)  -->
<!DOCTYPE svg PUBLIC "-//W3C//DTD SVG 1.1//EN" "http://www.w3.org/Graphics/SVG/1.1/DTD/svg11.dtd">
<svg version="1.1" id="Layer_1" xmlns="http://www.w3.org/2000/svg" xmlns:xlink="http://www.w3.org/1999/xlink" x="0px" y="0px"
	 width="175.959px" height="47.21px" viewBox="8.399 72.773 175.959 47.21" enable-background="new 8.399 72.773 175.959 47.21"
	 xml:space="preserve">
<g>
	<path fill="#FFFFFF" d="M140.899,118.101L140.899,118.101L140.899,118.101L140.899,118.101L140.899,118.101z M103.841,117.501
		L103.841,117.501L103.841,117.501L103.841,117.501L103.841,117.501z M125.927,81.025L125.927,81.025L125.927,81.025L125.927,81.025
		L125.927,81.025z M55.616,79.37c-1.754,1.005-3.315,2.225-4.694,3.629c-2.389-4.083-6.58-6.016-10.626-6.016h-0.239l-0.239,0.013
		c-1.743,0.093-3.433,0.547-4.972,1.323c-1.839-0.735-3.948-1.1-6.402-1.1h-6.721c-4.216,0-7.572,1.34-9.976,3.984
		c-2.187,2.377-3.348,5.426-3.348,8.804v15.735c0,9.465,6.309,13.7,12.561,13.7c4.632,0,7.548-2.079,9.179-3.823
		c0.245-0.261,0.498-0.568,0.749-0.897c0.286,0.338,0.537,0.698,0.865,1.012c2.368,2.322,5.402,3.563,8.749,3.563h8.675
		c2.54,0,4.881-0.698,6.894-1.978c3.168,1.743,6.662,2.664,10.386,2.664c3.984,0,7.708-1.041,11.065-3.092
		c0.197-0.119,0.397-0.267,0.596-0.397c2.187,1.893,4.848,2.948,7.813,2.948h0.339l0.192-0.007c1.808-0.079,3.548-0.529,5.135-1.299
		c1.326,0.688,2.526,1.021,3.396,1.16l0.076,0.013l1.704,0.188l0.464-0.02l-0.116,0.002c1.981,0,3.928-0.509,5.71-1.432
		c1.708,0.896,3.626,1.394,5.57,1.394h0.306c2.208,0,4.292-0.569,6.142-1.642c1.795,1.047,3.797,1.632,5.914,1.678l0.163,0.002
		c2.698,0,5.151-0.799,7.244-2.279c1.761,1.231,3.404,1.778,4.388,1.985l0.096,0.021l2.082,0.301l0.605-0.03l-0.146,0.004
		c1.84,0,3.641-0.444,5.363-1.253c0.088,0.046,0.315,0.169,0.315,0.169c1.528,0.661,3.164,1.002,4.842,1.002
		c1.708,0,3.403-0.36,5.039-1.073l0.13-0.059c0.792-0.361,1.86-0.99,2.992-2.01c1.146,1.031,2.236,1.66,3.036,2.016
		c1.663,0.766,3.418,1.164,5.18,1.164c1.601,0,3.201-0.329,4.759-0.975c3.096-1.27,5.461-3.569,6.823-6.648
		c0.673-1.52,1.015-3.141,1.015-4.818c0-1.893-0.473-3.762-1.346-5.565l0.021-0.013l-8.028-17.071l-0.047-0.096
		c-1.342-2.683-3.457-4.78-6.116-6.067c-1.699-0.84-3.513-1.27-5.369-1.27c-1.465,0-2.923,0.275-4.334,0.817
		c-1.431,0.535-3.262,1.57-4.929,3.468c-0.224-0.255-0.448-0.516-0.653-0.716l-0.104-0.098c-2.384-2.232-5.362-3.4-8.63-3.4h-0.465
		l-0.228,0.011c-2.397,0.123-4.571,0.896-6.44,2.212c-1.996-1.447-4.293-2.277-6.701-2.329l-0.239-0.001
		c-2.222,0-4.326,0.57-6.212,1.654c-1.825-1.019-3.887-1.547-6.161-1.547c-3.507,0-6.036,1.223-7.772,2.587
		c-2.668-1.534-5.61-2.351-8.814-2.351h-5.417c-3.318,0-6.246,0.943-8.511,2.688c-0.278-0.186-0.557-0.382-0.835-0.545
		c-3.355-1.933-7.016-2.907-10.9-2.907C62.594,76.454,58.948,77.437,55.616,79.37L55.616,79.37z"/>
	<path fill="#17479E" d="M106.401,109.425c-0.012,0.037-0.028,0.098-0.028,0.098s0.01-0.045,0.01-0.048
		C106.388,109.458,106.397,109.442,106.401,109.425L106.401,109.425L106.401,109.425z M58.717,108.121
		c-0.006,0.049-0.012,0.101-0.012,0.101s0.006-0.062,0.007-0.074C58.714,108.138,58.717,108.13,58.717,108.121L58.717,108.121
		L58.717,108.121z M57.105,81.953c-2.897,1.657-5.222,3.963-6.906,6.857c-0.126,0.217-0.215,0.444-0.331,0.662
		c-0.583-6.94-5.379-9.508-9.572-9.508h-0.159l-0.157,0.009c-1.828,0.098-3.522,0.688-4.985,1.717
		c-1.691-0.98-3.826-1.489-6.551-1.489h-6.721c-3.34,0-5.954,1.011-7.769,3.008c-1.675,1.822-2.572,4.182-2.572,6.798v15.735
		c0,7.911,5.159,10.719,9.578,10.719c3.562,0,5.773-1.565,7-2.877c1.159-1.237,2.546-3.487,2.546-7.152v-0.016
		c0.14-0.027,0.287-0.045,0.421-0.076c0,0.013,0,0.32,0,0.32c0,2.728,1.003,5.114,2.886,6.918c1.821,1.785,4.129,2.736,6.688,2.736
		h8.675c2.438,0,4.644-0.786,6.377-2.271c0.119-0.104,0.207-0.227,0.319-0.334c0.379,0.254,0.74,0.523,1.142,0.752
		c2.852,1.674,6.048,2.541,9.441,2.541c3.428,0,6.627-0.895,9.512-2.654c0.881-0.534,1.689-1.152,2.461-1.809
		c0.264,0.367,0.531,0.691,0.792,0.967c1.791,1.929,4.105,2.955,6.709,2.955h0.274l0.127-0.006c1.984-0.084,3.786-0.707,5.312-1.779
		c1.344,0.996,2.719,1.5,3.823,1.679c0.012-0.002,1.082,0.117,1.082,0.117l0.33,0.036l0.24-0.008c1.793,0,3.563-0.524,5.123-1.516
		c0.214-0.133,0.396-0.303,0.598-0.451c0.386,0.309,0.791,0.588,1.226,0.822c1.315,0.719,2.819,1.105,4.336,1.105h0.305
		c2.363,0,4.449-0.816,6.145-2.295c1.652,1.439,3.694,2.281,5.976,2.33l0.128,0.002c2.611,0,4.953-0.963,6.775-2.783l0.088-0.088
		c0.102-0.105,0.205-0.262,0.31-0.379c1.767,1.912,3.678,2.731,5.047,3.021c0.001-0.003,1.274,0.183,1.274,0.183l0.43,0.063
		l0.314-0.017c1.494,0,2.965-0.357,4.371-1.063c0.346-0.169,0.67-0.372,0.987-0.587c0.468,0.298,0.953,0.576,1.481,0.802
		c1.16,0.503,2.414,0.767,3.682,0.767c1.295,0,2.591-0.277,3.85-0.826l0.102-0.043c0.986-0.451,2.177-1.289,3.288-2.6
		c0.88,0,0.967,0,1.851,0c1.105,1.316,2.301,2.148,3.317,2.6c1.295,0.596,2.627,0.908,3.971,0.908c1.205,0,2.423-0.252,3.613-0.748
		c2.374-0.972,4.196-2.738,5.241-5.1c0.502-1.138,0.76-2.354,0.76-3.611c0-1.51-0.376-3.017-1.122-4.479l0.084,0.169l-8.015-17.037
		l-0.033-0.065c-1.047-2.095-2.688-3.722-4.745-4.716c-1.302-0.643-2.669-0.973-4.072-0.973c-1.104,0-2.202,0.211-3.267,0.619
		c-1.607,0.602-3.838,1.978-5.432,5.142l-0.076,0.157c0,0-0.562,1.194-0.664,1.413c-0.521-2.179-1.6-3.674-2.557-4.605l-0.08-0.078
		c-1.804-1.686-4.078-2.578-6.574-2.578h-0.39l-0.151,0.008c-2.545,0.131-4.782,1.186-6.473,3.053
		c-0.039,0.043-0.08,0.109-0.119,0.154c-2.32-2.636-4.934-3.281-6.769-3.321l-0.199-0.002c-2.315,0-4.421,0.81-6.169,2.28
		c-1.314-1.113-3.287-2.173-6.178-2.173c-3.531,0-5.756,1.593-6.999,2.929l-0.048,0.053c-0.133,0.146-0.227,0.321-0.348,0.475
		c-0.346-0.279-0.682-0.566-1.057-0.819c-2.408-1.6-5.136-2.4-8.137-2.4h-5.417c-3.641,0-6.493,1.338-8.25,3.611
		c-0.815-0.686-1.668-1.33-2.605-1.879c-2.891-1.665-6.036-2.497-9.391-2.497C63.122,79.436,59.977,80.284,57.105,81.953
		L57.105,81.953z"/>
	<path fill="#FFFFFF" d="M21.723,86.165c-1.589,0-2.719,0.355-3.356,1.056c-0.688,0.75-1.021,1.66-1.021,2.787v15.736
		c0,4.26,2.062,4.754,3.614,4.754c1.158,0,2.023-0.324,2.643-0.988c0.624-0.664,0.939-1.7,0.939-3.077v-5.782h4.093
		c0.905,0,1.587-0.24,2.086-0.738c0.434-0.459,0.651-0.992,0.651-1.615c-0.021-0.713-0.273-1.271-0.769-1.764
		c-0.498-0.501-1.176-0.743-2.083-0.743h-3.979v-3.043h5.163c1.274,0,2.169-0.317,2.736-0.969c0.595-0.683,0.885-1.474,0.885-2.416
		c-0.049-1.083-0.409-1.881-1.1-2.415c-0.715-0.513-1.992-0.78-3.782-0.78L21.723,86.165L21.723,86.165L21.723,86.165z
		 M89.66,96.041v-3.367h1.503c2.238,0,2.573,1.225,2.573,1.956c0,0.613-0.251,2.038-2.573,2.038H89.66V96.041L89.66,96.041
		L89.66,96.041z M86.701,86.165c-2.883,0-4.226,1.173-4.226,3.69v16.109c0,1.562,0.365,2.727,1.082,3.459
		c0.662,0.728,1.433,1.072,2.373,1.072h0.147c1.052-0.045,1.908-0.387,2.59-1.047c0.659-0.639,0.994-1.654,0.994-3.019v-5.259
		l4.553,7.683c0.591,0.937,1.315,1.468,2.204,1.61c0.012,0.002,0.702,0.068,0.702,0.068c0.668,0,1.314-0.197,1.925-0.584
		c0.815-0.507,1.351-1.229,1.64-2.213c0.006-0.021,0.133-0.849,0.133-0.849c0-0.644-0.213-1.317-0.633-2.005l-2.356-3.775
		l0.341-0.352c1.331-1.371,2.145-2.953,2.423-4.698l0.105-1.467c0-1.18-0.236-2.327-0.706-3.413
		c-0.657-1.479-1.689-2.704-3.065-3.63c-1.381-0.917-3-1.384-4.806-1.384h-5.419V86.165L86.701,86.165z M37.894,87.013
		c-0.674,0.674-1.001,1.603-1.001,2.842v16.805c0,1.103,0.347,1.965,1.063,2.639c0.712,0.711,1.54,1.053,2.544,1.053h8.675
		c1.024,0,1.839-0.273,2.495-0.837c0.651-0.569,1.022-1.269,1.13-2.138c0.005-0.029,0.034-0.373,0.034-0.373
		c0-0.819-0.285-1.535-0.871-2.187c-0.675-0.757-1.631-1.123-2.929-1.123h-5.016V90.842c0-4.404-2.125-4.914-3.722-4.914
		C39.369,85.978,38.572,86.333,37.894,87.013L37.894,87.013L37.894,87.013z M106.073,86.957c-0.65,0.716-0.982,1.869-0.982,3.428
		v15.742c0,1.014,0.184,1.865,0.541,2.526c0.333,0.696,0.758,1.179,1.277,1.46c0.465,0.256,0.967,0.385,1.49,0.385h0.306
		c1.071,0,1.923-0.367,2.595-1.121c0.654-0.744,0.987-1.812,0.987-3.176V90.384c0-1.563-0.32-2.72-0.951-3.438
		c-0.632-0.68-1.497-1.018-2.631-1.018C107.576,85.929,106.715,86.267,106.073,86.957L106.073,86.957L106.073,86.957z
		 M151.976,101.337l1.855-4.269l2.312,5.142h-4.552L151.976,101.337L151.976,101.337L151.976,101.337z M152.653,86.084l-0.01,0.005
		c-0.881,0.324-1.627,1.083-2.218,2.252l-7.823,16.7c-0.311,0.678-0.469,1.326-0.469,1.918c0,0.403,0.075,0.799,0.227,1.176
		c0.371,0.951,1.025,1.611,1.998,2.023c0.449,0.195,0.906,0.293,1.354,0.293c0.473,0,0.965-0.111,1.469-0.33
		c0.945-0.433,1.711-1.356,2.26-2.744l0.156-0.395h8.61l0.153,0.407c0.52,1.405,1.265,2.325,2.212,2.729
		c0.532,0.252,1.021,0.371,1.517,0.371c0.418,0,0.863-0.099,1.325-0.291c0.978-0.4,1.653-1.056,2.075-2.006
		c0.168-0.382,0.251-0.771,0.251-1.199c0-0.56-0.16-1.154-0.476-1.771l-7.982-16.973c-0.467-0.937-1.135-1.605-2.031-2.032
		c-0.486-0.244-0.959-0.359-1.451-0.359C153.425,85.859,153.039,85.935,152.653,86.084L152.653,86.084L152.653,86.084z
		 M121.052,85.821c-1.007,0-1.849,0.342-2.574,1.045c-0.74,0.725-1.102,1.578-1.102,2.607v16.874c0,1.324,0.342,2.32,1.044,3.047
		c0.704,0.747,1.53,1.117,2.532,1.139c1.044,0,1.863-0.339,2.562-1.039c0.69-0.719,1.031-1.724,1.031-3.062v-7.36l7.616,9.802
		c0.668,0.863,1.421,1.389,2.239,1.562c0.022,0.005,0.789,0.101,0.789,0.101c0.557,0,1.127-0.144,1.697-0.43
		c0.547-0.27,0.984-0.717,1.34-1.374c0.321-0.662,0.49-1.472,0.49-2.382V89.932c0-1.342-0.35-2.334-1.068-3.033
		c-0.693-0.65-1.515-0.97-2.498-0.97h-0.236c-0.95,0.049-1.73,0.409-2.355,1.1c-0.637,0.702-0.945,1.625-0.945,2.826v7.053
		l-7.852-9.552c-0.801-1.015-1.662-1.514-2.643-1.535H121.052L121.052,85.821L121.052,85.821z M60.821,98.294
		c0-1.542,0.565-2.885,1.68-3.994c1.087-1.08,2.419-1.627,3.96-1.627c1.565,0,2.909,0.55,3.993,1.634
		c1.084,1.085,1.635,2.425,1.635,3.986c0,1.027-0.244,1.969-0.728,2.797c-0.49,0.855-1.161,1.537-1.987,2.021
		c-0.865,0.493-1.819,0.74-2.843,0.74c-1.538,0-2.879-0.549-3.986-1.635C61.4,101.137,60.821,99.816,60.821,98.294L60.821,98.294
		L60.821,98.294z M60.086,87.118l-0.004,0.002c-1.984,1.13-3.575,2.709-4.729,4.691c-1.164,2.003-1.754,4.16-1.754,6.407
		c0,2.293,0.574,4.449,1.706,6.408c1.119,1.963,2.687,3.526,4.662,4.651c1.99,1.167,4.171,1.759,6.488,1.759
		c2.316,0,4.469-0.601,6.401-1.781c1.936-1.17,3.481-2.764,4.594-4.736c1.108-1.986,1.67-4.154,1.67-6.447
		c0-2.299-0.562-4.444-1.668-6.379c-1.14-1.93-2.697-3.486-4.623-4.616c-1.931-1.111-4.077-1.677-6.375-1.677
		C64.181,85.401,62.039,85.979,60.086,87.118L60.086,87.118z"/>
	<path fill="#17479E" d="M174.049,80.494h1.751c0.835,0,1.404-0.123,1.709-0.369c0.305-0.245,0.457-0.572,0.457-0.977
		c0-0.26-0.074-0.494-0.222-0.7c-0.146-0.206-0.349-0.359-0.608-0.461c-0.262-0.102-0.742-0.152-1.447-0.152h-1.64V80.494
		L174.049,80.494L174.049,80.494z M172.646,85.407v-8.756h3.03c1.033,0,1.783,0.082,2.247,0.245
		c0.463,0.163,0.832,0.447,1.105,0.853c0.277,0.405,0.414,0.837,0.414,1.292c0,0.646-0.23,1.207-0.693,1.685
		c-0.463,0.477-1.076,0.746-1.842,0.803c0.311,0.127,0.56,0.281,0.748,0.459c0.354,0.341,0.789,0.915,1.303,1.721l1.077,1.698
		h-1.745l-0.785-1.368c-0.619-1.068-1.109-1.741-1.479-2.016c-0.26-0.201-0.642-0.306-1.143-0.311h-0.836v3.694L172.646,85.407
		L172.646,85.407L172.646,85.407z M176.217,74.103c-1.149,0-2.265,0.293-3.352,0.88c-1.087,0.586-1.937,1.425-2.55,2.516
		c-0.614,1.091-0.92,2.226-0.92,3.407c0,1.173,0.299,2.299,0.902,3.375c0.602,1.076,1.446,1.915,2.527,2.516
		c1.084,0.601,2.215,0.901,3.391,0.901s2.305-0.3,3.389-0.901s1.924-1.44,2.522-2.516c0.599-1.076,0.899-2.202,0.899-3.375
		c0-1.181-0.308-2.315-0.916-3.407c-0.609-1.091-1.461-1.93-2.551-2.516C178.472,74.397,177.356,74.103,176.217,74.103
		L176.217,74.103L176.217,74.103z M176.217,72.773c1.366,0,2.702,0.35,4.005,1.051c1.303,0.7,2.317,1.701,3.045,3.004
		c0.727,1.304,1.092,2.663,1.092,4.077c0,1.4-0.359,2.748-1.075,4.041c-0.718,1.292-1.72,2.296-3.013,3.01
		c-1.291,0.714-2.644,1.073-4.054,1.073c-1.409,0-2.763-0.359-4.055-1.073c-1.293-0.714-2.298-1.718-3.019-3.01
		c-0.721-1.293-1.08-2.64-1.08-4.041c0-1.414,0.365-2.773,1.097-4.077c0.731-1.303,1.747-2.305,3.051-3.004
		C173.513,73.123,174.849,72.773,176.217,72.773L176.217,72.773z"/>
</g>
</svg>
