<?xml version="1.0" encoding="utf-8"?>
<!-- Generator: Adobe Illustrator 16.0.0, SVG Export Plug-In . SVG Version: 6.00 Build 0)  -->
<!DOCTYPE svg PUBLIC "-//W3C//DTD SVG 1.1//EN" "http://www.w3.org/Graphics/SVG/1.1/DTD/svg11.dtd">
<svg version="1.1" id="Layer_1" xmlns="http://www.w3.org/2000/svg" xmlns:xlink="http://www.w3.org/1999/xlink" x="0px" y="0px"
	 width="149.657px" height="90.736px" viewBox="325.171 254.631 149.657 90.736"
	 enable-background="new 325.171 254.631 149.657 90.736" xml:space="preserve">
<g id="g2463" transform="matrix(1.7101739,0,0,1.7101739,-68.281611,-68.991499)">
	<g id="g12" transform="translate(46.7686,40.3418)">
		<path id="path14" fill="#FFFFFF" d="M207.288,168.731l-2.658,1.956l-0.849,1.476l-0.055,2.325l1.421,2.953l2.381,2.399
			l8.673,5.259l0.129,0.24l-0.719,2.123h20.041l0.056-0.886l0.903-0.277l10.076-6.016l3.321-3.396l-0.258-1.826l-2.417-3.414
			l-2.714-2.381l-0.774-0.941l-3.544-2.454l-4.263-1.975c-0.627-0.296-1.421-0.591-2.454-0.868l-1.032-0.443
			c0.387-0.295,0.608-0.683,0.626-1.163c0.019-0.295-0.037-0.608-0.239-0.96l0.516-0.775l-0.185-1.015l0.61-0.793l0.167-0.351
			l-0.352-1.015l-0.756-0.591c-0.018-0.59-0.148-1.31-0.443-2.177l0.498-1.255v-0.572c-0.203-1.07-0.442-1.716-0.719-1.919
			l-0.646-0.553l-1.421,0.036c-0.609-0.295-1.346-0.516-2.196-0.59l-1.236,0.129l-0.942,0.24l-1.44,0.148
			c-0.203,0-0.387,0.073-0.516,0.24l-0.775,0.609l-1.292,0.701l-0.184,0.314c-0.24,0.498-0.572,0.831-0.978,1.034l-0.259,0.332
			l-0.757,2.048l1.292,4.909l1.402,1.956l0.147,0.148l-0.996,0.83l-3.747,0.498l-0.369,0.092l-5.112,2.658L207.288,168.731z
			 M213.95,174.544l1.107-1.181l0.554-0.184l0.276,1.956l0.775,3.174l-0.037,0.959l-1.255-0.867l-1.181-1.273l-1.181-2.252
			L213.95,174.544z M237.22,179.73l-0.609,0.424l1.348-5.61l1.956,0.96l0.794,0.83L237.22,179.73z"/>
	</g>
	<g id="g16" transform="translate(48.8203,42.3936)">
		<path id="path18" fill="#161413" d="M207.727,167.768l0.461,0.701c-0.498,0.535-1.199,0.849-2.067,0.997l-0.24,0.314l-0.037,0.517
			l0.609,2.141l1.034,1.937c0.295,0.461,1.863,1.772,4.706,3.949l1.236,1.328l0.904,0.093c0.702-0.572,1.311-0.923,1.883-0.996
			l0.111-2.77l-0.628-4.133l0.203-7.105l0.628-0.867c-0.184,1.218-0.184,2.122-0.037,2.694v13.139l0.554,0.868l0.332-6.293
			c0.186-3.34,0.203-5.499,0.13-6.44l-0.13-1.569l0.203-1.162l0.941-1.237l-0.369,3.524l-0.59,14.137l-0.388,2.842h1.218
			l0.535-8.527c0.167-4.65,0.314-7.658,0.462-8.987c0.074-0.775,0.314-1.92,0.682-3.414l0.222-0.314l0.111,0.314l0.018,0.904
			l-0.609,14.93l-0.332,2.325l0.093,2.768h1.236l1.606-20.097l1.015-0.406l-1.348,20.503h1.809l1.292-20.097l0.535-0.702
			l0.554,0.572l-0.94,20.226h1.532l0.332-9.818l1.088,0.461l-0.24,9.357h1.569v-6.405l0.424-2.823c0.222,0,0.463-0.166,0.701-0.516
			l-0.571,9.744h1.014l1.052-16.204c0.056-1.643-0.185-3.248-0.701-4.798l0.83,0.72l0.59,4.595l-1.181,15.687h0.923l0.056-0.646
			l1.346-0.369c0.83-0.719,4.116-2.676,9.891-5.869l2.972-3.008l-0.24-1.107l-2.196-3.137l-2.712-2.344l-0.721-0.904l-3.303-2.307
			l-4.207-1.901c-0.719-0.35-1.717-0.701-3.026-1.07l-0.332-0.222l-1.421-0.517c-1.052-0.295-0.941-0.572,0.313-0.904
			c0.683-0.222,1.015-0.48,1.053-0.775c0-0.24-0.111-0.516-0.314-0.757l0.055-0.406l0.443-0.757
			c-0.129-0.443-0.184-0.886-0.184-1.31l0.589-0.314l0.185-0.388l-0.129-0.35l-0.886-0.738c0.018-0.48-0.018-1.034-0.22-1.624
			l-0.259-0.904c-0.037-0.222,0.167-0.757,0.59-1.643l-0.461-1.384l-0.369-0.332l-1.292,0.055c-0.407-0.35-1.07-0.553-2.067-0.646
			l-1.827,0.387l-1.55,0.129l-0.886,0.719l-1.163,0.628c-0.405,0.83-0.793,1.31-1.236,1.439l-0.59,1.606l1.237,4.521l1.107,1.568
			l0.553,0.517v0.96h-0.258l-1.402,1.107l-4.134,0.59l-5.038,2.584l-7.326,4.761l-0.646,1.107l-0.055,1.846l1.292,2.528l2.196,2.233
			c2.897,1.79,5.795,3.543,8.673,5.277l0.646,0.738l-0.461,1.329h1.606c0.24-0.61,0.351-1.237,0.332-1.883
			c0-0.499-0.129-0.959-0.425-1.421h-1.975l-1.236-0.59c-0.72-0.554-1.606-1.127-2.621-1.716c-0.959-0.554-1.938-1.237-2.934-1.956
			c-1.791-1.422-3.045-2.768-3.747-4.042l-0.24-0.978l0.055-1.126l0.313-0.609l1.236-1.181l2.067-1.162L207.727,167.768z
			 M209.831,168.543v-0.406l5.204-3.138l0.018,0.443l-4.337,3.193l-0.517,0.184L209.831,168.543z M209.166,166.753l-0.11-0.35
			l6.292-3.359l-0.313,0.59l-4.19,2.455L209.166,166.753z M215.109,167.897l-0.185,0.333l-3.432,2.011l-0.185,0.295l-0.184-0.295
			l0.111-0.332l3.026-2.381l0.775-0.074L215.109,167.897z M214.611,169.909c0.073,1.033,0.147,2.03,0.295,2.989l0.646,5.204
			l-0.499,0.129l-0.664,0.055c-1.015-0.849-1.957-1.79-2.824-2.841c-0.719-0.941-1.365-1.938-1.9-3.008l0.166-0.258
			c0.886-0.572,1.79-1.107,2.714-1.624c0.609-0.296,1.255-0.591,1.919-0.83L214.611,169.909z M238.952,168.727l-0.055,0.333
			l-0.646-0.13l-3.506-2.178h-0.554l-0.59-0.461l-0.185-0.719c0.592,0.184,1.144,0.424,1.662,0.719L238.952,168.727z
			 M239.857,167.694l-0.905-0.296l-3.746-2.602c-1.108-0.461-1.68-0.702-1.791-0.702l-0.073-0.535l1.181,0.166l5.61,3.783
			L239.857,167.694z M228.692,152.986l-0.185,0.24l-1.55,0.702l0.369,0.609l1.421,0.24l0.869-0.185l0.645,0.572l-0.553,0.406
			l-0.443,0.185l0.443,0.498v0.221l-0.721,0.148l-0.48,0.499l0.057,0.424l0.645-0.166l0.258-0.018l0.111,0.185l-0.461,0.221
			c-0.073,0-0.184,0.148-0.295,0.517h0.203l0.276,0.516c0.037,0.166-0.129,0.277-0.424,0.332l-2.067-0.387l-2.196,0.055
			l-0.849,0.517v0.369l1.126,0.923l-0.092,1.55c0,0.221-0.184,0.184-0.59-0.074l-2.159-1.347l0.037-1.311l0.276-0.055l0.573-2.564
			l-0.757-0.997l-0.092-1.163l0.388-0.424l0.775-0.129l0.959,0.831h0.517l0.221-0.997l2.067-1.292h1.422L228.692,152.986z
			 M223.967,164.649c0-0.148,0.092-0.24,0.277-0.24c0.166,0,0.24,0.092,0.24,0.24c0,0.203-0.074,0.277-0.24,0.277
			C224.059,164.926,223.967,164.852,223.967,164.649z M224.355,167.842c0,0.203-0.093,0.296-0.278,0.296
			c-0.184,0-0.295-0.092-0.295-0.296c0-0.184,0.111-0.258,0.295-0.258C224.263,167.583,224.355,167.657,224.355,167.842z
			 M227.916,164.206l0.185-0.055l0.719,1.495l0.056,1.034l-0.13,2.325h-1.181L227.916,164.206z M230.223,164.926l0.775-0.517
			l-0.128,4.651h-0.757L230.223,164.926z M237.734,170.111l0.278,0.499l-0.461,0.332l-2.381-1.218l-1.254-2.012L237.734,170.111z
			 M234.818,172.418l0.111-1.163c0.463,0.129,0.886,0.295,1.255,0.516c1.292,0.757,2.529,1.55,3.728,2.418
			c-1.365,1.422-2.787,2.731-4.336,3.931c-0.757,0.628-1.587,1.143-2.51,1.532l0.775-2.325L234.818,172.418z M233.73,171.2
			l-0.018-1.679c0-0.295,0.111-0.351,0.332-0.148c0.092,0.148,0.184,0.498,0.202,1.052l-0.331,3.118l-0.517,2.178L233.73,171.2z
			 M231.127,170.351v0.259h-3.561v-0.259H231.127z M231.127,169.576v0.333h-3.561v-0.333H231.127l1.938,12.235l0.019-1.624
			l1.753-0.203l6.255-5.703l-2.066-2.103l1.346-1.938l0.536,0.055l2.658,3.432l-0.147,0.702c-1.384,1.31-2.861,2.51-4.448,3.617
			c-1.92,1.366-3.857,2.639-5.906,3.765L231.127,169.576z"/>
	</g>
	<g id="g20" transform="translate(90.9561,56.7539)">
		<path id="path22" fill="#161413" d="M181.241,140.175l-0.83-0.018l-0.203,0.406l0.13,0.314l0.313-0.056l0.185,0.333l0.276,0.314
			l0.277-0.019l0.129-0.646L181.241,140.175z"/>
	</g>
	<g id="g24" transform="translate(56.6709,129.15)">
		<path id="path26" fill="#E52935" d="M202.921,101.625h-3.174v2.879h-1.292v2.842h1.292v4.115c0,0.405,0.166,0.793,0.461,1.088
			c0.351,0.296,0.72,0.443,1.144,0.443h3.396v-2.823h-1.107c-0.461,0-0.701-0.259-0.701-0.757v-2.067h1.217v-2.842h-1.217
			L202.921,101.625z"/>
	</g>
	<g id="g28" transform="translate(83.6572,127.494)">
		<path id="path30" fill="#E52935" d="M187.248,102.507h-3.156v10.611c0,1.034,0.499,1.532,1.551,1.532h4.706v-2.823h-2.362
			c-0.48,0-0.738-0.259-0.738-0.757L187.248,102.507L187.248,102.507z"/>
	</g>
	<g id="g32" transform="translate(177.438,134.832)">
		<path id="path34" fill="#E52935" d="M135.746,98.601c-1.052,0-1.568,0.498-1.568,1.55v7.16h3.174v-5.168
			c0-0.461,0.24-0.7,0.719-0.7h1.661V98.6h-3.986V98.601z"/>
	</g>
	<g id="g36" transform="translate(3.09375,127.533)">
		<path id="path38" fill="#E52935" d="M228.596,102.485c-0.443,0-0.812,0.167-1.163,0.463c-0.295,0.313-0.461,0.701-0.461,1.143
			v10.52h3.211v-4.318h1.698v-2.842h-1.698v-1.365c0-0.516,0.259-0.757,0.72-0.757h2.362v-2.842h-4.669V102.485z"/>
	</g>
	<g id="g40" transform="translate(15.2852,134.596)">
		<path id="path42" fill="#E52935" d="M228.104,100.017c-0.867-0.867-1.919-1.291-3.118-1.291c-1.273,0-2.307,0.424-3.174,1.291
			c-0.886,0.886-1.329,1.956-1.329,3.156c0,1.273,0.443,2.306,1.329,3.174c0.886,0.886,1.938,1.348,3.174,1.348
			c1.2,0,2.251-0.461,3.118-1.348c0.886-0.886,1.329-1.938,1.329-3.174C229.433,101.974,228.99,100.904,228.104,100.017z
			 M223.638,103.174c0-0.849,0.461-1.273,1.348-1.273c0.849,0,1.292,0.424,1.292,1.273c0,0.867-0.443,1.292-1.292,1.292
			C224.1,104.465,223.638,104.04,223.638,103.174z"/>
	</g>
	<g id="g44" transform="translate(36.2744,134.596)">
		<path id="path46" fill="#E52935" d="M216.933,100.017c-0.867-0.867-1.919-1.291-3.119-1.291c-1.255,0-2.306,0.424-3.174,1.291
			c-0.886,0.886-1.328,1.956-1.328,3.156c0,1.273,0.443,2.306,1.328,3.174c0.886,0.886,1.938,1.348,3.174,1.348
			c1.2,0,2.252-0.461,3.119-1.348c0.886-0.886,1.329-1.938,1.329-3.174C218.262,101.974,217.818,100.904,216.933,100.017z
			 M212.467,103.174c0-0.849,0.461-1.273,1.347-1.273c0.867,0,1.292,0.424,1.292,1.273c0,0.867-0.424,1.292-1.292,1.292
			C212.928,104.465,212.467,104.04,212.467,103.174z"/>
	</g>
	<g id="g48" transform="translate(98.5713,134.596)">
		<path id="path50" fill="#E52935" d="M183.775,100.017c-0.867-0.867-1.919-1.291-3.174-1.291c-1.237,0-2.27,0.424-3.156,1.291
			c-0.868,0.886-1.292,1.956-1.292,3.156c0,1.273,0.424,2.306,1.292,3.174c0.885,0.886,1.919,1.348,3.156,1.348
			c1.255,0,2.307-0.461,3.174-1.348c0.886-0.868,1.311-1.9,1.311-3.174C185.086,101.974,184.661,100.904,183.775,100.017z
			 M179.697,102.269c0.259-0.24,0.554-0.369,0.905-0.369c0.867,0,1.292,0.424,1.292,1.273c0,0.867-0.425,1.292-1.292,1.292
			c-0.867,0-1.273-0.425-1.273-1.292C179.328,102.86,179.457,102.564,179.697,102.269z"/>
	</g>
	<g id="g52" transform="translate(119.757,134.596)">
		<path id="path54" fill="#E52935" d="M166.208,100.017c-0.886,0.886-1.329,1.956-1.329,3.156c0,1.273,0.443,2.306,1.329,3.174
			c0.885,0.886,1.937,1.348,3.174,1.348c1.586,0,2.843-0.702,3.746-2.067l-2.694-1.735c-0.258,0.387-0.59,0.572-1.052,0.572
			c-0.886,0-1.348-0.425-1.348-1.292c0-0.849,0.461-1.273,1.348-1.273c0.461,0,0.794,0.203,1.052,0.609l2.694-1.718
			c-0.903-1.366-2.16-2.067-3.746-2.067C168.108,98.726,167.074,99.15,166.208,100.017z"/>
	</g>
	<g id="g56" transform="translate(186.669,149.902)">
		<path id="path58" fill="#E52935" d="M130.076,90.58c-0.534,0-0.812,0.277-0.812,0.831c0,0.572,0.278,0.83,0.812,0.83
			c0.572,0,0.831-0.258,0.831-0.83C130.908,90.857,130.649,90.58,130.076,90.58z M129.413,91.411c0-0.443,0.203-0.683,0.664-0.683
			c0.463,0,0.702,0.24,0.702,0.683c0,0.461-0.24,0.701-0.702,0.701C129.616,92.112,129.413,91.872,129.413,91.411z"/>
	</g>
	<g id="g60" transform="translate(187.735,150.731)">
		<path id="path62" fill="#E52935" d="M129.435,90.397c0-0.184-0.092-0.258-0.313-0.258h-0.424v0.906h0.129v-0.407h0.166
			l0.258,0.407h0.185l-0.295-0.407C129.343,90.637,129.435,90.563,129.435,90.397z M128.827,90.508v-0.24h0.24l0.24,0.074
			c0,0.111-0.111,0.166-0.314,0.166H128.827z"/>
	</g>
	<g id="g64" transform="translate(138.971,127.494)">
		<path id="path66" fill="#E52935" d="M157.863,108.466v-5.96h-3.211v12.142h3.211v-2.565l2.122,2.565h3.709l-3.764-4.521
			l2.99-3.653h-3.451L157.863,108.466z"/>
	</g>
	<g id="g68" transform="translate(156.33,134.358)">
		<path id="path70" fill="#E52935" d="M154.4,103.079c0-0.738-0.296-1.532-0.905-2.398c-0.775-1.07-1.846-1.661-3.248-1.735
			c-1.698-0.092-3.008,0.498-3.949,1.808c-0.59,0.812-0.886,1.698-0.886,2.658c0,1.273,0.461,2.306,1.348,3.174
			c0.886,0.886,1.938,1.348,3.174,1.348c1.034,0,1.956-0.295,2.732-0.923l1.07-1.144l-2.583-1.661l-0.313,0.369
			c-0.425,0.35-0.905,0.424-1.421,0.24l-0.646-0.499L154.4,103.079z M149.49,101.99c0.628-0.184,1.126-0.019,1.531,0.461
			l-2.491,0.572C148.698,102.526,149.011,102.193,149.49,101.99z"/>
	</g>
</g>
</svg>
