<?xml version="1.0" encoding="utf-8"?>
<!-- Generator: Adobe Illustrator 16.0.0, SVG Export Plug-In . SVG Version: 6.00 Build 0)  -->
<!DOCTYPE svg PUBLIC "-//W3C//DTD SVG 1.1//EN" "http://www.w3.org/Graphics/SVG/1.1/DTD/svg11.dtd">
<svg version="1.1" id="Layer_1" xmlns="http://www.w3.org/2000/svg" xmlns:xlink="http://www.w3.org/1999/xlink" x="0px" y="0px"
	 width="2015.422px" height="810.713px" viewBox="133.489 448.298 2015.422 810.713"
	 enable-background="new 133.489 448.298 2015.422 810.713" xml:space="preserve">
<g>
	<polygon fill="#FFFFFF" points="2145.387,451.438 2145.387,1255.449 136.702,1255.449 136.702,451.438 	"/>
	<path fill="#6B301E" d="M2126.902,448.298H155.498h-22.009v22.004v766.702v22.008h22.009h1971.404h22.009v-22.008V470.302v-22.004
		H2126.902L2126.902,448.298z M2104.898,492.316v722.677H177.508V492.316H2104.898L2104.898,492.316z"/>
	<path fill="#FFFFFF" d="M2126.902,454.893H155.498h-15.409v15.409v766.702v15.408h15.409h1971.404h15.408v-15.408V470.302v-15.409
		H2126.902L2126.902,454.893z M2111.498,485.715v735.884H170.907V485.715H2111.498L2111.498,485.715z"/>
	<polygon fill="#FFDB00" points="2126.902,1237.003 2126.902,470.302 155.498,470.302 155.498,1237.003 	"/>
	<path fill="#6B301E" d="M2126.902,464.795H155.498h-5.495v5.507v766.702v5.506h5.495h1971.404h5.506v-5.506V470.302v-5.507
		H2126.902L2126.902,464.795z M2121.396,475.803v755.699H160.994V475.803H2121.396L2121.396,475.803z"/>
	<polygon fill="#6B301E" stroke="#FFDB00" stroke-width="0.6599" stroke-miterlimit="2.6131" points="843.099,1152.775 
		843.099,562.465 266.659,562.465 266.659,1152.775 	"/>
	<polygon fill="#6B301E" points="843.099,1152.775 843.099,562.465 266.659,562.465 266.659,1152.775 	"/>
	<path fill="#6B301E" stroke="#FFDB00" stroke-width="3.7502" stroke-miterlimit="2.6131" d="M712.65,667.01l4.812-3.086
		c-4.618,2.531-9.744-3.387-13.121,1.881c-1.801,1.961-2.166,4.355-4.27,6.21C704.47,668.109,712.042,674.371,712.65,667.01
		L712.65,667.01z"/>
	<path fill="#6B301E" d="M1286.585,1117.978c0.401,10.066-0.407,22.527,13.681,22.527c3.208,0,6.838-1.199,10.052-2.41l2.812,7.244
		c-9.654,13.684-27.753,24.139-44.657,24.139c-16.895,0-31.384-9.258-39.822-24.139c-20.534,16.092-41.45,24.139-68.003,24.139
		c-32.991,0-59.133-15.291-59.133-50.699c0-56.326,84.476-71.609,127.136-78.451v-10.865c0-19.314,1.602-50.285-26.56-50.285
		c-19.716,0-24.54,14.881-30.174,30.172c-4.835,13.672-14.083,28.562-29.775,28.562c-12.873,0-25.345-9.654-25.345-23.34
		c0-19.713,23.731-48.682,92.138-48.682c17.702,0,44.657,3.219,59.143,14.889c18.104,14.891,18.511,32.994,18.511,51.498v85.701
		H1286.585z M1228.646,1058.029c-32.191,3.625-66.793,16.902-66.793,55.125c0,18.104,9.248,32.186,28.166,32.186
		c14.891,0,29.364-11.26,38.628-22.129L1228.646,1058.029L1228.646,1058.029z"/>
	<path fill="#6B301E" d="M1585.804,1126.021c0,23.742,13.683,26.162,25.74,26.162v12.471h-110.231v-12.471
		c14.476,0,26.556-1.611,26.556-32.994v-81.68c-0.402-21.328-5.242-35.807-28.572-38.619v-12.48l86.509-24.541v38.223
		c18.907-16.895,41.836-34.201,68.386-34.201c23.351,0,41.054,14.889,52.318,34.201c19.718-16.494,41.44-34.201,67.988-34.201
		c35.812,0,59.147,28.568,59.147,69.611v90.52c0,23.742,13.681,26.162,25.75,26.162v12.473h-110.235v-12.473
		c14.474,0,26.549-1.609,26.549-32.994v-82.891c0-25.738-13.671-36.207-28.964-36.207c-13.279,0-28.171,10.869-37.027,20.115
		v105.814c0,23.742,13.683,26.162,25.762,26.162v12.471h-110.252v-12.471c14.489,0,26.554-1.611,26.554-32.994v-82.891
		c0-17.295-4.423-36.209-25.745-36.209c-14.088,0-30.971,10.469-40.229,20.117v105.814H1585.804z"/>
	<path fill="#6B301E" d="M1110.469,750.671c0-69.608,59.143-104.606,108.641-104.606c65.975,0,98.172,51.505,98.172,96.156
		c0,61.562-41.455,107.433-103.815,107.433C1157.542,849.652,1110.469,807.806,1110.469,750.671L1110.469,750.671z
		 M1168.406,749.467c0,29.775,6.437,84.49,46.27,84.49c39.024,0,44.669-55.924,44.669-84.49c0-29.371-3.233-87.709-43.864-87.709
		C1175.244,661.758,1168.406,719.695,1168.406,749.467L1168.406,749.467z"/>
	<path fill="#6B301E" d="M1502.708,707.625l-15.684,5.623c-18.907-22.929-47.882-51.49-79.678-51.49
		c-14.474,0-30.967,8.846-30.967,24.941c0,24.535,40.226,26.961,57.531,29.771c36.218,6.034,78.055,18.917,78.055,63.575
		c0,22.125-9.259,41.439-24.145,53.91c-17.296,14.483-39.822,19.716-74.831,14.483c-8.055-1.204-15.689-4.025-23.737-4.025
		c-12.873,0-25.745,2.415-37.012,8.048l-20.117-69.604l14.475-4.429c21.339,26.966,51.5,56.331,88.121,56.331
		c14.483,0,31.384-7.239,31.384-24.145c0-23.729-27.77-30.173-46.274-34.194c-36.61-7.646-83.281-18.907-83.281-65.188
		c0-37.818,31.785-65.171,68.39-65.171c16.51,0,35.808,8.048,48.3,8.048c10.458,0,21.307-5.236,29.762-12.069L1502.708,707.625
		L1502.708,707.625z"/>
	<path fill="#6B301E" d="M1515.834,668.193v-18.917c51.491-4.825,59.539-33.8,71.619-70.403h15.282v70.403h55.924v18.917h-56.732
		v123.521c0,14.881,5.241,28.963,25.755,28.963c10.859,0,22.533-7.646,30.979-14.483l9.258,8.856
		c-15.293,19.71-42.645,34.603-67.195,34.603c-43.046,0-56.731-33.002-56.731-55.925V668.193H1515.834L1515.834,668.193z"/>
	<path fill="#6B301E" d="M1720.85,747.057c0,37.412,26.146,78.451,68.4,78.451c22.924,0,43.86-13.279,59.143-29.37l9.654,8.444
		c-24.937,29.375-51.908,45.07-91.334,45.07c-55.521,0-103.811-37.424-103.811-96.16c0-26.151,9.264-52.303,26.151-72.828
		c18.923-22.934,44.662-34.601,74.439-34.601c55.924,0,94.146,44.256,92.946,100.992L1720.85,747.057L1720.85,747.057z
		 M1804.934,729.75c0-39.431-7.635-66.392-39.432-66.392c-34.586,0-45.064,40.245-45.455,66.392H1804.934L1804.934,729.75z"/>
	<path fill="#6B301E" d="M1403.226,1126.021c1.21,22.143,11.262,26.162,28.572,26.162v12.471h-114.664v-12.471
		c18.104,0,28.154-2.42,28.154-32.994v-80.477c0-21.316-5.226-35.811-28.571-38.623v-12.469l86.51-24.541v46.27
		c14.088-17.709,37.418-47.479,61.97-47.479c16.085,0,27.351,16.096,27.351,31.383c0,14.084-10.864,26.555-25.338,26.555
		c-12.48,0-25.761-10.057-34.605-10.057c-9.26,0-24.553,18.902-29.377,26.549L1403.226,1126.021L1403.226,1126.021z"/>
	<path fill="#6B301E" d="M1945.381,806.193c1.188,22.131,11.256,26.151,28.562,26.151v12.472h-114.682v-12.472
		c18.104,0,28.171-2.409,28.171-32.983v-80.477c0-21.316-5.226-35.802-28.571-38.622v-12.481l86.521-24.541v46.28
		c14.072-17.709,37.407-47.479,61.958-47.479c16.091,0,27.352,16.092,27.352,31.374c0,14.082-10.857,26.562-25.338,26.562
		c-12.48,0-25.761-10.061-34.606-10.061c-9.253,0-24.551,18.907-29.364,26.554v89.723H1945.381z"/>
	<path fill="#6B301E" d="M2024.677,1027.453l-15.679,5.635c-18.928-22.939-47.881-51.502-79.677-51.502
		c-14.475,0-30.981,8.846-30.981,24.953c0,24.539,40.24,26.949,57.535,29.76c36.208,6.035,78.055,18.918,78.055,63.576
		c0,22.125-9.252,41.439-24.144,53.91c-17.285,14.49-39.823,19.717-74.821,14.49c-8.053-1.211-15.693-4.031-23.747-4.031
		c-12.878,0-25.745,2.424-37.012,8.059l-20.117-69.605l14.484-4.434c21.327,26.961,51.49,56.338,88.121,56.338
		c14.474,0,31.373-7.252,31.373-24.146c0-23.738-27.759-30.184-46.265-34.195c-36.615-7.654-83.291-18.916-83.291-65.182
		c0-37.826,31.784-65.188,68.399-65.188c16.497,0,35.808,8.049,48.288,8.049c10.458,0,21.316-5.232,29.761-12.07L2024.677,1027.453
		L2024.677,1027.453z"/>
	<path fill="#6B301E" d="M1005.47,1004.433h19.314c34.2,0,42.866-13.674,51.712-47.479h15.695v116.684h-15.695
		c-4.021-35.807-17.512-50.291-48.087-50.291h-22.939v90.525c0,28.172,10.458,37.018,39.433,37.018v13.285H900.455v-13.285
		c28.963,0,39.03-8.846,39.03-37.018v-193.93c0-28.164-10.066-37.012-39.03-37.012v-13.277h231.823l22.924,78.861l-13.683,5.227
		c-24.133-37.021-57.994-68.395-103.862-68.395c-29.772,0-32.188,6.432-32.188,33.387V1004.433L1005.47,1004.433z"/>
	<path fill="#6B301E" d="M1004.307,684.67h19.314c34.201,0,42.872-13.682,51.718-47.479h15.694v116.674h-15.694
		c-4.032-35.808-17.518-50.291-48.087-50.291h-22.945v90.535c0,28.161,10.469,37.012,39.433,37.012v13.279H899.298V831.12
		c28.969,0,39.035-8.851,39.035-37.012V600.169c0-28.161-10.066-37.013-39.035-37.013v-13.278h231.822l22.923,78.863l-13.67,5.226
		c-24.145-37.012-58.018-68.395-103.874-68.395c-29.783,0-32.192,6.436-32.192,33.387V684.67L1004.307,684.67z"/>
	<path fill="#6B301E" d="M858.08,1165.146V550.105v-2.621h-2.626H254.299h-2.626v2.621v615.041v2.621h2.626h601.155h2.626V1165.146
		L858.08,1165.146z M256.92,1165.146V550.105l-2.622,2.62h601.155l-2.621-2.62v615.041l2.621-2.621H254.299L256.92,1165.146
		L256.92,1165.146z"/>
	<polygon fill="#6B301E" points="843.099,1152.775 843.099,562.465 266.659,562.465 266.659,1152.775 	"/>
	<path fill="#ED1C24" d="M379.817,946.324c1.67-9.096,4.296-18.787,12.556-28.107c36.726-40.553,83.138-43.904,123.437-65.436
		c-17.575-7.184-31.209-23.922-38.738-41.145l-27.526-64.833c-7.171-14.357-19.013-29.904-32.769-42.228
		c-50.968-41.394-102.722-49.281-149.735-49.044l-0.439-0.36v42.232c30.94,0.588,59.38,5.977,88.449,31.573l0.84,1.792
		c-11.239-4.059-20.571-8.011-31.579-11.478c-19.979-5.391-37.418-7.419-57.71-7.785v57.066
		c20.182,5.264,34.38,10.521,50.883,24.758c4.908,4.068,11.371,9.812,12.571,14.953c-20.461-13.633-42.681-22.008-63.455-23.562
		v183.128c11.087-6.453,20.382-11.479,29.957-14.59c5.866-1.078,12.445-3.711,18.665-2.4c-2.997,1.914-6.821,3.352-10.051,5.514
		c-13.639,8.492-27.008,18.531-38.571,32.414v69.494l14.4-11.488c8.375-4.188,14.003-8.963,22.131-9.449
		c-4.898,15.557-5.38,31.705-1.194,47.014c7.303-7.418,15.546-15.43,24.17-22.01l1.072,0.238l4.068,20.938l1.676,1.791
		c4.671-5.623,8.607-12.799,14.711-16.387c0.598,9.691,0.481,21.768,4.312,30.385l23.558-20.096l2.277-0.598l0.231,19.256
		l1.442,1.438l15.779-11.48l1.205,0.357c0.957,5.617,1.792,12.316,4.307,17.697c6.077-7.551,12.513-13.395,19.958-15.367
		l-0.465-0.062c3.233-6.33,11.487-13.871,17.47-19.012l0.956-8.254c0.238-6.1,0.946-13.164-0.956-17.588
		c-6.579,12.322-22.131,24.873-34.935,27.033l-0.603-1.439c-0.111-15.664,4.312-32.293,7.43-45.93
		c-6.463,3.469-13.284,11.367-20.345,15.791c0.597-16.982,11.849-35.77,21.534-50c-6.579,0.238-13.517,5.5-20.938,7.178
		c3.234-8.854,8.613-17.344,15.796-25.482l-6.7,2.029c-6.104,2.395-10.294,6.109-16.868,8.619
		c5.618-18.305,21.058-33.979,35.056-45.938l-11.487,1.439C397.277,940.226,388.421,944.648,379.817,946.324L379.817,946.324z"/>
	<path fill="#ED1C24" d="M740.34,652.161l-4.307-2.864c-1.791-13.755-3.699-31.822-19.494-39.834
		c-9.21-4.185-19.743-4.422-29.312,0.836l5.982,4.898c1.918,1.438,2.51,4.908,0,6.347c-10.278,4.538-21.766-7.541-31.812-2.632
		l3.112,2.632c1.195,1.675,0.592,4.903-1.686,6.214c-5.025,2.04-10.521-0.834-15.784-2.51c-4.55-0.477-8.735-2.389-14.114,0
		c2.991,2.033,4.788,4.666,4.069,7.777c-0.486,3.106-3.351,7.062-7.773,6.822c-12.08-3.111-23.567-11.726-34.1-8.613l4.788,4.897
		c2.632,4.188,1.918,11.009-3.704,14.121c-10.771,2.394-22.374-8.377-30.147-18.189c2.759,14.718,11.721,28.234,23.33,39.959
		c25.35,22.249,51.073,26.435,77.505,15.194l0.829-0.148c6.263-4.941,12.515-9.977,18.913-14.807c0,0,24.034-21.29,52.997-20.091
		L740.34,652.161L740.34,652.161z"/>
	<path fill="#ED1C24" d="M738.67,814.506l0.835-2.869c-1.321-33.497-8.729-65.911-24.768-94.146l-14.822-22.954
		c-0.597-3.831-2.156-6.584,1.67-8.62c7.9,2.512,19.361,0.509,24.604-5.15c4.147-3.727,6.451-6.675,8.09-15.415l0.152,0.11
		c-1.553,14.707,1.712,30.64,9.623,41.99c16.149,18.543,30.386,36.24,37.679,55.142c3.229,11.124,1.911,25.714-4.909,35.881
		c-4.788,5.865-10.521,9.332-16.984,10.051c-1.675,11.245-2.632,24.879-16.381,32.182l-5.385,0.834L738.67,814.506L738.67,814.506z"
		/>
	<path fill="#FFDB00" d="M740.34,645.128c10.644-1.56,16.989-3.954,25.846-2.87c-12.799,8.968-21.185,21.883-24.65,37.086
		l1.072,1.194c8.503-1.561,16.396-3.716,25.244,0.835c-7.294,3.703-18.18,9.332-22.364,18.057c-1.796,2.996-1.072,5.628-1.433,8.021
		C732.208,690.467,730.775,663.184,740.34,645.128L740.34,645.128z"/>
	<path fill="#FFDB00" d="M547.161,1072.154l-2.277,29.311c-12.08,5.861-14.353,19.855-13.269,30.387
		c-5.871-1.438-9.21-4.789-14.955-8.256c-5.025,3.352-10.416,7.184-16.032,8.609l5.506-8.969L547.161,1072.154L547.161,1072.154z
		 M266.596,1152.775h487.5h89.003V1128.5l-10.051,4.551l1.194-10.051c-4.423,1.311-7.319,6.102-11.868,7.055
		c-1.432-14.416,7.974-28.828,7.974-28.828c-21.809,15.311-28.656,24.342-28.656,24.342c-0.295-5.812,3.436-11.268,3.436-11.268
		c-5.506,1.648-10.786,6.119-15.155,8.309c-0.691-6.596,9.649-14.518,9.649-14.518c-9.343,0.855-17.159,5.062-24.578,10.578
		c6.516-11.488,17.227-23.303,29.317-29.068c-19.146,2.289-37.467,12.045-50.381,27.537c0.919-9.186,5.284-19.715,12.244-24.846
		c-0.011-0.557,0.57,0.279,0,0c-8.302,2.244-15.352,7.291-21.83,13.732c0.539-2.256,0.481-3.477,1.702-6.764
		c-4.825,3.238-7.229,6.637-10.156,11.35c0.629-17.689,5.859-35.061,15.599-49.58c-16.582,13.574-31.003,28.895-38.549,47.6
		l1.173-12.08c0.021-6.172,0.301-14.137-2.849-18.871c-4.243,12.588-9.766,24.064-18.066,35.021
		c-1.157-7.268,0.761-18.729,6.019-25.43c-12.692,10.537-24.25,22.645-31.003,36.76c-5.094-6.639-3.371-16.148-3.371-16.148
		c-5.56,4.27-10.003,10.59-13.327,15.213c-6.479-5.406,0.339-13.756,0.339-13.756c-5.296,3.24-8.708,7.119-11.075,12.762
		c-0.909-5.791,2.166-22.574,5.943-27.479c-11.979,7.811-21.386,19.332-24.698,32.568c-2.257-4.926-5.507-7.055-5.507-7.055
		c-3.224,3.133-5.39,4.217-7.983,5.422c-1.818-3.721-3.558-8.561-7.324-10.199c-0.047,3.742,0.581,9.26-2.103,12.086
		c-0.402-2.701-2.293-4.926-4.097-7.055c-4.776,3.777-7.43,4.852-10.779,6.854l-2.294-3.613c-2.335,3.061-4.338,4.908-7.033,5.971
		c-1.247-10.469,3.678-14.398,9.391-22.611c-11.229,7.996-23.362,11.916-32.312,22.416c-1.222,0.291-3.722,2.193-4.032-0.422v-2.271
		c9.575-24.172,34.569-41.393,49.043-62.799c10.289-15.078,27.389-24.049,39.955-33.619c36.482-27.035,43.183-69.258,67.703-101.67
		c18.066-25.244,30.385-57.182,33.376-86.965c0.11-8.974,2.033-17.702,0.597-27.034c-4.671-22.479-17.945-43.653-38.518-57.056
		c12.92,25.479,30.321,77.299,19.917,105.534c-1.893-9.491-7.801-13.306-7.801-13.306c-13.278,31.218-24.65,67.214-59.69,84.923
		l-1.682-0.479c7.896-12.795,9.581-27.865,9.692-43.068l-1.432-1.432c-12.684,14.838-22.612,30.861-30.75,47.605
		c-3.467-9.93-4.661-21.771-6.214-28.703c-11.361,19.979-15.432,40.43-19.615,64.596c-5.147-10.047-5.147-23.447-7.657-32.42
		c-13.755,31.104-2.029,62.086-19.262,90.43c-2.748-6.816-4.66-15.789-8.012-20.688c-0.962,9.803-1.675,22.729-7.534,31.342
		c-2.151-6.949-4.55-14.723-7.773-19.262c-4.423,24.4-13.544,32.857-34.237,53.783h-1.199c-1.555-11.844-0.444-8.572,0.507-15.863
		c-9.216,25.006-51.956-3.467-77.669,10.521l-2.029,0.484c-5.982,5.143-14.236,12.678-17.47,19.014l-0.116,0.227
		c2.394-0.709,4.904-0.998,7.53-0.828c21.649,2.643,35.652,7.535,61.482,2.275c-0.597,7.775-1.791,16.027-1.675,24.404
		c-7.409,4.539-9.802,13.152-13.269,19.014l-12.925-0.594l-7.177-7.18c-5.506-0.594-13.644,11.486-15.425,0.248l-2.394-5.146
		c-5.501,4.189-10.052,8.852-16.631,9.807c-2.632-1.912-0.719-3.951-1.675-7.541c-2.985,1.195-3.233,5.867-4.897,8.021l-10.896-0.48
		c0.491-3.588,2.88-7.418,3.952-11.006c-5.02,1.91-8.851,6.584-13.391,9.812l-11.25-8.375c-5.025,4.793-10.771,8.729-17.471,10.643
		c-1.311-2.984-2.146-8.127-2.394-11.477h-1.062c-5.628,5.859-11.853,9.928-19.028,12.078l-0.232-12.078l-15.557,9.209
		c-0.719-3.951,3.704-9.096,3.831-13.162l-20.698,13.4c0-4.787,4.903-9.936,5.744-15.191c-5.617,3.35-10.886,9.928-15.546,14.711
		c-4.19-0.238-7.419-5.025-12.329-6.105c-0.824,2.998,2.87,5.744,1.675,9.217l-21.523-7.418l-0.301-0.721v26.43H266.596z"/>
	<path fill="#6B301E" d="M2070.332,1167.279c-4.898,0-9.427-1.248-13.585-3.748c-4.165-2.498-7.467-5.887-9.919-10.172
		c-2.447-4.283-3.673-8.871-3.673-13.77c0-4.994,1.226-9.619,3.673-13.877c2.452-4.266,5.754-7.652,9.919-10.172
		c4.158-2.527,8.687-3.785,13.585-3.785c4.994,0,9.607,1.211,13.84,3.637c4.238,2.42,7.615,5.754,10.137,9.986
		c2.524,4.232,3.782,8.873,3.782,13.92c0,5.088-1.258,9.791-3.782,14.098c-2.521,4.309-5.908,7.699-10.168,10.174
		C2079.876,1166.042,2075.278,1167.279,2070.332,1167.279L2070.332,1167.279z M2070.332,1164.267c3.425,0,6.633-0.635,9.618-1.906
		c2.991-1.273,5.622-3.051,7.895-5.326c2.277-2.277,4.054-4.898,5.327-7.859c1.273-2.963,1.907-6.203,1.907-9.732
		c0-4.502-1.089-8.666-3.267-12.48c-2.178-3.82-5.152-6.834-8.926-9.037c-3.768-2.203-7.879-3.303-12.339-3.303
		c-3.425,0-6.605,0.65-9.543,1.943c-2.938,1.301-5.533,3.086-7.789,5.365c-2.251,2.277-4.011,4.93-5.284,7.969
		c-1.274,3.033-1.913,6.213-1.913,9.543c0,3.328,0.629,6.488,1.876,9.475c1.247,2.984,2.985,5.645,5.216,7.969
		c2.226,2.326,4.847,4.137,7.857,5.439C2063.98,1163.617,2067.1,1164.267,2070.332,1164.267L2070.332,1164.267z M2066.438,1139.441
		v9.184c0,1.221,0.037,2.078,0.111,2.568c0.074,0.492,0.232,0.871,0.477,1.143c0.248,0.264,0.587,0.428,1.029,0.475
		c0.439,0.049,1.199,0.074,2.277,0.074v1.469h-12.781v-1.469c1.664-0.1,2.694-0.232,3.086-0.406c0.392-0.17,0.586-0.84,0.586-2.02
		v-24.82c0-1.326-1.221-1.984-3.673-1.984v-1.688h12.856c8.418,0,12.63,2.668,12.63,8.004c0,1.564-0.417,2.988-1.247,4.26
		c-0.835,1.275-1.936,2.277-3.31,3.01c-1.368,0.732-2.764,1.129-4.185,1.178v0.291c2.499,0.395,4.798,3.012,6.906,7.863
		c1.024,2.299,1.896,3.963,2.604,4.992c0.708,1.023,1.701,1.471,2.976,1.32v1.471h-2.129c-0.491,0-0.932,0.047-1.321,0.146
		c-2.156-0.25-3.524-0.592-4.117-1.031c-0.586-0.438-1.072-1.014-1.469-1.729c-0.392-0.707-0.683-1.357-0.877-1.943
		c-0.195-0.588-0.519-1.469-0.956-2.643c-1.078-2.5-1.786-4.117-2.13-4.852c-0.345-0.734-0.979-1.395-1.908-1.98
		c-0.93-0.588-2.229-0.883-3.896-0.883H2066.438L2066.438,1139.441z M2066.438,1137.681h1.248c3.233,0,5.718-0.441,7.455-1.32
		c1.739-0.883,2.605-2.816,2.605-5.803c0-1.469-0.316-2.715-0.951-3.746c-0.639-1.029-1.506-1.785-2.609-2.277
		c-1.1-0.49-2.384-0.734-3.854-0.734c-1.717,0-2.79,0.158-3.232,0.477c-0.438,0.322-0.661,1.262-0.661,2.832L2066.438,1137.681
		L2066.438,1137.681z"/>
	<path fill="#FFFFFF" d="M720.069,863.037c-1.893-9.49-7.801-13.306-7.801-13.306c-13.278,31.22-24.65,67.164-59.69,84.867
		l-1.682-0.471c7.896-12.811,9.581-27.875,9.692-43.068l-1.432-1.438c-12.684,14.828-22.612,30.859-30.75,47.605
		c-3.466-9.93-4.661-21.77-6.214-28.709c-11.361,19.98-15.432,40.438-19.615,64.59c-5.147-10.041-5.147-23.436-7.657-32.412
		c-13.755,31.104-2.029,62.09-19.262,90.436c-2.748-6.816-4.66-15.795-8.011-20.693c-0.963,9.809-1.676,22.723-7.535,31.342
		c-2.151-6.945-4.55-14.717-7.773-19.262c-4.423,24.396-13.544,32.863-34.236,53.789h-1.2c-1.555-11.842-0.444-8.576,0.507-15.863
		c-9.216,24.994-51.956-3.473-77.669,10.521l-2.029,0.479l0.956-8.254c0.238-6.098,0.946-13.162-0.956-17.586
		c-6.579,12.322-22.131,24.873-34.935,27.033l-0.603-1.441c-0.11-15.662,4.312-32.293,7.431-45.928
		c-6.464,3.467-13.285,11.367-20.346,15.791c0.598-16.982,11.849-35.77,21.534-50c-6.579,0.238-13.517,5.5-20.937,7.176
		c3.233-8.852,8.612-17.342,15.795-25.48l-6.7,2.029c-6.104,2.395-10.294,6.109-16.868,8.619
		c5.618-18.305,21.058-33.979,35.056-45.938l-11.487,1.438c-8.375,1.322-17.231,5.744-25.835,7.42
		c1.67-9.096,4.296-18.785,12.556-28.107c36.726-40.551,83.138-43.902,123.437-65.435c22.977-11.004,44.985-32.896,55.744-55.745
		c14.966-27.268,30.031-61.002,59.105-83l-5.745-4.317l12.915-8.011l2.267-1.676c16.038-9.93,30.866-22.966,46.539-34.81
		c0,0,24.034-21.301,52.997-20.095h0.708c-3.049,5.76-4.988,12.46-5.812,19.468l-0.249,0.755c-1.639,8.74-3.942,11.688-8.09,15.415
		c-5.242,5.659-16.704,7.662-24.604,5.15c-3.826,2.036-2.267,4.789-1.67,8.62l14.822,22.954
		c16.038,28.234,23.446,60.648,24.768,94.146l-0.835,2.869c-4.671-22.484-17.945-43.654-38.518-57.055
		C713.073,782.932,730.475,834.812,720.069,863.037L720.069,863.037z"/>
	<path fill="#FFFFFF" d="M1345.188,792.688l13.345,48.136c0,0,2.916-1.961,7.472-1.961L1345.188,792.688L1345.188,792.688z"/>
	<path fill="#FFFFFF" d="M1485.074,698.219c-8.412-33.211-41.309-32.91-41.309-32.91S1467.134,675.037,1485.074,698.219
		L1485.074,698.219z"/>
	<path fill="#FFFFFF" d="M1593.667,840.685c-23.827-10.029-32.921-33.927-32.921-51.591V667.818h-7.832v119.197
		C1552.914,806.748,1563.335,833.54,1593.667,840.685L1593.667,840.685z"/>
	<path fill="#FFFFFF" d="M1822.013,729.75c0-34.532-5.754-59.125-28.562-64.801c16.201,9.496,20.752,33.555,20.752,64.774
		L1822.013,729.75L1822.013,729.75z"/>
	<path fill="#FFFFFF" d="M1474.099,799.276c-3.588-19.743-28.566-25.751-45.725-29.481c-36.62-7.637-83.286-18.908-83.286-65.178
		c0-1.453,0.037-2.891,0.127-4.312l0.147,0.317c3.958,41.582,48.013,53.905,83.012,61.208c18.5,4.021,46.269,8.729,46.269,32.092
		C1474.643,795.899,1474.517,797.56,1474.099,799.276L1474.099,799.276z"/>
	<path fill="#FFFFFF" d="M1344.306,1151.644c12.382-1.197,18.058-6.934,18.058-32.453v-80.477c0-21.316-3.276-35.812-26.622-38.623
		c15.472,5.277,19.086,20.508,19.086,38.623v82.412C1354.826,1139.703,1351.238,1148.025,1344.306,1151.644L1344.306,1151.644z"/>
	<path fill="#FFFFFF" d="M1483.6,1002.876c-4.522,4.84-10.53,7.787-17.732,7.787c-12.478,0-25.756-10.055-34.607-10.055
		c-1.15,0-1.934,0.025-3.244,0.555c4.401-3.875,9.315-4.83,12.878-4.83c8.856,0,22.125,10.057,34.617,10.057
		C1478.236,1006.39,1481.169,1003.695,1483.6,1002.876L1483.6,1002.876z"/>
	<path fill="#FFFFFF" d="M1886.439,831.816c12.396-1.199,18.065-6.935,18.065-32.455v-80.477c0-21.316-3.274-35.802-26.622-38.622
		c15.469,5.277,19.099,20.496,19.099,38.622V801.3C1896.98,819.869,1893.395,828.197,1886.439,831.816L1886.439,831.816z"/>
	<path fill="#FFFFFF" d="M2025.744,683.048c-4.534,4.841-10.531,7.788-17.739,7.788c-12.46,0-25.745-10.055-34.591-10.055
		c-1.163,0-1.939,0.024-3.261,0.555c4.407-3.879,9.321-4.83,12.883-4.83c8.856,0,22.136,10.057,34.597,10.057
		C2020.381,686.562,2023.298,683.867,2025.744,683.048L2025.744,683.048z"/>
	<path fill="#FFFFFF" d="M1527.581,1151.619c10.563-1.1,17.597-6.516,17.597-32.43v-81.68c-0.405-21.328-3.994-35.664-27.324-38.477
		c16.556,4.949,19.44,19.814,19.796,38.477v83.809C1537.648,1139.533,1533.791,1147.876,1527.581,1151.619L1527.581,1151.619z"/>
	<path fill="#FFFFFF" d="M1771.02,1000.582c8.322,5.143,14.484,15.547,14.484,32.26v88.285c0,18.307-3.868,26.715-10.104,30.428
		c10.567-1.107,17.628-6.461,17.628-32.365v-82.891C1793.028,1013.242,1783.955,1002.583,1771.02,1000.582L1771.02,1000.582z"/>
	<path fill="#FFFFFF" d="M1649.184,1000.646c17.814,2.15,19.917,19.438,19.917,35.652v82.891c0,26.289-6.79,31.422-17.507,32.395
		c6.003-3.922,9.978-12.365,9.978-30.021v-87.746C1661.57,1020.875,1659.299,1006.771,1649.184,1000.646L1649.184,1000.646z"/>
	<path fill="#FFFFFF" d="M1265.205,1160.501c-27.511-5.85-26.633-40.996-26.633-40.996v-65.172v-17.707v-10.865
		c0-14.383,0.871-35.523-13.054-45.232c23.985,5.639,20.777,31.76,20.777,48.934v10.865v17.701v65.885
		C1246.297,1123.914,1245.79,1152.046,1265.205,1160.501L1265.205,1160.501z"/>
	<path fill="#FFFFFF" d="M1137.408,1158.91c-10.104-8.729-18.341-21.955-18.341-40.133c0-19.615,10.98-34.279,24.794-45.709
		c-18.766,10.463-32.404,25.258-32.404,45.709C1111.457,1139.005,1121.698,1151.972,1137.408,1158.91L1137.408,1158.91z"/>
	<path fill="#FFFFFF" d="M1144.427,1030.074c-4.72-4.049-10.066-10.094-10.066-16.818c0-7.912,6.034-17.324,15.36-25.709
		c-16.344,7.656-22.971,17.68-22.971,25.709C1126.75,1021.693,1134.624,1027.843,1144.427,1030.074L1144.427,1030.074z"/>
	<path fill="#FFFFFF" d="M1996.052,1119.103c-3.566-19.742-28.557-25.738-45.715-29.471c-36.625-7.646-83.286-18.918-83.286-65.182
		c0-1.459,0.037-2.896,0.139-4.316l0.138,0.322c3.958,41.586,48.013,53.898,83.011,61.203c18.501,4.02,46.266,8.729,46.266,32.09
		C1996.602,1115.738,1996.49,1117.386,1996.052,1119.103L1996.052,1119.103z"/>
	<path fill="#FFFFFF" d="M1867.162,1112.525l13.332,48.123c0,0,2.917-1.953,7.482-1.953L1867.162,1112.525L1867.162,1112.525z"/>
	<path fill="#FFFFFF" d="M2007.049,1018.046c-8.429-33.211-41.318-32.9-41.318-32.9S1989.108,994.865,2007.049,1018.046
		L2007.049,1018.046z"/>
	<path fill="#FFFFFF" d="M937.091,1150.001c19.728-1.977,19.816-11.383,19.816-36.129v-193.93c0-21.645-4.472-32-19.658-35.51
		c8.661,5.553,12.143,15.451,12.143,32.148v197.83C949.393,1134.65,948.537,1145.531,937.091,1150.001L937.091,1150.001z"/>
	<path fill="#FFFFFF" d="M1132.193,925.535c-11.124-37.551-52.912-39.871-52.912-39.871
		C1099.737,894.271,1117.148,908.101,1132.193,925.535L1132.193,925.535z"/>
	<path fill="#FFFFFF" d="M1080.423,974.162c0,0-3.899,19.182-16.577,27.969C1063.846,1002.13,1086.928,999.525,1080.423,974.162
		L1080.423,974.162z"/>
	<path fill="#FFFFFF" d="M935.928,830.232c19.732-1.982,19.816-11.384,19.816-36.125V600.169c0-21.646-4.47-32.003-19.652-35.506
		c8.667,5.548,12.145,15.456,12.145,32.149v197.823C948.235,814.881,947.379,825.756,935.928,830.232L935.928,830.232z"/>
	<path fill="#FFFFFF" d="M1131.041,605.76c-11.123-37.551-52.917-39.87-52.917-39.87
		C1098.58,574.502,1115.986,588.326,1131.041,605.76L1131.041,605.76z"/>
	<path fill="#FFFFFF" d="M1079.266,654.381c0,0-3.904,19.191-16.588,27.975C1062.678,682.355,1085.771,679.75,1079.266,654.381
		L1079.266,654.381z"/>
	<path fill="#FFFFFF" d="M1552.285,647.041c0,0,34.771-0.195,34.502-38.872C1579.294,624.994,1570.194,638.363,1552.285,647.041
		L1552.285,647.041z"/>
	<path fill="#FFFFFF" d="M1724.152,833.412c-30.538-14.738-51.967-42.844-51.967-79.92c0-24.878,9.248-49.746,26.143-69.262
		c7.699-8.878,16.438-15.746,26.216-21.048c-6.653,4.772-12.873,10.755-18.405,17.48c-16.915,20.524-26.163,46.677-26.163,72.828
		C1679.976,789.209,1697.673,817.085,1724.152,833.412L1724.152,833.412z"/>
	<path fill="#FFFFFF" d="M1173.918,833.65c-31.151-15.82-52.965-45.932-52.965-82.979c0-42.855,24.514-71.829,54.994-87.265
		c-27.094,16.883-47.496,46.158-47.496,87.265C1128.452,786.377,1146.472,816.36,1173.918,833.65L1173.918,833.65z"/>
	<path fill="#FFFFFF" d="M1239.855,833.286c25.852-12.534,29.973-58.523,29.973-83.772c0-26.469-1.913-75.485-29.74-87.392
		c33.83,6.505,37.223,59.813,37.223,87.345C1277.311,776.168,1272.359,826.792,1239.855,833.286L1239.855,833.286z"/>
	<path fill="#FFFFFF" d="M595.037,1041.335l-5.739-10.404l-3.118,23.92C590.133,1051.38,591.925,1046.597,595.037,1041.335
		L595.037,1041.335z"/>
	<path fill="#FFFFFF" d="M618.843,989.443c-4.448,13.744-7.672,29.328-13.501,42.682c12.82-14.764,22.602-34.529,27.347-53.467
		C627.747,981.458,623.34,985.818,618.843,989.443L618.843,989.443z"/>
	<path fill="#FFFFFF" d="M660.684,950.015c-1.775,11.385-5.385,27.459-12.275,38.271c13.592-10.088,25.438-35.764,27.15-51.084
		L660.684,950.015L660.684,950.015z"/>
	<path fill="#FFDB00" d="M522.446,1000.191l-14.602,35.893l-17.586,13.754C497.562,1032.849,509.278,1014.427,522.446,1000.191
		L522.446,1000.191z"/>
	<path fill="#FFDB00" d="M686.318,824.234c5.744,2.16,11.604,6.468,16.148,11.726l-6.943,21.284
		C693.373,846.729,690.149,833.213,686.318,824.234L686.318,824.234z"/>
	<path fill="#6B301E" d="M712.65,667.01l4.812-3.086c-4.618,2.531-9.744-3.387-13.121,1.881c-1.801,1.961-2.166,4.355-4.27,6.21
		C704.47,668.109,712.042,674.371,712.65,667.01L712.65,667.01z"/>
</g>
</svg>
