<?xml version="1.0" encoding="utf-8"?>
<!-- Generator: Adobe Illustrator 16.0.0, SVG Export Plug-In . SVG Version: 6.00 Build 0)  -->
<!DOCTYPE svg PUBLIC "-//W3C//DTD SVG 1.1//EN" "http://www.w3.org/Graphics/SVG/1.1/DTD/svg11.dtd">
<svg version="1.1" id="Layer_1" xmlns="http://www.w3.org/2000/svg" xmlns:xlink="http://www.w3.org/1999/xlink" x="0px" y="0px"
	 width="175.75px" height="111.78px" viewBox="8.504 38.494 175.75 111.78" enable-background="new 8.504 38.494 175.75 111.78"
	 xml:space="preserve">
<g>
	<path fill="#ED1C24" d="M184.199,129.867c-0.583-6.414-5.733-11.662-11.468-13.509c-4.18-1.264-7.774-0.389-11.76-0.584
		l-0.097-0.192c2.041-12.926,0.875-26.142-4.472-37.998c-1.555-3.499-3.303-6.9-5.538-10.204
		c-14.285-20.991-39.746-32.458-65.208-27.891c-24.974,3.693-47.617,24.49-52.67,49.076c-2.041,9.038-2.818,18.463-0.875,27.5
		c-5.928,0.195-12.439-0.582-17.298,3.402c-5.442,3.693-7.289,10.496-5.831,16.521c1.847,6.024,7.58,10.885,13.8,11.563
		c10.301,0.486,20.116-0.096,30.515,0.195c0.389,0,0.777-0.486,0.486-0.875c-4.276,0.195-9.232,0-13.508,0.195
		c-6.414-0.39-12.633,0.291-19.047-0.584l-0.194-0.193c-3.109-0.389-5.636-2.527-7.969-4.666
		c-3.887-4.275-5.053-10.398-2.624-15.742c2.332-5.053,7.969-8.455,13.119-8.941c12.245-0.096,24.586,0.099,37.123-0.096
		l30.612-0.098c9.814-0.195,19.631,0,29.154-0.195l36.15-0.098c0.584-0.291,1.068,0.391,1.556-0.096c3.79,0,7.288,0.192,11.37,0.096
		c3.691,0.682,7.385,2.236,10.009,5.055c3.597,3.984,4.956,9.426,3.207,14.479c-1.943,6.024-8.065,9.815-13.993,10.397
		c-10.107,0-19.533,0.098-29.641,0.293c0,0.193-0.098,0.389,0.098,0.582c5.247,0.291,10.787-0.193,15.938,0
		c7.191-0.875,15.646,1.75,21.963-2.818C181.867,141.142,184.687,135.697,184.199,129.867L184.199,129.867z M85.173,115.972
		c-0.778-2.916-2.333-5.931-1.167-9.039c1.069,1.069,1.75,2.625,2.818,3.889c1.555,1.943,3.693,3.887,5.539,5.053L85.173,115.972
		L85.173,115.972z M109.079,82.832c-0.583,0.194-0.583-0.875-1.166-1.069c-0.486-0.972-2.041-0.583-1.652-1.944
		c-0.582-0.291-1.264-0.194-1.943,0c-1.651,0.389-3.305,0.972-4.955,0.778c-1.069,1.555-2.721,0.389-4.375,0.68
		c-3.11,0.194-6.511-0.486-9.329-1.749c-0.486-0.486-0.195-1.069,0.097-1.555c3.109-1.943,6.608-1.846,10.301-2.235
		c4.083,0,8.649,0.194,12.245,2.041c0.874,0.68,1.749,1.652,1.555,2.916C109.954,81.471,109.759,82.346,109.079,82.832
		L109.079,82.832z M96.737,83.707c-0.486-0.292-1.458-0.486-2.138-0.097c0,0.097-0.194,0.194-0.389,0.097
		c-0.194-0.389-0.097-0.972-0.583-1.361c0.194-0.583,0.875,0,1.36-0.389c0.875,0.097,1.75-0.097,2.528,0.194
		C97.418,82.832,96.542,82.929,96.737,83.707L96.737,83.707z M97.028,83.609c0.193-0.195,0.291-0.583,0.681-0.583
		c-0.291,0.486-0.776,0.972-0.485,1.652c0.875,0.486,1.942-0.583,2.623,0.68h0.389c0.195-0.292-0.389-0.68,0.293-0.777
		c0.193,0.194,0.484,0.972,1.068,1.069c0.68-0.194,1.555,0,1.846-0.777v-0.292c0.099,0,0.486,0,0.486,0.194
		c0.194,0.486-0.389,0.292-0.389,0.583c0.777,0.486,2.139-0.972,2.43,0.68c0.874,0.097,1.166,0.777,1.457,1.652
		c0.486-0.875-0.681-2.138,0.583-2.916c-0.097-0.194,0.39-0.486,0-0.68c-0.485,0.291-1.166,1.069-1.847,0.68
		c0.292-0.486,0.098-0.875-0.193-1.263c-0.39,0.097-0.098,0.972-0.777,1.069c-0.584-0.486-1.166-0.972-2.041-1.264
		c-0.68,0-1.555,0-2.234-0.292c0.777-1.069,2.234-0.583,3.4-0.777v-0.292c-0.68-0.292-1.359,0.194-1.942-0.194
		c0.972-0.875,2.623-0.486,3.888-0.292l1.166,0.68c1.359,1.749,1.068,4.374,0.776,6.414c-0.681,1.36-1.942,2.332-3.498,2.429
		c-1.651,0.292-3.79,0-5.248-1.166C98.099,88.177,96.64,86.039,97.028,83.609L97.028,83.609z M82.549,85.65
		c0.097-0.097,0.292-0.194,0.389-0.097c0,0.389,0.097,0.875-0.292,1.166C82.16,86.525,82.646,85.941,82.549,85.65L82.549,85.65z
		 M82.549,86.913c0.097,0.292-0.097,0.778,0.292,0.972c0.875-0.388,0.777-1.943,2.041-1.749l0.194,0.777
		c1.167,0.292,0.583-1.458,1.555-1.36v-0.194c0.875,0.486,2.041,0.875,3.013,0.389c0.097-0.389,0.292-0.875,0.777-0.68
		c0.389,0.389-0.875,0.68,0,0.972c0.389,0.194,0.583-0.583,0.875-0.097c0.194,0.681-1.166,1.264,0,1.555
		c0.68,0.097,0.583-0.486,0.875-1.069c0.388,0.195,0.097,0.875,0.291,1.264c-0.68,1.943-2.526,3.401-4.665,3.499
		c-1.846,0-4.082-0.195-4.956-2.041C82.646,88.371,82.354,87.691,82.549,86.913L82.549,86.913z M90.42,83.707l-5.345-0.194
		c-0.097-0.778,0.972-0.681,1.555-0.778C87.894,83.026,89.448,82.734,90.42,83.707L90.42,83.707z M88.574,81.763
		c0.486-0.486,1.167,0.097,1.652-0.194c0.292-0.097,0.389,0.194,0.68,0.097C90.42,81.957,89.254,81.86,88.574,81.763L88.574,81.763z
		 M88.379,81.666c-1.749,0.389-3.79-0.194-5.248,0.486c-0.583,0.292-0.875,0.777-1.069,1.361c0,0.194,0,0.291-0.097,0.388
		c-0.097,1.069,0.097,2.138,0,2.916c-0.389-0.972-0.194-1.943,0-2.916c0.097-0.097,0.097-0.194,0.097-0.388
		c0.098-0.292,0.195-0.681,0.195-0.972C84.006,81.18,86.339,81.471,88.379,81.666L88.379,81.666z M81.286,81.471
		c-0.097-0.194,0.292-0.68,0.486-0.972C81.966,80.791,81.479,81.18,81.286,81.471L81.286,81.471z M81.091,80.402
		c0.098-0.68,0.583-1.36,0.972-1.749C82.16,79.333,81.286,79.819,81.091,80.402L81.091,80.402z M81.286,87.01
		c0.583,0.195,0.292,0.972,0.68,1.555c0.68,1.749,2.332,2.721,4.179,3.013c2.721,0.097,5.928-0.875,7.58-3.693
		c1.166-1.069-0.389-4.665,2.527-3.887c0.486,1.652,0.875,3.401,1.847,4.762c1.359,1.943,3.498,3.109,5.83,2.721
		c1.555-0.195,3.692-0.486,4.471-2.235c1.166-1.944,0.291-4.179,1.943-5.733c0.098,1.652,0.098,3.498,0.389,5.053
		c-0.681,0.875-0.485,2.041-0.776,3.11c-0.099-0.194-0.292-0.875-0.681-0.486c0.098,1.846-2.43,2.721-1.848,4.664
		c-0.193,0.875-0.681,1.75-1.166,2.43c-0.873-0.195,0.194-0.875,0-1.457c0-0.486,0.194-0.973,0.098-1.556
		c-1.943-0.097-3.305-1.36-4.275-3.012c-0.389-0.194-0.486,0.292-0.68,0.292c-0.195,1.166,1.166,1.36,1.555,2.138
		c-1.068,0.68-2.43-0.777-3.499,0.194l-0.875-0.194c0.583-0.583,2.819-0.389,2.14-2.041c-0.099-0.097-0.195-0.194-0.39-0.097
		c0,0.292,0.194,0.875-0.485,0.875l-1.556-0.194c0-0.097,0.099-0.292-0.099-0.292c-0.971,0.486-1.845,2.041-3.207,1.458
		c-1.069-1.458-4.665,0.292-4.179-2.721c-0.68-0.194-1.361,0.583-1.555,1.069c-0.097,1.75-2.138,1.555-3.11,2.526
		c-0.875,0.389-1.555-0.194-2.235-0.486c-0.777-0.875-1.166-2.138-1.069-3.304C81.869,90.12,80.994,88.76,81.286,87.01L81.286,87.01
		z M109.371,98.088c-1.361,3.402-2.722,7.289-6.024,9.231h-0.39c0-1.747,1.457-3.108,2.431-4.663
		c2.428-2.818,2.233-6.803,4.371-9.718C109.856,94.494,110.051,96.533,109.371,98.088L109.371,98.088z M95.862,99.158
		c0.292-0.39,0.875-0.291,1.264-0.195c0,0.099,0.193,0.195,0.292,0.293c0.485-0.973,1.556-0.389,2.332-0.389
		c-0.194,0.873-1.167-0.293-1.265,0.68c-1.166-0.291-1.555,0.972-2.624,0.291C95.765,99.646,95.862,99.353,95.862,99.158
		L95.862,99.158z M94.113,97.506v-0.098c0.486-0.291,1.166,0.194,1.263-0.486c-0.097-0.582,0.486-0.582,0.389,0
		c1.069,1.166,2.818-0.389,4.082,0.584C97.903,96.922,96.057,98.771,94.113,97.506L94.113,97.506z M94.599,99.838
		c-0.583-0.582-2.041,0.195-1.749-0.971c0.875,0.389,1.943-0.779,2.624,0.291C95.474,99.74,94.988,99.838,94.599,99.838
		L94.599,99.838z M91.392,94.494v0.291c-0.875-0.389-1.652,0.875-2.235,0.681l-2.041,0.583
		C88.379,95.271,89.935,94.591,91.392,94.494L91.392,94.494z M89.74,93.424c0-0.194,0.097-0.486,0.292-0.486
		c0.194,0.292,0.292,0.486,0.389,0.777C90.226,93.91,89.935,93.619,89.74,93.424L89.74,93.424z M82.257,98.771l2.43,4.373
		c-1.361-0.39-2.041-2.431-2.818-3.693l-0.097-0.68H82.257L82.257,98.771z M90.809,106.737c-0.875-1.456-1.069-3.206-1.944-4.762
		c-0.486-0.875-0.68,0.291-1.263,0.291c-1.846-0.971-3.013-2.916-2.818-4.955c0-0.485,0.486-0.391,0.777-0.485
		c0.583,0.485-0.486,0.971,0.097,1.457c0.875,0.485,1.943,1.457,2.915,0.68c1.361,0.875,1.847,3.109,3.693,3.5
		c2.526,0.193,5.344,1.166,7.581-0.485c0-0.195,0.193-0.195,0.098-0.39c-0.682-0.194-1.264,0.681-2.041,0.681l-2.917-0.195
		c0.097-0.096-0.194-0.193,0-0.291c0.68,0,1.264-0.096,1.652-0.291c0.097-0.193-0.098-0.291-0.195-0.389
		c-0.68,0.485-1.069-0.486-1.652-0.193v-0.293c1.749-0.193,3.79,0.486,5.734-0.291c0.875-0.486,1.067-2.527,2.623-1.846
		c0.291,0.291,0.973,0.192,0.681,0.68c0.099,0.098,0.389,0.098,0.485-0.098c0-0.875,0.973-1.652,0.39-2.527
		c0.874,0.875,0.291,2.527,0,3.693c-1.069,0.776-0.681,2.332-1.651,3.207c-2.332,1.459-1.848,5.149-4.957,5.637
		C95.474,109.653,92.656,108.778,90.809,106.737L90.809,106.737z M97.709,110.724c1.166-0.486,2.431-0.974,3.304-1.75
		c0.391,0.584-0.291,0.973-0.484,1.36C99.651,110.819,98.583,111.11,97.709,110.724L97.709,110.724z M153.587,114.806
		c0,1.846-1.943,0.483-2.816,0.872c-1.943,0-3.889,0-5.929,0.099c-1.264-1.068-0.778-3.693-3.013-3.4
		c-3.109-0.973-6.414-1.75-9.523-2.818c-6.024-1.942-12.343-3.207-18.465-5.055c-0.972-0.582-1.749-1.555-2.721-2.234
		c-0.194,0-0.389,0.099-0.486,0.291c0.098,3.015-0.583,5.734-0.972,8.746l-0.194,0.195c-0.097,1.457-0.486,2.916-0.875,4.275
		c-3.304,0.195-6.511,0-9.619,0.098c5.344-5.928,11.66-12.244,11.952-20.408c-0.194-0.389,0-0.778-0.098-1.264
		c3.013-0.583,1.166-4.276,2.235-6.414c0.484-1.652,1.457-3.692,0.389-5.442c-0.583-0.486-1.458-0.875-0.777-1.652
		c0-0.486,0.682-0.292,1.068-0.486c2.722-1.069,6.607-0.486,7.969-3.887c-0.777-1.847-3.304-1.652-4.857-2.333
		c-0.682-0.194-1.556,0-2.041-0.389c-2.818-0.389-5.832-0.292-8.553-0.68c-11.079-1.069-22.352,0.777-33.527,1.846
		c-2.041,0.68-4.374,0.777-5.637,2.721c1.263-0.194,2.527-1.263,3.887-1.069c0.583,1.75,2.916,1.555,4.567,1.652
		c-0.389,0.583,0.292,2.041-1.166,1.555c-2.818-0.292-6.414,0.583-8.066-2.235c0.097-0.972,1.263-1.458,1.944-2.041
		c10.689-4.178,22.254-3.692,33.625-3.984c4.372,0,8.844,0.875,13.217,1.264c1.555,0.292,3.012,0.68,4.47,1.166
		c-0.291-0.583-1.36-0.875-2.041-1.166c-1.943-0.389-3.595-0.972-5.539-1.069l-0.485-6.414c-2.041-1.264-4.471-1.75-6.803-2.235
		c-5.637-1.069-11.467-0.583-16.91,0.194c-2.041,0.194-4.567,0.583-6.706,1.167c-0.874,0.194-1.749,1.166-2.429,0.68
		c0.194-1.458-1.263-4.665,1.36-5.054c7.969-3.401,17.298-3.984,25.85-2.624c0.485-0.68-0.681-0.486-0.875-0.875
		c-10.009-2.041-20.116-2.041-28.571,3.79l-0.389,0.583c0.389,3.984,0.875,7.483,1.069,11.273l-0.388,0.292
		c-3.499,0.583-7.094,1.458-10.01,3.595c-0.389,0.486-0.583,1.167-0.777,1.75c1.166,2.624,4.081,2.527,6.608,3.013
		c0.875-0.097,1.652,0.097,2.333-0.097c0.486,0,0.68,0.486,0.777,0.875c0.292,0.68-0.389,0.486-0.583,0.875
		c-1.263,1.944-0.389,4.567-0.097,6.608c1.36,2.332,0.875,6.511,4.179,7.095c0.583,2.234,1.069,4.664,3.013,6.023
		c0.194,0.875,0.68,1.75,0.68,2.625c-8.649,2.332-17.687,4.957-26.433,7.385l-5.345,1.459c-0.583,0.777-0.777,1.652-1.069,2.43
		c-3.498,0.291-6.899-0.098-10.398,0C36,100.033,39.887,83.026,49.216,69.907c14.091-19.533,38.97-28.376,61.904-22.254
		c15.742,3.79,29.834,15.257,37.22,29.737C154.073,88.468,156.017,102.072,153.587,114.806L153.587,114.806z M112.286,90.606
		c-0.098,0.972-0.292,1.943-1.166,2.624c-0.194-0.486-0.194-0.972,0-1.555C111.604,91.675,111.994,90.897,112.286,90.606
		L112.286,90.606z M112.383,77.001c0.292-0.875,0.099-1.846-0.097-2.721c0.874-0.486,1.846,0.194,2.818,0
		c1.942,0.194,3.789,0.583,5.636,1.263c0.098,0.195,0.292,0.486,0.194,0.778c-2.234,1.943-5.248,2.332-8.164,2.721
		C112.286,78.361,113.452,77.098,112.383,77.001L112.383,77.001z M112.675,83.707c0.874,0.292,0.485,1.069,0.485,1.749
		C112.869,85.164,112.771,84.29,112.675,83.707L112.675,83.707z M79.245,94.104c0.292,0.194,0.194,0.68,0.097,0.875
		c-0.194,0.486-0.777,0.195-1.069,0c-1.069-1.166-1.555-2.624-1.847-4.179C77.301,91.869,77.398,94.007,79.245,94.104L79.245,94.104
		z M76.329,83.512c0.875,0.68,1.458,1.749,1.458,3.013C77.301,85.456,76.621,84.581,76.329,83.512L76.329,83.512z M159.71,115.582
		l-3.109,0.096c4.957-23.905-5.248-48.589-25.17-62.389C112.869,39.975,85.27,38.906,65.64,50.762
		c-18.464,10.204-29.737,30.709-30.612,51.117c0,4.472,0.097,9.621,1.166,14.093c-1.069,0.192-2.138,0-3.013,0.192
		c-1.458-7.772-1.749-14.479-0.486-22.254c2.429-14.48,9.329-27.988,20.603-37.9c19.436-17.589,49.271-21.574,72.398-9.523
		c13.509,6.511,24.976,19.242,30.516,33.042C160.778,90.897,161.944,103.336,159.71,115.582L159.71,115.582z"/>
	<path fill="#ED1C24" d="M101.013,86.816c-0.389-0.194-0.68-1.458-1.359-0.875C99.75,86.622,100.526,86.719,101.013,86.816
		L101.013,86.816z"/>
	<path fill="#ED1C24" d="M87.991,87.205h-0.292c-0.583,0.292-1.652,0-2.041,0.486C86.436,87.497,87.894,88.177,87.991,87.205
		L87.991,87.205z"/>
	<path fill="#ED1C24" d="M93.239,91.578c0.194-1.264,0.875-2.43,1.36-3.401c-0.777,0.389-1.36,1.069-1.555,1.846
		C93.044,90.509,92.558,91.286,93.239,91.578L93.239,91.578z"/>
	<path fill="#ED1C24" d="M97.126,101.49c0.098,0.098,0.193,0.098,0.292,0.098c0-0.098,0.192-0.098,0.097-0.194
		C97.418,101.199,97.028,101.394,97.126,101.49L97.126,101.49z"/>
	<path fill="#ED1C24" d="M98.099,101.49c0.096-0.099,0.096-0.099,0.096-0.193h-0.096V101.49L98.099,101.49z"/>
	<path fill="#ED1C24" d="M139.205,144.056c1.749-0.291,3.692,0.389,5.247,0c0.681,0.098,1.652,0.098,2.234,0
		c7.679-0.099,15.063,0.194,22.449-0.099c4.956-0.582,9.814-3.983,11.272-8.746c0.097-0.971,0.681-1.942,0.485-2.721
		c0.291-1.556,0-3.207-0.39-4.664c-1.846-5.441-6.996-8.746-12.633-9.037l-0.099,0.096c-11.854,0.195-23.711,0.099-35.858,0.099
		c-0.485,0.291-1.263-0.193-1.749,0.098c-26.627,0.193-51.7-0.098-78.23,0.193c-1.361-0.097-2.527,0-3.79,0.098
		c-7.872-0.291-15.16,0.291-23.129-0.098c-5.442,0-10.787,3.5-12.633,8.649c-0.292,0.39-0.097,1.166-0.486,1.457
		c-0.292,2.14-0.195,3.888,0.194,5.929c1.263,4.471,5.831,8.065,10.301,8.94c10.592,0.68,20.602,0.096,31.292,0.192
		c0.388-0.776,0-1.555,0.388-2.43c8.649-0.291,18.659,0.098,27.502-0.193c19.63,0.193,37.803-0.098,57.434-0.194l0.194,0.194
		C139.302,142.5,138.913,143.375,139.205,144.056L139.205,144.056z M159.321,133.365c2.623,1.942,6.316,2.43,9.328,1.36
		c0.584-0.389,0.875-1.166,0.777-1.75c-1.458-0.68-3.109-0.776-4.762-0.875c-2.624-0.389-6.025-0.389-6.898-3.399
		c0-1.265,0.193-2.527,1.067-3.498c3.79-3.207,9.038-1.75,13.508-0.875c0.194-0.099,0.39-0.293,0.681-0.293
		c-0.193,1.36-1.359,2.526-1.748,3.889l-0.194,0.097c-0.099-0.972-1.166-1.166-1.847-1.457c-2.526-0.193-5.539-1.265-7.482,0.485
		c-0.486,0.681,0.193,1.265,0.874,1.359c3.983,1.168,10.301-0.582,10.885,5.055c-0.098,1.943-1.167,3.399-2.916,4.179
		c-4.179,1.75-8.647,0.776-12.827-0.291c-0.291-0.099-0.582,0.584-0.777,0.098l2.041-4.859
		C159.418,132.783,159.224,133.172,159.321,133.365L159.321,133.365z M152.615,123.354c1.069-0.776,2.43-0.776,3.499,0
		c0.777,1.166,0.873,2.236,0.484,3.693c-0.68,1.846-2.623,2.916-4.274,3.596c-0.292-0.098-0.194-0.584-0.099-0.875
		c1.069-0.485,2.14-1.264,2.43-2.43c-1.068-0.098-2.04-0.68-2.525-1.652C151.937,124.91,152.13,124.035,152.615,123.354
		L152.615,123.354z M70.304,131.324c-2.527,3.014-6.317,1.264-9.718,2.041l0.097,4.762c0.098,0.39,1.069,0.195,0.486,0.681
		c-3.596,0-7.385,0-11.079,0l-0.194-0.193c0.972-0.777-0.486-1.846-0.389-2.818l-0.68-0.291h-6.122
		c-0.292,0.971-1.458,2.137-0.681,3.109v0.098c-3.79,0.193-7.094,0-10.787,0c1.167-0.584,0.389-2.625,0.583-3.791l0.097-2.041
		c-2.43-0.193-4.956-0.193-7.386-0.193l-0.292,0.291c0.097,1.847,0.194,3.693,0.292,5.347c0.097,0.192,0.486-0.099,0.486,0.291
		c-1.75,0.485-3.79,0.098-5.734,0.098c-0.194-0.389,0.389-0.194,0.681-0.485c0.194-1.265,0-2.431,0.097-3.693
		c-0.194-3.305,0-6.607-0.097-10.107c-0.292-0.193-0.972,0-0.778-0.484c1.847-0.098,4.082-0.098,5.831,0
		c-1.36,0.681-0.486,2.914-0.875,4.275c0.292,0.291-0.194,1.166,0.583,1.166c2.429,0,4.47-0.193,6.803-0.098
		c0.486-1.359,0.194-3.207,0.292-4.664l-0.875-0.584c0.389-0.291,1.069-0.096,1.555-0.193h4.276c0.194,0.582-0.777,0.193-0.68,0.777
		c0,4.471,0.292,8.844,0.097,13.41c0.292,0.486,0.972,0.682,1.36,0.195c1.75-4.568,3.693-9.037,5.151-13.802l-0.389-0.291
		l0.389-0.389l6.997,0.098c0.194,0.39-0.292,0.291-0.389,0.582c1.652,4.666,3.692,9.232,5.636,13.802
		c0.292,0.291,0.777,0.389,1.166,0c0.097-0.584,0.486-1.361,0.292-1.943l-0.194-11.76c-0.097-0.39-0.972-0.193-0.583-0.777
		c3.887-0.098,7.677,0.195,11.662,0.098c1.652,0.291,3.207,1.555,3.79,3.207C71.665,128.312,71.179,130.158,70.304,131.324
		L70.304,131.324z M85.756,131.713c-2.527,2.527-6.511,0.681-9.427,1.652c0.194,1.36,0,3.207,0.097,4.663
		c0.292,0.486,0.875,0.195,0.778,0.683c-1.847-0.099-3.887,0-5.831,0l0.68-0.776c0-4.568,0-8.941,0-13.511l-0.68-0.483
		c4.179-0.486,8.357-0.293,12.633,0.192c1.264,0.584,2.43,1.652,2.916,3.109C87.213,128.799,86.922,130.547,85.756,131.713
		L85.756,131.713z M101.499,125.203c-1.555,3.498-6.22,6.022-4.859,10.203c0,0.971-0.486,2.622,0.679,3.108
		c-2.041,0.195-3.983,0-5.831,0.099c0-0.585,0.681-0.291,0.681-0.777v-5.346c-2.138-2.722-3.791-5.638-6.025-8.357l-0.389-0.098
		l0.194-0.291c2.041,0.194,4.082-0.193,6.122,0c-0.097,0.291-1.166,0.485-0.486,1.069l3.013,4.179
		c1.166-1.361,2.138-2.916,3.304-4.373c0-0.291,0-0.584-0.389-0.584h-0.098v-0.193c1.748-0.584,3.4,0.099,5.247-0.194
		C102.665,124.133,101.79,124.619,101.499,125.203L101.499,125.203z M116.756,128.506c-0.097,2.236,0.292,4.666-0.097,6.9
		c-0.389,1.166-1.264,2.43-2.527,2.817c-2.816,1.068-5.928,0.486-8.648-0.389c-0.389,0-0.875,0.582-1.166,0.098
		c0.39-1.651,1.07-3.11,1.847-4.567c0.583-0.291,0.194,0.584,0.583,0.875c1.458,1.166,3.4,1.555,5.15,0.776l0.584-0.776
		c0.097-3.498-0.293-6.513,0-9.816c0-0.582-1.265-0.192-0.584-0.776c1.847,0.293,3.791-0.291,5.637,0.098
		C115.882,124.619,117.146,126.951,116.756,128.506L116.756,128.506z M134.249,135.601c-2.723,3.11-6.997,3.401-10.98,2.625
		c-2.723-0.875-5.055-3.207-5.346-6.123c-0.195-2.722,0.68-6.025,3.596-7.482c3.305-1.75,7.482-1.555,10.787,0.195
		c1.068,0.873,2.43,1.942,2.916,3.303C136.095,130.646,135.804,133.656,134.249,135.601L134.249,135.601z M136.095,138.418
		c-0.097-0.483,0.682-0.192,0.682-0.68c0-4.664,0-9.037,0-13.605l-0.777-0.389l0.389-0.193c4.567,0.097,9.428-0.098,13.994-0.098
		l0.485-0.681c0.485,0.873,0.389,1.943,0.292,2.914c0,0.683,0.097,1.265,0,1.943c-0.486-0.193-0.292-0.873-0.875-0.873
		c-3.401,0.291-5.831-0.098-9.232,0.291c0,0.777,0.098,1.264,0.098,2.041c2.041,0.193,4.082,0.389,6.025-0.098
		c0.194-0.098,0-0.486,0.291-0.389h0.194c0.194,1.457,0,2.817-0.097,4.274c-0.39,0.099-0.584-0.776-1.166-0.582
		c-1.75,0.291-3.693-0.389-5.248,0.192c0,0.777-0.194,1.459,0,2.14c-0.194,0.291,0.098,0.39,0.291,0.485
		c2.916-0.194,6.123,0.097,9.037-0.194l0.486-0.776c0.389,1.457,0.194,3.305,0.194,4.762v0.098c-0.39,0.098-0.292-0.486-0.681-0.68
		C145.521,138.226,140.76,138.711,136.095,138.418L136.095,138.418z"/>
	<path fill="#ED1C24" d="M43.482,133.269c1.652-0.097,3.499,0.098,4.956-0.193c-0.875-2.139-1.749-4.275-2.721-6.316
		C44.843,128.896,44.163,131.033,43.482,133.269L43.482,133.269z"/>
	<path fill="#ED1C24" d="M82.16,127.049c-1.943-0.291-3.887,0-5.734,0v2.818c1.944,0.389,3.693,0.291,5.636,0
		c0.972-0.291,1.167-1.265,0.875-2.14C82.646,127.438,82.549,127.242,82.16,127.049L82.16,127.049z"/>
	<path fill="#ED1C24" d="M66.514,127.242l-2.43-0.193c-1.166,0-2.527-0.194-3.499,0.193c0.097,1.069,0,1.75,0.097,2.916
		c2.235-0.099,4.568,0.584,6.414-0.777C67.194,128.506,67.486,127.631,66.514,127.242L66.514,127.242z"/>
	<path fill="#ED1C24" d="M126.377,126.951c-1.556,0.194-3.304,0.973-3.983,2.43c-0.485,1.943-0.194,3.597,1.264,4.859
		c1.555,0.68,3.498,1.264,5.246,0.485c0.974-0.584,2.14-1.36,2.334-2.625c0.484-1.457-0.098-2.914-1.069-3.983
		C129.293,127.146,127.737,127.049,126.377,126.951L126.377,126.951z"/>
	<path fill="#ED1C24" d="M135.026,142.5c-9.039,0-18.174,0.39-26.822,0.194c-5.441,0-11.176,0-16.715,0.193
		c-5.539-0.389-11.079,0-16.423,0c-6.219-0.098-12.536-0.098-18.853,0c-0.583,0-0.972-0.193-1.458,0.195
		c-0.097,2.332,0.097,4.664-0.195,6.996l0.292,0.195c17.881-0.293,35.179-0.099,53.352-0.293c7.386-0.193,15.258,0.293,22.74-0.097
		c2.234,0.193,4.955-0.098,7.289,0l0.097-7.19C137.164,142.694,136.095,142.5,135.026,142.5L135.026,142.5z M62.043,146.681
		c-0.583,1.067-2.818-0.099-2.138,1.747c-0.583,0.195-1.069,0.195-1.458,0l0.097-4.081c0.972-0.291,2.041-0.291,2.915,0l0.68,0.778
		C62.53,145.515,62.335,146.192,62.043,146.681L62.043,146.681z M64.862,148.428c-0.583-0.098-0.875,0.486-1.458,0.099
		c-0.194-1.457,0-3.012,0.292-4.471l1.263,0.194L64.862,148.428L64.862,148.428z M69.138,148.428h-2.915l1.749-2.913
		c-0.389-0.39-1.069,0.291-1.458-0.293c0.194-0.484-0.389-1.359,0.583-1.166l3.207,0.194c0,1.067-1.361,1.847-1.555,2.914
		c0.583,0.099,1.555-0.097,1.652,0.485C70.693,148.524,69.818,148.722,69.138,148.428L69.138,148.428z M75.552,147.262v1.166
		c-1.166,0-2.818,0-3.984,0c0.194-0.875,1.069-1.846,1.555-2.817c-0.291-0.777-1.555,0.389-1.555-0.68
		c-0.389-1.265,1.167-0.584,1.555-0.875l2.721,0.194l-1.943,2.817L75.552,147.262L75.552,147.262z M78.273,147.94
		c0,1.168-0.972,0.293-1.361,0.584l-0.292-0.098c0.292-1.457,0.778-2.914,1.361-4.178c0.68-0.195,1.263-0.195,1.846,0
		c0.389,1.457,1.263,2.721,1.458,4.178C79.828,149.205,79.439,147.164,78.273,147.94L78.273,147.94z M87.408,148.524
		c-0.68-0.194-1.652,0-2.041-0.875c-0.097-0.485-0.097-0.971,0.292-1.264c0.292-0.096,0.486-0.193,0.777-0.389
		c-0.486-0.389-0.389-0.873-0.292-1.359c0.875-0.682,2.041-0.875,2.818-0.195c0.292,0.293,0.389,0.777,0.292,1.166
		c-0.097,0.584-1.069,0.39-0.681,1.07c0.583,0,1.167-0.875,1.555,0c0.486,0.484-0.389,0.389-0.389,0.873l0.777,0.875
		C89.254,149.012,88.574,147.553,87.408,148.524L87.408,148.524z M95.279,148.428c-0.777-0.291-0.097-1.456-0.292-2.137
		c0.194-0.584-0.486-1.75,0.292-2.235c0.875-0.099,1.458,0.389,1.263,1.264C96.154,146.291,97.319,148.914,95.279,148.428
		L95.279,148.428z M101.207,144.832l-0.097,0.776c-0.389-0.192-0.777-0.291-1.264-0.192c-0.39,0.39-0.682,0.776-0.39,1.265
		c0.292,0.68,1.265,0.389,1.749,0.192c-0.291,0.68,0.389,1.75-0.874,1.555c-0.972,0.195-1.847-0.389-2.431-1.166
		c-0.193-0.776-0.193-1.747,0.291-2.331c0.293-0.584,0.875-0.777,1.459-0.875C100.235,144.25,101.401,143.765,101.207,144.832
		L101.207,144.832z M105.19,145.707v0.974c-0.389,0.389-1.166-0.486-1.262,0.389c0.29,0.389,0.971,0,1.457,0.291
		c-0.195,0.192,0.098,0.582,0,0.971c-0.973,0.098-1.847,0.098-2.818,0.098c0-1.555-0.098-2.914,0-4.373
		c0.875,0.291,2.818-0.776,2.818,0.875c-0.195,0.875-1.457-0.389-1.361,0.68L105.19,145.707L105.19,145.707z M111.994,148.428
		c-0.874,0.099-1.749-0.485-2.138-1.264c-0.194-0.681-0.293-1.457,0.098-2.039c0.389-0.584,0.972-0.974,1.555-1.168l1.555,0.293
		l0.098,1.166c-0.583,0.099-0.973-0.291-1.555,0.099c-0.291,0.291-0.584,0.68-0.194,1.166c0.292,0.68,1.166,0.389,1.651,0.192
		C113.258,147.553,113.063,148.722,111.994,148.428L111.994,148.428z M116.659,148.33c-0.194-0.483-0.486-0.873-0.682-1.263
		c-0.193,0.39,0.099,1.457-0.68,1.359c-0.389-0.193-0.875,0-0.972-0.389l0.097-3.984c1.069,0.098,2.526-0.486,3.499,0.584
		c0.097,0.486,0.39,1.166,0,1.652c-1.264,0.484,0.39,1.166,0.39,1.846C118.021,148.623,117.242,148.233,116.659,148.33
		L116.659,148.33z M122.004,145.707l0.194-0.099c0.389,0.777-0.194,1.265-0.874,1.166c-0.099,0.099-0.292,0.195-0.195,0.293
		c0.39,0.484,1.069-0.194,1.361,0.39c-0.099,0.291,0,0.68-0.292,0.971c-0.874-0.098-2.041,0.099-2.818-0.389l0.194-3.983
		c0.875,0,2.041-0.099,2.916,0.194C123.269,145.707,119.187,144.931,122.004,145.707L122.004,145.707z M128.126,148.33
		c-0.68-0.192-1.555,0.392-1.65-0.483c-0.584-0.195-1.459-0.099-1.557,0.581l-1.359-0.098c0.291-1.556,0.776-3.013,1.457-4.373
		c2.818-0.873,2.235,2.724,3.109,4.18V148.33L128.126,148.33z M135.026,148.33l-1.361-0.097c-0.193-0.682,0.195-1.459-0.291-2.139
		c-0.682,0.584-0.292,2.527-1.652,2.234c-0.389-0.582-0.291-1.555-0.777-1.943c-0.291,0.584-0.193,1.361-0.389,1.943
		c-0.389-0.193-0.972,0-1.263,0l0.485-4.275c0.389-0.291,1.166-0.098,1.652,0l0.68,1.943c0.681-0.582,0-2.623,1.75-2.137
		l0.484,0.096C134.54,145.515,135.123,146.681,135.026,148.33L135.026,148.33z"/>
	<path fill="#ED1C24" d="M87.505,145.222c0.097,0.098,0.097,0.293,0.292,0.293c0.194-0.195,0.194-0.195,0.194-0.39
		C87.991,144.735,87.505,145.026,87.505,145.222L87.505,145.222z"/>
	<path fill="#ED1C24" d="M115.979,145.125c0,0.291-0.291,0.681,0,0.873c0.291-0.097,0.681-0.192,0.485-0.483
		C116.465,145.222,116.271,145.125,115.979,145.125L115.979,145.125z"/>
	<path fill="#ED1C24" d="M60.1,145.416v0.681h0.194c0.389,0.098,0.486-0.291,0.292-0.582
		C60.392,145.515,60.294,145.317,60.1,145.416L60.1,145.416z"/>
	<path fill="#ED1C24" d="M125.696,146.774h0.291c0.39-0.389-0.193-0.873-0.193-1.262L125.696,146.774L125.696,146.774z"/>
	<path fill="#ED1C24" d="M78.856,145.707l-0.194,1.166h0.486C78.953,146.483,79.245,145.998,78.856,145.707L78.856,145.707z"/>
	<path fill="#ED1C24" d="M86.922,146.873v0.485c0.194,0,0.583,0.193,0.68-0.098C87.505,147.164,87.311,146.774,86.922,146.873
		L86.922,146.873z"/>
</g>
</svg>
