<?xml version="1.0" encoding="utf-8"?>
<!-- Generator: Adobe Illustrator 16.0.0, SVG Export Plug-In . SVG Version: 6.00 Build 0)  -->
<!DOCTYPE svg PUBLIC "-//W3C//DTD SVG 1.1//EN" "http://www.w3.org/Graphics/SVG/1.1/DTD/svg11.dtd">
<svg version="1.1" id="Layer_1" xmlns="http://www.w3.org/2000/svg" xmlns:xlink="http://www.w3.org/1999/xlink" x="0px" y="0px"
	 width="509.419px" height="221.744px" viewBox="167.291 186.903 509.419 221.744"
	 enable-background="new 167.291 186.903 509.419 221.744" xml:space="preserve">
<path id="fundo" fill="#981B1E" d="M307.136,186.903c-17.583,0-52.796,0-52.796,0c-23.328,1.103-42.397,10.499-47.903,29.875
	c-2.871,10.105-4.451,21.203-6.696,31.678c-11.414,53.264-21.533,107.992-32.45,160.19H578.33c31.775,0,53.596-6.715,59.492-31.936
	c2.738-11.716,5.361-24.985,7.982-37.858c10.217-50.188,20.441-100.373,30.906-151.95H307.136L307.136,186.903z"/>
<path id="hipercard" fill="#FFFFFF" d="M303.015,265.711c2.208-1.521,5.052-8.448,1.803-11.332c-1.029-0.913-2.75-1.178-5.151-0.772
	c-2.227,0.376-3.508,1.133-4.378,2.318c-1.399,1.905-2.681,7.652-0.515,9.787C296.883,267.79,301.61,266.679,303.015,265.711z
	 M271.595,254.379c-1.582,10.265-3.364,20.33-5.151,30.39c-11.473,0.121-23.187,0.566-34.253-0.258
	c2.09-9.842,3.589-20.276,5.666-30.132h-12.362c-4.425,25.106-8.451,50.613-13.392,75.203h12.62
	c1.98-12.614,3.831-25.356,6.438-37.344c10.76-0.265,23.656-0.727,33.996,0.258c-2.132,12.462-4.708,24.479-6.696,37.086h12.62
	c4.055-25.478,8.327-50.736,13.392-75.203H271.595L271.595,254.379z M450.072,276.013c-9.818-3.966-17.539,2.736-21.117,9.014
	c0.811-2.793,1.145-6.064,1.803-9.014h-9.788c-2.392,18.555-5.919,35.974-9.271,53.569h11.076
	c1.551-10.442,2.221-24.521,5.664-34.511c2.752-7.983,9.953-14.784,20.346-11.074C448.931,281.053,449.773,278.805,450.072,276.013z
	 M456.253,316.962c-1.021-2.637-1.285-6.99-1.031-10.302c0.574-7.441,3.285-16.501,7.471-20.603
	c5.773-5.661,17.176-4.724,26.27-1.545c0.281-3.065,0.896-5.799,1.287-8.756c-14.914-2.436-29.066-0.92-36.57,6.954
	c-7.346,7.708-12.162,25.424-8.758,36.571c3.984,13.044,21.85,13.753,36.314,8.757c0.641-2.622,0.979-5.545,1.545-8.242
	C474.876,323.901,459.765,326.036,456.253,316.962z M580.646,276.271c-9.787-4.894-17.936,3.318-21.117,8.241
	c0.904-2.526,0.957-5.909,1.801-8.499h-9.785c-2.639,18.394-5.82,36.246-9.529,53.569h11.332c0.072-7.101,1.465-12.353,2.574-19.315
	c2.369-14.868,5.846-31.171,23.18-26.27C579.677,281.482,579.916,278.63,580.646,276.271z M291.684,276.013
	c-0.3,0.043-0.28,0.407-0.258,0.772c-2.44,18.249-5.743,35.636-9.271,52.796h11.074c2.661-18.372,5.709-36.356,9.529-53.569
	L291.684,276.013L291.684,276.013z M389.035,274.983c-8.002,0.617-14.767,2.919-19.573,7.984c-5.896,6.211-10.67,19.944-9.271,32.45
	c1.995,17.843,24.211,17.202,41.979,12.877c0.302-3.131,1.061-5.809,1.545-8.756c-7.32,2.738-20.029,6.562-27.558,1.803
	c-5.685-3.594-5.717-12.693-3.863-20.604c11.942-0.381,24.354-0.307,36.313,0c0.758-5.606,2.929-11.718,1.029-17.255
	C407.132,276.173,398.162,274.28,389.035,274.983z M399.594,294.556h-26.012c0.824-5.98,6.204-12.553,14.68-12.877
	C396.239,281.374,401.952,284.608,399.594,294.556z M347.055,276.013c-9.373-3.521-20.796,0.682-25.749,4.68
	c0.019,0.176-0.118,0.2-0.263,0.213c0.084-0.071,0.175-0.142,0.263-0.213c-0.001-0.014-0.002-0.027-0.005-0.044
	c0.083-1.719,0.689-2.917,0.773-4.636h-9.529c-3.971,26.419-8.68,52.099-13.65,77.52h11.074c1.604-9.9,2.662-20.345,4.895-29.617
	c2.528,9.752,19.043,7.89,26.012,4.121C355.252,320.263,366.343,283.258,347.055,276.013z M338.298,319.538
	c-5.924,6.275-20.491,6.18-21.633-4.379c-0.497-4.594,1.214-9.411,2.061-14.164c0.856-4.811,1.473-9.427,2.317-13.65
	c5.836-7.126,22.985-7.987,24.724,3.863C347.278,301.496,343.205,314.341,338.298,319.538z M621.853,252.834
	c-0.949,8.322-2.219,16.325-3.861,23.951c-27.166-8.599-43.824,11.388-43.525,36.056c0.059,4.771,0.879,9.502,3.863,12.877
	c5.143,5.815,19.865,7.207,27.299,2.318c1.439-0.946,2.91-2.668,3.863-3.863c0.717-0.898,1.854-3.254,2.061-2.576
	c-0.391,2.614-0.975,5.036-1.029,7.984h10.045c1.936-27.768,7.92-51.485,12.361-76.748L621.853,252.834L621.853,252.834z
	 M597.128,323.658c-7.455,0.159-11.162-4.454-11.332-12.104c-0.297-13.398,5.58-28.283,17.514-29.618
	c5.557-0.621,9.578,0.671,13.65,2.061C613.222,299.046,614.572,323.284,597.128,323.658z M501.58,276.013
	c-0.545,3.06-1.381,5.829-2.061,8.756c6.535-1.639,26.885-6.663,28.846,2.06c0.65,2.898-0.473,5.977-1.287,8.242
	c-18.402-1.743-33.4,1.314-37.344,14.422c-2.643,8.779,0.295,17.42,5.924,19.832c10.838,4.645,24.021-0.676,28.586-7.984
	c-0.475,2.53-0.922,5.086-0.771,8.241h9.529c0.1-9.126,1.428-16.513,2.832-24.726c1.197-6.993,3.447-13.916,3.09-20.087
	C538.105,270.634,514.687,275.635,501.58,276.013z M519.609,319.28c-5.707,5.587-21.729,7.174-20.09-6.182
	c1.361-11.092,13.439-13.449,26.527-11.848C525.074,307.319,523.957,315.022,519.609,319.28z"/>
</svg>
