<?xml version="1.0" encoding="utf-8"?>
<!-- Generator: Adobe Illustrator 16.0.0, SVG Export Plug-In . SVG Version: 6.00 Build 0)  -->
<!DOCTYPE svg PUBLIC "-//W3C//DTD SVG 1.1//EN" "http://www.w3.org/Graphics/SVG/1.1/DTD/svg11.dtd">
<svg version="1.1" id="Layer_1" xmlns="http://www.w3.org/2000/svg" xmlns:xlink="http://www.w3.org/1999/xlink" x="0px" y="0px"
	 width="175.764px" height="105.464px" viewBox="8.496 43.646 175.764 105.464"
	 enable-background="new 8.496 43.646 175.764 105.464" xml:space="preserve">
<g>
	<path fill="#FFFFFF" d="M12.034,118.562h38.129c0,6.506,0,7.532,0,7.532v0.062l0.041,0.041c0.226,2.217,1.129,5.254,6.341,5.254
		c1.662,0,2.914-0.164,4.371-0.39c2.196-0.369,4.925-0.802,10.281-0.802c9.645,0,16.972,2.218,19.332,2.978
		c0.41,0.103,0.616,0.185,0.759,0.226c0.882,0.185,3.345,0.861,4.966,1.437l0.287,0.123l0.329-0.123
		c1.6-0.574,4.062-1.252,4.945-1.437c0.185-0.041,0.41-0.123,0.759-0.226c2.422-0.76,9.687-2.978,19.332-2.978
		c5.622,0,8.394,0.433,10.589,0.761c1.334,0.205,2.545,0.39,4.021,0.431c2.278,0.103,3.92-0.349,4.986-1.375
		c1.252-1.17,1.438-2.812,1.438-3.981c0,0,0-1.025,0-7.531h37.781l-0.062-62.861H12.034V118.562L12.034,118.562z"/>
	<polygon fill="#00539F" points="8.504,43.654 184.252,43.654 184.252,117.209 8.504,117.209 	"/>
	<path fill="#FFFFFF" d="M95.967,68.159c-35.092,0-64.151,20.215-77.941,49.05H173.89C160.077,88.559,131.019,68.159,95.967,68.159
		L95.967,68.159z"/>
	<path fill="#FFFFFF" d="M138.201,89.893c-4.063-2.545-10.938-8.127-15.699-9.317c-7.142-1.888-15.146,3.879-19.476,4.679
		c-4.37,0.759-7.49-4.022-11.553-4.105c-3.222-0.041-11.123,2.627-15.555,4.187l2.503,0.554c1.354,0.8,2.955,1.19,4.392,1.827
		l2.134,0.923c3.037,1.437,5.992,2.647,9.153,3.756c3.079,1.396,6.567,0.041,9.809-0.493l0.984-0.185l2.154-0.472
		c3.346-1.088,6.771-1.621,10.262-2.422c3.346-0.759,6.26,0.308,9.646-0.39c2.955-0.329,7.366,0.8,10.138,1.334
		C137.093,89.77,137.586,89.811,138.201,89.893L138.201,89.893z"/>
	<path fill="#65C7C4" d="M84.537,88.477l-1.724-0.759c-1.437-0.636-3.037-1.026-4.392-1.827l-2.503-0.554
		c4.433-1.56,12.333-4.228,15.555-4.187c1.786,0.042,3.386,0.985,4.905,1.93c-2.237-0.554-7.101-1.663-8.886,1.908
		C86.774,86.424,85.625,87.799,84.537,88.477L84.537,88.477z"/>
	<path fill="#E3EFEF" d="M93.259,93.074c1.724-1.252,4.33-2.648,5.254-4.29c0.596-1.026,0.943-2.093,1.129-3.037
		c0.656,0.144,1.334,0.144,2.012,0.041c4.371-0.801,12.354-6.567,19.494-4.72c4.781,1.251,10.549,3.837,14.611,6.382
		c-0.636-0.103-1.129-0.144-1.129-0.144c-2.749-0.534-6.156-0.308-9.05,0c-3.406,0.677-6.259,1.293-9.646,2.052
		c-3.488,0.8-6.875,1.334-10.281,2.422l-2.135,0.492l-0.984,0.165c-3.078,0.492-6.279,1.744-9.337,0.677L93.259,93.074
		L93.259,93.074z"/>
	<path fill="#9BD7D3" d="M117.577,80.308c-4.371,0.575-8.66,2.853-11.965,4.146c-0.082,1.437-0.186,3.755,0,5.623
		c1.129-1.211,2.955-2.627,5.932-4.146C115.483,83.961,117.002,81.868,117.577,80.308L117.577,80.308z"/>
	<path fill="#FFFFFF" d="M117.577,80.308c1.662-0.185,3.304-0.185,4.925,0.267c4.761,1.19,11.636,6.772,15.699,9.317
		c-0.615-0.082-1.108-0.123-1.108-0.123c-2.771-0.534-7.183-1.663-10.138-1.334c-3.386,0.698-6.3-0.37-9.646,0.39
		c-3.488,0.801-6.916,1.334-10.262,2.422l-2.154,0.472l-0.533,0.104c0.76-1.479,2.646-3.571,7.184-5.89
		C115.483,83.961,117.002,81.868,117.577,80.308L117.577,80.308z"/>
	<path fill="#4CB74A" d="M150.617,90.303c-3.757-0.226-7.408-1.56-10.897-2.503c-1.107-0.349-4.002-0.616-4.002-0.616
		c-2.544-0.534-5.685-0.329-8.412,0c-3.121,0.616-5.789,1.149-8.929,1.868c-3.201,0.759-6.382,1.21-9.501,2.237l-1.971,0.431
		l-0.883,0.186c-3.037,0.493-6.26,1.744-9.151,0.452c-2.854-1.026-5.665-2.463-8.476-3.797l-2.155-0.985
		c-1.334-0.534-1.97-0.759-3.427-1.56l-1.847-0.616c-1.909-0.452-3.202-0.718-4.864-1.519c-6.239-2.873-13.257-0.329-19.332,1.108
		c-3.653,0.801-7.183,1.293-10.938,1.663c-10.671,7.942-19.475,18.429-25.488,30.559l151.183-0.041
		C166.378,106.824,159.235,97.671,150.617,90.303L150.617,90.303z"/>
	<path fill="#4CB74A" d="M139.638,88.066l0.492,0.082l0.452,0.144l0.492,0.144l0.491,0.164l0.433,0.144l0.492,0.123l0.491,0.144
		l0.494,0.123l0.491,0.144l0.451,0.123l0.493,0.144l0.492,0.124l0.533,0.144l0.492,0.082l0.492,0.144l0.492,0.082l0.473,0.103
		l0.492,0.082l0.555,0.083l0.492,0.041l0.492,0.062l0.534,0.041h0.491c-0.225-0.185-0.409-0.308-0.637-0.493l-0.349-0.041
		l-0.492-0.062l-0.493-0.041l-0.492-0.082l-0.491-0.082l-0.492-0.103l-0.493-0.083l-0.492-0.144l-0.492-0.082l-0.492-0.123
		l-0.492-0.145l-0.492-0.144l-0.493-0.123l-0.431-0.144l-0.493-0.123l-0.492-0.144l-0.491-0.123l-0.451-0.144l-0.493-0.123
		l-0.492-0.144l-0.451-0.123l-0.473-0.144h0.041L139.638,88.066L139.638,88.066z"/>
	<polygon fill="#4CB74A" points="135.656,87.389 135.718,87.389 135.8,87.389 135.882,87.45 135.983,87.45 136.067,87.45 
		136.149,87.45 136.252,87.491 136.375,87.491 136.519,87.491 136.642,87.532 136.785,87.532 136.97,87.532 137.093,87.573 
		137.276,87.573 137.442,87.615 137.586,87.615 137.771,87.676 137.935,87.717 138.078,87.717 138.263,87.758 138.427,87.758 
		138.569,87.799 138.755,87.84 138.878,87.84 139.063,87.881 139.187,87.943 139.33,87.943 139.412,87.984 139.556,88.025 
		139.638,88.066 139.821,87.573 139.679,87.532 139.556,87.491 139.412,87.491 139.289,87.45 139.146,87.389 138.961,87.348 
		138.837,87.348 138.651,87.307 138.528,87.266 138.345,87.266 138.16,87.225 137.996,87.225 137.853,87.184 137.668,87.122 
		137.504,87.122 137.317,87.081 137.175,87.081 137.011,87.04 136.867,87.04 136.744,87.04 136.56,86.999 136.416,86.999 
		136.334,86.999 136.211,86.958 136.108,86.958 136.024,86.958 135.923,86.958 135.842,86.917 135.759,86.917 	"/>
	<polygon fill="#4CB74A" points="127.365,87.389 127.592,87.348 127.858,87.348 128.125,87.307 128.392,87.307 128.658,87.266 
		128.926,87.266 129.151,87.225 129.418,87.225 129.685,87.184 129.951,87.184 130.218,87.122 130.485,87.122 130.752,87.122 
		131.019,87.122 131.285,87.081 131.552,87.081 131.819,87.081 132.086,87.081 132.353,87.081 132.64,87.081 132.906,87.081 
		133.174,87.122 133.44,87.122 133.707,87.122 133.933,87.184 134.199,87.184 134.466,87.225 134.69,87.266 134.959,87.266 
		135.185,87.307 135.451,87.348 135.656,87.389 135.759,86.917 135.533,86.855 135.267,86.814 135,86.773 134.774,86.773 
		134.508,86.732 134.24,86.691 133.974,86.691 133.707,86.65 133.44,86.65 133.174,86.65 132.906,86.588 132.64,86.588 
		132.353,86.588 132.086,86.588 131.819,86.588 131.552,86.588 131.285,86.588 131.019,86.588 130.752,86.65 130.485,86.65 
		130.218,86.65 129.951,86.691 129.685,86.691 129.418,86.732 129.151,86.732 128.884,86.773 128.617,86.773 128.351,86.814 
		128.063,86.814 127.797,86.855 127.53,86.855 127.263,86.917 	"/>
	<polygon fill="#4CB74A" points="118.479,89.277 118.747,89.236 119.015,89.133 119.321,89.092 119.588,89.051 119.896,88.969 
		120.162,88.907 120.45,88.825 120.717,88.784 120.983,88.743 121.291,88.641 121.56,88.6 121.825,88.559 122.092,88.477 
		122.358,88.436 122.625,88.374 122.894,88.333 123.159,88.25 123.426,88.209 123.692,88.148 123.959,88.066 124.287,88.025 
		124.556,87.984 124.821,87.943 125.088,87.84 125.354,87.799 125.662,87.758 125.929,87.717 126.196,87.615 126.504,87.573 
		126.771,87.532 127.099,87.45 127.365,87.389 127.263,86.917 126.955,86.958 126.688,87.04 126.422,87.081 126.114,87.122 
		125.849,87.225 125.519,87.266 125.252,87.307 124.985,87.389 124.719,87.45 124.452,87.491 124.144,87.532 123.877,87.615 
		123.61,87.676 123.344,87.717 123.076,87.758 122.81,87.84 122.543,87.881 122.276,87.943 122.01,88.025 121.743,88.066 
		121.414,88.107 121.147,88.209 120.881,88.25 120.614,88.292 120.349,88.374 120.039,88.436 119.772,88.477 119.506,88.559 
		119.239,88.6 118.933,88.702 118.664,88.743 118.336,88.784 	"/>
	<polygon fill="#4CB74A" points="108.958,91.555 108.958,91.514 109.286,91.411 109.554,91.329 109.86,91.247 110.127,91.186 
		110.437,91.104 110.702,91.021 111.01,90.918 111.276,90.836 111.604,90.795 111.913,90.693 112.181,90.652 112.487,90.57 
		112.754,90.529 113.062,90.426 113.392,90.385 113.657,90.303 113.965,90.262 114.272,90.159 114.54,90.118 114.868,90.077 
		115.442,89.934 116.06,89.811 116.325,89.77 116.653,89.667 116.961,89.626 117.269,89.543 117.536,89.502 117.844,89.4 
		118.172,89.359 118.479,89.277 118.336,88.784 118.028,88.866 117.763,88.969 117.454,89.01 117.146,89.051 116.817,89.133 
		116.551,89.195 116.243,89.277 115.935,89.318 115.36,89.461 114.767,89.584 114.458,89.626 114.149,89.729 113.883,89.77 
		113.556,89.811 113.247,89.893 112.979,89.934 112.672,90.036 112.364,90.077 112.099,90.159 111.771,90.221 111.461,90.303 
		111.194,90.385 110.888,90.426 110.579,90.529 110.312,90.611 109.983,90.693 109.717,90.795 109.409,90.877 109.103,90.98 
		108.835,91.062 	"/>
	<polygon fill="#4CB74A" points="108.958,91.555 108.876,91.288 108.835,91.062 	"/>
	<polygon fill="#4CB74A" points="106.946,91.945 108.958,91.555 108.835,91.062 106.864,91.514 	"/>
	<polygon fill="#4CB74A" points="106.022,92.129 106.063,92.129 106.946,91.945 106.864,91.514 105.981,91.637 	"/>
	<polygon fill="#4CB74A" points="106.022,92.129 106.022,91.904 105.981,91.637 	"/>
	<polygon fill="#4CB74A" points="96.768,92.581 97.056,92.663 97.321,92.807 97.63,92.889 97.896,92.93 98.204,93.032 
		98.472,93.074 98.778,93.115 99.106,93.115 99.374,93.156 99.683,93.156 99.949,93.156 100.257,93.156 100.522,93.115 
		100.831,93.115 101.159,93.074 101.426,93.032 101.733,92.971 102.001,92.93 102.31,92.889 102.575,92.848 102.884,92.766 
		103.171,92.704 103.479,92.663 103.745,92.581 104.054,92.54 104.319,92.479 104.628,92.396 104.896,92.355 105.161,92.314 
		105.489,92.211 105.756,92.17 106.022,92.129 105.981,91.637 105.653,91.678 105.388,91.781 105.079,91.822 104.812,91.863 
		104.505,91.904 104.237,92.006 103.972,92.047 103.644,92.129 103.376,92.17 103.067,92.211 102.801,92.314 102.493,92.355 
		102.228,92.396 101.919,92.438 101.651,92.479 101.386,92.54 101.058,92.581 100.79,92.622 100.522,92.622 100.216,92.663 
		99.949,92.663 99.683,92.663 99.415,92.663 99.106,92.622 98.841,92.622 98.554,92.581 98.286,92.54 98.021,92.479 97.753,92.396 
		97.485,92.314 97.22,92.211 96.952,92.088 	"/>
	<polygon fill="#4CB74A" points="88.251,88.784 88.518,88.907 88.785,89.051 89.052,89.133 89.318,89.277 89.852,89.543 
		90.386,89.811 90.652,89.893 90.939,90.036 91.207,90.159 91.473,90.303 91.699,90.426 91.966,90.529 92.232,90.652 92.5,90.795 
		92.766,90.918 93.033,91.021 93.3,91.145 93.566,91.288 93.833,91.37 94.1,91.514 94.367,91.596 94.633,91.719 94.9,91.822 
		95.167,91.945 95.434,92.047 95.742,92.17 96.029,92.273 96.296,92.355 96.501,92.479 96.768,92.581 96.952,92.088 96.686,92.006 
		96.419,91.904 96.193,91.822 95.926,91.678 95.66,91.596 95.393,91.514 95.126,91.37 94.859,91.288 94.593,91.145 94.326,91.062 
		94.059,90.918 93.792,90.836 93.525,90.693 93.259,90.57 92.992,90.488 92.725,90.344 92.438,90.221 92.171,90.077 91.904,89.995 
		91.638,89.852 91.371,89.729 91.104,89.584 90.837,89.461 90.611,89.359 90.078,89.092 89.544,88.825 89.277,88.702 89.011,88.6 
		88.744,88.477 88.477,88.333 	"/>
	<polygon fill="#4CB74A" points="88.251,88.784 88.395,88.559 88.477,88.333 	"/>
	<polygon fill="#4CB74A" points="86.158,87.799 88.251,88.784 88.477,88.333 86.343,87.348 	"/>
	<polygon fill="#4CB74A" points="86.158,87.799 86.24,87.573 86.343,87.348 	"/>
	<polygon fill="#4CB74A" points="82.71,86.281 82.669,86.239 82.813,86.321 82.937,86.362 83.08,86.465 83.203,86.506 
		83.347,86.588 83.429,86.65 83.572,86.691 83.654,86.732 83.798,86.814 83.88,86.855 84.003,86.917 84.106,86.958 84.188,86.999 
		84.27,87.04 84.373,87.081 84.496,87.122 84.599,87.184 84.681,87.225 84.763,87.266 84.865,87.266 84.947,87.307 85.091,87.348 
		85.173,87.389 85.255,87.45 85.666,87.615 86.158,87.799 86.343,87.348 85.892,87.184 85.44,86.999 85.357,86.958 85.255,86.917 
		85.173,86.855 85.029,86.814 84.947,86.773 84.865,86.732 84.763,86.732 84.681,86.691 84.599,86.65 84.496,86.588 84.414,86.547 
		84.27,86.506 84.188,86.465 84.106,86.424 84.003,86.362 83.88,86.281 83.798,86.239 83.654,86.198 83.572,86.157 83.429,86.055 
		83.306,86.014 83.203,85.973 83.08,85.891 82.937,85.788 82.895,85.788 	"/>
	<polygon fill="#4CB74A" points="82.71,86.281 82.813,86.014 82.895,85.788 	"/>
	<polygon fill="#4CB74A" points="80.925,85.603 80.884,85.603 82.71,86.281 82.895,85.788 81.069,85.131 	"/>
	<polygon fill="#4CB74A" points="80.925,85.603 80.966,85.398 81.069,85.131 	"/>
	<polygon fill="#4CB74A" points="75.979,84.105 76.144,84.187 76.287,84.269 76.472,84.31 76.595,84.413 76.739,84.454 
		76.903,84.495 77.046,84.577 77.169,84.639 77.354,84.68 77.498,84.721 77.621,84.762 77.806,84.803 77.929,84.864 78.073,84.905 
		78.196,84.946 78.38,84.987 78.524,85.028 78.647,85.07 78.832,85.131 78.976,85.172 79.099,85.213 79.283,85.254 79.406,85.254 
		79.591,85.295 79.735,85.336 79.899,85.398 80.084,85.439 80.227,85.48 80.576,85.521 80.925,85.603 81.069,85.131 80.699,85.028 
		80.351,84.987 80.166,84.946 80.001,84.905 79.858,84.864 79.673,84.803 79.55,84.803 79.366,84.762 79.242,84.721 79.099,84.68 
		78.914,84.639 78.791,84.577 78.647,84.577 78.524,84.536 78.339,84.495 78.196,84.454 78.073,84.413 77.929,84.372 77.806,84.31 
		77.662,84.269 77.498,84.228 77.354,84.187 77.231,84.105 77.087,84.043 76.964,84.002 76.78,83.92 76.636,83.879 76.513,83.817 
		76.328,83.736 76.205,83.653 	"/>
	<polygon fill="#4CB74A" points="56.812,85.213 57.407,85.07 57.982,84.946 58.557,84.803 59.131,84.639 59.726,84.495 
		60.342,84.372 60.917,84.187 61.553,84.043 62.127,83.92 62.763,83.777 63.338,83.653 63.974,83.51 64.59,83.387 65.165,83.243 
		65.801,83.161 66.417,83.079 67.052,82.976 67.627,82.935 68.243,82.894 68.879,82.853 69.453,82.853 70.09,82.853 70.664,82.853 
		71.28,82.894 71.875,82.976 72.491,83.079 73.065,83.161 73.661,83.284 74.235,83.469 74.81,83.653 75.384,83.879 75.979,84.105 
		76.205,83.653 75.61,83.428 74.994,83.161 74.419,82.976 73.784,82.792 73.168,82.668 72.573,82.586 71.957,82.483 71.321,82.402 
		70.706,82.36 70.09,82.36 69.453,82.36 68.838,82.36 68.202,82.402 67.586,82.443 66.95,82.483 66.334,82.586 65.698,82.668 
		65.083,82.792 64.508,82.894 63.872,83.018 63.256,83.161 62.62,83.284 62.045,83.428 61.429,83.551 60.834,83.736 60.219,83.879 
		59.624,84.002 59.008,84.187 58.434,84.31 57.838,84.454 57.264,84.577 56.73,84.721 	"/>
	<path fill="#4CB74A" d="M45.484,86.917h0.226l0.431-0.062l0.452-0.041l0.452-0.041l0.41-0.041l0.431-0.041l0.41-0.041l0.452-0.103
		l0.431-0.041l0.411-0.041l0.452-0.042l0.39-0.062l0.452-0.082l0.411-0.042l0.431-0.041l0.41-0.103l0.452-0.041l0.39-0.082
		l0.451-0.082l0.411-0.062l0.431-0.082l0.411-0.082l0.452-0.103l0.39-0.083l0.452-0.082l0.452-0.103l0.39-0.082l-0.082-0.493
		l-0.452,0.144l-0.39,0.082l-0.452,0.082l-0.41,0.042l-0.431,0.103l-0.41,0.082l-0.452,0.082l-0.39,0.103l-0.41,0.041l-0.452,0.083
		l-0.39,0.041l-0.451,0.103l-0.41,0.042l-0.431,0.041l-0.411,0.103l-0.451,0.041l-0.39,0.041l-0.452,0.041l-0.41,0.041l-0.431,0.103
		l-0.411,0.041l-0.451,0.041l-0.431,0.042l-0.41,0.041h-0.308C45.977,86.506,45.751,86.732,45.484,86.917L45.484,86.917z"/>
	<path fill="#007E45" d="M38.732,92.581c0.308,0.267,0.636,0.759,1.026,0.534c0.493-0.308,0.452-1.108,1.129-1.108
		c0.923-0.185,1.909-0.103,2.483,0.698c0.821-0.39,1.58-1.108,2.606-0.698c0.657,0,1.252,0.349,1.867,0.205
		c0.637-0.39,0.985-1.293,1.827-0.841c0.533,0.226,0.985,0.718,1.621,0.411c0.841-0.329,0.349-1.088,0.923-1.519
		c0.185-0.226,0.534-0.185,0.759-0.144c0.8,0.452,0.862,1.97,2.011,1.745c0.636-0.349,1.129-1.026,1.868-0.944
		c0.288,0.226,0.288,0.595,0.636,0.677c0.616-0.082,0.882-0.985,1.601-0.718c0.411,0.267,0.718,0.903,1.252,0.759
		c0.226-0.267,0.185-0.944,0.718-1.149c1.128-0.411,1.662,0.616,2.278,1.108c0.452-0.226,0.308-0.944,0.985-1.026
		c1.17-0.226,2.237,0.308,3.427,0.349c0.759-0.533,1.622-1.067,2.545-0.841c0.554,0.267,0.328,0.841,0.554,1.293
		c0.349-0.123,0.842-0.39,1.19-0.185l0.493,0.41c0.226-0.451,0.677-0.677,1.169-0.677c0.76,0.103,1.375,0.76,2.217,0.493
		c0.944-0.493,1.888-1.744,3.099-0.923c0.39,0.123,0.8-0.329,1.21,0.041l0.657,0.616c0.226-0.308,0.452-0.759,0.903-0.616
		c0.492,0.041,0.759,0.349,1.149,0.657c0.985-0.308,2.237-0.534,3.181,0.062c0.616-0.329,1.457-0.677,2.175-0.329
		c0.903,0.329,0.103,1.97,1.396,1.519c0.759-0.39,1.067,0.533,1.519,0.8c0.493,0.677,1.026,1.354,1.724,1.847l-0.8,0.041
		c-5.623,1.026-11.102,1.99-16.787,2.709l-11.739,1.17c-6.608,0.082-12.58,1.93-18.572,3.611c-4.556,1.066-9.378,1.479-13.976,2.504
		c-1.436,0.35-2.853,0.76-4.248,1.17C30.298,101.282,34.32,96.686,38.732,92.581L38.732,92.581z"/>
	<path fill="#007E45" d="M164.858,105.921c-1.971-0.123-3.838-0.492-5.623-1.066c-4.411-1.025-9.234-0.268-13.399-2.012
		c-3.202-2.176-7.226-2.729-10.877-3.693c-6.444-0.862-12.949-1.479-19.332-2.381c-2.563-0.431-5.19-0.349-7.593-1.067l-0.678-0.082
		c1.025-1.211,2.359-1.622,3.92-1.478c0.328-0.308,0.719-0.534,1.17-0.349c1.437,1.19,2.627-0.821,3.939-1.129
		c0.883-0.267,1.52,1.334,2.094,0.308c0.492-0.349,1.293,0.329,1.293-0.615c0.719-0.452,1.785-0.903,2.586-0.308
		c0.185,0.164,0.349,0.575,0.678,0.616c0.656-0.226,0.841-0.985,1.561-1.252c0.922-0.267,1.948-0.123,2.709,0.411
		c0.594-0.103,1.168-0.37,1.661,0.041c0.226,1.026,1.375,0.308,1.703,1.108c0.205-0.349,0.574-0.8,1.065-0.8
		c0.904,0.144,1.746,0.37,2.586-0.041c0.679-0.041,0.863,0.759,1.294,0.903c0.534-0.41,0.452-1.437,1.354-1.354
		c1.108,0.103,0.534,1.519,1.231,1.97c0.41-0.185,0.451-0.985,1.088-0.985c0.841-0.267,1.334,1.026,2.093,0.226
		c0.802-0.226,1.067,0.616,1.416,1.067c0.72-0.349,1.313-1.067,2.155-1.19c0.718,0.082,1.334,0.534,2.011,0.657
		c0.925-0.39,1.97-0.882,2.996-0.39L150.944,94c0.533-0.041,1.189-0.349,1.519,0.267c0.082-0.308,0.205-0.657,0.533-0.8
		c0.433-0.082,0.924-0.041,1.19,0.329l0.328,0.657c0.164,0,0.309-0.083,0.432-0.185C158.56,97.835,161.924,101.733,164.858,105.921
		L164.858,105.921z"/>
	<path fill="#FAE62A" d="M29.764,102.31c5.89-1.643,11.821-3.428,18.347-3.57l11.738-1.108c5.685-0.719,11.164-1.745,16.746-2.729
		l0.842-0.083c3.181-0.759,6.526-1.026,9.789-0.328c1.56,0.267,3.161,0.492,4.679,0.862l0.677,0.123
		c2.36,0.76,5.007,0.596,7.551,1.026c6.384,0.944,12.847,1.56,19.271,2.422c3.716,0.984,7.736,1.457,10.938,3.693
		c4.166,1.704,8.988,0.985,13.4,2.012c3.304,1.067,7.142,1.437,10.712,0.843c2.504-0.576,4.393,1.396,6.793,1.252
		c1.375,0.144,2.688-0.351,4.021,0.103c0.041,0,0.123,0.041,0.227,0.041c2.236,3.304,4.229,6.731,6.013,10.303H20.386
		C23.013,111.853,26.153,106.906,29.764,102.31L29.764,102.31z"/>
	<path fill="#FAE62A" d="M24.531,109.759c1.211-0.349,2.504-0.533,3.899-0.226c1.908-0.492,4.063-1.026,6.156-1.108
		c3.386-0.574,6.464-1.826,9.769-2.586c4.597-1.066,9.419-1.438,13.975-2.545c5.992-1.703,12.026-3.488,18.572-3.611l11.8-1.13
		c5.623-0.759,11.061-1.785,16.684-2.75l0.801-0.062c3.182-0.76,6.566-1.026,9.83-0.308c1.561,0.267,3.182,0.493,4.699,0.842
		l0.615,0.103c2.4,0.738,5.049,0.574,7.594,1.066c6.383,0.943,12.908,1.52,19.331,2.359c3.653,1.026,7.675,1.521,10.938,3.756
		c1.478,0.616,3.078,0.883,4.74,1.067c2.853,3.94,5.396,8.127,7.571,12.54l-151.163,0.041
		C21.638,114.664,23.013,112.181,24.531,109.759L24.531,109.759z"/>
	<polygon fill="none" stroke="#000000" stroke-width="0.0158" stroke-miterlimit="2.6131" points="8.504,43.654 184.252,43.654 
		184.252,149.103 8.504,149.103 	"/>
	<path fill="#74C045" d="M25.742,107.851c0.082-0.104,0.185-0.227,0.267-0.369c1.663-0.492,3.304-1.026,5.048-1.375
		c3.263-0.76,6.608-1.17,9.912-1.703c1.375-0.268,2.729-0.493,4.063-0.842c3.386-0.944,6.792-1.93,10.322-2.627
		c2.668-0.555,5.397-0.943,8.25-0.985l11.739-1.128c3.037-0.391,6.033-0.883,9.029-1.375c2.545-0.452,5.13-0.944,7.757-1.334
		l0.8-0.082c3.181-0.78,6.485-1.047,9.748-0.329c1.602,0.267,3.161,0.493,4.68,0.801l0.678,0.144
		c1.724,0.533,3.611,0.616,5.521,0.801c0.678,0.04,1.396,0.122,2.071,0.267c6.383,0.944,12.888,1.561,19.332,2.36
		c1.065,0.308,2.175,0.595,3.304,0.86c2.668,0.616,5.295,1.334,7.573,2.896c0.595,0.226,1.128,0.41,1.702,0.573
		c3.756,0.986,7.9,0.533,11.697,1.438c1.971,0.615,4.104,1.026,6.301,1.108c0.227,0.308,0.39,0.573,0.615,0.901
		c0.76,1.149,1.478,2.319,2.195,3.469c0.678,1.171,1.334,2.32,1.971,3.49c0.391,0.758,0.801,1.56,1.189,2.359L20.344,117.21
		c0.39-0.801,0.841-1.602,1.251-2.4c0.616-1.17,1.293-2.319,1.95-3.49C24.265,110.169,24.983,108.999,25.742,107.851L25.742,107.851
		z"/>
	<path fill="#00539F" d="M53.713,138.162c0.226-0.062,0.534-0.062,0.862-0.062c0.882,0,1.56,0.328,2.011,0.984
		c0.472,0.678,0.759,1.438,0.759,2.278c0,0.903-0.226,1.661-0.677,2.276c-0.411,0.616-1.108,0.944-2.134,0.944
		c-0.287,0-0.554-0.041-0.821-0.103c-0.39-0.123-0.698-0.391-0.964-0.76v2.729h-2.504v-8.209h2.401v0.678
		c0.226-0.267,0.493-0.451,0.718-0.637C53.446,138.244,53.59,138.203,53.713,138.162L53.713,138.162z M53.713,142.883
		c0.41,0,0.718-0.185,0.862-0.45c0.164-0.31,0.267-0.658,0.267-1.108c0-0.452-0.103-0.802-0.226-1.067
		c-0.185-0.308-0.452-0.451-0.903-0.451c-0.39,0-0.657,0.145-0.842,0.451c-0.123,0.268-0.226,0.656-0.226,1.067
		c0,0.45,0.103,0.841,0.226,1.108C53.016,142.76,53.323,142.883,53.713,142.883L53.713,142.883z"/>
	<path fill="#00539F" d="M77.108,143.19c0.226-0.041,0.452-0.082,0.616-0.268c0.185-0.123,0.267-0.39,0.267-0.719v-0.574
		c-0.123,0.104-0.267,0.145-0.39,0.186c-0.144,0.041-0.308,0.082-0.493,0.123h-0.144c-0.267,0.103-0.431,0.144-0.575,0.226
		c-0.123,0.104-0.185,0.269-0.185,0.452c0,0.144,0.062,0.267,0.185,0.41c0.185,0.123,0.37,0.164,0.575,0.164H77.108L77.108,143.19z
		 M77.108,139.496c-0.308,0-0.492,0.041-0.636,0.185c-0.123,0.125-0.205,0.269-0.205,0.433h-2.319c0-0.616,0.267-1.108,0.739-1.457
		c0.451-0.37,1.252-0.556,2.421-0.556h0.226c1.375,0,2.237,0.186,2.586,0.597c0.308,0.39,0.493,1.026,0.493,1.825v2.545
		c0,0.309,0,0.574,0.041,0.761c0.041,0.226,0.144,0.39,0.267,0.614h-2.544c-0.041-0.082-0.041-0.185-0.082-0.308v-0.267
		c-0.267,0.267-0.595,0.451-0.944,0.533c0,0.041-0.041,0.041-0.041,0.041c-0.349,0.103-0.718,0.144-1.169,0.144
		c-0.657,0-1.19-0.144-1.642-0.451c-0.452-0.308-0.636-0.801-0.636-1.437c0-0.616,0.185-1.067,0.595-1.293
		c0.349-0.227,1.026-0.432,2.011-0.616c0.308-0.041,0.616-0.082,0.841-0.144c0.39-0.082,0.677-0.164,0.718-0.205
		c0.123-0.062,0.164-0.186,0.164-0.369c0-0.228-0.041-0.35-0.205-0.452c-0.144-0.082-0.369-0.123-0.595-0.123H77.108L77.108,139.496
		z"/>
	<path fill="#00539F" d="M95.496,143.95c-0.267,0.103-0.493,0.103-0.8,0.103c-0.903,0-1.622-0.268-2.052-0.862
		c-0.493-0.532-0.718-1.252-0.718-2.133c0-0.843,0.226-1.562,0.718-2.136c0.533-0.554,1.19-0.821,2.093-0.821
		c0.267,0,0.534,0,0.759,0.104l0.267,0.123c0.308,0.145,0.534,0.37,0.657,0.678v-0.76h2.504v5.396c0,0.842-0.226,1.521-0.657,2.094
		c-0.451,0.596-1.395,0.863-2.688,0.863h-0.082c-0.903,0-1.601-0.186-2.237-0.453c-0.616-0.308-0.985-0.86-1.108-1.601h2.504
		l0.123,0.205c0.082,0.144,0.185,0.228,0.308,0.329c0.144,0.082,0.226,0.123,0.411,0.123c0.349,0,0.636-0.186,0.759-0.452
		c0.082-0.308,0.164-0.615,0.164-0.965v-0.595C96.214,143.56,95.844,143.827,95.496,143.95L95.496,143.95z M95.496,139.806h-0.041
		c-0.308,0-0.595,0.144-0.759,0.348c-0.185,0.227-0.267,0.555-0.267,0.904c0,0.409,0.041,0.758,0.226,1.065
		c0.164,0.269,0.431,0.411,0.841,0.411h0.041c0.411,0,0.677-0.145,0.759-0.411c0.123-0.267,0.226-0.656,0.226-1.108
		c0-0.369-0.144-0.636-0.267-0.861C96.07,139.948,95.803,139.806,95.496,139.806L95.496,139.806z"/>
	<path fill="#EF3E33" d="M96.419,133.729c-1.601-0.616-4.084-1.293-5.069-1.52c-0.985-0.268-9.235-3.284-20.542-3.284
		c-9.132,0-10.835,1.19-14.816,1.19c-3.919,0-4.535-2.854-4.535-4.557v-9.051v0.041v-9.092c0-1.703,0.616-4.516,4.535-4.516
		c3.981,0,5.685,1.211,14.816,1.211c11.308,0,19.558-3.078,20.542-3.305c0.984-0.226,3.468-0.943,5.069-1.519
		c1.662,0.573,4.166,1.293,5.09,1.519c0.984,0.227,9.234,3.305,20.583,3.305c9.111,0,10.854-1.211,14.816-1.211
		c3.92,0,4.515,2.812,4.515,4.516v9.092v-0.041v9.051c0,1.703-0.595,4.557-4.515,4.557c-3.962,0-5.726-1.19-14.816-1.19
		c-11.349,0-19.599,3.019-20.583,3.284C100.585,132.437,98.081,133.113,96.419,133.729L96.419,133.729z"/>
	<path fill="#FFFFFF" d="M96.48,125.521c0,0-11.472,0-18.039,0c-6.546,0-11.554-0.267-11.554-0.267
		c-5.582-0.432-11.287-0.351-11.287-8.702c0-8.291,5.705-8.209,11.287-8.66c0,0,5.007-0.268,11.554-0.268c6.567,0,18.039,0,18.039,0
		s11.513,0,18.08,0c10.467,0,15.967,0.902,15.967,0.902c5.272,0.843,6.832,2.279,6.832,8.024c0.043,7.45-4.514,6.793-6.916,7.778
		c0,0-6.977,1.334-15.883,1.189C107.993,125.397,96.48,125.521,96.48,125.521L96.48,125.521z"/>
	<polygon fill="#00539F" points="60.362,111.257 63.667,111.257 63.667,114.869 66.088,114.869 66.088,111.257 69.392,111.257 
		69.392,122.011 66.088,122.011 66.088,118.11 63.667,118.11 63.667,121.949 60.362,121.949 	"/>
	<path fill="#00539F" d="M87.677,115.792c-0.431-0.391-1.868-0.35-2.258-0.35c-0.944,0-1.744,0.617-1.744,2.013
		c0,1.149,0.534,2.093,1.744,2.093c1.026,0,2.053-0.267,2.258-0.451v2.729c-0.431,0.45-2.401,0.532-3.017,0.532
		c-3.14,0-4.207-2.504-4.207-5.131c0-2.955,1.128-5.006,4.474-5.006c0.924,0,2.216,0.103,2.75,0.594V115.792L87.677,115.792z"/>
	<polygon fill="#00539F" points="99.374,109.778 102.638,109.778 102.638,121.949 99.374,121.949 	"/>
	<path fill="#00539F" d="M113.392,112.714h3.262v0.903c0.615-0.944,1.416-1.17,2.709-1.17c1.561,0,2.955,0.944,2.955,3.077v6.485
		h-3.221v-5.131c0-1.169-0.309-1.58-1.19-1.58c-0.759,0-1.212,0.451-1.212,1.58v5.131h-3.303V112.714L113.392,112.714z"/>
	<path fill="#00539F" d="M94.736,122.011v-5.131c0-1.169-0.308-1.58-1.211-1.58c-0.759,0-1.252,0.411-1.252,1.58v5.131h-3.242
		v-12.23h3.304v3.838h-0.062c0.636-0.944,1.437-1.17,2.729-1.17c1.519,0,2.894,0.943,2.894,3.078v6.484H94.736L94.736,122.011z"/>
	<path fill="#00539F" d="M37.255,143.58v0.862h-2.771v-0.862H37.255L37.255,143.58z M46.674,143.58
		c-0.144,0.205-0.349,0.37-0.575,0.514c-0.636,0.308-1.437,0.492-2.38,0.492c-0.882,0-1.642-0.185-2.278-0.533
		c-0.226-0.144-0.431-0.286-0.575-0.473H46.674L46.674,143.58z M63.133,143.58v0.862h-2.504v-0.862H63.133L63.133,143.58z
		 M71.034,143.58v0.862c-0.226,0-0.534,0-0.923,0.041c-0.411,0-0.636,0-0.636,0c-0.882,0-1.478-0.123-1.786-0.432
		c-0.123-0.123-0.226-0.287-0.287-0.473L71.034,143.58L71.034,143.58z M109.185,143.58v0.862h-2.401v-0.801
		c-0.267,0.309-0.533,0.574-0.903,0.719c-0.349,0.123-0.738,0.226-1.23,0.226c-0.637,0-1.17-0.185-1.621-0.533
		c-0.164-0.144-0.286-0.286-0.391-0.473H109.185L109.185,143.58z M118.562,143.58c-0.144,0.205-0.328,0.37-0.574,0.514
		c-0.635,0.308-1.437,0.492-2.359,0.492c-0.902,0-1.662-0.185-2.277-0.533c-0.246-0.144-0.451-0.286-0.596-0.473H118.562
		L118.562,143.58z M126.463,143.58v0.862c-0.267,0-0.573,0-0.985,0.041c-0.39,0-0.574,0-0.615,0c-0.861,0-1.478-0.123-1.743-0.432
		c-0.123-0.123-0.226-0.287-0.31-0.473L126.463,143.58L126.463,143.58z M136.231,143.58v0.862h-2.401v-0.801
		c-0.226,0.309-0.533,0.574-0.884,0.719c-0.368,0.123-0.758,0.226-1.25,0.226c-0.637,0-1.17-0.185-1.622-0.533
		c-0.144-0.144-0.267-0.286-0.369-0.473H136.231L136.231,143.58z M142.306,143.58v0.862h-2.441v-0.862H142.306L142.306,143.58z
		 M152.751,143.58v0.862h-2.4v-0.801c-0.268,0.309-0.596,0.574-0.902,0.719c-0.35,0.123-0.76,0.226-1.252,0.226
		c-0.678,0-1.149-0.185-1.602-0.533c-0.164-0.144-0.308-0.286-0.41-0.473H152.751L152.751,143.58z M158.825,143.58v0.862h-2.504
		v-0.862H158.825L158.825,143.58z"/>
	<path fill="#00539F" d="M34.484,143.58v-7.654h2.771v7.654H34.484L34.484,143.58z M40.867,143.58
		c-0.267-0.308-0.41-0.697-0.41-1.188h2.38c0,0.226,0.082,0.409,0.267,0.532c0.164,0.144,0.39,0.226,0.698,0.226
		c0.246,0,0.411-0.041,0.595-0.123c0.185-0.103,0.267-0.185,0.267-0.368c0-0.164-0.082-0.31-0.267-0.39
		c-0.144-0.104-0.636-0.187-1.396-0.33c-0.759-0.123-1.334-0.349-1.786-0.614c-0.39-0.31-0.616-0.72-0.616-1.252
		c0-0.72,0.308-1.212,0.944-1.52c0.616-0.309,1.334-0.452,2.134-0.452c0.903,0,1.662,0.145,2.278,0.41
		c0.575,0.309,0.903,0.801,0.903,1.521h-2.237c0-0.082-0.041-0.187-0.082-0.267c-0.062-0.041-0.144-0.146-0.287-0.228
		c-0.123-0.082-0.267-0.123-0.493-0.123c-0.226,0-0.39,0.041-0.534,0.082c-0.164,0.082-0.226,0.228-0.226,0.392
		c0,0.062,0,0.144,0.103,0.185c0.041,0.041,0.082,0.082,0.226,0.144c0.083,0.041,0.39,0.123,0.985,0.227
		c0.533,0.082,0.964,0.164,1.334,0.308c0.39,0.082,0.718,0.267,0.985,0.534c0.267,0.267,0.39,0.656,0.39,1.107
		c0,0.492-0.103,0.883-0.349,1.189L40.867,143.58L40.867,143.58z M60.629,143.58v-5.336h2.504v5.336H60.629L60.629,143.58z
		 M67.401,143.58c-0.103-0.246-0.164-0.574-0.164-0.923v-2.936h-1.108v-1.479h1.108v-1.867h2.503v1.867h1.293v1.479H69.74v2.135
		c0,0.308,0.041,0.533,0.144,0.637c0.082,0.123,0.308,0.164,0.616,0.164h0.534v0.923H67.401L67.401,143.58z M102.638,143.58
		c-0.186-0.308-0.268-0.677-0.268-1.087v-4.249h2.482v3.264c0,0.39,0.062,0.697,0.186,0.884c0.104,0.226,0.309,0.308,0.677,0.308
		c0.269,0,0.493-0.082,0.657-0.267c0.227-0.164,0.328-0.494,0.328-0.925v-3.264h2.482v5.336H102.638L102.638,143.58z
		 M112.754,143.58c-0.267-0.308-0.39-0.697-0.39-1.188h2.359c0,0.226,0.104,0.409,0.268,0.532c0.185,0.144,0.41,0.226,0.718,0.226
		c0.226,0,0.411-0.041,0.575-0.123c0.185-0.103,0.267-0.185,0.267-0.368c0-0.164-0.082-0.31-0.267-0.39
		c-0.123-0.104-0.616-0.187-1.375-0.33c-0.76-0.123-1.354-0.349-1.785-0.614c-0.411-0.31-0.637-0.72-0.637-1.252
		c0-0.72,0.328-1.212,0.943-1.52c0.637-0.309,1.334-0.452,2.154-0.452c0.883,0,1.643,0.145,2.258,0.41
		c0.637,0.309,0.903,0.801,0.903,1.521l0,0h-2.237c0-0.082-0.041-0.187-0.082-0.267c-0.041-0.041-0.144-0.146-0.267-0.228
		c-0.103-0.082-0.267-0.123-0.493-0.123s-0.41,0.041-0.533,0.082c-0.144,0.082-0.226,0.228-0.226,0.392
		c0,0.062,0.041,0.144,0.082,0.185s0.144,0.082,0.226,0.144c0.082,0.041,0.451,0.123,0.985,0.227
		c0.532,0.082,0.985,0.164,1.375,0.308c0.368,0.082,0.677,0.267,0.942,0.534c0.269,0.267,0.412,0.656,0.412,1.107
		c0,0.492-0.123,0.883-0.371,1.189L112.754,143.58L112.754,143.58z M122.81,143.58c-0.123-0.246-0.185-0.574-0.185-0.923v-2.936
		h-1.065v-1.479h1.065v-1.867h2.504v1.867h1.334v1.479h-1.334v2.135c0,0.308,0.041,0.533,0.185,0.637
		c0.082,0.123,0.309,0.164,0.576,0.164h0.573v0.923H122.81L122.81,143.58z M129.705,143.58c-0.164-0.308-0.246-0.677-0.246-1.087
		v-4.249h2.504v3.264c0,0.39,0.041,0.697,0.123,0.884c0.144,0.226,0.308,0.308,0.677,0.308c0.268,0,0.493-0.082,0.719-0.267
		c0.164-0.164,0.268-0.494,0.268-0.925v-3.264h2.482v5.336H129.705L129.705,143.58z M139.862,143.58v-7.654h2.443v7.654H139.862
		L139.862,143.58z M146.185,143.58c-0.164-0.308-0.268-0.677-0.268-1.087v-4.249h2.504v3.264c0,0.39,0.041,0.697,0.186,0.884
		c0.082,0.226,0.309,0.308,0.656,0.308c0.287,0,0.492-0.082,0.678-0.267c0.226-0.164,0.309-0.494,0.309-0.925v-3.264h2.503v5.336
		H146.185L146.185,143.58z M156.321,143.58v-5.336h2.504v5.336H156.321L156.321,143.58z M158.825,135.926v1.642h-2.504v-1.642
		H158.825L158.825,135.926z M63.133,135.926v1.642h-2.504v-1.642H63.133L63.133,135.926z"/>
	<path fill="#00539F" d="M75.056,119.671c0.718,0,1.786-0.431,1.786-2.216c0-1.786-1.067-2.196-1.786-2.196
		c-0.677,0-1.785,0.41-1.785,2.196C73.271,119.24,74.378,119.671,75.056,119.671L75.056,119.671z M75.056,112.099
		c1.827,0,4.597,0.984,4.597,5.172s-2.771,5.172-4.597,5.172c-1.785,0-4.597-0.984-4.597-5.172S73.271,112.099,75.056,112.099
		L75.056,112.099z"/>
	<path fill="#00539F" d="M108.342,118.337c-0.041,0.042-0.082,0.042-0.082,0.042c-0.308,0.103-0.983,0.328-0.983,0.943
		c0,0.493,0.492,0.678,0.759,0.678c0.123,0,0.226,0,0.308-0.042c0.76-0.143,1.17-0.82,1.067-2.011
		C109.409,118.11,108.917,118.173,108.342,118.337L108.342,118.337z M108.342,121.908c-0.349,0.185-0.759,0.368-1.293,0.368
		c-1.907,0-3.077-0.758-3.077-2.729c0-2.668,2.995-2.854,4.37-3.386c0.452-0.185,0.72-0.37,0.72-0.679
		c-0.041-0.491-0.369-0.614-0.72-0.655c-0.123-0.062-0.267-0.062-0.45-0.062c-1.149,0-1.949,0.45-3.201,1.086v-2.543
		c1.024-0.862,2.235-1.088,3.569-1.088h0.082c1.662,0,3.757,0.45,3.757,3.262v6.526h-2.955v-0.718
		C109.062,121.375,108.794,121.683,108.342,121.908L108.342,121.908z"/>
	<path fill="#00539F" d="M127.571,119.548h0.062c0.615,0,1.601-0.451,1.601-2.236s-0.984-2.176-1.601-2.176h-0.062
		c-0.616,0-1.602,0.432-1.602,2.176C125.972,119.056,126.955,119.507,127.571,119.548L127.571,119.548z M129.233,121.252
		c-0.369,0.431-0.903,0.8-1.662,0.923c-0.206,0.041-0.493,0.104-0.801,0.104c-2.504,0-3.529-2.729-3.529-5.232
		c0-2.012,0.984-4.986,3.673-4.986c0.226,0,0.451,0,0.657,0.082c0.718,0.144,1.293,0.573,1.621,1.107h0.041v-2.895h3.222v11.656
		h-3.222V121.252L129.233,121.252z"/>
</g>
</svg>
