<?xml version="1.0" encoding="utf-8"?>
<!-- Generator: Adobe Illustrator 16.0.0, SVG Export Plug-In . SVG Version: 6.00 Build 0)  -->
<!DOCTYPE svg PUBLIC "-//W3C//DTD SVG 1.1//EN" "http://www.w3.org/Graphics/SVG/1.1/DTD/svg11.dtd">
<svg version="1.1" id="Layer_1" xmlns="http://www.w3.org/2000/svg" xmlns:xlink="http://www.w3.org/1999/xlink" x="0px" y="0px"
	 width="255.116px" height="105.99px" viewBox="14.174 88.737 255.116 105.99"
	 enable-background="new 14.174 88.737 255.116 105.99" xml:space="preserve">
<g>
	<g>
		<g>
			<path fill="#00AEEF" d="M171.175,115.363c0,0,2.368-2.367,2.368-6.464s-3.072-11.074-11.969-15.042
				c-8.896-3.968-14.209-5.12-23.042-5.12c-11.457,0-22.656,3.712-30.785,9.92s-10.944,10.241-13.057,16.641
				c0,0-7.36-0.319-19.777,1.665c-12.417,1.984-20.033,5.057-20.033,5.057s12.225-2.049,26.241-2.817
				c14.017-0.767,20.033,0.705,20.033,0.705s-2.176-2.304-2.176-7.104c0-4.8,2.88-9.728,10.176-14.145
				c7.297-4.416,17.218-6.656,25.602-6.656c8.385,0,13.963,1.19,19.585,3.329c7.745,2.944,11.138,6.528,11.138,6.528
				s-4.736-3.2-8.705-4.608c-3.967-1.408-9.791-2.816-16.577-2.816c-6.784,0-16.32,1.792-22.401,5.439
				c-6.08,3.648-10.497,8.32-10.497,15.361c0,5.376,3.457,8.769,3.457,8.769s-13.634-1.729-27.522-1.729
				c-13.888,0-30.338,1.92-40.963,3.329c-10.624,1.409-16.833,3.777-16.833,3.777s17.025-1.92,23.682-2.304
				c6.656-0.385,24.645-1.436,40.131-1.024c24.065,0.64,38.595,3.329,38.595,3.329s-1.536-1.344-4.032-2.368
				c-2.497-1.024-5.185-1.601-5.185-1.601s-5.633-4.224-5.633-9.537c0-5.312,4.585-11.467,12.993-14.401
				c9.536-3.329,16.704-2.624,16.704-2.624s-7.104,0.513-12.864,3.392c-5.76,2.88-10.24,7.232-10.24,13.057
				c0,5.825,5.312,11.521,15.425,14.657c10.113,3.137,18.434,3.457,18.434,3.457s-8.833-1.984-14.785-5.313
				c-5.953-3.328-10.817-7.233-10.817-12.544c0-8.192,11.201-13.697,21.441-13.697s15.994,3.969,18.626,6.4
				C171.236,111.331,171.175,115.363,171.175,115.363z"/>
			<path fill="#00AEEF" d="M132.131,117.924c0,0,2.048,5.76,20.93,5.76c13.569,0,22.594-2.112,35.715-2.112
				s25.218,1.344,36.033,3.648c10.817,2.304,16.387,5.185,16.387,5.185s-5.057-1.665-12.354-3.008
				c-7.296-1.343-15.297-1.919-23.297-1.919c-13.697,0-38.402,3.007-49.027,3.007s-16.448-2.304-20.033-4.736
				C132.9,121.316,132.131,117.924,132.131,117.924z"/>
		</g>
		<rect x="14.174" y="135.716" fill="#0065A4" width="9.536" height="39.938"/>
		<polygon fill="#0065A4" points="53.6,161.19 53.6,175.656 63.136,175.656 63.136,135.716 53.6,135.716 53.6,153.766 
			25.118,153.766 		"/>
		<polygon fill="#0065A4" points="90.785,151.078 76.896,135.844 64.225,135.844 85.346,157.861 85.346,175.656 95.074,175.656 
			95.074,157.733 116.195,135.972 104.931,135.972 		"/>
		<path fill="#0065A4" d="M166.822,155.365c0,14.145-8.896,20.291-23.809,20.291c-14.914,0-25.924,0-25.924,0v-39.748
			c0,0,16.321,0,28.547,0C156.454,135.908,166.822,141.221,166.822,155.365z M144.549,142.821c-9.089,0-17.793,0-17.793,0v25.281
			c0,0,7.489,0,15.169,0c7.681,0,15.104-2.817,15.104-12.354S150.629,142.821,144.549,142.821z"/>
		<path fill="#0065A4" d="M201,142.628c-2.816,0-21.889,0-21.889,0v33.025h-9.475V135.78c0,0,30.658,0,36.354,0
			s8.063,3.328,8.063,6.785c0,3.455,0,6.912,0,11.265c0,4.354-4.416,6.721-8.961,6.721h-3.968l13.825,12.416l21.568-37.12h9.346
			l23.425,39.81h-10.688l-3.969-5.76l-21.824-8.064h17.664L241,143.462l-18.049,32.258h-16.002l-24.258-21.891
			c0,0,16.832,0,18.816,0s3.2-1.022,3.2-2.815c0-1.792,0-4.929,0-6.399C204.711,143.141,202.793,142.628,201,142.628z"/>
		<polygon fill="#0065A4" points="53.343,186.727 50.655,186.727 55.391,194.727 57.119,194.727 61.663,186.792 59.295,186.792 
			56.352,191.718 		"/>
		<path fill="#0065A4" d="M69.983,186.664c1.217,0,5.185,0,6.081,0s1.855,0.703,1.855,1.471c0,0.771,0,4.545,0,5.121
			s-0.703,1.408-1.983,1.408s-5.633,0-6.593,0c-0.96,0-1.729-0.641-1.729-1.664s0-4.16,0-4.929
			C67.615,187.302,68.703,186.664,69.983,186.664z M75.808,188.455h-5.824v4.225h5.824V188.455z"/>
		<path fill="#0065A4" d="M95.842,190.568c0,2.816-2.305,4.031-3.904,4.031c-1.601,0-6.272,0-6.272,0v-7.936c0,0,3.52,0,5.888,0
			C93.537,186.664,95.842,187.75,95.842,190.568z M91.233,188.52c-1.28,0-3.2,0-3.2,0v4.157c0,0,2.048,0,3.328,0
			c1.28,0,2.111-0.639,2.111-2.111C93.473,189.095,92.258,188.52,91.233,188.52z"/>
		<polygon fill="#0065A4" points="111.458,186.792 108.066,186.792 104.098,189.479 104.098,186.792 101.602,186.792 
			101.602,194.599 104.034,194.599 104.034,191.656 108.387,194.599 112.227,194.599 106.21,190.439 		"/>
		<path fill="#0065A4" d="M121.956,186.727h2.304l4.736,8h-2.688l-0.96-1.663h-4.672l-0.96,1.6h-2.561L121.956,186.727z
			 M121.764,191.208h2.496l-1.28-2.433L121.764,191.208z"/>
		<path fill="#0065A4" d="M166.822,186.727h2.304l4.735,8h-2.688l-0.961-1.663h-4.673l-0.959,1.6h-2.562L166.822,186.727z
			 M166.63,191.208h2.496l-1.28-2.433L166.63,191.208z"/>
		<polygon fill="#0065A4" points="148.709,191.144 146.854,186.792 144.357,186.792 147.621,194.664 149.285,194.664 
			151.396,190.055 153.445,194.535 154.98,194.535 158.182,186.727 156.006,186.727 154.277,191.016 152.484,186.792 
			150.693,186.792 		"/>
		<polygon fill="#0065A4" points="183.529,194.599 183.529,188.457 187.37,188.457 187.37,186.792 177.448,186.792 177.448,188.457 
			181.289,188.457 181.289,194.599 		"/>
		<polygon fill="#0065A4" points="193.641,186.727 202.154,186.727 202.154,188.261 196.009,188.261 196.009,189.607 
			199.594,189.607 199.658,191.462 196.074,191.462 196.074,192.808 202.219,192.808 202.219,194.666 193.706,194.666 		"/>
		<path fill="#0065A4" d="M218.348,187.943c0,0.896,0,1.217,0,2.432c0,1.537-2.177,1.537-2.177,1.537l3.328,2.752h-3.394
			l-3.199-2.815h-1.473v2.815h-2.177v-8c0,0,5.377,0,7.041,0C217.45,186.664,218.348,187.046,218.348,187.943z M215.467,188.392
			c-0.832,0-4.031,0-4.031,0v1.727c0,0,3.521,0,4.097,0C216.105,190.119,216.361,188.392,215.467,188.392z"/>
		<polygon fill="#0065A4" points="259.809,135.851 259.809,136.776 257.957,136.776 257.957,141.553 256.883,141.553 
			256.883,136.776 255.031,136.776 255.031,135.851 		"/>
		<polygon fill="#0065A4" points="263.992,141.516 265.398,137.518 265.398,141.479 266.621,141.479 266.621,135.851 
			264.658,135.851 263.398,139.516 262.141,135.851 260.18,135.851 260.18,141.479 261.4,141.479 261.4,137.518 262.807,141.516 		
			"/>
	</g>
</g>
</svg>
