<?xml version="1.0" encoding="utf-8"?>
<!-- Generator: Adobe Illustrator 16.0.0, SVG Export Plug-In . SVG Version: 6.00 Build 0)  -->
<!DOCTYPE svg PUBLIC "-//W3C//DTD SVG 1.1//EN" "http://www.w3.org/Graphics/SVG/1.1/DTD/svg11.dtd">
<svg version="1.1" id="Layer_1" xmlns="http://www.w3.org/2000/svg" xmlns:xlink="http://www.w3.org/1999/xlink" x="0px" y="0px"
	 width="187.099px" height="185.073px" viewBox="265.833 267.837 187.099 185.073"
	 enable-background="new 265.833 267.837 187.099 185.073" xml:space="preserve">
<g>
	<path fill="#1E355B" d="M393.826,446.471c-32.529,12.578-70.48,6.506-96.503-16.264c-28.843-25.156-38.602-64.625-26.24-99.757
		c10.626-32.53,43.372-58.336,76.552-61.806c35.564-4.771,71.348,11.928,90.865,42.072c19.951,29.059,18.867,71.78-1.084,100.624
		C427.006,427.387,410.524,439.531,393.826,446.471L393.826,446.471z"/>
	<path fill="#FFFFFF" d="M394.26,444.52c-31.661,13.013-72.431,6.939-97.587-17.35c-25.373-22.553-34.698-57.902-26.24-89.347
		c7.807-33.396,39.686-61.372,72.866-66.794c35.782-6.505,71.781,8.892,92.6,38.818c19.733,27.325,20.602,71.781,1.085,99.541
		C426.355,425.002,411.175,438.014,394.26,444.52L394.26,444.52z"/>
	<path fill="#1E355B" d="M395.778,440.398c-29.71,14.098-68.962,8.674-93.901-12.578c-25.373-20.603-36.433-54.865-29.06-86.744
		c7.157-34.048,38.168-62.457,72.215-67.228c32.528-5.638,66.793,8.023,86.745,35.565c20.817,26.891,21.469,68.312,3.687,96.503
		C425.922,420.881,411.608,433.676,395.778,440.398L395.778,440.398z"/>
	<path fill="#EF8136" d="M388.559,371.594c-0.481,0.643-2.027,1.586-2.991,1.426c-0.062,0.039,0.502,0.603,1.044,0.844
		c0.854,0.38,1.423-0.372,2.227-0.934l1.082,55.529c-0.492,2.346-3.283,5.67-4.048,5.697c-0.672,0.022-4.199-2.705-5.644-5.209
		v-59.68h-1.039v72.647h1.021v-6.826c0,0,1.339,1.688,5.436,1.928c4.097,0.242,8.593-0.479,8.593-0.479
		c0.456,0.104,5.503-6.685,6.169-8.182l2.401-5.408l5.424,0.194c2.356,0.084,4.494-1.512,5.085-3.795c0,0,1.107-4.299,1.708-6.623
		c2.075-0.371,5.603-1.002,5.604-1.002c2.416-0.432,4.18-2.606,4.101-5.061c0,0-0.131-4.055-0.205-6.396l5.415-2.407
		c2.153-0.957,3.388-3.413,2.868-5.716c0,0-0.96-4.248-1.484-6.574c1.793-1.348,4.936-3.704,4.936-3.704
		c1.88-1.408,2.546-3.986,1.585-6.13l-2.771-6.184l4.172-4.797c1.58-1.816,1.621-4.592,0.097-6.455l-3.637-4.445l2.75-5.922
		c0.946-2.04,0.398-4.587-1.304-6.057c0,0-3.03-2.618-4.632-4l1.297-6.481c0.419-2.1-0.556-4.358-2.37-5.493l-5.075-3.172v-6.21
		c0-2.224-1.547-4.303-3.678-4.942c0,0-3.961-1.188-6.229-1.868c-0.227-2.342-0.621-6.416-0.621-6.416
		c-0.231-2.404-2.225-4.342-4.635-4.508c0,0-3.958-0.273-6.075-0.418l-2.809-6.049c-0.918-1.977-3.073-3.211-5.243-3.001
		l-6.695,0.647c-1.172-1.757-3.319-4.981-3.319-4.981c-1.271-1.903-3.76-2.743-5.923-1.998l-6.182,2.132
		c-1.544-1.47-4.346-4.138-4.346-4.138c-1.677-1.597-4.31-1.85-6.258-0.602l-5.113,3.272l-5.453-3.565
		c-1.956-1.279-4.601-1.035-6.29,0.58l-4.945,4.73l-5.503-2.038c-2.109-0.782-4.606-0.03-5.935,1.788c0,0-2.695,3.688-4.111,5.625
		c-2.064-0.369-5.67-1.013-5.67-1.013c-2.307-0.412-4.703,0.918-5.574,3.095l-2.561,6.402c-2.161,0.075-5.834,0.202-5.834,0.202
		c-2.34,0.081-4.362,1.808-4.807,4.107c0,0-0.857,4.429-1.3,6.717c-2.213,0.664-6.474,1.942-6.474,1.942
		c-2.241,0.672-3.758,2.854-3.607,5.189l0.427,6.613c-1.762,1.027-4.814,2.808-4.814,2.808c-1.894,1.104-2.916,3.377-2.486,5.528
		l1.319,6.6l-4.179,3.97c-1.544,1.468-2.055,3.868-1.24,5.836c0,0,1.776,4.29,2.645,6.39c-1.303,1.737-3.883,5.175-3.883,5.175
		c-1.393,1.857-1.331,4.506,0.148,6.295l4.009,4.854c-0.883,2.136-2.597,6.277-2.597,6.277c-0.902,2.18-0.103,4.811,1.86,6.117
		c0,0,3.058,2.039,4.841,3.227c-0.375,2.322-1.057,6.556-1.057,6.556c-0.356,2.202,0.846,4.502,2.858,5.469l5.052,2.426
		c0.073,2.129,0.207,6.013,0.207,6.013c0.078,2.26,1.729,4.284,3.926,4.813c0,0,3.897,0.941,6.045,1.461l1.507,6.676
		c0.522,2.308,2.699,3.994,5.066,3.92c0,0,3.931-0.122,6.396-0.198l1.688,5.332c0,0,1.266,6.557,2.23,7.039
		c0.964,0.479,9.645,0.772,11.897,0.696c2.085-0.067,5.899-2.073,5.899-2.073v6.905h0.928v-72.815h-0.928v59.323
		c0,0-4.545,5.623-5.991,5.623c0,0-3.337-3.118-4.301-5.286c-0.34-0.767,0.486-31.22,0.549-54.121l0.06-1.988
		c0.321,0.383,0.862,0.764,1.685,0.514c0.771-0.236,0.863-0.803,0.803-0.844c-0.964,0.16-2.269-0.783-2.751-1.426
		c0,0,0.446-9.443,1.41-15.226c2.518-15.107,10.296-27.71,28.972-27.766c20.868-0.062,27.239,18.595,28.687,28.715
		C388.45,359.501,389.522,370.148,388.559,371.594L388.559,371.594z"/>
	<path fill="#FFFFFF" d="M323.319,429.846l-3-8.633c-0.161-0.51-0.73-0.912-1.265-0.896l-8.34,0.262
		c-0.534,0.018-1.066-0.396-1.185-0.918l-1.821-8.064c-0.117-0.52-0.638-1.049-1.158-1.174l-7.43-1.793
		c-0.519-0.127-0.959-0.666-0.977-1.199l-0.254-7.375c-0.019-0.534-0.428-1.159-0.909-1.393l-6.281-3.015
		c-0.481-0.231-0.806-0.852-0.72-1.379l1.296-8.043c0.085-0.526-0.208-1.201-0.653-1.496l-6.095-4.063
		c-0.444-0.297-0.641-0.942-0.437-1.437l3.113-7.522c0.205-0.492,0.093-1.233-0.247-1.646l-4.867-5.893
		c-0.34-0.412-0.356-1.098-0.036-1.525l4.618-6.157c0.321-0.427,0.416-1.181,0.212-1.674l-3.113-7.522
		c-0.204-0.493-0.055-1.198,0.333-1.566l5.018-4.767c0.388-0.368,0.619-1.098,0.514-1.621l-1.547-7.735
		c-0.104-0.523,0.187-1.172,0.648-1.441l6.033-3.52c0.461-0.269,0.811-0.925,0.776-1.458l-0.518-8.021
		c-0.034-0.533,0.356-1.094,0.868-1.248l7.778-2.333c0.511-0.153,1.013-0.708,1.114-1.232l1.559-8.053
		c0.102-0.524,0.621-0.969,1.154-0.987l7.376-0.254c0.534-0.018,1.133-0.439,1.332-0.935l3.133-7.835
		c0.199-0.496,0.791-0.826,1.317-0.731l7.084,1.265c0.525,0.093,1.213-0.183,1.528-0.613l4.958-6.786
		c0.314-0.431,0.982-0.632,1.483-0.447l6.854,2.539c0.501,0.186,1.227,0.035,1.611-0.334l5.986-5.726
		c0.385-0.369,1.067-0.432,1.515-0.14l6.728,4.399c0.448,0.292,1.181,0.296,1.63,0.008l6.396-4.093
		c0.449-0.288,1.135-0.222,1.521,0.146l5.341,5.086c0.387,0.369,1.116,0.527,1.621,0.354l7.481-2.58
		c0.505-0.173,1.159,0.047,1.457,0.492l4.062,6.095c0.295,0.444,0.973,0.766,1.504,0.715l8.027-0.777
		c0.531-0.052,1.148,0.303,1.375,0.787l3.358,7.234c0.226,0.485,0.846,0.912,1.377,0.948l7.381,0.509
		c0.531,0.036,1.011,0.501,1.062,1.033l0.776,8.026c0.052,0.531,0.512,1.092,1.023,1.246l7.777,2.333
		c0.512,0.154,0.931,0.716,0.931,1.25v7.376c0,0.534,0.37,1.202,0.823,1.485l6.063,3.79c0.452,0.283,0.736,0.942,0.634,1.466
		l-1.547,7.734c-0.104,0.523,0.14,1.238,0.545,1.586l5.598,4.835c0.404,0.349,0.551,1.031,0.325,1.515l-3.358,7.234
		c-0.225,0.485-0.132,1.219,0.206,1.633l4.553,5.565c0.339,0.411,0.329,1.079-0.021,1.483l-5.151,5.924
		c-0.351,0.402-0.458,1.132-0.238,1.617l3.381,7.545c0.219,0.488,0.048,1.15-0.379,1.472l-6.157,4.616
		c-0.428,0.32-0.681,1.011-0.562,1.529l1.82,8.064c0.118,0.521-0.185,1.125-0.673,1.344l-6.899,3.066
		c-0.487,0.217-0.874,0.83-0.855,1.362l0.259,8.019c0.017,0.535-0.399,1.049-0.925,1.143l-7.084,1.267
		c-0.525,0.094-1.065,0.594-1.199,1.11l-2.084,8.078c-0.134,0.519-0.68,0.924-1.213,0.906l-7.056-0.252
		c-0.533-0.021-1.147,0.365-1.365,0.852l-3.065,6.9c-0.218,0.488-0.652,0.535-0.972,0.104c0,0-3.921-5.321-2.958-9.819
		c0.965-4.498,4.73-12.613,4.73-12.613c0.227-0.484,0.231-1.279,0.014-1.766c0,0-3.779-8.432-3.458-9.717
		c0.319-1.285,3.67-3.347,3.67-3.347c0.455-0.28,0.562-0.856,0.238-1.28c0,0-3.589-4.691-3.589-5.976
		c0-1.285,2.561-4.103,2.561-4.103c0.36-0.396,0.36-1.041,0-1.436c0,0-2.561-2.818-2.561-4.102c0-1.285,2.125-2.938,2.125-2.938
		c0.423-0.327,0.562-0.981,0.312-1.452l-1.656-3.105c-0.252-0.473-0.237-1.234,0.031-1.695l1.271-2.18
		c0.27-0.461,0.181-1.146-0.197-1.524l-1.519-1.518c-0.379-0.378-0.503-1.082-0.275-1.566l1.428-3.06
		c0.227-0.484,0.061-1.142-0.366-1.462l-2.302-1.727c-0.428-0.32-0.671-1.006-0.541-1.524l0.812-3.257
		c0.132-0.518-0.154-1.137-0.633-1.376l-2.118-1.06c-0.478-0.239-0.782-0.863-0.678-1.387l0.583-2.915
		c0.104-0.524-0.24-1.028-0.767-1.121l-3.55-0.626c-0.524-0.093-0.98-0.605-1.014-1.138l-0.207-3.523
		c-0.03-0.533-0.493-0.941-1.024-0.908l-3.203,0.2c-0.532,0.034-1.089-0.359-1.235-0.873l-0.752-2.63
		c-0.146-0.514-0.699-0.876-1.229-0.805l-2.896,0.386c-0.529,0.07-1.169-0.257-1.42-0.729l-1.656-3.106
		c-0.251-0.471-0.842-0.649-1.312-0.396l-2.467,1.329c-0.471,0.253-1.149,0.138-1.511-0.255l-2.223-2.423
		c-0.36-0.394-0.989-0.434-1.397-0.089l-2.692,2.279c-0.407,0.345-1.097,0.374-1.531,0.063l-2.917-2.084
		c-0.435-0.311-1.07-0.229-1.412,0.182l-1.969,2.363c-0.342,0.411-1.02,0.562-1.503,0.339l-2.413-1.114
		c-0.485-0.224-1.118-0.04-1.407,0.41l-1.841,2.864c-0.289,0.449-0.956,0.741-1.481,0.648l-3.549-0.626
		c-0.525-0.093-1.104,0.243-1.283,0.746l-0.953,2.669c-0.18,0.502-0.76,0.972-1.289,1.042l-2.895,0.386
		c-0.53,0.07-0.992,0.564-1.027,1.097l-0.191,2.881c-0.036,0.533-0.481,1.099-0.992,1.259l-3.287,1.027
		c-0.51,0.16-0.835,0.717-0.724,1.239l0.557,2.599c0.112,0.522-0.191,1.134-0.677,1.36l-3.059,1.428
		c-0.484,0.226-0.725,0.819-0.532,1.317l0.909,2.364c0.191,0.499,0.04,1.214-0.339,1.592l-2.16,2.161
		c-0.377,0.378-0.504,1.083-0.279,1.568l1.114,2.414c0.224,0.485,0.149,1.235-0.164,1.667l-1.429,1.963
		c-0.313,0.431-0.309,1.134,0.013,1.562l1.726,2.301c0.321,0.428,0.341,1.141,0.044,1.584l-2.136,3.205
		c-0.296,0.443-0.261,1.146,0.077,1.559l1.662,2.031c0.337,0.414,0.372,1.115,0.075,1.559c0,0-2.03,3.049-2.03,4.334
		c0,1.283,1.512,2.58,1.512,2.58c0.405,0.349,0.567,1.035,0.359,1.527c0,0-1.94,4.588-2.272,6.414
		c-0.481,2.65,3.811,3.738,3.775,4.096c-0.481,4.98-3.548,10.556-3.548,10.556c-0.258,0.469-0.267,1.239-0.021,1.713
		c0,0,4.693,8.51,4.693,12.953C325.488,424.143,324.122,428.801,323.319,429.846L323.319,429.846z"/>
	<path fill="#FFFFFF" d="M330.397,426.275c0.142,2.192,1.525,4.911,2.806,5.666c1.783-0.916,3.686-3.929,3.686-5.855
		s0.218-2.82-0.434-3.686c-0.867,0.864-2.578,2.407-3.18,2.407c-0.604,0-2.024-1.76-2.458-2.407
		C330.293,423.859,330.071,424.961,330.397,426.275L330.397,426.275z"/>
	<path fill="#FFFFFF" d="M385.368,420.014c-1.45,0-2.71-3.469-3.361-5.639v-40.119c0.651-0.867,1.747-0.24,2.711,0
		c0.964,0.242,0.97,0.648,1.085,1.518c0.241,1.808,2.35,37.915,2.168,38.818C387.551,416.697,386.573,420.014,385.368,420.014
		L385.368,420.014z"/>
	<path fill="#FFFFFF" d="M333.717,420.014c1.451,0,2.711-3.469,3.361-5.639v-40.119c-0.65-0.867-1.747-0.24-2.71,0
		c-0.964,0.242-0.969,0.648-1.084,1.518c-0.241,1.808-2.35,37.915-2.168,38.818C331.534,416.697,332.512,420.014,333.717,420.014
		L333.717,420.014z"/>
	<path fill="#FFFFFF" d="M379.08,350.401c-1.952-0.217-1.952-2.385-3.47-3.253c-5.855-5.638-14.313-4.771-21.253-4.771
		c-6.072,0.65-12.145,2.603-15.181,8.674c-1.085-1.084,0-3.687,0.435-5.421c1.734-3.903,3.687-8.674,7.807-11.06
		c7.807-3.254,18-3.687,25.373,0.867c3.47,4.337,6.289,9.325,6.723,14.747L379.08,350.401L379.08,350.401z"/>
	<path fill="#FFFFFF" d="M376.911,361.027c-3.253-0.65-5.205,2.602-7.809,3.469c-0.648,0.869-0.217,2.17,0.219,3.254
		c1.733,1.084,4.771,1.518,3.902,4.771c0.867,0.649,3.036,0.867,1.735,2.385c-0.651,1.086-2.386,1.951-3.471,0.867
		c-1.734-1.301-1.951-4.336-4.338-4.336c-2.385,1.301-4.119-1.304-6.505-1.086c-3.036,1.953-5.422-1.734-8.241,1.303
		c-1.084-1.086-2.386,0-3.036,0.867c-1.084,1.084-0.65,4.119-2.819,3.252c-3.036-4.553,6.289-6.939,3.47-11.928
		c-0.867-1.519-3.687-0.65-3.47-3.035c-1.734-0.869-5.205-1.302-4.337-4.121c0.867-2.386,3.469-2.386,3.688-4.771
		c1.518-1.301,3.47-2.168,5.421-1.518c0.434,0.217,1.301,0.65,1.301,1.518c-2.603,0-5.205-0.434-6.939,1.951
		c0.651,2.169,3.253,1.952,4.988,2.169c2.386-1.518,5.855-1.518,7.374-4.554c0.434-0.434,1.084-0.434,1.735-0.651
		c0.434,1.301,1.084,2.819,2.385,3.687c3.036-1.952,3.904,2.819,7.374,1.734c1.733-0.434,3.47-1.084,4.771-1.952
		c0.435-1.518-1.518-1.735-2.168-2.385l-4.555-0.434c0-1.084,1.301-1.518,2.386-1.518c3.253,0.217,4.337,4.12,7.59,4.988
		C378.429,356.69,378.429,359.726,376.911,361.027L376.911,361.027z"/>
	<path fill="#1E355B" d="M371.272,341.077c-7.373-2.169-16.697-2.386-24.071,0.216c0.217-1.735,3.036-2.385,4.771-3.037
		c4.988,0,9.977-0.433,14.963,0c0.65-0.433,0.65-1.3,0-1.517l-2.386-1.084c-5.204,0.217-11.06-1.084-15.396,1.301l-0.65-0.65
		c5.205-3.687,11.277-1.735,17.348-1.735c4.988-0.217,8.241,4.337,9.978,8.457C374.742,345.197,373.225,341.077,371.272,341.077
		L371.272,341.077z"/>
	<path fill="#1E355B" d="M368.454,358.208c-0.362,0.482-3.374-1.711-3.254-1.952C365.491,355.676,368.814,357.727,368.454,358.208
		L368.454,358.208z"/>
	<path fill="#FFFFFF" d="M365.465,382.834c-0.964,0-4.457-0.916-5.902-0.916s-7.156,2.096-8.023-0.939
		c4.795-0.071,5.23-2.965,8.023-2.965c2.53,0,3.639,3.301,7.471,2.459C367.634,381.34,366.43,382.834,365.465,382.834
		L365.465,382.834z"/>
	<path fill="#FFFFFF" d="M353.49,374.039c3.47-2.771,3.796,0.127,8.241-1.084c1.552-0.424,2.818,0.867,4.119,1.518
		C364.236,374.039,357.417,375.221,353.49,374.039L353.49,374.039z"/>
	<path fill="#1E355B" d="M348.72,358.643c-0.217-0.217-0.434-0.651-0.434-0.868c1.518,0,3.253-1.301,4.554-1.084
		C351.755,357.558,350.454,358.643,348.72,358.643L348.72,358.643z"/>
	<path fill="#1E355B" d="M442.527,426.539l1.769,4.479l1.642-4.479h1.744v6.26h-1.15v-5.166l-1.921,5.166h-0.65l-2.024-5.166v5.166
		h-1.115v-6.26H442.527L442.527,426.539z M439.409,426.539v0.93h-2.001v5.33h-1.256v-5.33h-2.002v-0.93H439.409L439.409,426.539z"/>
	<path fill="#FFFFFF" d="M379.447,362.617c0-1.693,1.373-3.067,3.065-3.067c1.694,0,3.067,1.374,3.067,3.067
		c0,1.695-1.373,3.068-3.067,3.068C380.82,365.686,379.447,364.312,379.447,362.617L379.447,362.617z"/>
	<path fill="#EF8136" d="M380.47,362.617c0-1.129,0.915-2.045,2.044-2.045c1.13,0,2.045,0.916,2.045,2.045
		c0,1.131-0.915,2.045-2.045,2.045C381.385,364.662,380.47,363.748,380.47,362.617L380.47,362.617z"/>
	<path fill="#FFFFFF" d="M333.424,361.412c0-1.693,1.374-3.066,3.067-3.066c1.692,0,3.065,1.373,3.065,3.066
		s-1.373,3.068-3.065,3.068C334.798,364.48,333.424,363.105,333.424,361.412L333.424,361.412z"/>
	<path fill="#EF8136" d="M334.447,361.412c0-1.129,0.916-2.043,2.044-2.043c1.129,0,2.044,0.915,2.044,2.043
		s-0.915,2.045-2.044,2.045S334.447,362.541,334.447,361.412L334.447,361.412z"/>
	<path fill="#FFFFFF" d="M334.788,355.63c0-0.94,0.763-1.704,1.704-1.704c0.94,0,1.704,0.763,1.704,1.704s-0.764,1.705-1.704,1.705
		C335.551,357.335,334.788,356.571,334.788,355.63L334.788,355.63z"/>
	<path fill="#FFFFFF" d="M332.859,370.088c0-0.941,0.763-1.705,1.704-1.705c0.94,0,1.703,0.764,1.703,1.705
		s-0.763,1.703-1.703,1.703S332.859,371.029,332.859,370.088L332.859,370.088z"/>
	<path fill="#FFFFFF" d="M380.328,355.63c0-0.94,0.763-1.704,1.704-1.704c0.94,0,1.704,0.763,1.704,1.704s-0.764,1.705-1.704,1.705
		C381.091,357.335,380.328,356.571,380.328,355.63L380.328,355.63z"/>
	<path fill="#FFFFFF" d="M382.257,370.328c0-0.941,0.762-1.703,1.702-1.703c0.941,0,1.705,0.762,1.705,1.703
		s-0.764,1.703-1.705,1.703C383.019,372.031,382.257,371.27,382.257,370.328L382.257,370.328z"/>
	<path fill="#FFFFFF" d="M375.406,395.789h-14.372c-0.13-1.137-0.803-1.703-1.651-1.703c-0.85,0-1.363,0.566-1.492,1.703H343.64
		l-0.04,1.486h14.27c0.164,1.077,0.695,1.584,1.515,1.584c0.818,0,1.471-0.507,1.634-1.584h14.391v-1.486H375.406z"/>
	<polygon fill="#FFFFFF" points="357.277,399.043 343.64,399.043 343.6,400.527 357.277,400.527 	"/>
	<polygon fill="#FFFFFF" points="375.35,399.043 361.711,399.043 361.671,400.527 375.35,400.527 	"/>
	<path fill="#FFFFFF" d="M375.406,402.295h-14.372c-0.13-1.137-0.803-1.701-1.651-1.701c-0.85,0-1.363,0.564-1.492,1.701H343.64
		l-0.04,1.486h14.27c0.164,1.078,0.695,1.582,1.515,1.582c0.818,0,1.471-0.504,1.634-1.582h14.391v-1.486H375.406z"/>
	<polygon fill="#FFFFFF" points="357.277,405.549 343.64,405.549 343.6,407.035 357.277,407.035 	"/>
	<polygon fill="#FFFFFF" points="375.35,405.549 361.711,405.549 361.671,407.035 375.35,407.035 	"/>
	<path fill="#FFFFFF" d="M375.406,409.283h-14.372c-0.13-1.14-0.803-1.703-1.651-1.703c-0.85,0-1.363,0.563-1.492,1.703H343.64
		l-0.04,1.485h14.27c0.164,1.078,0.695,1.582,1.515,1.582c0.818,0,1.471-0.504,1.634-1.582h14.391v-1.485H375.406z"/>
	<polygon fill="#FFFFFF" points="357.277,412.535 343.64,412.535 343.6,414.023 357.277,414.023 	"/>
	<polygon fill="#FFFFFF" points="375.35,412.535 361.711,412.535 361.671,414.023 375.35,414.023 	"/>
	<path fill="#FFFFFF" d="M375.406,416.029h-14.372c-0.13-1.14-0.803-1.703-1.651-1.703c-0.85,0-1.363,0.563-1.492,1.703H343.64
		l-0.04,1.485h14.27c0.164,1.078,0.695,1.584,1.515,1.584c0.818,0,1.471-0.506,1.634-1.584h14.391v-1.485H375.406z"/>
	<polygon fill="#FFFFFF" points="357.277,419.283 343.64,419.283 343.6,420.77 357.277,420.77 	"/>
	<polygon fill="#FFFFFF" points="375.35,419.283 361.711,419.283 361.671,420.77 375.35,420.77 	"/>
	<path fill="#FFFFFF" d="M375.406,422.537h-14.372c-0.13-1.139-0.803-1.703-1.651-1.703c-0.85,0-1.363,0.564-1.492,1.703H343.64
		l-0.04,1.484h14.27c0.164,1.079,0.695,1.581,1.515,1.581c0.818,0,1.471-0.502,1.634-1.581h14.391v-1.484H375.406z"/>
	<polygon fill="#FFFFFF" points="357.277,425.789 343.64,425.789 343.6,427.275 357.277,427.275 	"/>
	<polygon fill="#FFFFFF" points="375.35,425.789 361.711,425.789 361.671,427.275 375.35,427.275 	"/>
	<path fill="#FFFFFF" d="M375.406,429.525h-14.372c-0.13-1.142-0.803-1.703-1.651-1.703c-0.85,0-1.363,0.562-1.492,1.703H343.64
		l-0.04,1.483h14.27c0.164,1.078,0.695,1.582,1.515,1.582c0.818,0,1.471-0.504,1.634-1.582h14.391v-1.483H375.406z"/>
	<polygon fill="#FFFFFF" points="357.277,432.777 343.64,432.777 343.6,434.264 357.277,434.264 	"/>
	<polygon fill="#FFFFFF" points="375.35,432.777 361.711,432.777 361.671,434.264 375.35,434.264 	"/>
	<path fill="#FFFFFF" d="M375.406,436.029h-14.372c-0.13-1.138-0.803-1.701-1.651-1.701c-0.85,0-1.363,0.563-1.492,1.701H343.64
		l-0.04,1.485h14.27c0.164,1.078,0.695,1.582,1.515,1.582c0.818,0,1.471-0.504,1.634-1.582h14.391v-1.485H375.406z"/>
	<path fill="#FFFFFF" d="M375.406,442.537h-14.372c-0.13-1.141-0.803-1.703-1.651-1.703c-0.85,0-1.363,0.562-1.492,1.703H343.64
		l-0.04,1.484h14.27c0.164,1.077,0.695,1.581,1.515,1.581c0.818,0,1.471-0.504,1.634-1.581h14.391v-1.484H375.406z"/>
	<polygon fill="#FFFFFF" points="357.277,439.283 343.64,439.283 343.6,440.768 357.277,440.768 	"/>
	<polygon fill="#FFFFFF" points="375.35,439.283 361.711,439.283 361.671,440.768 375.35,440.768 	"/>
	<path fill="#1E355B" d="M364.846,363.871c-0.289-0.01-0.703-0.533-0.927-0.359c-0.151,0.117-0.132,0.361-0.044,0.619
		c-0.286-0.037-0.698,0.053-1.422-0.188c-0.723-0.242-1.132-1.422-1.132-1.422c-0.962,0.739-1.79,0.959-3.282,0.914
		c-1.086-0.031-2.586-1.988-3.946-0.359c-1.518,1.816-0.699-1.447-0.699-1.447s-0.458,0.844-0.675,1.061
		c-1.374,2.578,2.072,3.543,3.59,5.277c0,0.891,1.205,2.24,2.218,1.953c0.866,0.215,1.759-1.279,1.759-2.002
		c0-0.689,3.441-0.258,3.959-3.215c0.257,0.215,0.547,0.289,0.722,0.152C365.188,364.684,365.316,363.887,364.846,363.871
		L364.846,363.871z"/>
	<path fill="#1E355B" d="M425.487,384.23c0.17,0.146-16.818-5.541-16.914-5.42c0.145-0.115-2.918,2.752-2.506,2.61
		c0.134,0.345,1.919,6.771,1.854,6.931c0.168,0.289,11.421,8.338,11.276,8.239c0.217,0.219,0,0.65-0.435,0.65l-10.771-6.892
		c0.17-0.072-2.385,2.627-2.506,2.726c0.868,4.553,2.866,11.321,4.386,15.442c-1.084-0.217-2.386-0.866-3.688,0
		c-1.519,1.086-1.734,2.604-2.168,4.121l-2.818-2.819c3.469-2.386,5.204-6.724,3.901-10.843c-0.649-2.387-2.169-4.555-3.687-6.508
		c0.868-1.518,3.904-2.166,3.904-4.553c0-3.035-1.735-5.639-4.12-8.023c1.084-0.867,2.818-1.736,4.12-2.82
		c0-2.602-1.952-4.985-4.12-6.723c1.084-1.518,2.818-2.385,3.901-3.902c-0.434-2.168-2.385-3.903-3.901-5.204
		c1.301-1.301,3.252-2.385,4.12-4.12c0-2.168-2.604-3.253-4.12-4.337c0.216-1.952,3.036-3.47,2.168-6.073
		c-1.519-1.084-3.253-1.951-5.204-2.602c0.649-2.168,2.168-4.121,1.083-6.289c-1.301-1.084-3.252-1.301-4.987-1.084
		c-0.649-2.168,1.952-6.506-1.519-7.157l-4.554,0.217c-0.649-2.169,0.217-5.205-1.952-6.29l-4.987,1.085
		c-1.084-1.953-1.084-4.555-3.252-5.639c-2.169-0.433-3.472,1.519-5.422,1.952c-0.868-1.952-1.303-4.121-3.472-4.988
		c-1.952,0.217-3.686,2.168-5.421,3.036c-1.519-1.734-2.603-4.337-5.205-3.903c-1.301,1.084-2.168,2.819-3.47,3.903
		c-2.168-1.084-3.47-3.253-6.072-2.819c-2.168,1.085-1.734,4.771-4.12,4.771c-1.301-0.868-2.602-1.735-4.12-1.518
		c-1.952,1.084-2.168,3.47-2.604,5.421c-2.385,0-4.554-1.734-6.723-0.216c-0.65,1.734-0.435,3.686-0.65,5.638
		c-1.952,0.434-4.988-1.084-6.289,1.302c-0.217,1.734,0.651,3.687,0.435,5.421c-2.168,0.434-4.555,0.216-5.855,2.168
		c-0.217,2.168,1.084,3.903,1.301,5.855c-1.734,0.867-3.903,1.301-4.986,2.819c0.216,2.168,1.95,3.903,2.385,5.855
		c-1.302,1.301-3.904,1.952-4.12,3.903l3.47,3.903c-0.65,2.168-3.47,3.254-3.687,5.639c0.217,2.168,3.469,2.602,3.687,4.555
		c-1.952,1.734-3.903,3.687-3.47,6.287c1.084,1.086,2.818,1.519,3.47,3.037c-1.952,2.17-3.687,4.988-3.687,7.807
		c-0.218,2.82,3.687,3.037,3.687,5.205c-3.036,3.035-4.554,7.591-3.47,11.929c0.216,3.035,5.205,4.844,5.036,4.988l-3.52,2.602
		c0-1.953-0.145-3.107-2.312-4.312c-2.168-1.205-3.108,0.409-3.759-0.025c1.734-3.902,3.253-8.24,3.687-12.359
		c-1.518-1.086-1.734-4.988-4.121-3.471l-8.023,4.986c-0.434-0.215-0.868,0-0.868-0.648c4.506-3.037,6.675-4.338,10.191-6.941
		c0.868-2.817,2.313-8.047,2.387-7.975c-0.121-0.145-1.519-3.303-3.253-3.084c-5.205,1.518-9.977,4.119-15.397,5.422
		c-0.216-0.217-0.434-0.434-0.434-1.086l16.698-6.287c1.084-2.604,3.084-5.615,3.036-5.809l-2.818-3.301l-19.952,2.82
		c-0.65,0-0.65-0.869-0.433-1.304c6.289-1.733,13.662-1.519,19.951-3.035c1.084-1.95,2.988-5.108,3.084-5.108
		c0.146-0.24-3.253-4.36-3.445-4.191l-20.023-1.542l0.216-1.084l20.168,1.301c1.519-0.868,3.759-4.072,3.904-3.904
		c-0.169,0-2.29-5.687-2.723-5.614l-18.29-5.711c0.072,0.024,0.409-1.253,0.409-1.253l18.65,6.072l4.554-3.253l-0.867-5.205
		l-17.565-9.759l0.939-1.325l17.277,9.783c1.952-0.868,5.205-2.337,5.181-2.266l0.024-5.108L306.208,315.7
		c-0.216-0.433,0.217-0.867,0.651-1.084c4.987,3.904,10.191,8.892,14.963,13.012c2.168,0,5.205,0.217,6.289-1.951l0.434-4.121
		l-11.927-15.614l0.868-1.301c-0.024-0.049,7.807,10.336,12.144,16.048c2.434,0.145,6.313,0.192,6.072,0.217l2.192-5.229
		l-8.723-17.807l1.301-0.603l8.482,18c0.312,0.096,5.373,1.108,5.445,1.036c0.312-0.145,3.759-3.831,3.662-3.855l-4.338-19.083
		l1.566-0.434l3.854,19.083c0.29,0.097,5.205,2.41,5.205,2.386c0.048-0.145,4.41-2.916,4.771-2.94
		c-0.435-6.723-0.048-20.481-0.048-20.481l1.132-0.121c0.023,6.12,0.023,16.529,0.217,20.939l3.688,2.819l4.986-2.602l4.121-19.083
		l1.084,0.65l-3.903,18.433c0.121,0.53,3.614,4.386,3.639,4.53c0.555-0.096,5.495-0.939,5.423-1.349
		c2.168-5.639,5.252-12.723,8.072-18.361l0.938,0.747l-8.312,18.554l3.253,4.554l4.771,0.024c4.337-4.988,7.808-10.65,11.927-16.072
		c0.218-0.217,0.65,1.084,0.65,1.084l-11.493,15.831c-0.072-0.096,1.396,5.108,1.469,5.133l6.29,0.096l14.361-12.603l0.65,1.085
		l-14.53,12.578c0.12,0.555,0.024,5.374,0,5.638c0.289-0.145,5.566,1.879,5.808,1.735c3.253-1.566,13.204-6.723,17.396-9.108
		l-0.048,1.205l-17.519,9.638c0.049,0.216-0.964,4.867-1.132,4.988l5.036,3.253c0.047-0.072,19.3-5.542,19.059-5.374l0.482,1.325
		l-19.108,5.35c-1.301,1.518-2.168,3.253-2.168,5.204l3.471,3.904c0.217,0.265,20.385-1.783,20.385-1.518l-0.024,1.06L409,357.121
		l-3.036,3.903c0.145,0.267,2.964,4.988,3.156,5.18l19.831,2.41v1.326c0.24,0.289-18.987-2.725-19.493-2.676
		c-0.337-0.072-3.542,3.639-3.711,3.953c0.097-0.121,2.732,4.941,2.963,5.469c0.32-0.17,17.099,6,17.037,6.266L425.487,384.23
		L425.487,384.23z"/>
</g>
</svg>
