<?xml version="1.0" encoding="utf-8"?>
<!-- Generator: Adobe Illustrator 16.0.0, SVG Export Plug-In . SVG Version: 6.00 Build 0)  -->
<!DOCTYPE svg PUBLIC "-//W3C//DTD SVG 1.1//EN" "http://www.w3.org/Graphics/SVG/1.1/DTD/svg11.dtd">
<svg version="1.1" id="Layer_1" xmlns="http://www.w3.org/2000/svg" xmlns:xlink="http://www.w3.org/1999/xlink" x="0px" y="0px"
	 width="576.001px" height="184.509px" viewBox="72 71.906 576.001 184.509" enable-background="new 72 71.906 576.001 184.509"
	 xml:space="preserve">
<g>
	<g>
		<path d="M626.484,173.394c-0.761,0-1.509,0.041-2.246,0.117c0.963-4.052,1.478-8.278,1.478-12.624V83.084
			c0-6.094-4.938-11.033-11.033-11.033h-17.704c-6.095,0-11.033,4.939-11.033,11.033v25.627c-4.396-1.17-8.947-1.771-13.547-1.771
			c-18.657,0-35.104,9.748-44.634,24.474c-9.89-15.104-26.789-24.416-45.508-24.416c-12.663,0-24.33,4.317-33.581,11.55v-0.896
			c0-6.094-4.939-11.032-11.033-11.032h-8.525c-2.755,0-6.952,0.783-11.411,2.659c-1.267-0.507-2.646-0.784-4.097-0.784h-17.703
			c-0.467,0-0.924,0.038-1.374,0.095c0.406-1.647,0.625-3.368,0.625-5.14c0-11.863-9.651-21.517-21.517-21.517
			c-11.864,0-21.516,9.652-21.516,21.517c0,3.954,1.078,7.66,2.947,10.849c-0.84,1.558-1.318,3.337-1.318,5.229v8.169
			c-9.754-12.851-25.087-21.151-42.303-21.151c-17.044,0-32.244,8.135-42.011,20.767v-7.783c0-6.094-4.94-11.032-11.033-11.032
			h-35.923c-8.3,0-15.527,1.406-21.479,4.183c-5.923,2.761-10.484,6.816-13.535,11.907c-8.46-10.909-22.298-18.04-37.916-18.04
			c-14.63,0-27.699,6.256-36.25,16.014V82.938c0-6.094-4.939-11.031-11.033-11.031H83.033C76.94,71.906,72,76.845,72,82.938v119.14
			c0,6.094,4.94,11.032,11.033,11.032h19.239c2.155,0,4.159-0.627,5.857-1.693c1.699,1.066,3.703,1.693,5.858,1.693h17.705
			c6.094,0,11.033-4.938,11.033-11.032V151.3c0-2.998,3.126-5.53,6.829-5.53c3.701,0,6.828,2.532,6.828,5.53l0.002,50.777
			c0,6.094,4.939,11.032,11.033,11.032h17.705c1.643,0,3.196-0.368,4.597-1.013c1.327,0.565,2.786,0.878,4.318,0.878h40.479
			c9.367,0,17.302-1.902,23.617-5.655v38.062c0,6.094,4.941,11.033,11.034,11.033h17.705c6.093,0,11.033-4.939,11.033-11.033
			v-32.719c4.397,1.171,8.948,1.77,13.546,1.77c17.216,0,32.549-8.302,42.303-21.152v8.798c0,6.094,4.941,11.032,11.033,11.032
			h17.706c2.524,0,4.846-0.856,6.706-2.284c1.858,1.428,4.18,2.284,6.706,2.284h17.703c6.094,0,11.033-4.938,11.033-11.032v-40.462
			c0-9.423,2.534-13.354,5.203-14.997c-1.263,4.555-1.941,9.348-1.941,14.296c0,29.729,24.383,53.917,54.354,53.917
			c18.954,0,35.774-9.702,45.511-24.464c9.532,14.719,25.978,24.464,44.631,24.464c12.885,0,24.715-4.647,33.941-12.373
			c3.063,8.149,10.937,13.967,20.146,13.967c11.863,0,21.516-9.651,21.516-21.516C648.001,183.045,638.349,173.394,626.484,173.394z
			 M102.272,202.077H83.033V82.938h19.239V202.077z M185.122,202.077h-17.705V151.3c0-9.147-7.997-16.562-17.862-16.562
			c-9.865,0-17.862,7.415-17.862,16.562v50.777h-17.705v-52.551c0-17.646,15.924-31.949,35.567-31.949s35.567,14.305,35.567,31.949
			V202.077z M234.516,201.943c-12.801,0-40.479,0-40.479,0v-17.436h33.722c9.063,0,15.851,1.045,15.851-5.021
			c0-6.062-9.188-8.051-22.072-12.125c-12.027-3.803-27.5-8.146-27.5-25.479c0-21.414,21.532-22.357,28.447-22.357
			c6.916,0,35.923,0,35.923,0v16.771h-33.722c-6.136,0-12.337-0.48-12.337,5.298c0,5.779,17.81,9.663,24.536,11.558
			c6.727,1.896,25.39,6.729,25.39,25.58C262.273,197.586,247.317,201.943,234.516,201.943z M311.451,203.4
			c-8.17,0-15.177-2.364-21.643-6.438v-17.184c0.102-0.592,0.26-1.079,0.511-1.17c0.243-0.087,0.017,0.011,0.422,0.175
			c3.345,2.703,9.278,5.124,9.278,5.124l-0.002-0.01c3.298,1.817,7.034,2.851,10.995,2.851c13.332,0,24.143-11.618,24.143-25.95
			c0-14.33-10.811-25.947-24.143-25.947c-13.334,0-24.142,11.617-24.142,25.947v0.001v34.597v11.75v38.236h-17.705v-84.896
			c0-23.698,18.931-42.909,42.284-42.909c23.353,0,42.284,19.211,42.284,42.909C353.735,184.188,334.804,203.4,311.451,203.4z
			 M382.493,202.077h-17.706v-82.552h17.706V202.077z M373.641,113.931c-5.79,0-10.481-4.693-10.481-10.481
			c0-5.79,4.691-10.482,10.481-10.482s10.482,4.692,10.482,10.482C384.123,109.237,379.431,113.931,373.641,113.931z
			 M437.643,134.582c0,0-24.033-4.126-24.033,27.033v40.462h-17.703v-82.552h17.703v5.577c5.291-5.578,13.031-7.452,15.508-7.452
			c3.063,0,8.525,0,8.525,0S437.643,130.636,437.643,134.582z M482.257,203.798c-23.926,0-43.319-19.2-43.319-42.884
			c0-23.685,19.395-42.883,43.319-42.883c18.315,0,33.963,11.256,40.301,27.155l-10.02,5.516l0.007,0.011l-46.252,25.459
			l-7.969-14.479l38.955-21.44c-4.153-3.416-9.364-5.45-15.022-5.45c-13.571,0-24.574,11.69-24.574,26.113
			c0,14.422,11.003,26.114,24.574,26.114c13.387,0,24.265-11.377,24.562-25.525l18.676,1.981
			C524.148,185.971,505.311,203.798,482.257,203.798z M614.683,160.887c0,23.699-18.931,42.911-42.284,42.911
			c-23.353,0-42.283-19.212-42.283-42.911c0-23.7,18.932-42.912,42.283-42.912c8.172,0,15.177,2.363,21.644,6.438v17.182
			c-0.102,0.593-0.26,1.079-0.511,1.17c-0.244,0.088-0.02-0.009-0.423-0.173c-3.347-2.705-9.278-5.125-9.278-5.125l0.003,0.01
			c-3.301-1.816-7.035-2.85-10.996-2.85c-13.332,0-24.142,11.618-24.142,25.949c0,14.328,10.81,25.947,24.142,25.947
			c13.334,0,24.143-11.619,24.143-25.947v-0.001v-34.597v-11.752V83.084h17.704L614.683,160.887L614.683,160.887z M626.484,205.392
			c-5.79,0-10.482-4.691-10.482-10.481s4.692-10.482,10.482-10.482c5.789,0,10.481,4.692,10.481,10.482
			S632.273,205.392,626.484,205.392z"/>
	</g>
</g>
</svg>
