<?xml version="1.0" encoding="utf-8"?>
<!-- Generator: Adobe Illustrator 16.0.0, SVG Export Plug-In . SVG Version: 6.00 Build 0)  -->
<!DOCTYPE svg PUBLIC "-//W3C//DTD SVG 1.1//EN" "http://www.w3.org/Graphics/SVG/1.1/DTD/svg11.dtd">
<svg version="1.1" xmlns="http://www.w3.org/2000/svg" xmlns:xlink="http://www.w3.org/1999/xlink" x="0px" y="0px"
	 width="543.961px" height="360.688px" viewBox="0 0 543.961 360.688" enable-background="new 0 0 543.961 360.688"
	 xml:space="preserve">
<g id="Background">
</g>
<g id="Guides">
</g>
<g id="Foreground">
	<g>
		<g>
			<path fill="#FFFCDF" stroke="#000000" stroke-width="7" stroke-miterlimit="3.8637" d="M271.871,3.5
				c148.281,0.078,268.527,79.314,268.59,176.984c0.061,97.67-120.09,176.779-268.371,176.703
				C123.809,357.113,3.562,277.873,3.5,180.203C3.439,82.535,123.596,3.424,271.871,3.5z"/>
		</g>
		<g>
			<g>
				<path fill-rule="evenodd" clip-rule="evenodd" d="M298.359,143.514l0.102,3.154c0.162,2.582-0.025,4.061-0.525,6.598
					c-0.322,1.6-0.16,2.809-1.381,3.945c-1.961,1.818-2.641,2.467-5.43,2.857c-1.619,0.225-2.518,0.398-4.137,0.598h-2.756
					c-0.002-1.311,1.059-2.051,2.332-2.564h3.932c3.314-1.379,3.141-4.613,3.725-7.99l1.672-3.424
					C296.842,144.67,297.164,141.959,298.359,143.514z"/>
				<g>
					<g>
						<path fill-rule="evenodd" clip-rule="evenodd" d="M238.967,92.205c-0.527-1.516-0.938-3.199-1.041-5.074
							c-0.115-2.025,0.104-4.189,0.398-6.213c0.289-1.998,0.668-3.926,0.912-5.564c0.27-1.863,0.32-3.9,0.469-5.764
							c0.148-1.85,0.385-3.867,1.215-5.332c1.084-1.914,2.787-2.936,4.471-3.746c1.561-0.744,3.373-1.406,5.203-2.555
							c5.744-3.584,10.537-6.064,16.268-9.656c1.105-0.688,1.484-1.08,1.721-1.459c0.129-0.205,0.244-0.455,0.381-0.834
							c0.146-0.418,0.295-0.9,0.48-1.484c0.297-1.002,0.104-1.42-0.244-2.023c-0.264-0.457-0.564-0.92-0.834-1.473
							c-0.309-0.643-0.566-1.4-0.682-2.357c-0.064-0.559,0-1.061,0.076-1.471c0.064-0.348,0.154-0.688,0.232-1.016
							c0.115-0.52,0.064-0.637-0.014-0.764c-0.23-0.328-0.52-0.508-0.996-0.617c-0.264-0.059-0.564-0.098-0.932-0.109
							c-0.391-0.02-0.797-0.014-1.195-0.006c-0.461,0-0.924,0.006-1.375-0.014c-0.469-0.02-0.977-0.07-1.49-0.186
							c-1.066-0.238-2.119-0.777-2.877-1.896c-1.498-2.217-0.631-4.389,0.648-5.949c1.252-1.523,3.141-2.826,4.656-3.777
							c5.764-3.605,13.596-2.215,17.373,3.4c1.504,2.223,2.236,4.453,2.584,6.643c0.34,2.102,0.32,4.209,0.301,6.311
							c-0.045,4.086-0.051,7.703,2.385,11.307c0.508,0.758,1.195,0.957,2.646,1.035c0.797,0.037,1.619,0.045,2.447,0.141
							c0.914,0.109,1.922,0.336,2.898,0.869c8.982,4.967,13.543,9.477,19.158,17.797c1.568,2.334,1.736,4.582,1.467,6.754
							c-0.232,1.947-0.861,3.977-1.125,6.256c-0.238,2.197-1.395,3.984-2.461,5.488c-0.525,0.732-1.072,1.465-1.574,2.215
							c-0.48,0.721-0.873,1.408-1.148,2.121c-0.707,1.863-0.881,3.135-1.021,4.498c-0.078,0.732-0.148,1.465-0.277,2.287
							c-0.127,0.848-0.32,1.773-0.654,2.877c-0.225,0.785-0.109,1.453,0.141,2.416c0.129,0.533,0.283,1.066,0.379,1.625
							c0.109,0.623,0.162,1.305,0.072,2.07c-0.27,2.479-1.119,4.322-2.006,6.014c-0.424,0.809-0.873,1.605-1.297,2.459
							c-0.41,0.816-0.783,1.664-1.086,2.623c-1.432,4.566-3.334,7.953-5.318,11.242c-0.977,1.619-1.986,3.232-2.988,4.98
							c-0.977,1.721-1.953,3.576-2.877,5.689c-0.309,0.668-0.502,1.305-0.656,1.928c-0.154,0.654-0.244,1.297-0.34,1.934
							c-0.213,1.361-0.449,2.91-1.305,4.684c-0.738,1.561-1.734,2.525-2.801,3.322c-0.924,0.688-1.965,1.277-3.084,2.164
							c-1.689,1.369-2.865,2.609-4.086,3.797c-1.285,1.254-2.666,2.5-4.676,3.76c-1.697,1.053-2.955,1.721-4.986,2.086l-8.312,5.197
							l-0.463-0.006c-1.01-0.014-2.043,0.186-2.955,0.18c-1.17,0-2.615-0.283-3.572-1.697c-1.131-1.682-1.119-3.379-0.611-4.914
							c0.244-0.746,0.598-1.453,0.982-2.107c0.373-0.629,0.797-1.266,1.221-1.902c0.85-1.258,1.543-2.318,1.889-3.334
							c0.322-0.926,0.309-1.695-0.18-2.486c-3.469-5.531-4.633-9.039-8.287-14.457c-0.418-0.623-0.881-1.021-1.498-1.537
							c-0.34-0.281-0.674-0.57-1.008-0.893c-0.361-0.365-0.721-0.771-1.055-1.266c-3.006-4.451-3.533-8.584-2.158-13.613
							c0.244-0.867,0.615-1.607,1.014-2.256c0.373-0.598,0.797-1.143,1.209-1.695c0.77-1.021,1.297-1.826,1.477-2.879
							c0.527-2.936,0.334-4.375-0.129-5.795c-0.553-1.664-1.439-3.348-2.312-6.418l-5.012-7.428
							C240.111,95.014,239.48,93.678,238.967,92.205z"/>
						<path fill-rule="evenodd" clip-rule="evenodd" fill="#00B26B" d="M283.322,55.383c-0.656,0.963-0.193,1.883-0.713,2.91
							c-0.83,1.639-2.346,1.818-4.139,2.41c-1.291,0.43-2.1,0.354-3.457,0.508c-1.227,0.141-2.498,0.236-3.076-0.832l-0.334-1.863
							c-0.496-0.693-0.811-1.041-1.311-1.734c1.754-1.195,4.277-2.189,4.984-5.266l-0.32-0.123c-0.977-2.164,0.27-4.439,0.121-6.662
							c0.656-1.156,1.375-7.094,1.291-8.41c-0.951-0.354-5.191-3.984-5.691-4.865c0.822-1.209,0.107-2.5-0.49-3.631l-2.178-0.34
							c-0.893,0.938-1.586,1.311-2.523,2.41c-2.088-0.695-1.543-1.762-0.516-3.174l0.104,0.146c1.271-1.221,2.447-1.451,4.074-1.984
							c3.873,0.818,6.256,4.287,10.145,5.039c0.654,3.854-1.291,7.484,0.848,11.301C279.068,49.285,275.271,48.92,283.322,55.383z"
							/>
						<path fill-rule="evenodd" clip-rule="evenodd" fill="#FFF200" d="M293.512,59.148c1.863,1.061,4.033,2.643,5.473,2.643
							c0.508,0.854,1.709,0.789,2.346,1.547c3.059,3.67,5.693,8.135,7.768,12.4l-0.475,3.707c0.41,0.906-0.482,2.629-1.08,3.334
							c-2.902,3.438-6.32,15.793-7.246,20.398c0.418,0.129,0.449,0.488,0.449,0.477l1.922,6.322
							c-2.293,4.342-4.168,10.555-7.047,14.34c-1.939,2.555-4.381,4.906-5.48,7.951c-0.404,1.105-1.689,4.717-2.461,5.436
							l-0.391,0.258l0.238,0.174c-1.066,2.762-3.084,5.436-4.484,8.068c-4.229,7.947-1.209,7.992-11.307,11.84
							c-0.816,1.137-2.648,1.008-3.207,2.416c-2.66,0.654-1.355,3.854-5.725,2.396l0.18-1.209c1.041-0.688,0.578-2.139,1.479-2.936
							c0.463-1.574-0.746-3.008-0.373-4.588c-1.414-3.926-10.279-19.717-12.734-23.219c0.115-1.105-1.189-3.652-1.959-4.436
							c1.51-1.412,2.068-3.416,3.32-5.01c0.309-3.146,2.562-5.826,2.988-9.398c-0.631-0.682-1.613-1.787-1.484-2.77
							c-1.434-2.352-2.494-4.324-3.445-6.867c-2.389-1.699-3.932-9.043-5.461-11.375c0.205-2.055-1.76-4.908-1.902-7.105
							c-0.115-1.979,1.523-4.922,0.803-6.99c0.926-3.457,2.057-7.105,2.871-10.537c0.695-2.904,2.918-1.791,4.484-3.68l1.389-0.461
							c0.867-2.725,5.576-4.299,9.084-5.52c0.617-0.309,1.189-0.469,1.818-0.732l4.145-1.375c-0.199,1.459-0.713,2.352-0.219,3.738
							c0.475,1.318,1.266,1.826,2.158,2.924c0.693,0.867,0.9,1.734,1.973,2.102c1.832,0.625,3.084,0.156,4.992-0.262
							c1.748-0.393,2.891,0.006,4.574-0.559c1.939-0.643,2.697-1.934,3.52-3.732c0.451-1.004-0.41-2.404,0.682-2.764
							c0.918-0.309,1.605,0.295,2.391,0.783c0.924,0.547,1.541,0.721,2.537,1.189c0.932,0.438,1.49,0.977,2.512,0.881
							L293.512,59.148z"/>
						<path fill-rule="evenodd" clip-rule="evenodd" fill="#ED1C24" d="M255.818,62.287l1.49-0.314
							c-0.488,0.572-1.061,1.689-0.25,2.248c0.082,0.881,0.469,1.684,0.643,2.545c1.426-0.354,2.826,0.637,4.246,0.205l0.893,0.957
							c-1.516,2.705-2.742,5.57-4.561,8.121l-0.154,0.432c2.467-0.469,5.113-0.707,7.518,0.16l1.861,0.219l-0.018,1.439
							c-0.676,0-5.404,5.389-6.906,6.238c-0.053,0.719-0.74,1.316-1.35,1.645c1.414,0.443,2.969,0.012,4.4,0.436
							c1.754-1.008,3.842-0.744,5.783-1.014c0.918,0.744-0.424,1.484-1.086,1.695c-2.312,2.512-3.701,8.725-5.23,12.061
							c1.736,1.182,7.428,2.826,9.611,3.303c0.959,1.131-1.129,1.771-1.246,2.781c-1.367,0.006-1.445,1.773-2.762,1.908
							c-0.359,0.873-3.971,2.885-4.998,5.223c1.914,2.133,4.6,4.221,6.945,6.02c0.16,0.648-0.611,0.867-1.125,0.836
							c-1.4,0.842-1.799,2.557-3.199,3.398c-0.146,1.336-1.639,2.057-1.709,3.412c-1.24,0.842-1.965,2.281-3.045,3.295
							c2.75,1.092,9.99,0.008,7.324,3.797c-1.844,2.635-3.822,6.311-4.342,9.406l-1.465,0.514
							c-2.404-3.508-5.256-7.451-6.143-11.699c1.342-2.467-0.129-5.256,0.424-7.844l-0.207-0.303
							c0.631-5.121,2.158-11.596,1.734-16.711c-0.584-7.137-10.279-12.465-8.977-21.602c0.316-2.172-0.41-13.543,0.971-13.902
							C251.988,64.094,254.564,64.535,255.818,62.287z"/>
						<path fill-rule="evenodd" clip-rule="evenodd" d="M297,48.047c0.018,0.078,0.211,0.631,0.365,0.527l0.682-0.654
							c0.5,0.699,5.217,1.76,6.379,2.434l0.238-0.146l1.574,0.943c0.398,0.025,0.418-0.09,0.211,0.303
							c1.094,0.424,0.398,1.574,1.195,2.191c-0.045,0.693,3.727,8.068,4.652,8.602l-1.252,0.488
							c-1.086-0.475-1.408-1.793-2.551-2.184l-0.771-0.926c-5.146-0.912-2.564-7.877-8.635-7.453
							c-0.193-0.764-1.35-0.957-2.043-0.969c-0.758-0.959-1.582-2.031-2.873-2.307C293.383,47.73,296.762,48.041,297,48.047z"/>
						<path fill-rule="evenodd" clip-rule="evenodd" d="M297.121,64.977c0.76,1.607,1.863,3.027,2.982,4.42
							c1.83,2.834,4.832,6.721,5.641,9.838c-2.961,5.023-8.037,11.846-7.973,17.578c0.033,2.506,1.594,4.74,1.248,7.305
							l-1.125,0.842c-2.436-1.355-5.494-16.662-1.748-18.285c7.311-12.779-3.316-15.158-0.445-22.424L297.121,64.977z"/>
						<path fill-rule="evenodd" clip-rule="evenodd" d="M293.514,103.086c0.281,3.748,7.246,6.941,4.574,12.062
							c-2.158,4.145-5.795,6.506-7.902,10.836c-1.863,3.822-2.98,8.32-4.914,11.861l-0.264-0.053
							c-0.244,2.775-1.965,6.213-3.012,8.873l-1.176,0.104c-0.566-1.902,0.533-3.771,0.121-5.674
							c1.773-3.855,1.15-9.199,3.02-12.605c1.465-2.672,2.865-3.965,2.947-7.184c0.039-1.701,1.645-2.551,1.787-4.117
							c1.695-1.658,2.127-4.094,3.264-6.072c-0.393-2.428-0.771-4.857-0.906-7.311l0.545-1.016L293.514,103.086z"/>
						<path fill-rule="evenodd" clip-rule="evenodd" d="M247.688,143.719l7.857,8.207c-0.102,5.725-4.521,9.811-8.814,13.908
							c0.219-4.246,2.75-6.816,3.148-11.025c0.514-5.012-6.682-9.547-4.088-15.426c0.406,0.598,1.086,0.738,1.492,1.336
							C247.951,141.715,247.564,142.666,247.688,143.719z"/>
						<path fill-rule="evenodd" clip-rule="evenodd" d="M254.963,48.217c-3.432,4.658-5.281,6.424-9.83,10.156
							c-2.602,2.102-5.691,2.209-7.26,5.023c-1.779,3.227,0.027,6.438-0.758,9.99c-0.475,2.135-1.246,3.297-1.451,5.398
							c-0.385-0.373-0.617-0.502-0.912-0.932c-0.963-1.434-0.449-2.77-0.732-4.439c-0.9-5.211-3.482-9.342,0.783-12.76l7.543-2.648
							c1.529-2.043,2.312-3.283,3.783-5.287l4.271-2.672C252.148,49.291,253.15,48.467,254.963,48.217z"/>
						<path fill-rule="evenodd" clip-rule="evenodd" d="M261.193,22.955l9.207-4.607c3.02,0.291,5.455-0.885,8.197,0.254
							c0.277,1.592,1.947,3.096,5.018,4.516c0.477-1.387-0.578-2.537-1.412-3.777c-1.195-1.773-1.543-3.867-3.695-4.221
							c-1.74-0.277-2.756,1.041-4.549,1.213c-1.793,0.168-3.193-1.068-4.734-0.104c-1.49,0.932-3.02,0.508-4.021,1.953
							C263.096,19.357,259.652,20.713,261.193,22.955z"/>
					</g>
					<g>
						<path fill-rule="evenodd" clip-rule="evenodd" d="M157.703,119.271c-1.318-0.867-2.654-1.939-3.867-3.328
							c-1.305-1.502-2.436-3.283-3.426-4.992c-0.971-1.684-1.838-3.365-2.627-4.748c-0.895-1.566-2.076-3.146-3.064-4.645
							c-1.004-1.484-2.045-3.193-2.295-4.82c-0.328-2.127,0.385-3.885,1.195-5.445c0.738-1.428,1.729-2.93,2.434-4.812
							c2.236-5.912,4.408-10.453,6.643-16.365c0.424-1.123,0.469-1.6,0.424-1.973c-0.018-0.205-0.076-0.449-0.191-0.809
							c-0.135-0.398-0.309-0.842-0.514-1.389c-0.348-0.867-0.695-1.039-1.285-1.291c-0.477-0.205-0.99-0.391-1.529-0.668
							c-0.631-0.328-1.305-0.777-1.979-1.465c-0.398-0.404-0.67-0.842-0.861-1.207c-0.154-0.303-0.283-0.617-0.424-0.906
							c-0.117-0.238-0.193-0.34-0.238-0.398c-0.303-0.104-0.693-0.168-1.086,0c-0.219,0.09-0.457,0.225-0.738,0.412
							c-0.303,0.205-0.611,0.43-0.906,0.648c-0.354,0.264-0.707,0.52-1.066,0.756c-0.373,0.25-0.811,0.5-1.285,0.707
							c-0.99,0.418-2.172,0.604-3.482,0.146c-2.582-0.904-3.238-3.154-3.186-5.088c0.037-1.889,0.719-3.957,1.309-5.525
							c2.275-6.033,9.193-9.365,15.549-7.143c2.492,0.881,4.406,2.191,6,3.682c1.523,1.426,2.775,3.053,4.021,4.678
							c2.404,3.141,4.523,5.848,8.469,7.23c0.732,0.262,1.297,0.09,2.441-0.65c0.629-0.416,1.271-0.873,1.965-1.258
							c0.771-0.432,1.703-0.83,2.803-0.965c9.855-1.186,16.061-0.268,25.338,2.982c2.646,0.926,4.15,2.596,5.256,4.424
							c0.977,1.619,1.709,3.514,2.873,5.396c1.162,1.855,1.342,3.9,1.426,5.641c0.045,0.848,0.059,1.709,0.121,2.557
							c0.064,0.803,0.174,1.535,0.387,2.211c0.559,1.785,1.182,2.832,1.875,3.945c0.387,0.604,0.771,1.207,1.164,1.9
							c0.41,0.727,0.816,1.549,1.227,2.584c0.277,0.674,0.727,1.092,1.484,1.682c0.43,0.336,0.867,0.67,1.279,1.041
							c0.463,0.424,0.924,0.926,1.322,1.582c1.293,2.074,1.748,3.977,2.082,5.762c0.16,0.848,0.297,1.703,0.477,2.59
							c0.18,0.848,0.398,1.689,0.732,2.57c1.645,4.297,2.209,7.953,2.66,11.564c0.225,1.773,0.418,3.564,0.699,5.447
							c0.277,1.844,0.637,3.797,1.195,5.912c0.162,0.66,0.381,1.246,0.637,1.793c0.277,0.586,0.584,1.119,0.887,1.658
							c0.656,1.156,1.408,2.486,1.824,4.344c0.373,1.639,0.193,2.961-0.154,4.182c-0.295,1.035-0.744,2.057-1.059,3.354
							c-0.469,1.967-0.623,3.561-0.842,5.135c-0.244,1.727-0.564,3.43-1.342,5.496c-0.662,1.742-1.234,2.963-2.57,4.383
							l-3.244,8.584l-0.412,0.289c-0.77,0.553-1.438,1.271-2.145,1.779c-0.912,0.662-2.262,1.291-3.932,0.699
							c-1.934-0.674-2.982-2.035-3.521-3.527c-0.27-0.719-0.418-1.471-0.514-2.189c-0.104-0.695-0.154-1.414-0.213-2.141
							c-0.109-1.432-0.205-2.596-0.533-3.539c-0.295-0.842-0.732-1.363-1.504-1.67c-5.949-2.303-8.924-4.334-14.943-6.441
							c-0.654-0.23-1.221-0.275-1.998-0.326c-0.43-0.033-0.867-0.064-1.316-0.129c-0.508-0.078-1.035-0.193-1.607-0.393
							c-5.004-1.756-7.914-4.66-9.887-9.305c-0.342-0.816-0.508-1.605-0.586-2.332c-0.076-0.668-0.076-1.324-0.096-1.979
							c-0.02-1.209-0.096-2.068-0.572-2.924c-1.33-2.506-2.318-3.469-3.488-4.271c-1.406-0.971-3.09-1.754-5.57-3.605l-8.236-2.887
							C160.266,120.789,158.98,120.113,157.703,119.271z"/>
						<path fill-rule="evenodd" clip-rule="evenodd" fill="#ED1C24" d="M178.734,63.842c2.127-0.381,5.416-0.219,6.701-1.15
							c0.9,0.373,1.779-0.34,2.711-0.107c4.523,1.105,9.193,3.051,13.326,5.152l1.85,3.09c0.855,0.463,1.201,2.275,1.17,3.143
							c-0.168,4.227,4.6,15.543,6.643,19.564c0.398-0.129,0.637,0.123,0.631,0.115l5.236,3.76c0.842,4.588,3.115,10.355,3.18,14.834
							c0.053,3.027-0.41,6.168,0.566,9.098c0.359,1.066,1.529,4.537,1.375,5.506l-0.154,0.412l0.289,0.006
							c0.828,2.691,0.893,5.848,1.395,8.635c1.518,8.398,3.85,6.76-1.555,15.285c0.053,1.322-1.412,2.236-1.002,3.617
							c-1.637,1.965,1.26,3.688-2.936,4.998l-0.584-1.021c0.385-1.105-0.836-1.953-0.631-3.059c-0.578-1.457-2.357-1.883-3.02-3.295
							c-3.418-2.211-19.596-9.35-23.566-10.662c-0.57-0.904-3.084-2.125-4.137-2.293c0.309-1.914-0.463-3.752-0.457-5.66
							c-1.645-2.572-1.521-5.867-3.334-8.822c-0.887-0.174-2.293-0.471-2.775-1.293c-2.506-1.002-4.49-1.914-6.734-3.334
							c-2.832,0.033-8.396-4.715-10.947-5.648c-1.072-1.684-4.279-2.77-5.691-4.369c-1.273-1.445-1.773-4.594-3.561-5.775
							c-1.361-3.143-2.672-6.555-4.1-9.625c-1.201-2.596,1.156-2.975,1.229-5.287l0.777-1.119c-1.055-2.787,2.195-7.055,4.129-9.984
							l-0.172,0.482c0.797-1.504,1.645-2.473,3.314-2.994c0.963,1.625,1.002,3.271,2.762,4.125c2.057,1.016,3.727,0.586,5.932-0.043
							c2.955-0.861,5.004-1.844,6.43-4.523c0.502-0.957,0.682-1.561,1.066-2.57l1.787-3.379c0.18-1.066,0.436-1.914-0.129-2.84
							c-0.412-0.668-1.6-0.969-1.209-1.701C175.221,63.822,177.264,63.814,178.734,63.842z"/>
						<path fill-rule="evenodd" clip-rule="evenodd" fill="#00B26B" d="M167.947,66.129l3.059-0.162
							c2.096,1.857,1.979,4.619,0.676,7.08c-0.547,1.029-1.504,1.209-2.391,1.973c-2.506,2.102-5.531,2.832-8.506,1.373
							c-0.34-0.166-0.514-0.391-0.842-0.598c0.668-1.709,1.252-2.711,1.748-4.459c0.172-1.021,0.115-2.125-0.463-3.354l-0.322,0.078
							c-2.029-1.111-2.441-3.535-3.881-5.146c-0.191-1.246-3.186-6.168-4.035-7.125c-0.938,0.256-6.334-0.168-7.24-0.566
							c-0.096-1.367-1.406-1.965-2.537-2.492l-1.863,0.943c-0.129,1.207-0.438,1.881-0.488,3.236
							c-2.012,0.625-2.236-0.494-2.293-2.139c0.41-1.58,1.176-2.402,2.088-3.713c3.443-1.516,7.33-0.186,10.748-1.766
							c2.795,2.57,3.475,6.418,7.389,8.146C162.396,63.531,160.984,65.457,167.947,66.129z"/>
						<path fill-rule="evenodd" clip-rule="evenodd" fill="#FFF200" d="M152.812,86.961l0.951-1.059
							c-0.025,0.699,0.205,1.875,1.156,1.85c0.592,0.623,1.361,1.027,2.004,1.588c0.875-1.061,2.539-1.08,3.367-2.199l1.246,0.232
							c0.457,2.91,1.234,5.77,1.369,8.719l0.135,0.418c1.605-1.727,3.482-3.365,5.834-4.041l1.547-0.859l0.842,1.104
							c-0.514,0.381-0.898,7.1-1.541,8.584c0.398,0.578,0.225,1.414-0.045,2.006c1.342-0.451,2.268-1.639,3.617-2.107
							c0.738-1.742,2.486-2.693,3.803-3.979c1.145,0.064,0.559,1.369,0.18,1.902c-0.264,3.193,2.391,8.693,3.213,12.086
							c2.031-0.059,7.35-1.951,9.303-2.793c1.4,0.326,0.193,1.973,0.707,2.807c-1.041,0.766-0.045,2.152-0.963,2.988
							c0.244,0.861-1.311,4.395-0.701,6.746c2.73,0.572,6.033,0.674,8.893,0.744c0.508,0.412,0.051,1.004-0.354,1.26
							c-0.572,1.414,0.154,2.949-0.418,4.363c0.688,1.098-0.025,2.473,0.732,3.553c-0.443,1.322-0.135,2.826-0.352,4.195
							c2.748-0.693,7.619-5.525,7.85-1.156c0.168,3.025,0.85,6.926,2.301,9.58l-0.809,1.199c-3.934-1.348-8.463-2.775-11.668-5.525
							c-0.449-2.621-3.232-3.938-4.355-6.219l-0.348-0.115c-2.57-4.254-5.27-10.037-8.643-13.705
							c-4.709-5.121-15.283-3.816-19.73-11.504c-1.066-1.83-8.402-10.105-7.562-11.141
							C150.975,90.457,153.205,89.371,152.812,86.961z"/>
						<path fill-rule="evenodd" clip-rule="evenodd" d="M159.014,124.881c0.449,0.533,1.729,1.6,2.139,0.438
							c1.414,0.744,2.391,2.035,3.734,2.893c2.125-0.148,3.861,1.26,5.596,2.223l1.201,2.236l-0.096,1.066
							c-8.199-0.111-7.756-4.191-12.355-7.865L159.014,124.881z"/>
						<path fill-rule="evenodd" clip-rule="evenodd" d="M185.912,66.156c1.541,0.809,3.236,1.277,4.92,1.721
							c3.084,1.15,7.691,2.455,10.164,4.383c0.746,5.473,0.945,13.484,4.408,17.816c1.523,1.895,4.049,2.738,5.32,4.885
							l-0.359,1.258c-2.666,0.314-14.135-9.664-12.246-12.973c-2.043-13.795-11.564-9.729-13.717-16.855L185.912,66.156z"/>
						<path fill-rule="evenodd" clip-rule="evenodd" d="M176.162,138.6c0.764,0.951,3.367,9.252,3.314,10.473
							c1.762,0.104,2.814,1.869,4.607,1.799c1.316,1.002,3.123,1.531,4.252,2.514l0.398-0.051c0.008,0.604,0.715,1.863,1.42,1.111
							c0.348,0.648,1.363,4.678-0.371,2.357c-1.787-0.738-14.881-4.924-16.23-5.014c-0.082-1.227,1.535-12.951,2.018-13.389
							L176.162,138.6z"/>
						<path fill-rule="evenodd" clip-rule="evenodd" d="M205.906,97.219c2.455,2.701,9.662,1.281,10.684,6.672
							c0.83,4.355-0.533,8.166,0.445,12.637c0.859,3.939,2.686,7.992,3.328,11.758l-0.232,0.109
							c1.479,2.256,2.211,5.828,2.994,8.436l-0.828,0.732c-1.561-1.143-1.844-3.174-3.297-4.4c-0.943-3.92-4.605-7.652-5.217-11.283
							c-0.475-2.846-0.18-4.605-2.037-7.105c-0.982-1.322-0.27-2.852-1.098-4.131c0.301-2.203-0.822-4.299-1.131-6.438
							c-1.748-1.631-3.49-3.279-5.057-5.078l-0.188-1.072L205.906,97.219z"/>
						<path fill-rule="evenodd" clip-rule="evenodd" d="M140.072,103.639c0.701-1.844-1.586-2.814-2.229-4.607
							c-1.184-3.256-1.529-5.518-0.502-8.871l4.002-8.682c-2.029,2.186-3.057,3.799-5.492,5.609
							c-2.764,2.051-1.543,3.566-2.736,6.74c-1.49,3.945-0.727,6.252,3.02,8.436c2.273,1.316,2.506,3.25,4.072,5.307
							C140.234,106.074,139.527,105.07,140.072,103.639z"/>
						<path fill-rule="evenodd" clip-rule="evenodd" d="M131.803,58.582c0.373,5.158,4.768,6.457,8.893,9.578
							c-2.828,0.451-4.627,0.611-7.338-0.334c-1.387-0.488-1.35-1.908-2.178-3c-1.4-1.768-2.383-3.547-1.561-5.73
							c0.449-1.195,1.734-1.305,2.975-1.51L131.803,58.582z"/>
						<path fill-rule="evenodd" clip-rule="evenodd" d="M220.689,86.787c0.379-0.488,1.162-0.436,1.482-1.053
							c1.504-2.834-1.99-4.773-3.443-7.498c-2.055-3.945-2.146-8.531-4.035-12.104c-0.334-0.625-1.105-1.26-1.412-0.381
							C213.217,74.42,214.232,80.832,220.689,86.787z"/>
					</g>
					<g>
						<path fill-rule="evenodd" clip-rule="evenodd" d="M330.023,70.967c0.154,4.941-1.523,8.211-5.25,11.623
							c-1.322,1.168-1.092,2.568-1.387,4.285c-0.34,1.934-0.41,3.115-0.643,5.102c-0.346,3.051-1.785,4.465-3.34,7.156
							c-1.67,2.854,0.951,8.77-0.359,11.789c-1.002,2.332-1.953,3.656-2.012,6.238c-1.49-0.879-1.971-2.037-2.576-3.645
							c-0.732-1.928,1.498-2.953,2.391-4.797c1.516-3.129,0.025-6.688,0.932-10.068c1.342-4.844,2.877-9.25,3.859-14.133
							c0.9-4.531,4.164-6.914,3.303-11.443c-0.701-3.676-0.289-7.703,3.34-8.975c0.836-0.291,1.574,0.525,1.877,1.322
							c0.32,0.842-0.912,1.227-1.1,2.082C328.809,68.666,329.592,69.836,330.023,70.967z"/>
						<path fill-rule="evenodd" clip-rule="evenodd" d="M391.715,116.377c1.291-0.92,2.588-2.037,3.758-3.477
							c1.26-1.549,2.326-3.379,3.264-5.127c0.912-1.729,1.721-3.449,2.467-4.869c0.848-1.605,1.979-3.242,2.922-4.779
							c0.945-1.535,1.934-3.283,2.121-4.908c0.25-2.127-0.527-3.867-1.395-5.41c-0.797-1.412-1.85-2.891-2.635-4.766
							c-2.467-5.875-4.818-10.379-7.285-16.25c-0.463-1.119-0.533-1.607-0.502-2c0.014-0.217,0.064-0.469,0.168-0.834
							c0.121-0.404,0.281-0.861,0.475-1.42c0.32-0.9,0.674-1.1,1.271-1.381c0.477-0.219,0.977-0.418,1.51-0.721
							c0.623-0.346,1.279-0.816,1.922-1.521c0.385-0.424,0.635-0.861,0.809-1.234c0.154-0.314,0.27-0.629,0.398-0.932
							c0.115-0.244,0.18-0.354,0.23-0.418c0.463-0.217,0.76-0.209,1.17-0.049c0.225,0.084,0.477,0.211,0.771,0.393
							c0.309,0.191,0.623,0.41,0.938,0.623c0.359,0.25,0.727,0.5,1.092,0.725c0.387,0.238,0.83,0.477,1.311,0.662
							c1.004,0.387,2.186,0.533,3.463,0.033c2.539-0.99,3.104-3.238,2.988-5.172c-0.109-1.896-0.861-3.945-1.518-5.5
							c-2.504-5.969-9.547-9.078-15.83-6.633c-2.479,0.963-4.342,2.338-5.891,3.893c-0.752,0.76-1.434,1.562-2.082,2.396
							c-0.617,0.797-1.201,1.619-1.785,2.436c-2.307,3.244-4.35,6.059-8.287,7.592c-0.766,0.297-1.355,0.129-2.539-0.584
							c-0.654-0.393-1.311-0.828-2.023-1.195c-0.791-0.404-1.729-0.764-2.834-0.867c-9.951-0.861-16.164,0.268-25.363,3.854
							c-2.621,1.016-4.061,2.73-5.102,4.6c-0.932,1.664-1.594,3.598-2.697,5.531c-1.092,1.895-1.209,3.943-1.221,5.697
							c-0.014,0.855,0.006,1.723-0.033,2.576c-0.031,0.822-0.115,1.562-0.301,2.256c-0.508,1.824-1.092,2.904-1.76,4.047
							c-0.361,0.623-0.732,1.24-1.1,1.953c-0.385,0.746-0.764,1.588-1.137,2.635c-0.258,0.699-0.707,1.15-1.451,1.773
							c-0.412,0.346-0.842,0.693-1.24,1.086c-0.443,0.436-0.893,0.957-1.266,1.619c-1.221,2.125-1.613,4.047-1.883,5.859
							c-0.129,0.854-0.23,1.721-0.385,2.621c-0.143,0.834-0.328,1.701-0.643,2.621c-1.496,4.375-1.934,8.068-2.254,11.719
							c-0.309,3.547-0.514,7.164-1.49,11.506c-0.143,0.676-0.348,1.279-0.578,1.838c-0.258,0.598-0.553,1.15-0.836,1.703
							c-0.617,1.182-1.322,2.545-1.67,4.42c-0.322,1.65-0.084,2.961,0.309,4.176c0.334,1.029,0.816,2.051,1.189,3.342
							c0.545,1.965,0.758,3.564,1.033,5.146c0.309,1.727,0.695,3.424,1.549,5.473c0.727,1.734,1.344,2.943,2.744,4.318l3.572,8.525
							l0.41,0.27c0.805,0.527,1.504,1.227,2.225,1.715c0.943,0.631,2.293,1.209,3.932,0.572c1.9-0.744,2.891-2.125,3.379-3.641
							c0.238-0.727,0.359-1.479,0.436-2.203c0.078-0.701,0.104-1.428,0.135-2.16c0.059-1.445,0.109-2.627,0.412-3.598
							c0.27-0.873,0.699-1.426,1.484-1.766c5.904-2.52,8.826-4.664,14.809-6.99c0.662-0.258,1.24-0.328,2.023-0.404
							c0.43-0.045,0.861-0.092,1.311-0.172c0.508-0.09,1.027-0.225,1.586-0.443c4.961-1.928,7.768-4.936,9.586-9.664
							c0.314-0.828,0.443-1.625,0.502-2.352c0.045-0.674,0.031-1.336,0.018-1.99c-0.018-1.215,0.027-2.102,0.477-2.988
							c1.252-2.582,2.223-3.592,3.379-4.445c1.381-1.021,3.045-1.871,5.473-3.824l8.199-3.184
							C389.189,117.988,390.461,117.264,391.715,116.377z"/>
						<path fill-rule="evenodd" clip-rule="evenodd" fill="#00B26B" d="M387.234,71.705c-0.693-1.877-2.121-4.002-0.906-6.805
							l0.314,0.072c2.018-1.184,2.34-3.637,3.727-5.314c0.141-1.252,2.98-6.314,3.803-7.305c0.951,0.225,6.367-0.385,7.268-0.816
							c0.051-1.381,1.348-2.021,2.467-2.594l1.908,0.887c0.166,1.209,0.506,1.877,0.615,3.238c2.043,0.566,2.225-0.564,2.225-2.223
							c-0.477-1.574-1.273-2.383-2.244-3.676c-3.52-1.406-7.381,0.062-10.877-1.414c-2.723,2.686-3.262,6.584-7.143,8.455
							c-3.721,6.822-0.938,8.621-10.459,9.43c-0.367-0.039-0.707-0.18-1.08-0.053c-0.617,0.219-0.193,1.01-0.238,1.627
							c-0.102,1.123-0.623,1.811-0.211,2.877c0.746,1.979,2.467,2.365,4.311,3.459c1.639,0.971,2.898,2.172,4.709,1.535
							C386.244,72.797,386.926,72.488,387.234,71.705z"/>
						<path fill-rule="evenodd" clip-rule="evenodd" fill="#00B26B" d="M369.914,61.707c-1.723-0.9-6.496-0.193-8.16-1.312
							c-0.887,0.406-1.799-0.281-2.73-0.018c-4.516,1.264-9.143,3.377-13.229,5.631l-1.748,3.182
							c-0.84,0.488-1.123,2.326-1.059,3.205c0.314,4.24-4.066,15.799-5.975,19.918c-0.404-0.119-0.637,0.139-0.623,0.139
							l-5.141,3.957c-0.68,4.646-2.762,10.531-2.664,15.047c0.064,3.039,0.643,6.193-0.238,9.176
							c-0.314,1.086-1.361,4.613-1.168,5.59l0.154,0.41l-0.283,0.014c-0.738,2.736-0.682,5.916-1.092,8.736
							c-1.221,8.508-3.623,6.939,2.127,15.336c-0.006,1.338,1.51,2.205,1.15,3.611c1.715,1.928-1.145,3.752,3.129,4.928l0.559-1.047
							c-0.438-1.092,0.764-1.992,0.514-3.098c0.539-1.49,2.312-1.971,2.916-3.418c3.367-2.336,19.396-10.07,23.334-11.527
							c0.553-0.932,3.033-2.242,4.086-2.449c-0.371-1.92,0.334-3.797,0.258-5.717c1.561-2.641,1.322-5.949,3.031-8.994
							c0.887-0.199,2.295-0.547,2.75-1.389c2.48-1.092,4.445-2.082,6.656-3.586c2.852-0.062,8.275-5.027,10.818-6.055
							c1.016-1.729,4.201-2.932,5.564-4.594c1.232-1.492,1.619-4.678,3.379-5.932c1.246-3.211,2.447-6.693,3.764-9.83
							c1.119-2.652-1.266-2.961-1.426-5.281l-0.822-1.098c0.957-2.834-2.441-7.004-4.473-9.824
							c-0.926-1.123-1.709-1.471-2.955-2.164c-0.539-0.314-0.803-1.074-1.426-0.855c-0.418,0.148-0.443,0.547-0.656,0.906
							c-0.533,0.912-1.375,1.061-2.396,1.42c-1.855,0.648-3.166,1.111-5.043,0.514c-3.16-0.998-4.227-3.176-5.789-6.035
							c-0.494-0.912-0.996-1.311-1.355-2.273c-0.592-1.555,1.297-2.646,0.707-4.209c-0.18-0.488-0.893-0.115-1.426-0.076
							C371.725,62.709,371.102,61.918,369.914,61.707z"/>
						<path fill-rule="evenodd" clip-rule="evenodd" d="M363.977,49.68c-0.064,0.051-0.527,0.385-0.592,0.217l-0.16-0.873
							c-0.791,0.289-5.121-1.389-6.424-1.473l-0.098-0.244l-1.785-0.09c-0.328-0.193-0.27-0.297-0.342,0.129
							c-1.104-0.252-1.213,1.021-2.189,1.092c-0.367,0.564-7.568,4.375-8.604,4.297l0.713,1.055
							c1.125,0.205,2.133-0.662,3.264-0.367l1.131-0.32c4.582,2.018,6.541-4.844,11.076-1.283c0.592-0.494,1.613-0.031,2.172,0.32
							c1.137-0.346,2.402-0.758,3.578-0.289C367.01,51.355,364.162,49.801,363.977,49.68z"/>
						<path fill-rule="evenodd" clip-rule="evenodd" d="M396.641,84.541c-0.32,1.678-0.264,3.381-0.18,5.076
							c-0.18,3.199-0.051,7.857-1.195,10.742c-5.217,2.391-13.119,5.062-16.355,9.609c-1.414,1.992-1.459,4.588-3.199,6.426
							l-1.363,0.064c-1.15-2.365,5.211-16.051,9.084-15.334c13.094-6.188,6.084-13.705,12.502-17.906L396.641,84.541z"/>
						<path fill-rule="evenodd" clip-rule="evenodd" d="M361.91,126.641c-1.92,3.104,1.736,9.316-3.301,11.932
							c-4.08,2.119-8.301,2.047-12.439,4.342c-3.654,2.023-7.117,4.973-10.664,6.73l-0.18-0.18c-1.785,2.062,1.08-6.193,4.51-7.881
							c2.68-1.33,4.523-1.6,6.432-4.094c1.008-1.322,2.756-1.137,3.771-2.299c2.279-0.406,4.014-2.096,6.051-3.053
							c1.08-2.113,2.172-4.234,3.469-6.236l1.016-0.508L361.91,126.641z"/>
						<path fill-rule="evenodd" clip-rule="evenodd" d="M391.645,120.855c-3.264,1.92-6.053,2.422-8.828,4.561
							c-1.131,0.873-2.301,3.232-3.449,4.174c-3.426,2.91-1.318,4.453-1.684,8.803l-0.648,2.357
							c-0.449-0.744-1.709-0.592-1.697-1.445c0.053-4.902,0.477-8.66,0.887-11.584c0.385-3.309,1.414-2.473,4.703-3.75
							c0.932-0.359,8.312-4.42,9.637-4.852C393.082,118.311,394.766,118.033,391.645,120.855z"/>
						<path fill-rule="evenodd" clip-rule="evenodd" d="M406.934,85.861l2.113,5.037c-0.314,4.086-0.867,6.727-3.295,10.156
							l-0.592,0.939l1.061-0.412c2.467-2.023,6.951-4.42,8.102-7.234c1.566-3.746-3.188-5.211-4.787-9.027
							c-0.494-1.168-0.746-1.779-1.24-2.947c-0.592-1.428-0.822-2.404-0.9-3.914c-0.244,0.154-0.564-0.02-0.879,0.104
							c-0.842,0.334-0.502,1.439-0.521,2.273C405.885,82.777,406.482,83.908,406.934,85.861z"/>
						<path fill-rule="evenodd" clip-rule="evenodd" d="M398.072,70.445c-1.086-2.596-1.021-4.336-1.895-7.016
							c1.908-0.861,2.717-2.004,4.676-2.762c0.732-0.289,0.631-0.766,2.07-0.332c-1.6,2.041-3.83,2.729-4.1,5.316
							c-0.334,3.154,2.66,8.236,0.637,8.102C398.818,72.521,398.605,71.719,398.072,70.445z"/>
						<path fill-rule="evenodd" clip-rule="evenodd" d="M400.031,37.828l-6.572,1.906c-2.102,0.996-3.463,2-4.195,4.061
							c-0.404-2.865,0.006-5.98,2.807-7.072c1.375-0.533,2.301,0.643,3.727,0.68C397.23,37.441,398.631,37.422,400.031,37.828z"/>
						<path fill-rule="evenodd" clip-rule="evenodd" fill="#FFF200" d="M360.547,66.293c-2.648-6.395-7.686-0.148-10.781,2.613
							c-4.189,3.732-3.643,7.986-4.959,13.357c-1.008,4.111-0.309,7.318-3.025,10.602c-3.412,4.105-6.508,6.049-7.678,11.273v9.18
							c-0.461,2.314-1.625,3.361-2.17,5.604c-1.625,6.045-1.543,9.701-2.166,15.971c4.26-0.893,3.336-5.596,5.275-9.18
							c1.779-3.283,7.67-2.311,7.67-6.045c0-3.064-4.111-2.84-6.514-4.852c2.557-3.885,6.051-4.406,10.156-6.797
							c-1.779-3.957-5.736-4.105-8.91-7.162c4.336-3.213,8.133-2.91,13.561-2.91c0-0.451,0.316-0.752,0.316-1.195
							c0-3.291-2.873-4.26-4.652-7.094c3.867-2.018,5.809-3.662,9.842-5.377c-3.488-2.166-8.916-1.639-8.918-5.596
							c0-1.645,2.326-1.568,4.035-1.793c2.711-0.373,4.344-0.598,7.055-0.596c0-0.52,0.309-0.9,0.309-1.42
							c0-1.939-5.938-3.709-5.938-5.656C353.055,67.133,359.924,68.311,360.547,66.293z"/>
					</g>
				</g>
				<path fill-rule="evenodd" clip-rule="evenodd" d="M229.961,119.756c1.105,2.377,2.904,3.225,3.533,5.834
					c1.061,4.303,0.271,7.188,1.902,11.268c1.426-1.412,0.951-3.115,1.271-5.152c0.264-1.984,1.266-3.059,1.266-5.094
					c0-2.949-1.793-4.588-4.016-6.232c-1.426-1.021-2.904-0.623-4.117-1.928L229.961,119.756z"/>
				<path fill-rule="evenodd" clip-rule="evenodd" d="M314.445,136.916c-0.051,0.904-0.16,1.42-0.16,2.324
					c0,2.775,1.061,4.191,2.217,6.684c1.271,2.777,0.951,4.871,2.113,7.705v1.586c-0.314-0.059-0.525,0.225-0.842,0.225
					c-1.426,0-1.111-2.209-1.477-3.623c-0.586-2.102-3.168-3.061-3.592-5.213c-0.637-3.059-0.109-4.703-0.109-7.818
					C312.596,137.711,313.443,136.916,314.445,136.916z"/>
			</g>
			<g>
				<path fill-rule="evenodd" clip-rule="evenodd" d="M65.785,261.92l-23.064-0.002l5.543-6.707c-0.115-0.766-0.539-1.6-1.252-2.492
					c-0.713-0.895-1.613-1.916-2.68-3.066l4.65-5.941c-0.963-1.279-2.504-2.236-4.65-2.879l3.932-6.322
					c-0.477-0.771-1.08-1.471-1.787-2.113c-0.719-0.766-1.611-1.658-2.686-2.68l4.473-7.857l-4.832-5.943
					c0.244-1.021,0.719-2.049,1.432-3.064c0.713-1.15,1.49-2.371,2.32-3.643c0-0.771-0.887-1.664-2.68-2.686
					c-1.785-1.15-2.795-1.85-3.039-2.107l5.191-9.207c-0.361-0.635-0.957-1.336-1.793-2.1c-0.828-0.771-1.729-1.664-2.68-2.686
					l3.932-7.094c-0.598-1.664-1.908-3.064-3.932-4.221l4.471-6.322c-0.359-0.385-1.258-1.215-2.686-2.492
					c-1.311-1.279-2.088-2.043-2.326-2.301l20.199,0.195c-0.828,0.256-1.9,0.893-3.211,1.914c-1.195,0.893-2.211,1.664-3.039,2.299
					l3.402,80.703c0.475,1.277,1.188,2.557,2.145,3.836C62.205,258.084,63.76,259.748,65.785,261.92z"/>
				<path fill-rule="evenodd" clip-rule="evenodd" d="M104.184,242.18c0,5.371-1.438,10.352-4.291,14.957
					c-2.865,4.592-6.977,6.893-12.334,6.893c-5.604,0-10.551-1.408-14.842-4.217c-4.176-2.941-6.258-7.479-6.258-13.607
					c0-3.07,0.77-6.008,2.324-8.82c1.664-2.938,4.111-4.408,7.324-4.408c2.506,0.002,4.768,0.58,6.797,1.73
					c2.146,1.021,4.768,2.807,7.865,5.365l-4.998,8.049c-0.359-1.914-1.26-3.258-2.686-4.027c-1.434-0.766-2.918-1.145-4.473-1.145
					c-2.145-0.002-3.572,0.635-4.291,1.912c-0.713,1.279-1.066,2.559-1.066,3.836c0,3.451,1.543,5.943,4.645,7.475
					c3.219,1.535,6.201,2.301,8.938,2.301c3.342,0,5.602-0.701,6.797-2.107c1.311-1.408,1.967-3.58,1.967-6.521
					c0-3.701-0.9-7.279-2.688-10.73c-1.785-3.578-3.752-6.07-5.896-7.479c-2.025-1.4-4.293-2.492-6.799-3.256
					c-2.377-0.895-4.465-1.73-6.258-2.496c-1.664-0.893-2.975-2.492-3.932-4.793c-0.836-2.299-1.246-4.729-1.246-7.285
					c0-4.344,1.844-8.172,5.537-11.5c3.701-3.32,7.568-4.977,11.623-4.977c3.219,0,6.674,0.893,10.369,2.686
					c3.809,1.787,5.725,4.344,5.725,7.666c0,1.535-0.721,3.449-2.146,5.75c-1.311,2.299-2.801,4.406-4.471,6.32l-5.186-7.094
					c1.189,0.387,2.5,0.322,3.939-0.186c1.426-0.643,2.139-1.729,2.139-3.258c0-1.664-0.893-3.135-2.68-4.414
					c-1.67-1.277-3.752-1.914-6.258-1.914c-2.865,0-5.127,0.957-6.797,2.879c-1.549,1.785-2.326,4.021-2.326,6.707
					c0,1.529,4.293,4.664,12.877,9.393C99.828,226.588,104.184,233.365,104.184,242.18z"/>
				<path fill-rule="evenodd" clip-rule="evenodd" d="M127.283,167.43c-0.59,0.766-1.131,1.529-1.605,2.295
					c-0.475,0.77-1.072,2.049-1.785,3.834l-2.143,81.66c0.59,1.785,1.9,4.021,3.932,6.707l-17.52,0.191
					c1.432-1.658,2.498-3,3.219-4.029c0.834-1.014,1.49-2.043,1.965-3.064l-1.256-81.467c-0.482-2.299-1.787-4.342-3.939-6.129
					L127.283,167.43z"/>
				<path fill-rule="evenodd" clip-rule="evenodd" d="M200.639,261.932l-19.127-0.002c1.785-1.406,2.801-2.363,3.033-2.871
					c0.244-0.514,0.359-1.729,0.359-3.643l-2.861-37.766c-0.121-0.766-0.295-1.4-0.533-1.914c-0.121-0.643-0.719-2.172-1.785-4.602
					c-1.08-2.428-3.227-4.664-6.439-6.707c-3.096-2.178-5.904-3.264-8.402-3.264c-6.561-0.002-12.695,3.133-18.414,9.391
					c-5.602,6.135-8.402,12.527-8.402,19.17c0,7.029,1.543,13.1,4.646,18.211c3.219,5.113,8.102,7.67,14.662,7.67
					c4.168,0,7.92-1.084,11.262-3.262c3.34-2.172,5.01-5.428,5.01-9.771c0-4.473-1.555-10.352-4.652-17.637
					c-2.98-7.414-6.797-11.123-11.447-11.123c-2.262,0-4.408,1.279-6.432,3.836c-1.908,2.557-2.859,4.857-2.859,6.9
					c0,2.557,0.656,4.535,1.967,5.943c1.311,1.277,4.17,3.771,8.584,7.479l1.426-0.193c0.359-0.385,0.539-0.701,0.539-0.957
					c0-0.893-0.295-2.107-0.898-3.643c-0.477-1.537-1.131-2.873-1.967-4.029l7.689-3.256l1.967,11.502
					c-0.354,3.578-1.072,5.877-2.145,6.906c-1.074,1.014-2.924,1.527-5.545,1.527c-4.883,0-8.879-1.729-11.977-5.18
					c-3.096-3.443-4.65-7.664-4.65-12.65c-0.002-5.107,1.732-9.771,5.189-13.992c3.572-4.215,7.922-6.322,13.049-6.322
					c6.432,0.002,11.197,3.387,14.301,10.16c3.104,6.648,4.646,12.906,4.646,18.785c0,6.643-2.146,12.779-6.43,18.4
					c-4.293,5.494-9.592,8.244-15.914,8.242c-8.107,0-15.375-2.938-21.807-8.818c-6.322-6.006-9.482-13.42-9.482-22.236
					c-0.002-11.629,3.699-20.32,11.088-26.07c7.504-5.748,16.324-8.621,26.455-8.619c5.127,0,10.434,0.957,15.908,2.873
					c5.609,1.916,8.885,4.922,9.844,9.008c1.066,4.094,1.9,9.271,2.5,15.529c0.598,6.258,1.188,12.143,1.793,17.637l1.965,15.521
					L200.639,261.932z"/>
				<path fill-rule="evenodd" clip-rule="evenodd" d="M248.418,261.936l-20.199-0.002l6.797-7.471l-6.26-49.266l-0.898-1.15
					l-13.762,15.527l0.002,36.416c0,0.643,0.475,1.664,1.426,3.072c1.08,1.406,1.734,2.357,1.967,2.871l-15.908-0.002
					c1.311-1.406,2.383-2.557,3.213-3.449c0.834-1.021,1.258-2.172,1.258-3.451c0-0.764-0.48-7.729-1.434-20.893
					c-0.834-13.164-1.549-23.258-2.146-30.287c-0.475-0.764-1.195-1.535-2.145-2.301c-0.836-0.893-1.672-1.791-2.506-2.678
					l17.879,0.002c-0.475,0.764-0.713,1.85-0.713,3.256c0,1.023,0.354,2.236,1.072,3.645c1.311-1.922,3.336-3.771,6.078-5.564
					c2.865-1.914,5.186-2.871,6.971-2.869c1.908,0,3.457,1.084,4.645,3.256c1.318,2.043,2.506,5.244,3.586,9.586
					c1.189,4.344,2.197,10.479,3.033,18.4c0.836,7.793,1.49,14.244,1.967,19.359c0.598,4.984,1.26,8.049,1.973,9.199
					C245.141,258.164,246.516,259.764,248.418,261.936z"/>
				<path fill-rule="evenodd" clip-rule="evenodd" d="M306.031,199.646l-5.537,4.793c0.359,1.021,0.893,1.979,1.605,2.873
					c0.721,0.893,1.672,1.92,2.865,3.07c-0.236,0.508-0.898,1.279-1.965,2.293c-0.957,1.029-2.029,2.115-3.225,3.264l4.65,5.943
					l-3.391,5.559l4.465,6.514l-5.004,7.664l3.932,7.479l-4.471,6.709c1.555,1.664,2.98,3.898,4.291,6.707l-16.268-0.002
					l4.111-10.158c-4.883,4.221-8.762,7.094-11.621,8.629c-2.859,1.529-6.078,2.301-9.65,2.299c-7.395,0-13.229-2.494-17.52-7.479
					c-4.293-4.982-6.438-11.631-6.439-19.932c0-7.543,1.844-15.723,5.537-24.541c3.816-8.943,9.6-13.416,17.348-13.416
					c6.668,0.002,13.582,3.709,20.738,11.123l-0.721-34.121c-0.115-0.771-0.592-1.658-1.426-2.686
					c-0.836-1.021-2.088-2.43-3.752-4.215l20.379,0.002l-3.752,6.129c0.475,0.514,1.008,1.279,1.605,2.307
					c0.713,0.893,1.074,1.594,1.074,2.107c0,0.637-0.541,1.529-1.613,2.68c-1.066,1.156-1.729,1.855-1.967,2.113
					c0.238,0.637,0.951,1.658,2.146,3.064c1.195,1.279,1.852,2.043,1.967,2.301l-3.932,4.215L306.031,199.646z M290.846,230.316
					c0-4.984-0.662-9.143-1.967-12.463c-1.316-3.322-3.766-6.193-7.338-8.623c-3.572-2.436-5.834-3.9-6.797-4.414
					c-0.951-0.514-1.902-0.764-2.854-0.766h-1.965c-5.25,0-9.059,2.172-11.449,6.514c-2.377,4.35-3.57,9.137-3.57,14.379
					c0,5.75,1.549,12.715,4.652,20.895c3.211,8.049,7.799,12.078,13.762,12.08c5.717,0,10.074-3.008,13.055-9.008
					C289.355,242.768,290.846,236.574,290.846,230.316z"/>
				<path fill-rule="evenodd" clip-rule="evenodd" d="M397.23,219.971c0,1.664-0.121,2.936-0.359,3.834
					c-0.238,0.766-0.354,1.215-0.354,1.344c-2.865,0-5.248,0.379-7.156,1.15c-1.902,0.764-2.859,1.914-2.859,3.449l0.18,17.631
					c0,1.406-0.834,3.963-2.504,7.67c-1.664,3.578-2.975,5.621-3.926,6.137c-0.836,0.504-2.094,0.955-3.766,1.334
					c-1.541,0.514-2.795,0.771-3.752,0.771c-5.48,0-11.918-2.301-19.305-6.902c-7.396-4.602-12.574-8.629-15.555-12.08
					c-2.982-3.451-4.947-7.158-5.898-11.115c-0.836-3.965-1.254-7.414-1.254-10.352c0-8.949,1.729-18.914,5.184-29.906
					c3.572-10.984,7.33-18.014,11.262-21.078c4.053-3.199,7.092-4.986,9.115-5.371c2.031-0.379,4.711-0.576,8.045-0.576
					c8.467,0,15.791,1.344,21.998,4.029c6.193,2.686,9.291,6.201,9.291,10.543c0,4.35-2.377,7.73-7.15,10.164
					c-4.646,2.422-9.477,4.277-14.482,5.557v-9.014c0.238,0.385,1.01,0.578,2.326,0.578c2.023,0,4.35-0.514,6.971-1.535
					c2.621-1.148,3.932-2.871,3.932-5.172c0-2.686-1.189-4.729-3.572-6.135c-2.262-1.535-5.186-2.303-8.764-2.303
					c-10.246,0-18.477,4.277-24.67,12.842c-6.193,8.559-9.295,17.828-9.295,27.793c0,8.564,3.039,17.83,9.117,27.795
					c6.201,9.965,12.875,14.951,20.027,14.951c4.053,0,6.674-1.6,7.869-4.793c1.311-3.193,1.965-6.643,1.965-10.35
					c0-4.6-0.604-8.307-1.793-11.115c-1.072-2.941-4.053-4.664-8.936-5.178v-4.6L397.23,219.971z"/>
				<path fill-rule="evenodd" clip-rule="evenodd" d="M436.787,212.881c0,2.301-0.771,4.857-2.326,7.672
					c-1.426,2.678-3.211,4.021-5.357,4.021c-1.67,0-3.932-1.15-6.797-3.453c-2.865-2.299-4.588-4.277-5.186-5.941l7.15-7.471
					c0.475,2.172,1.016,4.15,1.613,5.943c0.713,1.656,1.729,3.32,3.039,4.979c0.59-0.637,1.014-1.471,1.252-2.486
					c0.238-1.15,0.354-2.178,0.354-3.07c0-2.043-0.539-4.15-1.605-6.322c-1.074-2.307-2.443-3.387-4.113-3.264
					c-1.432,1.406-3.16,3.262-5.191,5.561c-2.023,2.295-4.521,5.43-7.502,9.387c0,1.279-0.059,2.559-0.18,3.836
					c0,1.15-0.18,2.492-0.541,4.029l-0.525,25.879c0,2.043,0.412,3.699,1.246,4.979c0.836,1.15,1.549,2.75,2.146,4.793
					l-15.914-0.002c3.104-2.936,4.645-5.363,4.645-7.283l-1.607-28.367c-0.475-7.158-0.887-13.037-1.252-17.637
					c-0.354-4.729-2.025-7.986-5.006-9.779l17.346-0.189c-0.359,1.406-0.539,3.006-0.539,4.793c0,0.893,0.123,1.855,0.359,2.877
					c4.523-5.877,9.059-8.82,13.588-8.818c3.695,0,6.432,1.664,8.219,4.986C435.895,205.852,436.787,209.303,436.787,212.881z"/>
				<path fill-rule="evenodd" clip-rule="evenodd" d="M455.559,183.939l-6.965,6.9l-7.695-6.33l6.436-9.385L455.559,183.939z
					 M457.172,198.889c-1.189,1.537-2.203,2.943-3.039,4.215c-0.719,1.279-1.195,2.559-1.426,3.836l-1.078,42.172v3.645
					c0,1.914,0.18,3.449,0.541,4.6c0.475,1.15,1.605,2.686,3.393,4.6l-18.594-0.002l5.191-6.328l-0.002-48.688l-2.867-8.051
					L457.172,198.889z"/>
				<path fill-rule="evenodd" clip-rule="evenodd" d="M480.459,167.455c-0.596,0.771-1.129,1.535-1.605,2.301
					c-0.482,0.77-1.078,2.043-1.793,3.834l-2.143,81.66c0.598,1.785,1.908,4.021,3.939,6.707l-17.527,0.191
					c1.434-1.664,2.506-3,3.219-4.029c0.836-1.021,1.49-2.043,1.967-3.062l-1.256-81.469c-0.477-2.299-1.787-4.342-3.932-6.135
					L480.459,167.455z"/>
				<path fill-rule="evenodd" clip-rule="evenodd" d="M502.496,167.457c-0.598,0.771-1.131,1.535-1.605,2.301
					c-0.482,0.77-1.08,2.043-1.793,3.834l-2.143,81.66c0.598,1.785,1.908,4.021,3.939,6.707l-17.527,0.191
					c1.434-1.664,2.506-3,3.219-4.029c0.836-1.021,1.49-2.041,1.973-3.062l-1.262-81.469c-0.477-2.299-1.787-4.342-3.934-6.135
					L502.496,167.457z"/>
			</g>
			<g>
				<path fill-rule="evenodd" clip-rule="evenodd" fill="#ED1C24" d="M124.205,286.59c2.801,0.027,3.648,1.279,3.648,2.584
					c0,1.863-1.836,3.393-2.98,4.117c0.707,1.221,5.73,9.033,6.328,10.088l4.748-3.836c-0.68-0.887-4.639-5.197-5.422-6.143
					c2.023-1.529,3.348-3.283,3.346-5.557c0-2.557-2.074-4.17-5.916-4.703c-2.326-0.334-5.938-0.385-9.482-0.387
					c0.076,0.525,0.129,6.559,0.129,7.395v2.281c0,0.578,0.051,9.393-0.051,10.061l5.781,0.002
					c-0.051-0.418-0.129-7.453-0.129-8.506V286.59z"/>
				<path fill-rule="evenodd" clip-rule="evenodd" fill="#ED1C24" d="M150.096,297.99c-1.221,0.109-5.139,0.051-5.807,0.051v-3.303
					c0.564,0,4.016,0.109,4.715,0.109l-0.076-4.445c-1.145,0.109-4.125,0.25-4.639,0.25v-3.674c0.461,0,4.535-0.135,5.492-0.135
					l-0.104-4.588c-0.957,0.084-9.668,0.5-11.121,0.5c0.027,0.803,0.078,7.504,0.078,7.947v3.727c0,0.643,0,6.584-0.076,8.062
					c1.35,0,10.703,0.277,11.641,0.277L150.096,297.99z"/>
				<path fill-rule="evenodd" clip-rule="evenodd" fill="#ED1C24" d="M156.881,303.381c0.566-1.305,1.504-3.477,1.709-3.861
					l7.799-0.475c0.264,0.477,1.582,2.949,2.34,4.312l5.133-3.252c-1.086-1.586-8.062-13.344-11.174-18.377h-0.262
					c-2.514,4.254-9.695,17.289-10.479,18.709L156.881,303.381z M160.248,295.4c0.674-1.555,1.58-3.609,2.203-4.947
					c0.469,1.145,1.451,3.117,2.178,4.705L160.248,295.4z"/>
				<path fill-rule="evenodd" clip-rule="evenodd" fill="#ED1C24" d="M176.547,282.76c0.051,0.525,0.109,7.504,0.109,7.947v3.699
					c0,0.67,0,6.611-0.084,8.09c2.076,0,11.07,0.277,11.699,0.277l-0.031-5.172c-2.076,0.117-5.133,0.115-5.75,0.115v-5.09
					c0-3.502,0.102-9.232,0.127-9.867H176.547z"/>
				<path fill-rule="evenodd" clip-rule="evenodd" fill="#ED1C24" d="M204.879,289.707c0-3.336,0.078-6.445,0.129-6.945h-6.098
					c0.053,0.668,0.135,6.418,0.135,6.893v4.338c0.002,4.805-2.125,6.031-3.629,6.918l2.775,4.812
					c4.15-2.363,6.688-5.615,6.688-11.68V289.707z"/>
				<path fill-rule="evenodd" clip-rule="evenodd" fill="#ED1C24" d="M212.391,303.387c0.572-1.305,1.502-3.477,1.709-3.861
					l7.805-0.477c0.264,0.477,1.588,2.949,2.332,4.312l5.141-3.25c-1.092-1.588-8.07-13.346-11.18-18.377h-0.258
					c-2.518,4.254-9.699,17.289-10.471,18.709L212.391,303.387z M215.756,295.406c0.682-1.555,1.588-3.609,2.211-4.947
					c0.463,1.145,1.451,3.117,2.172,4.697L215.756,295.406z"/>
				<path fill-rule="evenodd" clip-rule="evenodd" fill="#ED1C24" d="M234.734,303.363c0.463-1.305,2.326-8.48,2.775-9.928
					c0.412,0.836,3.137,5.564,5.127,8.783h0.258c1.953-2.916,5.268-8.391,5.576-8.891c0.289,0.75,2.75,7.814,3.586,10.037
					l5.229-2.506c-0.693-1.529-5.91-14.148-7.697-18.262h-0.256c-1.375,2.391-5.037,8.893-6.039,10.537
					c-0.811-1.42-4.646-8.23-6.232-10.98h-0.258c-1.502,3.527-6.738,18.066-7.182,19.178L234.734,303.363z"/>
				<path fill-rule="evenodd" clip-rule="evenodd" fill="#ED1C24" d="M262.49,303.391c0.564-1.305,1.502-3.477,1.709-3.861
					l7.805-0.477c0.258,0.479,1.582,2.951,2.332,4.314l5.135-3.252c-1.086-1.586-8.064-13.346-11.174-18.377h-0.258
					c-2.518,4.254-9.699,17.289-10.477,18.709L262.49,303.391z M265.855,295.41c0.682-1.555,1.58-3.609,2.211-4.947
					c0.463,1.145,1.451,3.117,2.172,4.697L265.855,295.41z"/>
				<path fill-rule="evenodd" clip-rule="evenodd" fill="#ED1C24" d="M288.098,291.107c0-3.334,0.076-7.838,0.104-8.338h-6.014
					c0,0.668,0.076,7.812,0.076,8.281v3c0,0.727-0.025,7.229-0.076,8.455h6.014c-0.025-0.643-0.104-5.615-0.104-8.396V291.107z"/>
				<path fill-rule="evenodd" clip-rule="evenodd" fill="#ED1C24" d="M306.242,297.645c-0.631,0.051-1.453,0.135-2.494,0.135
					c-3.443,0-5.627-1.748-5.627-3.895c0-2.607,2.209-5.164,7.676-6.225l-1.137-5.332c-8.949,2.055-12.861,7.637-12.861,12.256
					c0,3.721,3.135,8.367,11.641,8.367c1.221,0,2.146-0.109,3.059-0.225L306.242,297.645z"/>
				<path fill-rule="evenodd" clip-rule="evenodd" fill="#ED1C24" d="M312.525,303.395c0.57-1.305,1.502-3.477,1.715-3.861
					l7.807-0.475c0.256,0.477,1.58,2.949,2.324,4.312l5.141-3.252c-1.092-1.586-8.07-13.344-11.18-18.375h-0.258
					c-2.518,4.254-9.699,17.287-10.471,18.707L312.525,303.395z M315.898,295.416c0.674-1.555,1.58-3.609,2.203-4.947
					c0.463,1.145,1.451,3.117,2.178,4.697L315.898,295.416z"/>
				<path fill-rule="evenodd" clip-rule="evenodd" fill="#ED1C24" d="M336.707,302.703c-0.025-0.92-0.051-8.951-0.051-10.094
					c0.391,0.336,9.752,8.289,12.861,10.455l0.258-0.135c0.076-1.812,0.256-5.758,0.469-9.785c0.236-4.061,0.469-8.205,0.623-10.369
					l-5.295-0.143c-0.025,1.195,0.053,8.648,0.053,10.178c-0.9-0.727-9.227-7.48-12.908-10.371l-0.264,0.166
					c-0.256,3.695-0.873,17.926-1.033,19.904L336.707,302.703z"/>
				<path fill-rule="evenodd" clip-rule="evenodd" fill="#ED1C24" d="M368.561,289.723c0-3.336,0.076-6.445,0.127-6.945h-6.09
					c0.051,0.668,0.129,6.418,0.129,6.893v4.338c0,4.805-2.133,6.031-3.637,6.918l2.777,4.812c4.148-2.363,6.693-5.615,6.693-11.68
					V289.723z"/>
				<path fill-rule="evenodd" clip-rule="evenodd" fill="#ED1C24" d="M385.406,298.012c-1.221,0.109-5.141,0.051-5.809,0.049v-3.309
					c0.566,0.002,4.021,0.117,4.717,0.117l-0.078-4.445c-1.145,0.109-4.125,0.244-4.639,0.242v-3.668c0.463,0,4.535-0.133,5.5-0.133
					l-0.109-4.588c-0.957,0.084-9.67,0.5-11.121,0.5c0.025,0.803,0.076,7.504,0.076,7.947v3.727c0,0.635,0.002,6.584-0.076,8.062
					c1.35,0,10.703,0.277,11.643,0.277L385.406,298.012z"/>
				<path fill-rule="evenodd" clip-rule="evenodd" fill="#ED1C24" d="M395.711,286.613c2.801,0.027,3.662,1.279,3.662,2.584
					c0,1.863-1.844,3.393-2.98,4.111c0.693,1.227,5.725,9.041,6.322,10.096l4.74-3.836c-0.668-0.887-4.639-5.197-5.416-6.143
					c2.023-1.529,3.348-3.283,3.348-5.562c0-2.559-2.076-4.17-5.912-4.699c-2.338-0.334-5.936-0.385-9.494-0.385
					c0.076,0.525,0.127,6.559,0.129,7.395v2.273c0,0.586,0.057,9.4-0.053,10.068h5.783c-0.051-0.418-0.129-7.453-0.129-8.506
					V286.613z"/>
				<path fill-rule="evenodd" clip-rule="evenodd" fill="#ED1C24" d="M416.084,302.793c-0.051-0.525-0.135-6.752-0.135-8.898v-0.5
					h0.057c1.684,2.646,6.432,9.207,6.869,9.785l4.561-4.277c-1.061-1.195-4.768-5.367-5.705-6.479c1.4-1.586,4.516-4.945,5.5-6.057
					l-4.305-4.062c-0.592,0.777-5.416,7.229-6.92,9.316h-0.057v-0.727c0-2.416,0.107-7.947,0.133-8.396h-6.045
					c0,0.643,0.109,6.258,0.109,8.674v2.949c0,3.166-0.082,7.863-0.107,8.672H416.084z"/>
			</g>
		</g>
	</g>
</g>
</svg>
