<?xml version="1.0" encoding="utf-8"?>
<!-- Generator: Adobe Illustrator 16.0.0, SVG Export Plug-In . SVG Version: 6.00 Build 0)  -->
<!DOCTYPE svg PUBLIC "-//W3C//DTD SVG 1.1//EN" "http://www.w3.org/Graphics/SVG/1.1/DTD/svg11.dtd">
<svg version="1.1" id="Layer_1" xmlns="http://www.w3.org/2000/svg" xmlns:xlink="http://www.w3.org/1999/xlink" x="0px" y="0px"
	 width="160.652px" height="187.09px" viewBox="320.052 205.832 160.652 187.09"
	 enable-background="new 320.052 205.832 160.652 187.09" xml:space="preserve">
<g>
	<path fill="#1D1D1B" d="M342.172,253.749c-0.683-0.683-2.221-4.441-2.221-4.441c-0.427-0.854-1.11-4.014-5.809-4.014
		c-4.697,0-6.576,3.417-6.576,9.224c0,1.452,0.342,4.185,0.342,4.869c0,2.049-1.452,4.099-1.452,12.128
		c0,8.028,2.306,5.637,2.306,14.092c0,1.623-0.427,2.477-0.427,3.672c0,3.758,3.417,6.32,5.979,6.833l0.086,0.086
		c0.938,1.281,2.807,3.711,4.27,4.612c1.11,0.684,1.895-0.254,1.965-0.939c0.256-2.477,0.341-5.723,0.341-9.822
		c0-2.049-1.964-2.135-3.417-2.135c-1.451,0-2.588,0.427-2.562-0.939c0.021-1.131,0.623-1.66,1.473-2.178
		c0.491-0.299,1.389-0.961,1.857-1.174L342.172,253.749L342.172,253.749z"/>
	<path fill="#1D1D1B" d="M468.832,309.818c0.896,0.938,3.716,3.246,5.595,3.758c0.666,0.182,0.873,0.262,1.024-0.512
		c0.428-2.179-0.469-9.01-1.964-12.599v0.043c-0.599-0.172-1.751-0.299-2.478-0.299s-2.093,0.256-2.689,0.426l-0.086,0.044
		c-1.409-0.599-2.008-1.153-2.903-2.05c-0.897-0.897-1.367-1.708-1.965-2.733l-2.307,1.067c0,0-0.981,0.556-1.965,0.556
		c-4.653,0-10.206-6.021-13.494-13.708v0.043c-0.727,0.342-4.611,2.22-7.217,2.22c-4.954,0-9.993-3.886-11.872-7.302l-0.043-0.256
		c0.685-0.939,1.623-6.491,1.623-7.943c0-2.506-0.797-5.129-2.267-7.569l0.046-0.032c0.769-0.427,1.538-1.343,3.844-1.281
		c3.202,0.085,5.915,2.375,9.225,4.697c2.33,1.636,5.808,4.1,9.225,4.1c3.416,0,7.174-1.538,9.65-2.733
		c1.586-0.765,4.1-1.964,6.234-1.964c1.323,0,3.371,1.143,4.612,2.135c1.921,1.537,3.844,1.931,5.21,1.964
		c3.501,0.085,6.234-4.313,5.979-7.388c-1.367,1.836-3.716,3.502-5.552,3.544c-1.281,0.03-2.088-0.258-4.355-2.647
		c-3.074-3.241-3.796-3.736-7.09-3.758c-2.43-0.016-4.057,0.683-4.696,1.068c-0.524,0.314-1.024,0.726-3.587,0.726
		c-2.563,0-3.845-1.195-5.895-3.16c-4.102-3.932-6.576-4.014-10.505-4.014c-7.516,0-11.572,3.651-14.392,5.957h0.001
		c-3.784-4.297-9.842-7.494-17.296-7.494c-3.331,0-6.662,0.683-9.14,1.793l-0.17,0.085c-0.981,2.263-5.295,2.904-8.114,2.904
		c-2.817,0-7.345-0.769-8.541-2.904v0.085c1.196-2.392,4.443-6.699,10.164-6.833c3.672-0.085,4.271,2.306,3.844,3.672v0.085
		c0.812-0.64,1.451-1.452,1.451-2.391c0-0.939-0.427-2.819-1.623-3.673h0.043c0.642-0.299,1.281-0.427,2.35-0.427
		c1.067,0,2.604,0.213,3.032-1.581h-0.085c-1.665-0.042-2.478-0.213-2.903-1.281h0.021c0.854-0.171,2.798-0.231,3.311-0.213
		c1.26,0.042,1.899,0.683,2.092,1.195c0.77-0.256,1.196-1.089,1.196-1.836c0-1.324-2.648-1.964-3.822-2.242
		c-0.318-0.075-0.769-0.064-0.641-0.769v-0.021c3.374,0,8.988-1.922,8.221-4.441v0.042c-1.495,0.598-4.143,0.812-5.296,0.726
		c-0.343-0.025-0.512-0.213-0.512-0.513c0-0.299,0.171-0.256,0.726-0.256c3.715,0,6.363-1.409,7.857-3.459
		c0.645-0.883,1.705-2.638,3.074-2.69c0.426-0.016,0.599-0.042,1.067,0.32l0.021-0.021c-0.149-1.345-1.176-1.388-1.646-1.367
		c-0.597,0.027-1.302,0.256-1.879,0.726c-1.411,1.15-4.143,1.409-5.893,1.324h-0.043c6.447-1.708,7.899-4.271,7.899-8.242v-0.043
		c-1.409,2.306-4.355,3.459-7.943,3.459c2.647-1.324,6.619-2.775,6.662-6.491c0.015-1.238-1.109-2.904-1.922-3.032l-0.043,0.042
		c0.47,1.751-0.641,3.716-3.843,3.716c-1.452,0-1.938-0.124-3.673-1.324c-5.481-3.793-13.708-7.43-22.292-7.43l-0.042-0.043
		c-0.085-0.854,0.291-2.889,0.683-3.501l-0.042-0.043c-2.903,0-4.869,2.178-5.68,3.801l-0.214,0.043
		c-2.904,0.512-5.295,2.007-6.406,2.69c-1.11,0.683-2.733,1.58-4.014,1.665l-0.171,0.171c-2.307,3.801-9.822,9.011-15.373,9.565
		h-0.085c-0.812,1.666-0.812,4.143-0.812,4.185c0,0.429,0.213,1.324,0.684,1.666l1.346,0.726c2.242-1.452,6.277-2.349,7.109-2.349
		c0.833,0,1.815,0.363,1.815,0.79c0,0.427-0.539,0.321-1.238,0.384c-2.804,0.255-4.164,0.939-5.188,1.879
		c-0.73,0.669-0.513,1.58,0.021,1.986c2.257,1.716,4.163,2.007,4.163,2.007c3.118-2.818,6.918-4.398,10.121-4.355
		c3.331,0.044,4.356,0.598,5.979,1.537c-8.797-0.256-16.229,3.673-21.182,8.37c-3.244,3.076-6.79,7.729-8.797,13.324l-2.604-5.423
		c-0.514-0.982-1.11-3.203-5.21-3.203c-4.058,0-6.705,2.135-6.705,9.224c0,2.648,0.256,2.392,0.256,4.954s-1.636,2.99-1.538,11.872
		c0.085,7.687,2.392,5.295,2.392,15.032c0,1.964-0.512,1.793-0.512,2.989c0,3.63,3.544,6.021,6.491,6.918h0.085
		c0.726,1.281,2.896,4.419,4.44,4.869c0.571,0.166,0.896-0.043,1.153-0.428c0.085-0.127,0.812-2.69,0.812-6.491
		c0-2.221-0.214-5.21-0.3-6.106h-0.042c-1.024,0.042-3.672,0-4.355,0c-0.982,0-1.495-0.47-1.495-1.281s0.42-1.304,0.854-1.58
		c0.47-0.299,1.751-1.196,2.349-1.537l0.214-0.128c-1.751-1.793-5.893-5.637-2.819-8.199l0.043,0.085
		c0.685,1.922,2.138,3.63,3.246,4.826c2.179,2.349,2.841,1.857,4.058,3.203c1.235,1.366,3.102,5.031,6.405,7.559
		c5.638,4.313,8.798,4.837,10.848,4.783c2.177-0.058,3.844-2.306,3.844-4.355c0-1.452-0.862-3.038-1.495-3.459
		c-0.385-0.256-0.513-0.812-0.47-1.281l0.085-0.042c6.278,2.007,13.196,3.246,21.054,3.246c3.93,0,12.47-0.854,14.007-1.196
		l-1.366,3.331c2.477,0.342,4.185,0.342,5.38,0.342s6.918-0.512,8.541-0.769v0.085c2.306,2.989,5.723,7.003,14.945,7.003
		c4.868,0,11.957-2.221,14.861-3.587h-0.171c1.794,2.05,5.55,4.872,8.712,6.321c3.579,1.639,7.771,2.689,12.981,2.562l-0.042,0.041
		c2.391,3.033,4.739,4.912,7.687,5.64L468.832,309.818L468.832,309.818z"/>
	<path fill="#1D1D1B" d="M329.098,295.002c8.503,28.783,35.226,49.896,67.533,49.656c27.709-0.205,52.184-15.475,63.645-39.055
		l-0.025-0.013c-1.836-0.043-4.265-0.204-5.979-0.514l0.025,0.016c-10.974,20.308-32.824,34.164-57.328,34.164
		c-25.414,0-47.884-14.905-58.366-36.452l-0.081-0.029c-1.546-0.449-3.716-3.588-4.441-4.869h-0.086
		c-1.722-0.524-3.649-1.559-4.953-3.054L329.098,295.002L329.098,295.002z"/>
	<path fill="#1D1D1B" d="M458.375,295.829c2.195-6.338,3.392-13.121,3.392-20.172c0-2.646-0.163-5.255-0.479-7.817l-0.056,0.001
		c0.854-0.342,2.135-0.512,2.988-0.512c0.854,0,1.793,0.427,2.562,0.854l0.057,0.042c0.225,2.327,0.334,4.693,0.327,7.095
		c-0.022,6.813-0.973,13.309-2.722,19.398l-0.013,0.07l-0.47-0.769l-2.263,1.025c-1.238,0.598-2.265,1.11-3.331,0.854
		L458.375,295.829L458.375,295.829z"/>
	<path fill="#1D1D1B" d="M459.667,258.624c-7.573-27.394-33.396-47.575-63.09-47.575c-1.025,0-2.05,0.167-2.05,0.167l-0.078-0.018
		c-3.573-1.55-7.545-2.76-12.13-3.125l0.185-0.071c4.535-1.083,10.107-2.023,14.126-2.023c33.206,0,61.118,21.788,68.579,52.552
		l-0.05,0.001c-1.367-0.512-4.655-0.299-5.724,0.043L459.667,258.624L459.667,258.624z"/>
	<path fill="#1D1D1B" d="M402.471,377.035c0,1.879-0.938,2.818-2.732,2.818h-8.285c-0.896,0-1.238,0.598-1.238,1.237
		c0,1.793,0.939,2.732,2.818,2.732l10.121,0.043c1.794,0,2.732,0.938,2.732,2.817v3.289c0,1.879-0.938,2.818-2.732,2.818h-19.131
		c-5.638,0-7.745-3.33-7.688-8.369v-17.168c-0.059-5.039,2.05-8.369,7.688-8.369h19.131c1.794,0,2.732,0.939,2.732,2.818v3.287
		c0,1.879-0.938,2.818-2.732,2.818l-10.121,0.043c-1.879,0-2.818,0.938-2.818,2.733c0,0.64,0.342,1.238,1.238,1.238h8.285
		c1.794,0,2.732,0.938,2.732,2.817V377.035L402.471,377.035z"/>
	<path fill="#1D1D1B" d="M320.052,389.975c0,1.879,0.939,2.818,2.733,2.818h8.882c1.793,0,2.733-0.939,2.733-2.818v-28.27
		c0-1.879-0.94-2.818-2.733-2.818h-8.882c-1.794,0-2.733,0.939-2.733,2.818V389.975L320.052,389.975z"/>
	<path fill="#1D1D1B" d="M408.192,375.625c0-10.334,4.868-17.166,15.716-17.123h11.529c1.794,0,2.732,0.939,2.732,2.818v3.502
		c0,1.879-0.938,2.818-2.732,2.818h-7.688c-4.526-0.043-5.124,3.801-5.124,7.983v0.172c0,4.187,0.598,8.027,5.124,7.986h7.688
		c1.794,0,2.732,0.938,2.732,2.817v3.502c0,1.879-0.938,2.818-2.732,2.818h-11.529c-10.848,0.043-15.716-6.791-15.716-17.125
		V375.625L408.192,375.625z"/>
	<path fill="#1D1D1B" d="M464.989,392.922c10.847,0.043,15.715-6.791,15.715-17.125v-0.172c0-10.334-4.868-17.166-15.715-17.123
		h-9.993c-10.847-0.043-15.715,6.789-15.715,17.123v0.172c0,10.334,4.868,17.168,15.715,17.125H464.989L464.989,392.922z"/>
	<path fill="#1D1D1B" d="M359.767,392.793c3.16,0,6.149-2.477,6.747-4.611l7.003-25.879c0.385-1.281-0.427-3.416-2.647-3.416h-4.483
		c-2.05,0-2.349,1.494-2.647,2.732l-4.868,19.9c-0.256,1.024-0.599,1.237-0.939,1.237c-0.342,0-0.726-0.555-0.896-1.237l-4.868-19.9
		c-0.299-1.238-0.598-2.732-2.647-2.732h-9.225c-2.22,0-3.032,2.135-2.647,3.416l-0.042-0.086l7.132,25.965
		c0.598,2.135,3.587,4.611,6.748,4.611H359.767L359.767,392.793z"/>
	<path fill="#FFFFFF" d="M461.146,383.783c4.526,0.041,5.125-3.801,5.125-7.986v-0.172c0-4.184,0-7.941-5.125-8.498h-2.307
		c-5.125,0.557-5.125,4.314-5.125,8.498v0.172c0,4.186,0.6,8.027,5.125,7.986H461.146L461.146,383.783z"/>
</g>
</svg>
