<?xml version="1.0" encoding="utf-8"?>
<!-- Generator: Adobe Illustrator 16.0.0, SVG Export Plug-In . SVG Version: 6.00 Build 0)  -->
<!DOCTYPE svg PUBLIC "-//W3C//DTD SVG 1.1//EN" "http://www.w3.org/Graphics/SVG/1.1/DTD/svg11.dtd">
<svg version="1.1" id="Layer_1" xmlns="http://www.w3.org/2000/svg" xmlns:xlink="http://www.w3.org/1999/xlink" x="0px" y="0px"
	 width="187.086px" height="90.76px" viewBox="2.835 50.998 187.086 90.76" enable-background="new 2.835 50.998 187.086 90.76"
	 xml:space="preserve">
<g>
	<path fill="#393A96" d="M9.986,78.158c-0.453-2.716-3.848-2.037-3.848-2.942c0-1.584,1.811-2.037,3.168-2.49
		c4.753-2.49,9.733-4.074,14.712-5.659c0.679-0.226,1.132-0.226,1.132,0.227c0,2.037-2.49,3.169-2.49,5.206
		c-0.226,4.979-0.226,11.09,0,16.07c0.227,0.453,0.227,0.905,0.679,0.679c3.621-4.527,6.563-9.28,10.185-13.58
		c8.601-10.411,19.917-17.654,31.687-21.502c4.979-1.584,12.222-2.263,15.391,2.942c1.358,3.169,0.679,7.017-1.584,9.506
		c-2.942,2.716-6.563,4.527-10.638,4.301c-0.679-0.453-0.227-1.584-0.453-2.037c-1.131-2.716-4.074-3.168-6.563-3.168
		c-11.091,1.584-20.37,9.506-27.386,18.333c-0.679,1.584-2.264,2.942-1.358,4.979c4.301,7.695,8.148,15.39,12.901,22.859
		c0.679,0.453,0.679,1.359,1.811,1.359c0.905-0.906,0.453-2.49,0.679-3.621c0.227-7.469-0.226-13.807-0.226-21.276
		c0-2.037-2.942-1.584-2.942-3.622l0.679-0.453c4.074-1.132,7.921-2.49,11.996-2.942c0.679,0.453,0.226,2.037,1.358,1.811
		c2.49-3.621,7.016-4.753,11.09-4.074c2.942,0.679,5.432,3.395,6.111,6.337v1.584l0.453,18.56c0.227,0.679,0.227,1.812,1.132,2.037
		c0.453,0,0.679,0.228,1.132,0.451c0.226,0.68-0.679,0.905-1.132,1.133c-3.848,0.453-7.243,1.131-11.09,1.812h-0.679l-0.226-20.824
		c0-1.584-0.679-3.395-2.263-4.074c-1.132-0.226-2.264,0-2.942,0.679c-2.037,2.037-1.584,5.206-1.584,8.148
		c0,4.753-0.453,9.958,0.226,14.486c0,1.584,3.848,1.131,1.811,2.94c-9.28,2.037-18.333,4.979-27.16,8.603
		c-0.453,0.227-0.905-0.228-0.679-0.906c0.453-1.131,1.132-2.037,1.132-3.168c-0.226-3.168-2.263-5.205-3.621-7.695
		c-2.49-3.848-4.074-7.922-7.017-11.77c0-0.228-0.226-0.228-0.453-0.228l-0.453,0.681l0.453,21.727c0,1.133,0,2.49,1.131,2.943
		c0.906,0.68,2.264-0.228,3.169,0.903c-0.227,0.906-1.358,0.906-1.811,1.359c-5.432,2.487-10.638,5.432-15.844,8.373
		c-0.453,0.227-0.679-0.228-0.905-0.451c0.226-1.812,1.811-2.943,1.811-4.754L9.986,78.158L9.986,78.158z"/>
	<path fill="#393A96" d="M131.979,77.932l0.68,0.679c5.206,0.227,12.222,4.075,16.068-2.037c1.358-1.811,2.265-3.848,2.942-5.885
		c0.228-0.679,0.905-0.679,1.358-0.453c0.451,4.074,0,8.601,0.679,12.675c1.584,0.905,3.621,1.131,5.433,1.811
		c0.68,0.905,0.227,2.49,0.227,3.395c-1.811-0.227-3.395-0.905-5.206-0.679l-0.452,0.453v16.295c0.452,2.942-0.68,6.791,2.49,8.147
		c1.357,1.133,4.3-1.356,4.072,1.358c-2.037,2.488-5.205,3.168-8.601,2.716c-2.716-0.681-5.657-1.812-7.469-4.752
		c-0.679-1.587-0.905-3.171-1.132-4.98l-0.228-19.917c-0.452-3.848-4.753-3.395-7.469-4.074c-0.905,0-2.265-0.227-2.716,0.905
		l-0.453,1.811c0.227,6.111,0.227,11.542,0.453,17.427c0.451,1.812,1.357,3.396,3.395,3.848c0.905,0.228,2.037-0.227,3.17-0.452
		c0.451,0.452,0,1.133-0.228,1.586c-2.489,2.715-5.886,3.848-9.506,2.94c-3.169-0.681-6.563-3.396-7.242-6.563l-0.453-3.621
		l-0.452-16.749c0-0.905,0.452-2.264-0.227-2.942c-1.358-0.905-2.942-0.679-4.527-1.131c-0.227-0.906-0.227-2.264,0-3.169
		c4.527,0.227,8.375-1.132,11.316-4.753c1.133-1.584,1.585-3.395,2.49-5.206c0.453-0.679,0.904-0.453,1.357-0.226L131.979,77.932
		L131.979,77.932z"/>
	<path fill="#393A96" d="M173.399,72.952c1.356,2.264,0.451,5.432-0.905,7.469c-1.358,1.811-3.849,3.621-6.111,3.848
		c-0.228-0.227-0.228-0.679,0-0.905c1.358-1.132,2.263-2.49,2.263-4.3c0-0.906-0.679-1.132-1.356-1.584
		c-0.679-0.452-1.584,0-2.037-0.905c-0.452-1.358-0.228-3.169,0.679-4.527c1.133-1.358,2.717-1.811,4.527-1.358
		C171.588,70.916,172.72,71.594,173.399,72.952L173.399,72.952z"/>
	<path fill="#393A96" d="M114.554,84.042c2.715,5.432,2.488,12.674-0.906,17.428c-4.073,6.338-11.316,7.469-18.106,6.789
		c-5.885-0.678-11.317-4.979-13.354-10.637c-1.811-6.111-0.679-12.901,3.848-17.654c5.432-5.658,14.485-5.658,21.274-2.942
		C110.479,78.384,112.968,81.1,114.554,84.042L114.554,84.042z M97.353,79.063c-1.358,0.453-2.718,1.584-3.169,3.168
		c-0.679,4.979-0.453,9.959-0.226,14.938c0,2.49,0,4.98,1.811,6.791c1.584,0.904,4.299,1.357,6.111,0.225
		c2.037-1.131,2.037-3.621,2.263-5.658c-0.226-5.657,0.453-11.769-0.904-16.975C102.33,79.516,99.614,78.837,97.353,79.063
		L97.353,79.063z"/>
	<path fill="#393A96" d="M181.094,91.512c1.812,1.358,3.622-1.132,5.206,0.453c0.227,2.942,0.453,5.886,0.227,8.827
		c-0.452,0.68-1.131,0.453-1.811,0.453c-1.357-0.68-1.811-2.264-2.716-3.395c-1.585-2.491-4.074-3.849-7.017-3.623
		c-0.453,0.226-1.133,0.905-1.358,1.357c-0.226,2.038,1.585,3.395,2.942,4.075c4.979,2.715,13.127,5.657,13.354,12.899v2.822
		c-0.339,2.738-1.697,5.156-4.072,6.684c-5.886,4.074-14.938,2.037-20.371-1.584c-2.49-2.037-4.525-4.754-3.621-7.922
		c0.453-1.811,2.037-3.168,3.621-3.621c3.621-0.68,7.018,0.904,8.828,3.849c0.451,1.584-1.812,1.131-2.037,2.715
		c-0.453,1.133-0.453,2.49,0.451,3.396c1.586,1.357,3.622,1.812,5.658,1.357c1.357-0.68,2.49-2.037,2.49-3.395
		c-0.227-4.98-5.885-6.111-9.055-8.603c-3.848-1.811-9.278-4.979-9.278-9.959c-0.228-3.167,0.905-5.884,3.62-7.694
		C170.457,87.664,177.021,88.796,181.094,91.512L181.094,91.512z"/>
	<path fill="#393A96" d="M64.533,52.356c-14.259,4.753-27.386,14.711-36.439,27.839c-1.358,1.811-2.49,4.074-3.848,5.658
		c-0.453-0.227-0.226-0.906-0.226-1.358c8.375-14.032,23.539-27.16,38.477-32.366C64.533,51.451,65.665,51.903,64.533,52.356
		L64.533,52.356z"/>
	<path fill="#393A96" d="M131.979,64.125v0.453c-3.621-0.453-3.168,3.621-4.752,5.432c-2.265,4.301-7.244,5.659-11.996,4.979
		c-0.228-0.226-0.453,0.227-0.68,0.453c0,1.358,0.227,2.716,0,4.074c-0.453,0.453-0.453-0.453-0.68-0.906v-4.3l0.453-0.227
		c4.525,0.905,9.506-0.226,11.996-4.074c1.584-1.811,1.584-4.752,3.621-6.111C130.622,63.899,131.301,63.899,131.979,64.125
		L131.979,64.125z"/>
	<path fill="#393A96" d="M24.019,65.257c-6.337,2.037-13.806,5.206-18.559,7.695c-0.453,0.227-1.358,0.679-1.584,1.584
		c-0.227,0.679,0.226,1.132,0.679,1.584c1.811,1.132,3.621,0.905,3.621,2.716L8.629,98.3l0.227,20.371
		c-0.453,4.301,1.358,10.186-1.811,13.58c-0.905,0.904,1.358,2.715-0.679,2.49c-1.584-1.812,0.226-3.623,0.905-5.207l0.453-2.264
		v-15.164L7.497,99.66L7.271,84.495c-0.453-2.037,0.905-5.885-2.037-7.016c-0.679-0.226-1.811-0.453-2.263-1.358
		c-0.227-1.132-0.227-2.263,0.453-2.942c6.111-4.074,12.901-6.111,19.917-8.375h0.679L24.019,65.257L24.019,65.257z"/>
	<path fill="#393A96" d="M153.256,68.652c-0.228,0-0.228,0-0.228,0.227c-1.131-0.227-2.489-0.227-2.941,1.131
		c-0.679,3.622-2.941,7.243-6.562,8.375c-3.396,0.226-6.564-0.905-9.732-1.358c-0.227-0.226-0.227-0.453-0.227-0.679
		c4.301,0,9.506,3.396,12.675-0.679c2.036-1.811,2.489-4.527,3.62-6.79c0.453-0.453,0.68-0.905,1.133-0.905
		C151.671,68.199,152.804,67.973,153.256,68.652L153.256,68.652z"/>
	<path fill="#393A96" d="M173.173,70.236v0.227c-2.264-0.906-5.206-1.811-7.469-0.227c-1.812,1.584-2.941,4.074-2.49,6.564
		c0.453,0.679,0.453,1.584,1.357,1.81c0.68-0.226,1.357,0,1.812,0.227c0.228,0.453,0.679,1.132,0.452,1.584
		c-0.452,1.358-1.584,2.037-2.264,2.942c-0.227-0.227-0.227-0.679,0-0.905c0-1.132,2.264-2.263,0.68-3.169
		c-1.132,0-2.264-0.679-2.716-1.811c-0.679-3.168,0.452-6.337,2.942-8.148C167.741,67.747,171.588,68.652,173.173,70.236
		L173.173,70.236z"/>
	<path fill="#393A96" d="M107.987,75.668c-0.904,0-2.035-0.453-3.168-0.905c-7.469-2.037-16.295-0.679-21.274,5.658
		c-3.848,4.753-4.753,11.543-2.942,17.428c0.227,0.678,0.227,1.131,0.453,1.584c1.131,3.168,4.753,6.338,7.921,8.148
		c-4.979-0.906-8.601-5.885-9.958-10.639c-1.584-8.147,0.905-16.296,7.922-20.822c5.658-3.848,14.71-3.848,20.824-0.679
		L107.987,75.668L107.987,75.668z"/>
	<path fill="#393A96" d="M74.944,79.743c0,0.226,0.226,0.679,0.226,0.905c-2.263-2.716-5.884-3.395-9.506-2.942
		c-2.263,0.452-4.3,1.358-6.111,2.942c0.453-1.584,2.264-2.263,3.395-3.168C66.796,76.347,72.002,76.347,74.944,79.743
		L74.944,79.743z"/>
	<path fill="#393A96" d="M57.063,79.516c-4.3,1.131-8.827,2.037-13.127,3.621c-0.453,0.453-1.132,0.679-1.358,1.358
		c-0.227,2.49,2.716,2.49,3.621,4.301c0.453,6.79,0,14.26,0.453,20.823c-0.226,0.225-0.226,0.45-0.453,0.225
		c-0.905-1.131-0.679-3.168-0.679-4.524l-0.227-15.392c-0.679-2.716-4.753-2.49-3.622-5.658c1.132-2.263,3.622-2.263,5.659-2.942
		c3.168-0.679,6.111-2.263,9.732-2.037L57.063,79.516L57.063,79.516z"/>
	<path fill="#393A96" d="M100.294,81.1c1.357,0.906,1.131,1.811,1.357,4.301V99.66c0,1.131,0,2.037-0.68,2.715
		c-0.904,1.586-3.168,1.133-4.074,0.681c-0.453-0.453-0.679-0.228-0.227,0.227c1.133,0.904,2.941,0.904,4.074,0.453
		c2.264-1.359,1.811-4.074,2.037-6.338c-0.227-5.207,0.453-10.864-0.905-15.617c-0.228-0.679-0.905-1.358-1.812-1.358
		C99.614,80.421,100.067,80.874,100.294,81.1L100.294,81.1z"/>
	<path fill="#393A96" d="M159.366,82.232v0.679c-1.584-0.453-3.395-0.679-4.526-1.584l0.228-0.453
		C156.649,81.1,158.008,81.779,159.366,82.232L159.366,82.232z"/>
	<path fill="#393A96" d="M119.758,81.779l0.453,19.465c0.228,2.94,0.905,5.885,3.396,7.922v0.228
		c-1.584-0.453-2.717-1.812-3.396-3.17c-0.68-1.132-0.68-2.488-0.905-3.621l-0.453-21.05
		C119.306,81.553,119.531,81.327,119.758,81.779L119.758,81.779z"/>
	<path fill="#393A96" d="M141.033,85.854l0.452,22.633c0.453,2.037,1.357,3.848,2.49,5.432c-1.584-0.225-2.037-2.262-2.942-3.395
		c-0.905-2.715-0.452-6.562-0.679-9.506c0-5.433-0.228-10.639-0.228-15.618C140.581,85.174,141.033,85.627,141.033,85.854
		L141.033,85.854z"/>
	<path fill="#393A96" d="M182.679,89.927c1.133,0,2.489-1.358,3.396,0c-1.584,0-2.716,1.358-4.073,0.453
		c-4.527-2.49-10.639-4.074-15.617-1.584c-3.169,1.584-5.205,4.753-5.432,8.374c-0.227,2.037,0.227,3.849,1.357,5.433
		c-1.133,0.227-1.133-1.357-1.812-1.812c-1.584-3.396-0.453-7.469,1.812-9.958c3.621-4.3,9.959-4.753,14.938-3.168
		C179.284,88.117,180.868,89.475,182.679,89.927L182.679,89.927z"/>
	<path fill="#393A96" d="M63.627,88.796l0.227,2.49l0.453,19.917c-0.227,0.453-0.679,0.453-0.905,0.453l-0.227-0.453l-0.227-16.975
		c-0.453-1.811,0.679-4.753-1.131-6.111C62.496,87.211,63.627,88.117,63.627,88.796L63.627,88.796z"/>
	<path fill="#393A96" d="M182.228,100.338c-1.586,0.228-2.037-1.812-2.942-2.715c-0.681-0.681-1.585-0.906-1.812-1.811
		c0.68-0.227,1.357,0.453,2.036,0.678C180.642,97.851,181.772,98.979,182.228,100.338L182.228,100.338z"/>
	<path fill="#393A96" d="M32.167,115.051c1.811,2.716-1.811,4.302-0.905,6.789c-0.226,0.228-0.453,0.453-0.679,0.228
		c-1.358-2.265,1.811-3.621,0.905-5.885c-2.264-4.302-4.753-8.601-7.243-12.675l0.227-1.811
		C27.188,105.996,29.451,110.75,32.167,115.051L32.167,115.051z"/>
	<path fill="#393A96" d="M165.704,107.582c-2.037,0.228-4.301,0.903-5.206,2.715c-0.453,0.228-0.905,0.228-1.132-0.228
		c0.679-1.356,1.811-2.036,3.169-2.487C163.44,107.129,164.799,107.129,165.704,107.582L165.704,107.582z"/>
	<path fill="#393A96" d="M179.284,115.955c0.226,0.905,0,2.037-0.68,2.717c-0.228,0.228-0.453,0.453-0.68,0.453
		c0.452-0.906,0.68-2.037,0.452-3.17c-0.226-0.904-1.131-1.356-1.356-2.263c0.227,0,0.679,0.226,0.904,0.226
		C178.604,114.371,179.058,115.276,179.284,115.955L179.284,115.955z"/>
	<path fill="#393A96" d="M160.045,117.088c0.906,1.131,1.812,2.265,2.942,3.396v0.227c-1.584-0.227-2.717-1.584-3.621-2.943
		C159.14,117.313,159.593,116.86,160.045,117.088L160.045,117.088z"/>
	<path fill="#393A96" d="M113.873,121.388c-0.228-0.679-0.452-0.226-0.452,0c-0.227,0.905-0.679,1.358-1.357,1.586
		c-0.453,0.227-0.905,0.227-1.133-0.228c0-1.134-0.226-2.49,0.228-3.621c1.358,0,2.942,0.228,3.848,1.356
		c0.453,0.453,0.228,1.812,1.132,1.584c-0.227-1.356,0.68-3.168-0.679-3.848c-0.453-0.227-7.694-0.68-8.601-0.453
		c-0.453,0-0.228,0.228,0,0.453c0.451,0.227,0.679,0.227,0.679,0.68c0.679,2.941,0.452,6.562,0.228,9.959
		c0,1.131-0.228,1.584-0.906,2.263c1.584,0.453,3.396,0.453,4.979,0.453c0.226-0.453-0.228-0.453-0.453-0.679
		c-0.679-2.037-0.227-4.301-0.452-6.338l0.227-0.453c1.585-0.227,2.264,1.584,2.264,2.265c0,0.452,0.452,0.452,0.452,0
		C113.873,126.142,113.873,121.84,113.873,121.388L113.873,121.388z"/>
	<path fill="#393A96" d="M67.701,121.612l-0.226,3.623c-0.905-0.227-0.905-1.358-1.811-1.812c-0.679-0.678-1.584-0.45-2.49-0.45
		l-0.453,0.45v3.849c0.226,0.453,0.679,0.453,1.132,0.227c1.131-0.453,0.905-1.811,1.811-2.488l0.226,0.451
		c-0.226,2.037,0,3.17-0.226,5.207c-0.679-0.227-0.453-1.133-0.906-1.584c-0.226-0.68-1.131-0.453-1.584-0.453l-0.453,0.678
		l0.226,5.207c0.906,0.451,2.037-0.227,2.942-0.68c1.132-1.131,1.358-2.49,2.037-3.848c0.453-0.228,0.679,0.227,0.679,0.68
		c-0.226,1.357,0.68,3.395-0.905,4.074c-3.168,0.678-6.337,1.584-9.279,2.262c-0.227-0.678,0.905-0.904,0.905-1.584
		c0.453-3.168,0.226-7.469,0-10.863c-0.227-0.453-1.132-0.453-1.358-1.133c2.942-0.904,6.111-1.811,9.506-2.262L67.701,121.612
		L67.701,121.612z"/>
	<path fill="#393A96" d="M56.158,126.594c0,0.904,0.227,1.812-0.453,2.49c-0.453,0.678-1.358,0.904-1.811,1.584
		c1.358,0.451,3.168,0.228,3.848,1.812c0.227,1.131,0.227,2.94-0.453,3.848c-2.942,3.168-7.469,3.395-11.09,4.979
		c-0.226-1.131,0.679-0.678,0.679-1.811c0-2.037,0-7.922-0.905-10.637c-0.227-0.68-1.132-0.453-1.358-0.906
		c1.811-1.131,3.622-1.584,5.658-2.264C52.084,125.01,55.027,124.104,56.158,126.594L56.158,126.594z M49.595,132.705
		c0,1.356-0.226,4.073,0.453,5.885c1.358,0.226,2.942-0.68,3.848-1.812c0.906-1.133,0.906-2.942,0-4.073
		C52.99,131.347,50.5,131.572,49.595,132.705L49.595,132.705z M49.595,127.271c-0.226,0.228-0.226,2.943,0.227,3.623
		c0,0.226,0.452,0.226,0.679,0c0.227,0,1.584-0.68,1.811-0.906c0.679-0.227,1.358-1.584,0.905-2.264
		C52.537,126.367,50.5,126.367,49.595,127.271L49.595,127.271z"/>
	<path fill="#393A96" d="M103.01,117.767c0,0.68-0.68,0.68-1.132,1.133c-2.264,3.168-4.525,6.789-3.169,11.09l0.679,1.131
		l-0.226,0.227c-3.395-0.227-7.696,1.133-10.186-1.584c-1.358-1.356-2.037-2.94-3.621-4.074l-0.227,0.228v4.754
		c0,0.451,0.905,0.679,0.679,1.131c-2.49,0.228-5.885,1.357-8.148-0.452c-1.132-1.132-2.263-2.488-3.169-3.849
		c-0.679-0.228-0.453,0.681-0.679,0.906c0.226,1.584-0.679,3.848,1.584,4.524c-0.227,0.453-0.679,0.453-1.132,0.68l-4.527,0.453
		c0-0.453,0.679-0.68,0.905-1.133v-9.957c-0.226-0.453-0.226-1.133-0.905-1.358c-0.226-0.228-0.679,0-0.452-0.451
		c2.716-0.906,5.658-1.358,8.601-1.358c0.905,0.227,1.81,0.68,2.037,1.584c0.453,1.133,0,2.264-0.905,3.17
		c-0.679,0.68-1.584,0.68-2.037,1.584c1.358,1.811,2.49,3.848,4.527,5.205l0.453-0.679c0-3.396,0.453-7.469-0.453-10.412
		c-0.226-0.452-0.905-0.452-0.679-0.903c2.716-0.681,6.563-1.586,9.279,0c0.679,0.451,0.905,1.131,1.131,2.035
		c0,1.586-1.584,2.489-2.716,3.396c1.584,2.262,3.622,4.301,5.885,5.885c0.905,0,0.905-0.905,1.132-1.358
		c0.905-3.849-1.811-6.789-3.622-9.732c-0.227-0.451-1.131-0.678-1.358-1.357c1.811-0.227,3.621-0.453,5.206-0.227
		c0.226,0.453-0.453,0.68-0.453,1.133c0.453,1.357,1.358,2.715,2.263,3.848c0.904-0.227,1.132-1.358,1.585-2.037
		c0.226-0.68,0.679-1.358,0.452-2.037c0-0.452-0.68-0.68-0.68-1.133C100.067,117.313,101.651,117.767,103.01,117.767L103.01,117.767
		z M74.039,121.162c0.227,1.584-0.453,3.168,0.227,4.524c0.679,0,1.584-0.451,2.037-1.131c0.453-0.68,0.679-2.037,0.226-2.942
		C76.076,120.937,74.718,120.481,74.039,121.162L74.039,121.162z M85.582,119.576c-0.679,0.905-0.453,2.942-0.226,4.526
		c0.679,0.228,1.358,0,1.811-0.68c0.679-0.904,0.679-2.037,0.453-3.168C87.393,119.353,86.487,119.353,85.582,119.576
		L85.582,119.576z"/>
	<path fill="#393A96" d="M121.795,119.576c1.132,4.301,2.716,8.375,4.302,12.676c0.451,0.228,0.678,0.228,0.904,0
		c0.452-3.849,0.227-7.242,0-11.09c-0.227-0.453-0.904-0.681-0.68-1.134c3.396,0.906,8.375,0,10.186,3.621
		c0,0.906,0.227,1.586,0,2.49c-0.453,0.904-1.585,1.357-2.49,1.812c0.68,1.811,2.037,3.621,2.717,5.432
		c0.453,0.681,0.68,1.812,1.812,2.037l0.228-0.903c0-3.621,0.679-7.695-0.228-11.093c0-0.45-0.453-0.678-0.453-1.131l4.526,1.131
		c0.453,0.906,0.68,2.037,0.906,3.17c0.451,1.584,0.679,3.396,1.584,4.979c1.356-2.037,2.037-4.301,3.168-6.336
		c1.357,0,2.717,0.904,4.301,1.356c0,0.679-1.133,0.228-1.357,0.904l0.227,11.771c0,0.453,0.904,0.905,0.453,1.358l-4.979-1.812
		c0-0.451,0.905-0.451,1.132-1.131c0-2.718,0.452-5.658,0-8.148l-0.227-0.227c-0.905,1.133-1.358,2.717-2.037,4.073
		c-0.452,1.359-0.905,2.943-1.811,4.302l-0.453-0.228c-0.905-3.396-1.584-6.789-2.717-10.187l-0.226-0.227l-0.228,0.453
		c0,3.17-0.68,6.338,0.68,9.281h-1.133c-1.811-0.906-4.299-0.68-5.657-2.49c-1.356-2.037-2.037-4.301-3.396-6.111
		c-0.453-0.227-0.453,0.227-0.68,0.227v4.753c0.227,0.452,0.905,0.68,0.68,1.133c-3.168-0.228-6.111-1.133-9.506-1.584
		c0.905-0.453,1.131-1.812,0.68-2.717c-0.228-0.904-0.228-2.037-1.358-2.037s-3.168-1.357-3.621,0.452
		c-0.228,0.904-1.132,2.49,0,3.396c-0.679,0.228-1.812,0.228-2.716,0c-0.227-0.227-0.68,0.228-0.905-0.227
		c3.168-2.716,3.621-7.017,5.205-10.638c0.228-0.906-0.226-1.584-0.679-2.037c0.904-0.68,2.264,0.228,3.396,0.228L121.795,119.576
		L121.795,119.576z M119.531,122.746c-0.452,1.131-0.905,2.264-1.357,3.396c0.679,0.68,1.812,0.227,2.489,0.68l0.227-0.228
		C120.438,125.235,120.211,124.104,119.531,122.746L119.531,122.746z M130.622,121.84c-0.68,1.359-0.453,2.718-0.227,4.074
		c0.227,0.68,0.904,0.905,1.357,0.68c0.68-0.227,1.132-0.68,1.357-1.133c0.227-1.131,0.453-2.262-0.452-2.94
		C131.979,122.065,131.301,121.84,130.622,121.84L130.622,121.84z"/>
	<path fill="#393A96" d="M153.708,139.947c0-0.906,0.904-1.584,1.811-1.584s1.812,0.678,1.812,1.584
		c0,1.131-0.905,1.811-1.812,1.811S153.708,141.078,153.708,139.947L153.708,139.947z M155.519,141.531
		c0.905,0,1.358-0.681,1.358-1.584c0-0.681-0.453-1.357-1.358-1.357c-0.679,0-1.357,0.679-1.357,1.357
		C154.16,140.853,154.84,141.531,155.519,141.531L155.519,141.531z M155.292,141.078h-0.452v-2.037h0.905
		c0.453,0,0.679,0.228,0.679,0.681c0,0.227-0.226,0.452-0.679,0.452l0.679,0.904h-0.452l-0.453-0.904h-0.227V141.078
		L155.292,141.078z M155.519,139.947c0.228,0,0.453,0,0.453-0.453c0-0.228-0.227-0.228-0.453-0.228h-0.227v0.681H155.519
		L155.519,139.947z"/>
	<path fill="#393A96" d="M63.401,51.903c0,0,2.856-0.765,6.288-0.905h2.07c2.165,0.094,4.375,0.518,6.127,1.584
		c0,0-6.564-1.811-14.485,0.226V51.903L63.401,51.903z"/>
</g>
</svg>
