<?xml version="1.0" encoding="utf-8"?>
<!-- Generator: Adobe Illustrator 16.0.0, SVG Export Plug-In . SVG Version: 6.00 Build 0)  -->
<!DOCTYPE svg PUBLIC "-//W3C//DTD SVG 1.1//EN" "http://www.w3.org/Graphics/SVG/1.1/DTD/svg11.dtd">
<svg version="1.1" id="Layer_1" xmlns="http://www.w3.org/2000/svg" xmlns:xlink="http://www.w3.org/1999/xlink" x="0px" y="0px"
	 width="175.75px" height="110.086px" viewBox="8.503 44.917 175.75 110.086" enable-background="new 8.503 44.917 175.75 110.086"
	 xml:space="preserve">
<g>
	<path fill="#8BAAD4" d="M181.185,82.67c-1.386-5.57-1.107-11.14-0.276-16.432c1.106-6.962,1.106-13.646,1.106-20.331
		c-21.052,0.835-42.104-0.557-63.154,0.557c-8.032,0.557-15.789,0.836-23.544,0.836l0,0c-4.986,0-10.249,0.278-15.235-0.279
		C59.03,44.793,38.532,44.515,17.48,45.35c-3.047,0-6.094,1.114-8.864,2.785v0.835c0,1.949-0.277,3.621,0.277,5.57
		c0.831,4.456-1.662,18.381,0.554,22.281c0.277,15.875,4.155,22.838,3.324,38.711c-0.277,3.621-0.554,7.242-1.385,10.584
		c-0.554,1.949,0.554,1.393,0.277,3.062c-0.554,0.837-1.662,3.064-1.385,3.064c6.648,1.112,13.296,1.112,19.944-0.279
		c4.432-1.112,17.728,1.951,22.437,1.394c7.202-0.834,12.465-1.949,19.667-1.113c4.986,0,8.033-3.342,13.019-2.229
		c3.878,0.836,0.554,0.836,4.155,1.672c1.108,0,1.939,0,2.77,0c0.277,0.276,1.662,0.276,2.216,0.276
		c19.39,0.279,39.057,0.279,58.169-0.558c3.878,0,7.479-0.836,11.08-1.393c5.539-0.557,10.803-0.277,16.064-0.277
		c0-3.899-0.554-3.342,0-6.963c1.108-6.405,3.324-12.254,4.155-18.66C185.062,96.596,182.847,89.912,181.185,82.67L181.185,82.67z"
		/>
	<polygon fill="#FFFFFF" points="49.334,71.53 144.065,71.53 144.065,107.178 49.334,107.178 	"/>
	<path d="M172.043,121.383c-0.276-0.557-1.108-1.672-1.108-2.229c-0.275-1.393,0.556-3.62,0.556-5.014
		c0.276-2.506,0-6.404,0.554-8.912C172.597,108.851,171.767,116.926,172.043,121.383L172.043,121.383z M14.987,55.098
		c-1.385,0-2.216,0.279-3.601,0.279c0,1.114-0.277,1.949,0.832,1.949h0.554c1.108-0.278,2.216-0.278,3.601-0.278
		c0,2.228-0.554,4.456-0.831,6.962c-0.554,8.355-2.216,16.432-1.108,25.344c0.277,2.507,0.277,4.456,0.831,6.962
		c0,1.671,0.831,3.621,1.108,5.014c0.831,5.848,0,11.418,0.831,17.545c-1.108,0-1.385,0.278-1.939,0.836
		c-0.831-0.836-1.108-0.558-1.385,0.558c0,0-0.277,0.836-0.277,1.114c0,0.558,1.108,3.619,1.662,3.898
		c0.277,0.278,0.831,0.278,1.662,0.278c0.277,0.836,0.831,1.949,1.385,2.228c1.108,0,1.385-1.113,1.663-1.949
		c2.77,0.56,5.54-0.276,8.586,0c3.878,0.279,8.31,0.279,12.465,0.279c13.296,0,24.653,3.62,37.118,2.506
		c9.417-0.836,20.22-1.67,29.361-2.785c4.709-0.557,9.418,0,14.127-0.836c5.264-0.834,10.526-0.558,16.344-1.112
		c2.492-0.277,5.815-0.837,8.31-0.837c3.603-0.276,6.925,0.837,9.972,1.115c5.817,0.834,12.742,0.834,18.282,0.276
		c1.385,0,3.047,0.558,4.433,0c1.385-0.557,0-2.506-0.555-2.784c0-0.834,0-1.394,0-2.228c-2.216-6.963-1.939-20.053-1.662-28.13
		c0-1.95,0.831-4.177,1.107-6.127c0-3.342,0-6.963-0.83-9.748c0-0.557-0.555-1.393-0.831-1.95c0-1.671,0.554-4.735,0.554-6.684
		c0-3.62,0-7.798-0.277-11.418c2.217-0.557,3.603-2.785,2.217-5.292c-1.938,0.278-1.938,1.392-3.323,0.557
		c-0.556-0.278-1.108-0.835-1.662-0.557c0,0-0.554,0-0.276,0c-0.276,0-0.276,0-0.555,0c-0.831,0.557,0,2.506-0.554,2.785
		c-1.938,0.557-4.709-0.278-6.095-0.278c-4.985-0.557-9.973-0.557-14.403-1.114c-6.647-0.557-13.851-0.279-20.498,0.279
		c-8.032,0.557-14.403-0.836-22.437,0c-4.709,0.278-10.525,0.835-15.234,1.392c-1.939,0.279-3.878-0.278-5.263-0.278
		c-4.709-0.557-9.972-0.278-14.127-0.278c-2.216,0.278-4.432,0.835-6.371,1.114c2.493,0.557,6.094,0.278,8.587,0.278
		c0,0,0,0.557,0,0.836c-4.709,0-7.202-0.279-11.634,0.278c-4.986,0.279-10.526-0.278-15.789,0
		c-5.817,0.557-13.573,0.557-18.004-0.835c-1.385-0.557-2.493-0.557-0.831-1.671c-0.554,0.557-1.662,1.114-2.493,0.835
		c-0.831,0-1.663-0.835-2.493-1.114c-1.939-0.278-4.155,0.557-6.094-0.278c-0.554-0.278-0.832-1.393-1.662-1.949
		C15.818,51.199,14.71,52.87,14.987,55.098L14.987,55.098z M176.198,55.655c0,2.229-0.277,5.013-0.277,6.685
		c0-1.95-0.277-3.342-0.277-5.013l-0.275-0.278c-1.387,4.734-1.108,9.469-1.662,15.039c-0.277,5.57-1.385,11.14-1.662,16.989
		c-0.277,2.785,0,5.57-0.277,8.355c-0.554,2.506-1.66,5.012-2.216,7.24c-0.831,3.064-0.831,6.406-1.385,9.748
		c-0.276,1.949-0.831,4.178-0.276,6.127c-7.757-2.785-18.836-0.836-28.254,0c-4.154,0.557-8.033-0.279-11.91,0
		c-4.709,0.557-10.25,0-14.959,0.279c-5.815,0.557-13.572,1.113-19.666,1.67c-5.54,0.557-10.803,0.279-15.789,0.836
		c-1.662,0.279-3.601,0-4.986,0c-3.324-0.279-6.924,0.279-10.249,0c-2.216-0.279-4.432-0.836-6.648-1.113
		c-7.756-1.115-14.681-0.836-22.437-1.672c-3.878-0.279-7.756-1.113-11.634-1.113c-0.554-5.293-1.385-9.748-1.108-15.598
		c0.277-5.291,1.662-10.583,1.108-15.874c-0.554-6.684-1.385-15.04-1.939-22.559c0-3.899,1.108-5.013,1.108-8.633
		c4.986-0.557,10.803-0.279,15.512,0c5.263,0.557,10.526-0.279,15.789,0c2.216,0.278,4.432,0.557,6.925,0.557
		c6.371-0.557,13.019,0,19.944-0.557c10.526-0.836,19.945-1.115,29.638-0.279c6.094,0.557,12.742-0.557,18.559,0
		c8.311,0.557,17.174-0.278,25.483,0.279c4.985,0.557,10.526-0.279,15.789,0.278c0.554,0,1.385,0.278,1.938,0.278
		c0.276-0.278,0.555-0.835,0.83-0.835c0.556-0.278,1.387,0,2.217,0c0.83-0.278,1.938-0.836,3.048-1.114
		C176.198,55.377,176.476,55.655,176.198,55.655L176.198,55.655z"/>
	<path fill="#F15B47" d="M95.315,65.124c0,0,6.925,0.836,7.202,1.114c-1.107,0.279,3.602-0.835,2.771-0.557
		c1.108-0.558,4.432,1.114,4.709,1.114c-0.554-0.278,1.662-0.278,1.385-0.278c1.386,0,1.938-0.279,2.216-0.279
		c0.832,0.557,3.047,0,2.771,0.557c-0.555,0,2.77-1.114,1.938-0.557c-0.554-0.835,1.939,0,1.108-0.278
		c1.106,0.278,10.524,0.557,10.249,0.557c0.275,0.557,2.77,1.114,1.385,1.114c0.831-0.557,5.816,0.557,6.646-0.278
		c-0.275,0,1.939,0.278,1.939,0.835c0.555,0,1.385,0,1.662,0.557c0.275-0.278,1.661,0.279,2.217,0.836
		c-0.556-0.557,1.106,0.557,1.106,0.278c0,0.279,1.938,1.393,1.662,0.835c0.554-0.278,1.938,1.671,1.661,1.114
		c0,0.278,0.277,2.228,0,1.949c1.108,0,1.939,1.114,2.771,0.835c-0.276-0.278,1.662,1.671,0.556,2.229
		c1.106-0.835,1.938,1.114,1.106,1.114c0.831-0.278,1.662,1.671,0.556,1.114c0.553,0.557,3.6,3.063,1.938,3.342
		c0.831-0.278,2.492,3.342,2.216,3.621c0.276,0,1.385,1.671,1.385,1.95c-0.276-0.557,0.556,1.392,0,1.671
		c0,0-0.276,2.506,0.556,1.671c0,0.835-1.939,2.506-1.939,2.506c1.385-0.557-1.662,3.063-1.385,2.786
		c-0.831-0.279-2.217,0.837-1.939,1.113c-0.275-0.276-1.66,2.229-0.83,1.951c0.276,0.276-1.386,1.112-1.938,1.391
		c0.276,0.558-0.277,2.509-0.831,2.509c0.277-0.558-0.831,1.393-0.831,0.557c-0.554,0.279-1.106,1.67-1.386,1.113
		c0.277,0.557-0.276,1.948-1.385,1.672c0.276,0.276-1.107,1.393-1.385,1.949c0.555-0.558-1.386-0.558-1.939-0.279
		c-0.553,0-2.492,0.836-1.385,0.836c-1.107,0-2.215,0.279-2.492,0.279c0,0.276-2.493,0-2.493,0.557
		c0.276-0.557-1.662-0.279-1.662-0.836c-0.554,0.557-1.386,0.279-1.661,0.557c-0.277,0.559-1.939,0.559-2.493,0.836
		c0.276-0.277-6.094,0.836-6.094,0.279c1.106,0.557-7.756,0-7.479,0c0.277,0.277-1.385-0.279-1.938,0.277
		c0.275-0.558-1.385-0.277-1.939,0.278c-0.275,0.279-1.385,0.558-1.938,0.836c0-0.278-0.831-0.836-1.387-0.836
		c-0.275,0.279-2.215-0.836-1.938,0c0,0-1.385-0.278-3.047-0.836c0.555,0.558-1.662,0.279-0.831,0.836c-0.276,0-2.493,0.279-2.771,0
		c0.83,0.558-3.602-0.278-3.047-0.557c-0.276,0-5.816,0.276-5.54-0.279c-0.831,0.558-1.662,0.836-1.939,0.279
		c0.277,0.557-2.216,0.276-1.662,0.557c0,0-3.047-0.836-2.493,0c-0.554-0.278-2.216,0-1.662,0.558c-0.277-0.558-2.493-0.277-2.493,0
		c-0.554-0.277-2.216-0.836-2.493-1.394c-0.277,0.279-1.385-0.276-2.216-0.276c0,0.276-3.047,1.393-4.432,0.834
		c1.662,0.278-1.939-0.558-1.662,0c1.108,0-2.216,0-0.831-0.277c-0.554-0.557-3.324-0.836-2.493-1.115
		c0,0.559-2.77,0.836-2.216,0.559c-0.277-0.278-3.878-0.278-4.155,0c0.554,0-1.939-0.836-2.216-1.114
		c0.277,0.557-1.108,0-1.662,0.836c0.831-0.836-1.662-0.836-1.939-0.836c-0.554,0.278-11.634-0.837-11.634-1.671
		c0,0.277-1.662-0.278-0.554-0.836c-1.108,0.558-1.385-1.948-0.831-2.229c-0.831,0.557-1.108-1.113-2.216-0.836
		c-0.554-0.277-0.831-1.393-1.107-2.229c0.554,0.559-0.832-1.113,0-1.392c-0.832,0.277-1.108-0.836-1.108-1.393
		c0.277,0-1.939-1.115-2.216-1.394c0.554,0.277,0.277-1.115-0.554-1.95c0.554,0.278,0-1.671,0-1.114
		c-0.277-0.279-2.216-1.114-1.662-1.114c0,0-1.385-4.456-1.939-3.899c0.277-0.557,1.662-2.228,2.216-1.949
		c-0.831-0.557-1.385-2.506-0.277-2.228c-0.554-0.557,1.385-1.95,0.831-2.507c-1.108,0.279,1.108-1.114,1.385-0.557
		c0,0,0.277-1.114,0.554-1.95c0.831,0,3.601-1.95,2.77-2.228c1.107-0.557,2.77-3.342,3.046-3.342
		c-0.554-0.278,0.554-1.393,0.554-1.671c-0.554-0.557,1.385-0.835,1.662-1.393c0.277,0.557,1.939-0.835,2.216-0.835
		c-0.554,0.279,2.493-1.114,2.216-1.393c1.385,0,3.047-0.278,3.047-0.557c-0.277,0.279,0.831-0.835,1.385-1.114
		c-0.277,0.835,2.493,0.557,2.493,0.279c-0.277,0,1.108-0.557,1.939,0.278c-0.277-0.278,2.493-0.557,1.662-0.278
		c0.831,0.278,2.77-0.279,2.77-0.279c-0.831-0.835,0.831-0.278,0.831,0c0-0.835,2.216-0.557,1.939,0c0.831,0,2.493-0.835,2.77-0.835
		c0.277,0.557,1.385-0.278,1.939-0.557c0-0.278,1.939-0.557,2.216,0c-0.554,0,1.662,0.279,1.662,0
		c-0.277,0.279,2.216-0.835,1.662-0.278c-0.831-0.278,2.493,0.278,1.662,0.557c0.831-0.557,3.047-1.114,1.662-0.557
		c1.385-0.278,2.493,0,2.77,0.278c-0.831,0.557,2.216-0.835,2.216-0.557c0,0,1.108,0.557,1.108,0.278
		c1.108,0,2.493,0.278,2.77,0.278c0.277,0.279,1.108,0,1.108,0c0.554-0.557,2.493-1.114,2.216-0.835
		C91.161,65.403,96.146,65.124,95.315,65.124L95.315,65.124z M142.683,89.076c0.275,0.278,0-1.671-1.386-2.506
		c0.276,0.835-0.276-0.557-0.831-1.393c0.276,0-0.277-1.114-0.555-0.835c0-0.557-1.385-2.785-0.275-2.785
		c-0.277,0.835-1.939-0.835-1.662-1.393c-0.555,0.557-1.662-0.557-1.939-0.835c-0.276,0.278-1.385-1.393-1.661-1.393
		c0.276,0.557-1.386-1.114-0.831-1.114c0.275,0-1.107-0.835-1.662-1.114c-0.277,0-1.107-1.392-1.386-1.114
		c0.831,0-1.106-1.114-1.106-1.114c-0.555,0-1.939-1.114-2.494-0.557c0.555,0-1.662-0.557-1.662,0c1.108,0-2.215,0-1.662-0.557
		c0.277,0-8.309-0.557-8.309-0.836c0.276,0.557-0.832-0.278-1.938,0.279c1.385-0.557-2.218-0.279-1.939,0
		c0.277,0.278-3.047,0-3.323,0c0.276-0.279-2.217,0-2.771-0.835c0,0.835-1.386,1.393-0.554,0.557c-0.277,0.557-2.771,0-1.939,0.279
		c-0.831,0.557-2.77-0.557-2.216-0.279c-0.554-0.278-3.601,0.557-4.432,0.557c0.832-0.278-3.601-0.557-3.324-0.835
		c0.554,0-3.324,0.278-2.493,0.278c-0.831,0-1.108,0.557-1.108,0c0.554,0-5.817,0.279-7.202,0c0.554-0.557-1.107,0-1.385,0.279
		c0,0-1.662-0.557-2.77,0c0.831-0.557-1.108,0-1.385,0c0.831-0.279-3.601,0.278-3.601,0.835c0.277,0-1.939-0.557-2.216-0.278
		c-0.277,0-1.939,0.278-1.939,0.278c0.831,0-1.662,0-1.939-0.278c0.277-0.279-1.108,0.557-1.385,0.557
		c-0.554,0.557-3.047,1.114-1.385,0.557c-1.108,0.278-2.493,0.836-2.216,0.278c0.277,0.279-6.647,6.685-6.924,6.685
		c-0.277,0.278-0.832,1.392-0.832,2.228c-1.385-0.278-1.385,1.393-1.385,1.393c-0.831,0-1.939,1.393-1.662,1.393
		c0,0.835-0.277,1.949,0,1.671c-0.831,0.278-1.385,1.671-0.831,1.671c0,0,0.277,2.228-0.277,1.949
		c-0.555,0.557,1.107,1.95,1.938,2.229c-0.554,0.278,0,1.671,0.554,1.114c-0.277,0,2.77,4.177,2.77,4.177
		c-0.277-0.834,1.385,1.396,1.662,1.115c0,0,3.601,4.178,3.601,3.898c0-0.277,2.216,0.557,2.216,0.279
		c-0.554-0.279,1.385,1.393,1.939,0.836c-0.277,0.557,1.662,1.112,0.832,0.557c0.831,0,3.047,0,3.047-0.279
		c-0.831,0.279,1.662,0.836,2.77,0.557c-0.277,0.558,1.108-0.276,1.939,0c-0.554,0.279,4.986,0.279,4.708,0.558
		c0.277-0.277,7.479,0,8.864,0.278c-1.385,0,1.939,0.836,0.831,0.558c0.554-0.276,1.662,0,1.939-0.276
		c-0.554,0.557,1.662-0.279,1.385,0.276c0.554-0.558,2.493-0.558,1.939-0.836c1.108,0.56,4.986,0.56,4.154,0.56
		c0-0.56,2.217-0.279,2.217,0c-0.555,0,3.878,0.276,4.709,0c-1.387-0.56,1.938,0,1.107,0c-0.555,0,1.938,0.276,1.938,0.276
		c-0.277,0.278,1.661-0.836,2.216-0.276c0.555-0.56,1.662,0,2.493-0.837c-0.556,0.277,1.385,0.558,1.385-0.278
		c-0.276,0,2.493,0.836,2.771,0.836c-0.555-0.279,1.662-0.558,1.107,0.279c0.555-0.279,1.939-0.56,2.217-1.394
		c-0.277,0.557,1.661,0.557,2.492,1.112c-0.831,0.279,1.938-0.278,1.662-0.278c-0.555-0.277,2.492,0,2.216-0.277
		c-1.106-0.278,5.54-1.948,4.985-1.672c-0.276,0.279,1.663-1.112,0.277-0.557c0.276-0.836,1.938-1.394,1.938-1.673
		c-0.276,0,1.662-1.112,2.492-1.391c0.276,0.557,1.108-1.672,0.555-1.115c0.276,0,2.216-1.67,1.106-1.67
		c1.109,0.277,1.939-1.671,1.386-1.393c0.831,0.277,1.938-2.786,1.108-2.229c0,0.279,1.938-1.671,1.662-2.228
		c-0.555,0.835,0.554-1.114,0.276-1.114C142.128,90.19,142.128,89.354,142.683,89.076L142.683,89.076z"/>
	<path fill="#234093" d="M125.508,96.596c0,0.557,0.554-1.95,0.276-1.393c0.277-0.557-0.83-2.506,0.277-1.67
		c-0.832-0.279-0.555-2.786-0.832-2.229c0.832-0.557,0.277-2.506,0.277-1.671c0.276-0.557,0.276-2.506,0-2.228
		c0,0.278,0.276-1.114,0.555-1.114c-0.555-0.278,0.555-1.114,0-1.392c0,0-1.107-0.836-1.938-0.836
		c-0.556-0.278-1.108-0.557-1.386-0.557c0,0-0.555-1.393,0-2.228c-0.555,0.835,0.277-0.835-0.276-0.557
		c0.831,0,1.386-1.114,1.662-0.835c-0.276,0,0.831-0.279,0.554,0c-0.554-0.557,1.385-0.557,1.385-0.835
		c-0.554,0.835,4.155,0.557,4.155,0.557c-0.276,0.557,0,0.279,0.276,0.557c0.831,0,0.555,0.279,1.107,0.279
		c0.277-0.836,1.385-0.557,0.832-0.557c0.553-0.279,2.77-0.557,2.77-0.279c0.277,0.279,0,0.836,0.277,0.836
		c-0.555,0-0.832,1.392-0.277,1.671c-0.83-0.279-0.276,1.114-0.555,0.278c0.832,0.557,0.555,1.114-0.553,0.835
		c0.553,0-1.386,0.279-1.938,0.279c0.554,0.557,0.276,0.835,0,0.557c-1.108-0.557,0,0.836-1.108,0.557
		c0.555-0.278-0.555,1.393,0.555,1.393c-0.832,0,0.276,3.621-0.277,3.342c0.555-0.278-0.831,2.229,0.277,1.95
		c-0.277,0-0.277,1.393-0.555,1.114c0.555,0.278-0.277,2.785,0.555,3.063c0,0.278,0.276,1.67-0.277,1.67
		c-0.555,0.279-1.938-0.278-1.385,0c0.554,0-1.107,0.558-0.555,0.279c-0.554-0.279-2.216-1.115-1.938-0.279
		C128.001,96.596,126.339,97.151,125.508,96.596L125.508,96.596z"/>
	<path fill="#234093" d="M109.996,97.709c-1.386-0.836-0.277-1.949-1.106-1.949c1.106,0,0.553-0.835,0.553-1.114
		c0.555,0.557,0.276-1.671-0.553-1.95c0,0.279,0.829-1.671,0.553-1.393c0-0.557,0.83-2.228-0.276-2.506c1.106,0.557,0-1.114,0-1.393
		c0.276-0.278,0.831-0.835,0.276-1.393c0,0-0.553-3.899,0.276-3.899c-0.276,0-1.106-2.785-0.829-2.228
		c0.553-0.279,1.383,0,2.215-0.557c-0.832,0,0.276,0,0.276,0.278c0-0.278,1.938,0,1.662-0.278c0,0,1.662,0.278,1.386,0
		c-0.277,0.278,3.323,0.278,2.492,0.278c0,0.836,1.107,0.279,2.771,0.557c-0.832-0.278,0.83-0.557,0.554-0.278
		c0.554,0.278,0.831,2.506,0.831,3.063c0-0.279-1.108,1.114-1.108,0.557c0.831,0.278-1.106,0.557,0.277,0.278
		c-1.108-0.278-3.603,0.557-1.938,0c-1.386,0-3.048,0.557-3.602,0.557c0.554,0,0,0.835,0.554,0.835c0,0-0.554,0.835,0,0.835
		c-0.276,0.278,3.048,0,3.048,0.557c-0.555-0.279-0.277-0.835,0.83-0.279c0.555,0.557,1.108,1.114,1.108,0.836
		c-0.554,0.278,0.276,1.949,0,1.949c0.276,0.557,0.554,0.836,0.554,0.836c0.277,0-2.216,0.278-1.385,0.557
		c-0.277,0-2.771-0.835-1.107-0.835c-0.277,0-1.386,0.279-1.662,0c0-0.279-1.662,0.835-1.938,0.835
		c-0.554-0.278-0.554,0.835-0.276,0.557c-0.555,0.557-0.555,0.557-0.277,1.114c-0.276,0,0.83,3.9,0.83,3.063
		c0,0,0.277,1.67-0.83,1.393c1.107,0.558,0,0.277-0.555,0.277c-0.275,0.278,0,0.278-1.106,0.559c0-0.559-0.554,0-1.108-0.559
		C111.381,97.709,109.165,96.596,109.996,97.709L109.996,97.709z"/>
	<path fill="#234093" d="M57.921,97.433c0.831,0,0.554-1.394,0.277-1.116c-0.277-0.557-0.277-1.392-0.277-1.392
		c0.831-0.278,1.108-0.835,0.554-1.392c0.554,0.278,0-1.114,0.554-1.393c-0.277,0-0.554-1.949-0.554-1.949s0-0.836-0.554-1.393
		c1.385,0.557,0-0.835,0.554-0.279c0-0.557,0.554-1.392,0.277-1.671c0,0.279,0.554-1.671,0.277-1.392
		c0.277-0.279-0.554-3.064-1.108-2.786c0.554-0.557-0.277-1.392-0.277-1.392c0.554,0,1.385-1.95,0.831-1.393
		c0.277-0.279,0.831,0.557,1.385-0.279c0,0.836,0.277,0.279,1.108,0.279c-0.554-0.557,0.831,0,0.831,0.278
		c0.831-0.278,1.662-0.557,1.385,0c0.831,0.279,0,0.557,0.277,0.279c0.277,0.557,0.554,1.671,0.277,1.114
		c-0.277,0,0.277,4.734,0,5.013c0.277,0,1.108-0.557,1.385-0.835c-0.831,0,0.831-1.114-0.554-1.114c0.554,0,0.832-0.557,0.832-0.278
		c0-0.279,0.277-0.835,0.831-1.393c0.831,0.278,0-1.114,1.108-1.393c-0.831,0.557-0.554-0.278,0.554,0
		c-1.108,0,0.831-1.114,0.831-1.393c-0.277,0-0.277-0.278-0.277-0.278c-0.277,0,1.662,0.278,1.107,0.278
		c0-0.278,1.385-0.557,1.385-0.557c-0.277,0.279,1.939-0.278,1.939,0c0.277,0.279,1.662,0.279,1.108,0.279
		c0.277,0-0.831,1.114-0.277,0.278c-0.831,0.557-1.108,1.114-1.939,0.835c0.831,0.557-0.277,1.393,0,0.835
		c0,0.835,0.277,0.835-0.277,0.835c-0.277,0.279-0.554,1.114-1.385,1.671c0.831-0.279-0.554,0.835-0.554,1.393
		c0.277,0.278-0.554,0.278,0,0.557c-0.831-0.557,0,0.836-0.277,1.114c0.554,0-0.277,0.557,0.831,0.557
		c0,0.557,0.277,0.835,0.277,0.835c-0.554,0.557,0.831,0.557,0.277,1.114c0.554-0.279,0.554,0.557,1.108,1.392
		c-0.554-0.557,0.831,1.114,0.277,0.557c0.277,0,0.554,0.835,0.554,1.114c0,0.278,0.277,1.114,0,0.278
		c0,0.835,1.385,1.949,0.554,1.393c0.554,0.278,0.554,1.393,0.831,1.114c-0.831,0.279-0.554,1.393,0.831,1.113
		c0,0.559-1.662,0.279-1.662-0.557c0.831,0,0,0.279-0.554,0.279c-0.277,0.836-1.385,0.558-1.939,0
		c0.277,0.836-0.277,0.558-0.831,0.836c0.277,0-1.385,0.277-0.277,0c-0.831,0-0.831-0.278-0.831-0.278
		c-0.831,0.278-1.385-1.671-0.831-1.394c-0.277,0-1.108-0.835-0.831-1.114c0-0.557-0.554-1.114-0.831-0.836
		c1.108-0.278-0.554-1.949,0.554-1.114c-1.108-0.278-2.77-2.228-2.216-2.785c-0.554,0.278-0.277,3.342-0.831,2.506
		c0.277,1.114,0.554,1.95-0.277,1.392c0,0,0.277,1.393,0,1.393c0.277,0,0,1.114,0.277,1.114c-0.277-0.277,0.554,0.557,0.831,0.557
		c-0.831,0.278-2.216,0.278-1.108,0c-0.831,0.278-1.108,0.278-1.939,0.559c0.831,0-0.831-0.559-0.554-0.278
		C60.691,96.873,58.752,97.151,57.921,97.433L57.921,97.433z"/>
	<path fill="#234093" d="M92.269,96.596c-0.554,0.277-0.831-0.836-0.831-0.557c0-0.279,0.554-0.558,0.277-0.558
		c0.554-0.557,1.108-2.228,1.385-2.228c-1.108,0-0.277-0.835,0.277-1.671c0.277,0,0.277-0.557,0,0c-0.277,0,0.554-1.393,1.107-1.114
		c-0.831,0-0.831-1.393,0-1.393c-1.385,0,0.277-2.785,1.108-2.228c-0.277-0.835-0.831-0.835-0.831-1.114
		c0.831-0.557,1.385-2.228,0.831-1.95c0.277-0.557,1.107-3.063,1.107-3.063c0-0.557,0.554-1.114,0.554-1.114
		c-0.275,0,1.662,0,1.387-0.278c-0.556,0.278,0.83,0,0.275,0c0.277,0.557,1.662,0.835,1.107,0.557
		c0.832,0.557,1.386-0.835,1.107-0.557c0,0,2.217,0.557,0.831,0.278c0,0.279,1.662,1.393,1.386,0.836c-0.832,0.557,0,1.671,0,1.671
		c0.276,0.278,0,1.114,0.276,1.114c0-0.278,0.556,0.835,0.276,0.557c0.832,0.278,1.107,1.671,0,1.114c-0.276,0,1.386,1.949,0,1.949
		c1.107,0,2.217,1.671,1.662,1.95c1.107-0.557,0.832,2.228,1.107,1.949c-0.275,0.279,0.831,1.671,0,1.393
		c0.831,0.557,1.107,2.229,0,1.95c1.385,0,0.831,1.114,1.385,1.393c0-0.557,0.555,1.951,0,1.671
		c-0.275-0.279-1.938,0.279-1.385,0.279c0-0.56-1.107,0-0.554,0c-0.277,0-1.662-0.279-1.938,0.276c0-0.558-0.832-0.558-1.662-0.836
		c0.555,0.278,0.276-0.834,0-1.113c-0.277,0,0-0.835-0.555-1.114c0.277,0.278,0.831-0.557,0.555-0.557
		c0.276-0.279-0.277-0.835-0.83-0.279c-0.277,0-3.047,0.279-1.662-0.557c-0.832,0.279-1.939,0.279-1.385,0.279
		c-1.109-0.279-1.109,0.278-2.217,0c1.107,0,0.276,0.835,0.555,0.557c-0.555,0-1.386,2.784-3.047,3.062
		c0.277-0.557-0.277,0,0.277-0.557C94.208,96.873,92.823,97.433,92.269,96.596C92.269,96.873,91.715,96.596,92.269,96.596
		L92.269,96.596z M100.854,89.912c-0.555,0-0.555-2.229-1.385-2.229c1.107-0.557,0.276-1.949,0.276-2.506
		c-1.106-0.278-0.554,2.506-1.386,2.785c0.555,0,0.277,1.671-0.83,1.671C98.085,89.633,100.854,89.912,100.854,89.912
		L100.854,89.912z"/>
	<path fill="#234093" d="M80.912,97.151c0.277,0.279-1.385,0-1.662,0c0.277-0.557-0.554,0-0.554,0c-0.554,0-1.108-0.278-0.554-0.278
		c0.554,0.56-1.385,0.278-0.832,0.278c-0.831-0.278-1.938,0-2.493,0c1.108,0.279,0.277-1.112,0.554-1.67c0,0-0.277,0,0-0.835
		c0.554,0.278-0.554-1.114,0-0.836c0-0.278-0.277-1.114,0-0.557c0,0,0-1.95,0-2.228c1.108-0.279-0.277-0.557,0-0.835
		c0.831,0.278,0-2.507-0.277-1.95c0,0,0.277-2.506-0.277-2.228c0.277,0.278,0.554-0.557,0.277-0.557
		c-0.277,0.278,0.554-0.836,1.108-1.114c-0.831,0.278-1.385-1.114-1.385-0.557c1.108,0,0-1.114,0-1.671
		c0,0.278-0.277-2.785,0.831-2.785c-1.108,0.278,0.554,0.278,1.385,0.278c0,0.557,0.277,0.279,0.554,0.557
		c-0.554,0,1.939-0.835,1.385-0.278c0.831-0.279,1.108,0.557,1.939,0.278c-0.277,0,0.831-0.835,0-0.557c0,0.557,1.385,0,1.385-0.278
		c-0.831,0.835,0.554,0,0.554,0.278c0,0.557,2.216,0.557,1.385,0.279c0,0.557,1.385-0.279,1.385,0.278
		c0.831-0.278,1.108,0,0.831-0.278c1.108,0,1.108,0,1.108,0.278c0.554,0,1.385,0.557,1.662,0.557
		c-0.831-0.278,0.831,0.835,0.554,0.835c-0.277,0.278,0,0.557-0.277,0.835c0,0.278,0.277-0.278,0.554,0
		c0.277,0.278,0.831,1.114,0.831,1.393c0,0,0.277,1.114,0.277,1.393c-0.831-0.835,0.277,0.557,0.554,0
		c-0.554,0-1.108,1.671-1.662,1.95c0.831-0.279-0.554,1.114,0,0.835c-0.831,0-0.277,1.392-0.831,1.392
		c-0.277,0-0.831,0.558-1.108,0.279c0.277,0,0.277,1.671,0.277,2.228c0.277-0.278,0.831,0.835,0.831,1.114
		c0-0.836,0,0.278-0.277,0.835c0.554,0,1.385,0.279,1.108,0.558c0,0.278,0.554,1.392,0.554,0.557c0,0.835,0.277,0.835,1.108,1.115
		c-1.108,0-1.108,0.557-0.277,1.112c-0.277,0-1.939,0-1.385,0.558c-0.831-0.276-0.831-1.113-1.108-1.113
		c-0.277,0.836-0.831,0.836-1.939,0.277c0,0-1.108-0.277,0.554,0c-0.554,0-1.939,0.278-2.216,0c0.831,0.278-0.831,0.278,0,0.278
		c0.277-0.557-0.831-1.112-1.385-1.112c0.554,0.557,0.277-1.393,0-1.95c-0.277,0-0.554-0.835-0.277-1.114
		c0.554,0.557-0.554-1.114-0.554-0.836c-0.554,0,0.277-1.949-0.277-1.393c-0.554,0-1.662-0.835-0.831-0.835
		c-0.831,0.835-1.662,0-0.831,0.557c-1.108-0.278-0.277,1.95,0.277,1.95c0.277,0-0.277,2.785-0.277,2.506
		c0,0.278,0.277,0.835-0.277,1.392C81.466,96.039,81.743,97.709,80.912,97.151L80.912,97.151z M80.635,86.848
		c0.277,0.557,1.108-0.278,1.939,0.279c-0.277-0.557,0.554,0.278,1.662-0.279c-0.831,0.279-0.554,0,0.831-0.557
		c-0.277,0-0.554,0.279,0.554,0c-1.108,0.279-0.277-1.392,0-1.392c-0.831,0-1.108-0.279-0.554-0.557
		c0,0.278-1.938-1.114-1.938-0.557c-0.277-0.278-1.939-0.835-0.831,0c-0.277-0.278-1.662-0.278-1.939-0.557
		C81.466,83.227,81.466,86.848,80.635,86.848L80.635,86.848z"/>
	<path stroke="#000000" stroke-width="0.4002" stroke-linecap="round" stroke-linejoin="round" stroke-miterlimit="2.6131" d="
		M178.968,152.574c0,0.559-0.277,1.114-0.83,1.393c-0.277,0-0.555-0.276-0.832-0.276c-0.275-0.279-0.275-0.836,0-1.394
		C177.86,151.74,179.245,151.183,178.968,152.574L178.968,152.574z M179.245,147.006c-1.662,3.062-4.434,5.013-4.434,5.849
		c0,0,0,0,0.277-0.279c0,0,3.602-3.898,3.602-3.619c-0.276,0.557,0,1.393,0,1.949c-0.555,0.557-1.385,0.557-1.938,1.393
		c-0.276,0.557-0.276,1.393,0.276,1.949c0.555,0.277,1.107,0.277,1.938,0c0.277-0.279,0.554-0.836,0.831-1.113
		c0-0.559,0-1.115-0.277-1.951c0.556-0.276,0.832-0.557,1.108-0.557c0.831-0.277,1.386-1.113,1.938-1.393c0-0.277,0,0-0.276,0
		c-0.831,0.557-1.662,0.836-2.771,1.393v-0.277c-0.276-1.115,0-2.229,0.276-3.342C179.799,146.447,179.245,146.728,179.245,147.006
		L179.245,147.006z"/>
	<path stroke="#000000" stroke-width="0.4002" stroke-linecap="round" stroke-linejoin="round" stroke-miterlimit="2.6131" d="
		M14.71,140.877c-0.554,1.951-0.554,4.457-0.554,6.687c0.277,0.276,0.831-0.558,1.108-0.558c1.662-1.394,3.324-2.784,4.432-4.457
		c0.277-0.278,0.277-0.836,0.831-1.114c0.277,0,0.277,0.559,0.277,0.836c-1.662,2.229-3.877,4.178-5.817,5.569
		c-0.277,0.279-0.554,0.279-0.554,0.558c1.385,1.115,3.324,1.393,4.709,2.229c1.108,0.279,2.493,0.836,3.601,1.393
		c0.277,0.279,0.277,0.558,0,0.558c-0.831,0.278-1.108-0.834-1.939-0.834c-2.216-0.56-4.432-1.394-6.647-2.509l-0.277,0.279
		c0,1.394,0,3.062,0.277,4.455c0,0.279-0.554,0.279-0.832,0.557c0,0,0-0.276-0.277-0.276c0.277-0.836,0.554-1.672,0.277-2.506
		c0-3.621,0.554-7.242,0.277-11.142C13.879,140.319,14.433,140.319,14.71,140.877L14.71,140.877z"/>
	<path stroke="#000000" stroke-width="0.4002" stroke-linecap="round" stroke-linejoin="round" stroke-miterlimit="2.6131" d="
		M33.269,146.728v2.229c0.277,0.277,0.831-0.279,1.108-0.559c0.831-0.277,1.938-1.67,3.047-0.558c0,0.279,0,0.558-0.277,0.558
		c-1.385-0.558-2.493,0.559-3.601,1.115c-0.554,1.112-0.554,2.506-0.554,3.62c-0.277,0.277-0.554,0.277-0.831,0.277
		c0-0.558,0-0.836,0-1.394c-0.277-1.67,0.277-3.342,0.277-5.012C32.161,146.447,33.269,145.892,33.269,146.728L33.269,146.728z"/>
	<path stroke="#000000" stroke-width="0.4002" stroke-linecap="round" stroke-linejoin="round" stroke-miterlimit="2.6131" d="
		M50.166,148.119c0.277,1.112-0.831,1.67-0.831,2.506c-0.831,0.836-1.108,1.949-2.216,1.949c-0.554-0.834,0.277-1.394,0.554-2.228
		C48.227,149.231,49.057,148.396,50.166,148.119L50.166,148.119z M49.611,147.562c-1.662,0.277-1.939,1.949-2.77,3.342
		c-0.277,0.837-0.831,1.671-0.277,2.785c1.662,0,2.216-1.672,3.047-2.508c0.277-0.277,0.277,0.279,0.277,0.279
		c-0.277,0.836,0,1.949,0.277,2.785c0,0.277,0.554,0,0.554,0c0.831-0.557,1.662-1.672,1.939-2.785
		c0.554-0.836,1.662-1.672,1.662-2.785l0,0c-1.108,1.393-2.216,3.064-3.047,4.457c-0.277,0.277-0.554,0-0.831-0.279
		c0-1.949,0.277-3.621,1.108-5.291C51.273,147.006,50.166,147.562,49.611,147.562L49.611,147.562z"/>
	<path stroke="#000000" stroke-width="0.4002" stroke-linecap="round" stroke-linejoin="round" stroke-miterlimit="2.6131" d="
		M70.94,144.776c-0.554,0.277-1.108,0.277-1.662,0.836c-0.554,0.277-1.385,0.558-1.662,1.113c-0.277,2.506-0.277,5.015-0.277,7.521
		c0,0.276-0.277,0.276-0.554,0.557c-0.277,0-0.277-0.278-0.277-0.557c0.554-2.506,0.554-5.015,0.277-7.521v-0.278l-1.939,0.278
		c-0.277,0-0.277,0-0.277-0.278c0.277-0.277,0.831,0,1.385-0.277l0.831-0.278c0.277-2.507,0.277-5.015,1.385-7.24
		c0.554-0.279,0.831-0.56,1.385-0.56c0.832,0,1.385,0.56,1.662,1.115c0,0.558-0.277,1.112-0.554,1.394
		c0-0.836-0.277-1.394-0.554-1.949c-0.277-0.279-0.831-0.279-1.108-0.279c-0.831,0.557-0.831,1.672-1.108,2.506
		c0,1.672-0.831,3.064-0.277,4.736c0.277,0.277,0.831,0,1.108-0.279c0.831-0.557,1.662-0.557,2.216-0.836
		C71.217,144.498,70.94,144.498,70.94,144.776L70.94,144.776z"/>
	<path stroke="#000000" stroke-width="0.4002" stroke-linecap="round" stroke-linejoin="round" stroke-miterlimit="2.6131" d="
		M84.79,140.877c0,1.951-0.831,3.621-0.554,5.57c1.108,0.559,2.493,0,3.601,0.278c0,0.279-0.554,0.279-0.831,0.558
		c-0.831,0-2.493-0.277-3.047,0.836c-0.277,1.67,0,3.621,0.554,5.014c0,0.558-0.277,1.113-0.554,1.392
		c-0.277,0-0.554-0.277-0.554-0.558c0-2.227,0-4.178-0.277-6.127c-0.831-0.557-1.662-0.557-2.493-0.557
		c-0.277-0.558,0.277-0.558,0.554-0.558c0.554,0,1.108,0.279,1.662,0c0.831-1.112,0.277-2.506,0.554-3.897
		c0.277-0.836,0.277-1.951,1.108-2.229L84.79,140.877L84.79,140.877z"/>
	<path stroke="#000000" stroke-width="0.4002" stroke-linecap="round" stroke-linejoin="round" stroke-miterlimit="2.6131" d="
		M125.785,147.84c0,0.558-0.556,0.558-0.831,0.558h-0.555c-0.276-0.558,0.276-0.834,0.555-0.834
		C125.229,147.283,125.508,147.84,125.785,147.84L125.785,147.84z M125.508,146.728c-0.554-0.279-0.831,0.557-1.385,0.557
		c-0.831,0.557,0,1.949-0.831,2.506c-0.277,1.393-1.107,2.508-0.277,3.9c0.555,0,1.387,0,1.939-0.279
		c1.662-1.113,1.938-2.785,2.216-4.455c0.554-1.115,1.938-0.559,3.047-1.115c0.276-0.277,0.554-0.277,0.276-0.557
		c-0.83,0.279-1.661,0-2.492,0.557C126.894,148.396,126.339,147.006,125.508,146.728L125.508,146.728z M126.339,148.955
		c0,1.394-0.554,3.062-1.938,3.897c-0.277,0-0.832-0.278-0.832-0.557c0-1.115,0.277-2.508,1.107-3.064
		C125.229,149.231,125.785,148.955,126.339,148.955L126.339,148.955z"/>
	<path stroke="#000000" stroke-width="0.4002" stroke-linecap="round" stroke-linejoin="round" stroke-miterlimit="2.6131" d="
		M143.789,147.84c0,0.558-0.554,0.558-0.831,0.558h-0.275c-0.277-0.558,0.275-0.834,0.275-1.113
		C143.513,147.283,143.513,147.84,143.789,147.84L143.789,147.84z M143.789,146.728c-0.554-0.279-1.106,0.557-1.661,0.557
		c-0.831,0.557,0,1.949-0.555,2.506c-0.276,1.115-1.385,2.508-0.555,3.9c0.832,0,1.385,0,1.938-0.558
		c1.663-0.836,2.217-2.508,2.217-4.457c0.83-0.836,2.216-0.557,3.323-0.836c0-0.276,0.277-0.276,0.277-0.557
		c-0.832,0.278-1.662,0-2.493,0.557C145.175,148.396,144.621,147.006,143.789,146.728L143.789,146.728z M144.344,148.955
		c0,1.394-0.276,3.062-1.938,3.619c-0.276,0.278-0.555,0-0.555-0.277c0-1.114,0-2.508,1.107-3.063
		C143.513,149.231,143.789,148.955,144.344,148.955L144.344,148.955z"/>
	<path stroke="#000000" stroke-width="0.4002" stroke-linecap="round" stroke-linejoin="round" stroke-miterlimit="2.6131" d="
		M164.01,141.156c-0.276,2.506-1.385,4.457-2.216,6.405c-0.554-0.278,0-1.114-0.275-1.672c0.275-1.67,0.553-3.342,1.385-4.733
		C163.179,140.601,164.01,140.601,164.01,141.156L164.01,141.156z M163.733,139.765c-2.217,1.67-2.493,4.457-2.771,7.241
		c-0.554,0.558-1.385,0.277-1.938,0.834c-1.108,1.673-2.217,3.343-2.217,5.293c0,0.558,0.555,0.558,0.832,0.558
		c1.106-0.836,2.491-1.672,3.047-2.785h0.275c0.277,0.836,0.277,1.949,1.387,2.785c1.66,0.276,1.938-1.672,2.491-2.508
		c0.556-0.834,1.386-1.67,1.662-2.507c-0.554,0.558-1.385,1.113-1.662,1.949c-0.831,0.558-0.831,1.949-1.938,2.229
		c-1.107-0.836-0.83-2.506-1.107-3.621c1.107-3.062,2.771-5.849,2.493-9.469C164.287,139.765,164.01,139.765,163.733,139.765
		L163.733,139.765z M160.687,149.512c-0.555,1.394-1.386,3.062-3.047,3.062c-0.555-0.834,0-1.671,0.555-2.228
		C158.47,149.231,161.519,146.728,160.687,149.512L160.687,149.512z"/>
	<path stroke="#000000" stroke-width="0.4002" stroke-linecap="round" stroke-linejoin="round" stroke-miterlimit="2.6131" d="
		M118.028,139.765c-0.276,0.557-1.107,0.557-1.661,0.557c-1.662,0-3.048,0.836-4.709,1.113c-0.556,0.836-0.831,1.672-1.108,2.508
		c0,0.836-0.277,1.672-0.277,2.506c1.664,0,3.324-0.557,4.709-1.113h0.556c0,0.557-0.556,0.836-0.831,0.836
		c-1.385,0-3.047,0.557-4.434,0.836c-0.275,2.227-0.554,4.176-0.275,6.127c0,0.557-0.277,0.277-0.555,0.277
		c-0.276-0.557,0-0.836,0-1.393c0.276-1.394,0-3.062,0-4.734c-0.553,0-1.385,0.557-2.215,0.279
		c-0.277,0.276-0.556,0.557-1.108,0.276c0-0.557,0.276-0.557,0.554-0.557c0.831,0,1.662-0.277,2.217-0.277s0.83-0.559,0.83-0.836
		c0.277-1.394,0.555-2.785,0.277-3.899c-0.555-0.558-1.107,0-1.662,0.278c-1.385,0.279-2.77,0.558-4.154,0.836
		c-0.277,0-0.555-0.278-0.277-0.278c1.938-0.558,4.154-0.836,6.095-1.672c0.276-0.277,0.276-0.834,0.831-0.834
		c0.554,0.276,1.107,0.557,1.385,0.276c1.939-0.558,3.602-0.834,5.54-1.392C117.752,139.485,118.028,139.485,118.028,139.765
		L118.028,139.765z"/>
	<path d="M153.761,105.229c0-2.506,1.939-4.179,4.155-4.179c2.493,0,4.433,1.673,4.433,4.179c0,2.508-1.938,4.178-4.433,4.178
		C155.7,109.406,153.761,107.735,153.761,105.229L153.761,105.229z M157.916,108.851c1.938,0,3.601-1.673,3.601-3.621
		c0-1.949-1.66-3.343-3.601-3.343c-1.662,0-3.324,1.394-3.324,3.343C154.592,107.178,156.254,108.851,157.916,108.851
		L157.916,108.851z M157.085,107.735h-0.554v-5.014h1.661c1.107,0,1.662,0.557,1.662,1.394c0,1.112-0.555,1.393-1.107,1.393
		l1.385,2.229h-0.831l-1.385-2.229h-0.831V107.735L157.085,107.735z M157.916,104.951c0.831,0,1.385,0,1.385-0.836
		c0-0.558-0.554-0.558-1.106-0.558h-1.108v1.394H157.916L157.916,104.951z"/>
</g>
</svg>
