<?xml version="1.0" encoding="utf-8"?>
<!-- Generator: Adobe Illustrator 16.0.0, SVG Export Plug-In . SVG Version: 6.00 Build 0)  -->
<!DOCTYPE svg PUBLIC "-//W3C//DTD SVG 1.1//EN" "http://www.w3.org/Graphics/SVG/1.1/DTD/svg11.dtd">
<svg version="1.1" id="Layer_1" xmlns="http://www.w3.org/2000/svg" xmlns:xlink="http://www.w3.org/1999/xlink" x="0px" y="0px"
	 width="116.512px" height="43.796px" viewBox="341.744 278.102 116.512 43.796"
	 enable-background="new 341.744 278.102 116.512 43.796" xml:space="preserve">
<g>
	<path fill="#E5B822" d="M457.303,283.091c-2.612-3.98-10.09-6.851-13.331-3.542c-0.366,0.375-0.693,0.764-0.98,1.165
		c0.953,0.204,1.795,0.688,2.249,1.645c0.526,1.048,0.616,3.908-0.335,5.462c0.306,0.328,0.552,0.71,0.735,1.123
		c0.323,0.714,0.715,1.701,0.757,2.669c0.732,0.389,1.51,0.711,1.994,0.829c1.25,0.302,2.564,0.274,3.772,0.132
		c1.543-0.18,2.937-0.817,4.015-1.811C458.156,288.938,459.095,285.822,457.303,283.091"/>
	<path fill="#60B8DE" d="M440.056,287.894c0.621-0.445,1.391-0.795,2.177-0.918c-0.969-2.275-0.564-4.406,0.759-6.262
		c-1.085-0.23-2.318-0.097-3.302,0.137c-2.146,0.489-2.728,1.512-2.679,3.654c0.032,1.661,0.864,3.317,2.188,4.195
		C439.458,288.399,439.741,288.12,440.056,287.894"/>
	<path fill="#658339" d="M442.23,286.976c0.672-0.105,1.354-0.046,1.972,0.283c0.27,0.146,0.497,0.343,0.702,0.562
		c0.951-1.555,0.861-4.413,0.335-5.463c-0.454-0.956-1.296-1.439-2.249-1.644C441.665,282.571,441.264,284.701,442.23,286.976"/>
	<path fill="#E70F89" d="M443.413,288.973c-0.698,0.292-1.106,0.278-1.773,0.352c-0.92,0.084-1.748-0.166-2.441-0.625
		c-1.028,1.195-1.569,2.881-1.225,4.348l0.003,0.002c0.684-0.04,1.4,0.113,1.713,0.765c0.153,0.309,0.24,0.975,0.144,1.586
		c1.982,1.103,3.901,0.625,5.927-1.813c0.521-0.574,0.671-1.271,0.64-1.976c-0.694-0.369-1.353-0.798-1.684-1.176
		C444.212,289.943,443.782,289.456,443.413,288.973"/>
	<path fill="#C0262A" d="M444.904,287.821c-0.197,0.321-0.435,0.59-0.727,0.773c-0.297,0.166-0.546,0.287-0.766,0.38
		c0.369,0.481,0.799,0.97,1.302,1.46c0.332,0.379,0.988,0.809,1.684,1.177c-0.044-0.967-0.435-1.954-0.757-2.669
		C445.456,288.531,445.21,288.147,444.904,287.821"/>
	<path fill="#6D2977" d="M441.64,289.325c0.665-0.074,1.074-0.059,1.771-0.351c-0.518-0.677-0.901-1.342-1.181-1.997
		c-0.785,0.123-1.553,0.471-2.176,0.918c-0.314,0.225-0.598,0.505-0.857,0.805C439.891,289.159,440.719,289.409,441.64,289.325"/>
	<path fill="#739042" d="M442.822,286.928L442.822,286.928c-0.198,0-0.396,0.017-0.592,0.048c0.276,0.656,0.663,1.321,1.181,1.998
		c0.222-0.091,0.471-0.213,0.771-0.38c0.288-0.181,0.526-0.45,0.724-0.771c-0.205-0.219-0.434-0.417-0.702-0.562
		c-0.006-0.002-0.011-0.005-0.014-0.008c-0.003,0-0.006-0.001-0.006-0.002C443.754,287.024,443.293,286.928,442.822,286.928
		L442.822,286.928"/>
	<path fill="#37643B" d="M442.823,286.928L442.823,286.928L442.823,286.928L442.823,286.928 M442.821,286.928
		c-0.197,0-0.395,0.017-0.59,0.048C442.428,286.945,442.624,286.928,442.821,286.928 M444.184,287.25c0,0,0.003,0.001,0.006,0.002
		C444.188,287.251,444.184,287.25,444.184,287.25 M444.202,287.26L444.202,287.26c0.27,0.145,0.497,0.342,0.702,0.562
		C444.699,287.602,444.472,287.404,444.202,287.26"/>
	<path fill="#69252E" d="M444.202,287.26c-0.617-0.331-1.299-0.389-1.971-0.284c0.275,0.655,0.662,1.322,1.18,1.998
		c0.222-0.091,0.471-0.213,0.771-0.38c0.289-0.182,0.528-0.451,0.724-0.771C444.699,287.602,444.472,287.404,444.202,287.26"/>
	<path fill="#ED8126" d="M437.977,293.05h-0.021c-0.244,0.016-0.481,0.056-0.694,0.106c-0.938,0.213-1.192,0.662-1.173,1.599
		c0.022,1.107,0.854,2.212,2.025,2.106c0.384-0.043,0.843-0.103,1.108-0.321c0.418-0.339,0.564-0.588,0.609-1.139
		c0,0-0.155-0.088-0.235-0.136C438.696,294.707,438.181,293.918,437.977,293.05"/>
	<path fill="#E3252C" d="M438.176,293.045L438.176,293.045c-0.061,0-0.121,0.001-0.182,0.005c-0.003,0-0.006,0-0.011,0
		c-0.002,0-0.005,0.001-0.008,0.001c0.204,0.867,0.721,1.656,1.622,2.213c0.079,0.049,0.233,0.137,0.233,0.137
		c0.028-0.177,0.042-0.358,0.042-0.535c0-0.433-0.077-0.832-0.186-1.052c-0.006-0.01-0.012-0.019-0.016-0.028
		C439.389,293.221,438.786,293.045,438.176,293.045L438.176,293.045"/>
	<path fill="#E2242C" d="M438.175,293.045L438.175,293.045h0.003H438.175 M438.175,293.045c-0.06,0-0.12,0.001-0.181,0.005
		C438.055,293.046,438.115,293.045,438.175,293.045 M437.994,293.05c-0.003,0-0.008,0-0.011,0
		C437.986,293.05,437.991,293.05,437.994,293.05 M439.673,293.788c0.007,0.009,0.011,0.018,0.015,0.027
		c0.11,0.22,0.187,0.62,0.187,1.053c0-0.433-0.075-0.833-0.187-1.053C439.684,293.806,439.68,293.797,439.673,293.788"/>
	<path fill="#D01F42" d="M439.706,293.812c-0.313-0.659-1.043-0.808-1.73-0.764c0.204,0.869,0.72,1.659,1.623,2.218
		c0.077,0.048,0.156,0.093,0.233,0.136C439.931,294.791,439.862,294.121,439.706,293.812"/>
	<path d="M347.837,301.217c0-0.662,0.495-1.181,1.131-1.181c0.66,0,1.155,0.519,1.155,1.181v11.801c0,0.637-0.495,1.155-1.155,1.155
		c-0.636,0-1.131-0.519-1.131-1.155V301.217z M365.6,301.217c0-0.662,0.493-1.181,1.131-1.181c0.659,0,1.152,0.519,1.152,1.181
		v11.801c0,0.637-0.493,1.155-1.152,1.155c-0.638,0-1.131-0.519-1.131-1.155V301.217z M394.059,307.835
		c0,2.071-1.318,4.192-3.227,4.192c-3.321,0-3.439-3.321-3.439-5.018c0-3.418,1.625-5.229,3.98-5.229c1.248,0,1.932,0.164,2.686,0.4
		V307.835L394.059,307.835z M394.036,314.878c0,3.038-0.73,5.349-3.321,5.349c-1.413,0-2.402-0.638-2.402-2.098
		c0-1.247,1.271-2.333,2.662-3.51l3.062-2.613L394.036,314.878L394.036,314.878z M394.766,300.391
		c-1.061-0.259-2.119-0.448-3.108-0.448c-3.416,0-6.525,2.356-6.525,6.857c0,4.826,2.096,6.571,4.547,6.806l-0.495,0.33
		c-1.437,0.967-2.99,2.072-2.99,4.193c0,2.214,1.482,3.77,4.334,3.77c5.418,0,5.63-5.065,5.63-8.058v-11.519
		C396.156,300.814,395.755,300.627,394.766,300.391 M455.971,295.654c0-0.66,0.494-1.178,1.13-1.178
		c0.661,0,1.154,0.518,1.154,1.178v17.54c0,0.639-0.493,1.156-1.154,1.156c-0.636,0-1.13-0.519-1.13-1.156V295.654z
		 M341.744,295.654c0-0.66,0.495-1.178,1.131-1.178c0.659,0,1.155,0.518,1.155,1.178v17.54c0,0.639-0.496,1.156-1.155,1.156
		c-0.636,0-1.131-0.519-1.131-1.156V295.654z M360.897,300.789c0.163-0.425,0.542-0.705,1.014-0.705c0.8,0,1.365,0.635,1.035,1.531
		l-4.312,11.611c-0.188,0.519-0.445,0.942-1.013,0.942c-0.565,0-0.776-0.399-0.989-0.942l-4.264-11.518
		c-0.329-0.873,0.094-1.625,0.99-1.625c0.493,0,0.871,0.305,1.034,0.729l3.274,8.881L360.897,300.789z M380,305.266
		c0-1.885-0.635-3.439-2.802-3.439c-1.979,0-3.559,2.027-3.559,4.431v6.783c0,0.638-0.495,1.153-1.152,1.153
		c-0.638,0-1.132-0.516-1.132-1.153v-11.801c0-0.662,0.447-1.179,1.082-1.179c0.659,0,1.108,0.517,1.108,1.179v0.918
		c0.966-1.603,2.449-2.19,4.051-2.19c2.944,0,4.688,1.577,4.688,4.735v8.338c0,0.638-0.494,1.153-1.153,1.153
		c-0.637,0-1.132-0.516-1.132-1.153V305.266L380,305.266z M399.223,311.414c0.282,0,0.495,0.115,0.685,0.212
		c0.824,0.448,1.789,0.873,3.107,0.873c1.462,0,2.568-0.685,2.568-2.19c0-1.509-1.413-2.004-2.944-2.498
		c-1.86-0.611-3.887-1.297-3.887-3.863c0-2.756,2.192-3.98,4.595-3.98c1.507,0,2.708,0.398,3.604,0.965
		c0.259,0.143,0.589,0.447,0.589,0.896c0,0.521-0.354,0.942-0.873,0.942c-0.257,0-0.54-0.141-0.777-0.281
		c-0.773-0.473-1.672-0.685-2.636-0.685c-1.105,0-2.356,0.425-2.356,1.933c0,1.39,1.437,1.908,2.896,2.379
		c1.814,0.611,3.956,1.508,3.956,4.074c0,2.709-1.906,4.102-4.709,4.102c-1.979,0-3.179-0.568-4.052-1.037
		c-0.354-0.189-0.636-0.473-0.636-0.895C398.352,311.839,398.705,311.414,399.223,311.414 M415.57,312.499
		c-3.016,0-3.676-3.11-3.676-5.726c0-2.875,1.298-4.972,3.77-4.972c2.545,0,3.604,2.214,3.604,5.396
		C419.269,310.096,418.044,312.499,415.57,312.499 M415.829,299.966c-2.71,0-6.218,1.412-6.218,7.066
		c0,4.923,2.283,7.257,5.771,7.257c3.415,0,6.219-2.215,6.219-7.539C421.601,300.555,417.714,299.966,415.829,299.966
		 M432.249,311.697c0.329-0.188,0.729-0.401,1.106-0.401c0.445,0,0.849,0.282,0.849,0.896c0,0.354-0.167,0.637-0.52,0.871
		c-0.942,0.637-2.475,1.228-4.191,1.228c-3.89,0-5.984-2.498-5.984-7.162c0-5.56,3.393-7.161,5.961-7.161
		c1.438,0,2.873,0.329,4.238,1.459c0.236,0.19,0.377,0.497,0.377,0.803c0,0.541-0.377,1.014-0.941,1.014
		c-0.305,0-0.658-0.188-0.895-0.378c-0.896-0.755-1.674-0.988-2.756-0.988c-2.121,0-3.699,1.601-3.699,5.158
		c0,3.133,1.106,5.348,3.909,5.348C430.53,312.38,431.353,312.214,432.249,311.697 M436.065,301.238c0-0.662,0.494-1.179,1.13-1.179
		c0.66,0,1.152,0.517,1.152,1.179v11.801c0,0.638-0.492,1.152-1.152,1.152c-0.636,0-1.13-0.516-1.13-1.152V301.238z
		 M450.198,307.811c0,1.836-1.271,4.733-4.052,4.733c-2.119,0-2.779-2.448-2.779-4.758c0-3.394,1.082-5.983,4.239-5.983
		c1.037,0,2.07,0.213,2.592,0.424V307.811L450.198,307.811z M451.328,300.484c-1.201-0.331-2.661-0.519-3.369-0.519
		c-4.546,0-6.854,2.919-6.854,7.75c0,3.957,1.602,6.573,4.946,6.573c2.264,0,3.486-1.204,4.241-2.547v1.297
		c0,0.638,0.446,1.153,1.083,1.153c0.659,0,1.084-0.517,1.084-1.153v-10.765C452.46,301.285,452.342,300.768,451.328,300.484"/>
</g>
</svg>
