<?xml version="1.0" encoding="utf-8"?>
<!-- Generator: Adobe Illustrator 16.0.0, SVG Export Plug-In . SVG Version: 6.00 Build 0)  -->
<!DOCTYPE svg PUBLIC "-//W3C//DTD SVG 1.1//EN" "http://www.w3.org/Graphics/SVG/1.1/DTD/svg11.dtd">
<svg version="1.1" id="Layer_1" xmlns="http://www.w3.org/2000/svg" xmlns:xlink="http://www.w3.org/1999/xlink" x="0px" y="0px"
	 width="175.748px" height="75.057px" viewBox="9.802 57.552 175.748 75.057" enable-background="new 9.802 57.552 175.748 75.057"
	 xml:space="preserve">
<g>
	<polygon fill="none" points="156.326,102.569 161.519,102.243 158.337,97.022 	"/>
	<path fill="#00A651" d="M112.967,57.552c-2.663,1.685-5.491,0.842-8.646,1.114c-19.028,1.659-25.28,12.206-27.156,20.906
		c6.334-3.915,9.542-2.229,15.604-3.48C99.212,74.76,111.906,75.739,112.967,57.552z"/>
	<path fill="#00A651" d="M156.299,70.491l-16.338,40.613l-12.017,1.088l15.414-37.84l-32.403,2.501l-2.5,9.977h15.414
		l-15.849,38.521l40.342-2.719l3.397-9.76h16.8l3.397,6.579l13.593-0.218L156.299,70.491z M156.326,102.569l2.011-5.547l3.182,5.221
		L156.326,102.569z"/>
	<path fill="#00A651" d="M84.996,81.148c-3.71,0-7.241,0.792-10.427,2.214C69.907,77.204,62.483,73.21,54.14,73.21
		c-14.054,0-25.526,11.363-25.526,25.282c0,8.835,4.623,16.639,11.594,21.161l-13.851,0.478l-3.181-36.264L9.802,85.008l4.54,47.601
		l28.571-2.258l2.379-8.15c2.759,1.017,5.741,1.572,8.849,1.572c3.71,0,7.239-0.795,10.425-2.219
		c4.665,6.158,12.093,10.156,20.43,10.156c14.055,0,25.499-11.361,25.499-25.281C110.495,92.511,99.051,81.148,84.996,81.148z
		 M59.467,106.431c0,1.231,0.092,2.441,0.265,3.627c-1.694,0.811-3.591,1.266-5.593,1.266c-7.122,0-12.94-5.764-12.94-12.831
		c0-7.041,5.818-12.804,12.94-12.804c4.353,0,8.218,2.153,10.566,5.435C61.422,95.378,59.467,100.687,59.467,106.431z
		 M84.994,119.231c-4.354,0-8.22-2.153-10.568-5.438l0.021-0.025c-0.611-0.883-1.115-1.783-1.506-2.693
		c-0.573-1.442-0.887-3.01-0.887-4.646c0-1.482,0.259-2.908,0.733-4.236c0.935-2.279,2.657-4.493,5.235-6.536
		c2.015-1.283,4.409-2.03,6.972-2.032c7.122,0,12.912,5.764,12.912,12.804C97.906,113.469,92.116,119.231,84.994,119.231z"/>
</g>
</svg>
