<?xml version="1.0" encoding="utf-8"?>
<!-- Generator: Adobe Illustrator 16.0.0, SVG Export Plug-In . SVG Version: 6.00 Build 0)  -->
<!DOCTYPE svg PUBLIC "-//W3C//DTD SVG 1.1//EN" "http://www.w3.org/Graphics/SVG/1.1/DTD/svg11.dtd">
<svg version="1.1" id="Layer_1" xmlns="http://www.w3.org/2000/svg" xmlns:xlink="http://www.w3.org/1999/xlink" x="0px" y="0px"
	 width="187.087px" height="36.701px" viewBox="265.833 342.03 187.087 36.701"
	 enable-background="new 265.833 342.03 187.087 36.701" xml:space="preserve">
<g>
	<path fill="#D2232A" d="M444.149,371.842l6.994-19.319h-19.318c-2.498,0-5.218,1.999-6.106,4.441l-5.273,14.378H410.12
		l4.996-13.046h5.273l2.498-6.884h-5.163l3.554-9.382h-9.16l-3.441,9.382h-6.052l-2.498,6.884h6.052l-4.773,13.046h-10.548
		l7.383-19.485h-8.993l-7.272,19.931h-8.326l-2.332-7.496l13.435-12.046H375.2l-10.826,9.716h-0.832l6.995-19.265h-8.384
		l-10.604,29.146h-7.717l6.939-19.319h-19.265c-2.498,0-5.218,1.999-6.162,4.441l-5.552,15.322h-7.217l7.217-19.818h-15.822
		l1.721-4.774h-15.489l1.666-4.552h-26.037v8.328h14.656l-9.938,27.259h8.327l8.272-22.651h7.161l-8.271,22.651h8.383l6.495-17.877
		h7.495l-6.495,17.877h13.323l4.274-4.387c0.057,2.165,1.166,4.387,3.054,4.387h7.661l4.607-4.887
		c-0.11,2.276,1.055,4.887,3.053,4.887h7.661l5.386-5.275l-1.888,5.275h8.383l4.941-13.547h0.943l4.22,13.547h8.938l5.053-5.33
		c-0.223,2.387,1,5.162,3.054,5.162h11.158l5.163-5.662c-0.444,2.443,0.776,5.662,2.998,5.662h11.157l4.83-5.273
		c-0.389,2.387,0.833,5.441,2.998,5.441h7.661l4.607-4.887c-0.11,2.276,1.055,4.887,3.054,4.887h14.711v-6.885h-8.771V371.842z
		 M335.229,371.676h-6.605l4.386-12.047h6.606L335.229,371.676L335.229,371.676z M435.545,371.676h-6.605l4.44-12.047h6.551
		L435.545,371.676L435.545,371.676z"/>
	<polygon fill="#D2232A" points="402.014,342.03 392.798,342.03 390.022,349.636 399.127,349.636 	"/>
</g>
</svg>
