<?xml version="1.0" encoding="utf-8"?>
<!-- Generator: Adobe Illustrator 16.0.0, SVG Export Plug-In . SVG Version: 6.00 Build 0)  -->
<!DOCTYPE svg PUBLIC "-//W3C//DTD SVG 1.1//EN" "http://www.w3.org/Graphics/SVG/1.1/DTD/svg11.dtd">
<svg version="1.1" id="Layer_1" xmlns="http://www.w3.org/2000/svg" xmlns:xlink="http://www.w3.org/1999/xlink" x="0px" y="0px"
	 width="161.823px" height="161.958px" viewBox="15.472 14.813 161.823 161.958"
	 enable-background="new 15.472 14.813 161.823 161.958" xml:space="preserve">
<g>
	<path fill="#FFFFFF" d="M177.283,97.524c-0.777,44.236-37.127,79.988-81.726,79.234c-43.896-0.74-80.233-37.637-80.085-81.876
		c0.145-44.087,36.451-80.07,81.207-80.07C142.228,14.813,178.052,53.69,177.283,97.524L177.283,97.524z"/>
	<path fill="#766252" d="M166.286,65.884c11.473,26.299,6.531,58.778-12.709,79.782c-20.477,23.828-53.835,31.42-82.606,20.828
		c-25.064-8.295-45.716-33.892-48.894-60.015c-2.471-15.885,0.177-31.24,6.531-44.303C42.552,32.7,73.972,16.991,105.392,20.344
		C130.983,22.992,156.226,41.172,166.286,65.884L166.286,65.884L166.286,65.884z"/>
	<path fill="#FFFFFF" d="M104.331,25.993c-0.354,3-4.589,0.354-6.707,1.412v5.647c1.059,1.412,4.589-0.706,3.706,2.118l-3.529,0.177
		l-0.177,7.237c-0.883,0.353-2.118,0.176-3.178-0.177V25.64C97.624,25.816,101.153,25.64,104.331,25.993L104.331,25.993
		L104.331,25.993z"/>
	<path fill="#FFFFFF" d="M88.268,27.052c0.53,3.53,0.883,7.942-2.294,10.061c0,1.942,0.529,4.06,1.059,6.001
		c-0.882,0.529-1.941,0.706-2.824,0.706l-1.412-5.472c-1.765-0.529-3.53-1.059-4.589-3c-1.413-1.942-1.588-4.589-2.471-6.884
		c0.883-0.529,1.941-0.529,3.001-0.882c1.941,3,0.354,9.001,5.295,9.178c0.706,0,1.236-0.882,1.766-1.412
		c0.53-3.001-0.354-5.825-0.706-8.649c0.353-1.059,1.941-0.706,3-0.706L88.268,27.052L88.268,27.052z"/>
	<path fill="#FFFFFF" d="M114.216,27.758c-0.883,5.472-2.472,10.943-3.529,16.591c-0.707-0.176-1.942,0-2.824-0.882
		c1.059-5.472,2.471-10.943,3.705-16.415C112.45,27.052,113.333,27.405,114.216,27.758L114.216,27.758L114.216,27.758z"/>
	<path fill="#FFFFFF" d="M132.571,34.995c-0.176,0.53-0.528,0.706-0.705,1.06c-1.941-0.53-3.706-1.765-5.473-2.472
		c-1.234,1.766-2.117,3.707-2.824,5.825c0.884,0.883,2.824,0.707,2.473,2.118c-0.354,0.353-0.529,0.707-1.061,0.353
		c-0.705-0.353-1.412-0.882-2.293-1.059c-0.883,1.942-2.295,3.883-2.647,6.002c1.588,1.059,3.354,1.588,4.94,2.646
		c0.178,0.529-0.354,0.707-0.528,1.06c-2.472-1.06-4.942-2.825-7.591-3.707c2.117-5.472,4.767-10.415,7.591-15.886
		C127.276,32.17,129.925,33.583,132.571,34.995L132.571,34.995L132.571,34.995z"/>
	<path fill="#FFFFFF" d="M70.971,34.642c1.765,3.883,3.707,7.767,5.472,11.65c-0.882,0.53-1.589,1.059-2.648,1.059
		c-1.059-1.412-1.764-3.353-2.824-5.118c-1.412,0-2.648,1.059-4.06,1.766c0.53,1.764,1.589,3.353,2.295,5.119
		c-0.883,0.529-1.588,1.235-2.648,1.412L61.44,40.115c-0.707-1.766-0.707-4.06,0.529-5.648c1.588-1.589,3.707-2.295,6-1.942
		C69.206,32.876,70.265,33.583,70.971,34.642L70.971,34.642L70.971,34.642z"/>
	<path fill="#766252" d="M67.44,34.995c0.706,1.941,1.942,3.53,2.471,5.648c-1.235,0.706-2.471,1.235-3.883,1.589
		c-0.883-2.472-3.884-4.766-2.295-7.59C64.44,33.583,66.735,33.583,67.44,34.995L67.44,34.995L67.44,34.995z"/>
	<path fill="#FFFFFF" d="M140.69,41.349c-3,4.413-6,7.943-9.002,12.003v0.706l3.885,3.354c-0.178,0.529-0.529,1.059-1.235,1.059
		l-6.178-5.295v-0.529l10.414-13.239C139.456,39.937,140.339,40.467,140.69,41.349L140.69,41.349L140.69,41.349z"/>
	<path fill="#FFFFFF" d="M53.673,43.82l9.179,9.354c-0.177,0.707-1.236,1.413-1.941,1.766c-3.354-2.824-6.355-6.354-9.709-9.179
		c-0.529-0.353-1.058-0.529-1.764-0.529c-0.707,0.529-1.236,1.059-1.589,1.941l0.177,1.942c3,3.176,6.354,6,9.531,9.001
		c-0.529,0.882-1.235,1.766-2.118,1.942L45.2,51.41c-0.707-0.53-1.412,0.176-1.941,0.53c-0.707,0.706-1.06,1.941-0.529,3
		c0.706,1.589,2.471,2.294,3.707,3.53l6.531,5.119c-0.353,0.883-1.06,1.765-1.412,2.648c-4.766-3-8.12-6.708-12.708-10.237
		c0.176-0.707,0.529-1.412,1.059-2.118c0.529-0.354,0.706,0.353,1.235,0.353c0-2.294,0.706-4.588,2.824-5.472
		c0.707-0.529,1.765-0.176,2.472-0.353c0-2.118,0.53-4.061,2.294-5.119C50.319,42.585,52.261,42.761,53.673,43.82L53.673,43.82
		L53.673,43.82z"/>
	<path fill="#FFE021" d="M140.69,77.71c7.062,16.062,3.354,36.714-8.295,49.247c-11.648,13.59-30.184,18.885-46.774,14.826
		c-13.944-3.179-27.889-15.181-33.184-28.771c-6.354-15.886-3.354-35.479,7.59-48.188c12.003-14.474,31.771-20.299,49.775-15.18
		C123.041,52.999,135.75,64.472,140.69,77.71L140.69,77.71L140.69,77.71z"/>
	<path fill="#FFFFFF" d="M151.987,52.646c1.412,0.353,2.472,1.235,3.354,2.471c1.06,2.471-0.354,4.942-1.766,6.884
		c-3.179,3.178-7.767,6.002-12.354,3.884c-1.412-0.53-1.06-3.178-2.824-2.825c-0.354-0.706-1.412-1.059-1.412-1.941
		c3.883-3.883,8.472-6.884,12.709-10.767C150.753,50.704,150.931,52.116,151.987,52.646L151.987,52.646L151.987,52.646z"/>
	<path fill="#766252" d="M90.034,53.705c0.529,0.529,0.706,1.235,0.529,1.588c-1.765,2.472-5.119,2.648-6.884,4.943
		c-0.706,2.471,1.765,5.118-0.176,7.236c-0.706,1.06-1.942,1.06-2.647,1.942c0.353,0.53,0.706,0,1.059,0.353
		c-0.353,0.353-1.059,0.529-1.412,1.235c1.059,0,1.942-1.059,3.177-1.059c-1.059,0.529-2.118,0.882-3,1.942
		c1.059-0.178,1.941-1.236,3.178-1.413c-1.06,0.883-2.295,1.059-3.178,2.471c1.235,0,2.118-1.588,3.53-1.588
		c-0.706,1.059-1.942,1.412-2.825,2.294c1.236,0.176,2.119-1.059,3.177-1.059c-1.412,0.882-3,1.589-4.236,2.824
		c-1.059,0-1.412-1.059-1.588-1.765c0-1.059,0-2.118-0.53-2.824s-1.235-0.882-1.941-1.588c0,2.118,0.176,4.589-0.706,6.708
		c0.706-0.53,0.529-1.765,1.412-2.119c-0.177,0.707-0.883,1.589-0.883,2.472c0.706-0.53,0.53-1.412,1.236-1.765
		c0.353,0.176,0.529,0.529,0.353,0.882c0.177,0.353,1.06-0.529,0.883,0.53c-1.059,1.059-1.588,2.471-1.941,3.883
		c-0.353-0.177-0.707-0.354-0.707-0.883c0,0.529-0.353,0.176-0.882,0c0,0,0.176-0.354,0-0.354c-0.706,0-0.883,0.53-0.706,1.059
		c-2.118-0.176-4.237,1.06-5.119-1.412c-0.706-0.882-0.883-2.294-0.353-3.354c0.353-1.236,2.294-2.295,1.059-3.884
		c-0.353-0.706-0.529-1.942-0.353-2.647c0.353-0.353,0.883-1.235,1.588-1.412c-0.882,1.412-1.412,3.354-0.353,4.589h0.353
		c-0.176-0.53-0.353-1.412-0.176-2.294c0.354,0,0.529,0.706,0.882,0.176l-0.529-0.882c0.529,0,0.706,0.706,1.059,0.706
		c0.177-0.354-0.353-0.706-0.53-1.059c0.354,0,0.53,0.53,0.883,0.353c0.353-0.177,1.059-0.177,1.236-0.706
		c-0.177-0.883-1.06-0.706-1.06-1.589c1.236,0.177,2.119,1.589,3.177,2.118c0-1.235-1.236-2.294-2.295-3.177
		c-2.294,0.176-4.236,1.941-5.825,3.706c0.354,1.06,0.354,2.118,0.53,3.001c-0.53,0-0.706,0.529-0.353,1.059l-0.706,0.176
		c0,0.353,0.354,0.706,0.529,1.06c-0.175,0-1.059-0.177-0.705,0.529c0.176,0.177,0.53,0.353,0.353,0.706
		c-0.177,0-0.353,0-0.353-0.176c-0.177,0.353,0.176,0.883,0.53,1.235l-0.53,0.353c0.176,0.353,1.059,0.883,0.53,1.236
		c0.529,0.883,1.412,2.118,2.471,1.941c1.588,1.06,3.177,0.177,4.766,0.354c-0.883,0.529-2.471,0.353-3.178,1.588
		c0.883,0.353,1.941-0.882,2.472,0.176c0.529,1.236,0.706,2.825,1.235,4.06l0.353-0.529c0.707,0.706,1.413,1.588,1.942,2.647
		l0.353-0.53c-0.353-1.059-0.353-2.294-0.53-3.354c0.53,0.353,0.177,1.059,0.707,1.588c3.706,6.178,4.413,13.769,5.825,20.651
		c-0.353-2.473-0.706-5.473-0.706-8.118c1.059,2.116,0.176,4.588,1.235,6.707c0.177-1.591-0.353-3.002-0.353-4.767
		c0.176,1.588,0.353,3.705,1.412,5.646c-0.177-1.764-0.706-3.883-0.53-5.824c1.06,1.766-0.176,4.061,1.235,5.824
		c0-1.41-0.706-2.822-0.529-4.588c1.235,1.412,0.882,3.531,1.765,5.119c-0.176-1.412-0.529-3.178-0.529-4.767
		c0.706,1.412,0.529,3.884,1.413,5.472c0.176-1.06-0.354-1.941-0.354-3.178c0.177,1.235,0.53,2.295,1.061,3.178l0.176-0.705
		c0.529,0.705,0.706,1.588,1.589,2.117c0.176-1.236-1.06-1.941-0.883-3.354c0.883,0.883,1.059,2.295,2.118,3.002v-0.707
		c0.53,0.176,1.236,1.233,2.118,1.588c0-0.705-0.882-1.233-0.882-2.116l3.177,3.178c0.177-0.883-0.883-1.414-0.883-2.295
		c0.706,0.881,1.589,1.412,2.472,2.117c0.176-0.529,0-0.884-0.178-1.236c0.529,0.707,1.412,1.236,2.117,1.943l0.179-1.062
		c0.882,0.53,1.765,1.766,3,1.062c2.295-1.062,4.235-0.884,6.53-1.236c0.884-0.529-0.176-1.234,0-1.941
		c0.529-0.178,1.06,0.529,1.588,0.707c0.354-1.061-1.059-1.414-0.881-2.473c1.234,0.529,3.354,0.529,4.412-0.529
		c-1.06-0.176-2.472,0.529-3.354-0.529c-0.706-0.529-0.883-1.412-0.529-2.295c0.354-1.236,1.59-1.764,2.647-1.941
		c0.354-0.176,0.706,0.179,0.883,0.179c-0.177,0.881-1.412,1.06-1.589,1.94c-0.176,0.353,0.177,0.353,0.354,0.705
		c0.883,0.176,1.235-0.528,1.766-1.059c0.177-0.707,0.354-1.236,0.177-1.941c1.94,0.529,2.294-2.119,4.235-1.59
		c0.707,0.178,1.235,1.059,1.941,0.883c0.354-0.883,1.235-1.233,1.941-1.059c0-0.354-0.354-1.059-0.883-1.412
		c-3.354-1.942-7.59-3.177-9.885-6.708c-2.117-1.765-4.412-4.413-4.941-7.237c0.177-1.236,0.177-2.647,0.529-3.883
		c0.353,1.412,1.234,1.236,2.295,2.118c0.705-0.529-0.178-1.235,0.177-1.765c1.059-1.059,0.528-2.295-0.53-3.178
		c-0.882-1.412-2.294-2.118-3.529-3.177c0.176-0.529,0-0.882-0.354-1.235c0,0-0.178,0-0.354,0.177
		c-1.236-1.235-1.589-3.354-2.647-4.589c-0.177-1.412,2.647-2.825,0.177-3.707l-0.529,0.177c1.06,1.059-0.354,1.765-0.529,2.471
		c-0.178-0.353-0.178,0-0.529,0.176c0.177-0.529-0.354-1.059-0.882-1.059l-0.354,0.353l-0.353-0.529l-0.706,0.353
		c-0.178-0.176-0.178-0.707-0.178-0.882c-0.705-0.177-0.883-0.353-1.234-0.883c0.354-0.353,0.354,0.177,0.529,0.353
		c0.529-0.176,0.529-0.706,0.529-1.236l0.705,0.706l0.354-0.176c0.176,0.706,0.882,0.883,1.411,1.412
		c0.529-0.529,0.529,1.236,1.236,0.354c0.176-0.707-0.178-0.882-0.531-1.412c-0.705-0.177-1.059-0.707-1.588-1.059l-0.528,0.176
		c-0.354-0.529-0.884-0.706-1.236-1.235l-0.353,0.529c-0.529-0.176-0.354-1.588-1.059-0.882c0,0.176,0,0.529-0.178,0.529
		c-0.706,0.177-0.354-0.882-1.06-1.059v0.882c-0.529-0.177-0.529-0.882-0.883-0.882c-0.353,0.529,0,0.706-0.706,0.882
		c-0.177,0.529-0.53-0.353-0.706,0.353v0.353c-0.176-0.177-0.354-0.177-0.529-0.353c-0.707,0.353,0.176,0.706,0.176,1.059
		c0.53,0.354,1.236,0,1.765,0.177l0.53-0.53c0.176,0.53,0.707,0.353,0.707,0c0.353,0.706,1.588,0.706,0.884,1.589l-0.531-0.707
		c-0.353,0.53-0.353,0.882,0,1.413c1.061,0.176,1.412,1.412,2.295,1.235c0.354,0.354,0,1.059,0.705,0.882
		c0.354,0.177,0.531-0.177,0.707-0.177c0.883,0.707-0.707,1.766,0.529,2.295c0.178-0.707,0.354-1.412,0.354-1.941l0.354,0.529
		c0.354,0,0.176-0.529,0.529-0.529c0.177,1.765,0,3.707,1.061,5.119l-0.354,2.648c0.706,0.882,1.06,1.941,2.295,2.824
		c-0.353,0.353-0.884,0.883-1.412,0.529c-0.706-0.176-0.354-1.059-1.06-0.883c-0.707-1.059-1.06-2.118-1.06-3.53
		c0-0.883-0.883-1.236-1.059-1.942h-0.354c0.178-0.706-0.353-1.059-0.705-1.589c-0.529-0.176-0.884,0.53-1.061,0.883
		c1.589,2.824,2.648,6.177,4.768,8.825c0.705,0.353,1.94,0.706,2.646,1.412c0.705,0.354,1.059,1.06,0.705,1.765
		c-1.234,0.882-1.941-0.706-2.823-1.059c-0.706-0.706-1.412-1.589-1.767-2.471l-0.353,0.882c-0.353-0.353-0.177-1.059-0.528-1.411
		c-0.354,1.235-0.178,2.294-0.707,3.883c-0.528-0.53,0-1.413,0-1.942c-0.354-1.059-0.528-1.941-1.06-2.824
		c-0.176,1.941,1.412,5.119-0.706,6.178c-0.882,1.059-1.941,2.118-1.765,3.354c0.354-0.176,0.177-0.706,0.706-0.53
		c-0.883,1.236,0.529,1.942,0.177,3.354c0.882,0,0.176,1.588,1.06,1.059c0.176,1.412,1.766,2.118,1.588,3.707
		c-3-1.412-4.06-4.589-4.235-7.59c-0.706,0.529-0.354-0.706-1.06-1.059c-0.353,0.707-1.059,0-1.059,0.883
		c0.176,0.176-0.177,0.529-0.177,0.706c-3-2.118-6.531-2.294-9.354-4.059c-0.706-0.53-1.06-1.412-0.706-2.119
		c0.706-0.353,0.706,0.883,1.412,1.059c1.412,2.118,4.06,1.06,5.648,1.589c0,0.177,0,0.353,0.176,0.529
		c0.883-0.706-0.176-1.765,0.529-2.647c-1.412,0.354-3,1.589-4.942,1.059c-0.882-0.353-1.765-1.059-2.118-1.941
		c0-0.53,0.176-1.06,0.353-1.589c-0.706-0.353-1.765,1.235-1.765-0.353c-0.529,0.53-0.529,1.588-1.765,1.588
		c-0.176-0.353-0.353-0.176-0.706,0l-0.353-0.706c-0.177,0.354-0.53,0.53-0.883,0.354c-0.353-1.412,0.883-2.295,1.412-3.178h0.706
		l-0.176,0.707c0.353,0.176,0.706-0.53,0.883,0.176c0.353,0.176-0.353,0.354,0,0.529c0.177-0.176,0.53-0.176,0.706-0.176
		l0.176,0.529c1.059-0.707,1.942-1.412,3.177-1.766c-0.176-0.176-0.706,0-0.529-0.529c1.764-0.353,3.882-0.353,5.118,0.883
		c-0.529,0.706-1.588-0.354-2.295,0c1.059,0.176,2.118,0.883,2.648,1.941c0.529,0.706,0,1.765,0.353,2.471
		c0.53-1.059-0.176-2.647-0.176-3.883c0.706,0.176,0.706,0.883,1.059,1.412c0.177,1.589,0,3.177,0.177,4.589
		c0.706-0.529,0.53-1.589,0.883-2.294c0.529,0.176,0.176,0.706,0.706,0.882c0-0.706,0.882-0.706,0.882-1.412
		c0.354-2.294-0.529-4.236-2.118-5.472c-1.589-0.529-3.001-1.765-4.766-1.412c-0.53-1.235-0.707-2.647-1.235-3.882
		c0-0.53,0.176-1.06,0.529-1.413c0.53-0.177,1.413-0.529,1.942,0c-0.176,0.529-0.176,0.883,0,1.413
		c0.529,0.353,0.353,1.059,1.06,1.412c0,0.176-0.177,0.353-0.354,0.529c0.354,0.53,1.059,0.177,0.882,0.707
		c-0.176,0-0.176,0.176-0.176,0.176c0.529,1.059,1.765,1.765,2.824,2.648c0.176-0.178-0.176-0.707-0.354-0.883l0.883,0.883
		c0.53-0.354-0.176-0.883-0.353-1.413c0.177-0.353,0.353,0.706,0.883,0.529c0.353-1.765-1.413-3.177-2.118-4.767
		c0.53,0.178,0.883,0.883,1.235,1.236c0.53-0.529-0.353-1.059-0.353-1.588c1.059,0,0.706,1.412,1.588,1.765
		c0.354-0.529-0.353-0.882-0.353-1.588c0.706,0.529,1.589,2.294,2.472,3.53c0.176,0,0.529,0.177,0.705-0.176
		c-0.705-2.648-2.294-4.942-3.53-7.414v-1.059c0.177,0,0.353,0,0.53-0.353c0.176-0.529-0.177-0.882-0.53-1.235
		c-0.177,0.176-0.353,0.529-0.353,0.882c-0.177,0-0.353-0.354-0.529-0.176l-0.353,0.529c-0.177,0-0.353-0.176-0.53-0.353
		c-0.353,0.706,0.353,1.412,0.353,2.118c-0.53,0-0.883-0.706-1.236-0.883c-0.353,0.177,0,0.529,0,0.883
		c-2.118,0.177-4.413,0-5.825-1.765v0.706c-2.824-0.353-0.706-3.707-1.942-5.119c-0.176-0.706,0.177-1.236,0.53-1.765
		c1.412,0.176,2.647,0.353,3.707,1.235c-0.176-0.176,0.176,0.706-0.353,0.177c0.353,0.529,0.177,1.059,0.706,1.412
		c0-0.176,0.354-0.529,0.178-0.706c0.705-0.176,0.881,0.883,1.765,1.059c-0.177-0.353-0.177-0.706-0.53-1.235
		c1.059,0.529,0.883,2.294,2.295,3.001l0.176-0.883c0.177,0,0.354,0.353,0.707,0.353c0-0.529-0.177-1.412-0.883-1.765
		c-1.765,0-1.412-2.647-3.529-1.941c1.411-1.236,3.353-2.295,5.471-1.589c1.942,0.354,3.882,3.178,5.825,0.883
		c4.589-1.589,8.826-4.06,13.238-6.001c0.528-0.354,0.883,0.177,1.235,0.177c1.234,1.412-0.354,2.647-0.883,3.883
		c-2.117,2.648-5.473,4.766-8.296,6.884c0,0.353,0.177,0.529,0.353,0.706c5.648-2.295,13.416-5.119,18.711-0.177
		c0.883,0.53,1.06,1.589,0.705,2.295c-1.588,4.413-5.471,9.002-9.885,10.768c-0.882,0.176-1.412,0-2.117,0.176
		c0.529,1.589-2.119,1.589-1.588,3.178l0.883,0.706c-0.707,0.529-1.236,1.236-1.414,2.118c-0.353,0.883-0.704,1.766-0.353,2.648
		c3.177,6.001,12.355,7.237,14.65,13.943c-2.295,2.648,0.706,7.767-3.884,9.002c-2.823,0.179-5.824-0.883-8.473,0.883
		c2.471,0.354,5.471-0.354,8.119-0.528c-0.177,1.412-1.059,2.295-2.117,2.824c-1.941-0.179-4.061-0.354-5.648,0.528
		c-2.647-0.707-5.824-3.707-8.297-0.354c-2.117,0.883-4.766,1.236-7.061,1.236c-2.294,0.883-4.412,2.471-7.06,3
		c-2.117,4.061-7.589,3.178-9.002,7.942c-1.412,1.589-3.353,2.472-5.472,1.767c-0.883-0.707-1.06-1.767-0.883-3
		c-1.059-0.883-1.765-1.767-2.824-2.474c-0.177-0.354,0-0.704,0.176-1.059c0.706,0.176,0.883,1.235,1.589,0.883l-1.236-1.412
		c0.883-0.354,1.059,0.705,1.766,0.884c0-0.707-1.235-1.236-1.235-1.941l1.588,1.234c0.177-0.884-1.412-1.234-1.412-2.117
		c0.882,0,1.412,1.233,2.118,1.059c-0.177-0.705-2.118-1.234-1.059-1.766c0.353,0,0.529,0.354,0.882,0.531
		c0.177-0.354-0.353-0.707-0.53-1.062c1.236,0.528,1.942,1.235,3.53,1.766c-5.648-4.061-5.295-11.475-5.118-17.651
		c0.706,5.119-0.353,11.297,3.883,14.828c0.706-0.354,1.059-0.177,1.941-0.883c-0.882-1.941-1.412-4.062-1.941-6.003
		c-0.53,1.412,0.177,3.003,0.53,4.412c-1.412-1.409-1.589-3.353-2.295-4.766c-0.176,0.883,0,1.942,0.53,3.002
		c-1.589-0.707-1.236-3.529-1.941-5.474c-0.706-5.646,1.059-12.708-1.412-18.002c-0.53,0.707,0.176,1.589-0.177,2.471
		c0,0,0-0.177-0.176-0.177c-0.177,2.648,0.353,5.648,0.176,8.119l0.353-1.588c0.354,1.588-0.353,3.354-0.176,5.295
		c0,3.883,0.353,7.943,0.706,11.826c-0.706,0-0.53-0.883-0.706-1.236c-0.707-4.412-0.177-8.647-0.353-12.707
		c-0.354,0.176-0.354,0.881-0.354,1.234c-0.529,4.412-0.176,8.826,0.53,12.887c0.177,0.705-0.176,1.06-0.176,1.588
		c-1.059-0.883-0.53-2.647-1.235-3.883c-0.354,2.117,0.529,4.059,0.529,6.178c-0.883-1.766-1.235-4.414-1.589-6.707
		c-0.883,0.881,0,1.939-0.177,3.177c0.177,1.588,1.236,3.178,0.53,4.942c-1.413-2.647-1.236-6.002-1.941-9.002
		c-0.354,3.176,0.529,6.354,0.882,9.531c-2.824-6.355-2.824-14.121-1.765-21.357c0.353,0.177,0.706-0.354,0.706-0.528
		c0.706,1.94,0,4.588,0.706,6.707c0.353-2.648,0.353-4.767,0.353-7.414c0.353-0.177,0.353,0.354,0.529,0.528
		c-0.176,1.941-0.353,4.062,0.177,6.002c0.176-2.823,0.529-5.473,0.354-8.473c1.588,2.648-0.177,5.824,0.176,8.648
		c2.119-4.766,0.883-11.472,1.06-16.592c-0.353-0.882-0.353-2.118-0.707-3c-0.529,1.059,0.707,2.471-0.706,3
		c0-0.353,0-0.706-0.176-1.059l-1.059,1.588c-0.176-0.53,0.353-1.588,0-2.118l-0.882,1.235l-0.177-1.412
		c-0.53,0-0.53,0.707-0.883,1.06c0-0.529,0.177-1.412-0.529-1.588c0.354-1.589,0.706-3.354,0.177-4.942
		c-0.53,1.765-0.53,3.707-1.236,5.295c-0.176-1.941,0.354-3.883,0-5.648c-0.882,1.412-0.529,3-1.235,4.942
		c-0.354-1.765,0.177-4.06-0.354-5.471c-0.706,1.588,0.177,3.707-0.352,5.471c-0.177,0.53-0.354,1.06-0.883,1.236
		c0.177-1.412,0.177-3.177,0-4.589c-0.353,1.236-0.353,2.471-0.529,3.707c-0.353,1.235-0.353,2.471-1.236,3.177
		c0-2.118,1.236-4.766,0.177-7.06c-0.529,0.706-0.882,1.765-1.589,2.118c-1.589-0.176-1.941,2.294-3.53,1.589
		c-0.353,0.177-0.353,0.529-0.53,0.883c-0.53-1.236-0.706,0.706-1.588-0.177V85.3c1.059-0.882,2.471-1.412,3.354-2.294
		c-1.765,0.53-3.354,1.765-5.295,2.118v-0.883c4.236-2.647,9.002-4.412,13.062-7.414c0-2.647-1.059-6.001,1.059-7.943
		c1.766-1.941,3.707-4.236,6.178-4.942c1.413,0,2.119,1.412,3.178,2.294c-0.706-2.294-1.941-6.001-0.177-8.472
		c3.177-3.883,8.649-3.001,12.709-4.413C89.151,53.705,89.681,53.352,90.034,53.705L90.034,53.705L90.034,53.705z"/>
	<path fill="#766252" d="M152.694,54.587c0.354,0.529,0.529,1.588,0.354,2.294c-2.117,4.413-6.707,7.414-11.474,7.061
		c-0.706-0.176-0.529-1.412-0.353-2.118c0.176-1.059,1.411-1.588,1.94-2.295c2.647-1.765,4.767-4.236,7.59-5.824
		C151.459,53.881,152.165,54.058,152.694,54.587L152.694,54.587L152.694,54.587z"/>
	<path fill="#FFFFFF" d="M88.975,54.587c0.706,1.236-1.06,1.588-1.588,2.294c-2.118,0.53-4.942,1.235-5.472,3.883
		c-0.882,1.941,1.942,2.824,1.236,4.589c-1.589,0-2.824-1.941-4.059-0.176c-0.177,0.353-0.177,0.882-0.53,1.412
		c-1.588-1.589-2.118-3.883-1.941-6.178c1.235-3.354,4.589-5.119,7.942-5.119C85.974,54.94,87.563,54.587,88.975,54.587
		L88.975,54.587L88.975,54.587z"/>
	<path fill="#766252" d="M84.562,57.235c-0.353,0.53-0.882,0.177-1.235,0v-0.53C83.679,56.882,84.209,56.882,84.562,57.235
		L84.562,57.235L84.562,57.235z"/>
	<path fill="#766252" d="M83.327,57.941c-0.353-0.176-1.06,0-1.06-0.706C82.62,57.412,83.327,57.588,83.327,57.941L83.327,57.941
		L83.327,57.941z"/>
	<path fill="#FFFFFF" d="M110.862,57.765l-5.825,4.942c-1.589-0.353-3.177-0.706-4.589-1.059c2.822-1.942,6.354-3.178,9.531-4.413
		C110.332,57.235,110.862,57.412,110.862,57.765L110.862,57.765L110.862,57.765z"/>
	<path fill="#766252" d="M81.914,58.824c-1.235,0.706-1.059,1.941-1.941,2.647c0.176,0.177,0.353,0.177,0.529,0.177
		c-0.176,0.529-1.059,0.529-1.588,0.353c0-0.353,0.529-0.353,0.883-0.529c-0.354-0.176-0.883-0.176-1.059-0.529
		c-0.177-1.413,1.235-1.766,1.941-2.295C81.208,58.647,81.561,58.47,81.914,58.824L81.914,58.824L81.914,58.824z"/>
	<path fill="#766252" d="M79.443,62.883c-0.176,0-0.176-0.177-0.352-0.177c0.176-0.353,1.058-0.176,1.588-0.529
		C81.032,63.06,79.796,62.354,79.443,62.883L79.443,62.883L79.443,62.883z"/>
	<path fill="#896958" d="M82.444,64.648c-0.354,0.177-0.706,0.706-1.412,0.706C81.032,64.472,81.914,64.648,82.444,64.648
		L82.444,64.648L82.444,64.648z"/>
	<path fill="#FFE021" d="M124.629,66.061c-1.588,1.235-4.412,1.059-6.177,1.059c1.765-0.706,3.883,0.353,5.472-1.059
		c-5.647-4.06-13.062-0.353-18.356,2.294c-0.176-0.353-0.707-0.529-0.529-1.059c4.941-2.647,11.296-5.119,16.945-2.647
		C122.864,65.354,123.924,65.354,124.629,66.061L124.629,66.061L124.629,66.061z"/>
	<path fill="#766252" d="M86.328,67.472v0.707c-0.53-0.176-1.413-0.353-1.766-0.883l0.177-1.059
		C85.621,66.414,85.798,67.12,86.328,67.472L86.328,67.472L86.328,67.472z"/>
	<path fill="#FFE021" d="M124.806,67.296c-1.41,0.883-3.529,1.059-5.472,0.883C120.923,67.826,123.041,67.826,124.806,67.296
		L124.806,67.296L124.806,67.296z"/>
	<path fill="#FFFFFF" d="M110.332,68.002l1.412,0.177L110.332,68.002z"/>
	<path fill="#FFE021" d="M124.629,68.179c-0.705,0.53-1.588,0.353-2.47,0.706C122.864,68.355,123.747,68.002,124.629,68.179
		L124.629,68.179L124.629,68.179z"/>
	<path fill="#FFFFFF" d="M112.804,68.355c0-0.176-0.705,0-0.883-0.176C112.274,68.355,112.627,68.355,112.804,68.355L112.804,68.355
		L112.804,68.355z"/>
	<path fill="#FFE021" d="M119.158,69.238c-2.118,0.353-4.942,0.529-6.884,0H119.158L119.158,69.238z"/>
	<path fill="#FFE021" d="M123.924,69.767c-0.706,0.529-1.589,0.177-2.472,0.353C122.335,70.12,123.041,69.944,123.924,69.767
		L123.924,69.767L123.924,69.767z"/>
	<path fill="#FFE021" d="M123.569,70.473c-0.353,0.353-0.881,0.353-1.234,0.176C122.688,70.649,123.041,70.296,123.569,70.473
		L123.569,70.473L123.569,70.473z"/>
	<path fill="#FFE021" d="M120.041,72.415c-0.177,0.353-0.883,0.176-0.883,0.529c0,0.176,0.883,0,0.706,0.529
		c-2.119,0.353-4.766,0.53-7.061-0.176c1.764,0,3.354,0.353,5.295,0c0-0.353-0.178-0.353-0.354-0.353c-1.234,0-3.354,0-4.589-0.529
		C115.451,72.944,117.745,72.415,120.041,72.415L120.041,72.415L120.041,72.415z"/>
	<path fill="#FFFFFF" d="M111.215,72.944l0.706,0.353L111.215,72.944z"/>
	<path fill="#766252" d="M85.621,73.297c-0.529,0.706-1.765,0.883-2.471,1.236c-0.353-0.707,0.882-0.707,1.236-1.236
		C84.738,73.474,85.092,72.944,85.621,73.297L85.621,73.297L85.621,73.297z"/>
	<path fill="#766252" d="M85.974,74.18c-0.53,0.529-1.413,1.059-2.118,0.706C84.209,74.709,85.092,74.003,85.974,74.18L85.974,74.18
		L85.974,74.18z"/>
	<path fill="#FFE021" d="M118.806,74.533c-1.412,0.176-3.707,0.529-4.414-0.353C115.979,74.356,117.216,74.533,118.806,74.533
		L118.806,74.533L118.806,74.533z"/>
	<path fill="#896958" d="M87.563,75.768c-0.354,0.177-1.06,0.883-1.589,0.707C86.15,75.945,86.856,75.945,87.563,75.768
		L87.563,75.768L87.563,75.768z"/>
	<path fill="#FFE021" d="M117.745,75.416c0,0.53-0.529,0-0.529,0.353l-2.824-0.353C115.451,75.239,116.687,75.062,117.745,75.416
		L117.745,75.416L117.745,75.416z"/>
	<path fill="#766252" d="M87.209,75.945c-0.353,0.353-1.235,0.882-1.588,0.529C86.15,76.298,86.68,75.592,87.209,75.945
		L87.209,75.945L87.209,75.945z"/>
	<path fill="#766252" d="M79.443,76.298c-0.529,1.06-1.765,2.118-1.765,3.53c0,0.176-0.176,0.529,0.177,0.706
		c0.353-1.412,1.059-2.824,2.118-3.707c0.176,0.883-0.882,1.589-1.235,2.648l0.354,0.176c0.176-0.706,1.058-1.235,1.588-1.941
		c1.059,1.06-1.236,1.941-1.059,3.177c-0.177,0.177-0.354,0.353-0.707,0.353l-0.176-0.529l-0.53,0.529l-0.53-0.706
		c0,0.53-0.529,0-0.706,0c0-1.765,1.059-3.176,1.941-4.589C79.091,75.945,79.267,75.945,79.443,76.298L79.443,76.298L79.443,76.298z
		"/>
	<path fill="#FFE021" d="M116.862,76.475c-0.883,0-1.94,0.176-2.646-0.176C115.099,76.122,115.979,75.945,116.862,76.475
		L116.862,76.475L116.862,76.475z"/>
	<path fill="#766252" d="M87.563,76.827c-0.177,0.353-0.707,0.353-1.235,0.531C86.68,77.004,87.209,76.827,87.563,76.827
		L87.563,76.827L87.563,76.827z"/>
	<path fill="#FFFFFF" d="M89.681,81.77c0,0.176-0.176,0.529-0.53,0.706c-0.353,0.176-0.706,0-0.883-0.354
		c0-0.353,0-0.706,0.354-0.883C89.151,80.887,89.504,81.593,89.681,81.77L89.681,81.77L89.681,81.77z"/>
	<path fill="#766252" d="M61.969,83.888c-0.353,1.589-0.529,3.707-1.059,5.472l-0.354-0.353l0.53-4.589l0.529-0.882L61.969,83.888
		L61.969,83.888z"/>
	<path fill="#766252" d="M81.561,85.83c0.529-0.53,0.706-1.412,1.236-1.942l0.177,1.06c0.176-0.53,0.529-0.707,0.706-1.06
		c0.882,0.177-0.353,1.236,0.707,1.06c0.176,0.176,0.353,0.353,0,0.706l0.529,0.176c-0.177,1.059-0.354,1.765-0.354,3
		c-0.353,0-0.353-0.706-0.529-1.059c-0.176,0.176-0.176,0.53-0.176,0.706c-0.354,0.177-0.354-0.176-0.53-0.53
		c-0.177,0.177-0.177,0.177-0.177,0.354c-0.353-0.176-0.353-0.707-0.706-1.059c0,2.647,2.294,4.766,3.707,6.884
		c-3.177-1.236-4.236-4.766-4.589-7.766l-0.353,0.529c-0.882-0.883-1.941-1.765-1.765-3.177L81.561,85.83L81.561,85.83z"/>
	<path fill="#766252" d="M60.204,85.3c0.176,1.413-0.177,2.825-0.53,4.237L59.32,89.36C59.498,87.947,59.674,86.359,60.204,85.3
		L60.204,85.3L60.204,85.3z"/>
	<path fill="#766252" d="M85.798,87.418c0.176-0.176,0.176-0.706,0.53-0.529c0.353,0.706-0.177,1.588-0.177,2.471
		c-0.706-0.353-0.176-1.412-0.529-2.118l-0.177,1.942c-0.529-1.059-0.529-2.118,0-3.001C86.328,86.359,85.268,86.889,85.798,87.418
		L85.798,87.418L85.798,87.418z"/>
	<path fill="#766252" d="M107.508,86.536l-0.528,0.353c0.176,0.353,0.883,0,0.883,0.529l-0.529,0.529
		c0.176,0,1.059-0.354,1.059,0.354l-0.353,0.353c0.177,0.176,0.705,0,0.882,0.176l-0.529,0.529c0.354,0,0.707,0.177,1.061,0.177
		c0.176,0.353-0.178,0.353-0.354,0.529c0.528,0.176,0.705-0.177,1.234,0.176l-0.354,0.353c0.354,0.176,1.06-0.176,1.235,0.354
		l-0.706,0.53c0.529,0.529,1.059-0.53,1.59,0.176c-0.354,0.354-0.884,0.354-1.412,0.53c0.353-1.235-1.59,0-1.061-1.235l-0.883-0.177
		c0-0.176-0.176-0.353,0-0.353c-0.883,0.529-0.883-0.706-1.766-0.706c-0.177-0.529,0.529-0.354,0.707-0.707
		c-0.531-0.176-1.06,0.53-1.59-0.176c-0.529-0.706,0.178-1.059-0.176-1.941C106.272,86.359,107.153,86.182,107.508,86.536
		L107.508,86.536L107.508,86.536z"/>
	<path fill="#766252" d="M59.321,86.712c0,0.882,0,1.941-0.706,2.647C58.791,88.301,58.438,87.065,59.321,86.712L59.321,86.712
		L59.321,86.712z"/>
	<path fill="#766252" d="M86.856,89.184c-0.706-0.354-0.176-1.236,0-1.766C87.386,87.947,86.68,88.477,86.856,89.184L86.856,89.184
		L86.856,89.184z"/>
	<path fill="#766252" d="M87.563,87.947c0.352,0.354,0.352,0.883,0,1.412C86.856,89.006,87.386,88.125,87.563,87.947L87.563,87.947
		L87.563,87.947z"/>
	<path fill="#766252" d="M88.445,89.359c-0.354,0,0-0.529-0.354-0.706c0.176-0.177,0.176-0.353,0.354-0.353
		C88.622,88.477,88.445,88.83,88.445,89.359L88.445,89.359L88.445,89.359z"/>
	<path fill="#766252" d="M89.329,89.359c-0.354-0.176-0.354-0.529-0.354-0.882C89.504,88.125,89.151,89.006,89.329,89.359
		L89.329,89.359L89.329,89.359z"/>
	<path fill="#FFE021" d="M77.148,104.717c-0.529-5.118-0.882-10.238-1.588-15.004C77.148,94.125,76.972,99.599,77.148,104.717
		L77.148,104.717L77.148,104.717z"/>
	<path fill="#FFE021" d="M78.031,95.538c0.883,3.354,0.883,6.531,0.883,10.062c-0.706-0.884,0.177-2.474-0.706-3.179
		c-0.353-4.235-0.882-8.473-1.588-12.533C77.325,91.654,77.854,93.596,78.031,95.538L78.031,95.538L78.031,95.538z"/>
	<path fill="#FFE021" d="M75.56,102.599c-0.353-3.707,0-7.767-0.529-11.474C75.56,94.832,76.266,98.892,75.56,102.599L75.56,102.599
		L75.56,102.599z"/>
	<path fill="#766252" d="M63.205,98.539c0.353-0.179,0.353-0.707,0.529-1.236c0-1.588-0.353-3.177-0.353-4.766
		c0.882,4.59-0.176,9.708,0,14.651c-0.353,0-0.706-0.179-0.706,0.176c0,2.471,0,4.766,0.53,6.707
		c0.176-0.354,0.353-0.705,0.353-1.234c0.706,3.529,1.589,6.883,2.294,10.59c-0.882-1.412-1.235-3-1.765-4.588
		c-0.177,1.588,1.059,3.176,0.882,4.588c-0.882-1.234-1.765-2.471-2.118-4.059c0,1.059,0.353,2.471,0.176,3.707
		c-1.412-4.414-3.177-8.826-4.06-13.24h0.707c0.353,1.412,0.176,3.002,1.059,4.236c0-1.412-0.353-3.176-0.177-4.412
		c0.707,2.119,0.354,5.119,1.942,7.59c-0.883-4.236-1.236-9.178-0.883-13.943c0.353-3.883,0.883-7.944,0.883-12.003
		C63.205,93.419,62.852,96.42,63.205,98.539L63.205,98.539L63.205,98.539z"/>
	<path fill="#FFE021" d="M79.443,96.949c0.354,2.647,1.059,5.473,0.883,7.768c-0.883-4.414-1.588-8.826-2.295-13.239
		C79.091,93.067,79.091,95.184,79.443,96.949L79.443,96.949L79.443,96.949z"/>
	<path fill="#766252" d="M87.563,92.89c-0.177,0-0.177,0.177-0.354,0.177c-0.353-0.53-0.353-1.06,0.177-1.413
		C88.092,91.831,87.563,92.537,87.563,92.89L87.563,92.89L87.563,92.89z"/>
	<path fill="#766252" d="M112.979,92.537l-0.176,0.177c0.353,0.176,0.705,0,0.883,0.176c0.176,0.177,0,0.353-0.178,0.53
		c0.354,0.529,0.706-0.353,1.059,0.353l-0.528,0.353h1.235c0.177,0.353-0.176,0.353-0.176,0.53c0.176,0.353,0.881-0.177,0.881,0.529
		l-0.528,0.354c0.353,0.53,0.706-0.177,1.06,0c-0.529,1.236,1.411,0.177,0.883,1.236l0.705,0.176
		c-0.177,0.178-0.529,0.707-0.883,0.354c-0.176-0.177,0.178-0.177,0.178-0.354c-0.354-0.176-1.235,0.528-1.235-0.352l0.176-0.178
		c-0.353-0.353-1.233,0.529-1.233-0.529c0.176,0.177,0.353,0,0.353-0.176c-0.706,0.353-0.884-0.707-1.765-0.883
		c-0.178-0.353,0.353-0.353,0.528-0.706c-0.528-0.53-0.883,0.706-1.411,0l0.705-0.53c-0.354-0.529-0.705,0.53-1.234,0
		c0-0.176-0.354-0.176,0.176-0.529c-0.354-0.177-1.059,0-1.059-0.707C111.921,92.184,112.804,91.831,112.979,92.537L112.979,92.537
		L112.979,92.537z"/>
	<path fill="#766252" d="M88.445,92.36c0.177,0.529-0.177,1.235-0.354,1.765C87.739,93.772,87.915,92.713,88.445,92.36L88.445,92.36
		L88.445,92.36z"/>
	<path fill="#766252" d="M65.323,104.894c-1.413,1.766-0.53,4.59-0.177,6.53c0.706-0.178,0.177-1.235,0.529-1.766
		c0.176-4.767,0.529-9.886,1.235-14.297l0.354,4.414c0.353-0.705,0.353-1.412,0.53-2.117c-0.177,5.824-0.883,12.355,0.529,18.18
		c0.354,1.766,1.06,3.531,1.413,5.473c-1.059-3-2.825-5.826-3-9.002c-0.177,3.529,1.765,6.531,2.294,9.885
		c-0.353,0-0.353-0.707-0.707-0.883c0,0.353,0.177,1.06,0.354,1.588c-0.882-2.116-1.766-4.412-2.295-6.707
		c0,2.472,1.06,4.941,1.06,7.236c-0.353,0.178-0.176,0.529-0.53,0.529c-0.882-4.766-3-9.002-2.824-14.297
		c-0.177-4.588,0.354-10.061,0.354-14.65c0.529,2.295,0.352,5.295,0.176,7.59c1.235-2.824,0.53-6.883,0.707-10.061
		C66.381,96.598,65.675,100.834,65.323,104.894L65.323,104.894L65.323,104.894z"/>
	<path fill="#FFE021" d="M79.267,92.89c1.235,3.354,1.765,7.06,2.294,10.767c-1.059-3.529-1.412-7.412-2.47-10.767H79.267
		L79.267,92.89z"/>
	<path fill="#766252" d="M88.445,95.891c-0.354-1.059-0.177-2.118,0.706-3.001C89.329,93.949,88.798,95.008,88.445,95.891
		L88.445,95.891L88.445,95.891z"/>
	<path fill="#766252" d="M90.034,93.596c0,0.883-0.353,2.295-0.883,3.002C88.798,95.361,89.504,94.479,90.034,93.596L90.034,93.596
		L90.034,93.596z"/>
	<path fill="#766252" d="M90.21,97.656h-0.176c-0.176-1.059,0-2.295,0.706-3.178C91.093,95.361,90.387,96.598,90.21,97.656
		L90.21,97.656L90.21,97.656z"/>
	<path fill="#766252" d="M102.036,95.891c-0.354,0-0.706,0-0.706-0.353v-0.882C101.86,94.832,101.685,95.538,102.036,95.891
		L102.036,95.891L102.036,95.891z"/>
	<path fill="#766252" d="M104.508,95.891c0.705,0.354,0.884,1.588,1.589,1.941l-0.354,0.528c0.177,0.179,0.706-0.352,1.059,0
		c-0.176,0.529,0.354,0.179,0.53,0.884c-0.179,0.354-0.53,0.354-0.706,0.354c-1.413-0.884-2.295-1.412-3.707-1.941
		c0-0.354,0.354-0.529,0.529-0.707c-0.354-0.176-0.706,0.178-1.235,0.178c-0.177-0.883,0.884-1.06,1.412-1.589
		C103.978,95.714,104.331,95.361,104.508,95.891L104.508,95.891L104.508,95.891z"/>
	<path fill="#766252" d="M60.91,106.658c-0.177,0.352-0.354,0.352-0.706,0.352c-0.53-4.059-0.177-7.94,0.882-11.826
		C61.439,99.067,60.91,102.774,60.91,106.658L60.91,106.658L60.91,106.658z"/>
	<path fill="#766252" d="M91.622,95.361c0,1.237-0.353,2.295-0.706,3.354C90.387,97.656,91.269,96.42,91.622,95.361L91.622,95.361
		L91.622,95.361z"/>
	<path fill="#766252" d="M92.681,96.773c-0.353,0.705-0.353,1.587-0.706,2.471c-0.176,0-0.176-0.177-0.353-0.354
		c0-0.881,0.353-1.764,0.706-2.471L92.681,96.773L92.681,96.773z"/>
	<path fill="#766252" d="M93.034,100.479c-0.176,0-0.353-0.178-0.529-0.354c-0.354-1.236,0.529-1.941,0.706-3
		C94.623,98.01,93.034,99.244,93.034,100.479L93.034,100.479L93.034,100.479z"/>
	<path fill="#766252" d="M59.498,107.01c-0.354-1.059-0.177-1.938-0.53-3l-0.177,3c-0.528-0.176,0-0.883-0.353-1.233
		c0.176-2.295,0-4.941,0.529-7.236l0.353,0.176c0.53-0.354,0-1.059,0.354-1.412C59.851,100.656,59.674,103.834,59.498,107.01
		L59.498,107.01L59.498,107.01z"/>
	<path fill="#766252" d="M93.741,101.187c0-0.884,0.176-1.765,0.706-2.646C94.799,99.422,93.741,100.303,93.741,101.187
		L93.741,101.187L93.741,101.187z"/>
	<path fill="#766252" d="M94.623,101.36c-0.707-0.881,0.176-1.764,0.706-2.646C95.682,99.599,94.976,100.656,94.623,101.36
		L94.623,101.36L94.623,101.36z"/>
	<path fill="#766252" d="M58.085,106.834c-0.706-0.176-0.53-0.883-0.706-1.412c-0.176-1.766-0.529-3.707,0.176-4.94
		c-0.176,0.528,0.177,1.059,0.177,1.588l0.353-2.646C58.263,101.894,58.438,104.362,58.085,106.834L58.085,106.834L58.085,106.834z"
		/>
	<path fill="#766252" d="M96.211,99.599c0.353,0.883-0.353,1.588-0.353,2.471c-0.353,0.176-0.353-0.354-0.529-0.354
		C95.506,101.01,95.506,99.949,96.211,99.599L96.211,99.599L96.211,99.599z"/>
	<path fill="#FFE021" d="M82.797,104.539c-0.53-1.233-0.707-2.824-1.059-4.59C82.267,101.539,82.267,102.951,82.797,104.539
		L82.797,104.539L82.797,104.539z"/>
	<path fill="#766252" d="M103.625,99.949c0.177,0.707,0.353,1.766-0.177,2.473c-0.529-0.528-0.529-1.062-0.354-1.588
		C103.271,100.479,103.271,100.127,103.625,99.949L103.625,99.949L103.625,99.949z"/>
	<path fill="#766252" d="M112.274,99.949c-1.942,0.707-2.295,2.825-2.473,4.413c-0.529,0.177-0.883-0.178-1.06-0.706
		c0.177-1.234,1.06-2.296,1.766-3.177C111.038,100.303,111.567,99.949,112.274,99.949L112.274,99.949L112.274,99.949z"/>
	<path fill="#766252" d="M97.094,102.067h-0.529c0-0.528,0-1.411,0.529-1.94C97.624,100.656,97.094,101.539,97.094,102.067
		L97.094,102.067L97.094,102.067z"/>
	<path fill="#766252" d="M57.026,107.01c-0.353,0.529-0.706-0.176-0.706-0.528v-5.824C57.026,102.774,56.85,104.894,57.026,107.01
		L57.026,107.01L57.026,107.01z"/>
	<path fill="#766252" d="M101.685,101.36c-0.354,0.354-0.178-0.526-0.178-0.704C101.685,100.656,101.86,101.01,101.685,101.36
		L101.685,101.36L101.685,101.36z"/>
	<path fill="#766252" d="M104.331,102.774c-0.706-0.354-0.178-1.414,0-2.118C104.508,101.187,104.508,102.067,104.331,102.774
		L104.331,102.774L104.331,102.774z"/>
	<path fill="#766252" d="M55.791,107.362c-1.059-1.764-1.235-4.588-0.353-6.528l0.353,0.526V107.362L55.791,107.362z"/>
	<path fill="#766252" d="M105.392,100.834c0.353,0.881,0,1.588-0.179,2.293C104.685,102.422,104.86,101.36,105.392,100.834
		L105.392,100.834L105.392,100.834z"/>
	<path fill="#766252" d="M102.565,101.715c-0.354,0-0.529-0.528-0.178-0.705C102.39,101.36,102.919,101.539,102.565,101.715
		L102.565,101.715L102.565,101.715z"/>
	<path fill="#766252" d="M106.272,101.187c0.177,0.707,0,1.94-0.354,2.295C105.743,102.774,105.743,101.539,106.272,101.187
		L106.272,101.187L106.272,101.187z"/>
	<path fill="#766252" d="M98.153,101.715v1.062h-0.707c-0.176-0.354,0-1.062,0.178-1.414
		C97.801,101.36,97.978,101.539,98.153,101.715L98.153,101.715L98.153,101.715z"/>
	<path fill="#766252" d="M107.153,101.36c0.179,0.707,0.179,1.591-0.353,2.119C106.626,102.774,106.802,101.894,107.153,101.36
		L107.153,101.36L107.153,101.36z"/>
	<path fill="#766252" d="M108.038,101.715c0.177,0.354,0.354,1.591-0.354,1.767C107.332,102.951,107.508,101.894,108.038,101.715
		L108.038,101.715L108.038,101.715z"/>
	<path fill="#766252" d="M99.212,102.599c0,0.354-0.177,0.707-0.529,0.707c-0.705-0.179-0.177-0.884,0-1.236
		C99.035,101.894,99.212,102.422,99.212,102.599L99.212,102.599L99.212,102.599z"/>
	<path fill="#766252" d="M102.565,105.246v0.176c-0.354-0.353-0.529-0.883-0.354-1.235l0.706-0.705
		C103.271,104.01,102.565,104.717,102.565,105.246L102.565,105.246L102.565,105.246z"/>
	<path fill="#766252" d="M104.685,104.894c0.176,0.883-0.354,1.588-0.529,2.471c-0.706-0.176-0.178-1.412-1.059-1.236
		c-0.354-0.705,0.353-1.41,0.528-2.117C104.153,104.187,104.331,104.362,104.685,104.894L104.685,104.894L104.685,104.894z"/>
	<polygon fill="#766252" points="101.507,104.01 101.685,104.01 101.685,104.539 101.507,104.539 	"/>
	<path fill="#766252" d="M105.743,105.246c-0.354,1.233-0.706,2.823-0.53,4.412c-0.882-0.529-0.528-2.119-0.353-3.179
		C105.213,106.127,105.037,105.069,105.743,105.246L105.743,105.246L105.743,105.246z"/>
	<path fill="#766252" d="M103.978,109.306c-0.705-0.529-1.94-0.529-2.646-1.06C102.39,108.424,103.625,108.246,103.978,109.306
		L103.978,109.306L103.978,109.306z"/>
	<path fill="#FFE021" d="M81.208,115.131c-1.765-1.59-1.941-4.062-2.117-6.53C79.267,110.896,80.326,113.013,81.208,115.131
		L81.208,115.131L81.208,115.131z"/>
	<path fill="#FFE021" d="M81.384,110.541c0.53,1.588,1.413,2.824,1.942,4.235c-0.883-0.354-1.06-1.411-1.766-1.94
		c-0.353-1.235-0.882-2.471-0.706-3.885C81.208,109.306,81.208,110.013,81.384,110.541L81.384,110.541L81.384,110.541z"/>
	<path fill="#FFE021" d="M82.267,114.776c-1.941-1.235-2.294-3.53-2.294-5.473C80.502,111.069,81.384,113.013,82.267,114.776
		L82.267,114.776z"/>
	<path fill="#FFE021" d="M83.679,112.658c0.177-0.882-0.529-1.765-0.353-2.824c0.353,1.59,1.588,3.002,1.941,4.769
		c-0.353,0.352-0.707-1.59-1.059-0.354c-1.765-1.062-1.942-3.179-1.942-4.942C82.444,110.541,82.974,111.601,83.679,112.658
		L83.679,112.658L83.679,112.658z"/>
	<path fill="#766252" d="M58.791,112.129c1.236,3.707,2.648,7.238,3.53,10.769h-0.529c-0.706-1.412-1.059-3-1.765-4.588
		c-0.177,1.764,1.059,3.528,1.059,5.116c-0.882-0.352-0.882-1.588-1.236-2.471c-1.06-3.179-2.471-6.354-2.647-10.062l0.529,1.412
		c0.53-0.707-1.059-2.119,0.353-2.119L58.791,112.129L58.791,112.129z"/>
	<path fill="#FFFFFF" d="M108.567,110.896l0.353,0.174L108.567,110.896z"/>
	<path fill="#FFFFFF" d="M104.153,111.424l1.238,0.529L104.153,111.424z"/>
	<path fill="#FFE021" d="M87.209,113.365c0.354,0,0.882-0.179,0.882-0.707c0.354,0.178,0.707,0.707,1.237,0.707
		c0.176-0.354,0-0.707-0.178-0.884c0.707-0.354,1.589,1.06,2.471,0.354l-0.176-0.707c0-0.176,1.942,1.06,1.588-0.176
		c0.354,0.354,1.06,0.354,1.236,0.354c-0.354,0.528,0.353,0.881,0.883,0.881c0.176-0.177,0.706-0.177,0.529-0.529l1.412-0.176
		c0,0-0.176,0-0.176-0.176c0.529-0.179,1.234-0.179,1.588,0.176c-0.176,0.528-1.059,0.354-1.588,0.883
		c-1.412,0.705-2.824,0.529-4.237,1.059c0.353-0.529,0.177-1.059-0.353-1.059c-1.235,0.176-2.294,0.883-3.53,1.236
		c-0.707-0.354-2.295,0.705-2.471-0.531c-0.707-0.705-0.883-1.764-0.707-2.646C85.798,112.308,86.328,113.188,87.209,113.365
		L87.209,113.365z"/>
	<path fill="#FFFFFF" d="M104.331,112.129c0.177,0.179-0.706-0.176-0.883-0.353L104.331,112.129L104.331,112.129z"/>
	<path fill="#FFE021" d="M92.328,114.776c-1.412,1.236-3.53,1.765-5.295,1.236l-0.353-0.531c0.706-0.176,1.059,0.707,1.765,0.179
		l-0.707-0.707c0.529,0.354,1.06,0.528,1.59,0.354c0.176-0.177-0.178-0.354-0.178-0.354c0.354,0.178,0.883,0,1.412,0.178
		c0.177-0.178,0.177-0.178,0-0.528L92.328,114.776L92.328,114.776z"/>
	<path fill="#766252" d="M58.791,114.953v0.528V114.953z"/>
	<path fill="#FFFFFF" d="M59.144,116.188l0.354,1.06L59.144,116.188z"/>
	<path fill="#FFE021" d="M86.856,116.896c-0.353,1.235-1.941,2.473-3.53,3.002c-0.707,0.528-1.413,0.528-2.295,0.176l-1.059-1.234
		c0.529,0,1.588,1.941,2.118,0.529l-0.706-0.883c0.53,0.354,1.236,0.883,1.942,0.705l-0.353-0.705
		c0.353,0.176,0.706,0.529,1.059,0.354l0.354-0.354l-0.529-0.707c0.353,0.178,0.705,0.531,0.882,0.178
		c0-0.178-0.177-0.178-0.177-0.354C85.268,117.955,85.974,116.896,86.856,116.896L86.856,116.896L86.856,116.896z"/>
	<path fill="#FFFFFF" d="M63.91,118.131l0.177,0.353L63.91,118.131z"/>
	<path fill="#FFFFFF" d="M47.319,121.66c0.529,1.062,2.118,2.473,2.294,4.062c-0.353,3.354-3.53,6.178-6.531,7.061
		c-2.118,0.176-4.766,0.176-6.002-1.941c-0.705-0.883-0.705-2.119-0.705-3.178c-1.236,0-1.589-1.234-1.942-2.117l11.649-6.002
		C46.789,120.072,47.319,120.955,47.319,121.66L47.319,121.66L47.319,121.66z"/>
	<path fill="#FFFFFF" d="M151.636,121.31c-0.354,0.528-0.705,1.233-1.236,1.766c-0.705,0-1.588-0.883-2.293-0.178
		c-0.707,0.528-1.235,1.235-1.235,2.117c0,0.883,0.706,1.59,1.411,1.942c3.884,1.412,5.473-5.474,9.531-2.472
		c0.883,1.06,1.412,2.293,0.883,3.529c-0.705,2.117-1.941,4.412-4.412,4.767h-1.941c0.354-0.884,1.059-1.412,1.588-2.117
		c0.529,0,0.883,0.353,1.413,0.176c1.235-0.53,1.235-1.766,1.589-2.647c0-0.883-0.178-1.588-1.06-2.117
		c-0.706-0.178-1.589-0.529-2.295,0c-2.472,1.234-4.06,4.766-7.236,2.646c-1.06-1.06-1.06-2.646-0.884-3.884
		c1.061-1.94,2.296-4.235,4.59-4.235C150.753,120.603,151.104,120.955,151.636,121.31L151.636,121.31L151.636,121.31z"/>
	<path fill="#FFE021" d="M82.974,121.838c0.176,0.177-1.413-0.883-0.53,0.354c-0.53-0.178-1.06-0.531-1.412-0.883
		C81.738,121.31,82.444,121.131,82.974,121.838L82.974,121.838L82.974,121.838z"/>
	<path fill="#766252" d="M120.041,121.66c-0.354,2.825-1.413,5.825-2.825,8.297c-4.766,2.471-10.414,2.824-15.709,4.06
		c-2.117,0.354-4.236,1.235-6.531,1.235c-0.353-3.178,3.177-1.765,4.766-2.647c5.471-1.06,11.12-1.588,16.237-3.883
		c0.354-0.353,0.883-0.882,0.707-1.412c-0.707,0.354-1.412,0.883-2.295,0.53c-0.354-0.178-0.354-0.354-0.705-0.53
		c-2.119,3.178-5.826-0.705-8.297,2.473c-0.707-0.178-1.766,0-2.295-0.883c-0.883,0.529-1.941,1.94-3,1.233
		c-0.884-1.233,0-2.646,0-3.883c-1.59,1.94-3.354,6.178-6.708,5.295c-1.06-0.528-1.06-1.94-0.883-3c0.353-1.412,1.589-2.823,3.001-3
		c0.529-0.178,1.059,0.177,1.412,0.529c0,0.704,0,1.411-0.53,1.94c-0.353,1.06-2.824,0.705-1.765,2.117
		c3.178-0.352,4.061-4.059,5.473-6.354c0.705-0.529,1.059,1.234,2.117,0.707c0.883,1.41-0.529,2.822-0.529,4.059
		c2.471-1.236,2.118-5.119,5.118-5.648c-0.353,1.767,1.236,3.531,0,5.295c0.706,0.354,1.06-0.705,1.589-1.059
		c-0.176-1.588,0.883-2.824,1.941-3.883c0.529-0.354,1.234-0.529,1.766-0.176c0.707,0.529,0.529,1.412,0.354,2.117
		c-0.354,1.059-2.295,0.883-1.766,2.295c1.06,0.354,1.766-0.178,2.472-0.883c0.706-1.412,1.766-2.648,1.942-4.236
		c0.353-0.176,0.881,0,1.233-0.176c0.178,1.412-1.06,2.822-0.353,4.235c0.177,0.177,0.705-0.178,1.06-0.354
		c0.882-1.412,1.235-3,1.765-4.414C119.334,121.483,119.511,121.483,120.041,121.66L120.041,121.66L120.041,121.66z"/>
	<path fill="#FFE021" d="M80.326,122.543c-0.177,0.354-0.706-0.528-1.059-0.705C79.796,121.66,79.973,122.543,80.326,122.543
		L80.326,122.543L80.326,122.543z"/>
	<polygon fill="#FFE021" points="79.796,122.896 78.208,122.19 79.267,122.543 	"/>
	<path fill="#766252" d="M47.495,124.485c0.529,3.354-3.354,4.589-5.473,5.822c-1.058,0.178-2.823,0.707-3.706-0.352
		c-0.353-0.529-0.883-1.412-0.529-2.117c0.176-1.061,1.059-1.59,1.941-2.119l5.294-2.824
		C46.259,122.543,46.966,123.778,47.495,124.485L47.495,124.485L47.495,124.485z"/>
	<path fill="#766252" d="M94.27,123.426c-0.176,0.529-0.882,1.062-1.059,1.589c-1.589,3.178-2.648,6.709-3.882,9.885
		c-0.53,0.883-1.237,1.412-2.119,1.766c-1.059,0.354-2.471,0.176-3-1.234c-0.177-0.707,0-1.414,0.706-1.94
		c0.529,0,1.059-0.531,1.588-0.179c0.353,0.354,0.706,0.883,0.353,1.236c0,0.883-1.765,0.352-0.882,1.412
		c0.882,0,1.235-0.883,1.589-1.412c1.059-3.178,2.647-6.178,3.354-9.709c-0.354-0.176-0.53-0.529-0.53-0.883
		C91.622,123.778,93.034,123.426,94.27,123.426L94.27,123.426L94.27,123.426z"/>
	<path fill="#FFE021" d="M111.392,124.31c0.354,0.705-0.529,0.883-0.883,1.235C110.332,125.015,110.687,124.133,111.392,124.31
		L111.392,124.31z"/>
	<path fill="#FFE021" d="M105.037,127.662c-0.177,0.354-0.529,0.528-0.884,0.354c0.178-0.884,0.529-1.589,1.06-2.295
		C105.565,126.428,105.213,127.133,105.037,127.662L105.037,127.662L105.037,127.662z"/>
	<path fill="#FFE021" d="M94.976,127.84l-0.353,0.177c-0.177-0.529,0.353-1.06,0.706-1.412
		C95.858,126.957,95.153,127.485,94.976,127.84L94.976,127.84L94.976,127.84z"/>
	<path fill="#FFFFFF" d="M151.636,137.019c-0.177,0.705-0.529,1.588-1.236,1.94l-7.588-6.531c-0.883-0.354-1.942-0.354-2.295,0.707
		c-0.529,0.882,0.353,1.589,0.705,2.296l6.531,6.354c-0.177,0.883-0.707,1.588-1.412,1.766c-2.824-2.824-5.296-5.297-8.119-7.59
		c-0.705-0.178-1.06,0.529-1.412,0.881v1.766c1.94,2.648,4.941,5.119,6.707,7.943l-1.588,1.412
		c-3.002-3.178-6.003-6.531-8.826-9.885c0-0.705,0.883-1.236,1.235-1.588c0.529,0,0.706,0.707,1.235,0.529
		c0.353-1.06,0.705-2.295,1.941-3.002c0.529-0.177,1.234,0,1.764-0.705c0-1.236,0.531-2.472,1.767-3.002
		c1.06-0.177,1.94-0.177,2.824,0.178L151.636,137.019L151.636,137.019z"/>
	<path fill="#FFFFFF" d="M56.673,133.135c0.706,1.06,1.059,2.472,0.706,3.884c-1.941,3-4.766,5.473-7.413,8.297
		c-1.06,0.352-1.236-1.062-1.942-1.412c0.53-1.236,1.942-1.767,2.119-2.826l-3.177-3c-0.883,0.176-1.766,1.236-2.648,1.588
		l-1.412-1.764c2.823-2.471,5.824-5.119,9.178-6.707C54.026,131.017,55.614,131.724,56.673,133.135L56.673,133.135L56.673,133.135z"
		/>
	<path fill="#766252" d="M55.967,134.369c-0.176,2.825-3,3.53-4.588,5.647c-1.235-0.705-2.119-1.94-3.178-3
		c1.942-1.412,3.707-3.529,5.825-4.235C54.908,132.781,55.438,133.664,55.967,134.369L55.967,134.369L55.967,134.369z"/>
	<path fill="#FFFFFF" d="M64.44,139.842c-2.648,3.884-5.296,7.412-8.297,11.119c-0.706-0.353-1.412-0.883-2.118-1.588l8.473-10.942
		C63.205,138.431,63.734,139.135,64.44,139.842L64.44,139.842L64.44,139.842z"/>
	<path fill="#FFFFFF" d="M133.278,142.842c0.883,0.884,0.705,2.474,0.529,3.531c-0.354,0.705-0.883,1.588-1.589,2.117
		c-0.177,0.883,1.06,0.528,1.589,1.235c0.705,1.06,2.117,1.941,3.529,1.588c1.236-0.705,1.412-1.94,1.412-3.354
		c0.177,0,0.354-0.176,0.529,0c0.529,1.059,0.177,2.471-0.705,3.354c-0.883,1.06-2.118,1.767-3.53,1.941
		c-2.294-0.176-3.707-3.707-6.179-2.646c0.529,1.941,1.589,3.354,2.295,4.941l-2.118,1.059c-2.118-4.059-4.413-7.94-6.179-12.178
		c0.531-0.354,1.061-0.883,1.766-0.883c0.354,0.176,0.178,0.705,0.707,0.529c1.412-1.588,3.354-3.531,6.001-2.824
		C132.043,141.606,132.75,142.137,133.278,142.842L133.278,142.842L133.278,142.842z"/>
	<path fill="#FFFFFF" d="M70.088,143.549c-0.176,1.412,2.119,1.06,3,1.767c0.883,0.705,1.942,1.41,2.119,2.471
		c0.353,1.234,0,2.293-0.53,3.176c-1.059,1.59-2.824,1.59-4.236,1.59c0.883,2.117-0.53,4.766,1.765,6.531
		c1.235,0.352,1.941-1.061,3-0.883c-0.176,1.059-1.059,1.234-1.765,1.766c-1.942,0.352-3.707-0.707-4.766-2.119
		c-1.412-2.119,0.882-6.002-2.472-7.061c-1.235,1.412-1.941,3.178-3,4.766c-0.706,0-1.413-0.705-2.118-1.059
		c1.941-4.061,4.765-7.943,7.236-12.002C68.853,142.666,69.559,143.019,70.088,143.549L70.088,143.549L70.088,143.549z"/>
	<path fill="#766252" d="M131.337,144.783c0.883,1.411-0.177,2.647-0.883,3.707c-0.883,0.354-1.412,1.059-2.294,1.235
		c-0.706-1.766-2.824-3.531-1.589-5.295c0.883-0.883,2.117-1.94,3.354-1.061C130.631,143.549,130.983,144.078,131.337,144.783
		L131.337,144.783L131.337,144.783z"/>
	<path fill="#766252" d="M72.912,147.433c0.354,0.705,0,1.588-0.353,2.295c-0.883,1.059-2.118,1.412-3.354,1.233
		c-0.706-0.528-1.588-0.528-2.295-1.233c0.53-1.412,1.589-2.824,2.472-4.062C70.794,145.49,72.207,146.194,72.912,147.433
		L72.912,147.433L72.912,147.433z"/>
	<path fill="#FFFFFF" d="M120.041,149.021c1.06,3.53,2.647,6.707,3.883,10.237c-0.706,0-1.235,0.354-1.765,0.707
		c-0.885-1.062-0.885-2.473-1.766-3.53c-1.59,0.176-3.179,0.705-4.59,1.412c-0.354,1.588,1.94,3.704-0.354,4.235l-1.061,0.176
		c-0.705-4.059-2.646-7.766-2.293-12.18c0.528-1.765,2.293-2.646,3.883-3C117.745,147.078,119.158,147.606,120.041,149.021
		L120.041,149.021L120.041,149.021z"/>
	<path fill="#FFFFFF" d="M81.208,149.549c-0.176,1.591-1.412,3.179-0.529,4.767c0.882,0.707,1.765,1.412,2.648,0.883
		c2.294-1.234,1.765-3.707,2.647-5.471c0.706-0.529,1.412,0.176,2.118,0.176c-0.706,2.647-1.059,6.178-4.235,6.707
		c-0.707,0-1.413,0.354-1.413,1.061c-0.53,1.764-0.706,3.705-1.765,4.941c-0.53-0.354-2.471,0.176-1.765-1.236l1.412-4.941
		c-1.059-1.412-2.824-2.647-2.118-4.59c0.53-1.412,0.706-2.824,1.235-4.236C80.326,147.961,82.09,147.961,81.208,149.549
		L81.208,149.549L81.208,149.549z"/>
	<path fill="#766252" d="M119.688,154.492v0.528c-1.412,0.529-2.647,1.236-4.236,1.412c-0.706-2.295-1.59-4.412-1.59-6.885
		c0.178-0.881,1.061-1.059,1.767-1.234C118.452,148.49,118.806,152.197,119.688,154.492L119.688,154.492L119.688,154.492z"/>
	<path fill="#FFFFFF" d="M108.038,151.49v0.354c-1.941,0.707-3.178,0.179-5.119,0.707c-0.177,1.234-0.354,2.824,0.354,3.884
		l4.061-0.177c0.354,0.353,0.176,0.705,0.176,1.06c-1.588,0.354-3.177,0-4.412,0.705c-0.177,2.119,0.176,4.235,0,6.002l-2.472,0.176
		c0-4.412-0.528-8.473-0.354-12.885c1.767-0.176,4.062-0.354,6.18-0.529C106.979,150.785,108.392,150.256,108.038,151.49
		L108.038,151.49L108.038,151.49z"/>
</g>
</svg>
