<?xml version="1.0" encoding="utf-8"?>
<!-- Generator: Adobe Illustrator 16.0.0, SVG Export Plug-In . SVG Version: 6.00 Build 0)  -->
<!DOCTYPE svg PUBLIC "-//W3C//DTD SVG 1.1//EN" "http://www.w3.org/Graphics/SVG/1.1/DTD/svg11.dtd">
<svg version="1.1" id="Layer_1" xmlns="http://www.w3.org/2000/svg" xmlns:xlink="http://www.w3.org/1999/xlink" x="0px" y="0px"
	 width="175.749px" height="77.645px" viewBox="10.784 56.104 175.749 77.645"
	 enable-background="new 10.784 56.104 175.749 77.645" xml:space="preserve">
<g>
	<path fill="#FFFFFF" d="M122.122,94.542c-3.792-8.71-23.377-8.582-43.74,0.287c-20.363,8.868-34.008,20.9-30.215,29.609
		L34.052,92.451c-3.792-8.71,9.853-20.744,30.216-29.612c20.364-8.867,39.947-8.997,43.74-0.284L122.122,94.542L122.122,94.542z"/>
	<path fill="#009A6E" d="M124.308,100.218c0.045,0.547,0.5,2.29-3.201,2.516c-1.388,0.084-3.014-0.418-5.826-1.457
		c-2.49-0.92-7.072-0.588-6.828,4.221c0.092,1.796,1.218,2.679,3.865,2.708c3.761,0.044,9.246-2.42,12.627-4.131
		c7.916-4.007,16.516,0.93,22.646,6.026c15.145,12.592,32.266,11.605,38.942,10.325l-10.116-17.42c0,0-13.697,0.976-26.85-10.286
		c-3.922-3.359-7.424-6.402-14.563-9.006c-7.414-2.704-17.705,0.458-17.705,0.458S124.267,99.672,124.308,100.218L124.308,100.218z"
		/>
	<path fill="#EE2531" d="M110.579,68.458c-3.793-8.71-23.376-8.583-43.74,0.286c-20.366,8.869-34.008,20.9-30.216,29.61
		l-2.572-5.903c-3.792-8.71,9.853-20.744,30.216-29.612c20.364-8.867,39.947-8.997,43.74-0.284L110.579,68.458L110.579,68.458z"/>
	<path fill="#009A6E" d="M50.488,129.319c-2.968-6.34,9.819-19.952,30.183-28.821c20.364-8.869,39.948-8.997,43.74-0.286
		l-2.571-5.906c-3.793-8.71-23.377-8.581-43.74,0.286c-20.364,8.869-34.058,20.831-30.174,29.267L50.488,129.319L50.488,129.319z"/>
	<path fill="#F3715C" d="M60.494,112.537l6.104,12.019c0,0-1.394-1.932-3.802-1.951c-2.119-0.02-4.454,1.121-5.484,2.928
		c-2.288,4.015-5.91,5.542-6.889,3.671C48.544,125.61,52.949,118.522,60.494,112.537L60.494,112.537z"/>
	<path fill="#8FC6B0" d="M103.832,94.058c4.983-0.53,9.677-0.472,13.481,0.714c3.927,1.224,6.931,3.445,7.088,5.661
		c0.129,1.786-1.758,2.375-3.741,2.396c-1.392,0.014-3.072-0.813-5.961-1.622c-2.56-0.713-4.351-0.045-5.274,1.035
		c-1.499,1.75-0.783,4.339-0.783,4.339L103.832,94.058L103.832,94.058z"/>
	<path fill="#009A6E" d="M103.989,66.712c0.519,0.036,1.238,0.233,1.781,0.628c1.838,1.348,1.812,3.131-0.037,2.974
		c-1.948-0.239-3.612-2.116-3.037-3.229C102.938,66.692,103.47,66.676,103.989,66.712L103.989,66.712z"/>
	<path fill="#009A6E" d="M100.321,66.224c0,0,1.142,2.627,1.619,3.638c1.514,3.473,2.944,6.794,4.451,10.252
		c0.547,1.259,1.041,2.631,1.618,3.36c0.263,0.333,0.882,0.739,0.882,0.739c-0.623-0.092-5.188-0.215-5.188-0.215
		c0.514-0.706-0.375-2.887-1.026-4.286c-1.371-3.15-5.545-12.52-5.545-12.52l-0.922-1.198L100.321,66.224L100.321,66.224z"/>
	<path fill="#009A6E" d="M108.015,71.621c0.225,0.513,4.98,11.471,4.98,11.471c0.162,0.372,0.388,1.019,0.506,1.196
		c0.311,0.467,0.619,0.915,1.352,1.38l0.012-0.004c-1.331-0.302-4.18-1.448-5.432-1.529l0.271-0.465
		c-0.062-0.683-4.052-9.435-5.106-11.857c0,0-0.293-1.065-1.18-1.568C103.417,70.244,106.591,71.308,108.015,71.621L108.015,71.621z
		"/>
	<path fill="#009A6E" d="M52.395,82.528c0.097,1.949,1.486,4.234,1.486,4.234c0.534,0.895,5.004,8.624,5.004,8.624
		c0.376,0.566,1.714,3.659,2.408,3.37l0.352,0.083c-1.299,0.982-3.791,2.737-4.311,3.143c0.124-1.105-0.45-2.567-1.134-3.799
		c-1.005-1.758-4.035-6.887-4.035-6.887c-0.025,0.013,1.724,15.094,1.724,15.094l-10.241-8.072c1.197,3.023,3.491,8.908,3.491,8.908
		c0.675,1.867,0.723,2.351,1.521,3.41c0.21,0.278,0.277,0.073,0.277,0.073c-0.769,1.021-2.447,4.591-2.447,4.591
		c0.133-0.586-0.103-1.285-0.397-2.037c-0.24-0.589-4.905-12.717-6.143-15.814c-0.206-0.448-0.401-0.805-0.655-1.088
		c-0.153-0.1-0.29-0.211-0.415-0.347c0.193-0.244,3.604-4.437,3.77-4.64c0.514,1.468,7.095,6.651,7.156,6.655
		c-0.478-3.409-0.776-7.729-1.023-11.299c-0.106-0.72-0.428-1.031-0.442-1.056C50.388,83.933,52.37,82.535,52.395,82.528
		L52.395,82.528z"/>
	<path fill="#009A6E" d="M66.464,77.754c0,0,1.175,3.117,1.151,3.189c0.006,0.031-0.792-0.033-0.789-0.005
		c-2.926,1.22-0.467,5.24,0.445,7.408c0.334,0.866,1.563,3.828,1.941,4.41c0.268,0.567,0.692,0.773,0.979,0.919
		c-1.018,0.484-2.748,1.393-3.775,2.113c0.121-0.404,0.104-0.785-0.247-1.609c-1.693-3.982-3.351-7.777-5.076-11.74
		c-0.129-0.295-0.218-0.926-0.753-1.044c0.633-0.472,2.266-1.627,3.116-2.075c0.171,0.394,0.543,1.178,0.556,1.204
		c0.057-0.041,0.135-1.312,1.12-2.24C65.652,77.833,66.462,77.754,66.464,77.754L66.464,77.754z"/>
	<path fill="#009A6E" d="M59.414,82c-0.089,0.485,0.673,2.172,1.058,3.148c1.157,2.654,2.239,5.208,3.397,7.87
		c0.191,0.531,1.208,2.424,2.046,3.08c-0.728,0.351-3.516,2.237-3.95,2.547c0.089-1.539-0.549-2.63-0.979-3.807
		c-1.309-3.005-2.519-5.916-3.826-8.917c-0.128-0.293-0.211-0.502-0.365-0.758c-0.277-0.553-0.323-0.571-0.666-0.642
		C56.841,83.984,59.083,82.18,59.414,82L59.414,82z"/>
	<path fill="#009A6E" d="M70.87,75.287c1.427-0.591,3.945-0.422,5.356,1.427c0.939,1.214,5.606,11.938,5.606,11.938
		c0.008,0.113-2.945,1.417-2.945,1.417s-0.448-0.919-0.462-0.948c-0.023,0.009-0.051,0.006-0.075,0.016
		c-1.654,3.149-5.059,3.804-7.292,0.418c-0.464-0.784-0.902-1.754-0.999-2.739c-0.066-1.226,0.251-2.304,0.82-3.302
		c0.667-1.144,3.125-3.424,2.973-4.798c-0.245-1.398-1.324-1.325-2.623-0.924s-2.993,3.057-2.993,3.057
		c-0.256-0.873-0.799-2.196-0.811-2.976C67.5,76.933,69.445,75.878,70.87,75.287L70.87,75.287z M75.151,82.39
		c0,0-2.943,3.443-1.565,5.356c0.476,0.594,1.428,0.947,2.531-0.128c1.102-1.075,0.482-2.179-0.146-3.62
		C75.7,83.476,75.151,82.39,75.151,82.39L75.151,82.39z"/>
	<path fill="#009A6E" d="M84.994,72.107c0.386,0.334,0.928,2.175,1.208,2.652c-0.048,0.013-1.965-0.831-2.791-0.734
		c-0.828,0.096-2.048,0.403-2.276,2.15c-0.352,2.702,2.122,8.008,4.827,8.852c0.631,0.196,1.518,0.1,1.922-0.087
		c0.636-0.295,1.581-1.621,1.783-2.433c0.039-0.157,0.154-0.387,0.091-0.567c0.381,0.268,1.091,3.147,1.091,3.147
		s-0.193,0.686-0.773,1.123c-1.865,1.406-4.371,1.794-6.607,0.521c-4.141-2.357-6.608-8.592-4.354-12.453
		c0.501-0.862,1.309-1.692,2.316-2.041C82.439,71.887,84.502,71.678,84.994,72.107L84.994,72.107z"/>
	<path fill="#009A6E" d="M90.902,70.439c1.675-0.633,2.852-0.364,4.329,0.227c4.661,1.865,7.956,9.787,5.069,12.763
		c-0.652,0.681-1.73,1.271-2.195,1.42c-4.073,1.31-8.144-2.491-9.632-6.265c-0.769-1.941-0.7-4.026-0.02-5.646
		C89.012,71.597,89.675,71.065,90.902,70.439L90.902,70.439z M92.047,72.557c-0.481,0.316-0.662,0.624-0.801,1.157
		c-0.731,2.724,1.993,8.189,4.703,8.901c0.495,0.131,0.758,0.07,1.29-0.105c0.348-0.179,0.523-0.394,0.628-0.505
		c0.302-0.346,0.336-0.757,0.399-1.217c0.336-2.457-2.213-7.469-4.448-8.257C93.204,72.314,92.912,72.126,92.047,72.557
		L92.047,72.557z"/>
	<path fill="#009A6E" d="M58.454,80.033c0.409,1.067-0.098,2.296-1.131,2.744c-1.035,0.45-2.205-0.052-2.612-1.119
		c-0.409-1.067,0.097-2.296,1.131-2.746C56.875,78.465,58.045,78.966,58.454,80.033L58.454,80.033z"/>
	<path fill="#EE2531" d="M49.764,127.771c0.386,0.814,0.638,1.381,0.753,1.547c1.119,1.586,4.397,0.304,6.818-3.812
		c1.485-2.525,4.35-3.015,6.101-2.906c1.752,0.106,2.625,0.975,3.118,1.885c0.409,0.758,0.924,3.384-3.357,6.093
		c-4.281,2.708-7.525,1.659-10.496,1.31c-3.401-0.398-9.444-4.32-18.948-6.805c-11.789-3.082-22.969,8.667-22.969,8.667
		l0.005-23.198c0,0,12.522-7.314,24.264-4.438c2.882,0.707,5.852,2.119,5.852,2.119S47.44,122.853,49.764,127.771L49.764,127.771z"
		/>
</g>
</svg>
