<?xml version="1.0" encoding="utf-8"?>
<!-- Generator: Adobe Illustrator 16.0.0, SVG Export Plug-In . SVG Version: 6.00 Build 0)  -->
<!DOCTYPE svg PUBLIC "-//W3C//DTD SVG 1.1//EN" "http://www.w3.org/Graphics/SVG/1.1/DTD/svg11.dtd">
<svg version="1.1" id="Layer_1" xmlns="http://www.w3.org/2000/svg" xmlns:xlink="http://www.w3.org/1999/xlink" x="0px" y="0px"
	 width="175.748px" height="133.957px" viewBox="8.504 29.4 175.748 133.957" enable-background="new 8.504 29.4 175.748 133.957"
	 xml:space="preserve">
<g>
	<path fill="#006DB1" d="M30.914,163.354c-8.709,0-20.257-8.002-20.257-8.002c-1.184-0.758-2.153-2.559-2.153-4.002V41.405
		c0-1.444,0.969-3.243,2.153-3.999c0,0,11.548-8.006,20.257-8.006c8.71,0,16.874,1.647,22.805,6.502
		c5.929-4.855,12.128-6.502,20.837-6.502c8.71,0,15.756,2.05,21.823,6.874c6.063-4.823,13.11-6.874,21.82-6.874
		c8.711,0,14.907,1.647,20.838,6.502c5.929-4.855,14.094-6.502,22.805-6.502c8.712,0,20.259,8.006,20.259,8.006
		c1.183,0.756,2.151,2.555,2.151,3.999v109.945c0,1.444-0.97,3.246-2.151,4.002c0,0-11.547,8.004-20.259,8.004
		c-8.711,0-16.876-1.646-22.805-6.5c-5.931,4.854-12.011,6.5-20.838,6.5c-8.71,0-15.757-2.051-21.82-6.875
		c-6.067,4.824-13.112,6.875-21.823,6.875c-8.708,0-14.908-1.646-20.837-6.5C47.788,161.71,39.625,163.354,30.914,163.354
		L30.914,163.354z"/>
	<path fill="#00B2E5" d="M33.649,157.251c-8.347,0-19.412-6.467-19.412-6.467c-1.134-0.698-2.064-2.362-2.064-3.695V45.527
		c0-1.332,0.93-2.995,2.064-3.693c0,0,11.065-6.469,19.412-6.469c8.345,0,15.098,3.284,20.908,7.741
		c5.812-4.457,12.565-7.741,20.911-7.741c8.346,0,15.098,3.284,20.911,7.741c5.812-4.457,12.562-7.741,20.908-7.741
		s15.099,3.284,20.911,7.741c5.811-4.457,12.562-7.741,20.908-7.741s19.41,6.469,19.41,6.469c1.135,0.698,2.064,2.361,2.064,3.693
		v101.562c0,1.333-0.93,2.997-2.064,3.695c0,0-11.063,6.467-19.41,6.467s-15.099-3.282-20.908-7.736
		c-5.812,4.454-12.564,7.736-20.911,7.736s-15.099-3.282-20.908-7.736c-5.813,4.454-12.564,7.736-20.911,7.736
		c-8.346,0-15.098-3.282-20.911-7.736C48.747,153.969,41.995,157.251,33.649,157.251L33.649,157.251z"/>
	<path fill="#AFD8E4" d="M157.074,40.902c-7.113,0-14.119,2.92-20.238,7.679c-6.123-4.759-13.128-7.679-20.242-7.679
		c-7.116,0-14.118,2.92-20.241,7.679c-6.121-4.759-13.125-7.679-20.239-7.679c-7.116,0-14.119,2.92-20.241,7.679
		c-6.123-4.759-13.125-7.679-20.24-7.679c-7.116,0-14.119,2.92-20.241,7.679v95.47c6.122,4.759,13.125,7.679,20.241,7.679
		c7.114,0,14.117-2.92,20.24-7.679c6.122,4.759,13.125,7.679,20.241,7.679c7.114,0,14.119-2.92,20.239-7.679
		c6.123,4.759,13.125,7.679,20.241,7.679c7.114,0,14.119-2.92,20.242-7.679c6.119,4.759,13.125,7.679,20.238,7.679
		c7.116,0,14.118-2.92,20.241-7.679v-95.47C171.192,43.822,164.19,40.902,157.074,40.902L157.074,40.902z"/>
	<path fill="#FFFFFF" d="M177.341,138.575c-6.121,4.76-13.126,7.68-20.242,7.68c-7.113,0-14.119-2.92-20.238-7.68
		c-6.123,4.76-13.125,7.68-20.241,7.68c-7.114,0-14.119-2.92-20.239-7.68c-6.123,4.76-13.125,7.68-20.241,7.68
		c-7.116,0-14.119-2.92-20.239-7.68c-6.124,4.76-13.127,7.68-20.241,7.68c-7.117,0-14.12-2.92-20.242-7.68v-84.52
		c6.122-4.759,13.125-7.676,20.242-7.676c7.114,0,14.117,2.917,20.241,7.676c6.12-4.759,13.123-7.676,20.239-7.676
		c7.116,0,14.119,2.917,20.241,7.676c6.12-4.759,13.125-7.676,20.239-7.676c7.116,0,14.118,2.917,20.241,7.676
		c6.119-4.759,13.125-7.676,20.238-7.676c7.116,0,14.12,2.917,20.242,7.676V138.575L177.341,138.575z"/>
	<path fill="#FFFFFF" d="M122.242,50.355c-0.005-0.006-2.699-3.807-2.699-3.807l-0.028-0.04l-0.031-0.038
		c-1.532-1.872-2.377-2.339-5.021-2.777c-2.097-0.345-3.925-0.587-5.755-0.763c-3.38-0.323-6.511-0.509-12.505-0.509
		c-5.949,0-9.303,0.202-12.505,0.509c-1.83,0.176-3.66,0.418-5.755,0.763c-2.644,0.438-3.489,0.905-5.021,2.777l-0.032,0.038
		l-0.029,0.04l-2.695,3.801c-0.416,0.594-0.836,1.345-0.836,2.457c0,1.112,0.42,1.862,0.832,2.449
		c0.004,0.007,2.699,3.808,2.699,3.808l0.029,0.04l0.032,0.038c1.532,1.875,2.377,2.342,5.021,2.777
		c2.095,0.348,3.923,0.588,5.755,0.763c3.202,0.307,6.556,0.51,12.505,0.51s9.303-0.203,12.505-0.51
		c1.832-0.175,3.66-0.415,5.755-0.763c2.645-0.436,3.489-0.902,5.021-2.777l0.031-0.038l0.028-0.04l2.694-3.801
		c0.416-0.594,0.837-1.343,0.837-2.456C123.074,51.694,122.653,50.943,122.242,50.355L122.242,50.355z"/>
	<path fill="#EE2531" d="M122.815,60.268v-0.374h0.23c0.125,0,0.297,0.012,0.297,0.172c0,0.17-0.088,0.202-0.236,0.202H122.815
		L122.815,60.268z M122.815,60.53h0.156l0.356,0.646h0.39l-0.394-0.673c0.204-0.015,0.37-0.118,0.37-0.405
		c0-0.351-0.234-0.466-0.633-0.466h-0.578v1.545h0.33V60.53H122.815z M124.495,60.407c0-0.908-0.682-1.438-1.441-1.438
		c-0.763,0-1.439,0.529-1.439,1.438c0,0.907,0.678,1.435,1.439,1.435C123.813,61.842,124.495,61.314,124.495,60.407L124.495,60.407z
		 M124.081,60.407c0,0.661-0.471,1.105-1.027,1.105v-0.005c-0.568,0.005-1.027-0.439-1.027-1.101c0-0.66,0.459-1.104,1.027-1.104
		C123.61,59.304,124.081,59.747,124.081,60.407L124.081,60.407z"/>
	<path fill="#EE2531" d="M108.571,44.345c1.955,0.188,3.771,0.438,5.658,0.75c2.274,0.375,2.838,0.667,4.153,2.277l2.695,3.798
		c0.31,0.442,0.573,0.908,0.573,1.637c0,0.727-0.264,1.192-0.573,1.635l-2.695,3.8c-1.315,1.608-1.879,1.899-4.153,2.275
		c-1.889,0.313-3.703,0.565-5.658,0.751c-3.245,0.309-6.545,0.502-12.37,0.502c-5.829,0-9.124-0.193-12.372-0.502
		c-1.955-0.187-3.769-0.438-5.658-0.751c-2.276-0.376-2.837-0.667-4.154-2.275l-2.695-3.8c-0.312-0.443-0.576-0.908-0.576-1.635
		c0-0.729,0.265-1.194,0.576-1.637l2.695-3.798c1.317-1.61,1.877-1.901,4.154-2.277c1.889-0.312,3.703-0.562,5.658-0.75
		c3.248-0.312,6.543-0.505,12.372-0.505C102.25,43.84,105.326,44.033,108.571,44.345L108.571,44.345z M83.43,46.53
		c-2.402,0.327-2.882,0.556-4.196,2.167l-1.724,2.428c-0.312,0.442-0.576,1.05-0.576,1.681c0,0.629,0.265,1.236,0.576,1.679
		l1.724,2.431c1.314,1.608,1.794,1.837,4.196,2.165c2.917,0.397,8.043,0.751,12.771,0.751c4.728,0,9.854-0.354,12.771-0.751
		c2.402-0.327,2.881-0.556,4.197-2.165l1.725-2.431c0.309-0.442,0.575-1.049,0.575-1.679c0-0.631-0.268-1.239-0.575-1.681
		l-1.725-2.428c-1.316-1.61-1.795-1.839-4.197-2.167c-2.975-0.405-7.875-0.751-12.771-0.751
		C91.473,45.779,86.347,46.132,83.43,46.53L83.43,46.53z"/>
	<path fill="#006DB1" d="M84.133,55.735c0.093,0.176,0.126,0.28,0.142,0.445h2.602c-0.156-0.165-0.236-0.269-0.329-0.445
		l-1.899-3.484l1.972-2.658c0.129-0.175,0.254-0.329,0.39-0.447h-2.287c-0.051,0.165-0.106,0.272-0.238,0.447l-1.764,2.311
		l-0.004-2.311c0-0.175,0.024-0.282,0.096-0.447h-2.347c0.072,0.165,0.094,0.272,0.094,0.447v6.142c0,0.176-0.022,0.28-0.094,0.445
		h2.347c-0.072-0.165-0.096-0.269-0.096-0.445v-2.533L84.133,55.735L84.133,55.735z"/>
	<path fill="#006DB1" d="M87.581,49.593c0-0.175-0.023-0.282-0.095-0.447h3.518c1.021,0,2.425,0.262,2.425,1.899
		c0,1.256-0.789,1.812-1.505,1.933l1.642,2.757c0.093,0.176,0.173,0.28,0.331,0.445h-2.65c-0.016-0.165-0.049-0.269-0.143-0.445
		l-1.366-2.226v2.226c0,0.176,0.023,0.28,0.094,0.445h-2.346c0.071-0.165,0.095-0.269,0.095-0.445V49.593L87.581,49.593z
		 M89.738,52.346H90.5c0.494,0,0.834-0.251,0.834-0.814s-0.34-0.814-0.834-0.814h-0.761L89.738,52.346L89.738,52.346z"/>
	<path fill="#006DB1" d="M106.093,49.159v1.921c-0.164-0.071-0.271-0.093-0.445-0.093h-2.211v1.219h2.586V53.8
		c-0.164-0.069-0.27-0.093-0.445-0.093h-2.141v2.028c0,0.176,0.02,0.28,0.088,0.445h-2.344c0.068-0.165,0.094-0.269,0.094-0.445
		v-6.142c0-0.175-0.024-0.282-0.094-0.447L106.093,49.159L106.093,49.159z"/>
	<path fill="#006DB1" d="M106.584,49.159v1.921c0.165-0.071,0.271-0.093,0.444-0.093h1.462v4.748c0,0.176-0.019,0.28-0.091,0.445
		h2.322c-0.07-0.165-0.089-0.269-0.089-0.445v-4.748h1.39c0.177,0,0.283,0.022,0.445,0.093v-1.921H106.584L106.584,49.159z"/>
	<path fill="#006DB1" d="M97,53.284h-0.438l0.58-2.426l0.58,2.426H97L97,53.284z M98.076,54.774l0.229,0.96
		c0.047,0.176,0.051,0.28,0.023,0.445h2.462c-0.112-0.165-0.164-0.269-0.211-0.445l-1.769-6.151
		c-0.062-0.176-0.061-0.273-0.047-0.438h-3.001c0.013,0.165,0.018,0.262-0.044,0.438l-1.886,6.151
		c-0.046,0.176-0.097,0.28-0.211,0.445h2.333c-0.026-0.165-0.022-0.269,0.024-0.445l0.229-0.96H98.076L98.076,54.774z"/>
	<path fill="#EE2531" d="M153.515,112.694v-0.371h0.23c0.125,0,0.296,0.011,0.296,0.171c0,0.171-0.087,0.2-0.235,0.2H153.515
		L153.515,112.694z M153.515,112.957h0.155l0.354,0.647h0.393l-0.395-0.676c0.205-0.016,0.371-0.117,0.371-0.402
		c0-0.354-0.234-0.467-0.634-0.467h-0.577v1.545h0.33v-0.647H153.515z M155.192,112.834c0-0.907-0.68-1.435-1.44-1.435
		c-0.763,0-1.442,0.526-1.442,1.435s0.681,1.438,1.442,1.438C154.513,114.271,155.192,113.742,155.192,112.834L155.192,112.834z
		 M154.776,112.834c0,0.663-0.469,1.104-1.024,1.104v-0.002c-0.569,0.002-1.026-0.439-1.026-1.104c0-0.66,0.457-1.102,1.026-1.102
		C154.308,111.733,154.776,112.174,154.776,112.834L154.776,112.834z"/>
	<path fill="#EE2531" d="M105.365,91.437c0.47-0.273,0.808,1.294,0.799,2.313c-0.007,0.636-0.47,2.893-0.644,3.556l-5.578,21.434
		l6.262-1.16l1.613-5.92c0.518-1.674,2.158-4.373,2.723-5.251c2.15-3.345,4.837-4.113,4.229-2.144l-2.896,10.536
		c-0.571,2.123,0.645,3.132,2.429,3.021c1.763-0.111,4.857-1.278,7.269-3.202l0.324-0.991c-0.926,0.636-1.75,0.896-2.276,0.958
		c-0.954,0.116-1.417-0.566-1.056-1.809l2.904-10.463c0.562-2.094-0.611-3.315-2.396-3.205c-1.26,0.08-6.131,0.346-9.719,6.951
		l4.192-16.061C112.216,90.28,109.086,91.012,105.365,91.437L105.365,91.437z"/>
	<path fill="#EE2531" d="M141.974,113.339c1.805-0.113,4.058-3.193,5.646-6.916c1.588-3.725,1.636-6.667,0.104-6.57
		c-1.531,0.094-4.18,3.152-5.646,6.914C140.608,110.532,140.364,113.437,141.974,113.339L141.974,113.339z M139.563,117.013
		c-0.473,1.842-0.748,3.651,1.24,4.27l-10.975,1.71c1.786-1.003,2.688-2.916,3.181-4.586l4.193-16.771
		c0.729-2.612-0.202-3.159-1.367-3.52l0.021-0.08c2.381-0.271,6.41-0.985,8.927-1.513l-1.337,4.99
		c2.535-3.456,5.9-5.403,8.464-5.613c3.608-0.291,4.479,3.652,2.514,8.961c-2.215,5.984-6.085,9.334-9.759,10.361
		c-1.67,0.469-3.422,0.066-4.561-1.503L139.563,117.013L139.563,117.013z"/>
	<path fill="#EE2531" d="M132.546,113.935c-2.411,1.926-5.507,3.092-7.268,3.201c-1.786,0.11-3-0.896-2.43-3.021l2.969-11.001
		c0.731-2.613-0.199-3.158-1.364-3.521l0.021-0.078c2.379-0.271,6.41-0.986,8.924-1.515l-3.857,14.093
		c-0.363,1.241,0.1,1.924,1.055,1.809c0.525-0.062,1.352-0.322,2.276-0.959L132.546,113.935L132.546,113.935z M130.459,96.665
		c2.082-0.698,3.653-2.077,3.437-3.572c-0.217-1.492-2.022-1.739-4.106-1.041c-2.084,0.696-3.656,2.077-3.438,3.569
		C126.569,97.112,128.376,97.362,130.459,96.665L130.459,96.665z"/>
	<path fill="#EE2531" d="M65.005,114.556c-0.642,2.131-1.292,4.414-1.41,6.762c-0.202,4.014,1.286,6.252,4.119,6.197
		c5.989-0.119,10.997-8.394,14.155-14.887c-0.667,3.721-1.432,5.132-1.628,8.995c-0.18,3.558,1.628,4.964,3.925,4.765
		c4.158-0.367,8.811-4.729,12.359-11.068c2.349-4.196,6.412-13.854,6.445-19.507c0.016-2.954-0.238-5.19-2.484-5.146
		c-1.869,0.038-3.152,2.182-3.279,4.681c-0.091,1.817,0.343,2.714,0.909,4.216c0.565,1.502,0.561,2.588,0.268,4.465
		c-0.258,1.642-1.957,6.166-3.614,9.268c-2.264,4.232-5.252,8.037-6.4,7.883c-0.818-0.105-0.865-0.607-0.785-2.199
		c0.16-3.18,1.861-9.373,2.664-12.565l3.841-15.069l-7.857,1.441l-1.714,7.031c-1.512,6.183-3.859,11.457-5.936,14.469
		c-1.254,1.818-4.714,7.722-6.48,7.77c-1.039,0.029-0.858-0.967-0.823-1.646c0.08-1.59,1.428-6.08,1.886-7.754l2.504-9.026
		c0.576-1.903,1.23-4.262,1.33-6.229c0.16-3.18-1.192-4.969-3.383-4.925c-2.727,0.056-4.604,1.684-6.202,3.313
		c-2.8,2.851-5.275,6.86-5.275,6.86l0.91,1.311c0,0,4.121-6.516,5.726-6.547c0.374-0.005,0.561,0.52,0.539,0.974
		c-0.047,0.909-0.429,2.128-0.632,2.964L65.005,114.556L65.005,114.556z"/>
	<path fill="#FFFFFF" d="M69.577,101.579c0.1-0.417,0.251-0.951,0.378-1.473c0.142-0.588,0.26-1.188,0.285-1.7
		c0.018-0.365-0.042-0.78-0.216-1.14c-0.132-0.27-0.394-0.625-0.823-0.766c0.183-0.068,0.378-0.113,0.583-0.117
		c0.688-0.014,1.079,0.479,1.248,0.827c0.173,0.36,0.233,0.776,0.215,1.142c-0.026,0.512-0.143,1.111-0.285,1.698
		c-0.126,0.522-0.278,1.058-0.377,1.476L66.9,114.765c-0.642,2.135-1.259,4.314-1.37,6.522c-0.18,3.594,1.03,5.095,2.902,5.196
		c-0.238,0.033-0.476,0.054-0.714,0.059c-2.037,0.042-3.384-1.423-3.193-5.201c0.112-2.206,0.725-4.388,1.368-6.521L69.577,101.579
		L69.577,101.579z"/>
	<path fill="#FFFFFF" d="M99.392,100.165c-0.16-0.521-0.92-2.262-1.08-2.871c-0.143-0.54-0.218-1.114-0.178-1.923
		c0.12-2.371,1.272-3.696,2.324-3.716c0.191-0.004,0.357,0.013,0.497,0.056c-0.886,0.362-1.829,1.792-1.933,3.785
		c-0.039,0.808-0.08,1.621,0.08,2.405C99.229,98.521,99.241,99.157,99.392,100.165L99.392,100.165z"/>
	<path fill="#FFFFFF" d="M84.626,108.112c-0.834,3.652-1.557,7.887-1.839,9.109c-0.287,1.25-0.518,2.518-0.611,4.371
		c-0.145,2.869,1.112,3.738,2.797,3.768c-0.265,0.031-0.533,0.05-0.805,0.055c-1.786,0.037-3.149-0.785-2.998-3.768
		c0.093-1.854,0.322-3.123,0.611-4.373c0.275-1.205,0.905-4.463,1.508-7.312c1.365-6.461,3.693-16.526,3.693-16.526l1.048-0.22
		C88.031,93.218,86.085,101.729,84.626,108.112L84.626,108.112z"/>
	<path fill="#EE2531" d="M87.926,83.635c0.471-1.732,1.321-3.476,2.108-4.762c1.55-2.53,3.131-3.062,4.417-3.075
		c1.159-0.014,2.328-1.154,2.56-2.384c0.229-1.23-0.534-2.046-1.697-1.957c-1.261,0.094-3.756,1.306-5.967,6.527l1.611-6.142
		c-2.513,0.527-6.442,1.234-8.825,1.507l-0.02,0.079c1.165,0.36,2.097,0.907,1.367,3.521l-3.764,14.13l6.617-1.234L87.926,83.635
		L87.926,83.635z"/>
	<path fill="#EE2531" d="M140.002,84.676c-2.411,1.927-5.507,3.094-7.267,3.203c-1.784,0.109-3-0.898-2.428-3.022l5.1-20.222
		c0.729-2.615-0.202-3.16-1.365-3.52l0.018-0.08c2.383-0.271,6.482-1.237,8.996-1.764l-6.059,23.563
		c-0.364,1.241,0.102,1.924,1.055,1.809c0.526-0.062,1.352-0.323,2.277-0.958L140.002,84.676L140.002,84.676z"/>
	<path fill="#EE2531" d="M128.881,81.342c-1.711,2.476-4.731,3.517-6.22,3.418c-2.202-0.143-2.799-2.698-1.605-6.436
		c1.188-3.738,3.963-7.188,5.703-7.296c1.459-0.091,0.848,1.168,0.398,2.282c-0.543,1.341,0.281,2.511,1.677,2.424
		c1.808-0.111,2.293-1.321,2.604-2.831c0.584-2.804-1.613-3.622-3.938-3.478c-5.56,0.345-10.972,4.719-12.981,10.25
		c-1.906,5.251,0.166,9.298,4.666,9.02c3.594-0.224,7.619-3.128,10.057-6.965L128.881,81.342L128.881,81.342z"/>
	<path fill="#EE2531" d="M106.535,76.873c0.717-2.731,0.696-4.132-0.563-4.054c-1.902,0.118-4.046,3.046-5.658,6.725
		c-1.612,3.681-1.689,6.585-0.176,6.492c1.398-0.087,4.905-3.649,5.924-7.505L106.535,76.873L106.535,76.873z M113.481,86.355
		c-2.436,1.988-5.354,3.051-7.146,3.16c-1.783,0.111-2.997-0.896-2.426-3.02l0.699-2.675c-2.426,3.727-6.074,6.126-8.64,6.333
		c-3.607,0.293-4.514-3.663-2.513-8.96c2.068-5.468,7.423-10.049,10.994-10.271c1.558-0.096,2.607,0.446,3.258,1.601l0.165-0.778
		l6.5-1.194l-3.812,14.048c-0.362,1.243,0.135,1.799,1.09,1.686c0.549-0.067,1.162-0.196,2.16-0.912L113.481,86.355L113.481,86.355z
		"/>
	<path fill="#EE2531" d="M154.563,71.246c0.263-1.163-0.25-1.846-1.039-1.796c-0.895,0.056-2.363,1.067-3.479,2.844
		c-0.736,1.176-1.804,3.18-2.314,4.928C152.476,76.841,154.276,72.512,154.563,71.246L154.563,71.246z M149.489,83.117
		c1.486,0.096,4.51-0.945,6.22-3.419l0.36,0.389c-2.438,3.836-6.463,6.741-10.057,6.963c-4.5,0.28-6.574-3.767-4.666-9.02
		c2.012-5.531,7.422-9.903,12.98-10.25c2.326-0.146,5.459,0.484,5.206,3.402c-0.233,2.682-3.652,7.047-12.191,7.446
		C146.763,81.332,147.679,83,149.489,83.117L149.489,83.117z"/>
	<path fill="#EE2531" d="M78.993,88.519c-2.411,1.924-5.506,3.091-7.268,3.201c-1.783,0.111-2.997-0.896-2.428-3.021l2.971-11.001
		c0.729-2.613-0.202-3.16-1.367-3.521l0.02-0.079c2.382-0.271,6.414-0.987,8.927-1.514l-3.86,14.092
		c-0.362,1.241,0.102,1.924,1.054,1.809c0.527-0.065,1.354-0.323,2.276-0.961L78.993,88.519L78.993,88.519z M76.907,71.249
		c2.084-0.698,3.654-2.077,3.436-3.569c-0.216-1.495-2.023-1.744-4.107-1.045c-2.084,0.698-3.654,2.079-3.438,3.571
		C73.015,71.697,74.824,71.947,76.907,71.249L76.907,71.249z"/>
	<path fill="#EE2531" d="M53.815,75.483c0.36-1.726,0.674-3.414,0.696-5.264c0.044-3.676-1.11-5.76-3.854-5.58
		c-4.988,0.332-8.17,5.533-10.614,11.179c0.552-2.137,1.25-4.856,1.276-5.419c0.163-3.18-1.189-4.968-3.382-4.923
		c-2.727,0.053-5.731,2.458-7.83,4.919c-0.796,0.923-3.654,5.404-3.654,5.404l0.912,1.308c0,0,4.128-6.663,5.731-6.694
		c0.374-0.006,0.56,0.519,0.538,0.974c-0.031,0.603-0.06,1.272-0.236,1.946c-0.536,2.595-1.474,6.487-1.706,7.559l-4.772,19.55
		l7.398-1.303l4.801-15.088c0.801-2.153,5.426-14.475,7.196-14.186c0.509,0.083,0.656,0.785,0.654,1.779
		c-0.002,2.551-1.672,8.786-2.829,14.388c-1.092,5.291-2.918,13.544-2.918,13.544l7.234-1.317c0,0,0.683-2.57,2.015-6.708
		c1.608-5.077,3.211-9.861,4.063-12.064c0.854-2.157,4.341-10.158,6.255-10.237c0.866-0.035,0.672,0.614,0.625,1.388
		c-0.138,2.306-2.417,9.987-3.011,12.051c-0.921,3.584-2.282,8.099-2.324,11.774c-0.038,3.154,1.499,4.479,3.518,4.344
		c2.898-0.19,8.269-6.12,8.269-6.12l0.207-0.925c0,0-2.235,1.441-3.734,1.234c-1.225-0.167,0.086-4.481,0.302-5.322l2.886-11.212
		c0.706-2.671,1.568-5.802,1.602-8.58c0.04-3.378-1.81-4.381-3.829-4.248C60.602,63.946,56.555,69.736,53.815,75.483L53.815,75.483z
		"/>
	<path fill="#FFFFFF" d="M59.993,97.757c-0.147,0.04-0.287,0.064-0.42,0.073c-1.374,0.089-2.582-0.672-2.548-3.389
		c0.02-1.732,0.352-3.696,0.807-5.708c0.458-2.026,1.025-4.041,1.485-5.824c0.302-1.057,1.068-3.774,1.761-6.451
		c0.678-2.615,1.354-5.424,1.368-6.445c0.002-0.34-0.038-0.769-0.198-1.148c-0.121-0.287-0.385-0.688-0.843-0.838
		c0.169-0.06,0.342-0.101,0.522-0.111c0.765-0.051,1.17,0.521,1.328,0.896c0.158,0.378,0.201,0.808,0.195,1.146
		c-0.011,1.023-0.687,3.83-1.365,6.447c-0.693,2.678-1.458,5.396-1.763,6.451c-0.458,1.783-1.025,3.799-1.483,5.824
		c-0.456,2.011-0.787,3.977-0.808,5.707C58.002,96.707,58.881,97.604,59.993,97.757L59.993,97.757z"/>
	<path fill="#FFFFFF" d="M33.616,81.031l-4.458,18.178l-1.014,0.174l4.465-18.296c0.231-1.069,1.167-4.961,1.705-7.557
		c0.099-0.38,0.156-0.76,0.193-1.13c0.036-0.345,0.052-0.683,0.067-0.999c0.02-0.367-0.042-0.783-0.215-1.141
		c-0.129-0.269-0.394-0.625-0.821-0.764c0.18-0.07,0.376-0.114,0.581-0.118c0.687-0.013,1.079,0.478,1.248,0.827
		c0.173,0.361,0.234,0.776,0.215,1.142c-0.015,0.317-0.033,0.653-0.066,0.998c-0.038,0.37-0.096,0.75-0.193,1.13
		C34.783,76.072,33.847,79.964,33.616,81.031L33.616,81.031z"/>
	<path fill="#FFFFFF" d="M47.915,69.661c-0.084-0.287-0.335-0.892-0.923-1.09c0.158-0.06,0.325-0.102,0.503-0.115
		c0.958-0.062,1.321,0.792,1.427,1.152c0.129,0.438,0.149,0.93,0.145,1.263c-0.032,2.682-2.355,12.298-3,15.289l-2.642,12.143
		l-1.011,0.132l2.646-12.218c0.645-2.994,2.969-12.609,3.002-15.29C48.064,70.591,48.044,70.099,47.915,69.661L47.915,69.661z"/>
	<path fill="#EE2531" d="M75.424,131.812c5.615-2.121,13.512-4.408,30.371-6.203c21.646-2.31,39.312-0.346,48.048,0.83
		c-16.07-0.607-47.537,1.826-61.351,5.637c-1.54,0.729-2.976,2.234-6.023,3.46c-3.375,1.356-8.488,3.009-13.378,3.401
		C70.914,139.11,69.397,134.092,75.424,131.812L75.424,131.812z"/>
	<path fill="#FFFFFF" d="M109.946,126.401c-4.521,0.637-7.834,1.274-11.096,1.752c-9.419,1.384-16.562,3.035-22.066,5.117
		c-4.27,1.615-4.032,4.405-4.217,4.42c-0.09,0.009-1.492-3.312,3.061-5.035c5.501-2.081,9.612-3.244,19.375-4.758
		C103.502,126.582,106.077,126.297,109.946,126.401L109.946,126.401z"/>
</g>
</svg>
