<?xml version="1.0" encoding="utf-8"?>
<!-- Generator: Adobe Illustrator 16.0.0, SVG Export Plug-In . SVG Version: 6.00 Build 0)  -->
<!DOCTYPE svg PUBLIC "-//W3C//DTD SVG 1.1//EN" "http://www.w3.org/Graphics/SVG/1.1/DTD/svg11.dtd">
<svg version="1.1" id="layer1" xmlns="http://www.w3.org/2000/svg" xmlns:xlink="http://www.w3.org/1999/xlink" x="0px" y="0px"
	 width="195.355px" height="118.639px" viewBox="208.822 337.181 195.355 118.639"
	 enable-background="new 208.822 337.181 195.355 118.639" xml:space="preserve">
<g>
	<path id="path2475" fill="#FFFFFF" d="M235.826,337.181c-6.552,0-11.827,5.275-11.827,11.828v77.906
		c0,6.553,5.275,11.827,11.827,11.827h137.646l28.518-11.566l-8.177-89.942L235.826,337.181z"/>
	<path id="rect2470" fill="#FA012D" d="M392.351,337.181c6.554,0,11.827,5.275,11.827,11.828v77.906
		c0,6.553-5.273,11.827-11.827,11.827h-21.598l0.312-8.688c12.118,0.608,20.146-0.904,24.599-5.811
		c0.026-2.095,1.638-5.625-1.575-11.573c-1.759-3.259-3.886-7.243-11.025-12.114c-0.375-5.407-3.289-8.004-5.384-10.561
		c-2.342-2.86-3.981-5.411-6.39-6.595l-28.272-46.167L392.351,337.181z"/>
	<path id="path2473" fill="#092668" d="M220.672,337.181c-6.553,0-11.828,5.275-11.828,11.828v77.906
		c0,6.553,5.275,11.827,11.828,11.827h69.679c-0.774-2.66-2.931-8.393-4.848-8.402c-1.534-0.131-7.363,0.595-8.375-0.517
		c4.411-32.45,10.084-30.058,15.814-34.276c1.044-0.769-0.715-1.725-0.021-2.7c0.862-1.213-0.943-2.409-0.289-3.585
		c0.999-1.798-6.911,0.265-6.286-1.52c1.226-3.492,2.658-5.769,3.529-8.77c0.723-2.488-0.076-1.344-0.072-2.466
		c0.006-1.679-12.674,0.913-12.286-0.684c0.713-2.935,11.069-5.859,10.929-8.761c-0.632-13.095,10.278-19.924,18.043-19.677
		c13.626-0.236,17.438,1.251,22.357,10.201c3.242,6.471,7.109,17.214,0.188,20.21c0.428,3.15,1.151,5.854,2.939,6.962
		c2.42-0.089,3.354,0.124,5.395,0.118c14.415-0.039,21.126,1.105,24.557,3.454l0.91-5.966l-34.464-45.132L220.672,337.181z"/>
	<path fill="#FA012D" d="M208.822,455.554v-13.527h3.359l1.603,7.207c0.087,0.39,0.168,0.858,0.243,1.406
		c0.075,0.549,0.148,1.193,0.22,1.938c0.047-0.713,0.108-1.343,0.184-1.892c0.075-0.549,0.168-1.025,0.279-1.435l1.769-7.226h3.229
		v13.527h-2.172c-0.017-0.406-0.026-0.845-0.03-1.311s-0.006-1.146-0.006-2.042c0-1.76,0.032-3.384,0.095-4.873
		s0.163-2.857,0.297-4.106l-3.038,12.332h-1.294l-2.79-12.332c0.079,1.748,0.139,3.644,0.178,5.684c0.04,2.04,0.06,4.257,0.06,6.648
		L208.822,455.554L208.822,455.554z M224.871,451.023h2.112l-0.961-7.856h-0.131L224.871,451.023z M221.666,455.554l2.575-13.527
		h3.384l2.694,13.527h-2.647l-0.439-2.73h-2.6l-0.415,2.73H221.666L221.666,455.554z M230.794,455.646v-1.863
		c0.158,0.042,0.314,0.074,0.469,0.096c0.155,0.022,0.303,0.032,0.445,0.032c0.538,0,0.916-0.149,1.134-0.448
		c0.218-0.298,0.326-0.854,0.326-1.672v-9.765h2.576v10.029c0,1.341-0.273,2.296-0.819,2.868c-0.546,0.572-1.448,0.858-2.706,0.858
		c-0.229,0-0.463-0.013-0.7-0.036C231.28,455.722,231.039,455.688,230.794,455.646L230.794,455.646z M241.24,445.524v6.53
		c0,0.712,0.126,1.229,0.38,1.554c0.253,0.321,0.652,0.483,1.198,0.483c0.546,0,0.946-0.162,1.199-0.483
		c0.253-0.323,0.38-0.842,0.38-1.554v-6.53c0-0.714-0.127-1.23-0.38-1.555c-0.253-0.321-0.653-0.482-1.199-0.482
		c-0.546,0-0.945,0.161-1.198,0.482C241.366,444.294,241.24,444.812,241.24,445.524L241.24,445.524z M238.593,446.593
		c0-1.711,0.33-2.941,0.991-3.694s1.739-1.129,3.234-1.129c1.488,0,2.564,0.379,3.229,1.134c0.664,0.755,0.997,1.984,0.997,3.689
		v4.395c0,1.712-0.333,2.943-0.997,3.7c-0.665,0.755-1.741,1.133-3.229,1.133c-1.495,0-2.573-0.378-3.234-1.133
		c-0.661-0.757-0.991-1.988-0.991-3.7V446.593z M252.445,448.128h0.629c0.887,0,1.498-0.162,1.834-0.484
		c0.337-0.322,0.505-0.917,0.505-1.78c0-0.786-0.158-1.334-0.475-1.646c-0.317-0.311-0.862-0.466-1.639-0.466h-0.854V448.128z
		 M249.846,455.554v-13.527h2.873c2.041,0,3.442,0.284,4.202,0.854c0.76,0.569,1.14,1.601,1.14,3.092
		c0,0.913-0.164,1.648-0.493,2.206c-0.328,0.559-0.845,0.977-1.549,1.256l2.314,6.12h-2.683l-2.065-5.689h-1.14v5.689H249.846
		L249.846,455.554z M265.229,455.554v-13.527h2.6v11.655h4.761v1.872H265.229L265.229,455.554z M274.014,455.554v-13.527h6.956
		v1.817h-4.356v3.745h3.407v1.845h-3.407v4.304h4.761v1.816H274.014z M285.22,451.023h2.112l-0.961-7.856h-0.131L285.22,451.023z
		 M282.015,455.554l2.576-13.527h3.383l2.694,13.527h-2.646l-0.439-2.73h-2.6l-0.416,2.73H282.015L282.015,455.554z
		 M300.651,455.554h-1.234l-0.63-0.995c-0.355,0.377-0.777,0.662-1.264,0.854s-1.023,0.288-1.608,0.288
		c-1.29,0-2.231-0.376-2.825-1.128c-0.594-0.752-0.891-1.947-0.891-3.586v-4.395c0-1.711,0.33-2.941,0.991-3.694
		s1.739-1.129,3.234-1.129c1.386,0,2.436,0.354,3.152,1.061c0.716,0.707,1.074,1.736,1.074,3.088v0.493h-2.647v-0.886
		c0-0.713-0.127-1.23-0.38-1.555c-0.253-0.321-0.652-0.482-1.199-0.482c-0.546,0-0.945,0.161-1.198,0.482
		c-0.254,0.323-0.38,0.842-0.38,1.555v6.458c0,0.713,0.126,1.229,0.38,1.553c0.253,0.323,0.652,0.484,1.198,0.484
		c0.547,0,0.946-0.161,1.199-0.484c0.253-0.322,0.38-0.84,0.38-1.553v-1.571h-1.389v-1.689h4.036L300.651,455.554L300.651,455.554z
		 M303.357,451.324v-9.299h2.6v9.848c0,0.742,0.115,1.273,0.345,1.594c0.23,0.32,0.602,0.479,1.115,0.479s0.887-0.16,1.116-0.479
		c0.229-0.318,0.344-0.852,0.344-1.594v-9.848h2.576v9.299c0,1.626-0.312,2.778-0.933,3.458c-0.62,0.679-1.655,1.019-3.104,1.019
		c-1.456,0-2.496-0.34-3.122-1.019C303.67,454.104,303.357,452.95,303.357,451.324L303.357,451.324z M314.421,455.554v-13.527h6.956
		v1.817h-4.355v3.745h3.405v1.845h-3.405v4.304h4.76v1.816H314.421z M330.885,447.68h0.783c0.815,0,1.387-0.146,1.716-0.441
		c0.328-0.296,0.492-0.821,0.492-1.576c0-0.725-0.16-1.229-0.479-1.507c-0.32-0.28-0.882-0.421-1.681-0.421h-0.831V447.68z
		 M330.885,453.818h0.926c0.854,0,1.452-0.169,1.793-0.508c0.341-0.338,0.511-0.941,0.511-1.812c0-0.761-0.168-1.292-0.504-1.594
		c-0.337-0.303-0.938-0.452-1.8-0.452h-0.926V453.818z M328.285,455.554v-13.527h3.253c1.883,0,3.185,0.259,3.905,0.775
		c0.72,0.519,1.08,1.433,1.08,2.74c0,0.835-0.138,1.481-0.41,1.941s-0.719,0.793-1.335,1c0.688,0.207,1.192,0.564,1.514,1.072
		c0.32,0.51,0.48,1.205,0.48,2.088c0,1.383-0.399,2.381-1.199,2.991c-0.799,0.612-2.102,0.918-3.905,0.918L328.285,455.554
		L328.285,455.554z M341.248,451.023h2.112l-0.961-7.856h-0.132L341.248,451.023z M338.043,455.554l2.575-13.527h3.384l2.694,13.527
		h-2.647l-0.438-2.73h-2.6l-0.416,2.73H338.043L338.043,455.554z M347.468,452.037l2.48-0.283v0.119c0,0.729,0.123,1.28,0.368,1.648
		c0.244,0.367,0.616,0.553,1.115,0.553c0.437,0,0.771-0.13,1.01-0.39c0.237-0.259,0.355-0.628,0.355-1.108
		c0-0.329-0.081-0.653-0.244-0.974c-0.162-0.319-0.413-0.661-0.753-1.027c-0.325-0.335-0.879-0.863-1.662-1.585
		c-0.782-0.722-1.31-1.271-1.579-1.648c-0.301-0.426-0.525-0.836-0.677-1.229c-0.15-0.394-0.226-0.77-0.226-1.128
		c0-0.993,0.333-1.78,0.997-2.361c0.665-0.582,1.56-0.873,2.684-0.873c1.147,0,2.053,0.296,2.718,0.887s1.021,1.422,1.068,2.493
		l-2.352,0.229c-0.038-0.646-0.174-1.115-0.402-1.411c-0.229-0.295-0.573-0.443-1.032-0.443c-0.341,0-0.622,0.117-0.843,0.354
		c-0.223,0.233-0.333,0.533-0.333,0.898c0,0.322,0.108,0.679,0.326,1.068s0.523,0.775,0.921,1.16
		c0.148,0.146,0.375,0.358,0.676,0.64c1.068,1.011,1.789,1.738,2.161,2.184c0.354,0.421,0.621,0.858,0.795,1.315
		c0.174,0.456,0.261,0.94,0.261,1.452c0,0.956-0.358,1.734-1.08,2.339c-0.72,0.603-1.648,0.904-2.789,0.904
		c-1.18,0-2.11-0.326-2.796-0.979C347.952,454.189,347.562,453.255,347.468,452.037L347.468,452.037z M357.201,455.554v-13.527
		h6.956v1.817h-4.356v3.745h3.407v1.845h-3.407v4.304h4.761v1.816H357.201z M368.822,447.68h0.783c0.814,0,1.388-0.146,1.716-0.441
		c0.328-0.296,0.491-0.821,0.491-1.576c0-0.725-0.159-1.229-0.479-1.507c-0.32-0.28-0.88-0.421-1.68-0.421h-0.831V447.68z
		 M368.822,453.818h0.926c0.854,0,1.452-0.169,1.793-0.508c0.34-0.338,0.51-0.941,0.51-1.812c0-0.761-0.168-1.292-0.504-1.594
		c-0.337-0.303-0.936-0.452-1.799-0.452h-0.926V453.818z M366.223,455.554v-13.527h3.253c1.884,0,3.186,0.259,3.905,0.775
		c0.72,0.519,1.08,1.433,1.08,2.74c0,0.835-0.137,1.481-0.409,1.941s-0.719,0.793-1.336,1c0.688,0.207,1.193,0.564,1.515,1.072
		c0.319,0.51,0.479,1.205,0.479,2.088c0,1.383-0.399,2.381-1.198,2.991c-0.8,0.612-2.102,0.918-3.905,0.918L366.223,455.554
		L366.223,455.554z M379.186,451.023h2.112l-0.961-7.856h-0.131L379.186,451.023z M375.98,455.554l2.575-13.527h3.384l2.693,13.527
		h-2.646l-0.438-2.73h-2.6l-0.416,2.73H375.98L375.98,455.554z M386.355,455.554v-13.527h2.6v11.655h4.76v1.872H386.355
		L386.355,455.554z M395.139,455.554v-13.527h2.601v11.655h4.761v1.872H395.139L395.139,455.554z"/>
	<path id="path2529" fill="#FFFFFF" d="M240.313,414.461c0.002,4.317-3.496,7.817-7.812,7.819c-4.317,0.002-7.818-3.497-7.819-7.813
		c0-0.002,0-0.004,0-0.006c-0.002-4.316,3.496-7.817,7.813-7.818c4.316-0.002,7.817,3.496,7.818,7.812
		C240.313,414.457,240.313,414.459,240.313,414.461z"/>
</g>
</svg>
