<?xml version="1.0" encoding="utf-8"?>
<!-- Generator: Adobe Illustrator 16.0.0, SVG Export Plug-In . SVG Version: 6.00 Build 0)  -->
<!DOCTYPE svg PUBLIC "-//W3C//DTD SVG 1.1//EN" "http://www.w3.org/Graphics/SVG/1.1/DTD/svg11.dtd">
<svg version="1.1" id="Layer_1" xmlns="http://www.w3.org/2000/svg" xmlns:xlink="http://www.w3.org/1999/xlink" x="0px" y="0px"
	 width="175.749px" height="63.422px" viewBox="8.503 64.667 175.749 63.422" enable-background="new 8.503 64.667 175.749 63.422"
	 xml:space="preserve">
<g>
	<path d="M72.923,77.069v0.538h3.381c-0.076,1.152-0.461,2.151-1.152,3.073c-0.692,0.77-1.537,1.383-2.536,1.69l0.538,0.538
		c1.153-0.614,2.075-1.383,2.767-2.304c0.691-1,1.075-2.229,1.075-3.535H72.923L72.923,77.069z M78.839,76.147v8.452h0.615v-8.144
		c0-0.076,0-0.076,0-0.076c0-0.077,0-0.077,0-0.077c0.076-0.077,0.076-0.154,0.076-0.154c-0.076,0-0.076,0-0.23,0L78.839,76.147
		L78.839,76.147z"/>
	<path d="M86.139,76.992h2.075v0.845h-2.075v0.462h2.612v-1.768h-2.612V76.992L86.139,76.992z M86.139,79.682h2.843V79.22h-2.843
		V79.682L86.139,79.682z M86.139,84.215v-0.461h2.151V82.14h-2.151v-0.46h2.689v2.766H88.29v-0.23L86.139,84.215L86.139,84.215z
		 M86.139,80.834v-0.461h3.765v0.461H86.139L86.139,80.834z M83.373,76.532v0.46h2.767v-0.46H83.373L83.373,76.532z M86.139,77.837
		h-2.767v1.844h2.767V79.22h-2.152v-0.921h2.152V77.837L86.139,77.837z M86.139,80.373v0.461h-3.842v-0.461H86.139L86.139,80.373z
		 M86.139,81.68v0.46h-2.075v1.614h2.075v0.461h-2.075v0.23H83.45V81.68H86.139L86.139,81.68z"/>
	<path d="M99.894,84.523v-0.538h0.998v0.538H99.894L99.894,84.523z M99.894,79.989v-0.538h0.308v-3.15h0.385
		c0.076,0,0.153,0,0.153,0c0,0.077,0,0.077,0,0.153c0,0,0,0.077-0.077,0.077c0,0,0,0,0,0.077v6.069H100.2v-2.689h-0.307V79.989z
		 M99.894,79.452v0.538h-0.461v2.381h-0.461v-5.992h0.385c0.152,0,0.152,0,0.229,0.076c0,0-0.077,0-0.077,0.077v0.077l-0.076,0.076
		v2.767H99.894L99.894,79.452z M99.894,83.985v0.538h-2.459v-0.538H99.894L99.894,83.985z M97.435,81.142v-0.538h0.385v-1.768
		h-0.385v-0.462h0.385v-1.536h0.384c0.077,0,0.153,0,0.153,0c0,0.077,0,0.077,0,0.153c0,0,0,0,0,0.077
		c-0.076,0-0.076,0.077-0.076,0.077v3.996L97.435,81.142L97.435,81.142z M95.59,78.837v1.768h-0.308v0.538h0.846v-3.996V77.07
		c0-0.077,0-0.077,0-0.077c0-0.076,0-0.076,0-0.153c0,0-0.078,0-0.154,0H95.59v1.536h-0.308v0.462L95.59,78.837L95.59,78.837z
		 M97.435,78.375v0.462h-0.308v1.768h0.308v0.538h-0.769V76.84h0.308c0.153,0,0.153,0,0.23,0c0,0.077,0,0.077-0.077,0.077
		c0,0.076,0,0.076,0,0.076c0,0.077,0,0.077,0,0.077v1.306L97.435,78.375L97.435,78.375z M97.435,83.985v0.538H95.36v-2.69h0.384
		c0.154,0,0.23,0,0.23,0.077c0,0,0,0,0,0.078l-0.076,0.076v0.077v1.845L97.435,83.985L97.435,83.985z M95.283,80.604h-0.384v-1.768
		h0.384v-0.462h-0.384v-1.306c0,0,0,0,0-0.077c0,0,0,0,0-0.076c0.077,0,0.077,0,0.077-0.077c-0.077,0-0.077,0-0.23,0h-0.307v4.303
		h0.845L95.283,80.604L95.283,80.604z"/>
	<path d="M106.116,78.837l0.539,0.615c0.689-0.154,1.383-0.462,1.92-0.922c0.537-0.384,0.922-0.768,1.152-1.306
		c0.152,0.46,0.539,0.845,1.076,1.229c0.537,0.462,1.229,0.768,2.073,0.922l0.386-0.538c-0.923-0.154-1.691-0.385-2.307-0.922
		c-0.46-0.384-0.77-0.768-0.846-1.23v-0.076v-0.077c0.076-0.077,0.076-0.077,0.076-0.077c-0.076-0.076-0.076-0.076-0.229-0.076
		l-0.538-0.077c0,0.538-0.308,1.075-0.999,1.69C107.808,78.529,107.039,78.76,106.116,78.837L106.116,78.837z M105.888,80.45v0.538
		h3.533v3.688h0.691v-3.688h3.457V80.45H105.888L105.888,80.45z"/>
	<path d="M121.792,76.147h-0.384v8.299h0.612V80.45h1.461v-0.538h-1.461v-3.38c0-0.077,0-0.077,0-0.153c0,0,0,0,0.078-0.077v-0.077
		C122.021,76.147,121.944,76.147,121.792,76.147L121.792,76.147z M115.952,77.146v5.224c0.768,0,1.613-0.076,2.459-0.153
		c0.922-0.078,1.689-0.154,2.305-0.308l-0.076-0.537c-0.615,0.153-1.384,0.23-2.15,0.308c-0.692,0.077-1.307,0.077-1.922,0.077
		v-1.922h3.381v-0.538h-3.381v-1.613h3.535v-0.538H115.952L115.952,77.146z"/>
	<path d="M131.319,76.147h-0.461v8.299h0.613v-7.914c0-0.077,0-0.077,0-0.153c0,0,0.077,0,0.077-0.077v-0.077
		C131.55,76.224,131.474,76.224,131.319,76.147L131.319,76.147z M126.556,78.683h-0.385l0.309,2.92
		c-0.229,0.078-0.461,0.078-0.691,0.078c-0.153,0-0.307,0-0.615,0h-0.384l0.153,0.614c0.076,0.076,0.076,0.076,0.076,0.076
		c0.078,0,0.078,0,0.153,0c0.078,0,0.078-0.076,0.154-0.076c0.077,0,0.229-0.077,0.308-0.077c0.922-0.078,1.69-0.078,2.383-0.154
		c0.922-0.076,1.689-0.154,2.305-0.23l-0.077-0.538c-0.229,0.077-0.46,0.077-0.769,0.154c-0.23,0-0.461,0-0.69,0l0.229-2.383
		c0-0.077,0-0.077,0-0.153c0,0,0-0.077,0.076-0.077c0-0.077,0-0.077,0-0.154c0,0-0.076,0-0.229,0l-0.463-0.076l-0.152,2.919
		l-0.691,0.077h-0.537l-0.23-2.458c0-0.077,0-0.154,0-0.154c0-0.076,0-0.076,0-0.153s0-0.077,0-0.154
		C126.786,78.683,126.709,78.683,126.556,78.683L126.556,78.683z M125.25,77.224v0.538h4.687v-0.538H125.25L125.25,77.224z"/>
	<path d="M134.7,76.992v0.461h1.998c0,0.691,0,1.153-0.077,1.383c-0.153,0.383-0.308,0.768-0.537,1.229s-0.539,0.845-0.847,1.229
		c-0.307,0.385-0.69,0.614-0.998,0.845l0.537,0.385c0.461-0.307,0.846-0.692,1.229-1.152c0.384-0.538,0.69-1.076,0.923-1.845
		c0.229,0.692,0.461,1.307,0.846,1.845c0.384,0.537,0.845,0.922,1.229,1.152l0.538-0.538c-0.847-0.385-1.459-1.076-1.845-1.998
		c-0.307-0.692-0.461-1.537-0.461-2.536h1.998v-0.461L134.7,76.992L134.7,76.992z M140.771,76.147h-0.461v8.299h0.614V80.68h1.384
		v-0.538h-1.384v-3.534c0-0.077,0-0.154,0-0.154c0-0.076,0-0.076,0.077-0.153v-0.077C141.001,76.224,140.924,76.224,140.771,76.147
		L140.771,76.147z"/>
	<polygon fill="#ED1C24" points="126.095,102.349 126.095,124.785 131.474,124.785 131.474,102.349 	"/>
	<polygon fill="#ED1C24" points="134.315,102.349 134.315,107.728 139.003,107.728 134.315,124.324 146.533,124.324 
		146.533,119.253 141.385,119.253 146.61,102.425 	"/>
	<path fill="#ED1C24" d="M128.631,99.735c1.536,0,2.843-1.383,2.843-2.996c0-1.69-1.307-3.073-2.843-3.073
		c-1.537,0-2.767,1.383-2.767,3.073C125.864,98.354,127.094,99.735,128.631,99.735L128.631,99.735z"/>
	<polygon fill="#ED1C24" points="147.84,102.349 147.84,107.728 152.526,107.728 147.84,124.324 160.058,124.324 160.058,119.253 
		154.831,119.253 160.134,102.425 	"/>
	<path fill="#ED1C24" d="M181.495,105.737L181.495,105.737c0.748,0,1.402-0.318,1.87-0.823s0.749-1.198,0.75-1.948v-0.003v-0.001
		c0-0.788-0.282-1.482-0.75-1.979c-0.468-0.494-1.121-0.795-1.868-0.795h-0.002h-0.002c-0.709,0-1.346,0.301-1.803,0.795
		c-0.459,0.496-0.739,1.188-0.74,1.977v0.003v0.002c0,0.75,0.281,1.444,0.74,1.95c0.459,0.504,1.094,0.82,1.803,0.822H181.495
		L181.495,105.737z M181.496,105.874L181.496,105.874h-0.003c-0.749,0-1.42-0.335-1.902-0.866c-0.48-0.53-0.777-1.258-0.777-2.043
		v-0.002v-0.003c0.002-0.822,0.297-1.549,0.776-2.068c0.483-0.522,1.154-0.839,1.903-0.839h0.002h0.002
		c0.786,0.001,1.477,0.315,1.968,0.837s0.787,1.248,0.787,2.072v0.001v0.003c-0.001,0.785-0.296,1.512-0.786,2.042
		C182.974,105.539,182.284,105.874,181.496,105.874L181.496,105.874z"/>
	<path fill="#ED1C24" d="M182.801,104.808c-0.077-0.076-0.153-0.076-0.229-0.076c-0.077,0-0.077,0-0.154,0c-0.076,0-0.076,0-0.152,0
		c0,0-0.076,0-0.154,0c-0.076-0.23-0.229-0.385-0.307-0.615c-0.076-0.153-0.154-0.309-0.308-0.537v-0.77c0.151,0,0.229,0,0.308,0
		c0-0.076,0.076-0.076,0.153-0.076c0-0.076,0.076-0.076,0.153-0.153c0-0.077,0-0.154,0-0.229c0-0.153,0-0.23,0-0.308
		c-0.077,0-0.153-0.077-0.153-0.153c-0.077,0-0.153,0-0.229,0c0,0-0.154,0-0.23,0v-0.462c0.23,0,0.384,0,0.461,0
		c0.152,0.077,0.23,0.077,0.307,0.153c0.153,0.077,0.23,0.154,0.309,0.309c0,0.153,0.076,0.229,0.076,0.383
		c0,0.23-0.076,0.386-0.076,0.461c-0.077,0.154-0.154,0.23-0.309,0.309c-0.076,0.077-0.076,0.077-0.152,0.077
		c-0.077,0.077-0.153,0.077-0.309,0.077c0.23,0.384,0.461,0.768,0.614,0.998C182.569,104.423,182.724,104.653,182.801,104.808
		L182.801,104.808z M181.495,103.578c-0.077-0.076-0.154-0.229-0.23-0.308h-0.385v0.23c0,0.229,0,0.46,0,0.46
		c0,0.078,0,0.153,0,0.229c0,0.078,0,0.078,0,0.154c0,0.153,0,0.23,0,0.461c-0.076-0.076-0.076-0.076-0.154-0.076h-0.076
		c-0.076,0-0.076,0-0.152,0c0,0-0.077,0-0.154,0.076c0-0.229,0.077-0.461,0.077-0.768c0-0.155,0-0.615,0-1.23
		c0-0.229,0-0.461,0-0.768c-0.077-0.23-0.077-0.462-0.077-0.615h1.153v0.461h-0.615v0.922h0.615L181.495,103.578L181.495,103.578z"
		/>
	<polygon points="147.071,79.515 176.577,79.515 176.577,79.694 147.071,79.694 	"/>
	<path d="M33.352,73.458c-9.451,1.306-14.599,4.534-18.441,9.758c-3.688,6.531-2.767,11.219,5.379,10.22
		c4.994-0.23,7.607-3.458,16.059-9.912c3.765-1.998,10.911-1.076,17.442-1.229c5.917-0.692,12.678-5.686,13.37-12.064
		c0.922-4.457-1.46-6.607-6.224-5.071c-4.995,3.15-4.149,5.071-8.683,7.531c-2.305,1.536-4.917,1.998-8.145,1.153
		c-2.92-0.307-5.993-0.385-9.067-0.385C34.428,73.458,33.89,73.458,33.352,73.458L33.352,73.458z"/>
	<path fill="#FDB913" d="M33.659,74.226c-3.304,0.385-6.454,1.383-9.375,2.613l-2.535,1.23c-4.456,3.073-6.838,6.224-7.606,9.297
		c-0.769,2.919,0,4.917,3.227,5.302c4.61,0.461,9.144-1.537,13.062-5.686l4.763-4.226c-3.227-0.153-6.53,1.306-9.374,3.458
		c1.845-1.383,3.688-3.073,6.685-3.842c5.148-0.69,10.066-0.998,15.291-0.69c5.917,0.614,10.295-1,13.831-3.919
		c1.383-1.229,2.458-1.921,3.381-3.535c1.306-2.458,1.537-5.686,1.076-7.453c-1.538-1.69-3.304-1.614-4.149-1
		c-2.919,1.076-5.917,5.763-9.989,7.837c-1.998,1.077-3.304,1.845-10.143,0.769C39.115,73.996,36.426,74.073,33.659,74.226
		L33.659,74.226z"/>
	<path d="M59.092,74.073c2.228-1.538,4.226-3.229,4.456-5.994c-0.307-0.768-0.845-1.075-1.613-0.922
		c-2.305,0.922-3.688,2.997-5.302,4.841c1.845-1.537,3.92-4.073,5.302-3.611C63.011,70.615,60.629,72.305,59.092,74.073
		L59.092,74.073z"/>
	<path d="M65.547,76.378c-2.459,4.687-6.455,7.99-11.218,8.297c2.074-0.153,3.918,0.308,7.069-1.69
		C64.778,79.835,65.239,77.992,65.547,76.378L65.547,76.378z"/>
	<path d="M66.084,78.99c-2.458,4.38-4.84,6.916-9.682,7.377c2.152-0.154,2.997,0.307,5.917-1.306
		C65.624,81.91,65.547,80.604,66.084,78.99L66.084,78.99z"/>
	<path d="M65.777,82.833c-2.689,3.688-2.689,4.302-7.76,5.762c2.228-0.308,1.767,0.077,5.147-1.383
		C65.931,84.138,65.162,84.061,65.777,82.833L65.777,82.833z"/>
	<path d="M22.21,90.9c-3.611,1.383-5.686,0.845-5.917-1.844c0.077-2.075,1.383-3.996,4.61-7.147c1.768-1.382,3.305-2.382,5.61-3.535
		l2.382-0.076l1.382-1.23l1.921,0.077l0.923-0.768l1.767,0.076l0.23-0.538l2.458-0.153c1.768-0.385,3.535-0.308,5.301-0.385
		l-7.375,1l-0.539,0.614l-1.536-0.153l-1.076,0.922l-1.614-0.308l-1.46,1.153l-2.305,0.23c-3.458,1.536-6.377,3.918-8.298,6.915
		c-0.922,1.69-1.383,3.305-0.769,4.918C19.291,91.438,20.751,91.438,22.21,90.9L22.21,90.9z"/>
	<path d="M49.564,74.611c1.537,0.768,4.379,0.768,7.299,0.461c-2.228,0.384-3.996,0.461-6.761,0.307
		c-0.922-0.23-1.383-0.538-1.69-0.768H49.564L49.564,74.611z"/>
	<path d="M11.069,90.439c-0.307-2.613,0.153-7.684,6.531-10.45c-2.306,0.153-3.381,0.691-5.225,2.381
		C9.456,85.368,11.146,89.439,11.069,90.439L11.069,90.439z"/>
	<path d="M9.302,89.594c-0.845-3.612,0-8.606,6.762-10.22c-2.459,0.307-3.611,0.077-6.377,2.843
		C7.227,86.597,9.378,89.364,9.302,89.594L9.302,89.594z"/>
	<path fill="#FFFFFF" d="M25.668,126.322c-1.307,0.308,4.609-15.753,7.76-21.515c-1.076-2.459-1.46-4.918-0.23-7.377l-0.307-2.613
		c-2.767-2.074-0.308-2.151-0.769-3.15c0.922,0.077,1.69-0.383,2.536,0.539c1.998,0.614,2.766,2.074,2.228,4.457l0.845,2.151
		l5.147-3.151c3.458-1.767,6.916-3.15,10.373-3.457c3.766,0.23,5.303,1.229,4.534,2.997c-1.46,1.768-2.766,1.46-3.919,1.46
		l-6.455,0.076l-2.842,2.151l4.994,0.229c0.769,0.769,0.154,1.461,0.077,2.229c-1.998,2.611-4.38,4.072-6.454,4.918
		c-1.46-0.23-2.075-1.076-1.844-2.461c0.461-0.921,1.46-1.688,3.073-2.304l3.228-0.769c-7.376,0.076-7.454,4.072-7.761,4.148
		c0.615,0.614,1.614,1.383,2.306,1.998l0.921,3.38c-1.92,2.229-4.072,2.845-6.531,1.691l1.153,1.46l-0.154,14.599
		C37.655,127.628,26.897,125.938,25.668,126.322L25.668,126.322z"/>
	<path d="M25.361,126.322c0.845-5.533,3.688-14.216,7.146-20.056c0-0.076,0.922-1.383,0.538-2.535
		c-1.383-0.461-1.613-4.072-0.999-4.994c0.153-0.538,0.077-0.538,0.614-1.459c0.154-0.309,0.231-1.077-0.23-2.152
		c-0.691-0.691-2.458-1.998-0.845-3.764c1.46-0.692,3.458-0.922,4.764,0.768c0.999,1.46,1.46,2.997,1.076,4.457
		c0,1.383,0.384,1.613,0.999,1.613c2.997-3.227,7.223-4.841,12.601-6.224c2.613-0.691,4.841-0.461,6.685,0.769
		c1.307,1.459,1.076,2.766-0.537,4.072c-1.23,0.461-2.306,0.692-3.305,0.692c-1.767-0.076-3.611,0-5.378-0.076
		c-1.153,0.151-1.46,0.459-1.844,0.844c3.842-0.308,5.071,0.386,3.919,2.844c-0.538,0.77-1.23,1.229-1.537,2.459
		c1.844,0.307,2.382,1.307,1.229,3.072c0.768,1.229,0.845,1.923,0.23,2.689l-3.15,2.459c-1.767,0.691-2.843,0.154-2.612-1.46
		c-2.536,0-3.766-1.153-2.46-3.304c-2.074-0.23-2.766-0.999-1.997-3.074c1.383-2.611,4.534-3.457,7.146-3.38
		c-2.612,0.769-5.224,1.306-5.686,2.767c-1.075,1.536-0.845,2.381,0.845,2.611c1.844-0.385,3.458-1.383,4.917-2.611
		c1.076-1.384,2.305-2.229,2.382-2.767c0.384-1.769-0.691-1.308-0.614-1.461c-1.69-0.229-3.381-0.308-5.071-0.076
		c1.537-1.612,2.535-1.998,3.227-2.073l7.454-0.309c1.767-0.462,2.766-1.152,2.766-2.536c-0.077-1.307-1.69-1.844-4.149-1.69
		c-2.536,0.153-3.919,0.077-7.915,2.074c-2.382,1.077-5.532,2.536-6.915,4.534c0.461,1.845-0.307,4.149-1.229,5.455
		c0.538-1.383,0.768-3.688,0.384-5.379c-0.999-0.614-1.23-1.46-1.076-2.228c0.461-1.69,0.384-2.69-0.384-3.305
		c-1.153-1.768-2.689-2.459-3.842-1.768c-0.922,0.538-1.153,1.536,0,2.613c0.845,1.076,0.999,2.151,0.769,2.918
		c-0.615,0.691-1.383,3.612,0.308,5.994c0.999,3.072-7.607,14.598-7.454,22.896L25.361,126.322L25.361,126.322z"/>
	<path fill="#FFFFFF" d="M49.795,105.347c-0.384-1.69-2.228-1-6.07,1.383c-1.921,1.998-1.153,3.072,1.767,2.228
		C47.182,108.267,49.488,106.883,49.795,105.347L49.795,105.347z"/>
	<path fill="#FFFFFF" d="M49.488,107.881c-1.383,0-2.69,0.769-3.535,2.075c-1.152,2.381,1.383,1.152,1.69,1.075
		C49.257,109.726,50.486,108.267,49.488,107.881L49.488,107.881z"/>
	<path d="M43.187,110.34c-0.999,0.691-1.537,1.384-3.15,1.614c-0.999,0.152-2.382,0.537-3.535-0.309
		c0.23,0.769,0.769,1.229,1.537,1.613l-0.615,14.753l0.538,0.077l0.769-14.982c2.075-0.463,4.148-0.924,5.686-3.15L43.187,110.34
		L43.187,110.34z"/>
	<path fill="#ED1C24" d="M62.857,124.709c0.231-9.222,0.922-18.749,3.074-28.968h3.995l4.457,14.83l3.765-14.599h4.687
		c1.383,9.528,2.382,19.287,2.997,28.814l-5.302-0.076l-1.384-14.982l-3.073,15.06h-3.918l-2.767-15.138l-0.845,15.138
		L62.857,124.709L62.857,124.709z"/>
	<path fill="#ED1C24" d="M90.519,124.709v-15.522c-0.231-2.072-0.845-3.533-1.845-4.455l5.072-3.073
		c0.614,0.69,1.152,1.612,1.767,2.612c1.23-1.613,2.765-1.922,4.458-1.922l-0.078,6.07c-2.767-0.23-4.073,1.075-3.765,2.074
		l0.076,14.216H90.519L90.519,124.709z"/>
	<path fill="#ED1C24" d="M115.875,114.104c7.377-0.537,10.681-11.143,2.459-17.597c-0.923-0.384-1.69-0.538-2.459-0.538v5.456
		c0.845,0.615,1.308,2.151,1.229,3.458c0.229,1.536-0.23,2.919-1.229,3.611V114.104L115.875,114.104z M108.422,96.201v28.584h5.993
		v-10.681c0.461,0.076,0.999,0.076,1.46,0v-5.608c-0.384,0.308-0.847,0.46-1.306,0.46l-0.077-7.76c0.536-0.077,0.999,0,1.383,0.229
		V95.97c-0.308-0.077-0.615,0-0.847,0L108.422,96.201L108.422,96.201z"/>
	<path fill="#ED1C24" d="M102.274,118.638c1.613,0,2.844,1.385,2.844,3.151s-1.229,3.228-2.844,3.228
		c-1.613,0-2.92-1.459-2.92-3.228S100.661,118.638,102.274,118.638L102.274,118.638z"/>
	<path fill="#ED1C24" d="M168.278,102.425c0.384-0.076,0.769-0.152,1.152-0.076c2.611-0.69,5.147,0.846,5.84,4.303l0.461,12.218
		c0.23,1.612,0.922,2.306,2.074,3.073l-5.226,3.535l-1.997-2.767c-0.539,0.769-1.307,1.536-2.307,1.998v-4.918
		c0.385,0.077,0.847-0.077,1.307-0.385l0.077-4.609c-0.537,0.076-0.999,0.229-1.384,0.538v-4.611c0.539,0,1,0,1.615,0
		c0.307-1.383,0.307-2.382-0.31-3.609c-0.384-0.077-0.845-0.077-1.306,0v-4.689H168.278z M165.358,109.187l-2.305-3.304
		c1.612-1.536,3.381-3.073,5.225-3.458v4.688C167.433,107.343,166.435,108.035,165.358,109.187L165.358,109.187z M168.278,124.709
		c-0.846,0.308-1.844,0.461-2.996,0c-2.307-0.769-3.458-3.306-3.535-5.918v-0.769c0.077-2.229,0.845-4.379,2.229-5.531
		c0.691-0.77,1.844-1.614,4.303-1.768v4.61c-0.769,0.537-1.305,1.46-1.305,2.688c0.229,1.151,0.689,1.768,1.305,1.768V124.709
		L168.278,124.709z"/>
</g>
</svg>
