<?xml version="1.0" encoding="utf-8"?>
<!-- Generator: Adobe Illustrator 16.0.0, SVG Export Plug-In . SVG Version: 6.00 Build 0)  -->
<!DOCTYPE svg PUBLIC "-//W3C//DTD SVG 1.1//EN" "http://www.w3.org/Graphics/SVG/1.1/DTD/svg11.dtd">
<svg version="1.1" id="Layer_1" xmlns="http://www.w3.org/2000/svg" xmlns:xlink="http://www.w3.org/1999/xlink" x="0px" y="0px"
	 width="175.747px" height="120.076px" viewBox="8.169 35.091 175.747 120.076"
	 enable-background="new 8.169 35.091 175.747 120.076" xml:space="preserve">
<g>
	<path d="M134.446,79.642c-0.166,0.346-1,2.086-1,2.086c-1.532,2.976-4.696,7.086-9.41,12.23c2.859-1.101,5.807-2.174,8.876-3.177
		c4.519-1.477,10.106-2.615,16.594-3.396c4.542-7.14,7.423-13.744,8.399-16.12C151.244,71.755,143.368,74.554,134.446,79.642
		L134.446,79.642z"/>
	<path d="M144.39,118.728L144.39,118.728c-5.459,2.572-11.798,4.668-18.824,6.299c9.634-0.113,16.041-0.433,19.039-0.949
		c8.478-1.467,27.92-8.799,34.141-11.189c-6.727-1.606-11.385-2.615-15.607-3.377C158.341,112.03,152.384,114.96,144.39,118.728
		L144.39,118.728z"/>
	<path d="M113.769,67.936c0.002,0.181,0.004,0.361,0.004,0.554c0,6.613-1.263,20.029-4.176,31.925
		c1.588-0.793,4.648-2.32,4.824-2.408c8.193-8.177,13.362-14.291,15.355-18.169c5.396-10.478,5.457-21.288,5.502-29.181
		c0,0,0.027-1.733,0.05-3.021C130.526,51.079,120.798,58.635,113.769,67.936L113.769,67.936z"/>
	<path d="M82.49,66.273c0,0-0.006,0.099-0.012,0.197c0.237,0.341,1.53,2.205,1.53,2.205c5.347,8.154,9.153,17.76,14.943,37.756
		c0.118-0.078,0.315-0.209,0.315-0.209l0.108-0.068l0.09-0.049c0,0,4.457-2.596,5.166-3.008c3.291-11.55,5.024-26.872,5.024-34.413
		c0-0.929-0.026-1.74-0.079-2.411c-0.987-12.556-10.94-27.688-13.347-31.182C93.761,38.567,83.481,53.711,82.49,66.273L82.49,66.273
		z"/>
	<path d="M134.192,94.704L134.192,94.704c-16.266,5.316-25.049,10.5-30.297,13.598l-2.416,1.405
		c0.028-0.019-0.812,0.538-1.336,0.884c0.142,0.499,0.336,1.188,0.418,1.482c0.412,0.265,15.941,10.208,16.375,10.484
		c9.772-1.638,18.656-4.246,25.693-7.563c25.557-12.044,31.747-16.194,41.286-24.426C177.153,90.24,150.558,89.355,134.192,94.704
		L134.192,94.704z"/>
	<path d="M43.204,88.35c6.211,0.774,11.591,1.889,15.971,3.321c3.628,1.185,7.073,2.462,10.387,3.775
		c-5.554-5.91-9.232-10.57-10.924-13.859c0,0-0.692-1.431-0.919-1.902c-8.953-5.115-16.855-7.929-23.539-8.418
		C35.199,73.743,38.302,80.844,43.204,88.35L43.204,88.35z"/>
	<path d="M57.487,51.056c0.045,7.895,0.106,18.707,5.5,29.19c2.129,4.135,7.829,10.774,16.936,19.733
		c4.583,2.25,7.919,4.217,10.355,5.653l2.452,1.425c0,0,1.866,1.195,3.226,2.066c-5.882-20.428-9.527-29.725-14.718-37.641
		c-6.988-10.656-18.297-19.495-23.8-23.438C57.459,49.331,57.487,51.056,57.487,51.056L57.487,51.056z"/>
	<path d="M13.348,112.89c6.227,2.395,25.66,9.723,34.136,11.188c2.562,0.441,7.664,0.738,15.119,0.887
		c-5.494-1.477-10.492-3.265-14.906-5.346c-8.658-4.08-15.015-7.221-19.99-9.873C23.806,110.478,19.352,111.456,13.348,112.89
		L13.348,112.89z"/>
	<path d="M8.169,91.459c9.538,8.229,15.729,12.38,41.287,24.424c11.534,5.437,27.34,8.802,44.506,9.476
		c0-0.002,13.771-0.205,19.247-0.286c-3.194-2.048-22.636-14.496-22.636-14.496c-0.002-0.001-2.391-1.39-2.391-1.39
		c-5.248-3.098-14.032-8.279-30.289-13.594C41.558,90.253,14.938,91.133,8.169,91.459L8.169,91.459z"/>
	<path d="M31.943,142.583v-8.953v-0.055h-1.146h-1.229v0.055v8.79c0,4.995,0,5.896,0.027,7.015H29.54
		c-1.119-1.393-1.993-2.401-3.084-3.687c-1.884-2.185-5.05-5.923-10.674-12.474H15.51v12.037v9.498v0.056h1.119h1.228v-0.056v-9.308
		c0-4.396,0-5.433-0.027-6.47h0.055c1.311,1.691,2.103,2.563,3.331,3.959c1.91,2.238,5.022,5.867,10.427,12.146h0.3V142.583
		L31.943,142.583z M51.105,148.887c1.801,4.505,2.292,5.732,2.347,5.925v0.055h1.42h1.366v-0.055c-0.055-0.191-0.547-1.42-3.822-9.5
		L47.53,133.22h-0.328l-5.022,12.037c-3.385,8.162-3.958,9.391-4.013,9.555v0.055h1.419h1.202v-0.055
		c0.082-0.191,0.573-1.42,2.429-5.924L51.105,148.887L51.105,148.887z M44.063,146.76l0.027-0.082
		c2.403-6.034,2.812-7.071,3.14-8.079h0.054c0.301,1.008,0.683,2.045,3.003,8.079v0.082H44.063L44.063,146.76z M64.836,145.312
		v9.473v0.082h1.282h1.255v-0.055v-9.5v-9.526h4.45h1.748h0.136v-2.209h-6.579h-2.156h-6.47v2.209h0.136h1.666h4.531L64.836,145.312
		L64.836,145.312z M88.393,148.887c1.803,4.505,2.293,5.732,2.349,5.925v0.055h1.419h1.364v-0.055c-0.055-0.191-0.546-1.42-3.82-9.5
		l-4.887-12.092H84.49l-5.022,12.037c-3.386,8.162-3.958,9.391-4.013,9.555v0.055h1.418h1.203v-0.055
		c0.081-0.191,0.573-1.42,2.43-5.924L88.393,148.887L88.393,148.887z M81.352,146.76l0.027-0.082
		c2.402-6.034,2.811-7.071,3.138-8.079h0.055c0.3,1.008,0.682,2.045,3.002,8.079v0.082H81.352L81.352,146.76z M108.401,149.543
		c0-2.374-1.064-3.795-2.703-5.321c-1.118-1.039-2.02-1.666-2.811-2.514c-0.764-0.818-1.201-1.609-1.201-2.782
		c0-1.938,1.638-3.194,3.849-3.194c0.354,0,0.792,0.026,1.147,0.108c0.271,0.027,0.683,0.136,0.9,0.22h0.053
		c0.027-1.064,0.055-1.529,0.11-2.32c-0.547-0.163-1.448-0.272-2.431-0.272c-4.066,0-6.277,2.675-6.277,5.54
		c0,2.021,0.738,3.331,2.32,4.887c0.817,0.791,1.584,1.393,2.539,2.211c1.281,1.121,1.8,2.131,1.8,3.386
		c0,2.13-1.828,3.386-3.82,3.386c-0.817,0-1.582-0.109-2.129-0.247c-0.354-0.106-0.683-0.218-0.929-0.326h-0.055
		c-0.056,0.954-0.056,1.228-0.108,2.374c0.79,0.271,2.13,0.49,3.192,0.49c4.34,0,6.551-2.837,6.551-5.596v-0.028H108.401z
		 M131.795,142.583v-8.953v-0.055h-1.256h-1.282v0.055v8.571v0.709h-10.729v-0.709v-8.571v-0.055h-1.256h-1.283v0.055v8.953v2.729
		v9.5v0.055h1.311h1.229v-0.055v-8.98v-0.71h10.729v0.71v8.98v0.055h1.311h1.229v-0.055v-9.5L131.795,142.583L131.795,142.583z
		 M150.957,148.887c1.801,4.505,2.292,5.732,2.347,5.925v0.055h1.42h1.365v-0.055c-0.056-0.191-0.547-1.42-3.822-9.5l-4.885-12.092
		h-0.328l-5.021,12.037c-3.385,8.162-3.958,9.391-4.014,9.555v0.055h1.422h1.199v-0.055c0.082-0.191,0.573-1.42,2.43-5.924
		L150.957,148.887L150.957,148.887z M143.913,146.76l0.027-0.082c2.402-6.034,2.812-7.071,3.14-8.079h0.056
		c0.299,1.008,0.684,2.045,3.004,8.079v0.082H143.913L143.913,146.76z M160.894,133.466c-0.791,0-1.528,0.682-1.528,1.639
		c0,0.735,0.491,1.281,1.036,1.392c0.19,0.055,0.272,0.136,0.272,0.299c0,0.384-0.188,0.985-0.571,1.612
		c-0.246,0.354-0.492,0.709-0.711,0.928l0.383,0.438c0.547-0.328,1.229-0.955,1.719-1.61c0.438-0.627,0.984-1.64,0.984-2.757
		c0-1.256-0.684-1.938-1.558-1.938L160.894,133.466L160.894,133.466z M178.362,149.543c0-2.374-1.064-3.795-2.702-5.321
		c-1.119-1.039-2.021-1.666-2.812-2.514c-0.767-0.818-1.203-1.609-1.203-2.782c0-1.938,1.639-3.194,3.852-3.194
		c0.354,0,0.793,0.026,1.146,0.108c0.272,0.027,0.683,0.136,0.899,0.22h0.056c0.026-1.064,0.055-1.529,0.108-2.32
		c-0.546-0.163-1.446-0.272-2.431-0.272c-4.066,0-6.277,2.675-6.277,5.54c0,2.021,0.736,3.331,2.318,4.887
		c0.82,0.791,1.582,1.393,2.541,2.211c1.281,1.121,1.801,2.131,1.801,3.386c0,2.13-1.829,3.386-3.822,3.386
		c-0.818,0-1.582-0.109-2.128-0.247c-0.354-0.106-0.683-0.218-0.929-0.326h-0.055c-0.055,0.954-0.055,1.228-0.107,2.374
		c0.79,0.271,2.128,0.49,3.191,0.49c4.342,0,6.551-2.837,6.551-5.596v-0.028H178.362z"/>
</g>
</svg>
