<?xml version="1.0" encoding="utf-8"?>
<!-- Generator: Adobe Illustrator 16.0.0, SVG Export Plug-In . SVG Version: 6.00 Build 0)  -->
<!DOCTYPE svg PUBLIC "-//W3C//DTD SVG 1.1//EN" "http://www.w3.org/Graphics/SVG/1.1/DTD/svg11.dtd">
<svg version="1.1" id="Layer_1" xmlns="http://www.w3.org/2000/svg" xmlns:xlink="http://www.w3.org/1999/xlink" x="0px" y="0px"
	 width="172.994px" height="178.685px" viewBox="211.956 331.756 172.994 178.685"
	 enable-background="new 211.956 331.756 172.994 178.685" xml:space="preserve">
<g id="Layer_2">
</g>
<g id="Layer_1_1_">
	<g>
		<path d="M377.992,343.904l-21.024-5.832l-32.688-5.04c-35.784-3.168-70.416-0.432-103.896,8.136l-7.776,1.944l-0.36,8.208
			c-2.376,54.432,9.72,96.84,36.936,127.584c8.568,9.72,18.288,17.855,28.8,23.76l10.152,5.04l7.416,2.736h0.36l0.36-0.433
			l28.368-7.344c44.784-26.856,64.584-76.32,59.544-148.68L377.992,343.904L377.992,343.904z M370.576,349.376v2.304
			c1.943,52.56-10.152,93.384-35.064,122.543c-8.136,8.929-16.704,16.345-26.424,22.177c-4.68,2.735-9,4.68-12.384,5.832
			l-1.152,0.432l-1.224-0.432l-12.816-6.192c-9.72-5.472-18.72-12.888-26.856-22.176c-25.704-28.8-37.368-69.624-35.064-122.184
			v-2.736l2.376-0.792c32.688-8.568,66.528-10.872,102.312-7.776c17.496,1.944,32.256,4.68,43.991,8.208L370.576,349.376z"/>
		<path fill="#FFFBF7" d="M370.576,351.68v-2.304l-2.304-0.792c-11.736-3.528-26.496-6.264-43.992-8.208
			c-35.784-3.096-69.624-0.792-102.312,7.776l-2.376,0.792v2.736c-2.304,52.56,9.36,93.384,35.064,122.184
			c8.136,9.288,17.136,16.704,26.856,22.176l12.816,6.192l1.224,0.432l1.152-0.432c3.384-1.152,7.704-3.097,12.384-5.832
			c9.72-5.832,18.288-13.248,26.424-22.177C360.424,445.064,372.52,404.24,370.576,351.68L370.576,351.68z M363.592,354.416
			c0.36,10.512,0,21.816-1.224,33.048H227.44c-1.224-10.512-1.224-21.384-1.224-33.048c28.8-6.984,58.392-9.72,89.496-7.416
			C333.568,348.152,349.552,350.888,363.592,354.416l-1.943,40.464c-4.681,32.616-15.984,58.68-34.272,78.192
			c-10.152,10.872-21.024,18.288-31.824,22.176c-11.304-4.32-22.248-11.664-32.76-22.608c-18.648-19.08-29.952-45.144-34.632-77.76
			h133.488L363.592,354.416z"/>
		<path d="M362.368,387.464c1.224-11.232,1.584-22.536,1.224-33.048c-14.04-3.528-30.023-6.264-47.88-7.416
			c-31.104-2.304-60.696,0.432-89.496,7.416c0,11.664,0,22.536,1.224,33.048H362.368L362.368,387.464z M354.232,358.304
			l-0.792,22.176H232.84l-0.792-19.08v-3.096c24.552-5.472,49.464-7.416,75.096-6.264
			C324.28,352.832,339.832,355.208,354.232,358.304z"/>
		
			<radialGradient id="SVGID_1_" cx="116.9556" cy="470" r="131.8597" gradientTransform="matrix(1 0 0 -1 54 807)" gradientUnits="userSpaceOnUse">
			<stop  offset="0" style="stop-color:#D1D3D4"/>
			<stop  offset="0.08" style="stop-color:#D1D3D4"/>
			<stop  offset="0.34" style="stop-color:#808285"/>
			<stop  offset="0.9" style="stop-color:#000000"/>
			<stop  offset="1" style="stop-color:#000000"/>
		</radialGradient>
		<path fill="url(#SVGID_1_)" d="M353.44,380.48l0.792-22.176c-14.4-3.096-29.952-5.472-47.089-6.264
			c-25.631-1.152-50.543,0.792-75.096,6.264v3.096l0.792,19.08H353.44L353.44,380.48z M276.832,368.024l8.928,0.36l47.448-12.456
			L285.4,376.232c-8.568,3.456-14.4,3.456-16.704-0.792c-1.944-3.096-1.224-7.416,1.944-12.096l6.192-7.776
			C273.736,361.4,273.736,365.288,276.832,368.024z"/>
		<path fill="#FFFBF7" d="M285.76,368.384l-8.928-0.36c-3.096-2.736-3.096-6.624,0-12.456l-6.192,7.776
			c-3.168,4.68-3.888,9-1.944,12.096c2.304,4.248,8.136,4.248,16.704,0.792l47.808-20.304L285.76,368.384z"/>
		<path d="M327.376,473.072c18.288-19.513,29.592-45.576,34.272-78.192H228.16c4.68,32.616,15.984,58.68,34.632,77.76
			c10.512,10.944,21.456,18.288,32.76,22.608C306.352,491.36,317.224,483.944,327.376,473.072L327.376,473.072z M315.712,462.56
			l-3.528-4.319l-0.359-0.36l-16.272-19.872l-16.416,19.44v0.432l-1.872,2.736c-1.224,1.943-2.736,2.735-4.68,3.096h-0.792
			l-2.376,0.792h-3.888l-0.72-0.432l-2.016-1.152l-2.304-2.304l0.36-1.944c-12.456-15.624-20.592-35.063-25.272-58.32h114.768
			c-3.888,22.104-11.664,41.185-22.968,55.944l2.304,1.584l0.792,0.36l0.433,1.943c-0.433,1.225-1.944,2.376-4.681,3.528H325
			l-1.944,0.792h-3.888C318.016,464.072,316.504,463.352,315.712,462.56l-2.376-0.792l0.432,0.36l3.456,3.888l0.792,1.225
			c-7.775,7.775-15.983,13.607-24.408,17.063c-8.568-3.456-16.344-8.928-24.192-16.344H271c1.944,0,3.528-1.152,4.68-2.664
			l1.944-2.736v-0.432l18.288-21.744l17.424,21.384L315.712,462.56z"/>
		<path fill="#F8F8F5" d="M318.448,402.656l-0.792,0.432v0.36h-0.433l-0.359,0.792l-0.36,0.359v0.433l-0.792,0.72l-0.432,0.432
			l-0.792,0.792v0.36h-0.36l-0.36,0.792l-0.432,0.36l-0.359,0.432l-0.433,0.72l-0.36,0.433l-0.791,0.792v0.359h-0.36l-0.792,0.792
			v0.36h-0.36v0.432l-0.432,0.36l-0.36,0.432v0.36l-0.792,0.792v0.36h-0.359l-0.792,0.792v0.359h-0.433v0.792l-10.8,13.536
			l1.152,1.584l-13.248-15.912v-0.72h-0.36v-0.432l-0.36-0.36l-0.432-0.432h-0.36v-0.36v-0.36h-0.432v-0.432h-0.36l-0.36-0.36
			l-0.432-0.792v-0.359h-0.36v-0.433l-0.432-0.359l-0.36-0.433h-0.432v-0.359v-0.433l-0.36-0.359l-0.792-0.36l-0.36-0.792
			l-0.36-0.432v-0.36h-0.432v-0.36l-0.36-0.432h-0.432v-0.36v-0.432h-0.36l-0.432-0.36l-0.36-0.359l-0.36-0.433l-0.432-0.359v-0.433
			l-0.36-0.359l-0.432-0.792h-0.36v-0.36l-0.792-0.432v-0.36v-0.359l-0.792-0.433l-0.72,0.433l-0.792-0.433l-0.792,0.433
			l-0.792,0.359l-0.792,0.36l-0.72,0.432l-0.432,0.792v0.72l0.792,0.792v0.433l0.36,0.359l0.792,0.36v0.432l1.152,1.152l0.432,0.792
			l0.36,0.36l0.432,0.432l0.72,0.72v0.433l0.432,0.359l0.792,0.433v0.359l0.36,0.792h0.36h0.432v0.36v0.432l0.36,0.36l0.432,0.432
			l0.36,0.36l0.36,0.36l0.432,0.432v0.36l0.36,0.432l0.792,0.36v0.359l0.432,0.792h0.36l0.36,0.433v0.359l0.432,0.36l0.36,0.432
			h0.36l0.792,0.36l12.456,15.552l-0.72,0.72l-17.136,21.024l-0.792,0.792l-5.04-1.152l-3.528,0.36l-4.32,2.376l-0.36,1.944
			l2.304,2.304l2.016,1.152h3.888l1.512-0.36h-1.512l-0.792-0.36h3.888l1.944-0.792l4.68-5.111l0.36-0.36l17.496-21.024l0.432-0.359
			l0.36-0.433l0.432,0.433l-0.432,0.792l16.271,19.8h-0.359l-16.272-19.8l-1.152,1.512l16.272,19.872l0.36,0.36l3.527,4.319
			c0.792,0.792,1.944,1.152,3.097,1.513h3.888l0.792-0.36h-1.152c-1.224-0.36-2.735-1.152-3.527-1.944
			c0.792,0.792,1.943,1.152,3.096,1.584h3.888l0.433-0.432l4.248-3.096l-0.792-1.944l-2.305-1.584h-0.432l-3.456-0.36l-5.472,1.152
			l-0.36-0.36l-0.432-0.432l-0.721-0.792h-0.432l-17.855-21.744l13.176-15.912h0.432l0.36-0.359l0.359-0.433l0.433-0.792h0.359
			l0.433-0.72v-0.432l0.72-0.36l0.432-0.432v-0.36l0.36-0.36l0.432-0.432l0.36-0.36l0.432-0.432l0.36-0.36v-0.792h0.792l0.36-0.792
			v-0.359l0.792-0.433l0.359-0.359v-0.36l0.433-0.432l0.792-0.36v-0.792h0.359l0.36-0.792l0.432-0.359l0.792-0.792v-0.36l0.72-0.432
			l0.433-0.36v-0.432l0.792-0.721l0.359-0.792l-0.359-0.792l-1.225-0.359l-0.72-0.433l-0.432,0.433h-0.36l-0.792-0.433l-0.792,0.433
			v0.72l-0.792-0.36l-0.72,0.36V402.656L318.448,402.656z M314.488,457.448l0.432,0.432l-0.792-0.792L314.488,457.448
			L314.488,457.448z M274.528,408.92v0.36V408.92L274.528,408.92z M274.096,408.488l-4.68-5.832h-0.36v-0.36h0.36v0.36
			L274.096,408.488L274.096,408.488z M271,405.032h0.36H271L271,405.032z M270.208,403.808v0.433V403.808L270.208,403.808z
			 M276.832,411.656l-0.36-0.433h-0.432h0.432h0.36V411.656L276.832,411.656z M277.624,412.808l0.36,0.36l0.432,0.432h-0.432
			L277.624,412.808L277.624,412.808z M277.264,412.376h0.36H277.264L277.264,412.376z M278.416,413.96v-0.36l0.36,0.36v0.36v-0.36
			H278.416L278.416,413.96z M279.136,415.112v-0.36l0.432,0.36h0.36v0.432l-0.36-0.432H279.136L279.136,415.112z M280.36,415.904
			l0.36,0.359l0.432,0.433v0.359l0.36,0.433v0.359l12.456,15.12l-13.248-15.912v-0.792h-0.36V415.904l1.944,1.943h-0.432h0.432
			l0.792,0.36c-0.432,0-0.792,0-0.792-0.36L280.36,415.904z"/>
		<polygon fill="#FFFBF7" points="314.128,457.088 314.488,457.448 314.92,457.88 		"/>
		<path fill="#FFFBF7" d="M274.528,408.92v0.36V408.92z"/>
		<rect x="269.056" y="402.296" fill="#FFFBF7" width="0.36" height="0.36"/>
		<path fill="#FFFBF7" d="M271.36,405.032H271H271.36z"/>
		<path fill="#FFFBF7" d="M270.208,403.808v0.433V403.808z"/>
		<polygon fill="#FFFBF7" points="276.472,411.224 276.832,411.656 276.832,411.224 		"/>
		<path fill="#FFFBF7" d="M276.04,411.224h0.432H276.04z"/>
		<polygon fill="#FFFBF7" points="277.984,413.168 277.624,412.808 277.984,413.6 278.416,413.6 		"/>
		<path fill="#FFFBF7" d="M277.264,412.376h0.36H277.264z"/>
		<polygon fill="#FFFBF7" points="278.416,413.6 278.416,413.96 278.776,413.96 		"/>
		<path fill="#FFFBF7" d="M278.776,413.96v0.36V413.96z"/>
		<polygon fill="#FFFBF7" points="279.136,414.752 279.136,415.112 279.568,415.112 		"/>
		<polygon fill="#FFFBF7" points="279.928,415.544 279.928,415.112 279.568,415.112 		"/>
		<polygon fill="#FFFBF7" points="280.72,416.264 280.36,415.904 280.36,416.264 		"/>
		<polygon fill="#FFFBF7" points="280.72,416.264 280.72,417.056 293.968,432.968 281.512,417.848 281.512,417.488 281.152,417.056 
			281.152,416.696 		"/>
		<path fill="#FFFBF7" d="M281.872,417.848h0.432c0,0.36,0.36,0.36,0.792,0.36l-0.792-0.36H281.872z"/>
		
			<radialGradient id="SVGID_2_" cx="124" cy="436" r="135.2577" gradientTransform="matrix(1 0 0 -1 54 807)" gradientUnits="userSpaceOnUse">
			<stop  offset="0" style="stop-color:#D1D3D4"/>
			<stop  offset="0.08" style="stop-color:#D1D3D4"/>
			<stop  offset="0.34" style="stop-color:#808285"/>
			<stop  offset="0.9" style="stop-color:#000000"/>
			<stop  offset="1" style="stop-color:#000000"/>
		</radialGradient>
		<path fill="url(#SVGID_2_)" d="M317.656,403.088l0.792-0.432v-0.792l0.72-0.36l0.792,0.36v-0.721l0.792-0.432l0.792,0.432h0.36
			l0.432-0.432l0.72,0.432l1.225,0.36l0.359,0.792l0.36,0.792l-0.36,0.72l-0.792,0.433v0.359l-0.359,0.792h-0.433l-0.359,0.792
			l0.359,0.792l0.433,0.36l-0.433,1.152l-0.72,0.432v0.36l-0.432,0.359l-0.36,0.433l-0.432,0.359l-0.721,0.792v0.433l-0.432,0.72
			h-0.792v0.792l-0.36,0.432l-0.792,0.36v0.36l-0.359,0.432l-0.433,0.36l-0.359,0.432l-0.36,0.72l-0.432,0.433v0.359l-0.36,0.433
			l-0.792,0.359v0.36l-0.432,0.432l-0.721,0.36v0.432l-0.432,0.36l-0.36,0.359l-0.432,0.433l-0.36,0.72h-0.359v0.72l-0.433,0.433
			l-1.151,0.359l-10.512,12.456l16.775,20.232l0.72,0.792l0.792,0.792l5.473-1.152l3.456,0.36h0.432
			c11.304-14.76,19.08-33.84,22.968-55.944H235.576c4.68,23.256,12.816,42.696,25.272,58.32l4.32-2.376l3.528-0.36l5.04,1.152
			l0.792-0.792l17.136-21.024l-10.152-12.456l-0.792-0.359l-0.36-0.433l-0.432-0.359l-0.36-0.36l-0.432-0.359l-0.36-0.36
			l-0.36-0.432v-0.36l-0.792-0.36l-0.36-0.432v-0.36v-0.432h-0.432l-0.36-0.72l-0.432-0.433l-0.36-0.359l-0.432-0.433l-0.36-0.359
			l-0.36-0.36l-0.432-0.432v-0.36l-0.792-0.432l-0.36-0.36v-0.36l-0.792-1.224l-0.36-0.36l-0.432-0.359l-0.36-0.433v-0.359
			l-1.152-0.792v-0.433v-0.359h-0.792l-0.36-0.792v-0.36l-0.792-0.432v-0.721l0.36-0.792v-0.432l-0.792-0.36l-0.36-0.359V404.6
			l-0.792-0.792v-0.72l0.432-0.792l0.72-0.432l0.792-0.36l0.792-0.359l0.792-0.433l0.792,0.433l0.72-0.433l0.792,0.433v0.359
			l0.432,0.36h0.36v0.432l0.36,0.792l0.432,0.36h0.36l0.432,0.792v0.359h0.36l0.792,0.792v0.36h0.36l0.792,0.792v0.432v0.36h0.432
			l0.36,0.792l0.36,0.36l0.792,0.792l0.36,0.359l0.792,0.792v0.433l0.432,0.359l0.36,0.792l0.432,0.36h0.36l0.36,0.792v0.432h0.432
			l0.792,0.721v0.432h0.36v0.36l0.36,0.792h0.432v0.359h0.36v0.792l11.304,13.536l10.8-13.536v-0.792h0.432v-0.359l0.792-0.792h0.36
			v-0.36l0.792-0.792v-0.36l0.36-0.432l0.432-0.36v-0.432h0.36v-0.36l0.792-0.792h0.359v-0.359l0.792-0.792l0.36-0.433l0.432-0.72
			l0.36-0.432l0.432-0.36l0.36-0.792h0.36v-0.36l0.792-0.792l0.432-0.432l0.792-0.72V404.6l0.36-0.359l0.359-0.792h0.433V403.088
			L317.656,403.088z"/>
		<polygon fill="#FFFBF7" points="320.392,408.92 320.752,408.488 320.752,408.128 321.544,407.696 321.904,407.336 
			321.904,406.976 322.336,406.544 322.696,406.184 323.056,405.392 323.488,405.392 323.848,404.6 323.848,404.24 324.64,403.808 
			325,403.088 324.64,402.296 324.28,403.088 323.488,403.808 323.488,404.24 323.056,404.6 322.336,405.032 322.336,405.392 
			321.544,406.184 321.112,406.544 320.752,407.336 320.392,407.336 320.392,408.128 319.6,408.488 319.168,408.92 319.168,409.28 
			318.808,409.64 318.016,410.072 318.016,410.432 317.656,411.224 316.864,411.224 316.864,412.016 316.504,412.376 
			316.072,412.808 315.712,413.168 315.28,413.6 314.92,413.96 314.92,414.32 314.488,414.752 313.768,415.112 313.768,415.544 
			313.336,416.264 312.976,416.264 312.544,417.056 312.184,417.488 311.824,417.848 311.392,417.848 298.216,433.76 
			316.072,455.504 316.504,455.504 299.729,435.272 298.576,434.12 311.824,418.208 312.976,417.848 313.336,417.488 
			313.336,417.056 313.768,416.696 314.128,416.264 314.488,415.904 314.92,415.544 315.28,415.112 315.28,414.752 316.072,414.32 
			316.504,413.6 316.504,413.168 317.224,412.808 317.656,412.376 317.656,412.016 318.016,411.656 318.448,411.224 
			318.808,410.864 319.168,410.432 319.6,410.072 319.6,409.28 		"/>
		<polygon points="320.752,408.488 320.392,408.92 319.6,409.28 319.6,410.072 319.168,410.432 318.808,410.864 318.448,411.224 
			318.016,411.656 317.656,412.016 317.656,412.376 317.224,412.808 316.504,413.168 316.504,413.6 316.072,414.32 315.28,414.752 
			315.28,415.112 314.92,415.544 314.488,415.904 314.128,416.264 313.768,416.696 313.336,417.056 313.336,417.488 
			312.976,417.848 311.824,418.208 298.576,434.12 299.729,435.272 310.24,422.816 311.392,422.456 311.824,422.024 
			311.824,421.304 312.184,421.304 312.544,420.584 312.976,420.152 313.336,419.792 313.768,419.432 313.768,419 314.488,418.64 
			314.92,418.208 314.92,417.848 315.712,417.488 316.072,417.056 316.072,416.696 316.504,416.264 316.864,415.544 
			317.224,415.112 317.656,414.752 318.016,414.32 318.016,413.96 318.808,413.6 319.168,413.168 319.168,412.376 319.96,412.376 
			320.392,411.656 320.392,411.224 321.112,410.432 321.544,410.072 321.904,409.64 322.336,409.28 322.336,408.92 323.056,408.488 
			323.488,407.336 323.056,406.976 322.696,406.184 322.336,406.544 321.904,406.976 321.904,407.336 321.544,407.696 
			320.752,408.128 		"/>
		<path fill="#FFFBF7" d="M312.976,456.296h0.36l-16.272-19.8l0.432-0.792l-0.432-0.432l-0.36,0.432l-0.432,0.36l-17.496,21.023
			l-0.36,0.36l-4.68,5.111l-1.944,0.792h-3.888l0.792,0.36h1.512l-1.512,0.36h-3.888l0.72,0.432h3.888l2.376-0.792h0.792
			c1.944-0.36,3.456-1.152,4.68-3.096l1.872-2.736v-0.432l16.416-19.44l1.152-1.512L312.976,456.296z"/>
		<polygon fill="#FFFBF7" points="317.224,456.296 317.656,456.728 318.016,457.088 		"/>
		<path fill="#FFFBF7" d="M315.712,462.56c0.792,0.792,2.304,1.513,3.456,1.944h3.888l1.944-0.792h1.224
			c2.736-1.152,4.248-2.304,4.681-3.528l-0.433-1.943l-0.792-0.36l0.792,1.944l-4.248,3.096l-0.432,0.432h-3.888
			c-1.152-0.432-2.305-0.792-3.097-1.584c0.792,0.792,2.305,1.584,3.528,1.944h1.152l-0.792,0.36h-3.889
			C317.656,463.712,316.504,463.352,315.712,462.56z"/>
		<polygon fill="#FFFBF7" points="272.584,401.864 272.152,401.504 272.152,401.864 272.944,402.296 272.944,402.656 
			273.304,402.656 273.736,403.448 274.096,403.808 274.096,404.24 274.528,404.6 274.528,404.24 274.096,403.448 273.736,403.448 
			273.304,403.088 272.944,402.296 272.944,401.864 		"/>
		<polygon fill="#FFFBF7" points="274.888,404.6 274.528,404.6 274.888,405.032 275.248,405.392 275.68,405.752 275.68,405.392 		
			"/>
		<polygon fill="#FFFBF7" points="276.04,406.544 276.472,406.544 276.832,406.976 276.832,406.544 276.04,405.752 276.04,406.184 
					"/>
		<path fill="#FFFBF7" d="M276.832,406.976v0.36V406.976z"/>
		<polygon fill="#FFFBF7" points="277.264,407.336 276.832,407.336 277.264,407.336 277.264,407.696 277.624,408.128 
			277.984,408.92 278.776,409.28 277.984,408.488 277.624,408.128 		"/>
		<path fill="#FFFBF7" d="M267.112,404.6v0.433V404.6z"/>
		<path d="M268.696,408.488l0.36,0.792h0.792v0.359v0.433l1.152,0.792v0.359l0.36,0.433l0.432,0.359l0.36,0.36l0.792,1.224v0.36
			l0.36,0.36l0.792,0.432v0.36l0.432,0.432l0.36,0.36l0.36,0.359l0.432,0.433l0.36,0.359l0.432,0.433l0.36,0.72h0.432v0.432V419
			l0.36,0.432l0.792,0.36v0.36l0.36,0.432l0.36,0.36l0.432,0.359l0.36,0.36l0.432,0.359l0.36,0.433l0.792,0.36l10.152,12.455
			l0.72-0.72L279.928,419c-0.36,0-0.792,0-0.792-0.36h-0.36l-0.36-0.432l-0.432-0.36v-0.359l-0.36-0.433h-0.36l-0.432-0.792v-0.359
			l-0.792-0.36l-0.36-0.432v-0.36l-0.432-0.432l-0.36-0.36l-0.36-0.36l-0.432-0.432l-0.36-0.359v-0.433l-0.432-0.36h-0.36
			l-0.36-0.791v-0.36l-0.792-0.433l-0.432-0.359v-0.432l-0.72-0.721l-0.432-0.432l-0.36-0.36l-0.432-0.792l-1.152-1.151l-0.36,0.792
			v0.72l0.792,0.432L268.696,408.488L268.696,408.488z"/>
		<polygon fill="#FFFBF7" points="279.136,409.64 279.136,410.072 279.136,410.432 279.568,410.432 279.928,410.864 
			279.928,410.432 		"/>
		<polygon fill="#FFFBF7" points="280.72,412.016 280.36,411.224 280.36,411.656 280.72,411.656 280.72,412.016 281.152,412.808 
			281.512,413.168 281.872,413.168 281.872,413.6 281.872,413.168 281.512,412.376 281.152,412.376 		"/>
		<polygon fill="#FFFBF7" points="273.304,412.016 273.736,412.376 273.736,412.016 		"/>
		<path fill="#FFFBF7" d="M275.68,414.752v0.36V414.752z"/>
		<path fill="#FFFBF7" d="M279.136,418.64c0,0.36,0.432,0.36,0.792,0.36L279.136,418.64h-0.36H279.136z"/>
		<polygon fill="#FFFBF7" points="282.304,413.6 282.304,413.96 282.304,414.32 282.664,414.32 283.096,414.752 283.096,414.32 		
			"/>
		<polygon fill="#FFFBF7" points="283.456,414.752 283.096,414.752 283.456,415.112 		"/>
		<polygon fill="#FFFBF7" points="284.608,417.056 284.608,416.264 284.248,416.264 284.248,415.904 283.816,415.904 
			283.456,415.112 283.456,415.544 283.816,415.544 283.816,416.264 297.064,432.176 295.912,430.592 		"/>
		
			<radialGradient id="SVGID_3_" cx="191" cy="389" r="68.8666" gradientTransform="matrix(1 0 0 -1 54 807)" gradientUnits="userSpaceOnUse">
			<stop  offset="0" style="stop-color:#D1D3D4"/>
			<stop  offset="0.08" style="stop-color:#D1D3D4"/>
			<stop  offset="0.34" style="stop-color:#808285"/>
			<stop  offset="0.9" style="stop-color:#000000"/>
			<stop  offset="1" style="stop-color:#000000"/>
		</radialGradient>
		<path fill="url(#SVGID_3_)" d="M313.768,462.128l-0.432-0.36l-17.424-21.384l-18.288,21.744v0.432l-1.944,2.736
			c-1.152,1.512-2.736,2.664-4.68,2.664h-1.584c7.848,7.416,15.624,12.888,24.192,16.344c8.424-3.456,16.632-9.288,24.408-17.063
			l-0.792-1.225L313.768,462.128L313.768,462.128z M292.024,474.224c0-2.735,1.152-3.888,3.888-3.888
			c2.304,0,3.456,1.152,3.456,3.888c0,2.305-1.152,3.889-3.456,3.889C293.176,478.112,292.024,476.528,292.024,474.224z"/>
		<path fill="#FFFBF7" d="M295.912,470.336c-2.736,0-3.888,1.152-3.888,3.888c0,2.305,1.152,3.889,3.888,3.889
			c2.304,0,3.456-1.584,3.456-3.889C299.368,471.488,298.216,470.336,295.912,470.336z"/>
	</g>
</g>
</svg>
