<?xml version="1.0" encoding="utf-8"?>
<!-- Generator: Adobe Illustrator 16.0.0, SVG Export Plug-In . SVG Version: 6.00 Build 0)  -->
<!DOCTYPE svg PUBLIC "-//W3C//DTD SVG 1.1//EN" "http://www.w3.org/Graphics/SVG/1.1/DTD/svg11.dtd">
<svg version="1.1" id="Layer_1" xmlns="http://www.w3.org/2000/svg" xmlns:xlink="http://www.w3.org/1999/xlink" x="0px" y="0px"
	 width="175.748px" height="74.399px" viewBox="8.504 59.179 175.748 74.399" enable-background="new 8.504 59.179 175.748 74.399"
	 xml:space="preserve">
<g>
	<path fill="#00984A" d="M135.424,109.653c16.737,0.375,32.091-2.481,43.519-7.444c-12.062,4.067-26.953,6.291-42.971,5.944
		c-18.296-0.434-34.977-4.155-47.559-9.956C99.841,104.835,116.638,109.222,135.424,109.653L135.424,109.653z"/>
	<path fill="#00984A" d="M124.284,103.911l-1.126-0.028l-0.201-1.327l-1.991-0.059l-0.664,1.328l-0.924-0.029l2.771-5.482
		l1.24,0.028L124.284,103.911L124.284,103.911z M122.897,101.776l-0.402-2.482l-1.184,2.453L122.897,101.776L122.897,101.776z
		 M125.785,103.94l-0.953-0.029l1.039-5.512l0.953,0.027L125.785,103.94L125.785,103.94z M128.699,99.409l-0.952-0.028l0.202-0.981
		l0.952,0.028L128.699,99.409L128.699,99.409z M127.834,103.998l-0.953-0.029l0.779-4.126l0.952,0.028L127.834,103.998
		L127.834,103.998z M134.933,104.144l-0.951-0.029l0.461-2.481c0.029-0.202,0.059-0.347,0.059-0.434
		c0.029-0.347-0.173-0.548-0.548-0.548c-0.606,0-1.039,0.52-1.241,1.645l-0.347,1.789h-0.896l0.434-2.395
		c0.058-0.289,0.087-0.491,0.087-0.578c0-0.346-0.146-0.52-0.49-0.52c-0.26-0.029-0.521,0.115-0.751,0.346
		c-0.23,0.261-0.434,0.81-0.605,1.675l-0.26,1.413h-0.924l0.779-4.125l0.895,0.027l-0.173,0.924c0.144-0.316,0.317-0.576,0.577-0.75
		c0.23-0.201,0.52-0.289,0.779-0.289c0.635,0.029,0.979,0.347,1.066,1.011c0.404-0.636,0.895-0.952,1.473-0.952
		c0.347,0,0.605,0.115,0.809,0.316c0.23,0.231,0.316,0.492,0.316,0.81c0,0.173-0.028,0.433-0.115,0.808L134.933,104.144
		L134.933,104.144z M139.666,103.074c-0.403,0.837-1.011,1.27-1.817,1.241c-0.55,0-0.981-0.203-1.271-0.521
		c-0.318-0.347-0.462-0.81-0.435-1.356c0-0.691,0.231-1.299,0.606-1.76c0.403-0.462,0.924-0.693,1.528-0.693
		c0.55,0,0.981,0.203,1.242,0.55c0.287,0.346,0.403,0.837,0.403,1.442c0,0.086,0,0.201-0.028,0.316l-2.828-0.059
		c-0.029,0.117-0.029,0.231-0.029,0.317c-0.028,0.289,0.059,0.55,0.202,0.75c0.145,0.202,0.347,0.289,0.635,0.289
		c0.435,0.029,0.751-0.229,0.981-0.75L139.666,103.074L139.666,103.074z M139.06,101.688c0.028-0.691-0.229-1.039-0.779-1.067
		c-0.547,0-0.922,0.347-1.096,1.039L139.06,101.688L139.06,101.688z M143.733,104.344l-0.922-0.028l0.489-2.453
		c0.029-0.201,0.029-0.346,0.058-0.489c0-0.146-0.058-0.289-0.145-0.375c-0.059-0.116-0.201-0.174-0.375-0.174
		c-0.26,0-0.52,0.114-0.75,0.403c-0.201,0.26-0.347,0.664-0.462,1.213l-0.347,1.847l-0.924-0.028l0.779-4.099h0.865l-0.202,0.981
		c0.289-0.49,0.521-0.779,0.751-0.896c0.202-0.115,0.434-0.173,0.635-0.173c0.317,0.027,0.549,0.115,0.779,0.347
		c0.202,0.201,0.317,0.49,0.317,0.865c0,0.146-0.029,0.347-0.115,0.664L143.733,104.344L143.733,104.344z M146.765,104.431
		c-0.26,0.029-0.461,0.029-0.576,0.029c-0.375,0-0.664-0.087-0.838-0.26c-0.172-0.174-0.26-0.404-0.26-0.635
		c0-0.146,0.059-0.377,0.115-0.752l0.348-1.816h-0.605l0.144-0.751h0.636l0.26-1.097l0.837-0.028l-0.229,1.153l0.895,0.028
		l-0.145,0.722h-0.896l-0.347,1.818c-0.028,0.23-0.058,0.375-0.058,0.434c0,0.26,0.173,0.404,0.577,0.404c0.057,0,0.173,0,0.288,0
		L146.765,104.431L146.765,104.431z M149.218,104.575c-0.316,0-0.605-0.088-0.895-0.231s-0.49-0.346-0.635-0.663
		c-0.146-0.289-0.203-0.635-0.203-1.039c0.029-0.664,0.23-1.24,0.636-1.703c0.375-0.461,0.896-0.691,1.528-0.691
		c0.521,0.029,0.925,0.202,1.213,0.549c0.316,0.346,0.434,0.809,0.434,1.414c0,0.577-0.201,1.125-0.576,1.645
		C150.344,104.344,149.824,104.575,149.218,104.575L149.218,104.575z M149.247,103.825c0.346,0,0.635-0.174,0.809-0.549
		c0.201-0.375,0.288-0.779,0.288-1.185c0.028-0.721-0.261-1.096-0.809-1.096c-0.375,0-0.664,0.201-0.837,0.604
		c-0.174,0.404-0.26,0.809-0.288,1.213c0,0.347,0.086,0.576,0.229,0.75C148.813,103.737,149.017,103.825,149.247,103.825
		L149.247,103.825z M152.276,103.306c0.145,0.434,0.461,0.635,0.951,0.663c0.262,0,0.435-0.058,0.606-0.144
		c0.146-0.116,0.202-0.231,0.202-0.404c0-0.115-0.029-0.202-0.145-0.26c-0.086-0.087-0.23-0.145-0.461-0.23
		c-0.377-0.087-0.664-0.201-0.838-0.289c-0.174-0.086-0.316-0.23-0.434-0.404c-0.115-0.172-0.174-0.403-0.174-0.635
		c0-0.347,0.146-0.664,0.434-0.922c0.289-0.261,0.664-0.377,1.154-0.377c0.809,0.029,1.386,0.377,1.703,1.012l-0.81,0.229
		c-0.173-0.347-0.462-0.548-0.864-0.548c-0.203,0-0.348,0.027-0.492,0.115c-0.114,0.086-0.201,0.201-0.201,0.346
		c0,0.116,0.029,0.202,0.087,0.26c0.058,0.059,0.202,0.146,0.375,0.202c0.462,0.146,0.778,0.261,0.981,0.347
		c0.201,0.115,0.375,0.26,0.489,0.434c0.116,0.173,0.175,0.375,0.175,0.605c0,0.403-0.175,0.721-0.463,0.98
		c-0.316,0.26-0.75,0.375-1.355,0.347c-0.924,0-1.529-0.403-1.789-1.126L152.276,103.306L152.276,103.306z"/>
	<path fill="#00984A" d="M160.501,89.799c-7.618-0.144-13.88,1.414-17.893,4.041c4.502-2.165,10.679-3.376,17.979-3.261
		c8.312,0.116,16.681,1.991,23.664,4.963C177.586,92.137,169.044,89.915,160.501,89.799L160.501,89.799z"/>
	<path fill="#E27827" d="M111.558,96.928c0.088,0,0.202,0,0.317,0c0.49,0,0.981-0.087,1.472-0.229
		C112.74,96.754,112.163,96.841,111.558,96.928L111.558,96.928z"/>
	<path fill="#E27827" d="M81.372,72.369c0,0.346,0.145,0.692,0.404,1.01c0.289,0.317,0.548,0.606,0.779,0.837
		c1.01,1.241,2.02,2.944,3.03,5.108c1.01,2.165,1.962,4.444,2.857,6.897c0.895,2.424,1.645,4.819,2.309,7.186
		c0.404,1.443,0.722,2.771,0.952,3.924c2.28-0.49,4.589-0.952,6.897-1.355c0.635-1.328,1.385-2.828,2.279-4.502
		c1.01-1.905,2.105-3.954,3.29-6.118c1.154-2.165,2.31-4.185,3.435-6.118c1.125-1.934,2.136-3.636,3.029-5.137
		c0.895-1.529,1.559-2.568,2.021-3.146c0.115-0.202,0.229-0.375,0.375-0.548c0.145-0.173,0.201-0.404,0.201-0.693
		c0-0.606-0.23-1.097-0.75-1.472c-0.49-0.404-1.01-0.577-1.5-0.577c-0.521,0-0.924,0.202-1.271,0.664
		c-0.346,0.433-0.634,0.837-0.923,1.183c-2.366,3.55-4.502,7.215-6.437,11.024c-1.934,3.78-3.896,7.532-5.857,11.255
		c-0.317-1.645-0.808-3.463-1.414-5.397c-0.635-1.962-1.328-3.925-2.136-5.858c-0.837-1.963-1.703-3.838-2.655-5.599
		c-0.953-1.789-1.992-3.29-3.117-4.531c-0.346-0.404-0.692-0.779-1.097-1.068c-0.404-0.289-0.865-0.433-1.442-0.433
		c-0.722,0-1.443,0.375-2.165,1.155C81.718,70.811,81.372,71.59,81.372,72.369L81.372,72.369z"/>
	<path fill="#E27827" d="M26.194,113.724c0.779,0,1.472-0.289,2.049-0.836c0.577-0.578,1.039-1.185,1.385-1.849
		c0.952-2.136,1.933-4.242,2.943-6.263c1.01-2.049,2.136-4.068,3.376-6.03c1.01-1.616,2.136-3.319,3.348-5.137
		c1.241-1.79,2.568-3.348,3.954-4.704c0.231-0.23,0.548-0.491,0.924-0.836c0.404-0.347,0.75-0.491,1.01-0.491
		c0.346,0,0.548,0.202,0.635,0.664c0.086,0.433,0.116,0.779,0.116,1.01c0,1.616-0.029,3.232-0.145,4.791
		c-0.116,1.558-0.173,3.174-0.173,4.79c0,1.068,0.029,2.251,0.115,3.55c0.086,1.271,0.346,2.481,0.75,3.607
		c0.433,1.125,1.039,2.049,1.876,2.799c0.491,0.491,1.097,0.81,1.847,0.981c3.117-1.328,6.262-2.568,9.465-3.752
		c0.52-0.461,1.039-0.896,1.616-1.299c2.915-2.049,1.76-6.896-1.125-3.318c-1.01,1.24-2.165,2.25-3.319,3.117
		c-1.154,0.864-2.28,1.297-3.405,1.297c-0.664,0-1.183-0.172-1.558-0.519c-0.375-0.317-0.635-0.751-0.808-1.241
		c-0.173-0.52-0.26-1.067-0.289-1.646c-0.029-0.577-0.029-1.125-0.029-1.646c0-1.961,0.058-3.925,0.145-5.887
		c0.116-1.962,0.173-3.925,0.173-5.887c0-0.606-0.029-1.356-0.087-2.279c-0.058-0.895-0.202-1.79-0.461-2.684
		c-0.231-0.895-0.635-1.645-1.125-2.251c-0.52-0.635-1.184-0.923-2.02-0.923c-1.068,0-2.309,0.606-3.752,1.847
		c-1.414,1.212-2.828,2.655-4.242,4.271c-1.386,1.645-2.713,3.29-3.896,4.964c-1.212,1.674-3.059,4.906-2.742,3.867
		c1.299-4.329,8.427-29.349-4.56-21.615c-13.102,7.763-12.669,14.862-6.032,12.121c4.444-1.818,7.215-6.839,6.839-3.78
		c-0.692,5.339-2.222,10.995-3.261,16.305c-0.866,4.388-1.328,8.629-1.328,12.784c0,0.549,0.145,1.039,0.433,1.473
		C25.126,113.521,25.559,113.724,26.194,113.724L26.194,113.724z"/>
	<path fill="#E27827" d="M72.425,77.996c0.895,0,1.616,0.26,2.165,0.779c0.577,0.548,1.01,1.184,1.356,1.934
		c0.317,0.75,0.548,1.587,0.664,2.453c-0.202,0.202-0.375,0.433-0.577,0.635c-1.183,1.183-2.395,2.251-3.636,3.146
		c-1.212,0.895-2.337,1.328-3.348,1.328c-0.664,0-1.183-0.346-1.558-1.039c-0.375-0.692-0.635-1.5-0.808-2.424
		c-0.145-0.837-0.231-1.674-0.289-2.482c0.577-0.895,1.183-1.674,1.847-2.396C69.453,78.631,70.838,77.996,72.425,77.996
		L72.425,77.996z M76.696,87.75c-0.058,0.577-0.144,1.183-0.26,1.79c-0.202,1.385-0.548,2.712-1.039,4.011
		c-0.462,1.27-1.097,2.511-1.847,3.636c-0.75,1.154-1.673,2.164-2.741,3.002c-0.549,0.433-1.155,0.836-1.79,1.125
		c-0.664,0.317-1.356,0.463-2.078,0.463c-0.837,0-1.529-0.231-2.106-0.723c-0.549-0.462-0.981-1.039-1.299-1.703
		c-0.317-0.691-0.52-1.414-0.635-2.25c-0.116-0.809-0.173-1.53-0.173-2.223c0-1.27,0.231-2.886,0.635-4.791
		c0.116-0.49,0.231-0.952,0.375-1.442c0.318,0.664,0.722,1.24,1.184,1.789c0.837,0.981,1.962,1.472,3.376,1.472
		c1.443,0,2.915-0.433,4.415-1.271C74.099,89.857,75.427,88.876,76.696,87.75L76.696,87.75z M80.304,83.884
		c0.086-0.116,0.173-0.202,0.26-0.317c1.125-1.386,2.078-2.626,2.857-3.694c0.289-0.433,0.664-1.01,1.154-1.674
		c0.462-0.692,0.693-1.27,0.693-1.76c0-1.068-0.433-1.616-1.328-1.616c-0.635,0-1.097,0.26-1.443,0.721
		c-0.346,0.491-0.635,0.952-0.924,1.385c-0.404,0.664-1.01,1.472-1.76,2.453c-0.259-1.097-0.635-2.136-1.125-3.088
		c-0.606-1.126-1.385-2.049-2.395-2.771c-1.01-0.722-2.309-1.097-3.867-1.097c-2.54,0-4.761,0.779-6.695,2.309
		c-1.934,1.559-3.579,3.434-4.935,5.685c-1.328,2.251-2.366,4.646-3.059,7.244c-0.692,2.568-1.039,4.935-1.039,7.042
		c0,1.241,0.116,2.54,0.404,3.867c0.289,1.355,0.722,2.568,1.356,3.637c0.606,1.066,1.443,1.934,2.482,2.654
		c0.086,0.058,0.202,0.115,0.317,0.174c4.415-1.559,8.917-3.002,13.477-4.3c0.231-0.289,0.491-0.578,0.693-0.896
		c1.125-1.501,2.049-3.146,2.799-4.878c0.721-1.731,1.241-3.549,1.587-5.425c0.347-1.876,0.491-3.723,0.491-5.599
		C80.304,83.941,80.304,83.913,80.304,83.884L80.304,83.884z"/>
	<path fill="#00984A" d="M173.921,97.331c-52.003-8.022-121.87,6.292-165.417,36.247C50.06,98.86,121.601,84.691,173.921,97.331
		L173.921,97.331L173.921,97.331z"/>
	<path fill="#E27827" d="M146.649,80.565c0-1.154-0.49-1.731-1.443-1.76c-0.663,0-1.184,0.23-1.559,0.75
		c-0.347,0.491-0.692,0.981-0.98,1.443c-0.548,0.837-1.355,1.934-2.425,3.29c-1.097,1.356-2.279,2.684-3.521,3.954
		c-1.271,1.241-2.568,2.337-3.896,3.29c-1.327,0.924-2.512,1.385-3.607,1.356c-0.722-0.029-1.27-0.404-1.674-1.183
		c-0.375-0.75-0.664-1.616-0.865-2.626c-0.174-0.981-0.26-1.962-0.316-2.943c-0.029-0.953-0.029-1.674-0.029-2.165
		c0-1.558,0.115-3.232,0.316-4.993c0.203-1.789,0.55-3.434,1.039-4.993c0.23-0.664,0.578-1.529,0.981-2.597
		c0.433-1.067,0.636-1.933,0.636-2.597c0-0.606-0.231-1.01-0.664-1.183c-0.463-0.202-0.924-0.289-1.414-0.317
		c-0.838,0-1.473,0.26-1.935,0.808c-0.462,0.577-0.837,1.183-1.125,1.847c-0.317,0.577-0.751,1.5-1.299,2.713
		c-0.577,1.212-1.271,2.54-2.05,3.954c-0.778,1.443-1.615,2.915-2.48,4.415c-0.865,1.53-1.761,2.886-2.654,4.098
		c-0.896,1.212-1.791,2.222-2.627,3.001c-0.836,0.808-1.588,1.184-2.252,1.184c-0.548-0.029-0.865-0.289-0.979-0.837
		c-0.146-0.548-0.202-1.01-0.202-1.356c0-3.434,0.691-6.637,2.078-9.581c1.385-2.943,3.261-5.599,5.599-7.936
		c1.327-1.356,2.741-2.54,4.214-3.55c1.471-1.039,3-1.991,4.646-2.915c0.229-0.115,0.433-0.26,0.635-0.404
		c0.173-0.145,0.261-0.375,0.261-0.664c0-0.664-0.348-1.298-0.981-1.934c-0.664-0.606-1.327-0.923-1.991-0.952
		c-2.654-0.058-5.193,0.808-7.646,2.54c-2.424,1.76-4.59,3.954-6.494,6.58c-1.875,2.626-3.404,5.426-4.56,8.427
		c-1.126,2.973-1.702,5.627-1.702,7.994c0,0.837,0.086,1.79,0.23,2.886c0.145,1.096,0.404,2.106,0.808,3.088
		c0.375,0.981,0.953,1.789,1.675,2.481c0.461,0.433,1.01,0.75,1.646,0.895c1.096-0.086,2.192-0.202,3.29-0.317
		c0.461-0.202,0.952-0.461,1.413-0.808c1.241-0.866,2.425-1.934,3.579-3.146c1.125-1.241,2.164-2.54,3.115-3.867
		c0.924-1.328,1.703-2.453,2.28-3.319c-0.058,1.068-0.028,2.424,0.115,4.011c0.114,1.587,0.403,3.146,0.896,4.617
		c0.201,0.635,0.461,1.241,0.722,1.818c4.473-0.145,8.889-0.115,13.245,0.029c0.318-0.26,0.664-0.548,0.953-0.837
		c1.414-1.27,2.74-2.655,3.924-4.127c1.213-1.5,2.252-2.799,3.089-3.924c0.289-0.462,0.692-1.039,1.212-1.761
		C146.39,81.719,146.649,81.113,146.649,80.565L146.649,80.565z"/>
</g>
</svg>
