<?xml version="1.0" encoding="utf-8"?>
<!-- Generator: Adobe Illustrator 16.0.0, SVG Export Plug-In . SVG Version: 6.00 Build 0)  -->
<!DOCTYPE svg PUBLIC "-//W3C//DTD SVG 1.1//EN" "http://www.w3.org/Graphics/SVG/1.1/DTD/svg11.dtd">
<svg version="1.1" id="Layer_1" xmlns="http://www.w3.org/2000/svg" xmlns:xlink="http://www.w3.org/1999/xlink" x="0px" y="0px"
	 width="176.04px" height="85.087px" viewBox="271.358 317.834 176.04 85.087"
	 enable-background="new 271.358 317.834 176.04 85.087" xml:space="preserve">
<g>
	<path fill="#ED1C2E" stroke="#FDB945" stroke-width="3.7524" stroke-miterlimit="2.6131" d="M430.619,401.045
		c8.223,0,14.902-6.713,14.902-15.268v-50.8c0-8.423-6.681-15.267-14.902-15.267H288.137c-8.223,0-14.903,6.844-14.903,15.267v50.8
		c0,8.555,6.681,15.268,14.903,15.268H430.619L430.619,401.045z"/>
	<polygon fill="#FFFEEE" points="408.264,386.041 414.045,386.041 414.045,362.088 408.264,362.088 	"/>
	<path fill="#FFFEEE" d="M374.988,376.17c0,5.002,3.469,8.291,7.837,8.291c0.643,0,1.285-0.131,1.799-0.262
		c0,0,1.284,1.447-0.643,2.369c-1.8,0.789-4.368-0.133-6.038-1.711l-2.955,4.08c0,0,2.184,2.235,6.038,2.762
		c3.982,0.527,7.709-0.789,9.122-3.684c1.155-2.5,0.898-4.476-0.771-6.978c0.899-1.313,1.413-2.896,1.413-4.736
		c0-1.579-0.514-3.157-1.285-4.475l-0.128-0.527c0,0,0.257-1.315,1.541-2.764h-4.496h-1.157c-0.771-0.265-1.413-0.265-2.439-0.265
		C378.714,368.273,375.116,371.434,374.988,376.17l5.523-0.131c0-1.447,1.285-1.975,2.441-1.975s2.184,1.053,2.184,2.237
		c0,1.314-1.026,2.367-2.184,2.367c-1.285,0-2.57-0.789-2.441-2.631L374.988,376.17L374.988,376.17z"/>
	<path fill="#FFFEEE" d="M391.433,376.17c0,5.002,3.471,8.291,7.968,8.291c0.514,0,1.154-0.131,1.67-0.262
		c0,0,1.284,1.447-0.644,2.369c-1.799,0.789-4.368-0.133-6.039-1.711l-2.955,4.08c0,0,2.186,2.235,6.039,2.762
		c3.983,0.527,7.709-0.789,9.122-3.684c1.156-2.5,0.899-4.476-0.771-6.978c0.899-1.313,1.414-2.896,1.414-4.736
		c0-1.579-0.515-3.157-1.285-4.475V371.3c0,0,0.129-1.315,1.413-2.764h-4.496h-1.028c-0.898-0.265-1.542-0.265-2.439-0.265
		C395.159,368.273,391.69,371.434,391.433,376.17l5.525-0.131c0-1.447,1.285-1.975,2.441-1.975c1.154,0,2.184,1.053,2.184,2.237
		c0,1.314-1.028,2.367-2.184,2.367c-1.285,0-2.57-0.789-2.441-2.631L391.433,376.17L391.433,376.17z"/>
	<polygon fill="#FFFEEE" points="424.452,391.699 431.39,368.537 425.351,368.537 418.414,391.699 	"/>
	<polygon fill="#FFFEEE" points="420.469,384.857 415.201,368.537 421.111,368.537 426.508,384.857 	"/>
	<polygon fill="#FFFEEE" points="368.179,386.041 373.96,386.041 373.96,368.537 368.179,368.537 	"/>
	<polygon fill="#FFFEEE" points="368.179,366.695 373.96,366.695 373.96,362.088 368.179,362.088 	"/>
	<path fill="#FFFEEE" d="M354.046,348.27c0,1.974,1.413,3.422,3.083,3.422c1.798,0,3.212-1.448,3.212-3.291
		c0-1.843-1.414-3.29-3.212-3.29C355.459,345.111,354.046,346.559,354.046,348.27l-5.524-0.131v-8.555h5.652l-0.128,1.185
		c1.284-0.922,2.826-1.448,4.497-1.448c4.368,0,7.965,4.08,7.965,9.081c0,4.87-3.597,8.949-7.965,8.949
		c-1.67,0-3.212-0.526-4.368-1.447v0.395v6.581h-5.652v-14.74L354.046,348.27L354.046,348.27z"/>
	<polygon fill="#FFFEEE" points="367.022,357.088 372.805,357.088 372.805,339.584 367.022,339.584 	"/>
	<polygon fill="#FFFEEE" points="367.022,337.742 372.805,337.742 372.805,333.135 367.022,333.135 	"/>
	<path fill="#FFFEEE" d="M390.148,347.217c-0.13,5.001,3.469,8.291,7.837,8.291c0.643,0,1.284-0.132,1.799-0.264
		c0,0,1.156,1.448-0.643,2.369c-1.928,0.79-4.368-0.131-6.168-1.71l-2.825,4.08c0,0,2.185,2.238,6.039,2.763
		c3.981,0.527,7.708-0.789,9.12-3.685c1.156-2.5,0.899-4.474-0.771-6.975c0.898-1.316,1.413-2.895,1.413-4.738
		c0-1.58-0.515-3.159-1.413-4.475v-0.526c0,0,0.257-1.316,1.413-2.764h-4.368h-1.156c-0.771-0.264-1.413-0.264-2.44-0.264
		C393.746,339.32,390.277,342.479,390.148,347.217l5.523-0.132c0-1.448,1.285-1.974,2.441-1.974c1.155,0,2.184,1.053,2.184,2.237
		c0,1.316-1.027,2.369-2.184,2.369c-1.285,0-2.569-0.79-2.441-2.632L390.148,347.217L390.148,347.217z"/>
	<polygon fill="#FFFEEE" points="423.039,362.746 430.105,339.584 424.066,339.584 417.129,362.746 	"/>
	<polygon fill="#FFFEEE" points="419.185,355.903 413.789,339.584 419.826,339.584 425.223,355.903 	"/>
	<path fill="#FFFEEE" d="M373.575,347.217c-0.129,5.001,3.469,8.291,7.837,8.291c0.514,0,1.284-0.132,1.799-0.264
		c0,0,1.156,1.448-0.771,2.369c-1.8,0.79-4.239-0.131-6.038-1.71l-2.955,4.08c0,0,2.185,2.238,6.039,2.763
		c3.981,0.527,7.837-0.789,9.25-3.685c1.155-2.5,0.898-4.474-0.771-6.975c0.899-1.316,1.414-2.895,1.414-4.738
		c0-1.58-0.515-3.159-1.414-4.475v-0.526c0,0,0.257-1.316,1.414-2.764h-4.497h-1.027c-0.771-0.264-1.541-0.264-2.44-0.264
		c-4.24,0-7.709,3.159-7.966,7.897l5.652-0.132c0-1.448,1.156-1.974,2.312-1.974c1.284,0,2.312,1.053,2.312,2.237
		c0,1.316-1.027,2.369-2.312,2.369c-1.285,0-2.441-0.79-2.441-2.632L373.575,347.217L373.575,347.217z"/>
	<polygon fill="#FFFEEE" points="406.979,357.088 412.761,357.088 412.761,333.135 406.979,333.135 	"/>
	<polygon fill="#FFFEEE" points="347.879,385.91 343.896,368.537 349.549,368.537 353.532,385.91 	"/>
	<polygon fill="#FFFEEE" points="362.911,385.91 367.022,368.537 361.37,368.537 357.258,385.91 	"/>
	<polygon fill="#FFFEEE" points="353.404,385.91 357.515,368.537 353.404,368.537 349.292,385.91 	"/>
	<polygon fill="#FFFEEE" points="357.386,385.91 353.404,368.537 357.515,368.537 361.498,385.91 	"/>
	<path d="M285.567,340.11c0.643-0.79,1.542-0.658,2.184-1.316c0.257-0.132,0.386-0.527,0.386-0.79
		c0.257-1.447,0.514-2.896,0.899-4.474c0.257-0.922,0.643-1.975,1.542-2.5c1.67-0.79,3.598-0.658,5.397-0.79
		c0.642,0,1.542,0,1.798-0.658c0.386-0.79,1.157-1.842,1.928-1.185c2.056,1.711,3.726,3.29,5.91,4.87
		c1.927,1.185,3.469,2.5,5.396,3.685c0.514,0.395,1.027,0.921,1.542,0.659c1.413-0.659,2.827-1.448,4.368-1.58
		c0.899-0.131,1.67-0.263,2.569-0.131c0.643,0.131,1.284,0.131,1.927,0.263c3.597,0.79,6.295,2.764,9.25,5.001
		c0.129,0,0.386,0,0.514,0c0.644-0.526,1.414-0.921,2.056-1.185c0.258-0.132,0.514-0.132,0.643-0.132
		c2.441-1.052,5.011-0.921,7.452-1.052c0.385,0,0.771,0.263,0.771,0.526c0.515,4.607-0.385,9.213-3.212,13.161
		c-0.128,0.132-0.128,0.396-0.128,0.658c0.385,3.159,1.028,6.186,0.771,9.342c-0.128,1.449-0.515,2.767-1.028,3.949
		c-0.257,0.789-0.9,1.447-0.642,2.105c0.771,2.633,1.155,5.266,0.385,7.766c-0.644,2.236-1.67,4.211-3.47,5.789
		c-1.284,1.186-2.697,2.107-3.982,3.16c-1.67,3.027-4.626,5-7.966,5.791c-3.341,0.789-6.682,0.131-9.894-0.922
		c-2.44,0.789-5.139,0.922-7.452-0.264c-3.726-1.842-5.911-5.527-7.452-9.344c-0.771-0.527-1.542-1.187-2.055-1.976
		c-0.771-0.922-1.285-1.843-1.671-2.896c-0.386-0.658-0.257-1.711-0.898-2.104c-2.185-1.711-4.369-3.16-5.782-5.66
		c-0.771-1.315-1.542-2.631-2.056-4.08c-0.899-2.368-1.927-4.737-1.799-7.369c1.927-1.053,3.983-1.71,6.167-2.369
		c-0.514-3.817-3.211-6.843-4.497-10.529C285.054,342.479,284.796,341.163,285.567,340.11L285.567,340.11z"/>
	<path fill="none" stroke="#000000" stroke-width="0.1751" stroke-miterlimit="2.6131" d="M285.567,340.11
		c0.643-0.79,1.542-0.658,2.184-1.316c0.257-0.132,0.386-0.527,0.386-0.79c0.257-1.448,0.514-2.896,0.899-4.475
		c0.257-0.921,0.643-1.974,1.542-2.5c1.67-0.79,3.598-0.658,5.397-0.79c0.642,0,1.542,0,1.798-0.658
		c0.386-0.79,1.157-1.842,1.928-1.185c2.056,1.711,3.726,3.29,5.91,4.87c1.927,1.185,3.469,2.5,5.396,3.685
		c0.514,0.395,1.027,0.921,1.542,0.659c1.413-0.659,2.827-1.448,4.368-1.58c0.899-0.132,1.67-0.263,2.569-0.132
		c0.643,0.132,1.284,0.132,1.927,0.264c3.597,0.79,6.295,2.764,9.25,5.001c0.129,0,0.386,0,0.514,0
		c0.644-0.526,1.414-0.921,2.056-1.185c0.258-0.131,0.514-0.131,0.643-0.131c2.441-1.052,5.011-0.921,7.452-1.052
		c0.385,0,0.771,0.263,0.771,0.526c0.515,4.607-0.385,9.213-3.212,13.161c-0.128,0.132-0.128,0.396-0.128,0.658
		c0.385,3.159,1.028,6.186,0.771,9.342c-0.128,1.449-0.515,2.767-1.028,3.949c-0.257,0.789-0.899,1.447-0.642,2.105
		c0.771,2.633,1.155,5.266,0.385,7.766c-0.644,2.236-1.67,4.211-3.47,5.789c-1.284,1.186-2.697,2.107-3.982,3.16
		c-1.67,3.027-4.626,5-7.966,5.791c-3.341,0.789-6.682,0.131-9.894-0.922c-2.44,0.789-5.139,0.922-7.452-0.264
		c-3.726-1.842-5.911-5.527-7.452-9.344c-0.771-0.527-1.542-1.187-2.055-1.976c-0.771-0.922-1.285-1.843-1.671-2.896
		c-0.386-0.658-0.257-1.711-0.898-2.104c-2.185-1.711-4.369-3.16-5.782-5.66c-0.771-1.315-1.542-2.631-2.056-4.08
		c-0.899-2.368-1.799-4.737-1.799-7.369c1.927-1.053,3.983-1.71,6.167-2.369c-0.514-3.817-3.211-6.843-4.497-10.529
		C285.054,342.479,284.796,341.163,285.567,340.11L285.567,340.11z"/>
	<path fill="#FFFEEE" d="M288.009,342.61c0.642,3.159,2.698,5.528,3.726,8.423c0.257,0.79,0.642,1.58,0.899,2.238
		c0.128,0.263,0.257,0.263,0.385,0.263c2.056-0.131,3.726-0.921,5.782-1.316c1.927-0.395,3.598-0.921,5.524-1.185
		c0.257-0.131,0.514-0.263,0.642-0.394c1.028-1.975,1.799-3.949,2.699-5.923c0.771-1.579,1.799-3.027,2.44-4.606
		c0.257-1.053-0.899-1.711-1.671-2.238c-1.026-0.526-2.056-1.184-3.083-1.71c-1.285-0.658-2.313-1.58-3.469-2.5
		c-0.643-0.658-1.285-1.316-1.927-1.975c-0.129-0.131-0.386,0.132-0.386,0.132c-0.128,4.343,1.542,8.423,2.57,12.634
		c0.128,0.263,0.128,0.658,0,1.053c-0.129,0.395-0.386,0.658-0.771,0.395c-1.028-0.658-1.799-1.579-3.083-1.842
		c-3.469-0.658-6.81-0.263-10.021-1.58C288.137,342.479,287.881,342.479,288.009,342.61L288.009,342.61z"/>
	<path fill="#FFFEEE" d="M290.45,340.769c0.9,0.395,1.927,0.526,2.956,0.658c1.156,0,2.44,0.395,3.597-0.395c0,0,0-0.131,0-0.263
		c-1.542-1.974-3.084-3.685-4.882-5.396c-0.257-0.264-0.514-0.526-0.899-0.395c-0.643,0.263-0.643,1.185-0.643,1.711
		c-0.128,1.316-0.385,2.632-0.256,3.948C290.321,340.637,290.321,340.769,290.45,340.769L290.45,340.769z"/>
	<path fill="#FFFEEE" d="M298.159,338.399c0.128-0.263,0-0.526,0-0.657c-0.386-1.58-0.643-3.291-1.028-4.738
		c-0.514-1.448-2.184-0.658-3.34-0.658c-0.257,0-0.514,0.395-0.385,0.658c1.156,2.105,2.569,3.816,4.496,5.527
		C297.901,338.531,298.03,338.399,298.159,338.399L298.159,338.399z"/>
	<path fill="#FCD3C4" d="M289.936,366.959c1.285,1.973,3.212,2.895,5.14,4.211c0.256,0.131,0.385,0.395,0.514,0.527
		c0.386,1.842,1.028,3.553,2.055,5c0.643,0.789,1.286,1.58,2.185,1.711c1.67,4.08,3.726,9.213,8.479,10.002
		c0.899,0.131,1.799,0,2.698-0.264c0.515-0.131,0.643-0.525,0.771-1.054c3.854,2.369,8.864,2.765,12.977,0.789
		c1.157-0.524,2.185-1.184,3.083-2.104c1.028-1.053,1.67-2.369,2.312-3.816c0.128-0.131,0.514,0.264,0.643,0.264
		c4.368-2.238,6.938-7.633,5.01-12.371c-0.128-0.264-0.257-0.526-0.514-0.789c-0.385-0.526-1.028-0.922-1.414-1.448
		c-0.256-0.263-0.128-0.789,0.128-0.921c0.386-0.133,1.157,0.265,1.414,0c2.441-2.764,2.056-6.711,1.67-10.265
		c-0.257-1.448-0.898-2.896-0.643-4.475c0.128-0.79,1.027-1.316,1.414-2.106c0.771-1.185,1.283-2.369,1.542-3.685
		c0.386-1.448,0.898-2.896,0.514-4.475c0-0.263-0.257-0.263-0.385-0.263c-1.542-0.131-3.083,0.263-4.625,0.658
		s-2.441,1.316-3.727,2.237c-0.128,0-0.257,0-0.257,0c-1.67-1.316-2.955-2.632-4.625-3.685c-3.34-2.106-7.195-3.159-10.92-1.842
		c-0.899,0.395-1.799,0.79-2.312,1.579c-2.312,3.29-3.983,6.317-5.012,10.134c-0.129,0.132-0.129,0.526,0,0.658
		c1.028,1.053,3.212,1.711,3.083,3.422c0,0.263-0.257,0.263-0.385,0.263c-1.157-0.263-1.928-1.053-2.827-1.579
		c-1.542-0.921-3.083,0.132-3.982,1.448c-0.515,1.052-0.643,2.5-1.799,3.158c-0.129,0.131-0.514,0-0.514-0.264
		c-0.129-1.053,0.385-2.237,0.771-3.291c0-0.131,0.128-0.394-0.129-0.394c-1.67-0.132-3.34,0.263-4.882,0.921
		c-0.257,0.132-1.156,0.263-0.899,0.658c1.156,1.316,2.826,2.105,3.598,3.816c0,0.132,0,0.263,0,0.527
		c-0.257,0.395-0.771,0.395-1.156,0.263c-1.542-0.921-2.441-2.369-3.983-2.895c-2.055-0.79-4.369-0.79-6.424-0.131
		c-0.771,0.263-1.542,0.395-2.184,1.053c0,1.579,0.771,3.027,1.285,4.475C288.266,364.195,289.036,365.51,289.936,366.959
		L289.936,366.959z"/>
	<path fill="none" stroke="#000000" stroke-width="0.3508" stroke-miterlimit="2.6131" d="M289.936,366.959
		c1.285,1.973,3.212,2.895,5.14,4.211c0.256,0.131,0.385,0.395,0.514,0.525c0.386,1.844,1.028,3.555,2.056,5.002
		c0.643,0.789,1.285,1.58,2.184,1.711c1.67,4.08,3.726,9.213,8.479,10.002c0.899,0.131,1.799,0,2.698-0.264
		c0.515-0.131,0.643-0.525,0.771-1.054c3.854,2.369,8.864,2.765,12.977,0.789c1.157-0.524,2.185-1.184,3.083-2.104
		c1.028-1.053,1.67-2.369,2.312-3.816c0.128-0.131,0.514,0.264,0.643,0.264c4.368-2.238,6.938-7.633,5.01-12.371
		c-0.128-0.264-0.257-0.526-0.514-0.789c-0.385-0.526-1.028-0.922-1.414-1.448c-0.256-0.263-0.128-0.789,0.128-0.921
		c0.386-0.133,1.157,0.265,1.414,0c2.441-2.764,2.056-6.711,1.67-10.265c-0.257-1.448-0.898-2.896-0.643-4.475
		c0.128-0.79,1.027-1.316,1.414-2.106c0.771-1.185,1.283-2.369,1.542-3.685c0.386-1.448,0.898-2.896,0.514-4.475
		c0-0.263-0.385-0.263-0.385-0.263c-1.542-0.131-3.083,0.263-4.625,0.658c-1.542,0.394-2.441,1.316-3.727,2.237
		c-0.128,0-0.257,0-0.257,0c-1.67-1.316-2.955-2.632-4.625-3.685c-3.34-2.106-7.195-3.159-10.92-1.842
		c-0.899,0.395-1.799,0.79-2.312,1.579c-2.312,3.29-3.983,6.317-5.012,10.134c-0.129,0.132-0.129,0.526,0,0.658
		c1.028,1.053,3.212,1.711,3.083,3.422c0,0.263-0.385,0.263-0.385,0.263c-1.157-0.263-1.928-1.053-2.827-1.579
		c-1.542-0.921-3.083,0.132-3.982,1.448c-0.515,1.052-0.643,2.5-1.799,3.158c-0.129,0.131-0.514,0-0.514-0.264
		c-0.129-1.053,0.385-2.237,0.771-3.291c0-0.131,0.128-0.394-0.129-0.394c-1.67-0.132-3.34,0.263-4.882,0.921
		c-0.257,0.132-1.156,0.263-0.899,0.658c1.156,1.316,2.827,2.105,3.598,3.816c0,0.131,0,0.263,0,0.527
		c-0.257,0.395-0.771,0.395-1.156,0.263c-1.542-0.921-2.441-2.369-3.983-2.895c-2.055-0.79-4.369-0.79-6.424-0.132
		c-0.771,0.263-1.542,0.395-2.184,1.053c0,1.579,0.771,3.027,1.285,4.474C288.266,364.195,289.036,365.51,289.936,366.959
		L289.936,366.959z"/>
	<path d="M288.651,358.535c1.285-0.79,2.57-0.395,3.983-0.132c1.156,0.132,2.185,0.527,3.211,1.185
		c1.157,0.789,1.799,1.58,2.57,2.633c0.257,0.262,0.257,0.922-0.256,0.789c-0.9-0.264-1.414-1.184-2.313-1.711
		c-0.642-0.395-1.413-0.789-2.184-1.185c-0.643-0.263-1.542-0.395-2.312-0.526c-0.772-0.131-1.542,0.264-2.313,0
		c-0.257-0.131-0.514-0.263-0.514-0.395C288.394,358.93,288.266,358.667,288.651,358.535L288.651,358.535z"/>
	<path d="M322.055,346.954c2.313-0.658,4.368,0.921,5.14,3.027c0.129,0.396,0.129,0.659-0.257,0.79c0,0.131-0.13,0.131-0.258,0
		c-0.77-0.527-1.027-1.448-1.927-1.843c-0.771-0.395-1.799-0.789-2.698-0.395c-1.542,0.526-1.927,2.237-2.955,3.422
		c-0.128,0.263-0.771,0.395-0.771,0c0-1.711,1.027-3.291,2.441-4.343C321.156,347.217,321.542,347.085,322.055,346.954
		L322.055,346.954z"/>
	<path d="M334.518,343.269c1.027-0.527,2.186-1.185,3.342-0.79c0.257,0.131,0.385,0.395,0.257,0.79
		c-0.386,0.921-1.542,0.921-2.441,1.184c-0.899,0.395-1.67,1.053-2.44,1.579c-0.514,0.395-1.156-0.263-0.899-0.79
		C332.848,344.322,333.619,343.664,334.518,343.269L334.518,343.269z"/>
	<path fill="#FFFEEE" d="M304.967,373.803c0,0-1.927-4.344-1.413-8.293c0.386-3.947,3.597-6.053,6.167-4.342
		c2.698,1.711,4.882,6.186,4.625,10.266c0,0-1.285,1.974-4.11,1.842C307.409,373.145,305.61,372.617,304.967,373.803
		L304.967,373.803z"/>
	<path fill="#FFFEEE" d="M320.128,369.459c0,0-1.798-4.344-1.156-8.422c0.643-3.949,2.441-5.002,4.24-5.002
		c1.798,0,6.039,3.422,6.039,8.292c0,4.737,0,4.08,0,4.08S327.452,369.984,320.128,369.459L320.128,369.459z"/>
	<path d="M305.739,360.377c3.212-1.578,6.424,1.316,7.708,4.213c0.898,2.236,1.413,4.605,1.156,6.975
		c0,0.134-0.258,0.525-0.515,0.396c-0.642-1.053-0.385-2.235-0.642-3.291c-0.257-1.313-0.771-2.5-1.285-3.685
		c-0.514-1.186-1.156-2.237-2.312-2.896c-1.027-0.789-2.184-1.051-3.341-0.657c-1.542,0.526-2.312,2.237-2.441,3.948
		c-0.128,1.58,0,3.289,0.385,5c0.257,0.791,0.128,1.711,0.771,2.107c0.386,0.262,1.414,0,1.414-0.396
		c0.257-1.577-0.643-3.288,0.386-4.735c0.386-0.527,0.898-1.316,1.412-1.053c0.515,0.262,0.515,1.184,0.899,1.577
		c0.642-0.396,0.385-1.446,1.156-1.577c2.056,1.313,2.569,4.211,1.927,6.315c-0.128,0.264-0.899,0.131-0.771,0.264
		c1.413,2.105,2.697,3.947,3.083,6.447c0.128,0.526,0.514,0.791,0.898,0.791c1.156,0.131,2.312,0.265,3.469-0.265
		c-0.514-1.578-1.155-3.026-1.285-4.737c-0.128-1.313-0.128-2.5,0.129-3.815c0-0.132-0.129-0.132-0.129-0.132
		c-0.386,0.265-0.643,0.658-1.155,0.92c-0.257,0.134-0.899,0.134-0.899-0.393c0.128-0.396,0.644-0.66,1.028-0.923
		c0-0.133,0-0.264,0-0.264c-0.514-0.527-1.156-0.133-1.67-0.527c-0.385-0.131-0.128-0.657,0.129-0.789
		c0.642-0.131,1.285,0.132,1.927,0.132c0.771,0.133,1.542,0.264,2.312-0.132c0-0.922-0.386-1.711-0.771-2.633
		c-0.257-0.92-0.514-1.973-0.514-3.026c-0.129-1.447,0-2.896,0.385-4.21c0.385-1.184,0.899-2.237,1.799-2.895
		c0.515-0.526,1.156-0.79,1.67-1.053c0.771-0.263,1.413-0.132,2.185,0.132c1.285,0.263,2.184,1.053,2.955,2.237
		c2.184,3.159,3.212,6.844,2.568,10.661c0,0.262-0.385,0.658-0.77,0.525c-0.129,0-0.257-0.132-0.257-0.265
		c0.385-4.342-0.387-10.133-4.883-11.844c-0.643-0.263-1.413-0.131-2.056,0.264c-1.285,0.79-2.055,2.105-2.184,3.554
		c-0.257,0.922-0.257,1.842-0.128,2.764c0,0.527,0,1.053,0.128,1.447c0.386,1.315,0.386,2.764,1.157,3.815
		c0.128,0.134,0.256,0,0.385,0c0.257,0.134,0.386,0.396,0.257,0.658c-0.514,0.526-1.156,0.791-1.542,1.315
		c-0.386,0.527-0.514,1.056-0.643,1.58c-0.386,2.5-0.386,5.396,1.413,7.369c0.128,0.133,0.771-0.264,0.644-0.395
		c-1.157-3.027-2.313-7.369,0.513-9.607c-0.898-2.5-0.898-5.922,1.157-7.764c0.771,0.131,1.028,1.053,1.414,1.578
		c0.128,0.131,0.256,0.395,0.385,0.131c0.256-0.262,0.514-0.525,0.514-1.053c0-0.131,0.258-0.131,0.386,0
		c1.285,1.186,1.414,3.026,1.671,4.738c0,0.526,0,1.315-0.644,1.579c1.285,1.447,2.827,2.765,3.212,4.738
		c0.257,0.789,0.771,1.578,0.386,2.104c-1.156,1.447-3.083,1.974-3.598,3.816c-0.643,1.711-0.77,3.684-1.799,5.264
		c-0.257,0.527-0.513,0.922-0.898,1.187c-0.515,0.262-0.899,0.396-1.414,0.524c-3.212,0.527-4.497-2.5-6.423-4.344
		c-0.258-0.262-0.644-0.789-1.028-0.525c-0.385,0.132-0.257,1.185-1.028,1.054c-0.514-1.58-0.385-3.422-1.026-5.002
		c-0.771-1.709-1.928-3.42-3.727-4.211c-1.028-0.525-2.056,0-2.955,0.396c-1.542,0.789-2.44,2.236-3.726,3.42
		c-0.257,0.133-0.899,0-0.771-0.395c0.385-1.184,1.285-2.105,2.184-3.025c0.128-0.133,0.128-0.396,0-0.527
		c-1.028-2.633-1.413-5.396-1.156-8.159C303.169,363.143,303.94,361.168,305.739,360.377L305.739,360.377z"/>
	<path fill="#FCD3C4" d="M324.368,369.723c-1.414-0.133-2.57,1.185-2.956,2.367c-0.643,2.107-0.128,4.344,0.771,6.188
		c0.128,0.132,0.258,0.394,0.386,0.263c2.44-0.263,4.883-1.447,6.425-3.422C328.479,372.748,326.938,369.854,324.368,369.723
		L324.368,369.723z"/>
	<path fill="#F69780" stroke="#000000" stroke-width="0.3508" stroke-miterlimit="2.6131" d="M318.33,381.566
		c-0.257,0-0.514,0.131-0.514,0.131c0.514,1.58,1.798,2.896,3.211,3.555c0.771,0.264,1.67,0.131,2.44-0.395
		c0.644-0.396,0.771-1.055,1.028-1.844c0.257-1.185,0.643-2.369,0.643-3.687c-0.898,0.133-1.799,0.396-2.44,0.922
		c-0.771,0.396-0.515,1.58-0.515,2.5c0,0.133-0.257,0.133-0.257,0.133c-0.514-0.264-0.771-0.791-1.414-1.053
		C319.871,381.697,319.1,381.436,318.33,381.566L318.33,381.566z"/>
	<path d="M322.312,374.459c0.514-0.131,0.898,0.264,1.413,0.658c0.386,0.264,0.644,0.658,0.515,1.186c0,0.262,0,0.525-0.385,0.658
		c-0.771,0.131-1.414-0.396-1.671-1.053C321.927,375.512,321.798,374.592,322.312,374.459L322.312,374.459z"/>
	<path d="M326.809,372.486c0.387-0.133,0.771,0,1.028,0.395c0.128,0.525,0.257,1.053,0.128,1.578
		c-0.257,0.527-0.771,1.186-1.285,0.791C325.781,374.723,325.91,373.012,326.809,372.486L326.809,372.486z"/>
	<path fill="#FCD3C4" d="M322.826,375.645c-0.129,0.131,0,0.396,0.257,0.525c0.128,0,0.257,0.133,0.385-0.131
		c0-0.131,0-0.264-0.128-0.395C323.211,375.381,322.826,375.25,322.826,375.645L322.826,375.645z"/>
	<path fill="#FCD3C4" d="M326.938,373.539c-0.257,0-0.257,0.789,0,0.658C327.323,374.197,327.323,373.539,326.938,373.539
		L326.938,373.539z"/>
	<path fill="#FFFEEE" d="M433.188,387.094c0,0.264-0.128,0.395-0.386,0.395c-0.257,0-0.385-0.131-0.385-0.395v-4.344
		c0-0.131,0.128-0.262,0.257-0.262h1.67c1.028,0,1.542,0.525,1.542,1.447s-0.514,1.315-1.027,1.315l0.898,1.578
		c0.129,0.133,0.129,0.264,0.129,0.396c0,0.131-0.129,0.262-0.257,0.262c-0.129,0-0.257,0-0.386-0.262l-1.156-1.975h-0.899V387.094
		L433.188,387.094z M433.188,384.725h0.771c0.642,0,1.284,0,1.284-0.789c0-0.658-0.515-0.791-1.027-0.791h-1.028V384.725
		L433.188,384.725z M434.088,380.777c2.186,0,4.111,1.842,4.111,4.211c0,2.238-1.927,4.211-4.111,4.211
		c-2.312,0-4.239-1.973-4.239-4.211C429.849,382.619,431.775,380.777,434.088,380.777L434.088,380.777z M434.088,388.41
		c1.799,0,3.341-1.58,3.341-3.422c0-1.975-1.542-3.553-3.341-3.553c-1.927,0-3.469,1.578-3.469,3.553
		C430.619,386.83,432.161,388.41,434.088,388.41L434.088,388.41z"/>
</g>
</svg>
