<?xml version="1.0" encoding="utf-8"?>
<!-- Generator: Adobe Illustrator 16.0.0, SVG Export Plug-In . SVG Version: 6.00 Build 0)  -->
<!DOCTYPE svg PUBLIC "-//W3C//DTD SVG 1.1//EN" "http://www.w3.org/Graphics/SVG/1.1/DTD/svg11.dtd">
<svg version="1.1" id="Layer_1" xmlns="http://www.w3.org/2000/svg" xmlns:xlink="http://www.w3.org/1999/xlink" x="0px" y="0px"
	 width="271.435px" height="363.8px" viewBox="240.769 368.8 271.435 363.8" enable-background="new 240.769 368.8 271.435 363.8"
	 xml:space="preserve">
<g>
	<g>
		
			<linearGradient id="SVGID_1_" gradientUnits="userSpaceOnUse" x1="322.5957" y1="326.8716" x2="322.5957" y2="-33.2007" gradientTransform="matrix(1 0 0 -1 54 697.5996)">
			<stop  offset="0" style="stop-color:#FFF200"/>
			<stop  offset="0" style="stop-color:#FFF200"/>
			<stop  offset="0.34" style="stop-color:#A3CF62"/>
			<stop  offset="0.4" style="stop-color:#A3CF62"/>
			<stop  offset="0.64" style="stop-color:#A3CF62"/>
			<stop  offset="1" style="stop-color:#A3CF62"/>
		</linearGradient>
		<path fill="url(#SVGID_1_)" d="M511.056,407.664c0,0-23.976-36.937-132.84-36.937c-105.192,0-136.08,36.937-136.08,36.937V730.8
			h268.92V407.664z"/>
		<path fill="#009C4B" d="M415.584,508.32c0.432,0.216,0.936,0.504,1.296,0.792C416.448,508.824,416.016,508.536,415.584,508.32z"/>
		<path fill="#90B43E" d="M345.312,601.992c1.584-0.504,2.88-1.296,4.247-2.592c-1.224-0.36-2.376-0.721-3.6-1.009
			c-1.512,1.44-3.96,2.089-5.832,2.376c1.584,0.937,1.729,0.864,3.744,1.584c-0.648-0.287,0.504,0.288,0,0
			c0.576-0.071,1.08-0.216,1.512-0.359H345.312z"/>
		<path fill="#90B43E" d="M395.928,511.272c-0.144,1.296,0.072,2.376,0.576,3.312c0.36,0.072,0.792,0.072,1.152,0.216
			c-0.433-0.936-0.648-2.016-0.504-3.312c0-0.288,0.144-0.433,0.288-0.576C396.792,510.192,396.072,510.264,395.928,511.272z"/>
		<path fill="#90B43E" d="M404.568,513.648c0,0.792-0.433,1.367-1.009,1.728c2.089,0.216,2.809-1.584,2.232-2.952
			c-1.296-2.952-5.976-4.968-12.096-5.976C399.888,508.104,404.568,510.912,404.568,513.648z"/>
		<path d="M408.816,513.216c0.287-5.184-12.168-8.496-22.681-8.496c-18.576,0-30.672,5.4-37.655,11.809
			c6.695-5.832,20.016-9.937,33.695-10.656c11.017-0.576,21.601,1.944,23.616,6.552c0.72,1.656-0.432,3.96-3.744,2.521
			c1.008,0.792,2.232,1.439,3.601,1.439C406.8,516.384,408.672,515.736,408.816,513.216z"/>
		<path fill="#009C4B" d="M420.552,559.44c0.145,0.144,0.288,0.288,0.36,0.432c0,0.072-0.072,0.144-0.072,0.144
			c0,0.072,0,0.145,0,0.145s-0.072,0-0.072-0.072c-2.447,3.096-6.119,3.6-9.071,2.521v10.296c0,0.071,0,0.071,0.071,0.071
			c3.673,1.944,5.328,2.232,7.2,2.664c1.08,0.288,1.225,0.072,1.368-0.288c0.288-0.359,1.584-3.168,2.016-5.472
			c3.24,0.288,10.009-1.728,10.872-2.952c0.145-4.392-5.615-11.52-9.216-15.048c5.4-11.52,0.792-22.248-6.983-28.656
			c-0.217-0.144-0.433-0.288-0.576-0.432l0,0c-0.072-0.072-0.145-0.144-0.216-0.144c1.872-1.152,4.464-3.024,5.04-5.04
			c0.647-2.448-0.072-6.408-6.696-9.792c0.359,0.144,0.647,0.288,1.008,0.504c-1.152-0.721-2.448-1.368-3.888-2.017v26.641
			c1.296,1.224,2.88,2.592,4.823,4.248c-1.8-0.864-3.384-1.584-4.823-2.376v20.376C415.368,554.616,419.472,556.56,420.552,559.44
			L420.552,559.44z M411.696,605.52v-8.855c15.912,2.88,35.928-0.145,55.728-10.152C454.968,594.648,434.736,602.064,411.696,605.52
			L411.696,605.52z M411.696,583.992v-11.017c0.504,2.521,1.512,5.473,3.815,7.633c-0.144-0.072-0.288-0.217-0.288-0.217
			c0.072,0.36-0.144,0.576-0.288,0.721C413.928,581.832,412.704,582.912,411.696,583.992z M411.696,562.608
			c-2.232-0.864-4.104-2.593-4.896-4.824c0.145-0.072,0.216-0.072,0.288-0.145c1.225-1.439,2.88-2.231,4.608-2.447v-20.376
			c-2.16-1.152-4.032-2.305-5.977-4.104c-0.288-0.216-0.432-0.432-0.576,0.145c-0.287,0.647-0.792,2.808-0.504,5.327
			c-3.527-1.08-6.407-1.367-10.943-5.903c-0.145-0.072-0.36,0-0.36,0.144c0,2.521,0.576,4.824,0.792,7.2
			c-1.08-0.072-2.376-0.216-3.744-0.504v38.592c8.28,3.528,18.145,10.224,19.08,10.872c0.576-0.864,1.368-1.729,2.232-2.592v-11.017
			v-0.071l0,0V562.608L411.696,562.608z M411.696,506.304v26.641c-3.96-3.601-5.832-5.761-7.992-9.288
			c-1.512,2.304-2.952,4.607-2.304,8.063c-5.185-1.512-8.208-5.544-11.017-9.216v-8.64c2.232,0.071,4.896,0.288,7.272,0.936
			c-0.433-0.936-0.648-2.016-0.504-3.312c0.144-1.296,1.655-1.296,2.231,0.144c0.576,1.44,3.097,4.752,6.265,4.752
			c1.151,0,3.023-0.647,3.168-3.168c0.216-4.536-9.072-7.56-18.433-8.28v-3.96C399.096,502.056,406.368,503.928,411.696,506.304
			L411.696,506.304z M411.696,596.664v8.855c-6.912,1.08-14.112,1.729-21.312,2.017v-20.304
			C395.856,591.912,403.2,595.152,411.696,596.664z M390.384,500.976v3.96c-1.439-0.144-2.88-0.216-4.248-0.216
			c-5.111,0-9.72,0.433-13.896,1.152v-5.76c0.72,0,1.439,0,2.16,0C380.088,500.112,385.488,500.4,390.384,500.976L390.384,500.976z
			 M390.384,513.864v8.64c-0.288-0.288-0.576-0.647-0.792-1.008c-1.512,4.464-1.296,9.864,0.433,12.312
			c-5.688-0.72-11.736-6.191-17.353-8.64c1.08,7.92,2.88,14.04,6.336,18.145c0.433,0.287,0.216,0.504-0.359,0.359
			c-2.521-0.504-5.4,0-6.408,2.088v-28.224c3.96-2.304,9.144-3.672,15.552-3.672C388.584,513.864,389.448,513.864,390.384,513.864
			L390.384,513.864z M390.384,537.12c-3.168-0.576-6.768-1.584-8.928-2.88c-0.072-0.072,0.072,1.512,0.144,1.8
			c1.656,5.328,3.168,7.704,7.92,12.888c-3.023-2.231-8.136-1.439-9.936,0.864c-1.872,2.304,0.36,7.416,2.448,11.232
			c-3.456-2.881-8.353-5.688-9.792-10.872v10.655c0.144,0,0.288,0,0.359,0.072l-0.359,0.072v46.368
			c0.576,0.071,1.151,0.071,1.728,0.144c5.473,0.288,10.944,0.288,16.416,0.072v-20.304c-4.248-3.528-7.416-7.992-9.288-13.177
			c0.721-0.359,1.656-0.432,2.736-0.359c-0.216-0.072-0.432-0.072-0.576-0.072c0.145,0,0.433,0.072,0.576,0.072
			c0.216,0.071,0.504,0.071,0.72,0.144c0.216,0,0.433,0.072,0.648,0.072c0.359,0.144,0.792,0.216,1.224,0.359
			c1.225,0.36,2.592,0.864,3.96,1.44V537.12L390.384,537.12z M372.24,500.112v5.76c-6.12,1.08-11.232,2.808-15.48,4.968v-9.288
			C361.584,500.76,366.768,500.256,372.24,500.112L372.24,500.112z M372.24,517.536v28.224c-0.288,0.648-0.433,1.368-0.36,2.305
			c0.072,0.72,0.216,1.439,0.36,2.088v10.655c-4.968-0.647-10.368-2.159-15.48-4.319v-6.48c2.952,1.368,6.192,2.448,9.792,3.312
			c-2.376-3.816-4.464-11.017-4.464-17.424C362.088,528.552,365.328,521.64,372.24,517.536L372.24,517.536z M372.24,560.952v46.368
			c-5.904-0.433-11.088-1.296-15.48-2.232v-23.184c2.664-0.576,4.968-1.44,6.912-2.592c-2.376-0.217-4.68-0.505-6.912-0.864v-17.496
			c4.393,0.792,9.072,0.936,13.824,0.432L372.24,560.952z M356.76,501.552v9.288c-11.088,5.616-15.768,14.04-15.768,20.017
			c0,7.128,5.616,14.399,15.768,19.151v6.48c-18.863-8.064-33.695-25.488-9.288-42.769c0,0-1.296,0.145-2.016,0.576
			c-33.552,16.344-15.912,42.12,11.304,46.656v17.496c-27.504-4.681-44.712-24.48-44.712-40.104
			C312.048,524.16,327.672,506.664,356.76,501.552L356.76,501.552z M356.76,581.904c-15.624,3.456-41.544-3.744-51.84-14.832
			c8.64,14.184,26.64,24.695,47.16,29.447c-2.521,3.24-4.248,4.753-6.768,5.473c2.808,0.792,6.623,2.016,11.447,3.096V581.904z"/>
		<path fill="#90B43E" d="M465.336,587.448c0.288-0.145,0.576-0.36,0.864-0.504c-0.576,0.288-1.225,0.647-1.8,0.936
			C464.76,587.736,465.048,587.592,465.336,587.448z"/>
		<path fill="#90B43E" d="M358.992,581.256c-2.448-0.216-4.824-0.647-7.057-1.152c-17.64,0.576-36.936-3.888-48.455-15.264
			c0.432,0.792,1.008,1.512,1.439,2.232C315.72,578.664,343.656,586.008,358.992,581.256z"/>
		<path fill="#90B43E" d="M312.336,541.8c-0.144-1.224-0.288-2.304-0.288-3.456c0-16.775,21.888-38.231,62.353-38.231
			c8.783,0,16.703,0.792,23.327,2.088c-7.056-1.729-15.552-2.736-25.344-2.736c-41.903,0-64.368,21.384-64.368,39.024
			c0,11.376,6.984,24.552,23.112,32.976C319.392,563.328,313.488,551.736,312.336,541.8z"/>
		<path fill="#90B43E" d="M464.4,587.88c0.575-0.288,1.224-0.647,1.8-0.936c1.296-0.721,2.592-1.513,3.815-2.305
			c-43.416,20.952-75.023,8.208-88.704-10.151C390.24,598.464,427.248,605.376,464.4,587.88z"/>
		<path fill="#90B43E" d="M412.056,560.952c-1.728-0.433-4.104-1.656-4.968-3.312c-0.072,0.072-0.144,0.072-0.288,0.145
			c1.729,5.184,9.648,7.775,13.968,2.304c0,0.072,0.072,0.072,0.072,0.072s0,0,0-0.072c-0.072,0-0.432-0.216-0.864-0.504
			C418.392,560.592,415.944,561.168,412.056,560.952z"/>
		<path fill="#90B43E" d="M367.488,560.808c-3.889-0.432-8.28-1.655-14.04-4.031c-31.032-12.24-25.776-34.633-5.977-43.057
			c0,0-1.296,0.145-2.016,0.576c-3.096,1.512-5.688,3.096-7.992,4.752c-21.528,21.168,7.704,39.744,29.232,42.624
			c1.296-0.072,2.592-0.144,3.888-0.288l2.016-0.504C370.512,561.024,369.864,561.168,367.488,560.808z"/>
		<path fill="#90B43E" d="M358.992,538.704c0,5.688,1.872,10.008,3.96,13.68c1.151,0.36,2.376,0.648,3.6,0.937
			c-2.376-3.816-4.464-11.017-4.464-17.425c0-10.584,6.696-20.304,21.528-21.815C367.776,514.729,358.992,525.096,358.992,538.704z"
			/>
		<path fill="#005429" d="M405.36,530.64c0-0.144,0.071-0.144,0.071-0.144c-0.216-0.216-2.16-2.736-2.447-3.024
			c-0.721,1.944-0.504,5.473,0.071,7.345c-1.584,0.071-3.888-0.648-5.184-1.08c1.8,1.08,6.552,2.376,6.768,2.447
			C404.64,535.896,404.856,531.864,405.36,530.64z"/>
		<path fill="#005429" d="M380.952,560.016c-9.72-8.496-8.856-16.775,3.744-13.823c-1.8-1.44-7.561-6.265-8.137-14.832
			c9.217,5.184,13.896,5.328,14.977,5.328c-0.648-1.944-1.944-5.832-1.08-9.505c0.288,0.36,3.096,3.024,3.24,3.168
			c-0.145,0.072-0.216,0.217-0.216,0.433s0.432,3.744,0.72,6.912c-2.448-0.072-5.04-0.36-7.344-0.864
			c-2.664-0.576-3.744-1.08-5.112-1.656c0,0-0.216-0.288,0,0.36c1.152,5.04,3.744,8.855,7.775,13.32
			c-4.896-2.521-11.951-0.937-10.151,5.256c0.504,1.872,0.936,3.744,2.664,6.768C381.672,560.664,381.528,560.52,380.952,560.016z"
			/>
		<path d="M352.08,596.52c-19.8-4.607-37.224-14.544-46.152-27.936c-0.072-0.072-0.216-0.216-0.287-0.288
			c10.151,17.496,24.047,26.208,43.919,31.104C350.352,598.608,351.144,597.744,352.08,596.52z"/>
		<path d="M465.336,587.448c0.72-0.288,1.368-0.576,2.088-0.937c-18.936,12.456-56.016,22.969-93.456,20.952
			c-13.248-0.72-23.04-3.815-28.655-5.472c-0.505,0.072-0.864,0.288-1.44,0.359c7.56,3.816,22.032,7.633,42.12,7.416
			c27.072-0.216,62.208-7.056,84.023-25.128C468.576,585.648,466.992,586.584,465.336,587.448z"/>
		<path d="M312.336,541.729c1.8,15.983,15.768,36.144,46.656,39.527c1.728-0.504,3.312-1.151,4.68-1.943
			C334.224,577.08,314.784,558,312.336,541.729z"/>
		<path fill="#005429" d="M421.272,517.608c-0.576,2.016-3.169,3.888-5.04,5.04c8.279,6.264,13.319,17.352,7.775,29.231
			c3.601,3.528,9.36,10.656,9.216,15.048c-0.863,1.225-7.632,3.24-10.872,2.952c-0.432,2.304-1.728,5.112-1.943,5.472
			c-0.216,0.36-0.36,0.576-1.44,0.288c-1.872-0.432-3.527-0.72-7.271-2.664c3.312,3.24,5.832,4.104,9.144,5.112
			c0.864,0.288,1.008,0.072,1.225-0.432c0.287-0.433,1.655-3.672,2.088-5.904c3.168,0.216,8.64-1.152,11.88-3.168
			c0.144-4.752-6.265-12.888-9.864-16.488c4.176-9.72,0.792-21.815-7.488-28.08c1.513-1.224,3.312-2.664,3.96-4.823
			c0.576-2.017,0.648-7.2-8.063-11.376C421.2,511.2,421.992,515.16,421.272,517.608z"/>
		<path fill="#005429" d="M347.472,513.72c-19.8,8.424-25.056,30.816,5.977,43.057c5.76,2.376,10.151,3.6,13.968,4.031
			c2.448,0.36,3.096,0.217,5.184,0.072C349.2,558,316.296,535.824,347.472,513.72z"/>
		<path fill="#005429" d="M407.088,557.64c4.032-4.896,12.888-2.231,13.824,2.521C420.912,560.16,413.64,555.192,407.088,557.64z"/>
		<path fill="#005429" d="M383.256,573.624c8.353,0.72,24.984,12.168,26.28,12.96c1.296-1.944,3.6-4.104,5.399-5.472
			c0.145-0.145,0.36-0.36,0.288-0.72c0.217,0.144,1.944,1.8,1.44,2.375c-2.304,1.944-3.744,3.312-6.408,6.769
			C401.184,582.192,385.632,573.624,383.256,573.624z"/>
		<path d="M497.16,589.32c-0.216,0.432-0.576,0.936-1.225,1.439c-36.936,25.776-84.384,31.032-126.72,31.032
			c-31.536,0-58.464-7.56-77.832-18.288c-0.432-0.144-0.72-0.288-0.72-0.288c19.439,11.304,46.224,20.736,78.912,20.736
			c42.336,0,91.872-5.688,126.72-32.256C497.592,590.688,497.952,589.536,497.16,589.32z"/>
		<path d="M284.184,581.112c0.072-0.576,0.145-1.152,0.289-1.729c-2.736-6.624-3.529-18-1.369-23.976
			c-0.647,0.359-1.224,0.792-1.728,1.224C278.784,563.76,280.512,576.432,284.184,581.112z"/>
		<path d="M274.32,564.048c0.359-0.864,0.791-1.656,1.224-2.448c-2.735-19.224,13.32-35.712,24.552-44.567
			c-1.728,0.72-3.455,1.439-5.111,2.16C281.592,529.488,268.488,548.64,274.32,564.048z"/>
		
			<linearGradient id="SVGID_2_" gradientUnits="userSpaceOnUse" x1="334.5508" y1="94.1812" x2="315.5239" y2="229.5645" gradientTransform="matrix(1 0 0 -1 54 697.5996)">
			<stop  offset="0" style="stop-color:#FFF200"/>
			<stop  offset="0" style="stop-color:#FFF200"/>
			<stop  offset="0.25" style="stop-color:#FFF200"/>
			<stop  offset="0.67" style="stop-color:#D80B8C"/>
			<stop  offset="0.99" style="stop-color:#D80B8C"/>
		</linearGradient>
		<path fill="url(#SVGID_2_)" d="M370.368,491.184c34.2,0,84.815,11.017,89.928,42.624c2.448-2.159,3.384-4.464,4.32-8.208
			c5.903,9.36,5.903,23.473-0.433,31.248c5.112-1.943,7.488-4.319,12.024-9.288c1.584,6.624-5.76,26.568-34.632,39.456
			c32.04-9,53.063-25.344,53.063-41.256c0-24.912-44.352-60.264-123.695-60.264c-44.496,0-82.656,8.928-107.712,26.64
			c-2.881,2.017-1.801,2.736,1.439,1.225C291.096,501.336,328.968,491.184,370.368,491.184z"/>
		
			<linearGradient id="SVGID_3_" gradientUnits="userSpaceOnUse" x1="240.7749" y1="215.2822" x2="394.919" y2="31.5804" gradientTransform="matrix(1 0 0 -1 54 697.5996)">
			<stop  offset="0" style="stop-color:#FFF200"/>
			<stop  offset="0" style="stop-color:#FFF200"/>
			<stop  offset="0.25" style="stop-color:#FFF200"/>
			<stop  offset="0.67" style="stop-color:#D80B8C"/>
			<stop  offset="0.99" style="stop-color:#D80B8C"/>
		</linearGradient>
		<path fill="url(#SVGID_3_)" d="M302.473,514.368c-24.841,8.784-43.777,30.96-43.777,49.607c0,25.633,45.361,57.816,110.521,57.816
			c42.336,0,89.784-5.256,126.72-31.032c2.16-1.512,1.801-3.6-2.088-1.584c-32.615,17.353-66.672,26.856-124.632,26.856
			c-32.76,0-78.264-19.729-82.512-41.616c-1.44,2.16-2.304,4.392-2.521,6.696c-4.104-5.185-5.832-20.448-1.728-26.712
			c-3.815,2.016-6.479,5.76-8.136,9.647C267.408,545.688,287.279,522.144,302.473,514.368z"/>
		<path d="M460.296,533.808c1.944-0.72,4.32-2.88,5.472-6.048c-0.359-0.72-0.72-1.439-1.151-2.16
			C463.68,529.344,462.744,531.648,460.296,533.808z"/>
		<path d="M370.368,491.184c-33.84,0-65.304,6.769-90.072,15.841c27.864-9.145,54.504-14.544,91.656-14.544
			c31.392,0,77.112,11.159,88.344,41.327C455.184,502.2,404.568,491.184,370.368,491.184z"/>
		<path d="M476.208,547.56c-4.536,4.969-6.912,7.345-12.024,9.288c5.328-0.144,8.208-2.088,12.168-6.552
			C476.424,549.216,476.352,548.28,476.208,547.56z"/>
		<path d="M488.16,528.048c4.248,6.048,6.479,12.168,6.479,17.712c0,15.84-20.735,32.04-52.487,41.112h-0.072
			c32.976-7.128,54.144-24.048,54.144-39.96C496.224,541.296,493.488,534.744,488.16,528.048z"/>
		
			<linearGradient id="SVGID_4_" gradientUnits="userSpaceOnUse" x1="223.0918" y1="180.0557" x2="223.0918" y2="286.6875" gradientTransform="matrix(1 0 0 -1 54 697.5996)">
			<stop  offset="0" style="stop-color:#D80B8C"/>
			<stop  offset="0.32" style="stop-color:#D80B8C"/>
			<stop  offset="1" style="stop-color:#812990"/>
		</linearGradient>
		<path fill="url(#SVGID_4_)" d="M280.296,410.472h-0.792v6.048c3.889,0.576,5.688,2.736,5.688,10.297v20.735
			c0,4.176-2.592,5.76-5.688,6.408v6.408c14.688-0.864,18.36-8.929,18.36-16.272v-16.344
			C297.864,420.552,294.912,410.472,280.296,410.472z M279.504,410.472H256.32v1.009c2.232,0.216,3.168,0.575,4.68,1.296v99.216
			c-1.656,1.872-1.729,2.231-3.816,3.6v1.512c0,0,3.744-2.304,11.809-5.615c8.064-3.385,9.432-5.904,9.432-5.904v-1.08
			c-2.232,1.296-3.168,1.368-4.535,1.584V460.44h3.023c0.936,0,1.8-0.072,2.592-0.072v-6.408c-1.8,0.36-3.888,0.36-5.615,0.36
			v-38.088c2.231,0,4.104,0,5.615,0.287V410.472z"/>
		
			<linearGradient id="SVGID_5_" gradientUnits="userSpaceOnUse" x1="256.9688" y1="209.0557" x2="256.9688" y2="287.248" gradientTransform="matrix(1 0 0 -1 54 697.5996)">
			<stop  offset="0" style="stop-color:#D80B8C"/>
			<stop  offset="0.32" style="stop-color:#D80B8C"/>
			<stop  offset="1" style="stop-color:#812990"/>
		</linearGradient>
		<path fill="url(#SVGID_5_)" d="M300.023,411.552c2.017,0.145,2.953,0.433,4.465,1.008V486c-1.08,0.72-2.232,1.44-4.465,2.16v0.864
			l21.889-6.336v-0.864c-2.232,0.359-3.384,0.288-4.68,0.072V412.56c1.871-0.792,2.951-0.863,4.68-1.008v-0.72h-21.889V411.552z"/>
		
			<linearGradient id="SVGID_6_" gradientUnits="userSpaceOnUse" x1="289.0098" y1="215.0557" x2="289.0098" y2="287.7302" gradientTransform="matrix(1 0 0 -1 54 697.5996)">
			<stop  offset="0" style="stop-color:#D80B8C"/>
			<stop  offset="0.32" style="stop-color:#D80B8C"/>
			<stop  offset="1" style="stop-color:#812990"/>
		</linearGradient>
		<path fill="url(#SVGID_6_)" d="M337.032,423.72c0-2.447,0.144-8.928,5.832-8.928c2.016,0,2.952,0.504,3.672,1.08
			c2.231,1.656,2.231,7.776,2.231,10.512c0,3.744-0.359,4.896-2.376,7.92l0.937,0.576l13.824-5.112v-2.88
			c0-8.496-3.168-16.848-18.721-16.848c-15.695,0-18.359,8.208-18.359,15.12c0,4.68,1.512,12.815,14.976,23.04
			c10.152,8.352,9.937,12.96,9.937,18.432c0,2.809-0.36,9.216-6.553,9.792c-4.823,0.504-5.399-2.16-5.615-4.176
			c-0.145-1.44-0.145-4.032-0.145-7.992c0-2.736,0.145-3.888,2.232-7.128l-1.152-0.432l-13.68,9v3.168
			c0,5.616,2.304,13.823,18.216,12.239c18.144-1.8,19.656-12.312,19.656-17.783c0-10.296-5.256-12.601-13.681-19.656
			C339.84,436.68,337.032,434.952,337.032,423.72z"/>
		
			<linearGradient id="SVGID_7_" gradientUnits="userSpaceOnUse" x1="329.7246" y1="218.0557" x2="329.7246" y2="286.4561" gradientTransform="matrix(1 0 0 -1 54 697.5996)">
			<stop  offset="0" style="stop-color:#D80B8C"/>
			<stop  offset="0.32" style="stop-color:#D80B8C"/>
			<stop  offset="1" style="stop-color:#812990"/>
		</linearGradient>
		<path fill="url(#SVGID_7_)" d="M389.664,410.688h-7.848v4.608l0.144,0.072l4.392,42.696h-4.535v4.535h5.04l1.151,13.896
			c-0.792,0.144-2.088,0.432-3.023,0.432v0.792l19.512,1.368v-0.792c-1.368,0-2.232-0.432-3.384-0.792L389.664,410.688z
			 M381.816,410.688h-4.536l-11.521,66.097c-1.728,0.504-2.304,0.576-2.808,0.576v0.792l15.696-0.433v-0.792
			c-1.513-0.144-2.448-0.359-2.952-0.792l1.296-13.536h4.824v-4.535h-4.465l4.248-42.769h0.217V410.688z"/>
		
			<linearGradient id="SVGID_8_" gradientUnits="userSpaceOnUse" x1="374.9414" y1="210.0557" x2="374.9414" y2="287.0957" gradientTransform="matrix(1 0 0 -1 54 697.5996)">
			<stop  offset="0" style="stop-color:#D80B8C"/>
			<stop  offset="0.32" style="stop-color:#D80B8C"/>
			<stop  offset="1" style="stop-color:#812990"/>
		</linearGradient>
		<path fill="url(#SVGID_8_)" d="M433.656,411.624c1.943,0.144,2.808,0.432,4.536,1.08l4.104,56.016l-0.36,0.216l-7.487-26.567
			l-13.104-31.536h-16.848v0.792c2.016,0.144,3.023,0.432,4.68,1.08l-0.071,65.016c-1.656,0.504-2.664,0.648-4.681,0.504
			l-0.072,0.864l20.017,2.664v-0.864c-2.232-0.359-2.952-0.72-4.68-1.584l-5.112-64.584l0.432-0.216l6.912,29.88l17.353,40.824
			l9.575,2.664v-75.168c1.152-0.792,2.593-0.937,4.681-1.08v-0.792h-19.872V411.624z"/>
		
			<linearGradient id="SVGID_9_" gradientUnits="userSpaceOnUse" x1="424.5488" y1="186.0557" x2="424.5488" y2="287.4316" gradientTransform="matrix(1 0 0 -1 54 697.5996)">
			<stop  offset="0" style="stop-color:#D80B8C"/>
			<stop  offset="0.32" style="stop-color:#D80B8C"/>
			<stop  offset="1" style="stop-color:#812990"/>
		</linearGradient>
		<path fill="url(#SVGID_9_)" d="M499.032,454.752v-1.008h-21.528v1.008c2.088,0.072,3.024,0.432,4.464,1.08v32.112
			c0,6.264-2.231,7.128-5.976,5.472c-4.824-2.16-5.256-5.616-5.256-6.84v-61.92c0-5.544,0.792-8.929,5.256-8.929
			c5.832,0,5.832,7.129,5.832,12.097c0,6.12-0.792,12.023-4.32,16.056l1.656,0.648l15.768-10.225v-2.952
			c0-11.159-2.447-21.455-19.296-21.455c-14.616,0-17.567,8.855-17.567,16.56v53.928c0,6.552,4.464,13.248,14.544,17.712
			c9,3.96,12.384,1.513,13.68,0.433c0,0,3.888,9.071,7.128,11.664c0.432,0.359,2.448,1.08,2.448,1.08
			c-0.792-1.152-1.152-2.16-1.152-3.528v-51.912C496.8,454.824,497.88,454.824,499.032,454.752z"/>
		
			<linearGradient id="SVGID_10_" gradientUnits="userSpaceOnUse" x1="216.0728" y1="89.0557" x2="216.0728" y2="-19.1094" gradientTransform="matrix(1 0 0 -1 54 697.5996)">
			<stop  offset="0" style="stop-color:#D80B8C"/>
			<stop  offset="0.32" style="stop-color:#D80B8C"/>
			<stop  offset="1" style="stop-color:#812990"/>
		</linearGradient>
		<path fill="url(#SVGID_10_)" d="M272.736,683.568h-4.465v7.416h5.041l1.08,23.256c-0.721,0.288-2.017,0.863-2.953,0.863v1.225
			h19.297v-1.225c-1.368,0-2.305-0.287-3.385-0.863L276.12,605.88l-7.849-5.112v7.633l0.145,0.144L272.736,683.568z
			 M268.271,683.568h-4.535l4.32-75.385l0.215,0.217v-7.633l-4.535-2.951L252.216,714.24c-1.728,0.863-2.232,0.863-2.808,0.863
			v1.225h15.624v-1.225c-1.44-0.287-2.376-0.792-2.952-1.439l1.296-22.68h4.896V683.568L268.271,683.568z"/>
		
			<linearGradient id="SVGID_11_" gradientUnits="userSpaceOnUse" x1="271.9795" y1="83.1509" x2="271.9795" y2="-18.729" gradientTransform="matrix(1 0 0 -1 54 697.5996)">
			<stop  offset="0" style="stop-color:#D80B8C"/>
			<stop  offset="0.32" style="stop-color:#D80B8C"/>
			<stop  offset="1" style="stop-color:#812990"/>
		</linearGradient>
		<path fill="url(#SVGID_11_)" d="M328.32,716.328h-7.488l-16.848-92.376l-0.36-0.145v90.217c1.656,0.863,3.168,0.936,5.04,1.008
			v1.296h-18.359v-1.296c2.088-0.072,3.023-0.145,4.68-1.008v-95.832c-1.656-1.368-2.592-2.017-4.68-2.809v-0.936l20.016,6.191
			l10.512,39.528l3.96,36.504h0.36l6.912-38.447l9-30.816l20.592,2.016v1.008c-2.088,0-3.385,0.217-4.896,0.793v82.8
			c1.729,0.863,2.232,1.151,4.32,1.224v1.08h-21.528v-1.08c3.024-0.216,3.744-0.576,4.464-1.224l3.24-79.92l-0.432-0.288
			L328.32,716.328z"/>
		
			<linearGradient id="SVGID_12_" gradientUnits="userSpaceOnUse" x1="329.1465" y1="23.0557" x2="329.1465" y2="-18.9849" gradientTransform="matrix(1 0 0 -1 54 697.5996)">
			<stop  offset="0" style="stop-color:#D80B8C"/>
			<stop  offset="0.32" style="stop-color:#D80B8C"/>
			<stop  offset="1" style="stop-color:#812990"/>
		</linearGradient>
		<path fill="url(#SVGID_12_)" d="M385.344,674.424c4.536,0.504,5.688,2.592,5.688,6.552v22.608c0,4.248-2.736,6.048-5.688,6.696
			v6.048c15.553-0.288,18.576-8.136,18.576-13.824v-18.72c0-9.216-5.76-11.304-12.888-12.744
			c4.319-0.937,11.808-2.592,11.808-11.088v-16.776c0-6.768-1.943-13.68-17.496-13.752v5.76c3.528,0.504,4.752,2.521,4.752,4.896
			v22.896c0,2.448-1.08,4.681-4.752,5.4V674.424z M382.824,674.352c0.936,0,1.728,0,2.52,0.072v-6.048
			c-0.863,0.216-1.8,0.288-2.952,0.288h-2.808v-33.408l3.744-0.144c0.72,0,1.368,0,2.016,0.071v-5.76c-0.576,0-1.151,0-1.8,0.072
			h-21.168v0.864c2.088,0,3.024,0.288,4.536,0.936v82.872c-1.152,0.576-2.304,1.008-4.536,1.225v0.936h21.888c0.36,0,0.721,0,1.08,0
			v-6.048c-2.088,0.504-4.248,0.504-5.76,0.504v-36.432L382.824,674.352L382.824,674.352z"/>
		
			<linearGradient id="SVGID_13_" gradientUnits="userSpaceOnUse" x1="376.5957" y1="70.0557" x2="376.5957" y2="-19.3389" gradientTransform="matrix(1 0 0 -1 54 697.5996)">
			<stop  offset="0" style="stop-color:#D80B8C"/>
			<stop  offset="0.32" style="stop-color:#D80B8C"/>
			<stop  offset="1" style="stop-color:#812990"/>
		</linearGradient>
		<path fill="url(#SVGID_13_)" d="M436.68,705.456c0,2.52-0.576,5.832-5.976,5.832c-0.072,0-0.145,0-0.216,0v5.904
			c0.144,0,0.288,0,0.432,0c13.248,0,18.288-5.616,18.288-13.104v-72.216c0-7.92-5.76-11.952-18.72-9.72v5.832
			c4.536-0.792,6.191,1.008,6.191,4.752V705.456L436.68,705.456z M430.488,711.288c-4.681-0.072-6.12-2.448-6.12-5.832v-70.56
			c0-2.881,1.08-6.049,6.12-6.912l0,0v-5.832l0,0c-11.952,2.16-18.504,8.063-18.504,16.271v65.664
			c0,7.849,5.903,12.96,18.504,13.104V711.288z"/>
		
			<linearGradient id="SVGID_14_" gradientUnits="userSpaceOnUse" x1="424.4023" y1="113.0557" x2="424.4023" y2="-19.1367" gradientTransform="matrix(1 0 0 -1 54 697.5996)">
			<stop  offset="0" style="stop-color:#D80B8C"/>
			<stop  offset="0.32" style="stop-color:#D80B8C"/>
			<stop  offset="1" style="stop-color:#812990"/>
		</linearGradient>
		<path fill="url(#SVGID_14_)" d="M487.584,596.088c-1.439,0.864-2.52,1.296-4.464,2.521c0,0-7.344-0.721-0.792-3.601
			c10.512-4.752,20.088-10.872,20.088-10.872l0.504,2.448c-2.016,1.944-3.528,3.6-4.68,5.76v123.984h-9.504l-17.424-67.68
			l-6.912-28.872l-0.36,0.504l5.04,93.023c1.656,1.009,2.376,1.513,4.68,1.656v1.368h-19.872v-1.368
			c2.089-0.144,3.024-0.647,4.681-1.656v-93.888c-1.656-0.288-2.593-0.36-4.681,0.36v-1.225l16.849-7.344l13.104,34.272
			l7.488,42.407l0.36-0.359L487.584,596.088z"/>
		<path d="M414.576,414.72l5.111,64.584c1.729,0.864,2.448,1.225,4.681,1.584c-0.792-0.288-1.656-0.504-2.664-1.008l-4.32-54.864
			l-2.376-10.512L414.576,414.72z"/>
		<path d="M448.848,412.704v75.168l-9.504-2.664l2.088,1.584l9.504,2.664l0.072-75.168c1.08-0.792,2.592-0.937,4.68-1.08v-0.72
			l-2.159-1.656v0.792C451.44,411.768,450,411.912,448.848,412.704z"/>
		<path d="M433.728,411.624l2.089,1.584c1.008,0.072,1.728,0.216,2.447,0.36l-0.071-0.864
			C436.536,412.056,435.6,411.768,433.728,411.624z"/>
		<polygon points="441.936,468.936 442.296,468.72 441.864,462.744 436.608,443.952 423.504,412.488 421.344,410.832 
			434.448,442.368 		"/>
		<path d="M404.568,411.624l2.088,1.584c1.008,0.072,1.8,0.216,2.52,0.36v-0.864C407.52,412.056,406.584,411.768,404.568,411.624z"
			/>
		<path d="M261,413.424v-0.647c-1.512-0.721-2.448-1.08-4.68-1.296l2.088,1.439C259.632,413.064,260.352,413.208,261,413.424z"/>
		<path d="M297.864,427.752v16.344c0,7.776-4.104,16.345-20.952,16.345h-3.023v45.647c0.071,0,0.071,0,0.071,0l1.728-0.864V461.88
			h3.024c16.849,0,20.952-8.496,20.952-16.344v-16.272c0-4.752-1.368-10.655-6.336-14.256
			C296.928,418.608,297.864,423.648,297.864,427.752z"/>
		<path d="M275.688,417.744c3.457,0,5.977,0,7.776,0.864c-1.728-2.305-4.823-2.376-9.575-2.376v38.088c0.575,0,1.151,0,1.799,0
			V417.744z"/>
		<path d="M317.232,412.56v69.337c1.224,0.216,2.376,0.287,4.464-0.072c-0.864,0-1.656,0-2.305-0.145l-0.071-67.536
			c1.943-0.792,3.023-0.863,4.68-1.008v-0.72l-2.088-1.584v0.72C320.184,411.696,319.104,411.768,317.232,412.56z"/>
		<path d="M300.023,411.552l2.088,1.584c1.009,0.072,1.729,0.145,2.377,0.288v-0.864
			C302.977,411.984,302.04,411.696,300.023,411.552z"/>
		<path d="M300.096,489.024l2.016,1.584L324,484.272v-0.864c-0.792-0.576-1.872-1.368-2.088-1.512v0.791L300.096,489.024z"/>
		<path d="M361.152,429.768l-13.824,5.112l-0.576-0.36c0.576,0.505,1.224,0.937,1.729,1.44l0.936,0.504l13.896-5.112v-2.88
			c0-5.544-1.368-10.943-6.553-14.111c3.384,3.239,4.393,7.848,4.393,12.527V429.768z"/>
		<path d="M336.816,472.248c0.144,1.512,0.504,3.384,2.808,4.032c-0.432-0.792-0.576-1.656-0.648-2.448
			c-0.216-1.44-0.216-4.032-0.216-7.992c0-2.736,0.216-3.815,2.232-7.128l-2.088-1.512c-2.088,3.168-2.232,4.319-2.232,7.056
			C336.672,468.216,336.672,470.808,336.816,472.248z"/>
		<path d="M342.864,414.792c-5.688,0-5.832,6.48-5.832,8.928c0,11.232,2.808,12.96,11.231,19.944
			c8.425,7.056,13.681,9.36,13.681,19.656c0,5.472-1.513,15.983-19.656,17.783c-6.048,0.576-10.08-0.216-12.816-1.728
			c2.521,2.521,7.057,4.104,14.904,3.312c18.144-1.801,19.656-12.312,19.656-17.784c0-10.225-5.256-12.601-13.681-19.656
			c-8.424-6.984-11.231-8.712-11.231-19.944c0-2.447,0.216-8.928,5.832-8.928c1.008,0,1.8,0.144,2.376,0.36
			c-0.216-0.36-0.504-0.648-0.792-0.864C345.816,415.296,344.88,414.792,342.864,414.792z"/>
		<path d="M404.424,478.296v-0.072c-0.504-0.071-0.936-0.359-1.368-0.504l-11.304-65.447l-2.088-1.585l11.448,66.816
			C402.192,477.864,403.128,478.224,404.424,478.296z"/>
		<path d="M376.992,462.6l-1.296,13.536c0.504,0.433,1.439,0.648,2.952,0.792c-0.217-0.071-0.505-0.216-0.721-0.432l1.152-12.312
			H387l-0.144-1.584H376.992L376.992,462.6z"/>
		<path d="M363.096,478.152l1.944,1.584l15.768-0.433v-0.792c-0.863-0.432-2.016-1.512-2.088-1.512
			c-0.071,0-0.071-0.072-0.071-0.072v0.792L363.096,478.152z"/>
		<path d="M406.656,480.528l19.872,2.808v-0.864c-0.792-0.504-2.017-1.584-2.16-1.584v0.864l-18.433-2.448l-1.367-0.216h-0.217l0,0
			l-19.296-1.368l2.088,1.584L406.656,480.528z"/>
		<polygon points="381.96,415.368 381.6,415.296 377.352,458.064 379.656,458.064 382.968,424.872 		"/>
		<path d="M494.928,431.352v2.952l-15.768,10.225l-1.656-0.648c0.648,0.576,1.44,1.152,2.16,1.584l1.656,0.72l15.695-10.296v-2.952
			c0-7.703-1.151-14.976-7.487-18.792C493.992,418.176,494.928,424.584,494.928,431.352z"/>
		<path d="M477.504,443.88L477.504,443.88L477.504,443.88z"/>
		<path d="M494.712,455.832v51.912c0,1.368,0.36,2.376,1.152,3.528c0,0-1.44-0.576-2.16-0.937l1.872,1.44l2.376,1.08
			c-0.72-1.08-1.08-2.16-1.08-3.528v-51.912c2.016-1.008,3.168-1.008,4.248-1.08v-1.008l-2.088-1.512v0.936
			C497.88,454.824,496.8,454.824,494.712,455.832z"/>
		<path d="M477.72,454.752h-0.144l2.088,1.584c0.936,0.072,1.656,0.145,2.304,0.288v-0.792
			C480.528,455.184,479.592,454.896,477.72,454.752z"/>
		<path d="M475.992,415.728c-4.464,0-5.256,3.385-5.256,8.929v61.92c0,1.08,0.359,4.176,4.248,6.336
			c-1.872-1.872-2.088-3.888-2.088-4.752v-61.92c0-5.544,0.72-8.929,5.256-8.929c0.647,0,1.224,0.145,1.728,0.288
			C479.016,416.52,477.864,415.728,475.992,415.728z"/>
		<path d="M472.608,498.096c-2.089-0.936-3.889-1.943-5.473-3.023c2.017,1.656,4.536,3.24,7.632,4.607
			c7.2,3.168,10.801,2.232,12.601,1.152c-0.648-1.368-1.08-2.304-1.08-2.304C484.992,499.608,481.608,502.056,472.608,498.096z"/>
		<path d="M378.648,476.928L378.648,476.928L378.648,476.928z"/>
		<path d="M477.504,443.88L477.504,443.88L477.504,443.88z"/>
		<path d="M249.408,716.328l2.16,2.016h15.624v-1.296c-0.575-0.576-1.655-1.584-2.159-1.944v1.225H249.408z"/>
		<polygon points="268.416,608.544 268.057,608.184 263.736,683.568 265.968,683.568 269.352,624.672 		"/>
		<path d="M263.376,690.984l-1.296,22.68c0.576,0.648,1.512,1.152,2.952,1.439c0,0-0.433-0.216-0.72-0.575l1.224-21.601h7.848
			l-0.071-1.943H263.376L263.376,690.984z"/>
		<path d="M290.448,715.032c0,0,0,0,0.071,0c-0.359-0.145-0.936-0.36-1.224-0.504l-11.088-106.633l-2.088-2.016l11.231,108.36
			C288.359,714.744,289.296,714.96,290.448,715.032z"/>
		<polygon points="346.824,633.816 328.32,716.328 320.832,716.328 322.992,718.344 330.48,718.344 346.752,645.696 
			347.256,634.104 		"/>
		<path d="M303.624,623.808v90.217c1.584,0.863,3.096,0.936,4.824,1.008c-0.721-0.216-2.088-0.433-2.664-0.792V633.6l-1.8-9.647
			L303.624,623.808z"/>
		<path d="M292.464,718.344h18.36v-1.08c0,0-2.017-2.016-2.16-2.16v1.225h-16.561h-1.584h-19.08l1.729,2.016H292.464
			L292.464,718.344L292.464,718.344L292.464,718.344z"/>
		<path d="M339.552,716.328l2.088,2.016h21.528v-1.08c0,0-2.016-2.016-2.088-2.016v1.08H339.552z"/>
		<path d="M290.305,615.384l2.159,2.017c1.08,0.359,1.8,0.72,2.521,1.224v-0.432C293.328,616.824,292.393,616.176,290.305,615.384z"
			/>
		<polygon points="324.792,696.672 325.152,696.672 326.088,691.344 322.992,662.184 312.48,622.656 310.32,620.64 320.832,660.168 
					"/>
		<path d="M381.744,637.2l3.744-0.072c1.728-0.072,3.096,0.216,4.104,0.648c-0.864-1.584-2.664-2.736-6.264-2.664l-3.744,0.144
			v33.408h2.16V637.2z"/>
		<path d="M401.76,676.152c1.368,1.8,2.16,4.248,2.16,7.632v18.72c0,5.832-3.168,13.824-19.656,13.824h-21.888l2.16,2.016h21.888
			c16.488,0,19.656-8.063,19.656-13.824V685.8C406.08,680.832,404.424,678.024,401.76,676.152z"/>
		<path d="M384.912,676.296c2.448,0,4.176,0.288,5.399,0.864c-0.936-1.944-3.096-2.809-7.487-2.809h-3.24v36.433
			c0.648,0,1.368,0,2.16,0v-34.488H384.912L384.912,676.296z"/>
		<path d="M362.52,630.36c-0.071,0-0.071,0-0.144,0v-0.217l-0.72-0.72v1.008c-2.088,0-3.385,0.217-4.896,0.792v82.801
			c1.729,0.863,2.232,1.079,4.32,1.224c-0.576-0.216-1.368-0.36-2.16-0.72V633.24c1.512-0.576,2.808-0.792,4.824-0.864v-0.792
			l0.792,0.72c0.936,0.072,1.728,0.145,2.376,0.288v-1.296c-1.44-0.576-2.376-0.864-4.32-0.936H362.52z"/>
		<path d="M402.84,659.952c0,8.496-7.488,10.151-11.808,11.088c1.728,0.36,3.456,0.792,4.968,1.296
			c4.104-1.152,8.928-3.528,8.928-10.368v-16.775c0-4.032-0.647-8.137-4.464-10.8c1.944,2.52,2.376,5.688,2.376,8.783V659.952z"/>
		<path d="M447.336,625.536c1.224,1.656,1.872,3.744,1.872,6.336v72.216c0,7.488-5.04,13.104-18.288,13.104
			c-6.479,0-11.16-1.296-14.256-3.601c2.88,3.528,8.208,5.544,16.344,5.544c13.32,0,18.36-5.616,18.36-13.031v-72.288
			C451.368,630.072,450,627.264,447.336,625.536z"/>
		<path d="M426.456,636.912c0-2.88,1.152-6.048,6.192-6.984c1.512-0.216,2.663-0.216,3.6,0.072c-0.792-1.8-2.521-2.592-5.76-2.016
			c-5.04,0.863-6.12,4.031-6.12,6.912v70.56c0,2.376,0.72,4.248,2.735,5.184c-0.432-0.936-0.647-2.016-0.647-3.239V636.912
			L426.456,636.912z"/>
		<polygon points="453.888,716.328 456.048,718.344 475.848,718.344 475.848,716.904 473.76,714.96 473.76,716.328 		"/>
		<path d="M504.504,586.224l-2.016-1.943l0.432,2.304c-2.016,1.944-3.528,3.6-4.68,5.76v123.984h-9.504l2.088,2.016h9.576V593.136
			c1.151-2.231,2.088-3.744,4.104-5.76V586.224z"/>
		<polygon points="491.328,687.888 491.688,687.528 491.256,677.304 486,647.424 472.896,613.152 470.808,611.352 483.84,645.48 		
			"/>
		<path d="M464.04,620.28l5.04,93.023c1.656,1.009,2.376,1.513,4.68,1.656c0,0-2.231-0.647-2.592-0.936l-4.68-85.464l-2.088-8.784
			L464.04,620.28z"/>
		<path d="M453.888,619.776l2.16,2.016c1.08-0.36,1.8-0.576,2.521-0.576v-1.8C456.912,619.128,455.976,619.056,453.888,619.776z"/>
		<path d="M484.92,597.528c1.08-0.288,1.944-0.576,2.736-0.721l-0.072-0.72C486.648,596.664,485.855,597.024,484.92,597.528z"/>
		<polygon points="362.52,630.36 362.592,630.36 362.52,630.288 362.52,630.288 		"/>
		<path fill="#D80B8C" d="M251.568,580.536L251.568,580.536c4.68,0,8.424,3.744,8.424,8.424c0,4.752-3.744,8.496-8.424,8.496l0,0
			v-1.368l0,0c3.816,0,6.984-3.096,6.984-7.128c0-3.96-3.168-7.056-6.984-7.056l0,0V580.536L251.568,580.536z M251.568,589.68
			l2.304,4.104h1.512l-2.376-4.393c1.224,0,2.52-0.72,2.52-2.592c0-2.016-1.512-2.52-3.24-2.52h-0.72v1.368H252
			c1.152,0,2.16,0.071,2.16,1.296c0,1.151-1.368,1.151-2.592,1.08V589.68z M243.072,588.96c0-4.68,3.744-8.424,8.496-8.424v1.368
			c-3.888,0-7.128,3.096-7.128,7.056c0,4.032,3.24,7.128,7.128,7.128v1.368C246.816,597.456,243.072,593.712,243.072,588.96
			L243.072,588.96z M251.568,584.28h-3.312v9.504h1.368v-4.393h1.8l0.144,0.288v-1.655c-0.144,0-0.288,0-0.432,0h-1.512v-2.376
			h1.944V584.28z"/>
	</g>
	<path fill="none" stroke="#00994C" stroke-width="2.2944" stroke-miterlimit="10" d="M511.056,407.376
		c0,0-23.832-36.936-132.84-36.936c-105.264,0-136.08,36.936-136.08,36.936v323.712h268.92V407.376z"/>
</g>
</svg>
