<?xml version="1.0" encoding="utf-8"?>
<!-- Generator: Adobe Illustrator 16.0.0, SVG Export Plug-In . SVG Version: 6.00 Build 0)  -->
<!DOCTYPE svg PUBLIC "-//W3C//DTD SVG 1.1//EN" "http://www.w3.org/Graphics/SVG/1.1/DTD/svg11.dtd">
<svg version="1.1" id="Layer_1" xmlns="http://www.w3.org/2000/svg" xmlns:xlink="http://www.w3.org/1999/xlink" x="0px" y="0px"
	 width="184.142px" height="39.51px" viewBox="303.929 286.245 184.142 39.51"
	 enable-background="new 303.929 286.245 184.142 39.51" xml:space="preserve">
<g>
	<g>
		<g>
			<g>
				<g>
					<rect x="418.126" y="287.866" fill="#439539" width="6.665" height="36.938"/>
				</g>
				<path fill="#439539" d="M442.832,324.805h-6.678v-27.433h6.678V324.805z"/>
				<path fill="#439539" d="M464.857,317.368c-2.203,4.274-3.945,7.547-4.04,7.547c-0.291,0-6.935,0-6.935,0l7.069-13.942
					l-8.232-13.538h7.229l4.245,7.064l3.562-7.064h7.218c0,0-3.392,6.803-6.87,13.624l8.322,13.856h-6.94L464.857,317.368z"/>
				<g>
					<path fill="#439539" d="M343.062,312.948l-0.011-15.576h6.315c0.136,5.074-0.079,10.832-0.004,15.635
						c0,3.293,2.637,6.15,5.938,6.15c3.298,0,5.946-2.462,5.946-5.763l-0.018-16.022h6.405c-0.005,8.111-0.082,9.719,0.004,15.799
						c0,6.797-5.627,12.306-12.418,12.306C348.426,325.477,343.062,319.745,343.062,312.948"/>
				</g>
				<path fill="#439539" d="M393.602,296.675c8.033,0,14.551,6.51,14.551,14.539c0,8.035-6.518,14.541-14.551,14.541
					c-8.026,0-14.62-6.955-14.62-14.983l0.014-22.92h6.666l-0.045,11.537C387.936,297.819,390.596,296.675,393.602,296.675z
					 M393.555,318.925c4.238,0,7.688-3.442,7.688-7.69c0-4.246-3.449-7.687-7.688-7.687c-4.246,0-7.69,3.438-7.69,7.687
					C385.863,315.48,389.309,318.925,393.555,318.925z"/>
				<path fill="#439539" d="M318.461,286.79c8.024,0,14.537,6.518,14.537,14.547c0,8.027-6.513,14.541-14.537,14.541
					c-2.879,0-5.582-0.733-7.842-2.183l-0.017,11.152h-6.669l-0.004-23.787C303.93,293.032,310.43,286.79,318.461,286.79z
					 M318.445,309.001c4.229,0,7.657-3.422,7.657-7.648s-3.428-7.656-7.657-7.656c-4.222,0-7.646,3.43-7.646,7.656
					S314.225,309.001,318.445,309.001z"/>
				<g>
					<path fill="#439539" d="M439.801,294.493c2.274,0,4.123-1.848,4.123-4.123c0-2.277-1.849-4.125-4.123-4.125
						c-2.276,0-4.131,1.848-4.131,4.125C435.67,292.646,437.523,294.493,439.801,294.493z"/>
				</g>
			</g>
		</g>
		<g>
			<path fill="#439539" d="M484.805,318.359c1.801,0,3.267,1.468,3.267,3.269c0,1.793-1.466,3.263-3.267,3.263
				c-1.8,0-3.267-1.47-3.267-3.263C481.538,319.827,483.005,318.359,484.805,318.359z M484.805,324.417
				c1.545,0,2.795-1.25,2.795-2.789c0-1.543-1.25-2.793-2.795-2.793c-1.543,0-2.793,1.25-2.793,2.793
				C482.012,323.167,483.262,324.417,484.805,324.417z M484.093,323.495h-0.475v-3.767h1.449c0.853,0,1.188,0.369,1.188,1.047
				c0,0.691-0.438,0.982-0.949,1.072l1.124,1.646h-0.535l-1.125-1.646h-0.677V323.495L484.093,323.495z M484.093,321.423h0.607
				c0.518,0,1.08-0.026,1.08-0.646c0-0.484-0.441-0.625-0.843-0.625h-0.846L484.093,321.423L484.093,321.423z"/>
		</g>
	</g>
</g>
</svg>
