<?xml version="1.0" encoding="utf-8"?>
<!-- Generator: Adobe Illustrator 16.0.0, SVG Export Plug-In . SVG Version: 6.00 Build 0)  -->
<!DOCTYPE svg PUBLIC "-//W3C//DTD SVG 1.1//EN" "http://www.w3.org/Graphics/SVG/1.1/DTD/svg11.dtd">
<svg version="1.1" id="Layer_1" xmlns="http://www.w3.org/2000/svg" xmlns:xlink="http://www.w3.org/1999/xlink" x="0px" y="0px"
	 width="175.807px" height="156.794px" viewBox="8.445 17.984 175.807 156.794"
	 enable-background="new 8.445 17.984 175.807 156.794" xml:space="preserve">
<g>
	<path fill="#FFF200" d="M121.879,40.6c21.931-2.488,41.854,13.393,44.353,35.351c0.244,2.162,0.311,4.302,0.211,6.41l-79.492,5.05
		c-0.141-0.801-0.259-1.61-0.352-2.429C84.1,63.024,99.948,43.086,121.879,40.6L121.879,40.6z"/>
	<path fill="#FFF200" d="M114.823,17.998c2.488-0.292,5.055,3.953,5.709,9.449c0.656,5.496-0.84,10.216-3.327,10.508
		c-2.487,0.291-5.054-3.955-5.709-9.451S112.335,18.288,114.823,17.998L114.823,17.998z"/>
	<path fill="#FFF200" d="M163.373,31.131c2.006,1.218,1.655,5.488-0.783,9.502c-2.438,4.014-6.063,6.294-8.071,5.075
		c-2.006-1.22-1.656-5.488,0.782-9.503C157.739,32.19,161.365,29.912,163.373,31.131L163.373,31.131z"/>
	<path fill="#FFF200" d="M142.315,20.009c2.254,0.676,2.545,5.214,0.648,10.104c-1.896,4.888-5.279,8.326-7.533,7.651
		c-2.255-0.674-2.548-5.213-0.65-10.103C136.676,22.771,140.062,19.334,142.315,20.009L142.315,20.009z"/>
	<path fill="#FFF200" d="M71.188,49.769c-0.772,1.756,1.465,4.447,4.978,5.99c3.513,1.542,7.008,1.368,7.779-0.39
		c0.771-1.756-1.464-4.447-4.978-5.99C75.454,47.838,71.96,48.012,71.188,49.769L71.188,49.769z"/>
	<path fill="#FFF200" d="M87.611,29.965c-2.03,1.312-1.548,5.693,1.074,9.755s6.417,6.303,8.448,4.993
		c2.03-1.311,1.548-5.693-1.074-9.754C93.437,30.898,89.641,28.655,87.611,29.965L87.611,29.965z"/>
	<path fill="#FFF200" d="M184.207,64.53c0.452,2.078-2.572,4.51-6.729,5.416c-4.158,0.903-7.918-0.056-8.371-2.134
		c-0.451-2.081,2.572-4.513,6.729-5.417C179.995,61.491,183.755,62.451,184.207,64.53L184.207,64.53z"/>
	<path fill="#FFF200" d="M176.94,44.358c1.246,1.728-0.557,5.166-4.01,7.653c-3.451,2.487-7.281,3.108-8.527,1.382
		c-1.241-1.726,0.56-5.165,4.012-7.651C171.869,43.255,175.698,42.633,176.94,44.358L176.94,44.358z"/>
	<path fill="#FFFFFF" d="M122.412,44.371c18.706-2.122,35.7,11.424,37.832,30.153c0.317,2.798,0.282,5.557-0.062,8.233L93.21,87.012
		c-0.405-1.551-0.706-3.146-0.893-4.784C90.188,63.499,103.706,46.492,122.412,44.371L122.412,44.371z"/>
	<path fill="#FFF200" d="M120.877,48.119c16.604-1.865,31.668,9.878,33.536,26.142c0.283,2.469,0.244,4.901-0.078,7.261l-32.936,3.7
		l-25.985,1.651c-0.619-1.865-1.058-3.816-1.291-5.838C92.256,64.771,104.274,49.984,120.877,48.119L120.877,48.119z"/>
	<path fill="#FFFFFF" d="M26.694,134.194C-26.864,73.971,70.795,7.482,126.19,83.708c25.83-44.967,78.559-19.282,33.027,56.973
		C132.213,185.911,67.764,180.375,26.694,134.194L26.694,134.194z"/>
	<path fill="#0099D9" d="M23.509,131.433C-29.085,72.304,68.418,7.896,126.198,81.319c23.422-45.129,77.834-20.957,34.939,58.073
		C134.332,188.778,59.184,171.544,23.509,131.433L23.509,131.433z M26.941,132.272c-50.768-56.043,43.895-117.579,99.643-47.959
		c22.832-42.974,75.472-20.166,33.668,55.096C134.964,184.937,58.293,166.88,26.941,132.272L26.941,132.272z"/>
	<path fill="#0099D9" d="M29.117,133.157C-20.601,77.263,71.57,16.377,126.19,85.785c22.14-42.661,73.576-19.811,33.027,54.897
		C133.354,188.337,70.691,179.897,29.117,133.157L29.117,133.157z"/>
	<path fill="#FFFFFF" d="M38.059,79.739c-20.644-0.971-18.518,39.156-9.159,37.049c0.167-0.037,0.747-4.36,1.245-8.382
		c0.631-5.095,2.488-9.929,4.154-14.782C35.206,90.982,42.839,79.963,38.059,79.739L38.059,79.739z"/>
	<path fill="#FFFFFF" d="M129.896,88.601c0.08-0.063,6.701-5.917,11.91-8.153c2.963-1.273,5.473-2.523,5.305-3.027
		c-1.014-3.045-5.102-4.14-9.811-0.897C133.442,79.18,127.681,90.39,129.896,88.601L129.896,88.601z"/>
	<path d="M158.274,95.793c0.291-0.073,0.582-0.146,0.873-0.219c0.291-0.072,0.582-0.146,0.873-0.218
		c0.291-0.073,0.582-0.146,0.873-0.218c0.291-0.072,0.584-0.146,0.875-0.219c0.291-0.073,0.582-0.146,0.873-0.218
		c0.808-0.202,0.868-0.435,0.895,0.491c0.007,0.235,0.014,0.472,0.021,0.708c0.006,0.236,0.012,0.473,0.02,0.709
		c0.007,0.236,0.014,0.473,0.021,0.708c0.006,0.236,0.012,0.474,0.02,0.709c0.007,0.236,0.014,0.473,0.021,0.709
		c0.006,0.236,0.014,0.473,0.02,0.709c0.021,0.723,0.023,0.707,0.64,0.555c0.103-0.025,0.206-0.053,0.31-0.077
		c0.104-0.026,0.205-0.052,0.309-0.077s0.207-0.052,0.311-0.076c0.619-0.154,0.932-0.099,0.906-0.94
		c-0.007-0.236-0.014-0.474-0.021-0.709c-0.006-0.236-0.012-0.474-0.021-0.709c-0.007-0.235-0.014-0.472-0.021-0.708
		c-0.008-0.236-0.014-0.473-0.021-0.709c-0.007-0.236-0.014-0.472-0.021-0.708c-0.006-0.236-0.014-0.472-0.021-0.708
		c-0.026-0.895,0.054-0.727,0.854-0.927c0.291-0.073,0.582-0.146,0.873-0.219c0.293-0.073,0.584-0.146,0.875-0.218
		c0.291-0.073,0.582-0.146,0.873-0.218c0.293-0.073,0.584-0.146,0.875-0.218c0.291-0.072,0.584-0.146,0.875-0.219
		c1.758-0.439,1.748-0.459,1.806,1.592c0.021,0.676,0.039,1.353,0.06,2.029c0.02,0.676,0.037,1.354,0.058,2.028
		c0.02,0.677,0.038,1.353,0.058,2.028c0.02,0.677,0.039,1.354,0.059,2.029s0.039,1.354,0.058,2.028
		c0.021,0.676,0.039,1.353,0.06,2.028c0.057,1.984,0.019,2.039-1.692,2.466c-0.291,0.073-0.583,0.146-0.874,0.219
		c-0.292,0.073-0.584,0.146-0.875,0.22c-0.292,0.071-0.583,0.146-0.875,0.219c-0.292,0.072-0.583,0.146-0.875,0.219
		c-0.291,0.072-0.583,0.146-0.875,0.218c-0.829,0.207-0.868,0.427-0.896-0.519c-0.007-0.244-0.014-0.49-0.021-0.734
		c-0.007-0.246-0.015-0.491-0.021-0.736c-0.008-0.244-0.015-0.49-0.021-0.736c-0.008-0.244-0.014-0.489-0.02-0.735
		c-0.008-0.245-0.016-0.489-0.021-0.735c-0.008-0.246-0.014-0.49-0.021-0.735c-0.014-0.485,0.157-0.78-0.33-0.659
		c-0.103,0.025-0.205,0.052-0.309,0.077c-0.104,0.026-0.205,0.052-0.309,0.077c-0.104,0.024-0.205,0.052-0.309,0.076
		c-0.104,0.026-0.206,0.053-0.311,0.078c-0.103,0.024-0.204,0.051-0.307,0.076c-0.104,0.026-0.207,0.053-0.31,0.077
		c-0.466,0.116-0.302,0.321-0.288,0.812c0.008,0.246,0.016,0.492,0.021,0.736c0.008,0.245,0.015,0.49,0.021,0.735
		s0.015,0.491,0.021,0.735c0.006,0.246,0.016,0.49,0.021,0.736c0.007,0.244,0.014,0.49,0.021,0.735
		c0.006,0.245,0.014,0.489,0.021,0.735c0.026,0.914-0.034,0.75-0.853,0.955c-0.291,0.071-0.584,0.146-0.875,0.219
		c-0.291,0.072-0.582,0.145-0.873,0.218c-0.291,0.071-0.582,0.146-0.873,0.218c-0.291,0.073-0.582,0.146-0.875,0.219
		c-0.291,0.072-0.582,0.146-0.873,0.219c-1.756,0.438-1.746,0.457-1.805-1.594c-0.02-0.676-0.039-1.353-0.059-2.027
		c-0.02-0.678-0.038-1.354-0.059-2.029c-0.019-0.676-0.037-1.352-0.058-2.027c-0.021-0.677-0.038-1.354-0.058-2.029
		s-0.038-1.354-0.059-2.028c-0.02-0.677-0.039-1.353-0.058-2.029C156.528,96.275,156.563,96.221,158.274,95.793L158.274,95.793z"/>
	<path d="M142.675,107.546c0.03,1.016,0.098,1.798,0.194,2.352c0.226,1.277,0.741,1.815,1.547,1.614
		c0.663-0.165,1.092-0.64,1.291-1.429c0.199-0.788,0.278-1.908,0.237-3.354c-0.026-0.737-0.086-1.334-0.166-1.793
		c-0.219-1.233-0.744-1.746-1.59-1.535c-0.664,0.166-1.092,0.589-1.278,1.27C142.722,105.345,142.646,106.303,142.675,107.546
		L142.675,107.546z M134.772,109.521c-0.09-2.89,0.648-5.264,2.209-7.119c1.563-1.857,3.91-3.178,7.033-3.959
		c2.78-0.693,4.98-0.659,6.613,0.104c1.626,0.761,2.641,2.259,3.033,4.487c0.105,0.596,0.166,1.17,0.177,1.723
		c0.05,1.973-0.271,3.752-0.961,5.336c-0.687,1.582-1.731,2.916-3.142,3.996c-1.408,1.079-3.135,1.877-5.178,2.389
		c-1.812,0.451-3.394,0.559-4.732,0.32c-1.346-0.242-2.42-0.812-3.236-1.715c-0.816-0.907-1.355-2.105-1.622-3.611
		C134.874,110.938,134.812,110.288,134.772,109.521L134.772,109.521z"/>
	<path d="M120.622,106.081l0.051,1.902l0.051,1.901c0.164,2.706,0.244,1.621,1.187-0.296l1.071-2.183l1.072-2.185
		c1.082-2.201,1.084-2.186,3.297-2.738l2.226-0.556l2.225-0.555c2.767-0.69,2.274-0.649,0.912,1.89l-1.312,2.445l-1.312,2.445
		c-1.376,2.564-1.428,2.283,0.184,4.553l1.496,2.105l1.496,2.105c1.627,2.29,1.896,2.007-0.799,2.68l-2.293,0.572l-2.293,0.573
		c-2.304,0.575-2.158,0.786-3.468-1.278l-1.175-1.852l-1.174-1.852c-1.225-1.699-1.18-1.994-1.17,0.293l0.066,2.127l0.066,2.129
		c0.021,0.709,0.043,1.418,0.064,2.127l-1.965,0.49l-1.966,0.492l-1.966,0.49c-0.655,0.164-1.312,0.328-1.967,0.49l-0.063-2.282
		l-0.065-2.282l-0.063-2.282l-0.065-2.282l-0.064-2.282l-0.064-2.282l-0.064-2.283c-0.069-2.433-0.295-2.226,1.899-2.773l1.966-0.49
		l1.967-0.491C120.636,104.163,120.562,103.801,120.622,106.081L120.622,106.081z"/>
	<path d="M84.325,129.718l-0.069-2.408l-0.137-4.819c-0.228-8.011-2.155-9.168,5.19-11.003c7.309-1.825,5.836-0.029,7.932,7.515
		l0.066-0.017c0.918-4.87,0.574-9.641,5.969-10.987l1.363-0.34c0.454-0.114,0.909-0.228,1.363-0.341
		c3.814-0.953,4.104-0.514,4.229,3.797l0.068,2.41l0.068,2.408l0.068,2.409l0.068,2.41l0.068,2.409
		c0.095,3.329-0.701,2.602-3.635,3.334l-1.852,0.462c-1.768,0.442-1.85,0.905-1.855-1.116l-0.004-1.578l-0.004-1.578l-0.005-1.578
		l-0.009-3.157c-0.023-7.153-1.085,1.354-1.575,3.553c-0.974,4.36-0.212,6.372-4.3,7.394l-1.402,0.351
		c-2.567,0.642-2.477-3.14-3.209-5.517c-0.748-2.43-2.136-10.059-1.735-2.728l0.171,3.117l0.17,3.116l0.086,1.559
		c0.136,2.493-1.375,1.923-3.47,2.446c-0.592,0.147-1.185,0.296-1.777,0.444C83.971,132.231,84.393,132.112,84.325,129.718
		L84.325,129.718z"/>
	<path d="M72.788,126.556c-1.173,0.293-2.107,0.67-2.809,1.141c-0.695,0.468-1.028,1.178-0.994,2.125
		c0.123,0.693,0.347,1.142,0.673,1.354c0.326,0.206,0.801,0.231,1.425,0.075c0.849-0.212,1.504-0.742,1.963-1.589
		C73.58,128.681,74.512,126.125,72.788,126.556L72.788,126.556z M66.303,116.507c0.994-0.418,2.297-0.829,3.909-1.23
		c1.832-0.459,3.501-0.705,5.015-0.743c1.514-0.031,2.836,0.312,3.965,1.036c1.13,0.73,1.851,1.977,2.165,3.755
		c0.085,0.481,0.144,1.016,0.174,1.604c0.062,2.056,0.123,4.111,0.184,6.167c0.169,5.646,1.252,5.9-3.875,7.182
		c-3.458,0.863-4.03,2.121-4.134-1.908l-0.076,0.02c-0.555,1.264-1.341,2.31-2.354,3.137c-1.018,0.83-2.166,1.404-3.442,1.724
		c-1.676,0.419-3.138,0.372-4.394-0.146c-1.255-0.517-2.021-1.572-2.302-3.164c-0.035-0.199-0.069-0.53-0.109-0.998
		c-0.034-1.488,0.206-2.797,0.712-3.924c0.507-1.127,1.203-2.072,2.086-2.843c0.879-0.762,1.849-1.383,2.911-1.864
		c1.061-0.479,2.205-0.871,3.424-1.176c0.41-0.102,0.835-0.189,1.275-0.26c0.439-0.07,0.845-0.133,1.216-0.186
		c0.371-0.055,0.678-0.092,0.912-0.131c-0.202-1.146-0.712-1.81-1.533-1.983c-0.815-0.175-1.87-0.101-3.158,0.221
		c-1.011,0.253-2.042,0.667-3.086,1.242c-0.526,0.288-1.029,0.596-1.512,0.924C60.494,125.533,62.822,117.976,66.303,116.507
		L66.303,116.507z"/>
	<path d="M34.438,131.429l-0.194-6.797c-0.311-10.945,6.603-8.492,15.783-10.785c1.288-0.322,2.553-0.402,3.79-0.234
		c1.242,0.168,2.337,0.697,3.292,1.591c0.954,0.894,1.583,2.2,1.889,3.934c0.112,0.634,0.172,1.245,0.186,1.837
		c0.059,2.279-0.284,4.269-1.029,5.965c-0.744,1.694-1.776,3.058-3.102,4.095c-1.325,1.038-2.826,1.766-4.5,2.184l-6.657,1.663
		l0.114,3.91c0.143,4.857-0.181,3.982-4.534,5.07C31.591,145.828,34.653,138.985,34.438,131.429L34.438,131.429z M47.139,121.235
		c-1.353,0.338-2.433,0.85-3.24,1.535c-0.807,0.69-1.193,1.717-1.157,3.086c0.224,1.271,0.725,2.021,1.507,2.246
		c0.777,0.229,1.812,0.181,3.1-0.142c0.99-0.248,1.824-1.408,2.248-2.706C50.304,123.093,49.875,120.552,47.139,121.235
		L47.139,121.235z"/>
	<path fill="#FFFFFF" d="M159.399,93.562c0.291-0.073,0.582-0.146,0.873-0.219c0.291-0.073,0.582-0.146,0.873-0.218
		c0.293-0.073,0.584-0.145,0.875-0.218c0.291-0.072,0.582-0.146,0.873-0.218s0.582-0.145,0.873-0.218
		c0.808-0.201,0.868-0.435,0.895,0.491c0.008,0.236,0.015,0.472,0.021,0.709c0.006,0.236,0.014,0.472,0.021,0.708
		c0.007,0.237,0.014,0.473,0.021,0.709c0.006,0.236,0.014,0.472,0.021,0.708c0.007,0.237,0.014,0.472,0.021,0.708
		c0.008,0.236,0.014,0.474,0.021,0.709c0.021,0.724,0.022,0.708,0.639,0.556c0.104-0.025,0.206-0.053,0.31-0.078
		s0.207-0.051,0.31-0.076c0.104-0.026,0.207-0.053,0.31-0.077c0.619-0.155,0.933-0.099,0.907-0.941
		c-0.007-0.235-0.014-0.473-0.021-0.708c-0.008-0.236-0.014-0.473-0.021-0.708c-0.007-0.236-0.014-0.473-0.021-0.708
		c-0.006-0.237-0.014-0.473-0.021-0.709c-0.007-0.236-0.014-0.472-0.021-0.708c-0.008-0.236-0.014-0.472-0.021-0.708
		c-0.025-0.895,0.053-0.727,0.854-0.927c0.291-0.073,0.584-0.146,0.875-0.218c0.291-0.073,0.582-0.146,0.873-0.219
		c0.293-0.073,0.584-0.146,0.875-0.218c0.291-0.073,0.582-0.146,0.873-0.218c0.293-0.073,0.584-0.146,0.875-0.219
		c1.759-0.439,1.748-0.46,1.807,1.592c0.02,0.676,0.039,1.353,0.059,2.029c0.021,0.676,0.039,1.353,0.059,2.029
		c0.02,0.677,0.037,1.353,0.058,2.029s0.038,1.354,0.058,2.028c0.021,0.677,0.039,1.353,0.059,2.028
		c0.02,0.677,0.039,1.354,0.059,2.028c0.057,1.985,0.02,2.039-1.691,2.466c-0.293,0.073-0.583,0.146-0.875,0.219
		c-0.291,0.074-0.583,0.146-0.875,0.22c-0.291,0.071-0.583,0.146-0.874,0.219c-0.292,0.072-0.583,0.146-0.875,0.22
		c-0.292,0.071-0.583,0.146-0.875,0.217c-0.829,0.207-0.868,0.429-0.896-0.518c-0.008-0.246-0.015-0.49-0.021-0.734
		c-0.008-0.246-0.014-0.491-0.021-0.736c-0.006-0.246-0.014-0.491-0.021-0.736c-0.007-0.244-0.015-0.49-0.021-0.736
		c-0.008-0.244-0.015-0.489-0.021-0.734c-0.008-0.246-0.014-0.491-0.021-0.736c-0.013-0.484,0.158-0.779-0.328-0.658
		c-0.104,0.025-0.207,0.051-0.31,0.076c-0.104,0.026-0.206,0.053-0.31,0.077c-0.103,0.025-0.205,0.052-0.309,0.077
		s-0.206,0.052-0.309,0.077c-0.104,0.024-0.205,0.052-0.309,0.077s-0.205,0.051-0.31,0.076c-0.466,0.117-0.302,0.321-0.287,0.812
		c0.007,0.245,0.015,0.491,0.021,0.736c0.006,0.244,0.016,0.49,0.021,0.734c0.006,0.245,0.016,0.491,0.021,0.736
		s0.014,0.49,0.021,0.736c0.007,0.244,0.015,0.49,0.021,0.734c0.008,0.245,0.016,0.49,0.021,0.735
		c0.025,0.914-0.033,0.75-0.852,0.955c-0.293,0.071-0.584,0.146-0.875,0.218c-0.291,0.073-0.582,0.146-0.873,0.219
		s-0.582,0.146-0.873,0.219s-0.584,0.146-0.875,0.219c-0.291,0.072-0.582,0.146-0.873,0.218c-1.758,0.438-1.746,0.458-1.805-1.593
		c-0.02-0.676-0.039-1.354-0.059-2.028c-0.02-0.677-0.038-1.353-0.059-2.028c-0.02-0.677-0.039-1.354-0.058-2.028
		c-0.021-0.677-0.039-1.353-0.058-2.029c-0.02-0.677-0.039-1.353-0.059-2.028c-0.02-0.677-0.039-1.354-0.059-2.028
		C157.653,94.044,157.688,93.989,159.399,93.562L159.399,93.562z"/>
	<path fill="#FFFFFF" d="M143.8,105.315c0.031,1.015,0.098,1.797,0.195,2.352c0.227,1.277,0.74,1.814,1.546,1.614
		c0.663-0.166,1.093-0.64,1.292-1.429s0.277-1.908,0.238-3.354c-0.027-0.737-0.088-1.334-0.168-1.792
		c-0.219-1.234-0.744-1.747-1.59-1.536c-0.662,0.166-1.09,0.589-1.277,1.271C143.849,103.114,143.771,104.073,143.8,105.315
		L143.8,105.315z M135.897,107.289c-0.09-2.89,0.649-5.263,2.209-7.119c1.564-1.858,3.91-3.178,7.035-3.958
		c2.779-0.694,4.979-0.66,6.612,0.104c1.626,0.76,2.64,2.258,3.033,4.487c0.104,0.597,0.165,1.171,0.176,1.724
		c0.052,1.972-0.271,3.752-0.961,5.336c-0.685,1.582-1.729,2.916-3.14,3.994c-1.409,1.08-3.135,1.879-5.18,2.39
		c-1.812,0.452-3.394,0.56-4.731,0.321c-1.347-0.242-2.421-0.812-3.236-1.715c-0.815-0.908-1.356-2.106-1.622-3.612
		C136,108.709,135.937,108.058,135.897,107.289L135.897,107.289z"/>
	<path fill="#FFFFFF" d="M121.747,103.851l0.051,1.902l0.053,1.902c0.162,2.705,0.242,1.621,1.186-0.297l1.072-2.183l1.072-2.184
		c1.08-2.201,1.082-2.185,3.297-2.738l2.225-0.556l2.225-0.557c2.766-0.689,2.274-0.648,0.911,1.892l-1.312,2.444l-1.312,2.446
		c-1.377,2.564-1.429,2.283,0.184,4.552l1.496,2.106l1.496,2.106c1.625,2.289,1.896,2.004-0.799,2.679l-2.293,0.571l-2.294,0.574
		c-2.304,0.574-2.157,0.785-3.467-1.279l-1.175-1.852l-1.174-1.851c-1.225-1.699-1.18-1.994-1.17,0.292l0.066,2.128l0.066,2.128
		c0.021,0.709,0.043,1.418,0.064,2.128l-1.966,0.491l-1.966,0.49l-1.965,0.49c-0.655,0.164-1.312,0.327-1.967,0.491l-0.064-2.282
		l-0.064-2.283l-0.064-2.281l-0.065-2.283l-0.063-2.282l-0.065-2.282l-0.065-2.283c-0.068-2.433-0.293-2.226,1.901-2.772
		l1.966-0.491l1.965-0.49C121.761,101.933,121.687,101.569,121.747,103.851L121.747,103.851z"/>
	<path fill="#FFFFFF" d="M85.45,127.487l-0.069-2.409l-0.137-4.819c-0.228-8.011-2.155-9.168,5.19-11.003
		c7.308-1.825,5.835-0.028,7.932,7.515l0.066-0.018c0.918-4.869,0.574-9.639,5.969-10.986l1.363-0.34
		c0.454-0.113,0.908-0.228,1.363-0.341c3.814-0.953,4.104-0.513,4.229,3.797l0.068,2.409l0.068,2.41l0.068,2.408l0.067,2.41
		l0.069,2.41c0.095,3.328-0.701,2.602-3.635,3.334l-1.852,0.463c-1.768,0.44-1.852,0.903-1.855-1.117l-0.004-1.578l-0.004-1.579
		l-0.006-1.578l-0.009-3.157c-0.022-7.152-1.084,1.355-1.575,3.553c-0.973,4.361-0.211,6.373-4.299,7.394l-1.402,0.351
		c-2.566,0.643-2.478-3.139-3.208-5.517c-0.748-2.429-2.137-10.058-1.735-2.728l0.17,3.117l0.171,3.117l0.085,1.559
		c0.136,2.492-1.375,1.922-3.469,2.445c-0.592,0.148-1.185,0.297-1.777,0.444C85.096,130.002,85.519,129.882,85.45,127.487
		L85.45,127.487z"/>
	<path fill="#FFFFFF" d="M73.914,124.324c-1.173,0.294-2.108,0.671-2.809,1.141c-0.696,0.468-1.029,1.179-0.995,2.124
		c0.123,0.695,0.347,1.143,0.674,1.355c0.326,0.205,0.801,0.23,1.425,0.074c0.849-0.213,1.504-0.74,1.963-1.588
		C74.705,126.45,75.638,123.896,73.914,124.324L73.914,124.324z M67.428,114.276c0.994-0.418,2.297-0.829,3.91-1.231
		c1.831-0.458,3.501-0.705,5.015-0.743c1.514-0.031,2.836,0.312,3.965,1.036c1.13,0.731,1.851,1.976,2.165,3.755
		c0.085,0.481,0.143,1.016,0.174,1.604c0.062,2.055,0.122,4.11,0.184,6.167c0.169,5.645,1.252,5.9-3.875,7.182
		c-3.458,0.863-4.03,2.121-4.134-1.908l-0.076,0.019c-0.555,1.264-1.341,2.31-2.354,3.138c-1.018,0.829-2.165,1.403-3.442,1.723
		c-1.676,0.42-3.138,0.373-4.394-0.145s-2.021-1.573-2.302-3.164c-0.035-0.2-0.07-0.532-0.11-0.999
		c-0.033-1.487,0.206-2.797,0.713-3.924c0.507-1.127,1.203-2.071,2.087-2.843c0.879-0.762,1.849-1.383,2.911-1.863
		c1.061-0.48,2.205-0.871,3.424-1.176c0.41-0.104,0.835-0.188,1.275-0.26c0.44-0.07,0.845-0.134,1.216-0.187
		c0.371-0.054,0.678-0.091,0.912-0.13c-0.202-1.146-0.711-1.811-1.533-1.983c-0.815-0.176-1.87-0.102-3.158,0.22
		c-1.011,0.254-2.042,0.668-3.087,1.242c-0.525,0.287-1.029,0.596-1.512,0.924C61.62,123.303,63.948,115.744,67.428,114.276
		L67.428,114.276z"/>
	<path fill="#FFFFFF" d="M35.563,129.198l-0.194-6.797c-0.311-10.945,6.603-8.492,15.783-10.786c1.289-0.321,2.553-0.402,3.79-0.233
		c1.242,0.167,2.337,0.697,3.292,1.59c0.954,0.894,1.583,2.199,1.889,3.935c0.111,0.633,0.171,1.245,0.185,1.837
		c0.059,2.279-0.284,4.268-1.028,5.964c-0.744,1.694-1.777,3.058-3.102,4.095c-1.325,1.037-2.826,1.766-4.5,2.184l-6.657,1.664
		l0.115,3.91c0.143,4.856-0.181,3.982-4.534,5.069C32.716,143.599,35.779,136.756,35.563,129.198L35.563,129.198z M48.265,119.005
		c-1.352,0.337-2.433,0.85-3.24,1.535c-0.807,0.691-1.193,1.717-1.156,3.087c0.224,1.271,0.725,2.021,1.506,2.244
		c0.777,0.231,1.812,0.182,3.101-0.142c0.99-0.246,1.824-1.407,2.248-2.705C51.43,120.862,51,118.321,48.265,119.005L48.265,119.005
		z"/>
	<path fill="#ED1C24" d="M58.257,169.028c40.073,10.207,89.955,12.677,115.233-43.609c1.049-2.335-14.597-7.898-16.837-3.708
		c-18.334,34.272-54.457,34.526-87.618,24.403C62.916,144.25,51.009,167.187,58.257,169.028L58.257,169.028z"/>
	<path fill="#FFFFFF" d="M61.132,167.336c37.792,9.812,86.74,12.926,110.567-41.131c1.528-3.47-15.329-5.88-16.337-3.944
		c-16.924,32.506-51.031,37.221-84.821,26.948C65.074,147.552,55.234,165.812,61.132,167.336L61.132,167.336z"/>
	<path fill="#ED1C24" d="M62.298,165.621c45.471,11.796,86.689,7.621,107.678-38.574c0.848-1.866-12.32-6.557-14.229-3.038
		c-17.236,31.775-52.766,36.449-85.242,26.502C65.996,149.131,60.583,165.176,62.298,165.621L62.298,165.621z"/>
	<path fill="#FFFFFF" d="M71.439,162.586l0.087-0.786l0.04-4.753l-0.776-0.251l-2.285,5.395l0.492,0.16l1.77-4.179l0.295-0.735
		l0.03,0.01l-0.047,0.791l-0.049,4.758l0.507,0.164l3.508-3.643l0.554-0.627l0.03,0.01l-0.326,0.729l-1.769,4.178l0.492,0.157
		l2.285-5.396l-0.776-0.25l-3.512,3.633l-0.52,0.646L71.439,162.586L71.439,162.586z M76.596,160.271l-1.266,4.061l1.521,0.312
		c0.279,0.058,1.442,0.271,1.819-0.94c0.375-1.203-0.766-1.462-1.053-1.521l-1.031-0.213l0.498-1.599L76.596,160.271L76.596,160.271
		z M76.455,162.39l0.993,0.202c0.225,0.048,0.957,0.214,0.71,1.005c-0.251,0.807-0.998,0.662-1.215,0.618l-0.993-0.204
		L76.455,162.39L76.455,162.39z M80.287,161.026l-1.265,4.061l0.489,0.102l1.265-4.062L80.287,161.026L80.287,161.026z
		 M83.471,161.597l-0.914,4.116l0.5,0.056l0.819-3.69l2.128,0.239l-0.819,3.691l0.5,0.057l0.913-4.116L83.471,161.597
		L83.471,161.597z M90.455,164.463l0.027-0.161c0.121-0.718,0.246-2.127-1.287-2.217c-1.043-0.062-1.918,0.66-2.138,1.958
		c-0.24,1.419,0.342,2.244,1.513,2.312c0.417,0.024,0.827,0,1.274-0.153l0.079-0.468c-0.444,0.186-0.855,0.219-1.272,0.193
		c-1.172-0.068-1.195-1.129-1.101-1.636L90.455,164.463L90.455,164.463z M87.622,163.865c0.133-0.692,0.667-1.402,1.501-1.354
		c1.067,0.063,0.938,1.162,0.874,1.492L87.622,163.865L87.622,163.865z M91.775,162.337l-0.508-0.012l-0.178,1.324
		c-0.085,0.638,0.161,1.096,1.499,1.127c0.315,0.008,0.626-0.024,0.941-0.074l-0.245,1.824l0.508,0.012l0.555-4.141l-0.508-0.013
		l-0.253,1.89c-0.332,0.058-0.659,0.082-0.981,0.074c-1-0.023-1.05-0.373-0.998-0.77L91.775,162.337L91.775,162.337z M98.421,164.71
		l0.018-0.162c0.069-0.718,0.097-2.122-1.451-2.104c-1.052,0.012-1.881,0.787-2.01,2.087c-0.141,1.421,0.502,2.196,1.685,2.184
		c0.421-0.004,0.831-0.058,1.271-0.241l0.047-0.469c-0.436,0.215-0.846,0.276-1.267,0.281c-1.183,0.013-1.281-1.034-1.222-1.543
		L98.421,164.71L98.421,164.71z M95.532,164.315c0.085-0.694,0.571-1.436,1.414-1.443c1.076-0.014,1.023,1.085,0.982,1.416
		L95.532,164.315L95.532,164.315z M100.194,162.444l-0.725,0.033l-0.265,4.139l0.512-0.023l0.188-2.943l0.003-0.668l0.022-0.002
		l0.209,0.658l1.078,2.887l0.439-0.021l1.488-3.003l0.271-0.681l0.022-0.002l-0.082,0.673l-0.189,2.942l0.514-0.022l0.264-4.138
		l-0.641,0.029l-1.545,3.118l-0.271,0.567l-0.031,0.002l-0.127-0.551L100.194,162.444L100.194,162.444z M107.913,162.069
		c-0.443-0.108-0.809-0.096-0.996-0.08c-1.424,0.113-2.129,1.216-2.16,2.302c-0.037,1.255,0.743,2.062,2.104,1.952
		c0.342-0.028,0.627-0.083,0.973-0.24l-0.036-0.432c-0.362,0.174-0.688,0.231-0.925,0.251c-0.862,0.069-1.612-0.384-1.578-1.575
		c0.03-1.014,0.652-1.762,1.62-1.84c0.302-0.024,0.634-0.004,0.963,0.115L107.913,162.069L107.913,162.069z M111.453,161.543
		l-1.62,0.187c-0.887,0.103-1.29,0.767-1.286,1.352c0.005,0.722,0.495,0.954,0.862,1.009l-0.967,1.917l0.619-0.07l0.877-1.803
		l1.017-0.117l0.011,1.7l0.514-0.06L111.453,161.543L111.453,161.543z M110.942,162.026l0.011,1.563l-0.993,0.114
		c-0.627,0.07-0.873-0.311-0.876-0.688c-0.002-0.367,0.239-0.806,0.866-0.877L110.942,162.026L110.942,162.026z M114.294,163.11
		c0.076,1.267,0.898,1.976,2.053,1.783c1.153-0.193,1.875-1.158,1.799-2.425c-0.076-1.272-0.89-1.981-2.052-1.788
		C114.933,160.874,114.218,161.838,114.294,163.11L114.294,163.11z M114.831,163.022c-0.048-0.797,0.312-1.758,1.288-1.92
		c0.975-0.162,1.442,0.66,1.489,1.457c0.048,0.787-0.312,1.748-1.289,1.91C115.347,164.633,114.878,163.812,114.831,163.022
		L114.831,163.022z M121.696,157.372c-1.033,0.465-1.941,0.541-2.615,1.279c-0.719,0.781-0.703,1.646-0.54,2.725
		c0.229,1.523,0.778,2.943,2.472,2.514c0.918-0.231,1.877-1.076,1.656-2.529c-0.218-1.438-1.236-1.868-2.275-1.605
		c-0.725,0.186-1.236,0.776-1.371,1.483l-0.024,0.007l-0.028-0.188c-0.105-0.703-0.169-1.449,0.402-2.099
		c0.533-0.604,1.191-0.627,2.396-1.126L121.696,157.372L121.696,157.372z M119.304,162.213c-0.173-1.133,0.42-1.858,1.161-2.047
		c0.74-0.188,1.501,0.194,1.673,1.328c0.164,1.086-0.424,1.786-1.173,1.978C120.216,163.66,119.467,163.299,119.304,162.213
		L119.304,162.213z M126.133,164.01c0.179-0.017,0.37-0.073,0.543-0.14c0.494-0.188,0.63-0.598,0.665-1.109l0.362-5.373
		l-0.511,0.193l-0.176,3.328L127,161.333l-0.008,0.003L126.757,161l-1.902-2.531l-0.525,0.199l2.595,3.429l-0.028,0.567
		c-0.02,0.415-0.09,0.685-0.412,0.806c-0.117,0.045-0.276,0.098-0.424,0.104L126.133,164.01L126.133,164.01z M128.67,156.938
		l0.529,1.427c0.28,0.758,0.366,1.329,0.144,2.181l-0.431,0.195l0.517,1.392l0.483-0.22l-0.372-1.006l3.232-1.473l0.371,1.006
		l0.484-0.219l-0.516-1.393l-0.576,0.262l-1.241-3.348L128.67,156.938L128.67,156.938z M129.896,160.294
		c0.168-0.857,0.088-1.341-0.209-2.141l-0.39-1.049l1.658-0.754l1.099,2.961L129.896,160.294L129.896,160.294z M132.978,157.138
		c0.555,1.094,1.621,1.413,2.664,0.812c1.045-0.602,1.377-1.727,0.821-2.819c-0.558-1.101-1.614-1.424-2.666-0.817
		C132.745,154.918,132.42,156.038,132.978,157.138L132.978,157.138z M133.463,156.856c-0.349-0.687-0.364-1.672,0.519-2.181
		c0.884-0.509,1.648,0.046,1.996,0.732c0.347,0.681,0.361,1.666-0.521,2.175S133.808,157.538,133.463,156.856L133.463,156.856z
		 M136.135,152.907l2.048,3.365l1.519-1.008c0.155-0.104,1.223-0.82,0.655-1.752c-0.248-0.406-0.734-0.57-1.188-0.382l-0.009-0.013
		c0.235-0.35,0.289-0.688,0.085-1.023c-0.299-0.492-0.904-0.652-1.671-0.144L136.135,152.907L136.135,152.907z M136.793,152.958
		l0.965-0.641c0.582-0.385,0.921-0.123,1.062,0.106c0.314,0.519-0.323,0.942-0.396,0.989l-0.964,0.64L136.793,152.958
		L136.793,152.958z M137.671,154.401l0.965-0.641c0.631-0.419,1.049-0.271,1.252,0.062c0.18,0.295,0.133,0.74-0.435,1.117
		l-1.036,0.688L137.671,154.401L137.671,154.401z M140.562,152.336c0.73,0.976,1.853,1.119,2.807,0.373
		c0.953-0.747,1.109-1.892,0.379-2.865c-0.734-0.979-1.85-1.129-2.811-0.377S139.826,151.356,140.562,152.336L140.562,152.336z
		 M141.005,151.989c-0.459-0.612-0.632-1.566,0.176-2.198c0.807-0.631,1.663-0.213,2.123,0.399c0.454,0.605,0.627,1.562-0.181,2.191
		C142.315,153.013,141.46,152.597,141.005,151.989L141.005,151.989z M143.479,147.476l0.694,0.824
		c0.896,1.057,1.72,1.821,1.015,2.43c-0.047,0.039-0.106,0.07-0.162,0.099l0.252,0.299c0.142-0.069,0.275-0.176,0.398-0.282
		c0.866-0.746-0.103-1.721-1.061-2.854l-0.469-0.555l1.371-1.183l2.271,2.688l0.407-0.352l-2.534-2.998L143.479,147.476
		L143.479,147.476z M146.526,144.864l2.703,2.843l1.215-1.149c0.225-0.211,1.133-1.104,0.324-1.951
		c-0.801-0.842-1.733,0.011-1.963,0.228l-0.826,0.78l-1.063-1.119L146.526,144.864L146.526,144.864z M148.261,145.907l0.793-0.751
		c0.182-0.171,0.78-0.718,1.309-0.163c0.537,0.564-0.053,1.135-0.228,1.299l-0.794,0.752L148.261,145.907L148.261,145.907z
		 M151.75,139.649c-0.426,0.244-0.703,0.511-0.84,0.651c-1.035,1.077-0.8,2.269-0.045,2.974c0.87,0.814,2.062,0.771,3.05-0.256
		c0.249-0.259,0.434-0.494,0.592-0.838l-0.338-0.246c-0.159,0.365-0.374,0.633-0.545,0.812c-0.628,0.651-1.541,0.896-2.368,0.122
		c-0.704-0.658-0.753-1.568-0.049-2.301c0.22-0.229,0.496-0.448,0.839-0.606L151.75,139.649L151.75,139.649z M151.676,139.459
		l0.312,0.259l0.898-1.025l2.711,2.252l0.354-0.403l-2.709-2.253l0.898-1.027l-0.312-0.26L151.676,139.459L151.676,139.459z
		 M154.058,136.624l3.215,2.277l1.11-1.443c0.114-0.146,0.894-1.171,0.002-1.802c-0.388-0.274-0.923-0.247-1.294,0.084l-0.013-0.009
		c0.103-0.396,0.03-0.719-0.289-0.944c-0.472-0.333-1.117-0.261-1.679,0.469L154.058,136.624L154.058,136.624z M154.717,136.435
		l0.706-0.916c0.426-0.554,0.852-0.439,1.07-0.283c0.494,0.35,0.027,0.957-0.023,1.023l-0.705,0.917L154.717,136.435
		L154.717,136.435z M156.095,137.411l0.706-0.917c0.464-0.601,0.923-0.618,1.242-0.394c0.281,0.2,0.397,0.615-0.019,1.155
		l-0.758,0.984L156.095,137.411L156.095,137.411z M156.554,133.24l3.436,1.967l0.322-0.497l-1.291-3.324l-0.205-0.449l0.016-0.021
		l0.357,0.215l2.518,1.441l0.291-0.447l-3.436-1.968l-0.324,0.498l1.285,3.32l0.211,0.452l-0.015,0.021l-0.356-0.214l-2.518-1.441
		L156.554,133.24L156.554,133.24z M159.091,129.253l3.592,1.708l0.291-0.515l-1.533-3.201l-0.237-0.43l0.013-0.022l0.374,0.188
		l2.634,1.25l0.262-0.463l-3.594-1.707l-0.289,0.515l1.525,3.198l0.244,0.433l-0.014,0.022l-0.373-0.188l-2.633-1.251
		L159.091,129.253L159.091,129.253z"/>
</g>
</svg>
