<?xml version="1.0" encoding="utf-8"?>
<!-- Generator: Adobe Illustrator 16.0.0, SVG Export Plug-In . SVG Version: 6.00 Build 0)  -->
<!DOCTYPE svg PUBLIC "-//W3C//DTD SVG 1.1//EN" "http://www.w3.org/Graphics/SVG/1.1/DTD/svg11.dtd">
<svg version="1.1" id="Layer_1" xmlns="http://www.w3.org/2000/svg" xmlns:xlink="http://www.w3.org/1999/xlink" x="0px" y="0px"
	 width="175.748px" height="115.161px" viewBox="8.504 38.797 175.748 115.161"
	 enable-background="new 8.504 38.797 175.748 115.161" xml:space="preserve">
<g>
	<path fill="#C2262F" d="M180.158,61.596v49.338c0.067-0.002,0.135-0.004,0.202-0.008l0,0l0.892-15.509V61.596H180.158
		L180.158,61.596z"/>
	<path fill="#CD242E" d="M180.866,102.121V61.596h-1.799v49.37c0.434-0.014,0.863-0.027,1.293-0.039l0,0L180.866,102.121
		L180.866,102.121z"/>
	<path fill="#D4262E" d="M179.778,110.944V61.596h-1.797v49.405C178.584,110.979,179.183,110.962,179.778,110.944L179.778,110.944z"
		/>
	<path fill="#DB282F" d="M178.688,110.978V61.596h-1.797v49.444C177.493,111.019,178.094,110.996,178.688,110.978L178.688,110.978z"
		/>
	<path fill="#DE282E" d="M177.603,111.017v-49.42h-1.799v49.486C176.405,111.058,177.006,111.037,177.603,111.017L177.603,111.017z"
		/>
	<path fill="#DE282E" d="M174.01,61.596v49.564c0.599-0.026,1.192-0.056,1.785-0.078V61.596H174.01L174.01,61.596z"/>
	<path fill="#DF232E" d="M173.983,111.161V61.596h-1.797v49.652C172.789,111.218,173.388,111.188,173.983,111.161L173.983,111.161z"
		/>
	<path fill="#DF232E" d="M172.162,111.25V61.596h-1.8v49.75C170.966,111.312,171.563,111.28,172.162,111.25L172.162,111.25z"/>
	<path fill="#E1232D" d="M170.339,111.349V61.596h-1.798v49.857C169.144,111.416,169.742,111.381,170.339,111.349L170.339,111.349z"
		/>
	<path fill="#E3232D" d="M168.517,111.454V61.596h-1.799v49.973C167.319,111.528,167.919,111.491,168.517,111.454L168.517,111.454z"
		/>
	<path fill="#E3232D" d="M166.692,111.569V61.596h-1.797v50.098C165.496,111.649,166.097,111.608,166.692,111.569L166.692,111.569z"
		/>
	<path fill="#E5232D" d="M164.872,111.694V61.596h-1.798v50.231C163.676,111.781,164.274,111.737,164.872,111.694L164.872,111.694z"
		/>
	<path fill="#E5232D" d="M163.049,111.829V61.596h-1.798v50.374C161.853,111.922,162.451,111.874,163.049,111.829L163.049,111.829z"
		/>
	<path fill="#E7262D" d="M161.228,111.972V61.596h-1.799v50.524C160.028,112.069,160.629,112.021,161.228,111.972L161.228,111.972z"
		/>
	<path fill="#E7262D" d="M159.403,112.122V61.596h-1.799v50.684C158.207,112.226,158.806,112.173,159.403,112.122L159.403,112.122z"
		/>
	<path fill="#E8262C" d="M157.58,112.281V61.596h-1.798v50.851C156.383,112.392,156.981,112.335,157.58,112.281L157.58,112.281z"/>
	<path fill="#E8262C" d="M155.757,112.449V61.596h-1.798v51.027C154.56,112.563,155.159,112.505,155.757,112.449L155.757,112.449z"
		/>
	<path fill="#E8262C" d="M153.937,112.626v-51.03h-1.797v51.211C152.739,112.745,153.339,112.685,153.937,112.626L153.937,112.626z"
		/>
	<path fill="#EB262C" d="M152.112,112.812V61.596h-1.797v51.403C150.916,112.935,151.517,112.872,152.112,112.812L152.112,112.812z"
		/>
	<path fill="#EB262D" d="M150.29,113.002V61.596h-1.798V113.2C149.094,113.132,149.692,113.065,150.29,113.002L150.29,113.002z"/>
	<path fill="#EB262D" d="M148.467,113.202V61.596h-1.798v51.811C147.271,113.337,147.869,113.271,148.467,113.202L148.467,113.202z"
		/>
	<path fill="#EB262D" d="M146.646,113.409V61.596h-1.799v52.027C145.446,113.551,146.047,113.479,146.646,113.409L146.646,113.409z"
		/>
	<path fill="#EE252D" d="M144.821,113.626v-52.03h-1.799v52.25C143.624,113.771,144.224,113.698,144.821,113.626L144.821,113.626z"
		/>
	<path fill="#EE252E" d="M143,113.851V61.596h-1.798v52.481C141.804,114.001,142.401,113.925,143,113.851L143,113.851z"/>
	<path fill="#EE252E" d="M141.179,114.081V61.596h-1.767v52.715C140.001,114.231,140.591,114.156,141.179,114.081L141.179,114.081z"
		/>
	<path fill="#EE252E" d="M67.742,61.596h71.67v52.715c-27.249,3.631-57.011,10.188-85.5,20.094V65.329
		C58.48,64,63.097,62.758,67.742,61.596L67.742,61.596z"/>
	<path fill="#EE252E" d="M52.123,65.857v69.175c0.596-0.21,1.191-0.42,1.789-0.629V65.329C53.314,65.503,52.719,65.68,52.123,65.857
		L52.123,65.857z"/>
	<path fill="#EF382F" d="M52.1,135.04V65.864c-0.601,0.178-1.2,0.358-1.798,0.539v69.278C50.9,135.466,51.5,135.253,52.1,135.04
		L52.1,135.04z"/>
	<path fill="#ED4C33" d="M50.278,135.688V66.41c-0.6,0.182-1.199,0.364-1.797,0.549v69.381
		C49.079,136.122,49.678,135.905,50.278,135.688L50.278,135.688z"/>
	<path fill="#EE5D3A" d="M48.456,136.351V66.967c-0.601,0.186-1.199,0.373-1.797,0.562v69.482
		C47.256,136.79,47.855,136.569,48.456,136.351L48.456,136.351z"/>
	<path fill="#F36E42" d="M46.634,137.021V67.537c-0.6,0.19-1.2,0.38-1.797,0.573v69.584
		C45.436,137.467,46.035,137.243,46.634,137.021L46.634,137.021z"/>
	<path fill="#F47C4D" d="M44.813,137.701V68.117c-0.6,0.193-1.199,0.388-1.798,0.585v69.684
		C43.614,138.157,44.213,137.928,44.813,137.701L44.813,137.701z"/>
	<path fill="#F28656" d="M42.99,138.396V68.71c-0.6,0.197-1.2,0.396-1.798,0.597v69.784C41.791,138.856,42.39,138.626,42.99,138.396
		L42.99,138.396z"/>
	<path fill="#F38F62" d="M41.169,139.101V69.315c-0.601,0.202-1.2,0.405-1.798,0.61v69.883
		C39.969,139.567,40.568,139.334,41.169,139.101L41.169,139.101z"/>
	<path fill="#F49B6D" d="M39.346,139.815V69.934c-0.6,0.206-1.2,0.413-1.798,0.622v69.979
		C38.146,140.294,38.746,140.056,39.346,139.815L39.346,139.815z"/>
	<path fill="#F9A577" d="M37.525,140.544v-69.98c-0.6,0.21-1.2,0.421-1.797,0.634v70.076
		C36.326,141.028,36.925,140.786,37.525,140.544L37.525,140.544z"/>
	<path fill="#F6AC83" d="M35.704,141.284V71.207c-0.601,0.215-1.2,0.431-1.798,0.648v70.169
		C34.504,141.776,35.104,141.528,35.704,141.284L35.704,141.284z"/>
	<path fill="#F7B690" d="M33.881,142.036V71.865c-0.601,0.219-1.2,0.44-1.797,0.663v70.263
		C32.682,142.538,33.281,142.287,33.881,142.036L33.881,142.036z"/>
	<path fill="#F8BE9D" d="M32.06,142.801V72.537c-0.601,0.224-1.2,0.45-1.797,0.678v70.354
		C30.86,143.312,31.459,143.056,32.06,142.801L32.06,142.801z"/>
	<path fill="#F8C6AA" d="M30.239,143.579V73.225c-0.601,0.229-1.2,0.459-1.798,0.691v70.442
		C29.039,144.099,29.639,143.838,30.239,143.579L30.239,143.579z"/>
	<path fill="#F8CDB7" d="M28.416,144.37V73.926c-0.601,0.234-1.2,0.472-1.798,0.709v70.53
		C27.216,144.899,27.815,144.633,28.416,144.37L28.416,144.37z"/>
	<path fill="#F9D5C1" d="M26.595,145.176V74.645c-0.601,0.239-1.201,0.48-1.798,0.723v70.613
		C25.395,145.711,25.995,145.442,26.595,145.176L26.595,145.176z"/>
	<path fill="#F6DAC9" d="M24.773,145.992V75.376c-0.601,0.245-1.2,0.491-1.798,0.74v70.697
		C23.573,146.538,24.173,146.265,24.773,145.992L24.773,145.992z"/>
	<path fill="#F6DED0" d="M22.951,146.824V76.126c-0.601,0.25-1.2,0.503-1.798,0.757v70.775
		C21.75,147.38,22.35,147.103,22.951,146.824L22.951,146.824z"/>
	<path fill="#F7E6DB" d="M21.129,147.671V76.894c-0.602,0.256-1.201,0.515-1.798,0.775v70.852
		C19.93,148.235,20.528,147.952,21.129,147.671L21.129,147.671z"/>
	<path fill="#F7EAE3" d="M19.308,148.531V77.679c-0.602,0.262-1.2,0.526-1.797,0.792v70.924
		C18.108,149.106,18.708,148.817,19.308,148.531L19.308,148.531z"/>
	<path fill="#F7F1EE" d="M17.485,149.409V78.482c-0.602,0.268-1.2,0.539-1.797,0.811v70.995
		C16.286,149.993,16.884,149.7,17.485,149.409L17.485,149.409z"/>
	<path fill="#FFFFFF" d="M15.664,150.3V79.304c-0.593,0.271-1.185,0.542-1.774,0.818v71.061
		C14.479,150.886,15.072,150.593,15.664,150.3L15.664,150.3z"/>
	<path fill="#FFFFFF" d="M13.89,80.122v71.061c-1.809,0.909-3.606,1.834-5.385,2.775V82.727
		C10.277,81.837,12.074,80.971,13.89,80.122L13.89,80.122z"/>
	<path fill="#FFFFFF" d="M81.416,56.201V123.8c-25.225,6.799-50.461,16.15-72.912,28.467V81.035l0,0
		C30.307,69.693,55.738,61.757,81.416,56.201L81.416,56.201z"/>
	<path fill="#EE252E" d="M121.524,115.017V49.279c23.09-3.081,44.884-4.588,62.728-5.321l-3.746,65.225
		C163.272,109.495,142.979,111.351,121.524,115.017L121.524,115.017z"/>
	<path fill="#EE252E" d="M121.506,115.021V49.282c-0.599,0.08-1.196,0.162-1.798,0.244v65.805
		C120.31,115.226,120.907,115.122,121.506,115.021L121.506,115.021z"/>
	<path fill="#EC3E31" d="M119.751,115.323V49.52c-0.6,0.082-1.197,0.165-1.798,0.249v65.873
		C118.554,115.534,119.153,115.428,119.751,115.323L119.751,115.323z"/>
	<path fill="#EE5638" d="M117.995,115.634V49.762c-0.6,0.084-1.198,0.169-1.799,0.255v65.942
		C116.797,115.851,117.396,115.741,117.995,115.634L117.995,115.634z"/>
	<path fill="#F36E42" d="M116.24,115.952V50.011c-0.599,0.085-1.198,0.171-1.798,0.259v66.015
		C115.042,116.173,115.642,116.062,116.24,115.952L116.24,115.952z"/>
	<path fill="#F47F4F" d="M114.483,116.276V50.265c-0.599,0.087-1.196,0.177-1.797,0.266v66.087
		C113.287,116.503,113.886,116.39,114.483,116.276L114.483,116.276z"/>
	<path fill="#F38C5E" d="M112.729,116.608V50.524c-0.6,0.09-1.198,0.18-1.799,0.272v66.162
		C111.531,116.841,112.131,116.726,112.729,116.608L112.729,116.608z"/>
	<path fill="#F4996C" d="M110.976,116.949V50.79c-0.6,0.091-1.197,0.184-1.797,0.277v66.239
		C109.776,117.187,110.376,117.065,110.976,116.949L110.976,116.949z"/>
	<path fill="#F9A77A" d="M109.219,117.297V51.061c-0.6,0.093-1.198,0.187-1.798,0.283v66.315
		C108.021,117.536,108.619,117.416,109.219,117.297L109.219,117.297z"/>
	<path fill="#F6B289" d="M107.464,117.649V51.336c-0.599,0.095-1.197,0.192-1.798,0.29v66.395
		C106.267,117.896,106.865,117.772,107.464,117.649L107.464,117.649z"/>
	<path fill="#F7BA98" d="M105.709,118.013V51.619c-0.599,0.098-1.198,0.196-1.798,0.296v66.475
		C104.511,118.263,105.11,118.136,105.709,118.013L105.709,118.013z"/>
	<path fill="#F8C6AA" d="M103.953,118.381V51.909c-0.601,0.1-1.198,0.202-1.798,0.303v66.555
		C102.755,118.638,103.354,118.508,103.953,118.381L103.953,118.381z"/>
	<path fill="#F9D1BA" d="M102.196,118.758V52.205c-0.6,0.102-1.198,0.205-1.799,0.309v66.637
		C100.998,119.019,101.599,118.888,102.196,118.758L102.196,118.758z"/>
	<path fill="#F6D8C8" d="M100.44,119.142V52.506c-0.599,0.104-1.197,0.209-1.797,0.316v66.721
		C99.243,119.408,99.843,119.274,100.44,119.142L100.44,119.142z"/>
	<path fill="#F6E0D3" d="M98.688,119.532V52.814c-0.601,0.106-1.198,0.214-1.799,0.322v66.807
		C97.489,119.806,98.088,119.668,98.688,119.532L98.688,119.532z"/>
	<path fill="#F7E6DF" d="M96.931,119.933V53.128c-0.599,0.108-1.198,0.217-1.798,0.328v66.893
		C95.732,120.208,96.332,120.069,96.931,119.933L96.931,119.933z"/>
	<path fill="#F7EFE9" d="M95.176,120.339v-66.89c-0.599,0.111-1.198,0.222-1.798,0.335v66.979
		C93.978,120.62,94.577,120.479,95.176,120.339L95.176,120.339z"/>
	<path fill="#FFFFFF" d="M93.421,120.753V53.775c-0.586,0.11-1.173,0.222-1.76,0.334v67.065
		C92.248,121.032,92.835,120.894,93.421,120.753L93.421,120.753z"/>
	<path fill="#FFFFFF" d="M91.661,54.11v67.065c-3.615,0.877-7.237,1.809-10.86,2.791V56.333
		C84.418,55.546,88.041,54.806,91.661,54.11L91.661,54.11z"/>
	
		<line fill="none" stroke="#BC2830" stroke-width="0.8898" stroke-miterlimit="2.6131" x1="176.429" y1="44.327" x2="173.364" y2="106.815"/>
	
		<line fill="none" stroke="#C1272F" stroke-width="0.8898" stroke-miterlimit="2.6131" x1="176.633" y1="44.319" x2="173.571" y2="106.815"/>
	
		<line fill="none" stroke="#C6262F" stroke-width="0.8898" stroke-miterlimit="2.6131" x1="176.84" y1="44.312" x2="173.778" y2="106.815"/>
	
		<line fill="none" stroke="#C9252F" stroke-width="0.8898" stroke-miterlimit="2.6131" x1="177.046" y1="44.305" x2="173.983" y2="106.815"/>
	
		<line fill="none" stroke="#CD272E" stroke-width="0.8918" stroke-miterlimit="2.6131" x1="177.253" y1="44.298" x2="174.19" y2="106.815"/>
	
		<line fill="none" stroke="#D0272E" stroke-width="0.8918" stroke-miterlimit="2.6131" x1="177.46" y1="44.292" x2="174.397" y2="106.815"/>
	
		<line fill="none" stroke="#D4262E" stroke-width="0.8918" stroke-miterlimit="2.6131" x1="177.669" y1="44.285" x2="174.604" y2="106.815"/>
	
		<line fill="none" stroke="#D9292E" stroke-width="0.8918" stroke-miterlimit="2.6131" x1="177.873" y1="44.28" x2="174.812" y2="106.815"/>
	
		<line fill="none" stroke="#DB282F" stroke-width="0.8918" stroke-miterlimit="2.6131" x1="178.08" y1="44.273" x2="175.019" y2="106.815"/>
	
		<line fill="none" stroke="#DC282E" stroke-width="0.8918" stroke-miterlimit="2.6131" x1="178.286" y1="44.266" x2="175.226" y2="106.815"/>
	
		<line fill="none" stroke="#DE282E" stroke-width="0.8918" stroke-miterlimit="2.6131" x1="178.493" y1="44.258" x2="175.433" y2="106.815"/>
	
		<line fill="none" stroke="#DF232E" stroke-width="0.8918" stroke-miterlimit="2.6131" x1="178.7" y1="44.251" x2="175.64" y2="106.815"/>
	
		<line fill="none" stroke="#E1232D" stroke-width="0.8918" stroke-miterlimit="2.6131" x1="178.906" y1="44.246" x2="175.847" y2="106.815"/>
	
		<line fill="none" stroke="#E3232D" stroke-width="0.8918" stroke-miterlimit="2.6131" x1="179.112" y1="44.239" x2="176.052" y2="106.815"/>
	
		<line fill="none" stroke="#E5272D" stroke-width="0.8918" stroke-miterlimit="2.6131" x1="179.317" y1="44.233" x2="176.259" y2="106.815"/>
	
		<line fill="none" stroke="#E7262D" stroke-width="0.8918" stroke-miterlimit="2.6131" x1="179.526" y1="44.226" x2="176.466" y2="106.815"/>
	<path fill="none" stroke="#E8262C" stroke-width="0.8918" stroke-miterlimit="2.6131" d="M179.731,44.217l-3.061,62.599
		 M179.94,44.212l-3.062,62.604"/>
	<path fill="none" stroke="#EB262D" stroke-width="0.8918" stroke-miterlimit="2.6131" d="M180.147,44.205l-3.062,62.61
		 M180.353,44.197l-3.06,62.618"/>
	<path fill="none" stroke="#EE252E" stroke-width="0.8918" stroke-miterlimit="2.6131" d="M180.562,44.192l-3.062,62.624
		 M180.767,44.185l-3.061,62.63"/>
	<path fill="#DB2830" d="M9.639,149.634l1.235-71.81c-0.25,0.128-1.336,0.683-1.586,0.811l-0.784,44.935v26.701
		C8.759,150.104,9.333,149.819,9.639,149.634L9.639,149.634z"/>
	<path fill="#DE2830" d="M11.143,148.845l1.268-71.783c-0.251,0.126-1.336,0.663-1.586,0.789l-1.253,71.837
		C9.822,149.554,10.893,148.979,11.143,148.845L11.143,148.845z"/>
	<path fill="#E0272F" d="M12.683,148.024l1.251-71.723c-0.25,0.124-1.322,0.652-1.571,0.776l-1.253,71.785
		C11.359,148.729,12.432,148.158,12.683,148.024L12.683,148.024z"/>
	<path fill="#E3272E" d="M13.9,76.32l-1.251,71.729c0.216-0.112,0.43-0.227,0.646-0.339l0.856-71.516
		C14.066,76.235,13.983,76.278,13.9,76.32L13.9,76.32z"/>
	<path fill="#E3272E" d="M14.458,147.106l1.251-71.668c-0.521,0.251-1.041,0.502-1.559,0.756l-0.856,71.516
		C13.682,147.508,14.07,147.31,14.458,147.106L14.458,147.106z"/>
	<path fill="#E3272E" d="M16.32,146.158l1.25-71.604c-0.859,0.405-1.713,0.812-2.563,1.225l-1.251,71.693
		C14.606,147.03,15.461,146.592,16.32,146.158L16.32,146.158z"/>
	<path fill="#E3272E" d="M18.182,145.226l1.248-71.541c-0.858,0.397-1.712,0.797-2.562,1.201l-1.251,71.629
		C16.468,146.082,17.323,145.651,18.182,145.226L18.182,145.226z"/>
	<path fill="#E5272E" d="M20.041,144.312l1.248-71.479c-0.858,0.39-1.712,0.784-2.562,1.18l-1.25,71.565
		C18.328,145.151,19.183,144.729,20.041,144.312L20.041,144.312z"/>
	<path fill="#E5272E" d="M21.899,143.414l1.248-71.42c-0.858,0.382-1.712,0.769-2.563,1.158l-1.248,71.503
		C20.188,144.237,21.042,143.824,21.899,143.414L21.899,143.414z"/>
	<path fill="#E7262E" d="M23.759,142.533l1.246-71.361c-0.857,0.375-1.712,0.755-2.562,1.137l-1.247,71.442
		C22.047,143.34,22.903,142.937,23.759,142.533L23.759,142.533z"/>
	<path fill="#E7262E" d="M25.62,141.666l1.244-71.301c-0.857,0.369-1.71,0.741-2.561,1.116l-1.247,71.382
		C23.908,142.46,24.763,142.062,25.62,141.666L25.62,141.666z"/>
	<path fill="#E8262D" d="M27.478,140.815l1.243-71.242c-0.856,0.362-1.709,0.728-2.56,1.095l-1.244,71.324
		C25.769,141.597,26.621,141.205,27.478,140.815L27.478,140.815z"/>
	<path fill="#E8262D" d="M29.336,139.981l1.244-71.188c-0.857,0.356-1.71,0.714-2.562,1.076l-1.244,71.268
		C27.626,140.749,28.479,140.362,29.336,139.981L29.336,139.981z"/>
	<path fill="#E8262D" d="M31.195,139.162l1.242-71.132c-0.856,0.35-1.71,0.701-2.56,1.057l-1.244,71.21
		C29.485,139.915,30.339,139.537,31.195,139.162L31.195,139.162z"/>
	<path fill="#E8262D" d="M33.055,138.356l1.24-71.08c-0.856,0.344-1.709,0.691-2.56,1.04l-1.243,71.153
		C31.344,139.097,32.198,138.726,33.055,138.356L33.055,138.356z"/>
	<path fill="#EB262D" d="M34.912,137.565L36.15,66.54c-0.855,0.337-1.708,0.677-2.558,1.021l-1.241,71.099
		C33.203,138.292,34.057,137.928,34.912,137.565L34.912,137.565z"/>
	<path fill="#EB262E" d="M36.769,136.789l1.239-70.975c-0.855,0.332-1.708,0.667-2.56,1.004l-1.24,71.045
		C35.06,137.502,35.914,137.144,36.769,136.789L36.769,136.789z"/>
	<path fill="#EB262E" d="M38.626,136.022l1.238-70.921c-0.855,0.326-1.708,0.655-2.559,0.986l-1.239,70.994
		C36.918,136.726,37.771,136.372,38.626,136.022L38.626,136.022z"/>
	<path fill="#EB262E" d="M40.483,135.272l1.238-70.875c-0.855,0.32-1.708,0.644-2.559,0.97l-1.238,70.941
		C38.775,135.961,39.628,135.615,40.483,135.272L40.483,135.272z"/>
	<path fill="#EE252E" d="M42.341,134.534l1.236-70.826c-0.855,0.315-1.708,0.634-2.558,0.954l-1.237,70.891
		C40.634,135.211,41.486,134.871,42.341,134.534L42.341,134.534z"/>
	<path fill="#EE252E" d="M44.197,133.81l1.236-70.779c-0.855,0.31-1.708,0.624-2.559,0.938l-1.236,70.843
		C42.49,134.474,43.343,134.14,44.197,133.81L44.197,133.81z"/>
	<path fill="#EE252E" d="M44.731,63.285l-1.237,70.796c0.795-0.309,1.589-0.618,2.386-0.921l0.845-70.597
		C46.06,62.802,45.395,63.043,44.731,63.285L44.731,63.285z"/>
	<path fill="#EE252E" d="M144.228,40.28l-0.826,68.968c-29.032,3.601-64.215,11.209-97.521,23.912l0.845-70.597
		C79.605,50.79,115.124,43.278,144.228,40.28L144.228,40.28z"/>
	<path fill="#EE252E" d="M144.624,109.101l1.203-68.979c-0.531,0.052-1.064,0.105-1.602,0.16l-0.824,68.968
		C143.81,109.197,144.218,109.147,144.624,109.101L144.624,109.101z"/>
	<path fill="#EE252E" d="M146.383,108.892l1.203-68.938c-0.843,0.078-1.69,0.16-2.546,0.245l-1.204,68.997
		C144.69,109.091,145.539,108.989,146.383,108.892L146.383,108.892z"/>
	<path fill="#EE252E" d="M148.144,108.69l1.203-68.896c-0.844,0.073-1.691,0.151-2.547,0.232l-1.203,68.957
		C146.45,108.883,147.3,108.786,148.144,108.69L148.144,108.69z"/>
	<path fill="#EB262E" d="M149.901,108.499l1.201-68.852c-0.842,0.068-1.689,0.141-2.545,0.217l-1.203,68.914
		C148.21,108.683,149.06,108.589,149.901,108.499L149.901,108.499z"/>
	<path fill="#EB262E" d="M151.66,108.315l1.2-68.806c-0.842,0.063-1.689,0.13-2.545,0.202l-1.203,68.872
		C149.969,108.49,150.817,108.401,151.66,108.315L151.66,108.315z"/>
	<path fill="#EB262D" d="M153.419,108.14l1.2-68.756c-0.841,0.058-1.69,0.119-2.546,0.186l-1.201,68.826
		C151.729,108.308,152.576,108.224,153.419,108.14L153.419,108.14z"/>
	<path fill="#EB262D" d="M155.177,107.974l1.2-68.706c-0.842,0.053-1.69,0.11-2.546,0.171l-1.2,68.779
		C153.485,108.133,154.335,108.051,155.177,107.974L155.177,107.974z"/>
	<path fill="#E8262D" d="M156.935,107.815l1.199-68.652c-0.841,0.047-1.688,0.099-2.546,0.155l-1.198,68.729
		C155.245,107.967,156.094,107.89,156.935,107.815L156.935,107.815z"/>
	<path fill="#E8262D" d="M158.694,107.666l1.195-68.595c-0.84,0.042-1.688,0.088-2.543,0.138l-1.199,68.677
		C157.005,107.81,157.853,107.735,158.694,107.666L158.694,107.666z"/>
	<path fill="#E8262D" d="M160.452,107.528l1.195-68.537c-0.84,0.035-1.688,0.075-2.543,0.12l-1.199,68.623
		C158.763,107.66,159.61,107.593,160.452,107.528L160.452,107.528z"/>
	<path fill="#E8262D" d="M162.211,107.397l1.194-68.474c-0.838,0.029-1.687,0.062-2.543,0.101l-1.197,68.564
		C160.522,107.522,161.37,107.458,162.211,107.397L162.211,107.397z"/>
	<path fill="#E7262E" d="M163.968,107.278l1.194-68.407c-0.838,0.022-1.687,0.049-2.543,0.082l-1.196,68.503
		C162.278,107.394,163.128,107.334,163.968,107.278L163.968,107.278z"/>
	<path fill="#E7262E" d="M165.726,107.169l1.191-68.338c-0.837,0.015-1.686,0.037-2.542,0.062l-1.194,68.438
		C164.037,107.272,164.886,107.219,165.726,107.169L165.726,107.169z"/>
	<path fill="#E5272E" d="M167.481,107.071l1.192-68.265c-0.837,0.008-1.687,0.022-2.544,0.041l-1.191,68.37
		C165.796,107.164,166.646,107.115,167.481,107.071L167.481,107.071z"/>
	<path fill="#E3272E" d="M169.239,106.983l1.189-68.187c-0.836,0-1.684,0.006-2.543,0.018l-1.191,68.299
		C167.554,107.065,168.401,107.022,169.239,106.983L169.239,106.983z"/>
	<path fill="#E3272E" d="M170.996,106.907l1.188-68.103c-0.836-0.007-1.683-0.009-2.541-0.005l-1.19,68.224
		C169.312,106.979,170.159,106.94,170.996,106.907L170.996,106.907z"/>
	<path fill="#E3272E" d="M171.399,38.799l-1.189,68.142c0.749-0.032,1.486-0.062,2.219-0.088l0.814-68.037
		C172.635,38.807,172.021,38.802,171.399,38.799L171.399,38.799z"/>
	<path fill="#E3272E" d="M173.205,106.826l1.187-67.988c-0.246-0.005-1-0.013-1.248-0.017l-0.683,68.032
		C172.71,106.844,172.958,106.835,173.205,106.826L173.205,106.826z"/>
	<path fill="#E0272F" d="M174.885,78.152l0.687-39.286c-0.247-0.007-0.979-0.013-1.229-0.019l-1.135,67.573L174.885,78.152
		L174.885,78.152z"/>
	<path fill="#DE2830" d="M176.747,38.955l0.001-0.05c-0.246-0.009-1.007-0.026-1.256-0.034l-0.751,41.384L176.747,38.955
		L176.747,38.955z"/>
	<path fill="#E3232D" d="M20.873,88.093l18.082-7.304c5.525-2.252,11.373-0.684,11.373,5.259c0,4.606-2.396,8.643-7.299,11.664
		v0.098c3.269-0.526,4.023,1.721,5.931,5.157l4.093,8.306l-10.612,3.562l-2.177-5.357c-2.071-5.106-3.378-6.064-7.136-4.547
		l-2.125,0.858v13.668l-10.13,4.091V88.093L20.873,88.093z M30.99,98.628l2.668-1.078c3.269-1.319,7.408-3.091,7.408-7.002
		c0-3.22-3.542-2.383-7.408-0.822l-2.668,1.079V98.628L30.99,98.628z"/>
	<path fill="#E3232D" d="M53.563,98.754c0-7.558,6.411-13.886,14.828-16.456c8.415-2.573,14.824-0.164,14.824,7.394
		c0,7.515-6.409,13.842-14.824,16.415C59.974,108.678,53.563,106.269,53.563,98.754L53.563,98.754z M73.894,92.768
		c0-3.407-1.663-5.913-5.726-4.672c-4.061,1.242-5.724,4.764-5.724,8.172c0,3.363,1.663,5.868,5.724,4.627
		C72.231,99.653,73.894,96.131,73.894,92.768L73.894,92.768z"/>
	<path fill="#E3232D" d="M130.858,92.231c-0.051-1.217-0.207-2.373-0.207-3.552l-0.104,0.014c-2.151,3.142-4.771,4.777-8.651,5.322
		c-5.398,0.758-10.224-0.792-10.224-5.728c0-6.947,9.07-9.052,14.104-9.759c1.519-0.212,3.197-0.316,4.402-0.312
		c-0.054-3.095-2.873-3.916-6.283-3.438c-3.039,0.427-6.08,1.334-9.07,3.072l-0.112-4.924c3.724-1.754,7.235-2.729,11.272-3.295
		c6.973-0.979,13.002,0.664,13.002,7.61v8.474c0,1.793,0.104,3.567,0.522,5.3L130.858,92.231L130.858,92.231z M125.067,88.467
		c3.563-0.501,5.816-3.527,5.816-6.192c-1.203,0.126-2.566,0.23-3.982,0.43c-3.196,0.45-5.715,1.633-5.715,3.817
		C121.188,88.093,122.865,88.776,125.067,88.467L125.067,88.467z"/>
	<polygon fill="#E3232D" points="143.212,58.236 152.647,57.411 152.647,90.175 143.212,91 	"/>
	<path fill="#C2262F" d="M24.536,83.351l18.082-7.304c5.498-2.437,11.371-0.686,11.371,5.256c0,4.604-2.396,8.645-7.297,11.664
		v0.097c3.268-0.527,4.023,1.718,5.929,5.158l4.095,8.305l-10.612,3.563l-2.179-5.358c-2.069-5.105-3.377-6.063-7.135-4.545
		l-2.125,0.856v13.667l-10.129,4.094V83.351L24.536,83.351z M34.652,93.884l2.67-1.078c3.268-1.32,7.406-3.091,7.406-7.003
		c0-3.218-3.54-2.381-7.406-0.819l-2.67,1.079V93.884L34.652,93.884z"/>
	<path fill="#C2262F" d="M57.227,94.01c0-7.558,6.409-13.884,14.826-16.459c8.417-2.57,14.827-0.161,14.827,7.396
		c0,7.515-6.409,13.843-14.827,16.413C63.636,103.935,57.227,101.522,57.227,94.01L57.227,94.01z M77.556,88.023
		c0-3.407-1.663-5.913-5.724-4.672c-4.062,1.242-5.726,4.764-5.726,8.171c0,3.365,1.665,5.872,5.726,4.629
		C75.893,94.911,77.556,91.387,77.556,88.023L77.556,88.023z"/>
	<path fill="#C2262F" d="M134.522,87.487c-0.051-1.215-0.209-2.375-0.209-3.552l-0.104,0.015c-2.147,3.142-4.771,4.776-8.649,5.321
		c-5.401,0.759-10.224-0.791-10.224-5.729c0-6.945,9.069-9.05,14.103-9.756c1.521-0.212,3.197-0.318,4.404-0.313
		c-0.053-3.094-2.873-3.916-6.281-3.437c-3.041,0.427-6.082,1.333-9.071,3.074l-0.114-4.926c3.723-1.755,7.234-2.729,11.271-3.295
		c6.976-0.98,13.002,0.663,13.002,7.61v8.475c0,1.79,0.106,3.566,0.524,5.3L134.522,87.487L134.522,87.487z M128.729,83.723
		c3.565-0.501,5.818-3.526,5.818-6.191c-1.205,0.125-2.568,0.23-3.982,0.427c-3.198,0.452-5.715,1.635-5.715,3.819
		C124.853,83.351,126.528,84.032,128.729,83.723L128.729,83.723z"/>
	<polygon fill="#C2262F" points="146.531,53.521 155.97,52.694 155.97,85.458 146.531,86.285 	"/>
	<path fill="#C2262F" d="M26.255,80.012l18.081-7.304c5.549-2.341,11.371-0.685,11.371,5.257c0,4.604-2.395,8.644-7.297,11.664
		v0.099c3.268-0.528,4.023,1.719,5.929,5.158l4.095,8.305l-10.612,3.563l-2.179-5.358c-2.069-5.106-3.376-6.063-7.135-4.547
		l-2.124,0.86v13.665l-10.128,4.093L26.255,80.012L26.255,80.012z M36.126,90.524l2.668-1.077c3.268-1.32,7.406-3.092,7.406-7.002
		c0-3.218-3.54-2.384-7.406-0.82l-2.668,1.077V90.524L36.126,90.524z"/>
	<path fill="none" stroke="#EE252E" stroke-width="3.6712" stroke-miterlimit="2.6131" d="M26.255,80.012l18.081-7.304
		c5.549-2.341,11.371-0.685,11.371,5.257c0,4.604-2.395,8.644-7.297,11.664v0.099c3.268-0.528,4.023,1.719,5.929,5.158l4.095,8.305
		l-10.612,3.563l-2.179-5.358c-2.069-5.106-3.376-6.063-7.135-4.547l-2.124,0.86v13.665l-10.128,4.093L26.255,80.012L26.255,80.012z
		 M36.126,90.524l2.668-1.077c3.268-1.32,7.406-3.092,7.406-7.002c0-3.218-3.54-2.384-7.406-0.82l-2.668,1.077V90.524L36.126,90.524
		z"/>
	<path fill="#C2262F" d="M58.059,91.188c0-7.558,6.411-13.884,14.826-16.457c8.417-2.573,14.828-0.162,14.828,7.394
		c0,7.517-6.411,13.843-14.828,16.415C64.47,101.11,58.059,98.702,58.059,91.188L58.059,91.188z M78.611,84.908
		c0-3.407-1.663-5.915-5.726-4.672c-4.061,1.24-5.724,4.764-5.724,8.171c0,3.364,1.663,5.87,5.724,4.629
		C76.948,91.793,78.611,88.271,78.611,84.908L78.611,84.908z"/>
	<path fill="none" stroke="#EE252E" stroke-width="3.6712" stroke-miterlimit="2.6131" d="M58.059,91.188
		c0-7.558,6.411-13.884,14.826-16.457c8.417-2.573,14.828-0.162,14.828,7.394c0,7.517-6.411,13.843-14.828,16.415
		C64.47,101.11,58.059,98.702,58.059,91.188L58.059,91.188z M78.611,84.908c0-3.407-1.663-5.915-5.726-4.672
		c-4.061,1.24-5.724,4.764-5.724,8.171c0,3.364,1.663,5.87,5.724,4.629C76.948,91.793,78.611,88.271,78.611,84.908L78.611,84.908z"
		/>
	<path fill="#C2262F" d="M135.726,84.665c-0.052-1.215-0.209-2.371-0.209-3.552l-0.104,0.014c-2.149,3.143-4.771,4.777-8.649,5.321
		c-5.4,0.761-10.223-0.791-10.223-5.729c0-6.947,9.066-9.05,14.102-9.756c1.521-0.214,3.198-0.318,4.404-0.313
		c-0.054-3.096-2.854-3.917-6.262-3.439c-3.04,0.428-6.082,1.335-8.702,2.927l-0.138-4.924c3.356-1.607,6.869-2.582,10.906-3.15
		c6.973-0.98,13.002,0.665,13.002,7.61v8.475c0,1.792,0.104,3.569,0.523,5.3L135.726,84.665L135.726,84.665z M129.783,80.607
		c3.565-0.502,5.262-3.272,5.262-5.938c-1.206,0.126-2.01-0.023-3.427,0.174c-3.196,0.449-6.01,1.872-6.01,4.054
		C125.608,80.471,127.583,80.917,129.783,80.607L129.783,80.607z"/>
	<path fill="none" stroke="#EE252E" stroke-width="3.6712" stroke-miterlimit="2.6131" d="M135.726,84.665
		c-0.052-1.215-0.209-2.371-0.209-3.552l-0.104,0.014c-2.149,3.143-4.771,4.777-8.649,5.321c-5.4,0.761-10.223-0.791-10.223-5.729
		c0-6.947,9.066-9.05,14.102-9.756c1.521-0.214,3.198-0.318,4.404-0.313c-0.054-3.096-2.854-3.917-6.262-3.439
		c-3.04,0.428-6.082,1.335-8.702,2.927l-0.138-4.924c3.356-1.607,6.869-2.582,10.906-3.15c6.973-0.98,13.002,0.665,13.002,7.61
		v8.475c0,1.792,0.104,3.569,0.523,5.3L135.726,84.665L135.726,84.665z M129.783,80.607c3.565-0.502,5.262-3.272,5.262-5.938
		c-1.206,0.126-2.01-0.023-3.427,0.174c-3.196,0.449-6.01,1.872-6.01,4.054C125.608,80.471,127.583,80.917,129.783,80.607
		L129.783,80.607z"/>
	<polygon fill="#C2262F" points="148.077,50.354 157.515,49.529 157.515,82.294 148.077,83.119 	"/>
	<polygon fill="none" stroke="#EE252E" stroke-width="3.6712" stroke-miterlimit="2.6131" points="148.077,50.354 157.515,49.529 
		157.515,82.294 148.077,83.119 	"/>
	<path fill="#FFFFFF" d="M26.255,80.012l18.081-7.304c5.476-2.341,11.371-0.685,11.371,5.257c0,4.604-2.395,8.644-7.297,11.664
		v0.099c3.268-0.528,4.023,1.719,5.929,5.158l4.095,8.305l-10.612,3.563l-2.179-5.358c-2.069-5.106-3.376-6.063-7.135-4.547
		l-2.124,0.86v13.665l-10.128,4.093L26.255,80.012L26.255,80.012z M36.126,90.524l2.668-1.077c3.268-1.32,7.406-3.092,7.406-7.002
		c0-3.218-3.54-2.384-7.406-0.82l-2.668,1.077V90.524L36.126,90.524z"/>
	<polygon fill="#E3232D" points="99.345,90.022 104.397,72.796 113.837,70.79 101.655,113.271 92.902,115.41 96.427,102.668 
		82.642,77.42 92.813,75.259 	"/>
	<polygon fill="#C2262F" points="102.169,86.145 107.224,68.918 116.659,66.912 104.478,109.392 95.724,111.532 99.249,98.79 
		85.466,73.542 95.636,71.381 	"/>
	<polygon fill="#C2262F" points="103.796,83.545 108.853,66.319 118.288,64.314 106.108,106.794 97.353,108.935 100.878,96.19 
		87.095,70.944 97.265,68.784 	"/>
	<polygon fill="none" stroke="#EE252E" stroke-width="3.6712" stroke-miterlimit="2.6131" points="103.796,83.545 108.853,66.319 
		118.288,64.314 106.108,106.794 97.353,108.935 100.878,96.19 87.095,70.944 97.265,68.784 	"/>
	<polygon fill="#FFFFFF" points="103.796,83.545 108.853,66.319 118.288,64.314 106.108,106.794 97.353,108.935 100.878,96.19 
		87.095,70.944 97.265,68.784 	"/>
	<path fill="#FFFFFF" d="M135.726,84.665c-0.052-1.215-0.209-2.371-0.209-3.552l-0.104,0.014c-2.149,3.143-4.771,4.777-8.649,5.321
		c-5.4,0.761-10.223-0.791-10.223-5.729c0-6.947,9.066-9.05,14.102-9.756c1.521-0.214,3.198-0.318,4.404-0.313
		c-0.054-3.096-2.854-3.917-6.262-3.439c-3.04,0.428-6.082,1.335-8.702,2.927l-0.138-4.924c3.356-1.607,6.869-2.582,10.906-3.15
		c6.973-0.98,13.002,0.665,13.002,7.61v8.475c0,1.792,0.104,3.569,0.523,5.3L135.726,84.665L135.726,84.665z M129.224,80.861
		c3.567-0.501,5.821-3.525,5.821-6.191c-1.206,0.126-2.569,0.23-3.985,0.429c-3.197,0.45-5.715,1.633-5.715,3.817
		C125.345,80.487,127.022,81.17,129.224,80.861L129.224,80.861z"/>
	<polygon fill="#FFFFFF" points="148.077,50.354 157.515,49.529 157.515,82.294 148.077,83.119 	"/>
	<path fill="#FFFFFF" d="M58.059,91.188c0-7.558,6.411-13.884,14.826-16.457c8.417-2.573,14.828-0.162,14.828,7.394
		c0,7.517-6.411,13.843-14.828,16.415C64.47,101.11,58.059,98.702,58.059,91.188L58.059,91.188z M78.611,84.908
		c0-3.407-1.663-5.915-5.726-4.672c-4.061,1.24-5.724,4.764-5.724,8.171c0,3.364,1.663,5.87,5.724,4.629
		C76.948,91.793,78.611,88.271,78.611,84.908L78.611,84.908z"/>
	<path fill="none" stroke="#FFFFFF" stroke-width="0.6793" stroke-miterlimit="2.6131" d="M165.037,88.106
		c2.254,0,4.085-1.829,4.085-4.084c0-2.256-1.831-4.083-4.085-4.083c-2.256,0-4.084,1.827-4.084,4.083
		C160.953,86.277,162.781,88.106,165.037,88.106"/>
	<path fill="#FFFFFF" d="M163.269,86.492h0.943v-1.803h0.996c0.712,0,0.751,0.243,0.751,0.872c0,0.474,0.038,0.713,0.103,0.931
		h1.066v-0.123c-0.205-0.077-0.205-0.245-0.205-0.919c0-0.859-0.206-1.001-0.584-1.167c0.454-0.155,0.712-0.591,0.712-1.099
		c0-0.397-0.225-1.303-1.45-1.303h-2.332V86.492L163.269,86.492z M164.212,83.912v-1.233h1.201c0.564,0,0.674,0.359,0.674,0.602
		c0,0.457-0.242,0.631-0.744,0.631H164.212L164.212,83.912z"/>
</g>
</svg>
