<?xml version="1.0" encoding="utf-8"?>
<!-- Generator: Adobe Illustrator 16.0.0, SVG Export Plug-In . SVG Version: 6.00 Build 0)  -->
<!DOCTYPE svg PUBLIC "-//W3C//DTD SVG 1.1//EN" "http://www.w3.org/Graphics/SVG/1.1/DTD/svg11.dtd">
<svg version="1.1" id="Layer_1" xmlns="http://www.w3.org/2000/svg" xmlns:xlink="http://www.w3.org/1999/xlink" x="0px" y="0px"
	 width="175.75px" height="43.152px" viewBox="8.502 75.175 175.75 43.152" enable-background="new 8.502 75.175 175.75 43.152"
	 xml:space="preserve">
<g>
	<path fill="#FFFFFF" d="M11.378,79.208c0,0.311,0,1.829-0.08,2.357c-0.058,0.371-0.168,0.503-0.333,0.655
		c0.497-0.03,0.988-0.054,1.484-0.054c0.437,0,0.886,0.024,1.328,0.054c-0.25-0.312-0.345-0.602-0.384-1.223
		c-0.017-0.235-0.034-0.616-0.034-1.213v-0.832c0.017-0.856,0.024-1.725,0.024-2.595h1.213c0.922,0,1.231,0.076,1.652,0.339
		c-0.021-0.235-0.052-0.536-0.052-0.768c0-0.281,0.031-0.51,0.052-0.694c-1.179,0.073-2.536,0.102-3.949,0.102
		c-1.694,0.027-3.159-0.063-3.797-0.102c0.026,0.228,0.034,0.468,0.034,0.701c0,0.245-0.008,0.454-0.034,0.73
		c0.292-0.172,0.529-0.317,1.568-0.317c0.286,0,0.71,0.01,1.267,0.01C11.371,77.309,11.378,78.257,11.378,79.208L11.378,79.208z"/>
	<path fill="#FFFFFF" d="M19.139,78.061c0-0.701,0-1.545,0.124-2.192c0.045-0.277,0.094-0.406,0.19-0.627
		c-0.435,0.032-0.874,0.066-1.298,0.066c-0.729,0-1.129-0.057-1.369-0.066c0.046,0.066,0.323,0.236,0.369,1.516
		c0.048,1.591,0.065,2.472,0.041,3.622c0,1.395-0.231,1.667-0.338,1.829c0.475-0.018,0.89-0.042,1.346-0.042
		c0.427,0,0.857,0.022,1.299,0.042c-0.162-0.218-0.351-0.391-0.351-1.732v-1.336h3.36c0,2.677-0.082,2.787-0.302,3.068
		c0.425-0.018,0.85-0.034,1.27-0.034c0.441,0,0.875,0.016,1.327,0.034c-0.142-0.253-0.217-0.376-0.264-0.961
		c-0.084-0.929-0.084-2.862-0.084-3.062c0-0.748,0.013-1.347,0.068-1.9c0.063-0.654,0.147-0.822,0.244-1.043
		c-0.427,0.035-0.85,0.066-1.277,0.066c-0.427,0-0.859-0.032-1.284-0.066c0.145,0.406,0.191,0.554,0.229,0.995
		c0.034,0.521,0.045,1.101,0.045,1.824L19.139,78.061L19.139,78.061z"/>
	<path fill="#FFFFFF" d="M28.764,76.285c0.686-0.012,1.284-0.012,1.665-0.012c1.086,0,1.238,0.058,1.612,0.269
		c-0.003-0.558,0-0.726,0.089-1.324c-1.033,0.09-2.078,0.09-3.103,0.09c-1.692,0-2.264-0.057-2.745-0.09
		c0.182,0.271,0.51,0.509,0.51,3.238c0,0.737-0.013,2.595-0.053,2.988c-0.048,0.388-0.135,0.536-0.299,0.776
		c0.878-0.054,1.614-0.083,2.659-0.083c1.356,0,2.182,0.051,3.058,0.083c0.08-0.595,0.116-0.762,0.31-1.458
		c-0.556,0.405-1.137,0.484-2.51,0.484c-1.103,0-1.222,0-1.239-0.987v-1.12c0.343,0,0.676-0.02,0.995-0.02
		c0.71,0,1.243,0.032,1.533,0.105c0.105,0.033,0.209,0.07,0.322,0.104c-0.047-0.216-0.077-0.425-0.077-0.653
		c0-0.221,0.044-0.439,0.077-0.696c-0.217,0.076-0.398,0.136-0.931,0.168c-0.624,0.033-1.243,0.033-1.873,0.028V76.285
		L28.764,76.285z"/>
	<path fill="#FFFFFF" d="M38.349,78.061c0-0.701,0-1.545,0.121-2.192c0.051-0.277,0.097-0.406,0.193-0.627
		c-0.437,0.032-0.872,0.066-1.295,0.066c-0.729,0-1.132-0.057-1.361-0.066c0.041,0.066,0.319,0.236,0.357,1.516
		c0.056,1.591,0.073,2.472,0.041,3.622c0,1.395-0.222,1.667-0.335,1.829c0.473-0.018,0.897-0.042,1.354-0.042
		c0.417,0,0.847,0.022,1.289,0.042c-0.16-0.218-0.35-0.391-0.35-1.732v-1.336h3.364c0,2.677-0.08,2.787-0.314,3.068
		c0.43-0.018,0.867-0.034,1.284-0.034c0.435,0,0.875,0.016,1.325,0.034c-0.145-0.253-0.22-0.376-0.269-0.961
		c-0.082-0.929-0.082-2.862-0.082-3.062c0-0.748,0.02-1.347,0.07-1.9c0.061-0.654,0.148-0.822,0.246-1.043
		c-0.432,0.035-0.856,0.066-1.276,0.066c-0.427,0-0.869-0.032-1.298-0.066c0.157,0.406,0.206,0.554,0.239,0.995
		c0.039,0.521,0.051,1.101,0.051,1.824L38.349,78.061L38.349,78.061z"/>
	<path fill="#FFFFFF" d="M47.966,76.285c0.695-0.012,1.288-0.012,1.679-0.012c1.081,0,1.235,0.058,1.607,0.269
		c-0.005-0.558,0-0.726,0.087-1.324c-1.033,0.09-2.076,0.09-3.108,0.09c-1.682,0-2.254-0.057-2.742-0.09
		c0.188,0.271,0.512,0.509,0.512,3.238c0,0.737-0.013,2.595-0.049,2.988c-0.047,0.388-0.134,0.536-0.308,0.776
		c0.878-0.054,1.621-0.083,2.659-0.083c1.366,0,2.187,0.051,3.061,0.083c0.089-0.595,0.124-0.762,0.316-1.458
		c-0.556,0.405-1.139,0.484-2.512,0.484c-1.107,0-1.226,0-1.238-0.987v-1.12c0.34,0,0.664-0.02,1.001-0.02
		c0.7,0,1.233,0.032,1.521,0.105c0.11,0.033,0.208,0.07,0.336,0.104c-0.054-0.216-0.076-0.425-0.076-0.653
		c0-0.221,0.041-0.439,0.076-0.696c-0.226,0.076-0.406,0.136-0.937,0.168c-0.628,0.033-1.258,0.033-1.885,0.028V76.285
		L47.966,76.285z"/>
	<path fill="#FFFFFF" d="M57.288,80.542c0.459,1.465,0.403,1.603,0.403,1.679c0.396-0.032,0.813-0.054,1.207-0.054
		c0.456,0,0.853,0.024,1.337,0.054c-0.777-1.473-0.934-1.902-1.931-4.589c-0.507-1.368-0.594-1.647-0.796-2.413
		c-0.476,0.033-0.953,0.07-1.41,0.07c-0.446,0-0.886-0.037-1.325-0.07c-0.113,0.454-0.645,1.865-0.808,2.287
		c-0.471,1.206-0.9,2.244-1.267,3.098c-0.317,0.74-0.464,1.034-0.756,1.618c0.338-0.03,0.7-0.054,1.031-0.054
		c0.391,0,0.768,0.031,1.156,0.054c-0.012-0.071-0.058-0.381,0.351-1.679L57.288,80.542L57.288,80.542z M54.836,79.402l0.934-2.635
		c0.05-0.133,0.077-0.267,0.123-0.468c0.761,2.132,0.845,2.37,1.082,3.103H54.836L54.836,79.402z"/>
	<path fill="#FFFFFF" d="M63.14,77.825c0-0.596,0-1.297,0.076-1.799c0.06-0.366,0.142-0.548,0.262-0.808
		c-0.531,0.023-1.003,0.058-1.515,0.058c-0.584,0-0.97-0.041-1.301-0.058c0.203,0.245,0.315,0.393,0.371,0.825
		c0.09,0.592,0.162,2.51,0.162,3.493c0,0.374-0.017,1.749-0.056,2.05c-0.075,0.344-0.181,0.483-0.335,0.649
		c0.868-0.046,1.303-0.068,2.186-0.068c1.639,0,2.353,0.024,3.437,0.068c0.08-0.649,0.133-0.81,0.364-1.373
		c-0.458,0.174-0.973,0.371-2.425,0.371c-0.849,0-1.115-0.104-1.178-0.727C63.14,80.045,63.14,78.354,63.14,77.825L63.14,77.825z"/>
	<path fill="#FFFFFF" d="M68.589,79.208c0,0.311,0,1.829-0.087,2.357c-0.063,0.371-0.174,0.503-0.325,0.655
		c0.494-0.03,0.987-0.054,1.486-0.054c0.432,0,0.88,0.024,1.319,0.054c-0.249-0.312-0.34-0.602-0.381-1.223
		c-0.022-0.235-0.032-0.616-0.032-1.213v-0.832c0.01-0.856,0.022-1.725,0.022-2.595h1.213c0.927,0,1.224,0.076,1.656,0.339
		c-0.024-0.235-0.053-0.536-0.053-0.768c0-0.281,0.028-0.51,0.053-0.694c-1.181,0.073-2.544,0.102-3.95,0.102
		c-1.694,0.027-3.154-0.063-3.796-0.102c0.015,0.228,0.029,0.468,0.029,0.701c0,0.245-0.015,0.454-0.029,0.73
		c0.287-0.172,0.531-0.317,1.563-0.317c0.292,0,0.724,0.01,1.274,0.01C68.575,77.309,68.589,78.257,68.589,79.208L68.589,79.208z"/>
	<path fill="#FFFFFF" d="M76.35,78.061c0-0.701,0-1.545,0.121-2.192c0.046-0.277,0.094-0.406,0.19-0.627
		c-0.439,0.032-0.868,0.066-1.298,0.066c-0.728,0-1.129-0.057-1.36-0.066c0.039,0.066,0.321,0.236,0.367,1.516
		c0.05,1.591,0.06,2.472,0.031,3.622c0,1.395-0.224,1.667-0.342,1.829c0.482-0.018,0.907-0.042,1.354-0.042
		c0.43,0,0.864,0.022,1.298,0.042c-0.15-0.218-0.35-0.391-0.35-1.732v-1.336h3.364c0,2.677-0.087,2.787-0.311,3.068
		c0.426-0.018,0.854-0.034,1.281-0.034c0.43,0,0.877,0.016,1.326,0.034c-0.15-0.253-0.217-0.376-0.271-0.961
		c-0.087-0.929-0.087-2.862-0.087-3.062c0-0.748,0.027-1.347,0.073-1.9c0.068-0.654,0.149-0.822,0.241-1.043
		c-0.42,0.035-0.853,0.066-1.267,0.066c-0.432,0-0.87-0.032-1.296-0.066c0.154,0.406,0.198,0.554,0.236,0.995
		c0.037,0.521,0.048,1.101,0.048,1.824L76.35,78.061L76.35,78.061z"/>
	<path fill="#FFFFFF" d="M88.219,76.3h1.733c1.02,0,1.336,0.031,1.754,0.282c-0.015-0.158-0.029-0.333-0.029-0.498
		c0-0.339,0.034-0.521,0.108-0.863c-0.792,0.053-1.27,0.087-2.529,0.087c-1.163,0-2.309-0.005-3.463-0.087
		c0.145,0.16,0.497,0.295,0.497,3.211c0,1.776,0,2.911-0.123,3.408c-0.05,0.201-0.102,0.272-0.208,0.395
		c0.439-0.037,0.871-0.085,1.31-0.085c0.416,0,0.799,0.041,1.227,0.085c-0.135-0.289-0.206-0.461-0.255-0.96
		c-0.037-0.403-0.037-0.786-0.022-1.899c1.06,0,1.516,0,1.955,0.027c0.558,0.041,0.79,0.117,1.077,0.201
		c-0.037-0.201-0.063-0.422-0.063-0.623c0-0.238,0.027-0.533,0.063-0.863c-0.174,0.111-0.278,0.177-0.763,0.218
		c-0.497,0.039-1.009,0.039-2.269,0.024L88.219,76.3L88.219,76.3z"/>
	<path fill="#FFFFFF" d="M96.719,75.175c-2.079,0-4.081,1.052-4.081,3.553c0,1.591,0.74,2.607,2.044,3.155
		c0.709,0.306,1.428,0.388,2.063,0.388c1.309,0,2.314-0.398,2.927-0.878c1.173-0.931,1.173-2.241,1.173-2.613
		c0-0.708-0.133-1.862-1.162-2.672C99.052,75.582,98.015,75.175,96.719,75.175L96.719,75.175z M98.778,78.779
		c0,0.395-0.049,1.199-0.322,1.71c-0.475,0.866-1.412,0.866-1.689,0.866c-1.678,0-2.032-1.136-2.032-2.612
		c0-1.12,0.128-2.658,2.01-2.658c0.76,0,1.332,0.247,1.675,0.834C98.698,77.42,98.778,78.223,98.778,78.779L98.778,78.779z"/>
	<path fill="#FFFFFF" d="M106.082,75.175c-2.075,0-4.086,1.052-4.086,3.553c0,1.591,0.741,2.607,2.042,3.155
		c0.721,0.306,1.436,0.388,2.061,0.388c1.315,0,2.326-0.398,2.936-0.878c1.173-0.931,1.173-2.241,1.173-2.613
		c0-0.708-0.131-1.862-1.159-2.672C108.411,75.582,107.378,75.175,106.082,75.175L106.082,75.175z M108.149,78.779
		c0,0.395-0.056,1.199-0.325,1.71c-0.479,0.866-1.419,0.866-1.701,0.866c-1.67,0-2.034-1.136-2.034-2.612
		c0-1.12,0.135-2.658,2.01-2.658c0.771,0,1.34,0.247,1.686,0.834C108.056,77.42,108.149,78.223,108.149,78.779L108.149,78.779z"/>
	<path fill="#FFFFFF" d="M119.34,78.711c0-0.65-0.123-1.324-0.548-1.984c-0.88-1.358-2.438-1.453-4.259-1.453
		c-0.507,0-1.021,0.015-1.527,0.015c-0.353,0-0.635-0.012-0.877-0.015c-0.241-0.006-0.453-0.032-0.678-0.053
		c0.151,0.427,0.364,0.638,0.364,4.104c0,2.134-0.152,2.437-0.377,2.91c0.225-0.026,0.435-0.044,0.679-0.046
		c0.243-0.014,0.521-0.022,0.879-0.022c0.501,0,1.013,0.022,1.519,0.022c1.729,0,3.397-0.224,4.27-1.518
		C119.156,80.121,119.34,79.424,119.34,78.711L119.34,78.711z M117.255,78.752c0,0.286-0.025,0.573-0.076,0.851
		c-0.267,1.478-1.309,1.645-2.518,1.645c-0.868,0-0.868-0.167-0.868-1.583c-0.026-1.463,0-2.661,0-3.365
		c0.304-0.036,0.521-0.063,0.888-0.063C116.403,76.237,117.255,76.744,117.255,78.752L117.255,78.752z"/>
	<path fill="#FFFFFF" d="M129.847,80.979c-0.209,0.118-0.349,0.21-0.705,0.295c-0.299,0.061-0.584,0.08-0.89,0.08
		c-2.313,0-3.082-1.472-3.082-2.898c0-1.346,0.851-2.294,2.57-2.294c0.256,0,0.913,0.065,1.461,0.437
		c0.069,0.053,0.137,0.114,0.194,0.16c0.19-0.618,0.254-0.741,0.551-1.269c-0.551-0.125-1.26-0.3-2.303-0.3
		c-1.634,0-2.8,0.471-3.468,0.992c-1.063,0.837-1.188,2.025-1.188,2.561c0,0.708,0.197,1.441,0.595,1.981
		c1.089,1.548,3.337,1.548,4.024,1.548c0.682,0,1.188-0.037,1.903-0.097L129.847,80.979L129.847,80.979z"/>
	<path fill="#FFFFFF" d="M134.913,75.175c-2.078,0-4.081,1.052-4.081,3.553c0,1.591,0.737,2.607,2.039,3.155
		c0.717,0.306,1.429,0.388,2.065,0.388c1.312,0,2.316-0.398,2.922-0.878c1.176-0.931,1.176-2.241,1.176-2.613
		c0-0.708-0.127-1.862-1.167-2.672C137.244,75.582,136.209,75.175,134.913,75.175L134.913,75.175z M136.972,78.779
		c0,0.395-0.048,1.199-0.326,1.71c-0.471,0.866-1.403,0.866-1.685,0.866c-1.677,0-2.044-1.136-2.044-2.612
		c0-1.12,0.139-2.658,2.02-2.658c0.762,0,1.336,0.247,1.681,0.834C136.89,77.42,136.972,78.223,136.972,78.779L136.972,78.779z"/>
	<path fill="#FFFFFF" d="M148.123,80.035c-0.074,1.717-0.136,1.945-0.287,2.2c0.425-0.044,0.869-0.068,1.294-0.068
		c0.396,0,0.766,0.024,1.201,0.068c-0.273-0.669-0.338-1.001-0.338-2.335c0-4.288,0.217-4.422,0.52-4.664
		c-0.512,0.032-1.019,0.068-1.529,0.068c-0.534,0-1.066-0.036-1.596-0.068c-0.216,0.926-0.313,1.245-1.296,3.167
		c-0.147,0.286-0.567,1.2-0.674,1.405c-0.082-0.205-0.356-1.065-0.522-1.458c-0.84-1.909-0.994-2.461-1.176-3.128
		c-0.554,0.046-1.099,0.083-1.64,0.083c-0.522,0-1.076-0.036-1.595-0.083c0.127,0.31,0.23,0.524,0.23,1.445
		c0,1.235-0.14,3.328-0.22,4.005c-0.095,0.773-0.239,1.191-0.369,1.564c0.345-0.044,0.688-0.068,1.015-0.068
		c0.361,0,0.717,0.024,1.082,0.068c-0.096-0.279-0.14-0.533-0.14-1.138c0-1.023,0.144-2.723,0.144-3.927v-0.369
		c0.189,0.439,0.363,0.874,0.551,1.315c0.402,0.921,0.813,1.834,1.213,2.755c0.307,0.733,0.379,0.946,0.49,1.337
		c0.181-0.02,0.336-0.059,0.541-0.059c0.227,0,0.522,0.041,0.631,0.059c0.248-0.655,0.306-0.783,1.08-2.326
		c0.281-0.583,0.578-1.154,0.865-1.729c0.34-0.682,0.397-0.844,0.658-1.519v0.257L148.123,80.035L148.123,80.035z"/>
	<path fill="#FFFFFF" d="M158.979,77.505c0-0.311-0.015-1.055-0.701-1.637c-0.59-0.505-1.674-0.627-2.762-0.595
		c-1.627,0.035-3.272,0.035-3.713-0.022c0.122,0.168,0.233,0.313,0.34,0.733c0.155,0.672,0.155,2.401,0.155,3.168
		c0,1.244,0,1.571-0.022,1.928c-0.032,0.672-0.17,0.926-0.305,1.154c0.496-0.026,0.883-0.044,1.322-0.044
		c0.438,0,0.887,0.018,1.322,0.044c-0.146-0.167-0.236-0.279-0.289-0.64c-0.051-0.348-0.035-1.319-0.035-1.728
		c0.336,0.015,0.678,0.032,1.016,0.032c2.041,0,2.635-0.487,2.885-0.684C158.979,78.573,158.979,77.741,158.979,77.505
		L158.979,77.505z M156.894,77.53c0,0.958-0.646,1.368-1.66,1.368c-0.446,0-0.688-0.02-0.928-0.049
		c-0.013-0.454-0.027-0.917-0.027-1.393c0-0.39,0.016-0.713,0.027-1.208c0.301-0.038,0.584-0.067,0.926-0.067
		c0.287,0,0.847,0.005,1.221,0.313C156.683,76.684,156.894,77.035,156.894,77.53L156.894,77.53z"/>
	<path fill="#FFFFFF" d="M163.392,80.542c0.467,1.465,0.405,1.603,0.405,1.679c0.403-0.032,0.813-0.054,1.218-0.054
		c0.453,0,0.844,0.024,1.334,0.054c-0.774-1.473-0.938-1.902-1.937-4.589c-0.504-1.368-0.588-1.647-0.796-2.413
		c-0.477,0.033-0.946,0.07-1.401,0.07c-0.459,0-0.896-0.037-1.338-0.07c-0.104,0.454-0.635,1.865-0.806,2.287
		c-0.459,1.206-0.905,2.244-1.268,3.098c-0.31,0.74-0.457,1.034-0.75,1.618c0.342-0.03,0.689-0.054,1.029-0.054
		c0.393,0,0.768,0.031,1.158,0.054c-0.016-0.071-0.062-0.381,0.348-1.679L163.392,80.542L163.392,80.542z M160.946,79.402
		l0.931-2.635c0.052-0.133,0.087-0.267,0.125-0.468c0.771,2.132,0.851,2.37,1.074,3.103H160.946L160.946,79.402z"/>
	<path fill="#FFFFFF" d="M174.709,77.137c0.097-1.465,0.206-1.647,0.378-1.901c-0.355,0.038-0.713,0.073-1.066,0.073
		c-0.403,0-0.801-0.041-1.22-0.073c0.136,0.175,0.275,0.356,0.333,0.992c0.073,0.648,0.057,1.295,0.057,2.753
		c0,0.718,0.072,0.987,0.115,1.218c-0.172-0.315-0.633-0.939-1.451-1.97c-0.775-0.978-1.602-2.018-2.194-2.993
		c-0.472,0.032-0.944,0.068-1.423,0.068c-0.481,0-0.973-0.036-1.451-0.068c0.145,0.175,0.371,0.346,0.424,1.542
		c0.021,0.56,0.034,1.082,0.034,1.53c0,0.403-0.013,2.476-0.123,3.182c-0.058,0.362-0.147,0.539-0.236,0.718
		c0.374-0.034,0.753-0.07,1.122-0.07c0.34,0,0.686,0.037,1.082,0.07c-0.141-0.202-0.229-0.447-0.288-1.404
		c-0.063-1.055-0.015-3.173-0.085-3.563l-0.023-0.181l-0.03-0.175c0.36,0.514,0.479,0.674,1.58,2.02
		c0.536,0.657,1.071,1.317,1.586,1.997c0.528,0.684,0.694,0.938,0.932,1.307c0.332-0.02,0.679-0.063,1.005-0.063
		c0.332,0,0.647,0.03,0.965,0.063c-0.049-0.75-0.072-1.234-0.072-2.067C174.653,79.623,174.679,77.712,174.709,77.137
		L174.709,77.137z"/>
	<path fill="#FFFFFF" d="M180.112,78.592c-0.092-0.189-0.188-0.354-0.571-0.96c-1.257-2.032-1.124-2.312-1.112-2.396
		c-0.432,0.032-0.867,0.041-1.298,0.041c-0.521,0-1.032-0.025-1.601-0.041c0.215,0.111,0.554,0.424,1.078,1.199
		c0.914,1.338,1.151,1.694,2.235,3.348c0.007,0.307,0.019,0.627,0.019,0.937c0,0.279,0,0.584-0.061,0.907
		c-0.033,0.301-0.107,0.415-0.251,0.609c0.459-0.037,0.743-0.068,1.382-0.068c0.551,0,0.864,0.024,1.293,0.068
		c-0.136-0.167-0.236-0.306-0.275-0.609c-0.023-0.213-0.033-0.856-0.033-1.12c0-0.26,0-0.5,0.01-0.757
		c1.819-2.814,1.985-3.064,2.456-3.673c0.372-0.495,0.556-0.638,0.869-0.841c-0.479,0.032-0.912,0.068-1.368,0.068
		c-0.43,0-0.861-0.036-1.285-0.068c0.035,0.102,0.276,0.376-0.982,2.477C180.41,78.056,180.222,78.359,180.112,78.592
		L180.112,78.592z"/>
	<path fill="#FFFFFF" stroke="#FFFFFF" stroke-width="2.0002" stroke-miterlimit="2.6131" d="M159.417,117.327
		c2.259,0,4.098-1.844,4.098-4.118V92.745c0-2.275-1.839-4.116-4.098-4.116H33.153c-2.259,0-4.093,1.841-4.093,4.116v20.464
		c0,2.274,1.834,4.118,4.093,4.118H159.417L159.417,117.327z"/>
	<path fill="#006CB0" d="M159.34,88.697H33.139c-2.139,0-3.874,1.739-3.874,3.883v20.866c0,2.146,1.735,3.883,3.874,3.883h8.309
		c8.299-2.403,28.237-7.664,57.682-7.664l0.073,0.051c28.76,0,48.587,4.49,57.745,7.613h2.392c2.14,0,3.866-1.736,3.866-3.883V92.58
		C163.206,90.436,161.479,88.697,159.34,88.697L159.34,88.697z"/>
	<path fill="#EE2531" d="M156.121,117.347c-8.817-1.923-27.651-5.49-56.017-5.49h-0.078c-29.301,0-49.207,3.703-57.573,5.523
		L156.121,117.347L156.121,117.347z"/>
	<path fill="#FFFFFF" d="M67.059,95.175c-0.613-0.318-1.117-0.493-1.766-0.493c-1.197,0-1.783,1.087-1.844,1.552
		c-0.087,0.763,0.261,1.623,1.253,3.261c0.934,1.49,1.336,2.964,1.194,4.138c-0.375,3.13-3.033,4.966-6.123,4.966
		c-1.691,0-3.574-0.637-4.286-1.562l1.697-2.155c0.688,0.456,1.329,0.863,2.326,0.863c1.195,0,2.129-1.045,2.254-2.062
		c0.123-1.057-0.538-2.023-1.397-3.541c-0.888-1.615-1.221-2.437-1.073-3.679c0.325-2.711,2.941-4.508,5.895-4.508
		c1.953,0,2.619,0.596,3.474,1.147L67.059,95.175L67.059,95.175z"/>
	<path fill="#FFFFFF" d="M78.667,96.281h-3.389l-0.284,1.103h-0.036c-0.292-0.821-0.956-1.338-2.076-1.338
		c-2.7,0-5.225,3.112-5.629,6.503c-0.278,2.331,0.521,3.819,1.954,3.819c1.598,0,2.725-0.822,3.487-1.258
		c0,0-0.217,0.725-0.026,1.017h3.335c-0.198-0.292,0.021-1.017,0.021-1.017L78.667,96.281L78.667,96.281z M74.299,99.281
		c-0.599,3.585-1.974,5.05-2.679,5.05c-0.782,0-0.954-0.757-0.823-1.823c0.345-2.838,1.887-4.459,2.742-4.459
		C73.886,98.049,74.473,98.369,74.299,99.281L74.299,99.281z"/>
	<path fill="#FFFFFF" d="M92.435,93.78c0.167-1.368,1.241-2.231,2.175-2.231c1.192,0,1.626,1.031,1.544,1.686
		c-0.193,1.592-1.364,2.295-2.3,2.295C92.797,95.529,92.333,94.581,92.435,93.78L92.435,93.78z"/>
	<path fill="#FFFFFF" d="M100.7,105.743c-1.004,0.43-2.15,0.625-3.131,0.625c-2.056,0-2.557-1.04-1.961-3.149l1.604-5.118h-1.17
		l0.56-1.818h1.165l0.7-2.36l3.536-0.589l-0.879,2.949h2.197l-0.557,1.818h-2.195l-1.193,3.762
		c-0.632,1.904-0.007,2.399,0.425,2.399c0.37,0,0.644-0.106,1.019-0.271L100.7,105.743L100.7,105.743z"/>
	<path fill="#FFFFFF" d="M125.128,93.78c0.171-1.368,1.242-2.231,2.178-2.231c1.188,0,1.617,1.031,1.537,1.686
		c-0.189,1.592-1.357,2.295-2.281,2.295C125.496,95.529,125.035,94.581,125.128,93.78L125.128,93.78z"/>
	<path fill="#FFFFFF" d="M114.2,96.281h-3.391l-0.287,1.103h-0.035c-0.291-0.821-0.957-1.338-2.074-1.338
		c-2.703,0-5.221,3.112-5.635,6.503c-0.28,2.331,0.517,3.819,1.953,3.819c1.604,0,2.732-0.822,3.492-1.258
		c0,0-0.217,0.725-0.023,1.017h3.328c-0.203-0.292,0.027-1.017,0.027-1.017L114.2,96.281L114.2,96.281z M109.828,99.281
		c-0.606,3.585-1.978,5.05-2.688,5.05c-0.777,0-0.947-0.757-0.818-1.823c0.349-2.838,1.886-4.459,2.729-4.459
		C109.414,98.049,109.993,98.369,109.828,99.281L109.828,99.281z"/>
	<path fill="#FFFFFF" d="M83.829,105.103l1.523-5.16c0.055-0.15,0.082-0.325,0.106-0.487c0.017-0.825-0.357-0.949-0.58-0.949
		c-1.271,0-2.072,1.873-2.488,3.234l-1.296,4.392h-3.35l2.619-8.789l0.003-0.031c0,0,0.221-0.727,0.021-1.02h3.335
		c0.195,0.293-0.025,1.051-0.025,1.051l-0.251,0.707l0.025,0.051c1.213-1.382,2.709-2.054,3.824-2.054
		c1.441,0,1.929,0.708,1.813,2.11c-0.036,0.473-0.157,1.002-0.35,1.635l-1.61,5.312c0,0-0.222,0.731-0.027,1.023h-3.325
		C83.602,105.835,83.829,105.103,83.829,105.103L83.829,105.103z"/>
	<path fill="#FFFFFF" d="M132.379,97.333l-1.528,5.154c-0.057,0.16-0.084,0.341-0.101,0.498c-0.028,0.818,0.351,0.945,0.571,0.945
		c1.268,0,2.078-1.867,2.48-3.238l1.299-4.387h3.351l-2.611,8.797l-0.005,0.026c0,0-0.22,0.733-0.023,1.021h-3.328
		c-0.194-0.287,0.023-1.049,0.023-1.049l0.254-0.721l-0.035-0.046c-1.205,1.385-2.705,2.058-3.824,2.058
		c-1.436,0-1.922-0.705-1.815-2.115c0.043-0.474,0.166-0.998,0.356-1.629l1.606-5.315c0,0,0.216-0.724,0.021-1.021h3.328
		C132.594,96.609,132.379,97.333,132.379,97.333L132.379,97.333z"/>
	<path fill="#FFFFFF" d="M92.495,106.146c-0.169-0.242,0.051-1.08,0.051-1.08l2.64-8.784h-3.355l-2.644,8.846
		c0,0-0.22,0.728-0.015,1.021h3.323V106.146z"/>
	<path fill="#FFFFFF" d="M125.205,106.146c-0.194-0.291,0.03-1.02,0.03-1.02l0.01-0.061l2.641-8.785h-3.361l-2.635,8.785
		l-0.004,0.061c0,0-0.222,0.729-0.021,1.02H125.205L125.205,106.146z"/>
	<path fill="#FFFFFF" d="M115.92,96.291c0.199,0.293-0.019,1.019-0.019,1.019h0.002l-2.366,7.928c0,0-0.188,0.74-0.5,0.891h3.354
		c0.312-0.148,0.492-0.891,0.492-0.891l0.984-3.326c0.604-2.003,1.654-2.436,2.421-2.436c0.536,0,0.719,0.114,0.894,0.194
		l1.91-2.875c-0.336-0.436-0.727-0.749-1.434-0.749c-1.227,0-2.075,1.559-2.348,1.994l-0.27,0.363l-0.146-0.034l0.318-1.019
		l0.008-0.041c0,0,0.225-0.727,0.028-1.02L115.92,96.291L115.92,96.291z"/>
	<path fill="#FFFFFF" d="M140.062,96.274c0.196,0.293-0.052,1.067-0.052,1.067l-2.622,8.789h3.36l1.396-4.605
		c0.506-1.695,1.394-3.035,2.291-3.035c0.314,0,0.655,0.156,0.555,0.951c-0.021,0.148-0.057,0.33-0.113,0.485l-1.543,5.187
		c0,0-0.219,0.729-0.023,1.015h3.349c-0.195-0.284,0.03-1.015,0.03-1.015l1.078-3.588c0.506-1.695,1.397-3.035,2.293-3.035
		c0.312,0,0.648,0.156,0.553,0.951c-0.02,0.148-0.061,0.33-0.112,0.485l-1.53,5.156c0,0-0.234,0.76-0.039,1.044h3.354
		c-0.195-0.284,0.043-1.075,0.043-1.075l1.537-5.241c0.207-0.651,0.353-1.201,0.41-1.674c0.218-1.305-0.373-2.125-1.9-2.091
		c-1.123,0.018-2.742,0.749-3.848,1.853c0.158-1.266-0.733-1.853-1.45-1.853c-1.525,0-2.897,0.866-3.873,1.853l-0.034-0.043
		l0.166-0.514c0,0,0.229-0.774,0.027-1.067H140.062L140.062,96.274z"/>
	<path fill="#FBE046" d="M36.794,114.771l-0.842,0.095c0.524-3.188,1.741-5.185,3.116-7.384c1.573-2.51,3.94-4.176,5.154-4.934
		c2.772-1.729,5.491-1.152,10.98-2.668c1.014-0.281,0.951-0.466,0.951-0.466s-1.873,5.283-6.491,7.858
		c-4.906,2.737-7.563,1.369-9.975,2.737C37.285,111.38,36.794,114.771,36.794,114.771L36.794,114.771z"/>
	<path fill="#FBE046" d="M38.682,105.722c0,0-1.31-5.354,0.539-8.492c1.848-3.141,4.581-4.901,4.581-4.901s0.54,5.073,0.014,6.872
		C42.979,102.003,38.682,105.722,38.682,105.722L38.682,105.722z"/>
	<path fill="#FBE046" d="M45.043,100.442c0,0,1.229-3.811,4.18-5.225c2.949-1.421,2.461-0.827,4.931-1.637
		c0,0-1.183,3.221-2.667,4.458C49.397,99.778,45.043,100.442,45.043,100.442L45.043,100.442z"/>
	<path fill="#FFFFFF" d="M167.378,112.976c-0.477,0.485-0.703,1.069-0.703,1.746c0,0.682,0.229,1.264,0.695,1.744
		c0.482,0.482,1.055,0.715,1.734,0.715c0.674,0,1.24-0.231,1.719-0.715c0.479-0.48,0.709-1.062,0.709-1.744
		c0-0.677-0.23-1.261-0.709-1.746c-0.479-0.478-1.045-0.713-1.719-0.713S167.854,112.498,167.378,112.976L167.378,112.976z
		 M171.099,116.747c-0.548,0.548-1.219,0.834-1.992,0.834c-0.789,0-1.461-0.286-2.01-0.834c-0.547-0.561-0.822-1.24-0.822-2.025
		c0-0.787,0.275-1.449,0.83-2.011c0.554-0.555,1.22-0.829,2.002-0.829c0.773,0,1.444,0.274,1.992,0.829
		c0.555,0.552,0.834,1.218,0.834,2.011C171.933,115.507,171.653,116.187,171.099,116.747L171.099,116.747z M169.632,113.545
		c-0.133-0.079-0.354-0.119-0.66-0.119h-0.475v1.14h0.512c0.225,0,0.397-0.024,0.51-0.08c0.217-0.09,0.322-0.252,0.322-0.485
		C169.841,113.772,169.769,113.621,169.632,113.545L169.632,113.545z M169.044,113.155c0.391,0,0.672,0.025,0.85,0.102
		c0.319,0.141,0.478,0.402,0.478,0.795c0,0.277-0.095,0.485-0.3,0.619c-0.104,0.066-0.258,0.114-0.451,0.152
		c0.251,0.042,0.43,0.139,0.539,0.308c0.111,0.166,0.17,0.323,0.17,0.474v0.229c0,0.084,0,0.167,0,0.242
		c0.013,0.083,0.018,0.134,0.031,0.159l0.018,0.039h-0.507c0-0.015,0-0.02-0.022-0.031c0-0.008,0-0.02-0.007-0.033v-0.343
		c0-0.364-0.096-0.604-0.297-0.726c-0.11-0.062-0.312-0.1-0.599-0.1h-0.448v1.232h-0.541v-3.119H169.044L169.044,113.155z"/>
</g>
</svg>
