<?xml version="1.0" encoding="utf-8"?>
<!-- Generator: Adobe Illustrator 16.0.0, SVG Export Plug-In . SVG Version: 6.00 Build 0)  -->
<!DOCTYPE svg PUBLIC "-//W3C//DTD SVG 1.1//EN" "http://www.w3.org/Graphics/SVG/1.1/DTD/svg11.dtd">
<svg version="1.1" id="Layer_1" xmlns="http://www.w3.org/2000/svg" xmlns:xlink="http://www.w3.org/1999/xlink" x="0px" y="0px"
	 width="241.51px" height="70.595px" viewBox="279.665 264.167 241.51 70.595"
	 enable-background="new 279.665 264.167 241.51 70.595" xml:space="preserve">
<g>
	<rect x="279.665" y="264.167" fill="#E31B23" width="241.51" height="70.595"/>
	<g>
		<g>
			<path fill="#FFFFFF" d="M417.693,299.775v-7.36c0-1.764-1.892-4.271-4.272-4.219c-2.009,0.043-3.431,1.248-4.459,2.378v-2.419
				h-0.392c-1.21,0.854-2.566,1.423-4.02,1.79v1.003c0,0,1.038-0.597,1.572-0.305c0.534,0.293,0.543,0.861,0.543,1.427v7.678
				c0,0.69-0.518,1.066-0.997,1.091l-1.118,0.06v0.881h6.315v-0.94h-0.938c-0.479,0-0.968-0.582-0.968-1.063v-8.231
				c0.956-0.595,2.774-1.649,3.692-1.648c1.28,0.002,2.741,1.275,2.741,2.711v7.141c0,0.69-0.518,1.065-0.999,1.091l-1.114,0.061
				v0.88h6.312v-0.94h-0.936C418.181,300.838,417.693,300.256,417.693,299.775z"/>
			<path fill="#FFFFFF" d="M376.062,299.775v-7.36c0-1.764-1.891-4.271-4.274-4.219c-2.009,0.043-3.43,1.248-4.456,2.378v-2.419
				h-0.395c-1.211,0.854-2.563,1.423-4.016,1.79v1.003c0,0,1.037-0.597,1.571-0.305c0.534,0.293,0.543,0.861,0.543,1.427v7.678
				c0,0.69-0.521,1.066-0.999,1.091l-1.115,0.06v0.881h6.312v-0.94h-0.935c-0.479,0-0.967-0.582-0.967-1.063v-8.231
				c0.952-0.595,2.774-1.649,3.692-1.648c1.28,0.002,2.741,1.275,2.741,2.711v7.141c0,0.69-0.52,1.065-0.998,1.091l-1.115,0.061
				v0.88h6.311v-0.94h-0.934C376.547,300.838,376.062,300.256,376.062,299.775z"/>
			<path fill="#FFFFFF" d="M342.155,290.378c-1.305-0.653-3.955-1.653-4.912-2.435c-0.956-0.782-2.041-2.696-1.782-4.042
				c0.262-1.347,1.566-2.304,2.828-2.521c1.259-0.217,2.562-0.349,3.867,0.522c1.305,0.869,1.693,1.912,1.825,2.65
				c0.13,0.739,0.219,1.349,0.219,1.349h1.127v-5.042c0,0-3.563-0.913-5.518-0.913c-1.958,0-3.938,0.566-5.218,1.956
				c-1.274,1.389-1.562,2.477-1.649,3.434c-0.085,0.956,0.043,3.128,1.695,4.433c1.651,1.302,5.435,2.956,6.258,3.39
				c0.826,0.432,2.131,1.301,2.565,2.39c0.436,1.086,0.259,2.693-0.35,3.606c-0.609,0.915-2.171,1.958-3.606,1.958
				c-1.435,0-3.132-0.305-4.043-1.394c-0.912-1.085-1.174-1.693-1.305-2.173c-0.128-0.477-0.173-0.997-0.173-0.997h-1v4.997
				c0,0,3.347,0.521,4.781,0.608c1.436,0.086,3.521,0,4.868-0.784c1.348-0.782,3.086-2.259,3.391-4.301
				c0.304-2.044-0.085-3.172-0.827-4.172C344.459,291.898,343.459,291.029,342.155,290.378z"/>
			<path fill="#FFFFFF" d="M385.553,299.829c-1.564-0.8-1.391-3.206-1.391-3.206v-6.898h4.318l0.488-1.394h-4.808v-4.215
				l-0.455-0.034c-1.194,2.334-2.868,4.016-4.806,5.329v0.279h2.924v7.49c0,2.268,0.662,3.552,2.091,4.214
				c1.43,0.666,3.414,0.383,3.414,0.383l2.229-1.88l-0.522-0.628C389.037,299.27,387.122,300.63,385.553,299.829z"/>
			<path fill="#FFFFFF" d="M360.329,299.897c-0.241,0.123-0.906,0.182-1.301,0.031c-0.392-0.153-0.42-1.58-0.42-1.58
				s0-6.856,0-7.252c0-1.763-1.856-2.608-3.053-2.822c-1.193-0.212-2.515-0.078-3.632,0.61c-1.117,0.685-2.078,1.485-2.288,2.212
				c-0.213,0.728,0.422,2.095,0.422,2.095l1.935-0.881c0,0-0.243-0.605-0.304-0.973c-0.062-0.362,0.062-0.847,0.514-1.332
				c0.454-0.486,1.404-0.769,2.446-0.578c1.043,0.191,1.561,1.33,1.603,2.004c0.039,0.67,0.028,2.364,0.028,2.364
				s-2.476,0.912-3.531,1.307c-1.059,0.392-2.931,1.182-3.596,2.608c-0.665,1.427-0.062,2.701,0.844,3.644
				c0.907,0.94,2.602,0.728,3.837,0.424c1.239-0.305,2.569-1.396,2.569-1.396c0.045,0.546,0.195,1.229,0.602,1.519
				c0.406,0.285,1.088-0.153,1.088-0.153l2.688-1.364l-0.03-0.728C360.75,299.656,360.571,299.775,360.329,299.897z
				 M352.536,300.201c-1.402-0.789-1.54-2.111-0.937-3.003c0.604-0.898,4.711-2.276,4.711-2.276l0.029,4.309
				C356.343,299.358,353.936,300.988,352.536,300.201z"/>
			<path fill="#FFFFFF" d="M401.354,299.897c-0.241,0.123-0.904,0.182-1.3,0.031c-0.392-0.153-0.42-1.58-0.42-1.58s0-6.856,0-7.252
				c0-1.763-1.854-2.608-3.052-2.822c-1.196-0.212-2.515-0.078-3.631,0.61c-1.118,0.685-2.077,1.485-2.289,2.212
				c-0.213,0.728,0.425,2.095,0.425,2.095l1.932-0.881c0,0-0.24-0.605-0.301-0.973c-0.062-0.362,0.061-0.847,0.513-1.332
				c0.453-0.486,1.402-0.769,2.445-0.578c1.043,0.191,1.562,1.33,1.604,2.004c0.04,0.67,0.027,2.364,0.027,2.364
				s-2.475,0.912-3.531,1.307c-1.058,0.392-2.931,1.182-3.596,2.608c-0.665,1.427-0.062,2.701,0.846,3.644
				c0.905,0.94,2.6,0.728,3.835,0.424c1.238-0.305,2.568-1.396,2.568-1.396c0.045,0.546,0.195,1.229,0.603,1.519
				c0.409,0.285,1.088-0.153,1.088-0.153l2.688-1.364l-0.031-0.728C401.775,299.656,401.596,299.775,401.354,299.897z
				 M393.561,300.201c-1.4-0.789-1.541-2.111-0.935-3.003c0.603-0.898,4.711-2.276,4.711-2.276l0.029,4.309
				C397.368,299.358,394.961,300.988,393.561,300.201z"/>
			<path fill="#FFFFFF" d="M456.518,289.428c-0.406,0.395-0.877,1.266-1.196,1.914v-3.188h-0.393
				c-1.21,0.854-2.564,1.79-4.018,2.159v1.002c0,0,1.037-0.597,1.571-0.303c0.532,0.292,0.542,0.856,0.542,1.425v7.309
				c0,0.69-0.518,1.066-0.996,1.091l-1.117,0.06v0.881h6.313v-0.94h-0.938c-0.479,0-0.967-0.582-0.967-1.063v-6.681
				c0.058-0.195,0.128-0.385,0.211-0.553c0.402-0.827,1.373-1.864,2.69-2.25c1.319-0.387,2.108,1.09,2.108,1.09l0.495,0.017v-2.868
				c0,0-0.972-0.403-1.865-0.386C458.062,288.162,457.202,288.761,456.518,289.428z"/>
			<path fill="#FFFFFF" d="M432.818,298.929v-20.764h-0.394c-1.211,0.855-2.564,1.423-4.017,1.791v1.002
				c0,0,1.037-0.596,1.568-0.304c0.535,0.292,0.548,0.86,0.548,1.426v7.173c-0.906-0.69-2.154-1.044-3.766-1.025
				c-4.046,0.047-6.832,3.131-6.832,6.973c0,3.84,2.315,6.97,6.078,6.97c1.885,0,3.431-0.843,4.527-2.213
				c0.026,0.96,0.152,1.358,0.674,2.217l4.07-1.671l0.014-0.926l-1.505,0.415C433.324,300.116,432.818,299.406,432.818,298.929z
				 M430.525,298.69c-0.675,0.98-1.758,1.597-3.313,1.597c-3.022,0-4.98-2.424-4.98-5.514c0-3.086,1.677-5.519,4.928-5.417
				c1.683,0.055,2.732,0.863,3.367,2.013L430.525,298.69L430.525,298.69z"/>
			<path fill="#FFFFFF" d="M449.371,294.114c-0.149-3.574-2.553-6.029-5.898-6.029c-3.604,0-6.64,3.19-6.64,7.043
				s3.034,7.045,6.64,7.045c1.844,0,4.043-0.381,5.377-1.514l0.044-1.033c0,0-3.394,1.697-5.421,1.038
				c-2.021-0.66-2.921-1.697-3.484-3.439c-0.565-1.744-0.519-3.111-0.519-3.111H449.371L449.371,294.114z M439.44,293.006
				c0.037-2.224,1.73-3.656,3.841-3.724c2.109-0.067,3.457,1.948,3.509,3.724H439.44z"/>
		</g>
		<path fill="#FFFFFF" d="M308.516,303.283c9.06,0,16.448-3.678,16.448-8.183c0-3.295-3.955-6.146-9.622-7.441
			c-0.034-0.831,0.068-2.061-0.536-3.416c-0.879-1.979-2.817-4.189-4.388-6.37c-1.565-2.171-1.205-3.788-1.298-4.473
			c-0.695,0.434-2.424,2.25-1.549,5.346c0.868,3.07,4.099,6.458,5.096,8.221c0.997,1.766,0.831,3.38,0.545,4.376
			c-0.286,0.995-0.826,1.403-1.27,1.688c0.029-0.661,0.007-1.556-0.398-2.515c-0.406-0.958-2.371-3.248-3.802-4.934
			c-1.427-1.685-2.813-4.211-2.19-6.221c-0.616,0.375-1.932,2.025-1.86,3.949c0.067,1.924,1.67,4.532,2.659,5.766
			c0.991,1.233,2.714,3.702,3.054,5.063c0.339,1.359,0.218,2.331-0.074,3.033c-0.244,0.583-1.068,1.239-1.068,1.239
			s0.074-0.948-0.266-1.675c-0.339-0.728-4.275-6.068-4.662-6.627c-0.355-0.511-1.277-1.568-1.227-2.543
			c-5.891,1.247-10.039,4.158-10.039,7.533C292.068,299.605,299.457,303.283,308.516,303.283L308.516,303.283z"/>
		<path fill="#FFFFFF" d="M363.686,318.898v-0.045c0.986-0.352,1.606-1.153,1.606-2.084c0-0.748-0.31-1.311-0.804-1.677
			c-0.577-0.479-1.366-0.69-2.594-0.69c-0.845,0-1.703,0.084-2.239,0.211v9.328c0.408,0.058,1.057,0.111,1.902,0.111
			c1.55,0,2.62-0.281,3.269-0.888c0.493-0.464,0.818-1.084,0.818-1.899C365.645,319.855,364.588,319.109,363.686,318.898z
			 M360.882,315.432c0.197-0.041,0.521-0.086,1.084-0.086c1.24,0,2.071,0.452,2.071,1.551c0,0.916-0.762,1.606-2.043,1.606h-1.113
			L360.882,315.432L360.882,315.432z M361.91,323.098c-0.437,0-0.775-0.015-1.028-0.058v-3.621h1.015
			c1.339,0,2.451,0.549,2.451,1.833C364.348,322.632,363.178,323.098,361.91,323.098z M389.57,318.898v-0.045
			c0.985-0.352,1.604-1.153,1.604-2.084c0-0.748-0.31-1.311-0.803-1.677c-0.578-0.479-1.367-0.69-2.592-0.69
			c-0.847,0-1.706,0.084-2.24,0.211v9.328c0.409,0.058,1.057,0.111,1.901,0.111c1.55,0,2.621-0.281,3.271-0.888
			c0.493-0.464,0.816-1.084,0.816-1.899C391.528,319.855,390.471,319.109,389.57,318.898z M386.765,315.432
			c0.197-0.041,0.523-0.086,1.085-0.086c1.24,0,2.073,0.452,2.073,1.551c0,0.916-0.761,1.606-2.043,1.606h-1.114L386.765,315.432
			L386.765,315.432z M387.795,323.098c-0.438,0-0.775-0.015-1.03-0.058v-3.621h1.017c1.337,0,2.452,0.549,2.452,1.833
			C390.232,322.632,389.062,323.098,387.795,323.098z M340.772,322.801c-0.282,0.141-0.832,0.254-1.635,0.254
			c-2.227,0-3.664-1.424-3.664-3.832c0-2.383,1.508-3.818,3.818-3.818c0.958,0,1.592,0.169,2.1,0.408l0.311-1
			c-0.408-0.197-1.282-0.438-2.381-0.438c-3.186,0-5.144,2.07-5.144,4.902c0,1.479,0.507,2.748,1.325,3.537
			c0.93,0.889,2.113,1.254,3.55,1.254c1.282,0,2.381-0.312,2.932-0.521v-3.49h-1.213L340.772,322.801L340.772,322.801z
			 M377.128,314.473h-1.241v9.498h5.299v-1.029h-4.058V314.473z M369.787,314.473l-3.227,9.498h1.269l0.986-2.986h3.366l1.017,2.986
			h1.31l-3.241-9.498H369.787z M369.069,320.023l0.93-2.746c0.184-0.578,0.338-1.17,0.466-1.721h0.041
			c0.141,0.551,0.282,1.114,0.479,1.732l0.944,2.734H369.069L369.069,320.023z M353.78,314.318c-2.535,0-4.396,1.973-4.396,4.988
			c0,2.873,1.746,4.817,4.27,4.817h0.014c2.41,0,4.396-1.748,4.396-5.002C358.064,316.305,356.387,314.318,353.78,314.318z
			 M353.711,323.125h-0.015c-1.931,0-3.029-1.846-3.029-3.848c0-2.057,1.015-3.959,3.058-3.959s3.029,1.972,3.029,3.861
			C356.754,321.335,355.654,323.125,353.711,323.125z M345.07,314.473h-1.24v9.498h5.299v-1.029h-4.059V314.473L345.07,314.473z
			 M478.958,319.447v-0.043c0.987-0.338,1.791-1.17,1.791-2.409c0-0.746-0.282-1.396-0.748-1.804
			c-0.591-0.535-1.45-0.789-2.761-0.789c-0.832,0-1.734,0.084-2.354,0.211v9.356h1.227v-4.114h1.153
			c1.112,0.043,1.637,0.535,1.919,1.846c0.252,1.185,0.463,2.002,0.618,2.27h1.271c-0.186-0.365-0.409-1.281-0.719-2.607
			C480.114,320.378,479.68,319.701,478.958,319.447z M477.366,318.926h-1.253v-3.451c0.21-0.058,0.62-0.113,1.212-0.113
			c1.296,0,2.185,0.535,2.185,1.762C479.51,318.207,478.676,318.926,477.366,318.926z M488.907,314.473h-1.522l-2.902,3.565
			c-0.24,0.312-0.494,0.647-0.745,1.014h-0.044v-4.579h-1.227v9.498h1.227v-3.621l0.917-1.043l3.111,4.664h1.451l-3.706-5.468
			L488.907,314.473z M468.771,314.473l-3.229,9.498h1.27l0.985-2.986h3.37l1.012,2.986h1.312l-3.241-9.498H468.771z
			 M468.054,320.023l0.93-2.746c0.184-0.578,0.34-1.17,0.466-1.721h0.044c0.14,0.551,0.278,1.114,0.476,1.732l0.945,2.734H468.054
			L468.054,320.023z M491.329,319.518h3.679v-1.015h-3.679v-3.001h3.903v-1.029h-5.143v9.498h5.354v-1.029h-4.114V319.518z
			 M462.219,314.473l-1.689,4.594c-0.421,1.197-0.762,2.24-1.015,3.199h-0.028c-0.253-0.986-0.562-2.029-0.956-3.199l-1.621-4.594
			h-1.564l-0.663,9.498h1.169l0.256-4.072c0.085-1.438,0.153-3.016,0.184-4.198h0.027c0.27,1.127,0.634,2.339,1.085,3.692
			l1.551,4.521h0.93l1.678-4.607c0.479-1.311,0.858-2.509,1.198-3.606h0.026c0,1.17,0.085,2.774,0.155,4.101l0.227,4.172h1.209
			l-0.59-9.498h-1.567V314.473z M506.803,318.588c-1.311-0.509-1.888-0.943-1.888-1.831c0-0.649,0.493-1.425,1.788-1.425
			c0.861,0,1.496,0.27,1.791,0.452l0.338-1.001c-0.408-0.24-1.126-0.465-2.085-0.465c-1.846,0-3.073,1.099-3.073,2.578
			c0,1.324,0.959,2.142,2.509,2.705c1.283,0.479,1.79,1,1.79,1.875c0,0.973-0.732,1.619-1.985,1.619
			c-0.848,0-1.636-0.267-2.185-0.621l-0.324,1.03c0.506,0.338,1.508,0.619,2.424,0.619c2.239,0,3.312-1.282,3.312-2.747
			C509.213,319.982,508.41,319.223,506.803,318.588z M495.953,315.516h2.887v8.455h1.24v-8.455h2.9v-1.043h-7.027V315.516z
			 M428.037,318.46c0,1.466,0.027,2.622,0.143,3.89l-0.043,0.016c-0.437-0.986-1.001-1.973-1.69-3.086l-3.03-4.807h-1.354v9.498
			h1.157v-4.059c0-1.577-0.016-2.721-0.086-3.918l0.043-0.014c0.464,1.026,1.1,2.113,1.761,3.17l3.016,4.82h1.241v-9.498h-1.155
			L428.037,318.46L428.037,318.46z M417.497,314.473h-1.521l-2.902,3.565c-0.238,0.312-0.492,0.647-0.745,1.014h-0.044v-4.579
			h-1.226v9.498h1.226v-3.621l0.915-1.043l3.113,4.664h1.452l-3.707-5.468L417.497,314.473z M450.637,318.785h-1.125
			c-0.185,1.197-0.479,2.113-0.918,2.775c-0.604-0.677-1.507-1.705-2.309-2.648v-0.044c1.507-0.745,2.085-1.534,2.085-2.535
			c0-1.239-0.916-2.015-2.103-2.015c-1.577,0-2.422,1.184-2.422,2.34c0,0.676,0.323,1.365,0.804,1.984v0.043
			c-1.085,0.606-1.859,1.479-1.859,2.775c0,1.424,1.07,2.663,2.917,2.663c1.055,0,1.958-0.323,2.774-1.07
			c0.366,0.38,0.619,0.648,0.888,0.916h1.466c-0.563-0.606-1.058-1.141-1.563-1.679
			C449.976,321.462,450.383,320.279,450.637,318.785z M446.188,315.164h0.014c0.774,0,1.098,0.646,1.098,1.227
			c0,0.803-0.604,1.311-1.577,1.859c-0.395-0.508-0.721-1.029-0.721-1.705C445,315.812,445.41,315.164,446.188,315.164z
			 M445.932,323.195h-0.015c-1.142,0-1.931-0.831-1.931-1.916c0-1,0.704-1.606,1.228-1.932c1.041,1.213,2.098,2.381,2.662,2.987
			C447.424,322.83,446.749,323.195,445.932,323.195z M418.68,323.971h1.241v-9.498h-1.241V323.971z M407.762,318.46
			c0,1.466,0.026,2.622,0.143,3.89l-0.044,0.016c-0.438-0.986-1-1.973-1.689-3.086l-3.031-4.807h-1.352v9.498h1.154v-4.059
			c0-1.577-0.014-2.721-0.084-3.918l0.042-0.014c0.465,1.026,1.101,2.113,1.761,3.17l3.016,4.82h1.241v-9.498h-1.155L407.762,318.46
			L407.762,318.46z M437.364,322.801c-0.28,0.141-0.831,0.254-1.636,0.254c-2.226,0-3.663-1.424-3.663-3.832
			c0-2.383,1.509-3.818,3.818-3.818c0.959,0,1.594,0.169,2.102,0.408l0.309-1c-0.407-0.197-1.28-0.438-2.38-0.438
			c-3.186,0-5.145,2.07-5.145,4.902c0,1.479,0.508,2.748,1.326,3.537c0.929,0.889,2.111,1.254,3.55,1.254
			c1.281,0,2.381-0.312,2.931-0.521v-3.516h-1.212V322.801L437.364,322.801z M395.67,314.473l-3.227,9.498h1.268l0.989-2.986h3.367
			l1.014,2.986h1.312l-3.24-9.498H395.67z M394.952,320.023l0.931-2.746c0.182-0.578,0.337-1.17,0.463-1.721h0.043
			c0.141,0.551,0.282,1.114,0.479,1.732l0.941,2.734H394.952L394.952,320.023z"/>
	</g>
</g>
</svg>
