<?xml version="1.0" encoding="utf-8"?>
<!-- Generator: Adobe Illustrator 16.0.0, SVG Export Plug-In . SVG Version: 6.00 Build 0)  -->
<!DOCTYPE svg PUBLIC "-//W3C//DTD SVG 1.1//EN" "http://www.w3.org/Graphics/SVG/1.1/DTD/svg11.dtd">
<svg version="1.1" id="Layer_1" xmlns="http://www.w3.org/2000/svg" xmlns:xlink="http://www.w3.org/1999/xlink" x="0px" y="0px"
	 width="446.18px" height="162.38px" viewBox="195.4 234.601 446.18 162.38" enable-background="new 195.4 234.601 446.18 162.38"
	 xml:space="preserve">
<g>
	<path fill="#223F9A" d="M383.94,374.885c-1.148-0.438-3.021-0.767-4.562-0.767c-2.691,0-5.938,0.542-8.409,1.646v20.771h6.264
		v-17.924c0.553-0.219,1.483-0.432,2.48-0.432c0.985,0,1.971,0.213,2.901,0.606L383.94,374.885 M469.923,385.429
		c0,2.363-0.055,7.15-3.4,7.15c-3.361,0-3.414-4.829-3.414-7.15c0-2.298,0.053-7.355,3.414-7.355
		C469.869,378.071,469.923,383.131,469.923,385.429z M476.185,385.546c0-6.095-2.967-11.428-9.662-11.428
		c-6.705,0-9.678,5.333-9.678,11.428c0,6.102,2.973,11.325,9.678,11.325C473.218,396.871,476.185,391.647,476.185,385.546z
		 M455.761,395.819l-0.824-3.793c-1.035,0.442-2.076,0.66-3.297,0.66c-1.482,0-2.799-0.767-3.398-1.807
		c-0.996-1.542-1.27-3.794-1.27-5.275c0-1.541,0.223-3.297,0.885-4.834c0.764-1.654,2.139-2.427,3.734-2.427
		c1.039,0,2.469,0.335,3.24,0.82l0.875-4.007c-1.375-0.661-3.566-1.04-5.387-1.04c-6.316,0-9.836,5.333-9.836,11.312
		c0,7.149,3.414,11.496,9.836,11.496C452.035,396.926,454.224,396.536,455.761,395.819z M437.775,396.536v-15.712
		c0-4.79-3.195-6.706-7.795-6.706c-2.535,0-5.061,0.767-6.93,1.812c-1.924-1.379-4.892-1.812-7.255-1.812
		c-2.805,0-6.761,0.767-9.017,1.701v20.717h6.263v-17.967c0.663-0.176,1.604-0.389,2.917-0.389c1.819,0,3.236,0.82,3.236,2.858
		v15.496h6.274v-17.42c0.771-0.546,2.256-0.826,3.295-0.826c1.648,0,2.738,0.931,2.738,2.858v15.388L437.775,396.536
		L437.775,396.536z M402.576,396.536v-21.105c-2.589-0.879-5.004-1.312-7.368-1.312c-7.922,0-12.374,5.047-12.374,12.86
		c0,4.992,2.376,10.002,7.867,10.002c2.251,0,4.456-0.998,5.761-2.256l0.07,1.812L402.576,396.536L402.576,396.536z
		 M368.826,396.536l-10.001-31.38h-6.703l-10.274,31.38h6.318l1.982-6.71h9.892l1.862,6.71H368.826z M333.05,368.233
		c0-1.752-1.543-3.187-3.454-3.187c-1.932,0-3.471,1.435-3.471,3.187c0,1.756,1.539,3.182,3.471,3.182
		C331.507,371.415,333.05,369.989,333.05,368.233z M326.459,396.536h6.263v-21.984h-6.263V396.536z M321.729,395.278V364.55h-6.263
		v10.11c-1.04-0.273-2.146-0.378-3.186-0.378c-6.547,0-9.947,5.437-9.947,11.427c0,6.979,3.735,11.271,10.773,11.271
		C315.465,396.98,319.473,396.481,321.729,395.278z M299.416,395.224v-20.672h-6.259v17.583c-0.499,0.335-1.982,0.554-2.753,0.554
		c-1.975,0-3.078-0.988-3.078-2.969v-15.168h-6.262v14.732c0,5.939,2.913,7.696,8.627,7.696
		C293.262,396.98,297.433,396.212,299.416,395.224z M277.025,396.536v-21.105c-2.594-0.879-5.013-1.312-7.373-1.312
		c-7.906,0-12.362,5.047-12.362,12.86c0,4.992,2.364,10.002,7.856,10.002c2.255,0,4.456-0.998,5.775-2.256l0.054,1.812
		L277.025,396.536L277.025,396.536z M254.951,387.75c0-2.972-1.484-5.228-3.63-6.926c-1.095-0.888-4.007-2.359-6.154-3.415
		c-1.756-0.876-3.63-2.088-3.63-4.062c0-2.427,1.92-3.414,4.183-3.521c2.418-0.109,4.506,0.554,6.372,1.43l1.644-4.505
		c-2.302-1.216-5.491-1.867-8.35-1.867c-5.546,0-10.215,2.852-10.215,8.791c0,3.734,2.134,5.99,4.385,7.311
		c1.768,1.039,4.074,2.146,5.612,2.961c2.091,1.158,3.186,2.371,3.186,4.128c0,2.522-2.523,3.626-4.779,3.626
		c-2.535,0-5.99-1.049-7.084-1.547l-1.433,4.628c3.022,1.258,5.931,1.86,9.234,1.86C249.623,396.642,254.951,393.619,254.951,387.75
		z M396.302,391.474c-0.875,0.607-1.915,1.051-3.076,1.051c-3.295,0-3.845-4.231-3.845-6.756c0-3.58,1.212-8.086,5.598-8.086
		c0.343,0,0.946,0.108,1.323,0.227V391.474L396.302,391.474z M358.93,385.546h-7.688l3.902-13.847h0.104L358.93,385.546z
		 M315.465,392.579c-0.498,0.218-1.269,0.328-2.037,0.328c-4.008,0-4.614-4.344-4.614-7.479c0-3.297,0.763-7.576,4.895-7.576
		c0.608,0,1.205,0.056,1.757,0.22V392.579z M270.759,391.474c-0.942,0.607-1.982,1.051-3.088,1.051
		c-3.349,0-3.836-4.231-3.836-6.756c0-3.58,1.203-8.086,5.604-8.086c0.323,0,0.935,0.108,1.32,0.227V391.474z"/>
	<rect x="443.412" y="320.463" fill="#223F9A" width="6.447" height="31.495"/>
	<rect x="467.009" y="320.463" fill="#223F9A" width="6.447" height="31.495"/>
	<path fill="#223F9A" d="M462.23,352.176v-22.807h-6.438v23.598c0,3.222-1.861,4.237-4.744,4.237c-1.799,0-4.4-0.619-5.928-1.301
		l-1.477,4.007c2.146,1.142,6.225,1.864,8.596,1.864C458.609,361.774,462.23,358.446,462.23,352.176z"/>
	<rect x="356.083" y="320.463" fill="#223F9A" width="6.438" height="31.495"/>
	<path fill="#223F9A" d="M250.075,340.769c0-3.785-0.908-6.771-2.719-8.81c-1.69-1.976-4.292-3.046-7.388-3.046
		c-1.756,0-3.902,0.4-5.429,1.021l0.908,4.062c0.954-0.401,2.205-0.687,3.275-0.687c1.756,0,2.991,0.916,3.672,2.268
		c0.74,1.527,1.017,3.849,1.017,5.254c0,1.865-0.348,4.464-1.699,5.982c-0.845,0.91-1.745,1.19-3.836,1.19h-4.475l-0.9,4.288h6.781
		c2.937,0,5.764-0.786,7.685-2.827C249.003,347.269,250.075,344.157,250.075,340.769z"/>
	<path fill="#223F9A" d="M206.638,322.865c0-1.654-1.441-3.054-3.271-3.054c-1.823,0-3.327,1.398-3.327,3.054
		c0,1.671,1.504,3.067,3.327,3.067C205.196,325.935,206.638,324.536,206.638,322.865z"/>
	<path fill="#223F9A" d="M215.023,322.865c0-1.654-1.449-3.054-3.279-3.054c-1.819,0-3.327,1.398-3.327,3.054
		c0,1.671,1.508,3.067,3.327,3.067C213.574,325.935,215.023,324.536,215.023,322.865z"/>
	<path fill="#223F9A" d="M223.455,358.688c0-1.668-1.453-3.06-3.283-3.06c-1.823,0-3.326,1.392-3.326,3.06
		c0,1.658,1.503,3.053,3.326,3.053C222.002,361.741,223.455,360.349,223.455,358.688z"/>
	<path fill="#223F9A" d="M231.832,358.688c0-1.668-1.453-3.06-3.275-3.06c-1.831,0-3.334,1.392-3.334,3.06
		c0,1.658,1.503,3.053,3.334,3.053C230.379,361.741,231.832,360.349,231.832,358.688z"/>
	<path fill="#223F9A" d="M433.087,340.551c0,2.427-0.059,7.337-3.508,7.337c-3.438,0-3.502-4.973-3.502-7.337
		c0-2.376,0.064-7.575,3.502-7.575C433.029,332.976,433.087,338.175,433.087,340.551 M439.517,340.655
		c0-6.271-3.053-11.742-9.938-11.742c-6.883,0-9.873,5.472-9.873,11.742c0,0.795,0.108,1.812,0.214,2.656
		c0.12,0.791,0.352,1.637,0.352,2.041c0,1.689-0.911,2.535-3.447,2.535h-4.701c1.526-0.904,2.534-3.05,2.534-4.791
		c0-8.365-12.536-8.949-12.536-14.719c0-2.422,2.267-3.161,4.409-3.161c1.865,0,4.236,0.511,6.208,1.409l1.476-4.291
		c-2.091-1.243-5.433-1.972-8.701-1.972c-5.027,0-9.989,2.603-9.989,8.073c0,9.543,12.416,9.521,12.416,15.328
		c0,2.657-1.808,4.121-6.492,4.121h-8.946v-17.283c-1.693-1.018-4.911-1.69-7.964-1.69c-7.739,0-11.68,4.744-11.68,12.253
		c0,5.701,3.1,10.839,9.303,10.839c1.251,0,2.941-0.108,4.024-0.729v1.69c0,3.058-1.866,4.237-4.748,4.237
		c-1.808,0-4.409-0.619-5.939-1.301l-1.46,4.007c2.146,1.142,6.208,1.864,8.58,1.864c6.384,0,9.884-3.555,9.884-9.816h25.222
		c2.256,0,4.237-0.736,5.309-2.087c0.395,0.438,1.354,1.125,1.92,1.405c1.301,0.619,2.828,1.017,4.627,1.017
		C436.464,352.293,439.517,346.935,439.517,340.655z M386.118,347.726c-0.498,0.279-1.235,0.506-1.976,0.506
		c-3.952,0-4.567-3.789-4.567-7.463c0-4.226,0.896-8.072,4.681-8.072c0.562,0,1.417,0.121,1.862,0.335V347.726z"/>
	<path fill="#223F9A" d="M349.917,344.56v-24.097h-6.434v24.539c0,1.933-1.29,3.003-3.21,3.003c-2.707,0-4.677-0.577-6.324-1.191
		V329.37h-6.438v18.285c-0.846,0.351-2.201,0.51-3.097,0.51c-2.041,0-3.167-0.736-3.167-2.932V329.37h-6.446v18.009
		c-0.619,0.511-1.919,0.786-2.991,0.786c-2.196,0-3.162-1.018-3.162-3.041V329.37h-6.438v15.47c0,2.146-0.954,3.05-3.217,3.05
		h-14.508v-14.117c0.564-0.285,1.866-0.569,2.652-0.569c1.13,0,1.92,0.339,2.43,0.892c0.67,0.793,0.845,2.657,0.845,4.581
		c0,2.431-0.23,4.923-0.459,6.224h6.103c0.23-1.525,0.565-4.984,0.565-7.303c0-1.354-0.109-2.709-0.335-3.73
		c-0.955-3.715-4.066-4.95-8.864-4.95c-3.167,0-7.454,0.845-9.37,1.812v17.164h-5.788v-17.283c-1.703-1.019-4.911-1.691-7.965-1.691
		c-7.738,0-11.688,4.744-11.688,12.253c0,5.701,3.104,10.839,9.316,10.839c1.246,0,2.933-0.109,4.007-0.729v1.689
		c0,3.059-1.862,4.237-4.736,4.237c-1.811,0-4.409-0.619-5.936-1.302l-1.464,4.008c2.146,1.143,6.208,1.865,8.58,1.865
		c6.383,0,9.885-3.555,9.885-9.817c3.042,0,7.139,0,10.239,0h16.828c1.753,0,3.618-0.51,4.514-1.472
		c0.966,1.021,3.672,1.916,6.158,1.916c2.601,0,5.371-0.28,7.236-2.033c1.97,1.636,4.852,2.033,7.337,2.033
		c2.878,0,5.761-0.615,7.396-1.637c1.976,0.846,5.032,1.637,8.53,1.637C346.042,352.401,349.917,350.595,349.917,344.56z
		 M265.887,347.726c-0.514,0.279-1.25,0.506-1.975,0.506c-3.953,0-4.584-3.789-4.584-7.463c0-4.226,0.911-8.072,4.689-8.072
		c0.568,0,1.414,0.121,1.869,0.335v14.694H265.887z"/>
	<path fill="#223F9A" d="M231.614,344.56V329.37h-6.45v15.633c0,1.932-1.181,3.003-3.108,3.003c-1.971,0-5.188-0.511-6.894-1.366
		v-16.09c-1.515-0.846-4.783-1.637-8.07-1.637c-7.79,0-11.692,5.472-11.692,12.361c0,8.027,4.974,11.127,10.231,11.127
		c2.816,0,5.418-0.842,6.999-1.916c2.828,1.302,6.274,1.916,9.601,1.916C227.711,352.401,231.614,350.657,231.614,344.56z
		 M208.732,347.829c-0.619,0.4-1.409,0.619-2.146,0.619c-4.171,0-4.518-4.232-4.518-7.51c0-3.215,0.51-8.299,4.635-8.299
		c0.669,0,1.409,0.055,2.028,0.391L208.732,347.829L208.732,347.829z"/>
</g>
<g>
	
		<linearGradient id="SVGID_1_" gradientUnits="userSpaceOnUse" x1="454.4263" y1="206.7607" x2="591.1173" y2="321.4582" gradientTransform="matrix(1 0 0 -1 54 560.2754)">
		<stop  offset="0" style="stop-color:#009A7B"/>
		<stop  offset="0.3596" style="stop-color:#008389"/>
		<stop  offset="0.6404" style="stop-color:#005297"/>
		<stop  offset="1" style="stop-color:#21409A"/>
	</linearGradient>
	<rect x="511.966" y="234.601" fill="url(#SVGID_1_)" width="129.613" height="123.132"/>
	<g>
		<path fill="#FFFFFF" d="M581.507,286.832c1.398,0.65,2.361,2.017,2.232,3.174c-0.184,1.172-1.41,1.581-2.863,0.942
			c-1.453-0.658-2.414-2.068-2.23-3.241C578.863,286.583,580.099,286.217,581.507,286.832"/>
		<path fill="#FFFFFF" d="M584.896,264.254c1.148,0.561,1.975,1.535,1.908,2.259c-0.104,0.721-1.082,0.861-2.264,0.304
			c-1.172-0.573-2.006-1.577-1.908-2.306C582.763,263.807,583.74,263.702,584.896,264.254"/>
		<path fill="#FFFFFF" d="M585.205,262.007c0.961,0.479,1.654,1.281,1.6,1.854c-0.086,0.584-0.898,0.673-1.873,0.207
			c-0.988-0.476-1.678-1.301-1.607-1.885C583.435,261.618,584.238,261.544,585.205,262.007"/>
		<path fill="#FFFFFF" d="M585.496,259.775c0.889,0.448,1.525,1.172,1.48,1.703c-0.074,0.51-0.818,0.576-1.732,0.14
			c-0.908-0.456-1.559-1.2-1.492-1.722C583.849,259.39,584.593,259.344,585.496,259.775"/>
		<path fill="#FFFFFF" d="M585.753,257.61c0.834,0.409,1.434,1.071,1.387,1.538c-0.066,0.468-0.748,0.51-1.602,0.109
			c-0.832-0.424-1.434-1.106-1.375-1.573C584.238,257.233,584.931,257.209,585.753,257.61"/>
		<path fill="#FFFFFF" d="M586.027,255.597c0.754,0.39,1.311,0.997,1.275,1.406c-0.066,0.424-0.693,0.444-1.473,0.066
			c-0.777-0.393-1.33-1.021-1.279-1.429C584.617,255.239,585.255,255.215,586.027,255.597"/>
		<path fill="#FFFFFF" d="M586.251,253.786c0.705,0.358,1.213,0.919,1.191,1.289c-0.055,0.37-0.639,0.378-1.354,0.024
			c-0.727-0.371-1.23-0.935-1.191-1.301C584.962,253.439,585.546,253.439,586.251,253.786"/>
		<path fill="#FFFFFF" d="M586.478,252.029c0.641,0.335,1.117,0.783,1.098,1.168c-0.053,0.393-0.582,0.327-1.246,0
			c-0.66-0.347-1.146-0.802-1.105-1.18C585.296,251.64,585.816,251.702,586.478,252.029"/>
		<path fill="#FFFFFF" d="M586.701,250.253c0.549,0.3,0.973,0.686,0.943,1.009c-0.037,0.327-0.506,0.257-1.076-0.035
			c-0.572-0.289-0.984-0.682-0.955-1.017C585.667,249.895,586.119,249.973,586.701,250.253"/>
		<path fill="#FFFFFF" d="M586.902,248.586c0.518,0.28,0.9,0.615,0.877,0.907c-0.043,0.296-0.451,0.226-0.975-0.042
			c-0.521-0.281-0.898-0.62-0.875-0.923C585.968,248.251,586.384,248.326,586.902,248.586"/>
		<path fill="#FFFFFF" d="M587.109,246.951c0.432,0.238,0.771,0.518,0.746,0.767c-0.029,0.25-0.381,0.172-0.834-0.055
			c-0.453-0.237-0.781-0.529-0.76-0.782C586.294,246.636,586.658,246.709,587.109,246.951"/>
		<path fill="#FFFFFF" d="M587.302,245.397c0.391,0.222,0.688,0.467,0.66,0.673c-0.02,0.219-0.336,0.14-0.727-0.066
			c-0.396-0.202-0.693-0.455-0.668-0.669C586.599,245.121,586.914,245.194,587.302,245.397"/>
		<path fill="#FFFFFF" d="M580.3,294.742c-1.199-0.564-2.002-1.764-1.85-2.772c0.193-0.997,1.238-1.333,2.426-0.822
			c1.162,0.541,1.965,1.709,1.844,2.718C582.56,294.882,581.521,295.259,580.3,294.742"/>
		<path fill="#FFFFFF" d="M579.544,299.552c-1.18-0.541-1.949-1.741-1.799-2.773c0.195-1.02,1.225-1.387,2.383-0.9
			c1.15,0.53,1.92,1.699,1.789,2.735C581.757,299.642,580.728,300.051,579.544,299.552"/>
		<path fill="#FFFFFF" d="M578.734,304.567c-1.146-0.51-1.889-1.723-1.725-2.772c0.197-1.028,1.203-1.43,2.328-0.954
			c1.117,0.499,1.865,1.68,1.727,2.719C580.888,304.615,579.892,305.056,578.734,304.567"/>
		<path fill="#FFFFFF" d="M577.832,310.086c-1.113-0.485-1.842-1.704-1.66-2.776c0.211-1.047,1.186-1.496,2.279-1.027
			c1.094,0.479,1.811,1.646,1.658,2.72C579.935,310.063,578.949,310.539,577.832,310.086"/>
		<path fill="#FFFFFF" d="M576.902,315.603c-0.963-0.426-1.582-1.509-1.418-2.485c0.182-0.962,1.051-1.382,2.012-0.996
			c0.943,0.413,1.551,1.464,1.422,2.44C578.742,315.531,577.878,315.979,576.902,315.603"/>
		<path fill="#FFFFFF" d="M575.763,322.272c-0.941-0.396-1.525-1.472-1.35-2.48c0.191-0.975,1.035-1.434,1.957-1.07
			c0.92,0.389,1.508,1.438,1.355,2.435C577.55,322.151,576.71,322.644,575.763,322.272"/>
		<path fill="#FFFFFF" d="M574.486,329.49c-0.846-0.349-1.344-1.337-1.186-2.287c0.189-0.931,0.959-1.388,1.781-1.074
			c0.82,0.339,1.332,1.302,1.191,2.246C576.091,329.313,575.328,329.802,574.486,329.49"/>
		<path fill="#FFFFFF" d="M573.228,336.706c-0.717-0.271-1.137-1.148-0.975-2.005c0.172-0.853,0.834-1.302,1.539-1.052
			c0.693,0.271,1.119,1.125,0.986,1.981C574.607,336.478,573.945,336.952,573.228,336.706"/>
		<path fill="#FFFFFF" d="M586.478,289.379c1.117,0.53,1.9,1.636,1.822,2.567c-0.117,0.942-1.062,1.27-2.201,0.759
			c-1.137-0.529-1.916-1.667-1.816-2.613C584.421,289.185,585.363,288.88,586.478,289.379"/>
		<path fill="#FFFFFF" d="M591.39,291.252c1.352,0.662,2.35,2.06,2.297,3.24c-0.102,1.193-1.227,1.617-2.625,0.978
			c-1.406-0.685-2.402-2.126-2.316-3.318C588.884,290.995,590.015,290.625,591.39,291.252"/>
		<path fill="#FFFFFF" d="M628.181,287.385c-0.604-0.359-0.982-0.238-0.895,0.292c0.117,0.53,0.67,1.246,1.275,1.628
			c0.604,0.366,0.986,0.238,0.889-0.303C629.343,288.456,628.789,287.763,628.181,287.385"/>
		<path fill="#FFFFFF" d="M624.259,285.153c-0.553-0.312-0.918-0.207-0.84,0.249c0.08,0.468,0.578,1.095,1.146,1.43
			c0.551,0.315,0.908,0.207,0.836-0.272C625.3,286.096,624.812,285.488,624.259,285.153"/>
		<path fill="#FFFFFF" d="M624.824,288.327c-0.607-0.354-1.021-0.229-0.932,0.315c0.1,0.53,0.65,1.235,1.254,1.613
			c0.621,0.37,1.021,0.229,0.936-0.315C625.974,289.391,625.431,288.686,624.824,288.327"/>
		<path fill="#FFFFFF" d="M620.849,285.858c-0.748-0.413-1.246-0.261-1.174,0.359c0.113,0.627,0.766,1.46,1.508,1.893
			c0.76,0.424,1.26,0.273,1.16-0.366C622.238,287.1,621.583,286.291,620.849,285.858"/>
		<path fill="#FFFFFF" d="M611.13,322.576c-0.965-0.541-1.672-0.119-1.658,1.01c0.041,1.125,0.812,2.462,1.775,3.041
			c0.965,0.567,1.654,0.121,1.635-1.028C612.828,324.462,612.07,323.149,611.13,322.576"/>
		<path fill="#FFFFFF" d="M606.187,313.519c-1.105-0.584-1.949-0.141-1.98,1.051c0.02,1.205,0.895,2.609,2.014,3.24
			c1.137,0.598,1.975,0.129,1.963-1.095C608.14,315.513,607.283,314.126,606.187,313.519"/>
		<path fill="#FFFFFF" d="M601.052,305.717c-1.105-0.553-1.965-0.151-2.014,0.931c-0.014,1.099,0.834,2.385,1.951,2.984
			c1.113,0.549,1.969,0.128,1.994-0.99C602.97,307.56,602.138,306.281,601.052,305.717"/>
		<path fill="#FFFFFF" d="M597.001,273.146c-0.998-0.471-1.777-0.347-1.818,0.335c-0.014,0.697,0.742,1.627,1.752,2.134
			c1.018,0.49,1.787,0.327,1.809-0.367C598.734,274.556,597.978,273.645,597.001,273.146"/>
		<path fill="#FFFFFF" d="M617.402,286.984c-0.77-0.413-1.299-0.25-1.234,0.401c0.088,0.65,0.752,1.507,1.525,1.963
			c0.781,0.428,1.312,0.245,1.238-0.417C618.83,288.261,618.173,287.428,617.402,286.984"/>
		<path fill="#FFFFFF" d="M613.394,284.752c-0.812-0.443-1.41-0.269-1.355,0.394c0.066,0.67,0.76,1.546,1.594,2.014
			c0.844,0.44,1.416,0.257,1.355-0.425C614.896,286.064,614.214,285.196,613.394,284.752"/>
		<path fill="#FFFFFF" d="M605.507,283.658c-0.967-0.487-1.689-0.292-1.68,0.463c0.031,0.783,0.803,1.768,1.771,2.286
			c0.99,0.491,1.705,0.272,1.676-0.506C607.228,285.13,606.46,284.156,605.507,283.658"/>
		<path fill="#FFFFFF" d="M609.425,282.337c-1.029-0.518-1.766-0.334-1.729,0.463c0.051,0.814,0.895,1.866,1.938,2.426
			c1.041,0.53,1.773,0.315,1.723-0.506C611.271,283.907,610.437,282.879,609.425,282.337"/>
		<path fill="#FFFFFF" d="M605.203,280.059c-1.148-0.576-2.018-0.378-2.006,0.499c0.031,0.876,0.967,2.037,2.135,2.656
			c1.172,0.584,2.025,0.347,1.994-0.542C607.259,281.78,606.339,280.659,605.203,280.059"/>
		<path fill="#FFFFFF" d="M601.234,281.36c-1.078-0.529-1.904-0.323-1.926,0.498c0.012,0.838,0.848,1.917,1.938,2.485
			c1.098,0.53,1.92,0.304,1.92-0.544C603.136,282.965,602.302,281.901,601.234,281.36"/>
		<path fill="#FFFFFF" d="M596.148,298.24c-1.131-0.53-2.041-0.172-2.115,0.845c-0.043,1.055,0.791,2.297,1.939,2.874
			c1.146,0.541,2.057,0.163,2.111-0.892C598.091,300.019,597.259,298.804,596.148,298.24"/>
		<path fill="#FFFFFF" d="M596.332,293.842c-1.219-0.588-2.189-0.226-2.279,0.833c-0.031,1.083,0.877,2.396,2.115,3.015
			c1.242,0.595,2.209,0.203,2.264-0.876C598.437,295.727,597.542,294.438,596.332,293.842"/>
		<path fill="#FFFFFF" d="M596.503,289.695c-1.32-0.631-2.377-0.285-2.451,0.81c-0.049,1.118,0.947,2.516,2.287,3.186
			c1.344,0.639,2.383,0.261,2.438-0.876C598.785,291.688,597.804,290.345,596.503,289.695"/>
		<path fill="#FFFFFF" d="M596.642,285.815c-1.275-0.607-2.293-0.315-2.371,0.705c-0.033,1.047,0.932,2.36,2.232,3.01
			c1.312,0.627,2.32,0.292,2.359-0.771C598.863,287.72,597.9,286.45,596.642,285.815"/>
		<path fill="#FFFFFF" d="M596.716,282.455c-1.125-0.542-2.012-0.3-2.062,0.553c-0.039,0.876,0.82,2.006,1.955,2.578
			c1.141,0.542,2.021,0.285,2.062-0.604C598.671,284.102,597.828,283.007,596.716,282.455"/>
		<path fill="#FFFFFF" d="M596.849,279.023c-1.203-0.576-2.166-0.358-2.223,0.53c-0.033,0.919,0.902,2.111,2.133,2.727
			c1.238,0.588,2.178,0.338,2.217-0.592C598.964,280.775,598.052,279.627,596.849,279.023"/>
		<path fill="#FFFFFF" d="M596.935,275.911c-1.18-0.561-2.111-0.378-2.17,0.456c-0.02,0.857,0.893,1.983,2.098,2.586
			c1.197,0.588,2.121,0.374,2.145-0.498C598.996,277.602,598.103,276.499,596.935,275.911"/>
		<path fill="#FFFFFF" d="M589.111,266.646c-0.822-0.39-1.504-0.316-1.57,0.207c-0.051,0.533,0.553,1.258,1.398,1.67
			c0.834,0.398,1.516,0.3,1.572-0.23C590.542,267.771,589.937,267.059,589.111,266.646"/>
		<path fill="#FFFFFF" d="M589.201,264.219c-0.76-0.37-1.375-0.304-1.441,0.152c-0.031,0.463,0.52,1.114,1.289,1.496
			c0.771,0.37,1.375,0.292,1.434-0.16C590.501,265.24,589.957,264.589,589.201,264.219"/>
		<path fill="#FFFFFF" d="M589.255,261.922c-0.662-0.324-1.193-0.281-1.246,0.098c-0.037,0.393,0.451,0.954,1.113,1.277
			c0.674,0.327,1.195,0.272,1.238-0.117C590.38,262.798,589.906,262.249,589.255,261.922"/>
		<path fill="#FFFFFF" d="M589.275,259.698c-0.594-0.276-1.072-0.299-1.115,0.078c-0.035,0.382,0.41,0.826,1.008,1.13
			c0.594,0.289,1.072,0.315,1.115-0.078C590.302,260.45,589.861,260.005,589.275,259.698"/>
		<path fill="#FFFFFF" d="M589.333,257.642c-0.559-0.281-0.998-0.304-1.033,0.031c-0.035,0.358,0.381,0.764,0.932,1.044
			c0.564,0.269,1.01,0.299,1.039-0.047C590.283,258.323,589.871,257.926,589.333,257.642"/>
		<path fill="#FFFFFF" d="M589.351,255.55c-0.484-0.238-0.861-0.269-0.91,0.023c-0.021,0.299,0.348,0.65,0.834,0.899
			c0.498,0.25,0.881,0.28,0.91-0.023C590.197,256.158,589.832,255.812,589.351,255.55"/>
		<path fill="#FFFFFF" d="M589.384,253.72c-0.457-0.226-0.814-0.269-0.848,0c-0.02,0.272,0.328,0.584,0.785,0.822
			c0.449,0.229,0.809,0.273,0.832,0C590.166,254.272,589.832,253.961,589.384,253.72"/>
		<path fill="#FFFFFF" d="M589.406,251.834c-0.4-0.207-0.717-0.245-0.736-0.019c-0.012,0.233,0.281,0.506,0.682,0.712
			c0.402,0.21,0.715,0.25,0.736,0.012C590.095,252.313,589.796,252.041,589.406,251.834"/>
		<path fill="#FFFFFF" d="M585.679,296.619c0.877,0.386,1.611,0.106,1.703-0.649c0.062-0.752-0.535-1.64-1.387-2.042
			c-0.869-0.378-1.605-0.117-1.715,0.619C584.195,295.307,584.798,296.202,585.679,296.619"/>
		<path fill="#FFFFFF" d="M585.103,301.44c0.834,0.365,1.539,0.074,1.637-0.674c0.072-0.761-0.498-1.623-1.32-2.018
			c-0.834-0.357-1.539-0.085-1.646,0.663C583.685,300.159,584.257,301.047,585.103,301.44"/>
		<path fill="#FFFFFF" d="M584.105,306.414c0.834,0.354,1.527,0.039,1.637-0.74c0.074-0.782-0.477-1.646-1.289-2.024
			c-0.822-0.357-1.516-0.055-1.637,0.713C582.73,305.146,583.285,306.033,584.105,306.414"/>
		<path fill="#FFFFFF" d="M583.228,311.808c0.783,0.336,1.441,0,1.539-0.759c0.09-0.76-0.434-1.594-1.191-1.938
			c-0.771-0.324-1.434-0.012-1.537,0.736C581.941,310.604,582.458,311.461,583.228,311.808"/>
		<path fill="#FFFFFF" d="M582.136,317.215c0.729,0.3,1.352-0.036,1.453-0.78c0.084-0.738-0.391-1.55-1.105-1.865
			c-0.719-0.303-1.334,0.024-1.449,0.76C580.943,316.076,581.417,316.892,582.136,317.215"/>
		<path fill="#FFFFFF" d="M580.869,323.647c0.682,0.272,1.268-0.086,1.375-0.813c0.074-0.731-0.369-1.517-1.027-1.796
			c-0.674-0.28-1.25,0.055-1.367,0.779C579.751,322.563,580.195,323.344,580.869,323.647"/>
		<path fill="#FFFFFF" d="M601.052,278.108c-1.047-0.518-1.85-0.347-1.887,0.424c0.014,0.794,0.84,1.812,1.91,2.364
			c1.074,0.518,1.859,0.323,1.859-0.467C602.906,279.635,602.08,278.638,601.052,278.108"/>
		<path fill="#FFFFFF" d="M601.052,284.892c-0.896-0.436-1.59-0.237-1.617,0.479c0.012,0.713,0.709,1.636,1.617,2.103
			c0.91,0.44,1.604,0.234,1.604-0.498C602.636,286.255,601.941,285.36,601.052,284.892"/>
		<path fill="#FFFFFF" d="M601.082,288.358c-1.018-0.499-1.807-0.249-1.836,0.596c0,0.861,0.801,1.939,1.83,2.47
			c1.035,0.51,1.816,0.241,1.83-0.623C602.882,289.94,602.091,288.892,601.082,288.358"/>
		<path fill="#FFFFFF" d="M600.99,300.833c-0.998-0.491-1.781-0.163-1.824,0.779c-0.008,0.938,0.76,2.092,1.777,2.621
			c1.012,0.498,1.787,0.151,1.811-0.812C602.742,302.469,601.974,301.353,600.99,300.833"/>
		<path fill="#FFFFFF" d="M616.968,283.592c-0.844-0.44-1.42-0.292-1.35,0.378c0.092,0.686,0.82,1.585,1.666,2.06
			c0.855,0.468,1.426,0.296,1.344-0.401C618.519,284.947,617.802,284.059,616.968,283.592"/>
		<path fill="#FFFFFF" d="M606.037,319.5c-0.918-0.49-1.637-0.073-1.658,0.963c0.01,1.052,0.74,2.267,1.67,2.795
			c0.943,0.499,1.646,0.074,1.646-0.983C607.673,321.226,606.958,320.019,606.037,319.5"/>
		<path fill="#FFFFFF" d="M611.388,328.772c-0.889-0.518-1.539-0.082-1.527,0.998c0.021,1.105,0.74,2.383,1.637,2.937
			c0.889,0.533,1.527,0.085,1.508-1.028C612.96,330.571,612.253,329.313,611.388,328.772"/>
		<path fill="#FFFFFF" d="M600.812,310.92c-1.016-0.51-1.816-0.108-1.863,0.938c-0.021,1.066,0.76,2.31,1.787,2.851
			c1.039,0.513,1.834,0.091,1.865-0.979C602.601,312.661,601.833,311.45,600.812,310.92"/>
		<path fill="#FFFFFF" d="M595.906,303.321c-1.008-0.477-1.822-0.129-1.896,0.837c-0.047,0.976,0.705,2.11,1.723,2.634
			c1.027,0.475,1.842,0.094,1.898-0.876C597.64,304.95,596.904,303.821,595.906,303.321"/>
		<path fill="#FFFFFF" d="M591.128,295.91c-1.096-0.498-2.006-0.163-2.111,0.814c-0.09,0.985,0.713,2.166,1.83,2.71
			c1.129,0.51,2.025,0.147,2.111-0.849C593.013,297.588,592.222,296.444,591.128,295.91"/>
		<path fill="#FFFFFF" d="M601.031,296.592c-0.934-0.453-1.658-0.172-1.678,0.661c-0.012,0.861,0.701,1.896,1.654,2.389
			c0.947,0.467,1.66,0.17,1.678-0.693C602.679,298.087,601.962,297.083,601.031,296.592"/>
		<path fill="#FFFFFF" d="M597.044,270.482c-0.877-0.42-1.547-0.315-1.586,0.249c-0.008,0.584,0.662,1.386,1.555,1.831
			c0.889,0.433,1.559,0.315,1.568-0.273C598.572,271.709,597.908,270.926,597.044,270.482"/>
		<path fill="#FFFFFF" d="M613.078,281.707c-0.693-0.366-1.18-0.249-1.125,0.296c0.055,0.541,0.643,1.253,1.332,1.631
			c0.691,0.37,1.184,0.23,1.143-0.312C614.347,282.777,613.763,282.077,613.078,281.707"/>
		<path fill="#FFFFFF" d="M605.763,291.077c-0.785-0.386-1.375-0.195-1.375,0.479c0.021,0.681,0.65,1.527,1.441,1.951
			c0.795,0.397,1.375,0.195,1.367-0.499C607.154,292.339,606.535,291.494,605.763,291.077"/>
		<path fill="#FFFFFF" d="M605.951,308.429c-0.975-0.511-1.713-0.152-1.732,0.832c0.02,1.01,0.779,2.2,1.766,2.75
			c0.996,0.512,1.721,0.133,1.713-0.889C607.652,310.118,606.9,308.957,605.951,308.429"/>
		<path fill="#FFFFFF" d="M601.076,292.553c-0.912-0.443-1.613-0.207-1.648,0.589c0,0.786,0.705,1.771,1.625,2.25
			c0.922,0.457,1.615,0.195,1.635-0.615C602.667,293.975,601.974,293.021,601.076,292.553"/>
		<path fill="#FFFFFF" d="M610.41,297.425c-0.875-0.46-1.516-0.203-1.49,0.612c0.041,0.821,0.76,1.849,1.646,2.337
			c0.898,0.49,1.537,0.223,1.49-0.628C611.996,298.92,611.283,297.916,610.41,297.425"/>
		<path fill="#FFFFFF" d="M615.486,339.229c-0.713-0.479-1.225-0.086-1.205,0.89c0.043,0.996,0.645,2.153,1.355,2.663
			c0.727,0.486,1.225,0.102,1.191-0.907C616.765,340.878,616.189,339.729,615.486,339.229"/>
		<path fill="#FFFFFF" d="M609.679,285.952c-0.814-0.409-1.406-0.234-1.375,0.424c0.041,0.674,0.711,1.539,1.537,1.982
			c0.822,0.437,1.414,0.238,1.375-0.444C611.15,287.245,610.488,286.399,609.679,285.952"/>
		<path fill="#FFFFFF" d="M592.947,268.566c-0.799-0.378-1.43-0.296-1.484,0.214c-0.021,0.522,0.576,1.224,1.379,1.628
			c0.814,0.386,1.438,0.292,1.473-0.226C594.326,269.657,593.738,268.955,592.947,268.566"/>
		<path fill="#FFFFFF" d="M600.912,269.96c-0.756-0.366-1.332-0.292-1.344,0.207c0.02,0.498,0.617,1.203,1.375,1.593
			c0.77,0.37,1.348,0.284,1.348-0.214C602.255,271.035,601.658,270.354,600.912,269.96"/>
		<path fill="#FFFFFF" d="M609.222,279.705c-0.631-0.327-1.082-0.222-1.062,0.257c0.043,0.475,0.564,1.106,1.191,1.453
			c0.643,0.323,1.1,0.214,1.061-0.272C610.373,280.659,609.849,280.04,609.222,279.705"/>
		<path fill="#FFFFFF" d="M605.701,295.058c-0.803-0.401-1.404-0.176-1.404,0.536c0.02,0.729,0.656,1.628,1.467,2.072
			c0.814,0.409,1.41,0.176,1.398-0.561C607.13,296.378,606.503,295.49,605.701,295.058"/>
		<path fill="#FFFFFF" d="M610.044,293.453c-0.701-0.359-1.213-0.188-1.191,0.444c0.041,0.62,0.605,1.398,1.312,1.788
			c0.705,0.366,1.203,0.174,1.172-0.457C611.294,294.598,610.726,293.834,610.044,293.453"/>
		<path fill="#FFFFFF" d="M614.726,299.978c-0.768-0.438-1.322-0.207-1.277,0.541c0.055,0.771,0.705,1.709,1.496,2.176
			c0.777,0.433,1.318,0.195,1.275-0.582C616.146,301.353,615.498,300.416,614.726,299.978"/>
		<path fill="#FFFFFF" d="M621.242,289.367c-0.619-0.347-1.033-0.214-0.967,0.328c0.086,0.537,0.615,1.242,1.242,1.624
			c0.619,0.346,1.031,0.206,0.967-0.347C622.398,290.427,621.853,289.725,621.242,289.367"/>
		<path fill="#FFFFFF" d="M600.845,267.62c-0.658-0.324-1.168-0.269-1.168,0.152c0.012,0.424,0.541,1.021,1.211,1.367
			c0.674,0.335,1.184,0.272,1.172-0.164C602.037,268.543,601.507,267.966,600.845,267.62"/>
		<path fill="#FFFFFF" d="M600.964,272.636c-0.703-0.347-1.232-0.245-1.232,0.23c0.008,0.479,0.564,1.114,1.27,1.488
			c0.701,0.347,1.23,0.245,1.23-0.23C602.201,273.633,601.658,272.995,600.964,272.636"/>
		<path fill="#FFFFFF" d="M616.013,332.772c-0.811-0.521-1.393-0.121-1.359,0.942c0.061,1.06,0.729,2.32,1.545,2.884
			c0.824,0.527,1.4,0.127,1.355-0.968C617.478,334.562,616.816,333.321,616.013,332.772"/>
		<path fill="#FFFFFF" d="M597.076,268.13c-0.693-0.335-1.225-0.269-1.242,0.175c0,0.444,0.529,1.063,1.223,1.409
			c0.701,0.348,1.23,0.269,1.246-0.183C598.287,269.096,597.757,268.488,597.076,268.13"/>
		<path fill="#FFFFFF" d="M605.453,287.404c-0.697-0.347-1.203-0.183-1.203,0.378c0.018,0.576,0.576,1.305,1.266,1.659
			c0.691,0.363,1.203,0.188,1.191-0.389C606.675,288.479,606.134,287.763,605.453,287.404"/>
		<path fill="#FFFFFF" d="M605.093,277.723c-0.572-0.296-0.996-0.195-0.996,0.214c0.035,0.424,0.486,0.974,1.07,1.277
			c0.578,0.296,0.998,0.195,0.99-0.23C606.126,278.563,605.671,278.014,605.093,277.723"/>
		<path fill="#FFFFFF" d="M605.875,303.862c-0.684-0.354-1.201-0.129-1.213,0.558c0.02,0.67,0.561,1.479,1.254,1.861
			c0.697,0.366,1.215,0.133,1.209-0.564C607.095,305.043,606.554,304.233,605.875,303.862"/>
		<path fill="#FFFFFF" d="M611.072,316.935c-0.787-0.449-1.387-0.121-1.363,0.768c0.033,0.888,0.67,1.951,1.473,2.426
			c0.803,0.455,1.379,0.107,1.355-0.791C612.482,318.437,611.853,317.399,611.072,316.935"/>
		<path fill="#FFFFFF" d="M601.021,275.729c-0.529-0.265-0.936-0.188-0.936,0.183c0.012,0.378,0.426,0.877,0.945,1.149
			c0.529,0.246,0.932,0.171,0.932-0.207C601.941,276.484,601.539,275.985,601.021,275.729"/>
		<path fill="#FFFFFF" d="M611.255,335.121c-0.623-0.377-1.09-0.043-1.09,0.771c0.02,0.834,0.518,1.779,1.16,2.178
			c0.639,0.378,1.09,0.043,1.078-0.791C612.373,336.444,611.875,335.515,611.255,335.121"/>
		<path fill="#FFFFFF" d="M631.574,289.66c-0.457-0.281-0.748-0.184-0.658,0.238c0.094,0.424,0.518,0.985,0.975,1.292
			c0.467,0.28,0.746,0.183,0.66-0.253C632.451,290.516,632.031,289.967,631.574,289.66"/>
		<path fill="#FFFFFF" d="M613.748,288.401c-0.654-0.347-1.113-0.195-1.078,0.358c0.062,0.565,0.607,1.282,1.266,1.647
			c0.662,0.359,1.125,0.207,1.07-0.366C614.943,289.476,614.398,288.771,613.748,288.401"/>
		<path fill="#FFFFFF" d="M604.794,269.691c-0.6-0.292-1.043-0.237-1.035,0.148c0.037,0.382,0.508,0.935,1.117,1.25
			c0.607,0.304,1.039,0.226,1.021-0.163C605.861,270.537,605.386,270.003,604.794,269.691"/>
		<path fill="#FFFFFF" d="M628.728,290.789c-0.533-0.323-0.869-0.21-0.783,0.28c0.102,0.487,0.572,1.126,1.105,1.473
			c0.529,0.327,0.869,0.206,0.779-0.292C629.736,291.75,629.255,291.124,628.728,290.789"/>
		<path fill="#FFFFFF" d="M619.138,302.672c-0.691-0.409-1.172-0.194-1.117,0.511c0.078,0.703,0.658,1.584,1.352,2.012
			c0.697,0.418,1.172,0.195,1.105-0.527C620.404,303.965,619.82,303.088,619.138,302.672"/>
		<path fill="#FFFFFF" d="M635.283,292.132c-0.402-0.261-0.645-0.163-0.564,0.214c0.084,0.39,0.465,0.908,0.867,1.181
			c0.396,0.273,0.639,0.175,0.561-0.215C636.06,292.919,635.683,292.401,635.283,292.132"/>
		<path fill="#FFFFFF" d="M620.404,283.082c-0.477-0.258-0.791-0.171-0.736,0.206c0.061,0.382,0.488,0.892,0.961,1.168
			c0.48,0.265,0.797,0.175,0.738-0.214C621.304,283.852,620.878,283.354,620.404,283.082"/>
		<path fill="#FFFFFF" d="M618.433,346.003c-0.576-0.456-0.979-0.109-0.945,0.803c0.055,0.907,0.541,1.993,1.129,2.48
			c0.586,0.475,0.979,0.128,0.932-0.803C619.482,347.549,619.005,346.472,618.433,346.003"/>
		<path fill="#FFFFFF" d="M606.037,325.815c-0.705-0.368-1.225-0.041-1.242,0.781c0.008,0.812,0.537,1.756,1.242,2.156
			c0.701,0.377,1.223,0.03,1.238-0.795C607.248,327.138,606.718,326.207,606.037,325.815"/>
		<path fill="#FFFFFF" d="M614.433,296.164c-0.498-0.273-0.842-0.146-0.82,0.311c0.043,0.467,0.451,1.04,0.949,1.335
			c0.498,0.265,0.846,0.128,0.82-0.338C615.333,297.005,614.925,296.428,614.433,296.164"/>
		<path fill="#FFFFFF" d="M604.486,267.308c-0.506-0.261-0.879-0.261-0.863,0.098c0.029,0.358,0.432,0.767,0.943,1.04
			c0.516,0.261,0.898,0.249,0.879-0.109C605.406,267.978,604.998,267.569,604.486,267.308"/>
		<path fill="#FFFFFF" d="M608.14,269.333c-0.426-0.206-0.729-0.206-0.709,0.098c0.047,0.296,0.383,0.639,0.803,0.868
			c0.418,0.203,0.721,0.191,0.693-0.097C608.884,269.898,608.548,269.551,608.14,269.333"/>
		<path fill="#FFFFFF" d="M600.759,317.33c-0.615-0.304-1.113-0.03-1.133,0.644c-0.016,0.67,0.451,1.441,1.07,1.764
			c0.627,0.316,1.113,0.033,1.137-0.648C601.833,318.429,601.378,317.658,600.759,317.33"/>
		<path fill="#FFFFFF" d="M595.474,309.12c-0.605-0.284-1.094-0.042-1.148,0.561c-0.02,0.62,0.422,1.325,1.041,1.637
			c0.619,0.285,1.117,0.043,1.148-0.571C596.533,310.13,596.078,309.425,595.474,309.12"/>
		<path fill="#FFFFFF" d="M590.587,301.503c-0.598-0.271-1.096-0.062-1.162,0.487c-0.041,0.561,0.395,1.223,0.998,1.519
			c0.607,0.28,1.105,0.062,1.16-0.498C591.615,302.446,591.195,301.795,590.587,301.503"/>
		<path fill="#FFFFFF" d="M607.847,267.07c-0.445-0.218-0.77-0.23-0.752,0.085c0.047,0.304,0.406,0.67,0.861,0.9
			c0.439,0.226,0.768,0.226,0.736-0.089C608.65,267.663,608.292,267.308,607.847,267.07"/>
		<path fill="#FFFFFF" d="M610.652,267.047c-0.395-0.194-0.658-0.194-0.65,0.078c0.043,0.261,0.346,0.573,0.736,0.779
			c0.393,0.195,0.67,0.207,0.639-0.078C611.345,267.569,611.041,267.253,610.652,267.047"/>
		<path fill="#FFFFFF" d="M623.482,305.783c-0.436-0.272-0.727-0.134-0.684,0.335c0.051,0.479,0.443,1.07,0.877,1.354
			c0.443,0.285,0.729,0.141,0.682-0.347C624.302,306.66,623.925,306.075,623.482,305.783"/>
		<path fill="#FFFFFF" d="M619.593,306.995c-0.557-0.335-0.934-0.153-0.893,0.447c0.066,0.593,0.531,1.33,1.088,1.678
			c0.549,0.347,0.928,0.152,0.885-0.454C620.611,308.069,620.142,307.342,619.593,306.995"/>
		<path fill="#FFFFFF" d="M615.107,304.386c-0.512-0.294-0.881-0.117-0.859,0.401c0.047,0.528,0.467,1.18,0.984,1.481
			c0.525,0.305,0.885,0.117,0.848-0.412C616.035,305.327,615.619,304.688,615.107,304.386"/>
		<path fill="#FFFFFF" d="M610.511,301.869c-0.479-0.245-0.824-0.095-0.812,0.37c0.021,0.467,0.412,1.031,0.889,1.3
			c0.486,0.262,0.82,0.108,0.814-0.369C611.369,302.706,610.992,302.142,610.511,301.869"/>
		<path fill="#FFFFFF" d="M605.822,299.347c-0.49-0.234-0.846-0.084-0.857,0.368c0.021,0.457,0.402,1.007,0.889,1.271
			c0.486,0.246,0.855,0.095,0.855-0.358C606.687,300.159,606.31,299.618,605.822,299.347"/>
		<path fill="#FFFFFF" d="M623.847,309.899c-0.439-0.293-0.732-0.129-0.693,0.369c0.055,0.498,0.447,1.125,0.893,1.42
			c0.443,0.291,0.736,0.14,0.682-0.371C624.673,310.812,624.294,310.192,623.847,309.899"/>
		<path fill="#FFFFFF" d="M628.314,313.039c-0.391-0.271-0.65-0.125-0.598,0.339c0.057,0.475,0.41,1.075,0.791,1.355
			c0.4,0.291,0.65,0.141,0.598-0.336C629.05,313.919,628.703,313.334,628.314,313.039"/>
		<path fill="#FFFFFF" d="M604.802,272.25c-0.475-0.253-0.846-0.23-0.834,0.14c0.02,0.358,0.41,0.775,0.908,1.04
			c0.49,0.249,0.857,0.214,0.832-0.151C605.691,272.92,605.3,272.496,604.802,272.25"/>
		<path fill="#FFFFFF" d="M576.337,284.721c-1.146-0.491-2.178-0.194-2.381,0.689c-0.188,0.923,0.572,2.029,1.744,2.563
			c1.18,0.498,2.195,0.183,2.385-0.74C578.236,286.326,577.484,285.239,576.337,284.721"/>
		<path fill="#FFFFFF" d="M571.332,282.108c-1.453-0.604-2.797-0.257-3.107,0.845c-0.271,1.137,0.656,2.512,2.143,3.174
			c1.508,0.619,2.854,0.218,3.123-0.919C573.72,284.079,572.785,282.758,571.332,282.108"/>
		<path fill="#FFFFFF" d="M533.673,244.034c0.877,0.261,1.293,0.748,0.998,1.137c-0.338,0.389-1.262,0.499-2.158,0.253
			c-0.893-0.253-1.322-0.74-0.996-1.141C531.863,243.901,532.791,243.796,533.673,244.034"/>
		<path fill="#FFFFFF" d="M539.025,245.771c0.756,0.246,1.137,0.713,0.885,1.071c-0.258,0.334-1.061,0.413-1.83,0.171
			c-0.77-0.246-1.158-0.705-0.889-1.071C537.46,245.607,538.263,245.518,539.025,245.771"/>
		<path fill="#FFFFFF" d="M537.355,248.326c0.846,0.272,1.266,0.771,0.996,1.191c-0.303,0.401-1.191,0.518-2.061,0.273
			c-0.863-0.265-1.311-0.763-1.008-1.184C535.597,248.205,536.501,248.088,537.355,248.326"/>
		<path fill="#FFFFFF" d="M542.816,249.853c0.977,0.346,1.492,0.973,1.201,1.472c-0.322,0.479-1.344,0.6-2.348,0.272
			c-1.01-0.334-1.531-0.966-1.203-1.46C540.8,249.657,541.83,249.537,542.816,249.853"/>
		<path fill="#FFFFFF" d="M542.111,292.966c0.879,0.316,1.318,1.094,1.029,1.819c-0.303,0.716-1.236,1.051-2.145,0.747
			c-0.9-0.322-1.344-1.129-1.045-1.853C540.287,292.978,541.222,292.674,542.111,292.966"/>
		<path fill="#FFFFFF" d="M549.759,288.818c1.195,0.452,1.83,1.515,1.504,2.489c-0.379,0.954-1.59,1.367-2.836,0.931
			c-1.223-0.467-1.865-1.558-1.496-2.535C547.332,288.759,548.556,288.382,549.759,288.818"/>
		<path fill="#FFFFFF" d="M557.498,286.302c1.242,0.511,1.971,1.644,1.668,2.641c-0.336,0.997-1.57,1.402-2.859,0.911
			c-1.289-0.506-2.014-1.678-1.678-2.684C554.994,286.193,556.228,285.827,557.498,286.302"/>
		<path fill="#FFFFFF" d="M571.289,260.917c1.061,0.487,1.756,1.343,1.604,1.982c-0.184,0.639-1.148,0.767-2.242,0.288
			c-1.096-0.506-1.787-1.375-1.615-2.025C569.244,260.547,570.218,260.438,571.289,260.917"/>
		<path fill="#FFFFFF" d="M546.335,254.218c0.996,0.351,1.539,1.009,1.266,1.542c-0.311,0.53-1.305,0.67-2.328,0.343
			c-1.016-0.354-1.559-1.016-1.266-1.562C544.345,254.035,545.337,253.883,546.335,254.218"/>
		<path fill="#FFFFFF" d="M551.425,255.975c1.014,0.39,1.586,1.094,1.332,1.667c-0.287,0.553-1.285,0.693-2.336,0.327
			c-1.033-0.39-1.611-1.106-1.332-1.679C549.388,255.749,550.41,255.609,551.425,255.975"/>
		<path fill="#FFFFFF" d="M559.998,262.475c1.105,0.467,1.768,1.32,1.539,1.994c-0.27,0.67-1.332,0.845-2.469,0.401
			c-1.139-0.476-1.809-1.344-1.551-2.029C557.81,262.183,558.88,262.031,559.998,262.475"/>
		<path fill="#FFFFFF" d="M556.4,257.599c1.219,0.491,1.92,1.375,1.646,2.068c-0.311,0.682-1.482,0.857-2.736,0.382
			c-1.238-0.499-1.951-1.398-1.646-2.103C554.007,257.275,555.187,257.124,556.4,257.599"/>
		<path fill="#FFFFFF" d="M561.33,259.472c1.312,0.553,2.107,1.573,1.844,2.341c-0.305,0.771-1.559,0.954-2.914,0.412
			c-1.354-0.572-2.154-1.593-1.854-2.383C558.74,259.094,560.009,258.935,561.33,259.472"/>
		<path fill="#FFFFFF" d="M564.863,264.383c1.207,0.521,1.932,1.484,1.725,2.232c-0.262,0.759-1.391,0.942-2.621,0.444
			c-1.238-0.545-1.975-1.515-1.721-2.274C562.521,264.06,563.664,263.885,564.863,264.383"/>
		<path fill="#FFFFFF" d="M564.667,284.102c1.223,0.529,1.975,1.647,1.738,2.621c-0.285,0.978-1.467,1.343-2.742,0.833
			c-1.271-0.538-2.018-1.687-1.734-2.665C562.246,283.938,563.414,283.603,564.667,284.102"/>
		<path fill="#FFFFFF" d="M565.787,280.02c1.33,0.573,2.145,1.76,1.893,2.757c-0.277,1.009-1.547,1.371-2.91,0.814
			c-1.369-0.584-2.188-1.799-1.908-2.816C563.183,279.798,564.453,279.475,565.787,280.02"/>
		<path fill="#FFFFFF" d="M566.783,276.184c1.43,0.623,2.316,1.873,2.066,2.913c-0.303,1.036-1.646,1.383-3.113,0.779
			c-1.488-0.639-2.383-1.92-2.072-2.968C563.998,275.9,565.341,275.584,566.783,276.184"/>
		<path fill="#FFFFFF" d="M567.81,272.593c1.375,0.619,2.258,1.799,2.016,2.765c-0.27,0.977-1.559,1.266-2.998,0.682
			c-1.436-0.627-2.299-1.838-2.027-2.816C565.117,272.282,566.417,272.021,567.81,272.593"/>
		<path fill="#FFFFFF" d="M568.687,269.485c1.207,0.533,1.975,1.562,1.779,2.375c-0.236,0.814-1.354,1.04-2.602,0.506
			c-1.246-0.541-2.018-1.581-1.787-2.406C566.347,269.17,567.464,268.963,568.687,269.485"/>
		<path fill="#FFFFFF" d="M569.695,266.33c1.312,0.589,2.146,1.671,1.939,2.512c-0.236,0.849-1.439,1.067-2.797,0.491
			c-1.33-0.596-2.188-1.713-1.936-2.555C567.183,265.953,568.382,265.77,569.695,266.33"/>
		<path fill="#FFFFFF" d="M570.564,263.46c1.266,0.577,2.088,1.616,1.896,2.407c-0.229,0.791-1.387,0.962-2.688,0.401
			c-1.312-0.588-2.137-1.648-1.908-2.438C568.126,263.063,569.294,262.911,570.564,263.46"/>
		<path fill="#FFFFFF" d="M580.5,262.494c0.834,0.417,1.418,1.11,1.354,1.628c-0.107,0.51-0.834,0.596-1.699,0.195
			c-0.869-0.409-1.441-1.129-1.357-1.635C578.917,262.171,579.642,262.097,580.5,262.494"/>
		<path fill="#FFFFFF" d="M581.083,260.188c0.77,0.382,1.311,1.005,1.246,1.465c-0.098,0.444-0.748,0.518-1.539,0.14
			c-0.793-0.378-1.33-1.021-1.246-1.477C579.656,259.873,580.3,259.819,581.083,260.188"/>
		<path fill="#FFFFFF" d="M581.671,258.031c0.67,0.335,1.133,0.868,1.082,1.257c-0.078,0.37-0.65,0.409-1.336,0.086
			c-0.67-0.324-1.148-0.877-1.07-1.255C580.433,257.751,580.994,257.72,581.671,258.031"/>
		<path fill="#FFFFFF" d="M582.201,255.963c0.604,0.304,1.027,0.736,0.979,1.106c-0.082,0.378-0.576,0.358-1.195,0.066
			c-0.604-0.304-1.039-0.752-0.988-1.118C581.083,255.647,581.593,255.671,582.201,255.963"/>
		<path fill="#FFFFFF" d="M582.701,254.09c0.561,0.28,0.965,0.673,0.906,1.02c-0.062,0.335-0.529,0.304-1.092,0.02
			c-0.574-0.284-0.977-0.682-0.922-1.017C581.671,253.786,582.136,253.817,582.701,254.09"/>
		<path fill="#FFFFFF" d="M583.152,252.302c0.498,0.256,0.859,0.592,0.812,0.888c-0.055,0.292-0.463,0.26-0.977,0.007
			c-0.498-0.257-0.854-0.592-0.801-0.896C582.255,252.018,582.667,252.061,583.152,252.302"/>
		<path fill="#FFFFFF" d="M583.556,250.794c0.465,0.238,0.791,0.553,0.756,0.814c-0.055,0.269-0.432,0.214-0.898-0.012
			c-0.467-0.237-0.789-0.553-0.744-0.81C582.72,250.522,583.097,250.565,583.556,250.794"/>
		<path fill="#FFFFFF" d="M583.978,249.268c0.4,0.207,0.691,0.479,0.67,0.705c-0.055,0.226-0.379,0.184-0.785-0.023
			c-0.406-0.218-0.695-0.487-0.664-0.717C583.242,249.007,583.564,249.062,583.978,249.268"/>
		<path fill="#FFFFFF" d="M574.912,291.75c-0.904-0.4-1.479-1.277-1.346-2.017c0.172-0.724,0.975-0.974,1.861-0.604
			c0.889,0.413,1.465,1.254,1.346,1.994C576.621,291.872,575.818,292.132,574.912,291.75"/>
		<path fill="#FFFFFF" d="M574.103,296.467c-0.863-0.382-1.416-1.239-1.275-1.975c0.17-0.728,0.941-0.997,1.799-0.65
			c0.846,0.377,1.398,1.223,1.27,1.962C575.744,296.541,574.974,296.821,574.103,296.467"/>
		<path fill="#FFFFFF" d="M573.357,301.472c-0.854-0.378-1.389-1.25-1.236-2.018c0.178-0.748,0.936-1.04,1.793-0.689
			c0.832,0.367,1.363,1.213,1.23,1.969C574.984,301.503,574.218,301.817,573.357,301.472"/>
		<path fill="#FFFFFF" d="M572.699,306.878c-0.791-0.339-1.289-1.184-1.139-1.928c0.176-0.74,0.9-1.057,1.691-0.729
			c0.777,0.334,1.266,1.148,1.137,1.908C574.236,306.866,573.507,307.2,572.699,306.878"/>
		<path fill="#FFFFFF" d="M571.81,312.763c-0.748-0.314-1.201-1.117-1.051-1.865c0.174-0.729,0.855-1.051,1.59-0.76
			c0.738,0.315,1.195,1.105,1.066,1.842C573.251,312.703,572.558,313.039,571.81,312.763"/>
		<path fill="#FFFFFF" d="M570.875,319.444c-0.691-0.283-1.102-1.059-0.949-1.799c0.164-0.713,0.814-1.047,1.508-0.781
			c0.688,0.283,1.102,1.043,0.975,1.768C572.242,319.356,571.582,319.719,570.875,319.444"/>
		<path fill="#FFFFFF" d="M566,261.61c1.148,0.506,1.885,1.429,1.68,2.134c-0.232,0.701-1.32,0.865-2.523,0.366
			c-1.189-0.518-1.912-1.464-1.688-2.166C563.742,261.252,564.832,261.111,566,261.61"/>
		<path fill="#FFFFFF" d="M563.701,267.6c0.998,0.437,1.617,1.242,1.422,1.904c-0.213,0.639-1.156,0.826-2.186,0.413
			c-1.02-0.432-1.639-1.265-1.432-1.928C561.753,267.362,562.697,267.191,563.701,267.6"/>
		<path fill="#FFFFFF" d="M562.675,270.731c1.141,0.487,1.832,1.445,1.615,2.22c-0.262,0.771-1.354,0.997-2.537,0.53
			c-1.184-0.499-1.865-1.461-1.611-2.24C560.435,270.482,561.525,270.264,562.675,270.731"/>
		<path fill="#FFFFFF" d="M558.88,281.968c1.129,0.463,1.791,1.46,1.543,2.329c-0.293,0.868-1.412,1.192-2.578,0.748
			c-1.16-0.476-1.822-1.507-1.539-2.372C556.628,281.828,557.736,281.523,558.88,281.968"/>
		<path fill="#FFFFFF" d="M547.886,251.5c1.047,0.397,1.623,1.118,1.332,1.667c-0.324,0.542-1.395,0.662-2.494,0.273
			c-1.078-0.413-1.666-1.126-1.342-1.679C545.74,251.227,546.816,251.11,547.886,251.5"/>
		<path fill="#FFFFFF" d="M547.867,294.126c1.113,0.42,1.697,1.449,1.371,2.403c-0.365,0.943-1.516,1.375-2.664,0.966
			c-1.15-0.424-1.734-1.488-1.375-2.45C545.599,294.126,546.738,293.721,547.867,294.126"/>
		<path fill="#FFFFFF" d="M540.173,297.484c1.127,0.409,1.68,1.436,1.289,2.416c-0.424,0.974-1.627,1.44-2.795,1.052
			c-1.148-0.401-1.705-1.472-1.281-2.451C537.833,297.546,539.033,297.117,540.173,297.484"/>
		<path fill="#FFFFFF" d="M555.863,291.21c1.168,0.478,1.83,1.558,1.533,2.542c-0.336,0.978-1.482,1.379-2.695,0.935
			c-1.191-0.475-1.854-1.593-1.525-2.578C553.529,291.155,554.689,290.773,555.863,291.21"/>
		<path fill="#FFFFFF" d="M563.304,288.826c1.107,0.468,1.77,1.496,1.539,2.415c-0.27,0.904-1.332,1.27-2.473,0.826
			c-1.137-0.479-1.801-1.538-1.539-2.461C561.126,288.717,562.187,288.394,563.304,288.826"/>
		<path fill="#FFFFFF" d="M570.171,286.497c1.16,0.51,1.9,1.601,1.701,2.547c-0.238,0.954-1.309,1.301-2.512,0.81
			c-1.203-0.529-1.93-1.647-1.713-2.602C567.908,286.333,568.992,286.01,570.171,286.497"/>
		<path fill="#FFFFFF" d="M560.173,278.014c1.047,0.44,1.68,1.352,1.453,2.119c-0.262,0.771-1.293,1.044-2.373,0.631
			c-1.074-0.456-1.705-1.386-1.451-2.158C558.093,277.851,559.111,277.602,560.173,278.014"/>
		<path fill="#FFFFFF" d="M571.994,258.456c0.924,0.436,1.539,1.18,1.41,1.71c-0.152,0.545-0.996,0.631-1.951,0.207
			c-0.967-0.44-1.574-1.192-1.434-1.733C570.207,258.109,571.05,258.031,571.994,258.456"/>
		<path fill="#FFFFFF" d="M552.835,253.603c0.846,0.334,1.312,0.93,1.1,1.386c-0.242,0.444-1.074,0.518-1.932,0.194
			c-0.854-0.346-1.32-0.942-1.096-1.397C551.158,253.35,551.996,253.275,552.835,253.603"/>
		<path fill="#FFFFFF" d="M557.474,268.944c0.908,0.377,1.445,1.094,1.234,1.698c-0.236,0.588-1.113,0.771-2.057,0.417
			c-0.924-0.371-1.465-1.118-1.238-1.718C555.667,268.761,556.562,268.585,557.474,268.944"/>
		<path fill="#FFFFFF" d="M551.498,284.121c1.146,0.456,1.785,1.464,1.471,2.356c-0.334,0.888-1.496,1.243-2.688,0.807
			c-1.184-0.452-1.818-1.48-1.484-2.368C549.164,284.047,550.335,283.701,551.498,284.121"/>
		<path fill="#FFFFFF" d="M561.373,274.49c1.02,0.437,1.635,1.301,1.422,2.029c-0.248,0.712-1.227,0.95-2.275,0.529
			c-1.051-0.437-1.658-1.312-1.428-2.037C559.359,274.307,560.333,274.088,561.373,274.49"/>
		<path fill="#FFFFFF" d="M550.671,270.245c1.07,0.409,1.67,1.242,1.387,1.951c-0.316,0.706-1.387,0.939-2.492,0.553
			c-1.092-0.417-1.691-1.262-1.389-1.962C548.513,270.093,549.595,269.867,550.671,270.245"/>
		<path fill="#FFFFFF" d="M533.5,301.047c0.797,0.272,1.16,0.998,0.844,1.69c-0.346,0.705-1.227,1.062-2.053,0.811
			c-0.797-0.265-1.156-1.017-0.82-1.718C531.833,301.138,532.708,300.81,533.5,301.047"/>
		<path fill="#FFFFFF" d="M554.937,260.621c0.977,0.389,1.539,1.117,1.311,1.69c-0.256,0.577-1.211,0.729-2.209,0.347
			c-0.996-0.389-1.557-1.114-1.312-1.698C553.011,260.407,553.964,260.267,554.937,260.621"/>
		<path fill="#FFFFFF" d="M576.324,260.559c0.826,0.401,1.383,1.071,1.293,1.558c-0.121,0.499-0.855,0.573-1.701,0.195
			c-0.846-0.397-1.41-1.079-1.289-1.577C574.759,260.254,575.484,260.177,576.324,260.559"/>
		<path fill="#FFFFFF" d="M564.107,252.812c0.631,0.214,1.047,0.65,0.984,0.985c-0.078,0.335-0.627,0.433-1.277,0.214
			c-0.643-0.226-1.062-0.662-0.988-1.009C562.927,252.68,563.476,252.594,564.107,252.812"/>
		<path fill="#FFFFFF" d="M557.455,255.355c0.736,0.304,1.18,0.846,1.018,1.258c-0.184,0.401-0.912,0.487-1.668,0.194
			c-0.76-0.315-1.191-0.856-1.02-1.269C555.992,255.149,556.703,255.067,557.455,255.355"/>
		<path fill="#FFFFFF" d="M556.021,272.531c0.936,0.377,1.477,1.133,1.258,1.784c-0.248,0.643-1.168,0.845-2.135,0.491
			c-0.967-0.378-1.516-1.161-1.27-1.811C554.148,272.367,555.068,272.176,556.021,272.531"/>
		<path fill="#FFFFFF" d="M552.208,267.082c0.834,0.324,1.312,0.974,1.096,1.503c-0.238,0.522-1.076,0.693-1.928,0.378
			c-0.857-0.324-1.338-0.974-1.104-1.503C550.519,266.938,551.365,266.778,552.208,267.082"/>
		<path fill="#FFFFFF" d="M545.07,268.5c0.984,0.343,1.516,1.083,1.227,1.714c-0.314,0.623-1.324,0.846-2.34,0.518
			c-1.012-0.354-1.543-1.095-1.24-1.737C543.052,268.391,544.074,268.161,545.07,268.5"/>
		<path fill="#FFFFFF" d="M541.222,252.758c0.822,0.256,1.26,0.787,1.01,1.211c-0.27,0.42-1.117,0.564-1.975,0.315
			c-0.834-0.272-1.273-0.791-1.018-1.227C539.531,252.637,540.388,252.505,541.222,252.758"/>
		<path fill="#FFFFFF" d="M565.103,250.631c0.67,0.25,1.139,0.706,1.061,1.063c-0.086,0.347-0.682,0.433-1.375,0.195
			c-0.693-0.249-1.148-0.717-1.074-1.063C563.814,250.479,564.412,250.393,565.103,250.631"/>
		<path fill="#FFFFFF" d="M567.671,256.625c0.832,0.378,1.363,1.028,1.234,1.507c-0.172,0.463-0.943,0.537-1.799,0.171
			c-0.855-0.378-1.389-1.04-1.236-1.515C566.054,256.321,566.826,256.267,567.671,256.625"/>
		<path fill="#FFFFFF" d="M568.558,254.296c0.748,0.347,1.225,0.931,1.125,1.344c-0.115,0.408-0.777,0.456-1.537,0.12
			c-0.744-0.347-1.23-0.935-1.127-1.355C567.16,254,567.822,253.961,568.558,254.296"/>
		<path fill="#FFFFFF" d="M558.634,265.922c0.803,0.334,1.268,0.954,1.092,1.464c-0.193,0.499-0.959,0.639-1.771,0.323
			c-0.814-0.334-1.281-0.966-1.1-1.472C557.062,265.747,557.832,265.606,558.634,265.922"/>
		<path fill="#FFFFFF" d="M562.218,257.427c0.662,0.28,1.057,0.768,0.936,1.149c-0.152,0.358-0.771,0.432-1.441,0.163
			c-0.662-0.296-1.062-0.783-0.93-1.161C560.945,257.221,561.568,257.143,562.218,257.427"/>
		<path fill="#FFFFFF" d="M553.054,280.191c0.814,0.315,1.27,1.009,1.062,1.612c-0.24,0.596-1.051,0.814-1.877,0.511
			c-0.834-0.324-1.285-1.032-1.061-1.624C551.417,280.102,552.228,279.888,553.054,280.191"/>
		<path fill="#FFFFFF" d="M566.662,259.421c0.588,0.257,0.947,0.713,0.846,1.048c-0.121,0.327-0.65,0.401-1.234,0.152
			c-0.596-0.261-0.953-0.725-0.846-1.06C565.544,259.227,566.089,259.168,566.662,259.421"/>
		<path fill="#FFFFFF" d="M572.546,256.278c0.662,0.315,1.094,0.833,1.027,1.211c-0.084,0.371-0.668,0.425-1.332,0.121
			c-0.67-0.323-1.117-0.857-1.027-1.238C571.32,256.018,571.888,255.963,572.546,256.278"/>
		<path fill="#FFFFFF" d="M528.435,242.702c0.707,0.183,1.029,0.541,0.773,0.852c-0.273,0.296-1.029,0.405-1.746,0.242
			c-0.705-0.183-1.041-0.529-0.768-0.845C526.972,242.647,527.742,242.538,528.435,242.702"/>
		<path fill="#FFFFFF" d="M549.759,258.899c0.82,0.3,1.271,0.888,1.062,1.355c-0.242,0.457-1.047,0.584-1.891,0.292
			c-0.832-0.304-1.271-0.88-1.047-1.355C548.128,258.748,548.949,258.619,549.759,258.899"/>
		<path fill="#FFFFFF" d="M531.945,246.697c0.781,0.223,1.148,0.65,0.873,1.021c-0.297,0.347-1.131,0.456-1.922,0.25
			c-0.781-0.214-1.16-0.639-0.863-1.009C530.337,246.616,531.181,246.495,531.945,246.697"/>
		<path fill="#FFFFFF" d="M539.33,266.724c0.918,0.288,1.383,0.938,1.102,1.507c-0.314,0.548-1.275,0.763-2.219,0.487
			c-0.947-0.292-1.434-0.947-1.119-1.507C537.429,266.658,538.394,266.44,539.33,266.724"/>
		<path fill="#FFFFFF" d="M523.791,241.619c0.605,0.129,0.887,0.409,0.648,0.682c-0.26,0.249-0.945,0.37-1.568,0.249
			c-0.619-0.117-0.912-0.401-0.65-0.673C522.478,241.619,523.16,241.51,523.791,241.619"/>
		<path fill="#FFFFFF" d="M544.14,247.663c0.615,0.238,0.93,0.639,0.744,0.943c-0.203,0.281-0.848,0.338-1.475,0.117
			c-0.631-0.234-0.965-0.623-0.756-0.927C542.871,247.5,543.509,247.449,544.14,247.663"/>
		<path fill="#FFFFFF" d="M531.73,306.204c0.736,0.249,1.039,0.941,0.717,1.636c-0.338,0.675-1.172,1.028-1.916,0.794
			c-0.75-0.252-1.057-0.966-0.729-1.658C530.162,306.306,530.994,305.967,531.73,306.204"/>
		<path fill="#FFFFFF" d="M526.107,309.349c0.65,0.205,0.91,0.801,0.619,1.396c-0.314,0.584-1.062,0.898-1.725,0.705
			c-0.672-0.195-0.932-0.803-0.625-1.41C524.701,309.467,525.445,309.164,526.107,309.349"/>
		<path fill="#FFFFFF" d="M546.001,299.235c0.832,0.315,1.279,1.117,1.008,1.877c-0.305,0.748-1.172,1.096-2.037,0.8
			c-0.852-0.32-1.277-1.146-0.996-1.905C544.275,299.271,545.156,298.948,546.001,299.235"/>
		<path fill="#FFFFFF" d="M538.292,302.823c0.85,0.326,1.283,1.129,1.014,1.873c-0.291,0.764-1.168,1.099-2.029,0.807
			c-0.854-0.316-1.273-1.143-0.996-1.896C536.576,302.866,537.46,302.531,538.292,302.823"/>
		<path fill="#FFFFFF" d="M546.712,265.369c0.619,0.226,0.967,0.685,0.797,1.063c-0.195,0.377-0.834,0.506-1.467,0.292
			c-0.639-0.23-0.973-0.682-0.789-1.063C545.453,265.283,546.085,265.15,546.712,265.369"/>
		<path fill="#FFFFFF" d="M562.218,247.543c0.533,0.195,0.881,0.521,0.814,0.814c-0.105,0.284-0.574,0.303-1.104,0.109
			c-0.545-0.195-0.902-0.518-0.812-0.814C561.22,247.372,561.687,247.348,562.218,247.543"/>
		<path fill="#FFFFFF" d="M554.16,296.397c0.713,0.284,1.105,0.966,0.908,1.604c-0.215,0.611-0.92,0.889-1.656,0.631
			c-0.717-0.292-1.113-0.985-0.91-1.627C552.718,296.397,553.447,296.14,554.16,296.397"/>
		<path fill="#FFFFFF" d="M561.765,293.55c0.684,0.285,1.072,0.931,0.92,1.508c-0.172,0.572-0.82,0.809-1.514,0.553
			c-0.682-0.293-1.072-0.943-0.912-1.532C560.445,293.507,561.097,293.282,561.765,293.55"/>
		<path fill="#FFFFFF" d="M568.839,291.728c0.639,0.272,1.039,0.892,0.922,1.433c-0.129,0.529-0.738,0.744-1.391,0.487
			c-0.646-0.28-1.035-0.911-0.906-1.453C567.609,291.665,568.201,291.47,568.839,291.728"/>
		<path fill="#FFFFFF" d="M548.914,249.638c0.475,0.19,0.752,0.518,0.607,0.763c-0.162,0.253-0.648,0.273-1.148,0.089
			c-0.486-0.202-0.756-0.529-0.607-0.778C547.929,249.475,548.416,249.443,548.914,249.638"/>
		<path fill="#FFFFFF" d="M533.136,265.322c0.619,0.175,0.936,0.577,0.723,0.947c-0.23,0.358-0.893,0.51-1.52,0.347
			c-0.627-0.175-0.932-0.573-0.719-0.955C531.851,265.314,532.513,265.162,533.136,265.322"/>
		<path fill="#FFFFFF" d="M537.324,269.649c0.744,0.238,1.133,0.767,0.889,1.246c-0.273,0.475-1.053,0.662-1.822,0.44
			c-0.76-0.234-1.139-0.775-0.885-1.254C535.773,269.614,536.562,269.431,537.324,269.649"/>
		<path fill="#FFFFFF" d="M543.216,272.055c0.662,0.227,1.008,0.725,0.812,1.168c-0.227,0.421-0.898,0.584-1.584,0.367
			c-0.67-0.227-1.018-0.732-0.799-1.168C541.861,271.998,542.546,271.833,543.216,272.055"/>
		<path fill="#FFFFFF" d="M549.003,274.155c0.592,0.218,0.908,0.686,0.744,1.083c-0.172,0.389-0.768,0.533-1.363,0.338
			c-0.596-0.226-0.908-0.693-0.748-1.098C547.832,274.088,548.416,273.948,549.003,274.155"/>
		<path fill="#FFFFFF" d="M554.539,276.289c0.576,0.23,0.891,0.693,0.746,1.106c-0.15,0.401-0.715,0.542-1.299,0.328
			c-0.574-0.234-0.9-0.717-0.762-1.118C553.4,276.204,553.964,276.075,554.539,276.289"/>
		<path fill="#FFFFFF" d="M566,248.867c0.521,0.184,0.875,0.499,0.812,0.779c-0.072,0.295-0.51,0.315-1.025,0.132
			c-0.52-0.195-0.877-0.51-0.822-0.791C565.046,248.704,565.482,248.68,566,248.867"/>
		<path fill="#FFFFFF" d="M563.207,245.833c0.465,0.171,0.779,0.456,0.719,0.713c-0.07,0.261-0.457,0.272-0.924,0.101
			c-0.469-0.188-0.791-0.468-0.725-0.724C562.351,245.67,562.744,245.65,563.207,245.833"/>
		<path fill="#FFFFFF" d="M560.294,243.2c0.408,0.16,0.701,0.413,0.658,0.639c-0.066,0.237-0.426,0.26-0.846,0.109
			c-0.412-0.152-0.705-0.413-0.658-0.639C559.511,243.068,559.871,243.056,560.294,243.2"/>
		<path fill="#FFFFFF" d="M569.232,252.422c0.551,0.257,0.908,0.651,0.834,0.97c-0.1,0.328-0.576,0.328-1.127,0.071
			c-0.557-0.265-0.934-0.663-0.846-0.989C568.201,252.162,568.675,252.162,569.232,252.422"/>
		<path fill="#FFFFFF" d="M531.232,268.11c0.631,0.171,0.947,0.596,0.725,0.985c-0.244,0.378-0.92,0.541-1.568,0.378
			c-0.65-0.171-0.955-0.592-0.727-0.985C529.912,268.11,530.582,267.947,531.232,268.11"/>
		<path fill="#FFFFFF" d="M525.535,266.743c0.604,0.145,0.887,0.51,0.674,0.857c-0.254,0.347-0.904,0.51-1.52,0.389
			c-0.607-0.152-0.889-0.51-0.658-0.865C524.277,266.786,524.925,266.615,525.535,266.743"/>
		<path fill="#FFFFFF" d="M573.345,263.137c-0.146,0.651,0.447,1.503,1.434,2.111c-1.16-0.343-2.104-0.128-2.316,0.62
			c-0.152,0.646,0.312,1.46,1.156,2.134c-0.975-0.152-1.73,0.128-1.928,0.81c-0.195,0.814,0.467,1.823,1.592,2.54
			c-1.223-0.323-2.219-0.035-2.469,0.81c-0.176,0.717,0.262,1.574,1.074,2.274c-0.977-0.082-1.725,0.272-1.932,1.021
			c-0.207,0.822,0.328,1.807,1.289,2.57c-1.125-0.152-2.014,0.234-2.254,1.102c-0.271,1.157,0.729,2.602,2.32,3.314
			c1.301,0.545,2.469,0.381,3.029-0.315c0.188,1.024,1.098,2.096,2.367,2.668c1.104,0.475,2.076,0.424,2.676-0.055
			c0.355,0.904,1.182,1.768,2.252,2.267c1.082,0.475,2.037,0.42,2.602-0.066c0.379,0.911,1.199,1.788,2.268,2.286
			c1.104,0.498,2.043,0.424,2.562-0.121c0.369,0.954,1.223,1.877,2.297,2.407c1.508,0.693,2.713,0.272,2.809-0.954
			c0.031-0.931-0.588-1.994-1.525-2.777c0.98,0.144,1.666-0.257,1.732-1.134c0.029-0.813-0.479-1.725-1.293-2.461
			c0.857,0.066,1.434-0.304,1.477-1.063c0.029-0.907-0.719-1.994-1.799-2.726c1.117,0.324,1.918,0.007,1.971-0.845
			c0.021-0.74-0.52-1.616-1.363-2.298c0.875,0.14,1.465-0.164,1.506-0.857c0.021-0.802-0.715-1.811-1.766-2.492
			c0.965,0.304,1.652,0.085,1.699-0.608c0.023-0.786-0.85-1.818-1.994-2.391c-1.004-0.479-1.828-0.438-2.104,0.082
			c-0.172-0.725-0.941-1.558-1.938-2.056c-0.975-0.456-1.783-0.433-2.119,0c-0.211-0.771-1.023-1.636-2.105-2.166
			c-1.105-0.522-2.061-0.479-2.439,0.031c-0.172-0.682-0.896-1.476-1.893-1.939c-1.203-0.553-2.248-0.487-2.418,0.261
			c0.141-0.748-0.725-1.722-1.939-2.297C574.638,262.28,573.554,262.401,573.345,263.137 M589.425,285.099
			c0.578,0.281,0.998,0.853,0.979,1.321c-0.055,0.467-0.541,0.619-1.141,0.334c-0.594-0.277-1.006-0.853-0.975-1.32
			C588.343,284.967,588.833,284.83,589.425,285.099z M584.781,283.019c0.516,0.257,0.887,0.755,0.84,1.168
			c-0.051,0.401-0.506,0.533-1.035,0.296c-0.531-0.253-0.9-0.759-0.857-1.172C583.791,282.91,584.25,282.79,584.781,283.019z
			 M580.068,280.873c0.541,0.238,0.895,0.736,0.844,1.149c-0.076,0.401-0.541,0.53-1.086,0.28c-0.541-0.249-0.908-0.748-0.846-1.145
			C579.07,280.752,579.539,280.632,580.068,280.873z M575.873,279.755c-0.109,0.447-0.65,0.588-1.268,0.327
			c-0.617-0.296-1.031-0.846-0.934-1.301c0.107-0.432,0.662-0.572,1.27-0.304C575.56,278.75,575.947,279.299,575.873,279.755z
			 M589.906,281.839c0.498,0.246,0.875,0.736,0.854,1.126c-0.045,0.401-0.469,0.506-0.986,0.268
			c-0.518-0.245-0.889-0.744-0.855-1.137C588.958,281.707,589.384,281.598,589.906,281.839z M575.634,275.249
			c0.531,0.253,0.889,0.725,0.812,1.106c-0.074,0.377-0.562,0.486-1.107,0.249c-0.541-0.249-0.887-0.725-0.811-1.103
			C574.626,275.121,575.093,275.023,575.634,275.249z M590.197,278.435c0.5,0.241,0.857,0.713,0.834,1.075
			c-0.031,0.366-0.443,0.471-0.953,0.237c-0.5-0.249-0.865-0.724-0.834-1.082C589.285,278.295,589.699,278.197,590.197,278.435z
			 M576.324,271.985c0.521,0.241,0.873,0.698,0.803,1.044c-0.07,0.358-0.537,0.444-1.059,0.214c-0.529-0.234-0.877-0.689-0.803-1.06
			C575.351,271.849,575.806,271.76,576.324,271.985z M590.455,275.249c0.486,0.238,0.844,0.674,0.824,1.028
			c-0.029,0.37-0.432,0.436-0.918,0.207c-0.5-0.249-0.848-0.674-0.826-1.04C589.578,275.085,589.966,275.023,590.455,275.249z
			 M576.986,268.921c0.498,0.237,0.834,0.65,0.781,1.008c-0.084,0.347-0.52,0.401-1.027,0.183c-0.521-0.246-0.855-0.658-0.793-1.017
			C576.037,268.761,576.48,268.706,576.986,268.921z M590.562,271.966c0.521,0.26,0.9,0.74,0.891,1.094
			c-0.033,0.358-0.465,0.432-0.998,0.183c-0.531-0.261-0.908-0.732-0.889-1.095C589.609,271.791,590.033,271.717,590.562,271.966z
			 M586.404,270.05c0.479,0.226,0.812,0.615,0.781,0.951c-0.047,0.335-0.436,0.381-0.91,0.163c-0.479-0.237-0.824-0.627-0.779-0.961
			C585.539,269.867,585.929,269.82,586.404,270.05z M582.201,268.056c0.486,0.226,0.812,0.615,0.768,0.95
			c-0.055,0.327-0.463,0.374-0.938,0.152c-0.49-0.237-0.826-0.623-0.771-0.962C581.322,267.873,581.722,267.837,582.201,268.056z
			 M577.625,265.843c0.543,0.261,0.924,0.717,0.857,1.063c-0.074,0.347-0.549,0.409-1.115,0.164
			c-0.539-0.261-0.91-0.717-0.844-1.063C576.609,265.661,577.087,265.594,577.625,265.843z"/>
	</g>
</g>
</svg>
