<?xml version="1.0" encoding="utf-8"?>
<!-- Generator: Adobe Illustrator 16.0.0, SVG Export Plug-In . SVG Version: 6.00 Build 0)  -->
<!DOCTYPE svg PUBLIC "-//W3C//DTD SVG 1.1//EN" "http://www.w3.org/Graphics/SVG/1.1/DTD/svg11.dtd">
<svg version="1.1" id="Layer_1" xmlns="http://www.w3.org/2000/svg" xmlns:xlink="http://www.w3.org/1999/xlink" x="0px" y="0px"
	 width="187.086px" height="175.854px" viewBox="265.835 272.452 187.086 175.854"
	 enable-background="new 265.835 272.452 187.086 175.854" xml:space="preserve">
<g>
	<path d="M413.382,444.467c2.931,0,3.907-1.188,4.256-3.559l3.756-28.89c0.614-3.77,1.758-4.674,3.184-5.819l23.623-17.48
		c1.396-1.117,2.686-3.078,2.982-4.68c1.142-5.838,1.738-11.871,1.738-18.045c0-51.661-41.881-93.542-93.543-93.542
		s-93.543,41.882-93.543,93.542c0,6.174,0.598,12.207,1.739,18.045c0.297,1.602,1.588,3.562,2.983,4.68l23.623,17.48
		c1.426,1.146,2.568,2.051,3.183,5.819l3.754,28.89c0.35,2.371,1.326,3.559,4.257,3.559h25.118v-15.072h-7.117
		c-5.582,0-8.443-0.559-9.28-6.977l-1.883-13.117c-0.558-3.629,1.116-6.699,7.256-1.955c7.729,5.976,23.444,17.025,23.444,17.025
		c2.511,1.674,3.628,5.023-1.396,5.023h-11.023v15.071h16.604c4.326,2.931,7.396,3.838,12.142,3.838l0.068-15.211
		c-2.512,0-4.952-2.022-7.186-3.698l-64.749-47.863c-5.443-4.467-6.419-6.838-6.361-15.537c0-1.826,0.062-3.639,0.186-5.43
		c0.086-1.255,0.2-2.498,0.343-3.729c1.088-3.772,3.46-6.842,8.902-1.121l50.305,53.027c0.698,0.838,2.024-0.07,0.977-1.256
		l-53.026-61.19c-2.302-2.583-3.558-4.257-1.392-11.124c1.651-3.854,3.276-7.507,5.927-10.437c1.149-1.051,5.791-6.559,9.35-0.14
		l43.467,79.473c0.63,1.133,2.024,0.418,1.465-0.771l-42.84-85.68c-2.233-4.814-0.961-6.479,0-7.675
		c1.256-1.674,8.932-7.883,12.979-10.326c3.858-2.058,7.072-3.942,8.651,2.232l26.514,99.008c0.348,1.465,1.813,1.186,1.535-0.349
		L331.05,297.385c-0.697-2.792,0.552-4.767,4.323-6.012c5.027-1.943,11.167-3.478,16.33-3.338c3.349,0,5.303,1.954,5.303,6.28
		l1.535,106.055c0.14,1.396,1.605,1.256,1.674,0l1.535-106.055c0-4.326,1.954-6.28,5.303-6.28c5.163-0.139,11.305,1.396,16.33,3.338
		c3.771,1.245,5.021,3.22,4.323,6.012L364.401,400.51c-0.279,1.533,1.188,1.812,1.534,0.349l26.515-99.008
		c1.579-6.174,4.793-4.29,8.65-2.232c4.048,2.442,11.724,8.651,12.979,10.326c0.962,1.196,2.233,2.861,0,7.675l-42.84,85.68
		c-0.56,1.188,0.835,1.902,1.466,0.771l43.468-79.473c3.56-6.419,8.201-0.911,9.351,0.14c2.65,2.93,4.276,6.582,5.928,10.437
		c2.166,6.867,0.91,8.541-1.393,11.124l-53.026,61.19c-1.047,1.186,0.278,2.094,0.977,1.256l50.307-53.027
		c5.441-5.721,7.813-2.651,8.901,1.121c0.144,1.232,0.258,2.474,0.343,3.729c0.12,1.791,0.188,3.604,0.188,5.43
		c0.058,8.699-0.92,11.07-6.361,15.537l-64.749,47.863c-2.232,1.676-4.814,3.698-7.327,3.698l-0.068,15.211
		c4.745,0,8.093-0.907,12.419-3.838h13.954v-15.071h-8.373c-5.023,0-3.907-3.351-1.396-5.023c0,0,15.717-11.051,23.444-17.025
		c6.14-4.744,7.814-1.674,7.257,1.955l-1.885,13.117c-0.838,6.418-3.697,6.977-9.279,6.977h-9.769v15.072h27.769V444.467z"/>
</g>
</svg>
