<?xml version="1.0" encoding="utf-8"?>
<!-- Generator: Adobe Illustrator 16.0.0, SVG Export Plug-In . SVG Version: 6.00 Build 0)  -->
<!DOCTYPE svg PUBLIC "-//W3C//DTD SVG 1.1//EN" "http://www.w3.org/Graphics/SVG/1.1/DTD/svg11.dtd">
<svg version="1.1" id="Layer_1" xmlns="http://www.w3.org/2000/svg" xmlns:xlink="http://www.w3.org/1999/xlink" x="0px" y="0px"
	 width="175.748px" height="32.816px" viewBox="271.505 343.971 175.748 32.816"
	 enable-background="new 271.505 343.971 175.748 32.816" xml:space="preserve">
<g>
	<path fill="#FFFFFF" d="M417.465,369.256l0.861,6.68h9.017l0.491,0.344c0.577,0.385,1.183,0.508,1.71,0.508
		c0.451,0,1.137-0.1,1.64-0.446l0.6-0.405h8.985l0.837-6.679l5.256-3.854c0.311-1.504,0.392-2.051,0.392-3.424
		c0-10.391-8.09-18.007-17.692-18.007c-10.024,0-17.687,8.059-17.687,18.007c0,1.525,0.146,2.094,0.422,3.461L417.465,369.256
		L417.465,369.256z"/>
	<path fill="#ED1C24" d="M412.824,365.08c-0.294-1.359-0.351-1.895-0.351-3.309c0-9.545,7.605-17.2,17.091-17.2
		c9.484,0,17.091,7.654,17.091,17.2c0,1.414-0.058,1.949-0.353,3.309l-5.265,3.845l-0.801,6.409h-8.673l-0.561,0.414
		c-0.414,0.3-0.963,0.441-1.459,0.441c-0.536,0-1.003-0.164-1.54-0.533l-0.466-0.322h-8.691l-0.815-6.409L412.824,365.08
		L412.824,365.08z"/>
	<path fill="#FFD400" d="M427.854,372.343l0.734,0.565c0.288,0.219,0.691,0.375,0.978,0.375c0.28,0,0.688-0.156,0.975-0.375
		l0.734-0.565h6.374l0.656-5.264l5.066-3.694c0.195-0.765,0.238-1.053,0.238-1.771c0-0.904-0.24-2.033-0.601-2.831l-0.016-0.036
		l-9.164,9.227l8.822-10.877c-0.352-1.535-1.042-2.757-2.122-3.758l-0.048-0.041l-7.938,13.78l6.984-15.064l-0.039-0.054
		c-0.916-1.233-2.063-2.057-3.576-2.565l-4.864,17.117l3.51-17.816c-1.046-0.593-2.297-0.918-3.575-0.918
		c-0.353,0-0.476,0.008-0.794,0.048l-0.651,18.53l-0.837-18.522c-0.345-0.034-0.47-0.041-0.747-0.041
		c-1.229-0.002-2.344,0.296-3.505,0.932l-0.071,0.041l3.692,17.78l-4.878-17.13c-1.565,0.527-2.841,1.437-3.624,2.593l7.047,15.02
		l-7.889-13.876c-1.1,0.891-1.979,2.344-2.336,3.85l8.867,11l-9.182-9.302l-0.021,0.041c-0.382,0.794-0.61,1.888-0.61,2.911
		c0,0.608,0.073,1.168,0.23,1.789l5.163,3.78l0.642,5.124L427.854,372.343L427.854,372.343z"/>
	<path fill="#005A9C" d="M282.683,367.035h-2.954l-0.699-4.137c-0.155-0.887-0.219-1.57-0.233-2.689
		c-0.342,1.15-0.466,1.54-0.855,2.475l-1.773,4.353h-2.814l-1.85-10.371h2.644l0.653,3.888c0.217,1.243,0.28,1.836,0.373,3.404
		c0.312-1.118,0.28-1.01,0.839-2.425l1.976-4.867h2.473l0.777,4.446c0.108,0.639,0.202,1.556,0.28,2.846
		c0.296-1.01,0.296-1.01,0.823-2.316l1.976-4.976h2.83L282.683,367.035L282.683,367.035z"/>
	<path fill="#005A9C" d="M290.659,361.902c0.84,0,1.368,0.562,1.368,1.433c0,1.088-0.684,1.88-1.617,1.88
		c-0.855,0-1.399-0.559-1.399-1.461C289.011,362.697,289.726,361.902,290.659,361.902L290.659,361.902z M294.888,360.086h-2.566
		v0.791c-0.776-0.762-1.29-0.995-2.269-0.995c-2.1,0-3.655,1.726-3.655,4.043c0,2.021,1.136,3.312,2.892,3.312
		c0.965,0,1.586-0.247,2.364-0.963l-0.187,0.762h2.566L294.888,360.086L294.888,360.086z"/>
	<path fill="#005A9C" d="M300.25,367.035h-1.741l-2.72-6.949h2.675l0.776,2.113c0.155,0.404,0.296,0.869,0.513,1.727
		c0.359-0.73,0.669-1.275,1.012-1.805l1.321-2.035h2.845L300.25,367.035L300.25,367.035z"/>
	<path fill="#005A9C" d="M307.311,362.635c0.155-0.716,0.592-1.072,1.291-1.072c0.686,0,1.09,0.373,1.136,1.072H307.311
		L307.311,362.635z M312.333,364.081c0.015-0.312,0.031-0.544,0.031-0.716c0-2.129-1.384-3.483-3.562-3.483
		c-2.425,0-4.104,1.618-4.104,3.95c0,2.13,1.353,3.404,3.606,3.404c1.99,0,3.142-0.762,3.825-2.52h-2.799
		c-0.108,0.497-0.42,0.717-0.995,0.717c-0.825,0-1.197-0.422-1.197-1.354L312.333,364.081L312.333,364.081z"/>
	<path fill="#005A9C" d="M319.097,362.323c-0.716-0.466-1.135-0.606-1.694-0.606c-0.576,0-0.871,0.141-0.871,0.422
		c0,0.154,0.062,0.217,0.265,0.311c0.092,0.031-0.234-0.062,0.979,0.264c1.259,0.344,1.835,0.934,1.835,1.944
		c0,1.569-1.261,2.581-3.234,2.581c-1.136,0-2.006-0.28-3.188-1.057l0.935-1.695c1.024,0.668,1.461,0.822,2.223,0.822
		c0.529,0,0.886-0.186,0.886-0.479c0-0.156-0.093-0.267-0.295-0.343c-0.062-0.016,0.249,0.062-0.932-0.219
		c-1.291-0.312-1.851-0.933-1.851-2.021c0-1.446,1.197-2.395,2.97-2.395c0.871,0,1.647,0.217,2.597,0.715L319.097,362.323
		L319.097,362.323z"/>
	<path fill="#005A9C" d="M328.908,361.902c0.84,0,1.369,0.562,1.369,1.433c0,1.088-0.686,1.88-1.634,1.88
		c-0.854,0-1.398-0.559-1.398-1.461C327.244,362.697,327.959,361.902,328.908,361.902L328.908,361.902z M328.877,359.882
		c-2.488,0-4.245,1.54-4.245,3.702c0,2.191,1.678,3.652,4.184,3.652c2.409,0,4.072-1.569,4.072-3.824
		C332.889,361.283,331.287,359.882,328.877,359.882L328.877,359.882z"/>
	<path fill="#005A9C" d="M336.808,367.035h-2.55l0.606-4.977h-1.074l0.249-1.974h1.074l0.202-1.665c0.233-1.882,1.291-2.907,3-2.907
		c0.56,0,1.011,0.093,1.617,0.326l-0.265,2.192c-0.311-0.249-0.544-0.342-0.855-0.342c-0.605,0-0.886,0.342-0.994,1.167
		l-0.141,1.229h1.741l-0.249,1.974h-1.742L336.808,367.035L336.808,367.035z"/>
	<path fill="#005A9C" d="M349.152,362.525c-0.498-0.467-0.87-0.623-1.446-0.623c-0.917,0-1.617,0.795-1.617,1.82
		c0,0.901,0.561,1.491,1.4,1.491c0.512,0,0.839-0.123,1.398-0.526l-0.264,2.177c-0.872,0.294-1.244,0.372-1.82,0.372
		c-1.958,0-3.326-1.43-3.326-3.497c0-2.208,1.632-3.857,3.824-3.857c0.778,0,1.446,0.157,2.115,0.482L349.152,362.525
		L349.152,362.525z"/>
	<path fill="#005A9C" d="M353.583,360.706c0.854-0.605,1.461-0.824,2.239-0.824c1.477,0,2.301,0.856,2.301,2.379
		c0,0.296-0.031,0.778-0.094,1.229l-0.437,3.545h-2.564l0.342-2.783c0.093-0.686,0.108-0.87,0.108-1.136
		c0-0.761-0.296-1.104-0.934-1.104c-0.824,0-1.183,0.451-1.337,1.728l-0.405,3.296h-2.563l1.398-11.335h2.565L353.583,360.706
		L353.583,360.706z"/>
	<path fill="#005A9C" d="M367.11,367.035h-2.565l0.187-0.762c-0.777,0.716-1.399,0.963-2.363,0.963c-1.756,0-2.893-1.29-2.893-3.312
		c0-2.317,1.556-4.043,3.654-4.043c0.98,0,1.493,0.233,2.271,0.995v-0.791h2.564L367.11,367.035L367.11,367.035z M362.087,363.754
		c0,0.902,0.545,1.461,1.399,1.461c0.934,0,1.617-0.792,1.617-1.88c0-0.871-0.528-1.433-1.368-1.433
		C362.804,361.902,362.087,362.697,362.087,363.754L362.087,363.754z"/>
	<path fill="#005A9C" d="M372.18,360.986c0.948-0.824,1.569-1.104,2.519-1.104c1.398,0,2.191,0.763,2.191,2.115
		c0,0.296-0.029,0.747-0.077,1.119l-0.481,3.919h-2.564l0.389-3.062c0.03-0.266,0.047-0.606,0.047-0.855
		c0-0.715-0.326-1.104-0.949-1.104c-0.793,0-1.149,0.496-1.32,1.881l-0.39,3.142h-2.564l0.854-6.949h2.565L372.18,360.986
		L372.18,360.986z"/>
	<path fill="#005A9C" d="M385.908,366.521c-0.437,3.438-1.414,4.463-4.322,4.463c-2.363,0-3.452-0.87-3.716-2.969h2.439
		c0.095,0.59,0.561,0.947,1.275,0.947c1.011,0,1.478-0.468,1.617-1.587l0.141-1.073c-0.747,0.7-1.244,0.934-2.054,0.934
		c-1.865,0-3.062-1.336-3.062-3.437c0-2.301,1.445-3.918,3.498-3.918c0.995,0,1.647,0.327,2.364,1.197l0.047-0.993h2.55
		L385.908,366.521L385.908,366.521z M380.839,363.677c0,0.933,0.562,1.538,1.399,1.538c0.887,0,1.493-0.744,1.493-1.833
		c0-0.918-0.514-1.479-1.354-1.479C381.477,361.902,380.839,362.635,380.839,363.677L380.839,363.677z"/>
	<path fill="#005A9C" d="M390.386,362.635c0.155-0.716,0.591-1.072,1.29-1.072c0.686,0,1.089,0.373,1.136,1.072H390.386
		L390.386,362.635z M395.408,364.081c0.015-0.312,0.029-0.544,0.029-0.716c0-2.129-1.383-3.483-3.561-3.483
		c-2.426,0-4.104,1.618-4.104,3.95c0,2.13,1.352,3.404,3.605,3.404c1.99,0,3.141-0.762,3.825-2.52h-2.8
		c-0.108,0.497-0.419,0.717-0.994,0.717c-0.824,0-1.197-0.422-1.197-1.354L395.408,364.081L395.408,364.081z"/>
</g>
</svg>
