<?xml version="1.0" encoding="utf-8"?>
<!-- Generator: Adobe Illustrator 16.0.0, SVG Export Plug-In . SVG Version: 6.00 Build 0)  -->
<!DOCTYPE svg PUBLIC "-//W3C//DTD SVG 1.1//EN" "http://www.w3.org/Graphics/SVG/1.1/DTD/svg11.dtd">
<svg version="1.1" id="SM_x5F_H1_x5F_4C_x5F_NB.eps"
	 xmlns="http://www.w3.org/2000/svg" xmlns:xlink="http://www.w3.org/1999/xlink" x="0px" y="0px" width="366.952px"
	 height="341.18px" viewBox="0.003 0 366.952 341.18" enable-background="new 0.003 0 366.952 341.18" xml:space="preserve">
<g>
	<g>
		<path fill="#FFEA53" d="M187.603,120.123c-24.579,32.229-70.63,38.425-102.856,13.841C52.529,109.383,46.327,63.328,70.92,31.1
			C95.498-1.118,141.544-7.32,173.766,17.261C205.997,41.845,212.19,87.897,187.603,120.123z"/>
	</g>
	<g>
		<path fill="#0079C1" d="M136.751,0.293c-11.231,2.653-25.775,28.579-32.379,39.658c-3.537-4.269-11.611-13.994-11.611-13.994
			l-2.969,2.412C47.916,62.394,11.106,150.696,11.106,150.696c-0.507,1.062-1.432,4.352-1.529,5.843
			c-0.098,1.491,1.665,5.242,3.051,3.872c5.216-5.157,40.64-88.661,79.638-122.947c3.356,3.324,13.616,13.495,13.616,13.495
			l2.742-4.874c8.185-14.555,22.928-35.811,30.086-37.5c0.494-0.117,0.623-0.046,0.679-0.01c2.894,2.394,18.568,14.684,30.28,10.397
			c3.483-1.275,6.109,0.849,9.715,4.234c1.997,1.871,3.879,3.64,6.245,4.184c5.567,1.264,7.534-5.059,9.267-10.635
			c0.34-1.089,0.801-2.55,1.258-3.812c7.996,6.76,29.068,18.437,46.576,24.238c12.524,4.152,21.596,5.588,26.724,7.303
			c4.198-0.146,6.7,1.557,5.405-1.646c-1.295-3.205-2.752-2.9-29.92-11.903c-18.131-6.009-40.44-21.236-45.006-26.056
			c-2.257-2.385-4.613-2.273-5.815-1.992c-4.132,0.959-5.625,5.768-7.357,11.338c-0.284,0.916-0.665,2.143-1.045,3.232
			c-0.174-0.158-0.346-0.317-0.499-0.464c-3.667-3.44-9.802-9.199-18.476-6.022c-5.74,2.1-16.647-4.511-22.175-9.173l-0.172-0.145
			l-0.19-0.129C142.057,0.075,139.481-0.353,136.751,0.293z"/>
	</g>
	<path fill="#005496" d="M177.694,143.607c-26.868,14.01-59.034,37.844-94.613,46.15c-24.059,5.617-50.144-1.783-75.424-1.497
		c0,0-7.685-42.666,84.634-152.646l17.719,22.007c0,0,13.745-24.134,18.568-33.608L177.694,143.607z"/>
	<path fill="#005496" d="M109.481,52.661c6.753-13.258,24.917-41.774,30.555-41.48l49.756,20.21l8.798-16.415
		c0,0,58.563,39.377,95.3,26.342l11.938-3.936c-56.177,71.852-171.063,127.05-135.559,108.537L109.481,52.661z"/>
	<g>
		<path fill="#FFFFFF" d="M15.112,152.492c0,0,36.012-87.149,77.574-120.899l12.724,15.909c0,0,25.744-49.906,36.636-42.543
			c0,0,16.159,13.672,26.4,9.922c9.176-3.358,14.537,7.383,18.395,8.267c3.857,0.878,5.357-20.609,10.256-15.434
			c4.9,5.177,27.916,20.928,46.781,27.179c24.938,8.265,27.562,9.716,25.925,9.586c-10.561-0.862-20.921-4.252-30.795-7.933
			c-2.511-0.935-5.008-1.911-7.483-2.925c-0.803-0.327-2.393-1.328-3.238-1.351c-0.969-0.023-0.67,0.233-1.85,1.035
			c-3.584,2.432-5.168,0.744-9.312-1.621c-2.913-1.66-6.002-3.704-8.912-5.644c-1.604-1.07-3.076-1.73-4.829-2.109
			c-2.489-0.542-6.163,0.383-8.429,2.26c-1.2,0.996-4.85,5.758-4.1,5.985c-0.008,0-32.791-9.963-52.892-17.808
			c0,0-12.323,20.492-20.802,35.236c-6.78,11.782-4.855,13.291-8.353,10.592c-1.367-1.058-16.122-11.559-16.122-11.559
			C64.07,76.822,70.382,80.05,48.5,111.501c-18.681,26.863-6.356-8.309-21.726,29.559c0,0-4.544-2.792-7.747,11.102
			C19.027,152.163,11.278,160.285,15.112,152.492z"/>
		
			<linearGradient id="SVGID_1_" gradientUnits="userSpaceOnUse" x1="-40.0894" y1="300.7178" x2="38.5498" y2="300.7178" gradientTransform="matrix(1 0 0 -1 54 402.4492)">
			<stop  offset="0" style="stop-color:#FFFFFF"/>
			<stop  offset="1" style="stop-color:#7DA7D9"/>
		</linearGradient>
		<path fill="url(#SVGID_1_)" d="M89.635,47.44c-1.001,0.054-1.531,0.925-2.227,1.615c-1.65,1.664-3.293,3.345-4.905,5.049
			c-2.61,2.759-5.146,5.582-7.556,8.521c-3.467,4.248-6.561,8.755-9.266,13.526c-2.624,4.63-5.008,9.397-7.629,14.031
			c-3.585,6.35-7.519,12.486-11.682,18.473c-18.689,26.863-6.362-8.312-21.731,29.556c0,0-1.858-1.121-4.034,1.687
			c-1.155,2.514-2.139,4.712-2.953,6.552c-0.258,0.876-0.514,1.806-0.76,2.865c0,0-0.36,0.378-0.883,0.888
			c-0.674,1.576-1.033,2.441-1.033,2.441c-3.835,7.794,3.919-0.328,3.919-0.328c3.204-13.894,7.749-11.105,7.749-11.105
			c15.364-37.865,3.038-2.693,21.724-29.556c21.881-31.453,15.565-34.68,44.181-62.866c0.054-0.054-2.237-1.289-2.559-1.332
			C89.862,47.438,89.745,47.435,89.635,47.44z"/>
		
			<linearGradient id="SVGID_2_" gradientUnits="userSpaceOnUse" x1="36.5508" y1="364.9062" x2="83.8291" y2="364.9062" gradientTransform="matrix(1 0 0 -1 54 402.4492)">
			<stop  offset="0" style="stop-color:#FFFFFF"/>
			<stop  offset="1" style="stop-color:#7DA7D9"/>
		</linearGradient>
		<path fill="url(#SVGID_2_)" d="M92.549,48.789c0,0,14.755,10.504,16.122,11.561c3.503,2.698,1.58,1.186,8.356-10.594
			c8.475-14.742,20.796-35.231,20.802-35.237c0.017-0.029-1.194-0.818-1.329-0.86c-0.534-0.176-1.313-0.006-1.663,0.453
			c-0.204,0.255-0.406,0.53-0.592,0.791c-0.544,0.754-1.124,1.441-1.606,2.233c-0.404,0.657-0.803,1.315-1.198,1.974
			c-0.957,1.578-1.914,3.159-2.87,4.739c-2.308,3.832-4.607,7.671-6.887,11.519c-2.24,3.788-4.468,7.579-6.661,11.393
			c-6.777,11.777-4.853,13.289-8.349,10.588c-1.367-1.055-16.123-11.561-16.123-11.561L92.549,48.789z"/>
		
			<linearGradient id="SVGID_3_" gradientUnits="userSpaceOnUse" x1="179.0015" y1="363.7705" x2="113.3027" y2="385.0784" gradientTransform="matrix(1 0 0 -1 54 402.4492)">
			<stop  offset="0" style="stop-color:#FFFFFF"/>
			<stop  offset="1" style="stop-color:#7DA7D9"/>
		</linearGradient>
		<path fill="url(#SVGID_3_)" d="M190.715,32.33c-0.743-0.228,2.9-4.991,4.103-5.987c2.265-1.876,5.94-2.803,8.433-2.26
			c1.754,0.38,3.22,1.042,4.826,2.112c2.903,1.937,5.995,3.982,8.907,5.644c4.152,2.362,5.738,4.053,9.32,1.621
			c1.182-0.801,0.881-1.061,1.85-1.034c0.84,0.019,2.433,1.021,3.236,1.35c2.478,1.012,4.978,1.993,7.486,2.926
			c9.868,3.678,20.232,7.068,30.793,7.928c1.17,0.097,0.161-0.62-9.552-4.029c-7.944-1.479-15.74-4.101-23.247-6.9
			c-2.506-0.937-5-1.912-7.477-2.924c-0.803-0.329-2.399-1.332-3.246-1.352c-0.969-0.025-0.668,0.233-1.847,1.036
			c-3.581,2.432-5.171,0.743-9.317-1.62c-2.912-1.661-5.996-3.704-8.906-5.645c-1.608-1.071-3.08-1.729-4.829-2.113
			c-2.487-0.54-6.17,0.384-8.438,2.261c-1.192,0.995-4.84,5.761-4.092,5.989"/>
		
			<linearGradient id="SVGID_4_" gradientUnits="userSpaceOnUse" x1="81.8301" y1="380.5234" x2="136.7148" y2="380.5234" gradientTransform="matrix(1 0 0 -1 54 402.4492)">
			<stop  offset="0" style="stop-color:#FFFFFF"/>
			<stop  offset="1" style="stop-color:#7DA7D9"/>
		</linearGradient>
		<path fill="url(#SVGID_4_)" d="M188.719,29.333c-0.004,0-32.792-9.967-52.889-17.812l1.999,2.999
			c20.097,7.846,52.885,17.807,52.886,17.811"/>
	</g>
</g>
<g>
	<g>
		<g>
			<path fill="#0072BC" stroke="#0072BC" stroke-width="0.698" stroke-linecap="round" stroke-linejoin="round" d="M148.441,121.521
				l-39.788,17.218l-20.708,82.6l-48.862,42.579l7.843,33.951c0,0,5.369-2.66,13.212-6.582c-0.447-7.07-0.524-12.389-0.524-16.355
				c0-4.187-0.485-8.586,1.197-9.822c3.962-2.912,16.875,17.363,20.099,15.732c5.173-2.619,12.411-5.627,17.329-8.16
				c3.487-1.793,4.997-26.671,9.467-27.492c4.471-0.819,5.795,19.258,8.408,17.742c1.383-0.802,37.446-32.983,37.446-32.983
				l58.634-51.188l94.231-41.649l-10.469-60.728l-66.545,31.179l-28.388,23.5L148.441,121.521z"/>
			<g>
				<g>
					<path fill="#FFFFFF" d="M156.564,124.282c5.032,3.964,15.238,1.171,22.797-6.258c7.562-7.417,9.611-16.656,4.592-20.623
						c-5.025-3.976-15.232-1.175-22.797,6.252C153.587,111.081,151.533,120.312,156.564,124.282z"/>
					<path fill="#FFFFFF" d="M349.057,121.129c-2.405,1.932-15.151,11.986-23.571,14.003c-8.568,2.042-11.867-3.105-11.867-15.872
						c0.006-5.589,0.58-28.655,1.176-50.151c23.932-13.768,23.148-25.509,23.771-29.628c-3.869,3.517-11.808,7.867-23.32,14.125
						c0.34-11.638,0.645-21.038,0.785-24.111l-19.503,14.14c-3.047,13.845-4.832,21.873-18.5,28.763
						c-12.786,6.155-25.307,12.231-34.062,17.545c-42.073,25.556-43.437,55.282-43.33,58.662
						c1.705,0.122,29.576,0.308,31.293,10.727c0.804,4.845-0.553,9.541-11.454,15.751c-0.916,0.521-16.121,7.261-28.687,13.183
						c-1.604-20.946-3.731-49.101-4.729-61.789c-5.345,2.933-39.187,22.336-41.778,23.887c3.832,1.094,7.305,2.08,11.387,3.239
						c0.267,2.396,3.6,29.634,6.277,51.45c-4.768,3.574-9.664,7.648-14.359,12.1c-2.102-10.686-13.252-65.333-15.406-78.319
						c2.02-4.056,7.013-14.305,9.137-18.603c-8.02,3.958-30.141,14.967-40.677,19.964c-2.021,12.253-11.825,55.117-15.845,78.698
						c-2.111-3.487-25.142-45.566-28.994-52.713c-3.683,2.093-43.735,25.324-46.797,27.18c1.693,0.38,16.83,2.958,19.939,3.562
						c0.028,4.129-0.426,97.514-0.52,113.592c-0.996,3.236-5.053,17.332-6.039,20.666c3.592-2.592,37.799-27.115,42.373-30.527
						c-0.855-0.467-12.122-5.985-15.502-7.521c-0.45-1.266-0.762-57.185-0.918-68.394c2.051,3.098,35.373,51.656,38.779,56.115
						c0.27-1.672,15.357-71.826,18.939-89.857c0.816,3.489,17.276,72.548,17.859,74.212c4.109-7.417,15.483-26.858,39.816-45.649
						c0.637,5.125,1.133,9.146,1.402,11.272c3.727-2.267,22.875-14.3,27.64-17.061c-0.07-0.746-0.42-5.145-0.927-11.652
						c17.246-8.262,34.601-13.275,50.888-24.459c24.545-16.863,29.287-43.133,29.535-46.135c-2.898-0.315-33.892-1.497-36.115-9.209
						c-1.467-5.085,4.18-15.925,19.268-24.3c3.01-1.67,16.191-8.087,28.693-14.148c-0.803,9.621-4.295,52.233-2.521,67.477
						c1.449,12.529,13.449,12.989,23.379,9.549c21.322-7.4,34.695-17.359,40.857-22.974L349.057,121.129z"/>
				</g>
				<g>
					<path fill="#0072BC" d="M156.564,124.282c5.032,3.964,15.238,1.171,22.797-6.258c7.562-7.417,9.611-16.656,4.592-20.623
						c-5.025-3.976-15.232-1.175-22.797,6.252C153.587,111.081,151.533,120.312,156.564,124.282z"/>
					<path fill="#0072BC" d="M349.057,121.129c-2.405,1.932-15.151,11.986-23.571,14.003c-8.568,2.042-11.867-3.105-11.867-15.872
						c0.006-5.589,0.58-28.655,1.176-50.151c23.932-13.768,23.148-25.509,23.771-29.628c-3.869,3.517-11.808,7.867-23.32,14.125
						c0.34-11.638,0.645-21.038,0.785-24.111l-19.503,14.14c-3.047,13.845-4.832,21.873-18.5,28.763
						c-12.786,6.155-25.307,12.231-34.062,17.545c-42.073,25.556-43.437,55.282-43.33,58.662
						c1.705,0.122,29.576,0.308,31.293,10.727c0.804,4.845-0.553,9.541-11.454,15.751c-0.916,0.521-16.121,7.261-28.687,13.183
						c-1.604-20.946-3.731-49.101-4.729-61.789c-5.345,2.933-39.187,22.336-41.778,23.887c3.832,1.094,7.305,2.08,11.387,3.239
						c0.267,2.396,3.6,29.634,6.277,51.45c-4.768,3.574-9.664,7.648-14.359,12.1c-2.102-10.686-13.252-65.333-15.406-78.319
						c2.02-4.056,7.013-14.305,9.137-18.603c-8.02,3.958-30.141,14.967-40.677,19.964c-2.021,12.253-11.825,55.117-15.845,78.698
						c-2.111-3.487-25.142-45.566-28.994-52.713c-3.683,2.093-43.735,25.324-46.797,27.18c1.693,0.38,16.83,2.958,19.939,3.562
						c0.028,4.129-0.426,97.514-0.52,113.592c-0.996,3.236-5.053,17.332-6.039,20.666c3.592-2.592,37.799-27.115,42.373-30.527
						c-0.855-0.467-12.122-5.985-15.502-7.521c-0.45-1.266-0.762-57.185-0.918-68.394c2.051,3.098,35.373,51.656,38.779,56.115
						c0.27-1.672,15.357-71.826,18.939-89.857c0.816,3.489,17.276,72.548,17.859,74.212c4.109-7.417,15.483-26.858,39.816-45.649
						c0.637,5.125,1.133,9.146,1.402,11.272c3.727-2.267,22.875-14.3,27.64-17.061c-0.07-0.746-0.42-5.145-0.927-11.652
						c17.246-8.262,34.601-13.275,50.888-24.459c24.545-16.863,29.287-43.133,29.535-46.135c-2.898-0.315-33.892-1.497-36.115-9.209
						c-1.467-5.085,4.18-15.925,19.268-24.3c3.01-1.67,16.191-8.087,28.693-14.148c-0.803,9.621-4.295,52.233-2.521,67.477
						c1.449,12.529,13.449,12.989,23.379,9.549c21.322-7.4,34.695-17.359,40.857-22.974L349.057,121.129z"/>
				</g>
				<g>
					<path fill="none" stroke="#0072BC" stroke-width="20" stroke-linecap="round" stroke-linejoin="round" d="M156.564,124.282
						c5.032,3.964,15.238,1.171,22.797-6.258c7.562-7.417,9.611-16.656,4.592-20.623c-5.025-3.976-15.232-1.175-22.797,6.252
						C153.587,111.081,151.533,120.312,156.564,124.282z"/>
					<path fill="none" stroke="#0072BC" stroke-width="20" stroke-linecap="round" stroke-linejoin="round" d="M349.057,121.129
						c-2.405,1.932-15.151,11.986-23.571,14.003c-8.568,2.042-11.867-3.105-11.867-15.872c0.006-5.589,0.58-28.655,1.176-50.151
						c23.932-13.768,23.148-25.509,23.771-29.628c-3.869,3.517-11.808,7.867-23.32,14.125c0.34-11.638,0.645-21.038,0.785-24.111
						l-19.503,14.14c-3.047,13.845-4.832,21.873-18.5,28.763c-12.786,6.155-25.307,12.231-34.062,17.545
						c-42.073,25.556-43.437,55.282-43.33,58.662c1.705,0.122,29.576,0.308,31.293,10.727c0.804,4.845-0.553,9.541-11.454,15.751
						c-0.916,0.521-16.121,7.261-28.687,13.183c-1.604-20.946-3.731-49.101-4.729-61.789c-5.345,2.933-39.187,22.336-41.778,23.887
						c3.832,1.094,7.305,2.08,11.387,3.239c0.267,2.396,3.6,29.634,6.277,51.45c-4.768,3.574-9.664,7.648-14.359,12.1
						c-2.102-10.686-13.252-65.333-15.406-78.319c2.02-4.056,7.013-14.305,9.137-18.603c-8.02,3.958-30.141,14.967-40.677,19.964
						c-2.021,12.253-11.825,55.117-15.845,78.698c-2.111-3.487-25.142-45.566-28.994-52.713
						c-3.683,2.093-43.735,25.324-46.797,27.18c1.693,0.38,16.83,2.958,19.939,3.562c0.028,4.129-0.426,97.514-0.52,113.592
						c-0.996,3.236-5.053,17.332-6.039,20.666c3.592-2.592,37.799-27.115,42.373-30.527c-0.855-0.467-12.122-5.985-15.502-7.521
						c-0.45-1.266-0.762-57.185-0.918-68.394c2.051,3.098,35.373,51.656,38.779,56.115c0.27-1.672,15.357-71.826,18.939-89.857
						c0.816,3.489,17.276,72.548,17.859,74.212c4.109-7.417,15.483-26.858,39.816-45.649c0.637,5.125,1.133,9.146,1.402,11.272
						c3.727-2.267,22.875-14.3,27.64-17.061c-0.07-0.746-0.42-5.145-0.927-11.652c17.246-8.262,34.601-13.275,50.888-24.459
						c24.545-16.863,29.287-43.133,29.535-46.135c-2.898-0.315-33.892-1.497-36.115-9.209c-1.467-5.085,4.18-15.925,19.268-24.3
						c3.01-1.67,16.191-8.087,28.693-14.148c-0.803,9.621-4.295,52.233-2.521,67.477c1.449,12.529,13.449,12.989,23.379,9.549
						c21.322-7.4,34.695-17.359,40.857-22.974L349.057,121.129z"/>
				</g>
			</g>
			<g>
				<path fill="#FFFFFF" d="M184.358,91.683c4.65,4.289,2.08,13.602-5.457,20.925c-7.572,7.349-18.414,9.667-22.935,5.409
					c-4.175-3.936-2.204-14.564,6.378-21.469C171.307,89.334,180.141,87.796,184.358,91.683z"/>
				<path fill="#FFFFFF" d="M23.309,331.271l6.006-20.881l0.498-113.339L9.79,193.407l46.984-27.102l27.972,50.84l16.952-81.988
					l40.728-19.973l-8.883,23.104l16.058,77.669l13.322-10.966l-6.399-51.168l-11.358-7.963l42.03-23.758l5.349,65.66
					c0,0,22.063-9.662,28.461-13.055s9.922-7.699,10.832-10.835c0.914-3.133,0-5.222-0.91-6.915
					c-0.911-1.697-3.396-3.396-6.522-4.703c-3.139-1.303-9.668-2.607-12.664-2.871c-3.004-0.26-11.096-0.781-11.096-0.781
					s-0.129-6.528,1.043-10.707c1.174-4.173,3.916-10.57,5.606-13.965c1.697-3.395,7.582-11.879,11.101-15.663
					c3.522-3.787,11.1-10.443,15.008-13.447c3.914-3.002,18.414-11.484,22.328-13.575c3.916-2.087,13.442-6.397,18.27-8.873
					c4.832-2.481,10.051-4.701,13.582-8.619c3.518-3.914,5.869-9.529,6.65-12.531c0.783-3.003,1.697-6.919,1.697-6.919
					l20.239-15.141l-0.785,24.28l23.187-13.225c0,0,0.063,6.984-3.773,12.396c-3.479,4.904-8.188,8.79-10.404,10.486
					c-2.229,1.696-9.534,6.006-9.534,6.006s-0.91,47.385-1.045,51.948c-0.13,4.571,0.788,10.314,2.612,11.883
					c1.818,1.564,3.131,3.131,7.312,2.479c4.174-0.652,7.438-2.352,11.617-4.571c4.18-2.217,6.256-4.047,8.221-5.609
					c1.963-1.569,5.481-4.183,5.481-4.183l-2.221,16.972c0,0-9.139,7.966-19.055,13.316c-9.922,5.349-17.361,8.224-22.841,9.923
					c-5.485,1.693-11.625,2.217-15.541,0.388c-3.918-1.827-6.135-4.829-6.782-9.136c-0.656-4.309-0.656-9.269-0.521-13.836
					c0.131-4.571,0.521-20.884,0.914-25.844c0.393-4.964,1.95-27.285,1.95-27.285s-13.305,6.397-20.621,9.793
					c-7.309,3.39-14.225,6.786-18.139,9.917c-3.923,3.135-6.795,6.656-8.097,10.184c-1.305,3.523-2.352,7.181,1.174,9.529
					c3.523,2.35,8.74,3.526,11.615,4.047c2.869,0.521,11.357,1.825,13.705,1.956c2.353,0.132,8.49,0.526,8.49,0.526
					s-0.398,7.309-4.182,15.401c-1.123,2.408-1.992,4.926-3.266,7.168c-3.007,5.289-6.627,9.8-9.658,13.192
					c-4.305,4.833-10.047,9.661-16.836,13.575c-6.785,3.916-15.273,7.965-22.713,11.098c-7.445,3.132-23.5,10.441-23.5,10.441
					l0.791,11.619l-27.552,16.84l-1.693-10.967c0,0-12.007,9.656-16.188,14.359c-4.172,4.696-8.088,8.783-11.488,13.172
					c-3.215,4.15-11.877,17.895-11.877,17.895l-17.883-73.752L87.988,280.96l-38.525-55.999l0.127,67.486l16.289,7.607
					L23.309,331.271z"/>
				
					<linearGradient id="SVGID_5_" gradientUnits="userSpaceOnUse" x1="24.23" y1="110.1763" x2="7.12" y2="194.0501" gradientTransform="matrix(0.9813 0.1923 0.1923 -0.9813 2.969 401.876)">
					<stop  offset="0" style="stop-color:#FFFFFF"/>
					<stop  offset="1" style="stop-color:#7DA7D9"/>
				</linearGradient>
				<polygon fill="url(#SVGID_5_)" points="49.943,226.036 49.843,292.287 45.348,296.453 45.348,210.499 				"/>
				
					<linearGradient id="SVGID_6_" gradientUnits="userSpaceOnUse" x1="-33.3535" y1="208.2637" x2="-9.5674" y2="208.2637" gradientTransform="matrix(0.9813 0.1923 0.1923 -0.9813 2.969 401.876)">
					<stop  offset="0" style="stop-color:#FFFFFF"/>
					<stop  offset="1" style="stop-color:#7DA7D9"/>
				</linearGradient>
				<path fill="url(#SVGID_6_)" d="M22.141,191.198c1.885,0.339,11.947,2.128,11.947,2.128l-4.307,3.866l-19.952-3.76
					L22.141,191.198z"/>
				
					<linearGradient id="SVGID_7_" gradientUnits="userSpaceOnUse" x1="81.5674" y1="303.8965" x2="74.301" y2="285.451" gradientTransform="matrix(0.9813 0.1923 0.1923 -0.9813 2.969 401.876)">
					<stop  offset="0" style="stop-color:#FFFFFF"/>
					<stop  offset="1" style="stop-color:#7DA7D9"/>
				</linearGradient>
				<path fill="url(#SVGID_7_)" d="M129.576,136.472l5.015-12.965l7.897-8.397c-1.819,4.399-6.957,19.041-8.946,23.179
					L129.576,136.472z"/>
				
					<linearGradient id="SVGID_8_" gradientUnits="userSpaceOnUse" x1="93.0117" y1="187.9956" x2="125.4521" y2="187.9956" gradientTransform="matrix(0.9813 0.1923 0.1923 -0.9813 2.969 401.876)">
					<stop  offset="0" style="stop-color:#FFFFFF"/>
					<stop  offset="1" style="stop-color:#7DA7D9"/>
				</linearGradient>
				<path fill="url(#SVGID_8_)" d="M126.66,254.331c9.283-14.181,21.055-27.021,35.41-38.105l6.027-4.665l-3.643,8.412
					c-24.092,19.023-35.438,37.926-39.541,45.344L126.66,254.331z"/>
				
					<linearGradient id="SVGID_9_" gradientUnits="userSpaceOnUse" x1="58.7676" y1="144.9248" x2="59.0856" y2="242.8841" gradientTransform="matrix(0.9813 0.1923 0.1923 -0.9813 2.969 401.876)">
					<stop  offset="0" style="stop-color:#FFFFFF"/>
					<stop  offset="1" style="stop-color:#7DA7D9"/>
				</linearGradient>
				<path fill="url(#SVGID_9_)" d="M107.047,191.71c-3.584,18.038-18.959,89.383-18.959,89.383l-2.194-10.782l20.837-99.903
					L107.047,191.71z"/>
				
					<linearGradient id="SVGID_10_" gradientUnits="userSpaceOnUse" x1="100.2988" y1="309.9658" x2="121.1165" y2="329.4583" gradientTransform="matrix(0.9813 0.1923 0.1923 -0.9813 2.969 401.876)">
					<stop  offset="0" style="stop-color:#FFFFFF"/>
					<stop  offset="0.5056" style="stop-color:#7DA7D9"/>
					<stop  offset="1" style="stop-color:#FFFFFF"/>
				</linearGradient>
				<path fill="url(#SVGID_10_)" d="M182.342,97.344c0.133,2.508-1.365,7.063-6.031,11.64c-6.781,6.673-14.506,7.957-17.056,5.944
					c-0.247-0.194-0.999-0.786-1.089-2.461l-4.222,1.31c0.31,1.843,1.162,3.426,2.62,4.567c5.025,3.961,14.785,1.752,22.746-6.162
					c5.449-5.421,8.119-11.822,7.203-16.411L182.342,97.344z"/>
				<g>
					
						<linearGradient id="SVGID_11_" gradientUnits="userSpaceOnUse" x1="71.2954" y1="322.8457" x2="87.6733" y2="322.8457" gradientTransform="matrix(0.8266 0.5627 0.5627 -0.8266 -94.3719 371.0473)">
						<stop  offset="0" style="stop-color:#FFFFFF"/>
						<stop  offset="1" style="stop-color:#7DA7D9"/>
					</linearGradient>
					<path fill="url(#SVGID_11_)" d="M156.162,149.342l4.805,2.409l-4.444,2.072c-4.177-2.646-8.059-5.549-11.358-7.963
						L156.162,149.342z"/>
				</g>
				
					<linearGradient id="SVGID_12_" gradientUnits="userSpaceOnUse" x1="127.2363" y1="210.8525" x2="151.0732" y2="210.8525" gradientTransform="matrix(0.9813 0.1923 0.1923 -0.9813 2.969 401.876)">
					<stop  offset="0" style="stop-color:#FFFFFF"/>
					<stop  offset="1" style="stop-color:#7DA7D9"/>
				</linearGradient>
				<path fill="url(#SVGID_12_)" d="M193.728,213.999c-4.636,2.998-23.872,14.672-27.609,16.94l3.486-7.276
					c0.953-0.595,2.316-1.438,2.316-1.438s13.646-8.399,17.312-10.652L193.728,213.999z"/>
				
					<linearGradient id="SVGID_13_" gradientUnits="userSpaceOnUse" x1="142.9443" y1="275.1846" x2="213.6348" y2="275.1846" gradientTransform="matrix(0.9813 0.1923 0.1923 -0.9813 2.969 401.876)">
					<stop  offset="0" style="stop-color:#FFFFFF"/>
					<stop  offset="1" style="stop-color:#7DA7D9"/>
				</linearGradient>
				<path fill="url(#SVGID_13_)" d="M273.479,130.935c-0.037,4.829-5.144,30.176-29.701,47.039
					c-16.275,11.186-33.691,15.992-50.93,24.244l-4.578-2.642l2.698-1.277c5.828-2.792,11.705-5.235,17.384-7.591
					c11.522-4.791,22.407-9.316,32.905-16.529c18.179-12.473,24.664-30.442,26.763-38.593L273.479,130.935z"/>
				
					<linearGradient id="SVGID_14_" gradientUnits="userSpaceOnUse" x1="167.9805" y1="342.0752" x2="216.2627" y2="342.0752" gradientTransform="matrix(0.9813 0.1923 0.1923 -0.9813 2.969 401.876)">
					<stop  offset="0" style="stop-color:#FFFFFF"/>
					<stop  offset="1" style="stop-color:#7DA7D9"/>
				</linearGradient>
				<path fill="url(#SVGID_14_)" d="M286.453,79.795l-6.929,3.352c-13.188,6.398-25.832,12.548-28.916,14.262
					c-16.84,9.354-23.483,21.831-21.325,29.31l4.18-1.208c-1.461-5.088,4.181-15.926,19.265-24.299
					c3.004-1.673,19.563-9.426,32.127-15.515L286.453,79.795z"/>
				
					<linearGradient id="SVGID_15_" gradientUnits="userSpaceOnUse" x1="233.0938" y1="308.4961" x2="286.6973" y2="308.4961" gradientTransform="matrix(0.9813 0.1923 0.1923 -0.9813 2.969 401.876)">
					<stop  offset="0" style="stop-color:#FFFFFF"/>
					<stop  offset="1" style="stop-color:#7DA7D9"/>
				</linearGradient>
				<path fill="url(#SVGID_15_)" d="M342.725,135.823c-5.264,4.58-17.69,13.952-38.18,21.067c-5.94,2.058-11.299,2.146-14.346,0.237
					l-2.453,3.589c4.735,3.083,11.901,2.476,18.221,0.28c21.324-7.398,34.688-17.363,40.849-22.977L342.725,135.823z"/>
				
					<linearGradient id="SVGID_16_" gradientUnits="userSpaceOnUse" x1="237.3467" y1="403.2148" x2="260.2061" y2="403.2148" gradientTransform="matrix(0.9813 0.1923 0.1923 -0.9813 2.969 401.876)">
					<stop  offset="0" style="stop-color:#FFFFFF"/>
					<stop  offset="1" style="stop-color:#7DA7D9"/>
				</linearGradient>
				<path fill="url(#SVGID_16_)" d="M338.666,39.689c-0.537,4.748,0.701,15.924-23.875,29.525l-4.279-2.554l2.109-1.216
					c10.137-5.833,18.018-11.954,21.201-16.279C337.008,44.842,338.666,39.689,338.666,39.689z"/>
				<g>
					<path fill="#FFFFFF" d="M23.357,331.271c1.053-3.549,4.195-14.648,6.036-20.672l4.351,0.024l-2.68,9.746L23.357,331.271z"/>
					
						<linearGradient id="SVGID_17_" gradientUnits="userSpaceOnUse" x1="6.4297" y1="92.6172" x2="42.2324" y2="92.6172" gradientTransform="matrix(0.9813 0.1923 0.1923 -0.9813 2.969 401.876)">
						<stop  offset="0" style="stop-color:#FFFFFF"/>
						<stop  offset="1" style="stop-color:#7DA7D9"/>
					</linearGradient>
					<path fill="url(#SVGID_17_)" d="M57.32,301.445l-26.256,18.926l-7.707,10.9c0,0,38.023-27.797,42.597-31.205L57.32,301.445z"/>
				</g>
			</g>
		</g>
		<g>
			<g>
				<path fill="#0079C1" d="M99.848,81.199c-2.727,3.61-3.116,8.391-2.746,9.245c0.376,0.854,0.47,0.846,1.238-0.51
					c0.762-1.354,1.554-3.499,3.42-5.749c1.869-2.244,2.928-2.539,3.894-3.816c0.97-1.27,0.896-5.08-0.399-5.392
					c-4.034-0.98-13.077,3.315-19.688,9.223c-11.469,10.236-12.777,19.346-9.96,25.111c2.688,5.478,8.192,6.742,18.381,0.878
					c8.155-4.702,12.057-5.424,13.597-3.526c1.784,2.208,0.818,6.552-6.68,14.341c-5.039,5.239-8.722,8.411-12.936,9.274
					c-0.584-1.579,0.971-4.745,3.439-7.311c1.203-1.253,1.681-3.95-0.526-2.519c-8.035,5.182-10.833,12.158-8.472,15.394
					c2.678,3.687,12.907-1.587,22.497-12.146c10.665-11.744,10.313-19.911,6.909-24.633c-2.828-3.94-7.877-5.102-17.829,0.456
					c-4.274,2.389-9.984,6.262-11.93,2.683c-1.928-3.537,0.913-9.49,6.205-14.402C92.861,83.531,98.006,81.568,99.848,81.199z"/>
				<path fill="#0079C1" d="M119.284,63.273c-2.286-0.13-4.086,1.553-4.485,3.762c-0.393,2.204,0.529,5.222,3.962,5.314
					c2.773,0.077,4.19-1.786,4.405-4.156C123.395,65.613,121.705,63.409,119.284,63.273z"/>
				<path fill="#0079C1" d="M232.858,68.006c-7.073,6.643-10.422,7.432-11.92,6.489c-1.356-0.845-1.088-3.476,1.154-7.654
					c1.205-2.255,2.672-4.327,3.602-5.32c0.939-1.001,0.062-2.122-1.221-3.193c-0.516-0.437-1.119-0.947-1.725-1.259
					c0.602-0.615,0.768-1.687,0.508-3.555c-0.256-1.859-0.172-2.747-2.084-2.794c-4.555-0.111-11.936,2.896-16.119,6.302
					c-3.381,2.757-5.289,5.19-7.055,7.922c-4.289,6.649-7.02,8.095-8.756,7.438c-1.225-0.457-1.172-2.51,0.248-5.828
					c1.227-2.873,3.084-5.603,4.012-7.189c1.295-2.23,0.113-4.798-2.018-4.805c-3.541-0.013-5.627-0.033-8.79-0.38
					c1.016-2.817,1.967-4.384,0.475-5.224c-1.498-0.834-4.459,1.361-6.471,4.485c-1.504,2.336-1.43,5.13,0.051,6.49
					c-0.836,3.184-1.986,7.059-2.908,9.021c-1.742,3.687-4.172,6.936-5.994,6.524c-1.568-0.351-1.908-2.285-1.002-5.779
					c0.779-3.022,2.207-6,2.883-7.71c0.955-2.401-0.607-4.758-2.717-4.447c-3.502,0.521-5.561,0.814-8.74,0.946
					c0.568-2.932,1.283-4.633-0.318-5.232c-1.605-0.602-4.207,2.014-5.726,5.402c-1.219,2.736-0.554,5.721,1.437,6.644
					c-1.103,4.904-2.65,9.453-4.809,13.223c-3.807,6.64-7.473,7.886-10.305,6.8c-0.057-0.024-0.098-0.056-0.16-0.077
					c2.686-3.769,5.756-8.048,7.413-13.97c1.38-4.935,0.634-8.932-3.118-9.421c-4.063-0.529-10.62,4.523-12.99,13.858
					c-1.424,5.591-0.701,10.916,1.85,14.064c-0.684,1.016-1.458,2.08-2.588,3.231c-1.898,1.938-4.719,3.778-6.316,3.15
					c-1.602-0.63-2.016-3.865-0.601-16.413c0.257-2.281,0.465-3.46-3.281-3.619c-3.749-0.161-4.013,0.741-4.424,2.915
					c-0.413,2.183-0.926,10.532-0.528,15.081c0.505,5.883,2.405,8.85,6.033,9.211c3.83,0.374,8.109-2.774,13.73-11.768
					c0.71,0.436,1.492,0.755,2.351,0.941c5.551,1.191,12.917-3.781,16.954-14.405c1.758-4.619,3.085-9.458,3.722-12.633
					c3.289-0.299,6.13-0.702,6.13-0.702c-4.635,11.598-3.391,16.776,0.214,18.208c3.634,1.439,9.503-1.935,13.229-11.746
					c1.213-3.204,2.604-7.576,3.352-10.431c3.49,0.224,6.635,0.258,6.635,0.258c-6.209,9.981-6.146,15.965-2.533,18.031
					c3.199,1.83,9.496-0.421,13.162-7.915c-0.258,2.465,0.5,4.904,1.709,5.991c2.602,2.331,6.646,1.297,10.109-1.273
					c2.336-1.736,4.217-3.728,6.418-6.793c-2.045,5.819-1.354,8.73,1.024,10.458c2.453,1.788,8.638,1.224,16.472-7.464
					C234.601,69.787,234.053,66.884,232.858,68.006z M136.426,83.09c-0.988-2.173-1.128-5.497-0.672-8.764
					c0.571-4.086,2.278-7.175,4.148-7.127c1.865,0.047,1.993,2.803,1.029,6.124C140.094,76.199,137.972,80.581,136.426,83.09z
					 M213.281,67.664c-2.738,2.896-6.527,5.969-8.382,4.626c-1.862-1.35-0.465-6.732,4.207-10.306
					c4.787-3.664,8.591-4.909,11.656-4.963C220.765,57.022,218.101,62.568,213.281,67.664z"/>
			</g>
			<g>
				<path fill="#FFFFFF" d="M101.928,77.711c-2.73,3.611-3.123,8.39-2.752,9.246c0.375,0.852,0.475,0.846,1.237-0.512
					c0.765-1.354,1.558-3.5,3.423-5.746c1.867-2.244,2.92-2.538,3.896-3.814c0.966-1.272,0.887-5.085-0.4-5.397
					c-4.038-0.978-13.078,3.319-19.686,9.223c-11.47,10.235-12.773,19.345-9.956,25.11c2.683,5.48,8.187,6.744,18.368,0.88
					c8.16-4.702,12.062-5.426,13.602-3.525c1.783,2.207,0.82,6.55-6.678,14.342c-5.039,5.238-8.729,8.409-12.931,9.272
					c-0.588-1.579,0.969-4.746,3.429-7.31c1.2-1.253,1.688-3.952-0.527-2.52c-8.024,5.185-10.825,12.161-8.466,15.396
					c2.684,3.685,12.907-1.59,22.494-12.147c10.665-11.744,10.313-19.91,6.913-24.633c-2.833-3.937-7.875-5.102-17.834,0.458
					c-4.273,2.389-9.979,6.259-11.923,2.684c-1.929-3.54,0.909-9.493,6.198-14.403C94.939,80.042,100.08,78.081,101.928,77.711z"/>
				<path fill="#FFFFFF" d="M121.357,59.784c-2.285-0.13-4.087,1.555-4.482,3.765c-0.392,2.204,0.528,5.218,3.964,5.312
					c2.768,0.077,4.192-1.787,4.403-4.157C125.469,62.128,123.783,59.919,121.357,59.784z"/>
				<path fill="#FFFFFF" d="M234.938,64.52c-7.071,6.639-10.43,7.431-11.922,6.491c-1.354-0.847-1.086-3.482,1.156-7.656
					c1.205-2.257,2.664-4.325,3.598-5.324c0.937-0.996,0.068-2.12-1.223-3.191c-0.514-0.438-1.119-0.947-1.721-1.256
					c0.596-0.617,0.764-1.691,0.506-3.558c-0.254-1.859-0.174-2.746-2.078-2.794c-4.562-0.112-11.939,2.897-16.123,6.309
					c-3.383,2.75-5.291,5.184-7.057,7.917c-4.291,6.65-7.016,8.096-8.764,7.437c-1.217-0.456-1.162-2.507,0.256-5.827
					c1.227-2.872,3.084-5.601,4.014-7.188c1.295-2.23,0.105-4.796-2.02-4.807c-3.547-0.013-5.629-0.028-8.787-0.38
					c1.01-2.818,1.967-4.385,0.473-5.222c-1.498-0.837-4.457,1.36-6.469,4.482c-1.508,2.338-1.436,5.132,0.051,6.496
					c-0.842,3.18-1.984,7.055-2.91,9.021c-1.736,3.684-4.172,6.933-5.99,6.523c-1.572-0.351-1.904-2.288-1.012-5.778
					c0.789-3.023,2.215-6.002,2.891-7.713c0.951-2.403-0.611-4.758-2.715-4.442c-3.51,0.518-5.566,0.809-8.742,0.941
					c0.566-2.932,1.28-4.633-0.323-5.232c-1.602-0.602-4.201,2.016-5.717,5.403c-1.228,2.736-0.554,5.718,1.434,6.644
					c-1.104,4.905-2.651,9.455-4.816,13.223c-3.803,6.639-7.466,7.89-10.302,6.798c-0.055-0.019-0.104-0.055-0.149-0.074
					c2.68-3.768,5.747-8.048,7.409-13.969c1.379-4.939,0.626-8.934-3.125-9.421c-4.061-0.525-10.618,4.521-12.991,13.858
					c-1.419,5.592-0.7,10.915,1.851,14.063c-0.684,1.016-1.457,2.08-2.586,3.233c-1.9,1.936-4.72,3.776-6.32,3.15
					c-1.596-0.633-2.006-3.866-0.598-16.413c0.258-2.285,0.461-3.463-3.278-3.622c-3.75-0.16-4.015,0.738-4.429,2.918
					c-0.41,2.176-0.921,10.529-0.525,15.077c0.51,5.882,2.404,8.85,6.035,9.21c3.82,0.375,8.104-2.772,13.726-11.765
					c0.709,0.431,1.491,0.752,2.358,0.94c5.55,1.192,12.914-3.783,16.955-14.403c1.754-4.623,3.078-9.462,3.71-12.635
					c3.299-0.3,6.138-0.705,6.138-0.705c-4.637,11.6-3.395,16.783,0.211,18.211c3.637,1.438,9.508-1.936,13.229-11.743
					c1.209-3.211,2.6-7.578,3.354-10.436c3.5,0.226,6.635,0.257,6.635,0.257c-6.211,9.98-6.152,15.966-2.535,18.034
					c3.201,1.829,9.492-0.424,13.168-7.915c-0.258,2.465,0.498,4.904,1.707,5.988c2.596,2.332,6.646,1.301,10.104-1.275
					c2.342-1.734,4.217-3.725,6.424-6.79c-2.047,5.82-1.352,8.733,1.023,10.458c2.451,1.79,8.629,1.223,16.473-7.461
					C236.672,66.301,236.129,63.397,234.938,64.52z M138.5,79.603c-0.982-2.173-1.121-5.498-0.668-8.762
					c0.569-4.089,2.275-7.176,4.143-7.127c1.869,0.043,2.002,2.801,1.033,6.121C142.173,72.711,140.047,77.094,138.5,79.603z
					 M215.354,64.174c-2.746,2.899-6.524,5.968-8.371,4.627c-1.86-1.35-0.475-6.731,4.203-10.305
					c4.785-3.663,8.59-4.912,11.658-4.964C222.84,53.54,220.174,59.078,215.354,64.174z"/>
			</g>
		</g>
	</g>
	<path fill="#0079C1" d="M360.271,135.649c0-1.845,1.491-3.329,3.346-3.329c1.846,0,3.338,1.484,3.338,3.329
		c0,1.863-1.492,3.346-3.338,3.346C361.764,138.995,360.271,137.512,360.271,135.649z M366.41,135.657
		c0-1.56-1.205-2.793-2.793-2.793c-1.576,0-2.805,1.234-2.805,2.793c0,1.587,1.229,2.804,2.805,2.795
		C365.205,138.46,366.41,137.236,366.41,135.657z M365.197,137.521h-0.607l-1.057-1.69h-0.726v1.69h-0.526v-3.751h1.637
		c0.312,0,0.631,0,0.908,0.207c0.272,0.155,0.438,0.491,0.43,0.802c0,0.768-0.535,1.035-1.182,1.052L365.197,137.521z
		 M363.445,135.424c0.518,0,1.274,0.078,1.274-0.664c0-0.526-0.448-0.586-0.903-0.586h-1.009v1.25H363.445z"/>
</g>
</svg>
