<?xml version="1.0" encoding="utf-8"?>
<!-- Generator: Adobe Illustrator 16.0.0, SVG Export Plug-In . SVG Version: 6.00 Build 0)  -->
<!DOCTYPE svg PUBLIC "-//W3C//DTD SVG 1.1//EN" "http://www.w3.org/Graphics/SVG/1.1/DTD/svg11.dtd">
<svg version="1.1" id="Layer_1" xmlns="http://www.w3.org/2000/svg" xmlns:xlink="http://www.w3.org/1999/xlink" x="0px" y="0px"
	 width="117.519px" height="28.677px" viewBox="341.241 285.661 117.519 28.677"
	 enable-background="new 341.241 285.661 117.519 28.677" xml:space="preserve">
<g>
	<path d="M359.493,303.041c0,0.48-0.393,0.869-0.868,0.869h-6.083c-0.479,0-0.868-0.389-0.868-0.869v-6.082
		c0-0.478,0.391-0.869,0.868-0.869h6.083c0.477,0,0.868,0.391,0.868,0.869V303.041z M364.706,307.605
		c0,0.836-0.685,1.518-1.521,1.518h-15.21c-0.836,0-1.521-0.682-1.521-1.518v-15.209c0-0.836,0.685-1.52,1.521-1.52h15.21
		c0.837,0,1.521,0.684,1.521,1.52V307.605z M365.14,285.661h-19.117c-2.63,0-4.781,2.151-4.781,4.78v19.12
		c0,2.627,2.151,4.777,4.781,4.777h19.117c2.628,0,4.78-2.15,4.78-4.777v-19.12C369.92,287.812,367.768,285.661,365.14,285.661"/>
	<path d="M383.194,309.417c-1.701,0-3.335-0.655-4.487-1.806c-1.027-1.025-1.597-2.357-1.597-3.752h1.723
		c0,0.934,0.386,1.834,1.091,2.535c0.83,0.825,2.023,1.303,3.271,1.303h0.015c2.402,0,4.355-1.682,4.355-3.747
		c-0.002-1.55-0.858-2.779-5.028-3.745c-1.697-0.393-2.841-0.918-3.604-1.653c-0.812-0.786-1.208-1.833-1.208-3.198
		c0-2.696,2.418-4.891,5.391-4.891c1.425,0,2.767,0.49,3.782,1.38c1.047,0.919,1.625,2.159,1.625,3.491h-1.724
		c0-1.738-1.65-3.151-3.685-3.151c-1.989,0-3.669,1.453-3.669,3.17c0,1.571,0.539,2.494,3.479,3.175
		c3.142,0.726,6.354,1.939,6.362,5.42c0,1.481-0.644,2.866-1.809,3.899c-1.144,1.012-2.659,1.567-4.27,1.567h-0.014V309.417z"/>
	<path d="M398.358,297.212c-3.094,0-5.325,2.306-5.325,5.375c0,3.045,2.281,5.279,5.325,5.279c2.95,0,5.208-2.403,5.208-5.306
		C403.566,299.659,401.309,297.212,398.358,297.212 M403.471,314.312v-7.537h-0.047c-1.117,1.711-3.042,2.59-5.065,2.59
		c-3.899,0-6.992-2.928-6.992-6.85c0-3.9,3.166-6.803,6.992-6.803c2.022,0,3.948,0.88,5.065,2.616h0.047v-2.284h1.666v18.268
		H403.471L403.471,314.312z"/>
	<path d="M429.027,297.212c-3.09,0-5.326,2.306-5.326,5.375c0,3.043,2.283,5.279,5.326,5.279c2.948,0,5.207-2.403,5.207-5.306
		C434.234,299.659,431.977,297.212,429.027,297.212 M434.141,309.057v-2.283h-0.049c-1.143,1.711-3.043,2.59-5.063,2.59
		c-3.898,0-6.992-2.924-6.992-6.848c0-3.899,3.162-6.803,6.992-6.803c2.045,0,3.948,0.858,5.063,2.617h0.049v-2.283h1.664v13.01
		H434.141z"/>
	<path d="M440.793,301.445v7.611h-1.666v-13.012h1.666v1.879h0.045c0.715-1.665,1.976-2.093,3.664-2.212v1.762
		C442.219,297.664,440.793,299.114,440.793,301.445"/>
	<path d="M451.955,297.211c-2.594,0-4.662,1.902-5.068,4.448h10.156C456.615,299.114,454.572,297.211,451.955,297.211
		 M458.73,303.158h-11.845c0.121,2.568,2.5,4.709,5.045,4.709c1.998,0,3.949-1.143,4.662-3.068h1.758
		c-0.948,2.711-3.518,4.564-6.396,4.564c-3.756,0-6.777-3.066-6.777-6.801c0-3.709,3.021-6.851,6.754-6.851
		c3.808,0,6.828,3.212,6.828,6.972C458.76,302.848,458.73,302.99,458.73,303.158"/>
	<path d="M418.055,309.072v-2.032h-0.047c-0.764,1.603-2.461,2.344-4.182,2.344c-1.697,0-3.418-0.597-4.494-1.958
		c-0.93-1.172-1.145-2.75-1.145-4.206v-7.218h1.672v7.191c0,2.701,0.979,4.686,3.967,4.686c1.098,0,1.959-0.288,2.771-1.053
		c1.148-1.098,1.361-2.391,1.361-3.918v-6.906h1.674v13.07H418.055L418.055,309.072z"/>
</g>
</svg>
