<?xml version="1.0" encoding="utf-8"?>
<!-- Generator: Adobe Illustrator 16.0.0, SVG Export Plug-In . SVG Version: 6.00 Build 0)  -->
<!DOCTYPE svg PUBLIC "-//W3C//DTD SVG 1.1//EN" "http://www.w3.org/Graphics/SVG/1.1/DTD/svg11.dtd">
<svg version="1.1" id="Layer_1" xmlns="http://www.w3.org/2000/svg" xmlns:xlink="http://www.w3.org/1999/xlink" x="0px" y="0px"
	 width="175.748px" height="86.829px" viewBox="8.502 52.965 175.748 86.829" enable-background="new 8.502 52.965 175.748 86.829"
	 xml:space="preserve">
<g>
	<path fill="#FFC20E" d="M131.282,89.373h0.017c0.017,0,0.017-0.016,0.032-0.016L131.282,89.373L131.282,89.373z M23.555,114.028
		l0.048-0.016l-0.016,0.016H23.555L23.555,114.028z M184.153,98.638l-0.291-1.072l-0.131-0.229l-0.455-0.878l-0.26-0.26
		c-0.375-0.39-0.959-0.878-1.382-1.17l-0.194-0.13l-0.521-0.228c-0.486-0.195-0.99-0.341-1.495-0.422l-1.008-0.098
		c-0.392,0-0.78,0.032-1.17,0.098c-0.649,0.113-1.284,0.292-1.901,0.536c-0.229-0.195-0.472-0.39-0.781-0.585
		c-0.86-0.521-1.592-0.764-1.737-0.797l-1.414-0.39h-0.065l-0.423-0.065h-0.13c-0.438-0.017-1.284,0.065-1.445,0.081
		c-0.473,0.048-2.91,0.374-4.471,1.853c0,0,0,0.016-0.018,0.016c-0.211-0.292-0.455-0.585-0.73-0.845
		c-0.697-0.634-1.3-0.959-1.462-1.04l-1.188-0.585h-0.031l-0.081-0.016l0.194,0.065l-1.138-0.406l-0.131-0.033l-0.405-0.097
		c-0.488-0.098-0.992-0.179-1.496-0.244l-1.039-0.082h-1.058c-1.153,0.016-2.292,0.211-3.364,0.536
		c-0.472-0.553-1.104-0.91-1.82-0.975c-0.017,0-4.176-0.406-4.176-0.406c-0.521-0.049-0.943-0.032-1.316,0.049
		c-0.195-0.098-0.407-0.195-0.667-0.293c-0.798-0.309-1.609-0.503-2.423-0.585c-0.016,0-0.553-0.016-0.553-0.016s-0.063,0-0.08,0
		c-0.211,0-0.617,0.016-1.479,0.179c-0.211,0.049-1.576,0.325-3.022,0.943c-0.08-0.065-0.179-0.163-0.179-0.163
		c-0.391-0.358-0.991-0.812-1.446-1.089l-0.211-0.13l-0.537-0.179c-0.504-0.163-1.023-0.276-1.543-0.309h-1.009
		c-0.391,0.016-0.78,0.097-1.17,0.195c-0.649,0.163-1.284,0.39-1.886,0.683c-0.229-0.163-0.473-0.325-0.78-0.487
		c-0.878-0.472-1.625-0.65-1.771-0.667l-1.446-0.292l-0.065,0.016l-0.438-0.016h-0.114c-0.438,0.016-1.284,0.179-1.446,0.211
		c-0.406,0.081-2.373,0.503-3.853,1.706c-0.081-0.162-0.13-0.325-0.228-0.471c-0.553-0.812-1.446-1.3-2.455-1.349
		c-0.016,0-4.127-0.13-4.127-0.13c-0.018,0-0.229,0-0.406,0c3.754-2.243,9.865-5.185,18.301-9.086
		c-31.97,12.207-32.652,11.215-9.297-13.799c-25.014,23.34-26.005,22.673-13.799-9.313c-14.417,31.044-15.62,30.8-16.904-3.413
		c-1.268,34.213-2.471,34.458-16.887,3.413c12.206,31.987,11.215,32.653-13.799,9.313C83.253,90.706,82.571,91.697,50.6,79.49
		c8.419,3.901,14.531,6.843,18.301,9.07c-0.146,0-0.228-0.016-0.228-0.016l-0.065,0.016l-0.439,0.033l-0.13,0.016
		c-0.422,0.065-1.235,0.292-1.381,0.341c-0.423,0.13-2.406,0.764-3.836,2.113c-0.065-0.081-0.114-0.179-0.163-0.244
		c-0.617-0.796-1.609-1.219-2.649-1.154l-4.291,0.309c-0.602,0.049-1.138,0.179-1.593,0.406c-0.146-0.049-0.276-0.082-0.439-0.114
		c-0.861-0.211-1.528-0.211-1.658-0.211l-1.105,0.017l-0.39,0.049l-0.569,0.113l-0.585,0.13c-0.114,0.016-1.105,0.244-2.097,0.715
		c-0.406,0.178-0.78,0.406-1.154,0.618c0.114-0.309,0.26-0.764,0.26-0.764l0.146-0.407c0.357-1.089,0.146-2.194-0.553-2.974
		c-0.699-0.748-1.723-1.057-2.747-0.829l-0.39,0.098l-1.007,0.244c0,0-2.113,0.521-2.292,0.553c-0.325-1.04-0.991-1.917-1.967-2.535
		c-0.975-0.634-2.048-0.976-2.259-1.041c-0.341-0.114-1.056-0.309-1.446-0.39l-0.179-0.016c0-0.017-0.325-0.065-0.325-0.065
		l-1.333-0.065c0.016,0.016-0.699,0.032-0.699,0.032l-0.699,0.033l-1.902,0.195h-0.016l-0.39,0.082l-1.397,0.292h0.016
		c-1.918,0.504-3.771,1.3-5.478,2.389c-2.016,1.251-3.348,2.926-3.998,4.941l-0.017,0.049c-0.163,0.52-0.276,0.991-0.357,1.447
		c0-0.016-0.049,0.341-0.049,0.341l-0.016,0.097l-0.017,0.098c-0.016,0.179-0.032,0.39-0.032,0.618c0,0.52,0.049,1.089,0.13,1.56
		c0.082,0.407,0.504,2.52,1.902,3.82c0.975,0.91,2.373,1.917,2.438,1.966c0.244,0.18,0.471,0.325,0.667,0.455
		c0.016,0.018,0.422,0.374,0.422,0.374s0.114,0.017,0.146,0.032c0.146,0.098,0.309,0.212,0.309,0.212
		c0.016,0,0.894,0.649,1.512,1.202c0.211,0.195,0.292,0.357,0.292,0.65l-0.016,0.146c0,0-0.049,0.228-0.065,0.31
		c-0.179,0.666-0.504,1.153-1.057,1.543c-0.471,0.342-1.317,0.684-1.739,0.812c0,0-0.325,0.098-0.537,0.146
		c-0.227,0.017-0.65,0.017-0.65,0.017c-0.471,0-1.187-0.099-1.446-0.244c-0.082-0.032-0.211-0.113-0.228-0.634
		c0.016-0.032,0.016-0.113,0.016-0.113s0.049-0.357,0.097-0.568c0.017-0.05,0.065-0.099,0.114-0.162
		c0.114-0.115,0.26-0.276,0.292-0.293c0.016-0.018,0.13-0.113,0.13-0.113s0.049-0.049,0.081-0.082c0-0.016,0.211-0.194,0.211-0.194
		s-0.032,0.017-0.032,0.032c0.162-0.146,0.471-0.424,0.471-0.424l0.667-1.723c0-0.472-0.146-1.187-0.78-1.869l-0.341-0.341
		l0.049,0.05c-0.667-0.748-1.561-1.235-2.568-1.416c-0.748-0.146-1.528-0.162-2.308-0.047l-0.748,0.146l-1.007,0.31
		c-1.609,0.617-2.861,1.625-3.69,2.958c-0.796,1.251-1.024,2.616-1.072,2.878c-0.146,0.99-0.146,1.12-0.146,1.268l0.016,0.455
		l0.163,0.877l0.081,0.423c0.049,0.179,0.293,1.187,0.927,2.179c0.667,1.057,1.577,1.885,2.698,2.454
		c1.268,0.683,2.763,1.121,4.453,1.3c1.561,0.163,3.218,0.131,4.909-0.113l0.926-0.146c0,0,0.829-0.163,0.894-0.179
		c2.909-0.618,5.688-1.756,8.257-3.365c1.479-0.941,2.747-2.389,3.641-3.559c0.163,0.063,0.358,0.129,0.569,0.193
		c0.748,0.213,1.251,0.244,1.43,0.244l1.187-0.018l1.105-0.193c0.211-0.033,1.284-0.244,2.243-0.699
		c0.748-0.357,1.398-0.812,2-1.316c0.536,0.391,1.121,0.699,1.771,0.895c0.926,0.293,1.723,0.325,1.885,0.342h1.203l0.423-0.049
		l0.943-0.229l0.292-0.064c0.146-0.049,0.975-0.275,1.885-0.747c0.179-0.098,0.357-0.212,0.52-0.31
		c0.163,0.082,0.325,0.179,0.504,0.261c-9.866,3.299-18.984,8.144-19.52,8.437c-2.324,1.234-1.463,3.201-1.366,3.429
		c0.114,0.229,1.105,2.13,3.527,1.073c0.081-0.032,7.916-3.381,14.319-4.211c2.503-0.309,4.551-0.405,6.111-0.26
		c0.878,0.114,3.218,0.715,4.502,1.09c1.138,0.324,2.552,0.08,3.543-0.586c0,0,1.154-0.779,2.893-1.707
		c1.885-1.008,4.258-1.787,7.07-2.34c-2.373,3.463-7.33,8.924-14.612,16.74c25.014-23.355,26.005-22.689,13.799,9.298
		c14.417-31.045,15.62-30.784,16.887,3.413c1.284-34.197,2.487-34.458,16.903-3.413c-6.322-16.579-9.103-24.737-6.842-25.502
		c0.455,0.049,0.926,0.099,1.381,0.146c2.99,1.121,9.168,6.632,19.261,16.059c-6.421-6.891-11.021-11.945-13.669-15.424
		c3.201,0.472,6.729,1.268,10.418,2.111c9.005,2.049,18.318,4.179,24.56,1.627c4.097-1.707,6.29-6.664,6.519-7.233
		c0.13-0.292,0.26-0.617,0.356-0.959l0.017,0.065l0.064-0.146l0.018-0.064c0,0,0.356-0.99,0.648-1.819
		c0.717,0.602,1.528,1.12,2.438,1.526l0.05,0.018c0.521,0.228,1.073,0.422,1.608,0.585c0.017,0,0.895,0.243,0.895,0.243l0.846,0.162
		l-0.082-0.017l0.684,0.114l1.17,0.098c0.099,0,0.91,0.049,1.805-0.017c0.941-0.081,1.854-0.261,2.698-0.536l0.049-0.018
		c0.845-0.309,1.576-0.697,2.243-1.17c0.064,0.375,0.162,0.748,0.373,1.072c0.488,0.812,1.316,1.366,2.275,1.496l3.981,0.536
		c2.081,0.276,3.202-0.731,3.56-1.771c0,0.016,0.032-0.099,0.032-0.099c0-0.017,0.049-0.13,0.049-0.13l0.31-0.829l0.017-0.065
		l0.099-0.309l0.324-0.91c0.229-0.666,0.504-1.332,0.812-1.981c0.031-0.082,0.064-0.146,0.113-0.229
		c0.032,0.033,0.049,0.065,0.082,0.098c0.438,0.392,0.779,0.684,1.315,0.861c0.942,0.311,0.976,0.311,1.153,0.342l0.05,0.018
		c0.211,0.031,0.31,0.049,1.381-0.018c0.683-0.031,1.382-0.342,2.097-0.91c1.105-0.894,1.365-2.047,1.432-2.373
		c0.179-1.023,0.179-1.187,0.179-1.348L184.153,98.638L184.153,98.638z M19.199,105.626v0.064c0,0,0,0,0,0.017
		C19.199,105.675,19.199,105.644,19.199,105.626L19.199,105.626z M39.808,89.389c0-0.016,0-0.049,0-0.065v-0.016V89.389
		L39.808,89.389z M42.458,103.757L42.458,103.757c0.032,0.032,0.065,0.081,0.097,0.114C42.506,103.838,42.49,103.806,42.458,103.757
		L42.458,103.757z M42.88,104.31h0.016c0,0.018,0.049,0.082,0.049,0.082L42.88,104.31L42.88,104.31z M43.774,90.982
		c0.065,0,0.13-0.017,0.228-0.017C43.92,90.965,43.855,90.982,43.774,90.982L43.774,90.982z M135.703,106.228
		c-2.976,0.78-13.994-0.098-20.252-0.828l-0.585-0.065c-0.114-0.017-0.229-0.017-0.342-0.032c0.017,0,0.033,0,0.033,0l-0.424-0.049
		c-0.438-0.243-0.861-0.486-1.252-0.715l0,0c1.203,0.049,2.309-0.098,3.268-0.406c0.976-0.324,1.886-0.797,2.666-1.414l0.049-0.049
		c0.017,0,0.017-0.018,0.031-0.018c0.082,0.244,0.181,0.505,0.342,0.731c0.537,0.813,1.432,1.302,2.438,1.351l3.981,0.193
		c1.689,0.098,2.941-0.601,3.381-1.869c-0.018,0.018,0.031-0.113,0.031-0.113l0.033-0.113c0.017-0.016,0.326-0.877,0.326-0.877
		l0.016-0.049l0.098-0.325l0.325-0.942c0.228-0.684,0.504-1.382,0.812-2.049c0.081-0.179,0.163-0.324,0.244-0.454
		c0.032,0.017,0.049,0.048,0.081,0.081c0.455,0.357,0.78,0.617,1.302,0.764c0.096,2.031,0.877,3.771,2.307,5.022
		c0.781,0.698,1.643,1.187,2.568,1.544C136.743,105.821,136.256,106.065,135.703,106.228L135.703,106.228z M143.586,96.947h-0.032
		h-0.017c0.032,0,0.032,0,0.065,0.016L143.586,96.947L143.586,96.947z M177.214,94.265c0.018,0,0.018,0,0.033-0.016
		c0,0,0.016,0,0.031,0L177.214,94.265L177.214,94.265z"/>
	<path fill="#FFFFFF" d="M182.594,98.296l-0.228-0.829l-0.049-0.081l-0.357-0.683l-0.081-0.098c-0.31-0.309-0.812-0.731-1.153-0.959
		l-0.064-0.049l-0.374-0.163c-0.356-0.146-0.731-0.26-1.104-0.309l-0.797-0.082c-0.293,0-0.585,0.033-0.878,0.082
		c-0.569,0.098-1.153,0.26-1.723,0.503l-0.748,0.342c-0.032,0.016-0.081,0-0.099-0.017c-0.049-0.065-0.486-0.65-1.219-1.105
		c-0.699-0.423-1.283-0.601-1.349-0.618l-1.22-0.341h-0.017l-0.358-0.049h-0.031c-0.26-0.016-0.877,0.033-1.235,0.082
		c-0.228,0.016-2.323,0.276-3.526,1.414c-1.039,0.992-1.819,2.356-1.854,2.406c0,0-0.031,0.065-0.081,0.146
		c0.065-0.261,0.099-0.535,0.099-0.828c0-0.065,0-0.113,0-0.162c-0.032-0.943-0.392-1.724-1.09-2.357
		c-0.584-0.537-1.057-0.78-1.104-0.813l-0.976-0.471h-0.017l-0.099-0.033l0.064,0.017l-0.926-0.341h-0.049l-0.406-0.098
		c-0.438-0.098-0.895-0.163-1.333-0.211l-0.926-0.082h-0.959c-1.496,0.033-2.927,0.342-4.259,0.927
		c-0.032-0.292-0.098-0.585-0.244-0.829c-0.211-0.325-0.52-0.52-0.877-0.552l-4.178-0.406c-0.586-0.049-1.023,0.016-1.334,0.178
		c-0.097-0.048-0.471-0.292-1.071-0.52c-0.65-0.26-1.316-0.406-1.983-0.471l-0.39-0.016h-0.114c-0.324,0-0.975,0.114-1.17,0.163
		c-0.113,0.016-2.373,0.455-3.98,1.544c-0.018-0.082-0.033-0.146-0.065-0.244l-0.017-0.082l-0.424-0.764l-0.097-0.098
		c-0.31-0.276-0.829-0.667-1.171-0.861l-0.081-0.049l-0.374-0.13c-0.374-0.13-0.747-0.211-1.121-0.227h-0.812
		c-0.275,0.016-0.584,0.065-0.877,0.146c-0.569,0.13-1.154,0.357-1.707,0.634l-0.779,0.423c-0.018,0-0.064,0-0.082-0.017
		c-0.032-0.049-0.471-0.585-1.235-0.991c-0.698-0.374-1.282-0.504-1.349-0.52l-1.252-0.228h-0.016l-0.357-0.016h-0.033
		c-0.26,0.016-0.877,0.113-1.219,0.179c-0.244,0.049-2.324,0.471-3.512,1.69c-1.022,1.04-1.918,2.698-1.949,2.763l-0.473,0.878
		c0,0-0.309,0.585-0.356,0.699c-0.032,0.049-0.228,0.358-0.228,0.358s-0.229,0.341-0.244,0.357c-0.049,0.032-0.698,0.65-0.698,0.65
		c0-0.017-0.033,0.016-0.05,0.032c0.162-0.473,0.488-1.365,0.488-1.365l0.568-1.69l0.568-1.625l0.293-0.845
		c0.179-0.471,0.129-0.959-0.131-1.349c-0.261-0.374-0.683-0.618-1.187-0.634l-4.129-0.13c-0.715-0.033-1.397-0.016-1.625,0.521
		c-0.017,0.033-0.017,0.033-0.033,0.049c0-0.016,0.017-0.065,0.017-0.065l-0.031,0.049c0,0,0,0.032,0,0.049l0,0
		c-0.018,0.016-0.032,0.032-0.032,0.032l-0.082,0.195l-0.032,0.114c0,0,0,0.049-0.017,0.081c0,0,0,0.032,0,0.049l-0.05,0.114
		l-0.031,0.065l-0.26,0.748c-0.018,0.033-0.131,0.357-0.131,0.357l-0.098,0.341c-0.017,0-0.504,1.366-0.504,1.366l-0.536,1.251
		c-0.276,0.569-0.553,0.942-0.553,0.942c-0.212,0.276-0.569,0.699-0.86,1.008c0.031-0.065,0.08-0.195,0.08-0.195l0.309-0.926
		l0.603-1.69c0-0.017,0.569-1.707,0.569-1.707l0.309-0.894c0.064-0.195,0.098-0.374,0.098-0.553c0-0.276-0.082-0.569-0.244-0.796
		c-0.26-0.39-0.698-0.602-1.202-0.618l-4.16-0.082c-0.358,0-0.716,0.13-1.024,0.309c0.018-0.195,0.049-0.374,0.049-0.585
		c0-1.088-0.39-1.999-1.17-2.682c-0.649-0.585-1.365-0.926-1.397-0.942l-0.861-0.439l-0.098-0.049l-0.261-0.081
		c-1.088-0.39-2.438-0.667-3.981-0.829c-1.544-0.146-3.267-0.228-5.136-0.195c-0.991,0-2.259,0.13-2.308,0.13l-1.658,0.179
		c-0.098,0-2.389,0.276-3.267,0.455c-0.975,0.211-1.853,0.504-2.617,0.894c-0.812,0.422-1.446,0.959-1.885,1.577l-0.39,0.666
		l-0.211,0.667c0,0.016-0.048,0.634-0.048,0.634v0.195l0.016,0.049c0,0.016,0,0.032,0,0.032c-0.357-0.081-0.715-0.114-1.073-0.097
		l-0.796,0.081c-0.292,0.049-0.585,0.13-0.878,0.244c-0.569,0.195-1.154,0.471-1.69,0.796l-0.813,0.537c0,0-0.033,0-0.033-0.016
		c-0.049-0.049-0.471-0.521-1.251-0.862c-0.731-0.309-1.316-0.374-1.381-0.374l-1.251-0.114H68.69l-0.357,0.016L68.3,89.486
		c-0.26,0.033-0.861,0.195-1.203,0.293c-0.098,0.032-2.292,0.683-3.479,2.031c-1.04,1.17-1.966,3.023-1.999,3.104l-0.423,0.845
		L61.1,95.988l-0.049,0.082c0,0-0.146,0.325-0.179,0.39c-0.032,0.049-0.195,0.325-0.227,0.391c-0.049,0.064-0.618,0.845-0.667,0.894
		s-0.244,0.26-0.292,0.324c0.065-0.194,0.114-0.391,0.114-0.391l0.487-1.495l0.78-2.243c0-0.016,0.39-1.138,0.39-1.138
		c0-0.017,0.13-0.39,0.13-0.39c0.049-0.179,0.082-0.341,0.082-0.504c0-0.309-0.098-0.585-0.276-0.829
		c-0.292-0.358-0.748-0.553-1.268-0.521l-4.308,0.309c-0.26,0.017-1.056,0.114-1.462,0.602c-0.195-0.097-0.537-0.244-1.041-0.357
		c-0.683-0.163-1.219-0.163-1.268-0.163l-0.976,0.016c-0.016,0-0.309,0.033-0.309,0.033l-0.455,0.082l-0.585,0.129
		c-0.033,0.017-0.91,0.212-1.755,0.602c-0.845,0.39-1.593,0.878-2.243,1.431c-0.244,0.195-0.471,0.422-0.683,0.666
		c0.049-0.163,0.098-0.39,0.098-0.683c0-0.325-0.065-0.683-0.292-0.959c-0.163-0.228-0.423-0.341-0.699-0.374
		c0.098-0.26,0.358-1.073,0.358-1.073l0.374-1.122l0.13-0.374c0.065-0.195,0.097-0.374,0.097-0.552c0-0.325-0.097-0.618-0.309-0.845
		c-0.292-0.325-0.748-0.455-1.203-0.341c-0.017,0-0.358,0.081-0.358,0.081c-0.016,0-0.991,0.228-0.991,0.228
		c-0.033,0.017-2.016,0.504-2.016,0.504c-0.016,0-1.219,0.292-1.219,0.292c-0.309,0.082-0.585,0.228-0.829,0.423l0.016-0.488
		c0-0.032,0-0.081,0-0.114c0-1.203-0.503-2.178-1.479-2.795c-0.829-0.537-1.836-0.846-1.869-0.862
		c-0.406-0.13-0.991-0.276-1.251-0.325l-0.163-0.033c-0.016,0-0.244-0.032-0.244-0.032L31.972,84.4l-0.569,0.032l-0.667,0.033
		l-1.707,0.162l0,0l-0.406,0.082l-1.268,0.276c-1.771,0.455-3.462,1.186-5.039,2.194c-1.674,1.057-2.796,2.422-3.332,4.08
		c-0.13,0.456-0.244,0.878-0.309,1.268l-0.065,0.357v0.033v0.033c-0.016,0.129-0.016,0.292-0.016,0.471
		c0,0.407,0.033,0.894,0.098,1.284c0.033,0.195,0.374,1.951,1.414,2.925c0.894,0.846,2.227,1.788,2.275,1.821
		c0.341,0.26,0.553,0.405,0.715,0.503c0.016,0,0.211,0.18,0.211,0.18s0.049,0,0.065,0c0.065,0.049,0.568,0.406,0.568,0.406
		s0.959,0.697,1.642,1.316c0.552,0.486,0.812,1.088,0.812,1.836l-0.033,0.373l-0.097,0.488c-0.26,1.008-0.813,1.82-1.658,2.422
		c-0.877,0.635-2.21,1.041-2.21,1.041s-0.618,0.178-0.764,0.228c-0.081,0-0.894,0.016-0.894,0.016c-0.39,0-1.512-0.081-2.194-0.422
		c-0.438-0.228-1.056-0.698-1.072-2.063c0,0.017,0.032-0.392,0.032-0.392l0.114-0.666c0.016-0.162,0.114-0.356,0.26-0.553
		l0.195-0.276c0.049-0.049,0.455-0.455,0.455-0.455l0.098-0.08l0.049-0.05c0,0,0.179-0.161,0.228-0.194
		c0.016-0.017,0.032-0.032,0.032-0.032l0.309-0.276c0,0.018,0.26-0.65,0.26-0.65c0-0.193-0.049-0.486-0.325-0.778l-0.325-0.325
		c-0.439-0.472-1.008-0.779-1.674-0.91c-0.569-0.113-1.171-0.113-1.789-0.033l-0.65,0.114l-0.731,0.228
		c-1.3,0.521-2.292,1.301-2.942,2.341c-0.65,1.024-0.829,2.211-0.829,2.26c-0.146,0.878-0.146,0.991-0.146,1.04l0.017,0.325
		l0.13,0.666l0.097,0.423c0.017,0.081,0.195,0.878,0.699,1.658c0.503,0.812,1.219,1.445,2.097,1.9
		c1.089,0.568,2.389,0.959,3.868,1.105c1.43,0.162,2.958,0.13,4.535-0.098l0.845-0.131l0.845-0.179
		c2.73-0.569,5.331-1.642,7.737-3.153c1.901-1.203,3.462-3.43,4.096-4.438c0.13,0.13,0.244,0.261,0.341,0.357
		c0.114,0.113,0.423,0.342,1.057,0.537c0.602,0.161,0.959,0.178,1.04,0.178h0.991l0.992-0.178c0.033,0,1.024-0.195,1.82-0.57
		c0.78-0.373,1.479-0.846,2.048-1.413c0.26-0.244,0.455-0.487,0.617-0.683c0.065,0.098,0.13,0.162,0.13,0.162
		c0.602,0.698,1.316,1.17,2.146,1.43c0.747,0.229,1.381,0.261,1.446,0.261c0.016,0,1.024,0,1.024,0l0.341-0.032l0.764-0.195
		l0.292-0.063c0.033-0.017,0.764-0.195,1.544-0.618c0.602-0.325,1.105-0.697,1.3-0.861c0.163,0.18,0.504,0.521,1.138,0.78
		c0.683,0.261,1.219,0.31,1.284,0.31l0.991,0.049c0.163-0.016,1.024-0.211,1.024-0.211c0.309-0.065,2.958-0.699,4.145-2
		c1.122-1.202,2.227-3.314,2.276-3.396l0.438-0.861c0,0,0.098-0.211,0.13-0.275c0-0.016,0.049-0.13,0.065-0.162
		c0.016-0.017,0.536-0.878,0.536-0.878s0.146-0.228,0.472-0.601c0.179-0.195,0.374-0.309,0.585-0.406
		c-0.033,0.065-0.13,0.341-0.13,0.341c0,0.016-1.983,5.672-1.983,5.672c-0.065,0.179-0.098,0.356-0.098,0.537
		c0,0.292,0.098,0.567,0.276,0.812c0.276,0.375,0.731,0.568,1.235,0.536l3.999-0.211c0.537-0.017,1.463-0.18,1.69-0.896l0.081-0.242
		l0.309-0.895l0.114-0.357l0.325-0.991c0.26-0.797,0.553-1.562,0.894-2.324c0.309-0.715,0.715-1.333,0.715-1.349l0.927-1.317
		c-0.017,0.017,0.081-0.065,0.146-0.13c0.098,0.244,0.211,0.504,0.211,0.504c0.032,0.081,0.244,0.553,0.812,0.959
		c0.471,0.325,0.569,0.39,0.796,0.422c0.878,0.114,0.91,0.114,0.991,0.114c0.065,0,0.13,0,1.041-0.228
		c0.179-0.032,0.569-0.195,1.105-0.731c0.65-0.634,0.78-1.381,0.796-1.462c0.162-0.878,0.162-1.024,0.162-1.073l-0.016-0.422
		c-0.016-0.049-0.016-0.163-0.163-0.666c0.228,0.016,0.667,0.016,0.667,0.016l0.146,0.016l0.081-0.049c0,0,0.341-0.081,0.39-0.098
		c-0.91,2.779-2.048,6.079-2.519,7.477l-0.211,0.617c-0.146,0.406-0.325,0.781-0.569,1.104c-0.26,0.357-0.553,0.716-0.878,1.041
		l-0.13,0.13c0,0.018-0.032,0.049-0.032,0.049c-0.179,0.18-0.26,0.406-0.26,0.649c0,0.049,0,0.099,0.016,0.146
		c0.032,0.211,0.146,0.392,0.309,0.537c-0.683-0.017-1.414-0.033-2.21-0.05c-4.405-0.048-7.785,0.229-9.037,0.343
		c-12.645,1.25-30.622,10.791-31.386,11.197c-1.04,0.553-0.764,1.139-0.666,1.333c0.374,0.765,1.187,0.423,1.447,0.31
		c0.081-0.049,8.126-3.479,14.742-4.34c2.633-0.324,4.827-0.422,6.501-0.261c1.3,0.146,4.713,1.122,4.762,1.122
		c0.683,0.194,1.609,0.049,2.194-0.342c0.016-0.016,1.219-0.829,3.072-1.805c3.283-1.771,7.899-2.877,13.734-3.299
		c4.567-0.326,11.166,0.064,19.065,1.138c1.674,0.243,4.876,0.553,5.006,0.553l1.089,0.13l0.05,0.018l0.293,0.031
		c3.737,0.374,7.979,1.35,12.449,2.373c8.76,1.982,17.813,4.063,23.583,1.69c3.576-1.479,5.575-6.16,5.673-6.354
		c0.146-0.373,0.26-0.65,0.325-0.878c0,0.017,0.017,0.05,0.017,0.05l0.064-0.195l1.139-3.219c0,0,0.211-0.602,0.405-1.121
		c0.146,0.244,0.31,0.486,0.505,0.73c0.846,0.991,1.918,1.805,3.217,2.389c0.488,0.195,0.977,0.375,1.463,0.537l0.717,0.194
		l0.861,0.163l0.471,0.081l1.105,0.081c0.032,0,0.764,0.049,1.561-0.016c0.812-0.065,1.593-0.211,2.324-0.455
		c1.268-0.455,2.274-1.123,3.006-2c0.635-0.765,1.253-1.787,1.269-1.836l0.438-0.731l0.017-0.017l0.032-0.064
		c0.018-0.018,0.064-0.146,0.098-0.195c0-0.017,0.049-0.098,0.065-0.13c0.017-0.017,0.553-0.829,0.553-0.829
		c0,0.018,0.099-0.13,0.406-0.406c0.211-0.194,0.438-0.293,0.698-0.309c-0.017,0.081-0.211,0.585-0.211,0.585l-1.935,5.185
		c-0.081,0.195-0.114,0.392-0.114,0.569c0,0.275,0.082,0.536,0.211,0.765c0.244,0.39,0.65,0.666,1.123,0.73l3.981,0.536
		c0.976,0.13,1.642-0.113,1.836-0.715c0,0.016,0.032-0.099,0.032-0.099c0-0.017,0.05-0.129,0.05-0.129l0.31-0.847l0.112-0.325
		l0.325-0.926c0.244-0.748,0.535-1.463,0.878-2.146c0.293-0.633,0.649-1.121,0.649-1.121s0.765-0.959,0.959-1.188
		c0.017-0.031,0.049-0.048,0.082-0.081c0.129,0.325,0.26,0.667,0.26,0.667c0.031,0.098,0.244,0.617,0.764,1.072
		c0.455,0.406,0.568,0.488,0.73,0.536c0.847,0.276,0.879,0.276,0.943,0.293c0.081,0.017,0.162,0.017,1.072-0.032
		c0.229,0,0.618-0.113,1.188-0.568c0.666-0.537,0.812-1.252,0.844-1.383c0.146-0.894,0.146-1.023,0.146-1.072L182.594,98.296
		L182.594,98.296z M159.417,95.825c0,0.017,0.016,0.065,0.016,0.114c-0.016,0.667-0.324,0.943-0.584,1.089
		c-0.504,0.324-1.058,0.471-1.058,0.471c-0.31,0.064-0.683,0.163-0.976,0.212c0.017-0.033,0.033-0.082,0.033-0.082
		c0.243-0.567,0.584-1.072,1.039-1.527c0.311-0.276,0.603-0.325,0.618-0.325C158.767,95.76,159.157,95.776,159.417,95.825
		L159.417,95.825z M161.399,101.399c-0.846,0.603-1.901,0.83-3.219,0.684c-0.553-0.064-0.976-0.261-1.301-0.568
		c-0.064-0.05-0.113-0.113-0.162-0.18c0.131,0,0.229,0,0.229,0c0.634,0,1.283-0.032,1.949-0.13c1.235-0.179,2.391-0.536,3.431-1.104
		c0.26-0.131,0.487-0.31,0.698-0.488C162.685,100.084,162.033,100.961,161.399,101.399L161.399,101.399z M144.14,94.752
		L144.14,94.752c0-0.016,0-0.016,0-0.016C144.14,94.752,144.14,94.752,144.14,94.752L144.14,94.752z M143.878,95.5l-0.016,0.032
		l-0.131,0.504c-0.146,0.471-0.309,0.958-0.504,1.479c-0.275,0.797-0.649,1.495-1.104,2.113c-0.31,0.406-0.666,0.585-1.138,0.585
		c-0.018-0.049-0.032-0.065-0.049-0.098c0-0.032,0-0.065,0-0.065c-0.018,0-0.033-0.26-0.033-0.26c0-0.26,0.05-0.585,0.131-0.928
		c0.098-0.372,0.244-0.764,0.423-1.137c0.243-0.568,0.553-1.104,0.91-1.608c0.325-0.472,0.504-0.65,0.504-0.65
		c0.276-0.26,0.634-0.553,0.812-0.683c0.064-0.017,0.146-0.049,0.18-0.065c0.063,0,0.098,0,0.146-0.016
		c0.017,0.016,0.017,0.016,0.032,0.033c0.018,0.049,0.018,0.065,0.031,0.13C144.024,95.013,143.878,95.5,143.878,95.5L143.878,95.5z
		 M120.312,97.499l0.455-0.877c0,0,0.082-0.163,0.113-0.244c0-0.017,0.032-0.081,0.049-0.113c0.018-0.033,0.553-0.846,0.553-0.846
		c-0.017,0,0.115-0.179,0.438-0.504c0.195-0.195,0.423-0.309,0.649-0.357c0,0.016-0.178,0.487-0.178,0.487l-1.968,5.396
		c-0.063,0.18-0.098,0.375-0.098,0.554c0,0.276,0.081,0.553,0.243,0.796c0.244,0.374,0.684,0.618,1.171,0.634l3.999,0.212
		c0.552,0.016,1.527-0.049,1.771-0.797l0.081-0.229c0-0.016,0.325-0.877,0.325-0.877l0.099-0.342l0.323-0.959
		c0.261-0.764,0.554-1.512,0.896-2.227c0.309-0.667,0.683-1.219,0.683-1.219s0.812-1.073,0.942-1.235
		c0.017-0.016,0.064-0.065,0.113-0.114c0.131,0.292,0.243,0.602,0.243,0.602c0.033,0.081,0.244,0.585,0.798,1.008
		c0.438,0.357,0.553,0.438,0.764,0.487c0.861,0.212,0.877,0.212,0.959,0.212c0,0,0.113,0,0.228-0.017
		c-0.049,0.26-0.081,0.567-0.081,0.926l0,0c0,1.771,0.602,3.201,1.788,4.242c1.138,0.991,2.47,1.561,3.949,1.674l0.487,0.033
		l0.488-0.018c0,0,0.016,0,0.031,0c-0.568,0.779-2.113,2.585-4.486,3.268c-4.291,1.153-20.723-0.765-20.885-0.779
		c-0.342-0.049-0.617-0.082-0.878-0.065c0.017,0,0.032-0.032,0.032-0.032l-0.715-0.08l-1.235-0.131
		c-2.715-0.195-4.372-0.342-5.104-0.439c-0.017,0-5.803-0.666-5.803-0.666l-1.431-0.162c-2.146-0.243-4.209-0.438-6.192-0.617
		c0.455-0.049,1.268-0.162,1.999-0.357c1.024-0.293,1.983-0.666,2.812-1.138c0.86-0.487,1.593-1.122,2.227-1.853
		c0.699,0.861,1.739,1.315,3.104,1.332c1.201,0.017,2.34-0.244,3.396-0.812c0.65-0.342,1.269-0.797,1.642-1.089
		c0.18,0.374,0.537,0.894,1.09,1.269c0.779,0.504,1.707,0.779,2.73,0.812s1.934-0.099,2.729-0.356
		c0.797-0.261,1.528-0.635,2.179-1.139c0.666-0.553,1.234-1.203,1.706-1.934C119.97,98.149,120.312,97.517,120.312,97.499
		L120.312,97.499z M90.438,94.818c0.049-0.13,0.081-0.228,0.13-0.309c0.049-0.016,0.081-0.016,0.081-0.016h0.082l0.098-0.017
		l0.162-0.016c0.65,0,1.138,0.163,1.479,0.504c0.358,0.341,0.521,0.812,0.521,1.446l0,0c0,0.423-0.065,0.667-0.082,0.667
		c-0.13,0.373-0.406,0.975-0.618,1.316c0,0-0.162,0.242-0.52,0.551c-0.292,0.262-0.634,0.473-1.024,0.636
		c-0.39,0.162-0.764,0.243-1.17,0.243c-0.244,0.017-0.472-0.032-0.699-0.098c0,0-0.032,0-0.065-0.017c0-0.017,0-0.032,0-0.065
		c0-0.016,0-0.049,0-0.08L90.438,94.818L90.438,94.818z M101.425,92.851c0-0.017-0.374,1.089-0.472,1.381
		c-0.325-0.341-0.731-0.634-1.089-0.878c0.634-0.309,1.234-0.682,1.771-1.154C101.522,92.542,101.425,92.851,101.425,92.851
		L101.425,92.851z M95.411,89.373c-0.195,0.276-0.617,0.683-0.91,0.894c-0.146,0.065-0.877,0.406-1.024,0.472
		c-0.39,0.081-1.008,0.146-1.349,0.146c-0.098,0-0.228-0.017-0.342-0.033c0.065-0.179,0.13-0.374,0.13-0.374
		c0,0.032,0.081-0.179,0.081-0.179l0.211-0.617c0.228-0.634,0.585-1.187,1.105-1.674c0.455-0.422,0.991-0.634,1.609-0.634
		c0.374,0,0.715,0.065,0.991,0.179c0.016,0.017,0.065,0.082,0.065,0.309C95.979,88.446,95.573,89.145,95.411,89.373L95.411,89.373z
		 M145.13,92.103c-0.064,0.082-0.113,0.146-0.146,0.244C145.017,92.25,145.065,92.168,145.13,92.103L145.13,92.103z M110.899,90.234
		h0.018c0,0-0.018,0-0.018,0.016V90.234L110.899,90.234z M49.853,100.36c0-0.033,0.016-0.342,0.016-0.342l0.033-0.18
		c0,0,0.049-0.244,0.065-0.324c0.017-0.033,0.082-0.293,0.082-0.293c-0.017,0.016,0.113-0.488,0.146-0.602
		c0.016-0.049,0.049-0.114,0.049-0.114l0.114-0.341c0.049-0.163,0.163-0.406,0.325-0.699l0.553-0.942
		c0.276-0.455,0.601-0.895,0.959-1.284c0.292-0.341,0.585-0.585,0.845-0.731c-0.016,0.228-0.049,0.471-0.13,0.764l-0.244,0.829
		l-0.471,1.219c0,0.017-0.195,0.472-0.228,0.553c-0.033,0.049-0.731,1.252-0.731,1.252c0,0.016-0.26,0.438-0.65,0.895
		c-0.228,0.26-0.472,0.405-0.731,0.486c0-0.031,0-0.031,0-0.064C49.853,100.44,49.853,100.394,49.853,100.36L49.853,100.36z
		 M36.752,91.908c0,0.016-0.098,0.325-0.098,0.325l-0.114,0.309c-0.017,0.049-0.033,0.082-0.065,0.114
		c-0.406,0.098-1.365,0.438-1.609,1.154c0,0-0.13,0.39-0.13,0.845c0,0.309,0.065,0.65,0.276,0.911
		c0.114,0.13,0.26,0.228,0.423,0.276c-0.033,0.097-0.065,0.211-0.114,0.341c-0.195-0.325-0.422-0.65-0.699-0.926
		c-1.04-1.04-2.649-2.194-2.73-2.243c-0.325-0.228-0.78-0.521-1.057-0.683c-0.016-0.017-0.146-0.082-0.146-0.082l-0.52-0.325
		l-0.455-0.26l-0.179-0.098c-0.146-0.098-0.585-0.406-0.942-0.683l-0.357-0.358c-0.017,0-0.114-0.113-0.179-0.195
		c-0.065-0.228-0.098-0.422-0.114-0.536v-0.016c0.033-0.065,0.163-0.358,0.358-0.715c0.016-0.033,0.13-0.179,0.438-0.358
		c0.407-0.26,0.715-0.325,0.715-0.325s0.536-0.129,0.731-0.178c0.114,0.016,0.78,0.016,0.78,0.016s0.406,0.016,0.829,0.211
		c0.325,0.146,0.39,0.293,0.39,0.521l-0.016,0.13l-0.033,0.195c-0.081,0.309-0.13,0.423-0.146,0.456c0,0-0.033,0.016-0.049,0.049
		c-0.098,0.097-0.357,0.325-0.357,0.325l-0.195,0.163c-0.357,0.276-0.52,0.65-0.471,1.024c0.049,0.341,0.26,0.618,0.585,0.764
		l-0.081-0.049l0.179,0.097l0.585,0.26l0.456,0.179h0.032l0.796,0.114l0.39,0.017l0.487-0.049c0.195-0.033,0.943-0.228,1.122-0.292
		c0.065-0.017,0.553-0.163,1.17-0.585c0.098-0.065,0.163-0.13,0.244-0.195C36.817,91.746,36.752,91.908,36.752,91.908L36.752,91.908
		z M43.627,95.858c-0.276,0.503-0.357,0.731-0.374,0.812c-0.13,0.392-0.39,1.041-0.568,1.431l-0.195,0.357
		c-0.179,0.342-0.309,0.473-0.309,0.473s-0.39,0.454-0.569,0.649c0.033-0.114,0.098-0.293,0.098-0.293l0.374-1.153l0.52-1.594
		l0.179-0.568l0.195-0.569c0.049-0.114,0.13-0.211,0.162-0.26c0.244-0.049,0.797-0.179,1.252-0.471
		C44.115,95.045,43.855,95.435,43.627,95.858L43.627,95.858z M34.542,103.497L34.542,103.497L34.542,103.497L34.542,103.497
		L34.542,103.497z"/>
	<path fill="#B11116" d="M182.058,98.328c-0.017-0.063-0.113-0.39-0.195-0.715c0,0,0,0-0.161-0.276
		c-0.146-0.293-0.146-0.293-0.146-0.293c-0.261-0.26-0.716-0.649-1.009-0.845c0,0,0,0-0.292-0.13
		c-0.293-0.13-0.585-0.211-0.895-0.26c-0.229-0.033-0.455-0.049-0.684-0.049c-0.228-0.016-0.471,0.016-0.715,0.049
		c-0.521,0.081-1.023,0.228-1.527,0.439c-0.488,0.211-0.684,0.325-0.684,0.325c-0.391,0.211-0.941,0.097-1.219-0.276
		c0,0-0.357-0.488-0.977-0.878c-0.617-0.374-1.137-0.536-1.137-0.536c-0.423-0.13-0.927-0.26-1.105-0.309c0,0,0,0-0.146-0.016
		s-0.146-0.016-0.146-0.016c-0.162,0-0.666,0.032-1.121,0.081c0,0-1.983,0.195-3.008,1.17c-0.976,0.926-1.707,2.21-1.707,2.21
		c-0.211,0.406-0.422,0.766-0.455,0.812c-0.017,0.049-0.293,0.504-0.535,0.895c0,0-0.942,1.495-1.983,2.227
		c-1.022,0.731-2.308,1.008-3.819,0.83c-0.746-0.082-1.365-0.343-1.819-0.798c-0.455-0.438-0.603-0.991-0.603-0.991
		c-0.13-0.438,0.146-0.748,0.586-0.699c0,0,0.113,0.018,0.698,0.018c0.603,0,1.203-0.031,1.837-0.13
		c1.121-0.146,2.178-0.487,3.12-0.991c0.959-0.521,1.415-1.316,1.366-2.422c-0.018-0.699-0.293-1.268-0.797-1.739
		c-0.521-0.471-0.928-0.683-0.928-0.683c-0.405-0.195-0.779-0.39-0.845-0.423c0,0,0,0-0.049-0.016
		c-0.065-0.016-0.065-0.016-0.065-0.016c-0.063-0.016-0.438-0.163-0.828-0.292c0,0,0,0-0.406-0.098
		c-0.406-0.082-0.812-0.146-1.251-0.195c-0.276-0.033-0.569-0.065-0.861-0.082c-0.293,0-0.585,0-0.896,0
		c-1.396,0.033-2.713,0.325-3.948,0.877c-0.603,0.26-0.878,0.504-0.878,0.504c-0.357,0.276-0.52,0.179-0.374-0.244
		c0.146-0.406,0.163-1.544-0.276-1.593L147,92.347c-0.455-0.033-0.845,0.016-0.894,0.13c-0.033,0.098-0.439,0.179-0.83-0.065
		c0,0-0.356-0.244-0.926-0.471c-0.568-0.211-1.139-0.358-1.724-0.407c-0.112,0-0.211-0.016-0.325-0.016c-0.113,0-0.113,0-0.113,0
		c-0.113,0-0.568,0.065-1.023,0.146c0,0-2.486,0.455-3.934,1.625c-0.342,0.276-0.342,0.276-0.342,0.276
		c-0.31,0.325-0.553,0.52-0.553,0.423c0.018-0.082,0.032-0.406,0.032-0.455c0-0.065-0.017-0.292-0.017-0.358
		c0-0.065-0.131-0.503-0.211-0.812c0,0,0,0-0.162-0.276c-0.146-0.276-0.146-0.276-0.146-0.276c-0.26-0.244-0.715-0.585-1.023-0.764
		c0,0,0,0-0.293-0.098c-0.293-0.098-0.584-0.163-0.894-0.179c-0.229-0.016-0.456-0.016-0.683,0
		c-0.244,0.016-0.473,0.049-0.717,0.114c-0.535,0.13-1.039,0.325-1.543,0.569c-0.505,0.26-0.716,0.39-0.716,0.39
		c-0.391,0.244-0.927,0.146-1.22-0.211c0,0-0.342-0.423-0.959-0.764c-0.617-0.325-1.137-0.438-1.137-0.438
		c-0.439-0.082-0.943-0.179-1.123-0.211c0,0,0,0-0.146-0.016c-0.162,0-0.162,0-0.162,0c-0.161,0-0.649,0.081-1.089,0.163
		c0,0-2.031,0.39-3.056,1.446c-0.943,0.975-1.806,2.568-1.806,2.568c-0.211,0.407-0.422,0.781-0.438,0.846
		c-0.032,0.048-0.244,0.455-0.406,0.748c0,0,0,0-0.244,0.39c-0.244,0.391-0.356,0.504-0.356,0.504
		c-0.325,0.311-0.683,0.634-0.798,0.73c0,0,0,0-0.096,0.065c-0.099,0.081-0.099,0.081-0.099,0.081
		c-0.114,0.081-0.343,0.229-0.521,0.293c0,0,0,0-0.146,0.064c-0.13,0.049-0.275,0.08-0.391,0.064c-0.129,0-0.228-0.032-0.293-0.113
		c-0.063-0.064-0.112-0.18-0.112-0.342c0-0.113,0.017-0.229,0.032-0.357c0.031-0.129,0.064-0.275,0.129-0.438
		c0.195-0.536,0.408-1.089,0.586-1.642c0.195-0.536,0.391-1.105,0.568-1.658c0.178-0.553,0.375-1.089,0.569-1.642
		c0.194-0.552,0.31-0.861,0.31-0.861c0.162-0.422-0.082-0.78-0.537-0.796l-4.129-0.146c-0.455-0.016-0.812,0-0.828,0.017
		c0,0,0,0,0,0.016c-0.017,0.016-0.017,0.016-0.017,0.016c0,0.032-0.017,0.049-0.017,0.065c-0.018,0.016-0.032,0.065-0.049,0.082
		c0,0,0,0-0.018,0.032c-0.016,0.033-0.016,0.033-0.016,0.033c0,0.049-0.018,0.146-0.049,0.228c0,0,0,0-0.032,0.082
		c-0.017,0.065-0.017,0.065-0.017,0.065c-0.033,0.081-0.164,0.455-0.293,0.796c0,0,0,0-0.113,0.342
		c-0.114,0.325-0.114,0.325-0.114,0.325c-0.112,0.358-0.341,0.992-0.504,1.414c0,0-0.261,0.634-0.567,1.3
		c-0.31,0.683-0.65,1.106-0.65,1.106c-0.276,0.356-0.747,0.927-1.057,1.251c0,0-0.099,0.098-0.406,0.244
		c-0.293,0.146-0.537,0.229-0.748,0.211c-0.18,0-0.309-0.031-0.373-0.113c-0.082-0.098-0.114-0.194-0.114-0.31
		c0-0.081,0.017-0.179,0.049-0.26C107,97.013,107,97.013,107,97.013c0.032-0.082,0.162-0.521,0.324-0.943c0,0,0.131-0.358,0.31-0.91
		c0.194-0.569,0.406-1.138,0.602-1.691c0.179-0.568,0.373-1.137,0.568-1.707c0.195-0.553,0.309-0.91,0.309-0.91
		c0.164-0.422-0.08-0.78-0.535-0.796l-4.161-0.065c-0.455-0.016-0.942,0.325-1.104,0.748c0,0-0.082,0.211-0.244,0.699
		c-0.178,0.504-0.342,1.007-0.504,1.512c-0.162,0.487-0.342,0.975-0.504,1.462c-0.179,0.504-0.356,1.008-0.535,1.512
		c-0.018,0.049-0.018,0.049-0.018,0.049c-0.017,0.065-0.179-0.228-0.357-0.65c0,0-0.098-0.211-0.472-0.602
		c-0.649-0.699-1.788-1.284-1.788-1.284c-0.406-0.211-0.601-0.406-0.438-0.455c0,0,0,0,0.163-0.065
		c0.161-0.049,0.323-0.098,0.487-0.163c0.86-0.341,1.656-0.829,2.389-1.463c0.73-0.65,1.09-1.462,1.09-2.454
		c0-0.845-0.293-1.528-0.862-2.032c-0.585-0.52-1.202-0.829-1.202-0.829c-0.423-0.195-0.797-0.39-0.877-0.422c0,0,0,0-0.065-0.033
		c-0.064-0.016-0.113-0.032-0.179-0.065c-1.041-0.357-2.309-0.618-3.804-0.78c-1.496-0.146-3.169-0.227-5.022-0.195
		c-0.975,0-2.243,0.13-2.243,0.13c-0.455,0.033-1.187,0.114-1.642,0.179c0,0-2.356,0.26-3.202,0.439
		c-0.894,0.195-1.69,0.472-2.373,0.829c-0.699,0.357-1.235,0.78-1.577,1.284c-0.13,0.179-0.228,0.357-0.309,0.521
		c-0.065,0.162-0.113,0.325-0.146,0.503c-0.032,0.146-0.049,0.276-0.049,0.423c0,0.13,0,0.13,0,0.13
		c0.033,0.13,0.163,0.52,0.309,0.862c0,0,0,0,0.26,0.195c0.26,0.211,0.553,0.341,0.861,0.39c0.049,0,0.082,0.016,0.13,0.016
		c0.032,0.016,0.032,0.016,0.032,0.016c0.049,0,0.325,0,0.634,0c0,0,0,0,0.276-0.081c0.292-0.082,0.292-0.082,0.292-0.082
		c0.244-0.146,0.504-0.325,0.569-0.374c0,0,0,0,0.065-0.049c0.049-0.032,0.049-0.032,0.049-0.032
		c0.065-0.049,0.032-0.146-0.049-0.228c0,0,0,0-0.082-0.065c-0.065-0.065-0.146-0.13-0.195-0.195
		c-0.13-0.114-0.211-0.211-0.26-0.325c-0.049-0.114-0.065-0.244-0.032-0.406c0.016-0.065,0.032-0.146,0.065-0.244
		c0.032-0.082,0.081-0.179,0.146-0.293c0.228-0.422,0.585-0.78,1.073-1.056c0.438-0.26,0.601-0.325,0.601-0.325
		c0.423-0.163,0.618,0.049,0.423,0.455c0,0-0.407,0.894-0.959,2.617c-1.089,3.479-2.991,8.988-3.267,9.802
		c-0.179,0.486-0.407,0.926-0.683,1.332c-0.292,0.391-0.602,0.78-0.959,1.139c-0.049,0.049-0.098,0.098-0.13,0.13
		c-0.048,0.049-0.048,0.049-0.048,0.049c-0.049,0.049,0.032,0.146,0.179,0.211c0,0,0,0,0.114,0.065c0.13,0.064,0.26,0.13,0.39,0.194
		c0.228,0.097,0.455,0.179,0.699,0.261c0.244,0.08,0.244,0.08,0.244,0.08c0.292,0.049,0.812,0.131,1.154,0.18c0,0,0,0,0.325,0.017
		c0.341,0.032,0.341,0.032,0.341,0.032c0.374,0,0.731-0.016,0.78-0.016c0.065,0,0.585,0,1.041,0l2.99-0.033
		c0.455-0.016,1.203-0.016,1.658-0.016h3.754c0.455,0,0.878,0,0.943,0c0.065,0,0.601-0.033,1.056-0.065c0,0,1.219-0.099,2.178-0.374
		c0.976-0.26,1.853-0.602,2.633-1.04c0.797-0.472,1.495-1.058,2.081-1.771c0.275-0.326,0.275-0.326,0.275-0.326
		c0.195-0.405,0.504-0.39,0.666,0.033c0,0,0.033,0.049,0.31,0.422c0.521,0.65,1.333,0.991,2.422,1.008
		c1.072,0.018,2.063-0.211,2.99-0.715c0.927-0.487,1.805-1.252,1.805-1.252c0.341-0.291,0.731-0.194,0.878,0.229
		c0,0,0.275,0.812,0.926,1.234c0.651,0.424,1.414,0.65,2.293,0.666c0.91,0.033,1.723-0.063,2.422-0.291
		c0.697-0.229,1.332-0.569,1.9-1.008c0.602-0.488,1.105-1.058,1.512-1.707c0.424-0.649,0.748-1.269,0.748-1.269
		c0.194-0.39,0.391-0.779,0.422-0.828c0.033-0.065,0.115-0.244,0.131-0.277c0,0,0,0,0.017-0.033c0.05-0.114,0.05-0.114,0.05-0.114
		c0.064-0.114,0.324-0.52,0.584-0.894c0,0,0.146-0.227,0.553-0.634c0.406-0.406,0.879-0.634,1.397-0.667
		c0.228-0.016,0.423,0.033,0.603,0.098c0.162,0.082,0.162,0.082,0.162,0.082c0.049,0.211,0.099,0.406,0.099,0.438
		c0,0.017-0.017,0.13-0.017,0.163c0,0.032-0.18,0.487-0.326,0.91l-1.982,5.412c-0.146,0.423,0.098,0.797,0.553,0.812l4,0.195
		c0.455,0.031,0.86-0.049,0.894-0.195c0,0,0,0,0.049-0.113c0.032-0.113,0.032-0.113,0.032-0.113
		c0.049-0.131,0.195-0.536,0.324-0.879c0,0,0,0,0.099-0.324c0.098-0.324,0.211-0.648,0.341-0.991c0.262-0.78,0.569-1.544,0.91-2.292
		c0.342-0.747,0.766-1.349,0.766-1.349c0.275-0.374,0.715-0.975,0.99-1.316c0,0,0.049-0.049,0.293-0.276
		c0.26-0.211,0.26-0.211,0.26-0.211c0.244-0.049,0.536-0.081,0.666-0.065c0,0,0,0,0.082,0.098c0.098,0.098,0.098,0.098,0.098,0.098
		c0.082,0.179,0.275,0.683,0.438,1.105c0,0,0.13,0.341,0.521,0.65c0.391,0.309,0.423,0.309,0.423,0.309
		c0.438,0.114,0.812,0.195,0.829,0.195c0.016,0,0.26-0.016,0.52-0.032c0.244-0.032,0.748,0,0.618,0.438c0,0-0.179,0.586-0.179,1.366
		c0,1.527,0.486,2.715,1.494,3.592c0.992,0.877,2.129,1.365,3.431,1.463c0.146,0.017,0.293,0.017,0.438,0.017
		c0.129,0.017,0.275,0,0.422,0c0.276-0.017,0.568-0.049,0.861-0.099c0.293-0.047,0.293-0.047,0.293-0.047
		c0.309-0.099,0.52-0.099,0.487,0c-0.032,0.097-0.31,0.697-0.554,1.072c0,0-1.803,3.055-5.266,4.047
		c-4.503,1.219-21.211-0.748-21.211-0.748c-0.455-0.064-0.812-0.098-0.797-0.098c0.018,0-0.324-0.033-0.764-0.082
		c0,0-0.731-0.081-1.235-0.13c-2.438-0.179-4.291-0.341-5.12-0.438c-2.371-0.26-4.843-0.553-7.216-0.846
		c-6.323-0.683-11.475-1.072-15.652-1.268c-1.804-0.064-4.648-0.325-9.313-0.406c-3.835-0.049-7.054,0.163-8.923,0.342
		c-12.629,1.252-31.077,11.102-31.077,11.102c-0.406,0.211-0.39,0.244,0.033,0.064c0,0,8.143-3.527,14.969-4.404
		c2.763-0.342,4.974-0.422,6.697-0.26c1.397,0.162,4.908,1.153,4.908,1.153c0.439,0.13,1.105,0.017,1.479-0.228
		c0,0,1.219-0.847,3.137-1.854c3.446-1.853,8.225-2.974,14.092-3.396c4.388-0.31,10.792,0,19.245,1.138
		c1.674,0.243,4.973,0.569,4.973,0.569c0.455,0.031,0.976,0.097,1.139,0.129c0,0,0,0,0.309,0.033
		c11.183,1.153,27.273,7.541,35.611,4.127c3.268-1.365,5.186-5.898,5.186-5.898c0.179-0.424,0.324-0.766,0.324-0.766
		c-0.017,0,0.032-0.08,0.064-0.193c0,0,0,0,0.049-0.114c0.357-1.04,0.73-2.08,1.089-3.104c0.374-1.039,0.748-2.062,1.122-3.104
		c0.049-0.131,0.049-0.131,0.049-0.131c0.064-0.162,0.18,0.081,0.276,0.521c0,0,0.243,1.203,0.959,2.047
		c0.764,0.91,1.723,1.625,2.894,2.146c0.454,0.195,0.909,0.357,1.381,0.504c0.455,0.146,0.617,0.162,0.617,0.162
		c0.439,0.082,0.846,0.163,0.91,0.18s0.276,0.049,0.358,0.064c0.063,0,0.601,0.049,1.056,0.081c0,0,0.699,0.049,1.447-0.017
		c0.73-0.049,1.445-0.194,2.111-0.422c1.105-0.392,1.983-0.959,2.602-1.724c0.602-0.716,1.203-1.724,1.203-1.724
		c0.244-0.391,0.423-0.698,0.423-0.698s0,0,0.017-0.017c0,0,0-0.032,0.017-0.049c0.017-0.018,0.065-0.131,0.098-0.195
		c0,0,0,0,0.032-0.064c0.049-0.113,0.049-0.113,0.049-0.113c0.081-0.098,0.341-0.504,0.602-0.877c0,0,0.131-0.18,0.537-0.554
		c0.391-0.374,0.86-0.553,1.381-0.553c0.229,0.016,0.422,0.063,0.602,0.161c0.163,0.099,0.163,0.099,0.163,0.099
		c0.049,0.212,0.098,0.406,0.098,0.423c0,0.032-0.017,0.13-0.017,0.18c0,0.031-0.18,0.486-0.342,0.91l-1.935,5.2
		c-0.161,0.423,0.081,0.812,0.521,0.878l3.981,0.536c0.439,0.065,0.847,0,0.896-0.114c0,0,0,0,0.049-0.13
		c0.031-0.112,0.031-0.112,0.031-0.112c0.05-0.131,0.18-0.504,0.31-0.847c0,0,0,0,0.114-0.309c0.098-0.31,0.211-0.634,0.324-0.959
		c0.261-0.765,0.568-1.495,0.91-2.228c0.342-0.715,0.748-1.268,0.748-1.268c0.275-0.357,0.73-0.942,1.023-1.284
		c0,0,0.016-0.017,0.275-0.211c0.244-0.194,0.244-0.194,0.244-0.194c0.244-0.033,0.535-0.033,0.666,0c0,0,0,0,0.082,0.098
		c0.098,0.113,0.098,0.113,0.098,0.113c0.064,0.178,0.26,0.683,0.422,1.104c0,0,0.146,0.374,0.521,0.715
		c0.389,0.343,0.438,0.358,0.438,0.358c0.423,0.146,0.797,0.26,0.812,0.26c0.017,0,0.422,0,0.877-0.033c0,0,0.229-0.016,0.684-0.373
		s0.537-0.861,0.537-0.861c0.08-0.438,0.146-0.861,0.146-0.927C182.09,98.733,182.074,98.394,182.058,98.328L182.058,98.328z
		 M156.054,98.052c0.031-0.13,0.112-0.438,0.193-0.697c0,0,0,0,0.098-0.244c0.293-0.667,0.699-1.269,1.252-1.804
		c0.553-0.52,1.121-0.569,1.121-0.569c0.455-0.033,1.09,0.016,1.432,0.114c0,0,0,0,0.179,0.163c0.179,0.163,0.276,0.422,0.276,0.764
		c-0.018,0.829-0.342,1.448-0.992,1.837c-0.635,0.39-1.301,0.553-1.301,0.553c-0.438,0.113-1.039,0.243-1.332,0.292c0,0,0,0-0.26,0
		c-0.261,0.018-0.261,0.018-0.261,0.018C156.183,98.476,156.021,98.166,156.054,98.052L156.054,98.052z M94.045,97.19
		c-0.146,0.438-0.471,1.104-0.699,1.479c0,0-0.211,0.341-0.699,0.764c-0.358,0.31-0.78,0.586-1.268,0.78
		c-0.487,0.211-0.975,0.31-1.479,0.325c-0.341,0-0.667-0.049-0.991-0.146c-0.309-0.113-0.309-0.113-0.309-0.113
		c-0.309-0.211-0.455-0.731-0.309-1.17l1.625-4.747c0.146-0.422,0.357-0.796,0.472-0.812c0,0,0,0,0.081-0.033
		c0.082-0.016,0.082-0.016,0.082-0.016c0.114-0.016,0.276-0.049,0.374-0.049c0,0,0,0,0.098-0.016
		c0.098-0.017,0.179-0.017,0.26-0.017c0.894-0.016,1.593,0.244,2.113,0.748c0.52,0.52,0.78,1.203,0.78,2.064
		C94.176,96.85,94.045,97.19,94.045,97.19L94.045,97.19z M96.418,89.714c-0.26,0.358-0.78,0.878-1.154,1.138l-1.219,0.553
		c-0.455,0.098-1.17,0.179-1.609,0.179s-1.544-0.162-1.479-0.374c0,0,0,0,0.081-0.195c0.065-0.211,0.065-0.211,0.065-0.211
		c0.097-0.211,0.227-0.553,0.292-0.764c0,0,0,0,0.081-0.211c0.081-0.195,0.146-0.391,0.211-0.585
		c0.276-0.78,0.715-1.463,1.333-2.032c0.634-0.585,1.365-0.877,2.211-0.877c0.503,0,0.942,0.081,1.332,0.26
		c0.391,0.163,0.586,0.536,0.586,1.105C97.149,88.69,96.418,89.714,96.418,89.714L96.418,89.714z M145.26,94.785
		c0,0.033-0.112,0.39-0.243,0.812c0,0,0,0-0.146,0.504s-0.31,1.024-0.521,1.544c-0.293,0.877-0.716,1.642-1.234,2.323
		c-0.506,0.699-1.188,1.009-2.016,0.927c-0.146,0-0.262-0.049-0.358-0.129c-0.081-0.082-0.081-0.082-0.081-0.082
		c-0.098-0.146-0.211-0.357-0.244-0.487c0,0,0,0-0.032-0.146c-0.032-0.146-0.049-0.274-0.049-0.422c0-0.342,0.049-0.731,0.163-1.153
		c0.113-0.438,0.275-0.861,0.471-1.301c0.276-0.602,0.602-1.187,0.992-1.74c0.406-0.552,0.617-0.764,0.617-0.764
		c0.324-0.309,0.764-0.683,0.99-0.829c0,0,0,0,0.213-0.081c0.193-0.082,0.193-0.082,0.193-0.082
		c0.213-0.016,0.392-0.016,0.407-0.016c0.032,0,0.097,0.016,0.113,0.016s0.099,0.033,0.114,0.049c0,0,0,0,0.049,0
		c0.048,0.016,0.048,0.016,0.048,0.016c0.017,0.033,0.163,0.13,0.325,0.228c0,0,0,0,0.064,0.13c0.082,0.146,0.082,0.146,0.082,0.146
		c0.031,0.162,0.064,0.309,0.08,0.325C145.26,94.606,145.26,94.752,145.26,94.785L145.26,94.785z M35.582,102.879
		c0.098,0.146,0.423,0.537,0.748,0.847c0,0,0.163,0.162,0.683,0.309c0.503,0.146,0.796,0.163,0.796,0.163c0.456,0,0.846,0,0.878,0
		c0.049-0.017,0.488-0.082,0.943-0.163c0,0,0.91-0.162,1.609-0.504c0.699-0.342,1.3-0.748,1.804-1.252
		c0.487-0.487,0.796-0.909,0.796-0.909c0.276-0.374,0.667-0.358,0.877,0.048c0,0,0.017,0.033,0.325,0.391
		c0.521,0.586,1.105,0.976,1.755,1.17c0.667,0.213,1.235,0.229,1.235,0.229c0.455,0,0.861,0.018,0.91,0
		c0.065,0,0.244-0.016,0.292-0.016c0.049-0.018,0.52-0.146,0.959-0.262c0,0,0.65-0.162,1.349-0.535
		c0.699-0.375,1.251-0.846,1.251-0.846c0.341-0.293,0.845-0.229,1.105,0.146c0,0,0.244,0.341,0.813,0.567
		c0.585,0.229,1.024,0.261,1.024,0.261c0.455,0.017,0.845,0.049,0.878,0.049c0.016-0.016,0.455-0.098,0.894-0.195
		c0,0,2.649-0.602,3.689-1.738c1.057-1.121,2.146-3.219,2.146-3.219c0.211-0.391,0.406-0.764,0.423-0.812
		c0.016-0.049,0.098-0.211,0.13-0.293c0,0,0,0,0.033-0.064c0.065-0.13,0.065-0.13,0.065-0.13c0.065-0.114,0.309-0.537,0.553-0.91
		c0,0,0.162-0.277,0.569-0.732c0.406-0.455,0.877-0.715,1.414-0.812c0.211-0.032,0.407-0.016,0.585,0.049
		c0.178,0.065,0.179,0.065,0.179,0.065c0.049,0.195,0.082,0.39,0.082,0.406c0,0.033,0,0.13-0.017,0.179
		c0,0.033-0.163,0.488-0.309,0.927l-2,5.656c-0.146,0.423,0.098,0.764,0.553,0.73l3.999-0.212c0.455-0.016,0.861-0.146,0.91-0.292
		c0,0,0,0,0.033-0.113c0.048-0.131,0.048-0.131,0.048-0.131c0.049-0.13,0.179-0.553,0.309-0.91c0,0,0,0,0.097-0.324
		c0.114-0.342,0.228-0.684,0.341-1.023c0.26-0.812,0.569-1.609,0.91-2.39c0.358-0.796,0.797-1.479,0.797-1.479
		c0.26-0.374,0.683-0.975,0.942-1.349c0,0,0.065-0.081,0.325-0.325c0.26-0.244,0.26-0.244,0.26-0.244
		c0.227-0.081,0.536-0.13,0.65-0.13c0,0,0,0,0.098,0.081c0.097,0.098,0.097,0.098,0.097,0.098c0.065,0.163,0.276,0.65,0.439,1.073
		c0,0,0.13,0.309,0.52,0.569c0.39,0.276,0.407,0.276,0.407,0.276c0.439,0.065,0.829,0.114,0.845,0.114
		c0.017,0,0.423-0.098,0.862-0.195c0,0,0.244-0.065,0.699-0.52c0.471-0.439,0.553-0.992,0.553-0.992
		c0.081-0.438,0.146-0.861,0.146-0.91c0-0.065-0.016-0.292-0.016-0.357c0-0.065-0.13-0.488-0.211-0.797c0,0,0,0-0.162-0.244
		c-0.146-0.26-0.146-0.26-0.146-0.26c-0.26-0.228-0.715-0.521-1.024-0.667c0,0,0,0-0.292-0.065
		c-0.292-0.081-0.602-0.097-0.894-0.097c-0.228,0.016-0.455,0.032-0.699,0.081c-0.227,0.033-0.471,0.098-0.715,0.195
		c-0.52,0.179-1.04,0.422-1.528,0.731c-0.504,0.293-0.764,0.488-0.764,0.488c-0.358,0.26-0.91,0.195-1.203-0.146
		c0,0-0.325-0.374-0.942-0.634c-0.618-0.26-1.122-0.325-1.122-0.325c-0.439-0.048-0.959-0.081-1.138-0.097c0,0,0,0-0.146,0.016
		c-0.146,0-0.146,0-0.146,0c-0.163,0.033-0.65,0.146-1.089,0.276c0,0-2.032,0.602-3.072,1.771c-0.975,1.105-1.869,2.91-1.869,2.91
		c-0.211,0.406-0.39,0.78-0.406,0.829c-0.016,0.033-0.098,0.195-0.114,0.244c0,0,0,0-0.017,0.032
		C62.14,96.28,62.14,96.28,62.14,96.28c-0.016,0.049-0.114,0.228-0.195,0.423c0,0,0,0-0.13,0.228c-0.13,0.229-0.13,0.229-0.13,0.229
		c-0.195,0.26-0.52,0.699-0.731,0.976c0,0,0,0-0.228,0.243c-0.211,0.229-0.211,0.229-0.211,0.229
		c-0.244,0.194-0.553,0.422-0.699,0.487c0,0,0,0-0.098,0.064c-0.114,0.065-0.114,0.065-0.114,0.065
		c-0.13,0.016-0.292,0.047-0.357,0.063c0,0,0,0-0.049,0c-0.049-0.017-0.049-0.017-0.049-0.017c-0.049-0.017-0.163-0.049-0.228-0.082
		c0,0,0,0-0.032-0.08c-0.033-0.082-0.033-0.082-0.033-0.082c0-0.082-0.016-0.178-0.016-0.194c0-0.032,0-0.113,0-0.13
		c0.016-0.018,0.033-0.146,0.049-0.211c0,0,0,0,0.016-0.065c0.016-0.081,0.016-0.081,0.016-0.081
		c0.033-0.049,0.049-0.146,0.049-0.211c0,0,0,0,0.032-0.017c0.017-0.032,0.017-0.032,0.017-0.032c0-0.033,0.114-0.407,0.26-0.846
		c0,0,0.244-0.748,0.488-1.495c0.26-0.764,0.52-1.512,0.78-2.259c0.13-0.374,0.244-0.764,0.39-1.138c0.13-0.39,0.13-0.39,0.13-0.39
		c0.13-0.423-0.13-0.731-0.585-0.699l-4.291,0.309c-0.455,0.032-0.861,0.195-0.926,0.374c-0.049,0.162-0.52,0.422-0.91,0.195
		c0,0-0.325-0.211-0.927-0.341c-0.618-0.146-1.073-0.146-1.073-0.146c-0.455,0-0.861,0-0.91,0.016c-0.049,0-0.211,0.016-0.26,0.016
		c-0.049,0.017-0.537,0.13-0.976,0.211c0,0-0.796,0.179-1.577,0.536c-0.764,0.374-1.446,0.796-2.031,1.3
		c-0.764,0.667-1.398,1.447-1.902,2.373c-0.26,0.487-0.325,0.666-0.325,0.666c-0.13,0.423-0.406,1.123-0.601,1.528
		c0,0-0.016,0.032-0.211,0.406c-0.244,0.455-0.406,0.634-0.406,0.634c-0.293,0.342-0.618,0.684-0.699,0.78c0,0,0,0-0.098,0.065
		c-0.098,0.08-0.098,0.08-0.098,0.08c-0.081,0.064-0.309,0.229-0.487,0.357c0,0,0,0-0.146,0.064
		c-0.146,0.082-0.292,0.131-0.406,0.131c-0.146,0.016-0.26,0-0.341-0.065c-0.082-0.063-0.114-0.179-0.114-0.374
		c0-0.098,0.016-0.211,0.032-0.357c0.033-0.13,0.033-0.13,0.033-0.13c0.049-0.161,0.211-0.634,0.357-1.057
		c0,0,0.033-0.113,0.179-0.568c0.146-0.454,0.195-0.586,0.195-0.586c0.146-0.438,0.374-1.138,0.504-1.576
		c0,0,0.049-0.13,0.195-0.585c0.163-0.439,0.195-0.553,0.195-0.553c0.13-0.422,0.487-0.796,0.796-0.829
		c0.293-0.032,1.154-0.341,1.252-0.618c0.098-0.276,0.114-0.975-0.179-0.959c-0.309,0.033-0.992-0.227-0.846-0.65c0,0,0,0,0.13-0.39
		c0.13-0.374,0.26-0.764,0.374-1.138c0.13-0.374,0.244-0.764,0.374-1.138c0.146-0.374,0.146-0.374,0.146-0.374
		c0.13-0.423-0.049-0.683-0.423-0.602c0,0,0,0-0.341,0.081c-0.341,0.081-0.683,0.163-1.007,0.229c-0.667,0.179-1.333,0.341-2,0.504
		c-0.667,0.146-1.203,0.292-1.203,0.292c-0.439,0.114-0.894,0.488-1.008,0.829c0,0,0,0-0.098,0.309
		C38.311,90.8,38.311,90.8,38.311,90.8c-0.098,0.325-0.309,0.877-0.423,1.235c0,0,0,0-0.114,0.293
		c-0.098,0.309-0.098,0.309-0.098,0.309c-0.114,0.341-0.39,0.65-0.634,0.683c-0.244,0.016-0.942,0.325-1.04,0.602
		c-0.098,0.277-0.146,0.991,0.081,0.959c0.244-0.033,0.764,0.211,0.634,0.585c0,0,0,0-0.114,0.325
		c-0.098,0.342-0.211,0.683-0.309,1.023c-0.098,0.342-0.211,0.699-0.325,1.041c-0.082,0.229-0.082,0.229-0.082,0.229
		c-0.081,0.26-0.276,0.13-0.406-0.311c0,0-0.407-1.299-1.17-2.063c-1.008-1.008-2.617-2.162-2.617-2.162
		c-0.374-0.26-0.829-0.553-1.008-0.634c0,0,0,0-0.163-0.114c-0.163-0.098-0.325-0.195-0.471-0.276
		c-0.146-0.082-0.309-0.179-0.472-0.276c-0.179-0.098-0.179-0.098-0.179-0.098c-0.211-0.13-0.683-0.471-1.04-0.748
		c0,0-0.114-0.081-0.455-0.439c-0.341-0.341-0.357-0.422-0.357-0.422c-0.114-0.439-0.195-0.894-0.195-0.991c0,0,0,0,0.032-0.098
		c0.033-0.082,0.033-0.082,0.033-0.082c0.016-0.114,0.211-0.536,0.439-0.926c0,0,0.179-0.341,0.731-0.667
		c0.552-0.326,0.958-0.422,0.958-0.422c0.439-0.098,0.829-0.195,0.846-0.195c0.016,0,0.438,0,0.894,0.016
		c0,0,0.553,0.017,1.17,0.276c0.601,0.26,0.91,0.715,0.91,1.333c0,0.065-0.016,0.146-0.033,0.244c0,0.082-0.016,0.179-0.048,0.276
		c-0.082,0.309-0.163,0.537-0.26,0.699c-0.097,0.163-0.097,0.163-0.097,0.163c-0.146,0.146-0.358,0.341-0.472,0.439
		c0,0,0,0-0.114,0.082c-0.114,0.081-0.114,0.081-0.114,0.081c-0.163,0.13-0.195,0.26-0.098,0.309c0,0,0,0,0.082,0.032
		c0.065,0.049,0.065,0.049,0.065,0.049c0.114,0.032,0.341,0.146,0.536,0.228c0,0,0,0,0.179,0.065
		c0.162,0.065,0.162,0.065,0.162,0.065c0.195,0.032,0.488,0.081,0.65,0.081c0,0,0,0,0.163,0.017c0.163,0,0.163,0,0.163,0
		c0.195-0.017,0.39-0.033,0.422-0.033c0.049,0,0.537-0.13,0.975-0.26c0,0,0.406-0.114,0.927-0.472
		c0.536-0.357,0.894-0.861,1.056-1.495c0.049-0.179,0.082-0.341,0.098-0.487c0.016-0.163,0.016-0.293,0.016-0.423
		c0.033-0.959-0.325-1.69-1.073-2.162c-0.748-0.472-1.658-0.764-1.658-0.764c-0.439-0.13-0.943-0.276-1.138-0.309
		c0,0,0,0-0.179-0.016c-0.163-0.032-0.163-0.032-0.163-0.032c-0.195-0.016-0.731-0.033-1.17-0.065c0,0-0.016,0-0.504,0.032
		c-0.471,0.017-0.634,0.033-0.634,0.033c-0.455,0.016-1.187,0.097-1.625,0.163c0,0,0,0-0.39,0.065
		c-0.39,0.081-0.796,0.163-1.219,0.276c-1.69,0.422-3.283,1.121-4.794,2.08c-1.496,0.943-2.487,2.146-2.958,3.608
		c-0.13,0.406-0.211,0.796-0.276,1.154c-0.065,0.358-0.065,0.358-0.065,0.358c-0.032,0.374,0,1.057,0.082,1.511
		c0,0,0.292,1.642,1.154,2.438c0.861,0.812,2.178,1.755,2.178,1.755c0.374,0.261,0.699,0.488,0.715,0.488c0,0,0,0,0.016,0
		c0,0.017,0.033,0.032,0.049,0.049c0.033,0.031,0.049,0.049,0.065,0.049c0,0.017,0,0.017,0,0.017c0.033,0,0.342,0.211,0.715,0.487
		c0,0,0.992,0.715,1.723,1.382c0.731,0.649,1.089,1.479,1.089,2.472c0,0.178,0,0.34-0.033,0.502
		c-0.016,0.18-0.065,0.358-0.114,0.569c-0.309,1.219-0.992,2.21-1.999,2.926c-1.008,0.731-2.471,1.171-2.471,1.171
		c-0.438,0.129-0.829,0.243-0.894,0.26c-0.049,0-0.569,0.033-1.024,0.033c0,0-1.561,0-2.568-0.537
		c-1.024-0.521-1.544-1.463-1.561-2.812c0-0.18,0.016-0.374,0.049-0.568c0.049-0.212,0.082-0.406,0.098-0.617
		c0.049-0.325,0.195-0.65,0.423-0.976c0.244-0.31,0.244-0.31,0.244-0.31c0.26-0.276,0.52-0.536,0.569-0.568c0,0,0,0,0.049-0.032
		c0.032-0.032,0.032-0.032,0.032-0.032c0.033-0.032,0.163-0.146,0.276-0.261c0,0,0,0,0.098-0.065
		c0.081-0.063,0.13-0.112,0.163-0.146c0.016-0.017,0.032-0.049,0.032-0.082c0-0.049-0.032-0.098-0.081-0.161
		c-0.065-0.065-0.179-0.18-0.325-0.326c-0.325-0.356-0.715-0.568-1.203-0.666c-0.471-0.098-0.976-0.098-1.495-0.017
		c-0.195,0.032-0.391,0.063-0.602,0.099c-0.195,0.049-0.39,0.112-0.585,0.194c-1.138,0.438-1.983,1.104-2.536,1.982
		c-0.553,0.878-0.699,1.918-0.699,1.918c-0.082,0.454-0.13,0.86-0.13,0.909c0,0.05,0,0.229,0,0.276
		c0.016,0.032,0.114,0.505,0.211,0.959c0,0,0.146,0.699,0.585,1.382c0.422,0.666,1.008,1.202,1.755,1.576
		c1.008,0.536,2.194,0.879,3.576,1.024c1.366,0.146,2.796,0.112,4.307-0.082c0.276-0.05,0.537-0.081,0.813-0.13
		s0.553-0.113,0.812-0.18c2.649-0.553,5.136-1.561,7.46-3.039c2.292-1.446,4.128-4.647,4.128-4.647
		C35.16,102.651,35.501,102.731,35.582,102.879L35.582,102.879z M49.284,100.147c0-0.146,0.016-0.34,0.033-0.405
		c0-0.081,0.081-0.406,0.098-0.585c0,0,0,0,0.048-0.163c0.033-0.162,0.033-0.162,0.033-0.162c0.048-0.162,0.13-0.455,0.179-0.634
		c0,0,0,0,0.049-0.146c0.049-0.146,0.081-0.26,0.097-0.324c0.082-0.229,0.211-0.504,0.39-0.828c0.163-0.342,0.374-0.667,0.585-1.024
		c0.309-0.488,0.65-0.943,1.041-1.381c0.39-0.439,0.78-0.764,1.154-0.959c0.114-0.049,0.211-0.082,0.309-0.114
		c0.098-0.016,0.211-0.048,0.309-0.048c0.276-0.017,0.456,0.032,0.537,0.179c0.065,0.13,0.097,0.325,0.097,0.569
		c0,0.325-0.065,0.715-0.178,1.203c-0.13,0.472-0.276,0.894-0.276,0.894c-0.146,0.439-0.374,1.01-0.488,1.284c0,0,0,0-0.114,0.293
		c-0.13,0.293-0.13,0.293-0.13,0.293c-0.179,0.341-0.52,0.942-0.764,1.332c0,0-0.292,0.472-0.748,0.992
		c-0.455,0.536-0.975,0.812-1.56,0.877c-0.26,0.017-0.456-0.063-0.553-0.261c-0.098-0.194-0.146-0.454-0.146-0.747
		C49.284,100.147,49.284,100.147,49.284,100.147L49.284,100.147z"/>
</g>
</svg>
