<?xml version="1.0" encoding="utf-8"?>
<!-- Generator: Adobe Illustrator 16.0.0, SVG Export Plug-In . SVG Version: 6.00 Build 0)  -->
<!DOCTYPE svg PUBLIC "-//W3C//DTD SVG 1.1//EN" "http://www.w3.org/Graphics/SVG/1.1/DTD/svg11.dtd">
<svg version="1.1" id="Layer_1" xmlns="http://www.w3.org/2000/svg" xmlns:xlink="http://www.w3.org/1999/xlink" x="0px" y="0px"
	 width="131.151px" height="17.937px" viewBox="334.425 291.031 131.151 17.937"
	 enable-background="new 334.425 291.031 131.151 17.937" xml:space="preserve">
<path fill="#EC1C24" d="M410.03,296.385l0.035-0.059l-0.037,0.058c-0.67-0.459-1.637-0.671-2.582-0.671
	c-2.149,0.001-3.685,1.063-4.692,2.556c-1.005,1.494-1.477,3.422-1.477,5.139c0,1.24,0.185,2.396,0.941,3.439
	c0.373,0.51,1.275,1.733,4.189,1.738c2.027-0.002,2.988-0.527,3.507-0.832l0.087-0.117c0.102-0.443,0.444-2.461,0.583-2.967
	l-0.106-0.08c-1.021,0.812-2.139,1.405-3.406,1.405c-0.851,0-1.499-0.203-1.935-0.59c-0.436-0.39-0.65-0.96-0.647-1.667
	c0-0.264,0.02-0.5,0.041-0.762l0.006-0.062l0.06-0.002c1.983-0.052,2.994-0.078,4.655-0.078c0.542,0,1.154,0.002,1.895,0.009
	l0.127-0.091c0.166-0.771,0.347-1.649,0.347-2.733C411.619,299.059,411.517,297.352,410.03,296.385z M408.718,300.598l-0.01,0.057
	l-1.945,0.023l-1.922,0.024l0.02-0.063l0.009-0.027c0.037-0.136,0.077-0.283,0.127-0.435c0.134-0.424,0.322-0.884,0.657-1.307
	c0.058-0.074,0.118-0.146,0.187-0.217c0.594-0.649,1.158-0.752,1.522-0.752c0.517,0,0.895,0.206,1.136,0.514
	c0.041,0.052,0.074,0.106,0.108,0.165c0.118,0.203,0.19,0.438,0.219,0.678c0.014,0.088,0.019,0.179,0.019,0.268
	C408.843,299.888,408.778,300.243,408.718,300.598z M401.168,298.408l-0.131,0.129l-1.914-0.047l-0.885,4.173
	c-0.126,0.522-0.396,1.829-0.396,2.251c-0.002,0.393,0.145,0.661,0.353,0.82c0.206,0.16,0.464,0.213,0.69,0.214
	c0.532,0,0.721-0.148,1.074-0.284l0.062,0.061l-0.47,2.401l-0.162,0.159c-0.653,0.139-1.143,0.253-1.835,0.253
	c-1.775-0.013-3.062-0.608-3.07-2.685c0-0.972,0.394-2.737,0.685-4.055l0.705-3.312l-1.503,0.05l-0.089-0.13l0.438-2.334l0.14-0.077
	h1.525l0.61-3.074l0.119-0.134c1.526-0.392,1.969-0.58,3.363-1.038l0.071,0.083l-0.463,1.982l-0.475,2.229l1.958-0.057l0.054,0.1
	L401.168,298.408z M424.772,294.47l-0.104,0.115l-5.049-0.01l-0.822,4.214l4.418-0.134l0.066,0.104
	c-0.364,1.215-0.448,1.556-0.693,2.612l-0.112,0.107l-4.201-0.01l-0.555,2.926l-0.698,3.797l-0.092,0.088l-3.623,0.093l-0.042-0.093
	l0.627-3.232l0.958-4.565c0.726-3.547,0.935-4.68,1.616-8.542l0.109-0.109h5.29l3.358-0.085l0.064,0.085L424.772,294.47z
	 M431.909,296.52c-0.702-0.494-1.825-0.749-3.361-0.749c-0.761,0-1.525,0.073-2.297,0.22c-0.686,0.13-1.113,0.24-1.479,0.347
	l-0.101,0.101l-0.498,2.556l0.161,0.098c0.322-0.147,0.791-0.33,1.413-0.548c0.633-0.225,1.216-0.336,1.745-0.336
	c0.77,0,1.354,0.104,1.758,0.323c0.409,0.22,0.705,0.707,0.704,1.245c0,0.13-0.011,0.246-0.029,0.352
	c-0.021,0.098-0.033,0.169-0.037,0.211l-0.007,0.056c0,0-0.249,0.016-0.514,0.04c-0.177,0.016-0.399,0.039-0.654,0.071
	c-0.425,0.046-0.909,0.104-1.331,0.177c-1.018,0.17-3.874,0.612-4.729,2.527c-0.898,1.568-0.744,3.646,0.138,4.661
	c0.31,0.356,0.784,0.692,1.426,0.823v0.003c0.028,0.006,0.127,0.021,0.146,0.024c2.473,0.383,4.242-1.771,4.242-1.771l-0.265,1.329
	l0.107,0.093l2.777-0.093l0.112-0.102l1.635-8.206c0.035-0.173,0.062-0.378,0.082-0.61c0.019-0.235,0.029-0.425,0.029-0.567
	C433.086,297.744,432.612,297.016,431.909,296.52z M429.053,304.727c0,0-0.663,1.041-1.621,1.414
	c-0.96,0.373-1.649,0.077-1.923-0.293c-0.218-0.289-0.671-1.207,0.192-2.238c0.874-1.039,3.768-1.104,3.768-1.104L429.053,304.727z
	 M442.525,295.603l-0.679,3.53l-0.145,0.144c-0.194-0.033-0.44-0.063-0.733-0.063c-0.916-0.001-2.219,0.293-3.236,1.646
	l-0.013,0.012l-1.401,7.322l-0.101,0.088l-3.047,0.09l-0.08-0.078l2.396-12.295l0.131-0.128l3.017-0.293l0.12,0.131l-0.348,1.779
	l0.146-0.135c0.63-0.57,1.19-0.968,1.817-1.324c0.618-0.354,1.238-0.532,1.861-0.532c0.061,0,0.124,0.001,0.188,0.005
	L442.525,295.603z M458.846,298.696c0,0.742-0.165,1.514-0.33,2.265l-1.418,7.23l-0.107,0.088l-3.188,0.111l-0.081-0.111
	c0,0,1.637-7.987,1.637-8.385c0-0.362-0.189-1.332-1.208-1.332c-0.799,0-1.625,0.809-1.625,0.809l-1.723,8.82l-0.105,0.088
	l-1.374,0.048v-0.001l-1.229,0.043l-0.608,0.021l-0.038-0.054l-0.038-0.06c0,0,0.249-1.217,0.553-2.721h-0.007
	c0.477-2.354,1.085-5.42,1.085-5.664c0-0.362-0.189-1.332-1.208-1.332c-0.797,0-1.624,0.809-1.624,0.809l-1.724,8.821l-0.105,0.086
	l-0.494,0.019l-2.718,0.091l-0.068-0.107l2.393-12.283l0.12-0.12l3.183-0.301l0.128,0.131l-0.337,1.728c0,0,1.534-1.68,3.494-1.721
	c1.827-0.034,2.21,1.721,2.21,1.721s1.818-1.763,3.757-1.721C457.023,295.721,458.841,296.154,458.846,298.696z M392.218,296.52
	c-0.701-0.494-1.824-0.749-3.36-0.749c-0.761,0-1.526,0.073-2.295,0.22c-0.688,0.13-1.115,0.24-1.479,0.347l-0.099,0.101
	l-0.498,2.556l0.16,0.098c0.319-0.147,0.792-0.33,1.409-0.548c0.638-0.225,1.219-0.336,1.746-0.336c0.772,0,1.354,0.104,1.761,0.323
	c0.406,0.22,0.703,0.707,0.702,1.245c0,0.13-0.01,0.246-0.029,0.352c-0.02,0.098-0.032,0.169-0.035,0.211l-0.008,0.056
	c0,0-0.25,0.016-0.516,0.04c-0.177,0.016-0.396,0.039-0.652,0.071c-0.426,0.046-0.909,0.104-1.332,0.177
	c-1.018,0.17-3.872,0.612-4.729,2.527c-0.898,1.568-0.744,3.646,0.137,4.661c0.311,0.356,0.786,0.692,1.428,0.823l-0.001,0.003
	c0.028,0.006,0.129,0.021,0.146,0.024c2.475,0.383,4.243-1.771,4.243-1.771l-0.265,1.329l0.108,0.093l2.778-0.093l0.111-0.102
	l1.633-8.206c0.036-0.173,0.062-0.378,0.084-0.61c0.019-0.235,0.03-0.425,0.03-0.567
	C393.396,297.744,392.922,297.016,392.218,296.52z M389.361,304.727c0,0-0.663,1.041-1.621,1.414
	c-0.959,0.373-1.646,0.077-1.922-0.293c-0.218-0.289-0.671-1.207,0.191-2.238c0.874-1.039,3.771-1.104,3.771-1.104L389.361,304.727z
	 M382.67,298.408l-0.132,0.129l-1.912-0.047l-0.887,4.173c-0.123,0.522-0.396,1.829-0.396,2.251
	c-0.001,0.393,0.146,0.661,0.354,0.82c0.208,0.16,0.463,0.213,0.69,0.214c0.533,0,0.721-0.148,1.074-0.284l0.062,0.061l-0.47,2.401
	l-0.163,0.159c-0.653,0.139-1.143,0.253-1.832,0.253c-1.778-0.013-3.064-0.608-3.071-2.685c0-0.972,0.394-2.737,0.684-4.055
	l0.705-3.312l-1.504,0.05l-0.088-0.13l0.438-2.334l0.139-0.077h1.524l0.613-3.074l0.118-0.134c1.526-0.392,1.971-0.58,3.363-1.038
	l0.07,0.083l-0.462,1.982l-0.475,2.229l1.958-0.057l0.053,0.1L382.67,298.408z M375.484,292.738l-0.584,2.992l-0.127,0.043
	c-0.233-0.325-0.371-0.454-0.693-0.702c-0.717-0.551-1.562-0.862-2.429-0.862c-0.681,0-1.241,0.211-1.635,0.563
	c-0.395,0.354-0.615,0.854-0.615,1.412c0.002,1.056,0.723,1.57,2.009,2.342l0.5,0.283c1.079,0.706,2.749,1.789,2.75,4.248
	c-0.005,2.789-1.794,5.594-6.086,5.598c-1.053,0-2.083-0.187-3.073-0.561c-0.67-0.252-0.992-0.477-1.397-0.773l-0.031-0.192
	l0.568-2.921l0.128-0.044c0.257,0.333,0.582,0.606,1.067,0.928c1.032,0.689,2.024,0.763,2.448,0.763
	c1.517,0,2.706-0.864,2.706-2.209c-0.002-1.201-0.952-1.806-1.947-2.392l-0.685-0.423c-1.079-0.708-2.582-1.671-2.585-4.08
	c0-0.929,0.267-2.257,1.089-3.347c1.081-1.434,2.783-1.948,4.497-1.95c2.208,0.002,3.472,0.781,4.062,1.162L375.484,292.738z
	 M346.282,304.068c0,0.813-0.544,1.562-1.448,2.109c-0.903,0.549-2.157,0.891-3.543,0.891c-1.387,0-2.628-0.342-3.517-0.891
	c-0.894-0.549-1.428-1.296-1.426-2.109c-0.002-0.814,0.533-1.559,1.43-2.1c0.894-0.542,2.139-0.876,3.523-0.876
	c1.388,0,2.639,0.334,3.536,0.876C345.739,302.512,346.282,303.254,346.282,304.068z M343.054,295.906
	c-0.001-0.814,0.536-1.557,1.431-2.099c0.894-0.54,2.14-0.877,3.523-0.876c1.385-0.001,2.638,0.336,3.536,0.876
	c0.9,0.543,1.442,1.284,1.442,2.099c0,0.812-0.546,1.562-1.449,2.111c-0.902,0.547-2.154,0.889-3.54,0.889
	c-1.388,0-2.629-0.342-3.52-0.889C343.586,297.468,343.053,296.721,343.054,295.906z M359.67,304.068
	c0,0.813-0.544,1.562-1.448,2.109c-0.9,0.549-2.156,0.891-3.542,0.891c-1.387,0-2.629-0.342-3.519-0.891
	c-0.893-0.549-1.427-1.296-1.424-2.109c-0.003-0.814,0.535-1.559,1.43-2.098c0.892-0.544,2.139-0.879,3.523-0.878
	c1.387-0.001,2.638,0.334,3.536,0.878C359.128,302.511,359.67,303.254,359.67,304.068z M354.688,299.192
	c-0.619,0-1.22,0.059-1.787,0.165c1.242-0.887,2.009-2.109,2.009-3.457c0-2.711-3.081-4.869-6.905-4.869
	c-3.823,0-6.873,2.158-6.873,4.869c0,1.353,0.753,2.573,1.983,3.462c-0.578-0.109-1.188-0.17-1.815-0.17
	c-3.823,0-6.874,2.158-6.874,4.869s3.035,4.907,6.856,4.907c3.256,0,5.988-1.592,6.728-3.737c0.728,2.146,3.407,3.737,6.66,3.737
	c3.824,0,6.925-2.196,6.925-4.907C361.593,301.352,358.51,299.192,354.688,299.192z M342.43,295.9
	c0.002-1.192,0.916-2.01,1.453-2.391c1.079-0.763,2.539-1.179,4.12-1.179c1.585,0,3.055,0.418,4.14,1.18
	c0.542,0.385,1.465,1.201,1.469,2.39c-0.013,1.983-2.597,3.604-5.623,3.605c-1.574,0-3.031-0.421-4.104-1.192
	C342.952,297.645,342.43,296.789,342.43,295.9z M341.28,307.668c-1.571,0-3.027-0.422-4.104-1.191
	c-0.93-0.67-1.451-1.526-1.451-2.414c0.002-1.19,0.916-2.008,1.453-2.392c1.076-0.762,2.538-1.179,4.12-1.179
	c1.583,0,3.053,0.417,4.14,1.183c0.543,0.384,1.466,1.198,1.469,2.388C346.896,306.046,344.311,307.666,341.28,307.668z
	 M346.237,300.648c0.558,0.104,1.144,0.16,1.748,0.16c0.618,0,1.219-0.06,1.788-0.166c-0.85,0.61-1.468,1.383-1.763,2.252
	C347.713,302.029,347.088,301.259,346.237,300.648z M354.672,307.668c-1.575,0-3.031-0.422-4.104-1.191
	c-0.933-0.67-1.454-1.526-1.454-2.414c0.003-1.19,0.917-2.008,1.454-2.39c1.076-0.764,2.54-1.179,4.118-1.179
	c1.585,0,3.053,0.417,4.14,1.181c0.544,0.382,1.464,1.198,1.467,2.388C360.283,306.046,357.7,307.666,354.672,307.668z
	 M460.908,296.21h-0.989v-0.332h2.368v0.332h-0.986v2.63h-0.393V296.21z M462.626,295.878h0.54l0.932,2.489l0.938-2.489h0.54v2.962
	h-0.372v-2.464h-0.009l-0.928,2.464h-0.335l-0.926-2.464h-0.009v2.464h-0.373L462.626,295.878L462.626,295.878z"/>
</svg>
