<?xml version="1.0" encoding="utf-8"?>
<!-- Generator: Adobe Illustrator 16.0.0, SVG Export Plug-In . SVG Version: 6.00 Build 0)  -->
<!DOCTYPE svg PUBLIC "-//W3C//DTD SVG 1.1//EN" "http://www.w3.org/Graphics/SVG/1.1/DTD/svg11.dtd">
<svg version="1.1" id="Layer_1" xmlns="http://www.w3.org/2000/svg" xmlns:xlink="http://www.w3.org/1999/xlink" x="0px" y="0px"
	 width="175.749px" height="136.275px" viewBox="8.503 28.241 175.749 136.275"
	 enable-background="new 8.503 28.241 175.749 136.275" xml:space="preserve">
<g>
	<path fill="#040607" d="M18.224,60.673l-0.893,0.893c-2.083-0.893-4.166-0.298-5.653,1.19c-1.487,1.488-1.785,4.166-0.297,5.653
		c4.463,4.463,9.224-5.653,15.174,0.297c2.678,2.678,1.786,6.844-0.893,9.521c-1.19,1.19-3.57,2.38-4.761,2.678l-2.38-2.083
		l0.595-0.893c1.785,1.19,4.463,0.595,5.653-0.595c1.785-1.785,2.083-4.166,0.298-5.951c-3.868-3.57-8.926,5.951-14.58,0.298
		c-2.975-2.976-2.38-7.141,0.298-9.819c1.488-1.488,3.273-2.678,5.058-3.571L18.224,60.673L18.224,60.673z"/>
	<path fill="#040607" d="M28.043,47.879c0.893-0.595,2.083-0.893,2.976-1.488c0.893-0.595,1.785-1.19,2.975-1.785l0.298,0.595
		c-1.19,0.893-1.19,1.786,0,3.571c1.19,2.678,2.678,5.058,3.868,7.736c2.083,3.571,5.058,5.356,8.926,3.273
		c2.38-1.19,4.463-3.868,2.678-7.141l-1.487-2.976c-1.785-3.273-3.571-6.248-4.463-7.736c-0.297-0.893-1.487-0.893-2.083-0.595
		l-0.297-0.595c0.893-0.595,2.083-0.893,2.975-1.488c0.893-0.595,2.083-1.19,2.976-1.785l0.297,0.595
		c-0.893,0.595-0.595,1.785-0.297,2.678c0.595,1.19,2.083,4.166,3.868,7.736l3.273,5.653c0.595,1.488,1.487,2.38,2.678,1.786
		l0.297,0.595c-0.893,0.298-1.785,0.595-2.38,0.893c-0.893,0.596-1.488,1.19-2.38,1.488c-0.297-0.893-0.595-1.786-0.893-2.678
		c-1.19,2.975-2.38,4.761-5.058,6.249c-3.868,2.083-8.331,1.488-10.414-2.678l-2.38-4.463c-1.19-2.083-2.38-3.868-3.273-5.653
		c-0.595-0.893-1.19-1.785-2.38-1.19L28.043,47.879L28.043,47.879z"/>
	<path fill="#040607" d="M65.533,52.937c1.19-0.595,1.785-1.488,1.19-3.273l-2.976-17.853h1.19L82.79,45.2l-2.083-10.414
		c-0.595-3.57-1.488-4.463-2.975-4.463l-0.298-0.595c1.19-0.297,2.083-0.297,2.976-0.297c1.19-0.298,2.083-0.595,2.975-0.893
		l0.298,0.893c-1.488,0.297-1.785,1.487-1.488,3.868l3.273,17.257h-1.19L66.426,37.167l2.083,11.307
		c0.595,2.38,1.487,3.273,2.975,3.57v0.595c-0.893,0-1.785,0.297-2.975,0.297c-0.893,0.297-1.785,0.595-2.976,0.595V52.937
		L65.533,52.937z"/>
	<path fill="#040607" d="M103.022,30.622c0-0.595,0.894-0.595,1.785-0.595c3.272,0.298,4.463,2.678,4.166,5.653
		c-0.298,2.976-2.977,4.463-5.654,4.463c-0.297-0.297-0.594-0.297-1.188-0.297L103.022,30.622L103.022,30.622z M96.477,49.664
		c1.191,0,2.083,0,3.273,0c1.19,0.297,2.083,0.297,3.272,0.595v-0.893c-1.487-0.298-1.487-1.19-1.487-2.678l0.596-5.951
		c0.595,0,1.188,0.893,1.785,1.488l4.463,6.249c0.298,0.595,0.298,0.893,0.298,1.19c0,0,0,0.297-0.298,0.297v0.595
		c0.894,0,2.083,0,2.976,0.298c0.894,0,2.084,0.297,2.977,0.297v-0.595c-0.596-0.297-1.785-1.488-2.083-2.083l-5.653-7.736
		c2.977-0.297,5.951-2.083,6.248-5.058c0-3.273-2.38-6.248-7.736-6.843c-2.379-0.297-3.271,0-4.164-0.297
		c-0.894,0-2.084-0.298-2.977-0.298v0.595c1.488,0.595,1.488,1.19,1.488,2.678c-0.298,2.678-0.298,5.355-0.596,8.034l-0.596,7.736
		c0,0.893-0.595,1.488-1.786,1.785V49.664L96.477,49.664z"/>
	<path fill="#040607" d="M134.562,35.382c-0.893-0.298-1.486,0.595-1.785,1.487c-0.594,2.976-1.784,6.249-2.678,9.521l-1.785,5.653
		c-0.297,0.893-0.297,2.083,0.894,2.38l-0.298,0.595c-0.893-0.298-2.083-0.595-2.977-0.893c-1.188-0.297-2.082-0.595-2.975-0.893
		V52.64c0.893,0.297,1.785-0.298,2.082-1.488l1.488-4.463c0.893-3.273,2.082-8.629,2.678-10.414c0.297-1.19,0.595-2.38-0.596-2.678
		l0.298-0.893c0.893,0.297,1.784,0.893,2.976,1.19c0.893,0.297,2.083,0.297,2.977,0.595L134.562,35.382L134.562,35.382z"/>
	<path fill="#040607" d="M158.067,49.664l-0.893-0.595c0.297-2.38-0.893-4.166-2.976-5.058c-1.785-1.19-4.166-0.595-5.355,1.488
		c-2.976,5.653,8.033,7.141,4.165,14.282c-1.785,3.57-5.949,3.868-9.224,2.38c-1.785-1.19-3.57-2.976-4.166-3.868l1.487-3.272
		L142,55.616c-0.595,2.083,0.595,4.463,2.38,5.356c2.083,0.893,4.465,0.595,5.653-1.488c2.381-4.761-8.331-7.141-4.464-13.984
		c1.785-3.57,5.951-4.463,9.521-2.678c1.785,1.19,3.57,2.38,4.762,3.868L158.067,49.664L158.067,49.664z"/>
	<path fill="#040607" d="M158.663,69.897c0.893,0.595,1.785,0.595,2.678-0.298l3.57-3.57c2.679-3.273,5.652-6.546,7.439-8.629
		c0.594-0.595,0.297-1.19-0.299-2.083l0.596-0.595l8.927,8.332c0.595,0.595,1.487,1.19,2.083,1.487
		c-0.596,0.595-1.19,0.893-1.786,1.488c-0.595,0.595-0.894,1.19-1.487,1.785l-0.893-0.893c0.893-1.488,0.893-2.678-0.299-3.868
		l-3.867-3.571l-5.653,5.951l3.571,2.976c1.189,1.19,1.785,1.488,3.271,0.893l0.596,0.893c-0.596,0.595-1.189,1.19-1.785,1.786
		c-0.596,0.595-1.189,1.487-1.785,2.083l-0.596-0.893c0.894-1.786,0.596-2.38-0.893-3.571l-3.273-3.273l-5.949,6.249l3.867,3.57
		c1.785,1.786,2.679,2.083,4.762,1.488l0.595,0.893l-3.569,2.083c-0.299-0.893-0.894-1.488-1.785-2.38l-8.629-8.034L158.663,69.897
		L158.663,69.897z"/>
	<path d="M157.771,102.328c0-0.297,0-0.595,0-0.894c0-21.125-27.67-38.382-61.59-38.382c-33.919,0-61.591,17.257-61.591,38.382
		c0,11.902,8.331,22.316,21.125,29.16c14.579-16.068,40.763-13.391,40.763-13.391C113.733,104.412,139.62,96.676,157.771,102.328
		L157.771,102.328z"/>
	<path fill="#FFFFFF" d="M117.603,102.627l16.961-13.39l-19.639,8.628l13.092-16.959l-16.959,13.092l8.629-19.638l-13.391,16.96
		l3.273-21.423l-8.629,19.935l-1.785-21.72l-3.571,21.423l-7.438-20.233l2.083,21.423L78.03,72.873l7.438,20.53L69.104,79.121
		l12.199,17.853l-19.043-9.82l16.067,14.281l-21.125-4.76l19.34,9.818l-21.72,0.596l21.125,4.76l-20.828,6.248
		c0,0,26.779-1.785,45.228,0C109.867,112.147,117.603,102.627,117.603,102.627L117.603,102.627z"/>
	<path fill="#BCBEC0" d="M55.714,130.597c2.38-2.085,14.282-11.605,46.417-9.82c5.354-8.033,28.267-21.719,55.343-18.447
		c-5.654-4.76-44.334-11.008-67.84,12.498C78.625,112.742,61.665,118.99,55.714,130.597L55.714,130.597z"/>
	<path d="M73.864,136.248c14.58,4.166,35.706,0.894,45.524-7.438c9.818-8.629,22.018-18.746,37.191-16.365
		c-6.844-4.463-29.754-3.868-44.333,8.033C97.668,132.678,87.253,135.354,73.864,136.248L73.864,136.248z"/>
	<path fill="#040607" d="M32.804,143.688c0.297,1.188,0.595,2.082,1.488,2.379c0.595,0.299,1.19,0.299,1.487-0.297
		c0.298-0.597,0.298-1.189-0.297-2.082c-0.297-0.894-0.893-1.488-0.893-2.084c-0.297-0.894-0.595-1.785,0-2.679
		c1.19-1.784,2.976-2.381,5.058-1.485c0.595,0.297,1.19,0.893,1.786,1.485l-0.893,2.084c-0.595-0.893-0.893-1.487-1.487-1.784
		c-0.893-0.597-1.488-0.3-2.083,0.297c-0.298,1.188,0.298,1.785,0.893,3.272c0.893,1.188,1.19,2.379,0.595,3.57
		c-1.19,1.784-2.976,2.379-5.356,1.188c-0.595-0.596-1.19-0.893-1.488-1.188L32.804,143.688L32.804,143.688z"/>
	<path fill="#040607" d="M50.358,153.209c-0.595,0-1.19-0.299-1.785-0.596c-1.19-0.298-2.083-1.189-2.38-2.382
		c-0.595-1.487-0.595-2.381,0-3.569c0.298-1.188,1.19-2.082,2.083-2.679c0.595,0,0.893,0.298,1.19,0.298
		c1.19,0.596,2.083,1.19,2.678,2.084c0.595,1.485,0.595,2.678,0,4.166C51.846,151.722,51.251,152.613,50.358,153.209L50.358,153.209
		z M46.788,154.103c1.785,0.594,4.166,0.594,5.951-0.597c0.893-0.596,1.488-1.487,2.083-2.678c0.595-1.488,0.595-3.272,0-4.463
		c-0.595-1.488-1.786-2.679-3.273-3.273c-1.786-0.596-3.273-0.596-5.058,0c-1.19,0.597-2.38,1.785-2.976,2.976
		c-0.595,1.785-0.595,3.572,0.297,5.059C44.408,152.613,45.3,153.506,46.788,154.103L46.788,154.103z"/>
	<path fill="#040607" d="M62.558,159.457l-3.273-0.894c0.595-0.893,0.893-1.785,1.19-2.678l0.893-2.381l-1.19-4.762
		c-0.297-0.893-0.595-1.486-0.893-2.379l3.273,0.893c0,0.297,0,0.297,0,0.297c-0.297,0.297-0.297,0.596,0,0.894l0.595,3.272
		l2.38-2.082c0-0.299,0.297-0.596,0.297-0.895v-0.297l2.976,0.893c-0.595,0.299-1.19,0.893-1.786,1.488l-3.272,2.975l-0.893,2.678
		C62.558,157.672,62.558,158.563,62.558,159.457L62.558,159.457z"/>
	<path fill="#040607" d="M73.269,157.076c0.893-1.188,1.488-2.679,2.38-3.867c0,1.485,0,2.976,0,4.463L73.269,157.076
		L73.269,157.076z M72.376,158.86l3.57,0.597l0.298,1.785c0,0.297,0,0.594,0,0.893c0,0.298-0.298,0.298-0.298,0.597l3.571,0.594
		c-0.595-0.893-0.893-1.785-0.893-2.975l-1.488-9.226l-1.785-0.594l-5.653,8.329c-0.297,0.597-1.19,1.488-2.083,2.082l3.272,0.894
		c0-0.297,0-0.594,0.297-0.894c0,0,0-0.594,0.298-0.893L72.376,158.86L72.376,158.86z"/>
	<path fill="#040607" d="M98.263,155.291c-0.595-0.297-1.786-0.597-2.678-0.597l-0.297,2.978l3.57,0.297l-0.894,2.082
		c-0.595-0.594-1.488-0.594-2.083-0.594c-0.298,0-0.298,0-0.595,0v2.082c0,1.19,0.297,2.084,0.595,2.978h-3.571
		c0.595-0.894,0.595-1.785,0.595-2.978v-5.651c0-1.191,0-2.084-0.297-2.978h6.844L98.263,155.291L98.263,155.291z"/>
	<path fill="#040607" d="M112.842,161.242c-0.595,0.297-1.188,0.594-1.784,0.594c-1.189,0.299-2.381-0.297-3.57-0.894
		c-0.894-0.893-1.488-1.784-1.488-2.975c-0.297-1.488,0-2.678,0.596-3.57c0.299-0.297,0.893-0.297,1.19-0.297
		c1.188-0.299,2.38,0,3.272,0.594c1.189,0.894,2.082,1.785,2.082,3.57C113.438,159.457,113.14,160.351,112.842,161.242
		L112.842,161.242z M110.164,163.92c2.083-0.297,3.868-1.785,4.761-3.569c0.596-0.894,0.596-2.084,0.596-3.273
		c-0.297-1.488-0.894-2.975-2.381-3.867c-1.189-0.893-2.678-1.191-4.166-1.191c-1.785,0.299-3.271,1.191-4.463,2.381
		c-0.893,1.189-1.189,2.679-1.189,4.166c0.298,1.785,1.189,3.271,2.678,4.463C107.188,163.623,108.677,163.92,110.164,163.92
		L110.164,163.92z"/>
	<path fill="#040607" d="M129.504,157.373c-0.595,0.596-0.894,0.894-1.487,0.894c-1.486,0.299-2.678,0.299-3.867-0.298
		c-0.894-0.893-1.785-1.784-2.084-2.678c-0.297-1.488-0.297-2.678,0-3.569c0.597-0.298,0.895-0.597,1.488-0.597
		c0.893-0.297,2.084-0.297,3.272,0c1.19,0.597,2.083,1.785,2.678,3.272C129.802,155.588,129.802,156.479,129.504,157.373
		L129.504,157.373z M127.124,160.351c2.083-0.597,3.868-2.084,4.463-4.166c0.298-0.894,0.298-2.082,0-3.273
		c-0.595-1.486-1.486-2.678-2.977-3.57c-1.486-0.596-2.975-0.893-4.463-0.297c-1.785,0.297-2.976,1.488-3.867,2.975
		c-0.596,1.488-0.893,2.978-0.297,4.463c0.297,1.488,1.486,2.978,3.271,3.57C124.446,160.646,125.935,160.942,127.124,160.351
		L127.124,160.351z"/>
	<path fill="#040607" d="M140.216,154.103l-3.271-7.736c2.082-0.596,4.164,0.594,5.058,2.379
		C142.894,150.828,142.299,152.91,140.216,154.103L140.216,154.103z M138.431,156.778l2.084-1.19
		c1.486-0.594,2.379-1.188,2.975-2.082c1.488-1.784,1.785-3.866,0.893-5.653c-0.893-2.082-2.678-3.57-5.058-3.57
		c-1.19,0-2.38,0.299-3.868,0.893l-1.785,0.893c0.596,0.597,1.189,1.488,1.487,2.382l2.381,5.354
		C137.836,154.694,138.133,155.588,138.431,156.778L138.431,156.778z"/>
	<path fill="#040607" d="M150.332,147.556c0.894,0.596,1.785,0.596,2.678,0c0.595-0.298,0.894-0.894,0.595-1.488
		c-0.297-0.594-0.893-0.894-1.785-0.894c-1.188,0-2.082,0-2.379,0c-1.19-0.297-1.785-0.594-2.381-1.784
		c-0.893-1.785-0.596-3.867,1.487-4.761c0.597-0.596,1.487-0.894,2.38-0.894l0.893,2.082c-0.893-0.297-1.486-0.297-2.379,0.3
		c-0.596,0.297-0.894,0.893-0.297,1.784c0.297,0.894,1.486,0.595,2.975,0.894c1.486,0,2.678,0.297,3.273,1.486
		c1.188,1.784,0.297,3.569-1.787,5.059c-0.595,0.3-1.188,0.597-1.785,0.597L150.332,147.556L150.332,147.556z"/>
	<path d="M175.325,88.642c0-2.083,1.785-4.166,4.166-4.166c2.38,0,4.166,2.083,4.166,4.166c0,2.381-1.786,4.463-4.166,4.463
		C177.11,93.105,175.325,91.022,175.325,88.642L175.325,88.642z M174.729,88.642c0,2.678,2.084,5.059,4.762,5.059
		s4.761-2.083,4.761-5.059c0-2.677-2.083-4.76-4.761-4.76S174.729,85.964,174.729,88.642L174.729,88.642z M178.599,88.939h0.894
		c1.19,1.488,1.487,2.38,1.784,2.38h0.894l0,0c-0.298-0.297-0.894-0.893-1.19-1.19l-0.893-1.19c0.596-0.298,1.189-0.893,1.189-1.488
		c0-0.893-0.893-1.487-1.784-1.487h-2.382v0.297c0.597,0,0.894,0,0.894,0.297v4.166c0,0.298-0.297,0.298-0.894,0.298v0.297h2.382
		v-0.297c-0.595,0-0.894,0-0.894-0.298V88.939L178.599,88.939z M178.599,86.262h0.596c0.893,0,1.189,0.297,1.189,1.19
		s-0.298,1.19-0.893,1.19h-0.893V86.262L178.599,86.262z"/>
</g>
</svg>
