<?xml version="1.0" encoding="utf-8"?>
<!-- Generator: Adobe Illustrator 16.0.0, SVG Export Plug-In . SVG Version: 6.00 Build 0)  -->
<!DOCTYPE svg PUBLIC "-//W3C//DTD SVG 1.1//EN" "http://www.w3.org/Graphics/SVG/1.1/DTD/svg11.dtd">
<svg version="1.1" id="Layer_1" xmlns="http://www.w3.org/2000/svg" xmlns:xlink="http://www.w3.org/1999/xlink" x="0px" y="0px"
	 width="175.751px" height="89.938px" viewBox="8.504 51.409 175.751 89.938" enable-background="new 8.504 51.409 175.751 89.938"
	 xml:space="preserve">
<g>
	<path d="M16.387,81.409l150.932-29.923c3.283-0.651,7.771,2.951,8.391,6.24l8.471,45.125c0.617,3.289-2.734,7.313-6.017,7.967
		L25.236,141.222c-3.951,0.784-7.127-2.255-7.725-5.316L8.605,90.247C8.051,87.407,9.652,82.744,16.387,81.409L16.387,81.409z"/>
	<path fill="#FFF204" d="M14.062,83.1l152.625-30.557c3.281-0.657,6.877,2.115,7.543,5.395l9.104,44.913
		c0.665,3.281-2.31,6.898-5.594,7.545L25.315,140.354c-3.285,0.646-6.5-1.514-7.146-4.797L9.263,90.247
		C8.618,86.962,10.779,83.757,14.062,83.1L14.062,83.1z"/>
	<path fill="#ED1C24" d="M14.379,82.49L166.56,52.153c3.283-0.654,7.795,2.33,8.43,5.616l8.662,44.914
		c0.635,3.285-2.754,7.109-6.035,7.765L25.19,140.851c-3.283,0.655-6.5-1.955-7.146-5.24L9.138,90.3
		C8.492,87.015,11.096,83.145,14.379,82.49L14.379,82.49z M19.246,133.034c0.349,1.77,1.373,3.021,2.768,3.958
		c1.391,0.935,3.136,1.343,4.901,1.003c-0.007,0-0.002,0,0.021-0.005h0.005l21.947-4.347c1.457-0.285,3.977-3.144,6.474-1.24
		c10.109-3.234,15.56-3.7,20.706-5.078l2.331-0.459c3.293-1.186,6.127-1.204,9.303-1.828l5.972-1.174
		c2.3-0.452,4.601-0.432,6.9-1.356c0.938-0.725,3.315-2.521,5.108-0.856c2.676-4.006,5.612-3.183,9.838-2.08
		c4.103-0.807,7.92-2.465,12.307-2.42c3.076-0.604,6.337-2.826,9.23-1.814c4.521-0.889,10.205-0.033,14.157-1.773
		c2.524-0.496,5.238-2.42,7.573-2.254c2.962-0.582,6.111-1.533,8.885-0.979c2.766-0.544,5.531-2.317,8.297-1.631
		c2.551-0.503,4.473-2.44,5.092-4.81c0.115-0.447,0.186-0.924,0.201-1.421c0.018-0.483-0.594-0.974-0.688-1.457
		c0.001,0.007,0.574,0.003,0.568-0.021v-0.006l-0.51-2.596c-1.113-3.247-2.048-4.017-1.826-7.556
		c-0.303-1.535,0.152-4.593-0.906-5.372c-2.938-3.798-1.586-7.597-2.049-11.396c-0.396-2.015,0.061-4.408-1.188-6.044
		c-1.18-2.121-1.275-7.314-1.667-8.987c-0.429-2.171-1.468-2.989-2.86-3.926c-1.393-0.934-3.137-1.342-4.902-1.002
		c0.008-0.001,0.004,0-0.021,0.005h-0.005l-21.947,4.345c-1.455,0.286-3.977,3.144-6.474,1.242
		c-10.108,3.234-15.562,3.7-20.706,5.079l-2.331,0.458c-3.292,1.186-6.126,1.205-9.302,1.829l-5.973,1.174
		c-2.3,0.452-4.6,0.431-6.899,1.355c-0.94,0.725-3.316,2.521-5.108,0.857c-2.678,4.005-5.614,3.182-9.839,2.081
		c-4.102,0.806-7.92,2.464-12.307,2.419c-3.077,0.605-6.336,2.827-9.231,1.814c-4.521,0.889-10.204,0.034-14.157,1.774
		c-2.524,0.497-5.238,2.42-7.574,2.254c-2.961,0.582-6.112,1.534-8.884,0.981c-2.766,0.543-5.531,2.317-8.297,1.631
		c-2.551,0.501-4.474,2.44-5.091,4.808c-0.117,0.447-0.186,0.923-0.202,1.421c-0.017,0.484,0.594,0.973,0.687,1.457
		c-0.001-0.007-0.574-0.002-0.569,0.021v0.005l0.51,2.597c1.113,3.246,2.047,4.017,1.827,7.554c0.301,1.535-0.154,4.594,0.905,5.373
		c2.938,3.799,1.587,7.598,2.048,11.396c0.396,2.015-0.059,4.407,1.188,6.044c1.538,2.77,1.09,5.676,1.672,8.636
		c-0.004-0.019,0.069,0.232,0.083,0.312h0.003l0.001,0.005H19.24c0,0.002,0,0.003,0.001,0.005L19.246,133.034L19.246,133.034z"/>
	<path d="M35.678,130.601c-0.865-4.285-0.865-4.285-0.825-4.639c0.393-0.079,0.825-0.118,1.257-0.156
		c0.197,0.313,0.394,0.629,0.629,0.981c1.612,0,1.965-1.181,2.24-2.478c0.433,1.258,0.865,2.517,1.336,3.813
		c0.786,0.511,0.865,0.903,1.179,1.808c-0.865-0.078-1.729-0.156-2.555-0.195c-0.629-0.395-0.904-1.141-1.258-1.77
		c-0.904-0.117-1.297,1.533-1.415,2.161C36.071,130.285,35.875,130.442,35.678,130.601L35.678,130.601z"/>
	<path d="M51.166,127.22c-0.275-0.236-0.708-0.394-0.786-0.707c1.14-0.236,2.319-0.433,3.499-0.63
		c-0.275-0.942-0.865-2.122-0.708-3.104c0.118-0.196,0.236-0.394,0.393-0.551c-0.314-0.629-0.236-0.472-0.826-0.472
		c-0.236-0.196-0.472-0.433-0.786-0.433c-2.909,2.357-2.909,2.357-3.145,2.438c0.196-0.865,0.432-1.729,0.668-2.595
		c0.629,0,2.005-0.864,1.572-1.61c-0.511-0.158-0.982-0.314-1.454-0.434c-0.314-0.55-0.59-1.102-0.865-1.65
		c-0.629-5.148-1.219-10.299-1.809-15.408c-0.354-5.229-0.707-10.457-1.061-15.646c9.119-1.847,9.119-1.847,10.574-2.043
		c1.18,2.201,2.241,4.481,3.184,6.8c0.197,1.062,0.433,2.162,0.668,3.263c1.061,2.201,2.162,4.403,3.262,6.604
		c0.314,1.415,0.747,2.633,1.376,3.932c0.275,1.219,0.55,2.476,0.865,3.733c0.275,0.511,0.589,1.021,0.904,1.571
		c0.472,1.416,0.943,2.83,1.454,4.246c0,0.707-0.825,0.981-1.376,1.297c0.826,0.236,1.651,0.472,2.477,0.746
		c0.275,0.904,0.275,0.904,0.354,1.888c-1.14-0.079-2.358-0.354-3.381,0.157c-0.472,0.668-1.14,1.297-1.336,2.082
		c1.297-0.234,2.28-1.729,3.459-0.824c0.472-0.039,0.943-0.078,1.455-0.118c1.062,0.708,2.437,2.162,1.455,3.459
		c-0.668,0.236-5.268,1.142-5.817,1.142c-1.651-1.377-2.123-3.695-2.87-5.662c-0.55-0.393-1.062-0.746-1.572-1.101
		c-1.651,0.513-3.302,1.062-4.914,1.612c-0.708,1.415-0.786,2.201-0.511,3.773c0,1.178-0.236,2.318-0.59,3.459
		C53.682,126.67,52.423,126.944,51.166,127.22L51.166,127.22z M68.225,123.171c-0.196-0.434-0.354-0.747-0.157-1.14
		c0.197,0,0.393,0,0.629,0c0.157,0.313,0.118,0.629,0.079,0.981C68.579,123.053,68.382,123.093,68.225,123.171L68.225,123.171z
		 M49.475,126.197c-0.157-0.354-0.236-0.55-0.157-1.021c0.079-0.079,0.197-0.118,0.315-0.157c0.432,0.196,0.472,0.629,0.393,1.102
		C49.829,126.119,49.633,126.158,49.475,126.197L49.475,126.197z M52.188,125.215c-0.472-0.354-0.943-0.707-1.415-1.062
		c0.747-0.274,0.747-0.274,1.179-0.274c0.314,0.394,0.589,0.707,0.786,1.218C52.541,125.138,52.345,125.176,52.188,125.215
		L52.188,125.215z M50.812,118.336c0-0.235,0-0.433,0-0.629c0.196,0.157,0.393,0.313,0.589,0.472
		C51.205,118.219,51.008,118.258,50.812,118.336L50.812,118.336z M52.738,116.567c-0.197-0.235-0.197-0.235-0.314-0.786
		c0.079-0.157,0.157-0.275,0.275-0.394c0.118,0,0.275,0,0.432,0c0.157,0.354,0.157,0.668,0.157,1.062
		C53.092,116.487,52.895,116.528,52.738,116.567L52.738,116.567z M56,116.567c-0.275-0.395-0.472-0.629-0.157-1.18
		c0.157-0.039,0.314-0.039,0.472-0.039c0.275,0.274,0.236,0.59,0.275,0.982C56.394,116.41,56.197,116.487,56,116.567L56,116.567z
		 M56.904,116.449c0.275-0.472,0.551-0.943,0.865-1.376c0.865-0.235,1.376-0.314,1.848-1.061c-0.472-0.354-0.943-0.709-1.376-1.022
		c-1.14-0.235-1.887-0.668-2.83-1.259c-0.825-3.97-1.612-7.939-2.397-11.909c-0.865-0.669-1.612-1.062-2.634-1.298
		c-0.354-0.196-0.708-0.354-1.022-0.512c0.079-0.234,0.196-0.472,0.314-0.707c0.747,0,1.415,0.235,2.162,0.157
		c-0.314-1.454-0.59-2.909-0.865-4.363c-0.55-0.433-0.825-0.708-1.494-0.983c-0.629-0.039-1.258-0.039-1.847-0.039
		c-0.157-0.786-0.314-1.533-0.433-2.28c1.376-0.275,3.302-0.511,3.97-0.511c1.729,0.511,2.712,1.729,4.363,0.55
		c0.039,0.314,0.079,0.629,0.118,0.983c0.394-0.04,0.786-0.04,1.219-0.04c-0.629,1.062-0.197,1.415,0.55,2.358
		c0.118,0.433,0.236,0.865,0.393,1.297c-0.59,0.079-1.179,0.196-1.769,0.314c0.825,0.983,2.24,2.123,1.218,3.499
		c0.039,0.786,0.197,1.336-0.197,2.005c0,3.105,1.337,6.368,2.358,9.237c0.197,1.061,0.433,2.161,0.668,3.263
		c0.275,0.473,0.589,0.943,0.904,1.454c0.078,0.433,0.157,0.864,0.275,1.336c-0.472-0.117-0.904-0.235-1.336-0.313
		C58.948,115.742,58.005,116.292,56.904,116.449L56.904,116.449z M51.952,112.283c-0.039-0.197-0.039-0.394-0.039-0.591
		c0.118,0,0.235,0,0.393,0c0,0.158,0.039,0.314,0.078,0.473C52.227,112.204,52.069,112.243,51.952,112.283L51.952,112.283z
		 M62.054,111.496c0-0.196,0-0.394,0-0.55c0.157,0,0.314,0.039,0.472,0.078c0,0.117,0,0.235,0,0.354
		C62.368,111.418,62.211,111.457,62.054,111.496L62.054,111.496z M65.198,111.496c-0.196-0.433-0.157-0.589-0.118-1.101
		c0.196-0.039,0.393-0.039,0.629-0.039c0.236,0.235,0.157,0.59,0.196,0.903C65.67,111.34,65.435,111.418,65.198,111.496
		L65.198,111.496z M48.925,106.465c-0.236-0.433-0.432-0.511-0.432-1.021c0.236-0.236,0.314-0.275,0.708-0.275
		c0.157,0.354,0.157,0.668,0.157,1.062C49.2,106.308,49.043,106.388,48.925,106.465L48.925,106.465z M61.268,102.729
		c-0.236-0.116-0.472-0.234-0.668-0.312c0-0.079,0-0.158,0-0.236c0.59-0.117,1.179-0.195,1.809-0.274
		c0.039,0.235,0.079,0.472,0.118,0.708C62.093,102.651,61.661,102.69,61.268,102.729L61.268,102.729z M50.615,102.181
		c-0.865-0.707-2.162-0.746-2.791-1.809c-0.079-0.312-0.157-0.629-0.236-0.903c2.241,0,3.145,0.433,3.224,2.712
		C50.733,102.181,50.654,102.181,50.615,102.181L50.615,102.181z M59.027,101.276c-0.039-0.157-0.079-0.314-0.118-0.473
		c0.314,0,0.354-0.039,0.668,0.157c0,0.04,0,0.118,0,0.196C59.381,101.198,59.184,101.237,59.027,101.276L59.027,101.276z
		 M49.043,97.347c-0.354-0.354-0.275-0.63-0.275-1.141c0.197,0,0.394,0,0.59,0c0.157,0.314,0.157,0.55,0.157,0.904
		C49.357,97.188,49.2,97.269,49.043,97.347L49.043,97.347z M56.118,97.228c-0.393-0.273-0.55-0.707-0.275-1.14
		c0.197-0.039,0.393-0.039,0.589-0.039c0.157,0.354,0.314,0.668,0.236,1.062C56.472,97.149,56.275,97.188,56.118,97.228
		L56.118,97.228z M48.689,95.459c-0.157-0.118-0.314-0.236-0.432-0.354c0-0.079,0-0.157,0-0.236c0.157,0,0.354,0,0.55,0
		c0,0.157,0.039,0.315,0.079,0.472C48.807,95.38,48.729,95.42,48.689,95.459L48.689,95.459z M53.878,95.105
		c-0.196-0.157-0.393-0.275-0.59-0.393c0.236-0.118,0.236-0.118,0.59-0.079C53.878,94.791,53.878,94.948,53.878,95.105
		L53.878,95.105z"/>
	<path d="M34.303,124.075c-0.472-1.376-0.944-2.752-1.416-4.128c0.079-0.63,0.157-1.259,0.275-1.847
		c0.943,0,1.455,1.178,1.769,1.926C34.931,121.245,34.695,122.976,34.303,124.075L34.303,124.075z"/>
	<path d="M39.806,123.053c-0.433-0.432-0.393-0.589-0.314-1.219c0.196,0,0.432,0.04,0.668,0.079
		c0.118,0.354,0.157,0.668,0.118,1.062C40.12,122.976,39.963,123.015,39.806,123.053L39.806,123.053z"/>
	<path d="M76.087,122.976c-0.197-0.395-0.472-0.787-0.158-1.181c0.158,0,0.315,0,0.511,0c0.157,0.313,0.157,0.59,0.157,0.942
		C76.401,122.817,76.244,122.896,76.087,122.976L76.087,122.976z"/>
	<path d="M73.06,122.896c-0.04-0.039-0.04-0.039-0.04-0.039c0-0.039,0-0.078,0.04-0.078c0,0,0.039,0.039,0.078,0.078
		C73.099,122.856,73.06,122.856,73.06,122.896L73.06,122.896z"/>
	<path d="M73.06,122.776c-0.04,0-0.04,0.041-0.04,0.08c-0.235-0.157-0.432-0.314-0.629-0.473c0.118-0.195,0.275-0.354,0.433-0.511
		C72.903,122.149,72.981,122.464,73.06,122.776L73.06,122.776z"/>
	<path d="M36.464,121.166c0.393-1.729,0.314-1.926,1.887-2.594c0.157,0.668,0.353,1.336,0.55,2.044
		C38.076,120.772,37.25,120.97,36.464,121.166L36.464,121.166z"/>
	<path d="M75.418,121.166c-0.079-0.433-0.236-0.747-0.157-1.179c0.196-0.04,0.393-0.079,0.629-0.079
		C75.812,120.38,75.654,120.772,75.418,121.166L75.418,121.166z"/>
	<path d="M81.157,120.931c-0.039-0.156-0.079-0.313-0.118-0.433c0.157-0.039,0.354-0.039,0.55-0.039c0,0.118,0,0.235,0,0.354
		C81.433,120.853,81.275,120.892,81.157,120.931L81.157,120.931z"/>
	<path d="M86.189,120.38c0.157-1.062,0.393-1.77,1.494-2.122c-0.118-1.062-0.197-2.358-1.101-3.065
		c0.589-0.118,1.179-0.235,1.769-0.314c0.275,1.65,0.59,3.303,0.904,4.953C88.233,119.987,87.211,120.185,86.189,120.38
		L86.189,120.38z"/>
	<path d="M83.634,120.146c0.236-0.629,0.472-1.259,0.747-1.849c0.275,0.078,0.55,0.157,0.826,0.275c0,0.235,0,0.511,0,0.786
		C84.42,119.869,84.42,119.869,83.634,120.146L83.634,120.146z"/>
	<path d="M91.613,119.358c-0.433-2.123-0.433-2.123-0.393-2.517c2.044-0.472,2.044-0.472,3.852-0.708
		c0.393,0.118,0.826,0.236,1.258,0.354c1.376-0.273,2.005-0.549,1.022-1.729c-0.119-0.273-0.236-0.55-0.315-0.785
		c0.119-0.746,0.235-1.533,0.708-2.162c1.337,0,2.83,0.629,4.088,0.982c0.195,0.786,0.395,1.572,0.59,2.396
		c0.157,0.08,0.157,0.08,2.083-0.313c-0.274-1.062-0.746-2.162-0.746-3.263c0.785-0.904,1.572-1.926,2.79-1.18
		c0.512,1.532,1.612,3.498,1.612,5.109c-0.274,0.197-0.513,0.395-0.747,0.59C102.147,117.196,96.881,118.258,91.613,119.358
		L91.613,119.358z"/>
	<path d="M72.156,114.72c0-0.039,0.04-0.078,0.079-0.078c0.472,1.021,1.022,2.004,1.651,2.947c-0.354,0.275-0.668,0.551-0.982,0.826
		C72.627,117.156,72.392,115.938,72.156,114.72L72.156,114.72z"/>
	<path d="M80.253,118.258c-0.118-0.433-0.354-0.629-0.236-1.141c0.196-0.039,0.393-0.039,0.629-0.039
		c0.118,0.354,0.196,0.511,0.196,0.942C80.646,118.101,80.45,118.179,80.253,118.258L80.253,118.258z"/>
	<path d="M32.416,117.354c-1.101-4.363-2.162-8.728-3.223-13.051c0-0.275,0-0.551,0-0.787c0.511-1.297-0.118-2.673-0.118-4.048
		c0.236-0.512,0.472-1.021,0.708-1.493c0.865-0.197,1.729-0.394,2.633-0.591c0.118-0.235,0.236-0.432,0.393-0.629
		c-0.472-0.196-0.904-0.354-1.336-0.511c-0.589-1.769,1.533-3.263,2.948-3.813c1.258,0,1.258,0,1.729,1.101
		c0,0.864-0.314,1.297-0.865,1.965c-0.04,0.118-0.04,0.236-0.04,0.394c0.629,3.263,1.258,6.525,1.926,9.787
		c-0.786,0.825-1.533,1.062-2.516,0.314c0.275-0.629,0.55-1.258,0.826-1.887c0-1.455-1.73-1.888,0-3.264
		c-0.04-0.312-0.04-0.629-0.04-0.902c-1.022-0.434-1.022-0.434-2.24-0.748c-0.394,0.394-0.59,0.826-0.865,1.338
		c0.472,0.312,0.943,0.628,1.415,0.981c0,0.078,0,0.157,0,0.235c-0.589,0.039-1.14,0.118-1.69,0.197
		c0.354,1.14,1.218,1.492,0.472,2.476c-0.983,0.236-1.769,0.313-1.769,1.455c0.275,0.354,0.275,0.354,0.747,0.628
		c0.354,1.102,0.708,2.438,0.275,3.538c0,0.157,0,0.354,0.04,0.551c1.218,0.589,2.123-0.235,3.263-0.864
		c0.432,0,0.747,0.354,1.14,0.354c0.314-0.473,0.629-0.944,0.983-1.376c0.196,0.116,0.393,0.235,0.589,0.394
		c0.275,0.825,0.275,0.825,0.826,3.853c-0.04,0.864-0.079,1.729-0.118,2.594c-0.708-1.415-1.375-2.79-2.044-4.166
		c-0.236,0.039-0.472,0.078-0.668,0.117c-0.118,0.669-0.236,1.337-0.354,2.005c-0.668-0.55-1.062-0.902-1.965-0.786
		c-0.472,1.259-0.472,1.259-0.786,2.634C32.73,116.174,33.084,116.765,32.416,117.354L32.416,117.354z"/>
	<path d="M74.868,116.765c-0.314-0.512-0.314-0.591-0.236-1.22c0.157,0,0.354,0,0.55,0.04
		C75.458,116.332,75.536,116.449,74.868,116.765L74.868,116.765z"/>
	<path d="M83.28,116.449c-0.432-0.354-0.432-0.63-0.354-1.179c0.236-0.041,0.472-0.08,0.708-0.08
		c0.039,0.275,0.079,0.591,0.157,0.904C83.595,116.214,83.437,116.332,83.28,116.449L83.28,116.449z"/>
	<path d="M77.895,115.545c-0.354-0.354-0.393-0.668-0.275-1.179c0.196,0,0.393,0,0.629,0c0.118,0.275,0.118,0.275,0.079,0.982
		C78.17,115.388,78.013,115.467,77.895,115.545L77.895,115.545z"/>
	<path d="M91.377,115.428c-0.982-1.219-0.982-1.219-1.533-2.122c0-1.416,0.118-3.105-0.157-4.481
		c0.236-0.078,0.472-0.157,0.747-0.235c-0.59-1.572-0.59-1.572-0.59-1.926c0.629-0.747,1.376-1.573,2.438-1.689
		c0.118,1.061,0.235,2.121,0.354,3.184c-0.275,2.005-0.589,1.729,1.101,2.947c0.197,0,0.432,0,0.668,0
		c0.472-0.824,0.943-1.689,0.943-2.633c-0.118-0.512-0.236-0.982-0.354-1.455c-0.983-1.18-1.022-1.966-1.336-3.498
		c-0.275-0.394-0.55-0.787-0.825-1.141c-0.511,0-0.747-0.039-1.219,0.157c0.236-1.179,0.904-2.279,1.572-3.263
		c-0.825-0.196-1.415-0.473-2.319-0.394c-0.118,0.274-0.118,0.274-0.354,4.206c-0.157,0.354-0.314,0.707-0.472,1.102
		c-0.668,0-0.826-0.041-1.415-0.314c-1.14-5.739-1.14-5.739-1.376-6.407c-0.589-0.708-0.747-1.18-1.061-2.044
		c0.354-0.04,0.354-0.04,1.022,0.157c0.904,0,2.044-0.157,2.909-0.354c0.079-0.472,0.157-0.904,0.275-1.336
		c0.864-0.708,1.769-1.022,2.791-1.258c-0.04,0.354-0.079,0.747-0.079,1.14c-0.59,0.943-1.808,1.965-0.157,2.672
		c0.196-0.747,0.354-1.336,0.786-2.004c0.236-0.04,0.511-0.079,0.786-0.079c1.533,0.55,2.319,1.297,3.577-0.118
		c0.629-0.315,1.258-0.629,1.928-0.944c0.393-0.982,0.629-0.865,1.572-1.218c0.195,0.825,0.393,1.651,0.588,2.476
		c0.513,0.904,1.651,2.241,0.748,3.145c-1.455,0.275-3.105,0.824-4.6,0.824c-0.551-0.353-0.904-0.824-1.337-1.336
		c-0.117,0-0.196,0-0.274,0c-0.433,0.668-0.158,1.181-0.158,1.967c-0.471,0.668-0.903,1.336-1.336,2.004
		c0,0.473,0.904,4.718,1.336,7.312c-0.078,1.494-0.471,2.948-1.021,4.363c-0.589,0.274-1.14,0.551-1.69,0.825
		c-0.628,0.551-1.218,1.101-1.808,1.689C91.81,115.349,91.574,115.388,91.377,115.428L91.377,115.428z M88.547,94.201
		c-0.59-1.219-1.494-1.533-2.791-1.533c-1.415-1.611-1.651-4.795-2.083-6.761c-1.69-5.621-1.69-5.621-1.69-5.975
		c0.118-0.236,0.236-0.472,0.393-0.668c5.267-1.572,10.652-2.948,16.077-3.931c0.274,1.533,0.55,3.066,0.825,4.599
		c-0.118,0.196-0.196,0.393-0.275,0.589c-1.533,0.275-3.145,0.236-4.717,0.196c-0.472,0.708-0.943,1.455-1.376,2.202
		c-0.393,0.275-0.786,0.589-1.14,0.904c-0.275,2.477,0.118,4.914,0.511,7.351c-0.472,0.157-0.944,0.314-1.416,0.511
		C90.12,92.629,89.491,93.454,88.547,94.201L88.547,94.201z M88.468,90.388c-0.235-0.157-0.432-0.314-0.628-0.433
		c-0.314-1.336-0.629-2.673-0.943-3.97c-1.101-0.668-0.668-1.769-0.551-2.909c0.708-0.59,1.455-0.944,2.319-1.376
		c0.157,0.668,0.314,1.336,0.472,2.044c0.236-0.039,0.511-0.079,0.787-0.079c0,2.201-0.079,4.442,0.314,6.604
		C89.647,90.31,89.058,90.349,88.468,90.388L88.468,90.388z M84.42,83.863c-0.157-0.157-0.314-0.314-0.472-0.433
		c0.079-0.196,0.196-0.354,0.314-0.511c0.236,0.236,0.275,0.589,0.354,0.943C84.538,83.863,84.459,83.863,84.42,83.863L84.42,83.863
		z M85.206,87.676c-0.04-0.197-0.079-0.394-0.118-0.551c0.118,0,0.275,0.04,0.433,0.079c0,0.118,0,0.236,0,0.393
		C85.403,87.597,85.285,87.637,85.206,87.676L85.206,87.676z M88.665,92.196c-0.157-0.314-0.157-0.314-0.118-0.589
		c0.157,0,0.314,0,0.472,0c0,0.079,0,0.157,0.039,0.275C88.901,91.96,88.783,92.079,88.665,92.196L88.665,92.196z M100.575,97.031
		c-0.039-0.235-0.078-0.472-0.117-0.707c0.157,0,0.312,0.039,0.473,0.078c0,0.118,0,0.235,0,0.394
		C100.812,96.874,100.692,96.953,100.575,97.031L100.575,97.031z M91.613,107.685c-0.196-0.434-0.433-0.668-0.157-1.181
		c0.196,0,0.393,0,0.59,0c0.157,0.315,0.157,0.59,0.157,0.943C92.006,107.526,91.81,107.604,91.613,107.685L91.613,107.685z"/>
	<path d="M109.104,115.19c-0.117-1.649-0.274-2.907,0.354-4.48c0.786,0,1.415,0.079,2.24,0.236c0,0.195,0,0.433,0,0.668
		c-0.235,0.039-0.235,0.039-1.062,0.746c0,1.69,2.2,0.904,3.303,0.709c0-1.18,0-2.319,0.039-3.461
		c0.472-1.297,0.354-3.025,0.354-4.401c-0.629-0.511-2.594-1.649-2.594,0c0.273,0.313,0.982,0.903,0.863,1.337
		c-1.336,0.59-1.61,0.982-1.926,2.357c-0.314-0.039-0.433-0.156-0.982-0.156c-0.313,0.195-0.903,0.747-1.258,0.629
		c-1.219-1.65,0.551-3.42,0.551-5.148c-0.275-0.354-0.551-0.668-0.786-0.982c0.039-0.825,0.039-0.825,0.235-1.494
		c-0.433-0.078-0.826-0.157-1.219-0.234c0.275-0.552,0.59-1.062,0.903-1.572c-1.572-0.512-2.24-0.551-2.24-2.241
		c0.394-0.982,1.81-1.297,2.712-1.65c0.236,0.117,0.473,0.275,0.747,0.433c0.629-0.118,1.259-0.236,1.927-0.315
		c-1.336-1.061-3.733-1.533-5.425-1.179c-0.235-1.179-0.472-2.319-0.668-3.459c0.55-0.079,1.101-0.157,1.688-0.236
		c0.236,0.982,0.314,1.651,1.142,2.162c2.476-0.314,2.476-0.314,3.931-0.668c0.275-0.472,0.354-0.708,0.354-1.258
		c-0.668-0.511-1.415-1.376-2.28-1.494c-0.312-0.59-0.628-1.179-0.902-1.769c-0.67,0.196-0.748,1.179-0.943,1.769
		c-0.473-0.983-0.473-0.983-0.826-1.376c-0.902,0-1.809,0.314-2.712,0.314c-0.668-1.022-1.571-2.516,0-3.145
		c1.454,0,2.24,0.118,2.752,0.039c0.59-0.904,0.942-2.28,1.179-3.341c-0.668,0.118-1.336,0.236-2.005,0.354
		c0-0.904-0.196-1.1,0.354-1.808c-0.079-0.511-0.157-0.982-0.236-1.454c0.943-1.062,1.729-2.358,3.027-0.826
		c0.432,2.201,0.902,4.402,1.375,6.643c0.669,1.769,1.375,4.441,3.066,5.582c0.354-0.275,0.746-0.511,1.139-0.747
		c0,0.865-0.077,1.729-0.274,2.594c-0.942,0.668-1.729,1.494-2.556,2.319c-0.038,1.14-0.038,2.28-0.038,3.419
		c0.511,0.511,1.021,1.021,1.532,1.532c0.59,3.263,1.219,6.525,1.848,9.788c0.079,1.297,0.158,2.594,0.275,3.93
		C113.743,114.287,111.425,114.72,109.104,115.19L109.104,115.19z M117.635,89.72c-0.235-0.197-0.472-0.393-0.668-0.55
		c0.591-1.848,0.825-3.459,0.825-5.425c-0.825-1.533-2.24-3.459-2.24-5.267c1.809-3.577,1.809-3.577,2.24-4.206
		c-0.275-0.196-0.55-0.393-0.786-0.589c-4.127,0.825-8.254,1.651-12.382,2.477c-0.59,0.511-1.141,0.982-1.454,1.65
		c-0.274,0.079-0.551,0.197-0.825,0.314c-0.236-0.904-0.63-2.633,0.117-3.38c0.314-0.118,0.629-0.196,0.943-0.275
		c4.757-0.511,9.552-0.983,14.348-1.455c1.219,0.354,2.396,0.747,3.498,1.376c0.197,0.275,0.395,0.55,0.59,0.825
		c1.141,0.826,1.141,1.612,1.533,2.948c-0.512-0.079-0.982-0.157-1.454-0.197c-0.274-0.275-0.274-0.275-1.022-1.651
		c-0.117-0.039-0.234-0.079-0.313-0.079c-0.196,0.629-0.354,0.629-0.118,1.337c-0.393,0.078-0.785,0.157-1.14,0.235
		c0,0.197,0,0.433,0.039,0.668c0.472,0.314,0.942,0.629,1.415,0.943c0.943-0.039,1.887-0.039,2.83-0.039
		c0.117,0.904,0.236,1.808,0.354,2.712c-0.079,1.101-0.314,2.123-0.04,3.224c-0.55,0.275-1.1,0.55-1.649,0.825
		c-0.314,0.55-0.314,0.55-0.551,1.454c-0.473-0.393-1.259-0.904-1.377-1.572c-0.511,0.078-0.785,0.157-1.14,0.511
		c0.04,0.079,0.079,0.157,0.118,0.275c0.314,0,0.393,0.394,0.393,0.668c-0.432,0.314-0.824,0.629-1.218,0.943
		C118.187,88.855,117.91,89.288,117.635,89.72L117.635,89.72z M123.492,112.399c-0.394-1.808-0.786-3.615-1.14-5.424
		c1.531,0,2.082,2.674,3.852,2.397c0.314-1.297,0.982-2.673,0.195-3.853c-0.549-0.039-0.549-0.039-2.239,0.235
		c-0.157-0.59-0.275-1.18-0.394-1.769c-0.551,0.511-1.062,1.021-1.572,1.572c-1.102-3.854-2.161-7.705-3.537-11.479
		c-1.572-0.196-1.809-0.865-1.729-2.516c1.178-1.179,2.004-0.589,3.418,0c1.022,0.275,2.084,0.55,3.146,0.826
		c0.039,0.236,0.589,0.904,0.668,1.14c2.357,0.904,3.105,1.258,1.494,3.498c0,0.904,0.55,0.707,1.218,0.551
		c0.511,2.24,1.612,4.245,2.595,6.289c0.473,1.808,0.473,1.808,0.904,4.363c-0.04,1.101-0.04,2.24-0.04,3.379
		C128.13,112.086,125.771,112.204,123.492,112.399L123.492,112.399z M126.399,102.181c-0.273-0.472-0.393-0.668-0.313-1.219
		c0.157-0.039,0.354-0.078,0.552-0.078c0.313,0.314,0.234,0.629,0.234,1.062C126.715,102.022,126.558,102.103,126.399,102.181
		L126.399,102.181z M125.063,95.892c-0.196-0.433-0.433-0.668-0.156-1.179c0.195,0,0.393,0,0.589,0
		c0.157,0.354,0.157,0.786,0.118,1.179C125.418,95.892,125.222,95.892,125.063,95.892L125.063,95.892z M121.685,101.158
		c-0.314-0.235-0.394-0.55-0.394-0.903c0.196-0.195,0.274-0.395,0.629-0.395C122.272,100.451,122.509,100.884,121.685,101.158
		L121.685,101.158z M109.224,99.822c-0.158-0.157-0.274-0.314-0.394-0.433c0.039-0.943-0.078-0.748,0.629-0.865
		c0.157,0.314,0.274,0.551,0.274,0.943C109.537,99.586,109.381,99.704,109.224,99.822L109.224,99.822z M110.127,99.822
		c-0.039-0.157-0.039-0.314-0.039-0.472c0.157,0,0.313,0,0.472,0c0,0.156,0,0.313,0,0.472
		C110.401,99.822,110.245,99.822,110.127,99.822L110.127,99.822z M120.465,90.506c-0.747-0.59-1.101-0.865-0.511-1.848
		c0.511,0,1.18,0,1.494,0.472C121.251,89.799,121.094,90.271,120.465,90.506L120.465,90.506z M120.229,84.099
		c-0.354-0.472-0.395-0.629-0.314-1.219c0.156-0.039,0.354-0.079,0.55-0.079c0.313,0.314,0.236,0.629,0.236,1.062
		C120.544,83.942,120.388,84.021,120.229,84.099L120.229,84.099z M121.369,82.094c-0.039-0.157-0.039-0.275-0.039-0.393
		c0.313-0.196,0.864-0.393,1.258-0.196c-0.039,0.157-0.079,0.314-0.118,0.472C122.077,82.016,121.724,82.055,121.369,82.094
		L121.369,82.094z M111.699,78.714c-0.274-0.196-0.55-0.393-0.786-0.55c0.354-0.511,0.512-0.708,1.021-1.022
		c0.078,0.511,0.196,1.022,0.314,1.572C112.054,78.714,111.856,78.714,111.699,78.714L111.699,78.714z M117.987,76.12
		c-0.588-0.59-0.51-1.258,0.395-1.258C118.5,75.451,118.657,75.923,117.987,76.12L117.987,76.12z"/>
	<path d="M73.728,114.995c-0.118-0.395-0.157-0.669-0.118-1.141c0.825,0,0.825,0.117,0.786,1.141
		C74.161,114.995,73.925,114.995,73.728,114.995L73.728,114.995z"/>
	<path d="M72.156,114.72c-0.039-0.039-0.039-0.078-0.039-0.078c0-0.039,0-0.039,0.039-0.039c0,0,0.04,0,0.079,0.039
		C72.195,114.642,72.156,114.681,72.156,114.72L72.156,114.72z"/>
	<path d="M72.156,114.603c-0.039,0-0.039,0-0.039,0.039c-0.04-0.078-0.079-0.156-0.079-0.235
		C72.156,114.405,72.156,114.405,72.156,114.603L72.156,114.603z"/>
	<path d="M133.594,111.063c-0.235-0.274-0.433-0.551-0.629-0.785c-0.235-1.612-1.021-4.678,0-5.976c0-0.825-0.235-1.573-0.432-2.358
		c-0.591-0.668-0.591-0.668-0.787-1.102c-0.629-3.064-1.218-6.092-1.808-9.119c0-0.708,0.274-1.376,0.195-2.044
		c-0.234-0.118-0.472-0.236-0.707-0.314c-0.59-3.066-1.18-6.132-1.77-9.198c1.376,0.078,2.713,0.039,4.128-0.079
		c0.394,0.825-0.708,1.572-1.142,1.965c0,0.904,0.904,1.572,1.062,2.476c-0.512,0.079-0.903,0.511-1.102,0.904
		c0.236,0.236,0.434,0.196,0.748,0.275c1.689-1.533,1.769-1.336,0.59-3.263c0.472-0.393,1.572-1.022,1.572-1.73
		c-0.904-1.454-1.69-2.476-1.771-2.751c0.274-0.707,0.786-1.533,0.786-2.28c-1.258-1.257-3.065,1.533-3.498,2.241
		c-0.865,0.747-0.943,0.943-1.809,0.236c-0.156-0.786-0.313-1.533-0.433-2.28c-0.394-0.826-0.786-1.651-1.14-2.438
		c-0.197-0.825-0.395-1.651-0.59-2.476c2.477-0.511,4.992-0.982,7.508-1.455c2.082,10.417,4.166,20.873,6.25,31.328
		c0,1.18,0,2.358,0.039,3.577c0.235,0.079,0.472,0.196,0.707,0.313c0.235,1.142,0.235,1.142,0.394,1.377
		c1.808,1.258,1.494,1.572,0.707,3.576C138.312,110.121,135.952,110.593,133.594,111.063L133.594,111.063z M137.644,107.92
		c-0.039-0.118-0.078-0.235-0.078-0.313c0.234-0.236,0.273-0.197,0.629-0.275c-0.039,0.156-0.079,0.314-0.118,0.472
		C137.918,107.841,137.761,107.88,137.644,107.92L137.644,107.92z M137.092,106.465c-0.038-0.196-0.038-0.354-0.038-0.511
		c0.156,0,0.313,0,0.471,0c0,0.118,0,0.236,0,0.395C137.367,106.388,137.21,106.426,137.092,106.465L137.092,106.465z
		 M135.284,106.465c0-1.062-0.039-1.415,1.14-1.926C136.424,105.758,136.347,105.797,135.284,106.465L135.284,106.465z
		 M134.498,99.94c0-0.236,0-0.473,0-0.67c0.118,0.041,0.274,0.08,0.433,0.157c0,0.079,0,0.197,0,0.314
		C134.772,99.783,134.616,99.86,134.498,99.94L134.498,99.94z M135.638,94.201c-0.039-0.157-0.039-0.314-0.039-0.472
		c0.196-0.04,0.395-0.079,0.59-0.079c-0.039,0.118-0.078,0.275-0.117,0.432C135.913,94.123,135.756,94.162,135.638,94.201
		L135.638,94.201z M133.161,94.083c-0.117-0.079-0.196-0.157-0.273-0.196c0-0.118,0-0.197,0-0.275
		c0.273-0.118,0.354-0.157,0.706-0.078C133.358,93.965,133.358,93.965,133.161,94.083L133.161,94.083z M131.472,91.528
		c-0.195-0.433-0.473-0.629-0.156-1.18c0.195-0.039,0.393-0.039,0.588-0.039C132.218,90.978,132.297,91.371,131.472,91.528
		L131.472,91.528z M133.161,89.956c-0.235-0.471-0.354-0.55-0.273-1.179c0.273-0.118,0.354-0.157,0.706-0.079
		c0.079,0.354,0.157,0.747,0.118,1.14C133.517,89.877,133.317,89.917,133.161,89.956L133.161,89.956z M132.375,88.816
		c-0.039-0.236-0.078-0.472-0.117-0.668c0.117,0,0.275,0.039,0.433,0.078c0.039,0.158,0.078,0.315,0.117,0.472
		C132.649,88.737,132.493,88.776,132.375,88.816L132.375,88.816z M133.712,83.313c-0.314-0.472-0.314-0.55-0.234-1.14
		c0.234,0,0.471,0,0.707,0C134.537,82.92,134.42,83.195,133.712,83.313L133.712,83.313z M127.974,75.569
		c0.117-0.236,0.235-0.472,0.354-0.668c0.078,0,0.158,0,0.236,0c0,0.157,0.039,0.354,0.078,0.55
		C128.405,75.491,128.169,75.53,127.974,75.569L127.974,75.569z M127.306,73.643c-0.275-0.275-0.314-0.825-0.158-1.14
		c0.158-0.04,0.314-0.04,0.512-0.04c0.156,0.354,0.197,0.55,0.197,1.022C127.658,73.525,127.462,73.564,127.306,73.643
		L127.306,73.643z"/>
	<path d="M131.235,110.16c-0.078-0.394-0.196-0.668-0.196-1.14c0.039-0.039,0.078-0.08,0.157-0.119
		c0.078,0.039,0.156,0.08,0.275,0.119c0.038,0.234,0.077,0.511,0.156,0.785C131.472,109.925,131.354,110.042,131.235,110.16
		L131.235,110.16z"/>
	<path d="M75.536,108.901c0.118-0.235,0.275-0.433,0.433-0.629c0.039,0.196,0.079,0.394,0.118,0.629
		C75.89,108.901,75.693,108.901,75.536,108.901L75.536,108.901z"/>
	<path d="M144.286,108.901c-0.314-0.274-0.669-0.354-0.787-0.707c1.141-0.235,2.279-0.432,3.46-0.629
		c-0.274-0.982-0.747-2.004-0.747-3.026c0.157-0.235,0.314-0.433,0.473-0.629c-0.119-0.196-0.197-0.394-0.275-0.55
		c-0.235,0-0.434,0-0.629,0.039c-0.512-0.395-0.512-0.395-0.707-0.395c-1.062,0.786-2.123,1.611-3.145,2.438
		c0.195-0.864,0.432-1.729,0.668-2.594c0.629,0,2.004-0.865,1.571-1.611c-0.512-0.157-0.983-0.275-1.455-0.395
		c-0.313-0.589-0.589-1.14-0.864-1.689c-0.629-5.149-1.219-10.298-1.809-15.408c-0.393-5.228-0.746-10.456-1.102-15.644
		c3.5-0.708,6.998-1.376,10.496-2.044c1.219,2.123,2.201,4.442,3.185,6.683c0.196,1.022,0.433,2.083,0.668,3.145
		c1.101,2.358,2.239,4.717,3.381,7.075c0.235,1.416,0.747,2.555,1.336,3.852c0.197,1.062,0.433,2.123,0.669,3.224
		c1.102,1.926,2.24,4.206,2.594,6.447c-0.433,0.432-0.904,0.747-1.492,1.021c0.863,0.236,1.729,0.472,2.594,0.747
		c0.078,0.629,0.195,1.258,0.314,1.926c-1.18-0.156-2.281-0.275-3.42,0.039c-1.141,1.73-1.141,1.73-1.298,2.202
		c1.22-0.472,2.358-1.729,3.498-0.864c0.474-0.039,0.943-0.078,1.455-0.119c0.942,0.865,2.517,2.123,1.454,3.459
		c-5.387,1.141-5.387,1.141-5.857,1.141c-1.649-1.375-2.121-3.733-2.869-5.66c-0.707-0.629-0.707-0.629-1.492-1.061
		c-1.73,0.273-3.381,1.021-4.992,1.61c-0.551,0.943-0.708,1.533-0.708,2.595c0.354,1.65,0.039,2.986-0.354,4.6
		C146.802,108.353,145.543,108.627,144.286,108.901L144.286,108.901z M142.597,107.92c-0.119-0.394-0.236-0.551-0.158-1.062
		c0.078-0.08,0.196-0.118,0.314-0.157c0.432,0.235,0.473,0.629,0.393,1.101C142.949,107.841,142.753,107.88,142.597,107.92
		L142.597,107.92z M145.269,106.897c-0.511-0.395-0.981-0.746-1.453-1.102c1.218-0.275,1.61-0.156,2.043,0.982
		C145.661,106.819,145.465,106.858,145.269,106.897L145.269,106.897z M161.347,104.894c-0.158-0.354-0.434-0.748-0.158-1.18
		c0.196,0,0.394,0,0.59,0c0.158,0.314,0.158,0.59,0.158,0.943C161.737,104.735,161.542,104.813,161.347,104.894L161.347,104.894z
		 M143.933,100.06c-0.039-0.236-0.039-0.434-0.039-0.631c0.195,0.118,0.394,0.275,0.59,0.434
		C144.286,99.899,144.089,99.979,143.933,100.06L143.933,100.06z M145.937,98.368c-0.354-0.473-0.394-0.629-0.313-1.258
		c0.196,0,0.394,0,0.59,0c0.274,0.273,0.196,0.629,0.196,1.021C146.251,98.211,146.094,98.289,145.937,98.368L145.937,98.368z
		 M149.003,98.25c-0.118-0.394-0.195-0.551-0.195-1.022c0.707-0.707,0.863,0.395,0.902,0.787
		C149.476,98.093,149.237,98.172,149.003,98.25L149.003,98.25z M149.985,98.25c0.785-1.376,0.707-1.572,2.279-1.926
		c0.354-0.433,0.354-0.433,0.432-0.787c-0.234-0.04-0.234-0.04-1.258-0.747c-0.942-0.275-2.633-0.708-3.104-1.69
		c-0.786-3.931-1.532-7.822-2.278-11.714c-0.434-0.275-0.826-0.511-1.22-0.747c-0.786-0.197-1.571-0.511-2.278-0.904
		c0-0.354,0.039-0.393,0.195-0.747c1.062,0.078,1.297,0.196,2.201,0.157c-0.865-4.245-0.865-4.245-1.021-4.521
		c-0.512-0.275-0.982-0.55-1.455-0.825c-0.629,0-1.219,0.04-1.809,0.079c-0.156-0.825-0.314-1.651-0.432-2.476
		c1.336-0.158,2.673-0.275,4.049-0.393c1.492,0.235,2.83,2.004,4.244,0.393c0.078,0.354,0.158,0.747,0.236,1.14
		c0.354-0.079,0.707-0.157,1.101-0.236c0,0.393-0.275,0.708-0.275,1.14c0.472,0.826,0.472,0.826,1.022,1.455
		c0.078,0.393,0.156,0.786,0.275,1.218c-1.69,0.275-1.69,0.275-1.81,0.393c0.903,0.865,2.319,2.083,1.297,3.42
		c0.04,0.825,0.235,1.375-0.235,2.044c0.235,1.533,0.512,3.066,0.786,4.599c0.511,1.533,1.021,3.066,1.572,4.599
		c0.196,1.062,0.433,2.162,0.668,3.263c0.274,0.472,0.59,0.943,0.903,1.455c0.08,0.433,0.197,0.864,0.314,1.335
		c-0.472-0.117-0.943-0.195-1.376-0.273C152.028,97.425,151.047,97.937,149.985,98.25L149.985,98.25z M145.071,93.965
		c-0.039-0.196-0.039-0.393-0.039-0.59c0.117,0,0.236,0,0.354,0c0.039,0.158,0.078,0.314,0.117,0.511
		C145.347,93.887,145.188,93.926,145.071,93.965L145.071,93.965z M155.174,93.179c-0.039-0.157-0.039-0.314-0.039-0.472
		c0.157,0,0.314,0,0.472,0c0,0.118,0,0.236,0,0.393C155.449,93.101,155.292,93.14,155.174,93.179L155.174,93.179z M158.317,93.179
		c-0.156-0.354-0.195-0.55-0.195-0.983c0.156-0.157,0.156-0.157,0.629-0.196c0.275,0.275,0.234,0.59,0.275,0.982
		C158.79,93.022,158.556,93.101,158.317,93.179L158.317,93.179z M142.006,88.148c-0.394-0.511-0.394-0.551-0.313-1.258
		c0.195,0,0.394,0,0.59,0c0.275,0.275,0.195,0.628,0.195,1.022C142.319,87.99,142.163,88.069,142.006,88.148L142.006,88.148z
		 M154.271,84.453c-0.196-0.118-0.394-0.236-0.551-0.354c0-0.079,0-0.157,0-0.236c1.454-0.275,1.454-0.275,1.77-0.236
		c0.078,0.275,0.156,0.55,0.236,0.825C155.213,84.453,154.741,84.453,154.271,84.453L154.271,84.453z M143.696,83.863
		c-0.865-0.433-1.729-0.826-2.557-1.219c-0.432-1.022-0.432-1.022-0.472-1.454c1.14,0,1.927,0.079,2.87,0.747
		c0.117,0.629,0.234,1.258,0.393,1.926C143.854,83.863,143.774,83.863,143.696,83.863L143.696,83.863z M152.147,82.959
		c-0.039-0.235-0.039-0.472-0.039-0.668c0.195,0.118,0.393,0.236,0.588,0.354c0,0.079,0,0.157,0,0.236
		C152.501,82.88,152.306,82.92,152.147,82.959L152.147,82.959z M142.006,79.028c-0.235-0.314-0.313-0.825-0.118-1.14
		c0.197,0,0.395,0,0.59,0c0.157,0.315,0.157,0.59,0.157,0.943C142.399,78.871,142.202,78.95,142.006,79.028L142.006,79.028z
		 M149.199,78.95c-0.314-0.314-0.433-0.747-0.235-1.179c0.196,0,0.393,0,0.59,0c0.156,0.314,0.156,0.59,0.156,0.943
		C149.515,78.792,149.356,78.871,149.199,78.95L149.199,78.95z M141.81,77.142c-0.156-0.197-0.313-0.393-0.472-0.55
		c0.196,0,0.394,0,0.591,0c0,0.118,0,0.275,0.038,0.432C141.888,77.063,141.849,77.103,141.81,77.142L141.81,77.142z
		 M146.959,76.788c-0.196-0.157-0.394-0.275-0.551-0.393c0.157-0.079,0.354-0.118,0.551-0.157
		C146.959,76.395,146.959,76.591,146.959,76.788L146.959,76.788z"/>
	<path d="M166.298,104.539c-0.511-0.629-0.59-0.904-0.747-1.69c-0.077-1.492-0.157-2.986-0.235-4.479
		c0.982-0.983,0.039-2.831-0.668-3.617c-0.707-3.341-1.375-6.682-2.043-9.984c0.234-0.472,0.354-0.943,0.354-1.454
		C162.563,83,162.563,83,162.25,82.96c-0.629-3.066-1.218-6.132-1.808-9.198c1.375,0,2.83,0.079,4.166-0.118
		c-0.039,0.393-0.078,0.826-0.117,1.258c-0.236,0.039-0.236,0.039-1.062,0.628c0,1.021,0.982,1.533,0.982,2.516
		c-0.354,0.236-0.668,0.472-0.982,0.747c0,0.079,0,0.157,0,0.236c0.943,0.629,2.006-0.589,2.201-1.454
		c-0.314-0.511-0.59-1.022-0.863-1.533c0.51-0.511,1.021-1.022,1.57-1.494c0-0.708-1.336-2.319-1.809-2.909
		c0.197-0.708,0.787-1.612,0.787-2.358c-1.062-1.062-2.557,0.825-3.026,1.572c-0.474,0.433-0.942,0.904-1.416,1.376
		c-0.274-0.118-0.55-0.236-0.825-0.354c-0.273-1.533-0.629-2.988-1.375-4.403c-0.314-0.943-0.63-1.887-0.943-2.83
		c2.045-0.511,2.045-0.511,7.664-1.533c2.084,10.731,4.207,21.462,6.33,32.232c-0.039,0.825-0.08,1.651-0.08,2.516
		c0.236,0.156,0.473,0.314,0.709,0.472c0.078,0.433,0.195,0.903,0.313,1.376c0.668,0.156,1.376,1.021,1.533,1.689
		c-0.472,1.336-0.472,1.336-0.747,1.729C172.784,103.36,172.784,103.36,166.298,104.539L166.298,104.539z M170.543,101.513
		c-0.078-0.197-0.235-0.197-0.157-0.511c0.197-0.04,0.395-0.04,0.629-0.04c-0.039,0.118-0.078,0.275-0.117,0.434
		C170.778,101.435,170.661,101.474,170.543,101.513L170.543,101.513z M169.875,100.06c0-0.236,0-0.474,0-0.67
		c0.118,0.039,0.274,0.079,0.433,0.157c0,0.079,0,0.196,0,0.313C170.149,99.899,169.993,99.979,169.875,100.06L169.875,100.06z
		 M167.949,99.94c0-1.219,0.354-1.416,1.375-1.81C169.324,99.075,168.774,99.743,167.949,99.94L167.949,99.94z M167.397,93.533
		c-0.117-0.236-0.273-0.236-0.156-0.59c0.117-0.04,0.236-0.04,0.394-0.04c0.039,0.118,0.078,0.236,0.117,0.393
		C167.635,93.375,167.517,93.454,167.397,93.533L167.397,93.533z M168.539,87.794c-0.079-0.04-0.158-0.079-0.235-0.118
		c-0.039-0.118-0.039-0.236-0.039-0.354c0.274-0.118,0.354-0.157,0.707-0.079C168.735,87.676,168.735,87.676,168.539,87.794
		L168.539,87.794z M165.708,87.597c-0.039-0.118-0.078-0.235-0.078-0.314c0.196-0.196,0.275-0.196,0.668-0.196
		c0,0.157,0,0.314,0,0.511C166.103,87.597,165.905,87.597,165.708,87.597L165.708,87.597z M164.372,85.121
		c-0.395-0.393-0.668-1.337,0.234-1.337c0.119,0.275,0.236,0.551,0.354,0.865C164.767,84.924,164.687,85.042,164.372,85.121
		L164.372,85.121z M166.062,83.549c-0.354-0.472-0.433-0.472-0.433-1.14c0.196-0.196,0.394-0.157,0.707-0.157
		c0.04,0.275,0.118,0.55,0.197,0.825C166.377,83.234,166.22,83.392,166.062,83.549L166.062,83.549z M165.158,82.409
		c-0.196-0.314-0.196-0.314-0.196-0.55c0.078-0.078,0.157-0.157,0.275-0.236c0.273,0.118,0.234,0.314,0.312,0.55
		C165.394,82.252,165.276,82.33,165.158,82.409L165.158,82.409z M166.494,76.906c-0.274-0.55-0.472-0.983,0.157-1.297
		c0.117,0.078,0.274,0.157,0.433,0.235c0.04,0.197,0.079,0.393,0.118,0.629C166.966,76.709,166.888,76.827,166.494,76.906
		L166.494,76.906z M160.795,69.044c0.157-0.236,0.313-0.472,0.472-0.668c0,0.157,0.039,0.354,0.08,0.55
		C161.147,68.965,160.952,69.005,160.795,69.044L160.795,69.044z M160.088,67.236c-0.235-0.354-0.274-0.55-0.274-0.982
		c0.195-0.197,0.433-0.158,0.746-0.158c0.157,0.315,0.157,0.59,0.157,0.944C160.479,67.079,160.284,67.158,160.088,67.236
		L160.088,67.236z"/>
	<path d="M72.51,101.158c-0.354-0.354-0.433-0.433-0.433-0.982c0.197-0.196,0.433-0.157,0.747-0.157
		c0.118,0.275,0.157,0.59,0.118,0.943C72.785,101.002,72.627,101.08,72.51,101.158L72.51,101.158z M77.463,113.619
		c-1.062-0.394-2.123-0.747-3.146-1.101c0-0.865,0.04-1.729,0.079-2.595c-0.786,0-1.14,0.354-1.769,0.785c0,0.747,0,1.494,0,2.241
		c-0.118,0-0.118,0-0.118-0.196c-0.629-0.118-1.297-0.63-1.651-1.141c0-0.55,0.118-0.707,0.354-1.179
		c0.236-0.041,0.472-0.041,0.747-0.041c0.079-0.511,0.196-1.021,0.314-1.492c0.747-0.118,1.101-0.434,1.69-0.865
		c0.04-0.786-0.118-1.77-1.021-1.77c-1.14,0.668-1.533,2.201-2.791,2.635c-0.315-2.358-0.315-2.358-0.315-3.459
		c0.04-0.59,0.079-1.141,0.118-1.69c-0.865-4.44-1.729-8.844-2.594-13.247c1.297-1.494,0.982-1.848-0.079-3.381
		c-0.511-1.415-1.14-2.83-1.533-4.245c2.162-0.314,4.56-1.022,6.761-0.668c0.079,0.04,0.196,0.079,0.314,0.157
		c1.336,6.839,2.712,13.718,4.088,20.597c0.904,7.429,1.258,9.552,1.258,10.22c-0.118,0.118-0.196,0.275-0.275,0.434
		C77.738,113.619,77.58,113.619,77.463,113.619L77.463,113.619z M72.274,103.085c-0.55-0.708-1.533-1.65-1.533-2.595
		c0.118-0.354,0.236-0.668,0.354-0.982c-1.14-2.28-1.14-2.28-1.14-2.477c0.275-0.433,0.59-0.865,0.904-1.258
		c0.275-1.061,0.786-2.162,0.786-3.263c-0.314-0.432-0.629-0.865-0.904-1.297c0.432-0.668,0.904-1.179,0.904-1.965
		c-0.393-0.865-0.786-1.69-1.179-2.516c-0.786-0.708-1.533-1.415-2.28-2.083c-0.629-1.729,1.258-1.612,2.319-1.69
		c0.55,0.354,0.904,0.865,1.258,1.376c0.275,0.196,0.551,0.393,0.865,0.629c0.708,2.751,0.315,5.857-0.196,8.569
		c0.314,1.651,0.039,2.555,1.769,2.83c-0.826,0.826-1.612,1.376-1.926,2.555c0.943-0.157,1.887-0.313,2.83-0.433
		c-0.079,0.354-0.157,0.707-0.236,1.101c-0.472,0-1.455,1.337-1.769,1.69C72.431,102.967,72.431,102.967,72.274,103.085
		L72.274,103.085z M69.483,90.035c-0.236-0.59-0.354-1.376,0.55-1.101C70.151,89.759,70.308,89.877,69.483,90.035L69.483,90.035z
		 M73.61,104.106c-0.04-0.196-0.04-0.354-0.04-0.512c0.157-0.039,0.314-0.078,0.511-0.078c0,0.196,0,0.394,0,0.59
		C73.925,104.106,73.768,104.106,73.61,104.106L73.61,104.106z"/>
	<path d="M21.527,97.896c-0.432-1.927-0.865-3.853-1.258-5.738c1.258-0.275,2.516-0.511,3.813-0.747
		c-0.157,1.1-0.157,1.1-0.118,2.004c0.786,0,1.572,0,2.398,0c0.197-0.668,0.393-1.297,0.314-2.004
		c-0.668-0.079-1.533-0.315-1.808-0.904c4.874-0.983,9.749-1.926,14.623-2.87c0.275,0,0.55,0,0.825,0.04
		c1.022,1.572,1.376,3.655,1.769,5.503c-1.494,0-3.066-1.219-4.285-1.848c-0.55,0.04-1.061,0.079-1.572,0.118
		c-0.393-0.314-0.786-0.59-1.179-0.865c-0.55,0-1.101,0.039-1.612,0.079c-0.196-0.118-0.393-0.236-0.55-0.354
		c-0.628,0.865-0.865,1.965-1.494,2.87c-0.589,0.472-1.061,0.982-1.533,1.533c0.668,2.083-2.751,1.336-3.617,1.336
		c-0.904,0.433-0.904,0.433-1.611,0.943c-0.118-0.314-0.236-0.629-0.314-0.904c-0.236-0.078-0.472-0.157-0.668-0.196
		C23.218,96.678,22.55,97.778,21.527,97.896L21.527,97.896z M27.562,94.437c-0.111-0.139-0.223-0.279-0.334-0.39
		c0.251-0.028,0.53-0.056,0.809-0.084c-0.083-1.478-0.083-2.286,1.422-2.649c0,1.143,0.028,2.119-0.948,2.956
		C28.203,94.381,28.203,94.381,27.562,94.437L27.562,94.437z M38.469,93.651c-0.472-0.236-0.393-0.747-0.275-1.179
		c0.197-0.04,0.393-0.04,0.629-0.04c0.118,0.158,0.118,0.158,0.196,1.101C38.823,93.572,38.626,93.611,38.469,93.651L38.469,93.651z
		 M36.661,90.742c-0.197-0.197-0.393-0.394-0.551-0.55c0.315-0.393,0.315-0.393,0.551-0.472
		C36.661,90.035,36.661,90.388,36.661,90.742L36.661,90.742z"/>
	<path d="M103.603,83.431c-0.078-0.393-0.117-0.786-0.156-1.179c0.234-0.04,0.472-0.04,0.746-0.04
		c0.195,0.196,0.313,0.236,0.313,0.55C104.19,82.959,103.877,83.195,103.603,83.431L103.603,83.431z"/>
	<path d="M103.405,80.168c-0.196-0.157-0.393-0.275-0.59-0.394c0.512-0.786,0.551-0.708,1.375-0.943
		C104.074,79.303,103.917,80.011,103.405,80.168L103.405,80.168z"/>
	<path d="M105.41,77.928c-0.235-0.511-0.313-0.511-0.235-1.14c0.196-0.039,0.393-0.039,0.629-0.039
		c0.117,0.354,0.196,0.511,0.196,0.943C105.804,77.771,105.606,77.849,105.41,77.928L105.41,77.928z"/>
	<path fill="#7BC143" d="M35.24,130.946c-0.865-4.285-0.865-4.285-0.826-4.639c0.393-0.08,0.826-0.119,1.258-0.158
		c0.196,0.314,0.393,0.629,0.628,0.982c1.612,0,1.965-1.179,2.241-2.477c0.433,1.258,0.865,2.516,1.336,3.812
		c0.786,0.513,0.865,0.904,1.179,1.81c-0.865-0.078-1.729-0.157-2.555-0.196c-0.629-0.394-0.904-1.14-1.258-1.769
		c-0.904-0.119-1.297,1.531-1.415,2.162C35.633,130.632,35.437,130.788,35.24,130.946L35.24,130.946z"/>
	<path fill="#7BC143" d="M50.727,127.565c-0.275-0.236-0.707-0.395-0.786-0.709c1.14-0.234,2.319-0.432,3.498-0.629
		c-0.275-0.942-0.865-2.121-0.708-3.104c0.118-0.197,0.236-0.395,0.393-0.551c-0.314-0.629-0.236-0.473-0.825-0.473
		c-0.236-0.195-0.472-0.433-0.786-0.433c-2.909,2.358-2.909,2.358-3.145,2.438c0.196-0.865,0.432-1.729,0.668-2.596
		c0.629,0,2.005-0.863,1.572-1.611c-0.511-0.156-0.982-0.313-1.454-0.433c-0.314-0.55-0.59-1.101-0.865-1.651
		c-0.628-5.147-1.218-10.297-1.808-15.407c-0.354-5.228-0.708-10.456-1.062-15.645c9.119-1.848,9.119-1.848,10.574-2.044
		c1.179,2.202,2.241,4.481,3.184,6.8c0.197,1.062,0.433,2.162,0.668,3.263c1.062,2.201,2.162,4.402,3.263,6.604
		c0.314,1.415,0.747,2.633,1.375,3.932c0.275,1.218,0.55,2.477,0.865,3.733c0.275,0.511,0.589,1.021,0.904,1.572
		c0.472,1.415,0.943,2.83,1.455,4.245c0,0.707-0.826,0.982-1.376,1.297c0.825,0.234,1.651,0.473,2.476,0.747
		c0.275,0.903,0.275,0.903,0.354,1.887c-1.14-0.079-2.358-0.354-3.38,0.157c-0.472,0.668-1.14,1.297-1.336,2.083
		c1.297-0.235,2.28-1.729,3.459-0.825c0.472-0.039,0.943-0.079,1.455-0.117c1.061,0.707,2.437,2.161,1.454,3.459
		c-0.668,0.235-5.267,1.141-5.817,1.141c-1.651-1.377-2.123-3.695-2.87-5.661c-0.55-0.394-1.061-0.746-1.572-1.101
		c-1.651,0.512-3.302,1.062-4.913,1.611c-0.708,1.415-0.787,2.201-0.511,3.773c0,1.179-0.236,2.318-0.59,3.459
		C53.243,127.015,51.985,127.29,50.727,127.565L50.727,127.565z M67.787,123.517c-0.197-0.433-0.354-0.746-0.158-1.14
		c0.197,0,0.393,0,0.629,0c0.157,0.313,0.118,0.629,0.078,0.981C68.141,123.397,67.944,123.438,67.787,123.517L67.787,123.517z
		 M49.037,126.543c-0.157-0.354-0.236-0.55-0.157-1.021c0.079-0.08,0.196-0.119,0.314-0.157c0.433,0.196,0.472,0.629,0.393,1.101
		C49.391,126.465,49.194,126.504,49.037,126.543L49.037,126.543z M51.749,125.562c-0.472-0.354-0.943-0.707-1.415-1.062
		c0.747-0.273,0.747-0.273,1.18-0.273c0.314,0.393,0.589,0.707,0.786,1.217C52.103,125.481,51.907,125.521,51.749,125.562
		L51.749,125.562z M50.374,118.683c0-0.235,0-0.434,0-0.63c0.197,0.157,0.393,0.314,0.59,0.472
		C50.767,118.563,50.57,118.604,50.374,118.683L50.374,118.683z M52.3,116.913c-0.197-0.236-0.197-0.236-0.314-0.786
		c0.079-0.157,0.157-0.274,0.275-0.394c0.118,0,0.275,0,0.432,0c0.158,0.354,0.158,0.668,0.158,1.062
		C52.653,116.834,52.457,116.874,52.3,116.913L52.3,116.913z M55.562,116.913c-0.275-0.395-0.472-0.629-0.157-1.18
		c0.157-0.039,0.315-0.039,0.472-0.039c0.275,0.274,0.236,0.59,0.275,0.981C55.955,116.756,55.759,116.834,55.562,116.913
		L55.562,116.913z M56.466,116.795c0.275-0.472,0.55-0.942,0.865-1.376c0.865-0.234,1.375-0.314,1.847-1.062
		c-0.472-0.354-0.943-0.707-1.375-1.021c-1.14-0.235-1.887-0.668-2.83-1.258c-0.826-3.97-1.612-7.94-2.398-11.91
		c-0.865-0.669-1.611-1.062-2.633-1.297c-0.354-0.197-0.708-0.354-1.022-0.513c0.079-0.234,0.197-0.471,0.314-0.707
		c0.747,0,1.415,0.236,2.162,0.158c-0.314-1.456-0.59-2.91-0.865-4.365c-0.55-0.432-0.826-0.708-1.494-0.982
		c-0.629-0.039-1.258-0.039-1.847-0.039c-0.158-0.786-0.315-1.533-0.433-2.28c1.376-0.275,3.302-0.511,3.97-0.511
		c1.73,0.511,2.712,1.729,4.363,0.55c0.04,0.314,0.079,0.629,0.118,0.983c0.393-0.04,0.786-0.04,1.218-0.04
		c-0.629,1.062-0.196,1.415,0.55,2.358c0.118,0.432,0.236,0.865,0.394,1.297c-0.59,0.079-1.179,0.196-1.769,0.313
		c0.825,0.983,2.241,2.123,1.219,3.499c0.039,0.786,0.196,1.337-0.197,2.005c0,3.104,1.336,6.367,2.359,9.236
		c0.196,1.062,0.432,2.162,0.668,3.264c0.275,0.471,0.589,0.942,0.904,1.454c0.079,0.433,0.157,0.864,0.275,1.337
		c-0.472-0.117-0.904-0.236-1.336-0.314C58.51,116.088,57.567,116.638,56.466,116.795L56.466,116.795z M51.514,112.628
		c-0.04-0.195-0.04-0.393-0.04-0.589c0.118,0,0.236,0,0.393,0c0,0.157,0.04,0.313,0.079,0.472
		C51.789,112.55,51.631,112.589,51.514,112.628L51.514,112.628z M61.616,111.842c0-0.196,0-0.393,0-0.55
		c0.157,0,0.314,0.039,0.472,0.079c0,0.116,0,0.235,0,0.354C61.93,111.765,61.773,111.803,61.616,111.842L61.616,111.842z
		 M64.76,111.842c-0.197-0.432-0.157-0.589-0.118-1.101c0.196-0.039,0.393-0.039,0.629-0.039c0.235,0.236,0.157,0.59,0.196,0.904
		C65.232,111.685,64.996,111.765,64.76,111.842L64.76,111.842z M48.487,106.812c-0.236-0.434-0.433-0.512-0.433-1.021
		c0.236-0.236,0.315-0.275,0.708-0.275c0.157,0.354,0.157,0.668,0.157,1.062C48.762,106.653,48.605,106.731,48.487,106.812
		L48.487,106.812z M60.83,103.076c-0.236-0.117-0.472-0.235-0.668-0.314c0-0.077,0-0.155,0-0.235c0.59-0.117,1.18-0.195,1.808-0.274
		c0.04,0.235,0.079,0.472,0.118,0.708C61.655,102.998,61.223,103.037,60.83,103.076L60.83,103.076z M50.177,102.526
		c-0.864-0.709-2.162-0.748-2.791-1.81c-0.079-0.313-0.157-0.629-0.236-0.903c2.24,0,3.145,0.433,3.223,2.713
		C50.295,102.526,50.216,102.526,50.177,102.526L50.177,102.526z M58.589,101.622c-0.039-0.157-0.079-0.314-0.118-0.473
		c0.314,0,0.354-0.039,0.668,0.158c0,0.039,0,0.117,0,0.195C58.943,101.544,58.746,101.583,58.589,101.622L58.589,101.622z
		 M48.605,97.69c-0.354-0.354-0.275-0.629-0.275-1.14c0.196,0,0.393,0,0.589,0c0.157,0.314,0.157,0.55,0.157,0.904
		C48.919,97.534,48.762,97.612,48.605,97.69L48.605,97.69z M55.68,97.573c-0.393-0.275-0.55-0.707-0.275-1.14
		c0.197-0.039,0.393-0.039,0.59-0.039c0.157,0.354,0.314,0.667,0.236,1.062C56.034,97.495,55.837,97.534,55.68,97.573L55.68,97.573z
		 M48.251,95.805c-0.157-0.118-0.314-0.236-0.433-0.354c0-0.079,0-0.158,0-0.236c0.157,0,0.354,0,0.551,0
		c0,0.157,0.039,0.314,0.078,0.472C48.369,95.726,48.29,95.765,48.251,95.805L48.251,95.805z M53.439,95.451
		c-0.196-0.158-0.393-0.275-0.589-0.394c0.236-0.118,0.236-0.118,0.589-0.079C53.439,95.136,53.439,95.293,53.439,95.451
		L53.439,95.451z"/>
	<path fill="#7BC143" d="M33.864,124.421c-0.472-1.376-0.943-2.752-1.415-4.127c0.079-0.63,0.157-1.259,0.275-1.848
		c0.943,0,1.455,1.179,1.769,1.926C34.493,121.591,34.257,123.319,33.864,124.421L33.864,124.421z"/>
	<path fill="#7BC143" d="M39.367,123.397c-0.432-0.433-0.393-0.59-0.314-1.217c0.197,0,0.433,0.038,0.668,0.077
		c0.118,0.354,0.157,0.668,0.118,1.062C39.682,123.319,39.524,123.358,39.367,123.397L39.367,123.397z"/>
	<path fill="#7BC143" d="M75.648,123.319c-0.196-0.394-0.472-0.785-0.157-1.18c0.157,0,0.314,0,0.511,0
		c0.157,0.314,0.157,0.59,0.157,0.943C75.963,123.163,75.806,123.241,75.648,123.319L75.648,123.319z"/>
	<path fill="#7BC143" d="M72.622,123.241c-0.04-0.039-0.04-0.039-0.04-0.039c0-0.039,0-0.078,0.04-0.078
		c0,0,0.039,0.039,0.078,0.078C72.661,123.202,72.622,123.202,72.622,123.241L72.622,123.241z"/>
	<path fill="#7BC143" d="M72.622,123.124c-0.04,0-0.04,0.039-0.04,0.078c-0.236-0.157-0.433-0.314-0.629-0.473
		c0.118-0.195,0.275-0.354,0.432-0.511C72.465,122.494,72.543,122.81,72.622,123.124L72.622,123.124z"/>
	<path fill="#7BC143" d="M36.026,121.513c0.394-1.729,0.315-1.927,1.887-2.595c0.157,0.668,0.354,1.336,0.55,2.044
		C37.638,121.119,36.812,121.315,36.026,121.513L36.026,121.513z"/>
	<path fill="#7BC143" d="M74.98,121.513c-0.079-0.434-0.236-0.746-0.157-1.18c0.196-0.039,0.393-0.079,0.629-0.079
		C75.374,120.726,75.216,121.119,74.98,121.513L74.98,121.513z"/>
	<path fill="#7BC143" d="M80.719,121.276c-0.04-0.157-0.079-0.314-0.118-0.434c0.157-0.039,0.354-0.039,0.55-0.039
		c0,0.117,0,0.235,0,0.354C80.994,121.197,80.837,121.237,80.719,121.276L80.719,121.276z"/>
	<path fill="#7BC143" d="M85.75,120.726c0.157-1.062,0.393-1.769,1.494-2.121c-0.119-1.062-0.197-2.358-1.101-3.066
		c0.59-0.118,1.179-0.235,1.769-0.314c0.275,1.651,0.589,3.303,0.904,4.953C87.794,120.333,86.773,120.528,85.75,120.726
		L85.75,120.726z"/>
	<path fill="#7BC143" d="M83.195,120.49c0.236-0.63,0.472-1.259,0.747-1.849c0.275,0.078,0.55,0.157,0.825,0.275
		c0,0.234,0,0.511,0,0.786C83.982,120.215,83.982,120.215,83.195,120.49L83.195,120.49z"/>
	<path fill="#7BC143" d="M91.175,119.704c-0.432-2.123-0.432-2.123-0.393-2.516c2.043-0.473,2.043-0.473,3.852-0.709
		c0.393,0.119,0.825,0.236,1.258,0.354c1.375-0.274,2.003-0.55,1.022-1.729c-0.118-0.274-0.236-0.549-0.314-0.785
		c0.118-0.747,0.236-1.532,0.708-2.162c1.336,0,2.83,0.63,4.088,0.982c0.196,0.786,0.394,1.572,0.59,2.397
		c0.156,0.079,0.156,0.079,2.084-0.313c-0.275-1.062-0.748-2.162-0.748-3.264c0.787-0.904,1.572-1.926,2.791-1.179
		c0.512,1.532,1.611,3.497,1.611,5.108c-0.274,0.197-0.511,0.395-0.746,0.59C101.709,117.542,96.442,118.604,91.175,119.704
		L91.175,119.704z"/>
	<path fill="#7BC143" d="M71.718,115.065c0-0.039,0.039-0.08,0.079-0.08c0.472,1.022,1.022,2.006,1.651,2.949
		c-0.354,0.274-0.668,0.551-0.982,0.824C72.189,117.503,71.954,116.284,71.718,115.065L71.718,115.065z"/>
	<path fill="#7BC143" d="M79.815,118.604c-0.118-0.434-0.354-0.629-0.236-1.141c0.197-0.04,0.394-0.04,0.629-0.04
		c0.118,0.354,0.197,0.513,0.197,0.943C80.208,118.446,80.012,118.524,79.815,118.604L79.815,118.604z"/>
	<path fill="#7BC143" d="M31.978,117.699c-1.101-4.363-2.162-8.728-3.223-13.052c0-0.273,0-0.549,0-0.785
		c0.511-1.297-0.118-2.674-0.118-4.049c0.236-0.511,0.472-1.021,0.708-1.494c0.865-0.195,1.729-0.393,2.634-0.59
		c0.118-0.234,0.236-0.433,0.393-0.629c-0.472-0.195-0.904-0.354-1.336-0.511c-0.59-1.769,1.533-3.263,2.948-3.813
		c1.258,0,1.258,0,1.729,1.101c0,0.865-0.314,1.297-0.865,1.966c-0.039,0.118-0.039,0.236-0.039,0.392
		c0.629,3.263,1.258,6.525,1.926,9.789c-0.786,0.826-1.533,1.062-2.516,0.313c0.275-0.629,0.55-1.258,0.825-1.887
		c0-1.454-1.729-1.888,0-3.263c-0.039-0.314-0.039-0.629-0.039-0.903c-1.022-0.433-1.022-0.433-2.241-0.747
		c-0.393,0.393-0.59,0.824-0.865,1.336c0.472,0.314,0.943,0.629,1.415,0.982c0,0.078,0,0.158,0,0.235
		c-0.59,0.04-1.14,0.118-1.69,0.196c0.354,1.141,1.218,1.494,0.471,2.477c-0.982,0.236-1.769,0.314-1.769,1.454
		c0.275,0.354,0.275,0.354,0.747,0.63c0.354,1.101,0.708,2.438,0.275,3.537c0,0.157,0,0.354,0.039,0.551
		c1.219,0.59,2.123-0.235,3.263-0.864c0.433,0,0.747,0.354,1.14,0.354c0.314-0.473,0.629-0.944,0.982-1.376
		c0.197,0.117,0.393,0.235,0.59,0.393c0.275,0.826,0.275,0.826,0.825,3.854c-0.039,0.864-0.079,1.729-0.118,2.594
		c-0.708-1.414-1.376-2.791-2.044-4.166c-0.235,0.039-0.472,0.078-0.668,0.117c-0.118,0.669-0.236,1.337-0.354,2.006
		c-0.668-0.551-1.062-0.904-1.965-0.787c-0.472,1.258-0.472,1.258-0.787,2.635C32.292,116.521,32.646,117.108,31.978,117.699
		L31.978,117.699z"/>
	<path fill="#7BC143" d="M74.43,117.108c-0.314-0.51-0.314-0.59-0.236-1.219c0.158,0,0.354,0,0.551,0.039
		C75.02,116.677,75.098,116.795,74.43,117.108L74.43,117.108z"/>
	<path fill="#7BC143" d="M82.842,116.795c-0.433-0.354-0.433-0.629-0.354-1.179c0.236-0.04,0.472-0.079,0.708-0.079
		c0.04,0.274,0.079,0.59,0.157,0.903C83.156,116.56,82.999,116.677,82.842,116.795L82.842,116.795z"/>
	<path fill="#7BC143" d="M77.457,115.892c-0.354-0.354-0.393-0.668-0.275-1.18c0.196,0,0.393,0,0.629,0
		c0.118,0.273,0.118,0.273,0.079,0.982C77.732,115.733,77.575,115.812,77.457,115.892L77.457,115.892z"/>
	<path fill="#7BC143" d="M90.939,115.772c-0.982-1.219-0.982-1.219-1.533-2.123c0-1.414,0.118-3.104-0.157-4.48
		c0.236-0.078,0.472-0.156,0.747-0.234c-0.589-1.572-0.589-1.572-0.589-1.928c0.629-0.746,1.376-1.57,2.437-1.689
		c0.118,1.062,0.236,2.123,0.354,3.185c-0.275,2.005-0.59,1.729,1.1,2.948c0.197,0,0.433,0,0.668,0
		c0.472-0.825,0.943-1.69,0.943-2.635c-0.118-0.51-0.236-0.981-0.354-1.453c-0.983-1.18-1.022-1.967-1.337-3.498
		c-0.275-0.395-0.55-0.787-0.825-1.141c-0.511,0-0.747-0.039-1.219,0.156c0.236-1.179,0.904-2.279,1.572-3.263
		c-0.825-0.196-1.415-0.472-2.319-0.394c-0.118,0.274-0.118,0.274-0.354,4.207c-0.158,0.354-0.315,0.706-0.472,1.101
		c-0.668,0-0.826-0.039-1.416-0.314c-1.14-5.739-1.14-5.739-1.375-6.407c-0.59-0.707-0.747-1.18-1.062-2.043
		c0.354-0.039,0.354-0.039,1.022,0.158c0.904,0,2.043-0.158,2.908-0.354c0.079-0.471,0.157-0.904,0.275-1.336
		c0.865-0.708,1.769-1.022,2.791-1.258c-0.039,0.354-0.078,0.747-0.078,1.14c-0.59,0.943-1.809,1.966-0.157,2.673
		c0.196-0.746,0.354-1.336,0.786-2.004c0.236-0.039,0.511-0.079,0.787-0.079c1.533,0.55,2.319,1.297,3.577-0.118
		c0.629-0.314,1.258-0.629,1.926-0.943c0.393-0.982,0.629-0.865,1.572-1.218c0.195,0.825,0.394,1.651,0.59,2.476
		c0.511,0.904,1.65,2.241,0.747,3.145c-1.455,0.275-3.104,0.826-4.601,0.826c-0.549-0.354-0.902-0.826-1.335-1.337
		c-0.118,0-0.197,0-0.275,0c-0.433,0.668-0.158,1.179-0.158,1.965c-0.471,0.669-0.904,1.337-1.336,2.005
		c0,0.473,0.904,4.717,1.336,7.312c-0.078,1.492-0.471,2.947-1.021,4.363c-0.59,0.274-1.14,0.551-1.69,0.824
		c-0.629,0.551-1.218,1.102-1.808,1.689C91.372,115.694,91.136,115.733,90.939,115.772L90.939,115.772z M88.109,94.547
		c-0.589-1.219-1.494-1.533-2.791-1.533c-1.415-1.611-1.651-4.795-2.083-6.761c-1.69-5.621-1.69-5.621-1.69-5.975
		c0.118-0.235,0.236-0.472,0.393-0.668c5.268-1.572,10.652-2.948,16.077-3.931c0.275,1.533,0.551,3.066,0.825,4.599
		c-0.116,0.197-0.196,0.393-0.274,0.59c-1.532,0.275-3.145,0.236-4.716,0.197c-0.472,0.708-0.943,1.454-1.376,2.201
		c-0.393,0.275-0.786,0.589-1.14,0.904c-0.275,2.477,0.118,4.914,0.511,7.351c-0.472,0.157-0.943,0.314-1.415,0.511
		C89.681,92.975,89.052,93.8,88.109,94.547L88.109,94.547z M88.03,90.734c-0.236-0.157-0.433-0.314-0.629-0.432
		c-0.314-1.337-0.628-2.673-0.943-3.97c-1.101-0.668-0.668-1.769-0.55-2.909c0.708-0.59,1.455-0.943,2.319-1.376
		c0.157,0.668,0.314,1.336,0.472,2.044c0.236-0.039,0.511-0.079,0.786-0.079c0,2.202-0.079,4.442,0.314,6.604
		C89.209,90.655,88.62,90.695,88.03,90.734L88.03,90.734z M83.982,84.209c-0.158-0.157-0.315-0.314-0.472-0.433
		c0.078-0.196,0.196-0.354,0.314-0.511c0.236,0.235,0.275,0.589,0.354,0.943C84.1,84.209,84.021,84.209,83.982,84.209L83.982,84.209
		z M84.768,88.021c-0.039-0.196-0.078-0.393-0.118-0.55c0.118,0,0.275,0.039,0.433,0.078c0,0.118,0,0.236,0,0.394
		C84.964,87.943,84.846,87.982,84.768,88.021L84.768,88.021z M88.227,92.542c-0.158-0.314-0.158-0.314-0.118-0.589
		c0.157,0,0.315,0,0.472,0c0,0.079,0,0.157,0.04,0.275C88.463,92.306,88.345,92.424,88.227,92.542L88.227,92.542z M100.138,97.377
		c-0.039-0.235-0.078-0.472-0.117-0.708c0.156,0,0.313,0.04,0.472,0.079c0,0.118,0,0.235,0,0.394
		C100.373,97.22,100.255,97.298,100.138,97.377L100.138,97.377z M91.175,108.028c-0.196-0.432-0.432-0.668-0.157-1.178
		c0.197,0,0.393,0,0.59,0c0.157,0.312,0.157,0.588,0.157,0.942C91.568,107.872,91.372,107.95,91.175,108.028L91.175,108.028z"/>
	<path fill="#7BC143" d="M108.667,115.537c-0.118-1.649-0.275-2.909,0.354-4.481c0.787,0,1.416,0.079,2.242,0.236
		c0,0.195,0,0.434,0,0.668c-0.236,0.039-0.236,0.039-1.062,0.747c0,1.69,2.201,0.903,3.302,0.708c0-1.18,0-2.318,0.039-3.46
		c0.472-1.297,0.354-3.026,0.354-4.402c-0.629-0.511-2.595-1.649-2.595,0c0.275,0.314,0.982,0.904,0.865,1.337
		c-1.337,0.59-1.612,0.982-1.927,2.358c-0.314-0.039-0.434-0.157-0.982-0.157c-0.314,0.196-0.904,0.746-1.258,0.629
		c-1.219-1.65,0.55-3.42,0.55-5.148c-0.274-0.354-0.55-0.668-0.786-0.982c0.04-0.826,0.04-0.826,0.236-1.494
		c-0.434-0.078-0.825-0.156-1.219-0.234c0.275-0.551,0.59-1.062,0.904-1.572c-1.572-0.512-2.242-0.551-2.242-2.241
		c0.395-0.981,1.81-1.297,2.713-1.65c0.236,0.118,0.473,0.274,0.746,0.432c0.631-0.117,1.259-0.235,1.928-0.313
		c-1.337-1.062-3.734-1.534-5.426-1.18c-0.235-1.179-0.471-2.319-0.668-3.459c0.552-0.079,1.102-0.157,1.69-0.236
		c0.235,0.983,0.314,1.651,1.14,2.162c2.478-0.313,2.478-0.313,3.932-0.668c0.275-0.472,0.354-0.708,0.354-1.258
		c-0.668-0.511-1.414-1.376-2.279-1.494c-0.313-0.589-0.629-1.179-0.903-1.769c-0.668,0.196-0.747,1.179-0.942,1.769
		c-0.473-0.982-0.473-0.982-0.826-1.375c-0.903,0-1.809,0.314-2.713,0.314c-0.668-1.022-1.571-2.516,0-3.146
		c1.455,0,2.241,0.118,2.752,0.04c0.59-0.904,0.943-2.28,1.181-3.341c-0.669,0.118-1.337,0.235-2.005,0.354
		c0-0.904-0.197-1.101,0.354-1.808c-0.078-0.511-0.156-0.983-0.236-1.455c0.944-1.061,1.729-2.358,3.027-0.825
		c0.432,2.201,0.903,4.402,1.376,6.643c0.668,1.769,1.375,4.442,3.065,5.582c0.354-0.275,0.746-0.511,1.14-0.747
		c0,0.865-0.077,1.73-0.274,2.594c-0.942,0.668-1.729,1.494-2.556,2.319c-0.038,1.14-0.038,2.28-0.038,3.42
		c0.51,0.511,1.021,1.022,1.532,1.532c0.59,3.264,1.22,6.524,1.849,9.787c0.078,1.299,0.156,2.596,0.274,3.933
		C113.306,114.633,110.985,115.065,108.667,115.537L108.667,115.537z M117.196,90.066c-0.235-0.197-0.473-0.393-0.668-0.55
		c0.59-1.848,0.826-3.459,0.826-5.425c-0.826-1.533-2.242-3.459-2.242-5.267c1.81-3.577,1.81-3.577,2.242-4.206
		c-0.275-0.196-0.551-0.393-0.787-0.589c-4.127,0.825-8.254,1.651-12.383,2.476c-0.588,0.511-1.14,0.983-1.453,1.651
		c-0.275,0.079-0.551,0.197-0.825,0.315c-0.236-0.904-0.63-2.634,0.118-3.381c0.312-0.118,0.629-0.196,0.942-0.275
		c4.757-0.511,9.552-0.982,14.347-1.454c1.22,0.354,2.398,0.747,3.5,1.376c0.195,0.275,0.393,0.55,0.588,0.825
		c1.142,0.826,1.142,1.612,1.533,2.948c-0.511-0.079-0.981-0.157-1.453-0.197c-0.275-0.275-0.275-0.275-1.022-1.651
		c-0.117-0.039-0.235-0.078-0.313-0.078c-0.196,0.628-0.354,0.628-0.119,1.336c-0.393,0.079-0.784,0.157-1.139,0.236
		c0,0.197,0,0.433,0.039,0.668c0.473,0.314,0.943,0.629,1.415,0.943c0.943-0.04,1.888-0.04,2.83-0.04
		c0.117,0.904,0.235,1.809,0.354,2.712c-0.078,1.101-0.314,2.123-0.039,3.223c-0.551,0.275-1.102,0.551-1.651,0.826
		c-0.313,0.55-0.313,0.55-0.55,1.455c-0.473-0.394-1.26-0.904-1.376-1.573c-0.511,0.079-0.786,0.158-1.14,0.511
		c0.039,0.079,0.078,0.157,0.117,0.275c0.313,0,0.393,0.393,0.393,0.668c-0.432,0.314-0.824,0.629-1.219,0.943
		C117.747,89.201,117.472,89.633,117.196,90.066L117.196,90.066z M123.054,112.746c-0.394-1.808-0.785-3.616-1.14-5.424
		c1.532,0,2.083,2.673,3.853,2.396c0.313-1.297,0.982-2.673,0.196-3.853c-0.551-0.039-0.551-0.039-2.241,0.236
		c-0.156-0.59-0.273-1.181-0.394-1.771c-0.55,0.512-1.062,1.022-1.571,1.573c-1.101-3.854-2.162-7.705-3.538-11.479
		c-1.571-0.196-1.808-0.864-1.729-2.516c1.179-1.179,2.005-0.589,3.42,0c1.021,0.275,2.083,0.55,3.146,0.825
		c0.038,0.236,0.59,0.904,0.668,1.14c2.357,0.904,3.104,1.258,1.493,3.499c0,0.904,0.55,0.708,1.22,0.551
		c0.51,2.24,1.61,4.245,2.594,6.289c0.472,1.809,0.472,1.809,0.904,4.363c-0.039,1.101-0.039,2.24-0.039,3.38
		C127.692,112.433,125.334,112.55,123.054,112.746L123.054,112.746z M125.963,102.526c-0.274-0.473-0.394-0.668-0.313-1.219
		c0.156-0.039,0.354-0.078,0.55-0.078c0.313,0.313,0.235,0.629,0.235,1.061C126.276,102.369,126.119,102.447,125.963,102.526
		L125.963,102.526z M124.626,96.236c-0.195-0.432-0.434-0.668-0.157-1.179c0.196,0,0.394,0,0.591,0
		c0.156,0.354,0.156,0.787,0.116,1.179C124.979,96.236,124.783,96.236,124.626,96.236L124.626,96.236z M121.245,101.504
		c-0.314-0.235-0.393-0.55-0.393-0.903c0.195-0.197,0.274-0.394,0.629-0.394C121.835,100.797,122.071,101.229,121.245,101.504
		L121.245,101.504z M108.785,100.168c-0.157-0.157-0.275-0.313-0.394-0.433c0.039-0.943-0.078-0.748,0.629-0.864
		c0.156,0.313,0.274,0.55,0.274,0.942C109.101,99.933,108.942,100.05,108.785,100.168L108.785,100.168z M109.688,100.168
		c-0.039-0.157-0.039-0.313-0.039-0.472c0.156,0,0.313,0,0.472,0c0,0.156,0,0.313,0,0.472
		C109.964,100.168,109.808,100.168,109.688,100.168L109.688,100.168z M120.026,90.852c-0.746-0.59-1.101-0.865-0.512-1.848
		c0.512,0,1.18,0,1.494,0.472C120.813,90.144,120.656,90.616,120.026,90.852L120.026,90.852z M119.791,84.444
		c-0.354-0.471-0.394-0.628-0.313-1.218c0.156-0.039,0.354-0.079,0.549-0.079c0.315,0.314,0.236,0.629,0.236,1.062
		C120.104,84.287,119.948,84.366,119.791,84.444L119.791,84.444z M120.931,82.44c-0.039-0.157-0.039-0.275-0.039-0.393
		c0.314-0.196,0.865-0.393,1.258-0.196c-0.039,0.157-0.078,0.314-0.117,0.472C121.64,82.361,121.285,82.401,120.931,82.44
		L120.931,82.44z M111.263,79.06c-0.275-0.197-0.552-0.393-0.787-0.55c0.354-0.511,0.512-0.708,1.021-1.022
		c0.079,0.511,0.195,1.022,0.314,1.572C111.615,79.06,111.419,79.06,111.263,79.06L111.263,79.06z M117.551,76.465
		c-0.59-0.589-0.512-1.257,0.394-1.257C118.062,75.797,118.219,76.269,117.551,76.465L117.551,76.465z"/>
	<path fill="#7BC143" d="M73.29,115.341c-0.118-0.394-0.157-0.668-0.118-1.14c0.826,0,0.826,0.116,0.786,1.14
		C73.722,115.341,73.486,115.341,73.29,115.341L73.29,115.341z"/>
	<path fill="#7BC143" d="M71.718,115.065c-0.04-0.039-0.04-0.08-0.04-0.08c0-0.038,0-0.038,0.04-0.038c0,0,0.039,0,0.079,0.038
		C71.757,114.985,71.718,115.026,71.718,115.065L71.718,115.065z"/>
	<path fill="#7BC143" d="M71.718,114.947c-0.04,0-0.04,0-0.04,0.038c-0.039-0.077-0.079-0.156-0.079-0.234
		C71.718,114.751,71.718,114.751,71.718,114.947L71.718,114.947z"/>
	<path fill="#7BC143" d="M133.156,111.41c-0.236-0.275-0.433-0.552-0.63-0.786c-0.235-1.611-1.021-4.678,0-5.977
		c0-0.824-0.235-1.571-0.433-2.357c-0.59-0.668-0.59-0.668-0.786-1.102c-0.629-3.064-1.219-6.091-1.809-9.119
		c0-0.708,0.275-1.375,0.195-2.044c-0.234-0.118-0.471-0.236-0.707-0.314c-0.59-3.066-1.18-6.132-1.769-9.198
		c1.375,0.079,2.712,0.039,4.128-0.079c0.393,0.826-0.709,1.573-1.141,1.966c0,0.904,0.902,1.572,1.062,2.476
		c-0.513,0.079-0.904,0.511-1.103,0.904c0.235,0.236,0.433,0.196,0.747,0.275c1.689-1.533,1.77-1.337,0.59-3.263
		c0.473-0.393,1.572-1.022,1.572-1.729c-0.904-1.455-1.69-2.477-1.77-2.752c0.274-0.708,0.786-1.533,0.786-2.28
		c-1.258-1.258-3.065,1.533-3.499,2.241c-0.863,0.747-0.943,0.943-1.808,0.236c-0.157-0.786-0.313-1.533-0.433-2.28
		c-0.394-0.825-0.787-1.651-1.141-2.437c-0.197-0.826-0.395-1.651-0.59-2.477c2.477-0.511,4.992-0.983,7.508-1.455
		c2.083,10.417,4.166,20.873,6.25,31.329c0,1.18,0,2.357,0.039,3.576c0.236,0.079,0.473,0.197,0.708,0.314
		c0.235,1.14,0.235,1.14,0.394,1.376c1.809,1.258,1.494,1.571,0.707,3.577C137.873,110.467,135.515,110.938,133.156,111.41
		L133.156,111.41z M137.204,108.267c-0.039-0.119-0.078-0.236-0.078-0.315c0.234-0.235,0.275-0.196,0.629-0.274
		c-0.039,0.157-0.079,0.314-0.117,0.473C137.479,108.187,137.321,108.226,137.204,108.267L137.204,108.267z M136.653,106.812
		c-0.038-0.196-0.038-0.354-0.038-0.512c0.157,0,0.313,0,0.472,0c0,0.118,0,0.235,0,0.395
		C136.931,106.731,136.772,106.771,136.653,106.812L136.653,106.812z M134.847,106.812c0-1.062-0.039-1.416,1.141-1.927
		C135.985,106.104,135.907,106.144,134.847,106.812L134.847,106.812z M134.06,100.286c0-0.236,0-0.473,0-0.669
		c0.119,0.039,0.275,0.079,0.434,0.157c0,0.078,0,0.197,0,0.313C134.335,100.129,134.179,100.207,134.06,100.286L134.06,100.286z
		 M135.2,94.547c-0.04-0.158-0.04-0.314-0.04-0.472c0.196-0.039,0.394-0.079,0.59-0.079c-0.039,0.118-0.078,0.275-0.118,0.432
		C135.476,94.468,135.317,94.507,135.2,94.547L135.2,94.547z M132.724,94.429c-0.117-0.079-0.197-0.157-0.274-0.196
		c0-0.118,0-0.196,0-0.275c0.274-0.118,0.354-0.157,0.708-0.079C132.92,94.311,132.92,94.311,132.724,94.429L132.724,94.429z
		 M131.033,91.874c-0.196-0.433-0.472-0.629-0.157-1.179c0.195-0.04,0.395-0.04,0.59-0.04
		C131.78,91.324,131.858,91.717,131.033,91.874L131.033,91.874z M132.724,90.302c-0.236-0.472-0.354-0.55-0.274-1.179
		c0.274-0.118,0.354-0.158,0.708-0.079c0.078,0.354,0.156,0.747,0.117,1.14C133.077,90.223,132.881,90.262,132.724,90.302
		L132.724,90.302z M131.938,89.162c-0.041-0.236-0.08-0.472-0.119-0.668c0.119,0,0.275,0.04,0.434,0.079
		c0.039,0.157,0.078,0.314,0.117,0.472C132.213,89.083,132.056,89.123,131.938,89.162L131.938,89.162z M133.272,83.659
		c-0.313-0.472-0.313-0.551-0.234-1.14c0.234,0,0.472,0,0.707,0C134.101,83.266,133.981,83.541,133.272,83.659L133.272,83.659z
		 M127.535,75.915c0.116-0.236,0.235-0.472,0.354-0.668c0.077,0,0.156,0,0.235,0c0,0.158,0.039,0.354,0.078,0.55
		C127.967,75.836,127.731,75.875,127.535,75.915L127.535,75.915z M126.866,73.989c-0.274-0.275-0.314-0.826-0.157-1.14
		c0.157-0.04,0.313-0.04,0.513-0.04c0.156,0.354,0.195,0.55,0.195,1.022C127.222,73.871,127.022,73.91,126.866,73.989
		L126.866,73.989z"/>
	<path fill="#7BC143" d="M130.797,110.506c-0.078-0.394-0.196-0.669-0.196-1.14c0.039-0.04,0.08-0.079,0.157-0.118
		c0.079,0.039,0.157,0.078,0.275,0.118c0.038,0.234,0.077,0.511,0.157,0.785C131.033,110.271,130.915,110.388,130.797,110.506
		L130.797,110.506z"/>
	<path fill="#7BC143" d="M75.098,109.248c0.118-0.235,0.275-0.433,0.432-0.629c0.04,0.196,0.079,0.394,0.118,0.629
		C75.452,109.248,75.255,109.248,75.098,109.248L75.098,109.248z"/>
	<path fill="#7BC143" d="M143.849,109.248c-0.314-0.274-0.67-0.354-0.787-0.708c1.141-0.234,2.279-0.432,3.459-0.629
		c-0.274-0.982-0.746-2.004-0.746-3.026c0.156-0.235,0.313-0.433,0.472-0.629c-0.118-0.196-0.196-0.393-0.274-0.551
		c-0.236,0-0.433,0-0.63,0.04c-0.511-0.395-0.511-0.395-0.706-0.395c-1.062,0.787-2.123,1.612-3.146,2.438
		c0.196-0.865,0.432-1.729,0.668-2.595c0.629,0,2.005-0.864,1.571-1.611c-0.51-0.157-0.981-0.275-1.453-0.395
		c-0.314-0.59-0.59-1.14-0.865-1.689c-0.629-5.149-1.219-10.298-1.809-15.408c-0.394-5.228-0.746-10.456-1.101-15.645
		c3.498-0.708,6.996-1.375,10.495-2.044c1.219,2.123,2.201,4.442,3.184,6.683c0.196,1.021,0.434,2.083,0.668,3.144
		c1.102,2.359,2.241,4.717,3.381,7.076c0.235,1.415,0.748,2.555,1.338,3.852c0.195,1.062,0.432,2.123,0.668,3.223
		c1.101,1.926,2.24,4.206,2.594,6.446c-0.432,0.433-0.903,0.747-1.493,1.022c0.864,0.235,1.729,0.471,2.595,0.746
		c0.078,0.629,0.196,1.258,0.313,1.926c-1.179-0.156-2.279-0.274-3.419,0.039c-1.141,1.729-1.141,1.729-1.299,2.201
		c1.22-0.472,2.358-1.729,3.5-0.863c0.472-0.039,0.941-0.08,1.453-0.119c0.943,0.865,2.517,2.123,1.455,3.46
		c-5.386,1.14-5.386,1.14-5.856,1.14c-1.651-1.375-2.123-3.732-2.87-5.66c-0.707-0.629-0.707-0.629-1.493-1.062
		c-1.729,0.274-3.381,1.022-4.991,1.612c-0.551,0.942-0.709,1.532-0.709,2.595c0.354,1.649,0.041,2.987-0.354,4.599
		C146.362,108.697,145.104,108.974,143.849,109.248L143.849,109.248z M142.157,108.267c-0.118-0.395-0.236-0.552-0.157-1.062
		c0.079-0.079,0.196-0.118,0.313-0.157c0.434,0.235,0.473,0.629,0.395,1.101C142.511,108.187,142.313,108.226,142.157,108.267
		L142.157,108.267z M144.83,107.243c-0.511-0.393-0.981-0.747-1.454-1.102c1.219-0.274,1.611-0.156,2.044,0.982
		C145.224,107.164,145.026,107.204,144.83,107.243L144.83,107.243z M160.907,105.237c-0.157-0.354-0.434-0.745-0.157-1.178
		c0.196,0,0.394,0,0.59,0c0.157,0.313,0.157,0.588,0.157,0.942C161.3,105.081,161.104,105.16,160.907,105.237L160.907,105.237z
		 M143.494,100.403c-0.039-0.235-0.039-0.432-0.039-0.629c0.196,0.117,0.394,0.274,0.589,0.433
		C143.849,100.246,143.651,100.325,143.494,100.403L143.494,100.403z M145.498,98.713c-0.354-0.472-0.394-0.628-0.313-1.257
		c0.196,0,0.394,0,0.59,0c0.274,0.273,0.195,0.629,0.195,1.021C145.813,98.556,145.655,98.635,145.498,98.713L145.498,98.713z
		 M148.563,98.597c-0.117-0.395-0.195-0.552-0.195-1.022c0.707-0.707,0.863,0.394,0.902,0.786
		C149.036,98.438,148.8,98.517,148.563,98.597L148.563,98.597z M149.547,98.597c0.786-1.377,0.708-1.572,2.28-1.928
		c0.354-0.433,0.354-0.433,0.433-0.786c-0.235-0.039-0.235-0.039-1.258-0.747c-0.942-0.275-2.634-0.708-3.104-1.69
		c-0.787-3.93-1.533-7.822-2.28-11.713c-0.433-0.275-0.825-0.511-1.22-0.747c-0.785-0.196-1.571-0.511-2.278-0.904
		c0-0.354,0.039-0.393,0.196-0.747c1.062,0.079,1.297,0.197,2.201,0.157c-0.865-4.245-0.865-4.245-1.021-4.52
		c-0.512-0.275-0.982-0.55-1.455-0.826c-0.629,0-1.219,0.04-1.809,0.079c-0.156-0.826-0.313-1.651-0.433-2.477
		c1.337-0.157,2.673-0.275,4.05-0.393c1.492,0.236,2.83,2.005,4.244,0.393c0.079,0.354,0.157,0.747,0.235,1.14
		c0.354-0.079,0.708-0.157,1.103-0.236c0,0.393-0.275,0.708-0.275,1.14c0.472,0.825,0.472,0.825,1.021,1.454
		c0.079,0.393,0.157,0.786,0.275,1.218c-1.69,0.275-1.69,0.275-1.808,0.394c0.902,0.865,2.317,2.083,1.297,3.419
		c0.039,0.826,0.234,1.376-0.236,2.044c0.236,1.533,0.512,3.066,0.786,4.599c0.512,1.533,1.022,3.065,1.571,4.599
		c0.197,1.062,0.434,2.162,0.668,3.263c0.275,0.472,0.59,0.943,0.904,1.454c0.079,0.433,0.197,0.865,0.314,1.337
		c-0.473-0.117-0.943-0.196-1.375-0.275C151.591,97.771,150.608,98.281,149.547,98.597L149.547,98.597z M144.634,94.311
		c-0.039-0.197-0.039-0.394-0.039-0.59c0.117,0,0.235,0,0.354,0c0.038,0.157,0.077,0.315,0.118,0.511
		C144.909,94.232,144.752,94.272,144.634,94.311L144.634,94.311z M154.735,93.525c-0.039-0.157-0.039-0.315-0.039-0.472
		c0.156,0,0.313,0,0.472,0c0,0.118,0,0.236,0,0.393C155.011,93.446,154.854,93.485,154.735,93.525L154.735,93.525z M157.881,93.525
		c-0.157-0.354-0.196-0.55-0.196-0.983c0.156-0.157,0.156-0.157,0.629-0.196c0.274,0.275,0.235,0.589,0.274,0.982
		C158.353,93.368,158.116,93.446,157.881,93.525L157.881,93.525z M141.567,88.493c-0.394-0.511-0.394-0.55-0.314-1.258
		c0.196,0,0.395,0,0.59,0c0.275,0.275,0.196,0.629,0.196,1.022C141.882,88.336,141.726,88.415,141.567,88.493L141.567,88.493z
		 M153.832,84.798c-0.197-0.118-0.394-0.235-0.551-0.354c0-0.078,0-0.157,0-0.235c1.454-0.275,1.454-0.275,1.769-0.236
		c0.079,0.275,0.157,0.55,0.236,0.825C154.774,84.798,154.304,84.798,153.832,84.798L153.832,84.798z M143.258,84.209
		c-0.864-0.433-1.729-0.826-2.555-1.219c-0.433-1.022-0.433-1.022-0.472-1.454c1.14,0,1.926,0.078,2.869,0.747
		c0.117,0.629,0.234,1.258,0.394,1.926C143.415,84.209,143.336,84.209,143.258,84.209L143.258,84.209z M151.709,83.305
		c-0.039-0.236-0.039-0.472-0.039-0.668c0.196,0.118,0.394,0.236,0.59,0.354c0,0.079,0,0.157,0,0.236
		C152.062,83.226,151.866,83.266,151.709,83.305L151.709,83.305z M141.567,79.374c-0.235-0.314-0.314-0.826-0.118-1.14
		c0.196,0,0.394,0,0.59,0c0.157,0.314,0.157,0.589,0.157,0.943C141.961,79.217,141.765,79.295,141.567,79.374L141.567,79.374z
		 M148.761,79.295c-0.314-0.314-0.433-0.747-0.234-1.179c0.195,0,0.393,0,0.59,0c0.156,0.314,0.156,0.59,0.156,0.943
		C149.075,79.138,148.918,79.217,148.761,79.295L148.761,79.295z M141.371,77.487c-0.157-0.196-0.313-0.393-0.472-0.551
		c0.195,0,0.394,0,0.59,0c0,0.119,0,0.275,0.039,0.433C141.449,77.408,141.41,77.448,141.371,77.487L141.371,77.487z
		 M146.521,77.133c-0.195-0.157-0.394-0.275-0.551-0.393c0.157-0.079,0.354-0.118,0.551-0.157
		C146.521,76.74,146.521,76.937,146.521,77.133L146.521,77.133z"/>
	<path fill="#7BC143" d="M165.86,104.885c-0.512-0.629-0.592-0.903-0.748-1.69c-0.078-1.492-0.156-2.986-0.235-4.48
		c0.983-0.982,0.04-2.83-0.668-3.616c-0.708-3.341-1.376-6.682-2.044-9.984c0.234-0.472,0.354-0.944,0.354-1.455
		c-0.393-0.314-0.393-0.314-0.707-0.354c-0.629-3.066-1.219-6.132-1.809-9.198c1.376,0,2.83,0.079,4.167-0.118
		c-0.04,0.393-0.079,0.825-0.118,1.258c-0.236,0.039-0.236,0.039-1.062,0.629c0,1.022,0.983,1.533,0.983,2.516
		c-0.354,0.236-0.67,0.472-0.983,0.747c0,0.079,0,0.157,0,0.236c0.942,0.629,2.005-0.59,2.2-1.455
		c-0.313-0.511-0.59-1.022-0.863-1.533c0.511-0.511,1.021-1.022,1.572-1.494c0-0.708-1.338-2.319-1.81-2.909
		c0.196-0.708,0.786-1.611,0.786-2.358c-1.062-1.061-2.555,0.826-3.025,1.573c-0.473,0.432-0.943,0.904-1.416,1.375
		c-0.274-0.118-0.551-0.236-0.826-0.354c-0.273-1.533-0.629-2.987-1.375-4.402c-0.313-0.943-0.629-1.887-0.942-2.83
		c2.044-0.511,2.044-0.511,7.665-1.533c2.083,10.731,4.206,21.462,6.328,32.233c-0.039,0.826-0.078,1.651-0.078,2.515
		c0.234,0.157,0.473,0.313,0.707,0.472c0.079,0.434,0.195,0.904,0.314,1.376c0.668,0.157,1.375,1.022,1.533,1.69
		c-0.473,1.336-0.473,1.336-0.748,1.729C172.347,103.705,172.347,103.705,165.86,104.885L165.86,104.885z M170.104,101.858
		c-0.078-0.197-0.235-0.197-0.158-0.512c0.197-0.039,0.395-0.039,0.631-0.039c-0.04,0.117-0.079,0.274-0.118,0.433
		C170.341,101.778,170.224,101.817,170.104,101.858L170.104,101.858z M169.437,100.403c0-0.235,0-0.473,0-0.668
		c0.119,0.039,0.275,0.078,0.434,0.156c0,0.08,0,0.196,0,0.314C169.712,100.246,169.556,100.325,169.437,100.403L169.437,100.403z
		 M167.511,100.286c0-1.219,0.354-1.415,1.377-1.809C168.888,99.421,168.336,100.089,167.511,100.286L167.511,100.286z
		 M166.96,93.878c-0.117-0.236-0.273-0.236-0.156-0.589c0.117-0.04,0.235-0.04,0.393-0.04c0.039,0.118,0.08,0.236,0.119,0.393
		C167.196,93.721,167.078,93.8,166.96,93.878L166.96,93.878z M168.101,88.14c-0.078-0.039-0.156-0.079-0.235-0.118
		c-0.039-0.118-0.039-0.236-0.039-0.354c0.274-0.118,0.354-0.157,0.708-0.079C168.297,88.021,168.297,88.021,168.101,88.14
		L168.101,88.14z M165.271,87.943c-0.039-0.118-0.078-0.236-0.078-0.315c0.197-0.196,0.274-0.196,0.668-0.196
		c0,0.157,0,0.314,0,0.511C165.663,87.943,165.467,87.943,165.271,87.943L165.271,87.943z M163.935,85.467
		c-0.394-0.393-0.668-1.336,0.235-1.336c0.117,0.275,0.235,0.55,0.354,0.865C164.327,85.27,164.248,85.388,163.935,85.467
		L163.935,85.467z M165.624,83.895c-0.354-0.472-0.434-0.472-0.434-1.14c0.197-0.197,0.395-0.157,0.709-0.157
		c0.039,0.275,0.117,0.55,0.195,0.826C165.938,83.58,165.781,83.737,165.624,83.895L165.624,83.895z M164.72,82.754
		c-0.195-0.314-0.195-0.314-0.195-0.55c0.078-0.079,0.156-0.157,0.274-0.236c0.275,0.118,0.235,0.314,0.313,0.55
		C164.956,82.597,164.838,82.676,164.72,82.754L164.72,82.754z M166.058,77.251c-0.275-0.55-0.473-0.983,0.156-1.297
		c0.118,0.079,0.273,0.158,0.432,0.236c0.041,0.197,0.08,0.394,0.119,0.629C166.528,77.055,166.449,77.173,166.058,77.251
		L166.058,77.251z M160.356,69.39c0.156-0.236,0.313-0.472,0.472-0.668c0,0.157,0.04,0.354,0.079,0.55
		C160.711,69.312,160.515,69.351,160.356,69.39L160.356,69.39z M159.649,67.582c-0.236-0.354-0.275-0.55-0.275-0.983
		c0.195-0.196,0.434-0.157,0.747-0.157c0.157,0.314,0.157,0.589,0.157,0.943C160.042,67.424,159.847,67.503,159.649,67.582
		L159.649,67.582z"/>
	<path fill="#7BC143" d="M72.071,101.504c-0.354-0.354-0.432-0.432-0.432-0.981c0.196-0.196,0.432-0.157,0.747-0.157
		c0.118,0.274,0.157,0.59,0.118,0.942C72.347,101.347,72.189,101.426,72.071,101.504L72.071,101.504z M77.024,113.965
		c-1.062-0.394-2.123-0.747-3.145-1.101c0-0.865,0.039-1.729,0.078-2.596c-0.786,0-1.14,0.354-1.769,0.787c0,0.746,0,1.493,0,2.24
		c-0.118,0-0.118,0-0.118-0.197c-0.628-0.117-1.297-0.629-1.651-1.14c0-0.55,0.118-0.707,0.354-1.179
		c0.236-0.04,0.472-0.04,0.747-0.04c0.078-0.511,0.196-1.021,0.314-1.493c0.747-0.118,1.101-0.434,1.69-0.865
		c0.04-0.785-0.118-1.77-1.022-1.77c-1.14,0.669-1.533,2.201-2.791,2.635c-0.314-2.357-0.314-2.357-0.314-3.459
		c0.039-0.59,0.079-1.141,0.118-1.689c-0.864-4.442-1.729-8.845-2.594-13.248c1.297-1.494,0.982-1.848-0.079-3.38
		c-0.511-1.415-1.14-2.831-1.533-4.246c2.162-0.314,4.56-1.022,6.761-0.668c0.079,0.04,0.197,0.079,0.314,0.158
		c1.336,6.839,2.712,13.718,4.088,20.597c0.904,7.43,1.258,9.553,1.258,10.221c-0.118,0.117-0.197,0.275-0.275,0.433
		C77.299,113.965,77.143,113.965,77.024,113.965L77.024,113.965z M71.835,103.431c-0.55-0.707-1.533-1.65-1.533-2.595
		c0.118-0.354,0.236-0.668,0.354-0.981c-1.14-2.28-1.14-2.28-1.14-2.478c0.275-0.433,0.59-0.864,0.904-1.258
		c0.275-1.062,0.786-2.162,0.786-3.263c-0.314-0.432-0.629-0.865-0.904-1.297c0.432-0.668,0.904-1.179,0.904-1.965
		c-0.393-0.865-0.786-1.69-1.179-2.516c-0.786-0.708-1.533-1.415-2.28-2.083c-0.629-1.729,1.258-1.612,2.319-1.69
		c0.55,0.354,0.904,0.865,1.258,1.376c0.275,0.196,0.55,0.393,0.865,0.629c0.708,2.751,0.314,5.857-0.196,8.569
		c0.314,1.651,0.039,2.555,1.769,2.831c-0.825,0.825-1.612,1.376-1.926,2.555c0.943-0.156,1.887-0.313,2.83-0.433
		c-0.079,0.354-0.157,0.708-0.236,1.101c-0.472,0-1.454,1.338-1.769,1.69C71.993,103.312,71.993,103.312,71.835,103.431
		L71.835,103.431z M69.045,90.38c-0.236-0.589-0.354-1.375,0.55-1.101C69.713,90.105,69.87,90.223,69.045,90.38L69.045,90.38z
		 M73.172,104.452c-0.039-0.196-0.039-0.354-0.039-0.512c0.157-0.039,0.314-0.078,0.511-0.078c0,0.197,0,0.394,0,0.59
		C73.486,104.452,73.329,104.452,73.172,104.452L73.172,104.452z"/>
	<path fill="#7BC143" d="M21.089,98.241c-0.433-1.926-0.865-3.852-1.258-5.738c1.258-0.275,2.515-0.511,3.813-0.747
		c-0.158,1.101-0.158,1.101-0.118,2.005c0.786,0,1.572,0,2.397,0c0.197-0.668,0.393-1.297,0.315-2.005
		c-0.668-0.079-1.533-0.314-1.809-0.904c4.875-0.983,9.749-1.926,14.623-2.87c0.275,0,0.55,0,0.826,0.039
		c1.022,1.573,1.375,3.656,1.769,5.503c-1.493,0-3.066-1.219-4.284-1.848c-0.55,0.04-1.062,0.079-1.572,0.118
		c-0.393-0.314-0.786-0.589-1.179-0.864c-0.551,0-1.101,0.039-1.612,0.079c-0.196-0.118-0.393-0.236-0.55-0.354
		c-0.629,0.865-0.865,1.966-1.494,2.87c-0.59,0.472-1.062,0.982-1.533,1.533c0.668,2.083-2.751,1.337-3.616,1.337
		c-0.904,0.432-0.904,0.432-1.612,0.943c-0.118-0.313-0.236-0.629-0.314-0.904c-0.236-0.079-0.472-0.157-0.668-0.197
		C22.779,97.022,22.111,98.124,21.089,98.241L21.089,98.241z M27.123,94.783c-0.111-0.139-0.223-0.279-0.334-0.391
		c0.251-0.028,0.53-0.056,0.809-0.083c-0.084-1.478-0.084-2.287,1.422-2.649c0,1.143,0.028,2.119-0.948,2.956
		C27.765,94.727,27.765,94.727,27.123,94.783L27.123,94.783z M38.031,93.997c-0.472-0.236-0.394-0.747-0.275-1.179
		c0.196-0.04,0.393-0.04,0.629-0.04c0.118,0.157,0.118,0.157,0.196,1.101C38.385,93.917,38.188,93.957,38.031,93.997L38.031,93.997z
		 M36.223,91.087c-0.197-0.196-0.393-0.393-0.55-0.55c0.314-0.394,0.314-0.394,0.55-0.472C36.223,90.38,36.223,90.734,36.223,91.087
		L36.223,91.087z"/>
	<path fill="#7BC143" d="M103.164,83.776c-0.079-0.393-0.118-0.786-0.157-1.179c0.235-0.04,0.473-0.04,0.747-0.04
		c0.196,0.197,0.313,0.236,0.313,0.55C103.754,83.305,103.438,83.541,103.164,83.776L103.164,83.776z"/>
	<path fill="#7BC143" d="M102.968,80.514c-0.197-0.157-0.394-0.275-0.59-0.393c0.512-0.787,0.551-0.708,1.376-0.944
		C103.636,79.649,103.479,80.357,102.968,80.514L102.968,80.514z"/>
	<path fill="#7BC143" d="M104.972,78.273c-0.234-0.511-0.313-0.511-0.234-1.14c0.195-0.039,0.393-0.039,0.629-0.039
		c0.117,0.354,0.195,0.511,0.195,0.943C105.365,78.116,105.168,78.195,104.972,78.273L104.972,78.273z"/>
</g>
</svg>
