<?xml version="1.0" encoding="utf-8"?>
<!-- Generator: Adobe Illustrator 16.0.0, SVG Export Plug-In . SVG Version: 6.00 Build 0)  -->
<!DOCTYPE svg PUBLIC "-//W3C//DTD SVG 1.1//EN" "http://www.w3.org/Graphics/SVG/1.1/DTD/svg11.dtd">
<svg version="1.1" id="Layer_1" xmlns="http://www.w3.org/2000/svg" xmlns:xlink="http://www.w3.org/1999/xlink" x="0px" y="0px"
	 width="187.081px" height="67.581px" viewBox="265.839 323.753 187.081 67.581"
	 enable-background="new 265.839 323.753 187.081 67.581" xml:space="preserve">
<g>
	<path fill="#FFFFFF" d="M283.308,370.496l0.013-0.006c-0.002-0.004-0.004-0.006-0.006-0.01L283.308,370.496L283.308,370.496
		L283.308,370.496z M288.527,380.637c0.146,0.432,0.25,0.75,0.298,0.887l-1.049,0.236L288.527,380.637L288.527,380.637
		L288.527,380.637z M285.397,372.635l0.054,0.016c0.146,0.318,0.264,0.58,0.338,0.75l-0.868,0.39L285.397,372.635L285.397,372.635
		L285.397,372.635z M445.191,362.48c-0.008-0.004-0.014-0.008-0.021-0.013C445.172,362.471,445.18,362.475,445.191,362.48
		L445.191,362.48L445.191,362.48z M302.04,370.592c-0.055-0.088-0.109-0.162-0.167-0.24c-0.027-0.037-0.063-0.088-0.097-0.137
		c-0.02-0.238-0.112-0.385-0.384-0.814c-3.016-4.771-4.31-7.289-4.86-8.604c0.757-0.219,1.962-0.355,2.445-0.41
		c0.148-0.016,0.282-0.031,0.407-0.047c0.209,0.736,0.462,1.904,0.59,2.494c0.25,1.151,0.301,1.377,0.438,1.606
		c0.39,0.652,0.39,0.652,0.407,1.017c0.01,0.209,0.023,0.498,0.063,0.91l0.005,0.057l0.012,0.056
		c0.142,0.698,0.706,2.598,0.948,3.166l-0.022-0.05l0.469,1.281c0.021,0.062,0.057,0.162,0.098,0.272
		C302.272,370.963,302.151,370.775,302.04,370.592L302.04,370.592L302.04,370.592z M314.292,344.324
		c-0.028,0.033-0.056,0.063-0.083,0.097c-0.046-0.034-0.094-0.067-0.144-0.099C314.14,344.322,314.216,344.323,314.292,344.324
		L314.292,344.324L314.292,344.324z M353.205,361.902c-0.227-0.082-0.492-0.172-0.789-0.271c-0.024-0.01-0.054-0.018-0.081-0.026
		c0.358-0.193,0.688-0.42,1.001-0.656C353.296,361.273,353.251,361.602,353.205,361.902L353.205,361.902L353.205,361.902z
		 M369.961,363.236c-0.01-0.08-0.015-0.162-0.023-0.238c-0.073-0.572-0.108-1.025-0.142-1.424c-0.076-0.971-0.135-1.677-0.647-2.498
		c0.295-0.237,0.451-0.53,0.451-0.877c0.021-0.376,0.002-0.628-0.009-0.777c-0.002-0.029-0.005-0.063-0.005-0.076
		c0.015-0.332,0.017-0.816,0.02-1.43c0.003-1.082,0.013-3.657,0.204-4.855c2.454,0.654,4.446,1.597,4.714,2.097
		c0.021,0.083,0.014,0.311,0.008,0.465c-0.002,0.052-0.003,0.107-0.005,0.162c-0.462,0.373-0.911,0.758-1.332,1.226
		c-0.57,0.622-1.216,2.348-2.443,5.979C370.465,361.832,370.119,362.852,369.961,363.236L369.961,363.236L369.961,363.236z
		 M396.253,349.328l-0.079,0.527c-0.192,1.291-0.376,2.509-0.658,3.713c-0.098,0.416-0.229,0.916-0.367,1.444
		c-0.356,1.356-0.754,2.875-0.911,4.094c-0.051,0.034-0.104,0.073-0.156,0.12c-0.675,0.584-1.058,1.266-1.274,1.821l-4.643-0.322
		c0.07-0.303,0.113-0.617,0.148-0.928c0.034-0.305,0.093-0.806,0.183-0.966c0.208-0.147,0.473-0.408,1.222-2.121
		c0.755-1.739,1.572-2.841,2.607-4.237c0.358-0.483,0.729-0.982,1.131-1.552c0.258-0.368,0.537-0.72,0.833-1.092
		c0.722-0.91,1.469-1.852,1.904-3.046c0.269-0.744,0.155-1.673-0.135-2.395h0.589l-0.097,0.731l-0.007,0.054
		c0.001-0.001-0.001,0.053-0.001,0.053c-0.007,0.197-0.005,0.386-0.004,0.568c0.002,0.3,0.004,0.583-0.03,0.828
		c-0.006,0.051-0.132,1.392-0.132,1.392L396.253,349.328L396.253,349.328L396.253,349.328z M430.378,373.127
		c-0.391-0.379-0.688-0.895-0.761-1.283c0.205,0.104,0.4,0.205,0.518,0.279l0.235,0.373h0.55c0.079,0.031,0.245,0.141,0.349,0.209
		c0.116,0.078,0.236,0.158,0.366,0.23c0.001,0,0.269,0.145,0.269,0.145c0.38,0.205,0.769,0.418,1.029,0.664
		c-0.06,0.033-0.136,0.07-0.231,0.102l-0.127,0.039H432.4h-0.447C431.338,373.771,430.76,373.496,430.378,373.127L430.378,373.127
		L430.378,373.127z M421.603,367.291c0.229,0.16,0.525,0.359,0.896,0.607l-0.065,0.039c-0.158,0.096-0.318,0.188-0.479,0.274
		C421.884,367.887,421.774,367.578,421.603,367.291L421.603,367.291L421.603,367.291z M419.92,365.682
		c0.133,0.16,0.271,0.322,0.413,0.484c-0.118-0.062-0.241-0.123-0.375-0.18c-0.043-0.021-0.088-0.033-0.133-0.051
		C419.854,365.855,419.885,365.77,419.92,365.682L419.92,365.682L419.92,365.682z M449.678,373.666
		c-0.002-0.006-0.004-0.012-0.007-0.018C449.67,373.645,449.673,373.654,449.678,373.666L449.678,373.666L449.678,373.666z
		 M449.748,373.834l-0.015-0.344l-0.003-0.07c0.001,0.008-0.013-0.062-0.013-0.062c-0.045-0.258-0.03-0.588-0.015-0.94
		c0.019-0.422,0.036-0.881-0.039-1.349l0.106-0.155c-0.008-0.043-0.215-0.578-0.215-0.578c0.003,0.008,0.015,0.039,0.023,0.08
		c-0.059-0.233-0.137-0.427-0.2-0.578c-0.034-0.082-0.075-0.183-0.086-0.226c-0.001-0.006-0.112-0.452-0.112-0.452
		c-0.129-0.537-0.264-1.095-0.517-1.679l-0.028-0.063l-0.035-0.06l-0.229-0.387l-0.164-0.275l-0.151-0.491
		c-0.183-0.582-1.009-1.812-1.432-2.207l-0.077-0.072c0.005,0.002-0.085-0.053-0.085-0.053l-0.336-0.211l-0.147-0.093
		c-0.016-0.264-0.131-0.743-0.698-1.039c-0.089-0.088-0.177-0.174-0.269-0.266c-0.305-0.311-0.65-0.662-1.078-0.934
		c-0.316-0.207-0.57-0.375-0.774-0.51l0.256-0.299c0.465-0.561,1.725-2.215,2.312-3.121c0.698-1.095,1.193-2.373,1.362-3.512
		c0.052-0.361,0.135-1.272-0.203-2.062c-0.938-2.161-4.529-4.349-6.245-5.041c-0.024-0.01-1.528-0.571-1.528-0.571l-0.032-0.011
		c0.002,0-0.03-0.01-0.03-0.01l-1.514-0.461l-0.708-0.215c0,0-0.049,0.061-0.111,0.141c-0.997-0.29-4.153-0.928-5.872,0.086
		c-0.117-0.059-0.247-0.123-0.397-0.177c-0.457-0.164-1.956-0.625-3.134-0.138c-0.676,0.042-1.312,0.239-1.813,0.559
		c-0.708,0.119-1.793,0.714-2.658,1.323c-0.097-0.286-0.186-0.523-0.307-0.713c-0.251-0.395-0.674-0.787-1.076-1.001
		c-1.05-0.559-2.23-0.957-3.438-1.267c5.288-0.07,10.486-0.138,10.486-0.138l0.595-0.008l0.315-0.505l11.375-18.234l1.041-1.668
		h-1.966l-154.524-0.025h-1.953l1.023,1.663l11.319,18.39l0.32,0.521l0.612-0.002c0.042,0,4.208-0.014,5.344,0.005
		c2.363,0.038,4.736,0.021,7.032,0.005c0.079,0,0.159-0.001,0.237-0.001c-1.129,0.191-2.167,0.438-2.945,0.79
		c-0.23,0.103-0.441,0.248-0.646,0.387c-0.098,0.067-0.244,0.167-0.344,0.223c-2.296-0.547-4.361-0.17-6.142,1.125
		c-0.136-0.139-0.277-0.293-0.376-0.401c-0.277-0.302-0.516-0.562-0.755-0.744c-0.728-0.552-1.872-1.305-3.41-1.494
		c-3.445-0.425-11.553,5.333-13.24,9.123c-1.492,0.245-2.545,1.142-3.487,1.951l-0.198,0.17c-0.41,0.35-0.821,0.724-1.219,1.085
		c-0.944,0.859-1.919,1.747-2.925,2.346c-0.952,0.563-1.978,0.916-2.743,0.943l-0.135,0.005l-0.105,0.03
		c-0.076,0.013-0.3,0.015-0.465,0.016c-1.108,0.01-4.052,0.035-4.29,3.414c-0.154,2.07,0.984,3.539,1.854,4.463
		c0.828,0.883,1.767,1.783,3.001,2.363l0.071,0.033l0.075,0.023l0.726,0.221l1.024,0.311c1.899,0.582,4.155,0.65,6.19,0.184
		c1.532-0.432,2.292-0.729,4.028-1.518l0.183,0.424c0.103,0.234,0.204,0.467,0.315,0.674l0.583-1.344
		c0.193,0.445,0.356,0.818,0.415,0.943l-0.992,0.41c0.002,0.004,0.003,0.008,0.006,0.01l-0.014,0.006
		c0.391,0.934,0.865,1.977,1.179,2.668c0.116,0.256,0.235,0.518,0.303,0.672l-0.021,0.01c0.195,0.554,0.78,2.123,1.029,2.658
		c0.699,1.498,1.551,4.051,1.872,5.01c0.039,0.115,0.085,0.254,0.147,0.396l-0.009,0.004c0.119,0.388,0.247,0.774,0.37,1.147
		c0.271,0.824,0.528,1.604,0.71,2.412c0.051,0.229,0.099,0.476,0.149,0.736c0.259,1.338,0.581,3.006,1.788,4.066
		c0.809,0.711,2.599,1.713,5.498,0.436c1.086-0.479,3.815-2.494,4.333-2.994l0.054-0.053c-0.001,0.002,0.045-0.057,0.045-0.057
		l1.107-1.408l0.326-0.416c0.201-0.074,0.603-0.098,0.883-0.115c0.122-0.008,0.249-0.014,0.375-0.025
		c1.021-0.086,2.457-0.59,3.516-2.491c1.083-1.955,0.737-3.892-0.036-5.529c1.457,1.146,3.146,1.941,5.062,2.356
		c2.721,0.587,7.327-0.104,9.588-2.024c0.467-0.401,0.708-0.909,0.901-1.315c0.045-0.099,0.106-0.229,0.153-0.312
		c0.029-0.006,0.062-0.014,0.09-0.02c0.145-0.035,0.322-0.076,0.519-0.156c0.699-0.295,1.23-0.664,1.785-1.234l0.036-0.037
		l0.031-0.039l1.552-1.938c1.576,2.17,4.398,2.176,6.702,2.176h0.048l0.047-0.006c0.231-0.02,0.465-0.064,0.733-0.119
		c0.78-0.152,2.084-0.41,4.983-0.32c0.89,0.023,1.529-0.473,2.011-0.889c0.471,0.379,0.996,0.787,1.616,1.029l0.029,0.012
		c-0.001,0,0.029,0.01,0.029,0.01l0.516,0.168l0.553,0.18l0.086,0.029c-0.008-0.002,0.083,0.012,0.083,0.012l0.56,0.084
		c0.557,0.175,2.027,0.507,5.651-1.297c1.088-0.559,2.116-1.297,2.908-2.086l0.044-0.045c-0.003,0.004,0.037-0.045,0.037-0.045
		l0.124-0.156c0.157,0.197,0.342,0.383,0.56,0.554c0.583,0.448,1.25,0.688,1.87,0.686c0.424,0.15,0.934,0.111,1.465,0.068
		c0.077-0.007,0.183-0.017,0.215-0.017c0.483,0.023,0.988-0.123,1.394-0.239c0.117-0.035,0.227-0.066,0.317-0.089
		c0.007-0.002,0.616-0.153,0.616-0.153c1.058-0.267,2.057-0.517,3.076-0.707c0.64-0.123,1.275-0.185,1.949-0.248l0.529-0.051
		l0.056-0.007c-0.006,0,0.049-0.01,0.049-0.01l0.568-0.117l0.52-0.104c-0.025,0.006,0.436-0.078,0.436-0.078l0.392-0.07l0.095-0.018
		c0.004,0,0.095-0.033,0.095-0.033c0.333-0.125,0.612-0.281,0.861-0.457c0.52,0.773,1.129,1.412,1.841,1.904
		c1.461,1.004,3.23,1.119,4.944,1.232c0.646,0.041,1.254,0.082,1.832,0.166c0.623,0.092,1.241,0.223,1.896,0.36
		c0.661,0.142,1.345,0.285,2.04,0.388c0.785,0.119,1.651,0.305,4.265,1.367c0.111,0.045,0.354,0.168,0.591,0.284
		c1.219,0.604,2.102,1.009,2.802,0.968c0.008,0,0.013,0,0.02,0c0.438,0.258,0.931,0.172,1.239,0.114
		c0.017-0.002,0.042-0.008,0.049-0.01c0.847-0.119,1.692-0.572,2.212-1.183c0.114-0.137,0.209-0.283,0.311-0.438
		c0.035-0.056,0.083-0.127,0.134-0.201c0.791,0.252,1.89,0.39,2.846,0.312c1.492-0.121,4.159-0.004,6.021,0.174
		c2.883,0.273,6.021,1.336,8,2.711c0.299,0.207,0.652,0.506,1.028,0.826c0.954,0.809,2.037,1.725,3.18,1.969
		c0.909,0.191,1.927,0.072,2.726-0.314l0.058-0.026c-0.003,0.002,0.051-0.033,0.051-0.033l0.021-0.013c0,0.007,0,0.013,0,0.021
		c0.002,0.263,0.005,0.656,0.207,1.076c0.495,1.028,1.342,1.942,2.513,2.717l0.868,0.722l0.102,0.086
		c-0.004-0.004,0.114,0.055,0.114,0.055l1.412,0.684l1.408,0.687l0.125,0.061c0.002,0,0.139,0.027,0.139,0.027l1.102,0.221
		l0.708,0.144c1.003,0.289,1.893,0.451,2.71,0.49c0.61,0.026,1.324,0.057,1.94-0.062c0.203-0.041,0.368-0.102,0.502-0.15
		c0.023-0.008,0.052-0.018,0.078-0.027c0.03,0.027,0.062,0.056,0.088,0.078c0.166,0.148,0.371,0.334,0.635,0.465
		c0.601,0.302,1.398,0.361,2.232,0.4l0.059,0.002c6.117,0.287,11.938-3.424,14.824-9.453c0.541-1.135,0.904-2.623,1.161-3.795
		c0.037-0.176,0.061-0.336,0.079-0.479c0.011-0.076,0.021-0.146,0.032-0.213c0.013-0.018,0.03-0.033,0.042-0.053
		C449.76,374.633,449.902,374.285,449.748,373.834L449.748,373.834z"/>
	<path d="M448.667,374.072c-0.007-0.176-0.014-0.352-0.022-0.527c-0.155-0.895,0.161-1.949-0.182-2.764
		c0.134,0,0.081-0.014,0.056-0.123c-0.065-0.268-0.22-0.535-0.281-0.783c-0.183-0.707-0.292-1.318-0.57-1.959
		c-0.153-0.258-0.308-0.516-0.461-0.773c-0.062-0.203-0.125-0.41-0.189-0.617c-0.12-0.383-0.831-1.448-1.135-1.733
		c-0.203-0.127-0.41-0.256-0.613-0.386c-0.252-0.176-0.493-0.405-0.375-0.764c0-0.168-0.181-0.146-0.289-0.25
		c-0.409-0.385-0.792-0.848-1.255-1.145c-1.697-1.102-1.763-1.221-1.771-1.252c0.397-0.484,0.409-0.475,1.004-1.179
		c0.44-0.53,1.673-2.15,2.23-3.009c0.558-0.875,1.039-2.013,1.198-3.079c0.069-0.486,0.047-1.062-0.128-1.472
		c-0.756-1.743-4.014-3.799-5.649-4.459c-0.499-0.187-1.001-0.374-1.504-0.561c-0.502-0.153-1.006-0.307-1.511-0.46
		c-0.239,0.301-0.341,0.359-0.51,0.251c-0.079-0.196-0.021-0.234-0.14-0.273c-1.232-0.427-4.601-0.896-5.509,0.2
		c-0.356,0-0.668-0.248-0.98-0.36c-0.659-0.236-1.832-0.477-2.499-0.086c-0.639,0-1.364,0.201-1.785,0.625
		c0-0.111,0.021-0.095-0.089-0.075c-0.783,0.125-2.663,1.325-3.213,1.95c-0.365,0-0.666-1.486-0.881-1.824
		c-0.147-0.231-0.431-0.497-0.667-0.622c-2.211-1.18-5.081-1.593-7.639-2.061c-1.03-0.19-2.104-0.533-3.215-0.436
		c-0.517,0.044-0.896,0.298-1.342,0.48c0-0.139-1.631-0.951-1.874-1.16c0.031,0,0.089,0,0.089,0l21.523-0.285l11.375-18.235
		l-154.524-0.025l11.319,18.39c0,0,4.205-0.014,5.365,0.006c5.391,0.086,10.677-0.111,16.065,0.059c0,0.031,0,0.059,0,0.09
		c0.031,0,0.059,0,0.09,0c0,0.03,0,0.058,0,0.089c-0.249,0.098-0.497,0.192-0.745,0.287c-1.127,0.413-2.262,0.672-2.878,2.228
		c-0.819,0.15-0.41-1.342-2.892-0.893c-1.489,0.178-3.65,0.46-4.886,1.018c-0.438,0.195-1.051,0.828-1.521,0.716
		c-0.999-0.256-3.536-0.831-5.999,1.373c-0.485,0-1.392-1.271-1.854-1.623c-0.861-0.653-1.771-1.144-2.883-1.28
		c-3.137-0.387-11.695,5.901-12.306,9.06c-1.628,0-2.652,0.968-3.778,1.93c-1.38,1.177-2.75,2.619-4.294,3.539
		c-0.901,0.532-2.147,1.056-3.263,1.097c-0.767,0.224-3.734-0.559-3.946,2.451c-0.112,1.5,0.616,2.637,1.559,3.64
		c0.794,0.848,1.628,1.635,2.671,2.125c0.585,0.178,1.169,0.354,1.751,0.532c1.71,0.522,3.79,0.582,5.628,0.162
		c1.64-0.465,2.292-0.746,4.833-1.912c0.427,1.009,1.068,2.476,0.94,2.16c0.775,1.844,1.854,4.08,1.483,3.405
		c0.201,0.568,0.77,2.091,0.99,2.562c0.931,1.994,2.08,5.662,2.063,5.547c0.371,1.207,0.82,2.391,1.102,3.644
		c0.312,1.397,0.468,3.233,1.593,4.221c0.504,0.445,1.858,1.351,4.338,0.258c0.953-0.42,3.562-2.342,4.017-2.78
		c0.521-0.66,1.04-1.324,1.559-1.984c0.494-0.365,1.258-0.338,1.899-0.391c1.246-0.107,2.085-0.918,2.652-1.937
		c1.575-2.842-0.558-5.681-2.231-7.711c-0.962-1.168-1.899-2.478-2.677-3.765c-0.112-0.182-0.491-0.6-0.416-0.819
		c0-0.033-4.132-6.367-5.326-9.522c-0.061-0.168-0.407-0.236-0.301-0.392c0.765-1.096,4.682-1.076,4.825-1.302
		c0.424-0.678,1.296,4.484,1.461,4.759c0.714,1.196,0.472,0.879,0.619,2.381c0.181,0.892,0.812,2.841,0.881,2.961
		c0.156,0.427,0.312,0.854,0.468,1.279c0.265,0.771,0.703,1.819,1.155,2.489c0.468,0.695,0.848,1.429,1.386,2.082
		c1.676,2.035,3.84,3.304,6.366,3.851c2.616,0.562,6.802-0.219,8.65-1.791c0.544-0.465,0.681-1.36,1.082-1.672
		c0.251-0.199,0.58-0.188,0.867-0.308c0.573-0.244,0.976-0.526,1.422-0.987c0.58-0.724,1.16-1.447,1.74-2.173
		c0.181-0.256,0.37-0.676,0.688-0.786c0.324-0.117,0.474,0.44,0.572,0.618c1.16,2.154,3.631,2.171,6.104,2.171
		c0.745-0.064,1.907-0.566,5.846-0.443c0.759,0.021,1.294-0.733,1.918-1.162c0.03,0,0.059,0,0.089,0
		c0.619,0.453,1.263,1.097,1.981,1.378c0.357,0.116,0.711,0.231,1.068,0.348c0.212,0.033,0.424,0.063,0.636,0.096
		c0.273,0.088,1.4,0.543,4.919-1.207c0.917-0.471,1.869-1.129,2.624-1.883c0.304-0.379,0.605-0.762,0.906-1.141
		c0-0.027,0-0.06,0-0.09c0.173,0,0.433,0.233,0.536,0.356c0.031,0,0.059,0,0.089,0c0,0.83,1.305,1.737,2.142,1.519
		c0,0.256,1.205,0.071,1.428,0.084c0.463,0.021,1.012-0.195,1.438-0.3c1.249-0.312,2.489-0.635,3.747-0.873
		c0.859-0.164,1.693-0.223,2.571-0.312c0.362-0.072,0.725-0.148,1.087-0.221c0.285-0.05,0.565-0.104,0.852-0.152
		c0.609-0.227,0.992-0.619,1.458-1.082c0-0.23,0.162,0.137,0.182,0.176c0.478,0.975,1.144,1.846,2.061,2.479
		c1.707,1.174,4.176,0.9,6.317,1.219c1.314,0.193,2.614,0.556,3.935,0.748c0.903,0.138,1.879,0.361,4.519,1.437
		c0.562,0.229,2.402,1.285,2.979,1.17c0.267,0,0.34-0.057,0.535,0.091c0,0.168,0.493,0.045,0.625,0.028
		c0.552-0.08,1.162-0.377,1.53-0.812c0.258-0.309,0.703-1.252,1.14-1.155c0.038,0.045,1.301,0.575,2.893,0.444
		c1.659-0.133,4.433,0.006,6.214,0.177c2.895,0.274,6.258,1.329,8.519,2.899c1.089,0.756,2.541,2.354,3.812,2.625
		c0.678,0.144,1.441,0.053,2.021-0.229c0.215-0.137,0.427-0.273,0.642-0.41c0-0.148,0.054-0.09,0.179-0.09
		c0,0.111,0.783,0.664,0.849,1.01c0.063,0.363-0.031,0.697,0.125,1.02c0.469,0.976,1.291,1.738,2.191,2.324
		c0.302,0.25,0.6,0.498,0.899,0.748c0.94,0.457,1.88,0.91,2.82,1.369c0.613,0.121,1.224,0.244,1.837,0.367
		c0.781,0.229,1.648,0.424,2.521,0.467c0.525,0.021,1.18,0.051,1.679-0.045c0.329-0.068,0.621-0.271,0.986-0.225
		c0.37,0.045,0.684,0.52,1.016,0.688c0.457,0.229,1.321,0.262,1.852,0.287c6.188,0.289,11.328-3.695,13.79-8.838
		c0.488-1.023,0.831-2.424,1.079-3.555c0.078-0.363,0.078-0.729,0.212-1.062C448.792,374.262,448.702,374.17,448.667,374.072
		L448.667,374.072L448.667,374.072z M315.654,363.93c-0.287,1.037-0.52,0.58-0.611,0.396c-0.288-0.584-0.22-1.646-0.271-1.712
		c-0.315-0.424-0.162-3.509-0.156-4.186c-0.164-0.328-0.49-0.889-0.63-1.03c0-0.428,0.535-1.156,0.604-1.699
		c0.086-0.689,0.006-1.397,0.021-2.139c0.03-0.683,0.059-1.369,0.089-2.053c0.212-0.432,0.354,0.775,0.424,0.99
		c0.192,0.61,0.745,4.606,0.688,5.351C315.715,358.744,316.122,362.221,315.654,363.93L315.654,363.93L315.654,363.93z
		 M342.096,351.953c-0.146,0-0.278,0.282-0.41,0.368c-0.247,0.117-0.498,0.231-0.75,0.346c-0.268,0.031-0.535,0.059-0.803,0.089
		c-0.317,0-0.652,0.037-0.893,0.179c-0.391,0-0.765-0.111-0.792-0.533c-0.064-0.887,1.411-0.678,2.039-0.745
		c0.329-0.078,0.654-0.159,0.983-0.24c0.221,0.117,0.389,0.22,0.536,0.447C342.123,351.865,342.096,351.833,342.096,351.953
		L342.096,351.953L342.096,351.953z M353.964,363.465c0,0.031,0,0.059,0,0.088c-0.12,0-0.089,0.029-0.089-0.088
		c-0.285,0-0.488-0.318-0.728-0.418c-0.608-0.258-2.58-0.826-3.057-1.145c-0.491-0.32,0.136-0.629,0.214-0.848
		c1.599,0,2.694-1.353,3.928-2.142c0.167,0.081,0.361-0.067,0.364,0.379C354.594,359.797,354.204,363.189,353.964,363.465
		L353.964,363.465L353.964,363.465z M375.454,354.438c-0.499,0.396-1.003,0.805-1.45,1.302c-0.854,0.935-2.925,8.086-3.195,8.209
		c-0.239,0.105-1.205,3.205-1.587,2.398c-0.233-0.498-0.221-2.054-0.368-3.214c-0.247-1.963-0.087-2.635-0.646-3.507
		c-1.133-0.594,0.302-1.397,0.302-1.428c0.026-0.565-0.021-0.733-0.013-0.895c0.067-1.487-0.158-7.789,0.814-7.493
		c1.441,0.335,5.529,1.512,6.198,2.877c0.229,0.469,0.034,1.149,0.137,1.673C375.527,354.362,375.529,354.374,375.454,354.438
		L375.454,354.438L375.454,354.438z M397.844,343.651c-0.068,0.539-0.143,1.074-0.212,1.609c-0.017,0.513,0.025,1.021-0.045,1.514
		c-0.083,0.895-0.167,1.788-0.25,2.682c-0.224,1.47-0.424,2.931-0.758,4.359c-0.377,1.581-1.145,4.11-1.298,5.733
		c-0.027,0.285-0.311,0.346-0.485,0.5c-1.043,0.902-1.18,2.146-1.18,2.146l-6.856-0.477c0,0,0.206-0.725,0.319-1.135
		c0.231-0.812,0.096-2.169,0.754-2.622c0.187-0.128,0.726-1.328,0.884-1.689c1.071-2.471,2.278-3.753,3.847-5.979
		c0.907-1.296,2.065-2.409,2.604-3.884c0.224-0.62,0-1.567-0.347-2.039c-0.23-0.314-0.567-0.644-0.523-1.073c1.16,0,2.32,0,3.479,0
		c0,0.031,0,0.059,0,0.09C397.922,343.387,397.855,343.532,397.844,343.651L397.844,343.651L397.844,343.651z M424.244,368.232
		c-0.33,0.162-0.658,0.324-0.988,0.485c-0.672,0.392-1.446,0.912-2.277,0.992c0-1.463-0.129-2.155-1.449-2.724
		c-0.269-0.116-0.747-0.211-0.909-0.491c-0.176-0.306,0.758-2.445,1.021-2.675c0-0.028,0-0.059,0-0.09
		c0.476,0.228,0.544,0.556,0.855,0.935c0.391,0.476,0.76,0.937,1.223,1.354c0.334,0.306,2.654,1.787,2.677,1.861
		C424.438,368.041,424.364,368.148,424.244,368.232L424.244,368.232L424.244,368.232z M433.025,374.887c0,0.031,0,0.059,0,0.09
		c-0.09,0-0.18,0-0.269,0c-0.117,0-0.237,0-0.356,0c0,0.146-0.494,0.008-0.624-0.016c-0.781-0.141-1.585-0.498-2.155-1.051
		c-0.912-0.881-1.749-2.609-0.434-3.484c0.322,0.16,1.638,0.746,1.784,0.98c0.425,0,0.849,0.385,1.19,0.574
		c0.529,0.293,1.139,0.582,1.581,1.024C434.578,373.842,433.909,374.609,433.025,374.887L433.025,374.887z"/>
	<path fill="#FFFFFF" d="M289.337,326.906l8.921,14.125l33.962,0.042c0,0,11.361-3.035,15.17-0.269
		c0.165-0.042,0.55-0.41,0.904-0.479c0.499-0.104,0.959,0.07,1.414,0.123c1.068,0.117,2.097,0.179,3.215,0.179
		c0.326-0.031,0.655-0.059,0.981-0.089c0.275-0.112,0.654-0.09,0.98-0.09c0.209-0.03,0.418-0.059,0.625-0.089
		c0.209-0.03,0.418-0.058,0.625-0.089c0.541-0.334,1.437-0.529,2.139-0.519c0.426,0.005,0.824,0.14,1.242,0.042
		c1.191-0.382,2.382-0.764,3.572-1.149c3.467-1.291,10.591-1.277,13.636-0.452c0.479,0.165,0.96,0.332,1.438,0.496
		c0.341,0.202,0.681,0.402,1.021,0.6c0.3,0.081,0.623,0.006,0.954,0.011c0.386,0.039,0.771,0.078,1.154,0.117
		c0.98,0.262,1.963,0.524,2.945,0.783c0.304,0.089,0.606,0.182,0.908,0.271c0.618,0.084,1.188-0.256,1.856-0.156
		c0.84,0.237,2.516,0.709,2.516,0.709l37.819-0.05l8.586-14.041L289.337,326.906L289.337,326.906z"/>
	<path fill="#9CCB40" d="M392.366,365.348c-0.275-0.361-0.909-0.416-1.366-0.518c-0.421-0.094-0.778-0.164-0.684-0.15
		c-3.517-0.504-5.642-0.168-7.325,0.394c-1.229,0.411-1.631,1.188-1.979,1.573c-0.229,0.254-0.76,0.334-0.728,0.027
		c0.175-1.129,1.572-1.916,2.335-2.752c0.922-1.016,3.046-4.903,1.711-6.115c-0.398-0.363-0.904-0.79-1.461-0.823
		c-0.804-0.054-1.448,0.546-2.019,0.987c-0.172,0.131-2.309,3.498-1.945,1.456c0.171-0.46,1.379-1.378,1.379-1.498
		c0.13-0.126,0.376-0.296,0.429-0.62c0.047-0.285-0.657-0.583-0.072-0.719c0.06-0.009,0.117-0.014,0.174-0.022
		c0.293-0.044,0.588-0.111,0.777-0.342c0.34-0.427,0.074-1.055,0.066-1.602c-0.012-0.546,0.045-1.193,0.203-1.667
		c0.98-2.956,1.396-0.396,2.104-4.016c0.132-0.265,1.146,0.156,0.168,1.843c-0.194,0.299-0.251,0.379-0.413,0.706
		c-0.408,0.816-1.388,2.613-1.227,3.572c0.072,0.449,0.421,0.845,0.694,1.195c0.313,0.408,0.85,0.837,1.381,0.868
		c0.429,0.022,0.669-0.121,0.95-0.382c0.176-0.276,0.351-0.552,0.526-0.831c0.593-1.04,1.19-2.08,1.784-3.124
		c1.166-1.965,2.827-3.675,3.936-5.672c0.23-0.423,0.406-1.062,0.209-1.55c-0.322-0.792-4.965-2.351-5.981-2.335
		c-0.362,0.006-0.615-0.036-0.851,0.221c-0.634,0.678,0.053,3.974-1.291,3.857c-0.132-0.488,0.325-1.152,0.341-1.788
		c0.05-2.415-0.377-2.398-2.024-2.897c-0.598-0.181-0.829-0.268-1.688-0.452c-0.644,0.108-0.578,0.455-0.674,0.868
		c-0.027,0.351-0.053,0.702-0.081,1.053c-0.095,1.191-0.194,2.379-0.383,3.486c-0.038,0.357-0.076,0.714-0.118,1.071
		c-0.281,1.06-0.454,2.209-0.682,3.288c-0.129,0.602-0.298,1.244-0.457,1.866c-0.078,0.29-0.208,0.485-0.218,0.828
		c-0.021,0.703,0.631,1.01,0.631,1.512c-0.577-0.073-1.146-0.095-1.549,0.323c-1.109,1.141-1.491,2.809-1.876,4.306
		c-0.326,1.256-0.812,2.445-1.271,3.645c-0.349,0.775-0.696,1.553-1.046,2.328c-0.215,0.445-0.525,0.795-0.654,1.275
		c-0.11,0.41-0.084,1.01,0.158,1.346c0.753,1.051,4.796,1.051,6.225,1.225c0.99,0.168,1.979,0.338,2.968,0.506
		c1.479,0.31,2.872,0.728,4.28,1.174c0.896,0.281,2.892,1.468,3.73,1.236c1.087-0.301,1.812-2.414,2.146-3.356
		c0.46-1.312-1.364-1.99-2.305-1.96c-0.438,0.013-1.034,0.265-1.44,0.312c-0.734,0.082-3.207,0.156-3.363-0.6
		c0.005-0.365,0.182-0.322,0.312-0.326c0.657,0.312,1.021,0.256,1.807,0.256c0.257-0.049,1.162-0.211,2.113-0.268
		c0.224-0.014,0.057-0.078,0.054-0.121c-1.18-0.102-1.931,0.154-1.931,0.01c-0.152-0.111-0.22-0.248,0.096-0.363
		c0.75-0.344,1.118-0.309,1.721-0.238c0.896,0.082,1.18,0.597,2.197,0.435c0.243,0.021,0.736-1.617,1.104-1.328
		c0.37,0.722-0.036,1.404-0.524,1.562c-0.475,0.154-0.612,0.242-0.504,0.457c0.187,0.357,0.717,0.234,0.983,0.156
		C392.634,367.932,392.927,366.082,392.366,365.348L392.366,365.348L392.366,365.348z M376.209,363.91
		c-0.242,0.568-0.511,1.512-0.429,2.164c0.103,0.891-0.408,0.598-0.408,0.67c-0.281-0.506-0.657-1.59,0.979-4.209
		c0.034-0.244,0.108-0.393,0.158-0.4C377.562,362,376.436,362.982,376.209,363.91L376.209,363.91L376.209,363.91z M379.614,367.945
		c-0.215,0.328-0.511,0.287-0.672,0.223c-0.826-1.219-0.019-2.209,0.688-3.262c0.162-0.246,0.209-0.754,0.653-0.822
		c1.904,0.008-0.333,1.52-0.637,2.309C379.453,366.895,379.614,367.367,379.614,367.945L379.614,367.945z"/>
	<path fill="#9CCB40" d="M326.525,360.346c-0.072-0.729-0.688-1.466-1.438-1.173c-0.314,0.198-0.63,0.399-0.949,0.597
		c-0.555,0.288-1.072,0.6-1.519,1.082c-0.279,0.295-0.43,0.653-0.639,0.979c-0.553,0.879-0.093,1.707-0.413,1.987
		c-0.09,0-0.179,0-0.269,0c-0.481-1.604-0.095-2.895,1.246-3.66c1.598-0.912,1.043-0.934,0.09-0.399
		c-0.533,0.291-0.851,0.613-0.979,0.402c-0.53-0.901-1.453-1.963-0.536-1.963c0.569,1.232,2.365,0.536,3.479,0.536
		c0.55-0.276,1.062-0.107,1.429-0.714c0.98-1.656-0.18-10.571-1.119-11.927c-0.496-0.716-1.112-0.895-2.004-0.922
		c-0.207,0.148-0.41,0.295-0.616,0.443c-0.21,0.362-0.418,0.725-0.631,1.087c-0.51,0.608-1.28,1.08-1.492,1.866
		c-0.17,0.622-0.081,1.296-0.188,1.96c-0.038,0.236,0.067,0.686-0.432,0.546c-0.728-0.207-0.296-2.448,0.39-3.728
		c0.231-0.375,0.466-0.748,0.697-1.124c0.053-0.109,0.218-0.427,0.04-0.427c-0.368-0.184-0.723-0.02-1.08,0.053
		c-1.072,0.211-3.176,0.649-3.401,1.92c-0.167,0.927,0.475,2.362,0.684,3.216c0.465,1.91,0.812,3.898,1.01,5.965
		c0.229,2.409,0.099,4.985-0.165,7.313c-0.105,0.617-0.209,1.236-0.314,1.853c-0.131,0.396-0.26,0.793-0.391,1.186
		c-0.104,0.257-0.207,0.517-0.312,0.771c-0.102,0.115-0.527,0.781-0.658,1.06c-0.198,0.263-0.393,0.5-0.591,0.785
		c-0.148,0.235-0.839,1.715-0.862,2.037c-0.053,0.577,0.104,0.877,0.104,1.325c-0.031,0-0.06,0-0.089,0c0,0.031,0,0.062,0,0.089
		c-0.153-0.041-0.362,0.366-0.664-0.226c-0.431-1.002,0.716-2.727,1.144-3.494c0.147-0.271,0.362-0.649,0.32-1
		c-0.072-0.586-0.938-0.707-1.33-0.996c-0.418-0.307-0.726-0.797-0.876-1.252c-0.301-0.903-0.49-1.957-0.619-2.942
		c-0.111-0.832-0.318-5.033-0.636-5.362c-0.485-0.501-1.397-0.287-2.027-0.513c-0.335-0.123-0.652-0.212-0.993-0.337
		c-0.242-0.089-0.384-0.17-0.744-0.385c-0.239-1.137,1.492,0.633,2.231,0.268c0.142-0.025,0.287-0.047,0.429-0.073
		c0.41-0.086,0.862-0.421,1.096-0.783c0.248-0.391,0.143-0.982,0.189-1.464c0.137-1.453,0.273-2.877,0.346-4.373
		c0.025-0.558,0.096-1.158-0.071-1.676c-0.104-0.315-0.389-0.541-0.687-0.65c-0.912-0.337-2.041,0.047-2.899,0.226
		c-0.647,0.131-1.414,0.384-1.896,0.839c-0.887,0.825-0.653,3.505-0.393,4.64c0.137,0.538,0.314,1.018,0.471,1.812
		c0.011,0.287-0.979-0.649-1.358-0.1c-1.999,3.447-2.895,1.756-1.907,1.391c0.585-0.465,0.831-0.706,1.171-1.347
		c1.107-2.108,2.142-7.301-2.089-6.166c-0.739,0.194-1.617,0.259-2.175,0.803c-0.26,0.249-0.46,0.625-0.413,1.012
		c0.081,0.7,0.426,1.283,0.691,1.905c0.292,0.773,0.585,1.548,0.878,2.32c0.335,1.216,0.669,2.432,1.004,3.648
		c0.251,1.168,0.271,3.086,1.087,3.93c0.295,0.307,0.706,0.498,1.166,0.467c0.435-0.029,2.684-1.027,2.684-1.275
		c0.03,0,1.185-1.355,1.7-1.383c0.681-0.062-0.526,0.734-1.625,1.787c-1.796,1.723-3.025,1.117-3.382,2.473
		c-0.189,0.705,0.265,2.744,0.433,3.461c0.901,3.865,3.444,7.578,7.607,8.316c0.984,0.129,1.907,0.068,2.765,0.068
		c0.735-0.119,1.347-0.123,2.052-0.357c1.692-1.031,2.85-0.916,2.912-4.102c0.003-0.17-0.104-0.113-0.117-0.586
		c0-0.265,0.223-0.191,0.33-0.041c0.25,0.405,0.301,1.053,0.752,1.321c0.75,0.445,1.542-0.553,1.936-1.043
		c0.26-0.305,0.52-0.608,0.775-0.916c1.5-2.356,2.019-5.217,2.454-8.104C326.442,362.309,326.606,361.189,326.525,360.346
		L326.525,360.346L326.525,360.346z M307.2,354.448c-0.12-0.192-0.24-0.382-0.359-0.574c-0.112-0.645-0.221-1.286-0.332-1.93
		c-0.011-0.056-0.002-0.388,0.246-0.529c0.117,0,0.234-0.031,0.234,0.089c0.195,0.488,0.003,1.074,0.118,1.606
		c0.086,0.407,0.175,0.541,0.474,1.054C307.917,354.505,307.421,354.448,307.2,354.448L307.2,354.448L307.2,354.448z
		 M308.628,363.373c0.669,0-1.913,0.301,0.87-1.627c0.6-0.42,0.848-1.082,1.093-1.765c0.025-0.128,0.092-0.215,0.269,0
		C310.527,362.043,309.4,362.715,308.628,363.373L308.628,363.373L308.628,363.373z M319.785,353.208
		c0.691-0.142,1.584,1.771,1.158,2.312c-0.389-0.042-0.524-0.524-0.524-0.887C319.958,354.332,319.56,353.247,319.785,353.208
		L319.785,353.208L319.785,353.208z M322.376,372.143c-0.485,0.148-1.124,0.195-1.537-0.125c-0.337-0.264-1.55-3.637-1.521-4.182
		c0.017-0.375,0.194-0.691,0.376-0.982c1.326-1.68,1.234-0.803,0.362,0.027c-0.487,0.461-0.337,0.867-0.251,1.209
		c0.188,0.482,0.376,0.967,0.563,1.447c0.249,0.877,0.249,2.992,1.799,2.357c0.167-0.07,0.917-0.437,0.917-0.58
		c0.059,0,0.12,0,0.178,0C323.143,371.818,322.842,371.996,322.376,372.143L322.376,372.143z"/>
	<path fill="#9CCB40" d="M419.778,349.275c-0.047-0.301-0.17-0.602-0.427-0.78c-0.53-0.368-1.226-0.407-1.859-0.555
		c-0.979-0.229-1.925-0.508-2.94-0.653c-1.293-0.19-3.058-0.784-4.448-0.455c-0.973,0.226-1.184,1.442-1.806,1.369
		c-0.362-0.039-0.546-1.062-0.75-1.302c-0.245-0.287-0.538-0.505-0.87-0.61c-1.73-0.563-3.765-0.463-5.594-0.809
		c-0.062-0.014-0.562,0.05-0.628,0.033c-0.363,0.165-0.278,0.209-0.382,0.65c-0.168,0.7-0.141,1.467-0.172,2.214
		c-0.137,1.335-0.268,2.671-0.4,4.007c-0.199,1.16-0.4,2.323-0.604,3.483c-0.159,0.789-0.524,1.642-0.524,2.51
		c0,0.906,0.104,1.598,0.851,2.103c0.229,0.131,0.443,0.137,0.673,0.268c0.068,0.059,0.245,0.24,0.143,0.398
		c-0.798,0.608-2.136-1.087-2.552-0.34c-0.209,0.368-0.44,0.848-0.591,1.229c-2.08,7.521-2.896,8.239-2.735,9.063
		c0.136,0.707,3.128-0.774,3.973-1.768c0.431-0.533,1.196,0.359,0.452,0.613c-0.324,0.234-0.488,0.363-0.69,0.516
		c-0.841,0.629-1.142,0.996-2.164,1.322c-0.15,0.051-0.144,0.039-0.47,0.154c-0.244,0.297,0.141,0.483,0.305,0.483
		c-0.012-0.039,6.493,0.086,5.063,0.041c0.705,0.022,1.414,0.045,2.119,0.063c2.178,0.293,4.172,0.841,6.077,1.662
		c0.516,0.224,0.944,0.521,1.438,0.779c0.521,0.314,1.043,0.629,1.562,0.941c0.729,0.564,1.63,1.889,2.704,1.512
		c1.111-0.396,3.431-5.449,3.634-6.654c0.066-0.406,0.05-0.869-0.229-1.141c-0.5-0.482-2.987-1.176-3.748-1.211
		c-0.47-0.025-0.936,0.174-1.334,0.309c-0.149,0.047-0.388,0.213-0.624,0.357c-0.398,0.197-0.563,0.355-0.893,0.355
		c-0.143-0.025-0.317-0.025-0.232-0.355c0.159-0.395,0.727-0.127,0.604-1.193c-0.098-0.104-0.271-0.236-0.369-0.338
		c-0.56-0.207-1.255-0.193-1.871-0.287c-0.896-0.141-2.746-0.672-3.641-0.422c-1.588,0.436-1.053,1.348-1.892,1.412
		c-0.144-0.004-0.368-0.088-0.281-0.246c0.426-0.787,0.97-0.912,1.619-2.762c0.165-0.471-0.105-1.137,0.105-1.617
		c0.193-0.43,0.176-0.848,0.156-0.922c-0.321-1.186,0.77-1.844,1.441-1.779c0.61,0.047,0.534,0.34,0.215,0.551
		c-0.179,0.121-0.476,0.096-0.666,0.283c-0.308,0.297-0.354,0.781-0.267,1.131c0.159,0.625,0.661,0.973,1.229,1.207
		c0.681,0.279,1.57,0.246,2.322,0.371c1.91,0.318,3.759,0.951,5.809,0.951c0.402-0.076,0.592-0.428,0.809-0.77
		c0.422-0.672,2.41-4.918,1.675-5.5c-0.444-0.348-3.977-0.951-4.501-0.635c-0.702,0.418-1.05,2.267-1.533,1.509
		c-0.111-0.497,0.456-1.314,0.245-1.732c-0.376-0.739-4.292-0.483-5.174-0.466c-0.229,0.003-1.015,0.051-1.395-0.019
		c-0.153,0.014-0.24-0.645-0.006-0.7c0.044-0.245,0.981-0.187,1.461-0.34c0.623-0.206,0.569-3.575,0.611-4.434
		c0.012-0.262-0.022-0.809,0.228-0.713c0.232,0.114,0.779,1.943,1.565,2.44c0.472,0.298,0.988,0.359,1.543,0.504
		c1.326,0.349,2.624,0.628,4.018,0.89c0.781,0.145,1.791,0.736,2.627,0.32c0.276-0.139,0.556-0.427,0.687-0.7
		c0.271-0.577,0.341-1.233,0.475-1.874c0.23-0.954,0.463-1.908,0.691-2.862C419.714,349.979,419.837,349.667,419.778,349.275
		L419.778,349.275L419.778,349.275z M405.715,370.689c0.963-0.203,1.152-0.558,1.713-0.51
		C407.456,371.105,405.261,371.188,405.715,370.689L405.715,370.689L405.715,370.689z M405.001,371.314
		c0.595-0.189,1.062-0.097,1.593-0.144c1.174-0.246,2.305-0.735,3.229-1.463c0.208-0.074,0.493-0.125,0.384,0.321
		c-0.134,0.521-4.124,2.472-5.173,1.871C404.862,371.805,404.843,371.434,405.001,371.314L405.001,371.314L405.001,371.314z
		 M400.306,366.756c-0.338-0.045,0.156-0.695,0.603-1.469c0.18-0.311,0.47-0.498,0.482-1.254c0.002-0.24-0.081-0.592,0.3-0.488
		C402.602,363.82,401.098,366.756,400.306,366.756L400.306,366.756L400.306,366.756z M403.128,361.766
		c0.086,0.443,0.076,1.133-0.012,1.584c-0.015,0.617-0.654,2.566-1.148,2.789c-0.418,0.185-0.497,0.07,0.314-1.533
		c0.275-0.774,0.207-1.953,0.045-2.797c-0.242-1.25-2.038,0.082-1.644-1.008c0.159-0.236,0.377-0.033,1.166-0.845
		c0.365-0.43,0.986-1.498,1.313-1.325c0.819,0.285-0.312,0.407-0.433,1.615C402.682,360.715,403.128,361.326,403.128,361.766
		L403.128,361.766L403.128,361.766z M405.029,356.632c-0.535,0.692-1.438,0.92-2.083,1.47c-0.616,0.52-1.429,1.797-2.147,1.922
		c-0.304,0.044-0.513-0.042-0.438-0.042c-0.129-0.079-0.108-0.195,0.027-0.29c0.289-0.159,0.642-0.204,0.93-0.362
		c0.469-0.438,0.522-1.068,0.994-1.537c0.309-0.204,0.739-0.421,1.047-0.625c0.546-0.429,0.842-0.842,1.452-1.243
		c0.03,0,0.362-0.047,0.391-0.047C405.71,356.071,405.205,356.4,405.029,356.632L405.029,356.632L405.029,356.632z M409.821,353.2
		c-0.85-0.338-1.202-1.113-1.25-1.874c-0.057-0.273,0.167-0.343,0.296-0.217c0.254,0.245,0.618,1.308,0.985,1.645
		C410.3,353.155,410.501,353.395,409.821,353.2L409.821,353.2L409.821,353.2z M417.411,355.101c-0.332,0.17-0.742,0.114-0.987-0.028
		c-0.236-0.454,0.382-0.454,0.73-0.616c0.714-0.318,0.535-1.628,0.977-1.573C418.607,353.088,417.896,354.85,417.411,355.101
		L417.411,355.101z"/>
	<path fill="#9CCB40" d="M303.748,379.812c-0.167-0.258-0.332-0.515-0.499-0.773c-0.583-1.027-1.358-1.898-2.055-2.865
		c-0.981-1.357-1.827-2.791-2.842-4.117c-0.351-0.604-0.703-1.211-1.057-1.815c-0.625-1.021-1.375-1.951-1.854-3.043
		c-0.803-1.814-1.241-2.604-1.408-2.699c-1.64-0.015-0.538,2.416-1.646,2.086c0.022-0.758,0.312-1.242,0.468-1.894
		c0.315-1.342-0.123-2.891-0.984-3.75c-0.265-0.266-0.717-0.692-1.09-0.692c-0.117-0.141-0.092-0.35-0.034-0.42
		c0.059-0.07,0.229,0.081,0.446-0.025c1.818-0.881,5.457-2.855,6.28-2.855c0.268-0.031,0.536-0.059,0.803-0.09
		c0.376-0.189,0.823-0.103,1.087-0.496c0.497-0.748-0.602-3.433-1.444-3.461c-0.748-0.062-2.052,1.341-2.097,0.403
		c0.638-0.354,0.97-0.516,1.196-0.816c1.442-1.943-0.652-4.211-2.61-4.331c-0.806-0.1-1.478,0.211-2.722,0.883
		c0.262-0.145-6.749,4.496-7.613,6.333c-0.324,0.687-0.006,1.537,0.385,2.095c0.574,0.823,1.606,1.297,2.496,1.573
		c0.46,0.142,1.238,0.182,1.618,0.485c0.162,0.131,0.131,0.544-0.011,0.675c-0.332,0.293-1.648,0.684-1.746,0.283
		c-0.092-0.372-0.011-0.612-0.301-0.863c-0.703-0.569-1.266-0.926-1.721-1.325c-0.672-0.538-1.222-1.434-2.139-1.492
		c-0.945-0.062-2.51,1.469-3.252,2.066c-0.123,0.097-0.34,0.396-0.49,0.396c-0.661,0.641-0.452,0.507-1.355,1.133
		c-1.292,0.887-2.426,2.182-3.91,2.702c-1.28,0.442-2.278,0.252-3.33,0.391c-0.391,0.051-0.625,0.209-0.717,0.621
		c-0.137,0.588,0.332,1.062,0.692,1.447c2.016,2.147,3.907,2.362,6.924,2.362c0.209-0.03,0.536-0.045,0.742-0.076
		c0.741-0.122,0.951-0.204,1.221-0.28c0.644-0.314,1.288-0.631,1.929-0.945c1.311-0.762,2.797-1.949,3.544-3.32
		c-0.05,0.094,0.41-0.846,0.583-0.832c0.613,0.031-0.594,0.73-0.388,2.588c0.05,0.49,0.302,0.898,0.511,1.336
		c0.454,0.961,0.887,1.935,1.344,2.896c0.552,1.225,1.104,2.451,1.654,3.676c0.178,0.332,0.907,0.686,0.942,0.807
		c0.106,0.354-0.209,0.767-0.125,1.174c0.848,2.427,1.695,4.853,2.541,7.275c0.287,0.914,0.574,1.83,0.861,2.74
		c0.173,0.682,0.301,1.551,0.776,2.078c0.345,0.385,0.803,0.516,1.355,0.516c0.034-0.016,0.069-0.033,0.103-0.051
		c1.52-0.633,3.338-1.77,3.804-3.523c0.086-0.33-0.05-0.756-0.103-1.061c-0.073-0.385-0.945-2.334-1.088-2.662
		c-0.142-0.209-0.284-0.416-0.429-0.625c-0.148-0.299-0.295-0.594-0.446-0.893c-0.321-0.449-0.641-0.896-0.962-1.344
		c-0.541-0.541-1.199-1.929-3.288-3.23c-0.429-0.264-1.004-0.387-1.503-0.49c-0.652-0.139-0.46-0.443-0.295-0.533
		c1.062,0.258,1.757,0.006,1.405-1.041c-0.117-0.342,0.037-0.365,0.037-0.342c0.097-0.119,0.229-0.117,0.315,0.256
		c0.033,0.082,0.067,0.168,0.098,0.252c0.822,1.734,2.557,3.021,3.636,4.615c0.675,0.998,1.299,2.02,1.788,3.109
		c0.362,0.811,0.75,2.32,1.497,2.895c0.053,0.039,0.106,0.078,0.16,0.117c0.047,0.033,0.095,0.07,0.139,0.104
		c1.101,0.732,2.766,0.054,3.566-0.77C303.751,381.705,304.105,380.723,303.748,379.812L303.748,379.812L303.748,379.812z
		 M287.256,358.419c-0.7-0.067-1.589-0.314-1.562-1.026c0.444-0.251,0.405,0.214,0.7,0.234
		C287.616,357.692,287.923,358.177,287.256,358.419L287.256,358.419L287.256,358.419z M283.656,363.148
		c-0.084-0.172,0.212-0.146,0.513-0.367c0.535-0.402,0.937-1.383,0.965-2.164c-0.218-0.687-0.268-0.803,0.114-0.993
		c0.513,0.157,0.418,0.634,0.416,1.052C285.653,361.242,284.404,363.52,283.656,363.148L283.656,363.148L283.656,363.148z
		 M285.784,363.818c0,0.119,0,0.24,0,0.356c-0.231,0.357-0.452,0.06-0.446-0.09c0.15-1.756,1.539-2.86,1.562-2.289
		C286.738,362.586,285.784,363.174,285.784,363.818L285.784,363.818L285.784,363.818z M295.064,353.913
		c-0.268,0.478-1.09,0.809-1.428,1.518c-0.583,0.108-0.789,0.028-0.625-0.447C295.022,352.898,294.981,353.673,295.064,353.913
		L295.064,353.913L295.064,353.913z M289.828,357.943c-0.232,0.069-0.909-0.022-0.474-0.46c1.04-0.22,1.079-0.488,1.893-1.138
		c0.485-0.675,0.915-1.364,1.4-2.042c0.976-1.119,1.283-0.999,1.378-0.836c-0.198,0.485-0.873,0.939-1.297,1.408
		c-0.664,0.775-1.08,1.612-1.798,2.39C290.329,357.906,289.448,358.001,289.828,357.943L289.828,357.943L289.828,357.943z
		 M292.12,370.064c-0.594,0.549-0.602,0.051-0.639-0.045c0.022-0.773,0.304-0.66,0.463-2.113
		C292.351,367.516,292.223,368.912,292.12,370.064L292.12,370.064L292.12,370.064z M292.028,365.93
		c-0.46,0.387-0.561,0.062-0.622-0.059c0-0.059,0-0.117,0-0.18c0.081-0.178,0.237-0.344,0.357-0.803
		c0.195-0.543,0.159-1.152,0.123-1.763c-0.055-0.256-0.301-0.858-0.301-0.914c-0.204-0.504-0.037-0.476,0.178-0.446
		C292.87,361.77,292.418,364.727,292.028,365.93L292.028,365.93L292.028,365.93z M298.455,380.684
		c-0.164-0.326-0.206-0.705-0.332-1.045c-0.256-0.697-0.691-1.369-1.113-1.979c-0.728-0.938-1.456-1.875-2.186-2.812
		c-0.845-1.033-1.704-1.426-1.813-2.641c0.321-0.344,0.46,0.551,0.762,0.834c2.038,1.916,3.77,3.998,4.635,6.641
		c0.103,0.316,0.314,0.635,0.314,1.002C298.634,380.684,298.544,380.684,298.455,380.684L298.455,380.684z"/>
	<path fill="#9CCB40" d="M446.014,372.734c-0.103-1.23-0.355-2.363-0.889-3.367c-0.357-0.668-1.331-2.395-2.189-2.426
		c-0.754-0.027-1.339,0.313-1.961,0.549c-0.388,0.135-0.641,0.336-0.813-0.014c0.021-0.713,2.218-0.761,1.921-2.229
		c-0.069-0.351-0.261-0.705-0.54-0.92c-0.485-0.373-0.984-0.58-1.523-0.843c-1.29-0.627-2.587-1.174-3.937-1.678
		c-0.271-0.141-0.542-0.277-0.814-0.416c-0.409-0.137-0.816-0.272-1.227-0.41c-0.503-0.203-2.672-0.723-3.637-1.687
		c-1.381-1.38,0.335-2.756,1.726-2.864c1.895-0.151,3.748,0.443,5.245,1.173c0.514,0.249,1.991,1.127,2.521,1.11
		c1.267-0.047,3.168-3.485,3.438-4.545c0.095-0.379,0.092-0.8-0.095-1.124c-0.763-1.313-4.574-3.106-6.043-3.433
		c-1.513-0.338-3.09-0.639-4.696-0.739c-0.594,0.139-0.661,0.223-0.915,0.479c-0.579,1.325-1.229,3.109-1.734,2.855
		c-0.118-0.031-0.298,0.036-0.31-0.17c0-0.089,0-0.179,0-0.268c0.383-0.363,0.662-0.884,0.681-1.431
		c0.018-0.574-0.293-0.961-0.78-1.129c-2.121-0.733-4.865,1.4-6.168,2.884c-0.826,0.934-2.801,3.856-1.979,5.086
		c0.173,0.26,0.396,0.418,0.71,0.369c0.5-0.073,0.751-0.029,0.768,0.214c0.021,0.343-0.845,0.764-1.016,1.012
		c-0.215,0.305-0.31,0.647-0.367,1.038c-0.356,2.302,1.771,4.222,3.479,5.21c0.491,0.285,0.868,0.748,1.641,0.666
		c1.94-1.783,0.308-2.908-0.12-4.658c-0.23-0.92,0.242-2.404,0.478-2.568c0.201-0.112,0.257-0.014,0.362,0.047
		c0.11,0.455-0.574,1.124-0.422,2c0.123,0.736,0.496,1.197,0.796,1.822c0.146,0.311,0.191,0.664,0.275,1.016
		c0.254,1.111-0.111,2.318,0.385,3.289c0.624,1.217,2.14,1.672,3.308,2.135c0.612,0.32,1.228,0.646,1.838,0.965
		c1.473,0.793,2.863,1.693,3.658,3.244c0.603,1.176,1.025,3.168,0.257,4.435c-0.423,0.456-0.849,0.913-1.274,1.37
		c-0.938,1.5-1.542,0.951-1.5,0.943c0-0.059,0.08-0.324,0.08-0.385c0.996-0.609,2.143-2.279,2.143-3.48c-0.03,0-0.059,0-0.089,0
		c-0.583,0.619-1.169,1.354-1.913,1.707c-0.542,0.252-1.177,0.256-1.835,0.279c-2.628,0.08-5.09-0.973-6.506-3.066
		c-0.401-0.594-0.549-1.422-0.688-2.141c-0.075-0.338-0.02-0.676-0.096-1.012c-0.071-0.15-0.245-0.379-0.4-0.42
		c-0.594-0.15-2.699,0.844-2.719,1.471c-0.021,0.531,0.502,0.965,0.595,1.482c-0.051-0.312,0.562,1.455-0.625,1.465
		c0.564-1.232,0.078-1.791-0.058-2.051c-0.17-0.32-0.354-0.609-0.767-0.574c-0.586,0.051-2.557,1.668-2.956,2.189
		c-0.688,0.891-0.02,3.729,1.049,3.823c0.281-0.135,1.207-1.284,1.486-1.174c0.352,0.137-0.167,0.483-0.2,0.569
		c-0.308,0.732-1.261,1.363-0.972,2.316c0.257,0.844,1.208,1.711,1.968,2.174c0.291,0.131,0.584,0.262,0.874,0.394
		c0.14,0.116,0.282,0.235,0.422,0.353c0.407,0.301,0.854,0.522,1.318,0.723c1.327,0.563,4.598,1.074,5.893,0.162
		c0.577-0.41,0.721-1.183,1.019-1.756c0.069-0.142,0.718-0.937,0.718-0.937c0.39-0.177,0.397,0.078,0.487,0.078
		c-0.096,0.741-0.571,1.041-0.757,1.727c-0.396,1.453,1.707,1.854,2.789,1.854c0.21-0.031,0.418-0.057,0.625-0.088
		c0.59-0.162,1.183-0.322,1.772-0.482c0.983-0.266,1.967-0.744,2.839-1.25C443.758,381.527,446.398,377.373,446.014,372.734
		L446.014,372.734L446.014,372.734z M428.56,362.658c-0.089-0.031-0.179-0.059-0.268-0.09c-0.435-0.748-1.185-1.479-0.893-2.499
		c0.72-0.471,0.427,1.758,1.25,2.23C429.045,362.721,428.654,362.697,428.56,362.658L428.56,362.658L428.56,362.658z
		 M428.769,353.621c-0.492,0.398-0.979,0.643-1.41,1.054c-0.373,0.462-0.682,0.976-1.055,1.439c-0.101,0.109-0.22,0.187-0.314,0.368
		c-0.301,0.622-0.37,0.736-0.642,1.001c-1.82,1.681-2.155,0.566-1.729,0.262c1.146-0.223,1.562-1.076,1.803-1.43
		c1.495-2.85,2.281-2.479,2.87-2.937C428.663,353.136,428.975,353.305,428.769,353.621L428.769,353.621L428.769,353.621z
		 M433.2,379.881c-0.401,0.533-1.032,0.83-1.479,1.371c-0.331,0.396-0.638,0.807-0.887,1.242c-0.312,0.535-0.521,1.139-1.057,1.539
		c-0.295,0.303-0.29-0.068-0.147-0.227c0.842-1.556,1.628-3.187,3.123-4.283C433.382,379.424,433.226,379.738,433.2,379.881
		L433.2,379.881L433.2,379.881z M437.461,369.9c-0.546-0.789-1.643-0.779-2.212-1.26c0.115,0.215-0.286-0.24,0.018-0.572
		c0.394-0.318,1.151,0.399,1.593,0.451c0.325,0.01,0.607,0.114,0.98,0.028c0.209-0.147,0.419-0.297,0.625-0.446
		c0.144-0.17,0.34-0.009,0.34,0.146c0,0.476-0.463,0.959-0.441,1.541c0.042,1.396,1.177,2.041,1.675,3.146
		c0.297,0.668,0.36,1.125-0.162,0.707c-0.288-0.234-0.32-0.701-0.515-0.994c-0.44-0.66-0.965-1.229-1.424-1.877
		C437.779,370.48,437.619,370.189,437.461,369.9L437.461,369.9L437.461,369.9z M440.132,377.602
		c-0.131,0.191-0.373,0.306-0.507,0.494c-0.204,0.051-0.499,0.227-0.356-0.535c0.953-0.547,0.684-1.897,0.804-2.053
		c0.058,0,0.12,0,0.178,0C440.752,375.58,440.451,376.994,440.132,377.602L440.132,377.602z"/>
	<path fill="#9CCB40" d="M377.416,341.602c-0.438-0.829-1.469-0.931-2.301-1.112c0.437,0.109-2.088-0.268-3.768-0.416
		c0.219,0.02-2.48-0.086-3.736,0.095c-1.993,0.285-3.933,0.709-5.729,1.384c-0.735,0.273-1.605,0.446-2.145,1.082
		c-0.604,0.708-0.708,1.688-0.797,2.649c-0.025,0.254,0.136,0.505-0.012,0.946c-0.209,0.089-0.39,0.072-0.507-0.078
		c-0.204-0.851,0.182-2.986,0.12-3.502c-0.028-0.221-0.516-0.274-1.098-0.221c-0.63,0.054-1.104,0.288-1.688,0.453
		c-1.018,0.284-2.228,0.393-3.317,0.448c-0.891-0.053-1.776-0.106-2.666-0.159c-0.354-0.047-0.75-0.262-1.208-0.105
		c-0.829,0.278-0.039,1.611-0.329,2.328c-0.478,0.77-0.929-0.842-1.665-1.475c0.05,0.045-1.606-1.545-5.46-1.419
		c-2.081,0.064-12.59,1.419-13.24,2.613c-0.017,0.031-0.031,0.064-0.047,0.095c-0.006,0.025-0.011,0.05-0.021,0.072
		c-0.149,0.614,0.195,1.311,0.337,1.86c0.189,0.742,0.401,1.571,0.527,2.32c0.109,0.677,0.234,1.392,0.287,2.047
		c0.064,0.848,0.006,2.189,0.466,2.825c0.186,0.251,0.332,0.165,0.625,0.12c0.491-0.212,0.583-0.446,0.828-0.767
		c0.307-0.476,0.613-0.951,0.92-1.428c0.062-0.089,0.086-0.125,0.215-0.125c0.042,0.028,0.502,0.889-1.486,2.872
		c-0.446,0.438-0.945,0.463-1.144,1.155c-0.157,0.535-0.075,1.11-0.056,1.684c0.002,0.652,0.005,1.309,0.008,1.961
		c0.042,0.624,0.084,1.253,0.125,1.875c0.031,1.789-0.061,3.56,0.003,5.355c0.033,1.006-0.028,2.09,0.276,3
		c0.211,0.639,0.625,1.27,1.302,1.5c0.761,0.256,2.989,0.547,3.475-0.269c0.282-0.479,0.159-1.297,0.17-1.912
		c0-0.242,0.123-0.381,0.36-0.18c0.413,1.031,0.562,1.91,1.113,2.131c0.365,0.146,0.858,0.1,1.297,0.1
		c0.504-0.34,1.07-0.397,1.132-1.161c0.104-1.318-0.577-2.017-1.023-3.043c-0.254-0.58-0.466-1.293-0.529-1.949
		c-0.067-0.188-0.134-0.375-0.204-0.563c-0.354-1.543-0.12-3.336-0.52-4.858c-0.139-0.354-0.278-0.709-0.418-1.065
		c-0.215-0.351-0.669-0.747-0.669-1.188c0.031,0,0.062,0,0.089,0c0-0.031,0-0.059,0-0.089c0.243-0.042,0.562,0.075,0.661-0.173
		c0.215-0.541,0.042-1.773,0.064-2.415c0.047-1.601,1.108-4.429-1.354-4.543c-0.173-0.009-0.845,0.134-1.021-0.164
		c-0.188-0.385,1.291-0.295,1.291-0.291c0.477,0.081,0.954,0.162,1.431,0.24c1.428,0.137,3.522-0.105,4.534-0.881
		c0.8-0.616,0.667-1.966,1.007-2.833c0.018-0.044,0.31-0.795,0.566-0.571c0.162,0.117,0.092,0.446-0.295,0.945
		c-0.106,0.137-0.076,0.532-0.047,0.957c0.032,0.539,0.247,1.079,0.451,1.472c0.622,1.208,2.388,1.532,2.12,3.238
		c-0.045,0.226-0.09,0.451-0.134,0.678c-0.739,1.67-2.87,1.687-4.442,2.066c-0.977,0.234-2.292,0.934-2.875,1.802
		c-0.348,0.51-0.463,1.137-0.499,1.807c-0.223,3.992,2.086,7.226,4.6,9.912c1.121,1.199,2.415,2.613,3.965,3.143
		c0.393,0.135,0.89,0.17,1.043,0.004c0.181-0.451-0.326-0.672-0.352-1.158c0.024-0.242-0.083-0.44,0.262-0.649
		c0.63,0.012,0.466,0.95,1.605,0.971c1.67,0.026,3.706-3.129,4.448-4.369c0.206-0.346,0.343-0.565,0.104-1.062
		c-0.179-0.291-1.67-0.164-2.825-0.773c-1.734-0.912-2.802-2.777-4.857-3.111c-0.693-0.114-1.503-0.062-2.021,0.271
		c-0.63,0.401-0.755,0.563-1.004,0.312c0.406-1.535,4.796-2.09,7.22-2.692c2.39-0.755,4.37-2.613,4.624-5.251
		c0.239-2.535-1.397-4.166-2.875-5.842c-0.282-0.251-0.564-0.499-0.848-0.75c-1.256-0.903-1.071-1.006-0.829-1.079
		c0.226,0,1.299,0.742,1.478,0.842c0.613,0.374,1.228,0.748,1.84,1.121c0.398,0.276,0.823,0.598,1.223,0.871
		c0.938,0.463,2.964,0.133,3.728-0.067c1.544-0.561,1.171,0.611,0.962,1.963c-0.128,0.837-0.201,1.648-0.246,2.231
		c-0.021,0.292-0.031,0.558,0.131,0.769c0.302,0.396,1.015,0.391,1.527,0.391c0.614,0.17-0.066,0.714-0.355,0.714
		c-0.444,0.073-1.256,0.079-1.467,0.499c-0.513,1.001-0.299,2.413-0.433,3.601c-0.197,1.701-0.381,3.475-0.658,5.189
		c-0.146,0.9-0.354,1.781-0.382,2.758c-0.017,0.445-0.042,0.934,0.271,1.227c0.852,0.791,2.447,0.234,3.202,0.111
		c2.751-0.828,3.432-0.691,4.908-0.98c0.798-0.24,1.236-0.271,1.588-0.688c0.487-0.595-0.189-3.188-0.32-4.224
		c-0.102-0.778-0.129-1.594-0.349-2.295c-0.165-0.5-0.188-0.686-0.52-0.882c-0.167-0.101-1.023,0.056-2.192-0.093
		c-0.178-0.072-0.134-0.4,0.24-0.425c0.237,0,0.508,0.014,0.801-0.015c0.61-0.139,1.284-0.622,1.678-1.402
		c0.249-0.5,0.271-0.968,0.354-1.571c-0.147,0.832,0.26-2.914,0.335-5.627c0.284-3.095-0.284-2.986-0.562-3.427
		c-0.319-0.695-0.387-1.598-1.073-2.077c-0.672-0.472-3.306-0.104-3.53-0.851c-0.047-0.159,0.064-0.366,0.427-0.337
		c1.113,0.725,2.128,0.12,3.037,0.526c1.171,0.525,1.141,2,2.262,2.619c0.637,0.352,1.408,0.371,2.194,0.446
		c0.783,0.072,1.553,0.229,2.315,0.368c0.923,0.167,1.807,0.452,2.685,0.733c1.119,0.447,1.386,0.688,2.075,0.597
		c0.574-0.588,1.106-4.484,1.315-6.18C377.564,342.7,377.587,341.922,377.416,341.602L377.416,341.602L377.416,341.602z
		 M330.87,354.867c1.168-1.082,1.19-1.104,1.521-1.943c0,0,0.488-0.687,0.467,0.109c-0.022,0.795-0.619,1.238-0.619,1.238
		l-1.592,1.28C330.647,355.55,329.702,355.949,330.87,354.867L330.87,354.867L330.87,354.867z M332.811,371.225
		c-0.111-0.834,0.422,0.137,0.885-1.205c0.134-0.397-0.337-1.17,0.187-1.205C334.356,369.861,334.219,371.225,332.811,371.225
		L332.811,371.225L332.811,371.225z M333.971,360.785c-0.368,0.35-0.494-0.09-0.445-0.09c-0.091-0.646,0.217-2.774-2.012-3.991
		c-0.254-0.139-0.63-0.471-0.935-0.471c-0.323-0.187-0.137-0.304,0.089-0.356C333.082,356.186,333.971,358.473,333.971,360.785
		L333.971,360.785L333.971,360.785z M341.525,345.924c-0.541,0.558-0.778,1.824-0.833,1.885c-0.376-0.053-0.296-0.117-0.296-0.588
		c-0.018,0.01,0.008-0.294,1.634-2.558c0.131-0.187,0.167-0.415,0.349-0.716c0.156-0.26-0.089-0.812,0.352-0.848
		C344.062,343.518,342.008,345.414,341.525,345.924L341.525,345.924L341.525,345.924z M350.034,365.871
		c0.03-0.012,0.17-0.039,0.239,0.041c0.14,0.16,0.385,0.178,0.529,0.207c0.365,0.066,0.475-0.008,0.694,0.002
		c0.555,0.025,0.404,0.668-0.014,1.484c-0.086,0.17-0.159,0.598-0.559,0.406c-0.053-0.294,0.572-1.064-0.083-1.438
		c-0.371-0.207-0.686-0.128-0.855-0.209C349.833,366.225,349.833,365.992,350.034,365.871L350.034,365.871L350.034,365.871z
		 M345.215,368.102c0.658-0.301,1.077,0.611,1.137,1.217c0.028,0.14-0.029,0.226-0.167,0.271c-0.147,0.02-0.116-0.127-0.401-0.521
		c-0.257-0.358-0.678-0.323-0.745-0.489C344.98,368.436,344.997,368.215,345.215,368.102L345.215,368.102L345.215,368.102z
		 M339.186,363.807c-0.2-0.111-0.301-0.152-0.675-0.287c-0.103-0.092-0.078-0.188-0.078-0.326c0.108-0.262,0.359-0.135,0.715-0.178
		c0.836-0.18,0.83-0.305,1.694-0.893c0.341-0.014,0.91,0.041,0.544,0.521c-0.753,0.94-0.677,1.521-0.821,1.977
		C339.774,364.672,339.958,364.127,339.186,363.807L339.186,363.807L339.186,363.807z M342.091,362.658
		c0.812,0.15-0.356,1.148-0.413,1.629c-0.047,0.367-0.103,0.82-0.033,1.219c0.38,0.854,0.464,1.193,0.317,1.24
		c-0.172,0.062-0.34,0.055-0.468-0.207C340.5,365.045,341.358,363.244,342.091,362.658L342.091,362.658L342.091,362.658z
		 M346.732,359.268c-0.117,0.237-0.232,0.207-0.521,0.237c-0.644,0.112-0.923,0.198-1.615,0.326
		c-1.291,0.234-2.541,0.683-3.517,1.544c0.223-0.189-0.903,0.982-0.58,0.025c0.68-1.258,2.473-1.54,4.18-2.03
		C344.811,359.354,346.946,358.403,346.732,359.268L346.732,359.268L346.732,359.268z M357.838,366.699
		c-0.114,0.186-0.29,0.828-0.577,0.828c-0.181-0.109-0.006-0.408,0-0.408c0.31-0.998,0.915-1.879,1.186-2.881
		c0.212-0.812,0.278-1.51,0.532-2.205c0.134-0.133,0.648-0.27,0.513,0.09c-0.126,0.502-0.347,1.322-0.619,3.176
		C358.789,365.832,358.117,366.236,357.838,366.699L357.838,366.699L357.838,366.699z M359.843,365.467
		c-0.119,0.236-0.229,1.088-0.591,0.766c-0.033-0.205,0.114-0.791,0.29-1.108c0.07-0.533-0.1-1.488,0.192-1.554
		C360.456,363.506,360.052,364.719,359.843,365.467L359.843,365.467L359.843,365.467z M363.117,348.835
		c0.615,0.382,0.941,1.272,0.953,2.042c-0.002,0.301-0.033,0.37-0.296,0.359c-0.276-0.039-0.344-0.669-0.529-1.316
		c-0.101-0.192-0.198-0.382-0.298-0.575C362.829,349.184,362.746,348.821,363.117,348.835L363.117,348.835L363.117,348.835z
		 M362.366,349.162c1.485,1.486,0.963,4.158-0.566,5.404c-0.644,0.516-1.461,0.335-0.792-0.118c2.784-1.33,1.235-4.406,1.041-4.653
		c-0.323-0.316-0.507-0.611-0.845-0.834c-0.235-0.156-0.315-0.491-0.093-0.748C361.466,348.052,361.995,348.791,362.366,349.162
		L362.366,349.162z"/>
	<polygon fill="#ED1C24" points="375.616,335.657 376.593,335.656 376.364,333.251 	"/>
	<path fill="#ED1C24" d="M375.043,337.502l-0.1,0.322c0.677,0.089,1.287,0.199,1.781,0.334c0.036,0.012,0.072,0.024,0.108,0.037
		l-0.066-0.694L375.043,337.502L375.043,337.502z"/>
	<polygon fill="#ED1C24" points="328.765,335.732 330.481,335.73 328.765,332.362 	"/>
	<path fill="#ED1C24" d="M289.337,326.873l8.921,14.125l33.962,0.042c0,0,11.361-3.035,15.17-0.269
		c0.165-0.042,0.55-0.409,0.903-0.479c0.5-0.104,0.959,0.07,1.414,0.123c1.068,0.117,2.097,0.179,3.215,0.179
		c0.326-0.031,0.655-0.06,0.981-0.089c0.275-0.112,0.654-0.089,0.981-0.089c0.209-0.031,0.418-0.059,0.625-0.09
		c0.209-0.03,0.418-0.058,0.624-0.089c0.542-0.334,1.437-0.53,2.14-0.519c0.427,0.005,0.824,0.14,1.242,0.042
		c1.175-0.377,2.348-0.753,3.521-1.132c-1.419-0.247-2.504-1.369-2.585-2.74h-0.009v-6.812h2.302l-0.001,6.812
		c0.069,0.381,0.427,0.673,0.862,0.673c0.483,0,0.877-0.361,0.877-0.805l0.02-6.68h2.302v6.812h-0.008
		c-0.051,0.834-0.473,1.573-1.113,2.082c1.053-0.173,2.203-0.287,3.374-0.344l0.186-6.538h-1.658v-2.012h6.116v2.012h-2.019
		l-0.184,6.502c0.386,0.006,0.766,0.018,1.138,0.036l2.655-8.55h3.08l0.936,9.851h-0.685c0.187,0.109,0.372,0.22,0.558,0.328
		c0.301,0.081,0.623,0.005,0.954,0.011c0.387,0.039,0.771,0.078,1.155,0.117c0.98,0.262,1.963,0.524,2.944,0.783
		c0.305,0.089,0.607,0.182,0.908,0.271c0.619,0.084,1.188-0.256,1.857-0.156c0.84,0.237,2.516,0.708,2.516,0.708l37.818-0.05
		l8.587-14.041L289.337,326.873L289.337,326.873L289.337,326.873z M299.829,338.927l-4.57-7.839h-1.718l-1.3-2.012h7.378
		l1.299,2.012h-2.683l4.402,7.839H299.829L299.829,338.927L299.829,338.927z M305.728,338.927l-4.935-9.851h6.053l0.947,2.012
		h-3.296l0.831,1.677h2.986l0.736,1.76H306.2l1.226,2.474h3.11l0.946,1.928H305.728L305.728,338.927L305.728,338.927z
		 M312.661,338.927l-4.399-9.851h6.03l0.837,2.012h-3.283l0.74,1.677h2.974l0.643,1.76h-2.839l1.091,2.474h3.097l0.842,1.928
		H312.661L312.661,338.927L312.661,338.927z M323.974,338.929l-0.269-0.347l-0.026,0.008l-0.018-0.065l-3.745-4.83l1.902,5.242
		l-2.465-0.009l-3.562-9.821l3.174-0.031l3.246,4.186l-1.145-4.152l2.235,0.003l2.748,9.813L323.974,338.929L323.974,338.929
		L323.974,338.929z M332.111,338.929l-0.748-1.468l-2.599,0.002v1.464h-2.243v-9.851h3.087l5.005,9.852L332.111,338.929
		L332.111,338.929L332.111,338.929z M336.021,338.391c-2.545-1.771-3.5-4.947-2.118-7.273c0.4-0.674,1.93-2.538,4.767-1.67
		l0.743,2.368c-2.11-1.226-3.087,0.132-3.339,0.596c-0.728,1.339-0.225,3.168,1.114,4.187c0.587,0.358,1.21,0.529,1.787,0.522l0,0
		l-0.688-2.991l2.286,0.04l1.062,4.612C341.637,338.782,337.975,339.48,336.021,338.391L336.021,338.391L336.021,338.391z
		 M342.667,338.927l-1.742-9.851h5.827l0.297,2.012h-3.172l0.287,1.677h2.874l0.172,1.76h-2.744l0.425,2.474h2.993l0.322,1.928
		H342.667L342.667,338.927L342.667,338.927z M359.044,338.927h-2.473v-4.235l-1.781,4.235l-1.835-4.235v4.235h-2.474v-9.851
		l2.669,0.005l1.669,4.122l1.59-4.125l2.633-0.002v9.851H359.044L359.044,338.927z M385.948,338.927l-2.076-0.017l-1.45-4.144
		l-0.457,4.16h-2.244l1.084-9.851l2.391-0.005l1.508,4.313l0.646-4.308l2.081-0.014L385.948,338.927L385.948,338.927
		L385.948,338.927z M393.696,331.088h-1.937l-1.402,7.884l-2.326-0.069l1.39-7.815h-1.59l0.304-2.012H394L393.696,331.088
		L393.696,331.088L393.696,331.088z M398.736,338.911l-0.921-4.144l-1.1,4.16h-2.372l2.602-9.851l2.528-0.005l0.958,4.313
		l1.32-4.308l2.204-0.014l-3.027,9.865L398.736,338.911L398.736,338.911L398.736,338.911z M402.174,338.927l2.983-9.851h2.289
		l-2.983,9.851H402.174L402.174,338.927L402.174,338.927z M410.472,338.927l-0.587-4.474l-1.49,4.474h-2.517l3.28-9.851h2.325
		l0.702,4.683l1.554-4.683h2.506l-3.267,9.851H410.472L410.472,338.927L410.472,338.927z M413.95,337.72l1.024-2.266
		c1.193,2.457,2.506,0.406,2.506,0.406l3.075-6.785h2.575l-3.72,8.123c0,0-0.243,0.347-0.405,0.521
		C416.598,340.296,413.95,337.72,413.95,337.72L413.95,337.72L413.95,337.72z M427.065,338.927l-2.363,0.03l0.47-1.546h-2.465
		l-1.17,1.516h-2.531l7.604-9.852h3.446L427.065,338.927L427.065,338.927z"/>
	<polygon fill="#ED1C24" points="425.664,335.789 426.77,332.147 423.959,335.789 	"/>
	<path fill="#FFFFFF" d="M452.692,355.464c-0.12-0.28-0.296-0.541-0.521-0.773s-0.503-0.426-0.824-0.577
		c-0.33-0.155-0.698-0.233-1.095-0.233c-0.405,0-0.796,0.089-1.161,0.266c-0.263,0.126-0.51,0.301-0.731,0.52
		c-0.228,0.223-0.413,0.5-0.558,0.823c-0.145,0.327-0.218,0.682-0.218,1.056c0,0.405,0.089,0.796,0.266,1.162
		c0.128,0.264,0.305,0.51,0.522,0.731c0.225,0.227,0.502,0.414,0.824,0.555c0.327,0.144,0.682,0.216,1.053,0.216
		c0.405,0,0.794-0.088,1.154-0.263c0.276-0.132,0.536-0.318,0.768-0.552c0.236-0.239,0.423-0.525,0.554-0.85
		c0.131-0.323,0.195-0.66,0.195-1.002C452.921,356.176,452.844,355.812,452.692,355.464L452.692,355.464L452.692,355.464z
		 M451.675,356.546c0,0.13-0.019,0.255-0.053,0.378c-0.026-0.083-0.066-0.16-0.117-0.231c0.058-0.07,0.113-0.162,0.155-0.28
		C451.664,356.458,451.675,356.5,451.675,356.546L451.675,356.546L451.675,356.546z M448.848,356.677
		c-0.004-0.043-0.017-0.085-0.017-0.13c0-0.065,0.011-0.122,0.018-0.181L448.848,356.677L448.848,356.677z"/>
	<path d="M450.935,354.849c0.223,0.09,0.413,0.215,0.575,0.376c0.161,0.161,0.289,0.337,0.382,0.528
		c0.12,0.25,0.181,0.514,0.181,0.793c0,0.318-0.081,0.622-0.242,0.914c-0.162,0.292-0.387,0.518-0.675,0.679
		c-0.287,0.162-0.588,0.243-0.901,0.243c-0.312,0-0.611-0.081-0.898-0.243c-0.287-0.161-0.514-0.388-0.676-0.679
		s-0.244-0.596-0.244-0.914c0-0.271,0.054-0.519,0.158-0.742c0.106-0.224,0.236-0.413,0.395-0.568
		c0.157-0.154,0.327-0.273,0.512-0.357c0.246-0.11,0.497-0.166,0.755-0.166C450.485,354.713,450.713,354.758,450.935,354.849
		L450.935,354.849L450.935,354.849z M452.327,355.62c-0.102-0.236-0.247-0.454-0.44-0.652c-0.191-0.198-0.429-0.363-0.707-0.493
		c-0.278-0.131-0.588-0.196-0.927-0.196c-0.347,0-0.676,0.075-0.987,0.227c-0.227,0.108-0.437,0.257-0.628,0.446
		c-0.19,0.189-0.349,0.422-0.472,0.7c-0.123,0.278-0.185,0.577-0.185,0.896c0,0.346,0.075,0.677,0.227,0.99
		c0.108,0.225,0.257,0.433,0.447,0.625c0.188,0.192,0.424,0.348,0.701,0.47s0.575,0.183,0.894,0.183
		c0.347,0,0.674-0.075,0.981-0.224c0.238-0.114,0.458-0.272,0.657-0.475c0.2-0.203,0.356-0.442,0.469-0.719
		c0.11-0.277,0.167-0.562,0.167-0.854C452.524,356.229,452.459,355.922,452.327,355.62L452.327,355.62L452.327,355.62z
		 M449.991,356.956c0.187,0,0.313,0.014,0.384,0.043c0.069,0.029,0.122,0.077,0.156,0.142c0.025,0.049,0.042,0.155,0.05,0.32
		s0.021,0.279,0.044,0.343h0.718c-0.018-0.049-0.026-0.081-0.028-0.099c-0.005-0.029-0.008-0.087-0.01-0.174
		c-0.008-0.225-0.026-0.385-0.059-0.482c-0.03-0.097-0.095-0.182-0.191-0.257c-0.097-0.074-0.21-0.118-0.34-0.132
		c0.205-0.018,0.359-0.081,0.462-0.188c0.104-0.108,0.154-0.254,0.154-0.437c0-0.228-0.077-0.409-0.232-0.543
		c-0.154-0.133-0.411-0.2-0.771-0.2h-1.08l-0.006,2.513h0.749V356.956L449.991,356.956L449.991,356.956z M450.14,355.794
		c0.165,0,0.28,0.027,0.347,0.082c0.064,0.054,0.099,0.128,0.099,0.223c0,0.113-0.033,0.199-0.102,0.259
		c-0.067,0.06-0.188,0.09-0.36,0.09h-0.131v-0.653L450.14,355.794L450.14,355.794z"/>
</g>
</svg>
