<?xml version="1.0" encoding="utf-8"?>
<!-- Generator: Adobe Illustrator 16.0.0, SVG Export Plug-In . SVG Version: 6.00 Build 0)  -->
<!DOCTYPE svg PUBLIC "-//W3C//DTD SVG 1.1//EN" "http://www.w3.org/Graphics/SVG/1.1/DTD/svg11.dtd">
<svg version="1.1" id="Layer_1" xmlns="http://www.w3.org/2000/svg" xmlns:xlink="http://www.w3.org/1999/xlink" x="0px" y="0px"
	 width="97.566px" height="160.241px" viewBox="47.595 16.257 97.566 160.241"
	 enable-background="new 47.595 16.257 97.566 160.241" xml:space="preserve">
<g>
	<polygon fill="#EB2E2E" points="145.044,142.397 47.672,142.397 47.672,45.025 145.044,45.025 	"/>
	<path fill="#FFFFFF" d="M124.974,129.418l5.299-10.162l-6.445,4.021l-23.442-21.568c2.837-4.95,4.072-9.661,3.909-14.048
		l-1.545-1.389c0.305,5.364-1.491,11.227-5.77,17.416l-1.522,2.016l-0.578-0.436c2.919-2.984,4.325-9.084,3.251-15.765
		c-0.314-1.966-0.818-3.816-1.471-5.498l5.92-4.704l0.064-15.76l9.104-6.519l5.268,0.56l-5.986-8.371l-0.848,6.176l-17.264,12.36
		l1.304,1.823l3.924-2.809l-0.78,8.648l-3.944,2.925c-1.364-1.632-2.908-2.772-4.5-3.267c0.151-0.083,0.3-0.17,0.444-0.268
		c2.724-1.83,3.449-5.517,1.619-8.24c-0.551-0.824-1.277-1.461-2.091-1.902l2.29-1.65L90.026,61.4l-1.928,1.388l-8.09-11.238
		l-6.883,4.955l7.657,10.639c-0.009,0.016-0.019,0.031-0.028,0.048l0.401,0.594l-1.871,1.347l1.156,1.605l1.817-1.311l3.546,5.282
		l-7.588-2.127c3.752,5.041,5.446,12.266,4.141,21.718c-1.302,9.441-11.08,21.445-16.047,25.291l13.416-4.612l-12,21.196l2.12,2.509
		l9.379,0.139l-5.46-3.532l20.191-24.911L124.974,129.418L124.974,129.418z"/>
	<path d="M65.51,37.045h-5.438l-0.125-3.173c-0.66,0.896-1.567,1.72-2.721,2.469c-1.155,0.75-2.581,1.125-4.277,1.125
		c-1.591,0-2.843-0.478-3.756-1.434c-0.914-0.957-1.369-2.656-1.369-5.099v-14.25h5.668v13.779c0,1.066,0.223,1.782,0.67,2.15
		c0.447,0.368,0.994,0.55,1.641,0.55c0.823,0,1.582-0.154,2.276-0.464c0.693-0.311,1.281-0.793,1.763-1.45V16.683h5.668V37.045
		L65.51,37.045z"/>
	<path d="M100.465,37.045h-5.669V22.747c0-0.556-0.249-1.058-0.749-1.507c-0.501-0.448-1.091-0.673-1.773-0.673
		c-0.905,0-1.673,0.208-2.301,0.625c-0.629,0.417-1.139,0.94-1.526,1.571v14.282h-5.669V22.747c0-0.58-0.226-1.088-0.678-1.525
		c-0.453-0.437-1.079-0.655-1.878-0.655c-0.906,0-1.662,0.17-2.267,0.51c-0.607,0.339-1.115,0.783-1.527,1.331v14.637H70.76V16.683
		h5.455l0.105,3.21c0.601-1.109,1.455-1.992,2.564-2.647c1.107-0.655,2.451-0.983,4.029-0.983c1.415,0,2.536,0.339,3.366,1.018
		c0.832,0.679,1.441,1.615,1.831,2.807c0.718-1.476,1.631-2.471,2.739-2.984c1.106-0.513,2.386-0.794,3.836-0.841
		c1.672-0.07,3.054,0.501,4.144,1.711c1.091,1.21,1.637,2.767,1.637,4.667L100.465,37.045L100.465,37.045z"/>
	<path d="M116.901,33.029c-0.795,0.858-1.61,1.288-2.446,1.288c-0.94,0-1.729-0.217-2.356-0.653
		c-0.632-0.436-0.994-0.885-1.088-1.351v-9.867c0.318-0.535,0.829-1.034,1.537-1.499c0.706-0.463,1.46-0.695,2.262-0.695
		c1.012,0,1.813,0.406,2.401,1.217c0.589,0.811,0.886,2.317,0.886,4.519v1.35C118.097,30.274,117.698,32.171,116.901,33.029
		L116.901,33.029z M123.974,25.262c0-3.259-0.683-5.574-2.045-6.944c-1.363-1.37-2.979-2.055-4.844-2.055
		c-1.357,0-2.605,0.311-3.745,0.93c-1.139,0.619-1.934,1.449-2.382,2.488l-0.158-2.998h-5.457v26.398h5.668v-7.102
		c0.578,0.509,1.286,0.856,2.118,1.045c0.834,0.189,1.604,0.284,2.313,0.284c2.684,0,4.775-0.838,6.276-2.515
		c1.503-1.677,2.255-4.062,2.255-7.158V25.262L123.974,25.262z"/>
	<path d="M138.661,32.897c-0.696,0.562-1.479,0.842-2.352,0.842c-1.014,0-1.848-0.23-2.502-0.691s-0.979-1.384-0.979-2.768v-0.549
		c0-1.323,0.31-2.29,0.928-2.898c0.617-0.609,1.458-0.914,2.521-0.914c1.131,0,1.983,0.322,2.562,0.967
		c0.576,0.646,0.866,1.581,0.866,2.81v0.55C139.704,31.452,139.354,32.336,138.661,32.897L138.661,32.897z M145.161,23.733
		c0-2.607-0.631-4.505-1.889-5.69c-1.26-1.186-3.209-1.78-5.848-1.78c-1.645,0-3.042,0.135-4.195,0.402
		c-1.153,0.269-2.196,0.589-3.129,0.962v3.464c0.719-0.419,1.565-0.769,2.545-1.048c0.979-0.281,2.094-0.422,3.344-0.422
		c1.166,0,2.07,0.245,2.707,0.737c0.636,0.493,0.955,1.091,0.955,1.797v2.032c-0.354-0.343-0.914-0.63-1.68-0.861
		c-0.767-0.23-1.543-0.346-2.332-0.346c-2.603,0-4.676,0.617-6.219,1.851s-2.312,2.991-2.312,5.268v0.354
		c0,2.303,0.576,4.02,1.735,5.154c1.157,1.133,2.863,1.7,5.118,1.7c1.37,0,2.568-0.271,3.598-0.814
		c1.026-0.543,1.758-1.239,2.195-2.089l0.089,2.641h5.316L145.161,23.733L145.161,23.733z"/>
	<path d="M65.28,170.463h-5.438l-0.124-3.174c-0.661,0.897-1.568,1.721-2.723,2.47c-1.155,0.749-2.58,1.124-4.275,1.124
		c-1.591,0-2.844-0.477-3.755-1.433c-0.914-0.957-1.37-2.655-1.37-5.1v-14.25h5.667v13.779c0,1.067,0.223,1.782,0.669,2.148
		c0.447,0.369,0.994,0.551,1.642,0.551c0.824,0,1.581-0.154,2.275-0.464c0.693-0.31,1.283-0.794,1.765-1.45v-14.564h5.667V170.463
		L65.28,170.463z"/>
	<path d="M100.235,170.463h-5.669v-14.299c0-0.556-0.25-1.058-0.75-1.507c-0.499-0.448-1.09-0.674-1.772-0.674
		c-0.905,0-1.673,0.209-2.302,0.625c-0.63,0.416-1.138,0.94-1.526,1.572v14.281h-5.668v-14.299c0-0.579-0.227-1.086-0.679-1.523
		c-0.453-0.438-1.08-0.656-1.879-0.656c-0.905,0-1.661,0.17-2.267,0.512c-0.605,0.34-1.114,0.783-1.526,1.331v14.637H70.53v-20.362
		h5.454l0.107,3.211c0.6-1.109,1.454-1.992,2.562-2.646c1.107-0.655,2.45-0.982,4.029-0.982c1.414,0,2.536,0.34,3.366,1.019
		s1.441,1.614,1.83,2.807c0.718-1.475,1.631-2.47,2.739-2.983c1.107-0.514,2.385-0.793,3.835-0.842
		c1.672-0.068,3.055,0.502,4.146,1.713c1.09,1.209,1.635,2.767,1.635,4.668v14.399H100.235z"/>
	<path d="M116.674,166.447c-0.796,0.856-1.61,1.286-2.446,1.286c-0.941,0-1.729-0.217-2.357-0.652
		c-0.633-0.436-0.994-0.887-1.087-1.352v-9.867c0.317-0.534,0.829-1.033,1.536-1.498c0.707-0.463,1.462-0.694,2.263-0.694
		c1.013,0,1.812,0.405,2.401,1.218c0.588,0.811,0.885,2.315,0.885,4.519v1.35C117.867,163.692,117.469,165.589,116.674,166.447
		L116.674,166.447z M123.744,158.679c0-3.258-0.681-5.572-2.044-6.941c-1.364-1.37-2.979-2.057-4.844-2.057
		c-1.358,0-2.606,0.311-3.746,0.93c-1.139,0.621-1.934,1.449-2.381,2.488l-0.158-2.998h-5.459v26.397h5.67v-7.101
		c0.578,0.508,1.285,0.856,2.119,1.045c0.832,0.188,1.604,0.283,2.312,0.283c2.684,0,4.775-0.838,6.277-2.516
		c1.501-1.677,2.252-4.062,2.252-7.157L123.744,158.679L123.744,158.679z"/>
	<path d="M138.433,166.313c-0.695,0.562-1.479,0.843-2.352,0.843c-1.014,0-1.848-0.229-2.5-0.69c-0.654-0.461-0.98-1.383-0.98-2.767
		v-0.55c0-1.323,0.31-2.291,0.926-2.898c0.619-0.607,1.459-0.913,2.521-0.913c1.132,0,1.985,0.322,2.562,0.966
		c0.578,0.646,0.867,1.582,0.867,2.812v0.549C139.476,164.869,139.127,165.754,138.433,166.313L138.433,166.313z M144.933,157.149
		c0-2.605-0.629-4.504-1.89-5.689c-1.26-1.186-3.209-1.779-5.847-1.779c-1.643,0-3.043,0.135-4.195,0.404
		c-1.152,0.268-2.195,0.587-3.131,0.96v3.463c0.72-0.417,1.568-0.766,2.547-1.047c0.979-0.28,2.094-0.422,3.344-0.422
		c1.168,0,2.069,0.247,2.707,0.737c0.635,0.492,0.954,1.091,0.954,1.798v2.03c-0.353-0.342-0.912-0.629-1.678-0.86
		c-0.767-0.229-1.543-0.347-2.333-0.347c-2.604,0-4.676,0.617-6.217,1.852c-1.545,1.234-2.315,2.991-2.315,5.27v0.354
		c0,2.302,0.579,4.021,1.737,5.153c1.156,1.133,2.861,1.701,5.117,1.701c1.371,0,2.568-0.272,3.597-0.815s1.761-1.239,2.196-2.09
		l0.089,2.642h5.317V157.149L144.933,157.149z"/>
</g>
</svg>
