<?xml version="1.0" encoding="utf-8"?>
<!-- Generator: Adobe Illustrator 16.0.0, SVG Export Plug-In . SVG Version: 6.00 Build 0)  -->
<!DOCTYPE svg PUBLIC "-//W3C//DTD SVG 1.1//EN" "http://www.w3.org/Graphics/SVG/1.1/DTD/svg11.dtd">
<svg version="1.1" id="Layer_1" xmlns="http://www.w3.org/2000/svg" xmlns:xlink="http://www.w3.org/1999/xlink" x="0px" y="0px"
	 width="175.748px" height="71.969px" viewBox="8.504 61.469 175.748 71.969" enable-background="new 8.504 61.469 175.748 71.969"
	 xml:space="preserve">
<g>
	<path fill="#FFFFFF" d="M180.519,98.831c0,19.359-38.884,31.814-83.917,31.814c-39.496,0-74.115-9.532-82.159-24.885V91.933
		c8.044-15.296,42.663-24.917,82.159-24.917C141.635,67.016,180.519,79.583,180.519,98.831L180.519,98.831z"/>
	<path fill="#3B317B" d="M96.378,66.791c0.073,0,0.148-0.001,0.223-0.001c47.121,0,87.651,12.681,87.651,32.154
		c0,19.588-40.53,32.269-87.651,32.269c-0.074,0-0.148-0.001-0.223-0.001v-0.453c0.074,0,0.148,0.001,0.223,0.001
		c45.363,0,83.257-13.698,83.257-31.815c0-18-37.895-31.7-83.257-31.7c-0.074,0-0.148,0.001-0.223,0.001V66.791L96.378,66.791z"/>
	<path fill="#3B317B" d="M96.378,66.791c-0.073,0-0.149-0.001-0.223-0.001c-47.121,0-87.651,12.681-87.651,32.154
		c0,19.588,40.531,32.269,87.651,32.269c0.074,0,0.148-0.001,0.223-0.001v-0.453c-0.074,0-0.148,0.001-0.223,0.001
		c-45.363,0-83.258-13.698-83.258-31.815c0-18,37.895-31.7,83.258-31.7c0.074,0,0.148,0.001,0.223,0.001V66.791L96.378,66.791z"/>
	<path fill="#F9C845" d="M159.647,80.021v0.963c-14.793-7.061-37.896-11.591-63.047-11.591c-42.837,0-79.963,13.133-79.963,29.549
		c0,16.531,37.126,29.664,79.963,29.664c25.152,0,48.254-4.527,63.047-11.611v0.966c-14.969,6.899-37.869,11.213-63.047,11.213
		c-43.936,0-81.28-13.134-81.28-30.229c0-16.982,37.345-30.116,81.28-30.116C121.778,68.828,144.679,73.142,159.647,80.021
		L159.647,80.021z"/>
	<path fill="#F9C845" d="M160.746,117.444v-0.985c-0.502,0.252-1.015,0.5-1.537,0.746v0.956
		C159.729,117.925,160.244,117.687,160.746,117.444L160.746,117.444z M160.746,81.521v-0.983c-0.502-0.242-1.017-0.481-1.537-0.717
		v0.956C159.731,81.021,160.244,81.27,160.746,81.521L160.746,81.521z"/>
	<path fill="#FACA45" d="M162.284,116.678v-1.019c-0.502,0.271-1.014,0.537-1.538,0.8v0.985
		C161.271,117.192,161.781,116.937,162.284,116.678L162.284,116.678z M162.284,82.318v-1.016c-0.504-0.258-1.016-0.513-1.538-0.765
		v0.983C161.271,81.784,161.782,82.049,162.284,82.318L162.284,82.318z"/>
	<path fill="#FACC45" d="M163.821,115.856v-1.056c-0.5,0.289-1.012,0.575-1.537,0.857v1.019
		C162.81,116.407,163.321,116.134,163.821,115.856L163.821,115.856z M163.821,83.173v-1.052c-0.5-0.276-1.014-0.549-1.537-0.818
		v1.016C162.81,82.6,163.321,82.884,163.821,83.173L163.821,83.173z"/>
	<path fill="#FACD42" d="M165.358,114.972v-1.099c-0.498,0.313-1.01,0.623-1.537,0.929v1.055
		C164.349,115.565,164.86,115.271,165.358,114.972L165.358,114.972z M165.358,84.098v-1.096c-0.498-0.297-1.012-0.591-1.537-0.881
		v1.052C164.351,83.478,164.86,83.786,165.358,84.098L165.358,84.098z"/>
	<path fill="#FACF42" d="M166.897,114.015v-1.152c-0.496,0.342-1.01,0.678-1.539,1.012v1.1
		C165.888,114.656,166.399,114.337,166.897,114.015L166.897,114.015z M166.897,85.105v-1.15c-0.498-0.322-1.012-0.639-1.539-0.953
		v1.096C165.89,84.43,166.401,84.766,166.897,85.105L166.897,85.105z"/>
	<path fill="#F8D040" d="M168.437,112.965v-1.221c-0.492,0.377-1.006,0.75-1.539,1.116v1.152
		C167.429,113.668,167.94,113.317,168.437,112.965L168.437,112.965z M168.437,86.217v-1.216c-0.496-0.353-1.008-0.702-1.539-1.046
		v1.15C167.431,85.472,167.942,85.842,168.437,86.217L168.437,86.217z"/>
	<path fill="#F8D040" d="M169.974,111.803v-1.308c-0.453,0.393-0.932,0.781-1.429,1.165v1.226
		C169.04,112.528,169.517,112.168,169.974,111.803L169.974,111.803z M169.974,87.461v-1.304c-0.457-0.364-0.934-0.723-1.429-1.078
		v1.222C169.042,86.683,169.521,87.07,169.974,87.461L169.974,87.461z"/>
	<path fill="#F9D23D" d="M171.511,110.494v-1.435c-0.447,0.45-0.924,0.897-1.428,1.338v1.316
		C170.582,111.313,171.058,110.906,171.511,110.494L171.511,110.494z M171.511,88.89v-1.43c-0.453-0.41-0.929-0.815-1.428-1.215
		v1.312C170.587,87.996,171.063,88.44,171.511,88.89L171.511,88.89z"/>
	<path fill="#F7D33E" d="M173.158,108.86v-1.654c-0.466,0.588-0.979,1.168-1.538,1.741v1.446
		C172.168,109.892,172.683,109.379,173.158,108.86L173.158,108.86z M173.158,90.735v-1.65c-0.478-0.515-0.99-1.023-1.538-1.524v1.44
		C172.181,89.571,172.692,90.149,173.158,90.735L173.158,90.735z"/>
	<path fill="#F7D53E" d="M174.696,106.995v-2.071c-0.434,0.772-0.946,1.533-1.538,2.282v1.654
		C173.722,108.249,174.235,107.627,174.696,106.995L174.696,106.995z M174.696,93.005v-2.062c-0.461-0.628-0.975-1.248-1.538-1.858
		v1.65C173.75,91.479,174.265,92.236,174.696,93.005L174.696,93.005z"/>
	<path fill="#F7D53B" d="M176.233,104.455v-3.962c-0.213,1.511-0.733,2.99-1.537,4.431v2.071
		C175.302,106.164,175.815,105.315,176.233,104.455L176.233,104.455z M176.233,97.407v-3.939c-0.418-0.856-0.933-1.698-1.537-2.525
		v2.062C175.5,94.436,176.021,95.906,176.233,97.407L176.233,97.407z"/>
	<path fill="#F5D53B" d="M176.233,93.468v3.939c0.072,0.509,0.109,1.021,0.109,1.535c0,0.521-0.037,1.037-0.109,1.551v3.962
		c0.863-1.779,1.317-3.622,1.317-5.513C177.552,97.067,177.099,95.238,176.233,93.468L176.233,93.468z"/>
	<path fill="#FFFFFF" d="M41.461,125.551c6.261,7.134,26.471,7.134,56.458-1.812c29.876-8.831,48.109-12.795,60.521-7.926
		c-11.203-9.059-31.414-8.151-61.51,0.565C66.944,125.099,48.821,128.153,41.461,125.551L41.461,125.551z"/>
	<path fill="none" stroke="#FFFFFF" stroke-width="5.4876" stroke-miterlimit="2.6131" d="M41.461,125.551
		c6.261,7.134,26.471,7.134,56.458-1.812c29.876-8.831,48.109-12.795,60.521-7.926c-11.203-9.059-31.414-8.151-61.51,0.565
		C66.944,125.099,48.821,128.153,41.461,125.551"/>
	<path fill="#FFFFFF" d="M52.116,128.269c6.26-0.453,15.267-0.793,15.267-0.793l-10.435-4.98l-19.551-6.567l-3.295,6.794
		L52.116,128.269L52.116,128.269z"/>
	<path fill="#FFFFFF" d="M63.869,114.567c-0.549,1.926-1.538,3.851-2.526,4.869l9.996-1.926c-0.659-0.792-0.549-2.943,0-5.095
		l9.007-34.079l-9.227,3.85c0.769,0.566,0.659,2.491,0.11,4.642l-5.712,21.625L63.869,114.567L63.869,114.567z"/>
	<path fill="none" stroke="#FFFFFF" stroke-width="4.8007" stroke-miterlimit="2.6131" d="M63.869,114.567
		c-0.549,1.926-1.538,3.851-2.526,4.869l9.996-1.926c-0.659-0.792-0.549-2.943,0-5.095l9.007-34.079l-9.227,3.85
		c0.769,0.566,0.659,2.491,0.11,4.642l-5.712,21.625L63.869,114.567"/>
	<path fill="#FFFFFF" d="M145.589,98.831c-0.658,0.452-2.307,1.245-2.746,1.245c-1.099,0.227-0.658-1.812-0.439-3.058l4.395-16.644
		l1.1-3.963l1.978-7.473l-8.679,3.624c0.221,0.905,0.221,2.264-0.109,3.623l-0.438,1.472l-0.989,4.076l-3.187,12.001l-1.537,6.227
		c-0.658,3.057,0.33,6.001,3.516,5.321c2.087-0.341,4.283-1.585,6.48-3.623L145.589,98.831L145.589,98.831z"/>
	<path fill="none" stroke="#FFFFFF" stroke-width="4.8007" stroke-miterlimit="2.6131" d="M145.589,98.831
		c-0.658,0.452-2.307,1.245-2.746,1.245c-1.099,0.227-0.658-1.812-0.439-3.058l4.395-16.644l1.1-3.963l1.978-7.473l-8.679,3.624
		c0.221,0.905,0.221,2.264-0.109,3.623l-0.438,1.472l-0.989,4.076l-3.187,12.001l-1.537,6.227c-0.658,3.057,0.33,6.001,3.516,5.321
		c2.087-0.341,4.283-1.585,6.48-3.623L145.589,98.831"/>
	<path fill="#FFFFFF" d="M148.226,99.51c1.209,1.698,3.404,2.491,6.26,2.038c2.856-0.566,3.955-1.472,6.371-3.963
		c0,0.906-0.109,1.925-0.109,3.059l7.579-1.359c-0.659-0.905-0.55-3.057,0-5.095l3.295-12.454c1.538-5.887-2.416-9.624-9.886-8.152
		c-2.086,0.34-4.174,1.019-6.041,2.038l-1.317,5.095c1.757-1.359,4.503-2.604,6.149-2.944c2.746-0.566,5.164,0,4.613,2.377
		c-0.549,2.038-3.074,2.717-7.357,4.302c-5.932,2.265-9.887,4.642-10.545,9.624C146.797,97.358,148.226,99.51,148.226,99.51
		L148.226,99.51z M161.955,92.49c-1.978,2.604-4.174,3.963-5.492,4.303c-2.196,0.34-3.405-1.132-2.856-3.17
		c0.771-2.717,2.418-4.755,5.822-6.114c0.77-0.34,2.965-1.132,4.395-2.038L161.955,92.49L161.955,92.49z"/>
	<path fill="none" stroke="#FFFFFF" stroke-width="6.1718" stroke-miterlimit="2.6131" d="M148.226,99.51
		c1.209,1.698,3.404,2.491,6.26,2.038c2.856-0.566,3.955-1.472,6.371-3.963c0,0.906-0.109,1.925-0.109,3.059l7.579-1.359
		c-0.659-0.905-0.55-3.057,0-5.095l3.295-12.454c1.538-5.887-2.416-9.624-9.886-8.152c-2.086,0.34-4.174,1.019-6.041,2.038
		l-1.317,5.095c1.757-1.359,4.503-2.604,6.149-2.944c2.746-0.566,5.164,0,4.613,2.377c-0.549,2.038-3.074,2.717-7.357,4.302
		c-5.932,2.265-9.887,4.642-10.545,9.624C146.797,97.358,148.226,99.51,148.226,99.51 M161.955,92.49
		c-1.978,2.604-4.174,3.963-5.492,4.303c-2.196,0.34-3.405-1.132-2.856-3.17c0.771-2.717,2.418-4.755,5.822-6.114
		c0.77-0.34,2.965-1.132,4.395-2.038L161.955,92.49"/>
	<path fill="#FFFFFF" d="M90.669,92.943l-5.821,14.039c0,0,0.769-10.981,0.878-13.132c0-1.246,0.439-3.736,0.659-5.321L78.257,90
		c0.659,1.585,0.879,3.736,0.879,5.095l-0.549,21.059l7.03-1.244c0,0,10.544-21.399,11.313-22.644
		c0.438-0.906,1.758-3.963,3.295-6.34l-8.348,1.585C92.317,88.415,91.658,90.679,90.669,92.943L90.669,92.943z"/>
	<path fill="none" stroke="#FFFFFF" stroke-width="4.8007" stroke-miterlimit="2.6131" d="M90.669,92.943l-5.821,14.039
		c0,0,0.769-10.981,0.878-13.132c0-1.246,0.439-3.736,0.659-5.321L78.257,90c0.659,1.585,0.879,3.736,0.879,5.095l-0.549,21.059
		l7.03-1.244c0,0,10.544-21.399,11.313-22.644c0.438-0.906,1.758-3.963,3.295-6.34l-8.348,1.585
		C92.317,88.415,91.658,90.679,90.669,92.943"/>
	<path fill="#FFFFFF" d="M132.408,101.208c0.879-1.698,0.987-4.302,0.987-4.302c-2.195,3.51-5.932,6.565-8.457,7.02
		c-2.746,0.566-3.516-2.038-2.855-5.774c5.492-1.924,11.312-5.094,13.62-10.643c2.307-5.435-1.647-8.492-5.492-7.812
		C124.39,80.716,117.8,88.075,115.603,96c-2.307,7.926,0.551,13.474,6.371,12.341c2.746-0.451,5.053-1.697,7.029-3.17
		C130.541,103.926,131.749,102.454,132.408,101.208L132.408,101.208z M122.853,94.755c1.647-5.548,4.394-10.19,6.701-10.53
		c1.536-0.226,1.646,1.925-0.439,4.755C127.465,91.245,125.049,93.283,122.853,94.755L122.853,94.755L122.853,94.755z"/>
	<path fill="none" stroke="#FFFFFF" stroke-width="4.8007" stroke-miterlimit="2.6131" d="M132.408,101.208
		c0.879-1.698,0.987-4.302,0.987-4.302c-2.195,3.51-5.932,6.565-8.457,7.02c-2.746,0.566-3.516-2.038-2.855-5.774
		c5.492-1.924,11.312-5.094,13.62-10.643c2.307-5.435-1.647-8.492-5.492-7.812C124.39,80.716,117.8,88.075,115.603,96
		c-2.307,7.926,0.551,13.474,6.371,12.341c2.746-0.451,5.053-1.697,7.029-3.17C130.541,103.926,131.749,102.454,132.408,101.208
		 M122.853,94.755c1.647-5.548,4.394-10.19,6.701-10.53c1.536-0.226,1.646,1.925-0.439,4.755
		C127.465,91.245,125.049,93.283,122.853,94.755L122.853,94.755"/>
	<path fill="#FFFFFF" d="M112.418,104.944c0.878-1.698,0.878-4.303,0.878-4.303c-2.087,3.51-5.82,6.566-8.457,7.021
		c-2.637,0.565-3.404-2.038-2.855-5.774c5.492-1.925,11.424-5.095,13.729-10.643c2.308-5.435-1.647-8.492-5.603-7.812
		c-5.821,1.019-12.303,8.378-14.608,16.302c-2.197,7.927,0.659,13.475,6.479,12.342c2.746-0.452,5.054-1.698,7.031-3.17
		C110.55,107.662,111.759,106.19,112.418,104.944L112.418,104.944z M102.86,98.378c1.647-5.435,4.395-10.077,6.701-10.417
		c1.537-0.227,1.537,1.925-0.439,4.755c-1.757,2.265-4.062,4.303-6.37,5.774C102.86,98.491,102.86,98.491,102.86,98.378
		L102.86,98.378z"/>
	<path fill="none" stroke="#FFFFFF" stroke-width="4.8007" stroke-miterlimit="2.6131" d="M112.418,104.944
		c0.878-1.698,0.878-4.303,0.878-4.303c-2.087,3.51-5.82,6.566-8.457,7.021c-2.637,0.565-3.404-2.038-2.855-5.774
		c5.492-1.925,11.424-5.095,13.729-10.643c2.308-5.435-1.647-8.492-5.603-7.812c-5.821,1.019-12.303,8.378-14.608,16.302
		c-2.197,7.927,0.659,13.475,6.479,12.342c2.746-0.452,5.054-1.698,7.031-3.17C110.55,107.662,111.759,106.19,112.418,104.944
		 M102.86,98.378c1.647-5.435,4.395-10.077,6.701-10.417c1.537-0.227,1.537,1.925-0.439,4.755c-1.757,2.265-4.062,4.303-6.37,5.774
		L102.86,98.378"/>
	<path fill="#FFFFFF" d="M62.441,114.002c0.769-1.585,0.878-4.188,0.878-4.188c-2.197,3.396-5.931,6.453-8.458,7.021
		c-2.636,0.453-3.515-2.038-2.856-5.774c5.492-1.925,11.313-5.095,13.62-10.756c2.307-5.435-1.647-8.492-5.492-7.812
		c-5.822,1.132-12.412,8.378-14.609,16.304c-2.307,7.926,0.549,13.475,6.371,12.454c2.746-0.565,5.052-1.698,7.029-3.283
		C60.464,116.833,61.672,115.248,62.441,114.002L62.441,114.002z M52.775,107.549c1.757-5.548,4.394-10.188,6.7-10.528
		c1.647-0.228,1.647,2.037-0.439,4.754c-1.647,2.266-4.064,4.416-6.261,5.889V107.549L52.775,107.549z"/>
	<path fill="none" stroke="#FFFFFF" stroke-width="4.8007" stroke-miterlimit="2.6131" d="M62.441,114.002
		c0.769-1.585,0.878-4.188,0.878-4.188c-2.197,3.396-5.931,6.453-8.458,7.021c-2.636,0.453-3.515-2.038-2.856-5.774
		c5.492-1.925,11.313-5.095,13.62-10.756c2.307-5.435-1.647-8.492-5.492-7.812c-5.822,1.132-12.412,8.378-14.609,16.304
		c-2.307,7.926,0.549,13.475,6.371,12.454c2.746-0.565,5.052-1.698,7.029-3.283C60.464,116.833,61.672,115.248,62.441,114.002
		 M52.775,107.549c1.757-5.548,4.394-10.188,6.7-10.528c1.647-0.228,1.647,2.037-0.439,4.754c-1.647,2.266-4.064,4.416-6.261,5.889
		V107.549"/>
	<path fill="#FFFFFF" d="M135.812,78.338c2.638-2.717,6.151-3.396,10.105-3.623c4.064-0.34,8.678-1.812,10.105-3.17l-0.33,1.924
		c0,0-1.867,2.831-6.699,4.303c-4.725,1.472-6.92,0.453-9.776,0.906c-1.647,0.226-3.295,1.02-3.624,1.358L135.812,78.338
		L135.812,78.338z"/>
	<path fill="none" stroke="#FFFFFF" stroke-width="4.8007" stroke-miterlimit="2.6131" d="M135.812,78.338
		c2.638-2.717,6.151-3.396,10.105-3.623c4.064-0.34,8.678-1.812,10.105-3.17l-0.33,1.924c0,0-1.867,2.831-6.699,4.303
		c-4.725,1.472-6.92,0.453-9.776,0.906c-1.647,0.228-3.295,1.02-3.624,1.358L135.812,78.338"/>
	<path fill="#FFFFFF" d="M35.311,124.306L48.492,97.36c0,0,6.48-12.455,14.828-15.398C50.139,79.244,43.988,90.113,43,92.264
		c-1.099,2.264-8.787,21.172-8.787,21.172s0.33-15.172,0.439-18.229c0-1.585,0.659-5.095,0.989-7.359l-10.764,2.264
		c0.22,1.925,0.549,4.981,0.549,6.907v29.211L35.311,124.306L35.311,124.306z"/>
	<path fill="none" stroke="#FFFFFF" stroke-width="4.8007" stroke-miterlimit="2.6131" d="M35.311,124.306L48.492,97.36
		c0,0,6.48-12.455,14.828-15.398C50.139,79.244,43.988,90.113,43,92.264c-1.099,2.264-8.788,21.172-8.788,21.172
		s0.439-15.172,0.439-18.229c0-1.585,0.659-5.095,0.989-7.359l-10.764,2.264c0.22,1.925,0.549,4.981,0.549,6.907v29.211
		L35.311,124.306"/>
	<path fill="#F9C845" d="M64.418,115.36c-0.549,1.926-1.538,3.85-2.526,4.869l9.995-1.812c-0.659-0.906-0.549-2.943,0-5.095
		l9.007-34.193l-9.227,3.85c0.769,0.566,0.659,2.604,0.11,4.755l-5.712,21.512L64.418,115.36L64.418,115.36z"/>
	<path fill="#F9C845" d="M146.138,99.623c-0.549,0.453-2.307,1.245-2.746,1.358c-1.098,0.227-0.658-1.924-0.438-3.17l4.504-16.644
		l0.987-3.963l1.979-7.359l-8.566,3.51c0.108,1.019,0.108,2.377-0.221,3.623l-0.439,1.585l-0.987,3.962l-3.187,12.115l-1.537,6.114
		c-0.659,3.057,0.328,6,3.515,5.436c2.087-0.453,4.284-1.698,6.479-3.736L146.138,99.623L146.138,99.623z"/>
	<path fill="#F9C845" d="M148.774,100.303c1.207,1.812,3.404,2.604,6.369,2.038c2.856-0.566,3.846-1.473,6.262-3.963
		c0,0.905-0.109,2.038-0.109,3.17l7.688-1.472c-0.769-0.793-0.549-2.943,0-5.095l3.187-12.455c1.537-5.774-2.308-9.51-9.886-8.152
		c-2.088,0.453-4.062,1.132-6.041,2.038l-1.318,5.095c1.758-1.245,4.504-2.604,6.151-2.943c2.746-0.453,5.161,0,4.612,2.377
		c-0.549,2.151-2.965,2.717-7.358,4.302c-5.933,2.265-8.787,5.208-10.104,10.077c-0.221,0.792-0.221,1.585-0.221,2.264
		C148.115,99.283,148.774,100.303,148.774,100.303L148.774,100.303z M162.504,93.283c-1.978,2.717-4.063,4.075-5.491,4.302
		c-2.197,0.453-3.406-1.019-2.855-3.17c0.769-2.717,2.416-4.642,5.82-6.114c0.77-0.34,2.967-1.132,4.395-1.925L162.504,93.283
		L162.504,93.283z"/>
	<path fill="#F9C845" d="M91.219,93.736l-5.822,14.154c0,0,0.769-10.982,0.879-13.248c0-1.246,0.439-3.623,0.659-5.321l-8.128,1.585
		c0.659,1.585,0.879,3.623,0.879,4.981l-0.549,21.172l7.03-1.358c0,0,10.545-21.285,11.312-22.644
		c0.439-0.792,1.758-3.85,3.295-6.227l-8.348,1.472C92.866,89.207,92.207,91.471,91.219,93.736L91.219,93.736z"/>
	<path fill="#F9C845" d="M133.067,102.001c0.769-1.585,0.877-4.189,0.877-4.189c-2.195,3.396-5.93,6.566-8.457,7.021
		c-2.745,0.453-3.514-2.038-2.854-5.772c5.491-1.926,11.312-5.096,13.619-10.757c2.308-5.435-1.647-8.492-5.491-7.812
		c-5.82,1.132-12.412,8.378-14.607,16.304c-2.307,7.927,0.549,13.474,6.369,12.454c2.746-0.566,5.054-1.698,7.031-3.283
		C131.09,104.831,132.298,103.246,133.067,102.001L133.067,102.001z M123.401,95.547c1.757-5.548,4.394-10.19,6.699-10.53
		c1.539-0.226,1.647,2.038-0.438,4.755c-1.647,2.265-4.063,4.416-6.261,5.888V95.547L123.401,95.547z"/>
	<path fill="#F9C845" d="M112.967,105.737c0.88-1.586,0.88-4.189,0.88-4.189c-2.088,3.396-5.822,6.454-8.349,7.02
		c-2.746,0.453-3.517-2.037-2.966-5.773c5.602-1.925,11.423-5.095,13.729-10.755c2.307-5.435-1.646-8.492-5.602-7.812
		c-5.713,1.132-12.303,8.378-14.609,16.304c-2.197,7.925,0.66,13.473,6.481,12.454c2.745-0.566,5.052-1.698,7.028-3.283
		C111.101,108.454,112.308,106.981,112.967,105.737L112.967,105.737z M103.411,99.283c1.646-5.547,4.393-10.189,6.699-10.529
		c1.537-0.226,1.647,2.038-0.438,4.755c-1.758,2.265-4.063,4.416-6.261,5.887V99.283L103.411,99.283z"/>
	<path fill="#F9C845" d="M62.99,114.908c0.878-1.698,0.878-4.304,0.878-4.304c-2.197,3.511-5.931,6.566-8.458,7.021
		c-2.636,0.565-3.515-2.038-2.855-5.772c5.492-1.926,11.313-5.097,13.729-10.645c2.197-5.434-1.757-8.491-5.602-7.812
		c-5.822,1.019-12.412,8.378-14.609,16.304c-2.306,7.925,0.549,13.473,6.371,12.341c2.746-0.453,5.163-1.698,7.14-3.171
		C61.013,117.625,62.331,116.153,62.99,114.908L62.99,114.908z M53.324,108.341c1.757-5.435,4.394-10.076,6.7-10.416
		c1.647-0.227,1.647,1.926-0.439,4.756c-1.647,2.264-3.954,4.303-6.261,5.773C53.324,108.454,53.324,108.454,53.324,108.341
		L53.324,108.341z"/>
	<path fill="#F9C845" d="M136.362,79.13c2.636-2.604,6.15-3.283,10.215-3.623c3.953-0.226,8.678-1.698,9.994-3.17l-0.328,1.925
		c0,0-1.867,2.83-6.7,4.302c-4.724,1.472-6.92,0.566-9.774,0.906c-1.647,0.339-3.297,1.132-3.625,1.472L136.362,79.13L136.362,79.13
		z"/>
	<path fill="#F9C845" d="M35.97,125.099l13.18-26.947c0,0,6.48-12.454,14.828-15.398c-13.181-2.717-19.332,8.039-20.32,10.303
		c-0.988,2.264-8.677,21.171-8.677,21.171s0.33-15.17,0.33-18.228c0-1.698,0.769-5.208,0.988-7.359l-12.082,2.264
		c1.318,1.812,1.867,4.98,1.978,6.906v29.098L35.97,125.099L35.97,125.099z"/>
	<polygon fill="#FFFFFF" points="154.267,78.338 151.521,78.338 153.058,77.545 	"/>
	<polygon fill="#FFFFFF" points="164.92,79.583 161.296,81.961 158.222,80.489 163.054,78.904 	"/>
	<polygon fill="#FFFFFF" points="162.504,79.357 163.821,79.357 163.821,80.149 162.504,80.149 	"/>
	<path fill="#FFFFFF" d="M97.919,117.625c-14.829,4.416-27.13,7.474-36.357,8.944c-6.371,1.02-11.423,1.472-15.268,1.133
		c4.833,0.904,13.291,0,19.112-1.133c8.787-1.698,19.551-4.416,32.623-8.266c10.545-3.057,19.881-5.207,28.009-6.113
		c3.405-0.453,9.116-0.793,13.181-0.793c2.637,0,5.163,0.112,7.471,0.34c-3.297-0.68-6.92-1.02-10.984-0.905
		C125.599,110.944,112.967,113.21,97.919,117.625L97.919,117.625z"/>
	<path fill="none" stroke="#FFFFFF" stroke-width="3.9092" stroke-miterlimit="2.6131" d="M97.919,117.625
		c-14.829,4.416-27.13,7.474-36.357,8.944c-6.371,1.02-11.423,1.472-15.268,1.133c4.833,0.904,13.291,0,19.112-1.133
		c8.787-1.698,19.551-4.416,32.623-8.266c10.545-3.057,19.881-5.207,28.009-6.113c3.405-0.453,9.116-0.793,13.181-0.793
		c2.637,0,5.163,0.113,7.471,0.34c-3.297-0.68-6.92-1.02-10.984-0.905C125.599,110.944,112.967,113.21,97.919,117.625"/>
	<path fill="#F9C845" d="M42.34,126.229c6.261,7.021,26.471,7.021,56.457-1.812c29.986-8.944,48.659-12.683,61.071-7.699
		c-11.204-9.171-31.965-8.379-61.949,0.341C67.823,125.664,49.7,128.834,42.34,126.229L42.34,126.229z"/>
	<path fill="#EE2531" d="M41.461,125.551c6.261,7.134,26.471,7.134,56.458-1.812c29.876-8.831,48.658-12.567,61.07-7.699
		c-11.204-9.171-31.965-8.378-62.061,0.34C66.944,125.099,48.821,128.153,41.461,125.551L41.461,125.551z"/>
	<path fill="#EE2531" d="M170.304,98.491c0-0.68,0.549-1.133,1.207-1.133c0.549,0,1.1,0.453,1.1,1.133
		c0,0.679-0.551,1.244-1.1,1.244C170.853,99.735,170.304,99.17,170.304,98.491L170.304,98.491z M171.511,99.963
		c0.77,0,1.317-0.565,1.317-1.472c0-0.793-0.55-1.358-1.317-1.358s-1.428,0.565-1.428,1.358
		C170.083,99.396,170.742,99.963,171.511,99.963L171.511,99.963z M171.181,98.604h0.221l0.438,0.791h0.33l-0.438-0.791
		c0.22,0,0.328-0.113,0.328-0.453s-0.108-0.453-0.549-0.453h-0.55v1.697h0.22V98.604L171.181,98.604z M171.181,98.491v-0.566h0.33
		c0.221,0,0.329,0,0.329,0.227c0,0.228-0.22,0.341-0.329,0.341L171.181,98.491L171.181,98.491z"/>
	<path fill="#FFFFFF" d="M117.688,68.148l-2.195-3.283l0,0l0,0c-1.318-1.585-1.979-1.925-4.064-2.377
		c-1.757-0.228-3.295-0.453-4.832-0.566c-2.746-0.34-5.271-0.453-10.216-0.453c-4.942,0-7.688,0.113-10.325,0.453
		c-1.538,0.113-2.966,0.34-4.723,0.566c-2.197,0.453-2.856,0.792-4.064,2.377l0,0l0,0l-2.307,3.283
		c-0.33,0.453-0.659,1.132-0.659,2.038s0.33,1.472,0.659,1.925l2.307,3.283l0,0l0,0c1.208,1.585,1.867,2.038,4.064,2.378
		c1.757,0.227,3.186,0.453,4.723,0.679c2.636,0.227,5.382,0.34,10.325,0.34c4.833,0,7.579-0.113,10.216-0.34
		c1.537-0.227,3.075-0.453,4.832-0.679c2.088-0.34,2.746-0.792,4.064-2.378l0,0l0,0l2.195-3.283c0.33-0.453,0.66-1.019,0.66-1.925
		S118.021,68.601,117.688,68.148L117.688,68.148z"/>
	<path fill="#EE2531" d="M116.812,75.281c0-0.68,0.438-1.246,1.099-1.246c0.659,0,1.099,0.566,1.099,1.246
		c0,0.679-0.439,1.132-1.099,1.132C117.25,76.413,116.812,75.96,116.812,75.281L116.812,75.281z M117.909,76.753
		c0.77,0,1.428-0.679,1.428-1.472c0-0.906-0.658-1.472-1.428-1.472s-1.428,0.566-1.428,1.472
		C116.481,76.074,117.142,76.753,117.909,76.753L117.909,76.753z M117.58,75.394h0.329l0.439,0.68h0.219l-0.438-0.68
		c0.22-0.113,0.438-0.227,0.438-0.453c0-0.34-0.219-0.566-0.549-0.566h-0.658v1.699h0.22V75.394L117.58,75.394z M117.58,75.167
		v-0.566h0.329c0.22,0,0.33,0.113,0.33,0.34c0,0.226-0.11,0.226-0.33,0.226H117.58L117.58,75.167z"/>
	<path fill="#EE2531" d="M106.597,62.94c1.537,0.227,3.075,0.34,4.612,0.679c1.867,0.34,2.308,0.566,3.405,1.925l2.195,3.17
		c0.33,0.453,0.551,0.792,0.551,1.472c0,0.566-0.221,1.019-0.551,1.359l-2.195,3.17c-1.1,1.359-1.538,1.698-3.405,1.925
		c-1.537,0.34-3.075,0.566-4.612,0.679c-2.746,0.227-5.492,0.453-10.216,0.453c-4.833,0-7.579-0.227-10.215-0.453
		c-1.647-0.113-3.076-0.339-4.723-0.679c-1.867-0.227-2.307-0.566-3.405-1.925l-2.196-3.17c-0.22-0.34-0.439-0.793-0.439-1.359
		c0-0.679,0.22-1.019,0.439-1.472l2.196-3.17c1.099-1.358,1.538-1.585,3.405-1.925c1.647-0.339,3.076-0.453,4.723-0.679
		c2.636-0.226,5.382-0.453,10.215-0.453C101.324,62.487,103.851,62.714,106.597,62.94L106.597,62.94z M85.836,64.751
		c-1.977,0.339-2.417,0.566-3.515,1.925l-1.317,2.038c-0.33,0.339-0.55,0.906-0.55,1.472c0,0.453,0.22,1.019,0.55,1.359l1.317,2.038
		c1.099,1.359,1.538,1.585,3.515,1.925c2.417,0.34,6.59,0.566,10.544,0.566c3.846,0,8.128-0.227,10.545-0.566
		c1.977-0.34,2.307-0.566,3.404-1.925l1.429-2.038c0.22-0.34,0.438-0.906,0.438-1.359c0-0.566-0.219-1.132-0.438-1.472l-1.429-2.038
		c-1.098-1.359-1.428-1.585-3.404-1.925c-2.525-0.339-6.591-0.566-10.545-0.566S88.253,64.525,85.836,64.751L85.836,64.751z"/>
	<path fill="#006DB1" d="M86.386,72.677c0.11,0.113,0.11,0.227,0.11,0.34h2.197c-0.11-0.113-0.22-0.227-0.33-0.34l-1.538-3.057
		l1.648-2.265c0.11-0.113,0.22-0.226,0.33-0.34h-1.867c-0.11,0.114-0.11,0.227-0.22,0.34l-1.428,2.038v-2.038
		c0-0.113,0-0.226,0-0.34H83.42c0,0.114,0,0.227,0,0.34v5.321c0,0.113,0,0.227,0,0.34h1.868c0-0.113,0-0.227,0-0.34v-2.151
		L86.386,72.677L86.386,72.677z"/>
	<path fill="#006DB1" d="M89.241,67.355c0-0.113,0-0.226-0.109-0.34h2.965c0.769,0,1.977,0.227,1.977,1.585
		c0,1.132-0.659,1.585-1.208,1.698l1.318,2.377c0.11,0.113,0.11,0.227,0.22,0.34h-2.087c-0.11-0.113-0.11-0.227-0.11-0.34
		l-1.208-1.925v1.925c0,0.113,0,0.227,0.109,0.34h-1.977c0.109-0.113,0.109-0.227,0.109-0.34L89.241,67.355L89.241,67.355z
		 M90.999,69.733h0.659c0.439,0,0.659-0.226,0.659-0.679c0-0.453-0.22-0.679-0.659-0.679h-0.659V69.733L90.999,69.733z"/>
	<path fill="#006DB1" d="M104.509,67.016v1.699c-0.109-0.113-0.22-0.113-0.328-0.113h-1.867v1.019h2.086v1.358
		c-0.109,0-0.219-0.113-0.33-0.113h-1.756v1.812c0,0.113,0,0.227,0.108,0.34h-1.978c0.109-0.113,0.109-0.227,0.109-0.34v-5.321
		c0-0.113,0-0.226-0.109-0.34L104.509,67.016L104.509,67.016z"/>
	<path fill="#006DB1" d="M104.948,67.016v1.699c0.109-0.113,0.22-0.113,0.33-0.113h1.207v4.076c0,0.113,0,0.227-0.109,0.34h1.979
		c-0.11-0.113-0.11-0.227-0.11-0.34v-4.076h1.099c0.221,0,0.33,0,0.439,0.113v-1.699H104.948L104.948,67.016z"/>
	<path fill="#006DB1" d="M97.04,70.525h-0.439l0.548-2.038l0.439,2.038H97.04L97.04,70.525z M97.919,71.771l0.221,0.906
		c0,0.113,0,0.227,0,0.34h1.977c-0.109-0.113-0.109-0.227-0.109-0.34l-1.538-5.321c0-0.113,0-0.226,0-0.34h-2.526
		c0.109,0.114,0.109,0.227,0,0.34l-1.538,5.321c0,0.113-0.11,0.227-0.22,0.34h1.977c0-0.113,0-0.227,0-0.34l0.22-0.906H97.919
		L97.919,71.771z"/>
	<path fill="#EE2531" d="M63.869,114.567c-0.549,1.926-1.538,3.851-2.526,4.869l9.996-1.926c-0.659-0.792-0.549-2.943,0-5.095
		l9.007-34.079l-9.227,3.85c0.769,0.566,0.659,2.491,0.11,4.642l-5.712,21.625L63.869,114.567L63.869,114.567z"/>
	<path fill="#EE2531" d="M145.589,98.831c-0.658,0.452-2.307,1.245-2.746,1.245c-1.099,0.227-0.658-1.812-0.439-3.058l4.395-16.644
		l1.1-3.963l1.978-7.473l-8.679,3.624c0.221,0.905,0.221,2.264-0.109,3.623l-0.438,1.472l-0.989,4.076l-3.187,12.001l-1.537,6.227
		c-0.658,3.057,0.33,6.001,3.516,5.321c2.087-0.341,4.283-1.585,6.48-3.623L145.589,98.831L145.589,98.831z"/>
	<path fill="#EE2531" d="M171.812,77.95l0.106,0.73c0.084,0.93-0.011,1.954-0.299,3.054l-3.295,12.454
		c-0.55,2.038-0.659,4.189,0,5.095l-7.579,1.358c0-1.133,0.109-2.15,0.109-3.058c-2.416,2.491-3.515,3.396-6.371,3.963
		c-2.854,0.453-5.051-0.34-6.26-2.038c0,0-0.648-0.978-0.938-2.621l-0.075-0.521c-0.078-0.677-0.09-1.446,0.022-2.291
		c0.66-4.982,4.613-7.359,10.545-9.624c4.283-1.585,6.811-2.264,7.359-4.302c0.549-2.377-1.867-2.944-4.613-2.377
		c-1.647,0.339-4.395,1.585-6.15,2.944l1.316-5.095c1.869-1.019,3.955-1.698,6.043-2.038
		C167.433,72.46,171.082,74.369,171.812,77.95L171.812,77.95z M161.955,92.49c-1.978,2.604-4.174,3.963-5.492,4.303
		c-2.196,0.34-3.405-1.132-2.856-3.17c0.771-2.717,2.418-4.755,5.822-6.114c0.77-0.34,2.965-1.132,4.395-2.038L161.955,92.49
		L161.955,92.49z"/>
	<path fill="#EE2531" d="M90.669,92.943l-5.821,14.039c0,0,0.769-10.981,0.878-13.132c0-1.246,0.439-3.736,0.659-5.321L78.257,90
		c0.659,1.585,0.879,3.736,0.879,5.095l-0.549,21.059l7.03-1.244c0,0,10.544-21.399,11.313-22.644
		c0.438-0.906,1.758-3.963,3.295-6.34l-8.348,1.585C92.317,88.415,91.658,90.679,90.669,92.943L90.669,92.943z"/>
	<path fill="#EE2531" d="M136.233,83.183l0.146,1.005c0.049,0.974-0.152,2.085-0.678,3.32c-2.307,5.548-8.128,8.718-13.62,10.644
		c-0.659,3.735,0.11,6.341,2.856,5.773c2.524-0.453,6.261-3.51,8.457-7.02c0,0-0.109,2.604-0.988,4.302
		c-0.659,1.246-1.867,2.718-3.405,3.963c-1.978,1.472-4.283,2.718-7.028,3.17c-3.703,0.72-6.205-1.262-6.943-4.839l-0.176-1.216
		c-0.162-1.813,0.066-3.947,0.748-6.286c2.196-7.925,8.787-15.284,14.607-16.303C132.864,79.228,135.569,80.539,136.233,83.183
		L136.233,83.183z M122.853,94.755c1.647-5.548,4.394-10.19,6.701-10.53c1.536-0.226,1.646,1.925-0.439,4.755
		C127.465,91.245,125.049,93.283,122.853,94.755L122.853,94.755L122.853,94.755z"/>
	<path fill="#EE2531" d="M116.249,86.955l0.141,0.957c0.051,0.977-0.149,2.092-0.677,3.333c-2.307,5.548-8.237,8.718-13.729,10.643
		c-0.549,3.736,0.22,6.34,2.855,5.774c2.637-0.453,6.37-3.511,8.457-7.021c0,0,0,2.604-0.878,4.303
		c-0.659,1.246-1.868,2.718-3.405,3.963c-1.978,1.472-4.283,2.718-7.029,3.17c-5.821,1.133-8.677-4.415-6.48-12.342
		c2.307-7.924,8.787-15.284,14.609-16.302C112.853,82.962,115.593,84.287,116.249,86.955L116.249,86.955z M102.86,98.378
		c1.647-5.435,4.395-10.077,6.701-10.417c1.537-0.227,1.537,1.925-0.439,4.755c-1.757,2.265-4.062,4.303-6.37,5.774
		C102.86,98.491,102.86,98.491,102.86,98.378L102.86,98.378z"/>
	<path fill="#EE2531" d="M44.978,116.412l-0.208-1.427c-0.146-1.795,0.086-3.895,0.755-6.191
		c2.123-7.658,8.348-14.681,14.018-16.167l1.48-0.226c3.529-0.104,6.732,2.886,4.603,7.902c-2.307,5.661-8.128,8.831-13.62,10.757
		c-0.659,3.735,0.22,6.228,2.856,5.773c2.526-0.566,6.261-3.623,8.458-7.021c0,0-0.109,2.604-0.878,4.189
		c-0.769,1.246-1.977,2.831-3.515,3.963c-1.977,1.585-4.283,2.717-7.029,3.283C48.232,121.89,45.744,119.931,44.978,116.412
		L44.978,116.412z M52.775,107.549c1.757-5.548,4.394-10.188,6.7-10.528c1.647-0.228,1.647,2.037-0.439,4.754
		c-1.647,2.266-4.064,4.416-6.261,5.889V107.549L52.775,107.549z"/>
	<path fill="#EE2531" d="M135.618,80.014l-0.016-0.051l0.209-1.625c2.638-2.717,6.151-3.396,10.105-3.623
		c4.064-0.34,8.678-1.812,10.105-3.17l-0.33,1.924c0,0-1.867,2.831-6.699,4.303c-4.725,1.472-6.92,0.453-9.776,0.906
		C137.606,78.899,135.997,79.662,135.618,80.014L135.618,80.014z"/>
	<path fill="#EE2531" d="M63.229,81.943l0.01,0.048c-8.309,2.996-14.748,15.367-14.748,15.367L35.31,124.304l-9.886,1.926V97.021
		c0-1.926-0.549-5.096-1.867-6.908l12.083-2.264c-0.33,2.264-0.989,5.774-0.989,7.359c-0.109,3.057-0.439,18.229-0.439,18.229
		S41.901,94.528,43,92.264C43.986,90.118,50.111,79.295,63.229,81.943L63.229,81.943z"/>
</g>
</svg>
