<?xml version="1.0" encoding="utf-8"?>
<!-- Generator: Adobe Illustrator 16.0.0, SVG Export Plug-In . SVG Version: 6.00 Build 0)  -->
<!DOCTYPE svg PUBLIC "-//W3C//DTD SVG 1.1//EN" "http://www.w3.org/Graphics/SVG/1.1/DTD/svg11.dtd">
<svg version="1.1" id="Layer_1" xmlns="http://www.w3.org/2000/svg" xmlns:xlink="http://www.w3.org/1999/xlink" x="0px" y="0px"
	 width="175.748px" height="68.612px" viewBox="312.504 265.072 175.748 68.612"
	 enable-background="new 312.504 265.072 175.748 68.612" xml:space="preserve">
<g>
	<polygon fill="#1D1D1B" points="335.784,266.059 338.484,266.059 326.567,302.532 326.474,302.532 313.765,266.059 
		319.677,266.059 328.056,289.552 	"/>
	<polygon fill="#1D1D1B" points="342.067,301.546 342.067,266.059 359.896,266.059 359.896,268.358 347.746,268.358 347.746,282.05 
		359.199,282.05 359.199,284.35 347.746,284.35 347.746,299.246 360.083,299.246 360.083,301.546 	"/>
	<path fill="#1D1D1B" d="M364.18,301.546v-35.487h13.034c5.493,0,8.565,4.764,8.565,10.46c0,5.422-3.352,7.777-7.867,8.434
		l8.007,16.594h-6.238l-8.238-18.182h0.372c5.027,0,8.286-2.3,8.286-7.612c0-3.943-1.629-7.941-7.168-7.941h-3.071v33.735
		L364.18,301.546L364.18,301.546z"/>
	<path fill="#1D1D1B" d="M392.124,295.193c1.676,2.958,3.45,4.546,6.604,4.546c2.762,0,5.719-2.465,5.719-6.134
		c0-10.296-14.984-5.422-14.984-18.127c0-5.696,4.288-10.405,10.252-10.405c3.943,0,7.937,2.41,9.612,6.353l-2.07,1.479
		c-1.231-2.848-3.155-5.039-6.557-5.039c-3.302,0-5.225,2.793-5.225,6.189c0,8.324,14.984,4.819,14.984,17.634
		c0,6.517-5.127,10.844-10.499,10.844c-4.337,0-7.837-1.424-10.055-5.531L392.124,295.193L392.124,295.193z"/>
	<path fill="#1D1D1B" d="M429.912,289.991h-9.833l4.891-13.035L429.912,289.991L429.912,289.991z M426.688,265.072h-0.104
		l-13.734,36.474h2.966l3.382-9.255h11.603l3.59,9.255h6.503L426.688,265.072L426.688,265.072z"/>
	<path fill="#1D1D1B" d="M464.864,273.835c-2.06-3.341-4.425-6.462-8.193-6.462c-6.923,0-10.427,6.352-10.427,16.593
		c0,7.996,3.241,15.773,9.77,15.773c4.206,0,7.799-3.122,9.421-7.777l1.884,1.15c-2.584,6.682-6.922,9.42-12.354,9.42
		c-8.018,0-14.459-8.379-14.459-18.292c0-11.337,6.66-19.168,14.984-19.168c4.469,0,8.5,2.957,10.953,7.338L464.864,273.835
		L464.864,273.835z"/>
	<polygon fill="#1D1D1B" points="470.236,301.546 470.236,266.059 488.065,266.059 488.065,268.358 475.915,268.358 475.915,282.05 
		487.368,282.05 487.368,284.35 475.915,284.35 475.915,299.246 488.252,299.246 488.252,301.546 	"/>
	<path fill="#1D1D1B" d="M314.658,326.26v1.291c0,1.967,0.078,3.844,2.233,3.844c2.156,0,2.389-1.877,2.389-3.844v-16.402h2.131
		v16.578c0,4.637-1.849,5.869-4.545,5.869c-1.489,0-2.929-0.498-3.672-2.084c-0.822-1.761-0.693-4.195-0.668-5.252H314.658
		L314.658,326.26z"/>
	<polygon fill="#1D1D1B" points="325.262,333.154 325.262,311.148 334.892,311.148 334.892,313.35 327.394,313.35 327.394,320.626 
		334.429,320.626 334.429,322.827 327.394,322.827 327.394,330.954 334.943,330.954 334.943,333.154 	"/>
	<path fill="#1D1D1B" d="M345.856,324.617h-5.085l2.543-11.708h0.051L345.856,324.617L345.856,324.617z M336.483,333.154h2.362
		l1.412-6.338h6.085l1.517,6.338h2.361l-5.418-22.006h-2.824L336.483,333.154L336.483,333.154z"/>
	<path fill="#1D1D1B" d="M362.059,311.148h2.133v22.006h-3.493l-5.394-17.604c-0.308-0.998-0.539-1.995-0.719-3.315h-0.051
		c0.025,1.115,0.051,2.261,0.051,3.375v17.547h-2.131v-22.008h3.467l5.469,18.018c0.231,0.674,0.411,1.379,0.667,2.406h0.052
		c-0.025-0.793-0.052-1.645-0.052-2.465L362.059,311.148L362.059,311.148z"/>
	<path fill="#1D1D1B" d="M376.439,316.93c0.153-2.289-0.925-4.021-3.057-4.021c-3.106,0-3.439,2.229-3.439,3.933
		c0,1.525,0.59,2.465,1.822,2.992c1.028,0.439,2.029,0.88,3.057,1.32c3.646,1.555,4.312,3.021,4.312,5.927
		c0,4.167-2.285,6.603-5.982,6.603c-1.9,0-4.16-0.615-5.265-3.492c-0.411-1.084-0.385-2.846-0.411-4.02h2.132
		c-0.104,3.258,0.437,5.311,3.646,5.311c2.157,0,3.672-1.262,3.672-3.844c0-3.345-1.181-3.373-3.133-4.225
		c-1.053-0.471-2.747-1.086-3.775-1.702c-1.822-1.057-2.284-2.817-2.284-4.987c0-3.64,2.233-6.017,5.366-6.017
		c3.519,0,5.676,2.084,5.471,6.222H376.439L376.439,316.93z"/>
	<path fill="#1D1D1B" d="M396.622,317.75c-0.052-2.611-0.796-4.841-3.467-4.841c-3.697,0-3.749,6.016-3.749,8.92
		c-0.104,2.993-0.154,9.653,3.749,9.653c2.543,0,3.082-2.377,3.339-4.782c0.051-0.499,0.077-0.998,0.128-1.497h2.131
		c-0.052,0.439-0.052,0.91-0.103,1.35c-0.129,1.79-0.206,3.141-1.131,4.666c-1.001,1.584-2.337,2.465-4.185,2.465
		c-5.932,0-6.138-6.543-6.138-11.796c0-4.958,0.643-11.18,6.11-11.18c3.647,0,5.548,3.11,5.444,7.042H396.622L396.622,317.75z"/>
	<path fill="#1D1D1B" d="M412.105,321.74c-0.024,6.367-0.591,9.742-4.135,9.742s-4.107-3.375-4.135-9.742
		c-0.023-4.898,0.797-8.831,4.083-8.831C411.311,312.909,412.132,316.842,412.105,321.74L412.105,321.74z M401.629,321.682
		c0.051,6.104,0.719,12.002,6.343,12.002c5.623,0,6.317-5.897,6.343-12.002c0.025-5.047-0.667-10.974-6.291-10.974
		C402.297,310.708,401.629,316.635,401.629,321.682L401.629,321.682z"/>
	<path fill="#1D1D1B" d="M417.883,311.148h2.132v15.814c-0.024,1.73,0.231,4.52,3.646,4.52s3.672-2.787,3.646-4.52v-15.814h2.133
		v16.694c0,3.933-2.285,5.839-5.777,5.839c-3.493,0-5.778-1.906-5.778-5.839L417.883,311.148L417.883,311.148z"/>
	<polygon fill="#1D1D1B" points="431.878,311.148 443.972,311.148 443.972,313.35 438.99,313.35 438.99,333.154 436.859,333.154 
		436.859,313.35 431.878,313.35 	"/>
	<path fill="#1D1D1B" d="M446.411,311.148h2.131v15.814c-0.024,1.73,0.232,4.52,3.647,4.52c3.414,0,3.671-2.787,3.646-4.52v-15.814
		h2.131v16.694c0,3.933-2.285,5.839-5.776,5.839c-3.493,0-5.778-1.906-5.778-5.839V311.148L446.411,311.148z"/>
	<path fill="#1D1D1B" d="M464.36,313.35h3.004c1.438,0,4.03,0.088,4.083,3.873c0.052,3.844-2.723,4.021-3.724,4.049h-3.363V313.35
		L464.36,313.35z M464.36,323.473h3.724c2.516,0,3.286,1.877,3.286,4.078c0,1.469,0.206,4.196,0.668,5.604h2.491v-0.498
		c-0.515,0-0.669-0.969-0.745-1.379c-0.205-1.645-0.334-3.258-0.411-4.899c-0.309-2.937-0.924-3.845-3.415-4.108v-0.059
		c2.234-0.354,3.621-2.201,3.698-4.783c0.128-5.076-2.439-6.279-6.473-6.279h-4.955v22.008h2.132V323.473L464.36,323.473z"/>
	<polygon fill="#1D1D1B" points="477.609,333.154 477.609,311.148 487.239,311.148 487.239,313.35 479.741,313.35 479.741,320.626 
		486.776,320.626 486.776,322.827 479.741,322.827 479.741,330.954 487.291,330.954 487.291,333.154 	"/>
</g>
</svg>
