<?xml version="1.0" encoding="utf-8"?>
<!-- Generator: Adobe Illustrator 16.0.0, SVG Export Plug-In . SVG Version: 6.00 Build 0)  -->
<!DOCTYPE svg PUBLIC "-//W3C//DTD SVG 1.1//EN" "http://www.w3.org/Graphics/SVG/1.1/DTD/svg11.dtd">
<svg version="1.1" id="Layer_1" xmlns="http://www.w3.org/2000/svg" xmlns:xlink="http://www.w3.org/1999/xlink" x="0px" y="0px"
	 width="192.744px" height="192.744px" viewBox="263 264 192.744 192.744" enable-background="new 263 264 192.744 192.744"
	 xml:space="preserve">
<g>
	<polygon fill="#FFFFFF" points="263,264 455.744,264 455.744,456.744 263,456.744 	"/>
	<path d="M359.336,266.865c-51.663,0-93.543,41.882-93.543,93.543c0,51.662,41.88,93.543,93.543,93.543
		c51.661,0,93.543-41.881,93.543-93.543C452.879,308.747,410.997,266.865,359.336,266.865L359.336,266.865L359.336,266.865
		L359.336,266.865z M359.336,445.562c-47.031,0-85.155-38.125-85.155-85.154s38.125-85.156,85.155-85.156
		c47.029,0,85.155,38.126,85.155,85.156C444.491,407.438,406.365,445.562,359.336,445.562L359.336,445.562L359.336,445.562
		L359.336,445.562z"/>
	<path d="M340.692,296.786c5.915-1.73,12.17-2.657,18.644-2.657c6.464,0,12.715,0.925,18.623,2.651l0,0l-18.623,41.28
		L340.692,296.786L340.692,296.786L340.692,296.786z"/>
	<path d="M394.913,304.477c6.985,4.453,13.079,10.177,17.958,16.847l0,0l-30.566,67.64l-11.795-26.226h-22.348l-11.794,26.226
		l-30.521-67.703l0,0c4.87-6.643,10.947-12.344,17.909-16.782l0,0l24.407,54.146h22.424L394.913,304.477L394.913,304.477
		L394.913,304.477z"/>
	<path d="M295.296,343.254c-1.461,5.472-2.242,11.223-2.242,17.154c0,25.975,14.94,48.458,36.695,59.328l0,0L295.296,343.254
		L295.296,343.254L295.296,343.254z"/>
	<path d="M341,424.12c5.822,1.673,11.975,2.569,18.336,2.569c6.354,0,12.498-0.896,18.315-2.562l0,0l-18.315-40.673L341,424.12
		L341,424.12L341,424.12z"/>
	<path d="M388.921,419.736c21.755-10.87,36.694-33.354,36.694-59.328c0-5.88-0.766-11.581-2.201-17.009l0,0L388.921,419.736
		L388.921,419.736L388.921,419.736z"/>
</g>
</svg>
