<?xml version="1.0" encoding="utf-8"?>
<!-- Generator: Adobe Illustrator 16.0.0, SVG Export Plug-In . SVG Version: 6.00 Build 0)  -->
<!DOCTYPE svg PUBLIC "-//W3C//DTD SVG 1.1//EN" "http://www.w3.org/Graphics/SVG/1.1/DTD/svg11.dtd">
<svg version="1.1" id="Layer_1" xmlns="http://www.w3.org/2000/svg" xmlns:xlink="http://www.w3.org/1999/xlink" x="0px" y="0px"
	 width="192.756px" height="192.756px" viewBox="0 0 192.756 192.756" enable-background="new 0 0 192.756 192.756"
	 xml:space="preserve">
<g>
	<polygon fill-rule="evenodd" clip-rule="evenodd" fill="#FFFFFF" points="0,0 192.756,0 192.756,192.756 0,192.756 0,0 	"/>
	<path fill="#00B09B" d="M104.895,43.102c-5.978,0-9.318,0.765-15.296,1.823h-4.63c-4.278,0.941-6.623,0.647-10.901,1.177
		c-8.146,1.059-12.425,3.058-20.22,5.353c-2.637,0.765-13.187,6.294-17.172,9.294c-5.802,4.411-9.729,6.059-14.886,11.234
		c-8.557,8.588-11.839,16.47-11.839,28.529c0,6,0.293,9.999,3.516,15.059c1.876,2.94,5.686,9.353,6.447,10.47
		c1.758,2.529,3.985,2.882,6.33,4.882c4.513,3.883,6.271,7.118,11.371,10.295c5.392,3.411,12.658,6.85,18.753,8.614
		c11.898,3.471,29.307,5.091,30.713,5.562h4.63c4.161,0.882,6.389,1.411,10.55,1.411c7.268,0,11.136-1.882,18.403-2.823
		c10.433-1.412,16.41-2.294,26.021-6.529c3.518-1.529,6.213-1.117,9.554-3c5.041-2.823,7.62-5.117,11.781-9.117
		c3.164-3.059,5.666-4.415,8.381-7.882c2.362-3.018,4.089-6.896,4.676-11.425c0.586-4.412,1.126-6.281,1.126-10.692
		c0-4.235-2.52-14.823-3.457-17.294c-0.587-1.588-4.338-7-5.158-9.293c-0.703-1.941-4.688-5.765-5.803-6.765
		c-2.168-2-9.201-7.764-11.78-8.646c-1.348-0.47-9.377-5.176-13.714-6.293c-5.393-1.412-8.264-2.824-13.715-4.176
		c-2.696-0.647-4.454-0.06-6.975-1.177c-3.517-1.588-2.521-6.706-6.271-7.647C111.635,43.16,108.704,43.513,104.895,43.102
		L104.895,43.102z"/>
	
		<path fill-rule="evenodd" clip-rule="evenodd" fill="#004B85" stroke="#004B85" stroke-width="0.4079" stroke-miterlimit="2.6131" d="
		M99.734,40.572h2.375c0.254,0,0.076,0.204,0.33,0.204h5.054c0.254,0,0.216,0.204,0.318,0.204l3.861,0.102
		c0.1,0,0.062,0.204,0.316,0.204h1.562c0.254,0-0.051,0.204,0.203,0.204h1.257c0.255,0,0.04,0.11,0.131,0.168
		c0.396,0.036,0.8,0.036,1.188,0.067c0,0-0.125,0.172,0.129,0.175h2.242c0.46,0.446,1.302,0.521,1.899,0.541
		c0.056,0.097,0.14,0.28,0.232,0.34c0.194,0.036,0.566-0.085,0.82,0.068c0.292,0.178,0.559,0.376,0.8,0.44
		c0.876,0.229,1.823,0.356,2.738,0.509c0.292,0.038,0.678,0.141,0.92,0.205c0.482,0.141,1.158-0.012,1.691,0.167
		c1.473,0.497,2.771,0.6,4.327,1.218v0.474c-0.242,0.013-0.444,0.217-0.698,0.217c-0.255,0-2.206-0.37-3.285-0.548
		c-0.19-0.026-0.386-0.268-0.64-0.268h-1.358c-0.254,0,0.051-0.204-0.203-0.204h-2.578c-0.254,0-0.043-0.112-0.132-0.182
		c-0.393-0.022-0.8-0.022-1.199-0.066c0,0,0.138-0.16-0.116-0.162h-2.406c-0.085,0.089-0.02,0.206-0.273,0.206
		s-0.188-0.116-0.273-0.206h-2.609c-0.254,0.002-0.374,0.178-0.494,0.406h-2.046c-0.254,0.004-0.043-0.108-0.134-0.178
		c-0.19-0.023-0.285-0.022-0.539-0.022s-0.812,0.204-1.066,0.204c-0.255,0-0.268-0.204-0.521-0.204h-4.343
		c-0.254,0-0.063,0.204-0.317,0.204s-0.063-0.204-0.317-0.206h-2.102c-0.085,0.089-0.02,0.206-0.273,0.206s-0.457-0.204-0.711-0.204
		s-0.471-0.068-0.525,0.198h-7.03c-0.254,0.006-0.071,0.083-0.125,0.164c-0.39,0.046-0.803,0.02-1.197,0.109
		c-0.38,0.089-0.868-0.178-1.103,0.24h-1.334c-0.254,0.003-0.216,0.208-0.317,0.208l-3.251,0.102c-0.102,0-0.255,0.051-0.27,0.197
		h-2.055c-0.254,0.007-0.6,0.308-0.813,0.413l-2.936,0.098c-0.287,0.393-0.395,0.222-0.716,0.514h-1.326
		c-0.292,0.001-0.688,0.191-0.807,0.306h-1.327c-0.254,0.002-0.375,0.178-0.495,0.406h-1.334c-0.254,0.003-1.005,0.372-1.462,0.474
		c-0.458,0.102-1.076,0.178-1.521,0.305c-0.419,0.128-1.109,0.201-1.516,0.405c-0.317,0.153-1.085,0.117-1.631,0.309
		c-0.152,0.051-0.307,0.14-0.509,0.205c-0.445,0.14-1.096,0.051-1.591,0.166c-0.331,0.077-0.698,0.433-1.155,0.548
		c-0.355,0.089-0.812-0.057-1.167,0.16c-0.165,0.101-0.292,0.269-0.446,0.446c-1.084,0.159-1.823,0.488-2.445,0.717
		c-1.029,0.395-2.226,0.37-3.216,0.676c-0.33,0.102-0.604,0.406-0.948,0.546c-0.355,0.153-0.916,0.026-1.284,0.166
		c-0.66,0.255-1.293,0.764-1.966,1.057c-0.241,0.102-0.612-0.031-0.866,0.16c-0.153,0.115-0.263,0.362-0.454,0.452
		c-0.241,0.115-0.71,0.038-0.977,0.166c-0.609,0.305-1.296,0.782-2.133,0.713c-0.386,0.632-1.031,0.779-1.666,1.06
		c-0.33,0.153-0.805,0.04-1.186,0.167c-0.254,0.076-0.477,0.533-0.744,0.648c-1.13,0.51-2.038,1.029-3.148,1.733
		c-0.337,0.104-0.826,0.115-1.003,0.501c-0.832,0.266-1.631,0.667-2.454,1.233c-0.278,0.041-0.702,0.186-0.968,0.364
		c-0.482,0.319-1.146,0.742-1.833,1.124c-0.8,0.434-1.619,1.194-2.376,1.772c-0.478,0.144-0.887,0.552-1.385,0.676
		c-0.093,0.071-0.182,0.261-0.235,0.34c-0.288,0.046-0.595,0.353-0.887,0.375c-0.089,0.07-0.081,0.266-0.228,0.438
		c-0.478,0.248-0.833,0.744-1.327,1.024c-0.229,0.127-0.612,0.244-0.879,0.371c-0.356,0.178-0.5,0.595-0.843,0.85
		c-0.762,0.548-1.685,1.144-2.396,1.793c-0.317,0.28-0.595,0.699-0.849,0.954c-0.039,0.039-0.305,0.102-0.445,0.242
		c-0.165,0.166-0.193,0.461-0.333,0.577c-1.193,0.994-2.692,2.086-3.386,3.461c-0.074,0.048-0.175,0.251-0.281,0.317
		c-0.537,0.219-0.763,0.974-1.246,1.419c-0.204,0.192-0.405,0.509-0.608,0.713c-0.203,0.204-0.461,0.535-0.608,0.814
		c-0.074,0.047-0.306,0.103-0.446,0.243c-0.165,0.166-0.085,0.557-0.263,0.773c-2.501,3.097-4.36,7.326-5.617,10.832
		c-0.267,0.764-0.431,1.714-0.608,2.542c-0.317,1.402-0.33,2.953-0.532,4.479l0.102,6.111c0.533,3.974,1.948,8.083,3.716,10.993
		c0.04,0.105,0.042,0.315,0.065,0.411c0.683,1.217,1.315,2.397,2.127,3.558c0.978,1.389,1.967,2.942,3.148,4.484
		c0.813,1.07,2.199,1.698,2.986,2.884c0.851,1.287,1.726,1.796,2.84,2.543c0.146,0.278,0.328,0.189,0.544,0.406
		c0.622,0.624,0.958,0.912,1.683,1.422c0.406,0.293,0.672,0.802,1.053,1.057c0.8,0.535,1.698,1.464,2.536,1.935
		c0.762,0.421,1.672,0.848,2.307,1.396c0.508,0.434,1.59,0.988,2.225,1.319c0.711,0.369,1.364,0.895,1.994,1.376h-0.371
		c-0.42-0.296-0.818-0.495-1.194-0.694c-0.074,0.088-0.059-0.051-0.059,0.204s1.259,0.989,1.907,1.397
		c0.165,0.102,0.486,0.133,0.776,0.167c0.055,0.096,0.155,0.296,0.238,0.443c0.458-0.007,0.559,0.307,0.915,0.51
		c0.254,0.141,0.635,0.236,0.889,0.236c0.026,0,0.332,0.166,0.488-0.403c0.756,0.41,1.705,0.662,2.543,1.045
		c0.267,0.114,0.446,0.384,0.676,0.562h-0.405c-0.254,0.02-0.086-0.097-0.172-0.188c-0.082,0.003-0.147-0.012-0.236,0.066
		c0.101,0.277,0.288,0.458,0.478,0.616c1.7,0.137,2.957,1.539,4.645,1.7c0.055,0.096,0.139,0.279,0.235,0.34
		c0.972,0.33,1.889,0.841,2.842,1.223c0.368,0.153,0.937,0.05,1.279,0.165c0.28,0.089,0.435,0.319,0.752,0.446
		c0.178,0.064,0.441-0.021,0.581,0.068c0.177,0.115,0.253,0.287,0.431,0.338c0.584,0.166,1.216,0.241,1.803,0.375
		c0.215,0.239,0.449,0.252,0.601,0.302c0.432,0.166,1.138,0.481,1.392,0.481s0.254-0.204,0.375-0.199
		c0.118,0.112,0.317,0.415,0.508,0.573c0.292,0.034,0.857,0.136,1.111,0.138h0.579c0.083-0.089,0.068-0.257,0.083-0.496h0.588v0.316
		c0.007,0.255-0.11,0.061-0.197,0.135l0.087,0.16c0.994,0.293,2.167,0.46,3.094,0.83c0.724,0.293,1.608,0.278,2.433,0.508
		c0.546,0.152,1.049,0.381,1.687,0.498c0.064,0.385,0.36,0.459,0.564,0.529c0.379,0.481,1.82,0.666,2.535,0.608
		c0.059,0.099,0.26,0.196,0.344,0.346c0.486,0.03,1.091,0.234,1.345,0.234s0.508-0.204,0.762-0.204c0.254,0,0.955,0.194,1.4,0.334
		c0.203,0.063,0.328,0.38,0.582,0.38s0.203-0.051,0.218-0.196h1.445c0.254-0.008,0.066-0.075,0.104-0.171
		c0.096-0.038,0.214-0.041,0.468-0.041c0.584,0,0.75,0.51,1.016,0.51c0.254,0,0.311-0.073,0.431-0.298
		c0.128-0.008,0.027,0.196,0.281,0.196h1.969c0.254,0,0.266,0.306,0.521,0.306c0.254,0,0.254-0.051,0.285-0.199
		c0.259,0.215,0.468,0.324,0.642,0.608c0.167-0.098,0.348-0.177,0.487-0.408c0.247,0.218,0.45,0.523,0.625,0.714
		c0.173-0.098,0.348-0.256,0.363-0.503h0.43c0.254-0.008,0.039,0.102,0.135,0.162c0.501,0.138,1.041-0.025,1.485,0.166
		c0.267,0.114,0.628,0.479,0.881,0.479c0.254,0,0.661-0.102,0.946-0.098c0.085-0.091,0.07-0.361,0.09-0.503
		c0.552,0.131,0.467,0.323,0.934,0.5c0.077-0.088,0.062-0.256,0.077-0.5h0.368c0.13,0.205,0.29,0.805,0.632,0.805
		c0.254,0,0.67-0.112,1.052-0.239c0.241-0.076,0.167-0.475,0.421-0.466h0.344c0.012,0.145,0.099,0.312,0.184,0.403
		c0.184-0.004,0.342-0.281,0.462-0.508h0.354c0.318,0.314,0.42,0.723,0.708,1.019h1.277c0.069-0.122,0.448-0.302,0.285-0.706h0.349
		c0.254-0.013,0.043,0.419,0.162,0.613c0.167,0.095,0.396,0.291,0.65,0.291s0-0.203,0.254-0.203h1.422
		c0.254,0-0.051-0.204,0.204-0.202h1.556c0.084-0.089,0.177-0.28,0.297-0.5h0.673c0.014,0.141-0.116,0.289-0.301,0.372v0.332h1.331
		c0.254-0.002-0.052,0.201,0.202,0.204h0.235c0.18-0.285,0.275-0.579,0.396-0.913h0.863c0.32,0.314,0.721,0.411,1.113,0.71h0.374
		c0.082-0.09,0.066,0.048,0.066-0.207s-0.151-0.204-0.29-0.219c-0.015-0.139,0.093-0.263,0.213-0.483h0.977v0.384
		c-0.137,0.013-0.304,0.1-0.391,0.165c0.188,0.168,0.355,0.357,0.609,0.357c0.343,0,0.589-0.736,0.735-1.008h1.181
		c0.014,0.446-0.206,0.163-0.494,0.744c0.087,0.074,0.254,0.06,1.147,0.064c0.326-0.383,1.139,0.024,1.102-0.805h0.48
		c0.014,0.239-0.001,0.407,0.186,0.598h2.615c0.438-0.127,0.211-0.509,0.279-0.812h0.794c0.254-0.006,0.087,0.111,0.172,0.202
		c0.184-0.004,0.24-0.18,0.364-0.406c0,0,0.144-0.002,0.223,0.034c0.215,0.475,0.499,0.368,0.867,0.368c0.254,0,0.346,0,0.54-0.035
		c0.093-0.06,0.186-0.256,0.35-0.369v0.505c0.369-0.1,1.04,0.001,1.294,0.001c0.255,0,0.604-0.102,0.897-0.137
		c0.092-0.06,0.151-0.209,0.316-0.337c0.343-0.267,1.008-0.238,1.509-0.376c0.095-0.06,0.074-0.237,0.116-0.337
		c0.306-0.036,0.769-0.343,1.022-0.343s0.203,0.204,0.457,0.204s0.104-0.067,0.146-0.168c0.307-0.036,0.609-0.036,0.904-0.071
		c0.091-0.059,0.176-0.245,0.291-0.439c0.426-0.098,1.25,0.3,1.212-0.529h0.468c0.026,0.339-0.077,0.733-0.011,1.006
		c0.271-0.258,0.521-0.347,0.459-0.701c0.442,0.089,0.493-0.423,0.861-0.414h0.64v0.534c0.095,0.084,0.059,0.171,0.312,0.171
		c0.674,0,0.828-0.661,0.722-1.101c0.142-0.021,0.336-0.02,0.52-0.05c0.087-0.15,0.293-0.459,0.435-0.651
		c0.196-0.033,0.56-0.136,0.813-0.136s0.305,0.307,0.559,0.307s0.863-0.51,1.117-0.51c0.255,0,0.305,0.203,0.56,0.203
		c0.254,0,0.501-0.203,0.785-0.233c0.086-0.149,0.332-0.378,0.574-0.362v0.37c-0.423,0.221-0.943,0.327-1.419,0.411v0.25
		c0,0-0.093,0.075,0.161,0.075s1.716-0.407,2.574-0.604c0.127-0.189,0.12-0.451,0.021-0.794c0.535-0.23,1.266-0.336,1.924-0.3
		c-0.325,0.261-0.747,0.268-1.123,0.352v0.562c0.095,0.084,0.008,0.069,0.262,0.069s0.799-0.406,1.3-0.544
		c0.095-0.061,0.176-0.135,0.276-0.413c-0.089-0.078-0.256-0.062-0.495-0.078v-0.377c0.538-0.078,0.273-0.464,0.521-0.824h0.456
		c0.258,0.386,0.47,0.299,0.482,0.299c0.254,0,0.799-0.304,1.29-0.436c0.089-0.151,0.188-0.352,0.308-0.575h0.361
		c0.118,0.224,0.321,0.224,0.389,0.4c0.364-0.297,0.864-0.596,1.21-0.99c0.298-0.03,0.56-0.076,0.813-0.204
		c0.152-0.076,0.513,0.037,0.792-0.065c0.229-0.089,0.605-0.267,0.898-0.398c0.092-0.154,0.091-0.356,0.199-0.544
		c0.312-0.236,1.003-0.45,1.257-0.45s0.152,0.204,0.406,0.204s0.365-0.183,0.509-0.376c0.299-0.031,0.708-0.056,1.102-0.17
		c0.458-0.14,0.589-0.88,1.285-0.619c-0.152,0.043-0.333,0.14-0.519,0.224v0.448c0.062-0.017,0.112,0.085,0.366,0.085
		s0.515-0.447,0.708-0.603c0.181-0.104,0.383-0.103,0.537-0.196c0.156-0.332,0.586-0.485,0.44-1.022h0.321
		c0.081-0.189-0.026-0.473-0.012-0.713c0.239-0.015,0.493-0.32,0.748-0.32c0.254,0,0.23,0.11,0.494,0.307
		c0.07-0.177,0.064-0.358,0.079-0.604h0.328c0.254-0.008,0.252,0.211,0.326,0.299c0.11-0.061,0.502-0.425,0.588-0.672
		c0.473-0.241,0.902-0.664,1.332-1.132c0.304-0.094,0.905-0.034,1.112-0.71c0.307-0.036,0.633,0.058,0.899-0.07
		c0.165-0.076,0.419-0.271,0.603-0.301c0.087-0.15,0.19-0.357,0.328-0.547c0.7-0.25,1.021-0.853,1.732-0.853
		c0.178,0,0.346,0.059,0.509,0.307c0.366-0.491,0.876-1.207,1.419-1.802c2.311-0.771,3.659-3.276,5.249-4.236
		c0.449-0.831,1.081-1.681,1.831-2.042c0.093-0.154,0.194-0.461,0.322-0.666c0.077-0.104,0.295-0.117,0.447-0.209
		c0.195-0.483,0.461-0.493,0.601-0.901c0.241-0.688,0.742-1.056,1.123-1.643c0.355-0.535,0.643-1.112,0.884-1.716
		c0.096-0.038,0.271-0.118,0.332-0.214c0.239-0.81,0.746-1.522,0.979-2.347c0.08-0.11,0.18-0.106,0.241-0.204
		c0.569-1.437,1.393-3.225,1.685-4.754c0.013-0.063,0.203-0.242,0.241-0.433c0.152-0.804,0.368-1.632,0.508-2.346
		c0.051-0.293,0.139-0.641,0.139-0.896v-1.962c0-0.255,0.305-1.046,0.305-1.301v-4.715c0-0.511-0.558-3.515-0.584-3.897
		c-0.114-1.67-0.582-3.471-0.977-5.153c-0.444-1.861-1.153-3.778-1.928-5.703c-0.33-0.815-1.015-1.667-1.46-2.649
		c-0.165-0.369-0.24-0.967-0.469-1.426c-0.381-0.765-1.015-1.515-1.46-2.344c-0.368-0.688-0.51-1.21-1.119-1.775
		c-0.004-0.225-0.393-0.504-0.706-0.77c-0.146-0.42-0.412-1.252-1.13-1.209c-0.121-0.333-0.223-0.74-0.359-1.142
		c-0.062-0.097-0.296-0.05-0.436-0.19c-0.165-0.166-0.158-0.454-0.272-0.619c-0.102-0.153-0.381-0.229-0.532-0.331
		c-0.166-0.115-0.344-0.382-0.534-0.65c-0.085-0.018-0.192-0.02-0.308-0.065c-0.569-0.827-1.103-1.516-1.565-2.208
		c-0.156-0.095-0.344-0.089-0.536-0.133c-0.202-0.213-0.543-0.899-1.126-1.025c-0.104-0.29-0.427-0.411-0.709-0.508
		c-0.215-0.344-0.794-0.97-0.787-1.404c-0.147-0.083-0.29-0.148-0.455-0.263c-0.165-0.115-0.432,0.039-0.583-0.063
		c-0.166-0.114-0.386-0.194-0.513-0.31c-0.482-0.408-0.845-0.886-1.223-1.378c-0.17,0.098-0.192,0.205-0.446,0.205
		s-0.457-0.204-0.799-0.22c0.037-0.917-1.069-1.233-1.579-1.249c-0.242-0.173-0.355-0.388-0.542-0.654
		c-0.284-0.019-0.693-0.02-0.991-0.064c-0.143-0.179-0.354-0.506-0.384-0.689c-0.466-0.24-1.585-1.305-2.271-1.314h-0.331
		c-0.012-0.144-0.107-0.325-0.191-0.508c-0.074,0.008-0.125,0.059-0.14,0.198h-0.374c-0.118-0.42-0.623-0.933-1.315-0.708
		c-0.086-0.713-0.664-0.582-1.083-0.747c-0.457-0.179-0.943-0.513-1.158-1.068c-0.363-0.116-0.931,0.174-0.998-0.422
		c-0.151,0.192-0.565,0.198-0.899,0.411c-0.739-0.52-1.979-1.631-2.234-1.631c-0.254,0-0.254,0.051-0.278,0.196
		c-0.455-0.202-1.194-0.707-1.448-0.707s-0.305,0.204-0.559,0.204c-0.636,0-1.41-0.917-1.677-0.917
		c-0.254,0-0.254,0.204-0.508,0.204s-0.714-0.276-0.93-0.569c-0.09-0.128-0.232-0.377-0.316-0.558h-0.263
		c-0.081,0.092-0.066,0.311-0.32,0.311s-0.711-0.306-1.156-0.321V57.17c-1.091-0.272-2.229-0.654-3.313-0.839
		c-0.142-0.179-0.203-0.363-0.457-0.363s-0.102,0.204-0.355,0.204c-0.102,0-0.514-0.345-1.212-0.243
		c-0.203,0.026-0.563,0.021-0.817-0.107c-0.178-0.089-0.358-0.364-0.612-0.364s-0.254,0.051-0.284,0.2
		c-0.994-0.889-2.604-0.866-3.686-1.27c-0.405-0.715-1.759,0.004-2.432-0.404c-0.165-0.102-0.354-0.362-0.608-0.362
		s-0.559,0.204-0.812,0.204s-0.712-0.204-1.15-0.216c-0.259-1.535-1.932-0.273-2.415-1.417c-0.157,0.19-0.559,0.284-0.818,0.611
		c-0.036-0.253-0.132-0.434-0.215-0.621h-1.636c-0.014-0.142,0.001-0.208-0.084-0.298c-0.285,0.004-0.336,0.208-0.59,0.208
		c-0.432,0-0.743-0.945-0.794-1.047c-0.115-0.216-0.259-0.497-0.426-0.687c-0.065,0.088-0.051,0.051-0.051,0.306
		s0.198,0.334,0.298,0.549v0.352c-0.438,0.117-0.968,0.118-1.511-0.002v-0.363c-0.006-0.255,0.197,0.076,0.197-0.179
		c0-0.254-0.305-0.751-0.287-1.007v-0.876c0.326,0.322,0.611,0.075,1.286,0.01c0.017,0.14-0.002,0.305,0.188,0.462
		c1.57,0.086,3.309-0.192,4.769,0.203c0.381,0.102,0.804,0.037,1.192,0.068c0.155,0.192,0.249,0.286,0.439,0.443
		c0.493,0.035,1.264,0.035,1.518,0.042h1.345c0.014,0.146-0.01,0.204,0.08,0.262c0.8,0.036,1.618,0.241,2.415,0.377
		c0.154,0.298,0.45,0.591,0.738,0.886h0.371c0.081-0.09,0.066-0.36,0.098-0.509c0.259,0.215,0.528,0.506,0.781,0.506
		c0.254,0,0.56-0.204,0.813-0.204s1.582,0.409,2.48,0.545c0.054,0.095,0.255,0.193,0.341,0.342c0.753,0.082,1.676,0.3,2.324,0.504
		c0.292,0.089,0.737-0.012,0.979,0.064c1.372,0.472,2.407,0.712,3.876,1.028c0.192,0.414,1.236,0.402,1.618,0.606
		c0.189,0.102,0.369,0.376,0.623,0.376s0.152-0.051,0.179-0.197c0.559,0.307,1.312,0.621,1.974,0.876
		c0.368,0.14,0.835,0.05,1.179,0.165c0.279,0.089,0.469,0.298,0.661,0.555c1.003,0.337,2.17,0.528,3.199,0.873
		c0.203,0.063,0.342,0.312,0.558,0.452c0.076,0.051,0.285,0.031,0.477,0.069c0.054,0.205,0.166,0.361,0.331,0.437
		c1.066,0.536,2.253,1.004,3.409,1.387c0.063,0.013,0.236,0.229,0.363,0.356c0.165,0.166,0.6,0.28,0.854,0.356
		c0.064,0.013,0.206,0.25,0.358,0.352c0.165,0.114,0.526,0.047,0.769,0.162c0.381,0.191,0.739,0.583,1.229,0.72
		c0.052,0.093,0.032,0.174,0.132,0.237c0.709,0.343,1.318,0.75,2.005,1.091c0.048,0.09,0.132,0.273,0.229,0.334
		c0.097,0.037,0.294,0.035,0.412,0.067c0.216,0.293,0.419,0.394,0.604,0.646c1.158-0.018,1.907,0.881,2.829,1.411
		c-0.032,0.894,0.753,0.719,1.256,0.993c-0.019,0.831,0.847,0.378,1.062,0.518c0.444,0.268,0.729,0.807,1.161,1.164
		c0.229,0.191,0.546,0.191,0.774,0.369c0.279,0.229,0.658,0.599,0.951,1.058c0.393,0.132,0.714,0.346,0.991,0.587
		c0.044,0.194,0.146,0.504,0.165,0.689c0.266,0.188,0.473,0.497,0.77,0.759c0.093,0.034,0.189,0.033,0.306,0.064
		c0.469,0.558,0.657,0.789,1.095,1.034c0.084,0.75,0.896,0.898,1.213,1.216c0.547,0.574,0.413,1.514,1.352,1.6
		c0.385,0.798,1.335,1.736,1.805,2.487c1.193,1.925,1.972,4.059,2.908,6.093c0.073,0.098,0.178,0.102,0.243,0.207
		c0.548,1.329,1.057,2.76,1.486,4.079c0.071,0.095,0.151,0.18,0.233,0.219c0.354,1.32,0.914,2.609,1.23,3.999
		c0.788,3.466,1.64,7.168,1.987,10.46c0,0,0.033,0.078,0.179,0.094v6.65c0.008,0.255-0.104,0.043-0.174,0.133
		c-0.022,0.293-0.022,0.701-0.065,1.087c0,0-0.068,0.047-0.139,0.138c-0.353,2.282-0.595,4.508-1.179,6.382
		c-0.725,2.318-1.78,4.695-2.847,7.078c-0.344,0.778-0.929,1.455-1.322,2.246c-0.508,1.031-1.274,2.123-1.935,3.027
		c-0.165,0.229-0.654,0.396-0.743,0.639c-0.254,0.637-0.42,0.899-0.89,1.308c-0.038,0.038-0.294,0.151-0.478,0.17
		c-0.188,0.268-0.241,0.627-0.432,0.844c-0.406,0.484-0.953,0.688-1.359,1.16c-0.216,0.242-0.153,0.677-0.368,0.919
		c-0.369,0.396-1.02,0.633-1.224,1.188c-0.188,0.05-0.354,0.151-0.506,0.304c-0.038,0.038-0.296,0.053-0.481,0.072
		c-0.289,0.37-0.876,0.627-1.282,1.086c-0.495,0.549-0.937,1.221-1.389,1.802c-0.567,0.312-0.964,0.789-1.49,0.883
		c-0.456,0.725-1.352,1.125-1.936,1.431c-0.178,0.089-0.38,0.349-0.433,0.539c-0.698,0.141-1.771,0.578-2.338,1.429
		c-0.48,0.25-0.895,0.585-1.339,0.725c-0.152,0.051-0.488,0.073-0.666,0.162c-0.432,0.218-0.765,0.529-1.146,0.848
		c-0.217,0.179-0.494,0.229-0.799,0.279c-0.216,0.038-0.285,0.374-0.531,0.543c-0.881,0.347-1.783,0.895-2.646,1.226
		c-0.445,0.166-1.02,0.263-1.477,0.568c-0.165,0.103-0.355,0.389-0.559,0.453c-0.444,0.14-1.014,0.088-1.483,0.267
		c-0.381,0.14-0.709,0.509-1.052,0.648c-0.051,0.025-0.6,0.109-0.8,0.4c-0.799,0.364-1.744,0.246-2.24,0.921
		c-0.359,0.084-1.019,0.082-1.427,0.513c-0.386,0.044-0.895,0.181-1.225,0.309c-0.152,0.051-0.496-0.058-0.662,0.058
		c-0.164,0.114-0.261,0.259-0.451,0.349c-0.241,0.114-0.643,0.231-0.923,0.309c-0.443,0.127-0.988,0.346-1.481,0.368
		c-0.089,0.069-0.177,0.259-0.232,0.34c-1.446,0.097-3.207,0.683-4.654,0.887c-0.19,0.025-0.267,0.15-0.387,0.375
		c-0.129,0.008-0.129-0.196-0.383-0.196s-0.41,0.237-0.677,0.365c-0.14,0.063-0.493,0.003-0.785,0.067
		c-0.114,0.024-0.266,0.14-0.318,0.331c-0.801,0.153-1.513,0.256-2.306,0.374c-0.086,0.162-0.297,0.377-0.517,0.592
		c-0.121,0.004-0.259-0.113-0.344-0.204c-0.184,0.004-0.288,0.232-0.479,0.271s-0.581,0.039-0.836,0.039h-2.006
		c-0.254,0-0.594,0.195-0.913,0.407h-1.932c-0.254,0.001-2.4,0.816-2.654,0.816s-0.451-0.13-0.534-0.312
		c-0.075,0.007-0.235,0.085-0.352,0.266c-0.667,0.123-1.583-0.223-1.932,0.451h-1.64c-0.254,0.004-0.216-0.2-0.47-0.2
		s-0.726,0.189-1.048,0.506c-0.223,0.004-0.477-0.302-0.73-0.302s-0.605,0.102-0.896,0.124c-0.089,0.069-0.17,0.232-0.197,0.38
		c-0.585-0.359-0.328-0.402-0.938-0.402c-0.254,0-0.457,0.204-0.712,0.204c-0.254,0-0.152-0.204-0.406-0.204s-0.361,0.176-0.481,0.4
		c-0.229,0.008-0.331-0.196-0.585-0.196s-0.406,0.204-0.66,0.204s-0.305-0.204-0.56-0.204c-0.254,0-0.305,0.204-0.559,0.204
		s-0.254-0.204-0.508-0.204s0,0.204-0.254,0.204h-4.063c-0.254,0,0,0.204-0.254,0.204s0-0.204-0.254-0.204h-4.61
		c-0.254,0-0.043-0.112-0.136-0.184c-0.092-0.022-0.232-0.021-0.486-0.021s-0.863,0.204-1.117,0.204
		c-0.254,0-1.728-0.408-1.981-0.408s-0.203,0.051-0.218,0.197h-1.242c-0.254,0.007-0.043-0.105-0.133-0.175
		c-0.19-0.022-0.553-0.124-0.807-0.124h-2.68c-0.254,0,0.051-0.204-0.203-0.204s-0.102,0.204-0.356,0.204
		c-0.254,0-0.063-0.204-0.317-0.204h-1.905c-0.254,0-0.043-0.112-0.132-0.182c-0.392-0.022-0.803,0.003-1.209-0.061
		c-0.203-0.025-0.297-0.268-0.551-0.268c-0.254,0-0.102,0.204-0.356,0.204s-0.349-0.229-0.434-0.391
		c-0.182-0.018-0.277-0.018-0.531-0.018c-0.254,0-0.609,0.204-0.863,0.204s-0.47-0.408-0.724-0.408h-1.803
		c-0.254,0-3.022-0.611-3.276-0.611h-1.295c-0.254,0-0.043-0.112-0.132-0.182c-0.291-0.022-0.598-0.023-0.902-0.071
		c-0.041-0.085-0.243-0.183-0.326-0.362h-1.992c-0.254,0.003-0.831-0.303-1.237-0.352c-0.042-0.085-0.104-0.309-0.307-0.333
		c-1.104-0.167-2.486-0.227-3.16-0.717c-0.291-0.023-0.735,0.166-1.116,0.039c-0.546-0.179-1.101-0.624-1.621-0.751
		c-0.292-0.064-0.679-0.116-0.92-0.206c-0.279-0.102-0.699-0.022-1.097-0.066c0,0-0.033-0.068-0.123-0.138
		c-0.291-0.022-0.702-0.01-1.006-0.062c-0.203-0.038-0.449-0.267-0.703-0.267s-0.203,0.204-0.324,0.2
		c-0.423-0.419-0.896-0.737-1.417-0.891c-0.876-0.268-1.865-0.14-2.716-0.369c-0.699-0.179-1.285-0.842-1.958-1.059
		c-0.711-0.217-1.833,0.037-2.145-0.643c-0.075,0.008-0.126,0.16-0.14,0.299c-0.138,0.015-0.168-0.199-0.258-0.269
		c-0.19-0.023-0.5-0.126-0.694-0.171c-0.141-0.178-0.285-0.441-0.526-0.544c-0.483-0.204-1.035-0.214-1.594-0.367
		c-0.191-0.051-0.356-0.273-0.649-0.452c-0.545-0.344-1.349-0.326-1.997-0.568c-0.191-0.064-0.347-0.277-0.54-0.449
		c-0.09-0.021-0.306,0.081-0.483,0.043c-0.203-0.052-0.372-0.371-0.626-0.447c-0.38-0.128-0.753-0.231-1.096-0.371
		c-0.508-0.217-0.777-0.863-1.532-0.819c-0.045-0.088-0.245-0.185-0.331-0.346c-0.943-0.106-0.986-0.464-1.91-0.679
		c-0.04-0.084-0.125-0.266-0.213-0.335c-0.392-0.022-0.742-0.193-1.097-0.372c-0.05-0.025-0.171-0.232-0.336-0.348
		s-0.523-0.059-0.777-0.16c-0.407-0.166-0.678-0.723-1.222-0.715c-0.146-0.182-0.17-0.348-0.335-0.449
		c-0.661-0.408-1.311-0.836-2.015-1.09c-0.038-0.082-0.237-0.279-0.326-0.442c-0.083-0.017-0.297-0.021-0.384-0.065
		c-0.415-0.609-1.3-0.771-1.723-1.018c-1.033-0.921-1.96-1.894-3.351-2.547c-0.743-0.681-1.55-1.391-2.349-1.949
		c-0.134-0.384-0.46-0.768-0.867-1.073c-3.377-2.575-6.232-6.192-8.886-9.734c-0.571-0.765-0.979-1.851-1.487-2.615
		c-0.102-0.153-0.358-0.234-0.448-0.413c-0.609-1.173-1.337-2.329-1.69-3.571c-0.06-0.096-0.159-0.092-0.239-0.2
		c-0.333-0.925-0.803-1.829-1.12-2.696c-1.168-3.135-1.971-6.156-2.302-9.66c-0.025-0.332-0.267-0.859-0.267-1.114v-7.265
		c0-0.255,0.572-3.679,0.877-5.501c0.14-0.879,0.383-1.919,0.611-2.658c0.406-1.3,0.635-2.589,1.08-3.851
		c0.165-0.471,0.536-0.923,0.751-1.356c0.178-0.37,0.218-0.985,0.472-1.406c2.083-3.442,4.859-8.192,7.665-10.945
		c0.166-0.166,0.216-0.535,0.369-0.688c0.85-0.853,1.676-1.784,2.54-2.651c0.343-0.344,0.965-0.548,1.295-0.879
		c0.292-0.293,0.6-0.661,0.836-1.157c1.319-0.826,2.604-1.833,4.052-2.624c0.165-0.089,0.287-0.354,0.424-0.543
		c1.066-0.44,1.851-2.292,3.127-2.208c0.222-0.65,1.211-1.153,1.727-1.669c0.416-0.17,1.248,0.339,1.21-0.527
		c0.342-0.017,0.663-0.024,0.93-0.152c0.165-0.076,0.282-0.447,0.536-0.549c0.457-0.191,1.016-0.375,1.384-0.668
		c0.14-0.114,0.105-0.397,0.219-0.562c0.114-0.166,0.392-0.317,0.639-0.505c1.291,0.203,1.484-0.828,2.405-1.081
		c0.095-0.061,0.074-0.135,0.114-0.234c1.141-0.229,1.618-0.896,2.544-1.533c0.432-0.293,1.095-0.435,1.616-0.746
		c0.115-0.002,0.166,0.202,0.419,0.202c0.254,0,0.257-0.066,0.296-0.165c0.608-0.139,1.123-0.345,1.719-0.38
		c0.496-0.363,1.097-0.661,1.539-1.154c1.079-0.363,1.935-0.487,2.951-1.022c0.419-0.216,1.016-0.234,1.612-0.374
		c0.241-0.051,0.551-0.322,0.817-0.538c0.229-0.191,0.711-0.138,0.994-0.168c0.187-0.352,0.503-0.774,0.848-1.063
		c0.702-0.029,1.517-0.067,2.33-0.067c0.203,0,0.4-0.267,0.694-0.303c0.091-0.059,0.088-0.261,0.201-0.343
		c0.216-0.029,0.476-0.233,0.73-0.233s0.203,0.204,0.458,0.204c0.253,0,0.426-0.192,0.667-0.379c0.75-0.066,1.655-0.294,2.34-0.511
		c0.267-0.076,0.555-0.1,0.809-0.202s0.611,0.037,0.891-0.065c0.534-0.191,1.021-0.498,1.554-0.651
		c0.165-0.039,0.511,0.067,0.777-0.061c0.356-0.178,0.899-0.579,1.153-0.577h1.594c0.084-0.089,0.174-0.273,0.217-0.374
		c0.408-0.037,0.919-0.24,1.173-0.24s0.152,0.204,0.406,0.204s0.105-0.066,0.147-0.167c0.511-0.036,1.032-0.021,1.514-0.174
		c0.178-0.051,0.241-0.224,0.419-0.338c0.152-0.102,0.371-0.136,0.625-0.133h1.387c0.146-0.223,0.493-0.615,0.785-0.615
		c0.254,0,0.203,0.204,0.458,0.204c0.254,0,0.4-0.242,0.705-0.28c0.915-0.115,1.96,0.053,2.76-0.202
		c0.267-0.076,0.607,0.039,0.886-0.063c0.229-0.089,0.525-0.373,0.78-0.373c0.254,0,0.609,0.204,0.863,0.204
		c0.051,0,0.385-0.012,0.591-0.202h1.428c0.254-0.002,0.215-0.207,0.316-0.207c2.5-0.14,4.37-0.279,7.011-0.306
		c0.102,0,0.254-0.051,0.269-0.196h5.472C99.785,40.776,99.48,40.572,99.734,40.572L99.734,40.572z"/>
	
		<path fill-rule="evenodd" clip-rule="evenodd" fill="#004B85" stroke="#004B85" stroke-width="0.4079" stroke-miterlimit="2.6131" d="
		M112.992,50.666c0.102,0,0.124,0.198-0.129,0.298C112.84,50.819,112.891,50.666,112.992,50.666L112.992,50.666z"/>
	
		<path fill-rule="evenodd" clip-rule="evenodd" fill="#004B85" stroke="#004B85" stroke-width="0.4079" stroke-miterlimit="2.6131" d="
		M42.218,138.275c0.015,0.128,0.101,0.296,0.167,0.434c-0.137-0.065-0.341-0.167-0.556-0.434H42.218L42.218,138.275z"/>
	
		<polygon fill-rule="evenodd" clip-rule="evenodd" fill="#004B85" stroke="#004B85" stroke-width="0.4079" stroke-miterlimit="2.6131" points="
		43.401,139.525 43.604,139.525 43.401,139.525 	"/>
	
		<path fill-rule="evenodd" clip-rule="evenodd" fill="#004B85" stroke="#004B85" stroke-width="0.4079" stroke-miterlimit="2.6131" d="
		M43.657,139.6h0.483c0.12,0.208,0.415,0.195,0.632,0.446C44.295,140.249,43.896,139.798,43.657,139.6L43.657,139.6z"/>
	
		<path fill-rule="evenodd" clip-rule="evenodd" fill="#004B85" stroke="#004B85" stroke-width="0.4079" stroke-miterlimit="2.6131" d="
		M50.466,142.36c0.352-0.031,0.453,0.173,0.656,0.224C50.919,142.635,50.578,142.519,50.466,142.36L50.466,142.36z"/>
	
		<path fill-rule="evenodd" clip-rule="evenodd" fill="#004B85" stroke="#004B85" stroke-width="0.4079" stroke-miterlimit="2.6131" d="
		M53.001,143.306c0.271,0.046,0.582,0.049,0.812,0.22h-0.594C53.205,143.399,53.052,143.349,53.001,143.306L53.001,143.306z"/>
	<path fill="#004B85" stroke="#004B85" stroke-width="0.4079" stroke-miterlimit="2.6131" d="M149.846,143.253
		c0.126-0.007,0.264,0.009,0.369,0.127v0.364c-0.243,0.013-0.525,0.211-0.778,0.311
		C149.413,143.808,149.624,143.575,149.846,143.253L149.846,143.253z"/>
	
		<path fill-rule="evenodd" clip-rule="evenodd" fill="#004B85" stroke="#004B85" stroke-width="0.4079" stroke-miterlimit="2.6131" d="
		M148.173,144.07v0.387c-0.131,0.013-0.197-0.002-0.353,0.111C147.775,144.347,147.929,144.171,148.173,144.07L148.173,144.07z"/>
	
		<path fill-rule="evenodd" clip-rule="evenodd" fill="#004B85" stroke="#004B85" stroke-width="0.4079" stroke-miterlimit="2.6131" d="
		M60.773,145.745h-0.508C60.367,145.693,60.57,145.693,60.773,145.745L60.773,145.745z"/>
	
		<polygon fill-rule="evenodd" clip-rule="evenodd" fill="#004B85" stroke="#004B85" stroke-width="0.4079" stroke-miterlimit="2.6131" points="
		61.281,145.847 61.281,146.051 61.281,145.847 	"/>
	<path fill="#004B85" stroke="#004B85" stroke-width="0.4079" stroke-miterlimit="2.6131" d="M143.545,145.82h0.684
		c-0.215,0.267-0.52,0.368-0.684,0.482V145.82L143.545,145.82z"/>
	
		<path fill-rule="evenodd" clip-rule="evenodd" fill="#004B85" stroke="#004B85" stroke-width="0.4079" stroke-miterlimit="2.6131" d="
		M93.744,152.148c0.25-0.031,0.489-0.017,0.602,0.141C94.096,152.321,93.857,152.307,93.744,152.148L93.744,152.148z"/>
	
		<path fill-rule="evenodd" clip-rule="evenodd" fill="#004B85" stroke="#004B85" stroke-width="0.4079" stroke-miterlimit="2.6131" d="
		M98.021,152.339H98.2C98.21,152.474,98.007,152.474,98.021,152.339L98.021,152.339z"/>
	
		<path fill-rule="evenodd" clip-rule="evenodd" fill="#004B85" stroke="#004B85" stroke-width="0.4079" stroke-miterlimit="2.6131" d="
		M101.549,152.336c0.014,0.138-0.037,0.291-0.174,0.276C101.359,152.474,101.41,152.321,101.549,152.336L101.549,152.336z"/>
	
		<path fill="#004B85" stroke="#004B85" stroke-width="1.4274" stroke-linecap="round" stroke-linejoin="round" stroke-miterlimit="2.6131" d="
		M40.219,158.781l-14.87-4.515c-0.106,2.257,0.611,3.506,1.855,3.857l9.47,3.007C35.539,160.81,38.86,159.219,40.219,158.781
		L40.219,158.781z"/>
	
		<path fill="#004B85" stroke="#004B85" stroke-width="1.4274" stroke-linecap="round" stroke-linejoin="round" stroke-miterlimit="2.6131" d="
		M35.183,160.423l-7.979-2.299c0.787,0.222,1.784,0.085,2.917-0.384l8.017,2.63C37.104,160.797,35.9,160.626,35.183,160.423
		L35.183,160.423z"/>
	
		<polygon fill="#004B85" stroke="#004B85" stroke-width="1.4274" stroke-linecap="round" stroke-linejoin="round" stroke-miterlimit="2.6131" points="
		41.698,126.467 27.031,118.809 25.349,154.267 40.219,158.781 41.698,126.467 	"/>
	
		<path fill="#004B85" stroke="#004B85" stroke-width="1.4274" stroke-linecap="round" stroke-linejoin="round" stroke-miterlimit="2.6131" d="
		M36.907,161.07l-6.787-3.33c2.922-1.21,5.125-3.963,5.295-7.647l7.256,3.369C42.522,156.819,39.57,159.969,36.907,161.07
		L36.907,161.07z"/>
	
		<polygon fill="#004B85" stroke="#004B85" stroke-width="1.4274" stroke-linecap="round" stroke-linejoin="round" stroke-miterlimit="2.6131" points="
		42.648,152.898 35.416,150.093 36.029,136.864 43.188,140.846 42.648,152.898 	"/>
	
		<polygon fill="#004B85" stroke="#004B85" stroke-width="1.4274" stroke-linecap="round" stroke-linejoin="round" stroke-miterlimit="2.6131" points="
		43.463,139.8 36.029,136.864 45.101,133.093 51.437,136.074 43.463,139.8 	"/>
	
		<path fill="#004B85" stroke="#004B85" stroke-width="1.4274" stroke-linecap="round" stroke-linejoin="round" stroke-miterlimit="2.6131" d="
		M46.481,119.836l-14.194-8.309c-2.598,1.085-5.098,3.95-5.255,7.281l14.667,7.658C41.836,123.431,44.112,120.822,46.481,119.836
		L46.481,119.836z"/>
	
		<polygon fill="#004B85" stroke="#004B85" stroke-width="1.4274" stroke-linecap="round" stroke-linejoin="round" stroke-miterlimit="2.6131" points="
		44.017,130.753 36.476,127.21 36.854,119.051 44.055,123.021 44.017,130.753 	"/>
	
		<polygon fill="#004B85" stroke="#004B85" stroke-width="1.4274" stroke-linecap="round" stroke-linejoin="round" stroke-miterlimit="2.6131" points="
		57.363,113.061 47.646,105.117 32.287,111.527 46.481,119.836 57.363,113.061 	"/>
	
		<polygon fill="#004B85" stroke="#004B85" stroke-width="1.4274" stroke-linecap="round" stroke-linejoin="round" stroke-miterlimit="2.6131" points="
		44.665,122.517 37.148,119.347 47.506,115.029 54.106,118.592 44.665,122.517 	"/>
	
		<polygon fill="#004B85" stroke="#004B85" stroke-width="1.4274" stroke-linecap="round" stroke-linejoin="round" stroke-miterlimit="2.6131" points="
		58.588,130.7 45.539,123.437 36.476,127.21 50.327,134.133 58.588,130.7 	"/>
	
		<path fill="#004B85" stroke="#004B85" stroke-width="1.4274" stroke-linecap="round" stroke-linejoin="round" stroke-miterlimit="2.6131" d="
		M51.528,135.872l-6.133-2.483c3.171-1.316,5.121-3.961,5.253-6.924l5.661,3.102C56.192,132.267,54.417,134.675,51.528,135.872
		L51.528,135.872z"/>
	
		<path fill-rule="evenodd" clip-rule="evenodd" fill="#004B85" stroke="#004B85" stroke-width="1.4274" stroke-linecap="round" stroke-linejoin="round" stroke-miterlimit="2.6131" d="
		M58.936,127.947l-9.76-4.755c-0.824-0.472-2.059-0.412-3.637,0.244l10.081,4.729C57.058,127.568,58.183,127.516,58.936,127.947
		L58.936,127.947z"/>
	
		<path fill-rule="evenodd" clip-rule="evenodd" fill="#004B85" stroke="#004B85" stroke-width="1.4274" stroke-linecap="round" stroke-linejoin="round" stroke-miterlimit="2.6131" d="
		M57.625,109.162l-6.188-4.17c-0.819-0.583-2.109-0.578-3.792,0.125l6.521,4.155C55.701,108.633,56.877,108.629,57.625,109.162
		L57.625,109.162z"/>
	
		<path fill="#004B85" stroke="#004B85" stroke-width="1.4274" stroke-linecap="round" stroke-linejoin="round" stroke-miterlimit="2.6131" d="
		M54.106,118.592l-6.6-3.562c3.166-1.318,5.108-3.892,5.243-6.908l6.13,4.176C58.761,115.046,56.992,117.391,54.106,118.592
		L54.106,118.592z"/>
	
		<path fill-rule="evenodd" clip-rule="evenodd" fill="#004B85" stroke="#004B85" stroke-width="1.4274" stroke-linecap="round" stroke-linejoin="round" stroke-miterlimit="2.6131" d="
		M58.867,112.261l-6.412-4.143c0.061-1.351-0.296-2.319-1.018-2.833l6.792,4.687C58.889,110.441,58.921,111.029,58.867,112.261
		L58.867,112.261z"/>
	
		<path fill="#FFFFFF" stroke="#004B85" stroke-width="1.4274" stroke-linecap="round" stroke-linejoin="round" stroke-miterlimit="2.6131" d="
		M25.349,154.267c-0.174,3.685,1.85,4.684,4.771,3.474c2.922-1.21,5.125-3.963,5.295-7.647l0.613-13.229l9.072-3.771
		c3.17-1.316,5.121-3.961,5.253-6.923c0.134-2.964-1.648-4.051-4.815-2.733l-9.062,3.773l0.378-8.159l10.358-4.317
		c3.165-1.318,5.108-3.892,5.243-6.907c0.129-2.886-1.646-4.03-4.81-2.709l-15.359,6.41c-2.598,1.085-5.098,3.95-5.255,7.281
		L25.349,154.267L25.349,154.267z"/>
	
		<polygon fill-rule="evenodd" clip-rule="evenodd" fill="#004B85" stroke="#004B85" stroke-width="0.4079" stroke-miterlimit="2.6131" points="
		105.774,65.863 105.817,65.863 105.774,65.863 	"/>
	
		<path fill-rule="evenodd" clip-rule="evenodd" fill="#004B85" stroke="#004B85" stroke-width="1.4274" stroke-linecap="round" stroke-linejoin="round" stroke-miterlimit="2.6131" d="
		M37.006,106.709l-8.156-4.397c0.238,0.827,0.599,1.461,1.114,1.788l5.36,3.454C29.88,104.726,37.225,107.463,37.006,106.709
		L37.006,106.709z"/>
	
		<polygon fill="#004B85" stroke="#004B85" stroke-width="1.4274" stroke-linecap="round" stroke-linejoin="round" stroke-miterlimit="2.6131" points="
		39.602,99.045 24.966,88.655 28.85,102.312 35.997,107.047 39.602,99.045 	"/>
	
		<path fill-rule="evenodd" clip-rule="evenodd" fill="#004B85" stroke="#004B85" stroke-width="1.4274" stroke-linecap="round" stroke-linejoin="round" stroke-miterlimit="2.6131" d="
		M35.464,107.534l-5.501-3.435c0.482,0.306,1.099,0.343,1.874,0.02l5.168,2.928C36.299,107.341,35.829,107.385,35.464,107.534
		L35.464,107.534z"/>
	
		<path fill="#004B85" stroke="#004B85" stroke-width="1.4274" stroke-linecap="round" stroke-linejoin="round" stroke-miterlimit="2.6131" d="
		M35.997,107.294l-4.566-3.175c1.605-0.673,2.65-2.371,3.282-4.43l4.535,3.6C38.099,105.257,37.006,108.7,35.997,107.294
		L35.997,107.294z"/>
	
		<path fill="#004B85" stroke="#004B85" stroke-width="1.4274" stroke-linecap="round" stroke-linejoin="round" stroke-miterlimit="2.6131" d="
		M52.275,86.473l-13.4-11.615c-1.128,0.473-2.133,1.377-2.863,4.048l13.657,11.257C50.332,87.727,51.247,86.903,52.275,86.473
		L52.275,86.473z"/>
	
		<path fill-rule="evenodd" clip-rule="evenodd" fill="#004B85" stroke="#004B85" stroke-width="1.4274" stroke-linecap="round" stroke-linejoin="round" stroke-miterlimit="2.6131" d="
		M43.298,90.904L29.03,79.728c-0.481-0.377-1.071-0.289-1.715-0.018l14.417,11.176C42.32,90.64,42.858,90.559,43.298,90.904
		L43.298,90.904z"/>
	
		<path fill="#004B85" stroke="#004B85" stroke-width="1.4274" stroke-linecap="round" stroke-linejoin="round" stroke-miterlimit="2.6131" d="
		M41.731,90.886L27.315,79.71c-1.562,0.655-2.917,2.959-3.017,5.027l14.688,10.732C39.074,93.583,40.307,91.484,41.731,90.886
		L41.731,90.886z"/>
	
		<path fill="#004B85" stroke="#004B85" stroke-width="1.4274" stroke-linecap="round" stroke-linejoin="round" stroke-miterlimit="2.6131" d="
		M38.986,95.469L24.298,84.737c-0.056,1.181,0.242,2.407,0.668,3.918l14.636,10.39C39.21,97.666,38.937,96.547,38.986,95.469
		L38.986,95.469z"/>
	
		<polygon fill="#004B85" stroke="#004B85" stroke-width="1.4274" stroke-linecap="round" stroke-linejoin="round" stroke-miterlimit="2.6131" points="
		40.926,99.237 32.377,91.83 29.903,81.469 42.163,91.409 40.926,99.237 	"/>
	
		<path fill-rule="evenodd" clip-rule="evenodd" fill="#004B85" stroke="#004B85" stroke-width="1.4274" stroke-linecap="round" stroke-linejoin="round" stroke-miterlimit="2.6131" d="
		M44.097,92.494L29.903,81.469c-0.216-0.919-0.514-1.46-0.873-1.742l14.268,11.177C43.625,91.162,43.898,91.656,44.097,92.494
		L44.097,92.494z"/>
	
		<polygon fill="#004B85" stroke="#004B85" stroke-width="1.4274" stroke-linecap="round" stroke-linejoin="round" stroke-miterlimit="2.6131" points="
		43.845,87.639 36.012,78.906 32.45,91.8 39.92,98.834 43.845,87.639 	"/>
	
		<polygon fill="#004B85" stroke="#004B85" stroke-width="1.4274" stroke-linecap="round" stroke-linejoin="round" stroke-miterlimit="2.6131" points="
		39.72,102.5 35.119,99.689 40.467,82.155 45.441,86.458 39.72,102.5 	"/>
	
		<path fill="#004B85" stroke="#004B85" stroke-width="1.4274" stroke-linecap="round" stroke-linejoin="round" stroke-miterlimit="2.6131" d="
		M55.295,97.206l-13.13-10.588c-0.207,4.528,0.919,7.974,3.043,9.576l7.043,4.834C50.312,99.564,55.113,101.336,55.295,97.206
		L55.295,97.206z"/>
	
		<path fill-rule="evenodd" clip-rule="evenodd" fill="#004B85" stroke="#004B85" stroke-width="1.4274" stroke-linecap="round" stroke-linejoin="round" stroke-miterlimit="2.6131" d="
		M51.579,100.521l-6.37-4.327c1.511,1.141,3.528,1.346,5.93,0.342l5.851,4.304C54.8,101.753,52.959,101.562,51.579,100.521
		L51.579,100.521z"/>
	
		<path fill="#004B85" stroke="#004B85" stroke-width="1.4274" stroke-linecap="round" stroke-linejoin="round" stroke-miterlimit="2.6131" d="
		M53.739,93.132L40.467,82.155c0.589-1.94,1.017-3.471,1.07-4.652l13.172,11.387C54.662,89.968,54.273,91.367,53.739,93.132
		L53.739,93.132z"/>
	
		<path fill-rule="evenodd" clip-rule="evenodd" fill="#004B85" stroke="#004B85" stroke-width="1.4274" stroke-linecap="round" stroke-linejoin="round" stroke-miterlimit="2.6131" d="
		M53.979,86.675l-13.238-11.6c-0.476-0.418-1.13-0.528-1.867-0.218l13.4,11.615C52.947,86.192,53.544,86.293,53.979,86.675
		L53.979,86.675z"/>
	
		<path fill-rule="evenodd" clip-rule="evenodd" fill="#004B85" stroke="#004B85" stroke-width="1.4274" stroke-linecap="round" stroke-linejoin="round" stroke-miterlimit="2.6131" d="
		M54.709,88.891L41.538,77.503c0.051-1.095-0.26-1.957-0.796-2.428l13.238,11.6C54.469,87.105,54.754,87.891,54.709,88.891
		L54.709,88.891z"/>
	
		<path fill="#004B85" stroke="#004B85" stroke-width="1.4274" stroke-linecap="round" stroke-linejoin="round" stroke-miterlimit="2.6131" d="
		M64.591,80.876L52.38,68.704c-5.756,2.416-9.86,10.173-10.215,17.915l13.13,10.588C55.608,90.145,59.341,83.075,64.591,80.876
		L64.591,80.876z"/>
	
		<path fill-rule="evenodd" clip-rule="evenodd" fill="#004B85" stroke="#004B85" stroke-width="1.4274" stroke-linecap="round" stroke-linejoin="round" stroke-miterlimit="2.6131" d="
		M64.3,87.613L52.051,76.089c1.036-0.435,1.857-0.289,2.456,0.282l12.034,11.502C65.995,87.353,65.245,87.218,64.3,87.613
		L64.3,87.613z"/>
	
		<path fill="#004B85" stroke="#004B85" stroke-width="1.4274" stroke-linecap="round" stroke-linejoin="round" stroke-miterlimit="2.6131" d="
		M60.483,95.039L47.856,84.232c0.159-3.549,1.679-7.09,4.195-8.143L64.3,87.613C62.005,88.574,60.625,91.799,60.483,95.039
		L60.483,95.039z"/>
	
		<path fill="#004B85" stroke="#004B85" stroke-width="1.4274" stroke-linecap="round" stroke-linejoin="round" stroke-miterlimit="2.6131" d="
		M66.542,87.874L54.507,76.371c0.855,0.815,1.253,2.499,1.161,4.588l11.937,11.104C67.688,90.156,67.323,88.619,66.542,87.874
		L66.542,87.874z"/>
	
		<path fill-rule="evenodd" clip-rule="evenodd" fill="#004B85" stroke="#004B85" stroke-width="1.4274" stroke-linecap="round" stroke-linejoin="round" stroke-miterlimit="2.6131" d="
		M59.258,97.766l-10.134-8.834c-0.933-0.775-1.367-2.516-1.268-4.699l12.627,10.807C60.396,97.028,58.406,97.057,59.258,97.766
		L59.258,97.766z"/>
	
		<path fill="#004B85" stroke="#004B85" stroke-width="1.4274" stroke-linecap="round" stroke-linejoin="round" stroke-miterlimit="2.6131" d="
		M61.668,87.808l-6-6.849c-0.157,3.556-1.677,7.101-4.198,8.157l6.38,6.124C60.147,94.283,61.53,91.049,61.668,87.808L61.668,87.808
		z"/>
	
		<path fill-rule="evenodd" clip-rule="evenodd" fill="#004B85" stroke="#004B85" stroke-width="1.4274" stroke-linecap="round" stroke-linejoin="round" stroke-miterlimit="2.6131" d="
		M59.931,95.908l-8.461-6.792c-0.974,0.408-1.758,0.302-2.346-0.186l9.293,8.666C54.851,94.856,59.043,96.279,59.931,95.908
		L59.931,95.908z"/>
	
		<path fill="#004B85" stroke="#004B85" stroke-width="1.4274" stroke-linecap="round" stroke-linejoin="round" stroke-miterlimit="2.6131" d="
		M55.261,101.423l-4.123-4.887c5.779-2.417,9.891-10.206,10.23-17.964l3.201,6.479C64.27,92.127,62.005,99.34,55.261,101.423
		L55.261,101.423z"/>
	
		<path fill-rule="evenodd" clip-rule="evenodd" fill="#004B85" stroke="#004B85" stroke-width="1.4274" stroke-linecap="round" stroke-linejoin="round" stroke-miterlimit="2.6131" d="
		M74.785,97.519L63.53,86.934c-0.052,1.189,0.236,2.111,0.771,2.605l11.19,10.356C75.002,99.444,74.739,98.603,74.785,97.519
		L74.785,97.519z"/>
	
		<path fill-rule="evenodd" clip-rule="evenodd" fill="#004B85" stroke="#004B85" stroke-width="1.4274" stroke-linecap="round" stroke-linejoin="round" stroke-miterlimit="2.6131" d="
		M75.492,99.896L64.301,89.54c0.468,0.432,1.126,0.538,1.913,0.208l11.021,10.343C76.519,100.388,75.918,100.291,75.492,99.896
		L75.492,99.896z"/>
	
		<path fill-rule="evenodd" clip-rule="evenodd" fill="#004B85" stroke="#004B85" stroke-width="1.4274" stroke-linecap="round" stroke-linejoin="round" stroke-miterlimit="2.6131" d="
		M70.602,81.716L58.967,69.615c-1.564-1.629-3.822-2.072-6.587-0.911l12.21,12.172C67.112,79.82,69.172,80.227,70.602,81.716
		L70.602,81.716z"/>
	
		<path fill-rule="evenodd" clip-rule="evenodd" fill="#004B85" stroke="#004B85" stroke-width="1.4274" stroke-linecap="round" stroke-linejoin="round" stroke-miterlimit="2.6131" d="
		M72.803,89.89L61.368,78.572c0.175-4.027-0.705-7.19-2.401-8.958l11.635,12.101C72.151,83.33,72.958,86.217,72.803,89.89
		L72.803,89.89z"/>
	
		<polygon fill="#004B85" stroke="#004B85" stroke-width="1.4274" stroke-linecap="round" stroke-linejoin="round" stroke-miterlimit="2.6131" points="
		75.505,80.323 64.346,68.077 63.53,86.934 74.785,97.519 75.505,80.323 	"/>
	
		<path fill="#004B85" stroke="#004B85" stroke-width="1.4274" stroke-linecap="round" stroke-linejoin="round" stroke-miterlimit="2.6131" d="
		M72.599,95.009l-6.385-5.261c1.684-0.702,2.934-2.977,3.028-5.202l5.935,5.512C75.092,92.09,74.135,94.368,72.599,95.009
		L72.599,95.009z"/>
	
		<path fill-rule="evenodd" clip-rule="evenodd" fill="#004B85" stroke="#004B85" stroke-width="1.4274" stroke-linecap="round" stroke-linejoin="round" stroke-miterlimit="2.6131" d="
		M101.141,132.454l-8.743-7.221c-0.045,1.129,0.345,1.948,1.044,2.513l8.652,6.997C101.456,134.229,101.101,133.482,101.141,132.454
		L101.141,132.454z"/>
	
		<path fill="#004B85" stroke="#004B85" stroke-width="1.4274" stroke-linecap="round" stroke-linejoin="round" stroke-miterlimit="2.6131" d="
		M105.675,125.592l-8.293-7.896c-3.071,1.275-4.872,4.692-4.984,7.537l8.743,7.221C101.241,129.862,102.878,126.751,105.675,125.592
		L105.675,125.592z"/>
	
		<path fill="#004B85" stroke="#004B85" stroke-width="1.4274" stroke-linecap="round" stroke-linejoin="round" stroke-miterlimit="2.6131" d="
		M99.839,133.824l-6.397-6.078c2.508,2.024,8.996,0.777,13.664-1.156l5.18,6.192C108.034,134.54,102.125,135.67,99.839,133.824
		L99.839,133.824z"/>
	
		<path fill-rule="evenodd" clip-rule="evenodd" fill="#004B85" stroke="#004B85" stroke-width="1.4274" stroke-linecap="round" stroke-linejoin="round" stroke-miterlimit="2.6131" d="
		M80.341,75.982L69.653,63.313c-0.47-0.555-1.224-0.864-2.286-0.418l10.889,12.701C79.224,75.19,79.913,75.473,80.341,75.982
		L80.341,75.982z"/>
	
		<path fill-rule="evenodd" clip-rule="evenodd" fill="#004B85" stroke="#004B85" stroke-width="1.4274" stroke-linecap="round" stroke-linejoin="round" stroke-miterlimit="2.6131" d="
		M80.761,76.755L70.112,64.157c-0.098-0.3-0.25-0.597-0.459-0.844l10.688,12.669C80.532,76.208,80.671,76.48,80.761,76.755
		L80.761,76.755z"/>
	
		<path fill="#004B85" stroke="#004B85" stroke-width="1.4274" stroke-linecap="round" stroke-linejoin="round" stroke-miterlimit="2.6131" d="
		M85.338,72.189L75.136,59.149c-2.047,0.858-4.029,2.708-5.023,5.008l10.648,12.598C81.667,74.654,83.471,72.973,85.338,72.189
		L85.338,72.189z"/>
	
		<path fill="#004B85" stroke="#004B85" stroke-width="1.4274" stroke-linecap="round" stroke-linejoin="round" stroke-miterlimit="2.6131" d="
		M78.256,75.596L67.367,62.895c-1.681,0.707-2.926,2.968-3.021,5.183l11.159,12.246C75.591,78.3,76.724,76.238,78.256,75.596
		L78.256,75.596z"/>
	
		<path fill="#004B85" stroke="#004B85" stroke-width="1.4274" stroke-linecap="round" stroke-linejoin="round" stroke-miterlimit="2.6131" d="
		M80.452,84.218l-10.69-11.875c0.103-2.417,1.186-5.05,3.052-5.833l10.415,12.392C81.527,79.614,80.543,82.014,80.452,84.218
		L80.452,84.218z"/>
	
		<path fill-rule="evenodd" clip-rule="evenodd" fill="#004B85" stroke="#004B85" stroke-width="1.4274" stroke-linecap="round" stroke-linejoin="round" stroke-miterlimit="2.6131" d="
		M83.229,78.902L72.813,66.51c0.854-0.359,1.505-0.175,1.95,0.361l10.243,12.364C84.6,78.745,84.006,78.577,83.229,78.902
		L83.229,78.902z"/>
	
		<path fill-rule="evenodd" clip-rule="evenodd" fill="#004B85" stroke="#004B85" stroke-width="1.4274" stroke-linecap="round" stroke-linejoin="round" stroke-miterlimit="2.6131" d="
		M85.006,79.235L74.764,66.871c0.526,0.636,0.764,1.767,0.709,3.077l10.185,12.093C85.706,80.846,85.487,79.815,85.006,79.235
		L85.006,79.235z"/>
	
		<polygon fill="#004B85" stroke="#004B85" stroke-width="1.4274" stroke-linecap="round" stroke-linejoin="round" stroke-miterlimit="2.6131" points="
		75.176,89.89 69.242,84.545 69.762,72.344 75.176,78.526 75.176,89.89 	"/>
	
		<polygon fill="#004B85" stroke="#004B85" stroke-width="1.4274" stroke-linecap="round" stroke-linejoin="round" stroke-miterlimit="2.6131" points="
		82.351,79.426 75.473,69.948 74.959,82.154 81.896,90.558 82.351,79.426 	"/>
	
		<polygon fill="#004B85" stroke="#004B85" stroke-width="1.4274" stroke-linecap="round" stroke-linejoin="round" stroke-miterlimit="2.6131" points="
		86.019,86.344 80.682,79.759 81.187,67.554 86.835,75.433 86.019,86.344 	"/>
	
		<path fill-rule="evenodd" clip-rule="evenodd" fill="#004B85" stroke="#004B85" stroke-width="1.4274" stroke-linecap="round" stroke-linejoin="round" stroke-miterlimit="2.6131" d="
		M90.024,72.995l-9.751-12.971c-1.297-1.728-3.506-1.561-5.137-0.875l10.203,13.041C86.823,71.569,88.839,71.417,90.024,72.995
		L90.024,72.995z"/>
	
		<path fill-rule="evenodd" clip-rule="evenodd" fill="#004B85" stroke="#004B85" stroke-width="1.4274" stroke-linecap="round" stroke-linejoin="round" stroke-miterlimit="2.6131" d="
		M90.058,73.04l-9.749-12.967c-0.012-0.017-0.024-0.033-0.037-0.049l9.751,12.971C90.036,73.01,90.046,73.025,90.058,73.04
		L90.058,73.04z"/>
	
		<path fill="#004B85" stroke="#004B85" stroke-width="1.4274" stroke-linecap="round" stroke-linejoin="round" stroke-miterlimit="2.6131" d="
		M95.212,68.055l-9.244-13.454c-2.453,1.029-4.247,3.525-5.659,5.473l9.749,12.967C91.343,71.265,92.975,68.994,95.212,68.055
		L95.212,68.055z"/>
	
		<path fill="#004B85" stroke="#004B85" stroke-width="1.4274" stroke-linecap="round" stroke-linejoin="round" stroke-miterlimit="2.6131" d="
		M90.865,79.865l-9.679-12.311c0.101-2.417,1.181-5.051,3.05-5.836l9.402,12.832C91.937,75.259,90.954,77.66,90.865,79.865
		L90.865,79.865z"/>
	
		<path fill-rule="evenodd" clip-rule="evenodd" fill="#004B85" stroke="#004B85" stroke-width="1.4274" stroke-linecap="round" stroke-linejoin="round" stroke-miterlimit="2.6131" d="
		M93.639,74.549l-9.402-12.832c0.91-0.381,1.59-0.148,2.037,0.471l9.225,12.79C95.09,74.413,94.469,74.201,93.639,74.549
		L93.639,74.549z"/>
	
		<polygon fill="#004B85" stroke="#004B85" stroke-width="1.4274" stroke-linecap="round" stroke-linejoin="round" stroke-miterlimit="2.6131" points="
		94.178,75.77 86.905,65.158 86.408,77.364 93.737,86.902 94.178,75.77 	"/>
	
		<path fill-rule="evenodd" clip-rule="evenodd" fill="#004B85" stroke="#004B85" stroke-width="1.4274" stroke-linecap="round" stroke-linejoin="round" stroke-miterlimit="2.6131" d="
		M92.948,85.43l-6.541-8.066c-0.043,1.055,0.181,1.899,0.608,2.422l6.489,7.853C93.115,87.163,92.91,86.392,92.948,85.43
		L92.948,85.43z"/>
	
		<path fill-rule="evenodd" clip-rule="evenodd" fill="#004B85" stroke="#004B85" stroke-width="1.4274" stroke-linecap="round" stroke-linejoin="round" stroke-miterlimit="2.6131" d="
		M93.414,87.448l-6.397-7.662c0.476,0.581,1.204,0.763,2.095,0.39l5.8,6.978C94.099,87.493,93.848,87.979,93.414,87.448
		L93.414,87.448z"/>
	
		<path fill="#004B85" stroke="#004B85" stroke-width="1.4274" stroke-linecap="round" stroke-linejoin="round" stroke-miterlimit="2.6131" d="
		M94.865,87.133l-5.754-6.957c1.689-0.704,2.939-2.981,3.028-5.208l5.48,7.418C97.539,84.42,96.404,86.492,94.865,87.133
		L94.865,87.133z"/>
	
		<path fill-rule="evenodd" clip-rule="evenodd" fill="#004B85" stroke="#004B85" stroke-width="1.4274" stroke-linecap="round" stroke-linejoin="round" stroke-miterlimit="2.6131" d="
		M95.498,74.978l-9.225-12.79c0.471,0.651,0.683,1.73,0.632,2.97l9.172,12.529C96.122,76.556,95.928,75.572,95.498,74.978
		L95.498,74.978z"/>
	
		<path fill-rule="evenodd" clip-rule="evenodd" fill="#004B85" stroke="#004B85" stroke-width="1.4274" stroke-linecap="round" stroke-linejoin="round" stroke-miterlimit="2.6131" d="
		M99.205,67.812l-7.479-12.274c-1.178-1.805-3.29-1.974-5.758-0.938l9.244,13.454C97.461,67.114,98.129,66.165,99.205,67.812
		L99.205,67.812z"/>
	
		<polygon fill="#004B85" stroke="#004B85" stroke-width="1.4274" stroke-linecap="round" stroke-linejoin="round" stroke-miterlimit="2.6131" points="
		97.765,81.554 92.139,74.334 92.711,60.052 98.774,68.835 97.765,81.554 	"/>
	
		<path fill="#004B85" stroke="#004B85" stroke-width="1.4274" stroke-linecap="round" stroke-linejoin="round" stroke-miterlimit="2.6131" d="
		M117.825,89.305l-7.073-11.441c-8.438,3.522-16.181,11.361-16.579,21.321l8.561,9.536
		C103.088,99.643,110.138,92.506,117.825,89.305L117.825,89.305z"/>
	
		<path fill="#004B85" stroke="#004B85" stroke-width="1.4274" stroke-linecap="round" stroke-linejoin="round" stroke-miterlimit="2.6131" d="
		M112.682,103.778l-7.586-10.032c0.086-2.25,2.022-4.512,4.775-5.658l7.159,10.535C114.52,99.668,112.76,101.726,112.682,103.778
		L112.682,103.778z"/>
	
		<path fill-rule="evenodd" clip-rule="evenodd" fill="#004B85" stroke="#004B85" stroke-width="1.4274" stroke-linecap="round" stroke-linejoin="round" stroke-miterlimit="2.6131" d="
		M127.023,85.559l-4.242-7.978c-1.215-2.331-5.372-2.498-12.029,0.283l7.073,11.441C123.886,86.78,125.915,83.433,127.023,85.559
		L127.023,85.559z"/>
	
		<path fill="#004B85" stroke="#004B85" stroke-width="1.4274" stroke-linecap="round" stroke-linejoin="round" stroke-miterlimit="2.6131" d="
		M114.86,94.333l-4.989-6.246c4.323-1.803,5.322-0.509,8.582-1.868l3.889,5.612C119.372,93.067,118.798,92.696,114.86,94.333
		L114.86,94.333z"/>
	
		<path fill-rule="evenodd" clip-rule="evenodd" fill="#004B85" stroke="#004B85" stroke-width="1.4274" stroke-linecap="round" stroke-linejoin="round" stroke-miterlimit="2.6131" d="
		M129.266,107.047l-5.67-9.027c-1.818-2.964-5.447-3.189-9.18-2.895l6.76,9.917C124.575,104.777,127.607,104.344,129.266,107.047
		L129.266,107.047z"/>
	
		<path fill="#004B85" stroke="#004B85" stroke-width="1.4274" stroke-linecap="round" stroke-linejoin="round" stroke-miterlimit="2.6131" d="
		M108.225,111.797l-3.83-4.7c4.502-0.366,7.859-1.009,9.006,0.458l3.029,4.667C115.385,110.884,112.326,111.467,108.225,111.797
		L108.225,111.797z"/>
	
		<path fill-rule="evenodd" clip-rule="evenodd" fill="#004B85" stroke="#004B85" stroke-width="1.4274" stroke-linecap="round" stroke-linejoin="round" stroke-miterlimit="2.6131" d="
		M120.26,116.366l-6.859-8.812c0.305,0.39,0.453,0.929,0.425,1.661l6.823,8.664C120.673,117.213,120.537,116.722,120.26,116.366
		L120.26,116.366z"/>
	
		<path fill="#004B85" stroke="#004B85" stroke-width="1.4274" stroke-linecap="round" stroke-linejoin="round" stroke-miterlimit="2.6131" d="
		M102.734,108.721l-8.561-9.536c-0.121,3.065,0.532,5.007,1.666,6.214l7.25,6.093C102.056,110.391,102.626,111.515,102.734,108.721
		L102.734,108.721z"/>
	
		<path fill-rule="evenodd" clip-rule="evenodd" fill="#004B85" stroke="#004B85" stroke-width="1.4274" stroke-linecap="round" stroke-linejoin="round" stroke-miterlimit="2.6131" d="
		M100.848,110.31l-5.008-4.911c1.938,2.061,5.279,1.979,8.555,1.698l4.251,4.769C105.659,112.119,102.615,112.191,100.848,110.31
		L100.848,110.31z"/>
	
		<path fill="#004B85" stroke="#004B85" stroke-width="1.4274" stroke-linecap="round" stroke-linejoin="round" stroke-miterlimit="2.6131" d="
		M120.648,117.88l-6.823-8.664c-0.083,2.261-1.608,4.932-5.565,6.574l7.323,8.074C119.187,122.371,120.573,119.94,120.648,117.88
		L120.648,117.88z"/>
	
		<path fill="#004B85" stroke="#004B85" stroke-width="1.4274" stroke-linecap="round" stroke-linejoin="round" stroke-miterlimit="2.6131" d="
		M115.583,123.864l-7.323-8.074c-5.21,2.16-8.368,0.863-10.878,1.906l8.293,7.896C107.958,124.646,110.839,125.828,115.583,123.864
		L115.583,123.864z"/>
	
		<path fill="#004B85" stroke="#004B85" stroke-width="1.4274" stroke-linecap="round" stroke-linejoin="round" stroke-miterlimit="2.6131" d="
		M112.674,132.703l-5.568-6.113c9.5-3.935,17.294-11.887,17.682-22.501l3.974,8.133C128.414,121.89,121.322,129.126,112.674,132.703
		L112.674,132.703z"/>
	
		<path fill-rule="evenodd" clip-rule="evenodd" fill="#004B85" stroke="#004B85" stroke-width="1.4274" stroke-linecap="round" stroke-linejoin="round" stroke-miterlimit="2.6131" d="
		M128.786,111.397l-3.999-7.309c0.1-2.751-0.354-4.702-1.191-6.069l4.101,7.846C128.461,107.112,128.875,108.89,128.786,111.397
		L128.786,111.397z"/>
	
		<path fill-rule="evenodd" clip-rule="evenodd" fill="#004B85" stroke="#004B85" stroke-width="1.4274" stroke-linecap="round" stroke-linejoin="round" stroke-miterlimit="2.6131" d="
		M112.947,104.909l-7.562-9.92c-0.22-0.29-0.311-0.693-0.29-1.243l7.586,10.032C112.663,104.278,112.746,104.646,112.947,104.909
		L112.947,104.909z"/>
	
		<path fill-rule="evenodd" clip-rule="evenodd" fill="#004B85" stroke="#004B85" stroke-width="1.4274" stroke-linecap="round" stroke-linejoin="round" stroke-miterlimit="2.6131" d="
		M121.176,105.041l-6.76-9.917c-5.487,0.427-8.193,0.968-9.03-0.136l7.562,9.92C113.712,105.915,116.177,105.425,121.176,105.041
		L121.176,105.041z"/>
	
		<path fill="#004B85" stroke="#004B85" stroke-width="1.4274" stroke-linecap="round" stroke-linejoin="round" stroke-miterlimit="2.6131" d="
		M122.342,91.748l-3.889-5.528c2.698-1.126,4.631-5.77,4.734-8.597l4.846,6.225C127.94,86.425,124.797,90.727,122.342,91.748
		L122.342,91.748z"/>
	
		<path fill-rule="evenodd" clip-rule="evenodd" fill="#004B85" stroke="#004B85" stroke-width="1.4274" stroke-linecap="round" stroke-linejoin="round" stroke-miterlimit="2.6131" d="
		M125.847,85.782l-2.697-6.332c0.026-0.725-0.352-2.104-0.622-2.624l5.337,7.021C125.769,79.162,125.869,85.122,125.847,85.782
		L125.847,85.782z"/>
	
		<path fill-rule="evenodd" clip-rule="evenodd" fill="#004B85" stroke="#004B85" stroke-width="1.4274" stroke-linecap="round" stroke-linejoin="round" stroke-miterlimit="2.6131" d="
		M81.656,89.615l-6.697-7.461c-0.047,1.124,0.21,2.011,0.693,2.521l6.639,7.239C81.021,91.872,81.615,90.64,81.656,89.615
		L81.656,89.615z"/>
	
		<path fill="#004B85" stroke="#004B85" stroke-width="1.4274" stroke-linecap="round" stroke-linejoin="round" stroke-miterlimit="2.6131" d="
		M81.006,91.071l-5.354-6.395c0.474,0.501,1.165,0.642,2,0.292l5.177,6.372C82.068,91.657,81.438,91.528,81.006,91.071
		L81.006,91.071z"/>
	
		<path fill="#004B85" stroke="#004B85" stroke-width="1.4274" stroke-linecap="round" stroke-linejoin="round" stroke-miterlimit="2.6131" d="
		M82.797,91.81l-5.145-6.843c1.688-0.707,2.937-2.979,3.03-5.208l5.337,6.112C86.01,89.263,84.336,91.167,82.797,91.81L82.797,91.81
		z"/>
	
		<path fill-rule="evenodd" clip-rule="evenodd" fill="#004B85" stroke="#004B85" stroke-width="1.4274" stroke-linecap="round" stroke-linejoin="round" stroke-miterlimit="2.6131" d="
		M98.581,70.434l-5.87-9.749c0.095-2.374-0.276-4.058-0.986-5.147l6.247,10.227C98.621,66.76,98.666,68.269,98.581,70.434
		L98.581,70.434z"/>
	
		<path fill="#FFFFFF" stroke="#004B85" stroke-width="1.4274" stroke-linecap="round" stroke-linejoin="round" stroke-miterlimit="2.6131" d="
		M28.85,102.312c0.46,1.602,1.384,2.477,2.988,1.808c1.605-0.673,2.649-2.371,3.282-4.43l5.348-17.534
		c0.589-1.94,1.017-3.471,1.07-4.652c0.095-2.068-1.098-3.305-2.663-2.646c-1.128,0.473-2.133,1.377-2.863,4.048L32.45,91.8
		l-0.073,0.029l-2.474-10.36c-0.504-2.151-1.462-2.232-2.588-1.759c-1.562,0.655-2.917,2.959-3.017,5.027
		c-0.056,1.181,0.242,2.407,0.668,3.918L28.85,102.312L28.85,102.312z"/>
	<path fill-rule="evenodd" clip-rule="evenodd" fill="#FFFFFF" d="M52.38,68.704c-5.756,2.416-9.86,10.173-10.215,17.915
		c-0.354,7.751,3.198,12.333,8.973,9.918c5.779-2.417,9.891-10.206,10.23-17.964C61.705,70.831,58.142,66.283,52.38,68.704
		L52.38,68.704z M52.051,76.089c2.518-1.058,3.773,1.32,3.617,4.87c-0.157,3.556-1.677,7.101-4.198,8.157
		c-2.521,1.056-3.774-1.329-3.614-4.884C48.015,80.683,49.535,77.143,52.051,76.089L52.051,76.089z"/>
	
		<path fill="none" stroke="#004B85" stroke-width="1.4274" stroke-linecap="round" stroke-linejoin="round" stroke-miterlimit="2.6131" d="
		M52.38,68.704c-5.756,2.416-9.86,10.173-10.215,17.915c-0.354,7.751,3.198,12.333,8.973,9.918
		c5.779-2.417,9.891-10.206,10.23-17.964C61.705,70.831,58.142,66.283,52.38,68.704L52.38,68.704z M52.051,76.089
		c2.518-1.058,3.773,1.32,3.617,4.87c-0.157,3.556-1.677,7.101-4.198,8.157c-2.521,1.056-3.774-1.329-3.614-4.884
		C48.015,80.683,49.535,77.143,52.051,76.089L52.051,76.089z"/>
	
		<path fill="#FFFFFF" stroke="#004B85" stroke-width="1.4274" stroke-linecap="round" stroke-linejoin="round" stroke-miterlimit="2.6131" d="
		M63.53,86.934c-0.097,2.228,0.998,3.519,2.684,2.813c1.684-0.702,2.934-2.977,3.028-5.202l0.52-12.202
		c0.103-2.417,1.186-5.05,3.052-5.833c1.866-0.784,2.761,1.021,2.659,3.438l-0.514,12.207c-0.093,2.226,1.005,3.52,2.693,2.813
		s2.937-2.979,3.03-5.208l0.504-12.205c0.101-2.417,1.181-5.051,3.05-5.836c1.868-0.782,2.767,1.023,2.669,3.44l-0.498,12.207
		c-0.092,2.229,1.012,3.52,2.703,2.812c1.689-0.704,2.939-2.981,3.028-5.208l0.573-14.283c0.253-6.311-2.788-7.746-6.744-6.085
		c-2.453,1.029-4.247,3.525-5.659,5.473c-1.292-1.78-3.527-1.617-5.173-0.924c-2.047,0.858-4.029,2.708-5.023,5.008
		c-0.318-0.976-1.211-1.907-2.745-1.263c-1.681,0.707-2.926,2.968-3.021,5.183L63.53,86.934L63.53,86.934z"/>
	
		<path fill="#004B85" stroke="#004B85" stroke-width="1.4274" stroke-linecap="round" stroke-linejoin="round" stroke-miterlimit="2.6131" d="
		M122.036,90.902l-3.583-4.851c2.698-1.126,5.027-4.96,5.13-7.788l4.45,5.416C127.94,86.256,124.491,89.881,122.036,90.902
		L122.036,90.902z"/>
	
		<path fill="#004B85" stroke="#004B85" stroke-width="1.4274" stroke-linecap="round" stroke-linejoin="round" stroke-miterlimit="2.6131" d="
		M130.182,118.511l-5.094-7.683c-0.026,0.734,0.132,1.338,0.44,1.824l5.055,7.522C130.302,119.729,130.157,119.181,130.182,118.511
		L130.182,118.511z"/>
	
		<path fill="#004B85" stroke="#004B85" stroke-width="1.4274" stroke-linecap="round" stroke-linejoin="round" stroke-miterlimit="2.6131" d="
		M135.005,112.596l-4.931-9.321c-3.088,1.282-4.885,4.706-4.986,7.554l5.383,8.64C130.562,116.874,132.194,113.76,135.005,112.596
		L135.005,112.596z"/>
	
		<path fill="#004B85" stroke="#004B85" stroke-width="1.4274" stroke-linecap="round" stroke-linejoin="round" stroke-miterlimit="2.6131" d="
		M130.182,119.579l-4.653-6.927c1.866,2.948,9.225,1.643,14.375-0.491l3.563,6.675C138.779,120.774,131.882,122.267,130.182,119.579
		L130.182,119.579z"/>
	
		<path fill="#004B85" stroke="#004B85" stroke-width="1.4274" stroke-linecap="round" stroke-linejoin="round" stroke-miterlimit="2.6131" d="
		M147.089,76.26l-3.726-12.873c-8.485,3.544-16.246,11.399-16.602,21.368l5.219,10.959C132.297,86.632,139.363,79.479,147.089,76.26
		L147.089,76.26z"/>
	
		<path fill="#004B85" stroke="#004B85" stroke-width="1.4274" stroke-linecap="round" stroke-linejoin="round" stroke-miterlimit="2.6131" d="
		M145.638,80.459l-3.116-6.839c4.343-1.809,5.356-0.519,8.634-1.885l3.055,6.455C151.227,79.431,149.591,78.817,145.638,80.459
		L145.638,80.459z"/>
	
		<path fill="#004B85" stroke="#004B85" stroke-width="1.4274" stroke-linecap="round" stroke-linejoin="round" stroke-miterlimit="2.6131" d="
		M154.051,78.193l-3.522-6.023c2.711-1.129,5.071-6.668,5.162-9.498l3.077,7.573C158.685,72.823,156.518,77.168,154.051,78.193
		L154.051,78.193z"/>
	
		<path fill-rule="evenodd" clip-rule="evenodd" fill="#004B85" stroke="#004B85" stroke-width="1.4274" stroke-linecap="round" stroke-linejoin="round" stroke-miterlimit="2.6131" d="
		M159.798,96.79l-2.483-10.894c-1.181-5.203-5.607-5.61-10.185-5.242l3.396,11.348C154.689,91.675,158.721,92.049,159.798,96.79
		L159.798,96.79z"/>
	
		<path fill-rule="evenodd" clip-rule="evenodd" fill="#004B85" stroke="#004B85" stroke-width="1.4274" stroke-linecap="round" stroke-linejoin="round" stroke-miterlimit="2.6131" d="
		M142.076,91.581l-4.226-11.376c-0.092-0.245-0.128-0.545-0.115-0.91l4.235,11.457C141.959,91.083,141.993,91.357,142.076,91.581
		L142.076,91.581z"/>
	
		<path fill="#004B85" stroke="#004B85" stroke-width="1.4274" stroke-linecap="round" stroke-linejoin="round" stroke-miterlimit="2.6131" d="
		M141.971,90.751l-4.235-11.457c0.076-2.251,2.016-4.519,4.786-5.674l3.805,11.966C143.805,86.636,142.039,88.7,141.971,90.751
		L141.971,90.751z"/>
	
		<path fill-rule="evenodd" clip-rule="evenodd" fill="#004B85" stroke="#004B85" stroke-width="1.4274" stroke-linecap="round" stroke-linejoin="round" stroke-miterlimit="2.6131" d="
		M150.525,92.002l-3.396-11.348c-6.018,0.479-8.711,1.085-9.279-0.45l4.226,11.376C142.595,92.98,145.047,92.43,150.525,92.002
		L150.525,92.002z"/>
	
		<path fill="#004B85" stroke="#004B85" stroke-width="1.4274" stroke-linecap="round" stroke-linejoin="round" stroke-miterlimit="2.6131" d="
		M139.811,99.08l-2.721-6.426c5.024-0.413,8.633-1.167,9.37,1.001l1.882,6.347C147.67,98.025,144.385,98.709,139.811,99.08
		L139.811,99.08z"/>
	
		<path fill="#004B85" stroke="#004B85" stroke-width="1.4274" stroke-linecap="round" stroke-linejoin="round" stroke-miterlimit="2.6131" d="
		M150.045,104.851l-3.448-10.094c-0.077,2.266-1.599,4.938-5.577,6.59l3.951,9.501C148.592,109.348,149.976,106.914,150.045,104.851
		L150.045,104.851z"/>
	
		<path fill-rule="evenodd" clip-rule="evenodd" fill="#004B85" stroke="#004B85" stroke-width="1.4274" stroke-linecap="round" stroke-linejoin="round" stroke-miterlimit="2.6131" d="
		M131.98,95.714l-5.219-10.959c-0.077,2.14,0.224,3.731,0.802,4.908l3.515,7.584C130.552,96.174,131.912,97.664,131.98,95.714
		L131.98,95.714z"/>
	
		<path fill="#004B85" stroke="#004B85" stroke-width="1.4274" stroke-linecap="round" stroke-linejoin="round" stroke-miterlimit="2.6131" d="
		M130.573,96.178l-3.01-6.516c1.667,3.395,5.641,3.333,9.526,2.992l2.159,6.261C135.712,99.221,132.093,99.273,130.573,96.178
		L130.573,96.178z"/>
	
		<path fill="#004B85" stroke="#004B85" stroke-width="1.4274" stroke-linecap="round" stroke-linejoin="round" stroke-miterlimit="2.6131" d="
		M144.971,110.848l-3.951-9.501c-5.239,2.175-8.426,0.883-10.945,1.928l4.931,9.321
		C137.301,111.643,140.203,112.823,144.971,110.848L144.971,110.848z"/>
	
		<path fill="#004B85" stroke="#004B85" stroke-width="1.4274" stroke-linecap="round" stroke-linejoin="round" stroke-miterlimit="2.6131" d="
		M143.577,119.017l-3.674-6.855c9.552-3.959,17.367-11.932,17.707-22.552l4.584,4.566
		C162.909,106.735,152.267,115.424,143.577,119.017L143.577,119.017z"/>
	
		<path fill="#004B85" stroke="#004B85" stroke-width="1.4274" stroke-linecap="round" stroke-linejoin="round" stroke-miterlimit="2.6131" d="
		M160.68,102.543l-3.069-12.934c0.047-1.449-0.626-4.884-0.861-5.921l5.438,9.396C162.914,94.321,161.566,99.29,160.68,102.543
		L160.68,102.543z"/>
	
		<path fill-rule="evenodd" clip-rule="evenodd" fill="#004B85" stroke="#004B85" stroke-width="1.4274" stroke-linecap="round" stroke-linejoin="round" stroke-miterlimit="2.6131" d="
		M149.92,103.848l-3.46-10.192c0.104,0.306,0.15,0.67,0.137,1.102l3.448,10.094C150.058,104.457,150.015,104.126,149.92,103.848
		L149.92,103.848z"/>
	
		<path fill-rule="evenodd" clip-rule="evenodd" fill="#004B85" stroke="#004B85" stroke-width="1.4274" stroke-linecap="round" stroke-linejoin="round" stroke-miterlimit="2.6131" d="
		M157.468,90.084c0.101-2.752-0.354-4.703-1.191-6.07L157.468,90.084L157.468,90.084z"/>
	
		<path fill="#004B85" stroke="#004B85" stroke-width="1.4274" stroke-linecap="round" stroke-linejoin="round" stroke-miterlimit="2.6131" d="
		M125.11,110.812c-0.206,5.178,8.739,3.829,14.709,1.355c9.5-3.935,17.294-11.888,17.682-22.5c0.316-8.716-4.918-9.395-10.371-8.964
		c-6.93,0.539-9.423,1.261-9.32-1.379c0.086-2.249,2.021-4.512,4.774-5.658c4.324-1.803,5.322-0.508,8.583-1.868
		c2.698-1.126,4.593-3.942,4.696-6.77c0.144-3.979-4.259-4.987-12.397-1.586c-8.438,3.522-16.182,11.36-16.579,21.32
		c-0.328,8.303,5.026,8.358,10.222,7.913c5.697-0.464,9.563-1.372,9.431,2.118c-0.084,2.261-1.608,4.932-5.566,6.575
		c-5.21,2.161-8.367,0.863-10.877,1.906C127.024,104.55,125.225,107.967,125.11,110.812L125.11,110.812z"/>
	
		<path fill="#FFFFFF" stroke="#004B85" stroke-width="1.4274" stroke-linecap="round" stroke-linejoin="round" stroke-miterlimit="2.6131" d="
		M125.415,110.506c-0.206,5.179,8.739,3.829,14.709,1.356c9.5-3.935,17.294-11.888,17.682-22.501
		c0.316-8.716-4.917-9.395-10.371-8.964c-6.93,0.539-9.423,1.261-9.32-1.379c0.086-2.25,2.021-4.512,4.774-5.659
		c4.324-1.802,5.322-0.508,8.583-1.868c2.698-1.126,4.593-3.942,4.696-6.77c0.145-3.979-4.259-4.986-12.397-1.586
		c-8.438,3.522-16.182,11.36-16.579,21.32c-0.328,8.303,5.026,8.358,10.222,7.913c5.697-0.464,9.563-1.372,9.431,2.118
		c-0.084,2.261-1.608,4.932-5.566,6.575c-5.21,2.16-8.367,0.863-10.877,1.906C127.329,104.244,125.529,107.661,125.415,110.506
		L125.415,110.506z"/>
	
		<path fill="#004B85" stroke="#004B85" stroke-width="1.4274" stroke-linecap="round" stroke-linejoin="round" stroke-miterlimit="2.6131" d="
		M66.255,144.541l-12.465-5.978c-1.473,4.225-1.714,5.53-1.783,7.081l11.947,4.746C64.014,148.979,64.918,148.39,66.255,144.541
		L66.255,144.541z"/>
	
		<path fill="#004B85" stroke="#004B85" stroke-width="1.4274" stroke-linecap="round" stroke-linejoin="round" stroke-miterlimit="2.6131" d="
		M60.49,149.34l-8.483-3.695c-0.061,1.349-0.362,2.423,0.529,2.786l9.166,3.27C60.888,151.368,60.438,150.567,60.49,149.34
		L60.49,149.34z"/>
	
		<path fill-rule="evenodd" clip-rule="evenodd" fill="#004B85" stroke="#004B85" stroke-width="1.4274" stroke-linecap="round" stroke-linejoin="round" stroke-miterlimit="2.6131" d="
		M63.182,150.914l-9.851-2.679c0.819,0.333,1.976,0.233,3.35-0.336l8.127,1.838C63.556,150.255,63.929,151.219,63.182,150.914
		L63.182,150.914z"/>
	
		<polygon fill="#004B85" stroke="#004B85" stroke-width="1.4274" stroke-linecap="round" stroke-linejoin="round" stroke-miterlimit="2.6131" points="
		76.156,116.167 64.691,107.418 53.79,138.563 66.255,144.541 76.156,116.167 	"/>
	
		<path fill="#004B85" stroke="#004B85" stroke-width="1.4274" stroke-linecap="round" stroke-linejoin="round" stroke-miterlimit="2.6131" d="
		M61.964,151.734l-5.284-3.835c3.307-1.37,4.465-4.011,5.528-7.311l6.802,2.731C68.046,146.325,64.564,152.388,61.964,151.734
		L61.964,151.734z"/>
	
		<polygon fill="#004B85" stroke="#004B85" stroke-width="1.4274" stroke-linecap="round" stroke-linejoin="round" stroke-miterlimit="2.6131" points="
		68.557,144.465 62.209,140.589 63.637,135.934 69.852,140.227 68.557,144.465 	"/>
	
		<path fill="#004B85" stroke="#004B85" stroke-width="1.4274" stroke-linecap="round" stroke-linejoin="round" stroke-miterlimit="2.6131" d="
		M84.167,104.387l-10.673-9.901c-5.037,2.103-6.779,7.11-8.802,12.932l11.464,8.749C77.994,110.862,79.577,106.298,84.167,104.387
		L84.167,104.387z"/>
	
		<polygon fill="#004B85" stroke="#004B85" stroke-width="1.4274" stroke-linecap="round" stroke-linejoin="round" stroke-miterlimit="2.6131" points="
		78.327,132.202 67.049,125.01 73.189,105.957 83.902,114.844 78.327,132.202 	"/>
	
		<polygon fill="#004B85" stroke="#004B85" stroke-width="1.4274" stroke-linecap="round" stroke-linejoin="round" stroke-miterlimit="2.6131" points="
		87.99,128.195 77.658,120.601 67.049,125.01 78.327,132.202 87.99,128.195 	"/>
	
		<polygon fill="#004B85" stroke="#004B85" stroke-width="1.4274" stroke-linecap="round" stroke-linejoin="round" stroke-miterlimit="2.6131" points="
		69.792,139.802 63.637,135.934 80.251,129.041 84.929,133.532 69.792,139.802 	"/>
	
		<polygon fill="#004B85" stroke="#004B85" stroke-width="1.4274" stroke-linecap="round" stroke-linejoin="round" stroke-miterlimit="2.6131" points="
		90.365,135.885 80.251,129.041 81.33,132.66 91.353,139.184 90.365,135.885 	"/>
	
		<path fill-rule="evenodd" clip-rule="evenodd" fill="#004B85" stroke="#004B85" stroke-width="1.4274" stroke-linecap="round" stroke-linejoin="round" stroke-miterlimit="2.6131" d="
		M91.353,139.184L81.33,132.66c0.439,1.354,0.923,2.487,1.79,3.036l8.984,5.598C91.314,140.795,91.755,140.416,91.353,139.184
		L91.353,139.184z"/>
	
		<path fill="#004B85" stroke="#004B85" stroke-width="1.4274" stroke-linecap="round" stroke-linejoin="round" stroke-miterlimit="2.6131" d="
		M89.358,141.463l-6.238-5.767c0.749,0.474,1.784,0.51,3.323-0.128l7.56,5.007C92.601,141.155,90.041,141.896,89.358,141.463
		L89.358,141.463z"/>
	
		<path fill="#004B85" stroke="#004B85" stroke-width="1.4274" stroke-linecap="round" stroke-linejoin="round" stroke-miterlimit="2.6131" d="
		M92.914,140.865l-6.471-5.297c2.882-1.194,4.957-3.71,5.062-6.299l6.611,4.263C98.524,138.107,95.539,139.779,92.914,140.865
		L92.914,140.865z"/>
	
		<path fill="#004B85" stroke="#004B85" stroke-width="1.4274" stroke-linecap="round" stroke-linejoin="round" stroke-miterlimit="2.6131" d="
		M98.062,134.244l-6.557-4.975c0.063-1.555-0.076-2.705-1.242-5.845l6.661,5.494C97.99,131.779,98.117,132.828,98.062,134.244
		L98.062,134.244z"/>
	
		<path fill-rule="evenodd" clip-rule="evenodd" fill="#004B85" stroke="#004B85" stroke-width="1.4274" stroke-linecap="round" stroke-linejoin="round" stroke-miterlimit="2.6131" d="
		M87.507,103.154l-8.675-8.228c-1.183-1.145-2.804-1.499-5.338-0.44l10.673,9.901C86.476,103.424,86.428,102.109,87.507,103.154
		L87.507,103.154z"/>
	
		<polygon fill="#004B85" stroke="#004B85" stroke-width="1.4274" stroke-linecap="round" stroke-linejoin="round" stroke-miterlimit="2.6131" points="
		97.082,129.19 90.263,123.425 81.629,100.355 89.189,108.161 97.082,129.19 	"/>
	
		<path fill-rule="evenodd" clip-rule="evenodd" fill="#004B85" stroke="#004B85" stroke-width="1.4274" stroke-linecap="round" stroke-linejoin="round" stroke-miterlimit="2.6131" d="
		M88.685,106.924l-7.056-6.568c-0.813-2.199-1.569-4.24-2.797-5.429l7.834,7.214C87.788,103.227,87.941,104.918,88.685,106.924
		L88.685,106.924z"/>
	
		<polygon fill="#004B85" stroke="#004B85" stroke-width="1.4274" stroke-linecap="round" stroke-linejoin="round" stroke-miterlimit="2.6131" points="
		83.902,114.844 73.189,105.957 73.314,105.903 84.017,114.795 83.902,114.844 	"/>
	
		<polygon fill="#004B85" stroke="#004B85" stroke-width="1.4274" stroke-linecap="round" stroke-linejoin="round" stroke-miterlimit="2.6131" points="
		84.017,114.795 73.314,105.903 77.658,120.601 87.99,128.195 84.017,114.795 	"/>
	<path fill-rule="evenodd" clip-rule="evenodd" fill="#FFFFFF" d="M52.625,138.563c-1.473,4.225-1.715,5.53-1.783,7.081
		c-0.116,2.588,1.804,3.443,4.674,2.255c3.308-1.37,4.465-4.011,5.528-7.311l1.429-4.655l16.614-6.893l1.079,3.619
		c0.819,2.522,1.793,4.283,5.112,2.908c2.883-1.194,4.958-3.71,5.061-6.299c0.063-1.555-0.075-2.705-1.241-5.845l-8.634-23.069
		c-1.596-4.316-2.97-8.027-8.135-5.87c-5.037,2.103-6.779,7.11-8.802,12.932L52.625,138.563L52.625,138.563z M76.493,120.601
		l-10.608,4.409l6.14-19.053l0.125-0.054L76.493,120.601L76.493,120.601z"/>
	
		<path fill="none" stroke="#004B85" stroke-width="1.4274" stroke-linecap="round" stroke-linejoin="round" stroke-miterlimit="2.6131" d="
		M52.625,138.563c-1.473,4.225-1.715,5.53-1.783,7.081c-0.116,2.588,1.804,3.443,4.674,2.255c3.308-1.37,4.465-4.011,5.528-7.311
		l1.429-4.655l16.614-6.893l1.079,3.619c0.819,2.522,1.793,4.283,5.112,2.908c2.883-1.194,4.958-3.71,5.061-6.299
		c0.063-1.555-0.075-2.705-1.241-5.845l-8.634-23.069c-1.596-4.316-2.97-8.027-8.135-5.87c-5.037,2.103-6.779,7.11-8.802,12.932
		L52.625,138.563L52.625,138.563z M76.493,120.601l-10.608,4.409l6.14-19.053l0.125-0.054L76.493,120.601L76.493,120.601z"/>
	
		<path fill="#FFFFFF" stroke="#004B85" stroke-width="1.4274" stroke-linecap="round" stroke-linejoin="round" stroke-miterlimit="2.6131" d="
		M92.397,125.233c-0.207,5.179,8.739,3.83,14.708,1.356c9.5-3.935,17.294-11.887,17.682-22.501
		c0.317-8.716-4.917-9.395-10.371-8.964c-6.929,0.539-9.423,1.261-9.32-1.378c0.086-2.25,2.022-4.512,4.775-5.658
		c4.323-1.803,5.322-0.509,8.582-1.868c2.698-1.126,4.593-3.941,4.696-6.769c0.145-3.98-4.258-4.987-12.397-1.587
		c-8.438,3.522-16.181,11.361-16.579,21.321c-0.329,8.303,5.027,8.357,10.221,7.912c5.697-0.463,9.563-1.371,9.431,2.119
		c-0.083,2.261-1.608,4.932-5.565,6.574c-5.21,2.16-8.368,0.863-10.878,1.906C94.311,118.972,92.51,122.389,92.397,125.233
		L92.397,125.233z"/>
	
		<polygon fill="#004B85" stroke="#004B85" stroke-width="1.4274" stroke-linecap="round" stroke-linejoin="round" stroke-miterlimit="2.6131" points="
		97.752,81.554 92.125,74.334 92.698,60.052 99.138,68.283 97.752,81.554 	"/>
	<path fill="#FFFFFF" d="M112.993,33.296c0.991,0.514,1.419,1.563,1.632,2.548l0.234,2.462l0.63,3.318l0.607,2.602
		c0.821,3.019,2.005,5.888,3.681,8.543l1.695,2.462c3.254,4.796,5.43,10.32,4.512,16.571c-0.437,2.409-1.578,4.625-3.647,6.263
		c-1.525,1.306-3.243,2.237-5.099,2.773c-3.051,0.674-6.549,0.524-9.43-0.407c-1.674-0.599-3.307-1.285-4.843-2.194
		c-1.088-0.91-2.304-1.563-3.242-2.698c-2.378-2.601-3.082-6.348-2.262-9.902c0.864-3.768,2.774-7.086,5.365-10.084
		c0.353-0.589,0.844-1.156,1.185-1.756c0.021-0.085,0.182-0.171,0.064-0.278l0.105-0.011c1.568-2.344,2.593-4.914,3.499-7.547
		l0.938-3.469c0.491-2.366,0.651-4.881,1.302-7.194c0.32-0.932,1.088-1.938,2.112-2.162C112.363,33.104,112.684,33.2,112.993,33.296
		L112.993,33.296z"/>
	<path fill="#3698D4" d="M114.88,31.792c0.992,0.514,1.419,1.563,1.632,2.548l0.234,2.462l0.63,3.318l0.607,2.602
		c0.821,3.019,2.006,5.888,3.681,8.543l1.695,2.462c3.254,4.795,5.43,10.319,4.512,16.572c-0.437,2.408-1.578,4.624-3.647,6.262
		c-1.525,1.306-3.243,2.237-5.099,2.772c-3.05,0.675-6.549,0.524-9.429-0.407c-1.675-0.599-3.307-1.285-4.843-2.195
		c-1.088-0.91-2.304-1.563-3.243-2.698c-2.378-2.601-3.083-6.348-2.261-9.902c0.864-3.769,2.773-7.087,5.365-10.084
		c0.353-0.589,0.842-1.156,1.184-1.756c0.021-0.085,0.182-0.171,0.063-0.278l0.107-0.011c1.567-2.345,2.592-4.914,3.498-7.547
		l0.939-3.468c0.49-2.366,0.65-4.882,1.302-7.194c0.319-0.931,1.088-1.937,2.111-2.163C114.25,31.599,114.57,31.695,114.88,31.792
		L114.88,31.792z"/>
	<path fill="none" stroke="#3698D4" stroke-width="0.114" stroke-miterlimit="2.6131" d="M114.88,31.792
		c0.992,0.514,1.419,1.563,1.632,2.548l0.234,2.462l0.63,3.318l0.607,2.602c0.821,3.019,2.006,5.888,3.681,8.543l1.695,2.462
		c3.254,4.795,5.43,10.319,4.512,16.572c-0.437,2.408-1.578,4.624-3.647,6.262c-1.525,1.306-3.243,2.237-5.099,2.772
		c-3.05,0.675-6.549,0.524-9.429-0.407c-1.675-0.599-3.307-1.285-4.843-2.195c-1.088-0.91-2.304-1.563-3.243-2.698
		c-2.378-2.601-3.083-6.348-2.261-9.902c0.864-3.769,2.773-7.087,5.365-10.084c0.353-0.589,0.842-1.156,1.184-1.756
		c0.021-0.085,0.182-0.171,0.063-0.278l0.107-0.011c1.567-2.345,2.592-4.914,3.498-7.547l0.939-3.468
		c0.49-2.366,0.65-4.882,1.302-7.194c0.319-0.931,1.088-1.937,2.111-2.163C114.25,31.599,114.57,31.695,114.88,31.792L114.88,31.792
		z"/>
	<path fill="#FFFFFF" d="M118.613,50.976l0.074,0.032c2.88,4.046,5.419,8.232,6.571,12.996c0.255,1.37,0.49,2.858,0.267,4.325
		c-0.086,1.199-0.385,2.366-0.875,3.426c-1.194,2.848-4.021,5.084-7.051,5.417c-2.347,0.214-4.629-0.503-5.952-2.377
		c2.027-0.61,3.915-1.873,5.291-3.704c1.567-2.034,2.293-4.432,2.678-6.98c0.202-2.055,0.159-4.229-0.064-6.262l-0.416-2.869
		l-0.522-2.602l-0.555-2.216C118.261,50.408,118.475,50.676,118.613,50.976L118.613,50.976z"/>
</g>
</svg>
