<?xml version="1.0" encoding="utf-8"?>
<!-- Generator: Adobe Illustrator 16.0.0, SVG Export Plug-In . SVG Version: 6.00 Build 0)  -->
<!DOCTYPE svg PUBLIC "-//W3C//DTD SVG 1.1//EN" "http://www.w3.org/Graphics/SVG/1.1/DTD/svg11.dtd">
<svg version="1.1" id="Layer_1" xmlns="http://www.w3.org/2000/svg" xmlns:xlink="http://www.w3.org/1999/xlink" x="0px" y="0px"
	 width="88.133px" height="78.536px" viewBox="353.899 267.566 88.133 78.536"
	 enable-background="new 353.899 267.566 88.133 78.536" xml:space="preserve">
<g>
	<path fill="#FFFFFF" d="M353.899,346.102"/>
	<path fill="#EC1C2E" d="M419.05,304.641c1.537-2.16,2.699-4.56,3.445-7.146c0.608-2.121,0.919-4.311,0.919-6.508
		c0-3.928-1.021-7.846-2.946-11.329c-3.043-5.48-8.03-9.45-14.045-11.179c-12.431-3.566-25.446,3.645-29.014,16.072
		c-1.985,6.914-0.723,14.217,3.466,20.089h-22.908v25.799h18.526c0.006,0.188,0.042,0.377,0.121,0.559
		c0.878,2.009,3.588,1.391,4.608,1.154l0.086-0.021l3.278-0.779l2.487-0.596l1.322-0.316h53.636v-25.797H419.05L419.05,304.641
		L419.05,304.641z M383.656,304.646c-3.185-3.859-4.872-8.632-4.872-13.492c0-1.945,0.271-3.907,0.821-5.831
		c3.223-11.21,14.965-17.711,26.18-14.493c5.432,1.562,9.932,5.144,12.665,10.084c1.766,3.184,2.662,6.687,2.662,10.229
		c0,1.957-0.273,3.927-0.828,5.859c-0.819,2.845-2.185,5.404-4.045,7.644H383.656L383.656,304.646z"/>
	<path fill="#FDBD10" d="M416.239,304.646c1.86-2.239,3.226-4.799,4.045-7.645c0.555-1.933,0.828-3.902,0.828-5.859
		c0-3.542-0.896-7.045-2.662-10.229c-2.733-4.94-7.233-8.521-12.665-10.084c-11.215-3.218-22.957,3.283-26.18,14.493
		c-0.551,1.924-0.821,3.886-0.821,5.831c0,4.859,1.688,9.632,4.872,13.491h32.583V304.646z"/>
	<path fill="#FFFFFF" d="M419.96,284.312c-0.016-0.044-0.032-0.086-0.047-0.131l-10.097-0.062c-0.014-0.312-0.038-0.62-0.079-0.923
		l8.644-2.41c-0.039-0.066-0.081-0.132-0.117-0.2l-8.715,1.606c-0.093-0.377-0.206-0.744-0.339-1.104l6.88-3.61
		c-0.05-0.06-0.104-0.117-0.154-0.175l-7.115,2.883c-0.16-0.324-0.335-0.643-0.529-0.945l5.236-4.309
		c-0.063-0.053-0.127-0.107-0.189-0.16l-5.604,3.683c-0.253-0.322-0.521-0.631-0.813-0.92l3.688-4.658
		c-0.081-0.048-0.163-0.089-0.245-0.137l-4.142,4.168c-0.337-0.277-0.696-0.521-1.067-0.75l2.3-4.773
		c-0.102-0.038-0.203-0.076-0.305-0.113l-2.858,4.414c-0.342-0.165-0.694-0.313-1.057-0.439l1.203-4.755
		c-0.114-0.025-0.228-0.049-0.34-0.071l-1.801,4.554c-0.461-0.11-0.934-0.191-1.416-0.233l0.067-4.711
		c-0.114-0.004-0.23-0.013-0.346-0.017l-0.682,4.688c-0.396,0.004-0.788,0.037-1.173,0.086l-0.943-4.67
		c-0.113,0.013-0.229,0.021-0.343,0.034l0.331,4.808c-0.45,0.105-0.889,0.241-1.312,0.406l-2.062-4.622
		c-0.116,0.032-0.228,0.068-0.342,0.104l1.49,4.926c-0.324,0.164-0.64,0.342-0.938,0.54l-3.272-4.473
		c-0.108,0.049-0.216,0.099-0.321,0.149l2.761,4.933c-0.296,0.242-0.572,0.506-0.836,0.78l-4.639-4.202
		c-0.087,0.06-0.179,0.114-0.267,0.175l4.23,4.806c-0.207,0.264-0.4,0.541-0.58,0.828l-6.214-3.59
		c-0.07,0.065-0.139,0.135-0.208,0.202l5.91,4.314c-0.132,0.266-0.248,0.538-0.354,0.817l-7.737-2.69
		c-0.054,0.069-0.106,0.139-0.161,0.209l7.589,3.465c-0.082,0.312-0.147,0.63-0.199,0.955l-9.399-1.107
		c-0.033,0.072-0.068,0.143-0.103,0.214l9.396,1.95c-0.007,0.155-0.021,0.31-0.021,0.466c0,0.087,0.009,0.171,0.012,0.254
		l-10.669,0.808c-0.014,0.048-0.023,0.098-0.038,0.147l10.802,0.162c0.037,0.276,0.087,0.549,0.146,0.817l-11.63,3.403
		c0,0.012,0,0.021,0,0.03l11.946-2.354c0.074,0.212,0.148,0.424,0.237,0.627l-10.969,5.646l11.48-4.641
		c0.135,0.232,0.273,0.461,0.428,0.682l-9.578,7.822l10.276-6.936c0.161,0.185,0.324,0.364,0.499,0.536l-7.566,9.335l8.394-8.618
		c0.221,0.173,0.446,0.34,0.682,0.493l-5.454,10.686l6.399-10.144c0.25,0.125,0.501,0.244,0.762,0.347l-2.746,11.021h0.029
		l3.804-10.661c0.261,0.071,0.522,0.134,0.792,0.183l-0.365,10.479h0.11l1.387-10.342c0.215,0.014,0.431,0.033,0.647,0.033
		c0.104,0,0.206-0.013,0.311-0.016l2.05,10.323h0.098l-0.938-10.437c0.261-0.042,0.518-0.091,0.771-0.15l4.479,10.433l-3.329-10.785
		c0.314-0.117,0.62-0.251,0.918-0.397l6.691,9.342l-5.767-9.864c0.278-0.179,0.548-0.369,0.808-0.573l8.395,7.663l-7.604-8.356
		c0.222-0.218,0.433-0.445,0.633-0.683l10.062,5.861l-9.438-6.684c0.2-0.296,0.38-0.604,0.547-0.92l10.945,3.602l-10.521-4.532
		c0.111-0.273,0.211-0.553,0.296-0.837l11.544,1.401c0-0.002-0.002-0.003-0.002-0.004l-11.291-2.475
		c0.062-0.337,0.102-0.682,0.126-1.029L419.96,284.312L419.96,284.312z"/>
	<path fill="#FDBD10" d="M410.631,294.472l-15.118,3.237c-0.808,0.188-1.333-0.209-1.522-0.729
		c-0.174-0.494-0.008-1.231,0.736-1.515l15.551-5.546l0.208-8.845l-10.232,2.456c0.675-0.45,1.09-1.267,0.914-2.082
		c-0.229-1.08-1.401-1.744-2.478-1.512c-1.079,0.229-1.656,1.269-1.427,2.345c0.183,0.857,0.821,1.474,1.613,1.58l-4.983,1.195
		l1.293-1.41l-4.138-4.377l-1.73,1.889l4.066,4.021l-3.864,0.928l-0.997-1.73l-3.654,0.782l0.901,1.564l1.452-0.31l5.082,8.814
		c-0.729,0.752-0.757,1.979-0.321,2.943c0.438,0.966,1.684,1.828,3.734,1.364l15.299-3.275L410.631,294.472L410.631,294.472z"/>
	<path fill="#FDBD10" d="M405.919,282.062c1.077-0.231,1.763-1.291,1.534-2.371c-0.231-1.082-1.292-1.765-2.368-1.535
		c-1.079,0.229-1.768,1.292-1.534,2.368C403.779,281.604,404.839,282.291,405.919,282.062L405.919,282.062z"/>
	<polygon fill="#FDBD10" points="399.57,274.312 400.239,278.887 401.794,279.19 403.586,274.847 	"/>
	<path fill="#FDBD10" d="M395.896,280.024c1.077-0.232,1.871-1.315,1.643-2.396c-0.229-1.081-1.399-1.744-2.477-1.512
		c-1.08,0.231-1.654,1.269-1.428,2.346C393.864,279.542,394.819,280.254,395.896,280.024L395.896,280.024z"/>
	<path fill="#1F0A00" d="M399.879,283.263c1.08-0.229,1.878-1.314,1.648-2.394c-0.232-1.079-1.403-1.744-2.481-1.509
		c-1.081,0.228-1.656,1.265-1.427,2.345C397.852,282.786,398.801,283.497,399.879,283.263L399.879,283.263z"/>
	<path fill="#1F0A00" d="M396.253,279.444c1.077-0.229,1.872-1.314,1.641-2.393c-0.228-1.081-1.396-1.743-2.475-1.512
		c-1.08,0.229-1.659,1.27-1.427,2.344C394.225,278.966,395.173,279.679,396.253,279.444L396.253,279.444z"/>
	<path fill="#1F0A00" d="M406.28,281.482c1.072-0.232,1.76-1.29,1.529-2.368c-0.23-1.083-1.292-1.762-2.365-1.536
		c-1.081,0.233-1.769,1.292-1.538,2.369C404.137,281.027,405.196,281.713,406.28,281.482L406.28,281.482z"/>
	<polygon fill="#1F0A00" points="399.989,273.632 400.658,278.207 402.212,278.517 404.005,274.171 	"/>
	<polygon fill="#1F0A00" points="391.407,278.69 395.544,283.068 393.947,284.809 389.675,280.582 	"/>
	<path fill="#1F0A00" d="M409.532,296.077l1.882-0.404l-0.4-1.456l-15.501,3.492c-0.808,0.188-1.517-0.47-1.708-0.99
		c-0.174-0.491-0.009-1.228,0.736-1.511l16.137-5.875l0.003-7.459l-20.205,4.607l-1.556-2.69l-3.652,0.782l0.899,1.563l1.454-0.308
		l5.083,8.814c-0.729,0.749-0.759,1.978-0.32,2.94c0.388,0.858,1.421,1.632,3.09,1.464c-0.474,0.456-0.686,1.152-0.532,1.87
		c0.231,1.08,1.183,1.793,2.261,1.561c1.079-0.23,1.873-1.314,1.646-2.395c-0.146-0.693-0.686-1.212-1.336-1.432l10.128-2.171
		c-0.522,0.463-0.798,1.182-0.645,1.911c0.231,1.081,1.294,1.766,2.376,1.537c1.073-0.232,1.76-1.291,1.53-2.37
		C410.743,296.823,410.199,296.283,409.532,296.077L409.532,296.077z"/>
	<path fill="#FFFFFF" d="M393.511,317.836c-0.102,0.655-0.201,1.167-0.473,1.729c-0.3,0.6-0.997,1.763-1.705,1.922
		c-0.724,0.16-0.796-0.246-0.764-0.928c0.036-0.74,0.301-1.447,0.592-2.063c0.199-0.407,0.461-0.784,0.736-1.136
		c0.077-0.098,0.265-0.397,0.454-0.567C392.538,317.277,392.962,317.71,393.511,317.836L393.511,317.836L393.511,317.836z
		 M383.562,314.148c-0.299,0.244-0.611,0.479-0.921,0.705c0.945-1.879,2.133-3.824,3.825-4.931c0.225-0.127,0.5-0.231,0.519-0.116
		c0.018,0.217-0.196,0.618-0.196,0.618c-0.232,0.48-0.654,0.966-0.954,1.39C385.186,312.716,384.4,313.454,383.562,314.148
		L383.562,314.148L383.562,314.148z M393.525,316.364c-0.114-0.292-0.196-0.272-0.241,0.048c0.058,0.213,0.172,0.357,0.333,0.449
		c0.003-0.012,0.006-0.025-0.003-0.034C393.61,316.673,393.58,316.516,393.525,316.364L393.525,316.364L393.525,316.364z
		 M421.974,312.689c0.027,0.088,0.154,0.053,0.184,0.021c0.382-0.346,0.688-0.777,1.056-1.123c0.189-0.193,0.404-0.354,0.603-0.479
		c0.135-0.092,0.239-0.131,0.304-0.148c0.083-0.016,0.161-0.029,0.248-0.068c0.374-0.176,0.825-0.664,0.357-1.213
		c-0.455-0.541-1.16-0.289-1.444,0.026c0,0-0.365,0.351-0.652,0.751c-0.091,0.117-0.203,0.268-0.305,0.475
		C422.081,311.404,421.784,312.148,421.974,312.689L421.974,312.689L421.974,312.689z M413.84,308.594
		c-1.827-0.021-3.682,0.213-5.279,0.861c-0.824,0.342-2.864,1.232-2.604,2.516c0.121,0.625,1.023,0.495,1.095,0.008
		c0,0,0,0,0.003,0.002c0.04-0.144,0.914-0.494,1.021-0.563c0.547-0.312,1.191-0.476,1.811-0.646c0.2-0.059,0.413-0.098,0.624-0.141
		c-0.128,0.188-0.254,0.383-0.376,0.551c-0.784,1.068-1.506,2.188-2.13,3.385c-0.186,0.356-0.362,0.725-0.535,1.1
		c-0.854,0.025-1.646,0.189-2.292,0.57c-0.465,0.285-0.502,0.929,0.027,1.361c0.359,0.293,0.857,0.387,1.361,0.387
		c-0.447,1.373-0.768,2.822-0.88,4.3c-0.068,0.896,1.18,0.845,1.427,0.339c0.789-1.561,1.304-3.28,1.879-4.964
		c0.23-0.011,0.469-0.019,0.699-0.026c1.144,0.203,2.273,0.567,3.396,1.037c1.072,0.446,2.103,1.061,3.1,1.736
		c1.004,0.685,1.944,1.562,3.021,2.031c0.748,0.318,1.639-0.418,1.071-1.22c-0.797-1.139-2.377-1.929-3.487-2.634
		c-0.947-0.595-1.952-1.09-2.955-1.499c1.508-0.312,2.948-0.769,4.277-1.448c1.139-0.572,3.097-1.851,2.985-3.476
		C420.896,309.037,415.718,308.618,413.84,308.594L413.84,308.594L413.84,308.594z M380.086,316.428
		c-0.423,0.223-0.889,0.43-1.281,0.473c-0.319,0.039-0.43,0.504,0.006,0.592c0.287,0.059,0.567,0.062,0.837,0.044
		c-0.077,0.196-0.151,0.394-0.222,0.597c-0.252,0.694-0.54,1.387-0.706,2.127c-0.157,0.711-0.438,1.555-0.318,2.336
		c0.062,0.456,0.485,0.672,0.854,0.746c1.239,0.254,1.8-1.229,2.408-1.92c1.111-1.256,3.185-2.663,4.077-2.814
		c0.014,0,0.023-0.01,0.033-0.021c-0.157,0.602-0.274,1.232-0.307,1.866c-0.095,1.621,0.826,3.178,2.49,2.725
		c0.972-0.265,0.759-0.885-0.001-0.983c-1.263-0.164-0.096-3.564,0.01-4.281c0.073-0.518-0.285-1.062-0.811-1.255
		c-0.503-0.183-1.01-0.021-1.392,0.062c-0.635,0.133-1.748,0.711-2.391,1.038c-0.724,0.376-1.15,0.729-1.786,1.226
		c-0.27,0.197-0.517,0.414-0.758,0.636c0.059-0.188,0.117-0.372,0.171-0.554c0.223-0.734,0.457-1.463,0.72-2.166
		c1.269-0.602,2.401-1.453,3.459-2.336c1.033-0.858,1.987-1.851,2.713-3.025c0.436-0.71,1.197-2.729-0.334-3.281
		c-1.186-0.426-2.471,0.83-3.159,1.473c-1.136,1.055-2.036,2.395-2.851,3.742C380.984,314.411,380.508,315.402,380.086,316.428
		L380.086,316.428L380.086,316.428z M377.528,320.439c-0.317-1.979-2.786-2.564-4.212-2.685c-1.152-0.099-2.304-0.049-3.436-0.041
		c-0.334,0-3.405,0.056-3.146-0.754c0.339-1.092,1.354-1.926,2.198-2.548c1.093-0.805,1.979-1.34,3.252-1.863
		c1.359-0.55,3.103-1.031,4.681-0.943c0.599,0.035,1.579,0.033,1.83,0.873c0.205,0.701-0.229,1.676-0.624,2.09
		c0.004,0,0.004,0,0.008,0c-0.223,0.312,0.112,0.912,0.616,0.688c1.283-0.576,2.646-3.004,0.961-4.55
		c-1.638-1.498-4.65-1.042-6.25-0.713c-2.336,0.479-4.771,1.67-6.701,3.2c-1.402,1.099-3.918,3.746-1.413,5.822
		c0.949,0.793,2.363,0.922,3.387,0.939c1.235,0.012,2.464-0.012,3.709,0.012c0.726,0.012,1.911-0.037,2.535,0.676
		c-0.02-0.002,0.099,0.2,0.088,0.15c0.077,0.324,0.053,0.155-0.012,0.465c-0.149,0.715-1.091,1.622-1.797,2.191
		c-1.104,0.908-2.354,1.619-3.685,2.197c-0.71,0.307-1.438,0.547-2.191,0.752c-0.97,0.188-1.479,0.293-2.352,0.224
		c-0.504-0.042-1.369-0.21-1.692-0.797c-0.066-0.113-0.18-0.228-0.308-0.228c-0.971-0.029-0.615,1.348,0.195,1.703
		c1.691,1.271,4.467,0.526,5.854,0.135c2.722-0.773,5.507-2.103,7.411-4.138C377.091,322.604,377.717,321.613,377.528,320.439
		L377.528,320.439L377.528,320.439z M424.012,325.342c-1.165-0.959-2.896-1.092-4.184-1.328c-2.065-0.379-4.11-0.445-6.129-0.486
		c-4.309-0.09-8.536,0.393-12.651,1.01c-1.681,0.253-3.341,0.562-4.995,0.895c0.367-1.492,0.715-3.045,1.141-4.332
		c0.234-0.701,0.491-1.396,0.735-2.092c0.224-0.324,0.455-0.632,0.718-0.908c0.558-0.596,1.212-1.119,2.001-1.408
		c1.465-0.528,1.247,1.342,0.984,2.037c-0.623,1.655-2.188,2.787-3.9,3.352c-0.648,0.218-0.573,1.141,0.489,1.062
		c2.512-0.181,4.357-1.49,5.312-3.734c0.388-0.922,0.478-1.977-0.047-3.062c-0.603-1.261-1.957-1.436-2.927-1.201
		c-0.792,0.192-1.498,0.543-2.128,0.996c0-0.002,0-0.008-0.001-0.011c-0.183-0.241-0.54-0.226-0.734-0.169
		c-0.33,0.102-1.643,0.743-2.758,0.963c-0.012-0.074-0.023-0.15-0.05-0.232c-0.263-1.123-1.488-1.926-2.282-1.24
		c-0.107,0.092-0.185,0.199-0.243,0.32c-0.607,0.023-1.378,0.433-1.584,0.596c-1.196,0.91-2.02,2.46-2.228,4.109
		c-0.183,1.475,0.717,2.758,2.234,2.771c1.904,0.02,2.973-1.188,3.713-2.788c0.369-0.795,0.578-1.715,0.535-2.673
		c0.565-0.107,1.098-0.293,1.645-0.465c-0.091,0.167-0.17,0.334-0.245,0.486c-0.336,0.637-0.642,1.297-0.922,1.972
		c-0.928,1.808-1.518,4.079-2.124,6.214c-1.494,0.324-2.979,0.658-4.46,1.002c-1.96,0.451-3.914,0.918-5.844,1.436
		c-0.963,0.258-1.912,0.545-2.895,0.739c0,0-0.662,0.106-0.953,0.089c-0.181-0.011-0.31-0.101-0.31-0.176
		c0.11-0.164,0.036-0.304-0.24-0.304c-0.581-0.013-0.858,0.254-0.989,0.528c-0.11,0.229-0.176,0.582-0.061,0.852
		c0.652,1.49,2.944,0.912,3.858,0.703c1.928-0.436,3.836-0.926,5.759-1.377c1.826-0.42,3.644-0.864,5.466-1.305
		c-0.008,0.021-0.014,0.039-0.021,0.062c-0.396,1.161,1.043,1.569,1.765,1.151c0.336-0.195,0.496-0.565,0.66-0.924
		c0.053-0.066,0.286-0.689,0.362-0.938c1.123-0.269,2.239-0.543,3.364-0.791c3.977-0.888,8.074-1.463,12.259-1.743
		c2.091-0.141,4.238-0.129,6.404,0.087c1.021,0.108,2.049,0.28,3.077,0.517c0.607,0.143,1.537,0.232,2.038,0.748
		C423.397,327.133,424.846,326.027,424.012,325.342L424.012,325.342L424.012,325.342z M429.9,321.195
		c-2.82,0.09-1.772-4.323-1.467-5.731c0.221-1.012,0.562-1.956,0.914-2.896c1.08-0.286,2.213-0.495,3.328-0.645
		c0.641-0.085,1.385-0.191,2.062-0.033c0.555,0.135,0.935,0.162,1.38-0.086c0.258-0.147,0.51-0.597,0.284-0.965
		c-0.399-0.665-1.312-0.783-1.916-0.783c-1.184-0.002-2.305,0.152-3.415,0.389c-0.282,0.064-0.562,0.141-0.839,0.209
		c0.038-0.074,0.076-0.152,0.117-0.227c0.325-0.605,0.811-1.318,0.666-2.133c-0.101-0.541-0.797-0.472-1.013-0.234
		c-0.813,0.896-1.419,2.047-1.979,3.191c-0.037,0.01-0.082,0.018-0.121,0.03c-0.284,0.075-3.376,1.136-3.435,0.743
		c-0.047-0.299-0.443-0.324-0.588-0.211c-0.706,0.525-0.159,1.383,0.694,1.683c0.764,0.267,1.698,0.056,2.529-0.209
		c-0.013,0.026-0.023,0.06-0.033,0.089c-0.93,1.247-1.95,2.4-3.077,3.438c-0.448,0.414-0.919,0.795-1.396,1.174
		c-0.23,0.195-0.478,0.369-0.736,0.531c-0.042,0.023-0.084,0.049-0.112,0.069c-0.408-0.933,0.177-2.493,0.572-3.226
		c0.019-0.028,0.03-0.059,0.051-0.092c0.01-0.026,0.027-0.057,0.046-0.08c0.128-0.219,0.022-0.416-0.16-0.555
		c-0.137-0.162-0.354-0.244-0.625-0.109c-1.395,0.681-2.206,2.678-1.979,4.464c0.137,1.028,1.083,1.659,1.964,1.664
		c1.064,0.011,1.854-0.712,2.558-1.341c0.583-0.528,1.135-1.096,1.653-1.695c-0.212,1.054-0.219,2.16,0.337,3.303
		c0.854,1.771,3.058,1.709,3.897,1.311C430.523,322.018,430.569,321.176,429.9,321.195L429.9,321.195L429.9,321.195z
		 M431.501,319.268c0.787-0.004,1.467-0.158,2.004-0.306c1.189-0.33,2.441-0.957,3.131-1.974c0.508-0.756,0.454-1.961-0.622-2.543
		c-1.009-0.54-2.326-0.319-3.178,0.029c-1.09,0.437-2.011,1.123-2.669,2.101c-0.634,0.944-1.095,2.687,0.032,3.882
		c1.87,1.996,5.373,1.191,6.576-0.336c0.383-0.482-0.404-0.902-0.797-0.609c-1.004,0.756-2.938,0.889-3.942,0.291
		C431.691,319.6,431.619,319.484,431.501,319.268L431.501,319.268L431.501,319.268z M413.921,310.404
		c0.688,0.033,5.816,0.729,4.598,2.203c-1.521,1.83-4.004,2.49-6.367,2.914c-0.805,0.146-1.613,0.246-2.428,0.334
		c-0.026-0.002-0.047-0.004-0.067-0.01c0.422-1.057,0.968-2.033,1.485-3.021c0.405-0.749,1.013-1.534,1.225-2.421
		C412.882,310.383,413.405,310.379,413.921,310.404L413.921,310.404L413.921,310.404z M431.481,318.288
		c0.302-0.886,1.201-1.701,1.585-1.952c0.446-0.307,0.938-0.607,1.504-0.646c0.917-0.067,0.651,0.627,0.299,1.103
		C434.312,317.529,432.733,318.305,431.481,318.288L431.481,318.288z"/>
	<path fill="#FFFFFF" d="M435.707,323.637c0-1.162,0.941-2.02,2.057-2.02c1.104,0,2.047,0.857,2.047,2.02
		c0,1.174-0.942,2.031-2.047,2.031C436.648,325.668,435.707,324.811,435.707,323.637L435.707,323.637L435.707,323.637z
		 M437.764,325.33c0.916,0,1.64-0.719,1.64-1.693c0-0.959-0.724-1.682-1.64-1.682c-0.927,0-1.649,0.723-1.649,1.682
		C436.113,324.611,436.837,325.33,437.764,325.33L437.764,325.33L437.764,325.33z M437.335,324.811h-0.354v-2.336h0.889
		c0.553,0,0.825,0.203,0.825,0.664c0,0.418-0.264,0.601-0.604,0.644l0.664,1.028h-0.396l-0.616-1.013h-0.407L437.335,324.811
		L437.335,324.811L437.335,324.811z M437.758,323.498c0.3,0,0.568-0.021,0.568-0.381c0-0.289-0.264-0.344-0.509-0.344h-0.482v0.725
		H437.758L437.758,323.498z"/>
</g>
</svg>
