<?xml version="1.0" encoding="utf-8"?>
<!-- Generator: Adobe Illustrator 16.0.0, SVG Export Plug-In . SVG Version: 6.00 Build 0)  -->
<!DOCTYPE svg PUBLIC "-//W3C//DTD SVG 1.1//EN" "http://www.w3.org/Graphics/SVG/1.1/DTD/svg11.dtd">
<svg version="1.1" id="Layer_1" xmlns="http://www.w3.org/2000/svg" xmlns:xlink="http://www.w3.org/1999/xlink" x="0px" y="0px"
	 width="542.275px" height="511.561px" viewBox="113.961 41.325 542.275 511.561"
	 enable-background="new 113.961 41.325 542.275 511.561" xml:space="preserve">
<g>
	<path d="M656.236,280.004c-0.33,8.247-0.41,18.583-0.41,27.594c0,4.027,0.006,10.104-0.116,12.743c0,0,0.212,4.722-5.312,10.661
		c-5.351,5.627-13.494,7.311-23.945,7.746c-4.013,0.154-12.63-1.169-14.095,2.293c-2.742,6.282-3.914,9.486-7.857,17.753
		c-22.621,47.105-58.036,99.316-134.702,151.971c-44.052,28.87-53.551,30.649-66.471,36.36c-5.95,2.575-13.787,6.466-17.553,5.65
		c-40.911-9.325-117.112-58.902-160.938-109.322c0,0-42.567-47.169-63.54-102.836c-1.292-3.449-8.182-3.32-12.553-4.176
		c-7.742-1.541-18.066-3.454-24.241-6.698c0,0-6.688-3.153-9.609-9.608c-0.921-1.972-0.83-22.865-0.844-30.519
		c-0.094-18.125-0.25-31.016,0.353-35.024c0.097-0.125,0.777-2.672,1.319-4.688c-0.053,0.158,9.176-5.607,14.214-7.939
		c104.204-50.608,277.242-43.161,263.555-43.2c57.825,0.209,127.634,6.719,187.078,22.724c27.59,7.242,35.518,12.011,70.24,26.331
		c-0.811-0.318,3.666,1.952,5.017,2.514c0.381,2.858,0.045,6.269,0,8.78c-0.167,7.188,0,11.787,0,20.473
		C655.864,278.852,656.236,280.004,656.236,280.004L656.236,280.004z M237.215,152.129c-5.355-0.238-11.267,2.813-15.042,4.592
		c-6.733,3.163-14.438,7.54-18.396,13.385c-3.767,5.531-2.123,33.698-1.467,42c13.795-3.151,27.436-5.087,40.548-8.344
		c-0.419-9.91-0.419-24.047-0.419-33.864C242.432,164.297,242.896,152.36,237.215,152.129L237.215,152.129z M312.248,194.803
		c-0.736-18.986-0.629-52.006-0.651-67.964c-0.008-7.062-1.373-7.189-5.198-7.103l0,0c-9.175,0.145-35.091,7.435-37.625,12.736
		c-2.052,4.326-1.921,13.128-2.077,20.075c-0.424,17.862-0.854,31.012,0.411,47.134
		C282.517,197.706,296.676,196.081,312.248,194.803z M432.229,110.118c-30.996-6.076-36.097-6.423-36.147,1.471
		c-0.02,3.568-0.16,0.784,0.006,10.656c0.19,10.539-0.501,56.822-0.077,70.477c17.961,0.19,30.6,0.662,45.416,1.795
		c0.015-10.273,0.123-32.862,0.213-39.246c-0.097-2.46,1.29-2.486,1.883-2.515c5.716-0.35,19.116,4.596,23.828,6.477
		c21.01,8.292,41.086,18.848,49.114,34.7c1.685,3.317,1.827,6.163,2.011,9.261c14.42,2.261,33.373,6.034,48.757,10.029
		c5.02-15.749-1.729-32.371-9.174-41.658C545.171,155.54,489.455,121.315,432.229,110.118L432.229,110.118z M376.336,192.49
		c0.292-6.452-0.215-19.095-0.125-28.434c0.12-12.99,0.428-27.753,0.428-41.402c0-4.3,0.945-10.7-0.428-14.22
		c-1.062-2.691-4.806-2.804-8.778-2.495l0,0c-8.896,0.632-30.348,1.513-33.029,7.1c-1.2,2.499-1.278,6.112-1.248,9.407
		c0.048,7.309-0.054,33.029-0.031,38.476c0.028,9.178-0.272,23.292-0.193,32.833C348.962,192.362,363.285,192.5,376.336,192.49z
		 M388.13,41.345c-13.521,0.434-34.796,3.646-49.535,5.648c-20.863,2.814-40.638,5.293-60.625,8.793
		c-8.889,1.532-22.836,2.306-28.006,5.842c-7.426,5.058-5.479,20.977-13.159,25.496c-10.681,6.255-32.766,2.463-43.267,9.615
		c-6.115,4.148-1.61,18.491-9.624,20.893c-3.746,1.118-7.604,0.536-11.694,0.841c-7.992,0.594-37.511,3.331-40.565,8.365
		c-1.214,2.007-1.524,9.667-1.665,14.417c-0.737,24.095-1.06,60.278,2.52,94.064c4.526-2.039,9.207-4.299,16.421-7.064
		c8.643-3.333,17.507-6.291,26-9.04c-0.598-14.304-1.519-28.292-1.89-33.232c-0.474-6.4-2.193-27.965,0.851-32.808
		c3.223-5.177,26.931-5.582,35.316-6.279c3.589-0.302,7.812-0.363,11.074-1.249c6.557-1.82,3.696-21.031,11.292-24.252
		c2.999-1.285,7.184-1.153,11.283-1.25c7.794-0.189,20.837,0.633,28.006-1.673c10.874-3.52,6.21-23.123,15.885-27.785
		c3.635-1.772,8.069-2.376,12.549-3.147c8.525-1.486,17.02-2.829,26.332-4.184c20.383-2.997,47.219-8.918,66.879-7.525
		c18.507,1.317,35.656,5.203,52.681,7.952c11.026,1.773,22.029,3.424,32.185,5.421c2.229,0.447,3.918,0.951,5.861,1.686
		c3.722,1.381,4.877,3.671,6.269,7.524c1.461,4.065,3.689,14.368,5.852,17.554c3.952,5.813,25.101,4.65,34.27,5.231
		c4.065,0.247,7.771-0.096,10.661,1.865c6.019,4.079,4.368,21.475,9.831,23.832c3.092,1.339,8.608,0.96,12.537,1.256
		c8.486,0.623,31.215,1.259,34.282,5.848c2.312,3.452,1.303,16.041,0.84,24.256c-0.491,8.202-0.866,13.462-1.266,20.482
		c-0.417,7.457-1.005,16.121-1.413,22.368c4.469,1.229,13.303,4.152,20.027,6.603c7.385,2.681,17.637,6.885,22.582,8.867
		c1.503-8.71,1.901-17.849,2.909-27.387c1.935-18.359,0.781-45.017,0.425-62.494c-0.167-7.665-0.244-16.192-2.307-19.451
		c-3.15-4.975-32.211-7.338-40.123-7.929c-4.093-0.315-7.85-0.248-11.497-1.464c-9.316-3.103-2.947-17.653-11.079-21.317
		c-8.747-3.931-30.849-3.712-40.137-7.106c-11.371-4.163-6.605-22.204-16.302-27.798c-3.153-1.831-7.982-2.373-12.12-3.138
		c-11.206-2.1-21.677-3.369-33.866-5.437c-18.035-3.051-36.425-5.366-55.386-8.141C408.566,43.48,395.936,41.085,388.13,41.345
		L388.13,41.345z M172.033,282.628l7.354-29.205c0.227-1.03,2.836-9.814,3.711-10.71c0.931-0.986,1.413-3.587,1.413-5.867
		c0-2.402-0.079-2.936-1.29-2.865c-1.353,0.089-2.198,0.597-3.809,1.021c-1.249,0.334-2.706,0.841-4.242,1.33
		c-0.78,0.244-1.362,0.443-1.362,3.706c0,3.378-0.319,10.726-0.368,14.297c0,1.364-1.866,12.415-2.687,12.415
		c-0.581,0-0.979-2.733-1.644-5.858c-0.66-3.115-1.201-6.236-1.201-7.733c0-2.8,0.583-4.293,1.589-8.503
		c0.621-2.595,1.186-6.012-1.024-6.179c-1.695-0.141-3.471,0.931-5.338,1.343c-1.675,0.372-3.465,1.194-5.657,1.85
		c-1.264,0.369-1.116,0.655-1.116,3.327c0,4.024,2.209,7.258,2.209,11.487c0,2.283-1.836,10.594-2.495,10.594
		c-0.589,0-1.053-3.125-1.674-6.114c-0.713-3.44-1.536-9.699-1.536-11.131c0-2.081,1.311-0.867,1.311-3.397
		c0-2.8-0.264-3.475-1.791-3.141c-1.526,0.347-3.161,1.105-4.665,1.529c-2.007,0.572-2.614,1.021-4.578,1.619
		c-1.53,0.465-1.831,1.098-1.831,3.635c0,1.31,0.156,2.402,0.752,2.726c0.767,0.465,1.533,1.146,2.222,4.384l6.348,32.429
		c0.597,2.71,1.325,4.592,2.854,4.592c1.471,0,2.253-2.332,2.842-4.348l3.648-17.644c0.552-1.953,0.902-3.834,1.295-3.834
		c0.344,0,0.821,1.747,1.288,3.834l3.269,14.188c0.559,2.338,0.968,2.569,2.564,2.569
		C170.304,288.974,171.071,286.601,172.033,282.628L172.033,282.628z M189.918,235.684l-7.16,28.966
		c-0.697,2.721-1.954,12.015-3.386,12.865c-0.869,0.504-1.179,1.487-1.179,3.372c0,2.348,0.31,2.99,1.634,2.99
		c1.248,0,2.311-0.617,3.566-0.921c1.355-0.347,2.794-0.944,4.082-1.339c1.606-0.495,2.301-1.172,2.301-3.244
		c0-2.537-0.187-2.672-1.198-3.134c-1.055-0.442-0.79-6.682-0.79-7.98c0-1.836,0.47-2.935,1.284-2.935h6.014
		c0.745,0,1.132,1.041,1.132,2.01c0,1.634-0.162,5.055-0.945,6.092c-0.737,0.986-0.976,1.237-0.976,3.125
		c0,1.567,0.542,3.241,1.719,3.241c1.634,0,3.077-0.639,5.494-1.343c2.635-0.761,4.494-1.281,5.877-1.673
		c2.091-0.61,2.718-1.047,2.718-3.909c0-1.679-0.389-1.875-1.007-2.469c-1.092-1.041-2.032-3.109-2.34-4.365l-8.712-33.087
		c-1.191-3.559-0.806-2.591-3.64-2.036C191.005,230.594,191.049,231.127,189.918,235.684L189.918,235.684z M194.019,257.964h-4.434
		c0.351-2.736,1.403-8.927,2.303-8.927C192.779,249.037,193.676,255.229,194.019,257.964L194.019,257.964z M215.756,235.761v13.866
		c0,5.588-0.603,16.796-1.736,17.965c-0.831,0.848-1.1,1.375-1.1,2.858c0,2.736,0.396,3.516,2.075,3.516
		c1.861,0,3.915-0.819,5.76-1.185c2.125-0.411,4.324-1.349,5.874-1.759c1.551-0.379,1.79-0.263,1.79-2.797
		c0-1.673-0.265-3.317-1.511-3.575c-1.882-0.379-1.706-6.185-1.706-8.33c0-2.881,0-5.409,0.853-5.409
		c0.667,0,0.938,1.124,1.877,4.432l3.153,11.246c0.357,1.246,0.96,3.625,1.783,3.478c1.121-0.192,1.757-0.363,2.874-0.494
		c1.452-0.184,2.309-0.566,3.394-0.697c2.379-0.241,4.019-0.986,4.019-4.621c0-1.564-0.321-1.827-0.865-2.014
		c-0.502-0.27-1.201-0.385-1.914-1.821l-6.114-12.175c2.596-1.557,4.169-5.858,4.169-10.216c0-7.212-3.208-15.655-9.214-15.655
		c-2.279,0-3.627,0.745-6.338,1.179c-2.24,0.373-4.587,0.947-7.326,1.679c-1.309,0.337-2.061,0.058-2.061,3.507
		c0,2.203,0.574,2.332,1.056,2.537C215.136,231.542,215.756,232.119,215.756,235.761L215.756,235.761z M225.157,239.855v-2.925
		c0-3.516,0.503-4.361,1.13-4.361c1.566,0,2.698,2.797,2.698,5.539c0,3.44-0.939,5.659-2.855,5.659
		C225.551,243.767,225.157,242.653,225.157,239.855L225.157,239.855z M255.195,246.005l11.486,16.336
		c0.695,1.03,1.177,1.712,2.192,1.712c1.565,0,1.744-3.347,1.744-5.883v-27.05c0-8.26,3.006-4.171,3.006-8.982
		c0-1.891-0.535-5.944-1.789-5.944c-1.492,0-3.018,0.382-4.481,0.588c-1.572,0.244-2.649,0.745-3.86,0.745
		c-1.356,0-1.426,2.928-1.426,4.804c0,3.905,1.527,2.598,2.854,4.107c1.208,1.355,1.208,8.7,1.208,10.332
		c0,1.172,0,3.192-0.271,3.192c-0.116,0-0.822-0.977-2.116-2.929l-10.609-15.601c-1.721-2.479-1.377-1.455-2.689-1.455
		c-0.712,0-1.37,0.199-2.076,0.199c-0.689,0-1.402,0.411-2.108,0.411c-0.981,0-1.442,0.909-1.442,3.311
		c0,5.083,3.006,0.713,3.171,6.246c0.061,2.54,0.196,5.854,0.196,10.665c0,4.419-0.042,7.871-0.196,10.864
		c-0.512,8.896-3.357,7.409-3.357,12.553c0,1.876,0.095,3.558,1.205,3.558c1.44,0,3.129-0.436,4.733-0.584
		c1.55-0.176,2.967-0.253,4.665-0.604c1.371-0.27,1.948-1.021,1.948-3.696c0-5.649-3.73-3.356-4.242-9.284
		c-0.231-2.791-0.278-5.719-0.278-7.47c0-2.28,0.201-2.8,0.551-2.8C253.371,243.347,254.041,244.387,255.195,246.005
		L255.195,246.005z M293.471,244.107v-11.715c0-3.767-0.27-4.419-1.61-4.419c-2.608,0-1.01,4.3-3.499,4.3
		c-1.1,0-1.254-1.054-1.254-4.169c0-5.083,0.387-5.655,2.612-5.655c2.805,0,5.819,0.906,6.478,6.291
		c0.202,1.641,0.715,1.771,1.567,1.771c1.361,0,1.399-0.333,1.399-4.618v-5.732c0-4.04,0.367-7.274-1.23-7.274
		c-3.364,0-6.751,0.694-10.084,1.096c-3.478,0.427-7.251,1.3-10.625,1.3c-1.362,0-1.71,0.98-1.71,2.669
		c0,3.054,0.626,3.054,1.752,3.703c0.83,0.591,0.83,2.929,0.83,15.941c0,13.012,0,15.351-0.83,15.941
		c-1.126,0.649-1.752,0.649-1.752,3.712c0,1.676,0.039,5.286,1.408,5.286c4.026,0,7.396-0.886,10.675-1.355
		c3.322-0.482,6.687-1.015,10.25-1.272c1.397-0.097,1.75-0.263,1.945-2.746l0.387-7.922c0.04-0.902,0.125-1.76,0.125-2.672
		c0-2.145-0.472-3.112-1.527-3.112c-2.337,0-1.09,8.774-8.857,8.774c-1.169,0-2.262-0.974-2.293-3.449l-0.218-9.04
		c1.494,0,2.08,0.397,2.863,4.823c0.228,1.291,0.665,2.068,1.588,2.068C293.269,246.635,293.471,246.06,293.471,244.107
		L293.471,244.107z M305.326,222.719v13.851c0,5.594-0.047,12.685-1.177,13.848c-0.821,0.86-1.1,1.368-1.1,2.874
		c0,2.726,0.145,5.681,1.821,5.681c1.884,0,3.765-0.443,5.625-0.443c1.874,0,3.861-0.648,5.739-0.648
		c1.594,0,1.927-1.349,1.927-3.885c0-1.686-0.271-3.315-1.521-3.578c-1.882-0.392-1.882-4.997-1.882-7.162
		c0-2.845,0-5.385,0.861-5.385c0.659,0,0.946,1.102,1.876,4.416l3.169,11.268c0.349,1.23,0.821,3.633,1.845,3.633
		c1.124,0,2.077-0.245,3.217-0.245c1.088,0,2.354-0.15,3.441-0.15c2.146,0,3.548-1.949,3.548-5.591c0-1.561-0.31-1.831-0.851-2.01
		c-0.522-0.264-1.21-0.392-1.925-1.831l-6.125-12.158c2.624-1.564,4.18-5.858,4.18-10.212c0-7.213-2.659-14.214-8.709-14.214
		c-2.263,0-4.766,0.581-7.046,0.581c-2.255,0-4.929,0.601-7.183,0.601c-1.373,0-2.007,0.283-2.007,3.732
		c0,2.216,0.587,2.351,1.054,2.524C304.699,218.48,305.326,219.071,305.326,222.719L305.326,222.719z M314.727,226.821v-2.93
		c0-3.52,0.512-4.374,1.133-4.374c1.563,0,2.693,2.8,2.693,5.524c0,3.452-0.934,5.665-2.865,5.665
		C315.122,230.706,314.727,229.614,314.727,226.821L314.727,226.821z M364.759,226.512h-5.232c-1.79,0-1.904-0.715-1.904-6.047
		c0-7.679,2.884-3.449,2.884-7.884c0-2.983-0.535-4.19-1.824-4.19c-2.028,0-3.679,0.208-5.316,0.208
		c-1.642,0-3.299,0.283-5.88,0.283c-1.259,0-1.683,1.811-1.683,3.963c0,2.148,0.34,2.601,0.97,2.992c1.4,0.913,1.4,4.75,1.4,15.941
		c0,9.361,0,14.375-1.524,15.936c-0.505,0.51-1.134,0.594-1.134,3.253c0,2.084,0.179,4.525,1.383,4.525
		c2.578,0,4.693-0.186,6.794-0.186c2.102,0,4.218-0.147,5.93-0.147c1.284,0,1.588-1.79,1.588-4.005c0-2.332-0.196-2.534-1.596-3.439
		c-1.217-0.777-1.991-1.426-1.991-9.294c0-3.526,0.347-4.04,1.286-4.04h6.476c0.947,0,1.249,0.514,1.249,4.04
		c0,7.402-0.23,8.128-1.09,9.23c-0.507,0.658-0.978,1.365-0.978,2.729c0,2.989,0.729,4.553,1.976,4.553
		c1.527,0,3.435-0.192,5.355-0.192c1.903,0,3.819,0.192,5.732,0.192c1.201,0,1.108-1.881,1.108-3.966
		c0-2.659-0.629-2.743-1.139-3.253c-1.52-1.561-1.52-6.574-1.52-15.936c0-11.191,0-15.029,1.402-15.941
		c0.626-0.392,0.97-0.844,0.97-2.992c0-2.152-0.638-4.631-1.891-4.631c-1.716,0-3.473-0.083-5.263-0.083
		c-1.753,0-3.52,0.083-4.766,0.083c-1.52,0-1.933,2.091-1.933,4.367c0,3.784,2.031,0.459,2.031,7.884
		C366.633,225.796,366.556,226.512,364.759,226.512L364.759,226.512z M380.847,231.778c0,13.649,4.836,23.209,13.625,23.209
		c8.781,0,13.624-9.56,13.624-23.209c0-13.661-4.843-23.225-13.624-23.225C385.683,208.554,380.847,218.117,380.847,231.778
		L380.847,231.778z M394.896,247.2c-1.675,0-3.906-3.186-3.906-20.688c0-7.868,1.372-10.146,3.247-10.146
		c1.49,0,3.706,3.179,3.706,20.675C397.942,244.923,396.578,247.2,394.896,247.2L394.896,247.2z M419.1,237.135l4.684,14.702
		c0.626,1.879,1.169,3.526,2.029,3.526c1.14,0,1.6-0.864,2.729-4.368l4.454-14.316c0.735-2.338,1.52-3.898,1.873-3.898
		c0.507,0,0.647,1.818,0.647,4.021c0,3.06-0.059,6.066-0.111,9.126c-0.029,2.334-0.382,4.084-1.821,4.939
		c-0.654,0.392-0.893,1.365-0.893,2.409c0,1.304,0,3.186,1.405,3.186c1.866,0,3.78,0.308,5.646,0.308
		c1.868,0,3.635,0.417,5.517,0.417c1.522,0,1.754-0.437,1.754-2.98c0-2.736-0.24-3.597-1.414-4.123
		c-0.778-0.334-0.789-4.759-0.973-8.53c-0.433-8.195-0.706-16.455-0.706-21.593c0-1.426,0.147-2.73,0.587-3.199
		c1.047-1.085,1.988,0,1.988-3.763c0-2.396-0.581-2.601-1.288-2.601c-1.451,0-2.947-0.225-4.354-0.225
		c-1.445,0-2.67-0.154-4.065-0.154c-0.932,0-1.221,1.945-1.772,3.828c-0.577,2.029-5.376,19.724-6.28,19.724
		c-0.624,0-6.675-19.608-7.26-21.513c-0.654-2.077-1.046-3.176-1.757-3.176c-1.401,0-2.89-0.141-4.362-0.141
		c-1.4,0-2.924-0.248-4.332-0.248c-1.124,0-1.127,1.892-1.127,3.639c0,2.148,1.196,2.402,2.021,3.118
		c0.578,0.521,1.278,3.336,1.278,6.481c0,3.445-0.077,6.506-0.262,10.398c-0.438,8.578-0.395,15.421-1.92,16.523
		c-0.821,0.59-1.479,1.098-1.479,3.77c0,1.631,0.434,2.814,1.326,2.814c1.285,0,2.604,0.189,3.889,0.189
		c1.298,0,2.534,0.067,3.821,0.067c1.138,0,1.536-1.645,1.536-3.59c0-2.081-0.516-2.733-1.362-2.864
		c-1.567-0.263-1.715-2.467-1.715-4.285c0-2.925-0.077-5.861,0.039-8.783c0.038-1.044,0-2.794,0.504-2.794
		C417.854,233.176,418.316,234.663,419.1,237.135L419.1,237.135z M467.283,242.049V230.33c0-3.751-0.271-4.419-1.593-4.419
		c-2.62,0-1.015,4.3-3.521,4.3c-1.092,0-1.239-1.047-1.239-4.162c0-5.073,0.379-5.662,2.602-5.662c2.816,0,5.818,0.913,6.491,6.313
		c0.183,1.619,0.695,1.75,1.557,1.75c1.365,0,1.4-0.331,1.4-4.614v-5.729c0-4.03-0.199-4.641-1.806-4.884
		c-3.385-0.521-6.603-1.012-9.987-1.266c-3.347-0.259-6.99-0.931-10.341-0.931c-1.36,0-1.718,0.976-1.718,2.671
		c0,3.051,0.626,3.051,1.763,3.713c0.811,0.571,1.013,5.116,1.013,18.125c0,13.013,0,15.36-0.818,15.942
		c-1.118,0.649-1.747,0.649-1.747,3.712c0,1.689,0.347,2.582,1.714,2.666c4.034,0.289,7.088,0.861,10.471,1.117
		c3.308,0.248,6.686,0.938,9.993,0.938c1.406,0,1.76-0.263,1.955-2.746l0.519-9.971c0.058-0.905,0.122-1.766,0.122-2.666
		c0-2.158-0.47-3.13-1.525-3.13c-2.341,0-1.083,8.789-8.856,8.789c-1.17,0-2.265-0.979-2.293-3.458l-0.196-9.047
		c1.483,0,2.062,0.405,2.84,4.814c0.237,1.31,0.668,2.091,1.611,2.091C467.084,244.586,467.283,244.008,467.283,242.049
		L467.283,242.049z M506.482,255.312l8.114-26.282c0.324-0.974,0.741-1.946,1.729-2.794c1.403-1.098,1.558-1.23,1.558-3.183
		c0-2.797-0.424-2.913-1.486-3.201c-1.758-0.431-2.843-0.621-4.545-0.861c-1.555-0.231-3.019-0.765-4.586-0.765
		c-0.976,0-1.325,0.958-1.325,2.794c0,2.483,0.156,2.871,1.249,3.575c1.015,0.651,1.322,0.712,1.322,3.33
		c0,2.659-2.646,15.299-3.775,15.299c-0.87,0-4.233-14.454-4.233-16.516c0-1.821,0.271-2.682,0.971-3.057
		c0.79-0.466,1.222-1.507,1.222-3.186c0-2.874-0.457-2.971-1.574-3.192c-2.318-0.491-4.361-1.002-6.904-1.255
		c-2.325-0.235-4.432-0.761-6.43-0.761c-1.332,0-1.708,0.514-1.708,3.252c0,1.831,0.376,2.409,1.429,3.116
		c0.902,0.526,1.103,1.38,1.805,3.969l7.805,29.719c1.914,7.03,2.682,9.172,4.485,9.172
		C503.312,264.484,504.452,261.885,506.482,255.312L506.482,255.312z M531.756,270.146c1.092,0,1.562-0.703,1.562-3.375
		c0-5.007-2.576-0.98-2.886-6.311c-0.206-3.645-0.431-10.833-0.431-15.454c0-4.679,0.087-9.297,0.276-12.958
		c-0.041-3.951,1.719-1.677,1.719-5.781c0-2.923-0.8-3.741-2.188-3.982c-1.438-0.251-2.797-0.675-4.408-0.829
		c-1.48-0.173-2.836-0.87-4.325-0.87c-1.548,0-2.19,0.225-2.19,3.147c0,4.229,1.535,1.936,1.729,5.896
		c0.192,3.652-0.056,10.698-0.056,15.376c0,4.621-0.03,9.31-0.225,12.942c-0.312,5.713-2.129,2.425-2.129,7.043
		c0,3.058,0.719,2.871,2.026,3.051c1.954,0.25,3.75,0.748,5.577,1.092C527.594,269.481,529.88,270.146,531.756,270.146
		L531.756,270.146z M538.414,237.001l0.016,21.895c0,4.875-0.389,5.992-1.079,6.429c-1.14,0.723-1.342,1.047-1.342,3.266
		c0,1.108,0,3.122,0.949,3.122c2.447,0,4.74,1.352,7.175,1.744c2.617,0.433,4.9,1.525,7.371,1.525
		c8.538,0,13.358-12.444,13.471-26.248c0-13.513-5.845-19.923-13.543-21.65c-2.488-0.553-4.424-1.311-6.959-1.831
		c-2.279-0.459-4.562-1.265-6.857-1.265c-1.411,0-1.411,1.752-1.411,4.296c0,1.818,0.576,1.689,1.01,2.081
		C538.031,231.143,538.414,232.376,538.414,237.001L538.414,237.001z M547.781,257.907l0.103-14.764
		c0-6.496,0.199-8.908,0.977-8.908c3.55,0,5.968,7.151,5.968,16.275c0,5.521-0.913,15.421-4.946,15.421
		C548.439,265.932,547.781,264.156,547.781,257.907L547.781,257.907z M585.291,265.422V253.7c0-3.77-0.271-4.413-1.591-4.413
		c-2.626,0-1.016,4.285-3.518,4.285c-1.084,0-1.249-1.042-1.249-4.169c0-5.064,0.52-6.853,2.74-6.853
		c2.81,0,5.814,0.909,6.483,6.307c0.184,1.628,0.702,1.76,1.558,1.76c1.374,0,1.406-0.333,1.406-4.627l0.103-4.207
		c0.599-3.742-0.167-4.583-1.944-4.914c-3.3-0.627-6.437-2.129-9.653-2.798c-3.289-0.693-7.031-2.283-10.547-2.562
		c-1.371-0.109-1.722,0.967-1.722,2.666c0,3.06,0.618,3.06,1.76,3.712c0.822,0.584,0.938,6.801,0.938,19.814
		c0,13.013,0,15.357-0.832,15.941c-1.127,0.648-1.756,0.648-1.756,3.712c0,1.689,0.394,2.345,1.729,2.66
		c3.904,0.905,6.865,2.401,10.091,3.198c3.469,0.834,6.878,2.531,10.167,3.066c1.433,0.225,2.277-0.458,1.938-2.736l0.395-7.941
		c0.039-0.896,0.122-1.76,0.122-2.672c0-2.139-0.472-3.116-1.525-3.116c-2.341,0-1.827,5.292-8.809,3.642
		c-1.138-0.27-1.953-2.094-2.001-4.567l-0.312-7.833c1.471,0,2.055,0.395,2.839,4.821c0.238,1.294,0.664,2.074,1.604,2.074
		C585.104,267.952,585.291,267.355,585.291,265.422L585.291,265.422z M594.491,267.018c0,13.671,4.987,25.591,13.776,25.591
		c8.772,0,13.466-11.92,13.466-25.591c0-13.665-5.029-23.793-13.822-23.793C599.139,243.224,594.491,253.353,594.491,267.018
		L594.491,267.018z M608.335,284.565c-1.676,0-3.712-5.315-3.712-22.827c0-7.858,1.374-10.145,3.25-10.145
		c1.48,0,3.712,3.192,3.712,20.694C611.585,280.168,610.018,284.565,608.335,284.565L608.335,284.565z M633.561,316.57
		c-0.445-0.371-1.813-1.266-4.022-2.518c-1.708-2.023-4.604-3.976-8.832-5.619c-7.803-3.059-21.277-9.096-36.785-13.372
		c-1.767-0.488-3.479-0.944-5.227-1.423c-11.371-3.465-24.631-6.946-39.796-10.18c-49.295-11.583-94.512-17.705-154.812-17.791
		c-74.725-0.113-138.409,9.133-187.025,24.127c-40.597,11.31-59.353,23.43-59.353,26.172c0,5.434,7.874,11.528,16.012,8.473
		c2.661-0.989,2.278-3.547-0.257-10.162c3.177-2.883,15.958-9.293,37.792-16.236c4.853,15.087,21.974,69.829,56.477,109.811
		c32.362,37.457,63.541,61.832,87.167,78.499c24.673,17.419,38.91,24.846,48.365,26.244c5.325,0.766,10.339-1.335,10.177-1.277
		c42.483-19.353,89.905-57.678,120.825-91.043c34.935-37.677,55.006-83.279,61.3-102.517c-0.917,3,3.48-10.77,5.435-17.129
		c19.437,6.378,32.3,12.197,38.581,15.338c0,0-4.19,14.399,2.036,14.072C631.534,329.525,637.633,319.962,633.561,316.57z"/>
	<path d="M540.976,289.468c-36.445-8.517-85.009-15.819-145.801-16.773c-0.251,1.031-0.408,2.543-0.385,4.907
		c0.27,22-0.231,74.218,0.302,108.464c0.328,21.945-0.505,54.49-0.472,73.785c0.021,18.49,0.122,21.04,2.781,22.557
		c4.377,0.823,6.054-0.765,9.399-2.697c58.492-34.194,117.948-93.24,136.484-156.98c2.769-9.53,3.814-20.122,0-30.094
		C542.912,291.678,541.311,290.066,540.976,289.468z M459.05,384.602c-6.263,6.726-13.225,14.562-19.444,20.9
		c0.115-10.938,1.879-94.068,1.593-98.873c1.307-6.057,21.038-13.255,29.149-13.374c12.958-0.189,21.988,5.03,25.277,14.017
		C506.174,336.129,469.811,373.002,459.05,384.602z"/>
	<path d="M375.235,272.615c-15.721,0.119-30.675,0.648-44.802,1.528c-0.16,6.75-0.155,17.766,0.07,27.694
		c0.188,8.177,0.041,22.666-1.043,29.256c-2.504-3.135-8.563-37.393-11.583-56.058c-16.053,1.265-30.975,2.961-44.768,4.945
		c0.719,5.807,1.613,10.996-4.468,14.959c-0.818,0.521-2.87,2.375-3.976,2.497c-2.983,0.289-3.759-3.473-4.597-5.425
		c-1.312-3.07-2.273-6.173-3.321-9.468c-15.588,2.663-29.469,5.652-41.628,8.732c0.236,0.932,0.487,1.93,0.838,3.035
		c4.547,14.238,12.896,36.588,20.9,51.825c4.594,8.768,10.192,17.227,16.304,22.795c14.161,12.871,23.45-23.798,29.272-29.063
		c3.472,5.126,5.432,11.946,7.733,17.991c4.21,11.092,9.308,21.908,14.005,33.013c12.989,30.843,28.4,56.155,49.535,78.802
		c2.304,2.466,12.849,14.214,16.723,13.167c2.244-0.642,3.304-3.98,3.549-5.435c1.396-8.183,0.171-15.896,0.212-24.259
		c0.078-21.382,0.827-48.686,0.837-72.943C375.018,344.818,375.229,311.452,375.235,272.615z"/>
</g>
</svg>
