<?xml version="1.0" encoding="utf-8"?>
<!-- Generator: Adobe Illustrator 16.0.0, SVG Export Plug-In . SVG Version: 6.00 Build 0)  -->
<!DOCTYPE svg PUBLIC "-//W3C//DTD SVG 1.1//EN" "http://www.w3.org/Graphics/SVG/1.1/DTD/svg11.dtd">
<svg version="1.1" id="Layer_1" xmlns="http://www.w3.org/2000/svg" xmlns:xlink="http://www.w3.org/1999/xlink" x="0px" y="0px"
	 width="192.756px" height="192.756px" viewBox="263 264 192.756 192.756" enable-background="new 263 264 192.756 192.756"
	 xml:space="preserve">
<g>
	<polygon fill="#FFFFFF" points="263,264 455.756,264 455.756,456.756 263,456.756 	"/>
	<path d="M271.679,438.201l-0.108-145.008l0,0c0.072-21.184,4.105-26.967,28.888-26.967l0,0h119.06l0,0
		c19.713,0,27.553,6.701,27.553,25.624l0,0l-0.35,144.185l0,0c0,13.797-10.446,19.119-21.881,19.119l0,0H294.742l0,0
		C283.506,455.153,271.679,450.619,271.679,438.201L271.679,438.201L271.679,438.201L271.679,438.201z M284.864,293.869v117.477l0,0
		c3.942,4.335,7.688,6.604,13.405,6.604c13.798,0,24.443-11.926,40.41-11.926c10.841,0,15.572,3.745,20.304,11.63
		c4.729-7.885,10.445-11.827,20.696-11.827c13.798,0,27.203,12.418,40.212,12.418c5.323,0,9.266-2.562,13.603-6.897l0,0v-118.07l0,0
		c0-12.614-0.985-14.388-13.405-14.388l0,0l-120.267,0.005l0,0C286.732,278.894,284.864,281.902,284.864,293.869L284.864,293.869
		L284.864,293.869L284.864,293.869z M353.675,333.453h23.852l24.837,52.627H384.82L353.675,333.453L353.675,333.453L353.675,333.453
		z M321.934,386.08l26.809-50.853l12.023,18.725l-21.288,32.128H321.934L321.934,386.08L321.934,386.08z M312.865,348.841
		l11.039-15.374h22.865l-19.12,15.177L312.865,348.841L312.865,348.841L312.865,348.841z M387.539,390.223H403.9l7.489,16.163l0,0
		c0,0.984,0,2.365-3.351,2.365c-4.928,0-10.448-1.972-13.011-6.111l0,0L387.539,390.223L387.539,390.223L387.539,390.223z
		 M319.546,390.227h16.558l-8.081,12.812l0,0c-1.183,1.971-1.973,2.759-3.353,2.759c-6.11,0-8.475-3.744-8.475-6.307
		C316.196,396.93,317.181,394.957,319.546,390.227L319.546,390.227L319.546,390.227L319.546,390.227z M314.235,282.793
		c0,0,39.419-0.093,39.621,0c0.133,0.062,14.54,30.86,21.778,46.305c0.091,0.192,0.077,0.213-0.136,0.213
		c-17.464,0.024-52.293,0.094-52.396,0c-0.278-0.26-3.548-5.519-3.548-5.519c-2.168-3.548-2.76-4.929-2.76-6.111l0,0l2.365-24.244
		l0,0c-0.115-2.85-0.999-5.246-2.759-7.49l0,0L314.235,282.793L314.235,282.793L314.235,282.793z M298.261,432.128
		c-4.139,0-6.899-0.985-13.404-4.336l0,0v9.265l0,0c0,5.32,0,5.32,10.842,5.32l0,0h128.127l0,0c9.462-0.394,9.658-0.394,9.658-5.912
		l0,0v-9.066l0,0c-5.718,3.548-8.87,4.729-13.995,4.729c-13.207,0-28.779-13.009-40.409-13.009c-8.083,0-11.631,5.519-12.812,13.009
		l0,0h-14.587l0,0c-0.985-7.688-4.337-13.009-12.614-13.009C325.463,419.119,312.453,432.128,298.261,432.128L298.261,432.128
		L298.261,432.128L298.261,432.128z"/>
</g>
</svg>
