<?xml version="1.0" encoding="utf-8"?>
<!-- Generator: Adobe Illustrator 16.0.0, SVG Export Plug-In . SVG Version: 6.00 Build 0)  -->
<!DOCTYPE svg PUBLIC "-//W3C//DTD SVG 1.1//EN" "http://www.w3.org/Graphics/SVG/1.1/DTD/svg11.dtd">
<svg version="1.1" id="Layer_1" xmlns="http://www.w3.org/2000/svg" xmlns:xlink="http://www.w3.org/1999/xlink" x="0px" y="0px"
	 width="97.688px" height="101.193px" viewBox="0 0 97.688 101.193" enable-background="new 0 0 97.688 101.193"
	 xml:space="preserve">
<g>
	<path fill="#FFFFFF" d="M45.109,101.193l-5.672-0.587c-3.861-0.396-6.252-2.805-7.681-4.243c-0.255-0.255-0.49-0.523-0.756-0.729
		c-3.908-2.906-4.823-6.826-5.312-9.356c-7.573-5.628-12.991-12.793-16.164-21.366c-2.305-0.603-4.18-1.82-5.249-2.638l-1.047-0.798
		l-0.666-1.141c-4.096-7.027-2.383-15.014-0.999-19.149c0.881-3.37,2.882-6.746,5.924-9.922c-0.042-0.611-0.032-1.165-0.005-1.622
		l-1.363-1.388l0.668-3.44c0.145-0.749,0.387-1.358,0.626-1.853l-0.049-0.22c-0.556-2.525,0.21-5.386,2.51-7.211l-1.033-3.685
		l4.131-0.969l-0.756-3.908h7.37c1.213-1.138,3.071-2.422,5.76-2.572l5.178-2.858l1.355-1.187l0.277,0.284L33.311,0l0.878,2.714
		l1.324,1.351c0.068,0.015,0.137,0.029,0.208,0.044c0.046,0.01,0.095,0.02,0.142,0.029c0.856-0.338,1.833-0.773,2.738-1.175
		c1.375-0.614,2.711-1.199,3.864-1.607l1.084-0.387l1.404-0.037c6.296,0,10.377,4.025,20.574,40.807
		c5.204,18.777,9.589,37.888,10.115,40.638l0.932,4.864l-4.387,2.305c-7.556,3.954-17.292,5.07-25.1,2.888
		c-0.059,1.047-0.218,2.129-0.514,3.244L45.109,101.193z M39.327,75.217c2.55,0,4.737,1.023,6.541,2.026l0.622,0.392
		c3.017,2.139,6.65,2.589,9.168,2.589c1.918,0,3.861-0.255,5.723-0.734c-3.65-16.12-13.162-52.742-18.408-63.866
		c-1.72,0.756-3.477,1.48-5.227,1.928l-1.999,0.511l-1.94-0.708c-0.245-0.081-0.536-0.127-0.825-0.186
		c-0.015-0.005-0.029-0.007-0.044-0.01l-0.436,0.382l-2.28-0.59l-2.499,1.38L27.22,18.2c-0.485,0.413-1.045,0.829-1.706,1.201
		c-0.939,1.189-1.979,1.987-2.983,2.535c-0.421,0.67-0.844,1.169-1.108,1.48l-0.337,0.628c-0.083,0.619-0.23,1.27-0.45,1.958
		c0.245,1.064,0.286,2.046,0.267,2.841l5.51,4.05l-6.874,5.427c-2.833,2.239-4.632,4.551-5.197,6.69
		c-0.878,2.657-1.153,5.019-0.861,6.79l0.426,0.107l5.38-1.39l1.696,6.415c2.131,8.061,6.567,14.373,13.551,19.272l2.391-0.666
		C37.695,75.325,38.505,75.217,39.327,75.217z"/>
	<g>
		<path fill-rule="evenodd" clip-rule="evenodd" d="M93.156,30.75c-3.812,0.335-4.898,5.001-7.404,7.556
			c-3.156,2.554-6.533,4.776-10.237,6c-2.178,4.887-8.168,7.666-11.868,11.111c5.335,3.445,2.394,11.774,1.851,17.108l-5.335,0.445
			c3.157,3.773,7.84,4.997,8.927,10.664c-7.84,4.11-18.944,4.776-26.461-0.559c-1.199-0.665-2.721-1.438-3.92-1.105
			c0.436,3.998,2.506,7.884,1.415,12c-2.178-0.226-3.484-2.447-5.114-3.671c-2.834-2.109-2.506-5.222-3.377-7.996
			c-8.823-5.893-14.485-13.781-17.099-23.667c-0.436,0.113-0.979-0.107-1.194,0l-0.44-0.107c-1.414,0.333-3.264-0.558-4.571-1.556
			c-2.398-4.111-1.85-9.448-0.436-13.669c1.086-4.11,4.135-7.553,7.512-10.22c-2.721-2,0.112-4.779-2.065-7
			c0.107-0.556,2.178-3.11,0.543-4.776c-0.22-1.001,1.199-0.666,1.742-1.221c0.543-1.111,1.958-1.779,1.522-3.335
			c1.419-0.333,2.397-0.443,3.269-1.667l0.108-0.333l-0.215-1.111h0.323c-0.108,0.333,0.763,0,0.983,0.223
			c2.393-0.778,2.285-3.445,5.227-2.667l2.613-1.443c0.215,0.666,0.871,0.333,1.307,0.445l0.764-0.668c0.979,1,3.049,1,4.57,1.556
			c2.613-0.668,4.904-2.222,7.517-3.11c6.42-1.889,12.954-3.555,19.927-3.778l0,0c5.77-1.333,11.432,1.777,16.223,1.444
			c3.049,3.445,0.436,8.554,0.871,13.333c0.221,2.887,1.415,5.665,3.377,7.664c2.834-0.555,5.334-0.11,7.947-2.222
			c2.834-0.776,3.705-0.776,4.468,1.446C96.098,28.751,94.683,29.639,93.156,30.75L93.156,30.75z"/>
		<path d="M41.047,95.311l-1.052-0.107c-1.931-0.2-3.232-1.512-4.382-2.672c-0.443-0.445-0.878-0.891-1.348-1.243
			c-2.439-1.815-2.904-4.267-3.313-6.425c-0.113-0.598-0.225-1.199-0.382-1.781c-8.51-5.8-14.216-13.591-16.974-23.188l-0.11,0.055
			l-0.624-0.152c-2.063,0.279-4.468-1.209-5.285-1.84l-0.318-0.362c-2.205-3.778-2.4-9.129-0.541-14.684
			c0.913-3.46,3.228-6.817,6.866-9.932c-0.827-1.221-0.719-2.554-0.634-3.597c0.093-1.169,0.115-1.808-0.494-2.432L12,26.485
			l0.123-0.637c0.061-0.306,0.208-0.58,0.413-0.961c0.683-1.27,0.999-2.166,0.463-2.713l-0.25-0.252l-0.076-0.348
			c-0.181-0.822-0.02-1.892,1.781-2.317c0.076-0.017,0.174-0.042,0.252-0.063c0.212-0.34,0.46-0.631,0.685-0.896
			c0.585-0.685,0.663-0.854,0.563-1.214l-0.347-1.243l1.668-0.389c1.057-0.24,1.527-0.367,1.955-0.861l-0.423-2.188h3.002
			c0.345-0.232,0.624-0.546,0.93-0.888c0.742-0.827,1.901-1.955,3.91-1.627l3.519-1.942l0.287,0.878l1.135-0.996l0.82,0.837
			c0.369,0.379,1.297,0.575,2.195,0.761c0.519,0.11,1.04,0.223,1.524,0.37C37.348,9.44,38.52,8.88,39.755,8.29
			c1.099-0.526,2.237-1.069,3.458-1.485C50.544,4.646,56.771,3.176,63.5,2.961c0.827-0.216,1.921-0.333,3.11-0.333
			c2.417,0,4.723,0.499,6.949,0.981c2.204,0.479,4.245,0.954,6.117,0.797l0.609-0.042l0.403,0.458
			c2.339,2.643,1.896,5.965,1.471,9.178c-0.216,1.623-0.436,3.301-0.294,4.862c0.184,2.415,1.121,4.722,2.599,6.442
			c0.575-0.088,1.138-0.146,1.693-0.203c1.83-0.186,3.413-0.348,5.021-1.646l0.451-0.232c1.157-0.316,2.023-0.514,2.767-0.514
			c1.997,0,2.761,1.471,3.198,2.753l0.094,0.264l-0.032,0.276c-0.374,3.291-2.062,4.512-3.556,5.591l-0.276,0.198l-0.561,0.191
			c-1.918,0.169-3.005,1.916-4.263,3.939c-0.704,1.128-1.431,2.297-2.365,3.25c-3.759,3.051-6.996,4.987-10.229,6.134
			c-1.681,3.337-4.857,5.647-7.933,7.884c-1.022,0.744-2.007,1.463-2.897,2.188c3.475,3.416,2.484,9.142,1.674,13.825
			c-0.213,1.229-0.416,2.397-0.523,3.45l-0.103,1.022l-3.695,0.309c0.512,0.436,1.035,0.847,1.549,1.258
			c2.47,1.952,5.021,3.969,5.826,8.157l0.174,0.905l-0.814,0.426c-4.187,2.197-9.161,3.406-14.006,3.406
			c-5.261,0-10.013-1.399-13.747-4.052c-0.34-0.182-1.057-0.577-1.747-0.798c0.157,0.798,0.36,1.605,0.57,2.441
			c0.68,2.722,1.385,5.535,0.585,8.56L41.047,95.311z M15.167,57.101l0.562,1.219c2.53,9.572,8.111,17.294,16.59,22.956l0.362,0.24
			l0.132,0.416c0.252,0.808,0.414,1.64,0.57,2.467c0.372,1.967,0.692,3.665,2.364,4.908c0.563,0.426,1.091,0.949,1.622,1.482
			c0.6,0.602,1.177,1.185,1.789,1.557c0.188-1.968-0.308-3.944-0.827-6.015c-0.343-1.365-0.695-2.779-0.854-4.229l-0.113-1.042
			l1.013-0.284c1.473-0.416,3.276,0.348,4.852,1.219c3.426,2.423,7.683,3.665,12.428,3.665c4.123,0,8.346-0.954,11.998-2.691
			c-0.798-2.691-2.626-4.14-4.711-5.784c-1.268-1.003-2.576-2.036-3.731-3.421l-1.529-1.83l6.707-0.558
			c0.115-0.822,0.265-1.693,0.421-2.594c0.812-4.698,1.732-10.018-1.835-12.327l-1.336-0.861l1.162-1.082
			c1.253-1.165,2.691-2.212,4.216-3.323c2.963-2.153,6.027-4.382,7.365-7.387l0.223-0.499l0.519-0.171
			c3.11-1.028,6.239-2.865,9.849-5.787c0.639-0.663,1.263-1.668,1.926-2.73c1.351-2.173,2.875-4.623,5.792-5.055
			c1.375-1.001,2.19-1.688,2.469-3.558c-0.311-0.815-0.497-0.815-0.764-0.815c-0.423,0-1.057,0.142-1.871,0.36
			c-2.107,1.61-4.143,1.818-6.115,2.019c-0.702,0.073-1.422,0.144-2.163,0.289l-0.653,0.129l-0.468-0.477
			c-2.123-2.163-3.483-5.239-3.727-8.437c-0.166-1.818,0.074-3.636,0.307-5.39c0.354-2.677,0.665-5.019-0.526-6.773
			c-2.038-0.039-4.008-0.414-6.145-0.876c-3.078-0.668-6.442-1.265-9.217-0.624C57.114,5.643,51.06,7.076,43.962,9.164
			c-1.035,0.353-2.056,0.842-3.14,1.36c-1.397,0.668-2.841,1.358-4.421,1.762l-0.37,0.096l-0.359-0.132
			c-0.485-0.176-1.033-0.286-1.574-0.399c-0.856-0.181-1.732-0.364-2.488-0.751l-0.526,0.462l-0.663-0.164l-0.306,0.027
			c-0.333,0-0.609-0.062-0.837-0.159l-2.273,1.255l-0.479-0.127c-0.866-0.228-1.069-0.203-1.938,0.769
			c-0.58,0.65-1.299,1.46-2.591,1.879L21.7,15.139l-0.277,0.663c-0.891,1.253-1.906,1.649-2.983,1.918
			c-0.132,0.974-0.729,1.674-1.165,2.185c-0.223,0.26-0.433,0.507-0.541,0.725l-0.225,0.323c-0.309,0.313-0.67,0.479-1.006,0.587
			c0.678,1.646-0.21,3.438-0.714,4.382c0.819,1.272,0.709,2.628,0.626,3.661c-0.105,1.292-0.115,1.889,0.722,2.503l1.309,0.962
			l-1.275,1.008c-3.82,3.017-6.203,6.235-7.083,9.565c-0.783,2.347-2.264,8.053,0.186,12.516c1.229,0.886,2.577,1.355,3.34,1.189
			l0.289-0.069l0.492,0.118l0.117-0.006c0.132,0,0.291,0.016,0.462,0.04L15.167,57.101z"/>
	</g>
	<g>
		<path fill-rule="evenodd" clip-rule="evenodd" fill="#22945F" d="M91.199,29.975c-0.436,0-0.871-0.113-0.984,0.333
			c-2.285-1.779-3.156,2.222-5.227,2.109c-1.634,0.555-3.156,1.556-5.006,1.556c-4.468,2.667-8.932,4.999-14.05,5.777
			c0.327,0.113,0.543-0.11,0.763-0.223c-1.091-0.22-2.833-0.333-4.027,0.113l0.871,1.443l-0.328,0.333
			c0.871,0.445,1.958-0.443,3.049-0.556c1.635-0.555,3.593-0.11,5.335-0.11c4.903-4.221,11.651-3.11,16.12-8.222
			c-1.635,2.667-3.705,5.777-6.318,7.221l0.216-0.11l0.327,0.333l-0.215,0.223l-0.328-0.445c-2.285,1.224-4.355,2.89-6.861,3.555
			c0.656-2.332,3.265-1.443,4.141-2.887c-0.436-0.668-1.307-0.335-1.963-0.445l-0.327,0.333c-0.979-0.666-2.07,0.778-3.157,1.223
			c-2.505,0.333-4.463,0.221-6.641,0.333c-1.854,2.555-4.575,4.556-7.625,4.443c1.962-0.333,3.812-2.554,6.206-2.777
			c0-0.445,0.112-0.888-0.323-1c-0.655,0-1.419,1.111-2.07,0.223c-0.979,0-1.85-0.11-2.94-0.555
			c-1.307-0.778-1.199-2.667-2.614-2.777c-0.979,2.555-4.791,0.445-7.076,1.333c-4.14-2.89-6.318-7.556-7.082-12.222l0.328,0.335
			c1.091-1.333,0.871-3.778,0.543-5.444c0.328,0.11,0.436-0.112,0.656-0.333c0-0.335,0.107-0.778-0.221-1.001l0.656-0.668
			c-0.221-0.22-0.436-0.333-0.328-0.666l0.328-0.333c0.215,0.445,0.65,0.333,0.979,0.333c0.107-0.778,0.436-1.889,0.543-3
			c-0.107,1.889-0.65,4.556,1.419,5.112c-2.178,3.998-0.871,9.11-0.548,13.331c1.635,1.556,1.199,5.555,4.468,4l0.758-1
			c0.113-0.666-0.323,0.888,0.22,1c0.436-0.112,1.086,0.333,1.415-0.223c-0.871-3.778-5.555-6.11-5.662-10.22
			c-1.522,3.11,0.871,5.554,1.414,8.332c-2.065-3.445-2.5-8.777-1.521-12.775v-0.335h0.328c-1.199,4.557,2.829,7.999,4.898,11.557
			c1.307,0.666,3.157,1.111,4.684,0.556c0.107-0.335-0.108-0.556-0.328-0.668c-0.107-1.443-1.962-0.333-2.613-1.221
			c-1.742,0.333-2.505-1.889-3.592-3.223l-0.548-1.444c1.199-0.555,2.726,0.999,3.269,2.222c-0.107,0.666,0.543,1.001,0.871,1.444
			c0.436,0,0.871,0.11,0.979-0.333c-1.522-5.444-10.233-4.999-6.749-12.222v-0.666c0.323,0,0.758,0.11,1.086-0.333
			c-1.086-0.778-0.328-2.222-0.979-3.113l-0.979,1.669c-0.113-0.445,0.323-1.113-0.328-1.336c1.742-0.22,0.328-1.331,0.763-2.442
			c0.323,0.11,0.543-0.113,0.651-0.223c-0.651-0.668,0.22-1.889-0.543-2.445c-0.108,0.223-0.436,0.333-0.328,0.666l-0.651-0.11
			c0.979,0,0.979-1.001,1.415-1.556c0.763,1.667-0.979,6.333,2.07,6.222c0.215-1.333-1.527-2.777,0.107-3.778
			c0.764,0-0.107,1.556,0.979,1.444c0.107-1.889,1.199-2.109,2.505-3.333c0.436,0,0.871,0.891,1.307,0.113l0.108-1
			c2.07,2.222,0.656-1.889,2.07-2.332c2.505-3.112,4.576,2.222,7.405-0.335c-1.958,1.446,2.721,3,0.107,4.779
			c-1.087,1.221-1.958,2.222-3.484,2.555c2.178-1.001,3.377-3.11,2.941-5.667l-0.651-0.666c-0.22,0.11-0.436,0.333-0.328,0.555
			c-0.655-0.223-1.091-1-1.962-0.666l-0.759,0.556c0.979,0.333,1.958,0.888,2.613,1.886c0.436,1.334-1.199,1.779-1.854,2.667
			c-0.979,0.112-1.63-0.333-2.178-1.111c-1.522-1.557,3.377-4.333-0.216-3.778l-0.979-1.111c-0.763,1.333-1.527,3.113-0.876,4.779
			h0.328c-0.436,0.22-0.328,0.556-0.328,0.999c-1.302-0.333-0.107-3.888-1.629-1.777c-0.984,1.777,1.742,2.222,1.522,3.778
			c1.091,0.555,3.161,0.443,2.178,2.555c-0.216-0.556-0.543-1.334-1.194-1.444c-0.22,0.22-0.436,0.333-0.436,0.666
			c-0.328-0.223-0.44-0.888-0.983-0.778c-0.759,0.778,0.436,1.669,0.656,2.444c0.436-0.11,1.086,0.333,1.306-0.223
			c-0.655-0.998,0.328,0.891,0.979,0.335v0.333c-0.216-0.446-0.651-0.333-0.979-0.333c-1.091,0.443,0.436,0.888-0.107,1.667
			l0.651,0.666c-0.979,0.668,0.107,1.444,0.22,2.112l-0.22-0.223l0.327-0.333l0.216,0.223l-0.323,0.333l0.651,0.665
			c1.198-2.554,0.543-6.888,3.812-9l2.07-1.999c-1.419,3.888-3.812,7.221-3.597,11.887l0.764,5.444
			c-1.415,0.112-3.049,0.778-3.7,2.224c-0.112,1.886-0.655,3.998,1.414,5.219c0.764-1.667-1.414-4.667,0.871-5.777
			c1.199,0.445,3.049,0.891,4.028-0.223c-1.307-1.331-1.635-2.997-1.742-4.776c0.763-1.889,2.833-2.111,4.14-3.223
			c-1.419-2.665-0.871-5.997-1.307-8.997c1.414-0.223,0.328-2.224,1.194-3c-0.216-0.223-0.323-0.445-0.651-0.335l-0.763,0.558
			c0.327-1.113,1.742-2.334,0.871-3.667c-0.323-1.111-1.415-0.333-1.958-1.111l0.323-0.333l-4.679-0.556
			c1.087-0.333,2.065-0.778,3.372-0.555c0.548,1.221,1.962,0,3.049,0.443c-1.63,0.558-0.107,2.444,0.871,2.78
			c0.328,0,0.436,0.22,0.655,0.443c0.436-1.221,1.742-2.777,3.157-3c-1.415,3-5.227,4.556-4.464,8.667
			c1.415,3.223-0.65,7.776,1.199,10.666c-1.635,2.332,0.436,7.889-3.92,7.331c-0.655,1.556,0.759,2.334,1.087,3.556
			c5.882-1.221,7.188-3.11,12.631-4.889c1.634-0.443,2.726-2.222,4.468-2.222l-0.328,0.335l0.651,0.666
			c2.618-2.332,6.317-3,9.259-5.332C95.118,28.751,92.393,29.196,91.199,29.975L91.199,29.975z"/>
		<path fill="#22945F" d="M59.208,47.548l-0.291-0.005l-0.162-2.459c0.653-0.11,1.419-0.587,2.229-1.094
			c0.063-0.042,0.13-0.081,0.198-0.123c-0.614-0.103-1.193-0.274-1.815-0.528c-1.052-0.609-1.483-1.427-1.796-2.024
			c-0.027-0.049-0.054-0.103-0.086-0.159c-0.939,0.795-2.525,0.881-4.321,0.702c-0.972-0.093-2.021-0.162-2.572,0.044l-0.614,0.24
			l-0.543-0.377c-3.974-2.774-6.673-7.406-7.593-13.037l0.854-0.433l-0.262-0.215c0.583-0.714,0.69-2.366,0.287-4.421l-0.411-2.092
			l0.626,0.213l0.528-0.539c-0.056-0.25-0.051-0.538,0.057-0.871l0.296-0.487l1.375-1.397c0.052-0.279,0.096-0.568,0.123-0.854
			l2.469,0.191l-0.061,0.814c-0.002,0.022-0.002,0.047-0.005,0.071c0.085,0.122,0.228,0.267,0.392,0.325l0.027-0.25l-0.365-0.213
			l0.467-0.797l0.118-1.141c-0.007,0.039-0.208,0.37-0.186,0.595c-0.181-0.744-0.362-1.461-0.049-2.261l0.167-0.423l-0.09-0.015
			l0.071-0.856L47.877,13.8c-0.201-0.622-0.044-1.196,0.462-1.715c-0.073-0.005-0.017-0.137,0.022-0.229
			c0.112-0.255,0.25-0.57,0.482-0.866l0.142-0.238l0.027,0.022l1.084-1.382l0.846,1.845c0.26,0.567,0.326,1.233,0.331,1.952
			c0.024-0.017,0.049-0.032,0.076-0.046l0.296-0.183h0.35c0.14,0,0.401,0.02,0.673,0.142c0.342-0.394,0.734-0.697,1.105-0.983
			c0.265-0.206,0.556-0.429,0.859-0.712l0.357-0.335h0.489c0.071,0,0.14,0.005,0.206,0.015l0.267-2.491l1.148,1.23
			c0.137-0.673,0.423-1.37,1.104-1.75c0.245-0.271,0.501-0.499,0.768-0.683l0.433-0.756l0.328,0.372
			c0.874-0.313,1.857-0.112,2.655,0.245l-0.081-0.905l0.492-0.157c0.949-0.311,2.061-0.67,3.45-0.436l0.65,0.113l0.187,0.416
			c0.107-0.017,0.218-0.042,0.33-0.064c0.739-0.144,1.52-0.2,2.141,0.054l-0.024,0.827l0.445,0.052l-0.46,0.475l-0.015,0.489
			c0.184,0.157,0.37,0.372,0.517,0.673C70.061,8.826,70.1,8.86,70.136,8.89c0.801-1.189,2.053-2.251,3.443-2.472l2.31-0.362
			L74.893,8.17c-0.575,1.214-1.434,2.168-2.269,3.091c-1.539,1.705-2.464,2.851-2.099,4.823c0.702,1.52,0.587,3.504,0.475,5.425
			c-0.073,1.262-0.145,2.474,0.056,3.497l0.143,0.267l-0.066,0.056c0.096,0.357,0.23,0.685,0.418,0.979l0.448,0.7l-0.478,0.678
			c-0.4,0.575-0.491,1.691-0.579,2.772c-0.157,1.901-0.385,4.71-3.132,5.084c0.068,0.127,0.166,0.279,0.293,0.472
			c0.088,0.135,0.182,0.274,0.271,0.423c2.643-0.636,4.226-1.419,6.029-2.312c1.537-0.761,3.127-1.546,5.518-2.329
			c0.549-0.149,1.048-0.514,1.573-0.9c0.886-0.648,1.89-1.383,3.279-1.383h1.292c1.032-0.631,2.124-1.135,3.193-1.629
			c1.556-0.722,3.023-1.4,4.328-2.432l1.393-1.106l0.553,1.691c0.933,2.851-1.603,4.003-2.821,4.558
			c-0.311,0.142-0.609,0.269-0.837,0.418l-0.309,0.201h-0.303l-0.311,1.236l-1.498-1.165c-0.198-0.154-0.323-0.195-0.364-0.195
			c-0.198,0-0.729,0.558-1.016,0.856c-0.13,0.137-0.265,0.279-0.409,0.421l1.104,0.81c-1.523,2.488-3.205,4.965-5.258,6.629
			l0.159,0.161l-2.073,2.144l-0.548-0.741c-0.369,0.218-0.733,0.443-1.101,0.668c-1.571,0.964-3.195,1.962-5.095,2.466l-2.097,0.555
			l0.587-2.087c0.022-0.073,0.044-0.146,0.066-0.218l-0.018,0.002c-1.732,0.23-3.205,0.257-4.629,0.281
			c-0.512,0.01-1.021,0.017-1.539,0.037c-0.37,0.468-0.764,0.913-1.183,1.332l-0.002,0.002c-0.003,0.002-0.005,0.005-0.008,0.007
			l-2.104,2.092v-0.401C62.426,47.054,60.825,47.548,59.208,47.548z M58.242,38.426c0.812,0.396,1.223,1.175,1.52,1.735
			c0.225,0.428,0.421,0.8,0.708,0.969c0.342,0.134,0.675,0.225,1.008,0.284l0.507-0.514L61.3,39.77
			c-0.993-0.722-1.45-1.625-1.639-2.555c-0.015,0.083-0.035,0.166-0.062,0.25l-0.186,0.578l-0.57,0.205
			C58.648,38.318,58.447,38.379,58.242,38.426z M78.177,38.781c0.387,0.056,0.883,0.215,1.289,0.648
			c0.443-0.264,0.886-0.524,1.339-0.766c0.606-0.337,1.187-0.78,1.744-1.304c-1.013,0.382-2.038,0.698-3.054,1.011
			C79.05,38.504,78.612,38.641,78.177,38.781z M49.942,38.348c0.237,0.57,0.445,0.961,0.651,0.961c0.081,0,0.237-0.017,0.504-0.12
			l0.34-0.45l0.112-0.742l0.382-0.071c-0.311-0.433-0.656-0.864-1.015-1.299c0.134,0.394,0.249,0.798,0.33,1.218L49.942,38.348z
			 M64.721,38.096c0.583,0,1.197,0.049,1.771,0.139l-0.015-0.054c-0.061-0.23-0.244-0.509-0.44-0.802
			c-0.386-0.587-0.927-1.402-0.854-2.479c-0.533-0.027-1.116-0.134-1.735-0.321c-0.127,0.257-0.098,0.725,0.094,1.765
			c0.104,0.572,0.215,1.189,0.205,1.801C64.056,38.113,64.379,38.096,64.721,38.096z M59.218,35.734
			c0.14,0.151,0.252,0.32,0.331,0.501c-0.024-0.629,0.032-1.246,0.081-1.796l0.169-1.197c0.671-1.49,2.061-2.336,3.438-2.718
			l-0.599-4.27c-0.005-0.125-0.011-0.252-0.013-0.376l-0.686,1.458l-2.973-3.027l0.345-0.352c-0.208-0.545-0.24-0.994-0.164-1.363
			l-0.695-0.71l0.357-0.509c-0.013-0.02-0.024-0.039-0.034-0.059l-0.773,0.193l-0.338-1.199c-0.027-0.078-0.169-0.296-0.262-0.438
			c-0.389-0.589-1.297-1.97-0.088-3.208l0.095-0.309c-0.032-0.11-0.33-0.401-0.509-0.572c-0.399-0.39-1.082-1.05-1.219-1.97
			c-0.015-0.005-0.027-0.012-0.039-0.017c-0.123,0.096-0.242,0.188-0.357,0.276c-0.791,0.612-1.028,0.795-1.077,1.637l-0.059,1.052
			l-1.05,0.107c-0.024,0-0.063-0.005-0.073,0c0.101,0.399,0.157,0.834,0.081,1.302l-0.162,1.003l-1.016,0.037
			c-0.167-0.107-0.377-0.012-0.543-0.032c0.02,0.298,0.054,0.401,0.13,0.455l1.021,0.732l-0.746,1.01
			c-0.188,0.254-0.485,0.541-0.923,0.705l-0.044,0.096c-0.284,0.585-0.475,1.099-0.585,1.556h0.203l-0.306,1.165
			c0.135,1.385,1.299,2.197,2.956,3.35c1.793,1.246,3.824,2.66,4.556,5.281l0.088,0.311l-0.076,0.313
			c-0.017,0.063-0.044,0.156-0.088,0.264C58.193,34.525,58.934,34.836,59.218,35.734z M80.34,35.201
			c-0.385,0.228-0.769,0.452-1.146,0.67c1.001-0.308,1.979-0.621,2.919-1C81.558,35.04,80.969,35.164,80.34,35.201z M44.498,29.453
			c0.328,1.517,0.805,2.938,1.415,4.238c-0.005-0.024-0.008-0.049-0.01-0.074c-0.395-3.284-0.832-6.961,0.452-10.218
			c-0.203-0.174-0.372-0.369-0.514-0.582c-0.002,0.051-0.005,0.095-0.007,0.137l-0.027,0.47l-0.34,0.539
			c-0.047,0.049-0.098,0.108-0.159,0.167C45.555,25.917,45.528,28.017,44.498,29.453z M66.755,28.431
			c0.1,1.323,0.369,2.657,1.367,3.675l0.091,0.093c0.11-0.428,0.188-1.047,0.259-1.943c0.094-1.131,0.187-2.291,0.627-3.284
			c-0.022-0.049-0.047-0.101-0.066-0.149c-0.142,0.073-0.281,0.145-0.418,0.213C67.699,27.498,67.09,27.831,66.755,28.431z
			 M67.261,17.848c-1.187,2.623-2.305,5.102-2.163,8.18l0.059,0.406c0.698-0.775,1.581-1.224,2.34-1.607
			c0.203-0.101,0.401-0.201,0.587-0.304c-0.646-1.747-0.709-3.614-0.773-5.43C67.295,18.677,67.283,18.261,67.261,17.848z
			 M47.661,19.504c-0.068,1.356,0.054,2.012,0.626,2.163l0.046,0.013c0.042-0.103,0.088-0.208,0.137-0.316v-1.627h0.487
			c-0.002-0.015-0.005-0.031-0.005-0.049L47.661,19.504z M62.38,17.402v0.362c0.19-0.372,0.413-0.732,0.672-1.072l-0.229-0.689
			L62.7,16.008c-1.084,0-1.979-0.468-2.73-1.427v1.113c0.748,0.228,1.717,0.556,2.15,1.522c0.044,0.1,0.083,0.206,0.112,0.313
			L62.38,17.402z M62.509,11.649c-0.034,0.052-0.07,0.103-0.107,0.152c-0.205,0.289-0.639,0.888-0.653,1.121
			c0.318,0.382,0.538,0.526,0.717,0.58c0.206-0.188,0.421-0.353,0.622-0.504c0.168-0.132,0.436-0.335,0.553-0.468
			C63.354,12.178,62.979,11.887,62.509,11.649z"/>
	</g>
	<polygon fill-rule="evenodd" clip-rule="evenodd" points="89.344,26.862 91.742,25.641 89.672,26.862 89.344,26.862 	"/>
	<polygon fill-rule="evenodd" clip-rule="evenodd" points="84.445,30.084 85.532,29.752 85.532,30.084 84.445,30.084 	"/>
	<path fill-rule="evenodd" clip-rule="evenodd" fill="#FFFFFF" d="M75.406,29.639l0.436-0.333l-0.327-0.333
		c0.983-0.333,3.376-0.668,4.355,0.556c1.742-0.778,3.269-2.445,5.339-2.222C82.596,29.639,79.219,30.197,75.406,29.639
		L75.406,29.639z"/>
	<path fill-rule="evenodd" clip-rule="evenodd" fill="#FFFFFF" d="M80.961,26.862c0.328-2.332-1.414-4.666-2.07-6.998l0.436-10.889
		c0.328,0.113,0.544-0.11,0.764-0.333L79.762,8.31l0.544,1.111c0.327,5.665-2.065,12.333,1.634,16.776L80.961,26.862L80.961,26.862z
		"/>
	<path fill-rule="evenodd" clip-rule="evenodd" d="M68.438,36.529c-0.871,0-0.655-1-0.871-1.446l5.007-1.444
		c-0.651-0.778-1.85-0.333-2.613-0.11c1.091,0.443,0.764-1.001,1.419-1.333c-0.22,0.443,0.323,0.666,0.543,0.998
		c0.328,0.113,0.544-0.11,0.651-0.223c-0.759-3.665-0.543-8.441,0.548-11.997c-0.328-4.779,1.194-9.445,3.265-13.443
		c1.091-0.112,2.069-1.221,3.049-0.223c-5.771,2.555-4.791,9.555-6.313,14.665c-0.328,3.445,2.941,6.333,0.543,9.667l0.328,0.333
		c0.323-0.668,0.979-0.223,1.414-0.333c1.742,0.443,3.705-0.891,5.662-0.778C77.257,33.862,72.466,34.085,68.438,36.529
		L68.438,36.529z"/>
	<g>
		<path fill-rule="evenodd" clip-rule="evenodd" fill="#E42728" d="M78.563,26.307l-0.544-0.666
			c-0.22,0.223-0.543,0.333-0.436,0.666c-0.979-0.666-2.721-0.223-2.94-1.776c0.655-2-0.871-3.556,0.22-5.222
			c0.871,1.999,0.651,4.333,2.506,6c0.431-1.446-0.656-3-0.871-4.443c0.107-2.334,0.107-5.557,1.086-7.889l0.656,0.11
			c-0.221,3.778-0.764,7.779,1.194,10.889C79.219,24.863,79.654,25.974,78.563,26.307L78.563,26.307z"/>
		<path fill="#E42728" d="M78.13,27.733l-0.764-0.763l-0.477,0.359c-0.149-0.1-0.492-0.176-0.796-0.242
			c-0.841-0.184-2.412-0.528-2.677-2.383l-0.039-0.286l0.088-0.274c0.203-0.617,0.084-1.219-0.054-1.918
			c-0.198-1.013-0.447-2.276,0.416-3.594l1.256-1.916l0.34,0.778c0.127-1.706,0.387-3.489,1.021-4.997l0.379-0.903l2.716,0.455
			l-0.146,2.398c-0.223,3.315-0.436,6.448,1.089,8.87l0.279,0.44l-0.123,0.509c-0.034,0.135-0.039,0.353-0.044,0.563
			c-0.015,0.705-0.046,2.168-1.669,2.662L78.13,27.733z"/>
	</g>
	<path fill-rule="evenodd" clip-rule="evenodd" fill="#FFFFFF" d="M75.515,27.64l0.112-0.778l2.613,0.445
		C77.369,27.417,76.277,26.975,75.515,27.64L75.515,27.64z"/>
	<path fill-rule="evenodd" clip-rule="evenodd" fill="#22945F" d="M61.577,55.305l-1.307-0.113
		c-0.651,3.887-0.979,7.781-2.506,11.222c0.979-3.44,1.527-7.443,1.527-10.889c-2.726,0.783-1.635,4.444-3.049,6.333
		c0-2.109,1.85-3.778,1.307-5.774c-3.92,1.443-8.275,4.11-10.673,7.443c0.107,0.553-0.328,1.336,0.22,1.669
		c-2.505,1.218-5.119,1.996-7.517,3.439l0.328,0.333c-0.328-0.778-0.871,0.112-1.307,0l-0.764,0.671l0.328-0.226l0.215,0.333
		l-0.215,0.225c-0.328-0.782-0.871,0-1.307-0.112c-0.764,0.554-1.527,1.552-0.764,2.335l0.656,0.777l3.484-3.225
		c-1.307,2.002-4.033,3.005-3.27,5.56c0.436-0.113,0.328-0.559,0.328-1.004c0.543,0.891-0.979,1.111,0,1.776
		c0.764-0.558,1.522-1.556,0.764-2.329c-0.113,0.221,0.107,0.44,0.323,0.666c0.548-0.666,0.871-1.337,1.742-2.002
		c0.436,1.336-0.436,2.222,0.113,3.445c0.215-0.338-0.113-0.445-0.221-0.666c-0.436,0.221-0.436,0.554-0.436,0.999
		c0.221,0.22,0.328,0.445,0.656,0.332c-0.113,0.554,0.215,1.336-0.436,1.669l0.323,0.44c1.527-0.44,0.763-2.329,1.527-3.44
		c-0.543-0.445-0.22-1.336-0.22-2.001l0.656-0.666c-0.656,1.557-0.107,3.553-0.871,5.109c3.377,3.22,8.496,4.11,13.174,5.334
		l0.328-0.332c4.248,1.223,8.711,0.332,12.415-1.116c-0.107,0.338,0.108,0.45,0.328,0.665c-8.388,2.56-18.733,1.781-25.594-3.885
		c-0.651,0.332-0.323,1.115-0.436,1.668c3.925,2.555,8.167,4.224,12.851,5.109c0.436-0.445,1.199,0.221,1.962,0.112
		c4.028,0.108,7.62-0.778,11.216-2.001c-5.227,2.892-12.636,3.777-18.185,0.891c-3.376-0.445-6.318-2.002-8.824-4.443l-3.376-0.113
		c0.22-1.443,0-2.887-0.758-3.553c-0.221,1.331,0.107,3.666-0.656,5.109c3.27,0.225,1.742,4.443,3.484,6.332l-0.65-0.998
		c-1.307-2.334-3.162-4.443-2.726-7.331c-0.323-0.45-0.651-0.891-1.307-0.782l-0.323,0.332c0.215,0.226,0.323,0.45,0.65,0.333
		c-1.414,1.669,0.764,3.671,1.092,5.56c1.629,2.441,3.156,4.889,3.699,7.663c-0.763-1.443-1.414-2.995-2.178-4.556
		c-1.521,0.558,0,1.669-0.107,2.441c-0.871-0.998-2.07-1.884-1.527-3.553c0.113,0.666,0.763,1.224,0.984,1.781
		c1.521-1.781-1.527-3.558-1.742-5.559c0.215-0.559-0.328-0.999-0.656-1.331c-1.307,0.998,0.328,2.667,0.108,4.11
		c-0.871-1.996-0.108-5.774-3.376-5.667c-1.087-0.558-2.178-2.222-3.265-1.776l0.871,1.336l0.436-0.333
		c-0.22,0.333,0.108,0.554,0.328,0.666c-1.307-1.336-2.941-1.669-3.597-3.226c-0.108,0,1.419,1.777,2.29,1.111l-4.791-4.557
		c0.436-0.107,1.086,0.338,1.307-0.327l0.323,0.327c0.655-0.327,0.328-1.11,0.436-1.668l-0.323-0.333l0.323-0.333l-1.307-1.105
		l-0.323,0.332l-1.527-1.781c-0.543,0.226-0.436,0.666-0.436,0.999l-0.651-0.666l0.323-0.333l-1.85-1.776l0.328-0.333l-0.979-1.11
		c1.522-0.998-1.527-0.665,0.107-1.664c-0.328-0.445-0.871-0.783-0.655-1.448c2.726,1.556,0.871,5.109,3.812,6.332
		c1.091-0.772,1.962,1.89,3.269,0.778c-0.328-0.333-0.871-0.66-0.656-1.331l0.436-0.333c-0.763-2.334-3.592-3.112-3.812-5.667
		c-0.323-0.112-0.543,0.221-0.651,0.333l-0.107,1.003l-0.656-0.67c2.07-1.111-0.871-2.002-0.871-3.107
		c-0.651,0.332-0.215,1.105-0.328,1.664c-0.436-0.333-0.543-0.891-0.651-1.332l0.328,0.333c0.215-0.782-1.527-2.779-1.199-3.891
		c-0.436-0.332-0.436-0.886-0.543-1.336c0.107,0.226,0.323,0.45,0.651,0.338c0.436-0.445-0.436-1.336-0.651-2.001l0.323,0.332
		c1.091-0.773-0.979-1.664,0.107-2.441c-0.543-0.338-0.215-1.111-0.215-1.669l0.656-0.666c-0.328-0.333,0.436,0.999,0.979,1.444
		c0.871-0.999-0.107-2.109-0.22-3.11c0.328,0.112,0.436-0.11,0.655-0.333c-1.199-0.555-0.328-1.889-0.543-2.777l0.979,1.111
		l0.328-0.333l0.323,0.333l-1.307,0.666l0.871,1.446c-0.323-0.223-0.436,0.11-0.651,0.221c0.328,0.668,1.307,0.888,0.871,1.778
		c-0.22-0.11-0.436,0.113-0.655,0.333c0,1.557,0.983,2.888,1.854,4.111c0.759-0.221,1.307,1.003,1.958,0.112
		c-0.763-0.666-1.958-1.336-2.178-2.78c1.307,1.89,3.157-0.225,4.248,1.89c0.436-0.226,0.328-0.666,0.436-0.999l0.328,0.333
		l0.651-0.665c-2.178-0.891,0.436-3.003-2.178-3.113c-0.215-1.999-2.07-2.555-2.178-4.221c-1.307,0.443-1.85-1.111-2.286-1.779
		l-0.655,0.555l0.112-3.778c0.651,3.223,3.484,5.111,4.679,7.778c0.548,0.776,1.307,1.111,1.962,1.444
		c0.979-0.668-0.107-1.333-0.22-1.999c1.091,0.999,3.049,1.221,4.248,1.221c-0.651-0.999-2.393-2.222-2.178-3.889l0.328,0.333
		c0.543-0.888-0.655-2.111-0.107-3.443c-0.871-0.223-1.307-1.223-1.962-1.779L27.6,37.75c-0.979-0.11-0.871-1.221-1.307-1.779
		c1.742,0.668,1.634,2.557,2.505,3.891c0.436-0.223,0.328-0.668,0.436-1.111c0.328,0.555,0.871,0.555,1.199,1.111
		c0.328-0.445,0.651-0.223,1.092-0.335c0.436,1.556,2.393,0.891,2.178,2.557l0.979,1.111c0.436-0.223,0.328-0.668,0.436-1
		c-0.871-0.999,0.215,0.445,0.651,0l0.548,0.668c0.758-0.778-1.199-2.225,0.543-3c-1.091-2.334-2.941-3.891-3.812-6
		c-0.543-1.556-2.393-0.891-2.505-2.557c-0.436,0.223-0.323,0.668-0.436,1c-0.651-1.221-0.758-3.666-2.829-3.555
		c0-0.333,0.107-0.778-0.328-1.001l-0.328,0.335l0.763-2.334c-0.543,1.999,1.199,3.556,2.506,4.556
		c0.979-0.778-0.107-1.667-0.22-2.444c0.328,0.11,0.436-0.113,0.656-0.333c-0.328-0.445,0-1.223-0.543-1.667
		c1.194-0.891,0.543-2.777,0.758-4.11l0.984,1.111c0.436-0.223,0.323-0.668,0.436-1.001c1.521,0.888-0.436,2.445,0.107,4.111
		c-0.107-0.223-0.328-0.445-0.656-0.445c-0.651,1.111-0.215,2.557-0.108,3.778c0.871,0.555,0.656,1.556,1.527,2.111l-0.656,0.666
		c1.307,3.555,4.463,2.667,6.426,5.444c0.436,0,0.764,0.113,1.086-0.333c-1.086-1.111-0.215-2.89-0.871-4.111
		c1.742-1.001-0.436-2.555,0.871-3.778l-0.323,0.333l-0.984-1.111l0.328-0.223c0.108,0.223,0.328,0.445,0.656,0.335
		c1.086-1.446-0.984-1.666-1.199-3.112c-0.22,0.223-0.436,0.335-0.436,0.668l-0.656-0.668c-0.108,0.112-0.436,0.335-0.323,0.668
		c-0.328-0.112-0.764,0-0.984-0.445c-0.108-0.998,1.091-0.333,1.419-0.888l-1.963-2.222l-0.65,1.333
		c-0.436-0.333-0.871-0.778-0.656-1.333c0.328,0.11,0.436-0.11,0.656-0.333c-0.221-0.335-0.764-0.555-0.548-1.111l0.328-0.223
		c0.108,0.778,0.979,1.333,1.527,2.112c1.307-0.113,1.629,1.111,2.285,2.109c0.651-0.442,0.328-1.333,0.436-1.999
		c0.979,0.11,0.328-1.111,1.086-1.333c0.113,0.223,0.328,0.445,0.656,0.333c1.635-3.11,3.592-6.555,7.297-7.443v0.668
		c-2.506,0.555-2.726,2.332-4.904,3.888c-1.958,2.222-3.484,4.889-3.049,8.332c1.199,5.111,2.833,10.11,4.683,14.887l0.984,0.778
		c-1.747,0.223-3.597,0.446-5.339,0.778l0.221-0.223l0.323,0.335l-0.215,0.22c-1.85-0.556-4.027,0.223-6.098,0.445
		c-3.049,0.333-3.377,3.778-6.21,4.781c-1.087,0.773-0.866,2.437-0.543,3.44c1.415,2.108,4.355,1.551,5.227,3.998
		c0.871-0.333,1.307,0.998,1.962,0.112c0.215-0.338-0.107-0.558-0.22-0.778c2.726,0.559,5.227,2.447,8.275,1.444
		c0.984-0.554,1.855-1.444,2.833-2.222l-0.328-0.446c-0.871,0,0.328,0,0.328,0.446c0.543-0.666,1.527-1.219,1.742-2.002
		l-0.328-0.333c0.221-0.22,0.436-0.332,0.328-0.665l-0.328-0.333l-1.414,1.557l0.22-0.226l0.436,0.333l-0.328,0.338l-0.328-0.445
		c-1.199,1.33-2.941,2.887-5.119,2.554l4.576-5.001l-0.328-0.333c-1.199,0.666-1.962,1.557-3.156,2.222l0.323-0.107l0.328,0.333
		l-0.215,0.22l-0.436-0.445l-0.656,0.666l0.221-0.221l0.323,0.445l-0.215,0.226l-0.328-0.45c-0.65,0.783-1.742,1.448-2.07,2.339
		l-1.629-0.45c1.521-2.222,4.027-3.778,6.205-5.109c-1.307-0.665-2.721,0.778-4.027,1.116c-0.656,1.438-2.613,2.104-2.834,3.66
		c-1.742-1.663-4.355-3.66-4.791-6c0.328-1.776,1.963-2.665,3.484-3.33c-1.086,1.111-3.592,1.667-3.156,3.33
		c0.323,0.118,0.436-0.108,0.651-0.333c0.113,0.558-0.758,0.998,0,1.331l-0.215-0.221l0.651-0.66l0.22,0.328
		c-0.328,0.333-0.871,0.67-0.764,1.223l0.328,0.445l2.178-1.996c-0.436,0.881-1.742,1.771-1.199,2.662c2.286-3.22,5.99-5.222,9.69-6
		l-0.758,0.668l0.323,0.333c-2.829,1.556-6.206,3.668-7.62,6.78l0.328,0.44c2.936-3.112,6.533-6.11,10.345-7.443
		c0.108-0.333-0.113-0.445-0.328-0.666v0.333l-0.984-0.112v-0.333c-0.866,0.223,1.091,0.223,1.312-0.223
		c0.651,0.891-0.656,1.779-1.091,2.667c-0.328,0-0.764-0.11-0.979,0.335c-0.108,0.22,0.107,0.44,0.328,0.666
		c1.415-0.666,3.157-1.669,3.807-2.89c-0.215-0.223-0.323-0.443-0.65-0.333V45.75c0.65-0.11,0.871,0.333,1.307,0.778
		c0.436-0.223,0.328-0.668,0.328-1l-0.656-0.666c0.22-0.223,0.543-0.445,0.436-0.778c2.613,2.89,6.861,3.556,10.889,3.998
		c0.328-0.11,0.436,0.113,0.655,0.335c0.436-0.335,1.199,0.223,1.958,0.11c3.161-0.888,6.861-0.223,9.475-2.667
		C69.853,49.305,64.953,52.745,61.577,55.305L61.577,55.305z"/>
	<path fill="#22945F" d="M38.146,92.933l-2.158-2.452c-0.832-0.886-2.085-2.227-1.397-4.34l0.85,0.063
		c-0.096-0.147-0.196-0.289-0.289-0.426l-1.825,0.239c-0.318-0.729-0.448-1.561-0.573-2.363c-0.337-2.153-0.583-2.564-1.534-2.564
		l-0.7-0.132c-0.343-0.177-0.656-0.406-0.954-0.651l-0.673,0.543c-0.008-0.005-0.018-0.005-0.025-0.01l-0.271,0.206l-1.441-1.513
		c-0.889-0.582-1.894-1.238-2.438-2.529l0.595-0.353l-4.426-4.209l2.643-0.616c0.044,0,0.09,0,0.137,0.005l0.024-0.079l-0.744-0.865
		l-0.044,0.792l-3.45-3.151l0.296-0.309l-1.864-1.786l0.401-0.401l-1.152-1.316l0.398-0.259c-0.083-0.162-0.142-0.348-0.154-0.563
		c-0.015-0.249,0.032-0.465,0.112-0.655c-0.279-0.47-0.445-1.042-0.213-1.762l0.154-0.479c-0.208-0.396-0.303-0.798-0.375-1.087
		l0.528-0.317l-0.213-0.059c-0.046-0.016-0.289-0.412-0.447-0.729c-0.382-0.754-0.803-1.591-0.834-2.423
		c-0.284-0.44-0.367-0.91-0.426-1.232l1.069-0.495l-0.304-0.312c-0.085,0.186-0.083,0.372-0.059,0.445
		c-0.027-0.089-0.164-0.318-0.254-0.476c-0.167-0.283-0.357-0.611-0.47-0.959l1.074-0.646l-0.289-0.411
		c-0.154,0.117-0.245,0.455-0.171,0.646c-0.534-0.915-0.612-1.595-0.468-2.099c-0.144-0.524-0.071-1.043-0.027-1.341
		c0.015-0.108,0.035-0.21,0.035-0.308v-0.507l1.145-1.446l0.308-0.03c-0.012-0.068-0.022-0.139-0.032-0.21l-0.218-1.945l0.196,0.066
		l-0.059-0.093l0.115-0.059c0.015-0.145,0.034-0.274,0.051-0.382c0.027-0.183,0.069-0.46,0.054-0.55l0.698-0.362l0.139-4.74
		l2.452-0.208c0.291,1.444,1.133,2.613,2.075,3.808l0.675-0.228l0.073,1.175c0.637,0.81,1.255,1.661,1.708,2.623l1.51-0.822
		c0.125,0.112,0.274,0.215,0.438,0.303c-0.335-0.639-0.538-1.373-0.43-2.217l0.166-1.285c-0.066-0.311-0.115-0.651-0.103-1.016
		c-0.365-0.293-0.648-0.641-0.898-0.949c-0.156-0.191-0.303-0.387-0.479-0.536l-1.289-1.094l1.52-0.954
		c-0.076-0.176-0.132-0.34-0.177-0.47c-0.039-0.117-0.098-0.291-0.129-0.345l1.426-1.904c1.684,0.643,2.195,2.092,2.569,3.149
		c0.034,0.098,0.069,0.193,0.103,0.289l0.893-0.132c0.12,0.081,0.237,0.159,0.35,0.237c0.191-0.032,0.353-0.032,0.465-0.032
		l1.172-0.301l0.428,1.167c0.039,0.134,0.068,0.179,0.548,0.396c0.34,0.151,0.95,0.428,1.336,1.005h0.292
		c0.024-0.352,0.134-0.722,0.392-1.062c-0.414-0.692-0.893-1.333-1.363-1.96c-0.744-0.993-1.515-2.021-2.019-3.239
		c-0.093-0.26-0.176-0.323-0.675-0.536c-0.085-0.037-0.179-0.078-0.276-0.125l-0.59,1.742l-1.346-2.527
		c-0.193-0.362-0.353-0.815-0.511-1.287c-0.167-0.494-0.338-1.006-0.561-1.324c-0.081-0.076-0.159-0.152-0.235-0.232
		c-0.061-0.034-0.149-0.061-0.298-0.061h-1.236l-0.135-1.233l0.157-0.057c0.051,0.064,0.115,0.12,0.191,0.157l0.198-0.296
		c-0.007-0.015-0.017-0.029-0.024-0.044l0.051-0.103l-0.098-0.059l-0.031,0.002c-0.008-0.012-0.013-0.022-0.018-0.032l-1.021-0.619
		l0.764-2.334l1.571,0.47l1.265-0.964c0.269-0.203,0.264-0.822,0.23-1.676c-0.022-0.575-0.034-1.14,0.046-1.642l0.416-2.579
		l1.37,1.549l0.167-0.494l1.312,0.763c0.079,0.046,0.154,0.096,0.225,0.145c0.018-0.061,0.037-0.125,0.062-0.188l0.139-0.36
		l2.295-1.559l0.274,1.975c0.032,0.125,0.353,0.465,0.543,0.668c0.139,0.145,0.279,0.296,0.416,0.45
		c0.372,0.079,0.685,0.211,0.954,0.382l0.076-0.472l0.565,0.064c0.154-0.473,0.472-1.006,1.206-1.221l0.487-0.145
		c1.468-2.696,3.651-6.053,7.524-6.983l1.527-0.365v3.23l-0.971,0.215c-1.121,0.25-1.571,0.773-2.32,1.642
		c-0.541,0.631-1.157,1.348-2.131,2.045c-2.016,2.337-2.865,4.605-2.54,7.169c1.045,4.426,2.562,9.269,4.488,14.28l2.555,2.021
		c-0.039,0.054-0.081,0.146-0.103,0.262l0.299,0.147l-0.316,0.039c0.002,0.073,0.012,0.149,0.04,0.23l0.379-0.22l0.401,0.196
		l0.056-0.049l-0.286-0.247l1.544-0.891c2.273,2.513,6.134,3.157,9.924,3.578l0.206-0.017c0.359,0,0.644,0.115,0.858,0.257
		c0.33,0,0.629,0.076,0.896,0.142c0.182,0.044,0.367,0.09,0.484,0.09c1.03-0.292,2.21-0.421,3.353-0.548
		c2.082-0.23,4.047-0.448,5.491-1.798l1.894,1.563c-2.056,3.25-6.22,6.372-9.564,8.877l-1.568,1.18l-0.635-0.054
		c-0.063,0.406-0.124,0.812-0.186,1.218c-0.465,3.089-0.944,6.279-2.229,9.176l-2.322-0.841c0.343-1.204,0.631-2.477,0.861-3.769
		c-0.063,0.098-0.129,0.195-0.201,0.294l-2.229-0.744c0-1.194,0.44-2.217,0.83-3.117l0.171-0.406
		c0.017-0.098,0.037-0.196,0.054-0.294c-2.831,1.312-5.973,3.343-7.933,5.883c-0.01,0.151-0.03,0.293-0.046,0.421l0,0l1.6,0.974
		l-2.043,0.988c-0.998,0.489-2.016,0.905-3.029,1.326c-1.505,0.616-2.926,1.199-4.274,1.997l0.939,0.793
		c-0.107,0.166-0.223,0.322-0.342,0.475l0.254,0.777l0.02-0.02l2.021,1.351c-0.201,0.476-0.25,1.087-0.281,1.742l0.511,0.421
		l-0.558,0.514c-0.034,0.515-0.093,1.053-0.235,1.581c2.66,2.168,6.421,3.103,10.069,4.013l1.272,0.318l0.347-0.353l0.708,0.206
		c3.359,0.974,7.351,0.592,11.622-1.082l2.418-0.944l-0.644,2.026l1.128,1.13l-1.762,0.793c-0.049,0.015-0.096,0.029-0.142,0.044
		l0.379,0.856c-5.843,3.24-13.756,3.715-19.162,1.009c-3.311-0.485-6.32-1.968-8.958-4.42l-1.923-0.068
		c0.93,0.939,1.15,2.374,1.312,3.445c0.105,0.681,0.203,1.326,0.414,1.825l0.44,0.676l-1.015,0.788
		c0.734,1.399,1.318,2.853,1.627,4.424l-2.308,0.817c-0.085-0.157-0.168-0.318-0.25-0.479L38.146,92.933z M31.451,78.633
		c0.504,0.039,0.935,0.143,1.307,0.299l-0.201-0.23l1.299-1.556l0.798-0.098c0.118,0,0.23,0.005,0.337,0.024
		c0.015-0.484,0.042-0.93,0.103-1.302l0.365-2.197l0.198,0.171c0.007-0.039,0.015-0.078,0.024-0.122l-0.534-0.632
		c-0.421-0.426-0.656-1.062-0.6-1.718c0.037-0.411,0.176-0.782,0.362-1.105l-0.022-0.005l0.044-0.029
		c0.372-0.627,0.913-1.067,1.199-1.277l0.472-0.343l0.301,0.078c0.135-0.059,0.274-0.112,0.421-0.151l0.95-0.832l0.318,0.078
		c0.171-0.088,0.35-0.171,0.545-0.225c1.485-0.871,3.029-1.508,4.527-2.119c0.639-0.265,1.277-0.528,1.914-0.808
		c0.005-0.21,0.029-0.392,0.046-0.523l-0.1-0.528l0.345-0.681c2.293-3.186,6.499-6.132,11.251-7.879l1.268-0.47l0.022,0.078
		c0.171-0.078,0.35-0.142,0.538-0.195l0.22-0.064l0.068-0.41l1.05,0.088l0.242-0.068v0.093l0.683,0.059l0.815-0.616
		c1.769-1.322,3.777-2.829,5.522-4.395c-0.536,0.078-1.069,0.137-1.586,0.196c-1.089,0.122-2.121,0.235-3.075,0.504l-0.549,0.059
		c-0.423,0-0.79-0.093-1.086-0.166c-0.047-0.01-0.091-0.024-0.135-0.035l-0.631,0.485l-0.771-0.778
		c-0.015-0.015-0.024-0.029-0.029-0.034c-3.414-0.353-6.717-0.886-9.337-2.503c-0.14,0.33-0.394,0.653-0.842,0.881l-0.345,0.178
		c-0.629,0.937-1.728,1.811-3.335,2.658l0.6,0.611l0.519-0.572l1.542,1.752c0.108,0.333,0.113,0.621,0.059,0.871l0.147,0.146
		l-0.188,0.69c-0.235,0.856-0.893,1.443-1.419,1.913c-0.201,0.182-0.404,0.353-0.558,0.543c-0.489,0.426-0.78,0.676-1.066,0.926
		c-0.661,0.567-1.344,1.154-2.119,1.59c-2.922,1.043-4.774,0.172-6.788-0.572c-0.318-0.117-0.636-0.235-0.957-0.343
		c-1.228,1.468-2.122,0.592-2.559,0.323l-1.182,0.45l-0.306-1.297c-0.272-0.769-0.859-1.042-1.96-1.498
		c-1.011-0.421-2.269-0.944-3.127-2.227l-0.149-0.308c-0.007-0.02-0.012-0.039-0.02-0.059l-0.323,0.332l-0.071-0.073
		c-0.039,0.024-0.083,0.049-0.127,0.073l-1.099,0.568l-0.237-0.461l-0.303,0.411c-1.136,1.566-2.229,0.729-2.707,0.456l-0.844,0.244
		l-0.413-0.822c-0.575-0.808-1.199-1.684-1.613-2.657l-0.017-0.015l-0.198,0.142c0.416,0.861,0.396,1.493,0.181,1.953
		c0.257,0.523,0.475,1.219,0.137,1.869l0.195,0.146l-0.303,0.749c-0.002,0.211,0.377,0.964,0.58,1.37
		c0.022,0.039,0.042,0.083,0.063,0.122l1.258-0.641v2.021c0.015-0.104,0.271,0.132,0.431,0.273c0.281,0.26,0.619,0.573,0.859,0.955
		l0.922,0.308l0.068,0.798c0.076,0.891,0.644,1.479,1.563,2.359c0.82,0.787,1.75,1.678,2.193,3.028l0.271,0.837l-0.392,0.299
		l0.988,0.988l-1.015,0.861l0.888,0.754l-0.504,0.519l-0.091,0.47c0.02,0.656,0.059,1.605-0.644,2.236l3.32,3.157
		c0.543,0.259,1.018,0.665,1.456,1.047C31.003,78.285,31.243,78.491,31.451,78.633z M22.681,66.81c0.409,0,0.761,0.128,1.067,0.299
		l0.039-0.122c-0.306-0.451-0.731-0.861-1.201-1.312c-0.267-0.255-0.539-0.515-0.803-0.798l-0.088,0.837l-0.027-0.024
		c0.145,0.528,0.326,0.891,0.688,1.149C22.463,66.819,22.573,66.81,22.681,66.81z M32.503,54.752l1.75,0.356
		c-1.639-1.512-3.333-3.225-3.729-5.358l-0.039-0.201c-0.497,0.465-1.082,0.881-1.813,1.174c-0.281,0.323-0.25,1.102-0.054,1.801
		c0.45,0.573,1.138,0.861,1.926,1.185C31.169,53.974,31.876,54.267,32.503,54.752z M20.733,50.249
		c0.029,0.083,0.061,0.167,0.096,0.25l1.147-0.455c0.206,0.298,0.342,0.337,0.739,0.337l0.766-0.02c0.296,0,0.636,0.025,0.988,0.118
		c-0.068-0.411-0.037-0.793-0.015-1.047c-0.02,0-0.042,0-0.063,0l-1.064-0.044l-0.115-1.062c-0.066-0.622-0.381-1.023-0.891-1.625
		c-0.271-0.32-0.577-0.68-0.822-1.116l-0.807,0.411l0.607,0.281l-0.776,0.666c0.409,0.387,1.211,1.26,0.568,2.572L20.733,50.249z
		 M34.279,48.729l0.705,0.531c2.227-2.019,5.148-3.489,8.374-4.167l0.164,0.328l1.911-0.528l0.186-0.375l-0.648,0.083
		c-1.169,0.149-2.378,0.301-3.56,0.492l-0.49,0.504L39.988,45.6c-0.917-0.269-2.256-0.076-3.663,0.184
		c-0.326,0.061-0.653,0.12-0.979,0.174l0.763,1.104c-0.47,0.479-1.059,0.832-1.627,1.169c-0.146,0.088-0.353,0.213-0.556,0.343
		l0.201,0.298L34.279,48.729z M29.337,44.462c0.22,0.414,0.599,0.837,0.971,1.25c0.037,0.039,0.071,0.081,0.105,0.12
		c0.739-0.878,1.669-1.767,3.093-2.099l-1.104-1.253l0.069-0.539c-0.037-0.012-0.142-0.059-0.225-0.095
		c-0.331-0.149-0.791-0.357-1.189-0.744l-0.736,1.001l-0.749-1.263c-0.063,0.044-0.134,0.086-0.21,0.123l-0.108,0.056
		c-0.051,0.257,0.029,0.568,0.157,1.016C29.594,42.693,29.846,43.589,29.337,44.462z M37.387,40.983
		c0.024,0.049,0.062,0.157,0.091,0.24c0.145,0.401,0.401,1.13,0.145,1.843c0.58-0.071,1.169-0.105,1.728-0.069l0.005-0.007
		l0.893-0.9l0.573,0.595c0.714-0.12,1.439-0.223,2.161-0.321c-0.653-1.715-1.263-3.414-1.823-5.087l-0.47,0.646
		c-0.411,0.567-0.976,0.856-1.681,0.856h-0.641l-0.776-0.536c-0.203-0.289-0.423-0.526-0.658-0.729
		c0.377,0.56,0.737,1.157,1.047,1.826l0.534,1.143L37.387,40.983z M40.331,34.702c0,0.074,0,0.147-0.002,0.218
		c-0.005,0.714,0.002,1.165,0.245,1.41l0.411,0.423C40.759,36.064,40.541,35.382,40.331,34.702z M33.655,32.345
		c0.561,0.962,1.368,1.336,2.417,1.821c0.573,0.264,1.182,0.548,1.779,0.944c0-0.073,0.003-0.145,0.003-0.213
		c0.005-0.501,0.007-0.972-0.13-1.229l-0.568-1.06l1.042-0.599c0.101-0.093,0.032-0.362-0.012-0.539
		c-0.095-0.382-0.225-0.908-0.164-1.48l-1.502-1.695l0.849-0.578l-1.02-0.352c-0.387-0.044-1.243-0.159-1.691-1.067l-0.123-0.416
		c-0.015-0.137-0.017-0.267-0.01-0.387l-0.705-0.539c-0.174-0.132-0.323-0.264-0.45-0.394c-0.127,0.392-0.218,0.751-0.127,1.025
		l-1.022,0.414l0.257,0.152c-0.286,0.492-0.169,1.329-0.054,2.139c0.02,0.129,0.037,0.257,0.054,0.384
		c0.396,0.413,0.59,0.871,0.729,1.204c0.14,0.333,0.193,0.431,0.289,0.492l1.29,0.825L33.655,32.345z"/>
	<path fill-rule="evenodd" clip-rule="evenodd" fill="#FFFFFF" d="M64.733,5.976c-18.186,0.445-38.328,9.109-45.297,27.219
		c-1.199,1.779-1.742,4.111-2.29,5.777c0.107-0.556,0.107-1.554,0.436-3c0-0.11,0.112-0.22,0.328-0.888
		C23.899,17.197,43.063,6.421,60.49,5.42c1.307,0.223,3.265-0.333,5.007-0.11l7.624,0.666C70.508,7.419,67.782,5.42,64.733,5.976
		L64.733,5.976z"/>
	<polygon fill-rule="evenodd" clip-rule="evenodd" points="65.281,70.529 65.717,69.858 65.604,70.529 65.281,70.529 	"/>
	<polygon fill-rule="evenodd" clip-rule="evenodd" points="59.507,66.193 59.835,66.193 59.727,67.191 59.399,67.191 59.507,66.193 
			"/>
	<path fill-rule="evenodd" clip-rule="evenodd" d="M57.985,22.751c-0.543-1.889-0.543-2.554-0.764-4.554
		C58.856,19.641,57.877,20.752,57.985,22.751L57.985,22.751z"/>
	<path fill-rule="evenodd" clip-rule="evenodd" d="M57.221,26.419c-0.328,0.333-1.091,0.999-0.436,1.331l-0.656-0.998
		c-0.651,0.998-0.323,2.444-0.436,3.665c-0.107-1.11-0.215-2.667-1.522-3.11l-0.436,0.333c-0.328,0.333-0.22-1.556-0.22-2.445
		c0.871-0.333,0.764-1.221,0.764-1.999c-1.742-1.443-0.436-2.667-1.086-4.443c-0.656-1.779,1.194-1.333,1.414-2.667l1.522,2.444
		c-0.107-0.445-0.543-0.445-0.979-0.445c-0.543,0.223-0.215,0.891-0.328,1.333c-0.323-0.11-0.543,0.223-0.651,0.333
		c0.108,0.668,0.979,1.224-0.107,1.779c0.436,0.333,0.651,1,1.307,1c0.107-0.335,0-1.556,0.107-2.334
		c-0.107,0.888,0.543,1.666,0.871,2.444c-0.328,0-0.436-0.223-0.656-0.445c-0.651,0.223-0.215,0.891-0.436,1.446
		c0.22,0.11,0.328,0.443,0.656,0.333l0.764-0.668c-0.113,1.779,1.307,2.001,1.086,3.778L57.221,26.419L57.221,26.419z"/>
	<path fill-rule="evenodd" clip-rule="evenodd" d="M57.549,17.197c-0.984,0.445-1.635-0.778-1.855-1.444
		c0.113-0.445,0.22-1,0.656-1.333C56.022,15.641,57.006,16.641,57.549,17.197L57.549,17.197z"/>
	<g>
		<path fill-rule="evenodd" clip-rule="evenodd" fill="#22945F" d="M52.43,63.639c-0.107-0.666,0.328-4.003,2.286-4.336
			L52.43,63.639L52.43,63.639z"/>
		<path fill="#22945F" d="M53.524,64.216l-2.315-0.382c-0.191-1.174,0.465-5.271,3.298-5.75l2.471-0.421L53.524,64.216z"/>
	</g>
	<g>
		<polygon fill-rule="evenodd" clip-rule="evenodd" fill="#22945F" points="66.476,80.414 66.695,80.747 65.717,81.413 
			65.497,81.08 66.476,80.414 		"/>
		<polygon fill="#22945F" points="65.377,83.141 63.789,80.742 66.815,78.687 68.403,81.085 		"/>
	</g>
	<g>
		<path fill-rule="evenodd" clip-rule="evenodd" fill="#22945F" d="M50.145,80.747c5.549,0.891,10.345-0.445,15.136-1.664
			l0.651,0.666C61.361,82.186,55.372,81.413,50.145,80.747L50.145,80.747z"/>
		<path fill="#22945F" d="M57.982,82.65c-2.202,0-4.392-0.229-6.433-0.479c-0.526-0.049-1.059-0.117-1.6-0.2l0.353-2.452
			l1.515,0.191c4.446,0.411,8.529-0.642,12.498-1.659l1.354-0.343l2.305,2.354l-1.458,0.777
			C64.231,82.059,61.439,82.65,57.982,82.65z"/>
	</g>
	<g>
		<path fill-rule="evenodd" clip-rule="evenodd" fill="#22945F" d="M65.497,65.748c0.543-3.107-0.108-5.779-1.958-8.002v-0.998
			C66.26,58.97,66.368,62.641,65.497,65.748L65.497,65.748z"/>
		<path fill="#22945F" d="M66.688,66.08l-2.41-0.548c0.482-2.76-0.071-5.05-1.691-6.993l-0.286-0.343V54.14l2.021,1.649
			C67.038,58.006,67.899,61.76,66.688,66.08z"/>
	</g>
	<g>
		<path fill-rule="evenodd" clip-rule="evenodd" fill="#22945F" d="M64.846,72.193h-0.548l-3.7-0.891
			c0.764-1.557,1.087-3.333,1.522-5.002c0.436,0.891,0.328,2.007,1.199,2.779c0.763-2.222-0.979-4.218-0.651-6.558
			c0.107,1.89,0.871,3.563,1.414,5.227c-0.107-1.224,0.436-3.444-0.107-4.776c-0.22-1.115-0.871-1.889-0.548-3.112
			c1.419,3.666,0.655,8.109,1.526,12L64.846,72.193L64.846,72.193z"/>
		<path fill="#22945F" d="M65.746,73.431h-1.448l-5.491-1.287l0.681-1.385c0.536-1.096,0.837-2.329,1.154-3.641l0.282-1.131
			l0.959-0.098c-0.294-1.037-0.627-2.217-0.44-3.538l1.069,0.044c-0.003-0.005-0.005-0.01-0.008-0.02
			c-0.262-0.729-0.59-1.635-0.273-2.833l2.351-0.128c0.887,2.286,0.989,4.781,1.09,7.199c0.073,1.757,0.142,3.421,0.491,4.977
			l0.073,0.328L65.746,73.431z"/>
	</g>
	<g>
		<path fill-rule="evenodd" clip-rule="evenodd" fill="#22945F" d="M42.849,77.302l0.436-0.333
			c6.312,0.891,13.394,2.78,19.056-0.445l0.979,1.004C57.221,80.635,49.161,79.416,42.849,77.302L42.849,77.302z"/>
		<path fill="#22945F" d="M54.579,80.645c-4.661,0-9.166-1.18-12.125-2.168l-2.212-0.744l2.702-2.061l0.514,0.074
			c0.967,0.132,1.95,0.293,2.944,0.455c2.716,0.44,5.525,0.896,8.187,0.896c2.858,0,5.192-0.538,7.14-1.649l0.829-0.47l2.821,2.888
			l-1.497,0.763C61.254,79.969,58.124,80.645,54.579,80.645z"/>
	</g>
	<g>
		<path fill-rule="evenodd" clip-rule="evenodd" fill="#22945F" d="M56.786,73.524c3.812-4.669,4.683-10.776,4.792-17.217
			C62.448,62.415,60.813,69.306,56.786,73.524L56.786,73.524z"/>
		<path fill="#22945F" d="M57.682,74.381l-1.855-1.64c3.812-4.669,4.421-10.938,4.512-16.453l2.464-0.156
			C63.774,62.943,61.763,70.104,57.682,74.381z"/>
	</g>
	<g>
		<polygon fill-rule="evenodd" clip-rule="evenodd" fill="#22945F" points="61.033,82.304 61.033,82.637 60.378,82.637 
			60.49,82.186 61.033,82.304 		"/>
		<polygon fill="#22945F" points="62.271,83.874 58.792,83.874 59.58,80.723 62.271,81.305 		"/>
	</g>
	<g>
		<path fill-rule="evenodd" clip-rule="evenodd" fill="#22945F" d="M42.628,75.638v-0.665c0.764,0.107,1.855-0.226,2.398,0.44
			c1.414-0.107,3.92,0.445,5.662-0.107c1.199-0.113,2.177,0.44,3.699-0.226l0.328-0.225c-1.415-1.106-3.592,0.337-5.662-0.333
			c2.941-0.221,1.962-0.553,4.683-1.106c0.215,0.216,0.328,0.44,0.651,0.333l-0.323,0.333c0.323,0.22,0.543,0.891,0.979,0.773
			c1.199,0.117,3.157,0.117,4.355-0.886l0.656,0.777c-3.049,1.89-7.409,1.331-10.673,1.224c2.393,1.664,6.533,1.557,9.254,0.773
			l2.397-1.331C56.35,78.633,48.075,77.077,42.628,75.638L42.628,75.638z"/>
		<path fill="#22945F" d="M53.446,78.545c-3.137,0-6.778-0.558-11.133-1.708l-0.922-0.244v-3.044l1.965,0.205l0.406-0.01
			c0.318,0,1.05,0,1.698,0.416c0.445,0,0.957,0.034,1.5,0.073c0.604,0.044,1.263,0.088,1.879,0.083l0.123-1.027
			c1.487-0.112,1.791-0.234,2.251-0.421c0.445-0.181,0.998-0.406,2.278-0.665l0.653-0.133l0.47,0.47c0.125,0.147-0.098,0-0.379,0
			l0.374,0.744l0.154-0.226c0.264,0.182,0.445,0.412,0.583,0.588c1.651,0.098,2.65-0.112,3.259-0.627l0.947-0.792l2.374,2.818
			l-0.759,0.47l0.569,0.915c-0.494,0.343-1.022,0.637-1.583,0.886l-0.917,0.51c-1.593,0.494-3.152,0.704-4.642,0.704h-0.245
			C54.05,78.54,53.749,78.545,53.446,78.545z"/>
	</g>
	<g>
		<path fill-rule="evenodd" clip-rule="evenodd" fill="#22945F" d="M60.49,57.972l0.323,0.333c-0.871,2.113-0.216,4.776-0.979,6.891
			l0.979-7.89C60.926,57.639,60.706,57.746,60.49,57.972L60.49,57.972z"/>
		<path fill="#22945F" d="M60.999,65.615l-2.393-0.572l0.45-3.636c0.034-0.896,0.093-1.845,0.345-2.78l-0.629-0.65l0.817-0.852
			l0.203-1.649l1.463,1.508l0.729-0.073c0.103,0.303,0.122,0.602,0.062,0.891l0.11,0.112l-0.199,0.861
			c-0.046,0.112-0.088,0.225-0.122,0.343l-0.32,2.804C61.477,63.145,61.433,64.412,60.999,65.615z"/>
	</g>
	<g>
		<path fill-rule="evenodd" clip-rule="evenodd" fill="#22945F" d="M55.807,72.858l0.323,0.333
			c-4.027-1.331-6.205-5.334-7.947-8.887c0.328-0.226,0.543-0.778,0.979-0.666c0.113,0.44-0.436,0.666-0.65,0.998
			c0.107,0.445,0.543,0.333,0.979,0.333c0.436-0.333,0.436-0.998,0.979-1.224c0.221-0.886-0.215,0.559,0.328,0.666
			c1.307-0.44,0.543-1.89,0.763-2.775c0.979,2.002-0.871,4.664-0.871,6.445c2.177-2.779,4.355-6.225,5.119-10.003l1.086-0.998
			c-1.307,4.336-3.049,8.446-5.006,12.444l0.323,0.333c3.049-2.222,4.033-5.446,5.119-8.554c-0.323,2.554-0.651,5.221-1.958,7.443
			l0.215,1.331c0.107-0.333-0.108-0.554-0.328-0.666c-0.543,0.666-1.194,1.89-0.758,2.667c1.414-0.777,3.592-4.11,4.355-6.665
			C58.092,67.97,57.657,70.744,55.807,72.858L55.807,72.858z"/>
		<path fill="#22945F" d="M55.741,74.365c-0.561-0.186-1.089-0.416-1.586-0.685l-0.134,0.078l-0.123-0.22
			c-3.264-1.88-5.224-5.423-6.827-8.691L46.6,63.889l0.883-0.607c0.296-0.348,0.771-0.896,1.566-0.896l0.565,0.093l0.67-0.186
			c-0.015-0.304-0.007-0.627,0.074-0.954l2.312-0.245c0.184,0.372,0.296,0.749,0.355,1.131c0.763-1.513,1.282-2.971,1.568-4.39
			l0.081-0.396l1.382-1.268l2.021,1.268c-0.357,1.188-0.758,2.397-1.206,3.626l1.686,0.396c-0.157,1.238-0.313,2.481-0.57,3.694
			l2.056,0.612c-0.147,0.489-0.282,0.988-0.417,1.487c-0.594,2.212-1.211,4.503-2.887,6.421l-0.364-0.318L55.741,74.365z"/>
	</g>
	<g>
		<polygon fill-rule="evenodd" clip-rule="evenodd" fill="#22945F" points="55.479,64.305 55.151,64.191 55.259,63.526 
			55.587,63.526 55.479,64.305 		"/>
		<polygon fill="#22945F" points="56.5,65.963 53.764,65.023 54.204,62.288 57.008,62.288 		"/>
	</g>
	<g>
		<path fill-rule="evenodd" clip-rule="evenodd" fill="#22945F" d="M43.063,73.632c2.941-0.333,5.662-1.438,8.496-2.442l0.871,1.443
			C49.709,73.97,46.44,73.749,43.063,73.632L43.063,73.632z"/>
		<path fill="#22945F" d="M46.406,74.958c-0.896,0-1.809-0.029-2.731-0.063L43.02,74.87l-0.095-2.467
			c2.374-0.27,4.62-1.081,6.996-1.942l2.178-0.773l2.09,3.46l-1.211,0.597C50.796,74.816,48.43,74.958,46.406,74.958z"/>
	</g>
	<path fill-rule="evenodd" clip-rule="evenodd" d="M51.016,21.64c0.436-1.111-0.656-1.554-0.22-2.665l1.634,1.776
		c-0.328-0.11-0.543,0.11-0.656,0.333c1.307,0.888-0.323,2.89,1.091,3.778C51.452,24.417,51.667,22.751,51.016,21.64L51.016,21.64z"
		/>
	<path fill-rule="evenodd" clip-rule="evenodd" d="M50.468,50.416c-2.178-0.999-1.85,1.663-2.828,2.555
		c-0.543-1.557,1.85-3,1.521-4.332c-1.194,0.553-2.178,1.777-3.372,2.222c0.979-1.111,2.393-3.668,3.807-2.89
		c0.548,0-0.107,1.779,1.199,1.333l1.091-0.888C52.103,49.417,50.903,49.75,50.468,50.416L50.468,50.416z"/>
	<path fill-rule="evenodd" clip-rule="evenodd" d="M41.321,45.859l0.221-0.22l0.323,0.333l-0.323,0.223
		c-1.527-0.778-3.162,0.888-4.684,1.554c-1.091,0.113-1.962,0.668-2.833,1.556c2.833-3.666,7.84-4.554,10.673-4.333
		C43.392,44.861,42.413,45.527,41.321,45.859L41.321,45.859z"/>
	<path fill-rule="evenodd" clip-rule="evenodd" d="M65.717,46.638c1.194-1.667,3.484-3.333,5.442-3.888
		C70.18,44.861,67.895,46.417,65.717,46.638L65.717,46.638z"/>
	<polygon fill-rule="evenodd" clip-rule="evenodd" points="43.284,24.085 43.499,24.085 43.499,25.751 43.171,25.751 43.284,24.085 
			"/>
	<path fill-rule="evenodd" clip-rule="evenodd" d="M42.413,42.862c-0.221-0.668-0.871-0.335-1.307-0.445
		c0-1.889-2.506-1.889-1.527-4.111l1.963,2.111l-0.436,0.333C41.214,41.528,42.3,41.972,42.413,42.862L42.413,42.862z"/>
	<path fill-rule="evenodd" clip-rule="evenodd" d="M41.865,39.75c-0.108-1.999-2.721-2.332-2.178-4.553
		C40.558,36.973,42.085,37.528,41.865,39.75L41.865,39.75z"/>
	<path fill-rule="evenodd" clip-rule="evenodd" d="M34.573,53.083l-0.328-0.338l3.156-2.329
		C36.966,51.864,35.224,51.972,34.573,53.083L34.573,53.083z"/>
	<path fill-rule="evenodd" clip-rule="evenodd" d="M30.976,44.306c-0.543-1.333-3.049-1.224-2.613-3.11l2.941,2.777
		c0.543-1.333-1.742-2.445-1.521-4.111c0,0.555,0.323,0.888,0.543,1.443l0.759-0.333c0.44,0.333,0.44,0.999,0.983,1.331l1.307,0.113
		c-0.871,0.665,0.107,1.333,0.215,1.999C32.718,44.416,31.412,42.862,30.976,44.306L30.976,44.306z"/>
	<polygon fill-rule="evenodd" clip-rule="evenodd" points="30.433,80.189 30.976,80.522 30.325,80.522 30.433,80.189 	"/>
	<polygon fill-rule="evenodd" clip-rule="evenodd" points="30.976,57.972 31.739,58.079 30.976,58.637 30.976,57.972 	"/>
	<path fill-rule="evenodd" clip-rule="evenodd" d="M29.347,58.305l0.323,0.332l-0.979-1.443l0.328-0.338l-0.22,0.226l-0.328-0.333
		l0.22-0.22l1.307,1.443C29.669,57.859,29.562,58.079,29.347,58.305L29.347,58.305z"/>
	<polygon fill-rule="evenodd" clip-rule="evenodd" points="27.6,60.972 27.927,60.634 28.471,61.97 28.255,62.19 26.077,59.748 
		26.293,59.527 27.6,60.972 	"/>
	<path fill-rule="evenodd" clip-rule="evenodd" d="M27.492,69.525c-0.651,0.113-0.871-0.445-1.307-0.777
		c0.871-0.333,0-0.891,0.108-1.331C26.405,68.189,27.056,69.08,27.492,69.525L27.492,69.525z"/>
	<path fill-rule="evenodd" clip-rule="evenodd" d="M27.056,56.855c0.22,0.118,0.436,0.338,0.328,0.671
		c-0.763-0.553-2.285-0.445-1.962-1.889l1.962,0.891L27.056,56.855L27.056,56.855z"/>
	<path fill-rule="evenodd" clip-rule="evenodd" d="M26.405,56.748c-0.656-0.778,0,0.333,0.323,0H26.405L26.405,56.748z"/>
	<g>
		<path fill-rule="evenodd" clip-rule="evenodd" fill="#22945F" d="M26.948,35.639c-0.107-0.555-0.107-1-0.543-1.443
			c0.436-0.333,0-1.224-0.328-1.667l-0.328-0.333c-0.436,0.998,0.22,2.667-0.763,3.665l-0.108,1.779l-0.979-0.113
			c0.108-1.556-1.634-1.556-2.285-2.777c1.086-0.666-0.328-1.111-0.22-1.779c0.656,0.668,1.199,3.223,2.613,2.447v-0.556
			l0.328,0.333c0.543-0.891,0.651-2.557,0.108-3.445c0.763-0.445,1.091,1.111,1.742,0.112c-0.436-0.778-0.328-1.889-1.307-2.111
			l0.108-1.111c0.983,1.111,1.742,2.222,1.854,3.556c-0.983,0.888,0.107,1.889,0.215,2.777l0.22,0.333L26.948,35.639L26.948,35.639z
			"/>
		<path fill="#22945F" d="M26.036,39.021l-3.453-0.399l0.081-1.179c0.012-0.154,0.015-0.191-0.573-0.575
			c-0.487-0.315-1.152-0.751-1.568-1.534l-0.55-1.028l0.47-0.289c-0.206-0.34-0.35-0.746-0.27-1.243l0.389-2.417l1.715,1.75
			c0.328,0.333,0.556,0.781,0.795,1.253c0.1,0.196,0.252,0.494,0.391,0.722c0.149-0.58,0.135-1.338-0.078-1.684l-0.658-1.079
			l0.267-0.154L22.833,31l0.448-0.005l0.475-0.276l-0.306-0.069l0.306-2.128l0.274-2.829l1.884,2.129
			c0.983,1.111,2.011,2.488,2.161,4.27l0.051,0.612l-0.074,0.066l0.519,0.529l-0.786,0.042c0.002,0.015,0.005,0.029,0.008,0.046
			l0.09,0.21c0.122,0.269,0.257,0.568,0.34,0.898l0.639,0.966l-2.682,2.721l-0.071-0.372L26.036,39.021z"/>
	</g>
	<path fill-rule="evenodd" clip-rule="evenodd" d="M24.115,61.417c-0.323,0.553,0.436,1.443,0.655,2.109
		c-0.328-0.113-0.543,0.112-0.763,0.332c0.22,0.221,0.436,0.446,0.763,0.333l-0.107,0.333c-1.419,0.445-0.548-0.886-1.199-1.443
		c0.764-0.333-0.107-0.891,0-1.331c-3.592-0.113-2.833-4.776-5.77-5.667c0.436-0.226,1.086-1.224,0.107-1.776
		c0.328,0,0.764,0.112,0.979-0.221c-0.328-0.558,0-1.341-0.543-1.781c1.522,1.781,3.812,4.11,5.442,5.667l0.328-0.226v1.004
		c-0.328-0.113-0.543,0.112-0.763,0.22c1.854,0.226,0.328,2.222,1.634,2.888C24.663,61.637,24.443,61.417,24.115,61.417
		L24.115,61.417z"/>
	<g>
		<path fill-rule="evenodd" clip-rule="evenodd" fill="#22945F" d="M21.83,38.083c-0.543-0.223-0.215-0.888-0.215-1.333
			C21.502,37.305,22.05,37.528,21.83,38.083L21.83,38.083z"/>
		<path fill="#22945F" d="M22.52,39.703l-1.16-0.475c-0.874-0.357-1.216-1.133-1.013-2.3h0.012l-0.002-0.083l0.044-0.34l2.452,0.328
			l-0.005,0.056c0.154,0.242,0.445,0.864,0.132,1.649L22.52,39.703z"/>
	</g>
	<g>
		<polygon fill-rule="evenodd" clip-rule="evenodd" fill="#22945F" points="21.179,39.084 21.722,40.528 21.066,39.75 
			21.179,39.084 		"/>
		<polygon fill="#22945F" points="20.775,41.325 19.75,40.109 19.958,38.878 22.336,38.648 22.879,40.092 		"/>
	</g>
	<g>
		<path fill-rule="evenodd" clip-rule="evenodd" fill="#22945F" d="M12.791,39.417c0.328-1.556,1.962-1.001,3.049-1.556
			L12.791,39.417L12.791,39.417z"/>
		<path fill="#22945F" d="M11.046,41.697l0.534-2.535c0.396-1.876,1.999-2.099,2.86-2.219c0.318-0.044,0.646-0.091,0.832-0.184
			l0.005-0.003l1.125,2.205v0.002L11.046,41.697z"/>
	</g>
	<g>
		<polygon fill-rule="evenodd" clip-rule="evenodd" fill="#22945F" points="11.376,41.416 15.732,39.194 14.753,40.195 
			11.376,41.416 		"/>
		<polygon fill="#22945F" points="11.797,42.581 10.813,40.312 15.169,38.091 16.618,40.061 15.174,41.36 		"/>
	</g>
	<g>
		<polygon fill-rule="evenodd" clip-rule="evenodd" fill="#22945F" points="15.188,37.195 15.188,37.528 14.533,37.418 
			14.533,37.085 15.188,37.195 		"/>
		<polygon fill="#22945F" points="16.427,38.991 13.295,38.465 13.295,35.622 16.427,36.148 		"/>
	</g>
	<g>
		<polygon fill-rule="evenodd" clip-rule="evenodd" fill="#22945F" points="32.718,10.974 35.116,11.42 35.116,11.752 
			32.718,10.974 		"/>
		<polygon fill="#22945F" points="36.354,13.456 32.336,12.151 32.943,9.758 36.354,10.39 		"/>
	</g>
	<g>
		<path fill-rule="evenodd" clip-rule="evenodd" fill="#22945F" d="M31.96,12.641c-1.199-0.888-2.613-1.331-4.248-1.221
			C29.126,9.976,31.304,11.31,31.96,12.641L31.96,12.641z"/>
		<path fill="#22945F" d="M31.223,13.634c-0.903-0.668-1.894-0.993-3.024-0.993l-0.404,0.015l-0.966-2.102
			c0.639-0.651,1.446-0.996,2.337-0.996c1.725,0,3.298,1.307,3.905,2.535L31.223,13.634z"/>
	</g>
	<g>
		<path fill-rule="evenodd" clip-rule="evenodd" fill="#22945F" d="M27.384,12.085c1.307,0.668,3.377,0.223,3.92,1.889
			C29.89,13.419,28.906,12.085,27.384,12.085L27.384,12.085z"/>
		<path fill="#22945F" d="M33.293,16.086l-2.441-0.959c-0.678-0.267-1.248-0.659-1.752-1.003c-0.223-0.154-0.446-0.309-0.673-0.443
			c-0.494-0.093-1.072-0.22-1.605-0.494l0.562-2.339c0.627,0,1.241,0.154,1.877,0.47c1.14,0.21,2.665,0.57,3.22,2.273L33.293,16.086
			z"/>
	</g>
	<g>
		<path fill-rule="evenodd" clip-rule="evenodd" fill="#22945F" d="M23.899,13.309c1.522-2.334,4.136,0.11,5.662,1.221l0.328,0.668
			C27.927,14.642,26.185,13.419,23.899,13.309L23.899,13.309z"/>
		<path fill="#22945F" d="M32.224,17.146l-2.672-0.756c-0.758-0.215-1.487-0.521-2.224-0.832c-1.157-0.489-2.249-0.952-3.487-1.013
			l-2.158-0.103l1.18-1.808c0.829-1.272,1.903-1.539,2.66-1.539c1.578,0,3.051,1.128,4.236,2.033l0.915,0.856L32.224,17.146z"/>
	</g>
	<g>
		<path fill-rule="evenodd" clip-rule="evenodd" fill="#22945F" d="M26.513,15.085c0.764,0.668,2.178-0.11,2.613,1.111
			C28.255,16.864,27.6,14.975,26.513,15.085L26.513,15.085z"/>
		<path fill="#22945F" d="M28.745,17.576c-0.8,0-1.361-0.519-1.771-0.898c-0.135-0.125-0.362-0.335-0.456-0.372l0.088-2.464
			c0.947,0,1.61,0.614,2.05,1.021c0.108,0.101,0.274,0.254,0.34,0.291L28.745,17.576z"/>
	</g>
	<g>
		<path fill-rule="evenodd" clip-rule="evenodd" fill="#22945F" d="M27.056,19.198c-2.286-1.669-5.227-1.892-7.948-2.447
			c1.958,0.112,5.99,0.223,8.275,1.779C27.169,18.753,26.948,18.863,27.056,19.198L27.056,19.198z"/>
		<path fill="#22945F" d="M26.327,20.199c-1.615-1.18-3.67-1.547-5.848-1.933c-0.543-0.096-1.084-0.193-1.618-0.301l0.318-2.449
			l0.426,0.024c2.268,0.12,6.061,0.323,8.476,1.967l1.213,0.827l-1.021,1.057c-0.078,0.027,0.049-0.294-0.039-0.573L26.327,20.199z"
			/>
	</g>
	<g>
		<path fill-rule="evenodd" clip-rule="evenodd" fill="#22945F" d="M20.851,15.863c0.651-0.333,0.651-1.111,1.087-1.667l4.575,2.667
			C24.551,16.531,22.921,15.641,20.851,15.863L20.851,15.863z"/>
		<path fill="#22945F" d="M26.305,18.085c-0.722-0.122-1.402-0.315-2.075-0.506c-1.104-0.313-2.099-0.612-3.247-0.485l-0.695-2.332
			c0.002-0.022,0.081-0.21,0.132-0.335c0.123-0.286,0.272-0.646,0.543-0.993l0.666-0.849l5.508,3.21L26.305,18.085z"/>
	</g>
	<g>
		<polygon fill-rule="evenodd" clip-rule="evenodd" fill="#22945F" points="24.878,14.31 24.878,14.642 24.228,14.642 24.228,14.31 
			24.878,14.31 		"/>
		<rect x="22.989" y="13.071" fill="#22945F" width="3.127" height="2.809"/>
	</g>
	<g>
		<path fill-rule="evenodd" clip-rule="evenodd" fill="#22945F" d="M23.899,22.196c-3.156-0.333-6.205-1.554-9.366-0.778
			c2.178,0.335,4.468,0.778,5.882,2.667c-0.436-0.223-0.655,0.333-0.979,0.555c-0.22-0.555-0.871-0.223-1.307-0.333l-0.328,0.333
			c-0.763-0.223-2.178-0.223-3.049,0.223l-0.328,0.223c0.543-1.111,0.543-2.89,0.108-4c0.436-0.11,1.091,0.333,1.419-0.333
			C16.711,21.197,22.157,20.197,23.899,22.196L23.899,22.196z"/>
		<path fill="#22945F" d="M18.859,26.542l-0.343-0.864l-0.353,0.357l-0.709-0.206c-0.536-0.154-1.681-0.098-2.139,0.135
			l-0.196,0.145l-1.806-1.566c0.328-0.675,0.394-1.891,0.145-2.77l-0.521-1.338l0.127-0.054l-0.13-0.465l0.893,0.14l0.874-0.225
			c0.101,0,0.208,0.007,0.316,0.02l0.414-0.839l1.135,0.668c-0.078-0.054,0.117-0.032,0.705-0.032l1.307-0.007
			c2.459,0,4.921,0.21,6.254,1.745l-1.062,2.043c-0.883-0.093-1.762-0.252-2.633-0.421c0.09,0.107,0.181,0.22,0.269,0.337
			l-1.079,1.28l-0.107,0.648c0.257,0,0.443-0.11,0.506-0.169c-0.208,0.23-0.367,0.406-0.587,0.556L18.859,26.542z"/>
	</g>
	<g>
		<path fill-rule="evenodd" clip-rule="evenodd" fill="#22945F" d="M16.275,20.086c0.979-0.555,0.979-1.556,1.419-2.334
			c-0.112-0.223-0.44-0.333-0.328-0.666c2.286,0.556,4.248,1.889,6.313,3C20.743,20.086,19.001,19.641,16.275,20.086L16.275,20.086z
			"/>
		<path fill="#22945F" d="M23.68,21.325c-1.067,0-1.979-0.056-2.839-0.11c-1.436-0.088-2.708-0.173-4.365,0.093l-0.812-2.298
			c0.25-0.142,0.34-0.348,0.536-0.896c0.024-0.068,0.049-0.135,0.073-0.203c-0.239-0.436-0.19-0.893-0.078-1.221l0.362-1.074
			l1.101,0.267c1.938,0.472,3.619,1.427,5.244,2.352c0.453,0.257,0.905,0.516,1.365,0.763L23.68,21.325z"/>
	</g>
	<g>
		<path fill-rule="evenodd" clip-rule="evenodd" fill="#22945F" d="M16.388,25.528l5.006,0.335
			C19.979,26.752,18.237,25.195,16.388,25.528L16.388,25.528z"/>
		<path fill="#22945F" d="M20.381,27.378c-0.675,0-1.312-0.181-1.926-0.357c-0.541-0.157-1.054-0.303-1.52-0.303v-2.474
			c0.815,0,1.552,0.21,2.203,0.396c0.47,0.137,0.915,0.264,1.243,0.264V27.378z"/>
	</g>
	<g>
		<polygon fill-rule="evenodd" clip-rule="evenodd" fill="#22945F" points="17.582,28.751 19.979,28.085 18.565,28.751 
			17.582,28.751 		"/>
		<polygon fill="#22945F" points="18.842,29.989 17.582,29.989 17.251,27.56 19.649,26.894 20.506,29.206 		"/>
	</g>
	<g>
		<path fill-rule="evenodd" clip-rule="evenodd" fill="#22945F" d="M14.533,29.196l-0.216-2.667l4.355,0.555
			C17.254,27.75,15.732,27.973,14.533,29.196L14.533,29.196z"/>
		<path fill="#22945F" d="M13.518,32l-0.556-6.893l5.868,0.749l0.37,2.349c-0.46,0.215-0.927,0.389-1.395,0.561
			c-0.935,0.343-1.745,0.641-2.388,1.297L13.518,32z"/>
	</g>
	<g>
		<path fill-rule="evenodd" clip-rule="evenodd" fill="#22945F" d="M9.962,41.306c0,0.556-0.548,0.778-0.328,1.334l0.651,0.778
			c1.635-1,3.269-2.001,5.119-2.557l-0.108,0.335c-1.742,1.111-3.812,1.667-5.447,3.22c0.436-0.556,0.436-1.334-0.215-1.776
			c-1.742,3-2.178,6.885-2.178,10.223c2.178-2.892,5.99-5.669,8.06-6.78l-5.231,4.779l0.548,0.777l0.436-0.332
			c-0.871,1.223-2.07,2.222-2.506,3.665c0.328-1.336,1.415-2.227,2.07-3.333l-0.548-0.777c-1.194,1.218-1.85,2.667-2.5,3.998
			c-2.178-7.776,1.522-15.665,6.856-20.887l3.812-2.109C15.84,34.75,11.705,37.528,9.962,41.306L9.962,41.306z"/>
		<path fill="#22945F" d="M8.896,55.402l-2.303-0.211c-2.442-8.72,2.109-17.138,7.182-22.104l0.267-0.198l3.812-2.109l1.517,1.914
			c-0.861,0.952-1.882,1.894-2.932,2.86c-1.96,1.801-3.981,3.661-5.121,5.802c1.165-0.666,2.386-1.277,3.731-1.679l2.253-0.678
			l-0.964,3l-0.377,0.243c-0.688,0.438-1.421,0.795-2.163,1.155c-1.135,0.553-2.209,1.074-3.095,1.918l-0.46-0.418l-0.223,0.135
			l-0.1-0.12c-0.507,1.312-0.856,2.838-1.05,4.566c2.163-2.039,4.632-3.719,6.061-4.485l1.419,2.004l-4.426,4.042l0.382,0.543
			l-0.179,0.299l0.149,0.146c-0.291,0.406-0.617,0.798-0.942,1.18c-0.597,0.71-1.162,1.375-1.388,2.124l-0.896-0.245
			c-0.002,0.005-0.005,0.01-0.01,0.02L8.896,55.402z"/>
	</g>
	<g>
		<path fill-rule="evenodd" clip-rule="evenodd" fill="#22945F" d="M15.404,32.417c-0.323-0.666-0.216-1.332-0.871-1.777
			l2.613-0.223L15.404,32.417L15.404,32.417z"/>
		<path fill="#22945F" d="M15.108,34.641l-0.817-1.684c-0.149-0.306-0.235-0.609-0.313-0.905c-0.034-0.13-0.085-0.33-0.12-0.372
			l0.57-2.273l2.613-0.223l1.038,2.045L15.108,34.641z"/>
	</g>
	<g>
		<path fill-rule="evenodd" clip-rule="evenodd" fill="#22945F" d="M9.091,47.083C8,46.082,12.898,43.86,14.969,42.527L9.091,47.083
			L9.091,47.083z"/>
		<path fill="#22945F" d="M9.025,48.7l-0.771-0.705c-0.409-0.377-0.609-0.9-0.546-1.436c0.157-1.361,1.904-2.405,4.742-3.999
			c0.697-0.389,1.355-0.758,1.847-1.074l1.429,2.019L9.025,48.7z"/>
	</g>
	<g>
		<path fill-rule="evenodd" clip-rule="evenodd" fill="#22945F" d="M11.705,47.193l-3.484,3.33c0.543-3.551,4.463-4.219,6.641-6.218
			C14.969,46.195,12.683,46.082,11.705,47.193L11.705,47.193z"/>
		<path fill="#22945F" d="M9.076,51.419l-2.08-1.082c0.458-2.985,2.833-4.34,4.745-5.429c0.861-0.492,1.676-0.957,2.283-1.515
			l1.923-1.767l0.149,2.608c0.117,2.041-1.488,2.762-2.447,3.193c-0.408,0.184-0.832,0.372-1.015,0.583L9.076,51.419z"/>
	</g>
	<g>
		<polygon fill-rule="evenodd" clip-rule="evenodd" fill="#22945F" points="14.098,53.528 14.425,54.193 14.317,56.528 
			14.098,53.528 		"/>
		<polygon fill="#22945F" points="13.084,56.621 12.864,53.621 15.208,52.98 15.676,53.935 15.553,56.587 		"/>
	</g>
	<g>
		<path fill-rule="evenodd" clip-rule="evenodd" fill="#22945F" d="M11.592,58.196c1.307-1.223,0.548-3.225,0.876-4.78
			C12.898,54.859,14.317,57.639,11.592,58.196L11.592,58.196z"/>
		<path fill="#22945F" d="M11.839,59.41l-1.094-2.119c0.428-0.4,0.433-1.066,0.404-2.123c-0.017-0.656-0.034-1.326,0.108-2.007
			l2.397-0.098l0.198,0.592c0.424,1.224,1.006,2.902,0.221,4.282C13.64,58.701,12.886,59.195,11.839,59.41z"/>
	</g>
	<g>
		<path fill-rule="evenodd" clip-rule="evenodd" fill="#22945F" d="M11.376,56.415c0.108,0.221,0.436,0.44,0.215,0.666
			c-0.323,0-0.758,0.112-0.979-0.333l0.871-3C11.376,54.634,11.376,55.97,11.376,56.415L11.376,56.415z"/>
		<path fill="#22945F" d="M11.242,58.334c-1.067,0-1.547-0.651-1.737-1.038l-0.216-0.431l1.006-3.465l2.417,0.5
			c-0.081,0.655-0.095,1.58-0.098,2.148c0.639,0.969,0.063,1.692-0.137,1.898l-0.364,0.372L11.242,58.334z"/>
	</g>
	<g>
		<path fill-rule="evenodd" clip-rule="evenodd" fill="#22945F" d="M9.962,56.083c-1.307-0.559,0-1.997,0.543-2.78L9.962,56.083
			L9.962,56.083z"/>
		<path fill="#22945F" d="M10.885,57.82l-1.409-0.598c-0.82-0.353-1.131-0.93-1.243-1.351c-0.313-1.146,0.472-2.207,1.045-2.985
			l0.21-0.288l2.232,0.944L10.885,57.82z"/>
	</g>
	<g>
		<path fill-rule="evenodd" clip-rule="evenodd" fill="#22945F" d="M9.634,57.081c-0.22-0.445-0.656-0.445-0.979-0.445h0.979V57.081
			L9.634,57.081z"/>
		<polygon fill="#22945F" points="9.634,57.874 8.837,57.874 8.814,57.561 8.656,57.6 8.656,57.081 8.396,57.081 8.396,56.636 
			8.656,56.636 8.656,55.397 10.873,55.397 10.873,57.081 9.634,57.369 		"/>
	</g>
	<path fill-rule="evenodd" clip-rule="evenodd" fill="#FFFFFF" d="M77.257,7.199c-0.651,0.22-1.194,0.555-1.522,1.221
		c-0.107,0.333-0.107,0.668-0.22,0.888c-0.544,1.111-0.871,2.222-1.307,3.222c-0.871,1.779-0.871,3.666-0.979,5.667
		c-0.107,1.001,0.216,2.109-0.215,3.11c-0.328,0.888-0.656,1.666-0.764,2.555c0,0.223,0.107,0.555,0.107,0.891
		c-0.655,3.22-0.543,6.442,1.087,8.997c0.328,0.445,1.526,0.555,1.747-0.333c0.215-0.555-0.328-1.111-0.764-1.666
		c-0.112,0.112-0.22-0.11-0.436,0c-0.107-0.445,0.436-0.778,0.436-1.111c0-0.665,0.543-1.223,0.328-1.889
		c-0.221-0.666-0.221-1.444-0.328-1.999c-0.543-1.779-1.091-3.556-0.983-5.444c0,0,0.328,0,0.328-0.11c0.327-1-0.108-1.999,0.22-3
		c0.436-1.223-0.107-2.777,0.323-4.11c0.44-1.446,1.091-2.557,1.747-4.001c0.871-1.443,2.285-2.222,3.699-2.887
		c-1.086-0.223-2.721-0.668-3.376,0.443L77.257,7.199L77.257,7.199z"/>
	<path fill-rule="evenodd" clip-rule="evenodd" fill="#FFFFFF" d="M61.469,11.087c-0.543,0.333-0.979,0.778-1.091,1.443
		c0,1.001,0.764,1.889,1.526,2.112c1.087,0.333,2.394-0.223,3.049-1.223c0.544-0.778,0.216-1.776-0.436-2.332
		c-1.091-1.224-3.049-1.111-3.704,0.443L61.469,11.087L61.469,11.087z"/>
	<path d="M62.577,15.692c-0.32,0-0.641-0.046-0.951-0.14c-1.074-0.313-2.2-1.532-2.2-3.022c0.074-0.47,0.223-0.871,0.448-1.221
		l0.063-0.149c0.413-0.981,1.24-1.642,2.269-1.813c1.084-0.184,2.248,0.24,3.021,1.106c0.854,0.717,1.385,2.253,0.507,3.511
		C65.026,15.043,63.794,15.692,62.577,15.692z M61.322,12.768c0.066,0.414,0.519,0.864,0.849,0.962
		c0.654,0.191,1.552-0.174,1.987-0.832c0.267-0.382,0.008-0.861-0.257-1.086c-0.389-0.423-0.873-0.609-1.24-0.602l0.117,0.191
		l-0.812,0.5c-0.186,0.112-0.318,0.223-0.413,0.323L61.322,12.768z"/>
	<path fill-rule="evenodd" clip-rule="evenodd" d="M62.775,13.974c-1.307,0-1.526-0.776-1.307-2.109
		c0.436-0.335,0.764-0.778,1.415-0.556c-0.108,0.333,0.107,0.443,0.327,0.666c0.108-0.223,0.436-0.333,0.328-0.666
		C64.733,12.085,63.975,14.197,62.775,13.974L62.775,13.974z"/>
	<path fill-rule="evenodd" clip-rule="evenodd" fill="#FFFFFF" d="M51.995,45.859c3.264,1.557,6.641,1.446,9.91,2.444
		c3.484-0.442,7.185-0.555,10.238-2.665c0.107,0.999-0.656,1.887-1.312,2.555c-2.721,2.554-5.442,4.889-8.599,6.998
		c-0.328,0.226-0.764-0.439-1.307-0.332c-0.655,0.225-1.199,0.332-1.307,0.998c-0.112-0.333-0.328-0.44-0.436-0.553
		c-0.656-0.221-0.983,0.445-1.527,0.665c0-0.22-0.215-0.112-0.215-0.332c-3.925,2.222-8.716,3.558-11.001,7.889
		c-0.107,0.22-0.328,0.778,0,1.11c-2.178,1.331-4.576,2.33-6.641,3.998c0.215,1.004-1.092,1.004-1.307,1.669
		c0,0.226,0.436,0.666,0.107,0.886c-1.091,0.671-2.178,1.889-2.178,3.333c0,0.225-0.328,0.333-0.436,0.558
		c-0.328,0.666,0,1.443-0.656,1.889c0.22-0.112,0.113,0.226,0.22,0.226c-0.656,0.333,0,0.773,0.215,1.106
		c-0.651-0.333-2.065-0.333-1.958,0.332c0,1.004,0.215,2.555-0.22,3.553c-0.108-0.44-0.108-0.881-0.436-1.105
		c-0.323-0.333-0.763-0.666-1.086-0.891c-0.871-0.44-1.742-0.773-2.721-1.331c-0.656-0.445-0.221-1.111-0.221-1.781
		c0-0.221,0.436,0,0.436-0.108c0-1.11,0.221-2.222-0.328-3.22c-0.215-0.333-0.328-0.671-0.543-0.998
		c0.764,0.327,1.307-0.226,1.963-0.45c-0.436-0.998-0.871-1.997-1.419-2.995c0.656,0.22,1.634,0.333,1.85,0
		c0.763-1.557-1.087-3.005-1.087-4.669c-0.107-0.998-0.107-1.996-0.328-2.887c1.091,0.44,1.962,1.443,3.162,0.772
		c-0.328-0.332-0.113-0.665-0.328-0.998c1.086,0.112,2.07,1.448,3.156,0.333c0.221-0.221-0.107-0.886-0.328-1.224
		c0.436-0.107,0.871-0.107,1.307-0.107c0.548,0,1.091,0.891,1.634,0.225c0.221-0.333-0.215-0.891-0.107-1.336
		c0.107-0.337,0.764,0,1.199-0.337c-0.436,0.225-0.113-0.328-0.328-0.328c0-0.221,0.215-0.221,0.328-0.221
		c0.543,0.107,1.086,0.44,1.629,0.44c0.984,0,1.962-0.665,2.833-1.224c1.414-0.891,2.506-2.108,3.705-3.327
		c0.979-1.224,1.415-3.112,2.829-3.671c0.436-0.107,1.527,0.113,1.742-0.332c0.328-0.773,0.871-2.335-0.436-2.667
		c0.107,0,0.107,0,0.107,0c-0.323-0.223-0.543,0.333-0.758,0c-0.436-0.443-0.436-0.999-0.113-1.554
		c0.113-0.223,0.548-0.335,0.871-0.445C51.887,45.75,51.887,45.859,51.995,45.859L51.995,45.859z"/>
	<path fill-rule="evenodd" clip-rule="evenodd" fill="#FFFFFF" d="M54.608,39.75c-0.871-0.11,3.049,3.778,4.463,4.333
		c1.526,0.445,3.049-0.333,4.575-0.666c1.522-0.335,2.722-1.668,4.248-1.889c1.522-0.112,2.937-0.333,4.463-0.333
		c1.415-0.113,2.722-0.668,3.92-1.113c3.377-1.331,6.642-2.332,9.582-4.664c0.436-0.335-0.65,0.442-0.763-0.335
		c-3.372,1.223-4.791,1.446-8.275,2.667c-1.087,0.333-1.958,0.888-2.937,1.667c-0.871,0.555-1.854,0.778-2.726,0.778
		c-0.979,0-2.07,0.11-3.049,0.11c-0.979,0.112-1.958,0.333-2.941,0.668c-0.651,0.333-1.742,0.333-2.065-0.445
		c-0.22-0.445-0.112-1.556,0.651-1.444c0.763,0.11,1.526,0.11,2.397,0.223c0.979,0.22,2.065,0.333,3.156,0
		c2.722-0.778,5.119-2.222,7.732-3.223c0.651-0.223,1.742-0.333,1.958-1.333c-0.544-0.112-1.087,0.11-1.63,0.333
		c-2.178,0.668-4.248,1.779-6.426,2.444c-1.307,0.445-2.506,0.778-3.92,0.778c-0.655-0.11-1.307-0.333-1.962-0.445
		c-0.436-0.11-1.087-0.556-1.415-0.22c-0.22,0.22-0.436,0.666-0.436,1.111c-0.327-0.556-2.505,0.666-2.94,0.775
		C59.071,39.972,56.894,40.195,54.608,39.75L54.608,39.75z"/>
	<path fill-rule="evenodd" clip-rule="evenodd" fill="#FFFFFF" d="M61.361,46.638c1.85-0.778,3.372-2.109,5.334-2.887l0.108,0.333
		C64.518,45.859,64.518,45.639,61.361,46.638L61.361,46.638z"/>
	<path fill-rule="evenodd" clip-rule="evenodd" fill="#FFFFFF" d="M57.006,45.75c1.194-0.445,2.178-0.999,3.372-1.333
		c0.112,0,0.22,0.223,0.22,0.223c-1.854,1.221-2.07,1.111-3.919,1.443C56.678,46.195,56.786,45.859,57.006,45.75L57.006,45.75z"/>
	<path fill-rule="evenodd" clip-rule="evenodd" fill="#FFFFFF" d="M68.653,46.417c1.307-0.445,2.29-1.667,3.597-1.889
		c0.107,0-0.22,0.443-0.328,0.553C70.831,45.639,70.072,46.75,68.653,46.417L68.653,46.417z"/>
	<path fill-rule="evenodd" clip-rule="evenodd" fill="#FFFFFF" d="M49.054,65.303c0.436,0.112,1.091-0.666,1.414-0.998
		c-0.215,0.332-0.107,0.332,0,0.665c0.221-0.107,0.113,0.112,0.113,0.226c0,0.22,0.651-0.783,0.758-0.891
		c-0.107,0.998-0.979,2.662-0.65,3.553c0,0.112-0.108,0.665,0.107,0.45c0.22-0.118,0.436-0.118,0.656-0.338
		c0.436-0.553,2.285-3.891,2.829-4.557c0.22-0.22-0.108,0.226,0.107,0.333c-0.543,0.778-2.5,4.669-2.613,5.56
		c0,0.333,0.328,0.886,0.656,0.773c0.764-0.108,2.613-2.33,4.028-5.442c0.107,0.333-2.07,4.669-2.286,5.002
		c0.108,0,0.871-0.783,0.979-0.783c-0.215,0.558-1.199,1.889-1.086,2.672c0.107,0.44,0.543,0.553,0.979,0.44
		c0.651-0.22,1.086-0.891,1.635-1.331c-0.22,0.666-0.548,1.331-0.984,1.776c-0.107,0.112-0.436,0.112-0.651,0
		c-0.979-0.333-1.634-1.003-2.505-1.669c-0.979-0.665-1.522-1.556-2.178-2.555c-0.764-0.886-1.414-1.889-1.635-2.994
		C48.838,65.195,48.946,65.195,49.054,65.303L49.054,65.303z"/>
	<path fill-rule="evenodd" clip-rule="evenodd" fill="#FFFFFF" d="M60.926,71.189c0.543-0.66,0.651-2.222,1.087-2.882
		c0.107,0.548,0.327,0.998,0.22,1.551c0.436-0.22,0-0.22,0.323-0.445c0.112-0.107-0.107-0.998,0.112-0.891
		c0.216,0.112,0.543,0.891,0.651,0.891c0.543,0.226,0.543-0.998,0.763-1.443c0.216,0.998,0.216,2.888,0.108,3.891
		C63.211,71.527,61.904,71.527,60.926,71.189L60.926,71.189z"/>
	<path fill-rule="evenodd" clip-rule="evenodd" fill="#FFFFFF" d="M61.577,56.19c0,0,0.436,11.113-4.899,17.334
		C56.678,73.524,63.319,67.417,61.577,56.19L61.577,56.19z"/>
	<path fill-rule="evenodd" clip-rule="evenodd" fill="#FFFFFF" d="M63.539,57.526c0,0,1.958,1.552,2.065,4.776
		c0,0,0.328-2.667-1.958-5.109L63.539,57.526L63.539,57.526z"/>
	<g>
		<path fill-rule="evenodd" clip-rule="evenodd" fill="#E42728" d="M42.628,29.196c0.984,4.333,2.941,9.555,6.969,11.887
			c1.742,1.001,4.468,0.778,6.098-0.11c0.548-0.335,1.855-0.113,2.07,0.443c0.112,0.888,0.656,1.556,1.307,2.111
			c0.112,0.333-0.328,0.778-0.651,1.001c-0.764,0.443-1.635,0.888-2.398,1.221c-1.415,0.555-2.721-0.333-4.135-0.556
			c-0.548-0.112-0.871-0.555-1.307-0.666c-0.436,0-0.656-0.333-0.984-0.445c-0.65-0.11-1.307-0.666-1.85-1.111
			c-0.651-0.333-1.742-0.888-2.178-1.556c-2.178-3.11-2.613-5.444-3.705-8.887c-0.543-1.889-1.307-3.666-0.436-6.11
			C42.085,27.084,42.3,28.195,42.628,29.196L42.628,29.196z"/>
		<path d="M55.056,47.836c-0.91,0-1.705-0.25-2.408-0.472c-0.347-0.11-0.697-0.228-1.057-0.286c-0.761-0.154-1.24-0.482-1.526-0.678
			l0.002-0.012c-0.58-0.11-0.983-0.387-1.201-0.536c-0.712-0.078-1.61-0.815-2.266-1.353c-0.551-0.252-1.918-0.952-2.628-2.041
			c-1.936-2.763-2.616-5.028-3.406-7.654l-0.731-2.405c-0.524-1.73-1.18-3.881-0.203-6.622l1.022-2.865l2.136,2.168
			c0.856,0.869,1.187,1.977,1.478,2.954l0.174,0.567c0.9,3.925,2.643,8.821,6.112,10.83c0.448,0.259,1.106,0.401,1.847,0.401l0,0
			c0.861,0,1.774-0.206,2.381-0.536c1.069-0.653,3.947-0.68,4.762,1.429c0.134,0.617,0.225,0.888,0.766,1.351l0.401,0.34
			l0.169,0.499c0.376,1.118-0.149,2.339-1.375,3.184c-0.952,0.558-1.894,1.04-2.719,1.399
			C56.193,47.731,55.633,47.836,55.056,47.836z M53.395,43.599c0.135,0.042,0.271,0.083,0.406,0.127
			c0.634,0.201,1.177,0.382,1.524,0.248c0.35-0.152,0.749-0.345,1.152-0.556c-0.101-0.174-0.191-0.35-0.269-0.528
			C55.411,43.239,54.422,43.496,53.395,43.599z"/>
	</g>
	<path fill-rule="evenodd" clip-rule="evenodd" fill="#FFFFFF" d="M31.96,49.643c0.215,0.107,0.431,0.107,0.543-0.118
		c-0.22,0.333-0.436,0.666-0.22,0.891c0.22,0.107,0.436-0.226,0.656-0.333c0,0.22-0.107,0.22-0.22,0.22
		c-0.108,0.113-0.108,0.338-0.108,0.445c-0.107,0.226-0.107,0.445,0.108,0.666c0.113,0.225,0.328,0.333,0.548,0.112
		c0.215-0.22,0.436-0.445,0.758-0.665c-0.323,0.445-0.436,1.11-0.108,1.551c0,0,0.108,0.117,0.221,0
		c0.215-0.333,0.543-0.665,0.871-0.998c0.215-0.221,0.65-0.221,0.979-0.333c-0.22,0.226-0.436,0.333-0.656,0.445
		c-0.323,0.338-0.651,0.553-0.871,0.886c-0.108,0.117-0.215,0.226-0.108,0.333c0,0.226,0.221,0.45,0.436,0.338
		c0.871-0.554,1.527-1.219,2.398-1.669c-0.221,0.45-0.764,0.665-1.092,1.115c-0.215,0.333-0.436,0.666-0.65,1.106
		c-0.113,0.112-0.113,0.558,0,0.671c0.215,0,0.215,0.445,0.436,0.327c0.436-0.327,0.65-0.772,1.086-0.998
		c0.221-0.22,0.328-0.333,0.543-0.553c0.763-0.671,1.419-1.557,2.398-1.89c0.215,0,0.328-0.22,0.543-0.22
		c-0.107,0.333-0.543,0.553-0.763,0.665c-0.108,0.108-0.323,0.108-0.436,0.226c-0.651,0.998-1.522,1.664-2.393,2.442
		c-0.22,0.327-0.436,0.665-0.328,0.998c0.108,0.333,0.656,0.553,1.092,0.445c0.215-0.112,0.323-0.226,0.323-0.445
		c0.548-0.778,1.091-1.336,1.855-1.889c0.436-0.221,0.758-0.554,1.194-0.887c0.656-0.337,1.307-0.558,1.962-0.782
		c0.215-0.108,0-0.221,0.107,0.117c-1.521,0.773-2.393,1.664-3.484,2.995c-0.328,0.332-0.763,0.665-0.763,1.11
		c0.436,0.221,1.199,0.338,1.634,0.221c0.656-0.221,1.199-0.666,1.742-1.106c0.543-0.45,0.979-1.115,1.527-1.556
		c0.436-0.333,0.65-0.891,1.194-1.116c0.328-0.22,0.763-0.333,1.312-0.44c0.108,0,0.436,0,0.436,0.221
		c0,0.337-0.436,0.445-0.656,0.778c-0.328,0.445-0.543,0.777-0.979,1.115c-0.764,0.666-1.307,1.219-2.178,1.771
		c-0.328,0.226-0.548,0.226-0.871,0.333c-0.764,0.117-1.419,0.117-2.07,0.117c-0.871,0.107-1.635-0.225-2.613-0.45
		c-0.22,0-0.543,0-0.764-0.22c-0.871-0.886-1.414-1.669-2.285-2.442c-0.543-0.558-1.199-1.003-1.635-1.669
		c-0.328-0.553-0.543-1.224-0.543-1.884C31.96,49.643,31.96,49.643,31.96,49.643L31.96,49.643z"/>
	<path fill-rule="evenodd" clip-rule="evenodd" fill="#FFFFFF" d="M67.459,83.076c0,0-11.216,6.666-26.573-3.66
		c-0.107-0.117-0.328-0.333-0.65-0.333c-0.113-0.117-0.328-0.117-0.328-0.225c-0.543-0.558-0.656-1.224-1.414-1.664
		c-0.328-0.226-0.764-0.558-1.092-0.783c-0.871-0.333-1.307-1.556-2.178-1.556c-0.436,0-0.215,0.891-0.436,1.448
		c-0.107,0.333-0.215,0.773,0.108,0.998c0.22,0.226,0.656,0.226,0.871,0c0.548-0.333,1.091-0.445,1.419,0.112
		c0.323,0.445,0.323,0.778,0.758,1.111c0.548,0.333,0.436,0.221,0.871,0.558c0.328,0.216,1.091,0.886,1.419,1.106
		C40.235,80.189,53.409,89.742,67.459,83.076L67.459,83.076z"/>
	<path fill-rule="evenodd" clip-rule="evenodd" fill="#FFFFFF" d="M35.987,81.188c0.107,0.117,0.215,0.333,0.328,0.45
		c0.65,0.773,0.979,0.999,1.194,1.552c0.328,1.556,1.527,2.667,1.199,4.223c-0.979-1.443-1.199-3-2.178-4.443
		C36.095,82.411,35.767,81.858,35.987,81.188L35.987,81.188z"/>
	<path fill-rule="evenodd" clip-rule="evenodd" fill="#FFFFFF" d="M57.985,81.08c0,0,3.157,0,5.226-0.666
		C63.211,80.414,61.469,81.521,57.985,81.08L57.985,81.08z"/>
	<path fill-rule="evenodd" clip-rule="evenodd" fill="#FFFFFF" d="M75.95,39.75c0.548,0.556,1.307,0.445,1.85,0.556
		c0.112,0,0.548,0.112,0.328,0.333c-0.871,0.778-1.958,0.891-2.829,1.667c-0.328,0.113-0.764,0.668-0.436,0.778
		c0.979,0.223,1.85-0.665,2.829-0.888c0.655-0.223,1.419-0.445,1.962-0.999c0.216-0.223,0.436-0.558,0.764-0.778
		c0.871-0.445,1.63-1.111,2.501-1.666c0.548-0.223,0.763-0.668,1.198-1.001c0.436-0.333,0.436-0.666,0.764-0.888
		c0.436-0.223,0.651-0.223,0.543-0.778c0,0.11-0.436-0.665-0.107-0.778c-0.543,0.223-0.979,0.555-1.526,0.778
		c-0.651,0.333-1.307,0.556-1.851,0.778c-1.634,0.666-3.156,1.221-4.683,1.999c-0.216,0.11-0.323,0.556-0.651,0.666L75.95,39.75
		L75.95,39.75z"/>
	<path fill-rule="evenodd" clip-rule="evenodd" fill="#FFFFFF" d="M85.532,32.529c-1.63,0.223-3.265,0.666-4.791,1.111
		c-0.108,0,0,0.223,0,0.333c0.327,0,0.655,0.112,0.871,0.112c1.526,0,2.833-0.778,4.14-1.446
		C85.645,32.639,85.645,32.529,85.532,32.529L85.532,32.529z"/>
</g>
</svg>
