<?xml version="1.0" encoding="utf-8"?>
<!-- Generator: Adobe Illustrator 16.0.0, SVG Export Plug-In . SVG Version: 6.00 Build 0)  -->
<!DOCTYPE svg PUBLIC "-//W3C//DTD SVG 1.1//EN" "http://www.w3.org/Graphics/SVG/1.1/DTD/svg11.dtd">
<svg version="1.1" id="Layer_1" xmlns="http://www.w3.org/2000/svg" xmlns:xlink="http://www.w3.org/1999/xlink" x="0px" y="0px"
	 width="234.195px" height="96.456px" viewBox="0 0 234.195 96.456" enable-background="new 0 0 234.195 96.456"
	 xml:space="preserve">
<g>
	
		<path fill-rule="evenodd" clip-rule="evenodd" fill="#EC1C24" stroke="#EC1C24" stroke-width="0.2619" stroke-miterlimit="2.6131" d="
		M39.736,18.76c-2.184-2.018-5.046-1.631-7.158,3.584c-0.743,1.838-1.468,3.521-1.495,5.077c-0.062,3.514-1.536,5.84-3.79,7.224
		c-2.596,1.588-4.198,4.301-4.315,8.437c-0.078,2.789-2.014,5.312-3.808,7.448c-4.421,5.265-8.734,7.315-11.834-0.37
		c-1.093-2.713-1.264-4.429-3.773-3.707c-1.049,0.301-1.886,2.083-2.701,5.231c-1.079,4.169-1.193,8.186,1.251,11.399
		c3.288,4.323,2.659,9.361,1.703,12.279c-0.612,1.869-0.686,4.978,0.786,6.133c2.437,1.911,4.411,2.302,7.233,0.734
		c6.865-3.815,11.668-7.421,24.58-7.909c1.036-0.037,2.146,0.313,3.167-0.028c6.407-2.142,9.345-4.963,12.563-6.719
		c2.364-1.292,5.612-2.786,7.704-2.274c3.98,0.974,5.577,1.032,6.265,0.106c0.891-1.207,2.342-2.838,3.765-3.771
		c3.045-1.998,4.581-2.882,5.825-5.75c0.78-1.801,2.719-2.289,5.042-1.424c2.405,0.896,4.677,1.614,7.252,2.079
		c6.258,1.124,10.36,3.198,9.069,14.675c-0.452,4.007-2.529,11.527-5.784,15.699c-2.492,3.193-3.617,4.979,1.085,5.439
		c2.424,0.235,4.633-0.205,6.529,0.117c9.642,1.641,11.618,0.823,12.075-5.368c0.192-2.588,1.829-5.986,3.3-8.289
		c2.642-4.139,3.777-8.562,6.759-13.226c0.964-1.509,2.579-1.889,4.527-0.515c2.376,1.676,5.077,2.034,7.964,2.152
		c2.26,0.089,4.447,0.559,6.525,0.266c3.06-0.431,5.923-1.136,8.466-1.876c2.376-0.69,4.521-1.828,6.611-2.908
		c3.775-1.948,5.243-2.395,9.387-2.302c4.817,0.105,8.666,0.259,10.872,0.492c2.597,0.271,3.372-0.672,4.843-0.62
		c1.546,0.055,4.11,1.289,4.346,2.444c0.437,2.133,1.688,9.823,3.583,13.042c1.645,2.793,1.524,6.238,1.68,8.796
		c0.12,1.921-1.317,3.115-2.688,4.388c-3.22,2.981-1.559,5.499,1.845,6.637c3.562,1.193,6.423,0.71,8.854,0.193
		c6.298-1.336,9.731-3.992,8.496-7.197c-0.808-2.1-0.761-3.94-0.994-5.388c-0.332-2.066,2.71-3.44,2.395-9.168
		c-0.108-1.928-0.952-3.804-0.662-5.75c0.275-1.844,2.366-4.15,2.802-6.682c0.837-4.872,1.683-3.542,2.036-5.812
		c0.203-1.299,1.591-2.154,2.176-3.406c6.349-13.565,2.21-20.511-4.429-26.596c-17.424-15.97-36.221-27.551-62.021-18.84
		c-5.122,1.725-10.243,3.884-15.725,2.663c-5.156-1.147-11.548-3.49-17.299-5.569c-8.425-3.047-10.489-4.593-19.894-3.604
		C83.743,1.583,66.379,6.16,52.532,18.595c-0.611,0.549-1.477,1.454-4.423,0.594c-1.451-0.424-2.188,0.476-2.804,0.695
		C41.92,21.09,42.344,21.166,39.736,18.76L39.736,18.76z M220.747,36.501c-0.962,0.583-0.792,2.242-0.053,2.904
		c6.001,5.373,9.548,10.719,3.922,16.092c-3.134,2.628-6.382,5.256-7.716,7.884c-2.538,3.134,0.354,3.681,4.019,3.86
		c2.868,0.181,5.098-0.012,6.389-1.15c0.976-0.857,1.521-1.928,2.478-2.558c1.993-1.798,3.198-3.747,3.919-5.241
		c0.507-1.141,0.523-1.319-0.242-2.312c-0.712-0.924-0.974-3.185-1.129-4.184c-0.882-5.79-3.957-10.117-7.94-13.839
		C223.499,37.124,222.017,35.73,220.747,36.501L220.747,36.501z M161.552,64.2c-2.661-0.054-3.7,2.077-3.555,5.744
		c0.125,3.554,0.475,7.179-1.956,9.879c-1.723,1.914-4.261,2.029-5.071,4.785c-0.44,1.494,0.504,2.84,4.612,3.612
		c2.486,0.177,4.878,0.712,6.717,0.915c5.489,0.598,8.133-1.309,7.841-4.287c-0.575-1.98,0.259-3.153,1.296-4.212
		c2.366-2.288,4.062-3.57,5.935-5.284c0.967-0.884,1.968-2.361,2.154-3.872c0.035-0.294,0.092-0.556,0.172-0.787
		c0.344-1.021,0.472-1.319,0.4-2.521c-0.212-3.594-1.883-3.602-4.451-3.735C170.894,64.408,166.301,64.227,161.552,64.2
		L161.552,64.2z M86.804,60.062c-0.861,0.094-1.964,0.848-0.719,2.979c0.77,1.317,1.968,3.083,4.723,7.862
		c1.355,2.352,2.698,1.339,3.236-0.052c0.764-1.976,0.09-4.072-0.052-6.113C93.701,60.517,90.467,59.657,86.804,60.062
		L86.804,60.062z M85.014,80.844c2.002-1.463,4.564-2.085,5.591-1.348c1.026,0.737,0.293,3.123-1.708,4.586
		c-2.002,1.464-4.254,1.464-5.28,0.729C82.59,84.073,83.013,82.31,85.014,80.844L85.014,80.844z"/>
</g>
</svg>
