<?xml version="1.0" encoding="utf-8"?>
<!-- Generator: Adobe Illustrator 16.0.0, SVG Export Plug-In . SVG Version: 6.00 Build 0)  -->
<!DOCTYPE svg PUBLIC "-//W3C//DTD SVG 1.1//EN" "http://www.w3.org/Graphics/SVG/1.1/DTD/svg11.dtd">
<svg version="1.1" id="Layer_1" xmlns="http://www.w3.org/2000/svg" xmlns:xlink="http://www.w3.org/1999/xlink" x="0px" y="0px"
	 width="187.086px" height="181.227px" viewBox="0 0 187.086 181.227" enable-background="new 0 0 187.086 181.227"
	 xml:space="preserve">
<g>
	<path fill="#547D89" d="M187.086,0v181.227H0V0H187.086L187.086,0z M149.771,170.692c3.709,0,6.752-2.744,7.123-6.453l0,0
		l13.871-147.845c0.371-3.486-2.373-6.083-5.488-6.083l0,0H21.142c-3.561,0-5.86,2.967-5.564,6.083L29.45,164.239
		c0.296,3.709,3.338,6.453,7.047,6.453l0,0h32.269v7.344h47.106v-7.344H149.771L149.771,170.692z"/>
	<polygon fill="#547D89" points="52.521,99.106 37.239,99.106 37.239,126.628 52.521,126.628 52.521,120.175 45.918,120.175 
		45.918,115.501 52.521,115.501 52.521,110.159 45.918,110.159 45.918,105.265 52.521,105.265 	"/>
	<polygon fill="#547D89" points="88.425,99.106 92.431,126.628 103.409,126.628 108.75,99.106 102.891,99.106 99.402,115.872 
		96.585,99.106 	"/>
	<polygon fill="#547D89" points="86.792,99.106 71.511,99.106 71.511,126.628 86.792,126.628 86.792,120.175 80.19,120.175 
		80.19,115.501 86.792,115.501 86.792,110.159 80.19,110.159 80.19,105.265 86.792,105.265 	"/>
	<polygon fill="#547D89" points="125.664,99.106 110.382,99.106 110.382,126.628 125.664,126.628 125.664,120.175 119.062,120.175 
		119.062,115.501 125.664,115.501 125.664,110.159 119.062,110.159 119.062,105.265 125.664,105.265 	"/>
	<polygon fill="#547D89" points="64.538,99.106 55.859,99.106 55.859,126.628 69.805,126.628 69.805,120.175 64.538,120.175 	"/>
	<path fill="#547D89" d="M128.779,99.106v27.521h8.604v-19.36c0-2.002,3.709-2.002,3.709,0l0,0v19.36h8.679v-23.44
		c0-2.226-2.226-4.377-5.191-4.451c-1.706,0-3.709,0.742-5.562,2.598c-0.742,0.666-2.301,0.594-1.633-2.227l0,0H128.779
		L128.779,99.106z"/>
	<path fill="#D53139" d="M115.13,129.077H75.22c-2.893,18.248-3.635,22.996-3.413,45.547l0,0h41.69c0-12.61-0.147-18.619,0-24.555
		C113.646,144.729,114.092,139.388,115.13,129.077L115.13,129.077z"/>
	<path fill="#EA9C1F" d="M138.794,27.447H39.539v35.978h53.633C105.635,47.551,120.99,35.607,138.794,27.447L138.794,27.447z"/>
	<path fill="#D53139" d="M79.745,96.585h39.983c4.6-18.1,14.317-26.482,29.303-31.453l0,0V26.854
		C116.242,37.239,89.834,64.242,79.745,96.585L79.745,96.585z"/>
	<path fill="#547D89" d="M122.104,140.427c-2.447,0-4.377-2.004-4.377-4.377c0-2.448,1.93-4.45,4.377-4.45s4.377,2.002,4.377,4.45
		C126.479,138.423,124.551,140.427,122.104,140.427L122.104,140.427z M122.104,139.61c2.002,0,3.635-1.633,3.635-3.562
		c0-2.004-1.633-3.635-3.635-3.635s-3.636,1.631-3.636,3.635C118.468,137.978,120.102,139.61,122.104,139.61L122.104,139.61z"/>
	<path fill="#547D89" d="M121.213,136.421v2.15h-0.742v-5.043h1.854c1.188,0,1.78,0.443,1.78,1.481c0,0.892-0.52,1.263-1.262,1.337
		l0,0l1.41,2.225h-0.891l-1.262-2.15H121.213L121.213,136.421z M121.213,135.753h0.891c0.668,0,1.188-0.073,1.188-0.815
		c0-0.595-0.52-0.742-1.038-0.742l0,0h-1.039L121.213,135.753L121.213,135.753z"/>
</g>
</svg>
