<?xml version="1.0" encoding="utf-8"?>
<!-- Generator: Adobe Illustrator 16.0.0, SVG Export Plug-In . SVG Version: 6.00 Build 0)  -->
<!DOCTYPE svg PUBLIC "-//W3C//DTD SVG 1.1//EN" "http://www.w3.org/Graphics/SVG/1.1/DTD/svg11.dtd">
<svg version="1.1" id="Layer_1" xmlns="http://www.w3.org/2000/svg" xmlns:xlink="http://www.w3.org/1999/xlink" x="0px" y="0px"
	 width="179.923px" height="48.191px" viewBox="270.786 336.282 179.923 48.191"
	 enable-background="new 270.786 336.282 179.923 48.191" xml:space="preserve">
<g>
	<path fill="#006354" d="M413.634,337.859h14.715l-1.738,8.554c4.495-7.032,9.643-9.059,15.948-9.495
		c2.176-0.07,4.857,0.218,7.249,0.58l-2.829,11.237c-2.317-0.58-4.781-1.015-6.957-1.015c-8.697-0.144-15.15,5.724-17.398,14.132
		l-5.074,19.284h-15.223C406.095,366.711,411.098,350.982,413.634,337.859L413.634,337.859z"/>
	<path fill="#006354" d="M371.794,357.081c2.537-1.232,11.382-1.098,17.108-1.823c6.597-0.797,15.8-4.421,15.582-9.931
		c-0.361-5.872-5.578-7.203-10.436-6.55C382.596,340.444,375.129,347.947,371.794,357.081L371.794,357.081z M370.377,360.826
		c-0.29,2.537-0.612,5.232-0.396,7.264c0.942,7.176,7.233,10.531,13.977,10.75c5.613,0.133,12.458-3.227,16.181-7.408
		c0.703-0.791,1.513-0.533,1.988,0.098c0.364,0.48,0.221,1.57-0.115,1.902c-5.847,5.805-11.855,9.08-20.214,9.152
		c-9.496,0.072-21.385-3.549-22.834-13.406c-0.218-1.16-0.218-2.467-0.073-3.844c1.886-18.261,18.56-28.126,34.941-28.997
		c7.829-0.435,19.138,1.596,18.485,10.077c-0.652,8.917-14.137,12.034-22.907,12.251
		C382.016,358.883,372.914,358.85,370.377,360.826L370.377,360.826z"/>
	<path fill="#006354" d="M362.198,371.137l-2.462,9.422c-4.133,0.871-9.499,1.668-14.43,1.523
		c-14.643-0.289-25.372-7.033-24.72-20.953c0.796-16.018,16.674-24.21,31.97-24.427c5.075,0,9.713,0.506,14.86,1.739l-4.567,9.061
		c-3.334-0.942-7.828-1.812-12.323-1.377c-7.032,0.507-13.483,4.276-15.368,11.671c-2.464,9.279,2.898,15.806,12.396,15.806
		C352.557,373.602,357.415,372.588,362.198,371.137L362.198,371.137z"/>
	<path fill="#006354" d="M300.29,336.845c12.251,0,21.478,2.814,22.358,12.986c0.338,3.913-1.086,7.403-2.175,11.536l-5.105,19.844
		c-9.786,0-17.76,0.217-26.604,0.941c-8.191,0-17.978-1.738-17.978-12.178c0.171-17.06,26.604-15.515,37.841-15.515
		c2.393-6.814-3.19-9.569-11.019-9.569c-7.104,0-12.955,2.03-18.682,3.915l2.008-9.207
		C286.517,337.788,293.693,336.845,300.29,336.845L300.29,336.845z M306.959,361.275c-6.172,0-23.616-1.457-23.616,7.975
		c0,4.711,4.93,5.414,9.062,5.414C303.262,374.664,304.956,370.873,306.959,361.275L306.959,361.275z"/>
	<path fill="#006354" d="M444.691,372.365c-1.664,0-3.114,0.652-4.202,1.742c-1.157,1.231-1.812,2.752-1.812,4.346
		c0,1.598,0.655,3.047,1.742,4.207c1.158,1.16,2.68,1.812,4.272,1.812c1.595,0,3.118-0.652,4.279-1.812
		c1.162-1.16,1.738-2.609,1.738-4.207c0-1.664-0.576-3.186-1.738-4.273C447.811,373.018,446.286,372.365,444.691,372.365
		L444.691,372.365z M450.134,378.453c0,1.451-0.581,2.758-1.597,3.771c-1.015,1.016-2.466,1.596-3.846,1.596
		c-1.447,0-2.825-0.58-3.841-1.596c-1.014-1.015-1.592-2.392-1.592-3.771c0-1.445,0.578-2.824,1.592-3.914
		c1.016-1.014,2.394-1.592,3.841-1.592c1.452,0,2.831,0.578,3.846,1.668C449.553,375.629,450.134,376.932,450.134,378.453
		L450.134,378.453z M444.84,374.83h-2.466v6.963h0.944v-3.119h1.739l1.52,3.119h1.091l-1.597-3.191
		c1.016-0.147,1.669-0.873,1.669-1.812C447.74,375.412,446.797,374.83,444.84,374.83L444.84,374.83z M444.691,375.484
		c1.38,0,2.104,0.361,2.104,1.231c0,1.086-0.652,1.377-2.104,1.377h-1.373v-2.608H444.691L444.691,375.484z"/>
</g>
</svg>
