<?xml version="1.0" encoding="utf-8"?>
<!-- Generator: Adobe Illustrator 16.0.0, SVG Export Plug-In . SVG Version: 6.00 Build 0)  -->
<!DOCTYPE svg PUBLIC "-//W3C//DTD SVG 1.1//EN" "http://www.w3.org/Graphics/SVG/1.1/DTD/svg11.dtd">
<svg version="1.1" id="Layer_1" xmlns="http://www.w3.org/2000/svg" xmlns:xlink="http://www.w3.org/1999/xlink" x="0px" y="0px"
	 width="187.086px" height="161.251px" viewBox="265.835 279.752 187.086 161.251"
	 enable-background="new 265.835 279.752 187.086 161.251" xml:space="preserve">
<g>
	<path d="M392.826,430.983c-2.295-0.364-4.339-0.478-4.339-1.708c0-0.477,0.279-0.979,0.729-1.315
		c0.393-0.308,1.427-0.42,2.127-0.42c0.729,0,1.455,0.364,1.903,0.84c0.279,0.336,0.616,0.868,0.672,1.428l0,0h3.723l0,0
		c-0.084-1.371-0.672-2.716-1.734-3.471c-1.036-0.756-2.38-1.68-4.228-1.68c-1.764,0-3.499,0.056-4.702,0.952
		c-1.203,0.866-2.07,2.321-2.07,3.582c0,0.728-0.058,1.596,0.224,2.127c0.309,0.531,1.203,1.624,1.903,2.044
		c0.979,0.56,3.273,0.782,4.534,1.12c1.036,0.251,2.296,0.308,2.574,1.343c0.169,0.616-0.027,1.176-0.588,1.54
		c-0.53,0.362-1.343,0.615-2.238,0.615c-0.925,0-1.819-0.28-2.268-0.841c-0.393-0.53-0.616-1.034-0.925-1.847l0,0h-3.722l0,0
		c0.084,1.707,1.035,3.387,2.211,4.338c1.146,0.924,2.688,1.372,4.646,1.372s3.666-0.336,4.926-1.231
		c1.231-0.896,1.904-2.574,1.904-3.946c0-1.176-0.336-2.101-0.868-2.827C396.129,431.571,394.17,431.179,392.826,430.983
		L392.826,430.983L392.826,430.983L392.826,430.983z"/>
	<polygon points="344.291,440.556 348.07,440.556 348.07,424.881 344.291,424.881 344.291,440.556 	"/>
	<polygon points="344.291,423.817 348.098,423.817 348.098,420.039 344.291,420.039 344.291,423.817 	"/>
	<path d="M338.777,426.952c-1.4-1.092-3.191-1.847-5.15-1.903c-0.056,0-0.112,0-0.196,0c-4.339,0-7.865,3.527-7.865,7.837
		c0,4.339,3.526,7.895,7.865,7.895c0.084,0,0.141,0,0.196,0c1.959-0.027,3.75-0.812,5.123-2.155l0,0l0.028,1.932h3.583V420.04
		h-3.583L338.777,426.952L338.777,426.952L338.777,426.952z M333.655,437.561h-0.028l0,0c-2.575,0-4.674-2.099-4.674-4.675
		c0-2.547,2.099-4.674,4.674-4.674l0,0h0.028l0,0c2.547,0,4.674,2.101,4.674,4.674C338.329,435.462,336.202,437.561,333.655,437.561
		L333.655,437.561L333.655,437.561L333.655,437.561z"/>
	<path d="M362.232,426.896c-1.398-1.093-3.19-1.849-5.15-1.903c-0.056,0-0.14,0-0.196,0c-4.338,0-7.893,3.555-7.893,7.865
		c0,4.339,3.555,7.894,7.893,7.894c0.057,0,0.141,0,0.196,0c1.959-0.057,3.723-0.84,5.123-2.184l0,0v1.932h3.583v-20.489h-3.583
		L362.232,426.896L362.232,426.896L362.232,426.896z M357.083,437.532c-2.575,0-4.702-2.127-4.702-4.701
		c0-2.548,2.127-4.647,4.702-4.647s4.703,2.101,4.703,4.647C361.785,435.405,359.657,437.532,357.083,437.532L357.083,437.532
		L357.083,437.532L357.083,437.532z"/>
	<path d="M320.527,424.881v1.484l0,0c-0.729-0.784-1.063-1.036-1.903-1.346c-0.756-0.278-1.791-0.53-2.799-0.56
		c-0.057,0-0.112,0-0.168,0c-1.204,0-2.268,0.196-3.22,0.588c-0.924,0.393-1.791,1.008-2.574,1.849
		c-0.7,0.728-1.261,1.622-1.68,2.604c-0.363,0.979-0.56,1.987-0.56,3.078c0,2.38,0.784,4.367,2.351,5.906
		c1.54,1.566,3.499,2.379,5.851,2.379c0,0,0,0,0.028,0c0.95,0,1.986-0.28,2.826-0.588c0.839-0.309,1.456-0.561,1.848-1.119l0,0
		v1.427l3.639-0.027l-0.027-15.701L320.527,424.881L320.527,424.881L320.527,424.881z M315.854,437.309c-0.027,0-0.027,0-0.027,0
		c-2.575,0-4.646-2.07-4.646-4.646c0-2.547,2.071-4.646,4.646-4.646c0,0,0,0,0.027,0c2.548,0,4.646,2.1,4.646,4.646
		C320.5,435.237,318.4,437.309,315.854,437.309L315.854,437.309L315.854,437.309L315.854,437.309z"/>
	<path d="M379.895,424.825l0.028,1.482l0,0c-0.729-0.755-1.092-1.008-1.903-1.344c-0.783-0.279-1.792-0.504-2.8-0.531
		c-0.056,0-0.11,0-0.167,0c-1.204,0-2.268,0.195-3.219,0.561c-0.952,0.392-1.82,1.036-2.575,1.848
		c-0.729,0.729-1.288,1.623-1.68,2.631c-0.364,0.951-0.588,1.987-0.588,3.078c0,2.354,0.812,4.339,2.379,5.906
		c1.512,1.54,3.499,2.352,5.85,2.352c0.98,0,2.017-0.252,2.827-0.588c0.84-0.308,1.484-0.56,1.876-1.119l0,0v1.429l3.64-0.028
		l-0.058-15.675L379.895,424.825L379.895,424.825L379.895,424.825z M375.22,437.28c-2.573-0.027-4.674-2.1-4.674-4.674
		c0-2.548,2.101-4.618,4.674-4.646c2.576,0,4.675,2.1,4.675,4.646C379.895,435.182,377.796,437.28,375.22,437.28L375.22,437.28
		L375.22,437.28L375.22,437.28z"/>
	<path d="M401.251,416.54c-0.028,0-0.056-0.027-0.056-0.027c-2.437,0-4.423,1.986-4.423,4.422s1.986,4.396,4.423,4.396
		c0,0,0.026,0,0.056,0c2.407-0.028,4.366-1.987,4.366-4.396C405.617,418.527,403.658,416.568,401.251,416.54L401.251,416.54
		L401.251,416.54L401.251,416.54z M401.251,424.629c-2.043,0-3.694-1.651-3.694-3.694c0-1.986,1.651-3.667,3.694-3.639
		c2.044,0,3.695,1.651,3.695,3.667C404.946,422.978,403.295,424.629,401.251,424.629L401.251,424.629L401.251,424.629
		L401.251,424.629z"/>
	<path d="M402.538,421.662c-0.14-0.141-0.308-0.279-0.531-0.42c0.42-0.057,0.756-0.225,0.951-0.477
		c0.196-0.195,0.337-0.504,0.337-0.84c0-0.28-0.112-0.56-0.225-0.783c-0.141-0.195-0.363-0.363-0.561-0.447
		c-0.224-0.084-0.588-0.112-1.119-0.112l0,0h-0.141h-1.903v4.786h0.979v-2.016h0.168l0,0c0.225,0,0.392,0.028,0.504,0.057
		c0.112,0.027,0.168,0.084,0.252,0.168c0,0.028,0.028,0.028,0.028,0.057c0.111,0.057,0.279,0.309,0.531,0.671l0,0l0.699,1.063h1.147
		l-0.588-0.923l0,0C402.847,422.082,402.65,421.774,402.538,421.662L402.538,421.662L402.538,421.662L402.538,421.662z
		 M401.251,420.599c-0.056,0-0.14,0-0.224,0l0,0h-0.7v-1.202h0.729l0,0c0.084,0,0.141,0,0.195,0c0.28,0,0.476,0,0.532,0.026
		c0.14,0,0.279,0.084,0.363,0.169c0.111,0.083,0.141,0.224,0.141,0.363s-0.028,0.308-0.112,0.392
		c-0.084,0.058-0.168,0.141-0.252,0.196C401.812,420.57,401.587,420.57,401.251,420.599L401.251,420.599L401.251,420.599
		L401.251,420.599z"/>
	<path d="M343.927,395.352H311.99l0,0c9.544,5.906,20.712,9.825,33.42,12.456l0,0L343.927,395.352L343.927,395.352L343.927,395.352
		L343.927,395.352z M368.278,395.379l-1.903,11.7l0,0c12.764-2.352,24.016-6.046,33.785-11.7l0,0H368.278L368.278,395.379
		L368.278,395.379L368.278,395.379z M364.612,395.323l-17.55,0.028l0,0c2.463,5.121,5.598,9.433,9.181,13.548
		C359.77,404.7,362.121,400.361,364.612,395.323L364.612,395.323L364.612,395.323L364.612,395.323L364.612,395.323z
		 M411.832,387.542l-111.709-0.056l0,0c-3.723-2.967-6.242-4.508-9.237-8.453l0,0h130.322l0,0
		C418.297,382.225,414.967,385.105,411.832,387.542L411.832,387.542L411.832,387.542L411.832,387.542L411.832,387.542z
		 M428.485,369.35l-144.374,0.055l0,0c-1.932-2.687-4.143-6.465-5.514-9.459l0,0H434l0,0
		C432.544,363.303,430.585,366.409,428.485,369.35L428.485,369.35L428.485,369.35L428.485,369.35L428.485,369.35z M325.174,349.7
		l-50.41,0.028l0,0c-4.619-10.664-7.529-21.664-8.929-35.324C291.81,319.022,311.851,329.687,325.174,349.7L325.174,349.7
		L325.174,349.7L325.174,349.7L325.174,349.7z M376.815,349.784h-41.453l0,0c-0.925-26.675,6.466-53.742,20.74-70.032
		C370.602,295.623,378.104,322.577,376.815,349.784L376.815,349.784L376.815,349.784L376.815,349.784L376.815,349.784z
		 M438.254,349.728l-51.39,0.028l0,0c14.19-19.957,34.567-31.237,60.963-35.24C446.176,327.867,443.097,339.203,438.254,349.728
		L438.254,349.728L438.254,349.728L438.254,349.728z"/>
	<path d="M443.097,291.228c-0.057-0.028-0.111-0.028-0.168-0.028c-5.431,0-9.907,4.45-9.907,9.88c0,5.43,4.478,9.88,9.907,9.88
		c0.057,0,0.111,0,0.168,0c5.431-0.084,9.824-4.506,9.824-9.88S448.526,291.312,443.097,291.228L443.097,291.228L443.097,291.228
		L443.097,291.228z M443.097,309.422c-4.534,0-8.257-3.751-8.257-8.286c0-4.478,3.723-8.256,8.257-8.201
		c4.591,0,8.285,3.723,8.285,8.229C451.382,305.727,447.688,309.422,443.097,309.422L443.097,309.422L443.097,309.422
		L443.097,309.422z"/>
	<path d="M445.979,302.732c-0.308-0.308-0.698-0.644-1.146-0.924c0.924-0.14,1.651-0.448,2.155-1.036
		c0.446-0.476,0.7-1.147,0.7-1.931c0-0.644-0.226-1.231-0.505-1.735c-0.309-0.448-0.783-0.84-1.288-0.98
		c-0.504-0.224-1.344-0.335-2.519-0.335l0,0h-0.28h-4.197v10.776h2.099v-4.506h0.448l0,0c0.503,0,0.867,0.028,1.119,0.112
		c0.168,0.083,0.363,0.196,0.531,0.364c0.027,0.028,0.084,0.056,0.111,0.084c0.169,0.251,0.561,0.756,1.148,1.595l0,0l1.538,2.351
		h2.604l-1.288-2.071l0,0C446.707,303.656,446.26,303.012,445.979,302.732L445.979,302.732L445.979,302.732L445.979,302.732z
		 M443.097,300.325c-0.14,0-0.309,0-0.504,0l0,0h-1.596v-2.659h1.708l0,0c0.14,0,0.279,0,0.392,0c0.615,0,1.035,0,1.177,0.028
		c0.392,0.028,0.671,0.224,0.84,0.419c0.224,0.168,0.278,0.504,0.278,0.84c0,0.28-0.056,0.616-0.195,0.84
		c-0.167,0.168-0.363,0.335-0.645,0.42C444.328,300.269,443.881,300.297,443.097,300.325L443.097,300.325L443.097,300.325
		L443.097,300.325z"/>
</g>
</svg>
