<?xml version="1.0" encoding="utf-8"?>
<!-- Generator: Adobe Illustrator 16.0.0, SVG Export Plug-In . SVG Version: 6.00 Build 0)  -->
<!DOCTYPE svg PUBLIC "-//W3C//DTD SVG 1.1//EN" "http://www.w3.org/Graphics/SVG/1.1/DTD/svg11.dtd">
<svg version="1.1" id="Livello_1" xmlns="http://www.w3.org/2000/svg" xmlns:xlink="http://www.w3.org/1999/xlink" x="0px" y="0px"
	 width="362.319px" height="100.639px" viewBox="0 0 362.319 100.639" enable-background="new 0 0 362.319 100.639"
	 xml:space="preserve">
<path fill="#A7A9AC" stroke="#A7A9AC" stroke-width="1.8565" d="M70.135,62.079c0,4.737,0,12.04-8.84,12.04
	c-5.38,0-7.558-2.948-8.839-7.813c-4.738,5.634-10.502,8.584-17.548,8.584c-17.294,0-30.488-14.733-30.488-35.485
	c0-20.239,13.578-35.739,30.488-35.739c6.788,0,13.45,2.69,17.548,8.455c0.514-4.484,4.356-7.687,8.839-7.687
	c8.84,0,8.84,7.302,8.84,12.041V62.079 M37.469,57.978c9.606,0,14.219-9.736,14.219-18.574c0-8.838-4.483-18.83-14.219-18.83
	c-10.12,0-14.604,9.992-14.604,18.83C22.865,48.242,27.477,57.978,37.469,57.978z"/>
<path fill="#A7A9AC" stroke="#A7A9AC" stroke-width="1.8565" d="M92.96,14.157c0-6.149,4.868-9.223,9.479-9.223
	c4.868,0,8.967,1.793,8.967,7.687h0.255c3.46-5.124,7.174-7.687,12.938-7.687c4.484,0,8.968,3.202,8.968,9.864
	c0,6.02-5.508,6.405-11.017,8.966c-5.508,2.562-11.144,4.997-11.144,12.297v28.309c0,6.148-3.843,10.25-9.225,10.25
	c-5.379,0-9.222-4.102-9.222-10.25V14.157z"/>
<path fill="#A7A9AC" d="M361.185,58.341c-0.075-0.19-0.253-0.455-0.394-0.587c-0.142-0.134-0.416-0.274-0.609-0.312
	c-0.191-0.039-7.846-0.002-17.009,0.083c-9.162,0.085-16.983,0.07-17.381-0.03c-0.397-0.103-0.963-0.427-1.256-0.722
	c-0.294-0.295-0.688-0.878-0.876-1.298c-0.188-0.42-0.399-1.149-0.469-1.622c-0.07-0.472-0.084-1.271-0.027-1.776
	c0.056-0.504,0.244-1.252,0.419-1.661c0.176-0.41,0.552-1.006,0.836-1.325c0.285-0.32,0.84-0.673,1.233-0.788
	c0.395-0.115,8.195-0.321,17.334-0.46c9.139-0.138,16.793-0.289,17.006-0.334c0.213-0.045,0.526-0.204,0.692-0.353
	c0.169-0.15,0.373-0.429,0.457-0.622s0.185-0.541,0.224-0.771s0.032-0.608-0.013-0.838c-0.046-0.23-0.157-0.575-0.247-0.766
	c-0.091-0.19-0.304-0.467-0.476-0.614c-0.171-0.147-0.487-0.296-0.702-0.331c-0.215-0.036-8.744,0.061-18.952,0.215l-1.084,0.017
	c-10.208,0.155-18.929,0.187-19.378,0.072c-0.449-0.115-1.074-0.452-1.39-0.748c-0.316-0.295-0.737-0.877-0.937-1.293
	c-0.198-0.417-0.418-1.145-0.49-1.62c-0.071-0.475-0.082-1.263-0.026-1.752c0.056-0.49,0.263-1.238,0.462-1.663
	c0.198-0.426,0.61-1.023,0.914-1.328c0.305-0.304,0.91-0.647,1.347-0.762c0.435-0.113,9.144-0.334,19.354-0.489l1.079-0.016
	c10.209-0.155,18.763-0.329,19.008-0.386c0.245-0.058,0.572-0.229,0.731-0.381c0.158-0.152,0.373-0.434,0.479-0.627
	s0.213-0.528,0.24-0.744c0.026-0.217,0.02-0.595-0.013-0.839c-0.034-0.244-0.152-0.598-0.264-0.785
	c-0.112-0.186-0.335-0.45-0.496-0.586c-0.162-0.136-0.497-0.289-0.742-0.339c-0.245-0.051-7.925,0.021-17.065,0.159
	s-16.954,0.17-17.362,0.069c-0.406-0.101-0.979-0.435-1.271-0.742s-0.684-0.89-0.872-1.294c-0.188-0.404-0.392-1.125-0.454-1.6
	c-0.062-0.476-0.064-1.276-0.01-1.78c0.056-0.504,0.245-1.251,0.421-1.661c0.176-0.41,0.552-1.004,0.834-1.32
	c0.285-0.317,0.838-0.67,1.231-0.787c0.395-0.116,8.195-0.325,17.338-0.463c9.142-0.139,16.811-0.3,17.045-0.357
	c0.232-0.058,0.553-0.218,0.713-0.354c0.157-0.138,0.347-0.408,0.42-0.6c0.072-0.193,0.147-0.539,0.163-0.771
	c0.017-0.232-0.009-0.597-0.057-0.812c-0.049-0.215-0.185-0.556-0.303-0.757s-0.358-0.477-0.532-0.612
	c-0.173-0.134-0.517-0.295-0.761-0.358c-0.247-0.062-8.785-0.625-18.975-1.255c0,0-24.419-1.505-27.958-0.905
	c-7.018,1.192-12.928,4.929-17.13,8.824c-2.491,2.31-15.242,11.768-25.784,11.409c-0.385-0.013-14.129,0.101-16.825,0.198
	c-8.614,0.306-20.357,0.718-28.031,2.546c-11.935,2.845-26.839,13.737-39.126,19.517c-9.398,4.416-13.167,3.879-15.164,3.879
	c-9.992,0-16.41-10.398-16.41-19.493c0-9.479,4.997-18.83,15.5-18.83c5.892,0,9.991,3.587,14.603,3.587
	c4.357,0,7.046-4.996,7.046-8.839c0-8.966-15.245-11.656-22.545-11.656c-19.471,0-33.049,17.037-33.049,35.738
	c0,19.214,13.204,36.099,33.049,35.482c8.119-0.25,15.342-1.854,19.791-4.003c10.225-4.933,13.202-7.851,20.803-12.691
	c4.903-3.122,9.21-6.046,13.855-7.831c6.741-2.594,10.227-3.243,14.707-3.806c12.57-1.58,22.092-1.292,24.879-1.484
	c2.789-0.192,11.607,0.48,12.828,0.591c8.938,0.813,17.06,6.078,20.636,9.644c2.95,2.946,9.787,8.272,16.976,9.28
	c3.915,0.548,28.104-1.715,28.104-1.715c10.166-0.951,18.656-1.766,18.867-1.809c0.212-0.045,0.505-0.207,0.651-0.359
	c0.15-0.152,0.365-0.434,0.48-0.623c0.114-0.191,0.229-0.514,0.258-0.718c0.028-0.204,0.048-0.537,0.045-0.741
	C361.326,58.853,361.262,58.531,361.185,58.341z"/>
<path fill="none" stroke="#A7A9AC" stroke-width="1.8565" d="M361.185,58.341c-0.075-0.19-0.253-0.455-0.394-0.587
	c-0.142-0.134-0.416-0.274-0.609-0.312c-0.191-0.039-7.846-0.002-17.009,0.083c-9.162,0.085-16.983,0.07-17.381-0.03
	c-0.397-0.103-0.963-0.427-1.256-0.722c-0.294-0.295-0.688-0.878-0.876-1.298c-0.188-0.42-0.399-1.149-0.469-1.622
	c-0.07-0.472-0.084-1.271-0.027-1.776c0.056-0.504,0.244-1.252,0.419-1.661c0.176-0.41,0.552-1.006,0.836-1.325
	c0.285-0.32,0.84-0.673,1.233-0.788c0.395-0.115,8.195-0.321,17.334-0.46c9.139-0.138,16.793-0.289,17.006-0.334
	c0.213-0.045,0.526-0.204,0.692-0.353c0.169-0.15,0.373-0.429,0.457-0.622s0.185-0.541,0.224-0.771s0.032-0.608-0.013-0.838
	c-0.046-0.23-0.157-0.575-0.247-0.766c-0.091-0.19-0.304-0.467-0.476-0.614c-0.171-0.147-0.487-0.296-0.702-0.331
	c-0.215-0.036-8.744,0.061-18.952,0.215l-1.084,0.017c-10.208,0.155-18.929,0.187-19.378,0.072c-0.449-0.115-1.074-0.452-1.39-0.748
	c-0.316-0.295-0.737-0.877-0.937-1.293c-0.198-0.417-0.418-1.145-0.49-1.62c-0.071-0.475-0.082-1.263-0.026-1.752
	c0.056-0.49,0.263-1.238,0.462-1.663c0.198-0.426,0.61-1.023,0.914-1.328c0.305-0.304,0.91-0.647,1.347-0.762
	c0.435-0.113,9.144-0.334,19.354-0.489l1.079-0.016c10.209-0.155,18.763-0.329,19.008-0.386c0.245-0.058,0.572-0.229,0.731-0.381
	c0.158-0.152,0.373-0.434,0.479-0.627s0.213-0.528,0.24-0.744c0.026-0.217,0.02-0.595-0.013-0.839
	c-0.034-0.244-0.152-0.598-0.264-0.785c-0.112-0.186-0.335-0.45-0.496-0.586c-0.162-0.136-0.497-0.289-0.742-0.339
	c-0.245-0.051-7.925,0.021-17.065,0.159s-16.954,0.17-17.362,0.069c-0.406-0.101-0.979-0.435-1.271-0.742s-0.684-0.89-0.872-1.294
	c-0.188-0.404-0.392-1.125-0.454-1.6c-0.062-0.476-0.064-1.276-0.01-1.78c0.056-0.504,0.245-1.251,0.421-1.661
	c0.176-0.41,0.552-1.004,0.834-1.32c0.285-0.317,0.838-0.67,1.231-0.787c0.395-0.116,8.195-0.325,17.338-0.463
	c9.142-0.139,16.811-0.3,17.045-0.357c0.232-0.058,0.553-0.218,0.713-0.354c0.157-0.138,0.347-0.408,0.42-0.6
	c0.072-0.193,0.147-0.539,0.163-0.771c0.017-0.232-0.009-0.597-0.057-0.812c-0.049-0.215-0.185-0.556-0.303-0.757
	s-0.358-0.477-0.532-0.612c-0.173-0.134-0.517-0.295-0.761-0.358c-0.247-0.062-8.785-0.625-18.975-1.255
	c0,0-24.419-1.505-27.958-0.905c-7.018,1.192-12.928,4.929-17.13,8.824c-2.491,2.31-15.242,11.768-25.784,11.409
	c-0.385-0.013-14.129,0.101-16.825,0.198c-8.614,0.306-20.357,0.718-28.031,2.546c-11.935,2.845-26.839,13.737-39.126,19.517
	c-9.398,4.416-13.167,3.879-15.164,3.879c-9.992,0-16.41-10.398-16.41-19.493c0-9.479,4.997-18.83,15.5-18.83
	c5.892,0,9.991,3.587,14.603,3.587c4.357,0,7.046-4.996,7.046-8.839c0-8.966-15.245-11.656-22.545-11.656
	c-19.471,0-33.049,17.037-33.049,35.738c0,19.214,13.204,36.099,33.049,35.482c8.119-0.25,15.342-1.854,19.791-4.003
	c10.225-4.933,13.202-7.851,20.803-12.691c4.903-3.122,9.21-6.046,13.855-7.831c6.741-2.594,10.227-3.243,14.707-3.806
	c12.57-1.58,22.092-1.292,24.879-1.484c2.789-0.192,11.607,0.48,12.828,0.591c8.938,0.813,17.06,6.078,20.636,9.644
	c2.95,2.946,9.787,8.272,16.976,9.28c3.915,0.548,28.104-1.715,28.104-1.715c10.166-0.951,18.656-1.766,18.867-1.809
	c0.212-0.045,0.505-0.207,0.651-0.359c0.15-0.152,0.365-0.434,0.48-0.623c0.114-0.191,0.229-0.514,0.258-0.718
	c0.028-0.204,0.048-0.537,0.045-0.741C361.326,58.853,361.262,58.531,361.185,58.341z"/>
<path fill="#A7A9AC" stroke="#A7A9AC" stroke-width="1.8565" d="M266.699,39.155c0,19.213-13.193,35.483-33.049,35.483
	S200.6,58.368,200.6,39.155c0-18.702,13.58-35.739,33.051-35.739S266.699,20.453,266.699,39.155 M219.047,39.155
	c0,8.839,4.609,18.576,14.604,18.576c9.99,0,14.602-9.737,14.602-18.576s-4.482-18.831-14.602-18.831S219.047,30.316,219.047,39.155
	z"/>
<path fill="#008B99" stroke="#58595B" stroke-width="1.8565" d="M66.642,59.59c0,4.738,0,12.04-8.839,12.04
	c-5.379,0-7.557-2.946-8.839-7.812c-4.739,5.634-10.503,8.582-17.548,8.582c-17.294,0-30.487-14.732-30.487-35.484
	c0-20.239,13.578-35.739,30.487-35.739c6.789,0,13.449,2.689,17.548,8.455c0.513-4.484,4.355-7.687,8.839-7.687
	c8.839,0,8.839,7.302,8.839,12.041V59.59 M33.977,55.492c9.607,0,14.219-9.737,14.219-18.575c0-8.838-4.483-18.831-14.219-18.831
	c-10.12,0-14.604,9.993-14.604,18.831C19.374,45.755,23.986,55.492,33.977,55.492z"/>
<path fill="#008B99" stroke="#58595B" stroke-width="1.8565" d="M89.468,11.669c0-6.149,4.867-9.223,9.479-9.223
	c4.868,0,8.967,1.793,8.967,7.687h0.256c3.458-5.125,7.174-7.687,12.938-7.687c4.483,0,8.967,3.203,8.967,9.864
	c0,6.02-5.509,6.405-11.016,8.966c-5.509,2.562-11.145,4.996-11.145,12.297v28.309c0,6.149-3.844,10.249-9.224,10.249
	c-5.38,0-9.223-4.1-9.223-10.249V11.669z"/>
<path fill="#FFE766" d="M357.692,55.852c-0.075-0.189-0.255-0.454-0.395-0.586c-0.142-0.133-0.415-0.273-0.608-0.312
	c-0.193-0.04-7.848-0.002-17.01,0.083c-9.161,0.085-16.98,0.071-17.378-0.029c-0.397-0.103-0.963-0.428-1.257-0.722
	c-0.295-0.294-0.689-0.879-0.877-1.299c-0.187-0.42-0.397-1.149-0.469-1.622c-0.07-0.472-0.083-1.271-0.027-1.775
	s0.245-1.252,0.421-1.662c0.175-0.409,0.551-1.005,0.834-1.325c0.285-0.319,0.84-0.672,1.235-0.787
	c0.394-0.114,8.193-0.321,17.333-0.46c9.139-0.139,16.793-0.289,17.007-0.334c0.213-0.046,0.524-0.204,0.692-0.354
	c0.165-0.149,0.372-0.428,0.455-0.621c0.086-0.193,0.186-0.539,0.224-0.771c0.037-0.232,0.032-0.608-0.013-0.838
	c-0.047-0.23-0.157-0.575-0.247-0.766c-0.09-0.19-0.305-0.467-0.475-0.614s-0.486-0.296-0.701-0.332
	c-0.217-0.035-8.745,0.062-18.954,0.216l-1.085,0.017c-10.209,0.155-18.93,0.187-19.378,0.071c-0.447-0.115-1.073-0.451-1.389-0.747
	s-0.737-0.877-0.935-1.293c-0.2-0.416-0.421-1.145-0.49-1.619c-0.072-0.475-0.084-1.264-0.029-1.753
	c0.058-0.49,0.266-1.238,0.462-1.664c0.201-0.425,0.61-1.022,0.915-1.327c0.303-0.303,0.909-0.646,1.345-0.761
	c0.437-0.114,9.147-0.335,19.356-0.49l1.081-0.016c10.209-0.155,18.762-0.329,19.007-0.387c0.245-0.058,0.573-0.229,0.73-0.38
	c0.159-0.152,0.374-0.434,0.479-0.627c0.107-0.193,0.215-0.528,0.241-0.745c0.026-0.216,0.02-0.594-0.013-0.838
	c-0.035-0.245-0.153-0.598-0.265-0.784c-0.111-0.187-0.333-0.451-0.496-0.587c-0.163-0.137-0.496-0.289-0.743-0.34
	c-0.247-0.051-7.926,0.021-17.064,0.16c-9.141,0.139-16.952,0.17-17.36,0.069c-0.41-0.101-0.981-0.435-1.273-0.742
	c-0.291-0.307-0.684-0.89-0.869-1.294c-0.19-0.404-0.395-1.125-0.455-1.6c-0.061-0.476-0.066-1.276-0.011-1.78
	c0.058-0.504,0.247-1.251,0.423-1.662c0.175-0.41,0.551-1.004,0.834-1.32c0.282-0.316,0.838-0.67,1.231-0.787
	c0.394-0.116,8.195-0.326,17.335-0.463c9.143-0.139,16.813-0.3,17.046-0.358c0.232-0.058,0.555-0.218,0.712-0.354
	c0.158-0.137,0.348-0.407,0.419-0.6c0.072-0.192,0.147-0.539,0.163-0.77c0.017-0.232-0.007-0.597-0.056-0.812
	c-0.046-0.215-0.183-0.555-0.301-0.756c-0.118-0.202-0.357-0.477-0.531-0.612s-0.518-0.296-0.763-0.358
	c-0.245-0.062-8.784-0.625-18.976-1.255c0,0-24.418-1.505-27.955-0.905c-7.02,1.192-12.931,4.929-17.132,8.824
	c-2.491,2.31-15.242,11.768-25.784,11.409c-0.385-0.013-14.13,0.101-16.823,0.197c-8.616,0.307-20.359,0.718-28.033,2.547
	c-11.933,2.845-26.839,13.737-39.128,19.517c-9.396,4.417-13.164,3.879-15.162,3.879c-9.992,0-16.411-10.398-16.411-19.493
	c0-9.479,4.996-18.83,15.5-18.83c5.893,0,9.992,3.587,14.603,3.587c4.356,0,7.044-4.996,7.044-8.839
	c0-8.966-15.242-11.656-22.544-11.656c-19.47,0-33.049,17.036-33.049,35.738c0,19.213,13.205,36.098,33.049,35.483
	c8.12-0.252,15.344-1.854,19.791-4.004c10.227-4.934,13.203-7.852,20.804-12.691c4.903-3.122,9.209-6.045,13.853-7.831
	c6.745-2.595,10.23-3.243,14.709-3.806c12.572-1.58,22.092-1.292,24.881-1.484c2.789-0.192,11.606,0.481,12.827,0.591
	c8.938,0.812,17.061,6.078,20.637,9.644c2.948,2.945,9.785,8.273,16.976,9.279c3.915,0.548,28.103-1.713,28.103-1.713
	c10.164-0.951,18.656-1.766,18.866-1.811c0.209-0.044,0.505-0.205,0.653-0.357c0.146-0.154,0.363-0.434,0.478-0.625
	c0.115-0.189,0.231-0.512,0.26-0.716s0.047-0.539,0.045-0.743S357.769,56.042,357.692,55.852z"/>
<path fill="none" stroke="#58595B" stroke-width="1.8565" d="M357.692,55.852c-0.075-0.189-0.255-0.454-0.395-0.586
	c-0.142-0.133-0.415-0.273-0.608-0.312c-0.193-0.04-7.848-0.002-17.01,0.083c-9.161,0.085-16.98,0.071-17.378-0.029
	c-0.397-0.103-0.963-0.428-1.257-0.722c-0.295-0.294-0.689-0.879-0.877-1.299c-0.187-0.42-0.397-1.149-0.469-1.622
	c-0.07-0.472-0.083-1.271-0.027-1.775s0.245-1.252,0.421-1.662c0.175-0.409,0.551-1.005,0.834-1.325
	c0.285-0.319,0.84-0.672,1.235-0.787c0.394-0.114,8.193-0.321,17.333-0.46c9.139-0.139,16.793-0.289,17.007-0.334
	c0.213-0.046,0.524-0.204,0.692-0.354c0.165-0.149,0.372-0.428,0.455-0.621c0.086-0.193,0.186-0.539,0.224-0.771
	c0.037-0.232,0.032-0.608-0.013-0.838c-0.047-0.23-0.157-0.575-0.247-0.766c-0.09-0.19-0.305-0.467-0.475-0.614
	s-0.486-0.296-0.701-0.332c-0.217-0.035-8.745,0.062-18.954,0.216l-1.085,0.017c-10.209,0.155-18.93,0.187-19.378,0.071
	c-0.447-0.115-1.073-0.451-1.389-0.747s-0.737-0.877-0.935-1.293c-0.2-0.416-0.421-1.145-0.49-1.619
	c-0.072-0.475-0.084-1.264-0.029-1.753c0.058-0.49,0.266-1.238,0.462-1.664c0.201-0.425,0.61-1.022,0.915-1.327
	c0.303-0.303,0.909-0.646,1.345-0.761c0.437-0.114,9.147-0.335,19.356-0.49l1.081-0.016c10.209-0.155,18.762-0.329,19.007-0.387
	c0.245-0.058,0.573-0.229,0.73-0.38c0.159-0.152,0.374-0.434,0.479-0.627c0.107-0.193,0.215-0.528,0.241-0.745
	c0.026-0.216,0.02-0.594-0.013-0.838c-0.035-0.245-0.153-0.598-0.265-0.784c-0.111-0.187-0.333-0.451-0.496-0.587
	c-0.163-0.137-0.496-0.289-0.743-0.34c-0.247-0.051-7.926,0.021-17.064,0.16c-9.141,0.139-16.952,0.17-17.36,0.069
	c-0.41-0.101-0.981-0.435-1.273-0.742c-0.291-0.307-0.684-0.89-0.869-1.294c-0.19-0.404-0.395-1.125-0.455-1.6
	c-0.061-0.476-0.066-1.276-0.011-1.78c0.058-0.504,0.247-1.251,0.423-1.662c0.175-0.41,0.551-1.004,0.834-1.32
	c0.282-0.316,0.838-0.67,1.231-0.787c0.394-0.116,8.195-0.326,17.335-0.463c9.143-0.139,16.813-0.3,17.046-0.358
	c0.232-0.058,0.555-0.218,0.712-0.354c0.158-0.137,0.348-0.407,0.419-0.6c0.072-0.192,0.147-0.539,0.163-0.77
	c0.017-0.232-0.007-0.597-0.056-0.812c-0.046-0.215-0.183-0.555-0.301-0.756c-0.118-0.202-0.357-0.477-0.531-0.612
	s-0.518-0.296-0.763-0.358c-0.245-0.062-8.784-0.625-18.976-1.255c0,0-24.418-1.505-27.955-0.905
	c-7.02,1.192-12.931,4.929-17.132,8.824c-2.491,2.31-15.242,11.768-25.784,11.409c-0.385-0.013-14.13,0.101-16.823,0.197
	c-8.616,0.307-20.359,0.718-28.033,2.547c-11.933,2.845-26.839,13.737-39.128,19.517c-9.396,4.417-13.164,3.879-15.162,3.879
	c-9.992,0-16.411-10.398-16.411-19.493c0-9.479,4.996-18.83,15.5-18.83c5.893,0,9.992,3.587,14.603,3.587
	c4.356,0,7.044-4.996,7.044-8.839c0-8.966-15.242-11.656-22.544-11.656c-19.47,0-33.049,17.036-33.049,35.738
	c0,19.213,13.205,36.098,33.049,35.483c8.12-0.252,15.344-1.854,19.791-4.004c10.227-4.934,13.203-7.852,20.804-12.691
	c4.903-3.122,9.209-6.045,13.853-7.831c6.745-2.595,10.23-3.243,14.709-3.806c12.572-1.58,22.092-1.292,24.881-1.484
	c2.789-0.192,11.606,0.481,12.827,0.591c8.938,0.812,17.061,6.078,20.637,9.644c2.948,2.945,9.785,8.273,16.976,9.279
	c3.915,0.548,28.103-1.713,28.103-1.713c10.164-0.951,18.656-1.766,18.866-1.811c0.209-0.044,0.505-0.205,0.653-0.357
	c0.146-0.154,0.363-0.434,0.478-0.625c0.115-0.189,0.231-0.512,0.26-0.716s0.047-0.539,0.045-0.743S357.769,56.042,357.692,55.852z"
	/>
<path fill="#008B99" stroke="#58595B" stroke-width="1.8565" d="M254.054,43.246c0.683-0.011,8.756-0.062,8.756-0.062
	c-2.796,15.987-15.277,28.966-32.651,28.966c-19.854,0-33.049-16.269-33.049-35.482c0-18.702,13.576-35.739,33.049-35.739
	c17.002,0,29.54,13.987,32.44,29.732l-18.619,0.452c-1.681-6.666-6.117-13.276-13.821-13.276c-10.118,0-14.604,9.992-14.604,18.831
	c0,8.838,4.611,18.574,14.604,18.574c7.029,0,12.087-5.721,14.06-11.655C244.218,43.586,253.372,43.257,254.054,43.246z"/>
<text transform="matrix(1.0245 0 0 1 0.2007 94.9233)" font-family="'VAGRounded-Thin'" font-size="22.8647">Azienda per la Ristorazione Collettiva</text>
<text transform="matrix(1 0 0 1 276.1494 73.7358)" font-family="'VAGRounded-Thin'" font-size="12.3226">S.r.l.</text>
<path fill="#A7A9AC" stroke="#A7A9AC" stroke-width="1.8565" d="M85.541,70.501c0,2.211-1.794,4.004-4.006,4.004
	c-2.212,0-4.006-1.793-4.006-4.004c0-2.215,1.794-4.008,4.006-4.008C83.747,66.494,85.541,68.287,85.541,70.501z"/>
<circle fill="#008B99" stroke="#58595B" stroke-width="1.8565" cx="79.031" cy="68.499" r="4.006"/>
<path fill="#A7A9AC" stroke="#A7A9AC" stroke-width="1.8565" d="M126.605,70.501c0,2.211-1.794,4.004-4.006,4.004
	c-2.212,0-4.007-1.793-4.007-4.004c0-2.215,1.794-4.008,4.007-4.008C124.811,66.494,126.605,68.287,126.605,70.501z"/>
<circle fill="#008B99" stroke="#58595B" stroke-width="1.8565" cx="120.094" cy="68.499" r="4.006"/>
<path fill="#A7A9AC" stroke="#A7A9AC" stroke-width="1.8565" d="M270.328,70.501c0,2.211-1.794,4.004-4.007,4.004
	c-2.212,0-4.006-1.793-4.006-4.004c0-2.215,1.794-4.008,4.006-4.008C268.534,66.494,270.328,68.287,270.328,70.501z"/>
<circle fill="#008B99" stroke="#58595B" stroke-width="1.8565" cx="263.819" cy="68.499" r="4.006"/>
</svg>
