<?xml version="1.0" encoding="utf-8"?>
<!-- Generator: Adobe Illustrator 16.0.0, SVG Export Plug-In . SVG Version: 6.00 Build 0)  -->
<!DOCTYPE svg PUBLIC "-//W3C//DTD SVG 1.1//EN" "http://www.w3.org/Graphics/SVG/1.1/DTD/svg11.dtd">
<svg version="1.1" id="Layer_1" xmlns="http://www.w3.org/2000/svg" xmlns:xlink="http://www.w3.org/1999/xlink" x="0px" y="0px"
	 width="167.236px" height="92.561px" viewBox="12.76 50.097 167.236 92.561" enable-background="new 12.76 50.097 167.236 92.561"
	 xml:space="preserve">
<g>
	<path stroke="#FFD272" stroke-width="2.8253" stroke-miterlimit="2.6131" d="M29.108,51.51h134.413
		c8.354,0,15.062,6.804,15.062,15.148v59.31c0,8.473-6.708,15.277-15.062,15.277H29.108c-8.227,0-14.935-6.805-14.935-15.277v-59.31
		C14.173,58.314,20.881,51.51,29.108,51.51L29.108,51.51z"/>
	<path fill="#FFD272" d="M60.117,80.78c0.632,0,1.012,0.257,1.265,0.771c0.253,0.513,0.38,0.898,0.506,1.54
		c0.38,2.311,0.506,5.007,0.506,7.317c0,2.696-0.126,6.033-0.38,7.188c-0.38,1.156-0.886,1.926-1.645,1.926
		c-0.633,0-1.266-0.643-1.519-1.412c-0.506-1.411-0.759-5.134-0.759-8.985c0-2.953,0.253-6.291,0.633-7.318
		C58.978,81.166,59.611,80.78,60.117,80.78L60.117,80.78z M60.243,76.544c-1.139,0-2.404,0.257-3.291,0.642
		c-2.025,0.898-3.923,2.824-4.936,5.52c-0.886,2.055-1.266,4.365-1.266,7.575c0,7.96,3.797,13.095,9.366,13.095
		c6.075,0,9.619-5.008,9.619-13.352c0-4.622-1.392-8.729-3.67-11.041c-1.519-1.669-3.164-2.311-5.695-2.439H60.243L60.243,76.544z"
		/>
	<path fill="#FFD272" d="M147.701,65.503v0.514l-0.761,4.236l-2.277,12.837c0,0,0,0.128,0.126,0.128
		c0.127,0,11.771-11.554,12.276-11.554c0.254,0,0.381,0.128,0.381,0.257c0,0.385-2.278,2.567-2.784,3.081
		c-0.507,0.514-1.267,1.155-1.897,1.797c-0.254,0.257-7.849,7.959-7.849,8.344c0,0.642,2.278,0.257,2.911,1.027v0.13h-0.633
		c-0.127,0-6.455-0.513-6.455-0.513c-0.381-0.514-1.139-1.284-1.646-1.669c-3.164-1.797-6.58-2.183-9.744-2.953l0.125-2.054
		c-0.379-0.385-0.759-0.128-0.759-0.514c0-0.257,0.759-0.898,0.759-1.668c0-0.128-0.125-0.642-0.125-0.642
		c0-0.642,0.76-0.899,1.012-0.899h1.014c0.126,0,1.139,0.129,1.139,0.129c0-0.129,0-0.257,0.127-0.386
		c-0.379-0.385-0.887-0.385-0.887-0.77c0-0.385,0.508-0.642,0.76-0.642h0.887c0.379,0,1.14,0.128,1.14,0.771
		c0,0.771-1.013,0.257-1.013,0.898c0,0.386,1.646,0.514,1.771,0.514c0.38,0.129,1.14,0.385,1.521,0.514
		c1.012,0.257,1.896,1.412,2.404,2.311c0.252,0.514,3.416,2.183,3.416,2.568c0,2.953-1.392,0.385-1.392,3.209
		c0,0.257,0.633,0.385,0.759,0.385h0.76c0,0,0.127-0.128,0.127-0.257c0.379-1.027,3.924-19.385,4.431-19.385
		C147.446,65.247,147.701,65.247,147.701,65.503L147.701,65.503z"/>
	<path fill="#FFD272" d="M139.601,69.355c0.887,2.567,3.164,9.5,3.164,9.885c0,0.128-0.252,0.385-0.507,0.385
		c-0.886,0-1.139-1.541-1.266-1.926c-0.253-1.412-2.531-9.243-2.531-9.885c0-0.128,0-0.385,0.38-0.385
		C139.094,67.429,139.474,68.97,139.601,69.355L139.601,69.355z"/>
	<path fill="#FFD272" d="M137.702,83.99c0.759,0.385,1.52,0.771,2.15,1.541c0,0,0,0.128-0.127,0.128
		c-0.633,0-1.897-0.385-2.404-0.514c-1.897-0.256-9.871-2.183-10.252-2.183h-0.379c0.127,0.771,0.887,0.899,1.519,1.027
		c1.646,0.128,8.354,1.797,9.112,1.797c0,0,2.531,0.385,2.658,0.385l3.67,0.385c0,0,4.305,0.257,4.305,0.385l5.188-0.128h2.658
		c-0.127,0.257,0-0.128,0,0.77c0,0.514-1.139,1.027-1.393,1.027l-1.771,0.128h-2.404c-0.127,0-6.201,0-6.201,0s-2.658,0-2.658-0.128
		c0,0-1.393,0-1.52,0c0,0-1.013-0.128-1.14-0.128c0,0-0.886,0-0.886-0.128c0,0-0.633,0-0.76,0c0,0-0.506-0.128-0.633-0.128h-0.633
		c0,0.128,0,0.128,0,0.257c0,0.514,1.266,0.642,1.393,0.642c0,0,0.633,0,0.633,0.128c0,0,0.76,0,0.886,0c0,0,1.013,0,1.013,0.128
		h1.772h2.784c0.127,0,4.557,0.128,4.557,0l2.658,0.128c0,0,1.771,0,1.771-0.128l0.885-0.128c0.128,0,0.508-0.128,0.634-0.128h0.127
		c-0.127,1.027-2.151,2.182-3.038,2.182c0,0-1.012,0-1.012,0.128l-11.012-0.128l-10-0.642c-0.125,0-2.403-0.257-2.656-0.77
		c-0.254-0.514-0.254-1.155-0.381-1.797c0-0.385-0.379-2.054-0.506-2.439c-0.127-0.898-0.506-1.926-0.887-2.824
		c-0.253-0.771-1.013-1.027-1.013-1.669c0-0.385,0.507-0.514,0.633-0.514C125.933,80.652,134.664,82.706,137.702,83.99
		L137.702,83.99z"/>
	<path d="M130.233,80.652l1.141,0.128c-0.127-0.128,0-1.669,0-1.797h-1.141C130.108,78.983,130.233,80.652,130.233,80.652
		L130.233,80.652z"/>
	<path d="M132.007,80.78c0.253,0.128,0.887,0.128,1.266,0.257c0.127-0.257,0.379-1.669,0.379-1.797l-1.645-0.128V80.78
		L132.007,80.78z"/>
	<path d="M133.903,81.294c0,0,0.888,0.385,1.394,0.385c0,0,0.38-1.668,0.38-1.797c0,0-0.886-0.385-1.393-0.385L133.903,81.294
		L133.903,81.294z"/>
	<path d="M137.194,82.449c-0.125,0,0.508-1.669,0.508-1.669s-1.266-0.642-1.52-0.642l-0.507,1.668
		C135.677,81.807,136.942,82.449,137.194,82.449L137.194,82.449z"/>
	<path fill="#5D99D2" d="M162.763,110.178c-2.785,2.568-12.404,10.398-21.264-5.264c-8.986-15.789-23.668,0-23.668,0
		s-12.783,15.276-22.782,0c-9.873-15.276-23.162,0-23.162,0s-12.277,14.894-22.782,0c-6.455-9.114-16.2-5.647-21.39,1.799
		c5.189-7.446,16.074-15.021,23.288-4.879c10.758,14.892,22.782,0,22.782,0s13.289-15.277,23.288,0c9.871,15.276,22.781,0,22.781,0
		s14.683-15.662,23.541,0c8.859,15.791,19.871,7.83,26.326-2.953C169.344,100.808,165.547,107.61,162.763,110.178L162.763,110.178z"
		/>
	<path fill="#5D99D2" d="M139.601,111.078c-8.859-15.663-23.541,0-23.541,0s-12.91,15.274-22.782,0c-9.999-15.278-23.289,0-23.289,0
		s-11.644,13.479-22.655-0.9c-2.531-3.338-8.354-10.141-13.542-4.877c1.139-2.567,8.1-7.317,15.441,2.824
		c10.631,14.765,22.782,0,22.782,0s13.289-15.277,23.162,0c9.999,15.274,22.908,0,22.908,0s14.682-15.791,23.541,0
		c8.859,15.662,17.721,7.574,24.934,0.256c1.772-1.797,3.545-6.291,3.924-8.344c0.634-3.98-0.506-7.318-2.783-9.244
		c-2.278-2.054-3.544-2.567-6.961-2.567c-4.051,0-6.708,2.567-4.178,5.648c0.506,0.514,2.404,1.284,2.785,1.926
		c-1.646-0.128-5.315-0.899-5.695-3.595c-0.508-3.594,3.164-6.162,7.847-6.162c7.595,0,10.505,6.676,10.379,12.966
		c-0.127,2.695-0.507,3.467-1.267,5.52C166.181,116.213,148.46,126.867,139.601,111.078L139.601,111.078z"/>
	<path fill="#5D99D2" d="M23.033,108.125c-0.76-13.48,22.655-21.568,29.996-11.555c10.631,14.893,22.782,0,22.782,0
		s13.29-15.276,23.163,0c9.998,15.277,22.907,0,22.907,0s14.683-15.662,23.542,0c8.859,15.791,18.73,6.162,23.034,2.055
		c0,0.385-2.531,3.853-4.05,5.392c-2.911,2.823-12.15,11.426-21.01-4.363c-8.859-15.663-23.541,0-23.541,0s-12.91,15.274-22.782,0
		c-9.999-15.277-23.162,0-23.162,0s-12.403,15.02-22.909,0c-11.771-16.818-34.046,7.188-22.275,13.479
		c2.531,1.283,16.327,2.439,11.264-4.365c-0.506-0.514-2.658-1.797-2.784-1.926c1.519,0.129,5.189,0.9,5.569,3.596
		c0.633,3.595-3.544,7.062-9.113,7.316C28.729,118.01,23.413,114.801,23.033,108.125L23.033,108.125z"/>
	<path fill="#FFD272" d="M33.032,79.753c1.266-1.284,1.772-1.669,2.784-2.439c1.139-0.898,2.405-1.283,3.417-1.283
		c1.898,0,2.911,1.155,2.911,3.337c0,1.541-0.633,2.953-2.658,5.392c-0.379,0.385-0.506,0.513-0.633,0.77l-6.961,8.858v3.852h16.96
		v-6.548c-0.506,0.128-1.139,0.257-1.772,0.257h-7.974l2.658-2.568c4.81-4.75,5.442-5.392,6.328-6.676
		c0.76-1.155,1.266-2.695,1.266-4.108c0-4.108-3.543-6.675-8.986-6.675c-1.013,0-2.278,0.128-3.67,0.257
		c-1.646,0.385-2.784,0.77-4.43,1.284L33.032,79.753L33.032,79.753z"/>
	<path fill="#FFD272" d="M69.989,75.517c0.127,0.128,0.127,0.257,0.127,0.77v0.514h-0.633v1.155h0.633v2.567
		c0,1.027,0.379,1.284,1.519,1.284c0.38,0,0.759,0,1.139-0.128v-1.027H72.52c0,0-0.126,0-0.253,0c-0.253,0-0.379-0.128-0.379-0.513
		v-2.183h0.886v-1.155h-0.886v-0.642c0-0.514,0-0.642-0.127-0.771L69.989,75.517L69.989,75.517z"/>
	<path fill="#FFD272" d="M73.406,80.267l-0.126,1.54h1.772v-0.256c0-0.514,0-0.899,0-1.284v-2.054
		c0.126-0.128,0.126-0.257,0.38-0.257c0.126,0,0.379,0.257,0.379,0.513v2.054l-0.126,1.284h1.772c0-0.513,0-0.898,0-1.54v-1.669
		c0-0.898-0.127-1.284-0.38-1.54c-0.253-0.257-0.506-0.385-0.886-0.385s-0.759,0.257-1.139,0.514v-1.669
		c0-0.257,0-0.386-0.126-0.642h-1.772c0.126,0.513,0.253,1.027,0.253,1.669v3.722H73.406z"/>
	<path fill="#E4EBF7" d="M45.055,68.2c-0.126-0.257-0.379-0.514-0.759-0.642c-0.253,0-0.633,0-1.139,0.385
		c-0.506,0.257-0.76,0.514-0.886,0.77c-0.126,0.385-0.126,0.642,0,0.898c0,0.128,0.253,0.128,0.38,0
		c0.253-0.128,0.253-0.256,0.253-0.385c-0.126-0.257-0.126-0.385,0-0.514c0-0.128,0.126-0.385,0.379-0.513
		c0.127-0.128,0.38-0.128,0.633-0.128c0.126,0.128,0.253,0.256,0.379,0.513l0.253,0.257l-0.506,0.385
		c-0.38,0.513-0.633,0.898-0.76,1.155c-0.253,0.513-0.253,0.898,0,1.284c0.127,0.257,0.38,0.385,0.633,0.385
		c0.379,0,0.632,0,0.886-0.257c0.506-0.257,0.759-0.642,0.886-1.027l0,0c0.253,0.128,0.506,0.128,0.886,0
		c0.126-0.257,0.38-0.385,0.38-0.514l-0.127-0.128L46.7,70.252c-0.253,0.128-0.38,0-0.633-0.385L45.055,68.2L45.055,68.2z
		 M45.435,70.51c0,0.257-0.126,0.513-0.506,0.771c-0.253,0.128-0.38,0.128-0.506,0.128c-0.253,0-0.38-0.128-0.506-0.385
		c-0.127-0.256-0.127-0.642,0-0.898c0.253-0.385,0.506-0.642,0.759-0.898L45.435,70.51L45.435,70.51z"/>
	<path fill="#E4EBF7" d="M51.13,65.503c-0.253-0.385-0.506-0.642-0.759-0.77s-0.506-0.128-0.886,0
		c-0.506,0.257-0.759,0.642-1.013,1.155l0,0l-0.253-0.514l-0.127-0.128c-0.253,0.385-0.632,0.642-0.886,0.899v0.128
		c0.506-0.128,0.506-0.128,0.759,0.385l0.633,1.926c0.253,0.514,0.253,0.642-0.253,0.771l0.126,0.256l1.646-0.642l-0.126-0.257
		c-0.38,0.128-0.38,0.128-0.506-0.385l-0.759-2.054c0.126-0.514,0.379-0.899,0.632-1.027c0.127-0.128,0.38-0.128,0.506,0
		c0.127,0.128,0.253,0.385,0.38,0.642l0.759,1.797c0.126,0.514,0.126,0.642-0.253,0.771l0.126,0.256l1.646-0.642l-0.126-0.257
		c-0.38,0.128-0.38,0-0.633-0.385L51.13,65.503L51.13,65.503z"/>
	<path fill="#E4EBF7" d="M56.826,64.22c-0.126-0.513-0.253-0.77-0.506-0.899c-0.253-0.256-0.506-0.256-0.886-0.128
		c-0.506,0-0.886,0.385-1.139,0.898l0,0l-0.127-0.642h-0.126c-0.379,0.257-0.759,0.514-1.139,0.642v0.257
		c0.506-0.128,0.506-0.128,0.633,0.385l0.379,2.054c0.126,0.514,0.126,0.642-0.379,0.642l0.126,0.257l1.646-0.257v-0.257
		c-0.38,0-0.38,0-0.506-0.514l-0.38-2.054c0.126-0.514,0.506-0.898,0.759-1.027c0.253,0,0.38,0,0.506,0.128s0.253,0.385,0.38,0.642
		l0.253,1.926c0.126,0.513,0.126,0.642-0.253,0.642l0.126,0.385l1.646-0.385l-0.127-0.257c-0.379,0-0.379,0-0.506-0.513
		L56.826,64.22L56.826,64.22z"/>
	<path fill="#E4EBF7" d="M59.864,60.882c-0.253,0-0.506,0.257-0.506,0.642c0,0.385,0.253,0.642,0.506,0.642
		c0.253,0,0.506-0.257,0.506-0.642C60.37,61.139,60.117,60.882,59.864,60.882L59.864,60.882L59.864,60.882z M60.37,62.551h-0.127
		c-0.379,0.257-0.759,0.385-1.266,0.385v0.257c0.506,0,0.506,0,0.506,0.514l0.127,2.054c0,0.642-0.127,0.642-0.633,0.642v0.257
		h2.025v-0.257c-0.506,0-0.633,0-0.633-0.642L60.37,62.551L60.37,62.551z"/>
	<path fill="#E4EBF7" d="M66.445,67.301l1.899-3.209c0.126-0.257,0.253-0.385,0.506-0.257v-0.256l-1.013-0.257l-0.126,0.257
		c0.379,0.128,0.379,0.128,0.253,0.385l-1.266,2.182l0,0l-0.38-2.311c0-0.385,0-0.514,0.38-0.385l0.126-0.385l-1.646-0.257
		l-0.126,0.257c0.253,0,0.38,0.128,0.38,0.642l0.633,3.466L66.445,67.301L66.445,67.301z"/>
	<path fill="#E4EBF7" d="M74.166,67.301c0.253-0.642,0.253-1.155,0.126-1.669c-0.126-0.385-0.506-0.77-1.012-0.898
		c-0.506-0.257-1.013-0.257-1.392,0c-0.506,0.128-0.886,0.642-1.14,1.155c-0.253,0.77-0.253,1.284-0.126,1.669
		c0.253,0.514,0.632,0.899,1.266,1.155c0.379,0.128,0.759,0.128,1.139,0.128c0.253-0.128,0.506-0.257,0.76-0.385L73.533,68.2
		c-0.126,0.128-0.379,0.257-0.633,0.257c-0.253,0.128-0.506,0-0.759,0c-0.38-0.129-0.633-0.514-0.759-0.899
		c0-0.385,0-0.771,0.253-1.284L74.166,67.301L74.166,67.301z M71.761,66.017c0.127-0.514,0.38-0.771,0.633-0.898
		c0.253-0.257,0.506-0.257,0.76-0.128c0.253,0.128,0.379,0.256,0.506,0.513c0,0.385,0,0.771-0.127,1.155L71.761,66.017
		L71.761,66.017z"/>
	<path fill="#E4EBF7" d="M78.089,67.686l0.253-0.514v-0.128c-0.506,0-0.886-0.128-1.266-0.257l-0.126,0.257
		c0.379,0.128,0.379,0.257,0.126,0.642l-1.013,1.797c-0.379,0.513-0.379,0.513-0.759,0.256l-0.126,0.257l1.646,1.027l0.126-0.256
		c-0.506-0.257-0.506-0.385-0.253-0.771l1.139-1.925c0.506-0.128,0.886-0.257,1.013-0.128c0.127,0.129,0.126,0.128,0.126,0.385
		c-0.126,0.257,0,0.385,0.126,0.514c0.127,0,0.38,0,0.506-0.257c0-0.128,0-0.257,0-0.385c0-0.257-0.126-0.385-0.253-0.514
		C78.975,67.558,78.595,67.558,78.089,67.686L78.089,67.686L78.089,67.686z"/>
	<path fill="#E4EBF7" d="M84.038,72.821c0.126-0.385,0.379-0.642,0.506-0.771c-0.253-0.385-0.379-0.642-0.759-0.899
		c-0.38-0.385-0.759-0.642-1.139-0.642c-0.253,0-0.633,0-0.759,0.257c-0.126,0.256-0.253,0.385-0.253,0.642
		c0,0.385,0.127,0.771,0.253,1.156c0.253,0.385,0.38,0.642,0.38,0.898s0,0.385-0.127,0.513c-0.126,0.128-0.253,0.128-0.506,0.128
		c-0.253,0-0.379-0.128-0.632-0.256c-0.506-0.385-0.633-0.899-0.253-1.541l-0.253-0.128c-0.127,0.257-0.38,0.514-0.506,0.771
		c0.126,0.385,0.379,0.771,0.886,1.155c0.38,0.385,0.759,0.642,1.139,0.642c0.38,0,0.76-0.128,0.886-0.385
		c0.253-0.128,0.379-0.513,0.253-0.77c0-0.257,0-0.514-0.126-0.77c-0.126-0.257-0.38-0.642-0.506-1.027c0-0.257,0-0.385,0.126-0.642
		c0.127-0.128,0.253-0.128,0.38-0.128c0.253,0.128,0.379,0.257,0.633,0.385c0.38,0.385,0.506,0.642,0.126,1.284L84.038,72.821
		L84.038,72.821z"/>
	<path fill="#E4EBF7" d="M88.088,77.828c0.253-0.257,0.506-0.514,0.506-0.77c0.126-0.385,0-0.771-0.38-1.284
		c-0.38-0.386-0.633-0.643-0.886-0.771c-0.38-0.128-0.633-0.128-0.886,0c-0.126,0.128-0.126,0.257,0,0.514
		c0.126,0.128,0.253,0.128,0.38,0.128c0.253-0.128,0.38-0.128,0.506,0c0.253,0,0.379,0,0.506,0.257
		c0.253,0.257,0.253,0.514,0.253,0.642c-0.126,0.128-0.253,0.385-0.506,0.514l-0.253,0.256l-0.38-0.385
		c-0.506-0.385-0.886-0.642-1.266-0.771c-0.38-0.257-0.759-0.128-1.139,0.128c-0.253,0.128-0.379,0.385-0.379,0.771
		c0,0.256,0.126,0.513,0.253,0.77c0.379,0.513,0.759,0.642,1.266,0.77l0,0c-0.253,0.257-0.253,0.514,0,0.899
		c0.253,0.128,0.379,0.385,0.506,0.385l0.253-0.128c-0.126-0.128-0.253-0.128-0.253-0.128c-0.127-0.257,0-0.385,0.253-0.642
		L88.088,77.828L88.088,77.828z M85.937,78.341c-0.38,0-0.633-0.128-0.886-0.385c-0.126-0.257-0.253-0.385-0.126-0.642
		c0-0.128,0.126-0.256,0.253-0.385c0.253-0.257,0.633-0.257,1.013-0.128c0.253,0.128,0.633,0.385,0.886,0.642L85.937,78.341
		L85.937,78.341z"/>
	<path fill="#E4EBF7" d="M90.746,80.652l0.506-0.257v-0.128c-0.38-0.257-0.633-0.514-0.886-0.899l-0.253,0.128
		c0.253,0.385,0.127,0.514-0.253,0.771l-1.772,0.898c-0.506,0.257-0.633,0.257-0.759-0.128l-0.253,0.128l0.886,1.669l0.253-0.129
		c-0.253-0.385-0.253-0.513,0.253-0.77l1.898-1.027c0.506,0.128,0.759,0.128,0.886,0.385c0.126,0.128,0,0.257-0.126,0.385
		C91,81.806,91,81.935,91,82.192c0.126,0.128,0.379,0.128,0.506,0c0.126,0,0.253-0.128,0.379-0.385c0-0.128,0-0.256-0.126-0.513
		C91.632,80.909,91.252,80.78,90.746,80.652L90.746,80.652L90.746,80.652z"/>
	<path fill="#E4EBF7" d="M90.113,87.841h-1.139c-0.38,0-0.886-0.129-1.013-0.386c0-0.257,0.126-0.257,0.253-0.385
		c0.126-0.128,0.253-0.257,0.126-0.514c0-0.128-0.126-0.257-0.379-0.128c-0.127,0-0.253,0.128-0.253,0.257
		c-0.126,0.257-0.126,0.513,0,0.77c0,0.257,0.253,0.386,0.506,0.514c0.253,0.128,0.506,0.257,0.886,0.257l4.556,0.257
		c0.38,0,0.506,0,0.506,0.257h0.253l-0.379-1.156h-0.253c0.126,0.385,0.126,0.514-0.127,0.385h-2.531l0,0l1.898-1.541
		c0.253-0.257,0.38-0.257,0.506,0.128h0.253l-0.506-1.668h-0.253c0.126,0.256,0.126,0.385-0.38,0.77L90.113,87.841L90.113,87.841z"
		/>
	<path fill="#FFFFFF" d="M91.885,107.61l1.139,3.595h3.544l-5.189-13.736h-4.303l-5.189,13.736h3.544l1.139-3.595H91.885
		L91.885,107.61z M91.252,105.687h-4.177l1.139-3.209c0.253-1.027,0.633-2.185,0.886-3.338h0.126
		c0.379,1.153,0.759,2.182,1.013,3.338L91.252,105.687L91.252,105.687z"/>
	<path fill="#FFFFFF" d="M112.896,100.422c-0.254-1.797-1.771-3.209-4.684-3.209c-1.646,0-2.911,0.515-3.671,1.154
		c-0.886,0.643-1.267,1.411-1.267,2.311c0,1.285,0.635,2.056,1.267,2.697c0.507,0.515,1.394,1.026,2.658,1.668
		c1.14,0.644,1.646,1.026,2.024,1.285c0.506,0.385,0.76,0.897,0.76,1.539c0,0.385-0.127,0.897-0.379,1.155
		c-0.381,0.256-0.761,0.642-1.521,0.642c-1.267,0-1.771-0.771-1.897-1.539h-3.164c0.252,1.926,1.771,3.338,5.062,3.338
		c2.024,0,3.291-0.644,4.051-1.285c0.886-0.77,1.14-1.797,1.14-2.694c0-1.154-0.506-1.926-1.14-2.568
		c-0.507-0.512-1.266-0.898-2.405-1.539c-1.139-0.643-1.646-0.898-2.276-1.285c-0.634-0.385-0.888-0.898-0.888-1.539
		c0-0.385,0.127-0.771,0.381-0.898c0.253-0.387,0.76-0.514,1.266-0.514c1.141,0,1.52,0.771,1.646,1.412L112.896,100.422
		L112.896,100.422z"/>
	<path fill="#FFFFFF" d="M130.36,108.252c-0.633-2.183-1.897-5.392-3.924-10.653h-4.936v13.606h3.037
		c0-5.647-0.127-9.5-0.127-11.554h0.127c0.633,2.054,2.15,5.904,4.304,11.554h3.037c2.278-5.777,3.671-9.5,4.431-11.554l0,0
		c0,2.054,0,5.904,0,11.554h2.91V97.469h-4.937C132.26,102.86,131.12,105.94,130.36,108.252L130.36,108.252L130.36,108.252z"/>
	<polygon fill="#FFFFFF" points="152.384,111.205 152.384,97.469 149.093,97.469 149.093,111.205 	"/>
</g>
</svg>
