<?xml version="1.0" encoding="utf-8"?>
<!-- Generator: Adobe Illustrator 16.0.0, SVG Export Plug-In . SVG Version: 6.00 Build 0)  -->
<!DOCTYPE svg PUBLIC "-//W3C//DTD SVG 1.1//EN" "http://www.w3.org/Graphics/SVG/1.1/DTD/svg11.dtd">
<svg version="1.1" id="Layer_1" xmlns="http://www.w3.org/2000/svg" xmlns:xlink="http://www.w3.org/1999/xlink" x="0px" y="0px"
	 width="175.75px" height="108px" viewBox="8.503 42.377 175.75 108" enable-background="new 8.503 42.377 175.75 108"
	 xml:space="preserve">
<g>
	<path fill="#8B0304" d="M18.825,94.794h34.996c0.042-2.529,0.666-4.976,2.031-7.279c6.573-11.092,16.252-21.577,29.681-31.328
		c5.374-3.902,11.543-4.125,17.422-0.935c13.937,7.56,24.853,16.984,33.269,27.952c2.618,3.415,3.465,7.379,3.096,11.589h34.66
		c8.16,0.003,10.303,3.738,10.272,10.287v23.731c0.029,5.945-1.254,10.293-10.287,10.287h0.002H18.837h0.001
		c-7.448,0.299-10.785-3.572-10.286-10.287l-0.008,0.064l0.008-23.797C8.684,97.276,11.697,94.798,18.825,94.794L18.825,94.794z"/>
	<path fill="#FFCB05" d="M61.274,94.389c24.691,0.122,49.382,0.245,74.073,0.368c0.359-9.205-7.277-17.589-20.115-27.615
		C101.49,56.408,90.82,53.465,77.019,67.146C67.148,76.93,57.747,85.308,61.274,94.389L61.274,94.389z"/>
	<path fill="#8B0304" d="M54.48,142.678c0.929,0,1.558,0.14,1.891,0.421c0.331,0.279,0.498,0.789,0.498,1.524
		c0,0.582-0.084,1.017-0.254,1.304c-0.17,0.287-0.452,0.482-0.85,0.58c0.453,0.094,0.761,0.252,0.923,0.48
		c0.165,0.229,0.247,0.668,0.247,1.316c0,0.041-0.001,0.104-0.007,0.188c-0.005,0.087-0.008,0.149-0.008,0.192
		c0,0.344,0.017,0.641,0.048,0.89c0.034,0.248,0.085,0.473,0.153,0.675h-1.649c-0.072-0.247-0.11-0.747-0.117-1.499
		c-0.004-0.258-0.007-0.455-0.011-0.596c-0.011-0.378-0.081-0.642-0.21-0.796c-0.131-0.153-0.349-0.23-0.654-0.23h-0.662v3.121
		h-1.586v-7.572L54.48,142.678L54.48,142.678z M53.818,145.948h0.391c0.424,0,0.72-0.081,0.887-0.242
		c0.167-0.16,0.249-0.441,0.249-0.842c0-0.387-0.075-0.649-0.226-0.791c-0.151-0.143-0.444-0.215-0.88-0.215h-0.42L53.818,145.948
		L53.818,145.948z M60.738,150.25v-7.572h4.092v1.171h-2.496v1.808h2.296v1.165h-2.296v2.207h2.589v1.223L60.738,150.25
		L60.738,150.25z M68.382,147.915h1.612v0.199c0,0.391,0.067,0.668,0.198,0.834c0.131,0.166,0.35,0.248,0.659,0.248
		c0.244,0,0.435-0.072,0.577-0.223c0.142-0.148,0.213-0.353,0.213-0.607c0-0.359-0.336-0.76-1.007-1.197l-0.096-0.061
		c-0.353-0.23-0.635-0.418-0.845-0.564s-0.366-0.27-0.47-0.365c-0.277-0.254-0.468-0.492-0.569-0.716
		c-0.104-0.226-0.154-0.502-0.154-0.829c0-0.635,0.217-1.139,0.65-1.516s1.015-0.564,1.748-0.564c0.757,0,1.326,0.176,1.707,0.523
		c0.382,0.35,0.573,0.867,0.573,1.557v0.199H71.61v-0.04c0-0.356-0.065-0.625-0.192-0.805c-0.128-0.181-0.321-0.271-0.577-0.271
		c-0.233,0-0.418,0.069-0.557,0.21c-0.139,0.142-0.208,0.332-0.208,0.57c0,0.408,0.438,0.872,1.314,1.394
		c0.226,0.137,0.401,0.243,0.524,0.321c0.497,0.316,0.841,0.617,1.036,0.906c0.193,0.289,0.289,0.635,0.289,1.035
		c0,0.735-0.216,1.291-0.646,1.663c-0.431,0.373-1.069,0.56-1.915,0.56c-0.794,0-1.376-0.178-1.747-0.53
		c-0.372-0.354-0.558-0.908-0.558-1.666c0-0.026,0.002-0.07,0.005-0.129C68.381,147.994,68.382,147.949,68.382,147.915
		L68.382,147.915z M78.171,150.25v-6.329h-1.725v-1.243h5.087v1.243h-1.734v6.329H78.171L78.171,150.25z M85.975,147.399h1.615
		l-0.785-3.279L85.975,147.399L85.975,147.399z M88.284,150.25l-0.405-1.685h-2.198l-0.402,1.685h-1.59l2.136-7.572h2.017
		l2.104,7.572H88.284L88.284,150.25z M98.487,142.678v4.743c0,1.061-0.198,1.82-0.602,2.273c-0.398,0.455-1.058,0.684-1.974,0.684
		c-0.884,0-1.534-0.223-1.953-0.668c-0.417-0.445-0.625-1.134-0.625-2.066v-4.966h1.575v4.554c0,0.867,0.074,1.416,0.221,1.648
		c0.148,0.232,0.414,0.35,0.801,0.35c0.374,0,0.632-0.131,0.778-0.392c0.146-0.26,0.218-0.796,0.218-1.606v-4.554H98.487
		L98.487,142.678z M104.681,142.678c0.93,0,1.557,0.14,1.891,0.421c0.332,0.279,0.498,0.789,0.498,1.524
		c0,0.582-0.084,1.017-0.254,1.304s-0.453,0.482-0.851,0.58c0.451,0.094,0.761,0.252,0.925,0.48
		c0.164,0.228,0.245,0.668,0.245,1.316c0,0.041-0.002,0.104-0.008,0.188c-0.004,0.087-0.008,0.149-0.008,0.192
		c0,0.344,0.019,0.641,0.049,0.89c0.033,0.248,0.084,0.473,0.151,0.675h-1.647c-0.071-0.247-0.11-0.747-0.116-1.499
		c-0.005-0.258-0.009-0.455-0.013-0.596c-0.01-0.378-0.08-0.642-0.209-0.796c-0.133-0.153-0.351-0.23-0.653-0.23h-0.662v3.121
		h-1.586v-7.572L104.681,142.678L104.681,142.678z M104.019,145.948h0.391c0.424,0,0.721-0.081,0.887-0.242
		c0.166-0.16,0.248-0.441,0.248-0.842c0-0.387-0.074-0.649-0.225-0.791c-0.15-0.143-0.443-0.215-0.881-0.215h-0.42V145.948
		L104.019,145.948z M112.651,147.399h1.617l-0.785-3.279L112.651,147.399L112.651,147.399z M114.963,150.25l-0.403-1.685h-2.197
		l-0.402,1.685h-1.592l2.137-7.572h2.018l2.105,7.572H114.963L114.963,150.25z M120.015,150.25v-7.572h2.125l1.446,3.933
		c0.17,0.459,0.324,0.906,0.455,1.344s0.242,0.865,0.336,1.286c-0.037-0.326-0.065-0.668-0.088-1.029
		c-0.021-0.362-0.029-0.752-0.029-1.168l-0.094-4.364h1.465v7.572h-2.075l-1.533-4.143c-0.113-0.312-0.234-0.687-0.363-1.121
		c-0.133-0.435-0.266-0.912-0.402-1.437c0.037,0.478,0.066,0.9,0.088,1.263c0.021,0.363,0.031,0.67,0.035,0.924l0.088,4.514
		L120.015,150.25L120.015,150.25z M130.772,150.25v-6.329h-1.725v-1.243h5.088v1.243h-1.736v6.329H130.772L130.772,150.25z
		 M137.479,150.25v-7.572h4.092v1.171h-2.496v1.808h2.297v1.165h-2.297v2.207h2.588v1.223L137.479,150.25L137.479,150.25z"/>
	<path fill="#8B0304" d="M76.677,109.235c11.772-6.205,18.066-16.745,30.145-23.917c13.339-8.84,26.169-18.502,40.015-26.521
		c7.336-4.247,8.812,0.237,0.692,8.755c-12.211,12.817-28.2,22.756-44.194,33.856c-4.315,2.996-9.664,5.719-15.97,7.553
		c-2.221,1.756-4.441,3.512-6.663,5.268C80.701,114.229,76.863,109.458,76.677,109.235L76.677,109.235z"/>
	<path fill="#8B0304" d="M88.435,99.817c5.525-7.353,11.05-14.703,16.578-22.055c2.891-3.388,1.524-11.343,3.375-13.321
		c5.364-7.265,10.668-14.578,16.1-21.795c0.371-0.494,0.795-0.256,0.449,0.306l-7.181,11.702c-1.299,2.114-2.596,4.23-3.896,6.344
		c-0.873,1.094,0.798,2.299,1.408,1.352l12.666-17.821c0.479-0.673,1.029-0.301,0.601,0.433
		c-3.646,6.234-7.658,12.248-11.488,18.372c-0.416,0.926,1.117,2.254,1.789,1.456l12.328-17.411c0.433-0.608,1.123-0.26,0.715,0.48
		c-3.451,6.271-7.522,12.178-11.285,18.267c-0.469,0.803,0.472,1.795,1.033,1.013l12.901-17.177c0.32-0.425,1.222-0.337,0.677,0.478
		l-14.69,21.968c-3.658,5.469-6.927,3.842-9.767,7.704c-2.877,3.915-11.511,15.659-17.266,23.487
		C91.8,102.339,90.118,101.077,88.435,99.817L88.435,99.817z"/>
	<path fill="#FFFFFF" d="M29.548,119.978c0,0.783-0.083,1.551-0.253,2.311c-0.408,1.743-1.172,2.958-2.303,3.646
		c-0.774,0.472-1.663,0.732-2.659,0.777c-0.315,0.02-0.47,0.246-0.47,0.678c0,0.176-0.041,0.312-0.124,0.396v-0.898l-0.103-0.07
		h-7.869v-22.113h8.441c1.704,0,2.969,0.613,3.8,1.839c0.661,0.969,0.997,2.205,0.997,3.706c0,2.366-0.847,3.917-2.54,4.666
		c0.129,0.115,0.289,0.195,0.479,0.236c0.939,0.164,1.637,0.834,2.091,1.998C29.378,118.003,29.548,118.942,29.548,119.978
		L29.548,119.978z M26.404,130.614l-0.15,0.275l-0.155-0.056l0.139-0.281L26.404,130.614L26.404,130.614z M23.926,128.45
		c0,0.451-0.057,0.833-0.17,1.148c0.072-0.244-0.01-0.507-0.243-0.783c0-0.045,0.057-0.119,0.17-0.222
		C23.792,128.5,23.874,128.45,23.926,128.45L23.926,128.45z M23.982,130.479l-0.119,1.028h-0.181l0.104-1.028H23.982L23.982,130.479
		z M23.59,130.715H23.3v-0.19h0.29V130.715L23.59,130.715z M23.879,131.935h-0.196v-0.274h0.196V131.935L23.879,131.935z
		 M23.967,132.526l-0.119,0.102l-0.149-0.16l0.104-0.121L23.967,132.526L23.967,132.526z M20.353,129.258h-0.181v-0.276h0.181
		V129.258L20.353,129.258z M20.353,132.583h-0.196v-0.719h0.196V132.583L20.353,132.583z M21.157,113.201
		c1.141,0,2.887,0.225,3.707-0.692c0.854-0.955,0.944-3.89-0.01-4.816c-0.847-0.823-2.573-0.612-3.696-0.612L21.157,113.201
		L21.157,113.201z M20.514,123.881c1.37,0,3.465,0.269,4.448-0.833c1.023-1.145,1.132-4.665-0.013-5.777
		c-1.016-0.989-3.087-0.735-4.436-0.735L20.514,123.881L20.514,123.881z M32.877,130.584l-0.135,0.412l-0.154-0.062l0.14-0.352
		L32.877,130.584L32.877,130.584z M41.412,126.787h-3.433c-0.067-0.382-0.175-0.944-0.315-1.679
		c-0.263,0.298-0.692,0.74-1.286,1.342c-0.222,0.188-0.594,0.361-1.116,0.527c-0.516,0.166-0.975,0.252-1.383,0.252
		c-0.078,0-0.243-0.035-0.496-0.111c-0.253-0.074-0.414-0.109-0.486-0.109c-0.341,0-0.589-0.035-0.743-0.105
		c-0.098,0.267-0.083,0.553,0.046,0.854c-0.01,0-0.062,0.125-0.149,0.371c0.01,0.457,0.031,1.13,0.062,2.015
		c-0.113,0.137-0.139,0.301-0.077,0.487l0.134,0.16h-0.62V127.2c-1.089-0.743-1.631-2.18-1.631-4.294
		c0-0.668,0.118-1.331,0.361-1.989c0.294-0.823,0.707-1.355,1.239-1.604c-0.026,0.629-0.005,1.086,0.078,1.367
		c-0.021-0.137,0.021-0.326,0.129-0.574c0.104-0.244,0.16-0.426,0.16-0.541c0-0.217-0.114-0.428-0.336-0.633
		c0.031,0,0.088-0.035,0.166-0.104c-0.026-0.091-0.042-0.171-0.042-0.252c0-0.412,0.491-0.823,1.481-1.235
		c1.725-0.723,2.644-1.119,2.768-1.189c0.986-0.558,1.482-1.211,1.482-1.959c0-0.948-0.671-1.426-2.013-1.426
		c-1.368,0-2.055,0.623-2.055,1.867c0,0.166,0.016,0.348,0.047,0.542c-0.243-0.014-0.646-0.004-1.214,0.046
		c-0.18,0.235-0.34,0.612-0.479,1.137v-0.442c-0.434-0.11-0.94-0.104-1.513,0.015c-0.176-0.166-0.258-0.326-0.258-0.473
		c0-1.34,0.232-2.365,0.696-3.059c0.289-0.246,0.661-0.644,1.115-1.194c0.011-0.177,0.062-0.412,0.155-0.703
		c0.965-0.462,2.282-0.694,3.944-0.694c1.859,0,3.269,0.442,4.239,1.326c0.34,0.312,0.599,0.693,0.77,1.131
		c0.243,0.658,0.361,1.12,0.361,1.387v11.651c0,0.091,0.036,0.11,0.109,0.065c0.072-0.045,0.103-0.021,0.103,0.064V126.787
		L41.412,126.787z M31.824,113.81c-0.093-0.039-0.155-0.23-0.196-0.572v1.045c0.01-0.061,0.046-0.146,0.113-0.251
		C31.809,113.92,31.834,113.851,31.824,113.81L31.824,113.81z M32.356,114.573H32.17l-0.134,0.486h0.181L32.356,114.573
		L32.356,114.573z M31.308,114.914v-0.175h-0.393v0.175H31.308L31.308,114.914z M32.34,121.991l-0.154-0.061l-0.135,0.28
		l0.149,0.062L32.34,121.991L32.34,121.991z M32.232,123.302v-0.387h-0.181v0.387H32.232L32.232,123.302z M32.882,124.935
		l-0.166-0.16l-0.108,0.101l0.155,0.16L32.882,124.935L32.882,124.935z M32.232,124.567v-0.387h-0.181v0.387H32.232L32.232,124.567z
		 M32.232,125.833v-0.593h-0.181v0.593H32.232L32.232,125.833z M32.459,129.319h-0.196v-0.604h0.196V129.319L32.459,129.319z
		 M32.459,130.685h-0.196v-0.588h0.196V130.685L32.459,130.685z M32.459,133.216h-0.196v-0.275h0.196V133.216L32.459,133.216z
		 M32.459,134.274h-0.196v-0.603h0.196V134.274L32.459,134.274z M32.459,135.44h-0.196v-0.388h0.196V135.44L32.459,135.44z
		 M32.459,138.499h-0.196v-0.486h0.196V138.499L32.459,138.499z M37.819,117.799c-1.523,0.743-2.554,1.413-3.093,1.999
		c-0.541,0.59-0.811,1.285-0.811,2.09c0,0.758,0.146,1.314,0.434,1.672c0.286,0.355,0.738,0.537,1.353,0.537
		c0.708,0,1.232-0.302,1.585-0.898c0.354-0.6,0.532-1.496,0.532-2.691V117.799L37.819,117.799z M45.915,107.146h-0.181v-0.281h0.181
		V107.146L45.915,107.146z M45.915,108.204h-0.196v-0.708h0.196V108.204L45.915,108.204z M45.915,109.364h-0.181v-0.383h0.181
		V109.364L45.915,109.364z M45.915,112.528h-0.196v-0.709h0.196V112.528L45.915,112.528z M45.915,113.383h-0.181v-0.297h0.181
		V113.383L45.915,113.383z M45.822,113.497c0,1.23-0.036,2.105-0.119,2.637c0-0.215-0.042-0.406-0.129-0.566
		c-0.088-0.16-0.129-0.23-0.129-0.211C45.445,115.366,45.574,114.748,45.822,113.497L45.822,113.497z M45.915,119.565l-0.134,0.274
		l-0.155-0.06l0.139-0.276L45.915,119.565L45.915,119.565z M45.822,120.856c-0.139,0.05-0.217,0.149-0.227,0.295v-0.572
		C45.771,120.716,45.843,120.812,45.822,120.856L45.822,120.856z M45.812,121.563l-0.155,0.297l-0.149-0.075l0.134-0.267
		L45.812,121.563L45.812,121.563z M45.719,124.903c-0.042,0.041-0.083,0.104-0.124,0.205v-1.325c0.01,0.04,0.057,0.142,0.129,0.302
		c0.077,0.166,0.113,0.303,0.113,0.422C45.837,124.644,45.801,124.778,45.719,124.903L45.719,124.903z M45.61,127.274
		c0.031,0.382,0.062,0.764,0.093,1.145c0.021,0.453-0.052,0.824-0.212,1.12c-0.041-1.13-0.005-2.146,0.104-3.048
		C45.605,126.501,45.61,126.763,45.61,127.274L45.61,127.274z M45.704,130.79h-0.181l-0.124-0.914h0.196L45.704,130.79
		L45.704,130.79z M45.704,131.774l-0.119,2.074h-0.186l0.108-2.074H45.704L45.704,131.774z M45.704,133.999l-0.119,1.869h-0.186
		l0.108-1.869H45.704L45.704,133.999z M45.704,138.751l-0.119,0.486h-0.202l0.14-0.486H45.704L45.704,138.751z M46.008,126.757
		h-3.903v-22.174c0.867,0.105,2.168,0.105,3.903,0V126.757L46.008,126.757z M63.588,107.176h-0.181v-0.28h0.181V107.176
		L63.588,107.176z M63.588,108.235h-0.196v-0.709h0.196V108.235L63.588,108.235z M63.588,109.396h-0.181v-0.381h0.181V109.396
		L63.588,109.396z M63.588,112.56h-0.196v-0.707h0.196V112.56L63.588,112.56z M63.588,113.413h-0.181v-0.295h0.181V113.413
		L63.588,113.413z M63.495,113.528c0,1.23-0.036,2.104-0.119,2.638c0-0.216-0.042-0.407-0.129-0.567s-0.129-0.23-0.129-0.211
		C63.118,115.397,63.247,114.78,63.495,113.528L63.495,113.528z M63.588,119.597l-0.134,0.275l-0.155-0.061l0.14-0.275
		L63.588,119.597L63.588,119.597z M63.495,120.888c-0.139,0.051-0.217,0.15-0.227,0.297v-0.574
		C63.443,120.747,63.516,120.842,63.495,120.888L63.495,120.888z M63.485,121.595l-0.155,0.297l-0.15-0.074l0.134-0.267
		L63.485,121.595L63.485,121.595z M63.392,124.935c-0.042,0.041-0.083,0.105-0.124,0.207v-1.326c0.01,0.041,0.057,0.142,0.129,0.302
		c0.077,0.166,0.113,0.302,0.113,0.423C63.51,124.674,63.474,124.81,63.392,124.935L63.392,124.935z M63.283,127.306
		c0.031,0.383,0.062,0.764,0.093,1.146c0.021,0.452-0.052,0.823-0.212,1.121c-0.041-1.132-0.005-2.146,0.104-3.05
		C63.278,126.532,63.283,126.794,63.283,127.306L63.283,127.306z M63.376,130.821h-0.181l-0.124-0.914h0.196L63.376,130.821
		L63.376,130.821z M63.376,131.806l-0.119,2.074h-0.186l0.108-2.074H63.376L63.376,131.806z M63.376,134.03l-0.119,1.869h-0.186
		l0.108-1.869H63.376L63.376,134.03z M63.376,138.782l-0.119,0.486h-0.201l0.139-0.486H63.376L63.376,138.782z M67.512,100.803
		H67.31v-0.497h0.202V100.803L67.512,100.803z M67.512,101.763H67.31v-0.297h0.202V101.763L67.512,101.763z M67.512,101.894
		l-0.124,1.027h-0.18l0.103-1.027H67.512L67.512,101.894z M67.434,103.058c0,0.629-0.046,1.12-0.134,1.481
		c0-0.216-0.092-0.481-0.273-0.81C67.027,103.534,67.161,103.31,67.434,103.058L67.434,103.058z M67.512,107.983l-0.155,0.281
		l-0.149-0.06l0.134-0.281L67.512,107.983L67.512,107.983z M75.979,118.24c0,1.638-0.119,3.284-0.362,4.942
		c-0.201,1.396-0.851,2.465-1.951,3.209c-0.656,0.441-1.905,0.662-3.753,0.662h-1.389c-0.072,0-0.454-0.115-1.151-0.342
		l-0.088-9.222c-0.031,0.106-0.104,0.286-0.212,0.543c0-1.4,0.037-2.431,0.119-3.089c0,0.074,0.03,0.15,0.093,0.222
		c0.108-0.618,0.113-1.222,0.015-1.813c-0.072,0.041-0.108,0.096-0.108,0.166v-1.387c0,0.11,0.036,0.196,0.108,0.268
		c0.078-0.137,0.037-0.357-0.124-0.664c0.124-0.09,0.165-0.307,0.134-0.662c0-0.03,0.016-0.135,0.047-0.321
		c0.031-0.187,0.036-0.326,0.016-0.411c-0.031-0.141-0.104-0.207-0.227-0.207c0.124-0.141,0.32-0.291,0.588-0.457
		c0.919-0.166,1.812-0.25,2.68-0.25c0.434,0,1.063,0.109,1.89,0.326c0.888,0.23,1.445,0.461,1.667,0.688
		c0.754,0.77,1.193,1.361,1.311,1.783C75.747,113.78,75.979,115.79,75.979,118.24L75.979,118.24z M67.3,119.284h-0.202l-0.103-0.928
		h0.181L67.3,119.284L67.3,119.284z M66.902,126.2c-1.59-0.512-2.617-1.717-3.067-3.62c-0.201-0.845-0.305-2.396-0.305-4.661
		c0-0.16,0-0.428,0-0.812c-0.01-0.393-0.015-0.698-0.015-0.926c0-3.797,1.001-6.117,3.01-6.961h0.377V126.2L66.902,126.2z
		 M67.285,120.271l-0.108,2.088H66.98l0.118-2.088H67.285L67.285,120.271z M67.285,122.509l-0.108,1.885H66.98l0.118-1.885H67.285
		L67.285,122.509z M67.176,128.099h-0.181v-0.809h0.181V128.099L67.176,128.099z M67.512,113.339v-0.291H67.31v0.291H67.512
		L67.512,113.339z M67.403,116.091v-0.809h-0.196v0.809H67.403L67.403,116.091z M67.403,116.844v-0.28h-0.196v0.28H67.403
		L67.403,116.844z M68.309,118.144v0.396c0,2.643,0.134,4.254,0.408,4.842c0.274,0.587,0.795,0.883,1.575,0.883
		c0.806,0,1.348-0.274,1.632-0.832c0.284-0.554,0.423-1.99,0.423-4.314v-0.693v-0.969c0-2.23-0.145-3.626-0.429-4.204
		c-0.289-0.571-0.821-0.858-1.595-0.858c-0.77,0-1.296,0.262-1.585,0.789c-0.283,0.521-0.428,1.787-0.428,3.786L68.309,118.144
		L68.309,118.144z M57.994,126.787h-3.433c-0.067-0.382-0.176-0.944-0.315-1.679c-0.263,0.298-0.692,0.74-1.286,1.342
		c-0.222,0.188-0.593,0.361-1.115,0.527c-0.516,0.166-0.976,0.252-1.383,0.252c-0.078,0-0.243-0.035-0.496-0.111
		c-0.253-0.074-0.414-0.109-0.485-0.109c-0.341,0-0.589-0.035-0.744-0.105c-0.098,0.267-0.083,0.553,0.047,0.854
		c-0.011,0-0.062,0.125-0.15,0.371c0.01,0.457,0.031,1.13,0.062,2.015c-0.113,0.137-0.139,0.301-0.078,0.487l0.135,0.16h-0.62V127.2
		c-1.089-0.743-1.631-2.18-1.631-4.294c0-0.668,0.119-1.331,0.361-1.989c0.294-0.823,0.707-1.355,1.239-1.604
		c-0.026,0.629-0.005,1.086,0.077,1.367c-0.021-0.137,0.021-0.326,0.129-0.574c0.104-0.244,0.16-0.426,0.16-0.541
		c0-0.217-0.114-0.428-0.336-0.633c0.031,0,0.088-0.035,0.166-0.104c-0.025-0.091-0.042-0.171-0.042-0.252
		c0-0.412,0.491-0.823,1.482-1.235c1.725-0.723,2.644-1.119,2.768-1.189c0.986-0.558,1.482-1.211,1.482-1.959
		c0-0.948-0.671-1.426-2.014-1.426c-1.368,0-2.055,0.623-2.055,1.867c0,0.166,0.016,0.348,0.047,0.542
		c-0.243-0.014-0.646-0.004-1.213,0.046c-0.181,0.235-0.341,0.612-0.48,1.137v-0.442c-0.434-0.11-0.94-0.104-1.513,0.015
		c-0.176-0.166-0.258-0.326-0.258-0.473c0-1.34,0.232-2.365,0.696-3.059c0.29-0.246,0.661-0.644,1.115-1.194
		c0.011-0.177,0.062-0.412,0.155-0.703c0.965-0.462,2.282-0.694,3.944-0.694c1.859,0,3.269,0.442,4.239,1.326
		c0.34,0.312,0.599,0.693,0.769,1.131c0.243,0.658,0.361,1.12,0.361,1.387v11.651c0,0.091,0.037,0.11,0.109,0.065
		c0.072-0.045,0.103-0.021,0.103,0.064L57.994,126.787L57.994,126.787z M55.299,107.671l-0.135,0.488h-0.18l0.134-0.488H55.299
		L55.299,107.671z M55.299,112.032l-0.119,0.602h-0.196l0.119-0.602H55.299L55.299,112.032z M55.289,116.44h-0.186v-1.129h0.186
		V116.44L55.289,116.44z M55.33,117.942c-0.056-0.01-0.154-0.055-0.284-0.146c0.17-0.176,0.264-0.321,0.284-0.428V117.942
		L55.33,117.942z M51.913,130.685h-0.197v-0.496h0.197V130.685L51.913,130.685z M48.406,113.81c-0.093-0.039-0.155-0.23-0.196-0.572
		v1.045c0.01-0.061,0.046-0.146,0.114-0.251C48.391,113.92,48.417,113.851,48.406,113.81L48.406,113.81z M48.938,114.573h-0.186
		l-0.135,0.486h0.181L48.938,114.573L48.938,114.573z M47.89,114.914v-0.175h-0.392v0.175H47.89L47.89,114.914z M48.922,121.991
		l-0.154-0.061l-0.135,0.28l0.15,0.062L48.922,121.991L48.922,121.991z M48.814,123.302v-0.387h-0.181v0.387H48.814L48.814,123.302z
		 M49.464,124.935l-0.165-0.16l-0.108,0.101l0.155,0.16L49.464,124.935L49.464,124.935z M48.814,124.567v-0.387h-0.181v0.387H48.814
		L48.814,124.567z M48.814,125.833v-0.593h-0.181v0.593H48.814L48.814,125.833z M49.041,129.319h-0.196v-0.604h0.196V129.319
		L49.041,129.319z M49.041,130.685h-0.196v-0.588h0.196V130.685L49.041,130.685z M49.041,133.216h-0.196v-0.275h0.196V133.216
		L49.041,133.216z M49.041,134.274h-0.196v-0.603h0.196V134.274L49.041,134.274z M49.041,135.44h-0.196v-0.388h0.196V135.44
		L49.041,135.44z M49.041,138.499h-0.196v-0.486h0.196V138.499L49.041,138.499z M53.225,118.635
		c-1.523,0.743-2.556,1.411-3.092,1.999c-0.542,0.588-0.811,1.286-0.811,2.09c0,0.758,0.144,1.315,0.433,1.672
		c0.284,0.357,0.739,0.537,1.354,0.537c0.707,0,1.233-0.301,1.585-0.897c0.356-0.599,0.531-1.497,0.531-2.692V118.635
		L53.225,118.635z M59.9,95.419c0.165,1.02,0.119,1.787-0.134,2.295c-0.031-1.155,0.005-2.185,0.109-3.089
		C59.875,94.821,59.885,95.087,59.9,95.419L59.9,95.419z M59.993,98.979h-0.196l-0.108-0.931h0.186L59.993,98.979L59.993,98.979z
		 M59.993,99.964l-0.119,2.104h-0.196l0.119-2.104H59.993L59.993,99.964z M59.993,102.204l-0.119,1.883h-0.196l0.119-1.883H59.993
		L59.993,102.204z M62.672,108.251c-0.01,0-1.332,0-3.965,0v-3.432c2.453-0.06,3.774-0.06,3.965,0V108.251L62.672,108.251z
		 M62.729,126.743h-3.98c0.124-0.08,0.196-0.217,0.217-0.412c0.021-0.135,0.01-0.331-0.031-0.588
		c-0.041-0.256-0.062-0.416-0.062-0.486v-0.748c0-0.102-0.021-0.297-0.062-0.598c-0.042-0.297-0.062-0.492-0.062-0.583v-13.14
		c0.01,0,1.337,0,3.98,0V126.743L62.729,126.743z M86.555,98.377c0,0.698-0.031,1.22-0.104,1.571c-0.041,0-0.108,0.021-0.206,0.056
		c-0.093,0.03-0.16,0.05-0.202,0.05c0.042-0.326,0.046-0.537,0.016-0.633l-0.455,0.102c0.042-0.125-0.036-0.312-0.227-0.559
		c0-0.029,0.041-0.09,0.119-0.186c0.083-0.09,0.124-0.15,0.124-0.182c-0.041,0,0.078,0.137,0.361,0.412
		c0.052-0.091,0.14-0.216,0.274-0.382c-0.145-0.131-0.212-0.246-0.212-0.356c0.051,0,0.139,0.07,0.273,0.207L86.555,98.377
		L86.555,98.377z M86.116,101.069h-0.284v-0.191h0.284V101.069L86.116,101.069z M86.571,101.952
		c-0.129,0.076-0.294,0.191-0.496,0.337c0-0.206-0.052-0.401-0.155-0.588c0.145-0.08,0.315-0.195,0.516-0.351
		c0,0.02,0.021,0.09,0.067,0.221C86.55,101.696,86.571,101.822,86.571,101.952L86.571,101.952z M85.683,102.289
		c-0.103-0.085-0.238-0.13-0.414-0.13c0.114-0.121,0.202-0.176,0.274-0.176C85.636,101.983,85.683,102.083,85.683,102.289
		L85.683,102.289z M86.013,102.776l-0.501-0.131v-0.182l0.501,0.12V102.776L86.013,102.776z M86.571,103.761
		c-0.15,0.146-0.248,0.221-0.3,0.221c0-0.135-0.077-0.205-0.227-0.205v-0.352c-0.01-0.166,0.037-0.332,0.134-0.488
		c0.104,0.082,0.232,0.196,0.393,0.353V103.761L86.571,103.761z M86.317,105.806c-0.196-0.187-0.289-0.307-0.289-0.367
		c0-0.146,0.087-0.307,0.273-0.486C86.462,105.103,86.467,105.384,86.317,105.806L86.317,105.806z M94.754,126.817H90.85
		c0.134-0.09,0.176-0.159,0.125-0.221c-0.021-0.125-0.031-0.521-0.031-1.189c0-0.131-0.026-0.217-0.078-0.266
		c-0.046,0-0.124,0.06-0.227,0.176c-0.036,0.658-0.48,1.185-1.327,1.576c-0.687,0.321-1.414,0.481-2.179,0.481
		c-0.263,0-0.805-0.149-1.636-0.457c0.124-0.949,0.113-1.793-0.031-2.524c-0.068,0.045-0.104,1.104-0.104,3.174
		c-0.785-0.207-1.395-1.15-1.817-2.838c-0.31-1.217-0.465-2.381-0.465-3.486v-6.137c0-0.599,0.201-1.366,0.604-2.295
		c0.486-1.142,1.043-1.773,1.679-1.898c-0.062,0.472-0.021,0.895,0.118,1.266c0.145-0.617,0.15-1.361,0.016-2.221h0.439
		c0-0.01,0.021-0.061,0.057-0.15c0.031-0.086,0.051-0.195,0.051-0.32l-0.289-0.282c-0.072,0.071-0.052,0.162,0.062,0.282
		l-0.196,0.06c0.021-0.411-0.062-0.752-0.242-1.019c0-0.036,0.051-0.041,0.149-0.016c0.15,0.039,0.258,0.061,0.32,0.061
		c0.088-0.217,0.01-0.442-0.243-0.678v-0.383c0.042,0,0.098,0.021,0.176,0.051c0.072,0.035,0.129,0.056,0.17,0.056
		c0.042-0.412,0.124-0.984,0.243-1.708c0.351,0.548,0.531,1.021,0.531,1.411c0,0.186-0.051,0.401-0.154,0.644
		c-0.098,0.235-0.15,0.411-0.15,0.521c0,0.177,0.072,0.367,0.211,0.572c0.062,0.075,0.078,0.222,0.047,0.428
		c-0.15,0.039-0.228,0.091-0.228,0.16c0.764,0.08,1.529,0.155,2.282,0.235c0.868,0.226,1.544,0.778,2.029,1.663v-6.945
		c2.168-0.07,3.5-0.07,3.991,0L94.754,126.817L94.754,126.817z M86.287,128.159l-0.14,0.275l-0.149-0.055l0.134-0.267
		L86.287,128.159L86.287,128.159z M86.24,128.558c0,0.039-0.026,0.125-0.067,0.256c-0.046,0.129-0.067,0.215-0.067,0.256
		c-0.021-0.051-0.083-0.137-0.186-0.268C86.095,128.637,86.199,128.558,86.24,128.558L86.24,128.558z M86.302,129.938l-0.14,0.502
		h-0.181l0.134-0.502H86.302L86.302,129.938z M85.652,130.144l-0.14,0.502h-0.181l0.124-0.502H85.652L85.652,130.144z
		 M85.966,109.074v-0.382H85.77v0.382H85.966L85.966,109.074z M85.636,115.769l-0.108-1.973h-0.196l0.124,1.973H85.636
		L85.636,115.769z M85.574,121.3v-5.18h-0.181v5.18H85.574L85.574,121.3z M85.636,121.329h-0.181l-0.124,1.662h0.196L85.636,121.329
		L85.636,121.329z M85.528,123.745v-0.502h-0.196v0.502H85.528L85.528,123.745z M85.636,123.89h-0.17l-0.119,0.354l0.15,0.06
		L85.636,123.89L85.636,123.89z M86.85,118.388c0,2.631,0.129,4.282,0.392,4.961c0.264,0.678,0.754,1.016,1.466,1.016
		c0.811,0,1.358-0.303,1.658-0.905c0.299-0.603,0.444-1.843,0.444-3.716c0-3.014-0.145-4.893-0.444-5.637
		c-0.3-0.748-0.847-1.119-1.658-1.119c-0.702,0-1.192,0.32-1.456,0.965C86.984,114.595,86.85,116.071,86.85,118.388L86.85,118.388z
		 M101.379,108.913h-0.183v-0.4h0.183V108.913L101.379,108.913z M107.354,121.358c0,0.195-0.054,0.607-0.15,1.235
		c-0.125,0.738-0.232,1.19-0.336,1.371c-0.434,0.703-0.713,1.15-0.848,1.336c-0.371,0.492-0.773,0.828-1.207,1.015
		c-1.039,0.453-2.039,0.679-2.994,0.679h-0.58c-0.654,0-1.393-0.136-2.219-0.411c-0.89-0.287-1.492-0.623-1.818-1.016V110.44
		c0.971-0.793,2.387-1.19,4.25-1.19c2.994,0,4.801,1.091,5.416,3.265c0.094,0.316,0.176,0.678,0.258,1.09
		c0.031,0.156,0.037,0.533,0.016,1.136c-0.01,0.467,0.062,0.844,0.213,1.131c0,2.149-0.006,3.119-0.016,2.912
		c-1.09,0.069-3.682,0.126-7.775,0.166c-0.03,0.021-0.088,0.069-0.182,0.146v2.646c0,1.512,0.672,2.265,2.014,2.265
		c1.301,0,1.951-0.713,1.951-2.146c0-0.365-0.047-0.702-0.139-1.014c1.414-0.111,2.746-0.115,3.996-0.017
		C107.301,120.897,107.354,121.073,107.354,121.358L107.354,121.358z M101.379,120.49h-0.183v-0.603h0.183V120.49L101.379,120.49z
		 M101.498,121.374l-0.146,0.412l-0.156-0.061l0.142-0.353L101.498,121.374L101.498,121.374z M101.498,123.464h-0.197v-0.929h0.197
		V123.464L101.498,123.464z M96.944,126.552c-0.733-0.752-1.224-1.611-1.466-2.57c-0.243-0.965-0.361-1.965-0.361-3.004v-5.826
		c0-0.1,0.026-0.159,0.083-0.176c0.057-0.02,0.088-0.039,0.098-0.061c-0.093-0.764,0.227-1.643,0.95-2.637
		c0.031-0.045,0.264-0.275,0.696-0.688V126.552L96.944,126.552z M100.498,116.401h3.935v-0.724c0-1.165-0.146-1.969-0.439-2.409
		c-0.293-0.442-0.805-0.664-1.543-0.664c-0.717,0-1.223,0.227-1.527,0.684c-0.301,0.457-0.455,1.256-0.455,2.391
		C100.487,116.005,100.498,116.247,100.498,116.401L100.498,116.401z M111.233,124.83h-0.194v-0.603h0.194V124.83L111.233,124.83z
		 M112.049,131.042c-0.028,0-0.112,0.016-0.245,0.057c-0.136,0.039-0.224,0.06-0.248,0.06c-0.095-0.154-0.13-0.456-0.109-0.898
		c0.135-0.055,0.197-0.181,0.197-0.366h0.405C112.049,129.901,112.049,130.284,112.049,131.042L112.049,131.042z M129.308,113.825
		h-0.183v-0.297h0.183V113.825L129.308,113.825z M135.209,108.913h-0.183v-0.4h0.183V108.913L135.209,108.913z M141.183,121.358
		c0,0.195-0.054,0.607-0.15,1.235c-0.123,0.738-0.232,1.19-0.336,1.371c-0.434,0.703-0.711,1.15-0.846,1.336
		c-0.373,0.492-0.775,0.828-1.209,1.015c-1.037,0.453-2.039,0.679-2.994,0.679h-0.578c-0.656,0-1.396-0.136-2.221-0.411
		c-0.888-0.287-1.492-0.623-1.816-1.016V110.44c0.971-0.793,2.385-1.19,4.248-1.19c2.996,0,4.803,1.091,5.416,3.265
		c0.094,0.316,0.176,0.678,0.258,1.09c0.031,0.156,0.037,0.533,0.018,1.136c-0.012,0.467,0.062,0.844,0.211,1.131
		c0,2.149-0.006,3.119-0.016,2.912c-1.09,0.069-3.682,0.126-7.775,0.166c-0.031,0.021-0.088,0.069-0.182,0.146v2.646
		c0,1.512,0.672,2.265,2.014,2.265c1.301,0,1.951-0.713,1.951-2.146c0-0.365-0.045-0.702-0.139-1.014
		c1.416-0.111,2.746-0.115,3.996-0.017C141.129,120.897,141.183,121.073,141.183,121.358L141.183,121.358z M135.209,120.49h-0.183
		v-0.603h0.183V120.49L135.209,120.49z M135.326,121.374l-0.146,0.412l-0.154-0.061l0.14-0.353L135.326,121.374L135.326,121.374z
		 M135.326,123.464h-0.195v-0.929h0.195V123.464L135.326,123.464z M130.772,126.552c-0.733-0.752-1.225-1.611-1.467-2.57
		c-0.242-0.965-0.361-1.965-0.361-3.004v-5.826c0-0.1,0.025-0.159,0.082-0.176c0.058-0.02,0.089-0.039,0.099-0.061
		c-0.092-0.764,0.229-1.643,0.951-2.637c0.03-0.045,0.264-0.275,0.696-0.688V126.552L130.772,126.552z M133.819,115.244h3.935
		v-0.724c0-1.164-0.146-1.969-0.438-2.41c-0.295-0.441-0.807-0.663-1.545-0.663c-0.717,0-1.223,0.226-1.526,0.683
		c-0.302,0.457-0.455,1.256-0.455,2.391C133.812,114.849,133.819,115.089,133.819,115.244L133.819,115.244z M128.469,126.817h-9.829
		v-22.646c0.604,0.06,1.233,0.063,1.891,0.015v19.262h7.938V126.817L128.469,126.817z M118.271,126.772
		c-0.01-0.01-0.783-0.015-2.328-0.015v-22.687c0.636-0.012,1.41-0.006,2.328,0.015V126.772L118.271,126.772z M115.371,115.96h-0.201
		v-0.281h0.201V115.96L115.371,115.96z M118.64,127.731h-0.171v-0.502h0.171V127.731L118.64,127.731z M118.64,129.466l-0.107,1.355
		h-0.166l0.094-1.355H118.64L118.64,129.466z M147.67,109.558h-0.187v-0.604h0.187V109.558L147.67,109.558z M152.992,126.658
		c-0.146,0.146-0.396,0.22-0.772,0.22c-0.312,0-0.562-0.039-0.755-0.119c-0.071-0.041-0.071-0.091,0-0.162
		c0-0.049-0.057-0.125-0.166-0.234c-0.041,0.041-0.062,0.171-0.062,0.396c-0.158,0.09-0.887,0.096-2.178,0.016v-12.461
		c0-0.412-0.218-0.754-0.65-1.016c-0.352-0.215-0.703-0.326-1.043-0.326c-0.584,0-1.064,0.236-1.436,0.709
		c-0.326,0.411-0.486,0.863-0.486,1.351v11.788h-3.799V110.12c0.082,0.01,1.42,0.015,4.012,0.015
		c-0.15,0.126-0.227,0.312-0.227,0.558c0,0.146,0.028,0.353,0.098,0.613c0.066,0.256,0.098,0.422,0.098,0.491
		c0.516-0.823,1.049-1.396,1.605-1.707c0.479-0.274,1.104-0.412,1.875-0.412c0.965,0,1.856,0.326,2.668,0.984
		c0.811,0.657,1.219,1.401,1.219,2.239L152.992,126.658L152.992,126.658z M149.42,111.575v-0.396h-0.196v0.396H149.42
		L149.42,111.575z M149.42,112.208v-0.381h-0.196v0.381H149.42L149.42,112.208z M151.935,118.728h-0.17l-0.119,0.353l0.149,0.062
		L151.935,118.728L151.935,118.728z M151.935,119.46h-0.181l-0.125,0.93h0.197L151.935,119.46L151.935,119.46z M151.724,121.876
		v-1.135h-0.195v1.135H151.724L151.724,121.876z M151.058,121.771v-0.808h-0.181v0.808H151.058L151.058,121.771z M151.16,122.304
		v-0.502h-0.183v0.502H151.16L151.16,122.304z M151.496,124.845v-0.603h-0.183v0.603H151.496L151.496,124.845z M151.388,126.024
		v-0.707h-0.195v0.707H151.388L151.388,126.024z M162.351,103.836h-0.183v-0.396h0.183V103.836L162.351,103.836z M155.451,101.907
		h-0.181v-0.502h0.181V101.907L155.451,101.907z M155.451,102.862h-0.181v-0.277h0.181V102.862L155.451,102.862z M155.451,103.013
		l-0.106,1.029h-0.195l0.123-1.029H155.451L155.451,103.013z M165.479,126.743c-1.019,0.051-2.283,0.051-3.795,0l-0.242-11.652
		c-0.094-1.109-0.326-1.812-0.697-2.119c-0.232-0.186-0.744-0.281-1.545-0.281c-0.117,0-0.334,0.115-0.639,0.343
		c-0.312,0.226-0.472,0.387-0.486,0.487c-0.016,0.095-0.041,0.271-0.082,0.525c-0.113-0.05-0.166,0.012-0.166,0.176v11.438
		c0,0.166-0.01,0.562-0.031,1.189h-2.693c0.154-0.44,0.148-0.863-0.016-1.266c-0.129,0.518-0.141,1.15-0.027,1.898h-1.27
		l-0.334-21.908c0.34,0,0.846,0,1.512,0l0.078,10.738c0.139-0.217,0.211-0.492,0.211-0.838c0-0.197-0.031-0.488-0.082-0.875
		c-0.059-0.388-0.088-0.662-0.088-0.834c0-0.25,0.045-0.451,0.139-0.603c-0.01-0.065-0.016-1.216-0.016-3.44
		c0.18,0,0.305,0.03,0.361,0.086c0.113-0.195,0.166-0.388,0.166-0.572c0-0.092-0.025-0.172-0.088-0.252
		c-0.104-0.115-0.16-0.195-0.183-0.235c-0.082,0.081-0.133,0.226-0.159,0.442c-0.025,0.215-0.052,0.354-0.082,0.41v-4.192
		c-0.011-0.085-0.052-0.177-0.129-0.271c-0.078-0.092-0.113-0.187-0.113-0.271c0-0.227,0.133-0.457,0.406-0.693v0.662
		c0.043,0.031,0.774,0.025,2.211-0.016v4.416c0,0.135,0.062,0.315,0.182,0.543c-0.131,0.736-0.166,1.188-0.109,1.354
		c0.031,0.125,0.104,0.361,0.211,0.708c0.527-0.788,1.064-1.326,1.607-1.622c0.494-0.271,1.145-0.411,1.951-0.411
		c1.621,0,2.746,0.547,3.371,1.633c0.442,0.797,0.666,2.043,0.666,3.74V126.743L165.479,126.743z M155.131,129.306h-0.194v-0.824
		h0.194V129.306L155.131,129.306z M155.451,114.489v-0.297h-0.181v0.297H155.451L155.451,114.489z M155.451,118.712l-0.154-0.061
		l-0.135,0.268l0.149,0.07L155.451,118.712L155.451,118.712z M155.24,119.108h-0.183l-0.139,0.488h0.195L155.24,119.108
		L155.24,119.108z M155.131,121.419v-1.148h-0.194v1.148H155.131L155.131,121.419z M177.453,126.817h-3.435
		c-0.065-0.381-0.176-0.942-0.313-1.676c-0.265,0.295-0.69,0.737-1.285,1.34c-0.224,0.187-0.594,0.361-1.114,0.527
		c-0.517,0.166-0.978,0.251-1.386,0.251c-0.076,0-0.241-0.034-0.496-0.11c-0.252-0.074-0.411-0.109-0.483-0.109
		c-0.34,0-0.588-0.036-0.744-0.105c-0.098,0.267-0.082,0.553,0.047,0.854c-0.01,0-0.062,0.125-0.148,0.371
		c0.01,0.457,0.029,1.131,0.062,2.014c-0.113,0.138-0.14,0.304-0.078,0.488l0.135,0.16h-0.619v-3.591
		c-1.09-0.744-1.631-2.181-1.631-4.295c0-0.668,0.117-1.33,0.361-1.988c0.295-0.823,0.706-1.356,1.237-1.604
		c-0.024,0.629-0.004,1.086,0.078,1.367c-0.021-0.137,0.021-0.327,0.129-0.572c0.104-0.246,0.16-0.428,0.16-0.543
		c0-0.216-0.113-0.428-0.336-0.633c0.031,0,0.088-0.035,0.166-0.105c-0.027-0.09-0.041-0.17-0.041-0.252
		c0-0.41,0.488-0.821,1.48-1.233c1.725-0.724,2.645-1.121,2.768-1.19c0.986-0.558,1.482-1.211,1.482-1.959
		c0-0.949-0.672-1.427-2.014-1.427c-1.369,0-2.056,0.623-2.056,1.869c0,0.165,0.017,0.346,0.045,0.541
		c-0.241-0.015-0.646-0.004-1.213,0.047c-0.18,0.235-0.34,0.611-0.479,1.136v-0.443c-0.435-0.109-0.939-0.104-1.512,0.016
		c-0.177-0.166-0.259-0.326-0.259-0.472c0-1.341,0.231-2.366,0.697-3.06c0.289-0.246,0.659-0.644,1.112-1.195
		c0.013-0.176,0.062-0.411,0.156-0.703c0.965-0.461,2.281-0.692,3.945-0.692c1.857,0,3.268,0.441,4.238,1.325
		c0.34,0.312,0.598,0.693,0.77,1.131c0.242,0.658,0.361,1.119,0.361,1.387v11.65c0,0.092,0.035,0.111,0.107,0.066
		c0.071-0.045,0.104-0.021,0.104,0.063L177.453,126.817L177.453,126.817z M167.865,113.841c-0.095-0.04-0.154-0.23-0.195-0.572
		v1.045c0.011-0.061,0.047-0.146,0.113-0.252C167.851,113.951,167.875,113.881,167.865,113.841L167.865,113.841z M168.396,114.604
		h-0.186l-0.135,0.485h0.182L168.396,114.604L168.396,114.604z M167.351,114.946v-0.176h-0.394v0.176H167.351L167.351,114.946z
		 M168.381,122.022l-0.153-0.062l-0.134,0.281l0.148,0.061L168.381,122.022L168.381,122.022z M168.272,123.333v-0.387h-0.18v0.387
		H168.272L168.272,123.333z M168.924,124.966l-0.166-0.16l-0.106,0.101l0.156,0.159L168.924,124.966L168.924,124.966z
		 M168.272,124.599v-0.387h-0.18v0.387H168.272L168.272,124.599z M168.272,125.864v-0.594h-0.18v0.594H168.272L168.272,125.864z
		 M168.5,129.351h-0.194v-0.604h0.194V129.351L168.5,129.351z M168.5,130.716h-0.194v-0.587h0.194V130.716L168.5,130.716z
		 M168.5,133.247h-0.194v-0.275h0.194V133.247L168.5,133.247z M168.5,134.308h-0.194v-0.604h0.194V134.308L168.5,134.308z
		 M168.5,135.472h-0.194v-0.387h0.194V135.472L168.5,135.472z M168.5,138.531h-0.194v-0.487h0.194V138.531L168.5,138.531z
		 M173.467,118.336c-1.522,0.743-2.557,1.411-3.094,1.999c-0.543,0.588-0.812,1.286-0.812,2.09c0,0.758,0.146,1.315,0.435,1.672
		c0.282,0.357,0.737,0.537,1.354,0.537c0.707,0,1.233-0.301,1.584-0.898c0.356-0.598,0.532-1.495,0.532-2.691V118.336
		L173.467,118.336z"/>
</g>
</svg>
