<?xml version="1.0" encoding="utf-8"?>
<!-- Generator: Adobe Illustrator 16.0.0, SVG Export Plug-In . SVG Version: 6.00 Build 0)  -->
<!DOCTYPE svg PUBLIC "-//W3C//DTD SVG 1.1//EN" "http://www.w3.org/Graphics/SVG/1.1/DTD/svg11.dtd">
<svg version="1.1" id="Layer_1" xmlns="http://www.w3.org/2000/svg" xmlns:xlink="http://www.w3.org/1999/xlink" x="0px" y="0px"
	 width="52.639px" height="21.992px" viewBox="373.681 289.005 52.639 21.992"
	 enable-background="new 373.681 289.005 52.639 21.992" xml:space="preserve">
<g>
	<path fill="#0061A9" d="M374.83,305.507h1.275c0.401,0,0.7,0.03,0.894,0.095c0.192,0.062,0.331,0.188,0.413,0.381
		c0.083,0.19,0.074,0.498-0.025,0.924c-0.066,0.287-0.158,0.488-0.274,0.602s-0.314,0.2-0.595,0.262
		c0.28,0.066,0.454,0.178,0.523,0.332c0.068,0.155,0.065,0.394-0.009,0.713l-0.106,0.455c-0.078,0.332-0.173,0.576-0.287,0.737
		c-0.112,0.159-0.26,0.269-0.438,0.327c-0.18,0.061-0.526,0.088-1.04,0.088h-1.479L374.83,305.507L374.83,305.507z M375.913,306.348
		l-0.257,1.094c0.055-0.002,0.098-0.004,0.129-0.004c0.125,0,0.212-0.03,0.261-0.093c0.049-0.062,0.107-0.237,0.176-0.528
		c0.036-0.154,0.047-0.264,0.033-0.323c-0.015-0.062-0.042-0.103-0.084-0.117C376.129,306.357,376.043,306.35,375.913,306.348
		L375.913,306.348z M375.478,308.205l-0.32,1.375c0.181-0.005,0.303-0.034,0.364-0.085c0.061-0.05,0.114-0.177,0.16-0.373
		l0.107-0.458c0.05-0.211,0.057-0.338,0.021-0.383C375.777,308.236,375.666,308.211,375.478,308.205z"/>
	<path fill="#0061A9" d="M378.751,307.953H377.6l0.063-0.271c0.073-0.311,0.165-0.552,0.276-0.721
		c0.111-0.168,0.291-0.318,0.537-0.447c0.247-0.131,0.543-0.193,0.89-0.193c0.416,0,0.71,0.072,0.887,0.22s0.261,0.327,0.254,0.54
		c-0.008,0.214-0.09,0.652-0.245,1.318l-0.474,2.021h-1.192l0.084-0.357c-0.107,0.145-0.23,0.252-0.365,0.322
		c-0.136,0.073-0.284,0.108-0.449,0.108c-0.214,0-0.397-0.062-0.548-0.181c-0.151-0.121-0.18-0.386-0.084-0.791l0.077-0.332
		c0.07-0.301,0.166-0.506,0.286-0.614c0.121-0.11,0.388-0.237,0.798-0.384c0.439-0.157,0.681-0.264,0.723-0.318
		c0.04-0.055,0.081-0.166,0.12-0.333c0.049-0.211,0.063-0.349,0.049-0.412c-0.018-0.063-0.062-0.096-0.135-0.096
		c-0.082,0-0.142,0.026-0.174,0.079c-0.032,0.056-0.074,0.193-0.128,0.419L378.751,307.953L378.751,307.953z M379.011,308.505
		c-0.229,0.146-0.373,0.265-0.427,0.362c-0.054,0.097-0.102,0.236-0.145,0.418c-0.05,0.209-0.066,0.344-0.055,0.404
		c0.014,0.062,0.061,0.092,0.142,0.092c0.076,0,0.133-0.024,0.167-0.071c0.033-0.048,0.075-0.174,0.123-0.376L379.011,308.505z"/>
	<path fill="#0061A9" d="M382.4,306.393l-0.107,0.371c0.122-0.147,0.257-0.26,0.402-0.332c0.146-0.074,0.304-0.111,0.472-0.111
		c0.211,0,0.371,0.05,0.481,0.148c0.109,0.1,0.167,0.225,0.17,0.374c0.004,0.151-0.037,0.403-0.119,0.755l-0.66,2.823h-1.227
		l0.652-2.789c0.064-0.276,0.095-0.446,0.091-0.508s-0.047-0.091-0.13-0.091c-0.087,0-0.149,0.035-0.188,0.105
		c-0.039,0.068-0.093,0.256-0.164,0.56l-0.637,2.723h-1.229l0.942-4.028H382.4z"/>
	<path fill="#0061A9" d="M386.759,307.914h-1.156l0.108-0.465c0.038-0.161,0.051-0.271,0.038-0.329
		c-0.014-0.06-0.054-0.087-0.126-0.087c-0.07,0-0.124,0.025-0.159,0.076c-0.037,0.051-0.076,0.164-0.117,0.34l-0.443,1.9
		c-0.033,0.144-0.04,0.25-0.021,0.322c0.02,0.072,0.064,0.107,0.135,0.107c0.083,0,0.148-0.036,0.195-0.112
		c0.047-0.074,0.095-0.217,0.144-0.425l0.111-0.479h1.094c-0.076,0.321-0.146,0.562-0.204,0.723
		c-0.059,0.162-0.164,0.328-0.318,0.496c-0.154,0.17-0.333,0.297-0.537,0.383c-0.205,0.086-0.441,0.129-0.713,0.129
		c-0.347,0-0.607-0.061-0.781-0.178c-0.175-0.119-0.28-0.283-0.313-0.498s-0.004-0.518,0.088-0.909l0.268-1.144
		c0.08-0.345,0.175-0.603,0.283-0.775c0.111-0.174,0.293-0.328,0.55-0.465s0.547-0.205,0.868-0.205c0.319,0,0.576,0.066,0.771,0.203
		c0.194,0.136,0.306,0.307,0.333,0.513C386.879,307.243,386.848,307.535,386.759,307.914z"/>
	<path fill="#0061A9" d="M389.924,307.809l-0.229,0.985c-0.085,0.362-0.166,0.628-0.242,0.797c-0.075,0.169-0.189,0.327-0.345,0.474
		c-0.153,0.146-0.332,0.256-0.534,0.326c-0.205,0.069-0.429,0.104-0.671,0.104c-0.271,0-0.493-0.029-0.668-0.09
		c-0.176-0.061-0.301-0.149-0.375-0.271c-0.076-0.12-0.117-0.267-0.122-0.438c-0.004-0.171,0.034-0.427,0.113-0.771l0.241-1.033
		c0.088-0.373,0.196-0.666,0.326-0.875c0.131-0.211,0.316-0.381,0.557-0.508c0.24-0.128,0.524-0.191,0.853-0.191
		c0.274,0,0.502,0.041,0.68,0.123c0.179,0.082,0.308,0.188,0.383,0.32c0.077,0.131,0.117,0.268,0.125,0.406
		C390.021,307.311,389.99,307.521,389.924,307.809L389.924,307.809z M388.768,307.504c0.05-0.207,0.067-0.336,0.06-0.391
		c-0.01-0.055-0.052-0.08-0.124-0.08s-0.128,0.025-0.164,0.08c-0.038,0.055-0.08,0.184-0.129,0.391l-0.425,1.818
		c-0.045,0.189-0.062,0.313-0.051,0.371c0.012,0.059,0.052,0.088,0.122,0.088c0.073,0,0.127-0.027,0.162-0.079
		c0.036-0.054,0.074-0.167,0.114-0.341L388.768,307.504z"/>
	<path fill="#0061A9" d="M394.507,307.314h-1.276l0.104-0.445c0.065-0.281,0.095-0.457,0.087-0.528
		c-0.008-0.069-0.057-0.106-0.146-0.106c-0.08,0-0.142,0.031-0.185,0.093c-0.042,0.06-0.093,0.217-0.15,0.468l-0.553,2.357
		c-0.052,0.222-0.07,0.365-0.06,0.437c0.013,0.069,0.061,0.104,0.146,0.104c0.094,0,0.165-0.039,0.219-0.117
		c0.052-0.08,0.104-0.233,0.157-0.463l0.137-0.582h-0.259l0.176-0.747h1.496l-0.616,2.638h-0.806l-0.035-0.352
		c-0.122,0.152-0.26,0.265-0.409,0.342c-0.15,0.074-0.315,0.113-0.496,0.113c-0.215,0-0.403-0.053-0.565-0.156
		c-0.163-0.104-0.273-0.232-0.336-0.387c-0.062-0.155-0.084-0.315-0.068-0.484s0.062-0.423,0.142-0.762l0.342-1.459
		c0.109-0.471,0.214-0.812,0.314-1.022c0.101-0.214,0.292-0.407,0.572-0.585c0.281-0.177,0.611-0.268,0.992-0.268
		c0.375,0,0.668,0.078,0.878,0.231c0.211,0.153,0.33,0.337,0.354,0.548c0.024,0.213-0.009,0.52-0.104,0.922L394.507,307.314z"/>
	<polygon fill="#0061A9" points="395.426,305.507 397.558,305.507 397.327,306.49 396.475,306.49 396.257,307.422 397.055,307.422 
		396.836,308.357 396.038,308.357 395.785,309.438 396.723,309.438 396.492,310.421 394.276,310.421 	"/>
	<path fill="#0061A9" d="M401.589,307.648h-1.278l0.2-0.854c0.06-0.249,0.08-0.403,0.068-0.467
		c-0.013-0.062-0.065-0.093-0.159-0.093c-0.104,0-0.181,0.037-0.228,0.111c-0.046,0.076-0.099,0.237-0.156,0.486l-0.534,2.283
		c-0.056,0.238-0.077,0.395-0.066,0.467c0.013,0.072,0.066,0.109,0.166,0.109c0.097,0,0.166-0.037,0.214-0.109
		c0.046-0.072,0.101-0.243,0.163-0.514l0.146-0.615h1.277l-0.046,0.191c-0.117,0.508-0.238,0.867-0.359,1.08
		s-0.324,0.398-0.607,0.559c-0.282,0.16-0.604,0.24-0.965,0.24c-0.375,0-0.668-0.067-0.879-0.203
		c-0.211-0.137-0.328-0.323-0.352-0.563c-0.022-0.239,0.021-0.601,0.136-1.082l0.336-1.437c0.082-0.354,0.157-0.619,0.222-0.797
		c0.067-0.178,0.18-0.349,0.338-0.512c0.158-0.164,0.355-0.294,0.592-0.388c0.235-0.095,0.491-0.142,0.77-0.142
		c0.377,0,0.67,0.074,0.881,0.219c0.211,0.146,0.328,0.328,0.355,0.545c0.024,0.218-0.016,0.557-0.123,1.016L401.589,307.648z"/>
	<path fill="#0061A9" d="M403.035,307.953h-1.15l0.062-0.271c0.072-0.311,0.166-0.552,0.275-0.721
		c0.112-0.168,0.292-0.318,0.538-0.447c0.247-0.131,0.543-0.193,0.89-0.193c0.416,0,0.711,0.072,0.887,0.22
		c0.177,0.146,0.262,0.327,0.254,0.54c-0.008,0.214-0.09,0.652-0.245,1.318l-0.474,2.021h-1.192l0.084-0.357
		c-0.107,0.145-0.23,0.252-0.366,0.322c-0.135,0.073-0.283,0.108-0.447,0.108c-0.215,0-0.397-0.062-0.55-0.181
		c-0.149-0.121-0.179-0.386-0.083-0.791l0.077-0.332c0.07-0.301,0.166-0.506,0.287-0.614c0.121-0.11,0.386-0.237,0.797-0.384
		c0.439-0.157,0.681-0.264,0.723-0.318c0.04-0.055,0.081-0.166,0.12-0.333c0.05-0.211,0.064-0.349,0.049-0.412
		c-0.018-0.063-0.062-0.096-0.135-0.096c-0.083,0-0.142,0.026-0.174,0.079c-0.033,0.056-0.075,0.193-0.128,0.419L403.035,307.953
		L403.035,307.953z M403.295,308.505c-0.229,0.146-0.373,0.265-0.427,0.362c-0.054,0.097-0.103,0.236-0.146,0.418
		c-0.049,0.209-0.065,0.344-0.054,0.404c0.013,0.062,0.062,0.092,0.142,0.092c0.076,0,0.133-0.024,0.168-0.071
		c0.032-0.048,0.074-0.174,0.122-0.376L403.295,308.505z"/>
	<path fill="#0061A9" d="M406.685,306.393l-0.104,0.355c0.142-0.145,0.287-0.251,0.436-0.321c0.148-0.071,0.302-0.106,0.456-0.106
		c0.19,0,0.343,0.052,0.457,0.154c0.115,0.102,0.176,0.219,0.179,0.353s-0.032,0.36-0.107,0.681l-0.396,1.697
		c-0.087,0.365-0.17,0.627-0.249,0.781s-0.197,0.277-0.354,0.371c-0.156,0.092-0.33,0.138-0.52,0.138
		c-0.152,0-0.285-0.035-0.397-0.106c-0.113-0.07-0.207-0.176-0.28-0.314l-0.217,0.923h-1.227l1.076-4.603h1.247V306.393z
		 M406.76,307.564c0.059-0.25,0.084-0.4,0.078-0.453s-0.05-0.078-0.133-0.078c-0.081,0-0.141,0.029-0.178,0.091
		s-0.083,0.208-0.139,0.44l-0.391,1.668c-0.057,0.244-0.081,0.396-0.07,0.457c0.011,0.062,0.057,0.092,0.138,0.092
		c0.077,0,0.135-0.028,0.166-0.084c0.032-0.057,0.073-0.19,0.124-0.405L406.76,307.564z"/>
	<path fill="#0061A9" d="M410.134,305.507l-0.148,0.64h-1.264l0.149-0.64H410.134L410.134,305.507z M409.927,306.393l-0.941,4.028
		h-1.264l0.942-4.028H409.927z"/>
	<path fill="#0061A9" d="M411.786,305.855l-0.148,0.635h0.331l-0.148,0.637h-0.331l-0.504,2.155
		c-0.062,0.266-0.083,0.413-0.062,0.442c0.021,0.03,0.13,0.047,0.33,0.047l-0.152,0.648h-0.493c-0.28,0-0.478-0.011-0.592-0.035
		c-0.113-0.021-0.206-0.076-0.276-0.16c-0.072-0.084-0.106-0.181-0.104-0.287c0.003-0.108,0.051-0.362,0.146-0.765l0.479-2.047
		h-0.264l0.148-0.638h0.265l0.147-0.635h1.229V305.855z"/>
	<path fill="#0061A9" d="M412.993,307.953h-1.151l0.063-0.271c0.071-0.311,0.165-0.552,0.275-0.721
		c0.111-0.168,0.291-0.318,0.538-0.447c0.246-0.131,0.542-0.193,0.89-0.193c0.415,0,0.71,0.072,0.887,0.22s0.261,0.327,0.253,0.54
		c-0.007,0.214-0.089,0.652-0.245,1.318l-0.473,2.021h-1.192l0.083-0.357c-0.107,0.145-0.229,0.252-0.365,0.322
		c-0.135,0.073-0.283,0.108-0.448,0.108c-0.216,0-0.397-0.062-0.55-0.181c-0.148-0.121-0.178-0.386-0.083-0.791l0.077-0.332
		c0.07-0.301,0.167-0.506,0.287-0.614c0.121-0.11,0.387-0.237,0.798-0.384c0.438-0.157,0.68-0.264,0.722-0.318
		c0.041-0.055,0.081-0.166,0.119-0.333c0.051-0.211,0.065-0.349,0.05-0.412c-0.017-0.063-0.061-0.096-0.135-0.096
		c-0.083,0-0.141,0.026-0.173,0.079c-0.032,0.056-0.075,0.193-0.128,0.419L412.993,307.953L412.993,307.953z M413.252,308.505
		c-0.229,0.146-0.372,0.265-0.426,0.362c-0.055,0.098-0.104,0.236-0.146,0.418c-0.049,0.209-0.066,0.344-0.055,0.404
		c0.013,0.062,0.062,0.092,0.142,0.092c0.076,0,0.133-0.024,0.167-0.071c0.034-0.048,0.076-0.174,0.123-0.376L413.252,308.505z"/>
	<polygon fill="#0061A9" points="416.865,305.507 415.715,310.421 414.452,310.421 415.602,305.507 	"/>
	<path fill="#0061A9" d="M420.798,306.993h-1.187l0.085-0.363c0.04-0.17,0.05-0.278,0.029-0.325c-0.02-0.047-0.063-0.07-0.136-0.07
		c-0.077,0-0.143,0.031-0.196,0.096c-0.054,0.062-0.096,0.156-0.126,0.285c-0.037,0.164-0.045,0.287-0.021,0.371
		c0.022,0.082,0.121,0.183,0.292,0.3c0.489,0.338,0.782,0.614,0.88,0.832c0.098,0.216,0.09,0.565-0.023,1.047
		c-0.081,0.351-0.184,0.608-0.305,0.774c-0.12,0.166-0.312,0.306-0.572,0.418c-0.261,0.11-0.547,0.168-0.858,0.168
		c-0.342,0-0.618-0.064-0.83-0.194c-0.212-0.129-0.332-0.294-0.359-0.494c-0.026-0.201,0.002-0.485,0.088-0.854l0.075-0.32h1.188
		l-0.142,0.598c-0.043,0.186-0.054,0.303-0.032,0.355c0.021,0.052,0.074,0.078,0.159,0.078s0.156-0.032,0.214-0.101
		c0.057-0.065,0.102-0.166,0.132-0.298c0.066-0.289,0.072-0.479,0.015-0.566c-0.06-0.09-0.226-0.237-0.493-0.447
		c-0.27-0.211-0.443-0.362-0.524-0.459c-0.08-0.094-0.136-0.227-0.163-0.395c-0.029-0.168-0.014-0.383,0.049-0.644
		c0.088-0.376,0.2-0.652,0.337-0.826c0.136-0.174,0.323-0.31,0.562-0.408c0.236-0.098,0.509-0.147,0.812-0.147
		c0.332,0,0.603,0.056,0.811,0.162c0.209,0.106,0.332,0.242,0.37,0.405c0.038,0.162,0.012,0.439-0.081,0.83L420.798,306.993z"/>
	<polygon fill="#0061A9" points="423.843,305.412 421.192,310.516 420.263,310.516 422.923,305.412 	"/>
	<path fill="#0061A9" d="M426.319,305.507l-0.418,4.914h-1.31l0.145-0.884h-0.459l-0.283,0.884h-1.323l1.8-4.914H426.319
		L426.319,305.507z M424.903,308.667c0.064-0.558,0.162-1.245,0.288-2.062c-0.351,0.939-0.592,1.627-0.727,2.062H424.903z"/>
	<g>
		<path fill="#0061A9" d="M406.436,292.656c1.176,1.965,1.218,5.059-0.042,6.983c-1.553,2.593-4.406,3.972-7.471,3.554
			c-2.393-0.334-4.784-2.09-5.666-4.433c-1.175-2.676-0.335-5.854,1.722-7.777c2.141-2.091,5.707-2.551,8.311-1.255
			C404.547,290.356,405.722,291.401,406.436,292.656L406.436,292.656z"/>
		<path fill="#FFFFFF" d="M406.352,293.283c0.966,2.216,0.757,5.185-0.84,7.025c-1.553,1.881-3.817,2.844-6.421,2.551
			c-2.141-0.293-4.197-1.715-5.246-3.638c-1.134-2.216-0.84-5.394,0.755-7.317c1.723-2.049,4.365-2.885,7.052-2.383
			C403.624,289.896,405.471,291.485,406.352,293.283L406.352,293.283z"/>
		<path fill="#0061A9" d="M401.525,289.896c-0.841,0-1.89-0.209-2.352,0.627c0,0.251,0,0.502,0.252,0.627
			c0.881,0,1.469-1.003,2.52-0.543c1.888,0.167,3.733,1.672,4.279,3.47c0.336,1.046,0.504,2.342,0.168,3.387
			c0.042-0.753,0.21-1.756-0.546-2.174c-0.252-0.084-0.545,0-0.714,0.209c-0.125,0.794,0.84,1.171,0.672,2.007
			c-0.126,1.882-1.343,3.68-3.062,4.434c-1.134,0.459-2.478,0.752-3.777,0.459c0.63,0.125,1.469,0,1.932-0.584
			c0.042-0.252-0.042-0.545-0.295-0.67c-0.798,0-1.427,0.879-2.35,0.543c-1.679-0.166-3.273-1.212-4.113-2.759
			c-0.63-1.254-0.84-2.969-0.378-4.39c-0.126,0.752-0.21,1.714,0.378,2.299c0.126,0.167,0.377,0.167,0.588,0.125
			c0.252-0.167,0.336-0.543,0.167-0.752c-0.545-0.585-0.629-1.422-0.462-2.216c0.253-1.673,1.639-3.261,3.274-3.805
			C398.797,289.687,400.308,289.645,401.525,289.896L401.525,289.896z"/>
		<path fill="#FFFFFF" d="M399.553,292.697c0.168,1.087-0.756,1.924-1.637,2.426c0,0.167,0.167,0.25,0.336,0.292
			c1.091,0.083,0.755-1.505,1.763-1.422c0.377,0.669-0.882,0.962-0.462,1.673c0.546-0.293,1.049-0.627,1.554-1.003
			c-0.084-0.92,0.21-1.798,0.965-2.3c0.252-0.125,0.63-0.125,0.84,0.042c0.294,0.209,0.252,0.627,0.21,0.92
			c-0.252,0.669-0.798,0.962-1.301,1.463c0.084,0.794,0.923,0.042,1.301,0.502c0.126,0.292-0.21,0.418-0.42,0.46
			c-0.462-0.125-0.881,0-1.259,0.293c-0.462,0.376-0.589,0.877-0.673,1.379c0,0.752,0.295,1.547,1.051,1.84
			c0.503,0.042,0.923-0.042,1.259-0.376c0.294-0.251,0.377-0.585,0.377-0.919c-0.042-0.335-0.125-0.711-0.503-0.878
			c-0.252-0.084-0.588,0-0.714,0.293c-0.252,0.418,0.63,0.794,0,1.087c-0.377-0.042-0.545-0.418-0.671-0.711
			c0-0.376,0.126-0.711,0.336-0.961c0.335-0.209,0.713-0.376,1.133-0.251c0.588,0.084,0.881,0.669,1.007,1.213
			c0,0.543-0.084,1.045-0.419,1.463c-0.42,0.46-0.966,0.585-1.596,0.627c-0.545-0.083-1.049-0.251-1.47-0.711
			c-0.461-0.669-0.671-1.756-0.252-2.509c0.252-0.502,0.673-0.878,1.093-1.171c0.084-0.083,0-0.167-0.084-0.25
			c-0.673,0.209-1.218,0.794-1.848,1.087c-0.21,1.296-0.294,2.843-1.637,3.429c-0.42,0.125-0.84,0.167-1.259-0.042
			c-0.42-0.25-0.546-0.71-0.504-1.212c0.335-1.38,1.763-1.798,2.77-2.425c0.084-0.084,0.084-0.167,0.084-0.293
			c-0.294-0.083-0.629,0.293-1.007,0.125c-0.63-0.125-0.504-0.962-1.134-0.962c-0.378-0.334-0.419-0.92-0.293-1.38
			c0.084-0.125,0.167-0.209,0.293-0.251c0.126,0.46-0.209,1.171,0.42,1.296c0.21-0.92,0.588-2.007,1.595-2.3
			C399.133,292.279,399.511,292.363,399.553,292.697L399.553,292.697z"/>
		<path fill="#0061A9" d="M399.007,292.948c-0.042,0.627-0.546,1.129-1.049,1.464c-0.042-0.586,0.294-1.213,0.839-1.547
			C398.881,292.823,398.965,292.865,399.007,292.948L399.007,292.948z"/>
		<path fill="#0061A9" d="M402.574,292.948c-0.042,0.543-0.42,0.836-0.84,1.129c0-0.501,0.211-0.961,0.63-1.212
			C402.448,292.823,402.574,292.865,402.574,292.948L402.574,292.948z"/>
		<path fill="#0061A9" d="M398.713,296.753c-0.084,0.961-0.378,1.923-1.259,2.467c-0.336,0.042-0.63-0.083-0.672-0.376
			C396.824,297.799,397.916,297.171,398.713,296.753L398.713,296.753z"/>
	</g>
</g>
</svg>
