<?xml version="1.0" encoding="utf-8"?>
<!-- Generator: Adobe Illustrator 16.0.0, SVG Export Plug-In . SVG Version: 6.00 Build 0)  -->
<!DOCTYPE svg PUBLIC "-//W3C//DTD SVG 1.1//EN" "http://www.w3.org/Graphics/SVG/1.1/DTD/svg11.dtd">
<svg version="1.1" id="Layer_1" xmlns="http://www.w3.org/2000/svg" xmlns:xlink="http://www.w3.org/1999/xlink" x="0px" y="0px"
	 width="354.556px" height="52.204px" viewBox="222.722 273.898 354.556 52.204"
	 enable-background="new 222.722 273.898 354.556 52.204" xml:space="preserve">
<g>
	<path fill="none" d="M335.67,303.85c-2.003,0.211-6.854,0.42-6.854,4.217c0,1.795,1.159,2.849,2.741,2.849
		c1.688,0,4.113-1.265,4.113-4.642h-0.001V303.85z"/>
	<path fill="none" d="M423.358,289.507h-2.005v8.648h2.005c3.479,0,5.904-0.95,5.904-4.43
		C429.263,290.139,427.049,289.507,423.358,289.507z"/>
	<path fill="none" d="M397.893,294.569c-4.218,0-4.851,5.062-4.851,8.648c0,3.691,0.633,8.543,4.851,8.543
		c4.431,0,5.062-4.852,5.062-8.543C402.955,299.631,402.323,294.569,397.893,294.569z"/>
	<path fill="none" d="M307.724,300.79h-2.003v9.914h2.003c3.271,0,7.488-0.21,7.488-5.062
		C315.212,301.635,311.626,300.79,307.724,300.79z"/>
	<path fill="none" d="M313.63,293.725c0-3.586-2.214-4.218-5.906-4.218h-2.003v8.648h2.003
		C311.205,298.155,313.63,297.205,313.63,293.725z"/>
	<path fill="none" d="M458.473,294.148c-4.219,0-4.852,5.061-4.852,8.647c0,3.689,0.633,8.543,4.852,8.543
		c4.431,0,5.062-4.854,5.062-8.543C463.534,299.21,462.903,294.148,458.473,294.148z"/>
	<path fill="none" d="M556.79,307.646c0,1.793,1.16,2.849,2.742,2.849c1.687,0,4.112-1.267,4.112-4.642v-2.427
		C561.642,303.639,556.79,303.85,556.79,307.646z"/>
	<path fill="#004995" d="M358.028,292.882c-5.167,0-7.277,3.691-8.227,5.273v-4.852h-5.062v19.826h0.001h5.062v-8.12
		c0-2.425,1.371-9.069,6.223-9.069c2.426,0,2.847,2.426,2.847,4.851v12.339h4.851v-14.342
		C363.723,295.94,361.931,292.882,358.028,292.882z"/>
	<path fill="#004995" d="M313.209,299.42v-0.211c2.426-0.422,5.484-2.215,5.484-5.906c0-5.589-5.906-6.222-10.969-6.222h-7.065
		v26.048h7.064c4.113,0,12.339,0,12.339-7.064C320.062,301.424,316.478,299.842,313.209,299.42z M305.72,289.507h2.003
		c3.692,0,5.906,0.632,5.906,4.218c0,3.48-2.425,4.43-5.906,4.43h-2.003V289.507z M307.724,310.704h-2.003v-9.914h2.003
		c3.902,0,7.488,0.845,7.488,4.853C315.212,310.494,310.994,310.704,307.724,310.704z"/>
	<path fill="#004995" d="M397.894,292.881c-6.854,0-10.125,3.691-10.125,10.336c0,6.854,3.271,10.335,10.125,10.335
		s10.335-3.479,10.335-10.335C408.229,296.572,404.749,292.881,397.894,292.881z M397.893,311.76c-4.218,0-4.851-4.852-4.851-8.543
		c0-3.586,0.633-8.648,4.851-8.648c4.431,0,5.062,5.062,5.062,8.648C402.955,306.908,402.323,311.76,397.893,311.76z"/>
	<path fill="#004995" d="M332.402,292.881c-7.066,0-8.121,3.059-8.648,6.117h5.378c0.211-2.426,0.422-4.43,3.271-4.43
		c3.269,0,3.269,3.586,3.269,5.801v1.688c-3.059,0.316-12.761,0.527-12.761,6.645c0,2.638,2.637,4.852,6.222,4.852
		c3.691,0,5.696-2.004,6.539-3.059v2.635h4.853v-12.76C340.523,296.572,339.89,292.881,332.402,292.881z M331.558,310.915
		c-1.582,0-2.741-1.054-2.741-2.849c0-3.797,4.851-4.006,6.854-4.217v2.424h0.001C335.671,309.65,333.246,310.915,331.558,310.915z"
		/>
	<path fill="#004995" d="M380.914,311.338c-5.906,0-8.331-5.484-8.331-10.336c0-3.586,1.265-6.434,4.112-6.434
		c3.375,0,3.375,2.848,3.375,5.062h5.272c0-3.902-2.004-6.75-8.438-6.75c-6.749,0-9.913,3.691-9.913,9.703
		c0,7.276,4.429,10.757,11.917,10.968c2.426,0.211,4.64-0.633,6.644-1.477l-0.631-1.37
		C383.55,311.126,382.496,311.338,380.914,311.338z"/>
	<path fill="#004995" d="M222.722,326.102h64.859v-52.204h-64.859V326.102z M277.457,290.879L277.457,290.879
		c1.371-0.001,1.582,0.42,2.215,1.686l5.484,16.559h-5.062l-1.055-3.903h-6.644l-1.371,3.903h-2.847l5.8-18.245H277.457z
		 M257.841,290.878c1.055,0,1.582,0.211,2.215,2.425l3.27,11.496l4.217-13.921h2.848l-5.484,18.245h-4.429l-5.906-18.245H257.841z
		 M241.705,290.878h8.015c3.691,0,5.062,3.059,3.059,5.905l-0.949,1.371c6.432,3.059,4.218,10.969-2.426,10.969h-7.699V290.878z
		 M226.307,290.878h7.91c3.797,0,5.062,3.059,3.058,5.905l-0.843,1.371c6.433,3.059,4.218,10.969-2.426,10.969h-7.699V290.878z"/>
	<path fill="#004995" d="M235.799,302.795c0-2.215-1.16-3.586-2.636-3.797l1.476-2.426c0.211-0.422,0.527-0.844,0.527-1.266
		c0-1.159-1.16-2.004-2.214-2.004h-2.215v13.394h1.055C234.007,306.695,235.799,305.641,235.799,302.795z"/>
	<path fill="#004995" d="M251.196,302.795c0-2.215-1.054-3.586-2.636-3.797l1.582-2.426c0.211-0.422,0.422-0.844,0.422-1.266
		c0-1.159-1.16-2.004-2.215-2.004h-2.214v13.394h1.16C249.404,306.695,251.196,305.641,251.196,302.795z"/>
	<polygon fill="#004995" points="275.664,294.147 273.027,302.584 278.089,302.584 	"/>
	<path fill="#004995" d="M440.422,298.366v-4.852h-4.851v19.615h4.851v-9.068c0-5.272,2.848-6.645,7.488-6.854v-4.113
		C443.797,293.304,442.004,295.73,440.422,298.366z"/>
	<path fill="#004995" d="M458.473,292.46c-6.854,0-10.125,3.69-10.125,10.335c0,6.855,3.27,10.334,10.125,10.334
		c6.854,0,10.336-3.479,10.336-10.334C468.809,296.15,465.328,292.46,458.473,292.46z M458.473,311.338
		c-4.219,0-4.852-4.854-4.852-8.543c0-3.586,0.633-8.647,4.852-8.647c4.431,0,5.062,5.062,5.062,8.647
		C463.534,306.484,462.903,311.338,458.473,311.338z"/>
	<path fill="#004995" d="M535.81,310.883c-5.905,0-8.331-5.482-8.331-10.336c0-3.585,1.267-6.433,4.112-6.433
		c3.376,0,3.376,2.848,3.376,5.062h5.272c0-3.902-2.004-6.75-8.438-6.75c-6.749,0-9.913,3.691-9.913,9.702
		c0,7.276,4.431,10.757,11.917,10.97c2.426,0.209,4.642-0.634,6.646-1.478l-0.632-1.37
		C538.447,310.673,537.392,310.883,535.81,310.883z"/>
	<path fill="#004995" d="M560.376,292.46c-7.065,0-8.12,3.058-8.646,6.116h5.377c0.211-2.426,0.422-4.429,3.27-4.429
		c3.271,0,3.271,3.585,3.271,5.8v1.688c-3.06,0.316-12.763,0.527-12.763,6.645c0,2.637,2.639,4.851,6.224,4.851
		c3.69,0,5.694-2.003,6.539-3.058v2.635h4.85v-12.76C568.497,296.15,567.864,292.46,560.376,292.46z M563.645,305.854
		c0,3.375-2.426,4.642-4.112,4.642c-1.582,0-2.742-1.056-2.742-2.849c0-3.797,4.852-4.008,6.854-4.22V305.854z"/>
	<path fill="#004995" d="M514.25,292.882c-5.168,0-7.277,3.691-8.227,5.273v-4.852h-5.062v19.826h5.061v-8.12
		c0-2.425,1.371-9.069,6.224-9.069c2.426,0,2.848,2.426,2.848,4.851v12.339h4.853v-14.342
		C519.945,295.94,518.152,292.882,514.25,292.882z"/>
	<rect x="491.176" y="294.391" fill="#004995" width="4.723" height="18.738"/>
	<rect x="491.176" y="288.046" fill="#004995" width="4.723" height="4.279"/>
	<rect x="543.306" y="294.391" fill="#004995" width="4.722" height="18.738"/>
	<rect x="543.306" y="288.046" fill="#004995" width="4.722" height="4.279"/>
	<polygon fill="#004995" points="572.557,289.862 572.557,313.129 577.278,313.129 577.278,287.021 	"/>
	<polygon fill="#004995" points="479.241,308.337 472.542,294.384 468.143,294.384 476.904,313.129 481.384,313.129 
		490.539,294.384 486.207,294.384 	"/>
	<path fill="#004995" d="M423.357,287.08h-7.066v26.049h3.89h1.053h0.122v-1.753h-0.002v-0.672v-9.224v-1.616
		c3.683,0.263,6.652-0.422,7.488-0.641c0-0.005,0-0.011,0-0.015c0.058-0.01,0.113-0.021,0.172-0.032l0.065-0.02l0.006,0.005
		c2.382-0.497,5.239-2.292,5.239-5.859C434.324,287.713,428.419,287.08,423.357,287.08z M423.358,298.155h-2.005v-8.648h2.005
		c3.69,0,5.904,0.632,5.904,4.218C429.263,297.205,426.838,298.155,423.358,298.155z"/>
</g>
</svg>
