<?xml version="1.0" encoding="utf-8"?>
<!-- Generator: Adobe Illustrator 16.0.0, SVG Export Plug-In . SVG Version: 6.00 Build 0)  -->
<!DOCTYPE svg PUBLIC "-//W3C//DTD SVG 1.1//EN" "http://www.w3.org/Graphics/SVG/1.1/DTD/svg11.dtd">
<svg version="1.1" id="Layer_1" xmlns="http://www.w3.org/2000/svg" xmlns:xlink="http://www.w3.org/1999/xlink" x="0px" y="0px"
	 width="37.753px" height="10.52px" viewBox="381.124 294.74 37.753 10.52" enable-background="new 381.124 294.74 37.753 10.52"
	 xml:space="preserve">
<g>
	<g>
		<g>
			<path fill="#CA1431" d="M417.789,302.236c-0.367-1.168-0.613-1.876-0.984-2.9l0,0c0.892-0.582,1.14-1.537,1.148-2.174l0,0
				c-0.035-2.197-1.754-2.413-2.947-2.413l0,0l0,0l0,0c-0.01,0-0.018,0-0.024,0c-0.517,0-1.011,0-1.527,0c-0.17,0-0.094,0-0.264,0
				c0.082,0.067,0.264,0.34,0.264,0.845c0,1.96,0,4.633,0,6.706c0,0.271-0.185,0.798-0.271,0.882l0,0
				c0.173,0.034,0.111,0.017,0.271,0.049v-0.002c0.52,0.088,1.803,0.363,1.803,0.363c-0.178-0.236-0.25-0.486-0.25-0.966
				c0-0.858,0-2.088,0-2.92l0,0c0.135-0.009,0.293,0.051,0.435,0.042c0,0,0.901,2.855,1.332,4.188l0,0
				c0.498,0.133,1.789,0.52,1.896,0.537C418.402,304.191,417.838,302.395,417.789,302.236z M415.006,295.825
				c0.121,0.001,0.312,0.001,0.435,0.001l0,0c0.676,0,0.907,0.788,0.922,1.438l0,0c-0.013,0.62-0.246,1.521-1.355,1.35l0,0
				C415.006,297.669,415.006,296.64,415.006,295.825z"/>
			<path fill="#CA1431" d="M384.774,298.792c0.613-0.405,0.97-1.019,0.978-1.901l0,0c-0.015-1.354-0.877-2.21-2.786-2.142
				c-0.538,0-1.008,0-1.548,0c-0.17,0-0.124,0-0.294,0c0.1,0.081,0.247,0.395,0.247,0.845c0,2.293,0,5.691,0,7.82
				c0,0.531-0.155,0.857-0.246,0.994c0.169-0.031,1.5-0.374,2.155-0.537l0,0c2.645-0.578,2.69-2.594,2.69-3.141
				C385.971,300.311,385.75,299.163,384.774,298.792z M383.005,295.808c0.122-0.001,0.238-0.001,0.36-0.002l0,0
				c0.624-0.043,0.854,0.489,0.854,1.226l0,0c-0.009,0.523-0.223,1.264-0.749,1.286l0,0c-0.156,0.004-0.308,0.058-0.467,0.062l0,0
				C383.005,297.639,383.005,296.453,383.005,295.808z M383.427,302.434c-0.146,0.033-0.278,0.065-0.422,0.082l0,0
				c0-0.988,0-2.165,0-3.083l0,0c0.113-0.005,0.22-0.059,0.333-0.063l0,0c0.643-0.019,0.977,0.584,0.991,1.287l0,0
				C384.33,301.426,384.077,302.248,383.427,302.434z"/>
			<path fill="#CA1431" d="M401.047,301.721l1.646,0.051c-0.117-0.217-0.115-0.51-0.074-0.748c0.051-0.322,0.104-0.622,0.168-0.999
				l0,0c0.453,0.008,0.871,0.021,1.326,0.031l0,0c0.062,0.381,0.127,0.695,0.192,1.083c0.047,0.278-0.065,0.637-0.149,0.704l0,0
				c0.17,0.007,0.094,0.011,0.264,0.019l0,0c0.51,0.046,1.057,0.076,1.574,0.106c0,0-0.939-4.997-1.416-7.219
				c-0.752,0-1.369,0-2.127,0c-0.17,0-0.062,0.007-0.232,0.007c0.088,0.07,0.142,0.494,0.094,0.748
				c-0.327,1.753-0.756,3.669-1.104,5.475C401.105,301.424,401.047,301.721,401.047,301.721z M402.961,298.967
				c0.17-1.012,0.32-2.042,0.492-3.01l0,0c0.164,0.962,0.322,1.982,0.49,3.011l0.01,0.02
				C403.617,298.982,403.299,298.971,402.961,298.967z"/>
			<path fill="#CA1431" d="M389.327,299.029c0,0,0.137-0.617,0.256-1.139l0,0c-0.469,0.009-1.036,0.058-1.508,0.066l0,0
				c0-0.674,0-1.462,0-2.077l0,0c0.199,0,0.554-0.002,0.864-0.002c0.211,0,0.479,0.074,0.62,0.218l0,0
				c0.104-0.536,0.171-0.867,0.272-1.347l0,0c-1.296,0-2.311,0-3.613,0l0,0c0.1,0.081,0.272,0.366,0.272,0.738
				c0,1.787,0,4.235,0,6.466c0,0.481-0.186,1.11-0.276,1.225l0,0c1.184-0.233,2.229-0.444,3.43-0.631l0,0
				c0.104-0.589,0.178-0.978,0.281-1.573l0,0c-0.09,0.082-0.453,0.219-0.809,0.266c-0.365,0.044-0.727,0.093-1.043,0.132
				c0-0.714,0-1.567,0-2.27l0,0C388.208,299.096,389.327,299.029,389.327,299.029z"/>
			<path fill="#CA1431" d="M392.87,300.796c-0.331,0.024-0.679,0.062-1,0.086c0-0.655,0-1.368,0-2.032l0,0
				c0.284-0.007,1.02-0.092,1.279-0.1c0,0,0.139-0.59,0.229-1.079l0,0c-0.47,0.005-1.037,0.084-1.509,0.09l0,0
				c0-0.646,0-1.286,0-1.891l0,0c0.395-0.001,0.624-0.005,0.787-0.002c0.302,0,0.423,0.04,0.696,0.213l0,0
				c0.104-0.524,0.171-0.853,0.273-1.332c-1.126,0-2.208,0-3.341,0c-0.169,0-0.093,0-0.264,0l0,0
				c0.097,0.077,0.264,0.408,0.264,0.783c0,1.762,0,3.969,0,5.978c0,0.424-0.17,0.825-0.264,0.926l0,0
				c0.17-0.018,0.264-0.041,0.264-0.041c1.018-0.135,2.062-0.285,3.097-0.391c0,0,0.171-0.848,0.274-1.402l0,0
				C393.564,300.68,393.145,300.77,392.87,300.796z"/>
			<path fill="#CA1431" d="M400.258,300.559c-0.323-0.002-0.641-0.002-0.97,0c0-0.607,0-1.209,0-1.842l0,0
				c0.138,0,1.312,0.011,1.312,0.011c0.09-0.475,0.107-0.577,0.197-1.054l0,0c-0.469,0-1.037,0-1.509,0l0,0c0-0.624,0-1.216,0-1.812
				l0,0c0.195,0,0.701-0.006,1.001,0.001c0.216,0.002,0.477,0.055,0.611,0.212l0,0c0.103-0.519,0.171-0.847,0.274-1.326
				c-1.125,0-2.329,0-3.458,0c-0.169,0-0.276,0-0.281,0c0.081,0.065,0.271,0.347,0.271,0.708c0,1.738,0,3.681,0,5.484
				c0,0.443-0.176,0.729-0.263,0.804l0,0c0.169-0.004,0.093-0.001,0.263-0.003l0,0c1.023-0.02,2.007-0.039,3.036-0.029l0,0
				c0.104-0.49,0.184-0.896,0.286-1.424l0,0C400.931,300.361,400.628,300.559,400.258,300.559z"/>
			<path fill="#CA1431" d="M412.227,301.421c-0.327-0.058-0.557-0.071-0.959-0.172c0-0.707,0-1.493,0-2.192l0,0
				c0.134,0.005,1.312,0.062,1.312,0.062c0.088-0.535,0.106-0.651,0.197-1.171l0,0c-0.468-0.01-1.035-0.019-1.509-0.027l0,0
				c0-0.671,0-1.425,0-2.039l0,0c0.201,0.001,0.55,0.003,0.849,0.003c0.219,0.001,0.541,0.143,0.631,0.264l0,0
				c0.104-0.542,0.178-0.916,0.281-1.396l0,0c-1.297,0-2.312,0-3.613,0c0.1,0.081,0.271,0.319,0.271,0.747c0,1.782,0,4.078,0,6.134
				c0.023,0.372-0.17,0.716-0.264,0.798l0,0c1.209,0.178,2.086,0.381,3.299,0.594l0,0c0.104-0.609,0.179-1.086,0.283-1.709l0,0
				C412.801,301.477,412.334,301.43,412.227,301.421z"/>
			<path fill="#CA1431" d="M394.023,295.457c0,1.757,0,3.804,0,5.688c0,0.469-0.182,0.729-0.271,0.812l0,0
				c0.7-0.062,1.152-0.094,1.855-0.15v0.004c0.116-0.01,0.161-0.012,0.261-0.021l0,0c-0.199-0.209-0.263-0.562-0.263-0.747
				c0-0.569-0.001-1.727-0.001-2.299l0,0c0.146-0.002,1.073-0.005,1.311-0.005c0,0,0.107-0.579,0.197-1.058l0,0
				c-0.47,0.002-1.036,0.005-1.508,0.008l0,0c0-0.63,0-1.226,0-1.824l0,0c0.205-0.001,0.604-0.003,0.907,0
				c0.173,0.002,0.356,0.052,0.574,0.221l0,0c0.104-0.52,0.172-0.856,0.276-1.336c-1.297,0-2.3,0-3.604,0
				C393.856,294.825,394.023,295.123,394.023,295.457z"/>
			<path fill="#CA1431" d="M405.33,296.094c0.111-0.07,0.443-0.218,0.709-0.218c0.246,0,0.467-0.002,0.572-0.002l0,0
				c0,1.665,0,3.584,0,5.342c0,0.341-0.179,0.724-0.271,0.802l0,0c0.17,0.01,0.103,0.01,0.271,0.021l0,0
				c0.53,0.058,1.022,0.103,1.559,0.176v-0.002c0.104,0.015,0.125,0.021,0.23,0.029l0,0c-0.045-0.046-0.236-0.332-0.236-0.849
				c0-1.392,0.004-4.199,0.004-5.521l0,0c0.104,0,0.277,0.001,0.498,0.001c0.299,0,0.543,0.144,0.656,0.228l0,0
				c-0.025-0.527-0.035-0.798-0.054-1.35c-1.274,0-2.592,0-3.875,0C405.357,295.382,405.367,295.557,405.33,296.094z"/>
		</g>
		<g>
			<path fill="#98002E" d="M417.641,295.358c0,0.341,0.275,0.618,0.617,0.618s0.619-0.277,0.619-0.618
				c0-0.341-0.277-0.618-0.619-0.618S417.641,295.018,417.641,295.358z M417.709,295.358c0-0.303,0.246-0.549,0.549-0.549
				s0.549,0.246,0.549,0.549c0,0.303-0.246,0.549-0.549,0.549S417.709,295.661,417.709,295.358z"/>
			<path fill="#98002E" d="M418.113,295.085h0.194c0.082,0,0.14,0.026,0.14,0.113c0,0.088-0.058,0.113-0.14,0.113h-0.194V295.085z
				 M418.025,295.666h0.088v-0.279h0.166l0.178,0.279h0.105l-0.181-0.284c0.113-0.018,0.15-0.1,0.15-0.184
				c0-0.15-0.107-0.189-0.211-0.189h-0.297L418.025,295.666L418.025,295.666z"/>
		</g>
		<g>
			<g>
				<path fill="#98002E" d="M389.926,300.975c-0.245,0.356-0.406,0.567-0.632,0.898l-0.004,0.002
					c-0.695,0.114-1.21,0.198-2.032,0.33c0,0-0.602,0.654-1.037,0.973l0,0c1.193-0.25,2.242-0.445,3.432-0.631l0,0
					C389.755,301.958,389.822,301.568,389.926,300.975z"/>
				<path fill="#98002E" d="M389.327,299.032c0.104-0.495,0.133-0.598,0.256-1.142c-0.156,0.192-0.307,0.381-0.465,0.58l0,0
					c-0.584,0.015-1.262,0.07-1.85,0.087l0,0c0,0.89,0.011,2.698,0.011,3.634h-0.017c0.333-0.318,0.523-0.613,0.812-0.815l0,0
					c0-0.716,0-1.571,0-2.275l0,0C388.268,299.094,389.327,299.032,389.327,299.032z"/>
				<path fill="#98002E" d="M389.833,294.749c-0.201,0.177-0.395,0.351-0.598,0.538l0,0c-0.662,0-1.3,0.001-1.967,0.001l0,0
					c0,0.781,0.011,2.363,0.011,3.276l0,0c0.316-0.271,0.493-0.413,0.796-0.607l0,0c0-0.674,0-1.462,0-2.077l0,0
					c0.291-0.001,0.573-0.002,0.86-0.002c0.229,0,0.518,0.092,0.624,0.218l0,0C389.663,295.56,389.73,295.229,389.833,294.749z"/>
				<path fill="#98002E" d="M393.658,300.602c-0.202,0.344-0.346,0.498-0.532,0.789c0,0-1.358,0.187-2.063,0.235l-0.045,0.022
					c-0.405,0.301-0.594,0.449-0.992,0.785l0,0c1.211-0.17,2.301-0.308,3.358-0.431
					C393.383,302.004,393.554,301.156,393.658,300.602z"/>
				<path fill="#98002E" d="M393.372,297.671c-0.158,0.185-0.309,0.364-0.467,0.554l0,0c-0.583,0.009-1.247,0.093-1.833,0.104l0,0
					c0,0.845,0.007,2.424,0.007,3.278l0,0c0.278-0.231,0.518-0.476,0.784-0.719l0,0c0-0.658,0-1.373,0-2.039l0,0
					c0.202-0.005,1.286-0.093,1.286-0.093C393.251,298.267,393.257,298.198,393.372,297.671z"/>
				<path fill="#98002E" d="M393.627,294.749c-0.202,0.177-0.395,0.351-0.598,0.536l0,0c-0.662,0-1.285,0-1.951,0.001l0,0
					c0,0.773,0,2.162,0,3.035l0,0c0.347-0.252,0.522-0.4,0.791-0.561l0,0c0-0.646,0-1.286,0-1.891l0,0
					c0.303,0,0.556-0.001,0.854-0.002c0.08,0,0.264-0.024,0.63,0.213l0,0C393.457,295.557,393.524,295.229,393.627,294.749z"/>
				<path fill="#98002E" d="M397.365,294.749c-0.202,0.177-0.396,0.351-0.599,0.535l0,0c-0.663,0-1.271,0-1.938,0l0,0
					c0,0.77,0.012,2.111,0.012,2.96l0,0c0.343-0.281,0.478-0.38,0.767-0.556l0,0c0-0.63,0-1.226,0-1.824l0,0
					c0.307-0.001,0.604-0.001,0.906-0.001c0.214-0.007,0.503,0.144,0.575,0.222l0,0C397.191,295.565,397.26,295.229,397.365,294.749
					z"/>
				<path fill="#98002E" d="M401.027,300.289c-0.168,0.325-0.579,0.828-0.579,0.828c-0.7-0.006-1.998-0.008-1.998-0.008
					c-0.427,0.195-0.579,0.438-1.008,0.636l0,0c1.192-0.026,2.099-0.043,3.299-0.032l0,0
					C400.806,301.408,400.881,301.038,401.027,300.289z"/>
				<path fill="#98002E" d="M400.797,297.674c-0.157,0.179-0.349,0.351-0.507,0.53l0,0c-0.583,0-1.22,0-1.808,0.002l0,0
					c0,0.804-0.025,2.896-0.025,2.896c0.273-0.139,0.579-0.367,0.831-0.539l0,0c0-0.609,0-1.212,0-1.847l0,0
					c0.19-0.001,1.312,0.017,1.312,0.017C400.689,298.259,400.708,298.15,400.797,297.674z"/>
				<path fill="#98002E" d="M401.176,294.749c-0.203,0.177-0.395,0.35-0.597,0.534l0,0c-0.664,0-1.428,0-2.096,0l0,0
					c0,0.768,0.008,2.086,0.008,2.924l0,0c0.341-0.24,0.512-0.35,0.798-0.533l0,0c0-0.624,0-1.216,0-1.812l0,0
					c0.286,0,0.691,0,0.975,0c0.191,0.003,0.474,0.04,0.639,0.213l0,0C401.004,295.557,401.072,295.229,401.176,294.749z"/>
				<path fill="#98002E" d="M412.775,297.952c-0.156,0.192-0.308,0.378-0.464,0.573l0,0c-0.584-0.017-1.262-0.031-1.85-0.045l0,0
					c0,0.866,0.004,2.486,0.004,3.379v0.013c0.351-0.269,0.488-0.388,0.801-0.611l0,0c0-0.71,0-1.498,0-2.198l0,0
					c0.191,0.007,1.316,0.05,1.316,0.05C412.672,298.577,412.686,298.472,412.775,297.952z"/>
				<path fill="#98002E" d="M413.027,294.751c-0.203,0.177-0.396,0.352-0.599,0.539l0,0c-0.664,0-1.299,0-1.967-0.001l0,0
					c0,0.777,0.016,2.293,0.016,3.186l0,0c0.296-0.232,0.503-0.367,0.789-0.555l0,0c0-0.671,0-1.425,0-2.039l0,0
					c0.283,0.001,0.562,0.002,0.841,0.003c0.231,0,0.545,0.139,0.639,0.264l0,0C412.85,295.605,412.924,295.231,413.027,294.751z"/>
				<g>
					<path fill="#98002E" d="M383.698,298.808c0.95-0.384,1.305-1.172,1.315-1.851l0,0c-0.001-0.247-0.068-0.966-0.38-1.226
						l0.52-0.396c0.478,0.426,0.586,1.165,0.591,1.562c-0.006,0.877-0.36,1.482-0.979,1.892
						C384.709,298.793,383.698,298.808,383.698,298.808z"/>
					<path fill="#98002E" d="M385.356,299.173c0.378,0.386,0.604,0.949,0.617,1.562l0,0c-0.007,1.011-0.258,2.551-2.69,3.14l0,0
						c-0.664,0.179-1.985,0.506-2.155,0.537c0.422-0.39,0.6-0.558,1.028-0.933l0,0c0.516-0.119,0.839-0.209,1.24-0.312l0,0
						c1.274-0.348,1.731-1.386,1.755-2.357l0,0c-0.004-0.513-0.12-0.911-0.341-1.25L385.356,299.173z"/>
				</g>
				<path fill="#98002E" d="M383.534,295.805c0.051-0.001,0.052,0.005-0.528,0.007v0.008c0,0.639,0,1.819,0,2.56l0,0
					c-0.279,0.156-0.47,0.299-0.787,0.521l-0.02-0.5c0-0.959,0-2.323,0-3.109l0,0c0.585-0.001,0.863-0.001,1.451-0.002
					c0.534,0,0.888,0.334,0.98,0.436c-0.112,0.071-0.543,0.396-0.568,0.418C383.963,295.98,383.753,295.805,383.534,295.805z"/>
				<path fill="#98002E" d="M383.343,299.366L383.343,299.366c-0.114,0.005-0.224,0.059-0.338,0.063l0,0c0,0.912,0,2.088,0,3.079
					l0,0c-0.271,0.342-0.472,0.57-0.841,0.967l0.034-0.674c0-1.201,0-2.799,0-3.882l0,0c0.523-0.019,0.907-0.094,1.435-0.11
					c0.586-0.018,1.107,0.614,1.184,0.748c-0.099,0.052-0.579,0.411-0.604,0.429C384.07,299.666,383.843,299.366,383.343,299.366z"
					/>
				<path fill="#98002E" d="M403.934,295.432c-0.141,0.189-0.297,0.289-0.479,0.525l0,0c-0.172,0.966-0.32,2-0.492,3.022l0,0
					c-0.272,0.166-0.428,0.289-0.766,0.474c0,0,0.565-2.911,0.797-4.02L403.934,295.432z"/>
				<path fill="#98002E" d="M401.855,301.166c0.075-0.387,0.241-1.258,0.319-1.662l0.013-0.021c0.422,0.005,2.245,0.079,2.555,0.084
					l-0.631,0.489l-1.326-0.032c-0.066,0.38-0.113,0.65-0.168,1.006c-0.039,0.21-0.047,0.518,0.072,0.739l-1.644-0.045
					C401.357,301.504,401.553,301.363,401.855,301.166z"/>
				<path fill="#98002E" d="M405.992,301.969c-0.285-1.467-0.756-4.141-1.416-7.22c-0.23,0.199-0.389,0.457-0.619,0.666l0,0
					c0.396,1.894,0.75,3.973,1.139,5.944l0,0c-0.389,0.235-0.555,0.276-0.94,0.482l0,0
					C404.838,301.896,405.316,301.92,405.992,301.969z"/>
				<path fill="#98002E" d="M415.998,299.116c-0.656,0.155-1.037,0.1-1.746,0.059l0,0c0,0.89,0.004,2.604,0.004,3.537
					c0,0-0.645,0.274-1.074,0.47l0,0c0.854,0.157,1.146,0.211,2.08,0.41c-0.164-0.227-0.256-0.354-0.256-1.066
					c0-0.912,0-0.879,0-2.785c0.125-0.008,0.244,0.021,0.434,0.01L415.998,299.116z"/>
				<path fill="#98002E" d="M418.668,304.475c-0.266-0.254-0.828-2.102-0.871-2.236c-0.391-1.176-0.631-1.846-0.992-2.901l0,0
					c0.761-0.523,1.146-1.368,1.156-2.24l0,0c-0.006-0.741-0.316-1.49-0.828-1.821c0,0-0.276,0.25-0.492,0.394l0,0
					c0.377,0.277,0.529,0.99,0.529,1.492l0,0c0,0.903-0.566,1.701-1.145,1.942c0,0,0.989,2.923,1.426,4.351h-0.041
					c-0.215,0.166-0.422,0.322-0.639,0.482l0,0C417.354,304.092,417.938,304.268,418.668,304.475z"/>
				<path fill="#98002E" d="M415.434,295.826c-0.186-0.001-0.174,0-0.428-0.001l0,0c0,0.807,0,1.832,0,2.779l0,0
					c-0.26,0.19-0.432,0.337-0.762,0.582l-0.004-0.585c0-1.138,0-2.358,0-3.303l0,0c0.584,0,0.729,0.001,1.315,0.001
					c0.591,0,0.912,0.23,1.078,0.364c-0.026,0.031-0.594,0.432-0.617,0.448C415.908,295.999,415.709,295.826,415.434,295.826z"/>
				<path fill="#98002E" d="M396.649,298.217c-0.584,0.005-1.233,0.01-1.82,0.017l0,0c0,1.036,0,2.094,0,3.094l0,0
					c-0.433,0.206-0.643,0.416-1.075,0.63l0,0c1.048-0.082,1.421-0.126,2.116-0.168l0,0c-0.234-0.229-0.265-0.699-0.265-0.815
					c0-0.744,0-1.443,0-2.229l0,0c0.203-0.002,1.312-0.005,1.312-0.005c0.089-0.479,0.107-0.579,0.197-1.058l0,0
					C396.957,297.86,396.806,298.034,396.649,298.217z"/>
				<path fill="#98002E" d="M408.656,295.871c0.291,0,0.571,0.145,0.666,0.228l0,0c-0.025-0.557-0.035-0.748-0.054-1.35
					c-0.18,0.174-0.28,0.358-0.461,0.541l0,0c-0.518,0-0.879,0-1.399-0.001l0,0c0,1.947,0,4.05,0,6.193l0,0
					c-0.431,0.218-0.621,0.328-1.068,0.533l0,0c0.871,0.082,1.228,0.123,2.06,0.223v-0.006c-0.117-0.119-0.229-0.424-0.229-0.84
					c0-1.806,0-3.833,0-5.522l0,0C408.336,295.87,408.471,295.871,408.656,295.871z"/>
				<path fill="#98002E" d="M413.002,301.312c-0.207,0.342-0.428,0.613-0.645,0.92l0,0c-0.736-0.144-1.16-0.219-1.91-0.358l0,0
					c-0.424,0.228-0.601,0.324-1.025,0.556l0,0c1.316,0.194,2.107,0.381,3.299,0.594l0,0
					C412.824,302.413,412.898,301.938,413.002,301.312z"/>
			</g>
			<path fill="#98002E" d="M406.611,295.874c-0.17,0-0.369-0.001-0.56-0.001c-0.235,0.003-0.631,0.158-0.723,0.221l0,0
				c0.18-0.317,0.342-0.497,0.522-0.801l0,0c0.232,0,1.529,0,1.529,0C407.066,295.512,406.893,295.668,406.611,295.874z"/>
		</g>
	</g>
	<g>
		<g>
			<path fill="#231F20" d="M393.164,303.18h0.45v1.637h1.02v0.408h-1.47V303.18z"/>
			<path fill="#231F20" d="M394.911,304.207v-0.006c0-0.581,0.459-1.059,1.091-1.059c0.631,0,1.084,0.471,1.084,1.053v0.006
				c0,0.582-0.459,1.059-1.09,1.059C395.364,305.26,394.911,304.789,394.911,304.207z M396.615,304.207v-0.006
				c0-0.352-0.257-0.643-0.619-0.643s-0.614,0.285-0.614,0.637v0.006c0,0.351,0.258,0.645,0.62,0.645
				S396.615,304.559,396.615,304.207z"/>
			<path fill="#231F20" d="M397.631,303.18h0.415l0.959,1.26v-1.26h0.444v2.045h-0.383l-0.991-1.301v1.301h-0.444V303.18
				L397.631,303.18z"/>
			<path fill="#231F20" d="M400.086,303.18h0.798c0.644,0,1.086,0.44,1.086,1.016v0.007c0,0.575-0.442,1.022-1.086,1.022h-0.798
				V303.18z M400.884,304.818c0.368,0,0.616-0.25,0.616-0.611v-0.006c0-0.362-0.248-0.616-0.616-0.616h-0.348v1.233H400.884z"/>
			<path fill="#231F20" d="M402.428,304.207v-0.006c0-0.581,0.459-1.059,1.09-1.059c0.632,0,1.084,0.471,1.084,1.053v0.006
				c0,0.582-0.459,1.059-1.09,1.059S402.428,304.789,402.428,304.207z M404.131,304.207v-0.006c0-0.352-0.258-0.643-0.619-0.643
				c-0.362,0-0.612,0.285-0.612,0.637v0.006c0,0.351,0.256,0.645,0.618,0.645C403.879,304.846,404.131,304.559,404.131,304.207z"/>
			<path fill="#231F20" d="M405.148,303.18h0.414l0.959,1.26v-1.26h0.442v2.045h-0.383l-0.99-1.301v1.301h-0.442V303.18
				L405.148,303.18z"/>
		</g>
	</g>
</g>
</svg>
