<?xml version="1.0" encoding="utf-8"?>
<!-- Generator: Adobe Illustrator 16.0.0, SVG Export Plug-In . SVG Version: 6.00 Build 0)  -->
<!DOCTYPE svg PUBLIC "-//W3C//DTD SVG 1.1//EN" "http://www.w3.org/Graphics/SVG/1.1/DTD/svg11.dtd">
<svg version="1.1" xmlns="http://www.w3.org/2000/svg" xmlns:xlink="http://www.w3.org/1999/xlink" x="0px" y="0px"
	 width="521.877px" height="722.804px" viewBox="0 0 521.877 722.804" enable-background="new 0 0 521.877 722.804"
	 xml:space="preserve">
<g>
	<path d="M521.875,685.833c0,0-0.428-7.695-0.855-9.405s-3.847-1.282-3.847-1.282c0-5.558-1.283-22.229-15.817-18.381
		s-17.527,3.847-17.527,3.847s0-4.274-4.702-10.26s-6.84-0.854-11.969-7.267s-11.542-17.1-18.81-28.642
		s-11.541-21.374-18.809-29.924s-10.26-11.969-20.092-29.068s-11.114-24.793-11.114-24.793c37.618,14.107,55.145,9.404,55.145,9.404
		c11.541-2.564,15.817-13.252,15.817-13.252c8.122-26.076-3.848-73.954-3.848-73.954c3.847-5.13,4.275-8.122,4.275-8.122
		c-2.992-47.022-36.336-65.404-36.336-65.404c1.282-8.55-7.268-10.687-14.107-16.244s-10.259-6.413-10.259-6.413
		s-2.565-4.274-6.84-9.832s-3.42-8.122-3.42-14.106s27.358-20.092,27.358-20.092c2.137,4.702,42.32,4.275,56.854-17.099
		s2.565-31.206,2.565-31.206c37.618-45.74,39.328-73.526,31.633-87.633c-1.255-2.301-2.924-4.198-4.831-5.771
		c0.038-0.277,0.093-0.561,0.112-0.829c0,0,1.433-44.851-25.288-70.14s-51.532-30.06-70.618-33.877s-30.537-0.477-32.923-7.157
		s0-11.928,14.314-16.223s14.792-10.975-0.954-26.243s-52.486-26.243-95.906-3.34c-28.462,15.013-46.056,47.861-48.352,78.657
		c-3.993-0.404-10.572-0.882-19.403-0.882c0,0,6.203-16.7,4.771-20.517s-15.269-6.203-15.269-6.203s13.837-10.02-1.432-18.608
		c0,0,1.432-10.497-21.471-23.38S156.98,2.629,116.9,6.446S41.989,20.284,27.674,50.821l2.863,2.386c0,0-4.771,0.477-5.726,9.543
		s4.294,7.157,4.294,7.157s3.34,1.431,0.477,3.34s-3.817,3.34-3.817,3.34s-11.452,4.294-9.543,7.634s8.112,10.497,11.452,20.517
		c0,0-24.334,1.909-27.674,5.249c0,0,1.432,2.385,9.543,8.111s19.563,14.314,19.563,14.314s14.314,0.955,36.263,1.432
		c0,0,4.772,8.112,18.609,10.02s22.903,6.203,27.197,13.837s6.68,22.426,2.863,53.44s-8.588,34.832,0,71.095
		c0,0,11.451,32.923,24.334,47.237c0,0-1.431,14.314,5.726,24.334c0,0,20.517,17.655,20.04,20.041c0,0-14.792,20.039-19.086,32.445
		s-4.771,19.563-1.908,20.518c0,0-10.021,52.962,18.608,104.494c0,0,0.954,8.113,2.385,20.996c0.501,4.515,2.413,12.549,5.07,21.241
		c1.512,24.537,8.547,49.024,8.547,49.024c-0.855,10.688,6.412,25.648,6.412,25.648c-11.542,16.244-11.114,26.504-11.114,26.504
		c-5.557,6.412-7.695,13.252-7.695,13.252s-5.557-0.428-10.259-1.283s-8.122-4.274-14.962-0.427s-5.557,13.252-5.557,13.252
		c-6.412-0.427-5.557,17.099-5.557,17.099c15.817,13.679,93.19,0.428,93.19,0.428s23.084-0.855,33.343-3.42
		c10.259-2.564,8.122,0,16.244-1.71s30.778-8.122,30.778-8.122c0.427-3.42,0-6.412-0.854-12.824s-0.428-19.236-0.428-26.504
		s-1.71-20.946-2.992-26.931s1.71-5.13,1.71-5.13s2.564,2.564,11.542,11.542s12.396,14.961,22.656,28.213
		s11.114,21.802,11.114,21.802c8.122,5.13,40.61,7.267,51.297,7.267s1.71-0.427,64.122-1.71S521.875,685.833,521.875,685.833z
		 M155.549,188.238c-1.432-19.086-1.908-35.786,2.386-44.375s6.68-8.111,13.837-16.223c0,0,53.44-1.432,62.983-9.066
		c7.598-6.078,9.758-9.137,17.785-16.63c0.48,12.473,3.667,24.215,9.89,33.807c0,0,0,12.406-0.477,15.746
		c0,0-3.817,11.929-5.726,24.334s-1.909,19.085-4.771,23.38s-18.131,22.902-17.654,38.171s7.634,29.106,15.746,42.943
		s13.361,21.472,17.655,30.06h-2.386c0,0-1.909-3.817-12.406-3.817c0,0-13.837-3.817-20.517-2.386c0,0-6.203-2.862-16.223-9.065
		s-15.746-11.452-21.949-14.314s-14.314-5.249-14.314-5.249s-2.863-11.929-10.975-34.832S156.98,207.324,155.549,188.238z"/>
	<path fill="none" d="M264.814,310.387h2.387c-1.542-3.083-3.21-6.047-5.087-9.215l-7.379,5.474
		C263.179,307.16,264.814,310.387,264.814,310.387z"/>
	<path fill="none" d="M393.631,359.047c5.495-2.29,8.945-3.652,12.214-3.728l-0.06-0.092c-6.736,0.308-13.29,3.783-20.193,7.54
		C388.595,361.298,391.165,360.074,393.631,359.047z"/>
	<g>
		<path fill="#FFFFFF" d="M409.193,697.772c-3.25-1.75,6.5-8,18.75-12.75c5.566-2.159,17.79-7.882,29.191-14.842
			c-1.001-1.776-2.478-3.626-4.691-5.158c-2.364-1.637-4.762-2.612-7.107-3.696c-3.686,1.002-7.512,1.903-11.476,2.696
			c-11.489,2.298-3.618-1.345,5.414-6.377c-1.717-1.477-3.357-3.436-4.88-6.257c-5.417,3.256-10.143,5.91-12.701,7.384
			c-8.25,4.75-18.75,13.5-23.75,15.25c-0.938,0.328-2.771,0.612-5.204,0.857c7.43,8.806,7.396,10.113,9.954,16.393
			c1.507,3.699,3.387,6.791,4.78,8.836c6.158-0.196,13.656-0.589,23.406-1.244c0,0,2.434-2.434,5.185-5.24
			C426.508,695.794,411.392,698.956,409.193,697.772z"/>
		<path fill="#999999" d="M433.86,664.022c3.964-0.793,7.79-1.694,11.476-2.696c-2.08-0.962-4.12-2.013-6.062-3.681
			C430.242,662.677,422.371,666.32,433.86,664.022z"/>
		<path fill="#940026" d="M453.86,646.022c-0.567,3.404-7.895,7.895-14.586,11.623c1.941,1.668,3.981,2.719,6.062,3.681
			c11.809-3.211,22.107-7.498,30.397-12.858c-0.925-0.513-1.91-0.785-3.09-0.893c-2.993-0.272-5.033-1.225-8.435-6.938
			c-1.129-1.896-2.727-4.367-4.539-7.117c-1.987,1.899-4.407,3.88-7.059,5.866C453.699,641.629,454.24,643.746,453.86,646.022z"/>
		<path fill="#CE123C" d="M452.443,665.022c2.214,1.532,3.69,3.382,4.691,5.158c9.271-5.66,17.998-12.137,22.156-18.187
			c-1.258-1.772-2.354-2.858-3.558-3.526c-8.29,5.36-18.589,9.647-30.397,12.858C447.682,662.41,450.079,663.385,452.443,665.022z"
			/>
		<path fill="#CE123C" d="M453.86,646.022c0.38-2.276-0.161-4.393-1.249-6.637c-5.639,4.223-12.335,8.469-18.217,12.003
			c1.522,2.821,3.163,4.78,4.88,6.257C445.966,653.917,453.293,649.426,453.86,646.022z"/>
		<path fill="#999999" d="M427.943,685.022c-12.25,4.75-22,11-18.75,12.75c2.198,1.184,17.314-1.978,26.871-4.148
			c1.943-1.981,4.043-4.146,5.562-5.779c3.673-3.945,5.306-6.802,8.843-10.339c3.366-3.366,5.132-4.27,7.64-5.286
			c-0.258-0.653-0.58-1.339-0.975-2.039C445.733,677.14,433.51,682.863,427.943,685.022z"/>
		<path fill="#940026" d="M479.99,653.017c-0.24-0.366-0.472-0.702-0.699-1.023c-4.158,6.05-12.886,12.526-22.156,18.187
			c0.395,0.7,0.717,1.386,0.975,2.039c0.127-0.052,0.255-0.104,0.387-0.156c2.721-1.088,8.162-3.13,13.195-5.034
			s8.842-5.17,11.155-6.258C482.847,660.771,482.575,656.962,479.99,653.017z"/>
		<path fill="#999999" d="M353.693,689.022c-0.564-2.484-3.177-6.709-7.408-12.249c-2.596,0.513-4.55,1.353-5.97,2.184
			c3.057,4.956,5.434,9.987,5.945,14.466c0,0,2.345,1.302,7.668,2.68C354.337,693.745,354.215,691.318,353.693,689.022z"/>
		<path fill="#940026" d="M324.443,651.522c-4.585-4.928-8.643-9.082-12.317-12.663c-1.585-0.264-3.129-0.595-4.61-1.006
			c6.418,6.466,13.533,15.058,19.928,23.419c3.688,4.822,8.864,11.188,12.872,17.685c1.42-0.831,3.374-1.671,5.97-2.184
			C341.149,670.05,333.626,661.389,324.443,651.522z"/>
		<path fill="none" d="M198.862,607.537c0.255,0.121,0.511,0.242,0.767,0.362c0.046,0.021,0.092,0.042,0.138,0.063
			C199.465,607.821,199.163,607.679,198.862,607.537z"/>
		<path fill="#940026" d="M251.443,598.022c-1-0.5,2.25,13,4.5,22.5c0.519,2.19,1.023,3.999,1.494,5.611
			c4.845,1.31,9.167,2.282,12.256,2.389c6.859,0.236,11.706-0.642,17.078,1.168c0.204-3.349,0.31-6.658,0.364-9.184
			c-11.004-7.876-23.142-14.258-25.692-15.734C256.693,602.022,252.443,598.522,251.443,598.022z"/>
		<path fill="#940026" d="M286.771,629.69c0.306,0.104,0.612,0.211,0.922,0.332c3.605,1.411,7.014,2.921,9.671,5.329
			c-0.35-4.222-0.421-6.829-0.421-6.829s0.253,0.169,0.733,0.526c-3.085-2.933-6.746-5.825-10.541-8.542
			C287.081,623.032,286.976,626.341,286.771,629.69z"/>
		<path fill="#FFFFFF" d="M269.693,628.522c-3.09-0.106-7.411-1.079-12.256-2.389c1.571,5.377,2.756,8.464,2.756,15.389
			c0,9,1,12.25,2.25,22.75c0.182,1.53,0.247,2.844,0.229,4.016c0.997-0.658,2.066-1.399,3.271-2.266c8-5.75,18.25-18.25,19.75-26.25
			c0.518-2.76,0.856-6.441,1.078-10.082C281.399,627.88,276.553,628.758,269.693,628.522z"/>
		<path fill="#999999" d="M286.771,629.69c-0.222,3.641-0.561,7.322-1.078,10.082c-1.5,8-11.75,20.5-19.75,26.25
			c-1.205,0.866-2.275,1.607-3.271,2.266c-0.034,2.211-0.375,3.896-0.881,5.415c5.968-0.829,10.72-3.729,23.402-5.681
			c7.487-1.152,12.13-0.938,15.017-0.24c0.003-6.073-0.174-12.347-1.017-17.51c-0.955-5.852-1.509-11.06-1.829-14.921
			c-2.657-2.408-6.065-3.918-9.671-5.329C287.384,629.901,287.077,629.793,286.771,629.69z"/>
		<path fill="#940026" d="M261.791,673.703c0.505-1.52,0.847-3.204,0.881-5.415c-4.233,2.8-6.975,3.916-11.329,4.836
			C255.776,674.016,258.928,674.1,261.791,673.703z"/>
		<path fill="#999999" d="M251.343,673.124c-1.425,0.302-3.014,0.584-4.899,0.898c-9,1.5-25.5,8-10.75,14.75
			c6.142,2.811,13.887,4.49,21.684,5.028c-0.203-2.724-0.064-5.695,0.566-9.028c1.014-5.359,2.782-7.867,3.848-11.069
			C258.928,674.1,255.776,674.016,251.343,673.124z"/>
		<path fill="#940026" d="M301.943,703.022c-0.75,0-0.5-7.5-1.5-14.75c-0.007-0.05-0.012-0.105-0.019-0.156
			c-2.656,5.385-6.845,12.73-12.243,18.554C295.648,704.75,302.276,703.022,301.943,703.022z"/>
		<path fill="#940026" d="M285.193,668.022c-12.683,1.951-17.435,4.852-23.402,5.681c-1.066,3.202-2.833,5.71-3.848,11.069
			c-0.63,3.333-0.769,6.305-0.566,9.028c10.929,0.755,21.958-0.734,28.816-4.528c5.714-3.16,10.712-8.925,13.973-15.562
			c0.022-1.923,0.043-3.913,0.044-5.928C297.323,667.083,292.681,666.87,285.193,668.022z"/>
		<path fill="#CE123C" d="M286.193,689.272c-6.857,3.794-17.887,5.283-28.816,4.528c0.36,4.837,1.807,8.884,3.566,12.722
			c0.576,1.257,0.912,2.363,1.099,3.34c3.78,0.321,7.599,0.532,11.043,0.667c3.961-1.008,9.743-2.482,15.097-3.859
			c5.398-5.823,9.587-13.169,12.243-18.554c-0.415-3.197-0.329-8.467-0.259-14.406C296.905,680.347,291.907,686.112,286.193,689.272
			z"/>
		<path fill="#999999" d="M243.193,706.272c-10-4.75-24.75-12-19.75-6.75s11.75,8.5,3.25,6.75
			c-5.056-1.041-11.615-3.674-17.153-4.795c0.676,1.011,1.265,1.906,1.903,2.545c2,2,3,3.25,6,6.25s3.75,3,4.25,6
			c0,0,12.25-1.25,20.75-2s14-2.75,18.5-2.75c0.446,0,0.871,0.003,1.281,0.008c-0.009-0.504-0.066-1.059-0.183-1.668
			C254.493,709.219,247.104,708.129,243.193,706.272z"/>
		<path fill="#940026" d="M262.225,711.53c3.732,0.04,5.969,0.242,5.969,0.242s1.948-0.494,4.892-1.243
			c-3.444-0.135-7.263-0.346-11.043-0.667C262.159,710.471,262.215,711.026,262.225,711.53z"/>
		<path fill="#999999" d="M220.443,578.772c-8.111-3.432-21.771-8.043-37.758-22.917c-0.106-0.051-0.212-0.1-0.311-0.147
			c1.46,1.902,2.843,3.66,4.068,5.314c1.962,2.648,3.999,5.459,5.857,8.748c8.819,5.415,19.775,9.282,26.393,12.502
			C227.943,586.772,233.443,584.272,220.443,578.772z"/>
		<path fill="none" d="M181.993,555.211c0.129,0.169,0.254,0.33,0.382,0.496c0.099,0.048,0.204,0.097,0.311,0.147
			C182.455,555.64,182.225,555.43,181.993,555.211z"/>
		<path fill="#CE123C" d="M200.163,608.145c-0.275-5.451-0.655-11.744-1.47-18.373c-1.063-8.658-3.514-14.909-6.393-20.002
			c-3.508-2.153-6.688-4.545-9.107-7.248c-8.5-9.5-11-12-13.25-15.5s1.25,20.75,2.5,35.75c0.356,4.275,1.024,9.043,1.892,13.939
			c0.924,0.396,1.881,0.764,2.858,1.061c0.313,0.096,0.642,0.203,0.984,0.321c0.158,0.055,0.329,0.119,0.493,0.179
			c0.191,0.069,0.377,0.134,0.576,0.209c0.209,0.079,0.432,0.168,0.65,0.254c0.165,0.064,0.323,0.125,0.492,0.193
			c0.25,0.101,0.511,0.21,0.77,0.318c0.149,0.062,0.293,0.12,0.445,0.185c0.273,0.115,0.558,0.239,0.84,0.362
			c0.148,0.064,0.292,0.126,0.443,0.192c0.301,0.132,0.612,0.272,0.923,0.411c0.14,0.062,0.275,0.122,0.416,0.187
			c0.32,0.145,0.649,0.296,0.979,0.447c0.142,0.065,0.28,0.128,0.422,0.194c0.347,0.16,0.702,0.326,1.058,0.492
			c0.128,0.061,0.253,0.118,0.381,0.179c0.384,0.181,0.775,0.365,1.168,0.552c0.104,0.05,0.207,0.098,0.312,0.148
			c0.438,0.208,0.881,0.42,1.328,0.634c0.057,0.027,0.113,0.054,0.17,0.081c1.65,0.791,3.358,1.616,5.091,2.449
			c0.033,0.016,0.066,0.032,0.099,0.048c0.479,0.229,0.959,0.46,1.441,0.69c0.151,0.072,0.303,0.145,0.454,0.217
			c0.389,0.185,0.777,0.37,1.167,0.555c0.188,0.089,0.376,0.178,0.565,0.267c0.301,0.143,0.603,0.284,0.905,0.426
			C199.899,608.025,200.03,608.083,200.163,608.145z"/>
		<path fill="#999999" d="M166.693,540.522c0,0-0.93,0.122-2.695-0.708c0.377,3.356,0.805,7.416,1.195,11.708
			c0.352,3.875,0.892,7.149,1.507,9.954C166.384,555.267,166.189,547.325,166.693,540.522z"/>
		<path fill="#940026" d="M172.443,582.772c-1.25-15-4.75-39.25-2.5-35.75s4.75,6,13.25,15.5c2.419,2.703,5.6,5.095,9.107,7.248
			c-1.859-3.289-3.896-6.1-5.857-8.748c-1.226-1.654-2.608-3.412-4.068-5.314c-2.372-1.128-2.682-1.436-2.682-1.436
			s0.31,0.308,2.682,1.436c-0.128-0.166-0.252-0.327-0.382-0.496c-5.987-5.659-12.292-12.767-18.747-21.794
			c0.19,1.542,0.456,3.751,0.752,6.396c1.765,0.83,2.695,0.708,2.695,0.708c-0.504,6.803-0.31,14.745,0.007,20.954
			c1.131,5.159,2.521,8.705,3.493,11.296c0,0,0.5,10,1.75,20.5c0.098,0.82,0.217,1.652,0.346,2.487
			c0.652,0.329,1.34,0.648,2.045,0.952C173.468,591.815,172.8,587.047,172.443,582.772z"/>
		<path fill="#CE123C" d="M260.193,641.522c0-6.925-1.186-10.012-2.756-15.389c-6.523-1.764-14.001-4.14-20.744-5.861
			c-11.75-3-23-6-33-10.5c-1.169-0.526-2.35-1.07-3.53-1.623c-0.132-0.062-0.264-0.125-0.396-0.187
			c-0.046-0.021-0.092-0.042-0.138-0.063c-0.352,5.095,0.51,9.772,1.564,14.623c1.25,5.75,5.5,14.75,7.75,23s1.25,11-1,18.5
			c-0.812,2.705-2.017,4.459-3.456,5.759c3.635,0.172,7.052,0.053,9.706-0.009c10.75-0.25,20.25-0.5,35.5,3
			c0.573,0.132,1.116,0.245,1.649,0.352c4.354-0.92,7.096-2.036,11.329-4.836c0.018-1.172-0.046-2.485-0.229-4.016
			C261.193,653.772,260.193,650.522,260.193,641.522z"/>
		<path fill="none" d="M203.693,609.772c-1.169-0.526-2.35-1.074-3.53-1.627c0,0.001,0,0.003,0,0.004
			C201.344,608.702,202.524,609.246,203.693,609.772z"/>
		<path fill="none" d="M200.163,608.149c0-0.001,0-0.003,0-0.004c-0.133-0.062-0.264-0.12-0.396-0.183
			C199.899,608.024,200.031,608.087,200.163,608.149z"/>
		<path fill="#CE123C" d="M186.193,651.522c-0.407-1.017-0.879-1.908-1.408-2.772c-0.694,0.838-2.21,2.788-3.978,5.809
			c0.424,2.385,1.226,4.391,2.299,6.098C186.038,658.386,187.79,655.512,186.193,651.522z"/>
		<path fill="#999999" d="M190.943,650.272c-0.25-5-3.25-8-7.75-19.75c-3.217-8.401-6.683-21.526-8.858-33.811
			c-0.706-0.304-1.394-0.623-2.045-0.952c1.52,9.859,5.041,20.56,6.654,27.013c0,0-0.069,0.51-0.13,1.345
			c1.554,3.75,4.837,11.705,6.88,16.905C188.443,648.022,191.193,655.272,190.943,650.272z"/>
		<path fill="#FFFFFF" d="M183.106,660.656c4.367,6.946,13.397,8.748,21.381,9.125c1.439-1.3,2.645-3.054,3.456-5.759
			c2.25-7.5,3.25-10.25,1-18.5s-6.5-17.25-7.75-23c-1.055-4.851-1.916-9.528-1.564-14.623c-0.256-0.12-0.512-0.241-0.767-0.362
			c-0.188-0.089-0.376-0.178-0.565-0.267c-0.39-0.185-0.778-0.37-1.167-0.555c-0.151-0.072-0.303-0.145-0.454-0.217
			c-0.482-0.23-0.963-0.461-1.441-0.69c-0.033-0.016-0.066-0.032-0.099-0.048c-1.735-0.833-3.44-1.658-5.091-2.449
			c-0.057-0.027-0.113-0.054-0.17-0.081c-0.447-0.214-0.891-0.426-1.328-0.634c-0.105-0.051-0.208-0.099-0.312-0.148
			c-0.393-0.187-0.784-0.371-1.168-0.552c-0.128-0.061-0.253-0.118-0.381-0.179c-0.355-0.166-0.71-0.332-1.058-0.492
			c-0.143-0.066-0.281-0.129-0.422-0.194c-0.329-0.151-0.658-0.303-0.979-0.447c-0.141-0.064-0.276-0.124-0.416-0.187
			c-0.311-0.139-0.622-0.279-0.923-0.411c-0.151-0.066-0.294-0.128-0.443-0.192c-0.283-0.123-0.567-0.247-0.84-0.362
			c-0.152-0.064-0.296-0.122-0.445-0.185c-0.259-0.108-0.521-0.218-0.77-0.318c-0.169-0.068-0.328-0.129-0.492-0.193
			c-0.218-0.086-0.44-0.175-0.65-0.254c-0.199-0.075-0.384-0.14-0.576-0.209c-0.164-0.06-0.334-0.124-0.493-0.179
			c-0.342-0.118-0.671-0.226-0.984-0.321c-0.978-0.297-1.935-0.664-2.858-1.061c2.175,12.284,5.641,25.409,8.858,33.811
			c4.5,11.75,7.5,14.75,7.75,19.75s-2.5-2.25-5.25-9.25c-2.043-5.2-5.326-13.155-6.88-16.905c-0.141,1.923-0.242,5.594,0.63,8.905
			c1.25,4.75,5.75,15.25,5.75,15.25s-0.152,0.169-0.408,0.478c0.529,0.864,1.001,1.756,1.408,2.772
			C187.79,655.512,186.038,658.386,183.106,660.656z"/>
		<path fill="none" d="M195.135,605.76c-1.733-0.833-3.441-1.658-5.091-2.449C191.695,604.102,193.4,604.927,195.135,605.76z"/>
		<path fill="#CE123C" d="M195.443,675.022c3.197-2.078,6.492-2.938,9.044-5.241c-7.983-0.377-17.014-2.179-21.381-9.125
			c-0.742,0.574-1.555,1.111-2.413,1.616c-1.701,1.001-3.438,2.24-4.915,3.368c-1.12,3.351-1.835,6.598-1.835,9.132
			c0,0-6.25,7.25-7.75,13.25c0,0,2.25,1,5-1.75c0,0,4.75,2,10.75,2.5c1.988,0.166,4.362,0.582,6.836,1.16
			c0.266-2.093,0.547-4.705,0.664-7.16C189.693,677.522,190.443,678.272,195.443,675.022z"/>
		<path fill="#FFFFFF" d="M183.106,660.656c-1.073-1.707-1.875-3.713-2.299-6.098c-0.443,0.757-0.9,1.573-1.364,2.464
			c-1.399,2.682-2.686,5.689-3.665,8.618c1.477-1.128,3.213-2.367,4.915-3.368C181.551,661.767,182.365,661.23,183.106,660.656z"/>
		<path fill="#FFFFFF" d="M223.443,699.522c-5-5.25,9.75,2,19.75,6.75c3.911,1.857,11.3,2.947,18.849,3.59
			c-0.187-0.977-0.522-2.083-1.099-3.34c-1.759-3.838-3.206-7.885-3.566-12.722c-7.797-0.538-15.542-2.218-21.684-5.028
			c-14.75-6.75,1.75-13.25,10.75-14.75c1.885-0.314,3.475-0.597,4.899-0.898c-0.534-0.106-1.077-0.22-1.649-0.352
			c-15.25-3.5-24.75-3.25-35.5-3c-2.654,0.062-6.071,0.181-9.706,0.009c-2.552,2.304-5.847,3.163-9.044,5.241
			c-5,3.25-5.75,2.5-6,7.75c-0.117,2.455-0.397,5.067-0.664,7.16c4.994,1.166,10.403,3.001,13.914,4.84
			c3.573,1.871,5.408,4.553,6.847,6.705c5.538,1.121,12.098,3.754,17.153,4.795C235.193,708.022,228.443,704.772,223.443,699.522z"
			/>
		<path fill="#CE123C" d="M159.193,452.522c-0.003,0.098-0.009,0.193-0.012,0.291c4.64,2.249,10.315,4.882,17.262,7.959
			c9.202,4.076,19.01,7.835,29.142,11.236c1.169-6.404,2.903-13.539,5.358-22.236c3.613-12.797,7.678-19.604,10.341-23
			c-8.018-1.679-16.194-4.164-23.591-7.75c-8.065-3.91-13.464-7.047-17.293-9.678C168.575,419.569,159.596,441.46,159.193,452.522z"
			/>
		<path fill="#CE123C" d="M279.443,481.522c-3.304-0.431-8.751-0.784-13.833-1.951c-0.049,2.542,0.118,5.056,0.465,7.541
			c7.597,1.264,15.096,2.256,22.419,2.976C285.605,485.042,283.003,481.986,279.443,481.522z"/>
		<path fill="#940026" d="M279.443,481.522c3.56,0.464,6.162,3.521,9.051,8.565c1.035,0.102,2.078,0.216,3.105,0.306
			c-1.61-1.748-2.594-3.41-3.16-4.984c-1.225-3.401-4.056-8.575-4.354-10.066c-0.136-0.68-5.577-1.904-5.85-5.714
			s1.632-6.258,1.632-6.258l-1.088-0.953c0,0-1.36,2.042-3.129,4.898s-2.585,4.354-7.347,4.081
			c-0.562-0.032-1.145-0.042-1.738-0.039c-0.606,2.769-0.903,5.506-0.956,8.213C270.692,480.738,276.14,481.091,279.443,481.522z"/>
		<path fill="#FFFFFF" d="M205.585,472.008c19.543,6.561,40.324,11.746,60.49,15.104c-0.347-2.485-0.514-4.999-0.465-7.541
			c-3.763-0.863-7.327-2.172-9.667-4.299c-1.819-1.654-2.697-3.717-3.073-5.739c-0.655-1.054-0.891-2.554-0.891-4.938
			c0-4.081-0.136-10.61,0.952-13.06s5.305-8.572,11.292-15.238c4.811-5.356,8.393-8.784,13.144-12.746
			c-5.391,2.065-10.188,4.011-14.424,5.222c-4.908,1.402-22.846,1.938-41.659-2c-2.663,3.396-6.728,10.203-10.341,23
			C208.488,458.469,206.754,465.604,205.585,472.008z"/>
		<path fill="#999999" d="M255.943,475.272c2.34,2.127,5.904,3.436,9.667,4.299c0.053-2.707,0.35-5.444,0.956-8.213
			c-4.445,0.024-9.554,0.862-11.594-0.098c-0.961-0.452-1.637-0.979-2.102-1.728C253.246,471.555,254.124,473.618,255.943,475.272z"
			/>
		<path fill="#CE123C" d="M203.693,497.522c0.317,9.209,2.66,16.607,7.075,25.324c11.005,3.232,22.284,6.365,33.175,8.676
			c18.794,3.986,26.353,6.241,42.253,6.659c-2.146-5.099-4.286-10.091-8.003-17.909c-4.899-10.306-10.478-21.411-12.118-33.16
			c-20.166-3.357-40.947-8.543-60.49-15.104C203.897,481.25,203.398,488.957,203.693,497.522z"/>
		<path fill="#FFFFFF" d="M286.196,538.181c5.039,0.132,10.907,0.081,18.247-0.159c30.5-1,43.75-1,56.75-1.25
			c2.443-0.047,4.931,0.109,7.403,0.276c-0.892-2.059-1.137-2.664-1.631-3.854c-10.016-10.699-17.752-19.29-22.522-18.923
			c-13,1-44-1-50-12.75c-2.285-4.477-4.172-8.33-5.949-11.435c-7.323-0.72-14.822-1.712-22.419-2.976
			c1.641,11.749,7.219,22.854,12.118,33.16C281.91,528.09,284.05,533.083,286.196,538.181z"/>
		<path fill="#999999" d="M294.443,501.522c6,11.75,37,13.75,50,12.75c4.771-0.367,12.507,8.224,22.522,18.923
			c-3.162-7.624-7.479-18.897-10.294-28.837c-4.377-2.89-7.709-4.746-10.142-5.209c0,0-11.699,2.856-23.399,2.585
			s-15.645-0.68-22.991-4.897c-3.947-2.267-6.669-4.413-8.54-6.443c-1.027-0.09-2.07-0.204-3.105-0.306
			C290.271,493.192,292.158,497.045,294.443,501.522z"/>
		<path fill="#940026" d="M370.732,537.191c8.798,0.567,17.201,0.585,22.559-8.665c-2.975-1.694-7.289-4.267-11.253-7.065
			c-6.938-4.897-17.414-11.7-22.991-15.509c-0.828-0.565-1.612-1.09-2.375-1.594c2.815,9.939,7.132,21.213,10.294,28.837
			C368.188,534.5,369.443,535.835,370.732,537.191z"/>
		<path fill="#CE123C" d="M370.732,537.191c-1.289-1.355-2.544-2.69-3.767-3.996c0.588,1.417,1.141,2.722,1.631,3.854
			C369.311,537.096,370.022,537.146,370.732,537.191z"/>
		<path fill="#CE123C" d="M366.966,533.195c0.494,1.189,0.739,1.795,1.631,3.854C368.106,535.917,367.554,534.612,366.966,533.195z"
			/>
		<path fill="#FFFFFF" d="M210.768,522.846c-4.415-8.717-6.757-16.115-7.075-25.324c-0.295-8.565,0.204-16.271,1.892-25.514
			c-10.132-3.401-19.939-7.16-29.142-11.236c-6.947-3.077-12.622-5.71-17.262-7.959c-0.514,13.631-2.234,25.771-1.738,34.459
			c0.5,8.75,2.5,10.5,3.75,19.75c0.058,0.431,0.114,0.838,0.17,1.236c2.859,1.175,6.194,2.292,10.08,3.264
			C183.202,514.461,196.764,518.734,210.768,522.846z"/>
		<path fill="#BFBFBF" d="M288.443,619.022c-0.412-0.293-0.841-0.603-1.267-0.909c-0.009,0.674-0.021,1.477-0.041,2.394
			c3.795,2.717,7.456,5.609,10.541,8.542c1.384,1.03,4.69,3.647,9.517,8.474c0.105,0.105,0.216,0.224,0.322,0.331
			c1.481,0.411,3.025,0.742,4.61,1.006C302.377,629.358,295.343,623.924,288.443,619.022z"/>
		<path fill="#CE123C" d="M197.943,562.272c15.773,6.263,32.829,13.808,45.194,15.863c-8.626-11.583-14.403-24.672-22.694-38.363
			c-3.923-6.478-7.139-11.917-9.675-16.926c-14.004-4.112-27.566-8.385-39.325-11.324c-3.886-0.972-7.221-2.089-10.08-3.264
			c1.137,8.153,1.836,9.927,7.08,23.514c4.034,10.451,9.14,17.668,13.55,23.439c0.232,0.219,0.461,0.429,0.692,0.644
			C185.177,557.026,189.71,559.002,197.943,562.272z"/>
		<path fill="#CE123C" d="M368.693,537.272c-0.031-0.071-0.065-0.151-0.097-0.224c-2.473-0.167-4.96-0.323-7.403-0.276
			c-13,0.25-26.25,0.25-56.75,1.25c-7.34,0.24-13.208,0.291-18.247,0.159c2.04,4.846,4.086,9.787,7.497,17.341
			c7,15.5,17,26.5,24.25,33.5c0.687,0.663,1.454,1.382,2.256,2.125c3.223,0.161,6.273,0.152,8.994-0.125
			c12.25-1.25,17.25-4,32.25-6.25c6.431-0.965,16.577-4.05,26.094-9.146c-0.444-0.934-0.891-1.882-1.344-2.854
			C379.443,558.272,373.693,548.772,368.693,537.272z"/>
		<path fill="#FFFFFF" d="M368.693,537.272c5,11.5,10.75,21,17.5,35.5c0.453,0.973,0.899,1.921,1.344,2.854
			c5.604-3.001,10.985-6.701,15.264-11.077c-12.054-7.092-22.891-17.703-32.068-27.358c-0.71-0.045-1.422-0.095-2.136-0.143
			C368.628,537.121,368.662,537.201,368.693,537.272z"/>
		<path fill="#999999" d="M370.732,537.191c9.178,9.655,20.015,20.267,32.068,27.358c2.46-2.517,4.559-5.255,6.118-8.217
			c-4.463-7.307-7.987-13.564-11.916-25.757c0,0-1.48-0.778-3.712-2.05C387.934,537.776,379.53,537.758,370.732,537.191z"/>
		<path fill="#FFFFFF" d="M285.693,586.272c9.725,1.556,23.22,4.312,34.506,4.875c-0.802-0.743-1.569-1.462-2.256-2.125
			c-7.25-7-17.25-18-24.25-33.5c-3.411-7.554-5.457-12.495-7.497-17.341c-15.9-0.418-23.459-2.673-42.253-6.659
			c-10.892-2.311-22.17-5.443-33.175-8.676c2.537,5.009,5.752,10.448,9.675,16.926c8.292,13.691,14.068,26.78,22.694,38.363
			c0.962,0.16,1.903,0.297,2.806,0.387C258.443,579.772,273.193,584.272,285.693,586.272z"/>
		<path fill="#FFFFFF" d="M181.993,555.211c-4.41-5.771-9.516-12.988-13.55-23.439c-5.244-13.587-5.943-15.36-7.08-23.514
			c-4.819-1.98-8.281-4.126-10.718-6.021c3.082,9.663,7.128,19.538,12.298,28.785c0,0,0.116,0.88,0.303,2.396
			C169.702,542.445,176.006,549.552,181.993,555.211z"/>
		<path fill="#FFFFFF" d="M159.193,452.522c0.402-11.062,9.382-32.953,21.207-43.178c-7.92-5.441-9.081-8.701-12.957-12.072
			c-2.381-2.07-1.801-6.972-0.307-12.004c-7.354,9.86-11.665,17.178-15.193,23.254c-4.5,7.75-8.75,16.5-8.75,16.5s1.5,0.5,1,2.25
			c-0.311,1.086-1.102,7.667-1.419,16.746c2.97,1.894,7.971,4.706,16.407,8.795C159.185,452.715,159.19,452.62,159.193,452.522z"/>
		<path fill="#CE123C" d="M161.193,507.022c-1.25-9.25-3.25-11-3.75-19.75c-0.497-8.688,1.224-20.828,1.738-34.459
			c-8.436-4.089-13.437-6.901-16.407-8.795c-0.193,5.546-0.21,12.023,0.169,18.754c0.603,10.69,3.035,24.831,7.702,39.465
			c2.438,1.896,5.899,4.041,10.718,6.021C161.308,507.86,161.251,507.453,161.193,507.022z"/>
		<path fill="#CE123C" d="M392.739,674.879c-3.69,0.372-8.759,0.654-14.161,0.863c-2.881,2.854-5.869,5.438-8.135,7.279
			c-4.359,3.542-8.79,9.309-11.922,14.109c3.565,0.696,7.96,1.332,13.315,1.732c13.065,0.976,20.055,1.74,35.637,1.244
			c-1.394-2.045-3.273-5.137-4.78-8.836C400.135,684.993,400.169,683.685,392.739,674.879z"/>
		<path fill="#940026" d="M370.443,683.022c2.266-1.841,5.254-4.425,8.135-7.279c-10.027,0.39-21.209,0.529-26.885,0.529
			c-2.051,0-3.846,0.191-5.408,0.501c4.231,5.54,6.844,9.765,7.408,12.249c0.521,2.296,0.644,4.723,0.235,7.08
			c1.334,0.345,2.875,0.693,4.593,1.029C361.653,692.331,366.084,686.564,370.443,683.022z"/>
		<path fill="none" d="M384.943,656.522c-2-0.81-6.309-2.528-12.105-4.88c4.002,4.578,8.084,9.413,13.143,15.338
			C388.865,662.451,389.542,658.383,384.943,656.522z"/>
		<path fill="#FFFFFF" d="M439.86,615.356c-2.074-6.481-4.048-12.353-6.038-17.781c-3.482,5.705-9.598,12.924-20.188,19.158
			c10.939,14.62,15.409,23.989,20.31,33.789c0.149,0.299,0.3,0.586,0.451,0.866c5.882-3.534,12.578-7.78,18.217-12.003
			C449.878,633.743,443.676,627.279,439.86,615.356z"/>
		<path fill="#999999" d="M439.86,615.356c3.815,11.923,10.018,18.387,12.751,24.029c2.651-1.986,5.071-3.967,7.059-5.866
			c-3.652-5.54-8.195-12.233-11.65-17.779c-5.17-8.299-8.435-14.83-11.836-20.407c-0.187-0.306-0.396-0.617-0.594-0.925
			c-0.493,0.982-1.085,2.049-1.768,3.167C435.812,603.003,437.786,608.875,439.86,615.356z"/>
		<path fill="#CE123C" d="M413.634,616.733c-3.349,1.972-7.139,3.846-11.44,5.539c-26.781,10.544-34.353,9.17-42.817,10.883
			c3.401,5.462,6.365,10.517,9.817,14.367c1.225,1.365,2.431,2.73,3.645,4.12c5.797,2.352,10.105,4.07,12.105,4.88
			c4.599,1.861,3.922,5.929,1.037,10.458c1.554,1.82,3.198,3.741,4.963,5.792c0.645,0.75,1.239,1.447,1.796,2.107
			c2.433-0.245,4.267-0.529,5.204-0.857c5-1.75,15.5-10.5,23.75-15.25c2.559-1.474,7.284-4.128,12.701-7.384
			c-0.151-0.28-0.302-0.567-0.451-0.866C429.043,640.722,424.573,631.353,413.634,616.733z"/>
		<path fill="#FFFFFF" d="M340.296,638.065c12.356,5.322,24.05,10.131,32.542,13.577c-1.214-1.39-2.42-2.755-3.645-4.12
			c-3.452-3.851-6.416-8.905-9.817-14.367c-1.571,0.317-3.172,0.741-4.933,1.367C350.951,635.764,345.961,637.076,340.296,638.065z"
			/>
		<path fill="#999999" d="M372.838,651.642c-8.492-3.446-20.186-8.255-32.542-13.577c-8.772,1.533-19.171,2.289-28.17,0.794
			c3.675,3.581,7.732,7.735,12.317,12.663c9.183,9.867,16.706,18.528,21.842,25.251c1.562-0.31,3.357-0.501,5.408-0.501
			c5.676,0,16.857-0.14,26.885-0.529c2.835-2.809,5.566-5.879,7.402-8.763C380.922,661.055,376.84,656.22,372.838,651.642z"/>
		<path fill="#FFFFFF" d="M385.98,666.98c-1.836,2.884-4.567,5.954-7.402,8.763c5.402-0.209,10.471-0.491,14.161-0.863
			c-0.557-0.66-1.151-1.357-1.796-2.107C389.179,670.721,387.534,668.8,385.98,666.98z"/>
		<path fill="#CE123C" d="M320.199,591.147c-11.286-0.563-24.781-3.319-34.506-4.875c-12.5-2-27.25-6.5-39.75-7.75
			c-0.902-0.09-1.844-0.227-2.806-0.387c2.558,3.435,5.354,6.742,8.556,9.887c1.171,1.15,2.335,2.27,3.494,3.374
			c0.226,0.215,0.452,0.431,0.678,0.645c1.168,1.107,2.328,2.188,3.479,3.247c3.088,0.529,8.76,3.779,20.849,12.734
			c10.742,7.957,36.611,19.925,60.103,30.043c5.665-0.989,10.655-2.301,14.147-3.543c1.761-0.626,3.361-1.05,4.933-1.367
			c-3.003-4.821-6.346-9.96-10.683-14.883C340.32,608.767,327.866,598.25,320.199,591.147z"/>
		<path fill="#CE123C" d="M259.337,595.287c0.002,0,0.005,0.001,0.007,0.001c-1.151-1.059-2.311-2.14-3.479-3.247
			C257.029,593.144,258.189,594.23,259.337,595.287z"/>
		<path fill="#940026" d="M340.296,638.065c-23.491-10.118-49.36-22.086-60.103-30.043c-12.089-8.955-17.761-12.205-20.849-12.734
			c1.233,1.135,2.456,2.244,3.666,3.324c0.127,0.113,0.254,0.228,0.381,0.341c1.189,1.058,2.364,2.088,3.526,3.092
			c0.128,0.11,0.254,0.218,0.382,0.328c2.336,2.012,4.608,3.911,6.803,5.697c0.167,0.136,0.333,0.271,0.499,0.405
			c1.062,0.86,2.108,1.698,3.131,2.504c0.095,0.075,0.188,0.146,0.282,0.222c0.958,0.753,1.896,1.48,2.814,2.186
			c0.141,0.107,0.283,0.219,0.424,0.325c0.94,0.719,1.857,1.409,2.752,2.075c0.185,0.138,0.365,0.271,0.548,0.405
			c0.897,0.664,1.779,1.312,2.625,1.921c0.017-1.3,0.017-2.091,0.017-2.091s0,0.791-0.017,2.091
			c0.426,0.307,0.854,0.616,1.267,0.909c6.899,4.902,13.934,10.336,23.683,19.837C321.125,640.354,331.523,639.598,340.296,638.065z
			"/>
		<path fill="#940026" d="M263.01,598.612c-1.209-1.08-2.433-2.189-3.666-3.324c-0.002,0-0.004-0.001-0.007-0.001
			C260.574,596.424,261.797,597.53,263.01,598.612z"/>
		<path fill="#940026" d="M417.855,571.093c-3.005-4.69-6.075-10.078-8.881-14.669c-0.019-0.031-0.037-0.062-0.056-0.092
			c-1.56,2.962-3.658,5.7-6.118,8.217C407.634,567.393,412.661,569.672,417.855,571.093z"/>
		<path fill="#940026" d="M435.59,594.408c-1.855-2.905-4.145-5.9-6.53-8.841c1.635,3.776,3.204,7.757,4.763,12.008
			C434.505,596.457,435.097,595.39,435.59,594.408z"/>
		<path fill="#CE123C" d="M387.537,575.626c6.177,12.981,11.762,22.502,23.656,37.896c0.85,1.1,1.659,2.167,2.44,3.211
			c10.591-6.234,16.706-13.453,20.188-19.158c-1.559-4.251-3.128-8.231-4.763-12.008c-1.976-2.435-4.015-4.832-5.937-7.104
			c-1.684-1.99-3.464-4.555-5.268-7.37c-5.194-1.421-10.222-3.7-15.055-6.544C398.522,568.925,393.141,572.625,387.537,575.626z"/>
		<path fill="#FFFFFF" d="M329.193,591.022c-2.721,0.277-5.771,0.286-8.994,0.125c7.667,7.103,20.121,17.62,28.494,27.125
			c4.337,4.923,7.68,10.062,10.683,14.883c8.465-1.713,16.036-0.339,42.817-10.883c4.302-1.693,8.092-3.567,11.44-5.539
			c-0.781-1.044-1.591-2.111-2.44-3.211c-11.895-15.394-17.479-24.914-23.656-37.896c-9.517,5.096-19.663,8.181-26.094,9.146
			C346.443,587.022,341.443,589.772,329.193,591.022z"/>
	</g>
	<g>
		<path fill="#FFFFFF" d="M251.443,598.022c1,0.5,5.25,4,10,6.75c2.551,1.477,14.688,7.858,25.692,15.734
			c0.02-0.917,0.032-1.72,0.041-2.394c-0.846-0.609-1.728-1.257-2.625-1.921c-0.183-0.135-0.363-0.268-0.548-0.405
			c-0.895-0.666-1.812-1.356-2.752-2.075c-0.141-0.106-0.283-0.218-0.424-0.325c-0.919-0.705-1.856-1.433-2.814-2.186
			c-0.095-0.075-0.188-0.146-0.282-0.222c-1.022-0.806-2.068-1.644-3.131-2.504c-0.166-0.135-0.332-0.27-0.499-0.405
			c-2.194-1.786-4.467-3.686-6.803-5.697c-0.128-0.11-0.254-0.218-0.382-0.328c-1.162-1.004-2.337-2.034-3.526-3.092
			c-0.126-0.113-0.254-0.228-0.381-0.341c-1.213-1.082-2.436-2.188-3.672-3.325c-1.148-1.057-2.308-2.143-3.473-3.246
			c-0.226-0.214-0.452-0.43-0.678-0.645c-1.159-1.104-2.322-2.224-3.494-3.374c-3.202-3.145-5.998-6.452-8.556-9.887
			c-12.365-2.056-29.421-9.601-45.194-15.863c-8.233-3.27-12.766-5.246-15.258-6.417c15.987,14.874,29.647,19.485,37.758,22.917
			c13,5.5,7.5,8-1.75,3.5c-6.618-3.22-17.573-7.087-26.393-12.502c2.879,5.093,5.329,11.344,6.393,20.002
			c0.814,6.629,1.194,12.922,1.47,18.373c1.181,0.553,2.361,1.101,3.53,1.627c10,4.5,21.25,7.5,33,10.5
			c6.439,1.645,13.541,3.88,19.85,5.614c-15.192-8.149-23.35-39.864-23.35-39.864s6.224,3.115,18.206,13.905
			C251.209,598.625,251.198,597.899,251.443,598.022z"/>
		<path fill="#999999" d="M256.543,625.886c0.297,0.081,0.601,0.168,0.894,0.247c-0.471-1.612-0.975-3.421-1.494-5.611
			c-1.697-7.165-3.962-16.602-4.544-20.595c-11.982-10.79-18.206-13.905-18.206-13.905S241.351,617.737,256.543,625.886z"/>
	</g>
	<g>
		<path fill="#FBC9B9" d="M316.526,483.688c0.667,3.333-11.333,3-18,3s1,4,12.667,5.334s17,1.333,24-6s6.333-18,13.666-21
			c5.52-2.258-4.821-29.438-10.275-42.747c-1.267-1.402-2.596-2.467-4.057-3.087c-5.5-2.334-10.667-3.166-15-3.166s-6,4.833-6.5,7.5
			s-0.167,11.333-0.167,11.333s-2.167,0.667-7.167,0.167s-4.333-1.167-8.5-1.834s-6.666-1.666-3.666-1.333s8.166,1.833,8.166,1.833
			c1-2.834-3.5-3.666-9.833-4s-10,4.167-10,9.334s4.333,9,4.333,9s8.833,0.333,17.333,1.166s12.834,0.667,14.667,1.667
			s-4.5,0.833-8.833,0s-7-1.333-14.667-1.5s-8.833-0.666-10.5-0.666s-4.5,1.166-5.5,7.666s1.833,6.834,1.833,6.834
			s5.667-0.334,14.334,1.666s15.833,2.167,20.666,3.334s2.167,1.5-8.666-0.167s-11.5-2.333-17.167-3.167s-9.5-1-9.5-1
			c-1.833,6.333-1.5,7,2.5,9.334c3.218,1.877,4.175,2.892,7.199,4.17C306.654,477.403,315.864,480.379,316.526,483.688z"/>
		<path fill="#EDB7A8" d="M465.521,457.868c-1.854-9.008-2.12-12.452-2.12-12.452c-4.96-2.439-16.04-5.728-29.54-2.561
			c-2.246,0.527-4.688,1.404-7.194,2.494c12.006-2.701,26.663-3.364,35.527,5.673c0,0,4.333,22.333,4.333,34.333
			s2,14.334-15.333,13.667s-28.001-2.333-32.667-2.333s-1.334,1.334,8,4s18.666,9.667,7,10s-13.334,8.666-37-0.667
			s-38.332-18.667-40.666-23s6.667-13.334,1-31.167c0,0-2.5-5.833-7.834-15.833c-3.918-7.345-6.937-13.869-10.442-17.747
			c5.454,13.31,15.795,40.489,10.275,42.747c-7.333,3-6.666,13.667-13.666,21s-12.333,7.334-24,6s-19.334-5.334-12.667-5.334
			s18.667,0.333,18-3c-0.662-3.309-9.872-6.285-26.634-6.329c0.736,0.312,1.59,0.638,2.634,0.996c5.333,1.833,12.667,3.5,15.5,4.5
			s2.834,1,1.5,1.334s-7.833-2.334-14-4.167s-10.666-4.5-10.666-4.5c2.334,4,4.666,11,7.666,14.333s14.5,10.334,23,10.834
			s14,0.833,20.834-0.334s11.26-1.951,11.26-1.951c7.684,2.119,19.076,11.657,30.469,19.341s21.461,13.513,37.622,17.751
			s27.289,4.77,34.707,4.239s14.308-7.153,15.896-9.272s4.505-6.889,4.77-25.965S467.375,466.875,465.521,457.868z"/>
		<path fill="#FBC9B9" d="M355.86,487.022c2.334,4.333,17,13.667,40.666,23s25.334,1,37,0.667s2.334-7.334-7-10s-12.666-4-8-4
			s15.334,1.666,32.667,2.333s15.333-1.667,15.333-13.667s-4.333-34.333-4.333-34.333c-8.864-9.037-23.521-8.374-35.527-5.673
			c-12.562,5.457-26.807,16.339-26.807,16.339l10.5,2c15.833,2.5,28.834,6.501,33.334,8.001s8.667,6.666,2.5,3.166
			s-18.667-7.833-42.167-11.833s-47.166-7.167-47.166-7.167C362.527,473.688,353.526,482.689,355.86,487.022z"/>
	</g>
	<path fill="#A7A9AC" d="M312.146,424.023c0,0-0.191,6.096,0.095,10.19c0,0-5.334,0.381-8.857-0.477l-0.19-0.667
		c0,0,4.856-4.477,6-6.19S312.146,424.023,312.146,424.023z"/>
	<path fill="#DEA798" d="M403.811,350.447c-2.041-2.993-5.034-6.258-5.442-9.115s-0.816-7.483-0.408-9.115s2.042-3.809,4.49-5.578
		c0,0-27.507,11.383-62.007,10.383c-27.962-0.811-42.292-0.801-51.511-5.027c4.094,5.499,12.924,10.748,31.594,11.36
		c34.034,1.116,70.859,0.834,71.811,14.779c4.646-2.217,9.235-3.841,13.975-3.935C405.611,353.127,404.726,351.789,403.811,350.447z
		"/>
	<g>
		<path fill="#EDB7A8" d="M320.526,343.355c-18.67-0.612-27.5-5.861-31.594-11.36c-2.156-0.988-4.033-2.207-5.739-3.723
			c-3.067-2.727-5.311-4.894-7.098-6.774c2.363,11.323,9.912,26.717,33.098,31.191c31.709,6.119,67.125-3.075,79.534,7.268
			c1.209-0.635,2.411-1.251,3.609-1.822C391.386,344.19,354.561,344.471,320.526,343.355z"/>
		<path fill="#FBC9B9" d="M309.193,352.689c-23.186-4.474-30.734-19.868-33.098-31.191c-3.457-3.637-5.181-6.18-7.652-9.476l-5-0.5
			c0,0-0.224-0.294-0.677-0.698c-3.572,0.866-11.023,3.147-15.823,7.948c-6.5,6.5-10.75,13.5-1.25,26.75s24.25,25,64.25,28.5
			s52.25-1,65.25-7c4.72-2.178,9.174-4.775,13.534-7.065C376.318,349.614,340.902,358.808,309.193,352.689z"/>
	</g>
	<g>
		<path fill="#999999" d="M466.441,429.148c-0.239-0.094-0.475-0.193-0.72-0.279c0.489,2.343,0.712,4.064,0.712,4.917
			c0,4.396,3.848,2.748-21.159,3.298c-20.223,0.444-39.36,17.417-45.946,23.897c0.019,0.003,0.035,0.006,0.054,0.01
			c0,0,23.908-19.235,36.549-20.335s27.48,0.549,28.854,5.221l0.274,5.771c0,0,3.023-4.123,3.848-6.596
			C468.907,445.052,468.553,438.013,466.441,429.148z"/>
		<path fill="none" d="M464.941,423.616c-0.14-0.456-0.282-0.913-0.432-1.372c-1.192-3.662-2.623-7.244-4.331-10.723
			c1.827,4.338,3.188,8.384,4.171,11.84C464.555,423.444,464.75,423.529,464.941,423.616z"/>
		<path fill="#005F9F" d="M465.722,428.869c0.245,0.086,0.48,0.186,0.72,0.279c-0.425-1.785-0.921-3.643-1.5-5.532
			c-0.191-0.087-0.387-0.172-0.592-0.255C464.939,425.436,465.393,427.295,465.722,428.869z"/>
		<path fill="#FFFFFF" d="M466.434,433.786c0-0.853-0.223-2.574-0.712-4.917c-11.554-4.029-29.815,1.063-44.08,6.016
			c-15.313,5.316-28.975,18.365-34.371,23.995c2.524,0.389,6.817,1.088,12.058,2.102c6.586-6.48,25.724-23.453,45.946-23.897
			C470.281,436.534,466.434,438.182,466.434,433.786z"/>
		<path fill="#A7A9AC" d="M390.589,437.358c7.694-14.29,10.718-21.71,14.564-26.931s-1.649-2.197-7.97,3.848
			c-5.354,5.12-24.903,19.904-41.28,35.831c0.804,1.681,1.487,3.153,1.984,4.29c0,0,14.839,1.924,23.083,3.572
			c0,0-2.749-4.946,0.274-2.748c0.913,0.664,1.597,1.226,2.111,1.688c0.911-0.972,1.822-1.909,2.733-2.83
			C386.323,449.11,387.449,443.189,390.589,437.358z"/>
		<path fill="#0072BC" d="M421.642,434.884c14.265-4.952,32.526-10.045,44.08-6.016c-0.329-1.573-0.782-3.433-1.372-5.508
			c-3.745-1.516-9.76-2.344-19.351-0.567c-20.976,3.884-39.998,12.177-58.909,31.285c-0.078,1.664-0.055,3.216,0.025,4.626
			c0.33,0.05,0.712,0.106,1.155,0.175C392.667,453.25,406.328,440.201,421.642,434.884z"/>
		<path fill="#005F9F" d="M386.09,454.079c-0.911,0.921-1.822,1.858-2.733,2.83c1.19,1.071,1.461,1.608,1.461,1.608
			s0.463,0.063,1.298,0.188C386.035,457.294,386.012,455.743,386.09,454.079z"/>
	</g>
	<g>
		<path fill="#FFFFFF" d="M460.179,411.521c-3.804-7.747-8.987-14.98-16.004-21.429C434.007,380.749,429.336,378,429.336,378
			s-0.077-0.425-0.377-1.071c-6.269-0.752-13.829,1.3-27.104,8.767c-17.818,10.023-47.55,32.501-58.178,40.659
			c1.15,1.857,2.299,4.047,3.768,6.881c2.852,5.501,6.155,12.055,8.458,16.87c16.377-15.927,35.927-30.711,41.28-35.831
			c6.32-6.045,11.816-9.068,7.97-3.848s-6.87,12.641-14.564,26.931c-3.14,5.831-4.266,11.752-4.499,16.721
			c18.911-19.108,37.934-27.401,58.909-31.285c9.591-1.776,15.605-0.948,19.351,0.567
			C463.367,419.905,462.006,415.859,460.179,411.521z"/>
		<path fill="#A7A9AC" d="M428.959,376.929c-0.499-1.078-1.615-2.775-4.021-4.149c0,0,0.551-4.121-14.289,1.1
			s-22.26,10.168-39.022,18.137s-25.006,14.564-34.35,16.763S323.812,414,323.812,414s7.693,0.55,12.915,4.672
			c3.228,2.548,5.09,4.679,6.95,7.684c10.628-8.158,40.359-30.636,58.178-40.659C415.13,378.229,422.69,376.177,428.959,376.929z"/>
	</g>
	<g>
		<path fill="#0072BC" d="M130.253,716.061c0,0,3.379,3.658,17.695,4.918c2.137-4.972,5.925-10.435,12.609-14.596
			c-11.617-2.518-22.054-4.521-25.579-5.483C134.979,700.9,130.056,698.931,130.253,716.061z"/>
		<path fill="#005F9F" d="M147.948,720.979c2.283,0.201,4.834,0.343,7.704,0.397c20.871,0.395,36.819-1.377,64.975-5.315
			c0,0-3.347-4.725-5.119-6.104s-2.953-2.363-2.953-2.363s-29.337,3.938-43.907,0.591c-2.713-0.623-5.432-1.226-8.09-1.802
			C153.873,710.544,150.085,716.007,147.948,720.979z"/>
		<path fill="#0072BC" d="M196.212,693.418c-5.316-1.378-9.057-3.348-13.783-3.545s-11.419-2.56-11.419-2.56
			c-0.787,1.771-2.757,1.575-2.757,1.575c-3.938,0-12.01-0.394-16.736-1.969s-8.073-2.56-12.798,2.166s-2.363,11.223-2.363,11.223
			s-1.182,0.197,11.617,2.56c5.602,1.034,9.883,1.992,13.735,2.826c9.221-5.271,23.588-8.104,45.948-4.426
			c-0.074-0.126-0.151-0.235-0.222-0.369C205.86,697.947,201.528,694.796,196.212,693.418z"/>
		<path fill="#005F9F" d="M161.709,705.695c4.95,1.071,9.192,1.937,14.617,2.49c9.648,0.984,35.047-1.969,35.047-1.969
			c-0.188-1.315-2.166-2.293-3.716-4.947C185.297,697.59,170.93,700.424,161.709,705.695z"/>
		<path fill="#005F9F" d="M474.504,686.318c-0.027,0.004-0.055,0.009-0.082,0.013c-17.13,2.756-31.699,2.166-31.699,2.166
			s-0.985,0.787-3.938,3.544c-0.479,0.448-0.97,0.923-1.454,1.402c9.16-2.811,14.828-4.66,28.53-5.421
			C471.851,687.689,474.186,687.107,474.504,686.318z"/>
		<path fill="#0072BC" d="M520.102,678.258c0-3.15-3.544-1.182-3.544-1.182c-3.342,5.504-24.937,6.495-42.054,9.241
			c-0.318,0.789-2.653,1.371-8.644,1.704c-13.702,0.761-19.37,2.61-28.53,5.421c-2.498,2.472-4.847,5.096-4.847,5.096
			c5.906-0.196,29.731,0.394,55.918-1.97c25.716-2.32,32.094-10.435,32.094-10.435S520.102,681.409,520.102,678.258z"/>
		<path fill="#0072BC" d="M516.36,676.092c0,0-1.183-12.995-4.923-16.146s-6.891-2.757-13.782-0.984
			c-4.193,1.079-8.67,1.936-11.672,2.443c-6.032,6.436-13.461,10.322-18.79,13.283c-7.759,4.311,3.986,8.062,6.775,10.537
			c10.102-1.6,13.277-2.315,21.324-3.03C504.153,681.409,512.226,679.833,516.36,676.092z"/>
		<path fill="#005F9F" d="M467.193,674.689c5.329-2.961,12.758-6.848,18.79-13.283c-1.931,0.327-3.257,0.51-3.488,0.51
			c-0.591,0-4.922,3.742-9.845,5.514s-14.767,5.12-18.705,7.876s-8.466,9.057-9.647,12.207c0,0,13.584,0.196,26.383-1.772
			c1.176-0.181,2.267-0.352,3.288-0.514C471.18,682.751,459.435,679,467.193,674.689z"/>
	</g>
	<g>
		<path fill="none" d="M254.76,308.836c0.778-0.3,1.237-0.463,1.237-0.463S255.733,308.374,254.76,308.836z"/>
		<path fill="#FFFFFF" d="M253.211,364.397c-24.452-16.095-25.69-29.404-21.976-39c2.913-7.525,16.483-13.716,22.205-16.038
			c-3.831,0.107-8.929,1.014-14.018,3.79c-6.887,3.756-15.904,12.3-23.15,19.165l-3.646,3.438
			c-7.12,6.646-25.87,26.547-37.905,41.399c-2.345,2.893-4.527,5.696-6.67,8.565c-1.641,5.604-1.628,9.341,0.05,10.8
			c1.411,1.228,2.465,2.429,3.582,3.701c1.99,2.269,4.247,4.84,9.286,8.302c4.26,2.928,9.874,6.068,17.163,9.603
			c23.952,11.612,57.334,11.746,64.539,9.688c3.454-0.986,7.395-2.511,11.569-4.125l2.617-1.009c1.093-0.91,2.275-1.874,3.613-2.944
			c1.773-1.418,3.275-2.578,4.602-3.601c3.718-2.871,5.766-4.452,7.596-6.956l0.902-1.259c2.328-3.28,5.228-7.363,10.366-8.904
			c4.984-1.495,13.988-5.176,25.387-9.836l2.821-1.153c4.903-2.003,9.066-3.937,13.104-5.898
			C320.462,382.852,275.262,378.912,253.211,364.397z"/>
		<path fill="#FFFFFF" d="M368.604,370.929c-11.763,4.524-26.077,6.948-58.748,4.089c-41.488-3.63-55.747-16.042-64.976-28.914
			c-10.282-14.34-4.691-21.993,1.355-28.04c4.11-4.111,9.99-6.423,14.13-7.632c-0.542-0.268-1.158-0.516-1.898-0.687
			c-1.065-0.246-2.709-0.427-4.718-0.393c-1.936,1.045-5.442,3.207-11.682,7.687c-12.071,8.667-9.286,22.285,2.786,35.285
			s32.809,20.738,66.856,25.381c20.6,2.809,34.391,1.539,42.285,0.098c3.616-1.786,7.459-3.646,11.991-5.687
			C366.885,371.713,367.756,371.318,368.604,370.929z"/>
		<path fill="#0072BC" d="M311.711,377.707c-34.048-4.643-54.785-12.381-66.856-25.381s-14.857-26.618-2.786-35.285
			c6.239-4.48,9.746-6.641,11.682-7.687c-0.103,0.001-0.205,0.003-0.31,0.006c-5.722,2.321-19.292,8.513-22.205,16.038
			c-3.714,9.595-2.476,22.905,21.976,39c22.05,14.515,67.25,18.455,92.034,17.728c1.873-0.911,3.722-1.827,5.601-2.76
			c1.037-0.515,2.085-1.035,3.15-1.561C346.102,379.246,332.311,380.515,311.711,377.707z"/>
	</g>
	<path fill="#0072BC" d="M237.607,369.452c-2.154-2.027-9.25-5.195-9.25-5.195l-13.178,13.431l9.25,4.181
		c9.883,0.887,8.87-6.208,8.87-6.208C236.721,375.281,239.761,371.479,237.607,369.452z M225.317,379.334
		c-1.774-0.507-4.815-2.407-4.815-2.407l3.674-3.674c0,0,2.915,1.521,4.688,2.914S227.091,379.841,225.317,379.334z M230.765,373.76
		c-1.394-0.38-4.308-2.408-4.308-2.408l2.661-3.167l4.054,2.153C235.58,372.239,232.159,374.14,230.765,373.76z"/>
	<polygon fill="#0072BC" points="231.145,384.91 233.933,386.557 248.25,375.027 244.576,372.747 	"/>
	<path fill="#0072BC" d="M253.319,385.543l-2.281,2.027l2.788,1.647c0,0-1.394,1.646-3.548,1.646s-5.068-2.406-4.055-4.181
		s6.082-5.322,7.729-5.322s6.462,1.395,4.182,4.815l4.688,0.253c0,0,1.14-3.168-1.774-5.448s-7.096-3.294-12.164-0.76
		s-8.616,7.475-6.335,10.263s9.376,5.954,16.852-1.141L253.319,385.543z"/>
	<path fill="#0072BC" d="M213.28,385.543c-2.408-1.9-5.829-2.787-7.856-3.421c0,0-10.77,12.036-12.037,15.204
		c0,0,4.561,2.153,7.222,3.041s5.322,0,7.603-2.027s3.42-3.42,2.407-5.067c0,0,2.535-0.761,3.928-2.661
		S215.688,387.444,213.28,385.543z M202.003,396.44c-3.041-0.76-3.167-1.521-3.167-1.521l3.167-3.548c0,0,3.421,1.267,3.801,2.534
		S205.044,397.2,202.003,396.44z M208.465,390.992c-1.267,0-4.308-1.773-4.308-1.773l2.027-3.168c0,0,1.141,0.127,3.548,1.141
		S209.732,390.992,208.465,390.992z"/>
	<path fill="#0072BC" d="M224.557,389.978c-4.816,0-11.023,4.182-12.797,9.123s3.294,7.982,7.855,7.982s12.417-5.702,13.304-10.01
		S228.231,389.978,224.557,389.978z M222.149,402.522c-2.788,0.507-5.448-0.634-5.448-3.041s3.937-5.575,6.462-5.828
		c1.267-0.127,2.661,0.127,3.928,2.534S224.937,402.015,222.149,402.522z"/>
	<path fill="#0072BC" d="M241.282,403.663l0.38-6.082l-4.435-1.9c0,0-1.394,7.602-1.521,10.136l-5.448,6.589l4.181,2.788
		l4.815-6.209c0,0,10.39-4.435,14.318-4.814l-4.562-3.295L241.282,403.663z"/>
	<path fill="#CE123C" d="M267.597,434.466c-5.895,6.633-12.429,12.774-13.81,17.607s-0.691,14.326-0.518,16.398
		s2.935,2.416,6.905,2.244s7.251-0.345,9.84-0.345s2.588-0.518,4.487-2.935s3.798-5.352,3.798-5.352s-2.762-10.874,5.006-14.154
		l1.209-0.346c0,0-3.106-2.071-3.625-7.25s1.034-7.939,5.178-10.356s16.745-1.381,16.572,2.762c0,0,3.278-3.97,5.868-6.56
		s3.625-3.28,3.625-3.28s1.037-6.732,7.078-7.94c0,0,3.452-2.244,8.458-4.143s14.328-5.868,32.107-14.672
		s39.873-19.334,49.022-22.786s17.78-5.352,17.607-0.863c0,0,3.97,2.072,4.143,5.352l2.072,0.862c0,0,0.345-5.351-4.834-8.285
		s-9.321-6.214-11.393-8.113s-6.904-5.352-10.702-5.524s-15.536,5.179-30.036,12.429s-32.972,15.536-42.465,19.679
		s-23.993,9.667-30.553,12.256s-6.559,6.904-10.012,10.529s-9.494,7.595-16.227,13.81S270.359,431.358,267.597,434.466z"/>
	<circle cx="272.083" cy="447.415" r="7.422"/>
	<path fill="#CE123C" d="M166.692,371.654c-4.866,7.415-11.21,16.192-16.192,25.534s-6.643,16.192-7.681,19.929
		s-1.661,6.228,0,11.002c0,0,10.587-25.949,19.098-37.574s24.703-31.76,43.594-50.859s36.12-32.592,45.462-31.969
		S261.56,310,261.56,310s3.529-2.076-12.248-2.906c0,0-11.832-3.321-19.513-1.868c0,0-12.249,0.623-32.384,25.326
		S171.051,365.01,166.692,371.654z"/>
	<ellipse transform="matrix(0.8528 0.5222 -0.5222 0.8528 229.396 -20.3036)" cx="150.72" cy="396.835" rx="1.246" ry="5.177"/>
	<g>
		<path fill="#A7A9AC" d="M144.749,337.666c-1.944-0.724-3.784-1.229-5.383-1.573c0.244,5.907,1.534,8.547,2.415,11.482
			c0.594,1.979,1.287,3.156,2.405,4.385C144.008,346.862,144.213,342.098,144.749,337.666z"/>
		<path fill="#005F9F" d="M147.985,339.055c-1.097-0.537-2.182-0.996-3.236-1.389c-0.536,4.432-0.741,9.196-0.563,14.294
			c0.876,0.962,2.02,1.965,3.586,3.401C147.37,351.377,147.145,345.613,147.985,339.055z"/>
		<path fill="#A7A9AC" d="M147.985,339.055c-0.841,6.558-0.616,12.322-0.213,16.307c0.631,0.579,1.324,1.221,2.104,1.97
			c5.19,4.982,13.494,12.04,15.154,14.946c0,0,0.147-0.259,0.419-0.723C165.905,352.297,156.628,343.281,147.985,339.055z"/>
		<path fill="#FFFFFF" d="M212.153,293.809c-4.644-3.129-8.258-5.962-12.129-8.479c-9.535-0.48-17.893,2.417-22.124,4.327
			c-6.436,2.906-21.797,20.551-27.402,37.989c-1.264,3.933-2.05,7.79-2.514,11.408c8.643,4.226,17.919,13.243,17.465,32.5
			c2.36-4.026,14.675-24.444,32.172-42.871c19.514-20.551,22.212-21.797,32.592-24.288
			C230.214,304.396,221.702,300.245,212.153,293.809z"/>
		<path fill="#FFFFFF" d="M178.524,285.506c5.971-3.339,11.838-3.716,16.289-3.229c-2.721-1.408-5.757-2.688-9.438-3.83
			c0,0-19.099-0.831-28.647,12.04s-15.777,23.25-17.022,36.329c-0.365,3.832-0.439,6.828-0.338,9.276
			c1.599,0.344,3.438,0.85,5.383,1.573C148.526,306.435,168.222,291.268,178.524,285.506z"/>
		<path fill="#0072BC" d="M178.524,285.506c-10.302,5.762-29.998,20.929-33.775,52.16c1.055,0.393,2.14,0.853,3.236,1.389
			c0.464-3.619,1.25-7.475,2.514-11.408c5.605-17.438,20.966-35.083,27.402-37.989c4.231-1.911,12.588-4.807,22.124-4.327
			c-1.656-1.076-3.361-2.095-5.211-3.053C190.362,281.79,184.495,282.167,178.524,285.506z"/>
	</g>
	<path fill="#FBC9B9" d="M273.693,307.522c2.5,6.5,9,10.5,20,10.5s13-1,21,1s41-2.5,44.5-15.5s0.5-8.5-11.5-14.5s-28-17-29.5-24
		c0,0,0-5,6,1.5s25.5,22.5,55,21.5s37.5-30,5.5-34.5c0,0,8.5-48-4.5-63s13,9,11-3.5c-1.947-12.171,91.377-10.123,40.907-46.007
		c-4.662-2.373-9.624-4.273-14.643-5.181c-19.514-3.529-24.494-2.076-53.973,6.643s-50.653,17.23-61.032,15.154
		s-26.57-8.926-35.912-17.645c0,0-0.831,4.981-2.907,9.756s-4.982,19.928-6.643,28.024s-1.66,14.324-3.321,18.268
		s-7.473,10.794-12.04,19.928s-9.134,19.721-5.397,32.799s9.756,24.288,18.06,37.781l15.9,19.979
		C270.193,306.522,271.193,301.022,273.693,307.522z"/>
	<g>
		<path fill="#EDB7A8" d="M385.193,321.355c32.667-18.667,41.334-48.667,38.667-64c-2.464-14.165-25.972-49.947,12.504-60.574
			c2.624-2.767,5.847-6.237,9.74-10.71c9.757-11.21,14.531-17.645,15.984-18.891s0.208-2.698-3.113-6.02
			c-2.467-2.467-13.412-13.292-26.875-20.145c50.47,35.884-42.854,33.836-40.907,46.007c2,12.5-24-11.5-11,3.5s4.5,63,4.5,63
			c32,4.5,24,33.5-5.5,34.5s-49-15-55-21.5s-6-1.5-6-1.5c1.5,7,17.5,18,29.5,24s15,1.5,11.5,14.5s-36.5,17.5-44.5,15.5s-10-1-21-1
			s-17.5-4-20-10.5s-3.5-1-3.5-1l-15.9-19.979c8.304,13.493,13.285,22.835,15.776,26.364c1.194,1.691,4.391,5.385,7.968,9.024
			C303.071,326.812,360.083,335.705,385.193,321.355z"/>
		<path fill="#DEA798" d="M485.34,265.785c-5.397-4.774-10.173-7.888-19.307-6.435s-9.341,0-6.02-0.623s10.38-1.453,14.531-0.415
			s5.812,1.661,5.812,1.661s1.868-5.397-1.453-7.888s-8.927-5.19-20.552,1.868s-23.664,21.589-32.176,27.194
			c0,0-0.001-2.284,1.66-7.889s3.528-18.06,3.321-28.439s-3.322-23.872-3.529-30.308s-1.452-6.021,0.831-9.134
			c1.372-1.871,3.954-4.429,7.904-8.595c-38.476,10.627-14.968,46.409-12.504,60.574c2.667,15.333-6,45.333-38.667,64
			c-25.11,14.349-82.122,5.457-107.156,0.576c3.886,3.955,8.22,7.846,10.923,9.036c5.19,2.284,13.908,3.736,27.194,4.359
			s36.535,1.66,57.087-2.076s27.4-7.265,30.93-8.511c0,0,8.096-5.605,11.625-7.681s4.982-2.699,4.982-2.699s-2.698-3.114-0.83-3.114
			s2.491-1.661,4.774-0.208s3.115,1.663,6.644,2.492c5.716,1.343,14.945,0.623,24.495-2.076s22.627-9.757,28.232-19.721
			S490.737,270.559,485.34,265.785z"/>
	</g>
	<path d="M450.89,277.924c0,0,3.457-11.572,17.585-11.122c0,0-12.926,3.457-9.77,4.659s7.064-3.006,14.128,0.451
		s11.724,13.226,3.307,21.643s-19.088,11.573-28.707,8.267c0,0,10.07,1.804,17.735-3.156s15.481-12.325,11.423-18.336
		s-6.313-8.116-13.979-7.364s-6.763,2.404-5.109,2.555S457.954,277.773,450.89,277.924z"/>
	<path d="M446.832,283.485c0,0-1.653,6.914-9.619,6.914c0,0,1.953,1.804,6.763-1.052S448.937,284.236,446.832,283.485z"/>
	<path d="M322.693,196.522c0,0,32.5-30,69,10.5c0,0-1-20.5-25-28.5S328.693,184.522,322.693,196.522z"/>
	<path fill="#940026" d="M267.624,259.605c0,0-2.066,23.408,19.277,27.195s25.818,2.754,35.113,0.344s14.459-5.852,13.082-2.41
		s-18.246,10.328-30.639,11.016s-23.063-1.722-30.293-12.049S267.279,262.704,267.624,259.605z"/>
	<path fill="#EDB7A8" d="M272.443,253.065c0,0-5.508,1.377-5.508,5.164s-16.868,8.95-24.441,2.065c0,0,11.016,2.41,17.557-2.41
		s5.508-12.736,13.081-13.081c0,0-0.344,6.541,2.41,8.606s12.736,8.95,19.277,8.95s11.36-0.344,16.868-0.344s7.918,0,6.541,3.787
		l3.442,5.164c0,0-5.164,5.164-9.295,8.262s-4.819,6.885-14.458,2.41s-10.327-6.885-14.114-9.983s-4.819-10.672-4.819-10.672
		S276.229,255.819,272.443,253.065z"/>
	<path d="M308.245,269.245c0,0,4.475-3.442-0.345-2.754s-9.294,2.065-9.294,3.787c0,0-8.95,1.033-12.737-1.377
		s-6.885-7.918-6.885-7.918s1.033,8.606,10.672,10.328s15.836,1.721,23.753-1.377l4.819-4.131
		C318.229,265.802,312.376,269.933,308.245,269.245z"/>
	<path d="M287.935,179.053c0,0-3.098-10.327-11.704-18.245s-13.771-6.197-16.18-1.033c0,0,1.376-11.704,9.294-11.016
		S291.377,158.398,287.935,179.053z"/>
	<path fill="#EDB7A8" d="M322.015,239.64c-2.402,0.185-4.475,1.722-1.721-10.671s15.146-34.425,36.489-29.261
		s33.048,21.688,26.163,53.703c0,0-7.573-3.442-13.081-3.442s-29.262-12.049-34.77-11.705S326.49,239.296,322.015,239.64z"/>
	<path fill="#FFFFFF" d="M344.735,229.657c0,0,18.244,7.917,19.966,6.885s-6.54-11.016-13.081-15.491c0,0,5.991-6.496,15.311-10.693
		c-5.352-3.575-12.005-5.021-19.786-3.076c-15.146,3.787-19.278,16.523-16.868,30.982c0,0,5.128,4.698,13.592,8.606
		C342.453,242.404,341.723,236.215,344.735,229.657z"/>
	<g>
		<path fill="#0072BC" d="M355.747,234.126c-5.324-2-11.012-4.469-11.012-4.469c-3.013,6.558-2.282,12.747-0.867,17.212
			c3.269,1.509,7.037,2.896,11.198,3.852C353.416,245.801,352.575,239.54,355.747,234.126z"/>
		<path d="M364.701,236.542c-0.761,0.456-4.743-0.834-8.954-2.416c-3.172,5.414-2.331,11.675-0.681,16.595
			c6.693,1.54,14.405,1.959,22.716-0.065c0,0,6.885-10.672,0.688-25.475c-0.789-1.885-1.718-3.676-2.752-5.37
			c-5.129,1.502-10.775,4.668-15.496,9.076C363.483,232.555,365.669,235.961,364.701,236.542z"/>
		<path fill="#0072BC" d="M366.931,210.357c-9.319,4.198-15.311,10.693-15.311,10.693c2.865,1.96,6.061,4.978,8.603,7.837
			c4.721-4.408,10.367-7.574,15.496-9.076C373.38,215.981,370.443,212.704,366.931,210.357z"/>
	</g>
	<path fill="#EDB7A8" d="M265.559,213.133c0,0,15.491,10.328,20.311,7.918s2.755-6.885,1.722-20.311s-10.673-32.015-19.278-34.425
		c-8.606-2.41-13.081,3.442-8.606,40.965L265.559,213.133z"/>
	<path fill="#FFFFFF" d="M261.949,193.509c0,0,5.646,8.897,10.608,10.437c0,0-3.594-12.319-7.187-18.137
		c0,0,6.152-5.094,12.62-5.917c-1.619-2.173-3.458-3.841-5.434-4.52c-5.476-1.882-10.608-1.369-12.662,10.437
		s-1.234,18.305-0.189,21.472c0,0,0.217,0.338,0.631,0.888C260.195,203.872,260.041,193.918,261.949,193.509z"/>
	<g>
		<path fill="#0072BC" d="M283.04,190.098c-1.161-3.583-2.911-7.339-5.049-10.206c-6.468,0.823-12.62,5.917-12.62,5.917
			c1.343,2.174,2.686,5.256,3.841,8.264C272.669,191.345,277.398,189.91,283.04,190.098z"/>
		<path fill="#0072BC" d="M265.721,198.529c-2.203-2.558-3.771-5.02-3.771-5.02c-1.908,0.409-1.754,10.363-1.612,14.66
			c0.794,1.057,2.355,2.933,4.656,4.883C264.512,208.968,264.115,202.729,265.721,198.529z"/>
		<path d="M283.04,190.098c-5.642-0.188-10.371,1.248-13.828,3.976c1.936,5.041,3.346,9.873,3.346,9.873
			c-2.353-0.73-4.852-3.112-6.837-5.417c-1.605,4.2-1.209,10.439-0.728,14.522c2.467,2.09,5.786,4.265,9.96,5.609
			c10.095,3.251,10.95,0.342,11.121-0.685c0,0-0.515-17.281-2.054-24.296C283.77,192.535,283.438,191.326,283.04,190.098z"/>
	</g>
	<path fill="#723300" d="M501.86,144.022c0,0-11.334-48.667-66.667-40s-102,30-132,14.667s-38-52.667-2-81.333
		s79.334-40.667,102.667-5.333c0,0-22.668-19.333-55.334-6.667s-57.332,38.667-44.666,62.667s34,28,71.333,16.667
		s46-21.333,36-27.333s-15.333-8.667-15.333-8.667s26,0.667,49.333,10S501.194,110.022,501.86,144.022z"/>
	<path fill="#DEA798" d="M136.193,156.022c0,0,19.718-15.518,13.959-28.622c-3.46,0.923-4.959,1.956-4.959,1.956
		s2.333,1.667,2.833,4s-2.333-1.833-2.333-1.833c-3.167-6-22.5-4.833-31.333-3.667s-8.667,4.5-9.667,4.667
		c-0.436,0.073-2.901,0.113-5.997,0.095c4.761,2.104,10.883,3.999,17.997,4.405C134.193,138.022,137.693,147.522,136.193,156.022z"
		/>
	<g>
		<path fill="#EDB7A8" d="M147.693,276.522c5.663,0,9.552-9.344,29.725-3.671c-0.256-1.081-0.523-2.268-0.825-3.567
			c-9.167-6.746-21.986-17.076-34.025-23.056C141.142,265.927,142.651,276.522,147.693,276.522z"/>
		<path fill="#DEA798" d="M156.86,207.188c-2.167-7.5-3.167-25.667-3.333-40.833c-0.06-5.419,0.116-9.131,0.449-11.906
			c-2.284,1.856-4.782,3.279-7.282,3.573c0,0,0,48.5-3,76c-0.479,4.392-0.855,8.461-1.126,12.206
			c12.039,5.98,24.859,16.311,34.025,23.056c-1.129-4.854-2.791-11.366-6.566-20.595
			C164.027,234.021,159.027,214.688,156.86,207.188z"/>
		<path fill="#EDB7A8" d="M127.193,241.522c4.696,0.204,9.956,2.015,15.374,4.706c0.271-3.744,0.647-7.813,1.126-12.206
			c3-27.5,3-76,3-76c2.5-0.294,4.998-1.716,7.282-3.573c0.598-4.991,1.706-6.94,2.884-10.26c1.833-5.167,6-9.333,9.167-12
			s5.667-6,7.833-7.833s4.667-3,4.833-4.167s-7.167,0.833-9.667,0.833s-5.333,1.333-8.5,2.833s-2.833,2-8,3
			c-0.879,0.17-1.665,0.355-2.374,0.544c5.758,13.104-13.959,28.622-13.959,28.622c1.5-8.5-2-18-19.5-19
			c-7.114-0.406-13.236-2.3-17.997-4.405c-4.005-0.024-9.068-0.147-12.169-0.429c-5.5-0.5-5.833-0.167-13.833-0.667
			s-8,0.5-5.333,3.333s9.667,7.667,16.5,8.333s12.667,1.667,21,6.667s8.5,8.833,11.167,22.5s0.5,19.667-0.667,33.333
			s-3.5,23.5-4.5,34.333c-0.35,3.785-0.209,9.321,0.19,15.134C113.711,247.279,118.542,241.146,127.193,241.522z"/>
		<path fill="#FBC9B9" d="M147.693,276.522c-5.042,0-6.552-10.595-5.126-30.294c-5.418-2.691-10.678-4.501-15.374-4.706
			c-8.651-0.376-13.482,5.757-16.143,13.634c0.744,10.824,2.392,22.613,3.476,25.866c1.667,5,5.833,14.5,10.667,24.167
			s13.333,23.333,13.333,23.333c0-3.167,0.333-13.167,7.5-24.333s10.333-17,18.667-21.667s18.333-5,18.333-5
			c-3-1.333-4.667-1.167-4.667-1.167c-0.337-1.045-0.634-2.207-0.942-3.505C157.246,267.178,153.356,276.522,147.693,276.522z"/>
	</g>
	<path fill="#717375" d="M64.693,132.772c0,0-19.25-0.75-23-0.75s-15.75-0.5,2.5-3s57.25-6,87-7.75s58.75-3.75,75.25-4.25
		s30.5,0.5,24.25,2.25s-11,5-57.75,7.5c0,0,0.75-1,3-2.75s6-4.75,4-4.75s-5.75,0-15.25,1.25c0,0-7,3.5-9,4.25s-9,1.5-11.5,3.75
		c0,0-3-2.5-13.5-2.75s-23-0.5-26.75,5.75c0,0-9.5-0.5-18.5-0.75S62.193,128.522,64.693,132.772z"/>
	<path fill="#A7A9AC" d="M233.693,118.522c0,0,17.75-16.75,20-19.5s5.75-6,1-6.25s-39.75,0-68,1.5s-84.75,5.25-124.75,9.25
		s-43,2.5-60.5,6.75l28.25,21l3.25,0.5c0,0-2.5-1,4-2.5s41.5-5.5,73.75-7.75s78-5.25,98.75-5.25S233.693,115.772,233.693,118.522z"
		/>
	<g>
		<path fill="#008F3D" d="M207.462,87.594c-14.278-2.004-13.527-23.046-3.257-15.28c8.213,6.21,25.545,3.291,32.165,1.871
			c0.22-1.312,0.299-2.275,0.15-2.623c-0.752-1.754-5.261-4.259-14.279-6.263s-22.545-7.014-25.05-1.252s-8.266,22.043,2.756,24.799
			s28.306,2.506,32.314,1.754c0,0,0.068-0.235,0.183-0.638C226.838,91.255,217.733,89.036,207.462,87.594z"/>
		<path fill="#008035" d="M204.206,72.314c-10.271-7.766-11.021,13.276,3.257,15.28c10.271,1.441,19.375,3.661,24.982,2.368
			c0.691-2.422,3.163-11.226,3.925-15.777C229.751,75.604,212.418,78.524,204.206,72.314z"/>
	</g>
	<path fill="#008035" d="M26.35,77.825c0,0-7.014,2.755-9.519,5.511c0,0,9.519,12.275,11.773,21.042c0,0,1.503,0.5,1.503-0.251
		s-4.259-10.771-0.25-16.032c0,0-4.509-8.266-1.753-12.024L26.35,77.825z"/>
	<g>
		<path fill="#C1A281" d="M184.918,15.95c-4.846-2.129-10.426-3.912-16.225-5.346c19.223,7.968,45.822,20.729,36.014,24.885
			c-14.779,6.263-16.032,6.262-25.801,5.761s-13.528-1.503-20.792-1.002s-7.264,1.002-18.286,0.501s-9.269-1.252-19.038-0.501
			s-12.776,0-22.044,0.25s-21.042,2.756-29.058,4.008s-24.048,4.759-28.056,5.761s-7.265,2.756-9.269,1.002
			c-0.728-0.637-1.62-1.575-2.33-2.724c-0.388,0.642-0.614,1.067-0.676,1.221c-0.501,1.253,2.505,3.006,2.505,3.006
			c8.267-0.501,25.05-4.008,38.327-5.762s24.048-3.507,42.585-4.008s38.577-1.002,51.854-0.25s28.557,1.503,32.565,0.501
			s9.269-1.503,15.281-1.002s8.016,2.505,8.016,2.505C215.48,32.734,201.452,23.215,184.918,15.95z"/>
		<path fill="#D1AE8A" d="M32.363,51.271c2.004,1.754,5.261,0,9.269-1.002s20.04-4.509,28.056-5.761s19.79-3.758,29.058-4.008
			s12.275,0.501,22.044-0.25s8.016,0,19.038,0.501s11.022,0,18.286-0.501s11.022,0.501,20.792,1.002s11.022,0.501,25.801-5.761
			c9.809-4.156-16.791-16.917-36.014-24.885c-13.984-3.459-29.25-4.881-38.636-4.173c-13.277,1.002-43.837,3.006-66.382,13.026
			c-19.774,8.789-30.874,24.511-33.643,29.09C30.743,49.696,31.635,50.634,32.363,51.271z"/>
	</g>
	<g>
		<path fill="#D1AE8A" d="M133.064,62.042c-3.715,0.109-7.812,0.266-11.25,0.408c-0.664,0.528-1.769,1.342-4.281,2.598
			c-6.012,3.006-13.527,15.03-13.527,15.03s4.258-0.752,16.032-2.505s30.061-1.252,45.341-1.252s27.054,0.751,27.054,0.751
			c0.449-2.329,0.892-4.299,1.318-5.975c-3.874-2.967-10.858-7.302-18.603-7.302C163.375,63.796,141.582,61.792,133.064,62.042z"/>
		<path fill="#C1A281" d="M197.694,61.792c-19.289-1.252-35.07,0-46.092-0.501s-24.048,0.25-27.054,0.25
			c-1.75,0-1.809,0.174-2.733,0.909c3.438-0.142,7.535-0.299,11.25-0.408c8.517-0.25,30.311,1.753,42.084,1.753
			c7.744,0,14.729,4.334,18.603,7.302C195.938,62.499,197.694,61.792,197.694,61.792z"/>
	</g>
	<g>
		<path fill="#D1AE8A" d="M37.123,84.587c3.662,1.017,23.674-1.434,31.069-2.392c-1.911-2.261-7.106-8.267-10.528-10.884
			c-4.258-3.257-5.261-2.255-5.261-2.255s-16.784,2.255-19.289,2.756c0,0-1.094,0.608-2.233,1.76
			C30.435,78.584,33.774,83.658,37.123,84.587z"/>
		<path fill="#C1A281" d="M37.123,84.587c-3.348-0.93-6.688-6.003-6.242-11.015c-1.3,1.313-2.659,3.335-2.526,6.005
			c0.25,5.01-0.25,4.509,2.254,8.016c0,0,12.775-2.004,21.543-2.755c9.109-0.781,9.77-1.753,16.784-1.753
			c0,0-0.277-0.336-0.745-0.889C60.796,83.153,40.784,85.604,37.123,84.587z"/>
	</g>
	<path fill="#D1AE8A" d="M34.117,103.625c0,0,22.795-7.766,42.585-6.513l3.006,3.507c0,0-15.029,1.001-47.595,4.509
		C32.112,105.128,31.863,103.876,34.117,103.625z"/>
	<path fill="#D1AE8A" d="M96.991,95.609l0.25,2.755v1.002c0,0,17.786-2.255,59.619-4.509s43.838-2.755,55.862-2.755
		c0,0-12.776-1.253-16.533-4.259c0,0-35.571-0.25-46.092,1.754s-22.294,2.755-32.314,3.256S98.995,95.359,96.991,95.609z"/>
	<path fill="#8D552E" d="M194.186,86.842c0,0-2.505-6.263-2.004-8.517c0,0-21.042-1.002-40.08-0.751s-25.551-0.251-37.826,2.004
		s-12.275,2.255-12.275,2.255s-4.759,5.511-5.01,12.775c0,0,10.772-2.004,17.535-2.505s16.784-0.751,27.806-2.254
		s16.532-2.756,27.054-2.756S188.173,86.341,194.186,86.842z"/>
	<path fill="#8D552E" d="M31.61,103.375c0,0,21.794-8.767,43.838-7.264c0,0-3.257-3.758-4.259-6.513s-2.253-6.513-2.253-6.513
		s-12.025,1.753-23.548,3.507s-14.78,2.505-14.78,2.505S27.602,93.855,31.61,103.375z"/>
	<g>
		<path fill="#724421" d="M31.86,71.561c0,0-0.002-0.243-0.08-0.576C31.265,71.301,31.86,71.561,31.86,71.561z"/>
		<path fill="#724421" d="M227.502,53.525c-1.753-3.758-7.264-9.269-13.527-9.519s-14.529,1.002-21.793,1.002
			c-1.111,0-2.944-0.024-5.313-0.064c9.999,1.497,16.664,3.337,16.334,5.575c-1.252,8.517-6.262,8.016-28.306,7.766
			s-50.602-1.503-62.876-0.751c-9.629,0.589-27.118,1.334-35.056,4.894c3.867-0.375,7.845-0.919,12.51-1.637
			c9.77-1.503,32.565-4.008,33.317-0.25c0,0,33.567-0.25,49.6-0.25s26.052,0.751,26.052,0.751s2.255-1.503,12.275,0
			s10.521,2.505,10.521,2.505S229.256,57.283,227.502,53.525z"/>
		<path fill="#8D552E" d="M174.897,58.284c22.044,0.25,27.054,0.751,28.306-7.766c0.329-2.238-6.336-4.078-16.334-5.575
			c-13.115-0.225-42.843-0.976-59.817-1.188c-20.04-0.25-42.334,1.753-60.12,4.509s-31.565,5.511-35.572,5.511
			c0,0-4.007,0.25-5.26,6.763s-0.25,8.768,2.755,8.517c2.118-0.176,2.742,1.137,2.926,1.93c0.363-0.222,1.269-0.471,3.336-0.677
			c5.01-0.501,18.537-3.006,18.537-3.006s1.253-4.258,10.271-4.258c4.711,0,8.81-0.208,13.041-0.618
			c7.938-3.559,25.427-4.304,35.056-4.894C124.296,56.781,152.853,58.034,174.897,58.284z"/>
	</g>
	<path fill="#FCC111" d="M121.54,61.29c0,0-2.755-1.503-10.02-1.002s-19.289,1.001-26.804,2.254s-16.533,1.253-20.792,1.253
		s-8.267,1.002-9.519,4.008c0,0,4.008,1.754,9.018,6.764s5.937,6.788,7.603,11.122s2.833,7,5,9.667s4.5,4.667,4.5,4.667l15.5-0.833
		c0,0-0.667-5.333,1-10.333s4.667-7.667,8.333-13s7.333-9.334,11-11.167S120.72,61.558,121.54,61.29z"/>
</g>
</svg>
