<?xml version="1.0" encoding="utf-8"?>
<!-- Generator: Adobe Illustrator 16.0.0, SVG Export Plug-In . SVG Version: 6.00 Build 0)  -->
<!DOCTYPE svg PUBLIC "-//W3C//DTD SVG 1.1//EN" "http://www.w3.org/Graphics/SVG/1.1/DTD/svg11.dtd">
<svg version="1.1" id="Layer_1" xmlns="http://www.w3.org/2000/svg" xmlns:xlink="http://www.w3.org/1999/xlink" x="0px" y="0px"
	 width="182.201px" height="135.724px" viewBox="311.72 225.229 182.201 135.724"
	 enable-background="new 311.72 225.229 182.201 135.724" xml:space="preserve">
<g>
	<path fill="#1D1D1B" d="M314.967,316.762h-3.192v-4.469h17.717l4.575,4.572v6.922l-2.394,2.395l2.394,2.391v8.195l-4.282,4.279
		H311.72v-4.176h3.247V316.762L314.967,316.762z M319.436,316.762v7.342h8.406l1.811-1.811v-3.723l-1.811-1.809H319.436
		L319.436,316.762z M319.436,328.25v8.57h8.406l1.811-1.812v-4.948l-1.811-1.812L319.436,328.25L319.436,328.25z"/>
	<path fill="#1D1D1B" d="M337.949,320.754v-3.889h14.125l3.3,3.303v5.877l-2.847,2.844l2.287,3.943h2.233v3.936h-5.106l-3.884-7.022
		h-3.776v3.084h2.128v3.938h-8.517v-3.936h1.916v-12.078H337.949L337.949,320.754z M344.308,325.992h6.063l0.775-0.77v-3.646
		l-0.92-0.809h-5.919V325.992L344.308,325.992z"/>
	<path fill="#1D1D1B" d="M363.381,331.766v-10.188l0.917-1.129h6.145l0.919,1.129v10.188l-0.771,1.195h-6.436L363.381,331.766
		L363.381,331.766z M359.15,333.574l3.3,3.51h9.842l3.298-3.51v-13.406l-3.298-3.516h-9.842l-3.3,3.516V333.574L359.15,333.574z"/>
	<polygon fill="#1D1D1B" points="395.62,316.865 399.612,327.457 402.006,320.754 399.558,320.754 399.558,316.865 409.345,316.865 
		409.345,320.754 406.846,320.754 402.165,332.832 404.931,332.832 404.931,336.768 394.928,336.768 394.928,332.828 
		397.696,332.828 393.331,322.35 388.971,332.828 391.737,332.828 391.737,336.768 381.734,336.768 381.734,332.832 
		384.502,332.832 379.818,320.754 377.322,320.754 377.322,316.865 387.109,316.865 387.109,320.754 384.66,320.754 
		387.055,327.457 391.047,316.865 	"/>
	<polygon fill="#1D1D1B" points="429.67,320.754 431.586,320.754 431.586,316.865 423.073,316.865 423.125,320.754 425.254,320.754 
		425.254,328.547 417.329,316.865 411.209,316.865 411.209,320.754 413.069,320.754 413.069,332.832 411.154,332.832 
		411.154,336.768 419.669,336.768 419.669,332.828 417.541,332.828 417.541,325.113 425.413,336.871 429.67,336.871 	"/>
	<polygon fill="#1D1D1B" points="440.523,320.754 442.652,320.754 442.652,316.865 434.139,316.865 434.139,320.754 
		436.052,320.754 436.052,332.832 434.139,332.832 434.139,336.768 442.652,336.768 442.652,332.828 440.523,332.828 	"/>
	<polygon fill="#1D1D1B" points="463.825,320.754 465.743,320.754 465.743,316.865 457.228,316.865 457.228,320.754 
		459.357,320.754 459.41,328.547 451.481,316.865 445.365,316.865 445.365,320.754 447.227,320.754 447.227,332.832 
		445.312,332.832 445.312,336.768 453.824,336.768 453.824,332.828 451.695,332.828 451.695,325.113 459.57,336.871 
		463.825,336.871 	"/>
	<polygon fill="#1D1D1B" points="488.833,336.768 484.55,341.047 473.324,341.047 469.04,336.768 469.04,316.865 473.617,312.293 
		484.256,312.293 488.833,316.865 488.833,321.018 484.416,321.018 484.416,318.57 482.605,316.762 475.261,316.762 473.457,318.57 
		473.457,335.01 475.261,336.82 482.605,336.82 484.416,335.01 484.416,328.307 481.384,328.307 481.384,323.998 492.131,323.998 
		492.131,328.359 488.833,328.359 	"/>
	<path fill="#1D1D1B" d="M490.851,346.678c1.479,0,2.607-1.236,2.607-2.66c0-1.426-1.129-2.625-2.607-2.625
		c-1.497,0-2.695,1.199-2.695,2.625C488.154,345.441,489.354,346.678,490.851,346.678L490.851,346.678z M490.837,347.143
		c-1.739,0-3.146-1.44-3.146-3.125c0-1.682,1.407-3.088,3.16-3.088c1.738,0,3.07,1.406,3.07,3.088
		C493.921,345.701,492.561,347.143,490.837,347.143L490.837,347.143z"/>
	<path fill="#1D1D1B" d="M490.241,342.871v0.889h0.665c0.316,0,0.521-0.186,0.521-0.426c0-0.297-0.188-0.463-0.521-0.463H490.241
		L490.241,342.871z M489.688,342.662v-0.326h1.365c0.425,0,1.001,0.312,1.001,0.959c0,0.559-0.315,0.795-0.595,0.889l0.609,1.385
		h-0.609l-0.515-1.274h-0.704v1.274h-0.554L489.688,342.662L489.688,342.662z"/>
	<path fill="#1D1D1B" d="M393.903,252.062c0.25,0.084,0.416-0.085,0.663-0.085c0.249,0.085,0.58,0,0.828-0.085
		c0.329-0.166,0.579-0.33,0.91-0.496c1.074-0.832,1.901-1.828,2.062-3.15c0.083-1.158-0.25-2.234-0.917-3.312
		c-1.743-2.645-3.979-4.379-5.806-6.944c-1.334-1.984-2.079-3.973-2.414-6.288c-0.17-1.578-0.173-3.146,0.488-4.559
		c0.163-0.166,0.496-0.081,0.496-0.081c1.08,2.48,2.244,4.8,4.07,6.864c1.658,1.899,3.236,3.638,5.062,5.371
		c0.995,0.912,2.156,1.739,3.564,1.819c2.151,0.076,3.973-1.417,4.962-3.24c1.072-1.989,1.067-4.309,0.071-6.293
		c-1.412-2.565-3.981-3.968-6.798-4.625c-0.248-0.085-0.168-0.331-0.085-0.497c1.487-1.247,3.477-1.332,5.299-1.171
		c2.317,0.246,4.227,1.568,5.8,3.302c1.328,1.573,2.162,3.311,2.412,5.381c0.17,1.488,0.089,2.815-0.156,4.303
		c-0.824,3.482-2.889,6.136-5.531,8.456c-1.735,1.578-3.56,2.826-5.046,4.484c0.83,0.41,1.576,0.991,2.405,1.322
		c0.415,0.246,0.991,0.496,1.159,0.907c1.581,3.311,3.078,7.034,1.843,10.681c-0.248,0.661-0.496,1.492-1.157,1.823
		c-0.579,0.331-1.077-0.331-1.576-0.576c0,0-0.161,0.08-0.082,0.165c6.225,5.947,8.559,14.891,6.421,23.256
		c-0.904,3.646-2.805,6.878-5.615,9.287c-1.072,2.565-1.895,5.386-4.128,7.294c-0.741,0.58-1.929,0.832-2.427-0.08
		c-0.006-3.023-0.011-6.066-0.016-9.208c5.211-3.987,8.37-10.681,6.703-17.304c-1.084-3.973-3.659-7.199-6.81-9.594
		c-0.416-1.238-0.25-2.565,0.242-3.727c2.562-1.658,4.462-5.311,2.387-8.036c-1.82,0.831-3.558,1.828-4.877,3.406
		c-0.992,1.322-1.403,3.146-0.489,4.635c-0.246,0.911-0.579,1.823-1.32,2.404c-0.83-0.166-1.741-0.161-2.484,0.335
		c-1.491,1.162-2.977,1.994-3.969,3.571c-0.331,0.496,0.002,1.408-0.411,1.904c-1.984,2.485-4.382,4.563-5.864,7.299
		c0.744,0.496,1.655,0.822,2.484,1.072c1.243-0.832,2.483-1.413,3.639-2.324c0.993,0.075,2.073,0.411,3.067,0.406
		c1.323-0.085,2.566-0.255,3.809-0.586c0.581,1.408,0.834,2.977,0.505,4.554c-0.083,0.496-0.579,0.827-0.909,0.912
		c-2.072,0.751-4.389,0.505-6.542,0.18c-0.662,0.411-1.405,0.826-2.152,1.162c-1.075,0.416-1.986-0.577-2.98-0.577
		c-0.747,0.084-1.573,0.251-2.319-0.075c-1.491-0.582-3.728-1.318-3.979-3.057c-0.254-2.074,0.656-3.897,1.562-5.636
		c1.07-2.155,2.889-3.817,4.544-5.475c-0.002-0.747-0.113-1.767,0.081-2.07c0.854-1.351,4.138-4.044,5.787-4.813
		c0.827-0.332,1.904,0.245,2.898,0.075c-0.498-0.662-0.749-1.403-0.997-2.15c-1.906-0.245-4.061-1.318-3.899-3.472
		c0-0.245,0.414-0.165,0.579-0.085c0.828,0.827,2.154,1.077,3.147,0.411c0.414-0.415,0.661-0.996,0.411-1.572
		c-0.333-1.078-1.495-1.408-2.569-1.488c-1.741-0.081-3.396,0.42-5.133,0.255c-1.906-0.16-3.729-0.737-5.14-2.059
		c-1.076-0.993-1.909-2.146-2.076-3.638c-0.085-0.912,0.081-1.824,0.574-2.65c0.248-0.335,0.582-0.832,0.912-0.5
		c0.331,0.25,0.168,0.747,0.333,1.157c0.083,0.5,0.25,0.912,0.499,1.407c0.498,0.747,1.244,1.158,2.074,1.409
		c2.153,0.491,3.888-1.583,4.051-3.571c0.241-2.981-1.004-5.962-3.08-8.111c-0.746-0.742-1.573-1.238-2.485-1.649
		c-0.993-0.411-2.07-0.331-3.067-0.822c0-0.084,0-0.25,0-0.25c3.312-1.578,7.207-0.425,9.858,2.051
		c0.997,0.992,1.826,2.154,2.406,3.477c0.832,1.984,1.169,3.972,1.587,6.127C391.498,250.414,392.495,251.566,393.903,252.062
		L393.903,252.062z"/>
	<path fill="#1D1D1B" d="M328.195,355.367c0,1.746-0.026,4.969-2.518,4.969c-2.49,0-2.517-3.223-2.517-4.969
		s0.024-4.969,2.517-4.969C328.169,350.398,328.195,353.621,328.195,355.367L328.195,355.367z M324.523,355.367
		c0,2.055,0.141,3.762,1.155,3.762s1.155-1.707,1.155-3.762c0-2.053-0.141-3.762-1.155-3.762S324.523,353.314,324.523,355.367
		L324.523,355.367z"/>
	<path fill="#1D1D1B" d="M334.012,350.525v7.102c0,1.246,0.373,1.502,0.899,1.502c0.886,0,0.963-0.564,0.976-1.359v-7.244h1.284
		v6.871c0,1.271,0.012,2.939-2.221,2.939c-2.042,0-2.222-1.385-2.222-3.133v-6.678H334.012L334.012,350.525z"/>
	<polygon fill="#1D1D1B" points="345.351,350.525 345.351,351.643 343.899,351.643 343.899,360.209 342.615,360.209 
		342.615,351.643 341.1,351.643 341.1,350.525 	"/>
	<path fill="#1D1D1B" d="M350.73,350.525c1.516,0,3.235,0.104,3.235,5.01c0,4.469-1.489,4.674-3.789,4.674h-0.886v-9.684H350.73
		L350.73,350.525z M350.576,351.619v7.498c2.119,0.064,2.029-1.939,2.029-3.582C352.605,354.045,352.747,351.49,350.576,351.619
		L350.576,351.619z"/>
	<path fill="#1D1D1B" d="M363.276,355.367c0,1.746-0.025,4.969-2.518,4.969c-2.491,0-2.517-3.223-2.517-4.969
		s0.025-4.969,2.517-4.969S363.276,353.621,363.276,355.367L363.276,355.367z M359.604,355.367c0,2.055,0.142,3.762,1.156,3.762
		s1.156-1.707,1.156-3.762c0-2.053-0.142-3.762-1.156-3.762S359.604,353.314,359.604,355.367L359.604,355.367z"/>
	<path fill="#1D1D1B" d="M372.599,355.367c0,1.746-0.025,4.969-2.517,4.969s-2.517-3.223-2.517-4.969s0.025-4.969,2.517-4.969
		S372.599,353.621,372.599,355.367L372.599,355.367z M368.926,355.367c0,2.055,0.142,3.762,1.155,3.762
		c1.015,0,1.155-1.707,1.155-3.762c0-2.053-0.142-3.762-1.155-3.762S368.926,353.314,368.926,355.367L368.926,355.367z"/>
	<path fill="#1D1D1B" d="M377.132,350.525h1.541c0.938,0,2.401,0.053,2.401,2.479c0,0.912-0.271,2.299-1.335,2.492l1.785,4.713
		h-1.335l-1.746-4.738h-0.026v4.738h-1.283v-9.684H377.132z M379.712,353.287c0-0.924-0.115-1.695-1.091-1.668h-0.206v3.195
		C379.378,354.879,379.712,354.262,379.712,353.287L379.712,353.287z"/>
	<path fill="#1D1D1B" d="M394.902,359.451c-0.398,0.564-1.016,0.885-1.669,0.885c-1.245,0-2.169-1.154-2.169-2.414
		c0-1.039,0.642-1.887,1.348-2.592c-0.423-0.643-0.771-1.49-0.771-2.273c0-1.065,0.758-1.85,1.85-1.85
		c1.078,0,1.849,0.629,1.849,1.746c0,1.066-0.731,1.861-1.438,2.557l1.271,2.105l0.796-1.131l0.822,0.668l-1.027,1.438l1.027,1.619
		h-1.426L394.902,359.451L394.902,359.451z M393.027,356.33c-0.437,0.463-0.732,0.887-0.732,1.541c0,0.682,0.424,1.361,1.091,1.361
		c0.438,0,0.746-0.281,0.978-0.668L393.027,356.33L393.027,356.33z M394.286,352.953c0-0.436-0.244-0.77-0.706-0.77
		c-0.438,0-0.757,0.436-0.757,0.848c0,0.553,0.308,1.039,0.539,1.514C393.798,354.096,394.286,353.635,394.286,352.953
		L394.286,352.953z"/>
	<polygon fill="#1D1D1B" points="410.375,350.525 410.375,351.643 408.205,351.643 408.205,354.688 410.145,354.688 
		410.145,355.805 408.205,355.805 408.205,359.092 410.375,359.092 410.375,360.209 406.921,360.209 406.921,350.525 	"/>
	<path fill="#1D1D1B" d="M418.837,360.953l-0.681-1.014c-0.359,0.295-0.783,0.396-1.297,0.396c-2.49,0-2.518-3.224-2.518-4.969
		c0-1.746,0.026-4.97,2.518-4.97c2.49,0,2.517,3.224,2.517,4.97c0,1.104-0.052,2.696-0.578,3.788l0.874,1.207L418.837,360.953
		L418.837,360.953z M415.704,355.367c0,2.055,0.142,3.762,1.155,3.762c0.23,0,0.397-0.062,0.525-0.203l-0.81-1.17l0.784-0.617
		l0.487,0.693h0.025c0.076-0.783,0.142-1.617,0.142-2.465c0-2.053-0.142-3.762-1.155-3.762
		C415.846,351.605,415.704,353.314,415.704,355.367L415.704,355.367z"/>
	<path fill="#1D1D1B" d="M425.232,350.525v7.102c0,1.246,0.37,1.502,0.897,1.502c0.886,0,0.962-0.564,0.977-1.359v-7.244h1.283
		v6.871c0,1.271,0.014,2.939-2.222,2.939c-2.041,0-2.221-1.385-2.221-3.133v-6.678H425.232L425.232,350.525z"/>
	<polygon fill="#1D1D1B" points="434.438,360.209 433.154,360.209 433.154,350.525 434.438,350.525 	"/>
	<path fill="#1D1D1B" d="M439.216,360.209v-9.684h1.539c1.105,0,2.519,0.104,2.519,2.596c0,1.965-0.771,2.875-2.773,2.799v4.289
		H439.216L439.216,360.209z M440.499,351.619v3.209c1.104,0.076,1.412-0.525,1.412-1.605c0-0.873-0.257-1.604-1.232-1.604H440.499
		L440.499,351.619z"/>
	<polygon fill="#1D1D1B" points="448.833,350.525 450.207,357.512 450.231,357.512 450.271,357.113 450.656,354.791 451.49,350.525 
		452.621,350.525 453.52,360.209 452.261,360.209 452.029,356.6 451.953,354.803 451.927,353.531 451.901,353.531 451.684,354.918 
		450.682,360.209 449.796,360.209 448.55,353.531 448.524,353.531 448.151,360.209 446.932,360.209 447.728,350.525 	"/>
	<polygon fill="#1D1D1B" points="461.274,350.525 461.274,351.643 459.104,351.643 459.104,354.688 461.043,354.688 
		461.043,355.805 459.104,355.805 459.104,359.092 461.274,359.092 461.274,360.209 457.821,360.209 457.821,350.525 	"/>
	<polygon fill="#1D1D1B" points="466.578,353.404 466.771,356.652 466.771,360.209 465.486,360.209 465.486,350.525 466.72,350.525 
		468.979,357.885 469.006,357.859 468.697,353.98 468.697,350.525 469.98,350.525 469.98,360.209 468.786,360.209 466.527,352.748 
		466.502,352.773 	"/>
	<polygon fill="#1D1D1B" points="478.173,350.525 478.173,351.643 476.722,351.643 476.722,360.209 475.438,360.209 
		475.438,351.643 473.923,351.643 473.923,350.525 	"/>
</g>
</svg>
