<?xml version="1.0" encoding="utf-8"?>
<!-- Generator: Adobe Illustrator 16.0.0, SVG Export Plug-In . SVG Version: 6.00 Build 0)  -->
<!DOCTYPE svg PUBLIC "-//W3C//DTD SVG 1.1//EN" "http://www.w3.org/Graphics/SVG/1.1/DTD/svg11.dtd">
<svg version="1.1" id="Layer_1" xmlns="http://www.w3.org/2000/svg" xmlns:xlink="http://www.w3.org/1999/xlink" x="0px" y="0px"
	 width="160.924px" height="170.341px" viewBox="15.799 11.01 160.924 170.341"
	 enable-background="new 15.799 11.01 160.924 170.341" xml:space="preserve">
<g>
	<path fill="#FFFCDF" stroke="#000000" stroke-width="0.793" stroke-miterlimit="2.6131" d="M96.24,130.597
		c44.206,0,80.043-26.683,80.043-59.595c0-32.914-35.837-59.596-80.043-59.596c-44.207,0-80.044,26.682-80.044,59.596
		C16.196,103.914,52.033,130.597,96.24,130.597L96.24,130.597z"/>
	<path fill="#FFFFFF" stroke="#005543" stroke-width="2.7484" stroke-miterlimit="2.6131" d="M96.385,126.713
		c41.943,0,75.945-24.944,75.945-55.713c0-30.77-34.002-55.713-75.945-55.713C54.442,15.287,20.44,40.23,20.44,71
		C20.44,101.769,54.442,126.713,96.385,126.713L96.385,126.713z"/>
	<path fill="#FFFCDF" stroke="#000000" stroke-width="0.793" stroke-miterlimit="2.6131" d="M96.372,103.731
		c26.146,0,47.342-14.669,47.342-32.768c0-18.097-21.195-32.769-47.342-32.769c-26.146,0-47.342,14.672-47.342,32.769
		C49.03,89.062,70.226,103.731,96.372,103.731L96.372,103.731z"/>
	<path d="M43.936,46.206c-1.946-0.654-3.961-0.298-5.2,1.689c-0.503,0.807-0.765,1.946-0.526,3.037
		c0.221,1.013,0.811,2.369,3.134,3.82c3.421,2.136,6.023,1.091,7.292-0.944c1.238-1.987,0.817-3.865,0.646-4.668l0.472-0.109
		c0.022,0.037,1.173,2.686-0.679,5.657c-1.621,2.6-4.912,4.427-8.93,1.918c-3.614-2.257-3.875-6.19-2.144-8.968
		c0.896-1.438,2.083-2.155,2.305-2.51c0.05-0.081,0.382-0.613-0.07-1.075l0.211-0.339l3.722,2.122L43.936,46.206L43.936,46.206z"/>
	<path d="M52.713,42.777l-1.437-5.489l4.929,2.819L52.713,42.777L52.713,42.777L52.713,42.777z M62.867,40.714
		c-0.699,0.463-1.038,0.458-2.365-0.276L50.18,34.724l-0.302,0.231l2.526,9.831c0.22,0.885,0.595,2.348,0.536,2.992
		c-0.052,0.495-0.287,0.722-0.517,0.922l0.219,0.287l2.993-2.288l-0.22-0.287c-0.317,0.243-1.027,0.786-1.513,0.15
		c-0.127-0.166-0.243-0.413-0.318-0.667l-0.656-2.302l3.96-3.028l1.728,0.979c0.252,0.143,0.83,0.491,1.015,0.733
		c0.427,0.559-0.06,0.956-0.619,1.384l0.22,0.288l3.854-2.947L62.867,40.714L62.867,40.714z"/>
	<path d="M64.769,27.04c-1.165,0.569-1.552,0.875-0.973,2.263l3.466,8.31c0.293,0.703,0.617,0.588,2.074-0.02
		c2.632-1.1,3.727-1.64,3.767-4.359l0.439-0.184l0.432,3.409l-9.443,3.946l-0.139-0.333c1.094-0.54,1.432-0.867,0.867-2.22
		l-3.252-7.8c-0.58-1.388-1.044-1.317-2.188-0.943l-0.139-0.334l4.95-2.068L64.769,27.04L64.769,27.04z"/>
	<path d="M76.612,35.386c1.562-0.416,1.709-0.783,1.393-2.098l-1.977-8.218c-0.329-1.37-0.642-1.529-2.194-1.233l-0.085-0.352
		l5.492-1.324l0.085,0.352c-1.336,0.381-1.768,0.622-1.412,2.103l1.978,8.218c0.347,1.443,0.835,1.522,2.212,1.229l0.085,0.352
		l-5.492,1.324L76.612,35.386L76.612,35.386z"/>
	<path d="M92.109,28.733c-0.365-1.571-0.838-1.715-2.259-1.595l-2.748,0.232l0.408,4.149c0.139,1.421,0.54,1.611,1.89,1.535
		l0.035,0.36l-5.3,0.522l-0.035-0.36c1.412-0.215,1.611-0.522,1.459-2.076l-0.807-8.204c-0.147-1.497-0.613-1.566-1.814-1.543
		l-0.036-0.36l10.052-0.99l0.324,2.704l-0.474,0.046c-0.45-1.658-0.972-1.913-3.073-1.706l-2.575,0.254
		c-0.473,0.047-0.598,0.136-0.542,0.704l0.414,4.206l2.745-0.271c1.552-0.152,1.855-0.565,1.905-2.004l0.436-0.043l0.433,4.396
		L92.109,28.733L92.109,28.733z"/>
	<path d="M102.631,32.902c-2.104-0.168-3.903-2.012-3.571-6.187c0.346-4.327,2.572-5.696,4.506-5.542
		c1.936,0.155,3.916,1.86,3.572,6.187C106.804,31.536,104.735,33.07,102.631,32.902L102.631,32.902L102.631,32.902z M102.576,33.585
		c3.432,0.274,6.397-1.99,6.72-6.033c0.35-4.364-2.566-6.812-5.676-7.061c-3.109-0.248-6.375,1.707-6.725,6.071
		C96.574,30.604,99.146,33.311,102.576,33.585L102.576,33.585z"/>
	<path d="M117.487,24.426c0.154-0.53,0.354-0.61,1.322-0.329c0.75,0.218,3.127,0.969,2.42,3.4c-0.758,2.614-3.51,1.854-5.049,1.426
		L117.487,24.426L117.487,24.426L117.487,24.426z M122.772,37.263c-0.738-0.254-1.082-0.711-1.34-1.321l-2.42-5.72
		c0.984,0.088,3.485,0.34,4.197-2.109c0.816-2.815-2.085-4.076-3.711-4.548l-5.041-1.466l-0.102,0.347
		c1.242,0.5,1.469,0.744,1.076,2.097l-2.3,7.916c-0.397,1.371-0.583,1.734-2.089,1.395l-0.102,0.347l5.06,1.472l0.103-0.347
		c-1.44-0.498-1.521-0.899-1.166-2.123l1.045-3.602l1.033,0.261l2.713,6.895l2.939,0.855L122.772,37.263L122.772,37.263z"/>
	<path d="M141.64,34.056c-1.104-0.481-1.671-0.719-2.777,1.213l-4.98,8.685l-0.279-0.161l-2.07-13.217l-0.033-0.019l-3.691,6.439
		c-0.976,1.701-0.838,2.263,0.338,3.004l-0.18,0.314l-3.877-2.227l0.18-0.314c1.303,0.638,1.791,0.589,2.812-1.194l4.175-7.281
		c-0.202-1.214-0.42-1.448-1.079-1.828l0.18-0.313l2.82,1.62l1.766,11.571l0.033,0.019l3.162-5.515
		c1.088-1.898,0.702-2.296-0.373-3.023l0.18-0.313l3.877,2.227L141.64,34.056L141.64,34.056z"/>
	<path d="M136.901,45.708c1.203,1.083,1.591,1.004,2.518,0.021l5.796-6.147c0.968-1.024,0.931-1.374-0.167-2.513l0.248-0.263
		l4.107,3.881l-0.248,0.263c-1.049-0.912-1.484-1.142-2.529-0.034l-5.796,6.147c-1.019,1.08-0.817,1.532,0.181,2.527l-0.248,0.263
		l-4.107-3.88L136.901,45.708L136.901,45.708z"/>
	<path d="M148.383,51.684l5.638-0.609l-3.519,4.46L148.383,51.684L148.383,51.684L148.383,51.684z M148.915,62.041
		c-0.354-0.761-0.299-1.096,0.623-2.3l7.177-9.37l-0.183-0.333l-10.09,1.042c-0.906,0.087-2.407,0.241-3.035,0.087
		c-0.481-0.126-0.672-0.391-0.834-0.648l-0.316,0.174l1.816,3.301l0.316-0.174c-0.193-0.35-0.623-1.134,0.075-1.52
		c0.183-0.101,0.443-0.179,0.706-0.215l2.372-0.308l2.403,4.368l-1.223,1.566c-0.179,0.229-0.608,0.749-0.875,0.896
		c-0.617,0.34-0.937-0.201-1.275-0.818l-0.316,0.175l2.342,4.251L148.915,62.041L148.915,62.041z"/>
	<path d="M47.49,88.087c0.526-0.371,0.67-0.212,1.019,0.25c0.511,0.676,2.176,2.945-0.104,4.548
		c-2.424,1.705-3.982-0.356-4.412-0.926c-0.244-0.323-0.461-0.642-0.65-0.956L47.49,88.087L47.49,88.087L47.49,88.087z
		 M46.157,84.642c0.737,1.202,0.673,1.505-0.458,2.302L38.794,91.8c-1.148,0.808-1.515,1.065-2.587-0.16l-0.304,0.213l3.255,4.307
		l0.303-0.212c-0.863-1.207-0.821-1.637,0.343-2.455l2.902-2.042c0.247,0.392,0.452,0.695,0.731,1.064
		c1.221,1.616,2.251,2.398,3.405,2.6c0.453,0.082,1.618,0.299,2.862-0.575c2.025-1.425,1.429-3.926-0.176-6.049L46.46,84.43
		L46.157,84.642L46.157,84.642z"/>
	<path d="M45.831,102.885c1.312,1.011,1.708,0.908,2.608-0.129l5.623-6.48c0.938-1.081,0.877-1.427-0.328-2.5l0.241-0.278
		l4.494,3.629l-0.241,0.276c-1.142-0.847-1.61-1.05-2.623,0.117l-5.622,6.48c-0.988,1.141-0.752,1.578,0.343,2.512l-0.241,0.277
		l-4.494-3.629L45.831,102.885L45.831,102.885z"/>
	<path d="M65.96,105.799l-0.433-0.227c0.48-1.525,0.221-3.613-1.599-4.57c-0.866-0.455-2.042-0.399-2.628,0.636
		c-1.417,2.508,4.182,5.885,2.246,9.311c-0.802,1.422-2.887,2.406-5.365,1.104c-1.316-0.691-1.845-1.707-2.365-1.979
		c-0.364-0.191-0.697,0.002-0.849,0.27l-0.381-0.198l1.482-3.818l0.398,0.209c-0.115,0.959-0.458,3.598,1.881,4.826
		c1.386,0.729,2.617,0.141,3.127-0.76c0.538-0.955,0.582-1.668-1.152-4.445c-1.094-1.723-1.788-3.041-0.853-4.697
		c1.076-1.906,3.182-2.012,4.741-1.193c1.04,0.547,1.654,1.607,2.087,1.836c0.485,0.254,0.789-0.086,0.927-0.25l0.364,0.191
		L65.96,105.799L65.96,105.799z"/>
	<path d="M75.304,118.289l-5.52-1.592l0.107-0.347c1.743,0.422,1.93,0.021,2.348-1.33l2.826-9.119l-1.021-0.295
		c-2.08-0.6-2.698-0.399-3.729,1.468l-0.454-0.132l1.075-3.067l10.663,3.076l-0.848,3.133l-0.454-0.131
		c0.225-2.121-0.203-2.601-2.282-3.201l-1.021-0.295l-2.888,9.319c-0.385,1.24-0.266,1.652,1.306,2.166L75.304,118.289
		L75.304,118.289z"/>
	<path d="M84.969,115.183l2.84-4.97l1.691,5.44L84.969,115.183L84.969,115.183L84.969,115.183z M94.075,120.69
		c-0.856-0.146-1.108-0.385-1.58-1.832l-3.677-11.26l-0.393-0.041l-5.125,8.865c-0.466,0.795-1.23,2.111-1.734,2.537
		c-0.394,0.324-0.731,0.326-1.047,0.312l-0.041,0.358l3.884,0.406l0.041-0.359c-0.412-0.043-1.334-0.141-1.245-0.934
		c0.023-0.209,0.112-0.468,0.237-0.703l1.151-2.121l5.14,0.539l0.601,1.899c0.087,0.277,0.272,0.929,0.239,1.23
		c-0.079,0.701-0.729,0.652-1.454,0.576l-0.041,0.359l5.002,0.522L94.075,120.69L94.075,120.69z"/>
	<path d="M108.39,111.563c-0.664-1.953-2.211-3.354-4.63-3.162c-0.983,0.08-2.091,0.552-2.85,1.396
		c-0.704,0.783-1.464,2.066-1.228,4.797c0.349,4.023,2.83,5.484,5.309,5.285c2.419-0.195,3.718-1.656,4.277-2.275l0.385,0.314
		c-0.018,0.039-1.504,2.547-5.121,2.838c-3.165,0.256-6.725-1.291-7.135-6.014c-0.367-4.25,2.736-6.812,6.119-7.086
		c1.75-0.141,3.082,0.383,3.515,0.348c0.1-0.008,0.747-0.061,0.851-0.699l0.413-0.033l0.547,4.254L108.39,111.563L108.39,111.563z"
		/>
	<path d="M114.72,118.906c1.562-0.541,1.51-0.964,1.077-2.328l-2.502-7.884c-0.427-1.348-0.749-1.45-2.181-1.147l-0.109-0.346
		l5.245-1.55l0.11,0.347c-1.399,0.533-1.551,0.836-1.141,2.129l1.119,3.531l5.719-1.688l-1.121-3.531
		c-0.429-1.348-0.75-1.451-2.181-1.147l-0.11-0.347l5.246-1.549l0.108,0.347c-1.397,0.53-1.55,0.836-1.14,2.129l2.563,8.082
		c0.382,1.2,0.681,1.489,2.181,1.146l0.109,0.346l-5.244,1.552l-0.109-0.347c1.561-0.541,1.51-0.965,1.076-2.33l-1.127-3.549
		l-5.717,1.688l1.189,3.75c0.381,1.201,0.68,1.492,2.181,1.147l0.109,0.347l-5.245,1.549L114.72,118.906L114.72,118.906z"/>
	<path d="M131.574,113.168c1.464-0.791,1.516-1.185,0.858-2.379l-4.104-7.467c-0.684-1.246-1.039-1.322-2.523-0.65l-0.176-0.317
		l5.178-2.648l0.178,0.32c-1.245,0.701-1.617,1.041-0.877,2.387l4.104,7.467c0.723,1.312,1.23,1.268,2.54,0.641l0.176,0.32
		l-5.178,2.648L131.574,113.168L131.574,113.168z"/>
	<path d="M146.099,103.92c-1.65,1.39-4.322,1.39-7.176-1.771c-2.957-3.271-2.355-5.821-0.839-7.098
		c1.517-1.276,4.218-1.502,7.175,1.771C148.11,99.978,147.749,102.531,146.099,103.92L146.099,103.92L146.099,103.92z
		 M146.563,104.437c2.692-2.265,3.164-5.972,0.401-9.026c-2.981-3.3-6.909-2.925-9.349-0.873c-2.439,2.052-3.359,5.755-0.377,9.056
		C140.003,106.647,143.873,106.701,146.563,104.437L146.563,104.437z"/>
	<path d="M151.373,83.583L151.138,84c-1.582-0.463-3.746-0.215-4.738,1.54c-0.474,0.835-0.418,1.97,0.656,2.536
		c2.598,1.368,6.103-4.031,9.651-2.161c1.474,0.775,2.493,2.787,1.142,5.176c-0.719,1.271-1.771,1.779-2.055,2.28
		c-0.199,0.352,0.002,0.673,0.279,0.819l-0.209,0.367l-3.955-1.432l0.217-0.384c0.994,0.11,3.729,0.444,5.005-1.812
		c0.757-1.336,0.146-2.525-0.789-3.017c-0.987-0.52-1.727-0.563-4.606,1.109c-1.786,1.054-3.154,1.723-4.868,0.819
		c-1.976-1.039-2.085-3.07-1.234-4.575c0.567-1.002,1.667-1.595,1.903-2.013c0.265-0.468-0.087-0.761-0.258-0.895l0.197-0.351
		L151.373,83.583L151.373,83.583z"/>
	<path fill="#005543" d="M115.274,58.031c-0.938-2.814-2.229-5.388-3.799-7.627l-7.773,6.401l-1.159,8.381L115.274,58.031
		L115.274,58.031z"/>
	<path fill="#005543" d="M101.297,74.199l15.671-7.026c-0.152-3.094-0.697-6.05-1.574-8.784l-13.174,9.139L101.297,74.199
		L101.297,74.199z"/>
	<path fill="#005543" d="M85.488,44.549c-4.756,3.285-8.437,8.82-10.197,15.503l10.842-10.523L85.488,44.549L85.488,44.549z"/>
	<path fill="#005543" d="M105.422,44.375L103.97,54.87l7.153-4.963C109.481,47.677,107.558,45.801,105.422,44.375L105.422,44.375z"
		/>
	<path fill="#005543" d="M116.987,67.655l-16.061,9.217l-0.71,5.131l16.048-5.78c0.487-2.316,0.75-4.751,0.75-7.266
		C117.015,68.521,117.004,68.087,116.987,67.655L116.987,67.655z"/>
	<path fill="#005543" d="M99.243,89.05l13.443-3.422c1.371-2.343,2.463-4.976,3.205-7.816l-16.123,7.441L99.243,89.05L99.243,89.05z
		"/>
	<path fill="#005543" d="M96.912,86.57l-1.995,0.921l-0.461-3.414l3.146-1.133l0.895-4.678l-4.479,2.57l-0.429-3.183l5.495-2.463
		l1.207-6.326l-7.212,5.003l-0.422-3.125l8.15-4.581l1.58-8.273l-10.319,8.495l-0.401-2.979l11.142-7.729l0.805-4.217
		c-0.873-1.455-1.774-2.542-2.65-3.355L90.941,58.03l-0.351-2.595l9.679-7.923c-2.863-2.241-5.292-1.686-5.292-1.686
		c-1.427-0.035-2.664,0.333-3.721,0.907l-17.02,19.826c-0.051,0.769-0.08,1.545-0.082,2.331l13.584-11.119l0.572,2.865L74.55,74.267
		c0.046,0.305,0.095,0.609,0.148,0.911l14.507-10.065l0.623,3.117L75.845,79.744c0.042,0.126,0.084,0.251,0.127,0.376l14.593-8.202
		l0.648,3.244l-13.386,9.287c0.039,0.074,0.079,0.146,0.118,0.219l13.921-6.241l0.653,3.271l-12.024,6.901
		c0.104,0.134,0.208,0.266,0.314,0.396l12.284-4.425l0.688,3.446l-9.549,4.407c0.143,0.116,0.287,0.229,0.433,0.34l9.578-2.438
		l0.702,3.514l-5.122,1.771c1.833,0.658,3.765,1.013,5.761,1.013c5.991,0,11.408-3.176,15.297-8.292l-15.145,5.235L96.912,86.57
		L96.912,86.57z"/>
	<path d="M161.515,113.406c0-2.113,1.592-3.705,3.633-3.705c2.017,0,3.607,1.592,3.607,3.705c0,2.147-1.592,3.729-3.607,3.729
		C163.106,117.138,161.515,115.556,161.515,113.406L161.515,113.406L161.515,113.406z M165.146,117.881
		c2.431,0,4.506-1.889,4.506-4.475c0-2.562-2.075-4.449-4.506-4.449c-2.453,0-4.528,1.89-4.528,4.449
		C160.617,115.992,162.692,117.881,165.146,117.881L165.146,117.881L165.146,117.881z M164.202,113.763h0.896l1.355,2.229h0.873
		l-1.463-2.269c0.755-0.094,1.332-0.494,1.332-1.416c0-1.016-0.602-1.463-1.814-1.463h-1.958v5.146h0.777L164.202,113.763
		L164.202,113.763L164.202,113.763z M164.202,113.101v-1.595h1.062c0.543,0,1.12,0.119,1.12,0.756c0,0.791-0.59,0.839-1.25,0.839
		H164.202L164.202,113.101z"/>
	
		<line fill="none" stroke="#000000" stroke-width="0.9833" stroke-miterlimit="2.6131" x1="16.032" y1="139.819" x2="176.724" y2="139.819"/>
	<path d="M50.841,146.101h-0.165H41.07l-0.387,1.871l0.359-0.224c0.206-0.127,0.349-0.209,0.599-0.263
		c0.007-0.002,0.404-0.053,0.404-0.053s2.676,0,2.999,0c0,0.353,0,10.342,0,10.342l0.004,0.201l-0.028,0.457
		c-0.001,0-0.145,0.365-0.145,0.365l-0.098,0.248l0.263,0.008h2.238l-0.179-0.35l-0.125-0.318c0,0.002-0.055-0.533-0.055-0.533
		v-0.106c0,0,0-10.021,0-10.371c0.317,0,2.557,0,2.557,0l0.697,0.108c0.002,0,0.827,0.304,0.827,0.304l-0.016-0.283L50.841,146.101
		L50.841,146.101z"/>
	<path d="M59.368,158.358c-0.002-0.01-0.028-0.393-0.028-0.393l0.001-0.121v-3.897c0-1.521-0.339-3.548-3.261-3.578
		c-1.032-0.017-1.803,0.289-2.459,0.928c0-0.746,0-5.315,0-5.315l-0.2,0.019l-1.853,0.176l0.367,0.443
		c0.074,0.139,0.072,0.252,0.068,0.422l-0.001,0.125v10.451l0.003,0.182l-0.039,0.47c-0.052,0.194-0.112,0.313-0.24,0.479
		l-0.226,0.295h2.487l-0.127-0.338l-0.143-0.478c-0.003-0.016-0.083-0.567-0.083-0.567v-3.841c0-1.245,0.871-2.135,2.119-2.159
		c0.603-0.015,1.137,0.18,1.508,0.541c0.333,0.327,0.518,0.778,0.518,1.274v4.385l0.001,0.111l-0.038,0.426
		c-0.001,0-0.165,0.353-0.165,0.353l-0.119,0.258l0.258,0.047h1.899l-0.096-0.264L59.368,158.358L59.368,158.358z"/>
	<path d="M64.781,159.197c1.109,0.043,1.915,0.026,2.977-0.552l0.074-0.039l0.331-1.61l-0.391,0.308
		c-0.848,0.668-1.596,0.717-2.64,0.717c-0.918,0-1.68-0.293-2.205-0.853c-0.553-0.588-0.826-1.446-0.767-2.424
		c0,0.002,0.017-0.224,0.03-0.388c0.318,0,6.024,0,6.024,0l-0.005-0.186c-0.062-2.111-1.601-3.676-3.658-3.719
		c-1.028-0.02-2.005,0.379-2.754,1.123c-0.813,0.809-1.271,1.934-1.255,3.088C60.569,157.479,62.075,159.09,64.781,159.197
		L64.781,159.197L64.781,159.197z M62.485,153.181c0.296-0.923,1.093-1.533,2.087-1.521h0.001c1.306,0.014,1.83,0.789,2.036,1.521
		C66.212,153.181,62.929,153.181,62.485,153.181L62.485,153.181z"/>
	<path d="M74.217,152.276l2.297,1.328c1.163,0.652,1.834,1.23,1.834,2.256c0,0.613-0.196,1.113-0.583,1.49
		c-0.521,0.506-1.359,0.758-2.425,0.728c-1.137-0.027-1.949-0.103-2.843-0.832l-0.297-0.24v1.834l0.116,0.047
		c0.927,0.361,1.615,0.373,2.486,0.39l0.4,0.008c1.088,0.021,3.085-0.119,4.239-1.293c0.592-0.604,0.875-1.395,0.841-2.35
		c-0.068-2.027-1.193-2.654-2.495-3.382l-0.45-0.254l-2.011-1.17c-0.805-0.461-1.318-0.905-1.394-1.701
		c-0.048-0.575,0.231-0.995,0.474-1.245c0.5-0.519,1.331-0.824,2.117-0.783c0.971,0.043,1.621,0.186,2.28,0.819l0.308,0.296v-1.847
		L79,146.326c-0.825-0.349-1.44-0.359-2.219-0.375l-0.371-0.011c-1.328-0.043-2.59,0.392-3.375,1.162
		c-0.586,0.574-0.889,1.31-0.877,2.121C72.171,150.531,72.787,151.444,74.217,152.276L74.217,152.276z"/>
	<path d="M88.858,158.399c0-0.002-0.08-0.711-0.08-0.711v-4.196c0-0.834-0.339-1.617-0.955-2.203
		c-0.67-0.642-1.603-0.979-2.559-0.937c-0.975,0.041-1.664,0.308-2.285,0.853c0.004-0.24,0.01-0.674,0.01-0.674l-1.878,0.092
		l0.233,0.655c0.002,0.009,0.021,0.07,0.021,0.07l0.074,0.385v6.455l-0.048,0.299l-0.291,0.552l0.292,0.017h2.023l-0.169-0.332
		l-0.126-0.287c-0.104-0.287-0.119-0.474-0.119-0.806v-4.067c0-1.15,0.807-1.98,1.963-2.019c0.666-0.017,1.345,0.231,1.771,0.647
		c0.305,0.3,0.467,0.668,0.467,1.068v4.398l0.01,0.26l-0.009,0.443c-0.01,0.135-0.061,0.207-0.174,0.356l-0.222,0.291l0.334,0.043
		h2.075l-0.159-0.286L88.858,158.399L88.858,158.399z"/>
	<path d="M95.058,159.074l1.9-0.037l-0.103-0.265l-0.212-0.545l-0.066-0.567v-4.397c0-1.921-1.036-2.81-3.357-2.88
		c-0.764-0.014-1.65,0.017-2.54,0.554l-0.088,0.053v1.473l0.301-0.26c0.487-0.422,1.237-0.627,2.292-0.627
		c1.051,0,1.844,0.549,1.844,1.275c0,0.657-0.356,0.836-1.059,0.944c-0.002,0-1.7,0.287-1.7,0.287
		c-1.609,0.262-2.321,0.981-2.377,2.414c-0.031,0.715,0.199,1.346,0.665,1.823c0.545,0.558,1.373,0.867,2.273,0.851
		c0.864-0.012,1.557-0.155,2.227-0.668C95.058,158.694,95.058,159.074,95.058,159.074L95.058,159.074L95.058,159.074z
		 M95.086,154.726c0,0.36,0,1.707,0,1.707c0,0.995-1.047,1.604-2.06,1.616l0,0c-0.506,0.009-0.979-0.182-1.299-0.521
		c-0.237-0.252-0.361-0.557-0.361-0.885c0-0.033,0.001-0.064,0.003-0.099c0.049-0.688,0.531-1.172,1.321-1.317l1.541-0.285
		C94.239,154.938,94.772,154.806,95.086,154.726L95.086,154.726z"/>
	<path d="M102.646,159.142l0.244-0.007c0.799-0.022,1.375-0.038,2.182-0.364l0.095-0.037l0.278-1.604l-0.359,0.256
		c-0.531,0.377-1.493,0.638-2.45,0.664c-0.856,0.021-1.661-0.301-2.27-0.901c-0.619-0.615-0.953-1.445-0.94-2.338
		c0.016-1.824,1.332-3.166,3.131-3.191c0.766-0.014,1.612,0.236,2.156,0.637l0.289,0.211v-1.609l-0.111-0.045
		c-0.839-0.348-1.412-0.356-2.281-0.369l-0.065-0.002c-1.353-0.037-2.586,0.429-3.476,1.31c-0.823,0.815-1.267,1.922-1.246,3.117
		c0.015,1.178,0.474,2.256,1.291,3.037C100.003,158.754,101.258,159.192,102.646,159.142L102.646,159.142z"/>
	<polygon points="102.295,159.142 102.296,159.142 102.296,159.142 	"/>
	<path d="M108.129,158.082c0-0.06,0.004-0.121,0.009-0.188l0.01-0.263c0,0,0-1.682,0-2.309c0.527,0.541,3.664,3.747,3.664,3.747
		h2.377l-0.485-0.391l-0.437-0.369c-0.009-0.008-0.949-0.85-0.949-0.85s-2.877-2.918-3.104-3.146c0.212-0.229,2.28-2.483,2.28-2.483
		l0.385-0.412c0.001-0.002,0.437-0.474,0.437-0.474l0.408-0.434h-2.552l-0.011,0.348c-0.003,0.168-0.006,0.314-0.064,0.402
		c-0.535,0.807-1.316,1.666-1.877,2.246c0,0-0.052,0.053-0.115,0.115c0-0.783,0-7.619,0-7.619l-0.203,0.025l-1.817,0.221
		l0.201,0.293l0.094,0.145c0.181,0.445,0.177,0.752,0.168,1.181l-0.004,0.299v9.437l0.001,0.143l-0.038,0.52
		c-0.001,0.006-0.188,0.533-0.188,0.533l-0.084,0.242l0.25,0.016h2.092l-0.368-0.604
		C108.146,158.315,108.129,158.205,108.129,158.082L108.129,158.082z"/>
	<path d="M117.511,147.181v10.565l0.006,0.215l-0.018,0.41c-0.001-0.002-0.18,0.432-0.18,0.432l-0.104,0.25l0.265,0.019h2.11
		l-0.165-0.4l-0.054-0.17c0-0.004-0.101-1.609-0.101-1.609s0-4.096,0-4.432c0.326,0,3.199,0,3.199,0l0.26-0.004l0.445,0.004
		c0.01,0,0.453,0.07,0.453,0.07l0.322,0.082l-0.001-1.445c0,0-4.384,0-4.72,0c0-0.316,0-3.459,0-3.775c0.324,0,3.375,0,3.375,0
		l0.631,0.051c0,0.005,0.379,0.244,0.379,0.244l0.275,0.172l0.031-0.303l0.016-1.442h-0.184h-6.675l0.339,0.594
		C117.423,146.717,117.511,147.181,117.511,147.181L117.511,147.181z"/>
	<path d="M128.628,159.156c2.424,0.043,4.434-1.875,4.479-4.277c0.027-1.147-0.4-2.246-1.209-3.09
		c-0.817-0.854-1.959-1.356-3.135-1.379c-1.179-0.015-2.339,0.457-3.184,1.293c-0.837,0.828-1.298,1.918-1.298,3.071
		C124.281,157.162,126.231,159.127,128.628,159.156L128.628,159.156L128.628,159.156z M128.724,151.674
		c1.549,0.062,2.778,1.457,2.778,3.127c0,0.027,0,0.058,0,0.084c-0.044,1.712-1.28,3.052-2.813,3.052
		c-1.521,0-2.771-1.388-2.787-3.09c-0.008-0.931,0.354-1.843,0.967-2.441C127.378,151.903,128.019,151.651,128.724,151.674
		L128.724,151.674z"/>
	<path d="M142.479,154.879c0.028-1.147-0.399-2.246-1.207-3.09c-0.819-0.854-1.961-1.356-3.137-1.379h-0.002
		c-1.177-0.015-2.336,0.457-3.181,1.293c-0.837,0.825-1.297,1.918-1.297,3.071c0,2.388,1.948,4.353,4.345,4.382
		C140.426,159.199,142.437,157.281,142.479,154.879L142.479,154.879L142.479,154.879z M138.099,151.674
		c1.573,0.063,2.819,1.504,2.776,3.211c-0.042,1.712-1.278,3.052-2.812,3.052c-1.522,0-2.771-1.388-2.787-3.09
		c-0.008-0.931,0.354-1.843,0.966-2.441C136.753,151.903,137.396,151.651,138.099,151.674L138.099,151.674z"/>
	<path d="M147.251,159.213c0.895-0.039,1.52-0.25,2.178-0.717c0,0.196,0,0.573,0,0.573h2.129l-0.262-0.403l-0.136-0.289
		c-0.097-0.67-0.113-1.069-0.113-1.772V145.94l-0.196,0.018l-1.847,0.17l0.354,0.527c0,0.004,0.07,0.312,0.07,0.312
		s-0.012,3.511-0.014,4.14c-0.723-0.566-1.428-0.806-2.352-0.769c-2.424,0.093-3.836,1.685-3.869,4.365
		c-0.019,1.364,0.484,2.68,1.345,3.512C145.265,158.916,146.2,159.26,147.251,159.213L147.251,159.213L147.251,159.213z
		 M148.858,152.213c0.41,0.396,0.627,0.935,0.627,1.563v1.929c0,0.711-0.221,1.295-0.642,1.688c-0.405,0.385-0.97,0.564-1.634,0.527
		c-0.652-0.031-1.23-0.322-1.674-0.84c-0.506-0.59-0.789-1.414-0.789-2.26c0-0.133,0.008-0.266,0.021-0.398
		c0.112-1.004,0.582-2.699,2.453-2.793C147.856,151.604,148.438,151.812,148.858,152.213L148.858,152.213z"/>
	<path d="M26.467,164.476h-0.164h-9.606l-0.387,1.875l0.36-0.226c0.205-0.129,0.347-0.209,0.597-0.262
		c0.007-0.003,0.405-0.054,0.405-0.054s2.676,0,3,0c0,0.353,0,10.34,0,10.34l0.004,0.203l-0.029,0.457
		c-0.001,0.002-0.144,0.363-0.144,0.363l-0.099,0.25l0.264,0.008h2.236l-0.177-0.348l-0.125-0.32l-0.056-0.533
		c0,0,0.001-10.127,0.001-10.477c0.317,0,2.557,0,2.557,0l0.696,0.107c0.002,0,0.828,0.305,0.828,0.305l-0.015-0.285L26.467,164.476
		L26.467,164.476z"/>
	<path d="M34.994,176.738c-0.002-0.013-0.028-0.396-0.028-0.396l0.001-0.123v-3.896c0-1.521-0.338-3.548-3.262-3.58
		c-1.031-0.015-1.802,0.291-2.458,0.928c0-0.744,0-5.313,0-5.313l-0.199,0.018l-1.854,0.176l0.366,0.443
		c0.074,0.141,0.072,0.254,0.068,0.424l-0.002,0.125v10.451l0.003,0.182l-0.039,0.469c-0.051,0.193-0.111,0.312-0.24,0.48
		l-0.225,0.293h2.487l-0.127-0.336l-0.143-0.477c-0.003-0.017-0.083-0.568-0.083-0.568v-3.84c0-1.248,0.871-2.137,2.119-2.16
		c0.602-0.014,1.138,0.18,1.508,0.541c0.334,0.328,0.518,0.779,0.518,1.273v4.385v0.113l-0.038,0.424
		c-0.001,0-0.164,0.354-0.164,0.354l-0.119,0.258l0.259,0.047h1.898l-0.095-0.264L34.994,176.738L34.994,176.738z"/>
	<path d="M42.789,176.606l-0.066-0.569v-4.397c0-1.921-1.036-2.81-3.357-2.88c-0.764-0.014-1.651,0.019-2.539,0.554l-0.087,0.053
		v1.471l0.3-0.258c0.488-0.422,1.237-0.627,2.292-0.627c1.051,0,1.844,0.547,1.844,1.273c0,0.659-0.356,0.838-1.059,0.948
		c-0.002,0-1.7,0.287-1.7,0.287c-1.609,0.26-2.321,0.979-2.376,2.412c-0.032,0.715,0.199,1.346,0.665,1.821
		c0.545,0.56,1.373,0.869,2.273,0.853c0.863-0.014,1.557-0.155,2.226-0.668c0,0.193,0,0.572,0,0.572l1.9-0.039l-0.104-0.263
		L42.789,176.606L42.789,176.606L42.789,176.606z M41.232,173.101c0,0.362,0,1.709,0,1.709c0,0.996-1.047,1.604-2.061,1.616
		c-0.499,0.009-0.984-0.188-1.299-0.521c-0.237-0.252-0.361-0.557-0.361-0.885c0-0.031,0.001-0.064,0.003-0.099
		c0.049-0.69,0.531-1.172,1.322-1.319l1.54-0.283C40.386,173.315,40.919,173.181,41.232,173.101L41.232,173.101z"/>
	<path d="M46.246,175.951C46,175.705,46,175.069,46,174.651c0,0,0-4.25,0-4.588c0.296,0,1.882,0,1.882,0v-1.205c0,0-1.572,0-1.869,0
		c0-0.311,0-2.545,0-2.545l-0.265,0.138l-1.799,0.926l0.202,0.205l0.194,0.205c0,0.019,0.049,0.34,0.049,0.34s0,0.522,0,0.76
		c-0.253,0-1.099,0-1.099,0v1.179c0,0,0.846,0,1.099,0c0,0.336,0,4.545,0,4.545c0,0.692,0,1.291,0.325,1.848
		c0.381,0.654,0.916,0.961,1.683,0.961h1.508v-1.164h-0.923C46.673,176.254,46.465,176.168,46.246,175.951L46.246,175.951z"/>
	<path d="M48.61,165.771v2.022l0.223-0.051c0.149-0.035,0.252-0.021,0.36,0.047c0.002,0.002,0.002,0.002,0.003,0.002
		c0.021,0.024,0.033,0.096,0.033,0.194c0,0.201-0.05,0.527-0.179,0.854c-0.001,0.002-0.208,0.55-0.208,0.55h0.623l0.048-0.035
		c0.297-0.222,0.454-0.396,0.622-0.701c0.238-0.414,0.323-0.719,0.323-1.16v-1.723h-0.182H48.61L48.61,165.771z"/>
	<path d="M53.981,172.455l-1.029-0.412c-0.576-0.248-0.87-0.612-0.87-1.09c0-0.705,0.691-1.072,1.373-1.072
		c0.457,0,1.292,0.068,1.754,0.529l0.31,0.312v-1.576l-0.095-0.051c-0.721-0.395-1.254-0.424-1.984-0.424
		c-1.447,0.016-3.017,0.742-3.049,2.307c-0.014,1.074,0.642,1.908,1.897,2.414l1.041,0.428c0.434,0.175,0.956,0.535,0.986,1.269
		c0.009,0.373-0.1,0.685-0.323,0.91c-0.295,0.305-0.79,0.471-1.394,0.471c-0.896-0.014-1.779-0.315-2.145-0.735l-0.423-0.486
		l0.336,2l0.088,0.041c0.58,0.266,1.406,0.316,2.212,0.332c0.807,0.018,1.921-0.219,2.625-0.93c0.456-0.461,0.676-1.047,0.655-1.744
		C55.916,173.678,55.419,173.047,53.981,172.455L53.981,172.455z"/>
	<path d="M70.771,164.461h-0.228l0.165,0.722c0.085,0.396,0.099,0.692,0.099,1.043c0,0.073-0.003,0.516-0.003,0.516s0,6.66,0,7.514
		c-0.592-0.676-8.565-9.779-8.565-9.779H59.7l0.5,0.334c0.156,0.104,0.227,0.185,0.292,0.324c0.086,0.162,0.112,0.273,0.112,0.469
		v10.629l-0.051,0.513c-0.003,0.01-0.19,0.407-0.19,0.407l-0.123,0.261l0.274,0.021h1.85l-0.11-0.328l-0.121-0.432l-0.111-0.893
		c0,0,0-8.043,0-8.896c0.595,0.658,10.186,11.267,10.186,11.267l-0.015-12.265l0.04-0.657c0-0.006,0.164-0.718,0.164-0.718
		l-0.214-0.051H70.771L70.771,164.461z"/>
	<path d="M77.773,168.787L77.773,168.787c-1.177-0.015-2.336,0.457-3.181,1.291c-0.837,0.828-1.297,1.92-1.297,3.073
		c0,2.388,1.949,4.351,4.345,4.38c2.424,0.045,4.433-1.873,4.478-4.275c0.028-1.147-0.401-2.246-1.208-3.09
		C80.09,169.312,78.947,168.81,77.773,168.787L77.773,168.787L77.773,168.787z M77.735,170.051c1.572,0.064,2.819,1.507,2.777,3.211
		c-0.043,1.712-1.279,3.05-2.814,3.05c-1.521,0-2.771-1.386-2.786-3.088c-0.007-0.933,0.354-1.845,0.966-2.441
		C76.39,170.281,77.032,170.028,77.735,170.051L77.735,170.051z"/>
	<path d="M85.154,175.951c-0.247-0.246-0.247-0.882-0.247-1.3c0,0,0-4.25,0-4.588c0.297,0,1.883,0,1.883,0v-1.205
		c0,0-1.572,0-1.868,0c0-0.311,0-2.545,0-2.545l-0.265,0.138l-1.799,0.926l0.203,0.205l0.193,0.205c0,0.019,0.049,0.34,0.049,0.34
		s0,0.522,0,0.76c-0.253,0-1.098,0-1.098,0v1.179c0,0,0.844,0,1.098,0c0,0.336,0,4.545,0,4.545c0,0.692,0,1.291,0.325,1.848
		c0.381,0.654,0.916,0.961,1.683,0.961h1.508v-1.164h-0.923C85.583,176.254,85.374,176.168,85.154,175.951L85.154,175.951z"/>
	<path d="M103.638,176.526c-0.361-0.569-0.527-0.942-0.814-1.604l-4.586-10.475h-0.118h-1.723l0.02,0.221l0.04,0.476
		c0,0.014-0.055,0.409-0.055,0.409c-0.001,0.005-4.382,10.229-4.382,10.229c-0.158,0.369-0.276,0.572-0.549,0.949
		c0-0.002-0.35,0.365-0.35,0.365l-0.295,0.307l0.377,0.045h1.994l-0.021-0.229l-0.024-0.336c0.001-0.01,0.056-0.184,0.056-0.184
		l0.053-0.136c-0.004,0.013,1.403-3.403,1.632-3.959c0.226,0,4.789,0,5.009,0c0.09,0.205,1.578,3.576,1.578,3.576l0.061,0.146
		l0.098,0.307c0.008,0.062,0.012,0.119,0.012,0.173c0,0.135-0.025,0.245-0.086,0.391l-0.104,0.252h2.867l-0.364-0.471
		L103.638,176.526L103.638,176.526L103.638,176.526z M99.367,171.371c-0.458,0-3.521,0-3.971,0c0.176-0.422,1.675-4.013,1.943-4.649
		C97.615,167.354,99.183,170.944,99.367,171.371L99.367,171.371z"/>
	<path d="M108.265,164.49h-0.236l0.217,0.784l0.04,0.597v10.422l0.004,0.64c0.009,0.799,0.017,1.377-0.131,2.274
		c-0.048,0.312-0.519,0.826-1.073,1.174c-0.001,0.002-0.518,0.332-0.518,0.332l0.449,0.638l0.402-0.246
		c1.164-0.689,1.782-1.351,2.281-2.437c0.219-0.485,0.316-1.526,0.316-3.373V166l0.053-0.817c0.002,0,0.185-0.431,0.185-0.431
		l0.108-0.252l-0.271-0.01H108.265L108.265,164.49z"/>
	<path d="M118.899,176.867c-0.09-0.199-0.088-0.367-0.088-0.621l0.002-7.468l-0.203,0.023l-1.827,0.219l0.147,0.258l0.164,0.291
		c-0.002,0.003,0.084,0.441,0.084,0.441v4.467c0,1.076-0.916,1.92-2.087,1.92c-0.585,0.009-1.053-0.155-1.394-0.491
		c-0.428-0.421-0.664-1.132-0.664-1.996v-5.086l-2.037,0.194l0.238,0.287l0.162,0.197c0.076,0.201,0.09,0.346,0.09,0.58v4.525
		c0,2.047,1.672,2.867,3.238,2.951c1.006,0.053,1.806-0.252,2.496-0.908c0,0.293,0,0.779,0,0.779h2.115l-0.275-0.349
		L118.899,176.867L118.899,176.867z"/>
	<path d="M127.746,176.776c0-0.002-0.08-0.711-0.08-0.711v-4.198c0-0.832-0.34-1.615-0.956-2.203
		c-0.669-0.64-1.604-0.979-2.559-0.935c-0.977,0.041-1.664,0.306-2.286,0.853c0.004-0.238,0.011-0.676,0.011-0.676L119.998,169
		l0.096,0.262l0.14,0.396c0.002,0.008,0.021,0.068,0.021,0.068l0.073,0.387v6.453l-0.049,0.301l-0.148,0.285l-0.141,0.266
		l0.291,0.016h2.021l-0.167-0.332l-0.125-0.287c-0.104-0.287-0.119-0.473-0.119-0.805v-4.068c0-1.149,0.807-1.979,1.963-2.018
		c0.666-0.018,1.346,0.232,1.771,0.648c0.307,0.299,0.466,0.668,0.466,1.068v4.397l0.011,0.26l-0.009,0.443
		c-0.011,0.137-0.062,0.209-0.178,0.358l-0.222,0.293l0.336,0.039h2.076l-0.16-0.289L127.746,176.776L127.746,176.776z"/>
	<path d="M135.905,176.688c-0.02-0.015-0.951-0.851-0.951-0.851s-2.876-2.918-3.102-3.146c0.211-0.23,2.278-2.484,2.278-2.484
		c0-0.002,1.226-1.32,1.226-1.32h-2.549l-0.011,0.353c-0.003,0.168-0.006,0.312-0.063,0.399c-0.418,0.629-1.066,1.406-1.877,2.244
		c0,0-0.051,0.053-0.114,0.117c0-0.783,0-7.619,0-7.619l-0.203,0.025l-1.815,0.219l0.201,0.299l0.092,0.141
		c0.18,0.443,0.176,0.754,0.168,1.181l-0.004,0.299v9.438l0.002,0.133l-0.041,0.527c0,0.006-0.188,0.532-0.188,0.532l-0.086,0.242
		l0.25,0.017h2.092l-0.367-0.605c-0.061-0.133-0.074-0.244-0.074-0.365c0-0.061,0.004-0.123,0.006-0.191l0.012-0.262
		c0,0,0-1.682,0-2.309c0.527,0.541,3.664,3.748,3.664,3.748h2.375l-0.506-0.408L135.905,176.688L135.905,176.688z"/>
	<path d="M141.519,169.545c0-0.317,0-3.461,0-3.776c0.326,0,3.377-0.002,3.377-0.002l0.631,0.053c0,0.004,0.369,0.236,0.369,0.236
		l0.274,0.172l0.041-0.295l0.019-1.441h-0.186h-6.674l0.336,0.59c0.005,0.014,0.093,0.477,0.093,0.477v10.566l0.007,0.219
		l-0.018,0.406c-0.002-0.002-0.182,0.432-0.182,0.432l-0.104,0.252l0.265,0.017h2.111l-0.165-0.4l-0.053-0.168
		c-0.001-0.006-0.101-1.612-0.101-1.612s0-4.095,0-4.431c0.326,0,3.199,0,3.199,0l0.26-0.004l0.444,0.004
		c0.011,0,0.455,0.07,0.455,0.07l0.322,0.082l-0.001-1.443C146.24,169.545,141.854,169.545,141.519,169.545L141.519,169.545z"/>
	<path d="M151.051,168.787L151.051,168.787c-1.179-0.015-2.338,0.457-3.183,1.291c-0.838,0.828-1.297,1.92-1.297,3.073
		c0,2.388,1.949,4.351,4.345,4.38c2.424,0.045,4.435-1.873,4.478-4.275c0.028-1.147-0.4-2.246-1.207-3.09
		C153.367,169.312,152.226,168.81,151.051,168.787L151.051,168.787L151.051,168.787z M151.013,170.051
		c1.572,0.064,2.818,1.507,2.775,3.211c-0.041,1.712-1.275,3.05-2.812,3.05c-1.521,0-2.771-1.386-2.785-3.088
		c-0.006-0.933,0.354-1.845,0.967-2.441C149.667,170.281,150.31,170.028,151.013,170.051L151.013,170.051z"/>
	<path d="M160.425,168.787L160.425,168.787c-1.179-0.015-2.337,0.457-3.182,1.291c-0.836,0.828-1.297,1.92-1.297,3.073
		c0,2.388,1.947,4.351,4.344,4.38c2.424,0.045,4.434-1.873,4.479-4.275c0.028-1.147-0.4-2.246-1.209-3.09
		C162.742,169.312,161.601,168.81,160.425,168.787L160.425,168.787L160.425,168.787z M160.388,170.051
		c1.571,0.064,2.817,1.507,2.775,3.211c-0.042,1.712-1.277,3.05-2.812,3.05c-1.521,0-2.771-1.386-2.785-3.088
		c-0.008-0.933,0.354-1.845,0.967-2.441C159.041,170.281,159.685,170.028,160.388,170.051L160.388,170.051z"/>
	<path d="M173.448,176.752c-0.098-0.662-0.111-1.063-0.111-1.771v-10.664l-0.199,0.018l-1.845,0.17l0.354,0.527
		c0,0.004,0.07,0.311,0.07,0.311s-0.011,3.514-0.013,4.141c-0.724-0.565-1.431-0.805-2.353-0.766
		c-2.422,0.09-3.834,1.682-3.869,4.363c-0.019,1.365,0.485,2.68,1.347,3.512c0.724,0.701,1.66,1.045,2.709,0.996
		c0.896-0.037,1.521-0.25,2.179-0.713c0,0.195,0,0.572,0,0.572h2.127l-0.261-0.406L173.448,176.752L173.448,176.752L173.448,176.752
		z M171.147,170.59c0.41,0.396,0.627,0.935,0.627,1.563v1.927c0,0.711-0.223,1.297-0.643,1.692c-0.404,0.381-0.97,0.562-1.633,0.525
		c-0.652-0.033-1.23-0.322-1.675-0.842c-0.584-0.684-0.87-1.676-0.767-2.656c0.113-1.002,0.582-2.699,2.452-2.793
		C170.146,169.979,170.728,170.188,171.147,170.59L171.147,170.59z"/>
	<path d="M176.481,176.287c0,0.625-0.506,1.131-1.131,1.131s-1.129-0.506-1.129-1.131s0.504-1.134,1.129-1.134
		S176.481,175.662,176.481,176.287L176.481,176.287z"/>
</g>
</svg>
