<?xml version="1.0" encoding="utf-8"?>
<!-- Generator: Adobe Illustrator 16.0.0, SVG Export Plug-In . SVG Version: 6.00 Build 0)  -->
<!DOCTYPE svg PUBLIC "-//W3C//DTD SVG 1.1//EN" "http://www.w3.org/Graphics/SVG/1.1/DTD/svg11.dtd">
<svg version="1.1" id="Layer_1" xmlns="http://www.w3.org/2000/svg" xmlns:xlink="http://www.w3.org/1999/xlink" x="0px" y="0px"
	 width="175.748px" height="105.769px" viewBox="8.504 43.32 175.748 105.769" enable-background="new 8.504 43.32 175.748 105.769"
	 xml:space="preserve">
<g>
	<path d="M49.271,88.145c-20.976,5.597-38.785,13.713-38.963,13.793l-0.377,0.174c0,0,1.463,5.902,1.667,6.727
		c-0.666,0.184-2.774,0.766-2.774,0.766l-0.32,1.385l1.747,8.348l0.141,0.112c0.172,0.138,17.379,13.991,30.794,29.245l0.119,0.136
		l1.576,0.259l55.21-18.311c0,0-7.814-4.752-8.387-5.101c0.146-0.629,1.424-6.167,1.424-6.167s-5.957-3.021-7.411-3.76
		c4.523-2.061,5.415-2.348,5.451-2.357l0.297-0.088l0.057-0.31l1.668-9.728c0,0-1.738-0.862-2.128-1.057
		c-0.037-0.447-0.209-2.566-0.209-2.566L88.56,99.53c-18.256-7.071-38.853-11.35-39.059-11.392l-0.115-0.023L49.271,88.145
		L49.271,88.145z"/>
	<path d="M10.705,119.056c0,0,17.255,13.84,30.857,29.305l1.279,0.211l54.062-17.93l-8.554-5.201l-77.561-6.666L10.705,119.056
		L10.705,119.056z"/>
	<path d="M9.244,110.008l40.213-11.084l41.095,20.857l-2.198,9.52c-24.039,8.921-45.451,19.021-45.451,19.021l-1.31-0.386
		c0,0-14.533-15.93-30.888-28.883l-1.688-8.062L9.244,110.008L9.244,110.008z"/>
	<path fill="#FFFFFF" d="M84.562,117.476l4.633,2.537l-45.567,17.203l-0.638-0.047c0,0-15.897-14.088-33.1-26.639l2.597-0.688
		l0.215,0.694l37.405,21.728L84.562,117.476L84.562,117.476z"/>
	<path d="M10.517,102.396c0,0,17.705-8.115,38.884-13.766c0,0,20.551,4.231,38.978,11.369l0.207,2.538l2.047,1.015l-1.604,9.358
		c0,0-1.76,0.491-16.764,7.653s-21.743,11.287-21.743,11.287l-0.59-0.055l-37.372-21.16L10.517,102.396L10.517,102.396z"/>
	<path fill="#FFFFFF" d="M49.383,89.198c0,0,17.033,3.33,37.05,10.754c0,0-5.892,2.779-16.907,8.068
		c-11.015,5.289-20.135,10.422-20.135,10.422l-37.273-15.959C12.118,102.483,29.034,94.801,49.383,89.198L49.383,89.198z"/>
	<polygon fill="#FFFFFF" points="49.114,119.322 49.47,122.881 14.241,104.058 	"/>
	<path fill="#FFFFFF" d="M50.589,124.183l18.439-9.687c0,0-0.332,2.204,1.101,2.022c1.185-0.147,2.366-1.596,3.036-4.131
		l16.843-8.146l-1.188,8.338c0,0-15.322,5.648-38.141,18.436L50.589,124.183L50.589,124.183z"/>
	<polygon fill="#FFFFFF" points="49.215,123.743 11.396,103.37 13.161,110.222 49.651,130.772 	"/>
	<path fill="#FFFFFF" d="M69.297,128.285c0,0.577-0.091,1.213-0.301,1.864c-0.631,1.949-2.015,3.252-3.091,2.906
		c-0.871-0.279-1.369-1.334-1.155-2.846c-14.163,5.459-21.278,8.312-21.278,8.312l-0.248,8.436
		c14.099-6.911,44.714-18.223,44.714-18.223l1.757-7.867C81.832,123.737,75.114,126.067,69.297,128.285L69.297,128.285z"/>
	<path fill="#FFFFFF" d="M9.782,111.284c0,0,18.348,13.545,32.629,26.943l-0.392,8.83c0,0-14.033-14.715-30.72-28.356L9.782,111.284
		L9.782,111.284z"/>
	<path fill="#EF3E33" d="M52.798,115.226c-1.192-0.568-2.07-1.19-2.724-1.847c-0.644-0.647-1.068-1.328-1.363-2.021
		c-0.291-0.682-0.455-1.377-0.581-2.065c-0.124-0.683-0.209-1.356-0.342-2.015c-0.74-0.016-1.636,0.062-2.595,0.199
		c-0.964,0.141-1.994,0.342-2.997,0.58c-1.009,0.237-1.992,0.51-2.848,0.786c-0.863,0.279-1.595,0.562-2.094,0.814
		c0.858-0.991,0.86-1.741,0.328-2.36c-0.523-0.609-1.572-1.098-2.844-1.556c-1.26-0.455-2.742-0.884-4.145-1.369
		c-1.389-0.483-2.696-1.026-3.618-1.709c2.05,0.103,3.256,0.009,3.913-0.224c0.654-0.226,0.763-0.584,0.628-1.01
		c-0.133-0.42-0.504-0.904-0.821-1.396c-0.312-0.484-0.572-0.974-0.497-1.407c1.056,0.366,2.07,0.596,2.981,0.688
		c0.911,0.094,1.711,0.054,2.335-0.112c0.623-0.163,1.069-0.449,1.282-0.849c0.212-0.394,0.193-0.896-0.106-1.487
		c0.5,0.134,1.005,0.303,1.496,0.487c0.492,0.185,0.97,0.386,1.417,0.582c0.447,0.201,0.86,0.396,1.22,0.569
		c0.362,0.177,0.669,0.326,0.9,0.437c0.279,0.132,0.555,0.246,0.82,0.34s0.52,0.166,0.756,0.215c0.237,0.05,0.457,0.075,0.649,0.072
		c0.194-0.002,0.362-0.028,0.5-0.088c0.323-0.135,0.461-0.508,0.453-1.022c-0.008-0.505-0.158-1.142-0.411-1.815
		c-0.248-0.662-0.593-1.357-0.997-2c-0.399-0.631-0.854-1.216-1.337-1.67c0.399,0.041,0.773,0.139,1.127,0.262
		c0.355,0.123,0.691,0.269,1.01,0.403c0.321,0.134,0.625,0.256,0.917,0.326c0.292,0.072,0.57,0.089,0.834,0.023
		c0.513-0.132,0.817-0.417,0.984-0.767c0.166-0.348,0.196-0.76,0.165-1.15c-0.031-0.386-0.124-0.751-0.208-1.02
		c-0.082-0.268-0.157-0.441-0.157-0.441c0.559,0.19,1.066,0.425,1.528,0.681c0.464,0.258,0.883,0.54,1.26,0.821
		c0.381,0.283,0.721,0.567,1.022,0.828c0.305,0.262,0.571,0.5,0.803,0.69c0.142,0.113,0.379,0.134,0.659,0.093
		c0.28-0.044,0.602-0.148,0.918-0.288c0.312-0.136,0.618-0.306,0.866-0.477c0.248-0.169,0.437-0.339,0.523-0.481
		c0.333,0.606,0.57,1.21,0.73,1.813c0.163,0.614,0.246,1.224,0.268,1.831c0.021,0.614-0.022,1.228-0.11,1.826
		c-0.09,0.608-0.228,1.209-0.392,1.794c0.585-0.121,1.177-0.286,1.749-0.504c0.567-0.215,1.112-0.479,1.61-0.801
		c0.494-0.315,0.94-0.686,1.313-1.112c0.369-0.425,0.667-0.901,0.868-1.436c0.204,0.174,0.4,0.344,0.585,0.514
		c0.185,0.17,0.358,0.341,0.513,0.513c0.154,0.175,0.292,0.354,0.402,0.539c0.112,0.188,0.198,0.381,0.25,0.59
		c0.465-0.082,0.85-0.175,1.175-0.281c0.326-0.107,0.593-0.229,0.828-0.365c0.232-0.137,0.433-0.289,0.622-0.457
		c0.188-0.168,0.367-0.354,0.56-0.557c0.429,0.354,0.758,0.701,0.997,1.044c0.241,0.347,0.388,0.683,0.449,1.009
		c0.062,0.326,0.037,0.643-0.068,0.938c-0.105,0.296-0.292,0.576-0.552,0.829c0.16-0.026,0.36-0.058,0.58-0.095
		c0.22-0.036,0.458-0.075,0.697-0.114c0.238-0.04,0.477-0.08,0.693-0.115c0.217-0.036,0.415-0.067,0.573-0.096
		c0.436,1.28,0.176,2.268-0.48,3.032c-0.669,0.781-1.744,1.318-2.898,1.703c-1.167,0.392-2.404,0.619-3.376,0.78
		c-0.976,0.161-1.68,0.259-1.775,0.388c-0.098,0.133-0.106,0.289-0.037,0.465c0.071,0.177,0.219,0.371,0.431,0.572
		c0.214,0.204,0.493,0.416,0.824,0.629s0.713,0.424,1.134,0.623c-1.772,0.088-3.167,0.08-4.347,0.019
		c-1.182-0.062-2.145-0.175-3.059-0.3c-0.915-0.12-1.78-0.254-2.771-0.354c-0.992-0.103-2.11-0.169-3.535-0.164
		c0.031,0.395,0.066,0.915,0.167,1.504c0.102,0.598,0.268,1.264,0.56,1.932c0.297,0.678,0.723,1.354,1.341,1.96
		c0.625,0.61,1.444,1.146,2.514,1.52c0.282,0.101,0.403,0.222,0.43,0.351c0.026,0.131-0.044,0.268-0.15,0.392
		c-0.107,0.124-0.25,0.237-0.367,0.315c-0.116,0.084-0.207,0.133-0.207,0.133L52.798,115.226L52.798,115.226z"/>
	<path d="M95.255,81.236c0,0-4.818,3.433-5.607,7.31s7.522,4.505,7.221,6.828c-0.302,2.323-7.26,5.708-7.26,5.708
		s1.516-2.812-0.975-4.062c-2.768-1.389-4.832-3.438-3.134-6.793c2.174-4.301,2.744-7.306-0.672-8.208
		c-1.806-0.477-1.825-1.38-1.825-1.38s0.226,0.816,2.328,1.103c3.221,0.438,3.084,3.19,2.062,5.549
		c-1.023,2.359-4.281,5.809,0.182,8.237c4.462,2.427,3.835,3.304,2.585,4.979c0,0,6.235-3.188,5.802-5.235
		c-0.491-2.332-7.419-2.95-7.033-6.735C89.289,84.996,95.255,81.236,95.255,81.236L95.255,81.236z"/>
	<path d="M88.084,89.354c0,0-0.833,3.008,3.017,3.849c4.222,0.921,3.983,1.94,2.805,3.678c-1.178,1.738-2.327,2.315-2.327,2.315
		s3.977-3.702,1.226-4.707C90.618,93.69,87.314,92.808,88.084,89.354L88.084,89.354z"/>
	<polygon points="11.3,102.959 14.122,110.515 13.056,103.836 	"/>
	<polygon points="12.65,103.679 15.402,111.229 14.362,104.539 	"/>
	<polygon points="14,104.397 16.683,111.944 15.667,105.24 	"/>
	<polygon points="15.351,105.118 17.962,112.661 16.973,105.944 	"/>
	<polygon points="16.701,105.838 19.242,113.377 18.277,106.646 	"/>
	<polygon points="18.051,106.558 20.523,114.095 19.583,107.349 	"/>
	<polygon points="19.402,107.278 21.803,114.81 20.888,108.05 	"/>
	<polygon points="20.752,107.998 23.084,115.524 22.193,108.751 	"/>
	<polygon points="22.102,108.718 24.363,116.242 23.498,109.454 	"/>
	<polygon points="23.452,109.438 25.644,116.957 24.803,110.156 	"/>
	<polygon points="24.802,110.157 26.924,117.674 26.109,110.858 	"/>
	<polygon points="26.153,110.876 28.205,118.39 27.414,111.562 	"/>
	<polygon points="27.502,111.597 29.484,119.106 28.719,112.263 	"/>
	<polygon points="28.853,112.315 30.765,119.822 30.024,112.965 	"/>
	<polygon points="30.203,113.036 32.045,120.538 31.33,113.667 	"/>
	<polygon points="31.553,113.756 33.325,121.255 32.634,114.369 	"/>
	<polygon points="32.902,114.476 34.605,121.97 33.94,115.071 	"/>
	<polygon points="34.253,115.194 35.885,122.687 35.245,115.772 	"/>
	<polygon points="35.604,115.915 37.166,123.401 36.55,116.478 	"/>
	<polygon points="36.954,116.635 38.446,124.118 37.855,117.177 	"/>
	<polygon points="38.304,117.354 39.727,124.834 39.161,117.88 	"/>
	<polygon points="39.653,118.075 41.007,125.551 40.466,118.583 	"/>
	<polygon points="41.004,118.795 42.287,126.267 41.771,119.284 	"/>
	<polygon points="42.354,119.515 43.566,126.981 43.077,119.985 	"/>
	<polygon points="43.704,120.233 44.847,127.698 44.381,120.688 	"/>
	<polygon points="45.055,120.954 46.127,128.414 45.688,121.392 	"/>
	<polygon points="46.405,121.673 47.407,129.129 46.992,122.093 	"/>
	<polygon points="47.755,122.394 48.687,129.847 48.297,122.795 	"/>
	<polygon points="9.886,110.69 12.112,119.192 11.29,111.791 	"/>
	<polygon points="11.051,111.64 13.194,120.171 12.423,112.718 	"/>
	<polygon points="12.216,112.589 14.277,121.149 13.555,113.646 	"/>
	<polygon points="13.381,113.536 15.359,122.127 14.688,114.572 	"/>
	<polygon points="14.545,114.483 16.441,123.104 15.819,115.499 	"/>
	<polygon points="15.709,115.433 17.524,124.083 16.952,116.426 	"/>
	<polygon points="16.875,116.381 18.605,125.06 18.084,117.353 	"/>
	<polygon points="18.039,117.328 19.688,126.039 19.216,118.28 	"/>
	<polygon points="19.203,118.276 20.771,127.017 20.348,119.208 	"/>
	<polygon points="20.368,119.226 21.852,127.993 21.48,120.134 	"/>
	<polygon points="21.532,120.173 22.934,128.972 22.612,121.062 	"/>
	<polygon points="22.698,121.121 24.016,129.949 23.745,121.99 	"/>
	<polygon points="23.862,122.067 25.099,130.927 24.877,122.916 	"/>
	<polygon points="25.026,123.017 26.181,131.905 26.008,123.843 	"/>
	<polygon points="26.181,123.966 27.254,132.882 27.131,124.771 	"/>
	<polygon points="27.321,124.913 28.311,133.86 28.238,125.698 	"/>
	<polygon points="28.46,125.862 29.368,134.839 29.345,126.625 	"/>
	<polygon points="29.6,126.812 30.425,135.815 30.452,127.553 	"/>
	<polygon points="30.738,127.76 31.481,136.795 31.558,128.479 	"/>
	<polygon points="31.877,128.708 32.538,137.772 32.665,129.408 	"/>
	<polygon points="33.018,129.656 33.595,138.751 33.772,130.335 	"/>
	<polygon points="34.156,130.604 34.651,139.729 34.878,131.262 	"/>
	<polygon points="35.296,131.554 35.709,140.707 35.986,132.19 	"/>
	<polygon points="36.435,132.502 36.765,141.685 37.092,133.118 	"/>
	<polygon points="37.574,133.45 37.821,142.663 38.199,134.046 	"/>
	<polygon points="38.713,134.397 38.879,143.642 39.306,134.974 	"/>
	<polygon points="39.892,135.349 39.975,144.619 40.452,135.899 	"/>
	<polygon points="41.072,136.295 41.073,145.597 41.599,136.826 	"/>
	<polygon points="51.938,122.767 51.374,130.39 50.544,123.86 	"/>
	<polygon points="52.614,129.774 51.849,123.194 52.364,122.776 53.217,122.108 	"/>
	<polygon points="53.855,129.162 53.155,122.53 53.652,122.108 54.498,121.449 	"/>
	<polygon points="55.098,128.548 54.459,121.865 54.942,121.438 55.777,120.792 	"/>
	<polygon points="56.34,127.935 55.764,121.199 56.232,120.771 57.057,120.132 	"/>
	<polygon points="57.581,127.321 57.071,120.534 57.52,120.103 58.335,119.474 	"/>
	<polygon points="58.821,126.706 58.376,119.868 58.809,119.435 59.615,118.815 	"/>
	<polygon points="60.064,126.093 59.68,119.203 60.099,118.767 60.895,118.157 	"/>
	<polygon points="61.305,125.479 60.986,118.538 61.387,118.097 62.174,117.498 	"/>
	<polygon points="62.546,124.865 62.292,117.871 62.677,117.429 63.455,116.84 	"/>
	<polygon points="63.788,124.251 63.597,117.207 63.967,116.76 64.734,116.181 	"/>
	<polygon points="65.029,123.638 64.902,116.542 65.255,116.092 66.013,115.522 	"/>
	<polygon points="66.302,123.022 66.237,115.877 66.576,115.423 67.324,114.862 	"/>
	<polygon points="67.575,122.409 67.575,115.21 67.896,114.754 68.635,114.204 	"/>
	<polygon points="68.849,121.795 68.913,114.544 69.218,114.085 69.948,113.545 	"/>
	<polygon points="70.123,121.181 70.25,113.878 70.54,113.415 71.26,112.886 	"/>
	<polygon points="71.397,120.565 71.588,113.212 71.861,112.746 72.571,112.228 	"/>
	<polygon points="72.67,119.952 72.926,112.546 73.183,112.077 73.883,111.567 	"/>
	<polygon points="73.945,119.337 74.264,111.88 74.505,111.408 75.195,110.908 	"/>
	<polygon points="75.219,118.724 75.601,111.213 75.827,110.739 76.507,110.249 	"/>
	<polygon points="76.493,118.108 76.938,110.548 77.148,110.069 77.819,109.59 	"/>
	<polygon points="77.767,117.493 78.276,109.882 78.47,109.399 79.131,108.933 	"/>
	<polygon points="79.04,116.88 79.614,109.216 79.791,108.731 80.443,108.271 	"/>
	<polygon points="80.313,116.267 80.952,108.55 81.112,108.063 81.754,107.612 	"/>
	<polygon points="81.587,115.649 82.289,107.884 82.434,107.394 83.067,106.954 	"/>
	<polygon points="82.861,115.036 83.627,107.217 83.755,106.726 84.378,106.294 	"/>
	<polygon points="84.135,114.421 84.964,106.552 85.077,106.056 85.69,105.635 	"/>
	<polygon points="85.409,113.808 86.302,105.886 86.398,105.388 87.003,104.978 	"/>
	<polygon points="86.682,113.192 87.64,105.222 87.721,104.718 88.314,104.315 	"/>
	<polygon points="89.626,103.657 87.957,112.579 89.042,104.049 	"/>
	<polygon points="44.973,137.282 44.247,146.132 43.579,138.378 	"/>
	<polygon points="46.473,136.705 45.702,145.532 45.108,137.774 	"/>
	<polygon points="47.975,136.126 47.157,144.933 46.636,137.17 	"/>
	<polygon points="49.474,135.547 48.612,144.332 48.164,136.567 	"/>
	<polygon points="50.975,134.967 50.068,143.731 49.693,135.964 	"/>
	<polygon points="52.476,134.39 51.524,143.132 51.221,135.362 	"/>
	<polygon points="53.977,133.812 52.979,142.533 52.75,134.759 	"/>
	<polygon points="55.478,133.229 54.436,141.933 54.278,134.153 	"/>
	<polygon points="57.002,132.651 55.916,141.332 55.832,133.553 	"/>
	<polygon points="58.54,132.072 57.408,140.729 57.396,132.947 	"/>
	<polygon points="60.076,131.492 58.899,140.13 58.96,132.344 	"/>
	<polygon points="61.613,130.912 60.392,139.528 60.526,131.74 	"/>
	<polygon points="63.149,130.333 61.884,138.928 62.091,131.136 	"/>
	<polygon points="64.687,129.754 63.375,138.328 63.656,130.532 	"/>
	<polygon points="66.224,129.174 64.868,137.728 65.221,129.929 	"/>
	<polygon points="67.761,128.594 66.359,137.126 66.785,129.325 	"/>
	<polygon points="69.297,128.015 67.851,136.524 68.349,128.722 	"/>
	<polygon points="70.835,127.437 69.344,135.926 69.915,128.117 	"/>
	<polygon points="72.37,126.854 70.835,135.324 71.479,127.515 	"/>
	<polygon points="73.909,126.274 72.327,134.724 73.045,126.909 	"/>
	<polygon points="75.444,125.696 73.818,134.123 74.608,126.306 	"/>
	<polygon points="76.982,125.117 75.311,133.522 76.174,125.702 	"/>
	<polygon points="78.518,124.537 76.802,132.921 77.738,125.099 	"/>
	<polygon points="80.056,123.958 78.294,132.319 79.303,124.494 	"/>
	<polygon points="81.592,123.378 79.787,131.722 80.868,123.892 	"/>
	<polygon points="83.129,122.799 81.278,131.119 82.433,123.287 	"/>
	<polygon points="84.666,122.219 82.77,130.519 83.998,122.685 	"/>
	<polygon points="86.203,121.64 84.262,129.918 85.563,122.079 	"/>
	<polygon points="87.74,121.06 85.754,129.317 87.128,121.476 	"/>
	<polygon points="89.276,120.479 87.245,128.717 88.691,120.872 	"/>
	<path fill="#FFFFFF" d="M87.947,104.017l-0.154-3.836c0,0-19.843,8.984-37.928,18.983l0.417,4.006c0,0,7.598-3.926,18.084-9.263
		l1.237,0.287c0,0-0.408,1.707,0.278,1.736c0.62,0.025,1.938-1.093,2.269-3.947C77.09,109.476,82.493,106.746,87.947,104.017
		L87.947,104.017z"/>
	<path fill="#FFFFFF" d="M65.908,132.521c0.832,0.297,1.899-0.814,2.383-2.481c0.103-0.356,0.165-0.705,0.201-1.043l-3.44,1.332
		C65.003,131.424,65.311,132.31,65.908,132.521L65.908,132.521z"/>
	<path stroke="#000000" stroke-width="0.6978" stroke-miterlimit="2.6131" d="M54.325,81.277c-4.162,0-11.477-1.683-11.477-18.948
		c0-17.265,7.315-18.66,11.477-18.66c1.945,0,3.153,0.337,3.153,0.337v4.472h-1.677l-0.873-3.56
		c-0.134-0.048-0.469-0.048-0.603-0.048c-2.551,0-7.047,3.944-7.047,17.458c0,14.524,4.562,17.602,8.389,17.602
		c0.67,0,1.208-0.049,1.812-0.145v1.203C57.478,80.989,56.27,81.277,54.325,81.277L54.325,81.277z"/>
	<path stroke="#000000" stroke-width="0.6978" stroke-miterlimit="2.6131" d="M68.616,78.056c-0.269,0.625-1.275,1.683-2.349,1.683
		c-2.08,0-3.355-2.405-3.355-6.877c0-5.579,3.289-9.138,5.705-10.148L68.616,78.056L68.616,78.056z M74.187,81.037v-1.203h-1.678
		V61.222c0-3.559-2.215-5.242-6.308-5.242c-2.282,0-3.826,0.337-3.826,0.337v3.126h1.678l0.671-2.164
		c0.537,0,0.201-0.048,1.141-0.048c1.477,0,2.752,1.539,2.752,3.366v0.866c-3.691,1.106-9.798,4.521-9.798,11.398
		c0,5.194,3.624,8.416,7.382,8.416c0.269,0,0.671,0,1.007-0.096l1.745-1.299v1.155H74.187L74.187,81.037z"/>
	<path stroke="#000000" stroke-width="0.6978" stroke-miterlimit="2.6131" d="M87.339,81.037V60.694
		c0-1.731-1.074-3.367-2.751-3.367c-1.678,0-2.751,1.635-2.751,3.367v20.343h-5.569v-1.203h1.677V57.423h-1.677V56.22h5.167v1.154
		l1.812-1.298c0.403-0.048,0.604-0.097,1.342-0.097c4.094,0,6.644,2.164,6.644,6.732v17.122h1.678v1.203L87.339,81.037
		L87.339,81.037z"/>
	<path stroke="#000000" stroke-width="0.6978" stroke-miterlimit="2.6131" d="M105.121,78.056c-0.269,0.625-1.274,1.683-2.349,1.683
		c-2.08,0-3.355-2.405-3.355-6.877c0-5.579,3.288-9.138,5.704-10.148V78.056L105.121,78.056z M110.69,81.037v-1.203h-1.678V61.222
		c0-3.559-2.215-5.242-6.309-5.242c-2.281,0-3.824,0.337-3.824,0.337v3.126h1.678l0.672-2.164c0.535,0,0.201-0.048,1.142-0.048
		c1.476,0,2.75,1.539,2.75,3.366v0.866c-3.69,1.106-9.797,4.521-9.797,11.398c0,5.194,3.624,8.416,7.381,8.416
		c0.271,0,0.672,0,1.008-0.096l1.743-1.299v1.155H110.69L110.69,81.037z"/>
	<path stroke="#000000" stroke-width="0.6978" stroke-miterlimit="2.6131" d="M124.046,77.719c0,1.01-1.477,2.021-2.416,2.021
		c-2.08,0-3.758-2.693-3.758-8.32c0-8.993,3.689-13.274,6.174-14.139V77.719L124.046,77.719z M129.616,81.037v-1.203h-1.678V43.909
		h-5.571v1.202h1.679V55.98c-4.295,1.202-10.268,4.857-10.268,14.236c0,8.031,3.758,11.061,7.918,11.061
		c0.471,0,0.537,0,0.806-0.048l1.88-1.347v1.155H129.616L129.616,81.037z"/>
	<polygon stroke="#000000" stroke-width="0.6978" stroke-miterlimit="2.6131" points="134.245,81.037 134.245,57.423 
		132.567,57.423 132.567,56.221 138.272,56.221 138.272,79.834 139.949,79.834 139.949,81.037 	"/>
	<path stroke="#000000" stroke-width="0.6978" stroke-miterlimit="2.6131" d="M152.767,78.056c-0.268,0.625-1.273,1.683-2.348,1.683
		c-2.081,0-3.355-2.405-3.355-6.877c0-5.579,3.287-9.138,5.703-10.148V78.056L152.767,78.056z M158.337,81.037v-1.203h-1.678V61.222
		c0-3.559-2.215-5.242-6.309-5.242c-2.281,0-3.826,0.337-3.826,0.337v3.126h1.679l0.672-2.164c0.536,0,0.2-0.048,1.14-0.048
		c1.479,0,2.752,1.539,2.752,3.366v0.866c-3.69,1.106-9.797,4.521-9.797,11.398c0,5.194,3.623,8.416,7.381,8.416
		c0.271,0,0.672,0,1.008-0.096l1.744-1.299v1.155H158.337L158.337,81.037z"/>
	<path stroke="#000000" stroke-width="0.6978" stroke-miterlimit="2.6131" d="M171.489,81.037V60.694
		c0-1.731-1.073-3.367-2.752-3.367c-1.678,0-2.75,1.635-2.75,3.367v20.343h-5.57v-1.203h1.678V57.423h-1.678V56.22h5.167v1.154
		l1.812-1.298c0.401-0.048,0.604-0.097,1.342-0.097c4.096,0,6.646,2.164,6.646,6.732v17.122h1.679v1.203L171.489,81.037
		L171.489,81.037z"/>
	<path stroke="#000000" stroke-width="0.6978" stroke-miterlimit="2.6131" d="M111.519,112.899c0,4.748-3.619,6.939-4.574,7.26
		v-13.378C109.332,106.827,111.519,109.063,111.519,112.899L111.519,112.899z M115.681,112.899c0-6.072-6.074-7.26-10.033-7.26
		h-4.301v1.142h1.707v21.276h-1.707v1.142h7.305v-1.142h-1.707v-6.711C109.469,120.979,115.681,118.651,115.681,112.899
		L115.681,112.899z"/>
	<polygon stroke="#000000" stroke-width="0.6978" stroke-miterlimit="2.6131" points="118.877,129.199 118.877,128.058 
		120.584,128.058 120.584,106.781 118.877,106.781 118.877,105.64 126.317,105.64 126.317,106.781 124.61,106.781 124.61,128.058 
		126.317,128.058 126.317,129.199 	"/>
	<polygon stroke="#000000" stroke-width="0.6978" stroke-miterlimit="2.6131" points="130.767,129.199 138.548,106.781 
		133.701,106.781 133.019,108.836 131.312,108.836 131.312,105.64 142.983,105.64 135.203,128.058 140.868,128.058 141.552,126.003 
		143.257,126.003 143.257,129.199 	"/>
	<polygon stroke="#000000" stroke-width="0.6978" stroke-miterlimit="2.6131" points="146.604,129.199 154.384,106.781 
		149.538,106.781 148.854,108.836 147.149,108.836 147.149,105.64 158.821,105.64 151.039,128.058 156.705,128.058 157.388,126.003 
		159.094,126.003 159.094,129.199 	"/>
	<path stroke="#000000" stroke-width="0.6978" stroke-miterlimit="2.6131" d="M172.131,126.368
		c-0.272,0.594-1.297,1.599-2.389,1.599c-2.115,0-3.413-2.282-3.413-6.528c0-5.297,3.344-8.676,5.802-9.635V126.368L172.131,126.368
		z M177.797,129.199v-1.142h-1.707v-17.67c0-3.379-2.252-4.978-6.417-4.978c-2.32,0-3.89,0.319-3.89,0.319v2.969h1.704l0.685-2.055
		c0.546,0,0.204-0.047,1.16-0.047c1.502,0,2.799,1.463,2.799,3.196v0.821c-3.755,1.051-9.965,4.293-9.965,10.82
		c0,4.932,3.685,7.99,7.507,7.99c0.273,0,0.684,0,1.024-0.092l1.774-1.232v1.097h5.325V129.199z"/>
	<path fill="#EF3E33" d="M109.608,95.335c-2.924,1.741-4.385,3.331-4.283,5.071h5.896l0.504-1.261h2.268v2.61h-12.246
		c-0.505-3.54,0.15-5.371,3.628-8.012c2.167-1.71,3.578-2.97,3.578-4.14c0-1.44-1.312-2.071-3.124-2.071
		c-0.504,0-0.656,0.03-1.059,0.09l-0.504,1.261h-2.219v-2.161c0,0,1.764-0.57,4.284-0.57c4.838,0,7.963,1.41,7.963,4.231
		C114.296,91.915,112.733,93.295,109.608,95.335L109.608,95.335z"/>
	<polygon fill="#EF3E33" points="132.031,89.278 131.657,87.054 128.329,87.054 128.329,95.083 132.065,95.083 132.065,95.993 
		128.329,95.993 128.329,100.847 129.278,100.847 129.278,101.757 123.812,101.757 123.812,100.847 124.763,100.847 124.763,95.993 
		123.812,95.993 123.812,95.083 124.763,95.083 124.763,87.054 123.812,87.054 123.812,86.144 133.56,86.144 133.56,89.278 	"/>
	<path fill="#EF3E33" d="M142.327,93.951c0,6.127-0.814,7.058-1.971,7.058c-1.154,0-1.937-0.931-1.937-7.058
		c0-6.128,0.781-7.059,1.937-7.059C141.513,86.892,142.327,87.822,142.327,93.951L142.327,93.951z M146.233,93.951
		c0-6.776-2.988-7.969-5.877-7.969c-2.888,0-5.842,1.193-5.842,7.969c0,6.774,2.954,7.968,5.842,7.968
		C143.245,101.919,146.233,100.726,146.233,93.951L146.233,93.951z"/>
	<path fill="#EF3E33" d="M155.438,90.855c0,2.872-2.039,4.673-2.854,4.915v-8.677C153.978,87.094,155.438,88.125,155.438,90.855
		L155.438,90.855z M159.719,101.757v-0.91h-0.884c-0.066-0.322-0.102-1.313-0.984-2.589c-0.849-1.233-1.97-2.123-2.344-2.406
		c1.528-0.688,3.736-2.184,3.736-4.996c0-3.539-3.77-4.712-7.438-4.712h-3.738v0.91h0.951v13.792h-0.951v0.91h4.52v-4.995
		c0.307,0.182,1.46,1.051,2.173,2.204c0.782,1.215,0.851,2.387,0.851,2.791H159.719L159.719,101.757z"/>
	<polygon fill="#EF3E33" points="169.233,101.757 169.233,100.406 170.493,100.406 170.493,88.974 168.681,88.974 168.681,87.624 
		175.481,86.274 175.481,100.406 176.744,100.406 176.744,101.757 	"/>
	<path fill="#EF3E33" d="M134.271,54.961c-0.254-0.944,0.172-1.416,0.795-2.517c-0.598-0.386-2.111-0.486-2.75-0.329
		c1.646-1.139-0.297-2.492-0.392-4.207c1.642,1.194,1.229-0.728,1.802-1.583c0.523,1.295,1.551,1.334,2.039-0.079
		c0.295,0.55,0.426,1.387,0.498,1.727c0.082,0.409,0.247,0.662,0.448,0.623c0.478-0.098,1.556-2.46,1.771-3.787
		c0.342,0.314,0.213,1.127,0.586,1.119c0.723-0.014,1.593-1.889,1.593-1.889c0.265,0.79-0.005,1.882-0.081,2.439
		c-0.049,0.336,0.92,0.042,1.262-0.237c-0.719,1.572-1.779,2.832-2.796,3.853c0.728,0.086,1.755-0.157,2.86-1.143
		c-0.094,0.473-0.178,0.885-0.465,1.318c0.586,0.097,0.944-0.077,1.494-0.375c-0.189,0.943-0.744,1.609-1.399,1.927
		c0.192,0.04,0.584,0.118,0.778,0.155c-1.666,2.509-3.871,1.227-4.123,1.381c-0.258,0.16-0.334,0.667-0.234,1.18
		c-1.605-0.752-1.441-1.313-2.637-2.003c-0.422,0.635-1.076,1.478-0.752,2.207c0.084,0.192-0.258,0.261-0.258,0.261L134.271,54.961
		L134.271,54.961z"/>
	<polygon points="178.896,108.704 178.433,108.704 178.433,105.606 177.451,105.606 177.451,105.278 179.866,105.278 
		179.866,105.606 178.896,105.606 	"/>
	<path d="M184.252,108.704h-0.444l-0.029-2.747c0-0.146-0.004-0.203-0.01-0.44c-0.072,0.213-0.082,0.246-0.153,0.437l-0.995,2.752
		h-0.367l-1.004-2.806c-0.059-0.155-0.082-0.232-0.131-0.383c0,0.209,0,0.241-0.006,0.411l-0.047,2.776h-0.412l0.072-3.421h0.765
		l0.786,2.259c0.093,0.29,0.106,0.354,0.18,0.648c0.077-0.275,0.092-0.33,0.197-0.648l0.798-2.259h0.763L184.252,108.704
		L184.252,108.704z"/>
</g>
</svg>
