<?xml version="1.0" encoding="utf-8"?>
<!-- Generator: Adobe Illustrator 16.0.0, SVG Export Plug-In . SVG Version: 6.00 Build 0)  -->
<!DOCTYPE svg PUBLIC "-//W3C//DTD SVG 1.1//EN" "http://www.w3.org/Graphics/SVG/1.1/DTD/svg11.dtd">
<svg version="1.1" id="Layer_1" xmlns="http://www.w3.org/2000/svg" xmlns:xlink="http://www.w3.org/1999/xlink" x="0px" y="0px"
	 width="164.41px" height="27.22px" viewBox="318.173 285.77 164.41 27.22" enable-background="new 318.173 285.77 164.41 27.22"
	 xml:space="preserve">
<g>
	<path fill="#004F9E" d="M329.849,289.855c0.875,0,1.388,0.584,1.388,1.387c0,0.729-0.146,1.459-0.146,2.262
		c0,0.584,0.146,1.168,0.146,1.751c0,1.022-0.949,1.533-1.825,1.533c-1.167,0-1.751-0.584-1.678-1.751
		c0-0.657,0.072-0.949-0.365-1.459c-0.511-0.511-1.241-0.657-1.897-0.657c-2.772,0-3.064,2.7-3.064,4.889
		c0,2.261,0.292,4.744,3.138,4.744c0.657,0,1.314-0.073,1.751-0.512c0.511-0.511,0.511-0.947,0.511-1.605
		c0-0.51,0-0.947,0.292-1.386c0.292-0.438,0.804-0.584,1.387-0.584c1.387,0,2.043,1.022,2.043,2.335c0,3.357-3.139,4.89-6.131,4.89
		c-1.97,0-3.939-0.584-5.326-2.115c-1.313-1.387-1.897-3.795-1.897-5.765c0-1.751,0.365-3.94,1.313-5.473
		c1.167-1.678,3.138-2.627,5.181-2.627c1.532,0,2.772,0.511,3.794,1.605C328.39,290.439,328.973,289.855,329.849,289.855
		L329.849,289.855z"/>
	<path fill="#004F9E" d="M337.074,296.642c0,1.021-0.949,1.459-1.897,1.459c-1.021,0-1.97-0.803-1.97-1.897
		c0-2.262,3.065-2.627,4.743-2.627c1.167,0,2.627,0.073,3.576,0.657c1.312,0.73,1.459,2.043,1.459,3.356v4.16
		c0,0.291-0.073,1.021,0.364,1.021c0.146,0,0.365,0,0.512,0c0.729,0,1.095,0.584,1.095,1.239c0,1.24-1.241,1.679-2.262,1.679
		c-1.021,0-2.116-0.363-2.481-1.388c-1.095,0.949-2.408,1.388-3.794,1.388c-1.971,0-3.941-1.094-3.941-3.283
		c0-5.254,6.859-2.555,6.859-5.473c0-0.802-0.803-1.24-1.532-1.24c-0.364,0-0.729,0.073-0.729,0.511v0.438H337.074z
		 M339.335,300.363c-0.657,0.657-3.21,0.366-3.21,1.534c0,0.729,0.657,1.021,1.24,1.021c1.312,0,1.97-0.804,1.97-2.117V300.363
		L339.335,300.363z"/>
	<path fill="#004F9E" d="M347.874,298.028c0-0.292,0.073-1.532-0.365-1.532c-0.219,0-0.438,0.146-0.729,0.146
		c-0.729,0-1.021-0.584-1.021-1.241c0-0.803,0.365-1.532,1.095-1.532c0.657,0.073,1.095,0.219,1.532,0.219
		c0.512,0,0.949-0.146,1.459-0.219c0.657,0,0.73,0.438,0.73,0.949v1.678c0.365-1.824,1.678-2.846,3.576-2.846
		c1.531,0,2.919,1.168,2.919,2.773c0,1.095-0.73,2.189-1.897,2.189c-0.876,0-1.533-0.584-1.533-1.459
		c0-0.292,0.073-0.584,0.22-0.875c-2.481-0.146-2.555,3.211-2.555,4.96c0,0.294-0.072,1.533,0.438,1.533
		c0.219,0,0.438-0.146,0.729-0.146c0.73,0,0.949,0.584,0.949,1.24c0,0.877-0.365,1.532-1.095,1.532
		c-1.167,0-2.043-0.219-2.992-0.219c-0.803,0-1.678,0.219-2.481,0.219c-0.729,0-1.095-0.655-1.095-1.532
		c0-0.656,0.292-1.24,1.021-1.24c0.292,0,0.511,0.146,0.729,0.146c0.438,0,0.365-1.239,0.365-1.533L347.874,298.028L347.874,298.028
		z"/>
	<path fill="#004F9E" d="M359.987,298.028c0-0.292,0.072-1.532-0.365-1.532c-0.292,0-0.511,0.146-0.729,0.146
		c-0.729,0-1.021-0.584-1.021-1.241c0-0.803,0.365-1.532,1.095-1.532c0.657,0.073,1.095,0.219,1.533,0.219
		c0.511,0,0.949-0.146,1.459-0.219c0.657,0,0.657,0.438,0.657,0.949v1.678c0.438-1.824,1.751-2.846,3.647-2.846
		c1.533,0,2.919,1.168,2.919,2.773c0,1.095-0.729,2.189-1.896,2.189c-0.875,0-1.605-0.584-1.605-1.459
		c0-0.292,0.146-0.584,0.292-0.875c-2.48-0.146-2.554,3.211-2.554,4.96c0,0.294-0.073,1.533,0.438,1.533
		c0.219,0,0.438-0.146,0.729-0.146c0.73,0,0.949,0.584,0.949,1.24c0,0.877-0.365,1.532-1.095,1.532
		c-1.167,0-2.043-0.219-2.992-0.219c-0.804,0-1.679,0.219-2.481,0.219c-0.729,0-1.095-0.655-1.095-1.532
		c0-0.656,0.292-1.24,1.021-1.24c0.22,0,0.438,0.146,0.729,0.146c0.438,0,0.365-1.239,0.365-1.533V298.028L359.987,298.028z"/>
	<path fill="#004F9E" d="M374.144,300.217c-0.438,0-1.021-0.146-1.021,0.512c0,1.24,1.021,2.189,2.263,2.189
		c1.897,0,1.751-1.752,3.503-1.752c0.803,0,1.459,0.51,1.459,1.387c0,0.949-0.729,1.75-1.459,2.262
		c-1.095,0.656-2.335,0.875-3.575,0.875c-3.576,0-5.839-2.407-5.839-5.981c0-3.503,2.189-6.13,5.766-6.13
		c1.312,0,2.772,0.292,3.722,1.167c1.094,0.949,1.605,2.481,1.605,3.868c0,1.314-0.146,1.605-1.459,1.605L374.144,300.217
		L374.144,300.217z M376.188,297.809c0.364,0,0.729,0.073,0.729-0.365c0-0.365-0.219-0.729-0.438-0.948
		c-0.365-0.292-0.729-0.438-1.167-0.438c-0.657,0-1.095,0.146-1.532,0.584c-0.22,0.219-0.584,0.583-0.584,0.875
		c0,0.365,0.729,0.292,0.948,0.292H376.188L376.188,297.809z"/>
	<path fill="#004F9E" d="M386.477,301.238c0,0.293-0.072,1.533,0.438,1.533c0.219,0,0.438-0.146,0.729-0.146
		c0.73,0,0.949,0.584,0.949,1.24c0,0.877-0.365,1.533-1.312,1.533c-0.948,0-1.824-0.219-2.7-0.219c-0.875,0-1.678,0.219-2.408,0.219
		c-0.875,0-1.24-0.656-1.24-1.533c0-0.656,0.22-1.24,0.948-1.24c0.292,0,0.511,0.146,0.73,0.146c0.511,0,0.438-1.24,0.438-1.533
		v-4.013c0-0.803,0-0.875-0.729-0.875c-0.875,0-1.387-0.219-1.387-1.167c0-0.948,0.365-1.313,1.24-1.313
		c0.657,0,0.876,0.073,0.876-0.73c0.073-2.408,2.189-3.43,4.378-3.43c0.73,0,1.605,0.146,2.263,0.511
		c0.729,0.365,1.312,1.095,1.312,1.97c0,0.949-0.657,1.679-1.678,1.679c-0.73,0-1.459-0.511-1.459-1.314
		c0-0.219,0.072-0.365,0.146-0.583c-0.146-0.073-0.219-0.073-0.438-0.073c-0.804,0-1.096,0.511-1.096,1.241s0.073,0.73,0.804,0.73
		c0.876,0,1.533,0.073,1.533,1.167c0,1.021-0.438,1.313-1.388,1.313c-0.876,0-0.949-0.073-0.949,0.875L386.477,301.238
		L386.477,301.238z"/>
	<path fill="#004F9E" d="M400.706,299.488c0,3.649-1.824,6.202-5.691,6.202c-3.795,0-5.838-2.334-5.838-6.058
		c0-3.794,2.043-6.056,5.838-6.056C398.59,293.577,400.706,295.912,400.706,299.488L400.706,299.488z M395.015,296.35
		c-1.823,0-2.262,1.824-2.262,3.283c0,1.314,0.438,3.285,2.043,3.285c0.803,0,1.459-0.219,1.824-0.949s0.511-1.605,0.511-2.336
		C397.131,298.174,396.766,296.35,395.015,296.35L395.015,296.35L395.015,296.35z"/>
	<path fill="#004F9E" d="M402.312,298.028c0-0.292,0.072-1.532-0.438-1.532c-0.219,0-0.438,0.146-0.729,0.146
		c-0.729,0-0.948-0.584-0.948-1.241c0-0.803,0.364-1.532,2.044-1.532c0.438,0.073,0.875,0.219,1.386,0.219s1.022-0.146,1.533-0.219
		c0.729,0,0.583,0.657,0.583,1.241v5.254c0,0.438,0,1.24,0.292,1.678c0.219,0.365,0.729,0.658,1.241,0.658
		c0.655,0,1.239-0.293,1.604-0.878c0.438-0.729,0.511-1.458,0.511-2.261v-1.533c0-0.292,0.072-1.532-0.438-1.532
		c-0.219,0-0.438,0.146-0.729,0.146c-0.729,0-0.947-0.584-0.947-1.241c0-0.803,0.363-1.532,1.896-1.532
		c0.438,0.073,0.876,0.219,1.387,0.219c0.512,0,1.021-0.146,1.532-0.219c0.803,0,0.73,0.511,0.73,1.095v6.274
		c0,0.293-0.073,1.533,0.363,1.533c0.221,0,0.438-0.146,0.729-0.146c0.73,0,1.021,0.584,1.021,1.239
		c0,0.878-0.438,1.533-1.312,1.533c-0.584,0-1.095-0.219-1.605-0.219c-0.438,0-0.948,0.219-1.387,0.219
		c-0.803,0-0.803-0.729-0.803-1.168v-0.438c-0.803,1.24-2.408,1.896-3.867,1.896c-1.168,0-2.48-0.438-3.139-1.388
		c-0.583-0.946-0.512-2.262-0.512-3.354v-2.919H402.312z"/>
	<path fill="#004F9E" d="M417.928,298.028c0-0.292,0.073-1.532-0.438-1.532c-0.219,0-0.438,0.146-0.729,0.146
		c-0.729,0-0.948-0.584-0.948-1.241c0-0.803,0.364-1.532,1.095-1.532c0.657,0.073,1.095,0.219,1.533,0.219
		c0.511,0,0.947-0.146,1.459-0.219c0.656,0,0.656,0.438,0.656,0.949v1.678c0.438-1.824,1.751-2.846,3.648-2.846
		c1.532,0,2.846,1.168,2.846,2.773c0,1.095-0.657,2.189-1.896,2.189c-0.804,0-1.532-0.584-1.532-1.459
		c0-0.292,0.146-0.584,0.292-0.875c-2.481-0.146-2.555,3.211-2.555,4.96c0,0.294-0.072,1.533,0.438,1.533
		c0.219,0,0.438-0.146,0.729-0.146c0.729,0,0.948,0.584,0.948,1.24c0,0.877-0.364,1.532-1.095,1.532
		c-1.241,0-2.116-0.219-2.992-0.219c-0.803,0-1.679,0.219-2.48,0.219c-0.729,0-1.096-0.655-1.096-1.532
		c0-0.656,0.221-1.24,0.949-1.24c0.292,0,0.512,0.146,0.729,0.146c0.511,0,0.438-1.239,0.438-1.533L417.928,298.028L417.928,298.028
		z"/>
	<path fill="#004F9E" d="M482.583,299.414c0,0.219-0.219,0.438-0.219,0.438l-12.041,11.968c-0.438,0.511-0.729,0.22-0.584-0.146
		c0.292-0.584,0.729-1.239,1.168-2.698c0.655-2.117,0.655-3.869,0.364-4.892c-0.22-0.946-1.388-2.918-3.94-2.918
		c-3.283,0-4.232,2.992-4.159,4.086c0.073,0.729,0,1.824,1.167,2.847c0.876,0.729,1.679,0.512,1.897,0.438
		c0.219,0,0.656-0.293,0.656,0.438c0,0.803-0.729,1.823-1.168,2.334c-0.511,0.438-2.115,1.68-4.45,1.68
		c-1.388,0-3.064-0.584-4.232-1.971c-0.876-1.021-1.46-2.189-1.971-3.867c-1.021-3.066-1.167-5.328-1.167-7.736
		c0-2.189,0.219-4.597,1.167-7.662c0.438-1.605,1.241-3.065,1.971-4.014c1.095-1.387,2.846-1.97,4.232-1.97
		c2.335,0,3.939,1.24,4.45,1.751c0.438,0.438,1.168,1.459,1.168,2.335c0,0.657-0.438,0.365-0.656,0.365
		c-0.22-0.073-1.021-0.292-1.897,0.438c-1.167,1.021-1.094,2.189-1.167,2.846c-0.073,1.168,0.876,4.086,4.159,4.086
		c2.554,0,3.722-1.897,3.94-2.918c0.291-1.022,0.291-2.773-0.364-4.816c-0.438-1.533-0.876-2.116-1.168-2.773
		c-0.146-0.292,0.146-0.657,0.584-0.146l12.041,11.968C482.364,298.904,482.583,299.123,482.583,299.414L482.583,299.414z"/>
	<path fill="#E20613" d="M438.361,299.269c0,0.292,0.291,0.511,0.291,0.511l12.771,12.26c0.365,0.291,0.438,0,0.365-0.22
		c-0.073-0.146-0.146-0.219-0.511-0.803c-3.503-5.035-3.431-11.749-3.431-11.749s-0.072-6.714,3.431-11.676
		c0.363-0.584,0.438-0.657,0.511-0.875c0.073-0.219,0-0.511-0.365-0.219l-12.771,12.26
		C438.652,298.758,438.361,298.977,438.361,299.269L438.361,299.269z"/>
</g>
</svg>
