<?xml version="1.0" encoding="utf-8"?>
<!-- Generator: Adobe Illustrator 16.0.0, SVG Export Plug-In . SVG Version: 6.00 Build 0)  -->
<!DOCTYPE svg PUBLIC "-//W3C//DTD SVG 1.1//EN" "http://www.w3.org/Graphics/SVG/1.1/DTD/svg11.dtd">
<svg version="1.1" id="Layer_1" xmlns="http://www.w3.org/2000/svg" xmlns:xlink="http://www.w3.org/1999/xlink" x="0px" y="0px"
	 width="175.748px" height="131.014px" viewBox="312.503 229.849 175.748 131.014"
	 enable-background="new 312.503 229.849 175.748 131.014" xml:space="preserve">
<g>
	<path d="M343.278,341.018c-0.648-3.147-3.225-3.983-6.107-4.25c-9.312-0.865-10.966,6.111-10.966,9.06
		c0,5.039,1.469,9.207,10.613,9.207c1.687,0,6.342-1.74,6.342-4.566h13.15c-0.529,8.386-14.594,10.396-20.727,10.396
		c-12.709,0-23.589-2.373-23.062-14.922c0.375-8.959,8.819-15.244,25.616-14.853c9.364,0.22,18.357,3.146,18.396,9.931h-13.256
		V341.018z"/>
	<path d="M474.996,341.018c-0.647-3.147-3.225-3.983-6.107-4.25c-9.313-0.865-10.965,6.111-10.965,9.06
		c0,5.039,1.468,9.207,10.613,9.207c1.685,0,6.34-1.74,6.34-4.566h13.152c-0.528,8.386-14.594,10.396-20.729,10.396
		c-12.708,0-23.589-2.373-23.062-14.922c0.376-8.959,8.821-15.244,25.615-14.853c9.364,0.22,18.358,3.146,18.397,9.931h-13.255
		V341.018z"/>
	<polygon points="358.881,331.686 375.953,331.686 390.519,352.158 390.637,352.158 390.637,331.686 401.578,331.686 
		401.578,360.111 385.223,360.111 369.942,339.641 369.822,339.641 369.822,360.111 358.881,360.111 	"/>
	<path d="M404.955,331.686h20.736c9.966,0,15.827,2.791,15.827,7.008c0,2.49-2.452,5.564-7.925,6.47v0.08
		c6.588,0.393,9.021,4.567,9.021,7.069c0,5.011-5.716,7.799-16.862,7.799h-20.797V331.686L404.955,331.686L404.955,331.686z
		 M416.96,342.73h3.438c5.294,0,8.104-0.412,8.104-2.619c0-2.359-2.338-3.148-7.104-3.148h-4.438V342.73L416.96,342.73
		L416.96,342.73z M416.96,354.154h3.438c6.381,0,8.722-0.67,8.722-2.875c0-2.361-2.956-3.15-7.722-3.15h-4.438V354.154
		L416.96,354.154z"/>
	<path fill="#FFFFFF" d="M473.381,327.041c-2.796,1.24-5.892,1.791-9.191,1.791l-132.158-0.104
		c-7.474-0.584-14.812-6.75-16.899-14.121c-2.221-7.371-0.066-14.984,4.814-20.357c4.713-4.856,10.771-6.888,17.504-6.131
		c-6.329-4.306-8.988-11.437-8.078-19.083c0.841-6.646,5.654-13.123,11.815-15.774c7.035-3.17,15.921-1.447,21.441,3.892
		c-1.144-3.892-1.75-9.472-0.167-13.468c1.884-6.303,8.01-11.917,14.238-13.226c8.314-1.791,16.226,1.344,21.004,8.474
		c0.91,1.343,1.449,2.859,2.155,4.271c2.392-6.821,9.292-12.47,16.295-13.193c7.235-0.93,14.07,2.17,18.614,8.267
		c3.534,5.064,4.745,12.607,2.457,18.704h0.271c5.249-4.718,13.195-6.441,19.962-3.823c6.463,2.135,11.949,9.024,12.824,15.81
		c0.976,7.509-1.582,14.087-7.271,18.945c8.617-0.517,16.797,4.063,20.331,12.088c3.1,6.994,2.191,16.36-3.062,22.045
		C478.161,324.184,475.905,325.973,473.381,327.041L473.381,327.041z"/>
	<path fill="#0080C8" d="M459.377,288.12l-48.879,32.687l16.461-39.127l7.811-18.222c3.164-5.889,9.12-9.643,15.619-9.747
		c6.227,0,11.747,2.997,15.248,8.37c3.604,5.373,3.806,14.156,0.202,19.599C464.225,284.227,461.834,286.5,459.377,288.12
		L459.377,288.12z"/>
	<path fill="#6758A1" d="M435.039,257.258L410.868,314.4l-1.077-6.234l-7.271-46.844c-0.304-2.859,0.873-5.27,3.162-6.854
		l3.47-2.066c0.201-0.724-0.809-0.964-1.28-1.206l-6.8-0.069c-0.437-6.752,2.524-12.881,8.247-16.567
		c4.443-2.895,11.211-3.651,16.158-1.31c6.431,2.618,10.905,9.473,11.008,16.464C436.451,252.298,436.014,254.951,435.039,257.258
		L435.039,257.258z"/>
	<path fill="#CA0538" d="M388.619,314.607l-23.8-57.281c-2.56-6.131-1.482-14.191,2.895-19.151
		c4.679-5.201,11.276-7.405,18.077-5.647c5.756,1.411,11.142,6.923,12.557,12.812c0.674,2.205,0.571,4.856,0.438,7.267
		L388.619,314.607L388.619,314.607z"/>
	<path fill="#EB6608" d="M337.754,286.053c-4.881-4.236-7.069-9.886-6.363-16.43c0.707-6.613,5.926-13.088,12.152-15.085
		c6.396-1.998,13.364-0.413,18.01,4.375c1.952,1.86,3.164,4.064,4.173,6.337l22.993,55.661L337.754,286.053L337.754,286.053z"/>
	<path fill="#FAB900" d="M332.53,326.715c-6.36-0.721-11.264-4.148-14.252-9.98c-3.028-5.887-2.241-14.239,1.83-19.459
		c4.436-5.315,10.854-7.99,17.32-6.677c2.636,0.425,4.847,1.559,6.924,2.866l49.482,33.267L332.53,326.715L332.53,326.715z"/>
	<path fill="#13A438" d="M466.865,326.715c6.363-0.721,11.263-4.148,14.254-9.98c3.027-5.887,2.24-14.239-1.83-19.459
		c-4.438-5.315-10.855-7.99-17.323-6.677c-2.634,0.425-4.844,1.559-6.923,2.866l-49.479,33.267L466.865,326.715L466.865,326.715z"/>
</g>
</svg>
