<?xml version="1.0" encoding="utf-8"?>
<!-- Generator: Adobe Illustrator 16.0.0, SVG Export Plug-In . SVG Version: 6.00 Build 0)  -->
<!DOCTYPE svg PUBLIC "-//W3C//DTD SVG 1.1//EN" "http://www.w3.org/Graphics/SVG/1.1/DTD/svg11.dtd">
<svg version="1.1" id="Layer_1" xmlns="http://www.w3.org/2000/svg" xmlns:xlink="http://www.w3.org/1999/xlink" x="0px" y="0px"
	 width="69.121px" height="36.063px" viewBox="267.766 338.46 69.121 36.063" enable-background="new 267.766 338.46 69.121 36.063"
	 xml:space="preserve">
<g>
	<polygon fill="#ED1C2E" points="267.766,374.523 336.887,374.523 336.887,338.46 267.766,338.46 	"/>
	<path fill="#FFFFFF" d="M289.861,362.453c0.588,0,0.994-0.461,0.992-0.982v-14.487c0-5.414,7.202-8.015,11.015-1.725
		c3.895,6.423,6.125,10.147,6.125,10.147v-8.419c0.001-5.414,7.19-8.015,11.004-1.723c3.894,6.423,6.176,10.146,6.176,10.146
		v-13.715h8.581v24.018c0.018,6.178-7.519,7.152-10.631,2.205c-1.833-2.908-6.496-10.336-6.496-10.336v8.127
		c0.018,6.178-7.519,7.152-10.63,2.207c-1.833-2.912-6.498-10.337-6.498-10.337v7.351c0.007,3.756-2.295,5.795-5.874,5.793h-8.319
		c-21.283-0.016-21.485-29.03-0.284-29.028h4.729v8.222c0,0-1.352-0.003-5.211,0c-8.679,0.012-9.591,12.55,0.608,12.537
		L289.861,362.453L289.861,362.453z"/>
	
		<path fill="none" stroke="#ED1C2E" stroke-width="0.3888" stroke-linecap="round" stroke-linejoin="round" stroke-miterlimit="2.6131" d="
		M329.467,341.695v23.489 M329.467,365.184c0.005,1.51-1.488,1.851-2.232,0.824c0,0-10.067-15.48-12.602-19.467
		c-0.745-1.024-2.337-0.683-2.332,0.828 M312.301,347.369v17.811 M312.301,365.18c0.003,1.51-1.448,1.85-2.193,0.824
		c0,0-10.067-15.483-12.603-19.466c-0.745-1.024-2.341-0.683-2.336,0.826 M295.169,347.364v17.698 M295.169,365.062
		c0,0.813-0.703,1.485-1.553,1.485 M293.617,366.549h-8.893 M284.724,366.549c-15.137-0.002-14.683-20.701-0.372-20.722
		 M284.352,345.827h5.474"/>
</g>
</svg>
