<?xml version="1.0" encoding="utf-8"?>
<!-- Generator: Adobe Illustrator 16.0.0, SVG Export Plug-In . SVG Version: 6.00 Build 0)  -->
<!DOCTYPE svg PUBLIC "-//W3C//DTD SVG 1.1//EN" "http://www.w3.org/Graphics/SVG/1.1/DTD/svg11.dtd">
<svg version="1.1" id="Layer_1" xmlns="http://www.w3.org/2000/svg" xmlns:xlink="http://www.w3.org/1999/xlink" x="0px" y="0px"
	 width="56.068px" height="164.792px" viewBox="69.598 15.477 56.068 164.792"
	 enable-background="new 69.598 15.477 56.068 164.792" xml:space="preserve">
<g>
	<path fill="#AE5F49" d="M94.469,15.477c0.079,0.316,0.158,0.632,0.158,1.026c0,2.211-1.816,4.027-4.106,4.027
		c-0.869,0-1.658-0.315-2.369-0.789c0.474,1.737,2.053,3.079,3.948,3.079c2.211,0,4.027-1.816,4.027-4.106
		C96.127,17.372,95.496,16.187,94.469,15.477L94.469,15.477z"/>
	<path fill="#AE5F49" d="M104.655,26.215c0.078,0.315,0.158,0.631,0.158,1.026c0,2.211-1.816,4.027-4.027,4.027
		c-0.947,0-1.737-0.315-2.447-0.79c0.475,1.737,2.053,3.08,3.947,3.08c2.211,0,4.027-1.816,4.027-4.106
		C106.313,28.189,105.683,27.004,104.655,26.215L104.655,26.215z"/>
	<path fill="#AE5F49" d="M97.549,52.904c0.079,0.316,0.158,0.711,0.158,1.026c0,2.211-1.816,4.027-4.027,4.027
		c-0.948,0-1.737-0.316-2.369-0.79c0.395,1.737,1.974,3.08,3.869,3.08c2.211,0,4.027-1.816,4.027-4.027
		C99.207,54.878,98.575,53.693,97.549,52.904L97.549,52.904z"/>
	<path fill="#AE5F49" d="M94.232,67.828c0.079,0.395,0.158,0.79,0.158,1.185c0,2.606-2.132,4.738-4.738,4.738
		c-1.105,0-2.053-0.316-2.842-0.948c0.553,2.053,2.369,3.632,4.58,3.632c2.606,0,4.738-2.131,4.738-4.737
		C96.127,70.118,95.417,68.696,94.232,67.828L94.232,67.828z"/>
	<path fill="#AE5F49" d="M95.812,79.514c0.079,0.316,0.158,0.632,0.158,0.948c0,2.29-1.816,4.106-4.027,4.106
		c-0.948,0-1.737-0.316-2.448-0.79c0.474,1.737,2.053,3.08,3.948,3.08c2.211,0,4.027-1.816,4.027-4.106
		C97.47,81.409,96.838,80.225,95.812,79.514L95.812,79.514z"/>
	<path fill="#AE5F49" d="M85.941,16.897c0,0.079,0,0.158,0,0.237c0,0.553-0.474,1.026-1.026,1.026c-0.237,0-0.474-0.079-0.632-0.237
		c0.158,0.474,0.553,0.869,1.027,0.869c0.553,0,1.026-0.474,1.026-1.105C86.336,17.372,86.178,17.056,85.941,16.897L85.941,16.897z"
		/>
	<path fill="#AE5F49" d="M90.995,32.216c0.079,0.079,0.079,0.237,0.079,0.395c0,0.79-0.71,1.5-1.5,1.5
		c-0.315,0-0.631-0.158-0.947-0.316c0.237,0.631,0.79,1.184,1.5,1.184c0.869,0,1.5-0.71,1.5-1.579
		C91.626,32.927,91.39,32.453,90.995,32.216L90.995,32.216z"/>
	<path fill="#AE5F49" d="M101.181,40.981c0.079,0.158,0.079,0.315,0.079,0.395c0,0.948-0.711,1.659-1.657,1.659
		c-0.315,0-0.711-0.079-0.947-0.316c0.158,0.71,0.789,1.263,1.578,1.263c0.947,0,1.658-0.711,1.658-1.658
		C101.892,41.771,101.653,41.296,101.181,40.981L101.181,40.981z"/>
	<path fill="#AE5F49" d="M104.497,37.033c0.079,0.079,0.079,0.158,0.079,0.316c0,0.71-0.554,1.263-1.265,1.263
		c-0.314,0-0.553-0.079-0.789-0.237c0.158,0.553,0.633,0.947,1.264,0.947c0.711,0,1.264-0.553,1.264-1.263
		C105.05,37.585,104.892,37.27,104.497,37.033L104.497,37.033z"/>
	<path fill="#AE5F49" d="M86.416,46.192c0.079,0.158,0.079,0.316,0.079,0.474c0,1.106-0.869,1.974-1.895,1.974
		c-0.474,0-0.869-0.158-1.185-0.395c0.237,0.869,0.948,1.5,1.896,1.5c1.026,0,1.895-0.869,1.895-1.974
		C87.205,47.14,86.889,46.587,86.416,46.192L86.416,46.192z"/>
	<path fill="#AE5F49" d="M98.575,34.901c0,0.158,0.078,0.316,0.078,0.553c0,1.184-1.025,2.21-2.29,2.21
		c-0.474,0-0.947-0.158-1.263-0.395c0.237,0.947,1.105,1.658,2.132,1.658c1.263,0,2.211-1.026,2.211-2.211
		C99.444,35.927,99.128,35.295,98.575,34.901L98.575,34.901z"/>
	<path fill="#AE5F49" d="M97.786,15.713c0.078,0.079,0.078,0.158,0.078,0.237c0,0.553-0.475,1.026-1.026,1.026
		c-0.236,0-0.474-0.079-0.632-0.158c0.079,0.395,0.475,0.79,1.027,0.79c0.552,0,1.025-0.474,1.025-1.026
		C98.26,16.187,98.103,15.871,97.786,15.713L97.786,15.713z"/>
	<path fill="#AE5F49" d="M90.6,25.03c0.079,0.158,0.079,0.316,0.079,0.395c0,0.869-0.71,1.579-1.579,1.579
		c-0.316,0-0.632-0.158-0.869-0.315c0.158,0.632,0.79,1.185,1.5,1.185c0.869,0,1.5-0.711,1.5-1.58
		C91.232,25.82,90.995,25.347,90.6,25.03L90.6,25.03z"/>
	<path fill="#AE5F49" d="M102.997,17.135c0,0.079,0.079,0.158,0.079,0.237c0,0.553-0.474,1.026-1.104,1.026
		c-0.238,0-0.396-0.079-0.554-0.158c0.079,0.474,0.474,0.79,0.947,0.79c0.632,0,1.104-0.474,1.104-1.027
		C103.472,17.608,103.233,17.292,102.997,17.135L102.997,17.135z"/>
	<path fill="#AE5F49" d="M94.943,22.267c0,0.079,0,0.158,0,0.237c0,0.632-0.474,1.185-1.105,1.185c-0.237,0-0.474-0.079-0.632-0.237
		c0.079,0.474,0.553,0.869,1.027,0.869c0.632,0,1.185-0.474,1.185-1.105C95.417,22.82,95.18,22.504,94.943,22.267L94.943,22.267z"/>
	<path fill="#AE5F49" d="M86.494,35.611c0,0.079,0,0.158,0,0.237c0,0.632-0.474,1.185-1.105,1.185c-0.237,0-0.474-0.158-0.631-0.237
		c0.079,0.474,0.553,0.868,1.105,0.868c0.552,0,1.105-0.552,1.105-1.184C86.968,36.164,86.731,35.77,86.494,35.611L86.494,35.611z"
		/>
	<path fill="#AE5F49" d="M94.785,42.876c0.079,0.158,0.079,0.237,0.079,0.316c0,0.631-0.474,1.105-1.105,1.105
		c-0.316,0-0.474-0.079-0.711-0.237c0.158,0.553,0.553,0.868,1.105,0.868c0.632,0,1.105-0.474,1.105-1.104
		C95.259,43.429,95.101,43.113,94.785,42.876L94.785,42.876z"/>
	<path fill="#AE5F49" d="M95.812,46.587c0,0.079,0,0.158,0,0.237c0,0.631-0.474,1.105-1.105,1.105c-0.237,0-0.474-0.079-0.71-0.158
		c0.158,0.473,0.553,0.868,1.105,0.868c0.631,0,1.184-0.553,1.184-1.185C96.285,47.061,96.048,46.745,95.812,46.587L95.812,46.587z"
		/>
	<path fill="#AE5F49" d="M103.629,56.378c0,0.079,0.079,0.158,0.079,0.237c0,0.632-0.553,1.104-1.186,1.104
		c-0.236,0-0.474-0.079-0.631-0.237c0.078,0.553,0.553,0.869,1.104,0.869c0.632,0,1.104-0.474,1.104-1.105
		C104.103,56.852,103.865,56.536,103.629,56.378L103.629,56.378z"/>
	<path fill="#AE5F49" d="M91.706,63.801c0.079,0.079,0.079,0.158,0.079,0.236c0,0.632-0.474,1.185-1.106,1.185
		c-0.237,0-0.474-0.079-0.71-0.237c0.158,0.474,0.553,0.869,1.105,0.869c0.632,0,1.185-0.474,1.185-1.105
		C92.258,64.354,92.021,64.037,91.706,63.801L91.706,63.801z"/>
	<path fill="#AE5F49" d="M74.413,82.041c0,0.158,0,0.237,0,0.316c0,0.632-0.474,1.105-1.105,1.105c-0.237,0-0.474-0.079-0.631-0.237
		c0.079,0.553,0.553,0.869,1.026,0.869c0.632,0,1.185-0.474,1.185-1.104C74.887,82.593,74.65,82.278,74.413,82.041L74.413,82.041z"
		/>
	<path fill="#AE5F49" d="M102.207,70.986c0,0.158,0,0.237,0,0.395c0,0.948-0.71,1.658-1.658,1.658c-0.396,0-0.71-0.079-1.026-0.316
		c0.237,0.711,0.869,1.263,1.658,1.263c0.948,0,1.658-0.71,1.658-1.658C102.839,71.776,102.603,71.302,102.207,70.986
		L102.207,70.986z"/>
	<path fill="#AE5F49" d="M100.153,80.935c0,0.079,0,0.237,0,0.395c0,0.869-0.709,1.579-1.578,1.579
		c-0.315,0-0.711-0.158-0.947-0.316c0.158,0.711,0.789,1.185,1.579,1.185c0.868,0,1.579-0.711,1.579-1.579
		C100.786,81.646,100.549,81.251,100.153,80.935L100.153,80.935z"/>
	<path fill="#AE5F49" d="M100.786,77.776c0,0.158,0,0.316,0,0.395c0,0.869-0.711,1.579-1.579,1.579
		c-0.315,0-0.632-0.079-0.947-0.316c0.236,0.711,0.789,1.264,1.579,1.264c0.868,0,1.579-0.711,1.579-1.579
		C101.418,78.566,101.181,78.093,100.786,77.776L100.786,77.776z"/>
	<path fill="#AE5F49" d="M105.761,81.725c0.079,0.158,0.079,0.316,0.079,0.553c0,1.184-0.948,2.132-2.211,2.132
		c-0.474,0-0.946-0.158-1.264-0.395c0.237,0.948,1.104,1.658,2.132,1.658c1.186,0,2.211-0.948,2.211-2.211
		C106.708,82.751,106.313,82.12,105.761,81.725L105.761,81.725z"/>
	<path fill="#AE5F49" d="M114.763,73.986c0.078,0.079,0.078,0.158,0.078,0.316c0,0.631-0.553,1.184-1.263,1.184
		c-0.237,0-0.474-0.079-0.711-0.237c0.157,0.552,0.632,0.947,1.185,0.947c0.711,0,1.264-0.552,1.264-1.263
		C115.315,74.539,115.078,74.224,114.763,73.986L114.763,73.986z"/>
	<path fill="#AE5F49" d="M108.366,78.487c0.078,0.079,0.078,0.158,0.078,0.316c0,0.631-0.553,1.263-1.264,1.263
		c-0.236,0-0.474-0.158-0.709-0.316c0.156,0.553,0.631,0.948,1.184,0.948c0.711,0,1.264-0.553,1.264-1.185
		C108.919,79.04,108.683,78.724,108.366,78.487L108.366,78.487z"/>
	<path fill="#AE5F49" d="M117.131,81.567c0,0.158,0,0.237,0,0.316c0,0.71-0.553,1.263-1.185,1.263c-0.315,0-0.553-0.079-0.789-0.237
		c0.158,0.553,0.632,0.948,1.264,0.948c0.631,0,1.184-0.553,1.184-1.264C117.604,82.199,117.446,81.804,117.131,81.567
		L117.131,81.567z"/>
	<path fill="#AE5F49" d="M113.024,66.564c0,0.158,0.08,0.316,0.08,0.395c0,0.947-0.791,1.737-1.737,1.737
		c-0.316,0-0.711-0.158-0.947-0.395c0.157,0.79,0.868,1.342,1.579,1.342c0.947,0,1.736-0.79,1.736-1.737
		C113.735,67.354,113.42,66.88,113.024,66.564L113.024,66.564z"/>
	<path fill="#AE5F49" d="M109.551,72.96c0.079,0.158,0.079,0.316,0.079,0.474c0,1.026-0.869,1.816-1.896,1.816
		c-0.395,0-0.789-0.079-1.025-0.316c0.158,0.79,0.868,1.421,1.736,1.421c1.027,0,1.896-0.868,1.896-1.895
		C110.341,73.829,110.024,73.276,109.551,72.96L109.551,72.96z"/>
	<path fill="#AE5F49" d="M112.313,80.698c0,0.158,0.08,0.316,0.08,0.474c0,1.185-1.026,2.132-2.211,2.132
		c-0.475,0-0.869-0.158-1.265-0.395c0.237,0.948,1.104,1.658,2.132,1.658c1.186,0,2.133-0.948,2.133-2.211
		C113.185,81.646,112.867,81.014,112.313,80.698L112.313,80.698z"/>
	<path fill="#AE5F49" d="M83.572,77.224c0,0.158,0.079,0.316,0.079,0.553c0,1.264-1.026,2.29-2.369,2.29
		c-0.474,0-0.948-0.158-1.342-0.474c0.237,1.026,1.185,1.816,2.211,1.816c1.342,0,2.369-1.105,2.369-2.369
		C84.52,78.25,84.125,77.619,83.572,77.224L83.572,77.224z"/>
	<path fill="#AE5F49" d="M85.863,42.007c0,0.079,0,0.158,0,0.237c0,0.632-0.474,1.185-1.105,1.185c-0.237,0-0.474-0.158-0.632-0.237
		c0.079,0.474,0.553,0.869,1.026,0.869c0.632,0,1.185-0.553,1.185-1.185C86.336,42.481,86.099,42.166,85.863,42.007L85.863,42.007z"
		/>
	<path fill="#AE5F49" d="M84.994,54.167c0.079,0.079,0.079,0.158,0.079,0.315c0,0.632-0.474,1.105-1.105,1.105
		c-0.237,0-0.474-0.079-0.71-0.236c0.158,0.474,0.553,0.868,1.105,0.868c0.632,0,1.184-0.474,1.184-1.104
		C85.546,54.72,85.31,54.404,84.994,54.167L84.994,54.167z"/>
	<path fill="#AE5F49" d="M83.415,62.695c0,0.079,0.079,0.158,0.079,0.237c0,0.631-0.553,1.184-1.185,1.184
		c-0.237,0-0.474-0.158-0.631-0.237c0.158,0.474,0.553,0.869,1.105,0.869c0.631,0,1.105-0.553,1.105-1.185
		C83.889,63.169,83.73,62.853,83.415,62.695L83.415,62.695z"/>
	<path fill="#AE5F49" d="M89.968,59.695c0.079,0.158,0.079,0.237,0.079,0.395c0,0.79-0.71,1.421-1.5,1.421
		c-0.316,0-0.632-0.079-0.869-0.237c0.158,0.632,0.711,1.105,1.421,1.105c0.789,0,1.5-0.71,1.5-1.5
		C90.6,60.405,90.363,59.932,89.968,59.695L89.968,59.695z"/>
	<path fill="#AE5F49" d="M106.394,64.354c0.078,0.079,0.078,0.236,0.078,0.315c0,0.79-0.632,1.5-1.5,1.5
		c-0.315,0-0.633-0.158-0.869-0.316c0.158,0.632,0.789,1.105,1.422,1.105c0.869,0,1.5-0.632,1.5-1.421
		C107.024,64.985,106.787,64.59,106.394,64.354L106.394,64.354z"/>
	<path fill="#AE5F49" d="M83.73,57.8c0,0.158,0.079,0.315,0.079,0.474c0,1.105-0.948,1.974-2.053,1.974
		c-0.395,0-0.869-0.158-1.184-0.395c0.237,0.869,1.026,1.579,1.974,1.579c1.105,0,1.974-0.947,1.974-2.053
		C84.52,58.747,84.204,58.115,83.73,57.8L83.73,57.8z"/>
	<path fill="#AE5F49" d="M80.335,69.17c0.079,0.237,0.079,0.474,0.079,0.632c0,1.5-1.185,2.685-2.606,2.685
		c-0.631,0-1.105-0.237-1.579-0.553c0.316,1.185,1.343,2.053,2.606,2.053c1.421,0,2.605-1.184,2.605-2.685
		C81.44,70.433,81.046,69.644,80.335,69.17L80.335,69.17z"/>
	<path fill="#AE5F49" d="M109.233,60.089c0.08,0.158,0.158,0.395,0.158,0.632c0,1.579-1.342,2.921-2.92,2.921
		c-0.633,0-1.186-0.237-1.658-0.632c0.314,1.264,1.42,2.211,2.763,2.211c1.58,0,2.844-1.263,2.844-2.842
		C110.42,61.432,109.944,60.563,109.233,60.089L109.233,60.089z"/>
	<path fill="#AE5F49" d="M99.522,64.116c0,0.158,0.078,0.316,0.078,0.553c0,1.264-1.025,2.29-2.367,2.29
		c-0.476,0-0.948-0.158-1.343-0.474c0.237,1.026,1.185,1.816,2.21,1.816c1.344,0,2.369-1.105,2.369-2.369
		C100.472,65.222,100.075,64.511,99.522,64.116L99.522,64.116z"/>
	<path fill="#AE5F49" d="M81.046,63.406c0,0.158,0,0.316,0,0.474c0,1.105-0.869,2.053-1.974,2.053c-0.395,0-0.869-0.158-1.185-0.395
		c0.237,0.869,1.026,1.5,1.974,1.5c1.105,0,1.974-0.869,1.974-1.974C81.835,64.354,81.52,63.801,81.046,63.406L81.046,63.406z"/>
	<path fill="#AE5F49" d="M85.468,66.959c0,0.158,0,0.316,0,0.395c0,0.947-0.71,1.737-1.658,1.737c-0.395,0-0.711-0.158-0.948-0.316
		c0.158,0.711,0.79,1.264,1.58,1.264c0.947,0,1.658-0.79,1.658-1.737C86.099,67.749,85.863,67.275,85.468,66.959L85.468,66.959z"/>
	<path fill="#AE5F49" d="M76.229,78.329c0,0.158,0,0.237,0,0.395c0,0.948-0.71,1.658-1.658,1.658c-0.395,0-0.711-0.079-0.947-0.316
		c0.158,0.711,0.789,1.264,1.579,1.264c0.947,0,1.658-0.711,1.658-1.658C76.861,79.119,76.624,78.646,76.229,78.329L76.229,78.329z"
		/>
	<path fill="#AE5F49" d="M75.203,119.862c0.079,0.158,0.079,0.236,0.079,0.396c0,0.868-0.71,1.579-1.579,1.579
		c-0.395,0-0.71-0.079-0.948-0.314c0.158,0.709,0.79,1.263,1.5,1.263c0.869,0,1.658-0.71,1.658-1.579
		C75.913,120.651,75.598,120.179,75.203,119.862L75.203,119.862z"/>
	<path fill="#AE5F49" d="M79.704,116.784c0,0.156,0.079,0.314,0.079,0.552c0,1.265-1.026,2.29-2.369,2.29
		c-0.474,0-0.948-0.158-1.342-0.475c0.237,1.026,1.184,1.815,2.211,1.815c1.342,0,2.369-1.104,2.369-2.368
		C80.651,117.89,80.256,117.178,79.704,116.784L79.704,116.784z"/>
	<path fill="#AE5F49" d="M94.627,114.968c0.079,0.079,0.079,0.236,0.079,0.395c0,0.947-0.71,1.658-1.658,1.658
		c-0.395,0-0.71-0.078-1.026-0.314c0.237,0.71,0.869,1.263,1.658,1.263c0.947,0,1.658-0.711,1.658-1.657
		C95.338,115.757,95.101,115.283,94.627,114.968L94.627,114.968z"/>
	<path fill="#AE5F49" d="M84.204,114.021c0.079,0.157,0.079,0.315,0.079,0.396c0,0.946-0.79,1.737-1.658,1.737
		c-0.395,0-0.71-0.158-1.026-0.316c0.158,0.711,0.869,1.264,1.658,1.264c0.869,0,1.658-0.789,1.658-1.736
		C84.915,114.81,84.678,114.336,84.204,114.021L84.204,114.021z"/>
	<path fill="#AE5F49" d="M117.368,113.862c0.078,0.156,0.078,0.314,0.078,0.395c0,0.947-0.789,1.737-1.657,1.737
		c-0.396,0-0.711-0.158-1.026-0.396c0.236,0.789,0.868,1.342,1.658,1.342c0.868,0,1.657-0.789,1.657-1.736
		C118.078,114.651,117.842,114.178,117.368,113.862L117.368,113.862z"/>
	<path fill="#AE5F49" d="M111.841,115.601c0,0.077,0,0.156,0,0.235c0,0.632-0.474,1.185-1.185,1.185
		c-0.236,0-0.474-0.078-0.632-0.235c0.078,0.552,0.553,0.868,1.104,0.868c0.632,0,1.185-0.476,1.185-1.105
		C112.313,116.151,112.078,115.757,111.841,115.601L111.841,115.601z"/>
	<path fill="#AE5F49" d="M104.103,130.917c0,0.079,0.08,0.158,0.08,0.236c0,0.633-0.554,1.105-1.105,1.105
		c-0.237,0-0.475-0.078-0.711-0.236c0.158,0.474,0.553,0.869,1.105,0.869c0.631,0,1.104-0.475,1.104-1.105
		C104.576,131.392,104.418,131.075,104.103,130.917L104.103,130.917z"/>
	<path fill="#AE5F49" d="M84.362,153.737c0.079,0.158,0.079,0.314,0.079,0.553c0,1.186-1.027,2.211-2.211,2.211
		c-0.474,0-0.948-0.158-1.343-0.475c0.237,1.026,1.105,1.738,2.132,1.738c1.264,0,2.291-1.027,2.291-2.291
		C85.31,154.765,84.915,154.132,84.362,153.737L84.362,153.737z"/>
	<path fill="#AE5F49" d="M88.074,146.313c0.079,0.158,0.079,0.396,0.079,0.554c0,1.343-1.105,2.448-2.448,2.448
		c-0.553,0-1.026-0.158-1.421-0.475c0.237,1.105,1.185,1.896,2.369,1.896c1.342,0,2.448-1.106,2.448-2.448
		C89.1,147.42,88.705,146.71,88.074,146.313L88.074,146.313z"/>
	<path fill="#AE5F49" d="M74.808,154.369c0.079,0.157,0.079,0.235,0.079,0.396c0,0.867-0.711,1.657-1.658,1.657
		c-0.316,0-0.632-0.157-0.948-0.315c0.237,0.633,0.869,1.186,1.579,1.186c0.869,0,1.658-0.711,1.658-1.58
		C75.519,155.158,75.203,154.685,74.808,154.369L74.808,154.369z"/>
	<path fill="#AE5F49" d="M80.493,151.053c0.079,0.158,0.079,0.315,0.079,0.554c0,1.185-1.026,2.211-2.211,2.211
		c-0.474,0-0.947-0.158-1.342-0.475c0.237,1.026,1.106,1.737,2.132,1.737c1.263,0,2.29-1.027,2.29-2.211
		C81.44,152.079,81.046,151.447,80.493,151.053L80.493,151.053z"/>
	<path fill="#AE5F49" d="M76.15,145.446c0.079,0.158,0.079,0.236,0.079,0.314c0,0.711-0.552,1.264-1.263,1.264
		c-0.315,0-0.553-0.078-0.79-0.236c0.158,0.553,0.632,1.027,1.263,1.027c0.71,0,1.263-0.633,1.263-1.344
		C76.703,146.078,76.466,145.683,76.15,145.446L76.15,145.446z"/>
	<path fill="#AE5F49" d="M108.84,169.767c0,0.236,0.079,0.396,0.079,0.633c0,1.5-1.186,2.604-2.605,2.604
		c-0.631,0-1.185-0.157-1.578-0.474c0.314,1.104,1.263,1.974,2.525,1.974c1.422,0,2.606-1.185,2.606-2.604
		C109.867,171.03,109.472,170.24,108.84,169.767L108.84,169.767z"/>
	<path fill="#AE5F49" d="M100.392,165.739c0,0.236,0.08,0.474,0.08,0.789c0,1.658-1.423,3-3.08,3c-0.71,0-1.264-0.235-1.816-0.553
		c0.316,1.265,1.5,2.291,3,2.291c1.658,0,3.001-1.344,3.001-3.08C101.576,167.161,101.103,166.292,100.392,165.739L100.392,165.739z
		"/>
	<path fill="#AE5F49" d="M89.811,161.87c0.079,0.236,0.079,0.474,0.079,0.711c0,1.658-1.342,3.079-3,3.079
		c-0.711,0-1.343-0.236-1.816-0.632c0.316,1.343,1.5,2.369,2.922,2.369c1.658,0,3.079-1.422,3.079-3.08
		C91.074,163.291,90.6,162.423,89.811,161.87L89.811,161.87z"/>
	<path fill="#AE5F49" d="M98.892,157.054c0.078,0.237,0.078,0.475,0.078,0.711c0,1.736-1.342,3.079-3,3.079
		c-0.711,0-1.343-0.237-1.816-0.632c0.316,1.344,1.5,2.369,2.922,2.369c1.737,0,3.079-1.422,3.079-3.08
		C100.153,158.476,99.681,157.606,98.892,157.054L98.892,157.054z"/>
	<path fill="#AE5F49" d="M105.603,152c0.08,0.237,0.08,0.474,0.08,0.79c0,1.658-1.344,3-3,3c-0.711,0-1.344-0.158-1.816-0.553
		c0.314,1.343,1.5,2.289,2.921,2.289c1.657,0,3.08-1.342,3.08-3.078C106.866,153.5,106.394,152.553,105.603,152L105.603,152z"/>
	<path fill="#AE5F49" d="M114.92,147.185c0.079,0.156,0.079,0.314,0.079,0.474c0,1.264-0.947,2.211-2.132,2.211
		c-0.474,0-0.947-0.158-1.265-0.474c0.237,0.946,1.027,1.657,2.055,1.657c1.184,0,2.211-0.946,2.211-2.132
		C115.868,148.21,115.474,147.578,114.92,147.185L114.92,147.185z"/>
	<path fill="#AE5F49" d="M110.974,144.104c0,0.156,0,0.235,0,0.395c0,0.947-0.711,1.736-1.66,1.736
		c-0.395,0-0.709-0.157-1.025-0.396c0.236,0.79,0.869,1.343,1.658,1.343c0.947,0,1.736-0.789,1.736-1.736
		C111.683,144.894,111.367,144.42,110.974,144.104L110.974,144.104z"/>
	<path fill="#AE5F49" d="M114.131,139.84c0,0.158,0,0.316,0,0.474c0,1.186-0.868,2.055-1.975,2.055
		c-0.474,0-0.868-0.158-1.263-0.396c0.235,0.869,1.025,1.58,1.974,1.58c1.185,0,2.053-0.947,2.053-2.054
		C114.92,140.788,114.604,140.235,114.131,139.84L114.131,139.84z"/>
	<path fill="#AE5F49" d="M108.524,135.418c0,0.079,0,0.158,0,0.237c0,0.553-0.396,1.025-1.026,1.025
		c-0.158,0-0.396-0.078-0.554-0.236c0.08,0.475,0.475,0.789,0.947,0.789c0.553,0,1.026-0.474,1.026-1.025
		C108.919,135.894,108.761,135.576,108.524,135.418L108.524,135.418z"/>
	<path fill="#AE5F49" d="M107.498,142.524c0,0.078,0.078,0.158,0.078,0.236c0,0.553-0.474,1.026-1.026,1.026
		c-0.236,0-0.474-0.079-0.631-0.236c0.157,0.474,0.475,0.789,1.025,0.789c0.553,0,0.947-0.396,0.947-1.026
		C107.894,142.999,107.733,142.683,107.498,142.524L107.498,142.524z"/>
	<path fill="#AE5F49" d="M101.653,147.024c0,0.08,0,0.158,0,0.237c0,0.554-0.395,1.026-1.025,1.026
		c-0.156,0-0.395-0.079-0.553-0.237c0.078,0.474,0.474,0.79,0.947,0.79c0.631,0,1.026-0.474,1.026-1.025
		C102.05,147.499,101.892,147.185,101.653,147.024L101.653,147.024z"/>
	<path fill="#AE5F49" d="M95.97,151.447c0.079,0.157,0.079,0.237,0.079,0.395c0,0.869-0.71,1.501-1.579,1.501
		c-0.316,0-0.632-0.078-0.869-0.236c0.158,0.632,0.711,1.104,1.5,1.104s1.5-0.632,1.5-1.5
		C96.602,152.158,96.364,151.765,95.97,151.447L95.97,151.447z"/>
	<path fill="#AE5F49" d="M97.075,145.92c0,0.079,0,0.079,0,0.237c0,0.553-0.395,1.025-0.948,1.025c-0.237,0-0.474-0.158-0.632-0.236
		c0.079,0.474,0.474,0.789,0.948,0.789c0.632,0,1.026-0.474,1.026-1.025C97.47,146.394,97.312,146.078,97.075,145.92L97.075,145.92z
		"/>
	<path fill="#AE5F49" d="M86.099,150.737c0.079,0.078,0.079,0.156,0.079,0.236c0,0.553-0.474,1.025-1.026,1.025
		c-0.237,0-0.395-0.079-0.553-0.236c0.079,0.475,0.474,0.789,0.947,0.789c0.553,0,1.027-0.474,1.027-1.025
		C86.573,151.211,86.416,150.896,86.099,150.737L86.099,150.737z"/>
	<path fill="#AE5F49" d="M79.704,166.056c0.079,0.236,0.079,0.396,0.079,0.631c0,1.344-1.105,2.448-2.448,2.448
		c-0.553,0-1.026-0.157-1.421-0.474c0.237,1.105,1.185,1.895,2.369,1.895c1.342,0,2.448-1.104,2.448-2.447
		C80.73,167.239,80.335,166.528,79.704,166.056L79.704,166.056z"/>
	<path fill="#AE5F49" d="M86.889,160.37c0.079,0.156,0.079,0.314,0.079,0.474c0,1.185-0.948,2.132-2.053,2.132
		c-0.474,0-0.948-0.158-1.264-0.474c0.237,0.947,1.027,1.658,2.053,1.658c1.105,0,2.053-0.947,2.053-2.132
		C87.758,161.317,87.442,160.687,86.889,160.37L86.889,160.37z"/>
	<path fill="#AE5F49" d="M72.124,164.792c0.079,0.158,0.079,0.314,0.079,0.395c0,0.947-0.71,1.658-1.658,1.658
		c-0.316,0-0.632-0.158-0.947-0.314c0.158,0.71,0.79,1.185,1.579,1.185c0.869,0,1.658-0.711,1.658-1.58
		C72.834,165.581,72.518,165.106,72.124,164.792L72.124,164.792z"/>
	<path fill="#AE5F49" d="M74.887,160.37c0.079,0.156,0.079,0.314,0.079,0.553c0,1.105-0.868,1.975-2.053,1.975
		c-0.395,0-0.869-0.158-1.185-0.396c0.237,0.947,1.026,1.579,1.974,1.579c1.105,0,2.053-0.947,2.053-2.053
		C75.755,161.396,75.439,160.765,74.887,160.37L74.887,160.37z"/>
	<path fill="#AE5F49" d="M102.444,173.558c0,0.078,0.078,0.156,0.078,0.235c0,0.632-0.553,1.185-1.185,1.185
		c-0.237,0-0.474-0.078-0.632-0.235c0.079,0.474,0.553,0.868,1.105,0.868c0.631,0,1.104-0.475,1.104-1.186
		C102.918,174.108,102.76,173.793,102.444,173.558L102.444,173.558z"/>
	<path fill="#AE5F49" d="M96.285,177.662c0.079,0.157,0.079,0.237,0.079,0.396c0,0.789-0.632,1.422-1.421,1.422
		c-0.395,0-0.631-0.08-0.869-0.315c0.158,0.71,0.711,1.104,1.421,1.104c0.79,0,1.421-0.632,1.421-1.422
		C96.917,178.373,96.681,177.979,96.285,177.662L96.285,177.662z"/>
	<path fill="#AE5F49" d="M97.549,173.951c0,0.157,0.079,0.237,0.079,0.396c0,0.789-0.711,1.422-1.5,1.422
		c-0.316,0-0.632-0.08-0.869-0.237c0.158,0.632,0.711,1.104,1.422,1.104c0.789,0,1.5-0.632,1.5-1.5
		C98.181,174.662,97.942,174.267,97.549,173.951L97.549,173.951z"/>
	<path fill="#AE5F49" d="M92.258,176.951c0,0.157,0,0.315,0,0.475c0,0.947-0.79,1.737-1.737,1.737c-0.395,0-0.79-0.079-1.105-0.316
		c0.236,0.791,0.947,1.344,1.737,1.344c1.026,0,1.816-0.791,1.816-1.816C92.969,177.819,92.653,177.269,92.258,176.951
		L92.258,176.951z"/>
	<path fill="#AE5F49" d="M84.046,176.715c0,0.158,0,0.315,0,0.474c0,0.948-0.79,1.816-1.737,1.816c-0.395,0-0.79-0.158-1.105-0.395
		c0.237,0.789,0.948,1.342,1.737,1.342c1.026,0,1.816-0.789,1.816-1.737C84.757,177.584,84.441,177.108,84.046,176.715
		L84.046,176.715z"/>
	<path fill="#AE5F49" d="M89.573,170.556c0.079,0.158,0.079,0.316,0.079,0.396c0,0.947-0.71,1.656-1.658,1.656
		c-0.316,0-0.71-0.077-0.948-0.314c0.158,0.711,0.79,1.264,1.579,1.264c0.947,0,1.658-0.711,1.658-1.658
		C90.284,171.347,90.047,170.872,89.573,170.556L89.573,170.556z"/>
	<path fill="#AE5F49" d="M81.678,171.662c0,0.078,0.079,0.235,0.079,0.394c0,0.869-0.79,1.658-1.658,1.658
		c-0.395,0-0.711-0.156-0.948-0.314c0.158,0.711,0.79,1.185,1.579,1.185c0.869,0,1.658-0.711,1.658-1.579
		C82.388,172.451,82.072,171.978,81.678,171.662L81.678,171.662z"/>
	<path fill="#AE5F49" d="M74.729,172.293c0,0.158,0,0.315,0,0.396c0,0.947-0.71,1.658-1.658,1.658c-0.316,0-0.632-0.08-0.947-0.315
		c0.158,0.711,0.869,1.264,1.579,1.264c0.948,0,1.658-0.711,1.658-1.657C75.361,173.083,75.124,172.608,74.729,172.293
		L74.729,172.293z"/>
	<path fill="#AE5F49" d="M84.204,168.108c0,0.158,0.079,0.235,0.079,0.314c0,0.711-0.553,1.186-1.264,1.186
		c-0.236,0-0.474-0.08-0.631-0.237c0.079,0.553,0.553,0.948,1.105,0.948c0.71,0,1.264-0.553,1.264-1.186
		C84.757,168.74,84.52,168.345,84.204,168.108L84.204,168.108z"/>
	<path fill="#AE5F49" d="M113.42,174.03c0.079,0.158,0.079,0.314,0.079,0.474c0,1.026-0.868,1.896-1.975,1.896
		c-0.396,0-0.789-0.157-1.104-0.396c0.236,0.869,0.947,1.501,1.896,1.501c1.025,0,1.896-0.869,1.896-1.975
		C114.21,174.897,113.894,174.347,113.42,174.03L113.42,174.03z"/>
	<path fill="#AE5F49" d="M105.761,175.925c0,0.158,0,0.316,0,0.475c0,1.105-0.869,1.975-1.896,1.975
		c-0.396,0-0.789-0.158-1.105-0.395c0.158,0.867,0.948,1.5,1.816,1.5c1.104,0,1.974-0.869,1.974-1.975
		C106.55,176.873,106.233,176.319,105.761,175.925L105.761,175.925z"/>
	<path fill="#AE5F49" d="M118,169.847c0,0.156,0,0.314,0,0.473c0,1.186-0.948,2.212-2.132,2.212c-0.475,0-0.948-0.158-1.264-0.476
		c0.235,0.948,1.104,1.658,2.053,1.658c1.264,0,2.211-0.947,2.211-2.131C118.868,170.872,118.474,170.24,118,169.847L118,169.847z"
		/>
	<path fill="#AE5F49" d="M117.921,159.422c0,0.079,0.079,0.237,0.079,0.315c0,0.789-0.632,1.422-1.501,1.422
		c-0.314,0-0.553-0.079-0.789-0.236c0.158,0.633,0.711,1.105,1.342,1.105c0.79,0,1.502-0.633,1.502-1.502
		C118.554,160.054,118.315,159.659,117.921,159.422L117.921,159.422z"/>
	<path fill="#AE5F49" d="M115.71,162.976c0,0.08,0.079,0.237,0.079,0.396c0,0.948-0.79,1.657-1.737,1.657
		c-0.395,0-0.711-0.077-1.025-0.314c0.236,0.79,0.867,1.344,1.658,1.344c0.946,0,1.736-0.791,1.736-1.738
		C116.421,163.767,116.104,163.291,115.71,162.976L115.71,162.976z"/>
	<path fill="#AE5F49" d="M114.999,151.921c0,0.079,0.079,0.158,0.079,0.316c0,0.632-0.554,1.185-1.265,1.185
		c-0.235,0-0.474-0.079-0.709-0.237c0.156,0.553,0.631,0.947,1.184,0.947c0.711,0,1.264-0.553,1.264-1.263
		C115.552,152.474,115.315,152.158,114.999,151.921L114.999,151.921z"/>
	<path fill="#AE5F49" d="M112.552,155.554c0,0.078,0,0.236,0,0.315c0,0.869-0.632,1.5-1.501,1.5c-0.315,0-0.631-0.078-0.868-0.315
		c0.158,0.711,0.711,1.186,1.422,1.186c0.869,0,1.5-0.711,1.5-1.5C113.104,156.187,112.867,155.79,112.552,155.554L112.552,155.554z
		"/>
	<path fill="#AE5F49" d="M108.604,164.95c0,0.078,0.078,0.156,0.078,0.314c0,0.633-0.554,1.186-1.264,1.186
		c-0.236,0-0.475-0.079-0.711-0.237c0.158,0.554,0.632,0.948,1.186,0.948c0.631,0,1.185-0.553,1.185-1.264
		C109.077,165.503,108.919,165.187,108.604,164.95L108.604,164.95z"/>
	<path fill="#AE5F49" d="M101.812,162.028c0,0.078,0,0.156,0,0.236c0,0.711-0.553,1.264-1.185,1.264
		c-0.235,0-0.474-0.158-0.71-0.237c0.157,0.476,0.631,0.869,1.184,0.869c0.633,0,1.186-0.554,1.186-1.185
		C102.286,162.581,102.05,162.187,101.812,162.028L101.812,162.028z"/>
	<path fill="#AE5F49" d="M90.047,156.976c0,0.157,0,0.236,0,0.395c0,0.869-0.71,1.579-1.579,1.579c-0.316,0-0.71-0.079-0.947-0.315
		c0.158,0.711,0.79,1.264,1.579,1.264c0.868,0,1.579-0.711,1.579-1.657C90.679,157.765,90.442,157.291,90.047,156.976
		L90.047,156.976z"/>
	<path fill="#AE5F49" d="M80.967,158.633c0,0.079,0,0.158,0,0.236c0,0.632-0.474,1.026-1.026,1.026
		c-0.237,0-0.395-0.078-0.553-0.158c0.079,0.396,0.474,0.789,0.947,0.789c0.553,0,1.027-0.474,1.027-1.025
		C81.362,159.106,81.204,158.869,80.967,158.633L80.967,158.633z"/>
	<path fill="#AE5F49" d="M81.835,142.209c0,0.079,0.079,0.158,0.079,0.235c0,0.555-0.474,1.027-1.027,1.027
		c-0.236,0-0.474-0.078-0.631-0.236c0.158,0.474,0.474,0.789,0.947,0.789c0.632,0,1.027-0.474,1.027-1.025
		C82.23,142.683,82.072,142.367,81.835,142.209L81.835,142.209z"/>
	<path fill="#AE5F49" d="M88.39,131.075c0.079,0.078,0.079,0.236,0.079,0.316c0,0.709-0.553,1.262-1.263,1.262
		c-0.237,0-0.474-0.157-0.711-0.235c0.158,0.554,0.632,0.947,1.185,0.947c0.711,0,1.264-0.554,1.264-1.265
		C88.942,131.707,88.705,131.312,88.39,131.075L88.39,131.075z"/>
	<path fill="#AE5F49" d="M81.993,131.628c0,0.158,0,0.316,0,0.395c0,0.869-0.631,1.502-1.5,1.502c-0.316,0-0.632-0.08-0.869-0.237
		c0.158,0.632,0.71,1.104,1.421,1.104c0.869,0,1.579-0.632,1.579-1.5C82.625,132.418,82.388,131.944,81.993,131.628L81.993,131.628z
		"/>
	<path fill="#AE5F49" d="M78.203,137.629c0.079,0.158,0.079,0.315,0.079,0.396c0,0.947-0.79,1.736-1.737,1.736
		c-0.316,0-0.711-0.156-0.947-0.314c0.158,0.711,0.789,1.264,1.579,1.264c0.948,0,1.737-0.79,1.737-1.736
		C78.914,138.419,78.677,137.944,78.203,137.629L78.203,137.629z"/>
	<path fill="#AE5F49" d="M76.15,134.786c0,0.158,0.079,0.236,0.079,0.396c0,0.946-0.79,1.736-1.737,1.736
		c-0.395,0-0.71-0.158-1.026-0.316c0.237,0.711,0.869,1.265,1.658,1.265c0.947,0,1.737-0.79,1.737-1.737
		C76.861,135.576,76.545,135.103,76.15,134.786L76.15,134.786z"/>
	<path fill="#AE5F49" d="M79.229,127.442c0.079,0.236,0.158,0.396,0.158,0.633c0,1.421-1.185,2.525-2.606,2.525
		c-0.553,0-1.026-0.156-1.5-0.474c0.316,1.104,1.263,1.974,2.448,1.974c1.421,0,2.605-1.185,2.605-2.604
		C80.335,128.707,79.861,127.917,79.229,127.442L79.229,127.442z"/>
	<path fill="#AE5F49" d="M84.678,136.208c0,0.158,0.079,0.395,0.079,0.553c0,1.264-1.027,2.29-2.369,2.29
		c-0.474,0-0.948-0.157-1.342-0.396c0.237,0.947,1.185,1.736,2.211,1.736c1.342,0,2.369-1.025,2.369-2.289
		C85.625,137.313,85.231,136.603,84.678,136.208L84.678,136.208z"/>
	<path fill="#AE5F49" d="M86.257,124.916c0.079,0.237,0.079,0.396,0.079,0.553c0,1.343-1.026,2.369-2.29,2.369
		c-0.553,0-1.027-0.235-1.342-0.474c0.237,1.025,1.105,1.736,2.211,1.736c1.263,0,2.29-1.025,2.29-2.289
		C87.205,126.021,86.81,125.392,86.257,124.916L86.257,124.916z"/>
	<path fill="#AE5F49" d="M103.392,138.972c0.08,0.158,0.08,0.315,0.08,0.553c0,1.343-1.105,2.447-2.447,2.447
		c-0.553,0-1.026-0.156-1.422-0.474c0.236,1.026,1.185,1.815,2.369,1.815c1.342,0,2.446-1.025,2.446-2.447
		C104.418,140.077,104.022,139.366,103.392,138.972L103.392,138.972z"/>
	<path fill="#AE5F49" d="M90.758,136.522c0,0.08,0,0.237,0,0.396c0,0.868-0.71,1.579-1.579,1.579c-0.395,0-0.71-0.079-0.947-0.315
		c0.158,0.711,0.79,1.264,1.579,1.264c0.868,0,1.579-0.711,1.579-1.658C91.39,137.233,91.153,136.761,90.758,136.522L90.758,136.522
		z"/>
	<path fill="#AE5F49" d="M97.786,131.944c0.078,0.156,0.078,0.314,0.078,0.395c0,0.947-0.711,1.658-1.658,1.658
		c-0.315,0-0.631-0.158-0.947-0.316c0.237,0.711,0.869,1.264,1.579,1.264c0.948,0,1.658-0.789,1.658-1.657
		C98.496,132.733,98.26,132.26,97.786,131.944L97.786,131.944z"/>
	<path fill="#AE5F49" d="M106.944,126.338c0,0.158,0.08,0.315,0.08,0.474c0,1.105-0.869,2.054-1.976,2.054
		c-0.474,0-0.868-0.157-1.185-0.396c0.236,0.868,0.947,1.502,1.896,1.502c1.105,0,1.974-0.949,1.974-1.976
		C107.733,127.285,107.419,126.731,106.944,126.338L106.944,126.338z"/>
	<path fill="#AE5F49" d="M100.786,125.074c0,0.079,0.079,0.237,0.079,0.395c0,0.948-0.79,1.658-1.658,1.658
		c-0.396,0-0.711-0.157-1.026-0.315c0.158,0.711,0.868,1.265,1.579,1.265c0.947,0,1.658-0.79,1.658-1.658
		C101.418,125.864,101.181,125.392,100.786,125.074L100.786,125.074z"/>
	<path fill="#AE5F49" d="M94.153,126.259c0,0.079,0,0.237,0,0.395c0,0.869-0.71,1.658-1.658,1.658c-0.316,0-0.632-0.156-0.948-0.314
		c0.158,0.711,0.869,1.186,1.58,1.186c0.947,0,1.658-0.711,1.658-1.58C94.785,127.049,94.548,126.574,94.153,126.259L94.153,126.259
		z"/>
	<path fill="#AE5F49" d="M87.679,121.601c0.079,0.157,0.079,0.236,0.079,0.396c0,0.946-0.711,1.657-1.659,1.657
		c-0.315,0-0.71-0.078-0.947-0.315c0.158,0.711,0.79,1.265,1.579,1.265c0.948,0,1.659-0.789,1.659-1.658
		C88.39,122.39,88.152,121.916,87.679,121.601L87.679,121.601z"/>
	<path fill="#AE5F49" d="M96.048,138.183c0.079,0.315,0.158,0.711,0.158,1.025c0,2.448-1.974,4.423-4.421,4.423
		c-0.948,0-1.816-0.396-2.527-0.868c0.474,1.895,2.132,3.315,4.185,3.315c2.448,0,4.343-1.974,4.343-4.422
		C97.786,140.235,97.075,138.972,96.048,138.183L96.048,138.183z"/>
	<path fill="#AE5F49" d="M114.92,131.075c0.079,0.316,0.158,0.553,0.158,0.79c0,1.815-1.5,3.315-3.315,3.315
		c-0.712,0-1.343-0.236-1.896-0.632c0.315,1.421,1.579,2.448,3.157,2.448c1.815,0,3.238-1.422,3.238-3.238
		C116.263,132.653,115.789,131.707,114.92,131.075L114.92,131.075z"/>
	<path fill="#AE5F49" d="M97.075,118.679c0,0.157,0.078,0.396,0.078,0.631c0,1.502-1.185,2.687-2.685,2.687
		c-0.632,0-1.185-0.158-1.579-0.554c0.237,1.186,1.342,2.054,2.605,2.054c1.421,0,2.686-1.185,2.686-2.685
		C98.181,119.94,97.707,119.151,97.075,118.679L97.075,118.679z"/>
	<path fill="#AE5F49" d="M103.708,120.021c0.078,0.237,0.078,0.475,0.078,0.711c0,1.5-1.184,2.686-2.686,2.686
		c-0.631,0-1.104-0.236-1.578-0.553c0.315,1.185,1.343,2.053,2.605,2.053c1.5,0,2.686-1.184,2.686-2.686
		C104.813,121.362,104.339,120.573,103.708,120.021L103.708,120.021z"/>
	<path fill="#AE5F49" d="M111.13,122.706c0.079,0.156,0.079,0.314,0.079,0.475c0,1.185-0.946,2.211-2.132,2.211
		c-0.475,0-0.948-0.158-1.264-0.476c0.236,0.948,1.025,1.658,2.054,1.658c1.184,0,2.132-0.947,2.132-2.132
		C111.999,123.731,111.683,123.101,111.13,122.706L111.13,122.706z"/>
	<path fill="#AE5F49" d="M116.342,120.415c0,0.158,0.079,0.396,0.079,0.553c0,1.422-1.105,2.527-2.527,2.527
		c-0.553,0-1.025-0.236-1.42-0.475c0.235,1.026,1.185,1.896,2.367,1.896c1.344,0,2.527-1.185,2.527-2.526
		C117.368,121.601,116.896,120.812,116.342,120.415L116.342,120.415z"/>
	<path fill="#AE5F49" d="M105.84,114.099c0,0.158,0.079,0.237,0.079,0.396c0,0.79-0.711,1.501-1.501,1.501
		c-0.396,0-0.71-0.158-0.946-0.316c0.157,0.633,0.789,1.106,1.5,1.106c0.789,0,1.5-0.632,1.5-1.501
		C106.472,114.81,106.233,114.415,105.84,114.099L105.84,114.099z"/>
	<path fill="#AE5F49" d="M98.417,113.94c0,0.078,0.079,0.158,0.079,0.315c0,0.554-0.474,1.026-1.104,1.026
		c-0.236,0-0.475-0.079-0.633-0.158c0.079,0.475,0.553,0.79,1.027,0.79c0.631,0,1.105-0.474,1.105-1.104
		C98.892,114.493,98.733,114.178,98.417,113.94L98.417,113.94z"/>
	<path fill="#AE5F49" d="M89.495,117.021c0,0.08,0.079,0.157,0.079,0.236c0,0.633-0.552,1.105-1.105,1.105
		c-0.237,0-0.474-0.079-0.631-0.236c0.079,0.553,0.553,0.868,1.026,0.868c0.631,0,1.105-0.474,1.105-1.104
		C89.968,117.573,89.731,117.257,89.495,117.021L89.495,117.021z"/>
	<path fill="#AE5F49" d="M81.835,121.837c0,0.079,0,0.158,0,0.237c0,0.632-0.474,1.104-1.105,1.104
		c-0.237,0-0.395-0.078-0.631-0.236c0.158,0.474,0.553,0.869,1.105,0.869c0.553,0,1.027-0.476,1.027-1.105
		C82.23,122.312,82.072,122.074,81.835,121.837L81.835,121.837z"/>
	<path fill="#AE5F49" d="M73.939,124.127c0.079,0.079,0.079,0.158,0.079,0.315c0,0.632-0.474,1.104-1.105,1.104
		c-0.316,0-0.474-0.079-0.711-0.235c0.158,0.474,0.553,0.867,1.105,0.867c0.632,0,1.105-0.474,1.105-1.104
		C74.413,124.681,74.255,124.364,73.939,124.127L73.939,124.127z"/>
	<path fill="#AE5F49" d="M73.15,112.678c0,0.157,0,0.236,0,0.315c0,0.632-0.474,1.105-1.105,1.105c-0.237,0-0.474-0.08-0.632-0.236
		c0.079,0.553,0.553,0.867,1.026,0.867c0.632,0,1.185-0.474,1.185-1.104C73.624,113.229,73.387,112.914,73.15,112.678L73.15,112.678
		z"/>
	<path fill="#AE5F49" d="M80.888,82.278c0.079,0.158,0.079,0.236,0.079,0.395c0,0.947-0.79,1.737-1.737,1.737
		c-0.395,0-0.71-0.158-1.026-0.316c0.237,0.71,0.869,1.263,1.658,1.263c0.948,0,1.737-0.71,1.737-1.737
		C81.599,83.067,81.362,82.593,80.888,82.278L80.888,82.278z"/>
	<path fill="#AE5F49" d="M84.757,83.225c0,0.158,0.079,0.237,0.079,0.316c0,0.79-0.632,1.342-1.342,1.342
		c-0.316,0-0.553-0.079-0.79-0.237c0.158,0.553,0.632,1.026,1.263,1.026c0.79,0,1.343-0.632,1.343-1.342
		C85.31,83.857,85.073,83.462,84.757,83.225L84.757,83.225z"/>
	<path fill="#AE5F49" d="M88.468,80.146c0,0.158,0.079,0.237,0.079,0.316c0,0.79-0.632,1.342-1.342,1.342
		c-0.316,0-0.553-0.079-0.79-0.237c0.158,0.553,0.631,1.026,1.263,1.026c0.79,0,1.342-0.632,1.342-1.342
		C89.021,80.777,88.784,80.461,88.468,80.146L88.468,80.146z"/>
	<path fill="#AE5F49" d="M89.573,76.75c0.079,0.079,0.079,0.158,0.079,0.316c0,0.71-0.631,1.342-1.342,1.342
		c-0.316,0-0.553-0.158-0.79-0.315c0.158,0.631,0.631,1.026,1.263,1.026c0.789,0,1.342-0.553,1.342-1.343
		C90.126,77.382,89.968,76.987,89.573,76.75L89.573,76.75z"/>
	<path fill="#AE5F49" d="M89.573,51.956c0,0.158,0,0.237,0,0.395c0,0.948-0.71,1.737-1.658,1.737c-0.395,0-0.71-0.158-1.026-0.395
		c0.237,0.79,0.869,1.342,1.658,1.342c0.947,0,1.658-0.789,1.658-1.737C90.205,52.746,89.968,52.272,89.573,51.956L89.573,51.956z"
		/>
	<path fill="#AE5F49" d="M100.549,48.008c0,0.158,0,0.315,0,0.474c0,0.869-0.71,1.658-1.657,1.658c-0.396,0-0.711-0.158-1.026-0.316
		c0.237,0.711,0.868,1.264,1.657,1.264c0.949,0,1.658-0.79,1.658-1.658C101.181,48.798,100.944,48.324,100.549,48.008
		L100.549,48.008z"/>
	<path fill="#AE5F49" d="M99.918,19.503c0,0.158,0,0.316,0,0.474c0,1.026-0.79,1.816-1.737,1.816c-0.395,0-0.789-0.158-1.104-0.395
		c0.235,0.79,0.868,1.421,1.737,1.421c1.025,0,1.814-0.869,1.814-1.816C100.628,20.372,100.312,19.898,99.918,19.503L99.918,19.503z
		"/>
	<path fill="#AE5F49" d="M86.968,20.767c0.079,0.079,0.079,0.237,0.079,0.395c0,0.948-0.79,1.737-1.737,1.737
		c-0.395,0-0.711-0.158-1.027-0.315c0.237,0.71,0.869,1.263,1.658,1.263c1.027,0,1.737-0.79,1.737-1.737
		C87.679,21.557,87.442,21.083,86.968,20.767L86.968,20.767z"/>
	<path fill="#AE5F49" d="M105.208,20.135c0,0.158,0.079,0.316,0.079,0.552c0,1.185-1.026,2.132-2.211,2.132
		c-0.474,0-0.947-0.158-1.265-0.395c0.237,0.948,1.026,1.658,2.054,1.658c1.264,0,2.211-0.947,2.211-2.211
		C106.076,21.162,105.761,20.53,105.208,20.135L105.208,20.135z"/>
	<path fill="#AE5F49" d="M98.892,24.636c0.078,0.237,0.078,0.396,0.078,0.632c0,1.263-1.025,2.369-2.368,2.369
		c-0.553,0-1.027-0.158-1.422-0.474c0.316,1.026,1.185,1.816,2.369,1.816c1.265,0,2.369-1.105,2.369-2.369
		C99.918,25.82,99.522,25.109,98.892,24.636L98.892,24.636z"/>
	<path fill="#AE5F49" d="M93.996,28.742c0.079,0.237,0.079,0.395,0.079,0.631c0,1.263-1.026,2.369-2.369,2.369
		c-0.553,0-1.027-0.158-1.421-0.474c0.237,1.026,1.185,1.816,2.29,1.816c1.342,0,2.448-1.105,2.448-2.369
		C95.022,29.926,94.627,29.216,93.996,28.742L93.996,28.742z"/>
	<path fill="#AE5F49" d="M104.655,44.14c0.078,0.158,0.078,0.395,0.078,0.553c0,1.342-1.104,2.447-2.368,2.447
		c-0.554,0-1.026-0.237-1.421-0.474c0.236,1.027,1.185,1.816,2.289,1.816c1.343,0,2.369-1.105,2.369-2.448
		C105.603,45.245,105.287,44.534,104.655,44.14L104.655,44.14z"/>
	<path fill="#AE5F49" d="M107.024,51.877c0.078,0.158,0.078,0.316,0.078,0.553c0,1.263-1.026,2.29-2.289,2.29
		c-0.476,0-0.948-0.158-1.344-0.474c0.237,1.026,1.186,1.737,2.211,1.737c1.264,0,2.291-1.026,2.291-2.29
		C107.972,52.983,107.655,52.272,107.024,51.877L107.024,51.877z"/>
	<path fill="#AE5F49" d="M91.942,37.428c0.079,0.236,0.158,0.474,0.158,0.71c0,1.579-1.342,2.922-3,2.922
		c-0.632,0-1.185-0.237-1.658-0.553c0.316,1.263,1.421,2.211,2.763,2.211c1.658,0,3-1.343,3-2.922
		C93.206,38.77,92.732,37.901,91.942,37.428L91.942,37.428z"/>
	<path fill="#AE5F49" d="M86.968,27.399c0.079,0.237,0.079,0.395,0.079,0.632c0,1.264-1.026,2.369-2.369,2.369
		c-0.553,0-1.027-0.158-1.421-0.474c0.237,1.027,1.185,1.816,2.29,1.816c1.343,0,2.448-1.105,2.448-2.369
		C87.995,28.584,87.6,27.874,86.968,27.399L86.968,27.399z"/>
	<path fill="#FFFFFF" d="M103.701,95.42c1.418-0.138,3.093-0.02,4.61-0.059c-1.078,1.503-2.64,3.037-3.871,4.582
		c0.516,0.931,1.1,1.935,1.771,2.927c0.807,1.188,1.499,2.825,3.398,2.778c-1.102-1.002-1.521-2.941-1.328-4.817
		c0.359-3.513,3.256-5.708,7.301-5.351c1.729,0.153,4.098,1.182,3.635,3.399c-0.562,2.705-3.912,3.253-6.887,3.637
		c0.211,1.004,0.615,1.965,1.301,2.541c1.762,1.484,4.541-0.296,5.676-1.123c-0.674,3.151-5.541,4.822-8.482,2.571
		c-0.926,0.403-1.768,0.837-2.957,0.916c-3.579,0.24-4.482-3.125-5.852-5.202c-0.859,0.905-0.322,3.61-0.475,5.223
		c-1.211,0-2.424,0-3.635,0c-0.016-3.471,0.148-14.125-0.178-15.094c-0.201-0.594-0.962-0.758-1.418-1.124
		c1.645-0.138,3.545-0.02,5.292-0.059c0,3.202,0,6.404,0,9.605c0.52-0.582,1.054-1.203,1.744-2.068
		c0.404-0.508,1.492-1.559,1.506-2.099C104.87,95.989,104.011,95.822,103.701,95.42L103.701,95.42z M115.702,98.819
		c0-1.068-0.352-2.395-1.508-2.395c-1.793,0-2.002,3.249-2.129,5.024C113.741,101.188,115.702,100.914,115.702,98.819
		L115.702,98.819z"/>
	<path fill="#FFFFFF" d="M84.725,91.341c-0.112,1.563-0.152,3.198-0.385,4.641c-0.745-2.052-2.157-3.938-4.582-4.198
		c-3.248-0.348-4.339,3.069-4.67,5.882c-0.334,2.84,0.324,6.464,2.158,7.565c2.873,1.729,6.318-0.43,7.212-2.481
		c-0.776-4.627,2.38-7.547,6.828-7.301c3.533,0.196,6.361,2.606,5.854,6.769c-0.423,3.447-3.626,5.775-7.687,5.145
		c-2.139-0.334-3.646-1.346-4.493-3.104c-1.487,2.201-3.719,3.416-7.301,3.281c-4.353-0.163-7.286-3.958-7.094-8.778
		c0.068-1.701,0.563-2.89,1.242-4.05c1.201-2.054,3.334-4.15,6.384-4.197C80.731,90.475,82.624,90.902,84.725,91.341L84.725,91.341z
		 M89.632,96.78c-1.529,1.343-1.741,6.57-0.592,8.631c0.392,0.699,1.109,1.454,2.158,1.152c1.567-0.449,1.896-2.736,1.951-4.699
		c0.07-2.521-0.286-5.105-2.039-5.498C90.483,96.227,89.944,96.506,89.632,96.78L89.632,96.78z"/>
	<path fill="#D1D3D4" d="M122.783,104.115c-0.681,0-1.214,0.249-1.65,0.729c-0.483,0.474-0.702,1.03-0.702,1.685
		c0,0.687,0.219,1.248,0.728,1.738c0.411,0.479,0.971,0.698,1.626,0.698c0.699,0,1.236-0.219,1.646-0.698
		c0.484-0.5,0.728-1.053,0.728-1.738c0-0.653-0.242-1.211-0.728-1.685C124.021,104.364,123.483,104.115,122.783,104.115
		L122.783,104.115z M125.666,106.528c0,0.85-0.291,1.533-0.824,2.091c-0.557,0.552-1.235,0.823-2.059,0.823
		c-0.802,0-1.479-0.271-2.036-0.836c-0.51-0.558-0.801-1.241-0.801-2.078c0-0.836,0.338-1.559,0.848-2.114
		c0.584-0.539,1.237-0.8,1.989-0.8c0.823,0,1.502,0.297,2.059,0.854C125.375,105.039,125.666,105.729,125.666,106.528
		L125.666,106.528z M123.313,105.923c0-0.182-0.096-0.277-0.239-0.37c-0.171-0.024-0.291-0.062-0.462-0.062h-0.242v0.939h0.34
		c0.145,0,0.364-0.029,0.484-0.119C123.243,106.237,123.313,106.108,123.313,105.923L123.313,105.923z M121.569,108.165v-3.242
		c0.193,0,0.438,0.014,0.849,0.014c0.39,0,0.656,0,0.681,0c0.241,0.011,0.461,0.059,0.631,0.174c0.291,0.14,0.41,0.406,0.41,0.765
		c0,0.261-0.097,0.449-0.216,0.581c-0.173,0.116-0.317,0.2-0.562,0.213c0.195,0.049,0.365,0.127,0.438,0.199
		c0.221,0.146,0.292,0.395,0.292,0.722v0.291c0,0.019,0,0.066,0,0.097c0,0.024,0.023,0.049,0.023,0.099l0.024,0.091h-0.777
		c-0.022-0.104-0.049-0.279-0.049-0.455c-0.021-0.181-0.049-0.327-0.07-0.382c-0.049-0.114-0.1-0.206-0.242-0.267
		c-0.072-0.014-0.146-0.024-0.291-0.037l-0.098-0.012h-0.242v1.151L121.569,108.165L121.569,108.165z"/>
</g>
</svg>
