<?xml version="1.0" encoding="utf-8"?>
<!-- Generator: Adobe Illustrator 16.0.0, SVG Export Plug-In . SVG Version: 6.00 Build 0)  -->
<!DOCTYPE svg PUBLIC "-//W3C//DTD SVG 1.1//EN" "http://www.w3.org/Graphics/SVG/1.1/DTD/svg11.dtd">
<svg version="1.1" id="Layer_1" xmlns="http://www.w3.org/2000/svg" xmlns:xlink="http://www.w3.org/1999/xlink" x="0px" y="0px"
	 width="175.751px" height="132.346px" viewBox="312.504 233.204 175.751 132.346"
	 enable-background="new 312.504 233.204 175.751 132.346" xml:space="preserve">
<g>
	<path fill="#1D1D1B" d="M412.479,266.353c0.632,0.721,1.262,1.171,1.621,1.352c-0.989,4.235-3.242,8.289-5.045,10.091
		C408.154,274.461,411.488,267.614,412.479,266.353L412.479,266.353z M380.495,276.804c0.811,0.901,1.261,1.081,1.622,1.261
		c-0.901,3.784-2.703,8.649-4.865,10.722C376.53,285.724,379.053,278.786,380.495,276.804L380.495,276.804z M356.258,259.325
		c0.991-1.262,2.434-2.883,4.146-2.883c0.541,1.712-0.091,7.028-3.964,11.082c-0.271-1.622,0.541-3.694,1.352-4.955L356.258,259.325
		L356.258,259.325z M344.726,279.597c2.072,6.757,8.289,8.289,15.047,5.856c-0.091,0.36-0.36,2.793-0.36,3.153
		c-6.037,9.911-13.154,13.785-16.848,14.055C340.761,299.419,341.482,286.895,344.726,279.597L344.726,279.597z M361.394,338.973
		c-0.359,0.18-6.847,3.062-7.838,3.514c0.36-1.441,5.137-21.533,5.137-21.533l-1.893-1.982c1.532-1.172,2.974-2.521,4.415-4.055
		c1.712-1.621,4.055-4.505,5.406-6.307c1.532,1.44,3.423,2.343,5.406,2.793l-4.325,1.802
		C367.701,313.203,361.574,338.432,361.394,338.973L361.394,338.973z M385.27,310.141l-1.352-1.352
		c2.252-1.352,4.415-3.334,6.307-5.768c1.803-2.071,3.694-5.226,5.137-8.918c1.802,3.243,4.595,5.316,8.198,6.036l-4.145,1.261
		C394.46,303.021,388.153,307.348,385.27,310.141L385.27,310.141z M430.499,304.193c0.271-1.262,2.072-8.739,2.072-8.739
		l-2.975-3.154l-9.279,2.793c2.253-2.342,4.324-5.496,6.127-9.46c1.531,4.685,4.955,6.577,8.379,7.027
		c-0.722,3.244-2.522,10.632-2.612,11.082C431.94,303.833,431.13,304.014,430.499,304.193L430.499,304.193z M447.978,288.156
		c2.072-1.802,3.966-4.234,5.496-7.478c1.263,2.343,3.063,4.145,5.496,5.136L447.978,288.156L447.978,288.156z M485.369,260.046
		c-1.262-0.271-3.154-0.541-5.227-0.271c-0.181-1.171-1.352-6.577-1.531-7.929c-0.36-2.613-1.081-6.757,2.253-9.641l-2.523-3.874
		l-5.586-4.234c-1.802-1.262-3.964-1.171-5.586,0.18c-5.136,4.415-9.911,10.722-14.506,17.479c-0.271-0.36-0.09-2.883-4.775-6.487
		c-0.9-0.811-5.314-4.145-8.289-6.216c-1.621-1.442-5.314-1.802-7.116,1.441c-0.451,0.901-6.669,10.181-8.199,11.442
		c-2.975-3.153-7.027-3.694-10.001-3.604c-8.199,0.18-14.776,7.298-18.109,13.334c-0.541,0.451-1.712,1.262-2.883,1.982
		c-2.342-3.333-5.586-5.046-9.821-5.226c-2.613-0.09-5.406,0.721-8.199,2.162c-0.271-2.793-1.082-18.921-17.75-18.56
		c-11.262,0.18-20.812,10.091-26.669,18.02c-0.541-0.631-1.352-1.352-2.522-2.072c-2.793-1.532-6.397-1.712-9.55-0.36
		c-6.397,2.522-7.208,8.83-5.496,13.424c1.352,3.784,4.685,6.127,7.567,6.938c-1.352,4.055-2.973,10.632-3.333,15.317
		c-0.09,1.352-0.18,2.703-0.18,4.054c0.09,16.488,6.847,22.255,10.361,24.777c3.784,2.793,8.198,4.146,12.884,3.874l-8.199,37.121
		l2.974,2.433c24.957-11.623,40.905-17.479,40.905-17.479s2.434-8.828,2.703-10.09c4.055,6.396,12.253,4.774,16.038,3.514
		l28.651-8.739c0,0,2.974-12.163,3.062-12.704c0.271-0.09,1.081-0.359,1.712-0.449c-0.271,1.17-1.981,8.469-1.981,8.469l2.974,3.152
		l14.325-3.604c0,0,5.945-24.777,6.036-25.317c0.631-0.181,2.253-0.541,2.703-0.631c-0.36,1.353-4.774,21.083-4.774,21.083
		l2.973,3.243l14.326-3.062c0,0,5.946-24.508,6.126-25.048c0.361-0.09,7.929-1.442,7.929-1.442l2.793-11.442l-2.973-3.424
		l-3.334,0.721c1.532-1.532,2.434-3.063,2.975-4.055c0.721-0.721,1.98-1.802,5.495-1.712l4.234-12.163L485.369,260.046
		L485.369,260.046z"/>
	<path fill="#1D1D1B" d="M468.7,322.754c0.991,0,1.893-0.9,1.893-1.893c0-1.082-0.9-1.981-1.893-1.981
		c-1.081,0-1.981,0.899-1.981,1.981C466.719,321.854,467.619,322.754,468.7,322.754L468.7,322.754z M469.151,321.042
		c0.359-0.09,0.54-0.181,0.54-0.631c0-0.181-0.091-0.36-0.271-0.54c-0.09-0.092-0.359-0.092-0.54-0.092h-0.991v2.072h0.36v-0.811
		h0.45l0.451,0.811h0.449L469.151,321.042L469.151,321.042z M468.25,320.682v-0.541h0.541c0.18,0,0.45,0,0.45,0.271
		s-0.09,0.271-0.36,0.271h-0.631V320.682z M468.7,322.395c-0.9,0-1.621-0.722-1.621-1.533c0-0.899,0.721-1.62,1.621-1.62
		c0.812,0,1.532,0.721,1.532,1.62C470.232,321.673,469.512,322.395,468.7,322.395L468.7,322.395z"/>
	<path fill="#CECECE" d="M389.504,325.188c0-6.758,4.775-13.064,10.902-14.867c4.233-1.262,12.072-3.783,12.072-3.783l1.893-8.019
		c0,0-9.82,2.973-14.687,4.505c-6.127,1.981-21.894,11.803-21.894,27.479c0,8.109,7.568,8.74,14.416,6.487
		c5.406-1.802,14.235-4.595,14.235-4.595l4.864-20.994l-16.127,5.137l3.964,1.802l-2.252,9.642
		C395.451,328.521,389.504,331.402,389.504,325.188L389.504,325.188z"/>
	<polygon fill="#CECECE" points="347.338,347.352 354.006,320.592 342.473,325.729 334.455,360.596 358.961,349.693 
		361.034,341.044 	"/>
	<polygon fill="#CECECE" points="368.962,314.375 360.943,348.973 372.476,344.107 380.405,309.6 	"/>
	<polygon fill="#CECECE" points="436.445,292.481 433.382,305.365 424.732,307.708 427.886,294.734 416.443,297.887 
		408.425,331.764 419.867,328.43 422.841,315.636 431.67,312.934 428.517,325.997 439.869,323.114 447.888,289.688 	"/>
	<path fill="#CECECE" d="M449.779,289.238l-1.893,8.019c0,0,6.036-1.352,7.93-1.711c-0.632,2.883-0.632,2.883-6.037,25.228
		l11.442-2.522c0,0,5.677-23.515,6.036-25.047c1.172-0.27,7.93-1.441,7.93-1.441l1.981-7.929L449.779,289.238L449.779,289.238z"/>
	<polygon fill="#F6F4F2" points="357.339,348.342 358.331,344.377 361.034,341.044 347.338,347.352 344.636,350.686 
		351.303,323.835 354.006,320.592 342.473,325.729 334.455,360.596 337.067,357.441 	"/>
	<polygon fill="#F6F4F2" points="370.854,342.756 377.792,312.753 380.405,309.6 368.962,314.375 360.943,348.973 363.556,345.818 	
		"/>
	<path fill="#F6F4F2" d="M433.382,305.365l-8.648,2.343l-2.522,2.612l3.153-12.974l2.521-2.612l-11.441,3.153l-8.02,33.876
		l2.612-2.703l7.208-2.162l3.062-12.705l12.704-3.424l-2.343,2.164c-0.54,2.611-3.153,13.062-3.153,13.062l11.354-2.883
		l8.019-33.426l-8.019,33.426l-11.354,2.883l2.522-2.521l7.298-1.893l7.028-29.372l2.521-2.523l-11.441,2.793L433.382,305.365
		L433.382,305.365z"/>
	<path fill="#F6F4F2" d="M459.69,316.717l6.036-25.137l8.02-1.441l0.9-3.964l2.522-2.343l-27.391,5.406l-1.893,8.019l1.982-2.522
		l7.117-1.622l-1.171,2.433c-0.632,2.883-0.632,2.883-6.037,25.228l2.522-2.434L459.69,316.717L459.69,316.717z"/>
	<path fill="#F6F4F2" d="M399.145,318.339l-2.252,9.642c0,0-0.09,0.09-0.271,0.09c-0.541,0.271-1.531,0.631-2.522,0.812l0,0
		c-1.082,0.36-1.981,0.45-3.152,0.45c-1.353,0-3.244-1.262-3.244-4.145c0-7.39,5.226-14.597,12.163-16.668
		c3.244-0.901,11.082-3.424,11.082-3.424l0.9-3.875l2.522-2.703c0,0-9.82,2.973-14.687,4.505
		c-5.855,1.892-20.723,11.082-21.804,25.768c-0.09,2.613,1.261,4.956,2.072,5.768c2.343,2.433,8.199,1.801,11.623,0.721
		l13.245-4.324l3.874-16.76l2.611-2.793l-16.127,5.137L399.145,318.339L399.145,318.339z"/>
	<polygon fill="#1D1D1B" points="344.636,350.686 351.303,323.835 346.348,325.997 350.312,325.006 343.645,351.855 	"/>
	<polygon fill="#1D1D1B" points="358.331,344.377 353.465,346.63 357.339,345.549 356.799,347.893 338.059,356.271 338.148,352.486 
		337.067,357.441 357.339,348.342 	"/>
	<polygon fill="#1D1D1B" points="372.927,314.734 376.891,313.834 370.224,342.215 364.547,344.646 364.728,340.954 
		363.556,345.818 370.854,342.756 377.792,312.753 	"/>
	<polygon fill="#1D1D1B" points="420.769,313.654 417.705,326.357 411.938,328.068 412.209,323.835 411.037,329.061 
		418.245,326.898 421.309,314.193 434.013,310.771 434.914,309.779 	"/>
	<polygon fill="#1D1D1B" points="424.372,298.338 421.309,311.223 422.21,310.32 425.363,297.346 420.407,298.698 	"/>
	<polygon fill="#1D1D1B" points="440.5,293.382 444.464,293.112 437.707,321.042 431.94,322.482 432.121,318.609 431.039,323.475 
		438.337,321.583 445.365,292.211 	"/>
	<polygon fill="#1D1D1B" points="457.438,292.301 450.681,293.743 450.861,291.4 449.87,294.734 456.987,293.112 	"/>
	<polygon fill="#1D1D1B" points="469.781,287.166 473.746,287.075 473.115,289.508 465.188,290.949 459.061,316.177 
		453.204,317.438 453.474,313.475 452.303,318.339 459.69,316.717 465.729,291.58 473.746,290.139 474.646,286.174 	"/>
	<path fill="#1D1D1B" d="M386.982,325.188c0-7.658,5.495-15.138,12.703-17.299c3.063-0.902,10.633-3.334,10.633-3.334l0.54-2.343
		l-3.966,0.54l4.956-1.531l-0.9,3.874c0,0-7.838,2.522-11.082,3.425c-6.938,2.071-12.163,9.278-12.163,16.668
		c0,2.883,1.892,4.145,3.244,4.145C389.054,329.331,386.982,328.34,386.982,325.188L386.982,325.188z"/>
	<path fill="#1D1D1B" d="M403.83,315.727l4.865-1.531l-3.874,16.759l-13.245,4.323c-3.423,1.082-9.28,1.713-11.623-0.721
		c2.343,1.441,6.126,1.803,11.441,0c5.316-1.712,12.885-4.145,12.885-4.145l3.514-15.227L403.83,315.727L403.83,315.727z"/>
	<path fill="#F6F4F2" d="M463.564,261.758c-1.711-0.901-4.505-0.541-5.496-0.181c1.352-2.252,3.785-6.307,5.137-8.379
		c-0.091,1.352,0.9,10.632,0.9,10.812c0,0.721-0.091,1.802-0.45,2.252c-0.541,0.721-1.353,0.991-1.982,0.721
		C459.871,265.992,462.214,262.659,463.564,261.758L463.564,261.758z M406.173,269.596c1.802-4.775,3.964-7.208,5.495-8.379
		c0.36,1.982,1.802,4.325,3.965,5.856c-1.081,6.217-4.233,10.992-6.848,12.884c-3.964,2.793-3.964-1.622-3.964-3.424
		C404.821,274.552,405.271,272.119,406.173,269.596L406.173,269.596z M383.558,277.255c-0.72,5.766-4.145,13.424-8.289,14.416
		c-1.352,0.271-2.162-0.451-2.162-4.235c0-2.252,0.45-4.775,0.9-6.307c0.901-2.703,2.793-7.028,5.227-9.37
		C379.864,275.272,382.927,276.894,383.558,277.255L383.558,277.255z M355.897,259.775c-1.531,0.811-7.298,3.424-9.189,4.235
		c3.964-5.406,9.189-10.181,12.974-10.091c2.252,0.09,2.162,3.154,2.162,3.875c0,2.433-0.811,4.955-1.261,6.037
		c-0.451,0.811-1.982,3.874-4.234,5.136c-2.793,1.351-3.062-0.451-3.153-0.992C352.925,266.443,354.456,261.938,355.897,259.775
		L355.897,259.775z M343.734,272.389c0,2.974,1.802,9.911,10.001,10.001c3.062,0,6.577-1.441,9.641-4.234
		c-1.081,3.062-1.892,6.667-2.342,10.812c-6.849,11.533-15.407,16.038-20.542,15.316c-0.901-0.091-1.622-0.271-2.252-0.9
		c-1.893-1.893-2.072-6.667-2.072-8.108c0-4.055,1.441-14.056,5.315-22.074C342.203,272.93,343.014,272.66,343.734,272.389
		L343.734,272.389z M444.104,267.164c0.991-1.892,4.234-7.478,4.956-8.83c0.812-1.802,1.262-3.514,1.262-5.136
		c0-2.613-1.081-5.045-3.243-6.848c-0.541-0.541-8.289-6.216-8.289-6.216c-1.532-1.171-3.604-1.081-4.955,0.901
		c-0.541,0.901-6.938,10.722-9.731,12.884c-0.359-0.36-2.611-4.415-9.64-4.234c-8.47,0.27-14.596,8.199-17.029,12.974
		c-0.721,0.541-2.793,1.892-4.505,2.973c-0.63-1.081-2.883-5.496-9.371-5.766c-4.145-0.18-8.83,2.072-12.612,5.856
		c3.693-11.533-1.532-22.615-13.334-22.345c-14.597,0.361-26.489,18.561-29.823,23.966c-1.171-0.18-2.973-0.811-2.072-2.793
		c0.541-1.081,2.434-2.163,5.045-1.802c-0.27-0.72-0.721-2.162-3.062-3.514c-2.342-1.351-5.496-1.351-8.199-0.27
		c-2.793,1.081-4.595,3.063-5.045,6.667c-0.36,3.334,0.991,8.199,9.189,9.641c-1.981,4.775-4.054,11.803-4.595,18.11
		c-0.09,1.261-0.09,2.522-0.09,3.964c0,6.306,1.441,14.595,7.749,19.281c8.289,6.217,20.362,4.686,31.625-7.027
		c1.892-1.802,4.595-5.136,6.307-7.479c2.522,3.152,6.036,4.145,9.73,3.693c4.774-0.541,9.55-3.514,12.974-8.019
		c2.252-2.522,4.505-7.118,6.037-12.073c0.721,2.703,2.793,8.019,9.641,8.92c8.829,1.081,16.759-5.226,21.623-16.848
		c1.621-4.505,2.703-8.56,2.703-13.785c1.803-2.072,6.126-6.217,10.361-12.073c1.712,1.081,0.271,2.973,0.271,2.973
		c-2.163,3.424-6.578,10.812-8.74,14.957c-6.127,12.073,2.253,17.119,7.118,16.938c2.342-0.09,7.566-0.541,12.434-8.379
		c0.36-0.541,3.604-6.577,3.964-7.118c0.812,6.757,5.586,9.821,10.182,9.73c8.561-0.09,11.714-6.397,12.523-8.019
		c0.9-0.721,2.434-2.252,5.676-2.252l3.244-9.37c-3.784-0.631-6.487,0.09-8.02,0.631c-0.181-1.712-0.54-3.424-0.9-5.136
		c-0.36-1.441-0.631-2.883-0.811-4.145c-0.182-1.351-0.36-2.973-0.36-4.504c0-2.974,0.09-5.676,2.702-9.19l-5.045-3.785
		c-1.172-0.9-2.613-0.811-3.784,0.09c-7.479,6.487-18.11,22.975-23.876,31.805C444.193,267.434,444.014,267.254,444.104,267.164
		L444.104,267.164z"/>
	<path fill="#1D1D1B" d="M392.478,272.84c0.451,7.929-3.604,18.74-7.478,22.975c-1.352,1.712-5.406,6.667-11.713,7.387
		c-2.522,0.271-4.775-0.091-6.667-1.621c2.072,2.252,4.685,2.793,7.478,2.433c6.397-0.721,10.452-5.676,11.804-7.388
		c3.875-4.235,7.929-15.047,7.388-22.975c0.541-0.271,1.352-0.811,2.163-1.262c0.09-0.541,0.27-1.171,0.45-1.711
		C395.361,271.128,393.289,272.299,392.478,272.84L392.478,272.84z"/>
	<path fill="#1D1D1B" d="M466.268,244.819c-8.107,8.92-18.198,29.102-19.91,31.895c-4.597,7.658-9.73,7.568-11.174,7.568
		c-1.53,0-2.793-0.451-3.692-1.171c0.991,1.171,2.521,1.982,4.505,1.982c1.531,0,6.577,0.09,11.262-7.568
		c1.532-2.613,10.361-20.182,18.11-29.823c0.271-1.261,0.631-2.252,0.899-2.703V244.819L466.268,244.819z"/>
	<path fill="#1D1D1B" d="M356.168,307.527c-9.911,10.361-21.083,12.162-28.11,7.658c-0.541-0.36-0.99-0.722-1.441-1.082
		c0.631,0.722,1.441,1.353,2.343,1.893c6.938,4.505,18.2,2.703,28.11-7.658c2.253-2.162,6.217-7.388,7.479-9.189
		c-0.271-0.36-0.451-0.721-0.631-1.171C363.016,299.419,358.691,305.186,356.168,307.527L356.168,307.527z"/>
	<path fill="#1D1D1B" d="M424.643,262.298c0.181,6.127-0.721,9.01-2.612,14.055c-4.686,11.262-11.894,16.578-19.731,15.677
		c-1.621-0.18-2.973-0.721-4.054-1.622c1.171,1.352,2.883,2.163,4.955,2.433c7.748,0.901,15.046-4.415,19.73-15.677
		c1.893-5.045,2.884-8.199,2.613-14.326c1.621-1.171,6.486-6.126,11.622-13.695c-0.271-0.18-0.54-0.36-0.721-0.541
		C431.13,256.172,426.264,261.127,424.643,262.298L424.643,262.298z"/>
	<path fill="#1D1D1B" d="M460.23,268.335c-0.9-1.171-0.812-3.153,0.45-4.775c-0.54,0-1.081,0.181-1.621,0.451
		C458.339,265.722,458.79,267.524,460.23,268.335L460.23,268.335z"/>
	<path fill="#1D1D1B" d="M339.41,270.768c-4.325,8.83-5.947,19.822-5.857,23.876c0.09,3.694,0.722,9.1,4.956,10.812
		c-2.973-2.253-3.693-6.757-3.784-10c-0.09-4.054,1.172-15.046,5.586-23.876c1.803-0.541,4.234-1.441,5.767-2.072
		c0.09-0.451,0.271-0.901,0.45-1.352C346.348,268.245,342.203,269.957,339.41,270.768L339.41,270.768z"/>
	<path fill="#1D1D1B" d="M471.674,252.207c0.631,3.965,2.162,9.19,2.072,13.064c0.271-0.27,0.631-0.541,1.081-0.721
		c-0.181-4.325-1.441-7.929-1.982-11.442c-0.721-4.685-1.081-9.551,1.442-13.605l-0.901-0.631
		C471.133,242.026,471.043,247.612,471.674,252.207L471.674,252.207z"/>
	<path fill="#1D1D1B" d="M323.373,267.254c0.18,0.27,0.45,0.45,0.721,0.63c-1.441-1.711-1.261-5.315,3.243-6.307
		c-0.541-0.27-0.991-0.541-1.531-0.63C321.84,262.208,321.84,265.632,323.373,267.254L323.373,267.254z"/>
	<path fill="#1D1D1B" d="M368.872,262.028c-2.433,11.983-10.452,17.659-15.947,17.659c-1.802,0.09-3.424-0.541-4.685-1.442
		c1.261,1.442,3.243,2.343,5.586,2.252c5.406,0,13.515-5.676,15.947-17.659c1.08-7.028-0.722-11.893-3.875-14.506
		C368.512,251.126,369.953,255.631,368.872,262.028L368.872,262.028z"/>
	<path fill="#1D1D1B" d="M317.876,270.317c1.081,1.982,3.604,3.604,8.109,3.875c0.18-0.451,0.359-0.811,0.541-1.081
		C322.111,273.02,319.408,271.849,317.876,270.317L317.876,270.317z"/>
	<path fill="#1D1D1B" d="M446.536,256.712c-2.973,5.946-6.577,11.803-7.748,15.316c-0.541,1.441-0.091,2.613,0.811,2.883
		c-0.271-0.541-0.271-1.261,0-2.072c1.263-3.514,4.775-9.37,7.749-15.317c2.612-5.226,0.181-8.379-1.622-9.911
		C447.348,249.324,448.698,252.297,446.536,256.712L446.536,256.712z"/>
	<path fill="#1D1D1B" d="M372.296,280.498c0.901-3.153,3.874-10.361,8.469-11.803c0.091-0.36,0.091-0.721,0.182-1.081
		c-5.227,0.721-8.561,9.37-9.46,12.073c-0.901,2.883-2.523,12.343,2.252,13.604C370.764,290.859,371.395,284.102,372.296,280.498
		L372.296,280.498z"/>
	<path fill="#1D1D1B" d="M360.042,252.117c0.992,0,1.802,0.271,2.433,0.721c-0.721-0.901-1.802-1.532-3.333-1.532
		c-6.486-0.27-14.506,9.641-18.02,16.398c0.45-0.09,0.991-0.271,1.531-0.45C346.527,260.586,353.916,251.847,360.042,252.117
		L360.042,252.117z"/>
	<path fill="#1D1D1B" d="M480.503,263.83l-1.531,4.505c-2.612,0.18-4.955,1.892-5.855,2.793c-0.991,2.072-4.415,7.658-10.992,7.208
		c-2.072-0.18-3.693-0.811-4.865-1.712c1.172,1.351,3.063,2.252,5.677,2.522c6.668,0.451,10.092-5.135,10.991-7.208
		c0.901-0.901,3.244-2.613,5.856-2.793l1.893-5.405C481.225,263.74,480.864,263.74,480.503,263.83L480.503,263.83z"/>
	<path fill="#1D1D1B" d="M352.564,264.28c-0.45,0.271-0.991,0.451-1.441,0.721c-0.541,1.892-0.541,4.415,1.352,5.586
		C351.123,268.785,351.753,265.722,352.564,264.28L352.564,264.28z"/>
	<path fill="#1D1D1B" d="M404.551,268.875c2.434-6.938,6.126-9.911,8.919-10.632c0-0.36,0.091-0.63,0.182-0.991
		c-2.884,0.18-6.938,3.063-9.911,10.812c-2.612,6.848-1.711,13.695,2.071,14.416h0.092
		C403.379,280.588,402.388,275.272,404.551,268.875L404.551,268.875z"/>
	<path fill="#AC5F50" d="M359.142,251.306c2.703,0.09,3.965,1.982,4.505,3.875c0.811,3.423-0.45,7.749-1.172,9.28
		c-1.171,2.433-4.595,8.019-9.46,6.397c-3.062-1.171-2.343-5.586-1.261-7.388c-3.875,1.982-8.199,3.604-10.631,4.234
		C344.636,260.947,352.654,251.036,359.142,251.306L359.142,251.306z M374.368,293.472c-5.496-0.541-3.875-10.722-2.883-13.785
		c0.9-2.703,4.234-11.353,9.46-12.073c-0.812,4.685,1.44,7.568,4.595,7.658C385.45,281.579,380.945,293.562,374.368,293.472
		L374.368,293.472z M403.739,268.064c2.974-7.748,7.027-10.631,9.911-10.812c-0.901,3.874,0.631,7.658,4.055,8.199
		c-1.081,9.911-7.479,17.93-11.895,17.029C402.028,281.76,401.127,274.912,403.739,268.064L403.739,268.064z M473.746,265.271
		c0.09-3.874-1.441-9.1-2.072-13.064c-0.721-4.685-0.541-10.451,1.893-13.604l-2.702-1.892c-0.631-0.451-1.172-0.36-1.622,0
		c-10.812,9.37-22.436,30.904-27.48,37.03c-1.892,2.433-3.874,0.721-2.973-1.712c1.171-3.514,4.775-9.37,7.748-15.316
		c2.883-5.856-0.45-9.1-2.343-10.362c-1.893-1.261-4.686-3.423-6.757-4.955c-0.541-0.45-1.622-0.36-1.982,0.27
		c-0.901,1.622-7.658,12.074-11.893,15.407c0,0-1.982-5.947-9.101-5.586c-7.659,0.45-13.516,7.928-15.677,12.343
		c-0.901,0.721-5.676,3.874-7.118,4.505c-1.802-5.496-5.316-6.667-8.289-6.667c-6.577-0.18-18.47,6.848-20.542,27.84
		c-7.298,12.344-16.668,17.299-22.523,16.487c-5.856-0.812-6.578-7.207-6.759-11.352c-0.09-4.054,1.532-15.046,5.857-23.876
		c2.793-0.811,6.938-2.523,7.117-2.613c-2.703,6.487,0.811,11.623,6.396,11.533c5.496,0,13.516-5.676,15.947-17.659
		c1.892-11.623-4.325-17.209-11.262-16.849c-13.966,0.541-26.128,19.191-28.921,24.056c-1.622-0.09-3.965-0.451-5.316-1.982
		c-1.532-1.712-1.532-5.406,3.062-6.487c-3.604-2.252-9.55,0.36-10.181,4.505c-0.541,3.694,1.894,7.658,10.271,7.839
		c-2.344,4.415-5.137,12.974-5.768,20.452c-0.541,7.208,0.271,17.118,7.298,21.624c7.027,4.504,18.2,2.703,28.11-7.658
		c2.523-2.344,6.848-8.108,7.749-9.55c2.343,4.593,5.586,5.675,9.37,5.225c6.307-0.722,10.36-5.675,11.713-7.387
		c3.874-4.235,7.929-15.046,7.478-22.975c0.812-0.541,2.884-1.712,3.425-2.162c-3.333,10.361-1.441,20.452,6.396,21.353
		c7.839,0.901,15.047-4.415,19.731-15.677c1.893-5.045,2.793-7.928,2.612-14.055c1.621-1.171,6.487-6.126,11.804-13.695
		c1.081,0.901,2.793,2.163,3.243,2.793c0.54,0.631,1.262,2.072-0.181,4.145c-1.44,2.162-6.668,11.352-9.101,16.037
		c-3.153,6.397-0.99,12.614,4.774,12.704c1.442,0,6.577,0.09,11.173-7.568c1.713-2.793,11.804-22.975,19.911-31.895V245
		c-0.54,1.081-1.802,4.595-1.352,9.73c0.451,4.145,0.812,7.298,0.901,9.01c0.271,3.153-1.081,5.315-3.965,5.135
		c-3.153-0.271-4.055-3.514-1.981-6.127c-2.974,0.271-5.406,3.334-5.406,7.118c-0.09,3.874,1.802,8.019,7.658,8.469
		c6.577,0.45,10.001-5.136,10.992-7.208c0.9-0.901,3.243-2.613,5.855-2.793l1.802-5.406
		C478.251,262.929,475.277,264.01,473.746,265.271L473.746,265.271z"/>
	<path fill="#CECECE" d="M470.953,238.242c-0.541-0.631-0.991-0.541-1.172-0.451c-8.56,6.848-23.876,32.886-25.858,35.138
		c-1.531,1.712-2.342,3.424-4.504,3.154c0.63,0.811,2.612,1.081,5.496-2.883c4.054-5.767,16.487-26.85,25.768-34.868
		C470.771,238.242,470.863,238.152,470.953,238.242L470.953,238.242z"/>
	<path fill="#CECECE" d="M466.988,264.371c0,2.793-1.712,7.118-6.848,5.226c1.621,1.892,7.838,2.163,7.838-5.496
		c0-2.252-0.99-8.469-0.99-11.623c0-2.162,0.541-7.027,0.99-8.289c-1.712,3.154-1.98,6.487-1.98,8.019
		C465.998,254.73,466.988,263.199,466.988,264.371L466.988,264.371z"/>
	<path fill="#CECECE" d="M479.062,264.28c-2.434,0.541-3.784,0.991-5.946,2.974c1.893-0.991,3.965-1.622,5.586-1.802L479.062,264.28
		L479.062,264.28z"/>
	<path fill="#CECECE" d="M456.537,270.047c0-2.073,0.181-2.613,1.081-5.045c-1.531,1.261-2.072,3.514-2.072,5.135
		c0,1.622,0.541,4.956,3.784,6.307C457.258,274.642,456.537,272.209,456.537,270.047L456.537,270.047z"/>
	<path fill="#CECECE" d="M361.754,250.766c2.973,1.532,3.333,5.316,3.333,6.848c0,8.379-6.037,15.767-11.353,14.686
		c5.405,1.802,12.163-5.316,12.344-14.326C366.169,252.568,363.286,251.216,361.754,250.766L361.754,250.766z"/>
	<path fill="#CECECE" d="M348.06,267.614c-0.631,1.441-1.262,2.973-1.262,4.865s0.541,4.415,3.784,5.676
		C346.438,275.272,347.969,269.326,348.06,267.614L348.06,267.614z"/>
	<path fill="#CECECE" d="M320.759,270.858c-1.622-0.991-2.433-2.974-2.342-4.956c0-2.072,1.441-3.874,4.415-4.775
		c-1.802,0-5.406,1.712-5.406,5.226C317.426,268.605,318.958,270.137,320.759,270.858L320.759,270.858z"/>
	<path fill="#CECECE" d="M352.474,248.243c4.596-1.802,8.199-1.352,9.821-1.082c-5.855-2.342-13.965,0.541-21.894,8.649
		c-5.856,5.856-8.47,10.452-10.451,13.605h1.081c0.991-1.622,3.874-6.577,10.271-13.154
		C345.176,252.207,349.141,249.595,352.474,248.243L352.474,248.243z"/>
	<path fill="#CECECE" d="M328.958,273.2c-4.415,7.929-6.217,17.839-6.217,24.236c0,13.244,7.298,17.298,8.379,18.02
		c-1.262-0.541-9.281-3.153-9.281-18.02c0-2.072-0.09-11.803,5.947-24.236C328.147,273.2,328.508,273.2,328.958,273.2L328.958,273.2
		z"/>
	<path fill="#CECECE" d="M382.116,266.533c0.181,0.09,0.181,0.271,0.09,0.541c-0.36,2.072-0.36,3.334,0,4.325
		c0.541,1.531,1.622,2.613,3.333,2.703c-3.153-1.982-2.703-4.956-2.433-6.577C383.378,266.533,382.297,266.533,382.116,266.533
		L382.116,266.533z"/>
	<path fill="#CECECE" d="M365.178,295.905l-0.541,0.991c0,0,1.622,4.054,4.775,4.865
		C367.07,299.959,365.178,295.905,365.178,295.905L365.178,295.905z"/>
	<path fill="#CECECE" d="M367.881,275.002c-2.343,4.775-3.604,10.361-3.964,14.866c-1.712,3.244-6.126,9.28-10.361,12.434
		c-3.333,2.522-9.37,6.396-15.136,4.414c6.396,3.604,13.424-1.892,16.668-4.414c4.055-3.153,8.92-10.001,9.821-12.073
		c0.45-8.469,3.964-15.137,5.226-17.209c6.308-10.361,14.416-9.731,17.029-9.19c-1.262-0.901-2.883-0.991-3.875-0.991
		C377.071,262.839,371.214,268.245,367.881,275.002L367.881,275.002z"/>
	<path fill="#CECECE" d="M386.711,275.363c0.271-0.09,0.721-0.09,0.901-0.181c0,4.956-2.613,13.785-7.028,17.75
		c-2.162,1.892-5.045,2.613-6.938,1.532c0,0,2.162,0.541,4.774-1.081C383.378,290.319,386.711,280.769,386.711,275.363
		L386.711,275.363z"/>
	<path fill="#CECECE" d="M414.912,256.352c0.18,0.09,0.09,0.181,0,0.541c-0.45,2.073-0.45,3.244-0.181,4.325
		c0.449,1.531,1.352,2.433,2.612,2.973c-2.163-2.613-1.981-5.136-1.532-6.757C416.083,256.532,415.092,256.262,414.912,256.352
		L414.912,256.352z"/>
	<path fill="#CECECE" d="M418.876,265.632c0.36,0,0.721,0,0.991,0.09c-0.36,3.694-1.531,7.208-3.063,10.181
		c-1.53,2.973-2.883,4.775-5.136,6.667c-2.162,1.892-5.586,2.072-6.938,0.811c0,0,1.981,0.991,4.686-0.451
		c3.063-1.622,5.315-5.406,6.217-6.847C416.354,274.912,418.426,270.497,418.876,265.632L418.876,265.632z"/>
	<path fill="#CECECE" d="M391.938,269.506c0.09,0.18,0.18,0.901,0.18,0.991c2.252-1.171,6.578-3.694,8.38-5.406
		c2.973-5.676,6.486-8.379,8.378-9.55c4.235-2.433,8.019-2.793,10.451-1.892c-4.324-2.252-8.829-0.09-9.91,0.541
		c-4.686,2.433-7.749,6.667-9.73,10.361C397.613,266.083,394.46,268.245,391.938,269.506L391.938,269.506z"/>
	<path fill="#CECECE" d="M395.541,279.958c0-3.694,0.901-7.568,1.982-10.271c0.27-0.271,0.99-0.811,1.261-0.991
		c-1.082,3.153-2.252,7.027-2.252,11.353c0,4.415,1.261,7.928,4.233,10.451C396.262,288.697,395.541,283.652,395.541,279.958
		L395.541,279.958z"/>
	<path fill="#CECECE" d="M424.012,259.415c5.678-4.325,11.354-13.605,13.154-16.308c0-0.09,0.181-0.18,0.271-0.271l-0.54-0.36
		c-0.271-0.18-0.54-0.09-0.632,0.181c-3.333,4.955-8.469,12.793-12.433,15.677C423.832,258.334,424.012,259.145,424.012,259.415
		L424.012,259.415z"/>
	<path fill="#CECECE" d="M441.581,256.262c-0.541,0.811-2.884,4.865-5.406,9.28c-2.521,4.234-5.045,8.379-5.045,11.893
		c0,2.974,1.531,4.866,4.595,5.586c-3.604,0.09-5.586-1.532-5.586-6.037c0-6.037,11.354-20.452,11.354-23.786
		c0-1.352-0.541-2.162-0.812-2.522C441.491,251.396,443.383,253.559,441.581,256.262L441.581,256.262z"/>
</g>
</svg>
