<?xml version="1.0" encoding="utf-8"?>
<!-- Generator: Adobe Illustrator 16.0.0, SVG Export Plug-In . SVG Version: 6.00 Build 0)  -->
<!DOCTYPE svg PUBLIC "-//W3C//DTD SVG 1.1//EN" "http://www.w3.org/Graphics/SVG/1.1/DTD/svg11.dtd">
<svg version="1.1" id="Layer_1" xmlns="http://www.w3.org/2000/svg" xmlns:xlink="http://www.w3.org/1999/xlink" x="0px" y="0px"
	 width="175.752px" height="38.808px" viewBox="0 0 175.752 38.808" enable-background="new 0 0 175.752 38.808"
	 xml:space="preserve">
<path fill="#3876A7" d="M170.279,19.584c1.729,0.504,3.527,1.295,5.473,2.375C171,14.112,162.504,5.544,154.152,0
	c2.158,2.16,5.688,6.84,6.552,11.88C164.16,14.328,167.328,16.92,170.279,19.584L170.279,19.584z"/>
<path fill="#5E8AB5" d="M170.208,19.584c-4.032-1.368-7.488-1.44-10.08-1.152c0.864-2.088,1.008-4.392,0.576-6.552
	c-6.336-4.536-13.248-8.496-19.944-11.304c4.896,3.312,10.297,12.888,12.602,23.185c4.822-1.438,12.312-2.377,21.888,0.863
	C173.736,22.895,172.08,21.241,170.208,19.584L170.208,19.584z"/>
<path fill="#005389" d="M160.704,11.88c0.432,2.16,0.288,4.392-0.576,6.552c2.592-0.288,6.048-0.216,10.151,1.152
	C167.328,16.92,164.16,14.328,160.704,11.88L160.704,11.88z"/>
<path fill="#005389" d="M65.952,23.833v2.16h0.216c0.144-0.289,0.576-1.08,1.656-1.08h2.736c0,0.215,0,13.606,0,13.606h2.304
	c0,0-0.072-13.393-0.072-13.606H75.6c1.08,0,1.44,0.504,1.656,0.862l0.144-0.071v-1.871H65.952L65.952,23.833z"/>
<path fill="#005389" d="M2.664,22.825C1.008,24.551,0,26.928,0,29.375c0,2.664,1.08,5.113,3.096,6.84
	c1.872,1.656,4.392,2.592,7.056,2.592c1.368,0,4.176-0.287,6.84-1.871l0,0l0.36-3.6l-0.288-0.072v0.072
	c-2.016,4.248-5.256,4.248-6.408,4.248c-5.4,0-7.848-4.465-7.848-8.568c0-2.231,0.72-4.176,2.016-5.617
	c1.44-1.584,3.456-2.446,5.832-2.446c1.656,0,4.68,0.575,6.264,4.176V25.2l0.288-0.072l-0.36-3.744l0,0
	C14.4,20.303,12.384,19.8,10.44,19.8C7.272,19.8,4.536,20.879,2.664,22.825L2.664,22.825z"/>
<path fill="#005389" d="M20.088,23.833l-0.072,0.144c0.288,0.145,0.576,0.647,0.576,1.368V38.52h2.16c0,0,0-6.625,0-6.84
	c0.216,0,0.72,0,1.296,0.072c1.008,0,1.44,0.719,1.944,1.584l0.072,0.072l0.288,0.576c0.576,0.863,1.296,2.088,2.016,3.238
	c0.576,0.793,1.224,1.225,2.016,1.368c0.576,0.072,1.8,0.072,2.232-0.071l0.288-0.072l-0.288-0.072
	c-0.288-0.072-0.864-0.287-1.512-1.08c-0.432-0.504-1.08-1.512-2.016-3.096l-1.008-1.584l0,0c-0.288-0.432-0.792-1.152-1.728-1.512
	c1.368-0.289,3.024-1.513,3.024-3.601c0-0.576-0.144-1.512-1.008-2.377c-0.936-0.862-2.376-1.295-4.248-1.295h-4.032V23.833z
	 M24.264,24.84c2.736,0.145,2.808,2.447,2.808,2.664c0,2.303-1.728,3.168-3.168,3.168c-0.432,0-0.936-0.072-1.152-0.072v-5.688
	C22.968,24.84,23.544,24.84,24.264,24.84L24.264,24.84z"/>
<path fill="#005389" d="M45.072,23.833L45,23.975c0.36,0.146,0.504,0.721,0.504,1.152V38.52h4.176c5.976,0,8.712-3.889,8.712-7.561
	c0-1.152-0.36-2.879-1.44-4.32c-1.512-1.871-3.816-2.807-6.912-2.807L45.072,23.833L45.072,23.833z M47.808,24.913
	c0.144,0,1.44,0.071,1.44,0.071c0.36,0,1.296,0,1.944,0.07c4.32,0.648,4.824,4.32,4.824,5.904c0,1.225-0.288,3.025-1.368,4.393
	c-1.008,1.439-2.664,2.088-4.896,2.088c-0.576,0-1.224,0-1.944,0V24.913L47.808,24.913z"/>
<path fill="#005389" d="M60.912,23.833v0.144c0.288,0.145,0.504,0.647,0.504,1.297V38.52h2.232V23.833H60.912L60.912,23.833z"/>
<path fill="#005389" d="M111.24,23.833v0.144c0.359,0.145,0.504,0.647,0.504,1.297V38.52h2.23V23.833H111.24L111.24,23.833z"/>
<path fill="#005389" d="M33.48,23.833v0.144c0.288,0.145,0.504,0.721,0.504,1.368V38.52h8.136l0.576-2.377l-0.216-0.069
	l-0.072,0.069c-0.72,1.152-1.44,1.297-3.816,1.297c-0.936,0-1.8-0.071-2.304-0.071h-0.072V30.89h4.248v-1.01h-1.296
	c0,0-2.808,0-2.952,0v-5.04c0.504,0,3.168,0.072,3.6,0.072c0.792,0,1.512,0.432,1.584,0.936l0.288,0.072l-0.072-2.088L33.48,23.833
	L33.48,23.833z"/>
<path fill="#005389" d="M140.832,23.833l-0.072,0.144c0.36,0.145,0.576,0.721,0.576,1.368V38.52h8.137l0.575-2.377l-0.216-0.069
	l-0.072,0.069c-0.72,1.152-1.439,1.297-3.814,1.297c-0.938,0-1.801-0.071-2.377-0.071c0,0,0,0-0.071,0V30.89h4.248v-1.01h-1.226
	c0,0-2.808,0-3.022,0v-5.04c0.576,0,3.239,0.072,3.601,0.072c0.863,0,1.584,0.432,1.729,1.008h0.216l-0.072-2.088L140.832,23.833
	L140.832,23.833z"/>
<path fill="#005389" d="M84.888,20.952c-0.864,0.647-1.872,1.729-1.872,3.672c-0.072,2.377,1.44,3.601,3.888,4.824l0.936,0.504
	c2.16,1.08,3.672,1.873,3.672,4.032c0,0.791-0.287,1.871-1.08,2.662c-0.646,0.648-1.583,1.011-2.664,0.938
	c-3.24,0-4.392-2.881-4.752-4.104v-0.07l-0.288,0.07l0.144,3.744l0,0c1.008,0.575,2.664,1.514,5.04,1.584
	c1.729,0,3.384-0.646,4.536-1.871c1.079-1.008,1.584-2.232,1.584-3.672c0-3.097-2.232-4.248-4.608-5.546l-0.432-0.215
	c-2.592-1.297-3.744-2.088-3.744-3.672c0-1.151,0.864-2.953,3.096-2.881c2.521,0,3.889,1.942,4.176,3.096v0.072h0.289l-0.145-3.24
	h-0.072c-1.439-0.936-3.168-1.08-3.888-1.08C87.336,19.8,85.896,20.232,84.888,20.952L84.888,20.952z"/>
<path fill="#005389" d="M118.296,27.432c-0.071,2.017,1.152,3.096,3.168,4.031l0.72,0.432c1.656,0.793,2.736,1.369,2.736,2.953
	c0,0.287,0,1.226-0.792,1.943c-0.504,0.504-1.224,0.793-2.088,0.793c-2.448-0.072-3.384-1.945-3.744-3.096v-0.072h-0.216
	l0.072,2.951l0.07,0.072c0.793,0.432,2.088,1.151,3.961,1.225c1.295,0,2.664-0.576,3.601-1.441c0.792-0.791,1.224-1.799,1.224-2.951
	c0-2.52-1.8-3.457-3.672-4.465l-0.359-0.215c-2.088-1.008-2.881-1.512-2.809-2.736c0-0.936,0.648-2.231,2.376-2.16
	c2.088,0,3.024,1.513,3.24,2.306v0.144l0.288-0.07l-0.146-2.521l-0.071-0.072c-1.08-0.719-2.521-0.791-3.097-0.791
	C120.6,23.616,118.296,24.984,118.296,27.432L118.296,27.432z"/>
<path fill="#005389" d="M129.527,27.432c0,2.017,1.225,3.096,3.168,4.031l0.793,0.432c1.654,0.793,2.734,1.369,2.734,2.953
	c0,0.287-0.07,1.226-0.791,1.943c-0.505,0.504-1.225,0.793-2.089,0.793c-2.52-0.072-3.456-1.945-3.743-3.096v-0.072h-0.289
	l0.146,2.951v0.072c0.792,0.432,2.16,1.151,4.032,1.225c1.296,0,2.664-0.576,3.527-1.441c0.863-0.791,1.295-1.799,1.295-2.951
	c0-2.52-1.8-3.457-3.672-4.465l-0.358-0.215c-2.089-1.008-2.88-1.512-2.88-2.736c0-0.936,0.646-2.231,2.447-2.16
	c2.088,0,3.023,1.513,3.168,2.306l0.071,0.144l0.216-0.07l-0.144-2.521V24.48c-1.152-0.719-2.521-0.791-3.097-0.791
	C131.904,23.616,129.527,24.984,129.527,27.432L129.527,27.432z"/>
<path fill="#005389" d="M105.984,23.833v0.144c0.216,0.071,0.504,0.36,0.504,1.297v8.496c0,1.729-0.648,3.815-3.672,3.815
	c-2.81,0-3.457-1.729-3.457-4.248l0.072-9.504H96.55v0.144c0.217,0.145,0.576,0.434,0.576,1.368v7.992
	c0,4.824,3.24,5.399,5.616,5.399c1.151,0,4.968-0.36,4.968-4.896V23.76L105.984,23.833L105.984,23.833z"/>
</svg>
