<?xml version="1.0" encoding="utf-8"?>
<!-- Generator: Adobe Illustrator 16.0.0, SVG Export Plug-In . SVG Version: 6.00 Build 0)  -->
<!DOCTYPE svg PUBLIC "-//W3C//DTD SVG 1.1//EN" "http://www.w3.org/Graphics/SVG/1.1/DTD/svg11.dtd">
<svg version="1.1" id="Layer_1" xmlns="http://www.w3.org/2000/svg" xmlns:xlink="http://www.w3.org/1999/xlink" x="0px" y="0px"
	 width="175.748px" height="94.535px" viewBox="8.504 49.111 175.748 94.535" enable-background="new 8.504 49.111 175.748 94.535"
	 xml:space="preserve">
<g>
	<polygon fill="#00A651" points="8.504,49.111 184.252,49.111 184.252,143.646 8.504,143.646 	"/>
	<path fill="#ED1C24" d="M92.442,73.18c23.766,0,43.067,12.564,43.067,27.854c0,15.363-19.301,27.929-43.067,27.929
		c-23.69,0-43.066-12.563-43.066-27.929C49.375,85.744,68.752,73.18,92.442,73.18L92.442,73.18z"/>
	<path fill="#FFFFFF" d="M130.74,83.17c3.026,2.649,6.282-2.119,4.088-4.693c-13.927-15.818-29.368-22.101-45.716-15.364
		c-5.904-9.537-21.268,1.362-11.353,4.39c-2.195,1.287-3.86,3.406-4.844,6.358c-8.023,2.043-14.305,5.979-19.3,11.58
		c-2.044-2.649-4.087-3.557-5.979-1.968c-6.131-4.542-11.732-5.904-15.213-1.892c-3.708,5.601,0.378,11.126,7.342,16.121
		c-0.454,1.514-1.968,3.406-2.574,3.406c-12.791-4.391-15.894,10.369-3.481,9.764l16.651-0.227h0.303
		c2.271,4.162,5.904,7.946,10.597,11.049c7.872,5.224,18.846,8.402,30.88,8.402c12.035,0,22.934-3.18,30.881-8.402
		c4.769-3.178,9.611-8.778,11.049-12.033c1.363-0.227,1.363-0.682,2.953-1.74c1.438,1.514,2.875,4.162,8.099,2.271
		c2.801,1.74,8.174-0.683,10.672-3.938c0.908-1.135,0.757-2.271,0.833-3.633c0-1.438-0.908-2.876-3.027-2.422
		c0.075-3.633,0.682-6.887-1.59-7.493c-3.709-0.908-12.488-0.076-13.623,3.028c0.228-2.043,1.211-3.482-3.937-3.255
		c-3.104-5.525-5.903-8.553-11.429-12.413c-7.268-5.071-17.484-8.023-28.61-8.402c0.151,0,0.227-0.076,0.378-0.076
		C104.703,68.562,117.646,72.498,130.74,83.17L130.74,83.17z M53.084,110.722h0.454c4.844,6.055,13.927,10.217,24.22,10.217
		c9.915,0,19.376-5.069,24.371-10.746c1.211-0.379,2.498-1.287,3.179-1.894c3.332,3.558,8.023,2.649,11.202-0.454
		c0.984,3.406,4.996,3.937,9.688-0.378c0.378,4.466,3.633,3.558,4.844,3.255c-2.119,3.557-5.828,6.963-9.158,9.233
		c-7.645,4.995-18.165,8.099-29.746,8.099c-11.656-0.076-22.176-3.104-29.745-8.099C58.382,117.306,55.204,114.127,53.084,110.722
		L53.084,110.722z M132.179,93.313c-0.529,0.227-2.119,1.665-2.725,1.816c-0.53-0.378,0.378-2.422-0.605-2.725
		c-1.136-0.303-3.104-0.227-3.937-0.151c-0.983,0.378-2.422,3.255-4.39,5.602c-0.151-5.829-6.66-6.13-9.765-5.677
		c0.151-1.362,0.304-2.649-1.362-2.952c3.785-10.748-5.524-11.808-7.114-1.06l-1.665,0.454c-5.903-5.752-12.942-8.78-22.857-8.78
		c-9.31,0-17.635,3.33-22.707,8.477c1.968-2.347,4.39-4.542,7.342-6.434c7.569-4.996,18.089-8.099,29.745-8.099
		c11.581,0,22.176,2.952,29.746,8.099C126.577,84.987,128.924,87.863,132.179,93.313L132.179,93.313z"/>
	<path fill="#00A651" d="M73.596,83.095c4.844-10.521,9.31-13.321,13.17-8.704c7.72-13.397,30.653-5.374,46.019,5.601
		c-3.558-6.055-19.226-17.484-32.472-17.56c-6.812,0-10.975,2.347-13.472,10.066c0.151-12.186-3.482-13.169-9.764-8.325
		c5.223-1.136,8.704,2.346,8.932,8.325C80.029,64.021,75.488,70.833,73.596,83.095L73.596,83.095z"/>
	<path fill="#ED1C24" d="M28.334,105.649c-0.076,2.951,5.676,2.801,8.174,2.119c12.186,2.194,17.711-0.15,18.468-5.524
		c0.757-4.845-1.287-9.84-4.92-12.64c0.378-0.833,0.757-0.984,1.438-1.438c-0.757-0.833-1.589-1.362-2.346-2.195
		c-0.757,0.53-1.211,1.06-1.514,1.666c-6.736-5.374-11.354-6.661-13.17-3.936c-1.816,2.725,1.287,8.326,5.677,11.278
		c0.53-0.757,0.984-1.514,1.438-2.271c-3.936-3.027-5.677-5.449-4.39-7.115c1.211-1.665,5.979,1.893,8.932,4.693
		c-2.12,5.752-5.071,10.672-8.023,14.456C33.557,103.683,28.41,103.304,28.334,105.649L28.334,105.649z M113.332,96.567
		c-4.466,0.075-6.735,9.159-2.194,9.083c1.361,0,2.648-1.59,2.801-2.119c-1.438-2.271-0.304-3.784,1.59-4.163
		C115.679,98.384,115.603,96.567,113.332,96.567L113.332,96.567z M41.958,105.194c2.422-3.707,5.071-8.324,6.888-12.714
		c2.876,3.028,4.239,8.023,3.027,10.067C50.359,105.271,46.575,104.969,41.958,105.194L41.958,105.194z M145.953,106.86
		c0.151,2.951,3.481,1.816,6.661-0.303c0.227-0.151,1.514-1.211,1.664-1.363l0.076-2.875c-0.15,0.15-1.362,1.136-1.438,1.211
		c-1.968,1.361-3.406,2.422-3.859,1.968c-0.605-0.529,1.135-3.405,2.346-6.282c-0.983,0-1.893,0-2.801,0
		c-2.347,4.314-3.859,6.358-6.205,6.434c-2.801,0.076-2.573-4.844-0.605-6.584c2.043-1.816,6.206-2.573,9.688-1.74l-0.227-2.725
		c-5.752-0.227-8.704,0.53-11.429,2.799c-1.287,1.137-2.044,2.649-2.195,4.314c-1.438,0.833-1.968,1.438-3.558,2.271
		c-1.665,1.136-1.665-0.303-0.454-2.346c6.735-10.976,0.833-8.023-6.964-1.591c-1.211,1.06-1.967,0.833-1.135-1.211
		c0.604-1.287,1.893-2.952,2.648-4.238l-3.104-0.076c-0.379,0.757-1.362,2.499-1.893,3.103c-1.893,2.119-3.255,3.558-4.391,4.238
		c-0.303,0.151-1.362,0.53-1.59,0.379c0.832-0.683,0.529-2.347-0.379-2.498c3.027-1.968,0.455-5.525-3.254-5.601
		c-3.937,0-7.418,3.633-7.568,7.568c-1.211,0.908-6.282,5.071-4.163,0.228c1.362-3.104,2.347-6.055,3.558-9.31h2.952l0.529-2.119
		l-2.497,0.076c1.665-4.163,2.8-7.72,1.135-7.796c-1.893,0-3.027,3.785-4.238,7.796h-2.875l-0.455,2.043h2.347
		c-1.136,3.255-2.423,6.13-5.07,8.022c-7.721,5.072,3.026-5.979-2.12-5.979c-3.028,0-4.39,4.995-4.542,7.872
		c-3.33,4.163-5.601,4.466-2.952-1.665c2.346-5.223,0.227-6.282-2.574-1.666c-3.103,4.542-5.222,6.434-6.206,6.434
		c-1.893,0.076,1.06-5.297,4.238-10.443h-2.952c0.076,0.151-3.633,5.223-7.796,8.174c-2.043,1.362-3.557,2.498-4.011,2.044
		c-0.53-0.454,1.135-3.179,2.195-5.903c-0.833,0-1.741,0-2.649,0c-2.12,4.088-3.558,6.056-5.752,6.131
		c-2.725,0.076-2.422-4.541-0.53-6.207c1.892-1.664,5.752-2.422,9.083-1.664l-0.303-2.498c-5.374-0.303-8.174,0.378-10.748,2.572
		c-4.693,4.013-0.909,14.685,5.752,8.856c0.303,4.011,6.358,0.228,9.839-2.952c-0.303,5.602,2.649,5.979,8.023,2.043
		c1.816,4.088,4.996,2.952,8.704-0.832c1.893,1.061,4.087,0.454,5.979-1.74c-1.137,4.012-1.137,8.478,8.174,1.438
		c-0.303,4.087,5.903,5.677,9.99,0.454c0.908,0.303,2.877,0.075,4.996-2.195c-1.438,2.726-2.801,5.603-1.438,5.525
		c1.968,0,9.386-7.039,11.959-9.083l-2.119,4.542c-2.195,4.616-1.362,6.963,8.324,0.681
		C138.688,108.072,141.715,110.418,145.953,106.86L145.953,106.86z"/>
</g>
</svg>
