<?xml version="1.0" encoding="utf-8"?>
<!-- Generator: Adobe Illustrator 16.0.0, SVG Export Plug-In . SVG Version: 6.00 Build 0)  -->
<!DOCTYPE svg PUBLIC "-//W3C//DTD SVG 1.1//EN" "http://www.w3.org/Graphics/SVG/1.1/DTD/svg11.dtd">
<svg version="1.1" id="Layer_1" xmlns="http://www.w3.org/2000/svg" xmlns:xlink="http://www.w3.org/1999/xlink" x="0px" y="0px"
	 width="192.756px" height="192.756px" viewBox="0 0 192.756 192.756" enable-background="new 0 0 192.756 192.756"
	 xml:space="preserve">
<g>
	<polygon fill-rule="evenodd" clip-rule="evenodd" fill="#FFFFFF" points="0,0 192.756,0 192.756,192.756 0,192.756 0,0 	"/>
	<polygon fill-rule="evenodd" clip-rule="evenodd" points="86.52,168.722 86.035,168.903 85.428,169.024 85.003,169.207 
		84.396,169.268 83.79,169.328 83.183,169.389 82.577,169.389 81.97,169.389 81.363,169.328 80.575,169.328 79.968,169.268 
		79.482,169.207 78.876,169.085 78.269,168.964 77.844,168.903 77.238,168.722 76.752,168.6 76.146,168.418 75.539,168.297 
		74.933,168.054 74.508,167.872 73.901,167.751 73.295,167.508 72.688,167.326 72.082,167.205 71.596,166.962 70.989,166.78 
		70.383,166.658 69.776,166.477 69.169,166.416 68.562,166.295 67.774,166.112 67.653,166.112 67.471,166.112 67.167,166.052 
		67.046,166.052 66.743,165.991 66.561,165.991 66.258,165.991 65.954,165.991 65.833,165.87 65.53,165.87 65.347,165.87 
		65.044,165.87 64.741,165.87 64.62,165.87 64.316,165.87 64.134,165.87 63.406,165.87 62.8,165.991 62.193,165.991 61.404,166.052 
		60.797,166.174 60.312,166.295 59.706,166.416 59.281,166.598 58.796,166.72 58.371,166.901 58.068,167.144 57.765,167.266 
		57.461,167.508 57.279,167.751 57.158,167.933 57.158,168.175 57.158,168.418 57.279,168.66 57.461,168.903 57.765,169.024 
		58.068,169.268 58.371,169.51 58.796,169.632 59.281,169.813 59.706,169.935 60.191,170.116 60.797,170.178 61.404,170.238 
		62.011,170.359 62.8,170.42 63.406,170.48 64.134,170.48 64.741,170.48 65.226,170.42 65.833,170.42 66.439,170.359 
		66.864,170.238 67.471,170.178 67.956,170.116 68.381,169.935 68.866,169.874 69.291,169.753 69.594,169.57 69.897,169.389 
		70.201,169.268 70.504,169.085 70.868,168.964 70.989,168.722 70.868,168.964 70.504,169.207 70.201,169.328 69.897,169.57 
		69.594,169.753 69.169,169.874 68.866,170.056 68.381,170.178 67.774,170.238 67.35,170.42 66.743,170.48 66.136,170.541 
		65.53,170.662 64.923,170.662 64.316,170.724 63.709,170.724 62.921,170.724 62.193,170.662 61.404,170.541 60.797,170.48 
		60.009,170.42 59.402,170.238 58.796,170.116 58.371,169.935 57.886,169.813 57.461,169.57 56.976,169.389 56.672,169.207 
		56.369,168.964 56.248,168.722 56.066,168.479 56.066,168.175 56.066,167.933 56.248,167.751 56.369,167.508 56.672,167.266 
		56.976,167.022 57.461,166.78 57.886,166.658 58.371,166.416 58.796,166.295 59.402,166.112 60.009,166.052 60.797,165.87 
		61.404,165.81 62.193,165.749 62.921,165.749 63.709,165.749 64.013,165.688 64.134,165.688 64.438,165.688 64.741,165.688 
		64.923,165.749 65.226,165.749 65.53,165.749 65.833,165.749 66.136,165.81 66.258,165.81 66.561,165.81 66.864,165.87 
		67.046,165.87 67.35,165.991 67.471,165.991 67.774,165.991 68.381,166.112 69.169,166.295 69.776,166.416 70.383,166.598 
		71.171,166.78 71.778,166.962 72.385,167.205 72.991,167.326 73.598,167.568 74.205,167.751 74.812,167.933 75.539,168.114 
		76.146,168.357 76.752,168.479 77.359,168.66 77.966,168.782 78.573,168.903 79.058,169.024 79.665,169.085 80.15,169.085 
		80.756,169.207 81.181,169.268 81.788,169.268 82.395,169.268 82.88,169.268 83.486,169.268 84.093,169.207 84.518,169.085 
		85.003,169.024 85.61,168.964 86.035,168.903 86.52,168.722 	"/>
	<polygon fill-rule="evenodd" clip-rule="evenodd" points="77.359,168.66 77.359,168.66 77.844,168.782 78.269,168.964 
		78.876,169.024 79.482,169.085 80.15,169.207 80.756,169.268 81.363,169.328 81.97,169.328 82.577,169.328 83.183,169.328 
		83.79,169.268 84.396,169.207 85.003,169.085 85.428,169.024 85.913,168.903 86.52,168.66 86.52,168.722 86.035,168.964 
		85.61,169.085 85.003,169.268 84.396,169.328 83.79,169.389 83.183,169.389 82.577,169.51 81.97,169.51 81.363,169.389 
		80.575,169.328 79.968,169.328 79.361,169.268 78.755,169.085 78.269,169.024 77.663,168.903 77.238,168.782 77.359,168.66 	"/>
	<polygon fill-rule="evenodd" clip-rule="evenodd" points="67.956,166.112 67.956,166.112 68.562,166.174 69.169,166.355 
		69.776,166.477 70.383,166.658 70.989,166.78 71.596,166.962 72.203,167.144 72.809,167.266 73.295,167.508 73.901,167.629 
		74.508,167.812 75.115,168.054 75.721,168.175 76.146,168.357 76.752,168.479 77.359,168.66 77.238,168.782 76.631,168.66 
		76.146,168.418 75.539,168.297 74.933,168.114 74.326,167.933 73.901,167.751 73.295,167.568 72.688,167.447 72.082,167.205 
		71.475,167.022 70.868,166.901 70.201,166.72 69.594,166.598 68.988,166.416 68.381,166.355 67.774,166.174 67.956,166.112 	"/>
	<polygon fill-rule="evenodd" clip-rule="evenodd" points="64.134,165.81 64.134,165.81 64.316,165.81 64.62,165.81 64.741,165.81 
		65.044,165.81 65.347,165.81 65.53,165.81 65.833,165.87 65.954,165.87 66.258,165.87 66.561,165.87 66.864,165.991 
		67.046,165.991 67.35,166.052 67.471,166.052 67.774,166.052 67.956,166.112 67.774,166.174 67.653,166.174 67.471,166.112 
		67.167,166.112 67.046,166.112 66.743,166.052 66.561,166.052 66.258,165.991 65.954,165.991 65.833,165.991 65.53,165.991 
		65.347,165.991 65.044,165.991 64.741,165.991 64.62,165.991 64.316,165.991 64.134,165.991 64.134,165.81 	"/>
	<polygon fill-rule="evenodd" clip-rule="evenodd" points="56.976,168.175 56.976,168.175 57.158,167.933 57.158,167.751 
		57.461,167.508 57.583,167.266 57.886,167.022 58.371,166.901 58.674,166.658 59.099,166.477 59.706,166.355 60.191,166.174 
		60.797,166.112 61.404,166.052 62.011,165.991 62.8,165.87 63.406,165.81 64.134,165.81 64.134,165.991 63.406,165.991 
		62.8,165.991 62.193,166.052 61.404,166.112 60.919,166.174 60.312,166.355 59.706,166.477 59.281,166.598 58.796,166.72 
		58.492,166.962 58.068,167.144 57.886,167.326 57.583,167.508 57.461,167.751 57.279,167.933 57.279,168.175 56.976,168.175 	"/>
	<polygon fill-rule="evenodd" clip-rule="evenodd" points="64.134,170.541 64.134,170.541 63.406,170.48 62.8,170.48 62.011,170.42 
		61.404,170.359 60.797,170.238 60.191,170.116 59.706,170.056 59.099,169.874 58.674,169.632 58.371,169.51 57.886,169.328 
		57.583,169.085 57.461,168.903 57.158,168.66 57.158,168.418 56.976,168.175 57.279,168.175 57.279,168.418 57.461,168.66 
		57.583,168.782 57.886,169.024 58.068,169.268 58.492,169.389 58.796,169.57 59.281,169.753 59.706,169.874 60.312,170.056 
		60.797,170.116 61.404,170.238 62.011,170.359 62.8,170.359 63.406,170.42 64.134,170.42 64.134,170.541 	"/>
	<polygon fill-rule="evenodd" clip-rule="evenodd" points="70.868,168.722 70.989,168.782 70.868,168.964 70.686,169.207 
		70.383,169.328 70.08,169.51 69.776,169.632 69.291,169.813 68.866,169.935 68.381,170.056 67.956,170.178 67.471,170.238 
		66.864,170.359 66.439,170.42 65.833,170.48 65.226,170.48 64.741,170.48 64.134,170.541 64.134,170.42 64.741,170.42 
		65.226,170.42 65.833,170.359 66.439,170.238 66.864,170.238 67.471,170.116 67.956,170.056 68.381,169.935 68.866,169.813 
		69.169,169.753 69.594,169.57 69.897,169.389 70.201,169.268 70.504,169.085 70.686,168.903 70.868,168.722 70.989,168.782 
		70.868,168.722 	"/>
	<polygon fill-rule="evenodd" clip-rule="evenodd" points="63.709,170.662 63.709,170.662 64.316,170.662 64.923,170.662 
		65.53,170.541 66.136,170.48 66.743,170.42 67.167,170.359 67.774,170.238 68.259,170.116 68.684,169.935 69.169,169.874 
		69.594,169.632 69.897,169.51 70.201,169.328 70.504,169.207 70.686,168.964 70.868,168.722 70.989,168.782 70.868,169.024 
		70.686,169.207 70.383,169.389 70.08,169.57 69.776,169.813 69.291,169.935 68.866,170.116 68.381,170.238 67.774,170.359 
		67.35,170.42 66.743,170.541 66.136,170.662 65.53,170.662 64.923,170.724 64.316,170.724 63.709,170.784 63.709,170.662 	"/>
	<polygon fill-rule="evenodd" clip-rule="evenodd" points="56.248,168.175 56.248,168.175 56.248,168.418 56.369,168.722 
		56.551,168.964 56.854,169.207 57.158,169.328 57.461,169.57 57.886,169.753 58.371,169.935 58.978,170.116 59.402,170.238 
		60.009,170.359 60.797,170.48 61.404,170.541 62.193,170.541 62.921,170.662 63.709,170.662 63.709,170.784 62.921,170.724 
		62.193,170.724 61.404,170.662 60.615,170.541 60.009,170.48 59.402,170.359 58.796,170.178 58.189,170.056 57.765,169.813 
		57.279,169.632 56.976,169.389 56.551,169.207 56.369,168.964 56.248,168.722 56.066,168.479 55.944,168.175 56.248,168.175 	"/>
	<polygon fill-rule="evenodd" clip-rule="evenodd" points="63.709,165.749 63.709,165.749 62.921,165.749 62.193,165.81 
		61.404,165.87 60.797,165.991 60.191,166.052 59.402,166.174 58.978,166.355 58.371,166.477 57.886,166.658 57.461,166.901 
		57.158,167.022 56.854,167.266 56.551,167.508 56.369,167.751 56.248,167.933 56.248,168.175 55.944,168.175 56.066,167.933 
		56.248,167.751 56.369,167.447 56.551,167.205 56.976,166.962 57.279,166.78 57.765,166.598 58.189,166.416 58.796,166.174 
		59.402,166.112 60.009,165.991 60.797,165.81 61.404,165.749 62.193,165.749 62.921,165.688 63.709,165.688 63.709,165.749 	"/>
	<polygon fill-rule="evenodd" clip-rule="evenodd" points="67.774,166.052 67.774,166.052 67.471,166.052 67.35,165.991 
		67.046,165.991 66.864,165.87 66.561,165.87 66.258,165.87 65.954,165.81 65.833,165.81 65.53,165.81 65.226,165.749 
		64.923,165.749 64.741,165.749 64.438,165.749 64.134,165.749 64.013,165.749 63.709,165.749 63.709,165.688 64.013,165.688 
		64.134,165.688 64.438,165.688 64.741,165.688 64.923,165.688 65.226,165.688 65.53,165.688 65.833,165.749 66.136,165.749 
		66.258,165.749 66.561,165.81 66.864,165.81 67.167,165.81 67.35,165.87 67.653,165.87 67.774,165.991 67.774,166.052 	"/>
	<polygon fill-rule="evenodd" clip-rule="evenodd" points="77.966,168.903 77.966,168.903 77.359,168.722 76.752,168.6 
		76.024,168.418 75.418,168.175 74.812,168.054 74.205,167.812 73.598,167.568 72.991,167.447 72.385,167.205 71.596,167.022 
		70.989,166.78 70.383,166.658 69.776,166.477 68.988,166.355 68.381,166.174 67.774,166.052 67.774,165.991 68.381,166.052 
		69.169,166.174 69.776,166.355 70.504,166.598 71.171,166.72 71.778,166.901 72.385,167.144 72.991,167.326 73.72,167.508 
		74.326,167.751 74.933,167.872 75.539,168.114 76.146,168.297 76.752,168.418 77.541,168.6 78.148,168.722 77.966,168.903 	"/>
	<polygon fill-rule="evenodd" clip-rule="evenodd" points="86.52,168.66 86.52,168.722 86.035,168.903 85.61,169.024 
		85.125,169.085 84.518,169.207 84.093,169.268 83.486,169.268 82.88,169.328 82.395,169.328 81.788,169.328 81.181,169.268 
		80.575,169.268 80.15,169.207 79.482,169.085 79.058,169.024 78.451,168.964 77.966,168.903 78.148,168.722 78.573,168.903 
		79.058,168.964 79.665,169.024 80.15,169.085 80.756,169.085 81.181,169.207 81.788,169.207 82.395,169.207 82.88,169.207 
		83.486,169.207 84.093,169.085 84.518,169.085 85.003,169.024 85.61,168.903 86.035,168.782 86.52,168.66 86.52,168.722 
		86.52,168.66 	"/>
	<polygon fill-rule="evenodd" clip-rule="evenodd" points="92.283,167.751 91.858,167.629 91.555,167.568 91.07,167.508 
		90.767,167.447 90.645,167.326 90.342,167.266 90.038,167.144 89.735,167.022 89.553,166.901 89.25,166.72 88.825,166.658 
		88.34,166.477 88.037,166.416 87.43,166.295 86.823,166.174 86.035,166.052 85.913,166.052 85.61,166.052 85.307,165.991 
		85.125,165.991 84.821,165.991 84.518,165.991 84.214,165.991 83.911,165.991 83.486,165.991 83.183,165.991 82.698,165.991 
		82.395,166.052 82.091,166.112 81.788,166.174 81.484,166.174 81.363,166.295 81.06,166.416 80.878,166.477 80.575,166.598 
		80.453,166.658 80.453,166.78 80.271,166.901 80.271,167.022 80.271,167.144 80.271,167.266 80.271,167.447 80.271,167.508 
		80.453,167.629 80.575,167.751 80.756,167.812 80.878,167.872 81.181,167.933 81.363,168.054 81.667,168.114 81.97,168.175 
		82.273,168.297 82.698,168.297 83.001,168.357 83.486,168.357 83.79,168.357 84.214,168.357 84.518,168.357 84.821,168.297 
		85.125,168.297 85.428,168.175 85.731,168.175 85.913,168.114 86.217,168.054 86.338,168.054 86.52,167.933 86.823,167.872 
		86.944,167.812 87.126,167.751 87.248,167.629 87.248,167.508 87.43,167.447 87.43,167.568 87.248,167.629 87.126,167.751 
		86.944,167.872 86.823,167.933 86.52,168.054 86.338,168.114 86.217,168.175 85.913,168.297 85.61,168.297 85.307,168.357 
		85.003,168.418 84.7,168.418 84.396,168.418 83.911,168.479 83.608,168.479 83.183,168.479 82.698,168.418 82.273,168.418 
		81.97,168.357 81.484,168.357 81.181,168.297 80.878,168.175 80.575,168.114 80.453,168.054 80.15,167.872 79.968,167.812 
		79.847,167.629 79.665,167.568 79.665,167.447 79.665,167.266 79.482,167.205 79.665,167.022 79.665,166.901 79.665,166.78 
		79.847,166.658 79.968,166.598 80.15,166.416 80.271,166.355 80.453,166.174 80.756,166.112 81.06,166.052 81.363,165.991 
		81.667,165.87 81.97,165.87 82.395,165.81 82.88,165.81 83.305,165.749 83.79,165.749 84.093,165.749 84.214,165.749 
		84.518,165.81 84.7,165.81 85.003,165.81 85.125,165.81 85.307,165.81 86.035,165.87 86.641,165.991 87.126,166.112 
		87.551,166.174 88.037,166.355 88.461,166.416 88.825,166.598 89.25,166.72 89.553,166.901 89.856,167.022 90.342,167.205 
		90.645,167.266 91.07,167.447 91.373,167.508 91.858,167.629 92.283,167.751 	"/>
	<polygon fill-rule="evenodd" clip-rule="evenodd" points="86.035,166.052 86.035,166.052 86.823,166.112 87.43,166.174 
		88.037,166.355 88.461,166.416 88.946,166.598 89.25,166.72 89.553,166.78 89.856,166.962 90.16,167.144 90.342,167.205 
		90.645,167.266 90.948,167.447 91.252,167.508 91.555,167.568 91.858,167.568 92.283,167.629 92.283,167.751 91.858,167.751 
		91.373,167.629 91.07,167.568 90.767,167.508 90.463,167.447 90.16,167.266 90.038,167.205 89.735,167.022 89.432,166.962 
		89.128,166.78 88.825,166.658 88.34,166.598 87.854,166.416 87.43,166.355 86.823,166.174 86.035,166.112 86.035,166.052 	"/>
	<polygon fill-rule="evenodd" clip-rule="evenodd" points="83.911,165.87 83.911,165.87 84.214,165.87 84.518,165.87 84.821,165.87 
		85.125,165.87 85.307,165.991 85.61,165.991 85.913,165.991 86.035,166.052 86.035,166.112 85.913,166.112 85.61,166.052 
		85.307,166.052 85.125,166.052 84.821,166.052 84.518,165.991 84.214,165.991 83.911,165.991 83.911,165.87 	"/>
	<polygon fill-rule="evenodd" clip-rule="evenodd" points="80.15,167.144 80.15,167.144 80.15,167.022 80.15,166.901 80.271,166.78 
		80.453,166.658 80.575,166.598 80.756,166.416 81.06,166.355 81.181,166.295 81.484,166.174 81.788,166.112 82.091,166.052 
		82.395,165.991 82.698,165.991 83.183,165.87 83.486,165.87 83.911,165.87 83.911,165.991 83.486,165.991 83.183,166.052 
		82.88,166.052 82.577,166.112 82.091,166.112 81.788,166.174 81.667,166.295 81.363,166.355 81.181,166.416 80.878,166.477 
		80.756,166.658 80.575,166.72 80.453,166.78 80.453,166.962 80.271,167.022 80.271,167.144 80.15,167.144 	"/>
	<polygon fill-rule="evenodd" clip-rule="evenodd" points="83.79,168.418 83.79,168.418 83.486,168.357 83.001,168.357 
		82.577,168.357 82.273,168.297 81.97,168.297 81.667,168.175 81.363,168.114 81.06,168.054 80.878,167.933 80.575,167.872 
		80.453,167.751 80.271,167.629 80.271,167.508 80.15,167.447 80.15,167.266 80.15,167.144 80.271,167.144 80.271,167.266 
		80.453,167.447 80.453,167.508 80.575,167.568 80.756,167.629 80.878,167.812 81.06,167.872 81.181,167.933 81.484,168.054 
		81.667,168.114 81.97,168.114 82.273,168.175 82.698,168.175 83.001,168.297 83.486,168.297 83.79,168.297 83.79,168.418 	"/>
	<polygon fill-rule="evenodd" clip-rule="evenodd" points="87.248,167.447 87.551,167.447 87.43,167.568 87.248,167.629 
		87.126,167.751 86.944,167.812 86.823,167.872 86.641,167.933 86.52,168.054 86.217,168.114 85.913,168.175 85.731,168.297 
		85.428,168.297 85.125,168.357 84.821,168.357 84.518,168.357 84.214,168.418 83.79,168.418 83.79,168.297 84.214,168.297 
		84.518,168.297 84.821,168.297 85.125,168.175 85.428,168.175 85.61,168.114 85.913,168.114 86.035,168.054 86.338,167.933 
		86.52,167.872 86.641,167.812 86.823,167.751 86.944,167.629 87.126,167.568 87.248,167.508 87.248,167.447 87.551,167.447 
		87.248,167.447 	"/>
	<polygon fill-rule="evenodd" clip-rule="evenodd" points="83.608,168.418 83.608,168.418 83.911,168.418 84.396,168.418 
		84.7,168.357 85.003,168.357 85.307,168.297 85.61,168.297 85.913,168.175 86.035,168.114 86.338,168.054 86.52,167.933 
		86.641,167.872 86.823,167.812 86.944,167.751 87.126,167.629 87.248,167.508 87.248,167.447 87.551,167.447 87.43,167.568 
		87.248,167.629 87.126,167.812 87.126,167.872 86.823,167.933 86.641,168.054 86.338,168.175 86.217,168.297 85.913,168.297 
		85.61,168.357 85.307,168.418 85.003,168.418 84.7,168.479 84.396,168.479 83.911,168.479 83.608,168.479 83.608,168.418 	"/>
	<polygon fill-rule="evenodd" clip-rule="evenodd" points="79.665,167.205 79.665,167.205 79.665,167.266 79.847,167.447 
		79.847,167.568 79.968,167.629 80.15,167.751 80.271,167.872 80.453,167.933 80.756,168.054 81.06,168.114 81.181,168.175 
		81.667,168.297 81.97,168.357 82.273,168.357 82.698,168.418 83.183,168.418 83.608,168.418 83.608,168.479 83.183,168.479 
		82.698,168.479 82.273,168.479 81.97,168.418 81.484,168.357 81.181,168.357 80.878,168.297 80.575,168.114 80.271,168.054 
		80.15,167.933 79.968,167.812 79.665,167.751 79.665,167.568 79.482,167.447 79.482,167.266 79.482,167.205 79.665,167.205 	"/>
	<polygon fill-rule="evenodd" clip-rule="evenodd" points="83.305,165.81 83.305,165.81 82.88,165.81 82.395,165.87 82.091,165.87 
		81.667,165.991 81.363,166.052 81.06,166.112 80.756,166.174 80.575,166.295 80.271,166.355 80.15,166.477 79.968,166.598 
		79.968,166.658 79.847,166.78 79.665,166.901 79.665,167.022 79.665,167.205 79.482,167.205 79.482,167.022 79.482,166.901 
		79.665,166.72 79.665,166.658 79.847,166.477 79.968,166.416 80.15,166.295 80.453,166.174 80.575,166.112 80.878,165.991 
		81.181,165.87 81.667,165.87 81.97,165.81 82.395,165.749 82.88,165.749 83.305,165.749 83.305,165.81 	"/>
	<polygon fill-rule="evenodd" clip-rule="evenodd" points="85.307,165.87 85.307,165.87 85.125,165.87 85.003,165.87 84.7,165.81 
		84.518,165.81 84.214,165.81 84.093,165.81 83.79,165.81 83.305,165.81 83.305,165.749 83.79,165.688 84.093,165.688 
		84.214,165.749 84.518,165.749 84.7,165.749 85.003,165.749 85.125,165.749 85.428,165.81 85.307,165.81 85.307,165.87 	"/>
	<polygon fill-rule="evenodd" clip-rule="evenodd" points="92.283,167.629 92.283,167.751 91.858,167.629 91.373,167.568 
		90.948,167.508 90.645,167.326 90.16,167.205 89.856,167.022 89.553,166.962 89.128,166.78 88.825,166.658 88.461,166.477 
		88.037,166.355 87.551,166.295 87.126,166.112 86.52,166.052 86.035,165.991 85.307,165.87 85.307,165.81 86.035,165.81 
		86.641,165.991 87.126,166.052 87.733,166.112 88.037,166.295 88.461,166.416 88.946,166.598 89.25,166.658 89.735,166.78 
		90.038,166.962 90.342,167.144 90.767,167.266 91.07,167.326 91.555,167.508 91.858,167.568 92.283,167.629 92.283,167.751 
		92.283,167.629 	"/>
	<polygon fill-rule="evenodd" clip-rule="evenodd" points="77.541,167.872 76.935,167.629 76.328,167.508 75.721,167.266 
		74.933,167.022 74.326,166.78 73.72,166.598 72.991,166.416 72.385,166.174 71.596,166.052 70.989,165.81 70.201,165.688 
		69.594,165.506 68.866,165.324 68.077,165.203 67.471,165.021 66.743,164.899 65.954,164.839 65.347,164.718 64.62,164.657 
		64.013,164.657 63.224,164.596 62.618,164.596 61.89,164.596 61.222,164.657 60.615,164.718 60.009,164.839 59.402,164.96 
		58.796,165.143 58.189,165.264 57.765,165.506 57.158,165.749 56.672,166.052 57.279,165.81 57.886,165.688 58.492,165.506 
		59.099,165.324 59.706,165.264 60.312,165.203 60.919,165.143 61.526,165.021 62.193,165.021 62.921,164.96 63.527,164.96 
		64.134,165.021 64.741,165.021 65.347,165.143 65.954,165.203 66.743,165.264 67.35,165.324 67.956,165.506 68.562,165.566 
		69.291,165.749 69.897,165.87 70.504,166.052 71.293,166.174 71.899,166.355 72.688,166.477 73.295,166.72 74.023,166.901 
		74.629,167.144 75.418,167.266 76.024,167.508 76.752,167.629 77.541,167.872 	"/>
	<polygon fill-rule="evenodd" clip-rule="evenodd" points="92.89,167.812 92.586,167.568 92.162,167.447 91.858,167.205 
		91.373,167.022 90.948,166.901 90.463,166.658 90.16,166.477 89.735,166.355 89.25,166.174 88.825,166.052 88.34,165.87 
		87.854,165.749 87.43,165.566 86.944,165.445 86.52,165.324 86.035,165.264 85.61,165.143 85.125,165.021 84.7,165.021 
		84.214,164.96 83.911,164.96 83.486,164.96 83.001,164.96 82.577,165.021 82.273,165.021 81.788,165.203 81.363,165.264 
		81.06,165.445 80.756,165.566 80.271,165.749 79.968,165.991 79.665,166.174 79.968,166.052 80.453,165.87 80.878,165.749 
		81.181,165.688 81.667,165.506 81.97,165.445 82.395,165.445 82.88,165.324 83.183,165.324 83.608,165.324 84.093,165.324 
		84.396,165.324 84.821,165.324 85.307,165.445 85.61,165.506 86.035,165.566 86.52,165.688 86.823,165.749 87.248,165.81 
		87.733,165.991 88.158,166.052 88.461,166.174 88.946,166.355 89.432,166.416 89.856,166.598 90.342,166.72 90.767,166.962 
		91.07,167.144 91.555,167.266 91.979,167.447 92.465,167.568 92.89,167.812 	"/>
	<polygon fill-rule="evenodd" clip-rule="evenodd" points="89.25,168.297 88.946,168.479 88.461,168.66 88.158,168.782 
		87.733,169.024 87.248,169.207 86.823,169.328 86.52,169.57 86.035,169.753 85.61,169.874 85.125,170.056 84.7,170.178 
		84.214,170.359 83.79,170.48 83.305,170.662 82.88,170.724 82.395,170.784 81.97,170.845 81.484,170.966 81.06,171.026 
		80.575,171.087 80.271,171.087 79.847,171.087 79.361,171.087 78.876,171.026 78.573,170.966 78.148,170.845 77.844,170.784 
		77.359,170.662 77.056,170.48 76.631,170.359 76.328,170.116 76.024,169.874 76.449,170.056 76.752,170.178 77.238,170.359 
		77.541,170.42 77.966,170.48 78.451,170.662 78.755,170.662 79.179,170.724 79.482,170.724 79.968,170.724 80.453,170.724 
		80.756,170.724 81.181,170.724 81.667,170.662 81.97,170.541 82.395,170.48 82.88,170.42 83.183,170.359 83.608,170.238 
		84.093,170.116 84.518,170.056 84.821,169.874 85.307,169.753 85.731,169.57 86.217,169.389 86.641,169.268 87.126,169.085 
		87.43,168.964 87.854,168.782 88.34,168.66 88.825,168.479 89.25,168.297 	"/>
	<polygon fill-rule="evenodd" clip-rule="evenodd" points="102.657,168.722 103.082,168.903 103.688,169.024 104.174,169.207 
		104.78,169.268 105.387,169.328 105.993,169.389 106.6,169.389 107.207,169.389 107.995,169.328 108.602,169.328 109.209,169.268 
		109.815,169.207 110.24,169.085 110.847,168.964 111.332,168.903 111.938,168.722 112.363,168.6 112.97,168.418 113.576,168.297 
		114.184,168.054 114.669,167.872 115.275,167.751 115.882,167.508 116.488,167.326 117.096,167.205 117.702,166.962 
		118.309,166.78 118.915,166.658 119.521,166.477 120.129,166.416 120.735,166.295 121.342,166.112 121.523,166.112 
		121.646,166.112 121.948,166.052 122.131,166.052 122.434,165.991 122.555,165.991 122.858,165.991 123.162,165.991 
		123.344,165.87 123.646,165.87 123.95,165.87 124.071,165.87 124.436,165.87 124.557,165.87 124.86,165.87 125.042,165.87 
		125.771,165.87 126.377,165.991 127.166,165.991 127.772,166.052 128.379,166.174 128.985,166.295 129.41,166.416 130.017,166.598 
		130.502,166.72 130.806,166.901 131.23,167.144 131.412,167.266 131.716,167.508 131.837,167.751 132.02,167.933 132.02,168.175 
		132.02,168.418 131.837,168.66 131.716,168.903 131.412,169.024 131.23,169.268 130.806,169.51 130.502,169.632 130.017,169.813 
		129.41,169.935 128.985,170.116 128.379,170.178 127.772,170.238 127.166,170.359 126.559,170.42 125.771,170.48 125.164,170.48 
		124.557,170.48 123.95,170.42 123.344,170.42 122.858,170.359 122.252,170.238 121.827,170.178 121.221,170.116 120.735,169.935 
		120.311,169.874 120.007,169.753 119.521,169.57 119.219,169.389 118.915,169.268 118.611,169.085 118.49,168.964 118.309,168.722 
		118.49,168.964 118.611,169.207 118.915,169.328 119.219,169.57 119.521,169.753 120.007,169.874 120.432,170.056 120.917,170.178 
		121.342,170.238 121.948,170.42 122.434,170.48 123.04,170.541 123.646,170.662 124.254,170.662 124.86,170.724 125.467,170.724 
		126.377,170.724 126.983,170.662 127.772,170.541 128.5,170.48 129.107,170.42 129.714,170.238 130.32,170.116 130.927,169.935 
		131.412,169.813 131.837,169.57 132.141,169.389 132.443,169.207 132.747,168.964 132.929,168.722 133.051,168.479 
		133.051,168.175 133.051,167.933 132.929,167.751 132.747,167.508 132.443,167.266 132.141,167.022 131.837,166.78 
		131.412,166.658 130.927,166.416 130.32,166.295 129.714,166.112 129.107,166.052 128.5,165.87 127.772,165.81 126.983,165.749 
		126.256,165.749 125.467,165.749 125.346,165.688 125.042,165.688 124.86,165.688 124.557,165.688 124.254,165.749 123.95,165.749 
		123.646,165.749 123.465,165.749 123.162,165.81 122.858,165.81 122.555,165.81 122.252,165.87 122.131,165.87 121.827,165.991 
		121.646,165.991 121.523,165.991 120.735,166.112 120.129,166.295 119.4,166.416 118.794,166.598 118.188,166.78 117.58,166.962 
		116.792,167.205 116.186,167.326 115.579,167.568 114.972,167.751 114.365,167.933 113.759,168.114 112.97,168.357 
		112.363,168.479 111.757,168.66 111.15,168.782 110.543,168.903 110.118,169.024 109.633,169.085 109.026,169.085 108.602,169.207 
		107.995,169.268 107.389,169.268 106.782,169.268 106.297,169.268 105.69,169.268 105.205,169.207 104.598,169.085 
		104.174,169.024 103.566,168.964 103.082,168.903 102.657,168.722 	"/>
	<polygon fill-rule="evenodd" clip-rule="evenodd" points="111.938,168.782 111.938,168.782 111.453,168.903 110.847,169.024 
		110.422,169.085 109.815,169.268 109.209,169.328 108.602,169.328 107.995,169.389 107.207,169.51 106.6,169.51 105.993,169.389 
		105.387,169.389 104.78,169.328 104.174,169.268 103.566,169.085 103.082,168.964 102.657,168.722 102.778,168.66 103.264,168.903 
		103.688,169.024 104.295,169.085 104.78,169.207 105.387,169.268 105.993,169.328 106.6,169.328 107.207,169.328 107.995,169.328 
		108.42,169.268 109.209,169.207 109.633,169.085 110.24,169.024 110.847,168.964 111.332,168.782 111.757,168.66 111.938,168.782 	
		"/>
	<polygon fill-rule="evenodd" clip-rule="evenodd" points="121.342,166.174 121.342,166.174 120.735,166.355 120.129,166.416 
		119.521,166.598 118.915,166.72 118.309,166.901 117.702,167.022 117.096,167.205 116.488,167.447 115.882,167.568 
		115.457,167.751 114.79,167.933 114.184,168.114 113.576,168.297 112.97,168.479 112.545,168.66 111.938,168.782 111.757,168.66 
		112.363,168.479 112.97,168.357 113.576,168.175 114.062,168.054 114.669,167.812 115.275,167.629 115.882,167.508 
		116.488,167.266 117.096,167.144 117.58,166.962 118.188,166.78 118.794,166.658 119.4,166.477 120.129,166.355 120.735,166.174 
		121.342,166.112 121.342,166.174 	"/>
	<polygon fill-rule="evenodd" clip-rule="evenodd" points="125.042,165.991 125.042,165.991 124.86,165.991 124.557,165.991 
		124.436,165.991 124.071,165.991 123.95,165.991 123.646,165.991 123.344,165.991 123.162,165.991 122.858,165.991 
		122.737,166.052 122.434,166.052 122.131,166.112 121.948,166.112 121.827,166.112 121.523,166.174 121.342,166.174 
		121.342,166.112 121.523,166.052 121.646,166.052 121.948,166.052 122.131,165.991 122.434,165.991 122.555,165.87 122.858,165.87 
		123.162,165.87 123.344,165.87 123.646,165.81 123.95,165.81 124.071,165.81 124.436,165.81 124.557,165.81 124.86,165.81 
		125.042,165.81 125.042,165.991 	"/>
	<polygon fill-rule="evenodd" clip-rule="evenodd" points="131.837,168.175 131.837,168.175 131.837,167.933 131.716,167.751 
		131.533,167.508 131.412,167.326 131.109,167.144 130.806,166.962 130.32,166.72 129.896,166.598 129.41,166.477 128.985,166.355 
		128.379,166.174 127.772,166.112 127.166,166.052 126.377,165.991 125.771,165.991 125.042,165.991 125.042,165.81 125.771,165.81 
		126.559,165.87 127.166,165.991 127.772,166.052 128.379,166.112 128.985,166.174 129.593,166.355 130.017,166.477 
		130.502,166.658 130.927,166.901 131.23,167.022 131.533,167.266 131.837,167.508 132.02,167.751 132.141,167.933 132.141,168.175 
		131.837,168.175 	"/>
	<polygon fill-rule="evenodd" clip-rule="evenodd" points="125.164,170.42 125.164,170.42 125.771,170.42 126.559,170.359 
		127.166,170.359 127.772,170.238 128.379,170.116 128.985,170.056 129.41,169.874 129.896,169.753 130.32,169.57 130.806,169.389 
		131.109,169.268 131.412,169.024 131.533,168.782 131.716,168.66 131.837,168.418 131.837,168.175 132.141,168.175 
		132.141,168.418 132.02,168.66 131.837,168.903 131.533,169.085 131.23,169.328 130.927,169.51 130.502,169.632 130.017,169.874 
		129.593,170.056 128.985,170.116 128.379,170.238 127.772,170.359 127.166,170.42 126.559,170.48 125.771,170.48 125.164,170.541 
		125.164,170.42 	"/>
	<polygon fill-rule="evenodd" clip-rule="evenodd" points="118.188,168.782 118.309,168.722 118.611,168.903 118.794,169.085 
		119.097,169.268 119.219,169.389 119.704,169.57 120.007,169.753 120.432,169.813 120.917,169.935 121.342,170.056 
		121.827,170.116 122.252,170.238 122.858,170.238 123.344,170.359 123.95,170.42 124.557,170.42 125.164,170.42 125.164,170.541 
		124.557,170.48 123.95,170.48 123.344,170.48 122.737,170.42 122.252,170.359 121.646,170.238 121.221,170.178 120.735,170.056 
		120.311,169.935 119.825,169.813 119.521,169.632 119.219,169.51 118.794,169.328 118.611,169.207 118.309,168.964 
		118.188,168.782 118.309,168.722 118.188,168.782 	"/>
	<polygon fill-rule="evenodd" clip-rule="evenodd" points="125.467,170.784 125.467,170.784 124.86,170.724 124.254,170.724 
		123.646,170.662 123.04,170.662 122.434,170.541 121.827,170.42 121.342,170.359 120.735,170.238 120.311,170.116 119.825,169.935 
		119.521,169.813 119.097,169.57 118.794,169.389 118.611,169.207 118.309,169.024 118.188,168.782 118.309,168.722 118.49,168.964 
		118.794,169.207 118.915,169.328 119.219,169.51 119.704,169.632 120.007,169.874 120.432,169.935 120.917,170.116 
		121.342,170.238 121.948,170.359 122.434,170.42 123.04,170.48 123.646,170.541 124.254,170.662 124.86,170.662 125.467,170.662 
		125.467,170.784 	"/>
	<polygon fill-rule="evenodd" clip-rule="evenodd" points="133.232,168.175 133.232,168.175 133.232,168.479 133.051,168.722 
		132.929,168.964 132.626,169.207 132.322,169.389 131.837,169.632 131.412,169.813 130.927,170.056 130.32,170.178 
		129.714,170.359 129.107,170.48 128.5,170.541 127.772,170.662 127.166,170.724 126.377,170.724 125.467,170.784 125.467,170.662 
		126.377,170.662 126.983,170.541 127.772,170.541 128.5,170.48 129.107,170.359 129.714,170.238 130.32,170.116 130.806,169.935 
		131.23,169.753 131.716,169.57 132.141,169.328 132.443,169.207 132.626,168.964 132.747,168.722 132.929,168.418 132.929,168.175 
		133.232,168.175 	"/>
	<polygon fill-rule="evenodd" clip-rule="evenodd" points="125.467,165.688 125.467,165.688 126.256,165.688 126.983,165.749 
		127.772,165.749 128.5,165.81 129.107,165.991 129.714,166.112 130.32,166.174 130.927,166.416 131.412,166.598 131.837,166.78 
		132.322,166.962 132.626,167.205 132.929,167.447 133.051,167.751 133.232,167.933 133.232,168.175 132.929,168.175 
		132.929,167.933 132.747,167.751 132.626,167.508 132.443,167.266 132.141,167.022 131.716,166.901 131.23,166.658 
		130.806,166.477 130.32,166.355 129.714,166.174 129.107,166.052 128.5,165.991 127.772,165.87 126.983,165.81 126.256,165.749 
		125.467,165.749 125.467,165.688 	"/>
	<polygon fill-rule="evenodd" clip-rule="evenodd" points="121.342,165.991 121.342,165.991 121.646,165.87 121.827,165.87 
		122.131,165.81 122.252,165.81 122.555,165.81 122.858,165.749 123.162,165.749 123.344,165.749 123.646,165.688 123.95,165.688 
		124.254,165.688 124.557,165.688 124.86,165.688 125.042,165.688 125.346,165.688 125.467,165.688 125.467,165.749 
		125.346,165.749 125.042,165.749 124.86,165.749 124.557,165.749 124.254,165.749 123.95,165.749 123.769,165.81 123.465,165.81 
		123.162,165.81 122.858,165.87 122.555,165.87 122.434,165.87 122.131,165.991 121.827,165.991 121.646,166.052 121.523,166.052 
		121.342,165.991 	"/>
	<polygon fill-rule="evenodd" clip-rule="evenodd" points="111.15,168.722 111.15,168.722 111.757,168.6 112.363,168.418 
		112.97,168.297 113.576,168.114 114.184,167.872 114.79,167.751 115.579,167.508 116.186,167.326 116.792,167.144 117.398,166.901 
		118.005,166.72 118.794,166.598 119.4,166.355 120.007,166.174 120.735,166.052 121.342,165.991 121.523,166.052 120.735,166.174 
		120.129,166.355 119.521,166.477 118.794,166.658 118.188,166.78 117.58,167.022 116.974,167.205 116.367,167.447 115.579,167.568 
		114.972,167.812 114.365,168.054 113.759,168.175 113.152,168.418 112.545,168.6 111.757,168.722 111.15,168.903 111.15,168.722 	
		"/>
	<polygon fill-rule="evenodd" clip-rule="evenodd" points="102.657,168.722 102.778,168.66 103.264,168.782 103.688,168.903 
		104.174,169.024 104.598,169.085 105.205,169.085 105.69,169.207 106.297,169.207 106.782,169.207 107.389,169.207 
		107.995,169.207 108.42,169.085 109.026,169.085 109.512,169.024 110.118,168.964 110.543,168.903 111.15,168.722 111.15,168.903 
		110.726,168.964 110.118,169.024 109.633,169.085 109.026,169.207 108.602,169.268 107.995,169.268 107.389,169.328 
		106.782,169.328 106.297,169.328 105.69,169.268 105.083,169.268 104.598,169.207 103.991,169.085 103.566,169.024 
		103.082,168.903 102.657,168.722 102.778,168.66 102.657,168.722 	"/>
	<polygon fill-rule="evenodd" clip-rule="evenodd" points="96.833,167.751 97.318,167.629 97.804,167.568 98.107,167.508 
		98.41,167.447 98.714,167.326 98.835,167.266 99.139,167.144 99.441,167.022 99.745,166.901 100.048,166.72 100.352,166.658 
		100.837,166.477 101.262,166.416 101.747,166.295 102.354,166.174 103.082,166.052 103.264,166.052 103.566,166.052 
		103.87,165.991 104.174,165.991 104.477,165.991 104.598,165.991 104.901,165.991 105.387,165.991 105.69,165.991 105.993,165.991 
		106.479,165.991 106.782,166.052 107.085,166.112 107.389,166.174 107.692,166.174 107.813,166.295 108.117,166.416 
		108.299,166.477 108.602,166.598 108.724,166.658 108.905,166.78 108.905,166.901 108.905,167.022 109.026,167.144 
		108.905,167.266 108.905,167.447 108.905,167.508 108.724,167.629 108.602,167.751 108.42,167.812 108.299,167.872 
		107.995,167.933 107.813,168.054 107.51,168.114 107.207,168.175 106.903,168.297 106.6,168.297 106.114,168.357 105.812,168.357 
		105.387,168.357 104.901,168.357 104.598,168.357 104.295,168.297 103.991,168.297 103.688,168.175 103.566,168.175 
		103.264,168.114 102.96,168.054 102.778,168.054 102.657,167.933 102.354,167.872 102.172,167.812 102.05,167.751 102.05,167.629 
		101.868,167.508 101.747,167.447 101.868,167.568 101.868,167.629 102.05,167.751 102.172,167.872 102.354,167.933 
		102.657,168.054 102.778,168.114 103.082,168.175 103.264,168.297 103.566,168.297 103.87,168.357 104.174,168.418 
		104.477,168.418 104.901,168.418 105.205,168.479 105.508,168.479 105.993,168.479 106.479,168.418 106.903,168.418 
		107.207,168.357 107.692,168.357 107.995,168.297 108.299,168.175 108.602,168.114 108.724,168.054 109.026,167.872 
		109.209,167.812 109.33,167.629 109.512,167.568 109.512,167.447 109.633,167.266 109.633,167.205 109.633,167.022 
		109.512,166.901 109.512,166.78 109.33,166.658 109.209,166.598 109.209,166.416 108.905,166.355 108.724,166.174 108.42,166.112 
		108.117,166.052 107.813,165.991 107.51,165.87 107.207,165.87 106.782,165.81 106.297,165.81 105.812,165.749 105.508,165.749 
		105.205,165.749 104.901,165.749 104.598,165.81 104.477,165.81 104.295,165.81 103.991,165.81 103.87,165.81 103.082,165.87 
		102.657,165.991 102.05,166.112 101.564,166.174 101.141,166.355 100.655,166.416 100.352,166.598 99.927,166.72 99.624,166.901 
		99.32,167.022 98.835,167.205 98.531,167.266 98.229,167.447 97.804,167.508 97.318,167.629 96.833,167.751 	"/>
	<polygon fill-rule="evenodd" clip-rule="evenodd" points="103.082,166.112 103.082,166.112 102.475,166.174 101.747,166.355 
		101.262,166.416 100.837,166.598 100.352,166.658 100.048,166.78 99.745,166.962 99.441,167.022 99.32,167.205 99.017,167.266 
		98.714,167.447 98.41,167.508 98.107,167.568 97.804,167.629 97.318,167.751 96.833,167.751 96.833,167.629 97.318,167.568 
		97.621,167.568 98.107,167.508 98.41,167.447 98.531,167.266 98.835,167.205 99.139,167.144 99.32,166.962 99.624,166.78 
		99.927,166.72 100.352,166.598 100.655,166.416 101.141,166.355 101.747,166.174 102.354,166.112 103.082,166.052 103.082,166.112 
			"/>
	<polygon fill-rule="evenodd" clip-rule="evenodd" points="105.387,165.991 105.387,165.991 104.901,165.991 104.598,165.991 
		104.477,166.052 104.174,166.052 103.87,166.052 103.566,166.052 103.385,166.112 103.082,166.112 103.082,166.052 
		103.264,165.991 103.566,165.991 103.87,165.991 104.174,165.87 104.477,165.87 104.598,165.87 104.901,165.87 105.387,165.87 
		105.387,165.991 	"/>
	<polygon fill-rule="evenodd" clip-rule="evenodd" points="108.905,167.144 108.905,167.144 108.905,167.022 108.724,166.962 
		108.724,166.78 108.602,166.72 108.42,166.658 108.299,166.477 108.117,166.416 107.813,166.355 107.51,166.295 107.389,166.174 
		107.085,166.112 106.782,166.112 106.479,166.052 105.993,166.052 105.69,165.991 105.387,165.991 105.387,165.87 105.69,165.87 
		105.993,165.87 106.479,165.991 106.782,165.991 107.085,166.052 107.389,166.112 107.692,166.174 107.995,166.295 
		108.299,166.355 108.42,166.416 108.602,166.598 108.724,166.658 108.905,166.78 109.026,166.901 109.026,167.022 109.026,167.144 
		108.905,167.144 	"/>
	<polygon fill-rule="evenodd" clip-rule="evenodd" points="105.387,168.297 105.387,168.297 105.812,168.297 106.114,168.297 
		106.479,168.175 106.903,168.175 107.207,168.114 107.51,168.114 107.692,168.054 107.995,167.933 108.117,167.872 
		108.299,167.812 108.602,167.629 108.602,167.568 108.724,167.508 108.905,167.447 108.905,167.266 108.905,167.144 
		109.026,167.144 109.026,167.266 109.026,167.447 108.905,167.508 108.905,167.629 108.724,167.751 108.602,167.872 
		108.299,167.933 108.117,168.054 107.813,168.114 107.51,168.175 107.207,168.297 106.903,168.297 106.6,168.357 106.114,168.357 
		105.812,168.357 105.387,168.418 105.387,168.297 	"/>
	<polygon fill-rule="evenodd" clip-rule="evenodd" points="101.564,167.447 101.868,167.447 102.05,167.508 102.05,167.568 
		102.172,167.629 102.354,167.751 102.475,167.812 102.657,167.872 102.778,167.933 103.082,168.054 103.264,168.114 
		103.566,168.114 103.688,168.175 103.991,168.175 104.295,168.297 104.598,168.297 104.901,168.297 105.387,168.297 
		105.387,168.418 104.901,168.418 104.598,168.357 104.295,168.357 103.991,168.357 103.688,168.297 103.385,168.297 
		103.264,168.175 102.96,168.114 102.778,168.054 102.475,167.933 102.354,167.872 102.172,167.812 102.05,167.751 101.868,167.629 
		101.747,167.568 101.564,167.447 101.868,167.447 101.564,167.447 	"/>
	<polygon fill-rule="evenodd" clip-rule="evenodd" points="105.508,168.479 105.508,168.479 105.205,168.479 104.901,168.479 
		104.477,168.479 104.174,168.418 103.87,168.418 103.566,168.357 103.264,168.297 102.96,168.297 102.778,168.175 102.475,168.054 
		102.354,167.933 102.172,167.872 102.05,167.812 101.868,167.629 101.747,167.568 101.564,167.447 101.868,167.447 
		101.868,167.508 102.05,167.629 102.172,167.751 102.354,167.812 102.475,167.872 102.657,167.933 102.96,168.054 103.082,168.114 
		103.385,168.175 103.566,168.297 103.87,168.297 104.174,168.357 104.477,168.357 104.901,168.418 105.205,168.418 
		105.508,168.418 105.508,168.479 	"/>
	<polygon fill-rule="evenodd" clip-rule="evenodd" points="109.815,167.205 109.815,167.205 109.633,167.266 109.633,167.447 
		109.512,167.568 109.512,167.751 109.209,167.812 109.026,167.933 108.905,168.054 108.602,168.114 108.299,168.297 
		107.995,168.357 107.692,168.357 107.389,168.418 106.903,168.479 106.479,168.479 105.993,168.479 105.508,168.479 
		105.508,168.418 105.993,168.418 106.479,168.418 106.903,168.357 107.207,168.357 107.692,168.297 107.995,168.175 
		108.299,168.114 108.42,168.054 108.724,167.933 108.905,167.872 109.026,167.751 109.209,167.629 109.33,167.568 109.512,167.447 
		109.512,167.266 109.512,167.205 109.815,167.205 	"/>
	<polygon fill-rule="evenodd" clip-rule="evenodd" points="105.812,165.749 105.812,165.749 106.297,165.749 106.782,165.749 
		107.207,165.81 107.51,165.87 107.995,165.87 108.299,165.991 108.602,166.112 108.724,166.174 109.026,166.295 109.209,166.416 
		109.33,166.477 109.512,166.658 109.633,166.72 109.633,166.901 109.633,167.022 109.815,167.205 109.512,167.205 109.512,167.022 
		109.512,166.901 109.33,166.78 109.33,166.658 109.209,166.598 109.026,166.477 108.905,166.355 108.602,166.295 108.42,166.174 
		108.117,166.112 107.813,166.052 107.51,165.991 107.207,165.87 106.782,165.87 106.297,165.81 105.812,165.81 105.812,165.749 	
		"/>
	<polygon fill-rule="evenodd" clip-rule="evenodd" points="103.87,165.81 103.87,165.81 103.991,165.749 104.174,165.749 
		104.477,165.749 104.598,165.749 104.901,165.749 105.205,165.688 105.508,165.688 105.812,165.749 105.812,165.81 105.508,165.81 
		105.205,165.81 104.901,165.81 104.598,165.81 104.477,165.81 104.295,165.87 103.991,165.87 103.87,165.87 103.87,165.81 	"/>
	<polygon fill-rule="evenodd" clip-rule="evenodd" points="96.833,167.751 96.833,167.629 97.318,167.568 97.804,167.508 
		98.107,167.326 98.531,167.266 98.835,167.144 99.139,166.962 99.624,166.78 99.927,166.658 100.23,166.598 100.655,166.416 
		101.141,166.295 101.564,166.112 102.05,166.052 102.475,165.991 103.082,165.81 103.87,165.81 103.87,165.87 103.082,165.991 
		102.657,166.052 102.05,166.112 101.564,166.295 101.141,166.355 100.837,166.477 100.352,166.658 100.048,166.78 99.624,166.962 
		99.32,167.022 99.017,167.205 98.531,167.326 98.229,167.508 97.804,167.568 97.318,167.629 96.833,167.751 96.833,167.629 
		96.833,167.751 	"/>
	<polygon fill-rule="evenodd" clip-rule="evenodd" points="111.757,167.872 112.363,167.629 112.97,167.508 113.576,167.266 
		114.184,167.022 114.79,166.78 115.457,166.598 116.186,166.416 116.792,166.174 117.58,166.052 118.309,165.81 118.915,165.688 
		119.704,165.506 120.311,165.324 121.038,165.203 121.827,165.021 122.434,164.899 123.162,164.839 123.95,164.718 
		124.557,164.657 125.346,164.657 125.952,164.596 126.681,164.596 127.287,164.596 127.894,164.657 128.5,164.718 129.107,164.839 
		129.714,164.96 130.32,165.143 130.927,165.264 131.533,165.506 132.02,165.749 132.626,166.052 132.02,165.81 131.23,165.688 
		130.624,165.506 130.017,165.324 129.41,165.264 128.804,165.203 128.197,165.143 127.591,165.021 126.983,165.021 126.377,164.96 
		125.771,164.96 125.164,165.021 124.436,165.021 123.769,165.143 123.162,165.203 122.555,165.264 121.827,165.324 
		121.221,165.506 120.614,165.566 120.007,165.749 119.219,165.87 118.611,166.052 118.005,166.174 117.277,166.355 
		116.671,166.477 115.882,166.72 115.275,166.901 114.486,167.144 113.88,167.266 113.152,167.508 112.363,167.629 111.757,167.872 
			"/>
	<polygon fill-rule="evenodd" clip-rule="evenodd" points="96.226,167.812 96.712,167.568 97.015,167.447 97.5,167.205 
		97.804,167.022 98.229,166.901 98.714,166.658 99.139,166.477 99.624,166.355 100.048,166.174 100.533,166.052 100.837,165.87 
		101.262,165.749 101.747,165.566 102.172,165.445 102.657,165.324 103.082,165.264 103.566,165.143 103.991,165.021 
		104.477,165.021 104.901,164.96 105.387,164.96 105.812,164.96 106.114,164.96 106.6,165.021 107.085,165.021 107.389,165.203 
		107.813,165.264 108.117,165.445 108.602,165.566 108.905,165.749 109.209,165.991 109.512,166.174 109.209,166.052 
		108.724,165.87 108.42,165.749 107.995,165.688 107.692,165.506 107.207,165.445 106.782,165.445 106.479,165.324 105.993,165.324 
		105.508,165.324 105.205,165.324 104.78,165.324 104.295,165.324 103.991,165.445 103.566,165.506 103.082,165.566 
		102.778,165.688 102.354,165.749 101.868,165.81 101.564,165.991 101.141,166.052 100.655,166.174 100.23,166.355 99.745,166.416 
		99.441,166.598 99.017,166.72 98.531,166.962 98.107,167.144 97.621,167.266 97.137,167.447 96.712,167.568 96.226,167.812 	"/>
	<polygon fill-rule="evenodd" clip-rule="evenodd" points="99.927,168.297 100.23,168.479 100.655,168.66 101.141,168.782 
		101.443,169.024 101.868,169.207 102.354,169.328 102.778,169.57 103.264,169.753 103.566,169.874 103.991,170.056 
		104.477,170.178 104.901,170.359 105.387,170.48 105.812,170.662 106.297,170.724 106.782,170.784 107.207,170.845 
		107.692,170.966 108.117,171.026 108.602,171.087 109.026,171.087 109.512,171.087 109.815,171.087 110.24,171.026 
		110.726,170.966 111.028,170.845 111.453,170.784 111.757,170.662 112.242,170.48 112.545,170.359 112.849,170.116 
		113.152,169.874 112.849,170.056 112.363,170.178 112.061,170.359 111.636,170.42 111.15,170.48 110.847,170.662 110.422,170.662 
		110.118,170.724 109.633,170.724 109.209,170.724 108.905,170.724 108.42,170.724 107.995,170.724 107.692,170.662 
		107.207,170.541 106.782,170.48 106.479,170.42 105.993,170.359 105.508,170.238 105.083,170.116 104.78,170.056 104.295,169.874 
		103.87,169.753 103.385,169.57 102.96,169.389 102.657,169.268 102.172,169.085 101.747,168.964 101.262,168.782 100.837,168.66 
		100.352,168.479 99.927,168.297 	"/>
	<polygon fill-rule="evenodd" clip-rule="evenodd" points="94.709,174.909 95.013,174.849 95.316,174.728 95.802,174.424 
		96.105,173.999 96.226,173.574 96.408,173.028 96.408,172.482 96.226,171.876 94.709,168.903 93.193,171.876 92.89,172.482 
		92.89,173.028 93.072,173.574 93.375,173.999 93.678,174.424 93.981,174.728 94.285,174.849 94.709,174.909 	"/>
	<polygon fill-rule="evenodd" clip-rule="evenodd" points="100.533,172.726 100.533,172.543 100.655,172.422 100.655,172.18 
		100.533,171.876 100.23,171.512 99.927,171.209 99.32,170.784 98.714,170.48 95.316,168.903 97.015,171.026 97.318,171.27 
		97.5,171.512 97.621,171.633 97.925,171.815 98.229,171.997 98.41,172.119 98.714,172.24 99.017,172.301 99.139,172.482 
		99.441,172.543 99.624,172.665 99.927,172.665 100.048,172.726 100.23,172.726 100.352,172.726 100.533,172.726 	"/>
	<polygon fill-rule="evenodd" clip-rule="evenodd" points="88.825,172.665 88.643,172.543 88.643,172.301 88.643,172.119 
		88.825,171.815 89.128,171.512 89.432,171.087 89.856,170.784 90.645,170.42 93.981,168.782 92.283,170.966 92.162,171.209 
		91.858,171.391 91.676,171.572 91.373,171.815 91.07,171.937 90.948,172.119 90.645,172.18 90.342,172.301 90.16,172.422 
		89.856,172.482 89.735,172.543 89.432,172.665 89.25,172.665 89.128,172.665 88.946,172.665 88.825,172.665 	"/>
	<polygon fill-rule="evenodd" clip-rule="evenodd" points="98.229,163.504 97.925,163.687 97.804,163.747 97.5,163.868 
		97.137,164.05 96.833,164.232 96.408,164.354 96.105,164.414 95.802,164.596 95.499,164.718 95.195,164.899 94.892,165.021 
		94.588,165.143 94.103,165.264 93.981,165.324 93.678,165.506 93.375,165.566 93.072,165.566 92.769,165.566 92.465,165.445 
		91.979,165.324 91.676,165.203 91.373,164.96 90.948,164.839 90.645,164.657 90.16,164.535 89.856,164.354 89.553,164.293 
		89.25,164.232 88.946,164.293 88.643,164.354 88.461,164.596 88.34,164.899 88.34,164.839 88.461,164.718 88.643,164.657 
		88.643,164.596 88.825,164.596 88.946,164.535 89.25,164.535 89.553,164.596 89.856,164.657 90.038,164.839 90.342,164.899 
		90.645,165.021 90.948,165.203 91.07,165.324 91.373,165.445 91.676,165.566 91.979,165.688 92.162,165.749 92.465,165.81 
		92.769,165.81 93.072,165.81 93.193,165.749 99.017,163.564 98.531,163.201 98.107,162.837 97.804,162.533 97.5,162.291 
		97.137,161.987 96.833,161.745 96.712,161.502 96.408,161.32 96.226,161.139 96.105,160.835 95.923,160.592 95.62,160.35 
		95.499,160.046 95.316,159.743 95.013,159.379 94.892,159.015 94.892,159.318 95.013,159.622 95.195,159.864 95.316,160.168 
		95.499,160.471 95.62,160.774 95.802,161.077 96.105,161.381 96.226,161.685 96.529,161.927 96.833,162.23 97.015,162.533 
		97.318,162.776 97.621,163.079 97.925,163.262 98.229,163.504 	"/>
	<polygon fill-rule="evenodd" clip-rule="evenodd" points="91.555,163.504 91.676,163.564 91.979,163.747 92.283,163.868 
		92.586,164.05 92.89,164.111 93.193,164.293 93.496,164.414 93.981,164.596 94.285,164.718 94.588,164.899 94.892,164.96 
		95.195,165.143 95.499,165.203 95.802,165.324 96.105,165.445 96.408,165.506 96.712,165.566 97.015,165.506 97.318,165.445 
		97.621,165.264 98.107,165.143 98.41,164.96 98.714,164.718 99.139,164.596 99.441,164.414 99.927,164.293 100.23,164.232 
		100.533,164.232 100.837,164.232 100.958,164.354 101.262,164.596 101.443,164.899 101.443,164.839 101.262,164.718 
		101.262,164.657 101.141,164.657 101.141,164.596 100.958,164.535 100.837,164.535 100.655,164.535 100.533,164.535 
		100.23,164.596 99.927,164.657 99.624,164.718 99.32,164.899 99.139,164.96 98.835,165.143 98.531,165.264 98.41,165.445 
		98.107,165.506 97.804,165.688 97.5,165.749 97.318,165.81 97.015,165.81 96.712,165.749 96.408,165.688 90.767,163.504 
		91.252,163.14 91.555,162.837 91.979,162.533 92.283,162.23 92.586,161.987 92.769,161.745 93.072,161.502 93.193,161.32 
		93.375,161.077 93.678,160.835 93.8,160.592 93.981,160.289 94.285,159.985 94.406,159.683 94.588,159.318 94.892,158.894 
		94.709,159.197 94.709,159.5 94.588,159.864 94.406,160.168 94.285,160.471 94.103,160.774 93.8,161.077 93.678,161.32 
		93.375,161.623 93.193,161.927 92.89,162.23 92.586,162.412 92.283,162.776 92.162,162.958 91.858,163.262 91.555,163.504 	"/>
	<path fill-rule="evenodd" clip-rule="evenodd" fill="#ED1C24" d="M23.853,152.888c-0.971,0.425-1.76,1.092-2.487,1.941
		c-0.667,0.849-1.153,1.881-1.517,3.094c0.789-0.121,1.517-0.606,2.184-1.456C22.76,155.557,23.367,154.404,23.853,152.888
		L23.853,152.888z M29.979,150.34c0.849-0.425,1.456-1.031,1.941-1.699c0.425-0.667,0.667-1.395,0.667-2.244v-0.242
		c-0.546,0.485-1.032,1.031-1.457,1.698C30.647,148.58,30.283,149.369,29.979,150.34L29.979,150.34z M25.308,152.402
		c-0.424,1.152-0.97,2.184-1.638,3.094c-0.667,0.85-1.396,1.577-2.245,2.185c-0.546,0.363-1.092,0.606-1.699,0.849
		c-0.546,0.243-0.971,0.364-1.274,0.364c-0.061,0-0.122-0.061-0.182-0.061c-0.061-0.061-0.061-0.061-0.061-0.121
		c0-0.183,0.121-0.546,0.364-1.031s0.606-1.031,0.971-1.517c0.667-0.91,1.396-1.639,2.124-2.306
		c0.728-0.606,1.517-1.152,2.366-1.577c0.061-0.425,0.122-0.85,0.182-1.214s0.061-0.788,0.061-1.152
		c0-1.517-0.364-2.608-1.092-3.337c-0.728-0.788-1.82-1.152-3.276-1.152c-1.335,0-2.427,0.364-3.337,0.971
		c-0.849,0.667-1.334,1.456-1.334,2.427c0,1.092,0.485,1.941,1.456,2.548c0.91,0.606,2.245,0.91,3.943,0.91l0.121,0.121v0.182
		l-0.121,0.122c-2.063,0-3.64-0.364-4.854-1.092c-1.152-0.668-1.759-1.639-1.759-2.852c0-1.092,0.546-2.002,1.578-2.73
		c1.092-0.728,2.487-1.092,4.186-1.092c1.881,0,3.336,0.485,4.368,1.335c1.031,0.85,1.577,2.062,1.577,3.579
		c0,0.364-0.061,0.667-0.061,1.031c-0.061,0.364-0.122,0.667-0.243,1.092c0.546-0.121,1.092-0.242,1.638-0.363
		c0.485-0.183,0.97-0.364,1.395-0.547c0.971-1.819,2.002-3.336,3.154-4.61c1.153-1.273,1.941-1.881,2.366-1.881
		c0.061,0,0.121,0,0.121,0.061c0.061,0.062,0.061,0.122,0.061,0.183c0,0.364-0.122,0.91-0.425,1.577
		c-0.243,0.729-0.606,1.396-1.031,2.002c-0.424,0.606-0.849,1.092-1.335,1.517c-0.485,0.425-1.031,0.788-1.577,1.031
		c-0.364,1.152-0.667,2.123-0.849,3.094c-0.243,0.91-0.303,1.699-0.303,2.306c0,0.667,0.121,1.152,0.364,1.517
		c0.303,0.364,0.667,0.546,1.153,0.546c0.606,0,1.334-0.425,2.184-1.273c0.789-0.85,1.82-2.185,3.094-4.005
		c0,0.062,0.061,0.062,0.061,0.122s0,0.061,0,0.121c0,0.182-0.122,0.485-0.303,0.85c-0.243,0.363-0.667,0.909-1.213,1.698
		c-0.789,1.031-1.517,1.76-2.123,2.245c-0.667,0.546-1.274,0.788-1.881,0.788c-0.789,0-1.395-0.304-1.88-0.971
		c-0.485-0.606-0.728-1.456-0.728-2.487c0-0.606,0.061-1.213,0.243-1.82c0.121-0.667,0.303-1.334,0.546-2.001
		c-0.546,0.182-1.092,0.363-1.517,0.485C26.158,152.281,25.733,152.342,25.308,152.402L25.308,152.402z M34.59,156.164
		c0.91-0.243,1.699-0.668,2.306-1.274c0.546-0.606,0.849-1.274,0.849-2.002c0-0.242-0.061-0.425-0.121-0.546
		c-0.122-0.121-0.303-0.182-0.485-0.182c-0.546,0-1.032,0.363-1.578,1.092C35.075,154.04,34.772,155.011,34.59,156.164
		L34.59,156.164z M41.688,153.13c0,0.062,0,0.062,0.061,0.122c0,0,0,0.061,0,0.121c0,0.182-0.061,0.425-0.243,0.728
		c-0.121,0.243-0.303,0.606-0.606,1.031c-0.849,1.214-1.759,2.124-2.669,2.791c-0.91,0.606-1.82,0.971-2.669,0.971
		c-0.728,0-1.274-0.243-1.698-0.728c-0.364-0.425-0.607-1.031-0.607-1.82c0-0.485,0.122-1.031,0.364-1.577
		c0.182-0.546,0.546-1.093,0.97-1.639c0.364-0.424,0.789-0.788,1.274-1.092c0.486-0.242,0.971-0.363,1.457-0.363
		c0.424,0,0.849,0.121,1.152,0.363c0.303,0.243,0.425,0.607,0.425,1.031c0,0.606-0.364,1.274-1.153,1.941s-1.881,1.153-3.155,1.577
		c0,0.547,0.122,0.971,0.364,1.274c0.303,0.304,0.606,0.425,1.092,0.425c0.789,0,1.699-0.425,2.73-1.335
		C39.747,156.042,40.717,154.769,41.688,153.13L41.688,153.13z M42.598,153.858c0.728-0.971,1.274-1.881,1.638-2.852
		c0.364-0.91,0.546-1.881,0.546-2.729c0-0.304,0-0.546-0.061-0.85c0-0.364-0.061-0.667-0.121-1.031
		c-0.485,1.031-0.91,2.123-1.274,3.397C43.022,151.067,42.78,152.402,42.598,153.858L42.598,153.858z M42.537,154.646
		c-0.061,0.364-0.121,0.668-0.182,0.971c0,0.304,0,0.547,0,0.729c0,0.606,0.061,1.031,0.182,1.335
		c0.182,0.242,0.425,0.424,0.728,0.424c0.485,0,1.092-0.363,1.759-1.152c0.667-0.728,1.638-2.002,2.852-3.822
		c0,0.062,0,0.122,0,0.183s0,0.121,0,0.182s-0.061,0.304-0.243,0.606c-0.182,0.364-0.425,0.729-0.789,1.214
		c-0.85,1.213-1.578,2.123-2.245,2.669c-0.667,0.606-1.213,0.85-1.76,0.85c-0.546,0-0.97-0.183-1.334-0.606
		c-0.303-0.485-0.424-1.092-0.424-1.82c0-0.425,0.061-0.971,0.121-1.638c0.122-0.668,0.303-1.517,0.546-2.487
		c0.182-0.789,0.425-1.578,0.667-2.366c0.303-0.789,0.667-1.577,1.031-2.427c0.364-0.728,0.667-1.334,1.031-1.82
		c0.304-0.484,0.607-0.849,0.85-1.031h0.182c0.122,0.122,0.182,0.304,0.243,0.547c0.061,0.242,0.061,0.546,0.061,0.91
		c0,1.395-0.243,2.851-0.85,4.246C44.418,151.796,43.629,153.252,42.537,154.646L42.537,154.646z M51.698,152.463
		c-0.061-0.061-0.243-0.182-0.364-0.242c-0.182-0.061-0.303-0.061-0.485-0.061c-0.304,0-0.667,0.121-0.971,0.363
		c-0.364,0.304-0.728,0.668-1.092,1.214c-0.485,0.667-0.849,1.334-1.092,1.94c-0.243,0.547-0.364,1.093-0.364,1.578
		c0,0.242,0.061,0.485,0.182,0.606c0.061,0.182,0.243,0.242,0.425,0.242c0.424,0,1.031-0.485,1.699-1.517
		C50.303,155.617,51.03,154.223,51.698,152.463L51.698,152.463z M50.727,155.557c-0.606,1.153-1.152,1.941-1.638,2.487
		c-0.486,0.485-0.971,0.729-1.396,0.729c-0.485,0-0.91-0.183-1.213-0.546c-0.243-0.364-0.425-0.91-0.425-1.577
		c0-0.607,0.182-1.214,0.546-1.881c0.303-0.668,0.789-1.274,1.456-1.881c0.425-0.364,0.849-0.667,1.335-0.85
		c0.485-0.242,1.031-0.303,1.517-0.303c0.303,0,0.606,0,0.91,0.061c0.243,0.061,0.546,0.182,0.85,0.303l0.061,0.122v0.061
		c0,0.182-0.061,0.485-0.243,0.971c-0.061,0.242-0.122,0.485-0.182,0.606l-0.849,3.094c-0.061,0.061-0.061,0.061-0.061,0.061
		c-0.061,0.304-0.061,0.546-0.061,0.668c0,0.121,0,0.182,0.061,0.303c0.121,0.061,0.182,0.121,0.303,0.121
		c0.303,0,0.728-0.363,1.396-1.092c0.606-0.728,1.517-2.002,2.729-3.761c0.061,0,0.061,0.061,0.061,0.121s0,0.061,0,0.121
		c0,0.243-0.182,0.606-0.607,1.213l-0.061,0.122l-0.121,0.182c-1.881,2.487-3.155,3.762-3.943,3.762
		c-0.303,0-0.546-0.061-0.728-0.243c-0.121-0.182-0.243-0.425-0.243-0.728c0-0.183,0.061-0.425,0.122-0.789
		C50.424,156.649,50.545,156.164,50.727,155.557L50.727,155.557z M59.463,152.646c-0.121-0.122-0.243-0.243-0.364-0.364
		c-0.122-0.061-0.243-0.061-0.425-0.061s-0.425,0.061-0.728,0.242c-0.243,0.183-0.546,0.485-0.849,0.91
		c-0.546,0.667-0.971,1.334-1.274,2.002c-0.303,0.729-0.424,1.335-0.424,1.881c0,0.303,0.061,0.485,0.182,0.667
		c0.122,0.182,0.304,0.243,0.486,0.243c0.485,0,1.031-0.485,1.699-1.517C58.371,155.617,58.978,154.283,59.463,152.646
		L59.463,152.646z M58.614,155.86c-0.546,1.031-1.031,1.759-1.517,2.244c-0.425,0.485-0.849,0.729-1.335,0.729
		c-0.485,0-0.849-0.183-1.152-0.546c-0.303-0.425-0.485-0.91-0.485-1.517s0.182-1.214,0.424-1.82
		c0.243-0.667,0.667-1.213,1.153-1.759c0.485-0.485,0.91-0.85,1.456-1.093c0.485-0.242,0.971-0.363,1.395-0.363
		c0.182,0,0.304,0,0.485,0.061c0.182,0.061,0.364,0.121,0.546,0.182l1.456-5.642l0,0c0.061-0.242,0.122-0.364,0.304-0.425
		l0.789-0.121l0,0c0.061,0,0.121,0.061,0.182,0.061c0,0.061,0,0.061,0,0.121s0,0.122,0,0.183v0.061l-2.791,10.616
		c-0.061,0.242-0.121,0.425-0.182,0.546c0,0.061,0,0.182,0,0.242c0,0.183,0,0.364,0.061,0.425s0.182,0.122,0.243,0.122
		c0.303,0,0.667-0.304,1.274-0.971c0.546-0.668,1.517-1.941,2.851-3.943c0,0.061,0.061,0.061,0.061,0.121s0,0.121,0,0.182
		c0,0.243-0.364,0.85-1.031,1.82l-0.182,0.242c-0.91,1.274-1.578,2.124-2.063,2.549c-0.485,0.424-0.971,0.667-1.395,0.667
		c-0.303,0-0.546-0.121-0.667-0.304c-0.182-0.121-0.303-0.363-0.303-0.606c0-0.242,0.061-0.546,0.122-0.85
		C58.371,156.771,58.492,156.346,58.614,155.86L58.614,155.86z M68.138,156.649c0,0.182,0.061,0.242,0.182,0.363
		c0.061,0.061,0.182,0.061,0.304,0.061c0.243,0,0.607-0.242,1.092-0.788c0.485-0.546,1.274-1.639,2.427-3.216
		c0,0,0,0.061,0.061,0.061c0,0.062,0,0.122,0,0.122c0,0.182-0.061,0.363-0.182,0.606c-0.121,0.182-0.364,0.546-0.667,0.971
		c-0.85,1.213-1.517,2.062-1.941,2.427c-0.424,0.425-0.85,0.606-1.153,0.606c-0.121,0-0.303,0-0.424-0.061
		c-0.122-0.061-0.243-0.183-0.304-0.304c-0.485,0.485-0.91,0.85-1.395,1.092c-0.425,0.183-0.85,0.304-1.335,0.304
		c-0.728,0-1.334-0.243-1.82-0.667c-0.424-0.485-0.667-1.092-0.667-1.881c0-0.546,0.121-1.092,0.364-1.639
		c0.243-0.484,0.546-1.031,1.031-1.516c0.425-0.485,0.91-0.85,1.456-1.153c0.485-0.242,1.031-0.363,1.517-0.363
		c0.607,0,1.153,0.242,1.577,0.728c0.425,0.485,0.607,1.092,0.607,1.82c0,0.363-0.061,0.788-0.182,1.213
		C68.562,155.8,68.381,156.225,68.138,156.649L68.138,156.649z M67.896,153.494c-0.122-0.485-0.243-0.849-0.485-1.092
		c-0.243-0.182-0.485-0.304-0.849-0.304c-0.182,0-0.364,0-0.546,0.122c-0.182,0.121-0.364,0.242-0.546,0.425
		c-0.546,0.484-0.91,1.092-1.274,1.88c-0.303,0.729-0.485,1.456-0.485,2.185c0,0.546,0.122,0.971,0.364,1.273
		c0.243,0.304,0.546,0.485,0.91,0.485s0.667-0.182,1.032-0.425c0.364-0.303,0.728-0.728,1.031-1.273
		c0-0.121-0.061-0.243-0.061-0.364c-0.061-0.121-0.061-0.242-0.061-0.364c0-0.425,0.121-0.85,0.243-1.273
		C67.35,154.344,67.592,153.919,67.896,153.494L67.896,153.494z M74.205,158.348c-0.303,0.182-0.667,0.303-0.97,0.364
		c-0.243,0.061-0.546,0.121-0.85,0.121c-0.607,0-1.031-0.121-1.396-0.304c-0.364-0.242-0.546-0.485-0.546-0.849
		c0-0.243,0.122-0.425,0.303-0.607c0.243-0.182,0.485-0.242,0.85-0.242c0.061,0,0.182,0,0.243,0
		c0.121,0.061,0.182,0.061,0.303,0.061v0.121c-0.122,0.061-0.243,0.183-0.303,0.304c-0.061,0.121-0.122,0.242-0.122,0.364
		c0,0.182,0.122,0.363,0.303,0.485c0.182,0.182,0.425,0.242,0.728,0.242c0.486,0,0.91-0.121,1.213-0.364
		c0.304-0.242,0.485-0.606,0.485-0.971c0-0.242-0.061-0.424-0.243-0.667c-0.121-0.182-0.424-0.485-0.97-0.91
		c-0.607-0.425-0.971-0.789-1.153-1.031c-0.182-0.242-0.304-0.485-0.304-0.789c0-0.484,0.304-0.97,0.91-1.395
		c0.546-0.425,1.274-0.606,2.063-0.606c0.485,0,0.849,0.061,1.031,0.242c0.242,0.121,0.364,0.364,0.364,0.667
		c0,0.243-0.122,0.485-0.425,0.668c-0.243,0.182-0.546,0.303-0.97,0.303l-0.061-0.061c0.122-0.121,0.243-0.242,0.303-0.364
		c0.061-0.121,0.061-0.242,0.061-0.424c0-0.183-0.061-0.304-0.182-0.425c-0.182-0.121-0.364-0.121-0.606-0.121
		c-0.364,0-0.667,0.061-0.91,0.242s-0.364,0.425-0.364,0.728c0,0.364,0.304,0.789,1.032,1.335c0.243,0.182,0.424,0.304,0.546,0.425
		c0.364,0.242,0.606,0.546,0.789,0.788c0.121,0.243,0.243,0.547,0.243,0.85c0,0.183-0.061,0.364-0.182,0.546
		c-0.061,0.243-0.243,0.425-0.425,0.607c0.546-0.062,1.153-0.485,1.881-1.335c0.667-0.789,1.456-1.941,2.305-3.337
		c0.061,0,0.061,0.061,0.061,0.061c0,0.061,0.061,0.122,0.061,0.122c0,0.242-0.122,0.484-0.304,0.849
		c-0.182,0.364-0.424,0.789-0.789,1.274c-0.728,1.031-1.395,1.759-2.062,2.244C75.539,158.044,74.872,158.287,74.205,158.348
		L74.205,158.348z M96.712,151.614c-0.91-0.607-1.76-0.972-2.609-1.274c-0.85-0.304-1.638-0.425-2.366-0.425
		c-0.85,0-1.517,0.182-2.063,0.485c-0.546,0.364-0.789,0.789-0.789,1.396c0,0.788,0.485,1.456,1.456,2.002s2.245,0.849,3.882,0.971
		c0.303-0.243,0.607-0.607,1.032-1.153C95.62,153.13,96.105,152.463,96.712,151.614L96.712,151.614z M102.657,145.668
		c-0.729,0.243-2.063,2.003-4.064,5.278l-0.607,0.971c0.364,0.243,0.729,0.485,0.971,0.667c0.304,0.243,0.546,0.425,0.729,0.607
		c0.546-1.881,1.092-3.397,1.577-4.672C101.808,147.246,102.232,146.275,102.657,145.668L102.657,145.668z M100.412,154.525
		c-0.061,0.243-0.121,0.546-0.182,0.789c0,0.303-0.061,0.546-0.061,0.85c0,0.485,0.061,0.909,0.242,1.213
		c0.121,0.364,0.304,0.606,0.606,0.85c0.122-0.243,0.183-0.485,0.243-0.729c0-0.242,0.061-0.485,0.061-0.728
		c0-0.425-0.061-0.85-0.243-1.214C100.958,155.192,100.716,154.829,100.412,154.525L100.412,154.525z M100.533,153.858
		c0.485,0.606,0.789,1.152,1.031,1.759c0.243,0.607,0.364,1.274,0.364,1.941c0,0.485-0.061,0.85-0.121,1.092
		c0,0.243-0.121,0.364-0.183,0.364c-0.061,0-0.182-0.061-0.363-0.182c-0.183-0.121-0.364-0.243-0.606-0.425
		c-0.425-0.364-0.729-0.85-0.971-1.335c-0.183-0.485-0.304-1.092-0.304-1.698c0-0.304,0-0.546,0.061-0.85
		c0-0.242,0.061-0.546,0.183-0.85c-0.243-0.182-0.546-0.424-0.85-0.667c-0.304-0.182-0.606-0.425-1.031-0.667
		c-0.364,0.546-0.668,1.031-0.971,1.396c-0.304,0.424-0.607,0.788-0.85,1.092h0.485c0.121,0,0.243,0,0.425,0
		c0.182-0.061,0.425-0.061,0.728-0.061l0.122,0.061v0.242l-0.062,0.061c-0.182,0-0.424,0.061-0.667,0.061
		c-0.242,0.062-0.546,0.062-0.91,0.062h-0.546c-1.092,1.092-2.245,2.002-3.397,2.608c-1.213,0.546-2.366,0.85-3.519,0.85
		c-1.213,0-2.124-0.183-2.912-0.668c-0.789-0.485-1.153-1.031-1.153-1.638c0-0.546,0.182-0.971,0.607-1.274
		c0.425-0.303,0.971-0.425,1.638-0.425c0.546,0,1.092,0.062,1.577,0.183s0.971,0.364,1.456,0.606v0.182l-0.061,0.122l-0.121,0.061
		c-0.485-0.243-0.91-0.364-1.213-0.485c-0.364-0.121-0.728-0.121-1.031-0.121c-0.546,0-0.91,0.121-1.213,0.303
		c-0.303,0.243-0.424,0.607-0.424,1.031c0,0.485,0.243,0.91,0.789,1.214c0.606,0.364,1.274,0.546,2.123,0.546
		c0.789,0,1.638-0.304,2.487-0.85c0.91-0.485,1.82-1.273,2.791-2.306c-1.82-0.182-3.276-0.606-4.307-1.273
		c-1.092-0.667-1.577-1.456-1.577-2.366c0-0.667,0.243-1.152,0.849-1.577c0.546-0.364,1.274-0.606,2.245-0.606
		s1.941,0.182,2.912,0.485c0.971,0.303,1.941,0.728,2.912,1.335c1.274-1.941,2.548-3.519,3.762-4.732
		c1.273-1.152,2.244-1.698,2.973-1.698c0.121,0,0.182,0,0.182,0c0.061,0.061,0.061,0.121,0.061,0.182
		c0,0.121-0.364,1.214-1.152,3.154C101.989,150.097,101.201,152.038,100.533,153.858L100.533,153.858z M111.453,153.009
		c0,0.061,0,0.121,0,0.183c0.061,0,0.061,0.061,0.061,0.061c0,0.303-0.303,0.849-0.85,1.638c-0.121,0.121-0.182,0.242-0.242,0.303
		c-1.152,1.578-1.941,2.549-2.427,2.974c-0.485,0.424-0.971,0.667-1.396,0.667c-0.424,0-0.728-0.121-0.909-0.304
		c-0.243-0.242-0.364-0.546-0.364-0.971c0-0.485,0.182-1.092,0.546-1.881c0.364-0.788,0.85-1.698,1.517-2.669
		c-0.364,0.243-0.729,0.425-1.092,0.546c-0.304,0.183-0.606,0.243-0.789,0.243c-0.242,0-0.425-0.061-0.546-0.183
		c-0.121-0.121-0.182-0.303-0.182-0.546c0-0.363,0.121-0.728,0.364-1.031c0.242-0.363,0.484-0.546,0.849-0.546v0.061
		c-0.061,0.122-0.121,0.304-0.182,0.364c0,0.121-0.061,0.182-0.061,0.243c0,0.182,0.061,0.303,0.182,0.424
		c0.061,0.062,0.243,0.122,0.425,0.122s0.425-0.061,0.788-0.183c0.364-0.121,0.85-0.303,1.518-0.546l0.121,0.061
		c-0.971,2.062-1.577,3.458-1.82,4.065c-0.242,0.667-0.364,1.152-0.364,1.395c0,0.121,0.061,0.304,0.122,0.425
		c0.121,0.061,0.242,0.121,0.363,0.121c0.304,0,0.729-0.303,1.335-0.909C108.966,156.527,109.937,155.132,111.453,153.009
		L111.453,153.009z M110.664,155.557l0.789-2.851h-1.092v-0.122l0.061-0.303l0.121-0.121h1.093l0.788-2.549
		c0.061-0.182,0.121-0.303,0.183-0.363c0.061-0.061,0.121-0.122,0.242-0.122l0.667-0.182h0.061c0.062,0,0.122,0,0.122,0.061
		c0.061,0,0.061,0.061,0.061,0.061c0,0.061,0,0.122,0,0.122v0.061l-0.85,2.912h1.031v0.121l-0.061,0.303l-0.061,0.122h-1.031
		l-1.152,4.064c-0.061,0.182-0.122,0.364-0.122,0.485c-0.061,0.182-0.061,0.303-0.061,0.425c0,0.121,0.061,0.242,0.122,0.363
		c0.121,0.061,0.242,0.122,0.363,0.122c0.425,0,0.971-0.425,1.699-1.214c0.728-0.849,1.638-2.123,2.729-3.822
		c0,0.062,0,0.062,0,0.122s0,0.121,0,0.182c0,0.304-0.303,0.91-0.85,1.759h-0.061c-0.909,1.335-1.638,2.245-2.244,2.791
		s-1.214,0.85-1.699,0.85c-0.424,0-0.728-0.121-0.971-0.304c-0.182-0.242-0.303-0.546-0.303-0.971c0-0.182,0-0.424,0.121-0.728
		C110.422,156.467,110.543,156.042,110.664,155.557L110.664,155.557z M116.307,156.164c0.91-0.243,1.698-0.668,2.244-1.274
		c0.607-0.606,0.91-1.274,0.91-2.002c0-0.242-0.061-0.425-0.182-0.546s-0.243-0.182-0.485-0.182c-0.485,0-1.031,0.363-1.517,1.092
		C116.792,154.04,116.428,155.011,116.307,156.164L116.307,156.164z M123.404,153.13c0,0.062,0,0.062,0,0.122
		c0.061,0,0.061,0.061,0.061,0.121c0,0.182-0.061,0.425-0.242,0.728c-0.122,0.243-0.364,0.606-0.607,1.031
		c-0.849,1.214-1.759,2.124-2.669,2.791c-0.91,0.606-1.819,0.971-2.669,0.971c-0.729,0-1.274-0.243-1.698-0.728
		c-0.425-0.425-0.607-1.031-0.607-1.82c0-0.485,0.122-1.031,0.304-1.577c0.242-0.546,0.606-1.093,1.031-1.639
		c0.364-0.424,0.789-0.788,1.273-1.092c0.485-0.242,0.971-0.363,1.456-0.363c0.425,0,0.85,0.121,1.153,0.363
		c0.303,0.243,0.425,0.607,0.425,1.031c0,0.606-0.364,1.274-1.153,1.941c-0.788,0.667-1.881,1.153-3.154,1.577
		c0,0.547,0.121,0.971,0.364,1.274c0.242,0.304,0.606,0.425,1.092,0.425c0.788,0,1.698-0.425,2.729-1.335
		C121.463,156.042,122.434,154.769,123.404,153.13L123.404,153.13z M125.467,158.348c-0.303,0.182-0.606,0.303-0.91,0.364
		c-0.303,0.061-0.606,0.121-0.91,0.121c-0.546,0-1.031-0.121-1.395-0.304c-0.364-0.242-0.546-0.485-0.546-0.849
		c0-0.243,0.121-0.425,0.303-0.607c0.243-0.182,0.485-0.242,0.85-0.242c0.061,0,0.182,0,0.242,0
		c0.122,0.061,0.183,0.061,0.304,0.061v0.121c-0.121,0.061-0.242,0.183-0.304,0.304c-0.061,0.121-0.121,0.242-0.121,0.364
		c0,0.182,0.121,0.363,0.304,0.485c0.182,0.182,0.425,0.242,0.728,0.242c0.485,0,0.91-0.121,1.214-0.364
		c0.303-0.242,0.485-0.606,0.485-0.971c0-0.242-0.061-0.424-0.243-0.667c-0.121-0.182-0.425-0.485-0.971-0.91
		c-0.606-0.425-0.971-0.789-1.152-1.031s-0.243-0.485-0.243-0.789c0-0.484,0.243-0.97,0.85-1.395s1.274-0.606,2.062-0.606
		c0.485,0,0.85,0.061,1.031,0.242c0.243,0.121,0.364,0.364,0.364,0.667c0,0.243-0.121,0.485-0.364,0.668
		c-0.303,0.182-0.606,0.303-1.031,0.303l-0.061-0.061c0.183-0.121,0.243-0.242,0.304-0.364c0.061-0.121,0.121-0.242,0.121-0.424
		c0-0.183-0.121-0.304-0.242-0.425c-0.183-0.121-0.364-0.121-0.607-0.121c-0.363,0-0.667,0.061-0.909,0.242
		c-0.243,0.182-0.364,0.425-0.364,0.728c0,0.364,0.303,0.789,1.031,1.335c0.242,0.182,0.425,0.304,0.546,0.425
		c0.364,0.242,0.606,0.546,0.788,0.788c0.122,0.243,0.243,0.547,0.243,0.85c0,0.183-0.061,0.364-0.182,0.546
		c-0.062,0.243-0.183,0.425-0.425,0.607c0.546-0.062,1.152-0.485,1.881-1.335c0.667-0.789,1.456-1.941,2.305-3.337
		c0.061,0,0.061,0.061,0.061,0.061c0.061,0.061,0.061,0.122,0.061,0.122c0,0.242-0.121,0.484-0.303,0.849s-0.425,0.789-0.789,1.274
		c-0.728,1.031-1.395,1.759-2.062,2.244C126.802,158.044,126.135,158.287,125.467,158.348L125.467,158.348z"/>
	<path fill-rule="evenodd" clip-rule="evenodd" fill="#ED1C24" d="M134.324,152.463c-0.121-0.061-0.242-0.182-0.425-0.242
		c-0.121-0.061-0.303-0.061-0.485-0.061c-0.303,0-0.606,0.121-0.971,0.363c-0.363,0.304-0.728,0.668-1.092,1.214
		c-0.425,0.667-0.85,1.334-1.092,1.94c-0.243,0.547-0.364,1.093-0.364,1.578c0,0.242,0.061,0.485,0.183,0.606
		c0.121,0.182,0.242,0.242,0.424,0.242c0.485,0,1.031-0.485,1.699-1.517C132.929,155.617,133.597,154.223,134.324,152.463
		L134.324,152.463z M133.354,155.557c-0.667,1.153-1.213,1.941-1.698,2.487c-0.485,0.485-0.971,0.729-1.396,0.729
		c-0.485,0-0.91-0.183-1.152-0.546c-0.304-0.364-0.485-0.91-0.485-1.577c0-0.607,0.182-1.214,0.546-1.881
		c0.363-0.668,0.849-1.274,1.456-1.881c0.424-0.364,0.909-0.667,1.396-0.85c0.484-0.242,0.97-0.303,1.455-0.303
		c0.304,0,0.607,0,0.91,0.061c0.304,0.061,0.546,0.182,0.85,0.303l0.061,0.122v0.061c0,0.182-0.061,0.485-0.182,0.971
		c-0.122,0.242-0.183,0.485-0.243,0.606l-0.85,3.094c0,0.061,0,0.061,0,0.061c-0.061,0.304-0.121,0.546-0.121,0.668
		c0,0.121,0.061,0.182,0.121,0.303c0.062,0.061,0.122,0.121,0.243,0.121c0.303,0,0.788-0.363,1.396-1.092
		c0.606-0.728,1.517-2.002,2.79-3.761c0,0,0,0.061,0,0.121c0.061,0.061,0.061,0.061,0.061,0.121c0,0.243-0.242,0.606-0.606,1.213
		l-0.121,0.122l-0.121,0.182c-1.82,2.487-3.155,3.762-3.883,3.762c-0.364,0-0.606-0.061-0.728-0.243
		c-0.183-0.182-0.304-0.425-0.304-0.728c0-0.183,0.061-0.425,0.182-0.789C132.989,156.649,133.172,156.164,133.354,155.557
		L133.354,155.557z M136.872,158.287l1.76-5.824c0.061-0.182,0.121-0.303,0.182-0.364c0.061-0.121,0.121-0.121,0.242-0.182
		l0.668-0.182c0,0,0,0,0.061,0h0.061c0.061,0,0.121,0.061,0.121,0.061c0.061,0,0.061,0.061,0.061,0.121v0.061
		c0,0.061,0,0.061,0,0.061l-1.334,4.368c0.971-1.577,1.82-2.73,2.548-3.519c0.728-0.789,1.334-1.152,1.819-1.152
		c0.304,0,0.546,0.121,0.729,0.303c0.243,0.243,0.364,0.485,0.364,0.789c0,0.182-0.061,0.425-0.121,0.728
		c-0.061,0.304-0.243,0.729-0.426,1.274c0,0.121-0.061,0.242-0.121,0.485c-0.485,1.213-0.667,2.002-0.667,2.244
		c0,0.122,0,0.183,0.121,0.243c0.061,0.061,0.121,0.121,0.243,0.121c0.303,0,0.789-0.364,1.396-1.092
		c0.667-0.789,1.577-1.941,2.729-3.579c0.061,0,0.061,0.061,0.061,0.121c0,0,0,0.061,0,0.121c0,0.243-0.364,0.85-1.092,1.82
		c-0.121,0.242-0.242,0.363-0.304,0.485c-0.849,1.092-1.455,1.819-2.001,2.305c-0.486,0.425-0.911,0.668-1.335,0.668
		c-0.304,0-0.607-0.122-0.789-0.364c-0.242-0.242-0.364-0.546-0.364-0.91c0-0.242,0.183-0.91,0.546-2.002
		c0.122-0.425,0.243-0.728,0.304-0.971c0.182-0.546,0.304-0.971,0.364-1.213c0.121-0.243,0.121-0.364,0.121-0.485
		c0-0.061,0-0.121-0.061-0.182c-0.061-0.062-0.183-0.062-0.243-0.062c-0.242,0-0.606,0.243-1.092,0.729
		c-0.485,0.546-1.031,1.213-1.698,2.123c-0.304,0.485-0.546,0.91-0.789,1.274c-0.242,0.425-0.425,0.788-0.546,1.092
		c-0.061,0.061-0.061,0.182-0.121,0.303c-0.121,0.304-0.243,0.425-0.485,0.485l-0.728,0.122h-0.062c-0.061,0-0.121,0-0.121,0
		c-0.061-0.062-0.061-0.122-0.061-0.183s0-0.121,0-0.121C136.812,158.348,136.872,158.348,136.872,158.287L136.872,158.287z
		 M151.25,152.463c-0.121-0.061-0.243-0.182-0.364-0.242c-0.182-0.061-0.364-0.061-0.546-0.061c-0.303,0-0.606,0.121-0.971,0.363
		c-0.303,0.304-0.667,0.668-1.031,1.214c-0.485,0.667-0.85,1.334-1.092,1.94c-0.243,0.547-0.364,1.093-0.364,1.578
		c0,0.242,0.061,0.485,0.121,0.606c0.122,0.182,0.304,0.242,0.485,0.242c0.425,0,1.031-0.485,1.699-1.517
		C149.854,155.617,150.583,154.223,151.25,152.463L151.25,152.463z M150.279,155.557c-0.606,1.153-1.152,1.941-1.638,2.487
		c-0.485,0.485-0.971,0.729-1.456,0.729s-0.85-0.183-1.152-0.546c-0.304-0.364-0.425-0.91-0.425-1.577
		c0-0.607,0.182-1.214,0.485-1.881c0.363-0.668,0.849-1.274,1.455-1.881c0.425-0.364,0.91-0.667,1.396-0.85
		c0.485-0.242,0.971-0.303,1.517-0.303c0.304,0,0.607,0,0.85,0.061c0.304,0.061,0.606,0.182,0.85,0.303l0.121,0.122v0.061
		c0,0.182-0.061,0.485-0.243,0.971c-0.061,0.242-0.121,0.485-0.182,0.606l-0.91,3.094c0,0.061,0,0.061,0,0.061
		c-0.061,0.304-0.121,0.546-0.121,0.668c0,0.121,0.061,0.182,0.121,0.303c0.061,0.061,0.183,0.121,0.243,0.121
		c0.303,0,0.788-0.363,1.395-1.092c0.668-0.728,1.578-2.002,2.791-3.761c0,0,0.061,0.061,0.061,0.121s0,0.061,0,0.121
		c0,0.243-0.182,0.606-0.606,1.213l-0.121,0.122l-0.061,0.182c-1.881,2.487-3.216,3.762-3.943,3.762
		c-0.304,0-0.546-0.061-0.729-0.243c-0.182-0.182-0.242-0.425-0.242-0.728c0-0.183,0.061-0.425,0.121-0.789
		C149.976,156.649,150.098,156.164,150.279,155.557L150.279,155.557z M156.406,153.858c0.729-0.971,1.274-1.881,1.577-2.852
		c0.364-0.91,0.547-1.881,0.547-2.729c0-0.304,0-0.546-0.062-0.85c0-0.364-0.061-0.667-0.121-1.031
		c-0.485,1.031-0.91,2.123-1.213,3.397C156.771,151.067,156.527,152.402,156.406,153.858L156.406,153.858z M156.285,154.646
		c-0.061,0.364-0.121,0.668-0.121,0.971c-0.061,0.304-0.061,0.547-0.061,0.729c0,0.606,0.061,1.031,0.242,1.335
		c0.121,0.242,0.364,0.424,0.729,0.424c0.485,0,1.031-0.363,1.698-1.152c0.728-0.728,1.638-2.002,2.852-3.822
		c0,0.062,0.061,0.122,0.061,0.183s0,0.121,0,0.182s-0.121,0.304-0.304,0.606c-0.182,0.364-0.425,0.729-0.728,1.214
		c-0.85,1.213-1.577,2.123-2.245,2.669c-0.667,0.606-1.273,0.85-1.759,0.85c-0.607,0-1.031-0.183-1.335-0.606
		c-0.304-0.485-0.485-1.092-0.485-1.82c0-0.425,0.061-0.971,0.182-1.638c0.122-0.668,0.304-1.517,0.485-2.487
		c0.183-0.789,0.425-1.578,0.729-2.366c0.303-0.789,0.606-1.577,1.031-2.427c0.304-0.728,0.667-1.334,0.971-1.82
		c0.364-0.484,0.667-0.849,0.91-1.031h0.121c0.121,0.122,0.182,0.304,0.242,0.547c0.062,0.242,0.122,0.546,0.122,0.91
		c0,1.395-0.304,2.851-0.85,4.246C158.227,151.796,157.377,153.252,156.285,154.646L156.285,154.646z M161.503,156.164
		c0.909-0.243,1.698-0.668,2.305-1.274c0.546-0.606,0.85-1.274,0.85-2.002c0-0.242-0.061-0.425-0.122-0.546
		c-0.121-0.121-0.303-0.182-0.484-0.182c-0.547,0-1.031,0.363-1.578,1.092C161.988,154.04,161.685,155.011,161.503,156.164
		L161.503,156.164z M168.601,153.13c0,0.062,0.061,0.062,0.061,0.122c0,0,0,0.061,0,0.121c0,0.182-0.061,0.425-0.243,0.728
		c-0.121,0.243-0.303,0.606-0.606,1.031c-0.85,1.214-1.76,2.124-2.669,2.791c-0.91,0.606-1.82,0.971-2.67,0.971
		c-0.728,0-1.273-0.243-1.698-0.728c-0.364-0.425-0.606-1.031-0.606-1.82c0-0.485,0.121-1.031,0.363-1.577
		c0.183-0.546,0.547-1.093,0.972-1.639c0.363-0.424,0.788-0.788,1.273-1.092c0.485-0.242,0.971-0.363,1.456-0.363
		c0.425,0,0.85,0.121,1.152,0.363c0.304,0.243,0.425,0.607,0.425,1.031c0,0.606-0.364,1.274-1.152,1.941
		c-0.789,0.667-1.881,1.153-3.154,1.577c0,0.547,0.121,0.971,0.363,1.274c0.304,0.304,0.668,0.425,1.092,0.425
		c0.789,0,1.699-0.425,2.73-1.335C166.659,156.042,167.63,154.769,168.601,153.13L168.601,153.13z M170.663,158.348
		c-0.304,0.182-0.606,0.303-0.91,0.364c-0.304,0.061-0.606,0.121-0.91,0.121c-0.546,0-1.031-0.121-1.396-0.304
		c-0.363-0.242-0.546-0.485-0.546-0.849c0-0.243,0.122-0.425,0.364-0.607c0.182-0.182,0.485-0.242,0.789-0.242
		c0.121,0,0.182,0,0.303,0c0.061,0.061,0.182,0.061,0.243,0.061v0.121c-0.122,0.061-0.243,0.183-0.304,0.304
		s-0.121,0.242-0.121,0.364c0.061,0.182,0.121,0.363,0.303,0.485c0.243,0.182,0.485,0.242,0.789,0.242
		c0.485,0,0.85-0.121,1.152-0.364c0.364-0.242,0.485-0.606,0.485-0.971c0-0.242-0.061-0.424-0.182-0.667
		c-0.182-0.182-0.485-0.485-1.031-0.91c-0.606-0.425-0.971-0.789-1.153-1.031c-0.182-0.242-0.242-0.485-0.242-0.789
		c0-0.484,0.304-0.97,0.85-1.395c0.606-0.425,1.273-0.606,2.062-0.606c0.485,0,0.85,0.061,1.092,0.242
		c0.182,0.121,0.304,0.364,0.304,0.667c0,0.243-0.122,0.485-0.364,0.668c-0.304,0.182-0.606,0.303-0.971,0.303l-0.061-0.061
		c0.121-0.121,0.182-0.242,0.242-0.364c0.061-0.121,0.122-0.242,0.122-0.424c0-0.183-0.062-0.304-0.243-0.425
		c-0.121-0.121-0.364-0.121-0.606-0.121c-0.364,0-0.667,0.061-0.91,0.242s-0.364,0.425-0.364,0.728c0,0.364,0.364,0.789,1.031,1.335
		c0.243,0.182,0.425,0.304,0.547,0.425c0.363,0.242,0.606,0.546,0.788,0.788c0.182,0.243,0.243,0.547,0.243,0.85
		c0,0.183-0.062,0.364-0.122,0.546c-0.121,0.243-0.242,0.425-0.425,0.607c0.485-0.062,1.093-0.485,1.82-1.335
		c0.729-0.789,1.517-1.941,2.306-3.337c0.061,0,0.061,0.061,0.121,0.061c0,0.061,0,0.122,0,0.122c0,0.242-0.121,0.484-0.304,0.849
		c-0.182,0.364-0.424,0.789-0.788,1.274c-0.728,1.031-1.396,1.759-2.002,2.244C171.997,158.044,171.391,158.287,170.663,158.348
		L170.663,158.348z"/>
	<path fill-rule="evenodd" clip-rule="evenodd" d="M169.996,139.966c-0.91,0.485-1.82,0.789-2.67,1.031
		c-0.85,0.183-1.698,0.304-2.487,0.304c-1.638,0-2.912-0.304-3.943-0.91c-0.971-0.546-1.517-1.335-1.517-2.245
		c0-0.728,0.304-1.334,0.91-1.819c0.606-0.425,1.396-0.667,2.306-0.667c0.242,0,0.485,0,0.788,0.061
		c0.243,0.061,0.485,0.121,0.729,0.182v0.242c-0.364,0.243-0.607,0.485-0.789,0.85c-0.242,0.364-0.303,0.728-0.303,1.092
		c0,0.546,0.242,1.032,0.788,1.396c0.546,0.364,1.274,0.546,2.123,0.546c1.335,0,2.487-0.303,3.397-1.031
		c0.85-0.667,1.335-1.517,1.335-2.548c0-0.728-0.243-1.335-0.606-1.941c-0.425-0.606-1.335-1.456-2.791-2.548
		c-1.699-1.335-2.852-2.305-3.337-2.973c-0.485-0.728-0.728-1.396-0.728-2.123c0-1.517,0.85-2.852,2.487-4.004
		s3.579-1.759,5.885-1.759c1.273,0,2.244,0.242,2.912,0.667c0.667,0.425,0.97,1.031,0.97,1.941c0,0.667-0.363,1.273-1.152,1.819
		c-0.728,0.606-1.638,0.91-2.729,0.971l-0.183-0.243c0.364-0.303,0.606-0.667,0.789-1.031c0.182-0.363,0.303-0.728,0.303-1.152
		c0-0.485-0.242-0.849-0.667-1.152c-0.425-0.364-0.971-0.485-1.698-0.485c-1.031,0-1.941,0.243-2.609,0.789
		c-0.667,0.546-1.031,1.213-1.031,2.001c0,1.031,0.971,2.245,2.973,3.701c0.668,0.485,1.214,0.91,1.578,1.214
		c0.97,0.788,1.698,1.577,2.123,2.305c0.485,0.728,0.728,1.517,0.728,2.306c0,0.546-0.121,1.092-0.424,1.698
		c-0.243,0.546-0.668,1.092-1.214,1.698c1.456-0.242,3.154-1.517,5.217-3.821c2.002-2.245,4.187-5.46,6.553-9.524
		c0.121,0.121,0.182,0.182,0.182,0.303c0.061,0.121,0.061,0.243,0.061,0.364c0,0.546-0.242,1.335-0.728,2.306
		c-0.546,1.031-1.274,2.184-2.245,3.579c-2.062,2.912-4.004,5.035-5.763,6.369C173.757,139.056,171.937,139.784,169.996,139.966
		L169.996,139.966z"/>
	<path fill-rule="evenodd" clip-rule="evenodd" d="M134.385,139.784l4.914-16.38c0.182-0.606,0.364-0.971,0.546-1.152
		c0.182-0.183,0.425-0.304,0.729-0.364l1.88-0.485c0.061,0,0.061,0,0.121-0.061c0.122,0,0.183,0,0.243,0
		c0.182,0,0.242,0.061,0.364,0.121c0.061,0.061,0.121,0.183,0.121,0.364c0,0.061,0,0.121,0,0.182s-0.061,0.122-0.061,0.183
		l-3.762,12.254c2.791-4.429,5.218-7.765,7.22-9.889c2.062-2.184,3.761-3.275,5.096-3.275c0.85,0,1.577,0.303,2.184,0.971
		c0.607,0.546,0.91,1.334,0.91,2.184c0,0.546-0.121,1.152-0.364,2.002c-0.182,0.789-0.546,2.002-1.092,3.64
		c-0.121,0.304-0.242,0.729-0.425,1.274c-1.213,3.519-1.88,5.702-1.88,6.431c0,0.242,0.121,0.485,0.363,0.667
		c0.183,0.182,0.425,0.304,0.729,0.304c0.788,0,2.123-1.032,3.943-3.155c1.881-2.062,4.429-5.459,7.704-10.07
		c0.061,0.121,0.121,0.182,0.121,0.304c0.062,0.121,0.062,0.242,0.062,0.363c0,0.789-1.031,2.549-3.095,5.278
		c-0.425,0.546-0.728,0.971-0.971,1.274c-2.244,3.033-4.064,5.217-5.521,6.491c-1.456,1.273-2.669,1.88-3.761,1.88
		c-0.971,0-1.698-0.303-2.366-0.97c-0.606-0.668-0.91-1.518-0.91-2.549c0-0.728,0.485-2.669,1.517-5.702
		c0.425-1.152,0.729-2.123,0.971-2.791c0.425-1.517,0.789-2.608,0.971-3.275c0.243-0.729,0.304-1.153,0.304-1.396
		c0-0.182-0.061-0.364-0.243-0.546c-0.182-0.182-0.363-0.243-0.606-0.243c-0.667,0-1.698,0.729-3.094,2.124
		c-1.396,1.456-2.973,3.458-4.732,6.006c-0.849,1.273-1.638,2.427-2.244,3.579c-0.668,1.092-1.214,2.123-1.638,3.094
		c-0.062,0.182-0.183,0.485-0.304,0.85c-0.304,0.788-0.728,1.213-1.273,1.334l-2.063,0.364h-0.242c-0.183,0-0.304,0-0.364-0.121
		c-0.061-0.061-0.121-0.182-0.121-0.364c0-0.182,0-0.303,0.061-0.425C134.324,139.966,134.324,139.905,134.385,139.784
		L134.385,139.784z"/>
	<path fill-rule="evenodd" clip-rule="evenodd" d="M138.995,125.285c0.061,0.061,0.122,0.121,0.183,0.242c0,0.121,0,0.243,0,0.425
		c0,0.485-0.183,1.152-0.546,2.002c-0.425,0.789-1.031,1.76-1.82,2.912c-2.427,3.397-4.914,6.006-7.522,7.825
		c-2.608,1.82-5.096,2.73-7.522,2.73c-2.002,0-3.579-0.606-4.732-1.941c-1.152-1.274-1.759-2.973-1.759-5.156
		c0-1.456,0.364-2.973,0.971-4.489c0.606-1.577,1.577-3.033,2.729-4.489c1.153-1.335,2.366-2.427,3.701-3.154
		c1.395-0.729,2.729-1.153,4.004-1.153c1.335,0,2.427,0.425,3.275,1.153c0.85,0.728,1.274,1.698,1.274,2.79
		c0,1.82-1.152,3.7-3.337,5.521c-2.244,1.881-5.217,3.397-8.918,4.489c0,1.517,0.364,2.669,1.153,3.519
		c0.728,0.91,1.759,1.335,2.972,1.335c2.306,0,4.915-1.335,7.705-3.883C133.597,133.414,136.387,129.835,138.995,125.285
		L138.995,125.285z M118.976,133.718c2.67-0.607,4.793-1.76,6.491-3.519c1.638-1.76,2.487-3.641,2.487-5.643
		c0-0.667-0.121-1.213-0.424-1.577c-0.364-0.364-0.789-0.546-1.396-0.546c-1.456,0-2.912,1.092-4.308,3.215
		C120.432,127.772,119.461,130.502,118.976,133.718L118.976,133.718z"/>
	<path fill-rule="evenodd" clip-rule="evenodd" d="M89.735,140.026l4.914-17.957c1.456-5.277,3.155-9.827,5.157-13.468
		c1.941-3.7,4.004-6.127,6.006-7.279h0.303c0.425,0.363,0.668,0.849,0.85,1.517c0.243,0.606,0.304,1.456,0.304,2.487
		c0,2.729-0.85,5.823-2.608,9.221c-1.699,3.458-4.126,6.977-7.28,10.435l-2.366,8.918c2.426-4.125,4.792-7.219,6.976-9.403
		c2.185-2.123,4.187-3.215,6.006-3.215c1.031,0,1.881,0.364,2.548,0.971c0.668,0.606,0.971,1.395,0.971,2.305
		c0,1.274-0.728,2.609-2.184,3.943c-1.396,1.335-3.519,2.67-6.31,3.943c0.607,2.185,1.274,3.7,1.941,4.731
		c0.729,0.971,1.517,1.456,2.366,1.456c1.031,0,2.487-1.031,4.368-3.154c1.88-2.062,4.429-5.46,7.583-10.131
		c0.061,0.061,0.061,0.121,0.061,0.242c0.061,0.121,0.061,0.243,0.061,0.485c0,0.425-0.182,0.91-0.425,1.456
		c-0.242,0.546-0.91,1.517-1.88,2.912c-2.791,3.943-4.975,6.673-6.674,8.25c-1.638,1.518-3.094,2.306-4.368,2.306
		c-0.788,0-1.456-0.182-2.062-0.606c-0.606-0.485-1.213-1.213-1.941-2.306c-0.606-0.971-1.092-1.88-1.517-2.851
		c-0.363-0.91-0.606-1.577-0.606-1.941c0-0.425,0.485-0.85,1.396-1.274c0.182-0.061,0.364-0.121,0.425-0.182
		c2.366-1.092,4.004-2.123,4.913-2.973c0.91-0.91,1.396-1.881,1.396-2.912c0-0.667-0.242-1.152-0.606-1.517s-0.91-0.546-1.577-0.546
		c-1.152,0-2.487,0.85-4.064,2.487c-1.638,1.698-3.397,4.125-5.399,7.401c-0.606,0.971-1.152,1.941-1.638,2.851
		c-0.424,0.91-0.849,1.941-1.213,2.973c-0.121,0.304-0.303,0.547-0.424,0.668c-0.182,0.121-0.485,0.242-0.91,0.363l-1.88,0.425
		c-0.061,0-0.122,0-0.122,0.061c-0.061,0-0.121,0-0.182,0c-0.121,0-0.243-0.061-0.303-0.121c-0.121-0.121-0.121-0.242-0.121-0.364
		c0-0.061,0-0.121,0-0.242C89.674,140.33,89.674,140.209,89.735,140.026L89.735,140.026z M98.046,122.312
		c2.124-2.306,3.701-4.55,4.793-6.795c1.031-2.184,1.577-4.307,1.577-6.369c0-0.789-0.061-1.578-0.182-2.306
		c-0.121-0.729-0.304-1.396-0.546-2.062c-1.517,1.396-3.276,6.733-5.278,15.894L98.046,122.312L98.046,122.312z"/>
	<path fill-rule="evenodd" clip-rule="evenodd" d="M94.224,125.406c0.061,0.061,0.061,0.121,0.061,0.242c0,0.061,0,0.243,0,0.425
		c0,0.485-0.121,1.031-0.364,1.577c-0.243,0.547-0.728,1.396-1.395,2.488c-2.488,3.64-5.036,6.369-7.705,8.371
		c-2.73,1.941-5.339,2.912-7.887,2.912c-2.002,0-3.64-0.667-4.914-2.002c-1.274-1.335-1.88-3.033-1.88-5.096
		c0-1.456,0.303-2.912,0.91-4.368c0.606-1.456,1.456-2.852,2.548-4.125c1.334-1.517,2.73-2.73,4.186-3.519
		c1.456-0.85,2.852-1.274,4.308-1.274c1.334,0,2.426,0.364,3.215,1.031c0.849,0.729,1.274,1.639,1.274,2.73
		c0,0.971-0.364,1.759-1.031,2.427c-0.667,0.667-1.517,0.971-2.487,0.971c-0.364,0-0.728-0.062-0.971-0.183
		s-0.485-0.303-0.667-0.606c0.607-0.304,1.092-0.789,1.456-1.335c0.425-0.606,0.606-1.152,0.606-1.638
		c0-0.667-0.182-1.213-0.485-1.577c-0.304-0.364-0.728-0.546-1.335-0.546s-1.274,0.182-1.941,0.667
		c-0.728,0.425-1.334,1.031-2.002,1.881c-1.092,1.334-1.941,2.973-2.608,4.854c-0.728,1.88-1.031,3.579-1.031,5.156
		s0.364,2.79,1.092,3.64c0.789,0.85,1.82,1.274,3.276,1.274c2.245,0,4.732-1.274,7.523-3.762
		C88.764,133.475,91.495,129.956,94.224,125.406L94.224,125.406z"/>
	<path fill-rule="evenodd" clip-rule="evenodd" d="M57.765,133.96l3.519-11.162c0.121-0.304,0.243-0.546,0.424-0.667
		c0.122-0.183,0.364-0.243,0.607-0.304l2.062-0.425h0.182c0.122,0,0.243,0.061,0.304,0.121c0.061,0.061,0.121,0.122,0.121,0.304
		c0,0.061,0,0.121,0,0.182s-0.061,0.061-0.061,0.122l-3.761,11.95c-0.304,0.971-0.546,1.76-0.667,2.366s-0.243,1.092-0.243,1.335
		c0,0.546,0.122,0.909,0.425,1.213c0.243,0.304,0.546,0.425,0.971,0.425c1.092,0,2.73-1.152,4.792-3.519
		c2.123-2.366,4.732-5.885,7.947-10.678c0.061,0.183,0.061,0.304,0.061,0.425c0.061,0.061,0.061,0.183,0.061,0.304
		c0,0.85-0.849,2.366-2.426,4.671c-0.243,0.364-0.485,0.607-0.607,0.789c-2.548,3.519-4.732,6.006-6.431,7.462
		c-1.759,1.456-3.336,2.184-4.853,2.184c-0.971,0-1.759-0.303-2.366-0.909c-0.546-0.668-0.85-1.457-0.85-2.549
		c0-0.363,0.061-0.849,0.182-1.456C57.279,135.477,57.521,134.81,57.765,133.96L57.765,133.96z"/>
	<path fill-rule="evenodd" clip-rule="evenodd" d="M66.076,116.671c-0.729,0-1.396-0.243-2.124-0.607
		c-0.728-0.425-1.092-0.788-1.092-1.152s0.243-0.91,0.606-1.638c0.425-0.789,0.728-1.153,0.91-1.153c0.182,0,0.485,0.122,0.91,0.425
		c0.364,0.243,0.607,0.425,0.789,0.546c0.121,0,0.243,0.061,0.364,0.183c0.546,0.242,0.789,0.485,0.789,0.788
		c0,0.91-0.061,1.577-0.243,2.002C66.804,116.428,66.5,116.671,66.076,116.671L66.076,116.671z"/>
	<path fill-rule="evenodd" clip-rule="evenodd" d="M24.884,137.175c-0.789-0.242-1.517-0.363-2.306-0.546
		c-0.789-0.121-1.638-0.121-2.487-0.121c-1.457,0-2.791,0.243-4.125,0.789c-1.274,0.485-2.366,1.213-3.215,2.123
		c0.546,0.243,1.153,0.425,1.759,0.546c0.607,0.061,1.274,0.121,1.941,0.121c1.759,0,3.336-0.242,4.732-0.728
		C22.578,138.874,23.792,138.146,24.884,137.175L24.884,137.175z M27.311,137.964c-1.274,1.092-2.791,1.881-4.429,2.427
		c-1.698,0.546-3.579,0.789-5.763,0.789c-1.698,0-3.215-0.122-4.671-0.425c-1.456-0.243-2.73-0.668-3.822-1.214v-0.303
		c1.153-1.396,2.548-2.427,4.247-3.155c1.638-0.667,3.64-1.031,5.884-1.031c1.153,0,2.366,0.122,3.579,0.304
		c1.213,0.182,2.427,0.485,3.64,0.85c0.364-0.364,0.728-0.91,1.153-1.639c0.364-0.728,0.91-1.819,1.638-3.275
		c-6.431-1.456-11.405-3.579-14.984-6.552c-3.519-2.912-5.278-6.249-5.278-10.071c0-3.336,1.395-6.127,4.186-8.371
		c2.73-2.245,6.309-3.397,10.617-3.397c2.305,0,4.671,0.364,7.098,0.971s4.974,1.517,7.644,2.79
		c1.517-2.001,3.276-3.579,5.157-4.731c1.941-1.092,4.064-1.699,6.431-1.881l0.243,0.243v0.485l-0.243,0.242
		c-2.124,0.485-3.883,1.274-5.338,2.487c-1.457,1.153-2.669,2.73-3.58,4.61c3.883,2.912,6.794,6.006,8.857,9.222
		c2.001,3.215,3.033,6.491,3.033,9.706c0,1.941-0.364,3.762-1.032,5.46c-0.728,1.699-1.698,3.216-2.973,4.55
		c-1.274,1.335-2.79,2.366-4.489,3.095c-1.638,0.667-3.458,1.031-5.278,1.031c-1.577,0-3.276-0.243-5.217-0.789
		C31.739,139.845,29.616,139.056,27.311,137.964L27.311,137.964z M28.281,136.993c1.456,0.667,2.851,1.092,4.186,1.396
		c1.334,0.303,2.608,0.485,3.822,0.485c4.004,0,7.219-1.214,9.646-3.64c2.426-2.427,3.64-5.643,3.64-9.646
		c0-3.094-0.85-6.006-2.427-8.856c-1.638-2.912-3.943-5.278-6.855-7.28c-0.364,0.971-0.789,2.002-1.153,3.033
		c-0.364,1.092-0.728,2.245-1.092,3.458c1.76,1.274,3.094,2.669,3.943,4.064s1.274,2.852,1.274,4.368
		c0,2.244-0.789,4.064-2.426,5.339c-1.578,1.334-3.822,2.002-6.673,2.002c-0.303,0-0.91,0-1.759-0.062
		c-0.121,0-0.243-0.061-0.303-0.061c-0.546,0.85-1.092,1.76-1.699,2.609C29.737,135.112,29.069,136.022,28.281,136.993
		L28.281,136.993z M29.251,130.139c1.153-2.427,2.73-6.916,4.671-13.468l0.485-1.578c-1.638-0.728-3.215-1.273-4.792-1.638
		c-1.578-0.364-3.155-0.546-4.671-0.546c-1.213,0-2.366,0.121-3.458,0.303c-1.152,0.243-2.245,0.547-3.276,1.032l-0.425-0.122
		l-0.182-0.485l0.122-0.303c1.092-0.607,2.305-1.031,3.579-1.335c1.274-0.242,2.609-0.425,3.943-0.425
		c1.578,0,3.155,0.243,4.732,0.606c1.577,0.425,3.215,0.971,4.853,1.82c0.425-1.213,0.789-2.366,1.213-3.397s0.85-1.941,1.274-2.79
		c-2.185-1.153-4.368-2.002-6.552-2.548c-2.123-0.606-4.247-0.85-6.309-0.85c-3.701,0-6.673,1.031-8.979,3.154
		c-2.245,2.062-3.397,4.854-3.397,8.251c0,3.215,1.517,6.127,4.489,8.675C19.605,127.044,23.792,128.925,29.251,130.139
		L29.251,130.139z M32.709,130.441c0.061,0,0.182,0,0.303,0c0.728,0.061,1.274,0.061,1.577,0.061c2.306,0,4.125-0.546,5.399-1.638
		c1.335-1.152,2.002-2.609,2.002-4.489c0-1.274-0.364-2.548-1.152-3.822c-0.728-1.213-1.881-2.365-3.276-3.336
		c-0.849,3.094-1.699,5.763-2.487,7.886C34.287,127.287,33.498,129.046,32.709,130.441L32.709,130.441z"/>
	<path fill-rule="evenodd" clip-rule="evenodd" fill="#E31F2A" d="M75.661,17.846c0,0-13.589,15.834-21.961,22.143
		c-8.311,6.249-17.533,13.892-17.533,13.892s4.854-4.489,9.222-0.424c4.368,4.064,3.094,10.798,4.853,13.468
		c1.759,2.73,3.458,9.888,6.552,12.133c3.094,2.244,13.589,10.798,14.499,14.863c0.849,4.064,12.739,11.224,12.739,11.224
		s-1.759-6.734,8.736-11.224c10.556-4.489,27.663-20.687,30.757-23.356c3.033-2.729,8.736-10.374,8.736-10.374
		s-10.07-2.669-13.589-6.734S99.806,40.535,95.862,29.191c-3.943-11.345-9.646,1.334-9.646,1.334L75.661,17.846L75.661,17.846z"/>
	<path fill-rule="evenodd" clip-rule="evenodd" fill="#FFFFFF" d="M65.044,41.506c-0.728,2.548-0.728,8.675-0.485,10.616
		c0.243,1.941,0.364,5.399,0.122,6.613c-0.243,1.153,0.121,5.035,0.121,6.431c0,1.456-0.243,5.824-0.243,6.612
		s-0.91,3.64-0.121,5.582c0.728,1.941-0.425,4.914-0.425,4.914l-2.729,1.456c0,0,0.606,1.517,1.759,2.851
		c1.153,1.274,0.85,4.004,2.002,5.036c1.153,1.031,3.822,3.336,6.613,1.699c2.73-1.699,4.004-4.186,4.914-5.582
		c0.85-1.456,2.791-0.789,2.791-0.789s2.366-3.215,3.883-1.82c1.516,1.456-1.396,4.307,2.791,4.671
		c4.186,0.364,5.217-3.519,5.217-3.519s1.759,1.335,2.729,0.182c1.032-1.213-0.485-2.002,0.91-7.037s4.308-7.098,4.308-7.098
		s2.002-0.303,3.275,0.91c1.274,1.153,3.276,0.485,5.096-3.276c1.76-3.761,4.793-8.675,2.487-12.679
		c-2.244-4.004-4.307-13.346-4.307-13.346s-2.366-7.766-5.399-9.161c-3.033-1.456-7.462-3.033-11.769-3.033
		s-17.957,3.519-20.99,5.338C64.559,38.897,65.044,41.506,65.044,41.506L65.044,41.506z"/>
	<path fill-rule="evenodd" clip-rule="evenodd" fill="#939598" d="M67.653,52.426l-0.182,0.182c0,0,2.669,0.364,2.002,1.213
		c-0.728,0.789-2.487,3.033-3.397,2.184C65.104,55.095,67.653,52.426,67.653,52.426L67.653,52.426z"/>
	<path fill-rule="evenodd" clip-rule="evenodd" d="M78.512,50.667l0.546,1.274l-1.214,1.152c0,0,0.182,1.092,1.396,2.124
		s3.701,0.789,5.278,0.789c1.578,0,2.669,0.425,2.669,0.425s-1.092-1.335,0.91-0.789c1.941,0.485,3.336-0.728,3.336-0.728
		s-1.699,0-2.366-1.092c-0.667-1.153-1.092-1.031-2.002-0.364c-0.849,0.728-0.789,0.728-2.366,0.728
		c-1.577,0-4.064-1.092-4.064-1.092s-1.82-1.517,0.182-1.517s5.399,0.061,5.945,0.91c0.606,0.789,3.882,2.245,2.305,0.303
		c-1.578-1.941-2.305-2.972-4.671-3.276c-2.366-0.303-4.671,0.728-4.671,0.728L78.512,50.667L78.512,50.667z"/>
	<path fill-rule="evenodd" clip-rule="evenodd" d="M74.569,44.964c0,0-0.789,0.364-0.971,1.82c-0.243,1.396-0.789,3.215-0.789,3.215
		l-1.213,0.667c0,0-2.608,0-3.215,0c-0.546,0-3.761-0.364-3.761-0.364s-1.092,0.667-1.881,1.881
		c-0.789,1.213-0.97,2.608-0.061,3.822c0.849,1.274,1.334,0.606,1.456,2.184c0.121,1.517-0.122,4.429-0.122,5.399
		c0,0.91,0,8.493,0.303,9.343c0.304,0.789,0.304-1.153,2.73-2.427c2.366-1.334,4.732-2.791,6.431-3.276
		c1.698-0.546,3.397,1.031,1.88-0.849c-1.456-1.82-2.487-3.337-2.487-3.337s1.274-0.606-0.485-0.485
		c-1.759,0.061-2.791-0.303-3.397-0.546c-0.607-0.182-1.942,0.546-2.548,0.243s-1.517-2.669-0.243-1.941
		c1.334,0.728,1.638,1.517,1.638,1.517s0-1.335,0.971-2.427c0.971-1.153,2.912-1.517,0.91-1.517s-3.094,0.183-3.215-1.152
		c-0.061-1.334-0.667-3.155,1.82-3.458c2.488-0.303,2.791,0.546,2.548,1.153c-0.182,0.606-0.971,2.487-0.971,2.487
		s0.425-3.519,1.396-4.247c0.97-0.728,2.184-1.395,2.791-1.092c0.606,0.304,2.245,1.092,2.245,1.092l1.395,0.485l1.396-1.213
		c0,0-0.182-0.182-1.881-0.182s-3.336,0.182-3.094-0.91c0.303-1.153,0.849-2.124,0.243-2.669
		C73.78,47.694,74.569,44.964,74.569,44.964L74.569,44.964z"/>
	<path fill-rule="evenodd" clip-rule="evenodd" d="M79.725,56.915c-2.305-2.73,1.274,2.184,2.609,2.973
		c1.274,0.849,3.64,2.427,3.64,2.427s-2.063-2.245-0.364-2.245s4.428-0.97,4.428-1.698c0-0.729-2.244,0.606-3.579,0.728
		C85.185,59.16,82.031,59.706,79.725,56.915L79.725,56.915z"/>
	<path fill-rule="evenodd" clip-rule="evenodd" d="M77.663,54.003c0,0-1.699,0.607-2.305,1.638c-0.606,0.97-1.759,3.519-2.002,4.064
		c-0.182,0.485-0.485-0.546,1.699-0.303c2.184,0.182,2.669,1.213,3.215,1.698c0.486,0.546,1.456,2.487,1.456,2.487l0.182,1.578
		c0,0,0.606-2.002,0-3.336c-0.546-1.335-0.849-3.337-2.487-3.64c-1.577-0.304-2.73-0.121-2.73-0.121s0.789-3.337,2.851-3.337
		C79.604,54.731,77.663,54.003,77.663,54.003L77.663,54.003z"/>
	<path fill-rule="evenodd" clip-rule="evenodd" d="M72.87,63.649c-0.304-0.122,0.425-0.485,1.82-0.425
		c1.396,0.122,2.062,0.425,2.669,1.031c0.606,0.606,2.002,0.728,2.002,0.728s1.152,1.396-1.092,0.606
		c-2.305-0.789-4.974-1.031-4.974-1.031S73.173,63.77,72.87,63.649L72.87,63.649z"/>
	<path fill-rule="evenodd" clip-rule="evenodd" d="M80.938,64.377c0,0,0.667,1.516,1.699,2.548c0.971,1.031,2.184,2.548,3.276,3.64
		c1.092,1.153,2.184,2.852,2.366,3.701c0.182,0.789-0.485-3.458-1.881-4.792S80.938,64.377,80.938,64.377L80.938,64.377z"/>
	<path fill-rule="evenodd" clip-rule="evenodd" d="M106.236,57.946c0,0-1.76,1.456-1.76,2.245c0,0.849,0.304,1.941,0.304,1.941
		s0.364-2.245,1.88-2.548c1.457-0.303,2.366,0.122,2.549,0.728c0.242,0.607,0.242,1.82,0,3.337
		c-0.183,1.517,0.546,2.669-0.546,3.579c-1.093,0.91-1.214,1.334-2.306,2.123s-4.368,0.91-4.368,0.91s3.579-0.728,3.943,0.243
		c0.425,0.91,0.425,2.912-1.456,3.215c-1.88,0.303-2.669-2.608-2.669-2.608s-1.335,0.667-0.606,1.698
		c0.667,1.031,1.941,3.883,1.941,3.883s1.031-0.728,3.275-3.276c2.306-2.548,1.941-3.337,2.427-3.761
		c0.485-0.425,2.002-3.64,2.002-3.64s-0.121-4.975-1.335-6.431C108.359,58.189,106.236,57.946,106.236,57.946L106.236,57.946z"/>
	<path fill-rule="evenodd" clip-rule="evenodd" fill="#808285" d="M77.663,68.138l0.364,2.244l0.91-1.456l1.517,1.638l0.485-1.092
		l2.063,2.73c0,0,2.305,1.456,2.791,1.759s2.184,3.155,2.184,3.155l-2.305-0.971l-1.76-0.364l2.548,5.278l5.46-0.485l0.425-4.489
		l-3.397-2.124l-1.638-2.245c0,0-3.397-0.91-4.792-1.881c-1.396-0.91-3.276-1.82-3.276-1.82S77.42,68.017,77.663,68.138
		L77.663,68.138z"/>
	<path fill-rule="evenodd" clip-rule="evenodd" d="M104.477,62.921c0,0,0.485,2.062,0.183,2.791
		c-0.304,0.667-1.396,1.517-2.002,1.517c-0.607,0-1.153,0.91-1.153,0.91s1.941,1.031,3.458,0.182
		c1.456-0.789,2.973-1.638,2.487-3.64c-0.485-2.062-1.213-2.669-1.213-2.669l-1.699,0.425L104.477,62.921L104.477,62.921z"/>
	<path fill-rule="evenodd" clip-rule="evenodd" d="M103.688,56.915l0.485-0.304c0,0-2.366,0.122-2.366,2.669
		c0,2.548-0.121,3.943,0,4.671c0.061,0.728-0.606,1.152-0.606,1.152l-0.789-0.728l0.546,2.123c0,0,0.546,0.728,0.546,1.517
		c0,0.849,0.789,1.82,0.789,1.82l3.458,0.122c0,0-3.094,0-3.701,0.849c-0.546,0.789-1.092,1.517-1.092,1.517v2.002l-1.88-0.061
		l1.516,3.458l3.58,0.606c0,0-0.183,1.092,1.577,1.699c1.819,0.607,2.487-1.638,2.487-1.638s-0.606,2.548,0.971,2.791
		c1.638,0.182,5.46-4.186,5.46-5.096c0-0.91-4.854,7.825-7.22,6.673c-2.366-1.092-3.275-0.303-2.366,0.243
		c0.85,0.485,2.185,1.82,2.366,2.305c0.183,0.546-0.425,2.548-0.789,3.155c-0.424,0.606-1.516,1.153-1.516,1.153
		s1.698-3.458-1.274-4.611c-2.973-1.092-4.004,0.546-4.004,0.546l-0.182,2.548l-2.002-3.276l-0.668,2.244l1.274,2.002
		c0,0-1.577,0.243-1.941,1.031c-0.425,0.85-1.941,1.942-1.941,1.942s-2.487-5.703-1.941-5.703c0.485,0,1.638-1.698,1.153-2.244
		c-0.485-0.486-2.791-2.609-3.761-2.609s-1.759,2.002-0.971,2.609c0.789,0.606,2.669,2.244,2.669,2.244s2.062,4.004,0.667,5.582
		c-1.395,1.638-4.428,3.094-4.428,3.094l-5.278-4.004l1.516-2.912l-1.213-2.791l3.943,1.759l2.184-1.456
		c0,0-0.485-1.517-2.184-2.002c-1.638-0.546-1.396-1.031-4.065-1.82c-2.669-0.849-2.487-0.91-4.975-1.941s-3.579-1.82-3.579-1.82
		s-1.638-2.366-2.669-0.121c-0.971,2.245-4.247,3.033-5.035,4.671c-0.789,1.638-2.791,2.124-2.791,2.124s-1.577-1.638-2.062-0.91
		c-0.546,0.728-1.82,1.517-3.034,2.063c-1.152,0.485-1.941,1.638-1.941,1.638s-1.396-2.245,0-2.366
		c1.395-0.122,3.154-0.122,3.64-1.941s4.307-4.247,0.606-3.458c-3.7,0.849-5.338,1.456-5.338,1.456l1.638-4.307
		c0,0,0.546-0.91,3.094-0.789c2.609,0.061,3.761-1.942,3.761-1.942l1.82-2.729l2.791-2.487c0,0-2.487,2.184-3.519,4.732
		c-0.97,2.487,0.122,3.519,0.122,3.519s1.881-3.337,3.276-4.247c1.396-0.91,2.306-1.759,2.912-1.759
		c0.546,0,1.759-0.607,1.759-0.607s-1.577,2.245-0.182,2.73c1.396,0.546,2.852-0.303,2.852-0.303l1.031-0.971
		c0,0-0.91,1.82,0.546,2.245c1.517,0.364,2.427-1.941,2.427-1.941s-0.789,2.002,1.152,2.852c2.002,0.789,1.092-3.883,2.912-0.728
		c1.76,3.154,2.002,4.489,2.669,4.975c0.728,0.485,2.305-1.335,2.305-1.335s0.606,1.638,1.881,1.76
		c1.274,0.061,0.485-2.973,0.485-2.973l0.121-2.245c0,0,0.182,0,1.153-1.82c1.031-1.82-0.789-3.458-0.789-3.458
		s2.669,0.607,2.912-0.424c0.182-0.971,0.182-2.305,0.182-2.305l-0.425-1.82l-4.247-1.274c0,0,1.578-0.182,2.609-0.303
		c0.97-0.061,3.458,1.577,3.579,2.184c0.061,0.606,2.184,4.247,2.184,4.792c0,0.485-0.303,2.123-0.303,2.123
		s-0.789-2.973-0.425-5.096c0.425-2.124-0.789-4.186-0.789-4.186l-1.213-1.395l-1.274-1.759l3.883,2.73l0.606-1.881l-2.487-1.941
		l1.396-0.243l-2.002-3.033l3.094,1.334l-1.031-2.851l0.546-2.062c0,0,2.062,1.334,2.548,1.334s1.396-1.82,0.607-2.245
		c-0.789-0.364-3.094-0.91-4.854-1.82c-1.82-0.91-4.368-3.882-4.368-3.882l0.485-1.82c0,0,3.276,3.761,3.458,3.276
		c0.182-0.546,0.304-1.517,0.304-1.517s2.366,2.427,4.004,3.033c1.577,0.607,1.881-1.517,1.881-1.517l5.642,0.182
		c0,0,3.397-2.427,3.094,0.121c-0.304,2.548-1.881,3.762-2.002,5.581c-0.121,1.82,0.303,4.671,0.303,4.671s-1.516-2.002-2.973-1.395
		C105.145,56.551,103.688,56.915,103.688,56.915L103.688,56.915z"/>
	<path fill-rule="evenodd" clip-rule="evenodd" d="M67.167,53.396l0.243-0.121l0.667,1.759l-0.424,1.274l-0.971,2.548
		c0,0,1.031-2.669,1.88-2.791c0.85-0.061,1.76-0.121,1.76-0.121l0.182-1.759v-1.759l-0.606-0.243l-0.849,1.031l-0.91,0.424
		l-0.182-0.971L67.167,53.396L67.167,53.396z"/>
	<path fill-rule="evenodd" clip-rule="evenodd" fill="#6D6E71" d="M60.737,83.729l1.213,2.73c0,0-1.699,1.699-1.759,2.245
		c-0.122,0.485-1.213,0.606-1.82,1.941c-0.606,1.274,0.182,3.458,0.425,4.064c0.182,0.606,1.88-1.517,3.276-1.456
		c1.395,0.122,0.97,2.366,0.97,3.094c0,0.667-1.698-1.638,2.305-1.76c3.944-0.121,1.699,1.396,1.396,2.852
		c-0.303,1.396,0.789-0.425,1.638-0.182c0.91,0.182,2.427,1.273,2.427,1.273s2.366-0.061,3.276-0.667
		c0.91-0.606,1.092-2.973,1.092-2.973l0.971-2.548l1.88-0.303l0.425-2.73l2.973-0.728l-2.487-3.943c0,0-3.397,4.428-3.761,3.64
		c-0.424-0.789-1.395-3.154-1.395-3.154l-2.609-0.789c0,0-0.849,1.213,0,2.001c0.91,0.85,2.973,3.58,1.699,4.611
		c-1.274,0.971-2.973,1.274-3.579,1.577c-0.607,0.304-3.337-0.303-2.669-1.273c0.667-1.032,1.213-3.701,1.213-3.701l-1.881-1.82
		h-1.699C64.255,85.731,60.676,83.183,60.737,83.729L60.737,83.729z"/>
	<path fill-rule="evenodd" clip-rule="evenodd" d="M55.884,31.314c0,0-0.789,3.761,0.425,3.761c1.152,0,2.791-2.244,2.791-2.244
		s0.182,2.669,0.789,2.669c0.606,0,1.577-1.031,1.577-1.031s2.305,1.334,3.276,1.334s2.791-0.91,4.065-1.031
		c1.274-0.122,4.186-1.213,1.82-1.456c-2.427-0.182-5.278-3.458-2.245-5.035c3.094-1.638-1.153,3.519,1.396,3.822
		c2.608,0.303,5.217-0.91,5.217-0.91l6.431-1.396c0,0,7.462-0.303,10.131,0.607c2.669,0.91,8.554,4.186,8.554,4.186
		s-15.531-3.397-21.84-1.152c-6.37,2.244-10.738,5.581-11.223,7.098C66.5,42.112,65.53,46.48,65.53,46.48l0.424,3.519l-2.123,3.579
		c0,0-0.485,1.335-2.669,0.607s-5.339-4.064-6.37-6.794c-0.97-2.73-1.759-5.217-1.759-5.217l0.789-1.638c0,0,0.97,0.546-0.304-1.213
		c-1.274-1.698-1.213-2.608-0.182-3.458C54.307,35.075,55.884,31.314,55.884,31.314L55.884,31.314z"/>
	<path fill-rule="evenodd" clip-rule="evenodd" d="M96.894,35.803c0,0-0.546,0.607-0.546,1.699c0,1.153-1.82,0.606-1.82,0.606
		s1.396,1.153,0.486,2.062c-0.91,0.91-1.578,1.092-1.457,1.699c0.061,0.606-0.424,2.244,0.485,2.972
		c0.91,0.728,1.396-1.517,2.063-1.152c0.728,0.424,2.609,1.941,3.397,2.548c0.789,0.606,5.035,0.122,5.035,0.122
		s2.306,1.516,3.033,1.82c0.668,0.303,4.551-0.364,4.551-0.364s3.882-4.489,2.851-5.338c-0.971-0.789-0.485-4.064-2.244-5.581
		c-1.82-1.517-1.881-3.458-4.793-2.306c-2.852,1.092-4.792-0.546-6.127-0.667c-1.396-0.061-3.033,0.121-3.033,0.121L96.894,35.803
		L96.894,35.803z"/>
	<path fill-rule="evenodd" clip-rule="evenodd" d="M65.044,55.702c0,0,2.669-0.061,3.155-0.182c0.485-0.121-1.699,2.062-2.548,1.213
		C64.741,55.944,65.044,55.702,65.044,55.702L65.044,55.702z"/>
	<path fill-rule="evenodd" clip-rule="evenodd" fill="#496582" d="M133.899,69.351c-10.677,7.28-15.712,11.405-22.81,17.654
		c-7.099,6.249-18.2,10.374-19.717,14.499c-1.517,4.187,0,9.343,0,9.343s0.485-7.766,9.1-11.405
		c8.614-3.64,14.682-1.577,14.682-1.577s-2.002-2.548,0.485-6.734c2.548-4.125,2.062-6.734,9.1-9.343
		c7.098-2.548,9.646-4.125,9.646-4.125L133.899,69.351L133.899,69.351z"/>
</g>
</svg>
