<?xml version="1.0" encoding="utf-8"?>
<!-- Generator: Adobe Illustrator 16.0.0, SVG Export Plug-In . SVG Version: 6.00 Build 0)  -->
<!DOCTYPE svg PUBLIC "-//W3C//DTD SVG 1.1//EN" "http://www.w3.org/Graphics/SVG/1.1/DTD/svg11.dtd">
<svg version="1.1" id="Layer_1" xmlns="http://www.w3.org/2000/svg" xmlns:xlink="http://www.w3.org/1999/xlink" x="0px" y="0px"
	 width="298.04px" height="227.624px" viewBox="53.431 65.781 298.04 227.624"
	 enable-background="new 53.431 65.781 298.04 227.624" xml:space="preserve">
<g id="logo">
	<g>
		<g>
		</g>
		<g>
			<path fill="#DAE252" d="M84.24,168.682c27.871-44.041,58.368-74.006,90.86-99.571c1.867-1.469,1.582-3.33-0.574-3.33
				c-5.268,0-108.617,0-108.617,0s58.697,2.021,95.382,3.848c2.871,0.142,2.958,2.565,1.485,3.929
				C138.106,96.416,109.9,125.038,84.24,168.682z"/>
			<g>
				<path fill="#DAE252" d="M272.017,281.614c23.989-26.131,49.211-59.129,68.23-101.144
					c-17.862,34.704-40.327,69.474-84.104,109.312c-1.597,1.447-0.847,3.207,0.978,3.207c3.593,0,57.176,0,78.129,0
					c-28.639-1.648-55.935-3.291-60.875-3.824C270.078,288.698,268.22,285.749,272.017,281.614z"/>
			</g>
			<g>
				<path fill="#DAE252" d="M329.31,182.114c-0.681,0.971-2.017,0.533-1.745-0.814c2.459-12.211,4.199-23.376,6.732-40.618
					c1.054-7.145,2.23-10.533,8.8-17.417c-2.65,2.225-5.099,4.006-7.179,6.83c-2.149,2.928-3.285,5.984-4.75,14.776
					c-2.43,14.52-4.45,25.565-9.88,49.254c-0.415,1.795,1.163,2.979,2.806,1.359c1.259-1.232,14.797-23.7,27.377-54.101
					C343.469,158.877,332.842,177.089,329.31,182.114z"/>
				<path fill="#DAE252" d="M336.729,111.346c3.136,0.201,7.041,0.239,9.371,0.241c-2.845-0.473-4.735-0.795-8.071-1.587
					c-4.235-1.006-4.997-1.478-5.561-5.554c-1.312-9.489-2.796-12.994-5.717-15.522c2.613,2.951,2.894,5.883,4.018,17.418
					C331.182,110.579,331.764,111.025,336.729,111.346z"/>
				<path fill="#DAE252" d="M119.434,274.497c-4.721,2.562-16.574,7.476-16.574,7.476s11.547-3.226,24.757-10.062
					c5.205-2.682,6.6-6.076,6.328-8.758c-0.847-8.352-1.445-15.213-1.928-24.166c-0.136-2.484-1.262-4.062-4.292-3.396
					c-2.699,0.589-52.599,14.039-52.599,14.039s49.081-9.612,50.569-9.866c1.488-0.25,2.604,0.151,2.794,2.069
					c0.945,9.65,1.442,13.437,2.475,21.035C131.412,266.143,128.654,269.51,119.434,274.497z"/>
				<path fill="#DAE252" d="M90.812,211.934c-0.712,4.279-2.089,6.066-8.893,11.771c-8.735,7.326-28.487,24.154-28.487,24.154
					s20.467-15.727,28.269-21.719c6.252-4.807,10.765-7.74,11.756-13.366c2.78-15.812,8.351-42.049,15.026-62.837
					c0.454-1.41-0.952-1.729-1.701-0.737c-22.778,30.14-28.434,49.045-53.351,78.391c22.261-23.633,29.503-42.082,44.531-61.091
					c0.731-0.929,2.249-0.569,1.902,0.837C96.284,181.695,93.065,198.415,90.812,211.934z"/>
				<path fill="#DAE252" d="M217.502,268.901c-8.008,3.102-42.562,17.314-95.27,19.779c22.385,0.043,52.913-2.465,91.138-14.201
					c0.441-0.174,0.723,0.098,0.691,0.58c-0.064,0.732-0.428,1.777-1.492,4.15c-2.297,5.112-4.871,10.297-4.871,10.297
					s5.867-8.652,7.889-11.896c2.747-4.396,3.168-5.319,3.285-8.062C218.903,268.743,218.433,268.543,217.502,268.901z"/>
				<path fill="#DAE252" d="M269.876,84.168c14.409-2.547,15.96-2.958,31.029-3.287c-13.444,1.432-18.699,1.893-33.161,5.816
					c-0.897,0.244-1.304-0.096-1.353-0.662c-0.041-0.446,0.094-1.582,0.362-2.529c0.382-1.357,1.097-2.162,2.358-3.046
					c1.544-1.083,5.439-2.639,6.992-3.076c-2.453,1.069-5.465,2.854-6.229,3.587c-0.638,0.611-1.074,1.413-1.239,2.07
					c-0.08,0.317-0.076,0.706-0.043,0.847C268.672,84.216,268.905,84.34,269.876,84.168z"/>
			</g>
		</g>
		<path fill="#DAE252" d="M325.208,113.073c-0.425-6.295-0.803-12.782-1.607-18.213c-0.694-4.683-5.124-7.873-11.949-7.059
			c-6.947,0.831-23.172,4.24-36.066,7.837c-1.5,0.47-2.771,0.317-2.859-2.038c-0.056-1.507-0.773-3.125-3.07-2.652
			c-0.617,0.127-0.965,0.158-3.286,0.854c-5.731,1.712-6.578,0.433-6.188-3.402c0.131-1.289,0.318-2.882,0.524-4.346
			c0.604-4.265,1.853-5.838,4.353-8.007c2.6-2.247,5.088-4.211,16.342-5.955c-6.701-0.349-11.678-0.323-18.688,0.624
			c-23.703,3.192-48.27,12.176-67.766,20.056c-3.448,1.392-1.829-2.098,0.792-3.991c9.74-7.04,30.164-14.819,48.91-20.865
			c-26.525,5.092-50.224,11.624-57.53,16.52c-5.136,3.278-19.281,14.203-29.026,22.786c0.657-2.096,2.339-5.298,4.756-8.347
			c0,0,5.917-7.807,13.818-16.366c-6.137,4.474-20.318,15.617-20.318,15.617c-7.639,6.116-21.09,18.804-30.784,29.73l-0.294,0.329
			l-0.16,0.401c-11.188,28.068-19.391,60.897-23.761,87.562c-1.052,6.472-4.609,10.046-7.365,12.183
			c-3.848,2.98-30.791,20.937-30.791,20.937s58.355-18.504,72.027-22.681c2.243-0.684,4.298,0.154,4.269,3.004
			c-0.165,14.558,0.649,28.084,1.158,37.773c0.214,4.029-2.817,7.051-7.256,10.172c-4.838,3.398-19.702,7.615-23.994,8.824
			c23.574-0.908,47.199-3.625,68.434-9.588c8.734-2.459,12.74-7.215,14.864-11.078c1.81,2.174,6.219,4.332,13.387,2.258
			c4.76-1.377,21.745-8.691,26.607-11.297c0.609-0.279-1.49,11.617-4.32,16.193c-5.962,9.672-18.123,22.557-18.123,22.557
			c17.591-9.523,27.572-16.047,32.252-20.055c5.859-5.02,17.842-15.885,24.345-22.219c0.446-0.406-1.765,7.951-3.392,11.385
			c-1.637,3.447-6.295,10.383-10.984,15.611c22.109-16.01,38.812-35.117,49.786-49.543c8.763-23.826,17.542-56.244,22.38-88.42
			c0.929-6.157,2.824-12.291,8.747-17.364c3.988-3.419,7.926-6.395,7.926-6.395C326.564,118.223,325.362,115.362,325.208,113.073z"
			/>
		<path fill="#FFFFFF" d="M322.643,113.464c-0.227-6.225-0.605-13.399-1.257-18.123c-0.454-3.329-3.491-6.404-8.952-5.61
			c-8.071,1.175-25.825,5.165-42.777,10.201c0.184-2.168,0.462-6.691,0.462-6.691c-3.663,0.969-1.104,0.285-4.123,1.25
			c-7.995,2.554-7.787-0.614-7.21-6.416c0.239-2.384,0.495-4.125,0.772-5.89c0.619-3.908,3.107-6.018,5.271-7.629
			c2.097-1.559,4.464-2.834,5.261-3.107c-24.385,1.36-59.328,14.802-80.971,24.293c-1.946,0.855-3.062,0.161-2.461-1.684
			c1.167-3.58,3.802-6.674,6.774-8.82c7.67-5.549,23.901-11.798,23.901-11.798s-21.062,5.444-28.79,10.617
			c-7.69,4.912-34.495,27.437-36.412,30.523c0.253-1.027,1.038-3.874,2.606-8.436c1.511-4.387,3.364-7.579,5.89-10.768
			c0,0-1.766,1.31-3.075,2.364c-7.664,6.132-20.907,18.652-30.466,29.427c-11.63,29.16-18.875,62.071-23.016,87.358
			c-1.152,7.033-4.919,11.113-8.326,13.748c-3.96,3.063-13.755,9.696-13.755,9.696s53.664-18.87,55.803-19.608
			c4.103-1.413,6.177,0.072,6.051,3.798c-0.67,19.721-0.583,31.303-0.509,42.87c0.033,5.378-3.146,8.574-4.732,9.984
			c-2.429,2.149-7.205,4.688-10.587,6.139c12.571-1.09,32.934-4.45,48.185-8.653c9.476-2.604,14.498-9.896,15.58-13.299
			c1.668,3.469,6.08,5.793,13.808,3.94c5.396-1.295,26.121-10.877,33.318-14.341c0,0-2.221,12.783-4.875,18.998
			c-2.307,5.373-6.975,12.07-8.41,13.556c4.189-2.438,10.07-6.104,14.952-10.133c10.422-8.521,30.368-27.39,32.521-30.201
			c-0.531,4.84-3.162,15.194-5.587,20.76c10.91-9.516,23.88-23.016,32.832-34.56c10.304-29.569,17.538-64.298,21.257-89.184
			c0.941-6.323,3.121-14.169,10.271-18.762C324.538,119.724,322.804,117.713,322.643,113.464z"/>
		<g>
			<path fill="#007550" d="M163.345,196.081c-6.319,3.045-12.339,5.946-17.979,8.67c-0.036,0.033-0.06-0.047-0.067-0.231
				c-0.407-4.071,9.974-65.937,13.365-74.201c-2.495,4.24-8.259,22.195-13.481,39.963c-5.543,18.846-10.479,37.49-10.266,39.319
				c0,0.167,0.013,0.206-0.029,0.227c-5.333,2.584-10.245,4.961-14.676,7.121c-0.113,0.049-0.147-0.158-0.165-0.713
				c-0.321-4.035,1.778-25.895,4.224-44.098c1.51-11.26,3.151-21.124,4.428-24.525c-1.148,2.109-4.254,9.894-7.878,25.351
				c-3.527,15.047-6.914,33.312-8.246,47.698c0,0-6.869,3.394-9.114,4.49c1.424-2.088,2.428-5.053,3.519-11.102
				c4.337-24.084,8.386-49.163,22.251-85.273c6.923-7.894,14.501-15.708,22.365-23.014c0.111-0.372-5.573,15.83-9.94,35.208
				c-4.59,19.123-7.675,40.986-8.132,45.203c0.237-3.264,2.568-12.301,7.447-26.312c4.915-14.121,13.278-38.369,16.623-45.496
				c0.835-1.893,1.092-2.314,1.455-2.702c8.045-7.553,16.308-14.637,24.381-20.913c-8.508,24.404-17.057,61.059-22.357,95.312
				C160.19,191.749,160.926,194.731,163.345,196.081z"/>
			<path fill="#007550" d="M247.217,110.579c-6,2.239-12.37,4.743-19.095,7.525c0.363,0.198,2.344,1.122,1.588,5.682
				c-1.738,10.401-4.327,25.658-6.248,36.79c-0.771,4.403,0.881,5.772,1.555,6.01c3.434-1.625,6.85-3.244,10.23-4.849
				c-0.711-0.321-2.305-1.608-1.566-5.971c1.938-11.603,4.395-26.722,6.041-37.383c1.082-0.436,2.159-0.863,3.236-1.287
				c0.852-0.34,1.468,0.06,1.354,0.878c-1.498,10.108-3.785,24.433-5.588,35.432c-0.709,4.336,0.836,5.607,1.596,5.938
				c3.358-1.584,6.685-3.155,9.976-4.705c-0.685-0.323-2.28-1.61-1.612-5.884c1.645-10.541,3.696-24.165,4.965-33.782
				C254.181,110.876,251.044,109.108,247.217,110.579z"/>
			<path fill="#007550" d="M224.366,119.673c-3.252,1.374-10.004,4.333-10.006,4.34c0.42,0.236,2.351,1.127,1.527,5.744
				c-1.908,10.668-4.755,26.41-6.759,37.657c-0.155,0.909-1.083,2.051-1.998,2.488c-0.599,0.281-1.187,0.559-1.782,0.841
				c-0.926,0.444-1.572,0.048-1.401-0.856c2.015-11.269,4.899-27.148,6.872-37.896c0.771-4.223-0.889-5.521-1.521-5.725
				c-3.327,1.506-6.725,3.078-10.195,4.712c0.58,0.255,2.312,1.318,1.472,5.78c-1.988,10.558-4.851,26.158-6.812,37.102
				c-0.827,4.681,2.446,6.416,6.75,4.377c6.848-3.263,13.723-6.526,20.537-9.762c-0.707-0.237-2.346-1.61-1.567-6.021
				c1.961-11.174,4.688-26.637,6.479-37.118C226.69,120.97,224.849,119.87,224.366,119.673z"/>
			<path fill="#007550" d="M189.833,135.431c-3.175,1.553-5.378,2.667-9.702,4.846c-4.323,2.172-8.386,7.188-9.203,11.458
				c-2.016,10.572-4.73,25.63-6.506,36.271c-0.741,4.479,2.298,6.426,6.555,4.377c3.152-1.516,6.344-3.043,9.547-4.58
				c4.256-2.049,8.387-7.269,9.164-11.613c1.921-10.778,4.764-26.307,6.75-36.773C197.258,135.101,194.259,133.239,189.833,135.431z
				 M186.255,143.837c-2.032,10.857-4.946,26.583-6.914,37.821c-0.145,0.892-1.061,2.035-1.955,2.472
				c-0.58,0.279-1.156,0.552-1.73,0.83c-0.906,0.438-1.539,0.051-1.379-0.856c1.937-11.208,4.755-26.648,6.88-37.683
				c0.163-0.882,1.086-2.025,2.002-2.488c0.577-0.295,1.163-0.592,1.748-0.883C185.821,142.584,186.43,142.948,186.255,143.837z"/>
			<path fill="#007550" d="M266.687,103.717c0.108-0.997,0.562-6.299,0.636-7.26c-2.365,0.688-6.048,1.801-8.578,2.605
				c0.012-0.048-0.813,7.249-0.867,7.674c-0.004-0.006-1.492,0.507-2.231,0.768c-0.189,1.599-0.432,3.379-0.636,5.011
				c0,0,1.663-0.641,2.261-0.853c-1.461,11.564-3.176,24.602-4.666,34.471c-0.641,4.249,2.291,6.34,6.508,4.351
				c1.938-0.903,3.847-1.801,5.734-2.687c0.327-2.357,0.654-4.7,0.963-7.019c-1.697,2.258-2.723,2.851-3.146,2.954
				c-0.421,0.107-0.707-0.248-0.633-0.741c1.533-11.174,3.008-23.715,4.187-34.521c0.705-0.217,4.835-1.612,4.812-1.605
				c0.16-1.475,0.351-3.168,0.512-4.689C269.953,102.67,266.681,103.722,266.687,103.717z"/>
			<path fill="#007550" d="M290.539,102.802c0.118-3.162-2.313-5.493-5.931-4.519c-1.775,0.477-7.352,2.134-11.43,3.385
				c-0.24,2.319-0.492,4.694-0.772,7.115c0.739-0.963,2.948-3.409,6.667-4.534c0.805-0.252,1.611-0.5,2.408-0.744
				c0.723-0.22,1.295,0.198,1.246,0.917c-0.059,1.116-0.131,2.244-0.205,3.383c-0.283,0.082-6.131,1.955-6.16,1.968
				c-3.514,1.131-6.818,5.089-7.235,8.872c-0.66,6-1.61,14.575-2.458,21c-0.568,4.219,2.385,6.176,6.334,4.33
				c6.051-2.831,11.862-5.545,17.396-8.114c-0.61-0.312-2.062-1.58-1.696-5.481C289.576,120.775,290.274,111.169,290.539,102.802z
				 M279.962,135.825c-0.986,0.449-1.979,0.902-2.975,1.363c-0.788,0.373-1.399-0.025-1.293-0.855
				c0.798-6.75,1.632-14.864,2.188-21.102c0.062-0.762,0.771-1.618,1.513-1.87c0.94-0.312,1.875-0.616,2.804-0.917
				C281.668,119.471,280.825,128.114,279.962,135.825z"/>
			<path fill="#007550" d="M299.851,125.361c0.596-9.48,0.862-17.771,0.771-25.87c-0.045-3.183-1.414-4.389-2.042-4.792
				c-1.198,0.268-4.568,1.087-7.165,1.758c0.177,0.138,2.03,1.162,1.967,4.915c-0.155,8.402-0.67,17.798-1.487,27.564
				c-0.328,3.856,1.135,5.19,1.703,5.44c2.734-1.269,5.393-2.499,7.975-3.689C301.034,130.451,299.603,129.111,299.851,125.361z"/>
			<path fill="#007550" d="M320.01,116.481c-0.054-8.364-0.312-13.212-1.062-20.265c-0.311-2.894-2.585-4.8-4.781-4.526
				c-1.905,0.237-7.787,1.239-12.915,2.406c0.26,0.165,1.943,1.306,2.034,4.741c0.202,7.93,0,15.851-0.491,25.216
				c-0.204,3.703,1.165,5.026,1.723,5.277c2.511-1.16,4.944-2.277,7.284-3.347c-0.516-0.246-1.851-1.573-1.729-5.157
				c0.29-9.532,0.277-16.689-0.232-24.638c0.612-0.118,1.446-0.268,2.091-0.38c0.559-0.099,1.048,0.31,1.085,0.916
				c0.567,7.502,0.665,13.663,0.495,22.589c-0.065,3.528,1.167,4.668,1.738,5.088c2.256-1.037,4.42-2.025,6.493-2.967
				C321.263,121.108,320.027,119.888,320.01,116.481z"/>
		</g>
		<g>
			<path fill="#E03127" d="M193.992,190.881c-2.656-1.66-6.796-1.366-11.284,0.734c-12.965,6.098-25.486,11.952-36.966,17.278
				c-0.007-0.017,4.277,2.584,3.584,10.024c-1.684,18.113-2.026,33.453-2.416,47.822c-0.153,5.659-3.244,8.903-4.415,10.178
				c8.722-1.365,25.238-4.697,31.878-6.699c8.175-2.457,14.088-9.121,14.884-15.174c2.203-17.191,4.726-35.9,7.548-56.574
				C197.275,195,196.278,192.299,193.992,190.881z M171.282,261.245c-0.125,1.324-1.51,3.188-2.986,3.672
				c-1.367,0.445-3.307,0.982-5.158,1.324c0.915-21.672,3.832-48.297,5.06-59.035c1.646-0.758,5.798-2.666,5.8-2.67
				c1.868-0.857,3.282-0.188,3.075,1.481C174.43,227.264,172.89,244.409,171.282,261.245z"/>
			<path fill="#E03127" d="M226.969,244.145c-3.493,1.648-7.397,3.412-10.932,4.891c-1.827,0.764-3.429-0.371-3.222-1.799
				c0.207-1.434,1.656-10.266,1.656-10.266l29.098-13.787c2.793-16.309,5.4-33.598,7.688-50.735
				c0.456-3.448-0.489-6.113-2.673-7.531c-2.549-1.651-6.525-1.416-10.986,0.716c-5.98,2.854-12.078,5.754-18.211,8.662
				c-8.662,4.098-16.623,13.775-17.676,21.436c-2.868,20.754-5.525,39.854-7.896,57.306c-0.393,2.928,0.593,5.211,2.737,6.489
				c2.51,1.488,6.669,1.656,10.943,0.099c10.628-3.912,21.269-9.133,32.032-14.299c0.009,0.062,2.006-10.507,2.453-13.099
				C240.978,233.497,235.791,239.999,226.969,244.145z M222.207,184.89c0.24-1.711,2.087-3.939,4-4.859
				c0.838-0.397,1.668-0.796,2.5-1.194c1.929-0.921,3.351-0.253,3.108,1.454c-2.039,14.54-4.195,29.026-6.387,42.792
				c0-0.002,0-0.002,0-0.002c-0.464,0.236-8.251,3.881-9.496,4.439c0,0.008-0.002,0.01-0.004,0.01
				C218.03,213.899,220.151,199.461,222.207,184.89z"/>
			<g>
				<path fill="#E03127" d="M250.621,159.407c8.278-3.97,16.237-7.799,23.692-11.401c0.764-0.441-8.586,69.124-11.125,78.04
					c4.459-9.446,19.572-65.381,23.645-84.114c6.514-3.168,12.488-6.093,17.784-8.708c0.812,1.354-4.959,63.352-7.622,72.97
					c1.421-4.483,7.102-25.414,10.745-43.552c3.92-18.409,5.788-34.045,5.831-33.867c3.112-1.561,5.874-2.948,8.251-4.17
					c-0.538,1.034-2.766,5.305-3.694,12.157c-3.452,26.692-10.277,58.504-20.034,88.617c-6.932,8.929-14.772,17.619-23.497,25.748
					c-0.062,0.312,4.318-17.039,7.764-37.152c3.609-19.859,6.293-42.477,6.748-47.042c-1.199,9.842-22.103,75.831-24.225,78.528
					c-8.648,8.463-17.589,16.545-26.416,23.896c6.598-27.558,12.905-64.614,17.555-100.598
					C256.793,162.765,253.597,159.901,250.621,159.407z"/>
			</g>
		</g>
		<g>
			<path fill="#E03127" d="M255.354,100.32c-1.467,1.468-2.629,1.958-3.019,2.04c-0.407,0.093-0.683-0.128-0.644-0.421
				c0.033-0.289,1.416-12.153,2.11-19.323c0.38-0.136,3.472-1.125,3.454-1.117c0.092-0.839,0.18-1.653,0.271-2.444
				c0-0.007-2.85,0.889-3.561,1.114c0.113-0.598,0.274-2.478,0.54-3.921c-2.173,0.507-5.175,1.128-7.813,1.813
				c-0.07,0.517-0.598,4.321-0.637,4.579c-0.271,0.082-1.98,0.633-1.984,0.635c-0.104,0.841-0.208,1.702-0.327,2.59
				c0.008-0.004,1.47-0.49,2.013-0.667c-0.273,2.396-2.408,18.496-2.564,19.167c-0.174,1.205,0.289,2.159,1.34,2.652
				c1.224,0.576,3.068,0.461,5.06-0.297c1.777-0.675,3.552-1.348,5.284-1.994C255.049,103.225,255.209,101.75,255.354,100.32z"/>
			<g>
				<path fill="#E03127" d="M239.42,106.139c-0.035,0.02-2.303,2.228-6.464,3.879c-1.823,0.727-3.65,1.457-5.494,2.199
					c-0.852,0.345-1.471,0.135-1.361-0.45c0.194-1.09,0.396-2.179,0.588-3.24c0.254-0.124,8.811-3.477,13.729-5.322
					c0.756-5.459,1.51-10.94,2.044-15.355c0.106-0.954-0.382-1.659-1.376-2.01c-1.161-0.404-2.893-0.285-4.756,0.339
					c-2.523,0.846-5.107,1.711-7.711,2.605c-1.911,0.659-3.887,1.805-5.424,3.191c-1.319,1.192-2.19,2.44-2.414,3.511
					c-1.225,5.666-2.661,12.569-4.043,19.551c-0.264,1.308,0.166,2.325,1.229,2.823c1.241,0.582,3.201,0.401,5.329-0.488
					c0.095-0.085,16.146-6.593,16.038-6.498c0.268-1.857,0.537-3.667,0.783-5.423C239.88,105.683,239.644,105.909,239.42,106.139z
					 M229.722,91.794c0.074-0.455,0.803-1.077,1.576-1.34c0.493-0.167,0.979-0.342,1.475-0.513c0.769-0.261,1.346-0.11,1.274,0.342
					c-0.614,3.793-1.422,8.487-2.168,13.004c-1.517,0.58-3.042,1.165-4.567,1.763C228.128,100.45,229.015,95.675,229.722,91.794z"/>
			</g>
			<g>
				<path fill="#E03127" d="M200.59,93.912c0.006,0.001-0.013,0.006,0,0.004c-5.93,2.28-12.632,4.998-18.652,7.574
					c1.097,0.225,2.047,1.42,1.325,3.751c-3.111,10.099-6.149,21.878-8.856,34.519c5.579-2.771,11.276-5.521,17.027-8.215
					c4.06-1.902,7.909-5.98,8.562-9.001c2.116-9.741,4.235-18.548,6.251-26.104C206.866,94.113,204.132,92.55,200.59,93.912z
					 M197.393,99.205c-2.297,7.936-4.65,17.148-6.921,27.237c-0.287,1.266-1.424,2.54-2.741,3.165
					c-0.98,0.462-1.957,0.924-2.93,1.38c2.6-11.651,5.38-22.293,8.119-31.309c0.961-0.399,1.921-0.792,2.885-1.182
					C196.832,98.083,197.6,98.471,197.393,99.205z"/>
			</g>
			<path fill="#E03127" d="M205.312,125.003c-0.756-0.201-2.859-1.584-1.696-6.502c2.047-8.935,3.354-13.203,5.021-21.09
				c3.693-1.564,5.604-2.348,9.276-3.763c-1.399,7.483-2.856,14.003-4.728,22.592c-0.947,3.954,0.662,4.465,0.729,4.493
				C211.835,121.67,209.103,123.1,205.312,125.003z"/>
			<path fill="#E03127" d="M219.11,86.55c-3.51,1.298-5.44,2.145-9.109,3.56c-0.324,1.607-0.727,3.589-1.076,5.266
				c3.68-1.467,5.9-2.417,9.311-3.752C218.517,90.04,218.853,88.057,219.11,86.55z"/>
		</g>
		<g>
			<path fill="#2FB457" d="M319.44,203.823c-1.073,0-1.814-0.779-1.814-1.879c0-1.098,0.741-1.878,1.814-1.878
				c1.053,0,1.812,0.78,1.812,1.878C321.254,203.042,320.493,203.823,319.44,203.823z M319.44,204.409
				c1.357,0,2.463-1.105,2.463-2.465c0-1.357-1.104-2.463-2.463-2.463c-1.372,0-2.465,1.105-2.465,2.463
				C316.977,203.303,318.068,204.409,319.44,204.409z M320.019,202.159c0.469-0.033,0.729-0.228,0.729-0.722
				c0-0.624-0.338-0.812-1.033-0.812h-1.287v2.658h0.561v-1.125h0.44l0.593,1.125h0.644L320.019,202.159z M318.985,201.762v-0.729
				h0.604c0.253,0,0.637-0.025,0.637,0.332c0,0.332-0.208,0.403-0.507,0.396H318.985z"/>
		</g>
	</g>
</g>
</svg>
