<?xml version="1.0" encoding="utf-8"?>
<!-- Generator: Adobe Illustrator 16.0.0, SVG Export Plug-In . SVG Version: 6.00 Build 0)  -->
<!DOCTYPE svg PUBLIC "-//W3C//DTD SVG 1.1//EN" "http://www.w3.org/Graphics/SVG/1.1/DTD/svg11.dtd">
<svg version="1.1" id="Layer_1" xmlns="http://www.w3.org/2000/svg" xmlns:xlink="http://www.w3.org/1999/xlink" x="0px" y="0px"
	 width="328.858px" height="146.302px" viewBox="237.812 240.741 328.858 146.302"
	 enable-background="new 237.812 240.741 328.858 146.302" xml:space="preserve">
<g>
	<path fill="#E12723" d="M548.435,387.043"/>
	
		<radialGradient id="SVGID_1_" cx="348.5298" cy="783.2559" r="27.1988" gradientTransform="matrix(1 0 0 -1 60.416 1051.082)" gradientUnits="userSpaceOnUse">
		<stop  offset="0.0056" style="stop-color:#FFF2E8"/>
		<stop  offset="0.0961" style="stop-color:#FEEDDF"/>
		<stop  offset="0.2438" style="stop-color:#FDE1C7"/>
		<stop  offset="0.4303" style="stop-color:#FACD9F"/>
		<stop  offset="0.6484" style="stop-color:#F6B168"/>
		<stop  offset="0.8901" style="stop-color:#F08E22"/>
		<stop  offset="1" style="stop-color:#EE7D00"/>
	</radialGradient>
	<path fill="url(#SVGID_1_)" d="M408.983,240.938c-15.207,0-27.543,11.879-27.543,26.54c0,15.586,11.801,27.238,27.543,27.238
		c15.349,0,27.468-11.806,27.468-26.932C436.451,252.747,424.413,240.938,408.983,240.938z"/>
	<path fill="#05171D" d="M252.62,241.906h-14.808v51.646h14.73c7.815,0,13.468-1.852,18.426-5.958
		c5.883-4.879,9.372-12.236,9.372-19.839C280.34,252.506,268.949,241.906,252.62,241.906z M264.395,280.694
		c-3.184,2.873-7.282,4.114-13.796,4.114h-2.707v-34.157h2.707c6.514,0,10.456,1.163,13.796,4.18
		c3.485,3.098,5.562,7.895,5.562,12.849C269.957,272.644,267.88,277.609,264.395,280.694z"/>
	<rect x="284.99" y="241.906" fill="#05171D" width="10.062" height="51.646"/>
	<path fill="#05171D" d="M319.689,261.717c-6.05-2.241-7.828-3.719-7.828-6.497c0-3.255,3.168-5.731,7.512-5.731
		c3.02,0,5.499,1.238,8.14,4.172l5.259-6.881c-4.337-3.803-9.524-5.736-15.183-5.736c-9.129,0-16.104,6.353-16.104,14.786
		c0,7.131,3.25,10.767,12.701,14.184c3.952,1.387,5.961,2.312,6.971,2.943c2.014,1.317,3.023,3.169,3.023,5.337
		c0,4.187-3.333,7.28-7.831,7.28c-4.801,0-8.669-2.398-10.995-6.889l-6.497,6.28c4.637,6.805,10.214,9.835,17.888,9.835
		c10.454,0,17.808-6.979,17.808-16.966C334.553,269.624,331.154,265.904,319.689,261.717z"/>
	<path fill="#05171D" d="M337.727,267.754c0,15.194,11.931,26.962,27.269,26.962c4.336,0,8.053-0.856,12.627-3.017v-11.854
		c-4.033,4.03-7.596,5.652-12.167,5.652c-10.143,0-17.35-7.358-17.35-17.817c0-9.908,7.432-17.731,16.89-17.731
		c4.794,0,8.439,1.704,12.627,5.808v-11.854c-4.415-2.239-8.062-3.162-12.397-3.162
		C349.965,240.741,337.727,252.747,337.727,267.754z"/>
	<polygon fill="#05171D" points="459.244,276.598 445.458,241.906 434.46,241.906 456.385,294.871 461.802,294.871 484.11,241.906 
		473.193,241.906 	"/>
	<polygon fill="#05171D" points="488.688,293.551 517.263,293.551 517.263,284.808 498.756,284.808 498.756,270.859 
		516.555,270.859 516.555,262.114 498.756,262.114 498.756,250.651 517.263,250.651 517.263,241.906 488.688,241.906 	"/>
	<path fill="#05171D" d="M557.138,257.148c0-9.675-6.649-15.242-18.273-15.242h-14.949v51.646h10.078v-20.756h1.317l13.935,20.756
		h12.392l-16.272-21.755C552.963,270.243,557.138,265.052,557.138,257.148z M536.923,265.677h-2.931v-15.649h3.092
		c6.287,0,9.693,2.641,9.693,7.667C546.777,262.879,543.371,265.677,536.923,265.677z"/>
	<path fill="#1D1D1B" d="M564.243,245.752c0-0.905-0.605-1.396-1.713-1.396h-1.466v4.549h1.076v-1.769l1.273,1.769h1.35l-1.512-1.88
		C563.89,246.856,564.243,246.386,564.243,245.752z M562.344,246.371h-0.202v-1.183h0.212c0.536,0,0.81,0.195,0.81,0.582
		C563.162,246.169,562.879,246.371,562.344,246.371z"/>
	<path fill="#1D1D1B" d="M562.747,242.644c-2.203,0-3.972,1.771-3.972,3.974c0,2.204,1.777,3.975,3.972,3.975
		c2.159,0,3.923-1.789,3.923-3.975C566.67,244.44,564.906,242.644,562.747,242.644z M562.742,249.881
		c-1.764,0-3.185-1.453-3.185-3.252c0-1.817,1.41-3.26,3.185-3.26c1.714,0,3.128,1.471,3.128,3.26
		C565.87,248.415,564.456,249.881,562.742,249.881z"/>
	<path fill="#1D1D1B" d="M328.1,307.126l13.477,14.116v-13.379h1.925v18.053l-13.474-14.085v13.312H328.1V307.126z"/>
	<path fill="#1D1D1B" d="M327.92,307.126v18.199h2.285c0,0,0-12.21,0-13.05c0.591,0.617,13.471,14.091,13.471,14.091v-18.685h-2.282
		c0,0,0,12.271,0,13.114c-0.591-0.627-13.474-14.123-13.474-14.123V307.126z M328.281,307.576
		c0.596,0.615,13.48,14.119,13.48,14.119s0-13.307,0-13.66c0.255,0,1.291,0,1.558,0c0,0.35,0,16.592,0,17.441
		c-0.598-0.627-13.467-14.102-13.467-14.102s0,13.236,0,13.585c-0.274,0-1.309,0-1.571,0
		C328.281,324.617,328.281,308.42,328.281,307.576z"/>
	<path fill="#1D1D1B" d="M352.835,307.863h8.953v1.785h-7.032v5.139h6.827v1.785h-6.827v6.781h7.032v1.789h-8.953V307.863z"/>
	<path fill="#1D1D1B" d="M361.789,307.682h-9.137v17.645h9.32v-2.153c0,0-6.692,0-7.031,0c0-0.334,0-6.09,0-6.428
		c0.339,0,6.822,0,6.822,0v-2.134c0,0-6.483,0-6.822,0c0-0.334,0-4.457,0-4.771c0.339,0,7.031,0,7.031,0v-2.157h-0.184V307.682z
		 M361.611,308.035c0,0.258,0,1.178,0,1.431c-0.347,0-7.038,0-7.038,0v5.499c0,0,6.489,0,6.828,0c0,0.252,0,1.162,0,1.426
		c-0.339,0-6.828,0-6.828,0v7.142c0,0,6.691,0,7.038,0c0,0.263,0,1.172,0,1.43c-0.342,0-8.261,0-8.6,0c0-0.344,0-16.571,0-16.926
		C353.351,308.035,361.271,308.035,361.611,308.035z"/>
	<path fill="#1D1D1B" d="M375.386,325.143h-1.928v-15.494h-4.167v-1.784h10.311v1.784h-4.215L375.386,325.143L375.386,325.143z"/>
	<path fill="#1D1D1B" d="M379.601,307.682h-10.502v2.158c0,0,3.85,0,4.178,0c0,0.344,0,15.485,0,15.485h2.284c0,0,0-15.142,0-15.485
		c0.333,0,4.221,0,4.221,0v-2.158H379.601z M379.421,308.035c0,0.258,0,1.178,0,1.431c-0.326,0-4.217,0-4.217,0s0,15.146,0,15.495
		c-0.269,0-1.296,0-1.566,0c0-0.35,0-15.495,0-15.495s-3.844,0-4.167,0c0-0.253,0-1.173,0-1.431
		C369.801,308.035,379.083,308.035,379.421,308.035z"/>
	<path fill="#1D1D1B" d="M392.478,320.812l5.595-13.852l5.59,13.852l4.538-12.949h2.094l-6.632,18.17l-5.59-13.919l-5.595,13.919
		l-6.614-18.17h2.082L392.478,320.812z"/>
	<path fill="#1D1D1B" d="M397.91,306.898c0,0-5.088,12.574-5.422,13.401c-0.293-0.838-4.422-12.618-4.422-12.618H385.6l6.878,18.866
		c0,0,5.281-13.149,5.595-13.944c0.312,0.795,5.595,13.944,5.595,13.944l6.878-18.866h-2.471c0,0-4.13,11.78-4.422,12.618
		c-0.34-0.827-5.58-13.813-5.58-13.813L397.91,306.898z M392.645,320.878c0,0,5.114-12.655,5.429-13.424
		c0.312,0.769,5.6,13.868,5.6,13.868s4.569-13.049,4.655-13.287c0.197,0,1.334,0,1.702,0c-0.161,0.46-6.068,16.662-6.377,17.497
		c-0.328-0.823-5.58-13.894-5.58-13.894s-5.261,13.069-5.589,13.894c-0.299-0.835-6.196-17.037-6.368-17.497
		c0.364,0,1.501,0,1.698,0c0.082,0.238,4.654,13.287,4.654,13.287L392.645,320.878z"/>
	<path fill="#1D1D1B" d="M435.179,316.521c0,4.973-4.085,8.92-9.006,8.92c-4.934,0-9.006-3.947-9.006-8.92
		c0-4.948,4.072-8.955,9.006-8.955C431.094,307.566,435.179,311.573,435.179,316.521z M419.086,316.5
		c0,3.893,3.164,7.146,7.087,7.146c3.921,0,7.075-3.254,7.075-7.146c0-3.92-3.113-7.154-7.075-7.154
		C422.21,309.346,419.086,312.58,419.086,316.5z"/>
	<path fill="#1D1D1B" d="M416.984,316.521c0,5.014,4.123,9.097,9.188,9.097c5.063,0,9.188-4.083,9.188-9.097
		c0-5.045-4.123-9.136-9.188-9.136C421.107,307.387,416.984,311.477,416.984,316.521z M417.338,316.521
		c0-4.842,3.962-8.773,8.835-8.773c4.861,0,8.834,3.932,8.834,8.773c0,4.819-3.973,8.737-8.834,8.737
		C421.3,325.26,417.338,321.342,417.338,316.521z"/>
	<path fill="#1D1D1B" d="M418.904,316.5c0,4.055,3.266,7.329,7.269,7.329c4.002,0,7.251-3.274,7.251-7.329
		c0-4.042-3.249-7.327-7.251-7.327C422.17,309.173,418.904,312.458,418.904,316.5z M419.269,316.5c0-3.84,3.095-6.969,6.904-6.969
		c3.811,0,6.894,3.129,6.894,6.969c0,3.842-3.083,6.975-6.894,6.975S419.269,320.342,419.269,316.5z"/>
	<path fill="#1D1D1B" d="M445.447,325.143h-1.921v-17.278h2.497c3.273,0,6.316,0.875,6.316,4.766c0,2.659-1.662,4.539-4.325,4.767
		l5.497,7.748h-2.363l-5.216-7.59h-0.485V325.143z M445.447,315.859h0.597c2.173,0,4.377-0.41,4.377-3.094
		c0-2.834-2.087-3.117-4.396-3.117h-0.576L445.447,315.859L445.447,315.859z"/>
	<path fill="#1D1D1B" d="M443.526,307.682h-0.182v17.645h2.284c0,0,0-7.247,0-7.592c0.136,0,0.292,0,0.297,0l0,0
		c0,0.132,5.08,7.511,5.08,7.511l2.506,0.081h0.354c0,0-5.275-7.426-5.55-7.823c2.549-0.351,4.205-2.214,4.205-4.873
		c0-3.335-2.123-4.946-6.499-4.946h-2.496V307.682z M446.023,308.035c4.186,0,6.141,1.461,6.141,4.594
		c0,2.568-1.633,4.377-4.165,4.59l-0.318,0.03c0,0,5.116,7.187,5.489,7.712c-0.506,0-2.012,0-2.021,0h0.005
		c0-0.131-5.079-7.51-5.079-7.51l-0.627-0.076h-0.183c0,0,0,7.242,0,7.586c-0.263,0-1.304,0-1.562,0c0-0.344,0-16.572,0-16.926
		C444.013,308.035,446.023,308.035,446.023,308.035z"/>
	<path fill="#1D1D1B" d="M445.447,309.466h-0.183v6.569h0.778c2.123,0,4.558-0.373,4.558-3.27c0-3.048-2.363-3.301-4.577-3.301
		L445.447,309.466L445.447,309.466z M446.023,309.84c2.219,0,4.215,0.212,4.215,2.926c0,2.562-2.117,2.906-4.194,2.906
		c0,0-0.238,0-0.414,0c0-0.328,0-5.508,0-5.832C445.801,309.84,446.023,309.84,446.023,309.84z"/>
	<path fill="#1D1D1B" d="M470.96,307.863h2.588l-8.11,8.051l8.384,9.229h-2.658l-7.085-7.929l-0.481,0.47v7.459h-1.926v-17.278
		h1.926v7.399L470.96,307.863z"/>
	<path fill="#1D1D1B" d="M473.548,307.682h-2.659c0,0-6.551,6.575-7.104,7.151c0-0.778,0-7.151,0-7.151H461.5v17.645h2.284
		c0,0,0-7.576,0-7.611c0.02,0.01,0.167-0.132,0.282-0.242c0.242,0.264,6.965,7.793,6.965,7.793l2.79,0.062h0.414
		c0,0-8.323-9.163-8.562-9.405c0.253-0.248,8.304-8.238,8.304-8.238h-0.429V307.682z M473.107,308.035
		c-0.576,0.582-7.925,7.869-7.925,7.869s7.723,8.49,8.232,9.057c-0.596,0-2.254,0-2.254,0l0,0c0-0.091-6.954-7.869-6.954-7.869
		l-0.121-0.146l-0.617,0.617c0,0-0.051,7.056-0.051,7.398c-0.271,0-1.304,0-1.562,0c0-0.344,0-16.572,0-16.926
		c0.259,0,1.289,0,1.562,0c0,0.35,0,7.668,0,7.668s7.51-7.562,7.611-7.668C471.146,308.035,472.521,308.035,473.107,308.035z"/>
</g>
</svg>
