<?xml version="1.0" encoding="utf-8"?>
<!-- Generator: Adobe Illustrator 16.0.0, SVG Export Plug-In . SVG Version: 6.00 Build 0)  -->
<!DOCTYPE svg PUBLIC "-//W3C//DTD SVG 1.1//EN" "http://www.w3.org/Graphics/SVG/1.1/DTD/svg11.dtd">
<svg version="1.1" id="Layer_1" xmlns="http://www.w3.org/2000/svg" xmlns:xlink="http://www.w3.org/1999/xlink" x="0px" y="0px"
	 width="226.341px" height="211.411px" viewBox="246 255 226.341 211.411" enable-background="new 246 255 226.341 211.411"
	 xml:space="preserve">
<g>
	<path fill="#E6E7E8" d="M246.167,280.691c-0.853-7.749,1.393-13.947,10.459-16.735c62.682-9.487,130.09-11.588,202.688-5.579
		c9.38,1.36,13.243,7.395,13.017,16.503l-1.647,85.927c0.826,34.274-12.315,57.505-38.144,70.705
		c-24.756,14.699-48.188,25.78-71.083,34.899c-24.374-8.689-51.229-21.408-80.561-38.155
		c-22.631-15.199-33.174-36.597-31.631-64.193L246.167,280.691L246.167,280.691z"/>
	<path d="M262.206,287.664c0.794-6.256,3.854-10.247,10.228-10.924c58.342-8.289,115.917-8.606,171.774-4.184
		c8.111,0.029,11.646,4.465,11.39,12.552l0.813,38.353c5.889,12.164,5.578,20.299-0.93,24.406l-1.542,24.104
		c-1.399,19.379-9.617,33.489-24.653,42.33l-26.049,15.352c-10.699,6.127-19.964,7.396-31.632,3.721
		c-20.438-6.4-39.762-15.028-57.101-27.628c-14.102-13.791-15.399-25.086-4.707-33.299l-1.569-6.913
		c-25.628,17.85-12.34,38.479,22.779,60.667c-19.431-9.676-37.13-22.015-52.532-37.888c-17.825-25.764-22.862-51.718,0.232-78.102
		c27.83-25.651,65.224-34.087,108.55-31.844c8.136,0.232,10.537,5.114,3.021,9.763c-15.71,6.682-27.797,17.413-38.236,29.985
		c5.999-8.288,11.164-16.302,26.847-27.777c-32.183,1.148-53.927,13.278-70.894,27.777c-5.4,4.658-5.835,11.302-3.487,19.06
		l8.717,18.363l-4.067-3.487c0.911,26.036,10.385,37.731,20.339,47.186c-6.577-7.327-9.43-14.794-7.787-22.431
		c-2.208-0.812-4.261-1.937-6.16-3.371c6.45,2.942,13.694,3.891,21.386,3.72c2.218,0.125,3.516,1.452,4.184,3.603
		c2.88,10.545,7.81,18.126,13.48,24.64c-5.104-12.253-4.31-22.306,3.604-30.218l-9.878,2.558l54.623-32.542l14.412-5.811
		c6.677-1.002,12.461-0.292,17.433,1.976c-12.23-1.618-20.969,6.149-27.312,20.338c-11.283,22.411-23.584,40.077-36.727,53.811
		c-2.944,2.646-5.812,2.725-8.601,0.232l-3.486-7.787l-0.232,9.298l-8.02-2.789c-1.55-1.203-2.364-3.054-2.673-5.347l0.116-9.994
		l-3.022-4.533l0.465,15.342c0.362,2.873-1.562,3.229-3.021,1.54c-1.412-1.901-2.667-3.993-3.69-6.362
		c-0.384,4.625,0.585,8.38,2.993,11.215c1.299,2.854,3.193,3.748,5.579,3.021c2.295-0.38,4.483-0.012,6.625,0.697
		c2.426,1.721,5.128,3.163,8.019,4.417c1.482,0.952,2.857,0.835,4.185,0.232c11.992-10.904,23.305-22.218,32.192-34.982
		l21.851-26.729c7.293-7.725,16.184-13.583,27.195-16.969c9.724-0.871,12.899-7.031,6.509-20.919
		c-4.291-12.85-15.532-21.581-29.288-28.823c1.396,3.102,1.086,5.581-0.93,7.438c-3.155,4.432-7.767,8.741-12.784,13.017
		c-2.86,2.876-7.673,4.804-15.341,5.346c-8.397,0.002-15.778,2.303-22.314,6.509c-12.029,8.275-23.148,18.144-33.937,28.59
		l1.511-3.37c-5.925,0.862-11.78,0.736-17.549-0.581c-0.949-1.031-1.996-1.382-3.255-0.232l-1.161,2.44l-5.462-14.992
		c-3.129-12.804,1.888-23.923,16.735-33.007c16.127-7.938,30.753-13.997,40.677-14.179c-18.184,15.218-23.077,28.318-28.707,40.212
		c22.406-22.542,43.143-38.514,60.899-42.769c12.389-2.696,23.876-3.587,32.542,1.162l10.344,5.114
		c-14.981-16.871-40.92-25.316-80.076-23.593c-36.525,1.329-66.986,8.705-91.117,22.431c-6.503,4.487-10.876,5.169-12.261-0.93
		L262.206,287.664L262.206,287.664z"/>
	<path d="M346.466,357.396c9.382-7.319,18.396-14.018,26.381-19.001c6-3.565,15.219-2.996,25.104-1.57
		c-7.067,0.383-12.693,2.697-16.503,7.438c-3.004,3.337-6.682,5.815-11.391,6.973C359.428,353.568,352.438,355.534,346.466,357.396
		L346.466,357.396z"/>
	<path fill="#E6E7E8" d="M355.653,354.071c-1.318,0.369-2.17-0.769-1.163-1.926l7.037-4.437l2.209,3.152l0.291-4.728
		c6.669-4.408,12.057-6.781,16.863-8.23c1.548-0.447,2.183,1.411,0.932,2.16c-5.061,6.77-10.079,10.333-15.062,10.799
		L355.653,354.071L355.653,354.071z"/>
	<path fill="#E6E7E8" d="M306.572,343.448c0.349,3.57,1.463,6.07,3.982,8.551C313.076,354.48,306.514,343.448,306.572,343.448
		L306.572,343.448z"/>
	<path d="M316.807,365.045c-1.368-0.822-2.45-1.803-2.966-3.093l-0.117-1.81c0.33-0.429,0.698-0.351,1.105,0.233
		C315.036,361.809,315.749,363.38,316.807,365.045L316.807,365.045z"/>
	<path d="M336.897,366.033c2.583-1.51,4.947-3.016,6.833-4.524c1.146-0.293,1.276,0.214,1.104,0.935
		C343.176,364.63,340.263,365.561,336.897,366.033L336.897,366.033z"/>
</g>
</svg>
