<?xml version="1.0" encoding="utf-8"?>
<!-- Generator: Adobe Illustrator 16.0.0, SVG Export Plug-In . SVG Version: 6.00 Build 0)  -->
<!DOCTYPE svg PUBLIC "-//W3C//DTD SVG 1.1//EN" "http://www.w3.org/Graphics/SVG/1.1/DTD/svg11.dtd">
<svg version="1.1" id="Layer_1" xmlns="http://www.w3.org/2000/svg" xmlns:xlink="http://www.w3.org/1999/xlink" x="0px" y="0px"
	 width="187.085px" height="68.301px" viewBox="265.835 326.228 187.085 68.301"
	 enable-background="new 265.835 326.228 187.085 68.301" xml:space="preserve">
<g>
	<path fill="#ED1C24" d="M347.271,326.613h-11.759c-0.175,0-0.292,0.146-0.437,0.262c-0.582,0.64-0.844,2.037-0.844,3.463h12.603
		C346.979,329.087,347.096,327.835,347.271,326.613L347.271,326.613z M332.893,342.417v-0.873c0-0.146,0-0.262,0.029-0.378
		l0.902-7.8h12.631c-0.146,1.31-0.292,2.648-0.438,3.958h-10.069c-0.146,0.989-0.263,2.037-0.351,3.027l0.087,0.146h9.983
		c-0.146,1.251-0.32,2.503-0.437,3.813h-11.526c-0.32,0-0.699-0.728-0.786-1.485C332.922,342.708,332.893,342.562,332.893,342.417
		L332.893,342.417z M332.893,329.64v-0.698C332.922,329.174,332.922,329.407,332.893,329.64L332.893,329.64z M332.893,328.941v0.698
		c0,0.262-0.028,0.524-0.058,0.728h-10.216c-0.99,0-1.95,1.775-2.416,3.9c-0.262,1.251-0.408,2.911-0.117,4.22
		c0.349,1.514,1.048,2.008,1.746,2.008l5.326-0.058c0.757,0,1.484-1.484,1.688-3.173h-5.413l0.407-3.784h8.528
		c-0.087,4.25-1.397,8.237-3.085,9.983c-0.438,0.378-0.815,0.844-1.28,0.844h-8.062c-1.077,0-2.241-1.572-2.679-4.104
		c-0.582-4.308,0.35-8.324,1.775-11.147c0.814-1.397,1.659-2.503,2.678-2.503l9.896,0.058c0.495,0.146,1.105,0.669,1.252,1.95
		C332.893,328.679,332.893,328.825,332.893,328.941L332.893,328.941z M332.893,341.544c0,0.291,0,0.582,0,0.873V341.544
		L332.893,341.544z M301.488,344.309h10.625c1.192,0,2.24-1.135,3.113-3.144c1.193-2.823,1.922-6.52,1.427-10.478
		c-0.378-2.62-1.63-4.075-2.707-4.075h-10.536l-0.378,3.755h9.634c0.495,0,0.902,0.32,1.251,1.135
		c0.35,0.902,0.32,2.357,0.175,3.493c-0.319,2.329-1.223,5.443-2.356,5.443h-7.306c0.262-2.271,0.524-4.569,0.786-6.869h-2.562
		l-1.164,9.459V344.309L301.488,344.309z M301.488,335.926v-5.18c0.029,0.087,0.029,0.174,0.058,0.262
		C301.721,332.725,301.692,334.384,301.488,335.926L301.488,335.926z M301.488,330.746v5.18c-0.291,2.329-0.96,4.395-1.833,6.083
		c-0.757,1.31-1.572,2.3-2.532,2.3h-3.027v-3.144h2.008c0.698,0,1.222-0.669,1.746-1.601c0.931-1.747,1.572-4.162,1.31-6.927
		c-0.262-1.95-1.165-2.794-1.95-2.969l-3.114-0.029v-3.027h4.482C299.742,326.613,301.022,328.039,301.488,330.746L301.488,330.746z
		 M301.488,343.028l-0.146,1.281h0.146V343.028L301.488,343.028z M294.096,326.613v3.027h-1.63
		c-0.902,0.204-1.746,0.873-2.416,2.183c-0.844,1.688-1.31,3.987-1.019,6.49c0.262,1.747,1.048,2.765,1.833,2.853h3.231v3.144
		h-4.715c-1.077,0-2.3-1.921-2.649-4.512c-0.495-4.278,0.378-8.382,1.95-10.914c0.902-1.339,1.95-2.271,2.998-2.271L294.096,326.613
		L294.096,326.613z M283.239,326.613h-10.507l-0.407,3.755h9.663c0.466,0,0.873,0.32,1.223,1.135
		c0.349,0.902,0.32,2.357,0.175,3.493c-0.32,2.329-1.223,5.443-2.358,5.443h-7.305c0.262-2.271,0.524-4.569,0.786-6.869h-2.561
		l-1.281,10.74h10.74c1.193,0,2.241-1.135,3.114-3.144c1.193-2.823,1.921-6.52,1.426-10.478
		C285.568,328.068,284.316,326.613,283.239,326.613L283.239,326.613z"/>
	<path fill="#ED1C24" d="M450.156,327.457c0.641,0.087,1.31,0.175,1.659,0.786c0.262,0.669,0.175,1.543,0.175,2.329l-0.088,8.033
		c-0.203,2.649,0.175,5.588-1.718,7.567c-0.582,0.611-1.223,1.077-1.862,1.514v1.193c0.583-0.35,1.165-0.757,1.747-1.165
		c1.746-1.251,2.386-3.114,2.531-5.064c0.291-4.453,0.319-9.022,0.319-13.563c0-0.524,0-1.048-0.232-1.484
		c-0.406-0.611-1.076-0.873-1.717-0.99c-0.874-0.058-1.774-0.146-2.648-0.174v0.931
		C448.934,327.399,449.545,327.428,450.156,327.457L450.156,327.457z M448.322,343.814v-2.91c0.554-1.106,0.932-2.271,1.252-3.464
		c0.116-0.116,0.232-0.233,0.378-0.262c0.232,0,0.466,0.058,0.523,0.262c0.06,0.437,0.06,0.96,0,1.397
		c-0.262,0.087-0.146,0.32-0.028,0.466c0,0.378-0.06,0.669-0.203,1.019c-0.088,0.029-0.204,0.087-0.204,0.204
		c0.231,0.35-0.088,0.786-0.204,1.165c-0.087,0.029-0.175,0.087-0.262,0.145c0.291,0.437-0.175,0.815-0.466,1.136
		c-0.059-0.029-0.116,0.029-0.176,0.087c0.176,0.35-0.318,0.495-0.522,0.699C448.381,343.756,448.352,343.785,448.322,343.814
		L448.322,343.814z M448.322,339.827v-6.869c0.204,0.117,0.437,0.292,0.61,0.495c0.642,0.873,0.846,1.979,0.961,3.085
		c0.029,0.175-0.115,0.35-0.262,0.378c-0.728,0.291-0.523,1.193-0.845,1.747C448.643,339.041,448.497,339.448,448.322,339.827
		L448.322,339.827z M448.322,332.463v-0.611c0.175,0.232,0.319,0.495,0.379,0.756C448.556,332.55,448.439,332.521,448.322,332.463
		L448.322,332.463z M448.322,347.685c-1.076,0.669-2.212,1.164-3.288,1.775l-4.803,2.387c0,0-0.029,0-0.029-0.029v1.135
		c0,0.029,0.029,0.029,0.029,0.029c2.706-1.31,5.472-2.503,8.091-4.104V347.685L448.322,347.685z M440.202,327.195
		c2.707-0.029,5.442,0.029,8.12,0.175v-0.931c-2.678-0.175-5.413-0.233-8.12-0.204V327.195L440.202,327.195z M448.322,331.852v0.611
		c-0.232-0.117-0.465-0.233-0.698-0.321c-1.95-0.437-3.23,1.514-4.453,2.853l-1.455,1.717c-0.175,0.116-0.378,0.146-0.582,0.058
		c-0.844-0.611-0.582-1.862-0.669-2.881c-0.088-0.669,0.407-1.106,0.873-1.542c0.174,0.029,0.349-0.058,0.319-0.291
		c0.319-0.35,0.641-0.815,1.165-0.815c0.146-0.32,0.437-0.524,0.756-0.669c0.232-0.059,0.554,0.029,0.729-0.233
		c0.378-0.116,0.902-0.233,1.223,0.029l0.35-0.029c0.466,0.029,0.961,0.233,1.311,0.611c0.088,0.087,0.262,0.029,0.35,0.116
		C447.799,331.299,448.09,331.561,448.322,331.852L448.322,331.852z M448.322,332.958c-0.523-0.291-1.105-0.32-1.63-0.058
		c-1.893,1.193-2.3,3.318-3.173,5.093c-0.115,0.029-0.262-0.029-0.319,0.029c-0.087,0.233,0.146,0.175,0.204,0.32
		c0.115,0.087,0.146,0.204,0.058,0.32c-0.203,0.553-0.291,1.513-1.135,1.484c-0.351,0.117-0.262,0.553-0.32,0.815
		c0.06,0.087,0,0.233,0.116,0.233c0.059-0.029,0.117-0.117,0.146-0.175c0.264-0.233,0.524-0.582,0.846-0.408
		c0.058,0.728-0.873,0.641-1.193,1.165c-0.291,0.611-0.582,1.28-0.699,1.979c0,0.553,0.583,1.106,0.088,1.572
		c-0.262,0.262-0.697,0.029-0.932,0.291c-0.175,0.233-0.087,0.611,0.088,0.844c0.291,0.175,0.756,0.087,1.135,0.029
		c0.642-0.262,0.378-1.077,0.554-1.601c0.175-0.495,0.61-0.873,0.873-1.31c0.814-1.106,0.961-2.503,1.252-3.871
		c0.291-0.786,1.57-0.756,1.601-1.746c0-0.407-0.088-0.815-0.437-0.96c0-0.146,0.059-0.291,0.146-0.378
		c0.087-0.116,0.262-0.233,0.378-0.146c0.264,0.117,0.379,0.378,0.466,0.611c0.089,0.146,0,0.378,0.176,0.466
		c0,0.087,0,0.174-0.029,0.204c-0.058,0.349-0.203,0.873,0.116,1.106c0,0.087-0.087,0.146-0.116,0.175
		c-0.058,0.495-0.146,1.047,0,1.484c-0.058,0.087-0.146,0.117-0.174,0.175c-0.06,0.378-0.264,0.844,0,1.193
		c0.087,0.058,0.231,0,0.318-0.029c0.758-0.523,1.224-1.251,1.602-2.037v-6.869H448.322z M448.322,340.904v2.91
		c-0.641,0.32-1.514,0.437-2.153,0.116c-0.087-0.087-0.087-0.204-0.029-0.32c0.611-0.553,1.311-1.251,1.746-1.95
		C448.031,341.427,448.178,341.166,448.322,340.904L448.322,340.904z M440.202,347.54v-0.873c0.088,0.029,0.146,0.087,0.263,0.146
		c0.291,0,0.669-0.087,0.96,0.058c0.06,0.32-0.291,0.407-0.466,0.495C440.727,347.51,440.465,347.569,440.202,347.54L440.202,347.54
		z M440.202,351.818c-2.706-1.339-5.413-2.62-8.004-4.162c-0.059-0.029-0.087-0.058-0.146-0.087v1.222
		c2.62,1.572,5.355,2.881,8.149,4.162L440.202,351.818L440.202,351.818z M432.053,327.457c2.648-0.175,5.386-0.262,8.149-0.262
		v-0.96c-2.766,0.029-5.501,0.146-8.149,0.292V327.457L432.053,327.457z M440.202,346.667v0.873c-0.438,0-0.844-0.175-1.164-0.408
		c-0.087-0.058-0.087-0.146-0.058-0.233c0.349-0.232,0.784,0,1.135-0.232C440.145,346.667,440.174,346.667,440.202,346.667
		L440.202,346.667z M432.053,343.814v-2.853c0.524,0.96,1.193,1.834,2.125,2.562c0.087,0.087,0.087,0.233,0.06,0.378
		C433.625,344.28,432.693,344.164,432.053,343.814L432.053,343.814z M432.053,339.914c0.06,0.146,0.146,0.262,0.204,0.407
		c0.407,0.553,0.873,1.368,1.602,1.601c0.379-0.232,0.175-0.844,0.115-1.222c-0.087-0.029-0.202-0.146-0.174-0.262
		c0.203-0.407-0.028-0.873,0.028-1.339c-0.028-0.087-0.203-0.087-0.146-0.233c0.291-0.146,0.117-0.611,0.146-0.902
		c0-0.175-0.203-0.349,0.029-0.495c0-0.378,0.146-0.757,0.466-0.96c0.146-0.146,0.319-0.029,0.466,0.116
		c0.087,0.087,0.146,0.262,0.146,0.378c-0.319,0.087-0.378,0.466-0.406,0.728c-0.204,1.077,1.075,1.193,1.513,1.834
		c0.379,1.63,0.466,3.405,1.775,4.657c0.67,0.553,0.203,1.601,0.814,2.212c0.378,0.174,0.933,0.233,1.311,0.029
		c0.146-0.204,0.115-0.437,0.146-0.669c-0.116-0.553-0.813-0.116-1.077-0.524c-0.174-0.232-0.174-0.582-0.027-0.873
		c0.406-0.873-0.204-1.659-0.438-2.474c-0.231-0.495-0.756-0.582-1.135-0.844c-0.087-0.174-0.262-0.349-0.116-0.524
		c0.232-0.029,0.407,0.116,0.611,0.262c0.175,0.087,0.175,0.349,0.406,0.378c0.06-0.204,0.06-0.495,0.029-0.757
		c-0.175-0.466-0.814-0.262-1.077-0.699c-0.175-0.437-0.378-0.873-0.378-1.339c0.028-0.204,0.35-0.116,0.291-0.291
		c0.029-0.204-0.175-0.087-0.291-0.116c-0.438-0.728-0.699-1.514-1.019-2.299c-0.583-1.223-1.515-3.027-3.202-2.969
		c-0.232,0.058-0.438,0.116-0.611,0.204V339.914L432.053,339.914z M432.053,332.434v-0.582c0.233-0.291,0.524-0.583,0.846-0.815
		c0.174,0,0.349-0.117,0.437-0.262c0.438-0.233,0.844-0.611,1.396-0.407c0.175,0.029,0.291-0.146,0.466-0.146
		c0.407,0,0.844-0.029,1.136,0.349c0.437-0.087,0.873,0.175,1.135,0.524c0,0.232,0.32,0.146,0.438,0.232
		c0.319,0.262,0.844,0.553,0.844,0.961c0.059,0.087,0.204,0.029,0.291,0.058c1.077,0.611,0.873,1.863,0.815,2.881
		c-0.089,0.553-0.06,1.251-0.671,1.542c-0.146,0.117-0.378,0.058-0.493-0.058c-1.193-1.31-2.271-2.794-3.696-3.987
		c-0.729-0.553-1.776-0.932-2.649-0.437C432.257,332.317,432.141,332.376,432.053,332.434L432.053,332.434z M432.053,347.569
		c-1.804-1.077-3.113-2.94-3.144-5.006c-0.438-4.453-0.378-9.081-0.465-13.65c0.058-0.407,0.231-0.815,0.64-1.019
		c0.582-0.291,1.281-0.35,1.979-0.35c0.319-0.029,0.669-0.058,0.988-0.087v-0.931c-0.437,0.029-0.873,0.058-1.31,0.087
		c-0.814,0.029-1.571,0.146-2.299,0.466c-0.582,0.291-0.933,0.902-0.902,1.572l0.116,7.422c0.116,2.444,0.059,5.006,0.437,7.421
		c0.116,1.979,1.455,3.726,3.202,4.861c0.262,0.146,0.494,0.291,0.756,0.437L432.053,347.569L432.053,347.569z M432.053,331.852
		v0.582c-0.115,0.087-0.262,0.174-0.378,0.174C431.732,332.347,431.878,332.084,432.053,331.852L432.053,331.852z M432.053,332.929
		v6.985c-0.406-0.844-0.669-1.717-0.901-2.649c-0.087-0.437-0.698-0.232-0.669-0.669
		C430.686,335.286,430.802,333.569,432.053,332.929L432.053,332.929z M432.053,340.961v2.853c-0.058-0.029-0.087-0.058-0.146-0.087
		c-0.175-0.204-0.641-0.349-0.494-0.698c-0.379-0.087-0.582-0.524-0.699-0.815c-0.058-0.175,0.117-0.262,0.029-0.408
		c-0.466-0.174-0.378-0.728-0.523-1.106c0.087-0.058,0.116-0.175,0.059-0.291c-0.319-0.116-0.263-0.524-0.35-0.815
		c-0.232-0.349,0.438-0.553-0.028-0.757c-0.029-0.465-0.116-1.077,0.059-1.484c0.058-0.116,0.203-0.116,0.291-0.174
		c0.232-0.029,0.438,0.116,0.553,0.32C431.093,338.691,431.471,339.855,432.053,340.961L432.053,340.961z"/>
	<path fill="#ED1C24" d="M342.584,361.713c-0.582-0.727-1.426-0.641-2.241-0.697c-0.349,0-0.553,0.351-0.844,0.32
		c-1.077-0.408-1.892,0.318-2.736,0.756c-0.146,0.291-0.523,0.523-0.873,0.523c-1.019,0.844-2.009,1.834-2.357,3.027
		c0.466,0,0.873-0.465,1.339-0.611c1.659-0.961,3.667-0.203,5.093,0.814c2.736,2.329,4.832,5.182,7.131,7.771
		c0.233,0.202,0.669,0.291,0.96,0.088c1.164-0.582,1.136-1.894,1.281-2.998c0.087-1.979,0.524-4.364-1.572-5.528
		c-0.175-0.089-0.437,0.028-0.553-0.146c0-0.785-1.019-1.367-1.601-1.863c-0.263-0.174-0.845,0.029-0.845-0.436
		C344.244,362.062,343.429,361.539,342.584,361.713L342.584,361.713z"/>
	<path fill="#ED1C24" d="M360.949,361.277l-0.641,0.059c-0.641-0.525-1.63-0.264-2.356-0.059c-0.351,0.522-0.99,0.35-1.397,0.436
		c-0.611,0.291-1.223,0.67-1.456,1.281c-1.048,0-1.63,0.902-2.27,1.572c0.029,0.465-0.262,0.641-0.641,0.61
		c-0.873,0.814-1.862,1.658-1.688,2.939c0.175,1.979-0.349,4.364,1.339,5.588c0.35,0.146,0.757,0.114,1.106-0.146l2.822-3.289
		c2.328-2.562,4.803-6.345,8.615-5.529c0.67,0.262,1.311,0.699,2.037,0.902c-0.29-1.164-1.28-2.125-2.27-2.939
		c-0.146-0.174-0.495-0.088-0.642-0.262C362.842,361.713,361.881,361.336,360.949,361.277L360.949,361.277z"/>
	<path fill="#ED1C24" d="M341.682,371.639c-1.164-2.387-2.969-5.879-6.228-5.734c-3.551,0.671-3.755,4.57-4.22,7.451
		c-0.06,0.845,1.164,0.465,1.31,1.312c0.523,2.065,1.135,4.045,2.154,5.879c0.757,1.104,1.659,2.647,3.085,3.113
		c0.728-0.466,0.349-1.658,0.204-2.357c-0.175-0.086-0.378-0.29-0.35-0.493c0.407-0.814-0.028-1.718,0.087-2.619
		c-0.087-0.176-0.378-0.176-0.291-0.438c0.554-0.291,0.204-1.192,0.291-1.746c0-0.35-0.378-0.698,0.06-0.932
		c0-0.785,0.291-1.455,0.901-1.892c0.291-0.264,0.641-0.059,0.902,0.203c0.174,0.232,0.291,0.523,0.232,0.785
		c-0.582,0.176-0.729,0.844-0.757,1.398c-0.379,2.066,2.096,2.27,2.939,3.521c0.729,3.173,0.902,6.576,3.435,9.021
		c1.252,1.078,0.35,3.087,1.514,4.25c0.728,0.351,1.805,0.466,2.532,0.029c0.291-0.35,0.262-0.815,0.291-1.223
		c-0.204-1.076-1.572-0.262-2.037-1.049c-0.351-0.465-0.351-1.135-0.087-1.658c0.814-1.717-0.408-3.26-0.815-4.803
		c-0.466-0.932-1.484-1.135-2.212-1.629c-0.175-0.32-0.495-0.67-0.204-1.021c0.438-0.028,0.815,0.205,1.165,0.523
		c0.291,0.176,0.349,0.641,0.786,0.729c0.117-0.438,0.058-0.99,0.029-1.455c-0.351-0.902-1.515-0.523-2.038-1.367
		c-0.32-0.816-0.729-1.689-0.757-2.592c0.087-0.377,0.669-0.203,0.61-0.582c0.029-0.379-0.349-0.146-0.61-0.232
		C342.788,374.666,342.265,373.123,341.682,371.639L341.682,371.639z"/>
	<path fill="#ED1C24" d="M366.857,367.273c-1.076-1.281-2.853-1.806-4.308-1.021c-3.667,2.271-4.424,6.373-6.142,9.779
		c-0.204,0.088-0.466-0.029-0.582,0.088c-0.174,0.437,0.232,0.351,0.378,0.61c0.204,0.175,0.262,0.377,0.116,0.611
		c-0.407,1.105-0.554,2.939-2.211,2.852c-0.699,0.263-0.524,1.076-0.611,1.601c0.087,0.146,0,0.468,0.232,0.468
		c0.116-0.06,0.203-0.232,0.291-0.351c0.467-0.437,0.989-1.104,1.631-0.785c0.115,1.426-1.688,1.224-2.329,2.24
		c-0.554,1.192-1.106,2.475-1.311,3.842c-0.058,1.049,1.106,2.097,0.116,3.058c-0.523,0.465-1.339,0.028-1.804,0.493
		c-0.292,0.496-0.175,1.224,0.174,1.632c0.611,0.35,1.514,0.231,2.183,0.086c1.28-0.494,0.786-2.037,1.106-3.084
		c0.32-0.99,1.164-1.718,1.688-2.504c1.542-2.183,1.833-4.859,2.388-7.509c0.553-1.543,3.056-1.455,3.084-3.377
		c0.059-0.756-0.116-1.571-0.814-1.894c0-0.262,0.146-0.493,0.262-0.727c0.204-0.203,0.524-0.408,0.758-0.262
		c0.494,0.232,0.728,0.727,0.901,1.164c0.146,0.291-0.028,0.727,0.32,0.961c0,0.145,0.029,0.291-0.059,0.377
		c-0.088,0.67-0.378,1.66,0.232,2.125c0,0.176-0.146,0.262-0.232,0.32c-0.116,0.961-0.291,2.037,0,2.91
		c-0.088,0.146-0.263,0.205-0.35,0.291c-0.088,0.729-0.495,1.631,0,2.301c0.174,0.145,0.494,0.057,0.641-0.029
		c2.153-1.514,3.144-3.93,3.986-6.172c0.611-1.105,0.233-2.822,1.63-3.375c0.291-0.088,0.555-0.379,0.524-0.729
		C368.487,371.115,368.109,368.99,366.857,367.273L366.857,367.273z"/>
	<path fill="#ED1C24" d="M331.874,375.102c-0.204-0.379-0.64-0.67-1.077-0.582c-0.175,0.06-0.437,0.06-0.553,0.291
		c-0.35,0.814-0.175,1.949-0.117,2.853c0.873,0.438-0.407,0.815,0.029,1.457c0.175,0.608,0.087,1.366,0.728,1.629
		c0.087,0.174,0.059,0.438-0.116,0.553c0.232,0.729,0.116,1.806,1.02,2.154c0.116,0.262-0.204,0.437-0.087,0.756
		c0.262,0.554,0.64,1.429,1.339,1.603c-0.262,0.67,0.64,0.932,0.96,1.311c1.251,0.814,3.23,1.135,4.511,0.348
		c0.087-0.262,0.029-0.553-0.146-0.727C334.581,383.717,332.951,379.439,331.874,375.102L331.874,375.102z"/>
	<path fill="#ED1C24" d="M369.855,374.984c-0.116-0.406-0.554-0.465-0.989-0.465c-0.291,0.028-0.495,0.231-0.757,0.465
		c-0.729,2.854-1.688,5.646-3.261,8.18c-0.813,1.367-2.183,2.678-3.376,3.754c-0.088,0.205-0.088,0.467,0.087,0.611
		c1.281,0.67,3.114,0.379,4.309-0.35c0.379-0.378,1.339-0.642,1.048-1.339c0.059-0.116,0.204-0.202,0.32-0.176
		c0.522-0.582,1.426-1.31,0.873-2.183c0.175-0.116,0.319-0.203,0.494-0.291c0.232-0.729,0.873-1.543,0.407-2.271
		c0.029-0.203,0.232-0.291,0.407-0.377c0.262-0.642,0.407-1.252,0.407-1.979c-0.232-0.263-0.494-0.668,0.029-0.845
		C369.973,376.848,369.973,375.83,369.855,374.984L369.855,374.984z"/>
	<path fill="#ED1C24" d="M350.501,393.088c-0.262-0.145-0.437-0.32-0.669-0.262c-0.641,0.467-1.514,0-2.183,0.438
		c-0.06,0.174-0.06,0.32,0.115,0.465c0.99,0.758,2.532,1.105,3.727,0.467c0.291-0.204,0.989-0.379,0.844-0.989
		C351.782,392.943,351.054,393.117,350.501,393.088L350.501,393.088z"/>
	<path fill="#ED1C24" d="M419.945,335.315l5.15-8.703h-3.607c-1.368,2.183-2.707,4.424-4.075,6.578l-0.32,0.203h-2.969l0.786-6.723
		h-2.707v0.059l-1.63,13.155v4.25h2.271l0.844-6.869h2.241c0.555,0.087,1.224-0.291,1.659,0.611l2.765,6.316h3.609L419.945,335.315
		L419.945,335.315z M410.573,330.426v-3.784h0.523c-0.115,1.251-0.291,2.503-0.407,3.784H410.573L410.573,330.426z M410.573,339.885
		l-0.494,4.25h0.494V339.885L410.573,339.885z M410.573,326.642v3.784h-8.877c-1.28,0-2.648,2.125-3.057,4.89
		c-0.175,1.135-0.175,2.707,0.203,3.696c0.351,1.019,0.845,1.484,1.427,1.484h9.228l-0.495,3.813h-10.303
		c-1.252,0-2.445-1.775-2.795-4.395c-0.028-0.146-0.028-0.32-0.059-0.466v-4.133c0.263-2.445,0.989-4.657,1.979-6.258
		c0.96-1.484,2.037-2.416,3.316-2.416L410.573,326.642L410.573,326.642z M395.847,327.399l0.116-0.815h-0.116V327.399
		L395.847,327.399z M395.847,326.584v0.815l-1.396,11.467h-1.484v-9.779l0.32-2.503H395.847L395.847,326.584z M395.847,335.315
		c-0.146,1.339-0.146,2.707,0,4.133V335.315L395.847,335.315z M392.965,344.309v-3.813h1.223l-0.437,3.813H392.965L392.965,344.309z
		 M392.965,329.087v9.779h-1.223L392.965,329.087L392.965,329.087z M392.965,340.496h-6.286c-0.901,0-1.834,0.174-2.444-1.223
		c-0.204-0.64-0.176-1.601-0.146-2.386l1.252-10.274h-2.62l-1.251,9.547c-0.028,0.174-0.028,0.378-0.059,0.582v2.037
		c0.029,0.524,0.088,1.019,0.175,1.455c0.378,2.503,1.455,4.075,2.591,4.075h0.203h8.586V340.496L392.965,340.496z M381.41,332.056
		v-1.63C381.469,330.979,381.469,331.532,381.41,332.056L381.41,332.056z M381.41,330.426v1.63
		c-0.087,1.542-0.465,2.969-0.989,4.104c0.232,0.523,0.262,1.28,0.232,2.008c-0.263,2.008-0.523,4.017-0.785,6.025h-2.94
		l0.757-6.287c0-0.262-0.027-0.553-0.174-0.641h-0.554h-7.247l-0.844,6.869h-2.184v-5.006l0.698-5.705h9.896
		c0.553,0,1.164-0.728,1.31-2.008c0-0.349-0.116-0.582-0.232-0.727l-0.319-0.262H367.79l0.437-3.784h10.887
		c0.901,0,1.861,0.902,2.212,2.911C381.382,329.844,381.41,330.135,381.41,330.426L381.41,330.426z M381.41,336.742
		c-0.028,0.669-0.028,1.368,0,2.037V336.742L381.41,336.742z M366.684,330.396h0.146c0.175-1.251,0.319-2.561,0.466-3.784h-0.611
		L366.684,330.396L366.684,330.396z M366.684,326.613v3.784h-14.349l0.438-3.784H366.684L366.684,326.613z M366.684,339.128v5.006
		h-0.61L366.684,339.128L366.684,339.128z M359.291,344.134l1.339-10.74h-2.678l-1.311,10.798h2.648L359.291,344.134
		L359.291,344.134z"/>
	<path d="M412.582,353.593v-1.833c2.444,0.029,4.831,0.029,6.111,0c1.396-0.029,1.571-0.087,1.718-0.204
		c0.116-0.087,0.204-0.291,0.204-0.378c0-0.145-0.06-0.203-0.873-0.262c-0.786-0.029-2.271-0.029-3.349,0
		c-1.048,0-1.745,0.029-2.152-0.029c-0.466-0.029-0.642-0.146-0.815-0.262c-0.116-0.146-0.204-0.291-0.262-0.466
		c-0.029-0.204-0.029-0.407,0.058-0.64c0.088-0.291,0.264-0.611,0.379-0.902c0.176-0.32,0.263-0.582,0.467-0.902
		c0.175-0.291,0.437-0.611,0.641-0.815c0.465-0.349,0.64-0.465,1.542-0.553c0.466,0,1.135,0,2.707,0c1.513,0,3.929,0,6.345,0.029
		l-0.961,1.892c-2.386-0.029-4.802-0.029-6.11-0.029c-1.31,0-1.484,0.029-1.659,0.087c-0.116,0.059-0.204,0.175-0.291,0.262
		c-0.029,0.087-0.088,0.117-0.088,0.175c-0.028,0.087,0,0.204,0.146,0.291c0.06,0.029,0.117,0.058,1.34,0.058
		s3.608-0.058,4.803,0.117c1.192,0.117,1.223,0.466,1.192,0.728c0,0.233-0.029,0.437-0.087,0.669
		c-0.088,0.175-0.204,0.437-0.32,0.64c-0.291,0.641-0.554,1.397-1.252,1.979c-0.175,0.087-0.35,0.175-0.61,0.263
		c-0.232,0.029-0.494,0.087-2.212,0.087C417.733,353.593,415.23,353.593,412.582,353.593L412.582,353.593z M412.582,348.267h0.466
		l0.902-1.921h-1.368V348.267L412.582,348.267z M412.582,346.346v1.921h-3.405l-2.678,5.268h-2.765l2.618-5.327h-3.986l0.901-1.862
		H412.582L412.582,346.346z M412.582,351.76c-0.146,0-0.291-0.029-0.466-0.029l-0.902,1.863c0.466,0,0.933,0,1.368,0V351.76
		L412.582,351.76z M395.817,352.109v-2.794c0.35,0,0.67,0,0.932,0c0.931,0,1.251,0,1.455-0.029c0.407-0.058,0.553-0.407,0.64-0.669
		c0.06-0.145,0-0.262-0.174-0.32c-0.204-0.029-0.523,0-1.456,0c-0.378,0-0.873,0-1.396,0v-1.95c0.757-0.029,1.455-0.029,2.037-0.029
		c1.543,0,2.3-0.029,2.794,0c0.494,0.029,0.698,0.117,0.872,0.233c0.146,0.117,0.291,0.291,0.351,0.495
		c0.059,0.204,0.059,0.437-0.029,0.728c-0.058,0.292-0.231,0.699-0.407,1.077c-0.146,0.378-0.319,0.757-0.522,1.077
		c-0.204,0.32-0.408,0.553-0.611,0.728c-0.232,0.174-0.466,0.32-0.757,0.378c-0.582,0.145-1.164,0.145-1.514,0.204l1.57,2.329
		h-2.909L395.817,352.109L395.817,352.109z M395.817,346.346v1.95c-0.758,0-1.602,0-2.445,0l-0.61,1.019c1.105,0,2.184,0,3.057,0
		v2.794l-0.554-0.902h-3.376l-1.136,2.329h-2.27v-0.96l3.143-6.229C393.081,346.346,394.537,346.346,395.817,346.346
		L395.817,346.346z M388.483,348.995c0.146-0.291,0.262-0.523,0.349-0.698c0.146-0.378,0.175-0.553,0.146-0.728
		c0-0.146-0.058-0.35-0.115-0.524c-0.06-0.174-0.175-0.32-0.291-0.437c-0.029-0.029-0.06-0.058-0.087-0.058L388.483,348.995
		L388.483,348.995z M388.483,346.55v2.445c-0.117,0.233-0.264,0.524-0.408,0.786c-0.262,0.582-0.611,1.222-0.814,1.63
		c-0.204,0.407-0.319,0.611-0.466,0.815c-0.146,0.232-0.32,0.465-0.466,0.611c-0.204,0.175-0.349,0.262-0.466,0.32
		c-0.291,0.146-0.554,0.32-1.193,0.378c-0.349,0.029-0.844,0-1.251,0s-0.757,0.029-1.077,0.029c-0.146,0-0.291,0-0.437,0v-1.892
		c0.028,0,0.028,0,0.058,0c0.845,0,1.572,0.029,1.951-0.029c0.378,0,0.437-0.087,0.465-0.116c0.029-0.058,0.088-0.087,0.175-0.233
		c0.146-0.291,0.495-0.96,0.757-1.484c0.146-0.291,0.263-0.524,0.351-0.669c0.116-0.175,0.145-0.291,0.174-0.378
		c0.029-0.116,0.029-0.233,0-0.291c0-0.087-0.058-0.087-0.087-0.117s-0.087-0.058-0.232-0.058c-0.116,0-0.407,0-1.02,0
		c-0.61,0-1.602,0-2.444,0c-0.028,0-0.088,0-0.146,0v-1.95c0.407,0,0.844,0,1.339,0c1.019,0,2.241,0,3.114,0
		c0.844,0,1.31,0,1.63,0.029C388.221,346.404,388.366,346.462,388.483,346.55L388.483,346.55z M388.483,352.575l-0.495,0.96h0.495
		V352.575L388.483,352.575z M381.905,346.346v1.95c-0.757,0-1.397,0-1.718,0c-0.379,0-0.466,0.058-0.494,0.087
		c-0.06,0.029-0.146,0.058-0.263,0.291c-0.175,0.204-0.35,0.611-0.582,1.019c-0.204,0.437-0.407,0.844-0.523,1.106
		c-0.146,0.291-0.175,0.437-0.262,0.524c-0.06,0.087-0.088,0.146-0.088,0.174c0.059,0.058,0.175,0.146,0.378,0.175
		c0.232,0.029,0.554,0.029,1.164,0c0.642,0,1.571,0,2.388,0v1.892c-0.495,0-1.02,0-1.95,0c-0.611,0-1.426,0-2.066-0.029
		c-0.582,0-1.019,0-1.339,0c-0.35-0.029-0.553-0.058-0.757-0.146c-0.087,0-0.146-0.059-0.204-0.087v-2.503
		c0-0.029,0-0.059,0.029-0.087c0.263-0.495,0.641-1.251,0.961-1.921c0.378-0.641,0.669-1.222,0.932-1.572
		c0.291-0.349,0.523-0.495,0.756-0.611c0.264-0.116,0.524-0.204,0.933-0.262c0.437-0.029,1.048,0,1.718,0
		C381.235,346.346,381.556,346.346,381.905,346.346L381.905,346.346z M375.589,348.82c0.146-0.32,0.263-0.612,0.351-0.786
		c0.087-0.204,0.115-0.233,0.146-0.291c0.116-0.204,0.116-0.553-0.059-0.815c-0.087-0.204-0.175-0.378-0.407-0.495
		c-0.029,0-0.029-0.029-0.029-0.029L375.589,348.82L375.589,348.82z M375.589,346.404v2.416c0,0-0.028,0-0.028,0.029
		c-0.319,0.669-0.67,1.455-1.019,1.892c-0.175,0.233-0.32,0.35-0.495,0.466c-0.204,0.117-0.407,0.204-0.813,0.262
		c-0.38,0.029-1.021,0-2.242,0c-0.29,0-0.61,0-0.96,0v-1.892c0.028,0,0.087,0,0.115,0c0.845,0,1.428,0,1.806-0.058
		c0.407-0.029,0.553-0.117,0.67-0.233c0.203-0.204,0.349-0.495,0.378-0.728c0.029-0.146,0-0.262-0.116-0.291
		c-0.116-0.029-0.35-0.029-0.582,0c-0.204,0-0.437,0-1.223,0.029c-0.291,0-0.642,0-1.048,0v-1.95c0.786,0,1.514,0,2.096,0
		c1.571,0,2.416-0.058,2.882-0.029C375.386,346.317,375.502,346.375,375.589,346.404L375.589,346.404z M375.589,350.799
		c-0.437,0.844-0.581,1.019-0.581,1.397c0,0.174,0,0.378,0.059,0.524s0.115,0.262,0.231,0.378c0.088,0.058,0.175,0.145,0.291,0.204
		V350.799L375.589,350.799z M370.03,346.346v1.95c-0.698,0-1.543,0-2.416,0l-0.554,1.28c1.077,0,2.125,0,2.97,0v1.892
		c-1.136,0-2.562,0-4.018,0l-0.96,2.038h-1.805v-1.776l2.735-5.414C367.382,346.317,368.808,346.346,370.03,346.346L370.03,346.346z
		 M363.249,348.208L363.249,348.208l0.902-1.862c-0.32,0-0.611,0-0.902,0V348.208L363.249,348.208z M363.249,346.346v1.862
		c-1.95,0-3.871,0-5.123,0c-1.281,0-1.892-0.029-2.241,0c-0.349,0-0.407,0.059-0.465,0.117c-0.087,0.059-0.146,0.087-0.175,0.175
		c-0.087,0.174-0.291,0.408-0.029,0.523c0.059,0.029,0.116,0.087,1.223,0.087c1.135,0,3.26-0.058,4.395,0
		c1.164,0.029,1.339,0.146,1.455,0.262c0.117,0.146,0.204,0.262,0.233,0.465c0.058,0.233,0.058,0.466-0.089,0.874
		c-0.146,0.378-0.406,0.931-0.609,1.31c-0.233,0.378-0.379,0.641-0.555,0.815c-0.146,0.204-0.29,0.32-0.493,0.437
		c-0.233,0.117-0.495,0.204-2.271,0.233c-1.688,0.058-4.686,0.087-7.742,0.029v-1.165l0.35-0.698l7.713-0.029
		c0.232,0.059,0.407,0,0.582-0.204c0.059-0.116,0.146-0.262,0.059-0.378c-0.059-0.146-0.291-0.233-0.437-0.204h-5.385
		c-0.319,0.029-0.728,0-0.989-0.146c-0.407-0.204-0.466-0.378-0.524-0.524c-0.029-0.204-0.087-0.32,0-0.64
		c0.059-0.175,0.175-0.437,0.32-0.728c0.232-0.553,0.553-1.193,0.873-1.572c0.378-0.466,0.814-0.669,1.251-0.786
		c0.262-0.087,0.495-0.116,0.844-0.116s0.757,0,2.241,0C358.941,346.346,361.037,346.346,363.249,346.346L363.249,346.346z
		 M363.249,351.73l-0.902,1.776h0.902V351.73L363.249,351.73z M350.763,349.053c0.291-0.611,0.786-1.339,0.495-2.125
		c-0.087-0.116-0.146-0.233-0.262-0.349c-0.059-0.059-0.146-0.117-0.233-0.175V349.053L350.763,349.053z M350.763,346.404v2.648
		c-0.028,0.029-0.058,0.087-0.058,0.117c-0.204,0.378-0.438,0.815-0.583,1.077c-0.204,0.233-0.466,0.408-0.786,0.611
		c-0.175,0.087-0.349,0.146-0.669,0.204c-0.32,0.029-0.757,0.029-1.193,0.029l1.542,2.416h-2.938l-0.729-1.31v-2.911
		c0.291,0,0.495,0,0.729,0c0.901,0,1.281,0.029,1.542-0.029c0.262-0.029,0.378-0.117,0.495-0.292
		c0.087-0.145,0.174-0.349,0.174-0.465c0.029-0.116,0-0.175-0.029-0.204c-0.058-0.029-0.145-0.029-0.231-0.059
		c-0.087,0-0.204,0-1.077,0c-0.407,0.029-0.989,0.029-1.602,0.029v-1.979c0.378,0,0.786,0,1.136,0c1.426,0,2.183,0,2.765,0
		c0.583-0.029,0.96-0.029,1.193,0.029C350.559,346.346,350.676,346.375,350.763,346.404L350.763,346.404z M350.763,352.371
		l-0.61,1.136c0.204,0,0.406,0.029,0.61,0.029V352.371L350.763,352.371z M345.35,346.288v1.979c-0.757,0-1.63,0-2.503,0
		l-0.495,1.019c1.049,0,2.125,0,2.998,0v2.911l-0.64-1.077h-3.318l-1.223,2.387h-2.299v-0.874l3.201-6.345
		C342.556,346.288,344.098,346.288,345.35,346.288L345.35,346.288z M337.87,349.023c0.174-0.349,0.262-0.582,0.349-0.756
		c0.087-0.437,0.087-0.553,0.029-0.873c-0.059-0.146-0.175-0.378-0.32-0.495c0-0.029-0.028-0.058-0.058-0.087V349.023
		L337.87,349.023z M337.87,346.812v2.211c0,0-0.029,0-0.029,0.029c-0.174,0.349-0.378,0.815-0.64,1.281
		c-0.204,0.466-0.438,0.931-0.642,1.281c-0.203,0.378-0.349,0.669-0.494,0.902c-0.35,0.524-0.698,0.814-1.251,1.048
		c-0.32,0.116-0.698,0.174-0.989,0.204c-0.351,0-0.583,0-1.136,0c-0.35,0-0.814,0-1.396,0v-1.863c0.232,0,0.465,0,0.64,0
		c0.698,0,1.02,0.029,1.251,0c0.291,0,0.438-0.087,0.582-0.262c0.263-0.349,0.554-1.047,0.845-1.659
		c0.174-0.262,0.262-0.495,0.378-0.699c0.087-0.233,0.204-0.437,0.204-0.553c-0.029-0.32-0.524-0.233-0.873-0.233
		c-0.204,0-0.378,0-0.757,0c-0.38,0-0.99-0.029-1.572-0.029c-0.262,0-0.466,0-0.698,0v-1.921c0.582,0,1.222,0,1.892,0
		c1.049,0,2.154,0,2.853,0c0.699,0,1.048,0,1.339,0.058C337.579,346.637,337.724,346.695,337.87,346.812L337.87,346.812z
		 M337.87,352.633l-0.438,0.874h0.438V352.633L337.87,352.633z M331.292,346.55v1.921c-0.35,0-0.67,0-0.902,0
		c-0.407,0-0.582,0-0.757,0c-0.204,0-0.35-0.029-0.523,0.029c-0.146,0.058-0.291,0.174-0.407,0.349
		c-0.233,0.378-0.408,0.844-0.642,1.281c-0.115,0.204-0.231,0.495-0.349,0.669c-0.175,0.437-0.233,0.437-0.291,0.64
		c-0.029,0.087-0.058,0.233,0.029,0.32c0.058,0.087,0.204,0.116,0.495,0.146c0.291,0,0.698,0,1.455,0c0.523,0,1.251,0,1.892,0v1.863
		c-0.292,0-0.641,0-1.019,0c-1.077,0-2.444,0-3.26,0c-0.814,0-1.136,0-1.396-0.029c-0.087,0-0.204-0.029-0.291-0.058v-3.493
		c0.029-0.029,0.029-0.058,0.059-0.116c0.232-0.466,0.494-1.019,0.698-1.397c0.204-0.407,0.349-0.698,0.524-0.931
		c0.291-0.495,0.61-0.757,1.105-0.989c0.262-0.117,0.582-0.175,1.02-0.204c0.407-0.029,0.932,0,1.688,0
		C330.681,346.55,330.972,346.55,331.292,346.55L331.292,346.55z M325.325,348.471h0.087l0.931-1.979h-1.019L325.325,348.471
		L325.325,348.471z M325.325,346.492v1.979h-3.812l-2.735,5.238l-2.648-0.029l2.678-5.297l-4.074,0.029l0.874-1.921L325.325,346.492
		L325.325,346.492z M325.325,350.188c-0.262,0.466-0.465,0.902-0.641,1.251c-0.203,0.378-0.291,0.611-0.35,0.844
		c-0.029,0.204-0.029,0.407,0.029,0.582c0.028,0.175,0.117,0.32,0.204,0.437c0.087,0.087,0.232,0.204,0.407,0.291
		c0.116,0.029,0.233,0.087,0.35,0.087V350.188L325.325,350.188z M307.164,353.739v-1.805c0.32,0,0.902,0,1.455,0
		c0.495,0,0.786,0.117,1.105-0.291c0.146-0.174,0.291-0.437,0.466-0.756c0.175-0.349,0.35-0.757,0.494-1.048
		c0.146-0.32,0.291-0.523,0.35-0.698c0.087-0.175,0.116-0.291,0.087-0.378c0-0.087-0.116-0.175-0.291-0.204
		c-0.146-0.058-0.349-0.058-0.611-0.058c-0.232,0-0.495,0-1.048,0c-0.523,0-1.339,0-2.008,0v-1.95c0.465,0,0.96,0,1.455,0
		c0.873,0,1.746,0.029,2.532,0.029c0.785,0,1.514,0,1.921,0c0.378,0.029,0.406,0.058,0.437,0.087
		c0.029,0.029,0.087,0.058,0.174,0.116c0.087,0.029,0.233,0.146,0.32,0.32c0.087,0.116,0.175,0.291,0.175,0.466
		c0.029,0.174,0.059,0.378-0.028,0.64c-0.088,0.292-0.263,0.641-0.438,0.99c-0.291,0.611-0.495,1.019-0.902,1.805
		c-0.174,0.35-0.407,0.844-0.64,1.223c-0.233,0.378-0.437,0.669-0.641,0.873c-0.466,0.466-0.873,0.582-1.571,0.64
		c-0.378,0.029-0.844,0.029-1.542,0C308.037,353.739,307.629,353.739,307.164,353.739L307.164,353.739z M300.47,348.5
		c0.174-0.437,0.174-0.582,0.174-0.757c0-0.204-0.058-0.378-0.146-0.553c0,0-0.029,0-0.029-0.029L300.47,348.5L300.47,348.5z
		 M307.164,346.55v1.95c-0.029,0-0.029,0-0.059,0c-0.67-0.029-1.135-0.058-1.484-0.029c-0.582,0.029-0.815,0.087-1.077,0.582
		c-0.087,0.233-0.262,0.553-0.378,0.815c-0.291,0.553-0.582,1.135-0.96,1.805c0.087,0.117,0.204,0.175,0.437,0.204
		c0.233,0.029,0.582,0.029,0.99,0c0.437,0,0.931,0.029,1.28,0.029c0.669,0,0.815,0,1.135,0c0.029,0.029,0.087,0.029,0.117,0.029
		v1.805c-0.408,0-0.874,0-1.339,0c-0.932,0-1.834,0-2.445-0.029c-0.611,0-0.932,0-1.251,0c-0.32,0-0.67,0-0.844-0.029
		c-0.175-0.029-0.175-0.087-0.233-0.087c-0.029-0.029-0.117-0.029-0.175-0.058c-0.116-0.029-0.262-0.175-0.407-0.349v-1.397
		c0.146-0.35,0.407-0.815,0.64-1.281c0.553-1.019,1.106-2.3,1.63-3.027c0.553-0.699,0.96-0.844,1.805-0.932c0.378,0,0.931,0,1.63,0
		C306.465,346.55,306.814,346.55,307.164,346.55L307.164,346.55z M290.981,348.5c0.466,0,0.582,0,0.669,0.029
		c0.087,0.029,0.116,0.058,0.175,0.087l-2.678,5.123h2.678l2.707-5.152c0.407,0,0.815,0,1.193,0c0.408,0,0.757,0,1.077,0
		c0.32,0,0.583,0,0.669,0.146c0.059,0.116,0,0.407-0.407,1.251c-0.378,0.873-1.077,2.357-1.805,3.812l2.62,0.029
		c0.931-1.747,1.804-3.522,2.27-4.541c0.146-0.349,0.262-0.582,0.32-0.786v-1.339c-0.087-0.146-0.233-0.262-0.291-0.32
		c-0.117-0.087-0.204-0.116-0.378-0.116c-0.146-0.058-0.378-0.117-2.532-0.175c-2.154,0-6.17-0.029-10.216,0l-3.027,5.763v1.31h1.95
		l2.794-5.123C289.613,348.5,290.486,348.5,290.981,348.5L290.981,348.5z M300.47,351.789v1.397c0,0-0.029-0.029-0.029-0.059
		c-0.087-0.116-0.146-0.291-0.146-0.465c-0.029-0.204,0.029-0.466,0.146-0.815C300.47,351.847,300.47,351.818,300.47,351.789
		L300.47,351.789z M284.025,347.918v-1.31h0.699L284.025,347.918L284.025,347.918z M284.025,352.313l-0.699,1.31h0.699V352.313
		L284.025,352.313z M284.025,346.608v1.31l-0.553,1.019h-3.027l1.281-2.329H284.025L284.025,346.608z M279.223,353.651v-2.27
		l0.058-0.087l3.172,0.029l-1.222,2.328H279.223L279.223,353.651z M279.223,351.323h0.087l1.106-2.416h-1.193V351.323
		L279.223,351.323z M279.223,348.908v2.416h-2.969l1.222-2.416H279.223L279.223,348.908z M279.223,351.381v2.27h-1.193
		L279.223,351.381L279.223,351.381z M273.111,353.623l1.95,0.029l1.193-2.357h-3.144L273.111,353.623L273.111,353.623z
		 M273.111,351.236v-2.328l1.193,0.029L273.111,351.236L273.111,351.236z M275.498,346.55l-1.193,2.358l3.172-0.029l1.193-2.329
		H275.498L275.498,346.55z M273.111,348.908v2.328l-0.029,0.087l-1.804-0.029v-2.386H273.111L273.111,348.908z M273.111,351.294
		h-0.029l-1.164,2.329h1.193V351.294L273.111,351.294z M271.277,348.878v-2.329h1.164l-1.135,2.329H271.277L271.277,348.878z
		 M271.277,346.55v2.329l-3.172,0.058l1.28-2.387H271.277L271.277,346.55z M271.277,348.908l-1.164,2.386h1.164V348.908
		L271.277,348.908z M265.835,353.651l1.135-2.357h3.144l-1.106,2.357H265.835L265.835,353.651z"/>
</g>
</svg>
