<?xml version="1.0" encoding="utf-8"?>
<!-- Generator: Adobe Illustrator 16.0.0, SVG Export Plug-In . SVG Version: 6.00 Build 0)  -->
<!DOCTYPE svg PUBLIC "-//W3C//DTD SVG 1.1//EN" "http://www.w3.org/Graphics/SVG/1.1/DTD/svg11.dtd">
<svg version="1.1" id="Layer_1" xmlns="http://www.w3.org/2000/svg" xmlns:xlink="http://www.w3.org/1999/xlink" x="0px" y="0px"
	 width="134.493px" height="175.749px" viewBox="29.131 8.503 134.493 175.749"
	 enable-background="new 29.131 8.503 134.493 175.749" xml:space="preserve">
<g>
	<polygon fill="#008C44" points="48.053,46.846 49.252,46.846 49.252,39.435 48.053,39.435 	"/>
	<polygon fill="#008C44" points="69.231,39.435 64.254,39.435 64.254,40.456 67.378,40.456 63.625,46.846 69.266,46.846 
		69.266,45.766 65.502,45.766 	"/>
	<path fill="#008C44" d="M32.801,39.813c-0.189-0.14-0.415-0.236-0.665-0.295c-0.19-0.048-0.463-0.071-0.82-0.083
		c-0.106,0-0.237,0-0.368,0h-1.817v7.412h1.128v-3.326h0.451h0.238c0.131,0,0.261,0,0.368-0.012c0.356-0.012,0.63-0.036,0.82-0.084
		c0.25-0.046,0.475-0.153,0.665-0.284c0.227-0.167,0.417-0.404,0.547-0.703c0.131-0.296,0.191-0.615,0.191-0.959
		c0-0.357-0.061-0.678-0.191-0.974C33.218,40.22,33.028,39.98,32.801,39.813L32.801,39.813z M31.97,42.309
		c-0.129,0.096-0.343,0.155-0.653,0.19c-0.191,0.024-0.416,0.037-0.677,0.037h-0.31v-2.069h0.31c0.261,0,0.486,0.013,0.677,0.037
		c0.285,0.034,0.486,0.106,0.63,0.202c0.238,0.165,0.356,0.44,0.356,0.832C32.303,41.906,32.196,42.167,31.97,42.309L31.97,42.309z"
		/>
	<path fill="#008C44" d="M125.757,42.866c0.286-0.331,0.43-0.808,0.43-1.388c0-0.345-0.061-0.654-0.189-0.94
		c-0.119-0.285-0.298-0.511-0.521-0.688c-0.203-0.155-0.428-0.26-0.701-0.319c-0.19-0.051-0.428-0.072-0.713-0.097
		c-0.131,0-0.272,0-0.428,0h-1.676v7.412h1.129v-3.315h0.131l0.844,1.129l1.615,2.187h1.354l-2.54-3.374
		C125.047,43.4,125.476,43.199,125.757,42.866L125.757,42.866z M123.371,42.595h-0.215v-2.128h0.215
		c0.272,0,0.501,0.013,0.688,0.048c0.25,0.036,0.43,0.108,0.56,0.203c0.224,0.166,0.332,0.449,0.332,0.854
		c0,0.38-0.108,0.641-0.312,0.795c-0.117,0.084-0.318,0.144-0.58,0.18C123.872,42.582,123.646,42.595,123.371,42.595L123.371,42.595
		z"/>
	<polygon fill="#008C44" points="141.164,46.846 142.364,46.846 142.364,39.435 141.164,39.435 	"/>
	<polygon fill="#008C44" points="88.581,39.435 83.604,39.435 83.604,40.456 86.727,40.456 82.974,46.846 88.616,46.846 
		88.616,45.766 84.851,45.766 	"/>
	<path fill="#008C44" d="M160.074,39.174l-0.013-0.037l-3.576,7.709h1.259l0.856-1.914h1.474h1.448l0.843,1.914h1.259
		L160.074,39.174L160.074,39.174z M160.074,43.937h-1.021l0.746-1.698c0.047-0.12,0.098-0.251,0.143-0.382
		c0.048-0.143,0.084-0.296,0.133-0.463v0.024c0.047,0.166,0.095,0.308,0.143,0.452c0.047,0.142,0.096,0.26,0.131,0.369l0.76,1.698
		H160.074L160.074,43.937z"/>
	<polygon fill="#008C44" points="103.06,46.846 107.181,46.846 107.181,45.766 104.259,45.766 104.259,43.365 107.181,43.365 
		107.181,42.309 104.259,42.309 104.259,40.456 107.181,40.456 107.181,39.435 103.06,39.435 	"/>
	<path fill="#008C44" d="M45.962,128.759c-0.871,0.335-4.697,4.006-5.341,8.088c-0.443,2.809,0.176,4.495,1.563,6.78
		c4.038,6.333,17.44,8.19,23.483,6.733c4.138-1.002,10.403-1.709,15.173-0.465c5.926,1.539,11.095,5.912,15.963,5.439
		c5.143-0.375,12.062-2.453,14.458-5.9c-3.396,1.789-7.723,3.228-14.021,3.836c-5.699,0.597-10.468-3.658-16.385-5.199
		c-4.772-1.243-10.28-0.719-14.418,0.279c-6.049,1.465-18.917-0.449-23.482-7.492C40.541,136.176,43.706,131.905,45.962,128.759
		L45.962,128.759z"/>
	<path fill="#008C44" d="M83.461,121.951c-6.057-0.876-11.679-4.651-16.464-3.644c-5.073,0.938-11.718,3.771-13.718,7.463
		c3.177-2.152,7.318-4.062,13.511-5.363c5.598-1.223,10.808,2.477,16.861,3.357C88.529,124.472,88.342,122.655,83.461,121.951
		L83.461,121.951z"/>
	<path fill="#008C44" d="M56.66,144.478c0.866,1.323,1.601,1.353,1.929,0.799c0.322-0.547-1.166-1.961-1.739-1.666
		C56.273,143.908,56.66,144.478,56.66,144.478L56.66,144.478z"/>
	<path fill="#008C44" d="M61.079,152.47c0.864,1.326,1.599,1.354,1.927,0.801c0.324-0.545-1.165-1.961-1.739-1.666
		C60.691,151.905,61.079,152.47,61.079,152.47L61.079,152.47z"/>
	<path fill="#008C44" d="M84.771,130.488c0.866,1.325,1.601,1.354,1.928,0.801c0.324-0.547-1.166-1.963-1.738-1.665
		C84.385,129.92,84.771,130.488,84.771,130.488L84.771,130.488z"/>
	<path fill="#008C44" d="M47.748,137.62c0.866,1.322,1.599,1.354,1.926,0.8c0.324-0.545-1.165-1.96-1.738-1.667
		C47.359,137.052,47.748,137.62,47.748,137.62L47.748,137.62z"/>
	<path fill="#008C44" d="M44.849,137.913c0.638,0.677,1.068,0.615,1.201,0.266c0.129-0.354-0.88-1.019-1.182-0.787
		C44.566,137.623,44.849,137.913,44.849,137.913L44.849,137.913z"/>
	<path fill="#008C44" d="M46.532,150.326c0.639,0.677,1.068,0.614,1.201,0.263c0.13-0.352-0.88-1.017-1.181-0.785
		C46.248,150.036,46.532,150.326,46.532,150.326L46.532,150.326z"/>
	<path fill="#008C44" d="M48.688,129.547c0.639,0.681,1.068,0.62,1.2,0.265c0.131-0.351-0.879-1.017-1.18-0.785
		C48.405,129.258,48.688,129.547,48.688,129.547L48.688,129.547z"/>
	<path fill="#008C44" d="M45.861,133.735c0.853,0.373,1.225,0.149,1.208-0.229c-0.016-0.374-1.208-0.59-1.394-0.259
		C45.487,133.581,45.861,133.735,45.861,133.735L45.861,133.735z"/>
	<path fill="#008C44" d="M70.54,127.212c0.884,0.936,1.478,0.855,1.661,0.365c0.182-0.486-1.215-1.407-1.633-1.088
		C70.149,126.812,70.54,127.212,70.54,127.212L70.54,127.212z"/>
	<path fill="#008C44" d="M53.081,152.035c0.882,0.938,1.476,0.856,1.66,0.364c0.18-0.482-1.218-1.404-1.635-1.086
		C52.688,151.636,53.081,152.035,53.081,152.035L53.081,152.035z"/>
	<path fill="#008C44" d="M141.394,143.729c1.404,0.725,2.059,0.389,2.07-0.258c0.012-0.634-1.982-1.132-2.336-0.593
		C140.776,143.425,141.394,143.729,141.394,143.729L141.394,143.729z"/>
	<path fill="#008C44" d="M127.679,149.032c0.893,0.275,1.233,0.013,1.176-0.36c-0.062-0.371-1.267-0.452-1.414-0.104
		C127.291,148.922,127.679,149.032,127.679,149.032L127.679,149.032z"/>
	<path fill="#008C44" d="M134.22,147.293c1.23,0.38,1.706,0.017,1.624-0.502c-0.081-0.511-1.752-0.623-1.956-0.14
		C133.681,147.142,134.22,147.293,134.22,147.293L134.22,147.293z"/>
	<path fill="#008C44" d="M73.488,123.425c0.537,0.569,0.896,0.518,1.009,0.223c0.109-0.297-0.738-0.855-0.992-0.662
		C73.25,123.183,73.488,123.425,73.488,123.425L73.488,123.425z"/>
	<path fill="#008C44" d="M131.214,126.343c0.536,0.57,0.896,0.52,1.01,0.223c0.108-0.295-0.74-0.854-0.992-0.659
		C130.976,126.101,131.214,126.343,131.214,126.343L131.214,126.343z"/>
	<path fill="#008C44" d="M82.126,132.747c0.539,0.572,0.899,0.521,1.009,0.225c0.111-0.295-0.737-0.854-0.992-0.658
		C81.89,132.506,82.126,132.747,82.126,132.747L82.126,132.747z"/>
	<path fill="#008C44" d="M111.159,153.366c0.539,0.57,0.898,0.519,1.009,0.221c0.11-0.294-0.737-0.854-0.991-0.66
		C110.921,153.123,111.159,153.366,111.159,153.366L111.159,153.366z"/>
	<path fill="#008C44" d="M68.031,152.735c0.539,0.57,0.898,0.519,1.01,0.221c0.109-0.294-0.737-0.854-0.993-0.659
		C67.793,152.492,68.031,152.735,68.031,152.735L68.031,152.735z"/>
	<path fill="#008C44" d="M86.424,154.084c0.537,0.569,0.897,0.519,1.009,0.224c0.109-0.298-0.739-0.856-0.993-0.662
		C86.185,153.842,86.424,154.084,86.424,154.084L86.424,154.084z"/>
	<path fill="#008C44" d="M67.254,123.998c0.854,0.374,1.224,0.151,1.208-0.229c-0.018-0.371-1.208-0.588-1.395-0.258
		C66.879,123.847,67.254,123.998,67.254,123.998L67.254,123.998z"/>
	<path fill="#008C44" d="M47.063,141.36c0.601,0.921,1.11,0.939,1.337,0.558c0.225-0.381-0.808-1.362-1.205-1.158
		C46.796,140.972,47.063,141.36,47.063,141.36L47.063,141.36z"/>
	<path fill="#008C44" d="M50.559,144.415c1.981,0.416,2.672-0.225,2.467-1.02c-0.201-0.787-2.83-0.723-3.081,0.064
		C49.694,144.253,50.559,144.415,50.559,144.415L50.559,144.415z"/>
	<path fill="#008C44" d="M79.304,152.265c0.6,0.918,1.11,0.937,1.337,0.557c0.224-0.383-0.809-1.364-1.207-1.158
		S79.304,152.265,79.304,152.265L79.304,152.265z"/>
	<path fill="#008C44" d="M97.946,158.052c1.979,0.415,2.672-0.224,2.467-1.021c-0.201-0.787-2.828-0.722-3.077,0.065
		C97.081,157.888,97.946,158.052,97.946,158.052L97.946,158.052z"/>
	<path fill="#008C44" d="M77.026,128.231c1.979,0.416,2.669-0.221,2.465-1.019c-0.201-0.788-2.827-0.721-3.078,0.065
		C76.16,128.072,77.026,128.231,77.026,128.231L77.026,128.231z"/>
	<path fill="#008C44" d="M63.519,147.104c2.471,0.518,3.332-0.276,3.078-1.271c-0.252-0.982-3.527-0.898-3.841,0.082
		C62.441,146.903,63.519,147.104,63.519,147.104L63.519,147.104z"/>
	<path fill="#008C44" d="M116.955,150.683c2.47,0.517,3.332-0.279,3.078-1.271c-0.253-0.983-3.529-0.9-3.843,0.081
		C115.877,150.479,116.955,150.683,116.955,150.683L116.955,150.683z"/>
	<path fill="#008C44" d="M65.102,143.375c1.244,0.263,1.678-0.138,1.549-0.642c-0.126-0.493-1.778-0.451-1.935,0.041
		C64.558,143.272,65.102,143.375,65.102,143.375L65.102,143.375z"/>
	<path fill="#008C44" d="M73.726,152c1.245,0.263,1.68-0.138,1.551-0.64c-0.127-0.494-1.777-0.452-1.936,0.041
		C73.183,151.897,73.726,152,73.726,152L73.726,152z"/>
	<path fill="#008C44" d="M74.289,131.858c1.244,0.259,1.678-0.144,1.549-0.643c-0.125-0.496-1.777-0.453-1.934,0.041
		C73.746,131.756,74.289,131.858,74.289,131.858L74.289,131.858z"/>
	<path fill="#008C44" d="M117.239,125.914c0.885,0.938,1.478,0.854,1.66,0.364c0.182-0.483-1.217-1.405-1.633-1.086
		C116.849,125.515,117.239,125.914,117.239,125.914L117.239,125.914z"/>
	<path fill="#008C44" d="M112.008,123.351c0.854,0.375,1.226,0.152,1.207-0.229c-0.019-0.373-1.207-0.589-1.396-0.26
		C111.635,123.196,112.008,123.351,112.008,123.351L112.008,123.351z"/>
	<path fill="#008C44" d="M123.724,126.938c1.981,0.414,2.674-0.225,2.467-1.021c-0.2-0.787-2.828-0.721-3.078,0.066
		C122.86,126.772,123.724,126.938,123.724,126.938L123.724,126.938z"/>
	<path fill="#008C44" d="M119.724,123.703c2.744-0.025,3.475-1.071,2.971-2.067c-0.492-0.986-3.955-0.134-4.06,0.981
		C118.532,123.737,119.724,123.703,119.724,123.703L119.724,123.703z"/>
	<path fill="#008C44" d="M120.987,130.562c1.244,0.261,1.678-0.142,1.551-0.643c-0.129-0.494-1.779-0.453-1.936,0.041
		C120.442,130.457,120.987,130.562,120.987,130.562L120.987,130.562z"/>
	<path fill="#008C44" d="M105.006,120.972c1.244,0.262,1.679-0.141,1.552-0.641c-0.127-0.496-1.779-0.454-1.937,0.041
		C104.463,120.869,105.006,120.972,105.006,120.972L105.006,120.972z"/>
	<path fill="#008C44" d="M98.708,122.618c-0.889,0.861-2.425,1.345-4.165,1.181c-2.711-0.258-4.91-1.998-4.891-3.876
		c0.004-0.3,0.064-0.582,0.171-0.849c-0.498,0.483-0.792,1.088-0.799,1.764c-0.019,1.878,2.177,3.616,4.888,3.873
		C96.198,124.927,98.138,124.026,98.708,122.618L98.708,122.618z"/>
	<path fill="#008C44" d="M128.543,145.646c-0.888,0.858-2.425,1.342-4.164,1.178c-2.712-0.254-4.909-1.996-4.892-3.875
		c0.006-0.301,0.064-0.582,0.173-0.848c-0.499,0.483-0.793,1.086-0.8,1.762c-0.019,1.879,2.178,3.617,4.89,3.873
		C126.035,147.952,127.972,147.051,128.543,145.646L128.543,145.646z"/>
	<path fill="#008C44" d="M124.235,140.155c-2.229-0.521-4.112,0.39-4.188,2.029c-0.075,1.635,1.683,3.392,3.908,3.914
		c2.231,0.521,4.112-0.395,4.187-2.031C128.222,142.431,126.464,140.673,124.235,140.155L124.235,140.155z M122.201,140.451
		c1.157-0.196,2.635-0.246,3.735,0.944c0.104,0.205,0.244,0.289,0.319,0.586C124.606,141.021,123.763,140.774,122.201,140.451
		L122.201,140.451z M127.435,143.929c-0.1,0.661-0.726,1.133-1.39,1.047c-0.667-0.09-1.127-0.701-1.024-1.362
		c0.1-0.66,0.724-1.13,1.388-1.044C127.071,142.655,127.528,143.269,127.435,143.929L127.435,143.929z"/>
	<path fill="#008C44" d="M81.522,139.091c-0.026,1.393-0.927,2.969-2.547,4.162c-2.532,1.86-5.894,2.096-7.478,0.521
		c-0.251-0.25-0.442-0.532-0.576-0.834c-0.014,0.785,0.249,1.507,0.819,2.072c1.584,1.574,4.943,1.338,7.474-0.522
		C81.346,142.925,82.233,140.696,81.522,139.091L81.522,139.091z"/>
	<path fill="#008C44" d="M80.414,136.433c-1.544-1.517-4.815-1.338-7.29,0.402c-2.472,1.737-3.231,4.389-1.688,5.904
		c1.544,1.516,4.82,1.334,7.29-0.406C81.198,140.601,81.958,137.946,80.414,136.433L80.414,136.433z M74.343,141.507
		c-0.486,0.924-1.517,1.299-2.291,0.833c-0.776-0.47-1.007-1.604-0.516-2.528c0.488-0.924,1.521-1.297,2.294-0.832
		C74.604,139.448,74.832,140.582,74.343,141.507L74.343,141.507z M72.963,138.038c0.937-0.988,1.49-1.506,2.416-1.812
		c0.204,0.129,0.434,0.277,0.634,0.406C74.908,137.031,73.949,137.56,72.963,138.038L72.963,138.038z M77.067,136.31
		c-0.103-0.121-0.215-0.246-0.334-0.363c0.127-0.021,0.262-0.034,0.401-0.051c0.32,0.053,0.941,0.021,1.346,0.17
		C77.977,136.116,77.508,136.201,77.067,136.31L77.067,136.31z"/>
	<path fill="#008C44" d="M117.131,133.86c-0.118-0.733-0.348-1.459-0.685-2.168c-0.327-0.682-0.741-1.317-1.229-1.904
		c-0.471-0.569-1.01-1.092-1.605-1.564c-1.141-0.914-2.494-1.664-3.973-2.229c-1.423-0.546-2.98-0.931-4.607-1.136
		c-1.596-0.198-3.284-0.229-5.021-0.064c-1.734,0.167-3.389,0.516-4.919,1.014c-1.558,0.506-3.017,1.178-4.309,1.98
		c-1.345,0.835-2.535,1.822-3.484,2.939c-0.494,0.576-0.924,1.191-1.279,1.842c-0.367,0.666-0.654,1.369-0.845,2.103
		c-0.198,0.759-0.285,1.515-0.265,2.256c0.022,0.769,0.158,1.526,0.408,2.259c0.258,0.758,0.632,1.487,1.12,2.182
		c0.504,0.715,1.126,1.388,1.859,2.005c0.752,0.633,1.618,1.206,2.586,1.701c0.988,0.509,2.077,0.933,3.255,1.26
		c2.411,0.673,5.128,0.924,7.985,0.651c2.854-0.271,5.478-1.03,7.719-2.145c1.093-0.546,2.082-1.17,2.958-1.854
		c0.857-0.67,1.602-1.396,2.219-2.159c0.604-0.744,1.088-1.521,1.446-2.318c0.349-0.772,0.58-1.563,0.688-2.354
		C117.263,135.39,117.256,134.621,117.131,133.86L117.131,133.86z M111.022,128.714c0.821,0.311,1.434,0.918,1.849,1.467
		c0.429,0.562,0.646,1.051,0.646,1.051c0.238,0.873-11.22,2.05-10.291,1.761c0.461-0.144,2.118-1.456,3.784-2.582
		C108.601,129.333,110.216,128.409,111.022,128.714L111.022,128.714z M103.755,126.942c0.346-0.594,0.705-0.986,1.049-0.984
		c0,0,3.278,0.186,4.623,1.094c0.703,0.473-0.912,1.641-2.847,2.814c-1.004,0.609-2.093,1.22-2.972,1.724
		c-0.896,0.515-1.568,0.916-1.7,1.089c-0.134,0.178-0.089-0.234,0.077-0.928c0.162-0.668,0.432-1.591,0.752-2.492
		C103.043,128.397,103.397,127.556,103.755,126.942L103.755,126.942z M96.143,126.698c1.568-0.813,4.741-0.873,4.741-0.873
		c0.336,0.01,0.534,0.408,0.647,1.005c0.114,0.62,0.136,1.466,0.104,2.328c-0.031,0.901-0.121,1.825-0.22,2.493
		c-0.104,0.691-0.216,1.096-0.28,0.914c-0.062-0.18-0.562-0.625-1.234-1.19c-0.649-0.549-1.451-1.207-2.166-1.854
		C96.381,128.297,95.336,127.116,96.143,126.698L96.143,126.698z M96.922,141.519c0.414-0.987,1.071-2.189,1.738-3.299
		c0.637-1.058,1.286-2.039,1.756-2.693c0.459-0.635,0.758-0.979,0.724-0.801c-0.035,0.178,0.178,0.713,0.496,1.446
		c0.329,0.754,0.775,1.733,1.176,2.75c0.418,1.063,0.783,2.173,0.903,3.086c0.124,0.946-0.021,1.665-0.639,1.878
		c-1.245,0.428-2.863,0.325-4.152,0.114c-1.274-0.208-2.218-0.517-2.218-0.517C96.332,143.323,96.491,142.546,96.922,141.519
		L96.922,141.519z M95.272,141.078c-0.733,0.765-1.432,1.239-1.984,1.131c-1.094-0.215-1.946-0.966-2.512-1.642
		c-0.547-0.655-0.828-1.248-0.828-1.248c-0.08-0.262,0.615-0.764,1.671-1.35c1.035-0.574,2.41-1.23,3.742-1.822
		c2.583-1.151,5.039-2.088,4.666-1.824c-0.187,0.134-0.523,0.65-0.969,1.359c-0.459,0.733-1.035,1.688-1.677,2.647
		C96.718,139.328,95.987,140.334,95.272,141.078L95.272,141.078z M89.373,131.29c0.275-0.697,1.156-1.43,1.95-1.977
		c0.775-0.535,1.48-0.903,1.48-0.903c0.315-0.14,0.945,0.059,1.722,0.434c0.796,0.386,1.758,0.968,2.687,1.581
		c0.961,0.633,1.891,1.299,2.531,1.797c0.662,0.512,1.005,0.836,0.762,0.742c-0.48-0.178-3.459-0.229-6.229-0.427
		C91.567,132.345,89.09,132.013,89.373,131.29L89.373,131.29z M88.21,134.938c0.18-0.687,0.463-1.225,0.463-1.225
		c0.299-0.441,3.087-0.465,5.723-0.363c2.68,0.103,5.229,0.338,4.726,0.398c-0.502,0.064-2.817,1.145-5.223,2.109
		c-2.488,0.994-5.044,1.854-5.509,1.25C87.939,136.521,88.021,135.646,88.21,134.938L88.21,134.938z M92.064,144.899
		c-0.371-0.332-3.246-1.498-3.406-2.897c3.268,3.04,12.833,3.653,15.759,3.92C101.147,146.786,95.21,146.42,92.064,144.899
		L92.064,144.899z M112.045,138.919c0,0-0.308,0.645-0.897,1.379c-0.606,0.754-1.515,1.605-2.668,1.918
		c-0.578,0.157-1.297-0.277-2.047-1.01c-0.728-0.713-1.465-1.688-2.132-2.659c-0.641-0.933-1.216-1.858-1.671-2.567
		c-0.439-0.688-0.775-1.183-0.963-1.301c-0.188-0.117,0.333,0.004,1.221,0.27c0.899,0.264,2.194,0.688,3.531,1.164
		c1.374,0.49,2.8,1.043,3.878,1.548C111.403,138.178,112.133,138.64,112.045,138.919L112.045,138.919z M114.284,135.033
		c-0.062,0.739-0.282,1.323-0.282,1.323c-0.134,0.238-1.021,0.203-2.252,0.02c-1.215-0.184-2.742-0.513-4.183-0.857
		c-2.797-0.675-5.269-1.418-4.76-1.388c0.514,0.032,3.03-0.61,5.491-1.095c2.435-0.477,4.847-0.807,5.396-0.2
		C114.263,133.461,114.349,134.317,114.284,135.033L114.284,135.033z"/>
	<path fill="#008C44" d="M101.192,128.427c-0.101-0.142-0.264-0.183-0.418-0.107c-0.178,0.09-0.291,0.229-0.354,0.357
		c-0.047-0.052-0.104-0.102-0.18-0.138c-0.038-0.021-0.085-0.026-0.128-0.019c-0.26,0.047-0.381,0.168-0.439,0.276
		c-0.085-0.051-0.191-0.054-0.29-0.007c-0.304,0.15-0.36,0.457-0.368,0.491c-0.041,0.229-0.072,0.553,0.15,0.672
		c0.07,0.037,0.168,0.057,0.294-0.002c0.008,0.085,0.028,0.153,0.054,0.202c-0.003-0.006-0.005-0.008-0.006-0.012
		c0.092,0.221,0.242,0.51,0.494,0.485c0.064-0.003,0.139-0.031,0.205-0.108c-0.001,0.104,0.014,0.199,0.059,0.278
		c-0.061,0.115-0.052,0.229-0.025,0.292l0.007,0.023c0.042,0.113,0.096,0.268,0.261,0.303c0.156,0.036,0.288-0.068,0.385-0.166
		c0.135-0.133,0.174-0.264,0.164-0.378c-0.009-0.081-0.043-0.153-0.09-0.21c0.149-0.236,0.155-0.596,0.041-0.786
		c0.053-0.053,0.071-0.097,0.084-0.122c0.045-0.096,0.045-0.199,0-0.294C101.334,129.187,101.358,128.659,101.192,128.427
		L101.192,128.427z"/>
	<path fill="#008C44" d="M104.679,130.401c0.029-0.127-0.029-0.241-0.148-0.291c-0.141-0.057-0.277-0.051-0.383-0.022
		c0.008-0.054,0.004-0.11-0.012-0.172c-0.008-0.032-0.025-0.062-0.054-0.083c-0.159-0.122-0.287-0.131-0.379-0.109
		c-0.015-0.076-0.062-0.137-0.142-0.168c-0.238-0.099-0.44,0.021-0.463,0.034c-0.152,0.093-0.353,0.238-0.309,0.425
		c0.014,0.058,0.051,0.123,0.146,0.166c-0.045,0.047-0.072,0.094-0.086,0.133c0-0.004,0-0.008,0.002-0.01
		c-0.08,0.16-0.168,0.395-0.028,0.524c0.034,0.032,0.089,0.062,0.163,0.062c-0.057,0.051-0.104,0.107-0.127,0.17
		c-0.098,0.027-0.156,0.09-0.182,0.137l-0.009,0.016c-0.044,0.078-0.104,0.188-0.042,0.301c0.059,0.104,0.186,0.129,0.287,0.135
		c0.143,0.01,0.238-0.033,0.297-0.099c0.043-0.044,0.064-0.1,0.075-0.153c0.211-0.032,0.417-0.211,0.469-0.371
		c0.058,0.004,0.091-0.008,0.112-0.015c0.074-0.021,0.135-0.075,0.168-0.147C104.313,130.863,104.629,130.613,104.679,130.401
		L104.679,130.401z"/>
	<path fill="#008C44" d="M95.403,136.476c-0.077,0.155-0.035,0.317,0.104,0.418c0.162,0.115,0.34,0.146,0.484,0.145
		c-0.027,0.066-0.042,0.141-0.04,0.225c0.002,0.043,0.019,0.086,0.047,0.12c0.164,0.208,0.33,0.259,0.452,0.257
		c-0.004,0.099,0.042,0.195,0.13,0.258c0.277,0.197,0.571,0.106,0.604,0.095c0.224-0.071,0.523-0.198,0.522-0.45
		c0-0.077-0.028-0.175-0.14-0.258c0.068-0.047,0.121-0.102,0.15-0.143c-0.002,0.002-0.004,0.008-0.006,0.012
		c0.148-0.186,0.333-0.456,0.193-0.668c-0.034-0.053-0.094-0.105-0.189-0.129c0.088-0.047,0.167-0.107,0.215-0.181
		c0.133-0.003,0.229-0.065,0.272-0.116c-0.001,0.002,0.016-0.02,0.016-0.02c0.08-0.088,0.188-0.21,0.146-0.372
		c-0.043-0.153-0.199-0.221-0.329-0.261c-0.181-0.055-0.315-0.028-0.411,0.037c-0.066,0.045-0.114,0.106-0.141,0.175
		c-0.283-0.021-0.603,0.146-0.714,0.335c-0.071-0.018-0.119-0.018-0.147-0.016c-0.104,0.008-0.196,0.057-0.259,0.139
		C96.008,135.99,95.53,136.218,95.403,136.476L95.403,136.476z"/>
	<path fill="#008C44" d="M108.876,135.61c0.163-0.059,0.247-0.204,0.216-0.373c-0.038-0.193-0.143-0.342-0.25-0.438
		c0.065-0.032,0.13-0.073,0.183-0.135c0.031-0.032,0.052-0.073,0.055-0.118c0.025-0.266-0.061-0.415-0.148-0.498
		c0.071-0.068,0.104-0.17,0.084-0.275c-0.062-0.336-0.339-0.474-0.371-0.487c-0.209-0.104-0.516-0.224-0.688-0.039
		c-0.054,0.057-0.099,0.146-0.077,0.282c-0.083-0.014-0.158-0.012-0.209-0.002c0.004-0.002,0.008-0.004,0.014-0.006
		c-0.236,0.031-0.557,0.101-0.604,0.348c-0.012,0.062-0.006,0.143,0.048,0.225c-0.097-0.027-0.192-0.039-0.28-0.018
		c-0.097-0.09-0.207-0.111-0.275-0.106l-0.024,0.005c-0.118,0.006-0.282,0.02-0.362,0.166c-0.074,0.142-0.01,0.297,0.059,0.414
		c0.091,0.165,0.207,0.24,0.318,0.264c0.08,0.015,0.158,0,0.225-0.029c0.189,0.209,0.533,0.309,0.747,0.25
		c0.038,0.066,0.075,0.098,0.097,0.113c0.078,0.07,0.18,0.1,0.281,0.082C108.104,135.54,108.604,135.708,108.876,135.61
		L108.876,135.61z"/>
	<path fill="#008C44" d="M110.211,131.431c-0.135-0.164-0.312-0.246-0.461-0.283c0.045-0.06,0.08-0.133,0.101-0.221
		c0.012-0.044,0.006-0.095-0.013-0.138c-0.114-0.261-0.272-0.356-0.399-0.39c0.031-0.103,0.012-0.213-0.064-0.305
		c-0.232-0.279-0.564-0.265-0.602-0.263c-0.252,0.015-0.599,0.062-0.666,0.326c-0.004,0.018,0.004,0.08,0.022,0.164
		c-0.212,0.028-0.478,0.097-0.521,0.313c-0.008,0.059-0.004,0.133,0.047,0.209c-0.092-0.025-0.182-0.035-0.262-0.019
		c-0.088-0.083-0.191-0.101-0.256-0.097l-0.021,0.002c-0.111,0.008-0.264,0.02-0.338,0.156c-0.028,0.055-0.035,0.109-0.028,0.165
		c-0.142,0.044-0.249,0.099-0.2,0.242c0.021,0.065,0.067,0.138,0.162,0.187c-0.104,0.023-0.203,0.062-0.273,0.129
		c-0.137-0.033-0.252,0.005-0.313,0.047c0.001-0.001-0.19,0.098-0.19,0.098c-0.106,0.071-0.084,0.085-0.08,0.264
		c0.002,0.172,0.146,0.282,0.27,0.358c0.171,0.106,0.318,0.116,0.436,0.079c0.082-0.029,0.147-0.084,0.194-0.146
		c0.265,0.09,1.489-0.057,1.822-0.211c0.222,0.154,0.521,0.219,0.704,0.155c0.07-0.024,0.125-0.067,0.158-0.121
		c0.299,0.021,0.623-0.077,0.769-0.241C110.327,131.754,110.329,131.572,110.211,131.431L110.211,131.431z"/>
	<path fill="#008C44" d="M105.604,138.49c0.062-0.181,0.045-0.353,0.004-0.484c0.066,0.004,0.14-0.002,0.216-0.026
		c0.04-0.013,0.075-0.039,0.1-0.073c0.146-0.209,0.147-0.373,0.114-0.486c0.092-0.022,0.167-0.092,0.202-0.19
		c0.106-0.31-0.06-0.556-0.078-0.584c-0.125-0.185-0.323-0.429-0.556-0.357c-0.02,0.004-0.062,0.039-0.116,0.093
		c-0.121-0.149-0.298-0.319-0.481-0.252c-0.05,0.019-0.104,0.056-0.14,0.134c-0.022-0.082-0.056-0.158-0.108-0.21
		c0.024-0.104-0.01-0.196-0.044-0.243c0.002,0.002-0.01-0.017-0.01-0.017c-0.058-0.08-0.138-0.19-0.274-0.185
		c-0.056,0.002-0.104,0.024-0.143,0.055c-0.1-0.086-0.189-0.145-0.277-0.042c-0.039,0.048-0.074,0.117-0.068,0.212
		c-0.066-0.07-0.145-0.126-0.226-0.15c-0.038-0.119-0.12-0.19-0.181-0.219l-0.164-0.102c-0.104-0.051-0.104-0.025-0.239,0.061
		c-0.132,0.08-0.149,0.241-0.151,0.37c-0.002,0.183,0.06,0.3,0.144,0.37c0.062,0.049,0.132,0.077,0.201,0.083
		c0.053,0.244,0.735,1.116,1.007,1.302c-0.018,0.238,0.068,0.5,0.206,0.609c0.052,0.043,0.108,0.064,0.167,0.066
		c0.121,0.24,0.348,0.442,0.54,0.477C105.411,138.728,105.551,138.646,105.604,138.49L105.604,138.49z"/>
	<path fill="#008C44" d="M101.942,139.092c0.024-0.265-0.06-0.416-0.148-0.5c0.073-0.067,0.105-0.17,0.086-0.276
		c-0.029-0.158-0.107-0.272-0.186-0.35c0.041-0.126,0.043-0.228-0.092-0.275c-0.021-0.008-0.051-0.015-0.078-0.02
		c-0.004-0.121-0.025-0.234-0.069-0.322c0.086-0.086,0.119-0.19,0.126-0.259c0,0.002,0.043-0.228,0.043-0.228
		c0.012-0.139-0.016-0.127-0.169-0.244c-0.147-0.111-0.338-0.064-0.485-0.012c-0.203,0.074-0.311,0.195-0.353,0.318
		c-0.032,0.092-0.029,0.18-0.009,0.262c-0.049,0.032-0.115,0.104-0.19,0.196c-0.026-0.005-0.053-0.006-0.078-0.002
		c-0.261,0.05-0.382,0.171-0.438,0.278c-0.086-0.051-0.192-0.055-0.289-0.008c-0.307,0.151-0.364,0.455-0.369,0.488
		c-0.021,0.123-0.041,0.271-0.02,0.405c-0.07,0.021-0.135,0.062-0.177,0.138c-0.075,0.144-0.009,0.295,0.058,0.414
		c0.051,0.096,0.113,0.159,0.178,0.2c-0.002,0.021-0.006,0.038-0.006,0.056c-0.387,0.172-0.668,0.713-0.606,1.039
		c0.036,0.195,0.188,0.318,0.39,0.314c0.229-0.009,0.414-0.1,0.545-0.206c0.022,0.08,0.062,0.157,0.119,0.231
		c0.032,0.041,0.077,0.069,0.127,0.08c0.297,0.078,0.482,0.01,0.596-0.078c0.066,0.095,0.174,0.15,0.301,0.146
		c0.395-0.012,0.602-0.301,0.623-0.336c0.072-0.104,0.152-0.23,0.201-0.361c0.062,0,0.121-0.008,0.172-0.027
		c0.162-0.057,0.248-0.204,0.216-0.374c-0.036-0.195-0.144-0.343-0.247-0.438c0.064-0.029,0.125-0.074,0.182-0.135
		C101.921,139.178,101.938,139.135,101.942,139.092L101.942,139.092z"/>
	<path fill="#008C44" d="M95.079,135.101c0.127-0.069,0.169-0.152,0.18-0.221c0.053,0.012,0.109-0.003,0.152-0.048
		c0.062-0.062,0.09-0.132,0.101-0.188c0.07-0.021,0.116-0.052,0.098-0.129c-0.004-0.013-0.01-0.025-0.017-0.041
		c0.055-0.037,0.1-0.084,0.126-0.131c0.065,0.01,0.122-0.005,0.154-0.023c-0.002,0,0.118-0.051,0.118-0.051
		c0.065-0.035,0.052-0.043,0.058-0.149c0.005-0.103-0.075-0.173-0.146-0.224c-0.096-0.068-0.184-0.082-0.253-0.062
		c-0.05,0.014-0.09,0.044-0.121,0.077c-0.029-0.011-0.082-0.021-0.147-0.025c-0.005-0.013-0.013-0.024-0.024-0.036
		c-0.101-0.104-0.193-0.123-0.26-0.113c-0.005-0.055-0.035-0.104-0.087-0.133c-0.161-0.093-0.318-0.023-0.334-0.018
		c-0.062,0.025-0.136,0.066-0.188,0.117c-0.032-0.026-0.07-0.042-0.117-0.038c-0.087,0.01-0.137,0.086-0.171,0.153
		c-0.026,0.055-0.037,0.101-0.037,0.143c-0.008,0.004-0.018,0.009-0.027,0.016c-0.195-0.123-0.528-0.084-0.656,0.043
		c-0.077,0.078-0.086,0.186-0.022,0.272c0.074,0.104,0.173,0.156,0.259,0.185c-0.029,0.034-0.052,0.076-0.068,0.129
		c-0.007,0.025-0.007,0.055,0.003,0.082c0.058,0.153,0.145,0.219,0.219,0.244c-0.023,0.059-0.014,0.125,0.026,0.182
		c0.127,0.177,0.322,0.18,0.343,0.18c0.07,0,0.155-0.002,0.227-0.023c0.021,0.028,0.042,0.057,0.065,0.071
		c0.078,0.056,0.169,0.05,0.237-0.018c0.077-0.076,0.109-0.171,0.122-0.248c0.033,0.021,0.073,0.034,0.117,0.043
		C95.032,135.117,95.058,135.115,95.079,135.101L95.079,135.101z"/>
	<path fill="#008C44" d="M97.015,130.571c-0.143-0.004-0.249,0.082-0.264,0.214c-0.019,0.155,0.029,0.297,0.09,0.397
		c-0.06,0.004-0.119,0.018-0.177,0.045c-0.032,0.017-0.057,0.043-0.072,0.074c-0.082,0.188-0.054,0.324-0.004,0.411
		c-0.073,0.031-0.125,0.095-0.135,0.181c-0.032,0.268,0.155,0.449,0.174,0.469c0.144,0.139,0.356,0.312,0.54,0.229
		c0.057-0.025,0.114-0.082,0.132-0.188c0.062,0.033,0.121,0.057,0.164,0.062c-0.004,0-0.01,0-0.011,0
		c0.195,0.045,0.465,0.088,0.562-0.081c0.023-0.046,0.039-0.105,0.017-0.181c0.069,0.047,0.146,0.085,0.22,0.095
		c0.055,0.094,0.139,0.143,0.193,0.159c-0.002,0,0.02,0.005,0.02,0.005c0.098,0.027,0.23,0.064,0.329-0.021
		c0.095-0.082,0.08-0.217,0.056-0.324c-0.031-0.146-0.104-0.237-0.188-0.284c-0.062-0.032-0.125-0.046-0.187-0.044
		c-0.099-0.209-0.347-0.385-0.529-0.4c-0.014-0.06-0.036-0.095-0.049-0.111c-0.047-0.073-0.119-0.125-0.205-0.143
		C97.608,130.847,97.251,130.576,97.015,130.571L97.015,130.571z"/>
	<path fill="#008C44" d="M117.464,136.776c-0.109,0.807-0.347,1.613-0.701,2.4c-0.367,0.812-0.859,1.605-1.474,2.365
		c-0.632,0.779-1.388,1.52-2.261,2.202c-0.894,0.698-1.903,1.332-3.018,1.889c-2.281,1.136-4.955,1.911-7.867,2.188
		c-2.908,0.277-5.68,0.02-8.137-0.664c-1.584-0.442-1.841-0.529-3.319-1.287c-0.986-0.507-1.868-1.09-2.634-1.737
		c-0.747-0.63-1.38-1.315-1.895-2.044c-0.497-0.706-0.88-1.451-1.142-2.224c-0.219-0.644-0.352-1.304-0.399-1.976
		c-0.017,0.299-0.021,0.601-0.011,0.897c0.03,0.873,0.179,1.729,0.441,2.563c0.271,0.86,0.662,1.691,1.17,2.484
		c0.521,0.814,1.166,1.583,1.92,2.291c0.776,0.727,1.669,1.383,2.663,1.957c1.019,0.586,2.138,1.077,3.345,1.463
		c2.473,0.786,5.255,1.102,8.175,0.823c2.918-0.276,5.591-1.112,7.871-2.353c1.113-0.604,2.119-1.302,3.008-2.065
		c0.869-0.751,1.619-1.566,2.246-2.425c0.607-0.838,1.097-1.715,1.455-2.613c0.349-0.872,0.576-1.764,0.682-2.661
		c0.098-0.853,0.083-1.707-0.045-2.553C117.539,136.062,117.515,136.419,117.464,136.776L117.464,136.776z"/>
	<path fill="#008C44" d="M70.442,131.063c-0.096-0.459-0.26-0.903-0.49-1.338c-0.224-0.42-0.501-0.808-0.821-1.16
		c-0.312-0.342-0.665-0.656-1.051-0.938c-0.74-0.542-1.611-0.972-2.553-1.285c-0.906-0.304-1.895-0.501-2.92-0.583
		c-1.005-0.081-2.065-0.052-3.147,0.1c-1.084,0.149-2.11,0.416-3.055,0.771c-0.963,0.36-1.859,0.823-2.647,1.362
		c-0.818,0.561-1.537,1.214-2.1,1.938c-0.295,0.377-0.548,0.774-0.752,1.19c-0.211,0.428-0.373,0.877-0.471,1.342
		c-0.104,0.481-0.137,0.955-0.103,1.42c0.035,0.484,0.142,0.951,0.318,1.407c0.183,0.465,0.438,0.915,0.764,1.335
		c0.335,0.435,0.745,0.839,1.221,1.203c0.488,0.378,1.048,0.714,1.667,0.995c0.635,0.291,1.33,0.527,2.076,0.701
		c1.53,0.354,3.241,0.434,5.022,0.185c1.783-0.25,3.405-0.8,4.779-1.558c0.67-0.373,1.275-0.793,1.804-1.244
		c0.518-0.444,0.963-0.92,1.33-1.415c0.357-0.484,0.64-0.984,0.841-1.495c0.198-0.493,0.321-0.994,0.368-1.493
		C70.566,132.019,70.54,131.536,70.442,131.063L70.442,131.063z M66.469,128.008c0.524,0.173,0.926,0.536,1.202,0.867
		c0.283,0.341,0.431,0.642,0.431,0.642c0.175,0.541-6.975,1.598-6.401,1.389c0.285-0.104,1.29-0.971,2.301-1.725
		C64.969,128.462,65.956,127.84,66.469,128.008L66.469,128.008z M61.864,127.101c0.201-0.384,0.417-0.642,0.634-0.646
		c0,0,2.057,0.025,2.927,0.557c0.452,0.275-0.528,1.057-1.708,1.846c-0.613,0.406-1.278,0.82-1.814,1.162
		c-0.547,0.348-0.958,0.616-1.037,0.729c-0.079,0.112-0.062-0.146,0.024-0.583c0.084-0.424,0.225-1.01,0.4-1.582
		C61.459,128.031,61.657,127.493,61.864,127.101L61.864,127.101z M57.086,127.158c0.961-0.552,2.949-0.679,2.949-0.679
		c0.208-0.002,0.347,0.24,0.433,0.612c0.088,0.384,0.125,0.911,0.13,1.454c0.005,0.566-0.024,1.148-0.069,1.569
		c-0.046,0.438-0.104,0.694-0.15,0.581c-0.043-0.111-0.37-0.374-0.806-0.711c-0.422-0.328-0.943-0.719-1.409-1.104
		C57.28,128.153,56.593,127.442,57.086,127.158L57.086,127.158z M57.987,136.425c0.233-0.63,0.611-1.4,0.999-2.115
		c0.37-0.681,0.75-1.313,1.027-1.734c0.269-0.412,0.445-0.637,0.429-0.525c-0.017,0.115,0.134,0.444,0.353,0.895
		c0.229,0.464,0.535,1.065,0.812,1.691c0.292,0.655,0.552,1.34,0.652,1.909c0.104,0.589,0.034,1.044-0.347,1.194
		c-0.77,0.303-1.787,0.281-2.6,0.187c-0.804-0.092-1.405-0.262-1.405-0.262C57.667,137.574,57.746,137.081,57.987,136.425
		L57.987,136.425z M56.942,136.194c-0.438,0.5-0.863,0.815-1.212,0.766c-0.692-0.105-1.246-0.552-1.621-0.958
		c-0.362-0.396-0.555-0.762-0.555-0.762c-0.056-0.16,0.366-0.494,1.011-0.894c0.632-0.389,1.477-0.834,2.294-1.246
		c1.588-0.793,3.101-1.445,2.875-1.271c-0.113,0.087-0.312,0.421-0.571,0.878c-0.266,0.473-0.602,1.087-0.977,1.706
		C57.799,135.06,57.368,135.709,56.942,136.194L56.942,136.194z M52.971,130.228c0.154-0.445,0.685-0.932,1.167-1.295
		c0.471-0.358,0.903-0.606,0.903-0.606c0.194-0.097,0.596,0.008,1.091,0.222c0.51,0.223,1.129,0.559,1.729,0.915
		c0.62,0.371,1.221,0.767,1.637,1.06c0.428,0.305,0.652,0.494,0.499,0.445c-0.307-0.1-2.175-0.05-3.917-0.097
		C54.376,130.825,52.813,130.687,52.971,130.228L52.971,130.228z M52.345,132.544c0.094-0.436,0.257-0.779,0.257-0.779
		c0.173-0.285,1.92-0.379,3.576-0.389c1.682-0.008,3.286,0.066,2.974,0.121c-0.313,0.052-1.735,0.794-3.216,1.465
		c-1.531,0.695-3.11,1.305-3.418,0.938C52.218,133.544,52.247,132.993,52.345,132.544L52.345,132.544z M55.037,138.681
		c-0.24-0.197-2.075-0.848-2.215-1.722c2.132,1.813,8.144,1.933,9.987,2.019C60.784,139.61,57.052,139.548,55.037,138.681
		L55.037,138.681z M67.395,134.374c0,0-0.175,0.415-0.525,0.891c-0.359,0.488-0.906,1.051-1.617,1.276
		c-0.359,0.114-0.822-0.138-1.312-0.576c-0.476-0.428-0.967-1.017-1.411-1.606c-0.428-0.565-0.813-1.129-1.119-1.563
		c-0.294-0.418-0.52-0.72-0.64-0.788s0.209-0.006,0.772,0.135c0.571,0.145,1.395,0.368,2.246,0.633
		c0.876,0.27,1.784,0.576,2.474,0.86C66.971,133.928,67.441,134.194,67.395,134.374L67.395,134.374z M68.691,131.877
		c-0.02,0.467-0.14,0.838-0.14,0.838c-0.079,0.153-0.636,0.156-1.412,0.075c-0.767-0.082-1.732-0.244-2.646-0.421
		c-1.772-0.345-3.341-0.742-3.021-0.737c0.321,0.005,1.881-0.468,3.41-0.837c1.513-0.367,3.016-0.644,3.378-0.278
		C68.633,130.892,68.708,131.428,68.691,131.877L68.691,131.877z"/>
	<path fill="#008C44" d="M60.301,128.101c-0.066-0.086-0.17-0.104-0.265-0.056c-0.109,0.06-0.175,0.153-0.213,0.236
		c-0.03-0.034-0.068-0.062-0.115-0.083c-0.024-0.012-0.055-0.016-0.081-0.008c-0.163,0.037-0.235,0.117-0.268,0.186
		c-0.055-0.029-0.121-0.029-0.182,0.005c-0.188,0.103-0.214,0.295-0.217,0.316c-0.021,0.146-0.031,0.35,0.113,0.418
		c0.044,0.022,0.104,0.028,0.183-0.011c0.008,0.054,0.024,0.098,0.041,0.125c-0.002-0.002-0.003-0.004-0.005-0.006
		c0.063,0.135,0.167,0.312,0.324,0.291c0.04-0.005,0.085-0.025,0.125-0.072c0.002,0.062,0.014,0.125,0.044,0.17
		c-0.035,0.074-0.024,0.146-0.007,0.188c-0.001-0.001,0.006,0.012,0.006,0.012c0.028,0.07,0.066,0.164,0.171,0.185
		c0.098,0.019,0.178-0.052,0.235-0.113c0.08-0.09,0.102-0.173,0.092-0.243c-0.007-0.051-0.031-0.095-0.062-0.127
		c0.088-0.156,0.081-0.381,0.004-0.494c0.031-0.037,0.042-0.063,0.05-0.08c0.024-0.062,0.022-0.127-0.01-0.186
		C60.41,128.573,60.412,128.242,60.301,128.101L60.301,128.101z"/>
	<path fill="#008C44" d="M62.54,129.242c0.016-0.081-0.024-0.152-0.102-0.177c-0.088-0.034-0.174-0.026-0.24-0.006
		c0.003-0.033,0.001-0.069-0.012-0.106c-0.005-0.021-0.016-0.038-0.035-0.052c-0.103-0.073-0.185-0.074-0.242-0.059
		c-0.009-0.047-0.043-0.085-0.093-0.101c-0.152-0.056-0.275,0.024-0.289,0.036c-0.092,0.061-0.214,0.156-0.181,0.272
		c0.009,0.033,0.037,0.074,0.096,0.099c-0.027,0.031-0.043,0.062-0.051,0.088c0.001-0.006,0.001-0.006,0.002-0.008
		c-0.045,0.104-0.095,0.252-0.003,0.33c0.023,0.021,0.058,0.037,0.104,0.037c-0.034,0.031-0.064,0.068-0.075,0.11
		c-0.061,0.017-0.096,0.06-0.11,0.088c0.001-0.001-0.005,0.009-0.005,0.009c-0.025,0.051-0.06,0.121-0.018,0.189
		c0.041,0.064,0.119,0.074,0.185,0.076c0.09,0,0.148-0.027,0.184-0.068c0.024-0.029,0.038-0.064,0.042-0.1
		c0.132-0.027,0.258-0.145,0.283-0.246c0.036,0,0.058-0.01,0.071-0.012c0.047-0.017,0.083-0.051,0.101-0.1
		C62.326,129.543,62.515,129.376,62.54,129.242L62.54,129.242z"/>
	<path fill="#008C44" d="M56.896,133.308c-0.044,0.099-0.015,0.199,0.076,0.258c0.104,0.068,0.216,0.084,0.307,0.078
		c-0.015,0.043-0.021,0.088-0.017,0.139c0.002,0.029,0.012,0.057,0.031,0.078c0.108,0.125,0.214,0.149,0.29,0.146
		c0,0.062,0.033,0.121,0.089,0.158c0.18,0.115,0.362,0.05,0.382,0.042c0.138-0.051,0.325-0.142,0.315-0.298
		c-0.002-0.049-0.022-0.105-0.094-0.158c0.042-0.031,0.073-0.064,0.09-0.092c-0.001,0.002-0.001,0.004-0.003,0.006
		c0.089-0.119,0.195-0.293,0.104-0.422c-0.024-0.033-0.062-0.064-0.125-0.076c0.055-0.031,0.104-0.072,0.132-0.118
		c0.083-0.006,0.14-0.048,0.167-0.083l0.009-0.01c0.047-0.059,0.114-0.137,0.081-0.238c-0.031-0.095-0.13-0.132-0.213-0.152
		c-0.114-0.03-0.199-0.01-0.256,0.035c-0.042,0.028-0.069,0.068-0.084,0.112c-0.175-0.006-0.372,0.107-0.437,0.229
		c-0.044-0.012-0.077-0.008-0.093-0.008c-0.065,0.01-0.123,0.041-0.16,0.096C57.261,132.985,56.968,133.144,56.896,133.308
		L56.896,133.308z"/>
	<path fill="#008C44" d="M65.316,132.392c0.101-0.041,0.15-0.136,0.125-0.242c-0.029-0.118-0.1-0.207-0.168-0.267
		c0.04-0.021,0.078-0.051,0.111-0.09c0.018-0.021,0.027-0.048,0.028-0.077c0.008-0.167-0.047-0.257-0.106-0.306
		c0.043-0.047,0.06-0.11,0.045-0.179c-0.047-0.207-0.225-0.285-0.246-0.293c-0.135-0.059-0.329-0.123-0.433-0.006
		c-0.033,0.037-0.058,0.094-0.041,0.181c-0.053-0.009-0.099-0.003-0.129,0.005c0.001-0.001,0.002-0.003,0.006-0.003
		c-0.148,0.024-0.346,0.075-0.367,0.231c-0.005,0.04,0,0.09,0.036,0.141c-0.06-0.016-0.123-0.021-0.176-0.006
		c-0.062-0.051-0.134-0.062-0.177-0.057c0.001,0-0.015,0.002-0.015,0.002c-0.076,0.008-0.177,0.021-0.222,0.115
		c-0.042,0.09,0.002,0.186,0.045,0.259c0.064,0.101,0.139,0.144,0.209,0.154c0.05,0.007,0.099-0.006,0.138-0.024
		c0.126,0.127,0.345,0.182,0.477,0.139c0.025,0.037,0.048,0.058,0.062,0.068c0.053,0.038,0.115,0.055,0.18,0.04
		C64.831,132.369,65.149,132.459,65.316,132.392L65.316,132.392z"/>
	<path fill="#008C44" d="M66.037,129.731c-0.089-0.099-0.203-0.146-0.297-0.164c0.027-0.039,0.045-0.086,0.057-0.141
		c0.005-0.029,0.001-0.06-0.012-0.086c-0.08-0.16-0.18-0.217-0.262-0.232c0.017-0.064,0.002-0.135-0.048-0.189
		c-0.156-0.169-0.362-0.148-0.385-0.146c-0.158,0.018-0.374,0.056-0.408,0.224c-0.003,0.012,0.005,0.05,0.02,0.103
		c-0.135,0.024-0.298,0.073-0.316,0.213c-0.006,0.035,0,0.08,0.034,0.129c-0.057-0.014-0.115-0.02-0.166-0.006
		c-0.057-0.048-0.124-0.059-0.163-0.052h-0.015c-0.067,0.007-0.163,0.021-0.204,0.107c-0.018,0.034-0.021,0.069-0.014,0.104
		c-0.087,0.032-0.154,0.066-0.119,0.157c0.015,0.04,0.045,0.083,0.106,0.11c-0.064,0.02-0.124,0.048-0.167,0.09
		c-0.088-0.018-0.16,0.01-0.195,0.038l-0.118,0.065c-0.064,0.047-0.05,0.055-0.043,0.168c0.007,0.107,0.1,0.174,0.179,0.217
		c0.109,0.062,0.203,0.063,0.274,0.037c0.051-0.021,0.091-0.058,0.119-0.098c0.167,0.05,0.932-0.077,1.136-0.182
		c0.144,0.089,0.332,0.123,0.446,0.076c0.043-0.018,0.076-0.045,0.098-0.078c0.188,0.005,0.388-0.066,0.473-0.174
		C66.119,129.933,66.114,129.817,66.037,129.731L66.037,129.731z"/>
	<path fill="#008C44" d="M63.346,134.286c0.035-0.114,0.019-0.225-0.011-0.307c0.042,0.004,0.087-0.002,0.134-0.021
		c0.025-0.009,0.046-0.024,0.062-0.05c0.084-0.135,0.081-0.237,0.056-0.307c0.059-0.019,0.103-0.062,0.121-0.125
		c0.061-0.197-0.05-0.348-0.062-0.362c-0.085-0.114-0.216-0.261-0.359-0.212c-0.014,0.004-0.038,0.027-0.07,0.062
		c-0.081-0.089-0.195-0.19-0.308-0.144c-0.03,0.013-0.064,0.037-0.086,0.086c-0.015-0.051-0.037-0.096-0.071-0.129
		c0.011-0.065-0.013-0.12-0.036-0.148l-0.006-0.01c-0.038-0.049-0.091-0.117-0.179-0.108c-0.034,0.003-0.062,0.019-0.086,0.037
		c-0.064-0.05-0.124-0.086-0.176-0.016c-0.023,0.03-0.043,0.071-0.037,0.131c-0.044-0.038-0.092-0.072-0.144-0.088
		c-0.029-0.073-0.082-0.115-0.121-0.132c0.001,0.002-0.104-0.059-0.104-0.059c-0.067-0.027-0.066-0.014-0.148,0.045
		c-0.082,0.055-0.088,0.154-0.085,0.236c0.003,0.111,0.045,0.188,0.1,0.227c0.039,0.032,0.084,0.047,0.128,0.049
		c0.039,0.148,0.492,0.678,0.667,0.787c-0.004,0.148,0.058,0.312,0.147,0.377c0.032,0.023,0.069,0.037,0.106,0.037
		c0.082,0.146,0.23,0.265,0.352,0.283C63.23,134.44,63.317,134.385,63.346,134.286L63.346,134.286z"/>
	<path fill="#008C44" d="M61.068,134.765c0.007-0.164-0.048-0.259-0.107-0.308c0.043-0.048,0.062-0.11,0.045-0.179
		c-0.022-0.098-0.073-0.165-0.126-0.213c0.022-0.078,0.021-0.145-0.065-0.172c-0.015-0.004-0.031-0.007-0.05-0.008
		c-0.004-0.076-0.023-0.146-0.052-0.201c0.051-0.057,0.069-0.121,0.071-0.166l0.021-0.143c0.004-0.088-0.013-0.078-0.111-0.146
		c-0.097-0.066-0.213-0.031-0.304,0.006c-0.126,0.053-0.19,0.13-0.215,0.209c-0.016,0.057-0.013,0.113,0.004,0.164
		c-0.029,0.021-0.071,0.065-0.115,0.127c-0.017-0.002-0.032-0.002-0.049,0.002c-0.162,0.037-0.234,0.119-0.269,0.186
		c-0.054-0.027-0.12-0.027-0.182,0.006c-0.187,0.104-0.213,0.297-0.216,0.316c-0.01,0.077-0.017,0.171-0.002,0.254
		c-0.043,0.016-0.08,0.043-0.105,0.092c-0.044,0.09,0.001,0.186,0.048,0.258c0.035,0.057,0.077,0.098,0.115,0.119
		c0,0.014-0.001,0.026,0,0.036c-0.239,0.117-0.401,0.465-0.352,0.668c0.027,0.121,0.125,0.194,0.251,0.187
		c0.143-0.012,0.257-0.074,0.337-0.143c0.015,0.049,0.042,0.096,0.08,0.143c0.022,0.022,0.05,0.037,0.082,0.047
		c0.188,0.039,0.303-0.012,0.371-0.067c0.044,0.06,0.112,0.089,0.193,0.083c0.245-0.018,0.367-0.204,0.38-0.229
		c0.043-0.066,0.09-0.147,0.117-0.231c0.038-0.001,0.078-0.009,0.107-0.022c0.101-0.041,0.15-0.135,0.126-0.24
		c-0.029-0.12-0.099-0.209-0.169-0.268c0.04-0.021,0.078-0.05,0.11-0.091C61.055,134.817,61.065,134.792,61.068,134.765
		L61.068,134.765z"/>
	<path fill="#008C44" d="M56.653,132.456c0.079-0.051,0.101-0.104,0.107-0.145c0.035,0.004,0.069-0.006,0.094-0.035
		c0.039-0.041,0.054-0.084,0.058-0.121c0.042-0.016,0.073-0.036,0.057-0.083c0-0.009-0.004-0.017-0.009-0.025
		c0.032-0.026,0.06-0.056,0.074-0.086c0.042,0.007,0.078-0.005,0.098-0.021c0,0.002,0.071-0.032,0.071-0.032
		c0.041-0.024,0.031-0.031,0.034-0.097c0-0.064-0.053-0.106-0.098-0.136c-0.062-0.042-0.118-0.047-0.161-0.032
		c-0.03,0.01-0.056,0.028-0.073,0.053c-0.019-0.01-0.051-0.012-0.094-0.014c-0.002-0.008-0.008-0.015-0.015-0.022
		c-0.066-0.06-0.125-0.069-0.167-0.062c-0.005-0.035-0.025-0.064-0.059-0.082c-0.103-0.055-0.201-0.007-0.209,0
		c-0.04,0.018-0.084,0.043-0.116,0.074c-0.021-0.013-0.044-0.021-0.075-0.019c-0.054,0.008-0.084,0.059-0.103,0.103
		c-0.015,0.032-0.02,0.062-0.018,0.09c-0.005,0-0.011,0.006-0.017,0.01c-0.126-0.072-0.333-0.039-0.41,0.045
		c-0.046,0.052-0.049,0.117-0.006,0.173c0.049,0.062,0.113,0.093,0.168,0.108c-0.018,0.021-0.031,0.047-0.039,0.078
		c-0.005,0.021-0.004,0.036,0.004,0.055c0.04,0.096,0.097,0.133,0.145,0.146c-0.014,0.039-0.007,0.081,0.021,0.114
		c0.085,0.105,0.207,0.104,0.222,0.104c0.043-0.004,0.095-0.007,0.141-0.021c0.013,0.019,0.027,0.031,0.042,0.043
		c0.05,0.031,0.107,0.025,0.148-0.018c0.046-0.052,0.063-0.109,0.069-0.16c0.021,0.015,0.046,0.021,0.074,0.022
		C56.625,132.465,56.641,132.462,56.653,132.456L56.653,132.456z"/>
	<path fill="#008C44" d="M57.741,129.562c-0.09,0-0.153,0.058-0.159,0.143c-0.007,0.099,0.026,0.184,0.068,0.245
		c-0.039,0.004-0.075,0.016-0.111,0.034c-0.02,0.013-0.034,0.027-0.042,0.049c-0.047,0.121-0.025,0.203,0.008,0.258
		c-0.045,0.021-0.076,0.062-0.079,0.116c-0.013,0.169,0.109,0.278,0.124,0.29c0.092,0.08,0.231,0.188,0.343,0.13
		c0.034-0.021,0.069-0.056,0.076-0.124c0.04,0.021,0.077,0.031,0.104,0.033c-0.001,0-0.004,0-0.005,0
		c0.123,0.024,0.293,0.046,0.351-0.066c0.013-0.027,0.021-0.064,0.005-0.113c0.046,0.029,0.092,0.049,0.139,0.053
		c0.036,0.057,0.091,0.086,0.128,0.095l0.011,0.003c0.062,0.016,0.146,0.036,0.206-0.021c0.056-0.056,0.044-0.139,0.025-0.205
		c-0.022-0.092-0.073-0.146-0.127-0.174c-0.037-0.02-0.08-0.023-0.115-0.021c-0.07-0.13-0.229-0.231-0.345-0.239
		c-0.012-0.035-0.025-0.056-0.032-0.07c-0.032-0.041-0.08-0.07-0.133-0.08C58.122,129.717,57.89,129.56,57.741,129.562
		L57.741,129.562z"/>
	<path fill="#008C44" d="M70.732,132.884c-0.046,0.508-0.172,1.02-0.374,1.522c-0.207,0.52-0.494,1.03-0.857,1.522
		c-0.374,0.508-0.828,0.991-1.355,1.442c-0.54,0.463-1.156,0.892-1.839,1.271c-1.4,0.772-3.052,1.336-4.869,1.59
		c-1.818,0.254-3.561,0.17-5.119-0.19c-1.005-0.233-1.168-0.28-2.116-0.714c-0.632-0.291-1.202-0.631-1.7-1.016
		c-0.485-0.373-0.903-0.785-1.244-1.229c-0.333-0.43-0.593-0.887-0.779-1.363c-0.153-0.396-0.256-0.807-0.305-1.229
		c-0.002,0.189,0.003,0.378,0.018,0.564c0.044,0.547,0.16,1.078,0.348,1.594c0.193,0.533,0.462,1.043,0.802,1.527
		c0.351,0.494,0.775,0.958,1.269,1.381c0.506,0.434,1.083,0.82,1.723,1.152c0.653,0.34,1.371,0.617,2.136,0.824
		c1.573,0.423,3.326,0.545,5.146,0.287c1.823-0.254,3.477-0.852,4.871-1.689c0.681-0.41,1.292-0.876,1.827-1.382
		c0.526-0.495,0.973-1.026,1.341-1.582c0.358-0.539,0.639-1.104,0.839-1.677c0.194-0.559,0.312-1.121,0.353-1.688
		c0.038-0.534,0.004-1.071-0.1-1.6C70.758,132.431,70.753,132.657,70.732,132.884L70.732,132.884z"/>
	<path fill="#008C44" d="M141.385,133.347c-0.075-0.375-0.213-0.742-0.401-1.1c-0.186-0.344-0.412-0.66-0.674-0.95
		c-0.256-0.282-0.545-0.537-0.86-0.771c-0.608-0.442-1.322-0.797-2.095-1.055c-0.744-0.248-1.555-0.41-2.394-0.477
		c-0.825-0.066-1.692-0.044-2.583,0.08c-0.889,0.124-1.73,0.341-2.505,0.633c-0.791,0.295-1.522,0.673-2.173,1.116
		c-0.67,0.461-1.26,0.995-1.723,1.59c-0.238,0.308-0.446,0.635-0.615,0.976c-0.172,0.354-0.303,0.721-0.385,1.102
		c-0.086,0.396-0.113,0.783-0.084,1.167c0.027,0.394,0.114,0.778,0.26,1.149c0.15,0.385,0.357,0.75,0.628,1.098
		c0.272,0.357,0.608,0.687,1,0.986c0.399,0.309,0.858,0.584,1.368,0.816c0.52,0.238,1.088,0.432,1.701,0.572
		c1.254,0.291,2.655,0.359,4.119,0.154c1.463-0.207,2.791-0.656,3.918-1.281c0.551-0.303,1.045-0.646,1.479-1.02
		c0.425-0.361,0.79-0.754,1.089-1.158c0.294-0.397,0.525-0.809,0.691-1.227c0.162-0.404,0.263-0.816,0.302-1.229
		C141.485,134.129,141.467,133.731,141.385,133.347L141.385,133.347z M138.126,130.84c0.43,0.142,0.759,0.438,0.984,0.709
		c0.231,0.281,0.355,0.527,0.355,0.527c0.141,0.442-5.723,1.31-5.249,1.141c0.232-0.086,1.056-0.797,1.888-1.414
		C136.896,131.213,137.706,130.701,138.126,130.84L138.126,130.84z M134.353,130.095c0.164-0.312,0.34-0.522,0.518-0.527
		c0,0,1.688,0.018,2.4,0.453c0.373,0.228-0.433,0.865-1.398,1.513c-0.505,0.338-1.049,0.674-1.487,0.954
		c-0.452,0.285-0.786,0.507-0.853,0.601c-0.062,0.091-0.049-0.121,0.021-0.479c0.065-0.349,0.184-0.828,0.326-1.299
		C134.019,130.858,134.181,130.419,134.353,130.095L134.353,130.095z M130.433,130.144c0.787-0.455,2.416-0.56,2.416-0.56
		c0.174-0.001,0.285,0.199,0.356,0.505c0.071,0.312,0.103,0.749,0.106,1.194c0.006,0.463-0.021,0.938-0.056,1.286
		c-0.039,0.357-0.087,0.567-0.123,0.476s-0.306-0.308-0.661-0.583c-0.348-0.27-0.775-0.588-1.156-0.904
		C130.59,130.959,130.026,130.375,130.433,130.144L130.433,130.144z M131.171,137.743c0.189-0.518,0.501-1.149,0.816-1.735
		c0.305-0.56,0.617-1.077,0.844-1.424c0.219-0.337,0.367-0.521,0.354-0.431c-0.015,0.095,0.107,0.363,0.287,0.733
		c0.188,0.378,0.439,0.872,0.668,1.388c0.238,0.537,0.452,1.098,0.535,1.563c0.086,0.485,0.027,0.856-0.285,0.979
		c-0.629,0.248-1.464,0.231-2.134,0.154c-0.659-0.078-1.153-0.217-1.153-0.217C130.909,138.685,130.974,138.28,131.171,137.743
		L131.171,137.743z M130.312,137.553c-0.358,0.411-0.705,0.671-0.994,0.63c-0.565-0.086-1.021-0.455-1.327-0.787
		c-0.298-0.326-0.455-0.625-0.455-0.625c-0.046-0.131,0.302-0.402,0.829-0.73c0.519-0.318,1.21-0.686,1.882-1.021
		c1.301-0.65,2.542-1.188,2.358-1.043c-0.095,0.07-0.256,0.344-0.471,0.719c-0.218,0.389-0.492,0.891-0.801,1.399
		C131.017,136.621,130.663,137.153,130.312,137.553L130.312,137.553z M127.058,132.658c0.125-0.366,0.562-0.761,0.957-1.062
		c0.387-0.294,0.739-0.5,0.739-0.5c0.158-0.076,0.488,0.01,0.897,0.188c0.416,0.178,0.924,0.457,1.416,0.748
		c0.508,0.305,1,0.628,1.343,0.867c0.35,0.248,0.534,0.404,0.407,0.365c-0.25-0.08-1.781-0.039-3.211-0.076
		C128.209,133.149,126.927,133.035,127.058,132.658L127.058,132.658z M126.543,134.56c0.077-0.355,0.211-0.641,0.211-0.641
		c0.144-0.23,1.575-0.309,2.933-0.316c1.381-0.009,2.697,0.056,2.438,0.1c-0.257,0.045-1.422,0.648-2.638,1.201
		c-1.258,0.568-2.553,1.07-2.805,0.77C126.438,135.38,126.463,134.929,126.543,134.56L126.543,134.56z M128.752,139.594
		c-0.198-0.165-1.703-0.698-1.815-1.411c1.748,1.485,6.679,1.584,8.188,1.653C133.463,140.354,130.403,140.301,128.752,139.594
		L128.752,139.594z M138.885,136.062c0,0-0.143,0.34-0.43,0.729c-0.294,0.403-0.743,0.86-1.326,1.047
		c-0.293,0.095-0.674-0.114-1.075-0.473c-0.39-0.349-0.794-0.833-1.158-1.318c-0.349-0.464-0.666-0.927-0.916-1.282
		c-0.244-0.343-0.428-0.59-0.522-0.646c-0.101-0.056,0.171-0.005,0.63,0.11c0.471,0.117,1.146,0.304,1.844,0.519
		c0.719,0.221,1.465,0.472,2.03,0.707C138.538,135.692,138.924,135.916,138.885,136.062L138.885,136.062z M139.948,134.015
		c-0.016,0.381-0.115,0.686-0.115,0.686c-0.062,0.127-0.521,0.131-1.157,0.062c-0.628-0.066-1.422-0.201-2.17-0.347
		c-1.455-0.282-2.741-0.608-2.478-0.604c0.263,0.004,1.543-0.381,2.797-0.687c1.24-0.302,2.475-0.524,2.771-0.228
		C139.899,133.204,139.965,133.644,139.948,134.015L139.948,134.015z"/>
	<path fill="#008C44" d="M133.067,130.916c-0.055-0.071-0.141-0.089-0.219-0.046c-0.09,0.049-0.143,0.126-0.173,0.191
		c-0.028-0.026-0.058-0.049-0.096-0.065c-0.021-0.011-0.043-0.013-0.065-0.007c-0.134,0.029-0.193,0.097-0.221,0.152
		c-0.046-0.023-0.1-0.023-0.148,0.004c-0.154,0.082-0.176,0.239-0.178,0.258c-0.018,0.121-0.023,0.287,0.092,0.344
		c0.037,0.018,0.088,0.025,0.15-0.006c0.006,0.042,0.021,0.078,0.033,0.102c-0.001-0.001-0.003-0.003-0.003-0.007
		c0.05,0.111,0.136,0.256,0.264,0.238c0.034-0.003,0.071-0.019,0.104-0.06c0.002,0.053,0.01,0.102,0.035,0.142
		c-0.029,0.062-0.021,0.118-0.008,0.151l0.006,0.012c0.024,0.057,0.057,0.137,0.139,0.148c0.083,0.016,0.146-0.042,0.195-0.095
		c0.063-0.07,0.084-0.14,0.072-0.199c-0.005-0.039-0.023-0.075-0.05-0.103c0.073-0.129,0.067-0.312,0.005-0.407
		c0.025-0.028,0.035-0.05,0.04-0.063c0.021-0.053,0.019-0.103-0.006-0.151C133.158,131.304,133.158,131.031,133.067,130.916
		L133.067,130.916z"/>
	<path fill="#008C44" d="M134.903,131.851c0.014-0.063-0.02-0.123-0.084-0.146c-0.072-0.024-0.143-0.021-0.197-0.003
		c0.005-0.026,0.004-0.057-0.007-0.087c-0.007-0.017-0.017-0.031-0.03-0.042c-0.082-0.059-0.15-0.062-0.197-0.049
		c-0.01-0.037-0.035-0.068-0.076-0.082c-0.125-0.045-0.226,0.021-0.236,0.029c-0.077,0.049-0.176,0.129-0.148,0.225
		c0.008,0.027,0.03,0.061,0.079,0.08c-0.021,0.025-0.036,0.052-0.043,0.07c0-0.002,0-0.005,0.002-0.005
		c-0.036,0.085-0.077,0.206-0.002,0.271c0.019,0.018,0.046,0.031,0.085,0.029c-0.027,0.027-0.054,0.059-0.062,0.092
		c-0.049,0.014-0.078,0.05-0.088,0.072l-0.006,0.008c-0.021,0.043-0.049,0.1-0.014,0.153c0.032,0.056,0.096,0.064,0.148,0.065
		c0.074,0,0.123-0.024,0.152-0.059c0.021-0.023,0.029-0.053,0.034-0.082c0.104-0.021,0.208-0.117,0.231-0.201
		c0.029,0,0.046-0.006,0.058-0.01c0.039-0.012,0.067-0.039,0.082-0.078C134.729,132.099,134.885,131.962,134.903,131.851
		L134.903,131.851z"/>
	<path fill="#008C44" d="M130.274,135.187c-0.034,0.08-0.01,0.164,0.062,0.211c0.086,0.058,0.178,0.067,0.251,0.063
		c-0.013,0.034-0.017,0.074-0.014,0.115c0.001,0.022,0.011,0.043,0.024,0.062c0.09,0.104,0.176,0.125,0.239,0.12
		c0,0.052,0.026,0.101,0.071,0.13c0.146,0.096,0.3,0.041,0.312,0.033c0.115-0.04,0.268-0.111,0.26-0.24
		c-0.002-0.041-0.021-0.09-0.078-0.131c0.037-0.025,0.062-0.055,0.076-0.076c-0.002,0-0.002,0.004-0.004,0.006
		c0.071-0.1,0.162-0.242,0.084-0.347c-0.018-0.026-0.052-0.054-0.101-0.062c0.043-0.026,0.083-0.061,0.106-0.098
		c0.065-0.007,0.115-0.039,0.137-0.07c0,0.004,0.009-0.008,0.009-0.008c0.039-0.047,0.09-0.11,0.063-0.193
		c-0.023-0.079-0.105-0.108-0.174-0.125c-0.094-0.024-0.162-0.008-0.209,0.025c-0.035,0.026-0.059,0.059-0.068,0.094
		c-0.145-0.004-0.309,0.09-0.359,0.191c-0.037-0.012-0.062-0.009-0.076-0.008c-0.053,0.008-0.102,0.034-0.131,0.078
		C130.575,134.923,130.333,135.051,130.274,135.187L130.274,135.187z"/>
	<path fill="#008C44" d="M137.181,134.435c0.084-0.033,0.125-0.111,0.103-0.196c-0.022-0.101-0.08-0.175-0.138-0.222
		c0.033-0.016,0.063-0.039,0.092-0.07c0.015-0.02,0.022-0.041,0.023-0.065c0.008-0.134-0.041-0.209-0.087-0.251
		c0.034-0.037,0.05-0.091,0.035-0.145c-0.04-0.17-0.187-0.234-0.2-0.241c-0.111-0.05-0.271-0.103-0.355-0.005
		c-0.024,0.031-0.047,0.078-0.033,0.146c-0.043-0.007-0.082-0.002-0.107,0.004c0.004-0.002,0.006-0.003,0.008-0.004
		c-0.123,0.021-0.283,0.063-0.303,0.192c-0.003,0.032,0,0.071,0.03,0.114c-0.049-0.012-0.103-0.015-0.146-0.004
		c-0.053-0.043-0.109-0.052-0.145-0.047l-0.014,0.002c-0.061,0.006-0.146,0.018-0.182,0.096c-0.035,0.074,0,0.15,0.038,0.211
		c0.05,0.083,0.112,0.119,0.169,0.127c0.045,0.004,0.082-0.003,0.116-0.021c0.103,0.104,0.278,0.148,0.39,0.115
		c0.021,0.03,0.041,0.045,0.051,0.055c0.041,0.032,0.095,0.047,0.147,0.035C136.781,134.415,137.045,134.49,137.181,134.435
		L137.181,134.435z"/>
	<path fill="#008C44" d="M137.771,132.256c-0.074-0.083-0.164-0.121-0.242-0.137c0.021-0.032,0.037-0.07,0.047-0.115
		c0.004-0.024,0-0.048-0.01-0.069c-0.064-0.132-0.147-0.179-0.215-0.19c0.016-0.056,0-0.111-0.041-0.156
		c-0.127-0.139-0.293-0.124-0.314-0.122c-0.129,0.014-0.307,0.049-0.334,0.184c-0.002,0.011,0.004,0.041,0.016,0.084
		c-0.111,0.02-0.242,0.062-0.259,0.175c-0.003,0.028,0,0.067,0.026,0.106c-0.047-0.013-0.094-0.015-0.137-0.006
		c-0.045-0.037-0.101-0.047-0.132-0.042l-0.012,0.002c-0.058,0.007-0.136,0.015-0.17,0.089c-0.013,0.026-0.017,0.057-0.009,0.084
		c-0.072,0.028-0.127,0.058-0.101,0.131c0.013,0.033,0.039,0.065,0.089,0.092c-0.052,0.014-0.103,0.037-0.14,0.07
		c-0.069-0.014-0.13,0.01-0.157,0.03l-0.099,0.056c-0.052,0.041-0.041,0.047-0.036,0.14c0.007,0.087,0.083,0.141,0.148,0.176
		c0.09,0.054,0.166,0.054,0.226,0.029c0.042-0.015,0.074-0.043,0.099-0.077c0.137,0.041,0.764-0.064,0.93-0.151
		c0.115,0.076,0.272,0.104,0.363,0.065c0.037-0.014,0.063-0.037,0.084-0.066c0.151,0.006,0.314-0.056,0.387-0.142
		C137.839,132.418,137.837,132.326,137.771,132.256L137.771,132.256z"/>
	<path fill="#008C44" d="M135.565,135.988c0.026-0.097,0.015-0.183-0.01-0.25c0.035,0.001,0.071-0.003,0.108-0.019
		c0.021-0.009,0.04-0.022,0.051-0.039c0.071-0.111,0.068-0.197,0.048-0.256c0.047-0.011,0.086-0.048,0.1-0.102
		c0.051-0.161-0.041-0.284-0.055-0.297c-0.066-0.094-0.175-0.213-0.293-0.174c-0.01,0.006-0.029,0.022-0.057,0.051
		c-0.066-0.072-0.159-0.156-0.255-0.116c-0.024,0.011-0.054,0.03-0.068,0.071c-0.014-0.043-0.03-0.082-0.06-0.106
		c0.009-0.058-0.01-0.101-0.028-0.122c0,0.001-0.005-0.01-0.005-0.01c-0.031-0.04-0.076-0.094-0.148-0.087
		c-0.024,0.002-0.05,0.013-0.067,0.03c-0.054-0.043-0.101-0.07-0.146-0.017c-0.02,0.026-0.033,0.062-0.031,0.111
		c-0.033-0.032-0.072-0.062-0.117-0.073c-0.022-0.061-0.067-0.096-0.098-0.107l-0.086-0.049c-0.057-0.023-0.056-0.011-0.121,0.036
		c-0.066,0.044-0.072,0.127-0.07,0.194c0.004,0.092,0.035,0.154,0.08,0.187c0.033,0.024,0.07,0.038,0.105,0.039
		c0.033,0.123,0.403,0.558,0.549,0.646c-0.004,0.121,0.047,0.257,0.121,0.309c0.025,0.021,0.059,0.032,0.086,0.032
		c0.066,0.118,0.188,0.219,0.289,0.231C135.474,136.116,135.541,136.069,135.565,135.988L135.565,135.988z"/>
	<path fill="#008C44" d="M133.696,136.379c0.007-0.135-0.039-0.209-0.088-0.252c0.037-0.036,0.052-0.089,0.037-0.146
		c-0.018-0.078-0.062-0.135-0.104-0.174c0.018-0.063,0.018-0.117-0.055-0.141c-0.012-0.004-0.024-0.006-0.039-0.006
		c-0.006-0.064-0.02-0.123-0.045-0.168c0.043-0.046,0.059-0.1,0.06-0.135l0.019-0.119c0.002-0.067-0.012-0.062-0.094-0.119
		c-0.078-0.057-0.173-0.026-0.248,0.007c-0.104,0.041-0.156,0.104-0.177,0.168c-0.014,0.05-0.01,0.097,0.004,0.138
		c-0.026,0.019-0.058,0.055-0.094,0.104c-0.015,0-0.026,0-0.041,0.001c-0.132,0.03-0.192,0.097-0.22,0.153
		c-0.045-0.024-0.102-0.024-0.148,0.002c-0.152,0.086-0.178,0.244-0.178,0.261c-0.01,0.063-0.016,0.142-0.002,0.209
		c-0.033,0.013-0.067,0.034-0.087,0.075c-0.037,0.072,0.001,0.149,0.04,0.213c0.029,0.046,0.061,0.078,0.094,0.098
		c0,0.012-0.001,0.02,0,0.028c-0.193,0.098-0.328,0.383-0.289,0.548c0.025,0.102,0.104,0.16,0.206,0.152
		c0.118-0.01,0.212-0.062,0.278-0.117c0.012,0.038,0.031,0.078,0.063,0.115c0.021,0.02,0.042,0.035,0.068,0.041
		c0.153,0.031,0.245-0.01,0.303-0.056c0.036,0.046,0.095,0.071,0.159,0.066c0.203-0.015,0.3-0.168,0.311-0.187
		c0.037-0.055,0.074-0.123,0.098-0.19c0.031-0.001,0.061-0.009,0.089-0.019c0.081-0.035,0.12-0.111,0.102-0.197
		c-0.022-0.1-0.079-0.174-0.14-0.219c0.035-0.021,0.064-0.043,0.093-0.074C133.688,136.425,133.694,136.403,133.696,136.379
		L133.696,136.379z"/>
	<path fill="#008C44" d="M130.076,134.487c0.063-0.041,0.084-0.084,0.089-0.119c0.025,0.005,0.055-0.003,0.077-0.025
		c0.03-0.035,0.042-0.07,0.047-0.102c0.035-0.014,0.062-0.031,0.048-0.066c-0.005-0.009-0.006-0.015-0.01-0.023
		c0.027-0.021,0.05-0.043,0.061-0.069c0.034,0.005,0.063-0.004,0.08-0.017l0.059-0.027c0.033-0.02,0.027-0.023,0.027-0.078
		c0.002-0.052-0.043-0.086-0.08-0.111c-0.052-0.033-0.095-0.037-0.131-0.025c-0.027,0.009-0.046,0.023-0.062,0.043
		c-0.015-0.006-0.041-0.01-0.076-0.012c-0.002-0.008-0.007-0.013-0.015-0.018c-0.055-0.051-0.103-0.059-0.135-0.055
		c-0.004-0.025-0.02-0.051-0.047-0.065c-0.086-0.043-0.166-0.002-0.172,0c-0.033,0.017-0.07,0.035-0.096,0.063
		c-0.018-0.012-0.038-0.021-0.062-0.016c-0.043,0.008-0.068,0.045-0.084,0.082c-0.013,0.027-0.017,0.053-0.016,0.072
		c-0.006,0.003-0.01,0.008-0.014,0.012c-0.104-0.06-0.272-0.031-0.338,0.035c-0.037,0.042-0.041,0.098-0.006,0.143
		c0.041,0.051,0.094,0.074,0.139,0.088c-0.012,0.019-0.023,0.039-0.032,0.066c-0.003,0.012-0.003,0.029,0.004,0.043
		c0.033,0.078,0.079,0.108,0.118,0.119c-0.012,0.032-0.004,0.065,0.018,0.094c0.07,0.086,0.172,0.084,0.182,0.084
		c0.035,0,0.078-0.002,0.117-0.016c0.012,0.014,0.021,0.026,0.033,0.034c0.041,0.026,0.088,0.021,0.122-0.017
		c0.035-0.039,0.054-0.088,0.058-0.129c0.018,0.01,0.037,0.017,0.062,0.019C130.054,134.495,130.067,134.492,130.076,134.487
		L130.076,134.487z"/>
	<path fill="#008C44" d="M130.969,132.113c-0.073,0.001-0.126,0.048-0.13,0.116c-0.006,0.082,0.021,0.149,0.057,0.201
		c-0.033,0.002-0.062,0.012-0.092,0.029c-0.017,0.007-0.029,0.021-0.035,0.038c-0.039,0.101-0.021,0.169,0.008,0.212
		c-0.037,0.018-0.062,0.053-0.065,0.096c-0.01,0.139,0.091,0.228,0.101,0.236c0.078,0.066,0.19,0.152,0.283,0.105
		c0.025-0.016,0.059-0.043,0.063-0.101c0.03,0.017,0.062,0.024,0.086,0.028c-0.003,0-0.004,0-0.007,0
		c0.101,0.018,0.24,0.035,0.289-0.057c0.012-0.021,0.017-0.056,0.002-0.094c0.039,0.023,0.076,0.042,0.115,0.045
		c0.029,0.047,0.074,0.069,0.104,0.076l0.01,0.003c0.051,0.011,0.119,0.027,0.17-0.021c0.047-0.041,0.035-0.111,0.021-0.168
		c-0.021-0.073-0.061-0.116-0.104-0.142c-0.03-0.016-0.065-0.02-0.097-0.018c-0.057-0.104-0.188-0.189-0.283-0.196
		c-0.007-0.027-0.02-0.046-0.025-0.053c-0.024-0.038-0.062-0.062-0.107-0.069C131.28,132.241,131.092,132.112,130.969,132.113
		L130.969,132.113z"/>
	<path fill="#008C44" d="M141.623,134.836c-0.04,0.419-0.144,0.838-0.308,1.252c-0.168,0.429-0.405,0.845-0.703,1.247
		c-0.307,0.417-0.678,0.814-1.112,1.186c-0.44,0.379-0.946,0.729-1.507,1.039c-1.146,0.637-2.503,1.098-3.994,1.308
		c-1.488,0.206-2.918,0.14-4.197-0.158c-0.824-0.19-0.959-0.229-1.734-0.585c-0.519-0.237-0.986-0.518-1.396-0.832
		c-0.396-0.309-0.737-0.645-1.019-1.008c-0.272-0.354-0.486-0.729-0.641-1.118c-0.125-0.326-0.209-0.661-0.248-1.007
		c-0.002,0.156,0.002,0.309,0.016,0.462c0.033,0.446,0.132,0.886,0.285,1.308c0.158,0.438,0.377,0.855,0.658,1.252
		c0.285,0.407,0.635,0.786,1.039,1.135c0.416,0.354,0.889,0.672,1.416,0.943c0.532,0.278,1.119,0.506,1.748,0.678
		c1.29,0.348,2.729,0.446,4.223,0.235s2.848-0.7,3.992-1.388c0.559-0.338,1.062-0.717,1.498-1.133
		c0.432-0.402,0.799-0.84,1.101-1.299c0.295-0.441,0.524-0.903,0.688-1.373c0.157-0.457,0.256-0.92,0.286-1.385
		c0.034-0.441,0.007-0.879-0.077-1.312C141.644,134.467,141.642,134.651,141.623,134.836L141.623,134.836z"/>
	<path fill="#008C44" d="M149.899,129.085c9.525,12.875,4.295,18.186-0.758,22.811c-4.959,4.527-9.822,8.646-22.761,10.943v-0.018
		c-1.547,0.344-3.086,0.654-4.61,0.925c-12.808,2.291-25.996,7.354-33.98,2.122c-11.624-7.609-37.023,3.305-45.297-4.254
		c-5.056-4.627-15.798-17.141-6.271-30.016c-7.336,9.004-4.257,21.35,1.999,28.504c9.637,11.021,29.131,14.933,47.8,15.811
		c12.267,0.008,25.813-2.154,40.362-6.234v-0.042c16.454-4.562,22.56-9.175,28.66-17.528
		C160.651,144.435,157.237,138.091,149.899,129.085L149.899,129.085z M98.571,172.874c-22.835,3.332-50.318-5.303-47.64-6.258
		c0.088-0.033,10.296-1.465,19.361-2.004c7.998-0.473,15.097-0.178,13.682,1.414c-1.236,1.453,3.873,3.902,12.842,3.676
		c7.21-0.186,16.683-2.451,22.451-3.462c3.467-0.608,5.325-0.188,5.325-0.188C126.222,168.586,121.415,169.531,98.571,172.874
		L98.571,172.874z"/>
	<path fill="#008C44" d="M157.433,134.106c5.323,7.771,6.276,19.062-3.233,29.431c-7.015,6.728-17.398,11.478-29.25,14.007v0.01
		c-13.224,2.67-25.868,3.1-36.971,3.116c-19.296-0.358-37.436-5.998-47.976-16.106c-9.511-10.367-11.443-22.75-6.118-30.521
		c-6.817,7.856-4.694,24.543,4.286,33.151c10.84,10.389,28.085,17.531,49.167,17.033c11.825-0.147,24.398-2.006,37.977-5.465
		c12.723-2.585,23.244-5.433,30.717-12.595C165.01,157.558,164.247,141.966,157.433,134.106L157.433,134.106z"/>
	<path fill="#008C44" d="M150.046,134.104c-4.438-8.336-5.936-6.49-6.37-5.924c-0.372,0.484,9.359,6.043,4.769,13.405
		c-0.938,1.506-1.975,3.358-3.711,4.733c-8.854,7.01-47.774,16.451-55.504,11.391c-11.248-7.363-36.037,0.311-44.179-6.443
		c-2.534-2.104-4.362-4.67-5.522-7.045c-1.191-2.435-1.961-6.185-1.218-8.154c0,0,0.486-2.93,4.894-7.221
		c2.472-2.406,5.855-4.289,11.861-8.641c3.575-2.594-12.625,1.049-19.228,13.456c-6.292,11.815,2.745,21.937,7.21,25.772
		c10.271,8.832,32.495-2.932,44.116,4.679c7.986,5.229,21.271,0.657,33.98-2.123c18.633-4.076,22.338-8.171,24.873-10.513
		C149.008,148.717,154.274,142.041,150.046,134.104L150.046,134.104z"/>
	<path fill="#008C44" d="M94.397,117.131c-2.228-0.522-4.109,0.39-4.187,2.028c-0.075,1.636,1.682,3.393,3.91,3.916
		c2.23,0.519,4.111-0.395,4.186-2.032C98.385,119.405,96.627,117.647,94.397,117.131L94.397,117.131z M93.512,117.688
		c-0.349-0.092-0.721-0.176-1.146-0.263c0.538-0.093,1.143-0.151,1.748-0.069C93.903,117.453,93.698,117.569,93.512,117.688
		L93.512,117.688z M95.256,117.801c0.399,0.183,0.762,0.478,0.845,0.568c0.162,0.188,0.245,0.289,0.32,0.589
		c-0.365-0.214-1.211-0.768-1.972-0.973C94.599,117.896,95.141,117.906,95.256,117.801L95.256,117.801z M97.597,120.905
		c-0.098,0.66-0.722,1.129-1.388,1.044c-0.667-0.089-1.127-0.7-1.027-1.361c0.101-0.664,0.726-1.131,1.391-1.044
		C97.237,119.631,97.694,120.243,97.597,120.905L97.597,120.905z"/>
	<path fill="#008C44" d="M97.585,116.714c-15.852-28.212,15.059-58.163-4.679-77.608C107.636,64.102,76.538,92.301,97.585,116.714
		L97.585,116.714z"/>
	<path fill="#008C44" d="M104.065,112.705C93.841,91.709,117.396,71.412,104,56.573C113.556,75.219,89.934,94.225,104.065,112.705
		L104.065,112.705z"/>
	<path fill="#008C44" d="M87.242,111.185c-9.444-16.286,8.313-33.979-3.324-45.133C92.688,80.489,74.787,97.153,87.242,111.185
		L87.242,111.185z"/>
	<path fill="#D71920" d="M134.897,12.58c0.01,0,0.021,0,0.035,0.012c0.022,0,0.022,0.012,0.022,0.022
		c0.521-0.022,0.976-0.244,1.347-0.674c0.36-0.429,0.547-0.917,0.547-1.475c0-0.511-0.199-0.974-0.57-1.371
		c-0.385-0.393-0.825-0.591-1.322-0.591c-0.514,0-0.932,0.232-1.256,0.696c-0.314,0.452-0.479,0.963-0.479,1.521
		c0.036,0.476,0.211,0.918,0.536,1.29C134.071,12.394,134.456,12.58,134.897,12.58L134.897,12.58z"/>
	<path fill="#D71920" d="M76.71,16.691h-1.801c-1.125,1.196-2.125,2.311-2.985,3.343c-0.858,1.023-1.649,2.069-2.368,3.148
		c-0.732,1.068-1.429,2.241-2.103,3.507l1.103-10.36c-1.545,1.011-3.287,1.511-5.227,1.522c-0.012,0-0.035,0-0.045,0v1.277
		l0.045-0.012l2.486-0.58l-0.779,13.831h1.998c0.163-1.394,0.454-2.671,0.871-3.82c0.417-1.151,0.941-2.218,1.545-3.195
		c0.604-0.986,1.185-1.823,1.73-2.509c0.545-0.684,1.58-1.927,3.076-3.716c-0.08,6.121-0.497,10.544-1.264,13.298l0.522,0.395
		c1.544-0.918,3.135-1.406,4.749-1.463V30.21l-2.346,0.3L76.71,16.691L76.71,16.691z"/>
	<path fill="#D71920" d="M62.994,19.849c-0.233-0.997-0.605-1.823-1.115-2.473c-0.511-0.662-1.172-0.987-1.974-0.987
		c-0.721,0.023-1.383,0.093-1.986,0.233c-1.104,0.254-2.022,0.719-2.741,1.393c-1.127,1.033-1.894,2.346-2.3,3.927
		c-0.232,0.904-0.395,1.867-0.511,2.914c-0.082,0.791-0.117,1.615-0.128,2.485c0,0.767,0.035,1.44,0.128,2.022
		c0.069,0.43,0.174,0.801,0.29,1.116c0.291,0.73,0.686,1.241,1.208,1.555c0.523,0.3,1.198,0.499,2.021,0.592h0.615
		c0.5,0,0.976-0.044,1.417-0.127c1.021-0.185,1.88-0.593,2.601-1.208c1.022-0.88,1.753-2.044,2.195-3.495
		c0.327-1.057,0.534-2.195,0.615-3.436c0.036-0.455,0.046-0.93,0.046-1.419c0-0.312-0.022-0.616-0.046-0.917
		C63.272,21.278,63.156,20.546,62.994,19.849L62.994,19.849z M61.101,24.345c0,1.986-0.268,3.681-0.813,5.098
		c-0.489,1.267-1.278,1.962-2.369,2.089c-0.116,0.013-0.245,0.025-0.372,0.025c-0.824-0.057-1.439-0.372-1.858-0.942
		c-0.418-0.558-0.674-1.217-0.789-1.996c-0.105-0.768-0.164-1.685-0.164-2.743c0.035-1.056,0.141-2.217,0.327-3.497
		c0.186-1.264,0.498-2.379,0.951-3.345c0.442-0.974,1.035-1.473,1.754-1.507c0.045,0,0.105,0,0.151,0
		c1.103,0.058,1.906,0.697,2.403,1.916c0.512,1.289,0.779,2.763,0.779,4.437V24.345L61.101,24.345z"/>
	<path fill="#D71920" d="M52.505,21.591c0-0.673-0.045-1.323-0.139-1.962c-0.117-0.79-0.303-1.557-0.569-2.299
		c-0.464-1.335-1.161-2.486-2.09-3.484c-0.929-0.977-2.091-1.754-3.484-2.312c-1.011-0.407-2.126-0.66-3.345-0.767
		c-0.464-0.046-0.954-0.067-1.463-0.067c-1.29,0-2.648,0.045-4.099,0.115c-1.441,0.08-2.521,0.128-3.218,0.137
		c-1.265-0.044-2.59-0.128-3.959-0.252v1.311h0.568c0.943,0,1.602,0.105,1.999,0.301c0.382,0.221,0.639,0.685,0.778,1.395
		c0.127,0.718,0.197,1.917,0.197,3.601V28.69v0.638c0,0.499-0.174,0.893-0.523,1.208c-0.348,0.303-0.779,0.453-1.277,0.453h-1.742
		v1.381c0.929-0.139,1.811-0.209,2.647-0.209c0.79,0,1.707,0.059,2.765,0.187c1.056,0.14,2.113,0.268,3.17,0.396
		c1.057,0.127,1.974,0.197,2.764,0.197c0.476,0,0.94-0.023,1.394-0.07c1.253-0.116,2.393-0.395,3.415-0.825
		c1.406-0.603,2.554-1.417,3.483-2.474c0.918-1.045,1.592-2.252,2.057-3.622c0.244-0.757,0.43-1.534,0.534-2.347
		C52.46,22.951,52.505,22.277,52.505,21.591L52.505,21.591z M49,25.692c-0.314,1.115-0.779,2.091-1.418,2.95
		c-0.639,0.848-1.475,1.545-2.497,2.056c-0.65,0.325-1.393,0.57-2.206,0.707c-0.464,0.083-0.954,0.127-1.463,0.152
		c-1.823,0-3.147-0.348-3.938-1.068c-0.789-0.708-1.184-1.741-1.184-3.104V12.208l2.74-0.197h0.86c1.069,0,2.067,0.14,2.985,0.44
		c0.325,0.094,0.639,0.223,0.941,0.361c1.184,0.534,2.207,1.277,3.043,2.229c0.848,0.954,1.497,2.033,1.939,3.263
		c0.452,1.221,0.673,2.498,0.673,3.845C49.463,23.416,49.3,24.589,49,25.692L49,25.692z"/>
	<path fill="#D71920" d="M98.776,20.56c-0.082,0-0.174-0.118-0.278-0.349c0.082-0.234,0.14-0.35,0.21-0.35
		c0.848-0.405,1.486-1,1.902-1.789c0.42-0.789,0.64-1.591,0.64-2.416c0-1-0.29-1.858-0.847-2.602
		c-0.569-0.729-1.324-1.3-2.276-1.682c-0.513-0.209-1.047-0.372-1.604-0.465c-0.475-0.083-0.974-0.128-1.498-0.128
		c-0.568,0.023-1.358,0.069-2.345,0.116c-0.988,0.057-1.765,0.105-2.347,0.127c-0.103-0.012-1.289-0.07-3.564-0.174v1.173h1.382
		c0.638,0,1.058,0.116,1.231,0.348c0.627,0.547,0.951,2.15,0.951,4.811V29.2c0,1.196-0.568,1.788-1.695,1.788h-1.87v1.242
		c0.022,0,0.43-0.034,1.208-0.104c0.778-0.069,1.439-0.104,1.963-0.104c0.847,0,1.939,0.128,3.251,0.382
		c1.325,0.255,2.404,0.382,3.205,0.382c0.047,0,0.083,0,0.127,0c1.372-0.034,2.534-0.325,3.497-0.86
		c0.978-0.544,1.721-1.32,2.219-2.311c0.488-0.987,0.744-2.149,0.744-3.471c-0.047-1.291-0.396-2.486-1.033-3.567
		C101.285,21.499,100.228,20.814,98.776,20.56L98.776,20.56z M92.621,12.302h1.451c0.942,0,1.755,0.174,2.451,0.51
		c0.222,0.104,0.431,0.231,0.64,0.383c0.824,0.581,1.268,1.521,1.336,2.821c0,1.173-0.383,2.173-1.141,2.985
		c-0.254,0.28-0.533,0.5-0.835,0.685c-0.557,0.348-1.207,0.523-1.916,0.523h-1.986V12.302L92.621,12.302z M99.868,29.456
		c-0.359,0.697-0.883,1.208-1.532,1.544c-0.535,0.29-1.151,0.463-1.813,0.533c-0.163,0.013-0.313,0.025-0.464,0.025
		c-0.975,0-1.788-0.198-2.45-0.615c-0.65-0.407-0.988-0.986-0.988-1.742v-7.759h2.265c0.581,0,1.127,0.071,1.636,0.208
		c0.396,0.116,0.768,0.257,1.127,0.442c0.849,0.443,1.51,1.069,2.01,1.904c0.486,0.825,0.755,1.801,0.777,2.928
		C100.438,27.922,100.24,28.771,99.868,29.456L99.868,29.456z"/>
	<path fill="#D71920" d="M149.45,30.511l0.787-13.819h-1.801c-1.123,1.196-2.125,2.311-2.983,3.343
		c-0.856,1.023-1.649,2.069-2.368,3.148c-0.73,1.068-1.43,2.241-2.104,3.507l1.104-10.36c-1.557,1.021-3.32,1.522-5.271,1.522v1.277
		l2.531-0.592l-0.779,13.831h1.998c0.162-1.394,0.455-2.671,0.871-3.82c0.42-1.151,0.939-2.218,1.547-3.195
		c0.604-0.986,1.186-1.823,1.729-2.509c0.545-0.684,1.579-1.927,3.076-3.716c-0.08,6.121-0.497,10.544-1.263,13.298l0.521,0.395
		c1.487-0.896,3.019-1.37,4.587-1.463c0.059,0,0.117,0,0.162,0V30.21l-0.162,0.022L149.45,30.511L149.45,30.511z"/>
	<path fill="#D71920" d="M162.228,19.849c-0.224-0.997-0.606-1.823-1.119-2.473c-0.508-0.662-1.17-0.987-1.975-0.987
		c-0.718,0.023-1.38,0.093-1.982,0.233c-1.105,0.254-2.021,0.719-2.742,1.393c-1.126,1.033-1.893,2.346-2.299,3.927
		c-0.209,0.823-0.373,1.706-0.478,2.66c-0.093,0.858-0.151,1.776-0.164,2.739c0,0.848,0.062,1.568,0.164,2.185
		c0.069,0.36,0.15,0.672,0.257,0.953c0.289,0.73,0.694,1.241,1.219,1.555c0.513,0.3,1.186,0.499,2.009,0.592h0.614
		c0.513,0,0.979-0.044,1.42-0.127c1.021-0.185,1.879-0.593,2.602-1.208c1.021-0.88,1.753-2.044,2.206-3.495
		c0.431-1.451,0.662-3.068,0.662-4.855C162.587,21.872,162.458,20.836,162.228,19.849L162.228,19.849z M160.331,24.345
		c0,1.986-0.268,3.681-0.812,5.098c-0.488,1.267-1.275,1.962-2.367,2.089c-0.118,0.013-0.246,0.025-0.373,0.025
		c-0.825-0.057-1.44-0.372-1.857-0.942c-0.419-0.558-0.673-1.217-0.792-1.996c-0.104-0.768-0.16-1.685-0.16-2.743
		c0.036-1.056,0.15-2.217,0.325-3.497c0.186-1.264,0.512-2.379,0.95-3.345c0.454-0.974,1.034-1.473,1.756-1.507
		c0.058,0,0.104,0,0.151,0c1.113,0.058,1.916,0.697,2.404,1.916c0.521,1.289,0.775,2.763,0.775,4.437V24.345L160.331,24.345z"/>
	<path fill="#D71920" d="M130.879,18.026v1.162l0.231-0.034l2.602-0.477v2.346c0,4.379-0.291,8.329-0.882,11.858l2.483-0.523
		l1.14-15.771c-2.323,0.766-4.099,1.231-5.343,1.404C131.028,18.003,130.959,18.015,130.879,18.026L130.879,18.026z"/>
	<path fill="#D71920" d="M130.425,27.398c0,1.093-0.23,1.964-0.697,2.614c-0.476,0.651-1.09,0.998-1.834,1.068
		c-0.012,0-0.035,0.012-0.058,0.012c-0.022,0.01-0.049,0.022-0.083,0.058c-0.497-0.024-0.855-0.186-1.078-0.487
		c-0.221-0.314-0.359-0.722-0.408-1.208c-0.045-0.5-0.068-1.233-0.068-2.185c0.129-6.05,0.232-9.139,0.289-9.28l3.719,0.036
		l0.068-1.335l-3.461,0.058l0.396-3.752l-2.485,0.595l-0.197,3.158l-2.092-0.058h-0.148v1.394h0.148l1.963-0.094
		c-0.383,4.704-0.59,8.189-0.639,10.418c0.014,0.361,0.035,0.884,0.059,1.569c0.021,0.686,0.047,1.207,0.06,1.566
		c0.22,0.152,0.591,0.326,1.138,0.546c0.535,0.222,1.162,0.337,1.87,0.337c0.882,0,1.659-0.21,2.332-0.628
		c0.675-0.417,1.209-0.998,1.569-1.764c0.14-0.281,0.244-0.558,0.324-0.859c0.162-0.548,0.233-1.14,0.233-1.779h-0.233H130.425
		L130.425,27.398z"/>
	<path fill="#D71920" d="M112.551,26.69v0.266c0,0.686-0.161,1.338-0.499,1.952c-0.338,0.628-0.791,1.128-1.359,1.5
		c-0.58,0.371-1.195,0.557-1.857,0.557c-0.244-0.012-0.477-0.036-0.686-0.094c-1.719-0.405-2.637-2.09-2.739-5.053
		c0.067-0.766,0.114-1.137,0.127-1.137c0.883-0.105,1.754-0.244,2.612-0.406c1.418-0.269,2.8-0.628,4.136-1.07
		c0.267-1.149,0.396-2.056,0.396-2.74c0-0.789-0.117-1.498-0.361-2.113c-0.231-0.628-0.639-1.115-1.184-1.487
		c-0.559-0.36-1.277-0.535-2.173-0.535c-0.278,0-0.558,0.035-0.812,0.082c-0.697,0.14-1.303,0.407-1.823,0.825
		c-0.731,0.581-1.324,1.335-1.767,2.276c-0.44,0.941-0.778,1.963-0.987,3.054c-0.208,1.093-0.347,2.253-0.406,3.508
		c0,1.185,0.163,2.265,0.488,3.24c0.325,0.964,0.849,1.743,1.556,2.311c0.721,0.583,1.637,0.871,2.742,0.871
		c0.068,0,0.127,0,0.197,0c1.438-0.035,2.556-0.428,3.356-1.185c0.837-0.802,1.38-1.625,1.659-2.498
		c0.197-0.673,0.324-1.218,0.372-1.636c0.022-0.127,0.022-0.244,0.022-0.347h-0.022L112.551,26.69L112.551,26.69z M106.513,19.467
		c0.396-1.093,0.939-1.779,1.637-2.08c0.244-0.115,0.521-0.175,0.812-0.186c0.73,0,1.196,0.292,1.417,0.871
		c0.209,0.569,0.313,1.29,0.313,2.127c0,0.743-0.197,1.392-0.569,1.963c-0.372,0.557-0.904,0.904-1.58,1.043l-0.394,0.058
		l-2.487,0.36c0-0.01,0-0.022-0.011-0.058c-0.012-0.034-0.021-0.058-0.047-0.104C105.662,22.265,105.954,20.942,106.513,19.467
		L106.513,19.467z"/>
	<path fill="#D71920" d="M121.667,27.398c0,1.093-0.23,1.964-0.709,2.614c-0.463,0.651-1.078,0.998-1.834,1.068
		c-0.012,0-0.021,0.012-0.046,0.012c-0.024,0.01-0.058,0.022-0.093,0.058c-0.486-0.024-0.848-0.186-1.068-0.487
		c-0.221-0.314-0.359-0.722-0.406-1.208c-0.048-0.5-0.08-1.233-0.08-2.185c0.127-6.05,0.231-9.139,0.288-9.28l3.729,0.036
		l0.058-1.335l-3.448,0.058l0.383-3.752l-2.485,0.595l-0.187,3.158l-2.229-0.058h-0.022v1.394h0.022l2.09-0.094
		c-0.371,4.704-0.592,8.189-0.638,10.418c0.021,0.361,0.046,0.884,0.07,1.569c0.021,0.686,0.045,1.207,0.057,1.566
		c0.21,0.152,0.594,0.326,1.126,0.546c0.548,0.222,1.162,0.337,1.883,0.337c0.882,0,1.661-0.21,2.335-0.628
		c0.674-0.417,1.196-0.998,1.566-1.764c0.175-0.372,0.314-0.769,0.406-1.186c0.105-0.453,0.152-0.929,0.152-1.452h-0.152H121.667
		L121.667,27.398z"/>
</g>
</svg>
