<?xml version="1.0" encoding="utf-8"?>
<!-- Generator: Adobe Illustrator 16.0.0, SVG Export Plug-In . SVG Version: 6.00 Build 0)  -->
<!DOCTYPE svg PUBLIC "-//W3C//DTD SVG 1.1//EN" "http://www.w3.org/Graphics/SVG/1.1/DTD/svg11.dtd">
<svg version="1.1" id="Layer_1" xmlns="http://www.w3.org/2000/svg" xmlns:xlink="http://www.w3.org/1999/xlink" x="0px" y="0px"
	 width="140.703px" height="46.3px" viewBox="329.648 276.85 140.703 46.3" enable-background="new 329.648 276.85 140.703 46.3"
	 xml:space="preserve">
<g>
	<path fill="#E31B23" d="M434.471,316.881h0.392v-0.154h0.236v-0.08l0.155-0.153v-0.313h-0.155v-0.156h-0.079l-0.157-0.158h-0.938
		v1.018h0.547 M433.923,318.527h-0.472v-2.978c0.602,0,1.203,0,1.803,0v0.078h0.234v0.156h0.079v0.235h0.154
		c0,0.207,0,0.416,0,0.625l-0.154,0.08v0.154h-0.079v0.08h-0.155v0.156h-0.234l-0.079,0.078h-0.157l0.86,1.332h-0.469l-0.783-1.332
		h-0.548V318.527L433.923,318.527z M434.471,319.154h0.628l0.155-0.078h0.079l0.155-0.156h0.079l0.233-0.234h0.158v-0.158h0.156
		v-0.077l0.079-0.158l0.154-0.076v-0.157l0.079-0.078v-0.156l0.155-0.078c0-0.34,0-0.68,0-1.018v-0.314l-0.155-0.156v-0.234
		l-0.079-0.157l-0.154-0.078v-0.156h-0.079v-0.077l-0.156-0.156l-0.158-0.078h-0.079v-0.158h-0.154l-0.079-0.076h-0.155
		l-0.079-0.158h-0.393v-0.078h-0.471c-0.456-0.035-0.168,0.113-0.627,0.078l-0.077,0.158h-0.235v0.076h-0.156l-0.234,0.236h-0.157
		v0.156l-0.234,0.233v0.078h-0.076v0.157l-0.158,0.156v0.314h-0.078c0,0.287,0,0.572,0,0.861v0.155l0.078,0.078v0.234l0.158,0.155
		v0.078l0.076,0.158v0.076h0.158v0.158l0.233,0.236h0.079v0.078h0.155l0.156,0.155l0.079,0.156h0.233v0.077
		C434.002,319.154,434.236,319.154,434.471,319.154z M431.806,316.961v-0.549l0.158-0.156v-0.234l0.156-0.158v-0.077l0.078-0.156
		l0.155-0.078v-0.155l0.473-0.472h0.076l0.157-0.077l0.079-0.158h0.155l0.156-0.154h0.079l0.156-0.08c0.235,0,0.471,0,0.704,0h0.471
		c0.749-0.035,0.206,0.104,0.627,0.08l0.079,0.154h0.154l0.079,0.158h0.158l0.156,0.077h0.079v0.158l0.154,0.076h0.079l0.155,0.157
		v0.078l0.079,0.156l0.155,0.078v0.156l0.079,0.078v0.313l0.157,0.078c-0.016,0.437,0.128,0.25,0.076,0.938v0.314l-0.076,0.078
		v0.234l-0.157,0.156v0.235l-0.079,0.076v0.157l-0.155,0.078h-0.079v0.158l-0.155,0.078l-0.079,0.156h-0.154v0.156l-0.079,0.078
		h-0.156l-0.158,0.158h-0.079l-0.154,0.077h-0.079l-0.155,0.156h-0.234l-0.079,0.078c-0.209,0-0.419,0-0.628,0
		c-0.774,0.043-0.375-0.107-0.86-0.078l-0.079-0.156h-0.156l-0.155-0.077h-0.079v-0.158h-0.157l-0.234-0.234h-0.076v-0.156
		l-0.158-0.078l-0.078-0.158l-0.156-0.078l-0.078-0.157v-0.076l-0.156-0.158v-0.233l-0.158-0.078
		C431.806,317.484,431.806,317.223,431.806,316.961z"/>
	<polyline fill="#E31B23" points="400.001,323.15 470.352,300.039 400.001,276.85 329.648,300.039 400.001,323.15 	"/>
	<path fill="#FFFFFF" d="M371.092,305.602c2.128-0.174,4.245,0.156,6.347-0.078h0.313l0.312-0.155l0.235-0.078l0.393-0.158h0.233
		l0.236-0.075l0.234-0.236l0.469-0.314l0.235-0.078l0.313-0.234l0.078-0.157l0.233-0.234l0.157-0.233l0.235-0.078
		c0.088-0.48,0.618-1.23,0.86-1.723v-0.236l0.079-0.234v-0.863l0.156-0.234v-0.392l-0.156-0.234v-0.863l-0.079-0.234v-0.234
		l-0.156-0.236v-0.234l-0.078-0.234l-0.313-0.471l-0.078-0.234l-0.155-0.157l-0.078-0.235l-0.235-0.078l-0.157-0.313l-0.233-0.077
		l-0.393-0.393l-0.235-0.078l-0.312-0.157l-0.235-0.077l-0.234-0.158c-2.527-0.905-5.274-0.158-7.991-0.469V305.602
		 M366.549,291.814v-0.236h-0.079V291.5h-0.157v-0.156c-0.584,0.029,0.106-0.111-0.704-0.078v-0.471h11.359l0.784,0.078h0.469
		l0.549,0.157h0.628l0.469,0.079l0.628,0.234l0.471,0.156c1.152,0.46,2.284,1.138,3.133,2.037c1.725,1.498,2.834,4.437,2.82,6.659
		c-0.06,2.655-1.01,4.276-2.664,6.267c-1.444,1.188-1.581,1.313-3.289,2.195l-0.471,0.075l-0.628,0.312l-0.469,0.08l-0.472,0.156
		l-0.626,0.078h-0.471l-0.626,0.158h-11.596v-0.474h0.471l0.157-0.153h0.076l0.236-0.234L366.549,291.814L366.549,291.814z"/>
	<path fill="#FFFFFF" d="M395.143,301.527l0.157,0.236v0.704l0.078,0.234v0.233l0.156,0.234l0.079,0.158l0.156,0.234l0.077,0.233
		l0.157,0.158l0.079,0.233l0.155,0.078l0.156,0.234l0.235,0.158l0.078,0.156c0.568,0.354,1.063,0.547,1.566,0.938h0.234l0.235,0.078
		h0.549l0.234,0.155h1.411l0.233-0.155h0.548l0.235-0.078h0.234c0.505-0.394,1-0.584,1.567-0.938l0.076-0.156l0.235-0.158
		l0.156-0.234l0.156-0.078l0.079-0.233l0.158-0.158l0.076-0.233l0.157-0.234l0.076-0.158l0.158-0.234v-0.233l0.079-0.234v-0.704
		l0.155-0.236l-0.155-0.391v-0.708l-0.079-0.156v-0.235l-0.158-0.234l-0.076-0.234l-0.157-0.236l-0.076-0.078l-0.158-0.312
		l-0.079-0.079l-0.156-0.235l-0.156-0.156l-0.235-0.078l-0.076-0.235l-0.158-0.157l-0.233-0.077l-0.234-0.157l-0.079-0.078
		l-0.313-0.156l-0.234-0.157l-0.079-0.079h-0.233l-0.234-0.156h-0.235l-0.312-0.078c-1.104,0.054-0.071-0.21-1.175-0.156h-0.472
		l-0.233,0.156h-0.472l-0.312,0.078h-0.235l-0.234,0.156h-0.234l-0.079,0.079l-0.233,0.157l-0.313,0.156
		c-0.404,0.459-0.642,0.082-0.783,0.705l-0.235,0.078l-0.156,0.156l-0.155,0.235l-0.079,0.079l-0.157,0.312l-0.077,0.078
		l-0.156,0.236C395.061,300.602,395.511,300.771,395.143,301.527 M409.793,301.527c-0.025,10.793-19.03,10.865-19.116,0
		C390.612,290.542,409.915,290.613,409.793,301.527z"/>
	<path fill="#FFFFFF" d="M434.471,308.658v0.076h0.156v0.158l0.157,0.153h0.077v0.08h0.236v0.394h-6.188v-0.394h0.39v-0.08h0.158
		l0.077-0.153v-0.629l-0.077-0.312l-0.312-0.391c-0.867-2.802-1.924-5.543-2.899-8.306l-3.369,9.403v0.076h0.158v0.158h0.076v0.153
		h0.236l0.156,0.08h0.079v0.394h-6.269v-0.394h0.157l0.076-0.08h0.234v-0.153h0.158v-0.234l-5.248-14.181v-0.079l-0.079-0.156
		h-0.234l-0.158-0.078h-0.075v-0.392h6.029v0.392l-0.154,0.078h-0.237l-0.076,0.156l-0.158,0.079v0.157l2.899,9.165h0.156
		l3.134-9.557h4.938l3.289,9.557h0.156l2.899-9.165v-0.157h-0.158v-0.079h-0.077l-0.157-0.156h-0.391v-0.312h6.188v0.312h-0.312
		l-0.158,0.156h-0.156v0.079h-0.079L434.471,308.658"/>
</g>
</svg>
