<?xml version="1.0" encoding="utf-8"?>
<!-- Generator: Adobe Illustrator 16.0.0, SVG Export Plug-In . SVG Version: 6.00 Build 0)  -->
<!DOCTYPE svg PUBLIC "-//W3C//DTD SVG 1.1//EN" "http://www.w3.org/Graphics/SVG/1.1/DTD/svg11.dtd">
<svg version="1.1" id="Layer_1" xmlns="http://www.w3.org/2000/svg" xmlns:xlink="http://www.w3.org/1999/xlink" x="0px" y="0px"
	 width="182.508px" height="236.793px" viewBox="0 0 182.508 236.793" enable-background="new 0 0 182.508 236.793"
	 xml:space="preserve">
<g>
	<path fill="#0089CF" d="M0,223.152c0,3.672,1.128,6.82,3.383,9.449c2.366,2.795,5.349,4.191,8.945,4.191h13.977l1.119-0.559v-4.752
		l-0.56-0.42H11.769c-1.509,0-2.888-0.885-4.137-2.654c-1.174-1.641-1.761-3.215-1.761-4.725c0-1.975,0.568-3.736,1.705-5.283
		c1.286-1.715,2.87-2.572,4.752-2.572h6.933c0,0.168,0.009,0.346,0.028,0.531c0.019,0.168,0.028,0.279,0.028,0.336
		c0,0.205-0.093,0.475-0.279,0.811l-5.032,8.945v0.559h5.591c0.335,0,0.615-0.186,0.839-0.559l6.708-11.182
		c0.149-0.242,0.242-0.428,0.28-0.559v-4.473l-0.56-0.559H12.887c-3.597,0-6.663,1.369-9.196,4.107
		C1.23,216.453,0,219.574,0,223.152L0,223.152z"/>
	<path fill="#0089CF" d="M32.678,209.68h5.479l0.839,0.895v16.156c0,1.752,0.866,3.02,2.6,3.801c0.559,0.262,1.09,0.393,1.594,0.393
		h6.988c0.373,0.633,0.559,1.006,0.559,1.117v4.193l-0.559,0.559h-9.225c-2.087,0-3.904-0.615-5.451-1.844
		c-1.547-1.248-2.553-2.936-3.019-5.061c-0.317-1.434-0.475-2.768-0.475-3.996v-15.318L32.678,209.68L32.678,209.68z"/>
	<path fill="#0089CF" d="M55.292,223.152c0,3.672,1.127,6.82,3.382,9.449c2.367,2.795,5.349,4.191,8.945,4.191h13.977l1.118-0.559
		v-4.752l-0.559-0.42H67.06c-1.509,0-2.889-0.885-4.137-2.654c-1.174-1.641-1.761-3.215-1.761-4.725
		c0-1.975,0.568-3.736,1.705-5.283c1.286-1.715,2.87-2.572,4.752-2.572h6.933c0,0.168,0.01,0.346,0.028,0.531
		c0.018,0.168,0.027,0.279,0.027,0.336c0,0.205-0.093,0.475-0.279,0.811l-5.031,8.945v0.559h5.59c0.335,0,0.615-0.186,0.839-0.559
		l6.709-11.182c0.148-0.242,0.242-0.428,0.279-0.559v-4.473l-0.559-0.559H68.178c-3.596,0-6.662,1.369-9.196,4.107
		C56.521,216.453,55.292,219.574,55.292,223.152L55.292,223.152z"/>
	<path fill="#0089CF" d="M87.465,211.076l10.455,25.438c0.074,0.094,0.168,0.188,0.279,0.279h10.734
		c-0.055,0,3.551-8.488,10.818-25.465v-0.699c0-0.037,0.01-0.102,0.027-0.195c0.037-0.504-0.074-0.754-0.334-0.754h-6.43
		l-0.84,0.838l-7.826,18.143c-0.188,0.373-0.467,0.67-0.838,0.895c-0.205-0.113-0.42-0.215-0.645-0.309
		c-0.166-0.205-0.512-0.922-1.033-2.152c-0.299-0.709-1.324-3.215-3.074-7.52l-3.523-8.777c-0.074-0.223-0.242-0.457-0.504-0.699
		c-0.316-0.279-0.65-0.418-1.006-0.418h-5.87c-0.186,0-0.373,0.092-0.559,0.279v0.055c-0.019,0.037-0.028,0.066-0.028,0.084
		c0,0.074,0.028,0.215,0.083,0.42C87.41,210.723,87.446,210.908,87.465,211.076L87.465,211.076z"/>
	<path fill="#0089CF" d="M123.385,223.152c0,3.672,1.129,6.82,3.383,9.449c2.367,2.795,5.35,4.191,8.945,4.191h13.977l1.119-0.559
		v-4.752l-0.561-0.42h-15.094c-1.51,0-2.889-0.885-4.137-2.654c-1.176-1.641-1.762-3.215-1.762-4.725
		c0-1.975,0.568-3.736,1.705-5.283c1.285-1.715,2.869-2.572,4.752-2.572h6.932c0,0.168,0.01,0.346,0.029,0.531
		c0.018,0.168,0.027,0.279,0.027,0.336c0,0.205-0.094,0.475-0.279,0.811l-5.031,8.945v0.559h5.59c0.336,0,0.615-0.186,0.84-0.559
		l6.709-11.182c0.148-0.242,0.24-0.428,0.279-0.559v-4.473l-0.561-0.559h-13.977c-3.596,0-6.662,1.369-9.195,4.107
		C124.615,216.453,123.385,219.574,123.385,223.152L123.385,223.152z"/>
	<path fill="#0089CF" d="M155.393,236.094l0.559,0.699h5.311c0.057,0,0.262-0.148,0.615-0.447c0.242-0.205,0.363-0.381,0.363-0.531
		v-19.23c0-0.113,0.121-0.363,0.363-0.756c0.242-0.41,0.447-0.615,0.615-0.615h7.268c0.598,0,1.258,0.141,1.986,0.42
		c0.818,0.336,1.369,0.746,1.648,1.23c0.354,0.391,0.633,0.791,0.838,1.201c0.242,0.467,0.383,0.801,0.42,1.006v17.023l0.699,0.699
		h5.59l0.84-0.979v-15.652c0-3.561-1.426-6.383-4.277-8.471c-1.23-0.895-2.508-1.557-3.83-1.984h-19.008V236.094L155.393,236.094z"
		/>
	<g>
		<defs>
			<path id="SVGID_1_" d="M53.663,29.734c0-16.325,13.233-29.559,29.559-29.559h20.394c16.324,0,29.559,13.233,29.559,29.559V171.35
				c0,16.326-13.234,29.559-29.559,29.559H83.221c-16.325,0-29.559-13.232-29.559-29.559V29.734L53.663,29.734z"/>
		</defs>
		<clipPath id="SVGID_2_">
			<use xlink:href="#SVGID_1_"  overflow="visible"/>
		</clipPath>
		<rect x="53.661" clip-path="url(#SVGID_2_)" fill="#0089CF" width="79.44" height="0.96"/>
		<rect x="53.661" y="1.035" clip-path="url(#SVGID_2_)" fill="#008AD0" width="79.44" height="0.96"/>
		<rect x="53.661" y="2.07" clip-path="url(#SVGID_2_)" fill="#008AD0" width="79.44" height="0.96"/>
		<rect x="53.661" y="3.105" clip-path="url(#SVGID_2_)" fill="#008BD1" width="79.44" height="0.96"/>
		<rect x="53.661" y="4.14" clip-path="url(#SVGID_2_)" fill="#008BD1" width="79.44" height="0.96"/>
		<rect x="53.661" y="5.175" clip-path="url(#SVGID_2_)" fill="#008CD1" width="79.44" height="0.96"/>
		<rect x="53.661" y="6.209" clip-path="url(#SVGID_2_)" fill="#008CD2" width="79.44" height="0.96"/>
		<rect x="53.661" y="7.245" clip-path="url(#SVGID_2_)" fill="#008DD2" width="79.44" height="0.96"/>
		<rect x="53.661" y="8.279" clip-path="url(#SVGID_2_)" fill="#008DD3" width="79.44" height="0.96"/>
		<rect x="53.661" y="9.314" clip-path="url(#SVGID_2_)" fill="#008DD3" width="79.44" height="0.96"/>
		<rect x="53.661" y="10.349" clip-path="url(#SVGID_2_)" fill="#008ED3" width="79.44" height="0.96"/>
		<rect x="53.661" y="11.384" clip-path="url(#SVGID_2_)" fill="#008ED4" width="79.44" height="0.96"/>
		<rect x="53.661" y="12.419" clip-path="url(#SVGID_2_)" fill="#008FD4" width="79.44" height="0.96"/>
		<rect x="53.661" y="13.454" clip-path="url(#SVGID_2_)" fill="#008FD5" width="79.44" height="0.96"/>
		<rect x="53.661" y="14.489" clip-path="url(#SVGID_2_)" fill="#0090D5" width="79.44" height="0.96"/>
		<rect x="53.661" y="15.524" clip-path="url(#SVGID_2_)" fill="#0090D5" width="79.44" height="0.96"/>
		<rect x="53.661" y="16.559" clip-path="url(#SVGID_2_)" fill="#0091D6" width="79.44" height="0.96"/>
		<rect x="53.661" y="17.594" clip-path="url(#SVGID_2_)" fill="#0091D6" width="79.44" height="0.96"/>
		<rect x="53.661" y="18.628" clip-path="url(#SVGID_2_)" fill="#0092D7" width="79.44" height="0.96"/>
		<rect x="53.661" y="19.664" clip-path="url(#SVGID_2_)" fill="#0092D7" width="79.44" height="0.96"/>
		<rect x="53.661" y="20.698" clip-path="url(#SVGID_2_)" fill="#0093D7" width="79.44" height="0.96"/>
		<rect x="53.661" y="21.733" clip-path="url(#SVGID_2_)" fill="#0093D8" width="79.44" height="0.96"/>
		<rect x="53.661" y="22.768" clip-path="url(#SVGID_2_)" fill="#0094D8" width="79.44" height="0.96"/>
		<rect x="53.661" y="23.803" clip-path="url(#SVGID_2_)" fill="#0094D9" width="79.44" height="0.96"/>
		<rect x="53.661" y="24.838" clip-path="url(#SVGID_2_)" fill="#0094D9" width="79.44" height="0.96"/>
		<rect x="53.661" y="25.873" clip-path="url(#SVGID_2_)" fill="#0095DA" width="79.44" height="0.96"/>
		<rect x="53.661" y="26.908" clip-path="url(#SVGID_2_)" fill="#0095DA" width="79.44" height="0.96"/>
		<rect x="53.661" y="27.943" clip-path="url(#SVGID_2_)" fill="#0096DA" width="79.44" height="0.96"/>
		<rect x="53.661" y="28.978" clip-path="url(#SVGID_2_)" fill="#0096DB" width="79.44" height="0.96"/>
		<rect x="53.661" y="30.013" clip-path="url(#SVGID_2_)" fill="#0097DB" width="79.44" height="0.96"/>
		<rect x="53.661" y="31.047" clip-path="url(#SVGID_2_)" fill="#0097DB" width="79.44" height="0.96"/>
		<rect x="53.661" y="32.083" clip-path="url(#SVGID_2_)" fill="#0098DC" width="79.44" height="0.96"/>
		<rect x="53.661" y="33.117" clip-path="url(#SVGID_2_)" fill="#0098DC" width="79.44" height="0.96"/>
		<rect x="53.661" y="34.152" clip-path="url(#SVGID_2_)" fill="#0099DD" width="79.44" height="0.96"/>
		<rect x="53.661" y="35.187" clip-path="url(#SVGID_2_)" fill="#0099DD" width="79.44" height="0.96"/>
		<rect x="53.661" y="36.222" clip-path="url(#SVGID_2_)" fill="#0099DD" width="79.44" height="0.96"/>
		<rect x="53.661" y="37.257" clip-path="url(#SVGID_2_)" fill="#009ADE" width="79.44" height="0.96"/>
		<rect x="53.661" y="38.292" clip-path="url(#SVGID_2_)" fill="#009ADE" width="79.44" height="0.96"/>
		<rect x="53.661" y="39.327" clip-path="url(#SVGID_2_)" fill="#009BDF" width="79.44" height="0.96"/>
		<rect x="53.661" y="40.362" clip-path="url(#SVGID_2_)" fill="#009BDF" width="79.44" height="0.96"/>
		<rect x="53.661" y="41.396" clip-path="url(#SVGID_2_)" fill="#009CDF" width="79.44" height="0.96"/>
		<rect x="53.661" y="42.432" clip-path="url(#SVGID_2_)" fill="#009CE0" width="79.44" height="0.96"/>
		<rect x="53.661" y="43.466" clip-path="url(#SVGID_2_)" fill="#009DE0" width="79.44" height="0.96"/>
		<rect x="53.661" y="44.501" clip-path="url(#SVGID_2_)" fill="#009DE1" width="79.44" height="0.96"/>
		<rect x="53.661" y="45.536" clip-path="url(#SVGID_2_)" fill="#009EE1" width="79.44" height="0.96"/>
		<rect x="53.661" y="46.571" clip-path="url(#SVGID_2_)" fill="#009EE1" width="79.44" height="0.96"/>
		<rect x="53.661" y="47.606" clip-path="url(#SVGID_2_)" fill="#009EE2" width="79.44" height="0.96"/>
		<rect x="53.661" y="48.641" clip-path="url(#SVGID_2_)" fill="#009FE2" width="79.44" height="0.96"/>
		<rect x="53.661" y="49.676" clip-path="url(#SVGID_2_)" fill="#009FE3" width="79.44" height="0.96"/>
		<rect x="53.661" y="50.711" clip-path="url(#SVGID_2_)" fill="#00A0E3" width="79.44" height="0.96"/>
		<rect x="53.661" y="51.746" clip-path="url(#SVGID_2_)" fill="#00A0E3" width="79.44" height="0.96"/>
		<rect x="53.661" y="52.781" clip-path="url(#SVGID_2_)" fill="#00A1E4" width="79.44" height="0.96"/>
		<rect x="53.661" y="53.815" clip-path="url(#SVGID_2_)" fill="#00A1E4" width="79.44" height="0.96"/>
		<rect x="53.661" y="54.851" clip-path="url(#SVGID_2_)" fill="#00A2E5" width="79.44" height="0.96"/>
		<rect x="53.661" y="55.885" clip-path="url(#SVGID_2_)" fill="#00A2E5" width="79.44" height="0.96"/>
		<rect x="53.661" y="56.92" clip-path="url(#SVGID_2_)" fill="#00A3E5" width="79.44" height="0.96"/>
		<rect x="53.661" y="57.955" clip-path="url(#SVGID_2_)" fill="#00A3E6" width="79.44" height="0.96"/>
		<rect x="53.661" y="58.99" clip-path="url(#SVGID_2_)" fill="#00A3E6" width="79.44" height="0.96"/>
		<rect x="53.661" y="60.025" clip-path="url(#SVGID_2_)" fill="#00A4E7" width="79.44" height="0.96"/>
		<rect x="53.661" y="61.06" clip-path="url(#SVGID_2_)" fill="#00A4E7" width="79.44" height="0.96"/>
		<rect x="53.661" y="62.095" clip-path="url(#SVGID_2_)" fill="#00A5E7" width="79.44" height="0.96"/>
		<rect x="53.661" y="63.13" clip-path="url(#SVGID_2_)" fill="#00A5E8" width="79.44" height="0.96"/>
		<rect x="53.661" y="64.165" clip-path="url(#SVGID_2_)" fill="#00A6E8" width="79.44" height="0.96"/>
		<rect x="53.661" y="65.2" clip-path="url(#SVGID_2_)" fill="#00A6E9" width="79.44" height="0.96"/>
		<rect x="53.661" y="66.234" clip-path="url(#SVGID_2_)" fill="#00A7E9" width="79.44" height="0.96"/>
		<rect x="53.661" y="67.27" clip-path="url(#SVGID_2_)" fill="#00A7E9" width="79.44" height="0.96"/>
		<rect x="53.661" y="68.304" clip-path="url(#SVGID_2_)" fill="#00A8EA" width="79.44" height="0.96"/>
		<rect x="53.661" y="69.339" clip-path="url(#SVGID_2_)" fill="#00A8EA" width="79.44" height="0.96"/>
		<rect x="53.661" y="70.374" clip-path="url(#SVGID_2_)" fill="#00A8EB" width="79.44" height="0.96"/>
		<rect x="53.661" y="71.409" clip-path="url(#SVGID_2_)" fill="#00A9EB" width="79.44" height="0.96"/>
		<rect x="53.661" y="72.444" clip-path="url(#SVGID_2_)" fill="#00AAEC" width="79.44" height="0.96"/>
		<rect x="53.661" y="73.479" clip-path="url(#SVGID_2_)" fill="#00AAEC" width="79.44" height="0.96"/>
		<rect x="53.661" y="74.514" clip-path="url(#SVGID_2_)" fill="#00ABED" width="79.44" height="0.96"/>
		<rect x="53.661" y="75.549" clip-path="url(#SVGID_2_)" fill="#00ABED" width="79.44" height="0.96"/>
		<rect x="53.661" y="76.583" clip-path="url(#SVGID_2_)" fill="#00ACEE" width="79.44" height="0.96"/>
		<rect x="53.661" y="77.619" clip-path="url(#SVGID_2_)" fill="#00ADEE" width="79.44" height="0.96"/>
		<rect x="53.661" y="78.653" clip-path="url(#SVGID_2_)" fill="#00AEEF" width="79.44" height="0.96"/>
		<rect x="53.661" y="79.151" clip-path="url(#SVGID_2_)" fill="#00AEEF" width="79.44" height="1.2"/>
		<rect x="53.661" y="80.387" clip-path="url(#SVGID_2_)" fill="#00AEEF" width="79.44" height="1.2"/>
		<rect x="53.661" y="81.624" clip-path="url(#SVGID_2_)" fill="#00AEEF" width="79.44" height="1.2"/>
		<rect x="53.661" y="82.86" clip-path="url(#SVGID_2_)" fill="#00AEEF" width="79.44" height="1.2"/>
		<rect x="53.661" y="84.096" clip-path="url(#SVGID_2_)" fill="#00AEEF" width="79.44" height="1.2"/>
		<rect x="53.661" y="85.332" clip-path="url(#SVGID_2_)" fill="#00AFEF" width="79.44" height="1.2"/>
		<rect x="53.661" y="86.568" clip-path="url(#SVGID_2_)" fill="#00AFEF" width="79.44" height="1.2"/>
		<rect x="53.661" y="87.804" clip-path="url(#SVGID_2_)" fill="#00AFEF" width="79.44" height="1.2"/>
		<rect x="53.661" y="89.04" clip-path="url(#SVGID_2_)" fill="#00AFF0" width="79.44" height="1.2"/>
		<rect x="53.661" y="90.276" clip-path="url(#SVGID_2_)" fill="#00AFF0" width="79.44" height="1.2"/>
		<rect x="53.661" y="91.512" clip-path="url(#SVGID_2_)" fill="#00B0F0" width="79.44" height="1.2"/>
		<rect x="53.661" y="92.748" clip-path="url(#SVGID_2_)" fill="#00B0F0" width="79.44" height="1.2"/>
		<rect x="53.661" y="93.984" clip-path="url(#SVGID_2_)" fill="#00B0F0" width="79.44" height="1.2"/>
		<rect x="53.661" y="95.22" clip-path="url(#SVGID_2_)" fill="#00B0F0" width="79.44" height="1.2"/>
		<rect x="53.661" y="96.457" clip-path="url(#SVGID_2_)" fill="#00B1F0" width="79.44" height="1.2"/>
		<rect x="53.661" y="97.692" clip-path="url(#SVGID_2_)" fill="#00B1F0" width="79.44" height="1.2"/>
		<rect x="53.661" y="98.929" clip-path="url(#SVGID_2_)" fill="#00B1F0" width="79.44" height="1.2"/>
		<rect x="53.661" y="100.165" clip-path="url(#SVGID_2_)" fill="#00B1F0" width="79.44" height="1.2"/>
		<rect x="53.661" y="101.401" clip-path="url(#SVGID_2_)" fill="#00B1F0" width="79.44" height="1.2"/>
		<rect x="53.661" y="102.637" clip-path="url(#SVGID_2_)" fill="#00B2F0" width="79.44" height="1.2"/>
		<rect x="53.661" y="103.873" clip-path="url(#SVGID_2_)" fill="#00B2F0" width="79.44" height="1.2"/>
		<rect x="53.661" y="105.109" clip-path="url(#SVGID_2_)" fill="#00B2F0" width="79.44" height="1.2"/>
		<rect x="53.661" y="106.345" clip-path="url(#SVGID_2_)" fill="#00B2F0" width="79.44" height="1.2"/>
		<rect x="53.661" y="107.581" clip-path="url(#SVGID_2_)" fill="#00B3F0" width="79.44" height="1.2"/>
		<rect x="53.661" y="108.817" clip-path="url(#SVGID_2_)" fill="#00B3F0" width="79.44" height="1.2"/>
		<rect x="53.661" y="110.053" clip-path="url(#SVGID_2_)" fill="#00B3F0" width="79.44" height="1.2"/>
		<rect x="53.661" y="111.29" clip-path="url(#SVGID_2_)" fill="#00B3F0" width="79.44" height="1.2"/>
		<rect x="53.661" y="112.526" clip-path="url(#SVGID_2_)" fill="#00B3F0" width="79.44" height="1.2"/>
		<rect x="53.661" y="113.762" clip-path="url(#SVGID_2_)" fill="#00B4F0" width="79.44" height="1.2"/>
		<rect x="53.661" y="114.998" clip-path="url(#SVGID_2_)" fill="#00B4F0" width="79.44" height="1.2"/>
		<rect x="53.661" y="116.234" clip-path="url(#SVGID_2_)" fill="#00B4F1" width="79.44" height="1.2"/>
		<rect x="53.661" y="117.47" clip-path="url(#SVGID_2_)" fill="#00B4F1" width="79.44" height="1.2"/>
		<rect x="53.661" y="118.707" clip-path="url(#SVGID_2_)" fill="#00B5F1" width="79.44" height="1.199"/>
		<rect x="53.661" y="119.941" clip-path="url(#SVGID_2_)" fill="#00B5F1" width="79.44" height="1.201"/>
		<rect x="53.661" y="121.178" clip-path="url(#SVGID_2_)" fill="#00B5F1" width="79.44" height="1.201"/>
		<rect x="53.661" y="122.414" clip-path="url(#SVGID_2_)" fill="#00B5F1" width="79.44" height="1.199"/>
		<rect x="53.661" y="123.65" clip-path="url(#SVGID_2_)" fill="#00B6F1" width="79.44" height="1.199"/>
		<rect x="53.661" y="124.887" clip-path="url(#SVGID_2_)" fill="#00B6F1" width="79.44" height="1.199"/>
		<rect x="53.661" y="126.123" clip-path="url(#SVGID_2_)" fill="#00B6F1" width="79.44" height="1.199"/>
		<rect x="53.661" y="127.359" clip-path="url(#SVGID_2_)" fill="#00B6F1" width="79.44" height="1.199"/>
		<rect x="53.661" y="128.594" clip-path="url(#SVGID_2_)" fill="#00B7F1" width="79.44" height="1.201"/>
		<rect x="53.661" y="129.83" clip-path="url(#SVGID_2_)" fill="#00B7F1" width="79.44" height="1.201"/>
		<rect x="53.661" y="131.066" clip-path="url(#SVGID_2_)" fill="#00B7F1" width="79.44" height="1.201"/>
		<rect x="53.661" y="132.303" clip-path="url(#SVGID_2_)" fill="#00B7F1" width="79.44" height="1.199"/>
		<rect x="53.661" y="133.539" clip-path="url(#SVGID_2_)" fill="#00B8F1" width="79.44" height="1.199"/>
		<rect x="53.661" y="134.775" clip-path="url(#SVGID_2_)" fill="#00B8F1" width="79.44" height="1.199"/>
		<rect x="53.661" y="136.012" clip-path="url(#SVGID_2_)" fill="#00B8F1" width="79.44" height="1.199"/>
		<rect x="53.661" y="137.248" clip-path="url(#SVGID_2_)" fill="#00B8F1" width="79.44" height="1.199"/>
		<rect x="53.661" y="138.482" clip-path="url(#SVGID_2_)" fill="#00B9F1" width="79.44" height="1.201"/>
		<rect x="53.661" y="139.719" clip-path="url(#SVGID_2_)" fill="#00B9F1" width="79.44" height="1.201"/>
		<rect x="53.661" y="140.955" clip-path="url(#SVGID_2_)" fill="#00B9F2" width="79.44" height="1.201"/>
		<rect x="53.661" y="142.191" clip-path="url(#SVGID_2_)" fill="#00B9F2" width="79.44" height="1.201"/>
		<rect x="53.661" y="143.428" clip-path="url(#SVGID_2_)" fill="#00BAF2" width="79.44" height="1.199"/>
		<rect x="53.661" y="144.664" clip-path="url(#SVGID_2_)" fill="#00BAF2" width="79.44" height="1.199"/>
		<rect x="53.661" y="145.9" clip-path="url(#SVGID_2_)" fill="#00BAF2" width="79.44" height="1.199"/>
		<rect x="53.661" y="147.137" clip-path="url(#SVGID_2_)" fill="#00BAF2" width="79.44" height="1.199"/>
		<rect x="53.661" y="148.373" clip-path="url(#SVGID_2_)" fill="#00BBF2" width="79.44" height="1.199"/>
		<rect x="53.661" y="149.607" clip-path="url(#SVGID_2_)" fill="#00BBF2" width="79.44" height="1.201"/>
		<rect x="53.661" y="150.844" clip-path="url(#SVGID_2_)" fill="#00BBF2" width="79.44" height="1.201"/>
		<rect x="53.661" y="152.08" clip-path="url(#SVGID_2_)" fill="#00BCF2" width="79.44" height="1.199"/>
		<rect x="53.661" y="153.316" clip-path="url(#SVGID_2_)" fill="#00BCF2" width="79.44" height="1.199"/>
		<rect x="53.661" y="154.553" clip-path="url(#SVGID_2_)" fill="#00BCF2" width="79.44" height="1.199"/>
		<rect x="53.661" y="155.789" clip-path="url(#SVGID_2_)" fill="#00BCF2" width="79.44" height="1.199"/>
		<rect x="53.661" y="157.025" clip-path="url(#SVGID_2_)" fill="#00BDF2" width="79.44" height="1.199"/>
		<rect x="53.661" y="158.26" clip-path="url(#SVGID_2_)" fill="#00BDF2" width="79.44" height="1.201"/>
		<rect x="53.661" y="159.496" clip-path="url(#SVGID_2_)" fill="#00BDF2" width="79.44" height="1.201"/>
		<rect x="53.661" y="160.732" clip-path="url(#SVGID_2_)" fill="#00BDF2" width="79.44" height="1.201"/>
		<rect x="53.661" y="161.488" clip-path="url(#SVGID_2_)" fill="#00BDF2" width="79.44" height="0.961"/>
		<rect x="53.661" y="162.502" clip-path="url(#SVGID_2_)" fill="#00BEF3" width="79.44" height="0.961"/>
		<rect x="53.661" y="163.516" clip-path="url(#SVGID_2_)" fill="#00BFF3" width="79.44" height="0.961"/>
		<rect x="53.661" y="164.529" clip-path="url(#SVGID_2_)" fill="#00C0F3" width="79.44" height="0.961"/>
		<rect x="53.661" y="165.543" clip-path="url(#SVGID_2_)" fill="#00C1F3" width="79.44" height="0.961"/>
		<rect x="53.661" y="166.557" clip-path="url(#SVGID_2_)" fill="#00C1F3" width="79.44" height="0.961"/>
		<rect x="53.661" y="167.57" clip-path="url(#SVGID_2_)" fill="#00C2F3" width="79.44" height="0.961"/>
		<rect x="53.661" y="168.584" clip-path="url(#SVGID_2_)" fill="#14C3F4" width="79.44" height="0.961"/>
		<rect x="53.661" y="169.598" clip-path="url(#SVGID_2_)" fill="#23C4F4" width="79.44" height="0.961"/>
		<rect x="53.661" y="170.611" clip-path="url(#SVGID_2_)" fill="#2DC5F4" width="79.44" height="0.961"/>
		<rect x="53.661" y="171.625" clip-path="url(#SVGID_2_)" fill="#35C6F4" width="79.44" height="0.961"/>
		<rect x="53.661" y="172.639" clip-path="url(#SVGID_2_)" fill="#3DC7F4" width="79.44" height="0.961"/>
		<rect x="53.661" y="173.652" clip-path="url(#SVGID_2_)" fill="#43C7F4" width="79.44" height="0.961"/>
		<rect x="53.661" y="174.666" clip-path="url(#SVGID_2_)" fill="#49C8F5" width="79.44" height="0.961"/>
		<rect x="53.661" y="175.68" clip-path="url(#SVGID_2_)" fill="#4EC9F5" width="79.44" height="0.961"/>
		<rect x="53.661" y="176.693" clip-path="url(#SVGID_2_)" fill="#54CAF5" width="79.44" height="0.961"/>
		<rect x="53.661" y="177.707" clip-path="url(#SVGID_2_)" fill="#59CBF5" width="79.44" height="0.961"/>
		<rect x="53.661" y="178.721" clip-path="url(#SVGID_2_)" fill="#5DCCF5" width="79.44" height="0.961"/>
		<rect x="53.661" y="179.734" clip-path="url(#SVGID_2_)" fill="#62CDF6" width="79.44" height="0.961"/>
		<rect x="53.661" y="180.748" clip-path="url(#SVGID_2_)" fill="#66CEF6" width="79.44" height="0.961"/>
		<rect x="53.661" y="181.762" clip-path="url(#SVGID_2_)" fill="#6ACFF6" width="79.44" height="0.961"/>
		<rect x="53.661" y="182.775" clip-path="url(#SVGID_2_)" fill="#6ED0F6" width="79.44" height="0.961"/>
		<rect x="53.661" y="183.789" clip-path="url(#SVGID_2_)" fill="#72D0F6" width="79.44" height="0.961"/>
		<rect x="53.661" y="184.803" clip-path="url(#SVGID_2_)" fill="#76D1F7" width="79.44" height="0.961"/>
		<rect x="53.661" y="185.816" clip-path="url(#SVGID_2_)" fill="#7AD2F7" width="79.44" height="0.961"/>
		<rect x="53.661" y="186.83" clip-path="url(#SVGID_2_)" fill="#7ED3F7" width="79.44" height="0.961"/>
		<rect x="53.661" y="187.844" clip-path="url(#SVGID_2_)" fill="#81D4F7" width="79.44" height="0.961"/>
		<rect x="53.661" y="188.195" clip-path="url(#SVGID_2_)" fill="#81D4F7" width="79.44" height="12.959"/>
	</g>
	<path fill="#FFFFFF" d="M63.782,182.709h59.144c0.432,0,0.887-0.217,1.361-0.648c0.432-0.432,0.648-0.863,0.648-1.297v-12.969
		c-0.217-0.346-0.453-0.562-0.713-0.65c-0.994-0.432-1.643-0.648-1.945-0.648H64.43c-0.519,0-1.06,0.305-1.621,0.908
		c-0.606,0.605-0.908,1.168-0.908,1.688v11.672L63.782,182.709L63.782,182.709z"/>
	<path fill-rule="evenodd" clip-rule="evenodd" fill="#FFFFFF" d="M93.936,91.66h-1.295c-7.912,0-14.895,2.378-20.947,7.134
		c-6.485,5.144-9.728,11.629-9.728,19.455v11.024c0,7.824,3.308,14.311,9.922,19.455c6.096,4.756,13.013,7.133,20.753,7.133h1.295
		c7.74,0,14.658-2.377,20.754-7.133c6.83-5.318,10.246-11.803,10.246-19.455v-11.024c0-7.652-3.416-14.138-10.246-19.455
		C108.594,94.039,101.676,91.66,93.936,91.66L93.936,91.66z M74.353,120.844c0.216-0.953,0.648-2.465,1.297-4.54
		c0.562-1.427,0.952-2.356,1.167-2.789c0.605-1.125,1.361-2.161,2.27-3.113c3.069-3.025,7.155-4.539,12.257-4.539h3.891
		c5.059,0,9.1,1.514,12.127,4.539c1.557,1.557,2.746,3.351,3.566,5.384c0.389,0.951,0.734,2.313,1.037,4.086
		c0.131,0.561,0.195,0.887,0.195,0.973v5.836c-0.086,0.432-0.26,1.361-0.52,2.789c-0.26,1.555-0.908,3.178-1.945,4.863
		c-1.383,2.248-3.328,4.043-5.836,5.383c-2.508,1.297-5.383,1.945-8.625,1.945h-3.891c-3.243,0-6.139-0.67-8.69-2.012
		c-2.595-1.34-4.562-3.199-5.902-5.576c-0.821-1.471-1.471-3.004-1.945-4.604c-0.302-1.039-0.454-1.969-0.454-2.789V120.844
		L74.353,120.844z"/>
	<polygon fill="#FFFFFF" points="113.004,60.792 98.541,60.792 98.477,52.427 86.155,52.427 86.091,60.792 70.785,60.792 
		70.785,73.114 86.091,73.114 86.155,81.804 98.477,81.804 98.541,73.114 113.004,73.114 113.004,60.792 	"/>
	<path fill="#FFFFFF" d="M63.782,41.727h59.144c0.432,0,0.887-0.216,1.361-0.648c0.432-0.432,0.648-0.864,0.648-1.297V26.812
		c-0.217-0.346-0.453-0.562-0.713-0.649c-0.994-0.433-1.643-0.649-1.945-0.649H64.43c-0.519,0-1.06,0.304-1.621,0.908
		c-0.606,0.606-0.908,1.167-0.908,1.687v11.673L63.782,41.727L63.782,41.727z"/>
	<path fill="#FFFFFF" d="M84.27,122.092c0.095-0.416,0.285-1.08,0.569-1.99c0.247-0.625,0.417-1.033,0.512-1.223
		c0.265-0.493,0.597-0.948,0.995-1.365c1.346-1.327,3.137-1.99,5.374-1.99h1.708c2.217,0,3.99,0.664,5.316,1.99
		c0.684,0.683,1.203,1.469,1.564,2.361c0.17,0.416,0.322,1.014,0.455,1.791c0.057,0.246,0.084,0.389,0.084,0.426v2.561
		c-0.037,0.189-0.113,0.596-0.227,1.223c-0.113,0.682-0.398,1.393-0.854,2.131c-0.605,0.986-1.459,1.773-2.559,2.361
		c-1.1,0.568-2.361,0.854-3.781,0.854H91.72c-1.422,0-2.691-0.295-3.81-0.883c-1.138-0.586-2-1.402-2.588-2.445
		c-0.36-0.645-0.645-1.316-0.853-2.018c-0.132-0.455-0.199-0.863-0.199-1.223V122.092L84.27,122.092z"/>
	<path fill-rule="evenodd" clip-rule="evenodd" fill="#00AEEF" d="M140.113,123.354h3.631c0.408,0,0.611-0.188,0.611-0.561v-1.596
		c0-0.373-0.203-0.561-0.611-0.561h-3.631c-0.408,0-0.611,0.188-0.611,0.561v1.596C139.502,123.166,139.705,123.354,140.113,123.354
		L140.113,123.354z M145.916,123.691v4.004c-0.395-0.225-0.893-0.338-1.492-0.338h-7.873c-0.6,0-1.098,0.113-1.494,0.338v-4.342
		h3.666v-0.035c-0.521-0.17-0.781-0.514-0.781-1.035v-3.139c0-1.674,0.826-2.511,2.477-2.511h3.021c1.65,0,2.477,0.837,2.477,2.511
		v3.377c0,0.328-0.281,0.633-0.848,0.916L145.916,123.691L145.916,123.691z"/>
	<path fill-rule="evenodd" clip-rule="evenodd" fill="#00AEEF" d="M141.234,111.895v-2.799h-1.088c-0.43,0-0.645,0.192-0.645,0.577
		v1.646c0,0.385,0.215,0.577,0.645,0.577H141.234L141.234,111.895z M142.795,105.193v6.702h0.746c0.543,0,0.814-0.306,0.814-0.916
		v-3.852c0-0.702-0.113-1.307-0.34-1.815l1.9,0.305v7.975c0,0.872-0.186,1.476-0.559,1.816c-0.373,0.328-0.99,0.492-1.85,0.492
		h-3.156c-0.861,0-1.477-0.164-1.85-0.492c-0.375-0.34-0.561-0.944-0.561-1.816V107.5c0-0.871,0.191-1.482,0.576-1.833
		c0.363-0.316,0.973-0.475,1.834-0.475H142.795L142.795,105.193z"/>
	<path fill-rule="evenodd" clip-rule="evenodd" fill="#00AEEF" d="M137.941,103.645v-7.296c0-0.961,0.232-1.646,0.695-2.053
		c0.453-0.418,1.223-0.627,2.309-0.627h3.479c0.645,0,1.143-0.13,1.492-0.39v4.004l-0.881,0.204v0.034
		c0.395,0.113,0.65,0.316,0.764,0.61c0.078,0.181,0.117,0.521,0.117,1.018v2.851c0,0.872-0.186,1.477-0.559,1.816
		c-0.373,0.328-0.99,0.492-1.85,0.492h-0.578c-0.859,0-1.477-0.164-1.85-0.492c-0.373-0.339-0.559-0.944-0.559-1.816v-3.647
		c0-0.249-0.029-0.413-0.086-0.492c-0.068-0.125-0.209-0.187-0.424-0.187c-0.34,0-0.51,0.226-0.51,0.679v3.987
		c0,0.611,0.113,1.143,0.34,1.595L137.941,103.645L137.941,103.645z M142.082,97.672v1.781c0,0.306,0.033,0.509,0.102,0.611
		c0.09,0.158,0.283,0.238,0.576,0.238h0.918c0.293,0,0.486-0.08,0.576-0.238c0.068-0.102,0.102-0.305,0.102-0.611v-0.933
		c0-0.385-0.062-0.623-0.188-0.713c-0.123-0.09-0.439-0.135-0.949-0.135H142.082L142.082,97.672z"/>
	<path fill="#00AEEF" d="M140.316,88.709h3.225c0.543,0,0.814-0.305,0.814-0.916v-1.952c0-0.871-0.129-1.578-0.391-2.121
		l1.951,0.289v6.193c0,1.674-0.826,2.512-2.477,2.512h-3.021c-1.65,0-2.477-0.837-2.477-2.512v-6.227l1.986-0.356
		c-0.283,0.294-0.426,0.921-0.426,1.883v2.291C139.502,88.404,139.773,88.709,140.316,88.709L140.316,88.709z"/>
	<path fill="#00AEEF" d="M135.057,83.259v-4.446h3.666v-0.034c-0.328-0.226-0.51-0.356-0.543-0.39
		c-0.16-0.147-0.238-0.34-0.238-0.577V74.69c0-1.776,0.967-2.664,2.902-2.664h3.24c0.713,0,1.324-0.146,1.832-0.441v4.887
		c-0.508-0.294-1.119-0.441-1.832-0.441h-3.92c-0.441,0-0.662,0.221-0.662,0.662v1.459c0,0.441,0.221,0.662,0.662,0.662h3.92
		c0.713,0,1.324-0.147,1.832-0.441v4.887c-0.508-0.294-1.119-0.441-1.832-0.441h-7.195
		C136.176,82.817,135.566,82.964,135.057,83.259L135.057,83.259z"/>
	<path fill="#00AEEF" d="M140.316,60.854h3.225c0.543,0,0.814-0.306,0.814-0.917v-1.951c0-0.871-0.129-1.578-0.391-2.121
		l1.951,0.289v6.193c0,1.674-0.826,2.511-2.477,2.511h-3.021c-1.65,0-2.477-0.837-2.477-2.511v-6.228l1.986-0.356
		c-0.283,0.294-0.426,0.922-0.426,1.884v2.29C139.502,60.548,139.773,60.854,140.316,60.854L140.316,60.854z"/>
	<path fill="#00AEEF" d="M144.084,54.707h-7.195c-0.713,0-1.322,0.147-1.832,0.442v-4.446h9.027c0.713,0,1.324-0.146,1.832-0.441
		v4.887C145.408,54.854,144.797,54.707,144.084,54.707L144.084,54.707z"/>
	<path fill="#00AEEF" d="M145.916,38.109v4.14l-0.83,0.119v0.034c0.553,0.249,0.83,0.594,0.83,1.035v3.241
		c0,1.776-0.967,2.664-2.9,2.664h-3.242c-0.713,0-1.322,0.147-1.832,0.441v-4.445h5.752c0.441,0,0.662-0.221,0.662-0.662v-1.459
		c0-0.441-0.221-0.662-0.662-0.662h-3.92c-0.713,0-1.322,0.147-1.832,0.441V38.55h6.143
		C144.797,38.55,145.408,38.403,145.916,38.109L145.916,38.109z"/>
	<path fill-rule="evenodd" clip-rule="evenodd" fill="#00AEEF" d="M140.113,33.49h3.631c0.408,0,0.611-0.187,0.611-0.56v-1.595
		c0-0.373-0.203-0.56-0.611-0.56h-3.631c-0.408,0-0.611,0.187-0.611,0.56v1.595C139.502,33.303,139.705,33.49,140.113,33.49
		L140.113,33.49z M145.916,33.829v4.005c-0.395-0.226-0.893-0.339-1.492-0.339h-7.873c-0.6,0-1.098,0.113-1.494,0.339V33.49h3.666
		v-0.035c-0.521-0.169-0.781-0.514-0.781-1.034v-3.14c0-1.674,0.826-2.511,2.477-2.511h3.021c1.65,0,2.477,0.837,2.477,2.511v3.376
		c0,0.328-0.281,0.634-0.848,0.917L145.916,33.829L145.916,33.829z"/>
</g>
</svg>
