<?xml version="1.0" encoding="utf-8"?>
<!-- Generator: Adobe Illustrator 16.0.0, SVG Export Plug-In . SVG Version: 6.00 Build 0)  -->
<!DOCTYPE svg PUBLIC "-//W3C//DTD SVG 1.1//EN" "http://www.w3.org/Graphics/SVG/1.1/DTD/svg11.dtd">
<svg version="1.1" id="Layer_1" xmlns="http://www.w3.org/2000/svg" xmlns:xlink="http://www.w3.org/1999/xlink" x="0px" y="0px"
	 width="175.83px" height="66.196px" viewBox="7.465 63.279 175.83 66.196" enable-background="new 7.465 63.279 175.83 66.196"
	 xml:space="preserve">
<g>
	
		<path fill="#E32B2E" stroke="#000000" stroke-width="5.0689" stroke-linecap="round" stroke-linejoin="round" stroke-miterlimit="2.6131" d="
		M48.452,93.312c-1.684-0.161-5.894,1.432-7.701,1.469c-1.002,0.021-8.243-0.923-8.97-0.945c-1.472-0.04-4.13-8.196-3.086-9.239
		c0.583-0.582,5.199-0.102,7.403-0.102c4.008,0,12.02-0.803,12.02-0.803c9.31-0.189,12.914-5.539,13.578-5.871
		c-6.771,1.848-12.12,0.308-33.295-1.017c1.333-1.056,2.213-2.655,2.354-4.432c-1.825,0.52-5.693,4.614-6.395,4.919
		c-0.856,0.373-11.701,0.027-14.36,3.276c1.079,0.873,6.352,3.208,12.248,3.208c0.28,1.786,1.568,8.343,1.446,9.844
		c-4.566,0.409-9.076,0.245-13.65,0.475c0.29,1.156,5.747,4.052,7.131,4.207c0.988,0.109,5.304-0.487,6.166-0.014
		c1.548,0.851,0.7,7.076-0.276,8.793c-1.349,2.373-4.656,1.541-5.644,1.541c0.207,0.728,6.508,16.188,8.643,14.703
		c1.744-1.216,3.564-3.183,4.81-4.941c1.09-1.543,2.484-2.932,3.529-4.557c1.001-1.562,1.384-3.076,1.598-4.931
		c0.181-1.557,0.369-4.117-0.056-5.631c-0.387-1.379-2.15-4.531-2.922-5.598c1.696-0.307,2.688-0.158,8.323-0.158
		c-0.395,0.609,0.197,4.922,0.195,6.172c-0.004,1.988,3.941,11.443,5.252,14.482c2.347-0.836,3.5-5.672,4.664-7.576
		c1.399-2.285,2.308-5.439,2.603-8.027c0.314-2.771,0.38-6.176-1.624-8.174C51.19,93.146,50.061,93.465,48.452,93.312L48.452,93.312
		z"/>
	
		<path fill="#E32B2E" stroke="#000000" stroke-width="5.0689" stroke-linecap="round" stroke-linejoin="round" stroke-miterlimit="2.6131" d="
		M101.866,108.731c-3.893-2.141-2.018-22.158-0.596-22.138c0.804,0.012,12.181-1.542,15.982-2.337
		c-0.302-0.542-14.534-1.448-14.534-2.082c0-2.13,0.798-4.81-1.401-6.402c0,0-1.985,3.563-2.383,4.804
		c-0.736,2.294-1.559,1.67-3.614,1.799c-2.554,0.161-18.795,0.12-18.795,1.784c0,1.186,16.262,2.262,19.741,2.098
		c0.052,3.223-6.691,27.328,1.804,32.604c3.478,2.16,7.144-2.203,7.449-2.662c0.383-0.572,2.562-9.311,2.168-14.008
		C107.347,103.356,103.562,109.666,101.866,108.731L101.866,108.731z"/>
	
		<path fill="#E32B2E" stroke="#000000" stroke-width="5.0689" stroke-linecap="round" stroke-linejoin="round" stroke-miterlimit="2.6131" d="
		M80.662,103.449c3.946,3.172,1.422,7.338,1.539,5.92c-0.809-0.617-4.192-4.963-4.789-4.365c-0.605,0.604-3.391,5.606-3.616,6.994
		c-0.699,4.299,6.044,7.31,9.552,7.283c2.83-0.021,4.188-0.232,6.007-2.423c1.93-2.321,2.668-3.471,2.793-6.646
		c0.234-5.996-8.57-13.231-10.81-13.836c-0.143-0.856-0.402-3.237,0.294-3.773c1.592-1.226,3.334,0.536,3.881,2.856
		c0.487,2.061,2.669,5.28,5.16,4.76c3.194-0.668,3.1-3.877,1.435-6.173C83.213,81.781,68.634,93.783,80.662,103.449L80.662,103.449z
		"/>
	<path fill="#E32B2E" d="M64.713,106.987c8.766-6.854,8.25-9.133,8.39-10.481c1.042-10.154-9.712-6.975-10.738-6.396
		c-9.208,5.194-11.691,21.288,2.592,27.691c0.874,0.394,1.345,0.789,2.097,1.386c0.146-1.205,5.973-10.181,6.287-12.414
		C70.756,108.388,67.546,107.617,64.713,106.987L64.713,106.987L64.713,106.987z M62.779,101.375
		c-0.765-1.033-0.435-4.08,0.112-5.233c0.608-1.28,1.483-2.29,2.857-2.684c-0.042-0.029-0.079-0.055-0.122-0.085h0.424
		c-0.105,0.022-0.202,0.056-0.302,0.085c1.952,1.345,1.833,1.926,0.55,4.12C65.574,98.815,64.141,100.842,62.779,101.375
		L62.779,101.375z"/>
	
		<path fill="none" stroke="#000000" stroke-width="5.0689" stroke-linecap="round" stroke-linejoin="round" stroke-miterlimit="2.6131" d="
		M64.713,106.987c8.766-6.854,8.25-9.133,8.39-10.481c1.042-10.154-9.712-6.975-10.738-6.396
		c-9.208,5.194-11.691,21.288,2.592,27.691c0.874,0.394,1.345,0.789,2.097,1.386c0.146-1.205,5.973-10.181,6.287-12.414
		C70.756,108.388,67.546,107.617,64.713,106.987 M62.779,101.375c-0.765-1.033-0.435-4.08,0.112-5.233
		c0.608-1.28,1.483-2.29,2.857-2.684c-0.042-0.029-0.079-0.055-0.122-0.085h0.424c-0.105,0.022-0.202,0.056-0.302,0.085
		c1.952,1.345,1.833,1.926,0.55,4.12C65.574,98.815,64.141,100.842,62.779,101.375L62.779,101.375z"/>
	<path fill="#E32B2E" d="M133.092,110.521c-0.896-0.406-4.907-2.455-4.14-11.142c0.714-8.087-3.996-10.966-6.292-11.115
		c-12.867-0.84-12.757,9.102-11.873,10.285c0.416,0.558,5.356,2.574,6.125,1.181c0.511-0.929,2.483-5.688,3.416-6.276
		c1.771-1.122,2.95,0.456,2.729,2.368c-0.175,1.493-1.479,2.542-2.455,3.513c-1.447,1.442-19.686,8.972-8.027,19.699
		c1.207,1.11,6.003,1.178,9.547-2.359c0.6-0.598,3.97,4.029,6.785,0.271c1.045-1.394,1.801-2.578,2.792-3.902
		c0.512-0.688,1.851-2.609,2.629-2.49L133.092,110.521L133.092,110.521L133.092,110.521z M115.772,110.483
		c-0.265-1.438,0.199-3.19,1.024-4.184c0.728-0.875,2.64-2.602,3.847-2.367h0.422C121.069,107.379,120.752,111.763,115.772,110.483
		L115.772,110.483z"/>
	
		<path fill="none" stroke="#000000" stroke-width="5.0689" stroke-linecap="round" stroke-linejoin="round" stroke-miterlimit="2.6131" d="
		M133.092,110.521c-0.896-0.406-4.907-2.455-4.14-11.142c0.714-8.087-3.996-10.966-6.292-11.115
		c-12.867-0.84-12.757,9.102-11.873,10.285c0.416,0.558,5.356,2.574,6.125,1.181c0.511-0.929,2.483-5.688,3.416-6.276
		c1.771-1.122,2.95,0.456,2.729,2.368c-0.175,1.493-1.479,2.542-2.455,3.513c-1.447,1.442-19.686,8.972-8.027,19.699
		c1.207,1.11,6.003,1.178,9.547-2.359c0.6-0.598,3.97,4.029,6.785,0.271c1.045-1.394,1.801-2.578,2.792-3.902
		c0.512-0.688,1.851-2.609,2.629-2.49L133.092,110.521 M115.772,110.483c-0.265-1.438,0.199-3.19,1.024-4.184
		c0.728-0.875,2.64-2.602,3.847-2.367h0.422C121.069,107.379,120.752,111.763,115.772,110.483L115.772,110.483z"/>
	
		<path fill="#E32B2E" stroke="#000000" stroke-width="5.0689" stroke-linecap="round" stroke-linejoin="round" stroke-miterlimit="2.6131" d="
		M42.065,88.293c0,1.929,2.373,3.491,5.298,3.491c2.925,0,5.297-1.562,5.297-3.491c0-1.929-2.372-3.491-5.297-3.491
		C44.438,84.802,42.065,86.364,42.065,88.293L42.065,88.293z"/>
	
		<path fill="#E32B2E" stroke="#FFFFFF" stroke-width="2.2528" stroke-linecap="round" stroke-linejoin="round" stroke-miterlimit="2.6131" d="
		M48.641,92.76c-1.684-0.161-5.895,1.433-7.701,1.47c-1.002,0.021-8.243-0.924-8.97-0.944c-1.472-0.04-4.131-8.197-3.086-9.239
		c0.583-0.582,5.199-0.103,7.402-0.103c4.008,0,12.02-0.804,12.02-0.804c9.311-0.189,12.914-5.538,13.579-5.87
		c-6.771,1.847-12.121,0.308-33.295-1.017c1.332-1.056,2.214-2.656,2.355-4.432c-1.826,0.52-5.694,4.613-6.395,4.919
		c-0.857,0.373-11.701,0.026-14.359,3.275c1.077,0.873,6.352,3.208,12.247,3.208c0.28,1.785,1.569,8.343,1.447,9.844
		c-4.566,0.408-9.077,0.243-13.65,0.474c0.29,1.156,5.747,4.053,7.131,4.207c0.988,0.108,5.304-0.488,6.167-0.017
		c1.547,0.853,0.7,7.08-0.276,8.795c-1.349,2.375-4.657,1.539-5.644,1.539c0.207,0.728,6.507,16.193,8.644,14.705
		c1.743-1.217,3.563-3.182,4.809-4.94c1.09-1.543,2.484-2.933,3.529-4.558c1.001-1.559,1.383-3.075,1.599-4.932
		c0.18-1.555,0.369-4.115-0.058-5.631c-0.386-1.377-2.149-4.531-2.921-5.596c1.695-0.307,2.687-0.158,8.324-0.158
		c-0.396,0.607,0.196,4.922,0.194,6.172c-0.003,1.988,3.941,11.443,5.253,14.482c2.347-0.834,3.499-5.672,4.663-7.576
		c1.4-2.285,2.309-5.439,2.603-8.027c0.314-2.771,0.381-6.177-1.623-8.174C51.379,92.596,50.25,92.914,48.641,92.76L48.641,92.76z"
		/>
	
		<path fill="#E32B2E" stroke="#FFFFFF" stroke-width="2.2528" stroke-linecap="round" stroke-linejoin="round" stroke-miterlimit="2.6131" d="
		M102.056,108.183c-3.893-2.142-2.019-22.16-0.596-22.139c0.803,0.011,12.182-1.543,15.982-2.338
		c-0.301-0.542-14.535-1.447-14.535-2.083c0-2.129,0.799-4.809-1.401-6.401c0,0-1.985,3.563-2.383,4.803
		c-0.735,2.295-1.558,1.671-3.612,1.8c-2.555,0.162-18.796,0.121-18.796,1.784c0,1.186,16.262,2.262,19.741,2.098
		c0.052,3.223-6.691,27.328,1.805,32.604c3.477,2.16,7.143-2.203,7.448-2.662c0.383-0.572,2.562-9.312,2.169-14.008
		C107.534,102.81,103.751,109.112,102.056,108.183L102.056,108.183z"/>
	
		<path fill="#E32B2E" stroke="#FFFFFF" stroke-width="2.2528" stroke-linecap="round" stroke-linejoin="round" stroke-miterlimit="2.6131" d="
		M80.851,102.897c3.946,3.17,1.423,7.338,1.54,5.92c-0.81-0.616-4.193-4.963-4.792-4.362c-0.604,0.604-3.389,5.604-3.615,6.992
		c-0.698,4.299,6.045,7.309,9.552,7.282c2.83-0.02,4.189-0.231,6.007-2.422c1.931-2.322,2.669-3.469,2.794-6.646
		c0.234-5.998-8.57-13.232-10.81-13.835c-0.142-0.857-0.401-3.238,0.295-3.773c1.591-1.226,3.333,0.535,3.881,2.856
		c0.488,2.063,2.668,5.28,5.16,4.758c3.193-0.666,3.1-3.875,1.436-6.171C83.402,81.23,68.822,93.231,80.851,102.897L80.851,102.897z
		"/>
	<path fill="#E32B2E" d="M64.901,106.438c8.767-6.855,8.251-9.133,8.39-10.483c1.043-10.153-9.712-6.975-10.739-6.395
		c-9.205,5.193-11.69,21.287,2.593,27.691c0.874,0.393,1.345,0.789,2.098,1.385c0.146-1.205,5.972-10.182,6.287-12.414
		C70.945,107.836,67.735,107.065,64.901,106.438L64.901,106.438L64.901,106.438z M62.967,100.824
		c-0.764-1.033-0.433-4.078,0.113-5.233c0.608-1.281,1.485-2.29,2.857-2.684c-0.042-0.029-0.079-0.055-0.122-0.084h0.423
		c-0.106,0.021-0.202,0.056-0.302,0.084c1.952,1.344,1.832,1.925,0.55,4.119C65.763,98.267,64.331,100.291,62.967,100.824
		L62.967,100.824z"/>
	
		<path fill="none" stroke="#FFFFFF" stroke-width="2.2528" stroke-linecap="round" stroke-linejoin="round" stroke-miterlimit="2.6131" d="
		M64.901,106.438c8.767-6.855,8.251-9.133,8.39-10.483c1.043-10.153-9.712-6.975-10.739-6.395
		c-9.205,5.193-11.69,21.287,2.593,27.691c0.874,0.393,1.345,0.789,2.098,1.385c0.146-1.205,5.972-10.182,6.287-12.414
		C70.945,107.836,67.735,107.065,64.901,106.438 M62.967,100.824c-0.764-1.033-0.433-4.078,0.113-5.233
		c0.608-1.281,1.485-2.29,2.857-2.684c-0.042-0.029-0.079-0.055-0.122-0.084h0.423c-0.106,0.021-0.202,0.056-0.302,0.084
		c1.952,1.344,1.832,1.925,0.55,4.119C65.763,98.267,64.331,100.291,62.967,100.824L62.967,100.824z"/>
	<path fill="#E32B2E" d="M133.281,109.969c-0.896-0.407-4.908-2.454-4.142-11.141c0.715-8.086-3.994-10.966-6.291-11.116
		c-12.867-0.84-12.757,9.102-11.873,10.284c0.416,0.56,5.357,2.576,6.125,1.182c0.512-0.928,2.484-5.687,3.416-6.275
		c1.771-1.121,2.95,0.455,2.729,2.366c-0.176,1.493-1.479,2.541-2.454,3.515c-1.446,1.445-19.687,8.971-8.028,19.699
		c1.209,1.11,6.002,1.178,9.547-2.359c0.601-0.598,3.972,4.029,6.785,0.271c1.045-1.396,1.801-2.58,2.791-3.904
		c0.514-0.686,1.854-2.609,2.631-2.49L133.281,109.969L133.281,109.969L133.281,109.969z M115.962,109.935
		c-0.264-1.438,0.199-3.189,1.025-4.185c0.726-0.877,2.639-2.603,3.846-2.367h0.423C121.259,106.828,120.94,111.211,115.962,109.935
		L115.962,109.935z"/>
	
		<path fill="none" stroke="#FFFFFF" stroke-width="2.2528" stroke-linecap="round" stroke-linejoin="round" stroke-miterlimit="2.6131" d="
		M133.281,109.969c-0.896-0.407-4.908-2.454-4.142-11.141c0.715-8.087-3.994-10.966-6.291-11.116
		c-12.867-0.84-12.757,9.102-11.873,10.284c0.416,0.56,5.357,2.576,6.125,1.182c0.512-0.928,2.484-5.687,3.416-6.275
		c1.771-1.121,2.95,0.455,2.729,2.366c-0.176,1.493-1.479,2.541-2.454,3.515c-1.446,1.445-19.687,8.971-8.028,19.699
		c1.209,1.11,6.002,1.178,9.547-2.359c0.601-0.598,3.972,4.029,6.785,0.271c1.045-1.396,1.801-2.58,2.793-3.904
		c0.512-0.686,1.852-2.609,2.629-2.49L133.281,109.969 M115.962,109.935c-0.264-1.438,0.2-3.189,1.025-4.185
		c0.726-0.877,2.639-2.603,3.846-2.367h0.423C121.259,106.828,120.94,111.211,115.962,109.935L115.962,109.935z"/>
	
		<path fill="#E32B2E" stroke="#FFFFFF" stroke-width="2.2528" stroke-linecap="round" stroke-linejoin="round" stroke-miterlimit="2.6131" d="
		M42.255,87.743c0,1.927,2.372,3.491,5.298,3.491c2.925,0,5.296-1.563,5.296-3.491c0-1.928-2.372-3.491-5.296-3.491
		C44.627,84.252,42.255,85.814,42.255,87.743L42.255,87.743z"/>
	<path fill="#E32B2E" d="M31.033,71.122c-0.001,0.137-0.018,0.269-0.028,0.402c0.134-0.04,0.26-0.062,0.371-0.059L31.033,71.122
		L31.033,71.122z"/>
	<path fill="#E32B2E" d="M48.701,92.462c-1.683-0.161-5.894,1.43-7.699,1.469c-1.004,0.02-8.244-0.924-8.972-0.943
		c-1.473-0.04-4.131-8.197-3.085-9.24c0.583-0.582,5.198-0.103,7.402-0.103c4.008,0,12.019-0.803,12.019-0.803
		c9.311-0.188,12.915-5.538,13.578-5.87c-6.771,1.848-12.119,0.308-33.294-1.016c1.332-1.056,2.213-2.656,2.355-4.433
		c-1.825,0.52-5.693,4.612-6.395,4.918c-0.856,0.373-11.701,0.027-14.359,3.276c1.078,0.873,6.351,3.208,12.247,3.208
		c0.279,1.784,1.569,8.343,1.446,9.843c-4.565,0.41-9.076,0.245-13.649,0.475c0.29,1.155,5.746,4.052,7.13,4.207
		c0.989,0.109,5.305-0.488,6.167-0.014c1.547,0.85,0.7,7.078-0.275,8.793c-1.35,2.373-4.657,1.541-5.645,1.541
		c0.207,0.727,6.508,16.19,8.644,14.703c1.742-1.216,3.563-3.181,4.808-4.941c1.091-1.543,2.485-2.932,3.529-4.557
		c1.003-1.562,1.384-3.076,1.599-4.931c0.181-1.557,0.369-4.117-0.056-5.633c-0.387-1.377-2.15-4.531-2.922-5.596
		c1.696-0.307,2.687-0.158,8.323-0.158c-0.395,0.608,0.197,4.92,0.195,6.174c-0.004,1.985,3.941,11.44,5.252,14.481
		c2.346-0.838,3.5-5.674,4.664-7.578c1.399-2.286,2.308-5.438,2.603-8.026c0.314-2.771,0.38-6.176-1.625-8.174
		C51.44,92.296,50.311,92.615,48.701,92.462L48.701,92.462z"/>
	<path fill="#E32B2E" d="M102.116,107.883c-3.893-2.141-2.018-22.159-0.596-22.138c0.803,0.012,12.181-1.543,15.983-2.337
		c-0.302-0.543-14.536-1.448-14.536-2.082c0-2.13,0.799-4.81-1.4-6.401c0,0-1.984,3.563-2.383,4.803
		c-0.738,2.294-1.559,1.67-3.614,1.8c-2.554,0.161-18.795,0.12-18.795,1.784c0,1.185,16.262,2.262,19.741,2.097
		c0.051,3.223-6.691,27.328,1.804,32.604c3.478,2.16,7.144-2.203,7.449-2.662c0.383-0.572,2.562-9.312,2.168-14.008
		C107.597,102.51,103.812,108.815,102.116,107.883L102.116,107.883z"/>
	<path fill="#E32B2E" d="M82.452,108.49c0,0.012,0,0.02-0.001,0.028c0.024,0.019,0.053,0.045,0.072,0.058L82.452,108.49
		L82.452,108.49z"/>
	<path fill="#E32B2E" d="M80.912,102.601c3.946,3.17,1.423,7.338,1.539,5.92c-0.81-0.617-4.192-4.961-4.791-4.365
		c-0.604,0.604-3.389,5.607-3.615,6.996c-0.698,4.299,6.045,7.307,9.552,7.281c2.829-0.021,4.189-0.232,6.007-2.42
		c1.931-2.322,2.669-3.474,2.793-6.648c0.234-5.996-8.57-13.232-10.81-13.836c-0.143-0.855-0.401-3.237,0.296-3.773
		c1.59-1.225,3.332,0.535,3.881,2.856c0.486,2.063,2.668,5.281,5.159,4.761c3.194-0.668,3.101-3.878,1.436-6.174
		C83.464,80.931,68.883,92.934,80.912,102.601L80.912,102.601z"/>
	<path fill="#E32B2E" d="M64.963,106.14c8.767-6.855,8.25-9.134,8.389-10.484c1.042-10.152-9.713-6.974-10.739-6.396
		c-9.206,5.193-11.69,21.288,2.592,27.692c0.875,0.393,1.346,0.791,2.098,1.387c0.145-1.207,5.974-10.182,6.287-12.416
		C71.006,107.539,67.796,106.769,64.963,106.14L64.963,106.14L64.963,106.14z M63.028,100.524c-0.764-1.032-0.433-4.077,0.114-5.232
		c0.608-1.28,1.483-2.289,2.856-2.684c-0.042-0.027-0.079-0.055-0.122-0.083H66.3c-0.105,0.021-0.201,0.054-0.301,0.083
		c1.951,1.345,1.832,1.925,0.549,4.121C65.824,97.969,64.392,99.992,63.028,100.524L63.028,100.524z"/>
	<path fill="#E32B2E" d="M133.343,109.67c-0.896-0.405-4.908-2.455-4.143-11.144c0.716-8.085-3.994-10.963-6.291-11.112
		c-12.866-0.84-12.754,9.102-11.872,10.285c0.417,0.557,5.358,2.573,6.125,1.178c0.511-0.926,2.483-5.685,3.415-6.273
		c1.771-1.121,2.951,0.454,2.729,2.367c-0.174,1.492-1.477,2.539-2.453,3.512c-1.445,1.445-19.686,8.972-8.028,19.699
		c1.208,1.111,6.004,1.178,9.547-2.358c0.601-0.599,3.971,4.028,6.786,0.27c1.043-1.393,1.801-2.577,2.791-3.903
		c0.513-0.685,1.852-2.607,2.631-2.488L133.343,109.67L133.343,109.67L133.343,109.67z M116.022,109.635
		c-0.266-1.436,0.199-3.188,1.024-4.184c0.728-0.875,2.64-2.603,3.847-2.367h0.424C121.319,106.528,121.004,110.912,116.022,109.635
		L116.022,109.635z"/>
	<path fill="#E32B2E" d="M42.317,87.444c0,1.927,2.372,3.49,5.297,3.49c2.925,0,5.297-1.563,5.297-3.49
		c0-1.928-2.372-3.491-5.297-3.491C44.689,83.953,42.317,85.516,42.317,87.444L42.317,87.444z"/>
	
		<path fill="#F89A3A" stroke="#000000" stroke-width="1.0804" stroke-linecap="round" stroke-linejoin="round" stroke-miterlimit="2.6131" d="
		M158.75,117.49c0.087,0.389-0.396,1.403-0.744,1.6c-0.68,0.377-1.926-0.084-2.677,0.058c-1.195,0.225-3.698,2.67-3.455,4.059
		c0.627-0.811,1.843-1.643,2.913-1.592c0.226,0.844-0.917,1.602-1.36,2.197c-0.561,0.758-0.505,1.584-0.953,2.422
		c0.678,1.135,2.178-1.521,2.779-1.808c0.721-0.342,1.372,0.271,2.059,0.097c0.832-0.215,1.715-1.279,1.685-2.119
		c0.914,0.108,1.925-0.318,2.914-0.318c0.446,0,1.042-0.109,1.469,0.023c0.677,0.213,0.706,1.102,1.485,0.416
		c1.371-1.203-0.696-1.617-1.264-1.836c-0.884-0.338-1.59-0.72-2.572-0.791c-0.092-0.695,0.027-2.369-0.451-2.937
		c-0.764-0.905-1.062,0.644-1.826,0.726L158.75,117.49L158.75,117.49z"/>
	
		<path fill="#F89A3A" stroke="#000000" stroke-width="1.0804" stroke-linecap="round" stroke-linejoin="round" stroke-miterlimit="2.6131" d="
		M168.058,118.662c0.107,1.231,0.574,2.116,0.465,3.377c-1.441,0.235-2.693,0.381-3.623,1.726c-0.424,0.606-1.575,3.524-1.041,3.896
		c0.701-0.716,2.879-2.134,3.93-2.158c1.117-0.026,1.182,1.192,1.898,1.951c0.494,0.522,1.114,1.071,1.736,1.481
		c0.258-1.049-0.634-3.662,0.77-3.936c1.789-0.352,2.861,1.805,3.646,2.924c0.396-2.098,0.833-4.379-1.391-5.334
		c-1.422-0.609-3.09-0.672-4.613-1.037c0.182-0.318,0.225-0.396,0.614-0.479c0.167-0.857-0.259-2.146,0.251-2.9L168.058,118.662
		L168.058,118.662z"/>
	
		<path fill="#ED1C2B" stroke="#000000" stroke-width="1.0804" stroke-linecap="round" stroke-linejoin="round" stroke-miterlimit="2.6131" d="
		M162.963,66.745c0.558-0.412,1.326-0.227,1.927-0.478c3.701-1.554,9.827,2.258,10.877,3.356c1.321,1.387,1.592,3.256,2.096,5.187
		c0.408,1.566,0.332,3.513-0.418,4.947c-0.547,1.044-2.928,10.341-3.157,11.181c-0.627,2.279-2.896,0.571-3.978-0.363
		c-0.07,1.255-0.277,2.433-0.578,3.635c-0.459-0.343-0.873-0.839-1.166-1.332c-0.181-0.302-0.31-1.047-0.549-1.254
		c-0.949-0.82-1.26,0.856-2.14,1.229c-1.053,0.446-3.278,0.383-4.362,0.124c-0.186-0.696,0.629-1.441,0.861-2.065
		c0.417-1.113,0.492-2.248,0.488-3.438c-0.01-3.014-1.223-5.465-1.715-8.315c-0.357-2.072-0.143-4.284-0.146-6.388
		c-0.005-2.018-0.314-4.695,1.665-5.831L162.963,66.745L162.963,66.745z"/>
	
		<path fill="#4B6D5A" stroke="#000000" stroke-width="1.0804" stroke-linecap="round" stroke-linejoin="round" stroke-miterlimit="2.6131" d="
		M178.048,64.985c-0.008,1.933,0.368,4.424,0.822,6.297c0.695,2.866,0.179,3.921,0.181,4.962c0.003,1.995-0.253,3.907-0.43,5.817
		c-0.14,1.48-0.584,2.508-1.019,3.933c-0.713,2.34-1.164,4.405-3.195,5.617c-1.653,0.987-3.608,3.056-5.592,3.21
		c1.211-0.111,0.041-2.998-0.527-3.494c-0.941-0.823-2.201-0.363-3.02,0.034c-1.104,0.536-2.394,1.235-3.611,1.507
		c-1.408,0.314-3.072-0.654-4.413-0.188c-1.343,0.466-1.569,1.697-3.239,1.152c-1.486-0.482-2.219-1.677-3.361-2.608
		c-1.195-0.974-2.58-1.693-3.713-2.711c-1.222-1.097-1.932-1.973-2.692-3.399c0.034,1.729,0.153,2.767-0.933,4.091
		c-0.463,0.564-1.969,2.596-2.718,2.396c-0.928-0.247-1.345-2.208-2.374-2.671c-1.027-0.461-2.261-0.058-2.771,0.923
		c0.943,0.154,2.52,1.093,2.928,1.957c-0.482,0.15-1.396,0.149-1.402,0.717c0.877,0.109,1.764-0.067,2.635,0.084
		c0.851,0.146,1.709,0.623,2.463,0.934c1.955,0.808,2.859,2.847,4.358,4.126c0.671,0.57,1.599,0.699,2.21,1.305
		c0.633,0.623,0.772,1.412,1.268,2.115c0.629,0.893,0.613,0.758,0.721,2.023c0.057,0.684,0.13,1.297,0.527,1.889
		c0.336,0.5,0.842,0.963,1.193,1.502c0.45,0.689,0.868,1.545,1.438,2.143c1.046,1.101,1.97,1.812,2.242,3.435
		c0.175,1.035-0.119,1.521,0.447,2.319c0.35,0.492,0.793,0.908,1.146,1.392c0.854,1.166,1.69,2.806,3.454,2.451
		c0.07-0.611,0.703-1.056,0.759-1.658c0.077-0.834-0.806-1.332-0.642-2.166c0.49,2.817,5.537,3.945,7.602,4.838
		c1.066,0.461,2.193,0.636,3.305,1.004c1.014,0.337,2.372,1.314,3.457,1.132c0.15-0.812,0.086-1.754,0.037-2.586
		c-0.658-0.101-0.768-0.265-1.215-0.479c-0.911-0.438-0.709-0.336-1.359-1.205c1.606-1.718,3.35,1.146,4.508,1.639
		c0.357,0.152,1.771,0.453,2.102,0.169c0.831-0.716-0.413-1.705-0.859-2.05c-0.755-0.58-4.061-3.088-1.758-3.516
		c1.562-0.289,2.787,0.643,4.149,0.676c0.133-1.285,0.073-1.869-1.116-2.317c-1.109-0.423-2.484-0.798-3.682-0.787
		c-0.621,0.006-1.262-0.054-1.883-0.004c-1.013,0.079-1.627,0.688-2.547,0.934c-0.654,0.174-1.296,0.287-1.938,0.479
		c-0.398,0.117-1.577,0.592-1.955,0.566c-1.14-0.076-0.938-1.885-0.614-2.715c0.312-0.797,0.199-0.508,0.878-0.863
		c0.612-0.318,1.239-0.525,1.903-0.77c0.943-0.347,1.675-0.66,2.705-0.767c0.935-0.096,1.604,0.293,2.292-0.432
		c0.473-0.498,0.407-0.857,0.401-1.525c-0.006-1.024-0.33-2.828,0.203-3.684c0.291-0.466,0.883-0.775,1.232-1.214
		c0.475-0.592,0.414-1.127,0.779-1.729c0.254-0.414,0.857-0.582,1.147-0.953c0.431-0.551,0.457-1.111,0.69-1.729
		c0.375-0.989,0.938-1.916,1.269-2.924c0.32-0.977,0.132-1.902,0.263-2.941c0.137-1.063,0.348-2.132,0.445-3.234
		c0.251-2.834,0.79-5.678,1.021-8.532c0.108-1.337,0.002-2.738,0.002-4.08c0-1.69,0.227-3.499,0.01-5.167
		c-0.059-0.449-0.234-1.327-0.469-1.714c-0.342-0.566-0.889-0.741-1.352-1.272c-0.541-0.62-1.328-2.435-2.305-2.171L178.048,64.985
		L178.048,64.985z"/>
	
		<path fill="#FFFFFF" stroke="#000000" stroke-width="1.0804" stroke-linecap="round" stroke-linejoin="round" stroke-miterlimit="2.6131" d="
		M165.117,70.852c0.737-0.137,1.286-0.428,2.043-0.488c0.604-0.047,1.229,0.005,1.839,0c1.221-0.012,2.322,0.508,3.436,1.021
		c2.463,1.134,2.32,3.906,2.186,6.28c-0.078,1.364-0.333,2.424-1.104,3.505c-0.711,1.001-1.4,1.973-1.813,3.101
		c-0.763,2.083-2.168,3.846-4.576,3.667c-0.222-1.305-0.087-2.885-0.202-4.152c-0.053-0.591,0.104-1.349-0.027-1.922
		c-0.125-0.546-1.584-0.809-1.854-1.342c-0.646-1.281,0.157-3.075,0.079-4.492c-0.085-1.524-0.306-2.938-0.005-4.396L165.117,70.852
		L165.117,70.852z"/>
	
		<path fill="#F89A3A" stroke="#000000" stroke-width="1.0804" stroke-linecap="round" stroke-linejoin="round" stroke-miterlimit="2.6131" d="
		M159.886,82.388c0,1.094,0.239,2.512,0.008,3.585c-0.289,1.333-5.172,3.987-5.422,4.356c-1.357,1.995,2.405,2.681,3.627,2.672
		c2.02-0.013,3.157,0.22,4.53-1.375c0.796-0.926,1.701-1.654,2.481-2.533c1.498-1.682,2.32-5.448,2.119-7.785
		c-1.25-0.237-2.043,1.175-3.172,1.397c-1.656,0.325-2.727-0.833-3.992-1.647c-0.01,0.147-0.021,0.297-0.031,0.446L159.886,82.388
		L159.886,82.388z"/>
	<path d="M161.199,82.487c0.172,2.009-0.046,3.66-1.316,5.366c-0.397,0.532-0.979,1.119-1.479,1.621
		c-0.676,0.683-1.762,0.837-2.325,1.609c0.502,0.37,2.424,0.389,3.089,0.22c1.105-0.281,2.334-1.959,3.15-2.734
		c1.375-1.302,2.84-3.825,2.481-5.764c-1.138-0.102-2.853,0.259-3.6-0.807V82.487L161.199,82.487z"/>
	<path d="M170.493,73.578c-1.08,1.772-0.926,3.835,0.347,4.608c1.271,0.771,3.181-0.04,4.261-1.812
		c1.082-1.773,0.926-3.836-0.346-4.608C173.481,70.993,171.575,71.804,170.493,73.578L170.493,73.578z"/>
	<path fill="#A9BEB1" d="M159.24,93.829c-1.274-0.189-2.854,0.789-3.884,1.409c-1.355,0.819-2.229,1.945-3.312,3.203
		c-1.116,1.299-1.353,2.926-0.478,4.531c0.509,0.934,0.832,1.696,1.223,2.651c0.21,0.517,0.672,1.644,1.201,1.742
		c0.301-1.136,0.035-2.615,0.052-3.802c0.024-1.733,0.448-3.024,1.208-4.512c0.643-1.258,1.678-2.041,2.702-3.008
		c0.414-0.389,0.774-0.858,1.212-1.219c0.557-0.461,1.089-0.555,1.678-0.937c-0.494-0.137-0.89,0.138-1.408,0.134L159.24,93.829
		L159.24,93.829z"/>
	<path fill="#A9BEB1" d="M166.783,94.807c-2.197,1.021-3.138,3.584-4.558,5.316c-0.871,1.062-3.174,2.33-2.963,3.924
		c0.871,0.097,1.571,0.347,2.184,0.979c0.479,0.502,0.873,1.615,1.857,1.492c0.18-0.479-0.125-0.903-0.148-1.387
		c-0.07,0.275,0.014,0.602,0.029,0.879c0.541,0.062,0.897,0.504,1.363,0.725c0.479,0.228,0.893,0.236,1.463,0.291
		c0.729,0.07,1.375,0.05,1.907-0.465c0.481-0.465,0.812-1.117-0.047-1.448c0.955-0.082,1.118,0.901,1.817,1.147
		c0.506,0.178,1.803,0.062,2.136-0.359c-0.769-0.274-0.589-0.854-0.729-1.508c1.192,0.406,3.467,0.666,3.648-0.809
		c-0.941,0.238-0.876-0.738-1.454-1.148c0.545-0.102,1.47-0.377,1.813-0.881c0.48-0.705-0.16-1.715,0.412-2.346
		c0.356-0.389,0.147,0.064,0.653-0.193c0.851-0.436,0.586,0.168,1.048-0.772c0.229-0.47,0.463-1.125,0.316-1.654
		c-1.146,0.072-1.024-0.653-1.706,0.638c-0.325,0.614-0.356,0.971-0.937,1.207c-0.438,0.178-1.224-0.043-1.697,0.024
		c-0.088,0.383-0.064,0.801-0.074,1.187c-0.903,0.43-2.712-0.224-3.414,0.457c-0.4,0.391,0.064,1.045-0.43,1.459
		c-0.394,0.33-1.436,0.053-1.951,0.119c-0.19,0.528-0.316,1.071-0.732,1.438c-0.264,0.233-1.992,1.078-2.427,0.948
		c-0.354-1.668-1.036-3.807,0.149-5.123c0.688-0.764,1.494-1.448,2.197-2.229c0.631-0.697,0.868-1.388,1.371-2.124
		c-0.186,0.019-0.438-0.028-0.613,0.017L166.783,94.807L166.783,94.807z"/>
	<path fill="#A9BEB1" d="M180.282,66.457c-0.598,1.048-1.573,1.506-1.17,3.014c0.18,0.668,0.783,1.185,1.003,1.853
		c0.19,0.58,0.077,1.141,0.215,1.711c1.019-0.551-0.111-2.102,0.351-2.747c0.508-0.709,0.829,0.872,1.289,1.01
		c0.07-0.692-0.283-2.418-0.623-3.147c-0.191-0.41,0,0-0.363-0.137c-0.656-0.252-0.545-1.406-1.467-1.132L180.282,66.457
		L180.282,66.457z"/>
	<path fill="#A9BEB1" d="M180.007,74.763c-0.176,1.653,2.605,4.153,1.29,5.612c-0.973-0.167-0.741-1.114-1.26-1.823
		c-0.05,0.866-0.522,1.269-0.521,2.225c0.002,0.566-0.135,1.115-0.218,1.518c-0.126,0.616-0.343,0.576,0.181,1.24
		c0.508,0.646,1.604,1.517,1.506,2.456c-0.178,1.691-1.65-0.602-1.945-0.664c-0.652,0.809-0.3,3.511-0.17,4.534
		c0.164,1.282,1.178,2.439,0.803,3.745c-0.146,0.507-0.514,1.292-1.22,1.197c-0.793-0.108-0.806-1.458-0.931-1.94
		c-0.396-1.501-1.012-1.194-0.229-2.908c0.182-0.398,0.329-1.23,0.518-1.698c0.224-0.549,0.088-1.399,0.238-1.98
		c0.273-1.049,0.375-2.111,0.635-3.165c0.312-1.275,0.332-2.396,0.523-3.678c0.165-1.108,0.258-2.867,0.799-3.886V74.763
		L180.007,74.763z"/>
	<path fill="#A9BEB1" d="M159.683,110.313c-0.029,1.259,0.91,1.566,1.651,2.425c0.578,0.668,1.044,1.645,1.733,2.188
		c0.48,0.375,0.871,0.348,1.369,0.668c0.494,0.316,0.766,0.801,1.26,1.127c0.718,0.478,1.117,0.361,2.025,0.48
		c0.646-1.742-1.945-4.57-3.209-5.348c-0.771-0.474-1.529-1.09-2.402-1.252c-0.748-0.14-1.662,0.004-2.43,0.004v-0.293H159.683z"/>
	<path fill="#A9BEB1" d="M162.521,107.271c0.002,0.724-0.062,1.488,0.024,2.203c0.433,0.142,0.938,0.33,1.396,0.226
		c0.179-1.523,0.515-1.556,1.901-0.984c0.679,0.279,0.534,0.354,1.349,0.056c0.959-0.354,4.664-1.099,5.056-1.479
		c0.776-0.76,2.356-0.455,2.032-1.838c0.259,1.619-1.729,1.26-2.649,1.396c-0.513,0.073-0.96,0.172-1.479,0.223
		c-0.805,0.08-1.248,0.469-1.979,0.66c-1.024,0.268-2.345,0.319-3.42,0.321c-1.176,0.003-1.944-0.254-2.425-1.467L162.521,107.271
		L162.521,107.271z"/>
	<path fill="#A9BEB1" d="M154.065,95.043c-1.055,0.422-2.157,0.87-2.89,1.76c-0.8,0.972-1.146,1.982-1.295,3.21
		c-1.098-1.753-2.95-2.615-3.289-3.265c2.882,1.629,4.175-2.48,2.337-2.727c-1.268-0.169-4.244,1.337-5.174,0.026
		c0.641,0.287,0.879,0.096,1.264-0.348c0.224-0.253,0.098-0.623,0.244-0.886c0.186-0.331,0.584-0.232,0.645-0.721
		c-1.583-0.217-2.783,0.364-4.322,0.44c-0.99,0.049-0.143,0.34-0.893-0.05c-0.741-0.384-1.537-0.171-2.356-0.244
		c0.343-0.848,0.291-1.507-0.59-1.69c-0.062-0.607-1.616-0.66-1.558-1.269c1.742-0.257,1.403,0.125,2.4,1.095
		c0.661,0.642,1.385,1.851,2.881,1.067c0.309-0.16,0.617-0.296,1.045-0.351c0.77-0.099,1.629-0.009,2.398-0.001
		c0.352,0.004,1.344,0.192,1.494-0.256c0.195-0.575-1.288-0.754-1.612-0.769c-0.39-1.471-1.392,0.39,0.134-2.658
		c0.965,1.284,1.986,1.656,3.162,2.781c0.855,0.816,1.26,1.691,2.178,2.608c0.693,0.691,1.066,0.673,2.316,1.151
		c0.404,0.154,0.764,0.582,0.945,1.014c0.343,0.816,0,0.429-0.463,0.725L154.065,95.043L154.065,95.043z"/>
	
		<path fill="#F89A3A" stroke="#000000" stroke-width="1.0804" stroke-linecap="round" stroke-linejoin="round" stroke-miterlimit="2.6131" d="
		M163.728,66.467c-1.934,0.118-2.289-1.614-4.026-2.111c-6.623-1.894-10.652,1.603-12.634,4.563
		c-1.477,2.206-2.248,5.135-1.103,7.769c0.617,1.419,4.126,7.563,5.063,8.252c0.203-1.515-0.523-4.018,0.091-5.415
		c0.487-1.111,0.964-1.458,2.157-1.567c2.005-0.182,1.978,1.115,3.322,2.143c2.305,1.761,7.977,4.659,10.266,1.186
		c-2.836-0.207-1.443-5.479-1.663-7.431c-0.132-1.171-0.16-2.815-0.497-3.95c-0.105-0.364-0.719-1.055-0.898-1.447
		c-0.471-1.014-0.515-1.598-0.521-2.73L163.728,66.467L163.728,66.467z"/>
	<path fill="none" stroke="#000000" stroke-width="0.5401" stroke-miterlimit="2.6131" d="M173.358,125.082
		c0.145-0.129,0.048-0.358,0.093-0.574c0.087-0.416,0.181-0.35,0.463-0.491c0.5-0.254,1.091-0.392,1.665-0.179"/>
	<path fill="#FFFFFF" d="M172.875,72.681c-0.306,0.271-0.511,0.614-0.858,0.854c1.08,0.24,1.196,1.572,0.301,2.136
		c0.775,0.033,1.168-0.474,1.846-0.587c-0.018,0.363,0.177,0.832,0.115,1.195c0.924-0.268,0.865-2.299,0.441-3.03
		c-1.226-2.121-2.045,0.252-3.468-0.027L172.875,72.681L172.875,72.681z"/>
	<path fill="none" stroke="#000000" stroke-width="0.5401" stroke-miterlimit="2.6131" d="M170.546,70.61
		c-0.389,0.201-0.441,2.207-0.533,2.61c-0.1,0.434-0.343,0.819-0.496,1.261c-0.328,0.942-0.604,1.78-0.449,2.831
		c0.154,1.055,1.315,1.954,2.182,2.406c0.479,0.25,0.812,0.636,1.335,0.805c0.323,0.104,0.944,0.028,1.167,0.292 M168.657,70.361
		c-0.196,0.363-0.254,1.341-0.331,1.751c-0.103,0.55-0.138,1.086-0.226,1.643c-0.179,1.125-0.293,2.211-0.293,3.385
		c0,0.506-0.07,1.099,0.146,1.57c0.239,0.527,0.606,1.102,1.013,1.51c0.578,0.581,1.006,1.287,1.65,1.801
		c0.365,0.292,0.65,0.635,1.023,0.926c0.551,0.429,0.194,0.165,0.368,0.287 M166.546,70.465c0,0.408,0.217,1.024,0.165,1.426
		c-0.058,0.426-0.207,0.843-0.262,1.273c-0.089,0.692,0.005,1.47,0.005,2.17c0,0.615-0.075,1.192-0.062,1.81
		c0.012,0.633,0.135,1.203,0.283,1.812c0.189,0.777,0.309,1.535,0.789,2.193c0.253,0.348,0.514,0.722,0.805,1.029
		c0.252,0.26,0.621,0.464,0.926,0.684c0.535,0.385,0.83,0.841,1.01,1.43c0.154,0.51,0.372,1.646,0.271,2.196 M153.288,121.115
		c0.556-0.091,0.486,0.825,0.418,1.137c0.188,0.058,0.438,0.026,0.654,0.031c0.49,0.006,0.455,0,0.699,0.383
		c0.137,0.207,0.315,0.356,0.393,0.576c0.115,0.334-0.028,0.541-0.02,0.868 M164.513,123.565c0.271,0.523,1.137,0.445,1.418,1.041
		c0.176,0.371,0.103,0.854,0.103,1.254 M168.993,126.289c0-0.271-0.086-0.765,0.055-0.998c0.082-0.138,0.523-0.392,0.688-0.5
		c0.271-0.181,0.766-0.383,1.092-0.254c0.48,0.188,0.094,0.196,0.121,0.627c0.093,0.045,0.234,0.067,0.346,0.035"/>
</g>
</svg>
