<?xml version="1.0" encoding="utf-8"?>
<!-- Generator: Adobe Illustrator 16.0.0, SVG Export Plug-In . SVG Version: 6.00 Build 0)  -->
<!DOCTYPE svg PUBLIC "-//W3C//DTD SVG 1.1//EN" "http://www.w3.org/Graphics/SVG/1.1/DTD/svg11.dtd">
<svg version="1.1" id="Layer_1" xmlns="http://www.w3.org/2000/svg" xmlns:xlink="http://www.w3.org/1999/xlink" x="0px" y="0px"
	 width="283.471px" height="311.81px" viewBox="35.427 21.26 283.471 311.81" enable-background="new 35.427 21.26 283.471 311.81"
	 xml:space="preserve">
<g>
	<path d="M59.055,139.68c0,32.567,11.542,60.394,34.628,83.48s50.913,34.629,83.482,34.629c32.567,0,60.395-11.543,83.48-34.629
		s34.63-50.913,34.63-83.48c0-32.568-11.544-60.447-34.63-83.636s-50.913-34.784-83.48-34.784
		c-32.569,0-60.396,11.595-83.482,34.784C70.598,79.233,59.055,107.112,59.055,139.68L59.055,139.68z"/>
	<path d="M177.497,58.479c44.663,0,80.881,36.22,80.881,80.882s-36.219,80.882-80.881,80.882c-44.662,0-80.882-36.221-80.882-80.882
		C96.614,94.699,132.834,58.479,177.497,58.479L177.497,58.479z"/>
	<path fill="#ECEBEA" d="M177.497,59.774c43.948,0,79.588,35.64,79.588,79.588s-35.642,79.587-79.588,79.587
		c-43.947,0-79.588-35.642-79.588-79.587C97.908,95.414,133.549,59.774,177.497,59.774L177.497,59.774z"/>
	<path fill="#C4C4C4" d="M187.824,149.632c1.002,3.042-1.337,6.146-4.223,6.916c-10.918,1.898-23.615-11.844-28.895-20.169
		c-8.17-12.886-12.258-36.543,6.448-42.465c2.83-0.686,5.647-0.848,8.413-0.573c-0.259-8.472-5.238-23.226-16.344-22.712
		c-0.001,0.011-0.002,0.021-0.004,0.032c-0.33,0.989-1.021,1.607-1.856,2.192c-3.658,2.566-8.086,4.221-12.585,3.817
		c-1.09-0.098-2.171-0.283-3.236-0.533c-1.068-0.251-3.033-0.662-4.29-1.476c2.474-1.774,5.052-3.411,7.724-4.898
		c0.682,0.139,1.368,0.281,2.064,0.379c2.474,0.277,4.864-0.79,7.195-1.446c1.456-0.412,4.199-0.845,4.869,0.697
		c0.358-0.064,0.721-0.109,1.088-0.135c11.768-0.815,16.724,15.228,16.589,24.229c0.763,0.11,1.521,0.254,2.273,0.43
		c0.768-8.619,6.902-23.551,18.234-21.93c0.414,0.059,0.821,0.144,1.221,0.252c1.309-1.687,5.099-0.171,6.591,0.364
		c4.188,1.5,7.241,3.828,9.588,7.628c0.771,1.246,1.498,2.607,2.041,3.966c1.226,3.063-1.403,4.146-3.948,3.156
		c-0.855-0.333-1.709-0.813-2.387-1.439c-1.559-1.438-2.331-3.538-3.639-5.18c-2.088-2.448-5.414-3.167-7.627-5.378
		c-0.518-0.517-0.985-1.203-1.01-1.937c-10.867-1.261-16.805,12.424-17.846,20.815c0.222,0.062,0.427,0.122,0.619,0.178
		c3.9,1.154,1.938,1.143,4.436-0.911c3.543-2.912,8.191-1.935,11.606,0.632c5.813,4.37,9.075,13.091,7.413,20.193
		c4.847,8.088,7.462,17.293,6.568,25.316C203.15,148.439,196.155,150.924,187.824,149.632L187.824,149.632z"/>
	<path fill="#C4C4C4" d="M256.981,143.415c-0.194,0.748-0.39,1.497-0.583,2.245c0.143,0.055,0.285,0.111,0.425,0.169
		c-1.487,18.344-9.241,34.962-21.108,47.704c-0.545-0.093-1.078-0.188-1.594-0.291c-4.174-0.826-20.736-5.252-14.121-13.623
		c3.877-4.907,4.205-6.845,4.989-14.076c0.21-1.945,0.396-3.893,0.562-5.842c-0.928-0.454-1.801-1.077-2.582-1.87
		c-1.656-1.682-2.881-3.819-3.934-5.915c-2.16-4.299-3.371-11.358,1.848-13.999c2.016-0.817,4.006-0.643,5.848,0.125
		c0.584-18.412,0.997-36.337,3.255-54.526c0.147-1.163,0.306-2.322,0.468-3.482c16.326,14.593,26.633,35.794,26.633,59.327
		C257.085,140.721,257.05,142.072,256.981,143.415L256.981,143.415z"/>
	<path fill="#C4C4C4" d="M198.57,195.728c3.191,7.317,0.094,15.646-4.674,21.516c-5.295,1.119-10.779,1.707-16.4,1.707
		c-10.509,0-20.552-2.057-29.75-5.785c3.583-6.844,8.022-13.303,13.343-18.91c1.983-2.09,4.249-4.43,7.15-5.104
		c7.336-1.705,14.51,4.08,21.944,3.85C193.076,192.916,197,192.762,198.57,195.728L198.57,195.728z"/>
	<path fill="#C4C4C4" d="M173.388,157.312c0.452-0.031,0.602,0.039,0.829-0.339c0.843-1.401,0.703-4.01,0.422-5.569
		c-0.053-0.296-0.059-0.562-0.067-0.865l0.345-0.713l0.574-0.413c1.793-0.517,3.35,0.375,4.98,0.989
		c0.179,0.067,0.375,0.098,0.56,0.143l0.659,0.379l0.233,0.911c-0.516,1.626-1.266,3.51-0.742,5.222
		c0.26,0.853,0.785,1.591,0.859,2.493c0.164,2.045-0.766,4.951-2.724,5.865c-1.736,0.811-4.01,0.584-5.811,0.104
		c-2.896-0.772-3.547-4.361-1.822-6.55C172.194,158.324,172.709,157.781,173.388,157.312L173.388,157.312z"/>
	<path fill="#C4C4C4" d="M182.265,162.106c2.852,8.482,20.854-5.036,24.251-7.737c3.668-2.916,14.653-15.102,20.31-9.782
		c2.389,3.074,4.967,6.721,6.727,10.176c5.17,10.15-11.32,11.172-17.857,10.968c-1.734-0.054-9.277-0.942-10.299,0.855
		c-2.736,3.582-6.764,2.167-10.279,3.734c-2.361,1.369,3,9.41,3.863,11.07c3.131,6.014,5.34,14.422,0.852,20.465
		c-2.805,2.198-7.062,2.68-10.518,3.18c-9.869,1.432-21.112,2.338-31.099,1.369c-14.831-1.438,0.668-31.298,6.294-36.622
		c3.555-2.663-2.382-3.03-4.246-2.85c-1.381,0.132-2.129,0.3-3.44-0.045c-3.38-0.897-4.566,3.466-8.142,2.354
		c-1.107-0.346-2.176-1.448-3.341-1.07c-4.761,1.549-10.096,9.481-15.367,7.592c-5.935-3.783-5.891-17.175-4.616-23.247
		c0.951-4.531,3.334-6.09,7.925-5.172c7.511,1.501,14.901,5.954,21.828,9.121c4.141,1.894,8.437,3.848,12.933,4.71
		c2.456,0.471,6.018-3.908,7.378-0.168c0.273,0.752,0.935,1.388,1.752,1.474C179.229,162.7,180.845,158.184,182.265,162.106
		L182.265,162.106z"/>
	<path d="M201.158,195.728c3.365,7.713-0.261,16.553-5.462,22.446c-14.68,3.261-29.948,2.67-44.221-2.235
		c-0.724-0.25-1.446-0.502-2.168-0.754c3.749-7.591,8.53-14.773,14.371-20.931c1.983-2.09,4.249-4.43,7.15-5.104
		c7.335-1.705,14.511,4.08,21.944,3.851C195.666,192.916,199.589,192.762,201.158,195.728L201.158,195.728z"/>
	<path fill="#F79239" d="M199.992,196.289c1.981,4.246,1.842,13.252-4.986,20.713c-5.637,1.272-11.496,1.947-17.508,1.947
		c-9.239,0-18.118-1.591-26.379-4.507c4.493-9.35,14.625-21.95,18.813-23.655c6.199-2.521,14.934,3.537,21.613,3.537
		C193.901,194.324,198.803,193.74,199.992,196.289L199.992,196.289z"/>
	<path d="M175.977,157.312c0.452-0.031,0.602,0.039,0.829-0.339c0.844-1.401,0.703-4.01,0.422-5.569
		c-0.053-0.296-0.059-0.562-0.067-0.865l0.344-0.713l0.575-0.413c1.793-0.517,3.351,0.375,4.979,0.989
		c0.178,0.067,0.375,0.098,0.56,0.143l0.659,0.379l0.231,0.911c-0.514,1.626-1.264,3.51-0.74,5.222
		c0.26,0.853,0.786,1.591,0.857,2.493c0.166,2.045-0.764,4.951-2.723,5.865c-1.734,0.811-4.01,0.584-5.81,0.104
		c-2.896-0.772-3.547-4.361-1.822-6.55C174.783,158.324,175.298,157.781,175.977,157.312L175.977,157.312z"/>
	<path d="M136.993,144.606c6.941,0,12.603,5.821,12.603,12.958s-5.662,12.958-12.603,12.958c-6.941,0-12.603-5.821-12.603-12.958
		S130.052,144.606,136.993,144.606L136.993,144.606z"/>
	<path d="M230.208,136.488c6.941,0,12.604,5.821,12.604,12.958c0,7.137-5.662,12.958-12.604,12.958
		c-6.941,0-12.603-5.821-12.603-12.958C217.606,142.309,223.268,136.488,230.208,136.488L230.208,136.488z"/>
	<path d="M272.082,99.875c-3.061,13.629-7.014,27.052-10.506,40.607c2.553,0.981,4.775,2.54,6.118,4.558
		c1.55,2.33,1.66,5.371-0.544,7.316c-0.505,0.446-1.982,1.023-1.746,1.808c0.688,2.258,0.023,4.368-1.755,5.923
		c-0.644,0.562-0.616,0.356-0.222,0.993c1.154,1.864,0.547,4.379-0.909,5.894c-1.737,1.805-4.411,2.582-7.165,2.501
		c-0.167,1.067-0.325,2.136-0.475,3.207c-0.478,3.428,0.648,6.051,1.857,8.999c3.459,8.438-9.059,8.047-17.439,6.385
		c-4.172-0.825-20.736-5.252-14.121-13.623c3.877-4.907,4.207-6.844,4.99-14.075c0.211-1.945,0.396-3.893,0.562-5.842
		c-0.93-0.454-1.803-1.077-2.582-1.87c-1.656-1.682-2.882-3.819-3.936-5.916c-2.16-4.299-3.369-11.357,1.85-13.999
		c2.016-0.817,4.005-0.644,5.846,0.125c0.438-13.781,0.493-27.604,1.363-41.338C247.358,87.929,259.546,91.71,272.082,99.875
		L272.082,99.875z"/>
	<path d="M184.853,159.518c2.852,8.482,20.854-5.036,24.252-7.737c3.668-2.917,14.652-15.102,20.309-9.782
		c2.39,3.073,4.969,6.721,6.728,10.176c5.17,10.151-11.32,11.172-17.856,10.968c-1.736-0.054-9.279-0.942-10.301,0.856
		c-2.736,3.582-6.763,2.166-10.277,3.734c-2.361,1.369,2.998,9.41,3.861,11.068c3.133,6.015,5.342,14.425,0.852,20.466
		c-2.805,2.2-7.061,2.68-10.518,3.182c-9.867,1.432-21.111,2.338-31.098,1.367c-14.831-1.438,0.668-31.297,6.293-36.622
		c3.555-2.663-2.381-3.03-4.245-2.85c-1.381,0.132-2.129,0.299-3.44-0.045c-3.381-0.897-4.566,3.467-8.142,2.354
		c-1.107-0.345-2.176-1.448-3.342-1.07c-4.761,1.549-10.096,9.481-15.367,7.592c-5.935-3.783-5.891-17.175-4.616-23.247
		c0.951-4.53,3.334-6.089,7.925-5.172c7.511,1.501,14.9,5.953,21.827,9.121c4.141,1.894,8.438,3.848,12.933,4.71
		c2.456,0.472,6.018-3.908,7.379-0.167c0.271,0.752,0.934,1.388,1.752,1.473C181.818,160.112,183.433,155.596,184.853,159.518
		L184.853,159.518z"/>
	<path d="M190.412,147.043c1.002,3.042-1.336,6.146-4.222,6.916c-10.918,1.898-23.616-11.843-28.896-20.169
		c-8.17-12.886-12.258-36.544,6.448-42.465c2.83-0.686,5.648-0.849,8.413-0.574c-0.259-8.472-5.237-23.226-16.344-22.712
		c-0.001,0.011-0.002,0.021-0.004,0.033c-0.33,0.989-1.021,1.607-1.856,2.192c-3.658,2.565-8.087,4.221-12.585,3.816
		c-1.09-0.097-2.171-0.283-3.236-0.533c-1.943-0.456-6.864-1.445-5.061-4.42c0.638-1.054,1.919-1.694,3.051-2.061
		c2.558-0.829,4.964,0.131,7.508,0.487c2.474,0.277,4.864-0.79,7.196-1.446c1.456-0.411,4.198-0.845,4.869,0.698
		c0.358-0.065,0.721-0.11,1.089-0.135c11.768-0.815,16.724,15.229,16.589,24.229c0.763,0.11,1.521,0.254,2.273,0.431
		c0.767-8.619,6.902-23.552,18.234-21.93c0.414,0.059,0.82,0.144,1.221,0.252c1.309-1.686,5.099-0.172,6.591,0.364
		c4.188,1.5,7.241,3.828,9.588,7.629c0.771,1.246,1.498,2.607,2.041,3.966c1.226,3.063-1.403,4.146-3.948,3.155
		c-0.854-0.333-1.709-0.813-2.387-1.439c-1.559-1.438-2.331-3.538-3.639-5.181c-2.088-2.448-5.415-3.167-7.627-5.378
		c-0.518-0.517-0.985-1.203-1.01-1.937c-10.867-1.261-16.805,12.424-17.846,20.815c0.221,0.062,0.427,0.122,0.619,0.179
		c3.9,1.154,1.938,1.143,4.436-0.911c3.543-2.913,8.191-1.935,11.605,0.632c5.814,4.37,9.076,13.091,7.414,20.193
		c4.848,8.088,7.462,17.293,6.568,25.315C205.74,145.851,198.744,148.335,190.412,147.043L190.412,147.043z"/>
	<path fill="#F79239" d="M176.421,158.579c2.657,0,2.415-5.798,2.047-7.58c-0.227-1.096,2.854,0,3.693,0.42
		c1.398,0.7,1.028-0.172,0.699,1.26c-0.604,2.627-1.049,3.559,0.33,6.37c0.512,1.041-0.33,3.92-1.1,4.69
		c-1.329,1.33-4.336,0.91-5.805,0.49c-1.678-0.49-2.028-2.59-1.329-3.99C175.098,159.96,176.071,158.789,176.421,158.579
		L176.421,158.579z"/>
	<path d="M182.485,158.981c0.825-0.941,1.476-0.06,1.757,0.75c3.209,9.236,21.035-4.081,25.266-7.444
		c2.888-2.296,15.498-15.54,19.711-9.484c2.15,3.089,4.635,6.305,6.345,9.666c4.812,9.443-10.974,10.224-17.26,10.028
		c-1.952-0.062-9.552-0.782-10.607,0.697c-2.034,3.578-6.61,2.648-9.961,3.817c-3.987,1.777,3.206,11.752,4.453,14.535
		c2.272,5.066,2.88,10.305,0.685,15.562c-2.021,4.842-11.849,4.881-16.22,5.324c-8.399,0.848-17.368,1.553-25.787,0.737
		c-13.715-1.33,1.252-30.376,6.648-35.481c4.662-3.493-3.097-4.22-5.4-3.912c-2.38,0.317-3.905-1.051-6.046,0.538
		c-2.554,1.895-3.534,2.49-6.482,0.862c-2.535-1.396-7.532,3.478-9.523,4.828c-3.503,2.379-6.636,4.697-9.432,0.232
		c-3.012-5.97-3.789-16.345-1.278-22.688c3.119-5.945,15.161,0.873,19.245,2.774c6.944,3.233,14.328,7.457,21.926,8.903
		c1.924,0.366,5.641-2.889,6.722-1.027C178.237,160.859,180.744,161.382,182.485,158.981L182.485,158.981z"/>
	<path fill="#C4C4C4" d="M132.886,161.202c1.356,3.322-0.088,6.644-2.866,8.71c2.687,2.074,3.741,5.247,2.085,8.354
		c-4.291,6.912-17.632,6.89-22.269,0.383c-1.599-2.58-1.4-5.458,0.87-7.541c0.442-0.407,0.566-0.302,0.096-0.739
		c-2.054-1.741-3.863-3.457-3.963-6.345c-0.063-1.865,0.765-3.214,1.939-4.568c0.732-0.846,0.442-0.75-0.292-1.542
		c-2.475-2.669-2.689-6.077-0.46-9.077c5.636-6.686,18.824-6.652,25.002-0.792c3.563,3.778,2.655,8.369-1.319,11.246
		C132.189,159.884,132.578,160.507,132.886,161.202L132.886,161.202z"/>
	<path fill="#2E3192" d="M182.992,159.385c0.514-0.753,0.768,1.543,1.271,2.104c6.647,7.428,26.458-8.713,32.12-14.375
		c1.709-1.709,9.918-7.523,12.312-3.932c7.694,11.626,13.165,15.73-4.616,18.637c-3.078,0.513-15.9-1.026-16.928,1.026
		c-2.395,4.958-13.41,0.53-11.113,7.694c2.405,7.502,11.465,15.62,5.744,27.415c-2.123,4.379-38.826,5.676-42.769,4.242
		c-9.205-3.344,4.649-31.372,9.39-34.363c2.851-1.798,0.913-5.938-7.107-4.586c-1.456,0.245-2.961-1.385-5.366,0.367
		c-2.715,1.979-2.882,2.797-6.346,0.819c-2.719-1.552-7.299,4.111-13.959,7.475c-7.379,3.727-8.845-22.492-4.654-25.504
		c5.416-3.892,27.711,11.419,39.444,13.46c3.043,0.529,5.802-2.91,6.295-1.246C177.521,161.352,180.957,162.372,182.992,159.385
		L182.992,159.385z"/>
	<path fill="#FFFFFF" d="M165.903,99.249c-4.917,2.032-6.538,9.686-3.619,17.092c2.919,7.406,9.274,11.765,14.192,9.733
		c4.917-2.032,6.539-9.686,3.62-17.092C177.176,101.575,170.821,97.217,165.903,99.249L165.903,99.249z"/>
	<path d="M167.298,105.382c-2.372,0.98-3.154,4.672-1.746,8.245c1.408,3.572,4.474,5.675,6.846,4.695
		c2.372-0.98,3.154-4.672,1.746-8.245C172.736,106.504,169.671,104.402,167.298,105.382L167.298,105.382z"/>
	<path fill="#FFFFFF" d="M169.535,110.142c-0.775,0.162-1.271,0.922-1.11,1.697c0.162,0.775,0.922,1.271,1.697,1.11
		c0.775-0.162,1.272-0.922,1.11-1.697C171.07,110.478,170.311,109.98,169.535,110.142L169.535,110.142z"/>
	<path fill="#FFFFFF" d="M184.423,90.901c-4.918,2.032-6.539,9.686-3.619,17.092c2.919,7.406,9.273,11.765,14.191,9.733
		c4.918-2.032,6.539-9.686,3.619-17.092C195.696,93.228,189.341,88.869,184.423,90.901L184.423,90.901z"/>
	<path d="M185.619,96.846c-2.371,0.98-3.154,4.672-1.746,8.245c1.408,3.572,4.475,5.675,6.846,4.695
		c2.373-0.98,3.154-4.672,1.746-8.245C191.057,97.968,187.992,95.865,185.619,96.846L185.619,96.846z"/>
	<path fill="#FFFFFF" d="M187.855,101.606c-0.773,0.162-1.271,0.921-1.109,1.697c0.162,0.775,0.922,1.272,1.696,1.11
		s1.272-0.922,1.11-1.697C189.391,101.941,188.63,101.443,187.855,101.606L187.855,101.606z"/>
	<path d="M185.294,88.247c-1.715,0.356-3.66,1.638-5.123,2.467c-1.426,0.808-2.275,0.964-2.273,0.568
		c0.003-0.406,0.795-1.168,2.107-2.2c1.332-1.047,3.113-2.33,5.031-3.006c1.785-0.628,4.547,0.494,5.476,0.793
		c1.11,0.359,1.78,0.756,1.749,1.191c-0.032,0.435-0.622,1.243-1.877,0.956C189.382,88.789,187.009,87.891,185.294,88.247
		L185.294,88.247z"/>
	<path d="M170.404,140.87c1.92,2.7,13.292,13.538,15.824,8.274c0.27-0.841-0.32-3.397,0.688-3.568
		c-6.75-2-14.595-6.74-19.722-11.734c-0.99-0.964-0.652-3.081-1.699-1.864c-0.532,0.619,0.408,0.686,0.806,1.517
		C167.537,136.076,168.766,138.505,170.404,140.87L170.404,140.87z M189.078,146.138c2.623,2.46-0.488,6.934-3.461,7.263
		c-10.615,1.181-22.595-11.787-27.775-19.958c-7.451-11.754-12.25-34.956,4.85-41.104c1.382-0.497,10.055-2.307,10.08-0.066
		c0.403-1.009,3.192-0.435,3.208,0.653c0.815-0.994,5.159,0.557,4.438,2.208c-1.047,2.401-1.178,5.201-0.896,7.776
		c0.645,5.981-2.479,0.455-4.464-1.293c-2.276-2.001-5.234-3.358-8.306-2.625c-12.98,3.097-3.349,31.495,9.312,27.21
		c4.926-1.667,5.847-7.725,5.313-12.236c-0.635-5.386,2.427-0.595,3.979,0.876c4.704,4.449,10.604,4.665,13.7-1.383
		c0.494-0.965,1.357-1.151,1.963-0.159c5.548,9.083,12.009,31.628-4.434,33.315C194.104,146.87,191.519,146.67,189.078,146.138
		L189.078,146.138z M172.69,92.994c-0.022,0.113-0.178,0.745-0.046,0.797C172.71,93.539,172.684,93.253,172.69,92.994L172.69,92.994
		z M166.615,96.061c-2.592,0.093-6.045,2.046-6.84,4.749c0.514,0.305,1.045-0.258,1.357-0.594c3.554-3.813,5.519-3.471,10.157-3.804
		C169.755,96.155,168.171,96.021,166.615,96.061L166.615,96.061z"/>
	<path fill="#F79239" d="M201.044,114.74c6.592,12.943,10.703,33.533-9.614,31.138c-5.87-0.692-11.411-3.745-16.366-6.833
		c-1.126-0.702-4.368-3.067-6.279-4.672c-1.086-0.912-3.101-2.5-1.127-2.889c0.527-0.104,0.581-0.551,0.508-0.718
		c-0.073-0.167-0.398-0.183-0.878-0.1c-0.4,0.07-1.639,0.19-2.177,0.77c-0.578,0.622-0.987,1.442-1.276,2.088
		c-0.285,0.636-0.429,1.071-0.352,1.221c0.077,0.147,0.414-0.044,0.73-0.651c1.007-1.933,1.244-0.871,1.983,0.757
		c1.38,3.038,3.966,7.32,6.436,9.724c5.534,5.383,14.23,9.573,14.483,3.318c0.045-1.102-0.734-1.716,0.245-1.716
		c3.306,0,2.292,6.053-1.825,6.582c-9.163,1.176-21.038-11.161-25.201-16.817c-11.024-14.979-11.696-33.321-1.495-40.829
		c3.658-2.691,8.23-3.633,13.1-3.045c0.643,0.078-0.655,2.035,0.54,2.354c1.415,0.378,0.489-2.224,1.11-2.099
		c0.556,0.112,0.972,0.208,1.535,0.35c0.716,0.18-0.686,2.317,0.357,2.517c1.42,0.273,0.542-2.305,1.373-2.039
		c0.839,0.269,1.765,0.604,2.635,0.963c0.72,0.296,0.394,0.549,0.164,1.154c-1.024,2.692-1.085,5.94-0.629,8.8
		c0.216,1.356,0.261,1.592-0.7,0.24c-2.881-4.06-7.63-7.519-12.666-5.66c-6.931,3.174-6.096,12.797-3.682,18.632
		c2.303,5.07,7.015,10.632,13.195,9.834c6.194-1.272,7.591-8.159,6.78-13.754c-0.246-1.708-0.156-1.775,0.745-0.557
		c3.478,4.699,9.665,8.59,14.802,4.05c0.858-0.872,1.553-1.833,2.033-2.886C200.103,112.717,200.274,113.228,201.044,114.74
		L201.044,114.74z M165.227,97.661c1.647-0.595,3.976-0.52,5.657-0.579c1.638-0.058,2.444-0.37,2.235-0.707
		c-0.214-0.344-1.288-0.579-2.946-0.771c-1.684-0.195-3.874-0.356-5.86,0.073c-1.852,0.399-3.616,2.801-4.25,3.541
		c-0.76,0.888-1.123,1.578-0.867,1.932c0.255,0.353,1.18,0.732,2.099-0.169C162.028,100.262,163.578,98.255,165.227,97.661
		L165.227,97.661z"/>
	<path fill="#C4C4C4" d="M136.063,134.968c-1.002,2.858-2.212,5.59-3.364,8.384c-1.277,3.091-0.225,2.773,1.871,5.3
		c2.837,3.419,2.923,6.67,2.716,10.883c-0.168,3.445,0.137,6.523,1.049,9.86c1.5,5.482-3.293,10.838-8.508,11.783
		c-3.5,0.632-11.792,1.91-13.366-2.586c-2.31-6.595,0.183-15.117,2.069-21.563c0.71-2.429,1.568-4.836,2.187-7.289
		c0.274-1.086-0.214-1.826-0.029-2.907c0.718-4.169,0.692-7.977,0.314-12.226c-0.403-4.556-0.278-10.369,3.414-13.708
		c5.433-4.91,11.491,3.093,12.212,8.128C136.919,131.072,136.679,133.009,136.063,134.968L136.063,134.968z"/>
	<path d="M138.063,156.025c1.356,3.321-0.088,6.644-2.866,8.71c2.686,2.074,3.741,5.246,2.085,8.354
		c-4.291,6.913-17.632,6.889-22.269,0.383c-1.599-2.579-1.4-5.458,0.869-7.541c0.443-0.406,0.567-0.301,0.096-0.738
		c-2.054-1.741-3.863-3.457-3.963-6.345c-0.063-1.865,0.765-3.214,1.939-4.568c0.732-0.846,0.442-0.751-0.292-1.542
		c-2.475-2.668-2.689-6.076-0.46-9.077c5.637-6.685,18.824-6.652,25.003-0.792c3.563,3.778,2.654,8.37-1.319,11.246
		C137.366,154.707,137.755,155.33,138.063,156.025L138.063,156.025z"/>
	<path fill="#F79239" d="M143.465,68.836c0.672,0.09,0.531,0.157,1.046,0.549c0.425,0.325,1.022,0.662,1.416,1.364
		c1.247,2.222,0.143,2.008-2.243,2.102c-0.551,0.022-0.393-0.478-0.489-0.984c-0.128-0.667-0.426-2.023-1.128-2.744
		C141.066,68.095,141.951,68.634,143.465,68.836L143.465,68.836z M145.555,68.825c0.506-0.061,1.76-0.522,2.117-0.245
		c0.367,0.273,0.879,0.563,1.222,1.174c1.238,2.214-1.113,2.766-1.597,1.633c-0.229-0.535-0.597-1.31-1.051-1.907
		C146.025,69.192,145.789,68.982,145.555,68.825L145.555,68.825z M148.637,68.136c0.905-0.268,1.769-0.559,2.542-0.785
		c2.156-0.629,3.417-0.423,3.385,0.281c-0.034,0.723-1.254,1.63-3.261,2.722c-0.763,0.415-0.876,0.781-1.226-0.051
		c-0.2-0.463-0.515-1.132-0.907-1.644C148.999,68.435,148.817,68.266,148.637,68.136L148.637,68.136z M136.851,71.862
		c-1.798-0.398-2.915-0.866-2.835-1.623c0.079-0.759,1.292-1.685,3.181-2.133c1.417-0.336,2.458-0.228,3.319,0.784
		c0.404,0.476,1.019,1.003,1.276,1.907C142.764,74.211,139.427,72.432,136.851,71.862L136.851,71.862z"/>
	<path fill="#F79239" d="M204.638,77.707c-0.457-0.645-2.203-1.685-1.559-2.056c0.471-0.269,1.02-0.693,1.828-0.785
		c0.649-0.073,2.061-0.508,2.516-0.059c0.211,0.208,2.402,2.35,1.695,2.251c-0.666-0.093-1.65-0.191-2.51-0.097
		C204.828,77.155,204.9,78.075,204.638,77.707L204.638,77.707z M200.341,73.758c0.365-0.28,0.783-0.699,1.457-0.867
		s1.328-0.226,1.633-0.429c0.593-0.396,3.383,1.374,2.609,1.378c-0.59,0.003-1.455,0.042-2.189,0.231
		c-0.788,0.204-1.244,0.631-1.551,0.982C201.75,75.691,199.73,74.225,200.341,73.758L200.341,73.758z M198.291,73.08
		c-1.932-1.148-2.642-2.209-2.104-2.667c0.552-0.469,2.048-0.195,4.215,0.527c0.224,0.074,2.933,0.862,2.239,0.958
		c-0.497,0.069-1.227,0.198-1.824,0.44c-0.645,0.26-0.98,0.672-1.199,1.003C199.205,73.965,198.919,73.453,198.291,73.08
		L198.291,73.08z M211.363,80.479c0.811,1.653,1.355,2.722,0.747,3.18c-0.608,0.459-2.112,0.205-3.729-0.872
		c-1.84-1.225-4.742-4.88-0.709-4.756C210.205,78.109,210.173,78.054,211.363,80.479L211.363,80.479z"/>
	<path d="M141.296,131.563c-0.907,2.433-1.998,4.775-2.953,7.184c-0.865,2.186-0.349,1.82,1.279,3.599
		c3.193,3.49,3.755,6.837,3.522,11.383c-0.188,3.625,0.031,6.797,0.993,10.32c1.596,5.85-3.417,11.58-9.019,12.588
		c-4.251,0.766-11.972,1.879-14.088-2.995c-2-6.345-0.275-13.545,1.43-19.774c0.868-3.169,2-6.281,2.805-9.462
		c0.227-0.9-0.17-1.479-0.101-2.389c0.034-0.461,0.153-0.915,0.25-1.366c1.685-7.902-2.979-18.445,3.354-25.03
		c4.033-4.191,9.572-0.923,12.006,3.299C143.137,123.018,142.869,127.215,141.296,131.563L141.296,131.563z"/>
	<path d="M136.993,145.253c5.767,0.149,10.581,4.147,11.713,9.839c1.611,8.096-5.161,15.961-13.532,14.641
		c-3.72-0.588-6.943-2.999-8.694-6.315C122.215,155.338,127.854,145.49,136.993,145.253L136.993,145.253z"/>
	<path fill="#2E3192" d="M136.993,145.901c6.228,0,11.308,5.24,11.308,11.664c0,6.424-5.08,11.664-11.308,11.664
		c-6.229,0-11.309-5.24-11.309-11.664C125.684,151.141,130.764,145.901,136.993,145.901L136.993,145.901z"/>
	<path d="M135.647,145.239c5.488,0,9.963,4.616,9.963,10.276c0,5.66-4.475,10.276-9.963,10.276c-5.487,0-9.963-4.616-9.963-10.276
		C125.684,149.855,130.16,145.239,135.647,145.239L135.647,145.239z"/>
	<path d="M141.24,129.791c-1.001,2.858-2.212,5.59-3.364,8.384c-1.277,3.091-0.225,2.773,1.871,5.299
		c2.837,3.419,2.923,6.671,2.715,10.883c-0.168,3.445,0.138,6.523,1.049,9.86c1.5,5.482-3.293,10.839-8.508,11.782
		c-3.5,0.631-11.792,1.91-13.366-2.585c-2.31-6.596,0.184-15.118,2.069-21.563c0.71-2.429,1.568-4.836,2.187-7.289
		c0.274-1.087-0.214-1.826-0.029-2.907c0.718-4.169,0.692-7.977,0.315-12.226c-0.404-4.556-0.278-10.369,3.414-13.708
		c5.433-4.91,11.491,3.093,12.212,8.128C142.097,125.895,141.856,127.832,141.24,129.791L141.24,129.791z"/>
	<path fill="#F79239" d="M140.626,129.586c-2.955,8.571-5.224,10.509-3.358,12.235c8.322,7.696,2.235,11.3,5.62,22.565
		c1.662,5.531-4.193,10.223-7.132,10.812c-4.434,0.89-12.135,1.765-13.511-2.009c-3.385-9.282,4.995-28.388,4.449-29.761
		c-0.986-2.479,1.388-1.408,0.011-15.316c-0.713-7.2,2.525-13.99,7.221-13.109C138.622,115.885,142.985,122.746,140.626,129.586
		L140.626,129.586z"/>
	<path d="M230.208,137.135c6.959,0.18,12.281,5.978,11.94,12.942c-0.399,8.225-8.854,14.091-16.594,10.708
		c-8.714-3.808-9.782-16.134-2.032-21.537C225.533,137.847,227.777,137.198,230.208,137.135L230.208,137.135z"/>
	<path fill="#2E3192" d="M230.208,137.782c6.229,0,11.31,5.24,11.31,11.664c0,6.424-5.08,11.664-11.31,11.664
		c-6.229,0-11.309-5.24-11.309-11.664C218.9,143.022,223.98,137.782,230.208,137.782L230.208,137.782z"/>
	<path d="M264.766,110.155c-0.486-1.541-0.634-3.163-0.552-4.808c-1.121-2.072-1.27-4.721-0.799-7.118
		c-9.697-4.816-19.203-6.422-30.354-3.572c0.475-6.963,1.105-13.841,2.075-20.729c7.272-2.014,14.29-2.051,21.11-0.406
		c3.196-4.404,10.121-3.115,12.332,2.488c3.808-1.655,7.498,1.983,7.879,6.671c2.383,2.888,2.31,7.643-0.349,10.227
		c0.243,1.121,0.13,2.296-0.29,3.331c0.963,3.131-0.162,6.762-2.652,8.21c-0.219,2.459-1.057,4.972-2.422,6.808
		C268.662,114.065,266.012,113.681,264.766,110.155L264.766,110.155z"/>
	<path d="M231.648,136.338c5.438,0,9.869,4.573,9.869,10.179s-4.434,10.179-9.869,10.179s-9.868-4.573-9.868-10.179
		S226.214,136.338,231.648,136.338L231.648,136.338z"/>
	<path d="M271.369,100.343c-5.406,24.082-13.668,47.688-17.059,72.184c-0.562,4.066,1.036,6.833,2.277,10.49
		c0.771,2.271-0.176,3.568-2.445,4.148c-8.646,2.211-21.57-0.439-28.452-6.082c-3.286-2.693-0.735-5.22,1.228-7.671
		c3.205-3.999,3.271-7.841,3.82-12.918c2.449-22.647,1.631-45.517,3.066-68.234C247.611,88.73,259.729,92.754,271.369,100.343
		L271.369,100.343z"/>
	<path fill="#FFF200" d="M270.64,100.64c-5.299,24.011-13.493,47.4-16.971,71.804c-1.34,9.392,7.723,13.411-1.937,14.474
		c-2.556,0.281-6.733,0.517-12.169-0.582c-5.902-1.19-9.452-3.315-11.617-4.528c-8.146-4.566,1.45-6.466,2.573-14.347
		c3.479-24.427,2.235-49.872,3.899-74.689C246.309,89.535,258.392,92.5,270.64,100.64L270.64,100.64z"/>
	<path d="M235.671,74.553c2.475-0.685,4.922-1.235,7.455-1.47c11.207-1.043,21.662,3.314,31.396,9.793
		c-0.921,6.37-2.12,12.627-3.491,18.871c-10.689-6.963-22.096-11.285-34.275-8.768c-1.01,0.209-2.01,0.478-3.012,0.735
		C234.182,87.285,234.777,80.913,235.671,74.553L235.671,74.553z"/>
	<path d="M235.162,78.339c0.16-1.263,0.332-2.523,0.51-3.783c7.006-1.993,14.115-2.179,21.138-0.229
		c0.377-1.638,2.799-2.525,4.05-2.681c3.028-0.376,6.381,1.653,7.381,5.347c3.702-2.103,7.288,1.371,7.631,6.039
		c2.494,2.691,2.168,7.294-0.479,9.596c0.376,1.22,0.281,2.435-0.249,3.565c1.044,3.002-0.021,6.529-2.558,7.747
		c-0.133,2.968-2.182,9.311-5.334,8.409c-2.201-0.93-2.597-4.804-2.41-7.222c-1.282-2.004-1.286-5.165-0.662-7.482
		c-9.047-4.729-18.973-6.792-28.696-4.377c-0.581,0.145-1.159,0.3-1.741,0.45C234.093,88.57,234.528,83.446,235.162,78.339
		L235.162,78.339z"/>
	<path fill="#FFFFFF" d="M236.207,75.177c6.811-2.005,13.685-1.964,20.617-0.073l0,0c0.117,0.032,0.233,0.064,0.352,0.097
		c0.044,0.013,0.087,0.025,0.131,0.038c0.16,0.046,0.322,0.093,0.484,0.141c0.024,0.008,0.051,0.016,0.076,0.023
		c0.166,0.05,0.332,0.101,0.498,0.152c0.029,0.009,0.061,0.019,0.09,0.028c0.164,0.052,0.33,0.104,0.494,0.158
		c0.032,0.011,0.065,0.022,0.1,0.033c0.15,0.049,0.303,0.1,0.453,0.152c0.062,0.021,0.125,0.042,0.188,0.064
		c0.129,0.044,0.259,0.09,0.388,0.136c0.066,0.024,0.135,0.047,0.201,0.072c0.145,0.052,0.289,0.104,0.436,0.159
		c0.041,0.015,0.082,0.03,0.123,0.046c0.162,0.061,0.324,0.122,0.486,0.185c0.035,0.014,0.07,0.027,0.105,0.041
		c0.152,0.06,0.308,0.12,0.461,0.182c0.049,0.019,0.097,0.039,0.145,0.058c0.137,0.055,0.272,0.111,0.409,0.167
		c0.084,0.034,0.168,0.069,0.252,0.104c0.099,0.041,0.195,0.083,0.294,0.124c0.086,0.037,0.172,0.074,0.26,0.111
		c0.113,0.05,0.229,0.1,0.345,0.15c0.086,0.038,0.172,0.077,0.259,0.115c0.006,0.002,0.012,0.005,0.018,0.008
		c0.055,0.024,0.106,0.048,0.16,0.072c0.055,0.024,0.107,0.048,0.161,0.073c0.097,0.043,0.192,0.088,0.289,0.133
		c0.103,0.047,0.205,0.095,0.308,0.144c0.086,0.04,0.17,0.079,0.254,0.119c0.1,0.047,0.199,0.095,0.297,0.144
		c0.107,0.051,0.213,0.102,0.318,0.154c0.113,0.056,0.228,0.112,0.342,0.169c0.072,0.037,0.146,0.073,0.219,0.109
		c0.115,0.058,0.23,0.117,0.347,0.176c0.089,0.045,0.179,0.091,0.267,0.138c0.086,0.044,0.172,0.088,0.256,0.133
		c-3.176-2.082-6.379-3.751-9.616-4.986c1.3-1.461,3.278-2.188,5.342-1.743c2.668,0.574,4.665,2.933,5.032,5.646
		c0.997-0.815,2.193-1.182,3.406-0.921c2.314,0.499,3.945,3.128,4.021,6.183c1.243,1.25,1.922,3.178,1.642,5.145
		c-0.238,1.677-1.125,3.035-2.319,3.806c0.347,0.687,0.499,1.5,0.382,2.322c-0.079,0.551-0.271,1.047-0.543,1.466
		c0.438,0.966,0.622,2.128,0.453,3.314c-0.281,1.971-1.458,3.474-2.902,3.95c0.016,1.115-0.186,2.436-0.615,3.769
		c-0.986,3.042-2.812,5.024-4.062,4.412c-1.186-0.58-2.124-3.065-1.83-6.686c-0.883-1.231-1.298-3.415-0.965-5.748
		c0.097-0.679,0.249-1.321,0.445-1.908c-10.305-5.501-20.488-7.194-30.533-4.459C234.817,86.864,235.376,80.992,236.207,75.177
		L236.207,75.177z"/>
	<path d="M257.098,168.704c-3.69,0.364-7.693-0.754-10.231-3.561c-1.728-2.101-2.064-4.811,0.012-6.792
		c-2.883-2.581-3.504-6.36-0.035-8.833l0.223-0.144c-1.789-2.684-1.223-5.609,1.438-7.561c5.256-3.417,13.652-1.843,17.869,2.584
		c2.162,2.496,2.691,5.775-0.191,7.904c-0.658,0.486-1.639,0.9-1.449,1.86c0.67,2.324,0.094,4.042-1.742,5.643
		c-0.309,0.285-0.855,0.601-0.548,1.013c0.831,1.116,1.063,2.007,0.833,3.414C262.602,167.113,259.783,168.346,257.098,168.704
		L257.098,168.704z"/>
	<path d="M239.236,141.065c1.635,3.247,3.92,7.84,1.5,11.208c-1.938,2.214-5.365,2.876-8.15,2.297
		c-4.209-1.167-6.615-5.458-8.295-9.187c-1.578-3.836-2.426-9.797,2.039-12.053c4.244-1.723,8.519,1.641,11.035,4.783
		C238.072,139.054,238.686,140.023,239.236,141.065L239.236,141.065z"/>
	<path fill="#F79239" d="M238.662,141.362c2.799,5.495,4.346,10.703-1.563,12.374c-5.909,1.672-8.931-2.084-11.729-7.579
		c-2.799-5.495-2.097-11.054,1.563-12.375C230.593,132.462,235.861,135.868,238.662,141.362L238.662,141.362z"/>
	<path d="M274.757,127.276c0.209-1.005,0.152-1.978-0.014-2.983c-0.586-3.521-0.938-7.108-1.342-10.649
		c-1.537,3.284-3.195,6.319-3.628,9.942c-0.081,1.82,0.685,4.389,2.328,5.377C273.537,129.524,274.431,128.604,274.757,127.276
		L274.757,127.276z"/>
	<path fill="#FFFFFF" d="M273.46,127.129c0.396-1.497-0.119-2.941-0.28-4.404c-0.161-1.465-0.382-2.922-0.546-4.388
		c-0.813,1.719-1.268,3.411-1.547,5.166C270.777,125.456,272.832,129.505,273.46,127.129L273.46,127.129z"/>
	<path fill="#F79239" d="M262.639,164.107c-0.57,2.967-4.744,4.674-9.293,3.8c-4.548-0.874-7.793-4.007-7.224-6.974
		c0.141-0.727,0.496-1.377,1.021-1.933c1.305-1.383,4.085-2.099,5.898-1.926c1.488,0.142,1.647-0.004,0.17-0.229
		c-2.273-0.346-4.346,0.292-5.729,1.175c-1.751-1.476-2.684-3.309-2.343-5.078c0.274-1.429,1.335-2.589,2.878-3.363
		c-1.066-1.311-1.568-2.772-1.295-4.194c0.68-3.539,5.896-5.529,11.613-4.431c5.717,1.098,9.824,4.88,9.146,8.418
		c-0.569,2.966-4.151,2.679-3.315,5.167c0.229,0.689,0.293,1.394,0.16,2.088c-0.186,0.962-0.727,1.801-1.529,2.483
		C260.011,161.478,263.3,160.664,262.639,164.107L262.639,164.107z"/>
	<polygon points="137.749,143.328 138.09,143.689 138.405,144.063 138.693,144.451 138.952,144.85 139.181,145.261 139.378,145.683 
		139.543,146.116 139.673,146.558 139.767,147.01 139.825,147.468 139.844,147.927 139.838,148.182 139.822,148.43 139.794,148.675 
		139.756,148.919 139.708,149.161 139.648,149.399 139.58,149.636 139.5,149.87 139.413,150.101 139.314,150.329 139.207,150.554 
		139.09,150.775 138.965,150.994 138.832,151.209 138.689,151.42 138.539,151.628 138.381,151.833 138.215,152.034 138.041,152.231 
		137.859,152.425 137.671,152.615 137.475,152.801 137.272,152.984 137.062,153.163 136.846,153.337 136.623,153.508 
		136.394,153.675 136.157,153.838 135.916,153.997 135.913,153.999 135.989,154.077 136.123,154.221 136.253,154.367 
		136.378,154.515 136.5,154.665 136.617,154.818 136.73,154.973 136.838,155.129 136.942,155.287 137.042,155.448 137.137,155.611 
		137.227,155.775 137.312,155.94 137.393,156.109 137.468,156.279 137.538,156.45 137.604,156.624 137.664,156.798 137.718,156.975 
		137.768,157.153 137.811,157.332 137.85,157.513 137.882,157.695 137.908,157.878 137.929,158.063 137.944,158.248 
		137.953,158.435 137.956,158.625 137.95,158.881 137.933,159.139 137.905,159.395 137.865,159.648 137.814,159.899 
		137.752,160.148 137.681,160.393 137.598,160.636 137.506,160.875 137.404,161.111 137.292,161.344 137.17,161.574 
		137.041,161.799 136.901,162.021 136.753,162.239 136.597,162.454 136.432,162.664 136.259,162.87 136.078,163.072 135.89,163.27 
		135.694,163.464 135.491,163.654 135.28,163.839 135.062,164.02 134.837,164.197 134.606,164.369 134.369,164.536 134.125,164.699 
		134.077,164.729 134.233,164.833 134.447,164.981 134.654,165.133 134.855,165.289 135.051,165.449 135.24,165.613 135.423,165.78 
		135.599,165.952 135.769,166.127 135.932,166.307 136.088,166.49 136.235,166.676 136.376,166.865 136.51,167.059 136.636,167.256 
		136.753,167.456 136.863,167.66 136.964,167.867 137.057,168.077 137.14,168.29 137.215,168.505 137.28,168.724 137.336,168.945 
		137.381,169.169 137.417,169.395 137.444,169.623 137.459,169.853 137.464,170.089 137.449,170.488 137.4,170.887 137.322,171.279 
		137.214,171.665 137.077,172.041 136.913,172.409 136.722,172.767 136.506,173.114 136.267,173.451 136.004,173.777 
		135.721,174.091 135.415,174.395 135.089,174.686 134.745,174.965 134.381,175.232 134,175.488 133.602,175.73 133.187,175.959 
		132.756,176.175 132.311,176.377 131.851,176.565 131.377,176.739 130.89,176.898 130.391,177.043 129.88,177.172 129.358,177.285 
		128.826,177.381 128.284,177.461 127.732,177.525 127.172,177.57 126.604,177.598 126.03,177.607 125.456,177.598 124.888,177.57 
		124.328,177.525 123.777,177.461 123.234,177.381 122.702,177.285 122.18,177.172 121.669,177.043 121.17,176.898 120.684,176.739 
		120.21,176.565 119.75,176.377 119.304,176.175 118.874,175.959 118.459,175.73 118.061,175.488 117.68,175.232 117.316,174.965 
		116.971,174.686 116.646,174.395 116.34,174.091 116.056,173.777 115.793,173.451 115.554,173.114 115.338,172.767 
		115.148,172.409 114.984,172.042 114.847,171.665 114.738,171.279 114.659,170.887 114.611,170.488 114.595,170.084 
		114.611,169.658 114.658,169.259 114.732,168.885 114.833,168.536 114.957,168.211 115.099,167.911 115.257,167.635 
		115.427,167.382 115.605,167.15 115.787,166.939 115.969,166.746 116.148,166.57 116.322,166.409 116.485,166.261 116.635,166.126 
		116.768,166.003 116.881,165.893 116.971,165.794 117.036,165.713 117.075,165.651 117.093,165.611 117.098,165.589 117.1,165.572 
		117.095,165.541 117.075,165.482 117.028,165.389 116.943,165.262 116.813,165.105 116.636,164.92 116.41,164.709 116.131,164.474 
		115.793,164.208 115.623,164.075 115.45,163.936 115.281,163.792 115.117,163.646 114.957,163.497 114.802,163.346 
		114.651,163.193 114.505,163.037 114.364,162.877 114.228,162.716 114.096,162.552 113.97,162.386 113.848,162.217 
		113.732,162.046 113.622,161.874 113.516,161.698 113.417,161.519 113.322,161.339 113.234,161.157 113.152,160.973 
		113.075,160.786 113.005,160.598 112.941,160.407 112.883,160.215 112.832,160.021 112.787,159.826 112.749,159.628 
		112.717,159.43 112.692,159.229 112.675,159.028 112.664,158.826 112.66,158.616 112.674,158.246 112.713,157.888 112.777,157.547 
		112.861,157.224 112.965,156.919 113.085,156.631 113.219,156.36 113.363,156.105 113.515,155.866 113.672,155.642 
		113.832,155.431 113.991,155.233 114.148,155.046 114.3,154.871 114.445,154.704 114.58,154.548 114.703,154.4 114.812,154.263 
		114.905,154.134 114.98,154.017 115.038,153.911 115.077,153.818 115.102,153.737 115.113,153.665 115.114,153.595 115.104,153.52 
		115.078,153.43 115.031,153.322 114.956,153.192 114.847,153.041 114.701,152.87 114.505,152.671 114.386,152.554 114.261,152.427 
		114.139,152.298 114.02,152.168 113.905,152.036 113.793,151.902 113.686,151.768 113.58,151.63 113.479,151.492 113.381,151.352 
		113.288,151.21 113.197,151.067 113.11,150.922 113.028,150.777 112.95,150.63 112.875,150.481 112.804,150.33 112.737,150.179 
		112.675,150.025 112.617,149.871 112.563,149.715 112.514,149.559 112.469,149.401 112.428,149.241 112.393,149.081 
		112.361,148.92 112.335,148.758 112.312,148.595 112.295,148.43 112.283,148.266 112.276,148.1 112.273,147.925 112.292,147.468 
		112.35,147.009 112.444,146.558 112.575,146.116 112.739,145.683 112.937,145.261 113.166,144.85 113.424,144.451 113.712,144.063 
		114.027,143.689 114.369,143.328 114.736,142.979 115.127,142.644 115.543,142.322 115.98,142.014 116.439,141.721 
		116.919,141.441 117.418,141.177 117.938,140.929 118.475,140.695 119.03,140.478 119.601,140.277 120.188,140.094 
		120.791,139.927 121.408,139.778 122.038,139.648 122.682,139.536 123.336,139.443 124.002,139.371 124.679,139.318 
		125.364,139.286 126.059,139.275 126.753,139.286 127.439,139.318 128.115,139.371 128.781,139.443 129.437,139.536 
		130.079,139.648 130.71,139.778 131.326,139.927 131.929,140.094 132.516,140.277 133.088,140.478 133.643,140.695 134.18,140.929 
		134.699,141.177 135.199,141.441 135.678,141.721 136.137,142.014 136.575,142.322 136.99,142.644 137.381,142.979 	"/>
	<path fill="#F79239" d="M126.059,139.923c7.236,0,13.138,3.599,13.138,8.011c0,2.356-1.684,4.48-4.354,5.948
		c1.546,1.317,2.467,2.961,2.467,4.74c0,2.467-1.769,4.673-4.521,6.108c2.455,1.263,4.03,3.194,4.03,5.354
		c0,3.788-4.845,6.877-10.787,6.877c-5.942,0-10.788-3.09-10.788-6.877c0-4.155,4.941-3.346,0.949-6.385
		c-1.797-1.368-2.884-3.142-2.884-5.077c0-3.602,4.156-4.009,1.654-6.409c-1.292-1.239-2.042-2.708-2.042-4.279
		C112.92,143.521,118.822,139.923,126.059,139.923L126.059,139.923z"/>
	<path d="M139.304,147.797c0.076,0.273,0.124,0.554,0.143,0.841c0.243,3.669-4.396,6.981-10.325,7.373
		c-2.389,0.157-4.633-0.183-6.477-0.886c1.985,0.648,4.424,0.844,6.981,0.446C135.236,154.697,139.437,151.271,139.304,147.797
		L139.304,147.797z"/>
	<path fill="#FFFFFF" d="M237.38,95.952c1.297-0.534,2.896-0.878,4.548-1.007c-0.497,2.667-0.858,5.411-1.097,8.252
		c-1.432,0.102-2.812,0.29-4.035,0.569C236.796,101.073,236.964,98.479,237.38,95.952L237.38,95.952z M240.682,105.279
		c-0.185,2.98-0.24,6.07-0.185,9.291c-0.9,0.024-1.843,0.1-3.031,0.203c-0.314-3.123-0.559-6.098-0.641-8.959
		C238.102,105.529,239.382,105.353,240.682,105.279L240.682,105.279z M244.571,94.925c1.886,0.123,3.667,0.547,4.972,1.313
		c0,2.535-0.231,4.921-0.625,7.278c-1.431-0.236-3.059-0.374-4.724-0.405C244.412,100.477,244.541,97.783,244.571,94.925
		L244.571,94.925z M248.462,105.916c-0.623,2.953-1.465,5.922-2.387,9.143c-1.359-0.224-2.414-0.362-3.352-0.434
		c0.527-3.183,0.958-6.233,1.27-9.325C245.44,105.398,246.923,105.605,248.462,105.916L248.462,105.916z"/>
	<path fill="#FFFFFF" d="M251.216,171.888c0.506-1.14-0.424,2.542-0.605,3.819c-0.814,5.72,4.704,8.167-1.179,8.815
		c-1.558,0.172-4.103,0.314-7.412-0.354c-1.798-0.363-5.615-1.264-4.392-1.375C247.186,181.918,247.863,179.457,251.216,171.888
		L251.216,171.888z"/>
	<path d="M184.22,286.967l-5.344,21.314l-5.28-21.314c-0.426-1.672-1.511-2.508-3.253-2.508c-1.707,0-2.774,0.836-3.201,2.508
		l-7.766,31.072l-13.73-3.062c7.183-2.703,10.775-7.487,10.775-14.354c0-5.654-2.507-9.941-7.521-12.857
		c-3.77-2.205-8.055-3.309-12.855-3.309h-17.069c-0.925,0-1.708,0.33-2.347,0.988c-0.64,0.658-0.96,1.449-0.96,2.373v34.146
		c0,0.89,0.32,1.664,0.96,2.322c0.64,0.655,1.422,0.985,2.347,0.985c0.924,0,1.707-0.33,2.347-0.985
		c0.64-0.658,0.96-1.435,0.96-2.322v-5.389c0.071,0,0.16,0.018,0.267,0.053l38.406,8.537c0.213,0.071,0.444,0.106,0.693,0.106
		c0.027,0,0.055,0,0.082-0.002c0.026,0.002,0.052,0.002,0.078,0.002c1.742,0,2.827-0.836,3.254-2.508l5.281-21.289l5.334,21.289
		c0.427,1.672,1.494,2.508,3.201,2.508c1.742,0,2.828-0.836,3.254-2.508l5.281-21.289l5.334,21.289
		c0.426,1.672,1.494,2.508,3.2,2.508c0.925,0,1.707-0.33,2.347-0.985c0.642-0.658,0.961-1.435,0.961-2.322
		c0-0.284-0.019-0.567-0.053-0.854l-8.527-34.146c-0.426-1.672-1.51-2.508-3.254-2.508
		C185.714,284.459,184.646,285.295,184.22,286.967L184.22,286.967z M38.74,284.459c-0.925,0-1.707,0.33-2.347,0.988
		c-0.64,0.657-0.96,1.448-0.96,2.372v34.146c0,0.889,0.32,1.664,0.96,2.322c0.641,0.656,1.422,0.986,2.347,0.986
		c0.924,0,1.707-0.33,2.347-0.986c0.64-0.658,0.959-1.434,0.959-2.322v-30.838h30.832c0.925,0,1.708-0.328,2.347-0.986
		c0.64-0.658,0.96-1.432,0.96-2.322c0-0.924-0.32-1.715-0.96-2.372c-0.64-0.658-1.422-0.988-2.347-0.988H38.74L38.74,284.459z
		 M47.275,301.533c-0.925,0-1.707,0.327-2.347,0.985c-0.64,0.658-0.96,1.449-0.96,2.375c0,0.89,0.32,1.662,0.96,2.32
		c0.64,0.658,1.422,0.986,2.347,0.986h8.535c0.925,0,1.707-0.328,2.347-0.986c0.64-0.658,0.96-1.432,0.96-2.32
		c0-0.926-0.32-1.717-0.96-2.375c-0.64-0.658-1.422-0.985-2.347-0.985H47.275L47.275,301.533z M70.434,304.896
		c0,5.619,1.992,10.422,5.974,14.403c3.983,3.984,8.784,5.978,14.402,5.978s10.419-1.992,14.402-5.978
		c3.983-3.981,5.974-8.784,5.974-14.403c0-5.621-1.991-10.433-5.974-14.435c-3.983-4-8.784-6.002-14.402-6.002
		s-10.419,2.002-14.402,6.002C72.425,294.463,70.434,299.272,70.434,304.896L70.434,304.896z M77.048,304.896
		c0-3.808,1.352-7.054,4.054-9.738c2.703-2.686,5.939-4.027,9.708-4.027c3.805,0,7.05,1.342,9.735,4.027
		c2.685,2.685,4.027,5.932,4.027,9.738c0,3.77-1.342,6.998-4.027,9.684s-5.93,4.027-9.735,4.027c-3.769,0-7.005-1.342-9.708-4.027
		S77.048,308.664,77.048,304.896L77.048,304.896z M123.242,310.067c-0.285,0-0.604,0.056-0.96,0.16v-19.1h13.762
		c2.418,0,4.783,0.408,7.095,1.227c4.445,1.603,6.667,4.357,6.667,8.271c0,3.877-2.223,6.617-6.667,8.217
		c-2.312,0.818-4.676,1.228-7.095,1.228h-12.802V310.067z M238.298,318.604h-13.762v-27.477h13.762c0.926,0,1.707-0.328,2.349-0.986
		c0.64-0.658,0.96-1.432,0.96-2.322c0-0.924-0.32-1.715-0.96-2.372c-0.642-0.658-1.423-0.988-2.349-0.988h-42.672
		c-0.926,0-1.707,0.33-2.348,0.988c-0.641,0.657-0.961,1.448-0.961,2.372c0,0.892,0.32,1.664,0.961,2.322s1.422,0.986,2.348,0.986
		h22.297v27.477H204.16c-0.924,0-1.705,0.33-2.347,0.988c-0.64,0.658-0.96,1.449-0.96,2.373c0,0.889,0.32,1.664,0.96,2.322
		c0.642,0.656,1.423,0.986,2.347,0.986h34.139c0.926,0,1.707-0.33,2.349-0.986c0.64-0.658,0.96-1.434,0.96-2.322
		c0-0.924-0.32-1.715-0.96-2.373C240.005,318.937,239.224,318.604,238.298,318.604L238.298,318.604z M271.904,301.533h-12.802
		c-0.925,0-1.707,0.327-2.349,0.985c-0.64,0.658-0.959,1.449-0.959,2.375c0,0.89,0.319,1.662,0.959,2.32
		c0.642,0.658,1.424,0.986,2.349,0.986h9.494v6.617c-2.667,2.524-5.831,3.787-9.494,3.787c-3.806,0-7.052-1.343-9.735-4.027
		c-2.684-2.686-4.027-5.914-4.027-9.684c0-3.808,1.344-7.054,4.027-9.738c2.684-2.686,5.93-4.027,9.735-4.027
		s7.041,1.334,9.708,4.002c0.676,0.676,1.458,1.014,2.348,1.014c0.924,0,1.715-0.33,2.373-0.988
		c0.657-0.655,0.986-1.448,0.986-2.372c0-0.892-0.338-1.673-1.014-2.349c-3.982-3.949-8.783-5.922-14.401-5.922
		c-5.654,0-10.464,1.982-14.431,5.947c-3.965,3.967-5.946,8.777-5.946,14.434c0,5.619,1.991,10.422,5.976,14.404
		c3.981,3.984,8.782,5.977,14.401,5.977c3.378,0,6.543-0.782,9.493-2.348v6.834c0,0.889,0.32,1.664,0.961,2.322
		c0.641,0.656,1.423,0.986,2.348,0.986c0.926,0,1.707-0.33,2.348-0.986c0.641-0.658,0.959-1.434,0.959-2.322v-24.867
		c0-0.926-0.318-1.717-0.959-2.375S272.83,301.533,271.904,301.533L271.904,301.533z M293.333,305.629l9.965-0.866l-4.776-9.517
		L293.333,305.629L293.333,305.629z M313.804,303.851c0.508-0.027,1.01,0.055,1.506,0.252c1.258,0.498,1.941,1.42,2.061,2.766
		c0.062,0.521-0.006,1.031-0.201,1.527c-0.498,1.256-1.438,1.938-2.816,2.041l-0.758,0.067l4.982,9.97
		c0.215,0.463,0.32,0.961,0.32,1.493c0,1.353-0.604,2.33-1.812,2.937c-0.463,0.248-0.961,0.373-1.494,0.373
		c-1.352,0-2.328-0.623-2.934-1.867l-6.162-12.275l-16.648,1.475l-5.396,10.802c-0.604,1.243-1.602,1.866-2.996,1.866
		c-0.498,0-0.996-0.125-1.494-0.373c-1.209-0.604-1.812-1.584-1.812-2.936c0-0.533,0.124-1.031,0.373-1.494l17.068-34.146
		c0.604-1.244,1.582-1.867,2.935-1.867c1.388,0,2.384,0.623,2.987,1.867l8.906,17.817L313.804,303.851L313.804,303.851z"/>
	<path d="M90.867,290.883c7.705,0,13.954,6.25,13.954,13.957s-6.249,13.957-13.954,13.957c-7.705,0-13.954-6.25-13.954-13.957
		S83.162,290.883,90.867,290.883L90.867,290.883z"/>
	<path fill="#ECEBEA" d="M90.867,291.104c7.582,0,13.73,6.15,13.73,13.734c0,7.582-6.148,13.732-13.73,13.732
		s-13.73-6.15-13.73-13.732C77.137,297.256,83.286,291.104,90.867,291.104L90.867,291.104z"/>
	<path fill="#C4C4C4" d="M92.649,306.61c0.173,0.525-0.23,1.062-0.728,1.193c-1.884,0.328-4.074-2.043-4.985-3.479
		c-1.41-2.224-2.115-6.308,1.112-7.328c0.488-0.117,0.975-0.146,1.452-0.099c-0.045-1.463-0.903-4.01-2.82-3.92
		c0,0.002,0,0.004-0.001,0.006c-0.057,0.17-0.176,0.277-0.32,0.377c-0.631,0.443-1.395,0.729-2.171,0.66
		c-0.188-0.018-0.375-0.049-0.559-0.092c-0.184-0.045-0.523-0.115-0.74-0.256c0.427-0.307,0.872-0.588,1.333-0.846
		c0.118,0.025,0.236,0.049,0.356,0.066c0.426,0.047,0.839-0.138,1.241-0.25c0.251-0.07,0.724-0.146,0.84,0.121
		c0.062-0.013,0.125-0.021,0.188-0.023c2.03-0.141,2.885,2.627,2.862,4.182c0.131,0.018,0.262,0.043,0.392,0.074
		c0.132-1.488,1.191-4.064,3.146-3.785c0.072,0.01,0.142,0.025,0.211,0.043c0.226-0.291,0.88-0.029,1.137,0.062
		c0.723,0.26,1.249,0.662,1.654,1.317c0.133,0.216,0.259,0.449,0.352,0.685c0.211,0.529-0.242,0.715-0.681,0.545
		c-0.147-0.059-0.294-0.141-0.412-0.248c-0.269-0.25-0.402-0.611-0.628-0.895c-0.36-0.423-0.934-0.548-1.315-0.929
		c-0.089-0.09-0.17-0.209-0.174-0.334c-1.875-0.219-2.899,2.144-3.079,3.592c0.038,0.011,0.074,0.021,0.107,0.029
		c0.672,0.198,0.334,0.196,0.765-0.156c0.611-0.502,1.413-0.334,2.002,0.109c1.002,0.754,1.566,2.258,1.279,3.483
		c0.836,1.396,1.287,2.984,1.133,4.367C95.293,306.406,94.086,306.834,92.649,306.61L92.649,306.61z"/>
	<path fill="#C4C4C4" d="M104.58,305.539c-0.034,0.129-0.067,0.258-0.101,0.387c0.025,0.011,0.049,0.021,0.073,0.029
		c-0.256,3.166-1.594,6.032-3.642,8.231c-0.094-0.016-0.186-0.033-0.275-0.051c-0.72-0.143-3.578-0.906-2.437-2.352
		c0.669-0.846,0.726-1.18,0.861-2.428c0.036-0.336,0.069-0.672,0.097-1.008c-0.16-0.078-0.311-0.187-0.445-0.324
		c-0.286-0.289-0.497-0.658-0.679-1.021c-0.373-0.741-0.582-1.961,0.319-2.416c0.348-0.141,0.691-0.11,1.009,0.021
		c0.101-3.178,0.172-6.27,0.562-9.407c0.025-0.201,0.053-0.4,0.08-0.603c2.817,2.519,4.595,6.178,4.595,10.238
		C104.598,305.074,104.592,305.308,104.58,305.539L104.58,305.539z"/>
	<path fill="#C4C4C4" d="M94.503,314.565c0.551,1.263,0.016,2.699-0.806,3.713c-0.914,0.191-1.86,0.294-2.83,0.294
		c-1.813,0-3.545-0.354-5.132-0.998c0.618-1.181,1.384-2.296,2.302-3.265c0.342-0.358,0.733-0.764,1.234-0.881
		c1.266-0.293,2.503,0.705,3.786,0.666C93.555,314.08,94.232,314.056,94.503,314.565L94.503,314.565z"/>
	<path fill="#C4C4C4" d="M90.158,307.938c0.078-0.006,0.104,0.006,0.144-0.06c0.146-0.241,0.121-0.692,0.073-0.961
		c-0.009-0.053-0.01-0.099-0.012-0.149l0.059-0.123l0.1-0.07c0.31-0.09,0.578,0.064,0.859,0.17c0.03,0.012,0.064,0.018,0.096,0.025
		l0.114,0.063l0.04,0.158c-0.088,0.278-0.218,0.604-0.128,0.899c0.045,0.146,0.136,0.275,0.148,0.43
		c0.028,0.354-0.132,0.855-0.47,1.015c-0.3,0.14-0.692,0.101-1.002,0.019c-0.5-0.136-0.612-0.752-0.314-1.131
		C89.953,308.11,90.042,308.019,90.158,307.938L90.158,307.938z"/>
	<path fill="#C4C4C4" d="M91.69,308.765c0.492,1.465,3.598-0.869,4.184-1.334c0.633-0.505,2.528-2.607,3.504-1.689
		c0.412,0.531,0.857,1.16,1.161,1.756c0.892,1.752-1.953,1.93-3.081,1.893c-0.299-0.008-1.601-0.162-1.777,0.148
		c-0.472,0.617-1.167,0.373-1.773,0.645c-0.408,0.236,0.517,1.623,0.666,1.91c0.54,1.037,0.921,2.488,0.147,3.531
		c-0.484,0.379-1.218,0.463-1.814,0.549c-1.703,0.246-3.642,0.404-5.365,0.236c-2.559-0.248,0.116-5.4,1.086-6.32
		c0.613-0.459-0.411-0.521-0.732-0.49c-0.238,0.021-0.368,0.051-0.593-0.008c-0.583-0.156-0.788,0.598-1.405,0.406
		c-0.191-0.061-0.375-0.25-0.577-0.186c-0.821,0.268-1.742,1.637-2.651,1.311c-1.024-0.652-1.017-2.965-0.796-4.012
		c0.164-0.781,0.575-1.051,1.367-0.894c1.296,0.261,2.57,1.027,3.766,1.574c0.714,0.326,1.456,0.664,2.231,0.812
		c0.424,0.08,1.038-0.674,1.273-0.028c0.046,0.129,0.161,0.239,0.302,0.254C91.166,308.867,91.445,308.088,91.69,308.765
		L91.69,308.765z"/>
	<path d="M94.95,314.565c0.58,1.33-0.045,2.855-0.942,3.873c-2.533,0.562-5.167,0.461-7.629-0.387
		c-0.125-0.043-0.249-0.086-0.374-0.129c0.647-1.311,1.472-2.551,2.479-3.613c0.342-0.358,0.733-0.764,1.234-0.881
		c1.266-0.293,2.503,0.705,3.786,0.666C94.001,314.08,94.679,314.056,94.95,314.565L94.95,314.565z"/>
	<path fill="#F79239" d="M94.748,314.662c0.342,0.731,0.318,2.287-0.86,3.573c-0.973,0.222-1.983,0.336-3.021,0.336
		c-1.594,0-3.125-0.272-4.551-0.776c0.775-1.612,2.523-3.787,3.246-4.082c1.069-0.437,2.576,0.611,3.728,0.611
		C93.697,314.324,94.543,314.224,94.748,314.662L94.748,314.662z"/>
	<path d="M90.605,307.938c0.078-0.006,0.104,0.006,0.143-0.06c0.146-0.241,0.121-0.692,0.073-0.961
		c-0.009-0.053-0.01-0.099-0.011-0.149l0.059-0.123l0.099-0.07c0.31-0.09,0.578,0.064,0.859,0.17
		c0.031,0.012,0.064,0.018,0.097,0.025l0.113,0.063l0.041,0.158c-0.089,0.278-0.218,0.604-0.128,0.899
		c0.045,0.146,0.135,0.275,0.148,0.43c0.029,0.354-0.131,0.855-0.47,1.015c-0.299,0.14-0.691,0.101-1.002,0.019
		c-0.5-0.136-0.612-0.752-0.314-1.131C90.399,308.11,90.488,308.019,90.605,307.938L90.605,307.938z"/>
	<path d="M83.88,305.744c1.197,0,2.174,1.004,2.174,2.235c0,1.23-0.977,2.236-2.174,2.236c-1.198,0-2.175-1.006-2.175-2.236
		C81.705,306.748,82.682,305.744,83.88,305.744L83.88,305.744z"/>
	<path d="M99.961,304.344c1.197,0,2.174,1.005,2.174,2.236c0,1.229-0.977,2.235-2.174,2.235c-1.198,0-2.174-1.006-2.174-2.235
		C97.787,305.349,98.764,304.344,99.961,304.344L99.961,304.344z"/>
	<path d="M107.186,298.024c-0.528,2.353-1.21,4.668-1.812,7.009c0.44,0.168,0.824,0.438,1.056,0.784
		c0.267,0.402,0.286,0.929-0.094,1.265c-0.087,0.076-0.342,0.176-0.301,0.312c0.119,0.391,0.004,0.754-0.303,1.022
		c-0.111,0.099-0.106,0.062-0.038,0.17c0.199,0.322,0.094,0.756-0.157,1.019c-0.3,0.312-0.761,0.444-1.237,0.432
		c-0.028,0.184-0.056,0.369-0.082,0.553c-0.082,0.592,0.112,1.045,0.321,1.555c0.597,1.455-1.563,1.388-3.009,1.103
		c-0.72-0.144-3.578-0.906-2.437-2.353c0.669-0.846,0.726-1.182,0.861-2.43c0.036-0.334,0.068-0.67,0.097-1.008
		c-0.16-0.078-0.311-0.186-0.445-0.322c-0.286-0.289-0.498-0.658-0.679-1.021c-0.373-0.74-0.581-1.959,0.319-2.414
		c0.348-0.144,0.691-0.111,1.009,0.021c0.075-2.379,0.085-4.764,0.235-7.135C102.92,295.963,105.022,296.617,107.186,298.024
		L107.186,298.024z"/>
	<path d="M92.136,308.315c0.492,1.466,3.598-0.866,4.184-1.334c0.633-0.504,2.528-2.604,3.504-1.688
		c0.412,0.529,0.857,1.158,1.16,1.756c0.892,1.752-1.953,1.928-3.081,1.893c-0.299-0.01-1.601-0.161-1.777,0.146
		c-0.473,0.619-1.167,0.375-1.773,0.645c-0.407,0.236,0.518,1.625,0.667,1.91c0.54,1.037,0.921,2.49,0.146,3.531
		c-0.483,0.381-1.218,0.463-1.814,0.549c-1.703,0.248-3.642,0.404-5.365,0.236c-2.559-0.248,0.115-5.4,1.086-6.318
		c0.613-0.461-0.411-0.522-0.732-0.492c-0.238,0.023-0.368,0.052-0.594-0.008c-0.583-0.153-0.788,0.599-1.405,0.406
		c-0.191-0.061-0.375-0.25-0.577-0.186c-0.821,0.268-1.741,1.637-2.651,1.311c-1.024-0.652-1.016-2.963-0.796-4.012
		c0.164-0.781,0.575-1.051,1.367-0.893c1.296,0.26,2.571,1.026,3.766,1.573c0.714,0.326,1.456,0.664,2.231,0.812
		c0.424,0.081,1.038-0.675,1.273-0.029c0.047,0.131,0.161,0.24,0.302,0.256C91.613,308.42,91.892,307.642,92.136,308.315
		L92.136,308.315z"/>
	<path d="M93.095,306.164c0.173,0.524-0.23,1.062-0.728,1.192c-1.884,0.328-4.074-2.043-4.985-3.479
		c-1.41-2.224-2.115-6.306,1.112-7.326c0.488-0.118,0.975-0.146,1.451-0.1c-0.044-1.464-0.903-4.009-2.82-3.921
		c0,0.003,0,0.005,0,0.007c-0.057,0.17-0.176,0.276-0.32,0.379c-0.631,0.44-1.395,0.729-2.171,0.658
		c-0.188-0.019-0.375-0.05-0.559-0.093c-0.335-0.078-1.184-0.25-0.873-0.764c0.11-0.182,0.331-0.291,0.526-0.355
		c0.441-0.143,0.856,0.023,1.295,0.084c0.427,0.05,0.839-0.137,1.241-0.25c0.251-0.069,0.725-0.145,0.84,0.121
		c0.062-0.012,0.125-0.02,0.188-0.022c2.03-0.142,2.885,2.629,2.862,4.183c0.132,0.02,0.263,0.043,0.393,0.073
		c0.132-1.487,1.19-4.063,3.146-3.784c0.072,0.012,0.142,0.024,0.211,0.045c0.226-0.291,0.879-0.031,1.137,0.062
		c0.723,0.258,1.25,0.66,1.654,1.315c0.133,0.215,0.258,0.449,0.352,0.685c0.211,0.528-0.242,0.717-0.681,0.545
		c-0.147-0.06-0.295-0.142-0.412-0.248c-0.269-0.248-0.402-0.61-0.628-0.896c-0.36-0.422-0.934-0.547-1.316-0.928
		c-0.089-0.09-0.17-0.207-0.174-0.334c-1.875-0.219-2.899,2.146-3.079,3.592c0.039,0.011,0.074,0.021,0.107,0.031
		c0.673,0.199,0.334,0.197,0.766-0.158c0.611-0.502,1.413-0.334,2.002,0.109c1.003,0.754,1.566,2.26,1.279,3.484
		c0.836,1.396,1.288,2.984,1.133,4.369C95.74,305.959,94.533,306.39,93.095,306.164L93.095,306.164z"/>
	<path fill="#F79239" d="M90.682,308.156c0.459,0,0.417-1.003,0.354-1.31c-0.04-0.188,0.492,0,0.637,0.072
		c0.242,0.121,0.178-0.029,0.121,0.217c-0.104,0.453-0.181,0.615,0.057,1.1c0.088,0.181-0.057,0.677-0.19,0.812
		c-0.229,0.229-0.748,0.156-1.001,0.084c-0.29-0.084-0.35-0.446-0.229-0.688C90.454,308.396,90.621,308.19,90.682,308.156
		L90.682,308.156z"/>
	<path d="M91.728,308.226c0.142-0.162,0.254-0.011,0.303,0.129c0.553,1.594,3.629-0.703,4.358-1.283
		c0.498-0.396,2.674-2.682,3.4-1.637c0.372,0.532,0.8,1.088,1.095,1.668c0.83,1.629-1.893,1.764-2.978,1.729
		c-0.337-0.013-1.648-0.135-1.83,0.119c-0.351,0.616-1.14,0.457-1.718,0.657c-0.688,0.31,0.553,2.029,0.768,2.511
		c0.393,0.873,0.497,1.776,0.118,2.687c-0.349,0.834-2.044,0.842-2.798,0.918c-1.449,0.146-2.996,0.268-4.449,0.127
		c-2.366-0.229,0.216-5.24,1.147-6.123c0.804-0.603-0.534-0.728-0.932-0.674c-0.411,0.055-0.673-0.183-1.043,0.092
		c-0.44,0.328-0.61,0.43-1.118,0.147c-0.438-0.239-1.299,0.601-1.643,0.834c-0.604,0.41-1.145,0.812-1.627,0.041
		c-0.52-1.03-0.653-2.821-0.22-3.916c0.538-1.024,2.616,0.149,3.32,0.479c1.198,0.559,2.472,1.287,3.783,1.537
		c0.332,0.062,0.973-0.5,1.16-0.179C90.995,308.549,91.428,308.64,91.728,308.226L91.728,308.226z"/>
	<path fill="#C4C4C4" d="M83.171,308.606c0.234,0.574-0.015,1.146-0.494,1.504c0.463,0.357,0.646,0.904,0.359,1.441
		c-0.74,1.193-3.042,1.189-3.841,0.066c-0.276-0.445-0.242-0.941,0.15-1.301c0.076-0.07,0.098-0.053,0.017-0.129
		c-0.354-0.299-0.667-0.597-0.684-1.094c-0.011-0.322,0.132-0.556,0.334-0.789c0.126-0.146,0.076-0.13-0.05-0.267
		c-0.427-0.461-0.464-1.049-0.08-1.565c0.973-1.154,3.248-1.148,4.313-0.138c0.615,0.652,0.458,1.445-0.228,1.94
		C83.051,308.381,83.118,308.487,83.171,308.606L83.171,308.606z"/>
	<path fill="#2E3192" d="M91.815,308.295c0.088-0.131,0.132,0.267,0.219,0.363c1.147,1.28,4.565-1.505,5.542-2.479
		c0.295-0.296,1.711-1.3,2.124-0.681c1.328,2.006,2.271,2.715-0.796,3.217c-0.531,0.089-2.743-0.178-2.92,0.177
		c-0.413,0.854-2.313,0.092-1.917,1.328c0.415,1.295,1.978,2.694,0.991,4.729c-0.366,0.756-6.698,0.979-7.378,0.731
		c-1.588-0.576,0.802-5.414,1.62-5.93c0.492-0.311,0.157-1.023-1.226-0.791c-0.251,0.043-0.511-0.24-0.926,0.062
		c-0.468,0.342-0.497,0.481-1.095,0.143c-0.469-0.268-1.259,0.709-2.408,1.289c-1.273,0.643-1.526-3.881-0.803-4.4
		c0.935-0.672,4.781,1.971,6.805,2.322c0.525,0.092,1.001-0.502,1.086-0.215C90.871,308.635,91.464,308.812,91.815,308.295
		L91.815,308.295z"/>
	<path fill="#FFFFFF" d="M88.867,297.918c-0.848,0.351-1.128,1.67-0.624,2.949c0.503,1.276,1.6,2.028,2.448,1.68
		c0.849-0.353,1.128-1.672,0.625-2.95C90.812,298.317,89.716,297.565,88.867,297.918L88.867,297.918z"/>
	<path d="M89.108,298.976c-0.409,0.17-0.544,0.807-0.301,1.424c0.243,0.617,0.772,0.979,1.181,0.811
		c0.409-0.17,0.544-0.807,0.301-1.424C90.046,299.17,89.517,298.808,89.108,298.976L89.108,298.976z"/>
	<path fill="#FFFFFF" d="M89.494,299.797c-0.133,0.027-0.219,0.16-0.191,0.293c0.028,0.136,0.159,0.22,0.293,0.191
		c0.133-0.027,0.219-0.158,0.191-0.294C89.759,299.854,89.627,299.771,89.494,299.797L89.494,299.797z"/>
	<path fill="#FFFFFF" d="M92.062,296.478c-0.849,0.352-1.128,1.672-0.625,2.948c0.503,1.279,1.6,2.031,2.448,1.681
		c0.849-0.351,1.128-1.672,0.625-2.949C94.007,296.88,92.911,296.127,92.062,296.478L92.062,296.478z"/>
	<path d="M92.269,297.502c-0.409,0.17-0.544,0.808-0.301,1.424c0.243,0.615,0.771,0.979,1.181,0.812
		c0.409-0.17,0.544-0.807,0.301-1.424C93.207,297.694,92.678,297.334,92.269,297.502L92.269,297.502z"/>
	<path fill="#FFFFFF" d="M92.654,298.324c-0.133,0.026-0.219,0.157-0.191,0.293c0.028,0.133,0.159,0.219,0.293,0.19
		c0.133-0.029,0.219-0.16,0.191-0.293C92.919,298.381,92.788,298.297,92.654,298.324L92.654,298.324z"/>
	<path d="M92.213,296.021c-0.296,0.061-0.632,0.28-0.884,0.426c-0.246,0.139-0.393,0.166-0.393,0.098
		c0-0.07,0.137-0.201,0.364-0.381c0.23-0.18,0.537-0.4,0.868-0.518c0.309-0.109,0.785,0.086,0.945,0.137
		c0.192,0.062,0.308,0.131,0.302,0.205c-0.005,0.076-0.107,0.215-0.324,0.166C92.917,296.112,92.509,295.957,92.213,296.021
		L92.213,296.021z"/>
	<path d="M89.644,305.101c0.332,0.465,2.293,2.336,2.73,1.428c0.047-0.146-0.055-0.586,0.119-0.615
		c-1.165-0.346-2.518-1.164-3.402-2.025c-0.171-0.166-0.112-0.531-0.293-0.322c-0.092,0.107,0.07,0.119,0.139,0.263
		C89.149,304.271,89.361,304.69,89.644,305.101L89.644,305.101z M92.865,306.008c0.453,0.427-0.084,1.197-0.597,1.255
		c-1.831,0.202-3.898-2.033-4.792-3.443c-1.286-2.029-2.113-6.033,0.836-7.094c0.239-0.086,1.735-0.398,1.739-0.013
		c0.069-0.174,0.551-0.073,0.554,0.113c0.14-0.173,0.89,0.096,0.765,0.381c-0.181,0.414-0.203,0.897-0.154,1.342
		c0.111,1.033-0.428,0.078-0.771-0.223c-0.393-0.347-0.903-0.58-1.433-0.453c-2.239,0.533-0.578,5.437,1.607,4.694
		c0.85-0.286,1.008-1.334,0.917-2.11c-0.109-0.931,0.418-0.104,0.687,0.149c0.812,0.769,1.829,0.806,2.363-0.237
		c0.085-0.166,0.234-0.199,0.338-0.027c0.958,1.568,2.072,5.46-0.765,5.75C93.732,306.135,93.287,306.101,92.865,306.008
		L92.865,306.008z M90.038,296.838c-0.003,0.021-0.03,0.129-0.008,0.138C90.042,296.933,90.037,296.883,90.038,296.838
		L90.038,296.838z M88.99,297.367c-0.447,0.016-1.043,0.354-1.18,0.819c0.088,0.054,0.181-0.045,0.234-0.104
		c0.613-0.658,0.952-0.6,1.752-0.656C89.532,297.383,89.258,297.36,88.99,297.367L88.99,297.367z"/>
	<path fill="#F79239" d="M94.93,300.59c1.137,2.234,1.847,5.787-1.659,5.373c-1.013-0.119-1.968-0.646-2.823-1.178
		c-0.194-0.121-0.753-0.529-1.083-0.808c-0.187-0.158-0.535-0.432-0.194-0.498c0.091-0.02,0.101-0.096,0.088-0.125
		c-0.013-0.028-0.069-0.03-0.151-0.018c-0.069,0.012-0.283,0.033-0.376,0.133c-0.099,0.107-0.17,0.25-0.22,0.361
		c-0.049,0.109-0.074,0.186-0.06,0.211c0.013,0.025,0.071-0.008,0.125-0.113c0.174-0.334,0.215-0.15,0.342,0.131
		c0.238,0.525,0.684,1.265,1.11,1.678c0.955,0.931,2.455,1.652,2.499,0.572c0.008-0.188-0.127-0.295,0.042-0.295
		c0.57,0,0.396,1.045-0.315,1.135c-1.581,0.203-3.629-1.926-4.348-2.901c-1.902-2.584-2.018-5.748-0.258-7.045
		c0.631-0.466,1.42-0.627,2.26-0.525c0.111,0.015-0.113,0.353,0.094,0.406c0.244,0.065,0.084-0.383,0.191-0.36
		c0.096,0.02,0.167,0.034,0.265,0.061c0.124,0.031-0.119,0.398,0.062,0.434c0.245,0.047,0.093-0.398,0.237-0.352
		c0.145,0.047,0.304,0.104,0.454,0.166c0.125,0.051,0.068,0.094,0.029,0.199c-0.177,0.465-0.188,1.024-0.109,1.52
		c0.038,0.232,0.045,0.273-0.121,0.041c-0.497-0.701-1.316-1.299-2.185-0.977c-1.196,0.547-1.052,2.207-0.635,3.215
		c0.397,0.875,1.21,1.834,2.276,1.697c1.068-0.222,1.31-1.408,1.17-2.373c-0.043-0.295-0.027-0.308,0.128-0.099
		c0.6,0.812,1.667,1.481,2.554,0.699c0.148-0.149,0.268-0.315,0.351-0.498C94.767,300.242,94.797,300.33,94.93,300.59L94.93,300.59z
		 M88.75,297.644c0.284-0.103,0.686-0.09,0.976-0.101c0.283-0.01,0.421-0.063,0.385-0.121c-0.037-0.062-0.222-0.101-0.508-0.133
		c-0.291-0.035-0.668-0.062-1.011,0.012c-0.32,0.068-0.624,0.484-0.733,0.611c-0.131,0.151-0.193,0.271-0.149,0.334
		c0.044,0.062,0.204,0.125,0.362-0.029C88.199,298.092,88.466,297.746,88.75,297.644L88.75,297.644z"/>
	<path fill="#C4C4C4" d="M83.719,304.082c-0.173,0.492-0.381,0.963-0.58,1.444c-0.221,0.533-0.039,0.479,0.322,0.914
		c0.49,0.593,0.504,1.152,0.469,1.879c-0.029,0.595,0.024,1.125,0.181,1.701c0.258,0.947-0.568,1.871-1.468,2.033
		c-0.604,0.109-2.034,0.33-2.306-0.445c-0.398-1.139,0.032-2.608,0.357-3.721c0.123-0.42,0.271-0.836,0.377-1.258
		c0.047-0.188-0.037-0.316-0.005-0.502c0.124-0.721,0.12-1.377,0.055-2.109c-0.07-0.787-0.048-1.791,0.589-2.365
		c0.938-0.848,1.982,0.533,2.106,1.402C83.867,303.408,83.826,303.742,83.719,304.082L83.719,304.082z"/>
	<path d="M84.064,307.715c0.234,0.572-0.015,1.146-0.495,1.502c0.463,0.359,0.646,0.906,0.36,1.443
		c-0.74,1.19-3.042,1.188-3.842,0.063c-0.276-0.442-0.242-0.94,0.15-1.301c0.076-0.07,0.098-0.051,0.016-0.127
		c-0.354-0.301-0.667-0.598-0.684-1.096c-0.011-0.32,0.132-0.555,0.334-0.787c0.126-0.146,0.076-0.131-0.05-0.266
		c-0.427-0.461-0.464-1.049-0.079-1.566c0.972-1.154,3.247-1.148,4.313-0.137c0.614,0.649,0.458,1.443-0.228,1.938
		C83.944,307.485,84.011,307.594,84.064,307.715L84.064,307.715z"/>
	<path fill="#F79239" d="M84.996,292.67c0.116,0.017,0.092,0.024,0.181,0.095c0.073,0.057,0.176,0.114,0.244,0.235
		c0.215,0.383,0.024,0.347-0.387,0.36c-0.095,0.005-0.068-0.082-0.084-0.17c-0.022-0.114-0.074-0.348-0.195-0.473
		C84.583,292.541,84.735,292.635,84.996,292.67L84.996,292.67z M85.357,292.668c0.087-0.012,0.304-0.09,0.365-0.043
		c0.064,0.047,0.152,0.099,0.211,0.203c0.214,0.381-0.192,0.478-0.275,0.28c-0.039-0.092-0.103-0.227-0.181-0.327
		C85.438,292.729,85.397,292.692,85.357,292.668L85.357,292.668z M85.889,292.549c0.156-0.047,0.305-0.098,0.438-0.137
		c0.373-0.106,0.59-0.072,0.584,0.049c-0.006,0.125-0.217,0.281-0.562,0.472c-0.132,0.071-0.151,0.135-0.212-0.011
		c-0.034-0.08-0.088-0.194-0.156-0.282C85.951,292.601,85.919,292.569,85.889,292.549L85.889,292.549z M83.855,293.19
		c-0.31-0.067-0.503-0.147-0.489-0.278c0.014-0.131,0.223-0.291,0.549-0.369c0.245-0.058,0.424-0.039,0.572,0.136
		c0.07,0.082,0.176,0.174,0.22,0.329C84.875,293.599,84.299,293.289,83.855,293.19L83.855,293.19z"/>
	<path fill="#F79239" d="M95.55,294.199c-0.079-0.111-0.38-0.289-0.269-0.354c0.081-0.047,0.175-0.121,0.315-0.137
		c0.112-0.012,0.355-0.086,0.434-0.01c0.037,0.037,0.415,0.406,0.292,0.389c-0.115-0.016-0.285-0.033-0.433-0.018
		C95.583,294.104,95.595,294.265,95.55,294.199L95.55,294.199z M94.809,293.521c0.063-0.049,0.135-0.121,0.251-0.15
		c0.116-0.029,0.229-0.039,0.282-0.074c0.103-0.068,0.584,0.236,0.451,0.238c-0.102,0-0.251,0.006-0.378,0.039
		c-0.136,0.035-0.215,0.109-0.267,0.17C95.052,293.853,94.703,293.601,94.809,293.521L94.809,293.521z M94.455,293.401
		c-0.333-0.198-0.456-0.383-0.363-0.461c0.095-0.08,0.353-0.032,0.728,0.091c0.038,0.014,0.505,0.149,0.386,0.165
		c-0.085,0.013-0.211,0.033-0.315,0.076c-0.111,0.045-0.169,0.115-0.207,0.174C94.612,293.556,94.563,293.467,94.455,293.401
		L94.455,293.401z M96.71,294.679c0.14,0.284,0.234,0.471,0.129,0.549c-0.105,0.08-0.365,0.035-0.643-0.15
		c-0.318-0.211-0.818-0.842-0.123-0.82C96.51,294.271,96.505,294.26,96.71,294.679L96.71,294.679z"/>
	<path d="M84.622,303.494c-0.156,0.42-0.345,0.823-0.509,1.237c-0.149,0.377-0.061,0.314,0.22,0.621
		c0.551,0.604,0.648,1.181,0.608,1.965c-0.033,0.625,0.005,1.175,0.171,1.781c0.275,1.01-0.59,1.998-1.556,2.172
		c-0.733,0.133-2.065,0.324-2.43-0.518c-0.345-1.094-0.047-2.336,0.247-3.412c0.15-0.547,0.345-1.084,0.484-1.633
		c0.039-0.154-0.029-0.254-0.018-0.412c0.006-0.08,0.026-0.158,0.043-0.234c0.291-1.364-0.514-3.184,0.579-4.319
		c0.696-0.724,1.651-0.158,2.071,0.569C84.939,302.021,84.894,302.742,84.622,303.494L84.622,303.494z"/>
	<path d="M83.88,305.854c0.995,0.025,1.825,0.718,2.021,1.699c0.278,1.396-0.89,2.754-2.334,2.525
		c-0.642-0.102-1.198-0.518-1.5-1.09C81.33,307.597,82.303,305.896,83.88,305.854L83.88,305.854z"/>
	<path fill="#2E3192" d="M83.88,305.967c1.074,0,1.951,0.904,1.951,2.015c0,1.109-0.876,2.014-1.951,2.014
		c-1.075,0-1.951-0.904-1.951-2.014C81.929,306.871,82.805,305.967,83.88,305.967L83.88,305.967z"/>
	<path d="M83.647,305.854c0.947,0,1.719,0.797,1.719,1.772s-0.772,1.772-1.719,1.772s-1.719-0.797-1.719-1.772
		S82.701,305.854,83.647,305.854L83.647,305.854z"/>
	<path d="M84.612,303.188c-0.173,0.494-0.381,0.965-0.58,1.446c-0.221,0.533-0.039,0.479,0.323,0.914
		c0.489,0.591,0.504,1.15,0.468,1.879c-0.029,0.595,0.024,1.125,0.181,1.701c0.259,0.945-0.568,1.869-1.468,2.033
		c-0.604,0.108-2.035,0.33-2.306-0.447c-0.398-1.137,0.032-2.606,0.357-3.721c0.123-0.418,0.271-0.834,0.377-1.259
		c0.047-0.188-0.037-0.313-0.005-0.502c0.124-0.719,0.119-1.375,0.054-2.108c-0.069-0.785-0.048-1.789,0.589-2.365
		c0.938-0.848,1.982,0.533,2.106,1.402C84.76,302.517,84.719,302.851,84.612,303.188L84.612,303.188z"/>
	<path fill="#F79239" d="M84.506,303.151c-0.51,1.479-0.901,1.812-0.579,2.111c1.436,1.328,0.386,1.949,0.97,3.896
		c0.287,0.952-0.724,1.764-1.231,1.864c-0.765,0.152-2.093,0.306-2.331-0.348c-0.584-1.602,0.862-4.898,0.768-5.135
		c-0.17-0.428,0.239-0.242,0.002-2.643c-0.123-1.242,0.436-2.414,1.246-2.263C84.161,300.787,84.914,301.974,84.506,303.151
		L84.506,303.151z"/>
	<path d="M99.961,304.455c1.2,0.03,2.119,1.03,2.06,2.231c-0.069,1.42-1.528,2.433-2.863,1.849c-1.503-0.656-1.687-2.783-0.35-3.716
		C99.154,304.578,99.542,304.465,99.961,304.455L99.961,304.455z"/>
	<path fill="#2E3192" d="M99.961,304.565c1.074,0,1.951,0.904,1.951,2.015c0,1.106-0.876,2.012-1.951,2.012
		c-1.075,0-1.951-0.903-1.951-2.012S98.887,304.565,99.961,304.565L99.961,304.565z"/>
	<path d="M105.923,299.799c-0.083-0.266-0.109-0.545-0.095-0.829c-0.194-0.357-0.219-0.814-0.138-1.228
		c-1.672-0.832-3.313-1.109-5.236-0.617c0.082-1.201,0.191-2.39,0.358-3.576c1.255-0.348,2.465-0.354,3.642-0.069
		c0.552-0.76,1.746-0.539,2.127,0.428c0.657-0.285,1.293,0.344,1.359,1.152c0.411,0.498,0.398,1.317-0.06,1.766
		c0.042,0.193,0.022,0.395-0.05,0.574c0.166,0.539-0.028,1.166-0.458,1.416c-0.038,0.424-0.182,0.858-0.417,1.176
		C106.595,300.476,106.138,300.408,105.923,299.799L105.923,299.799z"/>
	<path d="M100.21,304.317c0.938,0,1.702,0.789,1.702,1.757c0,0.967-0.765,1.756-1.702,1.756c-0.938,0-1.703-0.789-1.703-1.756
		C98.507,305.106,99.272,304.317,100.21,304.317L100.21,304.317z"/>
	<path d="M107.062,298.104c-0.933,4.156-2.358,8.23-2.943,12.457c-0.097,0.701,0.179,1.181,0.393,1.812
		c0.133,0.392-0.03,0.614-0.422,0.715c-1.492,0.384-3.722-0.073-4.908-1.049c-0.567-0.465-0.127-0.899,0.211-1.324
		c0.553-0.688,0.564-1.354,0.659-2.229c0.422-3.907,0.281-7.854,0.529-11.774C102.964,296.103,105.054,296.797,107.062,298.104
		L107.062,298.104z"/>
	<path fill="#FFF200" d="M106.937,298.158c-0.914,4.143-2.328,8.178-2.928,12.391c-0.231,1.619,1.332,2.312-0.334,2.496
		c-0.441,0.049-1.162,0.09-2.1-0.101c-1.018-0.204-1.631-0.571-2.004-0.78c-1.406-0.789,0.25-1.115,0.444-2.478
		c0.6-4.215,0.386-8.604,0.673-12.889C102.739,296.24,104.823,296.752,106.937,298.158L106.937,298.158z"/>
	<path d="M100.904,293.656c0.427-0.119,0.849-0.214,1.286-0.255c1.934-0.18,3.737,0.572,5.417,1.689
		c-0.159,1.1-0.366,2.18-0.603,3.256c-1.844-1.201-3.812-1.947-5.914-1.512c-0.174,0.035-0.347,0.082-0.52,0.127
		C100.646,295.854,100.75,294.754,100.904,293.656L100.904,293.656z"/>
	<path d="M100.816,294.31c0.027-0.218,0.057-0.437,0.088-0.652c1.208-0.344,2.435-0.377,3.647-0.039
		c0.064-0.283,0.482-0.436,0.698-0.463c0.522-0.064,1.101,0.285,1.273,0.922c0.639-0.361,1.257,0.236,1.316,1.043
		c0.43,0.465,0.374,1.258-0.083,1.656c0.065,0.209,0.049,0.42-0.043,0.615c0.181,0.518-0.003,1.127-0.441,1.336
		c-0.023,0.512-0.376,1.606-0.92,1.45c-0.38-0.159-0.448-0.829-0.416-1.245c-0.221-0.347-0.222-0.892-0.114-1.291
		c-1.561-0.816-3.273-1.173-4.951-0.757c-0.1,0.025-0.2,0.054-0.3,0.078C100.631,296.074,100.707,295.188,100.816,294.31
		L100.816,294.31z"/>
	<path fill="#FFFFFF" d="M100.996,293.765c1.175-0.347,2.361-0.341,3.557-0.015l0,0c0.02,0.006,0.04,0.013,0.06,0.019
		c0.007,0.002,0.015,0.004,0.023,0.006c0.028,0.008,0.055,0.016,0.083,0.024c0.005,0,0.009,0.002,0.014,0.005
		c0.028,0.008,0.057,0.018,0.086,0.024c0.005,0.002,0.01,0.004,0.016,0.006c0.028,0.008,0.057,0.019,0.085,0.026
		c0.006,0.003,0.011,0.005,0.017,0.007c0.026,0.008,0.052,0.016,0.078,0.024c0.011,0.004,0.022,0.008,0.033,0.012
		c0.022,0.009,0.044,0.017,0.067,0.023c0.012,0.004,0.023,0.008,0.035,0.012c0.025,0.011,0.05,0.019,0.075,0.027
		c0.007,0.002,0.014,0.006,0.021,0.008c0.028,0.01,0.056,0.021,0.083,0.031c0.006,0.004,0.012,0.006,0.019,0.008
		c0.026,0.01,0.053,0.021,0.079,0.031c0.009,0.004,0.017,0.008,0.025,0.01c0.023,0.01,0.047,0.021,0.07,0.029
		c0.015,0.006,0.029,0.012,0.043,0.018c0.017,0.008,0.034,0.015,0.051,0.021c0.015,0.006,0.03,0.014,0.045,0.02
		c0.02,0.008,0.039,0.019,0.059,0.025c0.015,0.008,0.03,0.014,0.045,0.02c0.001,0.002,0.002,0.002,0.003,0.002
		c0.009,0.004,0.019,0.009,0.028,0.013c0.009,0.006,0.019,0.01,0.027,0.014c0.017,0.009,0.034,0.017,0.05,0.023
		c0.018,0.008,0.036,0.016,0.053,0.022c0.015,0.008,0.029,0.014,0.044,0.021c0.017,0.008,0.034,0.016,0.051,0.025
		c0.019,0.008,0.037,0.018,0.055,0.024c0.02,0.01,0.04,0.021,0.059,0.028c0.012,0.007,0.025,0.015,0.038,0.021
		c0.02,0.011,0.04,0.021,0.06,0.029c0.015,0.008,0.031,0.016,0.046,0.022c0.015,0.008,0.029,0.017,0.044,0.023
		c-0.548-0.359-1.101-0.646-1.659-0.859c0.224-0.252,0.566-0.379,0.922-0.301c0.46,0.098,0.805,0.506,0.868,0.975
		c0.172-0.141,0.378-0.205,0.587-0.16c0.399,0.087,0.681,0.541,0.694,1.066c0.214,0.217,0.332,0.549,0.283,0.889
		c-0.041,0.289-0.194,0.523-0.4,0.656c0.06,0.119,0.086,0.26,0.066,0.4c-0.014,0.096-0.046,0.182-0.094,0.254
		c0.076,0.166,0.107,0.367,0.078,0.572c-0.048,0.34-0.251,0.6-0.5,0.682c0.002,0.191-0.032,0.42-0.106,0.65
		c-0.17,0.523-0.485,0.867-0.701,0.762c-0.205-0.102-0.367-0.529-0.315-1.154c-0.153-0.213-0.224-0.59-0.167-0.992
		c0.017-0.117,0.043-0.229,0.077-0.33c-1.778-0.948-3.535-1.239-5.268-0.77C100.756,295.778,100.853,294.769,100.996,293.765
		L100.996,293.765z"/>
	<path d="M104.6,309.901c-0.637,0.062-1.327-0.131-1.765-0.614c-0.298-0.361-0.356-0.83,0.002-1.172
		c-0.498-0.445-0.605-1.097-0.007-1.523l0.039-0.024c-0.309-0.463-0.21-0.967,0.248-1.305c0.907-0.589,2.355-0.316,3.083,0.446
		c0.373,0.431,0.464,0.996-0.033,1.363c-0.113,0.084-0.283,0.155-0.25,0.319c0.115,0.402,0.016,0.697-0.301,0.976
		c-0.053,0.049-0.147,0.104-0.094,0.174c0.144,0.192,0.183,0.349,0.144,0.59C105.55,309.627,105.063,309.84,104.6,309.901
		L104.6,309.901z"/>
	<path d="M101.519,305.133c0.282,0.562,0.676,1.354,0.258,1.935c-0.334,0.383-0.925,0.496-1.406,0.396
		c-0.726-0.2-1.142-0.94-1.431-1.584c-0.272-0.662-0.419-1.69,0.352-2.08c0.732-0.297,1.469,0.283,1.904,0.824
		C101.318,304.785,101.424,304.953,101.519,305.133L101.519,305.133z"/>
	<path fill="#F79239" d="M101.419,305.187c0.483,0.946,0.75,1.846-0.27,2.135c-1.02,0.287-1.541-0.359-2.023-1.309
		c-0.483-0.947-0.362-1.908,0.27-2.136C100.027,303.647,100.937,304.235,101.419,305.187L101.419,305.187z"/>
	<path d="M107.647,302.754c0.036-0.174,0.026-0.342-0.002-0.517c-0.101-0.606-0.162-1.227-0.231-1.836
		c-0.265,0.566-0.551,1.091-0.626,1.716c-0.014,0.313,0.118,0.758,0.401,0.928C107.436,303.142,107.59,302.981,107.647,302.754
		L107.647,302.754z"/>
	<path fill="#FFFFFF" d="M107.423,302.729c0.068-0.258-0.021-0.508-0.048-0.761c-0.028-0.254-0.066-0.504-0.094-0.758
		c-0.141,0.297-0.219,0.588-0.267,0.892C106.96,302.438,107.315,303.14,107.423,302.729L107.423,302.729z"/>
	<path fill="#F79239" d="M105.556,309.108c-0.098,0.513-0.818,0.808-1.603,0.656c-0.785-0.15-1.345-0.69-1.246-1.203
		c0.024-0.127,0.085-0.237,0.176-0.334c0.225-0.237,0.705-0.362,1.018-0.332c0.257,0.023,0.284-0.002,0.029-0.041
		c-0.392-0.059-0.75,0.052-0.988,0.203c-0.302-0.254-0.463-0.57-0.404-0.875c0.048-0.248,0.23-0.447,0.497-0.582
		c-0.184-0.225-0.271-0.477-0.224-0.723c0.117-0.611,1.018-0.955,2.003-0.764c0.987,0.188,1.695,0.842,1.578,1.451
		c-0.099,0.512-0.716,0.463-0.573,0.893c0.04,0.119,0.051,0.24,0.028,0.359c-0.032,0.166-0.125,0.311-0.264,0.43
		C105.103,308.656,105.67,308.517,105.556,309.108L105.556,309.108z"/>
	<polygon points="84.01,305.522 84.069,305.586 84.124,305.649 84.173,305.717 84.218,305.785 84.257,305.856 84.292,305.931 
		84.32,306.004 84.342,306.08 84.358,306.158 84.368,306.237 84.372,306.315 84.371,306.36 84.368,306.403 84.363,306.444 
		84.356,306.487 84.348,306.528 84.338,306.571 84.326,306.61 84.312,306.651 84.297,306.69 84.28,306.731 84.262,306.771 
		84.242,306.81 84.22,306.847 84.197,306.883 84.172,306.92 84.146,306.955 84.119,306.992 84.09,307.024 84.061,307.062 
		84.029,307.094 83.997,307.127 83.963,307.158 83.928,307.188 83.892,307.222 83.854,307.25 83.816,307.281 83.776,307.31 
		83.736,307.338 83.694,307.365 83.693,307.365 83.707,307.379 83.729,307.401 83.752,307.429 83.773,307.453 83.795,307.479 
		83.815,307.506 83.834,307.533 83.853,307.562 83.871,307.588 83.888,307.615 83.905,307.644 83.92,307.672 83.935,307.699 
		83.949,307.729 83.961,307.758 83.974,307.787 83.985,307.817 83.995,307.849 84.005,307.879 84.013,307.91 84.021,307.938 
		84.027,307.972 84.033,308.002 84.038,308.035 84.041,308.065 84.044,308.099 84.045,308.131 84.046,308.164 84.045,308.207 
		84.042,308.252 84.037,308.297 84.03,308.34 84.021,308.383 84.011,308.426 83.998,308.469 83.984,308.51 83.968,308.551 
		83.951,308.592 83.931,308.633 83.91,308.672 83.888,308.711 83.864,308.75 83.838,308.787 83.812,308.824 83.783,308.858 
		83.753,308.896 83.722,308.931 83.689,308.965 83.655,308.998 83.62,309.031 83.584,309.062 83.547,309.094 83.508,309.125 
		83.468,309.153 83.427,309.185 83.385,309.211 83.376,309.217 83.403,309.233 83.44,309.26 83.477,309.287 83.511,309.312 
		83.545,309.34 83.577,309.369 83.609,309.397 83.639,309.429 83.668,309.457 83.697,309.487 83.724,309.521 83.749,309.554 
		83.773,309.586 83.796,309.619 83.818,309.651 83.838,309.688 83.857,309.724 83.875,309.758 83.891,309.795 83.905,309.83 
		83.918,309.869 83.929,309.906 83.939,309.942 83.947,309.981 83.953,310.021 83.958,310.062 83.96,310.103 83.961,310.142 
		83.958,310.211 83.95,310.278 83.937,310.349 83.917,310.414 83.894,310.479 83.866,310.541 83.833,310.604 83.796,310.664 
		83.754,310.724 83.709,310.776 83.66,310.832 83.607,310.885 83.551,310.937 83.492,310.981 83.429,311.028 83.363,311.074 
		83.294,311.115 83.223,311.153 83.149,311.19 83.072,311.228 82.993,311.26 82.911,311.289 82.827,311.315 82.741,311.342 
		82.652,311.362 82.562,311.383 82.471,311.399 82.377,311.414 82.282,311.424 82.186,311.433 82.088,311.438 81.988,311.438 
		81.889,311.438 81.792,311.433 81.695,311.424 81.6,311.414 81.506,311.399 81.414,311.383 81.324,311.362 81.236,311.342 
		81.15,311.315 81.066,311.289 80.984,311.26 80.905,311.228 80.828,311.19 80.754,311.153 80.682,311.115 80.613,311.074 
		80.548,311.028 80.485,310.981 80.425,310.937 80.369,310.885 80.316,310.832 80.268,310.776 80.223,310.724 80.181,310.664 
		80.144,310.604 80.111,310.541 80.083,310.479 80.059,310.414 80.04,310.349 80.026,310.278 80.019,310.211 80.016,310.142 
		80.019,310.065 80.026,309.998 80.039,309.935 80.057,309.873 80.078,309.817 80.103,309.767 80.13,309.719 80.159,309.674 
		80.19,309.635 80.221,309.599 80.253,309.563 80.284,309.535 80.313,309.506 80.341,309.479 80.368,309.457 80.39,309.438 
		80.41,309.418 80.425,309.399 80.437,309.388 80.443,309.375 80.446,309.369 80.447,309.365 80.448,309.36 80.447,309.356 
		80.443,309.347 80.436,309.33 80.42,309.31 80.398,309.281 80.368,309.25 80.329,309.213 80.281,309.172 80.222,309.127 
		80.193,309.104 80.163,309.08 80.134,309.056 80.105,309.028 80.078,309.004 80.051,308.979 80.025,308.951 80,308.924 
		79.976,308.896 79.952,308.869 79.93,308.842 79.908,308.812 79.887,308.783 79.867,308.754 79.848,308.726 79.83,308.692 
		79.812,308.662 79.796,308.631 79.781,308.601 79.767,308.567 79.753,308.537 79.741,308.504 79.73,308.472 79.72,308.438 
		79.711,308.403 79.704,308.371 79.697,308.336 79.691,308.304 79.688,308.269 79.684,308.231 79.683,308.196 79.682,308.162 
		79.684,308.099 79.691,308.037 79.702,307.978 79.716,307.922 79.734,307.869 79.755,307.817 79.778,307.771 79.803,307.729 
		79.829,307.688 79.856,307.647 79.884,307.61 79.911,307.578 79.938,307.545 79.965,307.517 79.99,307.485 80.013,307.459 
		80.034,307.435 80.053,307.41 80.069,307.39 80.082,307.367 80.092,307.351 80.099,307.334 80.103,307.319 80.105,307.308 
		80.105,307.295 80.104,307.281 80.099,307.269 80.091,307.248 80.078,307.228 80.059,307.199 80.034,307.17 80,307.138 
		79.979,307.115 79.958,307.094 79.937,307.071 79.917,307.049 79.896,307.024 79.877,307.004 79.858,306.979 79.84,306.957 
		79.823,306.933 79.806,306.908 79.79,306.885 79.774,306.858 79.76,306.834 79.745,306.81 79.732,306.783 79.719,306.758 
		79.707,306.731 79.695,306.705 79.685,306.681 79.674,306.651 79.665,306.627 79.657,306.601 79.648,306.571 79.642,306.545 
		79.636,306.517 79.63,306.487 79.626,306.461 79.622,306.433 79.619,306.403 79.617,306.375 79.616,306.349 79.615,306.315 
		79.618,306.237 79.628,306.158 79.645,306.08 79.667,306.004 79.695,305.931 79.729,305.856 79.769,305.785 79.813,305.717 
		79.863,305.649 79.918,305.586 79.977,305.522 80.04,305.463 80.107,305.406 80.179,305.351 80.254,305.297 80.333,305.246 
		80.417,305.196 80.503,305.151 80.592,305.108 80.685,305.069 80.781,305.031 80.879,304.998 80.98,304.965 81.084,304.938 
		81.191,304.91 81.3,304.89 81.411,304.869 81.523,304.854 81.639,304.84 81.755,304.832 81.874,304.826 81.993,304.824 
		82.113,304.826 82.231,304.832 82.348,304.84 82.463,304.854 82.576,304.869 82.687,304.89 82.796,304.91 82.902,304.938 
		83.006,304.965 83.107,304.998 83.206,305.031 83.301,305.069 83.395,305.108 83.484,305.151 83.57,305.196 83.653,305.246 
		83.732,305.297 83.808,305.351 83.879,305.406 83.947,305.463 	"/>
	<path fill="#F79239" d="M81.993,304.937c1.249,0,2.267,0.621,2.267,1.383c0,0.406-0.291,0.772-0.751,1.027
		c0.267,0.227,0.426,0.51,0.426,0.815c0,0.426-0.305,0.808-0.78,1.055c0.423,0.218,0.695,0.552,0.695,0.925
		c0,0.653-0.836,1.188-1.861,1.188c-1.025,0-1.861-0.533-1.861-1.188c0-0.718,0.852-0.578,0.164-1.103
		c-0.31-0.235-0.498-0.543-0.498-0.877c0-0.621,0.717-0.69,0.286-1.104c-0.223-0.214-0.353-0.468-0.353-0.738
		C79.727,305.558,80.745,304.937,81.993,304.937L81.993,304.937z"/>
	<path d="M84.278,306.295c0.013,0.047,0.021,0.097,0.024,0.146c0.042,0.633-0.758,1.205-1.781,1.272
		c-0.412,0.024-0.799-0.032-1.117-0.153c0.343,0.112,0.763,0.146,1.204,0.078C83.577,307.485,84.301,306.896,84.278,306.295
		L84.278,306.295z"/>
	<path fill="#FFFFFF" d="M101.199,297.349c0.224-0.093,0.5-0.15,0.785-0.175c-0.086,0.461-0.148,0.935-0.189,1.425
		c-0.247,0.018-0.485,0.051-0.696,0.1C101.098,298.231,101.127,297.785,101.199,297.349L101.199,297.349z M101.768,298.957
		c-0.032,0.517-0.042,1.049-0.032,1.604c-0.155,0.004-0.318,0.018-0.523,0.035c-0.054-0.539-0.096-1.054-0.11-1.546
		C101.323,299.002,101.544,298.972,101.768,298.957L101.768,298.957z M102.439,297.172c0.325,0.021,0.632,0.095,0.857,0.228
		c0,0.438-0.04,0.85-0.108,1.256c-0.247-0.041-0.527-0.064-0.815-0.07C102.412,298.129,102.434,297.664,102.439,297.172
		L102.439,297.172z M103.11,299.067c-0.107,0.511-0.253,1.021-0.412,1.576c-0.234-0.037-0.417-0.061-0.579-0.074
		c0.091-0.549,0.166-1.073,0.219-1.608C102.589,298.979,102.845,299.015,103.11,299.067L103.11,299.067z"/>
	<path fill="#FFFFFF" d="M103.585,310.451c0.087-0.195-0.073,0.438-0.104,0.659c-0.141,0.986,0.812,1.408-0.203,1.521
		c-0.269,0.029-0.708,0.055-1.279-0.061c-0.311-0.064-0.969-0.219-0.758-0.238C102.89,312.185,103.007,311.758,103.585,310.451
		L103.585,310.451z"/>
	<path d="M263.529,272.84c0.001-0.471,0.02-0.94,0-1.409c-0.01-0.226-1.521-0.267-1.931-0.267c-2.226-0.002-4.452-0.002-6.679,0
		c-0.19,0-1.928,0.039-1.93,0.267c-0.021,3,0.004,6.002,0,9.004c0,3.791-10.559,3.784-10.559,0c-0.004-2.795-0.001-5.591,0-8.386
		c0-4.19,6.783-5.104,9.619-5.104c3.755,0,7.509,0,11.263,0c2.713,0,10.367,0.459,10.39,4.535c0.002,0.396,0.008,0.789,0,1.187
		c-0.07,3.209-3.881,4.103-3.855,4.114c1.393,0.781,3.811,1.464,3.857,3.455c0.037,1.562-1.639,2.22-2.861,2.584
		c-1.756,0.527-3.955,0.675-5.621-0.223c-3.303-1.772-6.602-3.557-9.907-5.328c-0.696-0.373-1.448-0.789-1.438-1.705
		c0.025-1.762,2.806-2.162,4.076-2.162c1.221-0.002,2.44,0.002,3.66,0C261.862,273.401,263.529,273.252,263.529,272.84
		L263.529,272.84z M306.421,271.185c-3.93,0-7.861,0.002-11.793,0c-1.397,0-4.049-0.332-4.051-2.088
		c-0.002-1.763,2.563-2.13,3.976-2.13c4.907,0,9.813,0,14.722,0c3.191,0,9.613,1.046,9.619,5.104c0.006,2.781,0.004,5.564,0,8.345
		c0,2.373-3.645,2.838-5.277,2.838c-1.643,0-5.273-0.448-5.279-2.838c-0.004-1.263,0-2.522,0-3.785c0-0.446-1.631-0.563-1.914-0.563
		c-2.211-0.002-4.422-0.002-6.633,0c-0.338,0-1.916,0.09-1.916,0.563c0,0.574,0,1.149,0,1.726c0,0.442,1.625,0.563,1.916,0.563
		c1.086,0.002,2.174,0,3.262,0c1.302,0,4.092,0.324,4.09,2.17c-0.002,1.826-2.799,2.164-4.089,2.164c-2.038,0-4.078,0-6.116,0
		c-3.215,0-9.58-1.039-9.619-5.106c-0.004-0.396-0.004-0.795,0-1.191c0.04-4.09,6.411-5.068,9.62-5.068c3.8,0,7.601,0.045,11.399,0
		c0.02,0,0.045-0.174-0.094-0.27C307.763,271.289,306.992,271.185,306.421,271.185L306.421,271.185z M59.617,283.291
		c-3.204,0.002-6.409,0.002-9.613,0c-5.126,0-14.863-1.558-14.571-8.438c0.269-6.513,10.222-7.849,14.532-7.849
		c3.217,0,6.434,0,9.65,0c1.204,0,4.09,0.32,4.09,2.168c0,0.306-0.074,0.568-0.202,0.795c3.101-2.344,8.286-3,11.939-3
		c3.203,0,6.407,0,9.611,0c1.397,0,4.09,0.386,4.09,2.166c0,1.865-2.826,2.166-4.089,2.166c-2.229,0.002-4.459,0-6.689,0
		c-2.422,0-7.287,0.438-7.287,3.83c0,3.287,5.113,3.791,7.288,3.791c2.242,0,4.484,0,6.726,0c1.312,0,4.076,0.319,4.09,2.166
		c0.016,1.789-2.835,2.168-4.088,2.168c-3.217,0-6.435,0-9.651,0c-5.028,0-14.31-1.485-14.571-7.885
		c-0.081-1.921,0.586-3.423,1.712-4.593c-0.914,0.459-2.178,0.562-2.967,0.562c-2.229,0-4.459,0-6.689,0
		c-2.508,0-7.288,0.621-7.288,3.83c0,3.354,5.149,3.791,7.288,3.791c2.242,0,4.484,0,6.726,0c1.296,0,4.062,0.336,4.052,2.17
		C63.697,282.94,60.903,283.291,59.617,283.291L59.617,283.291z M85.094,277.219c-2.757,0-5.514,0-8.271,0
		c-1.397,0-4.089-0.389-4.089-2.165c0-1.845,2.789-2.169,4.09-2.169c2.756,0,5.512,0,8.268,0c1.312,0,4.076,0.32,4.09,2.166
		C89.198,276.84,86.348,277.219,85.094,277.219L85.094,277.219z M110.706,272.86c0.001-0.471,0.02-0.94,0-1.411
		c-0.009-0.224-1.522-0.267-1.93-0.267c-2.226,0-4.452,0-6.678,0c-0.191,0-1.929,0.041-1.93,0.269c-0.021,3,0.003,6.002,0,9.002
		c0,3.793-10.558,3.787-10.558,0.002c-0.003-2.795-0.001-5.59,0-8.386c0-4.19,6.784-5.104,9.62-5.104c3.754,0,7.508,0,11.262,0
		c2.713,0,10.368,0.459,10.389,4.533c0.002,0.396,0.008,0.791,0,1.186c-0.07,3.211-3.879,4.104-3.856,4.117
		c1.393,0.779,3.812,1.463,3.857,3.455c0.038,1.562-1.637,2.219-2.859,2.584c-1.757,0.527-3.957,0.674-5.622-0.223
		c-3.303-1.775-6.603-3.557-9.908-5.328c-0.697-0.373-1.45-0.789-1.438-1.707c0.025-1.762,2.804-2.16,4.076-2.16
		c1.22-0.002,2.44,0,3.661,0C109.039,273.424,110.706,273.272,110.706,272.86L110.706,272.86z M174.937,277.219
		c-2.757,0-5.514,0-8.271,0c-1.396,0-4.089-0.389-4.089-2.165c0-1.845,2.788-2.169,4.09-2.169c2.756,0,5.512,0,8.268,0
		c1.26,0,3.275,0.277,3.917,1.462c0.041,0.073,0.067,0.137,0.09,0.237c0.047-0.051,0.093-0.097,0.14-0.14
		c1.133-1.032,2.946-1.268,4.405-1.288c1.771-0.027,5.479,0.42,5.485,2.797c0.003,0.771-0.002,1.539,0,2.31
		c0,0.524,1.586,0.618,1.914,0.618c1.57,0.002,3.141,0.002,4.711,0c0.27,0,1.915-0.137,1.915-0.563c0.001-2.851-0.003-5.699,0-8.551
		c0-2.4,3.678-2.839,5.317-2.839c1.748,0,5.316,0.533,5.316,2.839c0.003,2.782,0.008,5.565,0,8.35c-0.006,4.057-6.783,5.1-9.645,5.1
		c-3.481,0-6.963,0-10.443,0c-3.523,0-9.586-1.035-9.684-5.516c-0.012-0.477-0.008-0.926,0-1.428
		c-0.043,0.033-0.055,0.049-0.084,0.067C177.331,277,176.082,277.219,174.937,277.219L174.937,277.219z M174.937,283.254
		c-3.217,0-6.435,0-9.651,0c-5.548,0-14.577-1.586-14.577-8.164c0-6.562,9.429-8.123,14.577-8.123c3.204,0,6.407,0,9.611,0
		c1.303,0,4.09,0.32,4.09,2.166c0,1.845-2.789,2.166-4.089,2.166c-2.23,0.002-4.46,0-6.689,0c-2.595,0-7.288,0.629-7.288,3.83
		c0,3.142,4.76,3.791,7.288,3.791c2.242,0,4.484,0,6.726,0c1.362,0,4.074,0.31,4.09,2.166
		C179.041,282.867,176.115,283.254,174.937,283.254L174.937,283.254z M228.607,271.185c-3.932,0-7.861,0.002-11.793,0
		c-1.398,0-4.05-0.332-4.052-2.088c-0.003-1.763,2.563-2.13,3.975-2.13c4.907,0,9.815,0,14.724,0c3.191,0,9.613,1.046,9.619,5.104
		c0.006,2.781,0.004,5.564,0,8.345c0,2.373-3.646,2.838-5.279,2.838c-1.641,0-5.272-0.448-5.278-2.838
		c-0.003-1.263,0.001-2.522,0-3.785c0-0.446-1.63-0.563-1.914-0.563c-2.211-0.002-4.423-0.002-6.633,0
		c-0.337,0-1.915,0.09-1.915,0.563c-0.001,0.574-0.001,1.149,0,1.726c0,0.442,1.624,0.563,1.915,0.563c1.087,0.002,2.175,0,3.262,0
		c1.302,0,4.093,0.324,4.091,2.17c-0.002,1.826-2.8,2.164-4.09,2.164c-2.039,0-4.078,0-6.115,0c-3.215,0-9.58-1.039-9.619-5.106
		c-0.004-0.396-0.004-0.795,0-1.191c0.039-4.09,6.41-5.068,9.619-5.068c3.799,0,7.601,0.045,11.399,0
		c0.019,0,0.046-0.174-0.093-0.27C229.949,271.289,229.177,271.185,228.607,271.185L228.607,271.185z M280.337,283.254
		c-1.746,0-5.278-0.541-5.278-2.838c-0.003-3.551-0.003-7.101,0-10.649c0-2.3,3.53-2.839,5.278-2.839
		c1.746,0,5.279,0.541,5.279,2.839c0.004,3.551,0.004,7.102,0,10.649C285.617,282.694,282.068,283.254,280.337,283.254
		L280.337,283.254z M136.654,283.291c-1.498-0.019-3.082-0.197-4.179-1.324l-9.471-10.551c-3.471-4.063,6.714-5.563,9.065-3.119
		l4.852,5.353l4.854-5.359c2.528-2.605,12.463-0.824,9.076,3.129l-9.469,10.549C140.146,283.24,138.316,283.291,136.654,283.291
		L136.654,283.291z"/>
	<path fill="#F79239" d="M309.119,272.668v-0.959c0-0.461-0.357-0.81-1.074-1.039c-0.514-0.18-1.051-0.269-1.615-0.269h-11.797
		c-0.666,0-1.307-0.077-1.922-0.231c-0.896-0.229-1.344-0.588-1.344-1.073c0-0.488,0.436-0.847,1.307-1.078
		c0.588-0.179,1.217-0.269,1.883-0.269h14.719c1.844,0,3.625,0.293,5.342,0.883c2.33,0.795,3.496,1.947,3.496,3.459v8.304
		c0,0.717-0.604,1.268-1.809,1.651c-0.869,0.283-1.766,0.425-2.688,0.425s-1.818-0.142-2.689-0.425
		c-1.205-0.356-1.807-0.907-1.807-1.651v-3.806c0-0.437-0.359-0.78-1.076-1.036c-0.512-0.181-1.051-0.271-1.613-0.271h-6.648
		c-0.562,0-1.102,0.09-1.613,0.271c-0.717,0.256-1.076,0.602-1.076,1.036v1.808c0,0.436,0.359,0.781,1.076,1.037
		c0.513,0.18,1.051,0.27,1.613,0.27h3.268c0.641,0,1.293,0.09,1.959,0.27c0.896,0.256,1.346,0.627,1.346,1.113
		c0,0.463-0.448,0.834-1.346,1.115c-0.666,0.18-1.318,0.27-1.959,0.27h-6.109c-1.846,0-3.625-0.295-5.342-0.885
		c-2.331-0.795-3.497-1.947-3.497-3.459v-1.152c0-1.486,1.166-2.641,3.497-3.459c1.717-0.563,3.496-0.848,5.342-0.848
		L309.119,272.668L309.119,272.668z M280.337,282.472c-0.922,0-1.818-0.142-2.689-0.425c-1.204-0.356-1.807-0.907-1.807-1.651
		v-10.607c0-0.744,0.603-1.295,1.807-1.654c0.871-0.281,1.77-0.422,2.689-0.422c0.922,0,1.818,0.141,2.689,0.422
		c1.204,0.359,1.807,0.91,1.807,1.654v10.607c0,0.717-0.603,1.268-1.807,1.651C282.156,282.33,281.259,282.472,280.337,282.472
		L280.337,282.472z M254.667,275.59c0-0.461,0.449-0.819,1.347-1.075c0.64-0.181,1.293-0.281,1.959-0.308h3.651
		c0.562,0,1.102-0.09,1.612-0.271c0.718-0.229,1.076-0.576,1.076-1.037v-1.536c0-0.642-0.903-0.962-2.709-0.962h-6.687
		c-1.807,0-2.709,0.32-2.709,0.962v0.151v8.918c0,0.717-0.604,1.269-1.808,1.652c-0.845,0.256-1.741,0.385-2.688,0.385
		c-0.922,0-1.819-0.129-2.689-0.385c-1.204-0.385-1.807-0.936-1.807-1.652v-8.342c0-0.025,0.013-0.127,0.039-0.307
		c0.203-1.408,1.422-2.473,3.649-3.189c1.64-0.563,3.354-0.846,5.149-0.846h11.259c3.791,0,6.521,0.576,8.185,1.729
		c0.948,0.642,1.422,1.32,1.422,2.037v1.152c0,1.205-0.857,2.23-2.573,3.076c-0.692,0.334-1.55,0.615-2.575,0.846l3.997,2.113
		c0.769,0.43,1.151,0.949,1.151,1.564c0,0.729-0.646,1.299-1.939,1.709c-0.961,0.325-1.896,0.494-2.812,0.494
		c-1.037,0-1.901-0.181-2.58-0.546l-9.922-5.336C255.001,276.31,254.667,275.976,254.667,275.59L254.667,275.59z M231.305,272.668
		v-0.959c0-0.461-0.358-0.81-1.076-1.039c-0.513-0.18-1.05-0.269-1.612-0.269h-11.799c-0.666,0-1.307-0.077-1.921-0.231
		c-0.896-0.229-1.347-0.588-1.347-1.073c0-0.488,0.437-0.847,1.308-1.078c0.591-0.179,1.218-0.269,1.884-0.269h14.717
		c1.846,0,3.625,0.293,5.342,0.883c2.332,0.795,3.496,1.947,3.496,3.459v8.304c0,0.717-0.602,1.268-1.805,1.651
		c-0.871,0.283-1.769,0.425-2.689,0.425c-0.924,0-1.819-0.142-2.69-0.425c-1.204-0.356-1.806-0.907-1.806-1.651v-3.806
		c0-0.437-0.357-0.78-1.076-1.036c-0.514-0.181-1.05-0.271-1.613-0.271h-6.648c-0.562,0-1.102,0.09-1.613,0.271
		c-0.717,0.256-1.075,0.602-1.075,1.036v1.808c0,0.436,0.358,0.781,1.075,1.037c0.514,0.18,1.051,0.27,1.613,0.27h3.268
		c0.641,0,1.293,0.09,1.96,0.27c0.896,0.256,1.345,0.627,1.345,1.113c0,0.463-0.447,0.834-1.345,1.115
		c-0.667,0.18-1.319,0.27-1.96,0.27h-6.109c-1.846,0-3.625-0.295-5.342-0.885c-2.332-0.795-3.496-1.947-3.496-3.459v-1.152
		c0-1.486,1.164-2.641,3.496-3.459c1.717-0.563,3.496-0.848,5.342-0.848L231.305,272.668L231.305,272.668z M207.365,273.321v4.767
		c-0.025,1.513-1.211,2.666-3.549,3.461c-1.689,0.589-3.465,0.884-5.314,0.884h-10.439c-1.852,0-3.611-0.296-5.277-0.884
		c-2.261-0.795-3.459-1.937-3.586-3.422l-0.039-0.461v-1.69c0-0.718,0.603-1.269,1.812-1.652c0.877-0.256,1.773-0.385,2.701-0.385
		c0.93,0,1.826,0.129,2.703,0.385c1.211,0.385,1.812,0.936,1.812,1.652v1.651v0.69c0.025,0.464,0.385,0.82,1.076,1.078
		c0.512,0.179,1.05,0.269,1.613,0.269h4.727c0.562,0,1.102-0.09,1.614-0.269c0.718-0.258,1.075-0.604,1.075-1.039v-8.569
		c0-0.744,0.608-1.295,1.818-1.654c0.858-0.28,1.762-0.422,2.717-0.422c0.928,0,1.832,0.142,2.715,0.422
		c1.211,0.359,1.818,0.91,1.818,1.654v3.534H207.365z M177.199,282.065c-0.692,0.271-1.447,0.404-2.267,0.404h-9.645
		c-3.151,0-5.995-0.475-8.531-1.422c-3.51-1.332-5.265-3.318-5.265-5.959c0-2.639,1.754-4.611,5.265-5.918
		c2.536-0.949,5.379-1.422,8.531-1.422h9.606c0.666,0,1.32,0.09,1.959,0.268c0.897,0.258,1.345,0.629,1.345,1.115
		s-0.447,0.859-1.345,1.115c-0.666,0.18-1.319,0.27-1.959,0.27h-6.686c-1.973,0-3.676,0.295-5.111,0.883
		c-1.973,0.795-2.959,2.037-2.959,3.729c0,1.666,0.999,2.896,2.997,3.688c1.435,0.591,3.125,0.886,5.073,0.886h6.725
		c0.641,0,1.294,0.09,1.959,0.271c0.896,0.256,1.346,0.627,1.346,1.112C178.237,281.472,177.891,281.797,177.199,282.065
		L177.199,282.065z M136.659,282.51c-1.768,0-2.972-0.358-3.612-1.077l-9.453-10.531c-0.282-0.308-0.423-0.615-0.423-0.922
		c0-0.795,0.628-1.383,1.883-1.769c0.89-0.31,1.838-0.461,2.837-0.461c1.768,0,2.965,0.356,3.605,1.082l5.425,5.981l5.424-5.987
		c0.641-0.72,1.845-1.076,3.612-1.076c1,0,1.947,0.151,2.844,0.461c1.255,0.386,1.883,0.974,1.883,1.769
		c0,0.307-0.141,0.614-0.422,0.922l-9.453,10.531c-0.641,0.719-1.845,1.077-3.613,1.077H136.659L136.659,282.51z M101.844,275.59
		c0-0.461,0.448-0.819,1.345-1.075c0.641-0.181,1.294-0.281,1.96-0.308h3.65c0.564,0,1.102-0.09,1.614-0.271
		c0.717-0.229,1.076-0.576,1.076-1.037v-1.536c0-0.642-0.903-0.962-2.708-0.962h-6.688c-1.806,0-2.708,0.32-2.708,0.962v0.151v8.918
		c0,0.717-0.602,1.269-1.806,1.652c-0.846,0.256-1.742,0.385-2.69,0.385c-0.922,0-1.819-0.129-2.69-0.385
		c-1.205-0.385-1.807-0.936-1.807-1.652v-8.342c0-0.025,0.013-0.127,0.039-0.307c0.205-1.408,1.422-2.473,3.651-3.189
		c1.64-0.563,3.356-0.846,5.149-0.846h11.259c3.792,0,6.52,0.576,8.185,1.729c0.948,0.642,1.422,1.32,1.422,2.037v1.152
		c0,1.205-0.858,2.23-2.575,3.076c-0.692,0.334-1.55,0.615-2.575,0.846l3.997,2.113c0.769,0.43,1.153,0.949,1.153,1.564
		c0,0.729-0.646,1.299-1.941,1.709c-0.96,0.325-1.896,0.494-2.812,0.494c-1.037,0-1.902-0.181-2.581-0.546l-9.92-5.336
		C102.177,276.31,101.844,275.976,101.844,275.59L101.844,275.59z M87.356,282.065c-0.691,0.271-1.447,0.404-2.267,0.404h-9.645
		c-3.151,0-5.995-0.475-8.531-1.422c-3.509-1.332-5.264-3.318-5.264-5.959c0-2.639,1.755-4.611,5.264-5.918
		c2.536-0.949,5.38-1.422,8.531-1.422h9.606c0.666,0,1.319,0.09,1.959,0.268c0.896,0.258,1.345,0.629,1.345,1.115
		s-0.449,0.859-1.345,1.115c-0.666,0.18-1.319,0.27-1.959,0.27h-6.687c-1.973,0-3.676,0.295-5.111,0.883
		c-1.972,0.795-2.958,2.037-2.958,3.729c0,1.666,0.999,2.896,2.998,3.688c1.434,0.591,3.125,0.886,5.072,0.886h6.725
		c0.641,0,1.294,0.09,1.96,0.271c0.896,0.256,1.345,0.627,1.345,1.112C88.395,281.472,88.049,281.797,87.356,282.065L87.356,282.065
		z M59.612,282.51h-9.606c-3.151,0-5.995-0.475-8.531-1.424c-3.509-1.332-5.264-3.317-5.264-5.957c0-2.612,1.755-4.573,5.264-5.881
		c2.562-0.974,5.393-1.461,8.493-1.461h9.645c0.666,0,1.319,0.09,1.96,0.271c0.897,0.256,1.345,0.629,1.345,1.114
		c0,0.486-0.448,0.856-1.345,1.113c-0.666,0.18-1.319,0.271-1.96,0.271h-6.686c-1.973,0-3.676,0.295-5.111,0.885
		c-1.973,0.795-2.959,2.037-2.959,3.729s0.986,2.934,2.959,3.729c1.409,0.562,3.112,0.847,5.111,0.847h6.725
		c0.666,0,1.307,0.09,1.921,0.269c0.897,0.258,1.345,0.629,1.345,1.114c0,0.461-0.461,0.832-1.383,1.115
		C60.893,282.42,60.253,282.51,59.612,282.51L59.612,282.51z M87.356,276.033c-0.691,0.268-1.447,0.401-2.267,0.401h-8.262
		c-0.64,0-1.293-0.09-1.959-0.27c-0.896-0.256-1.345-0.627-1.345-1.113c0-0.488,0.449-0.859,1.345-1.115
		c0.666-0.18,1.319-0.27,1.959-0.27h8.262c0.641,0,1.294,0.09,1.96,0.27c0.896,0.256,1.345,0.627,1.345,1.115
		C88.395,275.438,88.049,275.765,87.356,276.033L87.356,276.033z M177.199,276.033c-0.692,0.268-1.447,0.401-2.267,0.401h-8.262
		c-0.641,0-1.294-0.09-1.96-0.27c-0.896-0.256-1.345-0.627-1.345-1.113c0-0.488,0.449-0.859,1.345-1.115
		c0.666-0.18,1.319-0.27,1.96-0.27h8.262c0.641,0,1.294,0.09,1.959,0.27c0.896,0.256,1.346,0.627,1.346,1.115
		C178.237,275.438,177.891,275.765,177.199,276.033L177.199,276.033z"/>
</g>
</svg>
