<?xml version="1.0" encoding="utf-8"?>
<!-- Generator: Adobe Illustrator 16.0.0, SVG Export Plug-In . SVG Version: 6.00 Build 0)  -->
<!DOCTYPE svg PUBLIC "-//W3C//DTD SVG 1.1//EN" "http://www.w3.org/Graphics/SVG/1.1/DTD/svg11.dtd">
<svg version="1.1" id="Layer_1" xmlns="http://www.w3.org/2000/svg" xmlns:xlink="http://www.w3.org/1999/xlink" x="0px" y="0px"
	 width="101.116px" height="175.746px" viewBox="45.819 8.503 101.116 175.746"
	 enable-background="new 45.819 8.503 101.116 175.746" xml:space="preserve">
<g>
	<path fill="#ED1C24" d="M78.085,19.978l2.214,2.146c0,0-2.071,5.941-3.704,10.77c-1.633,4.828-4.959,12.483-7.007,15.256
		c-2.048,2.772-4.94-0.291-7.407-2.564c-2.467-2.273-8.205-0.872-2.191-5.313c6.014-4.441,10.002-5.653,12.247-10.934
		C74.481,24.057,75.528,19.502,78.085,19.978L78.085,19.978z M91.355,28.136c0,0,7.839-14.768,3.353-18.07
		C78.754-1.68,81.955,56.566,56.25,59.099c0,0,10.745,6.872,22.097-13.166C89.7,25.895,90.71,22.784,90.71,22.784l-1.575,3.839
		L91.355,28.136L91.355,28.136z"/>
	<path fill="#FFFFFF" d="M99.479,47.938l-0.472-2.641c-0.944-5.472-3.491-10.001-7.831-13.68c1.321-0.566,2.547-0.661,3.868-0.094
		l1.51,0.566c0.188,0.094,0.282,0.188,0.471,0.188l0.377-0.188c-0.659-1.415-1.792-2.453-3.208-2.925l-1.51-0.188
		c-0.754,0.188-1.415,0.283-2.075,0.566c0.566-1.038,1.321-1.792,2.453-2.17c1.51-0.472,3.114-0.849,4.718-1.038l0.094-0.377
		c-0.66-0.661-1.415-0.943-2.264-0.943l-3.208,0.094l0.472-0.661v-0.188c-1.415-0.472-2.642,0-3.68,1.132
		c-1.415,1.699-2.358,3.68-2.83,5.944c-0.094,0.094-0.094,0.283-0.283,0.472L85.14,32.56c-0.66,0.472-1.321,1.132-1.698,1.698
		c-0.566,0.849-1.038,1.698-1.415,2.736l-4.528,12.925c-0.661,1.887-1.51,3.68-2.359,5.378l0.661-0.189
		c2.453-4.906,4.434-10.189,5.943-15.567c0.377-1.698,1.227-3.302,2.17-4.812c0.755-1.227,1.793-2.17,3.019-2.83
		c0.283-1.981,0.943-3.68,2.076-5.095c0.755-1.132,1.887-1.887,3.208-2.264c-1.132,0.754-2.076,1.698-2.642,2.924
		c-0.566,0.755-0.754,1.604-0.943,2.453l-0.094,0.849c0.472-0.755,1.038-1.604,1.321-2.736c0.189-0.472,0.472-0.943,0.849-1.228
		c1.604-0.943,3.208-1.416,4.906-1.132l1.321,0.283c-2.453,0.094-4.527,1.132-6.227,2.736c-0.472,0.566-0.849,1.038-1.227,1.604
		l0.283,0.755c0.943-0.849,1.981-1.321,3.208-1.416c0.472-0.094,0.943,0,1.51,0.189c0.754,0.472,1.415,1.038,2.076,1.698
		c-0.944-0.472-1.887-0.755-2.925-0.849l-1.415,0.094c-0.472,0.094-0.943,0.377-1.226,0.66l-0.283,0.472
		c3.679,2.83,6.038,6.415,7.17,10.85c0.66,2.547,1.134,5.188,1.415,7.831c0.188,1.981,0.378,3.962,0.283,5.849l0.943-0.566h-0.188
		C100.046,53.221,99.669,50.674,99.479,47.938L99.479,47.938z"/>
	<path d="M100.046,56.712l1.793-0.094l-0.66,3.302l-0.283,0.094c0.754,0.944,1.698,1.604,2.83,1.981
		c1.604,0.566,3.209,0.849,4.906,0.849c-2.831,1.321-5.473,2.925-8.113,4.717c2.357-0.755,4.527-1.792,6.604-3.113
		c0.85-0.566,1.697-1.132,2.734-1.604c3.115-1.509,6.416-2.264,9.812-2.359c0.564-0.094,0.943,0.095,1.32,0.377l0.566,0.472
		c0,1.132-0.473,2.075-1.322,2.736c-1.414,0.943-3.019,1.415-4.717,1.227c0.096-0.755,0.473-1.227,1.321-1.416
		c0.472,0,0.849-0.188,1.32-0.566c-4.528,0.472-8.774,1.887-12.644,4.34c-0.754,0.472-1.697,0.943-2.547,1.321
		c-2.642,1.415-5.472,2.453-8.302,3.208c-1.132,0.377-2.264,0.377-3.396,0c-1.981-0.566-3.491-1.604-4.623-3.302
		c-1.132-1.698-2.076-3.396-2.925-5.189c-0.755-1.51-1.887-2.831-3.208-3.774l2.453,0.094c-2.547-1.038-5.189-1.226-7.925-0.472
		l-0.189,0.377l2.831-0.094c0.755-0.283,1.415-0.094,1.981,0.188l1.132,1.038c1.792,1.792,3.208,3.868,4.057,6.132
		c-3.679-1.604-7.358-3.208-11.227-4.623c-0.755-0.283-1.604-0.755-2.265-1.133c-0.472-0.283-0.849-0.754-1.038-1.32
		c0.849-1.981,2.359-3.302,4.528-3.68c0.661-0.188,1.227-0.377,1.698-0.754c2.736,0.283,5,1.509,6.887,3.585
		c1.227,1.604,2.831,2.736,4.812,3.302l-0.283-0.472c2.076-0.754,3.774-1.698,5.472-3.019l0.377-0.094
		c0.283,0.094,0.661,0.283,0.943,0.472c0.472,0.283,0.943,0.566,1.416,0.755l0.471,0.094
		C98.442,59.637,99.574,58.504,100.046,56.712l-0.943,14.812l0.851-0.472c5-2.736,10.188-5,15.565-6.981
		c-1.037,1.981-2.547,3.396-4.527,4.434c-3.774,1.887-7.643,2.925-11.889,3.019L100.046,56.712L100.046,56.712z"/>
	<path d="M102.026,58.599c0.283-0.754,0.473-1.415,0.473-1.792c-0.188-0.377-0.473-0.566-0.85-0.755l-1.133-0.188l-0.942,0.566
		c0.095-1.887-0.095-3.868-0.283-5.849c-0.282-2.642-0.755-5.283-1.415-7.831c-1.132-4.435-3.491-8.02-7.17-10.85l0.283-0.472
		c0.283-0.283,0.754-0.566,1.226-0.66l1.415-0.094c1.038,0.094,1.981,0.377,2.925,0.849c-0.661-0.661-1.321-1.227-2.076-1.698
		c-0.566-0.189-1.038-0.283-1.51-0.189c-1.227,0.095-2.264,0.566-3.208,1.416l-0.283-0.755c0.377-0.566,0.755-1.038,1.227-1.604
		c1.698-1.604,3.774-2.642,6.228-2.736l-1.322-0.283c-1.698-0.283-3.302,0.189-4.906,1.132c-0.377,0.283-0.66,0.754-0.849,1.227
		c-0.283,1.132-0.849,1.981-1.321,2.736l0.094-0.849c0.189-0.849,0.377-1.698,0.943-2.453c0.566-1.226,1.51-2.17,2.642-2.924
		c-1.321,0.377-2.453,1.132-3.208,2.264c-1.132,1.415-1.792,3.113-2.076,5.095c-1.226,0.66-2.264,1.604-3.019,2.83
		c-0.943,1.51-1.792,3.113-2.17,4.812c-1.509,5.378-3.491,10.661-5.943,15.567L75.137,55.3l-0.187,0.28
		c-3.208,1.132-4.906,2.736-5.094,4.529c0,0.566,0.472,1.227,1.038,1.981c2.076,1.038,4.528,1.981,7.642,2.925
		c0.943,0.094,1.698,0.472,2.453,1.132l1.227,0.566c1.416,2.453,2.359,4.34,2.925,5.661c1.227,1.321,2.925,1.792,5.095,1.51
		l0.755-0.283c0.188-0.094,0.283-0.377,0.188-0.566l-0.472-0.094l1.415,0.283V73.13l2.736-0.095
		c0.755-0.188,1.604-0.377,2.359-0.849c6.415,0.188,11.981-1.416,16.699-5c0.283-0.661,0.849-1.132,1.604-1.227l2.265-0.283
		c2.547-0.755,4.057-2.076,4.528-3.774c0.094-0.566-0.188-1.132-0.851-1.698c-2.17-0.755-5-0.566-8.68,0.849
		c-1.604,1.038-3.396,1.415-5.66,1.228c-1.981-0.189-3.774-0.85-5.474-1.887C101.649,59.919,101.649,59.354,102.026,58.599
		L102.026,58.599z"/>
	<path fill="#F58220" d="M101.839,56.618l-1.793,0.094c-0.472,1.792-1.604,2.925-3.396,3.585l-0.471-0.094
		c-0.472-0.189-0.944-0.472-1.416-0.755c-0.283-0.188-0.66-0.377-0.943-0.472l-0.377,0.094c-1.698,1.321-3.396,2.265-5.472,3.019
		l0.283,0.472c-1.981-0.566-3.585-1.699-4.812-3.302c-1.887-2.076-4.151-3.302-6.887-3.585c-0.472,0.377-1.038,0.566-1.698,0.754
		c-2.169,0.377-3.679,1.698-4.528,3.68c0.189,0.566,0.566,1.038,1.038,1.32c0.661,0.378,1.51,0.85,2.265,1.133
		c3.868,1.415,7.547,3.019,11.227,4.623c-0.849-2.264-2.264-4.34-4.057-6.132l-1.132-1.038c-0.566-0.283-1.227-0.472-1.981-0.188
		l-2.831,0.094l0.189-0.377c2.736-0.754,5.377-0.566,7.925,0.472l-2.453-0.094c1.321,0.943,2.453,2.264,3.208,3.774
		c0.849,1.792,1.792,3.491,2.925,5.189c1.132,1.698,2.642,2.736,4.623,3.302c1.132,0.377,2.264,0.377,3.396,0
		c2.831-0.755,5.661-1.793,8.303-3.208c0.85-0.377,1.793-0.849,2.547-1.321c3.867-2.453,8.113-3.868,12.643-4.34
		c-0.473,0.377-0.85,0.566-1.32,0.566c-0.85,0.189-1.227,0.661-1.32,1.416c1.697,0.188,3.302-0.283,4.717-1.227
		c0.85-0.661,1.32-1.604,1.32-2.736l-0.565-0.472c-0.377-0.283-0.755-0.471-1.32-0.377c-3.396,0.095-6.698,0.85-9.812,2.359
		c-1.037,0.472-1.887,1.038-2.735,1.604c-2.076,1.321-4.246,2.358-6.604,3.113c2.643-1.792,5.283-3.396,8.115-4.717
		c-1.699,0-3.304-0.283-4.906-0.849c-1.133-0.377-2.076-1.038-2.83-1.981l0.283-0.094L101.839,56.618L101.839,56.618z
		 M93.914,62.373V63.6c-0.283,0.094-0.472,0-0.472-0.283l-0.283-0.472l0.189-1.227C93.63,61.712,93.819,61.995,93.914,62.373
		l3.114-1.698l0.755,0.377c0.282,0.094,0.565,0.283,0.565,0.566v0.566c-0.188,0.095-0.473-0.094-0.66-0.377
		c-0.283-0.378-0.473-0.566-0.66-0.661v-0.472L93.914,62.373L93.914,62.373z"/>
	<path d="M93.914,63.599v-1.227c-0.094-0.377-0.283-0.661-0.566-0.755l-0.189,1.227l0.283,0.472
		C93.442,63.599,93.63,63.693,93.914,63.599L93.914,63.599z"/>
	<path d="M97.782,61.052l-0.756-0.377v0.472c0.188,0.094,0.377,0.283,0.66,0.661c0.188,0.283,0.473,0.472,0.66,0.377v-0.566
		C98.349,61.335,98.063,61.146,97.782,61.052L97.782,61.052z"/>
	<path fill="#F58220" d="M99.952,71.052l-0.85,0.472c4.244-0.094,8.112-1.132,11.888-3.019c1.981-1.038,3.489-2.453,4.528-4.434
		C110.142,66.052,104.952,68.316,99.952,71.052L99.952,71.052z"/>
	<path fill="#F58220" d="M130.804,164.644l0.471-0.096c0.756-0.283,1.51-0.755,2.076-1.51c-0.188-0.282-0.473-0.564-0.943-0.755
		c-1.51-0.282-3.113-0.565-4.623-0.565c-6.604-0.095-13.208-0.188-19.906-0.095c-3.49,0-6.888-0.377-10.378-1.228
		c-0.565-0.188-1.227-0.283-1.793-0.66c-1.038-0.565-1.698-1.414-1.887-2.642c-0.472-3.491-0.377-6.888,0.283-10.472
		c0.472-2.643,0.943-5.378,1.509-8.114c-1.038-0.188-1.981-0.472-2.925-0.942l-0.66,0.565l-1.887,11.511
		c-0.377,1.697-0.754,3.301-1.32,5l-1.51,4.34c1.227,3.302,2.17,6.604,2.642,9.905c1.321,0.66,2.736,1.132,4.151,1.415l1.321,0.379
		c5.849,2.357,11.888,3.678,18.304,4.34c2.264,0.281,4.621,0.094,6.791-0.662c0.566-0.094,0.943-0.472,1.039-0.849l-0.096-0.188
		l-0.188-0.189c-0.283-0.282-0.377-0.471-0.565-0.849c-0.095-0.188-0.095-0.377,0-0.66c0.188-0.096,0.377-0.283,0.565-0.378
		c1.604-0.66,3.207-1.228,4.906-1.509l1.887-0.566c1.697-0.472,3.302-1.415,4.717-2.453l-0.188-0.377
		c-1.32-0.85-2.926-1.415-4.529-1.697l-1.131-0.189l-0.283-0.094c-0.566,0.094-1.039-0.096-1.321-0.473
		C127.218,163.793,129.104,164.076,130.804,164.644L130.804,164.644z M124.198,163.699l1.132,0.188h-0.565L124.198,163.699
		L124.198,163.699z"/>
	<polygon points="125.33,163.888 124.198,163.699 124.765,163.888 	"/>
	<path fill="#FFFFFF" d="M119.765,97.752l2.735,1.321c2.642,1.132,5.188,2.642,7.642,4.34c-0.377,0.66-0.942,1.227-1.697,1.604
		c-0.754,0.283-1.51,0.566-2.17,0.66l-6.133,0.283c-0.377,0.188-0.85,0.283-1.132,0.66c0.282,1.98,1.32,3.49,3.113,4.527
		c1.132,0.566,2.453,0.944,3.679,0.756c1.51-0.188,2.926-0.565,4.246-1.32c1.227,2.83,1.604,5.755,1.32,8.868
		c0,0.755,0,1.604,0,2.358c0,2.17,0.566,4.246,1.604,6.037c0.188,0.379,0.473,0.566,0.66,0.851c1.038,0.849,2.075,1.036,3.113,0.282
		c0.378-0.188,0.566-0.565,0.472-0.942c-0.188-1.511-0.282-3.114-0.188-4.529l0.283-0.188c0.66,2.453,2.076,4.341,3.963,5.756
		c0.565,0.378,1.037,0.66,1.697,0.85c1.604,0.565,2.926,0.094,3.868-1.227c0.095-0.096,0.095-0.283,0.095-0.473l-0.095-0.377
		l-2.83-4.623c-1.51-2.265-2.547-4.906-3.112-7.643c-0.283-1.887-0.66-3.868-0.756-5.66c-0.094-1.51-0.472-2.831-0.849-4.246
		c-0.188-0.564-0.378-0.943-0.755-1.414c-0.566-0.85-1.133-1.604-2.076-2.266c-5.095-4.245-10.566-8.019-16.32-11.416l-13.869-8.302
		c-4.058-2.358-8.49-4.057-13.114-5.095c-0.66-1.227-0.943-2.547-1.038-3.962l-1.415-0.283l0.472,0.094
		c0.094,0.189,0,0.472-0.188,0.566l-0.755,0.283c-2.17,0.283-3.868-0.189-5.095-1.51c-0.566-1.321-1.509-3.208-2.925-5.661
		l-1.227-0.566c2.831,3.49,4.623,7.453,5.284,11.793c0.472,2.075,0.566,4.151,0.754,6.321c0.377,6.604-0.283,13.02-2.264,19.246
		c-0.283,1.132-0.754,2.266-1.415,3.396c-2.076,0.565-4.151,1.227-6.038,2.076c-2.831-2.644-6.038-4.436-9.906-5.096
		c-0.472-0.095-0.943-0.283-1.321-0.472c-2.358-0.944-4.906-1.604-7.453-2.17l2.736,2.358c2.17,1.791,3.774,4.057,4.906,6.604
		c-1.132-0.85-2.547-1.604-3.868-2.17c-0.849-0.282-1.792-0.565-2.642-0.756c2.548,2.359,4.529,5.189,5.944,8.304l1.321,3.021
		c-1.038,4.149-0.566,8.301,1.51,12.074c0.943,1.793,2.264,3.397,3.868,4.719c-0.566,0.754-0.943,1.604-1.227,2.547l-0.283,0.943
		h1.038l2.17-1.888c0.094,1.133,0.377,2.076,0.754,3.021l0.377,0.754l0.566-0.942l1.227-2.736l1.981,1.132l0.754,0.566l1.51,0.473
		c0.377,0.188,0.66,0.094,0.849-0.283l-0.943-1.32c3.113,0.66,6.227,0.472,9.057-0.661c-0.095,0.565-0.188,1.038-0.377,1.415
		c-0.283,0.378-0.283,0.85,0,1.227l0.943-0.472l1.227-1.037l0.66-0.565c0.943,0.472,1.887,0.754,2.925,0.942l0.566,0.095
		l1.038-0.188l-0.849-1.228l0.283-0.281h0.85l0.85-0.283c-0.473-1.227-1.133-2.357-2.169-3.491c4.906-4.34,8.208-9.623,9.529-15.944
		c0.473-2.17,0.755-4.244,0.755-6.51l0.095-0.094c-0.188-6.604-1.511-13.114-3.773-19.436
		C108.632,92.846,114.292,95.016,119.765,97.752L119.765,97.752z M85.706,73.6c0.094,0.094,0.188,0.188,0.283,0.188
		c1.792,1.038,3.585,1.132,5.377,0.283l1.227,4.151c-0.188,0.377-0.472,0.566-0.943,0.754c-0.943,0.283-1.981,0.377-2.925,0.283
		c-0.755-0.094-1.227-0.472-1.604-1.038c-0.472-0.943-0.849-1.981-0.849-3.02L85.706,73.6L85.706,73.6z M95.706,137.754v0.095
		c-1.887-0.85-3.679-0.755-5.188,0.66l0.566-1.792c1.792-0.85,3.396-1.888,4.812-3.208c0.754,0.85,1.321,1.887,1.792,2.926
		l-3.208-0.851L95.706,137.754l0.189-1.228v0.283l-0.283-0.377l0.283,0.094L95.706,137.754L95.706,137.754z"/>
	<path fill="#FFFFFF" d="M85.989,73.788c-0.094,0-0.189-0.094-0.283-0.188l0.566,1.604c0,1.038,0.377,2.076,0.849,3.02
		c0.377,0.566,0.849,0.943,1.604,1.038c0.943,0.094,1.981,0,2.925-0.283c0.472-0.188,0.755-0.377,0.943-0.754l-1.227-4.151
		C89.574,74.92,87.781,74.826,85.989,73.788L85.989,73.788z"/>
	<path d="M95.706,137.849v-0.095l-1.226-2.17l3.208,0.851c-0.473-1.039-1.039-2.076-1.792-2.926
		c-1.415,1.32-3.019,2.358-4.812,3.208l-0.566,1.792C92.027,137.094,93.819,136.999,95.706,137.849L95.706,137.849z"/>
	<polygon fill="#FCB131" points="95.895,136.812 95.895,136.526 95.612,136.435 	"/>
	<path d="M113.819,160.963c-2.452,0-4.623,0-6.414-0.095l-7.359-0.377l-3.113-0.661c-1.038-0.377-1.887-1.037-2.357-1.888
		c-0.566-2.734-0.566-5.942,0-9.812l0.849-4.717c0.283-1.981,0.472-3.491,0.66-4.718l0.095-0.094l-0.566-0.096
		c-0.566,2.736-1.038,5.473-1.509,8.114c-0.661,3.584-0.755,6.979-0.283,10.472c0.189,1.227,0.849,2.075,1.887,2.643
		c0.566,0.377,1.227,0.472,1.793,0.66c3.49,0.85,6.887,1.227,10.378,1.227c6.698-0.094,13.304,0,19.906,0.095
		c1.51,0,3.112,0.283,4.623,0.565c0.472,0.189,0.755,0.473,0.942,0.755c-0.565,0.755-1.32,1.228-2.074,1.51l-0.473,0.095
		c-1.697-0.565-3.585-0.85-5.473-0.754c0.283,0.377,0.755,0.564,1.32,0.471l0.283,0.095l1.133,0.188
		c1.604,0.283,3.207,0.85,4.527,1.698l0.188,0.377c-1.415,1.038-3.019,1.981-4.718,2.453l-1.887,0.565
		c-1.697,0.283-3.302,0.85-4.906,1.51c-0.188,0.095-0.377,0.283-0.564,0.378c-0.096,0.283-0.096,0.472,0,0.66
		c0.188,0.378,0.282,0.565,0.564,0.849l0.188,0.189l0.095,0.188c-0.095,0.377-0.472,0.756-1.037,0.85
		c-2.17,0.755-4.528,0.942-6.793,0.66c-6.416-0.66-12.453-1.98-18.303-4.34l-1.321-0.378c-1.416-0.282-2.831-0.755-4.151-1.415
		c-0.472-3.302-1.415-6.604-2.642-9.906l1.51-4.34c0.566-1.697,0.943-3.302,1.32-5l1.887-11.51l-1.227,1.037l0.283-0.094
		c-0.566,5.095-1.51,10.188-2.831,15.189c-0.377,1.319-0.849,2.547-1.415,3.772c-2.736-6.228-5.189-12.642-7.076-19.246
		l-0.754-0.565c0.377,0.66,0.661,1.32,0.754,1.98c0.095,0.755,0.283,1.604,0.566,2.357c2.076,6.321,4.434,12.549,6.887,18.682
		c0.566,1.415,1.038,2.83,1.415,4.34c0.943,2.925,0.755,5.943-0.377,8.773c-0.188,0.565-0.377,0.942-0.849,1.227
		c-0.283,0.378-0.66,0.566-1.132,0.85c-5.85,3.113-12.077,5.473-18.68,6.887c-0.944,0.283-1.887,0.283-2.925,0.096
		c-0.755-0.188-1.321-0.566-1.793-1.132c-0.565-0.755-1.32-1.416-2.075-2.076c-0.849-0.565-1.604-0.942-2.547-1.228
		c-1.981-0.472-3.868-1.131-5.566-1.98c-0.566-0.282-1.038-0.66-1.038-1.227c-0.283-0.85,0-1.416,0.566-2.075
		c0.377-0.378,0.849-0.566,1.321-0.849c0.66-0.379,1.321-0.756,1.887-1.228l-3.773,0.472c-1.887,0.094-3.68-0.472-5.095-1.604
		l-0.095-0.754l0.283-0.283c10.85-2.076,21.699-3.774,32.644-5.189h0.66c0.661-0.283,1.132-0.755,1.321-1.414
		c0.095-0.66,0.189-1.511,0-2.171c-1.038-7.17-2.924-13.868-5.755-20.473l0.189-0.377l-0.566,0.942
		c1.321,3.396,2.831,8.209,4.717,14.529l0.849,3.867c0.188,1.51,0.377,2.736,0.283,3.773c-0.189,0.377-0.566,0.66-1.415,1.037
		l-16.888,2.076l-7.17,1.133c-2.831,0.472-5.189,0.85-7.076,1.32c-0.189,0.094-0.661,0.282-1.321,0.377
		c-0.66,0.096-1.038,0.379-1.227,0.756c-0.377,0.659-0.094,1.131,0.661,1.791c0.661,0.283,1.698,0.661,2.831,0.851l2.83,0.472
		c-1.321,0.755-1.792,1.98-1.51,3.585c0.661,0.755,1.51,1.415,2.736,1.888l3.302,1.037c1.416,0.283,2.453,0.66,3.114,1.133
		c1.132,0.565,1.981,1.414,2.453,2.453c0.944,1.131,2.359,1.604,4.057,1.32l4.434-1.038l9.057-3.208
		c3.491-1.227,6.321-2.734,8.491-4.34c0.66-0.66,1.132-1.604,1.321-2.83l0.094-1.604c0-0.566,0.094-1.133,0.189-1.604l2.075,0.943
		c0.755,0.282,1.604,0.472,2.359,0.472c1.038,0.566,2.264,1.038,3.396,1.416l5,1.415c1.981,0.565,3.586,0.755,4.906,0.942
		c3.302,1.133,7.17,1.32,11.51,0.756l1.793-0.756c0.66-0.377,1.038-0.85,0.942-1.414c0.096-0.379,0-0.566-0.377-0.756
		c-0.377-0.188-0.565-0.377-0.66-0.472c0.095-0.188,0.378-0.282,0.66-0.378c0.283-0.094,0.473-0.094,0.473-0.283l4.34-1.037
		l3.396-1.227c1.509-0.566,2.547-1.132,3.207-1.887h-0.094c0.188,0,0.282-0.188,0.282-0.283l0.095-0.378
		c-0.095-0.472-0.377-0.754-0.66-1.037l-0.943-0.565c1.037-0.473,1.792-0.943,2.17-1.604c0.094-0.283,0-0.66-0.283-1.038l-0.66-0.66
		c-3.396-0.472-7.643-0.85-12.736-0.85L113.819,160.963L113.819,160.963z"/>
	<path fill="#F58220" d="M75.8,139.83l-0.189,0.377c2.831,6.604,4.717,13.303,5.755,20.474c0.189,0.659,0.095,1.51,0,2.17
		c-0.188,0.659-0.66,1.131-1.321,1.414h-0.66c-10.944,1.416-21.794,3.113-32.644,5.189l-0.283,0.283l0.095,0.754
		c1.415,1.133,3.208,1.697,5.095,1.604l3.773-0.472c-0.566,0.472-1.227,0.849-1.887,1.228c-0.472,0.281-0.943,0.472-1.321,0.849
		c-0.566,0.659-0.849,1.227-0.566,2.075c0,0.565,0.472,0.943,1.038,1.227c1.698,0.85,3.585,1.51,5.566,1.98
		c0.943,0.283,1.698,0.66,2.547,1.228c0.755,0.66,1.51,1.321,2.075,2.076c0.472,0.565,1.038,0.942,1.793,1.132
		c1.038,0.188,1.981,0.188,2.925-0.095c6.604-1.415,12.831-3.773,18.68-6.888c0.472-0.283,0.849-0.472,1.132-0.85
		c0.472-0.283,0.661-0.66,0.849-1.227c1.132-2.83,1.321-5.85,0.377-8.773c-0.377-1.51-0.849-2.925-1.415-4.34
		c-2.453-6.133-4.812-12.359-6.887-18.682c-0.283-0.754-0.472-1.604-0.566-2.357c-0.094-0.66-0.377-1.32-0.754-1.98l-1.981-1.133
		L75.8,139.83L75.8,139.83z"/>
	<path d="M128.065,68.882c-0.565-0.094-1.037-0.283-1.51-0.189c-4.527-0.377-8.584,1.132-12.076,4.151
		c-1.791,1.604-3.112,3.585-4.057,5.85c-0.472,1.698-0.849,3.396-0.849,5.189c0.094,2.736-0.189,5.377-0.943,8.019
		c-0.378,1.415-0.661,2.359-0.755,2.925c-2.831,4.246-6.32,7.736-10.661,10.661c-1.227,0.849-2.642,1.415-4.151,1.792l-0.094-0.471
		l2.076-1.228c-3.302-4.718-5.472-9.812-6.887-15.284c-0.189-0.661-0.283-1.321-0.283-2.076v-0.661h0.189
		c-0.095-1.604,0.188-3.019,0.849-4.434c0.094-0.377,0.094-0.566-0.094-0.944c-1.227-0.943-2.547-1.509-4.057-1.792
		c-0.66,0.566-1.038,1.132-1.227,1.887c-0.849,2.925-1.132,5.85-0.66,8.963c0.283,2.264,0.66,4.434,1.132,6.697
		c0.566,2.643,1.132,5.283,2.075,7.926c1.038,3.113,2.453,6.037,4.246,8.681l0.189,0.377l-0.095-0.472
		c-0.094-0.096,0-0.283,0.189-0.378c0.283,0.095,1.132,0.473,2.358,1.227c0.755,0.472,1.604,0.851,2.547,0.851l-0.377-0.283
		c-0.66-0.377-1.227-0.566-1.981-0.756l-0.377-0.377c3.962-0.85,7.453-2.547,10.377-5.473c2.453-2.547,4.812-5.283,6.888-8.302
		c0.849-1.228,1.604-2.453,2.358-3.585c0.66-1.321,1.697-2.265,3.019-2.831c0.474-0.188,0.755-0.377,0.944-0.849
		c0.66-1.509,1.226-3.113,1.792-4.717c0.282-0.66,0.659-1.227,1.228-1.698c0.377-0.377,0.942-0.754,1.51-1.038
		c1.791-0.849,3.772-1.321,5.754-1.227l4.436,0.472c1.51,0.188,2.643-0.472,3.396-1.698c-0.662-1.416-1.699-2.359-3.209-2.831
		c-1.037-0.283-1.98-0.472-2.924-0.566c-1.981,0-3.963,0.188-5.945,0.66l-4.149,0.849l-2.17,0.094
		c0.188-0.188,0.377-0.377,0.66-0.377c2.642-0.661,5.282-1.227,8.021-1.51l2.642-0.188l3.772,0.472
		c-2.453-2.076-5.188-2.736-8.302-2.359l-8.963,1.227l-0.472-0.094l-0.189-0.189l0.566-0.283h0.472h0.472h0.096h0.283
		c1.414-2.736,3.772-4.34,6.887-4.623l2.17-0.283c2.076-0.188,3.867-1.132,5.189-2.642c0.188-0.188,0.281-0.472,0.094-0.66
		C129.198,69.731,128.633,69.26,128.065,68.882L128.065,68.882z"/>
	<path d="M89.857,81.808l-0.377,0.283h0.188C89.668,81.996,89.668,81.902,89.857,81.808L89.857,81.808z"/>
	<path fill="#FFFFFF" d="M85.611,38.975c-1.132,0.094-1.981,0.755-2.453,1.887c1.227-1.132,2.453-1.698,3.68-1.321
		c0.566,0.283,1.038,0.849,1.604,1.604l1.226,1.887c0.283,1.038,0.85,2.076,1.698,3.208c-0.188-0.472-0.566-1.227-0.943-2.17
		c-0.472-1.038-0.849-1.887-1.038-2.359C88.442,40.013,87.215,39.069,85.611,38.975L85.611,38.975z"/>
	<path fill="#FFFFFF" d="M87.31,45.768h-0.094c-0.943,0.377-1.981,1.226-3.208,2.642c-1.038,1.698-1.604,3.396-1.981,4.906
		c-0.377,1.981-0.095,3.585,0.943,5.095c0.283,0.094,0.661,0.472,1.132,0.943l1.038,1.132c0.943,0.755,1.792,1.132,2.642,1.132
		c0.094-0.189,0.283-0.472,0.283-0.943c0-0.471,0.094-0.755,0.188-0.943c0.189-0.661,0.472-1.321,0.849-1.887
		c0.566-0.566,1.132-1.038,1.792-1.132c0.283,0,0.566,0.283,0.849,0.755c0,0,0-0.189,0-0.283l0.095-0.472
		c0.094-1.981,0.094-3.396-0.095-4.34c-0.188-1.132-0.566-2.17-1.321-2.831l-1.038-1.132l0.188,0.094L87.31,45.768L87.31,45.768z"/>
	<path d="M87.215,45.768h0.094l-0.472-0.566c-1.604,0.849-2.736,2.076-3.773,3.774c-0.755,1.321-1.227,2.925-1.604,4.623
		c-0.095,0.566-0.095,1.227,0,1.981l0.377,1.887L80.8,56.712c-0.472-0.283-0.66-0.472-0.943-0.283
		c0.849,0.472,1.887,1.416,3.208,2.547c1.32,1.227,2.358,2.17,3.208,2.642c0.283,0.189,0.754,0.377,1.321,0.189l1.415-0.283
		l3.868-2.831c0.566-0.188,1.038,0,1.604,0.377l1.415,1.132c1.039-0.094,1.887-0.661,2.736-1.698c0.66-0.755,1.227-1.792,1.604-2.83
		l-0.377,0.472c0.377-3.019,0.188-5.378-0.565-7.076l-0.472-0.377c0.472,1.321,0.66,2.736,0.66,4.246v1.132
		c0,1.321-0.282,2.547-0.943,3.774c-0.282,0.472-0.66,0.849-1.133,1.226c-0.094-0.66-0.188-1.226-0.471-1.887
		c-0.188-0.66-0.754-1.038-1.416-1.227v-1.038c0-0.754,0.094-1.415,0.283-2.075c0.472-1.792,0.943-3.585,1.51-5.283l0.094-0.095
		l-0.377-0.188l-0.282,0.566l-0.472,0.849l-1.227,4.435c0,0.566,0,1.509-0.283,2.83c-0.188,1.227-0.188,2.17-0.094,2.736
		c-0.377-0.283-0.849-0.377-1.415-0.283l-1.415,0.377c0.377-1.038,0.471-2.453,0.566-4.151L92.31,52.75
		c0-0.755-0.094-1.321-0.283-1.698l-1.604-1.51c0.755,0.661,1.132,1.698,1.321,2.831c0.189,0.943,0.189,2.358,0.095,4.34
		l-0.095,0.472c0,0.094,0,0.283,0,0.283c-0.283-0.472-0.566-0.755-0.849-0.755c-0.66,0.094-1.227,0.566-1.792,1.132
		c-0.377,0.566-0.66,1.226-0.849,1.887c-0.094,0.188-0.188,0.472-0.188,0.943c0,0.471-0.189,0.754-0.283,0.943
		c-0.849,0-1.698-0.377-2.642-1.132l-1.038-1.132c-0.472-0.472-0.849-0.849-1.132-0.943c-1.038-1.51-1.321-3.113-0.943-5.095
		c0.377-1.509,0.943-3.208,1.981-4.906C85.234,46.994,86.272,46.145,87.215,45.768L87.215,45.768z"/>
	<path fill="#FFFFFF" d="M86.838,45.202l0.472,0.566l2.264,2.736l-0.188-0.094l1.038,1.132l1.604,1.51v-0.094
		c0.094,0.094,0.283,0.188,0.472,0.283h0.472c0.472-0.283,0.849-0.66,1.038-1.132c0.377-0.472,0.472-0.943,0.377-1.415l-0.472,1.038
		c-0.283,0.472-0.566,0.754-0.943,0.943h-0.283c-0.188,0-0.283,0-0.377-0.094v0.094c-0.943-0.566-1.887-1.604-2.924-3.019
		c-1.132-1.604-1.981-2.642-2.642-3.208c-0.566-0.377-0.944-0.661-1.227-0.755l-1.321,0.094c0,0.188,0.094,0.283,0.283,0.188h0.377
		c0.85,0.095,1.416,0.566,1.793,1.132L86.838,45.202L86.838,45.202z"/>
	<path fill="#FFFFFF" d="M97.403,47.466l-0.094,0.095c-0.565,1.698-1.038,3.491-1.51,5.283c-0.189,0.66-0.283,1.321-0.283,2.075
		v1.038c0.661,0.189,1.227,0.566,1.416,1.227c0.282,0.661,0.377,1.227,0.471,1.887c0.473-0.377,0.851-0.754,1.133-1.226
		c0.66-1.227,0.943-2.453,0.943-3.774v-1.132c0-1.509-0.188-2.924-0.66-4.246l-1.037-1.321L97.403,47.466L97.403,47.466z"/>
	<path fill="#FFFFFF" d="M91.178,32.276l3.019,3.208c1.604,1.887,2.832,3.868,3.492,6.227c-0.283,0.189-0.473,0.283-0.851,0.377
		c-0.377,0-0.754,0.283-1.037,0.566l0.377-0.188l2.358-0.188c0.943,0.188,1.604,0.472,1.98,1.226
		c0.188,1.51-0.283,3.019-1.509,4.529c-0.095-0.095-0.282-0.189-0.661-0.661c-0.188-0.283-0.472-0.472-0.564-0.566
		c0-0.283,0.281-0.566,0.564-1.038c0.566-0.377,0.756-0.661,0.85-0.849h-0.282c-0.66,0.472-1.228,1.321-1.888,2.358l0.377,0.188
		l0.379-0.094l1.037,1.321l0.472,0.377l0.188-0.66c0.565-1.038,1.037-2.076,1.416-3.208c0.188-0.754,0.188-1.604-0.189-2.358
		l-0.66-0.472c-0.566-0.472-1.132-0.566-1.697-0.472c-0.565-1.698-1.228-3.302-2.265-4.906c-1.132-1.698-2.547-3.113-4.057-4.434
		h-0.188C91.649,32.276,91.366,32.182,91.178,32.276L91.178,32.276z"/>
	<path d="M98.536,42.277l-2.358,0.188l0.848,4.812c0.66-1.038,1.228-1.887,1.888-2.358h0.282c-0.094,0.188-0.282,0.472-0.85,0.849
		c-0.283,0.472-0.564,0.754-0.564,1.038c0.094,0.094,0.377,0.283,0.564,0.566c0.379,0.472,0.566,0.566,0.661,0.661
		c1.226-1.51,1.697-3.019,1.509-4.529C100.142,42.749,99.479,42.466,98.536,42.277L98.536,42.277z"/>
	<path d="M105.235,108.035c-2.926,3.208-6.321,5.661-10.378,7.075l0.755,0.473l0.189,0.188l0.188,0.189l0.094,0.188
		c0,0.377-0.283,0.473-0.566,0.473c-1.415-0.283-2.642-0.66-3.962-1.227c0.283,0.377,0.566,0.754,0.754,1.319
		c0.095,0.188,0.095,0.283,0.189,0.472h-0.66c-2.547-2.641-4.435-5.754-5.566-9.15l-1.227-3.49c-0.566,1.415-1.227,2.735-2.17,3.962
		v0.188l-0.377,0.188l-0.094,0.566l-0.095-0.566l0.095-0.188l0.094-0.377l0.377-1.038c-2.925,1.038-5.944,2.265-8.774,3.774
		l2.642-2.171c-1.698-1.227-3.396-2.265-5.472-3.112c-0.849-0.283-1.792-0.756-2.736-0.943c0.943,0.472,1.981,1.132,2.736,1.792
		c0.755,0.565,1.416,1.321,1.887,2.17c-3.868-3.207-8.208-5.472-13.019-6.888c2.735,1.981,4.812,4.435,6.415,7.358
		c0.377,0.755,0.755,1.698,1.132,2.642l-0.189,0.189c-0.377-0.566-0.943-1.133-1.604-1.604c-1.321-1.037-2.925-1.793-4.435-2.453
		c2.265,2.642,4.151,5.66,5.378,8.869l0.472,0.943l1.227-2.076l0.377,0.472c-1.415,2.453-1.981,4.905-1.698,7.735
		c0.189,4.151,1.887,7.736,5,10.662v0.188l0.377,0.378l-1.132,3.302l2.924-2.357l0.189,0.188l0.188,3.208l2.453-3.396h0.472
		l-0.095,0.283l0.095,0.094l0.094,0.188l0.189,0.095l3.019,1.51l-0.66-1.228l-0.283-0.755c2.642,1.038,5.378,1.038,8.114,0.283
		c5.283-1.51,9.34-4.623,12.454-9.246c2.925-4.527,4.623-9.436,5.188-14.906c0.096-1.697,0.096-3.396,0-5.095L105.235,108.035
		L105.235,108.035z"/>
	<path d="M89.479,82.091h0.188l0.661,1.132l-0.755-0.377c-1.132,2.642-1.321,5.283-0.66,8.019l0.66,2.83
		c1.132,4.34,3.208,8.208,6.038,11.605c1.887-1.037,3.679-2.265,5.285-3.585c1.227-1.133,2.451-2.358,3.489-3.68
		c-0.755-2.925-1.792-5.85-3.112-8.586c-1.416-2.358-2.83-4.623-4.34-6.981l-1.228-1.698c1.698,1.51,3.112,3.208,4.246,5.189
		l2.547,4.435c1.793,0.566,3.585,1.132,5.378,1.698c0.943-2.358,1.415-4.906,1.415-7.642c-4.906-3.019-10.095-5.095-15.662-6.416
		l0.566,1.698l0.094,0.189v0.283L92.97,78.6c-0.566,0.472-1.227,0.755-1.887,1.038c-0.566,0.094-1.038,0.188-1.51,0.188
		c-0.849-0.094-1.792-0.377-2.453-0.849c0,0.566,0.094,1.132,0.188,1.699C88.064,80.958,88.819,81.43,89.479,82.091L89.479,82.091z"
		/>
	<path d="M100.276,117.208l0.004,0.001L100.276,117.208c0.813,0.284,1.557,0.729,2.222,1.314c0.649,0.571,1.231,1.279,1.739,2.104
		c2.592,4.201,3.316,11.479,1.492,18.969c-0.269,1.104-0.59,2.188-0.955,3.243c-1.438,4.14-3.517,7.529-5.838,9.744
		c-2.706,2.583-5.875,3.735-9.048,2.964c-0.194-0.047-0.392-0.105-0.593-0.175l-0.004-0.001l-0.002-0.001h0.001
		c-0.812-0.283-1.555-0.729-2.22-1.313c-0.65-0.572-1.232-1.279-1.74-2.104c-2.591-4.201-3.316-11.479-1.493-18.969
		c0.269-1.104,0.59-2.188,0.956-3.242c1.437-4.141,3.516-7.53,5.837-9.745c2.707-2.583,5.876-3.736,9.051-2.964
		c0.192,0.047,0.391,0.104,0.592,0.175L100.276,117.208L100.276,117.208z M98.438,117.806l-0.004-0.002L98.438,117.806
		c-0.146-0.052-0.293-0.095-0.445-0.133c-1.563-0.38-3.447,0.497-5.325,2.289c-2.262,2.159-4.297,5.487-5.714,9.57
		c-0.35,1.008-0.666,2.082-0.942,3.218c-1.812,7.44-1.1,14.655,1.461,18.81c0.495,0.801,1.056,1.486,1.678,2.033
		c0.606,0.533,1.268,0.934,1.978,1.182h0.004h0.002h-0.001c0.143,0.051,0.291,0.094,0.444,0.132c1.562,0.38,3.447-0.497,5.323-2.288
		c2.264-2.159,4.298-5.488,5.715-9.571c0.351-1.008,0.666-2.082,0.941-3.218c1.812-7.441,1.102-14.655-1.461-18.809
		c-0.494-0.803-1.056-1.487-1.678-2.035c-0.605-0.532-1.268-0.934-1.979-1.18H98.438L98.438,117.806z"/>
	<path fill="#FFFFFF" d="M99.356,117.506c5.443,1.89,7.812,11.834,5.287,22.205c-2.523,10.373-8.986,17.251-14.432,15.361
		c-5.445-1.89-7.812-11.833-5.288-22.205C87.449,122.494,93.912,115.616,99.356,117.506L99.356,117.506z"/>
	<path d="M139.388,110.11l-0.094-1.98c-0.095-1.51-0.661-2.925-1.604-4.057c-0.66-0.756-1.416-1.415-2.265-2.076
		c-5.378-4.34-11.038-8.302-16.888-11.887c-0.189,0.566-0.378,1.227-0.566,1.792c-0.378,1.51-1.037,2.547-1.98,3.302
		c3.02,1.321,6.037,2.736,9.058,4.246l5.472,3.113l0.66-0.377l0.473-0.379l0.472-0.094l0.851,0.094l-2.736,1.887
		c-0.283,1.228-1.133,2.076-2.453,2.359l-2.547,0.094l-5.189-0.188l-0.377,0.283c0.188,2.17,1.32,3.68,3.396,4.434
		c1.604,0.566,3.207,0.473,4.904-0.188c0.661-0.188,1.321-0.473,2.076-0.565c1.604-0.472,3.02-0.378,4.34,0.377l-0.472,0.188
		l-1.51-0.377l-1.888,0.283c0.943,3.112,1.416,6.319,1.32,9.435l0.943-4.906c0.189-1.038,0.095-1.981-0.188-2.925l0.094-0.096
		l0.566,0.189c0.188,1.037,0.282,1.98,0.094,2.924l-1.131,6.982c-0.283,1.604-0.096,3.02,0.377,4.434
		c0.565,1.604,1.697,2.358,3.303,2.453c0.66-0.755,1.037-1.604,0.849-2.642c-0.188-1.228-0.283-2.453-0.188-3.681v-2.924
		c0-0.943-0.095-1.699-0.283-2.548l-0.942-4.623c0.942,1.132,1.415,2.453,1.51,3.868c0.188,2.453,0.565,4.906,1.228,7.266
		c0.755,2.547,2.357,4.435,4.717,5.565l0.943,0.377c1.037,0.188,1.887-0.188,2.547-0.942l0.188-0.565v-0.283
		C142.312,122.563,139.858,116.715,139.388,110.11L139.388,110.11z"/>
	<path fill="#519FD7" d="M94.885,121.056c5.444,1.465,7.812,9.174,5.288,17.215s-8.987,13.373-14.432,11.908
		c-5.444-1.466-7.813-9.175-5.288-17.216S89.44,119.59,94.885,121.056L94.885,121.056z"/>
	<path d="M100.642,118.485c2.793,2.399,4.621,4.895,5.48,7.23c0.516,1.398,0.688,2.748,0.521,3.991
		c-0.164,1.242-0.67,2.385-1.519,3.371c-0.918,1.067-2.229,1.95-3.933,2.577l-0.002,0.001c-0.474,0.174-0.986,0.327-1.537,0.464
		c-0.549,0.136-1.096,0.242-1.639,0.32c-2.871,0.42-6.148,0.216-9.483-0.52c0.365,1.366,0.627,2.71,0.791,4.012
		c0.166,1.317,0.234,2.618,0.209,3.883c-0.126,6.444-2.729,11.623-7.168,13.041l-0.003,0.002c-3.712,1.186-8.485-0.686-13.197-4.666
		c-3.315-2.801-6.196-7.127-7.854-12.314l-0.001-0.004l-0.001-0.005c-0.395-1.237-0.709-2.492-0.943-3.748
		c-0.234-1.256-0.383-2.476-0.448-3.642c-0.342-6.088,1.433-11.33,4.84-13.83c-0.144-0.551-0.234-1.084-0.27-1.601
		c-0.036-0.516-0.017-1.028,0.057-1.532c0.374-2.553,2.182-4.666,5.437-5.861l0.002-0.002c1.052-0.387,2.196-0.655,3.407-0.817
		c1.214-0.161,2.498-0.215,3.826-0.165c7.416,0.276,16.547,3.911,23.418,9.811L100.642,118.485L100.642,118.485z M102.696,123.683
		c-0.826-2.252-2.528-4.603-5.094-6.806l0.004,0.003c-4.186-3.594-10.882-5.852-17.042-6.08c-1.312-0.049-2.584,0.004-3.788,0.164
		c-1.207,0.161-2.344,0.43-3.385,0.812H73.39c-3.242,1.19-5.042,3.289-5.412,5.82c-0.07,0.482-0.087,0.991-0.051,1.522
		c0.037,0.526,0.125,1.062,0.267,1.597l0.001,0.003l0.005,0.021l-0.013,0.009c-3.4,2.485-5.172,7.72-4.831,13.803
		c0.067,1.2,0.213,2.415,0.439,3.627c0.227,1.214,0.542,2.464,0.949,3.738l0.002,0.005l0.001,0.004
		c1.629,5.098,4.341,9.249,7.407,11.84c1.668,1.409,4.068,1.846,6.801,0.973h0.003c4.42-1.413,7.013-6.573,7.139-12.994
		c0.024-1.237-0.045-2.534-0.214-3.874c-0.168-1.337-0.432-2.693-0.796-4.046v-0.004l-0.015-0.055l0.115,0.024
		c3.305,0.74,6.571,0.946,9.443,0.528c0.58-0.086,1.126-0.189,1.634-0.314c0.506-0.125,1.014-0.279,1.52-0.466l0.002-0.001
		c1.709-0.628,3.015-1.503,3.919-2.557c0.84-0.978,1.341-2.112,1.507-3.351C103.375,126.396,103.204,125.062,102.696,123.683
		L102.696,123.683z"/>
	<path fill="#FFFFFF" d="M99.122,117.683c7.674,6.59,7.842,14.166,0.368,16.914c-3.498,1.286-8.048,1.286-12.688,0.246
		c2.631,9.778,0.013,18.987-6.141,20.954c-6.448,2.062-14.346-4.608-17.634-14.897c-2.869-8.978-1.283-17.743,3.451-21.203
		c-1.031-3.901,0.695-7.32,5.208-8.979C79.159,107.969,91.442,111.088,99.122,117.683L99.122,117.683z"/>
	<path fill="#ED1C24" d="M91.25,76.189c2.149,0,3.893,1.494,3.893,3.336c0,1.842-1.743,3.337-3.893,3.337s-3.893-1.495-3.893-3.337
		C87.357,77.683,89.101,76.189,91.25,76.189L91.25,76.189z"/>
	<path fill="#ED1C24" d="M83.757,105.343c0,0,0.583,8.174,8.174,9.926s13.722,1.752,14.597-1.459
		c0.877-3.211-0.584,6.715-1.459,9.342c-0.877,2.629-10.802,6.424-18.394-1.752c-7.591-8.174-7.591-13.137-7.591-13.137
		L83.757,105.343L83.757,105.343z"/>
	<path fill="#ED1C24" d="M84.856,77.524c11.659,4.011-11.284,14.015-10.436,7.663c0.12-0.909,1.547-1.395,3.289-1.172
		C78.471,80.574,81.343,76.316,84.856,77.524L84.856,77.524z"/>
	<path fill="#ED1C24" d="M97.851,75.189c-11.66,4.011,11.282,14.015,10.435,7.663c-0.12-0.909-1.548-1.394-3.289-1.172
		C104.233,78.238,101.362,73.98,97.851,75.189L97.851,75.189z"/>
	<path fill="#ED1C24" d="M82.717,70.601c0,0,0.345,2.697,4.823,4.456c4.478,1.759,8.095,2.728,8.612,1.842
		c0.516-0.885-0.345,2.047-0.861,2.747c-0.517,0.699-6.373,0.339-10.851-3.466c-4.478-3.805-4.478-5.387-4.478-5.387L82.717,70.601
		L82.717,70.601z"/>
	<path fill="#ED1C24" d="M81.421,110.306c-11.231,4.211-14.954,23.355-16.349,23.355c-2.919,0,11.97,6.132,11.97,6.132
		s-2.919-4.964-0.292-14.599s10.802-10.219,10.802-10.219L81.421,110.306L81.421,110.306z"/>
	<path fill="#ED1C24" d="M85.465,115.697c-6.498,2.437-8.651,13.512-9.458,13.512c-1.689,0,6.925,3.547,6.925,3.547
		s-1.689-2.871-0.169-8.444c1.521-5.574,6.25-5.912,6.25-5.912L85.465,115.697L85.465,115.697z"/>
	<path d="M88.235,154.865c0,0,0.742,2.932,3.671,2.77c2.929-0.161,5.202-0.811,5.321-2.079s0.215,2.521,0.06,3.575
		c-0.155,1.056-3.595,3.495-6.936,1.306c-3.342-2.189-3.661-4.009-3.661-4.009L88.235,154.865L88.235,154.865z"/>
	<path d="M80.645,159.536c0,0,0.742,2.932,3.67,2.77c2.929-0.16,5.204-0.81,5.322-2.078c0.119-1.27,0.215,2.521,0.059,3.575
		c-0.156,1.056-3.595,3.495-6.937,1.306c-3.342-2.19-3.661-4.008-3.661-4.008L80.645,159.536L80.645,159.536z"/>
	<path d="M74.506,156.097l0.42,0.444l0.702-0.332c0.327-0.153,0.72-0.019,0.876,0.308c0.017,0.034,0.031,0.069,0.041,0.105l0,0
		l0.114,0.402l0.773-0.108c0.359-0.049,0.692,0.2,0.742,0.556c0.015,0.106,0.003,0.211-0.03,0.305l-0.055,0.201l0.602,0.086
		c0.36,0.051,0.61,0.381,0.559,0.736c-0.022,0.155-0.098,0.289-0.206,0.389l-0.117,0.125l0.335,0.16
		c0.327,0.156,0.464,0.547,0.306,0.869c-0.067,0.139-0.177,0.242-0.307,0.305l0,0l-0.335,0.16l0.153,0.164
		c0.246,0.264,0.23,0.674-0.036,0.918c-0.102,0.094-0.226,0.147-0.353,0.166v0.002l-0.602,0.086l0.067,0.244
		c0.095,0.348-0.111,0.704-0.461,0.799c-0.088,0.023-0.177,0.027-0.262,0.017v0.002l-0.773-0.108l-0.114,0.402
		c-0.097,0.348-0.459,0.55-0.809,0.454c-0.046-0.013-0.09-0.03-0.131-0.052l-0.678-0.321l-0.432,0.458
		c-0.248,0.264-0.665,0.277-0.93,0.033c-0.012-0.012-0.022-0.021-0.033-0.033l0,0L73.1,163.58l-0.702,0.332
		c-0.327,0.153-0.72,0.019-0.876-0.308c-0.017-0.033-0.03-0.069-0.04-0.105h-0.001l-0.114-0.402l-0.773,0.108
		c-0.359,0.049-0.692-0.2-0.742-0.556c-0.015-0.104-0.003-0.205,0.028-0.297l0.058-0.209l-0.603-0.086
		c-0.36-0.051-0.61-0.381-0.559-0.736c0.022-0.154,0.098-0.289,0.206-0.387l0.118-0.127l-0.335-0.16
		c-0.327-0.156-0.465-0.547-0.307-0.869c0.069-0.144,0.184-0.249,0.318-0.311l0.324-0.154l-0.153-0.164
		c-0.246-0.264-0.23-0.674,0.036-0.918c0.102-0.094,0.226-0.148,0.354-0.166v-0.002l0.603-0.086l-0.067-0.244
		c-0.095-0.348,0.111-0.705,0.461-0.799c0.088-0.023,0.178-0.028,0.263-0.018v-0.001l0.773,0.108l0.114-0.402
		c0.097-0.346,0.458-0.55,0.809-0.454c0.051,0.015,0.1,0.034,0.145,0.06l0.666,0.313l0.432-0.458
		c0.248-0.264,0.664-0.277,0.93-0.033C74.477,156.063,74.492,156.079,74.506,156.097L74.506,156.097z M74.292,157.776l-0.28-0.297
		l-0.28,0.297h-0.001c-0.19,0.203-0.499,0.27-0.764,0.145l-0.432-0.205l-0.051,0.182c-0.076,0.324-0.391,0.545-0.731,0.498
		l-0.351-0.049c0.007,0.024,0.013,0.051,0.016,0.077c0.051,0.356-0.199,0.687-0.559,0.737l-0.114,0.017
		c0.011,0.02,0.021,0.037,0.031,0.058c0.145,0.298,0.042,0.648-0.229,0.826c0.028,0.02,0.056,0.041,0.082,0.063
		c0.234,0.215,0.275,0.56,0.114,0.817l0.116,0.017v0.001c0.027,0.004,0.053,0.01,0.08,0.018c0.35,0.095,0.557,0.451,0.461,0.797
		v0.002l0.354-0.051v0.002c0.322-0.045,0.635,0.151,0.724,0.471l0.058,0.207l0.393-0.188c0.259-0.145,0.593-0.101,0.804,0.125
		l0.28,0.297l0.28-0.297h0.001c0.19-0.201,0.498-0.27,0.764-0.144l0.432,0.205l0.052-0.186c0.077-0.321,0.391-0.54,0.73-0.493
		l0.352,0.049c-0.007-0.025-0.013-0.053-0.017-0.08c-0.051-0.354,0.199-0.686,0.559-0.735l0.115-0.017
		c-0.012-0.02-0.022-0.037-0.032-0.058c-0.145-0.298-0.041-0.649,0.229-0.827c-0.029-0.019-0.057-0.039-0.083-0.062
		c-0.234-0.215-0.274-0.559-0.113-0.816l-0.117-0.018v-0.002c-0.027-0.004-0.054-0.01-0.08-0.016
		c-0.35-0.096-0.556-0.453-0.461-0.799v-0.001l-0.354,0.05l0,0c-0.322,0.045-0.635-0.152-0.724-0.472l-0.059-0.207l-0.397,0.188
		C74.833,158.045,74.502,158.001,74.292,157.776L74.292,157.776z"/>
	<polygon fill="#FFC20E" points="74.012,156.526 74.773,157.334 75.911,156.796 76.181,157.749 77.521,157.562 77.258,158.517 
		78.597,158.708 77.841,159.519 78.975,160.062 77.841,160.603 78.597,161.412 77.258,161.604 77.521,162.56 76.181,162.371 
		75.911,163.324 74.773,162.786 74.012,163.594 73.25,162.786 72.113,163.324 71.843,162.371 70.503,162.56 70.767,161.604 
		69.427,161.412 70.183,160.603 69.049,160.062 70.183,159.519 69.427,158.708 70.767,158.517 70.503,157.562 71.843,157.749 
		72.113,156.796 73.25,157.334 	"/>
</g>
</svg>
