<?xml version="1.0" encoding="utf-8"?>
<!-- Generator: Adobe Illustrator 16.0.0, SVG Export Plug-In . SVG Version: 6.00 Build 0)  -->
<!DOCTYPE svg PUBLIC "-//W3C//DTD SVG 1.1//EN" "http://www.w3.org/Graphics/SVG/1.1/DTD/svg11.dtd">
<svg version="1.1" id="Layer_1" xmlns="http://www.w3.org/2000/svg" xmlns:xlink="http://www.w3.org/1999/xlink" x="0px" y="0px"
	 width="179.93px" height="181.046px" viewBox="310.035 209.477 179.93 181.046"
	 enable-background="new 310.035 209.477 179.93 181.046" xml:space="preserve">
<g>
	<path fill="#FFCB00" d="M331.833,209.477h136.334c11.979,0,21.798,9.817,21.798,21.797v137.453
		c0,11.979-9.818,21.797-21.798,21.797H331.833c-11.979,0-21.798-9.816-21.798-21.797V231.273
		C310.035,219.294,319.854,209.477,331.833,209.477L331.833,209.477z"/>
	<path fill="#1D1D1B" d="M372.281,311.596c3.96,5.092,13.576,15.272,13.576,20.646v47.797h-28.285
		c-2.263-6.504-7.919-8.768-7.919-14.424v-44.12c-1.697,0.849-13.86,4.808-16.406,5.373c-0.849,0.284-4.808,0.565-4.808-2.828
		v-54.585c0-1.415,0.564-3.111,3.677-4.525c11.03-4.525,31.962-11.596,35.64-12.727c2.545-0.566,4.525,0.283,4.525,3.111V311.596
		L372.281,311.596z"/>
	<path fill="#1D1D1B" d="M348.521,323.475v11.596c-1.98,0.566-5.657,1.98-6.789,1.98c-3.395-0.001-5.373-3.111-5.373-6.223
		C336.359,326.02,345.127,324.889,348.521,323.475L348.521,323.475z"/>
	<path fill="#1D1D1B" d="M348.521,336.768v9.616c-1.98,0.565-5.657,1.979-6.789,1.979c-3.678,0-4.809-3.395-4.809-5.092
		C336.925,337.898,345.127,337.616,348.521,336.768L348.521,336.768z"/>
	<path fill="#1D1D1B" d="M348.521,348.08v9.615c-1.98,1.133-4.242,1.98-5.657,1.98c-3.959,0-5.939-1.98-5.939-5.656
		C336.925,349.495,345.693,348.93,348.521,348.08L348.521,348.08z"/>
	<path fill="#FFFFFF" d="M337.49,264.93v58.828c-1.131,0.564-3.96,1.697-5.092,1.697s-2.263-0.283-2.263-1.697v-53.737
		C330.137,267.192,334.379,266.061,337.49,264.93L337.49,264.93z"/>
	<path fill="#FFFFFF" d="M370.301,309.615c0,1.697-3.394,3.111-5.374,3.678v24.605h-1.132v-25.736v-5.374
		c0-4.242-4.808-5.374-7.07-5.374c-3.395,0-7.07,3.111-7.07,5.374v12.444c-1.132,0.564-1.98,0.849-3.396,1.414v-59.111l21.497-7.354
		c1.979-0.565,2.545,1.132,2.545,2.263V309.615L370.301,309.615z"/>
	<polygon fill="#1D1D1B" points="337.49,264.93 337.49,323.758 346.259,320.646 346.541,261.536 	"/>
	<path fill="#1D1D1B" d="M351.281,275.558l6.428-1.945v4.109c0.96-1.972,1.933-3.46,2.916-4.48s2.181-1.749,3.592-2.176
		c1.91-0.578,3.402-0.226,4.484,1.039c1.076,1.266,1.614,3.564,1.614,6.894v16.065l-6.933,2.098v-13.896
		c0-1.584-0.208-2.642-0.624-3.173c-0.423-0.538-1.007-0.686-1.765-0.457c-0.833,0.252-1.516,0.905-2.031,1.946
		c-0.521,1.043-0.78,2.722-0.78,5.02v12.134l-6.901,2.089V275.558L351.281,275.558z M382.759,256.415v9.616l3.796-1.148v7.066
		l-3.796,1.148v8.966c0,1.081,0.075,1.772,0.222,2.078c0.225,0.468,0.617,0.625,1.186,0.454c0.509-0.154,1.221-0.581,2.135-1.272
		l0.509,6.538c-1.705,1.037-3.297,1.778-4.777,2.226c-1.719,0.521-2.985,0.595-3.795,0.223c-0.815-0.371-1.418-1.13-1.807-2.272
		c-0.394-1.14-0.584-3.129-0.584-5.955v-8.894l-2.546,0.771v-7.066l2.546-0.77v-4.646L382.759,256.415L382.759,256.415z
		 M409.822,272.872l-13.826,4.185c0.121,1.522,0.422,2.585,0.896,3.205c0.665,0.895,1.539,1.175,2.609,0.851
		c0.677-0.205,1.324-0.636,1.932-1.3c0.376-0.414,0.775-1.063,1.203-1.956l6.798-1.18c-1.041,2.857-2.291,5.055-3.76,6.604
		c-1.47,1.541-3.576,2.73-6.323,3.562c-2.384,0.722-4.258,0.818-5.629,0.291c-1.365-0.529-2.5-1.688-3.396-3.472
		c-0.896-1.784-1.348-4.059-1.348-6.836c0-3.947,0.901-7.42,2.7-10.401c1.807-2.991,4.293-4.97,7.47-5.932
		c2.574-0.779,4.61-0.843,6.098-0.197c1.492,0.637,2.633,1.883,3.408,3.72c0.779,1.843,1.168,4.43,1.168,7.76V272.872
		L409.822,272.872z M402.811,270.357c-0.139-1.834-0.496-3.066-1.075-3.695c-0.584-0.635-1.349-0.81-2.296-0.523
		c-1.101,0.333-1.975,1.214-2.634,2.632c-0.416,0.89-0.683,2.099-0.793,3.643L402.811,270.357L402.811,270.357z M413.062,256.858
		l6.455-1.954v4.134c0.625-1.976,1.269-3.404,1.928-4.278c0.658-0.874,1.476-1.462,2.446-1.756c1.019-0.308,2.13-0.198,3.339,0.322
		l-2.136,7.549c-0.81-0.234-1.458-0.273-1.933-0.13c-0.902,0.273-1.604,1.013-2.101,2.203c-0.712,1.694-1.069,4.562-1.069,8.608
		v8.471l-6.932,2.098v-25.267H413.062z M435.284,258.312l-6.591,1.02c0.249-1.691,0.607-3.075,1.075-4.143
		c0.471-1.067,1.141-2.075,2.026-3.025c0.63-0.686,1.504-1.332,2.608-1.935c1.104-0.603,2.303-1.103,3.592-1.494
		c2.065-0.625,3.731-0.967,4.98-1.02c1.257-0.055,2.305,0.31,3.137,1.089c0.591,0.536,1.054,1.403,1.395,2.607
		c0.336,1.214,0.504,2.406,0.504,3.6v11.159c0,1.186,0.059,2.103,0.161,2.745c0.11,0.641,0.342,1.431,0.706,2.369l-6.474,1.959
		c-0.262-0.571-0.43-1.016-0.51-1.332s-0.155-0.83-0.236-1.536c-0.902,1.5-1.807,2.642-2.696,3.431
		c-1.221,1.068-2.638,1.846-4.252,2.335c-2.146,0.65-3.777,0.445-4.896-0.614c-1.109-1.053-1.665-2.606-1.665-4.653
		c0-1.925,0.398-3.621,1.202-5.099c0.805-1.486,2.279-2.85,4.438-4.104c2.592-1.515,4.27-2.535,5.039-3.06
		c0.763-0.523,1.579-1.16,2.436-1.89c0-1.194-0.174-1.97-0.521-2.344c-0.354-0.364-0.966-0.422-1.852-0.154
		c-1.129,0.341-1.973,0.856-2.54,1.532C435.914,256.285,435.556,257.141,435.284,258.312L435.284,258.312z M441.266,261.593
		c-0.948,0.767-1.938,1.488-2.963,2.164c-1.398,0.943-2.291,1.732-2.661,2.348c-0.387,0.646-0.577,1.296-0.577,1.962
		c0,0.764,0.19,1.323,0.566,1.696c0.381,0.364,0.938,0.439,1.671,0.217c0.771-0.233,1.481-0.708,2.147-1.43
		c0.659-0.728,1.128-1.511,1.404-2.342c0.277-0.839,0.411-1.862,0.411-3.064L441.266,261.593L441.266,261.593z M465.575,256.355
		l6.555-0.937c-0.358,2.025-0.955,3.871-1.774,5.524c-0.828,1.655-1.882,3.062-3.166,4.231c-1.277,1.159-2.909,2.042-4.889,2.641
		c-1.909,0.578-3.5,0.808-4.768,0.695c-1.272-0.118-2.366-0.591-3.279-1.435c-0.92-0.843-1.638-1.933-2.152-3.288
		c-0.521-1.345-0.78-3.264-0.78-5.757c0-2.599,0.312-4.862,0.948-6.785c0.464-1.407,1.094-2.735,1.896-3.985
		c0.805-1.25,1.627-2.254,2.477-2.999c1.343-1.186,3.066-2.098,5.166-2.733c2.939-0.889,5.18-0.828,6.724,0.183
		c1.539,1.004,2.627,2.835,3.246,5.49l-6.491,3.175c-0.203-1.019-0.573-1.719-1.11-2.1c-0.539-0.39-1.256-0.44-2.164-0.166
		c-1.141,0.345-2.064,1.202-2.771,2.561c-0.706,1.367-1.06,3.212-1.06,5.543c0,2.079,0.354,3.547,1.054,4.416
		c0.699,0.868,1.591,1.134,2.679,0.806c0.902-0.273,1.661-0.828,2.279-1.665C464.806,258.935,465.27,257.796,465.575,256.355
		L465.575,256.355z"/>
</g>
</svg>
