<?xml version="1.0" encoding="utf-8"?>
<!-- Generator: Adobe Illustrator 16.0.0, SVG Export Plug-In . SVG Version: 6.00 Build 0)  -->
<!DOCTYPE svg PUBLIC "-//W3C//DTD SVG 1.1//EN" "http://www.w3.org/Graphics/SVG/1.1/DTD/svg11.dtd">
<svg version="1.1" id="Layer_1" xmlns="http://www.w3.org/2000/svg" xmlns:xlink="http://www.w3.org/1999/xlink" x="0px" y="0px"
	 width="175.75px" height="139.458px" viewBox="8.504 26.648 175.75 139.458" enable-background="new 8.504 26.648 175.75 139.458"
	 xml:space="preserve">
<g>
	<path fill="#0072BC" d="M12.582,34.808c0-2.261,1.82-4.082,4.081-4.082h159.43c2.262,0,4.081,1.82,4.081,4.082v123.139
		c0,2.261-1.819,4.081-4.081,4.081H16.663c-2.261,0-4.081-1.82-4.081-4.081V34.808L12.582,34.808z"/>
	<path fill="#F7941E" d="M12.582,136.163c11.725,6.881,32.396,17.292,50.148,17.292c50.446,0,55.854-44.629,117.443-44.829v49.321
		c0,2.261-1.82,4.081-4.081,4.081H16.663c-2.261,0-4.081-1.82-4.081-4.081V136.163L12.582,136.163z"/>
	<path fill="#0072BC" d="M13.492,131.992c0.206-0.353,0.675-0.47,1.027-0.265c0.353,0.205,0.499,0.676,0.264,1.027
		c-0.206,0.382-0.675,0.499-1.027,0.294S13.287,132.374,13.492,131.992L13.492,131.992z"/>
	<path fill="#0072BC" d="M12.582,135.927c0.271-0.092,0.583-0.07,0.852,0.088c0.499,0.266,0.675,0.91,0.381,1.41
		c-0.26,0.441-0.772,0.631-1.233,0.465V135.927L12.582,135.927z"/>
	<path fill="#0072BC" d="M13.228,136.925c0.176-0.293,0.528-0.382,0.822-0.234c0.294,0.177,0.382,0.528,0.235,0.822
		c-0.177,0.293-0.529,0.383-0.823,0.234C13.169,137.571,13.081,137.188,13.228,136.925L13.228,136.925z"/>
	<path fill="#0072BC" d="M13.844,137.396c0.206-0.322,0.617-0.41,0.939-0.234c0.323,0.176,0.412,0.587,0.235,0.91
		c-0.176,0.322-0.587,0.439-0.91,0.265C13.786,138.129,13.668,137.718,13.844,137.396L13.844,137.396z"/>
	<path fill="#0072BC" d="M15.929,134.782c0.206-0.383,0.675-0.499,1.027-0.295c0.382,0.205,0.499,0.646,0.293,1.027
		c-0.176,0.354-0.646,0.5-1.027,0.295C15.87,135.604,15.724,135.135,15.929,134.782L15.929,134.782z"/>
	<path fill="#0072BC" d="M14.344,139.333c0.146-0.266,0.47-0.354,0.734-0.206c0.264,0.147,0.352,0.472,0.206,0.705
		c-0.147,0.265-0.47,0.353-0.734,0.233C14.285,139.92,14.197,139.599,14.344,139.333L14.344,139.333z"/>
	<path fill="#0072BC" d="M16.869,135.81c0.117-0.205,0.352-0.265,0.558-0.177c0.205,0.118,0.293,0.382,0.176,0.589
		c-0.117,0.176-0.382,0.264-0.558,0.146C16.839,136.25,16.751,136.015,16.869,135.81L16.869,135.81z"/>
	<path fill="#0072BC" d="M15.547,137.219c0.264-0.528,0.91-0.704,1.438-0.411c0.5,0.266,0.705,0.91,0.411,1.438
		c-0.293,0.5-0.939,0.705-1.438,0.411C15.43,138.364,15.254,137.718,15.547,137.219L15.547,137.219z"/>
	<path fill="#0072BC" d="M16.487,139.687c0.147-0.266,0.499-0.354,0.763-0.207c0.265,0.146,0.353,0.471,0.206,0.734
		c-0.146,0.264-0.47,0.383-0.734,0.234C16.458,140.302,16.34,139.949,16.487,139.687L16.487,139.687z"/>
	<path fill="#0072BC" d="M16.34,140.272c0.264-0.5,0.91-0.676,1.41-0.412c0.499,0.266,0.675,0.91,0.411,1.41
		c-0.294,0.498-0.911,0.676-1.41,0.41C16.252,141.388,16.046,140.771,16.34,140.272L16.34,140.272z"/>
	<path fill="#0072BC" d="M19.628,139.187c0.206-0.353,0.617-0.471,0.969-0.293c0.353,0.176,0.47,0.615,0.294,0.969
		c-0.176,0.322-0.617,0.47-0.969,0.294C19.599,139.949,19.452,139.538,19.628,139.187L19.628,139.187z"/>
	<path fill="#0072BC" d="M21.625,137.276c0.265-0.469,0.852-0.646,1.321-0.381c0.47,0.234,0.646,0.821,0.411,1.291
		c-0.265,0.471-0.852,0.646-1.321,0.412C21.566,138.335,21.39,137.747,21.625,137.276L21.625,137.276z"/>
	<path fill="#0072BC" d="M23.915,138.041c0.088-0.206,0.353-0.294,0.558-0.177c0.235,0.089,0.323,0.353,0.206,0.588
		c-0.118,0.205-0.382,0.294-0.587,0.176C23.886,138.511,23.798,138.246,23.915,138.041L23.915,138.041z"/>
	<path fill="#0072BC" d="M21.772,143.442c0.118-0.233,0.382-0.322,0.616-0.205c0.206,0.089,0.294,0.382,0.206,0.588
		c-0.117,0.234-0.381,0.322-0.617,0.205C21.772,143.913,21.684,143.649,21.772,143.442L21.772,143.442z"/>
	<path fill="#0072BC" d="M23.534,140.185c0.206-0.41,0.675-0.559,1.057-0.382c0.411,0.205,0.558,0.675,0.382,1.058
		c-0.206,0.41-0.675,0.559-1.057,0.382C23.504,141.036,23.357,140.565,23.534,140.185L23.534,140.185z"/>
	<path fill="#0072BC" d="M25.442,140.39c0.088-0.205,0.323-0.293,0.528-0.176c0.206,0.088,0.294,0.322,0.206,0.528
		c-0.117,0.205-0.352,0.294-0.558,0.205C25.413,140.83,25.324,140.597,25.442,140.39L25.442,140.39z"/>
	<path fill="#0072BC" d="M25.647,139.01c0.235-0.47,0.822-0.675,1.292-0.44c0.499,0.236,0.705,0.822,0.47,1.293
		c-0.235,0.498-0.822,0.705-1.321,0.47C25.618,140.097,25.413,139.509,25.647,139.01L25.647,139.01z"/>
	<path fill="#0072BC" d="M25.912,139.744c0.118-0.294,0.47-0.382,0.734-0.265c0.294,0.146,0.411,0.47,0.265,0.764
		c-0.147,0.265-0.47,0.382-0.734,0.234C25.882,140.36,25.765,140.008,25.912,139.744L25.912,139.744z"/>
	<path fill="#0072BC" d="M26.293,139.099c0.146-0.265,0.47-0.383,0.734-0.265c0.264,0.146,0.382,0.47,0.264,0.733
		c-0.146,0.265-0.47,0.382-0.734,0.265C26.264,139.687,26.176,139.362,26.293,139.099L26.293,139.099z"/>
	<path fill="#0072BC" d="M23.21,145.704c0.206-0.411,0.675-0.559,1.086-0.382c0.382,0.206,0.558,0.676,0.353,1.087
		c-0.177,0.381-0.675,0.558-1.057,0.352C23.181,146.585,23.034,146.086,23.21,145.704L23.21,145.704z"/>
	<path fill="#0072BC" d="M24.003,144.295c0.205-0.411,0.705-0.587,1.116-0.382c0.44,0.206,0.616,0.705,0.411,1.146
		c-0.206,0.409-0.734,0.586-1.145,0.381C23.974,145.233,23.798,144.735,24.003,144.295L24.003,144.295z"/>
	<path fill="#0072BC" d="M23.915,146.086c0.235-0.499,0.852-0.705,1.321-0.47c0.499,0.265,0.705,0.852,0.47,1.351
		c-0.235,0.47-0.822,0.675-1.321,0.44C23.886,147.172,23.68,146.585,23.915,146.086L23.915,146.086z"/>
	<path fill="#0072BC" d="M26.792,143.737c0.118-0.235,0.411-0.354,0.646-0.235s0.353,0.411,0.235,0.646
		c-0.118,0.266-0.411,0.354-0.646,0.235C26.792,144.265,26.675,144.001,26.792,143.737L26.792,143.737z"/>
	<path fill="#0072BC" d="M27.732,141.856c0.117-0.293,0.44-0.41,0.733-0.264c0.294,0.117,0.411,0.44,0.265,0.733
		c-0.118,0.265-0.47,0.411-0.734,0.265C27.703,142.476,27.585,142.122,27.732,141.856L27.732,141.856z"/>
	<path fill="#0072BC" d="M28.701,141.183c0.176-0.353,0.587-0.498,0.91-0.353c0.352,0.176,0.499,0.588,0.323,0.91
		c-0.147,0.353-0.558,0.499-0.881,0.323C28.701,141.916,28.554,141.506,28.701,141.183L28.701,141.183z"/>
	<path fill="#0072BC" d="M28.172,144.295c0.176-0.411,0.646-0.587,1.028-0.411c0.382,0.176,0.587,0.646,0.411,1.027
		c-0.176,0.411-0.646,0.588-1.057,0.411C28.172,145.146,27.997,144.677,28.172,144.295L28.172,144.295z"/>
	<path fill="#0072BC" d="M28.818,144.972c0.088-0.207,0.353-0.295,0.558-0.207s0.293,0.323,0.206,0.528
		c-0.088,0.206-0.353,0.323-0.558,0.206C28.818,145.41,28.73,145.176,28.818,144.972L28.818,144.972z"/>
	<path fill="#0072BC" d="M30.257,141.828c0.147-0.293,0.47-0.41,0.764-0.293c0.293,0.146,0.411,0.47,0.293,0.763
		c-0.117,0.294-0.47,0.411-0.763,0.294C30.257,142.444,30.14,142.122,30.257,141.828L30.257,141.828z"/>
	<path fill="#0072BC" d="M27.761,146.497c0.235-0.471,0.793-0.705,1.292-0.471c0.47,0.205,0.705,0.793,0.47,1.263
		c-0.206,0.5-0.763,0.705-1.262,0.5C27.761,147.554,27.556,146.996,27.761,146.497L27.761,146.497z"/>
	<path fill="#0072BC" d="M27.351,147.554c0.235-0.527,0.851-0.764,1.38-0.527c0.528,0.234,0.763,0.852,0.528,1.38
		c-0.235,0.528-0.852,0.764-1.38,0.528C27.351,148.699,27.116,148.082,27.351,147.554L27.351,147.554z"/>
	<path fill="#0072BC" d="M29.229,145.646c0.235-0.527,0.822-0.733,1.321-0.527c0.499,0.234,0.734,0.822,0.499,1.32
		c-0.206,0.528-0.793,0.733-1.321,0.528C29.229,146.731,28.995,146.146,29.229,145.646L29.229,145.646z"/>
	<path fill="#0072BC" d="M32.048,141.535c0.176-0.44,0.705-0.677,1.174-0.47c0.44,0.205,0.646,0.732,0.47,1.174
		c-0.206,0.47-0.734,0.676-1.174,0.47C32.048,142.533,31.843,142.005,32.048,141.535L32.048,141.535z"/>
	<path fill="#0072BC" d="M32.019,143.474c0.206-0.5,0.764-0.733,1.233-0.529c0.499,0.234,0.734,0.794,0.528,1.264
		c-0.205,0.499-0.763,0.732-1.262,0.527C32.019,144.528,31.813,143.942,32.019,143.474L32.019,143.474z"/>
	<path fill="#0072BC" d="M31.138,149.756c0.117-0.294,0.411-0.411,0.675-0.294c0.293,0.118,0.411,0.439,0.293,0.705
		s-0.44,0.382-0.705,0.294C31.138,150.344,31.021,150.021,31.138,149.756L31.138,149.756z"/>
	<path fill="#0072BC" d="M33.575,144.383c0.235-0.528,0.851-0.793,1.38-0.558c0.528,0.205,0.792,0.822,0.587,1.351
		c-0.235,0.558-0.852,0.793-1.38,0.587C33.634,145.558,33.37,144.94,33.575,144.383L33.575,144.383z"/>
	<path fill="#0072BC" d="M32.019,150.255c0.206-0.499,0.764-0.704,1.233-0.527c0.47,0.205,0.705,0.764,0.528,1.232
		c-0.205,0.499-0.763,0.732-1.233,0.528C32.048,151.283,31.813,150.726,32.019,150.255L32.019,150.255z"/>
	<path fill="#0072BC" d="M34.984,145.353c0.176-0.471,0.705-0.705,1.204-0.528c0.47,0.206,0.705,0.733,0.529,1.204
		c-0.206,0.47-0.734,0.703-1.204,0.527C35.043,146.379,34.808,145.821,34.984,145.353L34.984,145.353z"/>
	<path fill="#0072BC" d="M34.456,150.461c0.118-0.323,0.47-0.47,0.764-0.353c0.294,0.117,0.44,0.439,0.323,0.764
		c-0.118,0.293-0.44,0.439-0.734,0.322C34.514,151.077,34.338,150.754,34.456,150.461L34.456,150.461z"/>
	<path fill="#0072BC" d="M34.867,151.106c0.176-0.44,0.675-0.676,1.116-0.5c0.441,0.177,0.646,0.677,0.47,1.117
		c-0.146,0.409-0.646,0.646-1.086,0.469C34.926,152.017,34.72,151.547,34.867,151.106L34.867,151.106z"/>
	<path fill="#0072BC" d="M36.893,149.521c0.176-0.527,0.764-0.791,1.263-0.615c0.528,0.205,0.793,0.764,0.616,1.292
		c-0.205,0.528-0.763,0.793-1.292,0.587C36.951,150.606,36.687,150.021,36.893,149.521L36.893,149.521z"/>
	<path fill="#0072BC" d="M38.684,146.409c0.118-0.354,0.529-0.559,0.881-0.44c0.382,0.146,0.558,0.528,0.44,0.91
		c-0.118,0.353-0.528,0.558-0.881,0.44C38.743,147.172,38.566,146.79,38.684,146.409L38.684,146.409z"/>
	<path fill="#0072BC" d="M37.245,151.987c0.118-0.354,0.47-0.528,0.792-0.411c0.353,0.116,0.529,0.47,0.411,0.821
		c-0.117,0.324-0.499,0.5-0.822,0.383C37.304,152.662,37.127,152.312,37.245,151.987L37.245,151.987z"/>
	<path fill="#0072BC" d="M40.21,145.088c0.118-0.353,0.5-0.528,0.822-0.411c0.323,0.117,0.499,0.471,0.381,0.822
		c-0.117,0.322-0.47,0.499-0.792,0.382C40.298,145.763,40.123,145.41,40.21,145.088L40.21,145.088z"/>
	<path fill="#0072BC" d="M39.623,147.906c0.088-0.206,0.294-0.294,0.5-0.234c0.176,0.06,0.293,0.293,0.235,0.47
		c-0.088,0.205-0.294,0.322-0.499,0.234C39.682,148.317,39.564,148.112,39.623,147.906L39.623,147.906z"/>
	<path fill="#0072BC" d="M40.298,146.526c0.147-0.471,0.617-0.705,1.086-0.528c0.441,0.146,0.675,0.616,0.528,1.086
		c-0.146,0.44-0.646,0.676-1.086,0.528C40.357,147.466,40.123,146.967,40.298,146.526L40.298,146.526z"/>
	<path fill="#0072BC" d="M40.68,151.692c0.088-0.264,0.382-0.439,0.646-0.352c0.293,0.088,0.44,0.383,0.353,0.676
		c-0.088,0.265-0.382,0.41-0.676,0.322C40.739,152.252,40.592,151.958,40.68,151.692L40.68,151.692z"/>
	<path fill="#0072BC" d="M40.533,151.604c0.177-0.47,0.705-0.764,1.204-0.586c0.499,0.146,0.763,0.674,0.587,1.174
		c-0.146,0.5-0.675,0.764-1.174,0.617C40.651,152.634,40.387,152.104,40.533,151.604L40.533,151.604z"/>
	<path fill="#0072BC" d="M41.033,151.782c0.117-0.354,0.47-0.529,0.793-0.44c0.352,0.117,0.558,0.47,0.44,0.821
		c-0.088,0.322-0.47,0.529-0.792,0.412C41.121,152.485,40.915,152.134,41.033,151.782L41.033,151.782z"/>
	<path fill="#0072BC" d="M43.499,147.495c0.117-0.383,0.528-0.587,0.91-0.471c0.382,0.117,0.587,0.5,0.47,0.882
		c-0.118,0.382-0.529,0.587-0.91,0.47C43.616,148.259,43.381,147.877,43.499,147.495L43.499,147.495z"/>
	<path fill="#0072BC" d="M44.497,146.879c0.088-0.265,0.382-0.44,0.676-0.353c0.264,0.088,0.44,0.382,0.352,0.675
		c-0.087,0.265-0.381,0.411-0.675,0.353C44.585,147.466,44.409,147.172,44.497,146.879L44.497,146.879z"/>
	<path fill="#0072BC" d="M44.35,148.405c0.088-0.266,0.353-0.411,0.617-0.323c0.265,0.089,0.411,0.353,0.323,0.617
		c-0.088,0.264-0.353,0.411-0.617,0.321C44.409,148.935,44.262,148.67,44.35,148.405L44.35,148.405z"/>
	<path fill="#0072BC" d="M44.057,151.576c0.118-0.353,0.47-0.558,0.822-0.47c0.382,0.117,0.587,0.47,0.47,0.852
		c-0.088,0.354-0.47,0.559-0.822,0.439C44.174,152.312,43.969,151.929,44.057,151.576L44.057,151.576z"/>
	<path fill="#0072BC" d="M44.644,150.021c0.117-0.439,0.587-0.705,1.027-0.586c0.47,0.146,0.734,0.615,0.587,1.057
		c-0.117,0.439-0.587,0.703-1.027,0.587C44.761,150.931,44.497,150.461,44.644,150.021L44.644,150.021z"/>
	<path fill="#0072BC" d="M44.673,152.397c0.088-0.353,0.47-0.586,0.851-0.47c0.353,0.117,0.587,0.499,0.47,0.853
		c-0.118,0.382-0.499,0.587-0.852,0.47C44.761,153.162,44.556,152.78,44.673,152.397L44.673,152.397z"/>
	<path fill="#0072BC" d="M47.228,148.67c0.059-0.294,0.353-0.44,0.646-0.382c0.264,0.088,0.44,0.382,0.353,0.646
		c-0.059,0.293-0.353,0.439-0.646,0.381C47.316,149.228,47.14,148.963,47.228,148.67L47.228,148.67z"/>
	<path fill="#0072BC" d="M46.729,154.688c0.059-0.234,0.323-0.383,0.558-0.323c0.235,0.06,0.382,0.294,0.323,0.528
		c-0.059,0.265-0.293,0.41-0.558,0.353C46.817,155.188,46.67,154.924,46.729,154.688L46.729,154.688z"/>
	<path fill="#0072BC" d="M48.197,148.229c0.088-0.323,0.44-0.529,0.763-0.471c0.323,0.088,0.529,0.44,0.47,0.764
		c-0.088,0.353-0.44,0.559-0.763,0.47C48.314,148.903,48.108,148.552,48.197,148.229L48.197,148.229z"/>
	<path fill="#0072BC" d="M47.962,152.312c0.117-0.528,0.646-0.881,1.174-0.734c0.528,0.117,0.851,0.646,0.734,1.175
		c-0.117,0.529-0.646,0.853-1.174,0.733C48.167,153.338,47.844,152.839,47.962,152.312L47.962,152.312z"/>
	<path fill="#0072BC" d="M48.813,152.457c0.118-0.558,0.676-0.938,1.263-0.822c0.558,0.147,0.94,0.705,0.822,1.263
		c-0.147,0.588-0.705,0.939-1.262,0.822C49.048,153.603,48.667,153.045,48.813,152.457L48.813,152.457z"/>
	<path fill="#0072BC" d="M49.048,154.483c0.088-0.528,0.616-0.881,1.145-0.765c0.528,0.117,0.851,0.616,0.734,1.146
		c-0.088,0.528-0.617,0.88-1.145,0.763C49.254,155.511,48.931,154.981,49.048,154.483L49.048,154.483z"/>
	<path fill="#0072BC" d="M51.515,150.901c0.117-0.471,0.587-0.793,1.057-0.705c0.499,0.117,0.793,0.558,0.705,1.057
		c-0.088,0.471-0.558,0.793-1.057,0.705C51.749,151.87,51.426,151.399,51.515,150.901L51.515,150.901z"/>
	<path fill="#0072BC" d="M52.424,150.372c0.088-0.499,0.558-0.852,1.086-0.764c0.5,0.089,0.822,0.588,0.734,1.086
		c-0.088,0.5-0.558,0.853-1.086,0.765C52.66,151.371,52.336,150.872,52.424,150.372L52.424,150.372z"/>
	<path fill="#0072BC" d="M53.481,153.222c0.029-0.295,0.323-0.5,0.617-0.44c0.294,0.059,0.499,0.323,0.44,0.616
		c-0.029,0.293-0.323,0.498-0.617,0.47C53.628,153.808,53.423,153.544,53.481,153.222L53.481,153.222z"/>
	<path fill="#0072BC" d="M53.805,154.483c0.088-0.471,0.528-0.765,0.969-0.705c0.47,0.088,0.793,0.498,0.705,0.969
		c-0.059,0.47-0.5,0.764-0.969,0.705C54.069,155.364,53.746,154.953,53.805,154.483L53.805,154.483z"/>
	<path fill="#0072BC" d="M54.891,154.103c0.059-0.412,0.411-0.677,0.822-0.617s0.705,0.41,0.646,0.822
		c-0.059,0.41-0.44,0.705-0.852,0.646C55.097,154.896,54.832,154.513,54.891,154.103L54.891,154.103z"/>
	<path fill="#0072BC" d="M56.33,155.922c0.059-0.323,0.352-0.558,0.675-0.499c0.323,0.029,0.558,0.322,0.528,0.646
		c-0.029,0.322-0.323,0.558-0.675,0.527C56.535,156.567,56.3,156.274,56.33,155.922L56.33,155.922z"/>
	<path fill="#0072BC" d="M57.563,149.286c0.029-0.559,0.528-0.969,1.086-0.91s0.969,0.527,0.911,1.086
		c-0.029,0.559-0.529,0.971-1.086,0.91C57.915,150.344,57.504,149.844,57.563,149.286L57.563,149.286z"/>
	<path fill="#0072BC" d="M57.622,149.668c0.059-0.558,0.528-0.969,1.086-0.91c0.558,0.06,0.969,0.528,0.91,1.086
		c-0.059,0.56-0.528,0.97-1.086,0.91C57.974,150.694,57.563,150.226,57.622,149.668L57.622,149.668z"/>
	<path fill="#0072BC" d="M59.354,151.812c0.029-0.527,0.469-0.91,0.998-0.852c0.5,0.029,0.881,0.471,0.852,0.969
		c-0.029,0.499-0.47,0.881-0.999,0.853C59.706,152.751,59.325,152.312,59.354,151.812L59.354,151.812z"/>
	<path fill="#0072BC" d="M60.234,150.313c0.03-0.471,0.44-0.853,0.91-0.853c0.5,0.03,0.881,0.44,0.852,0.91
		c0,0.5-0.411,0.881-0.91,0.853C60.616,151.224,60.234,150.813,60.234,150.313L60.234,150.313z"/>
	<path fill="#0072BC" d="M60.675,150.842c0-0.352,0.323-0.646,0.675-0.616c0.353,0,0.646,0.323,0.646,0.676
		c-0.029,0.353-0.323,0.646-0.705,0.646C60.939,151.519,60.646,151.224,60.675,150.842L60.675,150.842z"/>
	<path fill="#0072BC" d="M60.91,155.481c0.029-0.559,0.47-0.998,1.057-0.998c0.558,0,0.999,0.47,0.999,1.026
		c0,0.587-0.47,1.027-1.057,1.027C61.35,156.509,60.91,156.039,60.91,155.481L60.91,155.481z"/>
	<path fill="#0072BC" d="M63.083,150.226c0-0.382,0.293-0.705,0.705-0.732c0.381,0,0.704,0.322,0.704,0.704
		c0.03,0.382-0.293,0.704-0.675,0.733C63.406,150.931,63.083,150.606,63.083,150.226L63.083,150.226z"/>
	<path fill="#0072BC" d="M64.022,150.167c0-0.382,0.294-0.675,0.675-0.705c0.382,0,0.705,0.294,0.705,0.676
		c0.03,0.411-0.293,0.704-0.675,0.704C64.345,150.872,64.022,150.549,64.022,150.167L64.022,150.167z"/>
	<path fill="#0072BC" d="M64.962,153.573c-0.029-0.44,0.323-0.822,0.763-0.852c0.47,0,0.822,0.352,0.852,0.791
		c0,0.441-0.352,0.822-0.793,0.822C65.343,154.365,64.962,154.015,64.962,153.573L64.962,153.573z"/>
	<path fill="#0072BC" d="M65.079,152.751c0-0.527,0.411-0.969,0.939-0.999c0.529,0,0.969,0.411,0.969,0.94
		c0.029,0.527-0.382,0.969-0.91,0.969C65.549,153.69,65.109,153.278,65.079,152.751L65.079,152.751z"/>
	<path fill="#0072BC" d="M65.285,156.362c-0.029-0.559,0.44-1.027,0.999-1.059c0.587-0.029,1.057,0.44,1.086,0.999
		c0,0.587-0.44,1.058-1.027,1.087C65.784,157.39,65.314,156.949,65.285,156.362L65.285,156.362z"/>
	<path fill="#0072BC" d="M66.606,155.745c-0.029-0.499,0.353-0.969,0.881-0.998c0.499-0.029,0.969,0.354,0.998,0.881
		c0.03,0.499-0.352,0.969-0.88,0.998C67.105,156.656,66.635,156.274,66.606,155.745L66.606,155.745z"/>
	<path fill="#0072BC" d="M67.223,155.894c-0.029-0.235,0.176-0.44,0.411-0.44c0.235-0.029,0.441,0.146,0.441,0.382
		c0.029,0.234-0.147,0.439-0.382,0.471C67.458,156.304,67.252,156.127,67.223,155.894L67.223,155.894z"/>
	<path fill="#0072BC" d="M67.252,150.872c0-0.206,0.147-0.411,0.381-0.411c0.206-0.028,0.411,0.146,0.411,0.353
		c0.03,0.234-0.146,0.41-0.352,0.439C67.458,151.253,67.281,151.106,67.252,150.872L67.252,150.872z"/>
	<path fill="#0072BC" d="M67.34,154.336c-0.03-0.411,0.293-0.792,0.704-0.821c0.44-0.029,0.793,0.293,0.822,0.733
		c0.029,0.411-0.293,0.793-0.705,0.821C67.722,155.101,67.369,154.776,67.34,154.336L67.34,154.336z"/>
	<path fill="#0072BC" d="M68.661,153.338c-0.029-0.499,0.323-0.938,0.822-0.969s0.939,0.353,0.969,0.821
		c0.029,0.5-0.352,0.939-0.822,0.97C69.131,154.188,68.69,153.837,68.661,153.338L68.661,153.338z"/>
	<path fill="#0072BC" d="M70.247,153.133c-0.059-0.558,0.353-1.058,0.911-1.116c0.528-0.059,1.027,0.354,1.086,0.881
		c0.059,0.559-0.353,1.059-0.881,1.117C70.805,154.072,70.306,153.661,70.247,153.133L70.247,153.133z"/>
	<path fill="#0072BC" d="M72.214,154.601c-0.029-0.353,0.206-0.646,0.558-0.705c0.352-0.028,0.675,0.207,0.734,0.56
		c0.029,0.353-0.206,0.675-0.558,0.704C72.596,155.217,72.272,154.953,72.214,154.601L72.214,154.601z"/>
	<path fill="#0072BC" d="M71.744,149.991c-0.059-0.383,0.235-0.734,0.617-0.793c0.381-0.029,0.734,0.234,0.792,0.615
		c0.029,0.383-0.234,0.734-0.616,0.793C72.155,150.666,71.803,150.372,71.744,149.991L71.744,149.991z"/>
	<path fill="#0072BC" d="M73.271,153.483c-0.029-0.233,0.118-0.41,0.353-0.438c0.206-0.03,0.411,0.117,0.44,0.322
		c0,0.235-0.146,0.411-0.352,0.44C73.506,153.836,73.3,153.69,73.271,153.483L73.271,153.483z"/>
	<path fill="#0072BC" d="M72.625,151.519c-0.059-0.5,0.323-0.97,0.822-1.027c0.499-0.059,0.939,0.293,0.998,0.793
		c0.059,0.499-0.293,0.969-0.793,1.027C73.153,152.369,72.713,152.017,72.625,151.519L72.625,151.519z"/>
	<path fill="#0072BC" d="M73.095,150.549c-0.088-0.558,0.293-1.057,0.852-1.146c0.528-0.088,1.057,0.294,1.145,0.822
		c0.088,0.558-0.293,1.086-0.852,1.174C73.711,151.488,73.183,151.106,73.095,150.549L73.095,150.549z"/>
	<path fill="#0072BC" d="M73.946,149.933c-0.088-0.529,0.293-1.058,0.852-1.146c0.528-0.088,1.057,0.294,1.145,0.853
		c0.088,0.527-0.294,1.057-0.852,1.145C74.563,150.872,74.034,150.49,73.946,149.933L73.946,149.933z"/>
	<path fill="#0072BC" d="M76.823,155.452c-0.029-0.206,0.118-0.411,0.323-0.471c0.235-0.028,0.44,0.117,0.499,0.322
		c0.029,0.235-0.117,0.44-0.323,0.471C77.088,155.834,76.882,155.687,76.823,155.452L76.823,155.452z"/>
	<path fill="#0072BC" d="M75.708,149.697c-0.059-0.323,0.146-0.646,0.47-0.705c0.323-0.089,0.646,0.147,0.705,0.47
		c0.088,0.323-0.147,0.646-0.47,0.705C76.089,150.226,75.767,150.021,75.708,149.697L75.708,149.697z"/>
	<path fill="#0072BC" d="M76.148,149.315c-0.118-0.528,0.235-1.058,0.792-1.146c0.528-0.118,1.057,0.233,1.145,0.763
		c0.118,0.56-0.235,1.059-0.792,1.176C76.765,150.196,76.266,149.873,76.148,149.315L76.148,149.315z"/>
	<path fill="#0072BC" d="M78.145,149.813c-0.088-0.293,0.117-0.586,0.411-0.674c0.293-0.06,0.616,0.116,0.675,0.439
		c0.059,0.293-0.117,0.587-0.411,0.675C78.497,150.313,78.204,150.138,78.145,149.813L78.145,149.813z"/>
	<path fill="#0072BC" d="M78.585,149.462c-0.088-0.381,0.147-0.792,0.529-0.88c0.381-0.089,0.763,0.146,0.881,0.528
		c0.088,0.382-0.147,0.763-0.528,0.881C79.084,150.079,78.673,149.844,78.585,149.462L78.585,149.462z"/>
	<path fill="#0072BC" d="M78.703,147.906c-0.088-0.354,0.146-0.705,0.499-0.793c0.353-0.089,0.705,0.116,0.793,0.47
		s-0.118,0.705-0.47,0.793C79.172,148.464,78.791,148.259,78.703,147.906L78.703,147.906z"/>
	<path fill="#0072BC" d="M81.286,153.661c-0.117-0.439,0.176-0.91,0.617-0.999c0.44-0.117,0.91,0.147,1.027,0.616
		c0.117,0.44-0.176,0.882-0.617,0.998C81.872,154.394,81.404,154.131,81.286,153.661L81.286,153.661z"/>
	<path fill="#0072BC" d="M80.142,148.112c-0.147-0.529,0.146-1.088,0.675-1.233c0.529-0.147,1.087,0.146,1.233,0.675
		s-0.176,1.088-0.675,1.233C80.846,148.935,80.288,148.642,80.142,148.112L80.142,148.112z"/>
	<path fill="#0072BC" d="M83.253,151.782c-0.147-0.411,0.088-0.822,0.5-0.969c0.411-0.147,0.852,0.088,0.969,0.498
		c0.146,0.412-0.088,0.852-0.499,0.97C83.812,152.428,83.371,152.192,83.253,151.782L83.253,151.782z"/>
	<path fill="#0072BC" d="M83.929,149.728c-0.147-0.5,0.117-0.998,0.587-1.146c0.499-0.177,0.999,0.088,1.174,0.587
		c0.147,0.471-0.117,0.969-0.587,1.145C84.604,150.461,84.105,150.196,83.929,149.728L83.929,149.728z"/>
	<path fill="#0072BC" d="M84.34,148.699c-0.088-0.294,0.059-0.587,0.353-0.677c0.264-0.088,0.558,0.06,0.646,0.354
		c0.118,0.266-0.059,0.559-0.323,0.646C84.722,149.14,84.428,148.963,84.34,148.699L84.34,148.699z"/>
	<path fill="#0072BC" d="M84.604,148.903c-0.147-0.469,0.088-0.969,0.558-1.114c0.47-0.177,0.969,0.088,1.145,0.528
		c0.147,0.47-0.088,0.998-0.558,1.145C85.279,149.64,84.78,149.374,84.604,148.903L84.604,148.903z"/>
	<path fill="#0072BC" d="M85.896,149.11c-0.088-0.266,0.059-0.528,0.293-0.617c0.265-0.088,0.529,0.059,0.617,0.294
		c0.088,0.264-0.029,0.528-0.293,0.616C86.249,149.492,85.984,149.345,85.896,149.11L85.896,149.11z"/>
	<path fill="#0072BC" d="M85.015,147.201c-0.206-0.558,0.088-1.146,0.646-1.351c0.558-0.177,1.145,0.117,1.351,0.646
		c0.176,0.558-0.117,1.175-0.646,1.351C85.808,148.053,85.191,147.76,85.015,147.201L85.015,147.201z"/>
	<path fill="#0072BC" d="M85.984,146.319c-0.176-0.381,0.029-0.82,0.44-0.997c0.381-0.146,0.822,0.059,0.969,0.44
		c0.147,0.41-0.029,0.852-0.44,0.997C86.571,146.908,86.131,146.731,85.984,146.319L85.984,146.319z"/>
	<path fill="#0072BC" d="M88.773,151.312c-0.147-0.353,0.029-0.764,0.382-0.881c0.353-0.146,0.734,0.029,0.881,0.383
		c0.146,0.352-0.03,0.763-0.382,0.879C89.302,151.841,88.891,151.664,88.773,151.312L88.773,151.312z"/>
	<path fill="#0072BC" d="M89.39,150.872c-0.206-0.528,0.029-1.116,0.558-1.321c0.5-0.206,1.086,0.029,1.292,0.528
		c0.235,0.499,0,1.086-0.529,1.32C90.212,151.604,89.625,151.371,89.39,150.872L89.39,150.872z"/>
	<path fill="#0072BC" d="M90.447,147.994c-0.176-0.382,0-0.822,0.381-0.97c0.382-0.176,0.822,0,0.969,0.383
		c0.176,0.353,0,0.793-0.382,0.969C91.063,148.552,90.624,148.376,90.447,147.994L90.447,147.994z"/>
	<path fill="#0072BC" d="M90.506,146.996c-0.206-0.47,0-0.998,0.44-1.204c0.47-0.205,0.998,0,1.204,0.439
		c0.206,0.471,0,0.998-0.44,1.205C91.24,147.642,90.711,147.437,90.506,146.996L90.506,146.996z"/>
	<path fill="#0072BC" d="M90.858,145.438c-0.117-0.205,0-0.469,0.206-0.586c0.235-0.088,0.499,0,0.587,0.234
		c0.117,0.205,0,0.471-0.206,0.587C91.21,145.763,90.946,145.675,90.858,145.438L90.858,145.438z"/>
	<path fill="#0072BC" d="M92.796,150.842c-0.235-0.498-0.029-1.057,0.44-1.291c0.499-0.206,1.057,0,1.292,0.47
		c0.206,0.471,0,1.058-0.47,1.264C93.589,151.519,93.001,151.312,92.796,150.842L92.796,150.842z"/>
	<path fill="#0072BC" d="M92.649,147.789c-0.235-0.47-0.029-0.999,0.44-1.233c0.47-0.205,1.028,0,1.233,0.471
		c0.235,0.439,0.029,0.998-0.44,1.232C93.413,148.464,92.854,148.259,92.649,147.789L92.649,147.789z"/>
	<path fill="#0072BC" d="M92.972,145.293c-0.176-0.321-0.03-0.765,0.323-0.938c0.323-0.177,0.764-0.029,0.94,0.322
		c0.176,0.322,0.029,0.764-0.323,0.939C93.589,145.792,93.148,145.646,92.972,145.293L92.972,145.293z"/>
	<path fill="#0072BC" d="M93.031,144.972c-0.147-0.266-0.029-0.589,0.235-0.705c0.264-0.146,0.587-0.029,0.734,0.233
		c0.118,0.265,0.03,0.588-0.235,0.733C93.5,145.353,93.178,145.265,93.031,144.972L93.031,144.972z"/>
	<path fill="#0072BC" d="M95.938,150.138c-0.206-0.439-0.029-0.969,0.411-1.203s0.968-0.06,1.205,0.381
		c0.204,0.44,0.028,0.998-0.412,1.205C96.701,150.754,96.172,150.578,95.938,150.138L95.938,150.138z"/>
	<path fill="#0072BC" d="M94.528,144.765c-0.147-0.293-0.029-0.646,0.264-0.793c0.264-0.176,0.646-0.059,0.792,0.235
		c0.147,0.293,0.03,0.646-0.264,0.792C95.057,145.146,94.675,145.06,94.528,144.765L94.528,144.765z"/>
	<path fill="#0072BC" d="M97.229,149.198c-0.146-0.295-0.06-0.676,0.233-0.822c0.323-0.146,0.677-0.029,0.822,0.266
		c0.177,0.293,0.059,0.646-0.234,0.82C97.758,149.608,97.376,149.492,97.229,149.198L97.229,149.198z"/>
	<path fill="#0072BC" d="M96.848,148.405c-0.265-0.528-0.059-1.146,0.44-1.409c0.499-0.294,1.146-0.088,1.408,0.411
		c0.266,0.527,0.089,1.145-0.439,1.408C97.758,149.11,97.11,148.903,96.848,148.405L96.848,148.405z"/>
	<path fill="#0072BC" d="M96.73,144.647c-0.117-0.178-0.029-0.44,0.146-0.528c0.206-0.118,0.439-0.06,0.559,0.146
		c0.117,0.205,0.028,0.44-0.146,0.528C97.083,144.911,96.848,144.853,96.73,144.647L96.73,144.647z"/>
	<path fill="#0072BC" d="M96.76,144.324c-0.146-0.294-0.059-0.646,0.234-0.822c0.294-0.146,0.646-0.06,0.821,0.235
		c0.146,0.293,0.06,0.675-0.233,0.82C97.288,144.706,96.937,144.618,96.76,144.324L96.76,144.324z"/>
	<path fill="#0072BC" d="M98.608,145.381c-0.205-0.353-0.088-0.763,0.266-0.969c0.352-0.205,0.764-0.088,0.969,0.265
		c0.205,0.322,0.088,0.764-0.265,0.969C99.256,145.821,98.813,145.704,98.608,145.381L98.608,145.381z"/>
	<path fill="#0072BC" d="M99.284,146.731c-0.234-0.412-0.088-0.969,0.322-1.203c0.44-0.266,0.998-0.118,1.233,0.322
		c0.235,0.439,0.089,0.969-0.323,1.232C100.077,147.319,99.549,147.172,99.284,146.731L99.284,146.731z"/>
	<path fill="#0072BC" d="M100.399,144.178c-0.146-0.206-0.059-0.5,0.146-0.616c0.235-0.146,0.529-0.088,0.646,0.146
		c0.146,0.234,0.059,0.499-0.147,0.646C100.812,144.472,100.547,144.412,100.399,144.178L100.399,144.178z"/>
	<path fill="#0072BC" d="M100.431,143.179c-0.177-0.293-0.089-0.703,0.233-0.881c0.294-0.205,0.705-0.088,0.882,0.206
		c0.176,0.322,0.088,0.705-0.206,0.91C101.017,143.59,100.604,143.502,100.431,143.179L100.431,143.179z"/>
	<path fill="#0072BC" d="M99.401,140.448c-0.234-0.383-0.117-0.91,0.293-1.174c0.412-0.235,0.94-0.118,1.176,0.293
		c0.265,0.41,0.117,0.939-0.294,1.203C100.166,141.006,99.638,140.858,99.401,140.448L99.401,140.448z"/>
	<path fill="#0072BC" d="M102.72,142.063c-0.146-0.266-0.059-0.559,0.176-0.705c0.235-0.176,0.56-0.088,0.705,0.146
		c0.146,0.234,0.06,0.559-0.176,0.704C103.188,142.356,102.867,142.298,102.72,142.063L102.72,142.063z"/>
	<path fill="#0072BC" d="M103.659,141.828c-0.146-0.234-0.088-0.558,0.146-0.704s0.528-0.088,0.676,0.146
		c0.146,0.234,0.088,0.527-0.146,0.676C104.129,142.122,103.806,142.034,103.659,141.828L103.659,141.828z"/>
	<path fill="#0072BC" d="M102.104,138.217c-0.207-0.293-0.117-0.704,0.176-0.909c0.322-0.177,0.705-0.089,0.91,0.205
		c0.205,0.293,0.117,0.704-0.176,0.91C102.69,138.628,102.278,138.54,102.104,138.217L102.104,138.217z"/>
	<path fill="#0072BC" d="M102.074,137.308c-0.323-0.471-0.177-1.115,0.293-1.438c0.47-0.294,1.116-0.177,1.438,0.294
		c0.293,0.47,0.176,1.115-0.293,1.438C103.042,137.924,102.397,137.776,102.074,137.308L102.074,137.308z"/>
	<path fill="#0072BC" d="M105.92,139.215c-0.264-0.381-0.176-0.88,0.206-1.146c0.354-0.264,0.881-0.176,1.145,0.207
		c0.266,0.381,0.178,0.88-0.205,1.145C106.685,139.687,106.185,139.599,105.92,139.215L105.92,139.215z"/>
	<path fill="#0072BC" d="M106.419,139.687c-0.322-0.472-0.205-1.117,0.234-1.439c0.471-0.322,1.117-0.205,1.438,0.266
		c0.323,0.469,0.206,1.114-0.264,1.438C107.39,140.272,106.742,140.155,106.419,139.687L106.419,139.687z"/>
	<path fill="#0072BC" d="M109.12,141.888c-0.293-0.41-0.176-0.97,0.234-1.263c0.412-0.294,0.998-0.206,1.293,0.205
		c0.293,0.44,0.176,0.998-0.235,1.292C110.002,142.416,109.414,142.327,109.12,141.888L109.12,141.888z"/>
	<path fill="#0072BC" d="M109.708,140.597c-0.206-0.324-0.146-0.705,0.146-0.939c0.293-0.206,0.705-0.118,0.91,0.176
		s0.146,0.704-0.146,0.91C110.324,140.947,109.913,140.89,109.708,140.597L109.708,140.597z"/>
	<path fill="#0072BC" d="M110.324,140.508c-0.265-0.382-0.177-0.909,0.206-1.204c0.382-0.265,0.91-0.177,1.174,0.205
		c0.294,0.383,0.206,0.91-0.176,1.176C111.146,140.978,110.618,140.89,110.324,140.508L110.324,140.508z"/>
	<path fill="#0072BC" d="M109.354,135.927c-0.146-0.205-0.117-0.499,0.088-0.646c0.236-0.146,0.5-0.089,0.677,0.116
		c0.146,0.205,0.088,0.5-0.117,0.646C109.796,136.19,109.502,136.133,109.354,135.927L109.354,135.927z"/>
	<path fill="#0072BC" d="M108.621,134.724c-0.265-0.353-0.177-0.852,0.177-1.115c0.354-0.265,0.822-0.176,1.086,0.176
		c0.266,0.353,0.178,0.852-0.176,1.115C109.354,135.135,108.856,135.075,108.621,134.724L108.621,134.724z"/>
	<path fill="#0072BC" d="M111.91,139.099c-0.265-0.383-0.177-0.882,0.176-1.115c0.353-0.266,0.853-0.207,1.116,0.176
		c0.264,0.353,0.176,0.852-0.178,1.115C112.673,139.509,112.174,139.45,111.91,139.099L111.91,139.099z"/>
	<path fill="#0072BC" d="M111.146,137.276c-0.176-0.233-0.117-0.586,0.117-0.733c0.266-0.176,0.588-0.146,0.764,0.118
		c0.177,0.234,0.117,0.558-0.116,0.732C111.675,137.571,111.321,137.513,111.146,137.276L111.146,137.276z"/>
	<path fill="#0072BC" d="M112.438,138.364c-0.235-0.323-0.146-0.734,0.146-0.971c0.323-0.233,0.733-0.146,0.97,0.147
		c0.205,0.322,0.146,0.733-0.146,0.969C113.084,138.716,112.673,138.657,112.438,138.364L112.438,138.364z"/>
	<path fill="#0072BC" d="M110.794,134.753c-0.205-0.294-0.146-0.676,0.146-0.911c0.265-0.204,0.676-0.116,0.881,0.147
		c0.205,0.294,0.146,0.703-0.146,0.91C111.382,135.104,111,135.046,110.794,134.753L110.794,134.753z"/>
	<path fill="#0072BC" d="M108.681,132.462c-0.353-0.47-0.234-1.115,0.205-1.468c0.471-0.322,1.116-0.234,1.469,0.235
		c0.322,0.47,0.234,1.114-0.234,1.438C109.649,133.021,109.003,132.903,108.681,132.462L108.681,132.462z"/>
	<path fill="#0072BC" d="M111.528,135.81c-0.235-0.322-0.178-0.764,0.146-0.998c0.353-0.234,0.793-0.177,1.028,0.146
		c0.234,0.323,0.176,0.793-0.146,1.027C112.203,136.222,111.763,136.133,111.528,135.81L111.528,135.81z"/>
	<path fill="#0072BC" d="M112.967,136.661c-0.176-0.235-0.116-0.559,0.117-0.734c0.235-0.176,0.56-0.117,0.733,0.118
		c0.177,0.233,0.117,0.558-0.116,0.733C113.466,136.955,113.144,136.896,112.967,136.661L112.967,136.661z"/>
	<path fill="#0072BC" d="M111.91,135.135c-0.294-0.382-0.206-0.94,0.176-1.204c0.411-0.294,0.938-0.205,1.233,0.176
		c0.264,0.383,0.176,0.939-0.207,1.205C112.731,135.604,112.174,135.517,111.91,135.135L111.91,135.135z"/>
	<path fill="#0072BC" d="M113.644,137.248c-0.266-0.353-0.178-0.853,0.176-1.115c0.353-0.265,0.852-0.177,1.115,0.177
		c0.265,0.353,0.176,0.852-0.177,1.115S113.906,137.601,113.644,137.248L113.644,137.248z"/>
	<path fill="#0072BC" d="M110.002,131.405c-0.265-0.323-0.177-0.822,0.177-1.057c0.321-0.266,0.821-0.178,1.086,0.146
		c0.234,0.353,0.176,0.853-0.177,1.087C110.735,131.847,110.235,131.758,110.002,131.405L110.002,131.405z"/>
	<path fill="#0072BC" d="M112.644,133.461c-0.352-0.47-0.233-1.087,0.207-1.409c0.439-0.322,1.086-0.234,1.408,0.234
		c0.323,0.439,0.206,1.057-0.234,1.38C113.583,133.989,112.967,133.901,112.644,133.461L112.644,133.461z"/>
	<path fill="#0072BC" d="M116.843,135.985c-0.322-0.471-0.234-1.146,0.234-1.497c0.47-0.323,1.146-0.235,1.498,0.235
		c0.354,0.498,0.234,1.145-0.235,1.496C117.871,136.572,117.194,136.455,116.843,135.985L116.843,135.985z"/>
	<path fill="#0072BC" d="M117.312,134.782c-0.177-0.206-0.117-0.529,0.117-0.676c0.205-0.176,0.528-0.117,0.705,0.088
		c0.146,0.234,0.117,0.559-0.117,0.705C117.782,135.075,117.487,135.017,117.312,134.782L117.312,134.782z"/>
	<path fill="#0072BC" d="M117.899,135.604c-0.176-0.234-0.117-0.588,0.117-0.764c0.265-0.177,0.588-0.117,0.764,0.117
		c0.205,0.234,0.146,0.587-0.117,0.764C118.429,135.897,118.076,135.839,117.899,135.604L117.899,135.604z"/>
	<path fill="#0072BC" d="M114.815,130.583c-0.233-0.322-0.176-0.764,0.146-0.998c0.323-0.234,0.793-0.176,1.028,0.146
		c0.233,0.322,0.176,0.793-0.177,1.027C115.492,130.994,115.052,130.937,114.815,130.583L114.815,130.583z"/>
	<path fill="#0072BC" d="M117.226,133.813c-0.266-0.383-0.178-0.91,0.205-1.176c0.353-0.265,0.881-0.205,1.174,0.176
		c0.265,0.383,0.177,0.91-0.205,1.205C118.046,134.283,117.519,134.194,117.226,133.813L117.226,133.813z"/>
	<path fill="#0072BC" d="M114.142,128.763c-0.322-0.47-0.234-1.086,0.234-1.438c0.439-0.323,1.087-0.205,1.409,0.234
		c0.323,0.439,0.235,1.086-0.234,1.409C115.11,129.319,114.465,129.203,114.142,128.763L114.142,128.763z"/>
	<path fill="#0072BC" d="M118.868,130.817c-0.146-0.176-0.088-0.41,0.061-0.527c0.176-0.118,0.409-0.089,0.557,0.088
		c0.117,0.146,0.089,0.411-0.088,0.528C119.222,131.022,118.985,130.994,118.868,130.817L118.868,130.817z"/>
	<path fill="#0072BC" d="M116.079,126.737c-0.117-0.178-0.088-0.411,0.088-0.56c0.177-0.116,0.411-0.088,0.559,0.089
		c0.117,0.176,0.088,0.411-0.088,0.559C116.461,126.942,116.196,126.913,116.079,126.737L116.079,126.737z"/>
	<path fill="#0072BC" d="M120.718,132.962c-0.322-0.47-0.234-1.115,0.235-1.439c0.44-0.321,1.086-0.233,1.409,0.235
		c0.353,0.44,0.234,1.086-0.205,1.409C121.688,133.521,121.041,133.401,120.718,132.962L120.718,132.962z"/>
	<path fill="#0072BC" d="M118.046,127.911c-0.322-0.471-0.234-1.145,0.235-1.497c0.499-0.323,1.145-0.235,1.497,0.233
		c0.353,0.5,0.234,1.146-0.234,1.498C119.075,128.498,118.397,128.381,118.046,127.911L118.046,127.911z"/>
	<path fill="#0072BC" d="M117.576,125.592c-0.234-0.323-0.146-0.793,0.206-1.026c0.322-0.235,0.793-0.147,1.027,0.176
		c0.234,0.353,0.176,0.822-0.177,1.058C118.281,126.032,117.812,125.944,117.576,125.592L117.576,125.592z"/>
	<path fill="#0072BC" d="M119.866,126.854c-0.293-0.44-0.205-1.027,0.234-1.321c0.412-0.294,1.027-0.206,1.321,0.233
		c0.294,0.411,0.206,1.028-0.235,1.321C120.747,127.383,120.16,127.295,119.866,126.854L119.866,126.854z"/>
	<path fill="#0072BC" d="M119.866,125.151c-0.293-0.44-0.176-1.027,0.234-1.352c0.44-0.294,1.027-0.176,1.352,0.235
		c0.294,0.44,0.177,1.026-0.234,1.35C120.776,125.681,120.188,125.592,119.866,125.151L119.866,125.151z"/>
	<path fill="#0072BC" d="M124.153,128.028c-0.295-0.439-0.176-1.057,0.265-1.351c0.438-0.294,1.058-0.177,1.351,0.265
		c0.293,0.439,0.176,1.057-0.265,1.351S124.446,128.469,124.153,128.028L124.153,128.028z"/>
	<path fill="#0072BC" d="M124.976,127.853c-0.205-0.321-0.117-0.764,0.205-0.969c0.323-0.205,0.734-0.117,0.939,0.176
		c0.234,0.323,0.146,0.765-0.176,0.971C125.621,128.233,125.21,128.146,124.976,127.853L124.976,127.853z"/>
	<path fill="#0072BC" d="M126.354,127.882c-0.265-0.41-0.176-0.939,0.235-1.203c0.411-0.265,0.938-0.177,1.203,0.234
		c0.265,0.382,0.177,0.939-0.233,1.204C127.179,128.381,126.619,128.293,126.354,127.882L126.354,127.882z"/>
	<path fill="#0072BC" d="M123.302,122.86c-0.264-0.381-0.146-0.938,0.235-1.203c0.411-0.264,0.938-0.146,1.203,0.234
		c0.294,0.411,0.177,0.939-0.234,1.203C124.124,123.36,123.597,123.272,123.302,122.86L123.302,122.86z"/>
	<path fill="#0072BC" d="M126.854,127.235c-0.235-0.322-0.146-0.793,0.205-1.026c0.353-0.235,0.821-0.147,1.058,0.205
		c0.233,0.323,0.146,0.793-0.205,1.026C127.56,127.677,127.09,127.589,126.854,127.235L126.854,127.235z"/>
	<path fill="#0072BC" d="M124.065,121.274c-0.207-0.321-0.117-0.732,0.205-0.909c0.293-0.205,0.705-0.117,0.91,0.177
		c0.176,0.322,0.117,0.732-0.205,0.91C124.683,121.657,124.271,121.569,124.065,121.274L124.065,121.274z"/>
	<path fill="#0072BC" d="M125.271,122.421c-0.147-0.205-0.09-0.47,0.117-0.587c0.204-0.146,0.469-0.088,0.615,0.117
		c0.117,0.205,0.059,0.47-0.117,0.616C125.681,122.687,125.388,122.626,125.271,122.421L125.271,122.421z"/>
	<path fill="#0072BC" d="M127.677,126.913c-0.294-0.471-0.176-1.086,0.295-1.38c0.469-0.294,1.086-0.177,1.408,0.294
		c0.293,0.47,0.176,1.086-0.294,1.38C128.616,127.53,128,127.383,127.677,126.913L127.677,126.913z"/>
	<path fill="#0072BC" d="M126.708,122.187c-0.234-0.41-0.117-0.939,0.294-1.203c0.381-0.235,0.91-0.118,1.174,0.293
		c0.234,0.382,0.117,0.939-0.264,1.175C127.501,122.715,126.972,122.567,126.708,122.187L126.708,122.187z"/>
	<path fill="#0072BC" d="M128.587,122.715c-0.266-0.44-0.117-0.999,0.294-1.233c0.438-0.265,0.998-0.146,1.231,0.295
		c0.266,0.439,0.117,0.969-0.293,1.231C129.38,123.272,128.821,123.126,128.587,122.715L128.587,122.715z"/>
	<path fill="#0072BC" d="M127.735,120.483c-0.205-0.383-0.088-0.853,0.265-1.059c0.353-0.205,0.821-0.088,1.058,0.266
		c0.205,0.353,0.088,0.822-0.266,1.057C128.41,120.953,127.94,120.836,127.735,120.483L127.735,120.483z"/>
	<path fill="#0072BC" d="M131.112,124.976c-0.206-0.353-0.09-0.822,0.264-1.027s0.793-0.088,1.027,0.265
		c0.205,0.353,0.089,0.793-0.264,1.027C131.787,125.444,131.317,125.327,131.112,124.976L131.112,124.976z"/>
	<path fill="#0072BC" d="M129.263,120.718c-0.234-0.382-0.117-0.91,0.293-1.145c0.383-0.235,0.881-0.09,1.146,0.293
		c0.234,0.382,0.088,0.91-0.294,1.146C129.996,121.246,129.497,121.129,129.263,120.718L129.263,120.718z"/>
	<path fill="#0072BC" d="M133.461,124.447c-0.117-0.206-0.06-0.47,0.146-0.589c0.235-0.146,0.5-0.059,0.617,0.146
		c0.117,0.206,0.06,0.5-0.146,0.617C133.843,124.74,133.578,124.683,133.461,124.447L133.461,124.447z"/>
	<path fill="#0072BC" d="M129.731,117.812c-0.117-0.177-0.06-0.41,0.117-0.527c0.205-0.09,0.411-0.03,0.528,0.146
		c0.117,0.176,0.029,0.41-0.147,0.498C130.056,118.046,129.819,117.987,129.731,117.812L129.731,117.812z"/>
	<path fill="#0072BC" d="M132.521,121.628c-0.146-0.264-0.059-0.615,0.234-0.764c0.266-0.176,0.617-0.059,0.764,0.205
		c0.176,0.295,0.06,0.646-0.205,0.793C133.021,122.01,132.668,121.922,132.521,121.628L132.521,121.628z"/>
	<path fill="#0072BC" d="M131.815,118.78c-0.176-0.266-0.059-0.646,0.235-0.793c0.265-0.176,0.646-0.06,0.792,0.234
		c0.178,0.264,0.061,0.646-0.234,0.793C132.345,119.19,131.964,119.074,131.815,118.78L131.815,118.78z"/>
	<path fill="#0072BC" d="M131.082,116.931c-0.265-0.529-0.088-1.146,0.411-1.438c0.5-0.293,1.146-0.089,1.439,0.411
		c0.264,0.498,0.088,1.146-0.412,1.438C132.022,117.604,131.376,117.431,131.082,116.931L131.082,116.931z"/>
	<path fill="#0072BC" d="M131.699,116.521c-0.117-0.178-0.029-0.412,0.146-0.528c0.206-0.118,0.44-0.029,0.559,0.146
		c0.089,0.205,0.029,0.44-0.176,0.559C132.052,116.783,131.815,116.726,131.699,116.521L131.699,116.521z"/>
	<path fill="#0072BC" d="M132.813,118.104c-0.264-0.471-0.088-1.027,0.383-1.293c0.47-0.233,1.058-0.059,1.291,0.412
		c0.236,0.469,0.06,1.027-0.381,1.291C133.638,118.751,133.05,118.574,132.813,118.104L132.813,118.104z"/>
	<path fill="#0072BC" d="M134.812,118.663c-0.177-0.294-0.059-0.705,0.266-0.881c0.322-0.147,0.703-0.029,0.88,0.293
		c0.177,0.294,0.06,0.705-0.265,0.881C135.369,119.104,134.987,118.985,134.812,118.663L134.812,118.663z"/>
	<path fill="#0072BC" d="M134.665,116.401c-0.266-0.528-0.061-1.146,0.439-1.408c0.528-0.266,1.146-0.061,1.41,0.47
		c0.264,0.499,0.059,1.115-0.471,1.38C135.545,117.106,134.929,116.901,134.665,116.401L134.665,116.401z"/>
	<path fill="#0072BC" d="M139.392,121.599c-0.088-0.205,0-0.41,0.176-0.527c0.178-0.088,0.412,0,0.5,0.176
		c0.088,0.206,0.029,0.411-0.176,0.529C139.715,121.862,139.479,121.774,139.392,121.599L139.392,121.599z"/>
	<path fill="#0072BC" d="M137.071,117.987c-0.233-0.471-0.028-1.057,0.441-1.293c0.498-0.204,1.057-0.028,1.291,0.471
		c0.234,0.47,0.059,1.059-0.439,1.292C137.896,118.692,137.308,118.485,137.071,117.987L137.071,117.987z"/>
	<path fill="#0072BC" d="M137.659,113.817c-0.117-0.234-0.029-0.527,0.234-0.646c0.234-0.116,0.528,0,0.646,0.235
		c0.088,0.234,0,0.527-0.234,0.646C138.041,114.17,137.748,114.053,137.659,113.817L137.659,113.817z"/>
	<path fill="#0072BC" d="M140.858,119.31c-0.088-0.205,0-0.44,0.178-0.528c0.205-0.089,0.439,0,0.527,0.204
		c0.088,0.178,0,0.412-0.205,0.5C141.183,119.573,140.948,119.483,140.858,119.31L140.858,119.31z"/>
	<path fill="#0072BC" d="M139.744,117.226c-0.235-0.5,0-1.088,0.499-1.322s1.086,0,1.32,0.498c0.234,0.5,0,1.088-0.498,1.322
		C140.565,117.958,139.979,117.724,139.744,117.226L139.744,117.226z"/>
	<path fill="#0072BC" d="M141.771,117.342c-0.117-0.265,0-0.588,0.265-0.704c0.294-0.117,0.587,0,0.705,0.293
		c0.116,0.264,0,0.559-0.265,0.676C142.181,117.724,141.888,117.604,141.771,117.342L141.771,117.342z"/>
	<path fill="#0072BC" d="M142.444,118.312c-0.205-0.5,0.029-1.086,0.529-1.293c0.498-0.205,1.057,0.029,1.262,0.528
		s0,1.058-0.498,1.263C143.237,119.015,142.649,118.81,142.444,118.312L142.444,118.312z"/>
	<path fill="#0072BC" d="M140.597,113.76c-0.178-0.47,0.028-0.997,0.498-1.204c0.471-0.205,1.027,0,1.233,0.471
		c0.176,0.47-0.029,1.026-0.499,1.232C141.358,114.464,140.801,114.229,140.597,113.76L140.597,113.76z"/>
	<path fill="#0072BC" d="M143.269,115.081c-0.119-0.294,0.028-0.646,0.322-0.764c0.293-0.117,0.616,0.029,0.733,0.322
		c0.116,0.293,0,0.616-0.294,0.733C143.708,115.521,143.385,115.374,143.269,115.081L143.269,115.081z"/>
	<path fill="#0072BC" d="M144.472,117.987c-0.146-0.323,0-0.676,0.322-0.822c0.323-0.117,0.705,0.029,0.822,0.354
		c0.117,0.323-0.029,0.676-0.354,0.821C144.94,118.457,144.589,118.312,144.472,117.987L144.472,117.987z"/>
	<path fill="#0072BC" d="M144.001,114.405c-0.146-0.354,0.029-0.764,0.411-0.91c0.353-0.176,0.793,0.029,0.938,0.382
		c0.147,0.382-0.029,0.793-0.41,0.938C144.589,114.963,144.147,114.787,144.001,114.405L144.001,114.405z"/>
	<path fill="#0072BC" d="M143.942,111.353c-0.146-0.412,0.059-0.853,0.47-0.998c0.382-0.177,0.853,0.028,0.999,0.439
		s-0.061,0.852-0.439,0.998C144.56,111.938,144.119,111.763,143.942,111.353L143.942,111.353z"/>
	<path fill="#0072BC" d="M145.499,113.024c-0.178-0.439,0.059-0.938,0.499-1.114c0.44-0.177,0.969,0.028,1.114,0.499
		c0.178,0.439-0.028,0.939-0.498,1.115C146.174,113.701,145.675,113.466,145.499,113.024L145.499,113.024z"/>
	<path fill="#0072BC" d="M147.76,116.196c-0.177-0.471,0.089-0.969,0.558-1.115c0.471-0.178,0.97,0.088,1.117,0.527
		c0.176,0.471-0.09,0.998-0.529,1.146C148.435,116.931,147.906,116.666,147.76,116.196L147.76,116.196z"/>
	<path fill="#0072BC" d="M148.522,115.813c-0.06-0.205,0.06-0.439,0.265-0.527c0.205-0.059,0.44,0.059,0.528,0.265
		c0.088,0.234-0.029,0.47-0.265,0.528C148.847,116.167,148.61,116.05,148.522,115.813L148.522,115.813z"/>
	<path fill="#0072BC" d="M148.729,114.903c-0.06-0.233,0.059-0.469,0.264-0.527c0.206-0.088,0.441,0.029,0.529,0.234
		c0.059,0.234-0.061,0.471-0.266,0.529C149.052,115.228,148.815,115.11,148.729,114.903L148.729,114.903z"/>
	<path fill="#0072BC" d="M148.405,112.585c-0.146-0.382,0.059-0.793,0.439-0.939c0.383-0.117,0.793,0.088,0.939,0.471
		c0.117,0.382-0.088,0.793-0.471,0.939C148.935,113.172,148.522,112.967,148.405,112.585L148.405,112.585z"/>
	<path fill="#0072BC" d="M149.286,111.353c-0.117-0.353,0.059-0.733,0.439-0.853c0.354-0.117,0.734,0.06,0.853,0.44
		c0.116,0.353-0.088,0.733-0.44,0.852S149.403,111.704,149.286,111.353L149.286,111.353z"/>
	<path fill="#0072BC" d="M151.283,116.108c-0.089-0.295,0.088-0.617,0.382-0.705c0.293-0.088,0.616,0.06,0.704,0.353
		c0.088,0.294-0.06,0.617-0.353,0.734C151.724,116.578,151.399,116.401,151.283,116.108L151.283,116.108z"/>
	<path fill="#0072BC" d="M150.843,111.06c-0.059-0.207,0.059-0.383,0.234-0.44c0.206-0.06,0.41,0.059,0.47,0.233
		c0.06,0.207-0.06,0.412-0.264,0.471C151.106,111.381,150.901,111.265,150.843,111.06L150.843,111.06z"/>
	<path fill="#0072BC" d="M151.576,115.403c-0.117-0.471,0.147-0.969,0.616-1.115c0.471-0.118,0.97,0.146,1.115,0.615
		c0.118,0.471-0.146,0.97-0.615,1.117C152.224,116.138,151.724,115.873,151.576,115.403L151.576,115.403z"/>
	<path fill="#0072BC" d="M151.459,113.965c-0.117-0.382,0.117-0.793,0.499-0.909c0.382-0.089,0.793,0.116,0.91,0.527
		c0.117,0.382-0.117,0.793-0.499,0.881C151.987,114.581,151.576,114.347,151.459,113.965L151.459,113.965z"/>
	<path fill="#0072BC" d="M152.135,109.796c-0.089-0.234,0.06-0.47,0.294-0.559c0.234-0.06,0.498,0.089,0.557,0.322
		c0.061,0.235-0.088,0.471-0.321,0.559C152.429,110.178,152.192,110.03,152.135,109.796L152.135,109.796z"/>
	<path fill="#0072BC" d="M153.515,116.079c-0.117-0.471,0.146-0.939,0.616-1.059c0.44-0.117,0.91,0.147,1.058,0.617
		c0.117,0.471-0.176,0.939-0.617,1.057C154.103,116.812,153.632,116.549,153.515,116.079L153.515,116.079z"/>
	<path fill="#0072BC" d="M154.425,114.435c-0.117-0.41,0.146-0.852,0.559-0.969c0.41-0.088,0.852,0.146,0.969,0.559
		c0.088,0.41-0.146,0.852-0.559,0.97C154.981,115.11,154.542,114.847,154.425,114.435L154.425,114.435z"/>
	<path fill="#0072BC" d="M153.983,108.915c-0.06-0.234,0.088-0.471,0.322-0.527c0.207-0.06,0.441,0.088,0.5,0.293
		c0.06,0.234-0.059,0.469-0.293,0.527C154.276,109.269,154.043,109.12,153.983,108.915L153.983,108.915z"/>
	<path fill="#0072BC" d="M154.103,108.504c-0.06-0.353,0.146-0.676,0.469-0.733c0.324-0.088,0.646,0.116,0.705,0.439
		c0.089,0.323-0.117,0.646-0.439,0.734C154.513,109.003,154.188,108.827,154.103,108.504L154.103,108.504z"/>
	<path fill="#0072BC" d="M156.127,113.172c-0.117-0.44,0.177-0.91,0.617-0.998c0.47-0.116,0.909,0.177,1.026,0.616
		c0.088,0.47-0.176,0.911-0.646,1.027C156.687,113.906,156.245,113.642,156.127,113.172L156.127,113.172z"/>
	<path fill="#0072BC" d="M156.099,107.447c-0.06-0.235,0.088-0.472,0.353-0.529c0.235-0.06,0.47,0.089,0.528,0.323
		c0.06,0.234-0.088,0.499-0.322,0.558C156.392,107.828,156.156,107.683,156.099,107.447L156.099,107.447z"/>
	<path fill="#0072BC" d="M157.272,112.673c-0.117-0.527,0.234-1.057,0.764-1.174c0.527-0.118,1.027,0.234,1.145,0.763
		c0.118,0.529-0.233,1.028-0.763,1.146C157.89,113.526,157.39,113.201,157.272,112.673L157.272,112.673z"/>
	<path fill="#0072BC" d="M157.155,109.942c-0.117-0.528,0.205-1.058,0.763-1.174c0.528-0.119,1.058,0.233,1.175,0.763
		c0.117,0.528-0.234,1.058-0.764,1.175C157.771,110.823,157.272,110.472,157.155,109.942L157.155,109.942z"/>
	<path fill="#0072BC" d="M157.302,108.388c-0.088-0.412,0.178-0.822,0.588-0.91s0.821,0.176,0.91,0.586
		c0.088,0.412-0.177,0.822-0.588,0.91S157.39,108.797,157.302,108.388L157.302,108.388z"/>
	<path fill="#0072BC" d="M158.858,114.142c-0.118-0.471,0.205-0.91,0.675-1.027c0.47-0.088,0.909,0.205,1.026,0.676
		c0.09,0.47-0.205,0.939-0.675,1.027C159.416,114.935,158.946,114.61,158.858,114.142L158.858,114.142z"/>
	<path fill="#0072BC" d="M160.062,110.911c-0.059-0.293,0.147-0.587,0.44-0.616c0.323-0.06,0.588,0.146,0.646,0.44
		c0.06,0.293-0.146,0.587-0.439,0.615C160.414,111.41,160.121,111.205,160.062,110.911L160.062,110.911z"/>
	<path fill="#0072BC" d="M161.295,113.112c-0.06-0.352,0.146-0.674,0.499-0.732c0.323-0.061,0.646,0.176,0.705,0.499
		c0.059,0.353-0.146,0.675-0.499,0.733C161.677,113.671,161.354,113.437,161.295,113.112L161.295,113.112z"/>
	<path fill="#0072BC" d="M161.589,111.117c-0.088-0.499,0.264-0.999,0.764-1.087c0.528-0.059,0.998,0.294,1.086,0.793
		c0.088,0.527-0.265,0.998-0.793,1.087C162.146,111.998,161.647,111.646,161.589,111.117L161.589,111.117z"/>
	<path fill="#0072BC" d="M162.353,109.237c-0.088-0.5,0.265-0.938,0.733-1.027c0.47-0.059,0.938,0.266,0.998,0.734
		c0.088,0.498-0.233,0.938-0.733,1.027C162.881,110.03,162.438,109.707,162.353,109.237L162.353,109.237z"/>
	<path fill="#0072BC" d="M163.203,107.888c-0.029-0.205,0.118-0.439,0.323-0.471c0.233-0.027,0.439,0.118,0.47,0.354
		c0.028,0.205-0.117,0.41-0.323,0.47C163.438,108.269,163.231,108.122,163.203,107.888L163.203,107.888z"/>
	<path fill="#0072BC" d="M162.558,105.979c-0.088-0.44,0.234-0.853,0.676-0.91c0.439-0.088,0.852,0.234,0.91,0.676
		c0.088,0.439-0.234,0.852-0.676,0.91C163.026,106.742,162.616,106.448,162.558,105.979L162.558,105.979z"/>
	<path fill="#0072BC" d="M164.906,112.231c-0.029-0.233,0.146-0.469,0.382-0.498c0.234-0.029,0.439,0.146,0.499,0.382
		c0.028,0.233-0.146,0.47-0.382,0.499C165.171,112.644,164.937,112.468,164.906,112.231L164.906,112.231z"/>
	<path fill="#0072BC" d="M164.789,112.996c-0.088-0.558,0.293-1.058,0.853-1.146c0.558-0.06,1.086,0.322,1.145,0.881
		c0.089,0.559-0.293,1.058-0.852,1.146C165.376,113.937,164.849,113.554,164.789,112.996L164.789,112.996z"/>
	<path fill="#0072BC" d="M165.582,110.118c-0.088-0.471,0.265-0.939,0.733-0.998c0.498-0.059,0.938,0.265,0.998,0.764
		c0.088,0.471-0.265,0.939-0.733,0.998C166.081,110.94,165.642,110.618,165.582,110.118L165.582,110.118z"/>
	<path fill="#0072BC" d="M167.726,113.112c-0.029-0.264,0.176-0.527,0.471-0.557c0.264-0.029,0.527,0.176,0.558,0.469
		c0.029,0.266-0.177,0.528-0.47,0.559C168.019,113.612,167.754,113.407,167.726,113.112L167.726,113.112z"/>
	<path fill="#0072BC" d="M167.812,105.949c-0.027-0.234,0.147-0.47,0.383-0.499c0.265-0.029,0.47,0.146,0.5,0.41
		c0.029,0.234-0.147,0.471-0.383,0.5C168.048,106.39,167.812,106.214,167.812,105.949L167.812,105.949z"/>
	<path fill="#0072BC" d="M168.312,107.594c-0.028-0.265,0.176-0.499,0.44-0.528c0.233-0.028,0.47,0.177,0.499,0.412
		c0.029,0.264-0.146,0.498-0.411,0.527S168.342,107.856,168.312,107.594L168.312,107.594z"/>
	<path fill="#0072BC" d="M168.724,109.032c-0.06-0.528,0.322-0.969,0.853-1.027c0.528-0.059,0.969,0.323,1.026,0.852
		c0.029,0.528-0.353,0.97-0.852,1.027C169.224,109.913,168.753,109.531,168.724,109.032L168.724,109.032z"/>
	<path fill="#0072BC" d="M170.222,107.478c-0.029-0.588,0.381-1.088,0.938-1.117c0.587-0.059,1.087,0.354,1.114,0.91
		c0.061,0.588-0.352,1.088-0.938,1.117C170.778,108.444,170.278,108.034,170.222,107.478L170.222,107.478z"/>
	<path fill="#0072BC" d="M170.749,108.239c-0.059-0.528,0.354-0.998,0.881-1.057c0.528-0.06,0.998,0.353,1.027,0.881
		c0.06,0.527-0.322,0.998-0.881,1.026C171.248,109.149,170.778,108.769,170.749,108.239L170.749,108.239z"/>
	<path fill="#0072BC" d="M171.219,108.886c-0.028-0.382,0.265-0.734,0.646-0.764c0.409-0.029,0.733,0.266,0.792,0.646
		c0.029,0.381-0.264,0.732-0.676,0.763C171.601,109.59,171.248,109.297,171.219,108.886L171.219,108.886z"/>
	<path fill="#0072BC" d="M171.542,107.358c-0.029-0.588,0.439-1.086,1.027-1.115c0.558-0.029,1.058,0.41,1.087,0.998
		c0.028,0.587-0.411,1.087-0.999,1.115C172.069,108.388,171.601,107.946,171.542,107.358L171.542,107.358z"/>
	<path fill="#0072BC" d="M172.628,110.5c-0.029-0.205,0.146-0.353,0.323-0.382c0.206,0,0.382,0.146,0.382,0.354
		c0.029,0.205-0.146,0.381-0.323,0.381C172.806,110.853,172.628,110.706,172.628,110.5L172.628,110.5z"/>
	<path fill="#0072BC" d="M172.717,106.89c-0.03-0.44,0.322-0.822,0.763-0.853c0.471-0.029,0.853,0.323,0.881,0.764
		c0,0.44-0.322,0.822-0.791,0.853C173.127,107.683,172.746,107.329,172.717,106.89L172.717,106.89z"/>
	<path fill="#0072BC" d="M174.243,112.497c-0.029-0.559,0.41-1.027,0.969-1.027c0.559-0.029,1.027,0.41,1.027,0.969
		c0.029,0.559-0.411,0.998-0.969,1.027C174.712,113.495,174.272,113.056,174.243,112.497L174.243,112.497z"/>
	<path fill="#0072BC" d="M175.183,111.91c0-0.44,0.323-0.793,0.764-0.822c0.441-0.028,0.822,0.322,0.822,0.765
		c0.029,0.438-0.322,0.791-0.764,0.82C175.563,112.673,175.212,112.351,175.183,111.91L175.183,111.91z"/>
	<path fill="#0072BC" d="M174.978,105.216c-0.028-0.559,0.44-1.058,1.027-1.087c0.587-0.028,1.057,0.44,1.086,1.028
		c0.029,0.587-0.439,1.057-1.027,1.086C175.478,106.272,175.007,105.803,174.978,105.216L174.978,105.216z"/>
	<path fill="#0072BC" d="M177.385,112.468c0-0.265,0.205-0.47,0.47-0.499c0.266,0,0.471,0.205,0.471,0.47s-0.205,0.471-0.471,0.471
		C177.62,112.938,177.385,112.731,177.385,112.468L177.385,112.468z"/>
	<path fill="#0072BC" d="M178.06,111.763c0-0.353,0.235-0.615,0.56-0.615c0.353,0,0.616,0.264,0.616,0.586
		c0,0.324-0.266,0.588-0.588,0.588C178.324,112.351,178.06,112.086,178.06,111.763L178.06,111.763z"/>
	<path fill="#0072BC" d="M178.735,106.126c-0.029-0.411,0.293-0.734,0.703-0.734c0.383,0,0.705,0.295,0.705,0.705
		c0.029,0.381-0.293,0.704-0.705,0.704C179.06,106.83,178.735,106.507,178.735,106.126L178.735,106.126z"/>
	<path fill="#0072BC" d="M179.233,107.888c0-0.41,0.354-0.793,0.765-0.793c0.062,0,0.119,0.008,0.176,0.02v1.523
		c-0.048,0.008-0.097,0.014-0.146,0.014C179.616,108.681,179.265,108.328,179.233,107.888L179.233,107.888z"/>
	<path fill="#0072BC" d="M179.938,106.858c0-0.24,0.088-0.465,0.234-0.644v1.332C180.017,107.358,179.926,107.115,179.938,106.858
		L179.938,106.858z"/>
	<path fill="#F7941E" d="M12.582,135.562c0.741,0.448,0.993,1.401,0.558,2.155c-0.14,0.252-0.333,0.451-0.558,0.589V135.562
		L12.582,135.562z"/>
	<path fill="#F7941E" d="M14.608,135.397c0.382-0.674,1.233-0.881,1.908-0.498c0.646,0.382,0.881,1.232,0.499,1.908
		c-0.381,0.676-1.233,0.881-1.908,0.498C14.432,136.924,14.197,136.073,14.608,135.397L14.608,135.397z"/>
	<path fill="#F7941E" d="M16.957,136.222c0.382-0.646,1.204-0.91,1.85-0.529c0.675,0.354,0.91,1.175,0.528,1.851
		c-0.353,0.646-1.174,0.881-1.85,0.528C16.839,137.718,16.604,136.866,16.957,136.222L16.957,136.222z"/>
	<path fill="#F7941E" d="M16.604,139.01c0.47-0.852,1.557-1.175,2.437-0.704c0.852,0.5,1.175,1.586,0.676,2.438
		c-0.47,0.881-1.556,1.174-2.437,0.704C16.428,140.978,16.105,139.892,16.604,139.01L16.604,139.01z"/>
	<path fill="#F7941E" d="M19.922,141.358c0.293-0.588,0.998-0.793,1.556-0.528c0.558,0.294,0.793,0.998,0.499,1.558
		c-0.293,0.557-0.969,0.791-1.526,0.498C19.863,142.592,19.658,141.916,19.922,141.358L19.922,141.358z"/>
	<path fill="#F7941E" d="M22.388,138.979c0.5-1.057,1.792-1.496,2.848-0.969c1.057,0.499,1.498,1.791,0.969,2.848
		c-0.5,1.058-1.792,1.498-2.848,0.97C22.3,141.329,21.86,140.037,22.388,138.979L22.388,138.979z"/>
	<path fill="#F7941E" d="M25.765,142.327c0.293-0.646,1.057-0.939,1.703-0.616c0.646,0.294,0.91,1.058,0.617,1.703
		s-1.057,0.91-1.703,0.616C25.735,143.737,25.471,142.974,25.765,142.327L25.765,142.327z"/>
	<path fill="#F7941E" d="M25.647,146.174c0.382-0.852,1.409-1.202,2.261-0.821c0.852,0.41,1.233,1.408,0.822,2.289
		c-0.382,0.853-1.409,1.204-2.261,0.822C25.618,148.053,25.236,147.056,25.647,146.174L25.647,146.174z"/>
	<path fill="#F7941E" d="M30.257,143.796c0.353-0.852,1.322-1.232,2.173-0.881c0.852,0.354,1.233,1.32,0.881,2.173
		s-1.321,1.231-2.172,0.881C30.287,145.616,29.905,144.618,30.257,143.796L30.257,143.796z"/>
	<path fill="#F7941E" d="M30.697,146.438c0.441-1.028,1.645-1.527,2.701-1.088c1.057,0.44,1.557,1.674,1.116,2.701
		c-0.47,1.059-1.673,1.557-2.73,1.116C30.727,148.699,30.257,147.495,30.697,146.438L30.697,146.438z"/>
	<path fill="#F7941E" d="M34.162,146.967c0.206-0.558,0.822-0.821,1.38-0.616s0.822,0.821,0.617,1.381
		c-0.206,0.558-0.822,0.82-1.38,0.615C34.221,148.142,33.927,147.524,34.162,146.967L34.162,146.967z"/>
	<path fill="#F7941E" d="M35.748,144.677c0.411-1.027,1.527-1.527,2.555-1.146c1.027,0.382,1.526,1.526,1.145,2.555
		c-0.382,1.026-1.527,1.526-2.555,1.146C35.865,146.819,35.366,145.675,35.748,144.677L35.748,144.677z"/>
	<path fill="#F7941E" d="M37.333,148.582c0.264-0.793,1.116-1.204,1.909-0.94c0.822,0.266,1.233,1.146,0.969,1.938
		c-0.293,0.792-1.145,1.233-1.938,0.938C37.48,150.255,37.04,149.374,37.333,148.582L37.333,148.582z"/>
	<path fill="#F7941E" d="M39.917,147.612c0.293-0.822,1.174-1.262,1.996-0.998c0.822,0.294,1.263,1.175,0.999,1.996
		c-0.293,0.822-1.174,1.263-1.997,0.998C40.093,149.315,39.653,148.405,39.917,147.612L39.917,147.612z"/>
	<path fill="#F7941E" d="M41.18,151.604c0.176-0.615,0.851-0.998,1.468-0.791c0.646,0.205,0.998,0.851,0.792,1.496
		c-0.176,0.616-0.851,0.969-1.468,0.793C41.326,152.897,40.974,152.252,41.18,151.604L41.18,151.604z"/>
	<path fill="#F7941E" d="M43.763,147.466c0.235-0.705,0.998-1.115,1.703-0.881c0.734,0.205,1.116,0.969,0.91,1.674
		c-0.234,0.733-0.998,1.145-1.703,0.91C43.969,148.963,43.558,148.2,43.763,147.466L43.763,147.466z"/>
	<path fill="#F7941E" d="M43.969,151.752c0.293-0.969,1.292-1.526,2.261-1.262c0.969,0.293,1.527,1.292,1.233,2.261
		c-0.265,0.939-1.263,1.497-2.231,1.232C44.262,153.72,43.705,152.692,43.969,151.752L43.969,151.752z"/>
	<path fill="#F7941E" d="M47.287,148.552c0.264-1.057,1.351-1.701,2.408-1.438c1.086,0.265,1.732,1.351,1.468,2.406
		c-0.264,1.088-1.351,1.732-2.437,1.47C47.668,150.726,47.022,149.64,47.287,148.552L47.287,148.552z"/>
	<path fill="#F7941E" d="M49.694,149.492c0.206-0.91,1.086-1.498,1.996-1.292c0.881,0.205,1.468,1.086,1.292,1.996
		c-0.206,0.881-1.086,1.468-1.997,1.263C50.076,151.283,49.489,150.401,49.694,149.492L49.694,149.492z"/>
	<path fill="#F7941E" d="M52.014,154.103c0.117-0.646,0.734-1.058,1.38-0.939s1.057,0.704,0.939,1.352
		c-0.088,0.646-0.705,1.086-1.351,0.969S51.896,154.747,52.014,154.103L52.014,154.103z"/>
	<path fill="#F7941E" d="M53.511,151.224c0.176-0.998,1.116-1.673,2.114-1.525c0.998,0.176,1.674,1.115,1.497,2.085
		c-0.146,0.998-1.086,1.702-2.084,1.526C54.04,153.162,53.364,152.224,53.511,151.224L53.511,151.224z"/>
	<path fill="#F7941E" d="M56.594,152.545c0.088-1.058,0.998-1.819,2.026-1.731c1.057,0.088,1.82,0.998,1.732,2.056
		c-0.088,1.026-1.027,1.791-2.055,1.703C57.269,154.483,56.477,153.573,56.594,152.545L56.594,152.545z"/>
	<path fill="#F7941E" d="M59.178,152.224c0.029-0.91,0.822-1.646,1.732-1.615c0.91,0.029,1.644,0.793,1.615,1.731
		c-0.029,0.91-0.822,1.644-1.732,1.615C59.882,153.925,59.148,153.133,59.178,152.224L59.178,152.224z"/>
	<path fill="#F7941E" d="M62.818,154.454c-0.029-0.734,0.558-1.352,1.292-1.352c0.734,0,1.351,0.559,1.351,1.291
		c0,0.734-0.558,1.352-1.292,1.352C63.435,155.774,62.818,155.188,62.818,154.454L62.818,154.454z"/>
	<path fill="#F7941E" d="M64.697,150.842c-0.029-0.733,0.558-1.35,1.292-1.38c0.734-0.027,1.351,0.559,1.38,1.292
		c0.03,0.733-0.558,1.351-1.292,1.38C65.343,152.163,64.727,151.576,64.697,150.842L64.697,150.842z"/>
	<path fill="#F7941E" d="M66.166,152.397c-0.088-0.938,0.646-1.762,1.585-1.819c0.969-0.088,1.791,0.646,1.85,1.585
		c0.059,0.97-0.646,1.792-1.615,1.852C67.046,154.072,66.225,153.367,66.166,152.397L66.166,152.397z"/>
	<path fill="#F7941E" d="M68.955,153.104c-0.117-1.146,0.734-2.174,1.85-2.291c1.145-0.117,2.173,0.705,2.29,1.85
		c0.117,1.146-0.705,2.173-1.85,2.291C70.1,155.069,69.102,154.219,68.955,153.104L68.955,153.104z"/>
	<path fill="#F7941E" d="M73.242,154.571c-0.147-0.881,0.47-1.703,1.321-1.85c0.88-0.146,1.703,0.469,1.85,1.351
		c0.146,0.852-0.47,1.673-1.321,1.819C74.21,156.039,73.388,155.452,73.242,154.571L73.242,154.571z"/>
	<path fill="#F7941E" d="M75.649,154.336c-0.206-0.969,0.44-1.908,1.41-2.112c0.969-0.178,1.908,0.469,2.114,1.438
		c0.176,0.969-0.44,1.908-1.439,2.113C76.765,155.951,75.825,155.306,75.649,154.336L75.649,154.336z"/>
	<path fill="#F7941E" d="M77.235,149.933c-0.176-0.733,0.293-1.469,1.027-1.615c0.734-0.176,1.468,0.266,1.615,0.998
		c0.176,0.734-0.293,1.469-0.998,1.646C78.145,151.106,77.411,150.666,77.235,149.933L77.235,149.933z"/>
	<path fill="#F7941E" d="M79.701,152.956c-0.146-0.587,0.235-1.204,0.822-1.352c0.617-0.146,1.233,0.207,1.38,0.822
		c0.146,0.588-0.235,1.204-0.823,1.352C80.464,153.925,79.877,153.573,79.701,152.956L79.701,152.956z"/>
	<path fill="#F7941E" d="M80.699,152.839c-0.323-1.115,0.323-2.261,1.409-2.584c1.116-0.322,2.261,0.323,2.584,1.438
		c0.323,1.088-0.323,2.231-1.439,2.556C82.167,154.571,81.022,153.925,80.699,152.839L80.699,152.839z"/>
	<path fill="#F7941E" d="M83.753,147.965c-0.294-0.821,0.146-1.703,0.969-1.967c0.822-0.294,1.703,0.146,1.967,0.969
		c0.293,0.793-0.147,1.703-0.969,1.968C84.927,149.228,84.017,148.787,83.753,147.965L83.753,147.965z"/>
	<path fill="#F7941E" d="M87.423,150.842c-0.411-0.998,0.088-2.112,1.116-2.495c0.998-0.382,2.114,0.117,2.525,1.115
		c0.382,0.999-0.117,2.145-1.145,2.525C88.92,152.369,87.805,151.87,87.423,150.842L87.423,150.842z"/>
	<path fill="#F7941E" d="M87.746,146.819c-0.47-1.057,0-2.319,1.086-2.789c1.057-0.471,2.29,0,2.79,1.087
		c0.47,1.057-0.029,2.29-1.086,2.76C89.478,148.376,88.216,147.877,87.746,146.819L87.746,146.819z"/>
	<path fill="#F7941E" d="M91.328,145.146c-0.411-0.793-0.088-1.762,0.705-2.172c0.793-0.412,1.762-0.089,2.173,0.703
		c0.411,0.793,0.088,1.762-0.705,2.174C92.708,146.262,91.739,145.938,91.328,145.146L91.328,145.146z"/>
	<path fill="#F7941E" d="M94.998,145.233c-0.294-0.527-0.088-1.203,0.44-1.496c0.558-0.266,1.204-0.061,1.497,0.47
		c0.295,0.528,0.09,1.203-0.469,1.497C95.938,145.969,95.292,145.763,94.998,145.233L94.998,145.233z"/>
	<path fill="#F7941E" d="M96.319,144.207c-0.353-0.646-0.117-1.468,0.499-1.82c0.646-0.353,1.468-0.118,1.82,0.528
		c0.354,0.646,0.117,1.438-0.498,1.791C97.494,145.088,96.672,144.853,96.319,144.207L96.319,144.207z"/>
	<path fill="#F7941E" d="M98.315,144.06c-0.381-0.703-0.146-1.556,0.528-1.967c0.704-0.382,1.556-0.146,1.968,0.528
		c0.381,0.676,0.146,1.557-0.528,1.968C99.606,144.972,98.728,144.735,98.315,144.06L98.315,144.06z"/>
	<path fill="#F7941E" d="M100.431,143.619c-0.588-0.938-0.295-2.173,0.646-2.761c0.938-0.586,2.172-0.293,2.76,0.646
		c0.587,0.91,0.293,2.172-0.646,2.76C102.25,144.853,101.017,144.56,100.431,143.619L100.431,143.619z"/>
	<path fill="#F7941E" d="M103.806,143.59c-0.615-0.909-0.352-2.144,0.588-2.729c0.91-0.616,2.114-0.353,2.73,0.559
		c0.587,0.939,0.322,2.143-0.587,2.76C105.627,144.765,104.394,144.5,103.806,143.59L103.806,143.59z"/>
	<path fill="#F7941E" d="M107.065,141.535c-0.383-0.558-0.235-1.321,0.293-1.703c0.559-0.382,1.322-0.233,1.703,0.294
		c0.381,0.559,0.234,1.32-0.293,1.702C108.21,142.21,107.446,142.063,107.065,141.535L107.065,141.535z"/>
	<path fill="#F7941E" d="M106.565,136.543c-0.322-0.47-0.205-1.174,0.295-1.497c0.47-0.354,1.145-0.234,1.496,0.266
		c0.353,0.498,0.234,1.174-0.265,1.496C107.594,137.16,106.919,137.043,106.565,136.543L106.565,136.543z"/>
	<path fill="#F7941E" d="M107.74,137.072c-0.646-0.91-0.47-2.145,0.44-2.789c0.881-0.646,2.113-0.47,2.789,0.44
		c0.646,0.879,0.439,2.143-0.439,2.789C109.62,138.158,108.388,137.953,107.74,137.072L107.74,137.072z"/>
	<path fill="#F7941E" d="M111.176,137.924c-0.676-0.938-0.47-2.231,0.47-2.907c0.939-0.675,2.231-0.47,2.908,0.471
		c0.674,0.91,0.469,2.23-0.471,2.906C113.172,139.067,111.853,138.863,111.176,137.924L111.176,137.924z"/>
	<path fill="#F7941E" d="M115.022,136.015c-0.383-0.527-0.266-1.291,0.264-1.673c0.527-0.411,1.292-0.265,1.674,0.265
		c0.382,0.528,0.266,1.291-0.264,1.674C116.167,136.661,115.403,136.543,115.022,136.015L115.022,136.015z"/>
	<path fill="#F7941E" d="M114.171,130.877c-0.354-0.499-0.234-1.204,0.264-1.558c0.5-0.352,1.176-0.233,1.527,0.236
		c0.382,0.498,0.264,1.203-0.234,1.555C115.228,131.464,114.554,131.376,114.171,130.877L114.171,130.877z"/>
	<path fill="#F7941E" d="M116.461,131.435c-0.411-0.558-0.294-1.351,0.265-1.731c0.559-0.411,1.352-0.293,1.731,0.265
		c0.411,0.559,0.294,1.321-0.265,1.732C117.635,132.11,116.872,131.963,116.461,131.435L116.461,131.435z"/>
	<path fill="#F7941E" d="M117.342,130.024c-0.411-0.586-0.294-1.408,0.293-1.85c0.589-0.41,1.41-0.294,1.851,0.293
		c0.412,0.588,0.293,1.41-0.293,1.852C118.604,130.729,117.782,130.612,117.342,130.024L117.342,130.024z"/>
	<path fill="#F7941E" d="M118.575,128.733c-0.471-0.705-0.323-1.674,0.381-2.145c0.705-0.499,1.674-0.322,2.145,0.383
		c0.498,0.676,0.322,1.645-0.383,2.144C120.043,129.614,119.074,129.438,118.575,128.733L118.575,128.733z"/>
	<path fill="#F7941E" d="M121.158,129.497c-0.558-0.793-0.382-1.88,0.411-2.438c0.822-0.559,1.908-0.382,2.467,0.41
		c0.558,0.793,0.354,1.908-0.439,2.467S121.717,130.29,121.158,129.497L121.158,129.497z"/>
	<path fill="#F7941E" d="M122.832,125.709c-0.382-0.587-0.233-1.351,0.323-1.703c0.558-0.381,1.32-0.233,1.701,0.323
		c0.384,0.559,0.235,1.32-0.321,1.703C123.978,126.414,123.214,126.269,122.832,125.709L122.832,125.709z"/>
	<path fill="#F7941E" d="M125.592,126.854c-0.528-0.822-0.293-1.938,0.528-2.496c0.852-0.528,1.938-0.293,2.496,0.528
		c0.527,0.851,0.294,1.938-0.528,2.495C127.267,127.911,126.149,127.677,125.592,126.854L125.592,126.854z"/>
	<path fill="#F7941E" d="M127.53,124.447c-0.411-0.677-0.206-1.558,0.47-1.997c0.675-0.411,1.556-0.205,1.967,0.47
		c0.411,0.677,0.205,1.558-0.44,1.968C128.853,125.327,127.972,125.122,127.53,124.447L127.53,124.447z"/>
	<path fill="#F7941E" d="M130.261,124.212c-0.353-0.587-0.146-1.38,0.44-1.762c0.616-0.354,1.409-0.146,1.762,0.439
		c0.381,0.616,0.177,1.409-0.44,1.762C131.435,125.034,130.642,124.828,130.261,124.212L130.261,124.212z"/>
	<path fill="#F7941E" d="M130.672,121.688c-0.323-0.588-0.147-1.322,0.44-1.646c0.587-0.353,1.32-0.147,1.644,0.44
		c0.323,0.558,0.147,1.32-0.44,1.644C131.729,122.45,130.994,122.245,130.672,121.688L130.672,121.688z"/>
	<path fill="#F7941E" d="M131.229,119.044c-0.323-0.559-0.117-1.232,0.439-1.525c0.527-0.324,1.232-0.117,1.525,0.439
		c0.324,0.527,0.119,1.232-0.439,1.525C132.228,119.808,131.522,119.603,131.229,119.044L131.229,119.044z"/>
	<path fill="#F7941E" d="M133.373,119.778c-0.353-0.704-0.088-1.526,0.587-1.879c0.675-0.383,1.497-0.117,1.879,0.558
		c0.354,0.676,0.088,1.526-0.587,1.879C134.576,120.688,133.726,120.454,133.373,119.778L133.373,119.778z"/>
	<path fill="#F7941E" d="M135.485,120.896c-0.409-0.853-0.088-1.881,0.734-2.291c0.852-0.41,1.85-0.088,2.29,0.733
		c0.411,0.853,0.089,1.851-0.733,2.29C136.926,122.039,135.897,121.716,135.485,120.896L135.485,120.896z"/>
	<path fill="#F7941E" d="M137.63,117.812c-0.264-0.527-0.059-1.175,0.499-1.438c0.528-0.266,1.175-0.03,1.438,0.499
		c0.265,0.528,0.029,1.174-0.5,1.438C138.54,118.574,137.865,118.369,137.63,117.812L137.63,117.812z"/>
	<path fill="#F7941E" d="M138.217,116.754c-0.44-0.938-0.028-2.055,0.911-2.495c0.938-0.41,2.055-0.029,2.495,0.91
		s0.028,2.057-0.91,2.495C139.772,118.104,138.657,117.692,138.217,116.754L138.217,116.754z"/>
	<path fill="#F7941E" d="M142.681,118.428c-0.265-0.646,0.028-1.409,0.704-1.674c0.646-0.293,1.409,0.029,1.675,0.677
		c0.293,0.646-0.029,1.408-0.677,1.702C143.737,119.396,142.974,119.104,142.681,118.428L142.681,118.428z"/>
	<path fill="#F7941E" d="M142.944,112.644c-0.266-0.646,0.059-1.351,0.705-1.615c0.646-0.233,1.379,0.09,1.613,0.734
		c0.235,0.646-0.059,1.352-0.703,1.615C143.913,113.612,143.181,113.29,142.944,112.644L142.944,112.644z"/>
	<path fill="#F7941E" d="M145.91,114.11c-0.206-0.558,0.088-1.174,0.646-1.35c0.559-0.205,1.176,0.088,1.381,0.646
		c0.176,0.558-0.117,1.174-0.676,1.38C146.702,114.963,146.086,114.67,145.91,114.11L145.91,114.11z"/>
	<path fill="#F7941E" d="M147.877,115.315c-0.233-0.734,0.146-1.526,0.853-1.763c0.732-0.264,1.525,0.147,1.762,0.853
		c0.264,0.734-0.117,1.496-0.852,1.762C148.935,116.401,148.142,116.021,147.877,115.315L147.877,115.315z"/>
	<path fill="#F7941E" d="M148.171,111.353c-0.265-0.793,0.146-1.646,0.939-1.879c0.791-0.266,1.644,0.176,1.879,0.938
		c0.265,0.793-0.176,1.646-0.939,1.879C149.257,112.556,148.405,112.115,148.171,111.353L148.171,111.353z"/>
	<path fill="#F7941E" d="M151.519,113.937c-0.295-0.998,0.293-2.025,1.263-2.319c0.997-0.265,2.026,0.294,2.319,1.292
		c0.293,0.969-0.293,2.025-1.293,2.29C152.839,115.491,151.782,114.935,151.519,113.937L151.519,113.937z"/>
	<path fill="#F7941E" d="M153.72,110.589c-0.176-0.764,0.295-1.498,1.028-1.674c0.763-0.178,1.526,0.293,1.702,1.027
		c0.177,0.764-0.295,1.526-1.057,1.703C154.63,111.821,153.896,111.353,153.72,110.589L153.72,110.589z"/>
	<path fill="#F7941E" d="M155.394,109.269c-0.205-0.91,0.354-1.791,1.233-1.998c0.91-0.205,1.791,0.354,1.996,1.233
		c0.205,0.91-0.353,1.791-1.233,1.996C156.479,110.706,155.599,110.147,155.394,109.269L155.394,109.269z"/>
	<path fill="#F7941E" d="M159.298,113.349c-0.117-0.646,0.323-1.263,0.971-1.38c0.646-0.116,1.291,0.322,1.408,0.97
		c0.088,0.646-0.322,1.291-0.998,1.379C160.032,114.435,159.416,114.022,159.298,113.349L159.298,113.349z"/>
	<path fill="#F7941E" d="M161.501,113.056c-0.089-0.617,0.322-1.203,0.938-1.293c0.646-0.117,1.233,0.323,1.321,0.939
		c0.118,0.617-0.321,1.204-0.938,1.32C162.176,114.11,161.589,113.701,161.501,113.056L161.501,113.056z"/>
	<path fill="#F7941E" d="M162.381,108.562c-0.146-0.938,0.5-1.819,1.438-1.967c0.91-0.146,1.791,0.499,1.938,1.409
		c0.146,0.938-0.47,1.82-1.409,1.968C163.41,110.118,162.528,109.474,162.381,108.562L162.381,108.562z"/>
	<path fill="#F7941E" d="M164.584,107.711c-0.118-0.733,0.381-1.409,1.115-1.497c0.733-0.117,1.409,0.383,1.497,1.115
		c0.117,0.734-0.411,1.408-1.115,1.498C165.347,108.944,164.671,108.444,164.584,107.711L164.584,107.711z"/>
	<path fill="#F7941E" d="M166.403,111.646c-0.06-0.764,0.498-1.468,1.263-1.526c0.765-0.088,1.468,0.471,1.526,1.233
		c0.088,0.764-0.469,1.469-1.232,1.557C167.196,112.967,166.492,112.409,166.403,111.646L166.403,111.646z"/>
	<path fill="#F7941E" d="M167.726,107.417c-0.117-1.174,0.764-2.23,1.938-2.318c1.174-0.117,2.202,0.764,2.29,1.938
		c0.116,1.174-0.765,2.202-1.938,2.318C168.841,109.442,167.812,108.592,167.726,107.417L167.726,107.417z"/>
	<path fill="#F7941E" d="M171.219,107.3c-0.028-1.027,0.765-1.908,1.791-1.967c1.027-0.059,1.908,0.734,1.968,1.762
		s-0.733,1.908-1.791,1.967C172.158,109.12,171.276,108.328,171.219,107.3L171.219,107.3z"/>
	<path fill="#F7941E" d="M174.625,106.625c-0.06-1.116,0.821-2.026,1.908-2.085c1.114-0.029,2.026,0.822,2.056,1.938
		c0.059,1.088-0.822,2.026-1.908,2.057C175.563,108.592,174.653,107.711,174.625,106.625L174.625,106.625z"/>
	<path fill="#F7941E" d="M179.176,110.735c-0.024-0.633,0.408-1.18,0.998-1.317v2.575
		C179.604,111.856,179.176,111.349,179.176,110.735L179.176,110.735z"/>
	<path fill="#BFD730" d="M111.896,162.028c17.213-12.375,33.875-26.838,68.278-27.286v23.205c0,2.261-1.819,4.081-4.081,4.081
		H111.896L111.896,162.028z"/>
	<path fill="#F7941E" d="M12.582,155.719c0.302-0.054,0.625-0.003,0.91,0.175c0.616,0.381,0.793,1.174,0.411,1.791
		c-0.287,0.463-0.806,0.678-1.308,0.594c-0.008-0.109-0.013-0.219-0.013-0.33V155.719L12.582,155.719z"/>
	<path fill="#F7941E" d="M20.069,160.032c0.293-0.588,1.028-0.793,1.615-0.471c0.587,0.323,0.793,1.058,0.47,1.646
		c-0.323,0.587-1.057,0.792-1.645,0.47C19.951,161.354,19.746,160.619,20.069,160.032L20.069,160.032z"/>
	<path fill="#F7941E" d="M108.269,158.799c-0.352-0.47-0.233-1.114,0.235-1.468c0.47-0.354,1.146-0.234,1.468,0.234
		c0.354,0.471,0.266,1.146-0.234,1.498C109.269,159.387,108.621,159.298,108.269,158.799L108.269,158.799z"/>
	<path fill="#F7941E" d="M113.342,162.028c0.101-0.227,0.261-0.43,0.478-0.588c0.615-0.469,1.525-0.321,1.967,0.324
		c0.062,0.084,0.111,0.172,0.152,0.264H113.342L113.342,162.028z"/>
	<path fill="#F7941E" d="M115.169,160.442c-0.354-0.498-0.234-1.174,0.234-1.557c0.5-0.352,1.203-0.234,1.557,0.266
		c0.354,0.47,0.234,1.175-0.264,1.525C116.226,161.03,115.521,160.913,115.169,160.442L115.169,160.442z"/>
	<path fill="#F7941E" d="M117.635,161.235c-0.293-0.439-0.204-1.027,0.235-1.32c0.411-0.323,0.998-0.206,1.32,0.205
		c0.295,0.411,0.205,1.027-0.234,1.32C118.545,161.735,117.958,161.647,117.635,161.235L117.635,161.235z"/>
	<path fill="#F7941E" d="M114.699,155.716c-0.382-0.499-0.265-1.232,0.264-1.613c0.5-0.383,1.233-0.266,1.615,0.264
		c0.382,0.5,0.265,1.232-0.265,1.615C115.813,156.362,115.081,156.245,114.699,155.716L114.699,155.716z"/>
	<path fill="#F7941E" d="M120.043,160.735c-0.353-0.498-0.235-1.174,0.233-1.555c0.5-0.354,1.205-0.234,1.558,0.264
		c0.382,0.5,0.265,1.175-0.235,1.557C121.101,161.354,120.396,161.235,120.043,160.735L120.043,160.735z"/>
	<path fill="#F7941E" d="M120.188,158.3c-0.353-0.499-0.233-1.175,0.266-1.525c0.47-0.354,1.145-0.266,1.497,0.233
		c0.353,0.47,0.265,1.175-0.234,1.527C121.246,158.887,120.542,158.771,120.188,158.3L120.188,158.3z"/>
	<path fill="#F7941E" d="M121.452,156.45c-0.354-0.499-0.234-1.204,0.265-1.557s1.203-0.234,1.556,0.265
		c0.354,0.499,0.235,1.204-0.265,1.557C122.479,157.065,121.806,156.949,121.452,156.45L121.452,156.45z"/>
	<path fill="#F7941E" d="M122.245,155.306c-0.294-0.439-0.206-1.058,0.264-1.381c0.44-0.322,1.059-0.205,1.381,0.235
		c0.322,0.47,0.205,1.086-0.234,1.409C123.185,155.894,122.567,155.774,122.245,155.306L122.245,155.306z"/>
	<path fill="#F7941E" d="M121.894,152.457c-0.383-0.528-0.235-1.263,0.293-1.644c0.528-0.383,1.264-0.266,1.645,0.293
		c0.382,0.527,0.234,1.263-0.293,1.645C123.008,153.104,122.274,152.985,121.894,152.457L121.894,152.457z"/>
	<path fill="#F7941E" d="M125.151,153.515c-0.354-0.5-0.205-1.203,0.293-1.526c0.5-0.354,1.175-0.205,1.527,0.294
		c0.322,0.499,0.205,1.174-0.293,1.525C126.179,154.131,125.476,154.015,125.151,153.515L125.151,153.515z"/>
	<path fill="#F7941E" d="M123.685,149.169c-0.383-0.559-0.234-1.292,0.322-1.674c0.559-0.354,1.292-0.206,1.674,0.322
		c0.381,0.559,0.234,1.322-0.322,1.675C124.799,149.873,124.065,149.728,123.685,149.169L123.685,149.169z"/>
	<path fill="#F7941E" d="M125.476,149.051c-0.266-0.469-0.146-1.057,0.293-1.351c0.44-0.293,1.058-0.146,1.352,0.294
		c0.293,0.44,0.146,1.026-0.294,1.321C126.386,149.608,125.769,149.492,125.476,149.051L125.476,149.051z"/>
	<path fill="#F7941E" d="M129.938,153.866c-0.412-0.588-0.235-1.409,0.381-1.791c0.617-0.411,1.41-0.234,1.82,0.382
		c0.383,0.588,0.205,1.409-0.382,1.819C131.142,154.659,130.319,154.483,129.938,153.866L129.938,153.866z"/>
	<path fill="#F7941E" d="M130.349,149.169c-0.234-0.382-0.117-0.852,0.266-1.087c0.381-0.233,0.852-0.117,1.086,0.265
		c0.205,0.383,0.088,0.853-0.295,1.088C131.054,149.668,130.554,149.551,130.349,149.169L130.349,149.169z"/>
	<path fill="#F7941E" d="M133.638,153.396c-0.322-0.527-0.146-1.232,0.381-1.556c0.559-0.323,1.264-0.147,1.586,0.382
		c0.322,0.559,0.146,1.262-0.381,1.586C134.665,154.131,133.96,153.955,133.638,153.396L133.638,153.396z"/>
	<path fill="#F7941E" d="M130.642,143.414c-0.205-0.382-0.059-0.853,0.295-1.058c0.353-0.205,0.821-0.088,1.027,0.293
		c0.205,0.354,0.088,0.822-0.265,1.027C131.317,143.884,130.877,143.767,130.642,143.414L130.642,143.414z"/>
	<path fill="#F7941E" d="M131.787,142.886c-0.235-0.382-0.088-0.91,0.323-1.115c0.382-0.234,0.881-0.088,1.115,0.322
		c0.205,0.383,0.06,0.91-0.322,1.116C132.492,143.442,131.993,143.297,131.787,142.886L131.787,142.886z"/>
	<path fill="#F7941E" d="M136.515,148.963c-0.205-0.353-0.06-0.792,0.293-0.969c0.354-0.205,0.793-0.06,1,0.294
		c0.176,0.354,0.059,0.793-0.324,0.998C137.131,149.462,136.69,149.345,136.515,148.963L136.515,148.963z"/>
	<path fill="#F7941E" d="M138.423,150.901c-0.294-0.559-0.088-1.264,0.471-1.558c0.558-0.294,1.263-0.088,1.557,0.47
		c0.293,0.559,0.059,1.264-0.471,1.558C139.421,151.664,138.717,151.459,138.423,150.901L138.423,150.901z"/>
	<path fill="#F7941E" d="M139.744,149.697c-0.353-0.677-0.06-1.526,0.616-1.851c0.676-0.353,1.498-0.088,1.851,0.588
		s0.088,1.526-0.588,1.85C140.918,150.637,140.097,150.372,139.744,149.697L139.744,149.697z"/>
	<path fill="#F7941E" d="M139.245,144.56c-0.323-0.588-0.059-1.351,0.559-1.645c0.616-0.294,1.35-0.029,1.645,0.587
		c0.293,0.587,0.059,1.351-0.559,1.646C140.272,145.438,139.538,145.176,139.245,144.56L139.245,144.56z"/>
	<path fill="#F7941E" d="M143.708,147.76c-0.206-0.44,0-0.97,0.439-1.175c0.44-0.206,0.97-0.029,1.174,0.411
		c0.207,0.47,0,0.969-0.439,1.175C144.44,148.376,143.913,148.2,143.708,147.76L143.708,147.76z"/>
	<path fill="#F7941E" d="M141.535,139.099c-0.147-0.383,0.028-0.853,0.411-0.998c0.382-0.177,0.852,0,0.998,0.41
		c0.176,0.383,0,0.822-0.383,0.998C142.151,139.687,141.711,139.479,141.535,139.099L141.535,139.099z"/>
	<path fill="#F7941E" d="M143.825,143.297c-0.266-0.646,0.029-1.381,0.703-1.646c0.646-0.265,1.382,0.06,1.646,0.705
		c0.265,0.646-0.059,1.381-0.704,1.645C144.823,144.267,144.09,143.972,143.825,143.297L143.825,143.297z"/>
	<path fill="#F7941E" d="M145.028,140.625c-0.234-0.617,0.06-1.321,0.676-1.558c0.617-0.233,1.292,0.089,1.527,0.705
		c0.233,0.617-0.061,1.293-0.676,1.526C145.938,141.535,145.265,141.212,145.028,140.625L145.028,140.625z"/>
	<path fill="#F7941E" d="M146.231,138.54c-0.205-0.499,0.06-1.057,0.529-1.232c0.499-0.205,1.057,0.059,1.262,0.558
		c0.178,0.5-0.059,1.058-0.558,1.233C146.967,139.274,146.409,139.039,146.231,138.54L146.231,138.54z"/>
	<path fill="#F7941E" d="M148.729,140.858c-0.117-0.381,0.088-0.821,0.47-0.969c0.411-0.117,0.852,0.088,0.969,0.471
		c0.146,0.41-0.06,0.822-0.47,0.969C149.315,141.478,148.875,141.271,148.729,140.858L148.729,140.858z"/>
	<path fill="#F7941E" d="M150.373,143.385c-0.177-0.47,0.088-0.998,0.558-1.175c0.5-0.176,1.027,0.088,1.204,0.588
		c0.146,0.471-0.118,0.998-0.588,1.174C151.048,144.147,150.521,143.884,150.373,143.385L150.373,143.385z"/>
	<path fill="#F7941E" d="M150.638,139.45c-0.205-0.616,0.116-1.292,0.733-1.497c0.616-0.206,1.292,0.146,1.497,0.763
		c0.206,0.617-0.146,1.264-0.764,1.469S150.843,140.065,150.638,139.45L150.638,139.45z"/>
	<path fill="#F7941E" d="M153.515,143.237c-0.117-0.439,0.117-0.91,0.588-1.057c0.439-0.117,0.91,0.146,1.026,0.586
		c0.147,0.441-0.116,0.91-0.558,1.059C154.103,143.942,153.632,143.678,153.515,143.237L153.515,143.237z"/>
	<path fill="#F7941E" d="M153.162,136.983c-0.177-0.588,0.176-1.203,0.793-1.381c0.587-0.146,1.203,0.207,1.38,0.793
		c0.146,0.617-0.206,1.233-0.793,1.381C153.925,137.953,153.31,137.601,153.162,136.983L153.162,136.983z"/>
	<path fill="#F7941E" d="M155.511,139.304c-0.176-0.734,0.266-1.469,0.998-1.674c0.734-0.177,1.498,0.266,1.674,0.998
		c0.178,0.734-0.265,1.498-0.998,1.674C156.45,140.478,155.717,140.037,155.511,139.304L155.511,139.304z"/>
	<path fill="#F7941E" d="M155.862,133.05c-0.176-0.764,0.294-1.498,1.027-1.674c0.764-0.176,1.498,0.294,1.674,1.027
		c0.177,0.764-0.293,1.498-1.026,1.674C156.772,134.253,156.039,133.783,155.862,133.05L155.862,133.05z"/>
	<path fill="#F7941E" d="M160.59,141.594c-0.146-0.616,0.265-1.233,0.882-1.38c0.646-0.117,1.262,0.264,1.379,0.91
		c0.147,0.616-0.264,1.232-0.879,1.38C161.324,142.621,160.708,142.239,160.59,141.594L160.59,141.594z"/>
	<path fill="#F7941E" d="M162.47,137.806c-0.089-0.439,0.205-0.851,0.646-0.938c0.41-0.06,0.822,0.235,0.91,0.646
		c0.088,0.44-0.205,0.853-0.646,0.939C162.938,138.511,162.528,138.217,162.47,137.806L162.47,137.806z"/>
	<path fill="#F7941E" d="M162.938,132.286c-0.088-0.528,0.265-0.998,0.793-1.086c0.528-0.09,0.998,0.264,1.086,0.792
		s-0.264,0.999-0.793,1.087C163.497,133.167,163.026,132.813,162.938,132.286L162.938,132.286z"/>
	<path fill="#F7941E" d="M164.644,131.347c-0.06-0.527,0.293-1.027,0.82-1.086c0.559-0.089,1.028,0.293,1.116,0.821
		s-0.294,1.028-0.822,1.087C165.229,132.257,164.729,131.875,164.644,131.347L164.644,131.347z"/>
	<path fill="#F7941E" d="M167.108,135.78c-0.06-0.588,0.322-1.146,0.91-1.233c0.586-0.06,1.146,0.353,1.203,0.91
		c0.088,0.588-0.322,1.146-0.91,1.233C167.754,136.749,167.196,136.338,167.108,135.78L167.108,135.78z"/>
	<path fill="#F7941E" d="M168.576,135.81c-0.089-0.646,0.411-1.263,1.058-1.32c0.676-0.059,1.262,0.41,1.321,1.086
		c0.088,0.646-0.411,1.232-1.058,1.32C169.224,136.955,168.635,136.483,168.576,135.81L168.576,135.81z"/>
	<path fill="#F7941E" d="M169.545,133.96c-0.06-0.734,0.472-1.352,1.175-1.409c0.734-0.059,1.352,0.47,1.409,1.175
		c0.06,0.733-0.47,1.351-1.174,1.409C170.222,135.192,169.604,134.664,169.545,133.96L169.545,133.96z"/>
	<path fill="#F7941E" d="M171.248,136.543c-0.06-0.763,0.499-1.438,1.263-1.497s1.438,0.499,1.526,1.264
		c0.06,0.764-0.499,1.438-1.263,1.496C171.981,137.896,171.308,137.308,171.248,136.543L171.248,136.543z"/>
	<path fill="#F7941E" d="M173.538,138.979c0-0.498,0.382-0.91,0.852-0.938c0.5-0.029,0.939,0.353,0.969,0.853
		c0.031,0.498-0.352,0.909-0.852,0.938C174.008,139.86,173.567,139.479,173.538,138.979L173.538,138.979z"/>
	<path fill="#F7941E" d="M175.095,140.39c-0.029-0.646,0.471-1.203,1.115-1.232c0.617-0.029,1.175,0.47,1.204,1.115
		c0.028,0.617-0.44,1.175-1.086,1.205C175.683,141.506,175.124,141.006,175.095,140.39L175.095,140.39z"/>
	<path fill="#F7941E" d="M176.827,134.106c-0.029-0.676,0.499-1.264,1.174-1.293c0.676,0,1.264,0.528,1.292,1.205
		c0,0.674-0.528,1.263-1.203,1.291C177.414,135.312,176.827,134.782,176.827,134.106L176.827,134.106z"/>
	<path fill="#F7941E" d="M178.235,137.63c0-0.793,0.617-1.408,1.381-1.438c0.197,0,0.387,0.041,0.558,0.115v2.568
		c-0.161,0.066-0.339,0.104-0.528,0.104C178.882,139.01,178.267,138.394,178.235,137.63L178.235,137.63z"/>
	<path fill="#BFD730" d="M13.345,159.798c0.499-0.852,1.615-1.175,2.466-0.676c0.881,0.499,1.174,1.613,0.675,2.496
		c-0.084,0.145-0.187,0.271-0.302,0.383c-1.262-0.146-2.344-0.863-2.984-1.889C13.237,160.005,13.286,159.899,13.345,159.798
		L13.345,159.798z"/>
	<path fill="#BFD730" d="M107.649,162.028c0.057-0.494,0.316-0.967,0.767-1.293c0.821-0.615,1.996-0.409,2.584,0.412
		c0.2,0.268,0.313,0.571,0.349,0.881H107.649L107.649,162.028z"/>
	<path fill="#BFD730" d="M111.894,162.028c-0.287-0.512-0.152-1.144,0.311-1.497c0.527-0.382,1.263-0.265,1.645,0.235
		c0.277,0.383,0.291,0.875,0.076,1.262H111.894L111.894,162.028z"/>
	<path fill="#BFD730" d="M113.405,162.028c-0.297-0.787-0.04-1.715,0.646-2.23c0.852-0.617,2.057-0.41,2.672,0.44
		c0.394,0.54,0.452,1.214,0.226,1.79H113.405L113.405,162.028z"/>
	<path fill="#BFD730" d="M113.729,156.45c-0.527-0.705-0.381-1.703,0.354-2.231c0.704-0.528,1.702-0.353,2.23,0.354
		c0.528,0.733,0.353,1.731-0.353,2.261C115.257,157.331,114.229,157.185,113.729,156.45L113.729,156.45z"/>
	<path fill="#BFD730" d="M119.133,158.3c-0.44-0.558-0.294-1.38,0.265-1.791c0.588-0.41,1.381-0.294,1.791,0.294
		c0.44,0.558,0.293,1.38-0.265,1.791C120.336,159.005,119.544,158.887,119.133,158.3L119.133,158.3z"/>
	<path fill="#BFD730" d="M122.067,159.063c-0.527-0.765-0.352-1.82,0.383-2.379c0.764-0.528,1.82-0.382,2.349,0.381
		c0.56,0.765,0.382,1.82-0.353,2.351C123.685,159.974,122.627,159.798,122.067,159.063L122.067,159.063z"/>
	<path fill="#BFD730" d="M119.926,151.752c-0.559-0.792-0.353-1.938,0.47-2.495c0.793-0.587,1.938-0.382,2.496,0.44
		c0.586,0.821,0.381,1.938-0.44,2.524C121.629,152.78,120.513,152.575,119.926,151.752L119.926,151.752z"/>
	<path fill="#BFD730" d="M126.591,155.158c-0.412-0.616-0.265-1.409,0.352-1.82c0.589-0.411,1.41-0.233,1.791,0.353
		c0.412,0.588,0.266,1.41-0.352,1.82C127.794,155.894,126.972,155.745,126.591,155.158L126.591,155.158z"/>
	<path fill="#BFD730" d="M127.002,152.897c-0.5-0.765-0.265-1.763,0.47-2.262c0.764-0.498,1.791-0.293,2.262,0.471
		c0.498,0.764,0.293,1.791-0.471,2.261C128.499,153.866,127.501,153.661,127.002,152.897L127.002,152.897z"/>
	<path fill="#BFD730" d="M128.117,149.257c-0.587-0.91-0.294-2.113,0.646-2.701c0.91-0.587,2.114-0.294,2.702,0.616
		c0.587,0.94,0.293,2.144-0.616,2.729C129.908,150.461,128.704,150.196,128.117,149.257L128.117,149.257z"/>
	<path fill="#BFD730" d="M132.813,151.224c-0.586-0.998-0.233-2.23,0.734-2.817c0.998-0.558,2.23-0.205,2.789,0.764
		c0.588,0.97,0.234,2.231-0.732,2.789C134.635,152.517,133.373,152.192,132.813,151.224L132.813,151.224z"/>
	<path fill="#BFD730" d="M136.338,148.787c-0.353-0.646-0.116-1.468,0.528-1.82c0.676-0.353,1.469-0.088,1.82,0.558
		c0.353,0.646,0.117,1.469-0.559,1.82C137.483,149.697,136.661,149.435,136.338,148.787L136.338,148.787z"/>
	<path fill="#BFD730" d="M135.104,143.678c-0.528-1.026-0.117-2.29,0.91-2.788c1.027-0.529,2.262-0.117,2.789,0.909
		c0.528,0.999,0.117,2.261-0.91,2.79C136.866,145.117,135.634,144.706,135.104,143.678L135.104,143.678z"/>
	<path fill="#BFD730" d="M139.599,142.915c-0.324-0.646-0.031-1.409,0.615-1.732c0.646-0.293,1.438,0,1.732,0.646
		c0.293,0.646,0.029,1.408-0.617,1.732C140.653,143.854,139.892,143.59,139.599,142.915L139.599,142.915z"/>
	<path fill="#BFD730" d="M142.034,144.765c-0.44-0.998,0.059-2.173,1.057-2.613c0.999-0.439,2.174,0.06,2.613,1.059
		c0.439,0.998-0.059,2.172-1.057,2.612C143.649,146.262,142.476,145.763,142.034,144.765L142.034,144.765z"/>
	<path fill="#BFD730" d="M145.06,144.267c-0.412-1.058,0.088-2.262,1.145-2.701c1.059-0.44,2.261,0.088,2.701,1.145
		c0.41,1.059-0.088,2.262-1.146,2.701C146.702,145.821,145.499,145.322,145.06,144.267L145.06,144.267z"/>
	<path fill="#BFD730" d="M148.112,141.065c-0.323-0.971,0.176-2.026,1.145-2.351c0.969-0.353,1.997,0.177,2.35,1.146
		c0.322,0.939-0.176,1.996-1.146,2.32C149.492,142.533,148.435,142.005,148.112,141.065L148.112,141.065z"/>
	<path fill="#BFD730" d="M152.075,141.888c-0.264-0.91,0.265-1.851,1.175-2.113c0.91-0.266,1.851,0.264,2.114,1.174
		s-0.266,1.851-1.176,2.113C153.278,143.326,152.34,142.798,152.075,141.888L152.075,141.888z"/>
	<path fill="#BFD730" d="M153.896,139.01c-0.265-1.057,0.353-2.114,1.41-2.407c1.026-0.293,2.112,0.354,2.406,1.381
		c0.264,1.057-0.354,2.144-1.408,2.406C155.247,140.685,154.188,140.065,153.896,139.01L153.896,139.01z"/>
	<path fill="#BFD730" d="M157.801,137.924c-0.176-0.764,0.323-1.526,1.116-1.674c0.764-0.177,1.525,0.323,1.702,1.086
		c0.147,0.793-0.353,1.526-1.115,1.703C158.741,139.215,157.978,138.716,157.801,137.924L157.801,137.924z"/>
	<path fill="#BFD730" d="M161.235,140.625c-0.116-0.588,0.293-1.146,0.882-1.263c0.587-0.117,1.174,0.294,1.263,0.881
		c0.117,0.615-0.294,1.175-0.881,1.292C161.911,141.623,161.324,141.241,161.235,140.625L161.235,140.625z"/>
	<path fill="#BFD730" d="M162.028,136.104c-0.117-0.646,0.322-1.264,0.97-1.381c0.646-0.117,1.263,0.322,1.38,0.969
		s-0.322,1.264-0.969,1.381C162.763,137.188,162.146,136.778,162.028,136.104L162.028,136.104z"/>
	<path fill="#BFD730" d="M163.468,132.286c-0.088-0.646,0.354-1.264,0.998-1.38c0.646-0.089,1.264,0.353,1.381,0.997
		c0.088,0.646-0.353,1.264-0.998,1.352C164.201,133.373,163.585,132.933,163.468,132.286L163.468,132.286z"/>
	<path fill="#BFD730" d="M165.875,138.922c-0.146-1.087,0.588-2.085,1.674-2.231s2.085,0.617,2.231,1.675
		c0.146,1.086-0.616,2.084-1.674,2.231C167.021,140.742,166.022,140.008,165.875,138.922L165.875,138.922z"/>
	<path fill="#BFD730" d="M169.575,137.601c-0.061-0.938,0.615-1.762,1.525-1.819c0.939-0.089,1.762,0.587,1.82,1.526
		c0.088,0.909-0.587,1.731-1.525,1.819C170.485,139.187,169.663,138.511,169.575,137.601L169.575,137.601z"/>
	<path fill="#BFD730" d="M171.981,135.252c-0.059-1.146,0.822-2.114,1.968-2.173s2.114,0.822,2.173,1.967
		c0.059,1.116-0.822,2.114-1.938,2.173C173.039,137.276,172.041,136.396,171.981,135.252L171.981,135.252z"/>
	<path fill="#BFD730" d="M175.74,132.933c-0.029-1.058,0.793-1.968,1.88-1.996c1.057-0.029,1.938,0.793,1.996,1.85
		c0.029,1.087-0.822,1.968-1.879,1.997C176.681,134.841,175.799,133.989,175.74,132.933L175.74,132.933z"/>
	<path fill="#BFD730" d="M179.675,136.396c0-0.453,0.191-0.864,0.499-1.155v2.264C179.878,137.229,179.69,136.837,179.675,136.396
		L179.675,136.396z"/>
	<path fill="#2E3192" d="M16.644,34.807h0.016v0.001v123.139v0.002h-0.008c0.001,0,0.003,0.001,0.006,0.003
		c0.009,0.009-0.001,0.015,0.004,0.015v-0.016h0.001h159.43h0.002v0.008c0-0.002,0.002-0.004,0.004-0.006
		c0.008-0.009,0.014,0.002,0.014-0.005h-0.016v-0.002V34.808v-0.002h0.008c-0.002,0-0.004-0.001-0.006-0.003
		c-0.009-0.009,0.002-0.014-0.005-0.014v0.016h-0.001H16.663h-0.002v-0.008c0,0.001-0.001,0.003-0.003,0.005
		C16.649,34.811,16.644,34.801,16.644,34.807L16.644,34.807z M8.504,34.808L8.504,34.808l0.016-0.001
		c0-2.267,0.905-4.305,2.372-5.771c1.466-1.466,3.503-2.371,5.77-2.372v-0.016h0.002h159.43h0.001v0.016
		c2.268,0,4.305,0.905,5.771,2.372c1.466,1.466,2.371,3.503,2.371,5.77h0.017v0.002v123.139v0.001h-0.017
		c0,2.267-0.904,4.305-2.371,5.771s-3.504,2.37-5.77,2.371v0.017h-0.003H16.663h-0.001v-0.017c-2.267-0.001-4.305-0.905-5.771-2.372
		c-1.466-1.466-2.37-3.503-2.371-5.77H8.504v-0.002V34.808L8.504,34.808z"/>
	<path fill="#2E3192" d="M156.156,40.592c5.021-1.468,8.428,3.523,8.075,8.543l-0.295,4.463c-0.177,2.496-0.764,4.258-3.553,5.109
		l-3.67,1.116c-0.265,0.146-0.588,0.265-0.91,0.382l-14.182,4.316c-1.85,0.763-3.465,2.026-3.055,3.846
		c0.383,1.82,2.613,1.85,4.435,1.645l8.28-5.138c10.158-1.086,15.854,9.102,15.854,15.591c0,9.102-5.607,15.914-14.357,18.615
		l-2.848,0.853c-0.558,0.233-1.146,0.41-1.762,0.615l-22.344,6.812c-0.822,0.265-1.557,0.41-2.202,0.47
		c-0.265,0.177-0.587,0.323-0.938,0.411l-3.817,1.175c-0.234,0.117-0.47,0.233-0.765,0.293l-7.516,2.319
		c-2.85,0.853-4.287-0.264-4.552-1.203l-1.673-5.932l-12.273,3.611l-3.054,7.252c-0.998,2.438-2.319,3.465-4.287,4.081l-3.582,1.087
		c-0.323,0.146-0.646,0.264-0.999,0.381l-17,5.197c-3.289,0.998-6.225-0.382-7.781-2.35l-7.517-9.571l-0.822,12.244
		c-0.265,3.847-1.233,4.903-3.67,5.637l-3.494,1.058c-0.323,0.146-0.675,0.295-1.086,0.412l-7.722,2.349
		c-3.318,1.026-5.344-1.204-5.138-4.375l4.668-44.1c0.206-2.936,0.881-4.316,3.347-5.05l3.435-1.028
		c0.353-0.176,0.705-0.323,1.146-0.44l4.786-7.223c3.142-0.939,6.988,3.934,6.783,8.28l-0.294,5.579l9.924-12.566l4.581-7.517
		l7.78-2.319c2.378-0.705,4.287-0.939,6.284,0.47c3.112,2.202,1.791,7.957,0.44,9.748l-18.7,24.131l10.834,13.8L93.94,67.399
		c0.675-1.351,2.084-3.054,3.583-3.494l3.787-1.116c0.265-0.146,0.528-0.264,0.793-0.352l1.264-6.195
		c5.695-1.673,7.486,3.993,8.572,7.399l10.219,32.502c0.615-0.558,1.408-0.939,2.378-1.233l3.493-1.057
		c0.354-0.146,0.705-0.293,1.087-0.411l16.823-5.139c2.056-0.851,3.936-2.319,3.758-3.817c-0.234-2.055-3.053-1.438-5.107-1.292
		l-13.624,1.086c-6.841,0.528-12.536-4.61-13.241-17.088c-0.498-9.043,6.987-11.333,15.709-13.917l2.318-0.675
		c0.734-0.293,2.995-6.782,3.787-7.017L156.156,40.592L156.156,40.592z M97.171,96.466l4.492-1.38l-1.586-5.549L97.171,96.466
		L97.171,96.466z"/>
	<path fill="#FFFFFF" d="M91.357,92.385l5.901-14.035l3.2,11.246L91.357,92.385L91.357,92.385z M29.376,82.255
		c0.206-2.965,0.88-4.345,3.347-5.079l7.252-2.144c3.142-0.939,4.521-1.116,4.316,3.229L43.792,88.45l14.71-18.644L70.57,65.96
		c1.526-0.47,2.877-0.881,4.052,0.176c1.673,1.498-0.264,3.729-1.615,5.491L54.304,95.791l13.212,16.765L92.708,61.82
		c0.675-1.351,2.084-3.024,3.582-3.464l6.547-1.938c2.467-0.734,2.85,1.732,3.289,3.112l12.214,38.873
		c1.027,3.23,0.793,5.109-1.468,5.756l-7.518,2.29c-2.817,0.852-4.287-0.234-4.551-1.203l-1.645-5.902l-16.794,4.903l-3.113,7.398
		c-1.027,2.438-2.349,3.494-4.316,4.082l-17,5.196c-3.289,0.998-6.225-0.382-7.751-2.319L42.53,103.776l-1.292,18.968
		c-0.235,3.815-1.233,4.873-3.641,5.606l-7.751,2.379c-3.318,0.998-3.817-0.088-3.611-3.289L29.376,82.255L29.376,82.255z
		 M155.069,40.915c2.203-0.646,3.699-0.91,3.377,4.14l-0.322,4.434c-0.176,2.496-0.764,4.287-3.553,5.138l-17.44,5.314
		c-2.29,0.705-4.874,2.084-4.375,4.345c0.382,1.791,2.613,1.821,4.435,1.644l9.807-1.057c10.159-1.116,14.328,5.021,14.328,11.509
		c0,9.073-5.607,15.914-14.357,18.586l-22.344,6.812c-4.551,1.408-5.843-0.176-5.607-2.879l0.353-4.755
		c0.235-2.848,1.586-4.081,3.935-4.786l20.2-6.166c2.468-0.763,5.197-2.496,4.991-4.287c-0.264-2.026-3.082-1.439-5.107-1.292
		l-13.623,1.086c-6.871,0.528-11.687-5.608-12.098-12.831c-0.529-9.043,5.844-15.59,14.533-18.174L155.069,40.915L155.069,40.915z"
		/>
	<path fill="none" stroke="#2E3192" stroke-width="1.0331" stroke-miterlimit="2.6131" d="M91.357,92.385l5.901-14.035l3.2,11.246
		L91.357,92.385L91.357,92.385z M29.376,82.255c0.206-2.965,0.88-4.345,3.347-5.079l7.252-2.144
		c3.142-0.939,4.521-1.116,4.316,3.229L43.792,88.45l14.71-18.644L70.57,65.96c1.526-0.47,2.877-0.881,4.052,0.176
		c1.673,1.498-0.264,3.729-1.615,5.491L54.304,95.791l13.212,16.765L92.708,61.82c0.675-1.351,2.084-3.024,3.582-3.464l6.547-1.938
		c2.467-0.734,2.85,1.732,3.289,3.112l12.214,38.873c1.027,3.23,0.793,5.109-1.468,5.756l-7.518,2.29
		c-2.817,0.852-4.287-0.234-4.551-1.203l-1.645-5.902l-16.794,4.903l-3.113,7.398c-1.027,2.438-2.349,3.494-4.316,4.082l-17,5.196
		c-3.289,0.998-6.225-0.382-7.751-2.319L42.53,103.776l-1.292,18.968c-0.235,3.815-1.233,4.873-3.641,5.606l-7.751,2.379
		c-3.318,0.998-3.817-0.088-3.611-3.289L29.376,82.255L29.376,82.255z M155.069,40.915c2.203-0.646,3.699-0.91,3.377,4.14
		l-0.322,4.434c-0.176,2.496-0.764,4.287-3.553,5.138l-17.44,5.314c-2.29,0.705-4.874,2.084-4.375,4.345
		c0.382,1.791,2.613,1.821,4.435,1.644l9.807-1.057c10.159-1.116,14.328,5.021,14.328,11.509c0,9.073-5.607,15.914-14.357,18.586
		l-22.344,6.812c-4.551,1.408-5.843-0.176-5.607-2.879l0.353-4.755c0.235-2.848,1.586-4.081,3.935-4.786l20.2-6.166
		c2.468-0.763,5.197-2.496,4.991-4.287c-0.264-2.026-3.082-1.439-5.107-1.292l-13.623,1.086
		c-6.871,0.528-11.687-5.608-12.098-12.831c-0.529-9.043,5.844-15.59,14.533-18.174L155.069,40.915L155.069,40.915z"/>
	<path fill="#FFFFFF" d="M170.162,38.478c0.323,0,0.675,0.088,0.998,0.264c0.323,0.176,0.587,0.411,0.764,0.734
		c0.177,0.352,0.265,0.675,0.265,1.027s-0.088,0.705-0.265,1.027c-0.177,0.323-0.44,0.558-0.764,0.764
		c-0.323,0.176-0.646,0.264-0.998,0.264s-0.705-0.088-1.028-0.264c-0.322-0.206-0.558-0.44-0.763-0.764
		c-0.177-0.323-0.265-0.675-0.265-1.027s0.088-0.675,0.293-1.027c0.177-0.323,0.44-0.558,0.765-0.734
		C169.485,38.566,169.81,38.478,170.162,38.478L170.162,38.478z M170.162,38.801c-0.294,0-0.558,0.088-0.853,0.235
		c-0.265,0.147-0.47,0.353-0.615,0.617c-0.178,0.294-0.235,0.558-0.235,0.852s0.06,0.587,0.205,0.852
		c0.177,0.264,0.382,0.47,0.646,0.617c0.266,0.176,0.559,0.234,0.853,0.234c0.293,0,0.558-0.059,0.853-0.234
		c0.264-0.147,0.469-0.353,0.615-0.617c0.146-0.265,0.235-0.558,0.235-0.852s-0.089-0.558-0.235-0.852
		c-0.146-0.264-0.382-0.47-0.646-0.617C170.72,38.889,170.426,38.801,170.162,38.801L170.162,38.801z M169.252,41.649v-2.202h0.765
		c0.264,0,0.438,0.03,0.558,0.059c0.116,0.03,0.204,0.118,0.264,0.206c0.089,0.118,0.118,0.206,0.118,0.323
		c0,0.176-0.061,0.293-0.178,0.411c-0.116,0.117-0.264,0.206-0.439,0.206c0.059,0.029,0.117,0.088,0.178,0.117
		c0.088,0.088,0.205,0.235,0.321,0.44l0.265,0.44h-0.439l-0.176-0.353c-0.147-0.264-0.295-0.44-0.383-0.528
		c-0.059-0.029-0.146-0.059-0.293-0.059h-0.205v0.939L169.252,41.649L169.252,41.649z M169.604,40.416h0.439
		c0.205,0,0.352-0.029,0.41-0.118c0.089-0.059,0.117-0.118,0.117-0.235c0-0.059,0-0.117-0.059-0.176
		c-0.029-0.029-0.089-0.088-0.146-0.118c-0.059,0-0.176-0.029-0.352-0.029h-0.412v0.676H169.604z"/>
</g>
</svg>
