<?xml version="1.0" encoding="utf-8"?>
<!-- Generator: Adobe Illustrator 16.0.0, SVG Export Plug-In . SVG Version: 6.00 Build 0)  -->
<!DOCTYPE svg PUBLIC "-//W3C//DTD SVG 1.1//EN" "http://www.w3.org/Graphics/SVG/1.1/DTD/svg11.dtd">
<svg version="1.1" id="Layer_1" xmlns="http://www.w3.org/2000/svg" xmlns:xlink="http://www.w3.org/1999/xlink" x="0px" y="0px"
	 width="175.748px" height="91.438px" viewBox="8.504 50.659 175.748 91.438" enable-background="new 8.504 50.659 175.748 91.438"
	 xml:space="preserve">
<g>
	<polygon fill="#FFFFFF" points="85.99,92.16 86.264,92.566 86.539,92.976 86.813,93.521 87.088,93.929 87.364,94.473 
		87.503,95.018 87.639,95.562 87.639,95.698 88.053,95.289 89.015,94.609 89.979,94.065 91.08,93.521 92.182,93.114 93.284,92.84 
		94.382,92.704 95.484,92.566 96.723,92.566 97.823,92.84 99.063,93.114 100.164,93.656 101.126,94.2 102.09,94.882 103.056,95.698 
		103.19,95.834 103.329,95.562 103.742,95.153 104.293,94.609 104.704,94.2 105.255,93.792 105.668,93.521 106.22,93.248 
		106.769,92.976 107.317,92.704 107.871,92.566 108.56,92.296 109.108,92.296 109.659,92.16 110.211,92.16 110.763,92.16 
		111.312,92.16 111.862,92.16 112.411,92.296 112.963,92.296 113.513,92.432 114.063,92.704 114.476,92.84 115.026,93.114 
		115.577,93.248 115.987,93.521 116.269,93.792 116.539,93.384 117.367,92.704 118.19,92.16 119.019,91.616 119.981,91.208 
		120.944,90.936 121.909,90.798 122.871,90.663 123.834,90.663 124.798,90.663 125.485,90.798 125.624,90.392 126.175,89.439 
		126.728,88.622 127.414,87.806 128.103,87.124 128.789,86.445 129.615,85.901 130.44,85.493 131.267,85.084 132.229,84.677 
		133.194,84.404 134.021,84.268 135.121,84.131 136.086,84.131 136.497,84.131 136.635,83.723 136.91,82.77 137.321,81.955 
		137.735,81.136 138.287,80.322 138.976,79.641 139.662,79.098 140.351,78.418 141.176,78.009 142.001,77.464 142.829,77.191 
		143.791,76.92 144.754,76.785 145.718,76.646 146.681,76.646 147.367,76.646 147.367,76.646 147.508,75.967 147.508,75.424 
		147.646,74.744 147.782,74.063 147.921,73.518 148.192,72.975 148.468,72.431 148.747,71.885 149.021,71.477 149.433,70.933 
		149.849,70.524 150.12,70.116 150.535,69.708 151.086,69.3 151.497,69.028 151.91,68.756 152.461,68.483 152.874,68.212 
		153.426,67.94 153.836,67.804 154.388,67.531 154.938,67.396 155.487,67.396 156.039,67.26 156.591,67.26 157.276,67.123 
		157.831,67.26 158.379,67.26 159.065,67.396 159.756,67.531 160.308,67.804 160.718,67.94 161.133,68.075 161.544,68.212 
		161.959,68.348 162.37,68.483 162.783,68.62 163.058,68.756 163.472,69.028 163.884,69.163 164.158,69.3 164.571,69.438 
		164.847,69.572 165.261,69.708 165.535,69.845 165.948,69.981 166.224,70.254 166.499,70.254 166.912,70.389 167.188,70.524 
		167.464,70.66 167.735,70.797 168.013,70.933 168.287,71.069 168.563,71.069 168.841,71.205 169.115,71.205 169.39,71.342 
		169.526,71.342 169.665,71.477 170.075,71.342 170.763,71.342 171.453,71.342 172.006,71.477 172.692,71.477 173.241,71.477 
		173.929,71.615 174.481,71.749 175.033,71.885 175.722,72.022 176.271,72.158 176.821,72.431 177.372,72.565 177.922,72.837 
		178.474,73.11 179.021,73.384 179.573,73.79 180.124,74.063 180.674,74.47 181.089,74.88 181.502,75.287 182.051,75.832 
		182.462,76.376 182.737,76.92 183.153,77.464 183.429,78.145 183.702,78.689 183.978,79.368 184.112,80.05 184.252,80.729 
		184.252,81.682 184.252,82.634 184.112,83.315 183.978,83.996 183.841,84.677 183.565,85.22 183.29,85.901 183.015,86.445 
		182.601,86.989 182.326,87.533 181.912,88.078 181.502,88.622 181.089,89.03 180.674,89.439 180.124,89.846 179.712,90.255 
		179.16,90.663 178.61,90.936 178.06,91.344 177.511,91.616 176.957,91.888 176.271,92.023 176.271,92.023 176.271,92.296 
		176.271,92.976 176.271,93.656 176.134,94.2 175.997,94.882 175.856,95.562 175.58,96.106 175.442,96.786 175.169,97.331 
		174.894,97.737 175.306,98.147 175.722,98.69 176.134,99.235 176.546,99.916 176.685,100.597 176.957,101.142 177.097,101.819 
		177.097,102.499 177.097,103.044 177.097,103.726 177.097,104.271 176.957,104.813 176.821,105.358 176.546,105.903 
		176.408,106.446 176.134,106.991 175.997,107.535 175.58,108.08 175.306,108.487 175.033,109.032 174.894,109.306 174.065,110.528 
		172.968,112.161 172.006,113.794 170.763,115.291 169.665,116.788 168.426,118.285 167.051,119.646 165.812,121.007 
		164.435,122.367 162.923,123.592 161.544,124.815 160.03,126.041 158.517,127.267 157.004,128.354 155.487,129.308 
		153.976,130.396 152.323,131.349 150.673,132.163 149.021,132.979 147.508,133.797 145.718,134.478 144.065,135.156 
		142.414,135.838 140.765,136.382 139.11,136.926 137.321,137.335 135.671,137.742 134.021,138.015 132.365,138.287 
		130.716,138.424 128.929,138.56 127.14,138.56 126.313,138.56 125.624,138.424 125.071,138.287 124.385,138.287 123.834,138.149 
		123.146,137.878 122.597,137.742 122.046,137.47 121.494,137.197 120.808,136.926 120.258,136.653 119.706,136.245 
		119.157,135.838 118.744,135.293 118.19,134.749 117.778,134.067 117.367,133.524 117.093,132.845 116.954,132.163 
		116.679,131.483 116.679,130.804 116.539,129.985 116.539,129.442 116.679,128.762 116.679,128.082 116.815,127.537 
		117.093,126.858 117.229,126.312 117.367,125.769 116.815,125.632 116.269,125.496 116.128,125.496 115.987,125.632 
		115.577,126.176 115.164,126.584 114.751,126.992 114.199,127.537 113.649,127.81 113.101,128.217 112.55,128.49 111.999,128.762 
		111.449,129.034 110.763,129.308 110.211,129.442 109.659,129.579 109.659,130.123 109.659,130.94 109.659,131.62 109.522,132.301 
		109.385,132.979 109.249,133.524 108.972,134.204 108.694,134.886 108.284,135.431 108.01,135.974 107.595,136.519 
		107.183,136.926 106.63,137.47 106.22,137.878 105.668,138.287 105.119,138.694 104.567,139.104 104.017,139.511 103.465,139.783 
		102.776,140.056 102.228,140.464 101.539,140.735 100.853,140.872 100.164,141.146 99.338,141.416 98.649,141.553 97.823,141.688 
		96.997,141.824 96.172,141.962 95.484,142.097 94.657,142.097 93.833,142.097 93.007,142.097 92.182,142.097 91.494,141.962 
		90.667,141.824 89.841,141.688 89.015,141.416 88.191,141.146 87.364,140.872 86.677,140.601 85.851,140.056 85.163,139.647 
		84.477,139.104 83.648,138.56 83.099,137.878 82.411,137.062 81.858,136.245 81.723,135.838 81.31,136.11 80.482,136.382 
		79.794,136.79 79.106,137.197 78.282,137.47 77.456,137.742 76.632,138.015 75.806,138.149 74.978,138.287 74.152,138.424 
		73.326,138.56 72.502,138.694 71.537,138.694 70.575,138.694 69.612,138.56 68.786,138.56 68.096,138.424 67.409,138.424 
		66.722,138.287 65.895,138.149 65.208,138.015 64.518,137.878 63.831,137.742 63.143,137.47 62.317,137.335 61.629,137.062 
		60.942,136.926 60.252,136.653 59.564,136.382 58.876,136.245 58.188,135.974 57.5,135.701 56.949,135.293 56.261,135.021 
		55.574,134.749 54.885,134.341 54.198,134.067 53.645,133.66 52.958,133.252 52.271,132.845 51.719,132.437 51.031,132.026 
		50.482,131.62 49.793,131.075 49.243,130.667 48.417,129.985 47.591,129.17 47.04,128.354 46.628,127.537 46.215,126.858 
		45.939,126.312 45.39,126.584 44.149,126.722 42.912,126.858 41.81,126.858 40.571,126.858 39.47,126.722 38.37,126.584 
		37.268,126.312 36.306,125.905 35.205,125.496 34.241,125.088 33.415,124.544 32.591,123.864 31.763,123.319 30.939,122.503 
		30.25,121.822 29.562,121.007 29.013,120.054 28.459,119.237 28.048,118.285 27.774,117.333 27.361,116.243 27.223,115.291 
		27.084,114.202 27.084,113.112 27.084,112.026 27.084,111.752 26.81,111.89 25.571,112.026 24.332,112.161 23.092,112.161 
		21.993,112.026 20.754,111.752 19.652,111.479 18.553,111.073 17.45,110.664 16.35,110.121 15.249,109.44 14.286,108.76 
		13.322,108.08 12.496,107.265 11.671,106.31 10.984,105.358 10.294,104.271 9.605,103.181 9.193,101.957 8.781,100.731 
		8.643,99.371 8.504,98.01 8.643,96.515 8.781,95.153 9.193,93.792 9.744,92.432 10.432,91.071 11.258,89.71 12.221,88.35 
		12.909,87.533 13.598,86.854 14.286,86.309 14.836,85.765 15.524,85.22 16.211,84.677 16.9,84.131 17.589,83.723 18.14,83.179 
		18.828,82.77 19.514,82.363 20.066,81.955 20.754,81.546 21.443,81.275 21.993,80.866 22.542,80.459 23.231,80.05 23.781,79.641 
		24.332,79.234 24.883,78.96 25.571,78.553 26.121,78.145 26.671,77.601 27.223,77.191 27.774,76.785 28.185,76.239 28.738,75.696 
		29.287,75.15 29.838,74.607 30.387,74.063 30.939,73.384 31.626,72.431 32.176,71.749 32.728,71.205 33.279,70.66 33.966,70.116 
		34.518,69.708 35.067,69.163 35.754,68.756 36.306,68.348 36.993,68.075 37.683,67.667 38.233,67.396 38.922,67.123 39.746,66.852 
		40.434,66.714 41.123,66.579 41.81,66.579 42.636,66.442 43.324,66.442 44.012,66.579 44.839,66.579 45.527,66.714 46.215,66.852 
		46.904,67.123 47.591,67.396 48.281,67.667 48.829,67.94 49.518,68.348 50.069,68.62 50.757,69.028 51.307,69.438 51.856,69.981 
		52.547,70.524 52.958,71.069 53.372,71.477 53.645,71.885 53.922,72.294 54.198,72.837 54.472,73.247 54.748,73.655 54.885,74.199 
		55.16,74.607 55.299,75.15 55.435,75.56 55.574,76.105 55.712,76.646 55.849,77.191 55.986,77.737 56.124,78.281 56.124,78.689 
		56.812,78.553 57.639,78.418 58.463,78.281 59.288,78.281 60.115,78.281 60.803,78.281 61.629,78.281 62.454,78.281 63.281,78.418 
		64.105,78.553 64.794,78.825 65.62,79.098 66.446,79.368 67.134,79.777 67.96,80.185 68.648,80.594 69.335,81.136 69.887,81.682 
		70.575,82.227 71.123,82.906 71.675,83.588 72.502,84.677 72.914,86.038 73.189,86.854 73.326,87.533 73.465,88.35 73.603,89.166 
		73.741,89.439 73.741,89.439 74.291,89.166 75.116,88.758 75.942,88.486 76.632,88.35 77.181,88.213 77.867,88.213 78.554,88.213 
		79.106,88.213 79.794,88.35 80.346,88.486 81.035,88.622 81.584,88.758 82.135,89.03 82.547,89.301 83.099,89.576 83.648,89.846 
		84.061,90.119 84.477,90.526 84.887,90.936 85.3,91.208 85.712,91.616 	"/>
	<path fill="#ED1C24" d="M182.188,81.002c0-1.938-1.455-3.876-2.891-5.035c-1.562-1.262-3.38-1.848-5.289-2.326
		c-1.955-0.489-4.035,0.024-5.928-0.599c-1.688-0.556-3.367-1.298-4.952-2.074c-1.555-0.76-3.185-1.345-4.886-1.771
		c-0.792-0.198-1.784-0.083-2.551,0.171c-0.389,0.13-0.777,0.028-1.168,0.204c-0.362,0.163-0.83,0.365-1.164,0.586
		c-1.588,1.047-2.924,2.291-3.543,4.127c-0.618,1.827-0.295,3.398,0.166,5.22c-1.066-0.591-2.549-0.952-3.769-0.952
		c-1.39,0-2.625,0.513-3.896,1.017c-2.56,1.014-4.033,4.273-4.033,6.875c-2.434-0.602-4.744-0.449-6.934,0.846
		c-0.619,0.366-1.222,0.684-1.732,1.19c-0.387,0.383-1.026,0.798-1.268,1.275c-0.307,0.602-0.662,1.171-0.965,1.773
		c-0.283,0.562-0.287,1.146-0.525,1.719c-3.592-1.782-8.387-0.125-10.187,3.4c-0.991-0.981-2.188-1.805-3.51-2.244
		c-0.619-0.206-1.308-0.114-1.931-0.319c-0.446-0.146-1.457-0.017-1.898,0.13c-0.693,0.229-1.398,0.416-2.093,0.645
		c-0.306,0.101-0.619,0.387-0.89,0.565c-0.31,0.205-0.473,0.54-0.752,0.723c-1.17,0.768-1.707,2.353-2.141,3.63
		c-1.518-3.506-5.359-5.658-9.112-5.126c-1.795,0.255-3.64,1.14-5.061,2.271c-0.75,0.596-1.48,1.32-2.097,2.049
		c-0.603,0.715-1.37,1.286-1.759,2.17c0.01-0.863,0.324-1.819,0.539-2.666c0.222-0.867-0.158-1.957-0.401-2.777
		c-0.572-1.934-1.855-3.305-3.439-4.49c-0.715-0.535-1.714-0.653-2.55-0.931c-0.853-0.283-1.761-0.021-2.624-0.021
		c-0.827,0-1.892,0.771-2.616,1.128c-0.855,0.422-1.675,0.897-2.531,1.321c0-1.096,0.08-2.19-0.14-3.265
		c-0.192-0.943-0.464-1.839-0.697-2.76c-0.537-2.118-2.287-3.649-4.054-4.817c-0.793-0.524-1.8-0.959-2.731-1.143
		c-0.88-0.173-1.895-0.534-2.79-0.534c-1.146,0-2.188,0.014-3.311,0.238c-0.843,0.168-1.93,0.154-2.713,0.538
		c-0.348,0.172-0.661,0.237-1.044,0.314c0-1.087-0.274-2.113-0.274-3.18c0-0.833-0.572-1.806-0.779-2.616
		c-0.496-1.935-1.936-3.462-3.488-4.614c-1.596-1.183-3.421-2.007-5.368-2.245c-1.971-0.241-4.053-0.113-5.86,0.789
		c-1.848,0.922-3.373,2.215-4.835,3.661c-1.483,1.468-2.493,3.38-4.167,4.667c-0.854,0.656-1.62,1.37-2.483,2.01
		c-0.809,0.601-1.665,1.135-2.471,1.731c-0.84,0.62-1.772,1.109-2.61,1.731c-0.839,0.624-1.846,0.973-2.579,1.699
		c-0.34,0.337-0.953,0.58-1.366,0.827C17.607,86,17.203,86.367,16.8,86.687c-0.808,0.641-1.604,1.442-2.338,2.168
		c-1.494,1.475-2.589,3.49-3.329,5.445c-0.757,1.998-0.738,4.122-0.219,6.17c0.492,1.944,1.492,4.229,3.084,5.54
		c2.356,1.938,4.891,3.558,7.981,3.939c1.482,0.184,2.92,0.323,4.372-0.091c0.735-0.209,1.339-0.229,2.063-0.536
		c0.526-0.224,1.062-0.689,1.556-0.834c-0.567,0.235-0.734,2.28-0.824,2.856c-0.167,1.061-0.231,2.153-0.054,3.217
		c0.343,2.049,1.141,4.008,2.452,5.633c1.398,1.731,2.976,2.718,4.946,3.695c1.964,0.973,4.108,1.062,6.256,1.062
		c1.022,0,2.066-0.363,3.04-0.638c0.476-0.137,0.883-0.2,1.332-0.422c0.28-0.14,0.391,0.797,0.497,1.06
		c0.825,2.036,1.985,3.782,3.922,4.929c0.861,0.51,1.604,1.196,2.469,1.709c0.797,0.475,1.584,0.941,2.39,1.391
		c0.846,0.475,1.888,0.803,2.792,1.158c0.966,0.383,1.921,0.78,2.947,0.982c0.43,0.084,0.795,0.32,1.238,0.408
		c0.478,0.095,0.957,0.188,1.434,0.285c0.821,0.162,1.637,0.41,2.46,0.566c0.812,0.154,1.658,0.122,2.479,0.271
		c0.971,0.176,1.921,0,2.91,0c1.718,0,3.532-0.534,5.114-1.158c1.683-0.665,3.473-1.495,4.774-2.787
		c0.657,2.057,1.677,3.797,3.441,5.104c1.657,1.227,3.614,1.942,5.641,2.107c3.989,0.327,8.514,0.003,11.878-2.479
		c1.501-1.108,3.123-2.396,3.743-4.256c0.32-0.959,0.484-1.871,0.484-2.879c0-0.945-0.465-1.738-0.691-2.633
		c0.861,0,1.711-0.136,2.553-0.136c0.813,0,1.574-0.713,2.348-0.904c0.369-0.092,0.69-0.512,1.021-0.728
		c0.378-0.25,0.705-0.508,0.962-0.887c0.4-0.589,1.473-1.371,1.516-2.106c0.66,0.503,1.617,0.737,2.42,0.938
		c0.832,0.205,1.679,0.285,2.535,0.285c-0.338,0.297-0.287,0.825-0.617,1.153c-0.211,0.207-0.455,1.043-0.532,1.353
		c-0.22,0.87-0.64,1.78-0.64,2.68c0,1.074,0.137,2.022,0.481,3.046c0.32,0.946,1.106,1.64,1.856,2.247
		c0.785,0.633,1.541,1.023,2.533,1.271c0.896,0.224,1.836,0.632,2.766,0.632c0.427,0,0.832,0.153,1.254,0.117
		c0.555-0.046,1.109-0.117,1.667-0.117c1.087,0,2.073-0.201,3.149-0.289c1.111-0.092,2.078-0.385,3.168-0.563
		c1.065-0.174,2.151-0.339,3.184-0.679c2.137-0.701,4.298-1.389,6.363-2.277c3.935-1.696,7.832-3.803,11.312-6.305
		c3.605-2.594,6.961-5.514,9.951-8.799c1.432-1.571,2.92-3.269,4.072-5.059c1.162-1.801,2.578-3.594,3.535-5.498
		c0.81-1.613,1.438-3.123,1.133-4.956c-0.309-1.849-1.322-3.103-3.027-3.944c0.311-0.324,0.639-0.448,0.852-0.873
		c0.226-0.445,0.461-0.855,0.66-1.307c0.373-0.841,0.691-1.65,0.691-2.584c0-0.406,0.184-0.905,0.088-1.28
		c-0.066-0.267-0.257-1.385-0.023-1.463c0.766-0.254,1.809-0.397,2.477-0.837c0.793-0.523,1.561-1.075,2.344-1.59
		c0.74-0.487,1.322-1.385,1.812-2.112C181.845,84.71,182.524,82.67,182.188,81.002L182.188,81.002z M35.618,103.181l-0.688,0.273
		l-0.55,0.136l-0.138,0.136l-0.688,0.272l-0.551,0.408l-0.274,0.136l0.138-0.544l0.136-0.544l0.139-0.41v-0.545l0.138-0.406
		l0.136-0.408v-0.543l0.138-0.41l0.137-0.406v-0.408l0.139-0.409l0.138-0.407l0.274-0.408l0.138-0.407v1.224l0.139,0.682
		l0.136,0.815l0.413,0.681l0.412,0.682l0.554,0.679L35.618,103.181L35.618,103.181z M54.885,114.067l-0.687,0.135h-0.276
		l0.139-0.135l0.137-0.41l0.274-0.271l0.138-0.273l0.274-0.271l0.275-0.272l0.275-0.271l0.139-0.137l0.138-0.271h0.137l0.275,0.68
		l0.412,0.681l0.275,0.407l0.276,0.41h-2.201V114.067z M68.648,118.829l-0.276-0.137l-0.412-0.271l-0.551-0.273l-0.139-0.136
		l-0.275-0.137l-0.549-0.271l-0.415-0.271l0.275-0.139l0.552-0.135l0.411-0.137h0.413l0.139,0.409l0.274,0.405l0.276,0.547
		l0.276,0.406L68.648,118.829L68.648,118.829z"/>
	<path fill="#FBB052" d="M15.936,91.344c-8.394,10.613,5.919,19.595,12.802,14.56c3.025-2.312-0.415-9.661,8.944-14.286
		c0.962-0.68,1.651-0.818,1.375,0.95c-4.404,9.252-1.101,11.566,9.909,6.94c3.167-1.224,2.339,0.682,1.376,1.497
		c-5.229,6.261-14.176,2.177-17.065,7.213c-4.405,7.349,2.339,16.191,11.973,13.332c4.817-1.223,4.129-7.618,8.12-11.292
		c3.028-3.129,6.056-6.124,8.945-9.253c5.919-2.994,8.121-7.483,5.779-14.15c-3.302-5.171-10.458-4.898-17.339-0.816
		c1.651-4.626,0.274-10.206-1.514-12.112c-4.681-3.945-9.221-3.672-13.9,1.634C28.874,84.268,21.303,85.356,15.936,91.344
		L15.936,91.344z"/>
	<path fill="#FBB052" d="M111.999,97.058c1.102,0.273,2.064,0.817,2.752,1.771c2.203,3.266,3.578,7.348,6.057,10.067
		c6.057,3.267,6.606,7.213,4.403,10.342c-2.614,3.131-8.396,2.724-10.871-0.814c-0.688,1.904-1.377,3.4-2.341,4.49v-9.934
		c0.273,0,0.551,0,0.688,0c1.238-0.273,1.789-1.905,1.514-3.812c-0.274-1.497-1.236-2.722-2.2-2.993L111.999,97.058L111.999,97.058z
		 M106.769,99.101c1.104-1.906,3.305-2.452,5.23-2.043v9.117c-0.137,0-0.413,0-0.55,0c-1.238,0.271-1.927,1.905-1.515,3.811
		c0.275,1.496,1.237,2.721,2.063,2.994v9.934c-1.788,2.04-4.128,2.447-7.021,1.632c-7.295-2.722-1.649-10.75-1.236-13.198
		C105.255,106.854,104.567,104.133,106.769,99.101L106.769,99.101z"/>
	<path fill="#FBB052" d="M163.058,74.063c2.203,0.951,4.269,1.768,6.332,2.176c5.23-0.543,9.771,1.634,10.047,5.443
		c-0.138,3.946-4.815,7.212-9.084,5.986c2.342,5.716,0.688,8.846-3.439,10.615c-1.514,0.544-2.754,0.407-3.854,0V84.677
		c1.101,0.408,2.065,0.408,2.615-0.137c0.825-0.952,0.274-2.721-1.238-3.946c-0.412-0.409-0.965-0.679-1.377-0.817v-5.714H163.058z
		 M152.323,77.191c0,0,0-0.134,0-0.271v-0.815c0.273-2.721,3.439-4.628,6.056-3.947c1.513,0.543,3.165,1.226,4.679,1.906v5.714
		c-1.099-0.409-2.062-0.409-2.613,0.138c-0.824,0.95-0.274,2.718,1.238,3.944c0.414,0.408,0.965,0.68,1.375,0.817v13.606
		c-3.853-1.497-4.401-7.892-5.365-9.525C156.039,84.268,153.7,82.634,152.323,77.191L152.323,77.191z"/>
	<path fill="#FBB052" d="M76.904,93.248c3.305-1.088,6.469,1.905,6.194,4.899c-0.552,3.944-2.063,7.892-2.063,11.43
		c1.512,5.033,0.137,9.932-3.58,10.749c-1.239,0.272-2.478,0-3.579-0.544v-12.247c0.689-0.407,1.378-1.089,1.93-1.904
		c0.96-1.633,0.826-3.401-0.141-4.083c-0.549-0.271-1.1-0.135-1.789,0.137v-6.803C74.842,94.2,75.806,93.656,76.904,93.248
		L76.904,93.248z M73.876,119.782c-2.477-1.227-4.403-4.083-4.127-7.077c-5.231,3.269-8.946,2.179-11.01-1.358
		c-3.027-7.757,5.505-8.572,7.708-10.75c1.514-1.226,3.992-3.674,7.43-5.715v6.803c-0.688,0.272-1.374,0.951-1.787,1.771
		c-0.966,1.632-0.966,3.537,0.137,4.081c0.413,0.271,1.1,0.271,1.65,0L73.876,119.782L73.876,119.782z"/>
	<path fill="#FBB052" d="M86.264,105.222c5.505-11.021,15.69-10.613,15.826,2.18c-0.136,4.08-0.823,7.891-2.063,11.836
		c-1.375,5.172,0.964,6.396,3.304,8.301c3.028,2.857,1.514,6.939-4.128,8.845c-5.917,2.042-14.453,0.815-14.038-6.53l1.375-7.483
		c-3.166,7.346-8.12,11.565-15.826,11.565c-7.019-0.682-13.489-2.857-18.856-7.482c-4.403-4.356-0.412-11.159,6.194-9.256
		c4.955,0.682,11.285,6.263,14.864,6.125c4.542,0,8.396-2.041,9.497-7.211C82.688,114.884,84.199,109.168,86.264,105.222
		L86.264,105.222z"/>
	<path fill="#FBB052" d="M119.433,104.406c-3.992-8.165,5.228-12.383,10.32-5.579c2.477,4.082,4.404,8.164,5.505,12.381
		c1.788,4.628,7.021,3.402,5.368-1.225c-0.549-4.08-4.54-8.707-9.359-11.836c-5.781-6.805,5.506-12.792,8.812-6.805l7.979,14.016
		c2.063,2.857,5.779,0.815,4.404-3.945l-10.46-11.294c-3.44-6.667,3.578-11.975,9.222-6.259c3.441,4.353,4.127,10.749,9.086,14.559
		c2.062,2.312,4.953,3.129,8.532,2.448c3.576-1.089,4.538,2.313,1.923,5.716c-9.08,16.191-28.211,27.214-43.49,27.214
		c-5.641-0.407-7.153-2.993-4.676-7.621c1.516-3.944,6.057-7.21,4.676-11.837C126.313,110.121,121.633,107.942,119.433,104.406
		L119.433,104.406z"/>
	<path fill="#FFFFFF" d="M18.553,91.75c-4.268,4.083-4.13,8.166-0.413,11.159c2.75,1.359,3.853-1.09,2.614-1.905
		C16.764,99.101,17.725,95.018,18.553,91.75L18.553,91.75z"/>
	<path fill="#FFFFFF" d="M39.333,78.009c4.542-2.995,7.707-2.313,9.359,2.041c0.55,0.952,0,1.497-0.964,0.952
		c-1.789-2.449-2.614-4.082-7.294-2.042C39.058,79.505,38.783,78.825,39.333,78.009L39.333,78.009z"/>
	<path fill="#FFFFFF" d="M47.178,115.153c-0.828,4.492-3.029,5.58-6.607,3.402c-0.826-0.543-0.826-1.633,0.69-1.361
		C43.875,118.285,46.077,118.013,47.178,115.153L47.178,115.153z"/>
	<path fill="#FFFFFF" d="M78.554,95.698c1.928-0.409,3.993,0.409,3.168,3.266c-0.275,0.952-1.929,1.36-1.652,0
		C81.31,97.737,80.07,96.377,78.554,95.698L78.554,95.698z"/>
	<path fill="#FFFFFF" d="M109.798,98.69c1.238-1.359,3.576-0.953,4.542,1.906c0.411,1.223-1.239,1.901-1.377,0.543
		C112.687,99.507,112.687,97.467,109.798,98.69L109.798,98.69z"/>
	<path fill="#FFFFFF" d="M154.938,74.744c0.41-1.769,2.613-2.586,4.951-0.68c0.967,0.951,0,2.313-0.824,1.224
		C157.831,74.063,156.865,72.294,154.938,74.744L154.938,74.744z"/>
	<path fill="#FFFFFF" d="M58.739,120.188c-4.404-1.903-7.156-0.136-6.056,3.131c1.101,2.449,6.745,5.307,10.873,5.441
		c-2.339-1.632-4.956-2.586-7.02-4.763C55.435,123.048,55.16,120.188,58.739,120.188L58.739,120.188z"/>
	<path fill="#FFFFFF" d="M99.338,128.49c2.201,2.721,1.515,4.762-2.2,6.124C102.367,134.341,103.878,131.754,99.338,128.49
		L99.338,128.49z"/>
	<path fill="#FFFFFF" d="M94.244,99.916c6.192-1.497,5.229,6.53,4.957,10.067c-0.688-3.129,0.687-8.299-4.544-8.437
		C92.869,101.548,92.456,100.597,94.244,99.916L94.244,99.916z"/>
	<path fill="#FFFFFF" d="M122.183,97.603c5.646-1.496,5.78,3.266,7.981,7.213c-2.201-2.315-3.302-7.621-6.879-5.309
		C121.356,100.597,120.258,98.147,122.183,97.603L122.183,97.603z"/>
	<path fill="#FFFFFF" d="M134.433,90.526c4.267-1.086,4.403,2.588,6.057,5.581c-1.652-1.77-2.616-5.715-5.23-4.083
		C133.744,92.84,133.058,91.071,134.433,90.526L134.433,90.526z"/>
	<path fill="#FFFFFF" d="M145.304,83.043c4.268-1.224,4.405,2.45,6.057,5.443c-1.65-1.771-2.476-5.716-5.092-4.083
		C144.754,85.22,143.931,83.452,145.304,83.043L145.304,83.043z"/>
	<path fill="#FFFFFF" d="M127.14,125.769c-3.166,6.939,6.743,3.944,12.246,2.448c-3.715,2.314-9.082,3.946-13.347,3.675
		C122.871,131.349,124.385,128.762,127.14,125.769L127.14,125.769z"/>
	<path fill="#FFFFFF" d="M165.535,103.454c4.815-0.545,1.101,4.896-0.964,7.893c2.201-1.77,4.27-4.764,4.955-7.349
		C169.801,101.957,168.013,102.365,165.535,103.454L165.535,103.454z"/>
	<path fill="#FFFFFF" d="M61.354,105.222c-2.341,2.995-0.688,7.893,4.404,6.396c1.376-0.41,1.513,1.087,0.414,1.224
		C61.904,114.747,56.261,110.257,61.354,105.222L61.354,105.222z"/>
	<path fill="#FFFFFF" d="M104.293,115.699c-2.203,2.993-0.688,7.758,4.401,6.261c1.377-0.411,1.517,1.088,0.414,1.223
		C104.843,125.088,99.338,120.733,104.293,115.699L104.293,115.699z"/>
	<path fill="#FFFFFF" d="M160.856,91.616c0.275,3.673,4.679,6.121,7.568,1.768c0.689-1.225,1.79-0.136,0.965,0.681
		C167.601,98.283,160.582,98.558,160.856,91.616L160.856,91.616z"/>
	<path fill="#FFFFFF" d="M79.245,115.291c-0.962,1.633-2.89,2.448-5.093,2.313C76.355,119.103,80.07,117.739,79.245,115.291
		L79.245,115.291z"/>
	<path fill="#FFFFFF" d="M122.319,113.794c1.104,1.905,0.688,3.811-0.825,5.172C124.385,118.692,125.351,115.153,122.319,113.794
		L122.319,113.794z"/>
	<path fill="#FFFFFF" d="M176.546,79.368c0.965,1.907,0.551,3.811-0.966,5.172C178.474,84.268,179.437,80.729,176.546,79.368
		L176.546,79.368z"/>
	<path fill="#FFFFFF" d="M102.367,86.309c17.614,0,31.929-8.028,31.929-17.825c0-9.796-14.314-17.825-31.929-17.825
		c-17.48,0-31.792,8.028-31.792,17.825C70.575,78.281,84.887,86.309,102.367,86.309L102.367,86.309z"/>
	<path fill="#ED1C24" d="M102.367,85.084c16.926,0,30.688-7.484,30.688-16.601c0-9.116-13.764-16.6-30.688-16.6
		c-16.931,0-30.692,7.484-30.692,16.6C71.675,77.601,85.436,85.084,102.367,85.084L102.367,85.084z"/>
	<path fill="#FFFFFF" d="M88.602,63.314H85.3l-3.303,4.761v-4.761h-2.752v10.341h2.752v-4.627l3.303,4.627h3.579l-4.13-5.307
		L88.602,63.314L88.602,63.314z M111.726,71.342h-1.928v-8.028h-2.891v8.028h-1.93v-8.028h-2.889v10.341h12.521V63.314h-2.887v8.028
		H111.726z M93.284,63.314l-3.579,10.341h2.888l0.55-1.906h3.993l0.413,1.906h2.888l-3.575-10.341H93.284L93.284,63.314z
		 M93.696,69.845l1.1-3.402V65.9c0.136-0.136,0.136-0.273,0.136-0.409c0-0.136,0-0.136,0-0.136c0.141,0,0.141-0.136,0.141-0.136
		l0.137,0.136c0,0.136,0,0.409,0.139,0.545c0,0.136,0,0.271,0.136,0.543l0.961,3.402H93.696L93.696,69.845z M123.146,63.314h-3.578
		l-3.58,10.341h2.894l0.552-1.906h3.99l0.411,1.906h2.894L123.146,63.314L123.146,63.314z M119.981,69.845l1.1-3.402V65.9
		c0.139-0.136,0.139-0.273,0.139-0.409c0-0.136,0-0.136,0-0.136c0.137,0,0.137-0.136,0.137-0.136s0,0.136,0.139,0.136
		c0,0.136,0,0.409,0.139,0.545c0,0.136,0,0.271,0.137,0.543l0.965,3.402H119.981L119.981,69.845z"/>
	<polygon fill="#EC008C" points="132.535,58.938 132.535,54.498 130.974,54.498 130.974,53.595 135.174,53.595 135.174,54.498 
		133.61,54.498 133.61,58.938 	"/>
	<polygon fill="#EC008C" points="135.871,58.938 135.871,53.595 137.489,53.595 138.44,57.24 139.396,53.595 141.003,53.595 
		141.003,58.938 140.009,58.938 140.005,54.732 138.948,58.938 137.92,58.938 136.87,54.732 136.865,58.938 	"/>
</g>
</svg>
