<?xml version="1.0" encoding="utf-8"?>
<!-- Generator: Adobe Illustrator 16.0.0, SVG Export Plug-In . SVG Version: 6.00 Build 0)  -->
<!DOCTYPE svg PUBLIC "-//W3C//DTD SVG 1.1//EN" "http://www.w3.org/Graphics/SVG/1.1/DTD/svg11.dtd">
<svg version="1.1" id="Layer_1" xmlns="http://www.w3.org/2000/svg" xmlns:xlink="http://www.w3.org/1999/xlink" x="0px" y="0px"
	 width="175.747px" height="129.065px" viewBox="8.504 31.845 175.747 129.065"
	 enable-background="new 8.504 31.845 175.747 129.065" xml:space="preserve">
<g>
	<path fill="#ED1C2E" d="M39.315,53.924C23.672,64.508,15.06,79.583,15.06,96.37c0,16.805,8.612,31.879,24.255,42.449
		c14.8,10.016,35.062,15.527,57.062,15.527c21.999,0,42.256-5.513,57.044-15.527c15.654-10.57,24.258-25.646,24.258-42.449
		c0-16.787-8.604-31.862-24.258-42.446c-14.788-10-35.046-15.513-57.044-15.513C74.377,38.411,54.115,43.924,39.315,53.924
		L39.315,53.924z M35.641,48.487L35.641,48.487C18.136,60.317,8.504,77.331,8.504,96.37c0,19.057,9.632,36.053,27.137,47.884
		c15.866,10.747,37.445,16.656,60.736,16.656c23.299,0,44.854-5.909,60.726-16.656c17.502-11.831,27.148-28.827,27.148-47.884
		c0-19.04-9.646-36.053-27.148-47.883c-15.871-10.73-37.427-16.642-60.726-16.642C73.086,31.845,51.507,37.757,35.641,48.487
		L35.641,48.487z"/>
	<path fill="#ED1C2E" d="M174.72,96.37c0-33.307-35.068-54.995-78.342-54.995c-43.272,0-78.351,21.688-78.351,54.995
		c0,33.316,35.079,55.017,78.351,55.017C139.651,151.387,174.72,129.687,174.72,96.37L174.72,96.37z"/>
	<path fill="#FFFFFF" d="M39.315,53.924C23.672,64.508,15.06,79.583,15.06,96.37c0,16.805,8.612,31.879,24.255,42.449
		c14.8,10.016,35.062,15.527,57.062,15.527c21.999,0,42.256-5.513,57.044-15.527c15.654-10.57,24.258-25.646,24.258-42.449
		c0-16.787-8.604-31.862-24.258-42.446c-14.788-10-35.046-15.513-57.044-15.513C74.377,38.411,54.115,43.924,39.315,53.924
		L39.315,53.924z M96.377,151.387c-43.272,0-78.351-21.7-78.351-55.017c0-33.307,35.079-54.995,78.351-54.995
		c43.274,0,78.342,21.688,78.342,54.995C174.72,129.687,139.651,151.387,96.377,151.387L96.377,151.387z"/>
	<path fill="#900028" d="M151.735,84.415c-7.848,9.697-7.444,12.991-7.444,12.991l0,0c0,0.6,0.146,1.155,0.604,1.604
		c0.52,0.418,0.84,0.272,1.608,0.097l-1.326-1.734c-0.767,0.17-1.452-0.048-1.968-0.473c-0.46-0.45-0.605-1.02-0.605-1.606l0,0
		c0,0-0.404-3.291,7.437-12.982L151.735,84.415L151.735,84.415z"/>
	<path fill="#900028" d="M147.367,60.06c0.12,0.161,0.202,0.331,0.29,0.524c0.703,1.805,0.121,3.923-0.256,5.715
		c-1.536,5.026-4.418,9.549-8.293,13.391c-1.517,1.42-3.076,2.704-4.69,3.941c-1.011,3.475-2.237,6.836-2.827,10.451l0,0
		c-0.949,4.433,0.817,4.499,0.817,4.499l-1.681-2.119c0,0-1.783-0.062-0.832-4.487l0,0c0.6-3.615,1.824-6.975,2.828-10.462
		c1.627-1.227,3.172-2.507,4.705-3.938c3.85-3.83,6.731-8.368,8.291-13.381c0.372-1.802,0.961-3.925,0.252-5.708
		c-0.082-0.203-0.17-0.373-0.285-0.533L147.367,60.06L147.367,60.06z"/>
	<path fill="#900028" d="M125.036,99.283c0.758,0.727,1.146,1.041,2.365,1.247c5.104,0.859,9.106-5.939,9.106-5.939
		s-1.356,5.857,3.729,6.885c5.287,1.077,11.004-7.133,11.004-7.133l-1.018-1.362l1.694,2.123l1.019,1.344
		c0,0-5.73,8.219-11.021,7.146c-5.069-1.041-3.722-6.896-3.722-6.896s-3.996,6.83-9.106,5.964c-1.163-0.196-2.021-0.765-2.625-1.562
		L125.036,99.283L125.036,99.283z"/>
	<path fill="#900028" d="M105.038,100.063c0.695,0.77,1.113,1.037,1.995,1.436c1.993-1.326,3.932-2.955,5.604-4.868
		c0.127-0.131,0.271-0.349,0.368-0.424c2.197-2.361,3.941-5.116,5.298-7.968c2.084,0.048,4.215-0.448,5.981-1.437l0.008-0.006
		l1.694,2.119l-0.014,0.006c-1.779,0.981-3.886,1.469-5.982,1.417c-1.35,2.862-3.102,5.613-5.297,7.986
		c-0.098,0.072-0.241,0.291-0.363,0.412c-1.671,1.925-3.607,3.541-5.618,4.88c-1.478-0.696-2.735-2.077-3.682-3.572L105.038,100.063
		L105.038,100.063z"/>
	<path fill="#900028" d="M111.401,80.82c0,0-3.918,11.318,0.515,17.531l0,0l-1.679-2.116l0,0
		c-4.449-6.218-0.525-17.523-0.525-17.523L111.401,80.82L111.401,80.82z"/>
	<path fill="#900028" d="M98.62,82.961L98.62,82.961c-2.582,5.259-2.598,13.257-2.598,13.257v0.01
		c0.016,0.336,0.04,0.681,0.103,1.018l0.042,0.024c-0.188-0.024-0.727-0.446-0.896-0.543c-0.745-0.647-0.896-1.646-0.945-2.609
		v-0.006c0,0,0.024-7.999,2.598-13.27l0,0L98.62,82.961L98.62,82.961z"/>
	<path fill="#900028" d="M89.338,100.409c0.242,0.434,0.387,0.388,0.839,0.678c1.08,0.928,2.63,1.023,3.98,0.559
		c3.662-1.568,5.973-5.313,7.256-8.858l1.686,2.119c-1.265,3.542-3.59,7.278-7.255,8.858c-1.356,0.471-3.027,0.424-4.108-0.521
		c-0.299-0.194-0.542-0.438-0.751-0.693L89.338,100.409L89.338,100.409z"/>
	<path fill="#900028" d="M75.104,102.687c0.551,0.83,0.866,1.181,1.689,1.744c0,0,6.531,3.995,11.447-6.031l0.033,0.023l1.695,2.119
		l-0.042-0.023c-4.922,10.026-11.446,6.03-11.446,6.03c-0.621-0.442-1.172-0.963-1.638-1.55L75.104,102.687L75.104,102.687z"/>
	<path fill="#900028" d="M114.978,86.594c0.59,0.597,0.832,0.879,1.582,1.227l1.688,2.107c-0.72-0.321-1.349-0.872-1.815-1.538
		L114.978,86.594L114.978,86.594z"/>
	<path fill="#900028" d="M124.874,84.267c-1.605,1.065-3.445,1.956-5.48,1.932c0.703-1.829,1.592-3.621,1.89-5.623
		c0.146-1.074-0.024-2.212-0.654-3.003l1.751,2.189c0.582,0.791,0.736,1.881,0.592,2.933c-0.291,1.986-1.18,3.79-1.898,5.61
		c2.044,0.024,3.529-1.231,5.127-2.285L124.874,84.267L124.874,84.267z"/>
	<path fill="#900028" d="M88.417,80.895c-0.726-0.859-2.149-1.617-4.61,0.457c-2.034,1.729-3.488,8.989-3.488,8.989l0,0
		c-0.242,1.938-0.218,3.924,0.087,5.843c0.204,0.981,0.502,2.102,1.09,2.934l1.802,2.256c-0.669-0.854-0.993-2.053-1.22-3.07
		c-0.297-1.938-0.321-3.911-0.079-5.843l0,0c0,0,1.469-7.269,3.493-8.989c2.44-2.073,3.875-1.332,4.602-0.468L88.417,80.895
		L88.417,80.895z"/>
	<path fill="#900028" d="M61.776,108.928c2.422,3.628,5.885,6.839,10.649,7.468c9.72,1.295,13.369-6.407,13.369-6.407l0,0
		l-1.687-2.119l0,0c0,0-3.651,7.714-13.37,6.412c-3.979-0.524-6.684-2.478-8.985-5.334L61.776,108.928L61.776,108.928z"/>
	<path fill="#900028" d="M36.7,128.009l15.049-8.109l-0.017-0.023c-0.274-2.592-0.177-5.271,0.145-7.877
		c0.84-5.159,2.536-10.188,4.902-14.788l0.015-0.01l-1.695-2.107l-0.007,0.012c-2.366,4.592-4.062,9.609-4.892,14.792
		c-0.322,2.61-0.419,5.289-0.153,7.865l0.015,0.03l-15.044,8.099L36.7,128.009L36.7,128.009z"/>
	<path fill="#900028" d="M53.752,95.396V95.39c0.467-3.173,0.952-6.152,1.623-9.228c0.492-2.585,1.09-5.246,1.671-7.789l2.17-8.262
		c0.591-1.95,0.841-3.224,1.567-5.116h0.007l-1.678-2.119h-0.007c-0.646,1.656-1.065,3.397-1.584,5.128l-2.163,8.271
		c-0.588,2.531-1.179,5.183-1.671,7.768c-0.661,3.076-1.155,6.055-1.623,9.228l-0.007,0.006L53.752,95.396L53.752,95.396z"/>
	<path fill="#900028" d="M90.21,61.722l-0.049-0.024c-7.895,5.094-15.476,10.21-22.25,16.836c-1.872,1.847-3.696,3.568-5.287,5.606
		c0.21,7.5,2.761,15.034,7.29,20.726l0.017-0.03c-3.65-5.37-5.435-11.849-5.628-18.57c1.615-2.052,3.432-3.774,5.297-5.616
		c6.774-6.617,14.354-11.745,22.258-16.84l0.04,0.018L90.21,61.722L90.21,61.722z"/>
	<path fill="#900028" d="M117.438,85.948l0.019,0.008c-0.479-0.117-1.065-0.763-1.065-0.763c-1.72-1.538,0.515-7.223,2.373-6.482
		c0.121,0.048,0.219,0.121,0.307,0.218l1.681,2.119c-0.08-0.097-0.178-0.181-0.308-0.229c-1.842-0.73-4.076,4.949-2.365,6.477
		c0,0,0.227,0.282,0.711,0.395l-0.009-0.01L117.438,85.948L117.438,85.948z"/>
	<path fill="#900028" d="M133.795,78.406h-0.006c0.224-1.259,4.496-11.506,8.104-17.474c1.549-2.567,2.164-1.977,2.412-1.52
		l1.704,2.113c-0.388-0.359-0.872-1.051-2.422,1.517c-3.608,5.967-7.896,16.212-8.123,17.483h0.009L133.795,78.406L133.795,78.406z"
		/>
	<path fill="#900028" d="M147.812,73.881v0.009c8.178-1.419,12.898-1.026,12.898-1.026c-1.21-1.632-0.759-1.76-3.898-5.938
		l1.695,2.113c0,0,2.825,3.748,3.891,5.938c0,0-4.713-0.397-12.885,1.017v-0.01L147.812,73.881L147.812,73.881z"/>
	<path fill="#900028" d="M156.474,109.97l-0.992,1.971c0,0-20.506-8.812-55.867,4.424c-25.963,9.721-32.735,22.156-32.735,22.156
		l1.703,2.112c0,0,6.764-12.43,32.728-22.153c35.363-13.238,55.867-4.433,55.867-4.433l0.984-1.971L156.474,109.97L156.474,109.97z"
		/>
	<path fill="#FFFFFF" d="M124.285,86.804c-1.769,0.987-3.897,1.483-5.981,1.436c-1.355,2.852-3.101,5.607-5.298,7.968
		c-0.097,0.075-0.241,0.293-0.368,0.424c-1.673,1.913-3.609,3.542-5.604,4.868c-2.026-0.931-3.576-3.124-4.587-5.145
		c-0.467-1.128-0.807-2.357-1.032-3.568c-1.283,3.544-3.595,7.29-7.256,8.858c-1.35,0.465-3.027,0.416-4.111-0.51
		c-0.951-0.64-1.381-1.729-1.774-2.713l-0.033-0.023c-4.917,10.026-11.447,6.031-11.447,6.031
		c-7.024-4.863-3.893-20.26,3.076-24.977c6.346-4.317,9.785,0.309,9.785,0.309l1.042-2.407l6.23,3.488l0,0
		c-2.573,5.271-2.598,13.271-2.598,13.271v0.006c0.048,0.963,0.2,1.962,0.945,2.609c0.678,0.394,1.542,0.121,2.107-0.324
		c1.381-1.322,2.016-3.151,2.68-4.896c0.741-1.944,1.114-4.087,1.041-6.201c0.275-3.4,0.979-6.466,2.034-9.59l0.202-0.508v0.003
		l6.376,3.499c0,0-3.924,11.305,0.526,17.523l0,0c2.719-2.316,4.705-5.313,6.32-8.413c-1.453-0.672-2.59-2.237-2.664-3.875
		c-0.242-2.631,0.807-5.041,2.785-6.664c0.848-0.616,2.123-0.907,3.125-0.387c1.301,0.679,1.672,2.238,1.478,3.681
		c-0.298,2.001-1.187,3.794-1.89,5.623c2.035,0.024,3.875-0.866,5.48-1.932c0.622-2.528,1.396-5.11,2.415-7.544
		c1.323-3.278,2.97-6.154,4.844-9.157c2.534-3.552,5.345-7.395,9.146-9.728c1.091-0.67,2.834-1.278,3.996-0.321
		c0.324,0.272,0.543,0.572,0.697,0.969c0.709,1.783,0.12,3.906-0.252,5.708c-1.56,5.013-4.441,9.551-8.291,13.381
		c-1.533,1.431-3.078,2.711-4.705,3.938c-1.004,3.488-2.229,6.848-2.828,10.462l0,0c-0.951,4.426,0.832,4.487,0.832,4.487
		c2.922,0.708,5.66-4.857,5.66-4.857c3.35-7.822,8.856-14.891,8.856-14.891l4.796,5.597c-7.841,9.691-7.436,12.982-7.436,12.982l0,0
		c0,0.587,0.146,1.156,0.604,1.606c0.515,0.425,1.201,0.643,1.968,0.473c1.623-0.396,2.817-1.879,4.062-3.078
		c0.378-0.37,0.691-0.896,0.982-1.314l1.019,1.362c0,0-5.716,8.21-11.005,7.132c-5.086-1.025-3.729-6.884-3.729-6.884
		s-4.004,6.826-9.107,5.966c-6.488-1.102-3.107-13.759-3.107-13.759L124.285,86.804L124.285,86.804z M80.32,90.34
		c-0.242,1.938-0.218,3.924,0.087,5.843c0.339,1.611,0.93,3.597,2.658,4.087c0.926,0.153,1.711-0.242,2.379-0.791
		c0.987-0.982,1.574-2.213,1.961-3.497c-0.581-4.743,0.397-9.518,1.608-14.002l0.024-0.008c0,0-1.308-3.954-5.231-0.621
		C81.773,83.081,80.32,90.34,80.32,90.34L80.32,90.34L80.32,90.34z M84.107,107.868c-2.464,1.214-5.425,1.658-8.204,0.915
		c-0.539-0.228-0.975-0.275-1.508-0.497c-1.641-0.688-2.932-1.717-4.167-2.979c-4.997-5.806-7.387-13.31-7.604-21.168
		c1.591-2.038,3.415-3.76,5.287-5.606c6.775-6.626,14.355-11.742,22.25-16.836l0.049,0.024l-3.506-2.34
		c-28.246,18.57-34.647,33.895-34.647,33.895l0.007-0.006c0.467-3.173,0.961-6.152,1.623-9.228c0.492-2.585,1.083-5.237,1.671-7.768
		l2.163-8.271c0.519-1.731,0.938-3.472,1.584-5.128h0.007l-7.363-4.097c0,0-4.761,41.439-16.732,67.112l15.044-8.099l-0.015-0.03
		c-0.266-2.576-0.169-5.255,0.153-7.865c0.83-5.183,2.526-10.198,4.892-14.792l0.007-0.012c0,0,3.754,17.622,15.638,19.187
		C80.456,115.582,84.107,107.868,84.107,107.868L84.107,107.868L84.107,107.868z M117.438,85.948c0,0,3.158-6.494,1.326-7.236
		c-1.859-0.741-4.094,4.944-2.375,6.482c0,0,0.588,0.646,1.066,0.763L117.438,85.948L117.438,85.948z M133.795,78.406
		c0,0,8.907-6.953,10.677-16.893c0,0,0.122-1.659-0.164-2.101c-0.259-0.4-0.863-1.047-2.414,1.52
		c-3.607,5.968-7.881,16.215-8.104,17.474H133.795L133.795,78.406z M147.812,73.89c8.178-1.419,12.898-1.026,12.898-1.026
		c-1.072-2.18-3.898-5.938-3.898-5.938c-5.438,3.08-9,6.955-9,6.955V73.89L147.812,73.89z M66.878,138.521
		c0,0,6.772-12.437,32.734-22.156c35.363-13.235,55.867-4.424,55.867-4.424l0.994-1.971c-45.533-11.691-86.893,13.653-86.893,13.653
		L66.878,138.521L66.878,138.521z"/>
</g>
</svg>
