<?xml version="1.0" encoding="utf-8"?>
<!-- Generator: Adobe Illustrator 16.0.0, SVG Export Plug-In . SVG Version: 6.00 Build 0)  -->
<!DOCTYPE svg PUBLIC "-//W3C//DTD SVG 1.1//EN" "http://www.w3.org/Graphics/SVG/1.1/DTD/svg11.dtd">
<svg version="1.1" id="Layer_1" xmlns="http://www.w3.org/2000/svg" xmlns:xlink="http://www.w3.org/1999/xlink" x="0px" y="0px"
	 width="97.647px" height="155.286px" viewBox="54.664 14.863 97.647 155.286"
	 enable-background="new 54.664 14.863 97.647 155.286" xml:space="preserve">
<g>
	<path fill="#FFFFFF" d="M144.694,140.448c-6.75,1.892-11.885-1.84-13.354-7.079c-1.619-5.789,1.446-12.95,9.279-15.144
		c2.443-0.686,5.236-1.095,9.003-0.442v-6.544c-2.339,0.133-5.319,0.58-8.772,1.549c-15.662,4.396-23.213,16.284-20.683,25.328
		c1.894,6.754,9.222,12.025,21.892,8.48c3.723-1.043,7.346-2.297,10.252-3.763v-6.123
		C150.085,138.208,147.17,139.755,144.694,140.448L144.694,140.448z M121.56,137.661c-2.767-10.001,6.838-18.602,13.662-21.301
		c-5.615,3.262-15.068,11.104-12.351,20.938c2.608,9.438,13.478,9.301,20.618,7.735C135.853,147.806,124.327,147.676,121.56,137.661
		L121.56,137.661z"/>
	<path fill="#FFFFFF" d="M150.92,148.257c0.56,0.564,0.839,1.244,0.839,2.04c0,0.802-0.281,1.488-0.84,2.054
		c-0.562,0.563-1.24,0.848-2.04,0.848c-0.801,0-1.479-0.283-2.039-0.85c-0.556-0.564-0.835-1.25-0.835-2.054
		c0.001-0.796,0.281-1.478,0.842-2.039c0.562-0.563,1.24-0.847,2.033-0.847C149.679,147.409,150.356,147.692,150.92,148.257
		L150.92,148.257z M151.254,147.935c-0.655-0.65-1.444-0.979-2.373-0.979c-0.922,0-1.706,0.325-2.358,0.977
		c-0.653,0.653-0.98,1.44-0.98,2.362c0,0.931,0.322,1.724,0.971,2.377c0.65,0.657,1.439,0.986,2.367,0.986s1.719-0.326,2.373-0.984
		c0.654-0.657,0.98-1.45,0.98-2.377C152.233,149.373,151.907,148.584,151.254,147.935L151.254,147.935z M149.376,150.142
		c-0.136,0.055-0.34,0.082-0.613,0.082h-0.586v-1.334l0.553,0.002c0.359,0,0.621,0.047,0.783,0.137
		c0.162,0.093,0.243,0.271,0.243,0.537C149.756,149.851,149.63,150.04,149.376,150.142L149.376,150.142z M147.53,152.124h0.646
		v-1.449h0.513c0.345,0,0.584,0.04,0.721,0.12c0.23,0.136,0.346,0.417,0.346,0.842v0.291l0.016,0.12
		c0.002,0.016,0.006,0.029,0.008,0.042c0.005,0.013,0.007,0.024,0.01,0.036h0.607l-0.022-0.046c-0.017-0.03-0.026-0.095-0.032-0.192
		c-0.007-0.097-0.009-0.188-0.009-0.271v-0.271c0-0.187-0.067-0.375-0.2-0.569c-0.136-0.193-0.347-0.316-0.636-0.359
		c0.229-0.039,0.405-0.098,0.534-0.18c0.24-0.154,0.359-0.396,0.361-0.727c0-0.461-0.193-0.771-0.57-0.931
		c-0.213-0.088-0.547-0.132-1.004-0.132h-1.287V152.124L147.53,152.124z"/>
	<path fill="#FFFFFF" d="M120.256,126.924l-0.073-7.887c-0.627,0.583-2.252,0.979-2.882,1.153l-24.182,6.771
		c1.991,0.409,2.765,1.486,2.827,4.033l0.195,21.432c0,4.073-0.467,6.053-2.052,6.495c-1.315,0.367-2.191-0.188-3.91-1.72
		l-12.465-12.665l13.938-17.164l-15.352,4.3c2.467,0.626,3.222,2.318,1.43,4.57l-9.254,12.443l-0.044-10.303
		c0.071-2.566,1.438-4.302,2.815-5.298l-16.583,4.618c1.991,0.408,2.824,1.494,2.887,4.041l0.193,21.432
		c0,2.223,0.083,4.811-2.817,6.973l16.365-4.584c-2.327-0.631-2.721-2.239-2.761-4.403l-0.04-9.276l10.305,11.598l7.584-2.143
		l23.307-6.525c-2.218-1.053-2.762-2.787-2.721-5.475l-0.051-7.838l5.322-1.49c2.462-0.65,3.537-0.431,4.918,0.42l-0.066-7.666
		c-0.629,0.586-2.253,0.979-2.882,1.154l-7.327,2.053l-0.048-7.311l8.5-2.379C117.793,125.632,118.95,125.942,120.256,126.924
		L120.256,126.924z M57.562,168.265c1.009-0.957,1.435-2.432,1.388-4.1l-0.143-22.387c0.025-2.736-0.493-3.494-1.455-4.239
		c1.478-0.042,2.612,0.76,2.622,3.928l0.149,22.515C60.131,166.642,59.441,167.751,57.562,168.265L57.562,168.265z M80.662,161.617
		l-1.302,0.364L68.803,150.12l10.056-13.43c1.687-2.185,1.735-3.99,0.408-5.234c2.803,0.188,2.667,3.173,0.709,5.676l-9.669,12.921
		l9.01,10.063l-0.11-0.148c0,0,1.482,1.574,3.115,1.213l-1.664,0.438L80.662,161.617L80.662,161.617z M111.621,137.642
		c2.244-0.625,4.299-0.649,4.771,1.182c-1.053-0.521-2.094-0.766-4.756,0.012l-4.705,1.303l-0.006-1.197L111.621,137.642
		L111.621,137.642z M96.201,157.589c0.997-0.918,1.155-2.008,1.181-4.051l-0.145-22.385c0.023-2.737-0.493-3.493-1.453-4.241
		c1.477-0.043,2.609,0.762,2.619,3.928l0.148,22.515C98.562,156.017,98.08,157.075,96.201,157.589L96.201,157.589z M106.901,127.293
		l0.021-1.203l7.835-2.168c2.244-0.628,4.3-0.649,4.773,1.183c-1.056-0.521-2.093-0.766-4.757,0.014L106.901,127.293
		L106.901,127.293z"/>
	<polygon fill="#FFFFFF" points="74.517,21.848 72.468,23.959 76.007,23.835 76.629,22.904 80.292,24.021 81.906,24.767 
		81.906,26.195 83.583,26.505 84.328,26.815 85.197,25.636 88.241,26.319 88.489,25.139 87.495,21.537 86.937,19.985 85.943,18.992 
		84.39,18.123 82.9,17.501 81.658,18.309 79.919,18.93 78.243,18.867 75.076,20.668 	"/>
	<polygon fill="#FFFFFF" points="72.799,17.232 70.812,17.356 68.99,17.977 68.163,19.757 68.245,21.579 68.204,22.862 
		69.073,24.104 70.315,24.228 71.475,24.435 72.633,23.856 73.461,22.738 74.745,21.413 75.201,20.709 76.07,20.089 77.477,19.344 
		78.379,19.004 80.168,18.599 82.114,18.309 82.9,17.501 83.977,17.977 84.929,18.35 85.839,19.054 86.791,19.799 87.413,21.083 
		88.157,21.331 88.737,20.834 89.192,19.136 88.53,18.102 87.826,17.688 86.833,16.57 85.094,15.453 82.486,15.701 79.588,16.28 
		77.974,16.321 76.69,16.321 	"/>
	<path d="M148.722,34.801c-1.439-2.435-4.619-2.435-7.005-1.888c-0.894,0.249-0.546,1.49-0.546,2.235
		c0.944,1.441,2.482,0,3.926,0.547c0.645,0.198,1.291,0.695,1.19,1.49c-0.298,0.795-0.745,1.688-1.539,2.136
		c-2.187,0.944-4.472,2.086-6.854,2.086c-0.397-0.894-0.994-1.837-1.988-2.086c-5.266-0.646-10.829-0.596-16.045-1.44
		c-0.596-0.248-0.695-1.043-1.342-1.292c-1.539-0.844-3.029,0.397-4.172,1.193l-0.299-0.298c-8.445-0.695-16.492-2.384-24.789-3.428
		l-1.64-0.448l0.745-0.695c0.397-0.595,0.447-1.54,0.149-2.235c1.291-0.994,1.788-2.384,1.937-3.874h-0.249
		c-0.348-0.398-1.093-0.249-1.192-0.845c0.546-1.689-1.589-2.732-0.447-4.123c0.497-0.348,0.944,0.695,1.192,0.049
		c-1.838-0.794,0.794-1.64-0.149-2.782c-0.298-0.795-1.143-1.44-1.938-1.689c-0.397,0.794,0.695,0.944,0.994,1.44l-0.497,2.136
		c-0.845,0.249-0.845-0.795-1.142-1.242c-0.149,0-0.299,0-0.348,0.149c0,0.249,0.248,0.397,0.348,0.646
		c0.447,0.894-0.696,1.192-0.944,1.789c0.447,0.497,0.944-0.249,1.392,0.05c0.148,1.142,0.894,2.583,0.297,3.477l-2.881-0.596
		c-0.248,0.497-0.447,1.043-0.794,1.49c-0.149-0.148-0.149-0.348-0.299-0.497c-0.397-0.298-0.944-0.348-1.49-0.249
		c-0.249-0.497,0.546-1.142,0.1-1.59l-5.067-1.838c-0.795-0.546-0.944,0.347-1.391,0.695c-0.994,0.199-2.037,0.348-3.031,0.348
		l1.839-1.341c0.497-0.646,0.546-1.59,0.397-2.384c-0.397,1.391-1.639,2.384-2.683,3.428c-0.198,0.894-1.192,0.595-1.838,0.745
		c-0.497-0.447-1.341-0.398-1.888-0.547c-0.099-0.497,0.05-0.894,0.348-1.192c0.646-0.398-0.149-0.895-0.497-1.192
		c-0.149-0.448-0.149-0.845,0-1.242c0.844-1.739,2.632-2.335,4.421-2.335v-0.248l-0.149-0.249c-2.037,0-4.372,0.148-5.167,2.335
		c-0.695,1.092,0.845,1.937,0.149,2.781c-0.398,0.646,0.099,1.342,0.596,1.69c-0.497,0.497-0.794,1.042-0.894,1.689
		c-0.198,1.092,0.397,1.987,1.292,2.533l-0.944,5.713c-1.987-0.15-4.023-0.597-6.011-0.15c-0.944,0.448-1.838,1.441-2.385,2.335
		c-1.39,3.577-2.285,7.551-1.739,11.724c1.143,7.203,1.888,14.605,7.353,19.92c-0.249,1.143,0,2.435,0.695,3.378
		c0.198,3.03-0.795,5.763-1.093,8.693c-0.348,4.222,1.093,7.998,2.882,11.425c1.937,0.646,3.875-0.248,5.762-0.198
		c1.043,2.086,2.186,4.172,3.527,6.16c-0.298,0.198-0.695,0.248-1.043,0.397c-0.794,0.298-0.298,1.291-0.248,1.838
		c-2.882,1.489-5.862,2.782-8.793,4.173c-3.626,1.738-5.712,5.516-6.955,8.941c-0.646,0.795,0.497,1.59-0.05,2.285
		c-0.646,1.342,0.646,2.186,1.192,3.229c1.391,1.341,3.229,1.54,5.117,1.292l2.086,1.392c4.223,1.838,8.893,2.881,13.91,2.532
		c0.547-0.198,1.342,0.248,1.54-0.596c-0.198-1.64,0.198-3.429-0.795-4.818l0.149-0.101c0.596-0.148,1.143-0.794,1.59-1.342
		c0.646-0.793,0.944-1.986,0.348-2.83c2.98-0.695,6.011-1.242,8.693-2.534c0.348,0.149,0.596,0.397,0.745,0.745
		c3.129,2.385,7.153,2.731,11.078,3.328c2.284,0,4.868,0.447,6.358-1.489c-0.101-1.739-0.199-3.627-1.938-4.72v-2.782
		c-0.05-0.446,0.397-0.646,0.845-0.548c2.137-0.844,3.875-2.83,4.174-5.115c0-6.209-0.349-12.816-1.74-18.728
		c-0.645-0.745,0.549-0.894,0.846-1.341c0.746-0.446,1.689-0.596,2.386-1.242c-1.293-1.49-1.789-3.428-1.889-5.365
		c-1.688-7.551-5.911-14.257-9.937-20.665c2.385-0.894,4.918-1.341,7.354-2.136c0.298,1.142,0.845,2.334,2.137,2.583
		c0.695,0.398,1.143-0.397,1.738-0.446c0.05,0.049,0.148,0.149,0.148,0.249l0.895,0.049c0.943,0.1,0.943-1.391,2.087-0.845
		c0.349-0.099,0.546-0.497,0.744-0.794c0.198-0.1,0.446-0.448,0.696-0.149c0.793-0.596,1.092-1.589,1.191-2.583
		c0.496,0,0.049-0.448,0.1-0.696c1.789-0.498,3.576-1.192,5.515-1.242c0.198,0.447,0.546,0.895,0.844,1.292
		c0.944,1.49,2.583,0.447,3.776,0.249c1.143-0.894,2.781,0.1,3.676-1.341l0.199,0.248c0.347,0.049,0.596,0,0.844-0.149
		c1.341-0.497,1.49-1.938,1.838-3.08c2.732-0.447,5.167-1.64,7.75-2.384l0.596-0.497c1.342-0.448,2.187-1.739,2.633-2.932
		C149.765,37.186,149.367,35.795,148.722,34.801L148.722,34.801z M109.974,48.859c-0.695,0.646-1.688,0.497-2.533,0.746
		c-1.392,0.645-2.881,0.993-4.422,1.192c-0.744-0.646-1.291-1.64-1.985-2.385l1.341-1.987c1.292-0.05,2.335,0.646,3.627,0.646
		l3.975,0.895C110.222,48.214,109.974,48.562,109.974,48.859L109.974,48.859z M123.883,45.283c-1.093,0.149-2.086,0.696-3.229,0.547
		c-0.396-0.944-1.092-1.739-1.887-2.335l0.197-0.895l5.663,0.994C124.431,44.19,124.728,45.134,123.883,45.283L123.883,45.283z"/>
	<path d="M86.974,16.47c0.646,1.043-0.398,1.788-0.695,2.633c-0.149,0.099-0.547,0.05-0.547-0.198
		c0.497-0.597,0.547-1.54,0.397-2.236c-1.937-1.043-4.123,0.099-6.209,0.149c-1.341-0.149-3.527,0.795-3.974-1.043
		c2.384,0.745,5.216,0.198,7.352-0.894C84.788,14.781,86.278,15.08,86.974,16.47L86.974,16.47z"/>
	<path d="M84.539,17.912c-0.347,0.695-0.894-0.298-1.44,0.099c-1.292,0.943-3.08,1.739-4.72,0.994
		c-0.049-0.199-0.198-0.298-0.248-0.497c1.391,0.149,2.683-0.198,3.676-1.242c0.596-0.347,1.341-0.396,1.937,0
		C83.993,17.464,84.291,17.613,84.539,17.912L84.539,17.912z"/>
	<path d="M81.36,22.034c0.348,0.298-0.199,0.397-0.298,0.695c-0.497,0.298-1.292,0.198-1.789,0
		c-0.298-0.248-0.845-0.497-0.895-0.894C79.323,22.034,80.366,22.283,81.36,22.034L81.36,22.034z"/>
	<path fill="#FFFFFF" d="M81.509,25.263c-0.049,1.342-1.143,2.782-2.483,3.478c-0.845,0.049-1.839,0.1-2.484-0.497
		c-1.341-1.292-0.249-3.329,0-4.769C78.181,24.121,79.919,24.468,81.509,25.263L81.509,25.263z"/>
	<path fill="#FFFFFF" d="M70.53,24.965c0.1,0.15,0.199,0.348,0.447,0.298c0-0.397,0.298-0.596,0.695-0.497
		c1.292-0.05,2.583-0.1,3.775-0.397c-0.198,1.341-0.695,2.732,0.099,3.975c0.795,1.291,2.236,1.739,3.776,1.44
		c1.739-0.646,1.938-3.527,4.023-2.882c0.795,1.093-0.049,2.483,0.05,3.775c-0.298,0.695-0.546,1.49-1.142,2.037
		c-0.746,0.198-1.441-0.05-2.037-0.447c-0.199-0.546-0.05-1.391-0.1-1.888c-0.397,0.149-0.745,0.596-0.695,1.043
		c-1.589-0.397-3.129,0.597-4.471-0.099c-0.198-0.497,0.546-0.497,0.795-0.795c-0.447-0.447-1.242-0.695-1.789-1.192
		c-0.148-0.596-0.099-1.292-0.447-1.838c-0.497,0.397-0.546,1.142-0.447,1.739c0.248,0.547,0.497,1.143,1.043,1.54
		c-0.348,0.05-0.746-0.447-1.093-0.745c-0.497,0.199-0.397,0.994-0.249,1.391c0.596,1.49,1.887,2.683,3.229,3.527l0.05,0.348
		c-2.186-0.497-4.422-0.845-6.657-1.292c-0.448-2.583,0.546-4.869,0.546-7.401l-0.497-1.292c-0.695,0.149,0.249,1.837-0.943,1.043
		c-0.298-0.696-0.05-1.541,0.497-1.987C69.537,24.816,70.431,23.873,70.53,24.965L70.53,24.965z"/>
	<path d="M79.771,27.102c-0.348,1.042-1.441,0.249-2.086,0.249c-0.397-0.298-0.447-0.845-0.596-1.143
		C77.882,26.753,78.876,27.2,79.771,27.102L79.771,27.102z"/>
	<path fill="#FFFFFF" d="M89.606,27.499c-0.298,1.142-1.093,2.286-2.236,2.832c-0.894,0.199-1.688-0.149-2.384-0.546
		c-1.143-0.944-0.049-2.286,0-3.428C86.576,26.704,88.166,26.952,89.606,27.499L89.606,27.499z"/>
	<path d="M87.471,29.039c0.099,0.099,0.248,0.347,0.099,0.497c-0.397,0.298-1.092,0.249-1.49,0.05
		c-0.199-0.398-0.794-0.546-0.497-0.994C86.179,28.84,86.725,29.486,87.471,29.039L87.471,29.039z"/>
	<path fill="#FFFFFF" d="M87.967,31.076l0.198-0.149c0.199,0.198,0.149,0.596,0.05,0.795c-0.497,0.695-1.143,1.49-2.037,1.391
		c-0.497,0.1-0.943-0.546-1.391-0.049c0.049,0.447,0.695,0.447,0.745,0.894c-0.596-0.298-1.143-1.292-1.888-1.49l0.646-2.136
		C85.185,31.373,86.725,31.572,87.967,31.076L87.967,31.076z"/>
	<path fill="#FFFFFF" d="M79.473,32.566c0.695,0.944,1.738,1.242,2.782,1.341c1.092-1.888,2.037,0.397,2.881,0.994
		c0.695,1.042,1.938,1.391,3.08,1.143c-0.199,0.646-0.895,1.142-1.54,1.44c-1.689,0-3.13-0.547-4.272-1.789
		c-0.695-0.447-0.298-2.186-1.59-1.44c-1.838,1.043-3.925,0.198-5.563-0.745c-0.597-0.646-1.44-0.994-1.688-1.839
		C75.25,33.211,77.485,32.168,79.473,32.566L79.473,32.566z"/>
	<path fill="#FFFFFF" d="M86.775,33.907c0,0.397-0.099,0.745-0.199,1.093c-0.695,0-0.347-0.646-0.248-0.994
		C86.427,33.808,86.625,33.758,86.775,33.907L86.775,33.907z"/>
	<path fill="#FFFFFF" d="M88.663,39.172c2.98,0.795,6.011,1.342,8.941,2.286c-0.248,0.347-0.695,0.646-0.895,0.993l0.198,0.199
		c1.59-0.794,2.981-1.987,4.868-2.086c0.447,0.249,0.397,0.746,0.646,1.143c-2.037,0.894-3.626,2.682-4.918,4.471
		c-0.646,1.341-2.384,3.08-0.944,4.521c-0.446,0.347-1.092,0.545-1.738,0.347c-0.397-0.397-0.894-0.696-1.242-1.192
		c-0.199-1.142,0.894-1.937,0.447-2.98c-0.646,0.745-1.241,1.789-1.341,2.881c-3.527-0.546-6.806-1.589-10.432-1.837
		c-4.074-1.093-8.495-1.44-12.519-2.683c-0.746,0.049-1.441-0.1-2.086-0.298c-0.1,0.05-0.298,0.05-0.298,0.198
		c0.249,0.596,0.993,0.646,1.54,0.795c-1.093,0.994-3.328,0.348-4.818,0.795c0.049,0.297,0.347,0.596,0.646,0.645
		c1.242-0.447,2.186,0.597,3.428,0.05c0.844-0.149,1.59-0.596,2.235-1.143l4.72,1.341c-0.049,0.795-0.894,1.541-0.944,2.385
		c0.944-0.1,1.49-1.341,1.888-2.086l7.65,1.391c2.384,1.242,4.073,3.626,6.011,5.563l2.831,3.527
		c0.199-0.05,0.497,0.099,0.646-0.149l-0.149-0.646l-4.023-4.719l0.049-2.235c1.59,0.149,3.329,0.447,4.173,1.788
		c0.943,0.745,1.987-0.1,2.931-0.248v0.248c-0.646,0.249-1.342,0.347-1.64,1.042c-0.049,0.845,0,1.64,0.696,2.087
		c-0.149,1.292-0.795,2.484-1.49,3.577c-0.397,0.497-0.745,1.341-1.341,1.391c-4.769-3.577-10.084-6.16-15.3-8.644l-2.334-0.695
		c-0.299,0.844,0.994,0.994,1.44,1.391c2.833,1.738,5.614,3.279,8.693,4.719c2.236,1.54,4.819,2.683,6.756,4.521
		c-0.249,0.845-0.597,1.639-1.043,2.285c0.497,0.646,1.49-0.149,2.235-0.248c3.577-1.54,7.253-5.316,7.304-9.539l3.18-0.993
		c2.334,3.329,4.32,7.004,6.109,10.432c0.348,1.143,0.943,2.384,1.392,3.577c1.291,3.825,2.633,7.75,4.122,11.426
		c-4.967,2.832-11.325,2.136-16.293,4.918l-4.57,1.688c-0.199,0.249,0.099,0.397,0.298,0.497c2.683,0,4.917-1.043,7.452-1.689
		c0.348,6.656-0.846,12.965-2.832,18.778c-0.943,2.98-3.924,5.066-6.458,6.706c-3.08,1.241-6.657,1.144-9.786,2.136
		c-0.696,0.598-1.59-0.1-2.385-0.1c-3.676-0.396-7.452-0.348-11.078,0.148c-1.739-0.248-3.825,0.051-5.514-0.447
		c-0.149,0.101-0.298,0.299-0.248,0.498c1.242,1.19,3.179,0.744,4.719,1.093c4.124-0.05,8.843-1.043,12.469,0.596
		c0.943,0.3,1.987,0.349,2.782,0.896c-0.199,0.845-0.795,1.539-1.242,2.285c-3.826-3.181-9.29-2.634-14.257-2.783
		c-2.286,0.3-4.421-0.348-6.408-1.043c0.249-1.737,1.49-3.029,2.334-4.521c3.428-3.575,7.75-5.266,11.674-7.749
		c0.447,0.844,0.447,2.285,1.341,3.079l0.149-0.099c-0.298-1.44-0.447-2.832-0.546-4.322l1.391-0.695
		c1.689,1.738,2.732,3.975,4.869,5.217c0.249,0.049,0.397-0.101,0.546-0.299c-3.626-3.875-5.861-8.346-8.494-12.667
		c5.117-0.845,9.638-3.08,14.207-5.266c0.895-0.944,2.137-1.142,3.03-2.036c1.59,0.198-0.05,2.285,0.944,2.931l0.398-0.695
		c0.646-5.515-0.447-11.376-0.895-16.94c-0.347-0.944-0.497-1.987-1.292-2.732L91.1,66.447c0.198,5.415,0.943,10.631,1.44,15.946
		c-6.408,4.074-13.91,5.812-21.312,7.601l-3.229,0.547c-2.186-4.322-2.136-10.184-1.192-15.102l0.447-2.881
		c0.497,0,1.143,0.596,1.541-0.05c-0.646-0.745-1.938-0.895-2.186-2.037c-0.199-0.645-0.149-1.291-0.1-1.987
		c0.398,0,0.695,0.895,1.043,0.299c-1.639-2.484-4.222-4.62-5.116-7.402c-2.037-5.614-3.18-11.625-3.428-17.934
		c0.199-2.782,0.895-5.315,1.987-7.7c1.541-1.888,4.272-1.392,6.409-1.143L88.663,39.172L88.663,39.172z"/>
	<path fill="#FFFFFF" d="M95.021,35.894c1.689,0,3.229,0.795,4.968,0.696c4.57,0.646,9.189,1.292,13.811,1.938
		c-0.099,0.397-0.646,0.894-0.199,1.242c1.145-1.242,2.436-2.98,4.422-2.534l0.148,0.149c-1.887,1.143-2.682,3.279-2.881,5.315
		c0.05,0.099,0.148,0.149,0.1,0.249c-3.975-0.1-7.75-0.646-11.476-1.391c-0.646-0.794-1.093-1.788-2.235-1.938
		c-1.191-0.049-2.285,0.199-3.18,0.944c-3.576-0.944-7.104-1.937-10.829-2.583c0.049-0.994,2.086-1.688,1.292-2.832
		c-0.596-0.099-1.192,0.448-1.689,0l0.199-0.496C90.004,35.148,92.488,35.298,95.021,35.894L95.021,35.894z"/>
	<path fill="#FFFFFF" d="M81.012,35.397l0.944,1.192c-1.689-0.049-3.13-0.745-4.819-0.894l-0.249-0.298
		C78.181,35.844,79.771,36.093,81.012,35.397L81.012,35.397z"/>
	<path fill="#FFFFFF" d="M134.464,40.166l1.889,0.397c1.192,1.242,1.392,3.08,0.746,4.67c-0.199,0.397-0.548,0.695-0.945,0.944
		l-0.348-0.05c0.397-0.944-0.05-2.037,0.101-3.081l-0.248-0.198c-0.497,0.696-0.149,1.789-0.497,2.583
		c-0.199,0.595-0.547,1.54-1.342,1.49c0.396-1.043,0-2.385-0.1-3.577c-0.1,0-0.199-0.298-0.298-0.099
		c-0.448,1.242,0.248,3.03-1.094,3.775c0-1.341,0.348-2.931-0.546-3.975h-0.149c-0.248,1.64,0.695,4.174-1.44,4.77
		c-0.496,0.347-0.943-0.051-1.439-0.1c-0.298-0.249-0.695-0.497-0.746-0.894c0.598-0.05,1.044-0.547,1.789-0.348
		c0.596-0.994-0.1-2.037-0.597-2.881c-0.198-0.1-0.347-0.547-0.695-0.547c-0.198,0.249-0.049,0.547,0,0.796l-2.831,0.794
		c-0.249-1.292,0.993-2.236,1.143-3.229c-0.646-0.049-1.143,0.746-1.64,1.143l-8.146-1.143c-0.348-1.093,0.248-2.086,0.992-2.832
		c1.541-0.844,2.832,0.646,4.422,0.497C126.517,39.172,130.589,39.521,134.464,40.166L134.464,40.166z"/>
	<path fill="#FFFFFF" d="M118.17,44.24c1.739,0.546,1.739,2.583,2.386,3.975l-0.547,1.391c-0.199-0.944-0.1-2.186-0.795-2.832
		c-0.348,1.54,0.248,2.534-0.447,3.925c-0.297-1.043,0.25-2.634-0.795-3.229c-0.348,0.844,0.148,1.938-0.199,2.881
		c0.051,0.547-0.396,1.043-0.894,1.292l-0.298,0.05c0.197-1.143,0.993-3.18,0-4.521c-0.198-0.1-0.298,0.198-0.298,0.347
		c0.1,1.392-0.249,2.732-0.796,3.875c-0.496,0.447-1.043,0.746-1.688,0.746c-0.546-0.398-0.646-0.994-0.993-1.44
		c0.348-0.2,0.695-0.448,1.191-0.398c0.1,0.05,0.148,0.199,0.35,0.15c0.396-0.497,0.396-1.292,0.147-1.888
		c-0.248-0.497-0.497-1.143-1.093-1.242c-0.299,0.099,0,0.348-0.101,0.497c-0.546,0.546-1.391,0.745-2.235,0.794
		c-0.049-0.845,0.598-1.689,0.299-2.434c-0.348,0.099-0.646,0.447-0.844,0.745c-3.527-0.596-7.006-1.242-10.383-2.235
		c0.198-0.944,0.993-1.937,1.938-2.236C107.291,43.047,112.806,43.644,118.17,44.24L118.17,44.24z"/>
	<path fill="#FFFFFF" d="M101.628,51.045c-1.54,0.695-3.328,0.795-4.918,1.391c-0.099-1.093,1.191-1.093,1.838-1.639l1.59-1.541
		C100.783,49.704,101.082,50.35,101.628,51.045L101.628,51.045z"/>
	<path fill="#FFFFFF" d="M87.222,50.35l-0.05,0.547l-0.695-0.795C86.824,50.002,86.974,50.25,87.222,50.35L87.222,50.35z"/>
	<path d="M100.188,50.598c0.1,0.298,0.1,0.547-0.101,0.795c-0.397,0.099-0.397-0.298-0.348-0.497
		C99.592,50.549,100.038,50.45,100.188,50.598L100.188,50.598z"/>
	<path fill="#FFFFFF" d="M99.194,54.572c-0.846,3.229-3.577,6.11-6.458,7.7c1.44-2.186,2.534-4.471,3.428-6.855
		C97.207,55.169,98.2,54.871,99.194,54.572L99.194,54.572z"/>
	<path d="M103.317,64.011c0.05,0.597-0.944,0-0.896,0.696c-0.05,0.397,0.05,0.695,0.349,0.944c0.597,0.199,1.191-1.44,1.489-0.149
		c0.101,0.497-0.397,0.795-0.795,0.944c-0.596-0.099-1.44,0-1.589-0.795c-0.199-0.646-0.15-1.292,0.248-1.838
		C102.423,63.663,103.067,63.564,103.317,64.011L103.317,64.011z"/>
	<path d="M96.908,66.098c-0.497,0.546-0.497,1.44-0.198,2.086l0.795-0.397c0.199,0.596-0.05,1.192-0.597,1.44
		c-0.348,0.249-0.596-0.198-0.943-0.248c-0.695-0.745-0.199-1.887,0.049-2.683C96.312,66.246,96.661,65.7,96.908,66.098
		L96.908,66.098z"/>
	<path d="M83.943,72.456c-0.1,0.895,0.149,1.739,0,2.584c-0.249,0.148-0.447-0.149-0.597-0.298c-0.049-0.397,0.15-0.844-0.198-1.093
		c-2.633,1.391-5.812,1.292-8.942,1.143l-0.05-0.447c3.428,0,6.458-1.192,9.538-2.186L83.943,72.456L83.943,72.456z"/>
	<path d="M106.147,72.854c0.149,0.447-0.396,0.397-0.446,0.745c-0.198,0.447-0.147,1.143-0.05,1.639
		c0.298,0.298,0.943,0.249,1.291,0.099l0.397-0.447c0.397,0.149,0.298,0.695,0.149,1.043c-0.497,0.497-1.143,0.497-1.739,0.199
		c-0.547-0.298-0.993-0.795-0.894-1.49C105.056,73.946,105.104,72.556,106.147,72.854L106.147,72.854z"/>
	<path d="M99.243,75.933c-0.446,0.448-0.993,1.093-1.143,1.789c0.348,0.397,0.844,0.397,1.342,0.447l0.646-0.746
		c0.397,0.149,0.249,0.795,0.101,1.093c-0.498,0.249-1.094,0.894-1.689,0.397c-0.396-0.298-1.043-0.596-1.043-1.142
		c-0.1-0.944,0.298-1.739,1.043-2.236C98.797,75.536,99.194,75.536,99.243,75.933L99.243,75.933z"/>
	<path fill="#FFFFFF" d="M112.062,81.447c1.043,5.415,1.439,11.228,1.34,16.94c-0.547,2.582-1.737,5.463-4.618,6.209
		c-0.847,0.297-1.689,0.496-2.386,1.191c0.049,0.396,0.496,0.248,0.746,0.348l1.688-0.298l-0.596,3.478
		c-3.976,0.349-8.396,0.746-12.618,0.597c1.639-1.093,3.18-2.683,4.123-4.371c0.497,0,1.043,0.547,1.489,0
		c-0.147-0.597-0.795-0.447-1.092-0.896c0.446-0.545,0.1-1.888,1.241-1.688c0.497-0.1,1.144,0.1,1.44-0.448
		c0.1-0.396-0.299-0.396-0.547-0.546h-1.094l0.348-1.49c0.646-0.248,1.689,0.299,2.037-0.496c-0.1-0.248-0.248-0.597-0.547-0.646
		l-1.142,0.05l0.794-5.067c0.646-0.397,1.59-0.298,2.285-0.745c-0.049-0.298-0.248-0.546-0.596-0.596l-1.393,0.1l0.1-3.229
		c0.598-0.249,1.541-0.199,1.74-1.043c-0.498-0.447-1.045-0.199-1.641-0.199c-0.148-0.397-0.199-0.794-0.148-1.242
		c0.496-0.249,1.241-0.249,1.489-0.944c0-0.248-0.049-0.447-0.248-0.596c-0.397,0.049-0.745,0.348-1.142,0.249
		c0.248-0.795-0.746-2.484,0.595-2.534c1.642-0.297,3.229-0.794,4.819-1.192C109.774,82.143,110.917,81.845,112.062,81.447
		L112.062,81.447z"/>
	<path fill="#FFFFFF" d="M107.59,113.638c1.192-0.496,2.683,0.397,3.576-0.844h0.198c-0.596,1.241-2.036,1.391-3.278,1.49
		c-4.967-0.051-9.735-0.846-13.71-3.479l0.148-0.248C98.25,113.091,102.87,114.035,107.59,113.638L107.59,113.638z"/>
	<path fill="#FFFFFF" d="M67.251,115.426c5.167,2.037,10.532,3.677,15.798,5.515v0.447c-5.564-1.787-11.625-2.731-16.99-5.166
		c-1.391,0.446-2.186-0.845-3.427-0.895c-0.646-0.199-1.392-0.348-2.137-0.348l0.249-0.598
		C62.88,114.729,64.917,115.625,67.251,115.426L67.251,115.426z"/>
	<path fill="#FFFFFF" d="M64.321,116.966l-0.05,1.393c-1.49-0.349-3.03-0.994-3.875-2.336c0.596-0.547,1.441,0.101,2.136,0.148
		L64.321,116.966L64.321,116.966z"/>
	<path fill="#FFFFFF" d="M68.245,118.308c4.074,1.043,8.048,2.436,12.171,3.379c0.547,0.148,1.143,0.446,1.59,0.646
		c-3.627,0.744-7.104-0.448-10.432-1.242c-1.987-0.547-3.775-1.64-5.464-2.932c-0.447-0.101-0.596,0.547-1.093,0.446
		c-0.05-0.596,0.1-1.34,0.547-1.64C66.606,117.115,67.302,118.06,68.245,118.308L68.245,118.308z"/>
</g>
</svg>
