<?xml version="1.0" encoding="utf-8"?>
<!-- Generator: Adobe Illustrator 16.0.0, SVG Export Plug-In . SVG Version: 6.00 Build 0)  -->
<!DOCTYPE svg PUBLIC "-//W3C//DTD SVG 1.1//EN" "http://www.w3.org/Graphics/SVG/1.1/DTD/svg11.dtd">
<svg version="1.1" id="Layer_1" xmlns="http://www.w3.org/2000/svg" xmlns:xlink="http://www.w3.org/1999/xlink" x="0px" y="0px"
	 width="160.246px" height="155.296px" viewBox="16.256 18.729 160.246 155.296"
	 enable-background="new 16.256 18.729 160.246 155.296" xml:space="preserve">
<g>
	<path d="M56.33,147.499c-0.755,4.154-1.321,8.497-1.699,12.84c-0.189,2.266,0.189,4.153,1.699,5.477
		c1.133,0.942,2.644,1.32,4.909,1.51c1.322,0,2.644-0.377,3.965-0.943c2.643-0.943,5.098-2.833,7.364-5.476c0,0,0,0.378,0,0.565
		c3.776,4.909,8.119,7.553,13.783,5.098c2.077-0.754,4.154-2.076,6.608-4.153c6.985-6.797,8.497-15.104,7.175-24.168
		c-1.889-6.042-5.665-8.496-13.784-3.587c-0.944,0.755-2.077,1.51-3.21,2.454c1.133-6.042,2.077-12.272,3.21-18.314
		c0.189-0.944,0.378-1.698,0.566-2.644c0.189-0.756,0-1.321-0.566-1.699c-1.699-1.889-7.364-0.378-7.741,2.077
		c-1.888,11.14-3.965,22.278-6.042,33.229c0,2.077,0,4.154,0,6.231c-2.455,3.587-5.287,5.664-7.364,5.664
		c-1.511,0-2.455-1.134-2.077-3.776c0.566-4.908,1.321-9.818,2.077-14.728c0.566-3.021,1.133-6.23,1.699-9.253
		c0.189-1.133-0.566-1.887-1.699-2.075c-2.077-0.566-5.665,0.755-6.231,2.832C58.029,138.813,57.085,143.156,56.33,147.499
		L56.33,147.499z M86.351,162.038c-3.021,2.266-5.665,1.51-6.042-3.398c-0.189-6.23,0.566-12.272,4.154-17.183
		c0.566-0.944,1.322-1.699,1.888-2.077c2.644-1.888,5.476-0.755,6.042,3.021c0.755,7.74-0.566,14.16-4.532,18.125
		C87.484,161.094,86.917,161.66,86.351,162.038L86.351,162.038z M86.351,98.976c2.455,0.188,4.909,0.377,7.364,0.377
		c17.56-4.153,30.021-13.218,31.909-31.91c0.378-9.44-5.286-15.105-15.104-13.972c-5.287,1.133-10.764,6.608-16.05,13.406
		c-2.643-3.587-5.475-6.608-8.119-9.063c-4.909-4.532-9.818-6.797-15.105-5.098c-2.832,0.944-4.72,2.455-6.042,4.343
		c-1.888,2.832-1.699,6.797,0,11.14c1.133,2.643,2.832,5.476,4.909,8.308c5.476,4.909,10.951,8.119,16.238,10.762
		c1.699,0.755,3.21,1.322,4.72,2.077c2.833,1.133,2.266,2.832,0.566,2.644c-1.699-0.189-3.398-0.378-5.287-0.566
		C79.364,90.48,72,89.347,65.203,86.137c-3.021-1.322-6.042-3.209-8.875-5.476c-3.21-2.832-6.042-6.231-8.497-10.573
		c-7.175-13.217-1.51-23.413,8.497-27.945c2.833-1.321,5.854-2.077,8.875-2.455c7.175-0.755,14.728,0.944,21.147,5.287
		c2.832,1.888,5.287,4.343,7.364,7.363c11.518-11.14,25.68-15.671,39.273-9.818c16.615,7.175,11.518,32.854,1.32,43.994
		c-10.951,12.65-25.49,20.014-38.329,22.28c-3.21-0.378-6.42-0.943-9.63-1.511c-7.552-1.322-14.539-3.21-21.147-5.476
		c-3.021-0.945-6.042-2.268-8.875-3.398C21.777,83.114,8.56,55.736,20.833,36.1C28.196,24.582,41.98,19.106,56.33,18.729
		c3.021,0,6.042,0.189,8.875,0.566c7.552,0.755,14.916,3.021,21.147,6.231c3.587,1.888,6.797,4.154,9.63,6.608
		c31.342-21.525,73.07-14.728,79.869,10.762c3.588,13.972-7.176,45.126-43.994,56.078c22.092-14.35,35.309-36.44,26.435-53.057
		c-10.385-19.259-41.728-18.692-63.819-3.209c-2.832-1.7-5.475-3.21-8.119-4.721c-7.552-3.776-14.35-6.042-21.147-6.608
		c-2.832-0.377-5.853-0.377-8.875,0c0,0.189-0.188,0.189-0.188,0.189c-21.147,2.266-45.693,23.413-12.65,50.98
		c3.965,3.209,8.307,6.042,12.839,8.307c2.833,1.322,5.854,2.644,8.875,3.588C72.001,96.708,79.176,98.219,86.351,98.976
		L86.351,98.976z M139.974,135.228c0.756-3.965,8.119-4.344,8.119-1.322c0,3.588-0.566,7.176-0.755,10.763
		c3.397-4.153,6.42-8.119,10.386-11.329c3.965-3.398,6.797-2.076,7.74,0.944c1.699,6.608,2.266,16.805,3.587,25.112
		c0.567,3.586,2.267,4.343,6.421,1.889c0.188,0.564,0.565,1.32,0.188,2.076c-2.077,2.266-4.722,3.965-8.119,4.531
		c-3.776,0.756-5.665-0.756-6.229-3.966c-1.135-6.419-1.701-13.028-3.021-19.259c-0.755-3.21-3.021-3.775-5.287-1.133
		c-5.477,6.23-7.363,13.404-8.874,20.392c-0.378,1.322-1.133,2.267-2.455,2.832c-1.321,0.566-2.832,0.566-4.153,0.378
		c-2.644-0.378-2.644-1.699-2.076-3.21C136.953,154.297,138.464,144.856,139.974,135.228L139.974,135.228z M122.792,131.828
		c-6.042,6.229-10.764,17.56-9.439,26.435c1.133,5.663,5.285,5.663,8.119,1.51c3.209-4.531,5.098-10.008,3.965-17.56
		c-0.379-3.399-2.267-3.21-4.722-3.021c1.322-3.021,3.021-5.664,6.42-5.664c4.343-0.189,7.175,3.775,6.798,7.93
		c-1.511,11.706-5.099,21.714-14.351,24.924c-7.363,2.643-13.217,0.755-14.728-6.042
		C101.646,146.556,109.765,132.205,122.792,131.828L122.792,131.828z M65.204,119.178c2.266-0.378,4.342,0.943,4.342,2.267
		c0.378,2.076,0,3.965-1.321,5.475c-0.755,0.943-1.699,1.7-3.021,2.077c-1.888,0.565-3.776,0-4.343-3.21
		c-0.189-2.076,0.566-3.965,1.888-5.098C63.505,119.743,64.449,119.366,65.204,119.178L65.204,119.178z M56.33,119.366
		c2.077,0.943,3.021,3.398,0.378,7.175c0,0.188-0.189,0.377-0.378,0.565c-3.965,5.854-10.573,10.574-17.371,15.86
		c2.832,9.063,6.231,17.56,11.706,24.546c1.322,0.944,2.833,0.566,4.154,0c0.944,0.188,1.51,0.379,1.51,0.756v0.565
		c0,0.188-0.188,0.565-0.566,0.944c-2.077,1.32-3.776,2.832-6.042,3.775c-3.398,1.321-5.665-0.378-7.364-2.076
		c-5.665-5.854-8.497-20.015-11.895-22.092c-0.566,5.854-1.133,11.896-3.21,17.561c-2.077,6.229-5.287,6.986-8.119,6.607
		c-2.833-0.565-3.399-1.511-2.455-3.588c5.098-11.328,6.608-27.943,8.497-44.183c0.377-2.644-1.133-3.587-2.833-3.966
		c-0.944-0.188-2.077,0-3.021,0c-0.189-0.565-0.944-0.754,0-1.887c2.455-1.322,5.287-2.455,8.119-3.211
		c6.231-1.32,8.308,1.512,7.93,5.477c-0.755,6.42-2.265,12.84-3.398,19.259c5.098-0.377,13.028-10.763,15.671-18.881
		C48.777,118.987,53.687,117.854,56.33,119.366L56.33,119.366z"/>
</g>
</svg>
