<?xml version="1.0" encoding="utf-8"?>
<!-- Generator: Adobe Illustrator 16.0.0, SVG Export Plug-In . SVG Version: 6.00 Build 0)  -->
<!DOCTYPE svg PUBLIC "-//W3C//DTD SVG 1.1//EN" "http://www.w3.org/Graphics/SVG/1.1/DTD/svg11.dtd">
<svg version="1.1" id="Layer_1" xmlns="http://www.w3.org/2000/svg" xmlns:xlink="http://www.w3.org/1999/xlink" x="0px" y="0px"
	 width="175.746px" height="64.557px" viewBox="8.504 64.098 175.746 64.557" enable-background="new 8.504 64.098 175.746 64.557"
	 xml:space="preserve">
<g>
	<path fill="#FFC621" d="M79.321,65.255c1.955,6.913,3.934,13.823,4.415,21.353c0.917,9.113-0.211,18.249-1.852,26.782
		c-0.647,1.717-0.647,3.693-1.524,5.377c-0.705,0.164-1.334,0.849-2.103,0.637c-1.315-1.229-0.563-3.043-0.708-4.5
		c0.979-1.87,0.083-4.479,0.917-6.396c0.56-4.78,1.727-9.298,1.644-14.289c-0.123-4.146-0.186-8.716-0.499-12.433l-2.668-12.825
		l-0.248-0.225c-4.187,4.893-7.688,10.003-9.188,15.949c-0.311,2.133-0.041,4.528-0.354,6.657c-0.583,0.446-1.563,0.705-2.25,0.311
		c-2.833-2.92-2.481-6.941-2.936-10.747c-1-2.94-0.604-6.63-2.942-8.767c-0.726,2.242-1.768,4.399-2.708,6.545
		c-3.684,9.355-3.019,21.215-2.269,31.424c0.477,3.045,1.149,5.988,2.458,8.64c0.023,0.42-0.25,0.854-0.625,1.006
		c-0.416,0.063-1.082,0.037-1.523-0.276c-1.104-2.088-2.122-4.316-2.892-6.552c-0.961-3.458-1-7.321-1.249-11.083
		c0.102-5.005,0.371-10.004,0.811-14.927c0.604-1.99,1.394-3.949,1.644-6.082c0.626-1.196,0.564-2.753,1.441-3.871
		c0.872-3.039,2.353-5.867,3.666-8.743c0.457-0.436,1.246-0.651,1.83-0.246c3.896,2.606,4.751,7.292,5.23,11.803l0.249,0.225
		c1.023-1.728,1.858-3.642,3.085-5.192l0.104-0.712c2.23-2.899,4.063-5.738,6.857-8.331c0.582-0.678,1.582-0.708,1.976-1.669
		C77.966,64.264,78.589,64.857,79.321,65.255L79.321,65.255z"/>
	<path fill="#FFC621" d="M14.171,69.654c2.021,6.671,0.856,14.63,1.499,21.584c-0.29,7.929-2.417,15.169-3.103,22.957
		c-0.647,1.677-1.167,3.441-1.521,5.24c3.294-0.156,6.731-1.588,10.146-0.801c0.478-0.062,1.144,0.193,1.457-0.236
		c1,1.705-0.73,3.504-1.519,5.14c-2.961,1.938-7,2.256-10.772,2.381c-2.125-1.442-1.876-4.228-1.811-6.64
		c2.375-11.06,3.166-22.726,3.954-34.396c-0.436-4.698,0.065-9.427,0-14.375c0.462-0.348-0.121-1.08,0.526-1.387
		C13.502,69.112,14.149,69.088,14.171,69.654L14.171,69.654z"/>
	<path fill="#FFC621" d="M180.929,69.218c-3.898,2.007-7.48,4.719-12.025,5.292l-1.162-0.763c2.355-0.398,4.021-2.296,6.123-3.257
		l5.979-2.794C180.385,68.104,180.717,68.656,180.929,69.218L180.929,69.218z"/>
	<path fill="#FFC621" d="M99.383,73.494c-1.875,5.952-4.375,11.642-5.292,17.935c-0.519,4.641-0.833,9.315,0.019,14
		c0.276,0.984,1.065,1.758,1.084,2.799c-1.06,0.269-1.354-1.518-2.539-1.474c-3.313-4.841-2.084-11.955-1.23-17.403
		c1.46-5.847,2.583-11.915,6.333-16.937l0.771-0.593C99.11,72.274,98.819,73.037,99.383,73.494L99.383,73.494z"/>
	<path fill="#FFC621" d="M123.526,74.666c1.689,4.041,0.711,8.603,0.045,12.77c-1.045,2.491-1.629,5.094-2.44,7.67
		c-0.56,0.344-0.668,1.016-0.521,1.479c0.796,2.286,0.961,4.869,1.937,7.061c1.109,3.35,2.229,6.612,3.397,9.97
		c0.479,0.784,0.896,1.62,1.062,2.559c-1.104,0.509-1.125,2.767-2.748,2.351c-1.564-1.873-1.982-4.408-3.148-6.59
		c-1.77-3.662-2.873-7.632-3.998-11.604c0.166-0.478,0.209-1.095,0.187-1.468c2.521-5.125,4.606-10.426,4.877-16.375
		c-0.502-2.341-1.211-5.332-4.045-5.945c-0.646,1.997-0.287,3.921-0.457,6.099c-1.146,6.007-0.896,12.463-2.312,18.735
		c-0.315,3.268-0.647,6.48-0.813,9.782c-0.411,0.396-0.062,1.038-0.334,1.475c-1.162,0.324-0.644,3.228-2.062,1.523
		c-0.295-4.415-0.211-9.035,0.207-13.347c-0.479-4.882,0.75-9.165,0.582-13.92c0.814-3.936,0.666-8.218,0.961-12.378
		c0.418-0.535,0-1.417,0.271-2.038C117.299,71.661,121.881,70.663,123.526,74.666L123.526,74.666z"/>
	<path fill="#FFC621" d="M100.487,72.418c3.955,4.061,4.521,9.703,5.916,14.889c0.603,10.115-0.02,20.081-1.293,29.639
		c-0.893,3.426-1.918,6.711-2.604,10.176c-0.73,0.59-0.688,1.908-1.873,1.432c-1.461-2.545,0.498-4.965,0.227-7.598
		c1.646-6.842,1.793-14.248,2.439-21.479c0.438-2.753-2.961-1.129-4.357-1.889c-0.457-0.081-0.957-0.535-1.059-0.95l0.227-0.249
		l5.082-0.167c0.127-0.753,0.166-1.84-0.205-2.487c-1.647,0.569-3.438,0.586-4.961-0.167c-0.311-0.419-0.977-0.817-0.623-1.355
		c1.979,0.085,3.918-0.354,5.75-0.276c0.398-5.38-0.627-10.674-1.979-15.581c-0.646-1.066-0.687-2.429-1.479-3.441
		C99.692,72.54,100.153,72.101,100.487,72.418L100.487,72.418z"/>
	<path fill="#FFC621" d="M184.237,70.806c0.189,1.785-1.836,1.758-2.752,2.589c-1.25,0.324-2.227,1.107-3.332,1.806l-5.918,2.031
		c-0.559-0.078-1.27-0.191-1.582-0.753c-0.145-0.463,0.212-0.708,0.062-1.131c4.295-1.602,8.482-3.339,12.75-5.083
		C183.929,70.155,184.217,70.38,184.237,70.806L184.237,70.806z"/>
	<path fill="#FFC621" d="M153.676,75.767l0.334,0.46c-0.646,4.828-2.666,9.182-2.938,14.143l0.25,0.178h4.521
		c0.227-0.48,0.291-1.053,0.623-1.489c0.395-4.811,2-9.114,3.271-13.587c0.604-0.348,0.918,0.726,1.479,0.756
		c2.25,1.151,0.25,3.244,0.646,4.93c-1.314,8.855-3.541,17.311-4.23,26.388c-0.27,4.674-0.23,9.199-0.352,13.822
		c-0.504,0.531-1.23,0.041-1.791,0.055c-1.73-1.166-1.461-3.152-1.859-4.928c0.379-0.295,0.084-0.572-0.018-0.895
		c-0.289-7.351,0.646-14.26,1.793-21.084c-1.73-0.041-3.357-0.453-4.793-1.209c-0.688,5.154-1.25,10.596-1.416,15.648
		c-0.521,0.108-1.189-0.062-1.709-0.274c-2.045-3.285-0.998-7.738-0.855-11.521c0.98-6.396,1.75-12.876,3.25-19.104
		c0.562-1.335,1.416-2.545,1.646-4.01C152.676,74.155,152.76,75.606,153.676,75.767L153.676,75.767z"/>
	<path fill="#FFC621" d="M143.485,80.056l0.023,0.801c-3.896,4.984-8.064,10.024-8.604,16.357
		c-1.023,5.029-2.062,12.174,1.666,16.348c2.604,3.211,6.584,3.936,9.145,7.057c-0.166,0.668,0.562,1.438-0.125,1.932
		c-0.082,0.287,0.186,0.375,0.104,0.664c-1.5,0.424-2.623-0.908-3.896-1.338c-4.916-2.855-10.604-6.727-11.354-12.729
		c-1.625-11.826,3.271-22.308,10.711-31.271C142.194,78.216,142.844,79.324,143.485,80.056L143.485,80.056z"/>
	<path fill="#FFC621" d="M168.151,86.179c3.795-0.688,7.357-0.004,10.418,1.595c0.523,0.357,0.832,0.821,0.857,1.435
		c-0.377,0.102-0.562,0.579-0.312,0.902c0.581,0.211,0.646,1.016,0.286,1.359c-0.852,0.078-2.102,0.491-2.748-0.242l-6.873,0.32
		c-1.231,1.077-0.897,2.757-1.897,3.929c0.127,2.208-0.854,4.034-1.062,6.116l0.229,0.225c2.498-0.225,4.878-0.816,7.562-0.715
		c0.873,0.527-0.146,1.227,0.082,1.929c-2.248,1.911-5.829,1.888-8.584,1.741c-0.895,2.523-1.12,5.688-0.705,8.319
		c1.248,0.994,2.625-0.186,4.041-0.045c0.705,0.125,1.289,0.527,2.039,0.498c0.275,1.031-0.02,1.802,0.107,3.06
		c-2.834-0.088-6.293,2.33-8.27-0.853c-3.562-6.437,0.059-13.771,0.686-20.383c0.938-3.333,1.77-6.709,2.604-10.035L168.151,86.179
		L168.151,86.179z"/>
	<path fill="#FFC621" d="M33.863,93.47c-0.192,2.787-0.711,5.68-3.169,7.315c-1.5-0.089-3.625,1.062-4.313-0.75
		c2.354-0.316,4.167-2.638,5.123-4.691c0.396-1.383-0.539-2.437-1.643-3.016c-2.749-0.378-4.272,2.075-6,3.97
		c-1.96,3.223-2.563,8.096-0.294,11.417c1.065,1.711,3.045,1.782,4.814,1.445c3.752-0.972,6.874-3.295,10-5.653
		c-0.186,0.334-0.062,1.084-0.417,1.477c-1.729,2.363-2.041,5.484-4.519,7.406c-3.025,1.37-7.046,0.983-9.646-1.053
		c-3.521-3.513-6.585-8.225-4.418-13.343c1.312-3.618,4.647-6.603,8.397-7.481C30.298,90.145,32.568,91.531,33.863,93.47
		L33.863,93.47z"/>
</g>
</svg>
