<?xml version="1.0" encoding="utf-8"?>
<!-- Generator: Adobe Illustrator 16.0.0, SVG Export Plug-In . SVG Version: 6.00 Build 0)  -->
<!DOCTYPE svg PUBLIC "-//W3C//DTD SVG 1.1//EN" "http://www.w3.org/Graphics/SVG/1.1/DTD/svg11.dtd">
<svg version="1.1" id="Layer_2" xmlns="http://www.w3.org/2000/svg" xmlns:xlink="http://www.w3.org/1999/xlink" x="0px" y="0px"
	 width="406.065px" height="406.066px" viewBox="120.967 36.967 406.065 406.066"
	 enable-background="new 120.967 36.967 406.065 406.066" xml:space="preserve">
<g>
	
		<linearGradient id="SVGID_1_" gradientUnits="userSpaceOnUse" x1="-35.0928" y1="120.9165" x2="-34.0928" y2="120.9165" gradientTransform="matrix(167.1538 220.4346 -220.4346 167.1538 32775.0625 -12315.6719)">
		<stop  offset="0" style="stop-color:#345D9E"/>
		<stop  offset="1" style="stop-color:#4F71B7"/>
	</linearGradient>
	<path fill="url(#SVGID_1_)" d="M143.937,181.45v177.765c0,33.643,27.208,60.853,60.847,60.853h238.434
		c33.641,0,60.848-27.21,60.848-60.853V182.072c-51.463,13.454-112.911,21.27-178.885,21.27
		C258.174,203.342,195.867,195.284,143.937,181.45 M121.022,107.005c-0.036,0.943-0.055,1.893-0.055,2.844v260.303
		c0,40.172,32.708,72.881,72.887,72.881h260.293c40.179,0,72.885-32.709,72.885-72.881V109.849c0-0.49-0.005-0.983-0.016-1.471
		v67.114c-3.059,0.958-6.164,1.897-9.308,2.813v185.867c0,38.336-31.204,69.541-69.539,69.541H199.83
		c-38.334,0-69.54-31.205-69.54-69.541V177.611c-3.146-0.934-6.25-1.89-9.308-2.866V109.44
		C120.982,108.625,120.996,107.813,121.022,107.005"/>
	<path fill="#7992C4" d="M143.937,120.694c0-33.553,27.208-60.845,60.847-60.845h238.434c33.641,0,60.848,27.292,60.848,60.845
		v238.521c0,33.643-27.207,60.853-60.848,60.853H204.783c-33.639,0-60.847-27.21-60.847-60.853L143.937,120.694 M130.29,115.827
		v248.345c0,38.336,31.206,69.541,69.54,69.541h248.341c38.335,0,69.539-31.205,69.539-69.541V115.827
		c0-38.332-31.204-69.538-69.539-69.538H199.83C161.496,46.289,130.29,77.495,130.29,115.827"/>
	<path fill="#D4DEF1" d="M457.478,36.967H189.751c-1.8,0-3.578,0.091-5.345,0.226c-34.937,4.556-62.199,33.944-63.384,69.812
		c1.499-38.863,33.605-70.038,72.832-70.038h260.293c39.688,0,72.085,31.912,72.869,71.411v-0.142
		c-0.586-35.795-27.113-65.417-61.566-70.8C462.833,37.137,460.176,36.967,457.478,36.967"/>
	
		<linearGradient id="SVGID_2_" gradientUnits="userSpaceOnUse" x1="-35.0923" y1="120.6514" x2="-34.0927" y2="120.6514" gradientTransform="matrix(167.1538 220.4346 -220.4346 167.1538 32775.0625 -12315.6719)">
		<stop  offset="0" style="stop-color:#607BB4"/>
		<stop  offset="1" style="stop-color:#6E89C5"/>
	</linearGradient>
	<path fill="url(#SVGID_2_)" d="M443.217,59.849H204.783c-33.639,0-60.847,27.292-60.847,60.845v60.755
		c51.93,13.834,114.237,21.892,181.243,21.892c65.974,0,127.422-7.816,178.884-21.27v-61.378
		C504.062,87.142,476.855,59.849,443.217,59.849 M454.147,36.967H193.854c-39.227,0-71.333,31.175-72.832,70.038
		c-0.026,0.808-0.04,1.621-0.04,2.435v65.305c3.058,0.977,6.162,1.933,9.308,2.866v-61.784c0-38.332,31.206-69.538,69.54-69.538
		h248.341c38.335,0,69.539,31.206,69.539,69.538v62.478c3.144-0.916,6.249-1.854,9.308-2.813v-67.114
		C526.232,68.878,493.836,36.967,454.147,36.967"/>
	<path fill="#86A0CE" d="M448.171,46.289H199.83c-38.334,0-69.54,31.206-69.54,69.538v61.784c4.465,1.325,9.013,2.604,13.646,3.838
		v-60.755c0-33.553,27.208-60.845,60.847-60.845h238.434c33.641,0,60.848,27.292,60.848,60.845v61.378
		c4.634-1.211,9.179-2.466,13.646-3.767v-62.478C517.71,77.495,486.506,46.289,448.171,46.289"/>
	<path fill="#FFFFFF" d="M432.95,146.672h26.031v-52.68h-56.437c-34.276,0-62.062,27.786-62.062,62.062v31.515h-44.521v52.681
		h44.521v162.21h69.238V240.25h49.259v-52.681h-49.259v-17.672C409.724,157.071,420.123,146.672,432.95,146.672z"/>
</g>
</svg>
