<?xml version="1.0" encoding="utf-8"?>
<!-- Generator: Adobe Illustrator 16.0.0, SVG Export Plug-In . SVG Version: 6.00 Build 0)  -->
<!DOCTYPE svg PUBLIC "-//W3C//DTD SVG 1.1//EN" "http://www.w3.org/Graphics/SVG/1.1/DTD/svg11.dtd">
<svg version="1.1" id="Layer_1" xmlns="http://www.w3.org/2000/svg" xmlns:xlink="http://www.w3.org/1999/xlink" x="0px" y="0px"
	 width="173.825px" height="91.71px" viewBox="334.032 251.785 173.825 91.71"
	 enable-background="new 334.032 251.785 173.825 91.71" xml:space="preserve">
<path d="M347.996,251.785c-7.702,0-13.964,6.268-13.964,14.011v63.75c0,7.679,6.262,13.949,13.964,13.949h145.875
	c7.809,0,13.986-6.271,13.986-13.949v-63.75c-0.002-8.009-5.67-14.011-13.338-14.011H347.996L347.996,251.785z M335.955,329.544
	v-63.75c0-6.637,5.439-12.015,12.041-12.015h146.523c6.607,0,11.346,5.146,11.346,12.015v63.751c0,6.633-5.227,12.002-11.994,12.002
	H347.996C341.395,341.546,335.955,336.178,335.955,329.544L335.955,329.544z M420.755,284.815h-2.451l-0.329-6.443
	c-0.157-2.972-0.226-5.035-0.21-6.482h-0.068c-0.461,1.848-1.039,3.689-1.721,5.806l-2.363,6.977h-1.852l-2.244-6.86
	c-0.668-2.114-1.213-3.994-1.623-5.922h-0.042c-0.075,2.363-0.167,4.468-0.271,6.601l-0.354,6.325h-2.324l1.046-15.457h3.174
	l2.267,6.676c0.562,1.684,1.056,3.491,1.464,5.325h0.063c0.463-1.915,0.948-3.722,1.469-5.325l2.288-6.676h3.174L420.755,284.815
	L420.755,284.815z M431.783,282.1v-4.042c0-3.044-1.492-4.551-4.293-4.551c-1.434,0-2.734,0.326-3.799,0.986l0.518,1.515
	c0.854-0.57,1.848-0.823,2.91-0.823c1.383,0,2.137,0.711,2.137,2.209v0.212c-1.912-0.016-3.449,0.344-4.615,1.076
	c-1.166,0.734-1.74,1.797-1.74,3.034c0,0.925,0.295,1.693,0.889,2.32c0.648,0.688,1.518,1.028,2.592,1.028
	c1.295,0,2.262-0.518,3.029-1.56h0.072l0.182,1.311h2.27C431.833,284.145,431.783,283.24,431.783,282.1L431.783,282.1z
	 M429.267,281.401c-0.104,0.494-0.398,0.938-0.836,1.295c-0.408,0.349-0.861,0.525-1.354,0.525c-0.443,0-0.855-0.147-1.182-0.445
	c-0.33-0.295-0.494-0.743-0.494-1.305c0-1.457,1.391-2.219,3.922-2.175v1.746C429.324,281.18,429.296,281.299,429.267,281.401
	L429.267,281.401z M444.683,284.815h-2.242l-0.113-1.825h-0.07c-0.717,1.383-1.816,2.075-3.357,2.075
	c-1.369,0-2.508-0.538-3.406-1.614c-0.906-1.071-1.365-2.348-1.365-4.034c0-1.839,0.494-3.329,1.48-4.385
	c0.953-0.994,2.131-1.525,3.512-1.525c1.361,0,2.328,0.519,2.932,1.498v-6.339h2.531v13.082
	C444.582,282.856,444.619,283.881,444.683,284.815L444.683,284.815z M442.05,280.174v-1.896c0-0.329-0.012-0.594-0.064-0.798
	c-0.141-0.608-0.441-1.117-0.879-1.53c-0.42-0.412-0.916-0.621-1.496-0.621c-0.865,0-1.607,0.375-2.146,1.123
	c-0.535,0.747-0.809,1.708-0.809,2.878c0,1.127,0.262,1.963,0.779,2.591c0.545,0.749,1.273,1.123,2.131,1.123
	c0.738,0,1.324-0.312,1.768-0.934C441.816,281.542,442.05,280.988,442.05,280.174L442.05,280.174z M456.783,278.743
	c0,0.449-0.027,0.833-0.088,1.147h-7.277c0.035,1.117,0.402,1.828,1.102,2.419c0.641,0.53,1.402,0.796,2.312,0.796
	c1.018,0,2.023-0.179,2.939-0.537l0.396,1.748c-1.076,0.463-2.324,0.7-3.645,0.7c-1.635,0-3.021-0.521-4.023-1.557
	c-1.004-1.036-1.508-2.312-1.508-4.025c0-1.715,0.465-3.144,1.4-4.248c0.98-1.102,2.303-1.707,3.867-1.707
	c1.477,0,2.682,0.609,3.521,1.71C456.453,276.125,456.783,277.321,456.783,278.743L456.783,278.743z M454.388,278.09
	c0.018-0.746-0.145-1.396-0.475-1.941c-0.404-0.697-1.004-1.005-1.814-1.005c-0.742,0-1.418,0.298-1.93,0.982
	c-0.422,0.546-0.672,1.202-0.752,1.964H454.388L454.388,278.09z M470.152,268.706l-0.229,1.841
	c-0.365-0.166-0.773-0.253-1.217-0.253c-1.32,0-1.979,0.957-1.979,2.876v0.589h2.521v1.744h-2.521v9.312h-2.303v-9.312h-1.473
	v-1.744h1.473v-0.517c0-1.735,0.402-3.031,1.209-3.894c0.678-0.606,1.592-0.93,2.758-0.93
	C469.054,268.42,469.646,268.52,470.152,268.706L470.152,268.706z M480.888,279.178c0,1.747-0.5,3.03-1.5,4.158
	c-0.963,1.153-2.234,1.729-3.869,1.729c-1.666,0-2.996-0.553-3.977-1.658c-0.998-1.109-1.488-2.364-1.488-4.039
	c0-1.762,0.508-3.205,1.531-4.27c1.018-1.031,2.398-1.591,4.127-1.591c1.549,0,2.787,0.551,3.729,1.575
	C480.408,276.094,480.888,277.481,480.888,279.178L480.888,279.178z M478.351,279.239c0-1.044-0.207-1.938-0.613-2.684
	c-0.488-0.903-1.188-1.336-2.119-1.336c-1.016,0-1.781,0.433-2.312,1.336c-0.459,0.746-0.674,1.656-0.674,2.729
	c0,1.044,0.215,1.893,0.674,2.534c0.543,0.899,1.307,1.348,2.287,1.348c0.93,0,1.627-0.454,2.121-1.373
	C478.132,281.149,478.351,280.277,478.351,279.239L478.351,279.239z M488.802,275.823c-0.229-0.061-0.479-0.09-0.762-0.09
	c-0.883,0-1.574,0.337-2.055,1.006c-0.416,0.596-0.627,1.346-0.627,2.252v5.825h-2.527v-7.629c0-1.311-0.023-2.354-0.074-3.426
	h2.191l0.096,2.015h0.07c0.266-0.687,0.689-1.201,1.266-1.659c0.561-0.407,1.17-0.609,1.816-0.609c0.236,0,0.436,0.016,0.604,0.045
	v2.271L488.802,275.823L488.802,275.823z M362.586,273.039c-0.951,0-1.718,0.772-1.718,1.728v17.084
	c0,0.945,0.767,1.682,1.718,1.682h21.373c0.953,0,1.683-0.736,1.683-1.682v-17.085c0-0.955-0.729-1.728-1.683-1.728L362.586,273.039
	L362.586,273.039z M383.682,274.993c0,0.425,0,16.037,0,16.571c-0.53,0-20.299,0-20.812,0c0-0.535,0-16.147,0-16.571
	C363.383,274.993,383.151,274.993,383.682,274.993L383.682,274.993z M358.686,268.574c-1.681,0-3.111,1.278-3.111,3.023v52.167
	c0,1.633,1.431,3.012,3.111,3.012h29.189c1.674,0,3.089-1.379,3.089-3.012v-52.167c0-1.744-1.415-3.023-3.089-3.023H358.686
	L358.686,268.574z M357.52,323.764v-52.167c0-0.646,0.513-1.172,1.168-1.172h29.188c0.611,0,1.111,0.524,1.111,1.172v52.167
	c0,0.623-0.5,1.104-1.111,1.104h-29.19C358.031,324.867,357.52,324.384,357.52,323.764L357.52,323.764z M360.608,308.762
	c0,6.993,5.714,12.661,12.633,12.661c6.98,0,12.659-5.668,12.659-12.661c0-6.986-5.678-12.653-12.659-12.653
	C366.322,296.109,360.608,301.775,360.608,308.762L360.608,308.762z M362.583,308.762c0-5.89,4.765-10.652,10.658-10.652
	c5.927,0,10.725,4.761,10.725,10.652c0,5.891-4.798,10.668-10.725,10.668C367.348,319.43,362.583,314.652,362.583,308.762
	L362.583,308.762z M368.088,308.762c0,2.774,2.188,4.889,4.918,4.889c2.739,0,4.923-2.114,4.923-4.889
	c0-2.681-2.184-4.882-4.923-4.882C370.274,303.882,368.088,306.082,368.088,308.762L368.088,308.762z M370.037,308.762
	c0-1.669,1.336-2.898,2.969-2.898c1.641,0,2.97,1.229,2.97,2.898c0,1.676-1.332,3.032-2.97,3.032
	C371.373,311.796,370.037,310.439,370.037,308.762L370.037,308.762z M405.722,302.729h5.135v22.979h-5.135V302.729L405.722,302.729z
	 M411.465,295.837c0,0.936-0.305,1.688-0.923,2.273c-0.618,0.569-1.412,0.864-2.388,0.864c-0.833,0-1.534-0.295-2.126-0.894
	c-0.605-0.596-0.911-1.341-0.911-2.244c0-0.903,0.316-1.64,0.927-2.139c0.607-0.52,1.341-0.809,2.225-0.809
	c0.893,0,1.652,0.289,2.272,0.809C411.158,294.197,411.465,294.934,411.465,295.837L411.465,295.837z M436.8,303.117
	c0,2.959-0.883,5.264-2.654,7.07c-2.287,2.293-5.605,3.391-9.729,3.391c-1.283,0-2.285-0.076-2.996-0.244v12.375h-5.1v-31.511
	c2.388-0.381,5.214-0.576,8.417-0.576c3.865,0,6.963,0.787,9.061,2.564C435.804,297.934,436.8,300.189,436.8,303.117L436.8,303.117z
	 M431.621,303.354c0-1.901-0.605-3.301-1.84-4.233c-1.207-1.012-2.693-1.521-4.84-1.521c-1.432,0-2.605,0.1-3.518,0.29v11.418
	c0.735,0.188,1.758,0.284,3.047,0.284c2.303,0,3.896-0.562,5.166-1.69C430.962,306.783,431.621,305.354,431.621,303.354
	L431.621,303.354z M460.404,314.018c0,3.621-1.037,6.448-3.088,8.78c-2.172,2.312-4.875,3.437-8.342,3.437
	c-3.455,0-6.197-1.09-8.186-3.289c-1.838-2.293-2.852-5.043-2.852-8.534c0-3.509,1.043-6.492,2.934-8.681
	c2.059-2.319,4.9-3.483,8.494-3.483c3.301,0,5.938,1.147,8.029,3.44C459.396,307.768,460.404,310.646,460.404,314.018
	L460.404,314.018z M454.978,314.166c0-2.053-0.467-3.873-1.357-5.422c-0.988-1.873-2.422-2.701-4.459-2.701
	c-2.102,0-3.695,0.83-4.783,2.701c-0.943,1.549-1.412,3.408-1.412,5.519c0,2.161,0.469,3.993,1.412,5.411
	c1.131,1.875,2.707,2.816,4.738,2.816c2.008,0,3.434-0.957,4.455-2.863C454.49,318.186,454.978,316.32,454.978,314.166
	L454.978,314.166z M485.408,325.708h-4.652l-0.234-3.647h-0.145c-1.455,2.812-3.773,4.174-7.273,4.174
	c-2.846,0-5.193-1.055-7.023-3.192c-1.693-2.238-2.574-4.982-2.574-8.533c0-3.668,0.955-6.75,2.824-8.965
	c1.947-2.205,4.381-3.299,7.275-3.299c3.135,0,5.172,1.067,6.406,3.192v-13.207h5.213v27.265
	C485.224,321.787,485.287,323.908,485.408,325.708L485.408,325.708z M480.011,316.07v-3.82c0-0.637-0.051-1.188-0.146-1.606
	c-0.291-1.263-0.896-2.319-1.785-3.185c-0.898-0.826-1.967-1.209-3.316-1.209c-1.943,0-3.488,0.695-4.59,2.252
	c-1.117,1.554-1.68,3.525-1.68,5.82c0,2.336,0.539,4.172,1.6,5.535c1.123,1.559,2.654,2.328,4.57,2.328
	c1.688,0,2.959-0.643,3.898-1.943C479.511,319.089,480.011,317.755,480.011,316.07L480.011,316.07z"/>
</svg>
