<?xml version="1.0" encoding="utf-8"?>
<!-- Generator: Adobe Illustrator 16.0.0, SVG Export Plug-In . SVG Version: 6.00 Build 0)  -->
<!DOCTYPE svg PUBLIC "-//W3C//DTD SVG 1.1//EN" "http://www.w3.org/Graphics/SVG/1.1/DTD/svg11.dtd">
<svg version="1.1" id="Layer_1" xmlns="http://www.w3.org/2000/svg" xmlns:xlink="http://www.w3.org/1999/xlink" x="0px" y="0px"
	 width="167.447px" height="171.226px" viewBox="12.653 10.765 167.447 171.226"
	 enable-background="new 12.653 10.765 167.447 171.226" xml:space="preserve">
<g>
	<path fill="#FFDD00" d="M166.198,79.504v0.646c-0.129,3.099-2.151,4.605-2.151,4.605c2.582,7.576-1.507,12.139-1.507,12.139
		c2.582,6.455-1.55,9.984-1.55,9.984c1.55,7.018-3.271,11.363-3.271,11.363c0.517,1.292,0.345,4.605,0.345,4.605l-0.774-0.216
		c-0.431,1.378-1.377,3.917-3.442,5.983c-0.431,0.431-0.861,0.688-1.291,0.859v-1.248c0.215-0.129,0.301-0.258,0.301-0.258
		c3.961-4.133,2.195-10.201,2.195-10.201c-0.345-0.043-1.335-0.302-2.496-0.646v-0.688c1.463,0.688,2.969,0.774,2.969,0.774
		c6.113-5.812,1.81-10.201,1.81-10.201c-1.636-0.388-3.485-0.946-4.778-1.421v-1.895c1.248,2.109,4.734,2.713,4.734,2.713
		s2.109-0.775,3.443-4.047c1.291-3.229-1.076-6.457-1.076-6.457s-5.51-1.463-5.939-2.066c-0.474-0.603,1.205-6.026,1.205-6.026
		s-0.042,0.301-0.042,3.486c0,3.186,4.992,4.218,4.992,4.218s1.421,0.732,2.065-2.84c0.646-3.573-0.56-8.738-0.56-8.738
		c-2.884-0.302-7.748-2.066-7.834-2.497c-0.043-0.474,2.496-6.241,2.496-6.241s-0.731,3.573-0.646,5.165
		c0.043,1.636,6.24,3.142,6.24,3.142c3.187-3.788,0.303-9.168,0.303-9.168s-4.349-1.894-4.734-2.411
		c-0.389-0.517,1.119-5.251,1.119-5.251s-0.217,1.377-0.217,3.616c0,2.281,4.435,3.4,4.435,3.4
		c1.032-4.605-0.129-10.545-5.079-13.989c-1.507-1.033-3.229-1.549-4.906-1.721v-2.497c2.022,0.215,4.219,0.818,6.543,2.066
		c8.779,4.778,5.854,17.519,5.854,17.519C165.812,76.75,166.155,78.256,166.198,79.504L166.198,79.504z M152.554,69.217
		c0.818,0.344,1.723,0.646,2.238,0.818c0,0-1.205-0.388-2.238-1.076V69.217L152.554,69.217z M152.554,63.191
		c0.303-0.43,0.475-0.688,0.475-0.688s-0.172,0.215-0.475,0.646V63.191L152.554,63.191z M152.554,55.486v2.497
		c-1.937-0.172-3.83,0.129-5.337,0.56v-2.755C148.724,55.443,150.531,55.271,152.554,55.486L152.554,55.486z M152.554,63.148v0.043
		c-0.859,1.291-2.625,3.96-2.193,4.648c0.344,0.473,1.246,0.99,2.193,1.377v-0.258c-0.902-0.646-1.679-1.55-1.377-2.668
		C151.563,64.827,152.167,63.793,152.554,63.148L152.554,63.148z M152.554,103.694v1.894c-0.902-0.387-1.506-0.688-1.592-0.946
		c-0.173-0.56,1.161-6.24,1.161-6.24s0,0.344,0,3.701C152.123,102.704,152.296,103.222,152.554,103.694L152.554,103.694z
		 M152.554,116.435v0.689c-2.021-0.561-4.476-1.378-4.647-1.68c-0.259-0.473,1.679-7.747,1.679-7.747s-0.043-0.431,0.129,4.434
		C149.843,114.498,151.177,115.746,152.554,116.435L152.554,116.435z M152.554,128.229v1.248c-1.679,0.688-3.271-0.259-4.261-0.474
		c-0.259-0.044-0.646-0.13-1.076-0.259v-2.152c0.345,0.561,0.731,1.119,1.291,1.508
		C150.358,129.521,151.951,128.659,152.554,128.229L152.554,128.229z M147.217,103.522v-0.303c1.162,0.475,2.109,0.646,2.109,0.646
		C148.767,103.866,148.034,103.737,147.217,103.522L147.217,103.522z M147.217,78.342v-1.033c1.205,1.292,3.013,2.367,3.013,2.367
		C149.282,79.332,148.207,78.859,147.217,78.342L147.217,78.342z M147.217,72.747v-0.731c0.646-0.732,1.162-1.248,1.162-1.248
		S147.819,71.584,147.217,72.747L147.217,72.747z M147.217,65.3v-0.172c0.173,0.172,0.302,0.301,0.302,0.301
		C147.433,65.386,147.304,65.343,147.217,65.3L147.217,65.3z M147.217,55.788v2.755c-1.334,0.43-2.366,0.947-2.755,1.291
		c-0.99,0.947,1.852,4.218,2.755,5.294V65.3c-3.271-1.507-4.434-4.089-4.434-4.089c-0.087-0.129-0.216-0.215-0.345-0.301v-3.142l0,0
		C142.826,57.51,144.548,56.434,147.217,55.788L147.217,55.788z M147.217,72.015v0.731c-0.302,0.646-0.646,1.377-0.946,2.109
		c-0.302,0.774,0.215,1.679,0.946,2.453v1.033c-1.507-0.818-2.755-1.679-3.014-2.066C143.944,75.846,145.926,73.521,147.217,72.015
		L147.217,72.015z M147.217,103.222v0.301c-1.55-0.388-3.399-1.119-4.776-1.765v-5.811c0.688-1.291,1.291-2.367,1.291-2.367
		s-0.303,0.603-0.646,4.778C142.912,100.938,145.321,102.446,147.217,103.222L147.217,103.222z M147.217,126.593v2.152
		c-1.377-0.389-3.143-1.033-3.143-1.033l2.065-8.264v2.41C146.142,121.858,146.099,124.526,147.217,126.593L147.217,126.593z
		 M142.438,113.853v-0.431c1.119,0.517,1.979,0.774,1.979,0.774C143.772,114.153,143.128,114.024,142.438,113.853L142.438,113.853z
		 M142.438,89.146v-0.215c0.946,0.517,1.895,0.689,1.895,0.689C143.687,89.533,143.042,89.361,142.438,89.146L142.438,89.146z
		 M142.438,65.3c0.302-0.215,0.474-0.301,0.474-0.301s-0.172,0.043-0.474,0.215V65.3L142.438,65.3z M142.438,57.768v3.142
		c-0.946-0.818-2.453-1.249-4.002-1.292V56.52C140.847,56.648,142.438,57.768,142.438,57.768L142.438,57.768z M142.438,65.214V65.3
		c-0.946,0.732-3.1,2.453-3.744,3.831c-0.86,1.808,2.927,4.95,2.927,4.95c-1.464-0.861-2.496-1.722-3.185-2.497v-3.96
		C139.813,66.549,141.621,65.602,142.438,65.214L142.438,65.214z M142.438,88.931v0.215c-1.852-0.646-3.313-1.765-4.002-2.453
		v-1.249c1.117-1.463,3.873-4.605,3.873-4.605s-1.033,0.603-1.809,4.304C140.071,87.166,141.276,88.328,142.438,88.931
		L142.438,88.931z M142.438,95.947v5.811c-1.076-0.517-1.809-0.946-1.938-1.206C140.33,100.122,141.449,97.798,142.438,95.947
		L142.438,95.947z M142.438,113.422v0.431c-1.377-0.345-2.797-0.946-4.002-1.463v-2.023
		C139.34,111.743,141.104,112.776,142.438,113.422L142.438,113.422z M138.437,124.569v-0.086c0.344,0.086,0.561,0.129,0.561,0.129
		C138.823,124.612,138.608,124.569,138.437,124.569L138.437,124.569z M138.437,103.608v-0.043c0.043-0.088,0.043-0.174,0.043-0.174
		S138.479,103.479,138.437,103.608L138.437,103.608z M138.437,99.218v-0.043c0.258,0.086,0.431,0.129,0.431,0.129
		C138.737,99.304,138.565,99.261,138.437,99.218L138.437,99.218z M138.437,56.52v3.099c-2.281-0.129-4.562,0.474-5.207,1.593
		c-1.164,1.937,1.808,6.284,1.808,6.284c-2.583-2.066-3.229-4.39-3.229-4.39c-0.129-0.043-0.259-0.043-0.431-0.086v-3.831
		C133.96,56.907,136.456,56.391,138.437,56.52L138.437,56.52z M138.437,67.625v3.96c-1.291-1.377-1.593-2.367-1.593-2.367
		C137.188,68.701,137.747,68.141,138.437,67.625L138.437,67.625z M138.437,85.444v1.249c-0.302-0.258-0.474-0.431-0.474-0.517
		C137.963,86.09,138.135,85.832,138.437,85.444L138.437,85.444z M138.437,99.175v0.043c-2.453-0.603-5.939-2.497-7.06-3.271v-1.076
		c0.99-1.679,3.745-5.596,3.745-5.596s-0.518,0.388-1.249,4.348C133.271,96.894,137.103,98.658,138.437,99.175L138.437,99.175z
		 M138.437,103.565v0.043c-0.129,0.388-0.431,1.549-0.646,4.477c-0.086,0.859,0.173,1.593,0.646,2.28v2.022
		c-1.766-0.816-3.057-1.55-3.057-1.55s-0.215,0.13,0.561-1.721C136.628,107.524,138.092,104.297,138.437,103.565L138.437,103.565z
		 M138.437,124.483v0.086c-2.668-0.258-5.295-1.334-7.06-2.151v-6.069c0.99-1.808,1.979-3.529,1.979-3.529s-0.989,0.99-0.774,5.939
		C132.711,122.763,136.844,124.097,138.437,124.483L138.437,124.483z M131.377,108.257v-0.086c0.215,0.086,0.345,0.129,0.345,0.129
		C131.592,108.3,131.506,108.257,131.377,108.257L131.377,108.257z M131.377,81.614v-1.98c1.464-1.334,4.306-3.616,4.306-3.616
		s-1.68,1.378-2.283,4.175c-0.559,2.798,3.531,5.122,3.531,5.122C134.304,84.411,132.41,82.733,131.377,81.614L131.377,81.614z
		 M131.377,59.188v3.831c-0.903-0.043-2.367,0.086-3.271,0.172v-2.97h2.194C130.646,59.834,131.033,59.49,131.377,59.188
		L131.377,59.188z M131.377,79.633v1.98c-0.517-0.561-0.817-0.947-0.903-1.033C130.431,80.494,130.817,80.15,131.377,79.633
		L131.377,79.633z M131.377,94.871v1.076c-0.215-0.172-0.344-0.301-0.344-0.344C130.99,95.516,131.119,95.258,131.377,94.871
		L131.377,94.871z M131.377,108.171v0.086c-1.076-0.129-2.194-0.431-3.271-0.861v-0.988
		C129.312,107.31,130.731,107.913,131.377,108.171L131.377,108.171z M131.377,116.349v6.069c-1.291-0.646-2.108-1.119-2.108-1.119
		s-0.345-0.258,0.688-2.366C130.344,118.242,130.86,117.253,131.377,116.349L131.377,116.349z M128.104,136.319v-0.603
		c0.475,0.56,0.818,0.861,0.818,0.861C128.665,136.493,128.364,136.406,128.104,136.319L128.104,136.319z M128.104,98.271v-0.043
		c0.129-0.129,0.174-0.215,0.174-0.215S128.233,98.099,128.104,98.271L128.104,98.271z M128.104,93.192v-0.603
		c1.033,0.904,1.98,1.463,1.98,1.463C129.397,93.795,128.752,93.493,128.104,93.192L128.104,93.192z M128.104,83.895v-0.129
		c0.346-0.258,0.561-0.431,0.561-0.431S128.45,83.507,128.104,83.895L128.104,83.895z M128.104,78.299v-0.517
		c0.646,0.861,1.465,1.506,1.465,1.506C129.01,79.031,128.536,78.644,128.104,78.299L128.104,78.299z M128.104,72.316v-0.689
		l2.238-1.377C129.569,70.724,128.665,71.67,128.104,72.316L128.104,72.316z M128.104,60.221v2.97
		c-0.474,0.043-0.816,0.086-0.816,0.086v-3.056H128.104L128.104,60.221z M128.104,71.627v0.689
		c-0.301,0.344-0.474,0.603-0.474,0.603s-0.517,1.894-0.215,3.443c0.129,0.517,0.388,0.99,0.688,1.42v0.517
		c-0.603-0.517-0.99-1.033-0.99-1.033v-4.993L128.104,71.627L128.104,71.627z M128.104,83.766v0.129
		c-0.602,0.732-1.592,2.109-2.064,4.218c-0.346,1.765,0.859,3.4,2.064,4.477v0.603c-1.377-0.732-2.496-1.593-3.399-2.41v-4.218
		C125.911,85.573,127.331,84.411,128.104,83.766L128.104,83.766z M128.104,98.229v0.043c-0.258,0.43-0.773,1.549-1.679,4.131
		c-0.603,1.68,0.388,3.014,1.679,4.004v0.988c-1.291-0.473-2.496-1.074-3.399-1.549v-3.057
		C125.867,101.241,127.59,98.959,128.104,98.229L128.104,98.229z M128.104,135.718v0.604c-1.334-0.387-2.453-0.989-3.399-1.549
		v-6.758c0.388-0.775,0.731-1.422,0.903-1.853c0.731-1.549,1.033-1.506,1.033-1.506
		C124.576,130.338,126.813,134.125,128.104,135.718L128.104,135.718z M124.705,118.976v-0.086c0.86,0.344,1.507,0.517,1.507,0.517
		S125.608,119.274,124.705,118.976L124.705,118.976z M117.044,128.96c0.303,0.087,0.604,0.216,0.904,0.303
		c0,0-0.346-0.173-0.904-0.475V128.96L117.044,128.96z M124.705,86.563v4.218c-1.205-1.119-1.937-2.066-2.022-2.195
		C122.599,88.457,123.543,87.597,124.705,86.563L124.705,86.563z M124.705,102.79v3.057c-0.86-0.474-1.42-0.861-1.42-0.861
		s-0.259,0.131,1.032-1.592C124.446,103.178,124.576,103.006,124.705,102.79L124.705,102.79z M124.705,118.89v0.086
		c-1.162-0.346-2.884-0.947-4.604-1.766c-1.463-0.73-2.453-1.507-3.057-2.109v-2.453c1.291-1.765,4.95-6.586,4.95-6.586
		s-2.238,2.238-2.41,6.845C119.454,116.134,122.726,118.026,124.705,118.89L124.705,118.89z M124.705,128.015v6.758
		c-1.506-0.99-2.41-1.896-2.41-1.896S123.715,130.079,124.705,128.015L124.705,128.015z M113.858,116.392
		c0,0-3.014,4.047-4.047,5.338c-0.43,0.56-0.73,0.989-0.946,1.334v1.119c0.817,0.861,3.1,2.842,8.179,4.777v-0.172
		c-1.723-1.033-5.208-3.4-4.949-6.069C112.438,119.188,113.858,116.392,113.858,116.392L113.858,116.392z M117.044,112.647v2.453
		c-0.688-0.646-0.904-1.076-0.904-1.076s0.129-0.215,0.432-0.731C116.612,113.207,116.785,112.992,117.044,112.647L117.044,112.647z
		 M108.865,139.032v-0.043c0.259,0.086,0.388,0.172,0.388,0.172S109.124,139.118,108.865,139.032L108.865,139.032z M108.865,109.419
		v-2.54c0.731,2.799,4.993,4.907,4.993,4.907C111.664,111.142,110.071,110.28,108.865,109.419L108.865,109.419z M108.865,123.063
		c-0.259,0.474-0.345,0.688-0.345,0.688s0.086,0.173,0.345,0.432V123.063L108.865,123.063z M108.865,106.879v2.54
		c-2.28-1.636-2.927-3.271-2.927-3.271s2.971,0.56,2.84,0C108.778,106.406,108.821,106.664,108.865,106.879L108.865,106.879z
		 M108.865,138.989v0.043c-0.817-0.346-3.056-1.205-5.035-2.022c-2.454-1.032-4.089-3.1-4.089-3.1s0.388-0.474,0.73-1.033
		c0.301-0.603,5.467-6.844,5.467-6.844s-1.076,1.507-2.022,5.769C103.056,135.503,107.575,138.258,108.865,138.989L108.865,138.989z
		 M96.942,128.831v-0.215c0.56,0.431,0.904,0.646,0.904,0.646C97.546,129.133,97.244,128.96,96.942,128.831L96.942,128.831z
		 M96.942,114.929v-2.496c1.723-2.022,5.08-4.906,5.08-4.906s-2.066,2.453-2.455,6.154c-0.387,3.701,5.769,7.791,5.769,7.791
		C101.161,119.491,98.319,116.521,96.942,114.929L96.942,114.929z M96.942,112.433v2.496c-0.56-0.731-0.86-1.162-0.86-1.162
		C96.211,113.422,96.513,112.948,96.942,112.433L96.942,112.433z M96.942,128.616v0.215c-5.379-2.884-8.351-7.273-8.351-7.273
		c0.688-1.637,5.983-6.242,5.983-6.242s-2.066,2.455-2.454,6.156C91.821,124.312,95.308,127.325,96.942,128.616L96.942,128.616z"/>
	<path fill="#006734" d="M142.181,149.707c0,0,10.072-8.996,16.786-13.085c6.716-4.132,15.927-6.715,15.927-6.715
		s-2.711-2.195-8.651-4.562c-5.938-2.41-8.995-2.41-8.995-2.41s-2.497,6.069-4.778,6.629c-2.28,0.56-24.448,2.367-45.065,19.153
		l-3.571-0.646v-12.01c0,0-3.271,1.594-4.907-2.41c-1.636-4.002-8.565-26.944-8.565-26.944h37.188V83.034h-8.865V77.61h8.436V53.894
		h-12.096V46.62l-4.906-0.215c0,0-1.377,0.215-4.002-8.35c-2.584-8.523-9.082-27.29-9.082-27.29h-15.8l-3.658,8.437v-8.437h-23.2
		L49.08,25.271l-5.294-14.505H21.36v14.936h2.583V46.75h-3.142V61.6h32.282c0,0-6.284,8.006,0.215,21.736h-3.143v12.913
		c0,0-18.637-4.218-28.494,11.32c-9.857,15.623-1.42,32.928,6.069,38.565c0,0-10.417,0.345-12.87,1.421
		c-2.497,1.075-2.195,4.088-2.195,4.088v24.836c0,0,0,3.229,4.132,2.496c4.132-0.773,32.928-4.002,51.565-2.41
		c18.637,1.637,45.108,4.778,64.606,5.338c19.498,0.517,43.473-1.334,45.194-3.057c1.721-1.722,1.938-3.356,1.938-6.068
		c0-2.711,0-22.641,0-22.641s-0.646-3.143-4.779-2.496C171.233,148.286,151.392,150.783,142.181,149.707L142.181,149.707z"/>
	<path fill="#FFDD00" d="M82.266,103.351h-7.274v9.599l5.983,16.485l-5.983-0.043v3.271h7.059l2.023,6.284
		c0,0,0.818,1.593-0.731,1.679c-1.55,0.086-2.54,0-2.54,0v2.539h16.399v-2.668H94.36c0,0-1.033-1.076-1.506-2.626
		C92.338,136.319,82.266,103.351,82.266,103.351L82.266,103.351z M74.991,103.351h-0.775l-12.267,34.95c0,0-0.731,2.41-2.109,2.324
		s-2.411,0-2.411,0v2.625h11.364v-2.711c0,0-1.55,0.086-2.195-0.129c-0.646-0.259-1.119-0.517-0.818-1.81
		c0.344-1.291,2.023-5.938,2.023-5.938h7.188v-3.271l-5.94-0.043l5.768-17.002l0.172,0.603V103.351L74.991,103.351z"/>
	<path fill="#FFDD00" d="M59.022,114.972v-11.88h-2.41v2.841c0,0-4.39-4.863-14.893-3.701
		c-10.459,1.119-17.217,10.287-15.968,23.459c1.205,13.17,9.728,18.379,19.412,17.561c9.642-0.816,13.645-8.049,13.946-11.879H56.44
		c0,0-1.851,6.671-8.608,8.049c-6.757,1.377-14.72-5.768-13.429-19.111c1.334-13.3,7.833-14.763,11.879-14.763
		c4.046,0,8.308,2.496,10.546,9.341L59.022,114.972L59.022,114.972z"/>
	<path fill="#FFDD00" d="M83.428,72.445c0,0-0.818-9.512-9.685-9.684c-8.867-0.172-12.525,9.512-2.841,12.611
		c9.685,3.056,10.718,0.302,14.634,6.155c3.874,5.854,0.646,12.784-2.281,15.41c-2.927,2.668-9.513,5.596-21.393,1.549
		c0,0-1.851-1.291-2.324,1.033h-2.453v-12.61h2.453c0,0-0.56,2.583,1.55,5.51c2.109,2.927,6.155,4.993,12.095,4.778
		c5.939-0.26,7.705-4.046,6.414-7.533C78.306,86.176,74.13,85.1,67.33,83.55c-6.844-1.506-10.631-5.036-9.599-12.913
		c1.076-7.876,9.856-14.936,23.329-8.824c0,0,2.368,1.377,2.454,0.215c0.043-1.119,0.043-0.732,0.043-0.732h2.195v11.32
		L83.428,72.445L83.428,72.445z"/>
	<path fill="#FFDD00" d="M92.338,42.531c0,0-5.682-16.571-5.682-16.141c0,0.043-0.129,0.474-0.387,1.119V17.093h7.36
		c0,0,10.073,32.066,10.546,33.573c0.473,1.506,1.549,2.496,1.549,2.496h2.842v2.625H92.209v-2.453c0,0,0.301,0.086,1.85,0
		c1.55-0.086,0.732-1.635,0.732-1.635l-1.722-5.123h-6.8v-4.003L92.338,42.531L92.338,42.531z M86.269,27.509
		c-1.42,3.745-6.112,15.108-6.112,15.108l6.112-0.043v4.003h-7.403c0,0-1.377,3.53-1.722,4.778
		c-0.301,1.292,0.172,1.506,0.818,1.765c0.646,0.215,2.195,0.129,2.195,0.129v2.625H68.793l-13.817-0.172v-2.453
		c3.4-0.215,3.314-2.023,3.314-2.023V31.899L48.133,55.702h-3.702l-9.685-23.501v18.551c0.344,2.841,3.4,2.367,3.4,2.367v2.583
		H27.774v-2.453c0,0,0.086,0,1.549,0c1.463,0,1.937-1.549,1.937-1.549s0-27.289,0-29.7c0-2.453-3.186-1.98-3.186-1.98v-2.841h11.45
		l9.599,23.716l9.512-23.716h12.913l-0.086,2.927c-2.84-0.172-3.4,0.818-3.4,0.818s-0.172,28.925,0,30.646
		c0.172,1.679,1.764,1.679,3.185,1.765c1.377,0.086,2.109-2.281,2.109-2.281l12.267-33.96h0.646V27.509L86.269,27.509z"/>
	<path fill="#FFDD00" d="M95.437,65.3v30.302c0,0,0.086,1.248-1.636,1.334c-1.679,0.086-1.937,0-1.937,0v3.013h29.14V88.931h-2.065
		c0,0,0.646,5.51-4.691,7.834h-10.545V82.087h5.595c0,0,2.195,0.086,2.281,2.625c0.087,2.497,0,2.927,0,2.927h2.497V73.737h-2.195
		v2.754c0,0-0.646,2.54-2.927,2.625c-2.281,0.043-5.337,0-5.337,0v-14.72h9.984c0,0,2.496,0.646,3.615,2.668
		c1.119,1.98,0.861,5.38,0.861,5.38h2.668V61.383H91.864v2.755C91.864,64.138,94.963,63.751,95.437,65.3L95.437,65.3z"/>
	<path fill="#FFF685" d="M15.98,150.396v25.826c0,0,25.912-3.229,39.255-2.755c13.3,0.474,36.457,2.195,47.476,3.572
		c11.062,1.377,39.985,2.582,56.127,1.119c16.185-1.464,18.035-2.238,18.035-2.238v-25.998c0,0-10.718,3.788-39.169,3.058
		c-28.408-0.732-51.35-4.692-71.837-5.037C45.378,147.642,15.98,150.396,15.98,150.396L15.98,150.396z"/>
	<path fill="#006734" d="M164.521,156.551v0.56c-0.086,2.281-1.42,6.931-1.938,9.212c-0.646,3.013,0.258,3.917,0.258,3.917
		s-1.205,0.56-2.582,0.388c-1.378-0.216-0.474-5.467,0.731-9.384c1.161-3.874,0.302-5.036,0.302-5.036
		c0.859-0.517,2.021-0.774,2.928-0.388C164.392,155.862,164.521,156.163,164.521,156.551L164.521,156.551z M152.554,169.033v-2.367
		c1.336-1.938,2.584-4.69,2.584-4.69s-1.422-1.938-2.584-1.508v-1.851c1.637-0.13,3.1,0.774,3.1,0.774
		c0.818-1.205,2.928-0.129,2.928-0.129s-1.162,3.614-1.723,6.67c-0.517,3.058,0.346,4.349,0.346,4.349s-0.044,0.774-1.938,0.603
		c-1.895-0.215-1.291-4.992-1.291-4.992S153.673,167.655,152.554,169.033L152.554,169.033z M152.554,158.617v1.851
		c-0.172,0.086-0.345,0.215-0.474,0.389c-1.161,1.506-3.056,7.963-1.42,7.703c0.517-0.129,1.248-0.903,1.894-1.894v2.367
		c-0.773,0.989-1.937,1.808-3.744,1.636c-0.86-0.043-1.42-0.475-1.765-1.033v-4.477c0.172-0.518,0.345-1.033,0.56-1.549
		c0.731-1.68,1.979-3.229,2.711-3.961C151.004,158.961,151.821,158.66,152.554,158.617L152.554,158.617z M147.045,161.845
		c0.215-0.388,0.388-0.816,0.431-1.377c0-0.818-0.129-1.421-0.431-1.636V161.845L147.045,161.845z M147.045,158.832v3.013
		c-0.431,0.732-1.032,1.119-1.032,1.119s-0.044-0.387-1.033-0.73c-0.947-0.303-2.023,1.937-3.314,4.562
		c-1.291,2.582-0.99,4.089-0.99,4.089s-0.517,0.172-2.107-0.086c-1.637-0.258,0.172-3.744,0.816-6.672
		c0.646-2.927,0.129-5.38,0.129-5.38s2.109,0.043,2.756,0.258c0.646,0.173,0.172,4.003,0.172,4.003s2.539-3.314,3.529-4.003
		C146.442,158.66,146.786,158.617,147.045,158.832L147.045,158.832z M147.045,165.159c-0.474,1.722-0.603,3.4,0,4.477V165.159
		L147.045,165.159z M109.983,169.033v-2.367c1.336-1.938,2.584-4.69,2.584-4.69s-1.42-1.938-2.584-1.508v-1.851
		c1.638-0.13,3.101,0.774,3.101,0.774c0.817-1.205,2.927-0.129,2.927-0.129s-1.162,3.614-1.722,6.67
		c-0.517,3.058,0.345,4.349,0.345,4.349s-0.086,0.774-1.938,0.603c-1.895-0.215-1.334-4.992-1.334-4.992
		S111.104,167.655,109.983,169.033L109.983,169.033z M118.724,162.36c0,0-2.152,7.49,0.517,8.266
		c2.668,0.773,4.819-1.033,4.819-1.033l-0.086-1.507c0,0-1.549,1.55-2.625,0.86c-1.119-0.73,0.387-7.016,0.387-7.016
		s2.367,0.129,2.971-0.431c0.604-0.517,0.732-1.162,0.732-1.162l-3.53-0.043c0,0,1.421-4.046,0.518-4.435
		c-0.903-0.387-2.928,0-2.928,0.646s0.216,3.917-0.258,4.046c-0.431,0.13-2.454-0.129-2.669,0.302
		c-0.174,0.474-0.389,1.334,0.086,1.334C117.087,162.188,118.594,161.976,118.724,162.36L118.724,162.36z M127.504,159.004
		c0,0,0.474,0.646-0.13,2.972c-0.604,2.323-2.453,8.693-0.086,8.908c2.41,0.172,5.466-4.863,5.466-4.863s-0.817,4.348,0.904,4.648
		c1.765,0.344,2.108-0.388,2.108-0.388s-0.517-2.023-0.129-4.392c0.387-2.41,2.195-6.844,0.817-7.016
		c-1.334-0.215-2.108,0.129-2.108,0.129s0.688,0.518-1.334,4.133c-1.979,3.658-4.392,7.145-4.09,4.348
		c0.344-2.799,2.281-8.308,1.162-8.479C129.01,158.789,127.504,159.004,127.504,159.004L127.504,159.004z M109.983,158.617v1.851
		c-0.172,0.086-0.344,0.215-0.473,0.389c-1.162,1.506-3.057,7.963-1.464,7.703c0.56-0.129,1.292-0.903,1.937-1.894v2.367
		c-0.773,0.989-1.937,1.808-3.743,1.636c-2.798-0.259-2.539-3.917-1.205-7.059c0.731-1.68,1.979-3.229,2.712-3.961
		C108.437,158.961,109.253,158.66,109.983,158.617L109.983,158.617z M82.05,170.927v-1.765c0.387-0.043,0.732-0.215,1.033-0.431
		c1.119-0.86,2.023-5.51-0.301-5.639c0,0-0.345,0.086-0.732,0.344v-1.162c0.56-0.172,0.904-0.172,0.904-0.172l0.345-0.774
		c0.56,0,2.97-0.215,3.099,3.313C86.527,168.129,84.762,170.367,82.05,170.927L82.05,170.927z M82.05,157.842v-4.348
		c0.904-0.345,1.808-0.774,2.54-1.118c1.679-0.861,1.636,0.301,1.636,0.301S84.289,155.044,82.05,157.842L82.05,157.842z
		 M94.274,159.177c0,0,0.517,0.731-0.388,4.691c-0.904,3.96-1.851,6.025-0.861,6.628c0.991,0.56,2.325,0.13,2.325,0.13
		s-0.172-0.732,0.086-2.152s2.368-4.949,3.056-6.025c0.731-1.119,2.237-2.238,1.852-0.258c-0.388,1.937-1.421,5.164-1.247,6.93
		c0.215,1.765,2.193,1.636,2.193,1.636l1.119-0.474c0,0-0.774-1.162-0.258-3.745c0.517-2.625,2.281-7.489,0.345-7.79
		c-1.979-0.346-4.047,1.593-5.854,4.605c0,0,1.291-3.961,0.172-4.349C95.781,158.573,94.274,159.177,94.274,159.177L94.274,159.177z
		 M82.05,153.494v4.348c-1.506,1.938-3.142,4.003-4.347,5.683c-3.056,4.176-4.219,7.488-4.219,7.488s-1.333,0.043-1.851-0.859
		c-0.516-0.904,2.023-4.735,4.649-7.446c2.583-2.755,5.552-7.576,5.552-7.576c-2.712,0.947-3.831,0.474-3.831,0.474
		c0.215,3.443-3.099,7.533-6.371,6.328c-3.228-1.248-1.42-6.586-0.129-7.834c1.334-1.205,2.54-0.043,2.54-0.043
		c-1.506,1.42-2.711,3.744-1.765,5.726c0.99,1.937,2.668-0.259,3.443-1.853c0.818-1.549,0.129-2.582-0.516-3.443
		c-0.646-0.816,0.861-2.237,0.861-2.237s0.603,1.033,2.453,1.593C79.597,154.185,80.845,153.925,82.05,153.494L82.05,153.494z
		 M82.05,162.274c-0.947,0.345-2.453,1.205-3.572,3.658c-1.765,3.832,0.774,5.51,3.486,4.993c0.043,0,0.086,0,0.086,0v-1.765
		c-0.99,0.129-1.98-0.475-1.764-2.582c0.215-1.766,1.119-2.669,1.764-3.143V162.274L82.05,162.274z M60.4,170.884v-1.679
		c2.238-1.592,3.143-6.111,3.4-9.297c0.258-3.702,0-6.37-2.884-6.112c0,0-0.215,0.086-0.517,0.389v-1.205
		c1.033-0.561,1.765-0.689,1.765-0.689s5.38-0.516,5.251,5.338s-2.325,10.848-6.628,13.042
		C60.658,170.755,60.529,170.798,60.4,170.884L60.4,170.884z M60.4,152.979v1.205c-0.731,0.646-1.937,2.194-2.668,5.768
		c-1.033,5.208-1.636,10.416,1.506,9.771c0.431-0.086,0.818-0.26,1.163-0.518v1.679c-4.218,1.851-8.91-0.774-6.628-8.952
		C55.321,156.379,58.42,153.968,60.4,152.979L60.4,152.979z M45.765,170.884c0.129-0.086,0.258-0.129,0.388-0.215
		c4.304-2.195,6.5-7.188,6.629-13.042c0.128-5.854-5.251-5.338-5.251-5.338s-0.731,0.13-1.765,0.688v1.205
		c0.345-0.302,0.517-0.388,0.517-0.388c2.884-0.258,3.142,2.41,2.884,6.112c-0.215,3.186-1.119,7.705-3.401,9.297L45.765,170.884
		L45.765,170.884z M28.118,152.074c0,0,2.97,1.464,7.145,0.086l-3.271,16.528c0,0,2.798-0.989,2.927,0.517
		c0.129,1.464,0,2.54-0.517,2.323c-0.517-0.215-1.033-0.773-3.185-0.646c-2.152,0.128-6.284,0.388-6.241-0.774
		c0.086-1.161,0.215-1.852,0.215-1.852s2.583,0.818,3.185,0.561l2.712-13.73c0,0-2.927,0.173-2.97-0.73
		C28.032,153.451,28.118,152.074,28.118,152.074L28.118,152.074z M45.765,152.979v1.205c-0.688,0.646-1.937,2.194-2.668,5.768
		c-1.033,5.208-1.592,10.416,1.507,9.771c0.431-0.086,0.818-0.26,1.162-0.518v1.679c-4.175,1.851-8.866-0.774-6.628-8.952
		C40.687,156.379,43.786,153.968,45.765,152.979L45.765,152.979z"/>
	<path fill="#006734" d="M176.099,143.035c0.903,0,1.68-0.345,2.324-0.99c0.646-0.603,0.946-1.42,0.946-2.323
		c0-0.904-0.302-1.68-0.946-2.281c-0.646-0.646-1.421-0.989-2.324-0.989v-0.517c1.076,0,1.938,0.387,2.711,1.118
		c0.732,0.731,1.076,1.636,1.076,2.669c0,1.075-0.344,1.979-1.076,2.711c-0.773,0.731-1.635,1.119-2.711,1.119V143.035
		L176.099,143.035z M176.099,140.151c0.301,0.043,0.475,0.086,0.604,0.129c0.258,0.173,0.387,0.474,0.387,0.99v0.302l0.043,0.129
		c0,0.043,0,0.043,0,0.086c0,0,0,0,0,0.043h0.689l-0.043-0.086c0,0,0-0.086,0-0.216c-0.043-0.086-0.043-0.215-0.043-0.301v-0.302
		c0-0.216-0.045-0.431-0.217-0.646s-0.388-0.344-0.73-0.387c0.258-0.043,0.475-0.131,0.604-0.217c0.301-0.172,0.43-0.474,0.43-0.816
		c0-0.561-0.215-0.904-0.646-1.076c-0.216-0.086-0.603-0.129-1.077-0.129v0.473c0.346,0.043,0.562,0.086,0.732,0.173
		c0.172,0.087,0.258,0.302,0.258,0.604c0,0.345-0.129,0.56-0.43,0.646c-0.131,0.086-0.303,0.086-0.561,0.086V140.151
		L176.099,140.151z M176.099,136.45c-0.904,0-1.679,0.344-2.281,0.99c-0.646,0.602-0.989,1.377-0.989,2.279
		c0,0.904,0.344,1.723,0.946,2.324c0.646,0.646,1.42,0.99,2.324,0.99l0,0v0.517l0,0c-1.033,0-1.937-0.388-2.668-1.118
		c-0.731-0.731-1.119-1.637-1.119-2.713c0-1.033,0.388-1.937,1.119-2.668c0.731-0.732,1.635-1.119,2.668-1.119l0,0V136.45
		L176.099,136.45L176.099,136.45z M176.099,137.655c0,0-0.043,0-0.086,0h-1.464v4.175h0.774v-1.679h0.56c0.087,0,0.173,0,0.216,0
		v-0.518c-0.043,0-0.086,0-0.129,0h-0.646v-1.507h0.604c0.086,0,0.129,0,0.172,0V137.655L176.099,137.655z"/>
</g>
</svg>
