<?xml version="1.0" encoding="utf-8"?>
<!-- Generator: Adobe Illustrator 16.0.0, SVG Export Plug-In . SVG Version: 6.00 Build 0)  -->
<!DOCTYPE svg PUBLIC "-//W3C//DTD SVG 1.1//EN" "http://www.w3.org/Graphics/SVG/1.1/DTD/svg11.dtd">
<svg version="1.1" id="Layer_1" xmlns="http://www.w3.org/2000/svg" xmlns:xlink="http://www.w3.org/1999/xlink" x="0px" y="0px"
	 width="128.625px" height="129.198px" viewBox="241.688 331.401 128.625 129.198"
	 enable-background="new 241.688 331.401 128.625 129.198" xml:space="preserve">
<g>
	<polyline fill="#D12627" points="311.562,337.396 307.826,331.401 304.277,337.308 299.822,331.854 296.993,338.087 
		292.019,332.962 289.845,339.595 284.223,335.153 283.093,342.247 276.951,338.407 276.468,345.289 269.685,342.389 
		270.181,349.545 263.335,347.506 264.868,354.183 257.579,353.562 259.698,360.098 252.276,359.876 255.438,366.474 
		248.348,367.184 252.219,373.179 245.138,374.757 249.913,380.219 242.903,382.401 248.264,387.243 241.9,390.355 247.651,394.807 
		241.688,398.585 245.604,400.633 245.138,398.967 251.833,397.254 262.403,414.111 263.396,394.044 270.221,392.333 
		276.703,417.323 272.3,418.503 267.463,399.568 265.933,420.205 261.725,421.34 251.287,404.544 255.814,422.909 254.578,423.246 
		251.034,429.826 258.262,430.182 255.89,436.814 262.976,435.972 261.064,442.667 268.274,440.884 267.405,447.979 
		274.157,445.265 274.198,452.422 280.032,448.777 280.981,455.996 286.75,451.411 288.869,458.426 293.854,453.247 
		296.687,459.915 301.019,454.542 304.827,460.599 308.375,454.764 313.088,460.217 315.66,453.921 320.892,458.903 
		323.131,452.271 328.753,456.448 330.088,449.752 336.092,453.531 336.243,446.18 342.77,448.884 342.272,442.062 349.312,444.096 
		347.771,437.019 354.617,438.517 352.435,431.769 359.529,431.999 356.496,425.534 363.981,425.552 360.044,418.893 
		366.801,417.385 362.544,411.719 369.23,409.607 364.061,404.225 370.295,401.316 364.734,396.802 370.312,393.557 
		369.267,392.563 353.738,396.731 347.15,371.689 351.514,370.527 357.029,391.632 364.3,389.584 369.55,385.141 363.156,382.099 
		367.883,376.991 360.966,374.96 365.293,369.382 358.332,368.824 361.817,362.714 354.457,362.421 356.896,355.992 
		350.006,356.631 351.851,349.803 344.773,351.646 345.376,344.225 338.823,347.071 338.583,339.782 332.615,343.16 
		331.408,336.146 325.77,340.393 323.779,333.45 318.6,338.425 315.767,332.022 	"/>
	<polygon fill="#FFFFFF" points="347.15,371.689 353.738,396.731 369.267,392.563 368.227,388.464 364.315,389.571 364.3,389.584 
		357.029,391.632 351.514,370.527 	"/>
	<polygon fill="#FFFFFF" points="251.661,424.017 255.814,422.909 251.287,404.544 261.725,421.34 265.933,420.205 267.463,399.568 
		272.3,418.503 276.703,417.323 270.221,392.333 263.396,394.044 262.403,414.111 251.833,397.254 245.138,398.967 245.604,400.633 
		245.566,400.614 	"/>
	<polyline fill="#FFFFFF" points="277.874,417.012 279.838,389.734 285.357,388.166 300.438,410.964 295.707,412.241 
		292.887,407.781 282.556,410.584 282.191,415.869 	"/>
	<polyline fill="#D12627" points="282.791,406.097 283.629,392.989 290.523,403.985 	"/>
	<polyline fill="#FFFFFF" points="303.312,410.193 297.924,389.096 289.995,391.287 288.998,387.278 324.155,377.843 
		325.281,381.647 317.678,383.837 323.197,404.863 318.844,406.024 313.194,385 302.216,387.934 307.616,409.049 	"/>
	<polyline fill="#FFFFFF" points="351.229,397.378 332.678,402.336 326.234,377.302 344.685,372.31 345.749,376.247 
		331.383,380.077 333.05,386.489 345.395,383.004 346.387,386.808 334.114,390.223 335.906,397.299 350.272,393.477 	"/>
	<polyline fill="#D12627" points="246.269,403.373 242.256,406.877 247.599,408.783 	"/>
	<polyline fill="#D12627" points="248.197,410.849 244.312,414.619 249.527,416.329 	"/>
	<polyline fill="#D12627" points="250.126,418.528 247.155,422.688 251.39,422.938 	"/>
	<path fill="#D12627" d="M360.695,446.18c-2.386,0.012-4.306,2.011-4.293,4.457c0.012,2.452,1.957,4.425,4.339,4.409
		c2.384-0.011,4.308-2.011,4.292-4.456C365.021,448.137,363.078,446.163,360.695,446.18z M360.741,454.111
		c-1.888,0.012-3.42-1.545-3.427-3.479c-0.013-1.931,1.503-3.507,3.384-3.518c1.882-0.013,3.416,1.549,3.423,3.479
		C364.137,452.524,362.618,454.1,360.741,454.111z"/>
	<g>
		<path fill="#D12627" d="M359.178,448.699h1.946c1.024,0,1.213,0.774,1.213,1.115c0,0.433-0.215,0.808-0.595,0.938
			c0.314,0.143,0.486,0.264,0.486,0.999c0,0.576,0,0.719,0.172,0.785v0.104h-0.891c-0.054-0.186-0.085-0.389-0.085-0.796
			c0-0.537-0.033-0.746-0.628-0.746h-0.833v1.542h-0.787L359.178,448.699L359.178,448.699z M360.91,450.435
			c0.419,0,0.622-0.147,0.622-0.537c0-0.208-0.091-0.517-0.563-0.517h-1.004v1.054H360.91z"/>
	</g>
</g>
</svg>
