<?xml version="1.0" encoding="utf-8"?>
<!-- Generator: Adobe Illustrator 16.0.0, SVG Export Plug-In . SVG Version: 6.00 Build 0)  -->
<!DOCTYPE svg PUBLIC "-//W3C//DTD SVG 1.1//EN" "http://www.w3.org/Graphics/SVG/1.1/DTD/svg11.dtd">
<svg version="1.1" id="Layer_1" xmlns="http://www.w3.org/2000/svg" xmlns:xlink="http://www.w3.org/1999/xlink" x="0px" y="0px"
	 width="173.525px" height="40.35px" viewBox="272.615 337.369 173.525 40.35"
	 enable-background="new 272.615 337.369 173.525 40.35" xml:space="preserve">
<g>
	<path fill="#FFFFFF" d="M318.874,363.311L318.874,363.311l1.801-6.937h6.47v3.002c-0.667,0.4-0.6,1-0.6,1.667l0,0v7.537
		c0,0.666-0.067,1.268,0.6,1.668l0,0v3.002h-6.202v-3.002c0.667-0.4,0.6-1.002,0.6-1.668l0,0v-4.535h-0.066l-2.268,9.205h-2.401
		l-2.135-9.205l0,0v4.535c0,0.666-0.066,1.268,0.534,1.668l0,0v3.002h-5.136v-3.002c0.6-0.4,0.532-1.002,0.532-1.668l0,0v-7.537
		c0-0.668,0.067-1.268-0.532-1.667l0,0v-3.002h7.07L318.874,363.311L318.874,363.311z"/>
	<path fill="#FFFFFF" d="M333.748,360.576c-4.336,0.066-5.47,1.4-5.403,4.803l0,0v3.334c0,1.535,0.066,2.869,1.334,3.869
		c1.067,0.734,2.936,1.066,4.869,0.934c1.868-0.133,3.802-0.733,4.803-1.602l0,0v-3.135h-4.603v0.467
		c0,0.668-0.067,1.402-0.867,1.402s-0.934-0.867-0.867-1.469l0,0v-1.134h6.337v-2.937
		C339.417,362.109,338.351,360.576,333.748,360.576L333.748,360.576L333.748,360.576z M334.815,365.244h-1.802v-0.467
		c0-0.533,0.067-1.269,0.867-1.269c0.867,0,0.935,0.734,0.935,1.269l0,0V365.244L334.815,365.244z"/>
	<path fill="#FFFFFF" d="M345.421,361.844c0.466-0.867,1-1.268,2.001-1.268c0.2,0,0.4,0,0.533,0.066l0,0v4.2h-0.333
		c-1.668,0-2.001,0.937-2.001,2.402l0,0v1.2c0,0.398,0,0.933,0.066,1.334c0.066,0.4,0.2,0.533,0.602,0.732l0,0v2.736h-5.87v-2.803
		c0.6-0.4,0.534-1,0.534-1.668l0,0v-3.467c0-0.668,0.065-1.201-0.534-1.668l0,0v-2.804h5.003L345.421,361.844L345.421,361.844z"/>
	<path fill="#FFFFFF" d="M354.425,361.844c0.467-0.867,1-1.268,2.001-1.268c0.2,0,0.4,0,0.534,0.066l0,0v4.2h-0.334
		c-1.667,0-2,0.937-2,2.402l0,0v1.2c0,0.398,0,0.933,0.066,1.334c0.066,0.4,0.199,0.533,0.602,0.732l0,0v2.736h-5.871v-2.803
		c0.601-0.4,0.534-1,0.534-1.668l0,0v-3.467c0-0.668,0.066-1.201-0.534-1.668l0,0v-2.804h5.002V361.844L354.425,361.844z"/>
	<path fill="#FFFFFF" d="M363.63,368.846c0,0.603-0.065,1.269,0.602,1.668l0,0v2.736h-5.87v-2.736
		c0.667-0.399,0.601-0.934,0.601-1.6l0,0v-3.67c0-0.6,0.066-1.268-0.601-1.6l0,0v-2.804h5.269V368.846L363.63,368.846z"/>
	<path fill="#FFFFFF" d="M358.561,358.041c0-1.333,1.401-1.868,2.535-1.868c1.2,0,2.534,0.667,2.534,2.001
		c0,1.268-1.334,1.869-2.468,1.869C359.895,360.043,358.561,359.442,358.561,358.041L358.561,358.041L358.561,358.041z"/>
	<path fill="#FFFFFF" d="M370.633,368.846c0,0.603-0.064,1.269,0.534,1.603l0,0v2.803h-5.736v-2.803
		c0.602-0.335,0.534-0.935,0.534-1.533l0,0v-8.14c0-0.6,0.066-1.267-0.534-1.601l0,0v-2.801h5.202V368.846L370.633,368.846z"/>
	<path fill="#FFFFFF" d="M382.974,373.25v-3.002c0.601-0.4,0.534-1.002,0.534-1.668l0,0v-7.537c0-0.668,0.065-1.268-0.534-1.667l0,0
		v-3.002h6.403v3.002c-0.667,0.4-0.6,1-0.6,1.667l0,0v8.604h0.732c1.334,0,1.334-0.801,1.334-1.867l0,0v-2.733h4.603v8.205
		L382.974,373.25L382.974,373.25z"/>
	<path fill="#FFFFFF" d="M402.584,360.842h5.069v2.803c-0.533,0.4-0.667,1.133-0.867,1.734l0,0l-2.201,7.471
		c-0.801,2.668-1.4,4.869-4.669,4.869c-0.734,0-1.401-0.068-2.135-0.268l0,0v-2.734c0.867,0,1.533-0.268,1.801-1.135l-3.001-8.537
		c-0.2-0.6-0.267-1.068-0.867-1.4l0,0v-2.803h5.938v2.803c-0.269,0.133-0.469,0.199-0.469,0.601c0,0.2,0.066,0.601,0.135,0.801l0,0
		l0.866,2.937l0.733-2.937c0.067-0.2,0.2-0.601,0.2-0.801c0-0.399-0.268-0.468-0.533-0.601l0,0V360.842L402.584,360.842z"/>
	<path fill="#FFFFFF" d="M414.123,361.643c1.201-0.867,2.335-1.065,3.335-1.065c0.934,0.065,1.801,0.399,2.268,0.866
		c0.867,0.802,0.936,1.668,0.936,2.734l0,0v4.668c0,0.603-0.067,1.269,0.533,1.668l0,0v2.736h-4.937
		c-0.267-1.268-0.267-2.602-0.267-3.871l0,0v-3.6c0-0.068,0.065-0.668-0.134-1.135c-0.268-0.468-0.802-0.802-1.603-0.468l0,0v4.668
		c0,0.603,0,1.269,0.602,1.669l0,0v2.735h-5.804v-2.735c0.602-0.4,0.602-0.935,0.602-1.601l0,0v-3.736c0-0.668,0-1.133-0.602-1.532
		l0,0v-2.804h5.069L414.123,361.643L414.123,361.643z"/>
	<path fill="#FFFFFF" d="M428.797,365.111c0-0.603,0.067-1.603-0.867-1.603c-0.867,0-0.867,0.937-0.867,1.535l0,0v3.937
		c0,0.666,0,1.668,0.867,1.668c1.001,0,0.867-1.402,0.867-2.002l0,0v-0.666h4.336v3.867c-1.334,1.268-3.668,1.668-5.47,1.668
		c-5.202,0-5.271-3.068-5.271-4.535l0,0v-4.138c0-2.668,1.001-4.268,5.203-4.268c1.936,0,3.937,0.332,5.536,1.532l0,0v3.402h-4.336
		L428.797,365.111L428.797,365.111z"/>
	<path fill="#FFFFFF" d="M439.203,361.377c1.065-0.602,2.201-0.801,3.135-0.801c1.001,0.066,1.868,0.332,2.335,0.867
		c0.8,0.801,0.934,1.668,0.934,2.734l0,0v4.668c0,0.602-0.065,1.268,0.533,1.602l0,0v2.803h-4.734
		c-0.269-1.268-0.269-2.602-0.269-3.871l0,0v-3.6c0-0.068,0.067-0.668-0.133-1.135c-0.267-0.468-1.001-0.802-1.801-0.468l0,0v4.669
		c0,0.602-0.067,1.268,0.6,1.602l0,0v2.803H434.2v-2.803c0.601-0.334,0.601-0.934,0.601-1.533l0,0v-8.139
		c0-0.601,0.067-1.268-0.601-1.602l0,0v-2.801h5.003V361.377L439.203,361.377z"/>
	<path fill="#FFFFFF" d="M377.771,368.846c0,0.603,0,1.269,0.601,1.603l0,0v2.803h-5.803v-2.803c0.6-0.335,0.6-0.935,0.6-1.533l0,0
		v-8.14c0-0.6,0.067-1.267-0.6-1.601l0,0v-2.801h5.202V368.846L377.771,368.846z"/>
	<path fill="#FFFFFF" d="M306.353,366.117l-0.134-0.533c-2.757-1.199-3.246-4-4.802-6.313c-0.178-0.267-0.578-0.756-0.534-0.756
		c1.2,0.134,2.535-0.133,3.602-0.661c1.245-0.667,2.268-2.223,2.09-3.868c-0.444-4.446-7.063-5.292-10.621-6.536
		c-1.112-0.4-2.001-0.89-2.445-1.957c-0.401-0.978,0.266-2.172,1.244-2.573c0.667-0.312,1.378-0.133,2.001,0.089
		c1.69,0.667,3.157,2.039,5.151,1.728c2.268-0.356,3.78-2.484,4.402-4.662c-0.355,0.044-0.222,0.088-0.578,0.088
		c-2.979,0.178-6.619-0.178-9.509,0.222c-1.734,0.222-3.424,1.067-4.136,2.757c-0.311,0.712-0.399,1.506-0.178,2.262
		c0.979,3.557,5.158,3.779,8.353,4.891c2.001,0.711,5.024,1.957,4.758,4.447c-0.133,1.245-1.868,2.178-3.113,2.267
		c-3.417,0.178-7.419-0.533-10.131-3.779c-1.112-1.334-1.912-4.313-3.78-6.937c0.711,0.134,1.646,0.178,2.09-0.044
		c-0.133-1.156-0.622-1.601-1.068-2.172c0.756-0.801,1.068-1.912,0.935-3.024c-0.222-1.512-0.978-2.89-2.446-3.424
		c-0.533-0.222-1.111-0.356-1.683-0.178c-0.312,0.089-0.756,0.223-1.067,0.489c0.667,0.178,1.156,0.845,1.156,1.468
		c0,0.578-0.355,1.2-1.067,1.111c0,0-0.356-0.044-0.8-0.4h-4.269c-0.489,0.578-1.023,0.311-1.023,0.311
		c-0.267-0.133-0.444-0.4-0.489-0.667c-0.267-0.756,0.489-1.468,1.245-1.779c0.044,0-0.133-0.133-0.178-0.133
		c-1.868-0.978-4.225-0.267-5.247,1.557c-0.8,1.378-0.355,2.935,0.534,4.269c0.044,0.088-0.223,0.355-0.356,0.578
		c-0.356,0.616-0.533,1.417-0.311,2.128c0.756,0,1.334-0.312,2-0.534c-0.844,3.29-2.267,6.358-3.156,9.694
		c-0.178,0.577-0.178,1.2-0.178,1.822c0.044,1.239,0.444,2.217,1.201,3.374c-1.022,2,0.088,4.136,0.623,6.136
		c0.578,2.047,0.089,4.137-0.445,6.086c1.378,0,2.935,0,4.313,0c0-0.666-0.089-1.594,0.044-2.351c0.223-1.334,0.4-2.09,0.667-3.514
		c0.578,0.533,1.645,0.533,2.134,0.045c1.111,2.4,4.046,3.068,6.44,3.334c0,0,0.4-0.889,0.312-3.957
		c0.711-0.311,1.29-0.354,1.29-0.354s0.667-0.088,0.622,0.935c0.4-0.046,1.467-0.179,1.467-0.179
		c-0.089,2.269-1.334,4.271-2.757,6.041c1.645,0,3.468,0,5.113,0c0.623-1.771,1.868-3.996,2.534-4.752
		c0.223-0.312,0.356-0.267,0.579,0c0.444,0.444,0.622,0.668,1.245,0.892c0.712,0.221,1.423,0.088,2.09-0.224
		c-0.267,0.89-0.667,1.512-1.112,2.224c-0.445,0.713-0.8,1.194-1.245,1.86c1.912,0,3.951,0,5.863,0
		C303.996,370.297,304.974,368.342,306.353,366.117L306.353,366.117L306.353,366.117z M277.462,358.781c0.801,0,1.201,0,1.201,0
		c-0.267-1.906-0.978-2.617-1.289-3.017c-1.023-1.291-2.446-1.69-2.312-2.224c-0.222-0.489,2.401-6.003,2.802-9.776
		c-0.223-0.044-0.401-0.088-0.578-0.134c-0.979-0.355-1.689-1.067-1.912-2.09c-0.133-0.399-0.044-0.889,0.133-1.245
		c0.222-0.489,0.89-0.978,1.334-0.934c-0.534,1.022,0.178,2.401,1.245,2.757c0.623,0.223,1.334,0.044,1.779-0.489
		c1.379-0.044,2.802,0.045,4.181,0.089c0.622,0.578,1.6,0.534,2.35,0.178c0.889-0.4,1.2-1.512,0.8-2.535
		c0-0.044,0.133,0,0.178,0.045c0.8,0.489,1.022,1.378,0.934,2.223c-0.045,0.8-0.534,1.601-1.29,1.823c0,0-0.972,0.311-3.062,0.223
		c-0.89,0.927-0.979,1.994-0.979,1.994c-0.089,0.667,0.089,1.334,0.222,1.689c0.089,0.223,0.044,0.312-0.088,0.401
		c-0.89,0.4-1.379,0.4-2.446-0.044c-0.4-0.134-0.845,0.444-0.845,0.666c-0.044,0.223,0.355,0.756,0.489,0.711
		c1.111-0.444,2.401-0.444,3.824,0.134c0.267,0.088,0.533-0.267,0.623-0.534c0.133-0.4-0.223-0.8-0.178-1.2
		c0.088-0.756,0.667-1.334,1.245-1.778c2.217,3.513,5.507,8.048,2.617,11.649c-0.889,1.061-2.929,2.083-4.084,3.329
		c-1.201,1.334-1.957,2.623-3.024,4.136c-0.445,0.622-1.423,1.557-2.135,0.489c-1.734-2.58-3.468-4.489-4.357-6.002
		c-0.623-1.061-1.29-3.462,0.178-3.595C276.084,355.765,277.33,357.454,277.462,358.781L277.462,358.781L277.462,358.781z
		 M275.417,362.605c0.934,0.934,2.401,2.399,2.001,4.713c0,0-0.222,1.557-0.756,4.27h-0.845c0.444-2.357,0.311-3.559,0.311-3.559
		c-0.267-2.178-1.245-3.779-1.156-5.334C275.018,362.473,275.24,362.428,275.417,362.605L275.417,362.605z M287.017,364.74
		c-1.017,0.977-2.261,1.021-3.462,1.557c-0.4,0.133,0,0.533,0.222,0.621c0.268,0.09,0.579,0.133,0.801,0.133c0,0,0.8,0,1.772-0.133
		c0.089,1.023,0.044,1.689,0.044,1.689c-0.661,0.045-1.505-0.178-2.172-0.443c-0.845-0.357-1.468-0.756-1.689-1.557
		c-0.4-1.334,1.601-3.201,2.268-3.603c0.4-0.223,1.022-0.399,1.467-0.269c0.439,0.134,0.794,0.355,0.973,0.802
		C287.461,363.939,287.373,364.385,287.017,364.74L287.017,364.74L287.017,364.74z M291.463,363.85
		c-0.89,0.224-1.646,0.4-2.58,0.578c0.045-0.623-0.088-1.244-0.4-1.822c-0.222-0.399-0.533-0.713-0.933-1.021
		c-0.356-0.269-0.756-0.401-1.328-0.489c1.238-1.157,3.15-2.091,4.04-3.773c0.444-0.845,0.533-1.601,0.667-2.623
		c0.933,1.022,2.179,1.689,3.379,2.356c-2.534,1.595-1.823,5.462,0.044,7.332c-0.844,0.178-1.734,0.398-2.712,0.533
		c-0.044,0,0.088-0.4,0.133-0.891C291.819,363.895,291.641,363.805,291.463,363.85L291.463,363.85L291.463,363.85z M299.333,359.271
		c0.178,0.178,0.312,0.312,0.489,0.534c1.684,2.222,2.217,4.712,4.484,6.712c-0.845,1.646-1.556,3.379-2.223,5.07
		c0,0-0.533,0-1.689,0c0-0.045,0.044-0.09,0.044-0.09c1.022-1.557,2.624-4.225,1.022-5.381c-2.572-1.512-7.641-2.09-7.241-6.313
		c0.088-0.801,0.578-1.55,1.422-1.772C296.932,357.676,298.488,358.254,299.333,359.271L299.333,359.271L299.333,359.271z
		 M298.667,342.075c0-0.222,0.133-0.312,0.4-0.312c0,0,0.534-0.088,4.841,0c-1.423,2.09-3.818,1.334-3.818,1.334
		C299.6,342.92,298.667,342.387,298.667,342.075L298.667,342.075L298.667,342.075z M278.752,344.165c0-0.089,0.355,0,0.534,0.044
		c0.667,0.261,1.067,0.928,0.934,1.594C279.375,345.938,278.441,344.915,278.752,344.165L278.752,344.165L278.752,344.165z
		 M284.889,344.298c0.178-0.089,0.489-0.133,0.489-0.089c0.267,0.661-0.667,1.594-1.467,1.55
		C283.821,345.137,284.222,344.515,284.889,344.298L284.889,344.298L284.889,344.298z M280.397,349.672
		c0.267-0.178,0.533-0.4,1.29-0.444c0.489-0.045,0.889,0,1.378,0.178c0.489,0.133,0.89,0.489,0.623,0.8
		c-0.222,0.267-0.845-0.267-1.646-0.223c-0.711,0-0.844,0.044-1.29,0.223C280.22,350.384,280.042,349.895,280.397,349.672
		L280.397,349.672L280.397,349.672z M295.42,366.252c0.134,0.133,0.044,0.223-0.044,0.443c0,0-1.556,2.09-2.89,4.893h-1.156
		c1.512-2.713,1.69-5.07,1.69-5.07c0.444-0.088,0.711-0.133,0.711-0.133C294.842,366.162,295.287,366.029,295.42,366.252
		L295.42,366.252z M297.421,366.475c-0.044-0.135-0.044-0.312,0-0.312c0.801,0.312,1.512,0.532,2.135,0.801
		c0.445,0.134,0,0.488-0.222,0.623C298.444,367.941,297.599,367.318,297.421,366.475L297.421,366.475L297.421,366.475z"/>
</g>
</svg>
