<?xml version="1.0" encoding="utf-8"?>
<!-- Generator: Adobe Illustrator 16.0.0, SVG Export Plug-In . SVG Version: 6.00 Build 0)  -->
<!DOCTYPE svg PUBLIC "-//W3C//DTD SVG 1.1//EN" "http://www.w3.org/Graphics/SVG/1.1/DTD/svg11.dtd">
<svg version="1.1" id="Layer_1" xmlns="http://www.w3.org/2000/svg" xmlns:xlink="http://www.w3.org/1999/xlink" x="0px" y="0px"
	 width="175.747px" height="112.068px" viewBox="8.504 40.344 175.747 112.068"
	 enable-background="new 8.504 40.344 175.747 112.068" xml:space="preserve">
<g>
	<path fill="#00A94F" d="M66.957,143.759c-1.687-1.902-2.001-3.824,0.687-5.727c-2.178-2.236-4.218-2.436-6.121-0.551
		c-0.94-2.021-0.94-3.824,1.118-5.119c1.766,1.785,3.648,3.529,5.629,5.258c5.983-1.198,11.986-0.354,17.987,0.764
		c-5.314-5.824-7.493-9.943-7.493-12.904c1.51-4.455,4.648-4.16,7.552-3.513c-2.846,0.433-4.002,1.667-2.727,4.08
		c8.16-7.396,12.475-13.299,10.042-16.556c4.943,2.257,2.884,9.689-2.08,19.025c15.005-4.178,25.226-4.783,24.304,1.885
		c-1.823-9.454-11.924,6.158-17.573,9.943c0.194,2.902,0.55,5.904-1.902,7.219c0.529-0.06,0.979,0.313,0.547,1.1
		c-3.588,4.333-8.53,5.078-14.297,1.352c-3.865-2.49-7.121-5.863-11.022-8.295C68.172,139.582,66.445,140.62,66.957,143.759
		L66.957,143.759z"/>
	<path fill="#8CC63F" d="M88.925,135.678c-0.255-0.312-0.47-0.647-0.745-0.94c-0.511-0.57,0.176-1.354,0.881-0.942
		c8.161,4.923,9.258,8.983,8.199,12.495c-0.137,0.432-1.275,0.374-1.353,0c-0.295-1.512-0.825-3.061-1.804-4.609
		c-0.295,0.784-1.021,1.1-2.041,0.668c-0.588-0.236-1.059-0.668-1.413-1.002c-0.235,0.413-0.882,0.728-1.725,0.531
		c-2.747-0.609-5.492-1.197-8.219-1.807c4.276,1.943,7.14,5.102,11.495,8.023c0.274,0.195,0.038,0.688-0.471,0.471
		c-4.825-2.002-9.375-6.688-14.104-8.082c-0.49-0.137-0.647-0.668-0.058-1c-0.313,0-0.628,0.039-0.942,0
		c-0.707-0.117-0.607-1.08-0.137-1.137c3.628-0.472,7.768,0.449,11.966,0.862c-3.435-3.181-5.866-6.826-6.611-11.162
		c-0.176-1.039,1.039-1.274,1.355-0.374C84.295,130.793,86.277,133.694,88.925,135.678L88.925,135.678z"/>
	<path fill="#EF3E42" d="M38.868,113.553l0.217,15.103c6.806,3.729,14.2,5.337,21.929,5.729c0.195-0.726,0.667-1.354,1.489-1.923
		c0.042-0.021,0.1-0.058,0.138-0.099c0,0.021-0.078-0.02-1.529-1.568c-6.335-0.136-12.456-1.51-18.262-4.708l-0.079-12.769
		C41.477,113.416,40.163,113.493,38.868,113.553L38.868,113.553z"/>
	<path d="M42.419,70.282l-0.178-1.726c23.459-19.38,71.77-30.755,94.525-20.459l-0.039,0.961c-2.924-0.352-5.886-0.47-8.926-0.333
		C101.458,49.745,73.018,66.124,42.419,70.282L42.419,70.282z"/>
	<path fill="#EF3E42" d="M38.632,70.733l-0.059-2.374c22.379-24.263,78.576-35.012,100.818-23.202l0.256,4.372
		c-0.961-0.176-1.941-0.333-2.92-0.47l0.037-0.961C114.011,37.801,65.7,49.176,42.241,68.556l0.178,1.726
		C41.164,70.438,39.907,70.595,38.632,70.733L38.632,70.733z"/>
	<path fill="#FFDD00" d="M52.952,119.278c-0.568-4.354,1.255-6.08,5.511-5.157c7.063,1.804,13.692,6.375,20.302,11.181
		c-0.079,2.961,2.06,7.139,7.493,13.082c-6.001-1.117-12.004-1.962-17.987-0.764C61.7,131.892,56.069,125.929,52.952,119.278
		L52.952,119.278z"/>
	<path d="M137.295,92.211l0.274,12.062c-5.1,4.611-11.161,8.729-17.672,12.634c0.605,0.334,1.02,0.726,1.312,1.157l0,0
		c-0.411-0.629-1.099-1.157-2.156-1.529c2.294-3.436,3.943-6.258,5.433-8.749c1.295-2.195,2.512-4.14,3.275-6.236
		c2.256-6.101-2.607-8.888-8.101-6.317c-5.591,2.609-12.731,8.787-20.36,15.908l0.02,0.041c-2.06-4.356-6.747-3.769-9.296-2.494
		c1.451-0.117,2.706,0.157,3.649,0.886c2.333,3.256-1.981,9.118-10.083,16.476c-0.844-1.589-0.627-2.668,0.431-3.335
		c0.628-0.333,1.374-0.569,2.296-0.745c-2.904-0.648-6.042-0.941-7.552,3.512v0.138c0-0.118,0-0.218,0-0.313
		c-6.61-4.806-13.239-9.377-20.302-11.181c-4.256-0.923-6.709,1.745-5.138,5.53c1.784,4.314,4.589,7.492,7.787,11.142
		c-6.335-0.136-12.456-1.51-18.262-4.708l-0.079-12.77c13.692-1.118,27.813-4.961,42.191-10.316
		C104.126,95.86,123.29,91.563,137.295,92.211L137.295,92.211z"/>
	<path fill="#EF3E42" d="M137.295,92.211l0.274,12.062c-5.1,4.611-11.161,8.729-17.672,12.634c1.312,0.726,1.804,1.745,1.744,2.981
		c6.395-3.453,12.082-7.298,16.75-11.771l0.805,0.432c0.451-1.215,1.313-2.274,2.531-2.765l-0.313-13.222
		C140.101,92.407,138.728,92.291,137.295,92.211L137.295,92.211z"/>
	<path fill="#8CC63F" d="M84.021,126.948c1.648-1.551,3.275-3.1,4.923-4.629c0.588-0.549,1.608-0.039,1.02,0.783
		c-0.764,1.08-1.568,2.139-2.333,3.219c2.058-1.863,3.765-3.863,4.963-6.022c1.176-1.177,1.706-2.528,1.881-4.55
		c-0.157,0.605-0.371,1.176-0.607,1.745c0.333-1.06,0.588-2.158,0.687-3.295c0.059-0.589,1-0.569,1.099,0
		c0.587,3.433-1.061,7.963-5.375,15.122c4.55-1.293,9.199-2.45,13.591-3.079c0.296-0.077,0.549,0.373,0.158,0.706
		c-0.217,0.099-0.473,0.195-0.981,0.628c0.55,0.235,0.295,0.922-0.567,1.295c-2.433,1.06-6.591,4.903-8.475,6.903
		c-0.412-0.41-1.019-0.94-1.492-1.313c1.531-2.53,5.866-4.628,9.279-7.14c-4.531,1.49-8.905,3.001-12.298,4.943
		C87.493,130.853,85.55,129.303,84.021,126.948L84.021,126.948z"/>
	<path fill="#00853F" d="M92.513,132.696v1.312c-0.077,0.1-0.175,0.195-0.254,0.274c-0.275-0.216-0.568-0.433-0.864-0.648
		C91.769,133.304,92.123,132.991,92.513,132.696L92.513,132.696z M92.513,119.749v0.648c-0.529,0.528-1.195,1.02-2,1.528
		C91.258,121.24,91.925,120.517,92.513,119.749L92.513,119.749L92.513,119.749z M92.513,126.673
		c-0.313,0.61-0.627,1.217-0.961,1.844c0.316-0.096,0.648-0.175,0.961-0.272v-0.411l-0.313,0.116
		c0.098-0.138,0.216-0.275,0.313-0.412V126.673L92.513,126.673L92.513,126.673z M90.023,108.687c0.921-0.076,1.745,0.021,2.49,0.256
		v-1.058C91.593,108.041,90.729,108.335,90.023,108.687L90.023,108.687L90.023,108.687z M92.513,120.397v-0.648
		c0.905-1.215,1.57-2.527,1.961-4C94.299,117.828,93.731,119.2,92.513,120.397L92.513,120.397z M95.888,134.56v1.883
		c-0.195,0.197-0.373,0.393-0.55,0.591l-0.94-0.943C94.888,135.579,95.379,135.069,95.888,134.56L95.888,134.56L95.888,134.56z
		 M95.888,130.616v0.394c-1.274,0.843-2.375,1.862-3.375,3v-1.312C93.574,131.833,94.673,131.106,95.888,130.616L95.888,130.616
		L95.888,130.616z M92.513,128.243v-0.411c1.118-0.412,2.236-0.824,3.375-1.197v0.745C94.788,127.635,93.672,127.931,92.513,128.243
		L92.513,128.243L92.513,128.243z M95.888,118.339c-0.668,2.451-1.843,5.276-3.375,8.334v0.863c1.275-1.706,2.393-3.393,3.375-5.021
		V118.339L95.888,118.339L95.888,118.339z M92.513,108.94c0.432,0.158,0.825,0.354,1.159,0.631c-0.021-0.021-0.021-0.041-0.041-0.08
		c1.042,0.49,1.787,1.217,2.256,2.139v-3.589c-1.118-0.334-2.274-0.354-3.375-0.156L92.513,108.94L92.513,108.94L92.513,108.94z
		 M95.888,131.01c0.47-0.312,0.962-0.608,1.47-0.884c-0.508,0.118-1,0.295-1.47,0.49V131.01L95.888,131.01z M103.164,131.44
		c-2.627,2.177-4.981,4.432-6.883,6.767l0.94,1.256c2.021-1.706,3.982-3.647,5.942-5.53V131.44L103.164,131.44L103.164,131.44z
		 M103.164,128.948v1.845c-2.667,1.394-5.101,3.276-7.276,5.649v-1.883C98.183,132.265,100.594,130.283,103.164,128.948
		L103.164,128.948L103.164,128.948z M95.888,127.38c2.63-0.646,5.062-1.156,7.276-1.49v-1.312c-2.41,0.529-4.845,1.234-7.276,2.059
		V127.38L95.888,127.38L95.888,127.38z M95.888,111.63c0.805,1.646,0.726,3.942,0,6.709v4.178c2.413-4.08,3.767-7.904,3.431-11.336
		c-0.821-1.748-2.076-2.688-3.431-3.14V111.63L95.888,111.63L95.888,111.63z M103.164,133.933v-2.492
		c0.608-0.51,1.235-1.02,1.885-1.529c-0.647,0.273-1.274,0.568-1.885,0.883v-1.845c2.708-1.412,5.591-2.118,8.769-1.765
		C108.774,128.694,105.95,131.244,103.164,133.933L103.164,133.933z M103.164,125.89c8.336-1.295,13.319-0.236,12.69,4.473v0.021
		c2.08-1.435,2.217-4.218-1.332-6.454c2.156-2.55,4.334-3.218,6.492-1.647c1.077-2.569,0.961-4.688-1.961-5.746
		c-1.609,2.177-3.513,4.55-5.748,7.118c-3.219-0.235-6.649,0.138-10.143,0.924L103.164,125.89L103.164,125.89L103.164,125.89z"/>
	<path fill="#FFDD00" d="M92.2,127.948c4.61-6.119,7.631-11.887,7.101-16.809c7.63-7.121,14.771-13.3,20.36-15.909
		c5.492-2.57,10.474-0.255,8.355,5.904c-0.806,2.296-2.218,4.746-3.728,7.376c-2.433,4.236-5.649,9.042-10.983,15.143
		C106.735,123.163,99.36,125.263,92.2,127.948L92.2,127.948z"/>
	<path fill="#FFDD00" d="M8.504,68.713c43.702,11.199,83.48-18.595,119.298-19.988c8.277-0.334,16.084,0.961,23.576,5.001
		c4.001,2.138,6.688,4.708,6.434,9.985c-0.195,3.943,0,7.865,0,11.807c8.396-0.452,16.477,0.275,24.283,2.137
		c-3.041,3.924-6.179,7.749-7.847,11.789c-0.767,1.825-1.511,3.983-0.726,5.709c2.922,6.395,7.158,12.122,10.729,18.202
		c-11.516-5.608-25.343-3.844-40.366,0.727c-7.022,2.118-6.315-8.787-0.433-8.591c12.062,0.432,15.574-4.296,10.062-8.554
		c-11.477-8.884-40.014-4.569-68.555,6.062c-26.636,9.925-52.449,14.673-76.065,6.434c2.275-5.49,5.628-10.826,7.101-16.24
		c0.569-2.138,0.255-4.139-0.354-6.258C13.78,80.424,12.467,74.301,8.504,68.713L8.504,68.713z"/>
	<path fill="#00853F" d="M66.957,143.759c-1.687-1.902-2.001-3.824,0.687-5.727c-2.178-2.236-4.218-2.436-6.121-0.551
		c-0.94-2.021-0.94-3.824,1.118-5.119c1.766,1.785,3.648,3.529,5.629,5.258c5.983-1.198,11.986-0.354,17.987,0.764
		c-5.314-5.824-7.493-9.943-7.493-12.904c1.51-4.455,4.648-4.16,7.552-3.513c-9.553,1.845-2.571,12.103,0.627,16.849
		C74.488,136.991,65.563,137.521,66.957,143.759L66.957,143.759z"/>
	<path fill="#00A94F" d="M81.765,123.047c-1.019,1.802-1.391,3.706-1.078,5.706c-0.393-0.961-1-1.941-0.863-2.883
		C79.98,124.812,80.746,123.89,81.765,123.047L81.765,123.047z"/>
	<path fill="#00853F" d="M83.157,140.992c4.57,1.53,8.356,5.141,13.26,6.786c-1.432,0.904-3,1.021-4.433-0.295
		C89.002,144.72,86.119,142.815,83.157,140.992L83.157,140.992z"/>
	<path fill="#00853F" d="M70.389,140.483c6.237-0.963,10.278,1.177,14.005,4.02c4.354,3.297,7.747,5.298,11.455,4.453
		c-5.748,3.688-13.26-6.118-19.83-6.786c4.334,1.901,8.198,4.883,11.963,8.158C81.726,148.19,75.587,142.603,70.389,140.483
		L70.389,140.483z"/>
	<path fill="#FAA633" d="M56.266,116.199c-0.785,0.707-1.177,1.707-0.707,2.06c0.236,0.157,0.472,0.178,0.707,0.1v-0.451
		c-0.079,0-0.177-0.059-0.254-0.117c-0.236-0.196-0.138-0.766,0.254-1.373V116.199L56.266,116.199z M56.266,114.748v0.177
		c-1.962,0.312-2.668,1.766-1.883,3.688c0.236,0.53,0.47,1.06,0.726,1.59c0.099-0.513,0.55-1.159,1.158-1.609v0.079
		c-0.608,0.727-0.785,1.471-0.51,1.707c0.156,0.117,0.313,0.156,0.51,0.098v0.332c-0.235,0.157-0.51,0.236-0.765,0.14
		c0.236,0.45,0.511,0.92,0.765,1.373v1.646c-1.04-1.568-1.981-3.218-2.785-4.924c-0.157-0.332-0.237-0.686-0.275-1.039v-0.568
		C53.345,115.983,54.462,114.709,56.266,114.748L56.266,114.748L56.266,114.748z M56.266,114.925v-0.177
		c0.274,0,0.568,0.039,0.862,0.099C56.815,114.866,56.54,114.886,56.266,114.925L56.266,114.925z M56.266,116.416v-0.217
		c0.157-0.117,0.315-0.255,0.491-0.353C56.56,116.042,56.403,116.239,56.266,116.416L56.266,116.416L56.266,116.416z
		 M56.266,118.358v-0.452c0.255,0.038,0.549-0.136,0.922-0.568C57.011,117.828,56.658,118.222,56.266,118.358L56.266,118.358
		L56.266,118.358z M56.266,118.672v-0.079c0.079-0.059,0.157-0.117,0.235-0.156C56.423,118.517,56.345,118.593,56.266,118.672
		L56.266,118.672L56.266,118.672z M56.266,120.81v-0.332c0.197-0.08,0.412-0.256,0.667-0.551
		C56.796,120.299,56.56,120.612,56.266,120.81L56.266,120.81L56.266,120.81z M60.248,119.966c-0.804,0.844-1.157,1.924-0.608,2.314
		c0.08,0.06,0.157,0.099,0.236,0.117c-0.884,0.648-1.883,1.768-1.883,2.492c-0.412-0.568-0.824-1.139-1.197-1.728
		c0.705,0.394,1.588-0.274,1.942-1.216c-0.648,0.744-1.098,0.863-1.492,0.55c-0.313-0.255-0.157-1.062,0.473-1.884
		c0.684,0.295,1.489-0.354,1.844-1.256c-0.648,0.746-1.1,0.863-1.492,0.551c-0.373-0.315-0.078-1.434,0.942-2.434
		c-1.373,0.823-2.217,2.51-1.492,3.041c0.02,0,0.02,0.02,0.039,0.02c-0.704,0.648-1.157,1.47-1.116,2.038
		c-0.061-0.076-0.118-0.175-0.178-0.253v1.646c1.196,1.767,2.55,3.474,3.981,5.081v-2.98c-0.294,0.373-0.49,0.764-0.47,1.099
		c-0.432-0.511-0.824-1-1.215-1.513c0.488,0.14,1.115-0.232,1.685-0.687v-0.412c-0.372,0.197-0.707,0.294-0.981,0.04
		c-0.528-0.471,0.099-1.471,0.687-2.158c0.098,0.021,0.197,0.021,0.294,0.021v-0.729c-0.02-0.02-0.039-0.037-0.059-0.059
		c-0.236-0.175-0.216-0.667,0.059-1.217L60.248,119.966L60.248,119.966L60.248,119.966z M60.248,115.866v0.216
		c-0.413,0.608-0.51,1.158-0.275,1.354c0.021,0.019,0.04,0.039,0.06,0.059c0.019,0.099,0.039,0.178,0.098,0.217
		c0.02,0.038,0.059,0.061,0.117,0.061v0.232c-0.235,0.08-0.49,0.08-0.707-0.098C59.051,117.572,59.444,116.553,60.248,115.866
		L60.248,115.866L60.248,115.866z M60.248,116.082v-0.216c0.137-0.137,0.293-0.256,0.472-0.354
		C60.522,115.69,60.366,115.886,60.248,116.082L60.248,116.082z M60.248,118.004c0.374-0.137,0.725-0.528,0.923-1
		c-0.138,0.138-0.256,0.256-0.354,0.354c-0.02,0.02-0.038,0.039-0.038,0.059c-0.177,0.236-0.374,0.354-0.53,0.354L60.248,118.004
		L60.248,118.004L60.248,118.004z M60.248,120.455c0.178-0.39,0.472-0.804,0.883-1.215c-0.334,0.194-0.628,0.45-0.883,0.726V120.455
		L60.248,120.455L60.248,120.455z M60.248,122.458c0.568-0.041,1.158-0.609,1.433-1.335c-0.628,0.726-1.06,0.862-1.433,0.606
		V122.458L60.248,122.458L60.248,122.458z M60.248,124.967c0.392-0.332,0.766-0.706,0.98-0.959c-0.313,0.136-0.665,0.371-0.98,0.548
		V124.967L60.248,124.967L60.248,124.967z M62.837,126.418v0.04c-0.53,0.607-1.61,1.628-2.394,1.49
		c0.529,0.609,1.1,1.217,1.668,1.824c-0.079-0.508,0.215-1.156,0.726-1.824v2.49c-0.019,0-0.04,0-0.06,0l0.06,0.06v1.335
		c-0.883-0.902-1.767-1.824-2.59-2.785v-2.98c0.353-0.451,0.883-0.883,1.412-1.219c-0.627,0.709-1.177,1.551-0.607,2.062
		C61.562,127.36,62.17,126.715,62.837,126.418L62.837,126.418L62.837,126.418z M62.837,121.162v0.392
		c-0.588,0.825-0.942,1.531-0.453,1.885c0.159,0.117,0.296,0.195,0.453,0.215v0.648c-0.491,0.195-0.961,0.215-1.315-0.08
		C60.739,123.535,61.426,122.299,62.837,121.162L62.837,121.162L62.837,121.162z M62.837,116.944v0.14
		c-0.726,0.882-0.923,1.783-0.588,2.06c0.176,0.137,0.372,0.194,0.588,0.137v0.451c-0.374,0.217-0.785,0.254-1.137,0
		C61.052,119.261,61.681,117.828,62.837,116.944L62.837,116.944L62.837,116.944z M62.837,117.084v-0.14
		c0.118-0.077,0.235-0.178,0.353-0.233C63.072,116.827,62.956,116.966,62.837,117.084L62.837,117.084z M62.837,119.729v-0.451
		c0.256-0.059,0.549-0.293,0.901-0.706C63.543,119.083,63.209,119.495,62.837,119.729L62.837,119.729L62.837,119.729z
		 M62.837,121.554v-0.392c0.215-0.177,0.431-0.333,0.667-0.49C63.269,120.966,63.033,121.26,62.837,121.554L62.837,121.554
		L62.837,121.554z M62.837,126.458l0.058-0.061c-0.02,0-0.039,0.021-0.058,0.021V126.458L62.837,126.458L62.837,126.458z
		 M64.25,131.872c-0.491-0.451-0.961-0.9-1.413-1.374v1.335c0.47,0.47,0.94,0.941,1.413,1.393V131.872L64.25,131.872L64.25,131.872z
		 M64.25,124.635v2.195c-0.863,1.06-1.748,2.118-1,2.647c0.293,0.217,0.627,0.217,1,0.101v0.528c-0.511,0.275-1,0.412-1.413,0.332
		v-2.49c0.333-0.432,0.783-0.863,1.274-1.275c-0.04-0.02-0.078-0.038-0.098-0.058C63.523,126.203,63.7,125.438,64.25,124.635
		L64.25,124.635L64.25,124.635z M64.25,123.085v0.137c-0.373,0.452-0.884,0.863-1.413,1.08v-0.648
		C63.269,123.752,63.7,123.497,64.25,123.085L64.25,123.085L64.25,123.085z M64.25,119.966v1.413l0,0
		C63.916,121.123,63.956,120.574,64.25,119.966L64.25,119.966L64.25,119.966z M64.25,123.222v-0.137
		c0.077-0.059,0.157-0.118,0.234-0.195C64.407,123.006,64.327,123.104,64.25,123.222L64.25,123.222z M65.525,130.772v3.668
		c-0.432-0.394-0.863-0.806-1.275-1.215v-1.354c0.157,0.157,0.313,0.313,0.471,0.451C64.799,131.872,65.093,131.323,65.525,130.772
		L65.525,130.772L65.525,130.772z M65.525,128.892v0.256c-0.374,0.393-0.825,0.725-1.275,0.961v-0.529
		C64.662,129.438,65.093,129.165,65.525,128.892L65.525,128.892L65.525,128.892z M65.525,123.241v0.393
		c-0.707,0.901-1.275,1.766-0.668,2.217c0.216,0.137,0.431,0.176,0.668,0.157v0.646c-0.452,0.177-0.885,0.236-1.218,0.1
		l-0.057,0.077v-2.195C64.563,124.165,65.014,123.692,65.525,123.241L65.525,123.241L65.525,123.241z M65.525,118.397v0.155
		c-0.747,0.863-1.159,1.765-0.687,2.14c0.195,0.137,0.432,0.195,0.687,0.175v0.491c-0.492,0.194-0.962,0.234-1.275,0.021v-1.413
		C64.504,119.417,64.976,118.828,65.525,118.397L65.525,118.397L65.525,118.397z M65.525,118.554v-0.156
		c0.137-0.117,0.274-0.217,0.432-0.312C65.8,118.24,65.662,118.397,65.525,118.554L65.525,118.554z M65.525,121.358
		c0.646-0.256,1.275-0.784,1.49-1.354c-0.215,0.256-0.49,0.472-0.765,0.629l-0.02,0.019c-0.196,0.313-0.49,0.451-0.628,0.313
		c-0.039-0.019-0.059-0.058-0.059-0.099h-0.018V121.358L65.525,121.358L65.525,121.358z M65.525,123.634v-0.393
		c0.253-0.235,0.548-0.451,0.843-0.647C66.093,122.929,65.8,123.28,65.525,123.634L65.525,123.634L65.525,123.634z M65.525,126.653
		v-0.646c0.646-0.041,1.372-0.608,2.078-1.06C67.094,125.692,66.27,126.36,65.525,126.653L65.525,126.653L65.525,126.653z
		 M65.525,129.146v-0.256c0.156-0.117,0.293-0.218,0.45-0.312C65.838,128.772,65.682,128.97,65.525,129.146L65.525,129.146
		L65.525,129.146z M69.643,129.498v2.296c-0.117-0.039-0.235-0.098-0.334-0.178C68.8,131.166,69.015,130.36,69.643,129.498
		L69.643,129.498L69.643,129.498z M69.643,127.832c-0.766,0.528-1.549,0.959-2.178,0.528c-0.863-0.607,0.568-2.039,1.512-3.256
		c-1.864,1.274-3.257,3.256-2.355,4.021c0.098,0.098,0.236,0.157,0.374,0.195c-0.569,0.451-1.08,0.962-1.47,1.451v3.668
		c1.097,1.041,2.195,2.062,3.333,3.062c0.255-0.038,0.53-0.099,0.785-0.138v-0.745c-0.157-0.138-0.313-0.272-0.471-0.394
		c0.137-0.02,0.314-0.059,0.471-0.099v-0.784c-0.157-0.02-0.293-0.06-0.431-0.156c-0.745-0.529-0.157-1.529,0.431-2.254v-0.179
		c-1.098,0.806-1.746,1.687-1.746,2.411c-0.666-0.568-1.313-1.156-1.96-1.727c0.94-0.116,2.177-0.979,2.863-2
		c-1,0.668-2.08,1.531-2.884,0.963c-0.822-0.588,0.315-1.863,1.275-3.062c0.727,0.06,1.708-0.471,2.452-1.194L69.643,127.832
		L69.643,127.832L69.643,127.832z M69.643,124.576v1.372C69.309,125.615,69.369,125.104,69.643,124.576L69.643,124.576
		L69.643,124.576z M69.643,122.594v0.218c-0.548,0.822-1.667,1.312-2.293,0.842c-0.728-0.549,0.294-2.668,1.844-3.412
		c-1.275,0.902-1.805,2.195-1.374,2.648c0.214,0.234,0.587,0.295,1,0.176c0.137,0.119,0.411-0.019,0.606-0.293
		C69.506,122.712,69.584,122.653,69.643,122.594L69.643,122.594L69.643,122.594z M69.643,122.812v-0.218
		c0.079-0.059,0.157-0.136,0.237-0.215C69.82,122.535,69.74,122.672,69.643,122.812L69.643,122.812z M69.643,128.146v-0.313
		c0.197-0.117,0.372-0.235,0.57-0.372C70.056,127.694,69.858,127.931,69.643,128.146L69.643,128.146L69.643,128.146z
		 M69.643,132.933v-0.178c0.139-0.098,0.275-0.195,0.413-0.295C69.938,132.599,69.8,132.755,69.643,132.933L69.643,132.933
		L69.643,132.933z M69.643,137.364v-0.745c0.275,0.215,0.53,0.432,0.805,0.646C70.173,137.306,69.918,137.325,69.643,137.364
		L69.643,137.364L69.643,137.364z M70.761,135.069v0.49c-0.373,0.254-0.746,0.45-1.118,0.567v-0.784
		C69.997,135.401,70.37,135.284,70.761,135.069L70.761,135.069L70.761,135.069z M70.761,128.282v0.433
		c-0.686,0.863-1.196,1.706-0.588,2.118c0.176,0.139,0.372,0.195,0.588,0.177v0.667c-0.412,0.156-0.805,0.195-1.118,0.117v-2.296
		C69.938,129.087,70.33,128.673,70.761,128.282L70.761,128.282L70.761,128.282z M70.761,123.222v0.334
		c-0.412,0.647-0.705,1.354-0.334,1.687c0.099,0.099,0.216,0.157,0.334,0.218v0.824c-0.412,0.038-0.805-0.041-1.06-0.275
		c-0.019,0-0.039-0.021-0.059-0.06v-1.372C69.899,124.104,70.31,123.615,70.761,123.222L70.761,123.222L70.761,123.222z
		 M70.761,123.556v-0.334c0.215-0.195,0.432-0.373,0.647-0.49C71.213,122.947,70.977,123.241,70.761,123.556L70.761,123.556z
		 M70.761,128.715v-0.433c0.275-0.235,0.589-0.471,0.902-0.686C71.389,127.948,71.056,128.342,70.761,128.715L70.761,128.715
		L70.761,128.715z M71.997,136.306v0.805c-0.157,0.02-0.313,0.037-0.47,0.037C71.606,136.872,71.763,136.601,71.997,136.306
		L71.997,136.306L71.997,136.306z M71.997,134.284v0.08c-0.333,0.449-0.765,0.882-1.235,1.195v-0.49
		C71.175,134.873,71.586,134.56,71.997,134.284L71.997,134.284L71.997,134.284z M71.997,132.676v1.002
		C71.858,133.401,71.858,133.067,71.997,132.676L71.997,132.676L71.997,132.676z M71.997,130.539v0.392
		c-0.39,0.313-0.822,0.59-1.235,0.746v-0.667C71.153,131.01,71.565,130.793,71.997,130.539L71.997,130.539L71.997,130.539z
		 M71.997,125.576v0.391c-0.39,0.179-0.822,0.295-1.235,0.316v-0.824C71.095,125.615,71.545,125.674,71.997,125.576L71.997,125.576
		L71.997,125.576z M71.997,134.364v-0.08l0.098-0.059C72.076,134.284,72.037,134.323,71.997,134.364L71.997,134.364z M72.82,135.461
		v0.411c-0.254,0.412-0.45,0.844-0.392,1.218c-0.157,0.021-0.295,0.021-0.432,0.021v-0.805
		C72.213,136.028,72.488,135.735,72.82,135.461L72.82,135.461L72.82,135.461z M72.82,131.36v0.885c-0.077,0.254-0.077,0.471,0,0.646
		v1.235c-0.235-0.021-0.47-0.099-0.645-0.255c-0.08-0.059-0.138-0.139-0.178-0.195v-1.002
		C72.154,132.265,72.449,131.813,72.82,131.36L72.82,131.36L72.82,131.36z M72.82,129.989v0.059
		c-0.214,0.312-0.509,0.609-0.823,0.883v-0.392C72.271,130.36,72.565,130.166,72.82,129.989L72.82,129.989L72.82,129.989z
		 M72.82,125.241v0.138c-0.195,0.236-0.489,0.433-0.823,0.588v-0.391C72.271,125.517,72.565,125.42,72.82,125.241L72.82,125.241
		L72.82,125.241z M72.82,128.028c-0.313-0.355-0.254-0.844,0-1.375V128.028L72.82,128.028L72.82,128.028z M72.82,125.379
		c0.1-0.099,0.177-0.194,0.218-0.294c-0.061,0.061-0.138,0.1-0.218,0.156V125.379L72.82,125.379z M72.82,130.048
		c0.04-0.039,0.06-0.078,0.08-0.098l-0.08,0.039V130.048L72.82,130.048L72.82,130.048z M72.82,132.245v-0.885
		c0.473-0.527,1.061-1.059,1.707-1.508C73.919,130.657,73.076,131.558,72.82,132.245L72.82,132.245L72.82,132.245z M72.82,135.872
		v-0.411c0.237-0.177,0.511-0.372,0.786-0.567C73.37,135.147,73.076,135.501,72.82,135.872L72.82,135.872L72.82,135.872z
		 M75.076,134.267v2.059c-0.077-0.04-0.157-0.078-0.215-0.137C74.39,135.774,74.547,135.051,75.076,134.267L75.076,134.267
		L75.076,134.267z M75.076,132.696v0.273c-0.687,0.707-1.568,1.178-2.256,1.157v-1.235c0.06,0.078,0.118,0.155,0.218,0.215
		C73.665,133.56,74.331,133.187,75.076,132.696L75.076,132.696L75.076,132.696z M74.606,124.792c-0.628,0.688-1.549,2-0.981,2.529
		c0.314,0.275,0.844,0.432,1.451,0.352v0.413c-0.764,0.315-1.706,0.412-2.176,0c-0.021-0.021-0.04-0.039-0.08-0.058v-1.375
		C73.194,125.948,73.919,125.222,74.606,124.792L74.606,124.792L74.606,124.792z M75.076,132.972v-0.274
		c0.157-0.099,0.314-0.218,0.471-0.313C75.41,132.599,75.253,132.794,75.076,132.972L75.076,132.972z M76.115,133.048v0.491
		c-0.568,0.784-0.94,1.489-0.391,1.883c0.137,0.079,0.254,0.138,0.391,0.177v0.748c-0.391,0.114-0.745,0.114-1.039-0.021v-2.059
		C75.331,133.853,75.704,133.44,76.115,133.048L76.115,133.048L76.115,133.048z M76.115,129.498v1
		C75.958,130.224,75.978,129.871,76.115,129.498L76.115,129.498L76.115,129.498z M75.076,127.673
		c0.333-0.057,0.707-0.195,1.039-0.431v0.1c-0.214,0.293-0.607,0.548-1.039,0.744V127.673L75.076,127.673L75.076,127.673z
		 M76.115,133.539v-0.491c0.335-0.312,0.707-0.607,1.1-0.882C76.881,132.616,76.469,133.089,76.115,133.539L76.115,133.539z
		 M77.881,136.601v0.568c-0.137,0-0.255,0-0.373-0.021C77.607,136.974,77.724,136.774,77.881,136.601L77.881,136.601L77.881,136.601
		z M77.881,134.933v0.233c-0.51,0.569-1.157,1.002-1.766,1.181v-0.748C76.665,135.716,77.233,135.364,77.881,134.933L77.881,134.933
		L77.881,134.933z M77.881,127.36v0.037c-0.626,0.729-1.51,2.041-0.98,2.553c0.255,0.254,0.607,0.372,0.98,0.392v0.491
		c-0.568,0.156-1.137,0.139-1.529-0.118c-0.099-0.058-0.176-0.137-0.237-0.217v-1C76.411,128.715,77.156,127.832,77.881,127.36
		L77.881,127.36L77.881,127.36z M76.115,127.242c0.042-0.039,0.08-0.058,0.118-0.099c-0.019,0.06-0.057,0.14-0.118,0.197V127.242
		L76.115,127.242L76.115,127.242z M77.881,127.397v-0.037c0.02-0.02,0.059-0.039,0.1-0.06
		C77.939,127.321,77.901,127.36,77.881,127.397L77.881,127.397z M77.881,135.166v-0.233c0.118-0.08,0.236-0.156,0.354-0.236
		C78.137,134.853,77.999,135.01,77.881,135.166L77.881,135.166L77.881,135.166z M79.039,135.364v0.371
		c-0.413,0.529-0.784,1.039-0.922,1.472c-0.08-0.019-0.158-0.019-0.236-0.038v-0.568C78.194,136.168,78.588,135.755,79.039,135.364
		L79.039,135.364L79.039,135.364z M79.039,131.244v2.177c-0.1-0.038-0.177-0.098-0.256-0.156
		C78.294,132.834,78.47,132.067,79.039,131.244L79.039,131.244L79.039,131.244z M79.039,130.009v0.274
		c-0.313,0.235-0.745,0.45-1.158,0.55v-0.491C78.255,130.342,78.646,130.224,79.039,130.009L79.039,130.009L79.039,130.009z
		 M80.589,137.464l0.255-0.158c-0.038,0.06-0.079,0.117-0.118,0.178L80.589,137.464L80.589,137.464z M79.039,130.283
		c0.255-0.195,0.45-0.412,0.568-0.63c-0.195,0.139-0.372,0.257-0.568,0.354V130.283L79.039,130.283L79.039,130.283z M79.039,135.735
		v-0.371c0.255-0.198,0.51-0.412,0.785-0.59C79.588,135.089,79.312,135.422,79.039,135.735L79.039,135.735L79.039,135.735z
		 M81.393,134.401v1.119C81.196,135.228,81.217,134.834,81.393,134.401L81.393,134.401L81.393,134.401z M81.393,132.284v0.332
		c-0.765,0.688-1.706,1.062-2.354,0.805v-2.177c0.273-0.392,0.628-0.806,1.04-1.179c0.058,0.101,0.097,0.197,0.157,0.275
		c-0.687,0.885-1.217,1.727-0.609,2.139c0.549,0.393,1.119,0.178,1.747-0.215L81.393,132.284L81.393,132.284L81.393,132.284z
		 M84.943,136.914c0.019,0.176,0.097,0.313,0.275,0.433c0.057,0.037,0.136,0.076,0.195,0.117c0.195,0.214,0.392,0.432,0.588,0.646
		c-0.118,0.078-0.254,0.117-0.372,0.156c-0.452-0.078-0.903-0.156-1.354-0.233c-0.332-0.394-0.215-1.021,0.177-1.687
		C84.61,136.541,84.787,136.716,84.943,136.914L84.943,136.914z M81.393,132.616v-0.332c0.04,0.078,0.097,0.137,0.138,0.215
		C81.489,132.539,81.432,132.578,81.393,132.616L81.393,132.616L81.393,132.616z M81.393,135.521v-1.117
		c0.138-0.354,0.372-0.726,0.688-1.118c0.097,0.137,0.176,0.274,0.275,0.394c-0.275,0.51-0.354,0.961,0.039,1.215
		c0.313,0.235,0.646,0.256,1,0.158c0.098,0.115,0.195,0.233,0.293,0.352c-0.785,0.531-1.648,0.707-2.157,0.275
		C81.471,135.619,81.432,135.579,81.393,135.521L81.393,135.521L81.393,135.521z"/>
	<path fill="#FAA633" d="M99.614,125.479c-0.235-0.119-0.49-0.258-0.745-0.354c0.137,0.156,0.294,0.296,0.45,0.433L99.614,125.479
		L99.614,125.479z M96.574,121.28c0.393,0.529,0.512,1,0.137,1.432c-0.353,0.393-0.725,0.432-1.157,0.314
		c-0.078,0.156-0.175,0.293-0.255,0.451c0.923,0.488,1.863,0.666,2.431,0.155c0.707-0.587,0.217-1.707-0.919-2.767
		C96.731,121.005,96.651,121.144,96.574,121.28L96.574,121.28L96.574,121.28z M94.279,125.026c0.177,0.371,0.177,0.707-0.118,1.039
		c-0.255,0.295-0.53,0.373-0.843,0.353c-0.118,0.179-0.235,0.335-0.353,0.492c0.392,0.194,0.766,0.312,1.098,0.353
		c0.432-0.156,0.863-0.295,1.275-0.451c0.413-0.55,0.08-1.412-0.725-2.275C94.495,124.692,94.398,124.849,94.279,125.026
		L94.279,125.026L94.279,125.026z M100.047,122.478v0.078l-0.276-0.216C99.869,122.379,99.968,122.417,100.047,122.478
		L100.047,122.478L100.047,122.478z M100.047,118.259v2.395c-0.728,0.273-1.786-0.117-2.728-0.785
		c0.06-0.118,0.099-0.233,0.156-0.352c0.767,0.393,1.373,0.605,1.922,0c0.59-0.648-0.02-1.453-0.979-2.295
		c0.039-0.119,0.079-0.218,0.118-0.314C99.144,117.338,99.674,117.81,100.047,118.259L100.047,118.259L100.047,118.259z
		 M100.047,116.454v0.295c-0.255-0.177-0.491-0.372-0.687-0.607C99.594,116.239,99.831,116.354,100.047,116.454L100.047,116.454
		L100.047,116.454z M100.047,120.651v-2.394c0.726,0.863,0.94,1.688,0.372,2.196C100.301,120.535,100.185,120.612,100.047,120.651
		L100.047,120.651z M102.125,123.87c-0.55-0.51-1.274-1.001-2.078-1.395v0.08c0.882,0.725,1.726,1.41,2.078,2.038V123.87
		L102.125,123.87L102.125,123.87z M102.125,122.202v0.312c-0.256-0.195-0.489-0.431-0.706-0.666
		C101.674,121.967,101.91,122.085,102.125,122.202L102.125,122.202L102.125,122.202z M102.125,116.789v0.843
		c-0.667-0.078-1.431-0.41-2.078-0.883v-0.295C100.851,116.789,101.556,117.062,102.125,116.789L102.125,116.789L102.125,116.789z
		 M102.125,114.218v0.512c-0.412-0.512-1.001-1.021-1.588-1.53C101.124,113.493,101.674,113.847,102.125,114.218L102.125,114.218
		L102.125,114.218z M102.125,124.595v-0.725c0.294,0.254,0.53,0.509,0.726,0.765c-0.216,0.058-0.41,0.099-0.627,0.157
		C102.204,124.733,102.164,124.653,102.125,124.595L102.125,124.595z M103.104,122.672v0.513c-0.332-0.179-0.666-0.412-0.979-0.668
		v-0.313C102.479,122.379,102.792,122.556,103.104,122.672L103.104,122.672L103.104,122.672z M103.104,119.478v0.233
		c-0.254-0.216-0.529-0.433-0.783-0.647C102.597,119.2,102.851,119.338,103.104,119.478L103.104,119.478L103.104,119.478z
		 M103.104,115.181v2.373c-0.273,0.1-0.606,0.137-0.979,0.078v-0.843c0.138-0.06,0.235-0.158,0.354-0.274
		c0.451-0.492,0.194-1.119-0.354-1.785v-0.512C102.519,114.534,102.831,114.866,103.104,115.181L103.104,115.181L103.104,115.181z
		 M103.104,113.003v0.178c-0.215-0.119-0.432-0.236-0.627-0.375C102.674,112.885,102.892,112.964,103.104,113.003L103.104,113.003
		L103.104,113.003z M103.104,117.554v-2.373c0.648,0.861,0.844,1.705,0.313,2.178C103.321,117.437,103.204,117.494,103.104,117.554
		L103.104,117.554z M105.106,121.024v2.668c-0.569,0.117-1.295-0.099-2.002-0.51v-0.512c0.57,0.257,1.062,0.312,1.512-0.175
		c0.707-0.786-0.274-1.748-1.512-2.786v-0.234C103.91,119.947,104.597,120.496,105.106,121.024L105.106,121.024L105.106,121.024z
		 M105.106,119.063v0.371c-0.313-0.234-0.607-0.487-0.862-0.764C104.558,118.79,104.832,118.927,105.106,119.063L105.106,119.063
		L105.106,119.063z M105.106,113.062v0.785c-0.646-0.078-1.354-0.313-2.002-0.666v-0.178
		C103.792,113.198,104.519,113.218,105.106,113.062L105.106,113.062L105.106,113.062z M105.106,110.178v0.354
		c-0.274-0.313-0.588-0.629-0.883-0.941C104.537,109.767,104.832,109.962,105.106,110.178L105.106,110.178L105.106,110.178z
		 M105.95,124.046c-0.059-0.038-0.118-0.061-0.178-0.079l0.08,0.079H105.95L105.95,124.046z M105.106,123.692v-2.668
		c0.861,0.941,1.156,1.863,0.529,2.393C105.479,123.556,105.304,123.653,105.106,123.692L105.106,123.692L105.106,123.692z
		 M106.342,119.634v0.568c-0.411-0.197-0.843-0.453-1.233-0.768v-0.371C105.558,119.317,105.969,119.534,106.342,119.634
		L106.342,119.634L106.342,119.634z M106.342,116.534v0.333c-0.373-0.333-0.784-0.646-1.196-1.001
		C105.577,116.082,105.969,116.298,106.342,116.534L106.342,116.534L106.342,116.534z M106.342,111.413
		c-0.313-0.432-0.743-0.862-1.233-1.235v0.354c0.783,0.902,1.334,1.785,0.687,2.236c-0.194,0.137-0.433,0.234-0.687,0.293v0.785
		c0.47,0.039,0.9,0.02,1.233-0.138V111.413L106.342,111.413L106.342,111.413z M106.342,110.257v0.157
		c-0.217-0.118-0.411-0.236-0.606-0.373C105.931,110.121,106.146,110.198,106.342,110.257L106.342,110.257L106.342,110.257z
		 M106.342,113.709v-2.296c0.628,0.845,0.825,1.668,0.314,2.119C106.558,113.61,106.46,113.67,106.342,113.709L106.342,113.709z
		 M107.972,121.89v0.37c-0.394-0.352-0.845-0.725-1.296-1.075C107.146,121.397,107.578,121.634,107.972,121.89L107.972,121.89
		L107.972,121.89z M107.972,117.867v2.608c-0.472,0.115-1.041,0-1.63-0.273v-0.568c0.413,0.098,0.767,0.038,1.101-0.335
		c0.646-0.687-0.061-1.528-1.101-2.432v-0.333C106.99,116.944,107.56,117.416,107.972,117.867L107.972,117.867L107.972,117.867z
		 M107.972,115.925v0.373c-0.296-0.234-0.568-0.488-0.824-0.764C107.44,115.651,107.717,115.787,107.972,115.925L107.972,115.925
		L107.972,115.925z M107.972,110.375v0.646c-0.529-0.117-1.099-0.332-1.63-0.606v-0.157
		C106.892,110.394,107.46,110.435,107.972,110.375L107.972,110.375L107.972,110.375z M107.972,107.118v0.217
		c-0.158-0.179-0.314-0.335-0.472-0.512C107.656,106.923,107.813,107.019,107.972,107.118L107.972,107.118L107.972,107.118z
		 M107.972,120.478v-2.609c0.821,0.923,1.117,1.844,0.51,2.373C108.323,120.358,108.167,120.437,107.972,120.478L107.972,120.478z
		 M109.54,123.222v0.412c-0.139,0-0.273,0.02-0.412,0.02c-0.156-0.432-0.609-0.9-1.156-1.394v-0.37
		C108.599,122.319,109.128,122.771,109.54,123.222L109.54,123.222L109.54,123.222z M109.54,120.79v0.098
		c-0.061-0.059-0.117-0.117-0.158-0.156C109.423,120.749,109.479,120.771,109.54,120.79L109.54,120.79L109.54,120.79z
		 M109.54,116.553v0.647c-0.53-0.196-1.078-0.51-1.568-0.902v-0.373C108.56,116.239,109.089,116.534,109.54,116.553L109.54,116.553
		L109.54,116.553z M109.54,113.61v0.393c-0.432-0.412-0.96-0.822-1.491-1.255C108.599,113.003,109.089,113.298,109.54,113.61
		L109.54,113.61L109.54,113.61z M109.54,108.55v2.434c-0.412,0.156-0.98,0.156-1.568,0.039v-0.646
		c0.41-0.04,0.803-0.177,1.098-0.372c0.746-0.53-0.118-1.608-1.098-2.668v-0.217C108.618,107.55,109.147,108.06,109.54,108.55
		L109.54,108.55L109.54,108.55z M109.54,106.51c-0.217-0.098-0.432-0.216-0.667-0.312c0.194,0.216,0.433,0.432,0.667,0.608V106.51
		L109.54,106.51L109.54,106.51z M109.54,123.634v-0.412c0.117,0.139,0.215,0.275,0.312,0.395
		C109.755,123.615,109.638,123.634,109.54,123.634L109.54,123.634z M109.95,120.966v0.274c-0.157-0.117-0.293-0.235-0.41-0.353
		v-0.099C109.679,120.849,109.813,120.908,109.95,120.966L109.95,120.966L109.95,120.966z M109.95,116.476v0.862
		c-0.137-0.04-0.271-0.078-0.41-0.138v-0.647C109.679,116.553,109.813,116.534,109.95,116.476L109.95,116.476L109.95,116.476z
		 M109.95,113.903v0.513c-0.137-0.14-0.271-0.274-0.41-0.413v-0.393C109.679,113.709,109.813,113.808,109.95,113.903L109.95,113.903
		L109.95,113.903z M109.95,112.159v0.156c-0.098-0.08-0.176-0.176-0.254-0.256C109.774,112.101,109.854,112.121,109.95,112.159
		L109.95,112.159L109.95,112.159z M109.95,109.178v1.57c-0.02,0-0.02,0.019-0.038,0.019c-0.099,0.099-0.233,0.176-0.372,0.217
		v-2.434C109.696,108.767,109.835,108.981,109.95,109.178L109.95,109.178L109.95,109.178z M109.95,106.726
		c-0.137-0.059-0.271-0.138-0.41-0.216v0.296c0.139,0.117,0.273,0.213,0.41,0.312V106.726L109.95,106.726L109.95,106.726z
		 M109.735,103.705c0.078,0.06,0.138,0.118,0.215,0.177v-0.078C109.873,103.765,109.813,103.744,109.735,103.705L109.735,103.705
		L109.735,103.705z M109.95,110.748v-1.57C110.285,109.806,110.324,110.394,109.95,110.748L109.95,110.748z M111.013,123.517v0.059
		h-0.039L111.013,123.517L111.013,123.517L111.013,123.517z M111.013,121.379v0.511c-0.373-0.179-0.728-0.393-1.062-0.648v-0.274
		C110.324,121.144,110.679,121.28,111.013,121.379L111.013,121.379L111.013,121.379z M111.013,118.022v0.158
		c-0.14-0.139-0.296-0.274-0.472-0.393C110.717,117.867,110.873,117.944,111.013,118.022L111.013,118.022L111.013,118.022z
		 M111.013,114.925v2.393c-0.296,0.119-0.669,0.119-1.062,0.021v-0.863c0.138-0.059,0.273-0.156,0.394-0.295
		c0.49-0.509,0.216-1.117-0.394-1.764v-0.512C110.362,114.237,110.735,114.572,111.013,114.925L111.013,114.925L111.013,114.925z
		 M111.013,112.709v0.472c-0.373-0.257-0.728-0.551-1.062-0.863v-0.157C110.344,112.354,110.698,112.553,111.013,112.709
		L111.013,112.709L111.013,112.709z M111.013,109.474v0.137c-0.14-0.118-0.275-0.236-0.414-0.334
		C110.735,109.335,110.873,109.414,111.013,109.474L111.013,109.474L111.013,109.474z M111.013,107.04
		c-0.313,0.04-0.669-0.1-1.062-0.314v0.394c0.354,0.235,0.729,0.412,1.062,0.528V107.04L111.013,107.04L111.013,107.04z
		 M109.95,103.882c0.394,0.314,0.767,0.667,1.062,1v-0.41c-0.313-0.236-0.669-0.473-1.062-0.668V103.882L109.95,103.882
		L109.95,103.882z M111.013,117.317v-2.394c0.725,0.862,0.938,1.687,0.372,2.179C111.267,117.2,111.147,117.278,111.013,117.317
		L111.013,117.317z M112.362,121.222v2.373c-0.449-0.021-0.9-0.021-1.352-0.021v-0.058c0.411-0.414,0.822-0.863,1.235-1.295
		c-0.374-0.039-0.806-0.158-1.235-0.334v-0.51C111.521,121.535,111.991,121.535,112.362,121.222L112.362,121.222L112.362,121.222z
		 M112.362,118.966v0.608c-0.312-0.452-0.803-0.923-1.352-1.394v-0.158C111.521,118.299,111.974,118.631,112.362,118.966
		L112.362,118.966L112.362,118.966z M112.362,113.041v0.767c-0.432-0.117-0.9-0.354-1.352-0.627v-0.472
		C111.521,112.964,111.974,113.142,112.362,113.041L112.362,113.041L112.362,113.041z M112.362,110.315v0.471
		c-0.371-0.372-0.842-0.766-1.352-1.178v-0.137C111.5,109.728,111.951,110.021,112.362,110.315L112.362,110.315L112.362,110.315z
		 M112.362,103.431v0.156c-0.096-0.097-0.215-0.195-0.293-0.293C112.168,103.333,112.267,103.392,112.362,103.431L112.362,103.431
		L112.362,103.431z M111.013,104.882c0.646,0.688,0.979,1.354,0.51,1.844c-0.158,0.178-0.314,0.274-0.51,0.314v0.607
		c0.528,0.156,1.018,0.138,1.352-0.117v-1.627c-0.295-0.473-0.745-0.981-1.352-1.432V104.882L111.013,104.882L111.013,104.882z
		 M112.362,113.808c0.609,0.178,1.179,0.156,1.551-0.178c0.824-0.706,0.04-2.118-1.551-3.312v0.47
		c0.688,0.707,1.041,1.354,0.531,1.903c-0.177,0.194-0.354,0.295-0.531,0.352V113.808L112.362,113.808z M115.562,118.517v1.567
		c-0.939,1.196-1.922,2.353-2.922,3.531c-0.099,0-0.178-0.021-0.275-0.021v-2.372c0.041-0.039,0.099-0.08,0.138-0.139
		c0.373-0.412,0.255-0.941-0.138-1.51v-0.608c0.646,0.568,1.1,1.196,1.296,1.745C114.286,120.005,114.935,119.261,115.562,118.517
		L115.562,118.517L115.562,118.517z M115.562,117.298v1.02c-0.961-0.059-2.197-0.664-3-1.508
		C113.776,117.298,114.815,117.927,115.562,117.298L115.562,117.298L115.562,117.298z M115.562,115.042v0.629
		c-0.412-0.59-1.099-1.217-1.824-1.806C114.442,114.199,115.054,114.61,115.562,115.042L115.562,115.042L115.562,115.042z
		 M115.562,113.218v0.275c-0.217-0.178-0.412-0.354-0.588-0.529C115.168,113.041,115.366,113.121,115.562,113.218L115.562,113.218
		L115.562,113.218z M115.562,109.453v1.194c-1.021-0.098-2.295-0.901-3.177-1.862C113.776,109.354,114.737,110.335,115.562,109.453
		L115.562,109.453L115.562,109.453z M115.562,107.217c-0.568-0.55-1.295-1.039-2.139-1.432c0.885,0.706,1.727,1.489,2.139,2.176
		V107.217L115.562,107.217L115.562,107.217z M115.562,106.217v0.195c-0.138-0.118-0.254-0.234-0.371-0.353
		C115.308,106.118,115.442,106.158,115.562,106.217L115.562,106.217L115.562,106.217z M115.562,103.019
		c-0.449-0.783-1.412-1.627-2.629-2.195c1.295,1.039,2.512,2.215,1.785,3.001c-0.627,0.687-1.354,0.079-2.354-0.394v0.156
		c1.041,0.962,2.453,1.63,3.197,1.021V103.019L115.562,103.019L115.562,103.019z M115.562,100.979v0.156
		c-0.099-0.078-0.194-0.176-0.293-0.275C115.366,100.899,115.463,100.94,115.562,100.979L115.562,100.979L115.562,100.979z
		 M112.362,107.53c0-0.021,0.021-0.021,0.021-0.021c0.41-0.354,0.352-0.961-0.021-1.605V107.53L112.362,107.53L112.362,107.53z
		 M115.562,104.608v-1.59c0.373,0.627,0.432,1.235,0.021,1.59H115.562L115.562,104.608z M118.466,114.827v1.509
		c-0.943,1.257-1.904,2.513-2.904,3.748v-1.567c0.061-0.061,0.119-0.14,0.176-0.199c-0.057,0-0.115,0-0.176,0v-1.02
		c0.039-0.038,0.099-0.076,0.139-0.137c0.373-0.412,0.255-0.939-0.139-1.49v-0.629c0.688,0.629,1.156,1.294,1.313,1.864
		C117.405,116.239,117.937,115.553,118.466,114.827L118.466,114.827L118.466,114.827z M118.466,111.688
		c-0.474-0.49-1.08-0.98-1.785-1.394c0.646-0.667,0.116-1.94-1.119-3.079v0.744c0.334,0.551,0.394,1.061,0.021,1.473l-0.021,0.021
		v1.194c0.394,0.021,0.744-0.039,1.021-0.272c1.216,1.06,2.196,2.178,1.512,2.94c-0.628,0.688-1.512,0.334-2.53-0.099v0.275
		c0.922,0.687,2.078,1.098,2.903,0.94L118.466,111.688L118.466,111.688L118.466,111.688z M118.466,110.257v0.314
		c-0.297-0.196-0.57-0.412-0.805-0.648C117.937,110.021,118.209,110.14,118.466,110.257L118.466,110.257L118.466,110.257z
		 M118.466,106.196v1.354c-0.885,0.078-2.041-0.394-2.904-1.138v-0.195c1.119,0.488,2.08,0.939,2.746,0.216
		C118.366,106.354,118.424,106.274,118.466,106.196L118.466,106.196L118.466,106.196z M118.466,104.567
		c-0.55-0.549-1.277-1.059-2.1-1.45c0.922,0.765,1.824,1.588,2.1,2.313V104.567L118.466,104.567L118.466,104.567z M118.466,103.687
		v0.138c-0.1-0.079-0.197-0.177-0.297-0.274C118.269,103.587,118.366,103.628,118.466,103.687L118.466,103.687L118.466,103.687z
		 M118.466,100.666c-0.414-0.726-1.277-1.53-2.415-2.062c1.158,0.961,2.257,2.021,1.61,2.727c-0.551,0.609-1.198,0.079-2.1-0.354
		v0.157c0.941,0.843,2.217,1.433,2.883,0.863c0,0,0,0,0.021,0L118.466,100.666L118.466,100.666L118.466,100.666z M118.466,98.724
		v0.117c-0.1-0.078-0.179-0.176-0.236-0.255C118.308,98.624,118.386,98.685,118.466,98.724L118.466,98.724L118.466,98.724z
		 M118.466,101.999v-1.333C118.759,101.194,118.798,101.687,118.466,101.999L118.466,101.999z M119.562,113.276v1.529
		c-0.371,0.512-0.726,1.021-1.097,1.529v-1.509c0.115-0.179,0.253-0.373,0.392-0.55c-0.119,0.059-0.254,0.117-0.392,0.156v-2.744
		c0.606,0.686,0.94,1.392,0.863,1.939C119.406,113.513,119.485,113.396,119.562,113.276L119.562,113.276L119.562,113.276z
		 M119.562,110.591v0.53c-0.371-0.14-0.765-0.315-1.097-0.55v-0.314C118.856,110.414,119.229,110.551,119.562,110.591
		L119.562,110.591L119.562,110.591z M119.562,107.099l-0.139-0.059c0.355-0.59-0.057-1.568-0.958-2.473v0.863
		c0.097,0.273,0.097,0.53,0,0.766v1.354c0.156,0,0.312-0.04,0.47-0.1c0.215,0.178,0.433,0.373,0.627,0.55v-0.254
		c-0.177-0.118-0.371-0.236-0.567-0.334c0.098-0.039,0.177-0.099,0.255-0.157c0.059-0.038,0.118-0.117,0.156-0.175
		c0.039,0.058,0.099,0.098,0.156,0.155V107.099L119.562,107.099L119.562,107.099z M119.562,104.216v0.393
		c-0.392-0.196-0.765-0.471-1.097-0.784v-0.138C118.876,103.882,119.229,104.099,119.562,104.216L119.562,104.216L119.562,104.216z
		 M119.562,101.687v0.194c-0.194-0.176-0.412-0.353-0.607-0.509C119.171,101.449,119.367,101.567,119.562,101.687L119.562,101.687
		L119.562,101.687z M119.562,99.233v0.273c-0.371-0.098-0.765-0.334-1.097-0.667v-0.116
		C118.856,98.979,119.229,99.192,119.562,99.233L119.562,99.233L119.562,99.233z M119.562,97.153v0.178
		c-0.177-0.157-0.352-0.312-0.549-0.471C119.211,96.958,119.386,97.056,119.562,97.153L119.562,97.153L119.562,97.153z
		 M119.562,99.508v-0.274c0.236,0.021,0.453-0.039,0.648-0.254c0.432-0.473,0.018-1.041-0.648-1.647v-0.177
		c1.236,0.744,1.647,1.668,1.061,2.195C120.349,99.586,119.955,99.625,119.562,99.508L119.562,99.508z M124.388,101.804
		c-0.234-0.08-0.488-0.217-0.765-0.373c0.06-0.824-1.021-2.08-2.569-2.824c1.139,0.94,2.196,1.98,1.568,2.687
		c-0.607,0.627-1.312-0.058-2.335-0.47c0.746,0.765,1.885,1.451,2.647,1.312c0.924,0.824,1.608,1.668,1.08,2.256
		c-0.607,0.668-1.334-0.059-2.354-0.47c0.727,0.765,1.766,1.392,2.529,1.353c-0.312,0.668-0.646,1.295-0.961,1.923
		c-0.155-0.746-0.939-1.688-2.078-2.411c0.039-0.021,0.078-0.061,0.117-0.08c0.707-0.605-0.139-2.059-1.707-3.02v0.194
		c0.863,0.786,1.472,1.569,0.963,2.138c-0.297,0.314-0.608,0.336-0.963,0.197v0.393c0.51,0.254,1.021,0.393,1.412,0.254
		c1.002,0.902,1.748,1.824,1.157,2.474c-0.628,0.685-1.528,0.215-2.569-0.235v0.137c0.903,0.824,2.256,1.332,3.08,1.039
		c-0.353,0.647-0.707,1.275-1.08,1.885c-0.115-0.745-0.881-1.688-2-2.413V108c0.863,0.824,1.433,1.647,0.903,2.235
		c-0.255,0.296-0.567,0.373-0.903,0.354v0.53c0.492,0.156,0.979,0.195,1.354,0.077c-0.451,0.725-0.901,1.411-1.354,2.079v1.529
		c1.768-2.49,3.373-5.062,4.824-7.709v-3.943c-0.332-0.371-0.764-0.744-1.273-1.059c0.098-0.037,0.197-0.098,0.273-0.156
		c0.119-0.117,0.197-0.254,0.236-0.412c0.234,0.236,0.488,0.412,0.764,0.531v-0.254H124.388L124.388,101.804z M124.388,99.666v0.076
		c-0.076-0.058-0.156-0.138-0.234-0.195C124.229,99.586,124.312,99.625,124.388,99.666L124.388,99.666L124.388,99.666z
		 M124.388,98.803v0.569c-0.627-0.1-1.373-0.491-1.863-1.021C123.25,98.646,123.897,99.019,124.388,98.803L124.388,98.803
		L124.388,98.803z M124.388,96.997v0.334c-0.294-0.312-0.666-0.668-1.06-0.981C123.722,96.525,124.074,96.761,124.388,96.997
		L124.388,96.997L124.388,96.997z M124.388,95.703v0.372c-0.548-0.175-1.138-0.293-1.804-0.313
		C123.229,95.663,123.84,95.663,124.388,95.703L124.388,95.703L124.388,95.703z M124.388,99.372c0.354,0.038,0.688,0,0.902-0.198
		c0.51-0.432,0.059-1.393-0.902-2.177v0.334c0.394,0.47,0.588,0.923,0.274,1.273c-0.097,0.1-0.177,0.158-0.274,0.197V99.372
		L124.388,99.372z M127.742,98.507v0.805c-0.06,0.472-0.177,0.98-0.394,1.53c-0.883,2.14-1.861,4.218-2.963,6.257v-3.942
		c0.198,0.235,0.355,0.491,0.473,0.727c0.257-0.588,0.531-1.196,0.785-1.804c-0.354,0.214-0.805,0.195-1.258-0.02v-0.256
		c0.355,0.137,0.688,0.137,0.943-0.156c0.488-0.529-0.1-1.179-0.943-1.904v-0.076c0.924,0.489,1.492,1.078,1.609,1.588
		c0.234-0.607,0.49-1.236,0.727-1.863c0.471-1.254-0.531-2.687-2.336-3.315v-0.372C126.292,95.879,127.547,96.899,127.742,98.507
		L127.742,98.507L127.742,98.507z"/>
	<path fill="#FFFFFF" d="M119.054,97.781c-0.156,0.155-0.1,0.55,0.137,0.884c0.233,0.333,0.551,0.471,0.707,0.333
		c0.156-0.157,0.098-0.549-0.139-0.883C119.543,97.781,119.211,97.624,119.054,97.781L119.054,97.781z M116.229,100.037
		c-0.156,0.157-0.1,0.55,0.138,0.882c0.233,0.335,0.55,0.473,0.706,0.314c0.177-0.137,0.115-0.529-0.118-0.861
		C116.718,100.037,116.403,99.881,116.229,100.037L116.229,100.037L116.229,100.037z M113.188,102.49
		c-0.156,0.157-0.098,0.547,0.138,0.882c0.235,0.333,0.55,0.49,0.706,0.333c0.156-0.156,0.099-0.55-0.118-0.882
		C113.681,102.49,113.345,102.354,113.188,102.49L113.188,102.49L113.188,102.49z M109.813,105.549
		c-0.156,0.138-0.117,0.529,0.117,0.863c0.236,0.334,0.568,0.491,0.727,0.334c0.158-0.158,0.098-0.55-0.139-0.864
		C110.285,105.549,109.972,105.392,109.813,105.549L109.813,105.549L109.813,105.549z M106.873,108.472
		c-0.156,0.156-0.101,0.551,0.137,0.883c0.234,0.332,0.55,0.471,0.707,0.332c0.175-0.155,0.118-0.549-0.118-0.881
		C107.362,108.472,107.049,108.313,106.873,108.472L106.873,108.472L106.873,108.472z M103.754,111.14
		c-0.196,0.178-0.118,0.646,0.156,1.059c0.274,0.394,0.667,0.589,0.862,0.394c0.195-0.177,0.119-0.647-0.156-1.038
		C104.342,111.14,103.948,110.962,103.754,111.14L103.754,111.14L103.754,111.14z M107.578,113.729
		c-0.196,0.194-0.118,0.666,0.157,1.058c0.295,0.412,0.666,0.59,0.861,0.412c0.195-0.195,0.139-0.665-0.156-1.06
		C108.167,113.729,107.772,113.553,107.578,113.729L107.578,113.729L107.578,113.729z M105.106,117.454
		c-0.196,0.178-0.117,0.648,0.156,1.062c0.273,0.392,0.666,0.566,0.861,0.392c0.197-0.179,0.119-0.648-0.156-1.06
		C105.694,117.454,105.304,117.278,105.106,117.454L105.106,117.454L105.106,117.454z M102.282,120.829
		c-0.195,0.195-0.118,0.668,0.156,1.061c0.293,0.409,0.666,0.588,0.861,0.409c0.198-0.194,0.139-0.665-0.156-1.059
		C102.871,120.829,102.479,120.651,102.282,120.829L102.282,120.829L102.282,120.829z M99.575,123.634
		c-0.196,0.178-0.139,0.646,0.156,1.059c0.273,0.394,0.666,0.589,0.861,0.394c0.198-0.177,0.119-0.646-0.156-1.06
		C100.146,123.634,99.771,123.458,99.575,123.634L99.575,123.634L99.575,123.634z M111.05,110.728
		c-0.156,0.157-0.097,0.551,0.137,0.883c0.217,0.334,0.551,0.471,0.707,0.312c0.156-0.137,0.099-0.529-0.138-0.861
		C111.541,110.728,111.207,110.571,111.05,110.728L111.05,110.728L111.05,110.728z M113.875,107.354
		c-0.177,0.138-0.119,0.53,0.118,0.862c0.234,0.333,0.548,0.49,0.725,0.333c0.157-0.156,0.1-0.55-0.137-0.883
		C114.345,107.335,114.031,107.196,113.875,107.354L113.875,107.354L113.875,107.354z M116.681,105.099
		c-0.158,0.137-0.1,0.529,0.137,0.863c0.233,0.332,0.55,0.488,0.705,0.332c0.178-0.156,0.119-0.548-0.116-0.863
		C117.169,105.099,116.856,104.94,116.681,105.099L116.681,105.099L116.681,105.099z M118.719,102.604
		c-0.155,0.16-0.097,0.551,0.118,0.886c0.234,0.333,0.569,0.47,0.727,0.333c0.156-0.156,0.099-0.551-0.14-0.883
		C119.19,102.604,118.876,102.469,118.719,102.604L118.719,102.604L118.719,102.604z M121.093,99.919
		c-0.176,0.158-0.117,0.55,0.117,0.885c0.236,0.332,0.55,0.471,0.727,0.332c0.156-0.156,0.1-0.549-0.138-0.882
		C121.562,99.919,121.249,99.782,121.093,99.919L121.093,99.919L121.093,99.919z M122.878,96.663
		c-0.156,0.138-0.1,0.529,0.137,0.863c0.235,0.334,0.551,0.49,0.707,0.334c0.178-0.156,0.118-0.551-0.117-0.883
		C123.367,96.645,123.054,96.506,122.878,96.663L122.878,96.663L122.878,96.663z"/>
	<path fill="#EF3E42" d="M13.055,71.243c2.473,6.474,6.787,14.082,5.531,21.4c-0.765,4.452-4.218,10.004-6.609,15.769
		c20.242,7.081,44.074,2.296,69.199-6.808c30.031-10.768,61.239-16.868,74.538-5.333c-0.117-11.378-0.49-22.773-0.354-34.152
		c0.02-1.568-0.233-3.255-1.961-4.646c-15.24-12.339-44.506-4.943-75.086,6.178C54.814,72.186,33.297,75.186,13.055,71.243
		L13.055,71.243z"/>
	<path fill="#D31145" d="M141.414,92.563c4.924,0.668,9.159,2.1,12.103,4.375c5.512,4.256,2,8.983-10.062,8.553
		c-0.626-0.02-1.217,0.1-1.727,0.295L141.414,92.563L141.414,92.563z"/>
	<path fill="#EF3E42" d="M157.851,77.874c0,7.806-0.254,15.769,0.157,23.557c0.117,2.274-0.335,4.061-3.747,5.354
		c-3.607,1.371-8.119,0.509-11.375,1.961c-3.158,1.394-1.492,3.569,0.647,2.922c14.456-4.394,26.832-5.55,36.913-2.274
		c-3.1-4.49-6.159-8.865-8.139-13.476c-0.904-2.139-0.218-4.355,0.646-6.668c1.374-3.629,3.473-7.12,6.354-10.396
		C172.149,77.363,164.99,77.186,157.851,77.874L157.851,77.874z"/>
	<path fill="#FFFFFF" d="M57.384,116.416c0.137,0.137,0.098,0.49-0.118,0.784c-0.215,0.294-0.509,0.432-0.646,0.294
		c-0.157-0.138-0.099-0.49,0.118-0.783C56.953,116.416,57.228,116.278,57.384,116.416L57.384,116.416z M59.346,118.711
		c0.137,0.138,0.098,0.489-0.118,0.806c-0.215,0.293-0.49,0.432-0.646,0.293c-0.137-0.138-0.099-0.492,0.117-0.785
		C58.914,118.711,59.208,118.572,59.346,118.711L59.346,118.711L59.346,118.711z M60.875,116.631
		c0.157,0.118,0.097,0.472-0.098,0.785c-0.215,0.295-0.509,0.433-0.647,0.295c-0.158-0.139-0.098-0.489,0.117-0.786
		C60.444,116.61,60.739,116.493,60.875,116.631L60.875,116.631L60.875,116.631z M63.445,118.022
		c0.157,0.139,0.098,0.492-0.118,0.806c-0.195,0.294-0.49,0.433-0.646,0.294c-0.137-0.137-0.078-0.491,0.117-0.783
		C63.014,118.022,63.307,117.906,63.445,118.022L63.445,118.022L63.445,118.022z M61.269,120.478
		c0.157,0.114,0.097,0.471-0.118,0.782c-0.216,0.294-0.492,0.433-0.648,0.294c-0.137-0.137-0.098-0.488,0.119-0.783
		C60.837,120.455,61.13,120.339,61.269,120.478L61.269,120.478L61.269,120.478z M63.543,122.437
		c0.137,0.138,0.077,0.492-0.118,0.785c-0.216,0.313-0.51,0.432-0.648,0.295c-0.157-0.117-0.097-0.49,0.118-0.785
		C63.093,122.437,63.387,122.299,63.543,122.437L63.543,122.437L63.543,122.437z M66.348,119.867
		c0.157,0.138,0.098,0.491-0.117,0.784c-0.196,0.313-0.49,0.451-0.628,0.313c-0.157-0.137-0.097-0.489,0.098-0.804
		C65.916,119.867,66.211,119.729,66.348,119.867L66.348,119.867L66.348,119.867z M69.565,121.967
		c0.137,0.138,0.098,0.491-0.118,0.785c-0.215,0.312-0.509,0.433-0.647,0.295c-0.137-0.118-0.098-0.474,0.118-0.787
		C69.133,121.967,69.408,121.829,69.565,121.967L69.565,121.967L69.565,121.967z M66.19,124.065c0.137,0.138,0.08,0.488-0.117,0.783
		c-0.217,0.295-0.51,0.432-0.647,0.295c-0.157-0.137-0.099-0.49,0.117-0.783C65.741,124.065,66.034,123.929,66.19,124.065
		L66.19,124.065L66.19,124.065z M69.095,126.673c0.137,0.139,0.099,0.492-0.118,0.787c-0.215,0.293-0.51,0.43-0.648,0.293
		c-0.136-0.137-0.097-0.49,0.118-0.785C68.663,126.673,68.938,126.537,69.095,126.673L69.095,126.673L69.095,126.673z
		 M72.175,124.008c0.136,0.136,0.097,0.489-0.118,0.804c-0.217,0.295-0.511,0.431-0.648,0.295c-0.157-0.14-0.097-0.49,0.118-0.784
		C71.743,124.008,72.017,123.89,72.175,124.008L72.175,124.008L72.175,124.008z M75.292,126.065c0.138,0.138,0.098,0.49-0.118,0.785
		c-0.217,0.313-0.51,0.45-0.648,0.313c-0.137-0.138-0.097-0.492,0.118-0.806C74.861,126.065,75.136,125.929,75.292,126.065
		L75.292,126.065L75.292,126.065z M72.331,128.753c0.157,0.139,0.097,0.491-0.098,0.805c-0.216,0.295-0.511,0.433-0.646,0.295
		c-0.158-0.138-0.099-0.49,0.115-0.785C71.899,128.753,72.193,128.616,72.331,128.753L72.331,128.753L72.331,128.753z
		 M74.861,131.401c0.139,0.138,0.097,0.49-0.118,0.804c-0.216,0.294-0.49,0.431-0.646,0.294c-0.138-0.137-0.1-0.489,0.117-0.784
		C74.43,131.401,74.724,131.284,74.861,131.401L74.861,131.401L74.861,131.401z M77.489,133.972
		c0.157,0.137,0.099,0.489-0.118,0.805c-0.195,0.295-0.49,0.432-0.627,0.295c-0.157-0.139-0.098-0.491,0.098-0.786
		C77.058,133.972,77.351,133.853,77.489,133.972L77.489,133.972L77.489,133.972z M80.256,136.284
		c0.156,0.138,0.097,0.49-0.098,0.785c-0.1,0.138-0.217,0.234-0.314,0.295l-0.374-0.039c-0.099-0.156-0.039-0.471,0.157-0.746
		C79.824,136.284,80.117,136.147,80.256,136.284L80.256,136.284L80.256,136.284z"/>
	<path fill="#F3EA00" d="M89.572,146.603c-1.333-1.138-2.727-2.313-4.353-3.354c-2.295-1.471-4.688-2.529-7.042-3.551
		c4.099,2.158,7.531,5.316,11.396,7.238v-0.334H89.572z M89.572,140.384v0.57c-2.667,0-6.453-1.372-11.886-2.178
		c3.51-0.118,7.276,0.293,11.258,1.156L89.572,140.384L89.572,140.384L89.572,140.384z M89.572,136.854l-0.078-0.039
		c-3.707-2.492-5.512-5.571-7.1-8.944c0.725,2.647,1.137,5.295,3.55,7.786c1.118,1.158,2.295,2.354,3.628,3.59V136.854
		L89.572,136.854L89.572,136.854z M88.827,134.246c0.255,0.155,0.491,0.333,0.745,0.489v0.234
		C89.318,134.716,89.082,134.479,88.827,134.246L88.827,134.246L88.827,134.246z M89.572,140.954c0.255,0,0.49-0.021,0.726-0.039
		l-0.726-0.531V140.954L89.572,140.954z M89.572,146.937v-0.334c0.273,0.256,0.569,0.491,0.843,0.746
		C90.141,147.21,89.845,147.094,89.572,146.937L89.572,146.937L89.572,146.937z M91.063,138.147v2.453
		c-0.511-0.451-1.02-0.903-1.491-1.354v-2.393C90.102,137.228,90.612,137.678,91.063,138.147L91.063,138.147L91.063,138.147z
		 M89.572,134.735c0.53,0.373,1.021,0.726,1.491,1.078v0.707c-0.47-0.529-0.981-1.039-1.491-1.551V134.735L89.572,134.735
		L89.572,134.735z M91.063,140.603c0.293,0.254,0.588,0.488,0.882,0.744c1,0.823,1.805-0.313,1.099-1.039
		c-0.667-0.707-1.294-1.472-1.98-2.16L91.063,140.603L91.063,140.603z M91.063,135.813c3.805,2.884,5.453,5.297,5.57,7.414v0.53
		c-0.038,0.608-0.195,1.197-0.47,1.745c-0.648-1.962-1.333-3.784-2.629-5.863c-0.646-1.041-1.509-2.1-2.47-3.119L91.063,135.813
		L91.063,135.813L91.063,135.813z"/>
	<path fill="#8CC63F" d="M61.777,136.324c1.041-1.255,2.275-1.589,3.629-1.273c-0.745-0.687-1.451-1.373-2.157-2.079
		C62.269,133.794,61.719,134.894,61.777,136.324L61.777,136.324z"/>
	<path fill="#00A94F" d="M95.495,108.608c1.237,0.765,2.099,1.513,2.453,2.295c0.57,1.294,0.312,2.607,0,3.924
		C97.908,112.571,97.104,110.513,95.495,108.608L95.495,108.608z"/>
	<path fill="#F3EA00" d="M86.55,128.597c-0.195,0.215-0.195,0.49-0.057,0.688c0.255,0.352,0.568,0.667,0.902,0.961
		c0.216,0.215,0.45,0.234,0.725-0.078c5.688-6.532,7.356-11.438,6.984-15.555C94.77,120.612,90.807,123.733,86.55,128.597
		L86.55,128.597z"/>
	<path fill="#F3EA00" d="M84.923,127.026c-0.196,0.216-0.178,0.451-0.019,0.668c0.039,0.039,0.057,0.098,0.097,0.138
		c0.197,0.176,0.471,0.099,0.628-0.138c1.039-1.609,2.138-3.141,3.394-4.57C87.59,124.397,86.198,125.674,84.923,127.026
		L84.923,127.026z"/>
	<path fill="#8CC63F" d="M120.622,120.927c-1.432-0.805-2.863-1.216-4.273-0.882c0.725-0.923,1.41-1.805,2.058-2.668
		C120.033,118.278,120.582,119.534,120.622,120.927L120.622,120.927z"/>
	<path fill="#F3EA00" d="M93.318,134.108c-0.157,0.176-0.195,0.392-0.098,0.488c0.137,0.178,0.216,0.256,0.394,0.395
		c0.136,0.098,0.235,0.06,0.313-0.039c2.157-2.551,4.688-4.669,7.416-6.551C98.224,129.812,95.515,131.696,93.318,134.108
		L93.318,134.108z"/>
	<path fill="#F3EA00" d="M89.12,131.342c0.06-0.353,0.079-0.705,0.157-1.077c0.041-0.295,0.335-0.432,0.785-0.568
		c3.904-1.256,7.847-2.197,11.751-2.885C97.594,128.224,93.338,129.558,89.12,131.342L89.12,131.342z"/>
	<path d="M70.722,78.226v5.591c-0.097,0.058-0.195,0.156-0.273,0.275c-0.392,0.489-0.747,0.98-1.099,1.47
		c0.019,2.726,0.059,5.433,0.077,8.16c0.491,0.019,0.923-0.059,1.295-0.274v5.333c-0.451,0.217-0.902,0.393-1.353,0.591
		c-0.039,2.02-0.157,4.059,0.118,6.078c0.157,1-0.157,1.49-1.236,1.746c-0.901,0.216-1.746,0.589-2.628,0.884
		c-1.628,0.528-2.158-0.354-2.118-1.745c0.098-2.63-0.157-5.218-0.235-7.848c-1.079,1.041-2.178,2.08-3.256,3.1
		c-0.824,0.646-1.648,1.1-2.492,0.118c-0.333-0.588-0.666-1.218-1-1.845c-1.452,1.334-2.902,2.648-4.354,3.963
		c-0.922,0.726-1.707,0.648-2.372-0.236c-0.334-0.665-0.668-1.333-1.002-2c0.51,2.157,0.687,4.021-1.235,3.746
		c-1.667,0.157-3.53,0.257-5.198,0.295c-1.394,0.02-1.099-0.902-0.921-2.041c0.527-3.236-0.099-6.551-0.491-9.826
		c-1.256,3.434-2.531,6.887-3.746,10.317c-0.412,1.194-1.178,1.707-2.374,1.627c-1.001-0.077-1.824-0.195-2.118-1
		c-1.198-3.451-2.57-6.883-3.865-10.337c-0.178,3.12-0.923,6.376-0.235,9.337c0.47,2.06,0.294,2.63-1.001,2.745
		c-1.196,0.099-2.412,0.158-3.629,0.255c-1.235,0.101-1.626-1.019-1.488-2.255c0.568-5.217,1.157-10.453,1.745-15.691
		c0.137-1.274,0.157-2.629-0.373-3.865c-0.372-0.882-0.98-1.627,0-2.293c1.294-0.845,2.746-1.806,4.119-2.806
		c0.922-0.902,2.354-0.627,2.49,0.745c1.314,4.198,3.256,8.397,5.119,12.594c1.648-4.158,3.1-8.316,4.238-12.475
		c-0.138-1.47,0.922-1.452,3.236-1.608c1.844-0.157,2.745-0.333,3.118,1.118c0.707,5.611,1.413,11.219,2.118,16.83
		c0.393-2.903,0.53-5.824,0.119-8.729c-0.53-0.745-0.53-1.49,0-2.256c0.706-0.45,1.413-0.9,2.118-1.352
		c-4-1.568-3.295-7.356,1.001-7.748c3.118-0.256,4.529,3.274,2.118,6.375c0.824,0.215,1.119,0.843,0.882,1.863
		c0.039,3.237,0.08,6.493,0.118,9.729c-0.176,1.53,0.333,1.981,1.49,1.373c-0.157-5.709-0.333-11.396-0.49-17.085
		c-0.412-0.823-0.784-1.981,0-2.491c1.275-0.843,2.569-1.668,3.863-2.49c1.591-1.042,2.414-0.098,2.237,1.372
		c0.099,5.884,0.08,11.79,0.256,17.692c0.057,1.591,0.726,1.648,1.373,1.491c-0.08-3.394-0.158-6.806-0.255-10.218
		c-0.393-0.786-0.668-1.57,0-2.375c1.294-0.901,2.588-1.825,3.864-2.726c0.667-0.412,1.333-0.412,2,0
		C69.584,78.912,70.153,78.52,70.722,78.226L70.722,78.226z M84.355,74.029v5.276c-0.863,1.275-1.156,3.923-0.726,8.453l0.726-0.921
		v6.433c-3.236,4.218-6.238,3.552-7.376-2.02c-1.177,4.354-3.551,6.276-6.257,7.532v-5.333c0.98-0.569,1.472-2.08,1.373-4.493
		c-0.058-1.255-0.157-2.511-0.275-3.766c-0.157-1.372-0.548-1.825-1.098-1.372v-5.591c3.393-1.805,6.159,0.098,7.377,4.688
		C79.196,78.56,81.314,75.735,84.355,74.029L84.355,74.029z M84.355,93.27v-6.433l0.92-1.177L85.1,78.599
		c-0.275,0.156-0.53,0.372-0.745,0.706v-5.276c1.195-0.648,2.509-1.138,3.961-1.473c2.079-0.47,2.785-0.175,2.747,1.745
		c-0.08,3.573,0.078,7.141,0.374,10.73c0.705-0.392,1.352-0.059,2.118,0.863c0.647,0.805,0.568,1.453-0.236,2.255
		c-1.393,1.316-2.668,2.728-4,4.1c-0.786,0.824-1.57,1.431-2.375,0.629c-0.412-0.531-0.825-1.079-1.236-1.629
		C85.257,92.016,84.806,92.701,84.355,93.27L84.355,93.27z M107.599,61.121v5.256c-0.529,0.099-1.156,0.354-1.884,0.786l0.177,4.491
		c0.646-0.255,1.217-0.51,1.707-0.824v9.788l-1.609-1.452v6.925c0,1.313-0.194,2.1-1.393,2.49l-3.629,1.217
		c-1.234,0.413-1.627-0.549-1.648-1.903l-0.176-18.829c-0.058-1.196-0.371-2.296-0.765-3.373c-0.567-0.805,0-1.531,0.94-1.825
		C101.301,63.28,104.597,61.946,107.599,61.121L107.599,61.121L107.599,61.121z M122.563,64.987V70.4
		c-0.215,0.431-0.334,1.058-0.256,1.511c0.098-0.138,0.197-0.295,0.256-0.432v6.648c-0.078,0.06-0.158,0.117-0.256,0.177
		c0.078,0.177,0.157,0.333,0.256,0.471v6.375c-1.688,0.275-3.434-0.118-4.746-1.314l-1.904,2.333c-0.784,0.55-1.489,0.55-2.157,0
		l-6.157-5.55v-9.788c1.313-0.805,2.039-1.825,1.844-3.061c-0.176-1.118-0.823-1.568-1.844-1.393v-5.256
		c2.353-0.646,4.531-0.98,5.728-0.352c4.179,2.138,4.53,10.355-1.472,13.651l4.158,5.179
		C115.718,72.97,118.444,66.495,122.563,64.987L122.563,64.987z M135.177,68.575c-1.117,2.001-1.099,5.336-1.021,8.436
		c0,0.47,0.491,0.038,1.021-0.511v5.983c-2.705,2.568-5.572,2.06-7.238-2.197c-0.627,2.688-2.922,4.472-5.373,4.864v-6.375
		c0.391,0.51,1,0.687,1.568,0.137c1.04-1.02,0.981-2.294,1.04-3.374c-0.786,1-1.608,1.904-2.608,2.589v-6.648
		c0.254-0.491,0.332-0.981,0.274-1.472c-0.1,0.099-0.196,0.236-0.274,0.393v-5.413c0.979-0.374,2.039-0.453,3.139-0.198
		c3.1,0.726,3.607,5.317,0.488,9.71l1.845-0.334c0.922-5.334,2.784-9.494,7.142-10.63v5.04H135.177z M136.235,75.461
		c-0.118-2.275-0.295-4.553-0.354-6.827c-0.02-0.589-0.451-0.509-0.688-0.098l-0.02,0.039v-5.041
		c1.411-0.372,3.098-0.432,5.119-0.098c1.273,0.215,1.688,0.804,1.727,1.902l0.254,11.73c0.393-0.157,0.824-0.256,1.472-0.139
		l-0.255-12.71c-0.02-1.079,0.041-2.138-0.528-3.197c-0.608-1.137-0.392-2.178,1.118-2.335l3.551-0.352
		c1.176-0.118,1.883,0.332,1.901,1.471l0.255,17.987c0,1.098,0.234,2.02,0.962,2.334c0.706,0.295,1.117,0.783,1.472,1.803
		c0.312,0.981,0.293,1.53-0.433,1.825l-5.021,1.981c-0.824,0.137-1.474-0.235-1.904-1.118c-0.629-1.413-1.061-2.825-1.038-4.238
		l-3.808,2.591c-1.019,1.177-1.979,1.177-2.588,0l-0.941-1.981c-0.432,0.569-0.883,1.078-1.313,1.491V76.5
		C135.548,76.107,135.94,75.676,136.235,75.461L136.235,75.461z"/>
	<path d="M70.075,76.461v5.57c-0.098,0.08-0.176,0.176-0.275,0.294c-0.392,0.471-0.745,0.98-1.098,1.472
		c0.019,2.707,0.06,5.433,0.08,8.159c0.508,0.019,0.92-0.058,1.293-0.274v5.336c-0.45,0.213-0.903,0.392-1.355,0.567l0.138,6.101
		c0.137,1-0.177,1.49-1.255,1.744c-0.883,0.217-1.747,0.588-2.608,0.863c-1.648,0.55-2.295-0.332-2.314-1.745l-0.06-7.826
		c-1.077,1.04-2.157,2.08-3.236,3.119c-0.843,0.646-1.666,1.099-2.51,0.117c-0.315-0.628-0.648-1.235-0.98-1.864
		c-1.473,1.334-2.923,2.668-4.374,3.965c-0.923,0.725-1.707,0.646-2.375-0.236c-0.333-0.648-0.667-1.313-0.98-1.98
		c0.491,2.137,0.667,3.981-1.256,3.727c-1.667,0.156-3.53,0.256-5.197,0.295c-1.393,0.02-1.099-0.902-0.922-2.04
		c0.53-3.236-0.08-6.55-0.49-9.847c-1.255,3.454-2.531,6.906-3.747,10.336c-0.412,1.197-1.157,1.707-2.355,1.629
		c-1.019-0.078-1.843-0.196-2.118-1c-1.215-3.473-2.588-6.885-3.883-10.336c-0.176,3.118-0.921,6.374-0.235,9.336
		c0.471,2.059,0.295,2.627-1.001,2.744c-1.175,0.101-2.412,0.158-3.608,0.256c-1.255,0.1-1.628-1.02-1.51-2.256
		c0.568-5.218,1.175-10.455,1.747-15.691c0.157-1.275,0.157-2.627-0.374-3.863c-0.373-0.903-0.981-1.63,0-2.295
		c1.295-0.843,2.745-1.805,4.119-2.805c0.923-0.905,2.375-0.63,2.492,0.745c1.314,4.198,3.256,8.395,5.12,12.592
		c1.665-4.158,3.098-8.317,4.236-12.475c-0.137-1.47,0.92-1.45,3.236-1.628c1.842-0.138,2.745-0.313,3.119,1.137
		c0.704,5.611,1.411,11.222,2.116,16.83c0.393-2.922,0.531-5.825,0.119-8.728c-0.529-0.746-0.529-1.51,0-2.255
		c0.707-0.452,1.413-0.903,2.138-1.375c-4.021-1.549-3.315-7.336,0.981-7.728c3.118-0.274,4.551,3.276,2.118,6.374
		c0.843,0.216,1.118,0.843,0.883,1.865c0.04,3.235,0.079,6.472,0.117,9.729c-0.176,1.53,0.335,1.98,1.512,1.373
		c-0.177-5.707-0.334-11.394-0.512-17.085c-0.41-0.843-0.784-1.981,0-2.49c1.275-0.843,2.571-1.667,3.866-2.511
		c1.588-1.019,2.412-0.078,2.255,1.375c0.079,5.902,0.059,11.808,0.235,17.712c0.06,1.568,0.746,1.646,1.374,1.488
		c-0.08-3.393-0.157-6.806-0.237-10.218c-0.412-0.783-0.687-1.569,0-2.375c1.275-0.901,2.571-1.822,3.866-2.745
		c0.647-0.394,1.313-0.394,1.981,0C68.938,77.147,69.506,76.755,70.075,76.461L70.075,76.461z M83.726,72.263v5.256
		c-0.862,1.275-1.175,3.943-0.725,8.474l0.725-0.922v6.433c-3.236,4.218-6.256,3.532-7.393-2.02
		c-1.158,4.353-3.551,6.276-6.257,7.533v-5.335c1-0.569,1.47-2.079,1.372-4.493c-0.058-1.254-0.136-2.509-0.272-3.765
		c-0.157-1.374-0.55-1.843-1.1-1.393v-5.57c3.393-1.805,6.158,0.097,7.375,4.667C78.549,76.794,80.667,73.969,83.726,72.263
		L83.726,72.263z M83.726,91.504v-6.433l0.923-1.178l-0.197-7.061c-0.275,0.157-0.529,0.374-0.727,0.687v-5.256
		c1.179-0.647,2.493-1.139,3.963-1.47c2.06-0.492,2.786-0.198,2.727,1.745c-0.079,3.57,0.078,7.139,0.373,10.729
		c0.707-0.393,1.353-0.06,2.118,0.863c0.668,0.805,0.607,1.452-0.236,2.237c-1.391,1.333-2.666,2.745-4,4.118
		c-0.785,0.825-1.57,1.433-2.354,0.628c-0.433-0.55-0.843-1.078-1.255-1.628C84.61,90.25,84.157,90.917,83.726,91.504L83.726,91.504
		z M106.95,59.533v5.081c-0.528,0.099-1.156,0.352-1.863,0.785l0.157,4.49c0.647-0.253,1.216-0.508,1.706-0.822v9.788l-1.608-1.453
		v6.906c0,1.335-0.176,2.119-1.394,2.51l-3.629,1.215c-1.233,0.413-1.627-0.547-1.627-1.902L98.519,67.3
		c-0.08-1.196-0.375-2.295-0.787-3.373c-0.568-0.825-0.039-1.688,0.961-1.825C100.653,61.827,103.948,60.455,106.95,59.533
		L106.95,59.533L106.95,59.533z M121.917,63.534v5.08c-0.216,0.453-0.333,1.08-0.256,1.531c0.099-0.138,0.197-0.295,0.256-0.432
		v6.65c-0.079,0.058-0.157,0.118-0.256,0.175c0.079,0.176,0.156,0.334,0.256,0.451v6.396c-1.688,0.275-3.434-0.118-4.748-1.316
		l-1.9,2.336c-0.766,0.548-1.492,0.548-2.158,0l-6.159-5.551v-9.788c1.335-0.805,2.041-1.845,1.843-3.08
		c-0.175-1.099-0.802-1.55-1.843-1.374v-5.081c2.354-0.707,4.53-1.157,5.728-0.53c4.18,2.118,4.531,10.358-1.471,13.653l4.159,5.177
		C115.071,71.225,117.916,65.3,121.917,63.534L121.917,63.534z M134.528,66.812c-1.117,1.98-1.1,5.333-1.02,8.433
		c0.02,0.47,0.488,0.018,1.02-0.53v6.002c-2.707,2.55-5.57,2.059-7.236-2.197c-0.63,2.688-2.923,4.473-5.375,4.866V76.99
		c0.412,0.53,1.02,0.687,1.568,0.158c1.059-1.021,0.98-2.296,1.039-3.373c-0.765,1-1.607,1.901-2.607,2.588v-6.65
		c0.255-0.49,0.332-0.981,0.275-1.47c-0.101,0.098-0.197,0.234-0.275,0.371v-5.08c0.961-0.412,1.98-0.609,3.059-0.509
		c3.159,0.293,3.688,5.315,0.59,9.708l1.824-0.333c0.922-5.335,2.784-9.493,7.141-10.631v5.043H134.528z M162.344,82.148h-1.021
		v2.786h0.354v-1.236h0.371c0.1,0,0.16,0,0.198,0c0.038,0.02,0.06,0.039,0.099,0.039v-0.374h-0.668v-0.92h0.668L162.344,82.148
		L162.344,82.148z M162.344,81.05v0.491c-0.061,0-0.099,0-0.157,0c-1.041,0-1.902,0.844-1.902,1.902
		c0,1.038,0.861,1.881,1.902,1.881c0.06,0,0.098,0,0.157,0v0.512c-0.061,0-0.099,0-0.157,0c-1.334,0-2.395-1.08-2.395-2.393
		c0-1.333,1.061-2.413,2.395-2.413C162.245,81.031,162.283,81.05,162.344,81.05L162.344,81.05L162.344,81.05z M135.589,73.694
		c-0.117-2.274-0.273-4.549-0.354-6.826c-0.02-0.588-0.45-0.509-0.688-0.098l-0.02,0.041v-5.042
		c1.433-0.373,3.119-0.432,5.119-0.099c1.274,0.217,1.707,0.805,1.727,1.903l0.255,11.709c0.394-0.136,0.824-0.253,1.472-0.136
		l-0.256-12.691c-0.018-1.079,0.041-2.137-0.529-3.198c-0.588-1.157-0.392-2.196,1.139-2.333l3.531-0.354
		c1.195-0.118,1.882,0.334,1.902,1.472l0.254,17.987c0,1.097,0.236,2.02,0.963,2.314c0.705,0.313,1.117,0.805,1.47,1.823
		c0.334,0.982,0.295,1.531-0.433,1.825l-5.02,1.981c-0.825,0.137-1.452-0.236-1.905-1.118c-0.626-1.413-1.058-2.825-1.038-4.237
		l-3.785,2.588c-1.039,1.178-2,1.178-2.608,0l-0.94-1.981c-0.433,0.569-0.863,1.08-1.313,1.491v-6.002
		C134.901,74.342,135.293,73.891,135.589,73.694L135.589,73.694L135.589,73.694z M162.344,83.737c0.021,0.02,0.038,0.039,0.06,0.039
		c0.037,0.041,0.098,0.099,0.175,0.197c0.062,0.078,0.138,0.215,0.235,0.372l0.334,0.589h0.432l-0.451-0.766
		c-0.077-0.137-0.176-0.275-0.273-0.372c-0.039-0.04-0.119-0.079-0.195-0.137c0.232-0.042,0.41-0.118,0.527-0.255
		c0.119-0.138,0.178-0.295,0.178-0.512c0-0.137-0.04-0.293-0.098-0.411c-0.08-0.139-0.178-0.215-0.295-0.275
		c-0.117-0.038-0.275-0.059-0.511-0.059h-0.116v0.295h0.137c0.178,0,0.314,0.039,0.41,0.137c0.08,0.08,0.118,0.195,0.118,0.313
		c0,0.099-0.019,0.177-0.058,0.255c-0.039,0.08-0.118,0.139-0.197,0.177c-0.077,0.039-0.215,0.039-0.352,0.039h-0.06V83.737
		L162.344,83.737z M162.344,85.837v-0.512c0.979-0.077,1.744-0.901,1.744-1.881c0-1-0.767-1.825-1.744-1.902V81.05
		c1.253,0.078,2.235,1.119,2.235,2.394C164.579,84.699,163.597,85.738,162.344,85.837L162.344,85.837L162.344,85.837z"/>
	<path fill="#FFFFFF" d="M50.539,76.401c-2.255,0.706-2.785,4.473-0.687,5.022c1.57,0.431,3.08-1.042,3.02-2.845
		C52.814,76.401,51.794,76.029,50.539,76.401L50.539,76.401z M48.458,85.249l4.16-2.432l0.177,11.944
		c0.02,1.393,0.764,1.569,1.646,1.569c0.823-0.667,1.178,0.431,0.51,0.942l-4.413,4c-0.98-1.217-1.393-2.688-1.393-4.433v-9.004
		C49.146,86.62,48.95,85.757,48.458,85.249L48.458,85.249L48.458,85.249z M55.796,75.794l4.139-2.433L60.269,92.8
		c0.039,1.393,0.784,1.568,1.646,1.549c0.825-0.648,1.198,0.45,0.531,0.961l-4.413,3.981c-1.001-1.216-1.375-2.688-1.393-4.413
		l-0.157-16.497C56.463,77.167,56.285,76.304,55.796,75.794L55.796,75.794L55.796,75.794z M28.374,78.833
		c-1.413,0.981-2.825,1.961-4.256,2.943c0.667,1.294,0.824,2.609,0.785,3.904l-1.825,17.987c1.393-0.061,2.786-0.118,4.158-0.177
		c-0.549-0.863-0.802-1.726-0.764-2.571c0.157-4.333,0.568-8.669,0.862-12.984c2.02,5.021,4.021,10.042,6.062,15.044
		c0.157,0.373,1.627,0.431,1.824-0.1c1.921-5.395,3.865-10.826,5.788-16.261c0.705,5.649,1.802,12.573,0.802,16.184
		c1.904-0.137,3.63-0.294,5.531-0.432c-1.018-8.004-2.02-16.025-3.039-24.068c-1.275,0.097-2.531,0.177-3.806,0.275
		c-1.255,5.276-3.177,10.552-5.12,15.849C32.571,89.466,30.12,84.325,28.374,78.833L28.374,78.833L28.374,78.833z M70.173,77.991
		v2.59c-0.137,0.019-0.274,0.077-0.392,0.136c-1.08,0.509-1.727,1.608-2.257,2.727c0.059,3.334,0.119,6.649,0.157,9.984
		c0.922,0.078,1.765-0.04,2.492-0.354v2.492c-0.805,0.412-1.648,0.686-2.492,0.822l0.078,7.788l-3.609,1.041l-0.332-21.46
		c0-0.825-0.099-1.646-0.472-2.49l3.942-2.728l0.08,2.571C68.329,79.676,69.27,78.657,70.173,77.991L70.173,77.991L70.173,77.991z
		 M70.173,95.566v-2.492c2.392-1.079,3.433-4.451,1.941-10.67c-0.393-1.667-1.236-1.98-1.941-1.823v-2.59
		c3.255-2.453,5.805-0.216,6.198,4.334C76.939,88.779,73.939,93.643,70.173,95.566L70.173,95.566z M83.648,73.656v2.157
		c-1.884,1.118-2.766,4.454-2.118,10.65c0.157,1.511,0.94,1.903,1.825,1.021c0.097-0.098,0.195-0.217,0.293-0.315v2.296
		l-1.728,2.352c-1.707,2.314-4.079,0.863-4.177-1.942C77.508,82.639,79.509,76.5,83.648,73.656L83.648,73.656L83.648,73.656z
		 M83.648,89.466V87.17c0.822-0.863,1.55-1.825,2.334-2.726c-0.059-3.02-0.137-6.042-0.196-9.042
		c-0.805-0.078-1.53,0.06-2.138,0.412v-2.157c1.588-1.099,3.472-1.706,5.688-1.706l0.157,11.414
		c0.157,1.237,0.786,1.805,1.765,1.453c0.687-0.255,1.158,0.039,0.569,0.647l-4.589,4.747c-0.883-1.314-1.413-2.629-1.218-3.942
		L83.648,89.466L83.648,89.466z M107.049,60.73v2.588c-0.94,0.177-2.099,0.627-3.118,1.138c0.059,2.355,0.098,4.727,0.137,7.081
		c1.119-0.196,2.119-0.49,2.981-0.923v6.728l-2.883-2.492v10.77l-4.354,1.178l-0.218-20.205c-0.114-1.216-0.45-2.354-0.961-3.373
		C101.321,62.966,104.205,61.73,107.049,60.73L107.049,60.73L107.049,60.73z M107.049,77.343l7.218,6.219l2.139-2.433l-7.237-8.846
		c3.669-1.981,5.746-4.433,5.474-7.591c-0.373-4.079-2.629-5.041-5.768-4.57c-0.607,0.177-1.217,0.393-1.824,0.609v2.588
		c0.568-0.098,1.061-0.098,1.393,0.059c2.119,0.98,2.101,3.06,0.961,5.061c-0.569,0.962-1.371,1.668-2.354,2.177L107.049,77.343
		L107.049,77.343z M121.74,64.907v1.844c-0.335,0.236-0.628,0.707-0.843,1.433c-0.61,2.079-0.826,4.178-0.903,6.256
		c0.628-0.568,1.216-1.157,1.746-1.784v2.293c-0.472,0.414-0.941,0.825-1.433,1.237c0.233,1.333,0.746,2.02,1.433,2.295v3.883
		c-0.962,0.137-1.981-0.077-3.062-0.803c-3.256-2.158-2.941-9.925,0.688-14.397C120.19,66.164,120.976,65.418,121.74,64.907
		L121.74,64.907L121.74,64.907z M121.74,74.949c2.432-2.216,4.433-4.609,4.608-7.531c0.197-3.138-1.902-4.355-4.608-2.512v1.844
		c0.862-0.646,1.901,0.354,1.727,2.158c-0.155,1.432-0.823,2.648-1.727,3.748V74.949L121.74,74.949z M121.74,82.364v-3.883
		c0.313,0.118,0.687,0.157,1.077,0.138c1.748-0.099,2.748-1.608,3.021-4.649l1.333-0.138
		C126.84,77.951,124.683,81.932,121.74,82.364L121.74,82.364L121.74,82.364z M134.431,63.103v2.159
		c-0.549,0.214-1.039,0.764-1.392,1.666c-1.06,2.866-1.101,5.768-0.59,8.65c0.178,1.061,1,1.591,1.962,1.002l0.02-0.021v2.354
		c-0.117,0.119-0.234,0.217-0.332,0.334c-4.57,4.433-6.787-0.57-5.238-8.179C129.743,66.673,131.705,64.064,134.431,63.103
		L134.431,63.103L134.431,63.103z M134.431,78.912v-2.354c0.903-0.547,1.53-1.452,2.297-2.177c-0.117-2.864-0.062-5.845-0.179-8.688
		c-0.706-0.531-1.45-0.707-2.118-0.432v-2.159c1.668-0.589,3.609-0.568,5.748,0.04l0.137,11.278c0.02,1.844,0.941,2.138,1.863,1.981
		c0.588-0.097,1.1,0.785,0.648,1.098l-4.631,3.355c-0.901-1.393-1.375-2.884-1.432-4.454
		C136.039,77.48,135.138,78.264,134.431,78.912L134.431,78.912z M143.315,58.296l4.316-0.686l0.273,19.302
		c0.021,1.568,0.686,2.53,1.845,2.804c0.627,0.137,1.097,0.962,0.665,1.138l-4.492,1.862c-1.039-1.06-1.588-2.588-1.607-4.864
		l-0.195-16.848C144.103,59.944,143.942,59.024,143.315,58.296L143.315,58.296L143.315,58.296z"/>
</g>
</svg>
