<?xml version="1.0" encoding="utf-8"?>
<!-- Generator: Adobe Illustrator 16.0.0, SVG Export Plug-In . SVG Version: 6.00 Build 0)  -->
<!DOCTYPE svg PUBLIC "-//W3C//DTD SVG 1.1//EN" "http://www.w3.org/Graphics/SVG/1.1/DTD/svg11.dtd">
<svg version="1.1" id="Layer_1" xmlns="http://www.w3.org/2000/svg" xmlns:xlink="http://www.w3.org/1999/xlink" x="0px" y="0px"
	 width="238.587px" height="98.876px" viewBox="466.662 400.004 238.587 98.876"
	 enable-background="new 466.662 400.004 238.587 98.876" xml:space="preserve">
<g>
	<path d="M648.337,400.756L648.337,400.756c-4.512,0.9-9.877,2.697-14.34,4.809c0,0-0.156,0.071-0.254,0.116
		c-0.105-0.04-0.266-0.098-0.266-0.098c-1.615-0.6-3.162-0.983-4.727-1.175c-2.844-0.356-5.883-0.232-9.029,0.365
		c-2.648,0.499-5.436,1.425-8.529,2.828c0,0-0.494,0.221-0.828,0.377c-0.039-0.314-0.127-0.982-0.127-0.982l-0.713,0.096
		l-31.589,4.306c0,0,2.062,15.11,2.134,15.627c-0.285,0.016-0.724,0.045-0.724,0.045c-0.017,0-2.745,0.17-4.063,0.43
		c-2.8,0.547-5.393,1.57-7.3,2.879c0,0-0.546,0.375-0.902,0.619c-0.027-0.217-0.057-0.434-0.057-0.434
		c-0.931-6.812-5.128-11.694-12.142-14.122c-4.705-1.639-10.615-1.876-16.643-0.679c-4.509,0.896-9.869,2.694-14.341,4.797
		c0,0-0.151,0.075-0.254,0.12c-0.104-0.036-0.264-0.096-0.264-0.096c-1.648-0.605-3.193-0.99-4.727-1.177
		c-2.861-0.354-5.898-0.229-9.037,0.37c-2.64,0.497-5.426,1.424-8.525,2.829c0,0-0.494,0.227-0.822,0.373
		c-0.041-0.316-0.131-0.98-0.131-0.98l-32.3,4.4l2.918,21.418l0.617,0.008c1.561,0.02,2.68,0.309,3.328,0.871
		c1.297,1.127,1.521,2.139,1.694,3.447c0.005,0.006,0.093,0.654,3.146,23.037l0.004-0.004c-0.002,0.043,0.004,0.09,0.01,0.131
		c0.017,0.111,0.023,0.234,0.023,0.363c-0.008,0.707-0.295,1.645-1.103,2.455c-0.438,0.459-1.118,0.857-2.014,1.191l-0.533,0.199
		l2.373,17.414l100.156-13.643c0,0-1.811-13.271-1.89-13.869c0.332,0.031,0.837,0.078,0.837,0.078
		c2.888,0.26,6.79-0.434,8.316-1.049l-0.098,0.018l0.578-0.211c0,0,0.158-0.062,0.322-0.131c0.082,0.609,1.879,13.805,1.879,13.805
		l98.517-13.422c0,0-3.062-22.586-3.137-23.072c0.479-0.064,10.473-1.451,10.473-1.451c3.822-0.516,7.031-2.264,9.045-4.918
		c1.26-1.654,1.934-3.496,1.947-5.332l-0.066-1.068l-2.949-21.689c0,0-7.201,0.98-7.668,1.046c-0.059-0.449-0.623-4.796-0.623-4.796
		c-0.246-1.651-0.949-2.918-2.098-3.771c-1.164-0.862-2.66-1.208-4.215-0.979c-0.002,0-15.555,2.12-16.646,2.271
		c-0.094-0.071-0.227-0.176-0.227-0.176c-1.701-1.347-3.645-2.401-5.775-3.139C660.269,399.8,654.361,399.556,648.337,400.756z"/>
	<path d="M648.386,401.002L648.386,401.002c-4.492,0.896-9.832,2.687-14.279,4.785c0,0-0.195,0.092-0.355,0.168
		c-0.16-0.062-0.363-0.138-0.363-0.138c-1.598-0.595-3.125-0.975-4.666-1.16c-2.816-0.354-5.83-0.232-8.955,0.364
		c-2.627,0.492-5.395,1.411-8.473,2.806c0,0-0.637,0.291-1.135,0.519c-0.041-0.304-0.137-1.063-0.137-1.063l-0.465,0.06
		l-31.338,4.27c0,0,2.004,14.72,2.133,15.646c-0.439,0.027-0.991,0.061-0.991,0.061c-0.025,0.006-2.732,0.174-4.032,0.428
		c-2.768,0.541-5.325,1.549-7.208,2.842c0,0-0.693,0.477-1.232,0.844c-0.057-0.412-0.11-0.836-0.11-0.836
		c-0.916-6.711-5.058-11.521-11.976-13.916c-4.666-1.621-10.531-1.859-16.514-0.67c-4.494,0.896-9.832,2.685-14.279,4.781
		c0,0-0.197,0.091-0.354,0.164c-0.162-0.06-0.361-0.133-0.361-0.133c-1.631-0.6-3.156-0.979-4.672-1.164
		c-2.832-0.347-5.846-0.225-8.959,0.367c-2.619,0.496-5.387,1.415-8.463,2.81c0,0-0.629,0.285-1.129,0.512
		c-0.041-0.299-0.146-1.062-0.146-1.062l-31.804,4.334l2.856,20.959l0.398,0.004c1.621,0.018,2.797,0.328,3.488,0.93
		c1.36,1.186,1.606,2.285,1.785,3.605l3.139,23.035c-0.004-0.01,0.018,0.131,0.018,0.131c0.109,0.795-0.137,2.002-1.147,3.027
		c-0.47,0.479-1.176,0.9-2.107,1.25l-0.342,0.129l2.309,16.969l99.657-13.578c0,0-1.748-12.871-1.895-13.93
		c0.512,0.041,1.149,0.1,1.149,0.1c2.854,0.258,6.701-0.424,8.199-1.027c0.002,0,0.621-0.248,1.098-0.441
		c0.15,1.08,1.894,13.871,1.894,13.871l0.459-0.059l97.566-13.293c0,0-3.016-22.193-3.135-23.074
		c0.84-0.119,10.717-1.482,10.717-1.482c3.752-0.512,6.906-2.227,8.881-4.824c1.227-1.611,1.879-3.42,1.895-5.184
		c0.004-0.348-0.014-0.691-0.059-1.029l-2.924-21.441c0,0-6.852,0.935-7.67,1.042c-0.1-0.772-0.654-5.041-0.654-5.041
		c-0.236-1.581-0.908-2.79-2-3.604c-1.109-0.821-2.537-1.152-4.025-0.929c0,0-14.877,2.025-16.76,2.279
		c-0.141-0.105-0.307-0.239-0.307-0.239c-1.678-1.33-3.6-2.37-5.701-3.1C660.232,400.052,654.367,399.814,648.386,401.002z"/>
	<path d="M478.285,477.976c0.121,0.871-0.117,2.225-1.279,3.402c-0.633,0.648-1.531,1.078-2.27,1.357
		c0.254,1.869,1.896,13.939,2.199,16.145c2.637-0.357,96.099-13.094,98.738-13.451c-0.307-2.242-1.915-14.055-1.915-14.055
		l1.735,0.16c2.785,0.25,6.522-0.414,7.979-0.998l1.654-0.668c0,0,1.604,11.764,1.906,14.008
		c2.635-0.363,94.475-12.873,97.106-13.23c-0.334-2.432-3.135-23.07-3.135-23.07l11.176-1.549
		c7.123-0.975,10.902-6.213,10.314-10.518c0,0-2.527-18.56-2.855-20.981c-1.854,0.255-7.674,1.05-7.674,1.05l-0.717-5.509
		c-0.213-1.455-0.836-2.562-1.814-3.289c-1.004-0.749-2.312-1.05-3.68-0.845l-16.963,2.309l-0.461-0.366
		c-1.629-1.288-3.494-2.304-5.566-3.021c-4.592-1.594-10.373-1.824-16.27-0.652c-4.459,0.89-9.754,2.662-14.176,4.75l-0.529,0.248
		l-0.545-0.2c-1.568-0.583-3.059-0.952-4.562-1.137c-2.775-0.35-5.738-0.226-8.812,0.356c-2.584,0.486-5.32,1.394-8.369,2.774
		l-1.701,0.777c0,0-0.092-0.68-0.162-1.229c-2.436,0.334-28.459,3.878-30.877,4.21c0.313,2.3,2.136,15.679,2.136,15.679
		l-1.487,0.096c-0.025,0-2.703,0.168-3.975,0.418c-2.702,0.525-5.202,1.51-7.03,2.766l-1.855,1.271l-0.215-1.584
		c-0.889-6.523-4.924-11.205-11.664-13.539c-4.594-1.6-10.371-1.829-16.271-0.654c-4.457,0.892-9.755,2.664-14.175,4.746
		l-0.528,0.25L521.154,424c-1.586-0.578-3.078-0.953-4.566-1.137c-2.785-0.344-5.748-0.223-8.818,0.363
		c-2.575,0.484-5.309,1.393-8.358,2.775l-1.695,0.771c0,0-0.092-0.678-0.166-1.225c-2.424,0.33-28.468,3.875-30.888,4.207
		c0.311,2.285,2.459,18.047,2.742,20.104c1.182,0.016,2.791,0.184,3.783,1.043c1.481,1.285,1.756,2.521,1.942,3.895l3.137,23.037
		L478.285,477.976z"/>
	<path fill="#FFFFFF" d="M648.476,401.458c-4.451,0.887-9.752,2.662-14.176,4.747l-0.525,0.251l-0.545-0.204
		c-1.564-0.579-3.057-0.948-4.561-1.134c-2.777-0.349-5.74-0.229-8.816,0.356c-2.582,0.485-5.318,1.396-8.363,2.775l-1.709,0.775
		c0,0-0.09-0.68-0.158-1.227c-2.436,0.332-28.458,3.877-30.877,4.206c0.311,2.303,2.137,15.68,2.137,15.68l-1.489,0.094
		c-0.028,0.002-2.705,0.17-3.974,0.418c-2.704,0.529-5.204,1.516-7.032,2.77l-1.854,1.271l-0.215-1.58
		c-0.892-6.529-4.923-11.209-11.662-13.541c-4.595-1.601-10.373-1.829-16.275-0.658c-4.455,0.893-9.756,2.666-14.172,4.748
		l-0.527,0.251l-0.541-0.203c-1.586-0.581-3.077-0.957-4.569-1.138c-2.783-0.347-5.746-0.223-8.814,0.361
		c-2.578,0.486-5.311,1.395-8.359,2.776l-1.698,0.77c0,0-0.093-0.676-0.164-1.225c-2.424,0.332-28.468,3.881-30.884,4.209
		c0.309,2.285,2.457,18.045,2.735,20.105c1.185,0.01,2.797,0.182,3.789,1.041c1.48,1.287,1.752,2.523,1.939,3.893l3.137,23.035
		l-0.207-0.562c0.104,0.16,0.187,0.404,0.228,0.701c0.118,0.875-0.119,2.23-1.275,3.408c-0.637,0.648-1.531,1.072-2.273,1.357
		c0.256,1.871,1.898,13.941,2.199,16.145c2.635-0.361,96.1-13.098,98.739-13.455c-0.308-2.24-1.915-14.051-1.915-14.051l1.732,0.16
		c2.787,0.25,6.529-0.414,7.982-0.998l1.654-0.67c0,0,1.604,11.768,1.903,14.004c2.64-0.355,94.475-12.865,97.112-13.229
		c-0.336-2.432-3.139-23.072-3.139-23.072l11.176-1.543c7.125-0.973,10.906-6.217,10.32-10.52c0,0-2.531-18.558-2.863-20.979
		c-1.846,0.251-7.668,1.045-7.668,1.045l-0.719-5.507c-0.213-1.453-0.836-2.563-1.812-3.287c-1.01-0.75-2.314-1.051-3.684-0.847
		l-16.967,2.312l-0.455-0.367c-1.631-1.29-3.496-2.305-5.564-3.021C660.154,400.517,654.375,400.285,648.476,401.458z"/>
	
		<linearGradient id="SVGID_1_" gradientUnits="userSpaceOnUse" x1="876.6304" y1="-1024.1792" x2="876.6304" y2="-957.9106" gradientTransform="matrix(0.9167 -0.1249 -0.1249 -0.9167 -294.0944 -359.7368)">
		<stop  offset="0.0055" style="stop-color:#4B2510"/>
		<stop  offset="0.4785" style="stop-color:#4C2712"/>
		<stop  offset="0.649" style="stop-color:#522D19"/>
		<stop  offset="0.7704" style="stop-color:#5D3724"/>
		<stop  offset="0.8686" style="stop-color:#6A4532"/>
		<stop  offset="0.9517" style="stop-color:#7B5643"/>
		<stop  offset="1" style="stop-color:#886452"/>
	</linearGradient>
	<path fill="url(#SVGID_1_)" d="M678.458,452.603c-1.203-0.773-1.979-1.916-2.137-3.119l-4.475-32.837
		c-0.725-4.908-3.686-8.388-8.568-10.075c-3.809-1.326-8.688-1.488-13.748-0.48c-4.076,0.815-10.477,2.768-15.588,5.611
		c-1.645-0.989-3.578-1.636-5.754-1.899c-2.26-0.279-4.721-0.184-7.328,0.313c-4.238,0.797-8.576,2.584-11.908,4.909l-2.84,1.979
		l-0.525-3.872l-21.291,2.902l1.539,11.315c2.707,0.08,5.281,1.826,5.602,3.984l3.976,29.178c0.168,1.197-0.275,2.496-1.224,3.57
		c-0.608,0.709-1.391,1.252-2.268,1.613l1.342,9.869l26.265-3.576l-1.346-9.871c-0.945-0.109-1.836-0.43-2.619-0.947
		c-1.197-0.777-1.977-1.912-2.133-3.119l-3.992-29.283c-0.131-0.922,0.064-1.791,0.682-2.678c0.99-1.541,3.002-2.814,5.842-3.197
		c3.939-0.529,6.559,1.656,6.838,3.566l6.031,44.26l22.145-3.016l-1.342-9.871c-0.949-0.109-1.848-0.43-2.627-0.947
		c-1.197-0.775-1.965-1.914-2.135-3.115l-3.975-29.211c-0.135-0.908,0.064-1.783,0.676-2.668c0.992-1.541,3-2.824,5.844-3.208
		c3.939-0.522,6.559,1.662,6.842,3.571l6.018,44.178l22.141-3.012l-1.342-9.873C680.13,453.437,679.236,453.123,678.458,452.603z"/>
	<path fill="#FFFFFF" d="M567.21,437.226c-0.553,1.369-0.746,2.844-0.551,4.266c0,0.004,0,0.018,0.004,0.025
		c0.334,2.422,1.404,4.049,2.727,5.416c-2.61,2.252-4.875,5.246-4.42,9.49c0.009,0.102,0.021,0.209,0.031,0.314
		c0.354,2.57,1.646,4.801,3.764,6.469c2.888,2.271,7.075,3.238,11.493,2.656c3.057-0.396,5.941-1.662,8.566-3.416
		c0.647,0.508,2.035,1.604,2.035,1.604l10.974-1.498l-2.607-19.154l-10.933,1.492l-0.391,1.385
		c-0.146,0.518-0.484,1.066-0.701,1.604c-0.5-0.387-0.543-0.414-1.029-0.801c2.303-2.174,4.227-4.961,3.727-8.623l-0.004-0.027
		c-0.746-5.361-6.376-8.738-13.092-7.857C572.232,431.171,568.644,433.664,567.21,437.226z"/>
	
		<linearGradient id="SVGID_2_" gradientUnits="userSpaceOnUse" x1="780.3989" y1="-732.8945" x2="780.3989" y2="-701.6699" gradientTransform="matrix(0.9999 0.0092 0.0092 -0.9999 -190.3986 -276.0725)">
		<stop  offset="0.0055" style="stop-color:#4B2510"/>
		<stop  offset="0.4785" style="stop-color:#4C2712"/>
		<stop  offset="0.649" style="stop-color:#522D19"/>
		<stop  offset="0.7704" style="stop-color:#5D3724"/>
		<stop  offset="0.8686" style="stop-color:#6A4532"/>
		<stop  offset="0.9517" style="stop-color:#7B5643"/>
		<stop  offset="1" style="stop-color:#886452"/>
	</linearGradient>
	<path fill="url(#SVGID_2_)" d="M577.858,436.947c1.924-0.266,3.541,0.664,3.756,2.26c0.233,1.658-1.429,3.023-3.518,4.379
		c-1.193-0.893-3.086-2.246-3.232-3.354C574.639,438.634,575.936,437.208,577.858,436.947z M579.401,458.357
		c-2.671,0.354-5.005-0.619-5.335-2.975c-0.195-1.41,1.297-2.895,3.5-4.568l6.631,5.203
		C582.705,457.275,581.069,458.144,579.401,458.357z M598.72,455.941l-4.054,0.555l-1.555-1.221
		c0.653-0.992,1.209-2.049,1.674-3.158c0.145-0.359,0.287-0.715,0.416-1.088l2.792-0.379l-0.646-4.777l-7.335,1
		c-0.424,1.494-1.098,3.02-1.953,4.471l-5.363-4.199c2.961-2.266,5.516-4.92,5.02-8.416c-0.547-3.939-4.871-6.736-10.625-5.982
		c-4.117,0.545-6.815,2.746-7.844,5.303c-0.412,1.021-0.553,2.115-0.408,3.168c0.365,2.607,1.67,4.012,3.938,5.84
		c-3.269,2.318-6.056,5.064-5.627,9.135c0.561,5.301,6.161,8.377,12.824,7.492c3.354-0.43,6.455-1.826,9.033-3.887l2.478,1.947
		l7.878-1.074L598.72,455.941z"/>
	
		<linearGradient id="SVGID_3_" gradientUnits="userSpaceOnUse" x1="756.5288" y1="-1024.188" x2="756.5288" y2="-957.9146" gradientTransform="matrix(0.9167 -0.1249 -0.1249 -0.9167 -294.0944 -359.7368)">
		<stop  offset="0.0055" style="stop-color:#4B2510"/>
		<stop  offset="0.4785" style="stop-color:#4C2712"/>
		<stop  offset="0.649" style="stop-color:#522D19"/>
		<stop  offset="0.7704" style="stop-color:#5D3724"/>
		<stop  offset="0.8686" style="stop-color:#6A4532"/>
		<stop  offset="0.9517" style="stop-color:#7B5643"/>
		<stop  offset="1" style="stop-color:#886452"/>
	</linearGradient>
	<path fill="url(#SVGID_3_)" d="M568.355,467.607c-1.201-0.77-1.976-1.916-2.136-3.119l-4.477-32.836
		c-0.719-4.904-3.681-8.389-8.564-10.08c-3.809-1.317-8.688-1.482-13.746-0.477c-4.084,0.809-10.477,2.766-15.588,5.612
		c-1.646-0.992-3.578-1.635-5.76-1.904c-2.256-0.277-4.721-0.178-7.32,0.32c-4.243,0.795-8.578,2.58-11.907,4.906l-2.845,1.977
		l-0.522-3.869l-21.292,2.902l1.543,11.309c2.707,0.08,5.276,1.836,5.602,3.994l3.969,29.17c0.169,1.205-0.27,2.51-1.219,3.574
		c-0.615,0.715-1.391,1.254-2.268,1.615l1.342,9.871l26.261-3.578l-1.344-9.871c-0.945-0.113-1.838-0.43-2.619-0.947
		c-1.203-0.77-1.977-1.916-2.139-3.119l-3.988-29.285c-0.133-0.912,0.064-1.789,0.678-2.68c0.998-1.539,3.002-2.812,5.845-3.193
		c3.94-0.527,6.561,1.658,6.844,3.564l6.029,44.264l22.145-3.014l-1.344-9.875c-0.951-0.115-1.844-0.424-2.625-0.945
		c-1.197-0.773-1.974-1.912-2.129-3.117l-3.979-29.209c-0.143-0.916,0.06-1.785,0.67-2.676c1-1.533,3.004-2.818,5.849-3.201
		c3.938-0.527,6.553,1.664,6.842,3.562l6.02,44.191l22.144-3.02l-1.351-9.869C570.029,468.441,569.134,468.125,568.355,467.607z"/>
	<path d="M613.431,458.052l-3.99-29.283c-0.07-0.473-0.051-0.939,0.072-1.398c-0.623,0.459-1.168,0.967-1.525,1.529
		c-0.615,0.885-0.814,1.762-0.68,2.676l3.986,29.285c0.164,1.205,0.938,2.35,2.135,3.121c0.783,0.518,1.682,0.832,2.623,0.945
		l1.008,7.402l2.471-0.34l-1.348-9.871c-0.943-0.109-1.836-0.428-2.617-0.947C614.365,460.394,613.587,459.259,613.431,458.052z"/>
	<path d="M678.458,452.603c-1.203-0.773-1.979-1.916-2.137-3.119l-4.475-32.837c-0.725-4.908-3.686-8.388-8.568-10.075
		c-3.809-1.326-8.688-1.488-13.748-0.48c-4.076,0.815-10.477,2.768-15.588,5.611c-1.645-0.989-3.578-1.636-5.754-1.899
		c-2.26-0.279-4.721-0.184-7.328,0.313c-4.238,0.797-8.576,2.584-11.908,4.909l-2.84,1.979l-0.525-3.872l-21.291,2.902l0.336,2.47
		l18.822-2.566l0.525,3.868l2.838-1.98c3.336-2.316,7.676-4.105,11.918-4.902c2.596-0.494,5.061-0.597,7.316-0.312
		c2.18,0.267,4.113,0.906,5.758,1.894c5.115-2.841,11.504-4.797,15.598-5.608c5.053-1.007,9.936-0.841,13.742,0.48
		c4.885,1.688,7.844,5.173,8.562,10.072l4.482,32.843c0.158,1.197,0.932,2.344,2.133,3.119c0.777,0.516,1.676,0.832,2.619,0.947
		l1.004,7.4l2.465-0.338l-1.342-9.873C680.13,453.437,679.236,453.123,678.458,452.603z"/>
	<path d="M644.873,453.771l-3.975-29.211c-0.07-0.475-0.051-0.938,0.084-1.396c-0.635,0.463-1.174,0.969-1.541,1.531
		c-0.609,0.887-0.816,1.756-0.68,2.67l3.98,29.211c0.162,1.201,0.934,2.346,2.133,3.121c0.781,0.516,1.678,0.832,2.625,0.943
		l1.006,7.402l2.471-0.338l-1.342-9.871c-0.949-0.111-1.848-0.43-2.627-0.947C645.81,456.111,645.042,454.972,644.873,453.771z"/>
	<path d="M503.326,473.058l-3.988-29.285c-0.066-0.471-0.041-0.939,0.078-1.396c-0.623,0.459-1.168,0.965-1.531,1.523
		c-0.613,0.887-0.811,1.76-0.68,2.68l3.992,29.287c0.16,1.203,0.934,2.344,2.135,3.119c0.781,0.514,1.676,0.83,2.615,0.941
		l1.012,7.404l2.469-0.338l-1.344-9.871c-0.945-0.113-1.838-0.43-2.619-0.947C504.261,475.406,503.488,474.261,503.326,473.058z"/>
	<path d="M534.779,468.775l-3.979-29.209c-0.074-0.475-0.051-0.939,0.074-1.396c-0.629,0.461-1.172,0.967-1.537,1.529
		c-0.609,0.887-0.813,1.764-0.674,2.672l3.979,29.207c0.16,1.203,0.933,2.344,2.134,3.121c0.78,0.518,1.678,0.834,2.623,0.943
		l1.008,7.4l2.471-0.33l-1.344-9.875c-0.951-0.115-1.844-0.424-2.625-0.947C535.71,471.119,534.935,469.978,534.779,468.775z"/>
	<path d="M566.22,464.488l-4.477-32.836c-0.719-4.904-3.681-8.389-8.564-10.08c-3.809-1.317-8.688-1.482-13.746-0.477
		c-4.084,0.809-10.477,2.766-15.588,5.612c-1.646-0.992-3.578-1.635-5.76-1.904c-2.256-0.277-4.721-0.178-7.32,0.32
		c-4.243,0.795-8.578,2.58-11.907,4.906l-2.845,1.977l-0.522-3.869l-21.292,2.902l0.338,2.473l18.822-2.568l0.522,3.867l2.842-1.979
		c3.328-2.324,7.664-4.113,11.91-4.906c2.604-0.494,5.066-0.6,7.318-0.314c2.18,0.27,4.115,0.906,5.758,1.895
		c5.117-2.842,11.506-4.791,15.592-5.604c5.058-1.01,9.938-0.842,13.744,0.477c4.885,1.691,7.844,5.176,8.566,10.078l4.473,32.84
		c0.164,1.203,0.938,2.354,2.141,3.117c0.777,0.52,1.675,0.838,2.613,0.947l1.008,7.402l2.478-0.338l-1.351-9.869
		c-0.942-0.115-1.838-0.432-2.617-0.947C567.154,466.837,566.38,465.691,566.22,464.488z"/>
	
		<linearGradient id="SVGID_4_" gradientUnits="userSpaceOnUse" x1="940.6382" y1="-999.5996" x2="940.6382" y2="-974.2471" gradientTransform="matrix(0.9167 -0.1249 -0.1249 -0.9167 -294.0944 -359.7368)">
		<stop  offset="0.0055" style="stop-color:#4B2510"/>
		<stop  offset="0.4785" style="stop-color:#4C2712"/>
		<stop  offset="0.649" style="stop-color:#522D19"/>
		<stop  offset="0.7704" style="stop-color:#5D3724"/>
		<stop  offset="0.8686" style="stop-color:#6A4532"/>
		<stop  offset="0.9517" style="stop-color:#7B5643"/>
		<stop  offset="1" style="stop-color:#886452"/>
	</linearGradient>
	<path fill="url(#SVGID_4_)" d="M701.921,430.851c-0.463-3.4-3.596-5.18-7.43-5.869c-1.674-0.295-3.348-0.455-4.822-0.762
		c-1.045-0.246-2.328-0.543-2.559-1.811c-0.219-1.217,0.83-2.588,3.227-2.831c2.994-0.296,4.93,1.681,5.967,3.305l3.146-0.43
		l-1.01-7.432l-4.129,0.522l-0.35,0.59c-0.969-0.24-2.816-0.444-5.275-0.137c-4.674,0.604-8.26,3.85-7.727,7.919
		c0.449,3.279,3.264,4.98,6.836,5.656c1.717,0.33,3.795,0.555,5.307,0.885c1.061,0.258,2.383,0.596,2.629,1.938
		c0.227,1.297-0.846,2.68-3.291,2.998c-3.035,0.389-5.014-1.814-6.303-3.584l-3.314,0.424l1.049,7.688l4.582-0.619l0.359-0.678
		c1.27,0.359,4.553,0.816,7.439-0.191C699.875,437.171,702.384,434.246,701.921,430.851z"/>
	
		<linearGradient id="SVGID_5_" gradientUnits="userSpaceOnUse" x1="879.23" y1="-684.5273" x2="879.23" y2="-676.8281" gradientTransform="matrix(0.9999 0.0092 0.0092 -0.9999 -194.3908 -276.1096)">
		<stop  offset="0.0055" style="stop-color:#4B2510"/>
		<stop  offset="0.4785" style="stop-color:#4C2712"/>
		<stop  offset="0.649" style="stop-color:#522D19"/>
		<stop  offset="0.7704" style="stop-color:#5D3724"/>
		<stop  offset="0.8686" style="stop-color:#6A4532"/>
		<stop  offset="0.9517" style="stop-color:#7B5643"/>
		<stop  offset="1" style="stop-color:#886452"/>
	</linearGradient>
	<polygon fill="url(#SVGID_5_)" points="676.863,409.448 682.011,408.762 680.128,415.699 674.966,416.396 	"/>
	<path d="M587.812,451.15l-4.79-3.746c-0.448,0.393-0.912,0.781-1.396,1.143l5.363,4.199
		C587.303,452.224,587.559,451.681,587.812,451.15z"/>
	<path d="M578.335,459.765c1.67-0.221,3.302-1.082,4.795-2.34l-0.426-0.336c-1.063,0.662-2.178,1.121-3.304,1.268
		c-2.672,0.355-5.005-0.617-5.336-2.973c-0.061-0.443,0.056-0.889,0.297-1.348c-0.956,0.967-1.483,1.873-1.362,2.75
		C573.33,459.14,575.666,460.117,578.335,459.765z"/>
	<path d="M576.023,434.148c5.754-0.756,10.08,2.045,10.629,5.986c0.229,1.641-0.229,3.092-1.068,4.408
		c1.496-1.676,2.451-3.57,2.131-5.816c-0.547-3.938-4.871-6.736-10.625-5.982c-3.635,0.48-6.16,2.264-7.408,4.428
		C571.089,435.673,573.214,434.519,576.023,434.148z"/>
	<path d="M590.012,446.873c-0.119,0.439-0.309,0.881-0.479,1.324l6.746-0.926l0.482,3.545l1.232-0.166l-0.646-4.777L590.012,446.873
		z"/>
	<path d="M593.111,455.275c0.604-0.916,1.119-1.898,1.555-2.916l-0.529,0.072c-0.133,0.371-0.274,0.727-0.42,1.09
		c-0.459,1.107-1.02,2.166-1.674,3.16l1.555,1.217l4.054-0.553l0.477,3.49l1.234-0.168l-0.643-4.727l-4.054,0.555L593.111,455.275z"
		/>
	<path d="M573.796,441.63c0.15,1.111,2.043,2.469,3.232,3.361c1.53-0.996,2.817-1.994,3.314-3.104
		c-0.612,0.58-1.386,1.135-2.247,1.697c-1.193-0.895-3.086-2.248-3.232-3.355c-0.062-0.408-0.019-0.805,0.108-1.172
		C574.128,439.681,573.654,440.626,573.796,441.63z"/>
	<path d="M687.623,417.402c2.459-0.316,4.311-0.108,5.275,0.139l0.354-0.587l4.123-0.53l0.844,6.199l1.232-0.168l-1.01-7.432
		l-4.129,0.522l-0.35,0.59c-0.969-0.24-2.816-0.444-5.275-0.137c-3.059,0.394-5.631,1.945-6.912,4.101
		C683.191,418.682,685.265,417.71,687.623,417.402z"/>
	<path d="M694.492,424.98c-1.674-0.295-3.348-0.453-4.822-0.76c-1.045-0.248-2.328-0.545-2.559-1.811
		c-0.041-0.227,0.006-0.459,0.051-0.691c-0.844,0.566-1.254,1.35-1.119,2.098c0.229,1.262,1.514,1.562,2.555,1.807
		c1.48,0.311,3.154,0.469,4.822,0.762c3.838,0.689,6.973,2.469,7.439,5.871c0.188,1.354-0.121,2.625-0.766,3.762
		c1.354-1.418,2.1-3.207,1.828-5.166C701.458,427.449,698.326,425.671,694.492,424.98z"/>
	<path d="M686.138,431.81l-3.312,0.426l0.172,1.242l2.072-0.264c1.297,1.77,3.27,3.977,6.309,3.582
		c1.949-0.254,2.992-1.188,3.23-2.211c-0.545,0.375-1.227,0.688-2.166,0.809C689.406,435.783,687.427,433.58,686.138,431.81z"/>
	<polygon points="676.863,409.448 676.505,410.757 680.951,410.165 679.421,415.798 680.128,415.699 682.011,408.762 	"/>
	<g>
		<path fill="#4B2510" d="M685.001,408.358c-0.27-1.904,1.059-3.684,2.986-3.955c1.898-0.271,3.684,1.067,3.951,2.974
			c0.27,1.91-1.07,3.692-2.973,3.961C687.041,411.609,685.273,410.271,685.001,408.358z M691.287,407.47
			c-0.221-1.56-1.652-2.634-3.211-2.411c-1.566,0.222-2.641,1.649-2.422,3.208c0.221,1.568,1.65,2.645,3.221,2.421
			C690.433,410.466,691.507,409.037,691.287,407.47z M690.464,409.508l-0.855,0.121l-1.055-1.459l-0.732,0.105l0.223,1.575
			l-0.732,0.104l-0.531-3.735l1.818-0.257c0.316-0.046,0.732-0.095,1.035,0.027c0.367,0.172,0.52,0.519,0.572,0.909
			c0.1,0.688-0.213,1.02-0.871,1.157L690.464,409.508z M688.837,407.557c0.418-0.051,0.695-0.189,0.627-0.662
			c-0.07-0.5-0.602-0.422-0.969-0.37l-0.904,0.129l0.15,1.061L688.837,407.557z"/>
	</g>
	<g>
		<g>
			<g>
				<path fill="#4B2510" d="M512.55,496.628L512.55,496.628C512.55,496.613,512.55,496.644,512.55,496.628z"/>
			</g>
		</g>
	</g>
</g>
<g>
	<g>
		<g>
			<path fill="#FFFFFF" stroke="#4B2510" stroke-width="2" stroke-linecap="round" stroke-linejoin="round" d="M688.019,453.078
				l0.16-0.023c0.078-0.008,0.156-0.016,0.232-0.027c0.076-0.01,0.146-0.033,0.211-0.07c0.09-0.062,0.143-0.15,0.156-0.26
				c0.016-0.109,0.014-0.217-0.002-0.322c-0.021-0.217-0.076-0.367-0.162-0.455c-0.088-0.09-0.244-0.117-0.469-0.086l-0.287,0.035
				L688.019,453.078z M687.783,451.285l0.139-0.02c0.094-0.01,0.191-0.025,0.289-0.053c0.096-0.025,0.17-0.076,0.223-0.156
				c0.025-0.055,0.041-0.115,0.043-0.189c0-0.07-0.008-0.154-0.02-0.252c-0.014-0.146-0.053-0.258-0.117-0.326
				s-0.182-0.094-0.348-0.078l-0.348,0.045L687.783,451.285z M688.666,453.589l-1.311,0.17l-0.533-3.992l1.201-0.156
				c0.164-0.025,0.318-0.029,0.471-0.014c0.148,0.014,0.291,0.08,0.414,0.197c0.1,0.098,0.168,0.203,0.209,0.318
				c0.041,0.113,0.068,0.238,0.084,0.373c0.029,0.178,0.021,0.344-0.021,0.504c-0.045,0.16-0.158,0.291-0.344,0.395v0.012
				c0.215,0.006,0.373,0.084,0.488,0.234c0.111,0.15,0.182,0.355,0.217,0.617c0.023,0.164,0.029,0.33,0.01,0.496
				c-0.045,0.26-0.137,0.459-0.275,0.594C689.134,453.472,688.931,453.554,688.666,453.589z"/>
		</g>
		<g>
			<path fill="#FFFFFF" stroke="#4B2510" stroke-width="2" stroke-linecap="round" stroke-linejoin="round" d="M690.966,451.541
				l-0.135,0.016l0.229,1.721l-0.744,0.096l-0.527-3.99l1.408-0.184c0.328-0.047,0.604-0.018,0.834,0.1
				c0.229,0.115,0.371,0.352,0.426,0.713c0.02,0.146,0.025,0.291,0.012,0.434c-0.016,0.143-0.062,0.268-0.139,0.377
				c-0.074,0.107-0.195,0.184-0.357,0.23l0.002,0.012c0.221,0.004,0.387,0.064,0.484,0.184c0.104,0.115,0.166,0.273,0.188,0.467
				c0.008,0.045,0.016,0.129,0.031,0.25c0.018,0.121,0.037,0.254,0.068,0.396c0.027,0.145,0.059,0.271,0.1,0.383
				c0.035,0.113,0.08,0.182,0.131,0.211l0.008,0.074l-0.82,0.105c-0.039-0.084-0.074-0.188-0.102-0.309
				c-0.025-0.123-0.047-0.244-0.066-0.369c-0.018-0.125-0.033-0.23-0.047-0.324c-0.01-0.082-0.025-0.17-0.047-0.26
				c-0.018-0.09-0.051-0.17-0.096-0.236c-0.045-0.064-0.111-0.107-0.197-0.125c-0.105-0.014-0.211-0.018-0.32-0.008
				C691.179,451.511,691.072,451.525,690.966,451.541z M690.609,449.869l0.145,1.104l0.586-0.076
				c0.123-0.021,0.221-0.084,0.293-0.184c0.066-0.104,0.09-0.25,0.066-0.447c-0.029-0.217-0.092-0.355-0.186-0.412
				c-0.092-0.059-0.211-0.076-0.352-0.055L690.609,449.869z"/>
		</g>
		<g>
			<path fill="#FFFFFF" stroke="#4B2510" stroke-width="2" stroke-linecap="round" stroke-linejoin="round" d="M694.068,452.896
				L693.271,453l0.42-4.117l1.006-0.129l1.434,3.873l-0.795,0.105l-0.332-0.984l-0.873,0.111L694.068,452.896z M694.24,450.095
				l-0.07,1.162l0.637-0.082l-0.352-1.107c-0.057-0.182-0.107-0.361-0.15-0.543c-0.018-0.092-0.039-0.18-0.059-0.264l-0.012,0.002
				c0,0.086,0.002,0.176,0.008,0.271C694.25,449.718,694.25,449.906,694.24,450.095z"/>
		</g>
		<g>
			<path fill="#FFFFFF" stroke="#4B2510" stroke-width="2" stroke-linecap="round" stroke-linejoin="round" d="M697.892,449.138
				l-0.104-0.787l0.744-0.096l0.533,3.992l-0.777,0.1l-0.771-1.344c-0.129-0.221-0.25-0.453-0.369-0.697
				c-0.119-0.246-0.242-0.516-0.371-0.814l-0.014,0.002c0.037,0.162,0.074,0.342,0.113,0.533c0.043,0.191,0.08,0.389,0.119,0.594
				c0.037,0.197,0.072,0.393,0.105,0.584c0.031,0.188,0.059,0.365,0.08,0.525l0.1,0.75l-0.748,0.096l-0.529-3.992l0.773-0.1
				l0.771,1.381c0.125,0.217,0.246,0.443,0.367,0.688c0.123,0.242,0.244,0.52,0.377,0.828l0.01-0.002
				c-0.074-0.363-0.15-0.736-0.225-1.123C698.001,449.871,697.941,449.5,697.892,449.138z"/>
		</g>
		<g>
			<path fill="#FFFFFF" stroke="#4B2510" stroke-width="2" stroke-linecap="round" stroke-linejoin="round" d="M700.474,451.462
				l0.324-0.043c0.217-0.025,0.373-0.09,0.461-0.195c0.09-0.104,0.133-0.271,0.131-0.492c-0.002-0.227-0.029-0.529-0.086-0.91
				c-0.055-0.469-0.135-0.799-0.234-0.996c-0.105-0.197-0.266-0.281-0.48-0.248l-0.49,0.062L700.474,451.462z M701.183,451.964
				l-1.377,0.18l-0.527-3.992l1.553-0.203c0.096-0.016,0.223-0.002,0.377,0.041c0.158,0.043,0.311,0.146,0.455,0.312
				c0.1,0.127,0.182,0.301,0.244,0.521c0.061,0.225,0.111,0.5,0.156,0.828c0.041,0.268,0.066,0.535,0.084,0.809
				c0.018,0.27-0.004,0.52-0.062,0.754c-0.057,0.232-0.178,0.422-0.363,0.572c-0.072,0.057-0.158,0.098-0.256,0.123
				C701.375,451.935,701.279,451.955,701.183,451.964z"/>
		</g>
	</g>
</g>
<g>
	<g>
		<g>
			<path fill="#FFFFFF" d="M688.019,453.078l0.16-0.023c0.078-0.008,0.156-0.016,0.232-0.027c0.076-0.01,0.146-0.033,0.211-0.07
				c0.09-0.062,0.143-0.15,0.156-0.26c0.016-0.109,0.014-0.217-0.002-0.322c-0.021-0.217-0.076-0.367-0.162-0.455
				c-0.088-0.09-0.244-0.117-0.469-0.086l-0.287,0.035L688.019,453.078z M687.783,451.285l0.139-0.02
				c0.094-0.01,0.191-0.025,0.289-0.053c0.096-0.025,0.17-0.076,0.223-0.156c0.025-0.055,0.041-0.115,0.043-0.189
				c0-0.07-0.008-0.154-0.02-0.252c-0.014-0.146-0.053-0.258-0.117-0.326s-0.182-0.094-0.348-0.078l-0.348,0.045L687.783,451.285z
				 M688.666,453.589l-1.311,0.17l-0.533-3.992l1.201-0.156c0.164-0.025,0.318-0.029,0.471-0.014
				c0.148,0.014,0.291,0.08,0.414,0.197c0.1,0.098,0.168,0.203,0.209,0.318c0.041,0.113,0.068,0.238,0.084,0.373
				c0.029,0.178,0.021,0.344-0.021,0.504c-0.045,0.16-0.158,0.291-0.344,0.395v0.012c0.215,0.006,0.373,0.084,0.488,0.234
				c0.111,0.15,0.182,0.355,0.217,0.617c0.023,0.164,0.029,0.33,0.01,0.496c-0.045,0.26-0.137,0.459-0.275,0.594
				C689.134,453.472,688.931,453.554,688.666,453.589z"/>
		</g>
		<g>
			<path fill="#FFFFFF" d="M690.966,451.541l-0.135,0.016l0.229,1.721l-0.744,0.096l-0.527-3.99l1.408-0.184
				c0.328-0.047,0.604-0.018,0.834,0.1c0.229,0.115,0.371,0.352,0.426,0.713c0.02,0.146,0.025,0.291,0.012,0.434
				c-0.016,0.143-0.062,0.268-0.139,0.377c-0.074,0.107-0.195,0.184-0.357,0.23l0.002,0.012c0.221,0.004,0.387,0.064,0.484,0.184
				c0.104,0.115,0.166,0.273,0.188,0.467c0.008,0.045,0.016,0.129,0.031,0.25c0.018,0.121,0.037,0.254,0.068,0.396
				c0.027,0.145,0.059,0.271,0.1,0.383c0.035,0.113,0.08,0.182,0.131,0.211l0.008,0.074l-0.82,0.105
				c-0.039-0.084-0.074-0.188-0.102-0.309c-0.025-0.123-0.047-0.244-0.066-0.369c-0.018-0.125-0.033-0.23-0.047-0.324
				c-0.01-0.082-0.025-0.17-0.047-0.26c-0.018-0.09-0.051-0.17-0.096-0.236c-0.045-0.064-0.111-0.107-0.197-0.125
				c-0.105-0.014-0.211-0.018-0.32-0.008C691.179,451.511,691.072,451.525,690.966,451.541z M690.609,449.869l0.145,1.104
				l0.586-0.076c0.123-0.021,0.221-0.084,0.293-0.184c0.066-0.104,0.09-0.25,0.066-0.447c-0.029-0.217-0.092-0.355-0.186-0.412
				c-0.092-0.059-0.211-0.076-0.352-0.055L690.609,449.869z"/>
		</g>
		<g>
			<path fill="#FFFFFF" d="M694.068,452.896L693.271,453l0.42-4.117l1.006-0.129l1.434,3.873l-0.795,0.105l-0.332-0.984
				l-0.873,0.111L694.068,452.896z M694.24,450.095l-0.07,1.162l0.637-0.082l-0.352-1.107c-0.057-0.182-0.107-0.361-0.15-0.543
				c-0.018-0.092-0.039-0.18-0.059-0.264l-0.012,0.002c0,0.086,0.002,0.176,0.008,0.271
				C694.25,449.718,694.25,449.906,694.24,450.095z"/>
		</g>
		<g>
			<path fill="#FFFFFF" d="M697.892,449.138l-0.104-0.787l0.744-0.096l0.533,3.992l-0.777,0.1l-0.771-1.344
				c-0.129-0.221-0.25-0.453-0.369-0.697c-0.119-0.246-0.242-0.516-0.371-0.814l-0.014,0.002c0.037,0.162,0.074,0.342,0.113,0.533
				c0.043,0.191,0.08,0.389,0.119,0.594c0.037,0.197,0.072,0.393,0.105,0.584c0.031,0.188,0.059,0.365,0.08,0.525l0.1,0.75
				l-0.748,0.096l-0.529-3.992l0.773-0.1l0.771,1.381c0.125,0.217,0.246,0.443,0.367,0.688c0.123,0.242,0.244,0.52,0.377,0.828
				l0.01-0.002c-0.074-0.363-0.15-0.736-0.225-1.123C698.001,449.871,697.941,449.5,697.892,449.138z"/>
		</g>
		<g>
			<path fill="#FFFFFF" d="M700.474,451.462l0.324-0.043c0.217-0.025,0.373-0.09,0.461-0.195c0.09-0.104,0.133-0.271,0.131-0.492
				c-0.002-0.227-0.029-0.529-0.086-0.91c-0.055-0.469-0.135-0.799-0.234-0.996c-0.105-0.197-0.266-0.281-0.48-0.248l-0.49,0.062
				L700.474,451.462z M701.183,451.964l-1.377,0.18l-0.527-3.992l1.553-0.203c0.096-0.016,0.223-0.002,0.377,0.041
				c0.158,0.043,0.311,0.146,0.455,0.312c0.1,0.127,0.182,0.301,0.244,0.521c0.061,0.225,0.111,0.5,0.156,0.828
				c0.041,0.268,0.066,0.535,0.084,0.809c0.018,0.27-0.004,0.52-0.062,0.754c-0.057,0.232-0.178,0.422-0.363,0.572
				c-0.072,0.057-0.158,0.098-0.256,0.123C701.375,451.935,701.279,451.955,701.183,451.964z"/>
		</g>
	</g>
</g>
</svg>
