<?xml version="1.0" encoding="utf-8"?>
<!-- Generator: Adobe Illustrator 16.0.0, SVG Export Plug-In . SVG Version: 6.00 Build 0)  -->
<!DOCTYPE svg PUBLIC "-//W3C//DTD SVG 1.1//EN" "http://www.w3.org/Graphics/SVG/1.1/DTD/svg11.dtd">
<svg version="1.1" id="Layer_1" xmlns="http://www.w3.org/2000/svg" xmlns:xlink="http://www.w3.org/1999/xlink" x="0px" y="0px"
	 width="325.115px" height="221.122px" viewBox="86.532 97.613 325.115 221.122"
	 enable-background="new 86.532 97.613 325.115 221.122" xml:space="preserve">
<g id="logo">
	<g>
		<g>
			<g>
			</g>
		</g>
		<g>
			<path fill="#F47A4B" d="M250.927,279.856l-15.532-0.023c-0.827,0-1.529,0.619-1.631,1.441c-0.002,0.022-0.013,0.184-0.013,0.184
				c0,0.775,0.513,1.432,1.247,1.613c6.95,1.729,9.2,3.699,9.923,4.721c0.007,0.008,0.058,0.076,0.058,0.076
				c0.006,0.008,0.393,0.518,0.393,1.188c-0.001,0-0.027,0.293-0.027,0.293c0-0.012-4.137,17.361-4.137,17.361
				c-0.002,0.016-0.019,0.1-0.019,0.1c-0.006,0.041-0.544,3.035-2.023,4.318c-0.19,0.174-4.611,4.133-9.369,4.133
				c-0.904,0-1.641,0.734-1.644,1.639c0,0.902,0.732,1.642,1.632,1.646l28.031,0.189c0.562,0,2.199-0.015,3.296-0.133
				c0.002,0.018,0.006,0.041,0.006,0.041c0.77-0.07,1.208-0.238,1.208-0.238c-0.002-0.01-0.012-0.014-0.014-0.023
				c0.801-0.203,2.266-0.67,3.695-1.6c-0.01,0.006,0.053-0.037,0.053-0.037c0.006-0.002,1.016-0.848,1.016-0.848
				c0.123-0.104,2.547-2.976,3.213-4.197h10.865c0.426,0.01,2.691-0.023,4.783-1.547c1.439,0.768,3.326,1.146,5.609,1.125
				c0.002,0,10.35-0.023,10.35-0.023c0.367,1.01,0.951,1.881,1.73,2.596c0.346,0.33,2.271,2.006,5.656,2.006
				c0.002,0,21.248-0.047,21.248-0.047c0.357,0.006,3.654-0.01,6.33-2.297c0.189-0.156,0.879-0.768,1.566-1.908l18.646,0.054
				c0.111,0.002,2.771-0.021,4.82-2.3c0.598-0.528,3.281-8.692,3.281-8.692h2.395l-0.406,1.592c-0.105,0.334-0.449,1.58-0.449,2.974
				c0,0.51,0.047,0.992,0.141,1.432c0.055,0.254,0.596,2.516,3.033,3.875c0.018,0.008,0.146,0.07,0.146,0.07
				c0.154,0.067,1.43,0.586,3.057,0.586l10.025-0.002c0.713,0.078,3.338,0.24,5.695-1.027c0.391-0.131,2.434-0.926,4.314-3.736
				c0.133-0.191,1.314-1.977,1.314-4.443c0-0.014-0.021-0.536-0.021-0.536c-0.002-0.023-0.01-0.091-0.01-0.091
				c0-0.01-0.133-1.096-0.133-1.096c0.379-0.596,0.887-1.559,1.137-2.77c-0.02,0.088-0.076,0.154-0.145,0.201
				c0.141-0.18,0.26-0.783,0.631-2.672l0.383-1.949c0.064-0.293,0.188-0.924,0.188-1.709c0-0.904-0.188-2.203-1.094-3.256
				c-0.352-0.619-1.807-2.631-5.721-2.553l-15.771-0.019c0-0.019,0.08-1.388,0.08-1.388c0-7.336-6.252-13.996-17.605-18.774
				c-11.082-4.664-26.277-7.233-42.789-7.233c-1.801,0-3.656,0.034-5.512,0.104"/>
			<path fill="#F47A4B" d="M310.807,258.243c8.473-7.18,16.631-15.215,24.242-23.883c0.031-0.041,0.252-0.392,0.252-0.392
				c9.379-22.059,17.186-48.758,21.451-73.294c0.75-4.312,2.25-9.261,7.682-13.287c3.867-2.878,7.16-4.916,7.496-5.113
				c0.678-0.398,4.818-2.539,6.352-3.622c-2.523,0.107-6.768,0.447-7.557,0.531c-9.564,1.023-12.305,0.143-13.086-0.475
				c-0.193-0.154-0.285-0.299-0.32-0.755c0,0.024-0.111-1.455-0.111-1.455c-0.359-4.716-0.729-9.575-1.434-13.707
				c-0.723-4.187-5.111-8.034-13.275-7.192c-6.473,0.674-21.918,3.448-34.586,6.504c0,0-0.531,0.095-0.668,0.119
				c-0.027-0.123-0.09-0.405-0.09-0.405c-0.16-1.377-0.865-2.156-1.428-2.561c-0.912-0.655-2.145-0.864-3.662-0.621
				c-1.568,0.253-10.578,2.433-12.334,3.021c-2.002,0.668-4.111,1.7-4.617,4.289c-0.35,1.796-0.768,2.674-2.324,3.141
				c-8.492,2.557-31.281,9.729-59.402,21.084c-1.268,0.514-2.373,0.6-2.887,0.229c-0.269-0.193-0.377-0.57-0.31-1.061
				c0.184-1.305,1.789-8.406,2.594-11.582c2.667-10.482,6.123-17.114,10.271-19.71c7.107-4.453,21.5-10.006,44.669-17.065
				c0.866-0.263,7.987-2.554,9.368-3.333c-2.2-0.194-8.631,0.479-9.526,0.611c-26.847,3.933-47.572,9.203-54.381,13.147
				c-3.722,2.062-11.929,7.455-19.505,12.819c2.119-2.325,6.454-6.955,11.659-11.834c0.332-0.312,7.013-5.846,7.361-6.715
				c-1.364,0.006-8.78,3.704-9.524,4.173c-5.648,3.565-18.832,12.525-19.392,12.905c-7.2,4.992-20.218,15.592-29.554,24.705
				c-0.009,0-0.281,0.274-0.281,0.274l-0.344,0.485l-0.151,0.331c-9.727,21.126-18.017,47.576-22.747,72.566
				c-0.919,4.88-4.042,7.469-6.311,8.993c-3.588,2.402-27.997,16.738-29.04,17.373c-0.505,0.308-4.797,3.139-6.822,4.446
				c2.359-0.434,8.115-1.784,8.115-1.784c2.272-0.623,55.802-15.201,68.472-18.552c0.695-0.183,1.331-0.161,1.619,0.048
				c0.217,0.16,0.259,0.537,0.255,0.826c-0.14,10.93,0.501,21.322,0.968,28.911c0,0.002,0.144,2.347,0.144,2.347
				c0.133,2.18-1.641,4.182-6.119,6.905c-2.897,1.765-11.034,4.181-22.388,7.509c-3.301,0.967-8.89,2.42-12.064,3.87
				c3.81,0.119,11.71-0.61,12.594-0.641c25.599-0.847,47.035-3.884,65.533-8.388c6.217-1.52,10.961-4.321,14.1-8.328
				c1.851,1.125,5.976,2.765,12.814,1.054c3.83-0.961,16.151-5.455,22.907-8.24c-0.683,3.173-2.34,7.304-3.603,9.767
				c-2.339,4.563-8.141,9.643-11.576,13.096"/>
		</g>
		<g>
			<g>
				<path fill="#FFDF1C" d="M109.606,198.106c31.673-41.739,66.325-70.14,103.248-94.366c2.119-1.393,1.796-3.158-0.652-3.158
					c-5.986,0-125.67,0-125.67,0s68.941,1.919,110.631,3.648c3.262,0.135,3.359,2.429,1.685,3.723
					C170.816,129.615,138.764,156.742,109.606,198.106z"/>
				<path fill="#FFDF1C" d="M342.836,250.294c-4.449-0.031-4.771-3.484-2.242-5.498c0.863-1.135,58.43-48.562,71.053-64.378
					c-5.65,7.15-79.012,65.711-79.963,66.782c-4.771,5.371,2.791,6.183,5.496,6.148c22.203-0.287,39.467,18.338,42.156,24.893
					C377.083,269.092,358.282,250.408,342.836,250.294z"/>
			</g>
			<g>
				<path fill="#FFDF1C" d="M358.415,214.758c-4.658,3.938-5.68,0.445-5.342-0.603c3.393-10.628,11.67-37.323,14.012-51.04
					c0.631-2.3,2.385-7.458,5.93-10.427c5.195-4.147,4.752-5.051,23.859-15.755c-22.418,9.776-27.506,13.819-29.422,16.065
					c-1.986,2.332-3.033,3.637-4.383,10.631c-2.246,11.552-10.916,41.642-17.16,60.729c-0.461,1.41,0.85,2.088,2.588,1.082
					c1.576-0.914,39.086-29.859,56.336-49.64C382.12,195.033,367.141,209.892,358.415,214.758z"/>
				<path fill="#FFDF1C" d="M156.945,270.321c-4.432,1.824-23.282,8.389-23.282,8.389s18.565-4.117,30.971-8.99
					c4.889-1.92,5.979-4.328,5.946-6.254c-0.106-5.99-0.323-12.865-0.774-19.268c-0.127-1.771-1.186-2.895-4.033-2.422
					c-2.533,0.422-68.238,13.799-68.238,13.799s64.935-10.645,66.333-10.821c1.401-0.178,2.445,0.111,2.624,1.483
					c0.888,6.895,0.7,10.338,0.678,15.773C167.159,264.381,165.612,266.756,156.945,270.321z"/>
				<path fill="#FFDF1C" d="M252.751,266.538c-7.439,2.938-41.768,15.408-88.616,19.623c21.208,1.053,48.887-4.973,84.062-15.039
					c1.066-0.282,1.784-0.006,2.019,0.383c0.402,0.666,0.088,2.15-1.465,4.438c0,0,0.659-0.127,2.481-2.334
					c2.646-3.528,3.191-5.295,3.113-6.448C254.298,266.497,253.591,266.209,252.751,266.538z"/>
				<path fill="#FFDF1C" d="M230.02,285.817c-0.03,0.11,4.365,3.09,5.798,4.59l0,0c1.165,1.221,1.171,2.053,1.175,2.787
					c0,0-3.661,12.42-3.877,13.141c-0.217,0.727-0.433,3.49-4.487,4.541c2.028-0.328,5.304-1.439,6.179-2.602
					c0.874-1.162,4.495-14.271,4.976-15.81c0.359-1.297-0.755-2.248-0.803-2.289C237.352,288.575,230.051,285.706,230.02,285.817z"
					/>
				<path fill="#FFDF1C" d="M132.151,219.981c-0.812,4.058-2.374,5.748-10.106,11.158c-9.928,6.947-22.741,16.682-22.741,16.682
					s13.629-8.692,22.495-14.374c7.101-4.55,12.231-7.337,13.355-12.667c3.162-14.982,8.496-38.137,16.079-57.842
					c0.516-1.335-1.153-2.025-1.988-1.074c-35.958,40.971-33.483,40.935-53.538,63.068c19.868-20.17,27.492-29.992,44.565-48.006
					c0.832-0.88,2.555-0.54,2.161,0.792C138.368,191.327,134.708,207.17,132.151,219.981z"/>
				<path fill="#FFDF1C" d="M371.192,133.917c3.709,0.193,8.336,0.229,11.092,0.231c-3.365-0.451-5.609-0.757-9.555-1.507
					c-5.008-0.952-5.908-1.398-6.574-5.263c-1.564-8.992-3.1-11.976-6.555-14.37c3.088,2.794,3.209,5.235,4.537,16.167
					C364.627,133.19,365.313,133.613,371.192,133.917z"/>
				<path fill="#FFDF1C" d="M236.236,131.313c0.03-1.162,0.645-4.986,1.386-7.004c0.973-2.669,3.409-5.168,6.384-7.089
					c3.285-2.111,22.931-8.776,30.653-11.683c0,0-26.021,7.416-31.424,10.395c-4.607,2.545-8.312,5.23-10.05,9.513
					c-1.536,3.802-2.177,8.861-2.359,11.149c-0.12,1.484,1.033,1.908,2.7,1.229c32.971-13.44,83.553-30.872,119.537-28.39
					c-32.078-2.947-73.32,7.765-114.104,22.862C236.765,133.112,236.201,132.625,236.236,131.313z"/>
			</g>
		</g>
		<g>
			<g>
				<path fill="#FFDF1C" d="M355.596,138.074c-0.398-5.192-0.764-10.541-1.525-15.02c-0.67-3.861-4.891-6.491-11.387-5.821
					c-6.617,0.688-22.066,3.5-34.352,6.463c-1.414,0.388-2.65,0.261-2.888-1.658c-0.146-1.228-0.903-2.133-3.094-1.782
					c-1.549,0.25-10.399,2.4-12.052,2.951c-2.178,0.727-3.2,1.547-3.489,3.038c-0.379,1.951-0.996,3.657-3.506,4.407
					c-10.347,3.115-32.69,10.308-59.246,21.031c-3.736,1.512-5.915-0.116-5.581-2.56c0.196-1.4,1.845-8.659,2.628-11.752
					c2.535-9.963,5.997-17.566,11.002-20.698c9.163-5.742,30.226-12.597,46.769-17.484c-25.268,4.198-47.834,9.587-54.798,13.623
					c-4.888,2.703-18.356,11.707-27.639,18.784c0.625-1.727,2.224-4.367,4.528-6.881c0,0,5.636-6.438,13.161-13.495
					c-5.844,3.69-19.349,12.878-19.349,12.878c-7.276,5.042-20.087,15.502-29.314,24.51l-0.28,0.274l-0.153,0.33
					c-10.651,23.14-18.465,50.208-22.626,72.197c-1.004,5.326-4.393,8.283-7.015,10.043c-3.664,2.454-29.32,17.258-29.32,17.258
					s55.568-15.258,68.589-18.702c2.137-0.559,4.092,0.132,4.062,2.479c-0.154,12.001,0.627,23.156,1.107,31.143
					c0.202,3.316-2.688,5.816-6.913,8.387c-4.606,2.801-18.763,6.781-22.847,7.771c22.446-0.744,44.947-3.479,65.165-8.398
					c8.319-2.033,12.139-5.955,14.157-9.135c1.722,1.791,5.923,3.568,12.746,1.861c4.534-1.139,20.717-7.164,25.344-9.312
					c0.58-0.229-1.42,9.574-4.108,13.353c-5.68,7.979-17.269,18.596-17.269,18.596c16.763-7.854,26.267-13.229,30.718-16.532
					c1.774-1.316,4.139-3.119,6.733-5.132l8.989-2.149l-0.057-0.646c1.408-0.17,2.771-0.293,3.928-0.379
					c-1.811,2.994-5.94,8.232-10.104,12.244c21.063-13.201,36.964-28.952,47.413-40.85c8.35-19.642,16.717-46.371,21.326-72.899
					c0.883-5.078,2.68-10.131,8.322-14.314c3.797-2.824,7.543-5.274,7.543-5.274C356.889,142.319,355.741,139.958,355.596,138.074z"
					/>
				<path fill="#FFFFFF" d="M353.159,138.394c-0.229-5.133-0.584-11.048-1.209-14.943c-0.426-2.74-3.322-5.28-8.52-4.625
					c-7.688,0.97-24.598,4.256-40.746,8.409c0.178-1.783,0.439-5.514,0.439-5.514c-3.48,0.798-10.699,2.698-13.773,3.567
					l-0.863,5.972c-24.607,7.477-46.412,15.6-71.815,26.584c-1.995,0.863-4.023,1.792-5.76,3.009
					c1.443-5.728,3.977-15.418,6.568-23.55c3.242-10.602,6.302-18.229,12.619-22.182c7.302-4.574,22.757-9.65,22.757-9.65
					s-20.06,4.412-27.417,8.676c-7.327,4.049-32.854,22.622-34.678,25.166c0.241-0.846,0.985-3.193,2.483-6.953
					c1.438-3.619,3.205-6.249,5.612-8.878c0,0-1.684,1.077-2.938,1.951c-7.29,5.055-19.903,15.379-29.01,24.261
					c-11.071,24.041-17.976,51.176-21.917,72.028c-1.096,5.801-4.684,9.158-7.926,11.33c-3.77,2.535-13.1,7.998-13.1,7.998
					s51.102-15.561,53.143-16.171c3.901-1.163,5.879,0.062,5.755,3.138c-0.634,16.26-0.555,25.805-0.484,35.342
					c0.035,4.438-2.99,7.072-4.501,8.231c-2.312,1.772-6.862,3.865-10.085,5.063c11.975-0.896,31.369-3.672,45.884-7.137
					c9.027-2.151,13.811-8.158,14.835-10.969c1.597,2.863,5.79,4.779,13.157,3.254c5.136-1.068,24.875-8.968,31.735-11.828
					c0,0-2.114,10.547-4.646,15.662c-2.197,4.438-6.643,9.963-8.01,11.184c3.99-2.016,9.594-5.036,14.236-8.358
					c9.929-7.021,28.929-22.578,30.966-24.896c-0.507,3.986-3.009,12.527-5.312,17.115c10.391-7.847,22.744-18.979,31.262-28.496
					c9.816-24.382,16.703-53.016,20.244-73.533c0.9-5.209,2.977-11.681,9.783-15.468
					C354.958,143.555,353.309,141.899,353.159,138.394z"/>
				<g>
					<g>
						<path fill="#007550" d="M201.441,206.515c-6.014,2.504-11.747,4.899-17.116,7.146c-0.037,0.023-0.055-0.041-0.058-0.193
							c-0.395-3.357,9.489-54.363,12.719-61.179c-2.376,3.496-7.861,18.3-12.838,32.954c-5.277,15.531-9.977,30.902-9.772,32.414
							c0,0.139,0.01,0.172-0.026,0.188c-5.087,2.127-9.76,4.092-13.98,5.87c-0.106,0.039-0.137-0.128-0.155-0.59
							c-0.309-3.327,1.692-21.347,4.02-36.358c1.44-9.279,2.998-17.416,4.218-20.217c-1.093,1.739-4.049,8.157-7.5,20.898
							c-3.359,12.408-6.586,27.472-7.856,39.326c0,0-6.539,2.804-8.678,3.709c1.354-1.719,2.314-4.174,3.353-9.153
							c4.13-19.86,7.984-40.536,21.184-70.31c6.597-6.507,13.816-12.951,21.304-18.972c0.104-0.31-5.312,13.05-9.468,29.027
							c-4.37,15.768-7.312,33.795-7.741,37.27c0.222-2.695,2.447-10.144,7.089-21.697c4.684-11.639,12.647-31.63,15.831-37.511
							c0.791-1.557,1.033-1.905,1.389-2.223c7.658-6.228,15.526-12.066,23.211-17.244c-8.098,20.118-16.24,50.344-21.285,78.583
							C198.443,202.938,199.139,205.396,201.441,206.515z"/>
						<path fill="#007550" d="M281.323,136.014c-5.725,1.849-11.785,3.91-18.186,6.207c0.344,0.161,2.227,0.922,1.512,4.683
							c-1.654,8.574-4.123,21.155-5.953,30.336c-0.74,3.625,0.838,4.757,1.484,4.952c3.268-1.34,6.52-2.676,9.746-3.996
							c-0.688-0.264-2.201-1.329-1.504-4.925c1.854-9.566,4.19-22.034,5.758-30.822c1.029-0.358,2.053-0.71,3.076-1.06
							c0.812-0.28,1.408,0.051,1.293,0.727c-1.424,8.333-3.6,20.144-5.32,29.212c-0.672,3.574,0.797,4.62,1.525,4.894
							c3.19-1.305,6.363-2.6,9.494-3.883c-0.654-0.262-2.175-1.323-1.531-4.846c1.563-8.692,3.514-19.927,4.727-27.858
							C287.95,136.26,284.963,134.805,281.323,136.014z"/>
						<path fill="#007550" d="M259.557,143.511c-3.095,1.131-9.528,3.575-9.535,3.58c0.403,0.196,2.249,0.928,1.459,4.734
							c-1.82,8.793-4.526,21.777-6.432,31.051c-0.153,0.749-1.032,1.692-1.907,2.046c-0.569,0.239-1.126,0.467-1.695,0.702
							c-0.885,0.364-1.498,0.033-1.34-0.712c1.924-9.289,4.668-22.382,6.551-31.241c0.729-3.483-0.846-4.551-1.449-4.717
							c-3.168,1.238-6.412,2.534-9.71,3.88c0.554,0.212,2.202,1.087,1.4,4.768c-1.892,8.704-4.616,21.566-6.479,30.589
							c-0.799,3.86,2.322,5.291,6.421,3.608c6.524-2.686,13.062-5.379,19.558-8.049c-0.67-0.194-2.234-1.327-1.494-4.963
							c1.871-9.214,4.462-21.965,6.173-30.605C261.774,144.583,260.014,143.675,259.557,143.511z"/>
						<path fill="#007550" d="M226.67,156.504c-3.021,1.282-5.123,2.199-9.24,3.999c-4.118,1.789-7.987,5.925-8.765,9.443
							c-1.917,8.718-4.506,21.136-6.194,29.904c-0.712,3.695,2.185,5.301,6.238,3.61c3.006-1.248,6.042-2.51,9.094-3.774
							c4.053-1.692,7.993-5.996,8.73-9.575c1.831-8.886,4.534-21.691,6.428-30.322C233.739,156.233,230.886,154.698,226.67,156.504z
							 M223.265,163.436c-1.941,8.952-4.712,21.918-6.585,31.183c-0.14,0.735-1.013,1.675-1.865,2.034
							c-0.55,0.235-1.102,0.463-1.647,0.693c-0.861,0.359-1.459,0.039-1.312-0.711c1.845-9.238,4.528-21.968,6.555-31.068
							c0.154-0.731,1.029-1.668,1.9-2.05c0.554-0.244,1.112-0.487,1.67-0.727C222.851,162.403,223.428,162.704,223.265,163.436z"/>
						<path fill="#007550" d="M299.866,130.357c0.104-0.82,0.529-5.19,0.604-5.986c-2.253,0.568-5.757,1.483-8.175,2.148
							c0.013-0.04-0.768,5.976-0.823,6.33c-0.009-0.003-1.423,0.417-2.125,0.632c-0.183,1.318-0.414,2.783-0.604,4.133
							c0,0,1.588-0.53,2.152-0.704c-1.393,9.53-3.029,20.284-4.449,28.419c-0.607,3.504,2.188,5.228,6.201,3.592
							c1.842-0.751,3.656-1.491,5.467-2.219c0.309-1.948,0.619-3.876,0.918-5.785c-1.621,1.86-2.604,2.348-3.006,2.43
							c-0.4,0.088-0.672-0.201-0.607-0.606c1.465-9.214,2.875-19.556,3.998-28.464c0.67-0.179,4.603-1.328,4.582-1.324
							c0.148-1.216,0.322-2.612,0.478-3.865C302.967,129.497,299.862,130.362,299.866,130.357z"/>
						<path fill="#007550" d="M322.575,129.606c0.117-2.608-2.199-4.527-5.641-3.728c-1.697,0.395-7.002,1.758-10.891,2.79
							c-0.232,1.911-0.471,3.87-0.738,5.865c0.703-0.792,2.82-2.809,6.35-3.739c0.77-0.204,1.533-0.412,2.295-0.61
							c0.684-0.184,1.234,0.162,1.189,0.754c-0.062,0.92-0.131,1.854-0.203,2.79c-0.27,0.067-5.832,1.609-5.855,1.622
							c-3.354,0.931-6.496,4.194-6.893,7.316c-0.631,4.946-1.535,12.016-2.342,17.313c-0.539,3.479,2.271,5.094,6.027,3.57
							c5.768-2.331,11.305-4.571,16.574-6.684c-0.588-0.263-1.965-1.308-1.621-4.525
							C321.657,144.42,322.323,136.503,322.575,129.606z M312.5,156.831c-0.941,0.369-1.881,0.747-2.816,1.124
							c-0.764,0.31-1.344-0.021-1.242-0.704c0.766-5.567,1.557-12.255,2.082-17.401c0.061-0.626,0.738-1.332,1.443-1.539
							c0.891-0.256,1.779-0.509,2.666-0.756C314.124,143.349,313.325,150.474,312.5,156.831z"/>
						<path fill="#007550" d="M331.446,148.202c0.568-7.814,0.82-14.651,0.734-21.327c-0.055-2.625-1.348-3.62-1.945-3.952
							c-1.137,0.219-4.35,0.897-6.832,1.448c0.176,0.116,1.947,0.96,1.885,4.053c-0.152,6.93-0.645,14.675-1.42,22.725
							c-0.311,3.182,1.078,4.28,1.625,4.489c2.6-1.048,5.125-2.056,7.596-3.045C332.571,152.4,331.211,151.295,331.446,148.202z"/>
						<path fill="#007550" d="M350.641,140.882c-0.047-6.895-0.291-10.894-1.006-16.708c-0.299-2.384-2.465-3.959-4.553-3.734
							c-1.82,0.199-7.416,1.023-12.305,1.984c0.24,0.135,1.855,1.078,1.939,3.909c0.193,6.543,0,13.068-0.471,20.792
							c-0.195,3.051,1.111,4.143,1.645,4.35c2.393-0.954,4.705-1.877,6.928-2.757c-0.484-0.205-1.758-1.298-1.646-4.256
							c0.273-7.857,0.271-13.758-0.219-20.312c0.584-0.096,1.379-0.219,1.99-0.315c0.529-0.078,1.004,0.259,1.043,0.755
							c0.533,6.188,0.631,11.268,0.469,18.63c-0.068,2.908,1.107,3.85,1.65,4.192c2.146-0.852,4.203-1.668,6.18-2.444
							C351.842,144.696,350.659,143.688,350.641,140.882z"/>
					</g>
					<g>
						<path fill="#E03127" d="M230.631,202.225c-2.528-1.37-6.475-1.127-10.749,0.604c-12.343,5.031-24.271,9.855-35.201,14.244
							c-0.007-0.014,4.072,2.13,3.414,8.262c-1.607,14.941-1.933,27.586-2.303,39.432c-0.143,4.672-3.089,7.342-4.206,8.394
							c8.312-1.125,24.031-3.871,30.363-5.515c7.782-2.033,13.416-7.524,14.175-12.518c2.094-14.178,4.503-29.604,7.183-46.646
							C233.758,205.619,232.804,203.393,230.631,202.225z M209.003,260.241c-0.117,1.092-1.435,2.625-2.847,3.027
							c-1.301,0.362-3.146,0.805-4.907,1.088c0.87-17.863,3.646-39.823,4.814-48.674c1.571-0.625,5.522-2.197,5.526-2.199
							c1.773-0.709,3.125-0.153,2.927,1.223C212.003,232.222,210.53,246.36,209.003,260.241z"/>
						<path fill="#E03127" d="M262.036,246.138c-3.33,1.362-7.048,2.814-10.41,4.032c-1.748,0.631-3.27-0.304-3.067-1.483
							c0.194-1.177,1.572-8.461,1.572-8.461l27.715-11.363c2.662-13.449,5.141-27.702,7.32-41.834
							c0.43-2.842-0.469-5.038-2.543-6.211c-2.431-1.36-6.217-1.165-10.461,0.594c-5.697,2.352-11.509,4.743-17.344,7.137
							c-8.254,3.378-15.836,11.365-16.84,17.678c-2.729,17.112-5.261,32.856-7.517,47.248c-0.371,2.407,0.562,4.295,2.604,5.35
							c2.396,1.232,6.359,1.367,10.422,0.078c10.126-3.224,20.258-7.527,30.512-11.786c0.008,0.05,1.9-8.662,2.33-10.796
							C275.374,237.36,270.438,242.718,262.036,246.138z M257.501,197.288c0.221-1.416,1.986-3.251,3.816-4.005
							c0.791-0.333,1.584-0.661,2.381-0.989c1.828-0.759,3.184-0.214,2.953,1.2c-1.939,11.989-3.994,23.93-6.074,35.284
							c0-0.002,0-0.002,0-0.002c-0.447,0.193-7.863,3.195-9.048,3.656c0,0.006,0,0.008,0,0.008
							C253.522,221.201,255.544,209.298,257.501,197.288z"/>
						<g>
							<path fill="#E03127" d="M284.563,176.271c7.885-3.269,15.463-6.424,22.568-9.397c0.727-0.363-8.176,56.994-10.603,64.345
								c4.248-7.791,18.642-53.905,22.521-69.354c6.209-2.613,11.895-5.021,16.939-7.181c0.771,1.117-4.719,52.235-7.26,60.166
								c1.344-3.697,6.764-20.954,10.232-35.91c3.73-15.179,5.514-28.069,5.553-27.924c2.959-1.286,5.586-2.432,7.852-3.441
								c-0.512,0.855-2.637,4.375-3.518,10.028c-3.285,22.003-9.785,48.236-19.08,73.063c-6.605,7.361-14.072,14.527-22.373,21.23
								c-0.057,0.258,4.109-14.047,7.391-30.629c3.439-16.383,5.992-35.025,6.424-38.791c-1.141,8.116-21.043,62.521-23.062,64.743
								c-8.239,6.979-16.756,13.647-25.164,19.704c6.289-22.718,12.291-53.273,16.724-82.942
								C290.438,179.042,287.393,176.681,284.563,176.271z"/>
						</g>
					</g>
				</g>
			</g>
			<g>
				<path fill="#F47A4B" d="M341.151,230.554v-0.601h0.615c0.299,0,0.352,0.178,0.352,0.293c0,0.228-0.123,0.308-0.381,0.308
					H341.151z M340.667,231.815h0.484v-0.881h0.516c0.367,0,0.385,0.118,0.385,0.424c0,0.234,0.021,0.353,0.053,0.457h0.551v-0.059
					c-0.109-0.037-0.109-0.122-0.109-0.449c0-0.418-0.102-0.488-0.297-0.572c0.234-0.072,0.369-0.287,0.369-0.533
					c0-0.195-0.119-0.635-0.746-0.635h-1.205V231.815L340.667,231.815z"/>
				<g>
					<path fill="#F47A4B" d="M339.801,230.776c0-0.971,0.779-1.697,1.77-1.697c0.977,0,1.766,0.727,1.766,1.697
						c0,0.985-0.789,1.712-1.766,1.712C340.583,232.488,339.801,231.762,339.801,230.776z M341.571,232.826
						c1.182,0,2.205-0.862,2.205-2.05c0-1.178-1.023-2.037-2.205-2.037c-1.189,0-2.203,0.859-2.203,2.037
						C339.368,231.964,340.379,232.826,341.571,232.826z"/>
				</g>
			</g>
		</g>
		<g>
			<path fill="#FFDF1C" d="M246.965,289.627l-4.157,17.465c0,0-0.589,3.564-2.565,5.277c0,0-4.905,4.532-10.446,4.532l28.029,0.188
				c0,0,2.734,0,3.572-0.188c0,0,1.933-0.34,3.718-1.498c0,0,0.831-0.592,1.565-1.452c0.012,0,1.604-1.718,2.606-3.896h11.875
				c0,0,2.66,0.17,4.668-1.976c0,0,1.349,1.599,5.701,1.555l11.645-0.024c0,0,0.119,1.717,1.568,3.035c0,0,1.594,1.565,4.539,1.565
				c2.949,0,21.264-0.047,21.264-0.047s2.924,0.088,5.25-1.903c0,0,0.947-0.75,1.652-2.304l19.631,0.054
				c0,0,2.078,0.055,3.559-1.707c0,0,0.648-0.759,0.867-1.535l2.469-7.748h5.719l-0.947,3.682c0,0-0.623,1.984-0.281,3.621
				c0,0,0.375,1.744,2.227,2.777c0,0,1.068,0.448,2.404,0.448l10.123-0.004c0,0,2.832,0.384,5.033-0.926
				c0,0,1.775-0.517,3.516-3.108c0,0,1.178-1.707,1.018-3.959l-0.211-1.724c0,0,0.902-1.07,1.234-2.67l0.865-4.412
				c0,0,0.65-2.563-0.691-3.781c0,0-0.883-1.838-4.287-1.77l-33.922-0.031l2.137-9.455c0,0,0.75-2.588-1.188-4.321
				c0,0-1.525-1.379-4.799-0.816c0,0-1.582,0.375-2.643,2.117c0,0-0.285,0.434-0.57,1.285c-0.01,0-0.838,2.231-1.936,3.809
				c0,0-0.996,1.451-1.652,2.123l0.162-0.605l-55.875,0.068c0,0,14.008,4.789,14.192,4.885c0,0.006-33.072,0.031-33.072,0.031
				s-1.394-1.078-2.266-2.74c0,0-1.015-3.408,0.202-6.65c0,0,1.613-3.905-1.61-5.764c0,0-3.086-1.777-6.064,1.35
				c0,0-0.951,1.058-1.785,3.369l-2.167,5.66l-21.444-0.031c6.961,1.73,9.767,3.806,10.868,5.365
				C246.263,286.842,247.246,288.028,246.965,289.627z"/>
			<path fill="#FFDF1C" d="M255.964,284.131c0,13.829,24.767,24.257,57.609,24.257c32.895,0,58.662-10.654,58.662-24.257
				c0-13.604-25.768-24.259-58.662-24.259C280.731,259.873,255.964,270.301,255.964,284.131z"/>
			<path d="M370.307,284.245c0,12.648-25.383,22.896-56.676,22.896c-31.301,0-55.615-10.248-55.615-22.896
				c0-12.645,24.314-22.896,55.615-22.896C344.924,261.349,370.307,271.601,370.307,284.245z"/>
		</g>
		<g>
			
				<linearGradient id="SVGID_1_" gradientUnits="userSpaceOnUse" x1="70.5044" y1="196.6611" x2="109.0249" y2="196.6611" gradientTransform="matrix(2.446 0 0 -2.446 96.5474 763.3998)">
				<stop  offset="0" style="stop-color:#E03127"/>
				<stop  offset="0.5337" style="stop-color:#F99F1C"/>
				<stop  offset="1" style="stop-color:#E03127"/>
			</linearGradient>
			<path fill="url(#SVGID_1_)" d="M362.868,282.377c0,10.338-21.098,18.729-47.119,18.729c-26.014,0-47.102-8.393-47.102-18.729
				c0-10.354,21.088-18.748,47.102-18.748C341.77,263.629,362.868,272.022,362.868,282.377z"/>
			<path d="M265.776,276.872c-1.285,3.66-0.221,6.648-0.035,7.367c0,0.035,0.973,2.061,2.768,3.574c0,0,0.959,0.793,1.337,0.789
				l35.771-0.025c2.336,0,4.523,0.572,5.461,1.396c0,0,0.234-3.644-7.52-6.3l38.381-0.041l-1.123,4.193c0,0,6.99-2.308,10.359-11.25
				c0.074-0.242,0.572-2.203,2.904-1.929c0,0.035,1.645,0.232,1.291,2.33l-2.697,11.564l36.77,0.055c0,0,4.096-0.412,3.787,2.875
				c-0.115,0.82-0.754,4.381-1.037,5.48c-0.719,2.746-4.312,4.053-5.777,4.512l4.76,0.055c0.209,1.66-0.84,3.076-0.84,3.076
				s-2.334,3.639-6.693,3.639h-10.697c-4.168,0-3.086-3.963-3.086-3.963s0.916-3.846,1.58-6.498c-2.146,0-8.703,0-8.73,0
				c-1.072,4.025-2.807,9.08-2.807,9.08c-0.25,0.894-1.111,1.613-2.125,1.613h-22.045c-1.041,4.355-5.691,4.152-5.691,4.152
				l-20.701,0.049c-5.317,0-3.588-4.658-3.588-4.658c-0.666,0.039-2.223,0.049-2.899,0.049l-9.257,0.019
				c-0.442,0-1.702,0.002-1.702,0.002s-3.947,0.192-4.67-1.115c-0.914-1.19-0.873-2.942-0.873-2.942
				c-2.188,2.799-2.812,3.397-2.843,3.455c-0.983,0.953-1.946,1.039-2.754,1.039h-13.53c-1.003,3.405-3.755,5.727-3.755,5.727
				c-1.262,0.779-2.495,1.238-3.929,1.264c-1.443,0.025-1.351,0.045-1.812,0.045l-11.124,0.047l-7.976-0.062
				c0,0,3.668-0.757,5.408-6.265c0.046-0.127,0.204-0.711,0.233-0.795c0.044-0.162,4.561-19.244,4.596-19.396
				c0.009-0.106,0.061-0.461,0.075-0.61c-0.003-0.496-0.117-0.937-0.354-1.365c0,0-0.091-0.119-0.125-0.191
				c0,0-1.685-2.939-5.363-4.08l13.426,0.012c0.662,0,1.297,0.287,1.707,0.777c0.029,0.039,0.096,0.088,0.186,0.152l3.548-8.488
				c0,0,0.367-1.424,2.472-1.264C264.434,274.021,266.614,274.469,265.776,276.872z"/>
			<g>
				<path fill="#F47A4B" d="M335.208,262.61L335.208,262.61c-1.014,1.447-2.557,5.881-4.191,10.576l-0.061,0.172
					c-0.92,2.646-2.312,6.646-2.697,7.178c-0.111,0.141-0.182,0.199-0.258,0.275c-0.441-0.636-1.051-2.455-1.842-5.57
					c-1.111-4.286-1.881-6.956-3.656-7.858c-0.627-0.317-1.352-0.396-2.092-0.229c-2.488,0.601-4.758,4.285-5.395,5.399
					c0.008-0.012-0.066,0.112-0.066,0.112c-0.088,0.146-0.127,0.318-0.113,0.488l0.012,0.138c0.002,0.021,0.131,2.43-1.25,3.086
					c-0.715,0.339-1.373,0.412-2.016,0.228c-1.242-0.361-2.152-1.549-2.59-2.537c-0.268-0.604-0.979-2.213-2.562-2.354
					c-1.492-0.133-2.395,1.013-3.268,2.119c-0.404,0.519-0.893,1.144-1.289,1.407c-3.291,2.168-4.879,3.769-5.186,4.134
					c-0.241,0.252-0.368,0.56-0.426,0.795c-0.399,1.097-1.506,3.438-3.182,4.503c-0.496,0.32-0.736,0.251-0.854,0.219
					c-0.609-0.191-1.984-1.642-2.784-5.742c-0.34-1.779-0.183-3.729-0.042-5.447c0.223-2.868,0.452-5.832-1.314-8.145
					c-0.989-1.271-1.641-2.106-2.808-2.066c-1.108,0.054-1.593,0.85-2.062,1.619c-0.469,0.779-1.174,1.955-2.731,3.384
					c-2.729,2.502-3.288,4.405-3.737,5.936c-0.308,1.046-0.568,1.938-1.492,3.013c-1.709,2-1.709,2-3.049,1.885
					c-0.01,0-1.326-0.1-1.326-0.1c-0.01-0.002-0.697-0.062-1.09-0.096c-0.131-0.121-2.021-1.883-2.785-2.595
					c0.055-0.22,0.113-0.458,0.113-0.458c-0.05-1.443-1.439-2.571-3.101-2.53c-0.896,0.021-1.729,0.372-2.285,0.963
					c-0.451,0.479-0.688,1.084-0.665,1.704c0.055,1.452,1.417,2.559,3.104,2.518c0.262-0.002,0.525-0.119,0.793-0.19
					c0.422,0.392,1.765,1.64,2.021,1.879c0.189,1.315,1.805,1.42,3.684,1.531l0,0l1.266,0.092c2.877,0.254,3.451-0.294,5.686-2.922
					c1.295-1.519,1.678-2.827,2.014-3.983c0.416-1.408,0.808-2.732,2.98-4.714c1.51-1.382,2.348-2.584,2.895-3.45
					c0,0.002,0.131,0.166,0.131,0.166c0.576,0.748,0.869,1.758,0.917,3.172l-0.142,3.186c-0.004,0.059-0.162,3.885-0.162,3.885
					c0,0.012,0.254,2.258,0.254,2.258c0.479,2.508,1.732,6.873,4.752,7.832c0.828,0.256,2.107,0.362,3.539-0.559
					c2.609-1.67,3.916-4.791,4.33-5.938c0.447-0.457,1.807-1.748,4.506-3.526c0.791-0.526,1.406-1.31,1.947-2.001
					c0.213-0.273,0.369-0.461,0.502-0.614c0.047,0.094,0.078,0.132,0.137,0.263c0.682,1.553,2.207,3.452,4.439,4.109
					c1.41,0.41,2.908,0.27,4.336-0.41c2.602-1.24,2.846-4.199,2.846-5.259c1.086-1.813,2.508-3.433,3.248-3.69
					c0.768,0.672,1.73,4.387,2.154,6.025c1.123,4.346,1.936,7.484,4.303,7.842c1.121,0.164,2.174-0.361,3.133-1.564
					c0.584-0.735,1.4-2.988,3.127-7.955c1.307-3.764,3.094-8.918,3.924-10.104c0.258-0.367,0.504-0.574,0.752-0.797
					c-0.121,2.023-0.299,5.575-0.299,8.934c0,0.832,0.012,1.649,0.037,2.428c0.131,3.769,0.543,4.857,0.889,5.386
					c0.404,0.595,1.064,1.388,2.219,1.56c1.396,0.196,2.516-0.595,4.064-1.688c-0.016,0.01,2.234-1.511,2.234-1.511
					c1.582-0.989,2.359-0.975,2.561-0.945c0.059,0.053,0.168,0.05,0.248,0.089c0.395,1.073,1.521,1.837,2.916,1.808
					c1.686-0.045,2.979-1.216,2.945-2.666c-0.037-1.432-1.432-2.56-3.107-2.52c-0.754,0.016-1.412,0.331-1.951,0.77
					c-0.232-0.078-0.469-0.158-0.469-0.158c-1.348-0.238-2.984,0.225-4.863,1.377c-0.031,0.021-2.348,1.589-2.348,1.589
					c-0.584,0.415-1.332,0.942-1.701,1.099c-0.082-0.098-0.186-0.221-0.186-0.221c-0.324-0.508-0.488-2.948-0.488-6.34
					c0-3.143,0.143-7.102,0.428-11.098c0-0.007,0.031-0.521,0.031-0.521c0.002-0.019,0.004-0.036,0.004-0.054
					c0-0.422-0.322-0.778-0.748-0.815l-0.646-0.058C339.944,259.71,337.307,259.618,335.208,262.61z M317.836,273.265
					c0,0.012,0.002,0.036,0.002,0.036C317.836,273.292,317.836,273.274,317.836,273.265z"/>
				<path fill="#FFE500" d="M335.297,262.673L335.297,262.673c-1.006,1.436-2.547,5.861-4.178,10.549l-0.061,0.172
					c-0.93,2.668-2.332,6.699-2.713,7.207c-0.158,0.197-0.27,0.301-0.359,0.383c-0.453-0.535-1.098-2.408-1.936-5.717
					c-1.104-4.254-1.867-6.904-3.6-7.785c-0.605-0.308-1.303-0.383-2.02-0.221c-2.441,0.59-4.689,4.241-5.32,5.348
					c0.006-0.012-0.068,0.113-0.068,0.113c-0.076,0.127-0.109,0.275-0.098,0.424l0.012,0.137c0.002,0.021,0.137,2.505-1.314,3.193
					c-0.729,0.348-1.432,0.426-2.092,0.233c-1.277-0.372-2.213-1.586-2.66-2.599c-0.26-0.588-0.949-2.152-2.471-2.289
					c-1.435-0.127-2.316,0.994-3.172,2.078c-0.408,0.523-0.901,1.156-1.314,1.432c-3.301,2.174-4.88,3.771-5.168,4.119
					c-0.209,0.22-0.346,0.382-0.378,0.699c-0.388,1.084-1.519,3.515-3.248,4.613c-0.536,0.348-0.81,0.27-0.94,0.231
					c-0.682-0.214-2.056-1.685-2.861-5.826c-0.344-1.796-0.186-3.753-0.045-5.479c0.222-2.848,0.449-5.789-1.291-8.067
					c-0.969-1.244-1.606-2.062-2.717-2.022c-1.051,0.049-1.498,0.785-1.972,1.565c-0.472,0.785-1.183,1.968-2.752,3.407
					c-2.705,2.48-3.261,4.369-3.707,5.886c-0.31,1.058-0.575,1.961-1.513,3.052c-1.747,2.045-1.747,2.045-3.143,1.924
					c-0.009,0-1.324-0.101-1.324-0.101c-0.01-0.001-0.744-0.063-1.131-0.099c0,0-2.104-1.961-2.855-2.66
					c0.061-0.247,0.121-0.497,0.121-0.497c-0.047-1.38-1.387-2.461-2.987-2.423c-0.866,0.021-1.671,0.359-2.207,0.93
					c-0.431,0.458-0.656,1.035-0.636,1.625c0.053,1.393,1.365,2.45,2.99,2.411c0.273-0.001,0.552-0.118,0.83-0.2
					c0.385,0.357,1.816,1.689,2.074,1.93c0.004,0.01,0.006,0.004,0.008,0.024c0.153,1.261,1.672,1.353,3.596,1.466l0,0l1.267,0.092
					c2.824,0.25,3.39-0.291,5.595-2.884c1.278-1.5,1.657-2.798,1.991-3.942c0.421-1.426,0.815-2.764,3.011-4.765
					c1.578-1.444,2.418-2.69,2.955-3.557c0.034,0.042,0.123,0.147,0.123,0.147l0.107,0.139c0.591,0.767,0.893,1.795,0.939,3.234
					l-0.142,3.197c-0.004,0.057-0.162,3.872-0.162,3.872c0.001,0.01,0.253,2.239,0.253,2.239c0.473,2.484,1.711,6.808,4.676,7.75
					c0.806,0.246,2.051,0.352,3.447-0.547c2.596-1.66,3.895-4.789,4.295-5.907c0.439-0.449,1.809-1.757,4.539-3.556
					c0.776-0.518,1.385-1.293,1.922-1.978c0.275-0.353,0.463-0.573,0.609-0.737c0.066,0.119,0.125,0.203,0.217,0.408
					c0.672,1.531,2.174,3.402,4.369,4.048c1.383,0.403,2.854,0.265,4.256-0.401c2.549-1.217,2.785-4.125,2.785-5.164
					c0-0.012,0-0.018,0-0.028c1.018-1.709,2.57-3.61,3.416-3.815c0.713,0.379,1.719,4.28,2.201,6.154
					c1.113,4.307,1.918,7.416,4.213,7.762c1.078,0.158,2.1-0.354,3.031-1.524c0.57-0.72,1.424-3.079,3.107-7.923
					c1.309-3.771,3.1-8.934,3.938-10.131c0.33-0.474,0.658-0.778,0.969-1.024c-0.119,1.961-0.314,5.712-0.314,9.224
					c0,0.831,0.012,1.647,0.037,2.424c0.131,3.783,0.561,4.854,0.871,5.33c0.393,0.575,1.031,1.346,2.143,1.51
					c1.354,0.19,2.455-0.59,3.984-1.67c-0.012,0.009,2.238-1.512,2.238-1.512c1.615-1.011,2.426-0.992,2.637-0.963
					c0.002,0,0.145,0.041,0.145,0.041c0.047,0.044,0.121,0.039,0.178,0.071c0.359,1.056,1.459,1.812,2.822,1.78
					c1.623-0.041,2.869-1.162,2.84-2.553c-0.035-1.369-1.381-2.449-2.996-2.412c-0.75,0.017-1.408,0.334-1.936,0.781
					c-0.252-0.085-0.506-0.171-0.506-0.171c-1.32-0.233-2.932,0.224-4.787,1.361c-0.025,0.018-2.344,1.586-2.344,1.586
					c-0.621,0.442-1.438,1.018-1.791,1.139c-0.08-0.094-0.248-0.291-0.248-0.291c-0.34-0.516-0.512-2.959-0.512-6.391
					c0-3.123,0.143-7.063,0.432-11.115c0-0.005,0.035-0.55,0.035-0.565c0-0.363-0.279-0.674-0.648-0.705l-0.645-0.058
					C339.942,259.821,337.362,259.729,335.297,262.673z M317.727,273.271c0,0.01,0,0.03,0,0.03
					C317.727,273.293,317.727,273.278,317.727,273.271z"/>
				<path fill="#FFFFFF" d="M350.85,276.585c0.051-0.021,0.102-0.044,0.102-0.044c0.09-0.039,0.324-0.183,0.408-0.129
					c0.084,0.053,0.008,0.294,0.012,0.394c0.031,0.836,0.979,1.575,1.986,1.553c1.107-0.025,1.836-0.877,1.818-1.653
					c-0.012-0.462-0.199-0.896-0.514-1.187c-0.346-0.32-0.848-0.475-1.447-0.442c-0.92,0.049-1.182,0.393-1.512,0.829l-0.086,0.111
					c-0.076,0.102-0.262,0.118-0.383,0.077c-0.141-0.067-0.453-0.165-0.656-0.218c-1.076-0.189-2.449,0.223-4.088,1.229
					l-2.307,1.561c-1.256,0.896-2.027,1.423-2.547,1.346c-0.291-0.049-0.592-0.31-0.898-0.775c-0.512-0.772-0.676-3.592-0.676-6.87
					c0-4.05,0.254-8.802,0.43-11.267c0,0,0.006-0.11,0.014-0.219c-0.176-0.016-0.354-0.031-0.354-0.031
					c-0.086-0.006-2.252-0.127-4.027,2.404c-0.926,1.32-2.516,5.887-4.051,10.303l-0.062,0.172c-1.41,4.054-2.441,6.965-2.877,7.506
					c-0.646,0.804-1.053,0.91-1.236,0.902c-1.006-0.156-1.793-2.546-2.826-6.619c-1.035-3.99-1.758-6.463-3.078-7.135
					c-0.391-0.197-0.854-0.244-1.336-0.135c-2.135,0.514-4.416,4.418-4.67,4.861c0,0.002-0.016,0.024-0.027,0.047
					c0,0.008,0,0.017,0.002,0.023c0,0.006,0.01,0.117,0.01,0.303c0,0.821-0.166,3.086-1.895,3.908
					c-0.959,0.454-1.904,0.553-2.809,0.289c-1.611-0.469-2.764-1.938-3.303-3.158c-0.352-0.795-0.82-1.619-1.637-1.691
					c-0.89-0.079-1.506,0.705-2.287,1.695c-0.476,0.608-1.002,1.283-1.551,1.647c-3.574,2.354-4.979,3.945-4.99,3.96
					c-0.025,0.03-0.111,0.114-0.111,0.114c0.045,0.002-1.175,3.759-3.709,5.37c-0.914,0.591-1.527,0.416-1.76,0.351
					c-0.59-0.186-2.521-1.188-3.577-6.604c-0.368-1.934-0.204-3.963-0.06-5.754c0.215-2.776,0.42-5.399-1.088-7.373
					c-0.97-1.244-1.33-1.646-1.877-1.627c-0.482,0.022-0.699,0.349-1.144,1.08c-0.47,0.781-1.257,2.09-2.933,3.629
					c-2.5,2.291-2.99,3.957-3.422,5.427c-0.328,1.12-0.637,2.169-1.717,3.425c-2.004,2.346-2.082,2.438-3.995,2.271
					c-0.001,0-1.313-0.101-1.313-0.101l0,0l-1.411-0.122c-0.071-0.006-0.126-0.035-0.177-0.086l-0.19-0.193
					c-0.001,0-3.104-2.891-3.104-2.891c-0.053-0.05-0.072-0.146-0.072-0.238c0-0.045,0.005-0.088,0.014-0.123l0.145-0.594
					c-0.027-0.794-0.56-1.729-1.969-1.729c-0.593,0-1.058,0.171-1.382,0.506c-0.312,0.322-0.479,0.798-0.461,1.303
					c0.03,0.817,0.908,1.463,1.957,1.438c0.315-0.002,0.642-0.079,0.942-0.226c0.111-0.055,0.246-0.032,0.337,0.052l2.627,2.441
					c0.077,0.072,0.032,0.346,0.011,0.448l0.02-0.089c0.047,0.371,0.969,0.494,2.654,0.594c0.004,0.001,1.279,0.093,1.279,0.093
					c2.354,0.207,2.617-0.019,4.752-2.53c1.141-1.336,1.473-2.473,1.792-3.57c0.442-1.5,0.896-3.037,3.3-5.229
					c1.699-1.556,2.518-2.904,3.008-3.711c0.01-0.018,0.207-0.337,0.207-0.337l0.084-0.132c0.051-0.081,0.131-0.143,0.228-0.148
					c0.096-0.007,0.183,0.024,0.243,0.098l0.785,0.947l0.104,0.135c0.733,0.949,1.101,2.164,1.156,3.826l-0.144,3.312
					c-0.004,0.054-0.16,3.76-0.16,3.76l0.232,2.07c0.35,1.832,1.436,6.174,3.992,6.986c0.592,0.182,1.523,0.254,2.595-0.434
					c2.488-1.593,3.729-4.91,3.955-5.559c0.015-0.041,0.036-0.078,0.065-0.109c0.381-0.396,1.849-1.841,4.805-3.789
					c0.639-0.425,1.193-1.133,1.684-1.758c0.75-0.961,1.14-1.348,1.436-1.425c0.068-0.019,0.143-0.011,0.207,0.02
					c0.189,0.093,0.5,0.39,0.9,1.289c0.582,1.329,1.867,2.942,3.73,3.49c1.141,0.332,2.363,0.213,3.537-0.347
					c2.24-1.068,2.23-3.908,2.205-4.467c-0.004-0.059,0.012-0.115,0.039-0.164c0.805-1.386,2.707-4.098,4.152-4.446
					c0.004,0,0.646,0.071,0.646,0.071c1.082,0.554,1.863,3.291,2.771,6.812c1.086,4.195,1.83,6.779,3.385,7.016
					c1.047,0.152,1.834-0.832,2.092-1.156c0.486-0.614,1.482-3.418,2.943-7.625c1.4-4.039,3.146-9.064,4.062-10.377
					c0.9-1.287,1.857-1.791,2.502-1.988c0.096-0.028,0.197-0.01,0.273,0.053c0.078,0.062,0.121,0.157,0.113,0.256
					c-0.055,0.774-0.529,7.719-0.361,12.848c0.113,3.254,0.447,4.412,0.707,4.812c0.299,0.437,0.734,0.957,1.445,1.062
					c0.949,0.136,1.865-0.514,3.254-1.494c0.006-0.004,2.256-1.523,2.256-1.523c1.727-1.08,2.771-1.208,3.344-1.126
					C350.516,276.351,350.778,276.508,350.85,276.585z"/>
			</g>
			<g>
				<g>
					<path fill="#FFFFFF" d="M259.401,289.028l5.033-14.014l0.168-0.392c0,0-1.793,4.649-1.111,8.847c0,0,0.414,2.731,1.873,4.094
						c0,0,0.924,1.035,2.277,1.207c-0.027,0-0.053,0.27-0.053,0.27L259.401,289.028z"/>
					<path fill="#FFFFFF" d="M342.059,289.124l-0.689,0.021c0,0,2.941-0.566,5.82-3.113c0,0,1.004-0.715,3.486-4.32
						c0,0,2.514-4.537,2.771-5.48l-0.047,0.336l-3.217,12.558L342.059,289.124L342.059,289.124z"/>
				</g>
				<g>
					<g>
						<path fill="#FFFFFF" d="M249.126,284.937l0.363-0.017l7.896,0.019l-6.107,24.235c0,0-0.324,0.793,0,1.144
							c0,0.021,0.266,0.502,1.1,0.463l10.845-0.031c0,0-0.344,0.791-0.768,1.365c0,0-0.228,0.301-0.595,0.48
							c0,0.018-1.357,0.702-2.52,0.702c-0.014,0.013-14.998,0.037-14.998,0.037s0.73-0.724,1.239-1.701c0,0,0.422-0.663,0.593-1.631
							l5.042-20.265c0,0,0.568-1.618-0.244-3.135C250.974,286.604,250.152,285.008,249.126,284.937z"/>
						<path fill="#FFFFFF" d="M259.045,290.569l0.395-0.008h8.484l-4.549,16.037h-5.238l3.07-11.486c0,0,0.576-1.461-0.465-3.219
							C260.743,291.894,259.924,290.661,259.045,290.569z"/>
						<path fill="#FFFFFF" d="M270.897,291.083l0.16-0.521h8.221l-3.865,12.785c0,0-0.301,0.777,0.527,1.217
							c0,0.021,0.957,0.353,1.416-0.387c0,0,1.824-3.57,2.799-5.182l4.846-8.451h3.927l-0.285,1.004l-3.465,5.547
							c0,0-5.572,9.115-5.646,9.283c0,0.02-8.224,0-8.224,0s-0.188-0.775,0.043-1.734l1.209-8.807c0,0,0.336-1.703,0.147-2.502
							c0,0-0.094-1.104-0.651-1.826C272.055,291.508,271.875,291.196,270.897,291.083z"/>
						<g>
							<path fill="#FFFFFF" d="M308.362,290.644c-0.432-0.082-1.016-0.082-1.016-0.082h-16.24c1.18,0.354,1.381,0.555,1.381,0.537
								c1.098,0.592,0.408,2.315,0.408,2.315s-2.727,10.729-2.709,10.729c-0.264,0.979-0.184,1.426-0.184,1.426l0.76,0.371
								c0.404,0.215,0.953,0.18,0.953,0.18h10.293c0.793-0.037,1.32-0.354,1.32-0.354c1.836-0.882,2.573-2.738,2.573-2.738h-5.743
								l-0.486,1.744l-2.49,0.049c-0.688,0.063-0.906-0.221-0.906-0.221c-0.594-0.408-0.389-1.105-0.389-1.105l0.809-3.26
								c0.227-0.938,0.395-1.033,0.395-1.033c0.427-0.447,1.015-0.355,1.015-0.355s5.451,0.025,5.435,0
								c1.996,0.1,3.031-1.457,3.049-1.457c1.75-2.203,1.914-5.734,1.914-5.734C308.5,290.842,308.336,290.644,308.362,290.644z
								 M302.274,293.356l-1.115,4.254h-2.666c0,0-1.062-0.037-0.977-1.109l0.994-3.605c0,0,0.117-0.774,1.076-0.793h1.676
								c0,0,0.936,0,1.053,0.871C302.315,292.974,302.354,293.097,302.274,293.356z"/>
						</g>
						<path fill="#FFFFFF" d="M309.799,310.706H329.5c0.629,0,1.387-0.312,1.387-0.312c2.396-1.106,2.807-3.274,2.807-3.274
							l5.656-21.418h-5.051l-6.221,22.862l-3.217,0.037c-0.33,0-0.471-0.094-0.471-0.094c-0.979-0.334-0.553-1.367-0.553-1.367
							l5.764-21.457H324l-6.203,22.902l-3.23,0.016c-0.613-0.057-0.859-0.469-0.836-0.469c-0.285-0.398-0.117-0.83-0.117-0.83
							l5.553-21.619h-7.836l-0.477,0.015c1.238-0.046,2.049,1.776,2.049,1.776c0.484,1.371,0.258,2.406,0.258,2.406l-4.947,18.664
							c-0.34,1.078-0.049,1.568-0.049,1.568S308.415,310.69,309.799,310.706z"/>
						<path fill="#FFFFFF" d="M341.223,290.594l0.346-0.012h8.385l-4.459,15.961h-5.203l3.111-11.672c0,0,0.244-0.662-0.049-1.722
							c0,0.021-0.164-1.237-1.094-1.989C342.239,291.161,341.67,290.579,341.223,290.594z"/>
						<path fill="#FFFFFF" d="M352.344,290.583h0.744h16.537c0,0,0.672-0.021,1.016,0.072c0,0,0.67,1.447,0.043,3.316
							c0,0.014-5.76,0-5.76,0s0.348-0.785,0.137-1.201c0-0.025-0.15-0.619-0.975-0.703h-1.969c0,0-0.715-0.025-1.039,0.717
							l-3.734,13.773h-5.285l3.062-11.687c0,0,0.26-0.606-0.133-2.162c0,0-0.154-0.924-0.686-1.312
							C354.305,291.399,353.219,290.729,352.344,290.583z"/>
						<g>
							<path fill="#FFFFFF" d="M373,306.271h10.779c1.166-0.039,1.998-0.613,1.998-0.613c1.816-1.057,2.322-2.586,2.322-2.586
								h-6.141l-0.535,1.75c0,0-2.584,0-2.584,0.018c-0.434,0-0.543-0.084-0.543-0.084c-0.885-0.369-0.621-1.26-0.621-1.26
								s1.004-3.848,1.004-3.828c0.26-0.82,1.047-0.738,1.047-0.738s5.889,0.018,5.861,0c1.527-0.045,2.363-0.852,2.363-0.852
								c1.711-1.277,2.346-4.822,2.346-4.811c0.422-1.688,0.021-2.576,0.021-2.576c-0.266-0.107-1.27-0.129-1.27-0.129H372.61
								l-0.479,0.008c1.428-0.06,2.234,2.422,2.234,2.422c0.246,0.941,0.088,1.734,0.088,1.734l-2.578,9.771
								C371.875,304.497,371.36,306.237,373,306.271z M384.375,293.267c0,0.016-1.162,4.344-1.162,4.344h-2.703
								c0,0-0.965-0.019-0.939-1.055l0.977-3.605c0,0,0.166-0.83,1.064-0.848h1.709
								C383.321,292.103,384.534,292.133,384.375,293.267z"/>
						</g>
					</g>
				</g>
			</g>
		</g>
	</g>
</g>
</svg>
