<?xml version="1.0" encoding="utf-8"?>
<!-- Generator: Adobe Illustrator 16.0.0, SVG Export Plug-In . SVG Version: 6.00 Build 0)  -->
<!DOCTYPE svg PUBLIC "-//W3C//DTD SVG 1.1//EN" "http://www.w3.org/Graphics/SVG/1.1/DTD/svg11.dtd">
<svg version="1.1" id="Layer_1" xmlns="http://www.w3.org/2000/svg" xmlns:xlink="http://www.w3.org/1999/xlink" x="0px" y="0px"
	 width="175.751px" height="66.576px" viewBox="271.5 327.091 175.751 66.576"
	 enable-background="new 271.5 327.091 175.751 66.576" xml:space="preserve">
<g>
	<path d="M330.554,389.717L330.554,389.717C330.576,389.695,330.573,389.697,330.554,389.717L330.554,389.717z"/>
	<path d="M287.157,344.198l0.007-0.003L287.157,344.198z"/>
	<path d="M359.004,343.039l-0.001,0.002L359.004,343.039z"/>
	<path d="M287.164,344.195c0.015-0.008,0.024-0.012,0.03-0.015C287.185,344.185,287.172,344.191,287.164,344.195L287.164,344.195z"
		/>
	<path d="M287.193,344.18C287.202,344.176,287.2,344.177,287.193,344.18L287.193,344.18z"/>
	<path d="M337.233,393.186c0.004-0.051,0.253-0.526,0.938-0.526h2.034c0.213,0.057,1.074,0.217,1.977-0.479
		c0.022-0.014,0.048-0.031,0.098-0.068c1.537-1.151,2.999-1.514,4.116-1.021c0,0,1.685,0.252,3.506,1.699
		c0,0,0.747,0.461,1.846,0.543c0.092,0.006,1.285,0.119,2.067,0.205c0,0,0.394,0.049,0.533-0.192c0.13-0.158,3.104-3.539,3.75-4.66
		c0.213-0.109,0.482-0.338,0.525-0.611c0.036-0.232-0.055-0.551-0.691-0.752c-0.106-0.041-2.908-1.057-5.511-1.168
		c-0.123-0.039-0.162-0.195-0.015-0.289c0.051-0.027,0.121-0.068,0.25-0.146c2.344-1.418,3.962-2.162,4.81-2.219
		c0.062,0.006,0.122,0.004,0.179-0.002c0.146-0.016,0.388-0.043,0.909,0.172l0.207,0.045c0.114,0.027,0.289,0.074,0.478,0.123
		c1.317,0.35,4.383,1.156,6.672,1.246c0.392,0.201,1.489,0.469,2.2,0.232c0,0,1.11-0.226,1.39-1.394
		c0.006-0.021,0.645-2.021,2.795-5.063c0.052-0.053,0.112-0.129,0.212-0.254c2.171-2.758,4.341-4.57,6.491-5.394
		c0.508-0.125,3.683-1.328,5.02-2.219c0,0-0.007,0.004,0,0c1.196-0.822,5.497-4.171,10.204-12.3
		c0.049-0.125,1.248-3.108,5.036-3.018c0.007,0,7.427-0.091,7.788-0.096c0.385,0.085,3.861,0.749,5.47-2.334
		c0.003-0.005,2.135-4.814,4.664-4.418c0.333,0,1.826,0.191,6.819,1.626c0,0,11.877,2.53,17.688-1.975
		c1.547-0.78,6.517-3.918,5.403-11.277c-0.146-0.69-0.511-1.202-1.017-1.438c-0.63-0.292-1.456-0.171-2.453,0.353
		c-0.138,0.034-0.341,0.102-0.665,0.21c-1.866,0.624-7.533,2.516-10.085,2.376c-0.082-0.017-0.206-0.023-0.435-0.032
		c-3.544-0.142-7.863-0.938-12.841-2.368c0,0-0.271-0.073-0.325-0.09c-5.979-1.839-10.812-1.596-13.982,0.705
		c-2.668,1.936-4.071,5.305-4.183,10.001c-0.322,0.218-1.846,0.458-5.628-1.038c-0.188-0.166-0.7-0.475-2.191-1.371
		c-1.831-1.101-4.339-2.607-5.908-3.728l-0.26-0.186c-2.48-1.84-11.114-7.21-24.931-5.072l0,0c-0.226,0.007-0.653,0.076-1.523,0.215
		c-1.609,0.259-4.294,0.691-6.705,0.935c-0.137-0.013-0.403,0.011-1.048,0.072c-1.692,0.159-5.651,0.53-10.12,0.319
		c-0.092-0.017-0.229-0.017-0.488-0.011c-1.006,0.021-3.664,0.076-5.215-1.108c-0.036-0.052-0.081-0.103-0.136-0.162
		c-0.15-0.161-0.401-0.43-0.362-0.662c0.035-0.208,0.298-0.389,0.512-0.502h-0.001c0.296-0.121,0.638-0.618,0.646-1.013
		c0.011-0.456-0.296-1.007-1.793-1.071c-0.474-0.148-2.202-0.065-4.096,0.653c-0.281-0.095-0.409-0.252-0.462-0.374
		c-0.116-0.271-0.039-0.677,0.215-1.174c0.464-0.332,1.26-1.31,1.403-1.51c0.473-0.654,0.777-1.538,0.532-1.966
		c-0.321-0.561-1.313-1.246-4.798-1.033c-0.029-0.001-4.814,0.386-11.609,2.959c0,0-0.954,0.343-1.282,0.152
		c-0.063-0.037-0.132-0.114-0.149-0.292c0.13-0.327,0.17-0.782-0.121-1.141c-0.613-0.757-2.351-0.751-5.312,0.019l0.011,0.009
		c-0.31,0.065-1.146,0.415-3.957,1.595c-0.26,0.112-0.386,0.098-0.419,0.072c-0.047-0.035-0.065-0.509-0.09-0.517
		c-0.113-0.578-0.353-1.009-0.73-1.267c-0.563-0.385-1.197-0.238-1.223-0.232c-2.124,0.588-4.377,1.778-5.896,2.672
		c-0.891,0.525-1.604,0.991-2.044,1.29c-0.482,0.326-0.706,0.484-0.813,0.587v-0.001c-0.122,0.105-0.236,0.139-0.371,0.109
		c-0.612-0.134-1.309-1.402-1.448-1.707c-0.673-1.839-2.129-1.8-2.546-1.739c-3.538,1.567-3.326,6.335-3.163,7.749
		c0.001,0.01,0,0.007,0,0.003c0.052,0.323,0.007,0.519-0.022,0.59c-0.74,0.377-6.911,3.618-7.345,6.922c0,0,0.044,0.139,0.048,0.146
		c0.039,0.182,0.005,1.457-1.065,3.604c-0.626,0.867-6.857,10.509-6.884,10.552c-1.009,1.588-1.076,2.98-0.247,4.068
		c0.166,0.271,0.791,1.526,0.791,2.418c0,0,0.039,0.063,0.041,0.071c0.197,0.974,1.072,1.611,1.8,1.988
		c0.135,0.117,0.47,0.199,1.294,0.326c0.032,0.004,1.121,0.092,1.853,0.418l0.082,0.023c0.484,0.113,2.917-0.754,2.934-0.762
		c1.177-0.547,1.561-1.297,1.675-1.83l0.02-0.09c0.265-0.693,2.598-4.972,5.374-6.822l0.537-0.358
		c0.854-0.535,2.629-1.608,4.177-2.523c0.22-0.123,5.551-3.106,7.256-5.845c0.015-0.015,0.054-0.057,0.061-0.064
		c0.051,0.008,0.799,0.364,0.799,0.364c0.982,0.292,11.243,5.005,12.465,10.872l0.109,0.521c0.022,0.594-0.041,1.814-0.478,3.941
		c-0.321,1.688-1.203,6.178-1.433,6.75c-0.032,0.078-0.8,1.977-0.497,3.492l0.005,0.02c0.002,0.01,0.013,0.055,0.022,0.1
		c0.342,1.549,0.89,3.592,1.562,4.641c0.011,0.033,0.263,0.83,1.789,0.775l0.114-0.004c0,0,0.082-0.023,0.112-0.025
		c0.236-0.016,0.646-0.043,1.031-0.184c0.333-0.092,4.389-0.799,5.461-0.896c-0.007,0.002,0.001,0,0.067-0.008
		c1.277-0.147,5.612-0.557,8.174,0.4c0.075,0.066,0.188,0.131,0.34,0.217c0.536,0.303,1.653,0.93,1.912,1.969l-0.008-0.069
		c0,0.254,0.694,1.312,2.229,1.53c0.065,0.025,0.674,0.254,1.789,0.58c0.094,0.025,0.336,0.127,0.402,0.31
		c0.063,0.174-0.043,0.396-0.152,0.563c-0.046,0.039-0.09,0.084-0.128,0.127c-1.096,1.226-2.784,1.896-5.021,2l-0.064,0.004
		c-0.266-0.032-0.626,0.047-1.056,0.672c-0.761,0.701-2.46,2.425-2.301,3.688c0.051,0.408,0.291,0.738,0.693,0.955
		c0.31,0.154,7.538,0.072,9.079-0.174C337.191,393.4,337.233,393.186,337.233,393.186L337.233,393.186z"/>
	<path fill="#FFFFFF" d="M441.368,348c-5.936,4.615-17.237,1.9-17.237,1.9c-2.59-0.746-5.868-1.631-6.892-1.647
		c-3.159-0.484-5,4.17-5.128,4.518c-1.427,3.094-4.818,2.275-4.963,2.238l-7.884,0.087c-4.036-0.096-5.446,3.064-5.562,3.341
		c-4.763,8.222-9.178,11.504-10.01,12.077c-0.02,0.012,0.011-0.008,0,0c-1.344,0.896-4.534,2.043-4.843,2.141
		c-2.251,0.861-4.562,2.75-6.799,5.593c0,0,0,0-0.001,0l-0.218,0.262c-2.219,3.136-2.859,5.156-2.885,5.24
		c-0.231,0.767-1.004,1.006-1.028,1.021c-0.587,0.188-1.584-0.109-1.744-0.195l-0.173-0.062c-2.229-0.074-5.305-0.885-6.618-1.232
		c-0.339-0.09-0.53-0.139-0.651-0.157c-0.63-0.252-0.971-0.22-1.152-0.199c-0.021,0.002-0.14-0.002-0.14-0.002
		c-1.418,0.086-4.179,1.754-5.086,2.304c-0.074,0.047-0.261,0.153-0.261,0.153c-0.355,0.228-0.712,0.506-0.647,0.845
		c0.062,0.327,0.89,0.508,0.89,0.508c2.526,0.094,5.379,1.129,5.408,1.141c0.282,0.082,0.153,0.268,0.08,0.307h-0.107l-0.081,0.154
		c-0.474,0.904-3.265,4.102-3.67,4.562l-0.157,0.053c-1.971-0.188-2.022-0.189-2.04-0.189c-0.982-0.072-1.512-0.426-1.531-0.436
		c-1.785-1.41-3.315-1.721-3.65-1.771c-1.311-0.557-2.96-0.168-4.654,1.102c-0.022,0.017-0.896,0.734-1.599,0.445l-2.164-0.014
		c-0.79,0-1.256,0.465-1.444,0.793c-1.93,0.25-7.957,0.223-8.579,0.18c-0.211-0.123-0.333-0.279-0.358-0.492
		c-0.104-0.819,1.078-2.231,2.121-3.19l0.005-0.004c0.02-0.019,0.059-0.066,0.059-0.066c0.221-0.329,0.407-0.479,0.558-0.446
		c0.031,0.008,0.099,0.01,0.173-0.006c2.354-0.117,4.152-0.845,5.348-2.156l0.046,0.022l0.144-0.209
		c0.282-0.416,0.362-0.797,0.237-1.131c-0.185-0.49-0.729-0.646-0.79-0.662c-1.122-0.325-1.748-0.565-1.754-0.567l-0.031-0.013
		l-0.035-0.006c-1.327-0.17-1.785-1.049-1.789-1.06v0.002c-0.33-1.268-1.58-1.973-2.184-2.312c-0.059-0.032-0.115-0.065-0.164-0.094
		v-0.063l-0.185-0.07c-2.676-1.037-7.195-0.613-8.516-0.459c-0.022,0.002-0.045,0.006-0.051,0.006
		c-0.699,0.062-2.622,0.383-3.194,0.479c-1.554,0.262-2.175,0.359-2.433,0.463c-0.307,0.111-0.633,0.123-0.853,0.138
		c-0.104,0.008-0.181,0.014-0.246,0.028c-0.971,0.025-1.192-0.403-1.194-0.408c-0.502-0.739-1.058-2.385-1.537-4.553
		c-0.007-0.033-0.016-0.07-0.027-0.108h0.002c-0.269-1.343,0.459-3.144,0.467-3.162c0.297-0.742,1.416-6.604,1.463-6.854
		c0.416-2.022,0.657-4.145,0.354-4.74c-1.146-5.304-8.931-9.442-11.297-10.586c-0.983-0.476-2.569-1.352-2.971-0.85
		c-0.013,0.016-0.082,0.096-0.082,0.096c-1.604,2.618-7.019,5.647-7.073,5.677c-3.324,1.964-4.411,2.61-4.745,2.911
		c-1.662,1.108-3.108,2.97-4.027,4.345c-0.016,0.024-1.476,2.196-1.604,2.926c-0.126,0.588-0.591,1.062-1.362,1.418
		c-0.017,0.009-2.079,0.8-2.541,0.729c-0.823-0.36-1.97-0.455-2.018-0.459c-0.35-0.055-0.775-0.137-0.937-0.186l-0.094-0.047
		c-0.626-0.312-1.405-0.85-1.562-1.623c-0.01-0.049-0.026-0.086-0.042-0.121c-0.062-0.768-0.528-2.211-0.932-2.633
		c-1.005-1.32-0.011-2.87,0.311-3.378c0.048-0.075,0.096-0.155,0.12-0.236c0.731-1.186,6.546-10.023,6.769-10.327
		c0.903-1.807,1.278-3.422,1.112-4.031c0.484-3.12,7.028-6.431,7.095-6.464l0.089-0.069c0.048-0.056,0.279-0.392,0.169-1.064
		c-0.151-1.31-0.398-5.705,2.743-7.128c0.41-0.054,1.383,0.011,1.88,1.429c0.17,0.468,0.878,1.533,1.464,1.875
		c0.44,0.256,0.905,0.205,1.268-0.108c0.435-0.353,4.742-3.364,8.495-4.404c-0.007,0.001,0.41-0.089,0.757,0.152
		c0.272,0.189,0.445,0.54,0.516,1.04c-0.018,0.185,0.021,0.443,0.173,0.625c0.16,0.191,0.48,0.363,1.099,0.098
		c1.353-0.567,3.566-1.483,3.844-1.572c3.646-0.947,4.535-0.471,4.738-0.219c0.196,0.242,0.033,0.586,0.014,0.625l-0.029,0.141
		c0.024,0.616,0.452,0.973,1.142,0.954c0.01,0,0.729-0.045,1.082-0.262v0.001c6.466-2.449,11.385-2.921,11.426-2.923
		c3.073-0.188,3.907,0.361,4.159,0.567c0.129,0.105,0.096,0.393,0.096,0.393c0.188,0.566-1.37,2.227-1.744,2.512
		c0,0-0.8,1.362-0.416,1.862c0.163,0.212,0.347,0.571,0.894,0.724c0,0,0.354-0.018,0.361-0.059c1.619-0.604,2.999-0.689,3.495-0.656
		l0.278,0.058c1.081,0.039,1.243,0.323,1.267,0.409c0.049,0.178-0.111,0.415-0.222,0.531l-0.109,0.059
		c-0.479,0.255-0.751,0.564-0.811,0.918c-0.086,0.514,0.302,0.929,0.51,1.152c0.019,0.02,0.161,0.197,0.161,0.197
		c1.708,1.342,4.554,1.281,5.625,1.258c0.124-0.003,0.424,0.009,0.424,0.009c4.52,0.215,8.519-0.16,10.226-0.32
		c0.38-0.035,1.003-0.066,1.003-0.066c2.441-0.244,5.162-0.682,6.789-0.944c0.245-0.04,1.521-0.215,1.521-0.215
		c13.796-2.135,22.324,3.325,24.61,5.049c0.06,0.044,0.108,0.079,0.155,0.107l-0.002,0.001c1.588,1.134,4.206,2.497,5.945,3.753
		c1.07,0.773,2.224,1.395,2.224,1.395c4.427,1.623,5.686,1.322,6.133,1.059c0,0,0.307-0.031,0.332-0.361
		c0.077-4.597,1.406-7.864,3.952-9.712c3.017-2.189,7.676-2.404,13.473-0.62c0.158,0.049,0.26,0.077,0.342,0.092l-0.006,0.001
		c5.021,1.442,9.389,2.247,12.979,2.39c0.115,0.005,0.394,0.032,0.394,0.032c2.652,0.161,8.231-1.703,10.332-2.405
		c0.312-0.104,0.72-0.233,0.72-0.233c0.832-0.444,1.515-0.566,1.972-0.354c0.343,0.159,0.584,0.515,0.689,1.014
		C447.568,344.268,442.825,347.264,441.368,348L441.368,348z"/>
	<path d="M292.787,331.684C292.785,331.681,292.787,331.687,292.787,331.684L292.787,331.684z"/>
	<path d="M288.164,337.384C288.167,337.412,288.163,337.37,288.164,337.384L288.164,337.384z"/>
	<path d="M441.368,348C441.411,347.966,441.338,348.015,441.368,348L441.368,348z"/>
	<polygon points="305.287,330.215 305.287,330.215 305.287,330.215 	"/>
	<path d="M417.203,348.249c0.01,0,0.025,0.003,0.036,0.003c0.003,0,0.006,0,0.009,0L417.203,348.249L417.203,348.249z"/>
	<path d="M325.03,373.49c0,0-0.8-0.834-1.261-1.316c-0.647-0.678-1.382-1.447-1.884-1.949c-0.272-0.25-0.974-0.543-1.742,0.08
		c-0.067,0.059-1.67,1.432-2.023,3.053l-0.007,0.031v0.002c-0.002,0.008-0.004,0.017-0.007,0.023
		c-0.056,0.197-0.201,0.717,0.075,1.203c0.195,0.342,0.553,0.584,1.062,0.721l0.012,0.004l0.011,0.002
		c0.079,0.014,1.926,0.342,2.836,0.193c0.546,0.064,2.045,0.004,2.707-0.574C325.05,374.754,325.397,374.285,325.03,373.49
		L325.03,373.49z"/>
	<polygon points="322.067,375.541 322.067,375.533 322.073,375.535 	"/>
	<path fill="#FFFFFF" d="M324.53,374.418c-0.374,0.535-2.681,0.543-2.681,0.543s-2.332-0.162-2.466-0.186
		c-0.35-0.094-0.585-0.244-0.699-0.443c-0.156-0.277-0.062-0.615-0.021-0.762c0.017-0.059,0.028-0.1,0.028-0.152l-0.007,0.062
		c0.312-1.426,1.818-2.722,1.828-2.73c0.551-0.447,0.935-0.141,0.976-0.105c0.485,0.486,1.217,1.254,1.862,1.931
		c0.688,0.721,1.002,1.049,1.168,1.198C324.694,374.176,324.572,374.357,324.53,374.418L324.53,374.418z"/>
	<path d="M359.916,364.412c-0.011-0.053-0.281-1.312-1.073-1.756c-0.333-0.188-0.701-0.211-1.095-0.07l-0.192,0.068
		c0,0-10.36,4.328-15.878,4.594c0,0-2.701,0.215-3.88,0.287c-0.172-0.023-0.898-0.092-1.384,0.354
		c-0.318,0.291-0.456,0.725-0.412,1.285c-0.026,0.637-0.084,3.689,1.138,4.221c0,0,0.985,0.222,1.57-0.819
		c0.79-1.406,1.455-1.58,1.774-1.566l6.124,0.05c0.099-0.002,0.311,0.026,0.359,0.131c0.024,0.049,0.107,0.334-0.583,1.18
		l0.003,0.002c-0.036,0.043-0.062,0.09-0.082,0.127c-0.782,1.428-1.523,2.006-2.016,2.242c-0.224,0.059-1.499,0.428-1.97,1.312
		c-0.021,0.027-0.045,0.066-0.098,0.146c-0.627,0.975-0.963,1.313-1.14,1.42c-0.18,0.045-0.502,0.207-1.163,0.58
		c-0.168,0.014-0.506,0.075-0.618,0.366c-0.138,0.361,0.197,0.718,0.46,0.953l0.146,0.131l0.038-0.02
		c0.015,0.012,0.03,0.023,0.045,0.033c0.364,0.277,1.219,0.924,2.075,0.475l0.082-0.043l0.012-0.025
		c0.139-0.092,0.619-0.366,1.13-0.659c1.059-0.604,2.658-1.521,3.72-2.229l0.024-0.016l0.007-0.008
		c0.064-0.045,1.114-0.742,3.021-0.699c0.265,0.029,2.878,0.291,5.175-1.002l-0.053,0.014c0.33-0.133,1.093-0.85,1.452-1.234
		C358.007,372.775,360.249,369.541,359.916,364.412L359.916,364.412z"/>
	<path fill="#FFFFFF" d="M346.829,372.75C346.839,372.73,346.821,372.762,346.829,372.75L346.829,372.75z"/>
	<path fill="#FFFFFF" d="M359.342,364.488c-0.067-0.301-0.326-1.072-0.782-1.328c-0.18-0.1-0.378-0.109-0.604-0.031
		c-0.212,0.121-0.671,0.307-1.677,0.709c-0.933,0.373-2.408,0.943-4.154,1.543c-3.005,1.031-7.248,2.287-10.412,2.439
		c-0.272,0.059-0.824,0.09-1.952,0.168l-1.955,0.125l-0.066-0.002c-0.006-0.002-0.549-0.023-0.935,0.205
		c-0.411,0.244-0.223,0.871-0.223,0.871c-0.056,1.358,0.152,3.396,0.79,3.676c0.011,0.004,0.423,0.166,0.79-0.5
		c0,0,0.038-0.059,0.051-0.082c0.738-1.262,1.507-1.885,2.289-1.852c-0.01,0,6.114,0.049,6.103,0.049
		c0.066-0.004,0.658-0.008,0.886,0.451c0.207,0.418-0.019,1.03-0.659,1.819c-0.87,1.586-1.745,2.258-2.314,2.522
		c0,0-1.326,0.336-1.694,1.072c0,0-0.082,0.125-0.108,0.166c-0.453,0.703-0.977,1.449-1.429,1.654l-0.184,0.084
		c0,0-0.614,0.293-0.951,0.484l-0.142,0.037c-0.041,0-0.031,0.149,0.102,0.272c0.076,0.035,0.15,0.092,0.235,0.156
		c0.318,0.241,0.907,0.686,1.432,0.434c0.119-0.09,0.409-0.258,1.23-0.729c1.049-0.6,2.634-1.508,3.679-2.202
		c0.255-0.199,1.464-0.871,3.406-0.824h0.015l0.014,0.002c0.026,0.002,2.637,0.308,4.837-0.93l0.018-0.011
		C355.163,374.816,359.792,371.572,359.342,364.488L359.342,364.488z"/>
	<path d="M289.527,338.871l-0.393-0.651l0.096-1.495c0,0,0.386-0.771,0.579,0.097c0.096,0,0.386,1.253,0.048,2.025
		c0.048,0-0.29-0.096-0.337,0.53c0-0.096,0.193,0.289-0.338,0.627c-0.048,0.048-2.797,1.061-4.291,2.556c0,0-0.579,0.434-0.965,0.53
		c0,0-0.579,0.241-0.916,1.302c0.048,0-0.29,0.145-0.29,0.145l0.145,0.29c0,0,0.434,0.386,0.096,1.013c0,0-0.675,1.784-1.302,2.266
		c-0.097,0.048-0.675,0.097-0.338-0.868c-0.048,0.048,0.531-1.64,0.531-1.64s0-0.917,0.579-1.061c-0.048,0,0.289,0.29,0.145-0.578
		c0,0,0.096-0.724,0.964-1.592c0-0.048,3.271-2.291,4.629-2.893c0,0,0.771-0.386,1.061-0.241
		C289.182,339.232,289.527,338.871,289.527,338.871L289.527,338.871z"/>
	<path d="M290.677,331.42c0,0,0.627-0.771,0.82,0.289c0-0.096,0.482,1.35,0.964,2.122c0.048,0.096-0.241,0.192,0.289,0.579
		c-0.048-0.048,0.965,0.434,0.338,1.302c0.048,0-0.675,1.398-0.482,2.17l1.736-0.386c0,0,0.964-0.29,0.289,0.675
		c-0.048-0.048-0.386,0.724-1.591,0.724c0,0-0.385,0-0.723,0.289c0,0-0.723,0.241-0.723-0.53c-0.048,0-0.193-1.929,0.241-2.749
		c-0.097,0.048,0.337-0.145,0-0.579c0.048,0-0.771-1.398-1.013-1.158c0.097,0.097-0.53,0.483-0.337,0.917
		c0.048,0,0.675,0.386-0.193,0.434c0.048,0-1.109-0.579-0.82-2.218c0-0.048,0.386-0.675,0.579-0.579
		C290.099,332.722,289.809,331.662,290.677,331.42L290.677,331.42z"/>
	<path d="M295.499,337.448c0,0-1.206,1.061,0.241,0.82c0,0-0.096-0.29,0.29-0.579C296.029,337.641,296.897,336.772,295.499,337.448
		L295.499,337.448z"/>
	<path d="M304.13,330.649c0,0,0.482-1.013-1.013-0.386c0-0.097-5.352,2.845-6.461,4.436c0.048,0-0.482,0.482,0.771,0.337
		c0.048,0,1.109-0.482,2.073-0.819c0.048,0,0.82-0.435,1.398-0.435c-0.097,0.049,0.482,0.193,1.012-0.434
		C301.864,333.301,304.13,330.649,304.13,330.649L304.13,330.649z"/>
	<path d="M278.236,352.685c0,0-2.604,4.581-3.906,6.172c0.048,0.048-0.192,0.386-0.192,0.386l-0.242,0.579l0.338,0.337l0.53-0.819
		c0,0,0-0.337,0.627-0.868c0.048-0.048,0.627-0.771,0.627-0.771s1.157-1.398,1.736-2.845c0.048,0,0.482-0.579,0.482-0.579
		s1.013-1.35,1.157-1.591c0.048-0.048,0.241-0.338,0.193-0.964c0-0.048-0.193-0.675-0.434-0.193c-0.048,0-0.338,0.482-0.338,0.482
		L278.236,352.685L278.236,352.685z"/>
	<path d="M315.751,365.945c0,0-0.82-1.832-1.206-0.965c0,0.049-0.337,2.412-0.82,4.58c0.049-0.047-0.145,0.771-0.145,0.771
		s-0.146,2.024-0.627,3.039c0.048,0.146-0.386,1.012-0.386,1.012s-0.24,0.05-0.289,0.916c0,0.05,0.049,1.205,0.627,2.269
		c0,0.047,0.434,0.19,0.481,1.301c0.049,0.049,0.29,1.158,1.352,1.158c0,0,1.639,0.096,1.784-0.242c0-0.047,1.445-0.24,1.445-0.24
		s2.268-0.145,3.473-0.338c0-0.096,3.086-0.434,5.015-0.049c0,0.098,0.82,0.049,0.82,0.049s1.013,0.338,1.254,0.096
		c0.096-0.096,0.675-0.096,0.338-0.627c0.096,0.049-0.338-0.48-0.531-0.578c-0.048-0.096-0.481-1.398-0.964-1.688
		c0.048-0.049-0.386-0.82-1.061-0.578c0.048-0.049-0.338-0.145-0.82,0.289c0-0.049-0.675,0.676-1.109,0.385
		c0-0.047-0.337-0.096-0.337-0.096h-4.34c0,0-0.482,0.338-1.157-0.096c0.048-0.05-1.543-0.771-1.253-2.459
		c0.048,0,0.193-0.966,0.193-0.966s-0.048,0.097,0.241-0.338c0.048,0,0.145-0.289,0.386-0.676c0,0.098-0.097-0.24,0.192-0.336
		c0.049-0.05,0.289-0.05,0.337-0.437c0,0.049,0.241-0.385,0.241-0.385s-0.145-0.24,0.146-0.387c0.096,0,0.627-0.578-0.048-1.205
		c0-0.049-0.53-0.482-0.53-0.482s-0.048-0.047-0.627-0.481C317.872,368.162,316.619,367.439,315.751,365.945L315.751,365.945z"/>
	<path d="M350.662,386.727l-0.772-0.096c0,0-0.337-0.193-0.578,0.24c-0.049-0.047-0.097,0.193-0.53,0.338
		c0.048-0.096-0.482,0.193-0.482,0.193s-0.434,0.192-0.675,0.531c-0.048,0-0.386,0.047-0.386,0.047s-0.482,0.192-1.014,0.869
		c0.049,0,0.289,0.145-0.29,0.338c0,0-0.529,0.528,0.146,0.625c0,0,0.675-0.047,1.639,0.338c0-0.049,0.29,0,0.29,0
		s0.146,0.049,0.627,0.289c0.048,0.049,0.337,0.291,0.337,0.291l0.435,0.145l0.579,0.627c0,0,1.061,0.818,2.459,0.529
		c0,0.049,0.675-0.482,1.205-0.146c0,0.05,0.29-0.239,0.29-0.239s0.867-0.531,1.253-1.109l0.097-0.387l0.337-0.096
		c0,0-0.048-0.146,0.241-0.531c0.048-0.047,0.434-0.047,0.53-0.482c0.048,0,0.337-0.48-0.193-0.818
		c-0.048-0.049-0.675-0.531-1.254-0.531c0-0.049-0.53,0.242-0.53,0.242l0.338,0.435c0.289-0.05,0.964,0.385,0.53,0.819
		c0-0.049-0.482,0.24-0.627,0.818c-0.048,0.096,0,0,0,0l-0.385,0.242l-0.05,0.336h-2.313c0,0-0.723-0.047-0.434-0.627
		c0.048-0.047,0.481-1.252-0.098-0.867c0-0.049-0.723,0.676-0.964,0.338c0.048-0.049-0.386-0.434-1.253-0.771
		c0,0-0.482,0.049-0.048-0.435c0.048-0.049,0.481-0.58,0.481-0.58l0.339-0.19l0.481-0.099c0,0,0.531,0.146,0.531-0.145
		C350.951,387.162,351.096,386.824,350.662,386.727L350.662,386.727z"/>
	<path d="M354.229,387.547c0,0,0.387,0.434-0.096,0.676l-0.53-0.098c0,0-1.012-0.289-0.29-0.723c0-0.049,0.435,0.049,0.435,0.049
		L354.229,387.547L354.229,387.547z"/>
	<path d="M334.122,389.379c0,0,0.771,0,0.241,0.531c0,0-0.53,0.338-0.675,0C333.591,389.957,333.254,389.621,334.122,389.379
		L334.122,389.379z"/>
	<path d="M352.542,378c0,0,1.495-0.627-0.048-0.82c0.048-0.049-0.337,0-1.062-0.193c0-0.047-1.013,0-1.446,0.05
		c0-0.05,0.048,0.146-0.771,0.096c-0.048-0.047-1.108-0.047-1.688,0.726l-1.062,0.24l-0.917,0.338c0,0-0.241,0.145-0.964,0.771
		c0-0.049-0.723,0.771-1.591,1.062c-0.048,0-0.725,0.434-0.725,0.434s-0.337,0,0,0.627c0,0,0.241,0.965,1.062,0.627
		c0.048,0,0.723-0.529,0.723-0.529s0.964-0.82,2.99-1.543c-0.048-0.049,1.012-0.242,1.012-0.242s-0.096,0.193,0.482-0.145
		c0.048,0,1.109-0.482,1.109-0.482L352.542,378L352.542,378z"/>
	<path d="M339.667,372.262c0,0-0.288,1.699-2.363,1.977c0.047-0.006-0.434,0.146-0.048,0.724c0.048,0.099,0.338,0.726,0.193,1.304
		c0.048,0-0.338,0.53,0.434,1.204c0,0,0.193,0.242,0.385,0.531c0,0,0.098,0.192,0.677,0.097c0,0-0.049-0.146,0.626-0.435
		c0-0.05,0.145-0.24,0.724-0.24c-0.097,0,0.193,0.24,0.771-0.868c0.048,0.049,0.529-1.156,1.494-1.688
		c0.049,0,0.146-0.05,0.916-0.193c0.049,0,1.398-0.481,1.93-1.733c0-0.099,1.061-1.303,0.192-1.496
		c-0.048-0.047-0.529-0.096-1.639-0.047c-0.048,0-2.363,0-2.363,0S340.149,371.008,339.667,372.262L339.667,372.262z"/>
	<path d="M372.938,374.914c0,0,2.362-0.916,0.627,0.482c0.049,0.047-2.894,1.444-4.58,5.594c-0.05,0-0.627,1.879-1.495,2.844
		c0,0.049-0.386,0.096-1.254,0.049c0.049,0.047-2.024-0.098-2.941-0.387c0,0-2.362-0.529-3.616-0.674c0-0.049-2.313,0-0.964-0.58
		c0,0,2.073-0.289,4.629-0.336c0,0,1.446,0.047,2.121-1.062C365.513,380.844,369.756,375.879,372.938,374.914L372.938,374.914z"/>
	<path fill="#FFFFFF" d="M316.715,368.355c0,0,2.122,1.158,1.688,1.641c0,0.047-0.146,0.096-0.387,0.867
		c-0.048,0,0.097,0.193-0.29,0.578c0,0-0.24,0.049-0.434,0.58c-0.097,0.047-0.29,0.096-0.29,0.625c0,0-0.434,0.049-0.481,0.387
		c-0.049,0.049-1.062,0.385-1.206-0.627c0.048,0,0.096-0.289,0-0.771c0.048,0.049-0.387,0.193-0.049-0.771
		c0-0.049,0.098-1.155,0.098-1.155l0.191-0.291l0.241-0.627C315.799,368.789,315.896,367.344,316.715,368.355L316.715,368.355z"/>
	<path fill="#FFFFFF" d="M314.449,375.107c0,0,0.29,0,1.013,0.24c-0.048,0.049,0.048-0.388,0.723,0.192
		c0.098,0,0.531,0.385,0.531,0.385s0.048,0.05,0.193,0.435c0,0.049,0.241-0.146,0.192,0.481c0,0.05,0,0.481,0,0.481l-0.24,0.289
		l-0.193,0.531l-0.29-0.049c0,0-0.82,0.482-1.446,0l-0.386-0.289l-0.289-0.145c0,0,0-0.145-0.242-0.387
		c0.048,0-0.675-0.916,0.048-0.963c0.049,0.047,0.241-0.146,0.29-0.531c0.097,0.098,0.241-0.338-0.096-0.289
		C314.16,375.492,314.062,374.961,314.449,375.107L314.449,375.107z"/>
	<path fill="#FFFFFF" d="M340.487,372.744c0,0,0.096-0.627,1.205-0.434c0,0.047,0.481-0.099,1.108,0.145
		c0.097,0.047,0.771-0.145,0.771,0.529c0-0.096,0.192,0.627-0.579,0.676c0,0-0.097,0.338-1.013,0.338
		c-0.049,0-0.193-0.193-0.435,0.24c-0.048,0.049-0.289,0.338-0.289,0.338s0.096-0.289-0.481-0.531
		c0.048-0.096-0.579,0.145-0.435-0.578C340.342,373.467,340.149,372.984,340.487,372.744L340.487,372.744z"/>
	<path fill="#FFFFFF" d="M338.944,374.961c0,0,0.626-0.529,0.723-0.047c-0.048,0.047,0.289,0,0.289,0s0.048,0.096,0,0.578
		c0.048,0,0.193,0.482,0.434,0.676c0,0,0.146,0.145-0.337,0.434c0.048-0.049-0.529,0.529-0.529,0.529s-0.146,0.242-0.676-0.24
		c0-0.049-0.434-0.096-0.337-0.627c0.048,0,0.289-0.096-0.145-0.481C338.414,375.734,337.401,375.492,338.944,374.961
		L338.944,374.961z"/>
	<path fill="#FFFFFF" d="M367.972,381.707l-0.002-0.006c-0.005-0.021-0.131-0.514-0.415-0.578c-0.14-0.033-0.287,0.041-0.438,0.219
		c-0.006,0.006-0.579,0.621-1.234,0.855l0.001,0.002c-0.002,0-0.007,0.002-0.012,0.002c-0.261,0.068-0.41,0.178-0.442,0.326
		c-0.036,0.162,0.079,0.354,0.344,0.572c0,0,0.125,0.014,0.149,0.022c0.149,0.058,0.428,0.164,0.8,0.133
		c0,0,0.056-0.012,0.085-0.014c0.122-0.003,0.326-0.007,0.671-0.39C367.479,382.854,368.015,382.537,367.972,381.707
		L367.972,381.707z"/>
	<path d="M304.709,333.638c0.048-0.048-1.302,0.434-0.434,1.254c0.048,0,0,0.097,0.819,0c-0.048,0.048,3.423-0.53,5.4-0.29
		c-0.146,0.049,6.605,0.145,11.573,1.254c0.097,0.097,2.218,0.386,2.94,0.482c0.097,0.049,1.014-0.145,0.579-1.061
		c0.048,0.048-0.145-0.241-0.771-0.386c0.048-0.048-0.627,0.097-0.193-0.53c-0.048,0.096,0.434-0.579-0.337-0.724
		c-0.048-0.096-0.964-0.241-1.688-0.048c0-0.048-0.916,0.192,0-0.482c0.049-0.048,1.592-0.626,3.665-0.626
		c0,0.048,0.579,0.096,0.579-0.338c0,0.097,0.241-0.434,0.241-0.434s-0.048-0.048,0.579-0.192c-0.049,0.048,1.061-0.193,1.687-0.724
		c-0.048-0.048,0.917-0.482,1.641-1.398c0,0,0.964-0.434,0.289-0.626c0.048-0.048-2.989-1.64-14.417,3.761
		c0.048,0-2.459,1.253-3.327,1.206c0.048-0.048-2.652-0.193-2.652-0.193s-1.302,0.145-0.241-0.627c0,0,1.784-1.398,2.989-1.929
		c0.098,0.048,1.399-0.675,0.725-1.157c0-0.048-0.097-0.145-0.966,0C313.388,329.829,308.373,331.083,304.709,333.638
		L304.709,333.638z"/>
	<path d="M327.95,332.144c0,0,0.964-0.82,0.771,0.482c0.048,0-0.192,0.241-0.192,0.241s-0.098,1.253-0.868,1.301
		c0,0-1.352-0.192-0.82-1.253C326.889,332.867,327.372,332.336,327.95,332.144L327.95,332.144z"/>
	<path d="M445.267,338.605c0,0-0.097-1.543-3.375,0.097c0.192-0.097-5.785,2.893-16.395,0.579
		c-0.289-0.097-5.208-0.965-10.415-2.314c0-0.06-2.497-0.157-2.497-0.157c-4.052,0.116-6.03,1.896-6.333,2.192
		c-2.691,2.287-2.55,8.366-2.55,8.283c0.289,2.604-2.797,1.833-2.797,1.833s-3.279-0.868-3.279-0.771
		c-5.688-1.157-12.729-6.172-12.729-6.172c-5.694-3.375-10.284-4.289-12.149-4.499c-4.013-0.252-9.598,0.979-9.549,0.979
		c-5.159,1.253-10.753,1.543-10.705,1.591c-2.7,0.579-12.633,0.145-12.633,0.145c-3.616-0.193-8.149-1.206-8.197-1.206
		c-0.724,0.097-0.868-0.82-0.868-0.82l-0.048-0.434c0,0-0.145-0.338-0.145-0.386c-0.145-0.531,0.82-0.917,0.867-0.917
		c0.146-0.386,0.482-0.193,0.436-0.193c1.061-0.434,2.459-0.723,2.459-0.675c0.579-0.193,0.771-0.434,0.771-0.482
		c0.048-0.482,0.386-0.82,0.29-0.723c0.435-0.964-0.531-0.627-0.579-0.627c-1.784,0-4.34,1.061-4.34,1.061
		c-0.626-0.145-0.818,0.289-0.818,0.337c-0.435,0.289-1.255,0.627-1.255,0.627l-0.337,0.289c0,0-0.048,0.53,0,0.482
		c-0.289,0.53,0.916,1.253,0.868,1.206c0.675,0.82-0.481,0.723-0.434,0.723c-0.771,0-0.482,0.193-0.482,0.193h-1.061
		c0,0-0.868-0.29-0.917-0.241c-3.616-1.543-14.417-2.556-14.417-2.507c-1.014-0.096-4.34-0.145-4.389-0.193
		c-1.205-0.048-1.398,0.241-1.447,0.241c-1.013,0.241-1.833,0.145-1.833,0.145l-0.771,0.097c0,0-4.388,0-4.436,0.048
		c-0.482,0.048-0.434,0.193-0.434,0.193c-0.241,0.338-0.82,0.482-0.82,0.482l-0.289,0.193c0,0,0,0.723-0.048,0.771
		c0.627,0.482,1.446,3.423,1.446,3.423c0.434,1.688,0.048,3.568,0.048,3.616c-0.193,0.724-1.833,1.881-1.88,1.881
		c-0.337-0.048-1.495,0.337-1.495,0.386c-0.627,0.048-0.531-0.193-0.579-0.193c-0.386-0.338-1.061-0.241-1.109-0.241
		c0-0.337-0.82-0.289-0.82-0.289s-0.868-0.482-0.964-0.482c-0.097-0.337-0.627-0.53-0.675-0.482c-0.53-0.241-0.53-0.53-0.53-0.53
		s-0.434-0.82-0.868-0.531c0,0.048-0.386,0.579-1.109-0.289c0-0.097-0.193-0.097-1.495-0.145c0,0,0.338,0.434-0.868,0
		c0.048-0.048-1.398-0.289-2.267,1.64c0,0,0.193,0.964-0.578,0.964c0.048,0-0.868,0-0.241,1.206
		c0.048,0.048,0.579,0.579,0.193,1.013c0-0.048-2.363,4.05-2.99,4.822c0,0.145-0.916,1.446-0.916,1.446s-0.675,0.579-0.771,1.109
		c0.048,0.048-0.097,0.386-0.434,0.771c0,0-1.88,2.169-1.591,2.652c0,0.048-0.819,0.386-0.675,0.867
		c0-0.049-1.254-0.049-2.122,0.578c0,0-1.495,0.578-0.434,1.205c0.048,0,0.627,0.531,0.579-0.047c0-0.098,0.193-0.531,0.771,0.674
		c0.048,0.049,0.145,0.482-0.097,0.676c0,0-0.289,0.193,0.097,0.867c-0.048,0,0.241,0.388,0.096,1.015c0,0.096,0,0.627,0.724,0.817
		c0.193,0,0.337-0.19,1.157-0.145c0-0.047,0.724,0.193,1.109,0.145c0.048-0.047,0.723-1.012,1.013-0.19c0.096,0,0,0.239,0.579,0.096
		c0.048,0,1.253-0.289,1.253-0.289s0.724,0.146,0.675-1.493c0,0,0.434-0.966,0.482-1.545c0,0,0.193-0.191,0.241-0.48
		c0.096-0.145,0.241-0.387,1.302-1.207c0,0.049,1.639-1.687,2.941-3.085c0-0.048,2.363-1.736,4.34-2.893
		c-0.048,0,3.327-1.447,3.954-2.218c0.048-0.048,0.964-0.241,2.169-1.688c0,0.096,2.459-2.218,2.797-4.726
		c0,0,0.337-1.543,0.53,0.193c0-0.048,0.048,0.337-0.048,1.254l0.289,0.193c0,0,6.27,3.423,8.824,5.304
		c0.048,0.048,4.484,2.797,4.87,3.665c0,0,0.627,1.398,0.048,3.472c0,0.096-0.097,0.529,0.386,1.109
		c0,0.047,0.146,0.482,0.146,0.482s0.819,2.12,3.086,4.29c-0.048,0,0.29,0.435,1.206,0.966c0.048,0,0.867,0.528,0.867,0.528
		l0.868,0.192c0,0,0.435,0,1.109,0.675c0.097,0.098,3.713,2.896,5.062,5.498c0.098,0.096,0.29,0.289,0.29,0.289
		s0.097,0.916,0.771,1.157c0.048,0.047,0.82,0.435,0.82,0.435s0.434,0.817,1.206,1.446c0,0.048-0.098,1.062,0.577,1.978
		c0.05,0.097,0.965,1.351,1.833,2.024c0.097,0,0.049,0,0.579,0.578c0.146,0.097,0.289,0.529,1.543,0.529
		c0.049,0,1.013-0.24,1.93,0.82c0.048,0.049,0.337,0.387,0.337,0.387l0.916,0.529c0,0,0.192,0.289,0.579-0.145
		c0.049,0,0.192-0.482,0.771-0.578c0.097,0.047,0.579-0.099,0.193-0.676c-0.048-0.048-1.157-1.302-1.157-1.302
		s0.482,0.048-0.096-0.437c-0.049-0.047-0.627-0.096-1.014-0.866c0-0.097-0.096-0.435-1.301-0.146c0-0.049-0.579,0.146-1.688-0.82
		c-0.146-0.047,0.145-0.145-1.352-0.674c0-0.049-0.771-0.725-0.771-0.725s-0.241,0.242-0.482-0.771c0-0.047-1.302-2.604-2.024-3.856
		c0,0.146-3.568-5.062-5.883-6.992c-0.097-0.096-2.797-3.471-3.856-2.604c0.096,0-0.579,1.831-2.507-2.988
		c0.096,0,1.639,2.024,1.35,0.386c0.096-0.097-0.579-1.447,0.482-2.701c0.097,0,1.061-2.507,1.64-1.157
		c0.096,0.096,0.675,0.096,0.675,0.096l1.64-2.025c0,0-0.771-0.482-0.868-1.929c0,0,0.097-1.254-1.157-0.965
		c0-0.096-0.193,0.483-1.639-1.253c-0.098,0-3.279-2.893-7.716-5.111c-0.097,0.096-2.41-1.35-6.75-2.411
		c-0.192-0.193-2.99-1.447-2.99-1.447s-2.604-1.253,0.097,0.771c-0.193-0.096,5.69,4.147,10.56,6.847
		c0.05,0,2.363,1.929,2.363,1.929s0.771,0.482,0.82,0.579c1.108,1.157,1.832,1.061,1.784,1.109c0.917,0.192,0.965,0.819,1.013,0.771
		c0.386,0.82-0.146,1.013-0.241,1.109c-0.241,0.096-0.434,0.386-0.434,0.386s-0.386,0.241-0.337,0.241
		c-1.253,0.626-0.771,2.652-0.771,2.748c-0.289,1.35-1.012-1.688-1.061-1.639c-0.435-0.723-0.146-1.64-0.192-1.688
		c-0.097-1.013-0.434-1.591-0.531-1.543c-1.495-1.061-2.94-2.074-2.94-2.025c-0.436-0.482-7.233-4.581-7.233-4.533
		c-1.302-0.626-1.495-1.157-1.543-1.205c-0.482-0.627-0.868-0.724-0.868-0.724c-0.868-0.289-0.964-0.579-1.013-0.626
		c-0.096-0.531-1.012-1.061-1.012-1.061s-0.386-0.337-0.434-0.337c0-2.508-1.013-4.678-0.964-4.581
		c-0.338-0.723-0.097-0.916-0.097-1.013c0.241-0.626,0.82-0.626,0.868-0.626c0.723,0.145,1.398-0.29,1.398-0.29
		s0.627-0.048,0.579-0.048c0.868-0.096,1.446-0.241,1.446-0.29c1.206-0.53,2.652,0.049,2.7-0.048c1.013,0.434,2.17,0.434,2.17,0.434
		s2.17,0.048,2.218,0.048c3.183,0.193,9.017,1.302,8.969,1.254c3.857,0.241,6.221,2.363,6.269,2.363
		c0.819,0.771,1.254,0.675,1.254,0.675s0.964,0.096,1.061,0.096c3.037-0.193,3.521,0.723,3.568,0.82
		c0.145,0.723,0.627,0.868,0.627,0.916c0.675,0.337,1.735-0.434,1.688-0.482c1.109-0.772,3.086-0.29,3.086-0.29
		c1.254,0.145,6.075,0.434,6.027,0.434c5.208,0.048,8.969-0.338,9.018-0.386c1.302-0.241,5.256,0.434,5.256,0.434
		c1.254,0.338,1.302,0.048,1.35,0c0.18-0.27,0.694-0.162,0.724-0.146c0.147-0.432,0.965-0.528,0.915-0.528
		c4.727-3.761,8.922-4.34,8.97-4.292c2.396-0.65,4.452,0,4.532,0c5.4,1.157,10.318,4.436,10.415,4.533
		c8.775,6.558,15.142,7.522,15.142,7.522c4.822,0.964,5.11-1.929,5.208-2.025c0.422-4.361,1.92-7.232,2.701-8.468
		c1.663-2.576,5.522-2.093,5.522-2.093c0.476,0.038,0.957,0.085,1.419,0.146c0.098-0.097,7.232,2.122,14.272,2.99
		c0.097,0,8.294,1.446,13.791-0.386c-0.098,0.097,4.437-2.314,0.771,3.183c-0.097,0-3.567,4.437-10.126,4.34
		c0.098-0.097-6.365,0.482-13.888-2.122c0,0-1.253-0.579-2.7-0.579c-3.567-0.579-5.015,5.208-5.11,5.304
		c-1.446,2.701-3.762,2.218-3.856,2.218c-4.63-0.193-10.03-0.193-10.03-0.096c-3.183,0.192-3.277,1.061-3.277,1.061
		c-0.677,1.061-3.279,0.964-3.279,0.964c-4.34,0-5.69,6.652-5.69,6.652c-0.289,0.918-1.302,2.123-1.35,2.17
		c-0.53,0.726-1.109,1.255-1.109,1.304c-0.771,0.481-1.107,1.254-1.107,1.254l-0.53,0.386c0,0-0.676,0.338-0.771,0.338
		c-1.013,0.627-0.338-0.289-0.386-0.289c0.386-0.771,0.289-1.205,0.192-1.205c-0.725-0.82-1.543,0.819-1.543,0.723
		c-0.338,0.531-1.062,0.916-1.062,1.014c-1.397,0.627-2.362,1.688-2.362,1.688s-1.205,0.866-1.205,0.915
		c-2.025,1.255-2.894,1.445-2.941,1.544c-1.832,1.108-1.446,2.12-1.446,2.12c-0.049,0.482-0.481,0.771-0.481,0.82
		c-0.241,0.529-2.557,3.086-2.557,3.133c-0.529,0.388-0.916,0.82-0.916,0.773c-0.29,0.867-2.024,0.916-2.024,0.916
		c-0.579-0.049-1.351,0.047-1.398,0.096c-1.495,0.096-2.313-0.145-2.361-0.145c-1.688-0.627-0.771-1.494-0.724-1.543
		c0.771-1.014,3.085-3.713,3.085-3.713c1.109-1.158,2.508-2.412,2.508-2.412c0.771-0.77,0.435-2.072,0.387-2.023
		c-0.241-0.965-0.193-1.93-0.241-1.979c-0.192-3.664,0.916-7.039,0.916-7.039s0.048-0.097,0.048,0
		c0.579-2.604,1.158-3.375,1.158-3.279c0.48-2.411-2.508,0.386-2.508,0.289c-0.868,0.868-1.641,0.29-1.641,0.386
		c-0.868-0.675-2.845-0.675-2.988-0.675c-1.881-0.097-3.762,2.218-3.811,2.266c-0.481,0.916-1.157,0.916-1.205,0.964
		c-0.965,0.242-1.013,0.627-0.965,0.627c-0.337,0.387-1.109,0.482-1.206,0.482c-1.35-0.146-2.458,0.387-2.458,0.387
		c-0.724,0.047-1.158,0.24-1.206,0.289c-1.88,0.674-5.834,0.578-5.834,0.578c-0.964-0.05-1.012,0.145-0.964,0.192
		c-1.061,0.336-3.616-0.387-3.616-0.338c-1.061-0.146-1.929-0.677-1.929-0.677c-0.53-0.338-1.302-0.338-1.302-0.338
		c-1.833,0.099-1.109,1.979-1.109,1.931c0.289,0.916-0.917,1.493-0.917,1.493c-1.495,1.015-1.205,1.688-1.205,1.736
		c0,1.205-0.145,1.014-0.241,1.062c-0.337,0.53,0.05,0.819,0.097,0.771c0.145,0.338,0.24,0.578,0.24,0.627
		c0.05,0.531,0.676,1.062,0.725,1.062c0.289,0.387,0.289,0.53,0.289,0.481c0.29,0.387,0.53,1.062,0.53,1.062
		s0.289,0.916,0.337,0.916c0.579,0.726,0.434,1.014,0.434,1.014s0.724,1.978,0.771,3.568c0.05,0.047-0.096,0.385,0.436,0.965
		c0.048,0.047,0.482,0.479,0.482,0.479s0.675,0.146,1.397,0.726c0.049-0.049,0.29,0.047,0.483,0.336
		c0.096,0.049,0.867,0.629,0.867,0.629s0.146,0.289,0.628,0.336c0.048,0,1.445,0.437,0.434-0.385c0-0.05-1.013-1.351-2.315-2.121
		c-0.097-0.049-0.289-0.726-0.289-0.726s-0.048-2.217-0.965-3.471c-0.048-0.098-0.868-2.17-1.302-3.713
		c0,0.047,0.097-0.627-0.53-0.916c0-0.049-1.013-0.242-0.675-0.965c0,0.047-0.241-0.289,0.097-0.627c0.097,0,0.241-0.627,0.29-1.254
		c0,0-0.096-0.627,0.192-0.627c-0.048,0.096,0.29,0.338,0.145-0.578c0.049,0.049-0.434-0.434,0.29-0.387
		c0.097-0.047,0.338,0,0.53-0.096c0.096-0.05,0.724,0.145,0.724,0.145s0.434,0,0.192,0.578c0.048,0.098-0.434,0.481,0,0.869
		c0.048,0,0.097,0.289,0.482,0.145c0,0.047,0.675-0.531,1.301-0.869c-0.048,0,1.447-0.578,2.508,0.049
		c0.048,0.049-0.337,0.289,0.964,0.096c0-0.047,1.833-0.047,3.086-0.479c0-0.049,4.773-1.062,6.365-1.784
		c-0.048,0,0.483-0.24,1.351-0.146c0.049,0,0.53-0.146,0.53-0.146s0.435-0.338,1.785-0.387c0.146,0,0.482-0.145,0.482-0.145
		l0.386-0.047l0.481-0.193c0,0,0.579-0.193,1.206-0.289c0.049,0,0.289-0.049,0.579-0.242c0.097,0.049,0-0.145,0.435-0.191
		c0.048,0,0.385,0.097,0.434-0.481c0-0.099-0.481-1.543,0.675-1.929c0.048,0,0.53-0.241,0.53-0.241l0.386,0.048
		c0,0,2.073,0.145,2.025,0.53c0,0.048,0.191,0.241,0,1.012l0.096,0.627c0,0,0.436,1.593-0.096,2.797c0.048,0,0,0.58-0.436,1.255
		c0,0.098,0.05,0.53,0.05,0.53l-0.05,0.435c0,0,0.241,0.145,0.098,0.819l-0.146,0.529c0,0-0.097,1.157-0.627,1.881
		c0,0.049-0.192,0.578-0.192,1.351l-0.146,0.434l-1.205,1.785l-0.241,0.385l-0.53,0.482l-0.097,0.338c0,0-0.723,0.289-0.723,1.014
		c-0.048,0,0,0.289-0.579,0.336c0-0.047-1.302,0.482-2.313,1.543c0-0.047-0.772,1.109-1.688,1.447c0-0.049-0.724,0.338-0.724,0.338
		s-1.93,0.916-3.423,1.447c-0.05,0.047-0.677,0.479-1.352,0.817c0-0.047-0.29,0.05-0.964,0.482c-0.097,0-0.579,0.192-0.916,0.577
		l-0.724,0.291l-0.579,0.435l-0.964,0.338c0,0-0.868,0.625-1.446,1.156c-0.048-0.05-2.604,0.723-4.871,2.846
		c-0.048,0.097-1.301,1.398-2.121,1.832c0.048-0.049-1.061,0.529-0.145,0.818c0.048,0,0.096-0.24,0.386,0.098
		c0.048,0.048,0.096,0.193,0.434,0.146c0,0.049,0.964,0,0.097,0.434c0-0.049-0.242-0.049-0.676,0.578
		c-0.048,0-0.29,0.531-1.397,0.242c0,0-0.192-0.193-1.157-0.146c-0.049,0-1.785,0-1.785,0s-0.481,0.097-0.192-0.387
		c0,0,0-0.674,0.819-0.771c0,0.049,0.964,0.049,1.062-0.289c0-0.049,0.337-0.482-0.627-0.435c-0.049,0-0.724-0.049-1.253,0.289
		c-0.034,0.035-0.133,0.131-0.337,0.338c-0.098,0-0.725,0.82-0.725,0.82l-0.241,0.289l-0.29,0.096c0,0-0.771,1.109-0.096,1.109
		c0.096,0.049,1.736,0.049,1.736,0.049s1.977-0.481,2.603-0.146c0.097,0.049,0.627,0.049,1.062,0.098
		c0,0.049,0.24,0.049,0.867-0.242c0.049,0.049,1.109-0.627,2.652-0.818c-0.048-0.049,2.652-0.098,2.652-0.098
		s0.434,0.049,0.771-0.529c0.048-0.049,1.832-1.785,3.616-2.074c0.048,0.049,0.53,0.049,1.254-0.819l0.096-0.336l0.965-0.628
		c0,0-0.049,0.386,0.627-0.241c0-0.047,0.868-0.724,0.868-0.724s0.723-0.819,1.688-1.205c0.048,0,2.507-0.819,3.857-2.073
		l0.481-0.24l3.955-0.819c0,0,1.832-0.24,2.458-0.338c0-0.048,1.206-0.048,1.206-0.048l0.434,0.048l0.53-0.24l1.062-0.099
		l0.24-0.288c0,0,3.521-3.904,8.006-6.365c0.048,0,0.288-0.047,0.867-0.385c0,0,6.269-2.46,8.534-3.617
		c0.048,0.049,4.484-2.072,7.378-7.088c0.098,0,4.146-7.909,6.848-8.487c0.289,0,2.988-0.868,9.064-0.482
		c-0.097,0,4.727,0.29,6.172-3.472c0,0.097,1.736-4.34,5.208-3.665c0.192,0.097,10.223,2.893,15.142,2.797
		c0.191,0.096,8.196,0.096,12.537-5.883C444.206,343.812,446.038,341.112,445.267,338.605L445.267,338.605z"/>
	<path fill="#FFFFFF" d="M277.097,360.777c0,0,1.206-0.48,0.675,0.387c0,0.049,0,0,0,0s-0.675,1.254-0.675,0.434
		C277.049,361.549,276.711,361.115,277.097,360.777L277.097,360.777z"/>
	<path fill="#FFFFFF" d="M289.779,349.543c0.337-0.627,0.096-1.543,0.096-1.543l-0.145-0.434c0,0-0.337-0.241-0.434-0.241
		c-0.482-0.482-0.868-0.048-0.868-0.048s-0.048-0.048,0,0c-0.723,0.627-1.688,0.675-1.688,0.675l-0.531,0.241
		c0,0-0.289,0.482-0.289,0.579c-0.193,0.435-0.723,0.82-0.723,0.82s-0.241,0.627-0.29,0.579c-0.29,0.29-0.579,0.82-0.579,0.82
		l-0.193,0.386c0,0-0.096,0.386-0.193,0.338c-0.434,0.289-0.579,0.964-0.579,0.964s0.097,0.241-1.013,1.205
		c-0.096,0.048-0.82,0.868-0.82,0.868l-0.53,0.579l-0.579,0.675l-0.53,0.772c0,0-1.157,1.398-1.302,1.784
		c-0.048,0-0.289,0.29-0.289,0.29l-0.337,0.53l-0.193,0.386l-0.337,0.338c0,0,0.193,0.145,0.964-0.241
		c0.048,0,0.289-0.097,0.289-0.097s0.53-0.53,0.579-1.206c0,0.048,0.337-0.386,0.337-0.386l0.434-0.192c0,0,2.314-2.315,2.796-2.99
		c0.049,0,0.386-0.193,0.386-0.579c0-0.048-0.241-0.579,0.386-0.771c0.048-0.048,2.073-0.964,2.073-0.964
		C288.862,352.147,289.827,349.447,289.779,349.543L289.779,349.543z"/>
	<path fill="#FFFFFF" d="M296.192,348.965c0,0-1.543,1.012-2.266,2.218c0,0.048-1.254,1.447,0.241,0.868
		c-0.048-0.048,0.145-0.145,0.772-0.192c0.048-0.048,0.289,0.096,0.868-0.724c0-0.048,0.724-1.205,0.724-1.205
		S298.073,348,296.192,348.965L296.192,348.965z"/>
	<path fill="#FFFFFF" d="M286.018,353.738c0,0,2.074,0.145,0.145,0.964c0.048-0.096-0.386,0.096-0.724,0.337
		c-0.048-0.048-0.482,0.338-0.482,0.338s-0.29-0.097-0.964,0.626c0.048-0.048-1.543,1.784-2.314,1.784
		c-0.048-0.048-1.109,0.193,0-0.482c-0.048,0,2.266-1.495,2.459-2.7C284.137,354.558,285.343,353.594,286.018,353.738
		L286.018,353.738z"/>
	<path fill="#FFFFFF" d="M353.557,380.732c0,0,0.387,0.289-1.156,0.916c0,0-0.29-0.24-0.676,0.242
		c-0.097-0.05-0.145-0.289-0.724,0.338c-0.048,0-0.674,0.867-1.591,0.963c0.048,0-1.446,0.192-2.074,0.869
		c0-0.05-0.675,0.578-1.495,1.35c-0.048-0.049-1.254,0.771-1.929,0.723c0-0.047-0.096,0.387-0.578,0.58
		c-0.049,0,0.289,0.191-0.483,0.578c0-0.049-1.302,1.592-4.772,1.254l-0.386,0.145l-0.097-0.58c0,0-0.145-0.096,0.579-0.528
		c0,0.049,0.482-0.578,1.157-0.82c0.048,0,1.302-0.817,1.302-0.817s0.146-0.146,0.771-0.242c0.096-0.049,0.627-0.193,1.206-0.674
		c-0.048,0-0.193-0.242,1.108-0.627c0.048,0,0.337-0.242,0.337-0.242s2.267-1.205,2.557-1.592c0.048-0.047,0.434-0.146,0.434-0.146
		l0.435-0.385c0,0,0.434-0.05,0.964-0.482c0,0,0.097-0.192,0.579-0.387c0-0.047,2.17-0.771,2.17-0.771s0-0.289,0.481-0.289
		C351.677,380.105,353.701,379.721,353.557,380.732L353.557,380.732z"/>
	<path fill="#FFFFFF" d="M354.714,379.721c0,0,1.013-0.145,0.771,0.578c0-0.049-0.29,0.145-0.29,0.145
		S354.136,380.83,354.714,379.721L354.714,379.721z"/>
</g>
</svg>
