<?xml version="1.0" encoding="utf-8"?>
<!-- Generator: Adobe Illustrator 16.0.0, SVG Export Plug-In . SVG Version: 6.00 Build 0)  -->
<!DOCTYPE svg PUBLIC "-//W3C//DTD SVG 1.1//EN" "http://www.w3.org/Graphics/SVG/1.1/DTD/svg11.dtd">
<svg version="1.1" id="Layer_1" xmlns="http://www.w3.org/2000/svg" xmlns:xlink="http://www.w3.org/1999/xlink" x="0px" y="0px"
	 width="218.011px" height="521.009px" viewBox="250.516 100.017 218.011 521.009"
	 enable-background="new 250.516 100.017 218.011 521.009" xml:space="preserve">
<g>
	<path fill="#ED1C24" d="M438.763,620.118c2.819-5.325,7.831-22.558-1.566-40.729c2.818-10.023-4.699-12.218-7.832-34.462
		c3.133-6.58,5.326-14.41,5.013-23.184c-0.625-7.832-6.267-11.592-9.398-17.544c-5.013-20.053-7.832-41.355-15.352-60.152
		c-2.507-9.086-8.771-16.919-13.159-25.378c-4.386-22.557-6.578-46.681-13.471-67.984c1.253-0.94,2.506-2.193,3.446-3.447
		c-4.699-19.11-11.593-46.994-21.617-55.453c2.506-9.399,6.266-20.364,7.519-28.823c4.387-5.953,9.399-12.531,19.11-16.918
		c5.013,13.785,7.207,31.017,10.026,44.801c6.265,13.784,15.037,26.003,17.544,38.536c-15.979,6.265-26.943,20.991-26.943,38.223
		c0,22.244,17.858,40.102,39.788,40.102c16.292-0.001,30.39-10.339,36.656-24.438l0.001,199.881
		C468.526,601.007,455.993,616.046,438.763,620.118L438.763,620.118z"/>
	<path fill="#2E3192" d="M420.012,620.713c-6.268-15.037-2.508-27.57-1.255-44.801c-1.564-7.833-2.817-15.664-4.073-23.185
		c-8.771-13.473-11.904-25.689-14.098-40.102c-16.604-14.725-36.029-27.57-49.188-43.548
		c-23.497-22.245-40.729-45.114-52.633-70.805c-4.073-0.312-8.145-0.627-12.531-0.627c-7.519-20.363-24.75-45.114-23.184-61.091
		c0.627-14.1,5.013-26.944,10.339-41.355c-4.698-0.94-9.085,0.626-14.098-2.193c-7.833-5.015-6.579-13.786-6.893-21.618
		c3.447-15.665,11.906-28.823,17.544-42.921c5.64-12.219,10.966-24.437,16.292-36.342c7.52-8.46,12.218-14.412,21.617-18.484
		c8.146-0.941,16.292,0.312,25.063-1.567c3.759-1.253,8.458-2.193,10.025-4.699c3.759-5.325,2.819-10.966,4.386-17.545
		c-5.014-2.819-4.386-17.23,1.253-22.244c0-10.025,4.072-23.497,12.532-26.943l-72.686-0.627c-20.99,0-37.909,16.918-37.909,37.91
		v445.191c0,20.989,16.918,37.908,37.909,37.908L420.012,620.713L420.012,620.713z M274.641,527.979h16.605l12.218,39.16v-39.16
		h15.039v65.479h-16.918l-12.531-39.163v39.163h-14.413V527.979L274.641,527.979z M321.009,527.979h19.425
		c25.377,0,18.798,30.702,9.399,31.329c14.099-1.565,15.978,34.149-6.893,34.149h-21.932V527.979L321.009,527.979z M336.047,538.63
		v14.726h3.761c6.266,0,6.266-14.725,0-14.725L336.047,538.63L336.047,538.63z M336.047,564.634v18.171h3.761
		c7.205,0,6.266-18.17,0-18.17L336.047,564.634L336.047,564.634z M371.764,527.979h20.052l11.591,65.479h-15.352l-1.253-11.593
		H376.15l-1.881,11.593h-15.037L371.764,527.979L371.764,527.979z M377.716,570.273h7.833l-4.073-32.584L377.716,570.273
		L377.716,570.273z"/>
	<path fill="#ED1C24" d="M386.982,101.652c10.652,10.024,17.231,24.438,7.205,41.982c6.268,4.072-4.698,11.278-7.205,16.917
		c-3.133,8.772-13.784,13.785-12.53,16.917c13.785,8.459,24.75,16.919,38.534,27.883c7.207,9.085,10.024,45.428,14.099,72.998
		c5.953,17.232,14.411,31.957,17.544,51.381c10.966,4.073,19.424,12.532,23.812,22.557l0.001-214.293
		c0-20.992-16.919-37.909-37.91-37.909L386.982,101.652L386.982,101.652z"/>
</g>
</svg>
