<?xml version="1.0" encoding="utf-8"?>
<!-- Generator: Adobe Illustrator 16.0.0, SVG Export Plug-In . SVG Version: 6.00 Build 0)  -->
<!DOCTYPE svg PUBLIC "-//W3C//DTD SVG 1.1//EN" "http://www.w3.org/Graphics/SVG/1.1/DTD/svg11.dtd">
<svg version="1.1" id="Layer_1" xmlns="http://www.w3.org/2000/svg" xmlns:xlink="http://www.w3.org/1999/xlink" x="0px" y="0px"
	 width="145.769px" height="56.03px" viewBox="327.116 271.983 145.769 56.03"
	 enable-background="new 327.116 271.983 145.769 56.03" xml:space="preserve">
<g>
	<path fill="#5C5B5B" d="M347.013,271.983h0.137l0.405,0.271v0.541l0.541,0.542v0.406c-0.182,0.361-0.271,0.587-0.271,0.677
		c0,0.181-0.046,0.451-0.136,0.812h0.136v0.136l-0.271,0.271v0.541c-0.092,0.182-0.136,0.316-0.136,0.406
		c-0.046,0.091-0.091,0.203-0.135,0.338c-0.046,0.136-0.08,0.238-0.104,0.306c-0.022,0.067-0.032,0.124-0.032,0.169l-0.137,0.947
		l-0.135,0.271c0,0.045-0.013,0.135-0.035,0.271c-0.021,0.135-0.057,0.338-0.101,0.608c-0.046,0.271-0.091,0.565-0.135,0.88v0.406
		h0.135l-0.272,0.541v0.542c0,0.632-0.044,1.038-0.135,1.219l-0.136,0.406l-0.136,2.571l-0.406,1.759v0.406l-0.136,0.135v0.947
		c0,0.046-0.021,0.113-0.066,0.203c-0.046,0.092-0.068,0.159-0.068,0.203c-0.09,0.451-0.136,0.722-0.136,0.812
		c0,0.181,0.046,0.316,0.136,0.406l-0.271,0.541l0.135,0.541l-0.135,0.542v0.405l-0.137,1.354l-0.271,0.677v1.623l-0.135,0.677
		l0.135,1.219l-0.271,2.843l0.137,1.896l-0.137,0.676h0.137v0.947v8.526l0.271,3.521l-0.136,0.676c0,0.406,0.136,0.947,0.406,1.624
		c0.045,0.092,0.089,0.203,0.135,0.34c0.046,0.135,0.09,0.247,0.136,0.338l-0.541,0.541v1.082h-0.541
		c-0.405,0-0.993-0.225-1.76-0.676l-0.136-0.271l-0.135-0.404l-0.406-0.406l-0.676-1.896h-0.137
		c-0.181-0.359-0.271-0.721-0.271-1.082l-0.135-0.406v-0.405l-0.271-0.405l-0.136-0.271l-0.677-2.572h-0.136l-0.136-0.406v-0.404
		l-0.541-1.219c0-0.271-0.046-0.496-0.136-0.678v-0.541l-0.136,0.137v-0.543l-0.271-1.082l-0.271-1.217l-0.136-0.271v-0.678
		l-0.271-0.541l0.135-0.271h-0.135l-0.271-0.812l-0.135-0.541v-0.406l-0.136-0.541l-0.271-1.083v-2.03l-0.405-1.625
		c-0.091-0.18-0.136-0.495-0.136-0.947l-0.947-5.685H335.1v0.542c0,0.541,0,1.049,0,1.522c0,0.473-0.011,0.869-0.032,1.185
		c-0.023,0.315-0.046,0.599-0.067,0.846c-0.024,0.248-0.035,0.439-0.035,0.575v0.203c-0.182,0.541-0.271,1.038-0.271,1.488v0.812
		v0.812v1.218l-0.271,1.487v1.22v0.405l-0.136,0.541l0.136,0.137v1.624c-0.182,0.271-0.271,0.587-0.271,0.948v0.676l-0.137,0.406
		v0.406v0.404l-0.271,0.406v1.624c0,0.271-0.046,0.497-0.136,0.678c-0.092,0-0.136,0.136-0.136,0.405h-0.136v1.895h-0.135
		l-0.271,2.707L332.528,318v0.136v0.541c0,0.181-0.045,0.362-0.136,0.542h-0.136v0.948c-0.046,0.09-0.091,0.202-0.136,0.338
		s-0.091,0.249-0.135,0.339l-0.133,1.082c-0.271,1.128-0.588,1.985-0.947,2.572l-0.136,0.135c-0.541,0.18-0.857,0.271-0.946,0.271
		c-0.183,0-0.316-0.047-0.408-0.137l-0.405-0.136l-0.136-0.405l-0.135-0.136c-0.271-0.541-0.406-0.991-0.406-1.354l-0.135-0.946
		l-0.136-0.541l-0.541-2.843l-0.406-2.165l0.271-0.406l0.271-0.135l0.406,0.271c0,0.045,0.021,0.112,0.067,0.202
		c0.045,0.091,0.067,0.158,0.067,0.203c0.271,0.406,0.406,0.724,0.406,0.947l0.135,0.54l0.271,0.543l0.136,0.404l0.271,0.678h0.272
		l0.135-0.137l0.542-2.3h0.135v-0.542l0.271-0.271l0.271-2.707l0.677-2.843l0.136-1.082l0.271-1.625l0.135-1.895l0.406-1.488v-0.947
		l0.135-0.135v-0.406l-0.135-0.271v-0.136c0-0.045,0.021-0.146,0.067-0.306c0.044-0.157,0.066-0.28,0.066-0.371
		c0-0.045,0.022-0.112,0.068-0.203c0.044-0.09,0.066-0.158,0.066-0.203H332.8v-0.137h0.136l0.137-1.622v-0.406v-0.677
		c0.089-0.091,0.135-0.271,0.135-0.542h0.136l-0.136-0.406l0.136-0.135v-0.406v-0.947l0.136-1.218v-0.406v-0.948l0.136-0.405v-0.406
		l0.135-1.624l-0.135-0.812l0.135-1.219l0.271-2.977l0.271-1.761l-0.271-0.947l0.136-0.812v-0.541v-0.136v-0.136
		c-0.091-0.091-0.136-0.18-0.136-0.271c-0.136-0.406-0.271-1.219-0.405-2.437c0-0.09-0.046-0.225-0.136-0.406h0.136v-0.135
		c-0.091-0.271-0.136-0.586-0.136-0.947c0-0.271,0.045-0.541,0.136-0.812c0-0.044-0.023-0.112-0.067-0.203
		c-0.046-0.09-0.067-0.157-0.067-0.203c-0.092-0.271-0.136-0.585-0.136-0.947c0-0.179,0.044-0.314,0.136-0.405l0.271-0.407v-0.947
		l0.136-0.271h0.406l0.541,0.271l0.947,0.271l0.136,0.136l0.136,0.406l0.135,1.353l0.406,1.354v0.676v0.136v0.406h0.135l0.812,6.09
		v0.271v0.406c0.091,0.092,0.135,0.271,0.135,0.542v0.406l0.271,1.759l0.407,1.625l0.136,1.895l0.27,0.947v0.677v0.541l0.407,0.948
		l0.135,0.947l0.405,1.624v0.271v0.677h0.136l0.136,0.812h0.137l0.135,1.218c0.313,0.586,0.541,1.309,0.676,2.165l0.271,0.948
		l0.136,0.405v0.271c0.271,1.174,0.495,1.939,0.677,2.301c0.089,0.271,0.179,0.586,0.271,0.947h0.135v-0.678l0.271-1.623v-2.165
		l0.136-0.812v-0.271c0-0.044-0.023-0.111-0.067-0.203c-0.046-0.09-0.066-0.156-0.066-0.201l0.135-0.678l0.136-1.083l0.135-1.624
		v-0.406l-0.135-0.136c0.09-0.179,0.135-0.314,0.135-0.406c0.045-0.225,0.09-0.45,0.136-0.676c0.045-0.226,0.079-0.395,0.104-0.508
		c0.021-0.112,0.032-0.214,0.032-0.305c-0.091-0.09-0.136-0.225-0.136-0.405l0.136-0.812l0.136-1.625
		c0-0.179,0.044-0.45,0.136-0.812v-0.542c0.09-0.09,0.136-0.225,0.136-0.405v-1.489c0-0.179,0.045-0.314,0.136-0.405v-0.406
		c0.09-0.09,0.136-0.225,0.136-0.406c0-0.271-0.046-0.45-0.136-0.541l0.271-0.947l-0.135-0.406l0.271-0.542v-0.406v-0.812
		l0.271-1.218l0.136-0.406l0.135-0.541v-0.542l0.137-0.405v-0.542v-0.406l0.676-3.112l0.271-2.437c0-0.045,0.012-0.136,0.034-0.271
		c0.022-0.136,0.058-0.327,0.102-0.575c0.046-0.248,0.092-0.508,0.136-0.778l0.407-1.219L347.013,271.983z M365.961,292.15
		l0.406,0.135l0.541,0.271l0.136,0.541c0,0.812,0.09,1.58,0.271,2.302c0.18,1.083,0.271,1.669,0.271,1.759l-0.136,4.195l0.136,1.082
		l-0.136,0.678l0.136,0.541l0.271-1.488h0.136l0.541-1.895c0-0.271,0.045-0.405,0.136-0.405c0-0.271,0.09-0.631,0.271-1.083
		c0.271-0.45,0.405-0.992,0.405-1.624v-0.136l0.677-1.759c0.182-0.542,0.315-0.902,0.406-1.083l0.541-0.136l0.271,0.271l0.135,0.812
		l-0.135,0.135v0.812l-0.137,0.812l-0.135,1.083v0.271v0.136v0.406l-0.271,0.677l0.271,2.165l-0.136,3.79l0.136,1.354v0.677
		l0.271,0.946l0.135-0.541l0.136-0.541l0.271-1.084l0.271-0.812l0.136-1.083l0.271-0.676l0.676-3.52l0.136-0.541
		c0.045-0.226,0.226-0.903,0.541-2.031c0.541-1.353,0.812-2.255,0.812-2.706v-0.406c0.136-0.542,0.406-0.856,0.812-0.948
		l0.406,0.137l0.271,0.27l-0.271,1.489v0.136v0.271v0.136l0.136,0.676c-0.092,0.182-0.136,0.406-0.136,0.677v0.947l0.136,0.271
		l-0.271,0.812l0.136,0.948v3.654c0.09,0.182,0.136,0.361,0.136,0.541v0.406c0,0.182-0.046,0.316-0.136,0.406l0.136,0.541
		l0.136,1.354v1.624c0,0.271,0.044,0.498,0.136,0.677c0,0.182,0.044,0.362,0.135,0.541v0.678l0.406,1.084l0.135,1.353h0.136
		l0.271-0.271l0.136-0.541v-0.406l0.135-0.405c0.181-0.362,0.271-0.678,0.271-0.948v-0.406l0.135-0.946v-0.946l0.271-1.762
		l0.271-2.57l0.271-0.947l0.271-1.084l0.542-1.624v-0.406h0.135l0.406-1.353l0.407-0.407l0.677-1.488l0.406-0.541l0.406-0.541h0.135
		l0.136-0.271h0.136c0.36-0.36,0.767-0.586,1.219-0.677v-0.135c0.135,0,0.28-0.023,0.438-0.067c0.159-0.046,0.281-0.068,0.373-0.068
		c0.044,0,0.271,0.136,0.677,0.406l0.136-0.136l0.405-0.271l0.678,0.136l0.271,0.947l-0.135,0.677l-0.271,0.947v2.03l-0.271,2.707
		v0.947v1.624l0.136,2.302c0.18,1.443,0.271,2.256,0.271,2.437c0.09,0.092,0.136,0.228,0.136,0.405v0.541l0.135,0.406l0.406-0.271
		v-0.541l0.271-0.271c0-0.045,0.022-0.113,0.068-0.205c0.045-0.089,0.067-0.156,0.067-0.201l0.136-1.219l0.271-0.677l0.137-0.542
		l0.271-0.947c0-0.359,0.091-0.722,0.271-1.082c0.091-0.091,0.136-0.227,0.136-0.406c0-0.271,0.045-0.496,0.137-0.676l0.677-2.709
		c0.136-0.677,0.136-2.12,0-4.331c0-0.135,0.021-0.326,0.067-0.575c0.044-0.248,0.067-0.417,0.067-0.508l0.405-0.946
		c0-0.181,0.09-0.407,0.271-0.678l0.271-0.541l0.271-0.136c0.271,0.136,0.449,0.316,0.541,0.541l0.405,2.572l0.136,0.677
		c-0.091,0.451-0.136,1.038-0.136,1.76v0.541l0.136,2.03l-0.136,1.082l0.136,0.948l-0.136,0.677l0.136,0.541v0.678l0.136,1.217
		v1.761v0.136c0,0.361,0.044,0.723,0.135,1.083h0.137l0.271-0.136l0.271-1.354c0.315-0.587,0.587-1.309,0.812-2.166v-0.406
		l0.135-0.405l0.271-0.541c0.09-0.181,0.225-0.586,0.404-1.218c0-0.18,0.022-0.36,0.068-0.543l0.067-0.271l0.271-1.082l0.541-2.03
		l0.541-1.896v-0.406l0.677-2.3l0.406-0.271l0.543-0.135c0.271,0.361,0.405,0.856,0.405,1.488v0.271l-0.135,2.165v0.812
		c0,0.903-0.092,2.211-0.271,3.926v0.541l-0.136,2.707l0.136,0.405v0.407c0,2.436,0.271,4.195,0.812,5.277h0.136
		c0.36-0.496,0.541-1.127,0.541-1.896h0.136l0.135-0.406v-0.271c0-0.09,0.033-0.236,0.103-0.439
		c0.066-0.203,0.124-0.416,0.169-0.643l0.542-0.137l0.27,0.137v0.135l0.271,0.271l-0.136,0.676l-0.271,0.946l-0.135,0.813
		c-0.183,0.271-0.271,0.541-0.271,0.812v0.271v0.137h-0.135l-0.136,0.541c-0.361,0.497-0.541,1.128-0.541,1.895l-0.406,0.678
		l-0.135,0.271h-0.136l-0.406,0.812l-0.676,0.678h-0.408l-0.271-0.137l-0.812-0.946v-0.677h-0.134l-0.271-1.354v-0.541
		c-0.271-1.487-0.406-2.346-0.406-2.571c-0.092-0.18-0.135-0.36-0.135-0.541c-0.092-0.09-0.136-0.226-0.136-0.406v-0.271v-0.541
		v-0.812h0.136v-2.437h-0.271v0.135v0.405c-0.136,1.175-0.271,1.941-0.405,2.302c-0.092,0.092-0.136,0.183-0.136,0.271l-0.137,0.947
		c-0.36,0.587-0.54,1.129-0.54,1.625l-0.405,0.812v0.541l-0.678,1.761l-0.271,1.217l-0.812,1.084l-0.677,0.135h-0.135l-0.406-0.541
		l-0.271-0.678v-0.404l-0.137-0.137v-0.405c-0.181-0.542-0.314-0.991-0.404-1.354l0.135-0.136v-0.271l-0.135-0.812l0.135-1.488
		v-0.271l-0.135-0.812v-0.406c0-0.631,0.09-1.803,0.271-3.519v-0.405h-0.136v0.135l-0.406,1.084h0.136l-0.136,0.135v0.406
		l-0.271,0.404l-0.541,2.438l-0.271,0.948l-0.135,0.54v0.406h-0.136v0.406c-0.227,0.451-0.452,1.174-0.678,2.164
		c-0.092,0.092-0.136,0.229-0.136,0.406c-0.406,1.174-0.812,1.76-1.218,1.76c-0.315,0-0.587-0.18-0.812-0.541l-0.271-0.812
		l-0.271-1.76l-0.404-0.135l-1.083,1.76l-0.541,0.947l-0.136,0.137c-0.405,0.541-0.769,0.812-1.082,0.812
		c-0.182,0-0.362-0.089-0.541-0.271l-0.543-0.406l-0.271-0.405l-0.542-0.812v-0.408l-0.271-0.404l-0.406-1.219
		c-0.271,0.904-0.587,1.535-0.947,1.896h0.136c-0.271,0.406-0.405,0.677-0.405,0.812l-0.271,0.406l-0.136,0.405h-0.135l-0.271,0.271
		c-0.406-0.09-0.666-0.19-0.779-0.305c-0.11-0.113-0.214-0.371-0.304-0.777c-0.091-0.092-0.135-0.227-0.135-0.405h-0.136
		c-0.541-0.903-0.812-1.851-0.812-2.843v-0.137c-0.181-0.451-0.271-0.946-0.271-1.487c-0.092-0.722-0.136-1.31-0.136-1.761
		c0-0.09-0.046-0.225-0.136-0.405v-0.136V308.8l-0.136-0.812c0-0.09-0.023-0.19-0.067-0.305c-0.046-0.113-0.067-0.191-0.067-0.236
		v-0.271v-0.812v-0.135h-0.136l-0.136,0.541l-0.677,2.572l-0.136,0.947l-0.136,0.812v0.404l-0.136,0.271l-0.135,0.947l-0.138,0.812
		v0.541v0.405l-0.271,1.354l0.136,0.136v0.405h-0.136l-0.271,0.677h-0.406l-0.405-0.135l-1.083-0.812l-0.271-1.084v-0.406v-0.404
		l-0.271-1.489l-0.271-0.54v-0.406v-0.405h-0.137c0.091-0.271,0.137-0.632,0.137-1.083v-0.678c-0.046-0.359-0.093-0.688-0.137-0.98
		c-0.045-0.292-0.077-0.508-0.101-0.643c-0.023-0.137-0.034-0.226-0.034-0.271v-0.136v-0.54v-0.407h-0.136l-0.136,0.407v0.404
		c0,0.045-0.023,0.112-0.067,0.203c-0.046,0.092-0.068,0.158-0.068,0.203c-0.046,0.227-0.091,0.451-0.135,0.678
		c-0.046,0.227-0.079,0.384-0.103,0.474c-0.022,0.091-0.033,0.159-0.033,0.203l-0.271,0.812c-0.182,0.362-0.271,0.903-0.271,1.625
		l-0.542,1.354l0.136,0.136l-0.136,0.541l-0.135,1.489l-0.271,0.947l-0.406,0.812l-0.136,0.405l-0.406,0.136
		c-0.496,0.362-0.856,0.541-1.083,0.541c-0.091,0-0.314-0.089-0.678-0.271v-0.137l-0.135-0.135l0.135-0.542l0.272-1.353v-0.408
		c0.044-0.088,0.077-0.168,0.101-0.235c0.022-0.067,0.078-0.213,0.17-0.44c0.09-0.225,0.181-0.494,0.271-0.812l-0.137-0.271
		c0.227-0.901,0.406-2.256,0.542-4.062v-1.896l0.271-2.166l-0.136-0.946c0.091-0.091,0.136-0.226,0.136-0.406
		c0.09-0.271,0.136-0.541,0.136-0.812v-0.135h0.135l-0.135-0.812c0-0.09,0.022-0.213,0.067-0.372
		c0.044-0.158,0.066-0.259,0.066-0.306c0-1.037-0.135-1.759-0.405-2.165h-0.136v0.271c-0.046,0.181-0.136,0.676-0.271,1.488
		c0,0.091-0.024,0.192-0.068,0.305c-0.046,0.113-0.066,0.192-0.066,0.237c-0.271,0.676-0.406,1.037-0.406,1.083v0.676l-0.271,0.542
		l-0.406,1.895c0,0.271-0.045,0.498-0.137,0.678c-0.09,0.271-0.136,0.677-0.136,1.219v0.541l-0.541,1.083
		c-0.359,1.217-0.541,1.938-0.541,2.165v0.136h-0.271l-0.678,2.302h-0.136v0.404l-0.135,0.405h-0.136l-0.137,0.405l-0.54,0.949
		c-0.405,0.812-0.857,1.217-1.354,1.217c-0.361,0-0.7-0.123-1.015-0.371c-0.316-0.248-0.475-0.575-0.475-0.981l-0.135-0.812
		l-0.136-0.812c-0.091-0.09-0.136-0.271-0.136-0.541v-0.947l-0.271-0.541l-0.136,0.137l-0.271,0.406l-0.135,0.541l-0.271,0.135
		l-0.271,0.947c-0.362,0.271-0.587,0.678-0.679,1.219h-0.135v0.271l-0.406,0.541l-0.406,0.406c-0.451,0.451-0.903,0.676-1.354,0.676
		c-0.633,0-1.175-0.314-1.623-0.947h-0.137c0-0.045-0.022-0.111-0.066-0.201c-0.046-0.09-0.068-0.157-0.068-0.203
		c-0.181-0.271-0.314-0.451-0.405-0.541c-0.092-0.092-0.136-0.182-0.136-0.271l-0.135-0.135l-0.271-0.406l-0.404-0.137
		c-0.229,0.588-0.542,1.039-0.947,1.354l-0.136,0.137l-0.406,0.676l-0.271,0.271l-0.271,0.27c-0.045,0.047-0.091,0.113-0.135,0.204
		c-0.046,0.091-0.093,0.157-0.137,0.202c-0.091,0.092-0.181,0.227-0.271,0.406l-0.677-0.137v-0.135l-0.136-0.137l0.541-0.812
		l0.136-0.135l0.544-0.947v-0.136l0.812-0.678c0.181-0.18,0.271-0.313,0.271-0.405c0.271-0.496,0.496-0.812,0.677-0.947l0.136-0.405
		l-0.136-0.136h-0.135v-0.136l-0.137-0.406v-0.676l-0.405-0.947v-0.542v-0.136v-0.406l-0.136-2.164l0.271-1.625v-0.812l0.136-0.678
		l-0.136-0.135l0.136-0.406l0.676-3.248v-0.405V300c0.496-1.714,1.037-3.067,1.624-4.061h0.137v-0.135
		c0.721-0.992,1.759-1.489,3.111-1.489l0.406,0.136v0.136l0.135,0.135c0.633,0.812,0.949,2.03,0.949,3.654
		c0,0.271-0.091,1.129-0.271,2.571c-0.091,0.677-0.226,1.174-0.406,1.488l-0.271,1.625c-0.136,0.226-0.271,0.586-0.405,1.082
		l-0.406,1.488h-0.133l-0.271,0.948l-0.271,0.677v0.135l-0.541,0.947h-0.136l-0.136,0.678h-0.135
		c-0.542,0.768-0.812,1.397-0.812,1.896v0.405v0.406c0.136,0.586,0.314,1.082,0.541,1.487l0.137,0.406v0.271h0.136v0.135h0.135
		l0.136,0.272h0.136v0.136l0.405,0.541l0.271-0.136l0.136-0.407h0.136l0.136-0.541h0.136l0.812-1.76l0.137-0.404l0.135-0.271
		l0.543-1.083h0.136l0.812-2.302l0.271-0.541h0.136v-1.488c0.181-0.633,0.314-1.625,0.406-2.979v-0.136l0.271-1.083v-1.083
		l0.136-0.541v-0.271l0.271-1.488v-0.677c0-0.045,0.022-0.112,0.067-0.203c0.044-0.09,0.067-0.158,0.067-0.203
		s0.021-0.124,0.067-0.237c0.044-0.111,0.067-0.213,0.067-0.305l-0.136-0.676l0.542-1.354v-0.541l0.271-0.271l0.406-0.136
		l0.677-0.677l0.271-0.136l0.541,0.271c0.09,0.271,0.136,0.496,0.136,0.677v0.405l-0.136,0.406h0.136
		c0.271,0.541,0.406,0.903,0.406,1.083c0,0.091-0.047,0.135-0.137,0.135l-0.271,1.489v0.542l-0.136,0.676l-0.136,0.677l-0.136,0.405
		v0.137v0.406l-0.136,1.488l-0.271,1.082v3.249l-0.271,1.488v0.812l-0.136,0.947l0.136,1.083l-0.136,0.541l0.271,0.677v0.137h0.135
		l0.271-0.543h0.136l0.271-1.217l0.271-0.543l0.677-2.301l0.271-1.083c0.182-0.45,0.359-1.218,0.542-2.301
		c0.045-0.181,0.089-0.405,0.135-0.677c0.046-0.271,0.079-0.475,0.103-0.608c0.021-0.135,0.032-0.248,0.032-0.338
		c0.046-0.045,0.137-0.271,0.271-0.677l0.541-1.489v-0.406c0.091-0.812,0.271-1.578,0.543-2.3l-0.138-0.271l0.406-0.947l1.354-4.062
		h0.135C365.464,292.918,365.645,292.602,365.961,292.15z M353.374,295.939l-0.271,0.136l-0.405,0.541h-0.136
		c0,0.181-0.046,0.316-0.136,0.405c0,0.046-0.022,0.125-0.066,0.237c-0.046,0.113-0.068,0.215-0.068,0.305
		c-0.541,1.624-0.812,2.527-0.812,2.707v0.541l-0.404,1.219v0.812l-0.406,2.03l0.136,1.759l-0.136,0.271v0.406v1.625h0.271
		c0.271-0.541,0.405-0.856,0.405-0.947l0.271-0.678l0.136-0.406v-0.541c0.314-0.405,0.541-1.037,0.677-1.896h0.136
		c0.09-0.36,0.136-0.721,0.136-1.082h0.136l0.541-2.166l-0.135-0.136l0.271-1.218h0.136v-0.812v-0.134v-0.406v-0.136v-1.76v-0.135
		l-0.136-0.542h-0.139V295.939z M361.359,287.684l0.405,0.812h0.137c0.181,0.361,0.271,0.722,0.271,1.082
		c0,0.407-0.226,0.723-0.677,0.948h-0.136l-0.405,0.947c-0.182,0.182-0.452,0.271-0.812,0.271c-0.405,0-0.723-0.18-0.946-0.541
		l-0.271-1.625l0.406-0.947l-0.136-0.677c0.313-0.449,0.631-0.676,0.946-0.676h0.136L361.359,287.684z M383.962,295.669
		l-0.271,0.136c-0.541,0.451-0.947,1.083-1.219,1.895l-0.271,0.812l-0.406,0.677l0.135,0.406c-0.722,2.436-1.082,4.963-1.082,7.579
		c0,0.092,0.021,0.169,0.067,0.236c0.044,0.068,0.068,0.125,0.068,0.17l0.135,0.812v0.812l0.136,0.946v0.406l0.271,0.406
		c0,0.947,0.18,1.669,0.541,2.165l0.541-0.136l0.271-0.271l0.136-0.406l0.405-0.271c0.18-0.36,0.271-0.586,0.271-0.676v-0.271
		c-0.047-0.36-0.093-0.699-0.137-1.017c-0.046-0.313-0.081-0.552-0.103-0.71c-0.022-0.157-0.033-0.259-0.033-0.305
		c0.09-0.36,0.136-0.631,0.136-0.812c0-0.181-0.046-0.316-0.136-0.406v-0.404v-0.137v-0.677c-0.091-0.36-0.136-0.721-0.136-1.083
		v-0.812l0.271-1.894v-0.542l0.271-0.406l-0.135-0.677c0.089-0.179,0.135-0.36,0.135-0.54l0.271-1.083
		c0-0.045-0.022-0.123-0.066-0.236c-0.046-0.112-0.067-0.214-0.067-0.305l0.405-1.896l0.271-0.947l-0.405-0.541L383.962,295.669
		L383.962,295.669z"/>
	<path fill="#5C5B5B" d="M407.783,273.607l0.541,0.271l0.137,0.405l0.406,1.083v1.624l0.135,0.136l-0.135,0.541l0.135,0.541
		l0.135,0.541l0.136,3.113l0.405,1.76v1.488l0.271,0.542c0,0.091,0.043,0.181,0.135,0.271v1.354l0.271,0.677v1.082l0.135,0.136
		c0,0.271,0.045,0.451,0.135,0.541c0,0.406,0.023,0.892,0.068,1.455c0.043,0.564,0.065,0.938,0.065,1.116v0.541l0.138,0.136v0.677
		l0.271,2.301v1.219l0.271,0.676v0.678l0.405,3.247l0.271,0.136v-0.541l0.137-0.677c0-0.18,0.045-0.314,0.135-0.406
		c0.183-0.36,0.271-0.812,0.271-1.353v-0.406c0.227-0.361,0.406-0.948,0.541-1.761l0.135-0.541v-0.405l0.273-0.406v-0.271
		c0.088-0.451,0.135-0.857,0.135-1.22c0.18-0.449,0.271-0.812,0.271-1.082l0.136-1.488l0.135-0.541l0.135-0.542h0.137l0.136-0.948
		h0.137v-0.812c0.358-0.721,0.541-1.263,0.541-1.624c0-0.271-0.045-0.45-0.135-0.541l0.135-0.406v-0.136v-0.406l0.27-0.271v-0.54
		v-0.812l0.406-0.677l0.135-1.083l0.543-1.488l0.136-0.677h-0.136v-0.812h0.136v-0.405v-0.136v-0.541l0.271-0.542v-0.406
		l0.812-0.136l0.271,0.136c0.271,0.406,0.406,0.768,0.406,1.083v0.406l-0.271,1.488v1.896c0,0.045-0.022,0.112-0.065,0.203
		c-0.047,0.091-0.068,0.158-0.068,0.203c-0.092,0.091-0.137,0.271-0.137,0.541v0.271l0.137,0.406v0.271v1.488l-0.137,0.406h0.137
		v0.271l-0.137,1.083l0.137,0.947l-0.137,0.136v0.947l0.137,0.541l-0.406,0.812l0.271,0.541l-0.135,0.947l0.271,0.812
		c-0.092,0.361-0.137,0.677-0.137,0.947v0.135v0.543l0.137,2.436l0.135,0.947l-0.135,0.812l0.27,0.947l-0.135,0.947v0.406
		l0.271,0.947l-0.136,0.541l0.136,0.406v0.947l0.137,0.677c0.09,0.091,0.135,0.271,0.135,0.54v0.406h0.136v0.406
		c0.092,0.541,0.137,1.038,0.137,1.489c0,0.181-0.045,0.36-0.137,0.541v0.405l0.137,0.271v0.676l0.135,0.137l-0.135,0.812
		c0.18,0.361,0.27,0.769,0.27,1.218v0.406l0.138,0.542v0.406c0,0.271,0.043,0.405,0.135,0.405c0,0.181,0.045,0.315,0.135,0.404
		v0.137l0.406,0.136l0.135-0.271l0.678-3.113h0.271c0.271,0.361,0.406,1.175,0.406,2.437v0.138c0,0.18-0.046,0.36-0.136,0.539
		l-0.405,2.438c0,0.406-0.181,0.902-0.541,1.488l-0.136,0.406l-0.271,0.812l-0.271,0.541c-0.135,0.993-0.496,1.489-1.082,1.489
		c-0.271,0-0.496-0.045-0.676-0.137l-0.271-0.271v-0.405l-0.271-0.406l-0.678-1.896l-0.271-1.759v-0.678l-0.405-2.707v-0.541
		l-0.138-1.354v-0.947l-0.27-0.948l0.135-0.271v-0.541l-0.135-0.406v-0.677c-0.182-1.083-0.271-1.85-0.271-2.301l0.138-4.872
		l-0.138-0.947v-0.678v-2.571l-0.135-0.406l0.135-1.218v-0.137h-0.14l-0.135,0.271l-0.135,0.542
		c-0.093,0.181-0.138,0.541-0.138,1.083v0.541h-0.135l-1.082,7.038h-0.137c0,0.812-0.093,1.444-0.271,1.896
		c0,0.181-0.022,0.361-0.067,0.541l-0.068,0.271v0.677l-0.135,0.543l-0.271,0.946v0.136v0.405v0.406l-0.135,0.136v0.406
		l-0.271,1.082c0,0.181,0.048,0.316,0.138,0.406l-0.271,0.406v0.541l-0.271,1.354l-0.135,0.271v0.404v0.542l0.135,0.271
		l-0.271,0.406v0.542v0.406l-0.271,0.946c0,0.451-0.045,0.857-0.135,1.219c0,0.812-0.271,1.218-0.812,1.218
		c-0.27,0-0.541-0.09-0.812-0.271c0-0.36-0.023-0.698-0.066-1.016c-0.045-0.313-0.068-0.518-0.068-0.609l-0.135-0.812l-0.135-1.625
		c0-0.448-0.047-0.991-0.137-1.624c-0.091-0.359-0.136-0.945-0.136-1.759l-0.135-0.677l-0.135-0.812l0.135-1.083l-0.135-0.676
		v-1.083l-0.271-1.488l-0.135-2.979v-0.406v-0.404l-0.271-4.738h-0.136v-2.436l0.136-0.542l-0.136-0.271v-0.406l-0.137-1.895
		l-0.135-0.542l-0.135,0.271v0.406l-0.138,0.812l-0.27,1.896v0.271v0.271v0.271l-0.136,0.136v0.812l-0.137,0.542h-0.135v0.406h0.135
		v0.405l-0.135,0.406v0.678c-0.045,0.135-0.08,0.304-0.102,0.508c-0.023,0.202-0.048,0.485-0.068,0.846
		c-0.023,0.361-0.057,0.676-0.103,0.945c0,0.812-0.09,1.58-0.27,2.303c0,0.09-0.023,0.191-0.068,0.304
		c-0.045,0.114-0.067,0.192-0.067,0.237v0.541v0.135l-0.271,0.678l0.136,0.541l-0.136,0.541c0,0.182-0.022,0.385-0.067,0.609
		c-0.045,0.227-0.066,0.383-0.066,0.475c-0.092,0.271-0.182,0.631-0.271,1.082c-0.093,0.092-0.136,0.228-0.136,0.405l0.136,0.406
		l-0.271,1.218l-0.135,1.759l-0.137,0.407v0.405v0.812c-0.046,0.092-0.091,0.203-0.136,0.338c-0.045,0.137-0.078,0.237-0.102,0.305
		c-0.024,0.068-0.033,0.125-0.033,0.17v0.406v0.405l-0.137,0.406c-0.09,0.36-0.135,0.767-0.135,1.218v0.271l-0.136,0.406
		l-0.946,4.33v0.541c0,0.361-0.136,0.812-0.406,1.354l-0.271,1.487l-0.27,0.949l-0.676,0.812v0.136l-0.813,0.542h-0.406
		c-0.18,0-0.358-0.046-0.541-0.136v-0.137h-0.136v-0.135h-0.135l-0.271-0.541l-0.405-1.488v-0.137l-0.271-0.404v-0.406
		c-0.044-0.137-0.09-0.372-0.136-0.711c-0.044-0.339-0.09-0.553-0.135-0.645l-0.271-0.812l-0.271-0.406l-0.136-0.405v-0.678
		l-0.136-0.135v-0.137v-0.135c0-0.633,0.271-1.219,0.812-1.761l0.271,0.136v0.137h0.136l0.136,0.406h0.136v0.405
		c0.181,0.541,0.271,0.856,0.271,0.947h0.137v0.271h0.136l0.135,0.406l0.136,0.271l0.406,0.136c0.361-0.093,0.585-0.315,0.676-0.677
		l0.136-0.812l0.135-0.406c0.09-0.271,0.137-0.496,0.137-0.678c0.09-0.271,0.135-0.496,0.135-0.677l0.271-1.218l0.27-1.354
		c0-0.045,0.023-0.125,0.068-0.236c0.045-0.112,0.068-0.215,0.068-0.306l0.27-0.542v-0.541l0.271-1.895l0.27-1.76l0.271-0.812
		v-0.271c0-0.271-0.046-0.496-0.136-0.677c0.359-0.495,0.541-0.856,0.541-1.083c0-0.089-0.047-0.271-0.137-0.541v-0.404l0.271-0.407
		l0.135-0.812l0.406-0.677l-0.136-0.812c0.271-0.451,0.406-0.812,0.406-1.082v-1.354l0.27-1.488v-0.812v-0.271l0.138-0.135
		l-0.138-0.406l0.408-1.489v-0.677l0.271-0.947l0.271-3.384l0.271-0.812l0.271-2.706v-0.271v-0.136v-0.271
		c0-0.09,0.09-0.496,0.271-1.218v-0.541c0.18-0.632,0.271-1.397,0.271-2.301v-0.406h0.135v-0.271l-0.135-0.136v-0.812l-0.135-1.22
		l-0.137-1.082v-0.406v-0.405v-1.624l-0.271-1.083v-0.677c0-0.45,0.043-0.812,0.135-1.083h0.136
		c0.227-0.812,0.496-1.218,0.812-1.218h0.273V273.607z M434.582,292.826l0.678,0.271l0.271,0.406v0.812
		c0,0.902,0.135,1.58,0.405,2.03l0.677-0.271v-0.136l0.812-0.406l0.541-0.676c0.451-0.451,0.902-0.767,1.354-0.948l0.271,0.136
		c0.045,0.136,0.226,0.271,0.543,0.406l0.404,0.406l0.137-0.136l0.135,0.136v0.136l0.271,0.54l-0.676,1.354l-0.541,1.219v0.541
		L439.318,300l-0.134,0.947l-0.137,0.541c0,0.091-0.092,0.498-0.271,1.219v0.542h-0.136l-0.137,0.271l0.137,0.271v0.136
		l-0.137,0.406l-0.27,1.759v0.542v0.677v0.137l-0.138,0.271v0.677l-0.27,2.164v0.137c0,0.092,0.092,0.678,0.27,1.76
		c0.453-0.225,0.679-0.405,0.679-0.541l0.271-0.406l0.678-0.677l0.271-0.542c0-0.044,0.021-0.111,0.068-0.202
		c0.043-0.09,0.067-0.157,0.067-0.204h0.135l0.271-0.404v-0.137h0.137l0.676-1.488l0.541-1.082l0.271-3.111h0.135
		c0.045-0.182,0.09-0.385,0.135-0.609s0.091-0.429,0.136-0.609c0-0.18,0.022-0.36,0.067-0.541l0.068-0.271l0.271-0.812l0.271-1.082
		l0.135-0.406c0.09-0.18,0.135-0.315,0.135-0.406c0.271-0.812,0.451-1.263,0.543-1.354l0.541-0.946l0.404-0.947l0.543-0.677
		l0.135-0.271l0.406-0.406c0.451-0.45,0.902-0.677,1.354-0.677l0.812,0.271l0.271,0.271c0.901,0.451,1.354,1.264,1.354,2.436
		l-0.137,0.135v1.625v0.271c0,0.723-0.136,1.354-0.404,1.896l-0.137,0.405h-0.135v0.135h-0.136l-0.137,0.542h-0.135l-0.271,0.406
		l-0.541,0.271l-0.541-0.271l-0.271-0.406l0.135-0.542l-0.135-0.271l0.135-0.27h0.137l0.541-1.219v-0.677l0.138-0.271l0.541-0.812
		v-0.136v-1.082l-0.138-0.541v-0.271l-0.27-0.405c-0.228,0-0.541,0.135-0.949,0.405l-0.406,0.677l-0.271,0.812l-0.404,0.541
		l-0.271,1.083l-0.539,1.354l-0.138,0.947l-0.27,1.218v0.406l0.135,0.677c-0.182,0.271-0.271,0.677-0.271,1.218v0.541
		c0,0.182-0.011,0.373-0.031,0.575c-0.025,0.204-0.047,0.373-0.068,0.509c-0.022,0.135-0.035,0.227-0.035,0.271v0.135l0.271,1.624
		v0.677l0.135,0.541l0.271,1.218c0,0.047,0.021,0.114,0.067,0.203c0.045,0.092,0.068,0.159,0.068,0.204
		c0.09,0.091,0.135,0.226,0.135,0.406l0.676,1.218h0.406l1.355-1.896h0.135l0.406-0.812l0.135-0.405
		c0.271-0.406,0.406-0.767,0.406-1.082h0.135v-0.136l0.271-0.271l0.812-2.03c0.949-1.714,1.49-3.744,1.625-6.09h0.135v-0.812
		l0.135-1.083v-0.541l0.138-0.407l0.403-2.029l0.271-0.541l0.135-0.542l0.137-0.136c0.089-0.045,0.191-0.09,0.306-0.135
		c0.11-0.045,0.203-0.078,0.27-0.102c0.068-0.022,0.146-0.034,0.236-0.034l1.082,0.136h0.406l0.272,0.406
		c0,0.18-0.047,0.315-0.139,0.406v1.082l-0.404,2.301l-0.137,1.219l-0.135,0.271v0.676l-0.271,1.625v0.405v0.135
		c-0.047,0.182-0.09,0.385-0.135,0.609c-0.047,0.227-0.08,0.406-0.103,0.541c-0.022,0.137-0.034,0.293-0.034,0.475
		c0,1.264-0.046,1.939-0.136,2.029v0.271l-0.135,0.406l0.271,3.653v0.137l0.137,1.488l0.135,0.271h0.135l0.541-0.812l1.219-3.112
		l0.138-0.677h0.135c0.449-1.127,0.676-2.438,0.676-3.926l0.136-2.978l0.407-2.707l0.271-2.706l0.271-0.542l0.406-0.271l1.758-0.135
		l0.541,0.271l-0.135,0.541l-0.135,1.759l-0.271,0.542c-0.092,0.091-0.135,0.451-0.135,1.083v0.406l-0.135,0.135v0.406v0.541
		c0,0.362-0.048,0.768-0.138,1.218h0.138v2.03h-0.138l-0.135,1.082v0.812v1.488v0.812c0.09,0.541,0.135,1.037,0.135,1.487
		c0,0.271-0.045,0.452-0.135,0.542l0.271,2.844l0.27,0.271l0.406-0.138l0.541-2.301l1.082-3.654v-0.135h0.135v-0.136l0.541-1.896
		h0.137l0.135-0.812h0.136l0.137-0.405l0.137-0.271c0-0.361,0.136-0.812,0.406-1.354h0.135l0.136-0.678v-0.541h0.135l0.406-1.218
		l0.405-0.813l0.136-0.405v-0.541l0.676-1.625l0.137-0.812c0-0.361,0.359-0.632,1.082-0.812l0.406,0.271v1.218l-0.271,1.353
		l-0.135,1.083l-0.135,2.707v0.271c0,0.723,0.045,1.31,0.135,1.76c0.09,0.271,0.135,0.542,0.135,0.812v0.405
		c0.09,0.091,0.136,0.271,0.136,0.542l0.543,3.112l0.27,0.136l0.812,0.405l0.812,0.137c0.09,0,0.316,0.09,0.676,0.27l0.676,0.406
		c0.093,0.092,0.228,0.137,0.406,0.137v0.135l0.408,0.271l0.135,0.541l-0.271,0.271l-0.541,0.137
		c-0.361-0.227-0.588-0.45-0.679-0.678l-0.403-0.135l-1.219-0.271l-0.271-0.137l-0.406-0.27h-0.137l0.137,0.947
		c0.271,1.354,0.406,2.074,0.406,2.166c0,0.045-0.012,0.124-0.033,0.236c-0.022,0.112-0.047,0.281-0.067,0.508
		c-0.023,0.227-0.035,0.474-0.035,0.744v0.404l-0.271,0.812h-0.137l-0.135,0.812l-0.271,0.271l-0.135,0.54l-0.271,0.137v0.136
		l-0.541,0.541h-0.136c-0.09,0.091-0.27,0.136-0.541,0.136c-0.496,0-1.039-0.181-1.623-0.541c-0.092-0.09-0.182-0.136-0.271-0.136
		v-0.136l-0.541-0.541l-0.135-0.136l-0.543-0.679h-0.136c-0.18-0.72-0.405-1.261-0.678-1.623c0-0.18-0.045-0.313-0.135-0.405
		c-0.09-0.091-0.135-0.315-0.135-0.677H462.6l-0.271,1.218h-0.135l-0.812,1.761h-0.135l-0.135,0.541l-0.541,0.677
		c-0.229,0.451-0.633,0.677-1.219,0.677l-0.947-0.677l-0.541-1.625l-0.137-1.218l-0.136-0.541l-0.135-1.218v-1.354l-0.135-0.541
		h-0.138l-0.403,0.676l-0.812,2.031v0.541c-0.272,0.271-0.45,0.588-0.543,0.947h-0.135l-0.137,0.406l-0.406,0.947
		c-0.721,0.812-1.262,1.219-1.623,1.219c-0.182,0-0.406-0.09-0.676-0.271c-0.451-0.451-0.676-0.722-0.676-0.812l-0.406-1.488v-0.406
		v-0.677l-0.135-2.571l0.135-0.678l-0.135-0.54v-0.136v-1.219c0.088-0.181,0.135-0.631,0.135-1.354l-0.271,0.542h-0.135v0.677
		l-0.406,0.406l-0.271,1.082h-0.135c0,0.046-0.023,0.113-0.066,0.203c-0.047,0.092-0.068,0.158-0.068,0.203
		c-0.092,0.181-0.135,0.361-0.135,0.541v0.271c-0.723,1.444-1.129,2.302-1.219,2.571c0,0.271-0.047,0.406-0.135,0.406
		c0,0.227-0.138,0.541-0.406,0.947l-0.135,0.271l-0.271,0.404l-0.543,0.543c-0.225,0.406-0.449,0.677-0.678,0.812l-1.353,1.218
		h-0.271c-0.045,0-0.135-0.021-0.271-0.066c-0.135-0.045-0.227-0.067-0.271-0.067c-0.631-0.36-1.037-0.812-1.217-1.354l-0.271-0.676
		l-0.676-2.438c-0.182-0.723-0.271-1.309-0.271-1.76v-0.541v-0.543h-0.135l-0.27,0.679h-0.137l-0.271,1.082h-0.137l-0.947,2.166
		l-0.404,0.405l-0.543,1.219h-0.135v0.271l-0.137,0.135l-0.135,0.135l-0.138,0.271l-0.539,0.271v0.136h-0.137v0.135l-0.541,0.271
		l-0.406,0.136l-0.676-0.676l-0.271-0.542c-0.181-0.359-0.271-0.586-0.271-0.676l-0.137-0.678l-0.271-0.947
		c-0.09-0.271-0.135-0.678-0.135-1.219v-1.219l0.271-1.623v-0.406v-0.135v-0.406c0-0.181,0.045-0.271,0.135-0.271l0.137-0.812
		l0.676-3.519c0.045-0.09,0.09-0.203,0.138-0.339c0.043-0.137,0.11-0.338,0.2-0.607c0.091-0.271,0.158-0.496,0.205-0.678
		c0.314-0.947,0.494-1.533,0.539-1.76l0.271-1.083c-0.361,0.271-0.857,0.542-1.488,0.812c-0.045,0-0.113,0.023-0.203,0.068
		c-0.092,0.045-0.158,0.066-0.203,0.066h-0.135l-0.541-0.135l-0.137-0.137l-0.271-0.405l-0.271,1.488l-0.135,0.405
		c-0.093,0.361-0.136,0.769-0.136,1.22v0.136v0.541l-0.271,1.082v0.271v0.541l-0.271,1.354v0.541l-0.137,0.405v0.271l-0.135,0.543
		l-0.135,1.082l-0.136,1.219v0.541l-0.135,0.541l-0.271,1.623c0,0.047-0.136,0.406-0.406,1.084c-0.18,0.722-0.541,1.398-1.082,2.029
		c-0.361,0.182-0.588,0.271-0.678,0.271c-0.316,0-0.679-0.271-1.082-0.812l-0.406-0.677l-0.271-0.405l-0.27-0.543l-0.678-1.353
		l-0.271,0.135v0.136l-0.137,0.271h-0.135l-0.271,0.404h-0.137l-0.135,0.406h-0.138l-0.133,0.407h-0.137l-0.406,0.677l-0.135,0.137
		l-0.541,0.541c-0.092,0.045-0.191,0.09-0.305,0.135c-0.113,0.046-0.193,0.078-0.236,0.102c-0.045,0.023-0.092,0.034-0.135,0.034
		c-0.724,0-1.332-0.711-1.828-2.133c-0.496-1.421-0.744-3.19-0.744-5.312c0-2.527,0.18-4.332,0.543-5.414l0.676-3.385l0.271-1.354
		l0.541-1.082c0-0.046,0.021-0.112,0.067-0.204c0.043-0.09,0.068-0.157,0.068-0.203l0.404-1.218l0.271-0.541l1.082-1.354
		c0.361-0.632,0.769-0.948,1.219-0.948c0.045,0,0.406,0.137,1.082,0.407l0.812,0.946l0.541-0.271
		c0.092,0.091,0.227,0.136,0.405,0.136l0.408,0.405l-0.137,0.948l0.137,0.405c-0.182,0.181-0.272,0.406-0.272,0.677v0.271v0.678
		c-0.361,0.541-0.541,1.218-0.541,2.028v1.219v0.406l-0.136,0.136v0.946v2.031c0,0.812,0.271,2.752,0.812,5.819h0.137l0.406,0.946
		l0.27-0.54l0.271-1.489l0.406-1.895v-0.406l0.403-2.03c0.091-0.09,0.138-0.226,0.138-0.405c0-0.181-0.047-0.361-0.138-0.543
		c0.181-0.359,0.271-0.812,0.271-1.353v-0.406h0.135l0.137-1.083l0.134-0.406l0.271-1.488l0.271-0.947
		c0-0.045,0.01-0.136,0.032-0.271c0.021-0.135,0.058-0.327,0.103-0.576c0.045-0.247,0.09-0.507,0.135-0.777v-0.541v-0.271
		l0.406-3.384h0.137v-0.135L434.582,292.826z M425.92,298.24l-0.135,0.542L425.65,300h-0.138l-0.135,0.947v0.406l-0.135,0.405
		l-0.271,1.354l0.136,0.812v1.082v0.406c-0.091,0.181-0.136,0.36-0.136,0.541v0.136l-0.135,0.405v0.407
		c0.09,0.271,0.135,0.586,0.135,0.947v1.758l0.136,0.678l0.137,1.083v0.405v0.406c0,0.271,0.09,0.541,0.27,0.812
		c0.09,0.092,0.138,0.227,0.138,0.406c0.541-0.271,0.899-0.631,1.082-1.084c0.448-0.812,0.676-1.625,0.676-2.437v-1.082v-0.946
		l0.135-0.812v-2.166l0.137-0.405v-1.354l0.271-2.029v-0.541h-0.135l0.405-1.488c0-0.451,0.043-0.903,0.136-1.354
		c0.09-0.179,0.135-0.36,0.135-0.541c0-0.271-0.045-0.496-0.135-0.676h-0.271l-0.135-0.271v-0.541l-0.135-0.271
		c-0.406,0-0.688,0.102-0.847,0.305s-0.373,0.734-0.643,1.59L425.92,298.24z M465.441,302.572v0.136v0.135l-0.136,0.406
		l-0.271,0.946l-0.541,1.896l-0.271,0.948l-0.137,0.271l-0.271,1.487c0.182,0,0.315-0.043,0.407-0.135
		c0.449-0.091,0.902-0.315,1.354-0.677c-0.092-0.451-0.137-0.902-0.137-1.354v-1.218v-0.678v-0.405l0.137-0.271v-0.677v-0.677
		L465.441,302.572z M465.713,309.475h-0.135l-0.406,0.135l-0.137,0.137l-0.135,0.135v0.137h-0.136v0.135h-0.135v0.136h-0.137
		c-0.271,0.405-0.406,0.903-0.406,1.489c0,0.181,0.045,0.316,0.137,0.406c0.314,1.039,0.812,1.623,1.488,1.758h0.135l0.138-0.135
		c0.088-0.449,0.135-0.855,0.135-1.218c0-0.541-0.047-1.083-0.135-1.624c0-0.045-0.023-0.113-0.068-0.203
		c-0.045-0.091-0.068-0.158-0.068-0.203v-0.947L465.713,309.475z"/>
</g>
</svg>
