<?xml version="1.0" encoding="utf-8"?>
<!-- Generator: Adobe Illustrator 16.0.0, SVG Export Plug-In . SVG Version: 6.00 Build 0)  -->
<!DOCTYPE svg PUBLIC "-//W3C//DTD SVG 1.1//EN" "http://www.w3.org/Graphics/SVG/1.1/DTD/svg11.dtd">
<svg version="1.1" id="Layer_1" xmlns="http://www.w3.org/2000/svg" xmlns:xlink="http://www.w3.org/1999/xlink" x="0px" y="0px"
	 width="143.703px" height="16.297px" viewBox="328.148 291.851 143.703 16.297"
	 enable-background="new 328.148 291.851 143.703 16.297" xml:space="preserve">
<g id="Layer_1_1_">
	<g>
		<path fill="#00629B" d="M346.7,304.848v-0.523c1.677,0,1.782-1.258,1.782-2.567v-5.922c0-0.996-1.102-1.101-1.782-1.101v-0.524
			h2.621l6.079,8.229h0.053v-6.132c0-0.996-0.577-1.52-1.729-1.573v-0.524h3.982v0.524c-0.891,0-1.677,0.314-1.677,1.625v8.805
			h-0.419l-6.499-8.962v0.053v5.923c0,1.52,0.576,2.147,1.834,2.147v0.524H346.7V304.848z"/>
		<path fill="#00629B" d="M359.384,301.389c0,1.678,0.682,3.041,2.41,3.041c0.996,0,1.468-0.63,2.149-1.469l0.472,0.21
			c-0.734,1.205-1.625,1.938-3.04,1.938c-1.991,0-3.406-1.572-3.406-3.615c0-1.939,1.311-3.931,3.302-3.931
			c1.938,0,3.093,1.992,3.093,3.826H359.384z M361.847,300.865c0.733,0,1.102-0.209,1.102-0.891c0-1.048-0.524-1.887-1.677-1.887
			c-1.102,0-1.888,1.101-1.888,2.778H361.847L361.847,300.865z"/>
		<path fill="#00629B" d="M368.188,305.109l-2.254-6.131c-0.156-0.733-0.366-0.733-1.205-0.733v-0.472h3.196v0.472
			c-0.472,0-0.891,0-0.891,0.314c0,0.104,0.157,0.21,0.21,0.367l1.52,4.402c0.054,0,1.415-3.931,1.415-3.931
			s-0.21-0.734-0.313-0.786c-0.157-0.262-0.524-0.367-1.048-0.367v-0.472h3.302v0.472c-0.63,0-0.943,0.104-0.943,0.367
			c0,0.104,0.104,0.314,0.209,0.733l1.258,4.036h0.054l1.31-3.459c0.053-0.314,0.158-0.786,0.158-1.048
			c0-0.419-0.42-0.628-1.153-0.628v-0.472h2.987v0.472c-0.839,0-1.101,0.367-1.362,1.1l-2.044,5.764h-0.523l-1.678-4.978
			l-1.678,4.978H368.188L368.188,305.109z"/>
		<path fill="#00629B" d="M376.521,305.109v-3.092h0.365c0.42,1.311,1.363,2.619,2.83,2.619c0.683,0,1.468-0.365,1.468-1.257
			c0-2.254-4.61-0.682-4.61-3.826c0-1.206,0.786-1.992,1.991-1.992c0.732,0,1.31,0.472,1.781,0.472c0.263,0,0.419-0.157,0.576-0.472
			h0.314v2.621h-0.314c-0.313-1.101-1.101-2.201-2.464-2.201c-0.523,0-1.205,0.367-1.205,0.996c0,2.252,4.561,0.891,4.561,3.827
			c0,1.31-0.786,2.305-2.098,2.305c-1.151,0-1.677-0.629-2.356-0.629c-0.314,0-0.42,0.367-0.524,0.629H376.521L376.521,305.109z"/>
		<path fill="#00629B" d="M398.113,293.842l0.156,4.245h-0.419c-0.682-1.887-1.52-3.721-3.669-3.721
			c-2.725,0-3.195,3.144-3.195,5.241c0,2.306,0.681,5.03,3.512,5.03c2.148,0,3.406-1.729,3.406-3.826h0.522
			c0,2.517-1.467,4.351-4.088,4.351c-3.145,0-5.03-2.777-5.03-5.713c0-2.672,1.991-5.607,4.821-5.607
			c1.362,0,2.463,0.944,2.726,0.944c0.576,0,0.733-0.472,0.942-0.944L398.113,293.842L398.113,293.842z"/>
		<path fill="#00629B" d="M403.616,297.563c1.938,0,3.196,1.886,3.196,3.774c0,1.834-1.258,3.772-3.196,3.772
			c-1.939,0-3.196-1.938-3.196-3.772C400.42,299.449,401.677,297.563,403.616,297.563z M403.616,304.586
			c1.678,0,1.782-1.781,1.782-3.249s-0.104-3.25-1.782-3.25c-1.729,0-1.781,1.782-1.781,3.25S401.888,304.586,403.616,304.586z"/>
		<path fill="#00629B" d="M408.072,304.848v-0.523c1.204,0,1.36-0.104,1.36-0.891v-3.617c0-1.362-0.053-1.467-1.36-1.625v-0.524
			l2.566-0.105v2.882h0.054c0.209-1.048,1.047-2.882,2.41-2.882c0.682,0,1.258,0.472,1.258,1.31c0,0.576-0.263,1.048-0.943,1.048
			c-0.472,0-0.839-0.367-0.839-0.839c0-0.628,0.524-0.838,0.524-0.996c0-0.052-0.053-0.052-0.264-0.052
			c-1.361,0-2.2,3.407-2.2,5.136c0,1.102,0.104,1.152,1.468,1.152v0.523h-4.034V304.848z"/>
		<path fill="#00629B" d="M419.024,308.148h-3.722v-0.522c0.995-0.054,1.259-0.104,1.259-0.996v-7.285
			c0-0.838-0.157-0.996-1.259-1.1v-0.472l2.411-0.209v1.992c0.262-0.943,1.102-1.992,2.148-1.992c1.887,0,2.935,2.044,2.935,3.774
			c0,1.938-1.362,3.771-2.777,3.771c-1.468,0-1.99-1.151-2.306-1.887l0,0v3.25c0,1.049,0.104,1.153,1.311,1.153V308.148z
			 M419.654,298.087c-0.839,0-1.939,1.048-1.939,3.302c0,1.939,1.102,3.092,1.939,3.092c1.31,0,1.78-0.785,1.78-3.092
			C421.436,298.769,420.492,298.087,419.654,298.087z"/>
		<path fill="#00629B" d="M427.62,297.563c1.938,0,3.197,1.886,3.197,3.774c0,1.834-1.26,3.772-3.197,3.772
			c-1.939,0-3.197-1.938-3.197-3.772C424.423,299.449,425.681,297.563,427.62,297.563z M427.62,304.586
			c1.729,0,1.781-1.781,1.781-3.249s-0.053-3.25-1.781-3.25c-1.572,0-1.678,1.782-1.678,3.25S426.048,304.586,427.62,304.586z"/>
		<path fill="#00629B" d="M431.865,304.848v-0.523c1.151,0,1.361-0.104,1.361-0.891v-3.617c0-1.362-0.104-1.467-1.361-1.625v-0.524
			l2.516-0.105v2.882c0.314-1.048,1.152-2.882,2.41-2.882c0.786,0,1.362,0.472,1.362,1.31c0,0.576-0.366,1.048-0.942,1.048
			c-0.473,0-0.892-0.367-0.892-0.839c0-0.628,0.523-0.838,0.523-0.996c0-0.052-0.053-0.052-0.21-0.052
			c-1.415,0-2.253,3.407-2.253,5.136c0,1.102,0.052,1.152,1.467,1.152v0.523h-3.981V304.848z"/>
		<path fill="#00629B" d="M445.806,302.908c0,0.785-0.104,2.201-1.205,2.201c-1.101,0-1.206-0.787-1.259-1.729l0,0
			c-0.522,0.995-1.36,1.729-2.515,1.729c-0.996,0-1.835-0.682-1.835-1.729c0-1.782,2.776-2.254,4.35-2.83v-0.734
			c0-1.153-0.312-1.834-1.572-1.834c-0.365,0-1.204,0.104-1.413,0.524c0.472,0.105,0.732,0.419,0.732,0.891
			c0,0.577-0.313,0.891-0.942,0.891c-0.473,0-0.786-0.419-0.786-0.943c0-1.153,1.258-1.782,2.567-1.782
			c1.102,0,2.62,0.367,2.62,1.625v3.983c0,0.683,0,1.048,0.262,1.048c0.524,0,0.577-0.996,0.577-1.311H445.806L445.806,302.908z
			 M443.342,301.074c-1.048,0.314-2.934,0.943-2.934,2.254c0,0.576,0.471,0.995,0.941,0.995c1.205,0,1.991-0.995,1.991-2.515
			L443.342,301.074L443.342,301.074z"/>
		<path fill="#00629B" d="M450.627,298.454h-2.148v4.507c0,0.786,0.263,1.311,0.995,1.311c1.206,0,1.416-1.049,1.521-2.201h0.366
			c0,1.835-0.472,3.039-2.253,3.039c-0.104,0-1.781-0.155-1.781-1.887v-4.769h-1.153v-0.682c1.572-0.209,1.624-1.729,1.887-2.987
			h0.42v2.987h2.147L450.627,298.454L450.627,298.454z"/>
		<path fill="#00629B" d="M452.566,304.848v-0.523c1.151,0,1.258-0.104,1.258-1.102v-3.772c0-0.995-0.105-1.1-1.312-1.1v-0.471
			l2.464-0.315v5.818c0,0.731,0.157,0.892,1.152,0.942v0.523H452.566L452.566,304.848z M454.4,295.886
			c-0.523,0-0.892-0.472-0.892-0.996c0-0.472,0.367-0.891,0.892-0.891c0.523,0,0.942,0.418,0.942,0.891
			C455.344,295.414,454.925,295.886,454.4,295.886z"/>
		<path fill="#00629B" d="M460.166,297.563c1.938,0,3.196,1.886,3.196,3.774c0,1.834-1.259,3.772-3.196,3.772
			c-1.939,0-3.093-1.938-3.093-3.772C457.073,299.449,458.227,297.563,460.166,297.563z M460.166,304.586
			c1.729,0,1.781-1.781,1.781-3.249s-0.053-3.25-1.781-3.25c-1.573,0-1.625,1.782-1.625,3.25S458.593,304.586,460.166,304.586z"/>
		<path fill="#00629B" d="M467.398,304.848h-3.093v-0.523c0.839,0,1.101-0.053,1.101-0.942v-4.036c0-0.838-0.104-0.996-1.205-0.996
			v-0.471l2.357-0.315v2.044c0.473-1.101,1.102-2.044,2.254-2.044c1.259,0,2.045,0.891,2.045,2.621v3.563
			c0,0.523,0.522,0.576,0.994,0.576v0.523h-3.145v-0.523c0.786,0,0.943-0.053,0.943-0.891v-3.878c0-0.682-0.473-1.31-1.101-1.31
			c-1.416,0-1.938,2.306-1.938,3.563v1.572c0,0.838,0.053,0.941,0.786,0.941L467.398,304.848L467.398,304.848z"/>
		<path fill="#00629B" d="M342.77,299.135c0,0.262,0,0.577-0.052,0.839c0,0-5.923,0.314-7.231,0.157h0.052
			c-1.311,0.157-7.337-0.157-7.337-0.157c0-0.262-0.053-0.577-0.053-0.839c0-0.367,0.053-0.577,0.053-0.891
			c0,0,6.026-0.262,7.337-0.21h-0.052c1.31-0.052,7.231,0.21,7.231,0.21C342.77,298.559,342.77,298.769,342.77,299.135z"/>
		<path fill="#00629B" d="M335.537,291.851c0.263,0,0.629,0.053,0.839,0.053c0,0,0.367,6.026,0.262,7.285v-0.053
			c0.105,1.363-0.262,7.336-0.262,7.336c-0.21,0-0.576,0-0.839,0c-0.314,0-0.576,0-0.786,0c0,0-0.366-5.975-0.314-7.336v0.053
			c-0.052-1.258,0.314-7.285,0.314-7.285C334.961,291.903,335.223,291.851,335.537,291.851z"/>
		<path fill="#00629B" d="M340.831,299.135c0.104,3.512-0.996,5.818-1.153,6.027l-0.053,0.053c-0.681,0.473-1.415,0.786-2.253,1.049
			l0,0c0,0,1.52-1.521,1.572-7.127c-0.054-5.712-1.572-7.127-1.572-7.127l0,0c0.838,0.262,1.572,0.524,2.253,0.996l0.053,0.104
			C339.835,293.318,340.936,295.624,340.831,299.135L340.831,299.135z"/>
		<path fill="#00629B" d="M330.244,299.135c-0.053,3.512,0.996,5.818,1.153,6.027l0.104,0.053c0.629,0.473,1.415,0.786,2.254,1.049
			l0,0c0,0-1.573-1.521-1.625-7.127c0.052-5.712,1.625-7.127,1.625-7.127l0,0c-0.839,0.262-1.625,0.524-2.254,0.996l-0.104,0.104
			C331.24,293.318,330.191,295.624,330.244,299.135L330.244,299.135z"/>
		<path fill="#00629B" d="M330.244,299.135c-0.053,3.512,0.996,5.818,1.153,6.027l0.104,0.053c0.629,0.473,1.415,0.786,2.254,1.049
			l0,0c0,0-1.573-1.521-1.625-7.127c0.052-5.712,1.625-7.127,1.625-7.127l0,0c-0.839,0.262-1.625,0.524-2.254,0.996l-0.104,0.104
			C331.24,293.318,330.191,295.624,330.244,299.135L330.244,299.135z"/>
		<path fill="#00629B" d="M335.485,304.48c3.459,0,5.816-1.101,6.025-1.205l0.054-0.053c0.472-0.683,0.891-1.414,1.048-2.254l0,0
			c0,0-1.415,1.521-7.127,1.678c-5.66-0.156-7.128-1.678-7.128-1.678l0,0c0.262,0.84,0.629,1.572,0.995,2.254l0.104,0.053
			C329.668,303.381,331.974,304.48,335.485,304.48L335.485,304.48z"/>
		<path fill="#00629B" d="M335.485,293.737c3.459,0,5.816,1.1,6.025,1.206l0.054,0.104c0.472,0.629,0.891,1.468,1.048,2.254v-0.053
			v0.053c0,0-1.415-1.572-7.127-1.678c-5.66,0.105-7.128,1.678-7.128,1.678v-0.053v0.053c0.262-0.786,0.629-1.625,0.995-2.254
			l0.104-0.104C329.668,294.837,331.974,293.737,335.485,293.737L335.485,293.737z"/>
	</g>
</g>
</svg>
