<?xml version="1.0" encoding="utf-8"?>
<!-- Generator: Adobe Illustrator 16.0.0, SVG Export Plug-In . SVG Version: 6.00 Build 0)  -->
<!DOCTYPE svg PUBLIC "-//W3C//DTD SVG 1.1//EN" "http://www.w3.org/Graphics/SVG/1.1/DTD/svg11.dtd">
<svg version="1.1" id="Layer_1" xmlns="http://www.w3.org/2000/svg" xmlns:xlink="http://www.w3.org/1999/xlink" x="0px" y="0px"
	 width="299.714px" height="105.767px" viewBox="271.088 244.756 299.714 105.767"
	 enable-background="new 271.088 244.756 299.714 105.767" xml:space="preserve">
<g>
	<path fill="#00ADEE" d="M288.151,283.374c1.872-1.869,3.454-3.208,4.981-4.179c1.522-0.969,3.43-1.458,5.72-1.458
		c3.604,0,6.169,1.231,7.695,3.691c1.523,2.463,2.291,5.707,2.291,9.728v26.218c0,1.105-0.555,1.818-1.667,2.129
		c-1.108,0.312-2.6,0.539-4.473,0.679v1.144h21.237v-0.937c-0.625-0.065-1.304-0.152-2.03-0.263c-0.727-0.1-1.401-0.242-2.028-0.414
		c-0.622-0.174-1.162-0.436-1.61-0.78c-0.449-0.347-0.675-0.763-0.675-1.246V287.1c0-4.715-1.079-8.562-3.226-11.546
		c-2.151-2.979-5.234-4.471-9.26-4.471c-1.871,0-3.674,0.364-5.408,1.091c-1.734,0.729-3.332,1.647-4.783,2.758
		c-1.458,1.109-2.76,2.339-3.904,3.691c-1.144,1.353-2.097,2.618-2.857,3.797"/>
	<path fill="#00ADEE" d="M285.545,285.291v32.289c0.138,0.696,0.38,1.196,0.728,1.51c0.346,0.312,0.763,0.537,1.248,0.676
		c0.483,0.141,1.041,0.227,1.665,0.262c0.626,0.035,1.284,0.119,1.977,0.26v1.041h-20.075v-1.041
		c1.592-0.141,2.962-0.453,4.108-0.936c1.143-0.488,1.716-1.283,1.716-2.393v-35.787c0-0.557-0.054-0.971-0.157-1.246
		c-0.104-0.278-0.397-0.593-0.88-0.938c-0.627-0.349-1.356-0.746-2.186-1.196c-0.834-0.452-1.667-0.852-2.497-1.197v-0.625
		l13.625-4.886h0.706L285.545,285.291z"/>
	<path fill="#545861" d="M535.021,283.372c1.873-1.869,3.451-3.207,4.977-4.179c1.525-0.967,3.432-1.456,5.721-1.456
		c3.607,0,6.174,1.229,7.699,3.69c1.523,2.464,2.289,5.706,2.289,9.729v26.216c0,1.107-0.559,1.82-1.668,2.131
		c-1.107,0.312-2.6,0.539-4.473,0.679v1.144h21.236v-0.938c-0.621-0.063-1.297-0.152-2.027-0.261
		c-0.729-0.1-1.404-0.241-2.027-0.416c-0.625-0.174-1.16-0.432-1.613-0.778c-0.451-0.349-0.674-0.763-0.674-1.248V287.1
		c0-4.715-1.078-8.562-3.225-11.546c-2.15-2.98-5.238-4.472-9.26-4.472c-1.871,0-3.678,0.363-5.412,1.092
		c-1.732,0.729-3.324,1.647-4.781,2.758c-1.459,1.107-2.76,2.339-3.904,3.691c-1.143,1.353-2.094,2.618-2.854,3.795"/>
	<path fill="#545861" d="M532.41,285.289v32.289c0.141,0.698,0.385,1.196,0.73,1.512c0.346,0.312,0.764,0.537,1.248,0.676
		c0.484,0.141,1.041,0.227,1.664,0.262c0.625,0.033,1.283,0.119,1.979,0.258v1.041h-20.076v-1.041
		c1.594-0.139,2.961-0.453,4.107-0.934c1.145-0.488,1.715-1.283,1.715-2.395V281.17c0-0.556-0.051-0.97-0.152-1.245
		c-0.107-0.278-0.4-0.593-0.885-0.939c-0.623-0.349-1.352-0.746-2.184-1.196c-0.834-0.452-1.668-0.85-2.5-1.197v-0.623l13.629-4.886
		h0.707L532.41,285.289z"/>
	<path fill="#545861" d="M326.533,321.328v-1.059c0.849-0.07,1.692-0.156,2.541-0.266c0.848-0.107,1.604-0.285,2.271-0.533
		c0.672-0.242,1.239-0.58,1.697-1c0.459-0.426,0.686-0.957,0.686-1.592v-36.314c0-0.566-0.051-1.059-0.157-1.482
		c-0.104-0.424-0.403-0.814-0.9-1.168c-0.632-0.42-1.391-0.844-2.274-1.268s-1.817-0.811-2.805-1.164v-0.637l14.31-4.661h0.63
		v47.329c0.143,0.707,0.44,1.223,0.899,1.537c0.461,0.32,1.007,0.549,1.644,0.688c0.634,0.145,1.323,0.23,2.063,0.266
		s1.464,0.121,2.17,0.267v1.06h-22.774V321.328z"/>
	<path fill="#545861" d="M341.617,259.667c-1.06,1.061-2.377,1.592-3.946,1.592c-1.504,0-2.802-0.549-3.896-1.646
		c-1.096-1.094-1.639-2.396-1.639-3.907c0-1.576,0.53-2.878,1.59-3.906c1.058-1.029,2.374-1.544,3.946-1.544
		c1.569,0,2.887,0.515,3.946,1.544c1.06,1.028,1.59,2.33,1.59,3.906C343.207,257.282,342.676,258.602,341.617,259.667"/>
	<path fill="#545861" d="M479.351,286.18c0.141-0.844,0.527-2.064,1.164-3.65c0.631-1.588,1.531-3.16,2.693-4.712
		c1.166-1.551,2.543-2.912,4.131-4.076c1.584-1.166,3.365-1.748,5.34-1.748c3.033,0,5.451,0.937,7.25,2.805
		c1.797,1.871,2.695,4.113,2.695,6.727c0,0.985-0.123,1.728-0.369,2.224c-0.248,0.492-0.619,1.021-1.113,1.588
		c-0.705,0.279-1.514,0.457-2.432,0.529c-0.918,0.07-1.904,0.104-2.959,0.104c-1.627,0-3.105,0.018-4.447,0.055
		c-1.34,0.033-2.629,0.068-3.857,0.104c-1.234,0.035-1.979,0.053-3.248,0.053l-0.475,1.444h29.402
		c-0.209-2.962-0.881-5.536-2.01-7.723c-1.131-2.186-2.596-4.003-4.398-5.446c-1.799-1.447-3.916-2.525-6.354-3.228
		c-2.438-0.707-5.029-1.059-7.783-1.059c-3.393,0-6.479,0.721-9.271,2.167c-2.789,1.449-5.152,3.336-7.094,5.666
		c-1.941,2.329-3.439,4.958-4.502,7.886c-1.061,2.929-1.59,5.876-1.59,8.84c0,3.668,0.564,7.143,1.693,10.426
		s2.738,6.141,4.822,8.574c2.08,2.438,4.605,4.324,7.568,5.664c2.967,1.338,6.254,2.008,9.854,2.008
		c2.895,0,5.523-0.527,7.891-1.586c2.365-1.059,4.396-2.4,6.09-4.025c1.693-1.623,3.039-3.406,4.027-5.346
		c0.988-1.941,1.625-3.688,1.906-5.244l-0.85-0.207c-0.846,2.607-2.594,4.814-5.24,6.613c-2.646,1.803-5.738,2.703-9.266,2.703
		c-3.248,0-6.107-0.604-8.574-1.799c-2.475-1.203-4.523-2.848-6.145-4.928c-1.625-2.08-2.861-4.48-3.711-7.199
		c-0.848-2.718-1.27-5.558-1.27-8.522c0-0.777,0.035-1.537,0.109-2.277c0.066-0.74,0.105-1.395,0.105-1.959L479.351,286.18z"/>
	<path fill="#545861" d="M361.827,286.175c0.139-0.844,0.53-2.062,1.166-3.649c0.632-1.59,1.534-3.16,2.693-4.715
		c1.167-1.55,2.544-2.911,4.13-4.073c1.586-1.168,3.365-1.75,5.344-1.75c3.027,0,5.449,0.938,7.247,2.806
		c1.797,1.873,2.695,4.115,2.695,6.725c0,0.988-0.122,1.728-0.368,2.224c-0.249,0.495-0.62,1.023-1.11,1.59
		c-0.709,0.279-1.518,0.457-2.438,0.527c-0.912,0.072-1.898,0.107-2.956,0.107c-1.626,0-3.106,0.018-4.446,0.051
		c-1.34,0.037-2.627,0.07-3.858,0.107c-1.236,0.033-1.979,0.051-3.249,0.051l-0.471,1.445h29.401
		c-0.213-2.965-0.884-5.536-2.009-7.722c-1.132-2.188-2.597-4.007-4.398-5.45c-1.801-1.444-3.919-2.526-6.356-3.226
		c-2.435-0.707-5.03-1.059-7.782-1.059c-3.392,0-6.48,0.723-9.271,2.168c-2.79,1.447-5.154,3.335-7.095,5.665
		c-1.943,2.328-3.443,4.956-4.5,7.888c-1.062,2.928-1.591,5.876-1.591,8.836c0,3.67,0.564,7.146,1.694,10.429
		c1.129,3.279,2.736,6.139,4.821,8.572c2.078,2.436,4.604,4.324,7.569,5.666c2.966,1.336,6.253,2.006,9.851,2.006
		c2.896,0,5.525-0.525,7.892-1.586c2.366-1.059,4.397-2.398,6.089-4.023c1.693-1.625,3.04-3.406,4.024-5.348
		c0.989-1.939,1.628-3.688,1.907-5.242l-0.846-0.211c-0.848,2.611-2.595,4.814-5.243,6.617c-2.646,1.801-5.734,2.701-9.262,2.701
		c-3.25,0-6.109-0.602-8.578-1.801c-2.474-1.201-4.521-2.845-6.143-4.924c-1.625-2.082-2.861-4.48-3.71-7.197
		c-0.847-2.721-1.27-5.561-1.27-8.525c0-0.777,0.036-1.537,0.109-2.275c0.067-0.742,0.106-1.396,0.106-1.96L361.827,286.175z"/>
	<path fill="#545861" d="M398.421,321.328v-1.17c3.247-0.207,5.397-0.545,6.456-1.002c1.061-0.459,1.592-1.254,1.592-2.385V255.88
		c0-0.568-0.054-0.992-0.159-1.271c-0.109-0.285-0.404-0.602-0.897-0.957c-0.639-0.35-1.593-0.898-2.863-1.638
		c-1.27-0.743-2.328-1.287-3.173-1.645v-0.633l15.151-4.98h0.74v72.546c0,0.709,0.162,1.236,0.477,1.588
		c0.315,0.354,0.799,0.6,1.432,0.742c0.64,0.141,1.447,0.229,2.438,0.264c0.987,0.035,2.151,0.123,3.495,0.262v1.17H398.421
		L398.421,321.328z"/>
	<path fill="#545861" d="M462.066,312.861c-1.09,2.014-2.557,3.652-4.389,4.924c-1.834,1.271-3.936,2.189-6.297,2.756
		c-2.363,0.568-4.85,0.849-7.463,0.849c-3.1,0-6.029-0.279-8.779-0.849c-2.752-0.565-5.291-1.377-7.621-2.436v-13.984h0.781
		c0.564,1.697,1.273,3.48,2.123,5.351s1.873,3.604,3.078,5.188c1.205,1.594,2.658,2.898,4.354,3.924
		c1.697,1.023,3.715,1.531,6.051,1.531c3.395,0,6.104-0.965,8.121-2.91c2.016-1.942,3.023-4.926,3.023-8.953
		c0-2.188-0.688-4.004-2.062-5.453c-1.385-1.45-3.271-2.418-5.678-2.911c-1.906-0.354-3.742-0.742-5.512-1.167
		c-1.77-0.424-3.357-0.881-4.77-1.379c-2.688-0.918-4.859-2.505-6.523-4.767c-1.66-2.258-2.492-4.979-2.492-8.156
		c0-2.188,0.463-4.166,1.387-5.931c0.922-1.764,2.162-3.283,3.725-4.555c1.557-1.273,3.361-2.244,5.41-2.914
		c2.047-0.672,4.23-1.006,6.562-1.006c2.961,0,5.574,0.264,7.832,0.793c2.262,0.529,4.414,1.184,6.459,1.957l1.271,13.138
		l-0.846,0.213c-0.99-2.119-1.979-4.077-2.965-5.879c-0.99-1.802-2.082-3.354-3.285-4.663c-1.195-1.307-2.559-2.311-4.074-3.018
		c-1.52-0.705-3.268-1.059-5.24-1.059c-1.199,0-2.383,0.209-3.549,0.635c-1.164,0.424-2.189,1.041-3.07,1.854
		s-1.604,1.836-2.17,3.071c-0.566,1.236-0.85,2.666-0.85,4.291c0,2.615,0.746,4.486,2.225,5.617
		c1.482,1.131,3.355,1.977,5.607,2.537c1.549,0.357,3.246,0.729,5.078,1.115c1.838,0.389,3.424,0.758,4.762,1.111
		c3.174,0.777,5.873,2.402,8.094,4.872c2.221,2.475,3.334,5.51,3.334,9.111C463.71,308.464,463.16,310.848,462.066,312.861"/>
	<path fill="#545861" d="M285.939,345.111c0,2.988-2.422,5.412-5.41,5.412c-2.99,0-5.413-2.424-5.413-5.412s2.423-5.41,5.413-5.41
		C283.517,339.701,285.939,342.123,285.939,345.111"/>
	<path fill="#545861" d="M320.916,345.111c0,2.988-2.423,5.412-5.412,5.412c-2.99,0-5.413-2.424-5.413-5.412s2.423-5.41,5.413-5.41
		C318.493,339.701,320.916,342.123,320.916,345.111"/>
	<path fill="#545861" d="M355.892,345.111c0,2.988-2.421,5.412-5.41,5.412c-2.99,0-5.414-2.424-5.414-5.412s2.424-5.41,5.414-5.41
		C353.471,339.701,355.892,342.123,355.892,345.111"/>
	<path fill="#545861" d="M390.868,345.111c0,2.988-2.422,5.412-5.412,5.412c-2.988,0-5.41-2.424-5.41-5.412s2.422-5.41,5.41-5.41
		C388.445,339.701,390.868,342.123,390.868,345.111"/>
	<path fill="#545861" d="M425.843,345.111c0,2.988-2.422,5.412-5.411,5.412c-2.991,0-5.413-2.424-5.413-5.412s2.422-5.41,5.413-5.41
		C423.421,339.701,425.843,342.123,425.843,345.111"/>
	<path fill="#545861" d="M460.818,345.111c0,2.988-2.424,5.412-5.412,5.412c-2.99,0-5.412-2.424-5.412-5.412s2.422-5.41,5.412-5.41
		C458.394,339.701,460.818,342.123,460.818,345.111"/>
	<path fill="#545861" d="M495.792,345.111c0,2.988-2.424,5.412-5.41,5.412c-2.988,0-5.412-2.424-5.412-5.412s2.424-5.41,5.412-5.41
		C493.369,339.701,495.792,342.123,495.792,345.111"/>
	<path fill="#545861" d="M565.744,345.111c0,2.988-2.422,5.412-5.412,5.412s-5.41-2.424-5.41-5.412s2.42-5.41,5.41-5.41
		S565.744,342.123,565.744,345.111"/>
	<path fill="#545861" d="M530.767,345.111c0,2.988-2.422,5.412-5.406,5.412c-2.988,0-5.414-2.424-5.414-5.412s2.426-5.41,5.414-5.41
		C528.345,339.701,530.767,342.123,530.767,345.111"/>
</g>
</svg>
