<?xml version="1.0" encoding="utf-8"?>
<!-- Generator: Adobe Illustrator 16.0.0, SVG Export Plug-In . SVG Version: 6.00 Build 0)  -->
<!DOCTYPE svg PUBLIC "-//W3C//DTD SVG 1.1//EN" "http://www.w3.org/Graphics/SVG/1.1/DTD/svg11.dtd">
<svg version="1.1" id="Layer_1" xmlns="http://www.w3.org/2000/svg" xmlns:xlink="http://www.w3.org/1999/xlink" x="0px" y="0px"
	 width="473.7px" height="78.744px" viewBox="123 321.001 473.7 78.744" enable-background="new 123 321.001 473.7 78.744"
	 xml:space="preserve">
<g>
	<path d="M527.913,351.379c-1.461,9.193-7.736,19.316-4.322,28.816C532.226,378.201,536.136,356.98,527.913,351.379L527.913,351.379
		z M533.677,335.53c3.382,3.967,9.158,6.268,12.247,11.526c7.651,13.028,2.667,36.432-5.764,43.943
		c-6.369,5.678-22.081,7.021-28.816,0C496.543,375.574,512.709,333.665,533.677,335.53L533.677,335.53z"/>
	<path d="M306.026,334.81c-2.982,11.666-5.88,23.417-8.646,35.299C308.294,367.324,315.223,344.127,306.026,334.81L306.026,334.81z
		 M279.371,384.518c2.931-4.272,7.533-6.875,12.247-9.365c-1.858-1.743-7.337,0.134-9.365-1.44
		c1.947-15.711,3.924-40.675,12.967-51.148c0.984-1.139,3.291-1.864,6.484-1.441C344.251,326.761,323.821,403.725,279.371,384.518
		L279.371,384.518z"/>
	<path d="M357.176,322.563c3.993-0.631,2.837,3.886,5.042,5.043c26.995-11.907,38.695,26.046,12.247,33.138
		c0.732,16.076,10.518,23.104,20.894,29.537c-0.456,8.846-10.179,9.469-16.569,7.203c-8.467-3.002-14.78-16.248-18.731-22.332
		c-2.619,1.94-1.11,8.014-2.159,11.524c-3.984,1.302-7.171,3.396-8.646,7.205c-1.842-1.76-4.172-3.032-6.483-4.321
		c-1.835-16.902,7.867-30.693,8.646-44.666c0.102-1.827-0.992-4.07-0.72-5.763C351.64,333.229,356.024,328.153,357.176,322.563
		L357.176,322.563z M364.38,350.658c5.033-1.93,8.422-5.505,10.085-10.806C366.207,338.167,361.625,343.702,364.38,350.658
		L364.38,350.658z"/>
	<path d="M455.151,334.089c-1,2.283-1,6.362,0,8.645c3.832,1.691,10.376,0.67,12.247,4.322c3.073,13.781-9.979,43.93,7.925,46.826
		c1.137-3.217,3.073-3.307,5.764-3.603c0.523-13.885,1.282-27.532,2.161-41.062c12.496-3.968,34.914-0.582,32.418-17.29
		c-4.014-1.707-7.977-1.649-13.688-0.72c-2.146-0.015-0.925-3.398-2.161-4.323C483.553,327.911,468.104,329.752,455.151,334.089
		L455.151,334.089z"/>
	<path d="M136.009,340.573c-5.596-7.793,8.261-14.317,18.73-10.085c24.099,9.74,18.806,60.073-14.408,56.911
		C119.239,385.391,116.921,347.769,136.009,340.573L136.009,340.573z M141.772,372.271c7.22,0.813,15.212-19.736,7.924-25.936
		C138.977,342.782,131.026,371.059,141.772,372.271L141.772,372.271z"/>
	<path d="M499.097,350.658c-16.874-2.543-14.774,26.121-12.247,38.902c2.98,1.342,4.844,3.803,9.365,3.602
		c1.104-2.258,3.069-3.654,5.043-5.043C500.111,374.455,506.089,359.774,499.097,350.658L499.097,350.658z"/>
	<path d="M345.649,337.691c-0.296-3.795-3.196-13.744-7.926-13.688c-9.193,0.109-11.797,40.345-11.525,48.987
		c3.106,2.986,9.7,5.709,14.408,2.883C340.104,364.334,346.598,349.923,345.649,337.691L345.649,337.691z"/>
	<path d="M203.007,326.885c-3.076,6.77-2.026,17.665-4.322,25.214c-5.823-6.53-6.42-26.017-17.29-25.214
		c-7.139,0.527-7.3,10.866-7.924,18.73c-1.296,16.33-2.436,34.365-2.162,46.105c5.996,2.026,11.946-1.888,14.408-5.763
		c2.2-4.963,0.31-14.681,2.882-17.291c5.692,6.16,8.019,19.242,18.731,18.011c7.135-13.757,6.614-35.167,9.365-53.31
		C214.001,329.61,208.538,323.292,203.007,326.885L203.007,326.885z"/>
	<path d="M227.501,329.047c-11.348,9.193-15.654,38.434-8.645,54.75c9.702,8.797,26.137,5.049,32.418-4.322
		c-0.518-5.748,0.272-12.051-1.44-18.01c-7.082,1.322-10.193,6.615-15.849,9.365c-2.373-1.711-1.157-7.008-1.441-10.807
		c6.669-2.019,16.839-6.06,10.807-14.408c-1.881-1.167-7.555,1.368-10.086-0.72c5.008-3.637,13.965-3.326,19.451-6.484
		c-0.292-3.07,0.697-7.421-0.721-9.365C242.881,325.396,234.299,334.523,227.501,329.047L227.501,329.047z"/>
	<path d="M398.959,334.81c-4.383,10.128-23.169,34.18-8.645,45.385c2.704,2.086,13.291,4.938,18.011,4.322
		c6.396-0.834,9.788-6.189,8.645-15.129c-2.499-2.304-8.413-1.191-12.968-1.441c0-2.16,0-4.322,0-6.482
		c4.852-3.528,12.184-5.177,12.247-11.527c-1.496-1.385-4.929-0.834-6.483-2.161c2.635-1.929,7.239-1.886,10.807-2.882
		c1.91-3.133,1.693-8.392,2.882-12.247C413.681,332,404.188,328.862,398.959,334.81L398.959,334.81z"/>
	<path d="M576.901,358.583c-5.106-4.546-6.842-19.592-15.13-18.73c-6.889,0.716-8.09,17.168-9.364,25.935
		c-1.763,12.112-3.876,22.364-5.764,29.537c11.457,10.551,19.087-8.892,20.893-19.451c8.116,4.446,3.23,25.479,15.129,23.773
		c8.122-13.675,20.418-49.333,10.086-67.718C577.389,330.735,582.565,350.079,576.901,358.583L576.901,358.583z"/>
	<path d="M453.711,348.498c1.135-19.893-20.069-15.848-28.097-6.484c-8.24,9.613-10.638,32.958,0.721,41.062
		c9.32,6.652,28.455,4.588,34.58-5.043c-0.326-13.961-14.792-11.305-20.893-4.322c-6.297-3.672-4.963-18.094,1.44-20.891
		C439.39,371.479,453.116,358.917,453.711,348.498L453.711,348.498z"/>
</g>
</svg>
