<?xml version="1.0" encoding="utf-8"?>
<!-- Generator: Adobe Illustrator 16.0.0, SVG Export Plug-In . SVG Version: 6.00 Build 0)  -->
<!DOCTYPE svg PUBLIC "-//W3C//DTD SVG 1.1//EN" "http://www.w3.org/Graphics/SVG/1.1/DTD/svg11.dtd">
<svg version="1.1" id="Layer_1" xmlns="http://www.w3.org/2000/svg" xmlns:xlink="http://www.w3.org/1999/xlink" x="0px" y="0px"
	 width="127.564px" height="18.921px" viewBox="243 387.226 127.564 18.921" enable-background="new 243 387.226 127.564 18.921"
	 xml:space="preserve">
<path fill="#BCBEC0" d="M267.817,397.025v-4.989h-20.581v4.989H267.817z M272.055,389.731v9.56c0,0.365-0.098,0.703-0.297,1.013
	c-0.321,0.62-0.903,0.932-1.744,0.932h-22.777v3.006c0,0.521-0.183,0.969-0.547,1.34c-0.366,0.369-0.809,0.557-1.33,0.557h-0.465
	c-0.521,0-0.966-0.188-1.338-0.557c-0.371-0.371-0.557-0.818-0.557-1.34v-14.509c0-0.565,0.21-1.037,0.631-1.415
	c0.376-0.418,0.847-0.63,1.412-0.63h24.971c0.564,0,1.035,0.211,1.41,0.634C271.846,388.694,272.055,389.166,272.055,389.731"/>
<path fill="#BCBEC0" d="M297.88,398.695h-22.169c-0.812,0-1.391-0.302-1.729-0.906c-0.199-0.354-0.298-0.691-0.298-1.023v-7.055
	c0-0.559,0.209-1.028,0.626-1.402c0.374-0.416,0.841-0.627,1.401-0.627h24.799c0.562,0,1.027,0.211,1.402,0.627
	c0.416,0.374,0.625,0.843,0.625,1.402v14.525c0,0.516-0.182,0.959-0.544,1.328c-0.362,0.366-0.802,0.552-1.318,0.552H275.52
	c-0.517,0-0.956-0.186-1.32-0.554c-0.361-0.369-0.543-0.812-0.543-1.334v-0.464c0-0.518,0.182-0.963,0.543-1.332
	c0.364-0.366,0.804-0.553,1.32-0.553h22.814v-3.079v-0.105H297.88z M298.334,394.856v-2.966h-20.428v2.971h19.974L298.334,394.856"
	/>
<path fill="#BCBEC0" d="M335.449,391.756c-0.691-0.385-1.037-0.971-1.037-1.753c0-0.294,0.078-0.595,0.238-0.899l0.222-0.427
	c0.362-0.703,0.941-1.053,1.734-1.053c0.328,0,0.637,0.076,0.921,0.236l11.621,6.5l11.741-6.5c0.283-0.158,0.591-0.236,0.918-0.236
	c0.762,0,1.334,0.345,1.72,1.035l0.238,0.428c0.146,0.26,0.221,0.569,0.221,0.919c0,0.772-0.348,1.351-1.037,1.738l-9.206,5.191
	l9.206,5.073c0.689,0.386,1.037,0.964,1.037,1.738c0,0.352-0.073,0.657-0.221,0.917l-0.238,0.428
	c-0.397,0.703-0.97,1.056-1.72,1.056c-0.327,0-0.635-0.08-0.918-0.241l-11.655-6.541l-11.707,6.541
	c-0.284,0.161-0.593,0.241-0.921,0.241c-0.793,0-1.372-0.353-1.734-1.056l-0.222-0.425c-0.16-0.31-0.238-0.606-0.238-0.902
	c0-0.77,0.346-1.348,1.037-1.733l9.258-5.173L335.449,391.756z"/>
<path fill="#BCBEC0" d="M328.658,401.951h-20.183v-10.124h20.183V401.951z M332.208,403.887l-1.204,0.683v-15.265l1.197,0.663
	l0.627,0.345v-0.657c0-0.552-0.208-1.01-0.625-1.386c-0.373-0.405-0.835-0.61-1.386-0.61h-24.5c-0.552,0-1.013,0.205-1.386,0.61
	c-0.417,0.376-0.627,0.834-0.627,1.386v14.442c0,0.552,0.21,1.012,0.627,1.386c0.373,0.406,0.834,0.61,1.386,0.61h24.5
	c0.551,0,1.013-0.204,1.386-0.61c0.417-0.374,0.625-0.834,0.625-1.386v-0.562L332.208,403.887"/>
<polygon fill="#BCBEC0" points="332.732,392.555 332.732,401.104 340.373,396.776 "/>
<g>
	<path fill="#BCBEC0" d="M367.445,387.226v0.512h-0.867v2.367h-0.603v-2.367h-0.866v-0.512H367.445z"/>
	<path fill="#BCBEC0" d="M369.701,387.226h0.863v2.879h-0.56v-1.947c0-0.056,0.001-0.134,0.002-0.235
		c0.002-0.101,0.002-0.179,0.002-0.233l-0.547,2.416h-0.586l-0.543-2.416c0,0.055,0.001,0.132,0.002,0.233
		c0.002,0.101,0.002,0.179,0.002,0.235v1.947h-0.559v-2.879h0.875l0.524,2.264L369.701,387.226z"/>
</g>
</svg>
