<?xml version="1.0" encoding="utf-8"?>
<!-- Generator: Adobe Illustrator 16.0.0, SVG Export Plug-In . SVG Version: 6.00 Build 0)  -->
<!DOCTYPE svg PUBLIC "-//W3C//DTD SVG 1.1//EN" "http://www.w3.org/Graphics/SVG/1.1/DTD/svg11.dtd">
<svg version="1.1" id="Layer_1" xmlns="http://www.w3.org/2000/svg" xmlns:xlink="http://www.w3.org/1999/xlink" x="0px" y="0px"
	 width="169.45px" height="163.134px" viewBox="11.484 14.515 169.45 163.134"
	 enable-background="new 11.484 14.515 169.45 163.134" xml:space="preserve">
<g>
	<path fill="#FFCB05" stroke="#000000" stroke-width="0.3654" stroke-miterlimit="2.6131" d="M76.951,51.01l-37.39,27.769
		c-5.725,5.115-5.725,9.622,0,13.519l41.653,27.77l39.583-0.975l39.097-28.5c3.896-2.68,3.41-7.917,0-10.718l-42.75-30.692
		L76.951,51.01L76.951,51.01z"/>
	<path fill="#FFFFFF" stroke="#000000" stroke-width="0.3654" stroke-miterlimit="2.6131" d="M78.657,54.42L44.676,79.509
		c-7.551,6.089-6.333,6.821,0.244,11.449l37.512,26.309l36.295-0.976l36.051-26.186c4.385-3.531,4.141-6.333,0.121-9.5l-39.461-28.5
		L78.657,54.42L78.657,54.42z"/>
	<polygon fill="#FFCB05" stroke="#000000" stroke-width="0.3654" stroke-miterlimit="2.6131" points="43.458,83.894 41.632,85.355 
		43.458,86.817 153.925,86.574 155.388,85.234 153.562,83.894 	"/>
	<polygon fill="#FFCB05" stroke="#000000" stroke-width="0.3654" stroke-miterlimit="2.6131" points="78.413,57.343 75.612,59.413 
		121.526,59.292 118.728,57.099 	"/>
	<polygon fill="#FFCB05" stroke="#000000" stroke-width="0.3654" stroke-miterlimit="2.6131" points="72.566,61.728 69.766,64.042 
		127.009,63.798 124.329,61.606 	"/>
	<polygon fill="#FFCB05" stroke="#000000" stroke-width="0.3654" stroke-miterlimit="2.6131" points="66.599,66.355 63.798,68.548 
		133.222,68.305 130.541,66.112 	"/>
	<polygon fill="#FFCB05" stroke="#000000" stroke-width="0.3654" stroke-miterlimit="2.6131" points="60.753,70.74 57.83,73.054 
		138.944,72.811 136.144,70.618 	"/>
	<polygon fill="#FFCB05" stroke="#000000" stroke-width="0.3654" stroke-miterlimit="2.6131" points="55.273,75.125 52.349,77.317 
		144.668,77.073 141.745,74.881 	"/>
	<polygon fill="#FFCB05" stroke="#000000" stroke-width="0.3654" stroke-miterlimit="2.6131" points="49.548,79.388 46.624,81.58 
		150.149,81.336 147.47,79.144 	"/>
	<polygon fill="#FFCB05" stroke="#000000" stroke-width="0.3654" stroke-miterlimit="2.6131" points="148.444,90.593 151.489,88.4 
		46.016,88.644 48.939,90.836 	"/>
	<polygon fill="#FFCB05" stroke="#000000" stroke-width="0.3654" stroke-miterlimit="2.6131" points="142.231,95.343 145.034,93.15 
		52.471,93.394 55.516,95.586 	"/>
	<polygon fill="#FFCB05" stroke="#000000" stroke-width="0.3654" stroke-miterlimit="2.6131" points="136.265,99.604 
		139.433,97.413 58.317,97.656 61.361,99.851 	"/>
	<path fill="#FFFFFF" stroke="#FFFFFF" stroke-width="0.8458" stroke-miterlimit="2.6131" d="M17.151,126.644
		c52.858-14.371,105.716-13.152,158.577,0c4.019,1.705,4.992,5.359,4.748,7.916v21.192c-0.121,3.288-5.724,7.431-8.891,5.603
		c-50.667-13.152-101.332-14.25-151.999,0.854c-3.167,0.975-7.551-2.07-7.673-5.236v-23.385
		C11.792,130.419,13.375,127.739,17.151,126.644L17.151,126.644z"/>
	<path fill="#ED1C24" stroke="#ED1C24" stroke-width="0.8458" stroke-miterlimit="2.6131" d="M19.343,129.079
		c50.666-13.396,101.454-12.423,152.12-0.243c4.021,1.34,4.872,3.41,4.629,5.603v17.416c0,5.481,0.122,8.282-8.771,5.726
		c-48.596-12.667-97.068-13.032-145.664,0.853c-6.577,1.584-7.43-0.244-7.308-5.48v-19.364
		C14.228,131.026,15.689,129.933,19.343,129.079L19.343,129.079z"/>
	<path fill="#FFFFFF" d="M24.199,130.887c1.211-0.509,2.827-1.042,4.932-1.487c2.586-0.551,4.608-0.353,6.041,0.476
		c1.316,0.726,2.322,2.052,2.705,3.856c0.39,1.834,0.155,3.393-0.673,4.668c-1.07,1.768-3.165,2.998-5.722,3.541
		c-0.781,0.166-1.51,0.291-2.142,0.268l1.725,8.119l-2.616,0.557L24.199,130.887L24.199,130.887z M28.885,140.073
		c0.603,0.027,1.368-0.071,2.209-0.25c3.187-0.678,4.75-2.646,4.167-5.381c-0.575-2.707-2.744-3.598-5.63-2.982
		c-1.143,0.242-1.989,0.548-2.421,0.734L28.885,140.073L28.885,140.073z"/>
	<path fill="#FFFFFF" d="M51.831,146.383c-3.947,0.626-7.505-1.799-8.241-6.442c-0.78-4.92,2.012-8.318,6.05-8.957
		c4.219-0.67,7.56,1.944,8.267,6.408c0.866,5.465-2.554,8.435-6.045,8.986L51.831,146.383L51.831,146.383z M51.604,144.365
		c2.549-0.404,4.083-3.105,3.553-6.445c-0.395-2.489-2.134-5.42-5.292-4.92c-3.127,0.496-4.032,3.627-3.589,6.421
		c0.509,3.219,2.716,5.357,5.297,4.948L51.604,144.365L51.604,144.365z"/>
	<polygon fill="#FFFFFF" points="61.694,122.61 64.388,122.375 66.292,144.115 63.596,144.353 	"/>
	<polygon fill="#FFFFFF" points="72.673,121.767 75.372,121.577 76.895,143.351 74.196,143.538 	"/>
	<path fill="#FFFFFF" d="M88.91,142.913c-3.995,0.07-7.182-2.825-7.263-7.528c-0.087-4.979,3.151-7.956,7.239-8.026
		c4.272-0.073,7.214,2.979,7.293,7.498c0.097,5.531-3.703,7.996-7.238,8.058L88.91,142.913L88.91,142.913z M88.967,140.883
		c2.581-0.044,4.475-2.506,4.417-5.887c-0.044-2.521-1.36-5.664-4.555-5.606c-3.166,0.053-4.498,3.028-4.449,5.855
		c0.057,3.258,1.944,5.686,4.556,5.639L88.967,140.883L88.967,140.883z"/>
	<path fill="#FFFFFF" d="M110.011,131.729l3.317,0.117c2.212,0.075,3.028-0.418,3.14-2.722l0.555,0.021l-0.241,6.881l-0.554-0.02
		c0.051-2.306-0.729-2.855-2.942-2.933l-3.317-0.116l-0.212,6.083c-0.091,2.58-0.116,3.349,2.771,3.449l-0.02,0.554l-8.662-0.304
		l0.018-0.554c2.889,0.103,2.916-0.666,3.006-3.248l0.438-12.532c0.092-2.582,0.117-3.351-2.771-3.451l0.021-0.554l15.114,0.529
		l0.028,4.461l-0.522-0.019c-0.753-3.071-1.909-3.419-4.768-3.519l-4.116-0.146L110.011,131.729L110.011,131.729z"/>
	<path fill="#FFFFFF" d="M122.108,135.456c-0.27,3.062,1.021,6.631,4.359,6.923c2.205,0.193,3.512-0.987,4.391-2.917l0.434,0.346
		c-0.768,2.772-2.986,5.2-6.079,4.93c-3.337-0.293-5.721-3.369-5.354-7.564c0.347-3.949,2.646-7.327,6.996-6.945
		c3.152,0.274,5.035,2.754,4.744,6.061L122.108,135.456L122.108,135.456z M128.558,135.095c0.166-1.897-0.636-3.666-2.811-3.855
		c-1.807-0.158-3.25,1.535-3.527,3.302L128.558,135.095L128.558,135.095z"/>
	<path fill="#FFFFFF" d="M139.031,143.252c-0.222,1.8,0.454,2.101,1.854,2.304l-0.067,0.549l-6.682-0.82l0.067-0.551
		c1.405,0.144,2.135,0.017,2.354-1.784l1.789-14.554c0.254-2.076-0.387-2.153-0.813-2.207c-0.335-0.041-0.746,0.033-1.066,0.117
		l-0.149-0.545l4.324-1.172l0.672,0.082L139.031,143.252L139.031,143.252z"/>
	<path fill="#FFFFFF" d="M148.594,144.8c-0.284,1.792,0.382,2.114,1.772,2.367l-0.088,0.545l-6.647-1.053l0.087-0.547
		c1.4,0.19,2.133,0.089,2.417-1.702l1.175-7.408c0.325-2.063-0.312-2.165-0.735-2.231c-0.335-0.054-0.749,0.006-1.071,0.078
		l-0.131-0.55l4.363-1.021l0.668,0.104L148.594,144.8L148.594,144.8z M150.278,126.112c0.818,0.131,1.382,0.904,1.252,1.724
		c-0.131,0.82-0.903,1.382-1.725,1.252c-0.818-0.129-1.382-0.903-1.252-1.724C148.685,126.545,149.458,125.983,150.278,126.112
		L150.278,126.112z"/>
	<path fill="#FFFFFF" d="M164.56,150.744l-11.918-2.315l0.104-0.544l11.278-10.177l-4.043-0.786
		c-2.444-0.475-3.14-0.608-3.938,2.054l-0.543-0.105l0.728-3.741l11.347,2.205l-0.104,0.543l-11.341,10.166l4.558,0.885
		c2.715,0.528,3.434,0.542,4.314-2.387l0.544,0.106L164.56,150.744L164.56,150.744z"/>
	<path fill="none" stroke="#000000" stroke-width="0.8458" stroke-miterlimit="2.6131" d="M24.199,130.887
		c1.211-0.509,2.827-1.042,4.932-1.487c2.586-0.551,4.608-0.353,6.041,0.476c1.316,0.726,2.322,2.052,2.705,3.856
		c0.39,1.834,0.155,3.393-0.673,4.668c-1.07,1.768-3.165,2.998-5.722,3.541c-0.781,0.166-1.51,0.291-2.142,0.268l1.725,8.119
		l-2.616,0.557L24.199,130.887L24.199,130.887z M28.885,140.073c0.603,0.027,1.368-0.071,2.209-0.25
		c3.187-0.678,4.75-2.646,4.167-5.381c-0.575-2.707-2.744-3.598-5.63-2.982c-1.143,0.242-1.989,0.548-2.421,0.734L28.885,140.073
		L28.885,140.073z M51.831,146.383c-3.947,0.626-7.505-1.799-8.241-6.442c-0.78-4.92,2.012-8.318,6.05-8.957
		c4.219-0.67,7.56,1.944,8.267,6.408c0.866,5.465-2.554,8.435-6.045,8.986L51.831,146.383L51.831,146.383z M51.604,144.365
		c2.549-0.404,4.083-3.105,3.553-6.445c-0.395-2.489-2.134-5.42-5.292-4.92c-3.127,0.496-4.032,3.627-3.589,6.421
		c0.509,3.219,2.716,5.357,5.297,4.948L51.604,144.365L51.604,144.365z M61.694,122.61l2.694-0.235l1.904,21.74l-2.695,0.235
		L61.694,122.61L61.694,122.61z M72.673,121.767l2.699-0.188l1.523,21.772l-2.698,0.188L72.673,121.767L72.673,121.767z
		 M88.91,142.913c-3.995,0.07-7.182-2.825-7.263-7.528c-0.087-4.979,3.151-7.956,7.239-8.026c4.272-0.073,7.214,2.979,7.293,7.498
		c0.097,5.531-3.703,7.996-7.238,8.058L88.91,142.913L88.91,142.913z M88.967,140.883c2.581-0.044,4.475-2.506,4.417-5.887
		c-0.044-2.521-1.36-5.664-4.555-5.606c-3.166,0.053-4.498,3.028-4.449,5.855c0.057,3.258,1.944,5.686,4.556,5.639L88.967,140.883
		L88.967,140.883z M110.011,131.729l3.317,0.117c2.212,0.075,3.028-0.418,3.14-2.722l0.555,0.021l-0.241,6.881l-0.554-0.02
		c0.051-2.306-0.729-2.855-2.942-2.933l-3.317-0.116l-0.212,6.083c-0.091,2.58-0.116,3.349,2.771,3.449l-0.02,0.554l-8.662-0.304
		l0.018-0.554c2.889,0.103,2.916-0.666,3.006-3.248l0.438-12.532c0.092-2.582,0.117-3.351-2.771-3.451l0.021-0.554l15.114,0.529
		l0.028,4.461l-0.522-0.019c-0.753-3.071-1.909-3.419-4.768-3.519l-4.116-0.146L110.011,131.729L110.011,131.729z M122.108,135.456
		c-0.27,3.062,1.021,6.631,4.359,6.923c2.205,0.193,3.512-0.987,4.391-2.917l0.434,0.346c-0.768,2.772-2.986,5.2-6.079,4.93
		c-3.337-0.293-5.721-3.369-5.354-7.564c0.347-3.949,2.646-7.327,6.996-6.945c3.152,0.274,5.035,2.754,4.744,6.061L122.108,135.456
		L122.108,135.456z M128.558,135.095c0.166-1.897-0.636-3.666-2.811-3.855c-1.807-0.158-3.25,1.535-3.527,3.302L128.558,135.095
		L128.558,135.095z M139.031,143.252c-0.222,1.8,0.454,2.101,1.854,2.304l-0.067,0.549l-6.682-0.82l0.067-0.551
		c1.405,0.144,2.135,0.017,2.354-1.784l1.789-14.554c0.254-2.076-0.387-2.153-0.813-2.207c-0.335-0.041-0.746,0.033-1.066,0.117
		l-0.149-0.545l4.324-1.172l0.672,0.082L139.031,143.252L139.031,143.252z M148.594,144.8c-0.284,1.792,0.382,2.114,1.772,2.367
		l-0.088,0.545l-6.647-1.053l0.087-0.547c1.4,0.19,2.133,0.089,2.417-1.702l1.175-7.408c0.325-2.063-0.312-2.165-0.735-2.231
		c-0.335-0.054-0.749,0.006-1.071,0.078l-0.131-0.55l4.363-1.021l0.668,0.104L148.594,144.8L148.594,144.8z M150.278,126.112
		c0.818,0.131,1.382,0.904,1.252,1.724c-0.131,0.82-0.903,1.382-1.725,1.252c-0.818-0.129-1.382-0.903-1.252-1.724
		C148.685,126.545,149.458,125.983,150.278,126.112L150.278,126.112z M164.56,150.744l-11.918-2.315l0.104-0.544l11.278-10.177
		l-4.043-0.786c-2.444-0.475-3.14-0.608-3.938,2.054l-0.543-0.105l0.728-3.741l11.347,2.205l-0.104,0.543l-11.341,10.166
		l4.558,0.885c2.715,0.528,3.434,0.542,4.314-2.387l0.544,0.106L164.56,150.744L164.56,150.744z"/>
	<path fill="#FFFFFF" d="M86.33,37.125l12.18-4.994c5.114-0.487,9.621,1.706,13.396,6.455l11.325,28.744
		c3.533,0.73,6.699,3.167,9.623,7.186l3.53,18.025l-0.485,8.892l-1.463,8.525l0.976,7.916l-6.942,5.236
		c-4.75,1.949-9.377,1.828-14.007-0.242l-13.519-5.725l-10.96-0.73l0.729-1.949l-1.217-0.242l-5.237,3.409l-7.916,1.826
		l-8.525-2.069l-8.161-5.236l-3.776-6.699l-0.73-7.916l1.706-7.308l4.505-8.16l4.263-5.48l5.725-4.75l6.942-4.263l3.532-1.705
		l-1.827-6.333l0.244-5.481l-2.192-2.191l-0.487-3.046l2.436-2.192l1.827-1.217l0.243-3.289l1.949-3.289L86.33,37.125L86.33,37.125z
		"/>
	<path fill="none" stroke="#000000" stroke-width="1.6917" stroke-miterlimit="2.6131" d="M116.413,51.01
		c2.68,5.48,4.871,10.839,6.818,16.32"/>
	<path fill="#FFCB05" stroke="#000000" stroke-width="1.6917" stroke-miterlimit="2.6131" d="M103.624,54.298
		c1.949-0.487,2.559,0.244,1.705,2.436c-2.191,3.289-5.115,5.237-8.769,6.09c-4.264,1.096-8.161,2.679-11.327,5.358
		c-3.41-2.192-5.359-5.846-4.994-11.692c0-4.384,1.706-7.673,4.994-9.865c4.019-1.949,6.576-0.975,8.647,1.34l4.141,4.993
		C99.36,54.664,101.188,54.786,103.624,54.298L103.624,54.298z"/>
	<path fill="none" stroke="#000000" stroke-width="1.6917" stroke-miterlimit="2.6131" d="M87.182,48.452
		c-3.167,4.873-4.141,10.231-3.167,16.199"/>
	<path fill="#ED1651" stroke="#000000" stroke-width="1.6917" stroke-miterlimit="2.6131" d="M91.81,42.241
		c-0.365-5.48,2.193-9.622,7.064-10.109c4.994-0.365,8.893,1.218,12.666,6.09c2.193,3.653,3.29,8.525,4.994,12.788
		c3.654-1.339,4.992-3.776,3.167-7.064c-2.07-2.07-2.07-4.019,0-5.602c2.069-1.949,1.461-3.776,0.364-5.602
		c-1.34-1.949-2.924-2.558-4.75-1.705c3.289-4.629,2.07-8.404-1.097-11.814c-3.288-1.827-5.968-0.487-8.038,4.14
		c-2.436-6.82-6.211-8.891-10.96-7.673c-3.045,2.436-2.68,5.725,0.73,10.231c-4.994-4.628-9.743-5.724-13.641,0.974
		c-1.827,3.653,1.827,5.847,6.211,4.75C83.529,36.394,85.965,39.562,91.81,42.241L91.81,42.241z"/>
	<path fill="none" stroke="#000000" stroke-width="1.6917" stroke-miterlimit="2.6131" d="M99.604,51.619
		c1.949,0,3.531-1.948,3.531-4.385c0-2.436-1.582-4.385-3.531-4.385c-1.826,0-3.411,1.949-3.411,4.385
		C96.195,49.67,97.778,51.619,99.604,51.619L99.604,51.619z"/>
	<path stroke="#000000" stroke-width="0.3654" stroke-miterlimit="2.6131" d="M98.753,51.497c-0.243-1.218-0.73-2.923,1.096-2.68
		c1.463,0.366,0-1.461,0-1.705c0-1.097,2.192-1.827,2.803-1.097c0.852,0.731,0.121,3.532-0.366,4.02
		c-0.243,0.244-0.853,1.218-1.583,1.218c-0.366,0-0.487,0.366-0.975,0.366C99.483,51.619,98.753,51.741,98.753,51.497L98.753,51.497
		z"/>
	<path fill="none" stroke="#000000" stroke-width="1.6917" stroke-miterlimit="2.6131" d="M106.791,50.401
		c2.681-1.949,7.551,5.358,3.409,7.794 M85.842,37.247c-2.557,1.583-3.897,4.141-3.897,7.917c-5.603,3.044-5.603,6.211-1.706,9.5
		 M85.599,46.26c1.461,0,2.558-1.461,2.558-3.167c0-1.827-1.096-3.288-2.558-3.288c-1.34,0-2.436,1.461-2.436,3.288
		C83.163,44.798,84.259,46.26,85.599,46.26L85.599,46.26z"/>
	<path stroke="#000000" stroke-width="1.6917" stroke-miterlimit="2.6131" d="M85.721,46.016c-0.244-0.121-0.853-0.73-0.853-1.095
		c0-0.122,0-0.244,0-0.366c0,0,0.243-0.243,0.365-0.243c0.365,0,0.121-0.609,0.121-0.852c0,0,0-0.366,0-0.488
		c0-0.122,0.488-0.852,0.61-0.852c0.121-0.122,0.243-0.122,0.365-0.122c0,0,0.609-0.122,0.73-0.122c0.122,0,0.853,0.122,0.853,0.244
		c0,0.365,0.121,0.852,0.121,1.34l-0.365,0.974c-0.244,0.244-0.365,0.853-0.731,1.096c0,0-0.609,0.731-0.609,0.244
		c0,0-0.244,0.366-0.244,0.243C86.086,45.772,85.721,46.138,85.721,46.016L85.721,46.016z"/>
	<path stroke="#000000" stroke-width="1.6917" stroke-miterlimit="2.6131" d="M102.528,38.952l0.365,0.366h0.121l0.365,0.244h0.121
		h0.244v0.122l0,0h0.122c0,0,0,0,0.243,0c0.121,0,0.365,0,0.486,0l0.122,0.243c0.121,0.244,0.243-0.122,0.243-0.122l0.244-0.122
		v-0.244c0-0.244-0.244-0.122-0.244-0.122l-0.122-0.123c-0.121-0.122,0-0.122-0.243-0.122c0,0,0-0.122-0.121-0.122l-0.244-0.122
		h-0.121v-0.244l-0.243-0.121l-0.122-0.122v-0.122h-0.244V38.1h-0.121v-0.122l0,0l0,0h-0.123h-0.121h-0.121h-0.121l0,0h-0.121
		h-0.123c-0.244,0-0.244,0-0.244,0l-0.243,0.122c0,0.122,0.122,0.244,0.122,0.244l0.121,0.122l0,0v0.121v0.122
		C102.406,38.83,102.406,38.83,102.528,38.952L102.528,38.952z"/>
	<path fill="none" stroke="#000000" stroke-width="1.6917" stroke-miterlimit="2.6131" d="M83.65,66.965
		c2.801-2.923,6.455-4.75,10.961-5.603c3.533-0.244,6.455-2.314,9.135-5.115"/>
	<path fill="#ED1651" stroke="#000000" stroke-width="1.6917" stroke-miterlimit="2.6131" d="M90.713,64.895
		c1.096,2.07,0.975,3.897,0,5.48c-2.313,4.872-1.096,7.064,3.045,6.699c0.974-0.121,1.949-0.853,2.802-2.07
		c1.218,0.73,2.923,0.609,4.384,0c1.949-1.096,2.312-3.532,2.07-7.551c-0.121-2.314-0.242-4.628-1.219-6.942
		c-1.826,1.097-3.652,2.071-5.602,2.314C94.247,63.433,92.419,64.164,90.713,64.895L90.713,64.895z"/>
	<path fill="none" stroke="#000000" stroke-width="1.6917" stroke-miterlimit="2.6131" d="M104.964,78.048
		c1.096-2.68,2.559-4.872,4.508-6.577c-1.22,2.436-1.463,4.75-0.731,7.064c0.853-4.019,3.045-7.429,6.819-10.23
		c3.897-2.436,10.109-1.34,13.885,2.435c4.386,3.289,6.334,12.911,6.82,21.924c0.243,3.532,0.731,7.063-1.096,10.595
		c-1.098,3.776-0.486,7.917,0.243,11.814c0.487,4.507-3.045,7.062-10.718,9.256c-5.237,0.854-11.57-1.461-18.392-5.115
		c-5.479-2.68-11.083-3.654-17.051-2.558c3.167-6.942,9.257-11.083,21.313-12.302c-2.191-7.063-0.244-13.641,2.559-20.705
		c-1.584,2.436-1.584,4.506-2.559,7.064c-1.34-1.706-2.191-3.41-2.436-4.993 M82.311,65.381
		C68.67,71.228,59.536,80.606,55.517,94.368c-2.193,14.373,4.749,21.558,18.025,24.725c4.75,0.975,9.5-0.121,14.25-3.41
		c3.045-2.68,2.437-4.994-1.948-7.063c7.307,1.948,12.667-7.187,3.045-8.403c11.326,1.096,7.794-10.962-3.045-9.744
		c6.211-0.731,6.942-4.385,4.019-9.866c-1.948-2.314-4.872-2.557-8.038-1.705c1.218,4.385,0.73,8.404-1.827,11.571
		c-3.167,3.289-7.186,1.826-11.449-1.097l2.802,1.706c1.461-6.577,5.359-11.084,10.231-14.981"/>
	<path fill="#FFFFFF" stroke="#FFFFFF" stroke-width="0.3654" stroke-miterlimit="2.6131" d="M51.862,171.707
		c29.474,8.039,58.95,7.308,88.543,0c2.193-0.976,2.802-2.923,2.558-4.385v-11.813c0-1.947-3.166-4.264-4.871-3.167
		c-28.256,7.308-56.512,7.917-84.769-0.487c-1.826-0.485-4.263,1.097-4.384,2.924v13.031
		C48.939,169.637,49.792,171.099,51.862,171.707L51.862,171.707z"/>
	<path fill="#ED1C24" stroke="#ED1C24" stroke-width="0.3654" stroke-miterlimit="2.6131" d="M53.688,170.61
		c28.257,7.43,56.633,6.82,84.891,0.121c2.191-0.729,2.68-1.947,2.559-3.166v-9.742c0-3.047,0-4.629-4.873-3.167
		c-27.16,7.062-54.198,7.186-81.236-0.487c-3.775-0.975-4.263,0.121-4.141,3.044v10.841
		C50.766,169.394,51.618,170.124,53.688,170.61L53.688,170.61z"/>
	<polygon points="59.468,159.935 60.749,160.254 61.699,163.532 62.413,160.669 63.711,160.993 62.417,166.183 61.119,165.858 
		60.173,162.599 59.463,165.446 58.174,165.124 	"/>
	<path d="M63.74,164.024c0.167-0.855,0.5-1.482,1.002-1.881c0.501-0.397,1.117-0.525,1.846-0.385
		c0.748,0.146,1.278,0.492,1.592,1.039c0.313,0.549,0.388,1.244,0.224,2.09c-0.12,0.612-0.306,1.1-0.559,1.456
		c-0.253,0.359-0.568,0.615-0.944,0.769c-0.376,0.154-0.814,0.183-1.312,0.085c-0.507-0.099-0.908-0.273-1.202-0.526
		c-0.296-0.253-0.507-0.604-0.634-1.052C63.625,165.171,63.621,164.64,63.74,164.024L63.74,164.024z M65.127,164.306
		c-0.102,0.53-0.093,0.93,0.03,1.193c0.124,0.264,0.331,0.424,0.621,0.48c0.298,0.058,0.55-0.012,0.758-0.207
		c0.207-0.193,0.367-0.586,0.482-1.174c0.096-0.494,0.081-0.871-0.045-1.135c-0.125-0.261-0.334-0.42-0.627-0.477
		c-0.279-0.055-0.527,0.018-0.741,0.217S65.231,163.771,65.127,164.306L65.127,164.306z"/>
	<polygon points="71.342,163.065 72.743,163.265 72.482,165.118 74.011,165.333 74.271,163.479 75.681,163.676 74.936,168.974 
		73.527,168.774 73.828,166.632 72.3,166.417 71.999,168.56 70.598,168.362 	"/>
	<path d="M78.843,168.738l-1.589-0.169l-0.32,0.854l-1.436-0.151l2.262-5.141l1.542,0.162l1.149,5.499l-1.473-0.153L78.843,168.738
		L78.843,168.738z M78.666,167.562l-0.293-1.969l-0.699,1.863L78.666,167.562L78.666,167.562z"/>
	<polygon points="80.256,164.546 81.825,164.653 82.62,166.503 83.666,164.783 85.226,164.894 83.229,167.869 83.074,170.104 
		81.662,170.005 81.819,167.771 	"/>
	<path d="M87.398,167.823c0.016-0.872,0.235-1.549,0.66-2.026c0.425-0.479,1.009-0.712,1.751-0.698
		c0.762,0.012,1.344,0.262,1.748,0.746c0.404,0.484,0.598,1.157,0.583,2.018c-0.01,0.627-0.11,1.137-0.297,1.533
		c-0.187,0.396-0.452,0.703-0.796,0.92c-0.345,0.217-0.77,0.319-1.278,0.312c-0.516-0.009-0.941-0.112-1.276-0.31
		c-0.334-0.198-0.603-0.508-0.806-0.928C87.483,168.972,87.388,168.449,87.398,167.823L87.398,167.823z M88.813,167.858
		c-0.01,0.539,0.069,0.931,0.237,1.168c0.167,0.24,0.398,0.361,0.694,0.367c0.303,0.004,0.54-0.106,0.71-0.334
		c0.171-0.229,0.261-0.643,0.272-1.242c0.008-0.502-0.072-0.871-0.241-1.106c-0.17-0.235-0.403-0.356-0.701-0.36
		c-0.285-0.006-0.516,0.107-0.692,0.342C88.916,166.924,88.822,167.313,88.813,167.858L88.813,167.858z"/>
	<polygon points="92.321,165.385 96.616,165.385 96.616,166.706 95.176,166.706 95.176,170.731 93.762,170.731 93.762,166.706 
		92.321,166.706 	"/>
	<path d="M97.292,170.726l-0.093-5.349l2.353-0.042c0.438-0.008,0.771,0.03,1.004,0.114c0.231,0.083,0.422,0.243,0.566,0.478
		c0.145,0.233,0.22,0.521,0.227,0.861c0.006,0.296-0.045,0.554-0.148,0.77c-0.105,0.219-0.251,0.396-0.438,0.531
		c-0.121,0.087-0.285,0.16-0.494,0.221c0.17,0.062,0.293,0.125,0.371,0.189c0.053,0.043,0.129,0.136,0.23,0.277
		s0.168,0.25,0.203,0.328l0.711,1.541l-1.6,0.027l-0.778-1.624c-0.099-0.209-0.187-0.346-0.261-0.407
		c-0.104-0.08-0.217-0.121-0.346-0.119l-0.123,0.004l0.038,2.174L97.292,170.726L97.292,170.726z M98.659,167.515l0.592-0.01
		c0.062-0.002,0.188-0.027,0.369-0.079c0.092-0.022,0.168-0.081,0.225-0.171c0.057-0.092,0.086-0.193,0.082-0.311
		c-0.002-0.172-0.05-0.303-0.145-0.394c-0.096-0.091-0.271-0.134-0.525-0.129l-0.615,0.011L98.659,167.515L98.659,167.515z"/>
	<path d="M101.826,167.929c-0.045-0.871,0.126-1.562,0.518-2.068c0.39-0.506,0.955-0.779,1.697-0.818
		c0.761-0.041,1.358,0.168,1.795,0.623c0.438,0.456,0.679,1.113,0.724,1.973c0.032,0.625-0.031,1.142-0.188,1.549
		c-0.159,0.41-0.402,0.733-0.729,0.975c-0.33,0.24-0.746,0.374-1.254,0.4c-0.515,0.026-0.945-0.047-1.294-0.222
		c-0.348-0.175-0.639-0.463-0.87-0.866C101.991,169.065,101.858,168.553,101.826,167.929L101.826,167.929z M103.239,167.865
		c0.027,0.538,0.135,0.922,0.318,1.149c0.183,0.227,0.422,0.332,0.717,0.315c0.304-0.017,0.531-0.144,0.687-0.384
		c0.154-0.239,0.216-0.658,0.185-1.256c-0.025-0.504-0.133-0.865-0.317-1.09c-0.185-0.224-0.427-0.326-0.724-0.312
		c-0.285,0.017-0.508,0.146-0.668,0.39C103.276,166.926,103.211,167.321,103.239,167.865L103.239,167.865z"/>
	<polygon points="108.997,164.635 110.854,164.438 111.899,167.603 112.267,164.291 114.112,164.097 114.673,169.417 
		113.521,169.537 113.095,165.481 112.636,169.631 111.592,169.741 110.281,165.776 110.708,169.834 109.558,169.955 	"/>
	<polygon points="115.002,163.784 118.772,163.319 118.911,164.454 116.546,164.744 116.647,165.59 118.847,165.319 
		118.979,166.403 116.782,166.674 116.911,167.718 119.345,167.418 119.493,168.622 115.653,169.093 	"/>
	<path d="M121.218,162.885l1.397-0.221l0.454,2.869c0.097,0.603,0.123,1.067,0.08,1.396c-0.041,0.33-0.184,0.627-0.426,0.889
		c-0.242,0.263-0.58,0.428-1.013,0.496c-0.456,0.07-0.821,0.056-1.097-0.049c-0.273-0.104-0.502-0.283-0.684-0.539
		c-0.181-0.256-0.314-0.584-0.404-0.988l1.305-0.426c0.039,0.232,0.084,0.402,0.136,0.512c0.052,0.107,0.121,0.189,0.212,0.246
		c0.061,0.037,0.141,0.049,0.239,0.033c0.157-0.025,0.263-0.111,0.313-0.259c0.052-0.146,0.053-0.382,0-0.704L121.218,162.885
		L121.218,162.885z"/>
	<path d="M123.741,164.89c-0.167-0.856-0.094-1.562,0.224-2.121c0.315-0.558,0.839-0.905,1.567-1.047
		c0.746-0.146,1.369-0.023,1.863,0.366c0.496,0.392,0.826,1.009,0.99,1.853c0.119,0.615,0.129,1.136,0.028,1.562
		c-0.101,0.428-0.297,0.781-0.588,1.064c-0.292,0.283-0.687,0.475-1.187,0.57c-0.506,0.098-0.943,0.086-1.312-0.037
		c-0.368-0.125-0.695-0.371-0.981-0.74C124.062,165.992,123.858,165.502,123.741,164.89L123.741,164.89z M125.131,164.629
		c0.104,0.53,0.263,0.896,0.476,1.095c0.213,0.198,0.465,0.271,0.756,0.213c0.298-0.058,0.507-0.215,0.625-0.475
		c0.119-0.259,0.121-0.682,0.008-1.27c-0.096-0.494-0.252-0.84-0.467-1.034c-0.215-0.195-0.469-0.265-0.76-0.208
		c-0.281,0.054-0.481,0.214-0.606,0.479C125.038,163.694,125.026,164.094,125.131,164.629L125.131,164.629z"/>
	<path d="M129.679,166.36l-1.203-5.213l2.293-0.528c0.424-0.099,0.76-0.132,1.004-0.099s0.463,0.15,0.652,0.351
		c0.192,0.198,0.326,0.464,0.401,0.795c0.067,0.289,0.071,0.551,0.014,0.785c-0.057,0.233-0.161,0.437-0.315,0.61
		c-0.101,0.108-0.246,0.215-0.438,0.316c0.178,0.025,0.312,0.062,0.4,0.109c0.062,0.029,0.156,0.104,0.283,0.223
		c0.129,0.118,0.219,0.211,0.27,0.279l1.016,1.359l-1.558,0.358l-1.103-1.426c-0.14-0.185-0.252-0.3-0.34-0.345
		c-0.115-0.059-0.236-0.073-0.361-0.045l-0.118,0.027l0.487,2.118L129.679,166.36L129.679,166.36z M130.349,162.937l0.574-0.133
		c0.062-0.014,0.18-0.064,0.346-0.154c0.086-0.043,0.147-0.112,0.186-0.215c0.037-0.1,0.043-0.205,0.018-0.318
		c-0.039-0.167-0.113-0.286-0.227-0.354c-0.11-0.067-0.291-0.073-0.539-0.017l-0.602,0.138L130.349,162.937L130.349,162.937z"/>
</g>
</svg>
