<?xml version="1.0" encoding="utf-8"?>
<!-- Generator: Adobe Illustrator 16.0.0, SVG Export Plug-In . SVG Version: 6.00 Build 0)  -->
<!DOCTYPE svg PUBLIC "-//W3C//DTD SVG 1.1//EN" "http://www.w3.org/Graphics/SVG/1.1/DTD/svg11.dtd">
<svg version="1.1" id="Layer_1" xmlns="http://www.w3.org/2000/svg" xmlns:xlink="http://www.w3.org/1999/xlink" x="0px" y="0px"
	 width="175.748px" height="89.489px" viewBox="8.504 48.094 175.748 89.489" enable-background="new 8.504 48.094 175.748 89.489"
	 xml:space="preserve">
<g>
	<path fill="#62BB46" d="M25.974,88.282c-2.391,0-4.357-0.769-5.9-2.306c-1.485-1.536-2.146-3.5-1.978-5.89
		c0.04-0.569,0.139-1.167,0.295-1.792h30.137c2.447,0,4.383,0.796,5.809,2.39c1.486,1.537,2.144,3.529,1.973,5.977
		c-0.056,0.796-0.125,1.365-0.206,1.706l-1.2,4.953c-0.651,2.788-2.237,5.123-4.759,7c-2.461,1.822-5.114,2.732-7.96,2.732H27.074
		c-1.365,0-2.684,0.541-3.956,1.622c-1.213,1.081-1.982,2.306-2.306,3.671c-1.613,3.528-3.142,5.861-4.587,7.002
		c-2.412,1.934-4.985,2.93-7.721,2.987l3.71-15.196c0.647-2.732,2.142-5.01,4.49-6.831c2.404-1.821,5-2.732,7.79-2.732h17.415
		c1.823,0,2.938-0.881,3.344-2.646c0.409-1.765-0.269-2.647-2.034-2.647H25.974L25.974,88.282z"/>
	<path fill="#62BB46" d="M143.565,78.294c-0.655,2.846-2.158,5.236-4.515,7.17c-2.352,1.879-4.95,2.818-7.796,2.818h-10.244
		c-1.367,0-2.656,0.54-3.869,1.622c-1.215,1.081-1.982,2.306-2.307,3.671l-3.688,14.855c-0.707,2.788-2.236,5.149-4.592,7.086
		c-2.353,1.879-4.924,2.817-7.711,2.817l7.396-30.052c0.708-2.789,2.238-5.15,4.595-7.087c2.354-1.934,4.927-2.901,7.716-2.901
		H143.565L143.565,78.294z"/>
	<path fill="#62BB46" d="M154.448,88.367c-1.708,0-2.795,0.883-3.26,2.647c-0.465,1.764,0.185,2.647,1.949,2.647h7.854
		c2.333,0,4.217,0.74,5.649,2.22c1.438,1.422,2.074,3.302,1.91,5.634c-0.035,0.514-0.131,1.053-0.283,1.623h-20.062l-0.11,0.34
		c-0.433,1.311-0.287,2.478,0.438,3.502c0.786,0.967,1.86,1.451,3.229,1.451h15.194c2.447,0,4.386,0.768,5.813,2.305
		c1.435,1.479,2.064,3.442,1.894,5.891c-0.039,0.568-0.14,1.168-0.296,1.793h-29.965c-2.448,0-4.443-0.77-5.986-2.304
		c-1.543-1.538-2.229-3.529-2.057-5.978c0.035-0.513,0.132-1.082,0.289-1.707l4.904-20.063c0.707-2.788,2.293-5.122,4.758-6.999
		c2.471-1.936,5.127-2.904,7.974-2.904h29.965c-0.707,2.789-2.237,5.15-4.593,7.086c-2.295,1.878-4.864,2.816-7.711,2.816
		L154.448,88.367L154.448,88.367z"/>
	<path fill="#62BB46" d="M93.493,78.228c0.113-0.305,0.229-0.604,0.35-0.895l0.092-0.206c4.476-9.476,17.326-14.874,17.326-14.874
		c7.607-2.58,11.723-6.569,11.723-6.569c-0.313,0.426-6.188,3.095-9.457,4.051c-3.317,0.97-7.537,3.428-11.248,5.7
		c-3.709,2.272-8.276,8.71-8.276,8.71c2.417-22.366,23.229-20.449,27.786-21.656c4.557-1.207,8.345-4.396,8.345-4.396
		c-2.091,21.114-17.329,26.411-26.134,27.434l-0.157,0.134l-7.724,32.597c-0.711,2.846-2.274,5.237-4.685,7.172
		c-2.413,1.936-5.042,2.903-7.886,2.903H63.483c-2.448,0-4.415-0.771-5.9-2.308c-1.487-1.536-2.144-3.527-1.972-5.975
		c0.04-0.568,0.138-1.168,0.296-1.794l7.561-29.965c2.391,0,4.326,0.796,5.808,2.39c1.544,1.537,2.119,4.304,1.961,4.929
		l-3.892,17.782c-0.322,1.364-0.15,2.561,0.518,3.584c0.672,0.967,1.72,1.451,3.144,1.451H81.25c1.365,0,2.65-0.455,3.851-1.365
		c1.206-0.969,1.972-2.136,2.293-3.5l3.995-18.037C91.8,83.915,92.51,80.877,93.493,78.228L93.493,78.228z"/>
	<path fill="#B9C3CA" d="M32.299,131.153c-0.147-0.033-0.352-0.067-0.567-0.067h-2.708c-0.238,0-0.363,0.124-0.419,0.361
		l-0.737,2.916c-0.057,0.237,0,0.36,0.238,0.36h2.708c0.216,0,0.443-0.033,0.613-0.066l-0.385,0.906h-4.137
		c-0.929,0-1.167-0.532-0.963-1.371l0.646-2.575c0.204-0.839,0.714-1.37,1.643-1.37h4.136L32.299,131.153L32.299,131.153z"/>
	<path fill="#B9C3CA" d="M39.29,131.447l-0.736,2.916c-0.057,0.237-0.182,0.36-0.42,0.36h-1.767c-0.238,0-0.295-0.123-0.238-0.36
		l0.736-2.916c0.057-0.237,0.181-0.361,0.419-0.361h1.768C39.29,131.086,39.347,131.21,39.29,131.447L39.29,131.447z
		 M41.217,131.617c0.203-0.839-0.034-1.37-0.963-1.37h-3.762c-0.929,0-1.439,0.531-1.643,1.37l-0.646,2.575
		c-0.204,0.839,0.034,1.371,0.963,1.371h3.762c0.929,0,1.439-0.532,1.643-1.371L41.217,131.617L41.217,131.617z"/>
	<path fill="#B9C3CA" d="M49.874,129.218c-0.159-0.033-0.363-0.066-0.578-0.066h-1.439c-0.238,0-0.362,0.125-0.419,0.365
		l-0.182,0.729h1.881l-0.193,0.791h-1.881l-0.861,3.459c-0.102,0.419-0.159,0.737-0.159,1.069h-2.199
		c0.159-0.332,0.284-0.65,0.386-1.069l0.861-3.459h-1.065l0.192-0.791h1.065l0.136-0.56c0.203-0.844,0.725-1.375,1.654-1.375h2.867
		L49.874,129.218L49.874,129.218z"/>
	<path fill="#B9C3CA" d="M57.511,129.218c-0.159-0.033-0.362-0.066-0.578-0.066h-1.439c-0.238,0-0.363,0.125-0.419,0.365
		l-0.182,0.729h1.881l-0.192,0.791H54.7l-0.861,3.459c-0.103,0.419-0.159,0.737-0.159,1.069h-2.198
		c0.159-0.332,0.283-0.65,0.385-1.069l0.861-3.459h-1.064l0.192-0.791h1.065l0.137-0.56c0.204-0.844,0.725-1.375,1.654-1.375h2.867
		L57.511,129.218L57.511,129.218z"/>
	<path fill="#B9C3CA" d="M63.765,131.447l-0.282,1.104h-2.425l0.283-1.104c0.057-0.237,0.182-0.361,0.419-0.361h1.768
		C63.765,131.086,63.822,131.21,63.765,131.447L63.765,131.447z M65.692,131.616c0.204-0.838-0.034-1.369-0.963-1.369h-3.763
		c-0.929,0-1.438,0.531-1.643,1.369l-0.646,2.576c-0.204,0.839,0.034,1.371,0.963,1.371h4.906l0.386-0.906
		c-0.17,0.033-0.397,0.066-0.612,0.066h-3.479c-0.237,0-0.294-0.123-0.237-0.361l0.249-0.971h4.397L65.692,131.616L65.692,131.616z"
		/>
	<path fill="#B9C3CA" d="M72.967,131.447l-0.284,1.104h-2.425l0.283-1.104c0.057-0.237,0.182-0.361,0.42-0.361h1.768
		C72.967,131.086,73.023,131.21,72.967,131.447L72.967,131.447z M74.894,131.616c0.204-0.838-0.034-1.369-0.964-1.369h-3.762
		c-0.929,0-1.44,0.531-1.643,1.369l-0.646,2.576c-0.203,0.839,0.034,1.371,0.963,1.371h4.907l0.386-0.906
		c-0.17,0.033-0.397,0.066-0.613,0.066h-3.479c-0.238,0-0.295-0.123-0.238-0.361l0.249-0.971h4.396L74.894,131.616L74.894,131.616z"
		/>
	<path fill="#B9C3CA" d="M92.525,129.707h-1.972l0.317-1.263h1.972L92.525,129.707L92.525,129.707z M90.904,136.212
		c-0.182,0.714-0.714,1.371-1.643,1.371h-3.026l0.102-0.963c0.25,0.079,0.668,0.125,1.1,0.125h0.917
		c0.329,0,0.488-0.171,0.566-0.477l1.224-4.961c0.102-0.42,0.159-0.738,0.159-1.08h2.085L90.904,136.212L90.904,136.212z"/>
	<path fill="#B9C3CA" d="M100.581,134.487c-0.102,0.419-0.158,0.736-0.158,1.076H98.45l0.091-0.545h-0.022
		c-0.191,0.375-0.396,0.545-0.759,0.545h-2.471c-0.827,0-1.178-0.442-0.941-1.383l0.726-2.896c0.113-0.431,0.146-0.701,0.146-1.04
		h2.085l-1.032,4.117c-0.057,0.248,0.011,0.361,0.26,0.361h1.654c0.261,0,0.375-0.103,0.441-0.361l0.771-3.077
		c0.113-0.431,0.146-0.701,0.146-1.04h2.085L100.581,134.487L100.581,134.487z"/>
	<path fill="#B9C3CA" d="M106.688,129.707h-1.973l0.317-1.263h1.972L106.688,129.707L106.688,129.707z M105.487,134.526
		c-0.103,0.433-0.147,0.705-0.147,1.039h-2.198c0.158-0.334,0.271-0.606,0.375-1.039l0.793-3.217c0.103-0.42,0.158-0.738,0.158-1.08
		h2.086L105.487,134.526L105.487,134.526z"/>
	<path fill="#B9C3CA" d="M114.87,131.153c-0.146-0.033-0.352-0.067-0.566-0.067h-2.709c-0.238,0-0.361,0.124-0.419,0.361
		l-0.737,2.916c-0.057,0.237,0,0.36,0.238,0.36h2.708c0.216,0,0.442-0.033,0.612-0.066l-0.385,0.906h-4.137
		c-0.93,0-1.168-0.532-0.963-1.371l0.646-2.575c0.202-0.839,0.714-1.37,1.643-1.37h4.136L114.87,131.153L114.87,131.153z"/>
	<path fill="#B9C3CA" d="M121.86,131.447l-0.282,1.104h-2.425l0.283-1.104c0.057-0.237,0.181-0.361,0.418-0.361h1.769
		C121.86,131.086,121.918,131.21,121.86,131.447L121.86,131.447z M123.788,131.616c0.203-0.838-0.034-1.369-0.964-1.369h-3.763
		c-0.93,0-1.438,0.531-1.643,1.369l-0.646,2.576c-0.203,0.839,0.035,1.371,0.963,1.371h4.908l0.385-0.906
		c-0.17,0.033-0.396,0.066-0.612,0.066h-3.479c-0.237,0-0.295-0.123-0.237-0.361l0.25-0.971h4.396L123.788,131.616L123.788,131.616z
		"/>
	<path fill="#B9C3CA" d="M144.683,129.218c-0.158-0.033-0.363-0.066-0.578-0.066h-1.438c-0.237,0-0.362,0.125-0.419,0.365
		l-0.182,0.729h1.881l-0.192,0.791h-1.881l-0.86,3.459c-0.103,0.419-0.158,0.737-0.158,1.069h-2.198
		c0.157-0.332,0.282-0.65,0.385-1.069l0.86-3.459h-1.064l0.193-0.791h1.064l0.137-0.56c0.203-0.844,0.725-1.375,1.653-1.375h2.867
		L144.683,129.218L144.683,129.218z"/>
	<path fill="#B9C3CA" d="M150.938,131.447l-0.736,2.916c-0.057,0.237-0.182,0.36-0.42,0.36h-1.768c-0.238,0-0.295-0.123-0.238-0.36
		l0.736-2.916c0.057-0.237,0.182-0.361,0.42-0.361h1.768C150.938,131.086,150.994,131.21,150.938,131.447L150.938,131.447z
		 M152.864,131.617c0.203-0.839-0.034-1.37-0.965-1.37h-3.762c-0.93,0-1.438,0.531-1.643,1.37l-0.646,2.575
		c-0.203,0.839,0.033,1.371,0.963,1.371h3.763c0.93,0,1.438-0.532,1.644-1.371L152.864,131.617L152.864,131.617z"/>
	<path fill="#B9C3CA" d="M160.14,131.447l-0.738,2.916c-0.057,0.237-0.182,0.36-0.418,0.36h-1.769c-0.237,0-0.295-0.123-0.237-0.36
		l0.735-2.916c0.058-0.237,0.183-0.361,0.42-0.361h1.769C160.14,131.086,160.194,131.21,160.14,131.447L160.14,131.447z
		 M162.063,131.617c0.205-0.839-0.033-1.37-0.963-1.37h-3.763c-0.929,0-1.438,0.531-1.644,1.37l-0.646,2.575
		c-0.205,0.839,0.034,1.371,0.964,1.371h3.762c0.93,0,1.438-0.532,1.644-1.371L162.063,131.617L162.063,131.617z"/>
	<path fill="#B9C3CA" d="M169.347,131.447l-0.734,2.916c-0.057,0.237-0.182,0.36-0.396,0.36h-1.768c-0.249,0-0.328-0.09-0.262-0.36
		l0.736-2.916c0.068-0.249,0.193-0.361,0.442-0.361h1.722C169.347,131.086,169.415,131.188,169.347,131.447L169.347,131.447z
		 M172.101,128.31h-2.086c-0.011,0.344-0.057,0.662-0.158,1.084l-0.351,1.397h-0.045c-0.058-0.328-0.125-0.544-0.487-0.544h-2.447
		c-0.826,0-1.381,0.441-1.619,1.381l-0.646,2.564c-0.238,0.963,0.17,1.371,0.94,1.371h2.562c0.237,0,0.521-0.215,0.656-0.5h0.021
		l-0.012,0.5h1.971c0-0.34,0.033-0.612,0.146-1.043L172.101,128.31L172.101,128.31z"/>
	<path fill="#B9C3CA" d="M81.603,134.349c0.912,0,1.651-0.738,1.651-1.649s-0.739-1.65-1.651-1.65s-1.651,0.739-1.651,1.65
		S80.691,134.349,81.603,134.349L81.603,134.349z"/>
	<path fill="#B9C3CA" d="M131.231,134.349c0.912,0,1.651-0.738,1.651-1.649s-0.739-1.65-1.651-1.65c-0.91,0-1.649,0.739-1.649,1.65
		S130.321,134.349,131.231,134.349L131.231,134.349z"/>
</g>
</svg>
