<?xml version="1.0" encoding="utf-8"?>
<!-- Generator: Adobe Illustrator 16.0.0, SVG Export Plug-In . SVG Version: 6.00 Build 0)  -->
<!DOCTYPE svg PUBLIC "-//W3C//DTD SVG 1.1//EN" "http://www.w3.org/Graphics/SVG/1.1/DTD/svg11.dtd">
<svg version="1.1" id="Layer_1" xmlns="http://www.w3.org/2000/svg" xmlns:xlink="http://www.w3.org/1999/xlink" x="0px" y="0px"
	 width="157.777px" height="165.379px" viewBox="24.589 13.688 157.777 165.379"
	 enable-background="new 24.589 13.688 157.777 165.379" xml:space="preserve">
<g>
	<path fill="#44C8F5" d="M68.59,130.508c7.845-5.224,15.899-0.653,17.205-1.085c2.176-2.836,7.841-9.803,22.218-8.931
		c3.047,0.219,6.103,1.084,9.586,3.046c2.178-9.363,3.264-20.688,3.264-34.194c0-7.191-0.217-13.721-0.651-19.606
		c-5.442,3.705-14.16,6.972-27.445,0.657c-10.892-5.231-20.038-4.141-26.575-1.528c-0.867,7.191-1.304,15.465-1.304,24.611
		C64.886,110.037,65.101,119.84,68.59,130.508L68.59,130.508L68.59,130.508z"/>
	<path fill="#44C8F5" d="M90.367,66.692c0,0,7.626,1.741,13.069,1.306c5.668-0.655,11.547-5.662,10.679-11.547
		c-0.875-5.228-8.714-8.496-12.859-3.483c-2.173,2.831-0.651,6.752-2.608,9.583C95.818,66.907,90.367,66.692,90.367,66.692
		L90.367,66.692L90.367,66.692z"/>
	<path fill="#ED1C24" d="M90.367,13.761c20.042-0.873,36.377,6.098,49.01,20.472c12.411,14.595,18.729,32.89,18.729,54.674
		c0,18.515-4.791,35.066-14.16,49.229c-12.192,18.723-29.616,28.086-52.272,28.086c-22.65,0-40.078-8.932-52.49-26.783
		c-9.801-14.153-14.595-30.926-14.595-50.531c0-21.784,6.315-40.079,18.947-54.452C56.39,19.859,71.853,12.889,90.367,13.761
		L90.367,13.761L90.367,13.761z M91.674,20.731c-11.546,0-20.253,6.751-26.351,20.688c-4.792,11.113-7.19,27.448-7.19,48.573
		c0,25.054,3.703,43.565,11.326,55.547c5.227,8.483,12.415,12.625,22.002,12.625c6.315,0,11.542-1.743,15.896-5.438
		c5.447-4.576,9.801-11.977,12.638-22.219c3.045-10.016,4.575-23.304,4.575-39.641c0-19.602-1.53-33.976-4.575-43.781
		c-3.047-9.584-6.974-16.334-11.765-20.471C103.437,22.692,97.776,20.731,91.674,20.731L91.674,20.731L91.674,20.731z"/>
	<path fill="#ED1C24" d="M86.881,133.56l-18.948,6.75l-0.436,11.324c22.653,3.262,15.467,17.639,59.465,25.918
		c44.001,8.275,55.325-20.04,55.325-20.04s1.087-4.784-4.796-4.784c-5.659,0-6.098,3.908-17.42,2.608
		c-16.125-1.095-35.723-28.961-51.842-30.052c-15.9-0.875-21.125,8.273-21.125,8.273h-0.223V133.56z"/>
	<path fill="#023F88" d="M69.024,142.925h0.219c-5.016-11.761-7.407-27.666-7.407-47.918c0-21.129,2.391-37.248,7.188-48.573
		c6.099-13.723,14.812-20.696,26.135-20.696c6.316,0,11.766,1.962,16.556,6.1l0,0c-0.655-0.868-1.739-1.739-2.61-2.61
		c-4.791-3.922-10.242-5.882-16.339-5.882c-11.547,0-20.258,6.752-26.142,20.473c-4.787,11.325-7.186,27.447-7.186,48.573
		c0,23.311,3.055,40.95,9.587,52.927V142.925L69.024,142.925z"/>
	<path fill="#023F88" d="M134.588,157.942c-46.394-39.846-61.861-19.155-66.655-17.635v2.84c0,0,11.111-8.283,21.132-7.631
		C106.925,136.827,134.588,157.942,134.588,157.942L134.588,157.942L134.588,157.942z"/>
	<path fill="#FFFFFF" d="M86.449,167.962c0,0-6.975-8.273-12.852-18.068c15.685,14.808,23.525,18.068,23.525,18.068H86.449
		L86.449,167.962z"/>
	<path fill="#FFFFFF" d="M109.976,136.173c-7.625-4.137-14.379-4.574-14.379-4.574c3.486-0.869,8.717-3.269,15.68,1.305
		c10.459,6.755,14.375,13.072,19.822,18.951C123.476,144.228,120.646,142.272,109.976,136.173L109.976,136.173L109.976,136.173z"/>
	<path fill="#FFFFFF" d="M165.948,171.231c0,0,12.632-8.276,12.632-13.289c0.221-3.266-3.696-2.176-4.138,1.094
		C173.793,164.923,166.603,171.231,165.948,171.231L165.948,171.231L165.948,171.231z"/>
	<path fill="#FFFFFF" d="M43.537,47.305c8.06-13.723,20.911-24.179,36.377-29.189c-12.417,1.961-23.088,8.059-32.237,18.513
		c-11.981,13.726-17.86,30.713-17.86,51.402c0,11.552,1.961,22.005,5.448,31.588c-2.398-8.278-3.705-17.427-3.705-27.229
		C31.559,74.97,35.695,59.942,43.537,47.305L43.537,47.305L43.537,47.305z"/>
	<path fill="#FFFFFF" d="M75.775,108.074c0,2.175,1.744,4.139,4.138,4.139c2.176,0,4.136-1.964,4.136-4.139
		c0-2.396-1.96-4.142-4.136-4.142C77.519,103.935,75.775,105.681,75.775,108.074L75.775,108.074L75.775,108.074z"/>
	<path fill="#FFFFFF" d="M91.021,108.729c0,3.483,2.614,6.1,6.101,6.1c3.48,0,6.312-2.615,6.312-6.1
		c0-3.485-2.832-6.317-6.312-6.317C93.636,102.411,91.021,105.243,91.021,108.729L91.021,108.729L91.021,108.729z"/>
	<path fill="#FFFFFF" d="M98.423,85.861c0,1.959,1.75,3.482,3.488,3.482c1.964,0,3.488-1.523,3.488-3.482
		c0-1.745-1.524-3.272-3.488-3.272C100.173,82.589,98.423,84.116,98.423,85.861L98.423,85.861L98.423,85.861z"/>
	<path fill="#FFFFFF" d="M111.06,79.758c0,1.529,1.088,2.831,2.619,2.831c1.522,0,2.829-1.302,2.829-2.831
		c0-1.523-1.307-2.835-2.829-2.835C112.147,76.923,111.06,78.235,111.06,79.758L111.06,79.758L111.06,79.758z"/>
	<path fill="#FFFFFF" d="M102.563,55.579c0,1.521,1.312,2.83,2.836,2.83s2.613-1.309,2.613-2.83c0-1.523-1.089-2.611-2.613-2.611
		S102.563,54.056,102.563,55.579L102.563,55.579L102.563,55.579z"/>
	<path fill="#FFFFFF" d="M107.142,98.271c0,1.313,1.088,2.396,2.393,2.396c1.314,0,2.402-1.082,2.402-2.396
		c0-1.303-1.088-2.396-2.402-2.396C108.229,95.874,107.142,96.968,107.142,98.271L107.142,98.271L107.142,98.271z"/>
	<path fill="#FFFFFF" d="M76.865,78.451c0,1.09,0.873,1.963,1.96,1.963c0.871,0,1.744-0.873,1.744-1.963
		c0-0.871-0.874-1.742-1.744-1.742C77.738,76.709,76.865,77.581,76.865,78.451L76.865,78.451L76.865,78.451z"/>
	<path fill="#FFFFFF" d="M73.38,118.313c0,1.307,1.09,2.396,2.395,2.396c1.308,0,2.396-1.091,2.396-2.396
		c0-1.305-1.088-2.394-2.396-2.394C74.47,115.921,73.38,117.009,73.38,118.313L73.38,118.313L73.38,118.313z"/>
	<path fill="#FFFFFF" d="M72.29,88.032c0,2.183,1.96,4.145,4.145,4.145c2.391,0,4.135-1.962,4.135-4.145
		c0-2.392-1.744-4.132-4.135-4.132C74.25,83.899,72.29,85.64,72.29,88.032L72.29,88.032L72.29,88.032z"/>
	<path fill="#FFFFFF" d="M97.34,142.706c-8.274-3.049-17.426-1.956-17.426-1.956c6.751-3.053,14.157-1.963,23.303,2.175
		c13.729,6.315,21.567,15.018,24.181,16.327C113.679,149.894,104.092,145.101,97.34,142.706L97.34,142.706L97.34,142.706z"/>
</g>
</svg>
