<?xml version="1.0" encoding="utf-8"?>
<!-- Generator: Adobe Illustrator 16.0.0, SVG Export Plug-In . SVG Version: 6.00 Build 0)  -->
<!DOCTYPE svg PUBLIC "-//W3C//DTD SVG 1.1//EN" "http://www.w3.org/Graphics/SVG/1.1/DTD/svg11.dtd">
<svg version="1.1" id="Layer_1" xmlns="http://www.w3.org/2000/svg" xmlns:xlink="http://www.w3.org/1999/xlink" x="0px" y="0px"
	 width="176.525px" height="106.194px" viewBox="8.109 43.612 176.525 106.194"
	 enable-background="new 8.109 43.612 176.525 106.194" xml:space="preserve">
<g>
	<path fill="#ED1C24" stroke="#FFFFFF" stroke-width="1.3456" d="M177.074,103.972c-4.493-4.479-11.185-7.037-18.356-7.017
		c-5.279,0.017-10.578,1.465-14.936,4.473c-0.172-0.37-0.367-0.729-0.608-1.059c-2.097-2.856-5.772-2.849-7.342-2.843
		c-7.474,0.021-9.028,3.109-10.796,10.15c-0.01,0.031-1.982,8.191-2.65,10.952l-3.271-13.392c-1.615-6.76-6.549-7.478-8.594-7.471
		l-1.752,0.004l-1.203,0.004c-0.193,0.002-0.367,0.02-0.547,0.031v-0.029c-1.834,0.007-3.459,0.602-4.644,1.688
		c-3.865-1.888-8.568-2.229-12.979-2.215c-5.608,0.018-9.573,1.175-12.357,2.67c-0.031-0.033-0.058-0.07-0.091-0.104
		c-0.887-0.883-2.492-1.937-5.1-1.929c-1.719,0.007-2.882,0.395-3.73,0.677c-0.652,0.218-1.013,0.338-1.678,0.34
		c-0.188-0.012-0.798-0.233-1.242-0.396c-1.551-0.566-3.894-1.422-7.518-1.41c-5.052,0.014-8.063,2.225-8.992,6.573
		c-3.547-3.451-8.23-5.271-13.567-5.254c-3.059,0.01-5.297,0.75-6.933,1.29c-0.807,0.266-1.464,0.477-1.996,0.542
		c-0.165-0.296-0.372-0.89-0.372-1.698v-5.5c0-3.404-1.269-5.383-2.332-6.443c-1.285-1.282-3.033-1.984-4.923-1.979l-2.547,0.008
		c-3.602,0.011-7.236,2.626-7.236,8.446v45.183c0,2.885,0.278,5.832,2.297,7.844c1.855,1.851,4.39,2.082,6.391,2.074
		c2.176-0.006,3.347-0.349,4.548-0.762c0.739-0.254,1.227-0.422,2.616-0.426c1.034-0.003,1.569,0.225,2.54,0.638
		c1.501,0.638,3.556,1.513,7.489,1.5c5.978-0.018,10.896-2.252,14.445-6.297c0.436,1.222,1.06,2.254,1.882,3.073
		c0.953,0.949,2.642,2.081,5.276,2.072l3.185-0.01c1.921-0.005,8.19-0.716,8.19-9.613v-0.731c0.687,2.547,1.951,4.778,3.762,6.583
		c3.035,3.025,7.393,4.619,12.601,4.604c3.57-0.01,6.104-0.981,8.141-1.767c1.551-0.595,2.478-0.932,3.48-0.935
		c0.348-0.004,0.933,0.205,1.552,0.423c1.274,0.448,3.02,1.063,5.453,1.057c7.104-0.021,7.872-5.214,7.872-7.446v-2.188l0.756,2.297
		l-0.042-0.139c1.536,5.283,5.76,7.681,9.033,7.671l1.832-0.006l1.258-0.003c0.204-0.002,0.387-0.021,0.571-0.033v0.031
		c3.12-0.01,7.292-1.392,9.458-7.924c0-0.002,0.869-2.621,2.104-6.34c1.187,3.161,2.94,5.93,5.233,8.217
		c4.466,4.453,10.591,6.797,17.714,6.774c15.755-0.046,25.543-10.01,25.543-26.006C183.962,114.761,181.646,108.528,177.074,103.972
		z"/>
	<path d="M33.469,140.093c5.008-0.014,10.854-3.865,10.854-14.672c0-6.244-1.45-10.992-4.194-13.729
		c-1.709-1.703-3.846-2.563-6.349-2.557c-5.007,0.014-10.854,3.997-10.854,15.172c0,5.942,1.416,10.495,4.096,13.166
		C28.747,139.194,30.977,140.101,33.469,140.093z M14.872,93.996c0-1.764,0.464-3.867,2.677-3.874l2.548-0.007
		c0.685-0.002,1.251,0.215,1.683,0.645c0.646,0.644,0.987,1.753,0.987,3.206v5.502c0,2.055,0.687,3.967,1.837,5.112
		c0.781,0.778,1.755,1.188,2.816,1.185c1.305-0.002,2.479-0.391,3.721-0.802c1.492-0.493,3.182-1.052,5.513-1.058
		c4.176-0.014,7.803,1.396,10.488,4.074c3.425,3.414,5.234,8.742,5.234,15.41c0,13.801-6.059,22.058-16.208,22.086
		c-2.994,0.01-4.363-0.574-5.687-1.136c-1.166-0.496-2.37-1.009-4.344-1.001c-2.146,0.005-3.178,0.36-4.09,0.673
		c-0.793,0.273-1.479,0.511-3.074,0.515c-1.659,0.006-2.631-0.225-3.148-0.74c-0.66-0.657-0.953-2.078-0.953-4.605V93.996z"/>
	<path d="M76.046,107.118c0.002-0.077,0.004-0.151,0.004-0.227c0-1.399-0.272-2.385-0.812-2.922c-0.403-0.4-1.012-0.597-1.858-0.595
		c-0.983,0.003-1.592,0.206-2.296,0.44c-0.802,0.269-1.713,0.572-3.116,0.576c-0.966,0.002-1.826-0.312-2.82-0.676
		c-1.394-0.51-3.127-1.142-5.936-1.134c-3.593,0.011-4.747,1.276-4.747,5.214v31.18c0,2.187,0.439,3.78,1.271,4.61
		c0.501,0.499,1.167,0.739,2.035,0.738l3.184-0.009c1.796-0.006,3.633-0.609,3.633-5.045v-17.174c0-4.522,2.592-7.961,7.124-9.434
		c1.807-0.566,2.881-1.16,3.48-1.924l0.802-1.021l0.051-2.478L76.046,107.118z"/>
	<path d="M141.007,103.989c-0.637-0.868-2.199-0.98-3.645-0.977c-4.348,0.014-4.823,0.516-6.375,6.692c0,0-2.865,11.847-2.86,11.825
		c-0.729,3.254-2.354,5.359-4.136,5.363c-2.885,0.008-3.664-2.935-4.299-5.322c0,0-3.502-14.327-3.504-14.334
		c-0.642-2.688-1.996-3.99-4.138-3.984l-3.502,0.012c-0.526,0.002-1.243,0.104-1.665,0.582c-0.441,0.5-0.596,1.428-0.441,2.68
		l0.146,1.213l2.049,6.225c0,0,8.471,25.747,8.484,25.789c0.936,3.221,3.281,4.38,4.631,4.377l3.661-0.011
		c1.651-0.005,3.728-0.556,5.134-4.791l10.348-31.209C141.517,106.169,141.556,104.735,141.007,103.989z"/>
	<path d="M105.375,107.424l1.767,2.569l0.258,4.451c0.033,0.578,0.051,1.103,0.051,1.604v25.009c0,2.17-0.807,2.869-3.314,2.877
		c-1.646,0.004-2.804-0.402-3.921-0.797c-0.957-0.338-1.948-0.688-3.085-0.684c-1.893,0.006-3.454,0.604-5.105,1.238
		c-1.861,0.717-3.786,1.455-6.515,1.463c-3.968,0.011-7.204-1.119-9.36-3.271c-1.977-1.971-3.021-4.756-3.021-8.055
		c0-9.279,9.521-12.608,17.508-13.769c7.187-0.935,7.965-4.494,7.965-5.98c0-1.867-0.687-3.578-1.932-4.818
		c-1.281-1.277-3.04-1.979-4.952-1.974c-3.464,0.01-5.168,1.608-6.67,3.019c-1.437,1.348-2.676,2.512-5.589,2.521
		c-2.989,0.009-3.171-1.017-3.259-1.509l-0.267-1.504c0.608-0.928,1.204-1.836,1.204-1.836c1.277-1.946,4.767-5.217,13.793-5.244
		C98.781,102.714,103.103,104.115,105.375,107.424z"/>
	<path fill="#ED1C24" d="M89.178,139.255c-2.01,0.005-3.833-0.706-5.134-2.002c-1.23-1.229-1.907-2.868-1.907-4.623
		c0-5.529,7.264-8.326,11.331-8.338c2.008-0.006,3.199,0.762,3.848,1.407c0.943,0.94,1.443,2.286,1.443,3.889
		C98.759,134.543,94.102,139.241,89.178,139.255z"/>
	<path d="M160.408,138.622c6.843-0.02,11.809-6.402,11.809-15.175c0-4.794-1.454-8.886-4.101-11.521
		c-2.038-2.032-4.705-3.103-7.715-3.094c-5.959,0.019-11.969,4.562-11.969,14.675c0,4.941,1.526,9.188,4.303,11.952
		C154.817,137.538,157.472,138.63,160.408,138.622z M159.924,144.847c-5.883,0.019-10.886-1.863-14.474-5.439
		c-3.734-3.725-5.708-9.152-5.708-15.699c0-15.65,11.048-21.236,20.507-21.266c5.967-0.018,11.477,2.054,15.115,5.683
		c3.678,3.667,5.544,8.812,5.544,15.289C180.908,136.796,173.062,144.81,159.924,144.847z"/>
	<path fill="#FFFFFF" d="M31.418,137.913c5.007-0.014,10.854-3.865,10.854-14.672c0-6.244-1.451-10.99-4.195-13.727
		c-1.71-1.705-3.845-2.565-6.349-2.559c-5.007,0.014-10.854,3.997-10.854,15.173c0,5.94,1.417,10.494,4.096,13.166
		C26.695,137.015,28.926,137.92,31.418,137.913z M12.821,91.815c0-1.763,0.465-3.867,2.677-3.874l2.548-0.007
		c0.685-0.002,1.251,0.215,1.682,0.645c0.646,0.644,0.988,1.753,0.988,3.207v5.501c0,2.054,0.687,3.965,1.837,5.112
		c0.781,0.777,1.755,1.188,2.815,1.187c1.305-0.004,2.479-0.394,3.723-0.804c1.491-0.493,3.181-1.053,5.512-1.059
		c4.176-0.013,7.803,1.396,10.487,4.074c3.425,3.414,5.236,8.743,5.236,15.41c0,13.801-6.06,22.059-16.21,22.087
		c-2.994,0.009-4.362-0.573-5.687-1.135c-1.165-0.497-2.37-1.009-4.342-1.002c-2.148,0.006-3.181,0.36-4.09,0.673
		c-0.795,0.273-1.479,0.51-3.074,0.514c-1.659,0.006-2.632-0.224-3.15-0.74c-0.659-0.655-0.952-2.076-0.952-4.605V91.815z"/>
	<path fill="none" d="M91.417,122.112c-4.066,0.012-11.332,2.809-11.332,8.338c0,1.755,0.678,3.396,1.908,4.623
		c1.3,1.296,3.123,2.007,5.134,2.002c4.924-0.016,9.58-4.713,9.58-9.666c0-1.604-0.499-2.948-1.443-3.891
		C94.616,122.874,93.425,122.106,91.417,122.112z"/>
	<path fill="#FFFFFF" d="M73.993,105.063l-0.05,2.478l-0.802,1.021c-0.6,0.764-1.673,1.356-3.48,1.924
		c-4.532,1.474-7.124,4.91-7.124,9.434v17.173c0,4.435-1.836,5.038-3.633,5.044l-3.185,0.01c-0.868,0.004-1.533-0.238-2.034-0.737
		c-0.832-0.83-1.271-2.425-1.271-4.612v-31.177c0-3.938,1.152-5.204,4.747-5.216c2.81-0.008,4.542,0.625,5.935,1.136
		c0.995,0.362,1.855,0.676,2.821,0.674c1.403-0.004,2.313-0.308,3.115-0.575c0.705-0.234,1.313-0.438,2.297-0.44
		c0.847-0.003,1.454,0.192,1.858,0.596c0.539,0.537,0.812,1.521,0.812,2.922c0,0.073-0.003,0.146-0.005,0.226L73.993,105.063z"/>
	<path fill="#FFFFFF" d="M138.845,105.938l-10.348,31.207c-1.407,4.238-3.48,4.789-5.132,4.793l-3.662,0.011
		c-1.349,0.004-3.695-1.157-4.634-4.376c-0.012-0.045-8.483-25.791-8.483-25.791l-2.047-6.225l-0.147-1.211
		c-0.151-1.255,0-2.182,0.442-2.683c0.421-0.478,1.138-0.579,1.664-0.581c-0.001,0,3.502-0.009,3.502-0.009
		c2.144-0.009,3.497,1.296,4.14,3.981c0.002,0.008,3.504,14.336,3.504,14.336c0.635,2.389,1.414,5.33,4.297,5.32
		c1.781-0.004,3.406-2.109,4.137-5.361c-0.006,0.021,2.859-11.826,2.859-11.826c1.553-6.178,2.028-6.68,6.377-6.692
		c1.443-0.004,3.006,0.106,3.643,0.978C139.504,102.558,139.463,103.99,138.845,105.938z"/>
	<path fill="#FFFFFF" d="M88.877,100.556c-9.024,0.027-12.514,3.299-13.791,5.245c0,0-0.596,0.908-1.204,1.837l0.267,1.502
		c0.088,0.492,0.269,1.52,3.26,1.51c2.911-0.008,4.152-1.174,5.588-2.521c1.503-1.41,3.206-3.009,6.67-3.019
		c1.912-0.006,3.67,0.695,4.952,1.973c1.244,1.241,1.929,2.953,1.929,4.818c0,1.488-0.777,5.049-7.963,5.98
		c-7.987,1.16-17.508,4.49-17.508,13.77c0,3.298,1.045,6.084,3.021,8.056c2.156,2.149,5.393,3.28,9.359,3.269
		c2.73-0.008,4.654-0.746,6.516-1.461c1.652-0.635,3.214-1.233,5.105-1.24c1.137-0.002,2.128,0.347,3.085,0.685
		c1.117,0.394,2.273,0.801,3.92,0.796c2.509-0.007,3.314-0.705,3.314-2.875v-25.01c0-0.502-0.017-1.027-0.051-1.604l-0.258-4.453
		l-1.766-2.569C101.051,101.935,96.73,100.534,88.877,100.556z M87.127,137.075c-2.011,0.005-3.834-0.706-5.134-2.002
		c-1.23-1.229-1.908-2.868-1.908-4.623c0-5.529,7.266-8.326,11.332-8.338c2.008-0.006,3.199,0.762,3.847,1.406
		c0.944,0.941,1.443,2.285,1.443,3.891C96.707,132.362,92.051,137.06,87.127,137.075z"/>
	<path fill="#FFFFFF" d="M158.356,136.44c6.843-0.021,11.81-6.4,11.81-15.176c0-4.791-1.456-8.883-4.101-11.52
		c-2.037-2.032-4.707-3.102-7.715-3.094c-5.959,0.019-11.971,4.562-11.971,14.676c0,4.939,1.528,9.185,4.305,11.951
		C152.769,135.356,155.42,136.45,158.356,136.44z M157.872,142.667c-5.881,0.018-10.887-1.865-14.473-5.441
		c-3.735-3.724-5.709-9.151-5.709-15.697c0-15.652,11.047-21.237,20.506-21.266c5.969-0.019,11.478,2.053,15.117,5.682
		c3.68,3.668,5.543,8.812,5.543,15.289C178.856,134.616,171.013,142.629,157.872,142.667z"/>
	<g>
		<ellipse fill="#FFF200" cx="93.662" cy="66.507" rx="57.237" ry="22.895"/>
		<ellipse fill="#ED1C24" cx="93.662" cy="66.507" rx="54.376" ry="20.491"/>
		<ellipse fill="#FFF200" cx="93.662" cy="66.507" rx="50.083" ry="19.547"/>
		<path fill="#ED1C24" d="M61.209,59.028c0.206,0.259,0.411,0.668,1.082,0.324c0.187-0.125,0.308-0.598,0.434-0.713
			c0.058-0.054,0.237-0.102,0.343-0.058c0.085-0.038,0.251-0.006,0.302,0.058c0.094,0.12,0.013,0.436,0.029,0.524
			c-0.108,1.515,0.136,3.138-1.297,4.084l-0.164,0.08l0.245,0.244c1.73,1.732,2.568,3.896,2.271,6.384
			c-0.378,2.217-2.026,4.543-4.217,5.382c-2.38,1.082-5.543,0.621-7.462-1.11c-2.244-1.812-2.865-4.841-2.163-7.519
			c0.595-1.92,2.258-3.8,4.068-4.666c0,0-0.612,0.001-0.688-0.004c-0.711,0.098-2.335-0.332-2.882,0.656
			c-0.242-1.135,0.258-2.53,0.745-3.531c1.189-1.975,3.353-2.867,5.65-2.516C58.938,56.945,60.101,57.891,61.209,59.028z"/>
		<path fill="#00A651" d="M119.522,61.083c0.271,0.486,0.465,0.896,0.678,1.521l-3.234,0.887c-0.336-1.532-2.119-3.409-4.119-3.247
			c-1.839,0.081-3.623,1.461-4.354,3.165c-0.975,2.462-0.865,5.922,1.162,7.87c1.324,1.353,3.162,1.913,5.138,1.164
			c1.058-0.502,1.713-1.26,2.578-2.666c0.839,0.297,2.358,0.963,3.198,1.259l-0.004-13.415c0,0.04,1.621-0.067,1.621,0h1.756v7.302
			h1.556h4.258h1.556v-7.37c-0.027-0.028,1.823,0,1.823,0h1.556v6.626v11.223c0.026-0.027-3.379,0-3.379,0V69.79v-1.624h-4.935
			h-2.435v7.235h-1.485h-1.892l0.004-4.367c-1.668,2.687-4.18,4.679-6.801,4.786c-3.108,0.271-5.889-1.055-7.699-3.68
			c-0.701-0.946-0.854-1.637-1.279-2.891c0.025,0-0.025,1.377-0.188,2.107c-0.244,1.218-1.246,2.544-2.408,3.22
			c-2.596,1.487-6.651,1.379-9.192-0.135c-1.704-1.135-2.297-3.272-2.379-5.192h-2.366h-2.703h-1.42c0,0-3.202,6.179-3.176,6.152
			c-0.026,0.027-4.137-0.027-4.123,0c-0.014-0.027-2.812-4.801-4.487-7.279h-1.121v7.279c0,0-3.354-0.027-3.38,0
			c0.026-0.027-0.016-18.341,0.011-18.261l6.422-0.021c2.486,0.106,4.762,0.73,5.943,3.771c0.703,1.893,0.243,4.111-1.108,5.571
			c-0.839,0.866-2.332,1.19-3.187,1.389l2.747,4.604l7.555-14.836h2.095h2.771h2.906v11.36c0.067,1.149-0.067,2.163,0.812,2.907
			c1.622,1.082,4.298,1.041,5.705-0.041c0.785-0.757,0.92-1.785,0.92-2.84V57.621c0.013-0.028,1.758,0,1.824,0h1.555
			c0.014,0,0,6.156-0.026,6.144c0.467-1.541,1.217-3.034,2.351-4.116c2.11-2.244,5.381-2.759,8.301-2.082
			C117.09,58.054,118.739,59.514,119.522,61.083z"/>
		<path fill="#FFF200" d="M62.237,60.975c0.162,0.378-0.294,1.059-0.502,1.301c-0.352,0.325-0.716,0.484-1.175,0.132
			c-0.174-0.148-0.271-0.324-0.271-0.324C61.595,61.604,61.587,61.353,62.237,60.975z"/>
		<g>
			<path fill="#FFF200" d="M90.623,59.108v7.032h-4.934c-0.026-0.027,3.514-7.032,3.514-7.032H90.623L90.623,59.108z"/>
		</g>
		<g>
			<path fill="#FFF200" d="M76.646,61.542c0.379,0.541,0.353,1.325,0.244,2.001c-0.595,2.191-2.631,1.868-5.714,1.854
				c-0.026,0.014,0.035-5.061,0.008-5.034c0.095,0.041,0.853,0.014,1.732,0.014C75.038,60.378,75.754,60.244,76.646,61.542z"/>
		</g>
	</g>
</g>
</svg>
