<?xml version="1.0" encoding="utf-8"?>
<!-- Generator: Adobe Illustrator 16.0.0, SVG Export Plug-In . SVG Version: 6.00 Build 0)  -->
<!DOCTYPE svg PUBLIC "-//W3C//DTD SVG 1.1//EN" "http://www.w3.org/Graphics/SVG/1.1/DTD/svg11.dtd">
<svg version="1.1" id="Layer_1" xmlns="http://www.w3.org/2000/svg" xmlns:xlink="http://www.w3.org/1999/xlink" x="0px" y="0px"
	 width="217.894px" height="213.141px" viewBox="5 4.383 217.894 213.141" enable-background="new 5 4.383 217.894 213.141"
	 xml:space="preserve">
<g>
	<path fill="#068244" d="M6.5,110.953c0,57.937,48.2,105.07,107.446,105.07c59.248,0,107.447-47.135,107.447-105.07
		c0-57.937-48.199-105.071-107.447-105.071C54.7,5.882,6.5,53.017,6.5,110.953z"/>
	<path fill="#2A2771" d="M113.945,4.383c-14.697,0-28.959,2.815-42.385,8.367c-12.973,5.363-24.622,13.042-34.627,22.823
		c-4.932,4.821-9.408,10.126-13.308,15.768c-3.938,5.698-7.32,11.79-10.054,18.107C7.884,82.594,5,96.559,5,110.953
		c0,14.395,2.884,28.358,8.572,41.506c2.733,6.316,6.116,12.409,10.054,18.107c3.899,5.643,8.376,10.947,13.308,15.768
		c10.006,9.78,21.655,17.46,34.627,22.822c13.426,5.553,27.688,8.367,42.385,8.367c14.698,0,28.96-2.814,42.387-8.367
		c12.973-5.362,24.622-13.042,34.627-22.822c4.932-4.819,9.409-10.125,13.309-15.768c3.938-5.698,7.319-11.791,10.055-18.107
		c5.688-13.146,8.571-27.111,8.571-41.506s-2.885-28.358-8.571-41.505c-2.734-6.317-6.116-12.409-10.055-18.108
		c-3.898-5.641-8.377-10.945-13.309-15.767c-10.005-9.781-21.655-17.46-34.627-22.823C142.905,7.198,128.644,4.383,113.945,4.383
		L113.945,4.383z M8,110.953C8,53.752,55.433,7.383,113.945,7.383c58.514,0,105.947,46.37,105.947,103.57l0,0l0,0
		c0,57.201-47.435,103.57-105.947,103.57C55.433,214.523,8,168.154,8,110.953L8,110.953L8,110.953z"/>
	<g>
		<g>
			<path fill="#FFFFFF" d="M158.984,148.867l22,19.001l3.375-4.125l-14.75-12.876c0,0-1.375-0.75-1.625-4.5
				C167.984,146.367,162.234,148.867,158.984,148.867z"/>
			<path fill="#FFFFFF" d="M154.984,152.867l20.5,16.501c0,0-8.75,9.875-17.75,14.5c0,0,0.75,4.125-3.125,7.75
				s-7.5,3.625-10.125,2.25v-1c0,0,3.5-1.75,4.125-3.375s0.875-3.25-0.375-4.625s-7.75-9.25-7.75-9.25l4.875-5.25l5,4.5
				c0,0,6.5-3,11.875-8.75l-10.875-10.25L154.984,152.867z"/>
			<path fill="#FFFFFF" d="M132.859,171.618l7.125,20.75c0,0-28.375,11.125-56.25-2.125l10.875-33.375l7.625,7.625l-1.625,2.25
				l-4.625,15.625c0,0,13.75,5.25,32.5,1l-1.75-6.625L132.859,171.618z"/>
			<circle fill="#FFFFFF" cx="121.131" cy="202.993" r="4.875"/>
			<circle fill="#FFFFFF" cx="108.859" cy="202.868" r="4.875"/>
			<circle fill="#FFFFFF" cx="78.484" cy="156.743" r="4.875"/>
			<path fill="#FFFFFF" d="M80.984,163.618c-3,0.375-14.75,2.875-14.75,2.875l1.125-7.375h-7.5c-0.375,7.5-6.125,8.625-9.125,5.625
				s0.25-7,2.5-8.25s6.75-3.126,6.625-4.626s-2.375-1.5-8.625,1.125c-6.25,2.626-10.5,12.626-5.5,18.376s11.75,2.25,11.75,2.25
				c8.625,8.625,21.5,14.5,21.5,14.5s4-8.25,5.25-11.375s2.875-6.75,2.75-9.125S83.984,163.243,80.984,163.618z M78.359,174.868
				l-8.5-6c0,0,2.994,0.002,5.875,0c2.637-0.004,3.625-0.5,4.125,1.75S78.359,174.868,78.359,174.868z"/>
		</g>
		<g>
			<g>
				<path fill="#FFFFFF" d="M113.945,16.118c-39.305,0-71.166,30.837-71.166,68.874c0,38.039,31.861,68.876,71.166,68.876
					s71.168-30.837,71.168-68.876C185.113,46.956,153.25,16.118,113.945,16.118L113.945,16.118z"/>
				<path fill="#2A2771" d="M113.945,154.868c-39.792,0-72.166-31.347-72.166-69.876s32.374-69.874,72.166-69.874
					c39.793,0,72.168,31.345,72.168,69.874S153.738,154.868,113.945,154.868z M113.945,17.118
					c-38.689,0-70.166,30.448-70.166,67.874c0,37.427,31.476,67.876,70.166,67.876c38.691,0,70.168-30.449,70.168-67.876
					C184.113,47.566,152.637,17.118,113.945,17.118z"/>
			</g>
			<ellipse fill="#6DABDD" cx="113.876" cy="85.325" rx="65.401" ry="63.296"/>
			<path fill="#FFFFFF" d="M55.73,80.269l-1.079,7.847c3.82-0.6,14.073,0.408,14.073,0.408l0.062-7.569
				C61.943,78.224,55.73,80.269,55.73,80.269z"/>
			<path fill="#FFFFFF" d="M54.327,90.393l-1.761,11.269c0,0,5.252,15.508,15.091,25.354l0.876-35.965
				C68.533,91.051,61.078,89.469,54.327,90.393z"/>
			<path fill="#068244" d="M176.449,99.309l-2.895-20.847c0,0-10.056-2.688-17.212,1.682l-0.17,14.625
				c0,0-11.075-9.582-15.336-10.928l-4.94-16.642l-1.193-0.673l5.793-4.539l-6.813-23.702c0,0-6.146-1.631-7.49-1.262
				c-1.348,0.37-2.471-1.182-3.967-1.182h-17.402c-1.496,0-2.619,1.552-3.965,1.182c-1.348-0.369-7.492,1.262-7.492,1.262
				l-6.813,23.702l5.793,4.539L91.152,67.2l-4.939,16.642c-4.264,1.347-15.34,10.929-15.34,10.929l-0.17-14.625
				c-7.156-4.371-17.209-1.682-17.209-1.682L50.598,99.31l-0.286,1.619c6.855,26.997,32.138,47.1,62.522,47.1
				c0.232,0,0.459-0.008,0.689-0.012c0.229,0.004,0.457,0.012,0.688,0.012c30.386,0,55.668-20.103,62.523-47.1L176.449,99.309z
				 M67.657,127.016c-9.839-9.847-15.091-25.354-15.091-25.354l1.761-11.269c6.751-0.923,14.206,0.657,14.206,0.657L67.657,127.016z
				 M68.724,88.524c0,0-10.253-1.008-14.073-0.408l1.079-7.847c0,0,6.213-2.045,13.057,0.686L68.724,88.524z M89.148,61.19
				l5.623-20.803l4.856-1.64l-0.256,5.296l1.916-0.252l0.896-4.413l2.812-1.261l0.512,4.665l1.787-0.126l1.023-4.665l3.322,0.126
				l0.256,4.791h3.254l0.256-4.791l3.322-0.126l1.021,4.665l1.791,0.126l0.51-4.665l2.812,1.261l0.895,4.413l1.916,0.252
				l-0.256-5.296l4.857,1.64l5.623,20.803l-4.217,3.403c0,0-8.957-3.934-20.072-4.252v-0.008c-0.029,0-0.058,0.003-0.086,0.004
				c-0.029-0.001-0.058-0.003-0.088-0.004v0.008c-11.113,0.318-20.07,4.252-20.07,4.252L89.148,61.19z M156.174,130.424
				c0,0-15.102,14.978-42.649,16.062c-27.547-1.086-42.65-16.062-42.65-16.062V97.738c3.58-4.137,17.211-13.234,17.211-13.234
				l4.941-16.045c0,0,8.567-5.156,20.498-5.277c11.93,0.121,20.498,5.277,20.498,5.277l4.94,16.045c0,0,13.634,9.098,17.211,13.234
				V130.424L156.174,130.424z M158.26,80.955c6.847-2.73,13.06-0.686,13.06-0.686l1.078,7.847c-3.82-0.6-14.074,0.408-14.074,0.408
				L158.26,80.955z M159.391,127.016l-0.875-35.965c0,0,7.453-1.58,14.207-0.657l1.758,11.269
				C174.48,101.662,169.229,117.17,159.391,127.016z"/>
			<path fill="#FFFFFF" d="M137.898,61.19l-5.623-20.803l-4.857-1.64l0.256,5.296l-1.916-0.252l-0.895-4.413l-2.812-1.261
				l-0.51,4.665l-1.791-0.126l-1.021-4.665l-3.322,0.126l-0.256,4.791h-3.254l-0.256-4.791l-3.322-0.126l-1.023,4.665l-1.787,0.126
				l-0.512-4.665l-2.812,1.261l-0.896,4.413l-1.916,0.252l0.256-5.296l-4.856,1.64L89.148,61.19l4.217,3.403
				c0,0,9.002-3.956,20.158-4.256c11.153,0.3,20.158,4.256,20.158,4.256L137.898,61.19z"/>
			<path fill="#FFFFFF" d="M171.318,80.269l1.078,7.847c-3.82-0.6-14.074,0.408-14.074,0.408l-0.062-7.569
				C165.105,78.224,171.318,80.269,171.318,80.269z"/>
			<path fill="#FFFFFF" d="M172.723,90.393l1.758,11.269c0,0-5.252,15.508-15.09,25.354l-0.875-35.965
				C158.516,91.051,165.969,89.469,172.723,90.393z"/>
			<path fill="#FFFFFF" d="M156.174,97.738c-3.577-4.137-17.211-13.234-17.211-13.234l-4.94-16.045c0,0-8.527-5.128-20.412-5.274
				v-0.007c-0.029,0-0.057,0.003-0.086,0.004c-0.029,0-0.058-0.004-0.088-0.004v0.007c-11.883,0.146-20.41,5.274-20.41,5.274
				l-4.941,16.045c0,0-13.631,9.098-17.211,13.234v32.686c0,0,15.072,14.943,42.562,16.06v0.01c0.03-0.002,0.059-0.004,0.088-0.006
				c0.029,0.002,0.057,0.004,0.086,0.006v-0.01c27.494-1.115,42.563-16.06,42.563-16.06V97.738z"/>
			<g>
				<path fill="#2A2771" d="M113.875,149.121c-36.337,0-65.899-28.619-65.899-63.796S77.538,21.53,113.875,21.53
					c36.339,0,65.902,28.618,65.902,63.795S150.214,149.121,113.875,149.121z M113.875,22.53c-35.785,0-64.899,28.169-64.899,62.795
					s29.114,62.796,64.899,62.796c35.787,0,64.902-28.17,64.902-62.796C178.777,50.7,149.662,22.53,113.875,22.53z"/>
			</g>
			<path fill="#068244" d="M113.219,129.156c0,0,0.714-1.319,1.529-0.109c0.816,1.1-0.613,2.527-1.836,1.648
				c-1.225-0.989-2.856-4.066-4.897-5.275c0,0-0.408,1.209-1.429,0.439c-0.918-0.771-0.102-2.088,0.918-2.088
				c1.021,0,2.857,1.317,4.185,3.297C113.014,129.156,113.219,129.156,113.219,129.156L113.219,129.156z"/>
			<path fill="#068244" d="M136.375,117.177c-4.271-5.006-12.944-0.401-19.434,4.093c-6.488-4.494-15.162-9.099-19.437-4.093
				c0,0,5.918-0.108,9.285,1.43c2.049,1.003,4.597,2.499,7.652,4.457c-1.303,0.968-2.455,1.865-3.369,2.576
				c-5.406,4.177-7.855,2.856-7.855,2.856c1.531,3.188,3.675,3.077,9.796-1.099c1.389-0.964,2.702-1.86,3.95-2.693
				c1.263,0.833,2.595,1.729,4.007,2.693c6.02,4.176,8.161,4.285,9.69,1.099c0,0-2.346,1.319-7.854-2.856
				c-0.912-0.709-2.06-1.604-3.359-2.568c3.041-1.961,5.59-3.46,7.643-4.465C130.459,117.068,136.375,117.177,136.375,117.177z"/>
			<path fill="#068244" d="M120.664,129.156c0,0-0.713-1.319-1.529-0.109c-0.815,1.1,0.611,2.527,1.837,1.648
				c1.325-0.989,2.856-4.066,4.896-5.275c0,0,0.51,1.209,1.43,0.439c1.021-0.771,0.203-2.088-0.92-2.088
				c-1.02,0-2.754,1.317-4.08,3.297C120.971,129.156,120.664,129.156,120.664,129.156L120.664,129.156z"/>
			<path fill="#068244" d="M114.135,118.387l2.144-2.089l-1.021-1.647v-11.101l1.123-1.647c0,0-3.979,1.868-2.856,8.682
				c0,0-2.551-1.317-1.121-9.779c0,0-3.266,1.429-5,8.57c0,0-2.551-5.164,2.143-10.22c0,0-4.387,0.438-7.346,5.824
				c0,0-0.102-6.923,6.428-9.78c0,0-2.754-1.209-6.836,1.979c0,0,0.816-4.507,9.998-6.375c0,0-0.61-0.88-1.428-0.88
				c0,0,2.754-0.879,5.203,0c0,0,0.61-1.648,1.428-2.308c0.715,0.659,1.326,2.308,1.326,2.308c2.551-0.879,5.305,0,5.305,0
				c-0.918,0-1.528,0.88-1.528,0.88c9.182,1.868,9.995,6.375,9.995,6.375c-4.079-3.188-6.834-1.979-6.834-1.979
				c6.529,2.857,6.429,9.78,6.429,9.78c-2.959-5.386-7.347-5.824-7.347-5.824c4.693,5.056,2.144,10.22,2.144,10.22
				c-1.633-7.143-4.898-8.57-4.898-8.57c1.431,8.462-1.223,9.779-1.223,9.779c1.223-6.812-2.857-8.682-2.857-8.682l1.123,1.647
				v11.101l-0.918,1.647l2.039,2.089h-5.713H114.135L114.135,118.387z"/>
		</g>
	</g>
</g>
</svg>
