<?xml version="1.0" encoding="utf-8"?>
<!-- Generator: Adobe Illustrator 16.0.0, SVG Export Plug-In . SVG Version: 6.00 Build 0)  -->
<!DOCTYPE svg PUBLIC "-//W3C//DTD SVG 1.1//EN" "http://www.w3.org/Graphics/SVG/1.1/DTD/svg11.dtd">
<svg version="1.1" id="Layer_1" xmlns="http://www.w3.org/2000/svg" xmlns:xlink="http://www.w3.org/1999/xlink" x="0px" y="0px"
	 width="152.067px" height="50.414px" viewBox="281.017 299.975 152.067 50.414"
	 enable-background="new 281.017 299.975 152.067 50.414" xml:space="preserve">
<g>
	<g>
		<path fill="#034EA2" d="M414.491,330.485c27.007-13.847,23.618-27.056-3.854-29.8c-29.601-2.938-72.843,3.428-102.965,15.597
			l-4.177,1.797c-31.377,14.011-28.407,28.877-0.392,31.575c30.595,2.964,77.125-3.091,107.586-17.262L414.491,330.485"/>
		<path fill="#FFFFFF" d="M408.658,333.196c0,0-5.146,0.416-5.272-3.751v-8.036c0,0-0.64-4.423,5.127-4.423
			c0,0,3.774-0.121,4.769,2.103c0,0,0.487,0.602,0.369,3.06h-4.02v-1.268c0,0-0.006-1.017-1.044-1.017c0,0-1.084,0.054-1.084,0.914
			v8.301c0,0-0.048,1.124,1.172,1.124c0,0,1.005-0.022,1.005-1.196v-2.416h-1.093v-2.231h5.149v4.72c0,0-0.018,1.006-0.424,1.586
			c0,0-0.426,0.628-0.573,0.734C412.739,331.399,411.348,333.196,408.658,333.196"/>
		<polyline fill="#FFFFFF" points="398.064,317.576 394.052,317.576 394.34,326.788 394.159,326.788 390.096,317.576 
			385.233,317.576 385.233,332.757 389.195,332.757 388.957,323.484 389.135,323.484 393.337,332.764 398.064,332.764 
			398.064,317.576 		"/>
		<path fill="#FFFFFF" d="M373.228,317.514h-4.345v11.385c0,0-0.45,4.31,5.645,4.31c0,0,5.286,0.066,5.286-4.105v-11.589h-4.244
			v11.459c0,0,0.059,1.242-1.106,1.242c0,0-1.214,0.066-1.214-1.221L373.228,317.514"/>
		<path fill="#FFFFFF" d="M363.895,322.216l-0.004-1.899c0,0,0.309-3.127-4.714-3.271c0,0-3.94-0.253-5.071,1.875
			c0,0-0.451,0.458-0.451,2.116v1.195c0,0-0.036,1.371,0.665,2.268c0,0,0.398,0.582,1.37,1.215c0,0,1.999,1.073,3.182,1.687
			c0,0,1.211,0.68,1.056,1.779c0,0-0.104,1.13-1.266,1.078c0,0-1.07-0.044-1.07-1.156v-1.286h-4.248v1.882
			c0,0-0.129,3.588,5.343,3.588c0,0,5.229,0.102,5.482-3.679v-1.526c0,0,0.188-2.338-1.855-3.558c0,0-1.071-0.679-1.76-0.92
			c0,0-2.076-0.961-2.484-1.431c0,0-0.812-0.764-0.339-1.641c0,0,0.202-0.596,1.057-0.596c0,0,1.119,0.072,1.119,0.987v1.292
			L363.895,322.216"/>
		<polyline fill="#FFFFFF" points="332.255,317.576 331.909,332.757 335.874,332.757 335.915,321.319 336.224,321.319 
			338.32,332.757 342.478,332.757 344.55,321.319 344.823,321.319 344.919,332.757 348.887,332.757 348.466,317.576 
			341.854,317.576 340.513,325.887 340.202,325.887 338.923,317.576 332.255,317.576 		"/>
		<polyline fill="#FFFFFF" points="327.667,332.735 325.036,317.568 318.323,317.568 315.699,332.735 319.948,332.735 
			321.507,320.977 321.85,320.977 323.413,332.735 327.667,332.735 		"/>
		<path fill="#FFFFFF" d="M311.512,322.216l-0.002-1.899c0,0,0.306-3.127-4.71-3.271c0,0-3.949-0.253-5.069,1.875
			c0,0-0.448,0.458-0.448,2.116v1.195c0,0-0.045,1.371,0.654,2.268c0,0,0.403,0.582,1.377,1.215c0,0,1.99,1.073,3.18,1.687
			c0,0,1.204,0.68,1.049,1.779c0,0-0.105,1.13-1.26,1.078c0,0-1.067-0.044-1.067-1.156v-1.286h-4.258v1.882
			c0,0-0.13,3.588,5.351,3.588c0,0,5.229,0.102,5.472-3.679v-1.526c0,0,0.196-2.338-1.84-3.558c0,0-1.084-0.679-1.758-0.92
			c0,0-2.092-0.961-2.5-1.431c0,0-0.804-0.764-0.331-1.641c0,0,0.195-0.596,1.053-0.596c0,0,1.114,0.072,1.114,0.987v1.292
			L311.512,322.216"/>
	</g>
</g>
</svg>
