<?xml version="1.0" encoding="utf-8"?>
<!-- Generator: Adobe Illustrator 16.0.0, SVG Export Plug-In . SVG Version: 6.00 Build 0)  -->
<!DOCTYPE svg PUBLIC "-//W3C//DTD SVG 1.1//EN" "http://www.w3.org/Graphics/SVG/1.1/DTD/svg11.dtd">
<svg version="1.1" id="Layer_1" xmlns="http://www.w3.org/2000/svg" xmlns:xlink="http://www.w3.org/1999/xlink" x="0px" y="0px"
	 width="169.917px" height="169.917px" viewBox="0 0 169.917 169.917" enable-background="new 0 0 169.917 169.917"
	 xml:space="preserve">
<g id="Fondo">
</g>
<g>
	<g>
		
			<rect x="0.212" y="0.213" fill="none" stroke="#A8AEB5" stroke-width="0.4252" stroke-dasharray="12" width="169.491" height="169.491"/>
		<path fill="none" stroke="#A8AEB5" stroke-width="0.4252" stroke-dasharray="12" d="M84.958,84.958"/>
	</g>
	<g>
		<g>
			<g>
				<g>
					<defs>
						<path id="SVGID_1_" d="M31.251,93.464c-13.086,7.432-15.305,18.785-15.305,18.785l4.293,44.583
							c3.631-8.597,14.932-14.853,14.932-14.853L79.419,122V65.999L31.251,93.464z"/>
					</defs>
					<clipPath id="SVGID_2_">
						<use xlink:href="#SVGID_1_"  overflow="visible"/>
					</clipPath>
					<g clip-path="url(#SVGID_2_)">
						<g>
							<g>
								<defs>
									<rect id="SVGID_3_" x="15.697" y="65.749" width="23.581" height="91.333"/>
								</defs>
								<clipPath id="SVGID_4_">
									<use xlink:href="#SVGID_3_"  overflow="visible"/>
								</clipPath>
								<g clip-path="url(#SVGID_4_)">
									<rect x="35.909" y="65.749" fill="#FDE92B" width="3.369" height="91.333"/>
									<rect x="32.541" y="65.749" fill="#FCE42C" width="3.368" height="91.333"/>
									<rect x="29.171" y="65.749" fill="#FBE02D" width="3.369" height="91.333"/>
									<rect x="25.803" y="65.749" fill="#FADB2E" width="3.368" height="91.333"/>
									<rect x="22.434" y="65.749" fill="#F9D72F" width="3.369" height="91.333"/>
									<rect x="19.065" y="65.749" fill="#F9D230" width="3.369" height="91.333"/>
									<rect x="15.697" y="65.749" fill="#F8CE30" width="3.368" height="91.333"/>
								</g>
							</g>
							<g>
								<g>
									<defs>
										<rect id="SVGID_5_" x="38.778" y="65.749" width="40.892" height="91.333"/>
									</defs>
									<clipPath id="SVGID_6_">
										<use xlink:href="#SVGID_5_"  overflow="visible"/>
									</clipPath>
									<g clip-path="url(#SVGID_6_)">
										<rect x="59.223" y="65.749" fill="#FDE92B" width="20.446" height="91.333"/>
										<rect x="38.778" y="65.749" fill="#FDE92B" width="20.445" height="91.333"/>
									</g>
								</g>
							</g>
						</g>
						<g id="Primer_plano">
							<g>
								<defs>
									<path id="SVGID_7_" d="M137.031,33.147L79.419,65.999V122l42.458-19.173c6.024-2.452,20.886-5.217,24.103-27.438
										c0,0,7.432-50.801,9.133-68.56C154.351,15.625,146.083,28.175,137.031,33.147z"/>
								</defs>
								<clipPath id="SVGID_8_">
									<use xlink:href="#SVGID_7_"  overflow="visible"/>
								</clipPath>
								<g clip-path="url(#SVGID_8_)">
									<g>
										<g>
											<defs>
												<rect id="SVGID_9_" x="79.169" y="6.579" width="49.098" height="115.671"/>
											</defs>
											<clipPath id="SVGID_10_">
												<use xlink:href="#SVGID_9_"  overflow="visible"/>
											</clipPath>
											<g clip-path="url(#SVGID_10_)">
												<rect x="103.719" y="6.579" fill="#FDE92B" width="24.548" height="115.671"/>
												<rect x="79.169" y="6.579" fill="#FDE92B" width="24.55" height="115.671"/>
											</g>
										</g>
										<g>
											<g>
												<defs>
													<rect id="SVGID_11_" x="127.767" y="6.579" width="27.596" height="115.671"/>
												</defs>
												<clipPath id="SVGID_12_">
													<use xlink:href="#SVGID_11_"  overflow="visible"/>
												</clipPath>
												<g clip-path="url(#SVGID_12_)">
													<rect x="151.42" y="6.579" fill="#F8CE30" width="3.942" height="115.671"/>
													<rect x="147.478" y="6.579" fill="#F9D230" width="3.942" height="115.671"/>
													<rect x="143.536" y="6.579" fill="#F9D72F" width="3.941" height="115.671"/>
													<rect x="139.594" y="6.579" fill="#FADB2E" width="3.941" height="115.671"/>
													<rect x="135.651" y="6.579" fill="#FBE02D" width="3.942" height="115.671"/>
													<rect x="131.71" y="6.579" fill="#FCE42C" width="3.941" height="115.671"/>
													<rect x="127.767" y="6.579" fill="#FDE92B" width="3.943" height="115.671"/>
												</g>
											</g>
										</g>
									</g>
								</g>
								<path clip-path="url(#SVGID_8_)" fill="#A8AEB5" d="M134.14,25.725L93.772,50.79c-1.023-9.585-6.224-15.194-14.35-15.194
									c-12.615,0-14.498,11.792-14.498,18.821c0,5.172,0.994,9.387,2.869,12.504L29.482,90.707
									c-3.575,2.289-6.209,4.776-8.151,7.221c-5.707,6.712-5.461,13.479-5.405,14.291c0,0.084,0,0.165,0,0.245
									c0.004,0.885,0.079,1.467,0.079,1.467c3.599-7.677,10.567-12.796,12.557-14.109c1.983-1.311,46.027-27.031,46.027-27.031
									c1.729,0.842,3.765,1.303,6.152,1.303c7.79,0,12.47-5.103,13.971-13.121l46.191-27.126l-0.209,0.112l0.214-0.125
									c5.887-3.402,12.762-9.258,14.204-27.003C152.688,12.594,142.844,20.265,134.14,25.725z"/>
								<g clip-path="url(#SVGID_8_)">
									<g>
										<path d="M142.362,46.688c0,1.323-1.07,2.392-2.396,2.385c-1.32-0.005-2.393-1.079-2.393-2.405
											c0-1.322,1.072-2.388,2.393-2.386C141.292,44.286,142.362,45.365,142.362,46.688z M142.005,46.687
											c0-1.129-0.91-2.046-2.04-2.052c-1.128-0.005-2.045,0.907-2.045,2.036c0,1.126,0.917,2.045,2.045,2.05
											C141.095,48.724,142.005,47.815,142.005,46.687z"/>
										<path d="M140.123,46.564c0.17,0.002,0.306-0.031,0.401-0.101c0.104-0.068,0.146-0.191,0.146-0.366
											c0-0.191-0.066-0.32-0.204-0.392c-0.075-0.035-0.175-0.053-0.296-0.053l-0.887-0.006v0.914L140.123,46.564z
											 M138.921,45.335l1.24,0.005c0.204,0,0.367,0.031,0.506,0.09c0.247,0.114,0.375,0.325,0.375,0.635
											c0,0.159-0.035,0.29-0.102,0.392c-0.062,0.104-0.156,0.184-0.273,0.244c0.102,0.043,0.182,0.1,0.232,0.17
											c0.052,0.069,0.086,0.18,0.092,0.338l0.011,0.359c0.005,0.1,0.013,0.176,0.022,0.228c0.024,0.083,0.064,0.139,0.117,0.164
											v0.057h-0.443c-0.014-0.021-0.021-0.054-0.029-0.09c-0.002-0.033-0.013-0.104-0.016-0.209l-0.022-0.446
											c-0.01-0.177-0.073-0.294-0.198-0.354c-0.064-0.033-0.177-0.048-0.324-0.05l-0.823-0.004v1.146l-0.363-0.001
											L138.921,45.335L138.921,45.335z"/>
									</g>
									<path d="M38.51,106.06c0.009-0.479,0.046-4.754,0.041-5.265c-2.522,0.054-4.89,1.034-6.442,2.37
										c-2.289,1.973-3.682,4.689-3.443,8.143c0.215,3.058,1.924,5.135,2.596,5.984c0.721,0.912,1.779,2.221,2.516,3.236
										c1.281,1.777,2.221,3.511,2.1,6.005c-0.113,2.43-1.23,4.467-3.021,5.227c-2.017,0.856-3.786-0.151-4.131-2.983
										c-0.105,0.047-0.338,0.146-0.434,0.189c0.029,0.689,0.371,5.372,0.403,5.984c1.677,0,4.255-0.615,6.622-2.391
										c2.657-1.994,3.796-5.426,3.898-7.936c0.123-3.055-0.903-5.16-2.396-7.153c-0.607-0.812-2.495-3.239-3.55-4.737
										c-0.923-1.314-1.59-2.722-1.49-4.528c0.116-2.131,1.228-3.636,2.7-4.214c1.37-0.538,3.187-0.1,3.575,2.293
										C38.101,106.261,38.417,106.108,38.51,106.06z"/>
									<path d="M49.175,118.124c-0.326,1.824-1.644,4.979-4.195,5.831c-2.509,0.833-5.455-1.117-5.535-7.33
										c-0.08-6.335,1.912-9.983,4.429-11.567c1.371-0.865,3.009-1.156,4.166-0.99c0.003,0.39,0.042,3.757,0.053,4.867
										c-0.115,0.061-0.29,0.133-0.457,0.207c-0.177-1.123-0.884-2.846-2.493-2.404c-2.17,0.593-2.721,5.326-2.673,8.275
										c0.083,5.521,0.878,7.366,2.286,7.158c1.631-0.24,2.249-3.341,2.255-5.221C47.306,117.108,48.849,117.966,49.175,118.124z"
										/>
									<path d="M64.378,93.015c-0.849,0.528-3.554,2.164-4.487,2.735c-0.004,0.095,0.004,0.224,0.004,0.347
										c0.428-0.195,0.87-0.053,1.093,0.932c0.298,1.298,3.219,15.813,3.283,16.131c0.203-0.106,2.066-1.111,2.582-1.389
										c0.036-0.34,1.385-13.588,1.385-13.588s2.322,11.387,2.363,11.584c0.32-0.172,2.187-1.183,2.557-1.383
										c0.045-0.388,1.716-16.091,1.828-17.085c0.078-0.687,0.226-2.122,0.564-3.358c0.312-0.976,0.656-1.644,1.166-2.103
										c-0.004-0.118-0.016-0.218-0.021-0.329c-1.172,0.735-3.578,2.186-4.376,2.668c0.004,0.092,0.014,0.189,0.02,0.329
										c0.825-0.317,1.178,0.447,1.043,1.619c-0.117,1.042-1.358,12.222-1.358,12.222s-2.362-12.24-2.415-12.513
										c-0.217,0.127-2.203,1.337-2.373,1.44c-0.031,0.271-1.571,14.168-1.571,14.168c-0.083-0.541-1.604-8.202-1.829-9.297
										c-0.19-0.936-0.35-1.931,0.562-2.805C64.386,93.237,64.384,93.103,64.378,93.015z"/>
									<path d="M86.929,90.547c0.018-3.819-0.389-6.78-1.979-8.067c-1.537-1.247-3.784-0.637-5.443,1.805
										c-1.766,2.595-3.152,7.142-3.03,12.429c0.13,5.725,2.517,8.168,5.61,7.125c2.08-0.701,4.125-2.845,4.977-6.382
										c-0.475-0.328-1.897-1.131-2.312-1.374c-0.179,1.225-0.773,5.357-2.669,5.614c-2.083,0.286-2.426-4.404-2.372-7.003
										C85.942,91.104,85.962,91.12,86.929,90.547z M82.044,84.751c1.561-0.592,1.746,3.479,1.629,5.395
										c-0.791,0.469-2.961,1.692-3.918,2.256C79.88,89.729,80.392,85.373,82.044,84.751z"/>
									<path d="M126.594,67.685c0.017-4.345-0.649-7.663-2.213-9.012c-1.845-1.588-4.692-0.517-6.579,2.262
										c-2.01,2.956-3.479,7.87-3.343,13.89c0.147,6.511,3.026,9.312,6.556,8.153c2.338-0.771,4.541-3.185,5.516-7.277
										c-0.385-0.229-2.29-1.417-2.551-1.577c-0.176,1.439-0.852,6.365-3.076,6.572c-2.383,0.221-2.633-4.966-2.661-8.19
										C120.638,71.13,125.136,68.535,126.594,67.685z M120.842,61.088c1.962-0.76,1.933,4.138,1.962,6.277
										c-0.707,0.406-3.722,2.161-4.482,2.601C118.376,67.061,118.875,61.851,120.842,61.088z"/>
									<path d="M94.498,74.791c-1.565,0.314-2.746,2.118-3.313,3.991c-0.144-0.799-0.478-1.387-0.854-1.686
										c-0.38,0.307-2.538,2.148-3.442,2.918c0.004,0.115,0.014,0.223,0.021,0.321c0.884-0.365,1.608-0.076,1.646,1.657
										c0.035,1.669,0.232,21.604,0.232,22.276c-0.008,1.186-0.018,2.25-0.834,2.888c0.001,0.075,0.016,0.214,0.021,0.321
										c1.032-0.521,4.004-2.021,4.922-2.49c0-0.068-0.013-0.18-0.017-0.264c-0.61,0.129-1.114,0.033-1.11-1.283
										c0.002-0.575-0.064-3.743-0.097-7.465c0.729,0.811,1.929,1.239,3.175,0.726c3.063-1.267,4.489-6.188,4.572-12.151
										C99.5,78.56,97.683,74.158,94.498,74.791z M96.228,86.371c-0.055,3.185-0.809,7.981-2.599,8.259
										c-1.075,0.167-1.685-0.816-1.958-1.54c-0.027-3.194-0.059-6.966-0.084-9.667c0.154-2.325,0.887-4.897,2.354-4.963
										C95.499,78.393,96.319,81.734,96.228,86.371z"/>
									<path d="M107.865,66.412c-1.913,0.396-3.533,2.835-4.003,5.131c-0.188-0.94-0.495-1.692-0.99-2.094
										c-0.375,0.301-2.62,2.188-3.6,3.012c0.006,0.071,0.019,0.263,0.021,0.317c1.139-0.426,1.79,0.255,1.79,1.754
										c0.003,1.67,0.261,22.783,0.259,23.455c-0.004,1.193-0.035,2.234-0.848,2.884c0.003,0.06,0.012,0.188,0.02,0.307
										c1.02-0.51,4.047-2.015,4.952-2.475c-0.002-0.091-0.013-0.228-0.013-0.282c-0.528,0.114-1.105,0.02-1.124-1.261
										c-0.013-0.606-0.039-4.169-0.079-8.485c0.759,0.911,2.298,1.583,3.812,0.955c3.246-1.346,4.982-6.692,5.01-12.836
										C113.094,70.229,111.345,65.692,107.865,66.412z M109.562,78.819c-0.021,2.972-0.635,8.063-2.854,8.458
										c-1.141,0.201-2.096-0.709-2.52-1.969c-0.025-2.844-0.025-6.089-0.049-8.511c0.19-2.613,1.256-6.281,3.063-6.362
										C108.841,70.362,109.592,73.944,109.562,78.819z"/>
									<path d="M56.789,114.468c-0.008,1.143-0.061,2.295-0.979,2.916c0.004,0.107,0.01,0.26,0.016,0.318
										c0.832-0.441,3.809-2.044,4.918-2.645c-0.002-0.096-0.002-0.268-0.004-0.328c-0.541,0.194-0.967-0.095-0.971-1.268
										c0-0.763-0.133-10.302-0.123-11.75c0.007-1.167-0.055-2.263-0.491-3.05c-0.427-0.774-1.175-1.265-2.12-1.151
										c-1.314,0.159-2.997,1.334-3.951,3.922c-0.066-5.701-0.123-10.309-0.123-10.309l-4.265,2.534c0,0,0.013,0.27,0.013,0.331
										c0.853-0.34,1.344,0.08,1.354,1.384c0.013,1.668,0.264,22.157,0.257,22.832c-0.012,1.121-0.084,1.955-0.936,2.628
										c0,0.078,0.003,0.25,0.005,0.324c0.863-0.46,3.748-2.016,4.831-2.6c0-0.027-0.003-0.242-0.003-0.324
										c-0.545,0.209-0.985-0.086-0.977-1.265c0.009-0.809-0.057-6.058-0.113-11.198c0.219-1.9,1.298-4.539,2.578-4.414
										c0.761,0.076,0.957,0.742,0.973,2.377C56.69,105.558,56.793,114.138,56.789,114.468z"/>
									<path d="M136.05,55.177c-0.002-0.343,0.135-4.541,0.129-4.957c-1.968-0.006-4.412,1.162-5.789,2.458
										c-1.771,1.66-2.916,4.065-2.688,6.89c0.193,2.353,1.555,3.928,2.277,4.778c0.779,0.92,1.645,1.879,2.307,2.674
										c1.15,1.372,1.954,2.602,1.859,4.646c-0.092,1.984-1.029,3.687-2.57,4.084c-1.633,0.42-2.792-0.403-2.992-2.851
										c-0.13,0.064-0.247,0.129-0.381,0.208c-0.008,0.431-0.268,4.875-0.301,5.456c1.816-0.103,3.822-0.685,5.701-2.057
										c2.309-1.687,3.354-4.424,3.521-6.513c0.22-2.763-0.612-4.585-1.899-6.223c-0.599-0.76-2.24-2.553-3.199-3.644
										c-1.019-1.16-1.504-2.237-1.399-3.641c0.123-1.653,1.024-2.8,2.155-3.176c1.146-0.381,2.576,0.099,2.896,2.054
										C135.712,55.345,135.974,55.219,136.05,55.177z"/>
								</g>
								<path clip-path="url(#SVGID_8_)" fill="#A8AEB5" d="M145.924,75.832c0.183-1.381,0.457-2.75,0.624-4.239
									c-3.525,12.493-11.021,17.21-20.719,22.484l-90.23,44.869c-14.986,6.686-15.371,16.578-15.361,17.75c0,0.039,0,0.066,0,0.09
									c-0.076,0.878,0.019,1.398,0.019,1.398c4.196-6.271,14.136-11.012,14.136-11.012l91.131-41.215
									C133.413,102.663,143.365,97.419,145.924,75.832z"/>
								<g clip-path="url(#SVGID_8_)">
									<path fill="#F1F1F2" d="M25.585,145.592c2.258-2.225,5.463-4.292,10.014-6.194l90.175-42.244
										c9.565-4.463,16.711-9.365,20.229-21.764c-0.017,0.152,0.019-0.148,0,0c0.245-1.343,0.378-2.308,0.545-3.796
										c-3.524,12.493-11.021,17.21-20.719,22.484L35.6,138.946c-4.551,2.029-7.756,4.356-10.012,6.645L25.585,145.592
										L25.585,145.592z"/>
								</g>
								<g clip-path="url(#SVGID_8_)">
									<path d="M35.171,144.38c0,0-13.353,5.975-14.932,12.452c0,0,0-0.019,0-0.045c-0.078,0.878,0.017,1.397,0.017,1.397
										c4.196-6.271,14.136-11.011,14.136-11.011l91.132-41.215C125.489,105.974,35.171,144.38,35.171,144.38z"/>
								</g>
								<path clip-path="url(#SVGID_8_)" d="M136.271,36.349c-0.078,0.044-0.156,0.09-0.234,0.135L94.903,59.798l-1.508,0.854
									c-0.088,0.432-0.184,0.85-0.285,1.26c-1.84,7.265-6.604,11.296-13.69,11.296c-1.616,0-3.11-0.215-4.477-0.626
									c-0.541-0.164-1.065-0.356-1.565-0.583l-0.083,0.048l-44.03,24.958c0,0-11.104,6.061-13.34,15.285
									c-0.006,0.982,0.079,1.641,0.079,1.641c3.599-7.677,10.567-12.796,12.557-14.109c1.983-1.311,46.027-27.031,46.027-27.031
									c1.729,0.842,3.765,1.303,6.152,1.303c7.79,0,12.47-5.103,13.971-13.121l46.19-27.126L136.271,36.349z"/>
								<g clip-path="url(#SVGID_8_)">
									<path fill="#FFFFFF" d="M29.482,90.707c-3.575,2.289-6.209,4.776-8.151,7.221c1.896-2.229,4.439-4.456,7.874-6.46
										l39.342-23.424c-0.265-0.358-0.515-0.73-0.752-1.124L29.482,90.707z"/>
									<path fill="#F1F1F2" d="M134.14,25.725L94.938,50.067l-0.008-0.009l-0.004,0.015l-0.998,2.858l41.611-24.776
										c7.273-4.85,16.053-9.758,19.572-21.326C152.688,12.594,142.844,20.265,134.14,25.725z"/>
								</g>
								<g clip-path="url(#SVGID_8_)">
									<path d="M93.929,52.931l0.986-2.847c-0.838-5.777-3.309-10.091-7.577-12.162C91.308,40.711,93.644,45.892,93.929,52.931z"
										/>
								</g>
								<g clip-path="url(#SVGID_8_)">
									<path fill="#C22424" d="M66.335,54.604c0-6.534,1.713-17.495,13.174-17.495c8.271,0,13.211,6.541,13.211,17.495
										c0,11.092-4.816,17.453-13.211,17.453C71.137,72.057,66.335,65.696,66.335,54.604z"/>
									<path fill="#C32424" d="M66.39,54.604c0-6.513,1.705-17.439,13.119-17.439c8.236,0,13.156,6.521,13.156,17.439
										c0,11.056-4.796,17.397-13.156,17.397C71.171,72.001,66.39,65.66,66.39,54.604z"/>
									<path fill="#C32425" d="M66.445,54.604c0-6.492,1.697-17.383,13.064-17.383c8.202,0,13.102,6.499,13.102,17.383
										c0,11.021-4.774,17.341-13.102,17.341C71.207,71.945,66.445,65.625,66.445,54.604z"/>
									<path fill="#C42425" d="M66.499,54.604c0-6.471,1.691-17.328,13.011-17.328c8.169,0,13.048,6.479,13.048,17.328
										c0,10.985-4.757,17.285-13.048,17.285C71.242,71.889,66.499,65.59,66.499,54.604z"/>
									<path fill="#C52525" d="M66.553,54.604c0-6.451,1.685-17.271,12.956-17.271c8.135,0,12.992,6.457,12.992,17.271
										c0,10.95-4.736,17.229-12.992,17.229C71.276,71.833,66.553,65.554,66.553,54.604z"/>
									<path fill="#C62525" d="M66.608,54.604c0-6.43,1.677-17.216,12.901-17.216c8.1,0,12.938,6.437,12.938,17.216
										c0,10.914-4.717,17.173-12.938,17.173C71.311,71.778,66.608,65.518,66.608,54.604z"/>
									<path fill="#C62525" d="M66.663,54.604c0-6.409,1.67-17.16,12.847-17.16c8.066,0,12.884,6.416,12.884,17.16
										c0,10.879-4.695,17.117-12.884,17.117C71.345,71.721,66.663,65.483,66.663,54.604z"/>
									<path fill="#C72526" d="M66.717,54.604c0-6.388,1.663-17.104,12.792-17.104c8.031,0,12.829,6.395,12.829,17.104
										c0,10.843-4.677,17.062-12.829,17.062C71.38,71.666,66.717,65.448,66.717,54.604z"/>
									<path fill="#C82526" d="M66.772,54.604c0-6.367,1.656-17.048,12.737-17.048c7.998,0,12.774,6.374,12.774,17.048
										c0,10.808-4.656,17.006-12.774,17.006C71.416,71.61,66.772,65.412,66.772,54.604z"/>
									<path fill="#C82626" d="M66.826,54.604c0-6.346,1.649-16.992,12.684-16.992c7.964,0,12.72,6.353,12.72,16.992
										c0,10.772-4.636,16.95-12.72,16.95C71.45,71.554,66.826,65.376,66.826,54.604z"/>
									<path fill="#C92626" d="M66.88,54.604c0-6.325,1.643-16.936,12.629-16.936c7.93,0,12.666,6.332,12.666,16.936
										c0,10.737-4.617,16.895-12.666,16.895C71.484,71.498,66.88,65.341,66.88,54.604z"/>
									<path fill="#CA2626" d="M66.936,54.604c0-6.304,1.634-16.88,12.573-16.88c7.895,0,12.61,6.312,12.61,16.88
										c0,10.702-4.597,16.838-12.61,16.838C71.519,71.442,66.936,65.305,66.936,54.604z"/>
									<path fill="#CB2627" d="M66.99,54.604c0-6.284,1.628-16.824,12.52-16.824c7.861,0,12.556,6.29,12.556,16.824
										c0,10.666-4.575,16.783-12.556,16.783C71.554,71.386,66.99,65.27,66.99,54.604z"/>
									<path fill="#CB2627" d="M67.044,54.604c0-6.263,1.621-16.769,12.465-16.769c7.827,0,12.502,6.27,12.502,16.769
										c0,10.63-4.557,16.727-12.502,16.727C71.588,71.331,67.044,65.234,67.044,54.604z"/>
									<path fill="#CC2627" d="M67.099,54.604c0-6.242,1.613-16.712,12.41-16.712c7.793,0,12.447,6.248,12.447,16.712
										c0,10.595-4.537,16.671-12.447,16.671C71.624,71.275,67.099,65.198,67.099,54.604z"/>
									<path fill="#CD2727" d="M67.154,54.603c0-6.221,1.606-16.656,12.355-16.656c7.76,0,12.393,6.228,12.393,16.656
										c0,10.56-4.518,16.616-12.393,16.616C71.658,71.219,67.154,65.163,67.154,54.603z"/>
									<path fill="#CE2727" d="M67.208,54.603c0-6.2,1.599-16.601,12.302-16.601c7.724,0,12.337,6.207,12.337,16.601
										c0,10.524-4.496,16.56-12.337,16.56C71.693,71.163,67.208,65.128,67.208,54.603z"/>
									<path fill="#CE2728" d="M67.263,54.603c0-6.179,1.592-16.544,12.247-16.544c7.689,0,12.282,6.186,12.282,16.544
										c0,10.489-4.479,16.504-12.282,16.504C71.727,71.107,67.263,65.092,67.263,54.603z"/>
									<path fill="#CF2728" d="M67.318,54.603c0-6.158,1.585-16.489,12.192-16.489c7.655,0,12.228,6.165,12.228,16.489
										c0,10.453-4.456,16.448-12.228,16.448C71.761,71.051,67.318,65.056,67.318,54.603z"/>
									<path fill="#D02728" d="M67.373,54.603c0-6.137,1.578-16.433,12.138-16.433c7.621,0,12.173,6.144,12.173,16.433
										c0,10.418-4.438,16.392-12.173,16.392C71.796,70.995,67.373,65.021,67.373,54.603z"/>
									<path fill="#D02828" d="M67.426,54.603c0-6.117,1.571-16.377,12.084-16.377c7.587,0,12.118,6.123,12.118,16.377
										c0,10.382-4.417,16.336-12.118,16.336C71.832,70.94,67.426,64.986,67.426,54.603z"/>
									<path fill="#D12828" d="M67.481,54.603c0-6.096,1.563-16.321,12.029-16.321c7.554,0,12.064,6.102,12.064,16.321
										c0,10.347-4.397,16.28-12.064,16.28C71.866,70.884,67.481,64.95,67.481,54.603z"/>
									<path fill="#D22829" d="M67.536,54.603c0-6.075,1.557-16.265,11.975-16.265c7.519,0,12.009,6.081,12.009,16.265
										c0,10.311-4.377,16.225-12.009,16.225C71.9,70.828,67.536,64.914,67.536,54.603z"/>
									<path fill="#D32829" d="M67.59,54.603c0-6.054,1.55-16.209,11.92-16.209c7.484,0,11.955,6.061,11.955,16.209
										c0,10.276-4.356,16.169-11.955,16.169C71.935,70.772,67.59,64.879,67.59,54.603z"/>
									<path fill="#D32829" d="M67.644,54.603c0-6.033,1.543-16.153,11.867-16.153c7.45,0,11.899,6.039,11.899,16.153
										c0,10.241-4.337,16.113-11.899,16.113C71.969,70.716,67.644,64.844,67.644,54.603z"/>
									<path fill="#D42829" d="M67.699,54.603c0-6.012,1.536-16.097,11.812-16.097c7.416,0,11.845,6.019,11.845,16.097
										c0,10.205-4.317,16.057-11.845,16.057C72.004,70.66,67.699,64.808,67.699,54.603z"/>
									<path fill="#D52929" d="M67.753,54.603c0-5.991,1.528-16.041,11.758-16.041c7.38,0,11.791,5.997,11.791,16.041
										c0,10.169-4.299,16.001-11.791,16.001C72.039,70.604,67.753,64.772,67.753,54.603z"/>
									<path fill="#D62929" d="M67.808,54.603c0-5.97,1.521-15.985,11.703-15.985c7.347,0,11.736,5.977,11.736,15.985
										c0,10.134-4.278,15.946-11.736,15.946C72.074,70.549,67.808,64.737,67.808,54.603z"/>
									<path fill="#D6292A" d="M67.863,54.603c0-5.95,1.515-15.929,11.648-15.929c7.312,0,11.681,5.956,11.681,15.929
										c0,10.099-4.258,15.89-11.681,15.89C72.109,70.492,67.863,64.701,67.863,54.603z"/>
									<path fill="#D7292A" d="M67.917,54.602c0-5.928,1.508-15.873,11.594-15.873c7.279,0,11.626,5.935,11.626,15.873
										c0,10.063-4.238,15.834-11.626,15.834C72.143,70.437,67.917,64.666,67.917,54.602z"/>
									<path fill="#D8292A" d="M67.972,54.602c0-5.908,1.5-15.817,11.539-15.817c7.245,0,11.572,5.914,11.572,15.817
										c0,10.028-4.218,15.778-11.572,15.778C72.178,70.381,67.972,64.63,67.972,54.602z"/>
									<path fill="#D9292A" d="M68.027,54.602c0-5.887,1.493-15.761,11.484-15.761c7.21,0,11.517,5.893,11.517,15.761
										c0,9.993-4.197,15.723-11.517,15.723C72.212,70.325,68.027,64.595,68.027,54.602z"/>
									<path fill="#D92A2A" d="M68.082,54.602c0-5.866,1.486-15.706,11.43-15.706c7.176,0,11.463,5.872,11.463,15.706
										c0,9.957-4.179,15.667-11.463,15.667C72.248,70.269,68.082,64.559,68.082,54.602z"/>
									<path fill="#DA2A2A" d="M68.136,54.602c0-5.845,1.479-15.649,11.375-15.649c7.142,0,11.408,5.851,11.408,15.649
										c0,9.921-4.158,15.611-11.408,15.611C72.282,70.213,68.136,64.524,68.136,54.602z"/>
									<path fill="#DB2A2B" d="M68.19,54.602c0-5.824,1.472-15.594,11.321-15.594c7.108,0,11.354,5.83,11.354,15.594
										c0,9.886-4.14,15.555-11.354,15.555C72.317,70.157,68.19,64.488,68.19,54.602z"/>
									<path fill="#DB2A2B" d="M68.245,54.602c0-5.804,1.466-15.538,11.267-15.538c7.074,0,11.299,5.81,11.299,15.538
										c0,9.851-4.117,15.499-11.299,15.499C72.351,70.101,68.245,64.453,68.245,54.602z"/>
									<path fill="#DC2A2B" d="M68.299,54.602c0-5.783,1.458-15.482,11.212-15.482c7.04,0,11.245,5.788,11.245,15.482
										c0,9.815-4.099,15.443-11.245,15.443C72.386,70.046,68.299,64.417,68.299,54.602z"/>
									<path fill="#DD2A2B" d="M68.354,54.602c0-5.762,1.45-15.426,11.157-15.426c7.006,0,11.19,5.768,11.19,15.426
										c0,9.779-4.078,15.388-11.19,15.388C72.42,69.99,68.354,64.382,68.354,54.602z"/>
									<path fill="#DE2B2B" d="M68.408,54.602c0-5.741,1.444-15.37,11.104-15.37c6.971,0,11.135,5.747,11.135,15.37
										c0,9.744-4.059,15.332-11.135,15.332C72.456,69.934,68.408,64.346,68.408,54.602z"/>
									<path fill="#DE2B2B" d="M68.462,54.602c0-5.72,1.438-15.314,11.049-15.314c6.938,0,11.081,5.726,11.081,15.314
										c0,9.708-4.038,15.276-11.081,15.276C72.491,69.878,68.462,64.31,68.462,54.602z"/>
									<path fill="#DF2B2C" d="M68.517,54.602c0-5.699,1.43-15.258,10.994-15.258c6.903,0,11.027,5.705,11.027,15.258
										c0,9.673-4.02,15.22-11.027,15.22C72.525,69.822,68.517,64.275,68.517,54.602z"/>
									<path fill="#E02B2C" d="M68.572,54.602c0-5.678,1.423-15.202,10.939-15.202c6.869,0,10.972,5.684,10.972,15.202
										c0,9.638-4,15.165-10.972,15.165C72.56,69.766,68.572,64.24,68.572,54.602z"/>
									<path fill="#E12B2C" d="M68.626,54.602c0-5.657,1.416-15.146,10.886-15.146c6.834,0,10.917,5.663,10.917,15.146
										c0,9.602-3.979,15.109-10.917,15.109C72.594,69.711,68.626,64.204,68.626,54.602z"/>
									<path fill="#E12B2C" d="M68.681,54.601c0-5.636,1.409-15.09,10.831-15.09c6.799,0,10.862,5.642,10.862,15.09
										c0,9.567-3.959,15.053-10.862,15.053C72.628,69.655,68.681,64.169,68.681,54.601z"/>
									<path fill="#E22C2C" d="M68.736,54.601c0-5.615,1.401-15.034,10.776-15.034c6.766,0,10.807,5.621,10.807,15.034
										c0,9.532-3.938,14.998-10.807,14.998C72.664,69.599,68.736,64.133,68.736,54.601z"/>
									<path fill="#E32C2C" d="M68.791,54.601c0-5.594,1.395-14.979,10.722-14.979c6.732,0,10.753,5.601,10.753,14.979
										c0,9.496-3.92,14.941-10.753,14.941C72.699,69.543,68.791,64.097,68.791,54.601z"/>
									<path fill="#E42C2D" d="M68.844,54.601c0-5.574,1.388-14.922,10.668-14.922c6.698,0,10.698,5.579,10.698,14.922
										c0,9.46-3.898,14.886-10.698,14.886C72.733,69.487,68.844,64.062,68.844,54.601z"/>
									<path fill="#E52C2D" d="M68.9,54.601c0-5.553,1.38-14.867,10.612-14.867c6.663,0,10.645,5.559,10.645,14.867
										c0,9.425-3.881,14.83-10.645,14.83C72.767,69.431,68.9,64.026,68.9,54.601z"/>
									<path fill="#E62C2D" d="M68.955,54.601c0-5.532,1.373-14.811,10.558-14.811c6.63,0,10.589,5.538,10.589,14.811
										c0,9.39-3.859,14.774-10.589,14.774C72.802,69.375,68.955,63.991,68.955,54.601z"/>
									<path fill="#E72D2D" d="M69.008,54.601c0-5.511,1.366-14.755,10.505-14.755c6.595,0,10.533,5.517,10.533,14.755
										c0,9.354-3.839,14.718-10.533,14.718C72.837,69.32,69.008,63.955,69.008,54.601z"/>
									<path fill="#E82D2D" d="M69.063,54.601c0-5.49,1.358-14.699,10.45-14.699c6.561,0,10.479,5.496,10.479,14.699
										c0,9.318-3.818,14.662-10.479,14.662C72.872,69.263,69.063,63.92,69.063,54.601z"/>
									<path fill="#E92D2E" d="M69.118,54.601c0-5.469,1.352-14.643,10.396-14.643c6.526,0,10.424,5.475,10.424,14.643
										c0,9.284-3.799,14.607-10.424,14.607C72.907,69.208,69.118,63.885,69.118,54.601z"/>
									<path fill="#EB2D2E" d="M69.172,54.601c0-5.448,1.345-14.587,10.341-14.587c6.492,0,10.37,5.454,10.37,14.587
										c0,9.248-3.78,14.551-10.37,14.551C72.941,69.152,69.172,63.849,69.172,54.601z"/>
								</g>
								<g clip-path="url(#SVGID_8_)">
									<g>
										<path fill="#A8AEB5" d="M84.009,50.621l1.584,6.039c-0.117,0-1.143-0.536-1.297-1.092
											c-0.744-2.706-0.84-3.192-1.321-4.854c0-0.137-0.383-0.935-0.747-1.134c-0.316-0.173-0.846-0.384-1.588,0.158
											c0,0,0.404-0.787,1.205-0.801C83.37,48.899,83.792,49.81,84.009,50.621z"/>
										<path fill="#A8AEB5" d="M70.462,60.781c0,0,0.434-0.748,1.036-0.748h6.488c0,0,1.104-0.032,1.425-0.428
											c0.269,0.401,1.453,0.428,1.453,0.428h6.141c0.463,0,0.979,0.748,0.979,0.748H70.462z"/>
										<path fill="#A8AEB5" d="M80.304,57.971c-0.221,0-0.885-0.692-0.885-1.951c0,1.258-0.768,1.951-0.93,1.951
											c-0.654-0.23-1.594,0.132-1.377,0.132c1.307,0,1.579,0.538,1.849,0.674c0.273,0.224,0.217,0.274,0,0.36
											c-0.162,0.088-0.375,0.18-1.14,0.227c-0.871,0.042-1.41-0.496-1.573-0.455c-0.927,0.408-1.262,0.355-1.479,0.355
											l-2.339,0.141c-0.438,0-0.383-0.27,0-0.27c0.434,0,1.197-0.36,1.142-0.36c0,0-1.579,0-2.012-0.315
											c-0.441-0.227,0-0.273,0.054-0.273c0.11,0,0.707-0.086,0.926-0.086c0.16,0,0.16,0,0.16-0.091v-0.183
											c0-0.72,1.254-0.901,2.069-1.081c0.761-0.224,0.71-0.404,0.71-0.586c0.051-0.948,0.545-1.53,0.927-1.755
											c0.325-0.136,0.472,0.046,0.432,0.225c-0.252,1.156,0.584,0.697,0.657,0.541c0.051-0.181,1.363-1.712,1.201-2.748
											c-0.055-1.129-0.875-0.408-1.15-0.272c-0.379,0.453-1.088,0.453-0.65-0.136c0,0,0.926-1.037,0-1.619
											c0,0-0.871-0.363,0.381-0.363c1.195,0,2.13,1.445,2.13,2.617c0-1.172,0.974-2.617,2.279-2.617
											c1.196,0,0.327,0.363,0.327,0.363c-0.814,0.582,0,1.619,0,1.619c0.49,0.589-0.219,0.589-0.654,0.136
											c-0.271-0.136-1.148-0.857-1.2,0.272c-0.062,1.036,1.2,2.567,1.31,2.748c0,0,0.545,0.494,0.707-0.138v-0.402
											c-0.055-0.181,0.053-0.361,0.328-0.225c0.379,0.225,0.926,0.807,1.029,1.755c0,0.183-0.104,0.362,0.712,0.586
											c0.656,0.179,1.96,0.361,1.96,1.081v0.183c0,0.091,0,0.091,0.162,0.091c0.217,0,0.766,0.086,0.928,0.086
											c0.054,0,0.488,0.046,0.054,0.273c-0.326,0.315-2.174,0.315-2.125,0.36c0.161,0.137,0.761,0.316,1.194,0.316
											c0.49,0,0.49,0.269,0,0.269l-2.173-0.141c-0.273,0-0.654,0.141-1.634-0.264c-0.107-0.042-0.598,0.405-1.522,0.363
											c-0.817-0.047-1.036-0.139-1.2-0.227c-0.214-0.086-0.27-0.136,0-0.36c0.218-0.137,0.549-0.674,2.016-0.674
											C82.013,58.103,81.014,57.741,80.304,57.971z"/>
										<path fill="#A8AEB5" d="M80.999,41.904c1.835,0.058,2.114,1.73,2.114,1.73c0.525,1.957,1.002,3.648,1.012,3.636
											c-0.514-0.335-1.01-0.558-1.162-1.027c-0.443-1.367-0.49-1.696-0.751-2.512c0,0-0.261-1.132-1.317-1.153
											c-0.918-0.015-1.238,0.421-1.487,0.947c-0.172-0.507-0.615-0.981-1.493-0.947c-1.057,0.043-1.316,1.153-1.316,1.153
											c-0.264,0.815-0.304,1.145-0.75,2.512c-0.153,0.47-0.652,0.692-1.162,1.027c-0.037-0.005,0.484-1.679,1.009-3.636
											c0,0,0.282-1.672,2.118-1.73c1.076-0.033,1.58,0.646,1.6,1.149C79.436,42.55,79.917,41.871,80.999,41.904z"/>
										<path fill="#A8AEB5" d="M76.568,47.36c2.009,0,2.848,2.243,2.848,2.332c0-0.089,0.883-2.332,2.895-2.332
											c3.084,0,3.592,2.629,3.592,2.629c0.272,0.813,1.848,7.617,1.848,7.617s-1.163-0.562-1.34-1.181
											c-0.975-3.35-1.103-4.556-1.65-6.479c0,0-0.401-1.729-2.573-1.748c-1.987-0.016-2.771,2.515-2.771,2.515
											s-0.737-2.531-2.724-2.515c-2.179,0.019-2.572,1.748-2.572,1.748c-0.554,1.923-0.682,3.129-1.654,6.479
											c-0.178,0.618-1.346,1.181-1.346,1.181s1.581-6.803,1.856-7.617C72.976,49.989,73.484,47.36,76.568,47.36z"/>
										<path fill="#A8AEB5" d="M79.486,40.203c-0.008-0.325,0.229-0.575,0.564-0.569c0.499,0.007,0.616,0.459,0.616,0.459
											c0.168,0.507,0.629,1.655,0.629,1.655c-0.143-0.029-0.636-0.22-0.752-0.516c-0.149-0.372-0.304-0.81-0.337-0.901
											C79.999,39.784,79.578,39.981,79.486,40.203z"/>
										<path fill="#A8AEB5" d="M79.678,44.095c0.095-0.57,0.437-0.797,0.958-0.75c0.704,0.062,0.93,0.874,0.93,0.874
											c0.216,0.812,0.805,2.716,0.805,2.716c-0.217-0.048-0.988-0.39-1.157-0.873c-0.203-0.598-0.16-0.636-0.428-1.542
											C80.497,43.323,79.678,44.095,79.678,44.095z"/>
										<path fill="#A8AEB5" d="M79.199,44.095c0,0-0.818-0.772-1.116,0.425c-0.261,0.905-0.222,0.944-0.426,1.542
											c-0.163,0.483-0.94,0.825-1.157,0.873c0,0,0.588-1.904,0.81-2.716c0,0,0.225-0.812,0.929-0.874
											C78.762,43.299,79.099,43.525,79.199,44.095z"/>
										<path fill="#A8AEB5" d="M74.824,50.621c0.219-0.811,0.641-1.722,2.165-1.684c0.806,0.015,1.201,0.801,1.201,0.801
											c-0.739-0.542-1.268-0.331-1.585-0.158c-0.364,0.2-0.742,0.998-0.742,1.134c-0.483,1.662-0.581,2.148-1.326,4.854
											c-0.149,0.556-1.178,1.092-1.29,1.092C73.247,56.66,74.61,51.479,74.824,50.621z"/>
										<path fill="#A8AEB5" d="M79.416,44.727c0,0,0.438,1.081,1.27,2.021c-0.977,0.316-1.266,0.879-1.266,0.879
											s-0.277-0.563-1.205-0.879C79.08,45.81,79.416,44.727,79.416,44.727z"/>
										<path fill="#A8AEB5" d="M79.367,40.203c-0.092-0.222-0.514-0.419-0.721,0.129c-0.035,0.091-0.187,0.529-0.339,0.901
											c-0.12,0.295-0.611,0.486-0.747,0.516c0,0,0.456-1.148,0.624-1.655c0,0,0.119-0.452,0.615-0.459
											C79.135,39.629,79.373,39.879,79.367,40.203z"/>
										<path fill="#A8AEB5" d="M79.419,40.504c0,0,0.177,0.333,0.69,0.884c-0.593,0.188-0.69,0.535-0.69,0.535
											s-0.087-0.353-0.648-0.541C79.318,40.805,79.419,40.504,79.419,40.504z"/>
									</g>
									<g>
										<path fill="#A8AEB5" d="M73.916,61.879v3.653c0,0.351-0.026,0.735,0.371,0.922l-1.842,0.019
											c0.429-0.265,0.442-0.557,0.442-0.973v-2.331l-0.728-0.177c0.77-0.231,1.231-0.537,1.729-1.113H73.916z"/>
										<path fill="#A8AEB5" d="M75.029,62.025h3.188l-1.408,4.715c-0.062,0.22-0.178,0.54-0.178,0.778
											c0,0.222,0.099,0.385,0.224,0.504l-1.625,0.027l1.635-5.042c-0.293-0.083-0.59-0.113-0.872-0.113
											c-0.498,0-0.915,0.101-1.313,0.423L75.029,62.025z"/>
										<path fill="#A8AEB5" d="M79.993,65.436c-0.259,0.198-0.411,0.578-0.411,0.966c0,0.695,0.421,1.223,0.962,1.223
											c0.396,0,0.812-0.285,0.812-0.838c0-0.595-0.521-0.847-0.858-1.058L79.993,65.436z M79.472,65.027
											c-0.424-0.319-0.727-0.808-0.727-1.48c0-0.573,0.227-1.078,0.613-1.362c0.375-0.28,0.813-0.358,1.234-0.358
											c0.353,0,0.775,0.078,1.102,0.299c0.362,0.267,0.639,0.771,0.639,1.34c0,0.596-0.282,1.023-0.713,1.218
											c0.546,0.344,0.898,0.835,0.898,1.66c0,1.421-0.96,1.947-1.912,1.947c-0.448,0-0.908-0.093-1.31-0.365
											c-0.419-0.293-0.692-0.831-0.692-1.44C78.605,65.752,78.959,65.255,79.472,65.027z M81.049,64.259
											c0.192-0.176,0.266-0.476,0.266-0.772c0-0.631-0.326-1.155-0.846-1.155c-0.309,0-0.629,0.222-0.629,0.682
											c0,0.616,0.64,0.914,1.007,1.122L81.049,64.259z"/>
										<path fill="#A8AEB5" d="M83.598,64.308v-0.609c0.618,0,1.183-0.077,1.183-0.627c0-0.387-0.346-0.546-0.711-0.546
											c-0.321,0-0.71,0.141-0.996,0.283l0.239-0.768c0.387-0.098,0.798-0.163,1.205-0.163c0.344,0,0.566,0.072,0.881,0.228
											c0.32,0.169,0.591,0.465,0.591,0.83c0,0.457-0.185,0.817-0.644,0.936c0.625,0.127,0.939,0.564,0.939,1.19
											c0,1.07-1.047,1.501-2.021,1.501c-0.371,0-0.75-0.047-1.112-0.129l-0.14-0.849c0.334,0.172,0.695,0.31,1.069,0.31
											c0.53,0,1.067-0.263,1.067-0.766c0-0.762-0.919-0.821-1.205-0.821H83.7H83.598z"/>
									</g>
								</g>
							</g>
						</g>
						<g id="Guías">
						</g>
					</g>
				</g>
			</g>
		</g>
	</g>
</g>
</svg>
