<?xml version="1.0" encoding="utf-8"?>
<!-- Generator: Adobe Illustrator 16.0.0, SVG Export Plug-In . SVG Version: 6.00 Build 0)  -->
<!DOCTYPE svg PUBLIC "-//W3C//DTD SVG 1.1//EN" "http://www.w3.org/Graphics/SVG/1.1/DTD/svg11.dtd">
<svg version="1.1" id="Layer_1" xmlns="http://www.w3.org/2000/svg" xmlns:xlink="http://www.w3.org/1999/xlink" x="0px" y="0px"
	 width="252.721px" height="237.6px" viewBox="0 0 252.721 237.6" enable-background="new 0 0 252.721 237.6" xml:space="preserve">
<g id="Capa_1" display="none">
</g>
<g id="Capa_2">
	<circle cx="129.11" cy="107.05" r="80.75"/>
	<g>
		<text transform="matrix(-0.5002 -0.8659 0.8659 -0.5002 58.3103 155.9436)" font-family="'Helvetica-Bold'" font-size="21">S</text>
		<text transform="matrix(-0.3595 -0.9331 0.9331 -0.3595 51.1677 143.3225)" font-family="'Helvetica-Bold'" font-size="20.9982">e</text>
		<text transform="matrix(-0.2416 -0.9704 0.9704 -0.2416 46.885 131.8)" font-family="'Helvetica-Bold'" font-size="21">r</text>
		<text transform="matrix(-0.1203 -0.9927 0.9927 -0.1203 44.6892 123.2668)" font-family="'Helvetica-Bold'" font-size="20.9984">v</text>
		<text transform="matrix(-0.0118 -0.9999 0.9999 -0.0118 43.4011 110.9968)" font-family="'Helvetica-Bold'" font-size="21">i</text>
		<text transform="matrix(0.0957 -0.9954 0.9954 0.0957 43.198 104.5623)" font-family="'Helvetica-Bold'" font-size="21">c</text>
		<text transform="matrix(0.2043 -0.9789 0.9789 0.2043 44.573 92.304)" font-family="'Helvetica-Bold'" font-size="21">i</text>
		<text transform="matrix(0.3173 -0.9483 0.9483 0.3173 45.74 85.9045)" font-family="'Helvetica-Bold'" font-size="21">o</text>
		<text transform="matrix(0.4552 -0.8904 0.8904 0.4552 50.0554 73.2688)" font-family="'Helvetica-Bold'" font-size="21">s</text>
		<text transform="matrix(0.643 -0.7658 0.7658 0.643 59.2874 56.8533)" font-family="'Helvetica-Bold'" font-size="20.9978">d</text>
		<text transform="matrix(0.749 -0.6626 0.6626 0.749 67.9412 46.6731)" font-family="'Helvetica-Bold'" font-size="21">e</text>
		<text transform="matrix(0.8845 -0.4666 0.4666 0.8845 82.448 34.6965)" font-family="'Helvetica-Bold'" font-size="21">C</text>
		<text transform="matrix(0.9504 -0.311 0.311 0.9504 96.324 27.5315)" font-family="'Helvetica-Bold'" font-size="21">o</text>
		<text transform="matrix(0.9919 -0.1269 0.1269 0.9919 108.8669 23.1829)" font-family="'Helvetica-Bold'" font-size="21">m</text>
		<text transform="matrix(0.9987 0.0511 -0.0511 0.9987 127.7312 21.1155)" font-family="'Helvetica-Bold'" font-size="21">e</text>
		<text transform="matrix(0.9801 0.1986 -0.1986 0.9801 139.9363 21.7346)" font-family="'Helvetica-Bold'" font-size="21">d</text>
		<text transform="matrix(0.9372 0.3487 -0.3487 0.9372 152.9968 24.4221)" font-family="'Helvetica-Bold'" font-size="20.9986">o</text>
		<text transform="matrix(0.8842 0.4671 -0.4671 0.8842 165.5007 29.2756)" font-family="'Helvetica-Bold'" font-size="21">r</text>
		<text transform="matrix(0.8202 0.5721 -0.5721 0.8202 173.321 33.3313)" font-family="'Helvetica-Bold'" font-size="21">e</text>
		<text transform="matrix(0.7311 0.6823 -0.6823 0.7311 183.3357 40.3645)" font-family="'Helvetica-Bold'" font-size="21">s</text>
		<text transform="matrix(0.5384 0.8427 -0.8427 0.5384 196.7117 53.5715)" font-family="'Helvetica-Bold'" font-size="21">M</text>
		<text transform="matrix(0.3833 0.9236 -0.9236 0.3833 206.1023 68.8069)" font-family="'Helvetica-Bold'" font-size="21">e</text>
		<text transform="matrix(0.2473 0.9689 -0.9689 0.2473 210.7566 80.1223)" font-family="'Helvetica-Bold'" font-size="20.9984">x</text>
		<text transform="matrix(0.1392 0.9903 -0.9903 0.1392 213.615 92.1199)" font-family="'Helvetica-Bold'" font-size="21.0014">i</text>
		<text transform="matrix(0.0303 0.9995 -0.9995 0.0303 214.6414 98.5671)" font-family="'Helvetica-Bold'" font-size="20.9982">c</text>
		<text transform="matrix(-0.109 0.994 -0.994 -0.109 214.9832 110.696)" font-family="'Helvetica-Bold'" font-size="20.9982">a</text>
		<text transform="matrix(-0.2558 0.9667 -0.9667 -0.2558 213.6531 122.8411)" font-family="'Helvetica-Bold'" font-size="21">n</text>
		<text transform="matrix(-0.4032 0.9151 -0.9151 -0.4032 210.2039 135.7219)" font-family="'Helvetica-Bold'" font-size="21">o</text>
		<text transform="matrix(-0.5347 0.845 -0.845 -0.5347 204.7468 147.9094)" font-family="'Helvetica-Bold'" font-size="20.9986">s</text>
	</g>
	<circle fill="#54B948" cx="129.235" cy="107.05" r="74.25"/>
	<g>
		<rect x="14.485" y="171.815" fill="#EF3E42" stroke="#000000" stroke-width="5" width="229.5" height="52.5"/>
		<g>
			<g>
				<path fill="#FFFFFF" d="M31.916,203.44c0.181,1.287,0.534,2.25,1.062,2.888c0.965,1.159,2.62,1.737,4.964,1.737
					c1.403,0,2.543-0.151,3.419-0.457c1.661-0.584,2.492-1.672,2.492-3.26c0-0.928-0.408-1.646-1.226-2.156
					c-0.816-0.493-2.108-0.932-3.877-1.312l-3.019-0.662c-2.968-0.658-5.016-1.373-6.143-2.146
					c-1.908-1.294-2.862-3.316-2.862-6.068c0-2.51,0.923-4.596,2.771-6.258c1.848-1.66,4.561-2.492,8.139-2.492
					c2.987,0,5.537,0.785,7.646,2.354c2.109,1.568,3.216,3.847,3.319,6.832h-5.625c-0.104-1.666-0.855-2.852-2.256-3.555
					c-0.935-0.463-2.096-0.695-3.481-0.695c-1.543,0-2.774,0.304-3.694,0.906c-0.921,0.604-1.381,1.445-1.381,2.525
					c0,0.994,0.453,1.733,1.361,2.225c0.583,0.328,1.821,0.713,3.716,1.154l4.909,1.156c2.15,0.506,3.763,1.186,4.833,2.036
					c1.662,1.322,2.493,3.236,2.493,5.74c0,2.568-0.988,4.701-2.964,6.398c-1.977,1.697-4.767,2.545-8.371,2.545
					c-3.684,0-6.579-0.838-8.688-2.517c-2.108-1.678-3.164-3.985-3.164-6.922L31.916,203.44L31.916,203.44z"/>
				<path fill="#FFFFFF" d="M76.197,188.94h-14.5v6.062h13.25v4.812h-13.25v7.312h15.188v5.062h-21V184h20.312V188.94z"/>
				<path fill="#FFFFFF" d="M101.789,184.729c1.035,0.445,1.912,1.103,2.631,1.967c0.596,0.714,1.065,1.503,1.413,2.367
					c0.348,0.867,0.521,1.854,0.521,2.961c0,1.336-0.337,2.65-1.011,3.943s-1.784,2.205-3.335,2.74
					c1.284,0.524,2.194,1.27,2.729,2.235s0.803,2.438,0.803,4.414v1.896c0,1.289,0.052,2.164,0.156,2.623
					c0.156,0.727,0.521,1.264,1.094,1.606v0.707h-6.448c-0.181-0.625-0.31-1.129-0.387-1.512c-0.155-0.791-0.239-1.6-0.252-2.43
					l-0.038-2.623c-0.023-1.799-0.332-2.998-0.923-3.599c-0.591-0.6-1.697-0.899-3.32-0.899h-5.693v11.062h-5.812V184h13.44
					C99.276,184.042,100.754,184.284,101.789,184.729z M89.729,188.815v7.625h6.284c1.247,0,2.185-0.151,2.81-0.461
					c1.104-0.539,1.656-1.604,1.656-3.196c0-1.72-0.534-2.875-1.604-3.466c-0.601-0.334-1.501-0.502-2.701-0.502H89.729z"/>
				<path fill="#FFFFFF" d="M116.628,186.983c2.261-2.319,5.135-3.479,8.624-3.479c4.669,0,8.083,1.559,10.243,4.672
					c1.193,1.75,1.834,3.504,1.922,5.266h-5.812c-0.375-1.379-0.855-2.422-1.441-3.125c-1.049-1.25-2.601-1.875-4.659-1.875
					c-2.096,0-3.749,0.869-4.959,2.607c-1.211,1.736-1.814,4.195-1.814,7.373c0,3.18,0.636,5.562,1.908,7.145
					c1.271,1.584,2.89,2.375,4.852,2.375c2.012,0,3.545-0.678,4.6-2.032c0.584-0.729,1.068-1.82,1.453-3.279h5.812
					c-0.502,3.07-1.787,5.565-3.853,7.49c-2.064,1.924-4.709,2.885-7.934,2.885c-3.992,0-7.13-1.299-9.413-3.9
					c-2.285-2.61-3.427-6.192-3.427-10.744C112.729,193.438,114.028,189.647,116.628,186.983z"/>
				<path fill="#FFFFFF" d="M165.845,209.71c-2.13,2.195-5.205,3.293-9.23,3.293s-7.102-1.098-9.229-3.293
					c-2.854-2.693-4.281-6.576-4.281-11.646c0-5.17,1.428-9.051,4.281-11.643c2.127-2.195,5.202-3.295,9.229-3.295
					s7.102,1.1,9.23,3.295c2.84,2.592,4.26,6.473,4.26,11.643C170.104,203.134,168.685,207.017,165.845,209.71z M162.224,205.466
					c1.379-1.734,2.067-4.201,2.067-7.4c0-3.186-0.688-5.647-2.067-7.389s-3.242-2.611-5.591-2.611
					c-2.348,0-4.221,0.867-5.618,2.603c-1.398,1.734-2.099,4.201-2.099,7.397c0,3.199,0.699,5.666,2.099,7.4
					c1.398,1.734,3.271,2.6,5.618,2.6C158.982,208.066,160.845,207.2,162.224,205.466z"/>
				<path fill="#FFFFFF" d="M195.229,184.003h8.428v28.188h-5.438v-19.063c0-0.549,0.007-1.316,0.021-2.305
					c0.012-0.988,0.02-1.75,0.02-2.285l-5.348,23.653h-5.731l-5.31-23.653c0,0.535,0.006,1.297,0.019,2.285
					c0.014,0.987,0.02,1.756,0.02,2.305v19.063h-5.438v-28.188h8.522l5.139,22.164L195.229,184.003z"/>
				<path fill="#FFFFFF" d="M231.491,188.94h-14.5v6.062h13.25v4.812h-13.25v7.312h15.188v5.062h-21V184h20.312V188.94z"/>
			</g>
		</g>
	</g>
	<g>
		<g>
			<defs>
				<circle id="SVGID_1_" cx="129.11" cy="107.05" r="74.25"/>
			</defs>
			<clipPath id="SVGID_2_">
				<use xlink:href="#SVGID_1_"  overflow="visible"/>
			</clipPath>
			<g clip-path="url(#SVGID_2_)">
				<g>
					<path fill="#FFFFFF" stroke="#000000" stroke-width="2" d="M167.86,122.55c0,0,6.5-25-2-31.5c0,0-5.5-6.75-14-8.75
						c0,0-20-4.25-27.75,8.25c0,0-0.583,1.417-3.083,1.917c0,0-4,2.167-0.833,5.333c0,0-5.083,6.375,0.667,9.375
						c0,0,5.25,0.875,6.625-1.25c0,0,1.25,1,3.375,10.625c0,0,4.75,14.5,16.375,22c0,0,29,18.375,30.75,25.875l1.25,1.125l17.625-24
						C196.86,141.55,181.11,133.55,167.86,122.55z M145.36,114.05c0,0-12.001-14.833-18-18.417c0,0,10.833-11.333,21.667-2.583
						C149.027,93.05,158.693,101.883,145.36,114.05z"/>
					<path stroke="#000000" stroke-width="0.25" d="M142.193,49.467l2.834,5c0,0-8.667,4.667-16,31.5c0,0-7.833,29.5-7.833,30.667
						c0,0-3.667,17.167-4.167,19.667c0,0-1.167,18.625-14.042,20c0,0-13,2.625-19.875-9.125c0,0-3.375-8.625-1.75-11.375l33.75-0.5
						c0,0,3.125-16.5,4.625-22.875c0,0,8-31.875,8.5-34C128.235,78.425,134.776,54.134,142.193,49.467z"/>
					<path fill="#FFFFFF" d="M83.485,137.8h30.25c0,0-0.125,16.375-13.75,16.75C99.985,154.55,85.485,155.55,83.485,137.8z"/>
					<path d="M97.36,130.3c0,0,5.667-9.666,1.5-22.167c0,0-3-9.5-2.5-12.333c0,0-2,6.5,1.5,16
						C97.86,111.8,100.027,122.8,97.36,130.3z"/>
					<path d="M106.235,126.05c0,0,5.25-10.75-2.542-26.75c0,0-8.5-14.667-7.5-19c0,0,0.667,11.417,6.292,20.75
						C102.485,101.05,106.527,105.3,106.235,126.05z"/>
					<path fill="#FFFFFF" stroke="#000000" d="M127.485,105.925c0,0-7.083-5.167-4.917-9.25c0,0,2.542-2.562,8.104,1.438"/>
				</g>
				<g>
					<path d="M120.555,101.649c0,0,2.5-0.167,1.75,2.75c0,0-1.416,2.417-2.5,0.667C119.805,105.065,118.222,102.232,120.555,101.649
						z"/>
				</g>
			</g>
		</g>
	</g>
</g>
</svg>
