<?xml version="1.0" encoding="utf-8"?>
<!-- Generator: Adobe Illustrator 16.0.0, SVG Export Plug-In . SVG Version: 6.00 Build 0)  -->
<!DOCTYPE svg PUBLIC "-//W3C//DTD SVG 1.1//EN" "http://www.w3.org/Graphics/SVG/1.1/DTD/svg11.dtd">
<svg version="1.1" id="Layer_1" xmlns="http://www.w3.org/2000/svg" xmlns:xlink="http://www.w3.org/1999/xlink" x="0px" y="0px"
	 width="175.999px" height="124.237px" viewBox="271.378 295.89 175.999 124.237"
	 enable-background="new 271.378 295.89 175.999 124.237" xml:space="preserve">
<g>
	<path fill="#004785" d="M409.561,328.987c0.938-0.152,5.644-0.152,12.608-0.152c2,0-0.759-1.856-4.152-1.856
		c-1.523,0-9.034-0.485-9.519-0.485C408.016,326.494,408.622,329.14,409.561,328.987L409.561,328.987L409.561,328.987
		L409.561,328.987z"/>
	<path fill="#004785" d="M408.016,325.428c0.636-0.152,1.973-0.761,6.305-0.609c4.332,0.152,12.665-0.333,14.182-0.485
		s0.123-0.914-0.635-1.066c-0.759-0.152-15.671-0.305-16.912,0c-1.242,0.305-3.727,0-5.091,0.609
		C404.498,324.486,407.38,325.58,408.016,325.428L408.016,325.428L408.016,325.428L408.016,325.428z"/>
	<path fill="#004785" d="M404.347,321.564c1.062,0,19.49-1.703,21.822-1.399c2.332,0.305,2.759-0.304,1.849-0.609
		c-0.909-0.305-2.304-0.457-4.151-0.609c-1.849-0.152-12.153,0.762-14.457,0.914c-2.304,0.152-5.09,0.457-5.85,0.457
		C402.801,320.318,403.284,321.564,404.347,321.564L404.347,321.564L404.347,321.564L404.347,321.564z"/>
	<polygon fill="#004785" stroke="#004785" stroke-width="0.2429" stroke-miterlimit="2.6131" points="390.845,306.987 
		392.381,312.819 398.38,312.483 398.988,318.484 404.965,319.094 404.631,325.116 410.439,326.658 409.171,332.554 
		414.668,334.989 412.496,340.612 417.546,343.881 414.525,349.096 419.003,353.116 415.207,357.792 419.003,362.465 
		414.525,366.488 417.546,371.699 412.496,374.969 414.668,380.592 409.171,383.027 410.439,388.924 404.631,390.467 
		404.965,396.486 398.988,397.098 398.379,403.098 392.382,402.764 390.845,408.594 384.973,407.322 382.547,412.84 376.945,410.66 
		373.688,415.729 368.495,412.697 364.49,417.191 359.833,413.381 355.177,417.191 351.17,412.695 345.979,415.729 342.723,410.66 
		337.12,412.838 334.695,407.322 328.822,408.594 327.286,402.764 321.288,403.098 320.679,397.098 314.702,396.486 
		315.036,390.467 309.227,388.924 310.496,383.029 305,380.592 307.171,374.971 302.121,371.701 305.142,366.486 300.664,362.465 
		304.46,357.791 300.664,353.116 305.143,349.095 302.121,343.881 307.171,340.613 305,334.989 310.496,332.555 309.228,326.658 
		315.036,325.117 314.702,319.094 320.68,318.484 321.288,312.482 327.286,312.819 328.822,306.987 334.694,308.261 337.12,302.742 
		342.722,304.922 345.978,299.853 351.172,302.886 355.177,298.39 359.834,302.202 364.49,298.39 368.496,302.886 373.688,299.853 
		376.944,304.923 382.547,302.743 384.972,308.261 390.845,306.987 	"/>
	<polygon fill="#F79239" stroke="#004785" stroke-width="0.7114" stroke-miterlimit="2.6131" points="390.845,304.979 
		392.381,310.811 398.38,310.475 398.988,316.476 404.965,317.086 404.631,323.108 410.439,324.65 409.171,330.546 414.668,332.98 
		412.496,338.604 417.546,341.873 414.525,347.087 419.003,351.108 415.207,355.784 419.003,360.457 414.525,364.48 
		417.546,369.691 412.496,372.961 414.668,378.584 409.171,381.02 410.439,386.914 404.631,388.457 404.965,394.479 398.988,395.09 
		398.379,401.09 392.382,400.756 390.845,406.586 384.973,405.314 382.547,410.83 376.945,408.652 373.688,413.721 368.495,410.688 
		364.49,415.184 359.833,411.373 355.177,415.184 351.17,410.688 345.979,413.721 342.723,408.65 337.12,410.83 334.695,405.314 
		328.822,406.586 327.286,400.756 321.288,401.09 320.679,395.09 314.702,394.479 315.036,388.459 309.227,386.914 310.496,381.02 
		305,378.584 307.171,372.961 302.121,369.691 305.142,364.479 300.664,360.457 304.46,355.783 300.664,351.108 305.143,347.086 
		302.121,341.874 307.171,338.605 305,332.981 310.496,330.546 309.228,324.65 315.036,323.108 314.702,317.086 320.679,316.476 
		321.288,310.475 327.286,310.811 328.822,304.979 334.694,306.253 337.12,300.734 342.722,302.915 345.978,297.845 
		351.172,300.878 355.177,296.382 359.834,300.194 364.49,296.382 368.496,300.878 373.688,297.845 376.944,302.915 
		382.547,300.734 384.972,306.253 390.845,304.979 	"/>
	<path fill="#004785" stroke="#004785" stroke-width="0.248" stroke-miterlimit="2.6131" d="M317.834,356.203
		c0-23.034,18.6-41.706,41.544-41.706s41.544,18.672,41.544,41.706c0,23.035-18.6,41.707-41.544,41.707
		S317.834,379.238,317.834,356.203L317.834,356.203L317.834,356.203L317.834,356.203z"/>
	<path fill="#FFFFFF" stroke="#004785" stroke-width="0.2504" stroke-miterlimit="2.6131" d="M318.241,357.458
		c0-22.808,18.417-41.298,41.137-41.298s41.138,18.49,41.138,41.298c0,22.808-18.418,41.298-41.138,41.298
		S318.241,380.266,318.241,357.458L318.241,357.458L318.241,357.458L318.241,357.458z"/>
	
		<path fill="none" stroke="#F79239" stroke-width="0.8538" stroke-linecap="round" stroke-linejoin="round" stroke-miterlimit="2.6131" d="
		M374.858,330.148c-1.864-0.136-2.371-0.037-4.644-0.955c-2.271-0.917-3.087-1.462-5.223-1.326
		c-2.137,0.136-5.828,0.917-6.915,1.462s-3.179,1.26-4.401,1.124c-1.223-0.136-2.285-0.143-2.285-0.143 M344.679,333.184
		c-0.859,0.715-2.854,1.859-3.857,2.866 M335.817,340.352c-0.712,0.578-2.707,2.872-3.426,4.594 M328.677,349.963
		c-0.434,0.429-1.573,3.301-1.857,5.738 M325.816,360.719c-0.144,0.863-0.861,3.158,2.428,7.316"/>
	<path fill="#F79239" stroke="#F79239" stroke-width="0.2504" stroke-miterlimit="2.6131" d="M358.539,333.041
		c1.424-0.286,2.712-1.15,4.998-1.437c2.285-0.286,5.579-0.578,6.861-1.007c1.281-0.429,1.431-0.858,2.568-0.858
		c1.141,0,2.279,0.143,3.142-0.286c0.859-0.429,1.287-1.436,1.287-1.436s2.274-0.081,2.69,0.268
		c0.665,0.556-1.572,0.521-1.666,2.287c-0.069,1.312-0.876,0.032-1.737,0.032c-0.859,0-1.984,2.033-2.598,2.521
		c-0.65,0.519-6.642,4.932-9.546,6.083c-2.664,1.056-3.149,1.335-6,1.144c-1.718-0.115-2.855,0.292-4,0.578
		c-1.146,0.286-2.143,0.721-3.289,0c-1.146-0.721-2.219-1.847-1.792-3.998s0.789-2.89,1.935-3.033
		c1.146-0.143,3.58,0.143,4.861-0.143C357.535,333.47,357.114,333.327,358.539,333.041L358.539,333.041L358.539,333.041
		L358.539,333.041z"/>
	<path fill="#F79239" stroke="#F79239" stroke-width="0.2504" stroke-miterlimit="2.6131" d="M347.672,343.44
		c-0.316-0.638-1.153-2.422-1.577-3.272s-0.329-1.902-1.164-1.902c-0.836,0-1.26,0.414-1.683,0.733
		c-0.423,0.318-0.635,0.967,0,1.487s1.789,2.635,2,3.272c0.211,0.638,0.328,1.477,0.847,1.371
		C346.614,345.023,347.99,344.078,347.672,343.44L347.672,343.44L347.672,343.44L347.672,343.44z"/>
	<path fill="#F79239" stroke="#F79239" stroke-width="0.2504" stroke-miterlimit="2.6131" d="M343.566,348.413
		c-0.424-0.425-3.472-4.016-4-4.76c-0.529-0.744-0.836,0.223-1.577,0.637c-0.741,0.415-2.224,2.316-1.482,3.06
		c0.741,0.744,4,2.656,4.53,3.177c0.529,0.521,0.941,1.158,1.365,0.733c0.423-0.425,0.528-1.583,0.953-1.902
		C343.778,349.04,343.99,348.838,343.566,348.413L343.566,348.413L343.566,348.413L343.566,348.413z"/>
	<path fill="#F79239" stroke="#F79239" stroke-width="0.2504" stroke-miterlimit="2.6131" d="M338.825,354.543
		c-0.211-0.318-3.905-3.506-4.53-3.708s-0.836,0.106-1.153,0.531c-0.317,0.425-1.576,3.602-1.471,4.654
		c0.106,1.051,0.201,1.051,0.836,1.158c0.635,0.106,3.578,1.169,4.636,1.063c1.059-0.106,0.751-0.106,1.059-0.744
		c0.307-0.637,0.729-1.371,0.836-1.902C339.143,355.064,339.036,354.862,338.825,354.543L338.825,354.543L338.825,354.543
		L338.825,354.543z"/>
	<path fill="#F79239" stroke="#F79239" stroke-width="0.2504" stroke-miterlimit="2.6131" d="M331.458,366.793
		c1.365-0.84,4.519-3.271,5.472-3.592c0.636-0.211,0.106-0.732-0.835-1.051s-4.752-1.488-5.377-1.275
		c-0.624,0.213-0.624,0.543-0.624,1.381c0,0.84-0.212,3.602-0.105,4.123C330.094,366.9,330.094,367.633,331.458,366.793
		L331.458,366.793L331.458,366.793L331.458,366.793z"/>
	<path fill="#F79239" stroke="#F79239" stroke-width="0.2504" stroke-miterlimit="2.6131" d="M331.247,372.615
		c0.635-0.213,3.778-2.338,5.048-3.707c1.271-1.371,3.165-3.051,3.271-0.521s-1.472,5.918-1.684,7.396
		c-0.212,1.477-0.223,1.797-1.27,1.584c-1.048-0.214-1.46-0.841-2.52-1.371c-1.059-0.531-1.577-1.265-2.424-2.009
		C330.822,373.243,330.612,372.828,331.247,372.615L331.247,372.615L331.247,372.615L331.247,372.615z"/>
	<path fill="#F79239" stroke="#F79239" stroke-width="0.2504" stroke-miterlimit="2.6131" d="M342.614,372.297
		c0,0.627-0.52,4.006-0.73,4.537s3.99,0.637,4.414,0.424c0.423-0.213-0.424-3.377-1.365-4.961s-1.34-1.682-1.789-1.381
		C342.825,371.129,342.614,371.67,342.614,372.297L342.614,372.297L342.614,372.297L342.614,372.297z"/>
	<path fill="#F79239" stroke="#F79239" stroke-width="0.2504" stroke-miterlimit="2.6131" d="M351.461,375.889
		c0.106-0.531-0.104-1.584,0.212-2.008c0.317-0.426,1.471-1.158,1.895-1.371c0.423-0.213,4.096-2.945,5.26-4.211
		c1.164-1.264,7.8-7.732,8.742-8.582c0.94-0.85,3.488-4.239,4.548-4.973c1.059-0.733,0.712,0.319,0.712,0.319l0,0l0.74,0.212l0,0
		c0,0-0.952,1.169-2.317,2.434c-1.365,1.264-4.212,4.218-4.318,5.281c-0.104,1.062,1.154,1.168,2.002,0.637
		c0.847-0.531,16.646-15.746,17.166-16.064c0.519-0.318,2.2-0.956,0.941,0c-1.26,0.957-15.061,14.906-16.638,16.277
		s-7.566,5.492-8.731,6.023c-1.164,0.531-2.011,1.053-2.952,1.477c-0.941,0.426-1.719,1.551-2.212,2.008
		C355.25,374.518,351.355,376.42,351.461,375.889L351.461,375.889L351.461,375.889L351.461,375.889z"/>
	<path fill="#004785" stroke="#004785" stroke-width="0.2504" stroke-miterlimit="2.6131" d="M390.013,330.053
		c-1.062,0-3.641,0.485-5.669,0.79c-2.027,0.304-2.965,0.471-3.752,0.318c-0.786-0.152-1.642,0.167-1.339-0.318
		c0.304-0.485,0.953-0.859,3.56-1.468c2.607-0.609,4.622-0.512,5.532-0.692c0.909-0.181,1.819,0.305,1.819,0.305
		S391.074,330.053,390.013,330.053L390.013,330.053L390.013,330.053L390.013,330.053z"/>
	<path fill="#004785" stroke="#004785" stroke-width="0.2504" stroke-miterlimit="2.6131" d="M386.924,326.244
		c-0.44,0.111-3.434,0.681-4.222,0.902c-0.788,0.222-1.449,0.332-1.779,0.553c-0.331,0.222,0.094,0.554,0.771,0.554
		c0.677,0,1.56,0.11,1.89,0.11c0.331,0,3.473-0.727,4.662-1.106C388.593,327.146,387.364,326.133,386.924,326.244L386.924,326.244
		L386.924,326.244L386.924,326.244z"/>
	<path fill="#004785" stroke="#004785" stroke-width="0.2504" stroke-miterlimit="2.6131" d="M381.363,325.138
		c0.661,0,2.678-0.127,1.119-1.012c-1.561-0.885-2.331-0.885-3.341-0.996c-1.008-0.11-14.11,0.111-17.672,0.443
		c-3.559,0.332-9.322,1.123-10.552,1.455c-1.229,0.332-3.119,1.881-3.339,3.336c-0.221,1.455-0.425,2.578-0.882,5.36
		c-0.458,2.782-0.898,6.135,1.102,7.922s3.268,2.252,5.45,2.118c1.937-0.119,4.488-0.783,4.488-0.783s4.757,0.357,6.521-0.213
		c1.764-0.569,9.104-4.143,11.323-6.593c2.22-2.45,0.788-2.008,1.56-2.451c0.772-0.443,1.449-0.316,1.34-0.775
		c-0.11-0.458-0.236-0.791-0.788-0.791s-0.787-0.57-1.56,0.221c-0.771,0.791-7.653,5.93-9.765,6.926
		c-2.11,0.996-3.447,1.776-5.562,1.787c-0.585,0.003-3.498,0.064-3.498,0.064s-2.375,0.486-2.723,0.6
		c-0.677,0.221-3.024,1.012-4.567-0.996c-1.544-2.008-1.434-2.451-1.213-3.795c0.221-1.344,0.771-4.253,0.661-5.139
		c-0.109-0.886-0.551-3.242,1.561-3.905c2.109-0.664,6.789-2.119,11.45-2.562c4.661-0.442,8.095-0.553,9.544-0.553
		c1.448,0,7.906,0.221,8.458,0.221C381.033,325.027,380.702,325.138,381.363,325.138L381.363,325.138L381.363,325.138
		L381.363,325.138z"/>
	<path fill="#004785" stroke="#004785" stroke-width="0.2504" stroke-miterlimit="2.6131" d="M372.451,326.78
		c0-1.013,0.581-2.212,2.471-2.085c1.225,0.083,2.471,0.821,2.471,1.834c0,1.013-0.471,2.403-2.801,1.944
		C373.388,328.237,372.451,327.793,372.451,326.78L372.451,326.78L372.451,326.78L372.451,326.78z"/>
	<path fill="#004785" stroke="#004785" stroke-width="0.2504" stroke-miterlimit="2.6131" d="M345.872,329.775v-1.561l0,0
		c0,0-1.854-1.332-2.975-0.626c-1.121,0.707-4.984,3.665-5.79,4.368c-0.92,0.804-2.873,2.96-0.981,4.791
		c1.856,1.796,4.562,5.109,6.457,8.563c0.409,0.745,3.017,2.889,3.017,2.889s1.858,0.314,2.527-0.53
		c0.573-0.723,0.945-1.302,1.297-1.831c0.268-0.403-0.351-0.774-0.841-0.845c-0.14-0.32-0.18-0.672-0.529-0.532
		c-0.481,0.194-0.633,0.811-1.051,1.34c-0.418,0.529-1.579,0.103-1.755-0.67s-2.099-3.345-2.802-4.47
		c-0.687-1.098-2.957-3.629-3.727-4.511c-0.769-0.882-0.874-1.761,0.247-2.643c1.121-0.883,4.092-3.364,5.017-3.771
		C344.304,329.596,345.872,329.775,345.872,329.775L345.872,329.775L345.872,329.775L345.872,329.775z"/>
	<path fill="#004785" stroke="#004785" stroke-width="0.2504" stroke-miterlimit="2.6131" d="M335.248,338.256v-1.192l0,0
		c-2.125-0.314-1.688-1.318-3.018,0.023c-0.935,0.941-3.247,3.89-3.797,4.809c-0.627,1.049-3.264,4.505,0.125,5.334
		c4.875,1.192,8.096,3.221,10.961,5.917c0.618,0.582,3.867,2.206,3.867,2.206s1.645-1.168,2.106-2.441
		c0.314-0.869,0.508-1.803,0.68-2.416c0.131-0.466-0.571-0.627-1.06-0.542c-0.232-0.262-0.377-0.584-0.667-0.341
		c-0.399,0.333-0.409,0.677-0.645,1.31c-0.234,0.633-1.684,2.334-2.287,1.366c-0.419-0.672-3.144-2.36-4.158-3.212
		c-0.99-0.831-5.759-2.433-6.763-3.033c-1.004-0.601-1.074-0.921-0.278-2.108c0.794-1.187,2.855-4.468,3.609-5.142
		C334.186,338.561,335.248,338.256,335.248,338.256L335.248,338.256L335.248,338.256L335.248,338.256z"/>
	<path fill="#004785" stroke="#004785" stroke-width="0.2504" stroke-miterlimit="2.6131" d="M327.372,348.547l-0.308-1.151l0,0
		c-1.692,0.147-1.596-1.225-2.756,0.9c-0.636,1.165-1.364,2.396-1.625,4.832c-0.188,1.757-2.982,5.156,0.5,5.334
		c3.688,0.188,8.626,1.255,12.623,2.745c0.794,0.295,4.004,0.582,4.004,0.582s1.588-1.014,1.705-2.363
		c0.081-0.92,0.026-1.874,0.034-2.51c0.006-0.484-0.714-0.458-1.164-0.249c-0.291-0.192-0.515-0.465-0.731-0.156
		c-0.3,0.426-0.222,0.76-0.284,1.433c-0.064,0.672-0.497,1.772-1.435,1.647c-0.782-0.105-4.3-1.135-5.501-1.694
		c-1.171-0.546-5.957-0.915-7.081-1.234c-1.123-0.319-1.274-0.611-0.812-1.964c0.462-1.353,1.138-4.444,1.693-5.29
		C326.424,349.117,327.372,348.547,327.372,348.547L327.372,348.547L327.372,348.547L327.372,348.547z"/>
	<path fill="#004785" stroke="#004785" stroke-width="0.2504" stroke-miterlimit="2.6131" d="M323.731,359.369l-1.536-0.244l0,0
		c0,0-1.365,1.975-1.088,3.703c0.21,1.312,2.811,5.994,3.376,6.904c0.646,1.037,2.239,3.209,4.492,1.852
		c1.125-0.678,4.182-0.768,7.281-4.604c0.534-0.66,3.531-2.188,3.531-2.188s1.017-0.683,0.292-1.478
		c-0.622-0.682-1.583-0.578-1.931,0c-0.361,0.599-0.624,0.695-1.456,1.043c-0.729,0.306-1.452,0.611-2.417,1.521
		c-1.168,1.104-3.973,3.252-4.961,3.877s-2.322-0.379-3.016-1.629c-0.692-1.248-2.917-5.43-2.778-6.961
		C323.555,360.82,323.731,359.369,323.731,359.369L323.731,359.369L323.731,359.369L323.731,359.369z"/>
	<path fill="#004785" stroke="#004785" stroke-width="0.2504" stroke-miterlimit="2.6131" d="M341.086,367.18
		c-0.458-0.459-1.037-0.52-1.037-0.52s-0.125-0.85,0.308-1c0.835-0.293,1.338-0.02,2.243,0.162c1.622,0.326,1.708,1.502,1.136,1.846
		c-0.572,0.346-1.005,1.744-1.288,2.205c-0.283,0.459-0.397,1.379-0.626,2.467c-0.229,1.09-0.573,4.301-0.916,4.99
		s-9.43,0.23-9.772,0s-1.542-0.514-2-1.203s-1.084-1.203-1.312-1.893c-0.229-0.691,0-1.035,0-1.035s1.312-0.115,1.771,0.23
		c0.458,0.344,1.313,0.973,2,1.547c0.688,0.573,1.489,1.205,2.344,1.893c0.855,0.691,4,0.691,4,0.691s0.513-0.92,1.199-2.354
		c0.688-1.435,1.146-3.272,1.146-4.131c0-0.859,0.078-1.4,0.564-2.351C341.231,367.969,341.544,367.639,341.086,367.18
		L341.086,367.18L341.086,367.18L341.086,367.18z"/>
	<path fill="#004785" stroke="#004785" stroke-width="0.2504" stroke-miterlimit="2.6131" d="M345.411,368.645
		c-0.486,0-0.649,0.162-0.812-0.244c-0.162-0.405-0.242-0.895,0.406-0.977c0.649-0.082,1.838,0.244,2.243,0.244
		s1.649,0.352,1.19,0.895c-0.46,0.543-0.325,2.146-0.081,2.797c0.242,0.65,1.216,2.714,1.297,3.527
		c0.081,0.814,0.243,2.008,0.081,2.414c-0.162,0.408-2.325,0.408-2.325,0.408s0.081-1.357,0.081-1.764
		c0-0.408-0.162-0.787-0.567-1.766c-0.405-0.978-0.946-2.687-0.865-3.146s-0.217-0.787-0.08-1.193
		C346.114,369.432,346.357,368.562,345.411,368.645L345.411,368.645L345.411,368.645L345.411,368.645z"/>
	<path fill="#004785" stroke="#004785" stroke-width="0.2504" stroke-miterlimit="2.6131" d="M351.898,368.727
		c-0.162,0.625-0.081,1.492-0.081,2.062s-1.919,2.17-2,0.326c-0.081-1.846-0.243-2.959,0.081-3.365
		c0.323-0.408,0.702-1.357,1.188-1.439c0.486-0.08,1.108-0.244,2.082-0.567c0.973-0.326,6.812-5.781,8.406-7.87
		s8.137-9.796,8.866-10.285c0.729-0.489,2.242-2.116,2.892-2.578c0.649-0.462,1.946-0.814,2.487-0.244
		c0.541,0.57,0.135,1.438,1.107,0.651c0.974-0.787,1.189-1.682,1.919-1.845c0.729-0.163,4.325,0.218,8.082-0.651
		c3.759-0.869,5.056-1.683,7.056-1.357s2.081,1.113,1.188,1.846c-0.892,0.733-3.838,3.419-5.676,5.292
		c-1.839,1.872-18.165,17.991-18.57,18.479c-0.404,0.487,0-0.326-0.324,0c-0.323,0.325-1.62,1.926-2.161,2.172
		c-0.541,0.242-1.353,0.379-2.785,1.6c-1.434,1.221-2.918,1.846-3.378,1.846s-1.812,0.352-2.298,1.383
		c-0.487,1.031-1.081,1.685-1.622,1.846c-0.541,0.164-1.108,0.109-1.596,0.652c-0.485,0.543-0.945,0.867-0.945,0.867l0,0
		l-3.919-0.08l0,0c0,0,1.297-1.275,2.08-1.438c0.784-0.162,2.299-0.923,2.947-1.14s1.189-1.547,1.676-2.008
		c0.486-0.463,1.595-1.031,2.244-1.275c0.648-0.243,8.163-5.348,9.839-7.057c1.677-1.709,19.598-19.429,20.165-20.243
		s0.284-1.379-1.271-0.326c-2.243,1.52-16.002,15.087-18.326,16.934c-2.265,1.797-4.487,2.469-1.919-0.082
		c2.567-2.551,14.381-14.274,15.354-15.088c0.974-0.814,0.352-1.953-0.783-0.896c-1.136,1.058-5.703,6.295-7.622,7.733
		c-1.718,1.287-2.785,1.167-2.298,0.543c0.485-0.625,3.974-4.993,5.026-6.024c1.054-1.031-0.136-0.977-1.026-0.081
		c-0.893,0.895-6.325,7.788-6.894,8.195c-0.566,0.407-0.729,0.38-2,1.845c-1.271,1.465-4.369,4.53-5.596,5.319
		c-1.353,0.867-1.621,0.136-0.648-0.978c0.974-1.112-0.025-0.813-0.485-0.487c-0.46,0.324-4.649,5.101-5.515,5.808
		c-0.864,0.705-1.382,0.959-2.405,0.866C352.601,367.424,352.061,368.102,351.898,368.727L351.898,368.727L351.898,368.727
		L351.898,368.727z"/>
	<path fill="#004785" stroke="#004785" stroke-width="0.2504" stroke-miterlimit="2.6131" d="M351.25,346.968
		c1.302-0.49,7.513-2.381,11.048-1.074s1.441,1.891,0.488,1.774c-0.953-0.116-6.001-0.373-8.118,0.351
		c-2.117,0.723-1.907,0.84-2.721,0.957c-0.814,0.117-1.651,0.84-1.885,0c-0.231-0.84-0.553-1.149-0.231-1.658
		C350.436,346.362,349.947,347.458,351.25,346.968L351.25,346.968L351.25,346.968L351.25,346.968z"/>
	<path fill="#004785" stroke="#004785" stroke-width="0.2504" stroke-miterlimit="2.6131" d="M349.707,349.734
		c0.19-0.057,0.304,0.323,0.685,0.229c2.229-0.975,7.726-1.996,10.624-0.569c2.235,1.1-0.938,1.656-1.881,1.473
		c-0.942-0.184-3.715-0.461-5.877,0.112c-2.162,0.574-1.96,0.705-2.781,0.764c-0.82,0.059-1.706,0.723-1.879-0.132
		s-0.565-1.077-0.377-1.648l0,0l0.172-0.344l0,0C348.392,349.62,349.535,350.136,349.707,349.734L349.707,349.734L349.707,349.734
		L349.707,349.734z"/>
	<path fill="#004785" stroke="#004785" stroke-width="0.2504" stroke-miterlimit="2.6131" d="M348.164,352.201
		c0.249-0.194,0.062,0.634,0.686,0.631c2.582-0.012,8.057-0.135,10.174,1.205c2.105,1.333-1.521,1.4-2.425,1.071
		c-0.902-0.329-3.862-0.784-6.091-0.44c-2.21,0.341-1.295,0.931-2.115,0.86c-0.819-0.07-1.942-0.114-2.114-1.147
		c-0.144-0.86-0.486-1.437-0.06-1.859l0,0l0.346-0.378l0,0C346.562,352.144,347.649,352.603,348.164,352.201L348.164,352.201
		L348.164,352.201L348.164,352.201z"/>
	<path fill="#004785" stroke="#004785" stroke-width="0.2504" stroke-miterlimit="2.6131" d="M346.792,355.758
		c3.143,0.517,4.458-0.057,8.226,1.717c2.255,1.062,0.005,1.84-2.213,0.896c-0.884-0.376-1.03-0.152-3.254-0.393
		c-2.473-0.269-2.524,0.532-3.33,0.362c-0.805-0.17-1.391-0.175-1.322-1.044c0.066-0.87-0.805-2.572-0.277-2.284
		c0.629,0.345,0.972,0.172,1.486,0C346.293,355.1,346.468,355.761,346.792,355.758L346.792,355.758L346.792,355.758L346.792,355.758
		z"/>
	<path fill="#F79239" stroke="#F79239" stroke-width="0.2504" stroke-miterlimit="2.6131" d="M271.504,374.777
		c0,0,13.823,0.502,31.406,1.004s39.427,1.004,56.468,1.004c17.042,0,38.885-0.502,56.468-1.004
		c17.584-0.502,31.406-1.004,31.406-1.004l0,0v45.178l0,0c0,0-13.761-4.457-31.312-7.154c-17.554-2.699-39.396-3.641-56.562-3.641
		c-17.165,0-39.009,0.94-56.561,3.641c-17.552,2.697-31.313,7.154-31.313,7.154l0,0V374.777L271.504,374.777L271.504,374.777z"/>
	<path fill="#004785" stroke="#004785" stroke-width="0.2504" stroke-miterlimit="2.6131" d="M272.004,375.781
		c0,0,13.323,0.502,30.906,1.004s39.427,1.004,56.468,1.004c17.042,0,38.885-0.502,56.468-1.004
		c17.584-0.502,30.906-1.004,30.906-1.004l0,0v10.479v10.479v10.479v10.479l0,0c0,0-13.261-4.455-30.812-7.154
		c-17.554-2.697-39.396-3.639-56.562-3.639c-17.165,0-39.009,0.94-56.561,3.639c-17.552,2.699-30.813,7.154-30.813,7.154l0,0
		v-10.479v-10.479V386.26V375.781L272.004,375.781L272.004,375.781z"/>
	<path fill="#F79239" stroke="#F79239" stroke-width="0.1082" stroke-miterlimit="2.6131" d="M431.61,380.844
		c0-0.805,1.791-1.455,4.001-1.455c2.209,0,4,0.65,4,1.455c0,0.803-1.791,1.455-4,1.455
		C433.401,382.299,431.61,381.646,431.61,380.844L431.61,380.844L431.61,380.844L431.61,380.844z"/>
	<path fill="#F79239" stroke="#F79239" stroke-width="0.1082" stroke-miterlimit="2.6131" d="M418.394,380.844
		c0-0.805,1.791-1.455,4.001-1.455s4,0.65,4,1.455c0,0.803-1.79,1.455-4,1.455S418.394,381.646,418.394,380.844L418.394,380.844
		L418.394,380.844L418.394,380.844z"/>
	<path fill="#F79239" stroke="#F79239" stroke-width="0.1082" stroke-miterlimit="2.6131" d="M307.561,406.766
		c-0.042-0.803,1.714-1.547,3.92-1.662c2.207-0.116,4.028,0.439,4.07,1.242c0.042,0.804-1.713,1.547-3.919,1.662
		C309.425,408.125,307.603,407.568,307.561,406.766L307.561,406.766L307.561,406.766L307.561,406.766z"/>
	<path fill="#F79239" stroke="#F79239" stroke-width="0.1082" stroke-miterlimit="2.6131" d="M399.838,396.965
		c-0.066,1.068-0.379,1.654-0.499,1.808c-0.997,1.27-2.796,2.209-6.797,2.209c-3.338,0-4.736-0.337-4.937-1.546
		c-0.138-0.819,1.335-0.702,2.268-0.799c1.13-0.117,1.8,0.402,2.468,0.472c0.462,0.045,0.881-0.029,1.184-0.121
		c0,0,0.03-9.658,0.03-11.203c0.001-1.117-0.925-1.312-2.128-1.648c-0.377-0.104-0.46-0.643,1.022-0.848
		c2.536-0.354,5.668-0.774,6.544-0.521c0.621,0.183,0.89,0.262,0.946,0.828c0.032,0.34-0.103,0.719-0.103,1.104l0,0v6.428l0,0
		c0.132,0.649,0.704,1.14,1.391,1.14l0,0h4.049l0,0c0.782,0,1.422-0.64,1.422-1.425l0,0l0.057-0.01V386.7l0,0
		c0-0.386-0.082-0.671-0.247-0.854c-0.178-0.174-0.061-0.182-0.396-0.35c-0.353-0.178-0.816-0.146-0.854-0.539
		c-0.021-0.238,0.017-0.564,0.244-0.564l0,0h8.821l0,0c0.229,0,0.267,0.326,0.244,0.564c-0.037,0.393-0.502,0.361-0.854,0.539
		c-0.335,0.168-0.218,0.176-0.395,0.35c-0.166,0.184-0.248,0.469-0.248,0.854l0,0v7.946l0.053,0.039l0,0
		c0,0.785,0.635,1.423,1.418,1.423l0,0h4.049l0,0c0.693,0,1.273-0.499,1.397-1.158l0,0v-8.25l0,0c0-0.386-0.082-0.671-0.248-0.854
		c-0.177-0.174-0.062-0.182-0.396-0.35c-0.352-0.178-0.815-0.146-0.854-0.539c-0.022-0.238,0.015-0.564,0.244-0.564l0,0h8.82l0,0
		c0.229,0,0.267,0.326,0.243,0.564c-0.036,0.393-0.502,0.361-0.854,0.539c-0.335,0.168-0.218,0.176-0.396,0.35
		c-0.165,0.184-0.247,0.469-0.247,0.854l0,0l0.002,10.084l0,0c0,0.787,0.636,1.424,1.418,1.424l0,0h4.051l0,0
		c0.781,0,1.421-0.637,1.421-1.424l0,0l0.024-10.084l0,0c0-0.386-0.082-0.671-0.247-0.854c-0.178-0.174-0.061-0.182-0.396-0.35
		c-0.353-0.178-0.817-0.146-0.854-0.539c-0.021-0.238,0.016-0.564,0.243-0.564l0,0h8.822l0,0c0.228,0,0.266,0.326,0.243,0.564
		c-0.036,0.393-0.502,0.361-0.854,0.539c-0.335,0.168-0.218,0.176-0.396,0.35c-0.166,0.184-0.248,0.469-0.248,0.854l0,0v12.285l0,0
		c0,0.385,0.082,0.67,0.248,0.854c0.178,0.176,0.061,0.183,0.396,0.353c0.353,0.176,0.817,0.145,0.854,0.539
		c0.021,0.237-0.017,0.562-0.243,0.562l0,0h-4.495l0,0c-0.025,0.043-0.061,0.062-0.107,0.053c-3.065-0.606-2.573-1.926-3.065-1.844
		c-2.696,0.451-4.464,0.588-7.264,0.084c-3.837-0.69-4.689-2.725-5.147-2.535c-1.673,0.691-4.826,0.795-7.51,0.361
		c-2.246-0.361-5.264-1.433-6.247-2.369c-0.604-0.576,0.16,1.256-7.113,0.776l0,0v1.146H399.838L399.838,396.965z"/>
	<path fill="#F79239" stroke="#F79239" stroke-width="0.1082" stroke-miterlimit="2.6131" d="M297.8,407.744
		c-0.042-0.803,1.713-1.547,3.919-1.664c2.207-0.115,4.029,0.441,4.071,1.244c0.042,0.801-1.713,1.547-3.919,1.662
		S297.842,408.545,297.8,407.744L297.8,407.744L297.8,407.744L297.8,407.744z"/>
	<path fill="#F79239" stroke="#F79239" stroke-width="0.1082" stroke-miterlimit="2.6131" d="M405.177,380.844
		c0-0.805,1.791-1.455,4.001-1.455c2.209,0,4,0.65,4,1.455c0,0.803-1.791,1.455-4,1.455
		C406.968,382.299,405.177,381.646,405.177,380.844L405.177,380.844L405.177,380.844L405.177,380.844z"/>
	<path fill="#F79239" stroke="#F79239" stroke-width="0.1082" stroke-miterlimit="2.6131" d="M341.169,398.199
		c0-0.806,1.791-1.455,4-1.455s4,0.649,4,1.455c0,0.803-1.791,1.453-4,1.453S341.169,399.002,341.169,398.199L341.169,398.199
		L341.169,398.199L341.169,398.199z"/>
	<path fill="#FFFFFF" stroke="#FFFFFF" stroke-width="0.1082" stroke-miterlimit="2.6131" d="M306.571,406.09
		c-0.042-0.803,1.712-1.547,3.919-1.662c2.207-0.117,4.028,0.439,4.07,1.242c0.043,0.803-1.712,1.547-3.919,1.662
		C308.436,407.449,306.613,406.893,306.571,406.09L306.571,406.09L306.571,406.09L306.571,406.09z"/>
	<path fill="#FFFFFF" stroke="#FFFFFF" stroke-width="0.1082" stroke-miterlimit="2.6131" d="M296.811,407.066
		c-0.042-0.802,1.713-1.548,3.919-1.662c2.206-0.115,4.029,0.438,4.071,1.242c0.042,0.803-1.713,1.547-3.919,1.663
		C298.675,408.426,296.853,407.869,296.811,407.066L296.811,407.066L296.811,407.066L296.811,407.066z"/>
	<path fill="#004785" d="M392.44,365.906c-0.251-0.621-0.615-1.172-1.094-1.656c-0.491-0.508-1.053-0.893-1.684-1.152
		c-0.627-0.262-1.295-0.393-2.005-0.393c-0.7,0-1.354,0.125-1.962,0.371c-0.604,0.246-1.146,0.611-1.629,1.098
		c-0.501,0.502-0.887,1.072-1.155,1.711c-0.264,0.639-0.396,1.299-0.396,1.984c0,0.68,0.128,1.328,0.384,1.949
		c0.255,0.619,0.626,1.176,1.112,1.668c0.492,0.504,1.052,0.891,1.679,1.16c0.631,0.266,1.286,0.397,1.969,0.397
		c0.678,0,1.329-0.131,1.956-0.392c0.626-0.262,1.188-0.637,1.689-1.125c0.492-0.479,0.865-1.03,1.12-1.655
		c0.26-0.623,0.392-1.293,0.392-2.004C392.816,367.174,392.69,366.52,392.44,365.906L392.44,365.906L392.44,365.906L392.44,365.906z
		 M391.73,369.602c-0.224,0.521-0.541,0.982-0.953,1.383c-0.433,0.425-0.919,0.744-1.462,0.966
		c-0.538,0.219-1.108,0.327-1.713,0.327c-0.557,0-1.099-0.114-1.628-0.344c-0.528-0.227-1.002-0.553-1.42-0.977
		c-0.413-0.42-0.729-0.893-0.945-1.42c-0.219-0.529-0.327-1.086-0.327-1.668s0.114-1.145,0.341-1.684
		c0.232-0.541,0.562-1.029,0.988-1.47c0.413-0.414,0.877-0.727,1.392-0.937c0.516-0.215,1.072-0.319,1.671-0.319
		c0.598,0,1.162,0.11,1.69,0.334c0.532,0.226,1.017,0.552,1.446,0.979c0.413,0.424,0.725,0.903,0.934,1.438
		c0.214,0.531,0.32,1.104,0.32,1.726C392.064,368.52,391.953,369.074,391.73,369.602L391.73,369.602L391.73,369.602L391.73,369.602z
		"/>
	<path fill="#004785" d="M389.894,367.506c0.224-0.281,0.335-0.633,0.335-1.055c0-0.518-0.207-0.91-0.619-1.174
		c-0.413-0.266-1.021-0.398-1.823-0.398l0,0h-2.22v5.791h1.237v-2.418h0.897l1.142,2.418h1.386l-1.288-2.621l0,0
		C389.353,367.961,389.671,367.779,389.894,367.506L389.894,367.506L389.894,367.506L389.894,367.506z M388.634,367.275
		c-0.214,0.139-0.552,0.209-1.016,0.209l0,0h-0.814v-1.824h0.76l0,0c0.481,0,0.835,0.078,1.058,0.23
		c0.223,0.149,0.334,0.385,0.334,0.707C388.953,366.904,388.847,367.131,388.634,367.275L388.634,367.275L388.634,367.275
		L388.634,367.275z"/>
	<path fill="#004685" d="M385.203,314.769c-0.315,0.623-1.007,1.243-2.073,1.86l0,0l-6.423-3.285l0,0
		c-0.041-0.021-0.08-0.048-0.117-0.081c-0.03-0.042-0.06-0.071-0.087-0.085c-0.245-0.138-0.487-0.404-0.726-0.796
		c-0.22-0.396-0.295-0.712-0.229-0.948c0.002-0.04,0.05-0.15,0.144-0.333c0.169-0.333,0.485-0.718,0.954-1.155
		c0.516-0.466,0.899-0.689,1.151-0.667l0,0l0.061,0.091l0,0c-0.062,0.118-0.202,0.329-0.428,0.634
		c-0.205,0.301-0.315,0.467-0.333,0.499c-0.107,0.215-0.157,0.399-0.147,0.553c0.009,0.153,0.139,0.382,0.388,0.685
		c0.263,0.31,0.484,0.512,0.665,0.604l0,0l5.526,2.827l0,0c0.127-0.043,0.201-0.086,0.223-0.129c0.082-0.161,0.036-0.658-0.137-1.49
		l0,0l1.442-0.722l0,0c0.133,0.257,0.218,0.591,0.253,1.002C385.354,314.231,385.318,314.544,385.203,314.769L385.203,314.769
		L385.203,314.769L385.203,314.769z"/>
	<path fill="#004685" d="M395.959,317.432c-0.162-0.402-0.243-0.641-0.243-0.718c0.056-0.248,0.118-0.419,0.192-0.514l0,0
		l-2.137,0.457l0,0c0.067,0.421-0.01,0.773-0.23,1.059c-0.421,0.541-0.89,0.876-1.406,1.006c0.03-0.649-0.07-1.486-0.305-2.509
		c-0.232-1.024-0.519-1.867-0.854-2.528c-0.105,0.161-0.199,0.256-0.28,0.285l0,0l-1.106-0.868l0,0
		c-0.426,0.292-0.669,0.477-0.728,0.553c-0.236,0.304-0.299,0.562-0.186,0.772c0.733,1.371,1.114,2.09,1.143,2.157l0,0l0.486-0.168
		l0,0c0.157,0.307,0.308,0.752,0.446,1.335s0.189,0.99,0.15,1.219c-1.366-0.078-2.196-0.232-2.491-0.463
		c-0.197-0.154-0.311-0.327-0.34-0.518c-0.021-0.201-0.037-0.358-0.047-0.473c-0.335,0.15-0.64,0.401-0.912,0.752
		c-0.312,0.399-0.403,0.708-0.278,0.929l0,0l3.929,3.081l0,0c0.332-0.274,0.613-0.559,0.842-0.853
		c0.318-0.408,0.484-0.889,0.499-1.443c0.004-0.181,0.013-0.281,0.026-0.3c0.016-0.019,0.193-0.07,0.535-0.154
		c0.343-0.083,0.578-0.158,0.709-0.224c0.371-0.198,0.756-0.462,1.152-0.793c0.059,0.153,0.138,0.269,0.235,0.346
		c0.062,0.048,0.103,0.072,0.121,0.073c1.007-0.174,1.535-0.294,1.587-0.361C396.523,318.501,396.353,318.123,395.959,317.432
		L395.959,317.432L395.959,317.432L395.959,317.432z M390.863,320.545c-0.437-0.28-0.865-0.618-1.291-1.013
		c0.33,0.06,0.785,0.073,1.366,0.039C390.928,319.916,390.903,320.24,390.863,320.545L390.863,320.545L390.863,320.545
		L390.863,320.545z"/>
	<path fill="#004685" d="M402.964,327.54c-1.254,0.245-1.891,0.373-1.911,0.386c-0.062,0.037-0.149,0.428-0.264,1.173
		c-0.051,0.36-0.081,0.625-0.092,0.795c0.028,0.001,0.085,0.013,0.169,0.036c0.091,0.036,0.15,0.055,0.18,0.055l0,0l-0.101,3.131
		l-2.438-4.072l0.131-0.115l-0.353-0.408l0,0c0.599-0.667,0.996-1.439,1.19-2.315c0.069-0.269,0.032-0.578-0.112-0.929
		c-0.013-0.032-0.054-0.089-0.124-0.171c-0.164-0.189-0.354-0.315-0.566-0.378c-0.428-0.146-0.912-0.19-1.451-0.134
		c-0.283,0.04-0.665,0.123-1.144,0.25c-0.525,0.126-0.875,0.265-1.047,0.415c-0.056,0.048-0.101,0.097-0.134,0.148
		c-0.106,0.134-0.133,0.354-0.075,0.657c0.056,0.304,0.142,0.54,0.257,0.709c0.306,0.5,0.701,1.058,1.187,1.673
		c-1.439-0.176-2.626-0.635-3.557-1.379c-0.25-0.197-0.446-0.379-0.59-0.544c-0.021-0.023-0.175-0.293-0.463-0.81
		c-0.287-0.496-0.44-0.756-0.461-0.78c-0.104-0.118-0.174-0.181-0.211-0.189l0,0l-0.097,0.083l0,0
		c0.005,0.391,0.17,0.931,0.497,1.62c0.354,0.793,0.635,1.376,0.849,1.75c0.084,0.134,0.178,0.26,0.279,0.378
		c0.164,0.189,0.32,0.333,0.469,0.432c0.386,0.224,0.737,0.374,1.058,0.448c0.483,0.137,1.021,0.178,1.606,0.122
		c0.295-0.028,0.767-0.118,1.414-0.268l0,0l0.191,0.222l-0.098,0.059l3.062,5.115l1.729-0.412l0,0
		c0.093-0.055,0.161-0.161,0.209-0.317c0.183-0.677,0.302-1.507,0.355-2.491c0.033-0.788,0.071-1.578,0.114-2.372
		c1.52,1.533,2.508,2.517,2.965,2.954c0.493-0.042,0.988-0.139,1.484-0.292l0,0L402.964,327.54L402.964,327.54L402.964,327.54z
		 M397.759,326.616c-0.031,0.11-0.103,0.287-0.212,0.527c-0.105-0.031-0.17-0.049-0.188-0.053c-0.079-0.036-0.199-0.147-0.363-0.337
		c-0.133-0.153-0.205-0.246-0.217-0.278c-0.211-0.335-0.299-0.611-0.266-0.828c0.021-0.162,0.062-0.27,0.124-0.326
		c0.056-0.047,0.192-0.053,0.413-0.019c0.29,0.059,0.491,0.153,0.604,0.283c0.092,0.106,0.139,0.253,0.141,0.438
		C397.815,326.213,397.804,326.411,397.759,326.616L397.759,326.616L397.759,326.616L397.759,326.616z"/>
	<path fill="#004685" d="M410.534,335.088c-0.136-0.001-0.344-0.026-0.625-0.076c-0.306-0.6-0.817-1.12-1.539-1.56l0,0l-0.085-0.167
		l0.097-0.049l0,0c0.074-0.038,0.333,0.085,0.773,0.369c-0.05-0.203-0.115-0.53-0.195-0.981c0.1-0.069,0.257-0.105,0.47-0.109
		c0.511-0.032,0.952,0.19,1.328,0.666c0.032,0.037,0.076,0.11,0.133,0.222c0.178,0.349,0.176,0.57-0.007,0.663
		c0.011-0.005-0.167-0.038-0.534-0.096c0.043-0.075,0.057-0.222,0.039-0.441c-0.004-0.033-0.022-0.085-0.059-0.155
		c-0.063-0.125-0.174-0.263-0.33-0.411c-0.146-0.154-0.256-0.212-0.33-0.174c-0.149,0.077-0.053,0.493,0.29,1.249
		c-0.015-0.028,0.03,0.046,0.133,0.222C410.196,334.435,410.343,334.711,410.534,335.088L410.534,335.088L410.534,335.088
		L410.534,335.088z"/>
	<path fill="#004685" d="M408.11,343.885c-0.273-0.394-0.669-0.728-1.186-1.003c-0.457-0.243-0.88-0.391-1.269-0.441
		c-0.276-0.051-0.495-0.094-0.655-0.13c0,0-0.524-1.566-0.826-2.54l0,0l-0.162-0.364l0,0c-0.03-0.072-0.057-0.189-0.075-0.352
		c-0.01-0.168-0.021-0.282-0.035-0.344c-0.028-0.125-0.02-0.206,0.028-0.245c0.753-0.525,2.142-1.394,4.165-2.607
		c0.489-0.288,0.856-0.511,1.102-0.672c-0.484-0.264-0.91-0.468-1.276-0.613c-0.213-0.094-0.341-0.131-0.384-0.111l0,0l-5.752,3.471
		l1.079,2.425l0,0c0.277,0.885,0.688,2.125,0.688,2.125c0.146,0.121,0.395,0.22,0.74,0.3c0.293,0.062,0.508,0.204,0.646,0.425l0,0
		l0.027,3.707l0,0c0.898,0.393,1.397,0.608,1.495,0.645c0.18,0.062,0.316,0.08,0.409,0.054c0.148-0.043,0.281-0.105,0.396-0.188
		c0.831-0.63,1.453-1.119,1.866-1.466c0.03-0.024,0.059-0.082,0.083-0.17C409.142,345.438,408.772,344.803,408.11,343.885
		L408.11,343.885L408.11,343.885L408.11,343.885z M407.196,345.468c-0.05,0.047-0.241,0.184-0.576,0.41l0,0l0.043-2.212l0,0
		c0.021-0.006,0.08,0.042,0.173,0.146c0.104,0.1,0.224,0.261,0.362,0.482c0.112,0.179,0.188,0.337,0.229,0.472
		C407.5,345.022,407.423,345.256,407.196,345.468L407.196,345.468L407.196,345.468L407.196,345.468z"/>
	<path fill="#004685" d="M384.23,310.58c-0.432,0.158-0.86,0.263-1.289,0.314l0,0l-0.943-1.091l0,0
		c-0.258-0.01-0.535,0.037-0.834,0.142c-0.352-0.342-0.698-0.729-1.039-1.161c0.76-0.22,1.195-0.302,1.306-0.245
		c0.042,0.021,0.179,0.186,0.407,0.492c0.229,0.306,0.365,0.471,0.407,0.492c0.027,0.014,0.161,0.008,0.402-0.018
		c0.312-0.029,0.512-0.042,0.598-0.039l0,0L384.23,310.58L384.23,310.58L384.23,310.58z"/>
	<path fill="#004685" d="M335.661,309.222c-0.011,0.046-0.116,0.289-0.313,0.728c-0.124,0.307-0.207,0.471-0.249,0.493
		c-0.11,0.057-0.599,0.097-1.463,0.12c-0.217,0.503-0.36,0.772-0.43,0.808c-0.125,0.064-0.592,0.093-1.4,0.087
		c0.1-0.253,0.253-0.657,0.462-1.21c0.759,0.045,1.207,0.032,1.347-0.04c-0.028,0.015,0.135-0.285,0.489-0.899l0,0L335.661,309.222
		L335.661,309.222L335.661,309.222z"/>
	<path fill="#004685" d="M354.645,310.4l-1.566,0.277l0,0c-0.139,0.025-0.314-0.03-0.528-0.163c-0.02,0.517-0.275,1.18-0.767,1.989
		c-0.612,1.026-1.294,1.605-2.047,1.738c-0.415,0.073-1.111,0.032-2.089-0.125c-0.96-0.148-1.557-0.293-1.787-0.436l0,0
		l-0.022-0.125l0,0c0.024-0.041,0.075-0.068,0.152-0.082c0.031-0.005,0.289,0.022,0.774,0.083c0.471,0.064,0.829,0.074,1.074,0.03
		c0.615-0.108,1.386-0.587,2.314-1.437c0.928-0.849,1.36-1.452,1.298-1.808c-0.044-0.249-0.508-0.638-1.394-1.167l0,0l0.771-1.439
		l0,0c1.119,0.781,2.14,1.224,3.061,1.33l0,0l4.426-0.324l0,0c0.062,0.001,0.219-0.021,0.469-0.064
		c0.595-0.122,1.104-0.276,1.528-0.461c-0.107-0.038-0.69-0.205-1.746-0.5c-0.497-0.142-0.831-0.214-1.004-0.217
		c-0.326-0.006-0.632,0.043-0.915,0.146l0,0l-0.636,0.26l0,0c0.194-0.395,0.395-0.692,0.602-0.894
		c0.555-0.544,1.06-0.837,1.513-0.877l0,0l0.468,0.008l0,0c0.296,0.005,0.53,0.022,0.701,0.049c0.125,0.026,0.288,0.071,0.489,0.135
		c1.843,0.803,3.729,1.264,5.664,1.382c-0.098,0.167-0.261,0.55-0.488,1.148c0,0,0.305,0.196,1.193,0.211
		c2.921,0.505,4.147,0.899,4.146,0.911c-0.114-0.522-0.398-1.153-0.854-1.895l0,0l1.153-1.025l0,0
		c0.683,0.904,0.96,1.706,0.837,2.406c-0.048,0.273-0.278,0.959-0.693,2.061l0,0l-4.608-1.012l-2.368-0.232l-0.168-1.124
		l-2.503-0.044l0,0c-0.094-0.001-0.251,0.038-0.471,0.119c-0.455,0.185-1.131,0.456-2.027,0.814
		c-0.283,0.091-0.494,0.136-0.635,0.133l0,0l-3.322,0.171L354.645,310.4L354.645,310.4L354.645,310.4z"/>
	<path fill="#004685" d="M369.306,313.732c-0.02,0.107-0.205,0.221-0.56,0.342c-0.354,0.121-0.562,0.176-0.623,0.165
		c-0.138-0.024-0.543-0.335-1.215-0.931c0.045-0.078,0.236-0.221,0.575-0.43c0.351-0.195,0.58-0.282,0.688-0.264
		c0.047,0.008,0.245,0.184,0.597,0.528C369.135,313.489,369.312,313.685,369.306,313.732L369.306,313.732L369.306,313.732
		L369.306,313.732z"/>
	<path fill="#004685" d="M345.678,314.554c-0.006,0.079-0.061,0.231-0.165,0.458c-0.239,0.503-0.403,0.771-0.493,0.801
		c-0.059,0.021-0.574-0.018-1.549-0.114c-0.058,0.122-0.227,0.397-0.509,0.826c-0.621-0.028-1.157-0.078-1.611-0.15
		c0.054-0.133,0.274-0.547,0.663-1.242c0.012-0.017,0.106-0.005,0.285,0.036c0.604,0.123,0.993,0.154,1.17,0.092
		c0.029-0.01,0.129-0.153,0.298-0.428c0.171-0.275,0.276-0.42,0.321-0.436C344.104,314.391,344.634,314.443,345.678,314.554
		L345.678,314.554L345.678,314.554L345.678,314.554z"/>
	<path fill="#004685" d="M345.08,310.212c-0.059-0.171-0.188-0.381-0.39-0.63c-0.356-0.463-0.869-0.802-1.537-1.017l0,0
		l-0.503,1.493l0,0c0.393,0.183,0.778,0.419,1.158,0.708c0.298,0.242,0.452,0.379,0.464,0.413c0.02,0.057,0.021,0.088,0.007,0.093
		c0,0-2.747,0.953-4.527,1.681c-0.248,0.102-0.556,0.289-0.665,0.175c-1.248-1.458-2.161-2.566-2.739-3.326
		c-0.193,1.1-0.3,1.634-0.315,1.602c0.017,0.032,0.069,0.086,0.161,0.161c0.1,0.058,0.167,0.104,0.201,0.14
		c-0.294,0.421-0.62,0.845-0.981,1.273c-0.523,0.66-0.776,1.127-0.759,1.402c0.084,1.201,0.109,1.77,0.076,1.705l0,0l0.091,0.177
		l2.719-0.904l0,0c0.226-0.143,0.352-0.41,0.38-0.803c0.037-0.411,0.125-0.686,0.264-0.825c0.363,0.369,0.626,0.646,0.791,0.833
		c0.097,0.086,0.263,0.136,0.497,0.151c0.098,0.018,0.181,0.009,0.249-0.026c0,0,0.714-0.391,1.183-0.619
		c1.691-0.827,4.529-1.668,4.529-1.668C345.245,311.079,345.127,310.349,345.08,310.212L345.08,310.212L345.08,310.212
		L345.08,310.212z M336.989,313.856c-0.153,0.078-0.618,0.215-1.396,0.409c0.229-0.239,0.462-0.486,0.7-0.743
		c0.288-0.364,0.424-0.717,0.407-1.06c-0.013-0.129,0.053-0.258,0.198-0.386c0.517,0.534,0.816,0.886,0.904,1.058l0,0l0.123,0.242
		L336.989,313.856L336.989,313.856L336.989,313.856z"/>
	<path fill="#004685" d="M319.925,322.44c0.042,0.099,0.043,0.318,0.003,0.657c-0.039,0.339-0.104,0.562-0.196,0.669
		c-0.052,0.059-0.258,0.149-0.617,0.271c-0.359,0.103-0.553,0.142-0.579,0.118c-0.045-0.04-0.057-0.256-0.033-0.651
		c0.034-0.407,0.077-0.639,0.127-0.698C318.703,322.722,319.134,322.601,319.925,322.44L319.925,322.44L319.925,322.44
		L319.925,322.44z"/>
	<path fill="#004685" d="M326.826,323.67l-0.751,0.868l0,0c-0.235-0.059-0.592-0.143-1.071-0.25
		c-0.085,0.153-0.083,0.353,0.007,0.598c0.104,0.319,0.152,0.559,0.144,0.716l0,0l-2.794,3.228l0,0
		c-0.082,0.094-0.229,0.1-0.444,0.017c-0.272-0.237-0.587-0.617-0.947-1.138c-0.218-0.335-0.34-0.681-0.367-1.036
		c0.021-0.004,0.062-0.007,0.129-0.011c0.342,0.359,0.587,0.563,0.735,0.61c0.15,0.047,0.271,0.018,0.363-0.088l0,0l2.609-3.014l0,0
		c-0.023-0.083-0.054-0.141-0.09-0.172c-0.145-0.126-0.539-0.314-1.182-0.563c-0.337-0.107-0.668-0.221-0.995-0.339l0,0
		l-0.458-1.676l0,0c0.8,0.325,1.939,0.8,3.417,1.425c0.174,0.077,0.327,0.078,0.46,0.001l0,0l0.212-0.2l0.119-0.138l2.275-1.952l0,0
		c-0.083-0.167-0.16-0.292-0.23-0.374c-0.142-0.164-0.458-0.422-0.95-0.775c-0.437-0.337-1.119-0.803-2.048-1.398l0,0l-0.784,0.133
		l0,0c-0.119-0.806-0.167-1.53-0.145-2.172c0.166,0.191,0.332,0.301,0.501,0.329c0.094,0.014,0.46-0.066,1.096-0.238
		c0.46-0.114,0.917-0.242,1.374-0.384c0.032,0.132,0.028,0.343-0.011,0.632c-0.012,0.059-0.044,0.486-0.098,1.283
		c0,0.048,0.023,0.099,0.07,0.154l0,0l1.931,1.621l0.845,1.656l0,0c-0.023,0.021-0.057,0.065-0.101,0.135
		c-0.03,0.06-0.064,0.104-0.1,0.136l0,0L326.826,323.67L326.826,323.67L326.826,323.67z"/>
	<path fill="#004685" d="M311.379,336.596c0.071,0.08,0.144,0.287,0.216,0.62c0.073,0.334,0.083,0.566,0.03,0.697
		c-0.029,0.073-0.194,0.225-0.495,0.458c-0.306,0.214-0.476,0.314-0.509,0.301c-0.056-0.023-0.136-0.225-0.242-0.605
		c-0.1-0.396-0.135-0.629-0.105-0.702C310.314,337.262,310.683,337.006,311.379,336.596L311.379,336.596L311.379,336.596
		L311.379,336.596z"/>
	<path fill="#004685" d="M318.281,335.494c-0.215,0.421-0.538,1.087-0.538,1.087c-0.241,0.021-0.605,0.058-1.094,0.113
		c-0.031,0.173,0.035,0.361,0.199,0.563c0.203,0.268,0.326,0.479,0.368,0.63l0,0l-1.595,3.965l0,0
		c-0.047,0.116-0.185,0.17-0.415,0.162c-0.333-0.136-0.755-0.391-1.264-0.767c-0.315-0.246-0.543-0.533-0.684-0.86
		c0.018-0.01,0.058-0.027,0.119-0.053c0.438,0.229,0.736,0.341,0.895,0.337c0.156-0.004,0.261-0.071,0.313-0.202l0,0l1.49-3.704l0,0
		c-0.049-0.07-0.096-0.115-0.142-0.133c-0.178-0.072-0.61-0.121-1.3-0.147c-0.353,0.009-0.703,0.01-1.05,0.005l0,0l-0.976-1.435l0,0
		c0.861,0.045,2.093,0.122,3.692,0.23c0.264,0.022,0.523-0.3,0.771-0.586c0.808-0.938,2.111-3.665,2.111-3.665
		c0.008-0.013-0.015-0.035-0.065-0.065c-0.031-0.018-0.238-0.02-0.62-0.007c-0.476,0.032-0.921,0.108-1.337,0.229l0,0l-0.596-1.458
		l0,0c0.645-0.277,1.252-0.359,1.823-0.245c0.314,0.056,0.551,0.129,0.706,0.219c0.125,0.072,0.691,0.545,1.699,1.419
		C320.794,331.128,319.174,333.744,318.281,335.494L318.281,335.494L318.281,335.494L318.281,335.494z"/>
	<path fill="#004685" d="M322.384,332.592c0.047,0.063,0.105,0.214,0.175,0.454c0.148,0.538,0.199,0.848,0.152,0.929
		c-0.031,0.054-0.446,0.365-1.244,0.934c0.037,0.129,0.088,0.449,0.156,0.958c-0.486,0.388-0.924,0.704-1.314,0.947
		c-0.046-0.135-0.15-0.593-0.312-1.374c-0.002-0.02,0.077-0.073,0.238-0.161c0.536-0.304,0.85-0.538,0.943-0.701
		c0.017-0.027-0.003-0.2-0.055-0.52c-0.052-0.319-0.066-0.499-0.043-0.54C321.09,333.505,321.524,333.196,322.384,332.592
		L322.384,332.592L322.384,332.592L322.384,332.592z"/>
	<path fill="#004685" d="M308.65,342.644c0.393,0.542,0.598,0.958,0.616,1.252l0,0l-0.882,1.266l0,0
		c0.264,0.463,0.382,0.748,0.357,0.854c-0.031,0.137-0.173,0.378-0.424,0.721c-0.261,0.326-0.418,0.506-0.477,0.541
		c-0.238-0.409-0.434-0.816-0.587-1.221c0.526-0.682,0.798-1.061,0.815-1.137c0.007-0.031-0.05-0.188-0.168-0.473
		c-0.116-0.3-0.168-0.473-0.158-0.519C307.77,343.822,308.071,343.394,308.65,342.644L308.65,342.644L308.65,342.644L308.65,342.644
		z"/>
	<path fill="#004685" d="M314.204,344.605c-0.023-0.166-0.112-0.315-0.267-0.447c-0.052-0.044-0.156-0.125-0.314-0.242
		c-0.654-0.425-1.016-0.645-1.086-0.662c-0.409-0.095-0.813,0.029-1.212,0.37l0,0l-1.433,1.404l0,0
		c0.409,0.738,0.883,1.442,1.417,2.113c0.713,0.92,1.303,1.435,1.771,1.543c0.503,0.117,0.903-0.474,1.202-1.771
		C314.416,346.334,314.389,345.565,314.204,344.605L314.204,344.605L314.204,344.605L314.204,344.605z M312.963,346.223
		c-0.144,0.626-0.386,0.899-0.725,0.82c-0.117-0.027-0.296-0.213-0.537-0.558c-0.146-0.226-0.294-0.462-0.447-0.706
		c0.661-0.731,1.277-1.191,1.852-1.38l0,0l0.123,0.028l0,0C313.153,345.182,313.065,345.781,312.963,346.223L312.963,346.223
		L312.963,346.223L312.963,346.223z"/>
	<path fill="#FFFFFF" d="M384.708,314.106c-0.316,0.623-1.008,1.243-2.073,1.86l0,0l-6.423-3.286l0,0
		c-0.042-0.021-0.081-0.048-0.117-0.08c-0.03-0.043-0.06-0.071-0.088-0.085c-0.245-0.139-0.485-0.404-0.725-0.797
		c-0.221-0.396-0.296-0.712-0.229-0.948c0.003-0.039,0.051-0.15,0.144-0.333c0.169-0.333,0.486-0.718,0.954-1.155
		c0.517-0.466,0.9-0.688,1.152-0.667l0,0l0.06,0.091l0,0c-0.061,0.118-0.202,0.33-0.428,0.634c-0.204,0.301-0.314,0.467-0.332,0.5
		c-0.107,0.214-0.157,0.398-0.148,0.552c0.01,0.154,0.14,0.382,0.388,0.685c0.264,0.31,0.485,0.512,0.666,0.604l0,0l5.525,2.827l0,0
		c0.127-0.043,0.201-0.086,0.224-0.129c0.081-0.161,0.036-0.658-0.138-1.49l0,0l1.442-0.722l0,0
		c0.134,0.257,0.219,0.591,0.255,1.001C384.858,313.568,384.822,313.88,384.708,314.106L384.708,314.106L384.708,314.106
		L384.708,314.106z"/>
	<path fill="#FFFFFF" d="M395.463,316.769c-0.161-0.402-0.242-0.642-0.242-0.718c0.055-0.248,0.118-0.419,0.192-0.514l0,0
		l-2.138,0.457l0,0c0.067,0.421-0.009,0.773-0.229,1.059c-0.421,0.541-0.89,0.876-1.407,1.006c0.03-0.649-0.07-1.486-0.304-2.509
		c-0.233-1.023-0.519-1.866-0.854-2.527c-0.106,0.161-0.199,0.256-0.281,0.284l0,0l-1.106-0.868l0,0
		c-0.425,0.293-0.668,0.477-0.728,0.553c-0.236,0.304-0.298,0.561-0.186,0.772c0.734,1.371,1.115,2.091,1.143,2.158l0,0l0.487-0.168
		l0,0c0.157,0.307,0.307,0.751,0.445,1.335c0.141,0.583,0.189,0.99,0.15,1.219c-1.365-0.077-2.195-0.232-2.491-0.463
		c-0.196-0.154-0.31-0.327-0.339-0.518c-0.022-0.201-0.038-0.358-0.048-0.473c-0.334,0.15-0.64,0.401-0.912,0.752
		c-0.312,0.399-0.402,0.708-0.277,0.929l0,0l3.928,3.081l0,0c0.333-0.274,0.613-0.559,0.844-0.853
		c0.316-0.408,0.482-0.889,0.499-1.443c0.003-0.181,0.012-0.282,0.025-0.3c0.016-0.019,0.193-0.07,0.535-0.154
		s0.578-0.158,0.709-0.224c0.371-0.198,0.756-0.462,1.152-0.794c0.059,0.153,0.137,0.269,0.234,0.346
		c0.062,0.048,0.103,0.072,0.122,0.073c1.007-0.174,1.535-0.294,1.587-0.361C396.027,317.839,395.856,317.459,395.463,316.769
		L395.463,316.769L395.463,316.769L395.463,316.769z M390.368,319.881c-0.437-0.28-0.866-0.618-1.291-1.013
		c0.33,0.06,0.784,0.073,1.365,0.04C390.433,319.251,390.407,319.576,390.368,319.881L390.368,319.881L390.368,319.881
		L390.368,319.881z"/>
	<path fill="#FFFFFF" d="M402.469,326.876c-1.254,0.245-1.891,0.374-1.912,0.386c-0.062,0.037-0.148,0.428-0.264,1.173
		c-0.051,0.36-0.081,0.625-0.091,0.795c0.028,0.001,0.085,0.013,0.168,0.036c0.092,0.036,0.151,0.054,0.181,0.056l0,0l-0.101,3.13
		l-2.438-4.071l0.132-0.114l-0.354-0.408l0,0c0.6-0.668,0.996-1.44,1.191-2.316c0.068-0.269,0.031-0.578-0.112-0.929
		c-0.012-0.031-0.054-0.088-0.125-0.171c-0.164-0.189-0.354-0.315-0.565-0.378c-0.428-0.146-0.912-0.19-1.452-0.134
		c-0.282,0.04-0.664,0.124-1.143,0.25c-0.526,0.127-0.875,0.265-1.048,0.416c-0.054,0.047-0.1,0.097-0.134,0.148
		c-0.106,0.135-0.133,0.354-0.075,0.657c0.057,0.303,0.142,0.54,0.257,0.71c0.307,0.5,0.702,1.058,1.187,1.673
		c-1.439-0.175-2.625-0.636-3.556-1.379c-0.25-0.197-0.446-0.378-0.59-0.544c-0.021-0.023-0.175-0.293-0.463-0.81
		c-0.287-0.497-0.44-0.757-0.461-0.78c-0.104-0.118-0.173-0.181-0.212-0.189l0,0l-0.096,0.083l0,0
		c0.005,0.391,0.171,0.931,0.497,1.621c0.353,0.792,0.636,1.375,0.849,1.75c0.084,0.134,0.178,0.26,0.279,0.378
		c0.163,0.189,0.319,0.333,0.469,0.431c0.386,0.225,0.736,0.374,1.057,0.448c0.484,0.137,1.021,0.178,1.608,0.122
		c0.294-0.028,0.765-0.117,1.412-0.268l0,0l0.191,0.222l-0.098,0.059l3.062,5.115l1.729-0.412l0,0
		c0.093-0.056,0.162-0.162,0.209-0.318c0.184-0.677,0.302-1.507,0.356-2.491c0.033-0.787,0.071-1.578,0.114-2.371
		c1.521,1.532,2.507,2.517,2.965,2.954c0.493-0.042,0.987-0.139,1.484-0.292l0,0L402.469,326.876L402.469,326.876L402.469,326.876z
		 M397.264,325.953c-0.031,0.111-0.103,0.287-0.212,0.527c-0.106-0.032-0.17-0.049-0.188-0.053
		c-0.078-0.036-0.199-0.148-0.363-0.337c-0.133-0.154-0.205-0.247-0.217-0.278c-0.21-0.335-0.298-0.611-0.265-0.828
		c0.02-0.162,0.062-0.271,0.124-0.326c0.055-0.047,0.191-0.054,0.413-0.019c0.29,0.059,0.49,0.153,0.604,0.283
		c0.093,0.106,0.14,0.252,0.142,0.438C397.32,325.55,397.308,325.748,397.264,325.953L397.264,325.953L397.264,325.953
		L397.264,325.953z"/>
	<path fill="#FFFFFF" d="M410.038,334.425c-0.135-0.001-0.343-0.026-0.624-0.076c-0.305-0.6-0.817-1.12-1.539-1.56l0,0l-0.085-0.167
		l0.096-0.049l0,0c0.075-0.039,0.333,0.084,0.773,0.369c-0.049-0.203-0.114-0.53-0.194-0.981c0.101-0.069,0.256-0.105,0.47-0.109
		c0.51-0.032,0.951,0.19,1.327,0.666c0.032,0.037,0.077,0.11,0.135,0.222c0.177,0.349,0.174,0.57-0.009,0.663
		c0.012-0.005-0.167-0.037-0.532-0.096c0.043-0.075,0.056-0.222,0.039-0.441c-0.005-0.033-0.023-0.085-0.061-0.155
		c-0.062-0.125-0.173-0.263-0.329-0.411c-0.146-0.154-0.257-0.212-0.331-0.174c-0.148,0.076-0.053,0.493,0.291,1.249
		c-0.015-0.028,0.029,0.046,0.133,0.222C409.7,333.771,409.847,334.048,410.038,334.425L410.038,334.425L410.038,334.425
		L410.038,334.425z"/>
	<path fill="#FFFFFF" d="M407.615,343.222c-0.274-0.394-0.67-0.728-1.187-1.003c-0.456-0.244-0.879-0.391-1.269-0.441
		c-0.276-0.051-0.494-0.094-0.654-0.129c0,0-0.523-1.567-0.827-2.54l0,0l-0.161-0.365l0,0c-0.031-0.071-0.058-0.189-0.076-0.352
		c-0.01-0.167-0.021-0.282-0.034-0.344c-0.029-0.125-0.021-0.206,0.028-0.245c0.752-0.525,2.142-1.395,4.164-2.607
		c0.49-0.287,0.857-0.512,1.103-0.672c-0.485-0.264-0.911-0.468-1.277-0.613c-0.212-0.094-0.34-0.13-0.384-0.111l0,0l-5.752,3.471
		l1.079,2.425l0,0c0.277,0.885,0.688,2.125,0.688,2.125c0.147,0.121,0.395,0.221,0.741,0.3c0.292,0.062,0.508,0.204,0.646,0.425l0,0
		l0.028,3.707l0,0c0.898,0.393,1.396,0.608,1.495,0.645c0.18,0.062,0.316,0.08,0.408,0.054c0.15-0.043,0.282-0.105,0.396-0.187
		c0.831-0.631,1.453-1.119,1.865-1.466c0.03-0.025,0.06-0.082,0.083-0.17C408.646,344.774,408.277,344.139,407.615,343.222
		L407.615,343.222L407.615,343.222L407.615,343.222z M406.7,344.805c-0.049,0.047-0.241,0.184-0.575,0.411l0,0l0.042-2.212l0,0
		c0.023-0.006,0.081,0.042,0.173,0.146c0.104,0.101,0.226,0.261,0.362,0.482c0.113,0.179,0.188,0.336,0.229,0.472
		C407.004,344.359,406.927,344.593,406.7,344.805L406.7,344.805L406.7,344.805L406.7,344.805z"/>
	<path fill="#FFFFFF" d="M383.734,309.917c-0.432,0.159-0.86,0.263-1.289,0.314l0,0l-0.943-1.091l0,0
		c-0.257-0.01-0.535,0.037-0.833,0.141c-0.352-0.342-0.698-0.729-1.04-1.161c0.76-0.22,1.195-0.301,1.307-0.245
		c0.042,0.021,0.178,0.186,0.406,0.492c0.23,0.307,0.366,0.471,0.407,0.492c0.027,0.014,0.162,0.009,0.402-0.017
		c0.312-0.029,0.512-0.042,0.599-0.039l0,0L383.734,309.917L383.734,309.917L383.734,309.917z"/>
	<path fill="#FFFFFF" d="M335.166,308.558c-0.012,0.047-0.116,0.289-0.313,0.729c-0.125,0.307-0.208,0.471-0.249,0.492
		c-0.11,0.057-0.599,0.097-1.463,0.119c-0.217,0.504-0.36,0.773-0.43,0.809c-0.125,0.064-0.592,0.093-1.401,0.088
		c0.1-0.253,0.253-0.657,0.464-1.21c0.758,0.044,1.207,0.032,1.346-0.04c-0.028,0.014,0.135-0.286,0.489-0.899l0,0L335.166,308.558
		L335.166,308.558L335.166,308.558z"/>
	<path fill="#FFFFFF" d="M354.149,309.737l-1.567,0.277l0,0c-0.138,0.024-0.314-0.03-0.528-0.163
		c-0.02,0.517-0.274,1.18-0.768,1.989c-0.612,1.026-1.294,1.605-2.047,1.739c-0.415,0.073-1.111,0.032-2.089-0.126
		c-0.96-0.148-1.558-0.293-1.787-0.436l0,0l-0.022-0.125l0,0c0.024-0.041,0.075-0.068,0.152-0.082
		c0.031-0.005,0.289,0.022,0.774,0.083c0.471,0.063,0.829,0.074,1.074,0.03c0.615-0.109,1.386-0.588,2.314-1.438
		c0.928-0.849,1.359-1.452,1.298-1.808c-0.044-0.249-0.508-0.638-1.394-1.166l0,0l0.77-1.439l0,0c1.119,0.78,2.14,1.224,3.061,1.33
		l0,0l4.425-0.324l0,0c0.062,0.001,0.219-0.021,0.47-0.064c0.595-0.122,1.104-0.276,1.529-0.461c-0.108-0.038-0.691-0.205-1.747-0.5
		c-0.497-0.142-0.831-0.214-1.002-0.216c-0.328-0.006-0.634,0.043-0.916,0.146l0,0l-0.637,0.26l0,0
		c0.194-0.394,0.395-0.692,0.601-0.893c0.556-0.545,1.061-0.837,1.514-0.877l0,0l0.468,0.008l0,0
		c0.296,0.005,0.53,0.021,0.702,0.049c0.124,0.026,0.287,0.071,0.489,0.135c1.843,0.804,3.729,1.264,5.663,1.382
		c-0.098,0.167-0.259,0.55-0.488,1.149c0,0,0.305,0.195,1.194,0.211c2.921,0.505,4.147,0.899,4.146,0.912
		c-0.113-0.522-0.398-1.154-0.855-1.895l0,0l1.154-1.025l0,0c0.682,0.904,0.96,1.706,0.838,2.405
		c-0.049,0.273-0.279,0.96-0.695,2.061l0,0l-4.608-1.012l-2.368-0.231l-0.167-1.124l-2.504-0.044l0,0
		c-0.094-0.001-0.25,0.038-0.47,0.119c-0.456,0.185-1.132,0.457-2.027,0.814c-0.282,0.091-0.493,0.136-0.634,0.133l0,0l-3.323,0.171
		L354.149,309.737L354.149,309.737L354.149,309.737z"/>
	<path fill="#FFFFFF" d="M368.81,313.069c-0.019,0.107-0.204,0.221-0.56,0.342c-0.354,0.121-0.561,0.176-0.622,0.165
		c-0.139-0.024-0.543-0.334-1.215-0.931c0.045-0.078,0.236-0.221,0.574-0.43c0.352-0.195,0.58-0.283,0.688-0.264
		c0.046,0.008,0.244,0.184,0.597,0.527C368.639,312.825,368.818,313.022,368.81,313.069L368.81,313.069L368.81,313.069
		L368.81,313.069z"/>
	<path fill="#FFFFFF" d="M345.183,313.891c-0.006,0.079-0.061,0.231-0.165,0.458c-0.239,0.503-0.403,0.771-0.492,0.801
		c-0.06,0.02-0.575-0.018-1.55-0.114c-0.057,0.121-0.227,0.396-0.509,0.825c-0.62-0.028-1.157-0.078-1.61-0.15
		c0.053-0.133,0.273-0.547,0.662-1.242c0.012-0.017,0.106-0.004,0.285,0.036c0.604,0.123,0.993,0.154,1.17,0.092
		c0.03-0.01,0.129-0.153,0.3-0.428c0.169-0.275,0.275-0.42,0.32-0.436C343.608,313.727,344.138,313.78,345.183,313.891
		L345.183,313.891L345.183,313.891L345.183,313.891z"/>
	<path fill="#FFFFFF" d="M344.584,309.548c-0.059-0.171-0.188-0.381-0.389-0.63c-0.357-0.463-0.869-0.802-1.537-1.017l0,0
		l-0.503,1.492l0,0c0.393,0.183,0.778,0.419,1.159,0.708c0.297,0.241,0.451,0.379,0.463,0.413c0.02,0.057,0.021,0.088,0.007,0.093
		c0,0-2.747,0.953-4.527,1.681c-0.248,0.102-0.556,0.289-0.665,0.175c-1.248-1.458-2.161-2.566-2.739-3.325
		c-0.194,1.1-0.3,1.634-0.315,1.602c0.016,0.033,0.07,0.086,0.161,0.161c0.099,0.058,0.167,0.104,0.202,0.141
		c-0.294,0.42-0.621,0.845-0.982,1.273c-0.523,0.66-0.776,1.127-0.759,1.402c0.084,1.201,0.109,1.769,0.078,1.705l0,0l0.09,0.177
		l2.719-0.904l0,0c0.227-0.143,0.354-0.41,0.38-0.803c0.037-0.411,0.125-0.686,0.265-0.825c0.362,0.369,0.626,0.646,0.791,0.833
		c0.096,0.086,0.262,0.137,0.496,0.151c0.098,0.018,0.181,0.009,0.25-0.026c0,0,0.715-0.391,1.182-0.62
		c1.691-0.827,4.531-1.668,4.531-1.668C344.75,310.415,344.631,309.685,344.584,309.548L344.584,309.548L344.584,309.548
		L344.584,309.548z M336.493,313.193c-0.152,0.078-0.618,0.214-1.395,0.409c0.229-0.239,0.462-0.486,0.7-0.743
		c0.288-0.364,0.424-0.717,0.407-1.061c-0.013-0.128,0.054-0.257,0.198-0.385c0.516,0.534,0.816,0.887,0.904,1.059l0,0l0.123,0.242
		L336.493,313.193L336.493,313.193L336.493,313.193z"/>
	<path fill="#FFFFFF" d="M319.43,321.776c0.042,0.099,0.043,0.318,0.004,0.657c-0.04,0.339-0.104,0.562-0.197,0.668
		c-0.052,0.059-0.256,0.149-0.616,0.271c-0.359,0.103-0.552,0.142-0.579,0.118c-0.045-0.04-0.056-0.257-0.032-0.651
		c0.034-0.407,0.076-0.639,0.127-0.698C318.207,322.059,318.639,321.937,319.43,321.776L319.43,321.776L319.43,321.776
		L319.43,321.776z"/>
	<path fill="#FFFFFF" d="M326.331,323.007l-0.751,0.868l0,0c-0.234-0.059-0.592-0.143-1.071-0.25
		c-0.085,0.154-0.083,0.353,0.007,0.598c0.105,0.32,0.153,0.559,0.144,0.716l0,0l-2.794,3.227l0,0
		c-0.082,0.094-0.23,0.1-0.444,0.017c-0.271-0.237-0.587-0.616-0.947-1.138c-0.218-0.336-0.34-0.681-0.366-1.036
		c0.02-0.004,0.062-0.008,0.129-0.012c0.341,0.36,0.586,0.563,0.734,0.611c0.15,0.047,0.271,0.018,0.363-0.088l0,0l2.61-3.014l0,0
		c-0.024-0.083-0.055-0.141-0.091-0.172c-0.145-0.127-0.539-0.314-1.182-0.564c-0.336-0.107-0.668-0.22-0.995-0.339l0,0
		l-0.458-1.675l0,0c0.8,0.324,1.939,0.8,3.417,1.425c0.174,0.077,0.327,0.077,0.46,0.001l0,0l0.212-0.2l0.12-0.137l2.274-1.952l0,0
		c-0.083-0.167-0.16-0.292-0.23-0.374c-0.142-0.164-0.458-0.422-0.95-0.775c-0.437-0.337-1.119-0.803-2.047-1.398l0,0l-0.784,0.133
		l0,0c-0.118-0.806-0.167-1.53-0.145-2.172c0.165,0.191,0.333,0.3,0.501,0.329c0.094,0.013,0.459-0.066,1.096-0.238
		c0.459-0.114,0.917-0.242,1.373-0.384c0.031,0.132,0.028,0.343-0.011,0.632c-0.012,0.058-0.044,0.486-0.098,1.283
		c0,0.048,0.023,0.099,0.07,0.153l0,0l1.931,1.62l0.845,1.657l0,0c-0.023,0.021-0.057,0.065-0.1,0.135
		c-0.031,0.06-0.064,0.104-0.102,0.135l0,0L326.331,323.007L326.331,323.007L326.331,323.007z"/>
	<path fill="#FFFFFF" d="M310.883,335.933c0.071,0.08,0.144,0.287,0.216,0.62c0.073,0.334,0.083,0.566,0.03,0.696
		c-0.029,0.073-0.194,0.225-0.495,0.458c-0.306,0.214-0.476,0.314-0.509,0.301c-0.056-0.023-0.137-0.224-0.242-0.605
		c-0.1-0.396-0.135-0.629-0.105-0.702C309.819,336.599,310.188,336.343,310.883,335.933L310.883,335.933L310.883,335.933
		L310.883,335.933z"/>
	<path fill="#FFFFFF" d="M317.786,334.83c-0.215,0.421-0.538,1.087-0.538,1.087c-0.242,0.021-0.606,0.058-1.094,0.114
		c-0.031,0.173,0.036,0.36,0.201,0.562c0.202,0.268,0.324,0.479,0.366,0.631l0,0l-1.595,3.965l0,0
		c-0.047,0.116-0.185,0.169-0.415,0.161c-0.334-0.136-0.755-0.391-1.264-0.767c-0.315-0.246-0.543-0.532-0.684-0.859
		c0.018-0.01,0.058-0.028,0.119-0.053c0.438,0.229,0.736,0.341,0.895,0.336c0.156-0.004,0.262-0.071,0.313-0.202l0,0l1.49-3.703l0,0
		c-0.049-0.071-0.096-0.115-0.141-0.133c-0.179-0.072-0.611-0.121-1.301-0.147c-0.353,0.009-0.704,0.01-1.05,0.005l0,0l-0.976-1.435
		l0,0c0.861,0.045,2.093,0.122,3.692,0.231c0.264,0.021,0.523-0.301,0.771-0.586c0.808-0.938,2.112-3.665,2.112-3.665
		c0.008-0.013-0.016-0.035-0.066-0.065c-0.031-0.018-0.238-0.02-0.62-0.006c-0.476,0.032-0.921,0.108-1.337,0.229l0,0l-0.596-1.458
		l0,0c0.645-0.277,1.253-0.359,1.824-0.245c0.314,0.056,0.551,0.128,0.706,0.219c0.125,0.072,0.691,0.545,1.699,1.418
		C320.298,330.464,318.679,333.08,317.786,334.83L317.786,334.83L317.786,334.83L317.786,334.83z"/>
	<path fill="#FFFFFF" d="M321.889,331.929c0.046,0.063,0.105,0.214,0.176,0.454c0.147,0.538,0.197,0.847,0.15,0.929
		c-0.031,0.054-0.445,0.366-1.244,0.934c0.036,0.129,0.088,0.449,0.156,0.958c-0.486,0.387-0.924,0.703-1.313,0.947
		c-0.048-0.136-0.15-0.594-0.312-1.374c-0.003-0.02,0.076-0.073,0.238-0.161c0.535-0.304,0.85-0.538,0.942-0.701
		c0.017-0.027-0.003-0.201-0.055-0.521c-0.052-0.319-0.065-0.5-0.043-0.54C320.594,332.842,321.028,332.533,321.889,331.929
		L321.889,331.929L321.889,331.929L321.889,331.929z"/>
	<path fill="#FFFFFF" d="M308.154,341.98c0.393,0.542,0.599,0.958,0.618,1.252l0,0l-0.883,1.266l0,0
		c0.264,0.463,0.383,0.748,0.357,0.855c-0.031,0.137-0.173,0.377-0.424,0.721c-0.261,0.326-0.418,0.505-0.477,0.541
		c-0.237-0.409-0.434-0.816-0.587-1.221c0.526-0.682,0.798-1.061,0.815-1.137c0.007-0.031-0.049-0.188-0.168-0.473
		c-0.116-0.3-0.168-0.473-0.158-0.519C307.274,343.159,307.576,342.73,308.154,341.98L308.154,341.98L308.154,341.98L308.154,341.98
		z"/>
	<path fill="#FFFFFF" d="M313.708,343.942c-0.023-0.167-0.112-0.315-0.267-0.448c-0.053-0.044-0.156-0.125-0.314-0.241
		c-0.654-0.425-1.016-0.646-1.086-0.662c-0.409-0.095-0.812,0.028-1.212,0.37l0,0l-1.432,1.405l0,0
		c0.408,0.738,0.882,1.442,1.417,2.113c0.712,0.92,1.302,1.435,1.77,1.543c0.503,0.117,0.903-0.474,1.202-1.771
		C313.92,345.671,313.894,344.902,313.708,343.942L313.708,343.942L313.708,343.942L313.708,343.942z M312.468,345.56
		c-0.144,0.626-0.386,0.899-0.725,0.821c-0.117-0.027-0.296-0.213-0.537-0.559c-0.146-0.227-0.294-0.461-0.448-0.706
		c0.661-0.731,1.278-1.191,1.852-1.38l0,0l0.123,0.028l0,0C312.658,344.519,312.569,345.117,312.468,345.56L312.468,345.56
		L312.468,345.56L312.468,345.56z"/>
	<path fill="#F79239" stroke="#F79239" stroke-width="0.1082" stroke-miterlimit="2.6131" d="M384.979,389.072
		c-0.16-3.045-4.729-3.857-7.215-4.248c-2.482-0.389-15.68,0-16.808,0.391c-1.129,0.389,0.161,0.809,0.645,1.295
		c0.483,0.484,0.807,1.941,0.483,4.178c-0.323,2.237-7.359,2.4-7.035,0.205l0,0v-4.447l0,0c0-0.385,0.134-0.762,0.102-1.104
		c-0.057-0.566-0.325-0.646-0.946-0.828c-0.875-0.256-3.683,0.088-6.217,0.441c-1.483,0.207-1.399,0.742-1.023,0.848
		c1.203,0.338,1.802,0.529,1.802,1.729c0,2.143,0.396,3.987-1.667,4.612c-1.425,0.435-1.917,0.472-3.812,0.191
		c-1.851-0.273-1.558-1.74-1.558-1.74s-0.131-2.666,0-4.279c0.132-1.612-1.737-1.743-1.737-1.743l0,0h-24.79l0,0
		c-1.182,0-3.214,0.131-6.396,0.69c-7.007,1.232-7.345,4.017-7.606,4.938c-0.262,0.922-0.443,3.325,3.738,5.366
		c3.574,1.745,15.576,0.79,16.658,1.185c1.773,0.648,0.787,2.008-2.394,2.963c-3.182,0.955-27.742,4.279-29.479,4.148
		c-1.738-0.133-1.447-1.613-1.447-1.613l0,0l-0.001-15.094l0,0c0-0.615,0.131-1.068,0.396-1.361
		c0.283-0.278,0.096-0.291,0.631-0.562c0.561-0.28,1.304-0.231,1.362-0.858c0.036-0.381-0.024-0.899-0.389-0.899l0,0h-12.982l0,0
		c-0.365,0-0.639,0.469-0.639,0.899c-0.001,0.631,0.816,0.552,1.362,0.861c0.444,0.252,0.765,0.278,1.161,0.604
		c0.644,0.523,1.12,0.63,1.116,1.818l0,0l0.045,14.25l0,0c-0.136,2.555,2.574,4.018,8.71,3.812
		c4.203-0.141,27.295-3.881,32.412-5.205c5.394-1.397,7.933-3.235,7.933-5.108c0-1.871-3.32-2.447-4.34-2.447l0,0h-12.643l0,0
		c-0.543,0-4.34-0.407-4.34-3.166c0-2.76,4.98-3.78,6-3.78l0,0h17.699l0,0c1.914,0,3.308,0.348,3.394,1.834
		c0.041,0.698,0,1.571,0,2.965c0,1.395,0.606,1.922,1.914,2.535c3.848,1.811,10.695-0.179,11.655-0.527
		c0.959-0.348,1.014,0.391,1.68,0.584c3.914,1.131,8.922,0.236,10.438-0.314c1.518-0.551,1.528-0.012,2.268,0.32
		c1.797,0.809,14.002,0.324,15.519,0.162C380.152,393.41,385.141,392.117,384.979,389.072L384.979,389.072L384.979,389.072
		L384.979,389.072z M374.588,392.562h-2.739l0,0c-1.957,0-3.543-1.447-3.543-3.232s1.586-3.232,3.543-3.232l0,0h2.739l0,0
		c1.957,0,3.543,1.447,3.543,3.232S376.545,392.562,374.588,392.562L374.588,392.562L374.588,392.562L374.588,392.562z"/>
	<path fill="#FFFFFF" stroke="#FFFFFF" stroke-width="0.1082" stroke-miterlimit="2.6131" d="M430.621,380.168
		c0-0.805,1.791-1.455,4-1.455c2.21,0,4.001,0.65,4.001,1.455c0,0.803-1.791,1.453-4.001,1.453
		C432.412,381.621,430.621,380.971,430.621,380.168L430.621,380.168L430.621,380.168L430.621,380.168z"/>
	<path fill="#FFFFFF" stroke="#FFFFFF" stroke-width="0.1082" stroke-miterlimit="2.6131" d="M417.404,380.168
		c0-0.805,1.791-1.455,4-1.455c2.21,0,4.001,0.65,4.001,1.455c0,0.803-1.791,1.453-4.001,1.453
		C419.195,381.621,417.404,380.971,417.404,380.168L417.404,380.168L417.404,380.168L417.404,380.168z"/>
	<path fill="#FFFFFF" stroke="#FFFFFF" stroke-width="0.1082" stroke-miterlimit="2.6131" d="M398.849,396.287
		c-0.066,1.07-0.38,1.654-0.499,1.807c-0.997,1.271-2.797,2.211-6.798,2.211c-3.338,0-4.734-0.336-4.937-1.545
		c-0.137-0.819,1.336-0.703,2.268-0.799c1.131-0.117,1.8,0.402,2.469,0.469c0.461,0.047,0.881-0.026,1.183-0.121
		c0,0,0.031-9.656,0.032-11.201c0-1.116-0.927-1.312-2.129-1.649c-0.377-0.104-0.461-0.642,1.022-0.849
		c2.535-0.354,5.668-0.774,6.544-0.518c0.62,0.182,0.891,0.26,0.945,0.826c0.033,0.342-0.102,0.721-0.102,1.105l0,0v6.428l0,0
		c0.133,0.648,0.704,1.137,1.39,1.137l0,0h4.05l0,0c0.783,0,1.422-0.637,1.422-1.422l0,0l0.057-0.012v-6.131l0,0
		c0-0.385-0.083-0.67-0.248-0.854c-0.178-0.176-0.061-0.183-0.396-0.353c-0.352-0.176-0.817-0.145-0.854-0.539
		c-0.021-0.237,0.016-0.562,0.244-0.562l0,0h8.821l0,0c0.229,0,0.266,0.324,0.243,0.562c-0.036,0.396-0.502,0.363-0.854,0.539
		c-0.335,0.17-0.218,0.177-0.396,0.353c-0.165,0.185-0.247,0.47-0.247,0.854l0,0v7.946l0.053,0.037l0,0
		c0,0.787,0.634,1.425,1.417,1.425l0,0h4.05l0,0c0.692,0,1.272-0.498,1.396-1.158l0,0v-8.25l0,0c0-0.385-0.082-0.67-0.247-0.854
		c-0.178-0.176-0.061-0.183-0.396-0.353c-0.353-0.176-0.816-0.145-0.854-0.539c-0.021-0.237,0.016-0.562,0.244-0.562l0,0h8.822l0,0
		c0.228,0,0.266,0.324,0.242,0.562c-0.035,0.396-0.502,0.363-0.854,0.539c-0.335,0.17-0.218,0.177-0.396,0.353
		c-0.166,0.185-0.248,0.47-0.248,0.854l0,0l0.004,10.084l0,0c0,0.784,0.635,1.424,1.416,1.424l0,0h4.051l0,0
		c0.782,0,1.422-0.64,1.422-1.424l0,0l0.024-10.084l0,0c0-0.385-0.082-0.67-0.248-0.854c-0.177-0.176-0.06-0.183-0.396-0.353
		c-0.352-0.176-0.816-0.145-0.854-0.539c-0.021-0.237,0.017-0.562,0.244-0.562l0,0h8.821l0,0c0.229,0,0.267,0.324,0.244,0.562
		c-0.037,0.396-0.502,0.363-0.854,0.539c-0.336,0.17-0.219,0.177-0.396,0.353c-0.166,0.185-0.248,0.47-0.248,0.854l0,0v12.284l0,0
		c0,0.386,0.082,0.668,0.248,0.854c0.177,0.174,0.06,0.182,0.396,0.35c0.353,0.179,0.816,0.146,0.854,0.539
		c0.021,0.238-0.016,0.564-0.244,0.564l0,0h-4.494l0,0c-0.024,0.043-0.062,0.062-0.107,0.053c-3.066-0.609-2.574-1.926-3.066-1.844
		c-2.695,0.451-4.463,0.588-7.263,0.082c-3.836-0.689-4.69-2.724-5.148-2.533c-1.672,0.689-4.825,0.793-7.509,0.361
		c-2.246-0.361-5.263-1.432-6.247-2.369c-0.605-0.578,0.159,1.256-7.113,0.777l0,0v1.145H398.849L398.849,396.287z"/>
	<path fill="#FFFFFF" stroke="#FFFFFF" stroke-width="0.1082" stroke-miterlimit="2.6131" d="M404.188,380.168
		c0-0.805,1.791-1.455,4-1.455c2.211,0,4.002,0.65,4.002,1.455c0,0.803-1.791,1.453-4.002,1.453
		C405.979,381.621,404.188,380.971,404.188,380.168L404.188,380.168L404.188,380.168L404.188,380.168z"/>
	<path fill="#FFFFFF" stroke="#FFFFFF" stroke-width="0.1082" stroke-miterlimit="2.6131" d="M340.179,397.521
		c0-0.804,1.791-1.455,4-1.455s4,0.651,4,1.455c0,0.805-1.791,1.454-4,1.454S340.179,398.326,340.179,397.521L340.179,397.521
		L340.179,397.521L340.179,397.521z"/>
	<path fill="#FFFFFF" stroke="#FFFFFF" stroke-width="0.1082" stroke-miterlimit="2.6131" d="M383.99,388.395
		c-0.161-3.045-4.731-3.856-7.215-4.246c-2.484-0.391-15.681,0-16.809,0.39c-1.129,0.392,0.16,0.812,0.646,1.295
		c0.482,0.485,0.806,1.942,0.482,4.179c-0.321,2.235-7.358,2.401-7.036,0.204l0,0v-4.444l0,0c0-0.386,0.135-0.765,0.102-1.104
		c-0.057-0.565-0.325-0.646-0.946-0.828c-0.875-0.256-3.681,0.088-6.217,0.44c-1.482,0.205-1.399,0.742-1.022,0.849
		c1.203,0.336,1.803,0.526,1.803,1.728c0,2.145,0.396,3.989-1.667,4.614c-1.426,0.433-1.917,0.47-3.813,0.189
		c-1.849-0.271-1.557-1.738-1.557-1.738s-0.131-2.666,0-4.278c0.131-1.613-1.738-1.744-1.738-1.744l0,0h-24.79l0,0
		c-1.181,0-3.213,0.131-6.394,0.69c-7.007,1.231-7.345,4.017-7.608,4.938c-0.262,0.922-0.443,3.324,3.738,5.365
		c3.574,1.743,15.576,0.791,16.658,1.186c1.774,0.647,0.787,2.008-2.394,2.963s-27.741,4.279-29.479,4.148
		c-1.738-0.134-1.447-1.613-1.447-1.613l0,0l-0.001-15.096l0,0c0-0.613,0.131-1.066,0.396-1.359
		c0.283-0.281,0.096-0.291,0.631-0.561c0.561-0.283,1.304-0.232,1.363-0.859c0.035-0.381-0.024-0.9-0.39-0.9l0,0h-12.982l0,0
		c-0.365,0-0.639,0.469-0.639,0.9c-0.001,0.629,0.816,0.549,1.362,0.861c0.443,0.252,0.765,0.278,1.161,0.602
		c0.644,0.525,1.121,0.631,1.116,1.818l0,0l0.045,14.252l0,0c-0.136,2.555,2.574,4.016,8.71,3.811
		c4.202-0.139,27.293-3.879,32.412-5.205c5.395-1.396,7.934-3.236,7.934-5.107s-3.321-2.446-4.341-2.446l0,0H311.42l0,0
		c-0.544,0-4.34-0.408-4.34-3.168c0-2.759,4.98-3.781,6-3.781l0,0h17.7l0,0c1.914,0,3.307,0.351,3.394,1.834
		c0.041,0.701,0,1.572,0,2.968c0,1.393,0.607,1.922,1.913,2.534c3.847,1.812,10.696-0.178,11.655-0.526s1.014,0.391,1.68,0.582
		c3.914,1.133,8.922,0.237,10.439-0.312c1.517-0.553,1.526-0.012,2.267,0.32c1.796,0.809,14.002,0.324,15.519,0.162
		C379.163,392.732,384.151,391.441,383.99,388.395L383.99,388.395L383.99,388.395L383.99,388.395z M373.599,391.887h-2.739l0,0
		c-1.956,0-3.543-1.447-3.543-3.232c0-1.786,1.587-3.233,3.543-3.233l0,0h2.739l0,0c1.956,0,3.543,1.447,3.543,3.233
		C377.142,390.439,375.555,391.887,373.599,391.887L373.599,391.887L373.599,391.887L373.599,391.887z"/>
</g>
</svg>
