<?xml version="1.0" encoding="utf-8"?>
<!-- Generator: Adobe Illustrator 16.0.0, SVG Export Plug-In . SVG Version: 6.00 Build 0)  -->
<!DOCTYPE svg PUBLIC "-//W3C//DTD SVG 1.1//EN" "http://www.w3.org/Graphics/SVG/1.1/DTD/svg11.dtd">
<svg version="1.1" id="Layer_1" xmlns="http://www.w3.org/2000/svg" xmlns:xlink="http://www.w3.org/1999/xlink" x="0px" y="0px"
	 width="256.992px" height="132.248px" viewBox="0 0 256.992 132.248" enable-background="new 0 0 256.992 132.248"
	 xml:space="preserve">
<g>
	<path d="M47.62,104.039c-1.553,0-2.976,0-4.659,0.129c-1.94,0.129-3.752,0.259-5.563,0.517c-9.576,1.294-20.058,4.4-31.057,9.576
		L0,117.108l0.647-6.857l7.635-95.37l0.13-2.588l2.458-0.906c15.657-6.211,31.316-9.834,46.973-10.74l4.788-0.389l-0.518,4.788
		l-0.646,6.988c0.129,0.259,0.129,0.518,0.258,0.776c0-0.129,0.13-0.258,0.259-0.517l0,0l4.917-9.058v-0.13l0,0l0,0
		c0.259-0.388,0.518-0.776,0.776-1.035l0,0c0.259-0.259,0.518-0.518,0.777-0.776l0,0c1.423-1.036,3.623-1.554,5.306-1.165l0,0
		l19.54,5.046l0,0l0,0l0,0l0,0c0.387,0.129,0.775,0.259,1.034,0.259v0.129c0.259,0.129,0.647,0.259,0.907,0.388h-0.13
		c1.294,0.907,2.2,2.071,2.588,3.495l0,0l0,0v0.129c0,0,0,0.13,0.129,0.259c0,0,0,0.129,0,0.258l0,0
		c0.129,0.647,0.129,1.165,0,1.683l0,0l-0.518,4.14c0.518,0,0.906,0,1.165,0.13c3.883,0.388,7.764,1.034,11.646,1.811
		c0.517-0.647,0.906-1.164,1.552-1.682l1.166-1.294h0.129c0.129,0,0.259-0.129,0.388-0.258l0,0c0.907-0.647,1.812-1.294,2.718-1.812
		v-0.776l0.259-4.141l4.27,0.389l30.409,2.847l4.011,0.387l-0.388,4.012l-0.258,4.141h0.905c11-0.129,21.092,0.388,30.41,1.941
		c8.541,1.552,16.434,3.881,23.292,7.246l0.518-8.282l0.389-4.011l4.011,0.259c6.988,0.517,13.976,2.329,20.963,5.564
		c6.858,3.235,13.717,7.764,20.575,13.587l1.553,1.294l-0.129,1.941l-4.788,85.793l-0.388,7.246l-5.953-4.012
		c-4.141-2.847-8.152-5.305-12.164-7.246c-2.847-1.423-5.693-2.718-8.411-3.624l-1.165,2.587l0,0c0,0.13-0.129,0.259-0.129,0.389
		l0,0c0,0.129-0.129,0.129-0.129,0.258l0,0c0,0.13-0.129,0.13-0.129,0.259c-0.258,0.259-0.646,0.906-0.776,1.035l-6.728,7.117l0,0
		l0,0l0,0c-0.13,0.259-0.259,0.259-0.389,0.388l0,0c-0.129,0.129-0.259,0.258-0.388,0.389l0,0c-0.518,0.388-1.165,0.646-1.682,0.775
		l0,0l0,0l0,0l0,0l0,0l0,0c-0.13,0-0.259,0.13-0.389,0.13l0,0c-0.129,0-0.258,0-0.387,0v0.129c-0.647,0.129-1.424,0.129-2.201,0l0,0
		l-19.022-3.106c-0.518-0.129-1.035-0.259-1.423-0.388c-1.293-0.647-2.329-1.552-2.976-2.718c-0.647-1.165-0.906-2.588-0.647-4.012
		c0-0.129,0-0.258,0-0.388c-6.988-2.07-13.717-3.624-19.929-4.529c-7.375-1.294-14.234-1.682-20.445-1.164l-4.917,0.518l0.518-4.788
		c-0.648,0.129-1.165,0.258-1.682,0.258h-21.61c-0.13,0-0.13,0-0.13,0l0,0h-0.129l0,0c-0.388-0.129-0.905-0.129-1.294-0.258
		c-0.388-0.13-0.777-0.259-1.165-0.518c-0.388-0.129-0.776-0.388-1.036-0.647v0.647l-0.259,5.176l-4.658-1.294
		c-1.035,0.259-2.07,0.259-3.105,0l-9.834-2.458c-5.564-0.647-12.035-1.036-19.54-1.165c-7.505,0-16.175,0.259-25.751,0.776
		l-4.659,0.259l0.389-4.659L47.62,104.039z"/>
	<polygon fill-rule="evenodd" clip-rule="evenodd" fill="#FFFFFF" points="162.788,113.485 162.14,113.485 161.364,113.356 
		160.717,113.356 160.07,113.226 159.423,113.226 158.775,113.097 158,113.097 157.352,112.967 156.705,112.967 156.058,112.967 
		155.412,112.967 154.764,112.838 154.118,112.838 153.471,112.838 152.824,112.838 152.176,112.838 151.659,112.838 
		151.012,112.838 150.365,112.838 149.718,112.838 149.07,112.838 148.423,112.838 147.906,112.967 147.259,112.967 
		146.612,112.967 146.095,113.097 142.989,113.356 143.507,108.05 141.177,108.827 141.048,108.827 140.919,108.827 140.66,108.827 
		140.53,108.956 140.401,108.956 140.271,108.956 140.143,108.956 118.532,108.956 118.532,108.956 118.402,108.956 
		118.273,108.956 118.144,108.956 118.015,108.827 117.885,108.827 117.756,108.827 117.627,108.827 117.497,108.827 
		117.368,108.697 117.238,108.697 117.109,108.697 117.109,108.697 116.979,108.568 116.85,108.568 116.72,108.568 116.591,108.438 
		116.461,108.438 116.461,108.309 116.333,108.309 116.202,108.18 116.073,108.18 115.944,108.05 115.944,108.05 115.814,107.921 
		113.355,105.979 113.227,109.604 113.097,112.838 109.862,111.932 109.215,112.191 108.827,112.191 108.569,112.191 
		108.31,112.191 108.051,112.191 107.792,112.191 107.403,112.191 107.146,112.062 97.31,109.604 96.664,109.473 96.146,109.473 
		95.498,109.344 94.981,109.344 94.463,109.344 93.817,109.214 93.299,109.214 92.781,109.085 92.134,109.085 91.617,109.085 
		90.97,108.956 90.452,108.956 89.804,108.956 89.158,108.827 88.511,108.827 87.993,108.827 87.346,108.827 86.699,108.697 
		86.052,108.697 85.405,108.697 84.758,108.697 84.111,108.697 83.464,108.568 82.817,108.568 82.169,108.568 81.523,108.568 
		80.876,108.568 80.1,108.568 79.453,108.568 78.806,108.568 78.029,108.568 77.382,108.438 76.735,108.438 75.959,108.438 
		75.183,108.438 74.536,108.438 73.759,108.438 72.982,108.438 72.206,108.438 71.559,108.568 70.782,108.568 70.006,108.568 
		69.23,108.568 68.454,108.568 67.677,108.568 66.771,108.568 65.994,108.568 65.218,108.697 64.442,108.697 63.666,108.697 
		62.76,108.697 61.983,108.697 61.077,108.827 60.301,108.827 59.395,108.827 58.619,108.827 57.712,108.956 56.938,108.956 
		56.031,108.956 55.125,109.085 54.22,109.085 53.313,109.085 52.537,109.214 51.631,109.214 48.654,109.344 48.914,106.498 
		49.302,102.486 47.102,102.486 46.456,102.486 45.938,102.486 45.291,102.616 44.773,102.616 44.125,102.616 43.479,102.616 
		42.961,102.616 42.186,102.745 41.409,102.745 40.632,102.745 39.985,102.874 39.339,102.874 38.562,103.003 37.915,103.133 
		37.267,103.133 36.362,103.262 35.456,103.392 34.42,103.521 33.515,103.78 32.609,103.91 31.574,104.039 30.668,104.297 
		29.763,104.556 28.727,104.685 27.821,104.944 26.786,105.203 25.88,105.462 24.846,105.721 23.939,105.979 22.904,106.239 
		21.999,106.498 20.963,106.886 19.928,107.145 19.022,107.533 17.987,107.791 16.952,108.18 16.045,108.568 15.011,108.956 
		13.975,109.344 12.941,109.732 11.905,110.12 10.87,110.509 9.835,111.027 8.799,111.415 7.764,111.932 6.729,112.32 
		5.694,112.838 1.811,114.649 2.07,110.25 9.705,15.01 9.835,13.328 11.387,12.81 12.811,12.163 14.234,11.646 15.787,11.129 
		17.211,10.611 18.634,10.093 20.058,9.575 21.61,9.188 23.033,8.669 24.457,8.282 26.01,7.764 27.433,7.375 28.857,6.988 
		30.281,6.599 31.833,6.21 33.256,5.823 34.68,5.564 36.103,5.176 37.656,4.917 39.08,4.528 40.503,4.27 41.926,4.012 43.479,3.752 
		44.902,3.494 46.326,3.364 47.749,3.105 49.302,2.976 50.726,2.717 52.149,2.587 53.573,2.458 55.125,2.329 56.548,2.2 
		57.972,2.07 60.948,1.94 60.689,4.917 59.913,12.293 60.042,12.681 60.042,12.681 60.042,12.81 60.172,12.81 60.172,12.94 
		60.172,12.94 60.172,13.069 61.077,17.857 63.147,13.458 63.147,13.328 63.147,13.328 63.147,13.199 63.278,13.199 63.278,13.199 
		63.278,13.069 63.536,12.681 68.194,4.012 68.194,3.881 68.324,3.752 68.324,3.623 68.454,3.623 68.454,3.494 68.583,3.364 
		68.712,3.235 68.712,3.235 68.842,3.105 68.842,3.105 68.971,2.976 68.971,2.976 69.101,2.846 69.101,2.846 69.23,2.717 
		69.359,2.587 69.489,2.458 69.877,2.329 70.266,2.07 70.782,1.811 71.3,1.682 71.948,1.553 72.465,1.553 72.982,1.553 73.5,1.682 
		92.781,6.599 92.91,6.599 93.04,6.729 93.169,6.729 93.299,6.729 93.299,6.729 93.428,6.858 93.558,6.858 93.817,6.988 
		93.817,6.988 93.945,6.988 94.074,7.117 94.074,7.117 94.205,7.117 94.205,7.117 94.592,7.505 94.981,7.764 95.24,8.023 
		95.498,8.411 95.757,8.669 95.887,9.058 96.016,9.446 96.146,9.834 96.146,9.834 96.275,9.963 96.275,9.963 96.275,9.963 
		96.275,10.093 96.275,10.093 96.275,10.093 96.275,10.222 96.275,10.222 96.275,10.222 96.275,10.222 96.275,10.222 96.275,10.352 
		96.275,10.352 96.404,10.74 96.404,10.87 96.404,10.999 96.404,11.129 96.404,11.258 95.628,17.21 97.31,17.339 97.569,17.469 
		97.698,17.469 97.828,17.469 98.216,17.469 98.345,17.469 98.993,17.598 99.769,17.728 100.416,17.728 101.192,17.857 
		101.839,17.987 102.616,18.116 103.263,18.116 104.039,18.246 104.686,18.375 105.463,18.504 106.109,18.633 106.886,18.762 
		107.662,18.893 108.31,19.021 109.085,19.151 110.638,19.54 111.416,18.633 111.673,18.375 111.803,18.246 111.932,17.987 
		112.191,17.728 112.321,17.598 112.58,17.339 112.708,17.21 113.485,16.434 113.485,16.434 113.874,16.046 114.003,16.046 
		114.003,16.046 114.132,15.916 114.132,15.916 114.262,15.916 114.262,15.787 114.52,15.528 114.909,15.269 115.168,15.14 
		115.555,14.881 115.814,14.623 116.202,14.492 116.461,14.233 117.497,13.716 117.627,12.163 117.756,9.575 120.474,9.834 
		153.34,12.94 153.211,15.399 152.694,21.221 155.412,21.221 156.317,21.221 157.352,21.221 158.388,21.221 159.423,21.221 
		160.329,21.221 161.364,21.221 162.399,21.221 163.305,21.221 164.34,21.221 165.246,21.221 166.281,21.352 167.187,21.352 
		168.223,21.352 169.128,21.352 170.034,21.48 171.069,21.48 171.975,21.61 172.88,21.61 173.787,21.739 174.692,21.868 
		175.598,21.868 176.633,21.998 177.54,22.127 178.445,22.127 179.221,22.257 180.127,22.386 181.033,22.516 181.938,22.645 
		182.845,22.775 183.621,22.903 184.527,23.034 185.432,23.163 186.208,23.292 186.986,23.421 187.762,23.55 188.538,23.681 
		189.315,23.939 190.091,24.068 190.868,24.198 191.644,24.457 192.42,24.586 193.067,24.715 193.843,24.974 194.621,25.104 
		195.396,25.363 196.044,25.622 196.82,25.751 197.467,26.009 198.244,26.268 198.891,26.397 199.667,26.656 200.314,26.915 
		200.961,27.174 201.737,27.433 202.384,27.691 203.031,27.951 203.679,28.209 204.454,28.469 205.102,28.727 205.749,28.985 
		206.396,29.244 207.043,29.503 207.69,29.892 210.278,31.185 211.054,20.704 211.313,18.116 213.771,18.375 214.419,18.375 
		215.066,18.504 215.713,18.504 216.359,18.633 217.007,18.633 217.654,18.762 218.3,18.893 218.948,19.021 219.595,19.021 
		220.113,19.151 220.759,19.28 221.406,19.41 222.053,19.669 222.701,19.798 223.348,19.928 223.994,20.057 224.642,20.316 
		225.288,20.445 225.935,20.575 226.582,20.834 227.229,21.092 227.876,21.221 228.523,21.48 229.171,21.739 229.818,21.998 
		230.464,22.257 230.982,22.386 231.628,22.645 232.277,23.034 232.924,23.292 233.57,23.55 234.217,23.81 234.864,24.068 
		235.511,24.457 236.158,24.715 236.805,25.104 237.453,25.363 237.97,25.751 238.617,26.009 239.264,26.397 239.91,26.786 
		240.558,27.174 241.205,27.562 241.852,27.951 242.499,28.338 243.016,28.727 243.664,29.115 244.311,29.503 244.958,29.892 
		245.604,30.28 246.252,30.797 246.898,31.185 247.416,31.703 248.063,32.091 248.71,32.608 249.357,32.998 250.004,33.514 
		250.651,34.032 251.299,34.55 251.945,35.068 252.463,35.585 253.11,36.104 253.756,36.62 254.403,37.138 255.439,37.915 
		255.31,39.209 250.522,125.002 250.263,129.401 246.511,126.943 245.734,126.425 244.958,125.908 244.181,125.39 243.405,124.872 
		242.628,124.355 241.981,123.966 241.205,123.449 240.428,122.932 239.652,122.543 238.876,122.025 238.099,121.637 
		237.323,121.249 236.547,120.732 235.771,120.343 234.993,119.955 234.217,119.567 233.7,119.309 233.182,119.049 232.535,118.791 
		232.018,118.531 231.5,118.273 230.982,118.014 230.464,117.755 229.947,117.626 229.429,117.367 228.782,117.108 228.265,116.85 
		227.747,116.72 227.229,116.462 226.712,116.203 226.194,116.073 224.253,115.426 222.701,119.049 222.701,119.049 222.57,119.438 
		222.57,119.567 222.57,119.567 222.57,119.567 222.441,119.696 222.441,119.696 222.441,119.696 222.441,119.696 222.441,119.696 
		222.441,119.826 222.441,119.826 222.312,119.826 222.312,119.955 222.312,119.955 222.312,119.955 222.312,119.955 
		222.312,119.955 222.312,119.955 222.183,120.085 222.183,120.214 222.053,120.343 221.924,120.473 221.795,120.602 
		221.795,120.732 221.665,120.861 221.665,120.861 215.066,127.978 215.066,127.978 214.936,127.978 214.936,128.107 
		214.807,128.107 214.807,128.107 214.807,128.236 214.807,128.236 214.678,128.236 214.678,128.367 214.548,128.367 
		214.548,128.367 214.419,128.496 214.419,128.496 214.419,128.496 214.29,128.625 214.16,128.754 213.901,128.754 213.771,128.883 
		213.643,128.883 213.512,129.013 213.383,129.013 212.089,129.013 212.089,129.013 213.383,129.013 213.125,129.142 
		213.125,129.142 212.996,129.142 212.996,129.142 212.996,129.142 212.866,129.142 212.866,129.142 212.866,129.142 
		212.866,129.142 212.866,129.272 212.737,129.272 212.737,129.272 212.737,129.272 212.607,129.272 212.607,129.272 
		212.348,129.272 212.219,129.401 211.96,129.401 211.701,129.401 211.572,129.401 211.313,129.401 211.054,129.401 
		191.903,126.166 191.644,126.166 191.515,126.166 191.385,126.037 191.256,126.037 191.126,126.037 190.997,126.037 
		190.997,125.908 190.868,125.908 190.479,125.779 190.091,125.52 189.833,125.261 189.573,125.002 189.315,124.743 
		189.056,124.484 188.797,124.225 188.538,123.837 188.409,123.449 188.279,123.19 188.15,122.802 188.021,122.414 188.021,122.025 
		188.021,121.637 188.021,121.249 188.021,120.861 188.021,120.861 188.021,120.732 188.15,120.732 188.15,120.732 188.15,120.602 
		188.409,119.178 186.339,118.662 185.691,118.402 185.044,118.273 184.397,118.014 183.751,117.885 183.104,117.626 
		182.457,117.496 181.81,117.367 181.162,117.108 180.515,116.979 179.869,116.85 179.221,116.72 178.575,116.462 177.928,116.332 
		177.281,116.203 176.763,116.073 176.116,115.944 175.468,115.813 174.822,115.685 174.175,115.556 173.527,115.426 
		173.011,115.297 172.363,115.167 171.716,115.039 171.069,114.908 170.551,114.779 169.905,114.649 169.257,114.521 168.74,114.39 
		168.092,114.261 167.446,114.261 166.928,114.132 166.152,114.002 165.505,113.874 164.858,113.744 164.082,113.744 
		163.435,113.614 	"/>
	<path fill-rule="evenodd" clip-rule="evenodd" fill="#00A651" d="M4.658,110.509l7.635-95.369
		C27.562,9.058,42.832,5.564,58.102,4.659l-9.576,95.369C35.197,99.639,20.575,103.133,4.658,110.509z"/>
	<path fill-rule="evenodd" clip-rule="evenodd" fill="#FFCB05" d="M51.502,106.626l7.634-82.817
		c9.965-5.435,32.48-6.34,54.349-1.035l-2.847,86.829C98.604,106.108,78.806,105.074,51.502,106.626z"/>
	<polygon fill-rule="evenodd" clip-rule="evenodd" fill="#ED1C24" points="120.214,12.293 150.624,15.14 142.989,105.721 
		115.426,101.969 	"/>
	<path fill-rule="evenodd" clip-rule="evenodd" fill="#0095DA" d="M155.412,23.81l-9.576,86.699
		c14.105-1.165,31.314,2.2,50.596,8.541l12.423-85.794C195.138,26.009,176.763,23.421,155.412,23.81z"/>
	<path fill-rule="evenodd" clip-rule="evenodd" fill="#EC008C" d="M213.643,20.834l-6.729,89.675
		c13.717-0.905,27.434,5.047,41.021,14.363l4.788-85.793C239.781,27.951,226.712,21.868,213.643,20.834z"/>
	<path d="M83.981,102.356L82.3,93.557l-3.883,6.988c-0.129,0.388-0.258,0.518-0.518,0.646c-0.517,0.388-1.165,0.518-1.682,0.388
		l-19.669-4.917c-0.776-0.258-1.552-1.423-1.423-2.2l0.776-5.953c-0.646,0.776-1.294,1.423-1.941,2.2
		c-4.788,4.658-11.516,6.988-18.375,6.988c-2.458,0-5.046-0.259-7.764-0.777c-2.847-0.518-5.694-1.295-8.799-2.33
		c-0.647-0.129-1.423-1.164-1.423-1.682l-2.718-23.81c0-0.388,0-0.647,0.13-1.036c0.129-0.129,0.129-0.259,0.259-0.388l4.788-6.729
		c0.259-0.518,0.776-0.776,1.293-0.905c-1.811-1.554-3.365-2.977-4.788-4.529c-0.259-0.259-0.259-0.129-0.259-0.259l0,0
		c-0.906-1.036-1.682-2.07-2.329-3.365c-0.647-1.165-1.165-2.459-1.552-3.752C10.352,41.408,11,33.255,13.846,27.562l0,0l0,0l0,0
		c0.518-1.165,1.165-2.199,1.941-3.235l0,0c0-0.128,0-0.128,0.129-0.258l4.788-6.858l0.129-0.13l0.389-0.517v-0.13l0.518-0.518l0,0
		l0.517-0.646l0,0l0.518-0.518l0.13-0.129l0.518-0.389v-0.129l0.517-0.518h0.13l0.518-0.388l0.129-0.13l0.518-0.388l0.129-0.129
		l0.518-0.389h0.129l0.647-0.388v-0.13l0.647-0.259v-0.129l0.647-0.259l0.129-0.129l0.647-0.259h0.13l0.646-0.389l0,0l0.647-0.259
		l0.13-0.129l0.646-0.259h0.129l0.648-0.259h0.128l0.647-0.129l0.13-0.13l0.647-0.129h0.13l0.776-0.259l0,0l0.776-0.129l0,0
		l0.776-0.129h0.129l0.777-0.129l0,0h0.777h0.129l0.777-0.13l0,0h0.905l0,0h0.776h0.129h0.907h0.129h0.905h0.13l0.906,0.13h0.129
		l1.035,0.129l0,0l1.036,0.129l0,0l1.035,0.129l0,0l1.036,0.259l0,0l1.035,0.259l0,0l1.036,0.259l0,0l1.035,0.259l0,0l1.035,0.388
		l0,0l1.035,0.259l0,0l1.036,0.388v0.13l0.905,0.388h0.129l0.906,0.388h0.129l0.905,0.518c0.259,0.13,0.518,0.389,0.776,0.647
		c0.129,0.259,0.388,0.518,0.388,0.906l2.588,23.292c0.13,0.259-0.129,1.164-0.258,1.423l-4.529,6.341l0.129,0.129h0.129
		l0.517,0.517l0,0l0.518,0.518l0,0l0.518,0.518l0,0l0.518,0.518l0,0l0.518,0.518l0,0l0.388,0.517h0.129l0.389,0.647l0,0l0.518,0.518
		l0,0l0.517,0.647l0,0l0.389,0.518l0.129,0.129l4.528-35.585v-0.129c0-0.129,0.13-0.388,0.13-0.518l4.917-9.058
		c0.388-0.776,1.553-1.294,2.329-1.035l19.54,4.917c0.777,0.259,1.294,0.906,1.554,1.553c0,0.259,0,0.518,0,0.776l-5.306,41.279
		l2.458-4.27l0,0l4.917-9.187c0.388-0.647,1.552-1.166,2.33-1.036l15.787,4.012c-2.718-2.976-4.4-6.858-4.4-11.258l0,0l0,0
		c0-4.658,1.812-8.799,4.917-11.905l0,0c2.977-3.106,7.247-4.917,11.905-4.917l0,0l0,0c4.529,0,8.67,1.811,11.776,4.917l0,0
		c2.976,3.105,4.917,7.247,4.917,11.905l0,0l0,0c0,4.659-1.941,8.799-4.917,11.905l0,0c-0.647,0.518-1.165,1.036-1.812,1.553h4.011
		c0.647,0,1.165,0.259,1.553,0.647c0.258,0.388,0.389,0.777,0.518,1.165l0.647,8.411v-6.47c0-0.259,0-0.388,0-0.518
		c0.13-0.259,0.259-0.518,0.389-0.777l5.952-7.376c0.258-0.388,1.293-0.776,1.812-0.776l20.316,2.199
		c0.646,0.13,1.293,0.518,1.552,1.036c0.129,0.259,0.259,0.647,0.259,1.165l-0.129,2.329l0.258-0.129v-0.13l0.518-0.388v-0.129
		l0.518-0.389h0.129l0.518-0.388v-0.13l0.517-0.258h0.13l0.517-0.389h0.13l0.517-0.259l0,0l0.647-0.259v-0.129l0.518-0.13h0.129
		l0.518-0.258h0.13l0.517-0.13l0.13-0.129l0.518-0.13h0.129l0.518-0.129h0.129l0.518-0.129h0.129h0.518l0.129-0.129h0.518h0.129
		h0.517h0.13h0.517h0.13h0.517h0.129h0.647l0,0l0.648,0.129l0,0l0.646,0.129h0.129l0.777,0.129h0.13l0.776,0.259h0.13l0.776,0.259
		h0.129l0.777,0.259l0,0l0.129,0.129c0-0.129,0.129-0.259,0.129-0.259l6.729-7.117c0.259-0.388,1.294-0.647,1.812-0.647
		l18.504,3.106c0.518,0.13,0.906,0.259,1.165,0.646c0.259,0.259,0.518,0.648,0.518,1.165l1.036,8.67l0,0c0-0.13,0-0.259,0.129-0.259
		c0-0.258,0.129-0.387,0.258-0.646l6.729-7.117c0.258-0.259,1.293-0.647,1.811-0.518l18.375,2.977
		c1.035,0.13,1.682,1.164,1.682,2.071c0,0.259,0,0.517-0.129,0.647l-19.281,48.913l-9.705,24.328c0,0-0.388,0.518-0.388,0.647
		l-6.729,6.988c-0.258,0.389-0.518,0.518-0.905,0.518c-0.259,0.129-0.518,0.259-0.906,0.129l-19.022-3.105
		c-1.294-0.259-2.071-1.683-1.553-2.847l5.693-13.587l-1.294,1.683c-0.258,0.258-0.517,0.517-0.906,0.517
		c-0.259,0.13-0.518,0.259-0.906,0.13l-20.315-2.2c-0.907,0-1.812-1.036-1.812-1.941v-4.788l-4.141,5.176
		c-0.258,0.258-0.647,0.518-0.905,0.647c-0.259,0.129-0.647,0.129-0.907,0.129l-20.315-2.2c-0.648-0.129-1.295-0.517-1.554-1.165
		l-1.682,2.201c-0.129,0.388-0.388,0.517-0.776,0.646c-0.259,0.13-0.518,0.259-0.776,0.259h-21.61c-0.905,0-1.941-0.905-2.071-1.941
		l-3.494-45.42l-7.376,9.576l9.576,29.374c0.129,0.259,0,1.294-0.13,1.553l-4.917,9.188c-0.259,0.259-0.518,0.518-0.777,0.647
		c-0.388,0.388-1.035,0.388-1.553,0.259l-22.257-5.564C85.018,103.78,84.111,103.003,83.981,102.356z"/>
	<g>
		<linearGradient id="SVGID_1_" gradientUnits="userSpaceOnUse" x1="17.2249" y1="69.7476" x2="41.8105" y2="69.7476">
			<stop  offset="0" style="stop-color:#E8B909"/>
			<stop  offset="0.7" style="stop-color:#FFF200"/>
			<stop  offset="1" style="stop-color:#FFFFFF"/>
		</linearGradient>
		<polygon fill-rule="evenodd" clip-rule="evenodd" fill="url(#SVGID_1_)" points="16.952,68.841 21.74,62.113 22.127,62.501 
			22.516,63.018 23.033,63.536 23.422,63.924 23.81,64.441 24.328,64.831 24.716,65.218 25.233,65.605 25.622,65.995 26.139,66.254 
			26.527,66.512 27.045,66.9 27.433,67.159 27.951,67.547 28.468,67.806 28.986,68.065 29.374,68.323 29.892,68.583 30.409,68.841 
			30.797,68.97 31.315,69.229 31.704,69.359 32.221,69.618 32.609,69.747 33.127,69.877 33.515,70.006 34.033,70.136 34.42,70.136 
			34.81,70.265 35.326,70.265 35.715,70.394 36.103,70.394 36.88,70.394 37.656,70.265 38.303,70.136 38.95,70.006 39.467,69.747 
			39.985,69.488 40.503,69.229 40.891,68.841 41.15,68.454 41.538,68.065 36.621,75.053 36.362,75.441 35.974,75.829 35.585,76.087 
			35.197,76.347 34.68,76.605 34.033,76.864 33.515,76.994 32.738,77.123 32.092,77.252 31.315,77.382 30.927,77.252 30.409,77.252 
			30.021,77.123 29.632,77.123 29.116,76.994 28.727,76.864 28.339,76.735 27.821,76.605 27.433,76.476 26.916,76.347 
			26.527,76.087 26.01,75.958 25.493,75.7 25.104,75.571 24.587,75.312 24.069,75.053 23.68,74.794 23.164,74.406 22.646,74.147 
			22.257,73.889 21.74,73.5 21.222,73.111 20.833,72.724 20.317,72.465 19.928,72.076 19.41,71.559 19.022,71.17 18.634,70.783 
			18.116,70.265 17.728,69.877 17.34,69.359 		"/>
		<linearGradient id="SVGID_2_" gradientUnits="userSpaceOnUse" x1="17.2249" y1="17.6626" x2="55.3488" y2="17.6626">
			<stop  offset="0" style="stop-color:#E8B909"/>
			<stop  offset="0.7" style="stop-color:#FFF200"/>
			<stop  offset="1" style="stop-color:#FFFFFF"/>
		</linearGradient>
		<polygon fill-rule="evenodd" clip-rule="evenodd" fill="url(#SVGID_2_)" points="17.599,25.233 22.387,18.375 22.774,17.728 
			23.292,17.21 23.81,16.693 24.328,16.175 24.846,15.657 25.362,15.14 25.88,14.751 26.527,14.233 27.045,13.846 27.692,13.458 
			28.339,13.069 28.986,12.681 29.632,12.422 30.281,12.034 31.056,11.775 31.704,11.516 32.35,11.258 33.127,11.129 33.773,10.87 
			34.551,10.74 35.326,10.611 36.103,10.481 36.88,10.352 37.656,10.222 38.432,10.222 39.208,10.222 39.985,10.093 41.021,10.222 
			42.055,10.222 42.961,10.222 43.997,10.352 45.032,10.481 45.938,10.74 46.972,10.87 47.879,11.129 48.914,11.387 49.819,11.646 
			50.855,11.905 51.76,12.293 52.796,12.681 53.702,13.069 54.737,13.586 55.643,13.976 50.855,20.963 49.949,20.445 48.914,20.057 
			48.008,19.669 46.972,19.28 46.067,18.893 45.032,18.633 43.997,18.246 43.091,17.987 42.055,17.857 41.15,17.598 40.114,17.469 
			39.208,17.339 38.174,17.21 37.138,17.08 36.233,17.08 35.197,17.08 34.42,17.08 33.644,17.08 32.738,17.21 31.962,17.21 
			31.315,17.339 30.539,17.469 29.763,17.598 28.986,17.857 28.339,17.987 27.562,18.246 26.916,18.504 26.139,18.762 
			25.493,19.021 24.846,19.28 24.198,19.669 23.551,20.057 22.904,20.316 22.257,20.834 21.61,21.221 21.092,21.61 20.575,22.127 
			19.928,22.516 19.41,23.034 18.893,23.55 18.504,24.068 17.987,24.715 		"/>
		<polygon fill-rule="evenodd" clip-rule="evenodd" fill="#E8B909" points="50.855,20.963 55.643,13.976 58.361,37.268 
			53.442,44.126 		"/>
		<polygon fill-rule="evenodd" clip-rule="evenodd" fill="#E8B909" points="35.197,38.043 40.114,31.185 39.855,31.444 
			39.727,31.832 39.727,32.091 39.597,32.479 39.597,32.868 39.597,33.255 39.727,33.644 39.727,33.903 39.855,34.291 39.985,34.68 
			40.114,35.068 40.374,35.456 40.632,35.844 40.891,36.104 41.15,36.491 41.409,36.879 41.797,37.138 42.186,37.527 42.573,37.915 
			42.961,38.173 43.479,38.562 43.868,38.95 44.384,39.209 44.902,39.596 45.291,39.985 45.808,40.374 46.326,40.632 46.843,41.02 
			47.361,41.408 47.879,41.797 48.396,42.056 48.914,42.443 49.432,42.832 49.949,43.22 50.596,43.608 51.114,43.996 51.631,44.384 
			52.278,44.773 52.796,45.161 53.313,45.549 53.831,46.067 54.349,46.455 54.866,46.973 55.384,47.36 55.901,47.878 56.419,48.396 
			56.807,48.914 57.325,49.431 57.712,49.948 58.23,50.466 58.619,50.984 59.136,51.63 59.525,52.148 59.913,52.795 60.301,53.443 
			60.689,54.089 61.077,54.736 61.336,55.513 61.595,56.16 61.983,56.937 62.242,57.713 62.372,58.489 62.631,59.265 62.89,60.171 
			63.019,60.948 63.147,61.854 63.278,62.759 63.407,63.666 63.536,64.571 63.536,65.477 63.666,66.124 63.666,67.03 63.536,67.806 
			63.536,68.712 63.536,69.488 63.407,70.265 63.278,71.042 63.019,71.817 62.89,72.594 62.631,73.371 62.5,74.147 62.113,74.923 
			61.854,75.571 61.595,76.347 61.208,76.994 60.819,77.641 60.431,78.417 60.042,79.064 55.255,85.922 55.643,85.276 
			56.031,84.629 56.419,83.981 56.678,83.206 57.066,82.558 57.325,81.781 57.584,81.005 57.843,80.357 58.102,79.582 58.23,78.806 
			58.361,78.028 58.49,77.252 58.619,76.347 58.749,75.571 58.749,74.794 58.749,73.889 58.749,73.111 58.749,72.206 58.749,71.3 
			58.619,70.524 58.49,69.488 58.361,68.583 58.23,67.806 57.972,66.9 57.843,66.124 57.584,65.348 57.325,64.571 57.066,63.794 
			56.807,63.148 56.548,62.371 56.16,61.724 55.901,60.948 55.514,60.301 55.125,59.783 54.737,59.136 54.22,58.489 53.831,57.972 
			53.442,57.454 52.926,56.807 52.537,56.29 52.019,55.772 51.502,55.254 50.984,54.866 50.596,54.349 50.078,53.831 49.561,53.443 
			49.043,52.925 48.525,52.537 47.879,52.148 47.361,51.63 46.843,51.243 46.326,50.855 45.679,50.466 45.161,50.207 44.644,49.819 
			44.125,49.431 43.609,49.043 43.091,48.655 42.573,48.267 42.055,48.007 41.538,47.62 41.021,47.231 40.503,46.843 39.985,46.584 
			39.597,46.196 39.08,45.808 38.691,45.549 38.174,45.161 37.785,44.773 37.397,44.514 37.009,44.126 36.621,43.737 36.362,43.349 
			35.974,43.09 35.715,42.703 35.585,42.313 35.326,41.926 35.197,41.667 35.068,41.279 34.938,40.89 34.81,40.502 34.81,40.114 
			34.81,39.726 34.81,39.338 34.81,39.079 34.938,38.691 35.068,38.432 		"/>
		<path fill-rule="evenodd" clip-rule="evenodd" fill="#FFF200" d="M16.952,68.841c2.199,2.718,4.529,4.788,7.117,6.211
			s5.047,2.2,7.246,2.33c4.271-0.259,6.341-2.07,5.952-5.565c-0.258-1.94-2.847-4.658-7.635-7.893
			c-4.917-3.494-8.799-6.729-11.646-9.835c-2.847-2.976-4.399-7.117-4.529-12.292c-0.388-5.177,0.389-9.576,2.2-13.328
			c1.812-3.624,4.4-6.471,7.894-8.412c3.365-2.07,7.246-2.977,11.646-2.977c5.306,0,10.481,1.294,15.658,3.883l2.587,23.163
			c-4.529-5.435-9.058-8.022-13.458-8.022c-1.423,0-2.718,0.258-3.623,0.905c-0.906,0.647-1.423,1.423-1.552,2.329
			c-0.13,2.07,1.034,4.011,3.364,5.823c2.458,1.812,5.046,3.753,8.152,5.694c2.977,2.07,5.693,4.658,7.894,7.634
			c2.329,3.106,3.882,7.117,4.399,12.035c0.517,4.658-0.129,8.928-1.941,12.682c-1.682,3.881-4.529,6.858-8.153,9.058
			c-3.752,2.329-8.022,3.494-12.94,3.494c-4.53,0-9.964-1.036-15.917-3.106L16.952,68.841z"/>
		<polygon fill-rule="evenodd" clip-rule="evenodd" fill="#E8B909" points="80.1,73.111 85.018,64.053 81.653,90.582 76.735,99.639 
					"/>
		<linearGradient id="SVGID_3_" gradientUnits="userSpaceOnUse" x1="67.5474" y1="13.1343" x2="92.0463" y2="13.1343">
			<stop  offset="0" style="stop-color:#E8B909"/>
			<stop  offset="0.7" style="stop-color:#FFF200"/>
			<stop  offset="1" style="stop-color:#FFFFFF"/>
		</linearGradient>
		<polygon fill-rule="evenodd" clip-rule="evenodd" fill="url(#SVGID_3_)" points="67.289,15.14 72.206,6.082 91.875,11.129 
			86.958,20.187 		"/>
		<polygon fill-rule="evenodd" clip-rule="evenodd" fill="#E8B909" points="86.958,20.187 91.875,11.129 85.276,61.595 
			80.358,70.524 		"/>
		<linearGradient id="SVGID_4_" gradientUnits="userSpaceOnUse" x1="92.7095" y1="47.4253" x2="118.5898" y2="47.4253">
			<stop  offset="0" style="stop-color:#E8B909"/>
			<stop  offset="0.7" style="stop-color:#FFF200"/>
			<stop  offset="1" style="stop-color:#FFFFFF"/>
		</linearGradient>
		<polygon fill-rule="evenodd" clip-rule="evenodd" fill="url(#SVGID_4_)" points="92.781,49.301 97.698,40.243 118.662,45.549 
			113.744,54.607 		"/>
		<polygon fill-rule="evenodd" clip-rule="evenodd" fill="#E8B909" points="97.828,75.441 102.745,66.383 113.227,98.604 
			108.31,107.662 		"/>
		<polygon fill-rule="evenodd" clip-rule="evenodd" fill="#FFF200" points="86.052,101.969 80.229,73.111 80.1,73.111 
			76.735,99.639 57.066,94.722 67.289,15.14 86.958,20.187 80.358,70.524 80.617,70.653 92.781,49.301 113.744,54.607 
			97.828,75.441 108.31,107.662 		"/>
		<linearGradient id="SVGID_5_" gradientUnits="userSpaceOnUse" x1="144.8296" y1="45.5493" x2="171.0981" y2="45.5493">
			<stop  offset="0" style="stop-color:#E8B909"/>
			<stop  offset="0.7" style="stop-color:#FFF200"/>
			<stop  offset="1" style="stop-color:#FFFFFF"/>
		</linearGradient>
		<polygon fill-rule="evenodd" clip-rule="evenodd" fill="url(#SVGID_5_)" points="145.06,48.137 151.012,40.761 171.328,42.961 
			165.375,50.337 		"/>
		<polygon fill-rule="evenodd" clip-rule="evenodd" fill="#E8B909" points="165.375,50.337 171.328,42.961 170.811,53.054 
			164.858,60.43 		"/>
		<polygon fill-rule="evenodd" clip-rule="evenodd" fill="#E8B909" points="168.092,54.995 174.045,47.62 174.434,47.102 
			174.951,46.714 175.339,46.196 175.857,45.808 176.374,45.549 176.892,45.161 177.41,44.902 177.928,44.644 178.445,44.384 
			178.963,44.126 179.48,43.996 180.127,43.867 180.646,43.608 181.162,43.608 181.81,43.479 182.327,43.349 182.845,43.349 
			183.492,43.349 184.009,43.349 184.656,43.349 185.303,43.349 185.821,43.479 186.468,43.479 187.245,43.737 188.15,43.867 
			188.927,44.126 189.573,44.384 190.351,44.644 190.997,45.031 191.644,45.419 192.291,45.808 192.938,46.196 193.585,46.714 
			194.103,47.231 194.621,47.749 195.138,48.396 195.526,49.043 196.044,49.69 196.432,50.337 196.82,51.113 197.079,51.761 
			197.467,52.537 197.726,53.313 198.114,54.219 198.373,54.995 198.502,55.901 198.761,56.678 198.891,57.583 199.149,58.489 
			199.278,59.396 199.278,60.43 199.409,61.335 199.538,62.371 199.538,63.407 199.538,64.441 199.538,100.286 193.585,107.662 
			193.585,71.688 193.585,70.653 193.585,69.618 193.456,68.583 193.326,67.677 193.326,66.642 193.067,65.865 192.938,64.959 
			192.809,64.053 192.549,63.277 192.291,62.371 192.032,61.595 191.774,60.819 191.515,60.042 191.126,59.265 190.868,58.489 
			190.479,57.713 189.961,57.065 189.573,56.418 189.056,55.772 188.668,55.254 188.15,54.607 187.503,54.089 186.986,53.702 
			186.339,53.184 185.691,52.795 185.044,52.408 184.397,52.019 183.621,51.761 182.845,51.502 182.069,51.243 181.292,51.113 
			180.515,50.855 179.869,50.855 179.221,50.725 178.704,50.725 178.057,50.725 177.54,50.725 176.892,50.725 176.374,50.725 
			175.727,50.855 175.21,50.984 174.692,51.113 174.045,51.243 173.527,51.372 173.011,51.63 172.493,51.761 171.975,52.019 
			171.457,52.278 170.939,52.537 170.422,52.925 169.905,53.313 169.387,53.702 168.999,54.089 168.481,54.478 		"/>
		<polygon fill-rule="evenodd" clip-rule="evenodd" fill="#E8B909" points="166.799,70.653 172.751,63.407 172.493,63.794 
			172.234,64.182 171.975,64.7 171.846,65.348 171.587,65.995 171.587,66.642 171.457,67.418 171.457,68.195 171.328,69.101 
			171.328,97.181 165.375,104.556 165.375,76.476 165.375,75.571 165.505,74.794 165.505,74.018 165.634,73.241 165.763,72.594 
			166.022,72.076 166.281,71.559 166.41,71.042 		"/>
		<path fill-rule="evenodd" clip-rule="evenodd" fill="#FFF200" d="M145.06,102.356V48.137l20.316,2.2l-0.518,10.093l0.129,0.259
			c1.423-4.14,3.624-6.858,6.47-8.411c2.718-1.423,5.824-1.941,9.058-1.423c4.529,0.775,7.764,3.105,9.964,6.858
			c2.07,3.882,3.105,8.411,3.105,13.975v35.974l-20.316-2.2V76.735c0-4.4-1.165-6.858-3.623-7.117
			c-2.847-0.389-4.271,1.941-4.271,6.858v28.08L145.06,102.356z"/>
		<linearGradient id="SVGID_6_" gradientUnits="userSpaceOnUse" x1="191.5576" y1="41.667" x2="216.791" y2="41.667">
			<stop  offset="0" style="stop-color:#E8B909"/>
			<stop  offset="0.7" style="stop-color:#FFF200"/>
			<stop  offset="1" style="stop-color:#FFFFFF"/>
		</linearGradient>
		<polygon fill-rule="evenodd" clip-rule="evenodd" fill="url(#SVGID_6_)" points="192.162,43.737 198.761,36.62 217.395,39.596 
			210.666,46.714 		"/>
		<polygon fill-rule="evenodd" clip-rule="evenodd" fill="#E8B909" points="210.666,46.714 217.395,39.596 220.759,70.653 
			214.03,77.77 		"/>
		<linearGradient id="SVGID_7_" gradientUnits="userSpaceOnUse" x1="222.1108" y1="46.6489" x2="247.1476" y2="46.6489">
			<stop  offset="0" style="stop-color:#E8B909"/>
			<stop  offset="0.7" style="stop-color:#FFF200"/>
			<stop  offset="1" style="stop-color:#FFFFFF"/>
		</linearGradient>
		<polygon fill-rule="evenodd" clip-rule="evenodd" fill="url(#SVGID_7_)" points="222.312,48.655 228.912,41.538 247.287,44.644 
			240.687,51.761 		"/>
		<polygon fill-rule="evenodd" clip-rule="evenodd" fill="#E8B909" points="240.687,51.761 247.287,44.644 228.005,93.428 
			221.406,100.545 		"/>
		<polygon fill-rule="evenodd" clip-rule="evenodd" fill="#E8B909" points="221.406,100.545 228.005,93.428 218.3,117.755 
			211.701,124.872 		"/>
		<polygon fill-rule="evenodd" clip-rule="evenodd" fill="#FFF200" points="211.701,124.872 192.549,121.637 203.031,97.181 
			192.162,43.737 210.666,46.714 214.03,77.77 214.29,77.77 222.312,48.655 240.687,51.761 221.406,100.545 		"/>
		<linearGradient id="SVGID_8_" gradientUnits="userSpaceOnUse" x1="114.2759" y1="49.3022" x2="140.2824" y2="49.3022">
			<stop  offset="0" style="stop-color:#E8B909"/>
			<stop  offset="0.7" style="stop-color:#FFF200"/>
			<stop  offset="1" style="stop-color:#FFFFFF"/>
		</linearGradient>
		<polygon fill-rule="evenodd" clip-rule="evenodd" fill="url(#SVGID_8_)" points="114.52,52.278 118.791,46.326 140.401,46.326 
			136.131,52.278 		"/>
		<polygon fill-rule="evenodd" clip-rule="evenodd" fill="#E8B909" points="136.131,52.278 140.401,46.326 144.413,98.345 
			140.143,104.297 		"/>
		<polygon fill-rule="evenodd" clip-rule="evenodd" fill="#FFF200" points="140.143,104.297 118.532,104.297 114.52,52.278 
			136.131,52.278 		"/>
		<radialGradient id="SVGID_9_" cx="123.2627" cy="27.6196" r="25.1124" gradientUnits="userSpaceOnUse">
			<stop  offset="0" style="stop-color:#FFFFFF"/>
			<stop  offset="0.3" style="stop-color:#FFF200"/>
			<stop  offset="1" style="stop-color:#E8B909"/>
		</radialGradient>
		<path fill-rule="evenodd" clip-rule="evenodd" fill="url(#SVGID_9_)" d="M126.425,45.678c8.023,0,14.623-6.599,14.623-14.752
			c0-8.151-6.599-14.751-14.623-14.751c-8.152,0-14.881,6.6-14.881,14.751C111.544,39.079,118.273,45.678,126.425,45.678z"/>
	</g>
</g>
</svg>
