<?xml version="1.0" encoding="utf-8"?>
<!-- Generator: Adobe Illustrator 16.0.0, SVG Export Plug-In . SVG Version: 6.00 Build 0)  -->
<!DOCTYPE svg PUBLIC "-//W3C//DTD SVG 1.1//EN" "http://www.w3.org/Graphics/SVG/1.1/DTD/svg11.dtd">
<svg version="1.1" id="Layer_1" xmlns="http://www.w3.org/2000/svg" xmlns:xlink="http://www.w3.org/1999/xlink" x="0px" y="0px"
	 width="175.75px" height="73.522px" viewBox="8.503 59.623 175.75 73.522" enable-background="new 8.503 59.623 175.75 73.522"
	 xml:space="preserve">
<g>
	<path fill="#00944F" d="M92.187,81.795c-0.331,1.079-0.367,5.337,1.881,6.792c2.26,1.508,7.958-1.855,7.312-4.066
		C100.574,81.769,92.455,80.728,92.187,81.795L92.187,81.795z"/>
	<path fill="#00944F" d="M136.392,88.039c1.752,4.92,5.938,6.419,6.836,5.955c1.004-0.605,1.059-1.783-0.723-6.624
		C140.83,82.815,134.815,83.613,136.392,88.039L136.392,88.039z"/>
	<path fill="#00944F" d="M182.463,83.557l0.007-0.003l0.012,0.026v0.018c0.783,1.794,1.297,3.566,1.56,5.267
		c0.504,3.271,0.099,6.392-1.117,9.049c-1.312,2.858-3.515,5.112-6.509,6.419c-1.098,0.479-2.268,0.82-3.501,1.012
		c-2.771,0.426-5.665,0.073-8.461-0.9c-1.813,4.143-4.952,7.502-9.22,9.513c-0.834,0.394-1.698,0.729-2.588,1.008
		c-0.896,0.279-1.821,0.503-2.776,0.666l-0.011,0.002c-6.785,1.16-13.981-0.774-20.049-4.79c-0.203-0.133-0.404-0.271-0.604-0.408
		c-0.138,0.31-0.276,0.614-0.423,0.916c-0.229,0.469-0.447,0.896-0.658,1.281h-0.001l-0.005,0.01
		c-3.008,5.478-7.807,10.004-14.065,12.799c-1.211,0.541-2.465,1.013-3.757,1.41c-1.27,0.39-2.618,0.717-4.045,0.978l-0.01,0.002
		c-9.983,1.813-20.214-0.537-28.629-5.728c-1.528-0.943-2.987-1.972-4.363-3.074l-0.146,0.215l0,0l-0.002,0.004
		c-3.465,4.775-8.494,8.727-14.678,11.184c-1.24,0.492-2.469,0.911-3.677,1.25c-1.282,0.358-2.586,0.654-3.908,0.881l-0.011,0.002
		c-0.692,0.119-1.327,0.213-1.901,0.283c-9.486,1.163-18.676-1.137-25.869-5.814c-7.364-4.791-12.658-12.074-14.14-20.74
		c-0.087-0.507-0.155-0.961-0.204-1.357c-0.801-6.541,0.733-12.721,3.964-17.969h0.018c0.643-1.045,1.325-2.02,2.039-2.919
		c0.72-0.906,1.516-1.795,2.383-2.66l-0.009-0.009l0.01-0.01h0.018c4.144-4.132,9.549-7.228,15.709-8.857
		c1.172-0.31,2.388-0.569,3.641-0.772c1.257-0.205,2.524-0.351,3.793-0.434l0.029-0.002c7.108-0.459,13.995,1.04,19.896,3.981
		c0.481,0.24,0.958,0.491,1.426,0.75c0.467-0.895,0.978-1.768,1.536-2.612c0.341-0.518,0.683-1.003,1.023-1.456
		c0.397-0.528,0.77-0.995,1.115-1.4l0,0l0.004-0.006c3.949-4.624,9.341-8.021,15.677-9.723c1.143-0.307,2.393-0.567,3.747-0.776
		c1.307-0.202,2.614-0.336,3.917-0.397h0.018l0.04-0.001c9.899-0.456,19.774,3.051,27.532,9.067
		c1.271,0.985,2.479,2.034,3.623,3.139c2.221-2.556,5.123-4.487,8.562-5.6c0.843-0.273,1.707-0.495,2.591-0.662
		c0.891-0.168,1.805-0.285,2.735-0.346l0.028-0.002c5.996-0.387,12.188,1.539,17.514,5.035v0.018
		c0.695,0.458,1.346,0.913,1.947,1.364c1.02-0.791,2.175-1.435,3.451-1.91c0.664-0.247,1.299-0.437,1.896-0.567
		c0.637-0.139,1.298-0.236,1.984-0.292l0.022-0.001c6.142-0.483,12.853,2.76,17.511,7.938c0.894,0.991,1.711,2.05,2.438,3.16
		C181.26,81.096,181.906,82.286,182.463,83.557L182.463,83.557z"/>
	<path fill="#FFFFFF" d="M101.11,71.246c-7.494-1.536-15.144-1.146-16.737,0.621c-1.625,1.765-0.53,11.924,1.752,21.871
		c2.373,10.333,5.996,20.295,8.898,19.446c5.729-1.736,2.253-8.406,5.582-16.203c1.627-3.792,6.787-5.155,11.074-6.789
		c4.18-1.592,7.543-3.445,6.018-8.097C115.755,76.113,108.437,72.746,101.11,71.246L101.11,71.246z M97.969,85.105
		c-2.248-1.454-2.209-5.713-1.879-6.792c0.268-1.067,8.388-0.026,9.192,2.725C105.931,83.249,100.229,86.614,97.969,85.105
		L97.969,85.105z"/>
	<path fill="#FFFFFF" d="M58.729,94.384c-4.831-1.631-9.59-2.696-9.897-4.703c-0.331-1.965,3.703-2.655,7.577-3.279
		c3.81-0.615,7.469-1.169,6.748-2.845c-0.74-1.639-8.737-3.123-17.008-3.138c-8.524-0.016-17.469,1.526-18.804,6.101
		c-2.038,6.909,3.836,10.629,10.369,13.109c6.456,2.451,13.461,3.655,14.388,5.853c0.908,2.242-2.979,4.1-6.947,5.768
		c-4.05,1.704-8.181,3.212-7.263,4.646c1.992,3.184,10.765,1.965,18.519-1.166c7.459-3.016,13.904-7.769,12.914-12.207
		C68.384,98.174,63.511,95.998,58.729,94.384L58.729,94.384z"/>
	<path fill="#FFFFFF" d="M153.657,78.502c-1.566-4.067-8.176-5.599-14.182-5.105c-6.188,0.507-11.844,3.172-10.379,7.508
		c2.998,8.889,19.229,22.029,23.987,20.912c3.267-0.738,4.196-4.58,3.903-9.253C156.703,87.998,155.248,82.631,153.657,78.502
		L153.657,78.502z M147.131,90.513c-0.899,0.463-5.085-1.035-6.837-5.956c-1.575-4.426,4.438-5.223,6.114-0.669
		C148.188,88.729,148.134,89.907,147.131,90.513L147.131,90.513z"/>
	<path fill="#FFFFFF" d="M173.632,82.254c-0.803-2.742,2.025-7.053-0.062-8.313c-2.12-1.262-3.936,4.455-5.913,4.684
		c-2,0.231-7.791-4.522-8.401-3.383c-0.591,1.147,4.066,4.362,7.148,8.318c1.505,1.908-1.365,8.507-0.004,9.351
		c2.654,1.665,1.822-3.367,5.324-4.588c3.411-1.162,9.114,4.143,9.909,2.478C182.429,89.126,174.354,84.697,173.632,82.254
		L173.632,82.254z"/>
	<path fill="#FFFFFF" d="M176.132,97.306c-3.5,0.538-7.365-0.65-10.732-2.977c-0.185,1.687-0.594,3.287-1.23,4.753
		c-1.896,4.374-5.759,7.603-11.184,8.528c-7.771,1.33-16.354-2.375-22.254-8.801c-0.448,2.889-1.371,5.631-2.744,8.133
		c-3.527,6.424-9.994,11.311-18.652,12.883c-12.271,2.229-25.024-2.689-33.333-11.594c-0.716,1.689-1.627,3.312-2.729,4.83
		c-4.133,5.695-10.885,10.035-19.32,11.479c-17.843,3.051-34.825-7.842-36.765-23.65c-0.929-7.58,1.913-14.588,7.09-19.75
		c4.978-4.965,12.107-8.209,20.218-8.734c8.724-0.564,17.065,2.215,23.224,7.114c0.963-3.547,2.667-6.751,4.981-9.459
		c4.659-5.456,11.738-8.91,20.106-9.295c12.227-0.563,24.463,5.727,31.695,15.371c0.377-1.07,0.856-2.079,1.442-3.007
		c2.459-3.895,6.672-6.422,12.024-6.768c6.917-0.447,14.28,2.909,19.661,8.362c1.301-2.672,3.827-4.448,7.229-4.715
		c6.547-0.515,14.181,4.765,17.312,11.943C185.388,89.33,182.815,96.276,176.132,97.306L176.132,97.306z"/>
	<path fill="#EB2E2E" d="M67.596,79.961c0.037-0.149,0.084-0.293,0.124-0.44c-6.159-4.899-14.5-7.678-23.224-7.114
		c-8.11,0.524-15.24,3.769-20.218,8.734c-5.178,5.161-8.019,12.169-7.09,19.75c1.939,15.809,18.921,26.7,36.765,23.649
		c8.435-1.442,15.187-5.782,19.32-11.479c1.102-1.519,2.013-3.14,2.729-4.83c-4.151-4.446-7.199-9.888-8.512-15.937
		C66.544,87.939,66.64,83.763,67.596,79.961L67.596,79.961z M56.411,114.728c-7.754,3.131-16.527,4.351-18.519,1.166
		c-0.918-1.434,3.212-2.94,7.263-4.646c3.968-1.668,7.855-3.524,6.947-5.767c-0.927-2.197-7.933-3.401-14.388-5.854
		c-6.533-2.48-12.407-6.201-10.369-13.109c1.335-4.575,10.279-6.117,18.804-6.101c8.271,0.016,16.269,1.5,17.008,3.138
		c0.721,1.676-2.938,2.23-6.748,2.845c-3.874,0.625-7.908,1.314-7.577,3.279c0.308,2.007,5.066,3.072,9.897,4.703
		c4.782,1.614,9.656,3.79,10.596,8.136C70.314,106.96,63.87,111.713,56.411,114.728L56.411,114.728z"/>
	<path fill="#EB2E2E" d="M96.09,78.313c-0.331,1.079-0.369,5.337,1.879,6.792c2.261,1.509,7.962-1.856,7.313-4.066
		C104.478,78.287,96.357,77.246,96.09,78.313L96.09,78.313z"/>
	<path fill="#EB2E2E" d="M124.502,76.137c-7.229-9.645-19.468-15.934-31.695-15.371c-8.368,0.385-15.448,3.84-20.106,9.295
		c-2.313,2.708-4.018,5.912-4.981,9.459c4.729,3.76,8.171,8.769,9.508,14.478c1.154,4.929,0.645,9.826-1.227,14.233
		c8.309,8.903,21.061,13.822,33.333,11.594c8.658-1.572,15.125-6.459,18.651-12.883c1.373-2.502,2.297-5.244,2.744-8.133
		c-2.688-2.927-4.817-6.418-6.062-10.257C123.187,83.99,123.243,79.704,124.502,76.137L124.502,76.137z M111.681,90.192
		c-4.287,1.633-9.447,2.996-11.074,6.788c-3.328,7.797,0.146,14.468-5.582,16.205c-2.902,0.848-6.525-9.115-8.898-19.448
		c-2.283-9.947-3.377-20.106-1.752-21.871c1.594-1.767,9.243-2.156,16.737-0.621c7.326,1.5,14.645,4.868,16.587,10.85
		C119.224,86.747,115.86,88.6,111.681,90.192L111.681,90.192z"/>
	<path fill="#EB2E2E" d="M77.228,93.998c-1.337-5.708-4.78-10.718-9.508-14.478c-0.04,0.147-0.087,0.291-0.124,0.44
		c-0.956,3.802-1.051,7.978-0.106,12.333c1.312,6.049,4.36,11.49,8.512,15.937C77.873,103.824,78.382,98.927,77.228,93.998
		L77.228,93.998z"/>
	<path fill="#EB2E2E" d="M140.294,84.557c1.752,4.92,5.938,6.419,6.837,5.956c1.003-0.606,1.058-1.784-0.723-6.625
		C144.731,79.334,138.719,80.131,140.294,84.557L140.294,84.557z"/>
	<path fill="#EB2E2E" d="M157.747,84.755c-1.489-3.832-1.409-7.374-0.116-10.031c-5.381-5.453-12.743-8.809-19.661-8.362
		c-5.354,0.346-9.564,2.873-12.023,6.768c-0.586,0.928-1.066,1.937-1.443,3.007c2.15,2.869,3.861,6.033,4.992,9.404
		c1.523,4.546,1.889,9.062,1.236,13.271c5.9,6.426,14.483,10.129,22.254,8.801c5.425-0.928,9.285-4.155,11.184-8.529
		c0.637-1.467,1.047-3.066,1.23-4.753C162.095,92.047,159.271,88.675,157.747,84.755L157.747,84.755z M153.085,101.815
		c-4.759,1.117-20.988-12.022-23.988-20.912c-1.464-4.336,4.19-7,10.379-7.508c6.008-0.494,12.615,1.039,14.183,5.105
		c1.591,4.129,3.046,9.496,3.331,14.062C157.281,97.237,156.351,101.078,153.085,101.815L153.085,101.815z"/>
	<path fill="#EB2E2E" d="M129.494,85.541c-1.132-3.371-2.843-6.535-4.992-9.404c-1.259,3.566-1.315,7.853,0.166,12.416
		c1.244,3.838,3.375,7.331,6.062,10.257C131.383,94.603,131.019,90.087,129.494,85.541L129.494,85.541z"/>
	<path fill="#EB2E2E" d="M164.858,70.009c-3.4,0.267-5.928,2.043-7.229,4.715c2.637,2.674,4.801,5.849,6.195,9.334
		c1.428,3.568,1.916,7.08,1.572,10.27c3.367,2.326,7.232,3.515,10.732,2.978c6.684-1.03,9.256-7.977,6.038-15.354
		C179.039,74.774,171.406,69.494,164.858,70.009L164.858,70.009z M181.633,90.8c-0.795,1.665-6.498-3.64-9.909-2.478
		c-3.502,1.221-2.67,6.253-5.324,4.588c-1.361-0.844,1.509-7.443,0.004-9.351c-3.082-3.956-7.739-7.171-7.148-8.318
		c0.61-1.14,6.401,3.614,8.401,3.383c1.979-0.229,3.793-5.946,5.913-4.684c2.089,1.261-0.739,5.572,0.062,8.313
		C174.354,84.697,182.429,89.126,181.633,90.8L181.633,90.8z"/>
	<path fill="#EB2E2E" d="M163.826,84.059c-1.396-3.485-3.56-6.66-6.195-9.334c-1.293,2.657-1.373,6.199,0.116,10.031
		c1.521,3.919,4.348,7.292,7.65,9.573C165.742,91.138,165.254,87.627,163.826,84.059L163.826,84.059z"/>
</g>
</svg>
