<?xml version="1.0" encoding="utf-8"?>
<!-- Generator: Adobe Illustrator 16.0.0, SVG Export Plug-In . SVG Version: 6.00 Build 0)  -->
<!DOCTYPE svg PUBLIC "-//W3C//DTD SVG 1.1//EN" "http://www.w3.org/Graphics/SVG/1.1/DTD/svg11.dtd">
<svg version="1.1" id="Layer_1" xmlns="http://www.w3.org/2000/svg" xmlns:xlink="http://www.w3.org/1999/xlink" x="0px" y="0px"
	 width="202.663px" height="223.469px" viewBox="158.492 0 202.663 223.469" enable-background="new 158.492 0 202.663 223.469"
	 xml:space="preserve">
<g>
	<path fill="#FFF200" d="M358.944,35.819c-3.297-5.208-9.457-8.712-16.898-9.615c-9.447-1.146-16.812,1.832-21.576,5.643
		c-1.676-5.251-4.027-10.842-7.375-15.86C306.514,6.116,300.583,0,291.368,0c-9.438,0-19.484,12.589-22.525,19.012
		c-2.762,5.83-3.027,11.015-0.834,14.823c-1.51,0.636-2.926,1.333-4.16,2.115c-1.164-1.156-2.566-2.075-4.283-2.456
		c-4.544-1.008-9.336,1.465-11.396,5.882c-0.823,1.768-1.709,3.438-2.543,4.88c0.615-3.685,0.959-8.026,0.959-13.203
		c0-11.146,0-25.019-10.438-25.019c-3.595,0-6.798,1.922-9.037,5.146c-0.27-0.129-0.408-0.158-0.749-0.35l-0.48-0.27
		c-5.835-3.29-12.446-7.016-25.655-7.016c-15.921,0-32.843,11.387-32.843,32.487c0,14.348,8.786,23.607,17.012,29.415
		c-15.172,2.952-25.903,14.99-25.903,30.333c0,12.822,6.222,26.129,18.07,34.436l-4.681-0.331l0.774,8.087
		c1.062,11.145-0.723,23.193-2.613,35.948c-2.087,14.079-4.245,28.642-2.379,42.507l0.948,7.043l30.604-5.129
		c10.634-1.776,17.672-4.17,22.15-7.533c0.241-0.178,0.488-0.394,0.735-0.598l0.379,2.684c0,0,27.553-4.914,29.219-5.211
		c0.877-0.154,22.311-3.949,29.387-5.2l30.754-5.4l25.268-4.414l-0.666-6.392c-0.145-1.377-0.219-2.818-0.219-4.354
		c0-2.745,0.232-5.792,0.703-9.31c0.086-0.644,0.127-1.257,0.127-1.84c0-2.037-0.527-3.572-1.172-4.881
		c2.043-2.408,2.959-4.916,3.324-7.044c0.018-0.107,0.607-4.155,0.607-4.155c0.113-0.697,0.168-1.381,0.168-2.048
		c0-5.151-3.295-9.323-8.783-10.844c-2.002-0.595-4.605-0.91-7.848-0.967c2.916-5.538,4.154-12.435,4.812-19.616l-0.486,1.965
		l0.652-2.664c1.213-23.049,11.48-45.793,14.854-53.265c4.287-9.495,6.404-12.276,7.193-13.112c3.023-0.42,8.156-1.742,10.295-8.162
		c0.326-0.977,0.486-2.015,0.486-3.083C361.155,40.579,360.401,38.119,358.944,35.819z M306.819,96.079
		c-2.686,8.798-4.912,11.649-9.376,11.901c-3.217,0.181-4.448-1.1-7.54-4.83c-1.059-1.278-2.252-2.708-3.669-4.072
		c10.192-1.112,17.64-7.153,22.14-15.09C307.971,87.11,306.915,95.321,306.819,96.079z M268.624,104.328
		c-0.23-3.75-0.261-7.226-0.324-10.743c1.334,1.3,2.857,2.311,4.465,3.178l-0.496,0.702c-1.576,2.227-2.768,4.763-3.582,7.513
		C268.672,104.757,268.635,104.551,268.624,104.328z M215.75,91.869c0,1.986,0,6.633-9.123,6.633c-1.464,0-8.768-0.215-8.768-4.5
		c0-0.786,0.299-1.187,0.561-1.601c3.149,3.706,7.233,5.531,11.052,4.668c2.398-0.543,4.961-2.358,6.167-5.671
		C215.655,91.548,215.75,91.727,215.75,91.869z M234.695,127.896c-1.065,3.255-2.083,6.196-2.933,8.586
		c-0.955-1.521-2.224-2.816-3.754-3.877C230.426,131.216,232.658,129.642,234.695,127.896z M230.065,55.729
		c-2.905-2.438-5.644-4.398-7.837-5.699c-9.389-5.563-16.842-12.562-18.17-15.188c0.35-1.101,1.847-2.598,5.059-2.598
		c5.142,0,12.949,4.077,14.931,9.143l2.351,6.617c0.865,2.613,1.878,5.583,3.835,7.577
		C230.173,55.629,230.124,55.681,230.065,55.729z"/>
	
		<linearGradient id="SVGID_1_" gradientUnits="userSpaceOnUse" x1="205.8232" y1="364.751" x2="205.8232" y2="588.2197" gradientTransform="matrix(1 0 0 -1 54 588.2207)">
		<stop  offset="0.1854" style="stop-color:#F37021"/>
		<stop  offset="0.7416" style="stop-color:#FFCB05"/>
	</linearGradient>
	<path fill="url(#SVGID_1_)" d="M358.944,35.819c-3.297-5.208-9.457-8.712-16.898-9.615c-9.447-1.146-16.812,1.832-21.576,5.643
		c-1.676-5.251-4.027-10.842-7.375-15.86C306.514,6.116,300.583,0,291.368,0c-9.438,0-19.484,12.589-22.525,19.012
		c-2.762,5.83-3.027,11.015-0.834,14.823c-1.51,0.636-2.926,1.333-4.16,2.115c-1.164-1.156-2.566-2.075-4.283-2.456
		c-4.544-1.008-9.336,1.465-11.396,5.882c-0.823,1.768-1.709,3.438-2.543,4.88c0.615-3.685,0.959-8.026,0.959-13.203
		c0-11.146,0-25.019-10.438-25.019c-3.595,0-6.798,1.922-9.037,5.146c-0.27-0.129-0.408-0.158-0.749-0.35l-0.48-0.27
		c-5.835-3.29-12.446-7.016-25.655-7.016c-15.921,0-32.843,11.387-32.843,32.487c0,14.348,8.786,23.607,17.012,29.415
		c-15.172,2.952-25.903,14.99-25.903,30.333c0,12.822,6.222,26.129,18.07,34.436l-4.681-0.331l0.774,8.087
		c1.062,11.145-0.723,23.193-2.613,35.948c-2.087,14.079-4.245,28.642-2.379,42.507l0.948,7.043l30.604-5.129
		c10.634-1.776,17.672-4.17,22.15-7.533c0.241-0.178,0.488-0.394,0.735-0.598l0.379,2.684c0,0,27.553-4.914,29.219-5.211
		c0.877-0.154,22.311-3.949,29.387-5.2l30.754-5.4l25.268-4.414l-0.666-6.392c-0.145-1.377-0.219-2.818-0.219-4.354
		c0-2.745,0.232-5.792,0.703-9.31c0.086-0.644,0.127-1.257,0.127-1.84c0-2.037-0.527-3.572-1.172-4.881
		c2.043-2.408,2.959-4.916,3.324-7.044c0.018-0.107,0.607-4.155,0.607-4.155c0.113-0.697,0.168-1.381,0.168-2.048
		c0-5.151-3.295-9.323-8.783-10.844c-2.002-0.595-4.605-0.91-7.848-0.967c2.916-5.538,4.154-12.435,4.812-19.616l-0.486,1.965
		l0.652-2.664c1.213-23.049,11.48-45.793,14.854-53.265c4.287-9.495,6.404-12.276,7.193-13.112c3.023-0.42,8.156-1.742,10.295-8.162
		c0.326-0.977,0.486-2.015,0.486-3.083C361.155,40.579,360.401,38.119,358.944,35.819z M306.819,96.079
		c-2.686,8.798-4.912,11.649-9.376,11.901c-3.217,0.181-4.448-1.1-7.54-4.83c-1.059-1.278-2.252-2.708-3.669-4.072
		c10.192-1.112,17.64-7.153,22.14-15.09C307.971,87.11,306.915,95.321,306.819,96.079z M268.624,104.328
		c-0.23-3.75-0.261-7.226-0.324-10.743c1.334,1.3,2.857,2.311,4.465,3.178l-0.496,0.702c-1.576,2.227-2.768,4.763-3.582,7.513
		C268.672,104.757,268.635,104.551,268.624,104.328z M215.75,91.869c0,1.986,0,6.633-9.123,6.633c-1.464,0-8.768-0.215-8.768-4.5
		c0-0.786,0.299-1.187,0.561-1.601c3.149,3.706,7.233,5.531,11.052,4.668c2.398-0.543,4.961-2.358,6.167-5.671
		C215.655,91.548,215.75,91.727,215.75,91.869z M234.695,127.896c-1.065,3.255-2.083,6.196-2.933,8.586
		c-0.955-1.521-2.224-2.816-3.754-3.877C230.426,131.216,232.658,129.642,234.695,127.896z M230.065,55.729
		c-2.905-2.438-5.644-4.398-7.837-5.699c-9.389-5.563-16.842-12.562-18.17-15.188c0.35-1.101,1.847-2.598,5.059-2.598
		c5.142,0,12.949,4.077,14.931,9.143l2.351,6.617c0.865,2.613,1.878,5.583,3.835,7.577
		C230.173,55.629,230.124,55.681,230.065,55.729z"/>
	<path fill="#FFD400" d="M221.501,196.399c-0.067,3.822-1.398,6.769-4.267,8.906c-3.466,2.602-9.823,4.689-19.153,6.248
		c-7.938,1.324-15.807,2.644-23.6,3.955c-3.348-24.878,7.396-53.309,5.022-78.189c7.616,0.535,15.411,0.039,23.313-0.795
		c9.327-0.977,15.924-0.693,19.626,0.818c3.093,1.241,4.739,3.736,4.635,7.559c-0.049,1.764-0.143,3.533-0.273,5.307
		c-0.374,4.836-3.414,8.358-8.763,10.56c4.95,0.961,7.106,3.825,6.377,8.636C223.059,178.452,221.663,187.505,221.501,196.399z
		 M207.567,152.26c0.102-1.38,0.183-2.759,0.241-4.132c0.119-2.898-0.181-4.763-0.724-5.621c-0.549-0.847-1.865-1.151-3.928-0.927
		c-1.697,0.186-3.393,0.372-5.083,0.558c0.201,6.123-0.279,12.354-1.036,18.632c1.697-0.213,3.4-0.425,5.104-0.638
		c2.121-0.266,3.533-0.934,4.226-2.008C206.896,157.219,207.337,155.25,207.567,152.26z M202.199,198.722
		c0.197-8.771,1.55-17.695,2.888-26.618c0.471-3.114,0.534-5.013,0.209-5.735c-0.439-0.935-1.72-1.268-3.84-0.993
		c-1.707,0.222-3.411,0.44-5.109,0.66c-1.937,13.872-4.663,27.838-3.844,41.353c1.697-0.277,3.402-0.555,5.107-0.832
		c2.073-0.339,3.366-1.041,3.909-2.125C201.976,203.603,202.137,201.704,202.199,198.722z M275.747,196.438
		c-6.268,1.104-12.529,2.215-18.795,3.326c-1.014-7.728-0.066-15.723,1.258-23.765c-3.276,0.472-6.549,0.944-9.822,1.415
		c-1.336,8.156-2.281,16.26-1.229,24.088c-6.29,1.118-12.577,2.238-18.864,3.365c-1.697-12.034,1.253-24.707,3.323-37.258
		c0.571-3.462,2.357-6.227,5.432-8.27c4.05-2.783,10.656-4.658,19.943-5.695c15.572-1.718,23.221,0.879,22.076,7.928
		C277.174,173.302,274.342,185.155,275.747,196.438z M258.935,171.745c0.405-2.309,0.815-4.619,1.2-6.928
		c0.562-3.393,0.654-5.455,0.371-6.205c-0.375-1.105-1.678-1.527-3.881-1.27c-2.492,0.29-4.088,1.058-4.819,2.311
		c-0.433,0.782-0.88,2.919-1.466,6.422c-0.391,2.342-0.811,4.683-1.219,7.025C252.391,172.649,255.665,172.198,258.935,171.745z
		 M329.594,186.995c-6.311,1.1-12.627,2.204-18.939,3.31c-0.572-5.093-0.25-10.303,0.428-15.56c0.293-2.263,0.273-3.693-0.158-4.27
		c-0.422-0.58-1.697-0.717-3.812-0.41c-1.712,0.248-3.421,0.495-5.129,0.744c-1.171,7.176-1.995,14.308-1.195,21.224
		c-6.269,1.1-12.533,2.202-18.802,3.304c-1.741-14.262,3.312-29.437,4.55-44.102c7.944-0.905,15.893-1.814,23.838-2.723
		c9.281-1.062,15.623-1.078,18.986-0.082c2.854,0.791,4.121,2.556,3.697,5.335c-0.02,0.004-0.043,0.007-0.062,0.009
		c-0.176,1.303-0.369,2.605-0.572,3.91c-0.609,3.561-3.582,6.254-8.877,8.106c4.908,0.45,7.033,2.419,6.561,5.909
		C329.413,176.866,329.069,181.986,329.594,186.995z M313.479,160.124c0.176-1.025,0.348-2.052,0.51-3.074
		c0.34-2.163,0.25-3.551-0.217-4.17c-0.461-0.611-1.732-0.793-3.785-0.547c-1.701,0.205-3.404,0.408-5.105,0.611
		c-0.562,4.629-1.426,9.297-2.238,13.959c1.711-0.241,3.418-0.479,5.125-0.717c2.115-0.297,3.504-0.824,4.152-1.583
		C312.569,163.85,313.096,162.347,313.479,160.124z"/>
	<g>
		
			<linearGradient id="SVGID_2_" gradientUnits="userSpaceOnUse" x1="151.0259" y1="456.5186" x2="151.0259" y2="577.7939" gradientTransform="matrix(1 0 0 -1 54 588.2207)">
			<stop  offset="0.1854" style="stop-color:#812990"/>
			<stop  offset="0.7416" style="stop-color:#EC008C"/>
		</linearGradient>
		<path fill="url(#SVGID_2_)" d="M218.72,55.949c-9.603-5.691-21.695-15.65-21.695-20.628s4.623-9.958,12.092-9.958
			c7.468,0,18.136,5.335,21.338,13.516c3.202,8.179,3.557,12.09,5.335,12.09s3.912-8.889,3.912-19.915
			c0-11.025-0.709-18.139-3.556-18.139s-4.269,3.558-4.625,4.625c-0.355,1.066-2.844,2.49-8.535-0.711
			c-5.691-3.202-11.025-6.402-22.762-6.402c-11.737,0-25.961,7.823-25.961,25.606c0,17.783,17.426,26.316,24.539,29.874
			c7.113,3.558,23.829,15.65,23.829,25.963s-8.18,13.515-16.004,13.515c-7.824,0-15.648-3.202-15.648-11.382
			c0-8.179,8.889-12.092,11.379-7.824c2.491,4.269,6.758,6.044,7.113,1.778c0.356-4.267-3.556-16.359-17.781-16.359
			c-14.226,0-26.319,9.246-26.319,24.183c0,14.937,11.028,35.921,39.478,35.921c28.45,0,39.832-24.895,39.832-39.477
			S228.324,61.64,218.72,55.949z"/>
		
			<linearGradient id="SVGID_3_" gradientUnits="userSpaceOnUse" x1="259.8491" y1="442.1387" x2="259.8491" y2="581.3408" gradientTransform="matrix(1 0 0 -1 54 588.2207)">
			<stop  offset="0.1854" style="stop-color:#812990"/>
			<stop  offset="0.7416" style="stop-color:#EC008C"/>
		</linearGradient>
		<path fill="url(#SVGID_3_)" d="M341.217,33.034c-10.154-1.23-16.617,3.384-19.078,6.77c-2.461,3.386-3.078,8.616-1.539,10.154
			c1.539,1.54,8.615-2.153,10.463-0.614c1.848,1.539,1.846,5.229-1.539,12.308c-3.385,7.078-5.539,10.463-7.385,10.154
			c-1.846-0.308-3.998-12.308-4.615-20c-0.615-7.694-3.385-21.849-10.154-32.003C300.6,9.649,296.6,6.88,291.368,6.88
			c-5.23,0-13.539,9.229-16.31,15.077s-2.459,11.383,4.31,9.847c6.77-1.538,40.307,10.154,36.002,51.696
			c-0.543,5.22-1.156,9.917-1.816,14.146c-2.367,7.899-5.543,16.633-15.725,17.203c-11.058,0.624-12.576-9.798-19.945-13.41
			c-9.887,13.977,1.721,43.338,19.923,44.54c16.905,1.115,21.802-6.839,23.503-25.39c0.041-0.152,0.139-0.281,0.148-0.447
			c1.23-23.387,11.145-46.18,15.453-55.72c4.307-9.54,8.309-16.616,11.385-16.925s4.924-0.922,5.846-3.692
			S351.372,34.265,341.217,33.034z"/>
	</g>
	<path fill="#FFD400" d="M221.501,196.399c-0.067,3.822-1.398,6.769-4.267,8.906c-3.466,2.602-9.823,4.689-19.153,6.248
		c-7.938,1.324-15.807,2.644-23.6,3.955c-3.348-24.878,7.396-53.309,5.022-78.189c7.616,0.535,15.411,0.039,23.313-0.795
		c9.327-0.977,15.924-0.693,19.626,0.818c3.093,1.241,4.739,3.736,4.635,7.559c-0.049,1.764-0.143,3.533-0.273,5.307
		c-0.374,4.836-3.414,8.358-8.763,10.56c4.95,0.961,7.106,3.825,6.377,8.636C223.059,178.452,221.663,187.505,221.501,196.399z
		 M207.567,152.26c0.102-1.38,0.183-2.759,0.241-4.132c0.119-2.898-0.181-4.763-0.724-5.621c-0.549-0.847-1.865-1.151-3.928-0.927
		c-1.697,0.186-3.393,0.372-5.083,0.558c0.201,6.123-0.279,12.354-1.036,18.632c1.697-0.213,3.4-0.425,5.104-0.638
		c2.121-0.266,3.533-0.934,4.226-2.008C206.896,157.219,207.337,155.25,207.567,152.26z M202.199,198.722
		c0.197-8.771,1.55-17.695,2.888-26.618c0.471-3.114,0.534-5.013,0.209-5.735c-0.439-0.935-1.72-1.268-3.84-0.993
		c-1.707,0.222-3.411,0.44-5.109,0.66c-1.937,13.872-4.663,27.838-3.844,41.353c1.697-0.277,3.402-0.555,5.107-0.832
		c2.073-0.339,3.366-1.041,3.909-2.125C201.976,203.603,202.137,201.704,202.199,198.722z M275.747,196.438
		c-6.268,1.104-12.529,2.215-18.795,3.326c-1.014-7.728-0.066-15.723,1.258-23.765c-3.276,0.472-6.549,0.944-9.822,1.415
		c-1.336,8.156-2.281,16.26-1.229,24.088c-6.29,1.118-12.577,2.238-18.864,3.365c-1.697-12.034,1.253-24.707,3.323-37.258
		c0.571-3.462,2.357-6.227,5.432-8.27c4.05-2.783,10.656-4.658,19.943-5.695c15.572-1.718,23.221,0.879,22.076,7.928
		C277.174,173.302,274.342,185.155,275.747,196.438z M258.935,171.745c0.405-2.309,0.815-4.619,1.2-6.928
		c0.562-3.393,0.654-5.455,0.371-6.205c-0.375-1.105-1.678-1.527-3.881-1.27c-2.492,0.29-4.088,1.058-4.819,2.311
		c-0.433,0.782-0.88,2.919-1.466,6.422c-0.391,2.342-0.811,4.683-1.219,7.025C252.391,172.649,255.665,172.198,258.935,171.745z
		 M329.594,186.995c-6.311,1.1-12.627,2.204-18.939,3.31c-0.572-5.093-0.25-10.303,0.428-15.56c0.293-2.263,0.273-3.693-0.158-4.27
		c-0.422-0.58-1.697-0.717-3.812-0.41c-1.712,0.248-3.421,0.495-5.129,0.744c-1.171,7.176-1.995,14.308-1.195,21.224
		c-6.269,1.1-12.533,2.202-18.802,3.304c-1.741-14.262,3.312-29.437,4.55-44.102c7.944-0.905,15.893-1.814,23.838-2.723
		c9.281-1.062,15.623-1.078,18.986-0.082c2.854,0.791,4.121,2.556,3.697,5.335c-0.02,0.004-0.043,0.007-0.062,0.009
		c-0.176,1.303-0.369,2.605-0.572,3.91c-0.609,3.561-3.582,6.254-8.877,8.106c4.908,0.45,7.033,2.419,6.561,5.909
		C329.413,176.866,329.069,181.986,329.594,186.995z M313.479,160.124c0.176-1.025,0.348-2.052,0.51-3.074
		c0.34-2.163,0.25-3.551-0.217-4.17c-0.461-0.611-1.732-0.793-3.785-0.547c-1.701,0.205-3.404,0.408-5.105,0.611
		c-0.562,4.629-1.426,9.297-2.238,13.959c1.711-0.241,3.418-0.479,5.125-0.717c2.115-0.297,3.504-0.824,4.152-1.583
		C312.569,163.85,313.096,162.347,313.479,160.124z"/>
	
		<linearGradient id="SVGID_4_" gradientUnits="userSpaceOnUse" x1="215.9883" y1="439.8984" x2="215.9883" y2="549.9443" gradientTransform="matrix(1 0 0 -1 54 588.2207)">
		<stop  offset="0.1854" style="stop-color:#812990"/>
		<stop  offset="0.7416" style="stop-color:#EC008C"/>
	</linearGradient>
	<path fill="url(#SVGID_4_)" d="M280.461,38.276c-15.031,0-20.043,11.023-20.043,11.023s-0.668-3.339-0.668-6.68
		c0-3.339-4.045-3.126-5.348-0.335c-1.441,3.094-5.041,10.069-7.965,12.094c-2.361,1.635-7.091,4.857-8.55,5.175
		c-5.175,1.125-5.336,3.823-2.925,5.85c11.25,9.448,14.72,22.541,13.05,37.572c-1.671,15.032-11.981,41.861-11.981,41.861
		c0,1.67,1.007,4.346,8.019,3.007c7.014-1.337,13.693-2.342,18.371-0.336c4.679,2.006,10.688,0,10.688-2.671
		c0-2.674-10.018-18.371-11.354-40.086c-0.562-9.1-0.469-18.25-0.141-26.046c2.459,6.597,9.455,13.686,21.184,13.686
		c17.037,0,23.717-16.367,23.717-27.725C306.516,53.309,295.495,38.276,280.461,38.276z M286.924,72.286
		c-2.496,1.522-6.203,1.365-9.059,0.591c-3.574-0.971-4.572-3.608-4.769-7.323c-0.095-1.772,0.745-2.296-1.242-3.295
		c-1.401-0.706-3.716,0.045-4.979,0.666c-2.319,1.14-4.563,3.918-5.395,6.31c0.084-3.116,0.322-7.772,0.672-9.582l0.025-0.043
		c2.422-9.372,15.673-13,23.146-7.316C291.014,56.622,294.18,67.861,286.924,72.286z"/>
</g>
</svg>
