<?xml version="1.0" encoding="utf-8"?>
<!-- Generator: Adobe Illustrator 16.0.0, SVG Export Plug-In . SVG Version: 6.00 Build 0)  -->
<!DOCTYPE svg PUBLIC "-//W3C//DTD SVG 1.1//EN" "http://www.w3.org/Graphics/SVG/1.1/DTD/svg11.dtd">
<svg version="1.1" id="Layer_1" xmlns="http://www.w3.org/2000/svg" xmlns:xlink="http://www.w3.org/1999/xlink" x="0px" y="0px"
	 width="175.747px" height="175.748px" viewBox="8.504 8.504 175.747 175.748" enable-background="new 8.504 8.504 175.747 175.748"
	 xml:space="preserve">
<g>
	<polygon fill="#A86D0A" points="96.378,184.252 8.504,96.377 96.378,8.504 184.251,96.377 96.378,184.252 	"/>
	<polygon fill="#FFFFFF" points="181.505,96.377 96.378,181.505 11.253,96.377 96.378,11.251 181.505,96.377 	"/>
	<polygon fill="#FDB94F" points="177.175,96.377 96.378,177.175 15.581,96.377 96.378,15.581 177.175,96.377 	"/>
	<path fill="#A86D0A" d="M78.969,87.913c0,3.831-3.105,6.937-6.936,6.937c-0.75,0-1.473-0.119-2.148-0.339v-0.749
		c0.549,0.199,1.141,0.306,1.758,0.306c2.859,0,5.178-2.317,5.178-5.176c0-2.86-2.319-5.178-5.178-5.178
		c-0.232,0-0.46,0.015-0.686,0.043c-0.547,0-0.542,0.005-0.542,0.005c0.146-0.402,0.225-0.835,0.225-1.287
		c0-2.093-1.697-3.789-3.791-3.789c-2.093,0-3.789,1.696-3.789,3.789c0,0.102,0.003,0.202,0.011,0.302
		c0.675,0.421,1.26,1.007,1.688,1.744c0.276,0.473,0.468,0.974,0.579,1.482l-0.474,0.277c-0.076-0.42-0.226-0.834-0.454-1.226
		c-1.056-1.808-3.376-2.417-5.185-1.362c-1.807,1.056-2.417,3.376-1.361,5.186c0.084,0.146,0.179,0.285,0.281,0.415l-1.123,0.655
		c-0.092,0.291-0.142,0.602-0.142,0.923c0,1.695,1.375,3.07,3.07,3.07c1.694,0,3.068-1.375,3.068-3.07
		c0-0.137-0.008-0.272-0.026-0.405h1.6c0.031,0.208,0.048,0.419,0.048,0.637c0,2.271-1.841,4.11-4.111,4.11s-4.111-1.839-4.111-4.11
		c0-0.293,0.03-0.579,0.09-0.855l-0.068,0.04c-0.164-0.201-0.314-0.418-0.45-0.647c-1.413-2.422-0.596-5.532,1.826-6.946
		c1.017-0.593,2.158-0.794,3.243-0.647c0.075-2.739,2.318-4.936,5.076-4.936c2.41,0,4.427,1.678,4.947,3.931
		c0.312-0.043,0.628-0.065,0.951-0.065C75.864,80.977,78.969,84.083,78.969,87.913L78.969,87.913L78.969,87.913z M155.123,113.894
		c8.218,2.152,16.239,4.854,24.11,8.056l-7.17,13.498l1.522,19.391c-12.621-7.03-19.202-7.978-32.577-9.442
		c-1.796-0.195-3.812-0.422-5.281-1.596c-0.203-0.205-0.625-0.714-0.799-0.943c-0.562-0.846-0.824-1.729-0.812-2.563l-0.012-8.582
		c-12.121-3.271-24.472-4.787-37.728-4.787c-13.257,0-25.606,1.517-37.729,4.787v8.581c0.001,0.837-0.26,1.721-0.822,2.564
		c-0.175,0.229-0.596,0.738-0.799,0.943c-2.471,1.973-10.076,1.995-12.919,2.352c-9.632,1.209-16.42,3.941-24.938,8.688
		l1.522-19.391l-7.17-13.498c7.874-3.203,15.893-5.902,24.11-8.057v-6.051c8.801-3.927,17.885-6.824,27.164-8.783
		c0.024-0.317,0.075-0.615,0.16-0.886c1.521-4.905,1.679-9.688-5.57-11.248c0,0,5.246,0.47,7.53,4.442c0,0,1.905-1.469-0.671-9.741
		c0,0,3.194,7.092,1.636,11.613c0,0,3.467-3.141,3.869-5.826c0.04-0.457,0.027-0.72,0.027-0.72c0.021,0.235,0.01,0.476-0.027,0.72
		c-0.122,1.368-0.719,4.447-3.558,7.228c-1.216,1.192-1.737,2.63-1.846,4.1c7.918-1.58,15.978-2.488,24.124-2.78
		c-0.752-3.404-1.074-6.807-0.309-9.272c3.812-12.291,4.204-24.28-13.958-28.185c0,0,13.144,1.176,18.87,11.129
		c0,0,4.771-3.681-1.684-24.41c0,0,8.008,17.771,4.102,29.099c0,0,8.688-7.869,9.693-14.595c0.102-1.145,0.069-1.809,0.069-1.809
		c0.05,0.588,0.021,1.193-0.069,1.809c-0.307,3.425-1.805,11.142-8.914,18.109c-5.213,5.11-5.325,12.02-3.898,18.031
		c0.668-0.007,1.337-0.012,2.005-0.012c9.479,0,18.854,0.804,28.05,2.504c0.018-0.062,0.033-0.125,0.053-0.187
		c1.521-4.904,1.678-9.688-5.569-11.247c0,0,5.243,0.469,7.528,4.442c0,0,1.904-1.469-0.672-9.741c0,0,3.195,7.09,1.637,11.612
		c0,0,3.471-3.143,3.869-5.827c0.041-0.456,0.028-0.719,0.028-0.719c0.019,0.233,0.009,0.475-0.028,0.719
		c-0.121,1.366-0.717,4.446-3.558,7.229c-1.188,1.165-1.712,2.562-1.837,3.994c10.005,1.958,19.788,4.986,29.244,9.207
		L155.123,113.894L155.123,113.894L155.123,113.894z M138.493,87.914c0,3.83-3.104,6.936-6.938,6.936
		c-0.75,0-1.471-0.119-2.148-0.339v-0.749c0.55,0.199,1.143,0.306,1.76,0.306c2.859,0,5.178-2.317,5.178-5.176
		c0-2.86-2.318-5.178-5.178-5.178c-0.23,0-0.46,0.015-0.686,0.043c-0.547,0-0.541,0.005-0.541,0.005
		c0.146-0.402,0.224-0.835,0.224-1.287c0-2.093-1.697-3.789-3.79-3.789c-2.094,0-3.79,1.696-3.79,3.789
		c0,0.102,0.005,0.202,0.013,0.302c0.674,0.421,1.26,1.007,1.688,1.744c0.275,0.473,0.469,0.974,0.576,1.483l-0.471,0.276
		c-0.076-0.42-0.228-0.834-0.457-1.224c-1.056-1.808-3.375-2.417-5.183-1.362c-1.808,1.055-2.418,3.377-1.36,5.184
		c0.084,0.146,0.178,0.286,0.277,0.417l-1.121,0.654c-0.092,0.292-0.143,0.602-0.143,0.924c0,1.694,1.375,3.069,3.07,3.069
		c1.694,0,3.068-1.375,3.068-3.069c0-0.137-0.009-0.272-0.025-0.406h1.599c0.032,0.208,0.049,0.42,0.049,0.637
		c0,2.271-1.84,4.11-4.11,4.11s-4.111-1.839-4.111-4.11c0-0.293,0.031-0.579,0.088-0.854l-0.065,0.04
		c-0.164-0.201-0.315-0.419-0.448-0.648c-1.414-2.422-0.598-5.532,1.824-6.945c1.02-0.594,2.159-0.794,3.243-0.646
		c0.074-2.739,2.317-4.937,5.076-4.937c2.409,0,4.427,1.678,4.946,3.931c0.312-0.042,0.627-0.065,0.949-0.065
		C135.39,80.977,138.493,84.083,138.493,87.914L138.493,87.914L138.493,87.914z M125.278,60.979c0,9.598-7.781,17.382-17.381,17.382
		c-1.881,0-3.689-0.3-5.387-0.853v-1.875c1.375,0.497,2.858,0.768,4.406,0.768c7.166,0,12.975-5.811,12.975-12.977
		c0-7.165-5.809-12.974-12.975-12.974c-0.575,0-1.143,0.036-1.695,0.11l-1.377,0.014c0.363-1.007,0.562-2.094,0.562-3.226
		c0-5.246-4.252-9.498-9.497-9.498c-5.246,0-9.499,4.252-9.499,9.498c0,0.254,0.011,0.506,0.032,0.756
		c1.688,1.056,3.153,2.525,4.229,4.366c0.694,1.189,1.172,2.444,1.45,3.72l-1.186,0.691c-0.193-1.052-0.569-2.091-1.141-3.07
		c-2.645-4.528-8.461-6.057-12.99-3.412c-4.53,2.645-6.059,8.462-3.412,12.991c0.214,0.367,0.449,0.714,0.703,1.041l-2.812,1.642
		c-0.23,0.729-0.355,1.506-0.355,2.312c0,4.248,3.443,7.692,7.69,7.692s7.691-3.444,7.691-7.692c0-0.344-0.023-0.683-0.067-1.015
		h4.006c0.082,0.521,0.124,1.054,0.124,1.596c0,5.689-4.612,10.303-10.303,10.303c-5.689,0-10.302-4.613-10.302-10.303
		c0-0.734,0.077-1.449,0.223-2.14l-0.168,0.098c-0.41-0.504-0.786-1.046-1.125-1.625c-3.543-6.067-1.497-13.859,4.571-17.402
		c2.554-1.491,5.412-1.992,8.13-1.621c0.188-6.864,5.809-12.371,12.719-12.371c6.038,0,11.095,4.208,12.396,9.85
		c0.778-0.108,1.573-0.164,2.383-0.164C117.497,43.595,125.278,51.379,125.278,60.979L125.278,60.979L125.278,60.979z"/>
	<path fill="#A86D0A" d="M68.814,136.999c-0.054,0.118-0.164,0.343-0.333,0.673s-0.372,0.69-0.612,1.084
		c-0.241,0.392-0.497,0.738-0.769,1.041c-0.273,0.304-0.539,0.485-0.802,0.55c-0.03,0.004-0.06,0.01-0.091,0.01
		c-0.031,0.002-0.061,0.006-0.089,0.014c0.101-0.12,0.191-0.275,0.268-0.469c0.078-0.19,0.096-0.406,0.057-0.647
		c-0.057-0.263-0.164-0.517-0.318-0.765c-0.155-0.249-0.327-0.486-0.513-0.719c-0.187-0.237-0.356-0.463-0.506-0.678
		c-0.149-0.214-0.246-0.42-0.291-0.615c-0.029-0.155-0.006-0.303,0.069-0.438c0.075-0.138,0.205-0.226,0.389-0.269
		c0.213-0.035,0.392,0,0.533,0.101c0.141,0.103,0.251,0.222,0.33,0.36c0.079,0.14,0.131,0.25,0.158,0.33l0.253-0.729
		c-0.098-0.076-0.246-0.151-0.44-0.228c-0.193-0.071-0.439-0.086-0.736-0.037c-0.397,0.089-0.688,0.272-0.875,0.55
		c-0.186,0.276-0.25,0.571-0.195,0.881c0.05,0.231,0.144,0.453,0.282,0.664c0.137,0.211,0.287,0.42,0.451,0.63
		c0.169,0.207,0.324,0.43,0.465,0.666c0.139,0.234,0.24,0.496,0.3,0.779c0.059,0.328,0.013,0.609-0.14,0.842
		c-0.153,0.232-0.385,0.383-0.699,0.447c-0.381,0.066-0.726,0-1.032-0.199c-0.306-0.2-0.505-0.503-0.595-0.906
		c-0.07-0.438,0-0.801,0.215-1.092c0.214-0.29,0.489-0.492,0.829-0.607l-0.718-0.257c-0.155,0.106-0.312,0.243-0.472,0.411
		c-0.161,0.169-0.284,0.376-0.374,0.621c-0.088,0.245-0.103,0.536-0.043,0.872c0.127,0.553,0.397,0.938,0.806,1.159
		c0.412,0.219,0.844,0.287,1.3,0.199c0.173-0.035,0.338-0.096,0.497-0.183c0.158-0.084,0.303-0.187,0.435-0.308
		c0.041-0.008,0.081-0.014,0.12-0.018c0.039-0.003,0.081-0.009,0.122-0.017c0.341-0.079,0.664-0.271,0.971-0.577
		c0.305-0.309,0.581-0.657,0.826-1.048c0.245-0.392,0.448-0.752,0.608-1.081c0.158-0.331,0.262-0.559,0.311-0.68L68.814,136.999
		L68.814,136.999L68.814,136.999z"/>
	<path fill="#A86D0A" d="M71.5,138.407c-0.026,0.166-0.051,0.339-0.071,0.52c-0.02,0.182-0.025,0.324-0.012,0.43
		c0.024,0.158,0.097,0.297,0.217,0.416c0.119,0.121,0.281,0.17,0.486,0.146c0.298-0.061,0.597-0.248,0.899-0.564
		c0.302-0.317,0.586-0.684,0.85-1.097c0.264-0.413,0.488-0.795,0.672-1.144c0.183-0.35,0.305-0.586,0.365-0.709l0.048-0.315
		c-0.059,0.129-0.176,0.354-0.354,0.681c-0.177,0.323-0.386,0.676-0.628,1.052c-0.242,0.377-0.492,0.706-0.749,0.989
		c-0.254,0.283-0.492,0.448-0.709,0.494c-0.095,0.012-0.164-0.015-0.208-0.08c-0.046-0.063-0.075-0.148-0.09-0.254
		c-0.011-0.082-0.008-0.224,0.007-0.421c0.015-0.196,0.037-0.411,0.066-0.643c0.029-0.231,0.06-0.438,0.089-0.623l0.458-3.009
		l-0.935,0.307c-0.01,0.09-0.053,0.314-0.128,0.68c-0.077,0.365-0.184,0.797-0.323,1.297c-0.14,0.498-0.307,0.993-0.504,1.486
		c-0.197,0.494-0.423,0.913-0.675,1.26c-0.251,0.346-0.528,0.551-0.831,0.608c-0.145,0.017-0.259-0.019-0.341-0.101
		c-0.085-0.082-0.132-0.168-0.146-0.252c-0.012-0.099-0.009-0.23,0.009-0.401c0.018-0.17,0.038-0.331,0.061-0.482l0.554-3.886
		l-1.787,0.441l-0.032,0.188l0.227-0.036c0.198-0.033,0.348-0.023,0.452,0.026c0.104,0.052,0.168,0.161,0.195,0.326
		c0.016,0.118,0.014,0.276-0.002,0.471c-0.017,0.195-0.039,0.388-0.067,0.579s-0.048,0.34-0.063,0.445l-0.17,1.173
		c-0.029,0.19-0.056,0.427-0.077,0.706c-0.02,0.281-0.018,0.517,0.006,0.705c0.02,0.15,0.092,0.293,0.218,0.428
		c0.125,0.135,0.326,0.188,0.598,0.154c0.41-0.076,0.774-0.303,1.092-0.682c0.318-0.377,0.592-0.83,0.825-1.359
		c0.231-0.529,0.424-1.062,0.576-1.598c0.152-0.535,0.268-1.001,0.345-1.395c0.078-0.395,0.122-0.643,0.132-0.747l0.026,0.021
		L71.5,138.407L71.5,138.407L71.5,138.407z"/>
	<path fill="#A86D0A" d="M73.596,142.459l1.09-0.292c0.025-0.139,0.066-0.372,0.125-0.701c0.057-0.331,0.124-0.701,0.199-1.111
		c0.075-0.412,0.15-0.809,0.228-1.188c0.078-0.382,0.149-0.692,0.213-0.933c0.092-0.354,0.208-0.748,0.349-1.187
		c0.138-0.437,0.297-0.858,0.479-1.271c0.182-0.411,0.38-0.756,0.599-1.035c0.218-0.278,0.452-0.438,0.703-0.479
		c0.167-0.011,0.292,0.061,0.374,0.209s0.133,0.312,0.151,0.484c0.037,0.314,0.029,0.691-0.024,1.132
		c-0.053,0.44-0.148,0.878-0.285,1.315c-0.138,0.438-0.313,0.808-0.528,1.113c-0.215,0.305-0.466,0.479-0.753,0.525
		c-0.243,0.016-0.426-0.044-0.544-0.176c-0.122-0.131-0.196-0.245-0.228-0.342l-0.434,0.457c0.054,0.086,0.153,0.172,0.298,0.252
		c0.144,0.082,0.365,0.109,0.661,0.08c0.371-0.054,0.723-0.24,1.055-0.561c0.333-0.32,0.624-0.717,0.874-1.189
		c0.25-0.472,0.435-0.963,0.557-1.475c0.123-0.511,0.16-0.986,0.11-1.423c-0.038-0.308-0.134-0.565-0.289-0.776
		c-0.158-0.209-0.368-0.305-0.635-0.283c-0.441,0.072-0.835,0.384-1.187,0.931s-0.658,1.216-0.923,2.007
		c-0.264,0.79-0.487,1.588-0.667,2.393c-0.182,0.806-0.323,1.5-0.425,2.09c-0.102,0.589-0.166,0.953-0.192,1.096l-0.193,0.023
		l1.539-8.285l-1.837,0.384l-0.039,0.187c0.192-0.027,0.377-0.029,0.554-0.004c0.177,0.025,0.285,0.15,0.324,0.373
		c0.016,0.16,0.001,0.402-0.042,0.727s-0.099,0.679-0.166,1.062L73.596,142.459L73.596,142.459L73.596,142.459z"/>
	<path fill="#A86D0A" d="M85.421,135.047c-0.116,0.188-0.286,0.445-0.506,0.774c-0.222,0.328-0.489,0.67-0.801,1.022
		c-0.314,0.354-0.667,0.66-1.056,0.921c-0.391,0.26-0.814,0.414-1.27,0.463c-0.346,0.033-0.624-0.026-0.83-0.182
		c-0.207-0.154-0.329-0.421-0.364-0.799c-0.014-0.163-0.012-0.328,0.005-0.492c0.017-0.165,0.043-0.329,0.079-0.488
		c0.113,0.02,0.227,0.032,0.34,0.041c0.117,0.006,0.23,0.004,0.347-0.007c0.477-0.053,0.898-0.219,1.267-0.495
		c0.368-0.277,0.652-0.598,0.854-0.955c0.201-0.36,0.293-0.689,0.272-0.988c-0.028-0.266-0.12-0.459-0.274-0.577
		c-0.154-0.12-0.339-0.173-0.555-0.153c-0.408,0.045-0.801,0.219-1.184,0.521c-0.381,0.303-0.723,0.68-1.023,1.128
		c-0.3,0.448-0.532,0.913-0.696,1.396c-0.162,0.483-0.23,0.929-0.199,1.333c0.039,0.434,0.189,0.758,0.451,0.973
		c0.263,0.217,0.627,0.306,1.095,0.269c0.538-0.058,1.025-0.222,1.46-0.495c0.437-0.273,0.821-0.597,1.153-0.969
		c0.333-0.371,0.612-0.732,0.84-1.084s0.405-0.635,0.526-0.846L85.421,135.047L85.421,135.047L85.421,135.047z M82.562,133.407
		c0.163-0.01,0.29,0.047,0.381,0.166c0.092,0.117,0.144,0.263,0.158,0.434c0.023,0.289-0.016,0.583-0.112,0.881
		c-0.1,0.301-0.245,0.555-0.438,0.766c-0.194,0.212-0.424,0.334-0.688,0.363c-0.248,0.012-0.472-0.017-0.671-0.086
		c-0.198-0.07-0.337-0.127-0.412-0.173c0.046-0.157,0.145-0.416,0.3-0.774c0.155-0.357,0.358-0.697,0.608-1.021
		S82.23,133.456,82.562,133.407L82.562,133.407L82.562,133.407z"/>
	<path fill="#A86D0A" d="M84.352,138.478l1.106-0.237c0.02-0.085,0.077-0.294,0.177-0.624c0.099-0.331,0.23-0.721,0.395-1.169
		c0.164-0.449,0.356-0.892,0.571-1.328c0.217-0.437,0.452-0.802,0.705-1.099c0.255-0.295,0.521-0.455,0.798-0.479
		c0.174-0.006,0.294,0.026,0.361,0.099c0.067,0.071,0.122,0.158,0.168,0.264l0.419-1.057c-0.056-0.021-0.112-0.037-0.167-0.051
		c-0.055-0.013-0.11-0.018-0.165-0.016c-0.389,0.033-0.751,0.218-1.087,0.559c-0.337,0.342-0.642,0.762-0.916,1.262
		c-0.274,0.5-0.511,1.008-0.713,1.521c-0.201,0.515-0.361,0.963-0.48,1.343c-0.117,0.383-0.19,0.623-0.215,0.725l-0.145,0.008
		l1.338-5.299l-1.821,0.254l-0.051,0.185l0.23-0.012c0.199-0.013,0.348,0.01,0.446,0.062c0.096,0.055,0.149,0.143,0.155,0.271
		c0.004,0.121-0.012,0.283-0.047,0.488s-0.076,0.41-0.123,0.608c-0.046,0.201-0.083,0.354-0.113,0.462L84.352,138.478
		L84.352,138.478L84.352,138.478z"/>
	<path fill="#A86D0A" d="M88.755,138.163l1.102-0.2c0.029-0.106,0.108-0.337,0.234-0.69c0.126-0.354,0.289-0.767,0.489-1.235
		c0.199-0.47,0.421-0.931,0.669-1.382c0.247-0.45,0.507-0.827,0.779-1.129c0.271-0.299,0.542-0.457,0.814-0.473
		c0.149,0.004,0.251,0.053,0.304,0.146c0.056,0.093,0.081,0.188,0.08,0.284c-0.002,0.139-0.038,0.341-0.104,0.604
		c-0.068,0.266-0.138,0.527-0.211,0.787l-0.963,3.234l1.113-0.2c0.059-0.2,0.186-0.556,0.382-1.068
		c0.196-0.511,0.438-1.062,0.724-1.647c0.287-0.588,0.596-1.094,0.928-1.52c0.331-0.425,0.661-0.65,0.989-0.676
		c0.137,0.006,0.231,0.059,0.285,0.152c0.051,0.098,0.076,0.186,0.075,0.267c0,0.076-0.013,0.192-0.041,0.354
		c-0.027,0.162-0.061,0.319-0.102,0.475l-0.506,1.709c-0.084,0.275-0.168,0.562-0.247,0.863c-0.08,0.301-0.121,0.533-0.124,0.697
		c0.004,0.146,0.05,0.268,0.138,0.368c0.087,0.103,0.202,0.153,0.343,0.156c0.295-0.019,0.614-0.156,0.958-0.419
		c0.345-0.264,0.68-0.577,1.009-0.941c0.328-0.365,0.613-0.711,0.857-1.035s0.414-0.558,0.51-0.696l0.092-0.306
		c-0.092,0.137-0.253,0.354-0.482,0.654c-0.229,0.299-0.49,0.616-0.779,0.951c-0.293,0.333-0.577,0.619-0.854,0.857
		c-0.279,0.237-0.512,0.364-0.699,0.379c-0.074-0.002-0.134-0.028-0.179-0.082c-0.045-0.055-0.068-0.118-0.07-0.193
		c-0.001-0.095,0.022-0.264,0.068-0.505c0.045-0.242,0.109-0.496,0.19-0.763l0.458-1.562c0.057-0.184,0.111-0.369,0.164-0.557
		c0.056-0.189,0.082-0.377,0.082-0.565c-0.002-0.184-0.062-0.343-0.184-0.479c-0.12-0.137-0.301-0.207-0.543-0.211
		c-0.373,0.019-0.726,0.183-1.062,0.49c-0.336,0.312-0.645,0.7-0.929,1.17c-0.285,0.471-0.537,0.953-0.756,1.452
		c-0.22,0.497-0.401,0.944-0.542,1.339c-0.14,0.396-0.236,0.672-0.286,0.834l-0.145,0.002l0.996-3.431
		c0.054-0.188,0.107-0.377,0.157-0.563c0.051-0.188,0.077-0.383,0.078-0.582c-0.006-0.176-0.07-0.328-0.195-0.457
		s-0.294-0.193-0.507-0.197c-0.376,0.02-0.73,0.178-1.066,0.482c-0.337,0.305-0.647,0.688-0.93,1.151
		c-0.284,0.466-0.537,0.944-0.758,1.438c-0.222,0.498-0.405,0.945-0.551,1.346s-0.248,0.688-0.306,0.865l-0.121,0.003l1.523-5.248
		l-1.831,0.188l-0.058,0.183l0.231-0.003c0.2-0.006,0.347,0.021,0.442,0.078c0.097,0.057,0.146,0.146,0.147,0.273
		c-0.001,0.122-0.022,0.284-0.065,0.488s-0.09,0.406-0.143,0.604c-0.053,0.198-0.097,0.353-0.129,0.457L88.755,138.163
		L88.755,138.163L88.755,138.163z"/>
	<path fill="#A86D0A" d="M103.944,134.917c-0.139,0.172-0.338,0.408-0.598,0.707c-0.26,0.3-0.566,0.605-0.921,0.918
		s-0.739,0.574-1.159,0.785c-0.42,0.21-0.857,0.312-1.315,0.306c-0.349-0.009-0.616-0.103-0.804-0.28
		c-0.187-0.179-0.273-0.459-0.264-0.838c0.008-0.164,0.028-0.326,0.065-0.488c0.036-0.161,0.083-0.32,0.138-0.478
		c0.109,0.034,0.221,0.062,0.333,0.082c0.114,0.021,0.228,0.034,0.345,0.038c0.479,0.006,0.918-0.107,1.316-0.338
		s0.721-0.512,0.966-0.846c0.244-0.332,0.374-0.647,0.392-0.945c0.004-0.268-0.063-0.471-0.203-0.607
		c-0.137-0.139-0.315-0.211-0.532-0.219c-0.409-0.006-0.822,0.119-1.237,0.372c-0.416,0.254-0.8,0.585-1.154,0.994
		c-0.352,0.409-0.639,0.843-0.859,1.302c-0.221,0.46-0.342,0.893-0.361,1.299c-0.013,0.436,0.098,0.774,0.331,1.021
		c0.233,0.246,0.585,0.379,1.052,0.398c0.543,0.01,1.047-0.097,1.512-0.313c0.467-0.22,0.888-0.492,1.263-0.821
		c0.375-0.328,0.696-0.652,0.967-0.974c0.269-0.32,0.478-0.579,0.624-0.775L103.944,134.917L103.944,134.917L103.944,134.917z
		 M101.308,132.94c0.162,0.013,0.282,0.084,0.357,0.211c0.076,0.131,0.111,0.279,0.104,0.449c-0.012,0.291-0.086,0.578-0.219,0.862
		c-0.135,0.284-0.31,0.519-0.527,0.705c-0.219,0.187-0.461,0.278-0.728,0.276c-0.248-0.019-0.466-0.073-0.653-0.166
		c-0.189-0.094-0.32-0.168-0.391-0.223c0.064-0.15,0.195-0.396,0.395-0.73c0.197-0.338,0.439-0.65,0.728-0.94
		C100.66,133.099,100.972,132.949,101.308,132.94L101.308,132.94L101.308,132.94z"/>
	<path fill="#A86D0A" d="M102.539,138.188l1.124-0.123c0.027-0.08,0.107-0.281,0.242-0.601c0.133-0.319,0.304-0.692,0.515-1.121
		s0.446-0.849,0.707-1.261s0.533-0.751,0.815-1.02c0.283-0.267,0.564-0.397,0.844-0.395c0.174,0.012,0.29,0.059,0.349,0.137
		c0.06,0.076,0.105,0.17,0.142,0.277l0.525-1.005c-0.053-0.026-0.105-0.05-0.16-0.067c-0.054-0.019-0.107-0.029-0.162-0.033
		c-0.391-0.009-0.771,0.141-1.141,0.441c-0.37,0.303-0.718,0.688-1.042,1.158c-0.325,0.469-0.614,0.947-0.868,1.438
		c-0.255,0.49-0.46,0.918-0.617,1.285c-0.158,0.367-0.256,0.6-0.291,0.696l-0.145-0.009l1.887-5.127l-1.841,0.061l-0.069,0.178
		l0.23,0.012c0.198,0.012,0.344,0.048,0.436,0.109c0.094,0.064,0.135,0.158,0.127,0.286c-0.01,0.12-0.041,0.28-0.099,0.479
		c-0.056,0.201-0.118,0.399-0.185,0.595c-0.067,0.194-0.121,0.344-0.162,0.446L102.539,138.188L102.539,138.188L102.539,138.188z"/>
	<path fill="#A86D0A" d="M113.077,135.54c-0.146,0.178-0.357,0.412-0.637,0.705c-0.276,0.294-0.601,0.589-0.971,0.887
		c-0.369,0.299-0.764,0.542-1.183,0.734c-0.42,0.189-0.847,0.271-1.274,0.244c-0.479-0.058-0.779-0.211-0.9-0.463
		c-0.122-0.248-0.163-0.512-0.122-0.785c0.026-0.301,0.122-0.641,0.282-1.021c0.162-0.382,0.371-0.749,0.631-1.104
		c0.259-0.355,0.549-0.646,0.869-0.865c0.319-0.221,0.654-0.321,1.004-0.301c0.336,0.044,0.582,0.15,0.74,0.322
		c0.156,0.17,0.27,0.324,0.336,0.467l0.391-0.721c-0.107-0.058-0.248-0.119-0.422-0.189s-0.399-0.12-0.682-0.148
		c-0.5-0.033-0.982,0.072-1.447,0.319c-0.465,0.246-0.887,0.569-1.262,0.975c-0.375,0.404-0.679,0.827-0.91,1.267
		c-0.232,0.44-0.365,0.839-0.399,1.193c-0.039,0.374,0.042,0.702,0.237,0.982c0.197,0.283,0.549,0.451,1.057,0.507
		c0.527,0.036,1.036-0.046,1.521-0.247c0.483-0.201,0.93-0.46,1.334-0.777c0.404-0.316,0.752-0.631,1.037-0.941
		c0.289-0.311,0.5-0.561,0.635-0.743L113.077,135.54L113.077,135.54L113.077,135.54z"/>
	<path fill="#A86D0A" d="M115.979,135.89l-0.818,1.793c-0.064,0.143-0.128,0.293-0.192,0.453c-0.063,0.161-0.104,0.305-0.125,0.437
		c-0.021,0.163,0.003,0.312,0.075,0.446c0.071,0.133,0.205,0.217,0.4,0.246c0.324,0.026,0.686-0.068,1.084-0.289
		c0.398-0.223,0.791-0.494,1.18-0.82c0.387-0.326,0.727-0.635,1.016-0.926c0.289-0.289,0.487-0.49,0.594-0.604l0.133-0.289
		c-0.092,0.1-0.271,0.285-0.539,0.551c-0.268,0.27-0.575,0.553-0.924,0.855c-0.35,0.302-0.694,0.558-1.033,0.766
		s-0.627,0.303-0.863,0.285c-0.062-0.008-0.111-0.037-0.15-0.086c-0.039-0.048-0.057-0.107-0.049-0.184
		c0.018-0.114,0.063-0.282,0.144-0.506c0.077-0.224,0.172-0.463,0.276-0.717c0.106-0.255,0.207-0.484,0.305-0.691l0.521-1.16
		c0.172-0.381,0.32-0.689,0.445-0.93c0.126-0.239,0.209-0.396,0.252-0.467l-0.902-0.013l-0.654,1.438l-0.105-0.039
		c0.039-0.105,0.071-0.215,0.102-0.324c0.029-0.11,0.052-0.221,0.064-0.328c0.035-0.293,0-0.521-0.105-0.693
		c-0.105-0.169-0.281-0.271-0.528-0.303c-0.375-0.036-0.776,0.064-1.206,0.305c-0.43,0.238-0.84,0.558-1.232,0.956
		c-0.394,0.399-0.725,0.823-0.992,1.271c-0.269,0.446-0.428,0.862-0.48,1.245c-0.042,0.356,0.007,0.658,0.146,0.904
		c0.138,0.248,0.354,0.395,0.651,0.438c0.417,0.037,0.816-0.073,1.199-0.328c0.384-0.256,0.731-0.574,1.044-0.954
		c0.311-0.382,0.568-0.742,0.771-1.083c0.201-0.341,0.33-0.577,0.385-0.711L115.979,135.89L115.979,135.89L115.979,135.89z
		 M112.479,137.399c0.033-0.26,0.131-0.576,0.289-0.949c0.16-0.372,0.362-0.739,0.611-1.102c0.248-0.361,0.521-0.656,0.821-0.886
		c0.302-0.228,0.608-0.328,0.927-0.299c0.254,0.037,0.438,0.159,0.551,0.366c0.114,0.205,0.154,0.453,0.12,0.742
		c-0.042,0.311-0.164,0.649-0.364,1.02c-0.201,0.369-0.444,0.723-0.735,1.057c-0.289,0.332-0.591,0.602-0.899,0.805
		c-0.311,0.203-0.596,0.294-0.859,0.27c-0.207-0.039-0.342-0.162-0.407-0.373C112.466,137.84,112.448,137.624,112.479,137.399
		L112.479,137.399L112.479,137.399z"/>
	<path fill="#A86D0A" d="M122.219,136.719l-0.995,2.021c-0.052,0.116-0.105,0.241-0.162,0.372c-0.056,0.134-0.096,0.261-0.117,0.382
		c-0.022,0.142-0.002,0.269,0.063,0.379c0.063,0.11,0.181,0.183,0.347,0.214c0.308,0.035,0.664-0.048,1.069-0.25
		c0.407-0.202,0.813-0.458,1.222-0.766c0.408-0.31,0.768-0.604,1.08-0.883c0.312-0.28,0.528-0.48,0.649-0.6l0.144-0.285
		c-0.108,0.104-0.309,0.286-0.597,0.545c-0.287,0.258-0.616,0.529-0.981,0.815c-0.366,0.288-0.722,0.526-1.066,0.721
		c-0.344,0.194-0.626,0.279-0.848,0.257c-0.067-0.013-0.119-0.047-0.157-0.102c-0.038-0.057-0.052-0.122-0.04-0.202
		c0.029-0.147,0.109-0.377,0.238-0.682c0.129-0.306,0.257-0.587,0.385-0.843l3.109-6.218l-1.871-0.138l-0.088,0.169
		c0.191,0.026,0.369,0.076,0.532,0.149c0.163,0.072,0.233,0.223,0.209,0.447c-0.028,0.157-0.108,0.387-0.241,0.688
		c-0.131,0.299-0.281,0.624-0.453,0.975l-1.221,2.438l-0.097-0.017c0.028-0.084,0.056-0.18,0.085-0.281
		c0.029-0.104,0.052-0.197,0.066-0.284c0.041-0.257,0.021-0.491-0.063-0.703c-0.084-0.213-0.25-0.345-0.498-0.394
		c-0.372-0.049-0.774,0.037-1.214,0.258c-0.438,0.222-0.859,0.523-1.27,0.908c-0.408,0.385-0.756,0.795-1.043,1.234
		c-0.285,0.441-0.463,0.855-0.53,1.246c-0.054,0.354-0.015,0.656,0.118,0.906c0.133,0.249,0.354,0.4,0.66,0.457
		c0.404,0.05,0.801-0.047,1.186-0.287c0.385-0.242,0.738-0.547,1.061-0.915c0.322-0.369,0.594-0.72,0.812-1.052
		c0.217-0.332,0.361-0.564,0.434-0.697L122.219,136.719L122.219,136.719L122.219,136.719z M118.688,138.14
		c0.047-0.285,0.162-0.607,0.344-0.972c0.183-0.362,0.404-0.713,0.672-1.05s0.549-0.605,0.848-0.809
		c0.301-0.205,0.592-0.287,0.874-0.252c0.255,0.047,0.44,0.178,0.556,0.393c0.119,0.214,0.156,0.462,0.113,0.746
		c-0.049,0.27-0.181,0.576-0.398,0.919c-0.219,0.343-0.479,0.673-0.784,0.991c-0.308,0.317-0.615,0.574-0.929,0.769
		c-0.312,0.194-0.586,0.278-0.823,0.25c-0.218-0.048-0.359-0.176-0.425-0.38C118.669,138.541,118.653,138.339,118.688,138.14
		L118.688,138.14L118.688,138.14z"/>
	<path fill="#A86D0A" d="M130.983,138.449c-0.142,0.136-0.359,0.336-0.654,0.602c-0.294,0.267-0.637,0.538-1.028,0.814
		c-0.39,0.274-0.799,0.495-1.225,0.661c-0.429,0.166-0.845,0.214-1.246,0.146c-0.073-0.014-0.146-0.035-0.218-0.065
		c-0.071-0.029-0.143-0.063-0.209-0.104c0.244-0.105,0.576-0.312,0.994-0.617c0.42-0.308,0.818-0.687,1.199-1.139
		c0.377-0.45,0.627-0.944,0.748-1.482c0.069-0.363,0.026-0.669-0.127-0.92c-0.152-0.252-0.414-0.414-0.785-0.492
		c-0.463-0.08-0.934-0.027-1.414,0.155c-0.479,0.187-0.933,0.454-1.355,0.808c-0.422,0.353-0.779,0.74-1.07,1.164
		c-0.29,0.426-0.477,0.836-0.56,1.233c-0.077,0.403-0.046,0.738,0.097,1.003c0.145,0.266,0.396,0.438,0.76,0.512
		c0.291,0.047,0.543,0.047,0.76,0.002c0.216-0.045,0.365-0.082,0.449-0.113c0.094,0.062,0.196,0.121,0.312,0.174
		c0.112,0.053,0.229,0.092,0.351,0.116c0.405,0.065,0.825,0.012,1.262-0.163c0.438-0.176,0.852-0.402,1.246-0.686
		c0.394-0.281,0.729-0.551,1.008-0.806c0.281-0.256,0.466-0.43,0.555-0.522L130.983,138.449L130.983,138.449L130.983,138.449z
		 M127.449,136.142c-0.392,0.168-0.763,0.471-1.11,0.91c-0.347,0.441-0.599,1.027-0.755,1.76c-0.079,0.431-0.081,0.768-0.005,1.01
		c0.074,0.242,0.186,0.445,0.331,0.611c-0.062,0.002-0.127,0.002-0.193,0.004c-0.065,0-0.133-0.008-0.2-0.019
		c-0.345-0.073-0.57-0.224-0.674-0.446c-0.105-0.226-0.124-0.494-0.059-0.811c0.117-0.553,0.333-1.049,0.645-1.49
		c0.312-0.441,0.651-0.803,1.021-1.085c0.369-0.28,0.699-0.459,0.992-0.532L127.449,136.142L127.449,136.142L127.449,136.142z
		 M125.808,138.604c0.073-0.362,0.219-0.74,0.436-1.133s0.472-0.717,0.767-0.973c0.296-0.257,0.597-0.362,0.903-0.316
		c0.254,0.058,0.423,0.205,0.504,0.439c0.082,0.236,0.093,0.506,0.032,0.812c-0.112,0.514-0.314,0.974-0.605,1.381
		c-0.291,0.41-0.593,0.748-0.905,1.014c-0.312,0.268-0.554,0.439-0.727,0.523c-0.178-0.17-0.309-0.396-0.395-0.675
		C125.731,139.401,125.729,139.042,125.808,138.604L125.808,138.604L125.808,138.604z"/>
	<path fill="#FFFFFF" d="M39.333,108.942c16.067-7.168,35.764-11.389,57.045-11.389c21.282,0,40.979,4.221,57.045,11.389v27.67
		c-16.064-7.17-35.763-11.391-57.045-11.391c-21.281,0-40.978,4.221-57.045,11.391V108.942L39.333,108.942L39.333,108.942z"/>
	<path fill="#A86D0A" d="M56.401,126.81c0.129-0.722,0.201-1.852,0.217-3.387c0.016-1.537-0.216-3.273-0.695-5.214
		c-0.373-1.375-0.952-2.642-1.738-3.796c-0.784-1.154-1.701-2.033-2.752-2.635c-1.049-0.603-2.158-0.762-3.327-0.479
		c-0.965,0.298-1.675,0.788-2.131,1.476c-0.455,0.688-0.75,1.367-0.885,2.037c-0.136,0.67-0.203,1.127-0.207,1.373l0.489,0.461
		c-0.011-0.23,0.019-0.608,0.091-1.133c0.073-0.522,0.265-1.044,0.577-1.562c0.312-0.519,0.82-0.886,1.526-1.104
		c1.048-0.242,2.078-0.017,3.087,0.682c1.013,0.697,1.914,1.672,2.703,2.923s1.378,2.586,1.764,4.001
		c0.459,1.842,0.697,3.367,0.712,4.574s-0.013,2-0.087,2.382L56.401,126.81L56.401,126.81L56.401,126.81z M58.105,126.354
		c0.024-0.064,0.051-0.133,0.078-0.205c0.025-0.07,0.058-0.142,0.094-0.209c0.324-0.674,0.853-1.664,1.59-2.967
		c0.737-1.304,1.492-2.763,2.263-4.375c0.771-1.613,1.37-3.222,1.794-4.824c0.424-1.604,0.486-3.043,0.183-4.316
		c-0.259-0.905-0.548-1.557-0.867-1.951c-0.318-0.395-0.609-0.686-0.873-0.873l-1.714,2.004c0.412,0.032,0.829,0.187,1.253,0.461
		c0.424,0.273,0.789,0.936,1.091,1.98c0.248,1.061,0.191,2.307-0.174,3.738c-0.365,1.435-0.872,2.877-1.52,4.326
		c-0.648,1.45-1.272,2.732-1.875,3.847c-0.603,1.114-1.014,1.879-1.239,2.3l-0.066-0.039c0.041-0.287,0.045-1.018,0.008-2.191
		c-0.034-1.174-0.243-2.537-0.625-4.091c-0.725-2.528-1.543-4.491-2.456-5.884c-0.911-1.393-1.686-2.4-2.322-3.023l-1.277,0.482
		c0.622,0.428,1.268,0.963,1.933,1.607c0.664,0.646,1.304,1.505,1.918,2.576c0.613,1.072,1.155,2.463,1.625,4.17
		c0.489,1.912,0.744,3.529,0.766,4.854c0.021,1.323-0.042,2.385-0.189,3.186L58.105,126.354L58.105,126.354L58.105,126.354z"/>
	<path fill="#A86D0A" d="M74.663,115.81c-0.128,0.289-0.385,0.801-0.769,1.535c-0.384,0.734-0.839,1.527-1.368,2.381
		c-0.528,0.853-1.073,1.601-1.635,2.244c-0.562,0.646-1.085,1.022-1.569,1.135c-0.212,0.03-0.369-0.026-0.472-0.17
		c-0.104-0.144-0.174-0.332-0.211-0.566c-0.029-0.186-0.029-0.499-0.002-0.942c0.028-0.442,0.07-0.924,0.126-1.442
		c0.057-0.52,0.116-0.983,0.177-1.396l0.908-6.758l-4.148,1.062l-0.063,0.422l0.588-0.103c0.511-0.087,0.877-0.058,1.095,0.089
		c0.22,0.146,0.349,0.369,0.393,0.67c0.056,0.37,0.053,0.889-0.007,1.549c-0.062,0.66-0.141,1.412-0.235,2.252l-0.454,3.365
		c-0.052,0.372-0.098,0.762-0.139,1.168c-0.039,0.406-0.042,0.727-0.009,0.957c0.062,0.355,0.229,0.664,0.501,0.93
		c0.273,0.265,0.638,0.367,1.094,0.307c0.664-0.146,1.329-0.58,1.993-1.303c0.665-0.723,1.287-1.551,1.861-2.486
		c0.576-0.936,1.062-1.798,1.459-2.588c0.397-0.788,0.661-1.322,0.79-1.602L74.663,115.81L74.663,115.81L74.663,115.81z
		 M69.574,107.454c0.341-0.07,0.604-0.242,0.788-0.52c0.184-0.274,0.249-0.594,0.194-0.951c-0.079-0.397-0.248-0.674-0.508-0.826
		c-0.259-0.153-0.56-0.199-0.902-0.139c-0.389,0.08-0.668,0.26-0.839,0.543c-0.169,0.279-0.225,0.601-0.165,0.959
		c0.062,0.34,0.219,0.596,0.47,0.769C68.86,107.461,69.183,107.517,69.574,107.454L69.574,107.454L69.574,107.454z"/>
	<path fill="#A86D0A" d="M81.446,115.14c-0.138,0.275-0.422,0.77-0.852,1.481c-0.429,0.713-0.937,1.483-1.525,2.312
		c-0.587,0.826-1.187,1.549-1.8,2.168c-0.613,0.618-1.169,0.973-1.673,1.061c-0.165,0.018-0.303-0.029-0.416-0.145
		c-0.113-0.117-0.184-0.287-0.214-0.52c-0.022-0.223-0.005-0.564,0.049-1.03c0.056-0.464,0.127-0.957,0.214-1.477
		c0.088-0.521,0.169-0.976,0.247-1.364l2.765-14.97l-4.113,0.858l-0.086,0.42c0.43-0.062,0.843-0.065,1.239-0.009
		c0.397,0.058,0.639,0.337,0.727,0.837c0.034,0.355,0.002,0.898-0.096,1.625c-0.098,0.725-0.222,1.52-0.372,2.379l-2.156,11.664
		c-0.063,0.319-0.124,0.654-0.179,1.004c-0.058,0.353-0.075,0.646-0.053,0.889c0.051,0.385,0.191,0.691,0.421,0.918
		c0.23,0.228,0.521,0.322,0.877,0.289c0.718-0.117,1.452-0.521,2.203-1.213c0.749-0.693,1.456-1.493,2.118-2.402
		c0.663-0.91,1.22-1.749,1.674-2.518c0.454-0.77,0.742-1.289,0.867-1.559L81.446,115.14L81.446,115.14L81.446,115.14z"/>
	<path fill="#A86D0A" d="M87.957,114.478l-1.033,4.293c-0.079,0.342-0.154,0.703-0.227,1.082c-0.073,0.377-0.103,0.715-0.09,1.01
		c0.022,0.367,0.141,0.684,0.356,0.947c0.214,0.265,0.545,0.389,0.988,0.373c0.722-0.08,1.475-0.447,2.257-1.102
		c0.783-0.655,1.531-1.424,2.243-2.309c0.713-0.881,1.326-1.703,1.838-2.467c0.514-0.763,0.862-1.289,1.044-1.584l0.171-0.689
		c-0.16,0.261-0.476,0.742-0.948,1.443c-0.474,0.701-1.029,1.459-1.669,2.274c-0.638,0.813-1.286,1.521-1.942,2.125
		c-0.658,0.603-1.25,0.935-1.778,0.997c-0.141,0.008-0.264-0.033-0.371-0.124c-0.105-0.09-0.167-0.217-0.183-0.382
		c-0.013-0.26,0.02-0.651,0.098-1.178c0.078-0.523,0.179-1.09,0.303-1.692c0.123-0.604,0.249-1.153,0.373-1.649l0.651-2.775
		c0.215-0.908,0.41-1.654,0.584-2.233c0.173-0.582,0.291-0.958,0.354-1.132l-1.993,0.355l-0.822,3.441l-0.247-0.038
		c0.038-0.249,0.065-0.502,0.083-0.757c0.017-0.255,0.017-0.506,0.001-0.752c-0.047-0.654-0.223-1.146-0.528-1.477
		c-0.306-0.328-0.737-0.477-1.293-0.438c-0.84,0.081-1.682,0.476-2.522,1.185c-0.84,0.707-1.608,1.584-2.303,2.631
		c-0.693,1.047-1.239,2.119-1.638,3.219c-0.397,1.099-0.574,2.08-0.526,2.943c0.062,0.803,0.299,1.445,0.709,1.931
		c0.411,0.483,0.953,0.712,1.624,0.682c0.93-0.097,1.763-0.508,2.497-1.233c0.732-0.726,1.361-1.574,1.884-2.547
		c0.523-0.972,0.935-1.875,1.234-2.711c0.299-0.834,0.481-1.41,0.544-1.726L87.957,114.478L87.957,114.478L87.957,114.478z
		 M80.907,119.297c-0.038-0.587,0.039-1.323,0.23-2.211c0.191-0.888,0.482-1.78,0.873-2.685c0.391-0.9,0.869-1.666,1.432-2.297
		c0.563-0.629,1.199-0.981,1.907-1.055c0.574-0.025,1.031,0.164,1.368,0.569c0.339,0.401,0.533,0.932,0.581,1.585
		c0.039,0.697-0.083,1.496-0.365,2.395c-0.283,0.897-0.673,1.775-1.167,2.635c-0.494,0.858-1.039,1.576-1.635,2.156
		c-0.594,0.579-1.186,0.898-1.771,0.959c-0.472,0.002-0.826-0.213-1.058-0.646C81.069,120.271,80.936,119.802,80.907,119.297
		L80.907,119.297L80.907,119.297z"/>
	<path fill="#A86D0A" d="M112.968,120.501c-0.438,0.219-1.003,0.424-1.691,0.616c-0.688,0.19-1.57,0.258-2.645,0.2
		c-0.88-0.078-1.637-0.215-2.27-0.407c-0.633-0.194-1.074-0.343-1.325-0.444c0.444-0.318,0.858-0.955,1.245-1.904
		c0.385-0.949,0.732-1.996,1.044-3.143c0.348-1.312,0.67-2.525,0.965-3.641c0.294-1.114,0.665-2.122,1.108-3.022
		c0.443-0.901,1.062-1.688,1.855-2.36l-1.336,0.397c-0.023,0.011-0.17,0.208-0.439,0.595c-0.271,0.385-0.528,0.895-0.771,1.529
		c-0.504,1.463-0.941,2.917-1.312,4.364c-0.371,1.448-0.77,2.784-1.191,4.009c-0.422,1.227-0.962,2.236-1.619,3.034
		c-0.188-0.101-0.55-0.276-1.086-0.533c-0.535-0.257-1.12-0.504-1.754-0.742c-0.635-0.239-1.193-0.383-1.676-0.429
		c-0.467-0.03-0.885,0.07-1.256,0.303c-0.371,0.23-0.584,0.586-0.635,1.062c-0.029,0.553,0.203,1.009,0.698,1.371
		c0.495,0.361,1.194,0.578,2.101,0.649c0.844,0.039,1.515-0.038,2.01-0.229c0.496-0.191,0.88-0.377,1.152-0.555
		c0.348,0.174,0.994,0.416,1.939,0.729c0.943,0.313,2.246,0.541,3.904,0.685c0.537,0.042,1.064,0.042,1.58,0.002L112.968,120.501
		L112.968,120.501L112.968,120.501z M104.86,118.71c0.324-0.658,0.58-1.264,0.768-1.816c0.188-0.556,0.354-1.065,0.503-1.531
		c0.252-0.815,0.509-1.793,0.769-2.935s0.566-2.266,0.924-3.375c0.355-1.108,0.805-2.021,1.346-2.741
		c0.54-0.72,1.217-1.064,2.029-1.037c0.68,0.062,1.177,0.319,1.492,0.771c0.317,0.452,0.453,1.012,0.408,1.68l-0.029,0.435
		l1.689-1.573c-0.117-0.261-0.389-0.579-0.814-0.954c-0.428-0.377-1.106-0.614-2.039-0.715c-1.271-0.073-2.371,0.222-3.299,0.879
		c-0.928,0.659-1.623,1.595-2.084,2.806c-0.306,0.836-0.619,1.886-0.941,3.144c-0.324,1.259-0.691,2.534-1.104,3.829
		c-0.414,1.293-0.908,2.413-1.485,3.359L104.86,118.71L104.86,118.71L104.86,118.71z M103.663,121.022
		c-0.312,0.166-0.676,0.312-1.084,0.439c-0.409,0.127-0.934,0.174-1.574,0.141c-0.71-0.055-1.294-0.219-1.754-0.496
		c-0.46-0.276-0.684-0.642-0.669-1.094c0.026-0.26,0.144-0.451,0.351-0.58c0.205-0.127,0.442-0.183,0.711-0.166
		c0.35,0.034,0.688,0.129,1.013,0.282c0.323,0.155,0.649,0.316,0.978,0.485L103.663,121.022L103.663,121.022L103.663,121.022z"/>
	<path fill="#A86D0A" d="M122.771,116.532l-1.973,3.949c-0.152,0.316-0.309,0.649-0.465,1.004c-0.156,0.353-0.262,0.675-0.312,0.964
		c-0.062,0.36-0.018,0.696,0.133,1.003c0.15,0.306,0.443,0.502,0.88,0.586c0.721,0.086,1.536-0.104,2.446-0.564
		c0.91-0.463,1.812-1.043,2.703-1.744c0.896-0.698,1.676-1.362,2.349-1.989c0.67-0.628,1.128-1.062,1.372-1.308l0.32-0.637
		c-0.214,0.219-0.631,0.617-1.248,1.194c-0.619,0.577-1.33,1.19-2.138,1.842c-0.806,0.649-1.596,1.192-2.371,1.632
		c-0.776,0.439-1.428,0.63-1.957,0.572c-0.138-0.023-0.249-0.092-0.331-0.203c-0.084-0.111-0.115-0.249-0.094-0.414
		c0.046-0.256,0.165-0.631,0.359-1.124c0.193-0.494,0.421-1.022,0.678-1.581c0.256-0.561,0.501-1.068,0.734-1.525l1.259-2.557
		c0.413-0.837,0.771-1.521,1.069-2.047c0.301-0.527,0.5-0.867,0.601-1.021l-2.021-0.102l-1.576,3.168l-0.231-0.092
		c0.093-0.234,0.177-0.475,0.25-0.719c0.074-0.245,0.131-0.489,0.171-0.733c0.104-0.647,0.041-1.167-0.184-1.556
		c-0.223-0.391-0.609-0.631-1.159-0.721c-0.838-0.109-1.745,0.086-2.726,0.586c-0.979,0.502-1.924,1.184-2.834,2.047
		c-0.912,0.863-1.686,1.785-2.32,2.767s-1.026,1.897-1.176,2.75c-0.119,0.796-0.033,1.478,0.258,2.041s0.769,0.908,1.429,1.028
		c0.929,0.115,1.832-0.098,2.71-0.641s1.682-1.228,2.409-2.058c0.729-0.829,1.332-1.617,1.813-2.362
		c0.479-0.747,0.784-1.267,0.916-1.56L122.771,116.532L122.771,116.532L122.771,116.532z M114.815,119.642
		c0.097-0.58,0.338-1.279,0.723-2.102c0.386-0.822,0.871-1.628,1.455-2.418c0.584-0.791,1.221-1.43,1.91-1.917
		c0.691-0.487,1.39-0.687,2.097-0.599c0.565,0.104,0.968,0.393,1.206,0.861s0.309,1.028,0.21,1.676
		c-0.12,0.689-0.419,1.438-0.896,2.25c-0.479,0.812-1.056,1.58-1.729,2.307c-0.674,0.725-1.367,1.302-2.078,1.732
		c-0.709,0.431-1.356,0.609-1.942,0.534c-0.459-0.103-0.754-0.392-0.885-0.864C114.755,120.628,114.731,120.142,114.815,119.642
		L114.815,119.642L114.815,119.642z"/>
	<path fill="#A86D0A" d="M136.547,119.476c-0.228,0.222-0.655,0.602-1.287,1.139c-0.631,0.535-1.35,1.101-2.157,1.693
		c-0.811,0.592-1.595,1.082-2.357,1.469c-0.764,0.389-1.389,0.543-1.88,0.465c-0.208-0.051-0.333-0.162-0.376-0.334
		c-0.043-0.174-0.036-0.373,0.019-0.604c0.042-0.182,0.16-0.474,0.351-0.875c0.191-0.399,0.412-0.829,0.658-1.29
		c0.248-0.46,0.477-0.869,0.688-1.229l3.373-5.926l-4.244-0.57l-0.217,0.369l0.584,0.124c0.507,0.112,0.834,0.276,0.982,0.493
		c0.147,0.218,0.185,0.474,0.111,0.768c-0.088,0.365-0.281,0.843-0.588,1.436c-0.305,0.588-0.657,1.254-1.061,1.998l-1.683,2.952
		c-0.188,0.324-0.377,0.667-0.565,1.029s-0.312,0.657-0.367,0.885c-0.076,0.353-0.038,0.7,0.115,1.048
		c0.153,0.35,0.455,0.58,0.9,0.695c0.67,0.112,1.448-0.041,2.337-0.46c0.886-0.422,1.771-0.957,2.656-1.61
		c0.884-0.651,1.659-1.269,2.321-1.852c0.664-0.582,1.108-0.979,1.332-1.189L136.547,119.476L136.547,119.476L136.547,119.476z
		 M134.958,109.824c0.343,0.062,0.652,0.001,0.926-0.187s0.453-0.457,0.536-0.809c0.076-0.4,0.022-0.719-0.161-0.958
		c-0.183-0.239-0.445-0.394-0.785-0.466c-0.391-0.072-0.718-0.012-0.98,0.188c-0.264,0.196-0.434,0.473-0.512,0.828
		c-0.069,0.339-0.021,0.635,0.146,0.889S134.571,109.735,134.958,109.824L134.958,109.824L134.958,109.824z"/>
	<path fill="#A86D0A" d="M147.524,122.615c-0.229,0.182-0.678,0.517-1.349,1.005s-1.446,1.003-2.323,1.54
		c-0.879,0.538-1.742,0.97-2.595,1.299c-0.85,0.326-1.569,0.42-2.157,0.278c-0.063-0.021-0.129-0.043-0.19-0.069
		c-0.063-0.026-0.128-0.05-0.19-0.067c0.323-0.136,0.66-0.354,1.01-0.658c0.35-0.305,0.606-0.717,0.774-1.236
		c0.153-0.581,0.2-1.197,0.144-1.852c-0.061-0.652-0.158-1.306-0.295-1.955c-0.134-0.664-0.24-1.284-0.322-1.864
		c-0.079-0.58-0.065-1.089,0.048-1.525c0.101-0.341,0.293-0.608,0.582-0.806c0.289-0.198,0.639-0.244,1.051-0.143
		c0.459,0.15,0.778,0.398,0.957,0.742c0.181,0.346,0.276,0.697,0.294,1.055c0.016,0.358,0.007,0.632-0.023,0.819l1.248-1.198
		c-0.117-0.254-0.334-0.555-0.646-0.897s-0.79-0.62-1.432-0.826c-0.881-0.224-1.647-0.153-2.301,0.208
		c-0.652,0.364-1.082,0.885-1.287,1.562c-0.135,0.512-0.172,1.049-0.112,1.608c0.059,0.562,0.146,1.132,0.259,1.716
		c0.128,0.586,0.211,1.187,0.25,1.801c0.04,0.615-0.023,1.236-0.193,1.865c-0.218,0.713-0.596,1.226-1.136,1.535
		c-0.538,0.311-1.153,0.371-1.851,0.184c-0.829-0.256-1.447-0.736-1.855-1.447s-0.496-1.516-0.264-2.413
		c0.304-0.946,0.816-1.601,1.54-1.961c0.723-0.361,1.479-0.485,2.271-0.371l-1.174-1.242c-0.416,0.056-0.869,0.168-1.359,0.343
		c-0.492,0.174-0.951,0.459-1.377,0.858c-0.428,0.397-0.752,0.965-0.977,1.696c-0.307,1.23-0.162,2.275,0.434,3.133
		s1.393,1.43,2.389,1.72c0.384,0.105,0.775,0.154,1.177,0.144c0.401-0.01,0.796-0.066,1.183-0.172
		c0.09,0.028,0.176,0.058,0.258,0.088c0.08,0.031,0.166,0.062,0.258,0.09c0.761,0.191,1.603,0.136,2.523-0.166
		c0.924-0.303,1.829-0.719,2.717-1.25s1.656-1.045,2.312-1.541c0.653-0.495,1.091-0.842,1.313-1.038L147.524,122.615
		L147.524,122.615L147.524,122.615z"/>
	<path fill="#FDB94F" d="M176.849,122.813l-6.519,12.271l1.312,16.724c-17.65-9.834-31.51-6.66-34.779-9.271
		c-0.151-0.153-0.295-0.317-0.426-0.49l-0.101-0.146c-0.087-0.129-0.163-0.258-0.228-0.387c-0.336-0.654-0.394-1.285-0.172-1.895
		c0.244-0.672,0.771-1.165,1.614-1.43c0.095-0.021,0.188-0.045,0.289-0.084c0.978-0.233,1.99-0.17,3.095,0.194l0.129,0.046
		c0.906,0.274,1.803,0.58,2.725,0.896c0.525,0.212,1.086,0.415,1.62,0.609c0.56,0.203,1.116,0.405,1.633,0.573
		c0.972,0.336,1.873,0.625,2.756,0.89l0.127,0.047c1.104,0.363,2.117,0.429,3.095,0.193c0.102-0.037,0.195-0.062,0.289-0.084
		c0.825-0.289,1.371-0.757,1.615-1.43c0.1-0.273,0.145-0.557,0.131-0.844l0.068,0.031v-23.58
		C162.646,117.644,170.474,120.22,176.849,122.813L176.849,122.813L176.849,122.813z M15.908,122.813
		c6.375-2.595,14.203-5.17,21.724-7.164v23.582l0.07-0.03c-0.013,0.286,0.03,0.569,0.131,0.844c0.245,0.673,0.79,1.14,1.613,1.431
		c0.094,0.021,0.19,0.045,0.291,0.084c0.977,0.233,1.991,0.17,3.095-0.194l0.127-0.046c0.883-0.266,1.784-0.555,2.755-0.891
		c0.516-0.168,1.074-0.371,1.634-0.574c0.534-0.193,1.093-0.396,1.62-0.608c0.921-0.315,1.816-0.622,2.724-0.896l0.127-0.047
		c1.104-0.363,2.117-0.429,3.095-0.195c0.099,0.041,0.195,0.063,0.29,0.086c0.844,0.264,1.369,0.757,1.614,1.429
		c0.222,0.608,0.164,1.239-0.172,1.896c-0.065,0.127-0.141,0.256-0.226,0.385l-0.101,0.146c-0.132,0.174-0.274,0.337-0.426,0.49
		c-3.27,2.609-17.127-0.562-34.781,9.271l1.312-16.725L15.908,122.813L15.908,122.813L15.908,122.813z"/>
</g>
</svg>
