<?xml version="1.0" encoding="utf-8"?>
<!-- Generator: Adobe Illustrator 16.0.0, SVG Export Plug-In . SVG Version: 6.00 Build 0)  -->
<!DOCTYPE svg PUBLIC "-//W3C//DTD SVG 1.1//EN" "http://www.w3.org/Graphics/SVG/1.1/DTD/svg11.dtd">
<svg version="1.1" id="Layer_1" xmlns="http://www.w3.org/2000/svg" xmlns:xlink="http://www.w3.org/1999/xlink" x="0px" y="0px"
	 width="175.748px" height="97.629px" viewBox="271.504 311.563 175.748 97.629"
	 enable-background="new 271.504 311.563 175.748 97.629" xml:space="preserve">
<g>
	<path d="M447.252,351.562l-0.003,0.213c-18.972,1.053-30.941,9.648-39.73,20.887c3.364,7.131,8.251,12.799,14.863,16.874
		c-10.431,0.471-17.351-2.606-23.142-6.614c-2.744-1.896-5.256-4.352-7.187-6.896l-11.267,3.332
		c-15.112,4.274-30.089,8.981-48.204,10.029l-6.194-0.007c-8.515-0.071-15.506-1.553-21.312-4.412
		c-3.35-1.649-6.74-3.545-7.076-8.137c0.312-1.299,0.383-2.554,0.854-3.636c2.006-4.609,4.682-8.531,7.738-12.09
		c5.334-6.209,11.783-11.234,18.866-15.842c-9.316-7.544-20.062-13.719-33.106-17.61c4.503-1.474,9.205-2.659,14.176-3.358
		l7.102-0.417l7.237,0.409c2.598,0.258,5.156,0.616,7.601,1.146c7.764,1.682,14.337,4.689,20.402,7.96
		c24.468-10.334,56.506-16.462,91.219-12.932c-8.549,12.063-18.51,22.537-29.4,32.128l-0.009-13.881l-12.171,15.199
		c0.41-3.854,0.362-8.029,0.711-11.896c-3.945,3.409-7.354,6.943-11.123,10.168c0.344-2.831,0.43-5.97,0.848-8.808l-9.568,8.48
		l0.778-7.782c0.021-0.228,0.158-0.587-0.533-0.542c-9.655,0.632-16.889,4.11-23.546,8.585c13.784-1.405,24.29,2.25,32.258,7.443
		c-9.714,6.296-20.938,11.179-34.882,12.996c-2.521,0.328-5.216,0.146-7.6,0.577c-0.711,0.128-1.122,0.854-1.112,1.494
		s0.619,1.078,1.184,1.168c16.48,2.636,34.819,0.479,47.665-4.271c5.546-7.193,12.781-12.842,21.587-16.71
		c5.718-2.511,12.516-3.815,20.023-4.413C439.432,350.557,443.538,350.854,447.252,351.562L447.252,351.562z"/>
	<path d="M323.63,409.189c-4.692-0.477-9.36-0.947-13.729-1.744c-8.822-1.607-16.528-4.493-23.108-8.335
		c-8.699-5.078-16.519-15.587-12.743-29.564c1.332-0.612,3.26-0.772,5.226-1.297c-2.934,5.724-1.966,14.866,1.304,19.21
		c5.431,7.213,13.86,11.399,23.644,14.211c16.188,4.652,40.057,3.496,56.774,0.145c5.104-1.023,9.848-2.314,14.745-3.644
		l12.718-4.261c5.536-2.25,11.068-4.587,16.229-7.239c1.54,0.804,3.24,1.595,5.279,2.021
		c-20.474,11.195-44.133,18.904-73.615,20.501L323.63,409.189L323.63,409.189z"/>
	<path d="M380.594,311.887c17.276-1.169,33.891,0.816,45.865,6.191c0.618,0.277,1.324,0.57,1.859,0.96l-13.657-0.229
		c-9.59-2.404-21.543-3.324-33.47-2.613c-9.372,0.559-17.631,1.97-25.642,3.768c-7.521,1.688-14.722,3.692-21.439,6.281
		l-7.688-1.903C342.317,317.771,359.965,313.283,380.594,311.887L380.594,311.887z"/>
	<path d="M307.034,334.026c1.332,0.55,2.757,1.331,4.038,2.097c0.352,0.211-0.015,0.688-0.165,0.776
		c-8.601,4.987-16.296,10.574-22.688,17.545c-2.314,2.525-4.568,5.21-6.265,8.16l-6.866,3.681
		c5.221-11.613,13.734-19.771,23.271-26.765C301.031,337.561,303.925,335.816,307.034,334.026L307.034,334.026z"/>
	<path d="M442.873,352.593l3.025-0.227c-0.158,1.117-0.64,2.099-1.047,3.018c-3.759,8.494-9.651,14.952-16.239,20.692
		c-3.649,3.18-7.734,5.895-11.788,8.591c-1.14-0.931-2.226-1.804-3.184-3.22c1.674-1.246,3.855-2.407,5.519-3.709l8.071-6.478
		c5.589-5.135,10.72-10.741,13.965-18.316C441.361,352.56,442.268,352.631,442.873,352.593L442.873,352.593z"/>
	<path d="M300.601,359.487l5.812,0.383c0.462,0.013-0.104,0.928-0.108,0.933c-2.604,2.926-4.678,5.803-6.407,9.076
		c-7.611-3.436-20.832-3.595-28.394-0.093C278.736,363.909,287.924,359.662,300.601,359.487L300.601,359.487z"/>
	<path d="M447.241,341.467l0.009,5.863c-0.189,0.737-0.338,1.484-0.548,2.257c-0.087,0.321,0.423,1.446-0.679,1.25
		c-1.289-0.23-2.657-0.313-4.015-0.754c0.947-3.504,1.294-8.132,0.215-11.487c-1.45-4.509-4.239-7.721-7.489-10.263
		c1.163-1.221,1.845-2.645,2.844-3.499c3.665,2.846,6.45,6.299,8.195,10.754C446.449,337.311,447.126,339.176,447.241,341.467
		L447.241,341.467z"/>
	<path fill="#FFFFFF" d="M396.621,325.919c2.306-0.564,4.471,0.208,5.956,1.285c-1.026,1-2.45,1.928-3.987,2.271
		c-1.859-0.17-3.134-1.051-3.815-2.318c-0.209-0.388,0.26-0.633,0.565-0.741C395.774,326.264,396.185,326.026,396.621,325.919
		L396.621,325.919z"/>
</g>
</svg>
