<?xml version="1.0" encoding="utf-8"?>
<!-- Generator: Adobe Illustrator 16.0.0, SVG Export Plug-In . SVG Version: 6.00 Build 0)  -->
<!DOCTYPE svg PUBLIC "-//W3C//DTD SVG 1.1//EN" "http://www.w3.org/Graphics/SVG/1.1/DTD/svg11.dtd">
<svg version="1.1" id="Layer_1" xmlns="http://www.w3.org/2000/svg" xmlns:xlink="http://www.w3.org/1999/xlink" x="0px" y="0px"
	 width="169.71px" height="153.13px" viewBox="274.523 282.567 169.71 153.13"
	 enable-background="new 274.523 282.567 169.71 153.13" xml:space="preserve">
<g>
	<polygon fill="#2E3192" points="274.523,392.908 311.103,392.908 311.103,403.756 299.709,403.756 299.709,435.697 
		285.917,435.697 285.917,403.756 274.523,403.756 	"/>
	<polygon fill="#2E3192" points="358.479,392.908 395.06,392.908 395.06,403.756 383.665,403.756 383.665,435.697 369.872,435.697 
		369.872,403.756 358.479,403.756 	"/>
	<polygon fill="#2E3192" points="309.904,435.697 325.496,392.908 342.887,392.908 360.277,435.697 344.686,435.697 
		335.091,407.975 324.896,435.697 	"/>
	<polygon fill="#2E3192" points="393.86,435.697 409.452,392.908 426.843,392.908 444.233,435.697 428.642,435.697 419.047,407.975 
		408.853,435.697 	"/>
	<path fill="#2E3192" d="M357.718,282.567c27.785,0,51.765,11.622,62.306,28.194c-15.869-4.343-34.238-7.69-53.317-7.052
		c-3.042,0.102-5.396,0.893-5.396,3.764v69.106c-1.188,0.041-2.387,0.063-3.591,0.063c-1.151,0-2.298-0.02-3.437-0.059v-69.112
		c0-2.872-2.355-3.662-5.397-3.764c-19.152-0.641-37.591,2.735-53.502,7.103C305.905,294.213,329.906,282.567,357.718,282.567
		L357.718,282.567z M424.628,321.125c0.73,2.752,1.113,5.587,1.113,8.481c0,20.398-18.943,37.832-45.285,44.326l-7.771-52.139
		c-0.631-4.24-0.593-7.125,3.018-7.235C395.943,313.941,407.823,316.948,424.628,321.125L424.628,321.125z M335.129,373.967
		c-26.419-6.465-45.434-23.924-45.434-44.36c0-2.879,0.378-5.701,1.103-8.44c16.894-4.201,28.783-7.227,49.091-6.608
		c3.608,0.109,3.647,2.995,3.017,7.235L335.129,373.967L335.129,373.967z"/>
</g>
</svg>
