<?xml version="1.0" encoding="utf-8"?>
<!-- Generator: Adobe Illustrator 16.0.0, SVG Export Plug-In . SVG Version: 6.00 Build 0)  -->
<!DOCTYPE svg PUBLIC "-//W3C//DTD SVG 1.1//EN" "http://www.w3.org/Graphics/SVG/1.1/DTD/svg11.dtd">
<svg version="1.1" xmlns="http://www.w3.org/2000/svg" xmlns:xlink="http://www.w3.org/1999/xlink" x="0px" y="0px"
	 width="225.29px" height="104.772px" viewBox="0 0 225.29 104.772" enable-background="new 0 0 225.29 104.772"
	 xml:space="preserve">
<g id="Sfondo">
</g>
<g id="Guide">
</g>
<g id="Primo_piano">
	<g>
		<g>
			<path fill-rule="evenodd" clip-rule="evenodd" fill="#FFEB95" d="M115.627,35.065c1.63,1.736,2.629,4.072,2.629,6.641
				c0,5.358-4.344,9.702-9.704,9.702c-3.463,0-6.502-1.814-8.219-4.543c1.77,1.885,4.285,3.062,7.074,3.062
				c5.359,0,9.704-4.344,9.704-9.703C117.111,38.329,116.567,36.56,115.627,35.065z M97.569,41.707
				c0-6.028,4.887-10.915,10.916-10.915c6.029,0,10.917,4.887,10.917,10.915s-4.887,10.915-10.917,10.915
				C102.457,52.622,97.569,47.735,97.569,41.707z"/>
			<g>
				<path fill-rule="evenodd" clip-rule="evenodd" fill="#FFEB95" d="M108.89,0c0,0-4.649,4.043-4.178,7.479
					s3.504,2.695,3.234,6.401s-3.643,4.882-4.312,6.738c-1.482,4.11,4.042,6.067,4.042,6.067s-0.263-2.86,0.203-4.45
					c1.146-3.908,4.852-3.302,5.121-6.536c0.353-4.235-4.629-5.372-5.323-7.209C106.329,4.919,108.89,0,108.89,0z"/>
				<path fill-rule="evenodd" clip-rule="evenodd" fill="#FFEB95" d="M138.653,13.033c0,0-6.138-0.536-8.283,2.19
					c-2.145,2.727,0.495,4.393-2.358,6.773c-2.854,2.38-6.043,0.771-7.843,1.579c-3.986,1.789-1.557,7.123-1.557,7.123
					s1.875-2.176,3.342-2.946c3.607-1.891,5.745,1.196,8.259-0.856c3.292-2.688,0.648-7.062,1.489-8.837
					C133.336,14.608,138.653,13.033,138.653,13.033z"/>
				<path fill-rule="evenodd" clip-rule="evenodd" fill="#FFEB95" d="M149.695,41.705c0,0-4.043-4.649-7.48-4.178
					c-3.436,0.472-2.695,3.504-6.401,3.234s-4.883-3.643-6.738-4.312c-4.11-1.482-6.068,4.042-6.068,4.042s2.86-0.264,4.451,0.203
					c3.908,1.146,3.302,4.851,6.536,5.121c4.235,0.353,5.372-4.629,7.21-5.323C144.776,39.145,149.695,41.705,149.695,41.705z"/>
				<path fill-rule="evenodd" clip-rule="evenodd" fill="#FFEB95" d="M136.634,71.666c0,0,0.536-6.137-2.19-8.282
					c-2.727-2.144-4.393,0.495-6.773-2.357c-2.38-2.853-0.771-6.043-1.579-7.842c-1.789-3.986-7.123-1.557-7.123-1.557
					s2.176,1.874,2.946,3.342c1.891,3.607-1.196,5.745,0.856,8.258c2.688,3.292,7.062,0.648,8.838,1.489
					C135.059,66.349,136.634,71.666,136.634,71.666z"/>
				<path fill-rule="evenodd" clip-rule="evenodd" fill="#FFEB95" d="M106.17,82.964c0,0,4.788-3.878,4.437-7.329
					s-3.408-2.816-3.009-6.51c0.399-3.694,3.812-4.752,4.545-6.583c1.625-4.056-3.828-6.205-3.828-6.205s0.164,2.868-0.358,4.44
					c-1.281,3.866-4.964,3.13-5.346,6.353c-0.501,4.22,4.439,5.53,5.068,7.391C108.901,78.138,106.17,82.964,106.17,82.964z"/>
				<path fill-rule="evenodd" clip-rule="evenodd" fill="#FFEB95" d="M78.308,70.008c0,0,6.139,0.536,8.283-2.19
					c2.145-2.727-0.495-4.393,2.358-6.773c2.854-2.38,6.044-0.771,7.843-1.579c3.986-1.789,1.557-7.123,1.557-7.123
					s-1.875,2.176-3.342,2.946c-3.607,1.891-5.746-1.196-8.259,0.856c-3.292,2.688-0.648,7.062-1.489,8.837
					C83.625,68.434,78.308,70.008,78.308,70.008z"/>
				<path fill-rule="evenodd" clip-rule="evenodd" fill="#FFEB95" d="M67.225,40.236c0,0,4.043,4.649,7.479,4.177
					s2.695-3.503,6.401-3.234s4.883,3.643,6.738,4.312c4.11,1.482,6.068-4.042,6.068-4.042s-2.86,0.264-4.451-0.203
					c-3.908-1.146-3.302-4.851-6.536-5.121c-4.235-0.353-5.372,4.629-7.21,5.323C72.144,42.796,67.225,40.236,67.225,40.236z"/>
				<path fill-rule="evenodd" clip-rule="evenodd" fill="#FFEB95" d="M79.201,11.941c0,0-0.321,6.152,2.478,8.2
					c2.8,2.047,4.373-0.648,6.852,2.12c2.479,2.768,0.981,6.013,1.851,7.783c1.927,3.921,7.173,1.307,7.173,1.307
					s-2.241-1.797-3.061-3.237c-2.016-3.539,0.995-5.783-1.144-8.224c-2.802-3.196-7.081-0.401-8.884-1.179
					C80.96,17.2,79.201,11.941,79.201,11.941z"/>
				<path fill-rule="evenodd" clip-rule="evenodd" fill="#FFEB95" d="M82.594,31.903c0,0,2.215-0.204,4.142,1.664
					c1.927,1.868,2.166,3.264,4.055,3.168S93.22,34.4,93.22,34.4s-1.278,0.917-3.491-1.336c-1.785-1.817-2.493-3.644-5.05-2.978
					C82.706,30.6,82.594,31.903,82.594,31.903z"/>
				<path fill-rule="evenodd" clip-rule="evenodd" fill="#FFEB95" d="M95.968,17.212c0,0,1.783,1.331,1.965,4.007
					c0.182,2.677-0.575,3.875,0.894,5.067s3.367-0.11,3.367-0.11s-1.563-0.174-1.7-3.329c-0.11-2.545,0.585-4.376-1.76-5.592
					C96.923,16.318,95.968,17.212,95.968,17.212z"/>
				<path fill-rule="evenodd" clip-rule="evenodd" fill="#FFEB95" d="M116.628,15.372c0,0,0.358,2.195-1.371,4.247
					c-1.729,2.052-3.105,2.388-2.877,4.266c0.228,1.877,2.499,2.26,2.499,2.26s-1.003-1.211,1.09-3.575
					c1.688-1.907,3.461-2.741,2.619-5.245C117.937,15.392,116.628,15.372,116.628,15.372z"/>
				<path fill-rule="evenodd" clip-rule="evenodd" fill="#FFEB95" d="M132.736,28.652c0,0-1.422,1.711-4.105,1.752
					c-2.684,0.042-3.84-0.777-5.108,0.627c-1.268,1.404-0.066,3.368-0.066,3.368s0.256-1.552,3.414-1.523
					c2.547,0.023,4.34,0.813,5.677-1.465C133.579,29.653,132.736,28.652,132.736,28.652z"/>
				<path fill-rule="evenodd" clip-rule="evenodd" fill="#FFEB95" d="M133.977,52.316c0,0-2.223,0.088-4.049-1.878
					c-1.826-1.966-1.992-3.373-3.884-3.376c-1.892-0.002-2.548,2.205-2.548,2.205s1.325-0.849,3.416,1.517
					c1.687,1.908,2.299,3.769,4.887,3.238C133.797,53.612,133.977,52.316,133.977,52.316z"/>
				<path fill-rule="evenodd" clip-rule="evenodd" fill="#FFEB95" d="M119.853,66.287c0,0-1.71-1.422-1.752-4.105
					c-0.042-2.683,0.776-3.839-0.627-5.107s-3.369-0.066-3.369-0.066s1.552,0.256,1.523,3.413c-0.023,2.547-0.813,4.339,1.465,5.676
					C118.852,67.13,119.853,66.287,119.853,66.287z"/>
				<path fill-rule="evenodd" clip-rule="evenodd" fill="#FFEB95" d="M99.125,67.044c0,0-0.243-2.211,1.591-4.17
					c1.834-1.959,3.226-2.223,3.097-4.109c-0.129-1.887-2.377-2.388-2.377-2.388s0.939,1.262-1.275,3.513
					c-1.786,1.816-3.6,2.557-2.889,5.101C97.819,66.955,99.125,67.044,99.125,67.044z"/>
				<path fill-rule="evenodd" clip-rule="evenodd" fill="#FFEB95" d="M83.734,52.939c0,0,1.51-1.634,4.191-1.535
					s3.794,0.977,5.133-0.359s0.243-3.36,0.243-3.36s-0.337,1.536-3.489,1.342c-2.542-0.156-4.291-1.039-5.745,1.166
					C82.944,51.896,83.734,52.939,83.734,52.939z"/>
			</g>
		</g>
		<g>
			<path fill-rule="evenodd" clip-rule="evenodd" fill="#B11116" d="M14.081,104.511h-0.552V82.168h7.646
				c1.4,0,2.78-0.085,4.138-0.255c0,0.269-0.021,0.756-0.063,1.462c-0.042,0.65-0.064,1.463-0.064,2.438
				c0,0.622-0.035,1.251-0.106,1.887h-0.509c-0.028-1.16-0.319-2.123-0.871-2.886c-0.566-0.778-1.762-1.167-3.587-1.167h-4.818
				v15.18c0,1.738,0.248,3.046,0.743,3.922c0.496,0.876,1.26,1.421,2.292,1.633v0.391C15.823,104.598,14.407,104.511,14.081,104.511
				z M4.946,82.168h7.008v22.343h-0.637c-0.92,0-2.294,0.087-4.122,0.261v-0.391c1.175-0.297,1.981-0.897,2.42-1.802
				c0.424-0.891,0.637-2.375,0.637-4.452v-14.48H4.84c-1.373,0-2.342,0.283-2.908,0.849C1.366,85.061,0.892,86.13,0.51,87.7H0.022
				C0.007,87.516,0,87.317,0,87.104c0-0.283,0.028-0.645,0.085-1.084c0.17-1.51,0.255-2.879,0.255-4.107
				c0.75,0.099,1.684,0.163,2.802,0.191L4.946,82.168z"/>
			<path fill-rule="evenodd" clip-rule="evenodd" fill="#B11116" d="M31.491,82.168h0.702v22.343h-1.402
				c-0.496,0-1.543,0.085-3.144,0.254v-0.381c0.764-0.198,1.344-0.559,1.741-1.082c0.41-0.537,0.686-1.151,0.827-1.844
				c0.156-0.735,0.234-2.29,0.234-4.664v-8.882c0-2.049-0.276-3.455-0.828-4.218s-1.209-1.229-1.974-1.399v-0.383
				C28.51,81.97,29.792,82.055,31.491,82.168z M42.219,104.511h-8.494V82.168h6.181c1.16,0,3.354-0.085,6.58-0.255
				c-0.028,0.426-0.042,0.745-0.042,0.958c0,0.284,0.035,0.944,0.106,1.98c0.042,0.696,0.064,1.072,0.064,1.128v0.532h-0.361
				c-0.509-1.219-1.09-2.005-1.74-2.359c-0.651-0.337-1.875-0.506-3.672-0.506h-3.375c-0.538,0-1.033,0.035-1.486,0.105
				c-0.254,0.478-0.403,1.616-0.445,3.415L35.491,88.6v3.436h4.584c1.726,0,2.872-0.148,3.438-0.445
				c0.566-0.297,1.019-1.005,1.358-2.123h0.467c-0.113,1.272-0.17,2.374-0.17,3.307c0,0.594,0.042,1.371,0.127,2.333
				c0.028,0.283,0.064,0.841,0.106,1.675h-0.467c-0.127-1.244-0.502-2.099-1.125-2.565c-0.637-0.469-1.635-0.703-2.994-0.703h-5.327
				v4.642c0,1.789,0.099,3.357,0.296,4.706c0.595,0.085,1.232,0.128,1.911,0.128h3.227c1.754,0,3.078-0.199,3.969-0.596
				c0.934-0.41,1.854-1.322,2.759-2.736h0.425c-0.156,0.65-0.389,1.398-0.7,2.246c-0.382,1.103-0.658,2.057-0.828,2.862
				C44.936,104.596,43.492,104.511,42.219,104.511z"/>
			<path fill-rule="evenodd" clip-rule="evenodd" fill="#B11116" d="M68.166,92.565c0.92-1.462,1.38-3.074,1.38-4.834
				c0-1.604-0.531-3.216-1.593-4.834c2.435,1.036,3.653,2.669,3.653,4.898C71.606,90.052,70.459,91.643,68.166,92.565z
				 M55.26,82.168v22.343h-0.913c-0.354,0-0.912,0.043-1.675,0.13c-0.651,0.087-1.415,0.13-2.291,0.13v-0.391
				c0.905-0.099,1.656-0.545,2.25-1.338s0.891-2.321,0.891-4.586V87.542c0-3.085-1.047-4.848-3.141-5.287v-0.391
				C51.287,81.982,52.913,82.083,55.26,82.168z M58.565,87.962v4.624c0.833,0.213,1.737,0.319,2.711,0.319
				c3.177,0,4.766-1.662,4.766-4.985c0-3.11-1.575-4.666-4.724-4.666c-1.016,0-1.807,0.206-2.372,0.618
				C58.692,84.441,58.565,85.804,58.565,87.962z M57.421,104.511h-0.615V82.168c0.847,0,1.751-0.043,2.711-0.13
				c1.102-0.116,1.999-0.174,2.69-0.174c1.935,0,3.375,0.591,4.322,1.774c0.948,1.179,1.423,2.634,1.423,4.367
				c0,2.939-1.238,4.821-3.715,5.645c1.231,0.169,2.265,0.537,3.1,1.103c0.892,0.608,2.244,1.824,4.056,3.648
				c2.759,2.797,5.009,4.196,6.75,4.196c0.354,0,0.714-0.12,1.083-0.36l0.085,0.384c-0.566,0.734-1.352,1.102-2.356,1.102
				c-1.075,0-2.2-0.402-3.375-1.208c-1.104-0.764-2.752-2.262-4.947-4.496c-2.627-2.714-5.184-4.071-7.669-4.071
				c1.539,0.48,3.621,2.099,6.247,4.855c1.854,1.923,3.34,3.322,4.458,4.199c1.132,0.876,2.215,1.314,3.249,1.314v0.194
				c-0.481,0.174-0.955,0.261-1.422,0.261c-1.373,0-2.562-0.35-3.566-1.049c-0.538-0.381-1.22-0.964-2.048-1.749
				c-0.828-0.785-1.822-1.799-2.982-3.042c-1.694-1.81-2.951-3.04-3.77-3.69c-0.875-0.665-1.729-1.131-2.563-1.399v5.025
				c0,3.379,1.019,5.217,3.057,5.514v0.391C59.924,104.598,58.524,104.511,57.421,104.511z"/>
			<path fill-rule="evenodd" clip-rule="evenodd" fill="#B11116" d="M98.292,92.565c0.92-1.462,1.38-3.074,1.38-4.834
				c0-1.604-0.531-3.216-1.593-4.834c2.436,1.036,3.653,2.669,3.653,4.898C101.732,90.052,100.585,91.643,98.292,92.565z
				 M85.386,82.168v22.343h-0.912c-0.354,0-0.912,0.043-1.676,0.13c-0.65,0.087-1.414,0.13-2.291,0.13v-0.391
				c0.906-0.099,1.656-0.545,2.25-1.338c0.594-0.792,0.891-2.321,0.891-4.586V87.542c0-3.085-1.047-4.848-3.142-5.287v-0.391
				C81.413,81.982,83.039,82.083,85.386,82.168z M88.691,87.962v4.624c0.833,0.213,1.737,0.319,2.711,0.319
				c3.177,0,4.765-1.662,4.765-4.985c0-3.11-1.574-4.666-4.723-4.666c-1.017,0-1.807,0.206-2.373,0.618
				C88.818,84.441,88.691,85.804,88.691,87.962z M87.547,104.511h-0.615V82.168c0.848,0,1.751-0.043,2.711-0.13
				c1.102-0.116,1.999-0.174,2.69-0.174c1.935,0,3.375,0.591,4.322,1.774c0.949,1.179,1.423,2.634,1.423,4.367
				c0,2.939-1.238,4.821-3.715,5.645c1.231,0.169,2.265,0.537,3.1,1.103c0.892,0.608,2.244,1.824,4.056,3.648
				c2.759,2.797,5.01,4.196,6.75,4.196c0.354,0,0.715-0.12,1.083-0.36l0.085,0.384c-0.566,0.734-1.351,1.102-2.356,1.102
				c-1.076,0-2.201-0.402-3.375-1.208c-1.104-0.764-2.752-2.262-4.947-4.496c-2.627-2.714-5.184-4.071-7.669-4.071
				c1.539,0.48,3.621,2.099,6.247,4.855c1.854,1.923,3.34,3.322,4.458,4.199c1.132,0.876,2.215,1.314,3.249,1.314v0.194
				c-0.481,0.174-0.956,0.261-1.422,0.261c-1.373,0-2.562-0.35-3.566-1.049c-0.538-0.381-1.22-0.964-2.048-1.749
				s-1.822-1.799-2.982-3.042c-1.694-1.81-2.951-3.04-3.771-3.69c-0.875-0.665-1.729-1.131-2.562-1.399v5.025
				c0,3.379,1.019,5.217,3.056,5.514v0.391C90.051,104.598,88.65,104.511,87.547,104.511z"/>
			<path fill-rule="evenodd" clip-rule="evenodd" fill="#B11116" d="M134.09,104.511l-10.721-22.343h2.08
				c0.283,0.725,0.68,1.638,1.189,2.739c0.566,1.202,0.885,1.916,0.956,2.142c0.071,0.127,0.134,0.275,0.191,0.445l4.989,10.344
				c1.741,3.597,3.595,5.777,5.562,6.542v0.391C136.411,104.598,134.995,104.511,134.09,104.511z M118.932,93.818h6.411l-3.078-6.45
				L118.932,93.818z M127.997,99.373l-1.889-3.947h-8.004l-2.017,3.947l-0.105,0.276c-0.014,0.014-0.121,0.219-0.319,0.615
				c-0.297,0.594-0.446,1.203-0.446,1.825c0,1.075,0.595,1.838,1.784,2.292v0.391c-0.24,0-0.658-0.036-1.252-0.109
				c-0.835-0.101-1.585-0.152-2.25-0.152c-0.609,0-1.359,0.043-2.25,0.13c-0.608,0.087-1.012,0.13-1.21,0.13v-0.391
				c1.557-0.793,2.972-2.428,4.246-4.906l7.048-13.719c-0.538-1.089-1.277-1.931-2.218-2.524c-0.941-0.594-2.041-0.919-3.301-0.976
				v-0.391h0.743c0.665,0,1.578,0.043,2.738,0.13c1.217,0.116,2.01,0.174,2.377,0.174l10.721,22.343
				c-1.373,0.029-3.022,0.116-4.946,0.261v-0.391c1.076-0.184,1.613-0.764,1.613-1.74
				C129.058,101.919,128.704,100.83,127.997,99.373z"/>
			<path fill-rule="evenodd" clip-rule="evenodd" fill="#B11116" d="M164.83,96.928l6.795-14.759h1.635l0.998,22.343h-0.828
				c-0.595,0-1.373,0.043-2.335,0.13l-1.4,0.13v-0.391c1.698-0.467,2.547-1.989,2.547-4.565c0,0.042-0.014-0.432-0.043-1.423
				l-0.551-12.381l-6.796,14.888l-8.79-18.731h1.804L164.83,96.928z M175.829,104.511l-1.019-22.343h0.722
				c1.033,0,2.483-0.102,4.351-0.304v0.391c-0.976,0.169-1.726,0.623-2.249,1.359c-0.552,0.736-0.828,1.628-0.828,2.675l0.042,2.272
				l0.467,10.171c0.085,1.855,0.375,3.221,0.87,4.099c0.495,0.892,1.274,1.408,2.335,1.55v0.391
				C178.426,104.598,176.862,104.511,175.829,104.511z M154.324,82.168l9.678,20.578l-0.977,2.026l-8.786-18.739l-0.55,12.678
				c-0.029,1.274-0.043,1.798-0.043,1.571c0,2.477,0.953,3.843,2.859,4.098v0.391c-0.014,0-0.212-0.029-0.593-0.087
				c-1.581-0.116-2.625-0.174-3.134-0.174c-0.677,0-1.898,0.087-3.663,0.261v-0.391c1.793-0.467,2.767-2.308,2.922-5.521
				l0.614-14.503c-0.833-1.047-2.011-1.748-3.536-2.102v-0.391c1.144,0.13,2.364,0.203,3.663,0.217L154.324,82.168z"/>
			<path fill-rule="evenodd" clip-rule="evenodd" fill="#B11116" d="M190.093,104.511V82.168c1.756,0,3.314-0.102,4.674-0.304v0.391
				c-0.835,0.156-1.528,0.609-2.08,1.359c-0.566,0.778-0.85,2.385-0.85,4.82v10.128c0,2.18,0.297,3.645,0.892,4.396
				c0.594,0.75,1.273,1.225,2.038,1.423v0.391C193.437,104.598,191.878,104.511,190.093,104.511z M188.497,82.168v22.343
				c-1.02,0-2.57,0.087-4.652,0.261v-0.391c1.089-0.283,1.846-0.899,2.271-1.848c0.424-0.934,0.637-2.625,0.637-5.075v-9.491
				c0-1.84-0.22-3.192-0.658-4.056c-0.438-0.849-1.188-1.401-2.25-1.656v-0.391C185.572,82.033,187.124,82.134,188.497,82.168z"/>
			<path fill-rule="evenodd" clip-rule="evenodd" fill="#B11116" d="M221.044,104.511l-10.721-22.343h2.08
				c0.283,0.725,0.679,1.638,1.189,2.739c0.566,1.202,0.885,1.916,0.956,2.142c0.071,0.127,0.134,0.275,0.191,0.445l4.989,10.344
				c1.741,3.597,3.595,5.777,5.562,6.542v0.391C223.365,104.598,221.95,104.511,221.044,104.511z M205.886,93.818h6.411l-3.078-6.45
				L205.886,93.818z M214.951,99.373l-1.889-3.947h-8.003l-2.017,3.947l-0.106,0.276c-0.014,0.014-0.121,0.219-0.319,0.615
				c-0.297,0.594-0.446,1.203-0.446,1.825c0,1.075,0.595,1.838,1.784,2.292v0.391c-0.24,0-0.658-0.036-1.252-0.109
				c-0.835-0.101-1.585-0.152-2.25-0.152c-0.608,0-1.358,0.043-2.25,0.13c-0.608,0.087-1.012,0.13-1.21,0.13v-0.391
				c1.557-0.793,2.972-2.428,4.246-4.906l7.048-13.719c-0.538-1.089-1.277-1.931-2.218-2.524c-0.941-0.594-2.041-0.919-3.301-0.976
				v-0.391h0.743c0.666,0,1.578,0.043,2.739,0.13c1.217,0.116,2.01,0.174,2.377,0.174l10.721,22.343
				c-1.373,0.029-3.022,0.116-4.946,0.261v-0.391c1.076-0.184,1.613-0.764,1.613-1.74
				C216.013,101.919,215.659,100.83,214.951,99.373z"/>
		</g>
	</g>
</g>
</svg>
