<?xml version="1.0" encoding="utf-8"?>
<!-- Generator: Adobe Illustrator 16.0.0, SVG Export Plug-In . SVG Version: 6.00 Build 0)  -->
<!DOCTYPE svg PUBLIC "-//W3C//DTD SVG 1.1//EN" "http://www.w3.org/Graphics/SVG/1.1/DTD/svg11.dtd">
<svg version="1.1" id="Layer_1" xmlns="http://www.w3.org/2000/svg" xmlns:xlink="http://www.w3.org/1999/xlink" x="0px" y="0px"
	 width="175.75px" height="133.384px" viewBox="8.504 29.687 175.75 133.384" enable-background="new 8.504 29.687 175.75 133.384"
	 xml:space="preserve">
<g>
	<path fill="#FFE1A9" d="M70.512,91.506c0,0,0.411-7.017,11.08-19.121c0,0,0.985-1.642-0.78-2.011c0,0-4.227-1.108-4.678-4.678
		c0,0-4.268-0.615-5.334-4.677c0,0-8.863-4.596-5.047-14.034c0,0-1.19-4.104,0.943-7.058c0,0,1.847-2.544,6.155-3.324
		c0,0,3.98-4.965,9.93-6.36c0,0,7.058-1.354,12.146,0.164c0,0,1.272,0.575,3.446,0.575c0,0,8.987-0.37,11.776,5.581
		c0,0,3.406,2.215,3.488,5.498c0,0,0.081,4.062-2.791,6.114c0,0,0.041,2.462-0.738,4.104c0,0,1.23,2.256,2.545,3.159
		c0,0,1.519,0.78,0.943,3.037c0,0-0.287,1.806-2.176,2.093c0,0,0.861,1.846-0.287,2.708c0,0,0.533,2.421-1.683,2.955
		c0,0,0.491,3.775-1.97,5.211c0,0-2.791,1.642-5.662,0.533c0,0-0.205,0.985,2.093,1.641c0,0,2.626,1.19,2.462,3.734
		c0,0-0.328,1.682,0.656,2.134c0,0,1.683,1.436,0.287,3.611c0,0-0.492,1.067,0.492,1.354c0,0,2.996,1.478,4.678,7.058l-25.358,0.042
		L70.512,91.506L70.512,91.506z"/>
	<path fill="#6C4F4B" d="M67.536,46.957c0,0-1.2-4.011,0.721-6.103c0,0,0.788-1.234,4.56-2.468c0,0,0.514,0.068,1.406-0.823
		s3.406-4.022,8.846-5.531c0,0,6.446-1.623,12.251,0.434c0,0,0.892,0.48,2.675,0.274c0,0,3.634-0.229,6.331,1.006
		c0,0,2.88,1.12,4.457,4.389c0,0,3.063,1.394,2.993,4.982c0,0-0.158,2.926-2.377,3.658c0,0-0.937,0.32-0.502,1.486
		c0,0,0.367,0.823-0.412,2.971c0,0-0.639,1.029,0.16,2.377c0,0,0.641,1.28,2.516,3.154c0,0,1.484,1.165,0.205,2.125
		c0,0-2.789,0.594-2.012,2.194c0,0,0.571,0.869,0.252,1.349c0,0-1.439,0.617-1.326,0.846c0,0,1.303,0.297,1.144,1.051
		c0,0,0.183,0.297-1.233,0.823c0,0-1.121,0.48-0.549,1.714c0,0,0.273,3.177-2.24,3.543c0,0-1.691,0.457-5.234-0.183
		c0,0-1.622,2.743,1.669,4.664c0,0,1.485,0.343,2.515,1.668c0,0,0.48,0.8,0.16,1.966c0,0-0.344,0.8,0.754,1.806
		c1.098,1.005,0.457,2.149,0.229,2.537c-0.229,0.389-0.914,1.783,0.479,2.743c1.395,0.96,2.674,1.806,3.656,4.366l-36.96,0.069
		c0,0,2.057-7.36,10.034-16.046c0,0,1.44-1.554,0.686-3.314c0,0-0.572-1.486-1.966-1.783c0,0-3.428-0.8-3.955-4.412
		c0,0-4.457-0.251-5.326-4.8c0,0-1.966-0.137-3.817-3.178C68.325,56.511,65.033,53.015,67.536,46.957L67.536,46.957z"/>
	<path fill="#FFE1A9" d="M85.538,34.581c0,0-0.363-0.363,0.109-0.473c0,0,1.491-0.363,3.708-0.146c0,0,2.436,0.146,3.708-0.799
		c0,0,0.619-0.218,0.182,0.654c0,0-0.981,1.236-3.962,0.909C89.283,34.726,87.21,34.253,85.538,34.581L85.538,34.581z M96.3,46.453
		c0,0-0.756,0.324,0.054,0.621c0,0,7.125,1.97,10.93-3.509c0,0,0.484,1.97,2.188,0.783c0,0,0.241-0.567-0.271-0.594
		c0,0-1.512-0.027-0.891-2.321c0,0,0.271-1.052-0.352-0.917c0,0-0.54-0.27-0.782,0.648C107.177,41.164,105.665,48.477,96.3,46.453
		L96.3,46.453z M78.595,87.583c0,0,0.073,0.582,0.836,0.218c0,0,2.363-5.889,8.215-6.362c0,0,5.817-0.473,9.888,6.144
		c0,0,0.4,0.836,0.945,0.582c0,0,0.654-0.145,0-1.163c0,0-4.398-6.979-11.051-6.58C87.429,80.421,81.249,80.712,78.595,87.583
		L78.595,87.583z M96.952,68.279c0,0-0.217,0.472-0.072,0.727c0,0,0.691,0.582,2.618,0.909
		C99.498,69.915,97.171,68.788,96.952,68.279L96.952,68.279z M86.665,69.043c0,0-0.363,0.764,0.255,0.69l0.836-0.436
		c0,0,1.309-0.582,1.454,1.091c0,0,0.036,1.672,1.709,1.09c0,0,1.417-0.764,1.526,0.727c0,0,0.292,1.49,1.927,0.945
		c0,0,1.526-0.8,2.145-0.146c0,0,1.164,0.728,0.873,1.709c0,0-0.618,1.49,0.146,2.363c0,0,0.399,0.981,2.073,0.618
		c0,0,1.453-0.727,1.926-0.255c0,0,0.582,0.255,0.291,0.909c0,0-0.327,1.018,0.871,1.127c0,0,0.873,0.327,0.184,1.018
		c0,0-1.709,1.381-0.873,2.944c0,0,1.018,1.745,1.127,2.472c0,0,0.073,0.836-0.363,0.109c0,0-8.796-9.852-18.686-11.633
		c0,0-0.545-0.146-0.654,0.4c0,0-0.182,0.4,0.437,0.509c0,0,9.415,1.345,18.357,11.778c0,0,0.765,1.127,1.199,0.437
		c0,0,0.944-1.018,0.327-2.327l-1.019-2.108c0,0-0.473-0.545,0.108-1.236l0.873-1.091c0,0,0.836-1.381-0.582-2.036
		c0,0-0.653,0.109-0.473-0.654c0,0,0.073-2.326-2.29-1.636c0,0-2.473,1.054-2.219-0.836c0,0,0.91-2.326-0.907-3.308
		c0,0-1.2-0.909-2.582-0.145c0,0-1.453,0.763-1.417-0.509c0,0-0.327-1.672-2.036-1.09c0,0-1.236,0.363-1.2-0.8
		C90.01,69.733,89.283,67.043,86.665,69.043L86.665,69.043z M80.594,67.153c0,0,2.763,1.054,4.253-1.055
		c0,0,0.473-0.618,0.473,0.182C85.32,66.28,83.321,69.879,80.594,67.153L80.594,67.153z M81.503,64.571c0,0,4.072,0.945,4.472-3.199
		c0,0,0.254-0.363,0.327,0.437c0,0,0.291,4.399-4.762,3.09C81.54,64.899,81.249,64.753,81.503,64.571L81.503,64.571z M77.068,63.153
		c0,0,1.636,0.691,2.472-1.054c0,0,0.364-0.218,0.327,0.291c0,0-0.4,2-2.617,1.236c0,0-0.654-0.327-0.182-0.4
		C77.541,63.153,77.068,63.153,77.068,63.153L77.068,63.153z M72.342,58.9c0,0,1.49,1.054,1.89-0.364c0,0,0.618-0.581,0.582,0.473
		C74.814,59.01,74.342,61.082,72.342,58.9L72.342,58.9z M72.851,57.519c0,0-2.835-0.146-2.617-1.818c0,0-0.473-0.763-0.545,0.691
		C69.688,56.392,69.871,57.956,72.851,57.519L72.851,57.519z M72.924,48.576c0,0-0.255,6.907,5.961,8.761
		c0,0,0.873,0.473,0.073,0.654c0,0-7.234-0.945-6.507-8.797C72.451,49.194,72.451,48.177,72.924,48.576L72.924,48.576z
		 M72.96,42.251c0,0-0.218-1.563,0.691-2.29c0,0,0.109-1.127-0.763-0.473c0,0-0.909,1.49-0.363,2.908
		C72.524,42.396,72.742,42.578,72.96,42.251L72.96,42.251z M89.028,59.918c0,0,7.125-0.836,9.999-9.597c0,0,0.218-1.2-0.364-1.054
		c0,0-0.254-0.073-0.654,1.309c0,0-2.944,7.743-9.379,8.651C88.628,59.228,87.538,59.81,89.028,59.918L89.028,59.918z
		 M87.429,50.721c0,0-0.691,0.036-0.291,0.69c0,0,6.471,2.436,10.179-2.29c0,0,0.218-0.654-0.438-0.472
		C96.88,48.649,93.79,52.721,87.429,50.721L87.429,50.721z M81.176,47.195c0,0,4.362-3.744,10.614-2.326
		c0,0,7.779,2.617,11.889-1.018c0,0,0.325-0.509-0.438-0.218c0,0-3.817,2.472-9.234,0.873c0,0-7.997-2.182-12.105,1.381
		C81.903,45.886,80.122,47.049,81.176,47.195L81.176,47.195z M76.269,45.741c0,0-0.909-0.182-0.073-0.582
		c0,0,4.071-0.254,7.452-2.399c0,0,4.726-2.327,7.815-0.8c0,0,0.619,0.473-1.817,0.509c0,0-3.271-0.218-6.034,1.2
		C83.612,43.669,80.231,45.377,76.269,45.741L76.269,45.741z M82.921,37.016c0,0,1.418-1.091,3.054-0.909
		c0,0,1.672,0.109,2.544-0.618C88.519,35.489,84.448,34.472,82.921,37.016L82.921,37.016z"/>
	<path fill="#FFE1A9" d="M90.203,119.67c0,0-8.528,5.715-13.063-3.446c0,0-1.361-2.632,1.542-4.175c0,0,22.499-10.977,30.844-12.7
		c0,0,9.162-2.63,12.429,3.629c0,0,2.337,3.305,3.206,8.026c0,0,7.082-5.28,10.811-0.562c0,0,2.547,0.125,3.788,2.238
		c0,0,1.739-5.592,9.442-8.512c0,0,8.387-2.795,10.934,1.926c0,0,3.977-5.219,9.193-8.512c0,0,2.547-1.49,5.156,0.062
		c0,0,1.305-2.857,4.1-1.491l4.908,3.727c0,0,1.367,1.119,0.436,3.168c0,0-6.337,15.656-8.636,24.166c0,0-0.187,3.666-3.417,3.105
		c0,0-3.541,0.062-4.845-2.049c0,0-3.169,5.03-7.206,3.291c0,0-3.729-1.738-5.404-3.043l-1.367,2.483c0,0,1.615-0.248,2.547,0.685
		c0,0,1.926,1.242,0.809,3.666c0,0-4.535,10.994-18.201,16.026c0,0-9.505,3.789-20.127,2.359c0,0-9.878-0.869-24.165-12.113
		l-5.156,12.61c0,0-0.87,3.105-3.914,1.927c0,0-2.919-0.746-5.405-2.981c0,0-3.044-2.921-1.304-8.015c0,0,0.994-3.789,4.473-10.498
		c0,0-2.174-1.058-1.615-3.293c0,0,0.124-1.801,3.23-2.483c0,0,1.74-0.562,2.236-0.994L90.203,119.67L90.203,119.67z
		 M27.085,125.976c0,0-11.583,4.614-16.105-6.414c0,0-1.523-4.154,2.307-4.478c0,0,4.246,1.338,10.799-1.338
		c0,0,13.891-4.983,28.842-11.953c0,0,13.752-6.737,21.644-4.707c0,0,4.384,0.924,5.722,6.783c0,0,1.154,4.432-3.461,3.832
		c0,0-2.446-0.74-8.769,1.891c0,0-7.429,2.861-13.013,5.354c0,0,7.475,0.691,4.015,9.092c0,0,4.661-4.385,7.753-5.953
		c0,0,2.354-1.201,4.246,0.461c0,0,1.708-2.906,4.338-1.523l4.015,2.955c0,0,2.308,1.707,1.385,3.967c0,0-6.83,16.847-8.769,23.63
		c0,0,0.37,3.69-3.323,3.553c0,0-3.461,0.14-4.938-2.168c0,0-2.907,5.121-7.661,3.185c0,0-3.045-1.062-5.999-3.877
		c0,0-2.492-1.894-0.277-6.322c0,0-3.185,5.676-6.322,12.736c0,0-0.139,4.153-3.738,3.924c0,0-5.399-0.924-6.876-7.66
		c0,0-0.646-1.433,1.246-5.539c0,0,8.629-17.166,10.291-19.705c0,0,0.923-2.123,2.907-1.984c0,0-1.2-2.584,0.784-5.814
		c0,0-1.338,0.187-1.8,0.832c0,0-4.522,7.938-10.198,18.781c0,0-7.522,15.967-8.907,20.26c0,0,0,0.14-0.831,2.998
		c0,0-0.554,3.047-3.968,2.125c0,0-5.492-1.848-7.061-5.539c0,0-1.338-3.274,0.692-8.168c0,0,2.769-6.645,6.738-14.352
		C22.793,134.836,25.377,129.713,27.085,125.976L27.085,125.976z"/>
	<path fill="#FFFFFF" d="M88.026,116.949c0,0-8.527,5.715-13.063-3.447c0,0-1.361-2.631,1.542-4.174
		c0,0,22.498-10.978,30.846-12.701c0,0,9.162-2.629,12.428,3.629c0,0,2.338,3.306,3.207,8.027c0,0,7.082-5.281,10.809-0.562
		c0,0,2.548,0.125,3.79,2.236c0,0,1.739-5.59,9.442-8.51c0,0,8.387-2.795,10.933,1.926c0,0,3.978-5.219,9.194-8.51
		c0,0,2.548-1.491,5.156,0.062c0,0,1.303-2.858,4.1-1.491l4.908,3.726c0,0,1.365,1.119,0.434,3.168c0,0-6.335,15.656-8.635,24.166
		c0,0-0.186,3.664-3.415,3.105c0,0-3.542,0.062-4.847-2.05c0,0-3.168,5.031-7.205,3.291c0,0-3.729-1.737-5.405-3.043l-1.366,2.484
		c0,0,1.615-0.248,2.546,0.684c0,0,1.927,1.242,0.81,3.666c0,0-4.535,10.994-18.202,16.025c0,0-9.505,3.791-20.127,2.36
		c0,0-9.878-0.869-24.165-12.112l-5.156,12.608c0,0-0.87,3.107-3.914,1.928c0,0-2.92-0.746-5.404-2.981c0,0-3.044-2.92-1.305-8.017
		c0,0,0.994-3.786,4.473-10.495c0,0-2.174-1.058-1.615-3.294c0,0,0.125-1.801,3.23-2.483c0,0,1.739-0.562,2.236-0.994
		L88.026,116.949L88.026,116.949z M24.908,123.254c0,0-11.583,4.615-16.105-6.414c0,0-1.523-4.151,2.308-4.478
		c0,0,4.245,1.339,10.798-1.338c0,0,13.89-4.983,28.842-11.952c0,0,13.752-6.737,21.644-4.707c0,0,4.384,0.923,5.723,6.782
		c0,0,1.154,4.433-3.461,3.83c0,0-2.446-0.737-8.768,1.894c0,0-7.43,2.86-13.014,5.354c0,0,7.476,0.69,4.015,9.092
		c0,0,4.661-4.385,7.753-5.953c0,0,2.354-1.201,4.245,0.461c0,0,1.708-2.908,4.338-1.523l4.015,2.955c0,0,2.307,1.707,1.384,3.969
		c0,0-6.83,16.844-8.768,23.627c0,0,0.369,3.691-3.322,3.554c0,0-3.461,0.139-4.938-2.169c0,0-2.907,5.121-7.66,3.185
		c0,0-3.046-1.062-6-3.877c0,0-2.492-1.894-0.276-6.321c0,0-3.184,5.676-6.323,12.735c0,0-0.138,4.153-3.738,3.924
		c0,0-5.399-0.924-6.876-7.659c0,0-0.646-1.431,1.246-5.539c0,0,8.63-17.166,10.291-19.705c0,0,0.923-2.123,2.908-1.984
		c0,0-1.2-2.584,0.785-5.814c0,0-1.338,0.187-1.8,0.83c0,0-4.522,7.939-10.198,18.783c0,0-7.522,15.967-8.907,20.26
		c0,0,0,0.139-0.831,2.998c0,0-0.554,3.047-3.968,2.125c0,0-5.492-1.848-7.061-5.539c0,0-1.338-3.275,0.692-8.168
		c0,0,2.769-6.645,6.737-14.352C20.616,132.115,23.201,126.992,24.908,123.254L24.908,123.254z"/>
	<path fill="#D71829" d="M71.697,116.808l-2.094,4.09c-2.24-3.992-4.577-2.482-4.577-2.482c-6.574,4.188-9.885,10.322-9.885,10.322
		c-4.626,7.451-5.162,13.1-5.162,13.1c-0.341,2.045,0.341,2.387,0.341,2.387c1.266,1.021,4.236,2.531,4.236,2.531
		c1.997,1.072,3.458-0.73,3.458-0.73c2.63-2.629,5.405-7.45,5.405-7.45c-1.607,7.84,3.457,6.866,3.457,6.866
		c1.753-7.791,9.155-25.42,9.155-25.42L71.697,116.808L71.697,116.808z M116.497,141.836c-13.538-3.942-20.354-12.66-20.354-12.66
		c7.986-3.36,13.731-7.646,13.731-7.646c6.816-4.918,9.204-9.35,9.204-9.35c1.362-2.824,0.341-6.478,0.341-6.478
		c-1.363-2.629-3.165-5.111-3.165-5.111c-2.728-3.312-9.495-0.827-9.495-0.827c-6.136,1.801-15.632,6.036-15.632,6.036
		c-3.311,1.56-13.684,6.478-13.684,6.478c1.705,5.697,7.304,3.117,7.304,3.117c2.922-1.119,9.885-5.31,9.885-5.31
		c-1.558,3.896-8.327,17.238-8.327,17.238c-1.704,0.926-4.724,1.852-4.724,1.852c0.536,0.535,2.776,1.654,2.776,1.654
		c-2.971,5.31-5.941,13.051-5.941,13.051c-1.509,5.211,5.21,7.256,5.21,7.256l6.963-17.188c6.719,6.232,12.271,9.154,12.271,9.154
		c12.951,7.938,24.104,5.403,24.104,5.403c20.014-4.139,24.445-17.141,24.445-17.141
		C133.396,148.117,116.497,141.836,116.497,141.836L116.497,141.836z M131.739,110.231c-1.268-2.58-3.799-1.362-3.799-1.362
		c-3.994,1.313-7.89,6.573-7.89,6.573c-5.452,6.478-8.229,14.023-8.229,14.023c-2.336,6.33,2.24,8.717,2.24,8.717
		c4.383,1.898,8.717-1.217,8.717-1.217c3.75-2.24,7.89-9.934,7.89-9.934c4.966-9.398,5.259-12.223,5.259-12.223
		C136.657,110.865,131.739,110.231,131.739,110.231L131.739,110.231z M174.817,95.934l-2.094,4.09
		c-2.24-3.992-4.576-2.482-4.576-2.482c-6.574,4.188-9.887,10.322-9.887,10.322c-4.626,7.451-5.16,13.1-5.16,13.1
		c-0.342,2.045,0.34,2.387,0.34,2.387c1.267,1.021,4.236,2.531,4.236,2.531c1.996,1.072,3.457-0.73,3.457-0.73
		c2.631-2.629,5.405-7.448,5.405-7.448c-1.606,7.84,3.457,6.864,3.457,6.864c1.754-7.791,9.155-25.418,9.155-25.418L174.817,95.934
		L174.817,95.934z M11.169,115.248c0,0,5.016,1.851,17.433-3.75c0,0,20.403-8.57,28.584-11.832c0,0,16.313-7.548,18.212,2.678
		c0,0-4.334-0.778-11.492,2.339l-21.718,9.008c0,0-5.648,9.545-11.59,21.67c0,0-7.596,14.754-9.252,22.205
		c0,0-7.012-1.558-5.649-7.451c0,0,2.874-9.057,8.814-19.187c5.94-10.129,5.648-10.614,6.866-13.1c0,0-10.226,5.211-15.144,3.166
		C16.233,120.994,12.679,119.875,11.169,115.248L11.169,115.248z M103.646,106.465l7.254-2.131c3.442-1.147,4.223,0.328,4.223,0.328
		c1.68,2.418-3.361,7.989-3.361,7.989c-7.008,7.951-17.541,12.623-17.541,12.623C96.063,120.112,103.646,106.465,103.646,106.465
		L103.646,106.465z M141.624,120.849c0,0-4.382,4.87-1.12,7.791c0,0,2.63,0.682,3.651-4.041c0,0,0.391-1.755-2.239-5.845
		c0,0-3.265-4.576-1.996-7.207c0,0,2.532-6.135,9.836-7.646c0,0,5.795-1.461,5.845,2.679c0,0,0.096,5.26-6.281,5.94
		c0,0,1.996-5.989-1.754-4.627c0,0-2.387,1.363-0.244,4.092c0,0,3.943,4.675,3.264,9.154c0,0-0.293,5.258-7.014,9.982
		c0,0-7.889,4.869-10.42-1.898c0,0-1.362-3.117,2.971-7.305C136.121,121.92,139.237,119.19,141.624,120.849L141.624,120.849z
		 M126.334,124.062c0,0-4.285,7.402-8.717,10.42c0,0-1.313-4.235,3.556-11.782c0,0,5.502-8.134,9.689-10.617
		C130.862,112.082,131.592,115.59,126.334,124.062L126.334,124.062z M171.117,102.459c0,0-6.573,14.269-11.492,19.916
		c0,0-0.778-4.771,3.651-11.979c0,0,2.19-4.041,7.013-8.424C170.289,101.974,171.215,101.39,171.117,102.459L171.117,102.459z
		 M67.997,123.332c0,0-6.574,14.269-11.492,19.916c0,0-0.78-4.771,3.651-11.979c0,0,2.191-4.041,7.013-8.426
		C67.169,122.844,68.094,122.26,67.997,123.332L67.997,123.332z M52.999,122.211c0,0,3.555-4.869,0.974-6.524
		c0,0-1.802-0.875-3.409-1.07c0,0-0.779-0.389-1.168,0.535c-0.584,0.975-0.633,1.072-1.412,2.971c0,0-0.682,1.559,0.438,2.531
		C48.421,120.651,49.005,121.435,52.999,122.211L52.999,122.211z M51.343,125.912c0,0-10.859,19.625-13.391,27.172
		c0,0-3.993-1.996-4.431-5.017c0,0-0.341-1.118,0.73-3.311l10.712-20.695C44.963,124.062,47.691,123.722,51.343,125.912
		L51.343,125.912z"/>
</g>
</svg>
