<?xml version="1.0" encoding="utf-8"?>
<!-- Generator: Adobe Illustrator 16.0.0, SVG Export Plug-In . SVG Version: 6.00 Build 0)  -->
<!DOCTYPE svg PUBLIC "-//W3C//DTD SVG 1.1//EN" "http://www.w3.org/Graphics/SVG/1.1/DTD/svg11.dtd">
<svg version="1.1" id="Layer_1" xmlns="http://www.w3.org/2000/svg" xmlns:xlink="http://www.w3.org/1999/xlink" x="0px" y="0px"
	 width="585.256px" height="163.919px" viewBox="106.919 227.291 585.256 163.919"
	 enable-background="new 106.919 227.291 585.256 163.919" xml:space="preserve">
<g>
	<g>
		<g>
			<g>
				<path fill="#007DC3" d="M118.5,376.568c1.588,0.811,4.03,1.625,6.546,1.625c2.713,0,4.148-1.121,4.148-2.826
					c0-1.629-1.24-2.555-4.379-3.68c-4.34-1.519-7.166-3.912-7.166-7.713c0-4.457,3.719-7.865,9.877-7.865
					c2.945,0,5.116,0.621,6.666,1.322l-1.318,4.764c-1.046-0.504-2.907-1.244-5.463-1.244c-2.557,0-3.795,1.168-3.795,2.518
					c0,1.668,1.47,2.402,4.843,3.682c4.609,1.707,6.779,4.107,6.779,7.785c0,4.381-3.371,8.14-10.54,8.14
					c-2.982,0-5.926-0.808-7.397-1.625L118.5,376.568z"/>
				<path fill="#007DC3" d="M155.15,378.039c0,1.822,0.077,3.564,0.272,4.607h-5.308l-0.349-1.898h-0.117
					c-1.241,1.52-3.175,2.326-5.422,2.326c-3.837,0-6.123-2.787-6.123-5.811c0-4.919,4.417-7.281,11.121-7.244v-0.273
					c0-1.004-0.545-2.438-3.449-2.438c-1.941,0-3.992,0.657-5.23,1.434l-1.086-3.797c1.317-0.738,3.913-1.67,7.361-1.67
					c6.313,0,8.329,3.725,8.329,8.178L155.15,378.039L155.15,378.039z M149.418,373.697c-3.101-0.037-5.503,0.701-5.503,2.984
					c0,1.512,1.008,2.25,2.326,2.25c1.471,0,2.673-0.97,3.062-2.173c0.077-0.307,0.116-0.657,0.116-1.006L149.418,373.697
					L149.418,373.697z"/>
				<path fill="#007DC3" d="M163.713,363.705l2.557,8.793c0.465,1.594,0.814,3.102,1.085,4.609h0.117
					c0.31-1.551,0.62-2.98,1.045-4.609l2.439-8.793h6.201l-7.052,18.941h-5.888l-6.896-18.941H163.713z"/>
				<path fill="#007DC3" d="M183.823,375.055c0.19,2.438,2.593,3.605,5.346,3.605c2.012,0,3.64-0.275,5.229-0.773l0.776,3.99
					c-1.939,0.77-4.3,1.197-6.859,1.197c-6.433,0-10.113-3.758-10.113-9.686c0-4.8,2.986-10.113,9.57-10.113
					c6.121,0,8.448,4.766,8.448,9.453c0,1.01-0.118,1.903-0.195,2.325L183.823,375.055L183.823,375.055z M190.757,371.025
					c0-1.43-0.622-3.834-3.333-3.834c-2.48,0-3.487,2.248-3.643,3.834H190.757z"/>
				<path fill="#007DC3" d="M207.57,369.746c0-2.361-0.078-4.377-0.157-6.041h4.959l0.271,2.557h0.117
					c0.815-1.201,2.48-2.986,5.735-2.986c2.439,0,4.376,1.24,5.191,3.218h0.077c0.698-1.011,1.55-1.74,2.44-2.285
					c1.047-0.621,2.209-0.933,3.605-0.933c3.639,0,6.39,2.562,6.39,8.218v11.153h-5.733v-10.301c0-2.75-0.891-4.342-2.788-4.342
					c-1.357,0-2.325,0.932-2.712,2.057c-0.155,0.424-0.234,1.045-0.234,1.508v11.078h-5.732v-10.614
					c0-2.398-0.854-4.027-2.711-4.027c-1.512,0-2.401,1.164-2.751,2.129c-0.195,0.466-0.233,1.011-0.233,1.476v11.039h-5.733
					L207.57,369.746L207.57,369.746z"/>
				<path fill="#007DC3" d="M259.6,372.965c0,6.932-4.921,10.109-9.994,10.109c-5.54,0-9.804-3.641-9.804-9.76
					c0-6.123,4.032-10.039,10.112-10.039C255.725,363.275,259.6,367.271,259.6,372.965z M245.886,373.158
					c0,3.256,1.355,5.695,3.874,5.695c2.285,0,3.758-2.285,3.758-5.695c0-2.832-1.085-5.691-3.758-5.691
					C246.931,367.467,245.886,370.365,245.886,373.158z"/>
				<path fill="#007DC3" d="M263.24,369.746c0-2.361-0.076-4.377-0.152-6.041h5.111l0.272,2.592h0.114
					c0.778-1.203,2.714-3.021,5.851-3.021c3.877,0,6.782,2.562,6.782,8.138v11.233h-5.891V372.15c0-2.441-0.852-4.109-2.981-4.109
					c-1.628,0-2.596,1.127-2.982,2.211c-0.157,0.385-0.233,0.934-0.233,1.473v10.922h-5.89L263.24,369.746L263.24,369.746z"/>
				<path fill="#007DC3" d="M290.477,375.055c0.194,2.438,2.596,3.605,5.348,3.605c2.015,0,3.641-0.275,5.229-0.773l0.777,3.99
					c-1.941,0.77-4.304,1.197-6.859,1.197c-6.432,0-10.112-3.758-10.112-9.686c0-4.8,2.984-10.113,9.57-10.113
					c6.122,0,8.445,4.766,8.445,9.453c0,1.01-0.114,1.903-0.193,2.325L290.477,375.055L290.477,375.055z M297.412,371.025
					c0-1.43-0.618-3.834-3.331-3.834c-2.481,0-3.488,2.248-3.641,3.834H297.412z"/>
				<path fill="#007DC3" d="M310.585,363.705l2.828,9.301c0.31,1.121,0.697,2.516,0.928,3.523h0.115
					c0.272-1.008,0.583-2.438,0.854-3.523l2.324-9.301h6.316l-4.419,12.475c-2.71,7.516-4.533,10.537-6.66,12.434
					c-2.057,1.783-4.225,2.402-5.697,2.597l-1.241-4.994c0.737-0.118,1.665-0.463,2.557-1.006c0.892-0.469,1.857-1.396,2.44-2.369
					c0.194-0.268,0.311-0.571,0.311-0.85c0-0.189-0.04-0.5-0.273-0.966l-6.933-17.319L310.585,363.705L310.585,363.705z"/>
				<path fill="#007DC3" d="M329.401,383.074c-1.979,0-3.409-1.508-3.409-3.566c0-2.086,1.429-3.598,3.484-3.598
					c2.057,0,3.449,1.469,3.449,3.598c0,2.059-1.393,3.566-3.488,3.566H329.401z"/>
			</g>
			<g>
				<path fill="#007DC3" d="M346.072,356.533H352v21.158h10.384v4.955h-16.312V356.533z"/>
				<path fill="#007DC3" d="M372.533,358.436c0,1.631-1.24,2.949-3.176,2.949c-1.861,0-3.099-1.318-3.06-2.949
					c-0.039-1.705,1.198-2.979,3.097-2.979S372.495,356.73,372.533,358.436z M366.449,382.646v-18.941h5.89v14.311v4.631H366.449
					L366.449,382.646z"/>
				<path fill="#007DC3" d="M382.22,363.705l2.557,8.793c0.46,1.594,0.814,3.102,1.084,4.609h0.113
					c0.309-1.551,0.623-2.98,1.051-4.609l2.441-8.793h6.2l-7.053,18.941h-5.896l-6.892-18.941H382.22z"/>
				<path fill="#007DC3" d="M402.33,375.055c0.193,2.438,2.596,3.605,5.343,3.605c2.019,0,3.646-0.275,5.232-0.773l0.772,3.99
					c-1.938,0.77-4.301,1.197-6.854,1.197c-6.434,0-10.116-3.758-10.116-9.686c0-4.8,2.986-10.113,9.57-10.113
					c6.122,0,8.447,4.766,8.447,9.453c0,1.01-0.116,1.903-0.2,2.325L402.33,375.055L402.33,375.055z M409.267,371.025
					c0-1.43-0.618-3.834-3.337-3.834c-2.481,0-3.485,2.248-3.637,3.834H409.267z"/>
				<path fill="#007DC3" d="M426.079,355.143h5.885v10.812h0.08c1.125-1.631,3.103-2.679,5.737-2.679
					c4.526,0,7.863,3.765,7.818,9.574c0,6.816-4.335,10.226-8.673,10.226c-2.206,0-4.343-0.808-5.698-3.06h-0.077l-0.234,2.631
					h-4.994c0.074-1.233,0.156-3.521,0.156-5.651V355.143z M431.964,374.59c0,0.387,0.041,0.74,0.117,1.051
					c0.385,1.582,1.742,2.783,3.451,2.783c2.519,0,4.066-1.936,4.066-5.344c0-2.947-1.317-5.268-4.066-5.268
					c-1.592,0-3.066,1.196-3.451,2.905c-0.076,0.349-0.117,0.693-0.117,1.089V374.59z"/>
				<path fill="#007DC3" d="M453.897,375.055c0.192,2.438,2.595,3.605,5.343,3.605c2.016,0,3.643-0.275,5.229-0.773l0.776,3.99
					c-1.936,0.77-4.304,1.197-6.862,1.197c-6.429,0-10.105-3.758-10.105-9.686c0-4.8,2.981-10.113,9.57-10.113
					c6.121,0,8.442,4.766,8.442,9.453c0,1.01-0.115,1.903-0.191,2.325L453.897,375.055L453.897,375.055z M460.826,371.025
					c0-1.43-0.623-3.834-3.324-3.834c-2.479,0-3.489,2.248-3.646,3.834H460.826z"/>
				<path fill="#007DC3" d="M477.176,358.551v5.154h4.23v4.336h-4.23v6.859c0,2.287,0.545,3.332,2.326,3.332
					c0.812,0,1.168-0.039,1.748-0.156l0.037,4.459c-0.775,0.305-2.172,0.539-3.842,0.539c-1.896,0-3.481-0.693-4.411-1.662
					c-1.086-1.125-1.629-2.947-1.629-5.617v-7.754h-2.519v-4.336h2.519v-3.566L477.176,358.551z"/>
				<path fill="#007DC3" d="M492.173,358.551v5.154h4.216v4.336h-4.216v6.859c0,2.287,0.543,3.332,2.319,3.332
					c0.813,0,1.164-0.039,1.748-0.156l0.035,4.459c-0.773,0.305-2.165,0.539-3.835,0.539c-1.896,0-3.486-0.693-4.416-1.662
					c-1.084-1.125-1.628-2.947-1.628-5.617v-7.754h-2.521v-4.336h2.521v-3.566L492.173,358.551z"/>
				<path fill="#007DC3" d="M505.108,375.055c0.192,2.438,2.598,3.605,5.354,3.605c2.008,0,3.634-0.275,5.222-0.773l0.771,3.99
					c-1.932,0.77-4.29,1.197-6.851,1.197c-6.432,0-10.11-3.758-10.11-9.686c0-4.8,2.983-10.113,9.571-10.113
					c6.113,0,8.443,4.766,8.443,9.453c0,1.01-0.117,1.903-0.199,2.325L505.108,375.055L505.108,375.055z M512.048,371.025
					c0-1.43-0.621-3.834-3.33-3.834c-2.483,0-3.489,2.248-3.647,3.834H512.048z"/>
				<path fill="#007DC3" d="M521.805,369.939c0-2.789-0.071-4.605-0.147-6.234h5.077l0.192,3.486h0.156
					c0.967-2.756,3.289-3.916,5.107-3.916c0.541,0,0.813,0,1.238,0.078v5.582c-0.425-0.121-0.929-0.193-1.589-0.193
					c-2.168,0-3.637,1.162-4.022,2.982c-0.076,0.391-0.115,0.854-0.115,1.317v9.604h-5.897V369.939L521.805,369.939z"/>
				<path fill="#007DC3" d="M539.492,383.074c-1.978,0-3.402-1.508-3.402-3.566c0-2.086,1.426-3.598,3.48-3.598
					c2.053,0,3.446,1.469,3.446,3.598c0,2.059-1.395,3.566-3.485,3.566H539.492z"/>
			</g>
		</g>
		<g>
			<g>
				<g>
					<g>
						<path fill="#FDBB30" d="M622.734,274.28c3.27,0,5.962-1.698,6.324-3.897l3.232-36.517c0-3.61-4.229-6.575-9.548-6.575
							c-5.312,0-9.532,2.965-9.532,6.575l3.225,36.517c0.356,2.199,3.053,3.897,6.311,3.897H622.734z"/>
						<path fill="#FDBB30" d="M602.996,285.688c1.641-2.829,1.514-6.011-0.213-7.422l-30.018-21.052
							c-3.117-1.806-7.8,0.368-10.456,4.973c-2.664,4.6-2.19,9.739,0.927,11.542l33.23,15.475c2.081,0.774,4.909-0.708,6.54-3.536
							L602.996,285.688z"/>
						<path fill="#FDBB30" d="M642.486,285.668c1.637,2.828,4.456,4.31,6.536,3.536l33.236-15.475
							c3.13-1.803,3.579-6.943,0.935-11.542c-2.668-4.604-7.355-6.778-10.469-4.973l-30.017,21.052
							c-1.717,1.411-1.844,4.594-0.211,7.422L642.486,285.668z"/>
					</g>
					<g>
						<path fill="#FDBB30" d="M622.734,319.893c3.27,0,5.962,1.689,6.324,3.887l3.232,36.517c0,3.615-4.229,6.574-9.548,6.574
							c-5.312,0-9.532-2.959-9.532-6.574l3.225-36.517c0.356-2.196,3.053-3.887,6.311-3.887H622.734z"/>
						<path fill="#FDBB30" d="M642.486,308.488c1.637-2.833,4.456-4.305,6.536-3.521l33.236,15.457
							c3.13,1.811,3.579,6.953,0.935,11.557c-2.668,4.59-7.355,6.771-10.469,4.972l-30.017-21.035
							c-1.717-1.428-1.844-4.606-0.211-7.435L642.486,308.488z"/>
						<path fill="#FDBB30" d="M602.996,308.482c1.641,2.826,1.514,6.006-0.213,7.434l-30.018,21.035
							c-3.117,1.801-7.8-0.381-10.456-4.971c-2.664-4.604-2.19-9.746,0.927-11.558l33.23-15.457
							c2.081-0.783,4.909,0.688,6.542,3.521L602.996,308.482z"/>
					</g>
				</g>
			</g>
			<g>
				<path fill="#007DC3" d="M449.839,301.28c0-13.791-5.89-25.921-25.794-25.921c-10.22,0-18.332,2.871-22.759,5.427l3.241,11.083
					c4.044-2.552,10.492-4.665,16.594-4.665c10.097-0.025,11.753,5.715,11.753,9.396v0.871
					c-22.014-0.033-35.923,7.585-35.923,23.115c0,9.48,7.084,18.367,19.399,18.367c7.572,0,13.911-3.021,17.702-7.865h0.375
					c0,0,2.516,10.518,16.373,6.495c-0.729-4.378-0.963-9.044-0.963-14.664L449.839,301.28L449.839,301.28z M433.405,315.846
					c0,1.122-0.101,2.28-0.408,3.293c-1.273,4.217-5.641,7.779-11.101,7.779c-4.554,0-8.17-2.584-8.17-8.049
					c0-8.358,9.202-10.67,19.679-10.615V315.846z"/>
				<path fill="#007DC3" d="M106.919,256.582c0,0,14.381,58.934,16.676,68.498c2.679,11.165,7.506,15.273,21.423,12.503
					l8.981-36.541c2.276-9.075,3.803-15.545,5.267-24.776h0.257c1.028,9.323,2.493,15.729,4.366,24.81
					c0,0,3.655,16.586,5.527,25.298c1.877,8.71,7.1,14.196,20.732,11.21l21.398-81.001H194.27l-7.306,35.02
					c-1.964,10.193-3.745,18.159-5.119,27.484H181.6c-1.25-9.235-2.837-16.883-4.835-26.813l-7.607-35.69h-17.999l-8.136,34.791
					c-2.305,10.572-4.461,19.107-5.833,28.117h-0.247c-1.405-8.483-3.276-19.212-5.3-29.445c0,0-4.834-24.886-6.53-33.463h-18.194
					V256.582z"/>
				<path fill="#007DC3" d="M260.641,301.28c0-13.791-5.89-25.921-25.79-25.921c-10.222,0-18.336,2.871-22.759,5.427l3.237,11.083
					c4.048-2.552,10.493-4.665,16.596-4.665c10.104-0.025,11.757,5.715,11.757,9.396v0.871
					c-22.017-0.033-35.924,7.585-35.924,23.115c0,9.48,7.08,18.367,19.39,18.367c7.578,0,13.915-3.021,17.713-7.865h0.373
					c0,0,2.515,10.518,16.372,6.495c-0.728-4.378-0.963-9.044-0.963-14.664V301.28H260.641z M244.21,315.846
					c0,1.122-0.097,2.28-0.408,3.293c-1.273,4.217-5.641,7.779-11.1,7.779c-4.552,0-8.168-2.584-8.168-8.049
					c0-8.358,9.202-10.67,19.676-10.615V315.846L244.21,315.846z"/>
				<polygon fill="#007DC3" points="288.061,320.385 288.061,256.582 271.613,256.582 271.613,337.583 288.061,337.583 				"/>
				<path fill="#007DC3" d="M503.268,256.582c0,7.771,0,59.755,0,59.755c0,8.237,1.553,14.011,4.868,17.535
					c2.898,3.084,7.671,5.081,13.393,5.081c4.861,0,9.646-0.924,11.901-1.764l-0.212-12.853c-1.678,0.412-3.606,0.742-6.248,0.742
					c-5.603,0-7.48-3.589-7.48-10.985v-22.86h14.323v-15.498h-14.323v-19.154H503.268L503.268,256.582z"/>
				<path fill="#007DC3" d="M460.807,276.732v60.851h16.97v-31.158c0-1.682,0.102-3.147,0.366-4.491
					c1.257-6.527,6.248-10.699,13.413-10.699c1.968,0,3.374,0.213,4.897,0.434v-15.932c-1.277-0.258-2.15-0.377-3.739-0.377
					c-6.332,0-13.536,4.088-16.56,12.851h-0.461v-11.478L460.807,276.732L460.807,276.732z"/>
				<path fill="#007DC3" d="M299.581,276.732v60.851h16.536v-35.687c0-1.673,0.19-3.441,0.774-4.98
					c1.371-3.593,4.712-7.796,10.051-7.796c6.672,0,9.794,5.642,9.794,13.782v34.681h16.518v-36.117
					c0-1.598,0.219-3.521,0.688-4.933c1.357-4.087,4.961-7.413,9.922-7.413c6.765,0,10.011,5.542,10.011,15.121
					c0,0,0,25.704,0,33.342h16.53v-35.839c0-18.9-9.597-26.385-20.432-26.385c-4.797,0-8.584,1.203-12.008,3.305
					c-2.878,1.767-5.456,4.275-7.708,7.579h-0.244c-2.613-6.558-8.761-10.884-16.77-10.884c-10.293,0-14.917,5.216-17.723,9.642
					h-0.244v-8.269H299.581z"/>
			</g>
		</g>
	</g>
	<g>
		<path fill="#FDBB30" d="M689.295,333.884c1.621,0,2.88,1.259,2.88,2.827c0,1.604-1.259,2.846-2.896,2.846
			c-1.621,0-2.914-1.242-2.914-2.846c0-1.568,1.293-2.827,2.914-2.827H689.295z M689.261,334.452c-1.241,0-2.173,1.019-2.173,2.259
			c0,1.26,0.932,2.26,2.207,2.26c1.242,0.018,2.155-1,2.155-2.26c0-1.24-0.913-2.259-2.172-2.259H689.261z M688.83,338.177h-0.655
			v-2.811c0.259-0.052,0.62-0.104,1.086-0.104c0.535,0,0.776,0.088,0.983,0.225c0.154,0.121,0.274,0.346,0.274,0.604
			c0,0.327-0.24,0.568-0.586,0.673v0.034c0.275,0.086,0.432,0.31,0.518,0.688c0.087,0.432,0.139,0.604,0.207,0.689h-0.707
			c-0.086-0.104-0.138-0.345-0.225-0.672c-0.052-0.311-0.225-0.447-0.586-0.447h-0.311L688.83,338.177L688.83,338.177z
			 M688.847,336.591h0.312c0.361,0,0.654-0.12,0.654-0.414c0-0.259-0.188-0.431-0.604-0.431c-0.172,0-0.293,0.018-0.362,0.033
			V336.591z"/>
	</g>
</g>
</svg>
